<svg width="32" height="232" viewBox="0 0 32 232" xmlns="http://www.w3.org/2000/svg"><g fill="none"><path d="M18.168 8.38c.18-.3.286-.654.286-1.03l-.006-.12c1.134-.686 1.892-1.923 1.892-3.33 0-2.15-1.768-3.9-3.94-3.9-2.173 0-3.94 1.75-3.94 3.9 0 1.407.758 2.644 1.89 3.33l-.005.12c0 .376.106.73.287 1.03-5.78.85-10.23 5.792-10.23 11.745C4.4 26.672 9.782 32 16.4 32c6.614 0 12-5.33 12-11.875 0-5.953-4.45-10.895-10.23-11.745zm-1.77-7.24c1.54 0 2.79 1.238 2.79 2.76 0 .914-.454 1.727-1.148 2.23-.375-.494-.97-.814-1.64-.814s-1.268.32-1.643.813c-.695-.51-1.148-1.32-1.148-2.23 0-1.53 1.25-2.76 2.79-2.76zm0 28.58c-5.347 0-9.694-4.305-9.694-9.595 0-5.29 4.347-9.594 9.695-9.594 5.34 0 9.69 4.31 9.69 9.6s-4.35 9.6-9.7 9.6zm7.388-10.153L21.89 18.49c-.203-.743-.557-1.423-1.03-2.01l1.847-2.382c.124-.158.11-.382-.034-.522-.143-.14-.37-.155-.53-.036l-2.465 1.843c-.534-.37-1.136-.65-1.785-.82l-1.096-1.865c-.072-.122-.206-.198-.35-.198-.146 0-.278.076-.35.198L15 14.562c-1.945.508-3.48 2.016-3.997 3.927l-1.897 1.07c-.124.07-.202.2-.202.34s.078.27.202.34l1.897 1.07c.168.62.446 1.2.81 1.72l-2.07 2.67c-.125.15-.11.38.034.52.078.08.18.12.285.12.086 0 .172-.03.246-.09l2.68-2.01c.59.45 1.27.79 2.012.98l1.095 1.86c.072.12.205.2.35.2s.28-.08.35-.2l1.097-1.87c1.947-.51 3.48-2.02 3.997-3.93l1.89-1.08c.12-.07.2-.2.2-.35 0-.14-.08-.27-.21-.35zm-11.816.344c0-2.42 2.008-4.39 4.476-4.39.822 0 1.592.22 2.254.6l-3.555 2.66-.078.08-2.51 3.24c-.372-.64-.587-1.38-.587-2.17zm4.476 4.4c-.925 0-1.784-.27-2.5-.75l3.357-2.51.076-.07 2.75-3.55c.49.71.79 1.57.79 2.49 0 2.43-2.01 4.4-4.48 4.4z" fill="#3B444F"/><path d="M18.168 48.38c.18-.3.286-.654.286-1.03l-.006-.12c1.134-.686 1.892-1.923 1.892-3.33 0-2.15-1.768-3.9-3.94-3.9-2.173 0-3.94 1.75-3.94 3.9 0 1.407.758 2.644 1.89 3.33l-.005.12c0 .376.106.73.287 1.03-5.78.85-10.23 5.792-10.23 11.745C4.4 66.672 9.782 72 16.4 72c6.614 0 12-5.33 12-11.875 0-5.953-4.452-10.896-10.232-11.744zm-1.77-7.24c1.54 0 2.79 1.238 2.79 2.76 0 .914-.454 1.727-1.148 2.23-.375-.494-.97-.814-1.64-.814s-1.268.32-1.643.813c-.695-.51-1.148-1.32-1.148-2.23 0-1.53 1.25-2.76 2.79-2.76zm0 28.58c-5.347 0-9.694-4.305-9.694-9.595 0-5.29 4.347-9.594 9.695-9.594 5.34 0 9.69 4.31 9.69 9.6s-4.35 9.6-9.7 9.6zm7.388-10.153L21.89 58.49c-.203-.743-.557-1.423-1.03-2.01l1.847-2.382c.124-.158.11-.382-.034-.522-.143-.14-.37-.155-.53-.036l-2.465 1.843c-.534-.37-1.136-.65-1.785-.82l-1.096-1.865c-.072-.122-.206-.198-.35-.198-.146 0-.278.076-.35.198L15 54.562c-1.945.508-3.48 2.016-3.997 3.927l-1.897 1.07c-.124.07-.202.2-.202.34s.078.27.202.34l1.897 1.07c.168.62.446 1.2.81 1.72l-2.07 2.67c-.125.15-.11.38.034.52.078.08.18.12.285.12.086 0 .172-.03.246-.09l2.68-2.01c.59.45 1.27.79 2.012.98l1.095 1.86c.072.12.205.2.35.2s.28-.08.35-.2l1.097-1.87c1.947-.51 3.48-2.02 3.997-3.93l1.89-1.08c.12-.07.2-.2.2-.35 0-.14-.08-.27-.21-.35zm-11.816.344c0-2.42 2.008-4.39 4.476-4.39.822 0 1.592.22 2.254.6l-3.555 2.66-.078.08-2.51 3.24c-.372-.64-.587-1.38-.587-2.17zm4.476 4.4c-.925 0-1.784-.27-2.5-.75l3.357-2.51.076-.07 2.75-3.55c.49.71.79 1.57.79 2.49 0 2.43-2.01 4.4-4.48 4.4z" fill="#67747C"/><path d="M18.168 88.38c.18-.3.286-.654.286-1.03l-.006-.12c1.134-.686 1.892-1.923 1.892-3.33 0-2.15-1.768-3.9-3.94-3.9-2.173 0-3.94 1.75-3.94 3.9 0 1.407.758 2.644 1.89 3.33l-.005.12c0 .376.106.73.287 1.03-5.78.85-10.23 5.792-10.23 11.745 0 6.547 5.382 11.874 12 11.874 6.614 0 12-5.33 12-11.88 0-5.96-4.452-10.9-10.232-11.75zm-1.77-7.24c1.54 0 2.79 1.238 2.79 2.76 0 .914-.454 1.727-1.148 2.23-.375-.494-.97-.814-1.64-.814s-1.268.32-1.643.813c-.695-.51-1.148-1.32-1.148-2.23 0-1.53 1.25-2.76 2.79-2.76zm0 28.58c-5.347 0-9.694-4.305-9.694-9.595 0-5.29 4.347-9.594 9.695-9.594 5.34 0 9.69 4.31 9.69 9.6s-4.35 9.6-9.7 9.6zm7.388-10.153L21.89 98.49c-.203-.743-.557-1.423-1.03-2.01l1.847-2.382c.124-.158.11-.382-.034-.522-.143-.14-.37-.155-.53-.036l-2.465 1.843c-.534-.37-1.136-.65-1.785-.82l-1.096-1.865c-.072-.122-.206-.198-.35-.198-.146 0-.278.076-.35.198L15 94.562c-1.945.508-3.48 2.016-3.997 3.927l-1.897 1.07c-.124.07-.202.2-.202.34s.078.27.202.34l1.897 1.07c.168.62.446 1.2.81 1.72l-2.07 2.67c-.125.15-.11.38.034.52.078.08.18.12.285.12.086 0 .172-.03.246-.09l2.68-2.01c.59.45 1.27.79 2.012.98l1.095 1.86c.072.12.205.2.35.2s.28-.08.35-.2l1.097-1.87c1.947-.51 3.48-2.02 3.997-3.93l1.89-1.08c.12-.07.2-.2.2-.35 0-.14-.08-.27-.21-.35zm-11.816.344c0-2.42 2.008-4.39 4.476-4.39.822 0 1.592.22 2.254.6l-3.555 2.66-.078.08-2.51 3.24c-.372-.64-.587-1.38-.587-2.17zm4.476 4.4c-.925 0-1.784-.27-2.5-.75l3.357-2.51.076-.07 2.75-3.55c.49.71.79 1.57.79 2.49 0 2.43-2.01 4.4-4.48 4.4z" fill="#fff"/><path d="M18.168 128.38c.18-.3.286-.654.286-1.03l-.006-.12c1.134-.686 1.892-1.923 1.892-3.33 0-2.15-1.768-3.9-3.94-3.9-2.173 0-3.94 1.75-3.94 3.9 0 1.407.758 2.644 1.89 3.33l-.005.12c0 .376.106.73.287 1.03-5.78.85-10.23 5.792-10.23 11.745 0 6.547 5.382 11.874 12 11.874 6.614 0 12-5.33 12-11.88 0-5.96-4.452-10.9-10.232-11.75zm-1.77-7.24c1.54 0 2.79 1.238 2.79 2.76 0 .914-.454 1.727-1.148 2.23-.375-.494-.97-.814-1.64-.814s-1.268.32-1.643.813c-.695-.51-1.148-1.32-1.148-2.23 0-1.53 1.25-2.76 2.79-2.76zm0 28.58c-5.347 0-9.694-4.305-9.694-9.595 0-5.29 4.347-9.594 9.695-9.594 5.34 0 9.69 4.31 9.69 9.6s-4.35 9.6-9.7 9.6zm7.388-10.153l-1.897-1.077c-.21-.743-.56-1.423-1.03-2.01l1.84-2.382c.12-.158.11-.382-.04-.522s-.37-.155-.53-.036l-2.47 1.843c-.54-.37-1.14-.65-1.79-.82l-1.1-1.865c-.07-.122-.21-.198-.35-.198s-.28.076-.35.198L15 134.562c-1.945.508-3.48 2.016-3.997 3.927l-1.897 1.07c-.124.07-.202.2-.202.34s.078.27.202.34l1.897 1.07c.168.62.446 1.2.81 1.72l-2.07 2.67c-.125.15-.11.38.034.52.078.08.18.12.285.12.086 0 .172-.03.246-.09l2.68-2.01c.59.45 1.27.79 2.012.98l1.095 1.86c.072.12.205.2.35.2s.28-.08.35-.2l1.097-1.87c1.947-.51 3.48-2.02 3.997-3.93l1.89-1.08c.12-.07.2-.2.2-.35 0-.14-.08-.27-.21-.35zm-11.816.344c0-2.42 2.008-4.39 4.476-4.39.822 0 1.592.22 2.254.6l-3.555 2.66-.078.08-2.51 3.24c-.372-.64-.587-1.38-.587-2.17zm4.476 4.4c-.925 0-1.784-.27-2.5-.75l3.357-2.51.076-.07 2.75-3.55c.49.71.79 1.57.79 2.49 0 2.43-2.01 4.4-4.48 4.4z" fill="#206FAC"/></g></svg>