<svg width="32" height="232" viewBox="0 0 32 232" xmlns="http://www.w3.org/2000/svg"><g fill="none"><path d="M19.66 2.68H3.907c-.57 0-1.03.477-1.03 1.066v22.14c0 1.55 1.22 2.81 2.72 2.81H19.4c.568 0 1.03-.477 1.03-1.065s-.462-1.06-1.03-1.06l-.217-.04c-.042-.16-.067-.37-.067-.64s.025-.48.067-.64l.216-.04.13-.01.13.01c.57 0 1.03-.48 1.03-1.06V3.75c0-.588-.46-1.065-1.03-1.065zM4.937 4.81h.885v9.044c0 .218.13.415.327.495l.19.03c.14 0 .27-.06.37-.17l1.69-1.87c.09-.1.13-.23.13-.37V4.81h10.09v18.264H5.59c-.225 0-.45.03-.66.084V4.81zm1.915 0v-.532h.66v7.495l-.66.73V4.81zm11.432 19.862c-.12.308-.197.705-.197 1.213 0 .51.075.905.197 1.213H5.594c-.264 0-.507-.09-.703-.244-.08-.07-.16-.15-.23-.242-.15-.203-.23-.454-.23-.728l.01-.057c.02-.373.2-.702.47-.912l.05-.034c.19-.13.42-.2.66-.2H18.3zM19.66 2.68H3.907c-.57 0-1.03.477-1.03 1.066v22.14c0 1.55 1.22 2.81 2.72 2.81H19.4c.568 0 1.03-.477 1.03-1.065s-.462-1.06-1.03-1.06l-.217-.04c-.042-.16-.067-.37-.067-.64s.025-.48.067-.64l.216-.04.13-.01.13.01c.57 0 1.03-.48 1.03-1.06V3.75c0-.588-.46-1.065-1.03-1.065zM4.937 4.81h.885v9.044c0 .218.13.415.327.495l.19.03c.14 0 .27-.06.37-.17l1.69-1.87c.09-.1.13-.23.13-.37V4.81h10.09v18.264H5.59c-.225 0-.45.03-.66.084V4.81zm1.915 0v-.532h.66v7.495l-.66.73V4.81zm11.432 19.862c-.12.308-.197.705-.197 1.213 0 .51.075.905.197 1.213H5.594c-.264 0-.507-.09-.703-.244-.08-.07-.16-.15-.23-.242-.15-.203-.23-.454-.23-.728l.01-.057c.02-.373.2-.702.47-.912l.05-.034c.19-.13.42-.2.66-.2H18.3zm8.956-9.85c.19-1.24.328-2.138.328-3.474 0-.834-.352-1.395-.845-1.714v-1.73c.436-.364.715-.92.715-1.544 0-.674-.33-1.1-.62-1.477-.388-.505-.79-1.027-.79-2.39 0-.22-.13-.416-.328-.495-.198-.08-.423-.026-.567.136-.063.07-1.546 1.767-1.546 4.226 0 .623.28 1.18.714 1.545v1.742c-.48.322-.82.88-.82 1.702 0 1.32.14 2.21.33 3.44.14.92.32 2.06.49 3.76.13 1.3.06 3.03-.02 4.71-.14 3.11-.19 5.06.51 5.82.2.22.46.33.74.33.29 0 .55-.12.75-.34.7-.76.65-2.7.51-5.8-.07-1.67-.15-3.4-.02-4.69.17-1.7.35-2.85.49-3.77zm-1.496 8.51c.058 1.298.114 2.523.07 3.487-.053 1.19-.242 1.47-.294 1.52-.05-.06-.24-.34-.295-1.53-.043-.97.01-2.2.07-3.5.075-1.72.154-3.49.014-4.87-.18-1.73-.36-2.89-.5-3.82-.19-1.23-.31-2.03-.31-3.28 0-.31.08-.53.2-.68.19-.24.5-.31.77-.31h.09c.38 0 .62.12.77.3.16.19.2.44.2.67 0 1.25-.13 2.07-.32 3.31-.15.93-.33 2.1-.5 3.83-.14 1.37-.06 3.14.01 4.85zm.662-16.973c0 .51-.4.92-.895.92-.49 0-.89-.42-.89-.93 0-.95.27-1.77.57-2.37.21.74.56 1.19.84 1.56.27.34.4.52.4.81zM25.33 8.35h.362v.96l-.127-.004h-.09l-.145.005v-.96z" fill="#373D43"/><path d="M19.66 42.68H3.907c-.57 0-1.03.477-1.03 1.066v22.14c0 1.55 1.22 2.81 2.72 2.81H19.4c.568 0 1.03-.477 1.03-1.065s-.462-1.06-1.03-1.06l-.217-.04c-.042-.16-.067-.37-.067-.64s.025-.48.067-.64l.216-.04.13-.01.13.01c.57 0 1.03-.48 1.03-1.06v-20.4c0-.58-.46-1.06-1.03-1.06zM4.937 44.81h.885v9.044c0 .218.13.415.327.495l.19.03c.14 0 .27-.06.37-.17l1.69-1.87c.09-.1.13-.23.13-.37V44.8h10.09v18.27H5.59c-.23 0-.45.03-.66.085V44.81zm1.915 0v-.532h.66v7.495l-.66.73V44.81zm11.432 19.862c-.12.308-.197.705-.197 1.213 0 .51.075.905.197 1.213H5.594c-.264 0-.507-.09-.703-.244-.08-.07-.16-.15-.23-.242-.15-.203-.23-.454-.23-.728l.01-.057c.02-.373.2-.702.47-.912l.05-.034c.19-.13.42-.2.66-.2H18.3zm8.954-9.85c.19-1.24.328-2.14.328-3.474 0-.834-.352-1.395-.845-1.714v-1.73c.44-.364.72-.92.72-1.544 0-.674-.33-1.1-.62-1.477-.39-.505-.79-1.027-.79-2.39 0-.22-.13-.416-.33-.495-.2-.08-.42-.026-.56.136-.06.07-1.54 1.767-1.54 4.226 0 .623.28 1.18.72 1.545v1.742c-.48.322-.82.88-.82 1.702 0 1.32.14 2.21.33 3.44.14.92.32 2.06.49 3.76.13 1.3.06 3.03-.02 4.71-.14 3.11-.19 5.06.52 5.82.2.22.46.33.74.33.29 0 .54-.12.74-.34.7-.76.65-2.7.51-5.8-.07-1.67-.15-3.4-.02-4.69.17-1.7.35-2.85.49-3.77zm-1.496 8.51c.058 1.298.114 2.523.07 3.487-.053 1.19-.242 1.47-.294 1.52-.05-.06-.24-.34-.295-1.53-.043-.97.01-2.2.07-3.5.075-1.72.154-3.49.014-4.87-.174-1.73-.352-2.89-.495-3.82-.188-1.23-.312-2.03-.312-3.28 0-.31.078-.53.198-.68.194-.24.5-.31.774-.31h.09c.385 0 .624.12.768.3.157.19.203.44.203.67 0 1.25-.125 2.07-.315 3.31-.144.93-.322 2.1-.496 3.83-.14 1.37-.06 3.14.017 4.85zm.662-16.973c0 .51-.4.92-.895.92s-.9-.42-.9-.93c0-.95.27-1.77.56-2.37.21.74.55 1.19.83 1.56.26.34.39.52.39.81zm-1.076 1.99h.362v.96l-.127-.01h-.235v-.96zm-5.668-5.67H3.907c-.57 0-1.03.47-1.03 1.06v22.14c0 1.55 1.22 2.81 2.72 2.81H19.4c.568 0 1.03-.48 1.03-1.07s-.462-1.06-1.03-1.06l-.217-.04c-.042-.17-.067-.38-.067-.65s.025-.48.067-.64l.216-.04.13-.01.13.01c.57 0 1.03-.48 1.03-1.07V43.75c0-.588-.46-1.065-1.03-1.065zM4.937 44.81h.885v9.044c0 .218.13.415.327.495l.19.03c.14 0 .27-.06.37-.17l1.69-1.87c.09-.1.13-.23.13-.37V44.8h10.09v18.27H5.59c-.23 0-.45.03-.66.085V44.81zm1.915 0v-.532h.66v7.495l-.66.73V44.81zm11.432 19.862c-.12.308-.197.705-.197 1.213 0 .51.075.905.197 1.213H5.594c-.264 0-.507-.09-.703-.244-.08-.07-.16-.15-.23-.242-.15-.203-.23-.454-.23-.728l.01-.057c.02-.373.2-.702.47-.912l.05-.034c.19-.13.42-.2.66-.2H18.3zm8.954-9.85c.19-1.24.328-2.14.328-3.474 0-.834-.352-1.395-.845-1.714v-1.73c.44-.364.72-.92.72-1.544 0-.674-.33-1.1-.62-1.477-.39-.505-.79-1.027-.79-2.39 0-.22-.13-.416-.33-.495-.2-.08-.42-.026-.56.136-.06.07-1.54 1.767-1.54 4.226 0 .623.28 1.18.72 1.545v1.742c-.48.322-.82.88-.82 1.702 0 1.32.14 2.21.33 3.44.14.92.32 2.06.49 3.76.13 1.3.06 3.03-.02 4.71-.14 3.11-.19 5.06.52 5.82.2.22.46.33.74.33.29 0 .54-.12.74-.34.7-.76.65-2.7.51-5.8-.07-1.67-.15-3.4-.02-4.69.17-1.7.35-2.85.49-3.77zm-1.496 8.51c.058 1.298.114 2.523.07 3.487-.053 1.19-.242 1.47-.294 1.52-.05-.06-.24-.34-.295-1.53-.043-.97.01-2.2.07-3.5.075-1.72.154-3.49.014-4.87-.174-1.73-.352-2.89-.495-3.82-.188-1.23-.312-2.03-.312-3.28 0-.31.078-.53.198-.68.194-.24.5-.31.774-.31h.09c.385 0 .624.12.768.3.157.19.203.44.203.67 0 1.25-.125 2.07-.315 3.31-.144.93-.322 2.1-.496 3.83-.14 1.37-.06 3.14.017 4.85zm.662-16.973c0 .51-.4.92-.895.92s-.9-.42-.9-.93c0-.95.27-1.77.56-2.37.21.74.55 1.19.83 1.56.26.34.39.52.39.81zm-1.076 1.99h.362v.96l-.127-.01h-.235v-.96z" fill="#67747C"/><path d="M19.66 122.68H3.907c-.57 0-1.03.477-1.03 1.066v22.14c0 1.55 1.22 2.81 2.72 2.81H19.4c.568 0 1.03-.477 1.03-1.065s-.462-1.06-1.03-1.06l-.217-.04c-.042-.16-.067-.37-.067-.64s.025-.48.067-.64l.216-.04.13-.01.13.01c.57 0 1.03-.48 1.03-1.06v-20.4c0-.58-.46-1.06-1.03-1.06zm-14.724 2.13h.885v9.044c0 .218.13.415.33.495l.19.03c.14 0 .28-.06.38-.17l1.69-1.87c.09-.1.14-.23.14-.37v-7.17h10.09v18.26H5.6c-.23 0-.45.03-.66.08V124.8zm1.915 0v-.532h.66v7.495l-.66.73v-7.693zm11.44 19.862c-.12.308-.19.705-.19 1.213 0 .51.08.905.2 1.213H5.6c-.267 0-.51-.09-.706-.244-.08-.07-.16-.15-.23-.242-.15-.203-.23-.454-.23-.728l.006-.057c.02-.373.2-.702.47-.912l.045-.034c.188-.13.415-.2.66-.2h12.68zm8.96-9.85c.19-1.24.33-2.138.33-3.474 0-.834-.35-1.395-.84-1.714v-1.73c.44-.364.72-.92.72-1.544 0-.674-.33-1.1-.62-1.477-.38-.505-.79-1.027-.79-2.39 0-.22-.13-.416-.32-.495-.2-.08-.42-.026-.57.136-.06.07-1.54 1.767-1.54 4.226 0 .623.28 1.18.72 1.545v1.742c-.48.322-.83.88-.83 1.702 0 1.32.14 2.21.33 3.44.14.92.32 2.06.49 3.76.13 1.3.06 3.03-.02 4.71-.14 3.11-.19 5.06.51 5.82.2.22.46.33.74.33.29 0 .54-.12.75-.34.7-.76.65-2.7.51-5.8-.07-1.67-.15-3.4-.02-4.69.17-1.7.35-2.85.49-3.77zm-1.49 8.51c.06 1.298.12 2.523.07 3.487-.05 1.19-.24 1.47-.29 1.52-.05-.06-.24-.34-.29-1.53-.04-.97.01-2.2.07-3.5.08-1.72.16-3.49.02-4.87-.17-1.73-.35-2.89-.49-3.82-.19-1.23-.31-2.03-.31-3.28 0-.31.08-.53.2-.68.19-.24.5-.31.77-.31h.09c.39 0 .63.12.77.3.16.19.21.44.21.67 0 1.25-.13 2.07-.32 3.31-.14.93-.32 2.1-.49 3.83-.14 1.37-.06 3.14.02 4.85zm.66-16.973c0 .51-.4.92-.89.92s-.89-.42-.89-.93c0-.95.27-1.77.56-2.37.21.74.56 1.19.84 1.56.27.34.4.52.4.81zm-1.07 1.99h.36v.96l-.12-.01h-.23v-.96z" fill="#206FAC"/><path d="M19.66 82.68H3.907c-.57 0-1.03.477-1.03 1.066v22.14c0 1.55 1.22 2.81 2.72 2.81H19.4c.568 0 1.03-.477 1.03-1.065s-.462-1.06-1.03-1.06l-.217-.04c-.042-.16-.067-.37-.067-.64s.025-.48.067-.64l.216-.04.13-.01.13.01c.57 0 1.03-.48 1.03-1.06v-20.4c0-.58-.46-1.06-1.03-1.06zM4.937 84.81h.885v9.044c0 .218.13.415.327.495l.19.03c.14 0 .27-.06.37-.17l1.69-1.87c.09-.1.13-.23.13-.37V84.8h10.09v18.264H5.59c-.23 0-.45.03-.66.084V84.81zm1.915 0v-.532h.66v7.495l-.66.73V84.81zm11.432 19.862c-.12.308-.197.705-.197 1.213 0 .51.075.905.197 1.213H5.594c-.264 0-.507-.09-.703-.244-.08-.07-.16-.15-.23-.242-.15-.203-.23-.454-.23-.728l.01-.057c.02-.373.2-.702.47-.912l.05-.034c.19-.13.42-.2.66-.2H18.3zm8.956-9.85c.19-1.24.328-2.138.328-3.474 0-.834-.352-1.395-.845-1.714v-1.73c.436-.364.715-.92.715-1.544 0-.674-.33-1.1-.62-1.477-.388-.505-.79-1.027-.79-2.39 0-.22-.13-.416-.328-.495-.198-.08-.423-.026-.567.136-.063.07-1.546 1.767-1.546 4.226 0 .623.28 1.18.714 1.545v1.742c-.48.322-.82.88-.82 1.702 0 1.32.14 2.21.33 3.44.14.92.32 2.06.49 3.76.13 1.3.06 3.03-.02 4.71-.14 3.11-.19 5.06.51 5.82.2.22.46.33.74.33.29 0 .55-.12.75-.34.7-.76.65-2.7.51-5.8-.07-1.67-.15-3.4-.02-4.69.17-1.7.35-2.85.49-3.77zm-1.496 8.51c.058 1.298.114 2.523.07 3.487-.053 1.19-.242 1.47-.294 1.52-.05-.06-.24-.34-.295-1.53-.043-.97.01-2.2.07-3.5.075-1.72.154-3.49.014-4.87-.18-1.73-.36-2.89-.5-3.82-.19-1.23-.31-2.03-.31-3.28 0-.31.08-.53.2-.68.19-.24.5-.31.77-.31h.09c.38 0 .62.12.77.3.16.19.2.44.2.67 0 1.25-.13 2.07-.32 3.31-.15.93-.33 2.1-.5 3.83-.14 1.37-.06 3.14.01 4.85zm.662-16.973c0 .51-.4.92-.895.92-.49 0-.89-.42-.89-.93 0-.95.27-1.77.57-2.37.21.74.56 1.19.84 1.56.27.34.4.52.4.81zm-1.076 1.99h.362v.96l-.127-.01h-.235v-.96z" fill="#fff"/></g></svg>