<svg width="32" height="232" viewBox="0 0 32 232" xmlns="http://www.w3.org/2000/svg"><g fill="none"><path d="M28.472 25.956l-2.968.967-5.127-1.394-.213-.04-4.014-.16-.25-1.87h13.008c.572 0 1.037-.51 1.037-1.13s-.465-1.13-1.037-1.13h-.4c.066-.36.1-.72.1-1.09 0-3-2.243-5.44-5.003-5.44-2.76 0-5.003 2.44-5.003 5.44 0 .36.036.73.1 1.08H15.6l-1.087-8.12-.027-.14c.75.07 1.473.34 2.11.8.44.31 1.03.22 1.37-.22.72-.94 1.728-1.55 2.84-1.73.22-.04.442-.05.66-.05.6 0 1.182.12 1.735.37.14.06.28.09.41.09.57-.01 1.03-.51 1.03-1.13 0-.19-.04-.37-.12-.53-1.91-4.55-6.1-7.49-10.7-7.49-.39 0-.79.02-1.19.063l-.05-.4c-.04-.31-.3-.523-.58-.477-.28.046-.48.33-.44.64l.06.4c-4.95 1.046-8.8 5.44-9.46 10.89-.06.46.15.91.52 1.13.16.1.33.146.51.146.23 0 .46-.088.65-.255.64-.56 1.4-.92 2.21-1.05.22-.03.44-.05.66-.05.89 0 1.76.28 2.51.82.44.31 1.03.22 1.37-.22.5-.66 1.14-1.15 1.86-1.45l.01.15 1.05 7.8H3.04c-.573 0-1.038.5-1.038 1.13 0 .62.465 1.12 1.037 1.12H13.8l.238 1.78-.385-.02c-.108-.005-.217.01-.32.04l-3.25.994-3.85.28-2.77-.882c-.55-.18-1.13.165-1.29.76-.16.6.15 1.225.7 1.4l2.946.944c.12.038.24.05.36.044l4.14-.3.21-.04 3.2-.98.6.03.14 1.07c.07.56.51.965 1.02.965l.15-.02c.56-.09.95-.665.87-1.28l-.09-.66 3.52.14 5.3 1.44.25.034c.1 0 .2-.016.3-.047l3.24-1.055c.55-.18.86-.81.69-1.41-.17-.595-.74-.93-1.29-.755zm-7.795-5.825c0-1.75 1.314-3.18 2.928-3.18 1.615 0 2.93 1.43 2.93 3.19 0 .38-.06.74-.176 1.09h-5.51c-.12-.34-.18-.71-.18-1.08zm.855-10.61c-.342 0-.69.03-1.03.08-1.178.19-2.276.71-3.19 1.51-.592-2.24-1.422-4.32-2.407-5.69 2.64.33 5.037 1.83 6.627 4.11zm-14.83 2.34c-.318 0-.642.03-.962.08-.34.06-.676.14-1.004.25.933-2.68 2.85-4.85 5.268-5.98-.58 1.62-.83 3.87-.81 6.19-.79-.35-1.632-.53-2.492-.53zm3.525.18c.005-3.03.5-5.25 1.185-6.35.326-.09.66-.16 1-.22.335-.05.675-.09 1.014-.1.942.85 2 2.82 2.8 5.72-.684-.26-1.407-.39-2.142-.39-.32 0-.643.03-.963.08-1.05.17-2.04.61-2.89 1.27z" fill="#3B444F"/><path d="M28.472 65.956l-2.968.967-5.127-1.394-.213-.04-4.014-.16-.25-1.87h13.008c.572 0 1.037-.51 1.037-1.13s-.465-1.13-1.037-1.13h-.4c.066-.36.1-.72.1-1.09 0-3-2.243-5.44-5.003-5.44-2.76 0-5.003 2.44-5.003 5.44 0 .36.036.73.1 1.08H15.6l-1.087-8.12-.027-.14c.75.07 1.473.34 2.11.8.44.31 1.03.22 1.37-.22.72-.94 1.728-1.55 2.84-1.73.22-.04.442-.05.66-.05.6 0 1.182.12 1.735.37.14.06.28.09.41.09.57-.01 1.03-.51 1.03-1.13 0-.19-.04-.37-.12-.53-1.9-4.55-6.09-7.49-10.69-7.49-.39 0-.79.02-1.19.06l-.05-.396c-.04-.31-.3-.52-.58-.48-.28.047-.48.33-.44.64l.06.397c-4.94 1.03-8.79 5.42-9.46 10.87-.05.457.15.907.52 1.13.16.097.34.144.51.144.23 0 .47-.085.65-.25.64-.56 1.4-.924 2.22-1.055.22-.034.45-.05.67-.05.89 0 1.76.284 2.51.824.44.32 1.03.224 1.37-.216.5-.658 1.14-1.15 1.86-1.45l.01.15 1.05 7.794H3.04c-.573 0-1.04.5-1.04 1.125s.467 1.13 1.04 1.13h10.767l.238 1.777-.38-.015c-.1 0-.21.01-.32.04l-3.25 1-3.85.28-2.77-.885c-.55-.18-1.13.163-1.29.76-.16.6.16 1.224.7 1.4l2.95.943c.12.034.24.05.366.04l4.14-.3.21-.04 3.2-.98.61.02.15 1.07c.08.56.52.97 1.03.97l.15-.01c.57-.09.96-.664.88-1.28l-.09-.66 3.53.14 5.296 1.44.25.034c.1 0 .2-.02.3-.05l3.24-1.06c.55-.18.86-.81.698-1.405-.17-.6-.74-.93-1.29-.76zm-7.795-5.825c0-1.75 1.314-3.18 2.928-3.18 1.615 0 2.93 1.43 2.93 3.19 0 .38-.06.74-.176 1.09h-5.51c-.12-.34-.18-.71-.18-1.08zm.855-10.61c-.342 0-.69.03-1.03.08-1.178.19-2.276.71-3.19 1.51-.592-2.24-1.422-4.32-2.407-5.69 2.64.33 5.037 1.83 6.627 4.11zm-14.83 2.34c-.318 0-.642.03-.962.08-.34.06-.676.14-1.004.25.933-2.68 2.85-4.85 5.268-5.98-.58 1.62-.83 3.87-.81 6.19-.79-.35-1.632-.53-2.492-.53zm3.525.18c.005-3.03.5-5.25 1.185-6.35.326-.09.66-.16 1-.22.335-.05.675-.09 1.014-.1.942.85 2 2.82 2.8 5.72-.684-.26-1.407-.39-2.142-.39-.32 0-.643.03-.963.08-1.05.17-2.04.61-2.89 1.27z" fill="#67747C"/><path d="M28.472 105.956l-2.968.967-5.127-1.394-.213-.04-4.014-.16-.25-1.87h13.008c.572 0 1.037-.51 1.037-1.13s-.465-1.13-1.037-1.13h-.4c.066-.36.1-.72.1-1.09 0-3-2.243-5.44-5.003-5.44-2.76 0-5.003 2.44-5.003 5.44 0 .36.036.73.1 1.08H15.6l-1.087-8.12-.027-.14c.75.07 1.473.34 2.11.8.44.31 1.03.22 1.37-.22.72-.94 1.728-1.55 2.84-1.73.22-.04.442-.05.66-.05.6 0 1.182.12 1.735.37.14.06.28.09.41.09.57-.01 1.03-.51 1.03-1.13 0-.19-.04-.37-.12-.53-1.9-4.55-6.09-7.49-10.69-7.49-.39 0-.79.02-1.19.06l-.05-.396c-.04-.31-.3-.52-.58-.48-.28.047-.48.33-.44.64l.06.397c-4.94 1.03-8.79 5.42-9.46 10.87-.05.457.15.907.52 1.13.16.097.34.144.51.144.23 0 .47-.085.65-.25.64-.56 1.4-.924 2.22-1.055.22-.034.45-.05.67-.05.89 0 1.76.284 2.51.824.44.32 1.03.224 1.37-.216.5-.658 1.14-1.15 1.86-1.45l.01.15 1.05 7.794H3.04c-.573 0-1.04.5-1.04 1.125s.467 1.13 1.04 1.13h10.767l.238 1.777-.38-.015c-.1 0-.21.01-.32.04l-3.25 1-3.85.28-2.77-.885c-.55-.18-1.13.163-1.29.76-.16.6.16 1.224.7 1.4l2.95.943c.12.034.24.05.366.04l4.14-.3.21-.04 3.2-.98.61.02.15 1.07c.08.56.52.97 1.03.97l.15-.01c.57-.09.96-.664.88-1.28l-.09-.66 3.53.14 5.296 1.44.25.034c.1 0 .2-.02.3-.05l3.24-1.06c.55-.18.86-.81.698-1.405-.17-.6-.74-.93-1.29-.76zm-7.795-5.825c0-1.75 1.314-3.18 2.928-3.18 1.615 0 2.93 1.43 2.93 3.19 0 .38-.06.74-.176 1.09h-5.51c-.12-.34-.18-.71-.18-1.08zm.855-10.61c-.342 0-.69.03-1.03.08-1.178.19-2.276.71-3.19 1.51-.592-2.24-1.422-4.32-2.407-5.69 2.64.33 5.037 1.83 6.627 4.11zm-14.83 2.34c-.318 0-.642.03-.962.08-.34.06-.676.14-1.004.25.933-2.68 2.85-4.85 5.268-5.98-.58 1.62-.83 3.87-.81 6.19-.79-.35-1.632-.53-2.492-.53zm3.525.18c.005-3.03.5-5.25 1.185-6.35.326-.09.66-.16 1-.22.335-.05.675-.09 1.014-.1.942.85 2 2.82 2.8 5.72-.684-.26-1.407-.39-2.142-.39-.32 0-.643.03-.963.08-1.05.17-2.04.61-2.89 1.27z" fill="#fff"/><path d="M28.472 145.956l-2.968.967-5.127-1.394-.213-.04-4.014-.16-.25-1.87h13.008c.572 0 1.037-.51 1.037-1.13s-.465-1.13-1.037-1.13h-.4c.066-.36.1-.72.1-1.09 0-3-2.243-5.44-5.003-5.44-2.76 0-5.003 2.44-5.003 5.44 0 .36.036.73.1 1.08H15.6l-1.087-8.12-.027-.14c.75.07 1.473.34 2.11.8.44.31 1.03.22 1.37-.22.72-.94 1.728-1.55 2.84-1.73.22-.04.442-.05.66-.05.6 0 1.182.12 1.735.37.14.06.28.09.41.09.57-.01 1.03-.51 1.03-1.13 0-.19-.04-.37-.12-.53-1.9-4.55-6.09-7.49-10.69-7.49-.39 0-.79.02-1.19.06l-.05-.396c-.04-.31-.3-.52-.58-.48-.28.047-.48.33-.44.64l.06.397c-4.93 1.03-8.79 5.42-9.45 10.87-.05.458.15.908.52 1.13.16.1.34.146.51.146.23 0 .47-.086.65-.25.64-.56 1.4-.926 2.22-1.057.22-.034.45-.05.67-.05.89 0 1.76.284 2.51.824.44.316 1.03.22 1.37-.22.5-.654 1.14-1.15 1.86-1.45l.01.15 1.05 7.798H3.04c-.573 0-1.04.51-1.04 1.13 0 .628.46 1.13 1.035 1.13H13.8l.24 1.78-.386-.014c-.107 0-.216.01-.32.04l-3.25 1-3.848.28-2.77-.887c-.55-.17-1.13.17-1.29.77-.16.6.153 1.224.702 1.4l2.945.943c.12.035.24.05.363.04l4.14-.3.21-.04 3.2-.98.604.025.142 1.07c.075.56.518.967 1.025.967l.152-.014c.56-.09.95-.66.87-1.28l-.09-.66 3.52.14 5.3 1.44.25.036c.1 0 .2-.01.3-.04l3.24-1.056c.54-.18.86-.81.69-1.405-.17-.59-.75-.93-1.3-.75zm-7.795-5.825c0-1.75 1.314-3.18 2.928-3.18 1.615 0 2.93 1.43 2.93 3.19 0 .38-.06.74-.176 1.09h-5.51c-.12-.34-.18-.71-.18-1.08zm.855-10.61c-.342 0-.69.03-1.03.08-1.178.19-2.276.71-3.19 1.51-.592-2.24-1.422-4.32-2.407-5.69 2.64.33 5.037 1.83 6.627 4.11zm-14.83 2.34c-.318 0-.642.03-.962.08-.34.06-.676.14-1.004.25.933-2.68 2.85-4.85 5.268-5.98-.58 1.62-.83 3.87-.81 6.19-.79-.35-1.632-.53-2.492-.53zm3.525.17c.005-3.03.5-5.25 1.185-6.35.326-.09.66-.16 1-.22.335-.05.675-.08 1.014-.1.942.85 2 2.82 2.8 5.72-.684-.26-1.407-.39-2.142-.39-.32 0-.643.03-.963.08-1.05.17-2.04.61-2.89 1.27z" fill="#206FAC"/></g></svg>