<svg width="32" height="232" viewBox="0 0 32 232" xmlns="http://www.w3.org/2000/svg"><g fill="none"><path d="M20.334 24.826c.276 0 .544-.102.755-.293.25-.227.39-.554.39-.9V9.783c0-.597-.43-1.1-1-1.18l-1.88-.27V6.98c0-.307-.23-.564-.52-.594L5.36 5.07c-.16-.017-.32.038-.44.15-.12.113-.19.272-.19.44v.687L3.647 6.19c-.328-.04-.662.06-.913.29-.25.23-.394.56-.394.9V21.3c0 .444.23.85.61 1.055l8.49 4.663c.17.093.35.14.536.14.206 0 .41-.058.593-.17.34-.217.55-.605.55-1.024v-2.157l7.04 1.01.16.01zm-9.5-1.348v.508l-1.252-.688-1.48-.812-1.482-.814-1.483-.814-.498-.272V9.433l.08.047.57.314.57.316 2.8 1.54.16.092 1.31.724.67.368v10.644zM5.884 6.513v-.19l11.58 1.195v3.06l-.004 2.336-4.328-.62v-.177c0-.44-.236-.846-.612-1.052L9.583 9.45 6.62 7.824l-.74-.406.002-.902zm7.25 9.707l6.05.866v5.18l-6.05-.864V16.22zm6.05-.337l-6.05-.867V13.56l6.05.866v1.457zm0-2.66l-.574-.083.002-2.397.572.08v2.4zm7.81 10.214c-.7 0-4.18.076-4.18 1.585 0 .34.18.61.465.82-.43-.045-.82-.054-1.05-.054-.79 0-3.34.1-3.34 1.355s2.55 1.352 3.33 1.352c.78 0 3.33-.097 3.33-1.352 0-.268-.12-.48-.31-.655.75.106 1.46.118 1.73.118.7 0 4.18-.076 4.18-1.583 0-1.508-3.48-1.585-4.18-1.585zM22.23 27.3c-.695 0-1.25-.072-1.64-.158.39-.09.945-.162 1.64-.162s1.253.073 1.642.162c-.39.086-.947.16-1.642.16zm4.76-1.886c-1.346 0-2.306-.208-2.774-.392.467-.185 1.427-.393 2.775-.393 1.35 0 2.31.2 2.78.39-.47.18-1.43.39-2.77.39z" fill="#3B444F"/><path d="M20.334 64.826c.276 0 .544-.102.755-.293.25-.227.39-.554.39-.9v-13.85c0-.597-.43-1.1-1-1.18l-1.88-.27V46.98c0-.307-.23-.564-.52-.594L5.36 45.07c-.16-.017-.32.038-.44.15-.12.113-.19.272-.19.44v.687l-1.086-.156c-.328-.04-.662.06-.913.29-.25.23-.39.56-.39.9V61.3c0 .444.23.85.61 1.055l8.49 4.663c.17.093.35.14.54.14.21 0 .41-.058.6-.17.35-.217.56-.605.56-1.024v-2.157l7.05 1.01.16.01zm-9.5-1.348v.508l-1.252-.688-1.48-.812-1.482-.814-1.483-.814-.498-.272V49.433l.08.047.57.314.57.316 2.8 1.54.16.092 1.31.724.67.368v10.644zm-4.95-16.965v-.19l11.58 1.195v3.06l-.003 2.336-4.32-.62v-.177c0-.44-.23-.846-.61-1.052L9.59 49.45l-2.964-1.626-.74-.406.003-.902zm7.25 9.707l6.05.866v5.18l-6.05-.864V56.22zm6.05-.337l-6.05-.867V53.56l6.05.866v1.457zm0-2.66l-.573-.083.01-2.397.57.08v2.4zm7.81 10.214c-.698 0-4.178.076-4.178 1.585 0 .34.18.61.464.82-.43-.045-.817-.054-1.048-.054-.783 0-3.334.1-3.334 1.355s2.552 1.352 3.334 1.352c.783 0 3.334-.097 3.334-1.352 0-.268-.117-.48-.304-.655.753.106 1.456.118 1.73.118.7 0 4.178-.076 4.178-1.583 0-1.508-3.478-1.585-4.177-1.585zM22.23 67.3c-.695 0-1.25-.072-1.64-.158.39-.09.945-.162 1.64-.162s1.253.073 1.642.162c-.39.086-.947.16-1.642.16zm4.76-1.886c-1.346 0-2.306-.208-2.774-.392.467-.185 1.427-.393 2.775-.393 1.35 0 2.31.2 2.78.39-.47.18-1.43.39-2.77.39z" fill="#67747C"/><path d="M20.334 104.826c.276 0 .544-.102.755-.293.25-.227.39-.554.39-.9v-13.85c0-.597-.43-1.1-1-1.18l-1.88-.27V86.98c0-.307-.23-.564-.52-.594L5.36 85.07c-.16-.017-.32.038-.44.15-.12.113-.19.272-.19.44v.687l-1.086-.156c-.328-.04-.662.06-.913.29-.25.23-.39.56-.39.9v13.92c0 .45.23.85.61 1.06l8.49 4.67c.17.1.35.14.54.14.21 0 .41-.06.6-.17.35-.21.56-.6.56-1.02v-2.15l7.05 1.01.16.01zm-9.5-1.348v.508l-1.252-.688-1.48-.812-1.482-.814-1.483-.814-.498-.272V89.433l.08.047.57.314.57.316 2.8 1.54.16.092 1.31.724.67.368v10.644zm-4.95-16.965v-.19l11.58 1.195v3.06l-.003 2.336-4.32-.62v-.177c0-.44-.23-.846-.61-1.052L9.59 89.45l-2.964-1.626-.74-.406.003-.902zm7.25 9.707l6.05.866v5.18l-6.05-.864V96.22zm6.05-.337l-6.05-.867V93.56l6.05.866v1.457zm0-2.66l-.573-.083.01-2.397.57.08v2.4zm7.81 10.214c-.698 0-4.178.076-4.178 1.585 0 .34.18.61.464.82-.43-.045-.817-.054-1.048-.054-.783 0-3.334.1-3.334 1.355s2.552 1.352 3.334 1.352c.783 0 3.334-.097 3.334-1.352 0-.268-.117-.48-.304-.655.753.106 1.456.118 1.73.118.7 0 4.178-.076 4.178-1.583 0-1.508-3.478-1.585-4.177-1.585zM22.23 107.3c-.695 0-1.25-.072-1.64-.158.39-.09.945-.162 1.64-.162s1.253.073 1.642.162c-.39.086-.947.16-1.642.16zm4.76-1.886c-1.346 0-2.306-.208-2.774-.392.467-.185 1.427-.393 2.775-.393 1.35 0 2.31.2 2.78.39-.47.18-1.43.39-2.77.39z" fill="#fff"/><path d="M20.334 144.826c.276 0 .544-.102.755-.293.25-.227.39-.554.39-.9v-13.85c0-.597-.43-1.1-1-1.18l-1.88-.27v-1.355c0-.307-.23-.564-.52-.594L5.36 125.07c-.162-.017-.32.038-.442.15-.12.113-.19.272-.19.44v.687l-1.088-.156c-.328-.04-.662.06-.913.29-.25.23-.393.56-.393.9v13.92c0 .45.235.85.61 1.06l8.494 4.67c.17.1.354.14.54.14.205 0 .41-.06.592-.17.346-.21.558-.6.558-1.02v-2.15l7.048 1.01.158.01zm-9.5-1.348v.508l-1.252-.688-1.48-.812-1.482-.814-1.483-.814-.498-.272v-11.153l.08.047.57.314.57.316 2.8 1.54.16.092 1.31.724.67.368v10.644zm-4.95-16.965v-.19l11.58 1.195v3.06l-.003 2.336-4.32-.62v-.177c0-.44-.23-.846-.61-1.052l-2.93-1.613-2.96-1.627-.74-.406.01-.91zm7.25 9.707l6.05.866v5.18l-6.05-.864v-5.182zm6.05-.337l-6.05-.867v-1.457l6.05.86v1.45zm0-2.66l-.573-.083.01-2.397.57.08v2.4zm7.81 10.214c-.698 0-4.178.076-4.178 1.585 0 .34.18.61.464.82-.43-.045-.817-.054-1.048-.054-.783 0-3.334.1-3.334 1.355s2.552 1.352 3.334 1.352c.783 0 3.334-.097 3.334-1.352 0-.268-.117-.48-.304-.655.753.106 1.456.118 1.73.118.7 0 4.178-.076 4.178-1.583 0-1.508-3.478-1.585-4.177-1.585zM22.23 147.3c-.695 0-1.25-.072-1.64-.158.39-.09.945-.162 1.64-.162s1.253.073 1.642.162c-.39.086-.947.16-1.642.16zm4.76-1.886c-1.346 0-2.306-.208-2.774-.392.467-.185 1.427-.393 2.775-.393 1.35 0 2.31.2 2.78.39-.47.18-1.43.39-2.77.39z" fill="#206FAC"/></g></svg>