<svg width="32" height="232" viewBox="0 0 32 232" xmlns="http://www.w3.org/2000/svg"><g fill="none"><path d="M31.47 19.683c-.563 0-.868.164-1.114.297-.194.107-.323.176-.633.176s-.438-.07-.632-.176c-.24-.133-.55-.297-1.11-.297-.29 0-.51.044-.69.105-.02-.175-.09-.347-.2-.498l-1.15-1.564c-.11-.15-.25-.265-.41-.34l-2.22-.998c.01-.43.07-.97.22-1.582.28-1.108.73-1.847.98-2.2.91.124 2.97.462 4.19 1.12.08.043.16.062.24.062.16 0 .3-.07.41-.2.16-.2.16-.487.01-.69-.05-.066-1.17-1.51-3.13-1.725.75-.48 1.63-.965 2.37-1.186.24-.07.4-.305.38-.563-.01-.257-.2-.47-.44-.508-.02-.003-.2-.032-.49-.032-.67 0-2.07.157-3.28 1.32-.26-1.146-.95-2.443-2.45-3.327-.21-.126-.48-.08-.64.112-.16.19-.18.47-.04.68.02.02 1.16 1.72 1.83 3.33-.17-.03-.362-.05-.57-.05-1 0-1.94.41-2.712 1.2-.18.18-.21.46-.08.68.093.16.264.26.443.26l.17-.03c.017-.01 1.425-.51 2.68-.67-.29.48-.625 1.19-.856 2.11-.104.42-.17.82-.21 1.18l-.702-.57c-.18-.15-.4-.23-.63-.23l-1.19-.01c.01-.46-.02-1.09-.2-1.81-.2-.79-.49-1.38-.73-1.79 1.3-.49 3.1-.67 3.12-.68.24-.02.436-.22.47-.48.03-.26-.115-.5-.346-.59-.496-.186-.994-.28-1.48-.28-.547 0-1.027.12-1.43.29.51-1.01 1.105-1.89 1.11-1.905.15-.21.13-.496-.03-.686-.167-.19-.435-.237-.648-.11-1.17.685-1.74 1.67-1.983 2.575-.967-.857-2.06-.976-2.59-.976-.24 0-.395.03-.41.03-.246.04-.43.25-.446.51-.015.26.143.49.38.56.692.21 1.53.7 2.185 1.14-1.8.55-2.46 2.214-2.49 2.3-.09.24-.01.514.19.66.09.062.19.092.29.092.13 0 .26-.05.36-.155.74-.736 2.09-1.44 2.81-1.783.2.31.47.83.65 1.55.16.62.19 1.15.17 1.53-.38 0-.69.005-.8.01-.13.01-.48.04-1.25.566l-1.47-.51c-.1-.04-.21-.052-.33-.052h-2.95l-.26.03-2.51.682-.21.085-2.64 1.41c-.13.076-.25.18-.34.3l-1.55 2.06c-.077.1-.13.2-.168.313-.183-.066-.413-.116-.72-.116-.29 0-.524.25-.524.55 0 .307.23.55.52.55.31 0 .44.07.63.18.21.11.46.247.87.285l.2.02.14-.01c.5-.016.78-.17 1.01-.294.2-.11.327-.18.63-.18.31 0 .44.07.64.18.245.13.55.295 1.114.295.56 0 .87-.16 1.11-.294.19-.11.32-.18.63-.18s.44.07.63.18c.25.13.55.296 1.12.296.56 0 .87-.164 1.11-.297.195-.11.324-.178.633-.178s.44.07.634.18c.246.137.55.3 1.11.3s.87-.162 1.12-.295c.19-.11.32-.18.63-.18s.44.07.635.18c.246.135.55.3 1.114.3s.87-.165 1.11-.3c.193-.106.323-.175.63-.175.31 0 .44.07.633.173.24.13.55.294 1.11.294s.87-.166 1.112-.3c.19-.11.32-.18.63-.18s.435.07.63.177c.242.13.55.293 1.112.293s.87-.165 1.113-.298c.2-.105.33-.174.638-.174s.44.07.63.178c.24.132.55.3 1.11.3s.866-.167 1.113-.3c.196-.107.325-.176.634-.176.284 0 .52-.248.52-.55 0-.304-.237-.55-.525-.55zm-6.988 0c-.564 0-.87.164-1.114.297-.195.107-.325.176-.633.176-.31 0-.44-.07-.633-.176-.245-.133-.55-.297-1.115-.297-.564 0-.87.164-1.115.297-.194.107-.323.176-.633.176s-.44-.07-.64-.176c-.25-.133-.55-.297-1.12-.297-.57 0-.87.164-1.12.297-.2.107-.33.176-.63.176-.31 0-.44-.07-.64-.176-.25-.133-.55-.297-1.11-.297-.57 0-.87.164-1.12.297-.2.107-.32.176-.63.176s-.44-.07-.64-.176c-.25-.133-.55-.297-1.12-.297-.57 0-.87.164-1.12.297-.2.107-.33.176-.63.176-.31 0-.44-.07-.64-.176-.24-.133-.55-.297-1.11-.297H6.9l.532-.708 2.31-1.243 2.27-.62h2.647l1.81.63c.33.113.69.05.96-.165.21-.166.53-.386.69-.47.35-.008 1.4-.005 2.43.003l1.15.934.22.14 2.47 1.11.29.4-.25-.01zm.68 2.717h-.05c-.564 0-.87.164-1.115.297-.19.104-.318.173-.612.176-.294-.003-.423-.072-.613-.176-.246-.133-.55-.297-1.115-.297h-.04c-.564 0-.87.164-1.115.297-.19.104-.318.173-.613.176-.3-.003-.43-.072-.62-.176-.25-.133-.55-.297-1.12-.297h-.04c-.57 0-.87.164-1.12.297-.19.104-.32.173-.62.176-.3-.003-.42-.072-.61-.176-.25-.133-.55-.297-1.11-.297h-.04c-.57 0-.87.164-1.12.297-.19.104-.32.173-.61.176-.3-.003-.43-.072-.62-.176-.25-.133-.55-.297-1.12-.297h-.04c-.56 0-.87.164-1.11.297-.19.104-.32.173-.62.176-.3-.003-.42-.072-.61-.176-.25-.133-.55-.297-1.12-.297H7.6c-.562 0-.87.164-1.113.297-.19.104-.318.173-.61.176-.296-.003-.42-.072-.614-.176-.244-.133-.55-.297-1.115-.297h-.04c-.567 0-.87.164-1.117.297-.19.104-.32.173-.61.176-.29-.003-.42-.072-.61-.176-.24-.133-.55-.297-1.11-.297H.64c-.283.005-.512.248-.512.548 0 .302.233.548.524.548l.02.002c.293.002.422.07.612.174.245.133.55.3 1.114.3h.04c.564 0 .868-.167 1.114-.3.19-.104.318-.173.613-.174.294.002.422.07.613.174.244.133.55.3 1.113.3h.04c.57 0 .87-.167 1.12-.3.19-.104.32-.173.62-.174.3.002.42.07.62.174.25.133.55.3 1.12.3h.04c.57 0 .87-.167 1.12-.3.19-.104.32-.173.61-.174.3.002.43.07.62.174.25.133.55.3 1.12.3h.04c.57 0 .87-.167 1.12-.3.19-.104.32-.173.62-.174.296.002.42.07.61.174.248.133.55.3 1.116.3h.04c.57 0 .87-.167 1.12-.3.19-.104.32-.173.61-.174.296.002.424.07.614.174.24.133.55.3 1.11.3h.04c.56 0 .87-.167 1.11-.3.19-.104.32-.173.614-.174.29.002.42.07.61.174.24.133.55.3 1.11.3h.04c.563 0 .87-.167 1.113-.3.19-.104.32-.173.617-.174l.02-.002c.29 0 .525-.246.525-.548 0-.3-.23-.543-.518-.548" fill="#3B444F"/><path d="M31.47 59.683c-.563 0-.868.164-1.114.297-.194.107-.323.176-.633.176s-.438-.07-.632-.176c-.24-.133-.55-.297-1.11-.297-.29 0-.51.044-.69.105-.02-.175-.09-.347-.2-.498l-1.15-1.564c-.11-.15-.25-.265-.41-.34l-2.22-.998c.01-.43.07-.97.22-1.582.28-1.108.73-1.847.98-2.2.91.124 2.97.462 4.19 1.12.08.043.16.062.24.062.16 0 .3-.07.41-.2.16-.2.16-.487.01-.69-.05-.066-1.17-1.51-3.13-1.725.75-.48 1.63-.965 2.37-1.186.24-.07.4-.305.38-.563-.01-.257-.2-.47-.44-.508-.02-.003-.2-.032-.49-.032-.67 0-2.07.157-3.28 1.32-.26-1.146-.95-2.443-2.45-3.327-.21-.126-.48-.08-.64.112-.16.19-.18.47-.04.68.02.02 1.16 1.72 1.83 3.33-.17-.03-.362-.05-.57-.05-1 0-1.94.41-2.712 1.2-.18.18-.21.46-.08.68.093.16.264.26.443.26l.17-.03c.017-.01 1.425-.51 2.68-.67-.29.48-.625 1.19-.856 2.11-.104.42-.17.82-.21 1.18l-.702-.57c-.18-.15-.4-.23-.63-.23l-1.19-.01c.01-.46-.02-1.09-.2-1.81-.2-.79-.49-1.38-.73-1.79 1.3-.49 3.1-.67 3.12-.68.24-.02.436-.22.47-.48.03-.26-.115-.5-.346-.59-.496-.186-.994-.28-1.48-.28-.547 0-1.027.12-1.43.29.51-1.01 1.105-1.89 1.11-1.905.15-.21.13-.496-.03-.686-.167-.19-.435-.237-.648-.11-1.17.685-1.74 1.67-1.983 2.575-.967-.857-2.06-.976-2.59-.976-.24 0-.395.03-.41.03-.246.04-.43.25-.446.51-.015.26.143.49.38.56.692.21 1.53.7 2.185 1.14-1.8.55-2.46 2.214-2.49 2.3-.09.24-.01.514.19.66.09.062.19.092.29.092.13 0 .26-.05.36-.155.74-.736 2.09-1.44 2.81-1.783.2.31.47.83.65 1.55.16.62.19 1.15.17 1.53-.38 0-.69.005-.8.01-.13.01-.48.04-1.25.566l-1.47-.51c-.1-.04-.21-.052-.33-.052h-2.95l-.26.03-2.51.682-.21.085-2.64 1.41c-.13.076-.25.18-.34.3l-1.55 2.06c-.077.1-.13.2-.168.313-.183-.066-.413-.116-.72-.116-.29 0-.524.25-.524.55 0 .307.23.55.52.55.31 0 .44.07.63.18.21.11.46.247.87.285l.2.02.14-.01c.5-.016.78-.17 1.01-.294.2-.11.327-.18.63-.18.31 0 .44.07.64.18.245.13.55.295 1.114.295.56 0 .87-.16 1.11-.294.19-.11.32-.18.63-.18s.44.07.63.18c.25.13.55.296 1.12.296.56 0 .87-.164 1.11-.297.195-.11.324-.178.633-.178s.44.07.634.18c.246.137.55.3 1.11.3s.87-.162 1.12-.295c.19-.11.32-.18.63-.18s.44.07.635.18c.246.135.55.3 1.114.3s.87-.165 1.11-.3c.193-.106.323-.175.63-.175.31 0 .44.07.633.173.24.13.55.294 1.11.294s.87-.166 1.112-.3c.19-.11.32-.18.63-.18s.435.07.63.177c.242.13.55.293 1.112.293s.87-.165 1.113-.298c.2-.105.33-.174.638-.174s.44.07.63.178c.24.132.55.3 1.11.3s.866-.167 1.113-.3c.196-.107.325-.176.634-.176.284 0 .52-.248.52-.55 0-.304-.237-.55-.525-.55zm-6.988 0c-.564 0-.87.164-1.114.297-.195.107-.325.176-.633.176-.31 0-.44-.07-.633-.176-.245-.133-.55-.297-1.115-.297-.564 0-.87.164-1.115.297-.194.107-.323.176-.633.176s-.44-.07-.64-.176c-.25-.133-.55-.297-1.12-.297-.57 0-.87.164-1.12.297-.2.107-.33.176-.63.176-.31 0-.44-.07-.64-.176-.25-.133-.55-.297-1.11-.297-.57 0-.87.164-1.12.297-.2.107-.32.176-.63.176s-.44-.07-.64-.176c-.25-.133-.55-.297-1.12-.297-.57 0-.87.164-1.12.297-.2.107-.33.176-.63.176-.31 0-.44-.07-.64-.176-.24-.133-.55-.297-1.11-.297H6.9l.532-.708 2.31-1.243 2.27-.62h2.647l1.81.63c.33.113.69.05.96-.165.21-.166.53-.386.69-.47.35-.008 1.4-.005 2.43.003l1.15.934.22.14 2.47 1.11.29.4-.25-.01zm.68 2.717h-.05c-.564 0-.87.164-1.115.297-.19.104-.318.173-.612.176-.294-.003-.423-.072-.613-.176-.246-.133-.55-.297-1.115-.297h-.04c-.564 0-.87.164-1.115.297-.19.104-.318.173-.613.176-.3-.003-.43-.072-.62-.176-.25-.133-.55-.297-1.12-.297h-.04c-.57 0-.87.164-1.12.297-.19.104-.32.173-.62.176-.3-.003-.42-.072-.61-.176-.25-.133-.55-.297-1.11-.297h-.04c-.57 0-.87.164-1.12.297-.19.104-.32.173-.61.176-.3-.003-.43-.072-.62-.176-.25-.133-.55-.297-1.12-.297h-.04c-.56 0-.87.164-1.11.297-.19.104-.32.173-.62.176-.3-.003-.42-.072-.61-.176-.25-.133-.55-.297-1.12-.297H7.6c-.562 0-.87.164-1.113.297-.19.104-.318.173-.61.176-.296-.003-.42-.072-.614-.176-.244-.133-.55-.297-1.115-.297h-.04c-.567 0-.87.164-1.117.297-.19.104-.32.173-.61.176-.29-.003-.42-.072-.61-.176-.24-.133-.55-.297-1.11-.297H.64c-.283.005-.512.248-.512.548 0 .302.233.548.524.548l.02.002c.293.002.422.07.612.174.245.133.55.3 1.114.3h.04c.564 0 .868-.167 1.114-.3.19-.104.318-.173.613-.174.294.002.422.07.613.174.244.133.55.3 1.113.3h.04c.57 0 .87-.167 1.12-.3.19-.104.32-.173.62-.174.3.002.42.07.62.174.25.133.55.3 1.12.3h.04c.57 0 .87-.167 1.12-.3.19-.104.32-.173.61-.174.3.002.43.07.62.174.25.133.55.3 1.12.3h.04c.57 0 .87-.167 1.12-.3.19-.104.32-.173.62-.174.296.002.42.07.61.174.248.133.55.3 1.116.3h.04c.57 0 .87-.167 1.12-.3.19-.104.32-.173.61-.174.296.002.424.07.614.174.24.133.55.3 1.11.3h.04c.56 0 .87-.167 1.11-.3.19-.104.32-.173.614-.174.29.002.42.07.61.174.24.133.55.3 1.11.3h.04c.563 0 .87-.167 1.113-.3.19-.104.32-.173.617-.174l.02-.002c.29 0 .525-.246.525-.548 0-.3-.23-.543-.518-.548" fill="#67747C"/><path d="M31.47 139.683c-.563 0-.868.164-1.114.297-.194.107-.323.176-.633.176s-.438-.07-.632-.176c-.24-.133-.55-.297-1.11-.297-.29 0-.51.044-.69.105-.02-.175-.09-.347-.2-.498l-1.15-1.564c-.11-.15-.25-.265-.41-.34l-2.22-.998c.01-.43.07-.97.22-1.582.28-1.108.73-1.847.98-2.2.91.124 2.97.462 4.19 1.12.08.043.16.062.24.062.16 0 .3-.07.41-.2.16-.2.16-.487.01-.69-.05-.066-1.17-1.51-3.13-1.725.75-.48 1.63-.965 2.37-1.186.24-.07.4-.305.38-.563-.01-.257-.2-.47-.44-.508-.02-.003-.2-.032-.49-.032-.67 0-2.07.157-3.28 1.32-.26-1.146-.95-2.443-2.45-3.327-.21-.126-.48-.08-.64.112-.16.19-.18.47-.04.68.02.02 1.16 1.72 1.83 3.33-.17-.03-.362-.05-.57-.05-1 0-1.94.41-2.712 1.2-.18.18-.21.46-.08.68.093.16.264.26.443.26l.17-.03c.017-.01 1.425-.51 2.68-.67-.29.48-.625 1.19-.856 2.11-.104.42-.17.82-.21 1.18l-.702-.57c-.18-.15-.4-.23-.63-.23l-1.19-.01c.01-.46-.02-1.09-.2-1.81-.2-.79-.49-1.38-.73-1.79 1.3-.49 3.1-.67 3.12-.68.24-.02.436-.22.47-.48.03-.26-.115-.5-.346-.59-.496-.186-.994-.28-1.48-.28-.547 0-1.027.12-1.43.29.51-1.01 1.105-1.89 1.11-1.905.15-.21.13-.496-.03-.686-.167-.19-.435-.237-.648-.11-1.17.685-1.74 1.67-1.983 2.575-.967-.857-2.06-.976-2.59-.976-.24 0-.395.03-.41.03-.246.04-.43.25-.446.51-.015.26.143.49.38.56.692.21 1.53.7 2.185 1.14-1.8.55-2.46 2.214-2.49 2.3-.09.24-.01.514.19.66.09.062.19.092.29.092.13 0 .26-.05.36-.155.74-.736 2.09-1.44 2.81-1.783.2.31.47.83.65 1.55.16.62.19 1.15.17 1.53-.38 0-.69.005-.8.01-.13.01-.48.04-1.25.566l-1.47-.51c-.1-.04-.21-.052-.33-.052h-2.95l-.26.03-2.51.682-.21.085-2.616 1.41c-.13.07-.25.174-.34.3l-1.55 2.06c-.073.094-.127.2-.164.31-.183-.066-.413-.116-.72-.116-.287 0-.523.245-.523.55 0 .302.24.55.52.55.31 0 .44.07.638.174.21.11.46.25.876.29l.2.02.14-.01c.5-.02.785-.17 1.014-.298.2-.108.33-.177.635-.177.31 0 .44.07.63.174.246.136.55.3 1.115.3.56 0 .87-.162 1.11-.295.194-.11.32-.18.633-.18.31 0 .438.07.63.172.24.13.55.293 1.11.293.568 0 .87-.165 1.12-.3.19-.11.32-.176.63-.176s.44.07.633.18c.25.13.55.29 1.12.29s.87-.167 1.113-.3c.19-.11.32-.18.63-.18s.44.07.63.175c.25.133.55.3 1.12.3s.87-.165 1.112-.298c.2-.11.33-.18.64-.18s.44.07.632.172c.243.13.55.296 1.11.296s.87-.16 1.115-.292c.19-.11.32-.18.63-.18s.44.07.63.174c.246.13.55.29 1.116.29s.87-.166 1.118-.3c.2-.11.33-.18.64-.18s.44.07.637.17c.246.13.55.294 1.115.294s.87-.17 1.118-.3c.19-.11.32-.18.63-.18.29 0 .522-.246.522-.55 0-.3-.237-.547-.52-.547zm-6.988 0c-.564 0-.87.164-1.114.297-.195.107-.325.176-.633.176-.31 0-.44-.07-.633-.176-.245-.133-.55-.297-1.115-.297-.564 0-.87.164-1.115.297-.194.107-.323.176-.633.176s-.44-.07-.64-.176c-.25-.133-.55-.297-1.12-.297-.57 0-.87.164-1.12.297-.2.107-.33.176-.63.176-.31 0-.44-.07-.64-.176-.25-.133-.55-.297-1.11-.297-.57 0-.87.164-1.12.297-.2.107-.32.176-.63.176s-.44-.07-.64-.176c-.25-.133-.55-.297-1.12-.297-.57 0-.87.164-1.12.297-.2.107-.33.176-.63.176-.31 0-.44-.07-.64-.176-.24-.133-.55-.297-1.11-.297H6.9l.532-.708 2.31-1.243 2.27-.62h2.647l1.81.63c.33.113.69.05.96-.165.21-.166.53-.386.69-.47.35-.008 1.4-.005 2.43.003l1.15.934.22.14 2.47 1.11.29.4-.25-.01zm.68 2.717h-.05c-.564 0-.87.164-1.115.297-.19.104-.318.173-.612.176-.294-.003-.423-.072-.613-.176-.246-.133-.55-.297-1.115-.297h-.04c-.564 0-.87.164-1.115.297-.19.104-.318.173-.613.176-.3-.003-.43-.072-.62-.176-.25-.133-.55-.297-1.12-.297h-.04c-.57 0-.87.164-1.12.297-.19.104-.32.173-.62.176-.3-.003-.42-.072-.61-.176-.25-.133-.55-.297-1.11-.297h-.04c-.57 0-.87.164-1.12.297-.19.104-.32.173-.61.176-.3-.003-.43-.072-.62-.176-.25-.133-.55-.297-1.12-.297h-.04c-.56 0-.87.164-1.11.297-.19.104-.32.173-.62.176-.3-.003-.42-.072-.61-.176-.25-.133-.55-.297-1.12-.297H7.6c-.562 0-.87.164-1.113.297-.19.104-.318.173-.61.176-.296-.003-.42-.072-.614-.176-.244-.133-.55-.297-1.115-.297h-.04c-.567 0-.87.164-1.117.297-.19.104-.32.173-.61.176-.29-.003-.42-.072-.61-.176-.24-.133-.55-.297-1.11-.297H.64c-.283.005-.512.248-.512.548 0 .302.233.548.524.548l.02.002c.293.002.422.07.612.174.245.133.55.3 1.114.3h.04c.564 0 .868-.167 1.114-.3.19-.104.318-.173.613-.174.294.002.422.07.613.174.244.133.55.3 1.113.3h.04c.57 0 .87-.167 1.12-.3.19-.104.32-.173.62-.174.3.002.42.07.62.174.25.133.55.3 1.12.3h.04c.57 0 .87-.167 1.12-.3.19-.104.32-.173.61-.174.3.002.43.07.62.174.25.133.55.3 1.12.3h.04c.57 0 .87-.167 1.12-.3.19-.104.32-.173.62-.174.296.002.42.07.61.174.248.133.55.3 1.116.3h.04c.57 0 .87-.167 1.12-.3.19-.104.32-.173.61-.174.296.002.424.07.614.174.24.133.55.3 1.11.3h.04c.56 0 .87-.167 1.11-.3.19-.104.32-.173.614-.174.29.002.42.07.61.174.24.133.55.3 1.11.3h.04c.563 0 .87-.167 1.113-.3.19-.104.32-.173.617-.174l.02-.002c.29 0 .525-.246.525-.548 0-.3-.23-.543-.518-.548" fill="#206FAC"/><path d="M31.47 99.683c-.563 0-.868.164-1.114.297-.194.107-.323.176-.633.176s-.438-.07-.632-.176c-.24-.133-.55-.297-1.11-.297-.29 0-.51.044-.69.105-.02-.175-.09-.347-.2-.498l-1.15-1.564c-.11-.15-.25-.265-.41-.34l-2.22-.998c.01-.43.07-.97.22-1.582.28-1.108.73-1.847.98-2.2.91.124 2.97.462 4.19 1.12.08.043.16.062.24.062.16 0 .3-.07.41-.2.16-.2.16-.487.01-.69-.05-.066-1.17-1.51-3.13-1.725.75-.48 1.63-.965 2.37-1.186.24-.07.4-.305.38-.563-.01-.257-.2-.47-.44-.508-.02-.003-.2-.032-.49-.032-.67 0-2.07.157-3.28 1.32-.26-1.146-.95-2.443-2.45-3.327-.21-.126-.48-.08-.64.112-.16.19-.18.47-.04.68.02.02 1.16 1.72 1.83 3.33-.17-.03-.362-.05-.57-.05-1 0-1.94.41-2.712 1.2-.18.18-.21.46-.08.68.093.16.264.26.443.26l.17-.03c.017-.01 1.425-.51 2.68-.67-.29.48-.625 1.19-.856 2.11-.104.42-.17.82-.21 1.18l-.702-.57c-.18-.15-.4-.23-.63-.23l-1.19-.01c.01-.46-.02-1.09-.2-1.81-.2-.79-.49-1.38-.73-1.79 1.3-.49 3.1-.67 3.12-.68.24-.02.436-.22.47-.48.03-.26-.115-.5-.346-.59-.496-.186-.994-.28-1.48-.28-.547 0-1.027.12-1.43.29.51-1.01 1.105-1.89 1.11-1.905.15-.21.13-.496-.03-.686-.167-.19-.435-.237-.648-.11-1.17.685-1.74 1.67-1.983 2.575-.967-.857-2.06-.976-2.59-.976-.24 0-.395.03-.41.03-.246.04-.43.25-.446.51-.015.26.143.49.38.56.692.21 1.53.7 2.185 1.14-1.8.55-2.46 2.214-2.49 2.3-.09.24-.01.514.19.66.09.062.19.092.29.092.13 0 .26-.05.36-.155.74-.736 2.09-1.44 2.81-1.783.2.31.47.83.65 1.55.16.62.19 1.15.17 1.53-.38 0-.69.005-.8.01-.13.01-.48.04-1.25.566l-1.47-.51c-.1-.04-.21-.052-.33-.052h-2.95l-.26.03-2.51.682-.21.085-2.64 1.41c-.13.076-.25.18-.34.3l-1.55 2.06c-.077.1-.13.2-.168.313-.183-.066-.413-.116-.72-.116-.29 0-.524.25-.524.55 0 .307.23.55.52.55.31 0 .44.07.63.18.21.11.46.247.87.285l.2.02.14-.01c.5-.016.78-.17 1.01-.294.2-.11.327-.18.63-.18.31 0 .44.07.64.18.245.13.55.295 1.114.295.56 0 .87-.16 1.11-.294.19-.11.32-.18.63-.18s.44.07.63.18c.25.13.55.296 1.12.296.56 0 .87-.164 1.11-.297.195-.11.324-.178.633-.178s.44.07.634.18c.246.137.55.3 1.11.3s.87-.162 1.12-.295c.19-.11.32-.18.63-.18s.44.07.635.18c.246.135.55.3 1.114.3s.87-.165 1.11-.3c.193-.106.323-.175.63-.175.31 0 .44.07.633.173.24.13.55.294 1.11.294s.87-.166 1.112-.3c.19-.11.32-.18.63-.18s.435.07.63.177c.242.13.55.293 1.112.293s.87-.165 1.113-.298c.2-.105.33-.174.638-.174s.44.07.63.178c.24.132.55.3 1.11.3s.866-.167 1.113-.3c.196-.107.325-.176.634-.176.284 0 .52-.248.52-.55 0-.304-.237-.55-.525-.55zm-6.988 0c-.564 0-.87.164-1.114.297-.195.107-.325.176-.633.176-.31 0-.44-.07-.633-.176-.245-.133-.55-.297-1.115-.297-.564 0-.87.164-1.115.297-.194.107-.323.176-.633.176s-.44-.07-.64-.176c-.25-.133-.55-.297-1.12-.297-.57 0-.87.164-1.12.297-.2.107-.33.176-.63.176-.31 0-.44-.07-.64-.176-.25-.133-.55-.297-1.11-.297-.57 0-.87.164-1.12.297-.2.107-.32.176-.63.176s-.44-.07-.64-.176c-.25-.133-.55-.297-1.12-.297-.57 0-.87.164-1.12.297-.2.107-.33.176-.63.176-.31 0-.44-.07-.64-.176-.24-.133-.55-.297-1.11-.297H6.9l.532-.708 2.31-1.243 2.27-.62h2.647l1.81.63c.33.113.69.05.96-.165.21-.166.53-.386.69-.47.35-.008 1.4-.005 2.43.003l1.15.934.22.14 2.47 1.11.29.4-.25-.01zm.68 2.717h-.05c-.564 0-.87.164-1.115.297-.19.104-.318.173-.612.176-.294-.003-.423-.072-.613-.176-.246-.133-.55-.297-1.115-.297h-.04c-.564 0-.87.164-1.115.297-.19.104-.318.173-.613.176-.3-.003-.43-.072-.62-.176-.25-.133-.55-.297-1.12-.297h-.04c-.57 0-.87.164-1.12.297-.19.104-.32.173-.62.176-.3-.003-.42-.072-.61-.176-.25-.133-.55-.297-1.11-.297h-.04c-.57 0-.87.164-1.12.297-.19.104-.32.173-.61.176-.3-.003-.43-.072-.62-.176-.25-.133-.55-.297-1.12-.297h-.04c-.56 0-.87.164-1.11.297-.19.104-.32.173-.62.176-.3-.003-.42-.072-.61-.176-.25-.133-.55-.297-1.12-.297H7.6c-.562 0-.87.164-1.113.297-.19.104-.318.173-.61.176-.296-.003-.42-.072-.614-.176-.244-.133-.55-.297-1.115-.297h-.04c-.567 0-.87.164-1.117.297-.19.104-.32.173-.61.176-.29-.003-.42-.072-.61-.176-.24-.133-.55-.297-1.11-.297H.64c-.283.005-.512.248-.512.548 0 .302.233.548.524.548l.02.002c.293.002.422.07.612.174.245.133.55.3 1.114.3h.04c.564 0 .868-.167 1.114-.3.19-.104.318-.173.613-.174.294.002.422.07.613.174.244.133.55.3 1.113.3h.04c.57 0 .87-.167 1.12-.3.19-.104.32-.173.62-.174.3.002.42.07.62.174.25.133.55.3 1.12.3h.04c.57 0 .87-.167 1.12-.3.19-.104.32-.173.61-.174.3.002.43.07.62.174.25.133.55.3 1.12.3h.04c.57 0 .87-.167 1.12-.3.19-.104.32-.173.62-.174.296.002.42.07.61.174.248.133.55.3 1.116.3h.04c.57 0 .87-.167 1.12-.3.19-.104.32-.173.61-.174.296.002.424.07.614.174.24.133.55.3 1.11.3h.04c.56 0 .87-.167 1.11-.3.19-.104.32-.173.614-.174.29.002.42.07.61.174.24.133.55.3 1.11.3h.04c.563 0 .87-.167 1.113-.3.19-.104.32-.173.617-.174l.02-.002c.29 0 .525-.246.525-.548 0-.3-.23-.543-.518-.548" fill="#fff"/></g></svg>