<svg width="32" height="232" viewBox="0 0 32 232" xmlns="http://www.w3.org/2000/svg"><g fill="none"><path d="M24.83 20.363c.574-.543.933-1.308.933-2.156l-.002-.054-.25-4.28c-.01-1-.52-1.885-1.29-2.417l-.36-5.366c.28-.168.46-.46.46-.8 0-.39-.23-.72-.57-.86l-.17-2.57c-.03-.51-.48-.898-.99-.865-.51.035-.9.477-.87.99l.18 2.52c-.25.166-.42.453-.42.778 0 .163.05.317.12.45.1.17.24.304.42.387l.33 4.796H9.25c-1.64 0-2.98 1.32-3 2.95L6 18.152l-.003.054c0 1.643 1.344 2.978 2.996 2.978h2.82c.598 0 1.084-.16 1.485-.422.578.623 1.526 1.423 2.58 1.423.417 0 .818-.126 1.186-.317.56-.29 1.043-.73 1.392-1.107.402.26.887.43 1.486.43h2.82l.25-.01.296 4.32c-.016 1.72-1.426 3.11-3.158 3.11-1.474 0-2.715-1.01-3.06-2.37.418-.09.733-.46.733-.9 0-.51-.418-.92-.933-.92h-1.66c-.514 0-.932.42-.932.93 0 .5.396.9.892.93.382 2.38 2.46 4.2 4.96 4.2 2.77 0 5.023-2.24 5.023-4.99l-.002-.06-.34-5.03zm-2.064-1.03h-2.82c-.666 0-1.01-.615-1.572-2.084l-.01-.03c-.447-1.17-1.01-2.61-2.46-2.61h-.043c-1.46 0-2.02 1.46-2.47 2.63-.56 1.47-.9 2.08-1.57 2.08H9c-.616 0-1.12-.5-1.13-1.11l.25-4.28v-.05c0-.62.51-1.13 1.132-1.13h13.265c.363 0 .685.17.892.43.15.19.24.43.24.69v.05l.25 4.27c-.01.17-.05.32-.12.47-.17.34-.5.58-.89.62l-.13.01zm-6.884 1.926c-.682 0-1.402-.6-1.892-1.12.54-.66.868-1.52 1.144-2.23.18-.47.514-1.34.726-1.44l.04-.01c.216.1.55.97.73 1.44.246.64.535 1.39.98 2.02l.164.21-.308.31c-.46.42-1.034.81-1.584.81z" fill="#373D43"/><path d="M24.83 60.363c.574-.543.933-1.308.933-2.156l-.002-.054-.25-4.28c-.01-1-.52-1.885-1.29-2.418l-.36-5.367c.28-.16.46-.458.46-.8 0-.385-.23-.715-.57-.855l-.17-2.57c-.03-.512-.48-.896-.99-.863-.51.035-.9.477-.87.988l.18 2.523c-.25.17-.42.46-.42.78 0 .17.05.32.12.46.1.17.24.31.42.39l.33 4.8H9.25c-1.64 0-2.98 1.32-3 2.95L6 58.16l-.003.05c0 1.642 1.344 2.98 2.996 2.98h2.82c.598 0 1.084-.16 1.485-.424.578.622 1.526 1.423 2.58 1.423.417 0 .818-.13 1.186-.32.56-.29 1.043-.73 1.392-1.11.402.26.887.42 1.486.42h2.82l.25-.01.296 4.32c-.016 1.71-1.426 3.1-3.158 3.1-1.474 0-2.715-1-3.06-2.36.418-.09.733-.46.733-.91 0-.51-.418-.93-.933-.93h-1.66c-.514 0-.932.41-.932.93 0 .5.396.9.892.92.382 2.38 2.46 4.2 4.96 4.2 2.77 0 5.023-2.24 5.023-5l-.002-.07-.34-5.03zm-2.064-1.03h-2.82c-.666 0-1.01-.615-1.572-2.084l-.01-.03c-.447-1.17-1.01-2.61-2.46-2.61h-.043c-1.46 0-2.02 1.46-2.47 2.63-.56 1.47-.9 2.08-1.57 2.08H9c-.616 0-1.12-.5-1.13-1.11l.25-4.28v-.05c0-.62.51-1.13 1.132-1.13h13.265c.363 0 .685.17.892.43.15.19.24.43.24.69v.05l.25 4.27c-.01.17-.05.32-.12.47-.17.34-.5.58-.89.62l-.13.01zm-6.884 1.926c-.682 0-1.402-.6-1.892-1.12.54-.66.868-1.52 1.144-2.23.18-.47.514-1.34.726-1.44l.04-.01c.216.1.55.97.73 1.44.246.64.535 1.39.98 2.02l.164.21-.308.31c-.46.42-1.034.81-1.584.81z" fill="#67747C"/><path d="M24.83 100.363c.574-.543.933-1.308.933-2.156l-.002-.054-.25-4.28c-.01-1-.52-1.885-1.29-2.417l-.36-5.367c.28-.17.46-.46.46-.8 0-.39-.23-.72-.57-.86l-.17-2.57c-.03-.51-.48-.9-.99-.87-.51.03-.9.47-.87.99l.18 2.52c-.25.16-.42.45-.42.78 0 .16.05.31.12.45.1.17.24.3.42.38l.33 4.79H9.25c-1.64 0-2.98 1.32-3 2.95L6 98.15l-.003.054c0 1.642 1.344 2.978 2.996 2.978h2.82c.598 0 1.084-.16 1.485-.422.578.622 1.526 1.423 2.58 1.423.417 0 .818-.126 1.186-.317.56-.29 1.043-.73 1.392-1.11.402.26.887.43 1.486.43h2.82l.25-.01.296 4.32c-.016 1.72-1.426 3.11-3.158 3.11-1.474 0-2.715-1.01-3.06-2.37.418-.09.733-.46.733-.903 0-.51-.418-.928-.933-.928h-1.66c-.514 0-.932.414-.932.925 0 .5.396.902.892.923.382 2.38 2.46 4.202 4.96 4.202 2.77 0 5.023-2.24 5.023-5l-.002-.06-.34-5.037zm-2.064-1.03h-2.82c-.666 0-1.01-.615-1.572-2.084l-.01-.03c-.447-1.17-1.01-2.61-2.46-2.61h-.043c-1.46 0-2.02 1.46-2.47 2.63-.56 1.47-.9 2.08-1.57 2.08H9c-.616 0-1.12-.5-1.13-1.11l.25-4.28v-.05c0-.62.51-1.13 1.132-1.13h13.265c.363 0 .685.17.892.43.15.19.24.43.24.69v.05l.25 4.27c-.01.17-.05.32-.12.47-.17.34-.5.58-.89.62l-.13.01zm-6.884 1.926c-.682 0-1.402-.6-1.892-1.13.54-.66.868-1.51 1.144-2.23.18-.47.514-1.34.726-1.44l.04-.01c.216.1.55.97.73 1.44.246.64.535 1.39.98 2.02l.164.21-.308.31c-.46.42-1.034.81-1.584.81z" fill="#fff"/><path d="M24.83 140.363c.574-.543.933-1.308.933-2.156l-.002-.054-.25-4.28c-.01-1-.52-1.885-1.29-2.418l-.36-5.367c.28-.16.46-.458.46-.8 0-.384-.23-.715-.57-.855l-.17-2.57c-.03-.512-.48-.896-.99-.863-.51.035-.9.477-.87.988l.18 2.523c-.25.17-.42.46-.42.78 0 .17.05.32.12.46.1.17.24.31.42.39l.33 4.8H9.25c-1.64 0-2.98 1.32-3 2.95L6 138.16l-.003.053c0 1.643 1.344 2.978 2.996 2.978h2.82c.598 0 1.084-.16 1.485-.42.578.63 1.526 1.43 2.58 1.43.417 0 .818-.12 1.186-.31.56-.29 1.043-.73 1.392-1.1.402.26.887.43 1.486.43h2.82l.25-.01.296 4.32c-.016 1.72-1.426 3.11-3.158 3.11-1.474 0-2.715-1.01-3.06-2.37.418-.09.733-.46.733-.9 0-.51-.418-.92-.933-.92h-1.66c-.514 0-.932.42-.932.93 0 .5.396.906.892.927.382 2.38 2.46 4.203 4.96 4.203 2.77 0 5.023-2.24 5.023-4.994l-.002-.064-.34-5.04zm-2.064-1.03h-2.82c-.666 0-1.01-.615-1.572-2.084l-.01-.03c-.447-1.17-1.01-2.61-2.46-2.61h-.043c-1.46 0-2.02 1.46-2.47 2.63-.56 1.47-.9 2.08-1.57 2.08H9c-.616 0-1.12-.5-1.13-1.11l.25-4.28v-.06c0-.62.51-1.13 1.132-1.13h13.265c.363 0 .685.17.892.43.15.19.24.43.24.69v.05l.25 4.27c-.01.17-.05.33-.12.47-.17.34-.5.58-.89.623l-.13.01zm-6.884 1.926c-.682 0-1.402-.6-1.892-1.12.54-.66.868-1.52 1.144-2.23.18-.47.514-1.34.726-1.44l.04-.01c.216.1.55.97.73 1.44.246.64.535 1.39.98 2.02l.164.21-.308.31c-.46.42-1.034.81-1.584.81z" fill="#206FAC"/></g></svg>