<svg width="32" height="232" viewBox="0 0 32 232" xmlns="http://www.w3.org/2000/svg"><g fill="none"><path d="M15.166 21.022c3.958 0 7.177-3.196 7.177-7.124C22.343 10.28 16.65 3.16 16 2.36c-.203-.25-.51-.396-.834-.396-.325 0-.632.146-.835.397-.64.8-6.34 7.92-6.34 11.54 0 3.93 3.22 7.13 7.18 7.13zm5.032-7.124c0 2.574-1.973 4.7-4.496 4.966v-1.21l.01-.007 2.78-2.185c.232-.182.272-.517.088-.748-.184-.23-.522-.27-.754-.087l-2.124 1.67V13.48l1.926-1.343c.242-.17.3-.5.13-.742-.17-.24-.504-.3-.746-.13l-1.31.912V8.49c0-.293-.24-.53-.536-.53-.296 0-.536.238-.536.53v3.687l-1.31-.912c-.242-.17-.577-.11-.747.13-.17.24-.112.572.13.742l1.927 1.342v2.81l-2.124-1.67c-.232-.18-.57-.15-.753.08-.184.23-.145.56.087.75l2.78 2.18h.01v1.21c-2.523-.27-4.496-2.39-4.496-4.97 0-1.91 2.813-6.23 5.032-9.14 2.22 2.9 5.032 7.22 5.032 9.13zm5.872 14.107c-.408-.514-1.057-1.296-1.734-1.967-1.17-1.16-3.173-1.16-4.784-1.16h-8.217v-.48c0-.095.03-.183.077-.257.086-.13.236-.22.407-.22h3.56c1.06 0 1.88-.32 2.76-.67 1.15-.45 2.45-.96 4.74-.96 1.05 0 1.99.2 2.97.61l.21.05c.21 0 .4-.12.49-.32.11-.27-.01-.58-.28-.7-1.12-.47-2.2-.69-3.4-.69-2.5 0-3.96.58-5.14 1.04-.85.33-1.52.6-2.37.6h-.76l-8.42-2.45c-.16-.05-.32-.07-.48-.07-.68 0-1.27.43-1.48 1.07l-.02.05-.13.6c-.06.26.08.52.33.61l5.82 2.19v.57c0 .3.24.54.54.54h8.75c1.41 0 3.17 0 4.02.85 1.04 1.03 2.05 2.4 2.06 2.41.1.14.27.22.43.22.11 0 .22-.03.31-.1.24-.17.29-.504.11-.74l-.43-.56zm-20.794-6.3c.07-.187.25-.312.453-.312l.14.024.01.005 5.33 1.55c-.37.15-.66.434-.82.79l-5.16-1.94.02-.116z" fill="#373D43"/><path d="M15.166 61.022c3.958 0 7.177-3.196 7.177-7.124 0-3.618-5.693-10.737-6.342-11.537-.2-.25-.51-.39-.83-.39-.32 0-.63.15-.83.4-.65.8-6.34 7.92-6.34 11.54 0 3.93 3.22 7.13 7.18 7.13zm5.032-7.124c0 2.574-1.973 4.7-4.496 4.966v-1.21l.01-.007 2.78-2.185c.232-.182.272-.517.088-.748-.184-.23-.522-.27-.754-.087l-2.124 1.67V53.48l1.926-1.343c.242-.17.3-.5.13-.742-.17-.24-.504-.3-.746-.13l-1.31.912V48.49c0-.293-.24-.53-.536-.53-.296 0-.536.238-.536.53v3.687l-1.31-.912c-.242-.17-.577-.11-.747.13-.17.24-.112.572.13.742l1.927 1.342v2.81l-2.124-1.67c-.232-.18-.57-.15-.753.08-.184.23-.145.56.087.75l2.78 2.18h.01v1.21c-2.523-.27-4.496-2.39-4.496-4.97 0-1.91 2.813-6.23 5.032-9.14 2.22 2.9 5.032 7.22 5.032 9.13zm5.872 14.107c-.408-.514-1.057-1.296-1.734-1.967-1.17-1.16-3.173-1.16-4.784-1.16h-8.217v-.48c0-.095.03-.183.077-.257.086-.13.236-.22.407-.22h3.56c1.06 0 1.88-.32 2.76-.67 1.15-.45 2.45-.96 4.74-.96 1.05 0 1.99.2 2.97.61l.21.05c.21 0 .4-.12.49-.32.11-.27-.01-.58-.28-.7-1.12-.47-2.2-.69-3.4-.69-2.5 0-3.96.58-5.14 1.04-.85.33-1.52.6-2.37.6h-.76l-8.42-2.45c-.16-.05-.32-.07-.48-.07-.68 0-1.27.43-1.48 1.07l-.02.05-.13.6c-.06.26.08.52.33.61l5.82 2.19v.57c0 .3.24.54.54.54h8.75c1.41 0 3.17 0 4.02.85 1.04 1.03 2.05 2.4 2.06 2.41.1.14.27.22.43.22.11 0 .22-.03.31-.1.24-.17.29-.504.11-.74l-.43-.56zm-20.794-6.3c.07-.187.25-.312.453-.312l.14.024.01.005 5.33 1.55c-.37.15-.66.434-.82.79l-5.16-1.94.02-.116z" fill="#67747C"/><path d="M15.166 101.022c3.958 0 7.177-3.196 7.177-7.124 0-3.618-5.693-10.737-6.342-11.537-.2-.25-.51-.39-.83-.39-.32 0-.63.15-.83.4-.65.8-6.34 7.92-6.34 11.54 0 3.93 3.22 7.13 7.18 7.13zm5.032-7.124c0 2.574-1.973 4.7-4.496 4.966v-1.21l.01-.007 2.78-2.185c.232-.182.272-.517.088-.748-.184-.23-.522-.27-.754-.087l-2.124 1.67V93.48l1.926-1.343c.242-.17.3-.5.13-.742-.17-.24-.504-.3-.746-.13l-1.31.912V88.49c0-.293-.24-.53-.536-.53-.296 0-.536.238-.536.53v3.687l-1.31-.912c-.242-.17-.577-.11-.747.13-.17.24-.112.572.13.742l1.927 1.342v2.81l-2.124-1.67c-.232-.18-.57-.15-.753.08-.184.23-.145.56.087.75l2.78 2.18h.01v1.21c-2.523-.27-4.496-2.39-4.496-4.97 0-1.91 2.813-6.23 5.032-9.14 2.22 2.9 5.032 7.22 5.032 9.13zm5.872 14.107c-.408-.514-1.057-1.296-1.734-1.967-1.17-1.16-3.173-1.16-4.784-1.16h-8.217v-.48c0-.095.03-.183.077-.257.086-.13.236-.22.407-.22h3.56c1.06 0 1.88-.32 2.76-.67 1.15-.45 2.45-.96 4.74-.96 1.05 0 1.99.2 2.97.61l.21.05c.21 0 .4-.12.49-.32.11-.27-.01-.58-.28-.7-1.12-.47-2.2-.69-3.4-.69-2.5 0-3.96.58-5.14 1.04-.85.33-1.52.6-2.37.6h-.76l-8.42-2.46c-.16-.05-.32-.07-.47-.07-.68 0-1.27.43-1.48 1.07l-.02.05-.13.6c-.06.26.08.52.33.61l5.82 2.19v.57c0 .29.24.53.53.53h8.75c1.42 0 3.17 0 4.03.85 1.04 1.03 2.05 2.39 2.06 2.41.1.14.26.22.43.22.11 0 .22-.03.31-.1.24-.172.29-.51.11-.742l-.43-.56zm-20.794-6.3c.07-.187.25-.312.453-.312l.14.024.01.005 5.33 1.55c-.37.15-.66.434-.82.79l-5.16-1.94.02-.116z" fill="#fff"/><path d="M15.166 141.022c3.958 0 7.177-3.196 7.177-7.124 0-3.618-5.693-10.737-6.342-11.537-.2-.25-.51-.39-.83-.39-.32 0-.63.15-.83.4-.65.8-6.34 7.92-6.34 11.54 0 3.93 3.22 7.13 7.18 7.13zm5.032-7.124c0 2.574-1.973 4.7-4.496 4.966v-1.21l.01-.007 2.78-2.185c.232-.182.272-.517.088-.748-.184-.23-.522-.27-.754-.087l-2.124 1.67v-2.818l1.926-1.35c.242-.17.3-.5.13-.74-.17-.24-.504-.3-.746-.13l-1.31.91v-3.69c0-.3-.24-.53-.536-.53-.296 0-.536.23-.536.53v3.68l-1.31-.91c-.242-.17-.577-.11-.747.13-.17.24-.112.57.13.74l1.927 1.34v2.81l-2.124-1.67c-.232-.18-.57-.14-.753.09-.184.23-.145.56.087.75l2.78 2.18h.01v1.21c-2.523-.27-4.496-2.39-4.496-4.97 0-1.91 2.813-6.23 5.032-9.14 2.22 2.9 5.032 7.22 5.032 9.13zm5.872 14.107c-.408-.514-1.057-1.296-1.734-1.967-1.17-1.16-3.173-1.16-4.784-1.16h-8.217v-.48c0-.095.03-.183.077-.257.086-.13.236-.22.407-.22h3.56c1.06 0 1.88-.32 2.76-.67 1.15-.45 2.45-.96 4.74-.96 1.05 0 1.99.2 2.97.61l.21.05c.21 0 .4-.12.49-.32.11-.27-.01-.58-.28-.7-1.12-.47-2.2-.69-3.4-.69-2.5 0-3.96.58-5.14 1.04-.85.33-1.52.6-2.37.6h-.76l-8.42-2.46c-.16-.05-.32-.07-.47-.07-.68 0-1.27.43-1.48 1.07l-.02.05-.13.6c-.06.26.08.52.33.61l5.82 2.19v.57c0 .29.24.53.53.53h8.75c1.42 0 3.17 0 4.03.85 1.04 1.03 2.05 2.39 2.06 2.41.1.14.26.22.43.22.11 0 .22-.03.31-.1.24-.172.29-.51.11-.742l-.43-.56zm-20.794-6.3c.07-.187.25-.312.453-.312l.14.024.01.005 5.33 1.55c-.37.15-.66.434-.82.79l-5.16-1.94.02-.116z" fill="#206FAC"/></g></svg>