<svg width="32" height="232" viewBox="0 0 32 232" xmlns="http://www.w3.org/2000/svg"><g fill="none"><path d="M8.42 128.512v2.817l.006.07.003.02.01.06.03.06.01.01.03.05v.01l.05.05.01.01.02.01.02.01.01.01.06.03h.01l.06.02h.01l2.11.4c.14.02.28-.01.39-.1.11-.09.17-.22.17-.36v-.36l.32-.01c1.28 0 2.61.21 3.89.413 1.32.21 2.68.43 4.04.43 1.11 0 2.11-.145 3.05-.445.19-.06.32-.24.32-.45v-.25l.03-.15v-2.43c0-.226-.16-.42-.39-.46l-2.116-.41-.084-.006c-.104 0-.21.035-.3.11-.104.09-.17.22-.17.36v.37l-.344.005c-1.29 0-2.61-.21-3.895-.42-1.313-.21-2.68-.43-4.04-.43-1.11 0-2.11.15-3.04.447-.19.06-.32.24-.32.445zm11.304 2.77c-1.285 0-2.61-.212-3.893-.417-1.31-.21-2.68-.43-4.03-.43l-.32.007-.47.022-.47.04c-.4.046-.79.114-1.17.206v-1.847c.62-.168 1.27-.264 1.98-.293l.46-.01c1.29 0 2.61.21 3.89.416 1.32.21 2.68.43 4.04.43l.35-.006.47-.023.47-.043c.4-.046.78-.113 1.15-.202v1.847c-.6.16-1.24.26-1.93.29l-.5.01zm5.264-6.597H6.712c-.518 0-.94.42-.94.94v18.705c0 .518.422.94.94.94h18.276c.52 0 .94-.422.94-.94v-18.706c0-.52-.42-.94-.94-.94zm-11.796 14.502v-.32c0-.807.657-1.463 1.464-1.463.806 0 1.464.657 1.464 1.464v4.523h-2.928v-4.2zm-.94 4.204H9.756v-4.2c0-.69.56-1.25 1.25-1.25.686 0 1.248.56 1.248 1.25v4.21zm6.977-3.63v3.63h-2.17v-3.95c0-.59.48-1.08 1.08-1.08.59 0 1.08.49 1.08 1.08v.32zm.93 0c0-.47.38-.86.86-.86s.86.39.86.87v3.63h-1.73v-3.63zm3.88 3.63h-1.21v-3.63c0-.71-.42-1.33-1.03-1.62.26-.22.42-.54.42-.91 0-.66-.54-1.2-1.2-1.2s-1.2.54-1.2 1.2c0 .37.16.69.42.91-.14.07-.27.15-.39.25-.21-.34-.52-.61-.88-.78.33-.25.55-.65.55-1.11 0-.77-.63-1.39-1.39-1.39-.77 0-1.4.63-1.4 1.39 0 .45.21.85.55 1.11-.17.08-.32.18-.46.29-.25-.55-.7-1-1.26-1.23.48-.31.79-.84.79-1.46 0-.96-.78-1.74-1.74-1.74s-1.74.78-1.74 1.74c0 .61.32 1.15.792 1.46-.48.21-.88.56-1.14 1.01-.193-.2-.425-.36-.685-.48.4-.28.66-.74.66-1.26 0-.85-.69-1.54-1.54-1.54-.85 0-1.54.69-1.54 1.55 0 .53.26.99.654 1.27-.76.34-1.3 1.11-1.3 2v4.21H7.65V126.6h16.398v16.83z" fill="#206FAC"/><path d="M8.42 49.512v2.817l.006.07.003.02.01.06.03.06.01.01.03.05v.01l.05.05.01.01.02.01.02.01.01.01.06.03h.01l.06.02h.01l2.11.4c.14.02.28-.01.39-.1.11-.09.17-.22.17-.36v-.36l.32-.01c1.28 0 2.61.21 3.89.413 1.32.21 2.68.43 4.04.43 1.11 0 2.11-.145 3.05-.445.19-.06.32-.24.32-.45v-.25l.03-.15v-2.42c0-.227-.16-.42-.39-.46l-2.116-.41-.084-.007c-.104 0-.21.035-.3.11-.104.09-.17.22-.17.36v.37l-.344.01c-1.29 0-2.61-.21-3.895-.414-1.313-.21-2.68-.43-4.04-.43-1.11 0-2.11.143-3.04.442-.19.06-.32.24-.32.444zm11.304 2.77c-1.285 0-2.61-.212-3.893-.417-1.31-.21-2.68-.43-4.03-.43l-.32.007-.47.022-.47.04c-.4.046-.79.114-1.17.206v-1.847c.62-.168 1.27-.264 1.98-.293l.46-.01c1.29 0 2.61.21 3.89.416 1.32.21 2.68.43 4.04.43l.35-.006.47-.023.47-.043c.4-.046.78-.113 1.15-.202v1.847c-.6.16-1.24.26-1.93.29l-.5.01zm5.264-6.597H6.712c-.518 0-.94.42-.94.94V65.33c0 .518.422.94.94.94h18.276c.52 0 .94-.422.94-.94V46.624c0-.52-.42-.94-.94-.94zM13.192 60.187v-.32c0-.807.657-1.463 1.464-1.463.806 0 1.464.657 1.464 1.464v4.523h-2.928v-4.2zm-.94 4.204H9.756v-4.2c0-.69.56-1.25 1.25-1.25.686 0 1.248.57 1.248 1.25v4.21zm6.977-3.63v3.63h-2.17v-3.95c0-.59.48-1.08 1.08-1.08.59 0 1.08.49 1.08 1.08v.32zm.93 0c0-.47.38-.86.86-.86s.86.39.86.87v3.63h-1.73v-3.63zm3.88 3.63h-1.21v-3.63c0-.71-.42-1.33-1.03-1.62.26-.22.42-.54.42-.91 0-.66-.54-1.2-1.2-1.2s-1.2.54-1.2 1.2c0 .37.16.69.42.91-.14.07-.27.15-.39.25-.21-.34-.52-.61-.88-.78.33-.25.55-.65.55-1.11 0-.77-.63-1.39-1.39-1.39-.77 0-1.4.63-1.4 1.39 0 .45.21.85.55 1.11-.17.08-.32.18-.46.29-.25-.55-.7-1-1.26-1.23.48-.31.79-.84.79-1.46 0-.96-.78-1.74-1.74-1.74s-1.74.78-1.74 1.74c0 .61.32 1.15.792 1.46-.48.21-.88.56-1.14 1.01-.193-.2-.425-.36-.685-.48.4-.28.66-.74.66-1.26 0-.85-.69-1.54-1.54-1.54-.85 0-1.54.69-1.54 1.55 0 .53.26.99.654 1.27-.76.34-1.3 1.11-1.3 2v4.2H7.65V47.56h16.398v16.83z" fill="#67737B"/><path d="M8.42 9.512v2.817l.006.07.003.02.01.06.03.06.01.01.03.05v.01l.05.05.01.01.02.01.02.01.01.01.06.03h.01l.06.02h.01l2.11.4c.14.02.28-.01.39-.1.11-.09.17-.22.17-.36v-.36l.32-.01c1.28 0 2.61.21 3.89.413 1.32.21 2.68.43 4.04.43 1.11 0 2.11-.145 3.05-.445.19-.06.32-.24.32-.45v-.25l.03-.15v-2.4c0-.228-.16-.42-.39-.46l-2.11-.41h-.08c-.108 0-.215.034-.3.11-.108.09-.17.22-.17.37v.37l-.348.01c-1.29 0-2.61-.21-3.897-.41-1.31-.21-2.68-.43-4.04-.43-1.11 0-2.11.15-3.04.444-.19.063-.32.244-.32.45zm11.304 2.77c-1.285 0-2.61-.212-3.893-.417-1.31-.21-2.68-.43-4.03-.43l-.32.007-.47.022-.47.04c-.4.046-.79.114-1.17.206V9.863c.62-.168 1.27-.264 1.98-.293l.46-.01c1.29 0 2.61.21 3.89.416 1.32.21 2.68.43 4.04.43l.35-.006.47-.023.47-.043c.4-.046.78-.113 1.15-.202v1.847c-.6.16-1.24.26-1.93.29l-.5.01zm5.264-6.597H6.712c-.518 0-.94.42-.94.94V25.33c0 .518.422.94.94.94h18.276c.52 0 .94-.422.94-.94V6.624c0-.52-.42-.94-.94-.94zM13.192 20.187v-.32c0-.807.657-1.463 1.464-1.463.806 0 1.464.657 1.464 1.464v4.523h-2.928v-4.2zm-.94 4.204H9.756v-4.2c0-.69.56-1.25 1.25-1.25.686 0 1.248.57 1.248 1.25v4.21zm6.977-3.63v3.63h-2.17v-3.95c0-.59.48-1.08 1.08-1.08.59 0 1.08.49 1.08 1.08v.32zm.93 0c0-.47.38-.86.86-.86s.86.39.86.87v3.63h-1.73v-3.63zm3.88 3.63h-1.21v-3.63c0-.71-.42-1.33-1.03-1.62.26-.22.42-.54.42-.91 0-.66-.54-1.2-1.2-1.2s-1.2.54-1.2 1.2c0 .37.16.69.42.91-.14.07-.27.15-.39.25-.21-.34-.52-.61-.88-.78.33-.25.55-.65.55-1.11 0-.77-.63-1.39-1.39-1.39-.77 0-1.4.63-1.4 1.39 0 .45.21.85.55 1.11-.17.08-.32.18-.46.29-.25-.55-.7-1-1.26-1.23.48-.31.79-.84.79-1.46 0-.96-.78-1.74-1.74-1.74s-1.74.78-1.74 1.74c0 .61.32 1.15.792 1.46-.48.21-.88.56-1.14 1.01-.193-.2-.425-.36-.685-.48.4-.28.66-.74.66-1.26 0-.85-.69-1.54-1.54-1.54-.85 0-1.54.69-1.54 1.55 0 .53.26.99.654 1.27-.76.34-1.3 1.11-1.3 2v4.2H7.65V7.56h16.398v16.83z" fill="#373D43"/><path d="M8.42 88.512v2.817l.006.07.003.02.01.06.03.06.01.01.03.05v.01l.05.05.01.01.02.01.02.01.01.01.06.03h.01l.06.02h.01l2.11.4c.14.02.28-.01.39-.1.11-.09.17-.22.17-.36v-.36l.32-.01c1.28 0 2.61.21 3.89.413 1.32.21 2.68.43 4.04.43 1.11 0 2.11-.145 3.05-.445.19-.06.32-.24.32-.45v-.25l.03-.15v-2.42c0-.227-.16-.42-.39-.46l-2.116-.41-.084-.007c-.104 0-.21.035-.3.11-.104.09-.17.22-.17.36v.37l-.344.01c-1.29 0-2.61-.21-3.895-.414-1.313-.21-2.68-.43-4.04-.43-1.11 0-2.11.143-3.04.442-.19.06-.32.24-.32.444zm11.304 2.77c-1.285 0-2.61-.212-3.893-.417-1.31-.21-2.68-.43-4.03-.43l-.32.007-.47.022-.47.04c-.4.046-.79.114-1.17.206v-1.847c.62-.168 1.27-.264 1.98-.293l.46-.01c1.29 0 2.61.21 3.89.416 1.32.21 2.68.43 4.04.43l.35-.006.47-.023.47-.043c.4-.046.78-.113 1.15-.202v1.847c-.6.16-1.24.26-1.93.29l-.5.01zm5.264-6.597H6.712c-.518 0-.94.42-.94.94v18.705c0 .518.422.94.94.94h18.276c.52 0 .94-.422.94-.94V85.624c0-.52-.42-.94-.94-.94zM13.192 99.187v-.32c0-.807.657-1.463 1.464-1.463.806 0 1.464.657 1.464 1.464v4.523h-2.928v-4.2zm-.94 4.204H9.756v-4.2c0-.69.56-1.25 1.25-1.25.686 0 1.248.57 1.248 1.25v4.21zm6.977-3.63v3.63h-2.17v-3.95c0-.59.48-1.08 1.08-1.08.59 0 1.08.49 1.08 1.08v.32zm.93 0c0-.47.38-.86.86-.86s.86.39.86.87v3.63h-1.73v-3.63zm3.88 3.63h-1.21v-3.63c0-.71-.42-1.33-1.03-1.62.26-.22.42-.54.42-.91 0-.66-.54-1.2-1.2-1.2s-1.2.54-1.2 1.2c0 .37.16.69.42.91-.14.07-.27.15-.39.25-.21-.34-.52-.61-.88-.78.33-.25.55-.65.55-1.11 0-.77-.63-1.39-1.39-1.39-.77 0-1.4.63-1.4 1.39 0 .45.21.85.55 1.11-.17.08-.32.18-.46.29-.25-.55-.7-1-1.26-1.23.48-.31.79-.84.79-1.46 0-.96-.78-1.74-1.74-1.74s-1.74.78-1.74 1.74c0 .61.32 1.15.792 1.46-.48.21-.88.56-1.14 1.01-.193-.2-.425-.36-.685-.48.4-.28.66-.74.66-1.26 0-.85-.69-1.54-1.54-1.54-.85 0-1.54.69-1.54 1.55 0 .53.26.99.654 1.27-.76.34-1.3 1.11-1.3 2v4.21H7.65V86.56h16.398v16.83z" fill="#fff"/></g></svg>