<svg width="32" height="232" viewBox="0 0 32 232" xmlns="http://www.w3.org/2000/svg"><g fill="none"><g fill="#3B444F"><path d="M24.415 6.746c-.973-.344-1.912-.51-2.87-.51-2.233 0-4.05.913-5.807 1.796-1.596.803-3.104 1.56-4.812 1.56-.548 0-1.09-.075-1.647-.23l-.13-.357c-.21-.587-.86-.888-1.43-.674-.58.22-.88.87-.67 1.45l6.41 17.79c.16.46.59.75 1.05.75.12 0 .25-.02.38-.07.58-.21.88-.86.66-1.44l-3.48-9.66c2.46-.52 4.27-2.48 6.02-4.39 1.8-1.96 3.51-3.8 5.69-3.8l.2.01c.55.03 1.04-.36 1.15-.91.1-.55-.21-1.1-.73-1.28zm-7.942 4.456c-1.66 1.8-3.23 3.51-5.173 3.773l-1.137-3.156c.253.02.506.03.763.03 2.23 0 4.05-.92 5.804-1.8.532-.27 1.053-.53 1.576-.76-.633.6-1.236 1.25-1.832 1.9zM5.683 24.008c-.308 0-.56.252-.56.565v1.07c0 .312.252.566.56.566.308 0 .557-.26.557-.57v-1.07c0-.31-.25-.57-.557-.57m0-2.61c.308 0 .557-.26.557-.57v-1.07c0-.32-.25-.57-.558-.57-.307 0-.56.25-.56.56v1.07c0 .31.253.56.56.56m-1.846 1.87c.31 0 .557-.26.557-.57 0-.31-.25-.57-.557-.57H2.78c-.308 0-.557.25-.557.56 0 .31.25.56.558.56h1.06m3.7 0h1.05c.31 0 .56-.25.56-.56 0-.31-.25-.57-.55-.57H7.53c-.31 0-.56.25-.56.563 0 .31.25.564.56.564m-3.62.43L2.09 25.5c-.217.22-.217.58 0 .8.11.11.253.166.395.166.143 0 .286-.054.396-.164L4.7 24.5c.22-.22.22-.578 0-.8-.212-.22-.57-.22-.79 0m4.58-4.633L6.67 20.91c-.22.22-.22.58 0 .8.11.11.25.163.394.163.143 0 .286-.053.394-.163l1.82-1.845c.22-.223.22-.58 0-.8-.218-.22-.57-.22-.79 0m-5.602 0c-.217-.22-.57-.22-.79 0-.216.22-.216.577 0 .8l1.82 1.844c.11.11.253.16.397.16.14 0 .285-.06.395-.17.218-.22.218-.58 0-.8l-1.82-1.85M7.46 23.7c-.217-.22-.572-.22-.79 0-.217.22-.217.577 0 .8l1.82 1.844c.11.11.253.165.396.165.14 0 .285-.06.394-.17.218-.22.218-.58 0-.8L7.46 23.7m18.913-5.28c-.22-.22-.57-.22-.79 0-.216.22-.216.58 0 .8l1.414 1.43c.11.11.252.166.394.166.15 0 .29-.055.4-.164.22-.223.22-.58 0-.8l-1.41-1.432m-4.47-4.52c-.21-.22-.57-.22-.79 0-.21.22-.21.58 0 .8l1.42 1.43c.11.112.25.167.4.167.15 0 .29-.055.4-.166.22-.22.22-.57 0-.79l-1.42-1.44m.63 4.52l-1.41 1.43c-.21.22-.21.58 0 .8.11.11.26.17.4.17.15 0 .29-.05.4-.16l1.42-1.43c.22-.22.22-.58 0-.8-.21-.22-.57-.22-.79 0M26 16.3c.14 0 .284-.055.393-.166l1.412-1.43c.217-.22.217-.58 0-.8-.217-.22-.572-.22-.79 0L25.6 15.34c-.22.22-.22.58 0 .8.11.11.25.17.39.17m-1.52 2.71c-.31 0-.56.26-.56.57v3.04c0 .31.25.567.56.567.31 0 .56-.256.56-.57v-3.04c0-.31-.25-.563-.56-.563m0-7.636c-.31 0-.56.255-.56.57V15c0 .31.25.562.56.562.31 0 .56-.253.56-.564v-3.04c0-.313-.25-.567-.56-.567m-2.27 6.47c.31 0 .556-.25.556-.56 0-.31-.25-.56-.56-.56h-3c-.307 0-.557.25-.557.57 0 .32.25.57.55.57h3m7.53-1.13h-3c-.31 0-.56.25-.56.57 0 .32.25.57.56.57h3c.31 0 .55-.25.55-.57 0-.31-.25-.563-.56-.563m-10.6 3.68l-.53-.29-.29-.53c-.1-.18-.29-.296-.49-.296-.21 0-.39.11-.49.29l-.29.53-.53.29c-.18.1-.29.29-.29.5 0 .205.11.395.29.494l.52.29.29.53c.09.18.28.29.49.29.2 0 .39-.11.49-.292l.28-.53.52-.294c.18-.1.29-.286.29-.494 0-.206-.11-.396-.29-.496m-12.36-3.7l.32-.17c.18-.1.29-.29.29-.49 0-.21-.11-.4-.29-.5l-.316-.17-.17-.32c-.1-.18-.28-.29-.49-.29-.2 0-.39.113-.49.294l-.17.32-.31.18c-.18.1-.29.29-.29.496 0 .21.11.4.29.497l.32.17.17.32c.1.18.286.29.49.29.204 0 .39-.11.49-.29l.174-.32"/><path d="M10.49 5.746l.67.373.368.68c.098.18.287.29.49.29.205 0 .392-.12.49-.3l.366-.68.67-.38c.18-.1.292-.29.292-.5 0-.21-.11-.4-.29-.5l-.672-.37-.367-.68c-.097-.18-.285-.3-.49-.3-.202 0-.39.11-.49.29l-.366.68-.67.37c-.18.1-.29.29-.29.49 0 .21.11.4.29.5zm1.528-.607l.11.11-.11.11-.11-.11.11-.11z"/></g><path d="M24.415 46.746c-.973-.344-1.912-.51-2.87-.51-2.233 0-4.05.913-5.807 1.796-1.596.803-3.104 1.56-4.812 1.56-.548 0-1.09-.075-1.647-.23l-.13-.357c-.21-.587-.86-.888-1.43-.674-.58.22-.88.87-.67 1.45l6.41 17.79c.16.46.59.75 1.05.75.12 0 .25-.02.38-.07.58-.21.88-.86.66-1.44l-3.48-9.66c2.46-.52 4.27-2.48 6.02-4.39 1.8-1.96 3.51-3.8 5.69-3.8l.2.01c.55.03 1.04-.36 1.15-.91.1-.55-.21-1.1-.73-1.28zm-7.942 4.456c-1.66 1.8-3.23 3.51-5.173 3.773l-1.137-3.156c.253.02.506.03.763.03 2.23 0 4.05-.92 5.804-1.8.532-.27 1.053-.53 1.576-.76-.633.6-1.236 1.25-1.832 1.9z" fill="#67747C"/><path d="M5.683 64.008c-.308 0-.56.252-.56.565v1.07c0 .312.252.566.56.566.308 0 .557-.26.557-.57v-1.07c0-.31-.25-.57-.557-.57m0-2.61c.308 0 .557-.26.557-.57v-1.07c0-.32-.25-.57-.558-.57-.307 0-.56.25-.56.56v1.07c0 .31.253.56.56.56m-1.846 1.87c.31 0 .557-.26.557-.57 0-.31-.25-.57-.557-.57H2.78c-.308 0-.557.25-.557.56 0 .31.25.56.558.56h1.06m3.7 0h1.05c.31 0 .56-.25.56-.56 0-.31-.25-.57-.55-.57H7.53c-.31 0-.56.25-.56.563 0 .31.25.564.56.564m-3.62.43L2.09 65.5c-.217.22-.217.58 0 .8.11.11.253.166.395.166.143 0 .286-.054.396-.164L4.7 64.5c.22-.22.22-.578 0-.8-.212-.22-.57-.22-.79 0m4.58-4.633L6.67 60.91c-.22.22-.22.58 0 .8.11.11.25.163.394.163.143 0 .286-.053.394-.163l1.82-1.845c.22-.223.22-.58 0-.8-.218-.22-.57-.22-.79 0m-5.602 0c-.217-.22-.57-.22-.79 0-.216.22-.216.577 0 .8l1.82 1.844c.11.11.253.16.397.16.14 0 .285-.06.395-.17.218-.22.218-.58 0-.8l-1.82-1.85M7.46 63.7c-.217-.22-.572-.22-.79 0-.217.22-.217.577 0 .8l1.82 1.844c.11.11.253.165.396.165.14 0 .285-.06.394-.17.218-.22.218-.58 0-.8L7.46 63.7m18.913-5.28c-.22-.22-.57-.22-.79 0-.216.22-.216.58 0 .8l1.414 1.43c.11.11.252.166.394.166.15 0 .29-.055.4-.164.22-.223.22-.58 0-.8l-1.41-1.432m-4.47-4.52c-.21-.22-.57-.22-.79 0-.21.22-.21.58 0 .8l1.42 1.43c.11.112.25.167.4.167.15 0 .29-.055.4-.166.22-.22.22-.57 0-.79l-1.42-1.44m.63 4.52l-1.41 1.43c-.21.22-.21.58 0 .8.11.11.26.17.4.17.15 0 .29-.05.4-.16l1.42-1.43c.22-.22.22-.58 0-.8-.21-.22-.57-.22-.79 0M26 56.3c.14 0 .284-.055.393-.166l1.412-1.43c.217-.22.217-.58 0-.8-.217-.22-.572-.22-.79 0L25.6 55.34c-.22.22-.22.58 0 .8.11.11.25.17.39.17m-1.52 2.71c-.31 0-.56.26-.56.57v3.04c0 .31.25.567.56.567.31 0 .56-.256.56-.57v-3.04c0-.31-.25-.563-.56-.563m0-7.636c-.31 0-.56.255-.56.57V55c0 .31.25.562.56.562.31 0 .56-.253.56-.564v-3.04c0-.313-.25-.567-.56-.567m-2.27 6.47c.31 0 .556-.25.556-.56 0-.31-.25-.56-.56-.56h-3c-.307 0-.557.25-.557.57 0 .32.25.57.55.57h3m7.53-1.13h-3c-.31 0-.56.25-.56.57 0 .32.25.57.56.57h3c.31 0 .55-.25.55-.57 0-.31-.25-.563-.56-.563m-10.6 3.68l-.53-.29-.29-.53c-.1-.18-.29-.296-.49-.296-.21 0-.39.11-.49.29l-.29.53-.53.29c-.18.1-.29.29-.29.5 0 .205.11.395.29.494l.52.29.29.53c.09.18.28.29.49.29.2 0 .39-.11.49-.292l.28-.53.52-.294c.18-.1.29-.286.29-.494 0-.206-.11-.396-.29-.496m-12.36-3.7l.32-.17c.18-.1.29-.29.29-.49 0-.21-.11-.4-.29-.5l-.316-.17-.17-.32c-.1-.18-.28-.29-.49-.29-.2 0-.39.113-.49.294l-.17.32-.31.18c-.18.1-.29.29-.29.496 0 .21.11.4.29.497l.32.17.17.32c.1.18.286.29.49.29.204 0 .39-.11.49-.29l.174-.32" fill="#373D43"/><path d="M10.49 45.746l.67.373.368.68c.098.18.287.29.49.29.205 0 .392-.12.49-.3l.366-.68.67-.38c.18-.1.292-.29.292-.5 0-.21-.11-.4-.29-.5l-.672-.37-.367-.68c-.097-.18-.285-.3-.49-.3-.202 0-.39.11-.49.29l-.366.68-.67.37c-.18.1-.29.29-.29.49 0 .21.11.4.29.5zm1.528-.607l.11.11-.11.11-.11-.11.11-.11z" fill="#67747C"/><g fill="#fff"><path d="M24.415 86.746c-.973-.344-1.912-.51-2.87-.51-2.233 0-4.05.913-5.807 1.796-1.596.803-3.104 1.56-4.812 1.56-.548 0-1.09-.075-1.647-.23l-.13-.357c-.21-.587-.86-.888-1.43-.674-.58.22-.88.87-.67 1.45l6.41 17.79c.16.46.59.75 1.05.75.12 0 .25-.02.38-.07.58-.21.88-.86.66-1.44l-3.48-9.66c2.46-.52 4.27-2.48 6.02-4.39 1.8-1.96 3.51-3.8 5.69-3.8l.2.01c.55.03 1.04-.36 1.15-.91.1-.55-.21-1.1-.73-1.28zm-7.942 4.456c-1.66 1.8-3.23 3.51-5.173 3.773l-1.137-3.156c.253.02.506.03.763.03 2.23 0 4.05-.92 5.804-1.8.532-.27 1.053-.53 1.576-.76-.633.6-1.236 1.25-1.832 1.9zm-10.79 12.806c-.308 0-.56.252-.56.565v1.07c0 .312.252.566.56.566.308 0 .557-.26.557-.57v-1.07c0-.31-.25-.57-.557-.57m0-2.61c.308 0 .557-.26.557-.57v-1.07c0-.32-.25-.57-.558-.57-.307 0-.56.25-.56.56v1.07c0 .31.253.56.56.56m-1.846 1.87c.31 0 .557-.26.557-.57 0-.31-.25-.57-.557-.57H2.78c-.308 0-.557.25-.557.56 0 .31.25.56.558.56h1.06m3.7 0h1.05c.31 0 .56-.25.56-.56 0-.31-.25-.57-.55-.57H7.53c-.31 0-.56.25-.56.563 0 .31.25.564.56.564m-3.62.43l-1.82 1.85c-.217.22-.217.58 0 .8.11.11.253.166.395.166.143 0 .286-.055.396-.165l1.82-1.84c.22-.22.22-.575 0-.8-.21-.22-.57-.22-.79 0m4.58-4.63l-1.82 1.85c-.22.22-.22.58 0 .8.11.11.25.163.4.163.15 0 .29-.052.4-.162l1.82-1.84c.22-.23.22-.58 0-.8-.22-.22-.57-.22-.79 0m-5.6 0c-.21-.22-.57-.22-.79 0-.21.22-.21.57 0 .8l1.82 1.84c.11.11.26.17.4.17s.29-.06.4-.17c.22-.22.22-.58 0-.8L2.9 99.05m4.57 4.63c-.213-.22-.57-.22-.79 0-.213.22-.213.58 0 .8l1.82 1.847c.11.11.257.16.4.16.14 0 .286-.05.395-.16.21-.22.21-.58 0-.8l-1.82-1.84m18.91-5.28c-.22-.22-.57-.22-.79 0-.22.22-.22.58 0 .8l1.41 1.43c.11.11.25.16.39.16.144 0 .29-.057.394-.166.22-.22.22-.58 0-.8l-1.41-1.43m-4.46-4.52c-.22-.22-.57-.22-.79 0-.22.22-.22.58 0 .8l1.41 1.43c.11.11.25.17.39.17s.29-.05.39-.16c.215-.22.215-.57 0-.79l-1.41-1.43m.624 4.52l-1.42 1.44c-.21.22-.21.58 0 .8.11.11.26.17.4.17.15 0 .29-.058.4-.167l1.42-1.436c.22-.22.22-.58 0-.8-.21-.22-.57-.22-.79 0M26 96.3c.15 0 .29-.055.4-.166l1.41-1.43c.22-.22.22-.58 0-.8-.214-.22-.57-.22-.79 0l-1.41 1.44c-.22.22-.22.58 0 .8.11.11.25.17.39.17m-1.52 2.71c-.308 0-.56.26-.56.57v3.04c0 .31.252.57.56.57.31 0 .56-.257.56-.57v-3.04c0-.31-.25-.564-.56-.564m0-7.636c-.308 0-.56.257-.56.57V95c0 .31.252.562.56.562.31 0 .56-.25.56-.56v-3.04c0-.313-.25-.567-.56-.567M22.2 97.86c.31 0 .557-.25.557-.563 0-.312-.25-.564-.56-.564h-3c-.307 0-.557.254-.557.567 0 .314.25.566.557.566h3m7.532-1.13h-3c-.31 0-.56.25-.56.564 0 .312.25.564.56.564h3c.3 0 .55-.25.55-.57 0-.31-.25-.563-.56-.563m-10.6 3.69l-.53-.29-.29-.53c-.1-.18-.29-.29-.49-.29-.21 0-.39.11-.49.29l-.29.53-.53.29c-.18.1-.29.29-.29.5 0 .21.11.4.29.5l.52.29.29.53c.092.18.28.29.49.29.2 0 .39-.11.49-.29l.28-.53.526-.29c.18-.1.29-.29.29-.49 0-.21-.11-.4-.29-.5M6.76 96.7l.314-.174c.18-.1.29-.29.29-.49 0-.21-.11-.4-.29-.5l-.31-.17-.17-.32c-.1-.18-.28-.294-.49-.294-.2 0-.39.114-.49.295l-.17.32-.31.18c-.18.1-.29.29-.29.496 0 .207.11.397.29.496l.32.17.176.32c.1.18.285.29.49.29.203 0 .39-.11.49-.29l.173-.32"/><path d="M10.49 85.746l.67.373.368.68c.098.18.287.29.49.29.205 0 .392-.12.49-.3l.366-.68.67-.38c.18-.1.292-.29.292-.5 0-.21-.11-.4-.29-.5l-.672-.37-.367-.68c-.097-.18-.285-.3-.49-.3-.202 0-.39.11-.49.29l-.366.68-.67.37c-.18.1-.29.29-.29.49 0 .21.11.4.29.5zm1.528-.607l.11.11-.11.11-.11-.11.11-.11z"/></g><g fill="#206FAC"><path d="M24.415 126.746c-.973-.344-1.912-.51-2.87-.51-2.233 0-4.05.913-5.807 1.796-1.596.803-3.104 1.56-4.812 1.56-.548 0-1.09-.075-1.647-.23l-.13-.357c-.21-.587-.86-.888-1.43-.674-.58.22-.88.87-.67 1.45l6.41 17.79c.16.46.59.75 1.05.75.12 0 .25-.02.38-.07.58-.21.88-.86.66-1.44l-3.48-9.66c2.46-.52 4.27-2.48 6.02-4.39 1.8-1.96 3.51-3.8 5.69-3.8l.2.01c.55.03 1.04-.36 1.15-.91.1-.55-.21-1.1-.73-1.28zm-7.942 4.456c-1.66 1.8-3.23 3.51-5.173 3.773l-1.137-3.156c.253.02.506.03.763.03 2.23 0 4.05-.92 5.804-1.8.532-.27 1.053-.53 1.576-.76-.633.6-1.236 1.25-1.832 1.9zm-10.79 12.806c-.308 0-.56.252-.56.565v1.07c0 .312.252.566.56.566.308 0 .557-.26.557-.57v-1.07c0-.31-.25-.57-.557-.57m0-2.61c.308 0 .557-.26.557-.57v-1.07c0-.32-.25-.57-.558-.57-.307 0-.56.25-.56.56v1.07c0 .31.253.56.56.56m-1.846 1.87c.31 0 .557-.26.557-.57 0-.31-.25-.57-.557-.57H2.78c-.308 0-.557.25-.557.56 0 .31.25.56.558.56h1.06m3.7 0h1.05c.31 0 .56-.25.56-.56 0-.31-.25-.57-.55-.57H7.53c-.31 0-.56.25-.56.563 0 .31.25.564.56.564m-3.62.43l-1.82 1.85c-.217.22-.217.58 0 .8.11.11.253.166.395.166.143 0 .286-.055.396-.165l1.82-1.84c.22-.22.22-.575 0-.8-.21-.22-.57-.22-.79 0m4.58-4.63l-1.82 1.85c-.22.22-.22.58 0 .8.11.11.25.163.4.163.15 0 .29-.052.4-.162l1.82-1.84c.22-.23.22-.58 0-.8-.22-.22-.57-.22-.79 0m-5.6 0c-.21-.22-.57-.22-.79 0-.21.22-.21.57 0 .8l1.82 1.84c.11.11.26.17.4.17s.29-.06.4-.17c.22-.22.22-.58 0-.8l-1.82-1.84m4.57 4.636c-.22-.22-.57-.22-.79 0-.22.22-.22.58 0 .8l1.82 1.842c.11.11.25.16.4.16.14 0 .29-.05.4-.16.21-.22.21-.58 0-.8l-1.84-1.84m18.91-5.283c-.22-.22-.57-.22-.79 0-.21.22-.21.58 0 .8l1.41 1.44c.11.11.25.164.4.164.14 0 .28-.054.39-.16.22-.227.22-.58 0-.8l-1.41-1.436m-4.46-4.514c-.22-.22-.57-.22-.79 0-.22.22-.22.58 0 .8l1.41 1.43c.11.114.25.17.39.17s.29-.055.39-.166c.22-.22.22-.57 0-.79l-1.42-1.43m.625 4.515l-1.414 1.432c-.21.22-.21.578 0 .8.11.11.26.165.4.165.15 0 .29-.056.4-.165l1.42-1.432c.22-.22.22-.58 0-.8-.21-.22-.57-.22-.79 0m3.44-2.118c.15 0 .29-.055.4-.166l1.41-1.43c.22-.22.22-.58 0-.8-.21-.22-.57-.22-.79 0l-1.41 1.44c-.22.22-.22.58 0 .8.11.11.25.17.39.17m-1.52 2.71c-.3 0-.56.26-.56.57v3.04c0 .31.26.57.56.57.31 0 .56-.25.56-.57v-3.04c0-.31-.25-.56-.56-.56m0-7.63c-.3 0-.56.26-.56.57V135c0 .31.26.562.56.562.31 0 .56-.253.56-.564v-3.04c0-.31-.25-.566-.56-.566m-2.26 6.466c.31 0 .56-.25.56-.56 0-.314-.25-.566-.56-.566h-3c-.3 0-.55.25-.55.565 0 .313.25.565.56.565h3m7.54-1.13h-3c-.31 0-.56.25-.56.564 0 .313.25.565.56.565h3c.31 0 .556-.25.556-.56 0-.31-.25-.56-.56-.56m-10.6 3.69l-.527-.29-.29-.53c-.1-.18-.29-.3-.49-.3-.208 0-.39.12-.49.3l-.29.53-.52.29c-.18.1-.29.29-.29.5 0 .21.11.4.29.5l.52.29.29.53c.096.18.284.29.49.29.203 0 .39-.11.49-.29l.284-.53.526-.29c.18-.1.29-.29.29-.493 0-.207-.11-.397-.29-.497m-12.37-3.7l.32-.174c.18-.1.29-.29.29-.5 0-.2-.11-.39-.29-.49l-.32-.178-.17-.32c-.1-.18-.285-.29-.49-.29-.203 0-.39.11-.49.294l-.17.32-.317.174c-.18.1-.29.29-.29.49 0 .21.11.4.29.5l.31.174.17.32c.1.18.28.3.49.3.2 0 .39-.11.49-.29l.17-.32"/><path d="M10.49 125.746l.67.373.368.68c.098.18.287.29.49.29.205 0 .392-.12.49-.3l.366-.68.67-.38c.18-.1.292-.29.292-.5 0-.21-.11-.4-.29-.5l-.672-.37-.367-.68c-.097-.18-.285-.3-.49-.3-.202 0-.39.11-.49.29l-.366.68-.67.37c-.18.1-.29.29-.29.49 0 .21.11.4.29.5zm1.528-.607l.11.11-.11.11-.11-.11.11-.11z"/></g></g></svg>