<svg width="32" height="232" viewBox="0 0 32 232" xmlns="http://www.w3.org/2000/svg"><g fill="none"><path d="M27.338 14.6c-.173-.076-.372-.04-.51.088l-1.76 1.66h-.32v-2.433c0-.522-.422-.945-.943-.945h-.053c.974-1.046 1.572-2.45 1.572-3.992 0-3.227-2.616-5.853-5.83-5.853-1.306 0-2.512.432-3.484 1.162L10.155 5.46c-.426-.124-.875-.193-1.34-.193-2.628 0-4.765 2.145-4.765 4.78 0 1.144.402 2.195 1.07 3.02-.31.152-.528.474-.528.847v8.388c0 .523.422.946.942.946h8.38l-3.28 4.708c-.148.214-.096.51.117.658.09.058.18.086.27.086.15 0 .3-.07.39-.202l3.27-4.694v4.423c0 .26.21.473.47.473s.47-.212.47-.473v-4.423l3.27 4.694c.09.132.24.202.39.202.1 0 .19-.028.27-.086.21-.15.27-.444.12-.658l-3.28-4.708h7.43c.52 0 .95-.423.95-.946v-2.28h.32l1.76 1.66c.09.085.21.128.32.128l.19-.04c.17-.074.28-.244.28-.433V15.03c0-.188-.11-.36-.28-.434zM6.474 21.36v-2.967h3.248c.26 0 .47-.21.47-.473 0-.26-.21-.472-.47-.472H6.474v-.817h5.27c.26 0 .47-.21.47-.47s-.21-.47-.47-.47h-5.27v-.82h16.39v6.5H6.474zm8.338-15.87c-.686.926-1.106 2.062-1.146 3.293l-.21.194c-.267-1.164-.957-2.167-1.9-2.835l3.256-.653zm4.68 7.45c-2.177 0-3.948-1.778-3.948-3.963 0-.238.022-.47.062-.697.055-.31.145-.606.267-.886.445-1.02 1.306-1.818 2.367-2.175.288-.1.59-.16.903-.19l.35-.02c2.176 0 3.947 1.78 3.947 3.96s-1.77 3.96-3.948 3.96zm5.515 5.73v.407h-.73V17.29h.73v1.378zm-11.433-8.52l.176-.162c.2 1.14.727 2.168 1.483 2.98H12.58c.605-.783.972-1.76.994-2.818zM8.812 7.16c1.59 0 2.88 1.296 2.88 2.89 0 .21-.02.412-.064.608-.085.397-.25.765-.482 1.083-.23.32-.525.6-.864.8-.334.2-.71.34-1.114.39l-.356.03c-1.59 0-2.88-1.29-2.88-2.89s1.29-2.89 2.88-2.89zM26.68 20.247l-.733-.69v-2.743l.732-.69v4.123zM19.588 6.802c-.138-.412-.582-.633-.992-.494-.41.138-.63.584-.492.996.138.41.582.632.992.494.41-.138.63-.584.492-.995m.302 3.36c-.41.137-.63.583-.493.995.138.412.582.633.992.494.41-.138.63-.584.49-.996-.14-.412-.58-.632-.99-.494m1.27-2.576c-.41.14-.63.585-.49.996.13.41.58.632.99.494.41-.14.63-.585.49-.996-.14-.41-.59-.632-1-.494m-3.84 1.298c-.41.138-.63.584-.49.996.13.41.58.633.99.494.41-.138.63-.584.49-.996-.14-.41-.59-.632-1-.494m-8.24.23c.32.094.66-.094.76-.42.09-.326-.1-.667-.42-.76-.23-.066-.46.004-.61.16-.07.07-.12.158-.15.26-.06.22 0 .444.15.597.07.08.16.14.27.17m-.87 3.06c.22.07.45 0 .61-.16.07-.07.12-.16.15-.26.06-.22 0-.44-.15-.6-.07-.07-.16-.13-.27-.16-.33-.09-.66.1-.76.42-.1.33.09.67.42.76m1.96-1.09c.32.1.66-.09.75-.42.1-.32-.09-.66-.42-.76-.32-.09-.66.1-.75.42-.09.33.09.67.42.76M7.1 10.2c.33.1.67-.09.76-.42.097-.32-.09-.66-.42-.76-.32-.09-.66.1-.754.42-.095.33.093.67.42.76" fill="#373D43"/><path d="M27.338 54.6c-.173-.076-.372-.04-.51.088l-1.76 1.66h-.32v-2.433c0-.522-.422-.945-.943-.945h-.053c.974-1.046 1.572-2.45 1.572-3.992 0-3.227-2.616-5.853-5.83-5.853-1.306 0-2.512.432-3.484 1.162l-5.855 1.174c-.426-.12-.875-.19-1.34-.19-2.628 0-4.765 2.15-4.765 4.78 0 1.15.402 2.2 1.07 3.02-.31.15-.528.48-.528.85v8.39c0 .53.422.95.942.95h8.38l-3.28 4.71c-.148.22-.096.51.117.66.09.06.18.09.27.09.15 0 .3-.07.39-.2l3.27-4.69v4.43c0 .26.21.47.47.47s.47-.21.47-.47v-4.43l3.27 4.7c.09.13.24.2.39.2.1 0 .19-.02.27-.08.21-.15.27-.44.12-.65l-3.28-4.71h7.43c.52 0 .95-.42.95-.95v-2.28h.32l1.76 1.66c.09.09.21.13.32.13l.19-.04c.17-.07.28-.24.28-.43v-6.31c0-.19-.11-.36-.28-.43zM6.474 61.36v-2.967h3.248c.26 0 .47-.21.47-.473 0-.26-.21-.472-.47-.472H6.474v-.817h5.27c.26 0 .47-.21.47-.47s-.21-.47-.47-.47h-5.27v-.82h16.39v6.5H6.474zm8.338-15.868c-.686.926-1.106 2.062-1.146 3.293l-.21.194c-.267-1.17-.957-2.17-1.9-2.84l3.256-.66zm4.68 7.45c-2.177 0-3.948-1.778-3.948-3.963 0-.24.022-.47.062-.7.055-.31.145-.61.267-.89.445-1.02 1.306-1.82 2.367-2.18.288-.1.59-.16.903-.19l.35-.02c2.176 0 3.947 1.78 3.947 3.96s-1.77 3.96-3.948 3.96zm5.515 5.73v.407h-.73v-1.79h.73v1.37zm-11.433-8.52l.176-.162c.2 1.14.727 2.168 1.483 2.98H12.58c.605-.783.972-1.76.994-2.818zM8.812 47.16c1.59 0 2.88 1.296 2.88 2.89 0 .21-.02.412-.064.608-.085.397-.25.765-.482 1.083-.23.32-.525.6-.864.8-.334.2-.71.34-1.114.39l-.356.03c-1.59 0-2.88-1.29-2.88-2.89s1.29-2.89 2.88-2.89zM26.68 60.247l-.733-.69v-2.743l.732-.69v4.123zm-7.092-13.445c-.138-.412-.582-.633-.992-.494-.41.138-.63.584-.492.996.138.41.582.632.992.494.41-.138.63-.584.492-.995m.302 3.36c-.41.137-.63.583-.493.995.138.412.582.633.992.494.41-.138.63-.584.49-.996-.14-.412-.58-.632-.99-.494m.78-1.58c.13.41.58.632.99.494.41-.14.63-.585.49-.996-.14-.41-.59-.632-1-.494-.41.14-.63.585-.49.996zm-3.35.302c-.41.138-.63.584-.5.996.13.41.58.633.99.494.41-.138.63-.584.49-.996-.14-.41-.58-.632-.99-.494m-8.24.23c.32.094.66-.094.76-.42.09-.326-.1-.667-.42-.76-.23-.066-.46.004-.61.16-.07.07-.12.158-.15.26-.07.22 0 .444.15.597.07.08.16.14.27.17m-.87 3.06c.22.07.45 0 .6-.16.07-.07.12-.16.15-.26.06-.22 0-.44-.15-.6-.07-.07-.16-.13-.27-.16-.32-.09-.66.1-.76.42-.1.33.09.67.42.76m1.96-1.09c.32.1.66-.09.75-.42.09-.32-.1-.66-.42-.76-.33-.09-.67.1-.76.42-.09.33.09.67.42.76M7.1 50.2c.328.1.668-.09.76-.42.095-.32-.093-.66-.42-.76-.323-.09-.663.1-.756.42-.094.33.094.67.42.76" fill="#67747C"/><path d="M27.338 134.6c-.173-.076-.372-.04-.51.088l-1.76 1.66h-.32v-2.433c0-.522-.422-.945-.943-.945h-.053c.974-1.046 1.572-2.45 1.572-3.992 0-3.227-2.616-5.853-5.83-5.853-1.306 0-2.512.432-3.484 1.162l-5.855 1.174c-.426-.12-.875-.19-1.34-.19-2.628 0-4.765 2.15-4.765 4.78 0 1.15.402 2.2 1.07 3.02-.31.15-.528.48-.528.85v8.39c0 .53.422.95.942.95h8.38l-3.28 4.71c-.148.22-.096.51.117.66.09.06.18.09.27.09.15 0 .3-.07.39-.2l3.27-4.69v4.43c0 .26.21.47.47.47s.47-.21.47-.47v-4.42l3.27 4.7c.09.13.24.2.39.2.1 0 .19-.02.27-.08.21-.15.27-.44.12-.66l-3.28-4.71h7.43c.52 0 .95-.42.95-.94v-2.28h.32l1.76 1.66c.09.09.21.13.32.13l.19-.04c.17-.07.28-.24.28-.43v-6.3c0-.19-.11-.36-.28-.43zm-20.864 6.76v-2.967h3.248c.26 0 .47-.21.47-.473 0-.26-.21-.472-.47-.472H6.474v-.817h5.27c.26 0 .47-.21.47-.47s-.21-.47-.47-.47h-5.27v-.82h16.39v6.5H6.474zm8.338-15.868c-.686.926-1.106 2.062-1.146 3.293l-.21.194c-.267-1.17-.957-2.17-1.9-2.84l3.256-.66zm4.68 7.45c-2.177 0-3.948-1.778-3.948-3.963 0-.24.022-.47.062-.7.055-.31.145-.61.267-.89.445-1.02 1.306-1.82 2.367-2.18.288-.1.59-.16.903-.19l.35-.02c2.176 0 3.947 1.78 3.947 3.96s-1.77 3.96-3.948 3.96zm5.515 5.73v.407h-.73v-1.79h.73v1.37zm-11.433-8.52l.176-.162c.2 1.14.727 2.168 1.483 2.98H12.58c.605-.783.972-1.76.994-2.818zm-4.762-2.993c1.59 0 2.88 1.29 2.88 2.89 0 .21-.02.41-.064.6-.085.39-.25.76-.482 1.08-.23.32-.525.59-.864.79-.334.2-.71.33-1.114.38l-.356.02c-1.59 0-2.88-1.3-2.88-2.89s1.29-2.89 2.88-2.89zm17.868 13.08l-.74-.69v-2.75l.733-.69v4.12zm-7.1-13.44c-.138-.41-.582-.64-.992-.5-.41.14-.63.58-.49.99.14.41.582.63.992.49.41-.14.63-.59.492-1m.302 3.36c-.41.13-.63.58-.494.99.138.41.582.63.992.49.41-.13.63-.58.49-.99-.137-.41-.58-.63-.99-.5m.782-1.58c.138.41.583.63.992.49.41-.14.63-.59.49-1-.137-.41-.582-.63-.992-.497-.41.14-.63.587-.493 1zm-3.347.3c-.41.13-.63.58-.494.99.138.41.582.63.992.49.41-.14.63-.585.49-1-.137-.41-.58-.63-.99-.49m-8.24.23c.324.09.663-.097.757-.42.094-.33-.094-.67-.42-.76-.223-.07-.455 0-.607.16-.065.07-.12.155-.15.26-.06.22.005.44.15.594.075.073.166.13.27.16m-.875 3.06c.224.06.455-.01.608-.16.07-.07.12-.16.15-.26.065-.22 0-.45-.15-.6-.07-.076-.16-.13-.27-.16-.322-.1-.66.09-.755.42-.094.32.094.663.42.76m1.96-1.09c.324.093.663-.095.757-.42.095-.33-.093-.67-.42-.76-.323-.097-.662.09-.756.42-.093.324.094.664.42.76m-3.044-.88c.325.093.665-.095.758-.42.095-.33-.093-.67-.42-.76-.323-.096-.663.09-.756.42-.093.325.095.665.42.76" fill="#206FAC"/><path d="M27.338 94.6c-.173-.076-.372-.04-.51.088l-1.76 1.66h-.32v-2.433c0-.522-.422-.945-.943-.945h-.053c.974-1.046 1.572-2.45 1.572-3.992 0-3.227-2.616-5.853-5.83-5.853-1.306 0-2.512.432-3.484 1.162l-5.855 1.174c-.426-.12-.875-.19-1.34-.19-2.628 0-4.765 2.15-4.765 4.78 0 1.15.402 2.2 1.07 3.02-.31.15-.528.48-.528.85v8.39c0 .53.422.95.942.95h8.38l-3.28 4.71c-.148.22-.096.51.117.66.09.06.18.09.27.09.15 0 .3-.07.39-.2l3.27-4.69v4.43c0 .26.21.47.47.47s.47-.21.47-.47v-4.42l3.27 4.7c.09.13.24.2.39.2.1 0 .19-.02.27-.08.21-.15.27-.44.12-.66l-3.28-4.71h7.43c.52 0 .95-.42.95-.94v-2.28h.32l1.76 1.66c.09.09.21.13.32.13l.19-.04c.17-.07.28-.24.28-.43v-6.31c0-.18-.11-.36-.28-.43zm-20.864 6.76v-2.967h3.248c.26 0 .47-.21.47-.473 0-.26-.21-.472-.47-.472H6.474v-.817h5.27c.26 0 .47-.21.47-.47s-.21-.47-.47-.47h-5.27v-.82h16.39v6.5H6.474zm8.338-15.868c-.686.926-1.106 2.062-1.146 3.293l-.21.194c-.267-1.17-.957-2.17-1.9-2.84l3.256-.66zm4.68 7.45c-2.177 0-3.948-1.778-3.948-3.963 0-.24.022-.47.062-.7.055-.31.145-.61.267-.89.445-1.02 1.306-1.82 2.367-2.18.288-.1.59-.16.903-.19l.35-.02c2.176 0 3.947 1.78 3.947 3.96s-1.77 3.96-3.948 3.96zm5.515 5.73v.407h-.73v-1.79h.73v1.37zm-11.433-8.52l.176-.162c.2 1.14.727 2.168 1.483 2.98H12.58c.605-.783.972-1.76.994-2.818zM8.812 87.16c1.59 0 2.88 1.296 2.88 2.89 0 .21-.02.412-.064.608-.085.397-.25.765-.482 1.083-.23.32-.525.6-.864.8-.334.2-.71.34-1.114.39l-.356.03c-1.59 0-2.88-1.29-2.88-2.89s1.29-2.89 2.88-2.89zm17.867 13.088l-.74-.69v-2.743l.73-.69v4.123zm-7.1-13.446c-.14-.412-.59-.633-1-.494-.41.138-.63.584-.49.996.14.41.58.632.99.494.41-.138.63-.584.49-.995m.3 3.36c-.41.137-.63.583-.5.995.13.412.58.633.99.494.41-.138.63-.584.49-.996-.14-.412-.58-.632-.99-.494m.78-1.58c.14.41.58.632.99.494.41-.14.63-.585.49-.996-.14-.41-.59-.632-1-.494-.41.14-.63.585-.49.996zm-3.35.302c-.41.138-.63.584-.49.996.14.41.58.633.99.494.41-.138.63-.584.49-.996-.14-.41-.58-.632-.99-.494m-8.24.23c.32.094.66-.094.75-.42.09-.326-.1-.667-.42-.76-.22-.066-.46.004-.61.16-.07.07-.12.158-.15.26-.06.22 0 .444.15.597.07.08.16.14.27.17m-.87 3.05c.22.07.45 0 .61-.16.07-.07.12-.16.15-.26.06-.22 0-.44-.15-.6-.07-.07-.16-.13-.27-.16-.32-.09-.66.1-.76.42-.1.33.09.67.42.76m1.96-1.08c.32.1.66-.09.75-.42.092-.32-.096-.66-.42-.76-.326-.09-.665.1-.76.42-.095.33.09.67.42.76M7.1 90.2c.323.1.663-.09.756-.42.096-.32-.09-.66-.42-.76-.32-.09-.66.1-.755.42-.09.33.1.67.42.76" fill="#fff"/></g></svg>