<svg width="32" height="232" viewBox="0 0 32 232" xmlns="http://www.w3.org/2000/svg"><g fill="none"><g fill="#3B444F"><path d="M30.366 6.88c-.21 0-.38.166-.38.372v3.073c0 .255-.12.484-.302.637l-.09-3.63c-.007-.248-.21-.445-.463-.445-.25 0-.45.197-.46.444l-.08 3.62c-.18-.15-.29-.37-.29-.62V7.25c0-.207-.17-.373-.38-.373s-.38.162-.38.37v3.72c0 .66.42 1.23 1.02 1.46l-.31 13.005c0 .12.05.24.14.327.09.08.21.13.33.13h.88c.26 0 .47-.21.47-.46v-.05l-.32-12.96c.6-.23 1.03-.8 1.03-1.47v-3.7c0-.21-.17-.38-.38-.38"/><path d="M2.516 6.528c-.184.064-.304.236-.304.427v11.072c0 .25.206.453.46.454l-.29 7.22c-.006.13.04.25.128.33.087.09.208.14.334.14h.943c.254 0 .463-.2.463-.45l-.005-.06-.302-7.17h.01c.25 0 .455-.19.463-.44 0-.04.163-4.81.163-7.09 0-2.43-1.49-4.21-1.56-4.28-.13-.14-.33-.2-.52-.13zm1.092 7.408c-.034 1.47-.08 2.93-.1 3.638h-.372v-8.95c.278.626.517 1.43.517 2.33 0 .792-.02 1.89-.045 2.982zM16.31 9.522c-3.827 0-6.942 3.056-6.942 6.81s3.115 6.81 6.942 6.81c3.822 0 6.932-3.043 6.94-6.79v-.02c0-3.754-3.112-6.81-6.94-6.81zm5.997 6.37H20.14c-.07-2.06-.636-3.846-1.495-5 2.03.844 3.49 2.748 3.662 5zm-6.46-5.382v5.382h-2.44c.104-2.69 1.142-4.942 2.44-5.382zm0 6.29v5.356c-1.294-.44-2.33-2.678-2.44-5.356h2.44zm.925 5.356V16.8h2.44c-.11 2.678-1.145 4.917-2.44 5.356zm0-6.263V10.51c1.298.44 2.337 2.693 2.44 5.383h-2.44zm-2.8-5c-.857 1.153-1.422 2.938-1.492 5h-2.17c.172-2.252 1.634-4.156 3.663-5zM10.315 16.8h2.167c.076 2.05.64 3.825 1.493 4.972-2.02-.84-3.48-2.733-3.66-4.972zm8.33 4.972c.855-1.148 1.42-2.923 1.493-4.972h2.167c-.18 2.24-1.64 4.133-3.66 4.972zM16.31 6.09c-5.757 0-10.44 4.595-10.44 10.242 0 5.648 4.683 10.243 10.44 10.243 5.756 0 10.44-4.594 10.44-10.243 0-5.648-4.684-10.243-10.44-10.243zm0 18.668c-4.736 0-8.59-3.78-8.59-8.426 0-4.646 3.854-8.425 8.59-8.425 4.735 0 8.587 3.78 8.587 8.425 0 4.646-3.853 8.426-8.587 8.426z"/></g><g fill="#67747C"><path d="M30.366 46.88c-.21 0-.38.166-.38.372v3.073c0 .255-.12.484-.302.637l-.09-3.63c-.007-.248-.21-.445-.463-.445-.25 0-.45.197-.46.444l-.08 3.62c-.18-.15-.29-.37-.29-.62v-3.07c0-.2-.17-.37-.38-.37s-.38.17-.38.38v3.72c0 .67.42 1.23 1.02 1.47l-.31 13.01c0 .12.05.24.14.33.09.09.21.13.33.13h.88c.26 0 .47-.2.47-.45v-.05l-.32-12.96c.6-.23 1.03-.8 1.03-1.47v-3.72c0-.2-.17-.37-.38-.37"/><path d="M2.516 46.528c-.184.064-.304.236-.304.427v11.072c0 .25.206.453.46.454l-.29 7.22c-.006.13.04.25.128.33.087.09.208.14.334.14h.943c.254 0 .463-.2.463-.45l-.005-.06-.302-7.17h.01c.25 0 .455-.19.463-.44 0-.04.163-4.81.163-7.09 0-2.43-1.49-4.21-1.56-4.28-.13-.14-.33-.2-.52-.13zm1.092 7.408c-.034 1.47-.08 2.93-.1 3.638h-.372v-8.95c.278.626.517 1.43.517 2.33 0 .792-.02 1.89-.045 2.982zm12.702-4.414c-3.827 0-6.942 3.056-6.942 6.81s3.115 6.81 6.942 6.81c3.822 0 6.932-3.043 6.94-6.79v-.02c0-3.754-3.112-6.81-6.94-6.81zm5.997 6.37H20.14c-.07-2.06-.636-3.846-1.495-5 2.03.844 3.49 2.748 3.662 5zm-6.46-5.382v5.382h-2.44c.104-2.69 1.142-4.942 2.44-5.382zm0 6.29v5.356c-1.294-.44-2.33-2.678-2.44-5.356h2.44zm.925 5.356V56.8h2.44c-.11 2.678-1.145 4.917-2.44 5.356zm0-6.263V50.51c1.298.44 2.337 2.693 2.44 5.383h-2.44zm-2.8-5c-.857 1.153-1.422 2.938-1.492 5h-2.17c.172-2.252 1.634-4.156 3.663-5zM10.315 56.8h2.167c.076 2.05.64 3.825 1.493 4.972-2.02-.84-3.48-2.733-3.66-4.972zm8.33 4.972c.855-1.148 1.42-2.923 1.493-4.972h2.167c-.18 2.24-1.64 4.133-3.66 4.972zM16.31 46.09c-5.757 0-10.44 4.595-10.44 10.242 0 5.648 4.683 10.243 10.44 10.243 5.756 0 10.44-4.594 10.44-10.243 0-5.648-4.684-10.243-10.44-10.243zm0 18.668c-4.736 0-8.59-3.78-8.59-8.426 0-4.646 3.854-8.425 8.59-8.425 4.735 0 8.587 3.78 8.587 8.425 0 4.646-3.853 8.426-8.587 8.426z"/></g><g fill="#fff"><path d="M30.366 86.88c-.21 0-.38.166-.38.372v3.073c0 .255-.12.484-.302.637l-.09-3.63c-.007-.248-.21-.445-.463-.445-.25 0-.45.197-.46.444l-.08 3.62c-.18-.15-.29-.37-.29-.62v-3.07c0-.2-.17-.37-.38-.37s-.38.17-.38.38v3.72c0 .67.42 1.23 1.02 1.47l-.31 13.01c0 .12.05.24.14.33.09.09.21.13.33.13h.88c.26 0 .47-.2.47-.45v-.05l-.32-12.96c.6-.23 1.03-.8 1.03-1.47v-3.72c0-.2-.17-.37-.38-.37"/><path d="M2.516 86.528c-.184.064-.304.236-.304.427v11.072c0 .25.206.453.46.454l-.29 7.22c-.006.13.04.25.128.33.087.09.208.14.334.14h.943c.254 0 .463-.2.463-.45l-.005-.06-.302-7.17h.01c.25 0 .455-.19.463-.44 0-.04.163-4.81.163-7.09 0-2.43-1.49-4.21-1.56-4.28-.13-.14-.33-.2-.52-.13zm1.092 7.408c-.034 1.47-.08 2.93-.1 3.638h-.372v-8.95c.278.626.517 1.43.517 2.33 0 .792-.02 1.89-.045 2.982zm12.702-4.414c-3.827 0-6.942 3.056-6.942 6.81s3.115 6.81 6.942 6.81c3.822 0 6.932-3.043 6.94-6.79v-.02c0-3.754-3.112-6.81-6.94-6.81zm5.997 6.37H20.14c-.07-2.06-.636-3.846-1.495-5 2.03.844 3.49 2.748 3.662 5zm-6.46-5.382v5.382h-2.44c.104-2.69 1.142-4.942 2.44-5.382zm0 6.29v5.356c-1.294-.44-2.33-2.678-2.44-5.356h2.44zm.925 5.356V96.8h2.44c-.11 2.678-1.145 4.917-2.44 5.356zm0-6.263V90.51c1.298.44 2.337 2.693 2.44 5.383h-2.44zm-2.8-5c-.857 1.153-1.422 2.938-1.492 5h-2.17c.172-2.252 1.634-4.156 3.663-5zM10.315 96.8h2.167c.076 2.05.64 3.825 1.493 4.972-2.02-.84-3.48-2.733-3.66-4.972zm8.33 4.972c.855-1.148 1.42-2.923 1.493-4.972h2.167c-.18 2.24-1.64 4.133-3.66 4.972zM16.31 86.09c-5.757 0-10.44 4.595-10.44 10.242 0 5.648 4.683 10.243 10.44 10.243 5.756 0 10.44-4.594 10.44-10.243 0-5.648-4.684-10.243-10.44-10.243zm0 18.668c-4.736 0-8.59-3.78-8.59-8.426 0-4.646 3.854-8.425 8.59-8.425 4.735 0 8.587 3.78 8.587 8.425 0 4.646-3.853 8.426-8.587 8.426z"/></g><g fill="#206FAC"><path d="M30.366 126.88c-.21 0-.38.166-.38.372v3.073c0 .255-.12.484-.302.637l-.09-3.63c-.007-.248-.21-.445-.463-.445-.25 0-.45.197-.46.444l-.08 3.62c-.18-.15-.29-.37-.29-.62v-3.07c0-.2-.17-.37-.38-.37s-.38.17-.38.38v3.72c0 .67.42 1.24 1.02 1.47l-.31 13.01c0 .12.05.24.14.33.09.09.21.14.33.14h.88c.26 0 .47-.2.47-.45v-.05l-.32-12.96c.6-.23 1.03-.8 1.03-1.47v-3.71c0-.2-.17-.37-.38-.37"/><path d="M2.516 126.528c-.184.064-.304.236-.304.427v11.072c0 .25.206.453.46.454l-.29 7.22c-.006.13.04.25.128.33.087.09.208.14.334.14h.943c.254 0 .463-.2.463-.45l-.005-.06-.302-7.17h.01c.25 0 .455-.19.463-.44 0-.04.163-4.81.163-7.09 0-2.43-1.49-4.21-1.56-4.28-.13-.14-.33-.2-.52-.13zm1.092 7.408c-.034 1.47-.08 2.93-.1 3.638h-.372v-8.95c.278.626.517 1.43.517 2.33 0 .792-.02 1.89-.045 2.982zm12.702-4.414c-3.827 0-6.942 3.056-6.942 6.81s3.115 6.81 6.942 6.81c3.822 0 6.932-3.043 6.94-6.79v-.02c0-3.754-3.112-6.81-6.94-6.81zm5.997 6.37H20.14c-.07-2.06-.636-3.846-1.495-5 2.03.844 3.49 2.748 3.662 5zm-6.46-5.382v5.382h-2.44c.104-2.69 1.142-4.942 2.44-5.382zm0 6.29v5.356c-1.294-.44-2.33-2.678-2.44-5.356h2.44zm.925 5.356V136.8h2.44c-.11 2.678-1.145 4.917-2.44 5.356zm0-6.263v-5.382c1.298.44 2.337 2.7 2.44 5.39h-2.44zm-2.8-5c-.857 1.153-1.422 2.938-1.492 5h-2.17c.172-2.252 1.634-4.156 3.663-5zm-3.658 5.907h2.167c.08 2.05.64 3.825 1.5 4.972-2.02-.84-3.48-2.733-3.66-4.972zm8.33 4.972c.855-1.148 1.42-2.923 1.493-4.972h2.167c-.18 2.24-1.64 4.133-3.66 4.972zM16.31 126.09c-5.757 0-10.44 4.595-10.44 10.242 0 5.648 4.683 10.243 10.44 10.243 5.756 0 10.44-4.594 10.44-10.243 0-5.648-4.684-10.243-10.44-10.243zm0 18.668c-4.736 0-8.59-3.78-8.59-8.426 0-4.646 3.854-8.425 8.59-8.425 4.735 0 8.587 3.78 8.587 8.425 0 4.646-3.853 8.426-8.587 8.426z"/></g></g></svg>