<svg width="32" height="232" viewBox="0 0 32 232" xmlns="http://www.w3.org/2000/svg"><g fill="none"><g fill="#3B444F"><path d="M28.687 16.933h-.4c-.152-.626-.387-1.22-.702-1.775l.284-.296c.19-.205.19-.534 0-.738l-1.59-1.66c-.1-.098-.22-.154-.36-.154-.13 0-.26.056-.35.154l-.28.296c-.53-.33-1.1-.576-1.7-.737v-.418c0-.288-.23-.52-.5-.52h-.41v1.653c.07.11.18.19.31.216.74.147 1.44.45 2.07.9.19.142.46.115.63-.06l.21-.224.88.923-.21.223c-.17.177-.2.454-.06.663.43.65.72 1.38.86 2.17.04.24.25.42.49.42h.3v1.3h-.3c-.24 0-.45.18-.49.42-.14.78-.43 1.51-.86 2.17-.14.2-.11.48.06.66l.21.22-.88.92-.22-.23c-.17-.18-.44-.2-.64-.06-.63.45-1.33.75-2.08.9-.14.02-.25.11-.32.21v1.65h.4c.273 0 .5-.24.5-.52v-.42c.593-.16 1.162-.41 1.692-.74l.284.29c.09.092.22.15.35.15.13 0 .26-.058.35-.15l1.584-1.66c.193-.21.193-.54 0-.74l-.286-.3c.317-.557.55-1.15.704-1.777h.4c.28 0 .5-.235.5-.52V17.4c0-.29-.22-.52-.5-.52m-2.32 1.79c0-2.28-1.59-4.174-3.67-4.53v2.14c.975.316 1.68 1.27 1.68 2.39s-.704 2.07-1.68 2.39v2.14c2.08-.36 3.676-2.252 3.676-4.53M13.11 4.35c1.878-1.965 4.934-1.965 6.813 0 .097.103.224.154.353.154.127 0 .254-.05.35-.153.195-.2.195-.53 0-.73-2.265-2.37-5.953-2.37-8.22 0-.195.21-.195.54 0 .74.194.21.51.21.705 0m6.08 1.51c.2-.2.2-.53 0-.73-1.47-1.54-3.87-1.54-5.34 0-.19.21-.19.54 0 .74.1.1.23.15.36.15.13 0 .26-.05.35-.15 1.09-1.13 2.85-1.13 3.94 0 .2.21.51.21.71 0m-3.9.77c-.19.21-.19.54 0 .74.2.21.51.21.71 0 .14-.14.33-.23.53-.23s.39.09.53.23c.1.11.23.16.35.16.13 0 .26-.05.35-.15.2-.2.2-.53 0-.74-.33-.34-.77-.53-1.23-.53-.46 0-.9.19-1.23.54m-6.76 12.1c-.37 0-.68.32-.68.72 0 .4.31.72.69.72.377 0 .684-.32.684-.71 0-.4-.31-.72-.687-.72zm0 1.04c-.17 0-.31-.15-.31-.33 0-.18.14-.33.31-.33.17 0 .31.14.31.32s-.14.33-.31.33zM20.88 9.59h-6.75v2.086h5.75v15.25H9.378v-3.21H7.382v4.26c0 .577.446 1.043.996 1.043h12.497c.55 0 .996-.47.996-1.05V10.63c0-.577-.44-1.044-.99-1.044"/><path d="M9.374 22.834h.8v.01h2.115c.55 0 .99-.468.99-1.045V11.67h.01V9.586h-.01v-1.7c0-.575-.45-1.042-1-1.042H4.81c-.55 0-.997.467-.997 1.043V21.8c0 .576.446 1.043.998 1.043h1.65v-.01h2.92zM5.807 8.93h5.487v11.827H5.807V8.93zm8.82 17.348c.445 0 .81-.38.81-.85 0-.467-.365-.847-.81-.847-.447 0-.81.38-.81.85s.363.85.81.85zm0-1.043c.102 0 .186.087.186.194 0 .1-.085.19-.187.19-.103 0-.186-.09-.186-.2 0-.11.083-.2.186-.2z"/></g><g fill="#67747C"><path d="M28.687 56.933h-.4c-.152-.626-.387-1.22-.702-1.775l.284-.296c.19-.205.19-.534 0-.738l-1.59-1.66c-.1-.098-.22-.154-.36-.154-.13 0-.26.056-.35.154l-.28.296c-.53-.33-1.1-.576-1.7-.737v-.418c0-.288-.23-.52-.5-.52h-.41v1.653c.07.11.18.19.31.216.74.147 1.44.45 2.07.9.19.142.46.115.63-.06l.21-.224.88.923-.21.223c-.17.177-.2.454-.06.663.43.65.72 1.38.86 2.17.04.24.25.42.49.42h.3v1.3h-.3c-.24 0-.45.18-.49.42-.14.78-.43 1.51-.86 2.17-.14.2-.11.48.06.66l.21.22-.88.92-.22-.23c-.17-.18-.44-.2-.64-.06-.63.45-1.33.75-2.08.9-.14.02-.25.11-.32.21v1.65h.4c.273 0 .5-.24.5-.52v-.42c.593-.16 1.162-.41 1.692-.74l.284.29c.09.092.22.15.35.15.13 0 .26-.058.35-.15l1.584-1.66c.193-.21.193-.54 0-.74l-.286-.3c.317-.557.55-1.15.704-1.777h.4c.28 0 .5-.235.5-.52V57.4c0-.29-.22-.52-.5-.52m-2.32 1.79c0-2.28-1.59-4.174-3.67-4.53v2.14c.975.316 1.68 1.27 1.68 2.39s-.704 2.07-1.68 2.39v2.14c2.08-.36 3.676-2.252 3.676-4.53m-13.2-14.32c1.878-1.965 4.934-1.965 6.813 0 .1.103.225.154.354.154.13 0 .256-.05.35-.153.197-.2.197-.53 0-.73-2.263-2.37-5.95-2.37-8.22 0-.193.21-.193.54 0 .74.196.21.51.21.707 0m6.08 1.51c.2-.2.2-.53 0-.73-1.47-1.54-3.87-1.54-5.34 0-.19.21-.19.54 0 .74.1.1.23.15.36.15.13 0 .26-.05.35-.15 1.09-1.13 2.85-1.13 3.94 0 .2.21.51.21.71 0m-3.9.77c-.19.21-.19.54 0 .74.2.21.51.21.71 0 .14-.14.33-.23.53-.23s.39.09.53.23c.1.11.23.16.35.16.13 0 .26-.05.35-.15.2-.2.2-.53 0-.74-.33-.34-.77-.53-1.23-.53-.46 0-.9.19-1.23.54m-6.76 12.1c-.376 0-.684.32-.684.72 0 .4.308.72.685.72.38 0 .686-.32.686-.71 0-.4-.31-.72-.687-.72zm0 1.04c-.17 0-.31-.15-.31-.33 0-.18.14-.33.31-.33.17 0 .31.14.31.32s-.14.33-.31.33zm12.32-10.23h-6.75v2.08h5.75v15.25H9.374V63.7H7.382v4.258c0 .58.446 1.044.996 1.044h12.497c.55 0 .996-.467.996-1.044V50.62c0-.575-.44-1.042-.99-1.042"/><path d="M9.374 62.834h.8v.01h2.115c.55 0 .99-.468.99-1.045V51.67h.01v-2.085h-.01v-1.7c0-.575-.45-1.042-1-1.042H4.81c-.55 0-.997.467-.997 1.043V61.8c0 .576.446 1.043.998 1.043h1.65v-.01h2.92zM5.807 48.93h5.487v11.827H5.807V48.93zm8.82 17.348c.445 0 .81-.38.81-.85 0-.467-.365-.847-.81-.847-.447 0-.81.38-.81.85s.363.85.81.85zm0-1.043c.102 0 .186.087.186.194 0 .1-.085.19-.187.19-.103 0-.186-.09-.186-.2 0-.11.083-.2.186-.2z"/></g><g fill="#fff"><path d="M28.687 96.933h-.4c-.152-.626-.387-1.22-.702-1.775l.284-.296c.19-.205.19-.534 0-.738l-1.59-1.66c-.1-.098-.22-.154-.36-.154-.13 0-.26.056-.35.154l-.28.296c-.53-.33-1.1-.576-1.7-.737v-.418c0-.288-.23-.52-.5-.52h-.41v1.653c.07.11.18.19.31.216.74.147 1.44.45 2.07.9.19.142.46.115.63-.06l.21-.224.88.923-.21.223c-.17.177-.2.454-.06.663.43.65.72 1.38.86 2.17.04.24.25.42.49.42h.3v1.3h-.3c-.24 0-.45.18-.49.42-.14.78-.43 1.51-.86 2.17-.14.2-.11.48.06.66l.21.22-.88.92-.22-.23c-.17-.18-.44-.2-.64-.06-.63.45-1.33.75-2.08.9-.14.02-.25.11-.32.21v1.65h.4c.273 0 .5-.24.5-.52v-.42c.593-.16 1.162-.41 1.692-.74l.284.29c.09.092.22.15.35.15.13 0 .26-.058.35-.15l1.584-1.66c.193-.21.193-.54 0-.74l-.286-.3c.317-.557.55-1.15.704-1.777h.4c.28 0 .5-.235.5-.52V97.4c0-.29-.22-.52-.5-.52m-2.32 1.79c0-2.28-1.59-4.174-3.67-4.53v2.14c.975.316 1.68 1.27 1.68 2.39s-.704 2.07-1.68 2.39v2.14c2.08-.36 3.676-2.252 3.676-4.53m-13.2-14.32c1.878-1.965 4.934-1.965 6.813 0 .1.103.225.154.354.154.13 0 .256-.05.35-.153.197-.2.197-.53 0-.73-2.263-2.37-5.95-2.37-8.22 0-.193.21-.193.54 0 .74.196.21.51.21.707 0m6.08 1.51c.2-.2.2-.53 0-.73-1.47-1.54-3.87-1.54-5.34 0-.19.21-.19.54 0 .74.1.1.23.15.36.15.13 0 .26-.05.35-.15 1.09-1.13 2.85-1.13 3.94 0 .2.21.51.21.71 0m-3.9.77c-.19.21-.19.54 0 .74.2.21.51.21.71 0 .14-.14.33-.23.53-.23s.39.09.53.23c.1.11.23.16.35.16.13 0 .26-.05.35-.15.2-.2.2-.53 0-.74-.33-.34-.77-.53-1.23-.53-.46 0-.9.19-1.23.54m-6.76 12.1c-.376 0-.684.32-.684.72 0 .4.308.72.685.72.38 0 .686-.32.686-.71 0-.4-.31-.72-.687-.72zm0 1.04c-.17 0-.31-.15-.31-.33 0-.18.14-.33.31-.33.17 0 .31.14.31.32s-.14.33-.31.33zm12.32-10.23h-6.75v2.08h5.75v15.25H9.374v-3.21H7.382v4.26c0 .58.446 1.05.996 1.05h12.497c.55 0 .996-.47.996-1.05V90.62c0-.574-.44-1.04-.99-1.04"/><path d="M9.374 102.834h.8v.01h2.115c.55 0 .99-.468.99-1.045V91.67h.01v-2.085h-.01v-1.7c0-.575-.45-1.042-1-1.042H4.81c-.55 0-.997.467-.997 1.043V101.8c0 .576.446 1.043.998 1.043h1.65v-.01h2.92zM5.807 88.93h5.487v11.827H5.807V88.93zm8.82 17.348c.445 0 .81-.38.81-.85 0-.467-.365-.847-.81-.847-.447 0-.81.38-.81.85s.363.85.81.85zm0-1.043c.102 0 .186.087.186.194 0 .1-.085.19-.187.19-.103 0-.186-.09-.186-.2 0-.11.083-.2.186-.2z"/></g><g fill="#206FAC"><path d="M28.687 136.933h-.4c-.152-.626-.387-1.22-.702-1.775l.284-.296c.19-.205.19-.534 0-.738l-1.59-1.66c-.1-.098-.22-.154-.36-.154-.13 0-.26.056-.35.154l-.28.296c-.53-.33-1.1-.576-1.7-.737v-.418c0-.288-.23-.52-.5-.52h-.41v1.653c.07.11.18.19.31.216.74.147 1.44.45 2.07.9.19.142.46.115.63-.06l.21-.224.88.923-.21.223c-.17.177-.2.454-.06.663.43.65.72 1.38.86 2.17.04.24.25.42.49.42h.3v1.3h-.3c-.24 0-.45.18-.49.42-.14.78-.43 1.51-.86 2.17-.14.2-.11.48.06.66l.21.22-.88.92-.22-.23c-.17-.18-.44-.2-.64-.06-.63.45-1.33.75-2.08.9-.14.02-.25.11-.32.21v1.65h.4c.273 0 .5-.24.5-.52v-.42c.593-.16 1.162-.41 1.692-.74l.284.29c.09.092.22.15.35.15.13 0 .26-.058.35-.15l1.584-1.66c.193-.21.193-.54 0-.74l-.286-.3c.317-.557.55-1.15.704-1.777h.4c.28 0 .5-.235.5-.52v-2.35c0-.29-.22-.52-.5-.52m-2.32 1.79c0-2.28-1.59-4.175-3.67-4.53v2.14c.975.315 1.68 1.27 1.68 2.39s-.704 2.07-1.68 2.39v2.14c2.08-.36 3.676-2.253 3.676-4.53m-13.2-14.32c1.878-1.966 4.934-1.966 6.813 0 .1.102.225.153.354.153.13 0 .256-.05.35-.153.197-.2.197-.53 0-.73-2.263-2.37-5.95-2.37-8.22 0-.193.21-.193.54 0 .74.196.21.51.21.707 0m6.08 1.51c.2-.2.2-.53 0-.73-1.47-1.54-3.87-1.54-5.34 0-.19.21-.19.54 0 .74.1.1.23.15.36.15.13 0 .26-.05.35-.15 1.09-1.13 2.85-1.13 3.94 0 .2.21.51.21.71 0m-3.9.77c-.19.21-.19.54 0 .74.2.21.51.21.71 0 .14-.14.33-.23.53-.23s.39.09.53.23c.1.11.23.16.35.16.13 0 .26-.05.35-.15.2-.2.2-.53 0-.74-.33-.34-.77-.53-1.23-.53-.46 0-.9.19-1.23.54M8.59 138.8c-.37 0-.68.32-.68.715 0 .4.31.72.69.72.38 0 .685-.32.685-.713 0-.4-.306-.72-.684-.72zm0 1.04c-.17 0-.31-.147-.31-.327 0-.18.14-.33.31-.33.17 0 .31.14.31.32s-.14.33-.31.33zm12.32-10.22h-6.75v2.084h5.75v15.25H9.38v-3.213H7.39V148c0 .58.44 1.05.99 1.05h12.496c.55 0 .996-.464.996-1.04v-17.33c0-.573-.44-1.04-.99-1.04"/><path d="M9.374 142.834h.8v.01h2.115c.55 0 .99-.468.99-1.045v-10.13h.01v-2.09h-.01v-1.7c0-.58-.45-1.04-1-1.04H4.81c-.55 0-.997.46-.997 1.04v13.92c0 .57.446 1.04.998 1.04h1.65v-.01h2.92zM5.807 128.93h5.487v11.827H5.807V128.93zm8.82 17.348c.445 0 .81-.38.81-.85 0-.467-.365-.847-.81-.847-.447 0-.81.38-.81.85s.363.85.81.85zm0-1.043c.102 0 .186.087.186.194 0 .1-.085.19-.187.19-.103 0-.186-.09-.186-.2 0-.11.083-.2.186-.2z"/></g></g></svg>