<svg width="32" height="232" viewBox="0 0 32 232" xmlns="http://www.w3.org/2000/svg"><g fill="none"><g fill="#3B444F"><path d="M20.707 11.87c-1.856 0-3.563.642-4.91 1.71-.48.383-.915.82-1.295 1.302-1.037 1.32-1.656 2.975-1.656 4.77 0 1.578.478 3.047 1.296 4.274.506-.392.94-.87 1.28-1.414-.426-.765-.685-1.63-.733-2.553l-.01-.31v-.31c.06-1.17.46-2.25 1.11-3.15.36-.51.8-.95 1.29-1.32.62-.46 1.33-.81 2.11-1.01.19-.05.39-.09.59-.12.29-.05.6-.07.91-.07.31 0 .62.02.91.07.2.03.39.07.59.12l.23.06.45.15.43.19c1.92.92 3.28 2.83 3.39 5.06l.01.3-.01.3c-.12 2.23-1.47 4.14-3.4 5.06l-.44.19-.45.15-.238.06c-.19.05-.39.09-.59.12-.298.04-.606.07-.917.07-.31 0-.615-.03-.913-.07-.2-.03-.393-.07-.59-.12-.55-.14-1.06-.36-1.54-.64-.38.49-.804.95-1.28 1.35 1.24.81 2.73 1.29 4.328 1.29 4.337 0 7.864-3.49 7.864-7.78s-3.53-7.78-7.867-7.78"/><path d="M17.098 24.43c.135-.173.263-.35.384-.533.456-.694.802-1.465 1.015-2.29l.007-.03.075-.317.01-.07v-.033l.05-.28.01-.05v-.067c.05-.36.08-.73.08-1.11 0-1.56-.47-3.02-1.28-4.24-.51.38-.95.85-1.3 1.39.46.84.73 1.812.73 2.85 0 .3-.03.61-.07.9l-.01.01-.05.272-.01.03-.07.285c-.12.475-.31.926-.54 1.35-.12.21-.24.412-.38.606-.36.503-.8.947-1.3 1.317-.18.13-.36.254-.56.365-.53.31-1.11.54-1.73.68v-.004l-.11.03-.03.01c-.39.08-.79.12-1.2.12-3.32 0-6.03-2.68-6.03-5.97s2.71-5.96 6.03-5.96c1.12 0 2.17.3 3.068.83.38-.49.813-.94 1.294-1.34-.893-.59-1.92-1.01-3.02-1.19L15.4 9.7l.05-.043.01-.01.05-.057.005-.01.04-.068v-.006l.025-.075h.002l.008-.05v-.03l.002-.01-.008-.08-.005-.01-.03-.07-.01-.01-.04-.06-.01-.01-.04-.05-.01-.01L13.8 7.4c-.09-.082-.206-.13-.33-.13h-2.53l-.128-.014-.126.01H8.2c-.12 0-.238.05-.325.135L6.25 9.02l-.01.012-.04.046-.007.01-.036.066-.007.015-.023.07v.01l-.01.08v.04l.01.05v.01l.024.07h.01l.04.07.01.01.05.06.01.01.05.04L9.5 12c-3.675.65-6.475 3.835-6.475 7.66 0 4.29 3.526 7.782 7.862 7.782.456 0 .902-.04 1.336-.115v-.004l.04-.003.07-.008.1-.022.08-.016.318-.072.04-.008c.87-.22 1.67-.582 2.39-1.057.19-.127.38-.26.55-.4.49-.383.92-.82 1.3-1.302zm-6.262-16.1l.57.547h-1.14l.57-.546zm.846 1.455l-.846 1.605-.846-1.605h1.692zm.424 1.16l.61-1.16h1l-1.61 1.16zm1.197-2.795l.727.727h-1.312l-.04-.044-.713-.683h1.338zm-4.9 0h1.302l-.714.683-.03.044H7.68l.725-.727zM7.99 9.785h.965l.588 1.116L7.99 9.79z"/></g><g fill="#67747C"><path d="M20.707 50.87c-1.856 0-3.563.642-4.91 1.71-.48.383-.915.82-1.295 1.302-1.037 1.32-1.656 2.975-1.656 4.77 0 1.578.478 3.047 1.296 4.274.506-.392.94-.87 1.28-1.414-.426-.765-.685-1.63-.733-2.553l-.01-.31v-.31c.06-1.17.46-2.25 1.11-3.15.36-.51.8-.95 1.29-1.32.62-.46 1.33-.81 2.11-1.01.19-.05.39-.09.59-.12.29-.05.6-.07.91-.07.31 0 .62.02.91.07.2.03.39.07.59.12l.23.06.45.15.43.19c1.92.92 3.28 2.83 3.39 5.06l.01.3-.01.3c-.12 2.23-1.47 4.14-3.4 5.06l-.44.19-.45.15-.238.06c-.19.05-.39.09-.59.12-.298.04-.606.07-.917.07-.31 0-.615-.03-.913-.07-.2-.03-.393-.07-.59-.12-.55-.14-1.06-.36-1.54-.64-.38.49-.804.95-1.28 1.35 1.24.81 2.73 1.29 4.328 1.29 4.337 0 7.864-3.49 7.864-7.78s-3.53-7.78-7.867-7.78"/><path d="M17.098 63.43c.135-.173.263-.35.384-.533.456-.694.802-1.465 1.015-2.29l.007-.03.075-.317.01-.07v-.033l.05-.28.01-.05v-.067c.05-.36.08-.73.08-1.11 0-1.56-.47-3.02-1.28-4.24-.51.38-.95.85-1.3 1.39.46.84.73 1.812.73 2.85 0 .3-.03.61-.07.9l-.01.01-.05.272-.01.03-.07.285c-.12.475-.31.926-.54 1.35-.12.21-.24.412-.38.606-.36.503-.8.947-1.3 1.317-.18.13-.36.254-.56.365-.53.31-1.11.54-1.73.68v-.004l-.11.03-.03.01c-.39.08-.79.12-1.2.12-3.32 0-6.03-2.68-6.03-5.97s2.71-5.96 6.03-5.96c1.12 0 2.17.3 3.068.83.38-.49.813-.94 1.294-1.34-.893-.59-1.92-1.01-3.02-1.19l3.177-2.28.05-.05.01-.01.05-.05.01-.01.04-.07.022-.07.005-.01.01-.05v-.04l-.01-.08-.01-.01-.02-.07-.01-.01-.036-.07-.01-.01-.04-.05-.01-.01-1.634-1.64c-.09-.083-.21-.132-.33-.132H10.9l-.13-.01-.126.01H8.2c-.12 0-.24.05-.326.136L6.25 48.01l-.01.013-.04.044-.005.01-.036.066-.01.016-.02.07v.01l-.01.08v.04l.01.05v.01l.02.07.04.07.05.06.01.01.05.04 3.19 2.3c-3.68.65-6.48 3.83-6.48 7.66 0 4.29 3.53 7.78 7.86 7.78.45 0 .9-.04 1.33-.12h.04l.07-.01.1-.02.08-.02.31-.07.03-.01c.862-.22 1.67-.58 2.39-1.06.19-.13.372-.26.55-.4.48-.39.92-.82 1.3-1.31zm-6.262-16.1l.57.547h-1.14l.57-.546zm.846 1.455l-.846 1.605-.846-1.605h1.692zm.424 1.16l.61-1.16h1l-1.61 1.16zm1.197-2.795l.727.727h-1.312l-.04-.044-.713-.683h1.338zm-4.9 0h1.302l-.714.683-.03.044H7.68l.725-.727zm-.413 1.635h.965l.588 1.116-1.553-1.11z"/></g><g fill="#fff"><path d="M20.707 90.87c-1.856 0-3.563.642-4.91 1.71-.48.383-.915.82-1.295 1.302-1.037 1.32-1.656 2.975-1.656 4.77 0 1.578.478 3.047 1.296 4.274.506-.392.94-.87 1.28-1.414-.426-.765-.685-1.63-.733-2.553l-.01-.31v-.31c.06-1.17.46-2.25 1.11-3.15.36-.51.8-.95 1.29-1.32.62-.46 1.33-.81 2.11-1.01.19-.05.39-.09.59-.12.29-.05.6-.07.91-.07.31 0 .62.02.91.07.2.03.39.07.59.12l.23.06.45.15.43.19c1.92.92 3.28 2.83 3.39 5.06l.01.3-.01.3c-.12 2.23-1.47 4.14-3.4 5.06l-.44.19-.45.15-.238.06c-.19.05-.39.09-.59.12-.298.04-.606.07-.917.07-.31 0-.615-.03-.913-.07-.2-.03-.393-.07-.59-.12-.55-.14-1.06-.36-1.54-.64-.38.49-.804.95-1.28 1.35 1.24.81 2.73 1.29 4.328 1.29 4.337 0 7.864-3.49 7.864-7.78s-3.53-7.78-7.867-7.78"/><path d="M17.098 103.43c.135-.173.263-.35.384-.533.456-.694.802-1.465 1.015-2.29l.007-.03.075-.317.01-.07v-.033l.05-.28.01-.05v-.067c.05-.36.08-.73.08-1.11 0-1.56-.47-3.02-1.28-4.24-.51.38-.95.85-1.3 1.39.46.84.73 1.812.73 2.85 0 .3-.03.61-.07.9l-.01.01-.05.272-.01.03-.07.285c-.12.475-.31.926-.54 1.35-.12.21-.24.412-.38.606-.36.503-.8.947-1.3 1.317-.18.13-.36.254-.56.365-.53.31-1.11.54-1.73.68v-.004l-.11.03-.03.01c-.39.08-.79.12-1.2.12-3.32 0-6.03-2.68-6.03-5.97s2.71-5.96 6.03-5.96c1.12 0 2.17.3 3.068.83.38-.49.813-.94 1.294-1.34-.893-.59-1.92-1.01-3.02-1.19l3.177-2.28.05-.05.01-.01.05-.05.01-.01.04-.07.022-.07.005-.01.01-.05v-.04l-.01-.08-.01-.01-.02-.07-.01-.01-.036-.07-.01-.01-.04-.05-.01-.01-1.634-1.64c-.09-.083-.21-.132-.33-.132H10.9l-.13-.01-.126.01H8.2c-.12 0-.24.05-.326.136L6.25 88.01l-.01.013-.04.044-.005.01-.036.066-.01.016-.02.07v.01l-.01.08v.04l.01.05v.01l.02.07.04.07.05.06.01.01.05.04 3.19 2.3c-3.68.65-6.48 3.83-6.48 7.66 0 4.29 3.53 7.78 7.86 7.78.45 0 .9-.04 1.33-.12v-.01h.04l.07-.01.1-.02.08-.02.31-.07.03-.01c.862-.22 1.67-.58 2.39-1.06.19-.13.372-.26.55-.4.48-.385.92-.82 1.3-1.304zm-6.262-16.1l.57.547h-1.14l.57-.546zm.846 1.455l-.846 1.605-.846-1.605h1.692zm.424 1.16l.61-1.16h1l-1.61 1.16zm1.197-2.795l.727.727h-1.312l-.04-.044-.713-.683h1.338zm-4.9 0h1.302l-.714.683-.03.044H7.68l.725-.727zm-.413 1.635h.965l.588 1.116-1.553-1.11z"/></g><g fill="#206FAC"><path d="M20.707 130.87c-1.856 0-3.563.642-4.91 1.71-.48.383-.915.82-1.295 1.302-1.037 1.32-1.656 2.975-1.656 4.77 0 1.578.478 3.047 1.296 4.274.506-.392.94-.87 1.28-1.414-.426-.765-.685-1.63-.733-2.553l-.01-.31v-.31c.06-1.17.46-2.25 1.11-3.15.36-.51.8-.95 1.29-1.32.62-.46 1.33-.81 2.11-1.01.19-.05.39-.09.59-.12.29-.05.6-.07.91-.07.31 0 .62.02.91.07.2.03.39.07.59.12l.23.06.45.15.43.19c1.92.92 3.28 2.83 3.39 5.06l.01.3-.01.3c-.12 2.23-1.47 4.14-3.4 5.06l-.44.19-.45.15-.238.06c-.19.05-.39.09-.59.12-.298.04-.606.07-.917.07-.31 0-.615-.03-.913-.07-.2-.03-.393-.07-.59-.12-.55-.14-1.06-.36-1.54-.64-.38.49-.804.95-1.28 1.35 1.24.81 2.73 1.29 4.328 1.29 4.337 0 7.864-3.49 7.864-7.78s-3.53-7.79-7.866-7.79"/><path d="M17.098 143.43c.135-.173.263-.35.384-.533.456-.694.802-1.465 1.015-2.29l.007-.03.075-.317.01-.07v-.033l.05-.28.01-.05v-.068c.05-.36.08-.73.08-1.11 0-1.56-.47-3.02-1.28-4.24-.51.38-.95.85-1.3 1.39.46.84.73 1.81.73 2.85 0 .3-.03.61-.07.9l-.01.01-.05.27-.01.03-.07.28c-.12.47-.31.92-.54 1.35-.12.21-.24.41-.38.6-.36.5-.8.94-1.3 1.31-.18.13-.36.25-.56.36-.53.31-1.11.54-1.73.68v-.01l-.11.03-.03.01c-.39.08-.79.12-1.2.12-3.32 0-6.03-2.68-6.03-5.97s2.7-5.97 6.027-5.97c1.12 0 2.17.3 3.067.83.38-.49.82-.94 1.3-1.34-.898-.6-1.92-1.01-3.026-1.2l3.18-2.29.05-.05.01-.01.05-.055.01-.01.04-.07.025-.075v-.004l.01-.05v-.05l-.01-.08-.005-.01-.024-.07-.01-.01-.03-.062-.01-.01-.04-.04-.01-.018-1.63-1.64c-.088-.08-.205-.13-.328-.13h-2.53l-.13-.014-.126.01H8.2c-.12 0-.24.05-.326.14L6.244 128l-.01.01-.04.044-.007.01-.035.07-.008.02-.025.07v.015l-.01.08v.04l.01.05v.01l.02.07v.01l.03.07.01.01.04.06.01.01.05.04 3.19 2.3c-3.67.66-6.47 3.85-6.47 7.67 0 4.29 3.52 7.78 7.86 7.78.45 0 .9-.04 1.33-.12v-.01l.04-.01.07-.006.1-.02.08-.01.31-.07.04-.01c.86-.22 1.67-.58 2.39-1.05.19-.13.37-.26.55-.4.48-.39.92-.82 1.3-1.31zm-6.262-16.1l.57.547h-1.14l.57-.546zm.846 1.455l-.846 1.605-.846-1.605h1.692zm.424 1.16l.61-1.16h1l-1.61 1.16zm1.197-2.795l.727.727h-1.312l-.04-.044-.713-.683h1.338zm-4.9 0h1.302l-.714.683-.03.044H7.68l.725-.727zm-.413 1.635h.965l.588 1.116-1.553-1.11z"/></g></g></svg>