<svg width="32" height="232" viewBox="0 0 32 232" xmlns="http://www.w3.org/2000/svg"><g fill="none"><path d="M29.708 23.85c-.555 0-.854.156-1.095.28-.187.097-.3.154-.586.154s-.4-.057-.586-.154c-.24-.124-.54-.28-1.09-.28s-.85.156-1.09.28c-.18.097-.3.154-.58.154s-.4-.057-.58-.154c-.17-.092-.38-.195-.69-.247.51-2.186 1.19-4.328 1.68-5.787l.78-2.184c.1-.277.09-.58-.04-.85-.12-.264-.35-.47-.63-.566l-.15-.054v-1.96c0-.238-.15-.45-.37-.525l-1.08-.36.02-.13V9.73c0-.24-.15-.455-.38-.528l-5.65-1.814-.46-2.058 1.83-.506c.24-.065.41-.285.41-.534V2.766c0-.18-.09-.35-.24-.453-.14-.104-.33-.128-.5-.067l-2.35.692-2.28-.69c-.17-.063-.36-.04-.51.063-.15.11-.24.28-.24.46v1.52c0 .25.17.47.4.54l1.83.52L15 7.4 9.35 9.22c-.23.075-.39.29-.39.53v1.74l.015.13-1.077.36c-.227.074-.38.287-.38.525v1.96l-.148.055c-.28.095-.505.3-.63.565-.128.27-.143.57-.045.85l.78 2.183c.494 1.46 1.17 3.6 1.68 5.786-.31.05-.518.15-.69.243-.19.097-.3.154-.587.154s-.4-.06-.583-.15c-.24-.12-.54-.28-1.093-.28s-.854.16-1.095.28c-.19.1-.3.16-.582.16s-.4-.05-.583-.15c-.24-.12-.54-.28-1.096-.28-.303 0-.55.25-.55.56 0 .31.25.56.554.56.286 0 .4.06.586.16.24.13.54.28 1.095.28.56 0 .86-.15 1.1-.28.19-.09.3-.15.59-.15s.4.06.59.16c.24.128.54.28 1.1.28s.86-.16 1.1-.28c.19-.094.3-.152.59-.152h.02c.21.196.48.314.77.314l.12-.006c.2.07.43.13.77.13.56 0 .86-.16 1.1-.285.19-.1.3-.154.59-.154s.4.058.587.155c.24.12.54.28 1.09.28s.85-.16 1.09-.28c.185-.1.3-.16.58-.16s.4.056.587.153c.24.125.54.28 1.094.28.55 0 .85-.16 1.09-.28.185-.1.3-.158.583-.158s.4.054.59.15c.24.127.54.284 1.09.284.34 0 .58-.06.77-.13.333.04.655-.08.89-.304.286 0 .4.054.587.15.24.127.54.284 1.09.284s.856-.156 1.096-.28c.19-.095.3-.15.585-.15s.4.06.587.155c.24.123.54.28 1.096.28s.854-.157 1.093-.28c.19-.1.3-.157.585-.157.306 0 .555-.25.555-.56 0-.31-.25-.558-.56-.558zM10.05 10.134l4.648-1.493 1.223-.39.35-.11.35.11 1.23.4 4.65 1.49v1.1l-4.4-1.46-1.22-.41-.38-.13-.2-.02-.2.03-.39.13-1.23.41-4.4 1.47v-1.1zm6.215-3.123l-.07.01.07-.31.07.32h-.07zM8.61 12.89l5.786-1.93 1.87-.623 1.87.623 1.542.515 4.243 1.417v1.166l-7.1-2.517v-.13c0-.08-.02-.17-.06-.24-.09-.18-.27-.31-.49-.31-.21 0-.4.13-.49.31-.03.08-.06.16-.06.25v.13l-7.11 2.51v-1.17zm5.7-9.01v-.31l1.726.48c.124.045.263.045.388 0l1.796-.487v.307l-1.926.53-.054.02-1.93-.548zm6.473 20.29l-.064-.033c-.24-.123-.54-.28-1.1-.28s-.86.157-1.1.28l-.07.033c-.16.08-.27.122-.52.122s-.37-.044-.52-.12l-.07-.035c-.24-.123-.54-.28-1.1-.28s-.86.157-1.1.28l-.07.034c-.15.08-.27.12-.52.12s-.37-.04-.52-.12l-.06-.04c-.24-.12-.54-.28-1.1-.28s-.86.16-1.1.28l-.07.04c-.1.05-.19.09-.3.11v-.1l-.02-.24c-.54-2.46-1.317-4.92-1.867-6.55l-.004-.01-.41-1.15 4.58-1.62 1.99-.71v5.39c0 .31.25.56.556.56.31 0 .56-.25.56-.56V13.9l1.99.71 4.574 1.62-.41 1.15-.004.017c-.55 1.63-1.32 4.087-1.868 6.55l-.03.24v.11c-.12-.02-.21-.06-.31-.11zm2.204 5.344c-.555 0-.854.154-1.095.278-.187.098-.3.156-.586.156-.285 0-.398-.057-.585-.155-.24-.124-.54-.28-1.09-.28s-.85.155-1.09.28c-.18.097-.3.155-.58.155-.28 0-.4-.057-.58-.155-.24-.125-.54-.28-1.09-.28s-.85.155-1.09.28c-.19.097-.3.155-.58.155s-.4-.057-.58-.155c-.24-.127-.54-.28-1.09-.28-.3 0-.55.25-.55.553 0 .306.25.554.56.554.285 0 .398.06.586.156.24.127.54.28 1.09.28s.855-.153 1.096-.28c.19-.097.3-.156.587-.156s.4.06.59.157c.24.127.54.28 1.093.28s.856-.153 1.097-.28c.19-.097.3-.156.588-.156s.4.06.59.16c.24.13.54.28 1.097.28s.857-.15 1.098-.28c.19-.09.3-.15.587-.15.304 0 .55-.25.55-.55 0-.3-.246-.55-.553-.55M13.5 27.9c.24.125.54.28 1.093.28.556 0 .856-.155 1.097-.28.186-.096.3-.154.585-.154s.397.06.584.155c.24.13.54.28 1.09.28s.85-.15 1.09-.28c.18-.09.3-.15.58-.15.3 0 .55-.25.55-.55 0-.3-.25-.55-.56-.55-.56 0-.86.16-1.1.28-.19.1-.3.16-.59.16s-.4-.06-.59-.15c-.24-.12-.54-.28-1.1-.28s-.86.16-1.1.28c-.19.1-.3.16-.59.16s-.4-.05-.59-.15c-.24-.13-.54-.28-1.098-.28s-.854.15-1.094.28c-.19.1-.3.15-.587.15s-.396-.06-.583-.15c-.24-.12-.54-.28-1.098-.28s-.86.16-1.1.28c-.19.1-.3.16-.59.16s-.396-.06-.58-.15c-.25-.12-.54-.28-1.1-.28-.31 0-.56.25-.56.56 0 .307.243.557.55.557.283 0 .4.06.584.155.24.124.54.28 1.09.28.555 0 .853-.156 1.095-.28.182-.1.3-.155.58-.155s.393.06.58.152c.24.122.54.28 1.093.28s.85-.158 1.09-.28c.19-.1.3-.157.586-.157s.4.06.586.16m8.2-21.816c.324-.273.79-.276 1.12-.034l.01.02c.09.192.285.32.5.32h.07c.22 0 .41-.128.506-.32l.01-.02c.33-.25.796-.24 1.12.03.236.2.586.17.78-.07.2-.234.17-.584-.07-.78-.69-.58-1.654-.614-2.38-.154-.72-.46-1.69-.423-2.38.157-.23.196-.26.546-.064.78.2.234.55.266.78.067m2.29-2.29c.33-.27.79-.27 1.12-.03l.01.02c.09.198.29.32.506.32h.07c.212 0 .41-.122.5-.32l.01-.022c.33-.24.792-.24 1.12.04.23.195.58.165.78-.07.192-.237.16-.585-.07-.78-.69-.58-1.657-.616-2.38-.155-.72-.46-1.688-.43-2.378.15-.232.197-.264.545-.07.78.2.236.55.266.78.07" fill="#3B444F"/><path d="M29.708 63.85c-.555 0-.854.156-1.095.28-.187.097-.3.154-.586.154s-.4-.057-.586-.154c-.24-.124-.54-.28-1.09-.28s-.85.156-1.09.28c-.18.097-.3.154-.58.154s-.4-.057-.58-.154c-.17-.092-.38-.195-.69-.247.51-2.186 1.19-4.328 1.68-5.787l.78-2.184c.1-.277.09-.58-.04-.85-.12-.264-.35-.47-.63-.566l-.15-.054v-1.96c0-.238-.15-.45-.37-.525l-1.08-.36.02-.13V49.73c0-.24-.15-.455-.38-.528l-5.65-1.814-.46-2.058 1.83-.506c.24-.065.41-.285.41-.534v-1.524c0-.18-.09-.35-.24-.453-.14-.104-.33-.128-.5-.067l-2.35.692-2.28-.69c-.17-.063-.36-.04-.51.063-.15.11-.24.28-.24.46v1.53c0 .25.17.47.41.54l1.83.52-.46 2.05-5.65 1.82c-.23.08-.386.29-.386.53v1.74l.017.13-1.07.36c-.224.08-.38.29-.38.53v1.96l-.145.05c-.28.09-.51.3-.63.56-.13.27-.15.57-.05.85l.78 2.18c.494 1.46 1.17 3.6 1.68 5.79-.31.06-.52.16-.69.25-.19.1-.3.16-.59.16s-.394-.06-.582-.15c-.24-.12-.54-.28-1.093-.28s-.85.16-1.095.28c-.19.1-.3.16-.59.16s-.4-.06-.585-.16c-.247-.123-.54-.28-1.1-.28-.31 0-.557.25-.557.55 0 .307.25.55.557.55.29 0 .4.06.59.158.24.128.54.285 1.1.285s.86-.16 1.1-.284c.186-.096.3-.154.583-.154s.396.06.584.15c.24.127.54.28 1.093.28.55 0 .85-.16 1.09-.28.188-.094.3-.152.586-.152h.02c.21.196.48.314.77.314l.12-.01c.2.07.43.13.77.13.558 0 .857-.16 1.097-.287.187-.095.3-.153.585-.153s.4.056.588.153c.24.13.54.286 1.098.286s.86-.16 1.1-.285c.19-.09.3-.15.58-.15s.4.058.59.15c.24.128.54.28 1.1.28.55 0 .85-.152 1.094-.28.19-.1.3-.152.582-.152s.4.055.585.15c.24.125.54.28 1.098.28.334 0 .575-.06.77-.13.33.04.653-.08.884-.304h.03c.28 0 .393.06.58.155.24.126.54.28 1.094.28.55 0 .85-.154 1.09-.28.19-.096.3-.154.59-.154s.4.06.59.16c.24.126.54.283 1.1.283s.86-.153 1.1-.28c.19-.094.305-.15.59-.15.305 0 .554-.25.554-.558 0-.306-.25-.554-.555-.554zM10.05 50.134l4.648-1.493 1.223-.39.35-.11.35.11 1.23.4 4.65 1.49v1.1l-4.4-1.47-1.22-.41-.38-.13-.2-.02-.2.03-.38.13-1.22.41-4.4 1.47v-1.1zm6.215-3.123l-.07.01.07-.31.07.32h-.07zM8.61 52.89l5.786-1.93 1.87-.623 1.87.623 1.542.515 4.243 1.417v1.166l-7.1-2.517v-.13c0-.08-.02-.17-.06-.24-.09-.18-.27-.31-.49-.31-.21 0-.4.13-.49.31-.03.08-.06.16-.06.25v.13l-7.11 2.51v-1.17zm5.7-9.01v-.305l1.726.48c.124.046.263.046.388 0l1.796-.486v.3l-1.926.53-.054.02-1.93-.55zm6.473 20.29l-.064-.033c-.24-.123-.54-.28-1.1-.28s-.86.157-1.1.28l-.07.033c-.16.08-.27.122-.52.122s-.37-.044-.52-.12l-.07-.035c-.24-.123-.54-.28-1.1-.28s-.86.157-1.1.28l-.07.034c-.15.08-.27.12-.52.12s-.37-.04-.52-.12l-.06-.04c-.24-.12-.54-.28-1.1-.28s-.86.16-1.1.28l-.07.04c-.1.05-.19.09-.3.11v-.1l-.02-.24c-.54-2.46-1.317-4.92-1.867-6.55l-.004-.01-.41-1.15 4.58-1.62 1.99-.71v5.39c0 .31.25.56.556.56.31 0 .56-.25.56-.56V53.9l1.99.71 4.574 1.62-.41 1.15-.004.017c-.55 1.63-1.32 4.087-1.868 6.55l-.03.24v.11c-.12-.02-.21-.06-.31-.11zm2.204 5.344c-.555 0-.854.154-1.095.278-.187.098-.3.156-.586.156-.285 0-.398-.057-.585-.155-.24-.124-.54-.28-1.09-.28s-.85.155-1.09.28c-.18.097-.3.155-.58.155-.28 0-.4-.057-.58-.155-.24-.125-.54-.28-1.09-.28s-.85.155-1.09.28c-.19.097-.3.155-.58.155s-.4-.057-.58-.155c-.24-.127-.54-.28-1.09-.28-.3 0-.55.25-.55.553 0 .306.25.554.56.554.285 0 .398.06.586.156.24.127.54.28 1.09.28s.855-.153 1.096-.28c.19-.097.3-.156.587-.156s.4.06.59.157c.24.127.54.28 1.093.28s.856-.153 1.097-.28c.19-.097.3-.156.588-.156s.4.06.59.16c.24.13.54.28 1.097.28s.857-.15 1.098-.28c.19-.09.3-.15.587-.15.304 0 .55-.25.55-.55 0-.3-.246-.55-.553-.55M13.5 67.9c.24.125.54.28 1.093.28.556 0 .856-.155 1.097-.28.186-.096.3-.154.585-.154s.397.06.584.155c.24.13.54.28 1.09.28s.85-.15 1.09-.28c.18-.09.3-.15.58-.15.3 0 .55-.25.55-.55 0-.3-.25-.55-.56-.55-.56 0-.86.16-1.1.28-.19.1-.3.16-.59.16s-.4-.06-.59-.15c-.24-.12-.54-.28-1.1-.28s-.86.16-1.1.28c-.19.1-.3.16-.59.16s-.4-.05-.59-.15c-.24-.13-.54-.28-1.098-.28s-.854.15-1.094.28c-.19.1-.3.15-.587.15s-.396-.06-.583-.15c-.24-.12-.54-.28-1.098-.28s-.86.16-1.1.28c-.19.1-.3.16-.59.16s-.396-.06-.58-.15c-.25-.12-.54-.28-1.1-.28-.31 0-.56.25-.56.56 0 .307.243.557.55.557.283 0 .4.06.584.155.24.124.54.28 1.09.28.555 0 .853-.156 1.095-.28.182-.1.3-.155.58-.155s.393.06.58.152c.24.122.54.28 1.093.28s.85-.158 1.09-.28c.19-.1.3-.157.586-.157s.4.06.586.16m8.2-21.82c.324-.274.79-.277 1.12-.035l.01.028c.09.195.29.32.5.32h.07c.22 0 .41-.125.504-.32l.01-.024c.33-.24.793-.24 1.12.036.233.2.583.17.78-.065.2-.23.17-.58-.07-.78-.69-.58-1.66-.61-2.38-.15-.72-.46-1.69-.423-2.38.157-.23.2-.26.55-.067.78.19.237.54.27.78.07m2.29-2.29c.32-.27.79-.272 1.12-.03l.01.025c.09.2.28.32.5.32h.06c.218 0 .41-.12.5-.32l.01-.02c.33-.24.798-.24 1.12.037.24.192.59.162.78-.07.2-.24.17-.588-.06-.78-.69-.58-1.656-.62-2.38-.158-.72-.46-1.69-.424-2.38.156-.24.2-.27.55-.07.78.197.24.546.27.78.07" fill="#67747C"/><path d="M29.708 103.85c-.555 0-.854.156-1.095.28-.187.097-.3.154-.586.154s-.4-.057-.586-.154c-.24-.124-.54-.28-1.09-.28s-.85.156-1.09.28c-.18.097-.3.154-.58.154s-.4-.057-.58-.154c-.17-.092-.38-.195-.69-.247.51-2.186 1.19-4.328 1.68-5.787l.78-2.184c.1-.277.09-.58-.04-.85-.12-.264-.35-.47-.63-.566l-.15-.054v-1.96c0-.238-.15-.45-.37-.525l-1.08-.36.02-.13V89.73c0-.24-.15-.455-.38-.528l-5.65-1.814-.46-2.058 1.83-.506c.24-.065.41-.285.41-.534v-1.524c0-.18-.09-.35-.24-.453-.14-.104-.33-.128-.5-.067l-2.35.692-2.28-.69c-.17-.063-.36-.04-.51.063-.15.11-.24.28-.24.46v1.53c0 .25.17.47.41.54l1.83.52-.46 2.05-5.65 1.82c-.23.08-.386.29-.386.53v1.74l.017.13-1.07.36c-.224.08-.38.29-.38.53v1.96l-.145.05c-.28.09-.51.3-.63.56-.13.27-.15.57-.05.85l.78 2.18c.494 1.46 1.17 3.6 1.68 5.79-.31.06-.52.16-.69.25-.19.1-.3.16-.59.16s-.394-.06-.582-.15c-.24-.12-.54-.28-1.093-.28s-.85.16-1.095.28c-.19.1-.3.16-.59.16s-.4-.06-.585-.16c-.247-.123-.54-.28-1.1-.28-.31 0-.557.25-.557.55 0 .307.25.55.557.55.29 0 .4.06.59.158.24.128.54.285 1.1.285s.86-.16 1.1-.284c.186-.096.3-.154.583-.154s.396.06.584.15c.24.127.54.28 1.093.28.55 0 .85-.16 1.09-.28.188-.094.3-.152.586-.152h.02c.21.196.48.314.77.314l.12-.01c.2.07.43.13.77.13.558 0 .857-.16 1.097-.287.187-.095.3-.153.585-.153s.4.056.588.153c.24.13.54.286 1.098.286s.86-.16 1.1-.285c.19-.09.3-.15.58-.15s.4.058.59.15c.24.128.54.28 1.1.28.55 0 .85-.152 1.094-.28.19-.1.3-.152.582-.152s.4.055.585.15c.24.125.54.28 1.098.28.334 0 .575-.06.77-.13.33.04.653-.08.884-.304h.03c.28 0 .393.06.58.155.24.126.54.28 1.094.28.55 0 .85-.154 1.09-.28.19-.096.3-.154.59-.154s.4.06.59.16c.24.126.54.283 1.1.283s.86-.153 1.1-.28c.19-.094.305-.15.59-.15.305 0 .554-.25.554-.558 0-.306-.25-.554-.555-.554zM10.05 90.134l4.648-1.493 1.223-.39.35-.11.35.11 1.23.4 4.65 1.49v1.1l-4.4-1.47-1.22-.41-.38-.13-.2-.02-.2.03-.38.13-1.22.41-4.4 1.47v-1.1zm6.215-3.123l-.07.01.07-.31.07.32h-.07zM8.61 92.89l5.786-1.93 1.87-.623 1.87.623 1.542.515 4.243 1.417v1.166l-7.1-2.517v-.13c0-.08-.02-.17-.06-.24-.09-.18-.27-.31-.49-.31-.21 0-.4.13-.49.31-.03.08-.06.16-.06.25v.13l-7.11 2.51v-1.17zm5.7-9.01v-.305l1.726.48c.124.046.263.046.388 0l1.796-.486v.3l-1.926.53-.054.02-1.93-.55zm6.473 20.29l-.064-.033c-.24-.123-.54-.28-1.1-.28s-.86.157-1.1.28l-.07.033c-.16.08-.27.122-.52.122s-.37-.044-.52-.12l-.07-.035c-.24-.123-.54-.28-1.1-.28s-.86.157-1.1.28l-.07.034c-.15.08-.27.12-.52.12s-.37-.04-.52-.12l-.06-.04c-.24-.12-.54-.28-1.09-.28-.56 0-.86.16-1.1.28l-.07.04c-.1.05-.19.09-.3.11v-.1l-.03-.24c-.54-2.46-1.32-4.92-1.87-6.55l-.01-.01-.41-1.15 4.58-1.62 1.99-.71v5.39c0 .31.25.56.55.56.305 0 .554-.25.554-.55v-5.4l1.996.71 4.578 1.63-.41 1.15-.01.02c-.55 1.63-1.32 4.08-1.86 6.55l-.03.24.004.1c-.12-.02-.21-.06-.31-.11zm2.204 5.344c-.555 0-.854.154-1.095.278-.187.098-.3.156-.586.156-.285 0-.398-.057-.585-.155-.24-.124-.54-.28-1.09-.28s-.85.155-1.09.28c-.18.097-.3.155-.58.155-.28 0-.4-.057-.58-.155-.24-.125-.54-.28-1.09-.28s-.85.155-1.09.28c-.19.097-.3.155-.58.155s-.4-.057-.58-.155c-.24-.127-.54-.28-1.09-.28-.3 0-.55.25-.55.553 0 .306.25.554.56.554.285 0 .398.06.586.156.24.127.54.28 1.09.28s.855-.153 1.096-.28c.19-.097.3-.156.587-.156s.4.06.59.157c.24.127.54.28 1.093.28s.856-.153 1.097-.28c.19-.097.3-.156.588-.156s.4.06.59.16c.24.13.54.28 1.097.28s.857-.15 1.098-.28c.19-.09.3-.15.587-.15.304 0 .55-.25.55-.55 0-.3-.246-.55-.553-.55m-9.5-1.61c.24.13.54.28 1.09.28.56 0 .86-.15 1.1-.28.19-.09.3-.15.59-.15s.4.06.587.16c.24.13.54.28 1.09.28s.857-.15 1.098-.28c.19-.09.3-.15.59-.15.306 0 .554-.25.554-.55 0-.3-.25-.55-.56-.55-.556 0-.856.16-1.096.28-.19.1-.3.16-.59.16s-.4-.06-.586-.15c-.24-.125-.54-.28-1.095-.28s-.85.155-1.09.28c-.19.097-.3.155-.59.155s-.4-.06-.586-.16c-.24-.127-.54-.28-1.097-.28s-.854.153-1.094.28c-.19.095-.3.153-.586.153s-.397-.06-.584-.156c-.24-.124-.54-.28-1.097-.28s-.856.156-1.097.28c-.19.098-.3.156-.59.156s-.4-.06-.59-.157c-.24-.125-.54-.28-1.1-.28-.3 0-.55.25-.55.555 0 .3.25.55.554.55.286 0 .4.06.587.16.24.13.54.28 1.09.28.56 0 .86-.15 1.1-.28.18-.1.3-.15.58-.15s.396.06.58.158c.24.13.54.28 1.1.28s.85-.15 1.09-.28c.19-.1.3-.15.588-.15s.4.06.588.16m8.2-21.82c.33-.28.79-.28 1.12-.04l.01.024c.095.192.29.32.505.32h.07c.216 0 .41-.128.504-.32l.01-.027c.33-.24.79-.24 1.12.03.23.2.58.17.78-.068.197-.237.166-.587-.07-.78-.69-.58-1.66-.617-2.38-.157-.72-.46-1.69-.425-2.38.155-.232.2-.263.55-.066.78.194.237.545.27.78.07M24 83.83c.323-.274.79-.277 1.12-.036l.01.024c.09.196.284.32.5.32h.067c.216 0 .41-.124.5-.32l.01-.024c.33-.24.796-.24 1.123.036.234.198.584.168.78-.07.197-.233.166-.58-.067-.78-.69-.58-1.658-.612-2.38-.15-.72-.46-1.69-.424-2.38.156-.235.2-.267.547-.07.78.197.238.546.268.78.07" fill="#fff"/><path d="M29.708 143.85c-.555 0-.854.156-1.095.28-.187.097-.3.154-.586.154s-.4-.057-.586-.154c-.24-.124-.54-.28-1.09-.28s-.85.156-1.09.28c-.18.097-.3.154-.58.154s-.4-.057-.58-.154c-.17-.092-.38-.195-.69-.247.51-2.186 1.19-4.328 1.68-5.787l.78-2.184c.1-.277.09-.58-.04-.85-.12-.264-.35-.47-.63-.566l-.15-.054v-1.96c0-.238-.15-.45-.37-.525l-1.08-.36.02-.13v-1.737c0-.24-.15-.455-.38-.528l-5.65-1.814-.46-2.058 1.83-.506c.24-.065.41-.285.41-.534v-1.524c0-.18-.09-.35-.24-.453-.14-.104-.33-.128-.5-.067l-2.35.692-2.28-.69c-.17-.063-.36-.04-.51.063-.15.11-.24.28-.24.46v1.53c0 .25.17.47.41.54l1.83.52-.453 2.05-5.65 1.82c-.23.08-.382.29-.382.53v1.74l.02.13-1.074.36c-.227.08-.38.29-.38.53v1.96l-.15.06c-.28.1-.502.3-.63.57-.13.27-.14.57-.042.85l.78 2.18c.494 1.46 1.17 3.6 1.68 5.79-.31.06-.52.16-.69.25-.19.1-.3.16-.587.16s-.395-.06-.58-.15c-.24-.12-.54-.28-1.096-.28s-.853.16-1.094.28c-.19.1-.3.155-.59.155s-.4-.06-.588-.16c-.24-.124-.54-.28-1.093-.28-.305 0-.55.25-.55.553 0 .3.25.55.555.55.29 0 .4.056.59.15.24.13.54.286 1.097.286.56 0 .86-.16 1.1-.284.19-.096.3-.154.59-.154s.4.06.584.157c.24.124.54.28 1.094.28s.85-.16 1.094-.29c.19-.09.3-.15.588-.15h.02c.205.2.48.316.77.316l.12-.01c.195.07.43.13.767.13.553 0 .852-.157 1.092-.28.185-.098.3-.156.583-.156s.4.058.588.155c.24.13.54.284 1.09.284s.86-.153 1.1-.28c.19-.09.3-.15.587-.15s.4.057.59.15c.24.13.54.28 1.1.28.55 0 .85-.15 1.094-.28.19-.093.3-.15.582-.15s.397.057.584.154c.24.12.54.28 1.096.28.337 0 .578-.06.77-.13.33.032.656-.08.887-.31h.027c.28 0 .393.06.58.154.24.12.54.28 1.09.28.556 0 .856-.16 1.096-.28.19-.1.3-.16.59-.16s.4.06.588.153c.24.127.54.284 1.095.284s.86-.155 1.1-.28c.19-.096.302-.154.59-.154.302 0 .55-.25.55-.556 0-.31-.25-.56-.552-.56zM10.05 130.134l4.648-1.493 1.223-.39.35-.11.35.11 1.23.4 4.65 1.49v1.1l-4.39-1.46-1.22-.41-.38-.13-.2-.02-.2.03-.38.13-1.22.41-4.4 1.47v-1.1zm6.215-3.123l-.07.01.07-.31.07.32h-.07zm-7.655 5.88l5.786-1.93 1.87-.62 1.87.63 1.542.52 4.243 1.42v1.17l-7.1-2.51v-.13c0-.08-.02-.17-.06-.24-.09-.18-.27-.31-.49-.31-.21 0-.4.13-.49.31-.03.07-.06.16-.06.24v.13l-7.1 2.52v-1.17zm5.7-9.01v-.3l1.726.48c.124.05.263.05.388 0l1.796-.48v.31l-1.926.53-.054.02-1.93-.54zm6.473 20.29l-.064-.03c-.24-.12-.54-.28-1.1-.28s-.86.16-1.1.28l-.07.04c-.16.08-.27.13-.52.13s-.37-.04-.52-.12l-.07-.03c-.24-.12-.54-.28-1.1-.28s-.86.16-1.1.28l-.07.04c-.15.08-.27.12-.52.12s-.37-.04-.52-.12l-.06-.04c-.24-.12-.54-.28-1.09-.28-.56 0-.86.16-1.1.28l-.07.04c-.1.05-.19.09-.3.11v-.1l-.03-.23c-.54-2.46-1.32-4.92-1.87-6.55l-.01-.02-.41-1.15 4.58-1.62 1.99-.71v5.39c0 .31.25.55.55.55.305 0 .554-.25.554-.55v-5.39l1.996.708 4.578 1.62-.41 1.15-.01.01c-.55 1.63-1.32 4.088-1.86 6.55l-.03.24.004.11c-.12-.02-.21-.055-.31-.106zm2.204 5.35c-.555 0-.854.16-1.095.28-.187.1-.3.16-.586.16-.285 0-.398-.05-.585-.15-.24-.12-.54-.28-1.09-.28s-.85.16-1.09.28c-.18.1-.3.16-.58.16-.28 0-.4-.06-.58-.15-.24-.12-.54-.28-1.09-.28s-.85.16-1.09.28c-.19.1-.3.16-.58.16s-.4-.05-.58-.15c-.24-.12-.54-.28-1.09-.28-.3 0-.55.25-.55.56 0 .31.25.558.56.558.285 0 .398.06.586.154.24.127.54.28 1.09.28s.855-.153 1.096-.28c.19-.097.3-.156.587-.156s.4.06.59.16c.24.128.54.28 1.093.28s.856-.152 1.097-.28c.19-.096.3-.155.588-.155s.4.06.59.16c.24.13.54.28 1.097.28s.857-.15 1.098-.28c.19-.093.3-.152.587-.152.304 0 .55-.25.55-.558 0-.31-.246-.56-.553-.56m-9.5-1.615c.24.12.54.28 1.09.28.56 0 .86-.16 1.1-.28.19-.1.3-.155.59-.155s.4.06.587.152c.24.13.54.28 1.09.28s.857-.15 1.098-.28c.19-.09.3-.15.59-.15.306 0 .554-.25.554-.553 0-.307-.25-.556-.56-.556-.556 0-.856.156-1.096.28-.19.098-.3.156-.59.156s-.4-.06-.586-.16c-.24-.13-.54-.28-1.095-.28s-.85.15-1.09.28c-.19.096-.3.15-.59.15s-.4-.053-.586-.15c-.24-.125-.54-.28-1.097-.28s-.854.155-1.094.28c-.19.097-.3.155-.586.155s-.397-.06-.584-.156c-.24-.13-.54-.28-1.097-.28s-.856.15-1.097.28c-.19.09-.3.15-.59.15s-.4-.06-.59-.155c-.24-.126-.54-.28-1.1-.28-.3 0-.55.25-.55.554 0 .304.25.554.554.554.286 0 .4.06.587.153.24.12.54.28 1.09.28.56 0 .86-.16 1.1-.28.18-.1.3-.16.58-.16s.396.06.58.156c.24.12.54.28 1.1.28s.85-.16 1.09-.28c.19-.1.3-.16.588-.16s.4.06.588.16m8.2-21.826c.33-.275.79-.28 1.12-.036l.01.02c.095.194.29.32.505.32h.07c.216 0 .41-.126.504-.32l.01-.025c.33-.24.79-.24 1.12.03.23.2.58.17.78-.067.197-.236.166-.586-.07-.78-.69-.58-1.66-.616-2.38-.156-.72-.46-1.69-.425-2.38.155-.232.195-.263.545-.066.78.194.23.545.265.78.066M24 123.8c.323-.27.79-.274 1.12-.033l.01.023c.09.198.284.32.5.32h.067c.216 0 .41-.122.5-.32l.01-.022c.33-.24.796-.24 1.123.038.234.198.584.168.78-.067.197-.24.166-.59-.067-.78-.69-.58-1.658-.62-2.38-.16-.72-.46-1.69-.42-2.38.16-.235.19-.267.54-.07.78.197.23.546.26.78.07" fill="#206FAC"/></g></svg>