<svg width="32" height="232" viewBox="0 0 32 232" xmlns="http://www.w3.org/2000/svg"><g fill="none"><path d="M24.217 19.832l-.558-.218.31-.83.16-.408.05-.193c.71-2.036 1.24-4.022 1.24-5.68C25.42 7.263 20.84 3 15.21 3 9.583 3 5 7.263 5 12.504c0 1.657.527 3.642 1.24 5.68l.05.192.164.406.31.832-.557.218c-.215.084-.32.324-.234.535l.95 2.36c.042.1.122.182.224.226l.166.033.154-.03.56-.217.053.07.493 1.22c.13.32.445.52.778.52.11 0 .21-.02.31-.06l2.08-.82c.21-.08.37-.24.46-.44l.06-.21.83-.32c.22-.09.32-.33.24-.54l-2.28-5.66c-.04-.1-.12-.19-.22-.23-.1-.04-.21-.05-.32 0l-.82.32c-.23-.18-.54-.23-.83-.12l-1.24.48c-.54-1.65-.92-3.21-.92-4.48 0-2.17.96-4.13 2.5-5.55l.05.08c.16.24.43.37.7.37.16 0 .32-.05.46-.14 1.43-.93 3.12-1.43 4.87-1.43s3.44.49 4.87 1.42c.15.09.31.13.46.13.27 0 .54-.13.7-.37l.02-.02c1.51 1.42 2.45 3.36 2.45 5.5 0 1.27-.37 2.83-.92 4.47l-1.24-.49c-.29-.11-.6-.05-.83.12l-.82-.32c-.1-.04-.22-.04-.32.01-.1.04-.18.12-.22.223l-2.28 5.66c-.04.1-.04.214.01.314s.126.176.23.22l.82.32.06.205c.09.2.257.36.46.44l.63.25c-.12.285-.292.535-.51.745-.22.22-.49.394-.78.51-.28.11-.59.175-.9.175l-.05.002-.05-.01H11.7c-.876 0-1.59.7-1.59 1.563s.713 1.57 1.59 1.57h2.524c.23 0 .418-.18.418-.41 0-.1-.038-.19-.1-.26-.076-.09-.19-.145-.32-.145H11.7c-.416 0-.754-.34-.754-.748s.338-.74.754-.74h5.33l.047-.008.048.004c1.296 0 2.46-.76 2.964-1.93v-.02l.67.26c.1.04.2.058.31.058.33 0 .64-.193.77-.52l.49-1.22.05-.075.56.22.15.03c.16 0 .32-.1.39-.26l.95-2.36c.04-.1.04-.21-.01-.31s-.13-.18-.23-.22zm-13.808-2.62l1.97 4.894-.33.128-1.98-4.895.33-.13zM7.55 22.04l-.645-1.595.16-.062c.21.536.427 1.07.64 1.594l-.156.06zm1.13-3.71l1.663 4.13-.523.203-1.664-4.13.523-.203zm14.04 3.647c.212-.524.43-1.058.64-1.594l.16.062-.645 1.593-.158-.062zm-2.118.686l-.523-.204 1.66-4.13.52.2-1.67 4.13zm-.258-5.325l-1.975 4.894-.33-.128 1.97-4.895.33.13z" fill="#373D43"/><path d="M24.217 59.832l-.558-.218.31-.83.16-.408.05-.193c.71-2.036 1.24-4.022 1.24-5.68 0-5.24-4.58-9.503-10.21-9.503C9.58 43 5 47.263 5 52.504c0 1.657.527 3.642 1.24 5.68l.05.192.164.406.31.832-.557.218c-.215.084-.32.324-.234.535l.95 2.36c.042.1.122.182.224.226l.166.033.154-.03.56-.217.053.07.493 1.22c.13.32.445.52.778.52.11 0 .21-.02.31-.06l2.08-.82c.21-.08.37-.24.46-.44l.06-.21.83-.32c.22-.09.32-.33.24-.54l-2.28-5.66c-.04-.1-.12-.19-.22-.23-.1-.04-.21-.05-.32 0l-.82.32c-.23-.18-.54-.23-.83-.12l-1.24.48c-.54-1.65-.92-3.21-.92-4.48 0-2.17.96-4.13 2.5-5.55l.05.08c.16.24.43.37.7.37.16 0 .32-.05.46-.14 1.43-.93 3.12-1.43 4.87-1.43s3.44.49 4.87 1.42c.15.09.31.13.46.13.27 0 .54-.13.7-.37l.02-.03c1.51 1.42 2.45 3.36 2.45 5.5 0 1.27-.37 2.83-.92 4.47l-1.25-.48c-.29-.114-.6-.057-.82.12l-.82-.323c-.1-.04-.22-.04-.32.01-.1.04-.18.126-.22.227l-2.29 5.66c-.04.106-.04.22.008.32s.13.173.23.22l.83.32.06.202c.09.2.256.36.46.44l.63.244c-.12.284-.293.534-.51.744-.22.22-.49.4-.782.52-.28.11-.58.174-.9.174h-.05l-.05-.01H11.7c-.876 0-1.59.7-1.59 1.565 0 .86.713 1.56 1.59 1.56h2.524c.23 0 .418-.18.418-.41 0-.1-.038-.19-.1-.263-.076-.09-.19-.15-.32-.15H11.7c-.416 0-.754-.338-.754-.747s.338-.74.754-.74h5.33l.047-.006h.048c1.296 0 2.46-.76 2.964-1.935v-.01l.67.26c.1.036.2.055.31.055.33 0 .64-.2.77-.52l.49-1.23.05-.08.56.22.15.03c.16 0 .32-.1.39-.26l.95-2.36c.04-.1.04-.214-.01-.314s-.13-.18-.23-.22zm-13.808-2.62l1.97 4.894-.33.128-1.98-4.895.33-.13zM7.55 62.04l-.645-1.595.16-.062c.21.536.427 1.07.64 1.594l-.156.06zm1.13-3.71l1.663 4.13-.523.203-1.664-4.13.523-.203zm14.04 3.647c.212-.524.43-1.058.64-1.594l.16.062-.645 1.593-.158-.062zm-2.118.686l-.523-.204 1.66-4.13.52.2-1.67 4.13zm-.258-5.325l-1.975 4.894-.33-.128 1.97-4.895.33.13z" fill="#67747C"/><path d="M24.217 139.832l-.558-.218.31-.83.16-.408.05-.193c.71-2.036 1.24-4.022 1.24-5.68 0-5.24-4.58-9.503-10.21-9.503C9.58 123 5 127.263 5 132.504c0 1.657.527 3.642 1.24 5.68l.05.192.164.406.31.832-.557.218c-.215.084-.32.324-.234.535l.95 2.36c.042.1.122.182.224.226l.166.033.154-.03.56-.217.053.07.493 1.22c.13.32.445.52.778.52.11 0 .21-.02.31-.06l2.08-.82c.21-.08.37-.24.46-.44l.06-.21.83-.32c.22-.09.32-.33.24-.54l-2.28-5.66c-.04-.1-.12-.19-.22-.23-.1-.04-.21-.05-.32 0l-.82.32c-.23-.18-.54-.23-.83-.12l-1.24.48c-.54-1.65-.92-3.21-.92-4.48 0-2.17.96-4.13 2.5-5.55l.05.08c.16.24.43.37.7.37.16 0 .32-.05.46-.14 1.43-.93 3.12-1.43 4.87-1.43s3.44.49 4.87 1.42c.15.09.31.13.46.13.27 0 .54-.13.7-.37l.02-.03c1.51 1.42 2.45 3.36 2.45 5.5 0 1.27-.37 2.83-.92 4.47l-1.24-.485c-.29-.116-.6-.06-.82.12l-.82-.325c-.103-.04-.22-.04-.32.01-.1.04-.18.128-.223.23l-2.283 5.66c-.04.104-.04.217.006.317s.13.175.23.22l.83.32.06.204c.09.2.252.36.46.44l.63.245c-.12.284-.297.534-.51.744-.225.22-.49.4-.786.52-.28.11-.58.17-.9.17h-.05l-.05-.008H11.7c-.876 0-1.59.7-1.59 1.56 0 .86.713 1.56 1.59 1.56h2.524c.23 0 .418-.183.418-.41 0-.1-.038-.19-.1-.264-.076-.09-.19-.15-.32-.15H11.7c-.416 0-.754-.34-.754-.748s.338-.74.754-.74h5.33l.047-.01.048.003c1.296 0 2.46-.76 2.964-1.933v-.014l.67.26c.1.035.2.054.31.054.33 0 .64-.2.77-.52l.49-1.226.05-.073.56.22.15.03c.16 0 .32-.1.39-.26l.95-2.36c.04-.1.04-.22-.01-.32s-.13-.18-.23-.22zm-13.808-2.62l1.97 4.894-.33.128-1.98-4.895.33-.13zm-2.86 4.827l-.65-1.6.16-.07c.21.53.42 1.07.64 1.59l-.16.06zm1.13-3.71l1.66 4.13-.53.2-1.67-4.13.52-.21zm14.04 3.64c.21-.53.43-1.06.64-1.6l.16.06-.65 1.59-.16-.07zm-2.12.68l-.53-.21 1.66-4.13.52.2-1.67 4.13zm-.26-5.33l-1.98 4.89-.33-.13 1.97-4.89.33.13z" fill="#206FAC"/><path d="M24.217 99.832l-.558-.218.31-.83.16-.408.05-.193c.71-2.036 1.24-4.022 1.24-5.68 0-5.24-4.58-9.503-10.21-9.503C9.58 83 5 87.263 5 92.504c0 1.657.527 3.642 1.24 5.68l.05.192.164.406.31.832-.557.218c-.215.084-.32.324-.234.535l.95 2.36c.042.1.122.182.224.226l.166.033.154-.03.56-.217.053.07.493 1.22c.13.32.445.52.778.52.11 0 .21-.02.31-.06l2.08-.82c.21-.08.37-.24.46-.44l.06-.21.83-.32c.22-.09.32-.33.24-.54l-2.28-5.66c-.04-.1-.12-.19-.22-.23-.1-.04-.21-.05-.32 0l-.82.32c-.23-.18-.54-.23-.83-.12l-1.24.48c-.54-1.65-.92-3.21-.92-4.48 0-2.17.96-4.13 2.5-5.55l.05.08c.16.24.43.37.7.37.16 0 .32-.05.46-.14 1.43-.93 3.12-1.43 4.87-1.43s3.44.49 4.87 1.42c.15.09.31.13.46.13.27 0 .54-.13.7-.37l.02-.03c1.51 1.42 2.45 3.36 2.45 5.5 0 1.27-.37 2.83-.92 4.47l-1.25-.48c-.29-.114-.6-.057-.82.12l-.82-.323c-.1-.04-.22-.04-.32.01-.1.04-.18.126-.22.227l-2.29 5.66c-.04.106-.04.22.008.32s.13.173.23.22l.83.32.06.202c.09.2.256.36.46.44l.63.244c-.12.284-.293.534-.51.744-.22.22-.49.4-.782.52-.28.11-.58.174-.9.174h-.05l-.05-.01H11.7c-.876 0-1.59.7-1.59 1.565 0 .86.713 1.56 1.59 1.56h2.524c.23 0 .418-.18.418-.41 0-.1-.038-.19-.1-.263-.076-.09-.19-.15-.32-.15H11.7c-.416 0-.754-.338-.754-.747s.338-.74.754-.74h5.33l.047-.006h.048c1.296 0 2.46-.76 2.964-1.935v-.02l.67.26c.1.04.2.057.31.057.33 0 .64-.196.77-.52l.49-1.22.05-.077.56.22.15.03c.16 0 .32-.1.39-.26l.95-2.36c.04-.1.04-.22-.01-.32s-.13-.18-.23-.22zm-13.808-2.62l1.97 4.894-.33.128-1.98-4.895.33-.13zm-2.86 4.827l-.65-1.6.16-.07c.21.53.42 1.07.64 1.59l-.16.06zm1.13-3.71l1.66 4.13-.53.2-1.67-4.13.52-.21zm14.04 3.64c.21-.53.43-1.06.64-1.6l.16.06-.65 1.59-.16-.07zm-2.12.68l-.53-.21 1.66-4.13.52.2-1.67 4.13zm-.26-5.33l-1.98 4.89-.33-.13L20 97.19l.33.13z" fill="#fff"/></g></svg>