<svg width="32" height="232" viewBox="0 0 32 232" xmlns="http://www.w3.org/2000/svg"><g fill="none"><path d="M26.6 5.216c-.202-.136-.456-.16-.68-.066l-6.208 2.653-6.208-2.653c-.178-.076-.38-.076-.558 0L6.46 7.922c-.27.114-.443.382-.443.678v13.474c0 .246.12.476.32.612.12.08.26.123.4.123.095 0 .19-.02.28-.06l6.208-2.66 6.21 2.65c.177.07.378.07.556 0l6.49-2.78c.27-.12.44-.38.44-.68V5.82c0-.24-.12-.47-.32-.61zM7.46 9.09l5.298-2.265v5.517l-.043.014c-.19.063-.293.27-.232.463.042.13.15.22.275.24v5.64l-5.3 2.26V9.09zm6.02 9.525v-5.773c.1-.094.145-.243.1-.385l-.1-.158V6.73l5.908 2.525v8.178c-.153.033-.273.163-.286.33-.014.185.11.348.286.386v2.98l-5.883-2.52-.025-.01zm12 .198l-5.372 2.295v-3.24l.026-.095c.025-.09.013-.183-.026-.26v-.747l.025.002c.158 0 .303-.107.347-.27l.116-.424c.053-.196-.06-.398-.25-.452-.083-.023-.166-.014-.24.018V9.23l5.372-2.296v11.88zM13.082 22.08v-.006c0-.203-.16-.367-.36-.367-.2 0-.36.164-.36.367v.005c-1.36.11-2.38.89-2.38 1.86v.94c0 1.05 1.204 1.88 2.74 1.88 1.536 0 2.74-.83 2.74-1.89v-.95c0-.97-1.02-1.75-2.38-1.87zm1.546 1.498c.07.116.11.24.11.367l-.013.13-.097.238-.076.106-.1.1c-.153.14-.362.27-.608.36-.323.12-.71.2-1.122.2-.412 0-.8-.08-1.123-.2-.25-.1-.46-.22-.61-.37l-.1-.11-.08-.11c-.05-.08-.08-.16-.1-.24l-.02-.13c0-.13.04-.26.11-.37l.06-.09c.31-.41 1.03-.7 1.84-.7s1.53.29 1.84.69l.06.09zm-3.752 1.77c.483.3 1.128.48 1.845.48.72 0 1.37-.18 1.85-.48-.31.403-1.03.692-1.84.692s-1.53-.29-1.84-.692zm2.62-1.403l-.543-.193-.133-.047-.046.24-.053.278 1.7.056h.03l-.04-.02-.9-.32m-2.5-.31l.24.08.52.18.15.05.73.26.05-.26.04-.2.01-.06-1.34-.05-.38-.01m7.2-6.31l-.3-.02-.02-.01c-.18-.08-.39.02-.46.2-.07.19.02.4.21.48l.07.02.1.02.36.03h.03c.19 0 .348-.15.36-.34.018-.2-.13-.38-.33-.4m4.25-.48c-.03-.2-.22-.34-.41-.31-.197.03-.33.22-.297.42l.07.43c.03.18.18.31.35.31l.06-.01c.196-.04.33-.23.296-.43l-.07-.433m-4.716-2.9c.087-.06.14-.16.15-.267.01-.11-.03-.216-.106-.29l-.046-.047c-.14-.15-.37-.15-.51 0l-.083.13-.127.09c-.16.12-.19.35-.073.515.07.1.18.15.29.15.07 0 .15-.022.21-.07l.295-.223m5.6-2.905l.02.115c.03.18.18.31.36.31l.053-.01c.2-.032.33-.22.3-.42l-.057-.36c-.02-.12-.09-.22-.195-.27-.107-.054-.23-.052-.33.005l-.07.04c-.176.09-.24.32-.147.49l.064.09m-.53 2.637l.2.39c.063.13.19.2.32.2l.17-.04c.172-.09.24-.315.15-.495l-.2-.394c-.09-.18-.31-.25-.48-.16s-.245.32-.154.5m-1.78-.298l.145.03c.14 0 .27-.08.33-.22l.173-.4c.08-.18 0-.4-.186-.48-.18-.08-.393 0-.473.19l-.17.408c-.08.19 0 .406.182.487M20.55 15l.095.014c.16 0 .3-.104.35-.27l.116-.42c.05-.19-.06-.396-.25-.45-.19-.05-.39.06-.44.26l-.117.42c-.05.197.06.4.25.453m3.137 2.28l-.438-.015c-.2-.003-.368.155-.37.36-.01.2.15.37.35.38l.43.01h.01c.192 0 .352-.16.36-.357.004-.205-.15-.375-.35-.38m-.81-1.816c-.05-.2-.24-.32-.437-.27l-.42.11c-.19.05-.31.25-.26.44.04.17.19.28.35.28l.09-.01.42-.11c.19-.05.31-.25.26-.44M23.89 12c-.16.027-.28.164-.3.326l-.02.01c-.17.1-.24.32-.143.5.063.12.19.19.314.19L23.9 13l.238-.128c.135-.077.21-.23.185-.38l-.03-.17c-.03-.2-.214-.34-.41-.307m-.106 2.707c-.09.046-.15.124-.18.213-.15.072-.237.25-.19.42.04.163.184.274.345.274l.09-.01.26-.07c.11-.03.197-.11.24-.21.047-.1.04-.22-.01-.32l-.07-.15c-.09-.18-.31-.25-.49-.16m-1.682-2.76l.17-.05.38-.21c.173-.09.24-.32.144-.5s-.318-.25-.49-.15l-.38.21c-.18.09-.24.32-.15.49.065.124.19.194.32.194m-12.37.08c-.06-.195-.263-.3-.453-.24l-.41.13c-.19.06-.29.267-.23.46.05.16.19.26.35.26l.11-.02.42-.13c.19-.06.3-.26.24-.46m1.71 2.95c-.17-.1-.39-.04-.5.13l-.22.38c-.11.18-.05.4.12.51l.18.05c.12 0 .24-.06.31-.18l.22-.38c.1-.17.05-.4-.12-.5M10.3 12.61l-.164.407c-.08.19.01.407.194.48l.13.03c.143 0 .28-.084.335-.23l.165-.403c.077-.19-.01-.405-.194-.48-.183-.08-.394.01-.47.2m.03 1.76c0-.14-.085-.275-.22-.33-.184-.078-.395.01-.47.2l-.04.09c-.05.13-.03.28.067.385l.22.26c.07.08.17.12.27.12.084 0 .17-.03.24-.1.15-.13.16-.37.03-.52l-.1-.11m1.03-2.85c-.06-.19-.26-.3-.45-.24l-.41.13c-.19.06-.298.27-.238.46.045.152.19.252.34.252l.11-.02.41-.13c.19-.06.295-.266.235-.46m4.733 3.66l.294-.23c.16-.12.195-.35.08-.513-.12-.167-.347-.2-.507-.08l-.31.23-.044.04-.03.04c-.14.14-.137.373.01.52.07.063.16.1.25.1s.19-.038.26-.11m.57 1.63l-.4-.16c-.19-.07-.4.02-.47.21-.076.19.02.4.2.474l.4.163.13.026c.145 0 .28-.09.337-.23.07-.19-.02-.4-.21-.473m-4.36-3.346c-.17-.107-.392-.05-.493.125l-.22.38c-.104.172-.048.4.123.5l.18.05c.123 0 .243-.065.31-.18l.22-.38c.1-.17.046-.4-.125-.5m2.6-.838c.17 0 .32-.12.35-.3.04-.2-.09-.39-.28-.43l-.426-.08c-.194-.04-.38.09-.42.29-.04.2.09.39.286.43l.427.083.068.01m1.205.24l.19.04.016.02c.07.07.16.107.253.107s.185-.036.255-.108c.14-.15.14-.38 0-.52l-.094-.1c-.05-.05-.117-.09-.19-.1l-.3-.06c-.2-.04-.39.09-.424.29-.04.2.09.39.288.43m-1 2.695c-.2 0-.36.17-.36.37v.44c0 .2.16.366.36.366.2 0 .36-.163.36-.365v-.44c0-.205-.16-.37-.36-.37m-6.1-5.435l2.87-1.29c.18-.08.265-.3.184-.48-.08-.186-.293-.27-.475-.19l-2.87 1.3c-.18.082-.27.3-.19.485.05.14.19.22.33.22l.14-.03" fill="#373D43"/><g fill="#67747C"><path d="M26.6 45.216c-.202-.136-.456-.16-.68-.066l-6.208 2.653-6.208-2.653c-.178-.076-.38-.076-.558 0L6.46 47.922c-.27.114-.443.382-.443.678v13.474c0 .246.12.476.32.612.12.08.26.123.4.123.095 0 .19-.02.28-.06l6.208-2.66 6.21 2.65c.177.07.378.07.556 0l6.49-2.78c.27-.12.44-.38.44-.68V45.82c0-.246-.12-.476-.32-.612zM7.46 49.09l5.298-2.265v5.517l-.043.014c-.19.063-.293.27-.232.463.042.13.15.22.275.24v5.64l-5.3 2.26V49.09zm6.02 9.525v-5.773c.1-.094.145-.243.1-.385l-.1-.158v-5.57l5.908 2.52v8.18c-.153.03-.273.16-.286.33-.014.18.11.35.286.38v2.98l-5.883-2.52-.025-.01zm12 .198l-5.372 2.295v-3.24l.026-.095c.025-.09.013-.183-.026-.26v-.747l.025.002c.158 0 .303-.107.347-.27l.116-.424c.053-.196-.06-.398-.25-.452-.083-.023-.166-.014-.24.018v-6.41l5.372-2.296v11.88zM13.082 62.08v-.006c0-.203-.16-.367-.36-.367-.2 0-.36.164-.36.367v.005c-1.36.11-2.38.89-2.38 1.86v.94c0 1.05 1.204 1.88 2.74 1.88 1.536 0 2.74-.83 2.74-1.89v-.95c0-.97-1.02-1.75-2.38-1.87zm1.546 1.498c.07.116.11.24.11.367l-.013.13-.097.238-.076.106-.1.1c-.153.14-.362.27-.608.36-.323.12-.71.2-1.122.2-.412 0-.8-.08-1.123-.2-.25-.1-.46-.22-.61-.37l-.1-.11-.08-.11c-.05-.08-.08-.16-.1-.24l-.02-.13c0-.13.04-.26.11-.37l.06-.09c.31-.41 1.03-.7 1.84-.7s1.53.29 1.84.69l.06.09zm-3.752 1.77c.483.3 1.128.48 1.845.48.72 0 1.37-.18 1.85-.48-.31.403-1.03.692-1.84.692s-1.53-.29-1.84-.692zm2.62-1.403l-.543-.193-.133-.047-.046.24-.053.278 1.7.056h.03l-.04-.02-.9-.32m-2.5-.31l.24.08.52.18.15.05.73.26.05-.26.04-.2.01-.06-1.34-.05-.38-.01m7.2-6.31l-.3-.02-.02-.01c-.18-.08-.39.02-.47.2-.07.19.02.4.21.48l.07.03.11.02.355.03h.03c.187 0 .345-.15.36-.34.015-.2-.133-.38-.33-.4m4.245-.48c-.038-.2-.22-.34-.42-.3-.195.03-.33.22-.295.42l.07.43c.03.18.18.31.35.31l.06-.01c.195-.04.33-.23.295-.43l-.07-.44m-4.704-2.9c.086-.066.14-.16.147-.27.01-.11-.03-.214-.105-.29l-.046-.044c-.14-.144-.37-.144-.51 0l-.08.137-.126.092c-.16.12-.19.35-.075.52.07.1.18.15.29.15.08 0 .15-.02.22-.07l.296-.22M23.38 51l.02.12c.03.18.18.31.36.31l.053-.006c.2-.03.33-.22.3-.42l-.057-.36c-.02-.113-.09-.22-.2-.27-.107-.05-.23-.05-.33.01l-.07.04c-.175.09-.24.32-.146.49l.064.09m-.54 2.64l.2.39c.07.13.19.2.32.2l.17-.04c.18-.09.25-.31.156-.49l-.2-.39c-.09-.18-.31-.25-.48-.16s-.245.313-.154.493m-1.774-.29l.146.03c.14 0 .27-.08.33-.22l.17-.4c.08-.186 0-.403-.186-.484-.18-.08-.398 0-.478.19l-.18.407c-.08.185 0 .402.18.483m-.52 1.676l.09.01c.16 0 .308-.11.35-.27l.118-.42c.05-.198-.06-.4-.25-.45-.19-.05-.39.06-.44.26l-.12.423c-.055.2.06.4.25.453m3.13 2.284l-.43-.01c-.197-.004-.364.15-.37.357-.007.2.15.37.35.38l.43.01h.01c.196 0 .356-.16.36-.36.01-.21-.15-.38-.347-.38m-.81-1.82c-.05-.2-.25-.32-.44-.27l-.42.102c-.196.05-.31.25-.26.443.04.17.185.28.35.28l.085-.01.42-.11c.197-.05.31-.25.26-.445m1.04-3.484c-.16.023-.28.16-.3.322l-.02.01c-.17.094-.24.32-.146.5.066.12.19.19.32.19l.17-.048.232-.126c.13-.077.21-.23.18-.38l-.025-.17c-.03-.2-.22-.34-.414-.307m-.103 2.706c-.09.048-.15.126-.18.215-.15.076-.233.25-.19.42.04.17.188.28.35.28l.09-.01.26-.07c.1-.03.19-.1.24-.204.04-.1.04-.22-.01-.32l-.08-.15c-.09-.18-.31-.25-.485-.157m-1.688-2.77l.17-.04.38-.21c.175-.094.24-.317.146-.496s-.31-.244-.49-.15l-.38.21c-.17.1-.24.32-.14.5.07.126.19.196.32.196m-12.37.05c-.06-.196-.26-.3-.45-.24l-.415.13c-.19.06-.3.27-.24.46.05.16.19.26.34.26l.11-.02.42-.13c.19-.06.298-.26.238-.46m1.71 2.946c-.17-.1-.39-.04-.495.13l-.22.38c-.103.177-.05.4.125.506l.185.05c.12 0 .24-.064.31-.18l.22-.38c.1-.174.05-.4-.125-.504M10.3 52.59l-.162.41c-.08.19.01.404.193.48l.14.03c.143 0 .28-.087.335-.23l.17-.406c.078-.19-.01-.4-.193-.48-.185-.08-.396.01-.47.2m.03 1.76c0-.14-.086-.274-.22-.33-.184-.08-.395.01-.47.2l-.037.09c-.05.13-.024.28.07.384l.224.254c.07.08.17.12.26.12.085 0 .17-.03.24-.098.15-.135.16-.37.03-.52l-.09-.11m1.034-2.86c-.06-.192-.265-.3-.455-.24l-.41.13c-.19.06-.297.27-.237.46.05.16.19.26.34.26l.11-.02.416-.13c.19-.06.29-.264.23-.46m4.74 3.666l.3-.227c.16-.12.195-.35.077-.513-.12-.163-.344-.197-.504-.077l-.31.23-.04.04-.035.037c-.14.14-.134.37.01.52.07.06.16.1.25.1.094 0 .19-.04.26-.11m.57 1.63l-.4-.16c-.187-.08-.397.02-.47.21-.075.19.016.4.202.48l.4.16.13.024c.14 0 .28-.09.337-.235.07-.19-.02-.4-.204-.48m-4.36-3.35c-.175-.1-.397-.04-.498.13l-.22.38c-.107.18-.05.4.12.5l.18.06c.12 0 .24-.067.31-.18l.22-.38c.1-.176.04-.4-.13-.506m2.6-.833c.17 0 .32-.122.35-.3.04-.2-.09-.39-.28-.43l-.42-.083c-.196-.04-.384.1-.42.29-.04.2.09.4.284.43l.427.09.07.01m1.202.24l.19.036.01.01c.07.07.16.11.253.11s.184-.04.254-.11c.14-.147.14-.38 0-.52l-.09-.097c-.05-.05-.11-.09-.18-.1l-.296-.06c-.2-.04-.39.09-.425.29-.04.2.09.39.284.43m-1 2.7c-.2 0-.36.16-.36.364v.44c0 .2.16.37.36.37.2 0 .36-.166.36-.37v-.44c0-.204-.16-.37-.36-.37"/><path d="M11.853 48.857c.182-.082.265-.3.184-.485-.08-.186-.293-.27-.475-.188l-2.87 1.29c-.18.082-.264.3-.183.485.05.13.19.21.33.21l.14-.03 2.87-1.29z"/></g><g fill="#206FAC"><path d="M26.6 125.216c-.202-.136-.456-.16-.68-.066l-6.208 2.653-6.208-2.653c-.178-.076-.38-.076-.558 0l-6.487 2.772c-.27.114-.45.382-.45.678v13.474c0 .246.12.476.32.612.12.08.26.123.4.123.09 0 .19-.02.28-.06l6.21-2.66 6.21 2.65c.17.07.38.07.55 0l6.48-2.78c.27-.12.44-.38.44-.68v-13.47c0-.25-.12-.48-.33-.61zM7.46 129.09l5.298-2.265v5.517l-.043.014c-.19.063-.293.27-.232.463.042.13.15.22.275.24v5.64l-5.3 2.26v-11.88zm6.02 9.525v-5.773c.1-.094.145-.243.1-.385l-.1-.158v-5.57l5.908 2.52v8.18c-.153.03-.273.16-.286.33-.014.18.11.35.286.38v2.98l-5.883-2.52-.025-.01zm12 .198l-5.372 2.295v-3.24l.026-.095c.025-.09.013-.183-.026-.26v-.747l.025.002c.158 0 .303-.107.347-.27l.116-.424c.053-.196-.06-.398-.25-.452-.083-.023-.166-.014-.24.018v-6.41l5.372-2.296v11.88zm-12.4 3.267v-.006c0-.203-.16-.367-.36-.367-.2 0-.36.164-.36.367v.005c-1.36.11-2.38.89-2.38 1.86v.94c0 1.05 1.204 1.88 2.74 1.88 1.536 0 2.74-.83 2.74-1.89v-.95c0-.97-1.02-1.75-2.38-1.87zm1.546 1.498c.07.116.11.24.11.367l-.013.13-.097.238-.076.106-.1.1c-.153.14-.362.27-.608.36-.323.12-.71.2-1.122.2-.412 0-.8-.08-1.123-.2-.247-.1-.456-.22-.61-.37l-.1-.11-.075-.11c-.047-.08-.08-.16-.097-.24l-.014-.13c0-.13.04-.26.11-.37l.07-.09c.32-.41 1.04-.7 1.85-.7s1.53.29 1.85.69l.06.09zm-3.752 1.77c.483.3 1.128.48 1.845.48.71 0 1.36-.18 1.84-.48-.32.403-1.04.692-1.85.692s-1.53-.29-1.85-.692zm2.077-1.596l-.13-.047-.04.24-.05.278 1.7.056h.03l-.04-.02-.9-.32-.54-.2zM11 143.63l.232.082.513.18.146.053.73.258.05-.258.04-.2.01-.06-1.34-.044-.38-.01m7.2-6.3l-.3-.02h-.02c-.18-.07-.39.02-.47.21-.07.19.02.4.21.48l.07.03.11.03.36.03h.03c.19 0 .35-.14.36-.34.02-.2-.13-.37-.33-.39m4.25-.48c-.03-.2-.22-.33-.41-.3-.19.04-.33.23-.29.43l.07.44c.03.18.18.31.36.31l.06-.01c.2-.03.33-.22.3-.42l-.07-.432m-4.703-2.9c.085-.067.138-.16.146-.27.01-.11-.03-.215-.103-.29l-.05-.047c-.14-.144-.37-.144-.51 0l-.084.137-.13.1c-.16.12-.2.35-.08.51.07.094.18.15.29.15.07 0 .15-.027.21-.07l.3-.23m5.6-2.903l.02.12c.03.18.18.31.353.31l.053-.01c.2-.03.33-.22.3-.42l-.06-.36c-.02-.112-.09-.22-.19-.27-.1-.05-.226-.05-.33.01l-.066.038c-.177.1-.24.32-.15.5l.067.09m-.53 2.64l.195.397c.06.12.19.2.32.2l.162-.048c.178-.09.247-.315.156-.495l-.2-.39c-.09-.18-.31-.25-.486-.16s-.25.32-.16.5m-1.774-.3l.145.03c.14 0 .27-.08.33-.22l.17-.4c.08-.182 0-.4-.18-.48-.184-.08-.4 0-.48.19l-.17.4c-.08.187 0 .4.185.48m-.53 1.68l.1.017c.16 0 .3-.11.35-.27l.11-.43c.05-.2-.06-.4-.25-.45-.19-.06-.39.06-.45.25l-.115.426c-.054.194.06.396.25.45m3.13 2.284l-.432-.017c-.2-.01-.37.15-.374.35-.004.21.15.38.35.38l.434.02h.01c.2 0 .36-.16.36-.36.01-.206-.15-.376-.35-.38m-.81-1.82c-.05-.196-.24-.315-.44-.265l-.42.104c-.19.05-.31.25-.26.44.04.17.19.28.35.28l.09-.01.42-.11c.197-.05.31-.25.26-.443m1.04-3.485c-.17.028-.29.165-.3.327l-.02.01c-.18.1-.24.32-.15.5.063.124.19.19.32.19l.17-.042.23-.13c.14-.08.21-.23.19-.38l-.03-.17c-.03-.2-.22-.34-.416-.31m-.103 2.704c-.09.048-.15.126-.18.215-.15.07-.23.25-.19.42.04.16.19.27.35.27l.09-.01.26-.065c.106-.03.194-.11.24-.21.044-.1.04-.22-.01-.32l-.075-.15c-.09-.18-.31-.25-.487-.157m-1.515-2.814l.387-.21c.172-.096.24-.32.143-.498s-.31-.245-.484-.15l-.38.21c-.17.097-.24.32-.14.5.06.12.19.19.31.19l.17-.05zm-12.53.11c-.06-.19-.26-.3-.45-.24l-.41.13c-.19.06-.3.26-.24.46.05.15.19.25.348.25l.11-.015.41-.13c.19-.06.294-.263.234-.46m1.71 2.94c-.17-.1-.39-.04-.49.13l-.22.38c-.11.177-.05.4.12.5l.183.05c.12 0 .24-.06.31-.18l.22-.38c.1-.17.05-.4-.126-.5m-1.13-2.372l-.167.41c-.076.186.01.4.196.48l.14.026c.14 0 .27-.083.33-.23l.16-.41c.074-.182-.01-.4-.197-.48-.185-.07-.396.018-.47.2m.03 1.76c-.002-.14-.086-.27-.222-.33-.182-.07-.393.018-.47.2l-.035.09c-.055.13-.03.28.064.39l.22.256c.07.08.17.12.27.12.086 0 .17-.03.24-.095.15-.133.16-.37.03-.52l-.1-.11m1.034-2.852c-.06-.192-.26-.3-.45-.24l-.41.13c-.19.06-.296.27-.236.46.05.16.19.26.343.26l.11-.016.42-.13c.19-.06.3-.27.24-.46m4.745 3.66l.3-.23c.16-.12.19-.35.08-.51-.12-.16-.35-.195-.51-.075l-.31.23-.047.04-.03.04c-.14.14-.135.374.007.52.07.064.16.1.25.1.094 0 .19-.04.26-.11m.57 1.63l-.403-.16c-.18-.076-.39.02-.464.206-.07.19.02.4.208.476l.41.16.13.027c.14 0 .28-.09.335-.235.076-.19-.02-.407-.2-.48m-4.37-3.35c-.17-.1-.395-.045-.496.13l-.22.38c-.1.17-.04.4.13.5l.18.053c.127 0 .247-.066.31-.18l.22-.38c.108-.175.05-.4-.12-.505m2.596-.83c.17 0 .32-.12.35-.3.04-.2-.09-.39-.282-.43l-.423-.084c-.19-.04-.38.09-.42.29-.04.2.09.39.29.43l.425.082.07.01m1.203.25l.19.037.01.012c.07.07.16.11.25.11s.183-.04.253-.11c.14-.148.14-.38 0-.52l-.1-.098c-.05-.05-.115-.084-.186-.1l-.3-.06c-.2-.036-.39.095-.427.294-.04.2.09.397.29.43m-1.01 2.7c-.2 0-.36.17-.36.37v.44c0 .207.16.37.36.37.2 0 .36-.17.36-.37v-.44c0-.203-.16-.37-.36-.37"/><path d="M11.853 128.857c.182-.082.265-.3.184-.485-.08-.186-.293-.27-.475-.188l-2.87 1.29c-.18.082-.264.3-.183.485.05.13.19.21.33.21l.14-.03 2.87-1.29z"/></g><g fill="#fff"><path d="M26.6 85.216c-.202-.136-.456-.16-.68-.066l-6.208 2.653-6.208-2.653c-.178-.076-.38-.076-.558 0L6.46 87.922c-.27.114-.443.382-.443.678v13.474c0 .246.12.476.32.612.12.08.26.123.4.123.095 0 .19-.02.28-.06l6.208-2.66 6.21 2.65c.177.07.378.07.556 0l6.49-2.78c.27-.12.44-.38.44-.68V85.82c0-.246-.12-.476-.32-.612zM7.46 89.09l5.298-2.265v5.517l-.043.014c-.19.063-.293.27-.232.463.042.13.15.22.275.24v5.64l-5.3 2.26V89.09zm6.02 9.525v-5.773c.1-.094.145-.243.1-.385l-.1-.158v-5.57l5.908 2.52v8.18c-.153.03-.273.16-.286.33-.014.18.11.35.286.38v2.98l-5.883-2.52-.025-.01zm12 .198l-5.372 2.295v-3.24l.026-.095c.025-.09.013-.183-.026-.26v-.747l.025.002c.158 0 .303-.107.347-.27l.116-.424c.053-.196-.06-.398-.25-.452-.083-.023-.166-.014-.24.018v-6.41l5.372-2.296v11.88zm-12.4 3.267v-.006c0-.203-.16-.367-.36-.367-.2 0-.36.164-.36.367v.005c-1.36.11-2.38.89-2.38 1.86v.94c0 1.05 1.204 1.88 2.74 1.88 1.536 0 2.74-.83 2.74-1.89v-.95c0-.97-1.02-1.75-2.38-1.87zm1.546 1.498c.07.116.11.24.11.367l-.013.13-.097.238-.076.106-.1.1c-.153.14-.362.27-.608.36-.323.12-.71.2-1.122.2-.412 0-.8-.08-1.123-.2-.247-.1-.456-.22-.61-.37l-.1-.11-.075-.11c-.047-.08-.08-.16-.097-.24l-.014-.13c0-.13.04-.26.11-.37l.07-.09c.32-.41 1.04-.7 1.85-.7s1.53.29 1.85.69l.06.09zm-3.752 1.77c.483.3 1.128.48 1.845.48.71 0 1.36-.18 1.84-.48-.32.403-1.04.692-1.85.692s-1.53-.29-1.85-.692zm2.62-1.403l-.543-.193-.13-.047-.04.24-.05.278 1.7.056h.03l-.04-.02-.9-.32m-2.5-.32l.24.08.52.18.15.05.73.25.05-.26.04-.2.01-.06-1.34-.05-.38-.02m7.2-6.31l-.3-.03-.02-.01c-.19-.08-.4.02-.47.202-.07.19.02.4.2.477l.07.03.1.024.36.03h.03c.19 0 .35-.143.36-.34.02-.2-.13-.38-.33-.39m4.25-.48c-.03-.2-.22-.333-.413-.3-.19.033-.33.223-.29.423l.07.434c.03.18.18.31.355.31l.06-.01c.2-.03.33-.22.3-.42l-.07-.44m-4.703-2.9c.09-.06.14-.16.15-.27.006-.107-.03-.21-.107-.287l-.04-.046c-.14-.14-.37-.14-.51 0l-.09.14-.122.096c-.16.12-.193.35-.075.52.07.1.18.15.29.15.07 0 .15-.02.21-.07l.3-.223m5.6-2.9l.02.12c.03.18.18.31.354.31h.06c.196-.03.33-.22.3-.42l-.06-.36c-.02-.12-.09-.22-.195-.27-.1-.05-.223-.05-.33 0l-.063.04c-.173.1-.24.32-.144.5l.065.09m-.535 2.63l.2.39c.06.13.19.2.32.2l.165-.04c.18-.09.25-.316.16-.496l-.197-.39c-.09-.18-.31-.25-.49-.158s-.247.316-.156.496m-1.78-.293l.147.03c.14 0 .27-.08.33-.22l.17-.405c.08-.19 0-.404-.18-.485-.19-.08-.4.005-.48.19l-.17.406c-.08.183 0 .4.183.48m-.52 1.676l.097.01c.16 0 .306-.103.35-.27l.115-.42c.05-.19-.06-.395-.25-.45-.19-.05-.39.06-.44.26l-.12.423c-.05.2.06.4.25.452m3.13 2.29l-.44-.02c-.198-.004-.365.154-.37.357-.008.2.15.37.35.38l.43.01h.01c.195 0 .355-.16.36-.356.01-.203-.15-.373-.348-.38m-.81-1.82c-.05-.19-.245-.31-.438-.26l-.42.11c-.19.05-.31.25-.26.447.04.168.19.28.35.28l.09-.01.42-.11c.19-.05.31-.25.26-.446m1.03-3.48c-.16.022-.28.16-.3.32l-.02.01c-.17.097-.24.32-.142.5.066.12.19.19.317.19l.17-.045.24-.13c.13-.076.21-.23.18-.38l-.02-.17c-.03-.2-.22-.34-.42-.306m-.11 2.71c-.09.043-.15.12-.18.21-.15.08-.23.25-.19.42.04.17.19.28.35.28l.09-.01.26-.065c.107-.03.195-.105.24-.207.045-.104.04-.22-.01-.32l-.074-.15c-.09-.18-.31-.25-.49-.16m-1.7-2.76l.172-.04.38-.21c.176-.098.24-.32.147-.5s-.316-.247-.49-.15l-.38.21c-.177.095-.24.32-.148.5.06.12.19.19.314.19m-12.38.07c-.06-.195-.26-.3-.45-.24l-.414.13c-.19.06-.29.267-.23.46.05.16.19.26.35.26l.11-.02.41-.13c.19-.06.295-.26.235-.46m1.71 2.95c-.17-.104-.39-.046-.5.13l-.22.38c-.107.173-.05.4.12.502l.183.05c.125 0 .245-.06.31-.18l.22-.38c.105-.17.05-.4-.122-.5m-1.13-2.37l-.163.41c-.07.19.01.4.2.48l.14.03c.14 0 .274-.082.33-.23l.166-.402c.073-.187-.01-.4-.198-.48-.187-.076-.398.013-.47.2m.03 1.76c-.007-.14-.09-.27-.227-.33-.185-.076-.396.013-.47.2l-.04.09c-.05.13-.026.28.07.39l.223.254c.07.08.17.12.27.12.084 0 .17-.03.24-.09.15-.135.16-.37.03-.52l-.1-.11m1.03-2.854c-.06-.2-.26-.3-.45-.24l-.413.13c-.19.06-.295.26-.235.46.05.15.19.25.34.25l.11-.02.417-.134c.19-.06.3-.267.24-.46m4.744 3.663l.297-.23c.16-.12.197-.35.08-.516-.12-.16-.345-.2-.505-.08l-.31.23-.043.04-.03.04c-.14.145-.14.38.003.52.07.07.16.1.25.1s.19-.04.26-.11m.57 1.63l-.4-.16c-.19-.08-.4.02-.47.204-.078.19.02.4.2.477l.4.17.13.03c.146 0 .28-.09.34-.23.07-.19-.02-.404-.206-.48m-4.39-3.35c-.173-.104-.395-.046-.496.128l-.22.38c-.103.174-.047.4.124.503l.18.06c.12 0 .24-.06.31-.18l.22-.38c.102-.17.046-.4-.125-.5m2.597-.83c.17 0 .32-.12.355-.3.04-.2-.09-.39-.285-.43l-.424-.08c-.196-.04-.384.09-.422.29-.037.2.09.4.287.43l.43.09.07.01m1.21.25l.19.04.01.02c.07.07.17.11.26.11s.19-.03.26-.11c.14-.14.14-.37 0-.52l-.09-.09c-.05-.05-.11-.08-.19-.1l-.3-.06c-.19-.03-.38.1-.42.3-.04.2.09.39.29.43m-1 2.7c-.2 0-.36.166-.36.37v.44c0 .203.16.37.36.37.2 0 .36-.17.36-.37v-.44c0-.207-.16-.37-.36-.37"/><path d="M11.853 88.857c.182-.082.265-.3.184-.485-.08-.186-.293-.27-.475-.188l-2.87 1.29c-.18.082-.264.3-.183.485.05.13.19.21.33.21l.14-.03 2.87-1.29z"/></g></g></svg>