<svg width="32" height="232" viewBox="0 0 32 232" xmlns="http://www.w3.org/2000/svg"><g fill="none"><path d="M6.268 12.05h4.288l4.824 5.22c.16.17.375.262.596.262.103 0 .207-.02.307-.06.312-.13.517-.444.517-.792v-2.026c0-.16-.043-.317-.126-.452l-1.302-2.152h4.817c.25 0 .49-.12.64-.324l3.19-4.18c.19-.257.23-.606.09-.9-.14-.294-.43-.48-.74-.48h-2.14c-.23 0-.45.097-.6.27l-1.03 1.14H6.27c-1.616 0-2.788.94-2.788 2.238 0 1.29 1.16 2.23 2.78 2.236zm.008-2.768H19.96c.23 0 .446-.098.602-.27l1.03-1.142h.088l-1.89 2.475H6.27c-.615-.002-1.135-.246-1.135-.53 0-.29.522-.533 1.14-.533zm6.56 2.768h.59l1.123 1.853-1.72-1.853zm16.562 11.947c-.015-.052-.38-1.3-1.17-2.56-1.118-1.783-2.55-2.727-4.138-2.727H11.88c-.756 0-1.373.626-1.392 1.403l-.283 4.065-.002.06c0 .795.625 1.44 1.392 1.44H28.04c.768 0 1.392-.645 1.392-1.44l-.034-.242zm-5.308-3.58c.62 0 1.157.243 1.62.61h-2.14c-.227 0-.412.192-.412.427v.92c0 .235.185.425.412.425h3.53c.24.44.42.86.54 1.17H11.87l.247-3.56h11.97zm-2.454 1.956c.182 0 .33-.087.338-.196v-.527c-.01-.11-.156-.196-.338-.196-.18 0-.33.087-.338.196v.527c.01.11.156.196.338.196m-1.414 0c.18 0 .33-.087.338-.196v-.527c-.01-.11-.156-.196-.338-.196-.18 0-.33.087-.338.196v.527c.01.11.156.196.338.196m-1.415 0c.182 0 .33-.087.338-.196v-.527c-.01-.11-.156-.196-.338-.196-.18 0-.33.087-.338.196v.527c0 .11.15.196.33.196m-1.42 0c.18 0 .33-.087.34-.196v-.527c-.01-.11-.16-.196-.34-.196-.18 0-.33.087-.34.196v.527c.01.11.15.196.33.196m-1.41 0c.18 0 .33-.087.33-.196v-.527c-.01-.11-.16-.196-.34-.196-.18 0-.33.087-.34.196v.527c0 .11.15.196.33.196m-1.42 0c.18 0 .33-.087.34-.196v-.527c-.01-.11-.16-.196-.34-.196-.18 0-.33.087-.34.196v.527c.01.11.15.196.34.196m-1.42 0c.18 0 .33-.087.336-.196v-.527c-.01-.11-.16-.196-.34-.196-.188 0-.33.087-.34.196v.527c.01.11.152.196.34.196m8.22-9.585c-.23 0-.41.19-.41.426s.183.426.41.426H25.6c.223 0 .41-.19.41-.426s-.187-.426-.41-.426h-4.29m1.73-1.185c0 .236.18.426.41.426h5.03c.23 0 .41-.2.41-.43 0-.24-.184-.43-.41-.43h-5c-.23 0-.41.19-.41.42m.395-1.61c0 .23.184.42.41.42h2.74c.22 0 .41-.19.41-.43s-.19-.43-.41-.43H23.9c-.23 0-.415.19-.415.42m-15.18 13.4h-4.28c-.228 0-.412.19-.412.42 0 .23.19.42.42.42h4.28c.226 0 .41-.19.41-.43s-.183-.43-.41-.43m-.002-1.61H3.29c-.228 0-.412.19-.412.43s.185.43.413.43h5.02c.23 0 .41-.19.41-.42s-.18-.43-.41-.43m0-1.61H5.57c-.23 0-.414.19-.414.426s.184.43.412.43h2.74c.228 0 .413-.19.413-.42s-.18-.43-.41-.43" fill="#373D43"/><path d="M6.268 52.05h4.288l4.824 5.22c.16.17.375.262.596.262.103 0 .207-.02.307-.06.312-.13.517-.444.517-.792v-2.026c0-.16-.043-.317-.126-.452l-1.302-2.152h4.817c.25 0 .49-.12.64-.324l3.19-4.18c.19-.257.23-.606.09-.9-.14-.294-.43-.48-.74-.48h-2.14c-.23 0-.45.097-.6.27l-1.03 1.14H6.27c-1.616 0-2.788.94-2.788 2.238 0 1.29 1.165 2.23 2.78 2.236zm.008-2.768H19.96c.23 0 .446-.098.602-.27l1.03-1.142h.088l-1.89 2.475H6.27c-.615-.002-1.135-.246-1.135-.53 0-.29.522-.533 1.14-.533zm6.56 2.768h.59l1.123 1.853-1.72-1.853zm16.562 11.947c-.015-.052-.38-1.3-1.17-2.56-1.118-1.783-2.55-2.727-4.138-2.727H11.88c-.756 0-1.373.626-1.392 1.403l-.283 4.065-.002.06c0 .795.625 1.44 1.392 1.44H28.04c.768 0 1.392-.645 1.392-1.44l-.034-.242zm-5.308-3.58c.62 0 1.157.243 1.62.61h-2.14c-.227 0-.412.192-.412.427v.92c0 .235.185.425.412.425h3.53c.24.44.42.86.54 1.17H11.87l.247-3.56h11.97zm-2.454 1.956c.182 0 .33-.087.338-.196v-.527c-.01-.11-.156-.196-.338-.196-.18 0-.33.087-.338.196v.527c.01.11.156.196.338.196m-1.414 0c.18 0 .33-.087.338-.196v-.527c-.01-.11-.156-.196-.338-.196-.18 0-.33.087-.338.196v.527c.01.11.156.196.338.196m-1.415 0c.182 0 .33-.087.338-.196v-.527c-.01-.11-.156-.196-.338-.196-.18 0-.33.087-.338.196v.527c0 .11.15.196.33.196m-1.42 0c.18 0 .33-.087.34-.196v-.527c-.01-.11-.16-.196-.34-.196-.18 0-.33.087-.34.196v.527c.01.11.15.196.33.196m-1.41 0c.18 0 .33-.087.33-.196v-.527c-.01-.11-.16-.196-.34-.196-.18 0-.33.087-.34.196v.527c0 .11.15.196.33.196m-1.41 0c.18 0 .33-.087.34-.196v-.527c-.01-.11-.16-.196-.34-.196-.18 0-.33.087-.34.196v.527c.01.11.15.196.34.196m-1.08-.196v-.527c-.01-.11-.16-.196-.34-.196-.18 0-.33.087-.34.196v.527c.01.11.15.196.34.196.18 0 .33-.087.34-.196zm7.89-9.39c-.23 0-.42.19-.42.427s.18.426.41.426h4.28c.22 0 .41-.19.41-.426s-.19-.426-.41-.426h-4.28m1.73-1.185c0 .236.18.426.41.426h5.03c.23 0 .41-.2.41-.43 0-.24-.19-.43-.41-.43h-5c-.23 0-.42.19-.42.42m.4-1.61c0 .23.185.42.41.42h2.74c.23 0 .414-.19.414-.43s-.19-.43-.417-.43H23.9c-.227 0-.41.19-.41.43M8.3 63.38H4.02c-.23 0-.412.19-.412.427 0 .235.19.426.42.426h4.28c.23 0 .41-.19.41-.426s-.18-.427-.41-.427m0-1.61H3.28c-.228 0-.412.19-.412.43s.184.43.412.43h5.026c.227 0 .412-.19.412-.42s-.184-.425-.412-.425m0-1.61h-2.74c-.228 0-.413.19-.413.425s.184.426.412.426h2.74c.228 0 .413-.19.413-.424s-.184-.425-.412-.425" fill="#67747C"/><path d="M6.268 92.05h4.288l4.824 5.22c.16.17.375.262.596.262.103 0 .207-.02.307-.06.312-.13.517-.444.517-.792v-2.026c0-.16-.043-.317-.126-.452l-1.302-2.152h4.817c.25 0 .49-.12.64-.324l3.19-4.18c.19-.257.23-.606.09-.9-.14-.294-.43-.48-.74-.48h-2.14c-.23 0-.45.097-.6.27l-1.03 1.14H6.27c-1.616 0-2.788.94-2.788 2.238 0 1.29 1.165 2.23 2.78 2.236zm.008-2.768H19.96c.23 0 .446-.098.602-.27l1.03-1.142h.088l-1.89 2.475H6.27c-.615-.002-1.135-.246-1.135-.53 0-.29.522-.533 1.14-.533zm6.56 2.768h.59l1.123 1.853-1.72-1.853zm16.562 11.947c-.015-.052-.38-1.3-1.17-2.56-1.118-1.783-2.55-2.727-4.138-2.727H11.88c-.756 0-1.373.626-1.392 1.403l-.283 4.065-.002.06c0 .795.625 1.44 1.392 1.44H28.04c.768 0 1.392-.645 1.392-1.44l-.034-.242zm-5.308-3.58c.62 0 1.157.243 1.62.61h-2.14c-.227 0-.412.192-.412.427v.92c0 .235.185.425.412.425h3.53c.24.44.42.86.54 1.17H11.87l.247-3.56h11.97zm-2.454 1.956c.182 0 .33-.087.338-.196v-.527c-.01-.11-.156-.196-.338-.196-.18 0-.33.087-.338.196v.527c.01.11.156.196.338.196m-1.414 0c.18 0 .33-.087.338-.196v-.527c-.01-.11-.156-.196-.338-.196-.18 0-.33.087-.338.196v.527c.01.11.156.196.338.196m-1.415 0c.182 0 .33-.087.338-.196v-.527c-.01-.11-.156-.196-.338-.196-.18 0-.33.087-.338.196v.527c0 .11.15.196.33.196m-1.42 0c.18 0 .33-.087.34-.196v-.527c-.01-.11-.16-.196-.34-.196-.18 0-.33.087-.34.196v.527c.01.11.15.196.33.196m-1.41 0c.18 0 .33-.087.33-.196v-.527c-.01-.11-.16-.196-.34-.196-.18 0-.33.087-.34.196v.527c0 .11.15.196.33.196m-1.42 0c.18 0 .33-.087.34-.196v-.527c-.01-.11-.16-.196-.34-.196-.18 0-.33.087-.34.196v.527c.01.11.15.196.34.196m-1.42 0c.18 0 .33-.087.34-.196v-.527c-.01-.11-.16-.196-.34-.196-.18 0-.33.087-.34.196v.527c.01.11.16.196.34.196m8.22-9.585c-.23 0-.415.19-.415.426s.184.426.412.426h4.28c.23 0 .41-.19.41-.426s-.18-.426-.41-.426h-4.28m1.73-1.185c0 .236.186.426.414.426h5.02c.23 0 .41-.2.41-.43 0-.24-.185-.43-.413-.43h-5c-.23 0-.41.19-.41.42m.4-1.61c0 .23.185.42.41.42h2.74c.226 0 .41-.19.41-.43s-.19-.43-.415-.43H23.9c-.224 0-.41.19-.41.42M8.3 103.37H4.02c-.23 0-.414.19-.414.43 0 .235.187.426.415.426h4.29c.23 0 .41-.19.41-.425s-.18-.42-.41-.42m0-1.61H3.28c-.228 0-.412.19-.412.43s.184.43.412.43h5.026c.227 0 .412-.19.412-.42s-.184-.42-.412-.42m0-1.61h-2.74c-.228 0-.413.19-.413.43s.184.43.412.43h2.74c.228 0 .413-.19.413-.43 0-.23-.184-.42-.412-.42" fill="#fff"/><path d="M6.268 132.05h4.288l4.824 5.22c.16.17.375.262.596.262.103 0 .207-.02.307-.06.312-.13.517-.444.517-.792v-2.026c0-.16-.043-.317-.126-.452l-1.302-2.152h4.817c.25 0 .49-.12.64-.324l3.19-4.18c.19-.257.23-.606.09-.9-.14-.294-.43-.48-.74-.48h-2.14c-.23 0-.45.097-.6.27l-1.03 1.14H6.27c-1.616 0-2.788.94-2.788 2.238 0 1.29 1.165 2.23 2.78 2.236zm.008-2.768H19.96c.23 0 .446-.098.602-.27l1.03-1.142h.088l-1.89 2.475H6.27c-.615-.002-1.135-.246-1.135-.53 0-.29.522-.533 1.14-.533zm6.56 2.768h.59l1.123 1.853-1.72-1.853zm16.562 11.947c-.015-.052-.38-1.3-1.17-2.56-1.118-1.783-2.55-2.727-4.138-2.727H11.88c-.756 0-1.373.626-1.392 1.403l-.283 4.065-.002.06c0 .795.625 1.44 1.392 1.44H28.04c.768 0 1.392-.645 1.392-1.44l-.034-.242zm-5.308-3.58c.62 0 1.157.243 1.62.61h-2.14c-.227 0-.412.192-.412.427v.92c0 .235.185.425.412.425h3.53c.24.44.42.86.54 1.17H11.87l.247-3.56h11.97zm-2.454 1.956c.182 0 .33-.087.338-.196v-.527c-.01-.11-.156-.196-.338-.196-.18 0-.33.087-.338.196v.527c.01.11.156.196.338.196m-1.414 0c.18 0 .33-.087.338-.196v-.527c-.01-.11-.156-.196-.338-.196-.18 0-.33.087-.338.196v.527c.01.11.156.196.338.196m-1.415 0c.182 0 .33-.087.338-.196v-.527c-.01-.11-.156-.196-.338-.196-.18 0-.33.087-.338.196v.527c0 .11.15.196.33.196m-1.42 0c.18 0 .33-.087.34-.196v-.527c-.01-.11-.16-.196-.34-.196-.18 0-.33.087-.34.196v.527c.01.11.15.196.33.196m-1.41 0c.18 0 .33-.087.33-.196v-.527c-.01-.11-.16-.196-.34-.196-.18 0-.33.087-.34.196v.527c0 .11.15.196.33.196m-1.42 0c.18 0 .33-.087.34-.196v-.527c-.01-.11-.16-.196-.34-.196-.18 0-.33.087-.34.196v.527c.01.11.15.196.34.196m-1.42 0c.18 0 .33-.087.34-.196v-.527c-.01-.11-.16-.196-.34-.196-.18 0-.33.087-.34.196v.527c.01.11.16.196.34.196m8.22-9.585c-.23 0-.415.19-.415.426s.184.426.412.426h4.28c.23 0 .41-.19.41-.426s-.18-.426-.41-.426h-4.28m1.73-1.185c0 .236.186.426.414.426h5.02c.23 0 .41-.2.41-.43 0-.24-.185-.43-.413-.43h-5c-.23 0-.41.19-.41.42m.4-1.61c0 .23.185.42.41.42h2.74c.226 0 .41-.19.41-.43s-.19-.43-.415-.43H23.9c-.224 0-.41.19-.41.42M8.3 143.37H4.02c-.23 0-.414.19-.414.43 0 .235.187.426.415.426h4.29c.23 0 .41-.19.41-.425s-.18-.42-.41-.42m0-1.61H3.28c-.228 0-.412.19-.412.43s.184.43.412.43h5.026c.227 0 .412-.19.412-.42s-.184-.42-.412-.42m0-1.61h-2.74c-.228 0-.413.19-.413.43s.184.43.412.43h2.74c.228 0 .413-.19.413-.43 0-.23-.184-.42-.412-.42" fill="#206FAC"/></g></svg>