<svg width="32" height="232" viewBox="0 0 32 232" xmlns="http://www.w3.org/2000/svg"><g fill="none"><g fill="#3B444F"><path d="M15.8 16.337c-.285 0-.515.244-.515.546v2.14c0 .3.23.546.515.546.285 0 .515-.25.515-.55v-2.14c0-.3-.23-.55-.515-.55"/><path d="M29.932 12.473h-1.325c.002-.272-.092-.544-.282-.757l-.942-1.052-1.334-1.826-.88-2.928c-.14-.455-.54-.764-.99-.764h-2.54c-.22 0-.43.072-.6.205-1.98 1.52-4.25 3.19-4.79 3.49-.38.05-1.6.01-2.72-.05l-1.88-2.21c-.32-.37-.84-.47-1.26-.23L7.88 7.77H5.586c-.403 0-.77.25-.938.64l-1.56 3.602c-.064.15-.094.308-.093.46h-1.18c-.284 0-.514.246-.514.548 0 .302.23.546.52.546h9.38L4.88 24.798c-.19.337-.193.758-.01 1.1.184.34.526.552.895.552H25.84c.37 0 .71-.212.896-.552.183-.342.178-.763-.01-1.1L20.41 13.563h9.522c.29 0 .52-.244.52-.546 0-.302-.23-.546-.515-.546zm-5.91 11.794h-7.706v-2.105c0-.3-.23-.546-.515-.546-.28 0-.51.245-.51.546v2.105H7.58l5.92-10.534h1.786v.328c0 .31.23.55.515.55.29 0 .52-.24.52-.54v-.32h1.78l5.93 10.54zm-4.23-11.794v-.004H5.156l.003-.01 1.08-2.51h1.9c.17 0 .33-.05.48-.13l2.03-1.15 1.62 1.9c.18.21.43.34.7.36 1.43.09 3.27.17 3.84 0 .19-.06.68-.2 5.15-3.61h1.45l.7 2.35c.03.12.09.23.16.34l1.47 2.02.07.08.3.34h-6.36z"/></g><g fill="#67747C"><path d="M15.8 56.337c-.285 0-.515.244-.515.546v2.14c0 .3.23.546.515.546.285 0 .515-.25.515-.55v-2.14c0-.3-.23-.55-.515-.55"/><path d="M29.932 52.473h-1.325c.002-.272-.092-.544-.282-.757l-.942-1.052-1.334-1.826-.88-2.928c-.14-.455-.54-.764-.99-.764h-2.54c-.22 0-.43.072-.6.205-1.98 1.52-4.25 3.19-4.79 3.49-.38.05-1.6.01-2.72-.05l-1.88-2.2c-.32-.37-.84-.47-1.26-.23l-2.51 1.42H5.59c-.403 0-.77.25-.938.64l-1.564 3.6c-.063.15-.093.31-.092.46h-1.18c-.285 0-.515.25-.515.55 0 .31.23.55.52.55h9.38L4.88 64.8c-.19.337-.192.76-.01 1.1.185.34.527.552.896.552H25.84c.37 0 .71-.212.896-.552.183-.342.178-.763-.01-1.1L20.41 53.563h9.522c.29 0 .52-.244.52-.546 0-.302-.23-.546-.515-.546zm-5.91 11.794h-7.706v-2.105c0-.3-.23-.546-.515-.546-.28 0-.51.245-.51.546v2.105H7.58l5.92-10.534h1.786v.328c0 .31.23.55.515.55.29 0 .52-.24.52-.54v-.32h1.78l5.93 10.54zm-4.23-11.794v-.004H5.156l.003-.01 1.08-2.52h1.9c.17 0 .33-.05.48-.13l2.03-1.15 1.62 1.9c.18.21.43.34.7.36 1.43.09 3.27.17 3.84 0 .19-.06.68-.2 5.15-3.61h1.45l.7 2.35c.03.12.09.23.16.34l1.47 2.02.07.08.3.34h-6.36z"/></g><g fill="#fff"><path d="M15.8 96.337c-.285 0-.515.244-.515.546v2.14c0 .3.23.546.515.546.285 0 .515-.25.515-.55v-2.14c0-.3-.23-.55-.515-.55"/><path d="M29.932 92.473h-1.325c.002-.272-.092-.544-.282-.757l-.942-1.052-1.334-1.826-.88-2.928c-.14-.455-.54-.764-.99-.764h-2.54c-.22 0-.43.072-.6.205-1.98 1.52-4.25 3.19-4.79 3.49-.38.05-1.6.01-2.72-.05l-1.88-2.2c-.32-.37-.84-.47-1.26-.23l-2.51 1.42H5.59c-.403 0-.77.25-.938.64l-1.564 3.6c-.063.15-.093.31-.092.46h-1.18c-.285 0-.515.25-.515.55 0 .31.23.55.52.55h9.38L4.88 104.8c-.19.336-.19.757-.01 1.1.186.34.528.55.897.55H25.84c.37 0 .71-.21.896-.55.183-.343.178-.764-.01-1.1L20.41 93.562h9.522c.286 0 .516-.244.516-.546 0-.302-.23-.546-.515-.546zm-5.91 11.794h-7.706v-2.105c0-.3-.23-.546-.515-.546-.28 0-.51.245-.51.546v2.105H7.58l5.92-10.534h1.786v.328c0 .31.23.55.515.55.29 0 .52-.24.52-.54v-.32h1.78l5.93 10.54zm-4.23-11.794v-.004H5.156l.003-.01 1.08-2.52h1.9c.17 0 .33-.05.48-.13l2.03-1.15 1.62 1.9c.18.21.43.34.7.36 1.43.09 3.27.17 3.84 0 .19-.06.68-.2 5.15-3.61h1.45l.7 2.35c.03.12.09.23.16.34l1.47 2.02.07.08.3.34h-6.36z"/></g><g fill="#206FAC"><path d="M15.8 136.337c-.285 0-.515.244-.515.546v2.14c0 .3.23.546.515.546.285 0 .515-.25.515-.55v-2.14c0-.3-.23-.55-.515-.55"/><path d="M29.932 132.473h-1.325c.002-.272-.092-.544-.282-.757l-.942-1.052-1.334-1.826-.88-2.928c-.14-.455-.54-.764-.99-.764h-2.54c-.22 0-.43.072-.6.205-1.98 1.52-4.25 3.19-4.79 3.49-.38.05-1.6.01-2.72-.05l-1.88-2.2c-.32-.37-.84-.47-1.26-.23l-2.51 1.42h-2.3c-.41 0-.77.25-.94.64l-1.57 3.61c-.06.15-.09.31-.09.46H1.81c-.283 0-.513.25-.513.55 0 .3.23.55.52.55h9.38L4.88 144.8c-.19.336-.195.757-.01 1.1.182.34.524.55.893.55h20.074c.37 0 .712-.21.897-.55.183-.343.178-.764-.01-1.1l-6.315-11.236h9.52c.28 0 .51-.244.51-.546 0-.302-.23-.546-.52-.546zm-5.91 11.794h-7.706v-2.105c0-.3-.23-.546-.515-.546-.28 0-.51.245-.51.546v2.105H7.58l5.92-10.534h1.786v.328c0 .31.23.55.515.55.29 0 .52-.24.52-.54v-.32h1.78l5.93 10.54zm-4.23-11.794v-.004H5.156l.003-.01 1.08-2.52h1.9c.17 0 .33-.05.48-.13l2.03-1.15 1.62 1.9c.18.21.43.34.7.36 1.43.09 3.27.17 3.84 0 .19-.06.68-.2 5.15-3.61h1.45l.7 2.35c.03.12.09.23.16.34l1.47 2.02.07.08.3.34h-6.36z"/></g></g></svg>