<svg width="32" height="232" viewBox="0 0 32 232" xmlns="http://www.w3.org/2000/svg"><g fill="none"><path d="M24.598 8.03l-.004-.075-.004-.024-.01-.06-.008-.02-.02-.06-.007-.02-.08-.15-.016-.02-.04-.05-.02-.02-.05-.04-.02-.01-.07-.05h-.01l-.08-.05h-.02l-.07-.03-.03-.01-.06-.02-.04-.01h-.02l-4.2-.91c-.11-1.39-1.06-2.27-2.49-2.27-.83 0-1.56.49-2.02 1.25-.37-.65-1.06-1.04-1.96-1.04C12.02 4.31 11 5.54 11 7.06v1.5l-3.53 1c-.348.1-.585.413-.585.77v14.04c0 .3.17.573.438.71l5.098 2.61.03.01.04.018.07.024.04.01.08.015.03.005.11.008h.02l.09-.007.04-.004.07-.02.04-.01.06-.02.04-.02.013-.01 11-5.23c.28-.14.46-.42.46-.73V8.03zM10.672 22.947L10.65 11.88l1.335.278V24.98l-1.314-2.033zm-.81-.127l-1.357.687V11.434l1.368.285-.032.15.03 10.94zm5.71-13.93l3.386-.976v.897l-3.386 1.14V8.9zm4.195-.35v-.55l.998.216-.998.333zm-6.163 3.75l9.377-3.132v12.09l-9.37 4.455V12.29zm1.968-5.177c0-1.233.76-2.236 1.693-2.236.466 0 1.497.143 1.668 1.375l-.034.008-3.33.96v-.107zm-3.753-.087c0-1.073.65-1.947 1.46-1.947.44 0 1.46.14 1.46 1.5v.87l-2.92.84V7.02zm2.94 2.094v1.09l-1.66.555-.14-.043-2.18-.452 3.98-1.147zM9.02 24.144l1.1-.557 1.08 1.674-2.18-1.11zm11.81-8.937c-.11-.193-.357-.26-.55-.152l-3.93 2.195c-.195.11-.263.353-.154.546.077.13.214.204.355.204l.2-.052 3.93-2.195c.2-.11.27-.353.16-.546m-.38 1.52l-1.01.38c-.21.08-.32.31-.24.518.06.16.22.26.38.26l.14-.027 1.02-.38c.21-.08.31-.31.23-.518-.08-.207-.31-.31-.52-.233" fill="#373D43"/><path d="M24.598 48.03l-.004-.075-.004-.024-.01-.06-.008-.02-.02-.06-.007-.02-.08-.15-.016-.02-.04-.05-.02-.02-.05-.04-.02-.01-.07-.05h-.01l-.08-.05h-.02l-.07-.03-.03-.01-.06-.02-.04-.01h-.02l-4.21-.91c-.11-1.39-1.06-2.27-2.49-2.27-.83 0-1.56.49-2.02 1.25-.37-.65-1.06-1.04-1.96-1.04-1.25 0-2.27 1.23-2.27 2.75v1.51l-3.524 1c-.35.1-.587.41-.587.77V64.4c0 .3.17.572.44.71l5.1 2.61.03.01.035.02.07.02.03.01.08.015.03.002.1.01h.01l.09-.008h.04l.06-.02.04-.01.06-.02.03-.02.01-.01 11-5.23c.28-.14.46-.42.46-.73V48.03zM10.672 62.947L10.65 51.88l1.335.278V64.98l-1.314-2.033zm-.81-.127l-1.357.687V51.434l1.368.285-.032.15.03 10.94zm5.71-13.93l3.386-.976v.897l-3.386 1.14V48.9zm4.195-.35v-.55l.998.216-.998.333zm-6.163 3.75l9.377-3.132v12.09l-9.37 4.455V52.29zm1.968-5.177c0-1.233.76-2.236 1.693-2.236.466 0 1.497.143 1.668 1.375l-.034.008-3.33.96v-.107zm-3.753-.087c0-1.073.65-1.947 1.46-1.947.44 0 1.46.14 1.46 1.5v.87l-2.93.84v-1.27zm2.94 2.095v1.09l-1.66.56-.14-.04-2.18-.45 3.98-1.14zM9.02 64.15l1.1-.557 1.08 1.674-2.18-1.117zm11.258-9.09l-3.927 2.194c-.19.11-.26.354-.15.547.08.13.22.21.36.21l.2-.05 3.93-2.19c.2-.11.27-.35.16-.54-.11-.19-.35-.26-.55-.15zm.173 1.67l-1.01.38c-.21.08-.32.31-.24.518.06.16.22.26.38.26l.14-.027 1.02-.38c.21-.08.32-.31.24-.52-.08-.2-.31-.31-.52-.23" fill="#67747C"/><path d="M24.598 88.03l-.004-.075-.004-.024-.01-.06-.008-.02-.02-.06-.007-.02-.08-.15-.016-.02-.04-.05-.02-.02-.05-.04-.02-.01-.07-.05h-.01l-.08-.05h-.02l-.07-.03-.03-.01-.06-.02-.04-.01h-.02l-4.21-.91c-.11-1.39-1.06-2.27-2.49-2.27-.83 0-1.56.49-2.02 1.25-.37-.65-1.06-1.04-1.96-1.04-1.25 0-2.27 1.23-2.27 2.75v1.51l-3.524 1c-.35.1-.587.41-.587.77v14.04c0 .3.17.576.44.71l5.1 2.61.03.01.035.02.07.02.03.01.08.018.03.006.1.01h.01l.09-.01.04-.002.06-.01.04-.01.06-.02.03-.015h.01l10.994-5.23c.28-.13.46-.41.46-.72V88.03zm-13.926 14.917L10.65 91.88l1.335.278v12.823l-1.314-2.03zm-.81-.127l-1.357.687V91.434l1.368.285-.032.15.03 10.94zm5.71-13.93l3.386-.976v.897l-3.386 1.14V88.9zm4.195-.35v-.55l.998.216-.998.333zm-6.163 3.75l9.377-3.132v12.09l-9.37 4.455V92.29zm1.968-5.177c0-1.233.76-2.236 1.693-2.236.466 0 1.497.143 1.668 1.375l-.034.008-3.33.96v-.107zm-3.753-.087c0-1.073.65-1.947 1.46-1.947.44 0 1.46.14 1.46 1.5v.87l-2.93.84v-1.27zm2.94 2.095v1.09l-1.66.56-.14-.04-2.18-.45 3.98-1.14zm-5.74 15.03l1.1-.55 1.08 1.68-2.18-1.11zm11.81-8.93c-.11-.19-.36-.26-.56-.15l-3.92 2.19c-.2.11-.27.36-.16.55.07.13.21.2.35.2l.2-.05 3.93-2.19c.19-.11.26-.35.15-.54m-.38 1.52l-1.02.38c-.21.08-.32.31-.24.52.06.16.21.26.38.26l.14-.03 1.01-.38c.21-.08.31-.31.23-.52-.08-.2-.31-.31-.52-.23" fill="#fff"/><path d="M24.598 128.03l-.004-.075-.004-.024-.01-.06-.008-.02-.02-.06-.007-.02-.08-.15-.016-.02-.04-.05-.02-.02-.05-.04-.02-.01-.07-.05h-.01l-.08-.05h-.02l-.07-.03-.03-.01-.06-.02-.04-.01h-.02l-4.21-.91c-.11-1.39-1.06-2.27-2.49-2.27-.83 0-1.56.49-2.02 1.25-.37-.65-1.06-1.04-1.96-1.04-1.25 0-2.27 1.23-2.27 2.75v1.51l-3.54 1.02c-.35.1-.587.41-.587.77v14.04c0 .3.17.576.44.71l5.1 2.61.03.01.034.02.07.02.032.01.08.018.03.006.1.01h.01l.09-.01.04-.002.06-.01.04-.01.06-.02.034-.013.015-.005 10.99-5.23c.28-.13.46-.41.46-.72v-13.73zm-13.926 14.917l-.022-11.067 1.335.278v12.823l-1.314-2.03zm-.81-.127l-1.357.687v-12.073l1.368.285-.032.15.03 10.94zm5.71-13.93l3.386-.976v.897l-3.386 1.14v-1.05zm4.195-.35v-.55l.998.216-.998.333zm-6.163 3.75l9.377-3.132v12.09l-9.37 4.455V132.29zm1.968-5.177c0-1.233.76-2.236 1.693-2.236.466 0 1.497.143 1.668 1.375l-.034.008-3.33.96v-.107zm-3.753-.087c0-1.073.65-1.947 1.46-1.947.44 0 1.46.14 1.46 1.5v.87l-2.93.84v-1.28zm2.94 2.095v1.09l-1.66.56-.14-.04-2.18-.45 3.98-1.14zm-5.74 15.03l1.1-.55 1.08 1.68-2.18-1.11zm11.25-9.08l-3.93 2.2c-.2.11-.27.36-.16.55.07.13.21.21.35.21l.2-.05 3.93-2.19c.19-.11.26-.35.15-.54-.11-.19-.36-.26-.55-.15zm.17 1.67l-1.02.38c-.21.08-.32.31-.24.52.06.16.21.26.38.26l.14-.03 1.01-.38c.21-.08.31-.31.23-.52-.08-.2-.32-.31-.53-.23" fill="#206FAC"/></g></svg>