<svg width="32" height="232" viewBox="0 0 32 232" xmlns="http://www.w3.org/2000/svg"><g fill="none"><path d="M12.31 20.235c.953 0 1.73-.795 1.73-1.77 0-.978-.776-1.772-1.73-1.772-.956 0-1.732.794-1.732 1.77 0 .977.776 1.772 1.73 1.772zm0-1.488c-.154 0-.278-.127-.278-.283 0-.156.124-.283.277-.283.15 0 .27.13.27.29 0 .16-.13.29-.28.29zm0 5.935c3.35 0 6.077-2.79 6.077-6.218s-2.727-6.22-6.078-6.22c-3.36 0-6.08 2.79-6.08 6.22 0 3.428 2.72 6.218 6.08 6.218zm0-10.508c2.31 0 4.193 1.925 4.193 4.29s-1.882 4.29-4.194 4.29c-2.32 0-4.2-1.925-4.2-4.29s1.88-4.29 4.19-4.29zm0 7.89c1.938 0 3.517-1.615 3.517-3.6 0-1.984-1.578-3.6-3.518-3.6-1.95 0-3.52 1.615-3.52 3.6 0 1.984 1.57 3.6 3.52 3.6zm0-6.235c1.42 0 2.574 1.18 2.574 2.63s-1.154 2.63-2.574 2.63-2.58-1.19-2.58-2.64 1.153-2.64 2.573-2.64zm15.687-6.05H11.612v-.99c0-.27-.21-.49-.472-.49H6.46c-.26 0-.472.21-.472.48v.98H3.945c-.522 0-.943.43-.943.96v15.31c0 .53.42.96.943.96h24.05c.522 0 .944-.44.944-.97v-15.3c0-.54-.43-.97-.95-.97zM4.887 11.7h17.648v13.38H4.887V11.708zM6.93 9.27h3.74v.503H6.93V9.27zm16.55 2.43h3.58v13.38h-3.58V11.708zm-5.15 3.273h2.62c.26 0 .47-.217.47-.483v-1.64c0-.265-.21-.48-.47-.48h-2.62c-.26 0-.47.215-.47.48v1.64c0 .266.21.482.47.482zm.47-1.64h1.68v.674H18.8v-.674zm.84-5.37c.26 0 .47-.216.47-.48V5.39c0-.265-.21-.482-.47-.482s-.47.217-.47.483v2.1c0 .27.21.48.47.48m1.518 1.02c.122 0 .242-.04.334-.14l1.15-1.18c.186-.19.186-.49 0-.68-.183-.18-.48-.18-.665 0L20.82 8.16c-.182.188-.182.494 0 .682.093.094.214.14.334.14M17.81 8.87c.093.094.215.14.334.14.122 0 .24-.046.333-.14.185-.188.185-.493 0-.682l-1.18-1.206c-.183-.188-.48-.188-.665 0-.184.188-.184.493 0 .682l1.18 1.206" fill="#3B444F"/><path d="M12.31 60.235c.953 0 1.73-.795 1.73-1.77 0-.978-.776-1.772-1.73-1.772-.956 0-1.732.794-1.732 1.77 0 .977.776 1.772 1.73 1.772zm0-1.488c-.154 0-.278-.127-.278-.283 0-.156.124-.283.277-.283.15 0 .27.13.27.29 0 .16-.13.29-.28.29zm0 5.935c3.35 0 6.077-2.79 6.077-6.218s-2.727-6.22-6.078-6.22c-3.36 0-6.08 2.79-6.08 6.22 0 3.428 2.72 6.218 6.08 6.218zm0-10.508c2.31 0 4.193 1.925 4.193 4.29s-1.882 4.29-4.194 4.29c-2.32 0-4.2-1.925-4.2-4.29s1.88-4.29 4.19-4.29zm0 7.89c1.938 0 3.517-1.615 3.517-3.6 0-1.984-1.578-3.6-3.518-3.6-1.95 0-3.52 1.615-3.52 3.6 0 1.984 1.57 3.6 3.52 3.6zm0-6.235c1.42 0 2.574 1.18 2.574 2.63s-1.154 2.63-2.574 2.63-2.58-1.19-2.58-2.64 1.153-2.64 2.573-2.64zm15.687-6.05H11.612v-.99c0-.27-.21-.49-.472-.49H6.46c-.26 0-.472.21-.472.48v.98H3.945c-.522 0-.943.43-.943.96v15.31c0 .53.42.96.943.96h24.05c.522 0 .944-.44.944-.97v-15.3c0-.53-.43-.96-.95-.96zM4.887 51.7h17.648v13.38H4.887V51.708zm2.044-2.43h3.74v.503H6.93v-.505zm16.55 2.43h3.58v13.38h-3.58V51.708zm-5.15 3.273h2.62c.26 0 .47-.217.47-.483v-1.64c0-.265-.21-.48-.47-.48h-2.62c-.26 0-.47.215-.47.48v1.64c0 .266.21.482.47.482zm.47-1.64h1.68v.674H18.8v-.674zm.84-5.37c.26 0 .47-.216.47-.48V45.39c0-.265-.21-.482-.47-.482s-.47.217-.47.483v2.1c0 .27.21.48.47.48m1.52 1.01c.12 0 .24-.04.34-.14l1.15-1.18c.19-.19.19-.49 0-.68-.18-.18-.48-.18-.66 0l-1.15 1.18c-.18.19-.18.5 0 .68.1.1.22.14.34.14m-3.34-.11c.1.1.22.14.34.14.13 0 .24-.04.34-.14.19-.19.19-.49 0-.68l-1.19-1.21c-.18-.18-.48-.18-.66 0-.18.19-.18.5 0 .69l1.18 1.21" fill="#67747C"/><path d="M12.31 100.235c.953 0 1.73-.795 1.73-1.77 0-.978-.776-1.772-1.73-1.772-.956 0-1.732.794-1.732 1.77 0 .977.776 1.772 1.73 1.772zm0-1.488c-.154 0-.278-.127-.278-.283 0-.156.124-.283.277-.283.15 0 .27.13.27.29 0 .16-.13.29-.28.29zm0 5.935c3.35 0 6.077-2.79 6.077-6.218s-2.727-6.22-6.078-6.22c-3.36 0-6.08 2.79-6.08 6.22 0 3.428 2.72 6.218 6.08 6.218zm0-10.508c2.31 0 4.193 1.925 4.193 4.29s-1.882 4.29-4.194 4.29c-2.32 0-4.2-1.925-4.2-4.29s1.88-4.29 4.19-4.29zm0 7.89c1.938 0 3.517-1.615 3.517-3.6 0-1.984-1.578-3.6-3.518-3.6-1.95 0-3.52 1.615-3.52 3.6 0 1.984 1.57 3.6 3.52 3.6zm0-6.235c1.42 0 2.574 1.18 2.574 2.63s-1.155 2.63-2.575 2.63c-1.42 0-2.58-1.18-2.58-2.64s1.15-2.64 2.57-2.64zm15.687-6.05H11.612v-.99c0-.27-.21-.49-.472-.49H6.46c-.26 0-.472.21-.472.48v.98H3.945c-.522 0-.943.43-.943.96v15.31c0 .53.42.96.943.96h24.05c.522 0 .944-.43.944-.97v-15.3c0-.54-.43-.97-.95-.97zM4.887 91.7h17.648v13.378H4.887v-13.37zm2.044-2.43h3.74v.503H6.93v-.505zm16.55 2.43h3.58v13.378h-3.58v-13.37zm-5.15 3.273h2.62c.26 0 .47-.217.47-.483v-1.64c0-.265-.21-.48-.47-.48h-2.62c-.26 0-.47.215-.47.48v1.64c0 .266.21.482.47.482zm.47-1.64h1.68v.674H18.8v-.674zm.84-5.37c.26 0 .47-.216.47-.48V85.39c0-.265-.21-.482-.47-.482s-.47.217-.47.483v2.1c0 .27.21.48.47.48m1.52 1.01c.12 0 .24-.04.34-.14l1.15-1.18c.19-.19.19-.49 0-.68-.18-.18-.48-.18-.66 0l-1.15 1.18c-.18.19-.18.5 0 .68.1.1.22.14.34.14m-3.34-.11c.1.1.22.14.34.14.13 0 .24-.04.34-.14.19-.19.19-.49 0-.68l-1.19-1.21c-.18-.18-.48-.18-.66 0-.18.19-.18.5 0 .69l1.18 1.21" fill="#fff"/><path d="M12.31 140.235c.953 0 1.73-.795 1.73-1.77 0-.978-.776-1.772-1.73-1.772-.956 0-1.732.794-1.732 1.77 0 .977.776 1.772 1.73 1.772zm0-1.488c-.154 0-.278-.127-.278-.283 0-.156.124-.283.277-.283.15 0 .27.13.27.29 0 .16-.13.29-.28.29zm0 5.935c3.35 0 6.077-2.79 6.077-6.218s-2.727-6.22-6.078-6.22c-3.36 0-6.08 2.79-6.08 6.22 0 3.428 2.72 6.218 6.08 6.218zm0-10.508c2.31 0 4.193 1.925 4.193 4.29s-1.882 4.29-4.194 4.29c-2.32 0-4.2-1.925-4.2-4.29s1.88-4.29 4.19-4.29zm0 7.89c1.938 0 3.517-1.615 3.517-3.6 0-1.984-1.578-3.6-3.518-3.6-1.95 0-3.52 1.615-3.52 3.6 0 1.984 1.57 3.6 3.52 3.6zm0-6.235c1.42 0 2.574 1.18 2.574 2.63s-1.155 2.63-2.575 2.63c-1.42 0-2.58-1.18-2.58-2.64s1.15-2.64 2.57-2.64zm15.687-6.05H11.612v-.99c0-.27-.21-.49-.472-.49H6.46c-.26 0-.472.21-.472.48v.98H3.945c-.522 0-.943.43-.943.96v15.31c0 .53.42.96.943.96h24.05c.522 0 .944-.43.944-.97v-15.3c0-.54-.43-.97-.95-.97zm-23.11 1.92h17.648v13.37H4.887V131.7zm2.044-2.43h3.74v.5H6.93v-.51zm16.55 2.43h3.58v13.37h-3.58V131.7zm-5.15 3.27h2.62c.26 0 .47-.22.47-.49v-1.64c0-.27-.21-.48-.47-.48h-2.62c-.26 0-.47.21-.47.48v1.64c0 .26.21.48.47.48zm.47-1.64h1.68v.67H18.8v-.68zm.84-5.37c.26 0 .47-.22.47-.48v-2.1c0-.27-.21-.49-.47-.49s-.47.21-.47.48v2.09c0 .26.21.48.47.48m1.52 1.01c.12 0 .24-.05.34-.14l1.15-1.18c.19-.19.19-.5 0-.69-.18-.19-.48-.19-.66 0l-1.15 1.18c-.18.19-.18.49 0 .68.1.09.22.14.34.14m-3.34-.11c.1.09.22.14.34.14.13 0 .24-.05.34-.14.19-.19.19-.5 0-.69l-1.18-1.2c-.18-.19-.48-.19-.66 0-.18.18-.18.49 0 .68l1.18 1.2" fill="#206FAC"/></g></svg>