<svg width="32" height="232" viewBox="0 0 32 232" xmlns="http://www.w3.org/2000/svg"><g fill="none"><path d="M19.658 20.353c-.028-.117-.076-.228-.142-.328l-2.365-3.623c-.32-.493-.99-.64-1.49-.324-.5.314-.65.97-.33 1.462l2.27 3.47 1.39 5.79c.12.49.57.82 1.06.82l.25-.028c.59-.133.95-.702.81-1.272l-1.42-5.966m5.16 6.116l-2.31-13.005.18-.04c.59-.132.95-.7.81-1.27-.13-.57-.72-.925-1.3-.794l-.06.02-.3-1.72c-.05-.29-.33-.48-.62-.43-.29.05-.49.33-.44.62l.32 1.78-2.246.51-1.94-3.5c-.19-.34-.556-.55-.954-.55H14.6c-.555 0-1.02.41-1.08.95l-.694 6.46-.01.11-.02 4.52-2.466 6.09c-.22.54.05 1.16.61 1.38.13.05.26.073.393.073.43 0 .84-.25 1.01-.67l2.54-6.27c.05-.12.076-.25.076-.384l.01-4.66.54-5.06 1.81 3.26c.23.42.72.63 1.2.53l2.93-.66 2.29 12.94c.043.25.27.44.53.44l.096-.01c.29-.05.49-.33.44-.62M11.15 15.93c.544 0 1.014-.403 1.075-.945l.66-5.81c.065-.58-.364-1.103-.96-1.17l-2.86-.31c-.288-.03-.575.055-.8.23-.225.177-.37.433-.4.71l-.656 5.81c-.04.28.05.56.23.78.18.22.44.36.72.39l2.86.31.12.006zm-.96-2.23l-.708-.077.42-3.705.704.076-.416 3.704zm5.952-5.945c1.005 0 1.823-.8 1.823-1.78s-.815-1.78-1.82-1.78c-1 0-1.82.8-1.82 1.78s.817 1.78 1.82 1.78" fill="#373D43"/><path d="M19.658 60.353c-.028-.117-.076-.228-.142-.328l-2.365-3.623c-.32-.493-.99-.64-1.49-.324-.5.314-.65.97-.33 1.462l2.27 3.47 1.39 5.79c.12.49.57.82 1.06.82l.25-.028c.59-.133.95-.702.81-1.272l-1.42-5.966m5.16 6.116l-2.31-13.005.18-.04c.59-.132.95-.7.82-1.27-.13-.57-.72-.925-1.3-.794l-.06.02-.3-1.72c-.05-.29-.33-.48-.63-.43-.29.05-.49.33-.44.62l.32 1.78-2.25.51-1.94-3.5c-.19-.34-.56-.55-.96-.55H14.6c-.556 0-1.02.41-1.08.95l-.695 6.45-.008.11-.02 4.52-2.465 6.09c-.22.54.057 1.16.61 1.37.13.05.27.08.4.08.435 0 .84-.25 1.01-.67l2.54-6.27c.05-.12.078-.25.078-.38l.02-4.66.542-5.06 1.81 3.27c.233.42.723.635 1.2.53l2.934-.66 2.29 12.945c.046.25.27.44.53.44l.1-.01c.296-.05.494-.33.443-.62M11.16 55.93c.546 0 1.016-.403 1.077-.945l.66-5.81c.07-.58-.36-1.105-.96-1.17l-2.86-.31c-.29-.03-.57.053-.8.228-.22.177-.37.433-.4.71l-.65 5.81c-.03.28.05.56.23.78.18.22.44.36.73.39l2.86.31.12.005zm-.96-2.23l-.706-.077.42-3.703.705.076-.41 3.703zm5.954-5.945c1.006 0 1.824-.8 1.824-1.78s-.82-1.78-1.824-1.78c-1.003 0-1.82.8-1.82 1.78s.816 1.78 1.82 1.78" fill="#67747C"/><path d="M19.658 100.353c-.028-.117-.076-.228-.142-.328l-2.365-3.623c-.32-.493-.99-.64-1.49-.324-.5.314-.65.97-.33 1.462l2.27 3.47 1.39 5.79c.12.49.57.82 1.06.82l.25-.028c.59-.133.95-.702.81-1.272l-1.42-5.966m5.16 6.115l-2.31-13.01.18-.04c.59-.14.95-.7.81-1.27-.13-.57-.71-.93-1.3-.8l-.06.01-.3-1.73c-.05-.29-.33-.48-.63-.43-.29.05-.49.32-.44.61l.32 1.78-2.25.5-1.94-3.5c-.19-.34-.56-.56-.95-.56l-1.36-.01c-.55 0-1.02.41-1.08.95l-.69 6.45v.11l-.02 4.51-2.467 6.09c-.22.54.05 1.15.61 1.37.13.05.264.07.4.07.43 0 .84-.26 1.01-.67l2.54-6.27c.05-.13.07-.26.07-.39l.01-4.66.54-5.06 1.81 3.26c.24.42.73.63 1.2.522l2.94-.66 2.296 12.942c.045.26.27.44.53.44l.09-.01c.3-.05.5-.328.44-.61M11.17 95.9c.55 0 1.02-.407 1.08-.95l.657-5.81c.067-.58-.362-1.104-.96-1.17l-2.86-.31c-.286-.03-.573.054-.8.23-.223.175-.37.43-.4.71l-.654 5.81c-.03.28.05.56.234.78.18.22.44.36.725.39l2.862.307.12.006zm-.96-2.23l-.71-.07.42-3.703.704.074-.417 3.71zm5.957-5.95c1.006 0 1.824-.8 1.824-1.78s-.81-1.78-1.82-1.78c-1 0-1.82.8-1.82 1.78s.82 1.78 1.82 1.78" fill="#fff"/><path d="M19.658 140.353c-.028-.117-.076-.228-.142-.328l-2.365-3.623c-.32-.493-.99-.64-1.49-.324-.5.314-.65.97-.33 1.462l2.27 3.47 1.39 5.79c.12.49.57.82 1.06.82l.25-.028c.59-.133.95-.702.81-1.272l-1.42-5.966m5.16 6.115l-2.3-13.01.18-.04c.59-.13.95-.7.82-1.27-.13-.57-.72-.93-1.3-.8l-.06.01-.3-1.72c-.05-.29-.33-.49-.63-.44-.29.05-.49.32-.44.61l.32 1.78-2.25.51-1.94-3.5c-.19-.34-.55-.56-.95-.56l-1.36-.01h-.01c-.554 0-1.02.41-1.08.95l-.693 6.45v.11l-.017 4.51-2.468 6.08c-.22.54.056 1.16.61 1.37.13.05.27.074.4.074.434 0 .84-.254 1.01-.67l2.54-6.27c.05-.124.077-.255.077-.39l.02-4.66.54-5.06 1.81 3.27c.234.42.724.63 1.2.525l2.935-.66 2.29 12.95c.04.256.27.44.53.44l.096-.01c.296-.05.49-.325.44-.614m-13.7-10.51c.545 0 1.015-.404 1.076-.946l.657-5.81c.07-.58-.36-1.103-.96-1.17l-2.86-.31c-.28-.03-.57.055-.8.23-.22.176-.37.43-.4.71l-.65 5.81c-.03.28.05.56.24.78.18.22.44.36.73.39l2.87.308.12.01zm-.96-2.23l-.71-.078.42-3.706.707.07-.42 3.7zm5.95-5.946c1.008 0 1.826-.8 1.826-1.78s-.817-1.78-1.822-1.78c-1.003 0-1.82.8-1.82 1.78s.816 1.78 1.82 1.78" fill="#206FAC"/></g></svg>