<svg width="32" height="232" viewBox="0 0 32 232" xmlns="http://www.w3.org/2000/svg"><g fill="none"><path d="M29.49 27.353h-2.07c.043-.197.06-.41.05-.637-.034-.803-.69-1.727-2.003-2.825-.528-.44-1.048-.81-1.4-1.05.728-1.07.685-2.18.554-2.86 1.41-.13 4.94-.9 4.94-5.29 0-3.21-3.18-4.42-6-5.48-2.2-.83-4.28-1.62-4.35-3.16-.11-2.49 1.91-2.77 2.52-2.8h.17c.86 0 1.4.33 1.41.85.01.31-.19.64-.49.66h-.06c-.26 0-.26-.02-.33-.27-.06-.23-.21-.78-.86-.78h-.05c-.45.02-.76.39-.75.9.02.81.82 1.95 2.09 1.9.77-.03 1.45-.39 1.92-.99.41-.52.63-1.2.61-1.82-.09-1.32-1.4-2.7-3.43-2.7l-.21.01c-2.35.104-5.03 1.518-4.87 5.154.14 3.313 2.96 4.36 5.45 5.285 2.11.783 3.93 1.46 4.01 3.27.02.5-.12.908-.43 1.246-.71.773-2.083.95-2.56.99-1.01-.787-3.5-1.67-5.39-1.67l-.26.007c-1.54.06-3.66.5-4.57.69-.25-.84-.94-2.48-2.42-2.42-.624.02-1.08.24-1.353.64-.23.34-.26.73-.24 1.02-.65.34-1.47 1.09-1.41 2.32.04.81.43 1.78 2.08 1.78l.497-.02.12-.01c.04.04.177.24.275.94.08.58.11 1.3.14 1.94l.01.3c.06 1.31-2.09 3.29-2.847 3.32-.44.02-.71.2-.84.44H5.98l-1.553-.69L7.22 12.17l.03-.145.54-2.57c.58-.212 1.99-.83 3.06-2.09 1.35-1.59 1.62-3.564 1.64-3.647.02-.158-.04-.315-.157-.418-.12-.104-.28-.14-.43-.096-.08.025-1.89.57-3.237 2.085l.31-1.47c.055-.26-.106-.51-.356-.56-.25-.06-.495.1-.55.36L7.05 8.5c-.405-1.227-1.02-2.05-1.056-2.1-.097-.125-.25-.192-.404-.18-.16.01-.3.103-.378.242-.04.073-.98 1.826-.825 3.917.153 2.09 1.34 3.69 1.39 3.75l.07.08-.286 1.37c-.06-.28-.16-.57-.27-.86-.73-1.73-2.19-2.75-2.25-2.79-.13-.08-.29-.1-.44-.04-.14.06-.24.19-.27.35-.01.07-.32 1.84.41 3.57.67 1.6 1.97 2.59 2.21 2.76l-1.38 6.61-1.26-.57c-.46-.21-1.01 0-1.22.47-.21.48.01 1.03.47 1.24l3.86 1.74c.12.05.25.08.38.08h3.53l2.83 1.03c.1.04.21.05.31.05h17.02c.51 0 .93-.42.93-.93s-.41-.94-.93-.94zM5.7 7.703c.31.594.684 1.498.76 2.523.076 1.024-.16 1.975-.383 2.608-.313-.593-.686-1.498-.762-2.52-.075-1.026.16-1.977.383-2.61zm5.672-3.27c-.192.64-.558 1.547-1.224 2.33-.663.78-1.494 1.282-2.093 1.57.193-.64.558-1.546 1.224-2.328.66-.78 1.49-1.282 2.09-1.572zM3.185 13.28c.412.41.93 1.03 1.253 1.81.327.783.404 1.59.406 2.175-.412-.408-.926-1.026-1.254-1.812-.325-.782-.404-1.587-.405-2.172zm7.185 12.003c.43-.456 1.422-1.646 1.37-2.826l-.014-.296c-.076-1.85-.156-3.78-1.313-3.78l-.04.01-.156.01-.445.02c-.817 0-1.118-.23-1.146-.88-.05-1.14 1.104-1.54 1.15-1.55.242-.08.375-.34.3-.58-.032-.11-.088-.44.047-.63.126-.18.417-.23.638-.24h.05c1.09 0 1.54 2.11 1.55 2.13.03.13.1.24.2.3.11.07.24.1.36.07.03-.01 2.96-.69 4.84-.77 1.87-.08 4.46.92 5.15 1.55.09.08.21.13.33.13.09-.002 2.25-.07 3.38-1.3.49-.52.71-1.17.68-1.92-.11-2.43-2.4-3.28-4.62-4.11-2.43-.9-4.72-1.75-4.84-4.44-.13-2.942 1.98-4.09 3.99-4.18 1.67-.08 2.61.99 2.65 1.75.02.39-.13.83-.39 1.178.13-.24.19-.514.19-.81-.01-.484-.22-.93-.61-1.24-.41-.343-.99-.52-1.72-.52l-.21.006c-1.64.07-3.52 1.11-3.4 3.78.09 2.15 2.45 3.045 4.95 3.99 2.66 1.006 5.4 2.05 5.4 4.606 0 4.177-3.772 4.39-4.53 4.39h-.065c-.16-.01-.31.07-.4.2-.09.13-.11.3-.05.45.028.063.638 1.606-.544 2.914-.095.1-.137.24-.12.38.02.14.09.26.21.337 1.39.867 3.36 2.496 3.4 3.41.01.236-.02.43-.09.597h-.87c.04-.47-.06-.94-.443-1.294-.25-.23-.63-.48-1.07-.76-.96-.62-2.274-1.46-2.31-2.31l-.05-1.184v-.05c-.03-.353-.31-.45-.46-.45-.11 0-.21.04-.3.11l-2.614.9c-.2.07-.323.264-.31.474.05.83.017 3.19-.763 4.07-.18.2-.38.3-.62.31l-.39.02c.653-1.415.61-3.846.462-7.17-.01-.26-.23-.46-.485-.45-.253.01-.452.23-.44.49v.004c.22 5.09-.505 6.83-.714 7.22l-.053.05h-1.09c.887-1.86.39-5.657.325-6.13-.04-.25-.26-.422-.504-.4-.25.024-.43.24-.42.488.03.773-.62 2.14-1.65 3.47-.57.723-1.12 1.274-1.59 1.642l-.29-.11c-.1-.037-.205-.056-.314-.056h-.26c.423-.286.83-.65 1.145-.985zm.727 1.513c.592-.545 1.083-1.148 1.306-1.432.222-.287.695-.925 1.108-1.68.04 1.494-.11 3.012-.62 3.58l-.06.09h-.2l-1.53-.558zm7.794-2.23c.06-.593.06-1.124.05-1.458l1.86-.638.03.56c.06 1.338 1.55 2.293 2.75 3.06.39.25.76.484.95.66.15.14.18.365.14.603h-6.61c.45-.597.74-1.53.85-2.788z" fill="#3B444F"/><path d="M29.49 67.353h-2.07c.043-.197.06-.41.05-.637-.034-.803-.69-1.727-2.003-2.825-.528-.44-1.048-.81-1.4-1.05.728-1.07.685-2.18.554-2.86 1.41-.13 4.94-.9 4.94-5.29 0-3.21-3.18-4.42-6-5.48-2.2-.83-4.28-1.62-4.35-3.16-.11-2.49 1.91-2.77 2.52-2.8h.17c.86 0 1.4.33 1.41.85.01.31-.19.64-.49.66h-.06c-.26 0-.26-.02-.33-.27-.06-.23-.21-.78-.86-.78h-.05c-.45.02-.76.39-.75.9.02.81.82 1.95 2.09 1.9.77-.03 1.45-.39 1.92-.99.41-.52.63-1.2.61-1.82-.06-1.27-1.37-2.65-3.4-2.65l-.2.01c-2.34.107-5.02 1.52-4.86 5.156.15 3.31 2.97 4.36 5.45 5.283 2.11.78 3.94 1.46 4.02 3.27.02.5-.12.91-.43 1.25-.71.77-2.09.95-2.56.99-1.01-.79-3.502-1.67-5.39-1.67h-.263c-1.54.067-3.66.5-4.57.697-.25-.83-.94-2.48-2.414-2.414-.63.024-1.08.24-1.36.64-.23.345-.264.734-.24 1.025-.65.34-1.47 1.096-1.415 2.324.033.81.42 1.78 2.07 1.78l.49-.016.13-.01c.04.05.176.24.274.94.09.58.12 1.3.14 1.94l.018.3c.06 1.31-2.09 3.29-2.845 3.33-.44.02-.71.21-.84.44h-1.2l-1.56-.7 2.797-13.4.03-.14.535-2.57c.58-.216 1.99-.83 3.06-2.09 1.35-1.59 1.62-3.57 1.64-3.65.02-.16-.04-.316-.15-.42-.11-.1-.28-.14-.43-.09-.08.02-1.89.57-3.23 2.08l.31-1.47c.06-.25-.1-.5-.35-.55-.25-.052-.49.11-.55.36l-1.02 4.87c-.4-1.23-1.02-2.05-1.05-2.1-.09-.125-.25-.192-.4-.18-.15.01-.29.1-.37.24-.04.07-.98 1.82-.82 3.91.15 2.09 1.34 3.684 1.39 3.75l.07.076-.28 1.37c-.07-.28-.16-.57-.28-.85C4.57 53 3.11 51.99 3.05 51.95c-.13-.09-.294-.102-.44-.042-.14.06-.245.192-.27.347-.016.075-.32 1.84.403 3.573.67 1.606 1.97 2.59 2.21 2.762l-1.383 6.6-1.265-.56c-.464-.21-1.012.002-1.22.475-.206.473.005 1.026.47 1.236l3.866 1.73c.12.06.25.08.38.08h3.53l2.83 1.03c.1.04.21.06.31.06h17.02c.51 0 .93-.42.93-.94 0-.51-.41-.93-.93-.93zM5.7 47.703c.31.594.684 1.498.76 2.523.076 1.024-.16 1.975-.383 2.608-.313-.593-.686-1.498-.762-2.52-.075-1.026.16-1.977.383-2.61zm5.672-3.27c-.192.64-.558 1.547-1.224 2.33-.663.78-1.494 1.282-2.093 1.57.193-.64.558-1.546 1.224-2.328.66-.78 1.49-1.282 2.09-1.572zM3.185 53.28c.412.41.93 1.03 1.253 1.81.327.783.404 1.59.406 2.175-.412-.408-.926-1.026-1.254-1.812-.325-.782-.404-1.587-.405-2.172zm7.185 12.003c.43-.456 1.422-1.646 1.37-2.826l-.014-.296c-.076-1.85-.156-3.78-1.313-3.78l-.04.01-.156.01-.445.02c-.817 0-1.118-.23-1.146-.88-.05-1.14 1.104-1.54 1.15-1.55.242-.08.375-.34.3-.58-.032-.11-.088-.44.047-.63.126-.18.417-.23.638-.24h.05c1.09 0 1.54 2.11 1.55 2.13.03.13.1.24.2.3.11.07.24.1.36.07.03-.01 2.96-.69 4.84-.77 1.87-.08 4.46.92 5.15 1.55.09.08.21.13.33.13.09-.002 2.25-.07 3.38-1.3.49-.52.71-1.17.68-1.92-.11-2.43-2.4-3.28-4.62-4.11-2.43-.9-4.72-1.75-4.84-4.44-.13-2.942 1.98-4.09 3.99-4.18 1.67-.08 2.61.99 2.65 1.75.02.39-.13.83-.39 1.178.13-.24.19-.514.19-.81-.01-.484-.22-.93-.61-1.24-.41-.343-.99-.52-1.72-.52l-.21.006c-1.64.07-3.52 1.11-3.4 3.78.09 2.15 2.45 3.045 4.95 3.99 2.66 1.006 5.4 2.05 5.4 4.606 0 4.177-3.772 4.39-4.53 4.39h-.065c-.16-.01-.31.07-.4.2-.09.13-.11.3-.05.45.028.063.638 1.606-.544 2.914-.095.1-.137.24-.12.38.02.14.09.26.21.337 1.39.867 3.36 2.496 3.4 3.41.01.236-.02.43-.09.597h-.87c.04-.47-.06-.94-.443-1.294-.25-.23-.63-.48-1.07-.76-.96-.62-2.274-1.46-2.31-2.31l-.05-1.184v-.05c-.03-.353-.31-.45-.46-.45-.11 0-.21.04-.3.11l-2.614.9c-.2.07-.323.264-.31.474.05.83.017 3.19-.763 4.07-.18.2-.38.3-.62.31l-.39.02c.653-1.415.61-3.846.462-7.17-.01-.26-.23-.46-.485-.45-.253.01-.452.23-.44.49v.004c.22 5.09-.505 6.83-.714 7.22l-.053.05h-1.09c.887-1.86.39-5.657.325-6.13-.04-.25-.26-.422-.504-.4-.25.024-.43.24-.42.488.03.773-.62 2.14-1.65 3.47-.57.723-1.12 1.274-1.59 1.642l-.29-.11c-.1-.037-.205-.056-.314-.056h-.26c.423-.286.83-.65 1.145-.985zm.727 1.513c.592-.545 1.083-1.148 1.306-1.432.222-.287.695-.925 1.108-1.68.04 1.494-.11 3.012-.62 3.58l-.06.088h-.2l-1.53-.557zm7.794-2.23c.06-.593.06-1.124.05-1.458l1.86-.638.03.56c.06 1.338 1.55 2.293 2.75 3.06.39.25.76.484.95.66.15.14.18.365.14.603h-6.61c.45-.597.74-1.53.85-2.788z" fill="#67747C"/><path d="M29.49 107.353h-2.07c.043-.197.06-.41.05-.637-.034-.803-.69-1.727-2.003-2.825-.528-.44-1.048-.81-1.4-1.05.728-1.07.685-2.18.554-2.86 1.41-.13 4.94-.9 4.94-5.29 0-3.21-3.18-4.42-6-5.48-2.2-.83-4.28-1.62-4.35-3.16-.11-2.49 1.91-2.77 2.52-2.8h.17c.86 0 1.4.33 1.41.85.01.31-.19.64-.49.66h-.06c-.26 0-.26-.02-.33-.27-.06-.23-.21-.78-.86-.78h-.05c-.45.02-.76.39-.75.9.02.81.82 1.95 2.09 1.9.77-.03 1.45-.39 1.92-.99.41-.52.63-1.2.61-1.82-.06-1.27-1.37-2.65-3.4-2.65l-.2.01c-2.34.107-5.02 1.52-4.86 5.156.15 3.31 2.97 4.36 5.45 5.283 2.11.78 3.94 1.46 4.02 3.27.02.5-.12.91-.43 1.25-.71.77-2.09.95-2.56.99-1.01-.79-3.502-1.67-5.39-1.67h-.263c-1.54.067-3.66.5-4.57.697-.25-.83-.94-2.48-2.414-2.414-.63.024-1.08.24-1.36.64-.23.345-.264.734-.24 1.025-.65.34-1.47 1.096-1.415 2.324.033.81.42 1.78 2.07 1.78l.49-.016.13-.01c.04.05.176.24.274.94.09.58.12 1.3.14 1.94l.018.3c.06 1.31-2.09 3.29-2.845 3.33-.44.02-.71.21-.84.44h-1.2l-1.552-.694L7.23 92.2l.03-.147.538-2.57c.576-.212 1.986-.83 3.058-2.09 1.35-1.59 1.625-3.564 1.636-3.647.02-.157-.04-.314-.156-.417-.117-.1-.28-.14-.43-.1-.08.02-1.89.56-3.235 2.08l.31-1.47c.06-.26-.1-.5-.35-.56-.25-.06-.49.11-.55.36l-1.02 4.88c-.4-1.23-1.02-2.06-1.05-2.1-.09-.13-.24-.2-.4-.19-.15.01-.29.1-.37.24-.04.07-.98 1.82-.82 3.91.16 2.09 1.34 3.68 1.39 3.75l.07.07-.28 1.37c-.07-.28-.16-.57-.28-.85-.73-1.75-2.19-2.76-2.25-2.8-.13-.09-.29-.11-.44-.05-.14.06-.24.19-.27.34-.01.075-.32 1.84.41 3.57.67 1.608 1.97 2.59 2.21 2.76l-1.38 6.6-1.26-.563c-.46-.21-1.01.006-1.22.48-.21.474 0 1.03.47 1.24l3.87 1.73c.12.055.25.08.38.08h3.53l2.83 1.03c.1.04.21.06.31.06h17c.51 0 .93-.42.93-.94 0-.515-.414-.935-.926-.935zM5.7 87.703c.31.594.684 1.498.76 2.523.076 1.024-.16 1.975-.383 2.608-.313-.593-.686-1.498-.762-2.52-.075-1.026.16-1.977.383-2.61zm5.672-3.27c-.192.64-.558 1.547-1.224 2.33-.663.78-1.494 1.282-2.093 1.57.193-.64.558-1.546 1.224-2.328.66-.78 1.49-1.282 2.09-1.572zM3.185 93.28c.412.41.93 1.03 1.253 1.81.327.783.404 1.59.406 2.175-.412-.408-.926-1.026-1.254-1.812-.325-.782-.404-1.587-.405-2.172zm7.185 12.003c.43-.456 1.422-1.646 1.37-2.826l-.014-.296c-.076-1.85-.156-3.78-1.313-3.78l-.04.01-.156.01-.445.02c-.817 0-1.118-.23-1.146-.88-.05-1.14 1.104-1.54 1.15-1.55.242-.08.375-.34.3-.58-.032-.11-.088-.44.047-.63.126-.18.417-.23.638-.24h.05c1.09 0 1.54 2.11 1.55 2.13.03.13.1.24.2.3.11.07.24.1.36.07.03-.01 2.96-.69 4.84-.77 1.87-.08 4.46.92 5.15 1.55.09.08.21.13.33.13.09-.002 2.25-.07 3.38-1.3.49-.52.71-1.17.68-1.92-.11-2.43-2.4-3.28-4.62-4.11-2.43-.9-4.72-1.75-4.84-4.44-.13-2.942 1.98-4.09 3.99-4.18 1.67-.08 2.61.99 2.65 1.75.02.39-.13.83-.39 1.178.13-.24.19-.514.19-.81-.01-.484-.22-.93-.61-1.24-.41-.343-.99-.52-1.72-.52l-.21.006c-1.64.07-3.52 1.11-3.4 3.78.09 2.15 2.45 3.045 4.95 3.99 2.66 1.006 5.4 2.05 5.4 4.606 0 4.177-3.772 4.39-4.53 4.39h-.065c-.16-.01-.31.07-.4.2-.09.13-.11.3-.05.45.028.063.638 1.606-.544 2.914-.095.1-.137.24-.12.38.02.14.09.26.21.337 1.39.867 3.36 2.496 3.4 3.41.01.236-.02.43-.09.596h-.87c.04-.47-.06-.94-.443-1.3-.25-.23-.63-.47-1.07-.76-.96-.61-2.274-1.46-2.31-2.31l-.05-1.18v-.03c-.03-.35-.31-.45-.46-.45-.11 0-.21.04-.3.11l-2.614.9c-.2.07-.323.268-.31.478.05.83.017 3.19-.763 4.07-.18.2-.38.3-.62.31l-.39.02c.653-1.413.61-3.844.462-7.17-.01-.26-.23-.46-.485-.45-.253.01-.452.23-.44.49v.006c.22 5.09-.505 6.83-.714 7.22l-.053.05h-1.09c.887-1.86.39-5.658.325-6.13-.04-.247-.26-.42-.504-.4-.25.024-.43.24-.42.49.03.78-.62 2.14-1.65 3.47-.57.73-1.12 1.28-1.59 1.65l-.293-.11c-.1-.034-.21-.05-.32-.05h-.26c.42-.28.83-.65 1.143-.98zm.727 1.513c.592-.545 1.083-1.148 1.306-1.432.222-.287.695-.925 1.108-1.68.04 1.494-.11 3.012-.62 3.58l-.06.088h-.2l-1.53-.557zm7.794-2.23c.06-.593.06-1.124.05-1.458l1.86-.638.03.56c.06 1.338 1.55 2.293 2.75 3.06.39.25.76.484.95.66.15.14.18.365.14.603h-6.61c.45-.597.74-1.53.85-2.788z" fill="#fff"/><path d="M29.49 147.353h-2.07c.043-.197.06-.41.05-.637-.034-.803-.69-1.727-2.003-2.825-.528-.44-1.048-.81-1.4-1.05.728-1.07.685-2.18.554-2.86 1.41-.13 4.94-.9 4.94-5.29 0-3.21-3.18-4.42-6-5.48-2.2-.83-4.28-1.62-4.35-3.16-.11-2.49 1.91-2.77 2.52-2.8h.17c.86 0 1.4.33 1.41.85.01.31-.19.64-.49.66h-.06c-.26 0-.26-.02-.33-.27-.06-.23-.21-.78-.86-.78h-.05c-.45.02-.76.39-.75.9.02.81.82 1.95 2.09 1.9.77-.03 1.45-.39 1.92-.99.41-.52.63-1.2.61-1.82-.06-1.27-1.37-2.65-3.4-2.65l-.2.01c-2.34.107-5.02 1.52-4.86 5.156.15 3.31 2.97 4.36 5.45 5.283 2.11.78 3.94 1.46 4.02 3.27.02.5-.12.91-.43 1.25-.71.77-2.09.95-2.56.99-1.01-.79-3.502-1.67-5.39-1.67h-.263c-1.54.067-3.66.5-4.57.697-.25-.83-.94-2.48-2.414-2.414-.63.024-1.08.24-1.36.64-.23.345-.264.734-.24 1.025-.65.34-1.47 1.096-1.415 2.324.033.81.42 1.78 2.07 1.78l.49-.016.13-.01c.04.05.176.24.274.94.09.58.12 1.3.14 1.94l.018.3c.06 1.31-2.09 3.29-2.845 3.33-.44.02-.71.21-.84.44h-1.2l-1.552-.694 2.795-13.4.03-.15.54-2.57c.58-.218 1.99-.83 3.06-2.09 1.35-1.59 1.63-3.57 1.64-3.65.02-.16-.04-.318-.15-.42-.11-.1-.28-.14-.43-.09-.08.023-1.89.57-3.23 2.083l.308-1.47c.055-.25-.106-.5-.356-.553-.25-.06-.49.1-.55.36l-1.01 4.87c-.4-1.23-1.02-2.05-1.05-2.1-.09-.13-.24-.198-.4-.18-.15.01-.29.1-.37.24-.04.07-.98 1.82-.82 3.912.16 2.09 1.34 3.682 1.39 3.75l.07.074-.28 1.37c-.07-.28-.16-.57-.28-.85-.723-1.738-2.183-2.75-2.244-2.79-.13-.088-.3-.1-.44-.04-.15.06-.25.19-.28.35-.013.07-.32 1.84.406 3.57.665 1.6 1.97 2.59 2.205 2.76l-1.37 6.61-1.27-.57c-.465-.21-1.013 0-1.22.48-.21.47 0 1.03.47 1.24l3.867 1.73c.11.054.24.08.37.08h3.53l2.83 1.03c.1.04.206.06.31.06h17c.51 0 .926-.42.926-.93s-.42-.94-.93-.94zM5.7 127.703c.31.594.684 1.498.76 2.523.076 1.024-.16 1.975-.383 2.608-.313-.593-.686-1.498-.762-2.52-.075-1.026.16-1.977.383-2.61zm5.672-3.27c-.192.64-.558 1.547-1.224 2.33-.663.78-1.494 1.282-2.093 1.57.193-.64.558-1.546 1.224-2.328.66-.78 1.49-1.282 2.09-1.572zm-8.187 8.848c.412.41.93 1.03 1.253 1.81.327.79.404 1.59.406 2.18-.412-.41-.926-1.02-1.254-1.81-.325-.78-.404-1.58-.405-2.17zm7.185 12.01c.43-.45 1.422-1.64 1.37-2.82l-.014-.29c-.076-1.86-.156-3.78-1.313-3.78h-.04l-.156.01-.445.02c-.817 0-1.118-.23-1.146-.88-.05-1.13 1.103-1.53 1.15-1.55.242-.08.375-.34.3-.58-.032-.11-.088-.44.047-.63.126-.18.417-.23.638-.24h.05c1.09 0 1.54 2.11 1.55 2.13.03.13.1.24.2.3.11.07.24.1.36.07.03-.01 2.96-.69 4.84-.77 1.87-.08 4.46.917 5.15 1.55.09.08.21.13.33.12.09 0 2.25-.06 3.38-1.29.49-.522.71-1.17.68-1.93-.11-2.433-2.4-3.285-4.62-4.11-2.43-.902-4.72-1.755-4.84-4.443-.13-2.942 1.98-4.09 3.99-4.18 1.67-.074 2.61.99 2.65 1.75.02.397-.13.835-.39 1.18.13-.24.19-.515.19-.81-.01-.485-.22-.93-.61-1.242-.41-.34-.99-.52-1.72-.52l-.21.01c-1.64.07-3.52 1.11-3.4 3.78.09 2.155 2.45 3.05 4.95 3.99 2.66 1.01 5.4 2.05 5.4 4.61 0 4.18-3.772 4.39-4.53 4.39h-.065c-.16-.01-.31.07-.4.2-.09.13-.11.3-.05.45.028.063.638 1.606-.544 2.914-.095.107-.137.246-.12.38.02.14.09.265.21.34 1.39.863 3.36 2.49 3.4 3.41.01.23-.02.427-.09.593h-.87c.04-.47-.06-.94-.443-1.29-.25-.23-.63-.475-1.07-.76-.96-.615-2.274-1.46-2.31-2.31l-.05-1.18v-.03c-.03-.357-.31-.45-.46-.45-.11 0-.21.04-.3.11l-2.614.9c-.2.064-.323.26-.31.47.05.833.017 3.19-.763 4.07-.18.2-.38.3-.62.31l-.39.02c.653-1.414.61-3.845.462-7.17-.01-.26-.23-.46-.485-.45-.253.01-.452.23-.44.49v.003c.22 5.095-.505 6.833-.714 7.22l-.053.05h-1.09c.887-1.85.39-5.65.325-6.122-.04-.246-.26-.42-.504-.4-.25.025-.43.24-.42.49.03.775-.62 2.137-1.65 3.47-.57.725-1.12 1.276-1.59 1.644l-.293-.11c-.1-.032-.21-.05-.32-.05h-.26c.42-.287.83-.65 1.143-.986zm.727 1.52c.592-.54 1.083-1.15 1.306-1.43.222-.28.695-.92 1.108-1.68.04 1.5-.11 3.02-.62 3.58l-.06.09h-.2l-1.53-.55zm7.794-2.23c.06-.59.06-1.12.05-1.46l1.86-.64.03.56c.06 1.34 1.55 2.3 2.75 3.06.39.25.76.49.95.66.15.14.18.37.14.61h-6.61c.45-.59.74-1.53.85-2.79z" fill="#206FAC"/></g></svg>