<svg width="32" height="232" viewBox="0 0 32 232" xmlns="http://www.w3.org/2000/svg"><g fill="none"><path d="M10.9 137.49c.103 0 .206-.032.297-.1l1.635-1.22c.24-.18.3-.536.137-.798-.17-.262-.5-.33-.73-.15l-1.64 1.22c-.24.18-.3.537-.14.8.1.16.26.25.43.25zm-7.13-4.008c-.24.18-.3.536-.137.798l1.117 1.787c.102.162.267.25.434.25.102 0 .205-.033.296-.1.24-.18.3-.536.137-.798L4.5 133.63c-.164-.262-.49-.33-.73-.15zm-2.483 5.278l2.078.427.098.01c.248 0 .47-.192.516-.47.05-.31-.14-.61-.42-.67l-2.08-.425c-.29-.058-.56.147-.62.458-.06.312.13.612.42.67zm6.852-6.103l-.4 2.272c-.06.31.13.61.42.67l.09.01c.248 0 .47-.2.517-.47l.39-2.27c.055-.32-.133-.62-.42-.68-.284-.06-.56.14-.61.46zM10.8 134c-.242-.176-.567-.104-.727.16l-.74 1.225c-.16.264-.092.62.15.795.09.065.19.095.29.095.17 0 .337-.09.438-.258l.74-1.224c.16-.265.1-.62-.14-.795zm-8.136 2.647l1.12.808c.088.064.19.095.288.095.17 0 .338-.09.44-.258.16-.265.092-.62-.15-.795l-1.12-.808c-.242-.18-.567-.11-.727.16-.16.26-.093.62.15.79zm3.642-3.598c-.284.06-.467.36-.41.67l.27 1.43c.05.272.27.46.514.46l.106-.013c.284-.064.468-.367.41-.677l-.27-1.434c-.058-.31-.335-.51-.62-.45zM4 129.81c.31-.284.75-.288 1.06-.036l.01.025c.088.2.273.33.477.33h.063c.204 0 .39-.13.476-.338l.01-.025c.312-.253.753-.248 1.062.035.222.206.553.175.74-.07.187-.242.158-.604-.064-.81-.653-.6-1.57-.635-2.255-.16-.69-.475-1.61-.44-2.26.16-.22.206-.25.568-.07.81.18.244.52.276.74.07zm5.216-2.005h1.825v.11c0 .36.14.704.39.942.21.202.48.313.76.313h3.84c.64 0 1.15-.565 1.15-1.258s-.51-1.26-1.15-1.26h-.11l.03-.3c0-.795-.59-1.444-1.32-1.444H9.22c-.32 0-.63.13-.874.363-.285.28-.45.67-.45 1.09 0 .416.164.81.45 1.086.242.235.553.363.874.363zm-.18-1.67c.036-.034.096-.075.18-.075h5.405c.15 0 .28.134.28.298 0 .166-.12.3-.27.3-.29 0-.52.257-.52.574h-.01c0 .316.236.573.526.573h1.41c.055 0 .1.05.1.11s-.045.11-.1.11h-3.84l-.07-.03-.034-.08.036-.084.065-.03h.003c.29 0 .526-.25.526-.57 0-.312-.236-.57-.527-.57h-2.98c-.083 0-.143-.04-.18-.075-.033-.035-.09-.11-.09-.225s.057-.19.092-.225zm22.36 19.41c-.6 0-.925.17-1.187.304-.22.11-.38.19-.75.19l-.3-.028c.08-.333.023-.7-.184-.995l-1.4-1.98c-.11-.158-.254-.28-.42-.357l-2.73-1.276c0-.59.06-1.36.27-2.245.36-1.486.95-2.457 1.253-2.887 1.07.15 3.66.58 5.194 1.44.077.043.16.064.24.064.153 0 .303-.07.406-.21.16-.21.16-.51.008-.72-.063-.086-1.515-2.05-4.07-2.17.984-.673 2.188-1.4 3.2-1.71.24-.07.398-.32.38-.588-.013-.27-.2-.494-.443-.534-.02-.005-.236-.04-.58-.04-.822 0-2.59.21-4.052 1.788l-.053-.268c-.27-1.21-.99-2.9-2.92-4.083-.218-.133-.487-.084-.65.116-.165.2-.18.5-.038.714.018.03 1.512 2.334 2.312 4.45-.258-.053-.55-.09-.87-.09-1.19 0-2.308.517-3.228 1.496-.178.19-.21.485-.083.714.1.172.27.272.448.272l.17-.03c.025-.01 1.92-.72 3.51-.886-.37.61-.835 1.566-1.15 2.86-.16.68-.244 1.303-.28 1.846l-1.07-.9c-.18-.15-.403-.235-.63-.237l-1.57-.01c.035-.6.01-1.47-.236-2.5-.26-1.08-.65-1.868-.95-2.367 1.61-.662 3.92-.916 3.95-.92.24-.026.44-.234.47-.5.03-.266-.118-.52-.35-.61-.59-.23-1.183-.35-1.76-.35-.782 0-1.447.213-1.982.49.65-1.41 1.49-2.71 1.5-2.73.145-.218.13-.515-.034-.715-.167-.2-.436-.25-.65-.117-1.467.896-2.143 2.213-2.406 3.38-1.176-1.175-2.55-1.333-3.203-1.333-.285 0-.465.03-.485.033-.248.04-.43.26-.448.53-.015.27.143.518.38.59.93.29 2.064 1.01 2.9 1.61-2.324.594-3.16 2.798-3.198 2.906-.094.25-.01.537.192.69.09.064.193.097.295.097.132 0 .263-.053.363-.16.93-.976 2.675-1.903 3.53-2.325.25.4.62 1.1.86 2.09.227.94.234 1.716.2 2.207-.506 0-.92.002-1.06.013-.15.01-.562.04-1.502.74l-1.886-.688c-.103-.04-.214-.06-.33-.06h-3.58l-.264.04-3.054.867-.218.09L4 142.36c-.136.075-.254.18-.347.31l-1.882 2.61c-.11.15-.17.323-.2.5-.24-.115-.55-.23-1.04-.23-.29 0-.52.258-.52.575 0 .318.235.575.525.575.364 0 .52.08.74.193.263.14.59.307 1.19.307s.925-.168 1.187-.302c.217-.11.375-.192.74-.192s.52.08.74.194c.263.136.59.303 1.19.303s.925-.17 1.187-.304c.215-.12.373-.2.74-.2.362 0 .52.08.74.193.26.134.59.302 1.19.302s.922-.17 1.184-.303c.22-.11.377-.19.74-.19s.524.08.74.192c.26.133.59.3 1.19.3s.925-.17 1.187-.303c.22-.11.377-.192.74-.192s.524.08.743.193c.26.137.587.304 1.187.304s.926-.165 1.19-.3c.216-.11.374-.19.74-.19s.522.08.74.194c.262.138.59.305 1.19.305s.924-.168 1.186-.302c.22-.11.378-.19.74-.19s.525.08.744.194c.26.137.59.304 1.19.304s.924-.17 1.187-.304c.22-.11.38-.19.74-.19h.067c.197.133.42.193.646.173l.04.02c.262.13.59.3 1.19.3s.925-.17 1.187-.3c.22-.117.376-.198.74-.198.292 0 .527-.26.527-.577 0-.316-.238-.574-.53-.574zm-5.046.304c-.218.11-.376.19-.74.19s-.524-.08-.742-.198c-.262-.135-.588-.303-1.188-.303s-.926.17-1.188.303c-.218.115-.376.196-.74.196-.365 0-.524-.08-.742-.193-.262-.135-.588-.303-1.19-.303-.598 0-.925.17-1.187.303-.218.115-.376.196-.74.196-.365 0-.523-.08-.742-.192-.26-.136-.58-.304-1.18-.304s-.92.17-1.19.302c-.22.11-.37.19-.74.19-.36 0-.52-.08-.74-.193-.26-.136-.59-.304-1.19-.304s-.92.17-1.19.306c-.22.113-.37.194-.74.194s-.52-.08-.74-.193c-.26-.135-.59-.303-1.19-.303s-.93.167-1.19.302c-.22.113-.38.194-.74.194s-.52-.08-.74-.192c-.26-.132-.59-.3-1.19-.3h-.13l.91-1.263 2.88-1.613 2.81-.798h3.284l2.23.81c.327.116.687.052.963-.175.327-.267.74-.555.92-.643.38-.01 1.756-.005 3.087.006l1.464 1.234.227.147 3.057 1.43.695.98c-.172.058-.31.128-.433.19z" fill="#206FAC"/><path d="M10.9 97.49c.103 0 .206-.032.297-.1l1.635-1.22c.24-.18.3-.536.137-.798-.17-.262-.5-.33-.73-.15l-1.64 1.22c-.24.18-.3.537-.14.8.1.16.26.25.43.25zm-7.13-4.008c-.24.18-.3.536-.137.798l1.117 1.787c.102.162.267.25.434.25.102 0 .205-.033.296-.1.24-.18.3-.536.137-.798L4.5 93.63c-.164-.262-.49-.33-.73-.15zM1.287 98.76l2.078.427.098.01c.248 0 .47-.192.516-.47.05-.31-.14-.61-.42-.67l-2.08-.425c-.29-.058-.56.147-.62.458-.06.312.13.612.42.67zm6.852-6.103l-.4 2.273c-.06.31.13.61.42.67l.09.01c.247 0 .47-.2.516-.47l.39-2.27c.055-.32-.133-.618-.42-.678-.284-.058-.56.147-.61.46zM10.8 94c-.242-.176-.567-.104-.727.16l-.74 1.225c-.16.264-.092.62.15.795.09.065.19.095.29.095.17 0 .337-.09.438-.258l.74-1.224c.16-.265.1-.62-.14-.795zm-8.136 2.647l1.12.808c.088.064.19.095.288.095.17 0 .338-.09.44-.258.16-.265.092-.62-.15-.795l-1.12-.808c-.242-.18-.567-.11-.727.16-.16.26-.093.62.15.79zm3.642-3.598c-.284.06-.467.36-.41.67l.27 1.43c.05.272.27.46.514.46l.106-.013c.284-.064.468-.367.41-.677l-.27-1.434c-.058-.31-.335-.51-.62-.45zM4 89.81c.31-.284.75-.288 1.06-.036l.01.025c.088.2.273.33.477.33h.063c.204 0 .39-.13.476-.338l.01-.025c.312-.253.753-.248 1.062.035.222.206.553.175.74-.07.187-.242.158-.604-.064-.81-.653-.6-1.57-.635-2.255-.16-.69-.475-1.61-.44-2.26.16-.22.206-.25.568-.07.81.18.244.52.276.74.07zm5.216-2.005h1.825v.11c0 .36.14.704.39.942.21.202.48.313.76.313h3.84c.64 0 1.15-.565 1.15-1.258s-.51-1.26-1.15-1.26h-.11l.03-.3c0-.795-.59-1.444-1.32-1.444H9.22c-.32 0-.63.13-.874.363-.285.28-.45.67-.45 1.09 0 .416.164.81.45 1.086.242.235.553.363.874.363zm-.18-1.67c.036-.034.096-.075.18-.075h5.405c.15 0 .28.134.28.298 0 .166-.12.3-.27.3-.29 0-.52.257-.52.574h-.01c0 .316.236.573.526.573h1.41c.055 0 .1.05.1.11s-.045.11-.1.11h-3.84l-.07-.03-.034-.08.036-.084.065-.03h.003c.29 0 .526-.25.526-.57 0-.312-.236-.57-.527-.57h-2.98c-.083 0-.143-.04-.18-.075-.033-.035-.09-.11-.09-.225s.057-.19.092-.225zm22.36 19.41c-.6 0-.925.17-1.187.304-.22.11-.38.19-.75.19l-.3-.028c.08-.333.023-.7-.184-.995l-1.4-1.98c-.11-.158-.254-.28-.42-.357l-2.73-1.276c0-.59.06-1.36.27-2.245.36-1.486.95-2.457 1.253-2.887 1.07.15 3.66.58 5.194 1.44.077.043.16.064.24.064.153 0 .303-.07.406-.21.16-.21.16-.51.008-.72-.063-.086-1.515-2.05-4.07-2.17.984-.673 2.188-1.4 3.2-1.71.24-.07.398-.32.38-.588-.013-.27-.2-.494-.443-.534-.02-.005-.236-.04-.58-.04-.822 0-2.59.21-4.052 1.788l-.053-.268c-.27-1.21-.99-2.9-2.92-4.083-.218-.133-.487-.084-.65.116-.165.2-.18.5-.038.714.018.03 1.512 2.334 2.312 4.45-.258-.053-.55-.09-.87-.09-1.19 0-2.308.517-3.228 1.496-.178.19-.21.485-.083.714.1.172.27.272.448.272l.17-.03c.025-.01 1.92-.72 3.51-.886-.37.61-.835 1.566-1.15 2.86-.16.68-.244 1.303-.28 1.846l-1.07-.9c-.18-.15-.403-.235-.63-.237l-1.57-.01c.035-.6.01-1.47-.236-2.5-.26-1.08-.65-1.868-.95-2.367 1.61-.662 3.92-.916 3.95-.92.24-.026.44-.234.47-.5.03-.266-.118-.52-.35-.61-.59-.23-1.183-.35-1.76-.35-.782 0-1.447.213-1.982.49.65-1.41 1.49-2.71 1.5-2.73.145-.218.13-.515-.034-.715-.167-.2-.436-.25-.65-.117-1.467.896-2.143 2.213-2.406 3.38-1.176-1.175-2.55-1.333-3.203-1.333-.285 0-.465.03-.485.033-.248.04-.43.26-.448.53-.015.27.143.518.38.59.93.29 2.064 1.01 2.9 1.61-2.324.594-3.16 2.798-3.198 2.906-.094.25-.01.537.192.69.09.064.193.097.295.097.132 0 .263-.053.363-.16.93-.976 2.675-1.903 3.53-2.325.25.4.62 1.1.86 2.09.227.94.234 1.716.2 2.207-.506 0-.92.002-1.06.013-.15.01-.562.04-1.502.74l-1.886-.688c-.103-.04-.214-.06-.33-.06h-3.58l-.264.04-3.054.867-.218.09L4 102.36c-.136.075-.254.18-.347.31l-1.882 2.61c-.11.15-.17.323-.2.5-.24-.115-.55-.23-1.04-.23-.29 0-.52.258-.52.575 0 .318.235.575.525.575.364 0 .52.08.74.193.263.14.59.307 1.19.307s.925-.168 1.187-.302c.217-.11.375-.192.74-.192s.52.08.74.194c.263.136.59.303 1.19.303s.925-.17 1.187-.304c.215-.12.373-.2.74-.2.362 0 .52.08.74.193.26.134.59.302 1.19.302s.922-.17 1.184-.303c.22-.11.377-.19.74-.19s.524.08.74.192c.26.133.59.3 1.19.3s.925-.17 1.187-.303c.22-.11.377-.192.74-.192s.524.08.743.193c.26.137.587.304 1.187.304s.926-.165 1.19-.3c.216-.11.374-.19.74-.19s.522.08.74.194c.262.138.59.305 1.19.305s.924-.168 1.186-.302c.22-.11.378-.19.74-.19s.525.08.744.194c.26.137.59.304 1.19.304s.924-.17 1.187-.304c.22-.11.38-.19.74-.19h.067c.197.133.42.193.646.173l.04.02c.262.13.59.3 1.19.3s.925-.17 1.187-.3c.22-.117.376-.198.74-.198.292 0 .527-.26.527-.577 0-.316-.238-.574-.53-.574zm-5.046.304c-.218.11-.376.19-.74.19s-.524-.08-.742-.198c-.262-.135-.588-.303-1.188-.303s-.926.17-1.188.303c-.218.115-.376.196-.74.196-.365 0-.524-.08-.742-.193-.262-.135-.588-.303-1.19-.303-.598 0-.925.17-1.187.303-.218.115-.376.196-.74.196-.365 0-.523-.08-.742-.192-.26-.136-.58-.304-1.18-.304s-.92.17-1.19.302c-.22.11-.37.19-.74.19-.36 0-.52-.08-.74-.193-.26-.136-.59-.304-1.19-.304s-.92.17-1.19.306c-.22.113-.37.194-.74.194s-.52-.08-.74-.193c-.26-.135-.59-.303-1.19-.303s-.93.167-1.19.302c-.22.113-.38.194-.74.194s-.52-.08-.74-.192c-.26-.132-.59-.3-1.19-.3h-.13l.91-1.263 2.88-1.613 2.81-.798h3.284l2.23.81c.327.116.687.052.963-.175.327-.267.74-.555.92-.643.38-.01 1.756-.005 3.087.006l1.464 1.234.227.147 3.057 1.43.695.98c-.172.058-.31.128-.433.19z" fill="#fff"/><path d="M10.9 57.49c.103 0 .206-.032.297-.1l1.635-1.22c.24-.18.3-.536.137-.798-.17-.262-.5-.33-.73-.15l-1.64 1.22c-.24.18-.3.537-.14.8.1.16.26.25.43.25zm-7.13-4.008c-.24.18-.3.536-.137.798l1.117 1.787c.102.162.267.25.434.25.102 0 .205-.033.296-.1.24-.18.3-.536.137-.798L4.5 53.63c-.164-.262-.49-.33-.73-.15zM1.287 58.76l2.078.427.098.01c.248 0 .47-.192.516-.47.05-.31-.14-.61-.42-.67l-2.08-.425c-.29-.058-.56.147-.62.458-.06.312.13.612.42.67zm6.852-6.103l-.4 2.273c-.06.31.13.61.42.67l.09.01c.247 0 .47-.2.516-.47l.39-2.27c.055-.32-.133-.618-.42-.678-.284-.058-.56.147-.61.46zM10.8 54c-.242-.176-.567-.104-.727.16l-.74 1.225c-.16.264-.092.62.15.795.09.065.19.095.29.095.17 0 .337-.09.438-.258l.74-1.224c.16-.265.1-.62-.14-.795zm-8.136 2.647l1.12.808c.088.064.19.095.288.095.17 0 .338-.09.44-.258.16-.265.092-.62-.15-.795l-1.12-.808c-.242-.18-.567-.11-.727.16-.16.26-.093.62.15.79zm3.642-3.598c-.284.06-.467.36-.41.67l.27 1.43c.05.272.27.46.514.46l.106-.013c.284-.064.468-.367.41-.677l-.27-1.434c-.058-.31-.335-.51-.62-.45zM4 49.81c.31-.284.75-.288 1.06-.036l.01.025c.088.2.273.33.477.33h.063c.204 0 .39-.13.476-.338l.01-.025c.312-.253.753-.248 1.062.035.222.206.553.175.74-.07.187-.242.158-.604-.064-.81-.653-.6-1.57-.635-2.255-.16-.69-.475-1.61-.44-2.26.16-.22.206-.25.568-.07.81.18.244.52.276.74.07zm5.216-2.005h1.825v.11c0 .36.14.704.39.942.21.202.48.313.76.313h3.84c.64 0 1.15-.565 1.15-1.258s-.51-1.26-1.15-1.26h-.11l.03-.3c0-.795-.59-1.444-1.32-1.444H9.22c-.32 0-.63.13-.874.363-.285.28-.45.67-.45 1.09 0 .416.164.81.45 1.086.242.235.553.363.874.363zm-.18-1.67c.036-.034.096-.075.18-.075h5.405c.15 0 .28.134.28.298 0 .166-.12.3-.27.3-.29 0-.52.257-.52.574h-.01c0 .316.236.573.526.573h1.41c.055 0 .1.05.1.11s-.045.11-.1.11h-3.84l-.07-.03-.034-.08.036-.084.065-.03h.003c.29 0 .526-.25.526-.57 0-.312-.236-.57-.527-.57h-2.98c-.083 0-.143-.04-.18-.075-.033-.035-.09-.11-.09-.225s.057-.19.092-.225zm22.36 19.41c-.6 0-.925.17-1.187.304-.22.11-.38.19-.75.19l-.3-.028c.08-.333.023-.7-.184-.995l-1.4-1.98c-.11-.158-.254-.28-.42-.357l-2.73-1.276c0-.59.06-1.36.27-2.245.36-1.486.95-2.457 1.253-2.887 1.07.15 3.66.58 5.194 1.44.077.043.16.064.24.064.153 0 .303-.07.406-.21.16-.21.16-.51.008-.72-.063-.086-1.515-2.05-4.07-2.17.984-.673 2.188-1.4 3.2-1.71.24-.07.398-.32.38-.588-.013-.27-.2-.494-.443-.534-.02-.005-.236-.04-.58-.04-.822 0-2.59.21-4.052 1.788l-.053-.268c-.27-1.21-.99-2.9-2.92-4.083-.218-.133-.487-.084-.65.116-.165.2-.18.5-.038.714.018.03 1.512 2.334 2.312 4.45-.258-.053-.55-.09-.87-.09-1.19 0-2.308.517-3.228 1.496-.178.19-.21.485-.083.714.1.172.27.272.448.272l.17-.03c.025-.01 1.92-.72 3.51-.886-.37.61-.835 1.566-1.15 2.86-.16.68-.244 1.303-.28 1.846l-1.07-.9c-.18-.15-.403-.235-.63-.237l-1.57-.01c.035-.6.01-1.47-.236-2.5-.26-1.08-.65-1.868-.95-2.367 1.61-.662 3.92-.916 3.95-.92.24-.026.44-.234.47-.5.03-.266-.118-.52-.35-.61-.59-.23-1.183-.35-1.76-.35-.782 0-1.447.213-1.982.49.65-1.41 1.49-2.71 1.5-2.73.145-.218.13-.515-.034-.715-.167-.2-.436-.25-.65-.117-1.467.896-2.143 2.213-2.406 3.38-1.176-1.175-2.55-1.333-3.203-1.333-.285 0-.465.03-.485.033-.248.04-.43.26-.448.53-.015.27.143.518.38.59.93.29 2.064 1.01 2.9 1.61-2.324.594-3.16 2.798-3.198 2.906-.094.25-.01.537.192.69.09.064.193.097.295.097.132 0 .263-.053.363-.16.93-.976 2.675-1.903 3.53-2.325.25.4.62 1.1.86 2.09.227.94.234 1.716.2 2.207-.506 0-.92.002-1.06.013-.15.01-.562.04-1.502.74l-1.886-.688c-.103-.04-.214-.06-.33-.06h-3.58l-.264.04-3.054.867-.218.09L4 62.36c-.136.075-.254.18-.347.31L1.77 65.28c-.11.15-.172.323-.202.5-.24-.115-.548-.23-1.042-.23-.29 0-.524.258-.524.575 0 .318.236.575.526.575.364 0 .522.08.74.193.263.14.59.307 1.19.307s.925-.168 1.187-.302c.217-.11.375-.192.74-.192s.52.08.74.194c.263.136.59.303 1.19.303s.925-.17 1.187-.304c.216-.12.374-.2.74-.2.363 0 .52.08.74.193.26.134.59.302 1.19.302s.923-.17 1.185-.303c.218-.11.376-.19.74-.19s.523.08.742.192c.26.133.58.3 1.18.3s.925-.17 1.19-.303c.22-.11.375-.192.74-.192s.522.08.74.193c.263.137.59.304 1.19.304s.927-.165 1.19-.3c.217-.11.375-.19.74-.19s.523.08.74.194c.263.138.59.305 1.19.305s.925-.168 1.187-.302c.22-.11.38-.19.74-.19s.524.08.743.194c.26.137.59.304 1.19.304s.926-.17 1.19-.304c.22-.11.38-.19.74-.19h.067c.194.133.42.193.643.173l.04.02c.263.13.59.3 1.19.3s.926-.17 1.19-.3c.22-.117.375-.198.74-.198.29 0 .526-.26.526-.577 0-.316-.236-.574-.527-.574zm-5.046.304c-.218.11-.376.19-.74.19s-.524-.08-.742-.198c-.262-.135-.588-.303-1.188-.303s-.926.17-1.188.303c-.218.115-.376.196-.74.196-.365 0-.524-.08-.742-.193-.262-.135-.588-.303-1.19-.303-.598 0-.925.17-1.187.303-.218.115-.376.196-.74.196-.365 0-.523-.08-.742-.192-.26-.136-.58-.304-1.18-.304s-.92.17-1.19.302c-.22.11-.37.19-.74.19-.36 0-.52-.08-.74-.193-.26-.136-.59-.304-1.19-.304s-.92.17-1.19.306c-.22.113-.37.194-.74.194s-.52-.08-.74-.193c-.26-.135-.59-.303-1.19-.303s-.93.167-1.19.302c-.22.113-.38.194-.74.194s-.52-.08-.74-.192c-.26-.132-.59-.3-1.19-.3h-.13l.91-1.263 2.88-1.61 2.81-.8h3.285l2.23.81c.327.118.687.054.963-.173.327-.266.74-.554.92-.642.38-.01 1.756-.005 3.087.006l1.464 1.236.226.147 3.057 1.43.695.98c-.172.056-.31.126-.433.19z" fill="#67737B"/><path d="M10.9 17.49c.103 0 .206-.032.297-.1l1.635-1.22c.24-.18.3-.536.137-.798-.17-.262-.5-.33-.73-.15l-1.64 1.22c-.24.18-.3.537-.14.8.1.16.26.25.43.25zm-7.13-4.008c-.24.18-.3.536-.137.798l1.117 1.787c.102.162.267.25.434.25.102 0 .205-.033.296-.1.24-.18.3-.536.137-.798L4.5 13.63c-.164-.262-.49-.33-.73-.15zM1.287 18.76l2.078.427.098.01c.248 0 .47-.192.516-.47.05-.31-.14-.61-.42-.67l-2.08-.425c-.29-.058-.56.147-.62.458-.06.312.13.612.42.67zm6.852-6.103l-.4 2.273c-.06.31.13.61.42.67l.09.01c.247 0 .47-.2.516-.47l.39-2.27c.055-.32-.133-.618-.42-.678-.284-.058-.56.147-.61.46zM10.8 14c-.242-.176-.567-.104-.727.16l-.74 1.225c-.16.264-.092.62.15.795.09.065.19.095.29.095.17 0 .337-.09.438-.258l.74-1.224c.16-.265.1-.62-.14-.795zm-8.136 2.647l1.12.808c.088.064.19.095.288.095.17 0 .338-.09.44-.258.16-.265.092-.62-.15-.795l-1.12-.808c-.242-.18-.567-.11-.727.16-.16.26-.093.62.15.79zm3.642-3.598c-.284.06-.467.36-.41.67l.27 1.43c.05.272.27.46.514.46l.106-.013c.284-.064.468-.367.41-.677l-.27-1.434c-.058-.31-.335-.51-.62-.45zM4 9.81c.31-.284.75-.288 1.06-.036l.01.025c.088.2.273.33.477.33h.063c.204 0 .39-.13.476-.338l.01-.025c.312-.253.753-.248 1.062.035.222.206.553.175.74-.07.187-.242.158-.604-.064-.81-.653-.6-1.57-.635-2.255-.16-.69-.475-1.61-.44-2.26.16-.22.206-.25.568-.07.81.18.244.52.276.74.07zm5.216-2h1.825v.11c0 .36.14.705.39.943.21.203.48.314.76.314h3.84c.64 0 1.15-.565 1.15-1.258s-.51-1.26-1.15-1.26h-.11l.03-.3c0-.8-.59-1.45-1.32-1.45H9.22c-.32 0-.63.13-.874.36-.285.27-.45.67-.45 1.08 0 .415.164.81.45 1.085.242.234.553.362.874.362zm-.18-1.67c.036-.033.096-.074.18-.074h5.405c.15 0 .28.134.28.298 0 .165-.12.3-.27.3-.29 0-.52.256-.52.573h-.01c0 .316.236.573.526.573h1.41c.055 0 .1.05.1.11s-.045.11-.1.11h-3.84L12.12 8l-.035-.08.035-.083.064-.03h.002c.29 0 .526-.256.526-.573 0-.317-.235-.574-.526-.574H9.214c-.084 0-.144-.04-.18-.075-.034-.035-.092-.11-.092-.225s.058-.19.093-.223zm22.36 19.41c-.6 0-.925.17-1.187.305-.22.113-.38.194-.75.194l-.3-.03c.08-.34.023-.7-.184-1l-1.4-1.984c-.11-.157-.254-.278-.42-.356l-2.73-1.276c0-.59.06-1.363.27-2.247.36-1.483.95-2.454 1.253-2.884 1.07.15 3.66.584 5.194 1.443.077.043.16.064.24.064.153 0 .303-.072.406-.21.16-.21.16-.51.008-.72-.063-.086-1.515-2.05-4.07-2.17.984-.673 2.188-1.4 3.2-1.712.24-.07.398-.32.38-.586-.013-.27-.2-.493-.443-.533-.02-.005-.236-.04-.58-.04-.822 0-2.59.21-4.052 1.788l-.053-.265c-.27-1.21-.99-2.9-2.92-4.083-.218-.133-.487-.084-.65.116-.165.2-.18.5-.038.716.018.028 1.512 2.333 2.312 4.45-.258-.054-.55-.09-.87-.09-1.19 0-2.308.516-3.228 1.495-.178.19-.21.485-.083.714.1.173.27.273.448.273l.17-.03c.025-.01 1.92-.72 3.51-.886-.37.61-.835 1.568-1.15 2.86-.16.68-.244 1.305-.28 1.848l-1.07-.9c-.18-.15-.403-.237-.63-.24l-1.57-.01c.035-.6.01-1.47-.236-2.5-.26-1.07-.65-1.86-.95-2.36 1.61-.663 3.92-.917 3.95-.92.24-.027.44-.235.47-.5.03-.268-.118-.52-.35-.61-.59-.23-1.183-.35-1.76-.35-.782 0-1.447.21-1.982.49.65-1.41 1.49-2.71 1.5-2.73.145-.22.13-.517-.034-.717-.167-.2-.436-.25-.65-.114-1.467.895-2.143 2.212-2.406 3.38-1.176-1.176-2.55-1.334-3.203-1.334-.285 0-.465.03-.485.034-.248.04-.43.26-.448.53-.015.27.143.514.38.59.93.285 2.064 1.01 2.9 1.606-2.324.592-3.16 2.796-3.198 2.904-.094.25-.01.537.192.69.09.064.193.097.295.097.132 0 .263-.05.363-.16.93-.974 2.675-1.9 3.53-2.323.25.4.62 1.1.86 2.094.227.94.234 1.718.2 2.21-.506 0-.92.005-1.06.016-.15.01-.562.04-1.502.74l-1.886-.69c-.103-.04-.214-.06-.33-.06h-3.58l-.264.038-3.054.87-.218.09L4 22.358c-.136.074-.254.18-.347.31l-1.882 2.61c-.11.15-.17.322-.2.5-.24-.116-.55-.23-1.04-.23-.29 0-.52.257-.52.574 0 .318.235.575.525.575.364 0 .52.08.74.193.263.14.59.308 1.19.308s.925-.168 1.187-.302c.217-.11.375-.192.74-.192s.52.08.74.194c.263.136.59.303 1.19.303s.925-.17 1.187-.3c.215-.11.373-.19.74-.19.362 0 .52.08.74.195.26.135.59.303 1.19.303s.922-.167 1.184-.3c.22-.11.377-.193.74-.193s.524.08.74.19c.26.135.59.3 1.19.3s.925-.17 1.187-.3c.22-.11.377-.194.74-.194s.524.08.743.193c.26.135.587.3 1.187.3s.926-.163 1.19-.3c.216-.11.374-.19.74-.19s.522.08.74.194c.262.136.59.303 1.19.303s.924-.17 1.186-.304c.22-.11.378-.19.74-.19s.525.08.744.193c.26.135.59.302 1.19.302s.924-.17 1.187-.3c.22-.11.38-.193.74-.193l.067.002c.197.13.42.19.646.17l.04.02c.262.135.59.3 1.19.3s.925-.166 1.187-.3c.22-.112.376-.193.74-.193.292 0 .527-.26.527-.578 0-.313-.238-.57-.53-.57zm-5.046.305c-.218.113-.376.194-.74.194s-.524-.08-.742-.2c-.262-.14-.588-.31-1.188-.31s-.926.17-1.188.304c-.218.113-.376.194-.74.194-.365 0-.524-.08-.742-.193-.262-.135-.588-.303-1.19-.303-.598 0-.925.17-1.187.302-.218.112-.376.193-.74.193-.365 0-.523-.08-.742-.195-.26-.138-.58-.306-1.18-.306s-.92.17-1.19.302c-.22.113-.37.194-.74.194-.36 0-.52-.08-.74-.192-.26-.134-.59-.3-1.19-.3s-.92.17-1.19.302c-.22.113-.37.194-.74.194s-.52-.08-.74-.19c-.26-.135-.59-.303-1.19-.303s-.93.17-1.19.304c-.22.116-.38.197-.74.197s-.52-.08-.74-.195c-.26-.136-.59-.304-1.19-.304h-.13l.91-1.26 2.88-1.614 2.81-.797h3.284l2.23.81c.327.12.687.054.963-.173.327-.268.74-.556.92-.644.38-.01 1.756-.006 3.087.005l1.464 1.234.227.15 3.057 1.43.695.98c-.172.055-.31.125-.433.19z" fill="#3A434E"/></g></svg>