<svg width="32" height="232" viewBox="0 0 32 232" xmlns="http://www.w3.org/2000/svg"><g fill="none"><path d="M31.516 147.766c-.28 0-.4-.05-.568-.12l-.164-.066.022-.214c0-.56-.423-1.012-.943-1.012h-2.31v-5.997l2.53-2.214c.375-.33.457-.91.188-1.344-.26-.44-.8-.58-1.22-.34l-1.49.85v-2.6c0-.28-.21-.51-.47-.51h-1.02v-1.67c0-1.78-1.56-3.21-2.14-3.68v-1.19c.14-.09.23-.26.23-.44 0-.19-.09-.36-.24-.45l-.02-.02-.01-.03c-.08-.16-.24-.27-.41-.27-.17 0-.33.1-.41.26l-.01.02-.02.02c-.15.09-.24.26-.24.44 0 .17.09.34.23.43v1.182c-.12.1-.3.25-.49.44h-.32c.05-.16.08-.33.08-.51 0-.84-.634-1.52-1.414-1.52h-5.62c-.347 0-.68.135-.94.38-.3.29-.48.703-.48 1.14 0 .433.18.85.48 1.135.26.24.595.38.94.38h1.56l-.03.283c0 .37.15.728.41.975.22.21.51.32.8.32h2.95c-.04.21-.07.42-.07.64v4.15h-.64v-1.98c0-.28-.21-.51-.47-.51h-.56v-1.23c0-.28-.21-.505-.47-.505s-.47.23-.47.508v1.23h-.56c-.26 0-.474.23-.474.51v1.98h-1.28v-.924c0-.28-.21-.506-.47-.506h-1.82c-.26 0-.47.226-.47.505v.93h-.8c-.26 0-.48.222-.48.5v8.41c-.257.07-.527.136-.81.2l-.39-19.36c-.004-.203-.065-.4-.175-.566L9.335 124c-.176-.264-.46-.42-.76-.423h-.01c-.306 0-.59.16-.767.42l-1.226 1.81c-.11.17-.173.37-.18.57l-.024 1.33H3.13c-.166 0-.3-.144-.3-.32 0-.18.134-.32.3-.32.26 0 .47-.23.47-.51s-.21-.51-.47-.51c-.686 0-1.243.598-1.243 1.33 0 .737.56 1.335 1.25 1.335h3.2l-.01.5h-1.72c-.26 0-.47.23-.47.51s.213.5.474.5H6.3l-.325 16.04H2.918c-.52 0-.943.45-.943 1.01 0 .14.027.274.076.4l-.1.004c-.28 0-.4-.05-.56-.12-.2-.086-.45-.19-.91-.19-.26 0-.47.23-.47.505s.21.5.48.5c.28 0 .4.05.57.12.2.08.45.19.91.19s.71-.11.91-.19c.17-.07.29-.12.57-.12.28 0 .4.05.57.12.2.08.45.19.91.19s.71-.11.91-.19c.17-.07.29-.12.57-.12.28 0 .4.05.57.12.2.08.45.19.91.19s.71-.11.91-.19c.17-.07.29-.12.57-.12.28 0 .4.05.57.12.2.08.45.19.91.19s.71-.11.91-.19c.17-.07.29-.12.57-.12.28 0 .4.05.57.12.2.08.45.19.91.19s.71-.11.91-.19c.17-.07.29-.12.57-.12.28 0 .4.05.57.12.2.08.46.19.91.19.46 0 .71-.11.92-.19.16-.07.29-.12.57-.12.28 0 .4.05.568.12.2.08.46.19.91.19s.71-.11.91-.19c.17-.07.29-.12.57-.12.28 0 .4.05.57.12.2.08.45.19.91.19s.71-.11.91-.19c.17-.07.29-.12.57-.12.28 0 .4.05.565.12.2.08.453.19.91.19.46 0 .71-.11.91-.19.167-.07.287-.12.57-.12.28 0 .4.05.57.12.2.08.45.19.91.19s.71-.11.91-.19c.164-.07.285-.12.57-.12.28 0 .4.05.564.12.2.08.45.19.91.19.26 0 .475-.23.475-.51s-.21-.5-.473-.5zm-23.33-17.45l.07-3.494.282-.418.276.414.39 19.357c-.433.06-.882.108-1.342.14l.323-16zm9.496.3c0-.112.057-.182.09-.215.036-.03.095-.07.178-.07h.002c.26 0 .472-.22.472-.5s-.21-.5-.472-.5h-2.738c-.146 0-.25-.07-.31-.12-.105-.09-.162-.23-.162-.38 0-.14.057-.28.16-.37.087-.08.198-.12.312-.12h5.613c.26 0 .472.23.472.51s-.22.51-.48.51-.47.23-.47.51.21.51.47.51h.79c-.13.18-.24.37-.35.57h-3.31c-.09 0-.14-.04-.18-.07-.04-.03-.09-.1-.09-.21zm4.19 1.298c.053-.173.123-.343.207-.505.09-.18.19-.35.3-.51.1-.15.22-.29.33-.43l.34-.37.36-.33.02-.03c.45.38 1.36 1.26 1.61 2.28h-3.22l.03-.13zm-2.624 3.312v6.823l-1.108.63v-7.46h1.108zm.006 9.11l.466-.266.006-.003.466-.265.006-.004.28-.16.042-.023.43-.244.042-.02.43-.24.038-.02-.038.03-.43.38-.042.04-.43.38-.042.04-.28.25-.006.01-.466.41-.006.01-.466.4-.006.01-1.18 1.04-.35.31h-2.004l.207-.12.1-.055 1.11-.63.08-.04.4-.23.07-.04.4-.23.08-.04 1.11-.636h.01zm.943 2.46l.28-.246v.358h-.28v-.113zm1.266-.443v-.666l.876-.767v1.987h-.88v-.555zm1.915 0v-2.342l1.108-.97v3.87h-1.108v-.55zm-1.038-8.64v2.573l-.876.5v-3.324l.876-.69v.94zm2.146 1.35l-1.108.63v-1.98h1.108v1.35zm-9.507 5.42l-.3.165-.59.245v-8.614h.87v8.2zm11.63 1.87v.555H25.5v-4.756l1.11-.97v5.172zm0-8.5l-1.11.63v-3.258h1.11v2.627zm-6.42-.14h.28v3.634l-.28.16v-3.795zm-4.18 0h1.1v5.546l-1.11.63v-6.18zm-3.18 0h.28v7.538l-.28.1v-7.63zm12.19-3.5c-.26 0-.47.227-.47.507v1.98h-1.27v-.927c0-.19-.1-.365-.26-.45-.16-.087-.35-.07-.49.042l-.76.597v-2.905h3.35v1.157h-.1z" fill="#206FAC"/><path d="M31.516 107.766c-.28 0-.4-.05-.568-.12l-.164-.066.022-.214c0-.56-.423-1.012-.943-1.012h-2.31v-5.997l2.53-2.214c.375-.33.457-.91.188-1.344-.26-.44-.8-.58-1.22-.34l-1.49.85v-2.59c0-.28-.21-.51-.47-.51h-1.02v-1.66c0-1.78-1.56-3.21-2.14-3.68v-1.18c.14-.09.23-.26.23-.44 0-.19-.09-.36-.24-.45l-.02-.02-.01-.03c-.08-.16-.24-.27-.41-.27-.17 0-.33.1-.41.26l-.01.02-.03.01c-.15.09-.24.26-.24.44 0 .17.09.34.23.43v1.18c-.12.1-.3.25-.49.44h-.32c.05-.16.08-.33.08-.51 0-.836-.63-1.52-1.41-1.52h-5.62c-.344 0-.68.14-.94.38-.3.29-.48.71-.48 1.14 0 .44.18.85.48 1.14.26.246.59.38.94.38h1.56l-.03.29c0 .37.15.723.41.97.225.21.51.322.8.322h2.95c-.04.202-.07.42-.07.632v4.15h-.64V94.7c0-.28-.21-.51-.47-.51h-.55v-1.23c0-.28-.21-.506-.474-.506-.26 0-.47.23-.47.51v1.23h-.55c-.26 0-.473.225-.473.505v1.98h-1.28v-.93c0-.28-.21-.51-.47-.51h-1.82c-.265 0-.476.22-.476.5v.93h-.8c-.26 0-.47.22-.47.5v8.41c-.25.07-.52.13-.803.2l-.39-19.36c0-.21-.062-.4-.172-.57l-1.21-1.81c-.173-.27-.46-.42-.76-.43h-.01c-.305 0-.59.15-.77.41l-1.23 1.82c-.11.16-.17.36-.18.57l-.02 1.33H3.13c-.167 0-.3-.15-.3-.32 0-.18.133-.32.3-.32.26 0 .47-.23.47-.51s-.21-.51-.47-.51c-.687 0-1.244.593-1.244 1.33 0 .732.56 1.33 1.25 1.33h3.2l-.01.504h-1.72c-.26 0-.47.224-.47.5s.214.51.475.51H6.3l-.325 16.03H2.918c-.52 0-.943.45-.943 1.01 0 .14.027.27.076.392l-.1.003c-.28 0-.4-.05-.56-.12-.2-.083-.45-.19-.91-.19-.26 0-.47.23-.47.51s.21.51.48.51c.28 0 .4.05.57.12.2.082.45.19.91.19s.71-.108.91-.19c.17-.07.29-.12.57-.12.28 0 .4.05.57.12.2.082.45.19.91.19s.71-.108.91-.19c.17-.07.29-.12.57-.12.28 0 .4.05.57.12.2.082.45.19.91.19s.71-.108.91-.19c.17-.07.29-.12.57-.12.28 0 .4.05.57.12.2.082.45.19.91.19s.71-.108.91-.19c.17-.07.29-.12.57-.12.28 0 .4.05.57.12.2.082.45.19.91.19s.71-.108.91-.19c.17-.07.29-.12.57-.12.28 0 .4.05.57.12.2.082.46.19.91.19.46 0 .71-.108.92-.19.16-.07.29-.12.57-.12.28 0 .4.05.568.12.2.082.46.19.91.19s.71-.108.91-.19c.17-.07.29-.12.57-.12.28 0 .4.05.57.12.2.082.45.19.91.19s.71-.108.91-.19c.17-.07.29-.12.57-.12.28 0 .4.05.565.12.2.082.453.19.91.19.46 0 .71-.108.91-.19.167-.07.287-.12.57-.12.28 0 .4.05.57.12.2.082.45.19.91.19s.71-.108.91-.19c.164-.07.285-.12.57-.12.28 0 .4.05.564.12.2.082.45.19.91.19.26 0 .475-.23.475-.51s-.21-.51-.473-.51zm-23.33-17.45l.07-3.494.282-.418.276.414.39 19.357c-.433.06-.882.108-1.342.14l.323-16zm9.496.3c0-.112.057-.182.09-.215.036-.03.095-.07.178-.07h.002c.26 0 .472-.22.472-.5s-.21-.5-.472-.5h-2.738c-.146 0-.25-.07-.31-.12-.105-.09-.162-.23-.162-.38 0-.14.057-.28.16-.37.087-.08.198-.12.312-.12h5.613c.26 0 .472.23.472.51s-.22.51-.48.51-.47.23-.47.51.21.51.47.51h.79c-.13.18-.24.37-.35.57h-3.31c-.09 0-.14-.04-.18-.07-.04-.03-.09-.1-.09-.21zm4.19 1.298c.053-.173.123-.343.207-.505.09-.18.19-.35.3-.51.1-.15.22-.29.33-.43l.34-.37.36-.33.02-.03c.45.38 1.36 1.26 1.61 2.28h-3.22l.03-.13zm-2.624 3.312v6.823l-1.108.63v-7.46h1.108zm.006 9.11l.466-.266.006-.003.466-.265.006-.004.28-.16.042-.023.43-.244.042-.02.43-.24.038-.02-.038.03-.43.38-.042.04-.43.38-.042.04-.28.25-.006.01-.466.41-.006.01-.466.4-.006.01-1.18 1.04-.35.31h-2.004l.207-.12.1-.055 1.11-.63.08-.04.4-.23.07-.04.4-.23.08-.04 1.11-.636h.01zm.943 2.46l.28-.246v.358h-.28v-.113zm1.266-.443v-.666l.876-.767v1.987h-.88v-.555zm1.915 0v-2.342l1.108-.97v3.87h-1.108v-.55zm-1.038-8.64v2.573l-.876.5V97.46l.876-.69v.94zm2.146 1.35l-1.108.63v-1.98h1.108v1.35zm-9.507 5.42l-.3.165-.59.245V96.28h.87v8.202zm11.63 1.87v.555H25.5v-4.756l1.11-.97v5.172zm0-8.5l-1.11.63v-3.258h1.11v2.627zm-6.42-.14h.28v3.634l-.28.16V97.71zm-4.18 0h1.1v5.546l-1.11.63v-6.18zm-3.18 0h.28v7.538l-.28.1v-7.63zm12.19-3.5c-.26 0-.47.227-.47.507v1.98h-1.27v-.927c0-.19-.1-.365-.26-.45-.16-.087-.35-.07-.49.042l-.76.597v-2.905h3.35v1.157h-.1z" fill="#fff"/><path d="M31.516 67.766c-.28 0-.4-.05-.568-.12l-.164-.066.022-.214c0-.56-.423-1.012-.943-1.012h-2.31v-5.997l2.53-2.214c.375-.33.457-.91.188-1.344-.26-.44-.8-.58-1.22-.34l-1.49.85v-2.59c0-.28-.21-.51-.47-.51h-1.02v-1.66c0-1.78-1.56-3.21-2.14-3.68v-1.18c.14-.09.23-.26.23-.44 0-.19-.09-.36-.24-.45l-.02-.02-.01-.03c-.08-.16-.24-.27-.41-.27-.17 0-.33.1-.41.26l-.01.02-.03.01c-.15.09-.24.26-.24.44 0 .17.09.34.23.43v1.18c-.12.1-.3.25-.49.44h-.32c.05-.16.08-.33.08-.51 0-.836-.63-1.52-1.41-1.52h-5.62c-.344 0-.68.14-.94.38-.3.29-.48.71-.48 1.14 0 .44.18.85.48 1.14.26.246.59.38.94.38h1.56l-.03.29c0 .37.15.723.41.97.225.21.51.322.8.322h2.95c-.04.202-.07.42-.07.632v4.15h-.64V54.7c0-.28-.21-.51-.47-.51h-.55v-1.23c0-.28-.21-.506-.474-.506-.26 0-.47.23-.47.51v1.23h-.55c-.26 0-.473.225-.473.505v1.98h-1.28v-.93c0-.28-.21-.51-.47-.51h-1.82c-.265 0-.476.22-.476.5v.93h-.8c-.26 0-.47.22-.47.5v8.42c-.25.07-.52.13-.803.2l-.39-19.36c0-.21-.062-.4-.172-.57l-1.21-1.81c-.173-.27-.46-.42-.76-.43h-.01c-.305 0-.59.15-.77.41l-1.23 1.82c-.11.16-.17.36-.18.57l-.02 1.33H3.13c-.167 0-.3-.15-.3-.32 0-.18.133-.32.3-.32.26 0 .47-.23.47-.51s-.21-.51-.47-.51c-.687 0-1.244.595-1.244 1.33 0 .734.56 1.332 1.25 1.332h3.2l-.01.503h-1.72c-.26 0-.47.225-.47.504s.214.5.475.5H6.3L5.975 66.3H2.918c-.52 0-.943.45-.943 1.01 0 .14.027.27.076.398l-.1.006c-.28 0-.4-.05-.56-.12-.2-.086-.45-.19-.91-.19-.26 0-.47.226-.47.505s.21.5.48.5c.28 0 .4.05.57.12.2.08.45.19.91.19s.71-.11.91-.19c.17-.07.29-.12.57-.12.28 0 .4.05.57.12.2.08.45.19.91.19s.71-.11.91-.19c.17-.07.29-.12.57-.12.28 0 .4.05.57.12.2.08.45.19.91.19s.71-.11.91-.19c.17-.07.29-.12.57-.12.28 0 .4.05.57.12.2.08.45.19.91.19s.71-.11.91-.19c.17-.07.29-.12.57-.12.28 0 .4.05.57.12.2.08.45.19.91.19s.71-.11.91-.19c.17-.07.29-.12.57-.12.28 0 .4.05.57.12.2.08.46.19.91.19.46 0 .71-.11.92-.19.16-.07.29-.12.57-.12.28 0 .4.05.568.12.2.08.46.19.91.19s.71-.11.91-.19c.17-.07.29-.12.57-.12.28 0 .4.05.57.12.2.08.45.19.91.19s.71-.11.91-.19c.17-.07.29-.12.57-.12.28 0 .4.05.565.12.2.08.453.19.91.19.46 0 .71-.11.91-.19.167-.07.287-.12.57-.12.28 0 .4.05.57.12.2.08.45.19.91.19s.71-.11.91-.19c.164-.07.285-.12.57-.12.28 0 .4.05.564.12.2.08.45.19.91.19.26 0 .475-.23.475-.51s-.21-.51-.473-.51zm-23.33-17.45l.07-3.494.282-.418.276.414.39 19.357c-.433.06-.882.108-1.342.14l.323-16zm9.496.3c0-.112.057-.182.09-.215.036-.03.095-.07.178-.07h.002c.26 0 .472-.22.472-.5s-.21-.5-.472-.5h-2.738c-.146 0-.25-.07-.31-.12-.105-.09-.162-.23-.162-.38 0-.14.057-.28.16-.37.087-.08.198-.12.312-.12h5.613c.26 0 .472.23.472.51s-.22.51-.48.51-.47.23-.47.51.21.51.47.51h.79c-.13.18-.24.37-.35.57h-3.31c-.09 0-.14-.04-.18-.07-.04-.03-.09-.1-.09-.21zm4.19 1.298c.053-.173.123-.343.207-.505.09-.18.19-.35.3-.51.1-.15.22-.29.33-.43l.34-.37.36-.33.02-.03c.45.38 1.36 1.26 1.61 2.28h-3.22l.03-.13zm-2.624 3.312v6.823l-1.108.63v-7.46h1.108zm.006 9.11l.466-.266.006-.003.466-.265.006-.004.28-.16.042-.023.43-.244.042-.02.43-.24.038-.02-.038.03-.43.38-.042.04-.43.38-.042.04-.28.25-.006.01-.466.41-.006.01-.466.4-.006.01-1.18 1.04-.35.31h-2.004l.207-.12.1-.055 1.11-.63.08-.04.4-.23.07-.04.4-.23.08-.04 1.11-.636h.01zm.943 2.46l.28-.246v.358h-.28v-.113zm1.266-.443v-.666l.876-.767v1.987h-.88v-.555zm1.915 0V64.01l1.108-.97v3.867h-1.108v-.555zm-1.038-8.64v2.573l-.876.5V57.46l.876-.69v.94zm2.146 1.35l-1.108.63v-1.98h1.108v1.35zm-9.507 5.42l-.3.165-.59.245V56.28h.87v8.202zm11.63 1.87v.555H25.5v-4.756l1.11-.97v5.172zm0-8.5l-1.11.63v-3.258h1.11v2.627zm-6.42-.14h.28v3.634l-.28.16V57.71zm-4.18 0h1.1v5.546l-1.11.63v-6.18zm-3.18 0h.28v7.538l-.28.1v-7.63zm12.19-3.5c-.26 0-.47.227-.47.507v1.98h-1.27v-.927c0-.19-.1-.365-.26-.45-.16-.087-.35-.07-.49.042l-.76.597v-2.905h3.35v1.157h-.1z" fill="#67737B"/><path d="M31.516 27.766c-.28 0-.4-.05-.568-.12l-.164-.066.022-.214c0-.56-.423-1.012-.943-1.012h-2.31v-5.997l2.53-2.214c.375-.33.457-.91.188-1.344-.26-.44-.8-.58-1.22-.34l-1.49.85v-2.59c0-.28-.21-.51-.47-.51h-1.02v-1.66c0-1.78-1.56-3.21-2.14-3.68V7.69c.14-.09.23-.254.23-.432 0-.184-.09-.355-.24-.444l-.03-.014-.01-.03c-.08-.16-.24-.268-.41-.268-.17 0-.33.1-.41.262l-.01.026-.02.015c-.15.09-.24.26-.24.445 0 .178.09.34.23.433V8.87c-.12.104-.3.25-.49.44h-.32c.05-.16.08-.327.08-.505 0-.836-.63-1.517-1.41-1.517h-5.62c-.34 0-.67.136-.93.38-.305.29-.48.704-.48 1.14 0 .433.175.85.48 1.135.26.245.59.38.935.38h1.56l-.03.287c0 .37.15.726.41.973.223.21.51.324.8.324h2.95c-.04.206-.07.42-.07.636v4.15h-.64v-1.98c0-.28-.21-.507-.47-.507h-.56v-1.23c0-.28-.21-.505-.47-.505s-.47.23-.47.51v1.23h-.56c-.26 0-.47.23-.47.51v1.98h-1.28v-.92c0-.28-.21-.5-.47-.5h-1.82c-.26 0-.47.23-.47.51v.93h-.8c-.26 0-.475.23-.475.51v8.42c-.26.07-.53.14-.81.2L10.7 6.46c-.005-.204-.066-.4-.176-.567L9.31 4.08c-.176-.264-.46-.422-.764-.423h-.003c-.303 0-.587.155-.764.418L6.55 5.887c-.113.167-.175.366-.18.57l-.02 1.328H3.123c-.165 0-.3-.144-.3-.32 0-.178.135-.322.3-.322.26 0 .472-.227.472-.506s-.21-.506-.472-.506c-.685 0-1.242.6-1.242 1.34 0 .73.56 1.33 1.25 1.33h3.2l-.01.51H4.61c-.26 0-.472.23-.472.51s.215.51.476.51H6.3l-.325 16.04H2.918c-.52 0-.943.45-.943 1.01 0 .14.027.28.076.4h-.1c-.28 0-.4-.05-.56-.12-.2-.08-.45-.19-.91-.19-.26 0-.47.23-.47.51s.21.51.48.51c.28 0 .4.05.57.12.2.09.45.19.91.19s.71-.1.91-.19c.17-.07.29-.12.57-.12.28 0 .4.05.57.12.2.09.45.19.91.19s.71-.1.91-.19c.17-.07.29-.12.57-.12.28 0 .4.05.57.12.2.09.45.19.91.19s.71-.1.91-.19c.17-.07.29-.12.57-.12.28 0 .4.05.57.12.2.09.45.19.91.19s.71-.1.91-.19c.17-.07.29-.12.57-.12.28 0 .4.05.57.12.2.09.45.19.91.19s.71-.1.91-.19c.17-.07.29-.12.57-.12.28 0 .4.05.57.12.2.09.46.19.91.19.46 0 .71-.1.92-.19.16-.07.29-.12.57-.12.28 0 .4.05.568.12.2.09.46.19.91.19s.71-.1.91-.19c.17-.07.29-.12.57-.12.28 0 .4.05.57.12.2.09.45.19.91.19s.71-.1.91-.19c.17-.07.29-.12.57-.12.28 0 .4.05.565.12.2.09.453.19.91.19.46 0 .71-.1.91-.19.167-.07.287-.12.57-.12.28 0 .4.05.57.12.2.09.45.19.91.19s.71-.1.91-.19c.164-.07.285-.12.57-.12.28 0 .4.05.564.12.2.09.45.19.91.19.26 0 .475-.23.475-.51s-.21-.5-.473-.5zm-23.33-17.45l.07-3.494.282-.418.276.414.39 19.357c-.433.06-.882.108-1.342.14l.323-16zm9.496.3c0-.112.057-.182.09-.215.036-.03.095-.07.178-.07h.002c.26 0 .472-.22.472-.5s-.21-.5-.472-.5h-2.738c-.146 0-.25-.07-.31-.12-.105-.09-.162-.23-.162-.38 0-.14.057-.28.16-.37.087-.08.198-.12.312-.12h5.613c.26 0 .472.23.472.51s-.22.51-.48.51-.47.23-.47.51.21.51.47.51h.79c-.13.18-.24.37-.35.57h-3.31c-.09 0-.14-.04-.18-.07-.04-.03-.09-.1-.09-.21zm4.19 1.298c.053-.173.123-.343.207-.505.09-.18.19-.35.3-.51.1-.15.22-.29.33-.43l.34-.37.36-.33.02-.03c.45.38 1.36 1.26 1.61 2.28h-3.22l.03-.13zm-2.624 3.312v6.823l-1.108.63v-7.46h1.108zm.006 9.11l.466-.266.006-.003.466-.265.006-.004.28-.16.042-.023.43-.244.042-.02.43-.24.038-.02-.038.03-.43.38-.042.04-.43.38-.042.04-.28.25-.006.01-.466.41-.006.01-.466.4-.006.01-1.18 1.04-.35.31h-2.004l.207-.12.1-.055 1.11-.63.08-.04.4-.23.07-.04.4-.23.08-.04 1.11-.636h.01zm.943 2.46l.28-.246v.358h-.28v-.113zm1.266-.443v-.666l.876-.767v1.987h-.88v-.555zm1.915 0V24.01l1.108-.97v3.867h-1.108v-.555zm-1.038-8.64v2.573l-.876.5V17.46l.876-.69v.94zm2.146 1.35l-1.108.63v-1.98h1.108v1.35zm-9.507 5.42l-.3.165-.59.245V16.28h.87v8.202zm11.63 1.87v.555H25.5v-4.756l1.11-.97v5.172zm0-8.5l-1.11.63v-3.258h1.11v2.627zm-6.42-.14h.28v3.634l-.28.16V17.71zm-4.18 0h1.1v5.546l-1.11.63v-6.18zm-3.18 0h.28v7.538l-.28.1v-7.63zm12.19-3.5c-.26 0-.47.227-.47.507v1.98h-1.27v-.927c0-.19-.1-.365-.26-.45-.16-.087-.35-.07-.49.042l-.76.597v-2.905h3.35v1.157h-.1z" fill="#3A434E"/></g></svg>