<svg width="32" height="232" viewBox="0 0 32 232" xmlns="http://www.w3.org/2000/svg"><g fill="none">
			<path id="XMLID_2044_" fill="#3A444F" d="M15.2,19.9c-0.3-0.9-1.4-1.4-2.4-1.8c-0.4-0.2-1.2-0.5-1.3-0.7
				c-0.1-0.3-0.2-2.2,0.5-4.4c0.4-1.4,1.1-2.5,2-3.5c0.2,0.9,0.1,1.9,0.1,1.9c0,0.2,0,0.3,0.2,0.4c0.1,0.1,0.2,0.1,0.3,0.1
				c0.1,0,0.1,0,0.2,0c1.6-0.5,1.7-2.3,1.8-3.8c0-0.1,0-0.3,0-0.4c0.3-0.1,0.5-0.2,0.8-0.3C21.8,6,23.2,6,23.8,6.1
				c0.1,0,0.2,0,0.2,0c0.6,0,1.2-0.3,1.2-1c0-0.9-1-1.5-2.1-1.6C23,3,22.6,2.2,21.6,1.6c-1.8-1-4.4-0.9-7.9,0.3
				c-1.4,0.5-2.6,1.1-3.5,1.9C9.4,4,6.4,4.5,4.9,6.8c-0.1,0.2-0.1,0.4,0,0.5c0.1,0.2,0.3,0.2,0.5,0.2c0,0,0.5-0.1,1-0.1
				c0.7,0,1,0.3,1.1,0.5C7.3,8.4,7.2,9,7.1,9.6c-0.2,2,0.1,4.4,0.9,6.8c0.2,0.5,0.4,0.8,0.6,1.1c0.2,0.2,0.3,0.5,0.5,0.8
				C8.8,19,8.2,21,9.9,24.2c0.1,0.2,0.2,0.3,0.4,0.3c0,0,0,0,0,0c0.2,0,0.3-0.1,0.4-0.3c0.2-0.4,0.8-1.9,1.1-3.2
				c0.2-0.1,0.5-0.4,0.9-0.5c0.8-0.3,2,0,2,0c0.2,0,0.3,0,0.5-0.1C15.2,20.2,15.3,20,15.2,19.9z M6.5,6.4C6.4,6.4,6.4,6.4,6.5,6.4
				c0.7-0.7,1.7-1.1,2.5-1.3c0,0.1-0.1,0.1-0.1,0.2c-0.4,0.5-0.7,1.1-1,1.7C7.5,6.6,7,6.4,6.5,6.4z M12.4,19.6
				c-0.2,0.1-0.4,0.1-0.5,0.2c0-0.1,0-0.2-0.1-0.4c-0.1-0.2-0.4-0.4-0.6-0.3c-0.2,0.1-0.4,0.4-0.3,0.6c0.2,0.5-0.2,1.9-0.6,3
				c-1.1-2.7-0.3-4.1-0.3-4.1c0.1-0.1,0.1-0.3,0.1-0.4c-0.2-0.6-0.4-0.9-0.6-1.2c-0.2-0.3-0.3-0.5-0.5-0.9c-0.8-2.3-1.1-4.5-0.9-6.4
				C8.5,6.3,10.4,4,14,2.8c4-1.4,6.1-1,7.1-0.4C22.1,3,22.3,3.9,22.4,4c0,0,0,0,0,0c0,0,0,0,0,0c0,0,0,0,0,0c0,0,0,0,0,0
				c0,0,0,0,0,0c0,0,0,0,0,0c0,0,0,0,0,0c0,0,0,0,0,0c0,0,0,0,0,0c0,0,0,0,0,0c0,0,0,0,0,0c0,0,0,0,0.1,0c0,0,0,0,0,0c0,0,0,0,0,0
				c1.1,0.1,1.6,0.5,1.6,0.7c0,0-0.1,0.1-0.3,0.1c0,0-0.1,0-0.2,0c-0.7,0-2.2-0.1-6.8,1.5c-0.1,0-0.2,0.1-0.3,0.1
				c0-0.1,0.1-0.1,0.1-0.2c0.2-0.1,0.4-0.4,0.3-0.6c-0.1-0.2-0.4-0.4-0.6-0.3c-0.4,0.1-0.7,0.5-0.8,1c-0.1,0.2-0.1,0.4-0.1,0.6
				c0,0.3-0.1,0.6-0.1,1c0,0.1,0,0.1,0,0.2c-0.1,1-0.2,1.7-0.5,2.2c0-0.5-0.1-1.1-0.3-1.7c-0.1-0.3-0.2-0.6-0.4-0.9
				c-0.1-0.2-0.2-0.3-0.4-0.4c0,0-0.1-0.1-0.1-0.1c-0.2-0.2-0.5-0.1-0.7,0.1C13,7.7,13.1,8,13.3,8.2c0.2,0.1,0.3,0.3,0.4,0.4
				c-1.4,1.3-2.2,2.9-2.6,4.2c-0.7,2.3-0.6,4.5-0.5,5c0.2,0.6,0.9,0.9,1.8,1.2c0.3,0.1,0.7,0.3,1,0.5C13.1,19.4,12.7,19.5,12.4,19.6
				z"/>
			<path id="XMLID_2043_" fill="#3A444F" d="M20.5,4.8c0.2,0,0.4-0.3,0.4-0.5c0-0.2-0.2-0.1-0.4-0.1c-0.2,0-0.4,0-0.4,0.2
				C20.1,4.6,20.3,4.8,20.5,4.8z"/>
			<path id="XMLID_2042_" fill="#3A444F" d="M20.9,13.5c-0.1,0.1-0.2,0.3-0.1,0.4c0.1,0.1,0.3,0.2,0.4,0.1c0.1-0.1,0-0.2-0.1-0.3
				C21,13.6,21,13.4,20.9,13.5z"/>
			<path id="XMLID_2038_" fill="#3A444F" d="M26.1,18.7c0-0.9-0.2-1.8-0.6-2.7c-1-2.4-2.2-3.8-3.6-4.2c-0.7-0.2-1.3-0.1-1.6,0
				c-0.8-0.7-1.6-0.6-1.9-0.3c-0.3,0.3-0.4,0.8,0,1.3c0,0,0.1,0.1,0.1,0.1c0.3,0.3,1,1,2.2,3.9c0.1,0.2,0.1,0.3,0.2,0.5
				c0,0-0.1,0.1-0.1,0.1c-0.7,0.7-1.6,1.6-1.1,2.8c0.1,0.2,0.2,0.3,0.4,0.3c0,0,0,0,0.1,0c0.1,0,0.3-0.1,0.4-0.2
				c0.1-0.2,0.4-0.4,0.7-0.6c-0.3,2.5-2.3,4.2-2.7,4.4c-0.2,0-0.5-0.2-0.8-0.3c-0.7-0.3-1.5-0.7-2.1-0.4c-0.2,0.1-0.3,0.2-0.3,0.4
				c0,0.2,0.1,0.3,0.2,0.4c0.2,0.1,0.7,0.5,0.8,0.9c0.1,0.2,0.1,0.4,0.1,0.6c-0.4,0.5-0.9,1.6-1.1,2c-0.1,0.2-0.1,0.4,0.1,0.5
				c0.1,0.1,0.2,0.2,0.4,0.2c0,0,0.1,0,0.1,0c2.3-0.6,3.1-1.6,3.4-2c0.3-0.1,0.5-0.2,0.7-0.3c0.2-0.1,0.4-0.2,0.7-0.3
				c1.6-0.7,3-1.6,3.9-2.7c0.3-0.3,0.5-0.6,0.7-0.9c0.5,0,0.9,0.8,0.9,0.8c0.1,0.2,0.2,0.3,0.4,0.3c0,0,0,0,0,0
				c0.2,0,0.4-0.2,0.4-0.3C27.5,21,26.4,19.2,26.1,18.7z M23.8,22.4c-0.9,1-2.1,1.8-3.6,2.4c-0.3,0.1-0.5,0.2-0.8,0.4
				c-0.2,0.1-0.4,0.2-0.8,0.4c-0.1,0.1-0.2,0.1-0.3,0.3c0,0.1-0.4,0.7-1.8,1.3c0.2-0.4,0.5-0.8,0.5-0.9c0,0,0,0,0,0c0,0,0,0,0-0.1
				c0,0,0,0,0,0c0,0,0,0,0,0c0,0,0,0,0,0c0,0,0,0,0,0c0,0,0,0,0-0.1c0,0,0,0,0,0c0-0.1,0-0.6-0.2-1.1c0-0.1-0.1-0.1-0.1-0.2
				c0.1,0,0.1,0.1,0.2,0.1c0.6,0.3,1.1,0.5,1.6,0.4c0.3-0.1,1.5-1.1,2.4-2.6c0.5-0.8,0.9-1.9,1-3.1c0.1,0,0.2,0,0.2,0
				c0.3,0,0.5-0.1,0.5-0.4c0-0.3-0.1-0.5-0.4-0.5c-0.1,0-0.1,0-0.2,0c-0.1,0-0.1,0-0.2,0c-0.3,0-0.6,0.1-0.9,0.2
				c-0.1,0.1-0.3,0.1-0.4,0.2c0.1-0.1,0.2-0.3,0.3-0.4c0.1-0.1,0.2-0.2,0.3-0.3c0.2-0.2,0.4-0.4,0.5-0.6c0-0.1,0.1-0.1,0.1-0.2
				c0.2-0.3,0.4-0.7,0.2-1.1c-0.1-0.2-0.4-0.4-0.6-0.2c-0.1,0-0.1,0.1-0.2,0.2c-1.2-2.8-2-3.6-2.3-3.9c0,0,0,0-0.1-0.1
				c0.2,0,0.4,0.1,0.7,0.5c0,0,0,0,0,0c0,0,0,0,0,0c0,0,0,0,0,0c0,0,0,0,0,0c0,0,0,0,0,0c0,0,0,0,0,0c0,0,0,0,0,0c0,0,0,0,0,0
				c0,0,0,0,0,0c0,0,0,0,0,0c0,0,0,0,0,0c0,0,0,0,0,0c0,0,0,0,0,0c0,0,0,0,0,0c0,0,0.5-0.3,1.2,0c0.7,0.2,1.9,1.1,3,3.7
				C25.6,18.7,25.3,20.7,23.8,22.4z M25.7,21.2c0.1-0.3,0.2-0.5,0.3-0.8c0.1,0.3,0.2,0.7,0.3,1.1C26,21.3,25.9,21.2,25.7,21.2z"/>
		</g>
		<g id="XMLID_2422_">
			<path id="XMLID_2429_" fill="#67737C" d="M15.2,59.9c-0.3-0.9-1.4-1.4-2.4-1.8c-0.4-0.2-1.2-0.5-1.3-0.7
				c-0.1-0.3-0.2-2.2,0.5-4.4c0.4-1.4,1.1-2.5,2-3.5c0.2,0.9,0.1,1.9,0.1,1.9c0,0.2,0,0.3,0.2,0.4c0.1,0.1,0.2,0.1,0.3,0.1
				c0.1,0,0.1,0,0.2,0c1.6-0.5,1.7-2.3,1.8-3.8c0-0.1,0-0.3,0-0.4c0.3-0.1,0.5-0.2,0.8-0.3c4.4-1.5,5.9-1.5,6.5-1.4
				c0.1,0,0.2,0,0.2,0c0.6,0,1.2-0.3,1.2-1c0-0.9-1-1.5-2.1-1.6c-0.2-0.4-0.6-1.2-1.6-1.8c-1.8-1-4.4-0.9-7.9,0.3
				c-1.4,0.5-2.6,1.1-3.5,1.9c-0.7,0.1-3.8,0.6-5.2,2.9c-0.1,0.2-0.1,0.4,0,0.5c0.1,0.2,0.3,0.2,0.5,0.2c0,0,0.5-0.1,1-0.1
				c0.7,0,1,0.3,1.1,0.5c-0.2,0.6-0.3,1.1-0.4,1.8c-0.2,2,0.1,4.4,0.9,6.8c0.2,0.5,0.4,0.8,0.6,1.1c0.2,0.2,0.3,0.5,0.5,0.8
				C8.8,59,8.2,61,9.9,64.2c0.1,0.2,0.2,0.3,0.4,0.3c0,0,0,0,0,0c0.2,0,0.3-0.1,0.4-0.3c0.2-0.4,0.8-1.9,1.1-3.2
				c0.2-0.1,0.5-0.4,0.9-0.5c0.8-0.3,2,0,2,0c0.2,0,0.3,0,0.5-0.1C15.2,60.2,15.3,60,15.2,59.9z M6.5,46.4
				C6.4,46.4,6.4,46.4,6.5,46.4c0.7-0.7,1.7-1.1,2.5-1.3c0,0.1-0.1,0.1-0.1,0.2c-0.4,0.5-0.7,1.1-1,1.7C7.5,46.6,7,46.4,6.5,46.4z
				 M12.4,59.6c-0.2,0.1-0.4,0.1-0.5,0.2c0-0.1,0-0.2-0.1-0.4c-0.1-0.2-0.4-0.4-0.6-0.3c-0.2,0.1-0.4,0.4-0.3,0.6
				c0.2,0.5-0.2,1.9-0.6,3c-1.1-2.7-0.3-4.1-0.3-4.1c0.1-0.1,0.1-0.3,0.1-0.4c-0.2-0.6-0.4-0.9-0.6-1.2c-0.2-0.3-0.3-0.5-0.5-0.9
				c-0.8-2.3-1.1-4.5-0.9-6.4c0.4-3.4,2.4-5.7,5.9-6.9c4-1.4,6.1-1,7.1-0.4c1.1,0.6,1.3,1.5,1.3,1.5c0,0,0,0,0,0c0,0,0,0,0,0
				c0,0,0,0,0,0c0,0,0,0,0,0c0,0,0,0,0,0c0,0,0,0,0,0c0,0,0,0,0,0c0,0,0,0,0,0c0,0,0,0,0,0c0,0,0,0,0,0c0,0,0,0,0,0c0,0,0,0,0.1,0
				c0,0,0,0,0,0c0,0,0,0,0,0c1.1,0.1,1.6,0.5,1.6,0.7c0,0-0.1,0.1-0.3,0.1c0,0-0.1,0-0.2,0c-0.7,0-2.2-0.1-6.8,1.5
				c-0.1,0-0.2,0.1-0.3,0.1c0-0.1,0.1-0.1,0.1-0.2c0.2-0.1,0.4-0.4,0.3-0.6c-0.1-0.2-0.4-0.4-0.6-0.3c-0.4,0.1-0.7,0.5-0.8,1
				c-0.1,0.2-0.1,0.4-0.1,0.6c0,0.3-0.1,0.6-0.1,1c0,0.1,0,0.1,0,0.2c-0.1,1-0.2,1.7-0.5,2.2c0-0.5-0.1-1.1-0.3-1.7
				c-0.1-0.3-0.2-0.6-0.4-0.9c-0.1-0.2-0.2-0.3-0.4-0.4c0,0-0.1-0.1-0.1-0.1c-0.2-0.2-0.5-0.1-0.7,0.1c-0.2,0.2-0.1,0.5,0.1,0.7
				c0.2,0.1,0.3,0.3,0.4,0.4c-1.4,1.3-2.2,2.9-2.6,4.2c-0.7,2.3-0.6,4.5-0.5,5c0.2,0.6,0.9,0.9,1.8,1.2c0.3,0.1,0.7,0.3,1,0.5
				C13.1,59.4,12.7,59.5,12.4,59.6z"/>
			<path id="XMLID_2428_" fill="#67737C" d="M20.5,44.8c0.2,0,0.4-0.3,0.4-0.5c0-0.2-0.2-0.1-0.4-0.1c-0.2,0-0.4,0-0.4,0.2
				C20.1,44.6,20.3,44.8,20.5,44.8z"/>
			<path id="XMLID_2427_" fill="#67737C" d="M20.9,53.5c-0.1,0.1-0.2,0.3-0.1,0.4c0.1,0.1,0.3,0.2,0.4,0.1c0.1-0.1,0-0.2-0.1-0.3
				C21,53.6,21,53.4,20.9,53.5z"/>
			<path id="XMLID_2423_" fill="#67737C" d="M26.1,58.7c0-0.9-0.2-1.8-0.6-2.7c-1-2.4-2.2-3.8-3.6-4.2c-0.7-0.2-1.3-0.1-1.6,0
				c-0.8-0.7-1.6-0.6-1.9-0.3c-0.3,0.3-0.4,0.8,0,1.3c0,0,0.1,0.1,0.1,0.1c0.3,0.3,1,1,2.2,3.9c0.1,0.2,0.1,0.3,0.2,0.5
				c0,0-0.1,0.1-0.1,0.1c-0.7,0.7-1.6,1.6-1.1,2.8c0.1,0.2,0.2,0.3,0.4,0.3c0,0,0,0,0.1,0c0.1,0,0.3-0.1,0.4-0.2
				c0.1-0.2,0.4-0.4,0.7-0.6c-0.3,2.5-2.3,4.2-2.7,4.4c-0.2,0-0.5-0.2-0.8-0.3c-0.7-0.3-1.5-0.7-2.1-0.4c-0.2,0.1-0.3,0.2-0.3,0.4
				c0,0.2,0.1,0.3,0.2,0.4c0.2,0.1,0.7,0.5,0.8,0.9c0.1,0.2,0.1,0.4,0.1,0.6c-0.4,0.5-0.9,1.6-1.1,2c-0.1,0.2-0.1,0.4,0.1,0.5
				c0.1,0.1,0.2,0.2,0.4,0.2c0,0,0.1,0,0.1,0c2.3-0.6,3.1-1.6,3.4-2c0.3-0.1,0.5-0.2,0.7-0.3c0.2-0.1,0.4-0.2,0.7-0.3
				c1.6-0.7,3-1.6,3.9-2.7c0.3-0.3,0.5-0.6,0.7-0.9c0.5,0,0.9,0.8,0.9,0.8c0.1,0.2,0.2,0.3,0.4,0.3c0,0,0,0,0,0
				c0.2,0,0.4-0.2,0.4-0.3C27.5,61,26.4,59.2,26.1,58.7z M23.8,62.4c-0.9,1-2.1,1.8-3.6,2.4c-0.3,0.1-0.5,0.2-0.8,0.4
				c-0.2,0.1-0.4,0.2-0.8,0.4c-0.1,0.1-0.2,0.1-0.3,0.3c0,0.1-0.4,0.7-1.8,1.3c0.2-0.4,0.5-0.8,0.5-0.9c0,0,0,0,0,0c0,0,0,0,0-0.1
				c0,0,0,0,0,0c0,0,0,0,0,0c0,0,0,0,0,0c0,0,0,0,0,0c0,0,0,0,0-0.1c0,0,0,0,0,0c0-0.1,0-0.6-0.2-1.1c0-0.1-0.1-0.1-0.1-0.2
				c0.1,0,0.1,0.1,0.2,0.1c0.6,0.3,1.1,0.5,1.6,0.4c0.3-0.1,1.5-1.1,2.4-2.6c0.5-0.8,0.9-1.9,1-3.1c0.1,0,0.2,0,0.2,0
				c0.3,0,0.5-0.1,0.5-0.4c0-0.3-0.1-0.5-0.4-0.5c-0.1,0-0.1,0-0.2,0c-0.1,0-0.1,0-0.2,0c-0.3,0-0.6,0.1-0.9,0.2
				c-0.1,0.1-0.3,0.1-0.4,0.2c0.1-0.1,0.2-0.3,0.3-0.4c0.1-0.1,0.2-0.2,0.3-0.3c0.2-0.2,0.4-0.4,0.5-0.6c0-0.1,0.1-0.1,0.1-0.2
				c0.2-0.3,0.4-0.7,0.2-1.1c-0.1-0.2-0.4-0.4-0.6-0.2c-0.1,0-0.1,0.1-0.2,0.2c-1.2-2.8-2-3.6-2.3-3.9c0,0,0,0-0.1-0.1
				c0.2,0,0.4,0.1,0.7,0.5c0,0,0,0,0,0c0,0,0,0,0,0c0,0,0,0,0,0c0,0,0,0,0,0c0,0,0,0,0,0c0,0,0,0,0,0c0,0,0,0,0,0c0,0,0,0,0,0
				c0,0,0,0,0,0c0,0,0,0,0,0c0,0,0,0,0,0c0,0,0,0,0,0c0,0,0,0,0,0c0,0,0,0,0,0c0,0,0.5-0.3,1.2,0c0.7,0.2,1.9,1.1,3,3.7
				C25.6,58.7,25.3,60.7,23.8,62.4z M25.7,61.2c0.1-0.3,0.2-0.5,0.3-0.8c0.1,0.3,0.2,0.7,0.3,1.1C26,61.3,25.9,61.2,25.7,61.2z"/>
		</g>
		<g id="XMLID_2591_">
			<path id="XMLID_2598_" fill="#FFFFFF" d="M15.2,99.9c-0.3-0.9-1.4-1.4-2.4-1.8c-0.4-0.2-1.2-0.5-1.3-0.7
				c-0.1-0.3-0.2-2.2,0.5-4.4c0.4-1.4,1.1-2.5,2-3.5c0.2,0.9,0.1,1.9,0.1,1.9c0,0.2,0,0.3,0.2,0.4c0.1,0.1,0.2,0.1,0.3,0.1
				c0.1,0,0.1,0,0.2,0c1.6-0.5,1.7-2.3,1.8-3.8c0-0.1,0-0.3,0-0.4c0.3-0.1,0.5-0.2,0.8-0.3c4.4-1.5,5.9-1.5,6.5-1.4
				c0.1,0,0.2,0,0.2,0c0.6,0,1.2-0.3,1.2-1c0-0.9-1-1.5-2.1-1.6c-0.2-0.4-0.6-1.2-1.6-1.8c-1.8-1-4.4-0.9-7.9,0.3
				c-1.4,0.5-2.6,1.1-3.5,1.9c-0.7,0.1-3.8,0.6-5.2,2.9c-0.1,0.2-0.1,0.4,0,0.5c0.1,0.2,0.3,0.2,0.5,0.2c0,0,0.5-0.1,1-0.1
				c0.7,0,1,0.3,1.1,0.5c-0.2,0.6-0.3,1.1-0.4,1.8c-0.2,2,0.1,4.4,0.9,6.8c0.2,0.5,0.4,0.8,0.6,1.1c0.2,0.2,0.3,0.5,0.5,0.8
				c-0.3,0.6-0.9,2.6,0.8,5.8c0.1,0.2,0.2,0.3,0.4,0.3c0,0,0,0,0,0c0.2,0,0.3-0.1,0.4-0.3c0.2-0.4,0.8-1.9,1.1-3.2
				c0.2-0.1,0.5-0.4,0.9-0.5c0.8-0.3,2,0,2,0c0.2,0,0.3,0,0.5-0.1C15.2,100.2,15.3,100,15.2,99.9z M6.5,86.4
				C6.4,86.4,6.4,86.4,6.5,86.4c0.7-0.7,1.7-1.1,2.5-1.3c0,0.1-0.1,0.1-0.1,0.2c-0.4,0.5-0.7,1.1-1,1.7C7.5,86.6,7,86.4,6.5,86.4z
				 M12.4,99.6c-0.2,0.1-0.4,0.1-0.5,0.2c0-0.1,0-0.2-0.1-0.4c-0.1-0.2-0.4-0.4-0.6-0.3c-0.2,0.1-0.4,0.4-0.3,0.6
				c0.2,0.5-0.2,1.9-0.6,3c-1.1-2.7-0.3-4.1-0.3-4.1c0.1-0.1,0.1-0.3,0.1-0.4c-0.2-0.6-0.4-0.9-0.6-1.2c-0.2-0.3-0.3-0.5-0.5-0.9
				c-0.8-2.3-1.1-4.5-0.9-6.4c0.4-3.4,2.4-5.7,5.9-6.9c4-1.4,6.1-1,7.1-0.4c1.1,0.6,1.3,1.5,1.3,1.5c0,0,0,0,0,0c0,0,0,0,0,0
				c0,0,0,0,0,0c0,0,0,0,0,0c0,0,0,0,0,0c0,0,0,0,0,0c0,0,0,0,0,0c0,0,0,0,0,0c0,0,0,0,0,0c0,0,0,0,0,0c0,0,0,0,0,0c0,0,0,0,0.1,0
				c0,0,0,0,0,0c0,0,0,0,0,0c1.1,0.1,1.6,0.5,1.6,0.7c0,0-0.1,0.1-0.3,0.1c0,0-0.1,0-0.2,0c-0.7,0-2.2-0.1-6.8,1.5
				c-0.1,0-0.2,0.1-0.3,0.1c0-0.1,0.1-0.1,0.1-0.2c0.2-0.1,0.4-0.4,0.3-0.6c-0.1-0.2-0.4-0.4-0.6-0.3c-0.4,0.1-0.7,0.5-0.8,1
				c-0.1,0.2-0.1,0.4-0.1,0.6c0,0.3-0.1,0.6-0.1,1c0,0.1,0,0.1,0,0.2c-0.1,1-0.2,1.7-0.5,2.2c0-0.5-0.1-1.1-0.3-1.7
				c-0.1-0.3-0.2-0.6-0.4-0.9c-0.1-0.2-0.2-0.3-0.4-0.4c0,0-0.1-0.1-0.1-0.1c-0.2-0.2-0.5-0.1-0.7,0.1c-0.2,0.2-0.1,0.5,0.1,0.7
				c0.2,0.1,0.3,0.3,0.4,0.4c-1.4,1.3-2.2,2.9-2.6,4.2c-0.7,2.3-0.6,4.5-0.5,5c0.2,0.6,0.9,0.9,1.8,1.2c0.3,0.1,0.7,0.3,1,0.5
				C13.1,99.4,12.7,99.5,12.4,99.6z"/>
			<path id="XMLID_2597_" fill="#FFFFFF" d="M20.5,84.8c0.2,0,0.4-0.3,0.4-0.5c0-0.2-0.2-0.1-0.4-0.1c-0.2,0-0.4,0-0.4,0.2
				C20.1,84.6,20.3,84.8,20.5,84.8z"/>
			<path id="XMLID_2596_" fill="#FFFFFF" d="M20.9,93.5c-0.1,0.1-0.2,0.3-0.1,0.4c0.1,0.1,0.3,0.2,0.4,0.1c0.1-0.1,0-0.2-0.1-0.3
				C21,93.6,21,93.4,20.9,93.5z"/>
			<path id="XMLID_2592_" fill="#FFFFFF" d="M26.1,98.7c0-0.9-0.2-1.8-0.6-2.7c-1-2.4-2.2-3.8-3.6-4.2c-0.7-0.2-1.3-0.1-1.6,0
				c-0.8-0.7-1.6-0.6-1.9-0.3c-0.3,0.3-0.4,0.8,0,1.3c0,0,0.1,0.1,0.1,0.1c0.3,0.3,1,1,2.2,3.9c0.1,0.2,0.1,0.3,0.2,0.5
				c0,0-0.1,0.1-0.1,0.1c-0.7,0.7-1.6,1.6-1.1,2.8c0.1,0.2,0.2,0.3,0.4,0.3c0,0,0,0,0.1,0c0.1,0,0.3-0.1,0.4-0.2
				c0.1-0.2,0.4-0.4,0.7-0.6c-0.3,2.5-2.3,4.2-2.7,4.4c-0.2,0-0.5-0.2-0.8-0.3c-0.7-0.3-1.5-0.7-2.1-0.4c-0.2,0.1-0.3,0.2-0.3,0.4
				c0,0.2,0.1,0.3,0.2,0.4c0.2,0.1,0.7,0.5,0.8,0.9c0.1,0.2,0.1,0.4,0.1,0.6c-0.4,0.5-0.9,1.6-1.1,2c-0.1,0.2-0.1,0.4,0.1,0.5
				c0.1,0.1,0.2,0.2,0.4,0.2c0,0,0.1,0,0.1,0c2.3-0.6,3.1-1.6,3.4-2c0.3-0.1,0.5-0.2,0.7-0.3c0.2-0.1,0.4-0.2,0.7-0.3
				c1.6-0.7,3-1.6,3.9-2.7c0.3-0.3,0.5-0.6,0.7-0.9c0.5,0,0.9,0.8,0.9,0.8c0.1,0.2,0.2,0.3,0.4,0.3c0,0,0,0,0,0
				c0.2,0,0.4-0.2,0.4-0.3C27.5,101,26.4,99.2,26.1,98.7z M23.8,102.4c-0.9,1-2.1,1.8-3.6,2.4c-0.3,0.1-0.5,0.2-0.8,0.4
				c-0.2,0.1-0.4,0.2-0.8,0.4c-0.1,0.1-0.2,0.1-0.3,0.3c0,0.1-0.4,0.7-1.8,1.3c0.2-0.4,0.5-0.8,0.5-0.9c0,0,0,0,0,0c0,0,0,0,0-0.1
				c0,0,0,0,0,0c0,0,0,0,0,0c0,0,0,0,0,0c0,0,0,0,0,0c0,0,0,0,0-0.1c0,0,0,0,0,0c0-0.1,0-0.6-0.2-1.1c0-0.1-0.1-0.1-0.1-0.2
				c0.1,0,0.1,0.1,0.2,0.1c0.6,0.3,1.1,0.5,1.6,0.4c0.3-0.1,1.5-1.1,2.4-2.6c0.5-0.8,0.9-1.9,1-3.1c0.1,0,0.2,0,0.2,0
				c0.3,0,0.5-0.1,0.5-0.4c0-0.3-0.1-0.5-0.4-0.5c-0.1,0-0.1,0-0.2,0c-0.1,0-0.1,0-0.2,0c-0.3,0-0.6,0.1-0.9,0.2
				c-0.1,0.1-0.3,0.1-0.4,0.2c0.1-0.1,0.2-0.3,0.3-0.4c0.1-0.1,0.2-0.2,0.3-0.3c0.2-0.2,0.4-0.4,0.5-0.6c0-0.1,0.1-0.1,0.1-0.2
				c0.2-0.3,0.4-0.7,0.2-1.1c-0.1-0.2-0.4-0.4-0.6-0.2c-0.1,0-0.1,0.1-0.2,0.2c-1.2-2.8-2-3.6-2.3-3.9c0,0,0,0-0.1-0.1
				c0.2,0,0.4,0.1,0.7,0.5c0,0,0,0,0,0c0,0,0,0,0,0c0,0,0,0,0,0c0,0,0,0,0,0c0,0,0,0,0,0c0,0,0,0,0,0c0,0,0,0,0,0c0,0,0,0,0,0
				c0,0,0,0,0,0c0,0,0,0,0,0c0,0,0,0,0,0c0,0,0,0,0,0c0,0,0,0,0,0c0,0,0,0,0,0c0,0,0.5-0.3,1.2,0c0.7,0.2,1.9,1.1,3,3.7
				C25.6,98.7,25.3,100.7,23.8,102.4z M25.7,101.2c0.1-0.3,0.2-0.5,0.3-0.8c0.1,0.3,0.2,0.7,0.3,1.1C26,101.3,25.9,101.2,25.7,101.2
				z"/>
		</g>
		<g id="XMLID_2708_">
			<path id="XMLID_2715_" fill="#1D70AD" d="M15.2,139.9c-0.3-0.9-1.4-1.4-2.4-1.8c-0.4-0.2-1.2-0.5-1.3-0.7
				c-0.1-0.3-0.2-2.2,0.5-4.4c0.4-1.4,1.1-2.5,2-3.5c0.2,0.9,0.1,1.9,0.1,1.9c0,0.2,0,0.3,0.2,0.4c0.1,0.1,0.2,0.1,0.3,0.1
				c0.1,0,0.1,0,0.2,0c1.6-0.5,1.7-2.3,1.8-3.8c0-0.1,0-0.3,0-0.4c0.3-0.1,0.5-0.2,0.8-0.3c4.4-1.5,5.9-1.5,6.5-1.4
				c0.1,0,0.2,0,0.2,0c0.6,0,1.2-0.3,1.2-1c0-0.9-1-1.5-2.1-1.6c-0.2-0.4-0.6-1.2-1.6-1.8c-1.8-1-4.4-0.9-7.9,0.3
				c-1.4,0.5-2.6,1.1-3.5,1.9c-0.7,0.1-3.8,0.6-5.2,2.9c-0.1,0.2-0.1,0.4,0,0.5c0.1,0.2,0.3,0.2,0.5,0.2c0,0,0.5-0.1,1-0.1
				c0.7,0,1,0.3,1.1,0.5c-0.2,0.6-0.3,1.1-0.4,1.8c-0.2,2,0.1,4.4,0.9,6.8c0.2,0.5,0.4,0.8,0.6,1.1c0.2,0.2,0.3,0.5,0.5,0.8
				c-0.3,0.6-0.9,2.6,0.8,5.8c0.1,0.2,0.2,0.3,0.4,0.3c0,0,0,0,0,0c0.2,0,0.3-0.1,0.4-0.3c0.2-0.4,0.8-1.9,1.1-3.2
				c0.2-0.1,0.5-0.4,0.9-0.5c0.8-0.3,2,0,2,0c0.2,0,0.3,0,0.5-0.1C15.2,140.2,15.3,140,15.2,139.9z M6.5,126.4
				C6.4,126.4,6.4,126.4,6.5,126.4c0.7-0.7,1.7-1.1,2.5-1.3c0,0.1-0.1,0.1-0.1,0.2c-0.4,0.5-0.7,1.1-1,1.7
				C7.5,126.6,7,126.4,6.5,126.4z M12.4,139.6c-0.2,0.1-0.4,0.1-0.5,0.2c0-0.1,0-0.2-0.1-0.4c-0.1-0.2-0.4-0.4-0.6-0.3
				c-0.2,0.1-0.4,0.4-0.3,0.6c0.2,0.5-0.2,1.9-0.6,3c-1.1-2.7-0.3-4.1-0.3-4.1c0.1-0.1,0.1-0.3,0.1-0.4c-0.2-0.6-0.4-0.9-0.6-1.2
				c-0.2-0.3-0.3-0.5-0.5-0.9c-0.8-2.3-1.1-4.5-0.9-6.4c0.4-3.4,2.4-5.7,5.9-6.9c4-1.4,6.1-1,7.1-0.4c1.1,0.6,1.3,1.5,1.3,1.5
				c0,0,0,0,0,0c0,0,0,0,0,0c0,0,0,0,0,0c0,0,0,0,0,0c0,0,0,0,0,0c0,0,0,0,0,0c0,0,0,0,0,0c0,0,0,0,0,0c0,0,0,0,0,0c0,0,0,0,0,0
				c0,0,0,0,0,0c0,0,0,0,0.1,0c0,0,0,0,0,0c0,0,0,0,0,0c1.1,0.1,1.6,0.5,1.6,0.7c0,0-0.1,0.1-0.3,0.1c0,0-0.1,0-0.2,0
				c-0.7,0-2.2-0.1-6.8,1.5c-0.1,0-0.2,0.1-0.3,0.1c0-0.1,0.1-0.1,0.1-0.2c0.2-0.1,0.4-0.4,0.3-0.6c-0.1-0.2-0.4-0.4-0.6-0.3
				c-0.4,0.1-0.7,0.5-0.8,1c-0.1,0.2-0.1,0.4-0.1,0.6c0,0.3-0.1,0.6-0.1,1c0,0.1,0,0.1,0,0.2c-0.1,1-0.2,1.7-0.5,2.2
				c0-0.5-0.1-1.1-0.3-1.7c-0.1-0.3-0.2-0.6-0.4-0.9c-0.1-0.2-0.2-0.3-0.4-0.4c0,0-0.1-0.1-0.1-0.1c-0.2-0.2-0.5-0.1-0.7,0.1
				c-0.2,0.2-0.1,0.5,0.1,0.7c0.2,0.1,0.3,0.3,0.4,0.4c-1.4,1.3-2.2,2.9-2.6,4.2c-0.7,2.3-0.6,4.5-0.5,5c0.2,0.6,0.9,0.9,1.8,1.2
				c0.3,0.1,0.7,0.3,1,0.5C13.1,139.4,12.7,139.5,12.4,139.6z"/>
			<path id="XMLID_2714_" fill="#1D70AD" d="M20.5,124.8c0.2,0,0.4-0.3,0.4-0.5c0-0.2-0.2-0.1-0.4-0.1c-0.2,0-0.4,0-0.4,0.2
				C20.1,124.6,20.3,124.8,20.5,124.8z"/>
			<path id="XMLID_2713_" fill="#1D70AD" d="M20.9,133.5c-0.1,0.1-0.2,0.3-0.1,0.4c0.1,0.1,0.3,0.2,0.4,0.1c0.1-0.1,0-0.2-0.1-0.3
				C21,133.6,21,133.4,20.9,133.5z"/>
			<path id="XMLID_2709_" fill="#1D70AD" d="M26.1,138.7c0-0.9-0.2-1.8-0.6-2.7c-1-2.4-2.2-3.8-3.6-4.2c-0.7-0.2-1.3-0.1-1.6,0
				c-0.8-0.7-1.6-0.6-1.9-0.3c-0.3,0.3-0.4,0.8,0,1.3c0,0,0.1,0.1,0.1,0.1c0.3,0.3,1,1,2.2,3.9c0.1,0.2,0.1,0.3,0.2,0.5
				c0,0-0.1,0.1-0.1,0.1c-0.7,0.7-1.6,1.6-1.1,2.8c0.1,0.2,0.2,0.3,0.4,0.3c0,0,0,0,0.1,0c0.1,0,0.3-0.1,0.4-0.2
				c0.1-0.2,0.4-0.4,0.7-0.6c-0.3,2.5-2.3,4.2-2.7,4.4c-0.2,0-0.5-0.2-0.8-0.3c-0.7-0.3-1.5-0.7-2.1-0.4c-0.2,0.1-0.3,0.2-0.3,0.4
				c0,0.2,0.1,0.3,0.2,0.4c0.2,0.1,0.7,0.5,0.8,0.9c0.1,0.2,0.1,0.4,0.1,0.6c-0.4,0.5-0.9,1.6-1.1,2c-0.1,0.2-0.1,0.4,0.1,0.5
				c0.1,0.1,0.2,0.2,0.4,0.2c0,0,0.1,0,0.1,0c2.3-0.6,3.1-1.6,3.4-2c0.3-0.1,0.5-0.2,0.7-0.3c0.2-0.1,0.4-0.2,0.7-0.3
				c1.6-0.7,3-1.6,3.9-2.7c0.3-0.3,0.5-0.6,0.7-0.9c0.5,0,0.9,0.8,0.9,0.8c0.1,0.2,0.2,0.3,0.4,0.3c0,0,0,0,0,0
				c0.2,0,0.4-0.2,0.4-0.3C27.5,141,26.4,139.2,26.1,138.7z M23.8,142.4c-0.9,1-2.1,1.8-3.6,2.4c-0.3,0.1-0.5,0.2-0.8,0.4
				c-0.2,0.1-0.4,0.2-0.8,0.4c-0.1,0.1-0.2,0.1-0.3,0.3c0,0.1-0.4,0.7-1.8,1.3c0.2-0.4,0.5-0.8,0.5-0.9c0,0,0,0,0,0c0,0,0,0,0-0.1
				c0,0,0,0,0,0c0,0,0,0,0,0c0,0,0,0,0,0c0,0,0,0,0,0c0,0,0,0,0-0.1c0,0,0,0,0,0c0-0.1,0-0.6-0.2-1.1c0-0.1-0.1-0.1-0.1-0.2
				c0.1,0,0.1,0.1,0.2,0.1c0.6,0.3,1.1,0.5,1.6,0.4c0.3-0.1,1.5-1.1,2.4-2.6c0.5-0.8,0.9-1.9,1-3.1c0.1,0,0.2,0,0.2,0
				c0.3,0,0.5-0.1,0.5-0.4c0-0.3-0.1-0.5-0.4-0.5c-0.1,0-0.1,0-0.2,0c-0.1,0-0.1,0-0.2,0c-0.3,0-0.6,0.1-0.9,0.2
				c-0.1,0.1-0.3,0.1-0.4,0.2c0.1-0.1,0.2-0.3,0.3-0.4c0.1-0.1,0.2-0.2,0.3-0.3c0.2-0.2,0.4-0.4,0.5-0.6c0-0.1,0.1-0.1,0.1-0.2
				c0.2-0.3,0.4-0.7,0.2-1.1c-0.1-0.2-0.4-0.4-0.6-0.2c-0.1,0-0.1,0.1-0.2,0.2c-1.2-2.8-2-3.6-2.3-3.9c0,0,0,0-0.1-0.1
				c0.2,0,0.4,0.1,0.7,0.5c0,0,0,0,0,0c0,0,0,0,0,0c0,0,0,0,0,0c0,0,0,0,0,0c0,0,0,0,0,0c0,0,0,0,0,0c0,0,0,0,0,0c0,0,0,0,0,0
				c0,0,0,0,0,0c0,0,0,0,0,0c0,0,0,0,0,0c0,0,0,0,0,0c0,0,0,0,0,0c0,0,0,0,0,0c0,0,0.5-0.3,1.2,0c0.7,0.2,1.9,1.1,3,3.7
				C25.6,138.7,25.3,140.7,23.8,142.4z M25.7,141.2c0.1-0.3,0.2-0.5,0.3-0.8c0.1,0.3,0.2,0.7,0.3,1.1
				C26,141.3,25.9,141.2,25.7,141.2z"/>
		</g>
</svg>
