<svg width="32" height="232" viewBox="0 0 32 232" xmlns="http://www.w3.org/2000/svg"><g fill="none"><path d="M6.856 124.538h.21c-.033.13-.05.263-.05.403 0 .82.58 1.48 1.296 1.48h8.448c.316 0 .62-.13.857-.37.28-.28.44-.68.44-1.1 0-.42-.16-.82-.44-1.1-.238-.23-.542-.37-.857-.37h-4.823l.015-.2c0-.36-.138-.71-.38-.95-.203-.2-.466-.32-.738-.32H6.857c-.616 0-1.118.57-1.118 1.27s.5 1.27 1.11 1.27zm0-1.47h3.977l.116.05c.02.024.06.073.06.15s-.04.13-.06.15l-.12.052c-.26 0-.47.24-.47.534 0 .295.21.534.47.534h5.93c.11 0 .18.055.23.1.04.046.12.146.12.303s-.08.26-.12.31c-.05.05-.13.1-.24.1H8.31c-.195 0-.354-.18-.354-.4 0-.22.16-.4.355-.4.27 0 .48-.24.48-.53h.01c0-.29-.21-.53-.47-.53H6.86c-.096 0-.175-.09-.175-.2 0-.11.078-.2.175-.2zm24.667 22.983c-.28 0-.4-.05-.567-.12-.2-.09-.452-.2-.91-.2-.457 0-.707.11-.91.2-.106.05-.196.09-.322.11l1.82-4.49c.134-.33.11-.71-.063-1.02-.17-.3-.47-.49-.79-.49h-1.04c-.07-.96-.37-1.82-.81-2.57 0-1.6-.43-3.12-1.25-4.49l.01-.12c0-5.51-4.64-7.9-4.84-8-.24-.12-.52-.12-.76 0-.16.08-3.48 1.79-4.53 5.63-1.93-2.11-3.55-2.62-3.63-2.65-.34-.1-.7.02-.94.31-.04.05-.76.97-1.28 2.48-.57-.23-.95-.32-1-.33-.32-.07-.65.06-.87.33-.04.05-.78.99-1.35 2.54-.39-.13-.63-.19-.68-.2-.33-.08-.67.04-.89.33-.09.12-2.18 2.78-2.34 6.77h-1.3c-.32 0-.62.19-.79.49-.17.31-.2.698-.06 1.03l1.71 4.214c-.24.036-.41.11-.55.17-.17.07-.29.125-.57.125-.28 0-.4-.055-.56-.13-.2-.09-.45-.2-.91-.2-.26 0-.47.24-.47.536 0 .3.21.54.47.54.28 0 .4.058.57.13.2.09.46.2.91.2s.71-.11.91-.2c.17-.072.29-.126.57-.126.28 0 .4.05.57.125.2.09.45.2.91.2s.71-.11.91-.2c.17-.07.29-.124.57-.124.28 0 .4.054.57.127.2.09.45.2.91.2s.71-.11.91-.2c.17-.07.29-.124.57-.124.28 0 .4.06.57.13.2.09.45.2.91.2s.71-.11.91-.2c.17-.07.29-.13.57-.13.28 0 .4.06.57.13.207.09.457.2.91.2s.71-.11.91-.2c.17-.07.29-.123.57-.123.28 0 .4.06.567.13.2.09.457.2.91.2.46 0 .71-.11.91-.2.17-.07.29-.12.57-.12.28 0 .4.055.565.13.2.09.45.2.91.2.453 0 .703-.11.91-.2.16-.074.28-.128.56-.128s.4.054.57.13c.2.09.45.2.91.2.45 0 .7-.11.904-.2.163-.07.283-.128.564-.128.28 0 .4.056.568.13.2.09.45.2.91.2s.71-.11.91-.2c.168-.073.288-.13.568-.13.28 0 .4.06.564.13.2.09.45.2.91.2s.71-.11.91-.2c.168-.073.288-.13.57-.13.28 0 .4.058.57.13.2.09.45.2.91.2.26 0 .47-.24.47-.533 0-.295-.21-.534-.47-.534zm-6.748-8.39c-.23-.13-.515-.03-.636.23l-.99 2.15H23l.57-2.68c.06-.28-.095-.57-.348-.64-.254-.07-.51.11-.57.4l-.62 2.94H21.9l.023-.16v-3.35c0-.29-.21-.53-.47-.53-.262 0-.472.24-.472.54v3.35l.03.16h-.21l-.62-2.93c-.06-.29-.31-.47-.57-.4-.25.07-.4.36-.34.65l.57 2.685h-.25l-.99-2.15c-.12-.26-.4-.36-.63-.225-.23.135-.32.46-.2.72l.76 1.65h-2.36l-.06-.11c.46-2.59 3.77-4.305 5.37-4.88 1.63.58 5.01 2.335 5.39 4.99h-2.63l.76-1.65c.13-.26.04-.587-.19-.72zm.682-2.83c-1.762-1.28-3.602-1.88-3.75-1.93-.165-.05-.34-.05-.506 0-.14.05-1.98.65-3.74 1.93 1.04-2.25 3.18-3.57 4-4.01.83.44 2.97 1.75 4 4.02zm-4.002-7.81c.665.43 2.026 1.46 2.788 3.19-1.27-1.03-2.398-1.53-2.452-1.55-.21-.09-.45-.09-.67 0-.05.03-1.18.52-2.45 1.56.76-1.73 2.13-2.76 2.79-3.19zm-8.46 3.14c.18.1.4.24.645.42.62.45 1.536 1.24 2.513 2.56-.23.4-.425.82-.588 1.24-1.07-1.32-2.188-2.23-3.158-2.85.18-.56.402-1.02.588-1.35zm-3.115 2.39c.242.09.552.23.91.41l.188.1c1.136.63 2.677 1.8 4.025 3.89l-.017.52c-.118.21-.226.42-.323.64-1.896-2.14-3.913-3.44-5.432-4.2.22-.57.46-1.03.65-1.34zm-2.928 2.65c1.208.43 4.17 1.74 6.742 4.83H10.5l.022-.16v-2.06c0-.29-.21-.53-.47-.53s-.472.24-.472.53v2.05l.022.16H9.07l.022-.15v-2.74c0-.29-.21-.53-.47-.53s-.472.24-.472.54v2.75l.023.16H7.64l.023-.16v-3.35c0-.29-.21-.53-.47-.53s-.472.24-.472.54v3.35l.03.16H5.44c.117-2.26 1.01-4.01 1.513-4.822zm19.232 10.73c-.166.08-.286.13-.567.13-.28 0-.4-.05-.567-.12-.2-.09-.45-.2-.91-.2s-.707.11-.91.2c-.165.08-.285.13-.565.13-.28 0-.4-.06-.567-.13-.2-.09-.452-.2-.91-.2s-.708.11-.91.2c-.166.07-.285.13-.566.13-.28 0-.4-.05-.567-.12-.2-.09-.45-.2-.91-.2s-.707.11-.908.2c-.167.08-.286.13-.567.13-.28 0-.4-.05-.566-.12-.202-.09-.452-.2-.91-.2s-.708.11-.91.2c-.165.07-.285.13-.566.13-.28 0-.4-.05-.566-.124-.202-.09-.452-.2-.91-.2s-.708.11-.91.2c-.166.07-.286.125-.567.125-.28 0-.4-.05-.566-.123-.21-.09-.46-.2-.91-.2-.46 0-.71.11-.91.2-.17.076-.29.13-.57.13-.28 0-.4-.05-.57-.125-.2-.09-.45-.2-.91-.2s-.71.11-.91.2c-.13.06-.24.107-.41.12.03-.21.02-.44-.07-.653l-1.3-3.237H28.3l-1.3 3.2c-.044.11-.07.226-.08.34-.352.02-.563.11-.74.19zm-5.246 2.9c-.28 0-.4-.05-.566-.12-.2-.09-.452-.2-.91-.2-.457 0-.707.11-.908.2-.166.07-.286.12-.567.12-.28 0-.4-.05-.567-.12-.2-.09-.452-.2-.91-.2s-.708.11-.91.2c-.165.07-.285.13-.565.13-.28 0-.4-.05-.567-.12-.202-.09-.452-.2-.91-.2-.457 0-.707.11-.91.2-.165.07-.285.13-.565.13-.28 0-.4-.05-.567-.12-.2-.09-.45-.2-.91-.2-.456 0-.706.11-.908.2-.166.07-.286.13-.566.13-.28 0-.4-.05-.567-.122-.2-.09-.452-.2-.91-.2-.457 0-.707.11-.908.2-.167.07-.286.12-.567.12-.28 0-.4-.05-.567-.123-.2-.09-.45-.2-.91-.2-.458 0-.708.11-.91.2-.166.07-.285.127-.566.127-.26 0-.47.24-.47.53 0 .3.21.54.47.54.458 0 .708-.11.91-.2.166-.07.286-.127.567-.127.28 0 .4.05.566.124.2.09.452.2.91.2.457 0 .707-.118.908-.2.166-.08.286-.13.567-.13.28 0 .4.05.566.123.21.09.46.2.91.2.46 0 .71-.11.91-.2.17-.073.29-.126.57-.126.28 0 .4.05.57.126.2.09.45.2.91.2s.71-.11.91-.2c.17-.07.29-.125.57-.125.28 0 .4.05.57.127.2.09.45.2.91.2s.71-.11.91-.2c.17-.076.29-.13.57-.13.28 0 .4.05.57.124.2.09.45.2.91.2s.71-.114.91-.2c.17-.076.29-.13.57-.13.28 0 .4.05.57.125.2.09.45.2.91.2.26 0 .47-.24.47-.535 0-.3-.21-.54-.47-.54M3.9 129.49c.143-.136.324-.202.51-.183.13.013.25.064.35.147l.006.016c.073.188.24.31.423.31h.06c.18 0 .35-.12.43-.31l.01-.016c.1-.083.22-.134.35-.147.18-.018.36.047.51.183.2.19.49.16.66-.066.16-.226.14-.563-.06-.753-.34-.32-.76-.47-1.2-.42-.26.03-.51.12-.73.28-.22-.15-.47-.25-.73-.27-.44-.04-.86.11-1.2.43-.2.19-.23.53-.06.75.17.23.46.26.66.07" fill="#206FAC"/><path d="M6.856 84.538h.21c-.033.13-.05.263-.05.403 0 .82.58 1.48 1.296 1.48h8.448c.316 0 .62-.13.857-.37.28-.28.44-.68.44-1.1 0-.42-.16-.82-.44-1.1-.238-.23-.542-.37-.857-.37h-4.823l.015-.2c0-.36-.138-.71-.38-.95-.203-.2-.466-.32-.738-.32H6.857c-.616 0-1.118.57-1.118 1.27s.5 1.27 1.11 1.27zm0-1.47h3.977l.116.05c.02.024.06.073.06.15s-.04.13-.06.15l-.12.052c-.26 0-.47.24-.47.534 0 .295.21.534.47.534h5.93c.11 0 .18.055.23.1.04.046.12.146.12.303s-.08.26-.12.31c-.05.05-.13.1-.24.1H8.31c-.195 0-.354-.18-.354-.4 0-.22.16-.4.355-.4.27 0 .48-.24.48-.53h.01c0-.29-.21-.53-.47-.53H6.86c-.096 0-.175-.09-.175-.2 0-.11.078-.2.175-.2zm24.667 22.983c-.28 0-.4-.05-.567-.12-.2-.09-.452-.2-.91-.2-.457 0-.707.11-.91.2-.106.05-.196.09-.322.11l1.82-4.49c.134-.33.11-.71-.063-1.02-.17-.3-.47-.49-.79-.49h-1.04c-.07-.96-.37-1.82-.81-2.57 0-1.6-.43-3.12-1.25-4.49l.01-.12c0-5.51-4.64-7.9-4.84-8-.24-.12-.52-.12-.76 0-.16.08-3.48 1.79-4.53 5.63-1.93-2.11-3.55-2.62-3.63-2.65-.34-.1-.7.02-.94.31-.04.05-.76.97-1.28 2.48-.57-.23-.95-.32-1-.33-.32-.07-.65.06-.87.33-.04.05-.78.99-1.35 2.54-.39-.13-.63-.19-.68-.2-.33-.08-.67.04-.89.33-.09.12-2.18 2.78-2.34 6.77h-1.3c-.32 0-.62.19-.79.49-.17.31-.2.698-.06 1.03l1.71 4.214c-.24.036-.41.11-.55.17-.17.07-.29.125-.57.125-.28 0-.4-.055-.56-.13-.2-.09-.45-.2-.91-.2-.26 0-.47.24-.47.536 0 .3.21.54.47.54.28 0 .4.058.57.13.2.09.46.2.91.2s.71-.11.91-.2c.17-.072.29-.126.57-.126.28 0 .4.05.57.125.2.09.45.2.91.2s.71-.11.91-.2c.17-.07.29-.124.57-.124.28 0 .4.054.57.127.2.09.45.2.91.2s.71-.11.91-.2c.17-.07.29-.124.57-.124.28 0 .4.06.57.13.2.09.45.2.91.2s.71-.11.91-.2c.17-.07.29-.13.57-.13.28 0 .4.06.57.13.207.09.457.2.91.2s.71-.11.91-.2c.17-.07.29-.123.57-.123.28 0 .4.06.567.13.2.09.457.2.91.2.46 0 .71-.11.91-.2.17-.07.29-.12.57-.12.28 0 .4.055.565.13.2.09.45.2.91.2.453 0 .703-.11.91-.2.16-.074.28-.128.56-.128s.4.054.57.13c.2.09.45.2.91.2.45 0 .7-.11.904-.2.163-.07.283-.128.564-.128.28 0 .4.056.568.13.2.09.45.2.91.2s.71-.11.91-.2c.168-.073.288-.13.568-.13.28 0 .4.06.564.13.2.09.45.2.91.2s.71-.11.91-.2c.168-.073.288-.13.57-.13.28 0 .4.058.57.13.2.09.45.2.91.2.26 0 .47-.24.47-.533 0-.295-.21-.534-.47-.534zm-6.748-8.39c-.23-.13-.515-.03-.636.23l-.99 2.15H23l.57-2.68c.06-.28-.095-.57-.348-.64-.254-.07-.51.11-.57.4l-.62 2.94H21.9l.023-.16v-3.35c0-.29-.21-.53-.47-.53-.262 0-.472.24-.472.54v3.34l.03.16h-.21l-.62-2.93c-.06-.29-.31-.47-.57-.4-.25.07-.4.36-.34.64l.57 2.69h-.25l-.99-2.15c-.12-.262-.4-.364-.63-.23-.23.136-.32.46-.2.72l.76 1.65h-2.36l-.06-.11c.46-2.59 3.77-4.304 5.37-4.88 1.63.58 5.01 2.336 5.39 4.99h-2.63L25 98.4c.13-.26.04-.588-.19-.72zm.682-2.83c-1.762-1.28-3.602-1.88-3.75-1.93-.165-.05-.34-.05-.506 0-.14.05-1.98.65-3.74 1.93 1.04-2.25 3.18-3.57 4-4.01.83.44 2.97 1.75 4 4.02zm-4.002-7.81c.665.43 2.026 1.46 2.788 3.19-1.27-1.03-2.398-1.53-2.452-1.55-.21-.09-.45-.09-.67 0-.05.03-1.18.52-2.45 1.56.76-1.73 2.13-2.76 2.79-3.19zm-8.46 3.14c.18.1.4.24.645.42.62.45 1.536 1.24 2.513 2.56-.23.4-.425.82-.588 1.24-1.07-1.32-2.188-2.23-3.158-2.85.18-.56.402-1.02.588-1.35zM9.88 92.54c.242.09.552.222.91.41l.188.1c1.136.63 2.677 1.794 4.025 3.888l-.017.514c-.118.204-.226.416-.323.634-1.896-2.14-3.913-3.44-5.432-4.2.22-.57.46-1.028.65-1.346zm-2.928 2.657c1.208.43 4.17 1.734 6.742 4.827H10.5l.022-.158v-2.052c0-.296-.21-.535-.47-.535s-.472.23-.472.53v2.05l.022.16H9.07l.022-.16v-2.74c0-.3-.21-.54-.47-.54s-.472.24-.472.53v2.74l.023.15H7.64l.023-.16V96.5c0-.295-.21-.535-.47-.535s-.472.24-.472.535v3.347l.03.16H5.44c.117-2.26 1.01-4.01 1.513-4.826zm19.232 10.727c-.166.074-.286.127-.567.127-.28 0-.4-.05-.567-.12-.2-.09-.45-.2-.91-.2s-.707.11-.91.2c-.165.08-.285.13-.565.13-.28 0-.4-.05-.567-.12-.2-.09-.452-.2-.91-.2s-.708.11-.91.2c-.166.08-.285.13-.566.13-.28 0-.4-.05-.567-.12-.2-.09-.45-.2-.91-.2s-.707.11-.908.2c-.167.08-.286.13-.567.13-.28 0-.4-.05-.566-.12-.202-.09-.452-.2-.91-.2s-.708.11-.91.2c-.165.08-.285.13-.566.13-.28 0-.4-.05-.566-.12-.202-.09-.452-.2-.91-.2s-.708.11-.91.2c-.166.08-.286.13-.567.13-.28 0-.4-.05-.566-.12-.21-.09-.46-.2-.91-.2-.46 0-.71.11-.91.2-.17.08-.29.13-.57.13-.28 0-.4-.05-.57-.12-.2-.09-.45-.2-.91-.2s-.71.11-.91.2c-.13.06-.24.11-.41.12.03-.21.02-.44-.07-.65l-1.3-3.23H28.3l-1.3 3.2c-.044.11-.07.23-.08.345-.352.02-.563.11-.74.19zm-5.246 2.9c-.28 0-.4-.052-.566-.125-.2-.09-.452-.2-.91-.2-.457 0-.707.11-.908.2-.166.07-.286.12-.567.12-.28 0-.4-.06-.567-.13-.2-.09-.452-.2-.91-.2s-.708.11-.91.2c-.165.07-.285.12-.565.12-.28 0-.4-.06-.567-.13-.202-.09-.452-.2-.91-.2-.457 0-.707.11-.91.2-.165.07-.285.12-.565.12-.28 0-.4-.06-.567-.13-.2-.09-.45-.2-.91-.2-.456 0-.706.11-.908.2-.166.07-.286.12-.566.12-.28 0-.4-.06-.567-.13-.2-.09-.452-.2-.91-.2-.457 0-.707.11-.908.2-.167.07-.286.12-.567.12-.28 0-.4-.06-.567-.13-.2-.09-.45-.2-.91-.2-.458 0-.708.11-.91.2-.166.07-.285.12-.566.12-.26 0-.47.24-.47.53 0 .29.21.53.47.53.458 0 .708-.11.91-.2.166-.07.286-.13.567-.13.28 0 .4.05.566.13.2.09.452.2.91.2.457 0 .707-.11.908-.2.166-.078.286-.13.567-.13.28 0 .4.05.566.125.21.09.46.2.91.2.46 0 .71-.11.91-.2.17-.07.29-.12.57-.12.28 0 .4.05.57.12.2.09.45.2.91.2s.71-.11.91-.2c.17-.07.29-.126.57-.126.28 0 .4.05.57.13.2.09.45.2.91.2s.71-.11.91-.2c.17-.075.29-.128.57-.128.28 0 .4.05.57.127.2.09.45.2.91.2s.71-.11.91-.2c.17-.07.29-.12.57-.12.28 0 .4.05.57.122.2.09.45.2.91.2.26 0 .47-.24.47-.54 0-.29-.21-.53-.47-.53M3.9 89.49c.143-.136.324-.202.51-.183.13.013.25.064.35.147l.006.016c.073.188.24.31.423.31h.06c.18 0 .35-.12.43-.31l.01-.016c.1-.083.22-.134.35-.147.18-.018.36.047.51.183.2.19.49.16.66-.066.16-.226.14-.563-.06-.753-.34-.32-.76-.47-1.2-.42-.26.03-.51.12-.73.28-.22-.15-.47-.25-.73-.27-.44-.04-.86.11-1.2.43-.2.19-.23.53-.06.75.17.23.46.26.66.07" fill="#fff"/><path d="M6.856 44.538h.21c-.033.13-.05.263-.05.403 0 .82.58 1.48 1.296 1.48h8.448c.316 0 .62-.13.857-.37.28-.28.44-.68.44-1.1 0-.42-.16-.82-.44-1.1-.238-.23-.542-.37-.857-.37h-4.823l.015-.2c0-.36-.138-.71-.38-.95-.203-.2-.466-.32-.738-.32H6.857c-.616 0-1.118.57-1.118 1.27s.5 1.27 1.11 1.27zm0-1.47h3.977l.116.05c.02.024.06.073.06.15s-.04.13-.06.15l-.12.052c-.26 0-.47.24-.47.534 0 .295.21.534.47.534h5.93c.11 0 .18.055.23.1.04.046.12.146.12.303s-.08.26-.12.31c-.05.05-.13.1-.24.1H8.31c-.195 0-.354-.18-.354-.4 0-.22.16-.4.355-.4.27 0 .48-.24.48-.53h.01c0-.29-.21-.53-.47-.53H6.86c-.096 0-.175-.09-.175-.2 0-.11.078-.2.175-.2zM31.523 66.05c-.28 0-.4-.05-.567-.125-.2-.09-.452-.2-.91-.2-.457 0-.707.11-.91.2-.106.048-.196.087-.322.108l1.82-4.494c.134-.33.11-.72-.063-1.03-.17-.31-.47-.49-.79-.49h-1.04c-.07-.97-.37-1.82-.81-2.58 0-1.6-.43-3.12-1.25-4.5l.01-.13c0-5.52-4.64-7.9-4.84-8-.24-.12-.52-.12-.76 0-.16.08-3.48 1.79-4.53 5.62-1.93-2.12-3.55-2.63-3.63-2.65-.34-.1-.7.02-.94.31-.04.05-.76.97-1.28 2.48-.57-.24-.95-.32-1-.33-.32-.07-.65.05-.87.33-.04.05-.78.98-1.35 2.53-.39-.14-.63-.2-.68-.21-.33-.08-.67.04-.89.33-.09.11-2.18 2.77-2.34 6.76h-1.3c-.32 0-.62.18-.79.49-.17.31-.2.69-.06 1.02l1.71 4.21c-.24.034-.41.11-.55.17-.17.072-.29.125-.57.125-.28 0-.4-.05-.56-.13-.2-.09-.45-.2-.91-.2-.26 0-.47.24-.47.54 0 .296.21.535.47.535.28 0 .4.06.57.13.2.09.46.2.91.2s.71-.11.91-.2c.17-.07.29-.123.57-.123.28 0 .4.05.57.124.2.09.45.2.91.2s.71-.11.91-.2c.17-.08.29-.13.57-.13.28 0 .4.054.57.13.2.09.45.2.91.2s.71-.11.91-.2c.17-.076.29-.13.57-.13.28 0 .4.054.57.13.2.09.45.2.91.2s.71-.11.91-.2c.17-.076.288-.13.57-.13.28 0 .4.054.567.127.208.09.458.2.91.2s.71-.11.91-.2c.17-.074.29-.13.57-.13.28 0 .4.06.57.13.2.09.452.2.91.2.46 0 .71-.11.91-.2.165-.07.285-.125.566-.125.28 0 .4.055.57.13.2.09.45.2.91.2s.71-.11.91-.2c.165-.07.285-.127.565-.127.28 0 .4.05.57.124.2.09.45.2.91.2.45 0 .7-.11.906-.2.166-.07.286-.123.567-.123.28 0 .4.052.565.13.2.09.45.2.91.2s.71-.11.91-.2c.167-.077.287-.13.567-.13.28 0 .4.053.57.13.2.09.455.2.91.2.46 0 .71-.11.91-.2.17-.07.29-.13.57-.13.28 0 .4.055.57.128.2.09.45.2.91.2.26 0 .47-.24.47-.53 0-.295-.21-.53-.47-.53zm-6.748-8.396c-.23-.136-.515-.036-.636.226l-.99 2.145H23l.57-2.687c.06-.287-.095-.576-.348-.644-.254-.07-.51.108-.57.395l-.62 2.93H21.9l.023-.16v-3.34c0-.3-.21-.54-.47-.54-.262 0-.472.24-.472.53v3.34l.03.16h-.21l-.62-2.94c-.06-.29-.31-.47-.57-.4-.25.07-.4.35-.34.64l.57 2.69h-.25l-.99-2.15c-.12-.27-.4-.37-.63-.23-.23.13-.32.46-.2.72l.76 1.65h-2.36l-.06-.11c.46-2.59 3.77-4.31 5.37-4.88 1.63.58 5.01 2.33 5.39 4.98h-2.63l.76-1.65c.13-.26.04-.59-.19-.72zm.682-2.83c-1.762-1.285-3.602-1.883-3.75-1.93-.165-.052-.34-.052-.506 0-.14.047-1.98.643-3.74 1.925 1.04-2.26 3.18-3.57 4-4.01.83.44 2.97 1.75 4 4.01zm-4.002-7.812c.665.427 2.026 1.46 2.788 3.188-1.27-1.035-2.398-1.53-2.452-1.554-.21-.094-.45-.094-.67 0-.05.024-1.18.52-2.45 1.555.76-1.73 2.13-2.76 2.79-3.19zm-8.46 3.135c.18.102.4.237.645.413.62.443 1.536 1.237 2.513 2.554-.23.4-.425.813-.588 1.237-1.07-1.32-2.188-2.23-3.158-2.85.18-.56.402-1.02.588-1.35zM9.88 52.54c.242.09.552.222.91.41l.188.1c1.136.63 2.677 1.794 4.025 3.888l-.017.514c-.118.204-.226.416-.323.634-1.896-2.14-3.913-3.44-5.432-4.2.22-.57.46-1.028.65-1.346zm-2.928 2.657c1.208.43 4.17 1.734 6.742 4.827H10.5l.022-.158v-2.052c0-.296-.21-.535-.47-.535s-.472.23-.472.53v2.05l.022.16H9.07l.022-.16v-2.74c0-.3-.21-.54-.47-.54s-.472.24-.472.53v2.74l.023.15H7.64l.023-.16V56.5c0-.295-.21-.535-.47-.535s-.472.24-.472.535v3.347l.03.16H5.44c.117-2.26 1.01-4.01 1.513-4.826zm19.232 10.727c-.166.074-.286.127-.567.127-.28 0-.4-.05-.567-.12-.2-.09-.45-.2-.91-.2s-.707.11-.91.2c-.165.08-.285.13-.565.13-.28 0-.4-.05-.567-.12-.2-.09-.452-.2-.91-.2s-.708.11-.91.2c-.166.08-.285.13-.566.13-.28 0-.4-.05-.567-.12-.2-.09-.45-.2-.91-.2s-.707.11-.908.2c-.167.08-.286.13-.567.13-.28 0-.4-.05-.566-.12-.202-.09-.452-.2-.91-.2s-.708.11-.91.2c-.165.08-.285.13-.566.13-.28 0-.4-.05-.566-.12-.202-.09-.452-.2-.91-.2s-.708.11-.91.2c-.166.08-.286.13-.567.13-.28 0-.4-.05-.566-.12-.21-.09-.46-.2-.91-.2-.46 0-.71.11-.91.2-.17.08-.29.13-.57.13-.28 0-.4-.05-.57-.12-.2-.09-.45-.2-.91-.2s-.71.11-.91.2c-.13.06-.24.11-.41.12.03-.21.02-.44-.07-.65l-1.3-3.24H28.3L27 65.4c-.044.11-.07.228-.08.343-.352.02-.563.114-.74.19zm-5.246 2.9c-.28 0-.4-.052-.566-.125-.2-.09-.452-.2-.91-.2-.457 0-.707.11-.908.2-.166.07-.286.12-.567.12-.28 0-.4-.06-.567-.13-.2-.09-.452-.2-.91-.2s-.708.11-.91.2c-.165.07-.285.12-.565.12-.28 0-.4-.06-.567-.13-.202-.09-.452-.2-.91-.2-.457 0-.707.11-.91.2-.165.07-.285.12-.565.12-.28 0-.4-.06-.567-.13-.2-.09-.45-.2-.91-.2-.456 0-.706.11-.908.2-.166.07-.286.12-.566.12-.28 0-.4-.06-.567-.13-.2-.09-.452-.2-.91-.2-.457 0-.707.11-.908.2-.167.07-.286.12-.567.12-.28 0-.4-.06-.567-.13-.2-.09-.45-.2-.91-.2-.458 0-.708.11-.91.2-.166.07-.285.12-.566.12-.26 0-.47.24-.47.53 0 .29.21.53.47.53.458 0 .708-.11.91-.2.166-.07.286-.13.567-.13.28 0 .4.05.566.13.2.09.452.2.91.2.457 0 .707-.11.908-.2.166-.078.286-.13.567-.13.28 0 .4.05.566.125.21.09.46.2.91.2.46 0 .71-.11.91-.2.17-.07.29-.12.57-.12.28 0 .4.05.57.12.2.09.45.2.91.2s.71-.11.91-.2c.17-.07.29-.126.57-.126.28 0 .4.05.57.13.2.09.45.2.91.2s.71-.11.91-.2c.17-.075.29-.128.57-.128.28 0 .4.05.57.127.2.09.45.2.91.2s.71-.11.91-.2c.17-.07.29-.12.57-.12.28 0 .4.05.57.122.2.09.45.2.91.2.26 0 .47-.24.47-.54 0-.29-.21-.53-.47-.53M3.9 49.49c.143-.136.324-.202.51-.183.13.013.25.064.35.147l.006.016c.073.188.24.31.423.31h.06c.18 0 .35-.12.43-.31l.01-.016c.1-.083.22-.134.35-.147.18-.018.36.047.51.183.2.19.49.16.66-.066.16-.226.14-.563-.06-.753-.34-.32-.76-.47-1.2-.42-.26.03-.51.12-.73.28-.22-.15-.47-.25-.73-.27-.44-.04-.86.11-1.2.43-.2.19-.23.53-.06.75.17.23.46.26.66.07" fill="#67737B"/><path d="M6.856 4.538h.21c-.033.13-.05.263-.05.403 0 .82.58 1.48 1.296 1.48h8.448c.316 0 .62-.13.857-.37.28-.28.44-.68.44-1.1 0-.42-.16-.82-.44-1.1-.238-.23-.542-.37-.857-.37h-4.823l.015-.2c0-.36-.138-.71-.38-.95-.203-.2-.466-.32-.738-.32H6.857C6.24 2 5.74 2.57 5.74 3.27s.5 1.27 1.117 1.27zm0-1.47h3.977l.116.05c.02.024.06.073.06.15s-.04.13-.06.15l-.12.052c-.26 0-.47.24-.47.534 0 .295.21.534.47.534h5.93c.11 0 .18.055.23.1.04.046.12.146.12.303s-.08.26-.12.31c-.05.05-.13.1-.24.1H8.31c-.195 0-.354-.18-.354-.4 0-.22.16-.4.355-.4.27 0 .48-.24.48-.53h.01c0-.29-.21-.53-.47-.53H6.86c-.096 0-.175-.09-.175-.2 0-.11.078-.2.175-.2zM31.523 26.05c-.28 0-.4-.05-.567-.125-.2-.09-.452-.2-.91-.2-.457 0-.707.11-.91.2-.106.048-.196.087-.322.108l1.82-4.494c.134-.33.11-.72-.063-1.03-.17-.31-.47-.49-.79-.49h-1.04c-.07-.97-.37-1.82-.81-2.58 0-1.6-.43-3.12-1.25-4.5l.01-.13c0-5.52-4.64-7.9-4.84-8-.24-.12-.52-.12-.76 0-.16.08-3.48 1.79-4.53 5.62-1.94-2.11-3.55-2.62-3.63-2.65-.34-.1-.7.02-.94.31-.04.05-.76.97-1.28 2.48-.58-.24-.95-.32-1-.33-.32-.07-.65.05-.87.33-.04.04-.78.98-1.35 2.53-.39-.13-.63-.2-.68-.21-.33-.08-.67.04-.89.323-.09.115-2.18 2.774-2.34 6.766h-1.3c-.32 0-.62.183-.79.49-.17.31-.2.69-.06 1.022l1.71 4.21c-.24.033-.41.11-.55.17-.17.07-.29.123-.57.123-.28 0-.4-.054-.56-.13-.2-.09-.45-.2-.91-.2-.26 0-.47.24-.47.536 0 .3.21.54.47.54.28 0 .4.06.57.13.2.09.46.2.91.2s.71-.11.91-.2c.17-.07.29-.123.57-.123.28 0 .4.053.57.13.2.09.45.2.91.2s.71-.11.91-.2c.17-.078.29-.13.57-.13.28 0 .4.05.57.122.2.09.45.2.91.2s.71-.11.91-.2c.17-.077.29-.13.57-.13.28 0 .4.06.57.13.2.09.45.2.91.2s.71-.11.91-.2c.168-.07.287-.13.568-.13.28 0 .4.06.566.13.2.09.45.2.91.2s.71-.11.91-.2c.17-.07.29-.13.57-.13.28 0 .4.058.56.13.2.09.45.2.91.2s.71-.11.91-.2c.166-.07.286-.125.567-.125.28 0 .4.06.57.13.2.09.45.2.91.2.456 0 .706-.11.91-.2.164-.07.284-.12.564-.12.28 0 .4.06.57.13.2.09.45.2.91.2.456 0 .706-.11.907-.2.167-.07.287-.124.568-.124.28 0 .4.056.567.13.2.09.45.2.91.2s.704-.11.91-.2c.16-.07.28-.13.56-.13s.4.056.568.13c.2.09.455.2.91.2.46 0 .71-.11.91-.2.17-.074.29-.13.57-.13.28 0 .4.057.566.13.2.09.45.2.91.2.26 0 .47-.24.47-.53 0-.295-.21-.534-.47-.534zm-6.748-8.396c-.23-.136-.515-.036-.636.226l-.99 2.145H23l.57-2.687c.06-.287-.095-.576-.348-.644-.254-.07-.51.108-.57.395l-.62 2.93H21.9l.023-.16v-3.34c0-.3-.21-.54-.47-.54-.262 0-.472.24-.472.53v3.34l.03.16h-.21l-.62-2.94c-.06-.29-.31-.47-.57-.4-.25.07-.4.35-.34.64l.57 2.69h-.25l-.99-2.15c-.12-.27-.4-.37-.63-.23-.23.13-.32.46-.2.72l.76 1.65h-2.36l-.06-.11c.46-2.59 3.77-4.31 5.37-4.88 1.63.58 5.01 2.33 5.39 4.98h-2.63l.76-1.65c.13-.26.04-.59-.19-.72zm.682-2.83c-1.762-1.285-3.602-1.883-3.75-1.93-.165-.052-.34-.052-.506 0-.14.047-1.98.643-3.74 1.925 1.04-2.26 3.18-3.57 4-4.01.83.44 2.97 1.75 4 4.01zm-4.002-7.812c.665.427 2.026 1.46 2.788 3.188-1.27-1.035-2.398-1.53-2.452-1.554-.21-.094-.45-.094-.67 0-.05.024-1.18.52-2.45 1.555.76-1.73 2.13-2.76 2.79-3.19zm-8.46 3.135c.18.102.4.237.645.413.62.443 1.536 1.237 2.513 2.554-.23.4-.425.813-.588 1.237-1.07-1.32-2.188-2.23-3.158-2.85.18-.56.402-1.02.588-1.35zM9.88 12.54c.242.09.552.222.91.41l.188.1c1.136.63 2.677 1.794 4.025 3.888l-.017.514c-.118.204-.226.416-.323.634-1.896-2.14-3.913-3.44-5.432-4.2.22-.57.46-1.028.65-1.346zm-2.928 2.657c1.208.43 4.17 1.734 6.742 4.827H10.5l.022-.158v-2.052c0-.296-.21-.535-.47-.535s-.472.23-.472.53v2.05l.022.16H9.07l.022-.16v-2.74c0-.3-.21-.54-.47-.54s-.472.24-.472.53v2.74l.023.15H7.64l.023-.16V16.5c0-.295-.21-.535-.47-.535s-.472.24-.472.535v3.347l.03.16H5.44c.117-2.26 1.01-4.01 1.513-4.826zm19.232 10.727c-.166.074-.286.127-.567.127-.28 0-.4-.05-.567-.12-.2-.09-.45-.2-.91-.2s-.707.11-.91.2c-.165.08-.285.13-.565.13-.28 0-.4-.05-.567-.12-.2-.09-.452-.2-.91-.2s-.708.11-.91.2c-.166.08-.285.13-.566.13-.28 0-.4-.05-.567-.12-.2-.09-.45-.2-.91-.2s-.707.11-.908.2c-.167.08-.286.13-.567.13-.28 0-.4-.05-.566-.12-.202-.09-.452-.2-.91-.2s-.708.11-.91.2c-.165.08-.285.13-.566.13-.28 0-.4-.05-.566-.12-.202-.09-.452-.2-.91-.2s-.708.11-.91.2c-.166.08-.286.13-.567.13-.28 0-.4-.05-.566-.12-.21-.09-.46-.2-.91-.2-.46 0-.71.11-.91.2-.17.08-.29.13-.57.13-.28 0-.4-.05-.57-.12-.2-.09-.45-.2-.91-.2s-.71.11-.91.2c-.13.06-.24.11-.41.12.03-.21.02-.44-.07-.65l-1.3-3.24H28.3L27 25.4c-.044.11-.07.228-.08.343-.352.02-.563.114-.74.19zm-5.246 2.9c-.28 0-.4-.052-.566-.125-.2-.09-.452-.2-.91-.2-.457 0-.707.11-.908.2-.166.07-.286.12-.567.12-.28 0-.4-.06-.567-.13-.2-.09-.452-.2-.91-.2s-.708.11-.91.2c-.165.07-.285.12-.565.12-.28 0-.4-.06-.567-.13-.202-.09-.452-.2-.91-.2-.457 0-.707.11-.91.2-.165.07-.285.12-.565.12-.28 0-.4-.06-.567-.13-.2-.09-.45-.2-.91-.2-.456 0-.706.11-.908.2-.166.07-.286.12-.566.12-.28 0-.4-.06-.567-.13-.2-.09-.452-.2-.91-.2-.457 0-.707.11-.908.2-.167.07-.286.12-.567.12-.28 0-.4-.06-.567-.13-.2-.09-.45-.2-.91-.2-.458 0-.708.11-.91.2-.166.07-.285.12-.566.12-.26 0-.47.24-.47.53 0 .29.21.53.47.53.458 0 .708-.11.91-.2.166-.07.286-.13.567-.13.28 0 .4.05.566.13.2.09.452.2.91.2.457 0 .707-.11.908-.2.166-.078.286-.13.567-.13.28 0 .4.05.566.125.21.09.46.2.91.2.46 0 .71-.11.91-.2.17-.07.29-.12.57-.12.28 0 .4.05.57.12.2.09.45.2.91.2s.71-.11.91-.2c.17-.07.29-.126.57-.126.28 0 .4.05.57.13.2.09.45.2.91.2s.71-.11.91-.2c.17-.075.29-.128.57-.128.28 0 .4.05.57.127.2.09.45.2.91.2s.71-.11.91-.2c.17-.07.29-.12.57-.12.28 0 .4.05.57.122.2.09.45.2.91.2.26 0 .47-.24.47-.54 0-.29-.21-.53-.47-.53M3.9 9.49c.143-.136.324-.202.51-.183.13.013.25.064.35.147l.006.016c.073.188.24.31.423.31h.06c.18 0 .35-.12.43-.31l.01-.016c.1-.083.22-.134.35-.147.18-.018.36.047.51.183.2.19.49.16.66-.066.16-.226.14-.563-.06-.753-.34-.32-.76-.47-1.2-.42-.26.03-.51.12-.73.28-.22-.15-.47-.25-.73-.27-.44-.04-.86.11-1.2.43-.2.19-.23.53-.06.75.17.23.46.26.66.07" fill="#3A434E"/></g></svg>