<svg width="32" height="232" viewBox="0 0 32 232" xmlns="http://www.w3.org/2000/svg"><g fill="none"><path d="M30.54 149.982h-.556v-1.628c.314-.25.614-.52.898-.814.188-.194.188-.51 0-.706-.188-.194-.494-.194-.683 0l-.22.213v-6.755c0-.275-.22-.498-.49-.498h-1.9c-.27 0-.49.223-.49.498v3.53h-1.37l-.67-19.705v-3.595c0-.276-.22-.498-.48-.498s-.49.223-.49.498v3.595l-.49 14.438h-.97c-.26 0-.48.223-.48.498v3.08h-.37v-1.512c0-.27-.22-.49-.48-.49h-1.95c-.27 0-.48.23-.48.5v1.02h-.47v-2.36l.01-.14v-2.85c0-.55-.44-.99-.97-.99-.54 0-.97.45-.97 1v.31l-.01.15v1.1l-1.22-.37v-2.34l-.04-.19c-.04-2.54-1.95-4.61-4.37-4.83v-3.48c0-.28-.22-.5-.49-.5H7.72c-.18 0-.343.1-.427.26-.086.16-.076.36.02.51l.517.8-.515.8c-.1.15-.106.35-.022.51.083.16.247.267.425.267H9.9v.85c-2.34.28-4.17 2.305-4.232 4.776-.038.07-.062.15-.062.24v2.33l-1.202.38v-1.56c0-.55-.433-1-.966-1-.533 0-.966.443-.966.993v.31l-.01.145V150h-.844c-.533 0-.966.44-.966.99s.433 1 .966 1H30.54c.534 0 .967-.45.967-1s-.433-.993-.966-.993zm-19.75-11.854c-.142-.147-.374-.187-.555-.094-.116.06-.203.163-.244.29l-.02.158v.034l.05.19c.05.094.12.17.22.218.07.035.15.054.22.054.13 0 .25-.052.34-.145.09-.087.13-.2.14-.318v-.034c0-.07-.01-.15-.05-.22l-.09-.13zm-6.397 1.387v-.236l.01-.15v-.12H8.95c.267 0 .483-.22.483-.5l-.003-.04c-.017-.26-.224-.47-.48-.47H7.116l3.254-1.04 3.336 1.04h-1.758c-.255 0-.462.2-.48.46l-.003.03c0 .27.217.5.483.5h4.536v.5H4.394zm5.732-7.427l.325-.02.325.02c.2.495.405 1.338.442 2.535H9.682c.037-1.197.24-2.04.442-2.535zm-3.552 3.92v-.388h7.732v1.543l-3.797-1.176c-.092-.028-.19-.028-.28 0l-3.655 1.16v-1.14zm13.273 6.133v-1.02h.98v1.51c0 .28.217.5.484.5h1.337c.267 0 .483-.22.483-.5v-3.07h.454l-.19 5.6v.02c0 1.6-1.26 2.9-2.81 2.9-.083 0-.158.03-.226.06-.494-.3-.96-.65-1.39-1.06-.154-.15-.376-.17-.553-.07v-4.34h.947c.267 0 .483-.22.483-.5zm4.84-1l.14 4.04c.002 1.65.997 3.05 2.397 3.62-.87.33-1.797.49-2.75.49-.902 0-1.786-.15-2.622-.45 1.46-.53 2.51-1.97 2.51-3.66l.24-6.84.1 2.81zm2.91 3.68c.268 0 .484-.22.484-.5v-3.53h.94v7.06l-.343.23-.077-.01c-1.55 0-2.81-1.3-2.81-2.9v-.01l-.01-.33h1.818zm1.424 5.17h-2.26c.793-.21 1.553-.53 2.26-.96v.96zm-6.817 0h-3.786v-2.1c1.092 1.02 2.39 1.73 3.786 2.1zm-8.925-15.36h-1.094c-.023-.74-.112-1.49-.272-2.13.73.45 1.25 1.23 1.366 2.14zm-4.66-6.36l.194-.3c.108-.16.108-.38 0-.55l-.193-.3H9.9v1.15H8.62zm.37 4.23c-.16.65-.248 1.4-.27 2.14H7.623c.117-.9.636-1.68 1.366-2.13zm5.77 17.5h-.487v-2.04c0-2.17-1.71-3.94-3.82-3.94s-3.82 1.77-3.82 3.95V150h-.49v-2.046c0-2.45 1.94-4.45 4.31-4.45 2.38 0 4.31 1.996 4.31 4.447V150zm-1.452 0h-5.71v-2.04c0-1.62 1.28-2.94 2.855-2.94s2.86 1.33 2.86 2.95V150zm2.418 0v-2.04c0-3-2.366-5.44-5.273-5.44-2.9 0-5.27 2.45-5.27 5.45V150H4.4v-9.47h.89v1.18h.966v-1.18h.84v1.18h.965v-1.18h.84v1.18h.97v-1.18h.84v1.18h.97v-1.18h.84v1.18h.97v-1.18h.84v1.18h.97v-1.18h1.21V150h-.76zm-2.196-20.82c.202.19.46.29.727.29h2.727c0 .29.12.56.327.75.17.16.4.25.63.25h2.96c.53 0 .96-.44.96-.99s-.43-.99-.96-.99v-.14c0-.62-.5-1.13-1.1-1.13h-5.57c-.27 0-.53.1-.73.29-.24.22-.37.53-.37.85 0 .33.14.64.38.85zm.638-.95l.088-.03h5.574c.074 0 .134.06.134.14 0 .08-.06.14-.134.14-.267 0-.482.23-.482.5h-.002c0 .28.216.5.483.5h1.087-2.967.002c.26 0 .48-.22.48-.5s-.22-.5-.49-.5h-3.69l-.09-.03-.05-.1.04-.1z" fill="#206FAC"/><path d="M30.54 109.982h-.556v-1.628c.314-.25.614-.52.898-.814.188-.194.188-.51 0-.706-.188-.194-.494-.194-.683 0l-.22.213v-6.755c0-.275-.22-.498-.49-.498h-1.9c-.27 0-.49.223-.49.498v3.53h-1.37l-.67-19.705v-3.595c0-.276-.22-.498-.48-.498s-.49.223-.49.498v3.595l-.49 14.438h-.97c-.26 0-.48.223-.48.498v3.08h-.37v-1.512c0-.27-.22-.49-.48-.49h-1.95c-.27 0-.48.23-.48.5v1.02h-.47v-2.37l.01-.14v-2.85c0-.55-.44-.99-.97-.99-.54 0-.97.45-.97 1v.31l-.01.15v1.1l-1.22-.37v-2.34l-.04-.19c-.04-2.54-1.95-4.61-4.37-4.83v-3.49c0-.27-.22-.5-.49-.5H7.72c-.18 0-.343.1-.427.27-.086.17-.076.36.02.52l.517.8-.515.8c-.1.15-.106.35-.022.51.083.16.247.266.425.266H9.9v.85c-2.34.28-4.17 2.31-4.232 4.78-.038.07-.062.15-.062.24v2.33l-1.202.38V96.3c0-.55-.433-.997-.966-.997-.533 0-.966.445-.966.995v.313l-.01.15V110h-.844c-.533 0-.966.442-.966.992s.433.998.966.998H30.54c.534 0 .967-.445.967-.995s-.433-.995-.966-.995zM10.79 98.128c-.142-.147-.374-.187-.555-.094-.116.06-.203.163-.244.29l-.02.158v.034l.05.19c.05.094.12.17.22.218.07.035.15.054.22.054.13 0 .25-.052.34-.145.09-.087.13-.2.14-.318v-.034c0-.07-.01-.15-.05-.22l-.09-.13zm-6.397 1.387v-.236l.01-.15v-.12H8.95c.267 0 .483-.22.483-.5l-.003-.04c-.017-.26-.224-.47-.48-.47H7.116l3.254-1.04L13.706 98h-1.758c-.255 0-.462.205-.48.464l-.003.036c0 .278.217.5.483.5h4.536v.5H4.394zm5.732-7.427l.325-.02.325.02c.2.495.405 1.338.442 2.535H9.682c.037-1.197.24-2.04.442-2.535zm-3.552 3.92v-.388h7.732v1.543l-3.797-1.176c-.092-.028-.19-.028-.28 0l-3.655 1.16v-1.14zm13.273 6.133v-1.02h.98v1.51c0 .28.217.5.484.5h1.337c.267 0 .483-.22.483-.5v-3.07h.454l-.19 5.6v.02c0 1.6-1.26 2.9-2.81 2.9-.083 0-.158.03-.226.06-.494-.3-.96-.66-1.39-1.06-.154-.15-.376-.17-.553-.07v-4.34h.947c.267 0 .483-.22.483-.5zm4.84-1l.14 4.04c.002 1.65.997 3.05 2.397 3.62-.87.33-1.797.49-2.75.49-.902 0-1.786-.15-2.622-.45 1.46-.53 2.51-1.97 2.51-3.66l.24-6.84.1 2.81zm2.91 3.68c.268 0 .484-.22.484-.5v-3.53h.94v7.06l-.343.23-.077-.01c-1.55 0-2.81-1.3-2.81-2.9v-.01l-.01-.33h1.818zm1.424 5.17h-2.26c.793-.21 1.553-.53 2.26-.96v.96zm-6.817 0h-3.786v-2.1c1.092 1.02 2.39 1.73 3.786 2.1zm-8.925-15.36h-1.094c-.023-.74-.112-1.49-.272-2.13.73.45 1.25 1.23 1.366 2.14zm-4.66-6.36l.194-.3c.108-.16.108-.38 0-.55l-.193-.3H9.9v1.15H8.62zm.37 4.23c-.16.65-.248 1.4-.27 2.14H7.623c.117-.9.636-1.68 1.366-2.13zm5.77 17.5h-.487v-2.04c0-2.17-1.71-3.94-3.82-3.94s-3.82 1.77-3.82 3.95V110h-.49v-2.046c0-2.45 1.94-4.45 4.31-4.45 2.38 0 4.31 1.996 4.31 4.447V110zm-1.452 0h-5.71v-2.04c0-1.62 1.28-2.94 2.855-2.94s2.86 1.33 2.86 2.95V110zm2.418 0v-2.04c0-3-2.366-5.44-5.273-5.44-2.9 0-5.27 2.45-5.27 5.45V110H4.4v-9.47h.89v1.18h.966v-1.18h.84v1.18h.965v-1.18h.84v1.18h.97v-1.18h.84v1.18h.97v-1.18h.84v1.18h.97v-1.18h.84v1.18h.97v-1.18h1.21V110h-.76zm-2.196-20.83c.202.19.46.29.727.29h2.727c0 .29.12.56.327.75.17.16.4.25.63.25h2.96c.53 0 .96-.44.96-.99s-.43-.99-.96-1v-.14c0-.62-.5-1.13-1.1-1.13h-5.57c-.27 0-.53.1-.73.29-.24.21-.37.52-.37.85 0 .32.14.63.38.85zm.638-.95l.088-.03h5.574c.074 0 .134.06.134.14 0 .08-.06.14-.134.14-.267 0-.482.22-.482.49h-.002c0 .28.216.5.483.5h1.087-2.967.002c.26 0 .48-.22.48-.5s-.22-.49-.49-.49h-3.69l-.09-.04-.05-.1.04-.1z" fill="#fff"/><path d="M30.54 69.982h-.556v-1.628c.314-.25.614-.52.898-.814.188-.194.188-.51 0-.706-.188-.194-.494-.194-.683 0l-.22.213v-6.755c0-.275-.22-.498-.49-.498h-1.9c-.27 0-.49.223-.49.498v3.53h-1.37l-.67-19.705v-3.595c0-.276-.22-.498-.48-.498s-.49.223-.49.498v3.595l-.49 14.438h-.97c-.26 0-.48.223-.48.498v3.08h-.37V60.62c0-.274-.22-.497-.48-.497h-1.95c-.27 0-.48.224-.48.498v1.02h-.47v-2.36l.01-.14v-2.85c0-.55-.44-.99-.97-.99-.54 0-.97.45-.97 1v.31l-.01.15v1.1l-1.22-.38v-2.34l-.04-.19c-.04-2.54-1.95-4.61-4.37-4.83v-3.49c0-.27-.22-.5-.49-.5H7.72c-.18 0-.343.1-.427.26-.086.17-.076.36.02.52l.517.8-.515.8c-.1.15-.106.35-.022.51.083.16.247.26.425.26H9.9v.86c-2.34.28-4.17 2.3-4.232 4.78-.038.07-.062.15-.062.24v2.34l-1.202.38V56.3c0-.55-.433-.998-.966-.998-.533 0-.966.444-.966.994v.31l-.01.14v13.24h-.844c-.533 0-.966.446-.966.996s.433.996.966.996H30.54c.534 0 .967-.445.967-.995s-.433-.996-.966-.996zM10.79 58.128c-.142-.147-.374-.187-.555-.094-.116.06-.203.163-.244.29l-.02.158v.034l.05.19c.05.094.12.17.22.218.07.035.15.054.22.054.13 0 .25-.052.34-.145.09-.087.13-.2.14-.318v-.034c0-.07-.01-.15-.05-.22l-.09-.13zm-6.397 1.387v-.236l.01-.15v-.12H8.95c.267 0 .483-.22.483-.5l-.003-.04c-.017-.26-.224-.47-.48-.47H7.116l3.254-1.04L13.706 58h-1.758c-.255 0-.462.205-.48.464l-.003.036c0 .278.217.5.483.5h4.536v.5H4.394zm5.732-7.427l.325-.02.325.02c.2.495.405 1.338.442 2.535H9.682c.037-1.197.24-2.04.442-2.535zm-3.552 3.92v-.388h7.732v1.543l-3.797-1.176c-.092-.028-.19-.028-.28 0l-3.655 1.16v-1.14zm13.273 6.133v-1.02h.98v1.51c0 .28.217.5.484.5h1.337c.267 0 .483-.22.483-.5v-3.07h.454l-.19 5.6v.02c0 1.6-1.26 2.9-2.81 2.9-.083 0-.158.03-.226.06-.494-.3-.96-.66-1.39-1.06-.154-.15-.376-.17-.553-.07v-4.35h.947c.267 0 .483-.22.483-.5zm4.84-1l.14 4.04c.002 1.65.997 3.05 2.397 3.62-.87.33-1.797.49-2.75.49-.902 0-1.786-.15-2.622-.45 1.46-.53 2.51-1.97 2.51-3.66l.24-6.84.1 2.81zm2.91 3.68c.268 0 .484-.22.484-.5v-3.53h.94v7.06l-.343.23-.077-.01c-1.55 0-2.81-1.3-2.81-2.9v-.01l-.01-.33h1.818zm1.424 5.17h-2.26c.793-.21 1.553-.53 2.26-.96v.96zm-6.817 0h-3.786v-2.1c1.092 1.02 2.39 1.73 3.786 2.1zm-8.925-15.36h-1.094c-.023-.74-.112-1.49-.272-2.13.73.45 1.25 1.23 1.366 2.14zm-4.66-6.36l.194-.3c.108-.16.108-.38 0-.55l-.193-.3H9.9v1.15H8.62zm.37 4.23c-.16.65-.248 1.4-.27 2.14H7.623c.117-.9.636-1.68 1.366-2.13zm5.77 17.5h-.487v-2.05c0-2.17-1.71-3.94-3.82-3.94s-3.82 1.77-3.82 3.95V70h-.49v-2.04c0-2.45 1.94-4.45 4.31-4.45 2.38 0 4.31 1.996 4.31 4.447v2.04zm-1.452 0h-5.71v-2.05c0-1.63 1.28-2.95 2.854-2.95s2.86 1.33 2.86 2.95V70zm2.418 0v-2.05c0-3-2.366-5.44-5.273-5.44-2.9 0-5.27 2.44-5.27 5.45V70H4.4v-9.47h.89v1.18h.966v-1.18h.84v1.18h.965v-1.18h.84v1.18h.97v-1.18h.84v1.18h.97v-1.18h.84v1.18h.97v-1.18h.84v1.18h.97v-1.18h1.21V70h-.76zm-2.196-20.83c.202.19.46.29.727.29h2.727c0 .29.12.56.327.75.17.16.4.25.63.25h2.96c.53 0 .96-.44.96-.99s-.43-.99-.96-1v-.14c0-.62-.5-1.13-1.1-1.13h-5.57c-.27 0-.53.1-.73.29-.24.21-.37.52-.37.85 0 .32.14.63.38.85zm.638-.95l.088-.03h5.574c.074 0 .134.06.134.14 0 .08-.06.14-.134.14-.267 0-.482.22-.482.49h-.002c0 .28.216.5.483.5h1.087-2.967.002c.26 0 .48-.22.48-.5s-.22-.49-.49-.49h-3.69l-.09-.04-.05-.1.04-.1z" fill="#67737B"/><path d="M30.54 29.982h-.556v-1.628c.314-.25.614-.52.898-.814.188-.194.188-.51 0-.706-.188-.194-.494-.194-.683 0l-.22.213v-6.755c0-.275-.22-.498-.49-.498h-1.9c-.27 0-.49.223-.49.498v3.53h-1.37l-.67-19.705V.522c0-.276-.22-.498-.48-.498s-.48.223-.48.498v3.595l-.49 14.438h-.97c-.26 0-.48.223-.48.498v3.08h-.37V20.62c0-.274-.22-.497-.48-.497h-1.95c-.27 0-.48.224-.48.498v1.02h-.47v-2.36l.01-.14v-2.85c0-.55-.43-.99-.97-.99s-.97.45-.97 1v.31l-.01.15v1.1l-1.22-.38v-2.34l-.04-.19c-.04-2.54-1.95-4.61-4.37-4.83v-3.5c0-.27-.22-.49-.49-.49H7.72c-.18 0-.343.1-.427.27-.086.17-.076.36.02.52l.517.8-.515.8c-.1.15-.106.35-.022.51.083.16.247.27.425.27H9.9v.85c-2.34.28-4.17 2.3-4.232 4.77-.038.07-.062.16-.062.24v2.34l-1.202.39V16.3c0-.55-.433-.995-.966-.995-.533 0-.966.448-.966.998v.313l-.01.14v13.24h-.844c-.533 0-.966.45-.966 1s.433.995.966.995H30.54c.534 0 .967-.44.967-.99s-.433-1-.966-1zM10.79 18.128c-.142-.147-.374-.187-.555-.094-.116.06-.203.163-.244.29l-.02.158v.034l.05.19c.05.094.12.17.22.218.07.035.15.054.22.054.13 0 .25-.052.34-.145.09-.087.13-.2.14-.318v-.034c0-.07-.01-.15-.05-.22l-.09-.13zm-6.397 1.387v-.236l.01-.15v-.12H8.95c.267 0 .483-.22.483-.5l-.003-.04c-.017-.26-.224-.47-.48-.47H7.116l3.254-1.04L13.706 18h-1.758c-.255 0-.462.205-.48.464l-.003.036c0 .278.217.5.483.5h4.536v.5H4.394zm5.732-7.427l.325-.02.325.02c.2.495.405 1.338.442 2.535H9.682c.037-1.197.24-2.04.442-2.535zm-3.552 3.92v-.388h7.732v1.543l-3.797-1.176c-.092-.028-.19-.028-.28 0l-3.655 1.16v-1.14zm13.273 6.133v-1.02h.98v1.51c0 .28.217.5.484.5h1.337c.267 0 .483-.22.483-.5v-3.07h.454l-.19 5.6v.02c0 1.6-1.26 2.9-2.81 2.9-.083 0-.158.03-.226.06-.494-.3-.96-.66-1.39-1.06-.154-.15-.376-.17-.553-.07v-4.35h.947c.267 0 .483-.22.483-.5zm4.84-1l.14 4.04c.002 1.65.997 3.05 2.397 3.62-.87.33-1.797.49-2.75.49-.902 0-1.786-.15-2.622-.45 1.46-.53 2.51-1.97 2.51-3.66l.24-6.84.1 2.81zm2.91 3.68c.268 0 .484-.22.484-.5v-3.53h.94v7.06l-.343.23-.077-.01c-1.55 0-2.81-1.3-2.81-2.9v-.01l-.01-.33h1.818zm1.424 5.17h-2.26c.793-.21 1.553-.53 2.26-.96v.96zm-6.817 0h-3.786v-2.1c1.092 1.02 2.39 1.73 3.786 2.1zm-8.925-15.36h-1.094c-.023-.74-.112-1.49-.272-2.13.73.45 1.25 1.23 1.366 2.14zm-4.66-6.37l.194-.3c.108-.16.108-.38 0-.55l-.193-.3H9.9v1.15H8.62zm.37 4.23c-.16.65-.248 1.4-.27 2.14H7.623c.117-.9.636-1.68 1.366-2.14zm5.77 17.5h-.487v-2.05c0-2.17-1.71-3.94-3.82-3.94s-3.82 1.77-3.82 3.95v2.04h-.49v-2.04c0-2.45 1.94-4.45 4.31-4.45 2.38 0 4.31 2 4.31 4.45v2.04zm-1.452 0h-5.71v-2.05c0-1.62 1.28-2.94 2.855-2.94s2.86 1.33 2.86 2.95V30zm2.418 0v-2.05c0-3-2.366-5.44-5.273-5.44-2.9 0-5.27 2.44-5.27 5.45v2.04H4.4v-9.47h.89v1.18h.966v-1.18h.84v1.18h.965v-1.18h.84v1.18h.97v-1.18h.84v1.18h.97v-1.18h.84v1.18h.97v-1.18h.84v1.18h.97v-1.18h1.21v9.47h-.76zM13.528 9.16c.202.184.46.285.727.285h2.727c0 .286.12.558.327.747.17.16.4.25.63.25h2.96c.53 0 .96-.447.96-.997 0-.548-.43-.994-.96-.997V8.31c0-.626-.5-1.135-1.1-1.135h-5.57c-.27 0-.53.1-.73.284-.24.21-.37.52-.37.85 0 .32.14.63.38.85zm.638-.953l.088-.035h5.574c.074 0 .134.062.134.14 0 .075-.06.137-.134.137-.267 0-.482.22-.482.49h-.002c0 .27.216.5.483.5h1.087-2.967.002c.26 0 .48-.23.48-.5s-.22-.5-.49-.5h-3.69l-.09-.04-.05-.11.04-.11z" fill="#3A434E"/></g></svg>