<svg width="32" height="232" viewBox="0 0 32 232" xmlns="http://www.w3.org/2000/svg"><g fill="none"><path d="M6.414 144.064c-.086-.045-.183-.062-.28-.05-.103.015-.2.065-.275.143-.1.095-.15.224-.15.36 0 .19.1.364.26.45.06.035.14.054.21.054.07 0 .15-.01.21-.05l.12-.09c.09-.09.14-.22.14-.36 0-.13-.05-.26-.14-.35l-.13-.09zm-.603-11.956c-.04-.098-.12-.177-.21-.226-.08-.044-.17-.06-.27-.05l-.19.072-.09.072c-.15.154-.18.39-.09.587.05.096.12.174.21.222.07.036.15.055.22.055.13 0 .25-.053.34-.148.15-.154.18-.39.09-.584zm23.69-7.07l-.12-.092c-.08-.045-.18-.062-.28-.05-.1.015-.2.065-.27.143-.09.09-.14.22-.14.35 0 .19.11.36.27.45.07.03.14.05.22.05.08 0 .15-.02.22-.06l.13-.1c.09-.1.14-.23.14-.36 0-.14-.05-.26-.14-.36zM4.74 140.99l-.4-.23-.22-.42c-.085-.162-.246-.262-.422-.262s-.338.1-.423.262l-.218.42-.4.23c-.154.088-.25.258-.25.442 0 .185.096.355.25.443l.4.23.218.42c.085.162.247.263.423.263s.337-.1.422-.263l.22-.42.4-.23c.154-.088.25-.258.25-.443s-.096-.354-.25-.442zm20.002-18.103l.4.23.218.42c.085.16.247.26.423.26s.337-.1.422-.26l.218-.42.4-.23c.154-.09.25-.26.25-.443 0-.185-.096-.355-.25-.443l-.4-.23-.218-.42c-.085-.16-.246-.26-.422-.26s-.338.1-.423.26l-.22.42-.4.23c-.153.09-.25.26-.25.45s.097.36.25.45zM16.22 142.86c-.036-.144-.13-.264-.26-.328-.127-.065-.275-.066-.405-.005l-2.032.963c-.13.062-.226.18-.265.323-.04.143-.015.297.064.42l1.825 2.83c.13.203.383.278.596.177l1.023-.485c.213-.1.326-.35.268-.587l-.814-3.307zm5.748.455c-.508-1.168-1.416-2.066-2.56-2.53-.17-.07-.348-.13-.53-.178-.627-.272-1.124-.776-1.404-1.427-.185-.43-.263-.902-.226-1.37l.086-.336.002-.01.002-.01.04-.218.003-.023.01-.018.01-.03.03-.21v-.034l.01-.06v-.02l.01-.17v-.39l-.01-.16-.01-.11-.03-.17v-.01l-.02-.09-.04-.17v-.01l-.02-.09-.05-.19v-.01l-.02-.07-.103-.27c-.88-2.06-3.21-2.98-5.17-2.05l-.36.17-3.36-7.43-.02-.06-.2-.43 1.03-.49c.24-.11.35-.41.24-.66-.11-.25-.395-.37-.64-.25l-1.03.49-.24-.552 1.036-.49c.243-.11.35-.41.24-.67-.11-.253-.393-.366-.635-.25l-1.03.49-.02-.033c-.04-.09-.1-.16-.17-.21l-.393-1.73c-.03-.14-.12-.25-.23-.32-.38-.382-.95-.492-1.44-.26-.49.235-.79.754-.77 1.306-.03.138 0 .28.08.4l.98 1.45c-.01.09 0 .185.04.27l.01.04-1.03.49c-.24.11-.35.41-.24.66.11.25.396.37.638.25l1.03-.49.24.55-1.033.49c-.24.116-.35.415-.24.67.11.254.39.367.633.25l1.03-.49.19.43.03.06 3.09 7.564-.36.17c-1.96.93-2.84 3.37-1.95 5.43l.12.255.045.08.1.17.04.07.01.02.1.15.064.08.105.14.075.09.11.12.07.08.11.11.01.01.07.07.123.11.015.01.05.04.03.02.165.12.023.014v.006l.01.01.013.01.18.11.01.01.31.16c.36.28.64.652.83 1.083.28.65.31 1.375.09 2.05-.09.17-.16.35-.23.53-.43 1.21-.386 2.53.12 3.71.82 1.92 2.71 3.06 4.704 2.86l.366-.05c.38-.07.743-.19 1.093-.358l1.38-.654.04.09c.108.25.39.36.635.25.24-.12.35-.42.24-.67l-.04-.09 1.38-.65c.41-.2.784-.45 1.12-.75l.14-.13c1.463-1.43 1.893-3.68 1.07-5.59l-.01-.02zm-6.25 2.83l-1.28-1.98.992-.47.57 2.314-.284.13zM5.74 122.66l-.85-1.264c-.008-.148.07-.288.202-.35.13-.06.282-.03.382.072l.342 1.505-.077.036zm1.188 2.88l-.834-1.94.16-.075.834 1.938-.16.076zm.395.92l.162-.077 5.8 12.825-.632.3-5.33-13.048zm8.113 23.66l-.022.01c-.24.114-.495.196-.755.245l-.26.037c-.89.092-1.79-.22-2.46-.843.02-.2.08-.38.15-.55.17-.39.47-.7.86-.88.88-.42 1.93-.01 2.33.92.07.16.11.33.14.51.02.17.02.36-.01.53zm4.157-2.67l-.08.074c-.2.18-.42.328-.66.44l-2.513 1.19c-.04-.17-.093-.336-.162-.497-.62-1.438-2.237-2.08-3.607-1.43-.41.196-.76.49-1.03.85-.23-.647-.23-1.352 0-2.005l.15-.356.06-.125c.42-1.19.38-2.48-.12-3.63-.34-.79-.88-1.47-1.56-1.97l-.18-.1-.21-.11h-.01l-.09-.05h-.01l-.01-.01-.08-.05-.01-.01-.04-.03-.07-.05-.02-.03-.02-.01-.05-.06-.04-.04-.05-.06-.04-.05-.05-.07-.03-.04-.05-.07-.03-.05-.05-.08-.03-.04-.06-.13c-.45-1.05 0-2.29 1-2.76l.33-.15 1.83 4.48c.05.126.15.224.27.273.12.05.25.046.37-.01l1.53-.724c.24-.114.35-.41.24-.67l-.03-.046-1.97-4.366.325-.156c1-.47 2.18-.002 2.63 1.046l.05.13.014.05.03.095.012.06.02.09.01.04.005.01.01.09.008.06.007.08.003.06v.227l-.003.055v.02l-.02.1v.024l-.02.102v.01l-.07.24-.044.21c-.1.86.03 1.735.37 2.53.497 1.15 1.39 2.04 2.517 2.5l.123.04.357.114c.676.276 1.21.807 1.508 1.496l.01.015c.48 1.12.22 2.43-.63 3.27zm-4.278-6.464c-.11-.254-.394-.367-.637-.253l-1.86.88c-.24.116-.35.415-.24.67.11.253.395.366.637.25l1.86-.88c.24-.114.35-.414.24-.667zm9.802-1.874l-13.135-15.577c-.176-.208-.48-.228-.68-.043l-.36.335c-.2.184-.217.504-.042.712.173.2.47.22.67.05l.01-.01 12.496 14.82-.352.33h-.01c-.198.18-.217.5-.04.71.142.17.37.21.557.12l.13-.08.36-.34 1.58 1.87c.15.17.37.21.56.12l.12-.08c.2-.19.22-.51.05-.71l-1.89-2.25zm2.79-11.12l-.003-.037-.014-.047-.015-.047-.017-.03-.027-.05-.02-.03-.03-.03-.03-.03-.04-.03-.03-.01-.05-.03-3.8-1.58c-.15-.06-.31-.04-.45.06-.13.1-.21.25-.21.42v3.89c-.15-.05-.31-.09-.48-.09-.8 0-1.45.69-1.45 1.52 0 .84.65 1.52 1.45 1.52s1.45-.68 1.45-1.52v-2.99l1.81.75 1.04.44V132c-.15-.056-.31-.088-.48-.088-.79 0-1.44.68-1.44 1.52 0 .83.65 1.514 1.448 1.514s1.446-.68 1.446-1.52V128.1l-.007-.066zm-5.247 4.31c-.268 0-.485-.23-.485-.51s.217-.51.485-.51.485.23.485.51-.217.51-.485.51zm3.808 1.585c-.268 0-.485-.23-.485-.51s.218-.508.485-.508.485.22.485.5-.218.51-.485.51zm.485-5.356v.38l-.266-.11-2.58-1.07v-.5l2.845 1.19v.13zm-7.82.04c.8 0 1.448-.68 1.448-1.52v-4.68c.26.16.44.46.44.8 0 .28.22.51.48.51.27 0 .48-.22.48-.5 0-1.07-.83-1.94-1.84-1.94l-.01.01h-.01c-.26 0-.48.23-.48.51v3.89c-.15-.06-.31-.09-.48-.09-.79 0-1.44.68-1.44 1.52s.65 1.52 1.45 1.52zm0-2.03c.27 0 .486.23.486.51s-.22.51-.49.51-.49-.23-.49-.51.21-.51.48-.51z" fill="#206FAC"/><path d="M6.414 104.064c-.086-.045-.183-.062-.28-.05-.103.015-.2.065-.275.143-.1.095-.15.224-.15.36 0 .19.1.364.26.45.06.035.14.054.21.054.07 0 .15-.01.21-.05l.12-.09c.09-.09.14-.22.14-.36 0-.13-.05-.26-.14-.35l-.13-.09zM5.81 92.108c-.046-.098-.122-.177-.215-.226-.083-.044-.176-.06-.27-.05l-.194.072-.08.072c-.15.154-.18.39-.09.587.05.096.12.174.21.222.07.036.15.055.22.055.13 0 .25-.053.34-.148.15-.154.18-.39.09-.584zm23.69-7.07l-.123-.092c-.086-.045-.184-.062-.28-.05-.103.015-.2.065-.275.143-.09.09-.142.22-.142.35 0 .19.103.36.265.45.067.03.142.05.217.05.075 0 .148-.02.216-.06l.125-.1c.09-.1.14-.23.14-.36 0-.14-.05-.26-.14-.36zM4.74 100.99l-.4-.23-.22-.42c-.085-.162-.246-.262-.422-.262s-.338.1-.423.262l-.218.42-.4.23c-.154.088-.25.258-.25.442 0 .185.096.355.25.443l.4.23.218.42c.085.162.247.263.423.263s.337-.1.422-.263l.22-.42.4-.23c.154-.088.25-.258.25-.443s-.096-.354-.25-.442zm20-18.105l.4.23.218.42c.085.16.247.26.423.26s.34-.1.43-.26l.22-.42.4-.23c.16-.09.25-.26.25-.443 0-.185-.09-.355-.25-.443l-.4-.23-.21-.42c-.08-.17-.24-.27-.42-.27s-.33.1-.42.26l-.22.42-.4.23c-.15.08-.25.26-.25.44s.1.35.25.44zm-8.52 19.975c-.036-.144-.13-.264-.26-.328-.127-.065-.275-.066-.405-.005l-2.032.963c-.13.062-.226.18-.265.323-.04.143-.015.297.064.42l1.825 2.83c.13.203.383.278.596.177l1.023-.485c.213-.1.326-.35.268-.587l-.814-3.307zm5.748.455c-.508-1.168-1.416-2.066-2.56-2.53-.17-.07-.348-.13-.53-.178-.627-.272-1.124-.776-1.404-1.427-.185-.43-.263-.902-.226-1.37l.086-.336.002-.01.002-.01.04-.218.003-.023.01-.018.01-.03.03-.21v-.034l.01-.06v-.02l.01-.17v-.39l-.01-.16-.02-.12-.03-.17v-.01l-.02-.09-.04-.17v-.01l-.02-.09-.05-.19v-.01l-.02-.07-.1-.27c-.882-2.06-3.21-2.98-5.17-2.05l-.36.17-3.36-7.44-.023-.06-.183-.43 1.03-.49c.24-.11.35-.41.24-.67-.11-.25-.39-.36-.63-.25l-1.03.49-.24-.55 1.03-.49c.247-.11.35-.41.24-.66-.11-.252-.39-.365-.63-.25l-1.03.49-.017-.04c-.04-.09-.1-.16-.17-.21l-.4-1.732c-.035-.14-.12-.255-.238-.323-.38-.38-.95-.49-1.44-.26-.49.236-.79.755-.765 1.307-.03.133 0 .28.08.4l.97 1.45c-.01.09 0 .183.04.27l.01.037-1.03.49c-.25.11-.35.41-.247.662.11.25.39.364.633.25l1.03-.49.24.55-1.04.49c-.24.11-.35.41-.24.66.11.255.395.368.637.253L6.1 86l.184.43.033.06 3.09 7.56-.36.17c-1.967.94-2.845 3.37-1.957 5.44l.12.26.044.08.1.17.04.07.01.02.1.15.06.08.1.14.08.08.11.12.07.077.11.11.01.01.07.07.122.108.016.01.05.045.03.02.17.12.005.005.02.01h.006l.01.01.02.01.18.11.01.003.31.16c.36.28.64.657.83 1.088.28.65.31 1.38.09 2.05-.09.18-.16.36-.23.54-.43 1.21-.384 2.53.12 3.71.82 1.92 2.71 3.06 4.7 2.86l.37-.054c.38-.07.743-.19 1.093-.358l1.38-.655.04.09c.11.25.394.36.64.25.24-.12.35-.42.24-.67l-.04-.09 1.372-.65c.4-.2.78-.45 1.12-.75l.14-.13c1.46-1.43 1.89-3.68 1.07-5.59l-.01-.02zm-6.25 2.83l-1.28-1.98.992-.47.57 2.314-.284.13zM5.74 82.66l-.85-1.264c-.008-.148.07-.288.202-.35.13-.06.282-.03.382.072l.342 1.505-.077.036zm1.188 2.88l-.834-1.94.16-.075.834 1.938-.16.076zm.395.92l.162-.077 5.8 12.825-.632.3-5.33-13.048zm8.113 23.66l-.022.01c-.24.114-.495.196-.755.245l-.26.037c-.89.092-1.79-.22-2.46-.843.02-.2.08-.38.15-.55.17-.39.47-.7.86-.88.88-.42 1.93-.01 2.33.92.07.16.11.33.14.51.02.17.02.36-.01.53zm4.157-2.67l-.08.074c-.2.18-.42.328-.66.44l-2.513 1.19c-.04-.17-.093-.336-.162-.497-.62-1.438-2.237-2.08-3.607-1.43-.41.196-.76.49-1.03.85-.23-.647-.23-1.352 0-2.005l.15-.356.06-.125c.42-1.19.38-2.48-.12-3.63-.34-.79-.88-1.47-1.56-1.97l-.18-.1-.21-.11h-.01l-.09-.05h-.01l-.01-.01-.08-.05-.01-.01-.04-.03-.07-.05-.02-.03-.02-.01-.05-.06-.04-.04-.05-.06-.04-.05-.05-.07-.03-.04-.05-.07-.03-.05-.07-.1-.03-.04-.06-.13c-.45-1.05 0-2.29 1-2.76l.326-.15 1.83 4.48c.05.127.15.225.27.274.12.05.253.043.37-.01l1.53-.727c.24-.113.35-.41.24-.67l-.024-.045-1.97-4.365.32-.16c1-.47 2.18 0 2.63 1.047l.05.13.01.047.03.098.01.06.02.09.01.04v.01l.01.09.007.06.003.08.005.06v.14l-.01.087-.004.05v.02l-.02.1v.02l-.02.1-.002.01-.07.24-.05.21c-.1.86.03 1.735.37 2.53.5 1.15 1.39 2.04 2.52 2.5l.125.04.35.114c.675.27 1.21.802 1.507 1.49l.01.015c.48 1.12.22 2.433-.635 3.27zm-4.278-6.464c-.11-.254-.394-.367-.637-.253l-1.86.88c-.24.116-.35.415-.24.67.11.253.395.366.637.25l1.86-.88c.24-.114.35-.414.24-.667zm9.802-1.874L11.982 83.535c-.176-.208-.48-.228-.68-.043l-.36.335c-.2.184-.217.504-.042.712.173.2.47.22.67.05l.01-.01L24.076 99.4l-.352.33-.01.007c-.198.185-.217.504-.04.713.142.17.37.217.557.128l.13-.082.36-.335 1.58 1.87c.15.17.37.22.56.13l.12-.08c.2-.18.22-.5.05-.71l-1.89-2.24zm2.79-11.12l-.003-.037-.014-.047-.015-.047-.017-.03-.027-.05-.02-.03-.03-.03-.03-.03-.04-.03-.03-.01-.05-.03-3.8-1.58c-.15-.06-.31-.04-.45.06-.13.1-.21.25-.21.42v3.89c-.15-.05-.31-.09-.48-.09-.8 0-1.45.69-1.45 1.52 0 .84.65 1.52 1.45 1.52s1.45-.68 1.45-1.52v-2.99l1.81.75 1.04.44V92c-.15-.056-.31-.088-.48-.088-.79 0-1.44.68-1.44 1.52 0 .83.65 1.514 1.445 1.514.8 0 1.447-.68 1.447-1.52v-5.33L27.92 88zM22.66 92.3c-.268 0-.485-.23-.485-.51s.217-.51.485-.51.485.23.485.51-.217.51-.485.51zm3.808 1.585c-.268 0-.485-.23-.485-.51s.218-.508.485-.508.485.228.485.508-.218.51-.485.51zm.485-5.356v.37l-.266-.11-2.58-1.08v-.5l2.845 1.18v.13zm-7.82.03c.8 0 1.448-.68 1.448-1.52v-4.68c.26.16.44.46.44.79 0 .27.22.5.48.5.27 0 .48-.23.48-.5 0-1.07-.83-1.94-1.84-1.94h-.01l-.01-.01c-.26 0-.48.23-.48.51v3.89c-.15-.06-.31-.09-.48-.09-.79 0-1.44.68-1.44 1.52 0 .83.65 1.52 1.45 1.52zm0-2.03c.27 0 .486.23.486.51s-.22.51-.49.51-.49-.23-.49-.51.21-.51.48-.51z" fill="#fff"/><path d="M6.414 64.064c-.086-.045-.183-.062-.28-.05-.103.015-.2.065-.275.143-.1.095-.15.224-.15.36 0 .19.1.364.26.45.06.035.14.054.21.054.07 0 .15-.01.21-.05l.12-.09c.09-.09.14-.22.14-.36 0-.13-.05-.26-.14-.35l-.12-.09zM5.81 52.108c-.046-.098-.122-.177-.215-.226-.083-.044-.176-.06-.27-.05l-.194.072-.08.072c-.15.154-.18.39-.09.587.05.096.12.174.21.222.07.036.15.055.22.055.13 0 .25-.053.34-.148.15-.154.18-.39.09-.584zm23.69-7.07l-.123-.092c-.086-.045-.184-.062-.28-.05-.103.015-.2.065-.275.143-.09.09-.142.22-.142.35 0 .19.103.36.265.45.067.03.142.05.217.05.075 0 .148-.02.216-.06l.125-.1c.09-.1.14-.23.14-.36 0-.14-.05-.26-.14-.36zM4.74 60.99l-.4-.23-.22-.42c-.085-.162-.246-.262-.422-.262s-.338.1-.423.262l-.218.42-.4.23c-.154.088-.25.258-.25.442 0 .185.096.355.25.443l.4.23.218.42c.085.162.247.263.423.263s.337-.1.422-.263l.22-.42.4-.23c.154-.088.25-.258.25-.443s-.096-.354-.25-.442zm20-18.105l.4.23.218.42c.085.16.247.26.423.26s.34-.1.43-.26l.22-.42.4-.23c.16-.09.25-.26.25-.443 0-.185-.09-.355-.25-.443l-.4-.23-.21-.42c-.08-.17-.24-.27-.42-.27s-.33.1-.42.26l-.22.42-.4.23c-.15.08-.25.26-.25.44s.1.35.25.44zM16.22 62.86c-.036-.144-.13-.264-.26-.328-.127-.065-.275-.066-.405-.005l-2.032.963c-.13.062-.226.18-.265.323-.04.143-.015.297.064.42l1.825 2.83c.13.203.383.278.596.177l1.023-.485c.213-.1.326-.35.268-.587l-.814-3.307zm5.748.455c-.508-1.168-1.416-2.066-2.56-2.53-.17-.07-.348-.13-.53-.178-.627-.272-1.124-.776-1.404-1.427-.185-.43-.263-.902-.226-1.37l.086-.336.002-.01.002-.01.04-.218.003-.023.01-.018.01-.03.03-.21v-.034l.01-.06v-.02l.01-.17v-.39l-.01-.16-.02-.12-.03-.17v-.01l-.02-.09-.04-.17v-.01l-.02-.09-.05-.19v-.01l-.02-.07-.1-.27c-.882-2.06-3.21-2.98-5.17-2.05l-.36.17-3.36-7.44-.023-.06-.183-.43 1.03-.49c.24-.11.35-.41.24-.67-.11-.25-.39-.36-.63-.25l-1.03.49-.24-.55 1.03-.49c.247-.11.35-.41.24-.66-.11-.252-.39-.365-.63-.25l-1.03.49-.017-.04c-.04-.09-.1-.16-.17-.21l-.4-1.732c-.035-.14-.12-.255-.238-.323-.38-.38-.95-.49-1.44-.26-.49.236-.79.755-.765 1.307-.03.133 0 .28.08.4l.97 1.45c-.01.09 0 .183.04.27l.01.037-1.03.49c-.25.11-.35.41-.247.662.11.25.39.364.633.25l1.03-.49.24.55-1.04.49c-.24.11-.35.41-.24.66.11.255.395.368.637.253L6.1 46l.184.43.033.06 3.09 7.56-.36.17c-1.967.94-2.845 3.37-1.957 5.44l.12.26.044.08.1.17.04.07.01.02.1.15.06.08.1.14.08.08.11.12.07.077.11.11.01.01.07.07.122.108.016.01.05.045.03.02.17.12.005.005.02.01h.006l.01.01.02.01.18.11.01.003.31.16c.36.28.64.657.83 1.088.28.65.31 1.38.09 2.05-.09.18-.16.36-.23.54-.43 1.21-.384 2.53.12 3.71.82 1.92 2.71 3.06 4.7 2.86l.37-.054c.38-.07.743-.19 1.093-.358l1.38-.655.04.09c.11.25.394.36.64.25.24-.12.35-.42.24-.67l-.04-.09 1.372-.65c.4-.2.78-.45 1.12-.75l.14-.13c1.46-1.43 1.89-3.68 1.07-5.59l-.01-.02zm-6.25 2.83l-1.28-1.98.992-.47.57 2.314-.284.13zM5.74 42.66l-.85-1.264c-.008-.148.07-.288.202-.35.13-.06.282-.03.382.072l.342 1.505-.077.036zm1.188 2.88l-.834-1.94.16-.075.834 1.938-.16.076zm.395.92l.162-.077 5.8 12.825-.632.3-5.33-13.048zm8.113 23.66l-.022.01c-.24.114-.495.196-.755.245l-.26.037c-.89.092-1.79-.22-2.46-.843.02-.2.08-.38.15-.55.17-.39.47-.7.86-.88.88-.42 1.93-.01 2.33.92.07.16.11.33.14.51.02.17.02.36-.01.53zm4.157-2.67l-.08.074c-.2.18-.42.328-.66.44l-2.513 1.19c-.04-.17-.093-.336-.162-.497-.62-1.438-2.237-2.08-3.607-1.43-.41.196-.76.49-1.03.85-.23-.647-.23-1.352 0-2.005l.15-.356.06-.125c.42-1.19.38-2.48-.12-3.63-.34-.79-.88-1.47-1.56-1.97l-.18-.1-.21-.11h-.01l-.09-.05h-.01l-.01-.01-.08-.05-.01-.01-.04-.03-.07-.05-.02-.03-.02-.01-.05-.06-.04-.04-.05-.06-.04-.05-.05-.07-.03-.04-.05-.07-.03-.05-.07-.1-.03-.04-.06-.13c-.45-1.05 0-2.29 1-2.76l.326-.15 1.83 4.48c.05.127.15.225.27.274.12.05.253.043.37-.01l1.53-.727c.24-.113.35-.41.24-.67l-.024-.045-1.97-4.365.32-.16c1-.47 2.18 0 2.63 1.047l.05.13.01.047.03.098.01.06.02.09.01.04v.01l.01.09.007.06.003.08.005.06v.14l-.01.087-.004.05v.02l-.02.1v.02l-.02.1-.002.01-.07.24-.05.21c-.1.86.03 1.735.37 2.53.5 1.15 1.39 2.04 2.52 2.5l.125.04.35.114c.675.27 1.21.802 1.507 1.49l.01.015c.48 1.12.22 2.433-.635 3.27zm-4.278-6.464c-.11-.254-.394-.367-.637-.253l-1.86.88c-.24.116-.35.415-.24.67.11.253.395.366.637.25l1.86-.88c.24-.114.35-.414.24-.667zm9.802-1.874L11.982 43.535c-.176-.208-.48-.228-.68-.043l-.36.335c-.2.184-.217.504-.042.712.173.2.47.22.67.05l.01-.01L24.076 59.4l-.352.33-.01.007c-.198.185-.217.504-.04.713.142.17.37.217.557.128l.13-.082.36-.335 1.58 1.87c.15.17.37.22.56.13l.12-.08c.2-.18.22-.5.05-.71l-1.89-2.24zm2.79-11.12l-.003-.037-.014-.047-.015-.047-.017-.03-.027-.05-.02-.03-.03-.03-.03-.03-.04-.03-.03-.01-.05-.03-3.8-1.58c-.15-.06-.31-.04-.45.06-.13.1-.21.25-.21.42v3.89c-.15-.05-.31-.09-.48-.09-.8 0-1.45.69-1.45 1.52 0 .84.65 1.52 1.45 1.52s1.45-.68 1.45-1.52v-2.99l1.81.75 1.04.44V52c-.15-.056-.31-.088-.48-.088-.79 0-1.44.68-1.44 1.52 0 .83.65 1.514 1.445 1.514.8 0 1.447-.68 1.447-1.52v-5.33L27.92 48zM22.66 52.3c-.268 0-.485-.23-.485-.51s.217-.51.485-.51.485.23.485.51-.217.51-.485.51zm3.808 1.585c-.268 0-.485-.23-.485-.51s.218-.508.485-.508.485.228.485.508-.218.51-.485.51zm.485-5.356v.37l-.266-.11-2.58-1.08v-.5l2.845 1.18v.13zm-7.82.03c.8 0 1.448-.68 1.448-1.52v-4.68c.26.16.44.46.44.79 0 .27.22.5.48.5.27 0 .48-.23.48-.5 0-1.07-.83-1.94-1.84-1.94h-.01l-.01-.01c-.26 0-.48.23-.48.51v3.89c-.15-.06-.31-.09-.48-.09-.79 0-1.44.68-1.44 1.52 0 .83.65 1.52 1.45 1.52zm0-2.03c.27 0 .486.23.486.51s-.22.51-.49.51-.49-.23-.49-.51.21-.51.48-.51z" fill="#67737B"/><path d="M6.414 24.064c-.086-.045-.183-.062-.28-.05-.103.015-.2.065-.275.143-.1.095-.15.224-.15.36 0 .19.1.364.26.45.06.035.14.054.21.054.07 0 .15-.01.21-.05l.12-.09c.09-.09.14-.22.14-.36 0-.13-.05-.26-.14-.35l-.12-.09zM5.81 12.108c-.046-.098-.122-.177-.215-.226-.083-.044-.176-.06-.27-.05l-.194.072-.08.072c-.15.154-.18.39-.09.587.05.096.12.174.21.222.07.036.15.055.22.055.13 0 .25-.053.34-.148.15-.154.18-.39.09-.584zm23.69-7.07l-.123-.092c-.086-.045-.184-.062-.28-.05-.103.015-.2.065-.275.143-.09.09-.142.22-.142.35 0 .19.103.36.265.45.067.03.142.05.217.05.075 0 .148-.02.216-.06l.125-.1c.09-.1.14-.23.14-.36 0-.14-.05-.26-.14-.36zM4.74 20.99l-.4-.23-.22-.42c-.085-.162-.246-.262-.422-.262s-.338.1-.423.262l-.218.42-.4.23c-.154.088-.25.258-.25.442 0 .185.096.355.25.443l.4.23.218.42c.085.162.247.263.423.263s.337-.1.422-.263l.22-.42.4-.23c.154-.088.25-.258.25-.443s-.096-.354-.25-.442zm20-18.105l.4.23.218.42c.085.16.247.26.423.26s.34-.1.43-.26l.22-.42.4-.23c.16-.09.25-.26.25-.443 0-.185-.09-.355-.25-.443l-.4-.23-.21-.42c-.08-.17-.24-.27-.42-.27s-.33.1-.42.26l-.22.42-.4.23c-.15.08-.25.26-.25.44s.1.35.25.44zM16.22 22.86c-.036-.144-.13-.264-.26-.328-.127-.065-.275-.066-.405-.005l-2.032.963c-.13.062-.226.18-.265.323-.04.143-.015.297.064.42l1.825 2.83c.13.203.383.278.596.177l1.023-.485c.213-.1.326-.35.268-.587l-.814-3.307zm5.748.455c-.508-1.168-1.416-2.066-2.56-2.53-.17-.07-.348-.13-.53-.178-.627-.272-1.124-.776-1.404-1.427-.185-.43-.263-.902-.226-1.37l.086-.336.002-.01.002-.01.04-.218.003-.023.01-.018.01-.03.03-.21v-.034l.01-.06v-.02l.01-.17v-.39l-.01-.16-.02-.12-.03-.17v-.01l-.02-.09-.04-.17v-.01l-.02-.09-.05-.19v-.01l-.02-.07-.1-.27c-.882-2.06-3.21-2.98-5.17-2.05l-.36.17-3.4-7.46-.02-.06L8 5.09l1.03-.49c.24-.11.35-.41.24-.664-.11-.253-.396-.366-.638-.25l-1.03.49-.24-.554 1.03-.49c.24-.113.35-.413.24-.666-.11-.26-.393-.37-.635-.25l-1.03.49-.017-.04c-.038-.09-.098-.16-.17-.21L6.37.71C6.337.57 6.25.452 6.134.384c-.38-.383-.95-.493-1.44-.26-.49.234-.79.753-.767 1.305-.03.13 0 .28.077.4l.976 1.45c-.01.09 0 .18.038.27l.016.03-1.03.49c-.243.11-.35.41-.242.66.11.25.394.37.636.25l1.03-.49.24.55-1.032.49c-.242.11-.35.41-.24.66.11.25.394.37.636.25l1.03-.49.186.43.033.06L9.37 14l-.36.17c-1.96.93-2.84 3.37-1.95 5.43l.12.257.05.08.1.177.05.07.01.02.1.15.06.082.11.134.08.09.11.12.07.08.12.11.01.01.074.07.125.106.01.01.05.047.03.02.16.12.02.012v.003l.02.01.18.115.01.004.3.16c.36.28.647.657.83 1.088.28.65.31 1.38.09 2.05-.083.18-.16.358-.22.54-.428 1.21-.38 2.53.122 3.71.82 1.915 2.71 3.06 4.7 2.857l.37-.054c.376-.07.744-.19 1.094-.354l1.37-.654.04.096c.11.252.395.366.637.25.24-.115.35-.414.24-.668l-.04-.09 1.376-.656c.406-.19.784-.44 1.12-.75l.14-.13c1.46-1.43 1.89-3.676 1.07-5.59l-.01-.02zm-6.25 2.83l-1.28-1.98.992-.47.57 2.314-.284.13zM5.74 2.66l-.85-1.264c-.008-.148.07-.288.202-.35.13-.06.282-.03.382.072l.342 1.505-.077.036zm1.188 2.88L6.094 3.6l.16-.075.834 1.938-.16.076zm.395.92l.162-.077 5.8 12.825-.632.3L7.323 6.46zm8.113 23.66l-.022.01c-.24.114-.495.196-.755.245l-.26.037c-.89.092-1.79-.22-2.46-.843.02-.2.08-.38.15-.55.17-.39.47-.7.86-.88.88-.42 1.93-.01 2.33.92.07.16.11.33.14.51.02.17.02.36-.01.53zm4.157-2.67l-.08.074c-.2.18-.42.328-.66.44l-2.513 1.19c-.04-.17-.093-.336-.162-.497-.62-1.438-2.237-2.08-3.607-1.43-.41.196-.76.49-1.03.85-.23-.647-.23-1.352 0-2.005l.15-.356.06-.125c.42-1.19.38-2.48-.12-3.63-.34-.79-.88-1.47-1.56-1.97l-.18-.1-.21-.11h-.01l-.09-.05h-.01l-.01-.01-.08-.05-.01-.01-.04-.03-.07-.05-.02-.03-.02-.01-.05-.06-.04-.04-.05-.06-.04-.05-.05-.07-.03-.04-.05-.07-.03-.05-.07-.1-.03-.04-.06-.13c-.45-1.05 0-2.29 1-2.76l.326-.15 1.83 4.48c.05.127.15.225.27.274.12.05.253.043.37-.01l1.53-.727c.24-.113.35-.41.24-.67l-.024-.045-1.97-4.365.32-.16c1-.47 2.18 0 2.63 1.047l.05.13.01.047.03.098.01.06.02.09.01.04v.01l.01.09.007.06.003.08.005.06v.14l-.01.087-.004.05v.02l-.02.1v.02l-.02.1-.002.01-.07.24-.05.21c-.1.86.03 1.735.37 2.53.5 1.15 1.39 2.04 2.52 2.5l.125.04.35.114c.675.27 1.21.802 1.507 1.49l.01.015c.48 1.12.22 2.433-.635 3.27zm-4.278-6.464c-.11-.254-.394-.367-.637-.253l-1.86.88c-.24.116-.35.415-.24.67.11.253.395.366.637.25l1.86-.88c.24-.114.35-.414.24-.667zm9.802-1.874L11.982 3.535c-.176-.208-.48-.228-.68-.043l-.36.335c-.2.184-.217.504-.042.712.173.2.47.22.67.05l.01-.01L24.076 19.4l-.352.33-.01.007c-.198.185-.217.504-.04.713.142.17.37.217.557.128l.13-.082.36-.335 1.58 1.87c.15.17.37.22.56.13l.12-.08c.2-.18.22-.5.05-.71l-1.89-2.24zm2.79-11.12l-.003-.037-.014-.047-.015-.047-.017-.03-.027-.05-.02-.03-.03-.03-.03-.03-.04-.03-.03-.01-.05-.03v-.01l-3.81-1.58c-.15-.06-.31-.04-.45.06-.13.09-.21.25-.21.41v3.89c-.15-.05-.31-.09-.48-.09-.79 0-1.44.69-1.44 1.52 0 .84.65 1.52 1.45 1.52s1.45-.68 1.45-1.52v-3l1.81.75 1.04.44v1.96c-.15-.05-.31-.09-.48-.09-.8 0-1.45.68-1.45 1.52s.65 1.52 1.45 1.52c.8 0 1.45-.68 1.45-1.52V8zM22.66 12.3c-.268 0-.485-.23-.485-.51s.217-.51.485-.51.485.23.485.51-.217.51-.485.51zm3.808 1.585c-.268 0-.485-.23-.485-.51s.218-.508.485-.508.485.228.485.508-.218.51-.485.51zm.485-5.356v.37l-.266-.11-2.58-1.08v-.5l2.845 1.19v.13zm-7.82.03c.8 0 1.448-.68 1.448-1.52V2.36c.26.16.44.458.44.797 0 .276.22.502.48.502.27 0 .48-.23.48-.51 0-1.07-.83-1.94-1.84-1.94h-.01l-.01-.01c-.26 0-.48.22-.48.5v3.9c-.15-.06-.31-.09-.48-.09-.79 0-1.44.68-1.44 1.52 0 .83.65 1.52 1.45 1.52zm0-2.03c.27 0 .486.23.486.51s-.22.51-.49.51-.49-.23-.49-.51.21-.51.48-.51z" fill="#3A434E"/></g></svg>