<svg width="32" height="232" viewBox="0 0 32 232" xmlns="http://www.w3.org/2000/svg"><g fill="none"><path d="M30.982 147.95h-19.06c-.67 0-1.213-.593-1.213-1.32s.54-1.32 1.21-1.32l.16-.014c1.69-.105 3.04-1.637 3.04-3.505 0-.68-.18-1.32-.5-1.86h15.21c.28 0 .5-.24.5-.55 0-.3-.23-.55-.51-.55h-1.67c.05-.29-.01-.59-.18-.85l-1.34-1.97c-.11-.15-.25-.28-.41-.35l-3.06-1.42-1.58-1.32c-.18-.14-.39-.22-.61-.22-.74 0-3.16-.02-3.54.01-.15.01-.54.05-1.44.71l-1.81-.65c-.1-.03-.21-.05-.32-.05h-3.44l-.25.04-2.93.83-.21.09-3.06 1.7c-.13.07-.24.18-.33.3l-1.81 2.49-.1.16H.99c-.556 0-1.01.49-1.01 1.1s.454 1.09 1.01 1.09H11.9c.67 0 1.216.6 1.216 1.32s-.545 1.32-1.215 1.32l-.16.02c-1.69.1-3.04 1.637-3.04 3.5 0 1.917 1.42 3.477 3.17 3.51h19.12c.56 0 1.01-.49 1.01-1.09s-.45-1.1-1.01-1.1zm-25.86-10.772l2.76-1.538 2.7-.762h3.15l2.145.772c.314.113.66.05.924-.165.32-.255.71-.53.89-.613.37-.01 1.69-.008 2.97.003l1.41 1.177.22.14 2.93 1.36.87 1.278H13.64c-.5-.347-1.096-.548-1.734-.548H4.32l.802-1.103zm15.602 6.37c.215.09.484.205.974.205s.758-.114.974-.205c.178-.075.307-.13.607-.13s.42.055.6.13c.21.09.48.205.97.205s.75-.114.97-.205c.18-.075.3-.13.6-.13s.43.055.61.13c.21.09.48.205.97.205.28 0 .5-.245.5-.548 0-.303-.23-.548-.51-.548-.3 0-.43-.055-.61-.13-.22-.09-.49-.205-.98-.205s-.76.114-.98.205c-.18.075-.31.13-.61.13s-.43-.055-.61-.13c-.22-.09-.48-.205-.97-.205s-.76.114-.98.205c-.18.075-.31.13-.61.13s-.43-.055-.61-.13c-.22-.09-.48-.205-.97-.205s-.76.114-.98.205c-.18.075-.31.13-.61.13s-.43-.055-.61-.13c-.216-.09-.485-.205-.975-.205-.28 0-.504.245-.504.548 0 .303.226.548.504.548.3 0 .43.055.603.13.21.09.48.205.97.205s.755-.114.97-.205c.18-.075.31-.13.61-.13s.43.055.61.13zm7.703 1.486c-.178.075-.307.13-.607.13s-.43-.055-.607-.13c-.215-.09-.484-.205-.974-.205s-.76.11-.98.2c-.18.07-.31.13-.61.13s-.43-.06-.61-.13c-.22-.09-.49-.21-.98-.21s-.76.11-.98.2c-.18.07-.31.13-.61.13s-.43-.06-.61-.13c-.22-.09-.49-.21-.98-.21-.28 0-.51.24-.51.54 0 .3.22.54.5.54.3 0 .43.05.61.13.21.09.48.2.97.2s.76-.12.97-.21c.18-.08.31-.13.61-.13s.43.05.6.13c.21.09.48.2.97.2s.76-.12.972-.21c.174-.07.303-.13.603-.13s.43.06.605.13c.214.092.483.21.973.21s.76-.12.973-.21c.18-.07.31-.13.61-.13s.43.06.61.13c.217.094.486.21.976.21.28 0 .504-.248.504-.55 0-.3-.23-.55-.507-.55-.3 0-.43-.05-.61-.13-.21-.09-.48-.2-.97-.2s-.755.11-.97.2zM11.68 131.51c.1.148.253.226.41.226.102 0 .205-.034.295-.105l1.538-1.21c.225-.18.276-.52.112-.76-.164-.24-.48-.3-.705-.12l-1.538 1.22c-.225.18-.275.52-.112.77zm-5.515-.95c.1.148.253.226.41.226.102 0 .205-.034.295-.105.225-.17.276-.52.112-.76l-1.117-1.67c-.164-.24-.48-.3-.704-.12-.22.18-.27.52-.11.77l1.12 1.67zm-3.256 2.67l2 .347.08.007c.24 0 .46-.192.5-.462.04-.3-.15-.58-.42-.627l-2.01-.346c-.28-.05-.54.15-.58.45-.05.3.14.58.42.62zm6.52-3.217l.08.007c.24 0 .46-.192.5-.462l.32-2.178c.04-.3-.15-.58-.42-.627-.28-.047-.54.156-.58.455l-.32 2.178c-.05.3.14.58.42.627zm1.27.516c.08.05.17.08.26.08.17 0 .33-.09.43-.26l.68-1.19c.14-.26.07-.6-.17-.76-.24-.16-.55-.08-.7.17l-.68 1.19c-.15.25-.08.59.16.75zm-6.54.64l1.09.74c.08.05.17.08.26.08.17 0 .33-.09.43-.26.14-.26.07-.6-.17-.76l-1.09-.74c-.24-.16-.55-.08-.7.17-.15.25-.08.59.16.75zm3.32-1.52c.05.25.26.42.49.42l.11-.02c.27-.07.44-.37.37-.66l-.3-1.37c-.07-.3-.34-.48-.61-.41-.27.07-.44.36-.38.66l.29 1.36zm13.71-6.28c.29-.27.72-.28 1.02-.04l.01.02c.08.19.26.31.45.31h.06c.19 0 .37-.12.46-.32l.01-.03c.29-.24.72-.24 1.02.03.21.19.53.16.71-.07.18-.23.15-.58-.07-.77-.63-.58-1.51-.61-2.17-.16-.66-.46-1.54-.42-2.17.15-.22.19-.25.54-.07.77.18.23.5.26.71.07zm-5.06 1.72c.29-.27.72-.28 1.02-.04l.01.02c.08.19.26.31.45.31h.06c.19 0 .37-.13.45-.32l.01-.03c.3-.24.72-.24 1.02.03.21.2.53.17.71-.06.18-.23.15-.58-.06-.77-.63-.57-1.51-.61-2.17-.15-.66-.46-1.54-.42-2.17.15-.22.19-.24.54-.06.77.18.23.5.26.71.07zm3.57 2.07c-.31 0-.61.12-.84.34-.28.26-.43.64-.43 1.03s.15.77.43 1.03c.23.22.53.34.84.34h1.75l-.01.1c0 .34.14.67.37.9.2.19.46.3.73.3h3.69c.61 0 1.1-.54 1.1-1.2 0-.66-.5-1.2-1.11-1.2h-.108l.025-.29c0-.76-.57-1.38-1.27-1.38H19.7zm5.19 1.66c-.28 0-.51.24-.51.55 0 .3.22.55.5.55h1.35c.05 0 .09.04.09.1 0 .05-.05.1-.1.1h-3.68l-.07-.03-.04-.08.032-.08.06-.03h.01c.28 0 .5-.25.5-.55 0-.31-.23-.55-.507-.55H19.7c-.08 0-.14-.04-.17-.07-.035-.03-.09-.1-.09-.22s.054-.18.09-.21c.03-.04.09-.08.17-.08h5.19c.142 0 .26.13.26.28 0 .16-.117.28-.26.28z" fill="#206FAC"/><path d="M30.982 107.95h-19.06c-.67 0-1.213-.593-1.213-1.32s.54-1.32 1.21-1.32l.16-.014c1.69-.105 3.04-1.637 3.04-3.505 0-.68-.18-1.32-.5-1.86h15.21c.28 0 .5-.24.5-.55 0-.3-.23-.55-.51-.55h-1.67c.05-.29-.01-.59-.18-.85l-1.34-1.97c-.11-.15-.25-.28-.41-.35l-3.06-1.42-1.58-1.32c-.18-.14-.39-.22-.61-.22-.74 0-3.16-.02-3.54.01-.15.01-.54.05-1.45.71l-1.81-.65c-.1-.03-.21-.05-.32-.05h-3.44l-.26.04-2.93.83-.204.09-3.056 1.7c-.13.07-.24.18-.33.3l-1.8 2.49-.09.16H1c-.557 0-1.01.49-1.01 1.1S.443 100.5 1 100.5h10.905c.67 0 1.215.59 1.215 1.32s-.545 1.32-1.215 1.32l-.166.012c-1.7.106-3.05 1.638-3.05 3.506 0 1.916 1.41 3.476 3.17 3.51h19.12c.56 0 1.01-.49 1.01-1.092s-.45-1.1-1.01-1.1zM5.122 97.177l2.76-1.538 2.7-.77h3.15l2.145.77c.314.11.66.05.924-.17.32-.26.71-.53.89-.62.37-.01 1.69-.01 2.97 0l1.41 1.18.22.14 2.93 1.36.87 1.28H13.64c-.5-.35-1.096-.55-1.734-.55H4.32l.802-1.11zm15.602 6.37c.215.09.484.205.974.205s.758-.114.974-.205c.178-.075.307-.13.607-.13s.42.055.6.13c.21.09.48.205.97.205s.75-.114.97-.205c.18-.075.3-.13.6-.13s.43.055.61.13c.21.09.48.205.97.205.28 0 .5-.245.5-.548 0-.303-.23-.548-.51-.548-.3 0-.43-.055-.61-.13-.22-.09-.49-.205-.98-.205s-.76.12-.98.21c-.18.08-.31.13-.61.13s-.43-.05-.61-.13c-.22-.09-.48-.2-.97-.2s-.76.12-.98.21c-.18.08-.31.13-.61.13s-.43-.05-.61-.13c-.22-.09-.48-.2-.97-.2s-.76.12-.98.21c-.18.08-.31.13-.61.13s-.43-.05-.61-.13c-.216-.09-.485-.2-.975-.2-.28 0-.504.25-.504.55 0 .3.226.55.504.55.3 0 .43.06.603.13.21.09.48.21.97.21s.755-.11.97-.2c.18-.07.31-.13.61-.13s.43.06.61.13zm7.703 1.486c-.178.075-.307.13-.607.13s-.43-.055-.607-.13c-.215-.09-.484-.205-.974-.205s-.76.113-.98.204c-.18.075-.31.13-.61.13s-.43-.055-.61-.13c-.22-.09-.49-.205-.98-.205s-.76.113-.98.204c-.18.08-.31.13-.61.13s-.43-.05-.61-.13c-.22-.09-.49-.2-.98-.2-.28 0-.51.25-.51.55 0 .31.22.55.5.55.3 0 .43.06.61.13.21.1.48.21.97.21s.76-.11.97-.2c.18-.07.31-.13.61-.13s.43.06.6.13c.21.1.48.21.97.21s.76-.11.972-.2c.174-.07.303-.13.603-.13s.43.06.605.13c.214.1.483.21.973.21s.76-.11.973-.2c.18-.07.31-.13.61-.13s.43.06.61.13c.217.1.486.21.976.21.28 0 .504-.24.504-.54 0-.3-.23-.55-.507-.55-.3 0-.43-.05-.61-.13-.21-.09-.48-.2-.97-.2s-.755.12-.97.21zM11.68 91.51c.1.148.253.226.41.226.102 0 .205-.034.295-.105l1.538-1.21c.225-.18.276-.52.112-.76-.164-.24-.48-.3-.705-.12l-1.538 1.22c-.225.18-.275.52-.112.77zm-5.515-.95c.1.148.253.226.41.226.102 0 .205-.034.295-.105.225-.17.276-.52.112-.76l-1.117-1.67c-.164-.24-.48-.3-.704-.12-.22.18-.27.52-.11.77l1.12 1.67zM2.91 93.23l2.005.347.08.007c.244 0 .458-.192.498-.462.044-.3-.144-.58-.42-.627L3.07 92.15c-.274-.048-.533.156-.577.454-.043.3.145.58.42.627zm6.523-3.217l.08.007c.244 0 .458-.192.498-.462l.32-2.178c.05-.3-.14-.58-.42-.627-.27-.047-.53.156-.57.455l-.32 2.178c-.04.3.15.58.42.627zm1.276.516c.08.05.17.08.26.08.17 0 .33-.09.43-.26l.68-1.19c.14-.26.07-.6-.17-.76-.24-.16-.55-.08-.7.17l-.68 1.19c-.15.25-.08.59.16.75zm-6.54.64l1.09.74c.08.05.17.08.26.08.17 0 .33-.09.43-.26.14-.26.07-.6-.17-.76l-1.09-.74c-.24-.16-.55-.08-.7.17-.15.25-.08.59.16.75zm3.33-1.52c.05.25.26.42.49.42l.11-.02c.27-.07.44-.37.37-.66l-.3-1.36c-.07-.3-.34-.48-.61-.41-.27.07-.44.36-.38.65l.29 1.36zm13.71-6.28c.29-.27.72-.28 1.02-.04l.01.02c.08.19.26.31.45.31h.06c.19 0 .37-.12.46-.32l.01-.03c.3-.24.72-.24 1.02.03.21.19.53.16.71-.07.18-.23.15-.58-.06-.77-.62-.57-1.5-.61-2.16-.15-.66-.46-1.54-.42-2.17.15-.22.19-.24.54-.07.77.18.23.5.26.71.07zm-5.06 1.72c.29-.27.72-.27 1.02-.03l.01.02c.08.19.26.32.46.32h.06c.19 0 .37-.13.46-.32l.01-.03c.3-.24.73-.24 1.02.03.22.19.53.16.71-.07.18-.24.15-.58-.06-.78-.63-.58-1.51-.61-2.16-.16-.66-.46-1.54-.42-2.17.15-.22.19-.24.54-.06.77.18.23.5.26.71.06zm3.57 2.07c-.31 0-.61.13-.84.35-.28.26-.43.64-.43 1.03s.15.77.43 1.03c.23.22.53.34.84.34h1.75l-.01.1c0 .34.14.67.38.9.2.19.46.3.73.3h3.69c.61 0 1.1-.54 1.1-1.2 0-.66-.5-1.2-1.11-1.2h-.11l.02-.29c0-.76-.57-1.38-1.27-1.38H19.7zm5.19 1.67c-.28 0-.51.24-.51.55h-.01c0 .3.22.54.5.54h1.35c.05 0 .09.04.09.1 0 .06-.05.1-.1.1h-3.68l-.06-.03-.04-.08.03-.08.06-.03c.28 0 .5-.25.5-.55 0-.3-.23-.55-.5-.55H19.7c-.08 0-.135-.04-.17-.07-.03-.03-.09-.1-.09-.22s.06-.18.09-.21c.036-.03.094-.07.174-.07h5.19c.147 0 .26.13.26.29 0 .16-.112.28-.26.28z" fill="#fff"/><path d="M30.982 67.95h-19.06c-.67 0-1.213-.593-1.213-1.32s.54-1.32 1.21-1.32l.16-.014c1.69-.105 3.04-1.637 3.04-3.505 0-.68-.18-1.32-.5-1.86h15.21c.28 0 .5-.24.5-.55 0-.3-.23-.55-.51-.55h-1.67c.05-.29-.01-.59-.18-.85l-1.34-1.97c-.11-.15-.25-.28-.41-.35l-3.06-1.42-1.58-1.32c-.18-.14-.39-.22-.61-.22-.74 0-3.16-.02-3.54.01-.15.01-.54.05-1.45.71l-1.81-.65c-.1-.03-.21-.05-.32-.05h-3.44l-.26.04-2.93.83-.204.09-3.056 1.7c-.13.07-.24.18-.33.3l-1.8 2.49-.09.16H1c-.557 0-1.01.49-1.01 1.1S.44 60.5.998 60.5h10.905c.67 0 1.215.59 1.215 1.32s-.545 1.32-1.215 1.32l-.166.01c-1.697.1-3.047 1.63-3.047 3.5 0 1.913 1.416 3.473 3.17 3.51h19.12c.558 0 1.01-.49 1.01-1.095s-.452-1.1-1.01-1.1zM5.122 57.177l2.76-1.538 2.7-.77h3.15l2.145.77c.314.11.66.05.924-.17.32-.26.71-.53.89-.62.37-.01 1.69-.01 2.97 0l1.41 1.18.22.14 2.93 1.36.87 1.28H13.64c-.5-.35-1.096-.55-1.734-.55H4.32l.802-1.11zm15.602 6.37c.215.09.484.205.974.205s.758-.114.974-.205c.178-.075.307-.13.607-.13s.42.055.6.13c.21.09.48.205.97.205s.75-.114.97-.205c.18-.075.3-.13.6-.13s.43.055.61.13c.21.09.48.205.97.205.28 0 .5-.245.5-.548 0-.303-.23-.548-.51-.548-.3 0-.43-.055-.61-.13-.22-.09-.49-.205-.98-.205s-.76.12-.98.21c-.18.08-.31.13-.61.13s-.43-.05-.61-.13c-.22-.09-.48-.2-.97-.2s-.76.12-.98.21c-.18.08-.31.13-.61.13s-.43-.05-.61-.13c-.22-.09-.48-.2-.97-.2s-.76.12-.98.21c-.18.08-.31.13-.61.13s-.43-.05-.61-.13c-.216-.09-.485-.2-.975-.2-.28 0-.504.25-.504.55 0 .3.226.55.504.55.3 0 .43.06.603.13.21.09.48.21.97.21s.755-.11.97-.2c.18-.07.31-.13.61-.13s.43.06.61.13zm7.703 1.486c-.178.075-.307.13-.607.13s-.43-.055-.607-.13c-.215-.09-.484-.205-.974-.205s-.76.113-.98.204c-.18.075-.31.13-.61.13s-.43-.055-.61-.13c-.22-.09-.49-.205-.98-.205s-.76.113-.98.204c-.18.08-.31.13-.61.13s-.43-.05-.61-.13c-.22-.09-.49-.2-.98-.2-.28 0-.51.25-.51.55 0 .31.22.55.5.55.3 0 .43.06.61.13.21.1.48.21.97.21s.76-.11.97-.2c.18-.07.31-.13.61-.13s.43.06.6.13c.21.1.48.21.97.21s.76-.11.972-.2c.174-.07.303-.13.603-.13s.43.06.605.13c.214.1.483.21.973.21s.76-.11.973-.2c.18-.07.31-.13.61-.13s.43.06.61.13c.217.1.486.21.976.21.28 0 .504-.24.504-.54 0-.3-.23-.55-.507-.55-.3 0-.43-.05-.61-.13-.21-.09-.48-.2-.97-.2s-.755.12-.97.21zM11.68 51.51c.1.148.253.226.41.226.102 0 .205-.034.295-.105l1.538-1.21c.225-.18.276-.52.112-.76-.164-.24-.48-.3-.705-.12l-1.538 1.22c-.225.18-.275.52-.112.77zm-5.515-.95c.1.148.253.226.41.226.102 0 .205-.034.295-.105.225-.17.276-.52.112-.76l-1.117-1.67c-.164-.24-.48-.3-.704-.12-.22.18-.27.52-.11.77l1.12 1.67zM2.91 53.23l2.005.347.08.007c.244 0 .458-.192.498-.462.044-.3-.144-.58-.42-.627L3.07 52.15c-.274-.048-.533.156-.577.454-.043.3.145.58.42.627zm6.523-3.217l.08.007c.244 0 .458-.192.498-.462l.32-2.178c.05-.3-.14-.58-.42-.627-.27-.047-.53.156-.57.455l-.32 2.178c-.04.3.15.58.42.627zm1.276.516c.08.05.17.08.26.08.17 0 .33-.09.43-.26l.68-1.19c.14-.26.07-.6-.17-.76-.24-.16-.55-.08-.7.17l-.68 1.19c-.15.25-.08.59.16.75zm-6.54.64l1.09.74c.08.05.17.08.26.08.17 0 .33-.09.43-.26.14-.26.07-.6-.17-.76l-1.09-.74c-.24-.16-.55-.08-.7.17-.15.25-.08.59.16.75zm3.33-1.52c.05.25.26.42.49.42l.11-.02c.27-.07.44-.37.37-.66l-.3-1.36c-.07-.3-.34-.48-.61-.41-.27.07-.44.36-.38.65l.29 1.36zm13.71-6.28c.29-.27.72-.28 1.02-.04l.01.02c.08.19.26.31.45.31h.06c.19 0 .37-.12.46-.32l.01-.03c.3-.24.72-.24 1.02.03.21.19.53.16.71-.07.18-.23.15-.58-.06-.77-.62-.57-1.5-.61-2.16-.15-.66-.46-1.54-.42-2.17.15-.22.19-.24.54-.07.77.18.23.5.26.71.07zm-5.06 1.72c.29-.27.72-.27 1.02-.03l.01.02c.08.19.26.32.46.32h.06c.19 0 .37-.13.46-.32l.01-.03c.3-.24.73-.24 1.02.03.22.19.53.16.71-.07.18-.24.15-.58-.06-.78-.63-.58-1.51-.61-2.16-.16-.66-.46-1.54-.42-2.17.15-.22.19-.24.54-.06.77.18.23.5.26.71.06zm3.57 2.07c-.31 0-.61.13-.84.35-.28.26-.43.64-.43 1.03s.15.77.43 1.03c.23.22.53.34.84.34h1.75l-.01.1c0 .34.14.67.38.9.2.19.46.3.73.3h3.69c.61 0 1.1-.54 1.1-1.2 0-.66-.5-1.2-1.11-1.2h-.11l.02-.29c0-.76-.57-1.38-1.27-1.38H19.7zm5.19 1.67c-.28 0-.51.24-.51.55h-.01c0 .3.22.54.5.54h1.35c.05 0 .09.04.09.1 0 .06-.05.1-.1.1h-3.68l-.06-.03-.04-.08.03-.08.06-.03c.28 0 .5-.25.5-.55 0-.3-.23-.55-.5-.55H19.7c-.08 0-.135-.04-.17-.07-.03-.03-.09-.1-.09-.22s.06-.18.09-.21c.036-.03.094-.07.174-.07h5.19c.147 0 .26.13.26.29 0 .16-.112.28-.26.28z" fill="#67737B"/><path d="M30.982 27.95h-19.06c-.67 0-1.213-.593-1.213-1.32s.54-1.32 1.21-1.32l.16-.014c1.69-.105 3.04-1.637 3.04-3.505 0-.68-.18-1.32-.5-1.86h15.21c.28 0 .5-.24.5-.55 0-.3-.23-.55-.51-.55h-1.67c.05-.29-.01-.59-.18-.85l-1.34-1.97c-.11-.15-.25-.28-.41-.35l-3.06-1.42-1.58-1.32c-.18-.14-.39-.22-.61-.22-.74 0-3.16-.02-3.54.01-.15.01-.54.05-1.45.71l-1.81-.65c-.1-.03-.21-.05-.32-.05h-3.44l-.26.04-2.93.83-.204.09-3.056 1.7c-.13.07-.24.18-.33.3l-1.8 2.49-.09.16H1c-.557 0-1.01.49-1.01 1.1S.44 20.5.998 20.5h10.905c.67 0 1.215.59 1.215 1.32s-.545 1.32-1.215 1.32l-.166.01c-1.697.1-3.047 1.63-3.047 3.5 0 1.913 1.416 3.473 3.17 3.51h19.12c.558 0 1.01-.49 1.01-1.095s-.452-1.1-1.01-1.1zM5.122 17.177l2.76-1.538 2.7-.77h3.15l2.145.77c.314.11.66.05.924-.17.32-.26.71-.53.89-.62.37-.01 1.69-.01 2.97 0l1.41 1.18.22.14 2.93 1.36.87 1.28H13.64c-.5-.35-1.096-.55-1.734-.55H4.32l.802-1.11zm15.602 6.37c.215.09.484.205.974.205s.758-.114.974-.205c.178-.075.307-.13.607-.13s.42.055.6.13c.21.09.48.205.97.205s.75-.114.97-.205c.18-.075.3-.13.6-.13s.43.055.61.13c.21.09.48.205.97.205.28 0 .5-.245.5-.548 0-.303-.23-.548-.51-.548-.3 0-.43-.055-.61-.13-.22-.09-.49-.205-.98-.205s-.76.12-.98.21c-.18.08-.31.13-.61.13s-.43-.05-.61-.13c-.22-.09-.48-.2-.97-.2s-.76.12-.98.21c-.18.08-.31.13-.61.13s-.43-.05-.61-.13c-.22-.09-.48-.2-.97-.2s-.76.12-.98.21c-.18.08-.31.13-.61.13s-.43-.05-.61-.13c-.216-.09-.485-.2-.975-.2-.28 0-.504.25-.504.55 0 .3.226.55.504.55.3 0 .43.06.603.13.21.09.48.21.97.21s.755-.11.97-.2c.18-.07.31-.13.61-.13s.43.06.61.13zm7.703 1.486c-.178.075-.307.13-.607.13s-.43-.055-.607-.13c-.215-.09-.484-.205-.974-.205s-.76.113-.98.204c-.18.075-.31.13-.61.13s-.43-.055-.61-.13c-.22-.09-.49-.205-.98-.205s-.76.113-.98.204c-.18.08-.31.13-.61.13s-.43-.05-.61-.13c-.22-.09-.49-.2-.98-.2-.28 0-.51.25-.51.55 0 .31.22.55.5.55.3 0 .43.06.61.13.21.1.48.21.97.21s.76-.11.97-.2c.18-.07.31-.13.61-.13s.43.06.6.13c.21.1.48.21.97.21s.76-.11.972-.2c.174-.07.303-.13.603-.13s.43.06.605.13c.214.1.483.21.973.21s.76-.11.973-.2c.18-.07.31-.13.61-.13s.43.06.61.13c.217.1.486.21.976.21.28 0 .504-.24.504-.54 0-.3-.23-.55-.507-.55-.3 0-.43-.05-.61-.13-.21-.09-.48-.2-.97-.2s-.755.12-.97.21zM11.68 11.51c.1.148.253.226.41.226.102 0 .205-.034.295-.105l1.538-1.21c.225-.18.276-.52.112-.76-.164-.24-.48-.3-.705-.12l-1.538 1.22c-.225.18-.275.52-.112.77zm-5.515-.95c.1.148.253.226.41.226.102 0 .205-.034.295-.105.225-.17.276-.52.112-.76L5.865 8.25c-.164-.246-.48-.3-.704-.123-.22.178-.27.52-.11.765l1.12 1.67zM2.91 13.23l2.005.347.08.007c.244 0 .458-.192.498-.462.044-.3-.144-.58-.42-.627L3.07 12.15c-.274-.048-.533.156-.577.454-.043.3.145.58.42.627zm6.523-3.217l.08.007c.244 0 .458-.192.498-.462l.32-2.178c.05-.3-.14-.58-.42-.627-.27-.047-.53.156-.57.455l-.32 2.178c-.04.3.15.58.42.627zm1.276.516c.08.05.17.08.26.08.17 0 .33-.09.43-.26l.68-1.19c.14-.26.07-.6-.17-.76-.24-.16-.55-.08-.7.17l-.68 1.19c-.15.25-.08.59.16.75zm-6.54.64l1.09.74c.08.05.17.08.26.08.17 0 .33-.09.43-.26.14-.26.07-.6-.17-.76l-1.09-.74c-.24-.16-.55-.08-.7.17-.15.25-.08.59.16.75zM7.5 9.65c.055.253.263.423.492.423l.116-.015c.27-.07.44-.363.376-.657L8.19 8.04c-.064-.294-.335-.477-.606-.407-.27.07-.44.364-.376.658l.294 1.37zm13.718-6.28c.297-.27.72-.274 1.02-.034l.01.024c.083.193.26.316.457.316h.06c.197 0 .375-.12.458-.314l.01-.024c.298-.24.722-.235 1.02.036.212.194.53.163.71-.068.18-.23.15-.573-.062-.77-.62-.57-1.5-.61-2.16-.15-.65-.457-1.54-.42-2.16.152-.21.194-.24.54-.06.77.18.234.5.264.71.07zm-5.06 1.73c.296-.27.72-.273 1.02-.033l.008.024c.083.2.26.32.457.32h.06c.197 0 .375-.12.458-.31l.01-.02c.3-.24.73-.23 1.02.04.22.2.54.17.71-.06.18-.23.16-.57-.06-.77-.63-.57-1.51-.61-2.16-.15-.65-.45-1.54-.42-2.16.16-.21.2-.24.54-.06.77.18.23.5.26.71.07zm3.576 2.07c-.31 0-.607.125-.84.347-.273.262-.43.64-.43 1.035 0 .396.157.773.43 1.036.234.223.532.345.84.345h1.752l-.005.105c0 .344.14.672.38.9.2.193.46.3.73.3h3.69c.61 0 1.11-.538 1.11-1.2 0-.662-.49-1.2-1.1-1.2h-.1l.03-.284c0-.76-.57-1.38-1.27-1.38h-5.19zm5.19 1.667c-.28 0-.505.245-.505.548h-.01c0 .303.22.548.5.548h1.35c.05 0 .09.047.09.104 0 .057-.05.104-.1.104h-3.68l-.07-.02-.04-.07.03-.08.06-.02c.28 0 .5-.24.5-.55 0-.3-.23-.55-.51-.55H19.7c-.08 0-.13-.04-.17-.07-.03-.03-.09-.1-.09-.21s.06-.18.09-.21c.04-.03.1-.07.18-.07h5.19c.15 0 .26.13.26.29 0 .16-.11.29-.26.29z" fill="#3A434E"/></g></svg>