<svg width="32" height="232" viewBox="0 0 32 232" xmlns="http://www.w3.org/2000/svg"><g fill="none">
<path id="XMLID_332_" fill="#3A444F" d="M30.2,22.8c0-0.3-0.2-0.5-0.5-0.5c-3.9,0-4.6-2-5.6-4.7c-0.6-1.7-1.3-3.7-3-5.3
				c-3.5-3.5-8.1-3.2-10-3c-0.3,0-0.5,0-0.6,0C9.7,9.3,8.9,8.8,8.3,8C8,7.5,7.9,6.7,7.9,6.2c0.8-1,0.8-2.4,0.8-2.5
				c0-0.1-0.1-0.3-0.2-0.4C8.4,3.3,8.2,3.2,8.1,3.3C5.9,3.6,5,4.8,4.6,5.3c-0.8,0.2-1.5,1-1.7,1.4L1.3,7.6C1.1,7.7,1,7.9,1,8.1
				c0,0.6,0.2,1.1,0.6,1.4c0.8,0.7,2.2,0.6,4.4,0.2l0.6,2.4c-0.5-0.3-1-0.6-1.5-0.6c-1.8-0.3-3.2,0.8-3.3,0.9
				c-0.1,0.1-0.2,0.2-0.2,0.4v1.6c0,0.1,0.1,0.3,0.2,0.4c0.1,0.1,0.2,0.1,0.4,0.1c0.6-0.1,1.4-0.3,1.5-0.9c0.2,0,0.5,0,1,0.2
				c0.5,0.3,1.5,1,1.9,2.9c0,0.2,0.2,0.3,0.3,0.4c0.1,0,0.1,0,0.2,0c0.1,0,0.2,0,0.3-0.1L8,16.6c0,0.4,0.1,0.9,0.3,1.5
				c0.5,1.9,1.6,3.2,3.3,4c1,1.4,2.4,2.5,3.4,3.1c-1.1,0.3-2.7,0.8-3.9,2c-0.1,0.1-0.1,0.2-0.1,0.3l-0.2,2c0,0.2,0.1,0.4,0.3,0.5
				c0.1,0,0.1,0.1,0.2,0.1c0.1,0,0.2,0,0.3-0.1c0,0,3-2.7,6.4-2.5c1.6,0.1,2.1,0,2.4-0.5c0.2-0.5-0.1-0.9-0.6-1.4
				c-0.3-0.4-0.7-0.8-0.8-1.3l-0.7-2.7c1.5-0.2,2.3-1.3,2.8-2.3c0.6,1.3,1.6,2.3,2.9,3.1c1.3,0.7,2.7,1.1,4.2,1.1
				c0.6,0,1.2-0.1,1.8-0.2C30.1,23.3,30.2,23,30.2,22.8z M24.4,21.5c-1.6-0.9-2.7-2.4-3-4.1c-0.1-0.2-0.3-0.4-0.5-0.4
				c-0.3,0-0.4,0.2-0.5,0.5c0,0-0.1,0.8-0.5,1.6c-0.5,1-1.3,1.5-2.4,1.5c0,0,0,0,0,0c0,0,0,0-0.1,0c0,0,0,0-0.1,0c0,0,0,0,0,0
				c0,0,0,0,0,0c0,0,0,0-0.1,0c0,0,0,0,0,0c0,0,0,0,0,0c0,0,0,0,0,0c0,0,0,0,0,0c0,0,0,0,0,0c0,0,0,0,0,0c0,0,0,0,0,0c0,0,0,0,0,0
				c0,0,0,0,0,0c0,0,0,0,0,0c0,0,0,0,0,0.1c0,0,0,0,0,0c0,0,0,0,0,0c0,0,0,0,0,0.1c0,0,0,0,0,0.1c0,0,0,0,0,0l0.9,3.3
				c0.2,0.7,0.7,1.2,1.1,1.7c0.1,0.1,0.1,0.1,0.2,0.2c-0.2,0-0.6,0-1.2,0c-2.7-0.2-5,1.1-6.2,2l0.1-0.6c1.7-1.6,4.4-1.8,4.5-1.8
				c0.2,0,0.4-0.2,0.5-0.4c0.1-0.2,0-0.4-0.2-0.5c0,0-2.7-1.5-4.2-3.7c0,0,0,0,0,0c-0.7-0.9-1.2-2-1.2-3.1c0-1.7,0.5-2.9,1.4-3.5
				c1.7-1.3,4.6-0.5,4.6-0.5c0.3,0.1,0.5-0.1,0.6-0.3c0.1-0.3-0.1-0.5-0.3-0.6c-0.1,0-3.3-0.9-5.5,0.6c-1.2,0.9-1.8,2.4-1.8,4.3
				c0,0.6,0.1,1.2,0.3,1.8C9,18.5,9,16.4,9,15.7l1.6-1.5c0.2-0.2,0.2-0.5,0-0.7c-0.2-0.2-0.5-0.2-0.7,0l-2.7,2.5
				c-0.8-2.4-2.6-3.1-3.7-3C3,13,2.7,13.3,2.7,13.6c0,0,0,0-0.1,0.1V13c0.4-0.2,1.3-0.7,2.3-0.5c0.9,0.1,1.6,0.7,2.3,1.7
				c0.1,0.2,0.5,0.3,0.7,0.2c0.2-0.1,0.3-0.4,0.2-0.6c0,0,0,0,0,0L6.8,9C6.7,8.7,6.5,8.5,6.2,8.6c0,0-0.1,0-0.1,0
				c-0.1,0-0.1,0-0.2,0C4.4,8.9,2.8,9.2,2.2,8.7C2.2,8.7,2.1,8.6,2,8.3l1.5-0.8c0.1,0,0.1-0.1,0.2-0.2C4,6.9,4.5,6.3,4.9,6.3
				c0.2,0,0.4-0.1,0.5-0.3c0,0,0.5-1.1,2.2-1.6C7.5,4.8,7.4,5.4,7,5.7C6.9,5.8,6.9,5.9,6.9,6.1c0,0.2,0,1.7,0.6,2.5
				c0.8,1.1,1.8,1.7,3,1.7c0.2,0,0.4,0,0.7,0c1.8-0.1,6-0.4,9.2,2.8c1.5,1.5,2.1,3.3,2.8,5c0.6,1.6,1.1,3.1,2.3,4.1
				C25.1,21.9,24.7,21.7,24.4,21.5z"/>
			<circle id="XMLID_331_" fill="#3A444F" cx="4.5" cy="7.3" r="0.5"/>
		</g>
		<g id="XMLID_422_">
			<path id="XMLID_424_" fill="#67737C" d="M30.2,62.8c0-0.3-0.2-0.5-0.5-0.5c-3.9,0-4.6-2-5.6-4.7c-0.6-1.7-1.3-3.7-3-5.3
				c-3.5-3.5-8.1-3.2-10-3c-0.3,0-0.5,0-0.6,0c-0.8,0-1.6-0.4-2.2-1.3c-0.3-0.4-0.4-1.3-0.4-1.7c0.8-1,0.8-2.4,0.8-2.5
				c0-0.1-0.1-0.3-0.2-0.4c-0.1-0.1-0.3-0.1-0.4-0.1c-2.2,0.4-3.1,1.6-3.5,2.1c-0.8,0.2-1.5,1-1.7,1.4l-1.7,0.9
				C1.1,47.7,1,47.9,1,48.1c0,0.6,0.2,1.1,0.6,1.4c0.8,0.7,2.2,0.6,4.4,0.2l0.6,2.4c-0.5-0.3-1-0.6-1.5-0.6
				c-1.8-0.3-3.2,0.8-3.3,0.9c-0.1,0.1-0.2,0.2-0.2,0.4v1.6c0,0.1,0.1,0.3,0.2,0.4c0.1,0.1,0.2,0.1,0.4,0.1c0.6-0.1,1.4-0.3,1.5-0.9
				c0.2,0,0.5,0,1,0.2c0.5,0.3,1.5,1,1.9,2.9c0,0.2,0.2,0.3,0.3,0.4c0.1,0,0.1,0,0.2,0c0.1,0,0.2,0,0.3-0.1L8,56.6
				c0,0.4,0.1,0.9,0.3,1.5c0.5,1.9,1.6,3.2,3.3,4c1,1.4,2.4,2.5,3.4,3.1c-1.1,0.3-2.7,0.8-3.9,2c-0.1,0.1-0.1,0.2-0.1,0.3l-0.2,2
				c0,0.2,0.1,0.4,0.3,0.5c0.1,0,0.1,0.1,0.2,0.1c0.1,0,0.2,0,0.3-0.1c0,0,3-2.7,6.4-2.5c1.6,0.1,2.1,0,2.4-0.5
				c0.2-0.5-0.1-0.9-0.6-1.4c-0.3-0.4-0.7-0.8-0.8-1.3l-0.7-2.7c1.5-0.2,2.3-1.3,2.8-2.3c0.6,1.3,1.6,2.3,2.9,3.1
				c1.3,0.7,2.7,1.1,4.2,1.1c0.6,0,1.2-0.1,1.8-0.2C30.1,63.3,30.2,63,30.2,62.8z M24.4,61.5c-1.6-0.9-2.7-2.4-3-4.1
				c-0.1-0.2-0.3-0.4-0.5-0.4c-0.3,0-0.4,0.2-0.5,0.5c0,0-0.1,0.8-0.5,1.6c-0.5,1-1.3,1.5-2.4,1.5c0,0,0,0,0,0c0,0,0,0-0.1,0
				c0,0,0,0-0.1,0c0,0,0,0,0,0c0,0,0,0,0,0c0,0,0,0-0.1,0c0,0,0,0,0,0c0,0,0,0,0,0c0,0,0,0,0,0c0,0,0,0,0,0c0,0,0,0,0,0c0,0,0,0,0,0
				c0,0,0,0,0,0c0,0,0,0,0,0c0,0,0,0,0,0c0,0,0,0,0,0c0,0,0,0,0,0.1c0,0,0,0,0,0c0,0,0,0,0,0c0,0,0,0,0,0.1c0,0,0,0,0,0.1
				c0,0,0,0,0,0l0.9,3.3c0.2,0.7,0.7,1.2,1.1,1.7c0.1,0.1,0.1,0.1,0.2,0.2c-0.2,0-0.6,0-1.2,0c-2.7-0.2-5,1.1-6.2,2l0.1-0.6
				c1.7-1.6,4.4-1.8,4.5-1.8c0.2,0,0.4-0.2,0.5-0.4c0.1-0.2,0-0.4-0.2-0.5c0,0-2.7-1.5-4.2-3.7c0,0,0,0,0,0c-0.7-0.9-1.2-2-1.2-3.1
				c0-1.7,0.5-2.9,1.4-3.5c1.7-1.3,4.6-0.5,4.6-0.5c0.3,0.1,0.5-0.1,0.6-0.3c0.1-0.3-0.1-0.5-0.3-0.6c-0.1,0-3.3-0.9-5.5,0.6
				c-1.2,0.9-1.8,2.4-1.8,4.3c0,0.6,0.1,1.2,0.3,1.8C9,58.5,9,56.4,9,55.7l1.6-1.5c0.2-0.2,0.2-0.5,0-0.7c-0.2-0.2-0.5-0.2-0.7,0
				l-2.7,2.5c-0.8-2.4-2.6-3.1-3.7-3C3,53,2.7,53.3,2.7,53.6c0,0,0,0-0.1,0.1V53c0.4-0.2,1.3-0.7,2.3-0.5c0.9,0.1,1.6,0.7,2.3,1.7
				c0.1,0.2,0.5,0.3,0.7,0.2c0.2-0.1,0.3-0.4,0.2-0.6c0,0,0,0,0,0L6.8,49c-0.1-0.3-0.3-0.4-0.6-0.4c0,0-0.1,0-0.1,0
				c-0.1,0-0.1,0-0.2,0c-1.5,0.3-3.2,0.5-3.7,0.1c-0.1-0.1-0.2-0.2-0.2-0.4l1.5-0.8c0.1,0,0.1-0.1,0.2-0.2c0.3-0.4,0.8-1.1,1.2-1.1
				c0.2,0,0.4-0.1,0.5-0.3c0,0,0.5-1.1,2.2-1.6c-0.1,0.4-0.2,1-0.6,1.3c-0.1,0.1-0.1,0.2-0.1,0.4c0,0.2,0,1.7,0.6,2.5
				c0.8,1.1,1.8,1.7,3,1.7c0.2,0,0.4,0,0.7,0c1.8-0.1,6-0.4,9.2,2.8c1.5,1.5,2.1,3.3,2.8,5c0.6,1.6,1.1,3.1,2.3,4.1
				C25.1,61.9,24.7,61.7,24.4,61.5z"/>
			<circle id="XMLID_423_" fill="#67737C" cx="4.5" cy="47.3" r="0.5"/>
		</g>
		<g id="XMLID_689_">
			<path id="XMLID_691_" fill="#FFFFFF" d="M30.2,102.8c0-0.3-0.2-0.5-0.5-0.5c-3.9,0-4.6-2-5.6-4.7c-0.6-1.7-1.3-3.7-3-5.3
				c-3.5-3.5-8.1-3.2-10-3c-0.3,0-0.5,0-0.6,0c-0.8,0-1.6-0.4-2.2-1.3c-0.3-0.4-0.4-1.3-0.4-1.7c0.8-1,0.8-2.4,0.8-2.5
				c0-0.1-0.1-0.3-0.2-0.4c-0.1-0.1-0.3-0.1-0.4-0.1c-2.2,0.4-3.1,1.6-3.5,2.1c-0.8,0.2-1.5,1-1.7,1.4l-1.7,0.9
				C1.1,87.7,1,87.9,1,88.1c0,0.6,0.2,1.1,0.6,1.4c0.8,0.7,2.2,0.6,4.4,0.2l0.6,2.4c-0.5-0.3-1-0.6-1.5-0.6
				c-1.8-0.3-3.2,0.8-3.3,0.9c-0.1,0.1-0.2,0.2-0.2,0.4v1.6c0,0.1,0.1,0.3,0.2,0.4c0.1,0.1,0.2,0.1,0.4,0.1c0.6-0.1,1.4-0.3,1.5-0.9
				c0.2,0,0.5,0,1,0.2c0.5,0.3,1.5,1,1.9,2.9c0,0.2,0.2,0.3,0.3,0.4c0.1,0,0.1,0,0.2,0c0.1,0,0.2,0,0.3-0.1L8,96.6
				c0,0.4,0.1,0.9,0.3,1.5c0.5,1.9,1.6,3.2,3.3,4c1,1.4,2.4,2.5,3.4,3.1c-1.1,0.3-2.7,0.8-3.9,2c-0.1,0.1-0.1,0.2-0.1,0.3l-0.2,2
				c0,0.2,0.1,0.4,0.3,0.5c0.1,0,0.1,0.1,0.2,0.1c0.1,0,0.2,0,0.3-0.1c0,0,3-2.7,6.4-2.5c1.6,0.1,2.1,0,2.4-0.5
				c0.2-0.5-0.1-0.9-0.6-1.4c-0.3-0.4-0.7-0.8-0.8-1.3l-0.7-2.7c1.5-0.2,2.3-1.3,2.8-2.3c0.6,1.3,1.6,2.3,2.9,3.1
				c1.3,0.7,2.7,1.1,4.2,1.1c0.6,0,1.2-0.1,1.8-0.2C30.1,103.3,30.2,103,30.2,102.8z M24.4,101.5c-1.6-0.9-2.7-2.4-3-4.1
				c-0.1-0.2-0.3-0.4-0.5-0.4c-0.3,0-0.4,0.2-0.5,0.5c0,0-0.1,0.8-0.5,1.6c-0.5,1-1.3,1.5-2.4,1.5c0,0,0,0,0,0c0,0,0,0-0.1,0
				c0,0,0,0-0.1,0c0,0,0,0,0,0c0,0,0,0,0,0c0,0,0,0-0.1,0c0,0,0,0,0,0c0,0,0,0,0,0c0,0,0,0,0,0c0,0,0,0,0,0c0,0,0,0,0,0c0,0,0,0,0,0
				c0,0,0,0,0,0c0,0,0,0,0,0c0,0,0,0,0,0c0,0,0,0,0,0c0,0,0,0,0,0.1c0,0,0,0,0,0c0,0,0,0,0,0c0,0,0,0,0,0.1c0,0,0,0,0,0.1
				c0,0,0,0,0,0l0.9,3.3c0.2,0.7,0.7,1.2,1.1,1.7c0.1,0.1,0.1,0.1,0.2,0.2c-0.2,0-0.6,0-1.2,0c-2.7-0.2-5,1.1-6.2,2l0.1-0.6
				c1.7-1.6,4.4-1.8,4.5-1.8c0.2,0,0.4-0.2,0.5-0.4c0.1-0.2,0-0.4-0.2-0.5c0,0-2.7-1.5-4.2-3.7c0,0,0,0,0,0c-0.7-0.9-1.2-2-1.2-3.1
				c0-1.7,0.5-2.9,1.4-3.5c1.7-1.3,4.6-0.5,4.6-0.5c0.3,0.1,0.5-0.1,0.6-0.3c0.1-0.3-0.1-0.5-0.3-0.6c-0.1,0-3.3-0.9-5.5,0.6
				c-1.2,0.9-1.8,2.4-1.8,4.3c0,0.6,0.1,1.2,0.3,1.8C9,98.5,9,96.4,9,95.7l1.6-1.5c0.2-0.2,0.2-0.5,0-0.7c-0.2-0.2-0.5-0.2-0.7,0
				l-2.7,2.5c-0.8-2.4-2.6-3.1-3.7-3C3,93,2.7,93.3,2.7,93.6c0,0,0,0-0.1,0.1V93c0.4-0.2,1.3-0.7,2.3-0.5c0.9,0.1,1.6,0.7,2.3,1.7
				c0.1,0.2,0.5,0.3,0.7,0.2c0.2-0.1,0.3-0.4,0.2-0.6c0,0,0,0,0,0L6.8,89c-0.1-0.3-0.3-0.4-0.6-0.4c0,0-0.1,0-0.1,0
				c-0.1,0-0.1,0-0.2,0c-1.5,0.3-3.2,0.5-3.7,0.1c-0.1-0.1-0.2-0.2-0.2-0.4l1.5-0.8c0.1,0,0.1-0.1,0.2-0.2c0.3-0.4,0.8-1.1,1.2-1.1
				c0.2,0,0.4-0.1,0.5-0.3c0,0,0.5-1.1,2.2-1.6c-0.1,0.4-0.2,1-0.6,1.3c-0.1,0.1-0.1,0.2-0.1,0.4c0,0.2,0,1.7,0.6,2.5
				c0.8,1.1,1.8,1.7,3,1.7c0.2,0,0.4,0,0.7,0c1.8-0.1,6-0.4,9.2,2.8c1.5,1.5,2.1,3.3,2.8,5c0.6,1.6,1.1,3.1,2.3,4.1
				C25.1,101.9,24.7,101.7,24.4,101.5z"/>
			<circle id="XMLID_690_" fill="#FFFFFF" cx="4.5" cy="87.3" r="0.5"/>
		</g>
		<g id="XMLID_871_">
			<path id="XMLID_873_" fill="#1D70AD" d="M30.2,142.8c0-0.3-0.2-0.5-0.5-0.5c-3.9,0-4.6-2-5.6-4.7c-0.6-1.7-1.3-3.7-3-5.3
				c-3.5-3.5-8.1-3.2-10-3c-0.3,0-0.5,0-0.6,0c-0.8,0-1.6-0.4-2.2-1.3c-0.3-0.4-0.4-1.3-0.4-1.7c0.8-1,0.8-2.4,0.8-2.5
				c0-0.1-0.1-0.3-0.2-0.4c-0.1-0.1-0.3-0.1-0.4-0.1c-2.2,0.4-3.1,1.6-3.5,2.1c-0.8,0.2-1.5,1-1.7,1.4l-1.7,0.9
				c-0.2,0.1-0.3,0.3-0.3,0.4c0,0.6,0.2,1.1,0.6,1.4c0.8,0.7,2.2,0.6,4.4,0.2l0.6,2.4c-0.5-0.3-1-0.6-1.5-0.6
				c-1.8-0.3-3.2,0.8-3.3,0.9c-0.1,0.1-0.2,0.2-0.2,0.4v1.6c0,0.1,0.1,0.3,0.2,0.4c0.1,0.1,0.2,0.1,0.4,0.1c0.6-0.1,1.4-0.3,1.5-0.9
				c0.2,0,0.5,0,1,0.2c0.5,0.3,1.5,1,1.9,2.9c0,0.2,0.2,0.3,0.3,0.4c0.1,0,0.1,0,0.2,0c0.1,0,0.2,0,0.3-0.1l0.7-0.6
				c0,0.4,0.1,0.9,0.3,1.5c0.5,1.9,1.6,3.2,3.3,4c1,1.4,2.4,2.5,3.4,3.1c-1.1,0.3-2.7,0.8-3.9,2c-0.1,0.1-0.1,0.2-0.1,0.3l-0.2,2
				c0,0.2,0.1,0.4,0.3,0.5c0.1,0,0.1,0.1,0.2,0.1c0.1,0,0.2,0,0.3-0.1c0,0,3-2.7,6.4-2.5c1.6,0.1,2.1,0,2.4-0.5
				c0.2-0.5-0.1-0.9-0.6-1.4c-0.3-0.4-0.7-0.8-0.8-1.3l-0.7-2.7c1.5-0.2,2.3-1.3,2.8-2.3c0.6,1.3,1.6,2.3,2.9,3.1
				c1.3,0.7,2.7,1.1,4.2,1.1c0.6,0,1.2-0.1,1.8-0.2C30.1,143.3,30.2,143,30.2,142.8z M24.4,141.5c-1.6-0.9-2.7-2.4-3-4.1
				c-0.1-0.2-0.3-0.4-0.5-0.4c-0.3,0-0.4,0.2-0.5,0.5c0,0-0.1,0.8-0.5,1.6c-0.5,1-1.3,1.5-2.4,1.5c0,0,0,0,0,0c0,0,0,0-0.1,0
				c0,0,0,0-0.1,0c0,0,0,0,0,0c0,0,0,0,0,0c0,0,0,0-0.1,0c0,0,0,0,0,0c0,0,0,0,0,0c0,0,0,0,0,0c0,0,0,0,0,0c0,0,0,0,0,0c0,0,0,0,0,0
				c0,0,0,0,0,0c0,0,0,0,0,0c0,0,0,0,0,0c0,0,0,0,0,0c0,0,0,0,0,0.1c0,0,0,0,0,0c0,0,0,0,0,0c0,0,0,0,0,0.1c0,0,0,0,0,0.1
				c0,0,0,0,0,0l0.9,3.3c0.2,0.7,0.7,1.2,1.1,1.7c0.1,0.1,0.1,0.1,0.2,0.2c-0.2,0-0.6,0-1.2,0c-2.7-0.2-5,1.1-6.2,2l0.1-0.6
				c1.7-1.6,4.4-1.8,4.5-1.8c0.2,0,0.4-0.2,0.5-0.4c0.1-0.2,0-0.4-0.2-0.5c0,0-2.7-1.5-4.2-3.7c0,0,0,0,0,0c-0.7-0.9-1.2-2-1.2-3.1
				c0-1.7,0.5-2.9,1.4-3.5c1.7-1.3,4.6-0.5,4.6-0.5c0.3,0.1,0.5-0.1,0.6-0.3c0.1-0.3-0.1-0.5-0.3-0.6c-0.1,0-3.3-0.9-5.5,0.6
				c-1.2,0.9-1.8,2.4-1.8,4.3c0,0.6,0.1,1.2,0.3,1.8C9,138.5,9,136.4,9,135.7l1.6-1.5c0.2-0.2,0.2-0.5,0-0.7c-0.2-0.2-0.5-0.2-0.7,0
				l-2.7,2.5c-0.8-2.4-2.6-3.1-3.7-3c-0.7,0.1-0.9,0.4-0.9,0.7c0,0,0,0-0.1,0.1V133c0.4-0.2,1.3-0.7,2.3-0.5
				c0.9,0.1,1.6,0.7,2.3,1.7c0.1,0.2,0.5,0.3,0.7,0.2c0.2-0.1,0.3-0.4,0.2-0.6c0,0,0,0,0,0L6.8,129c-0.1-0.3-0.3-0.4-0.6-0.4
				c0,0-0.1,0-0.1,0c-0.1,0-0.1,0-0.2,0c-1.5,0.3-3.2,0.5-3.7,0.1c-0.1-0.1-0.2-0.2-0.2-0.4l1.5-0.8c0.1,0,0.1-0.1,0.2-0.2
				c0.3-0.4,0.8-1.1,1.2-1.1c0.2,0,0.4-0.1,0.5-0.3c0,0,0.5-1.1,2.2-1.6c-0.1,0.4-0.2,1-0.6,1.3c-0.1,0.1-0.1,0.2-0.1,0.4
				c0,0.2,0,1.7,0.6,2.5c0.8,1.1,1.8,1.7,3,1.7c0.2,0,0.4,0,0.7,0c1.8-0.1,6-0.4,9.2,2.8c1.5,1.5,2.1,3.3,2.8,5
				c0.6,1.6,1.1,3.1,2.3,4.1C25.1,141.9,24.7,141.7,24.4,141.5z"/>
			<circle id="XMLID_872_" fill="#1D70AD" cx="4.5" cy="127.3" r="0.5"/>
		</g>
	</svg>
