<svg width="32" height="232" viewBox="0 0 32 232" xmlns="http://www.w3.org/2000/svg"><g fill="none"><path d="M14.97 123.75c.232.23.53.355.84.355h4.04l-.007.13c0 .353.136.69.375.924.203.19.46.3.73.3H24.7c.61 0 1.104-.55 1.104-1.23S25.308 123 24.7 123h-.134l.034-.32c0-.78-.57-1.417-1.274-1.417H15.81c-.31 0-.61.126-.842.355-.275.27-.432.66-.432 1.064s.158.795.432 1.064zm.652-1.303c.037-.036.1-.08.19-.08h7.516c.158 0 .286.143.286.32 0 .175-.128.318-.286.318-.273 0-.494.246-.494.55h-.002c0 .304.22.55.494.55H24.7c.066 0 .118.06.118.13 0 .073-.052.132-.117.132h-3.75l-.08-.033-.04-.098.04-.097.08-.04c.28 0 .5-.25.5-.55 0-.31-.22-.55-.49-.55h-5.14c-.08 0-.15-.05-.19-.08-.03-.04-.09-.12-.09-.24 0-.13.06-.2.1-.24zm15.892 18.11H30.17l-.877-2.368.764-.5.05.03c.167.1.357.16.55.16.406 0 .782-.25.982-.64.3-.61.1-1.37-.44-1.71l-.07-.04v-1.63l.05-.03c.54-.34.72-1.11.42-1.71-.2-.39-.58-.64-.98-.64-.2 0-.39.05-.56.16l-.05.03-1.35-.87v-.07c0-.69-.51-1.26-1.13-1.26s-1.13.56-1.13 1.25v.08l-1.37.88-.05-.038c-.17-.106-.36-.16-.55-.16-.41 0-.788.244-.987.64-.3.602-.11 1.37.435 1.705l.083.04v1.6l-.08.04c-.54.345-.73 1.11-.42 1.71.2.39.57.637.97.637.194 0 .387-.058.555-.16l.062-.047.75.484-.877 2.36H22.3v-3.85c0-.11-.02-.216-.04-.315l.663-1.24c.09-.17.09-.38 0-.55-.09-.18-.25-.28-.43-.28h-1.09v-2.81l-.006-.07v-1.08c0-.24-.103-1.067-1.414-1.78-.137-.08-.296-.08-.43 0-1.31.71-1.42 1.54-1.42 1.77v1.08l-.01.07v.29h-2.21v-.688c.19-.075.34-.28.34-.52 0-.307-.22-.55-.5-.55h-.91v-.857c0-.305-.22-.55-.496-.55h-.18l.4-.22c.25-.14.35-.47.225-.74-.12-.27-.418-.38-.66-.25l-1.087.6c.16-.216.15-.535-.03-.74-.19-.213-.502-.213-.7 0l-.34.38v-.54c0-.303-.22-.55-.49-.55s-.49.247-.49.55v.6l-.31-.6c-.14-.27-.44-.36-.68-.21-.235.15-.32.49-.18.75l.22.43-.33-.4c-.185-.23-.5-.24-.7-.03-.2.2-.21.55-.03.77l.18.22c-.18.08-.31.277-.31.51v.86H8c-.272 0-.493.247-.493.55 0 .244.14.45.34.52v.686h-2.2v-.29l-.01-.12v-1.03c0-.24-.103-1.06-1.414-1.773-.136-.076-.295-.076-.432 0-1.31.71-1.41 1.54-1.41 1.774v3.97H1.29c-.182 0-.35.11-.436.29-.085.18-.075.4.028.57l.683 1.13c-.047.12-.07.26-.07.4v11.68H1c-.546 0-.988.492-.988 1.1 0 .61.442 1.1.987 1.1h27.68c.54 0 .98-.49.98-1.1s-.44-1.1-.99-1.1h-6.32v-1.38h6.47c.27 0 .49-.247.49-.55 0-.3-.22-.55-.5-.55h-1.17c-.04-.32-.15-.636-.31-.91l.01-.217c0-.867-.63-1.57-1.4-1.57l-.21.02c-.33-.297-.75-.46-1.18-.46-.5 0-.97.216-1.316.6-.15-.05-.31-.078-.47-.078-.158 0-.308.02-.45.07v-1.7h2.792l.16.03h4.54l.152-.03h1.51c.27 0 .49-.25.49-.55 0-.31-.22-.55-.49-.55zm-5.892-3.953l1.466-.943v1.87l-.14.09-1.328-.85v-.15zm-.613-2.704l.15-.11 1.42.917-1.45.933-.14-.092V133.9zm5.14-.006v1.626l-.16.106-1.43-.918 1.42-.918.16.104zm-1.95 3.725l-.13-.09v-1.88l1.46.94v.16l-1.34.86zm1.31-4.8l-1.45.93v-1.86l.14-.09 1.31.84-.01.18zm-2.59-1.02l.15.09v1.85l-1.48-.95-.01-.14 1.33-.86zm-.38 7.39c.18.41.56.7 1.01.7.45 0 .84-.3 1.02-.73l.51 1.38h-3.04l.5-1.35zm-23.18-8.25v-.6c.01-.13.29-.42.64-.66.35.23.63.53.64.65v.66H3.37v-.06zm6.54-1.22h4.01v.3h-4v-.31zm-1.06 1.4H15v.65H8.86v-.66zm-.5 1.75h9.84v1.42H5.66v-1.43h2.704zm10.83-1.94v-.6c.01-.13.29-.42.64-.66.33.22.63.52.64.65v.66h-1.28v-.06zm-.01 1.94v-.79h1.29v2.21h-1.29v-1.43zm-15.82 0v-.79h1.3v2.21H3.37v-1.43zm-.5 2.53h18.81l-.12.21-.287.52H2.67l-.327-.54-.12-.2h.66zm13.75 5.31c.07.2.25.34.45.34.203 0 .38-.14.452-.35.364.18.624.58.65 1.05v4.01c-.158.09-.266.27-.266.48v2.03h-1.6v-2.03c0-.23-.13-.43-.314-.51v-3.99c.026-.47.286-.87.65-1.06zm-5.17 0c.07.2.25.34.46.34.21 0 .38-.14.46-.35.36.18.62.58.64 1.05v4c-.17.09-.28.27-.28.49v2.03h-1.6v-2.03c0-.23-.12-.42-.3-.5v-3.99c.022-.48.282-.87.65-1.06zm-5.17 0c.07.2.25.34.454.34.21 0 .39-.14.46-.35.37.18.63.58.65 1.05v3.99c-.173.08-.3.28-.3.5v2.03H5.89v-2.03c0-.2-.093-.37-.23-.47v-4.03c.023-.47.28-.87.647-1.06zm14.183 7.65v.47H18.9v-2.58h.266v-4.54c-.042-1.08-.73-1.95-1.63-2.17-.07-.21-.25-.36-.46-.36-.212 0-.392.15-.462.36-.902.22-1.586 1.09-1.63 2.16l-.002.02v4.51h.314v2.57h-1.57v-2.58h.276v-4.53c-.045-1.07-.73-1.94-1.63-2.17-.07-.21-.25-.36-.463-.36-.22 0-.39.15-.46.36-.91.23-1.59 1.1-1.64 2.17v4.53h.29v2.58H8.56v-2.58h.298v-4.53c-.046-1.07-.73-1.94-1.632-2.17-.07-.21-.25-.36-.462-.36-.212 0-.392.15-.46.36-.903.22-1.587 1.09-1.632 2.16v4.536h.23v2.58h-1.57v-2.578h.14v-8.47H20.39v8.472h.105v2.1zm2.314-3.99c.12 0 .24.04.35.11.23.16.53.08.68-.17.17-.29.45-.47.75-.47.25 0 .5.12.67.34.14.17.36.23.56.14l.16-.04c.23 0 .42.21.42.46l-.03.15c-.06.18-.028.38.083.53.1.13.17.28.21.43h-4.29v-1.32c.12-.12.28-.19.44-.19z" fill="#206FAC"/><path d="M14.97 83.75c.232.23.53.355.84.355h4.04l-.007.13c0 .353.136.69.375.924.203.19.46.3.73.3H24.7c.61 0 1.104-.55 1.104-1.23S25.308 83 24.7 83h-.134l.034-.32c0-.78-.57-1.417-1.274-1.417H15.81c-.31 0-.61.126-.842.355-.275.27-.432.66-.432 1.064s.158.795.432 1.064zm.652-1.303c.037-.036.1-.08.19-.08h7.516c.158 0 .286.143.286.32 0 .175-.128.318-.286.318-.273 0-.494.246-.494.55h-.002c0 .304.22.55.494.55H24.7c.066 0 .118.06.118.13 0 .073-.052.132-.117.132h-3.75l-.08-.033-.04-.098.04-.097.08-.04c.28 0 .5-.25.5-.55 0-.31-.22-.55-.49-.55h-5.14c-.08 0-.15-.05-.19-.08-.03-.04-.09-.12-.09-.24 0-.13.06-.2.1-.24zm15.892 18.11H30.17l-.877-2.368.764-.5.05.03c.167.1.357.16.55.16.406 0 .782-.25.982-.64.3-.61.1-1.37-.44-1.71l-.07-.04v-1.62l.05-.03c.54-.34.72-1.11.42-1.71-.2-.39-.58-.64-.98-.64-.2 0-.39.05-.56.16l-.05.03-1.35-.87v-.07c0-.69-.51-1.26-1.13-1.26s-1.13.56-1.13 1.25v.07l-1.37.88-.05-.03c-.17-.105-.36-.16-.55-.16-.41 0-.788.245-.987.64-.3.605-.11 1.37.435 1.71l.083.04v1.6l-.08.04c-.54.346-.73 1.11-.42 1.71.2.39.57.64.97.64.194 0 .387-.06.555-.17l.062-.048.75.482-.877 2.366H22.3v-3.8c0-.11-.02-.214-.04-.313l.663-1.237c.09-.17.09-.382 0-.554-.09-.173-.25-.28-.43-.28h-1.09V91.5l-.006-.067v-1.085c0-.237-.103-1.063-1.414-1.776-.137-.074-.296-.074-.43 0-1.31.712-1.42 1.54-1.42 1.776v1.085l-.01.067v.29h-2.21v-.686c.19-.072.34-.276.34-.52 0-.304-.22-.55-.5-.55h-.91v-.854c0-.304-.22-.55-.496-.55h-.18l.4-.223c.25-.136.35-.465.225-.737-.12-.272-.418-.383-.66-.248l-1.087.602c.16-.216.15-.535-.03-.737-.19-.215-.502-.215-.7 0l-.34.38v-.54c0-.305-.22-.55-.49-.55s-.49.245-.49.55v.6l-.31-.598c-.14-.27-.44-.36-.68-.21-.235.15-.32.49-.18.75l.22.43-.33-.4c-.185-.23-.5-.24-.7-.03-.2.2-.21.55-.03.77l.18.21c-.18.08-.31.27-.31.51v.85H8c-.272 0-.493.24-.493.55 0 .24.14.44.34.52v.68h-2.2v-.29l-.01-.12v-1.03c0-.24-.103-1.07-1.414-1.78-.136-.08-.295-.08-.432 0-1.31.71-1.41 1.54-1.41 1.77v3.97H1.29c-.182 0-.35.11-.436.29-.085.18-.075.4.028.56l.683 1.12c-.047.12-.07.26-.07.4v11.67H1c-.546 0-.988.5-.988 1.1 0 .61.442 1.1.987 1.1h27.68c.54 0 .98-.49.98-1.1s-.44-1.1-.99-1.1h-6.32v-1.38h6.47c.27 0 .49-.24.49-.55 0-.3-.22-.55-.5-.55h-1.17c-.04-.32-.15-.63-.31-.91l.01-.21c0-.865-.63-1.57-1.4-1.57l-.21.02c-.33-.295-.75-.46-1.18-.46-.5 0-.97.22-1.316.6-.15-.05-.31-.08-.47-.08-.158 0-.308.027-.45.07v-1.7h2.792l.16.03h4.54l.152-.03h1.51c.27 0 .49-.24.49-.55 0-.3-.22-.55-.49-.55zm-5.892-3.953l1.466-.943v1.87l-.14.09-1.328-.85v-.15zM25.01 93.9l.158-.11 1.427.917-1.45.933-.136-.092V93.9zm5.145-.006v1.626l-.16.106-1.427-.918 1.427-.918.16.104zm-1.95 3.725l-.13-.09v-1.87l1.458.94.004.16-1.334.86zm1.315-4.8l-1.445.93v-1.86l.14-.09 1.31.84-.006.18zm-2.583-1.02l.15.09v1.85l-1.475-.95-.007-.14 1.332-.86zm-.374 7.39c.183.41.566.7 1.01.7.45 0 .84-.3 1.02-.73l.51 1.38h-3.04l.5-1.35zM3.377 90.95v-.6c.01-.126.29-.42.642-.657.35.24.63.535.64.66v.657H3.37v-.056zm6.547-1.22h4.014v.305H9.924v-.304zM8.86 91.134h6.143v.654H8.86v-.654zm-.494 1.755h9.836v1.42H5.662v-1.42h2.704zm10.83-1.94v-.6c.01-.13.29-.42.643-.66.33.22.63.52.64.65V91h-1.29v-.055zm-.006 1.94v-.79h1.296v2.21H19.19v-1.42zm-15.813 0v-.79h1.296v2.21H3.377v-1.42zm-.493 2.52h18.812l-.113.2-.284.52H2.67l-.327-.54-.12-.2h.66zm13.755 5.31c.07.2.24.34.45.34.21 0 .38-.14.45-.35.36.18.62.58.65 1.05v4.01c-.16.09-.27.27-.27.48v2.02H16.3v-2.03c0-.24-.13-.43-.312-.51v-3.99c.022-.48.282-.87.646-1.06zm-5.17 0c.07.2.25.34.46.34.21 0 .38-.14.46-.35.36.18.62.58.64 1.05v4c-.17.09-.28.28-.28.49v2.03h-1.64v-2.03c0-.23-.12-.42-.3-.51v-4c.02-.47.28-.87.64-1.05zm-5.17 0c.07.2.25.34.45.34.21 0 .38-.14.46-.35.36.18.62.58.65 1.05v3.99c-.18.08-.3.28-.3.5v2.02H5.89v-2.03c0-.2-.093-.37-.23-.47v-4.03c.023-.48.28-.87.647-1.06zm14.18 7.65v.47h-1.57v-2.58h.26v-4.54c-.05-1.08-.73-1.95-1.64-2.17-.07-.21-.25-.36-.46-.36-.22 0-.4.15-.47.36-.9.22-1.59 1.09-1.63 2.16v4.53h.31v2.58h-1.57v-2.58H14v-4.54c-.04-1.08-.73-1.95-1.63-2.17-.07-.21-.25-.36-.46-.36-.21 0-.39.15-.46.36-.9.22-1.584 1.09-1.63 2.16v4.54h.296v2.58H8.56v-2.58h.297v-4.53c-.047-1.07-.73-1.94-1.633-2.17-.07-.21-.25-.36-.462-.36-.212 0-.392.15-.46.36-.903.22-1.587 1.09-1.632 2.16v4.535h.23v2.574H3.33v-2.58h.14V97.8h16.92v8.474h.105v2.103zm2.31-3.99c.12 0 .24.04.35.11.23.15.53.08.67-.18.16-.29.44-.47.75-.47.25 0 .49.12.66.33.14.17.36.23.56.14l.16-.04c.23 0 .41.21.41.46l-.03.15c-.06.18-.03.38.08.53.1.13.17.28.21.44h-4.29v-1.32c.12-.13.28-.19.44-.19z" fill="#fff"/><path d="M14.97 43.75c.232.23.53.355.84.355h4.04l-.007.13c0 .353.136.69.375.924.203.19.46.3.73.3H24.7c.61 0 1.104-.55 1.104-1.23S25.308 43 24.7 43h-.134l.034-.32c0-.78-.57-1.417-1.274-1.417H15.81c-.31 0-.61.126-.842.355-.275.27-.432.66-.432 1.064s.158.795.432 1.064zm.652-1.303c.037-.036.1-.08.19-.08h7.516c.158 0 .286.143.286.32 0 .175-.128.318-.286.318-.273 0-.494.246-.494.55h-.002c0 .304.22.55.494.55H24.7c.066 0 .118.06.118.13 0 .073-.052.132-.117.132h-3.75l-.08-.033-.04-.098.04-.097.08-.04c.28 0 .5-.25.5-.55 0-.31-.22-.55-.49-.55h-5.14c-.08 0-.15-.05-.19-.08-.03-.04-.09-.12-.09-.24 0-.13.06-.2.1-.24zm15.892 18.11H30.17l-.877-2.368.764-.5.05.03c.167.1.357.16.55.16.406 0 .782-.25.982-.64.3-.61.1-1.37-.44-1.71l-.07-.04v-1.62l.05-.03c.54-.34.72-1.11.42-1.71-.2-.39-.58-.64-.98-.64-.2 0-.39.05-.56.16l-.05.03-1.35-.87v-.07c0-.69-.51-1.26-1.13-1.26s-1.13.56-1.13 1.25v.07l-1.37.88-.05-.03c-.17-.105-.36-.16-.55-.16-.41 0-.788.245-.987.64-.3.605-.11 1.37.435 1.71l.083.04v1.6l-.08.04c-.54.346-.73 1.11-.42 1.71.2.39.57.64.97.64.194 0 .387-.06.555-.17l.062-.048.75.482-.877 2.366H22.3v-3.8c0-.11-.02-.214-.04-.313l.663-1.237c.09-.17.09-.382 0-.554-.09-.173-.25-.28-.43-.28h-1.09V51.5l-.006-.067v-1.085c0-.237-.103-1.063-1.414-1.776-.137-.074-.296-.074-.43 0-1.31.712-1.42 1.54-1.42 1.776v1.085l-.01.067v.29h-2.21v-.686c.19-.072.34-.276.34-.52 0-.304-.22-.55-.5-.55h-.91v-.854c0-.304-.22-.55-.496-.55h-.18l.4-.223c.25-.136.35-.465.225-.737-.12-.272-.418-.383-.66-.248l-1.087.602c.16-.216.15-.535-.03-.737-.19-.215-.502-.215-.7 0l-.34.38v-.54c0-.305-.22-.55-.49-.55s-.49.245-.49.55v.6l-.31-.598c-.14-.27-.44-.36-.68-.21-.235.15-.32.49-.18.75l.22.43-.33-.4c-.185-.23-.5-.24-.7-.03-.2.2-.21.55-.03.77l.18.21c-.18.08-.31.27-.31.51v.85H8c-.272 0-.493.24-.493.55 0 .24.14.44.34.52v.68h-2.2v-.29l-.01-.12v-1.03c0-.24-.103-1.07-1.414-1.78-.136-.08-.295-.08-.432 0-1.31.71-1.41 1.54-1.41 1.77v3.97H1.29c-.182 0-.35.11-.436.29-.085.18-.075.4.028.56l.683 1.12c-.047.12-.07.26-.07.4v11.68H1c-.546 0-.988.49-.988 1.1 0 .61.442 1.1.987 1.1h27.68c.54 0 .98-.49.98-1.1s-.44-1.1-.99-1.1h-6.32v-1.38h6.47c.27 0 .49-.25.49-.55 0-.31-.22-.55-.5-.55h-1.17c-.04-.33-.15-.64-.31-.91l.01-.22c0-.87-.63-1.57-1.4-1.57l-.21.02c-.33-.298-.75-.46-1.18-.46-.5 0-.97.215-1.316.6-.15-.05-.31-.08-.47-.08-.158 0-.308.02-.45.07v-1.7h2.792l.16.03h4.54l.152-.03h1.51c.27 0 .49-.25.49-.55 0-.31-.22-.55-.49-.55zm-5.892-3.953l1.466-.943v1.87l-.14.09-1.328-.85v-.15zM25.01 53.9l.158-.11 1.427.917-1.45.933-.136-.092V53.9zm5.145-.006v1.626l-.16.106-1.427-.918 1.427-.918.16.104zm-1.95 3.725l-.13-.09v-1.87l1.458.94.004.16-1.334.86zm1.315-4.8l-1.445.93v-1.86l.14-.09 1.31.84-.006.18zm-2.583-1.02l.15.09v1.85l-1.475-.95-.007-.14 1.332-.86zm-.374 7.39c.183.41.566.7 1.01.7.45 0 .84-.3 1.02-.73l.51 1.38h-3.04l.5-1.35zM3.377 50.95v-.6c.01-.126.29-.42.642-.657.35.24.63.535.64.66v.657H3.37v-.056zm6.547-1.22h4.014v.305H9.924v-.304zM8.86 51.134h6.143v.654H8.86v-.654zm-.494 1.755h9.836v1.42H5.662v-1.42h2.704zm10.83-1.94v-.6c.01-.13.29-.42.643-.66.33.22.63.52.64.65V51h-1.29v-.055zm-.006 1.94v-.79h1.296v2.21H19.19v-1.42zm-15.813 0v-.79h1.296v2.21H3.377v-1.42zm-.493 2.52h18.812l-.113.2-.284.52H2.67l-.327-.54-.12-.2h.66zm13.755 5.31c.07.2.24.34.45.34.21 0 .38-.14.45-.35.36.18.62.58.65 1.05v4.01c-.16.09-.27.27-.27.48v2.03H16.3v-2.03c0-.23-.13-.43-.312-.51v-3.98c.022-.47.282-.87.646-1.06zm-5.17 0c.07.2.25.34.46.34.21 0 .38-.14.46-.35.36.18.62.58.64 1.05v4c-.17.09-.28.28-.28.49v2.03h-1.64v-2.03c0-.23-.12-.42-.3-.51v-3.99c.02-.48.28-.87.64-1.06zm-5.17 0c.07.2.25.34.45.34.21 0 .38-.14.46-.35.36.18.62.58.65 1.05v3.99c-.18.08-.3.28-.3.5v2.03H5.89v-2.03c0-.2-.093-.37-.23-.47v-4.03c.023-.47.28-.87.647-1.06zm14.18 7.65v.47h-1.57v-2.57h.26v-4.53c-.05-1.08-.73-1.95-1.64-2.17-.07-.21-.25-.36-.46-.36-.22 0-.4.15-.47.36-.9.22-1.59 1.09-1.63 2.16v4.53h.31v2.58h-1.57v-2.58H14v-4.53c-.04-1.08-.73-1.95-1.63-2.17-.07-.21-.25-.36-.46-.36-.21 0-.39.15-.46.36-.9.22-1.584 1.09-1.63 2.16v4.53h.296v2.58H8.56v-2.58h.297v-4.53c-.047-1.07-.73-1.94-1.633-2.17-.07-.21-.25-.36-.462-.36-.212 0-.392.15-.46.36-.903.22-1.587 1.09-1.632 2.16v4.53h.23v2.58H3.33v-2.58h.14V57.8h16.92v8.474h.105v2.103zm2.31-3.99c.12 0 .24.04.35.11.23.15.53.08.67-.18.16-.29.44-.47.75-.47.25 0 .49.12.66.33.14.17.36.23.56.14l.16-.04c.23 0 .41.21.41.46l-.03.15c-.06.18-.03.38.08.53.1.13.17.28.21.44h-4.29v-1.32c.12-.13.28-.19.44-.19z" fill="#67737B"/><path d="M14.97 3.75c.232.23.53.355.84.355h4.04l-.007.13c0 .353.136.69.375.924.203.19.46.3.73.3H24.7c.61 0 1.104-.55 1.104-1.23S25.308 3 24.7 3h-.134l.034-.32c0-.78-.57-1.417-1.274-1.417H15.81c-.31 0-.61.126-.842.355-.275.27-.432.66-.432 1.064s.158.795.432 1.064zm.652-1.303c.037-.036.1-.08.19-.08h7.516c.158 0 .286.143.286.32 0 .175-.128.318-.286.318-.273 0-.494.246-.494.55h-.002c0 .304.22.55.494.55H24.7c.066 0 .118.06.118.13 0 .073-.052.132-.117.132h-3.75l-.08-.033-.04-.098.04-.097.08-.04c.28 0 .5-.25.5-.55 0-.31-.22-.55-.49-.55h-5.14c-.08 0-.15-.05-.19-.08-.03-.04-.09-.12-.09-.24 0-.13.06-.2.1-.24zm15.892 18.11H30.17l-.877-2.368.764-.5.05.03c.167.1.357.16.55.16.406 0 .782-.25.982-.64.3-.61.1-1.37-.44-1.71l-.07-.04v-1.62l.05-.03c.54-.34.72-1.11.42-1.71-.2-.39-.58-.64-.98-.64-.2 0-.39.05-.56.16l-.05.03-1.35-.87v-.07c0-.69-.51-1.26-1.13-1.26s-1.13.56-1.13 1.25v.07l-1.37.88-.05-.03c-.17-.105-.36-.16-.55-.16-.41 0-.788.245-.987.64-.3.605-.11 1.37.435 1.71l.083.04v1.6l-.08.04c-.54.346-.73 1.11-.42 1.71.2.39.57.64.97.64.194 0 .387-.06.555-.17l.062-.048.75.482-.877 2.366H22.3v-3.8c0-.11-.02-.214-.04-.313l.663-1.237c.09-.17.09-.382 0-.554-.09-.173-.25-.28-.43-.28h-1.09V11.5l-.006-.067v-1.085c0-.237-.103-1.063-1.414-1.776-.137-.074-.296-.074-.43 0-1.31.712-1.42 1.54-1.42 1.776v1.085l-.01.067v.29h-2.21v-.686c.19-.072.34-.276.34-.52 0-.304-.22-.55-.5-.55h-.91V9.18c0-.304-.22-.55-.496-.55h-.18l.4-.223c.25-.136.35-.465.225-.737-.12-.272-.418-.383-.66-.248l-1.087.602c.16-.216.15-.535-.03-.737-.19-.215-.502-.215-.7 0l-.34.38v-.54c0-.305-.22-.55-.49-.55s-.49.245-.49.55v.6l-.31-.598c-.14-.27-.44-.36-.68-.21-.235.15-.32.49-.18.75l.22.43-.33-.4c-.185-.23-.5-.24-.7-.03-.2.2-.21.55-.03.77l.18.21c-.18.08-.31.27-.31.51v.85H8c-.272 0-.493.24-.493.55 0 .24.14.44.34.52v.68h-2.2v-.29l-.01-.12v-1.03c0-.24-.103-1.07-1.414-1.78-.136-.08-.295-.08-.432 0-1.31.71-1.41 1.54-1.41 1.77v3.97H1.29c-.182 0-.35.11-.436.29-.085.18-.075.4.028.56l.683 1.12c-.047.12-.07.26-.07.4v11.68H1c-.546 0-.988.49-.988 1.1 0 .61.442 1.1.987 1.1h27.68c.54 0 .98-.49.98-1.1s-.44-1.1-.99-1.1h-6.32v-1.38h6.47c.27 0 .49-.25.49-.55 0-.31-.22-.55-.5-.55h-1.17c-.04-.33-.15-.64-.31-.91l.01-.22c0-.87-.63-1.57-1.4-1.57l-.21.02c-.33-.298-.75-.46-1.18-.46-.5 0-.97.215-1.316.6-.15-.05-.31-.08-.47-.08-.158 0-.308.02-.45.07v-1.7h2.792l.16.03h4.54l.152-.03h1.51c.27 0 .49-.25.49-.55 0-.31-.22-.55-.49-.55zm-5.892-3.953l1.466-.943v1.87l-.14.09-1.328-.85v-.15zM25.01 13.9l.158-.11 1.427.917-1.45.933-.136-.092V13.9zm5.145-.006v1.626l-.16.106-1.427-.918 1.427-.918.16.104zm-1.95 3.725l-.13-.09v-1.87l1.458.94.004.16-1.334.86zm1.315-4.8l-1.445.93v-1.86l.14-.09 1.31.84-.006.18zm-2.583-1.02l.15.09v1.85l-1.475-.95-.007-.14 1.332-.86zm-.374 7.39c.183.41.566.7 1.01.7.45 0 .84-.3 1.02-.73l.51 1.38h-3.04l.5-1.35zM3.377 10.95v-.6c.01-.126.29-.42.642-.657.35.24.63.535.64.66v.657H3.37v-.056zm6.547-1.22h4.014v.305H9.924V9.73zM8.86 11.134h6.143v.654H8.86v-.654zm-.494 1.755h9.836v1.42H5.662v-1.42h2.704zm10.83-1.94v-.6c.01-.13.29-.42.643-.66.33.22.63.52.64.65V11h-1.29v-.055zm-.006 1.94v-.79h1.296v2.21H19.19v-1.42zm-15.813 0v-.79h1.296v2.21H3.377v-1.42zm-.493 2.52h18.812l-.113.2-.284.52H2.67l-.327-.54-.12-.2h.66zm13.755 5.31c.07.2.24.34.45.34.21 0 .38-.14.45-.35.36.18.62.58.65 1.05v4.01c-.16.09-.27.27-.27.48v2.03H16.3v-2.03c0-.23-.13-.43-.312-.51v-3.98c.022-.47.282-.87.646-1.06zm-5.17 0c.07.2.25.34.46.34.21 0 .38-.14.46-.35.36.18.62.58.64 1.05v4c-.17.09-.28.28-.28.49v2.03h-1.64v-2.03c0-.23-.12-.42-.3-.51v-3.99c.02-.48.28-.87.64-1.06zm-5.17 0c.07.2.25.34.45.34.21 0 .38-.14.46-.35.36.18.62.58.65 1.05v3.99c-.18.08-.3.28-.3.5v2.03H5.89v-2.03c0-.2-.093-.37-.23-.47v-4.03c.023-.47.28-.87.647-1.06zm14.18 7.65v.47h-1.57v-2.57h.26v-4.53c-.05-1.08-.73-1.95-1.64-2.17-.07-.21-.25-.36-.46-.36-.22 0-.4.15-.47.36-.9.22-1.59 1.09-1.63 2.16v4.53h.31v2.58h-1.57v-2.58H14v-4.53c-.04-1.08-.73-1.95-1.63-2.17-.07-.21-.25-.36-.46-.36-.21 0-.39.15-.46.36-.9.22-1.584 1.09-1.63 2.16v4.53h.296v2.58H8.56v-2.58h.297v-4.53c-.047-1.07-.73-1.94-1.633-2.17-.07-.21-.25-.36-.462-.36-.212 0-.392.15-.46.36-.903.22-1.587 1.09-1.632 2.16v4.53h.23v2.58H3.33v-2.58h.14V17.8h16.92v8.474h.105v2.103zm2.31-3.99c.12 0 .24.04.35.11.23.15.53.08.67-.18.16-.29.44-.47.75-.47.25 0 .49.12.66.33.14.17.36.23.56.14l.16-.04c.23 0 .41.21.41.46l-.03.15c-.06.18-.03.38.08.53.1.13.17.28.21.44h-4.29v-1.32c.12-.13.28-.19.44-.19z" fill="#3A434E"/></g></svg>