<svg width="32" height="232" viewBox="0 0 32 232" xmlns="http://www.w3.org/2000/svg"><g fill="none"><path d="M28.746 138.244c.248-1.077.27-2.136.06-3.132.484-.036.97-.187 1.42-.442 1.342-.76 1.43-2.864 1.437-3.102.005-.21-.106-.406-.288-.51-.046-.026-1.148-.647-2.25-.647-.434 0-.82.1-1.148.28-.453.26-.834.61-1.113 1-.75-.69-1.675-1.22-2.72-1.56l.033-.21c.206-1.44.143-3.29-1.322-3.92-1.47-.63-4.74-1.02-5.346.11-.16.29-.27.87.71 1.51.36.24.71.43 1.01.59.7.39 1.08.6 1.24 1.02.05.14.08.3.09.48-1.85.11-3.72.67-5.46 1.65l-.54.33-.14.08-.05.05c-.7.45-1.33.96-1.91 1.51-1-1.19-2.47-2.43-3.9-1.7-1.32.68-3.51 2.78-3.05 3.89.28.69 1.08.55 1.54.4.38-.12.71-.25 1-.37.66-.27 1.03-.4 1.4-.28.26.09.57.32.92.71-.17.3-.33.61-.47.92-.86 1.95-.97 3.91-.35 5.63-1.51.94-2.04 2.95-1.22 4.628l.004.01.11.207c.11.187.3.29.5.29.096 0 .19-.023.28-.073.277-.16.37-.5.22-.78l-.1-.19c-.07-.16-.1-.3-.08-.37.07-.21.58-.45 1.03-.67.27-.124.58-.27.88-.443l.077-.05c1.35 1.23 3.24 1.954 5.39 2.01.15.51.19.89.13 1.17-.08.38-.384.62-.96 1.053-.25.19-.53.4-.83.666-.83.732-.64 1.27-.45 1.523.237.32.71.444 1.287.444 1.176 0 2.774-.53 3.62-1.05 1.363-.84 1.06-2.75.55-4.22 1.03-.28 2.045-.7 3.02-1.25 1.74-.982 3.19-2.305 4.222-3.82.153.106.273.216.36.33.276.35.27.786.235 1.587-.015.35-.03.74-.02 1.17.04 1.18.6 1.38.926 1.4h.04c1.27 0 2.593-2.954 2.805-4.53.22-1.61-1.364-2.632-2.875-3.24zm-3.654 2.42c-.543.702-1.214 1.363-2 1.946l-.674-.857.094-.156 1.51-3.813c.042-.11.048-.226.023-.336l2.212-.327c.166-.02.31-.12.398-.26-.016.24-.047.49-.095.73-.072.37-.183.74-.327 1.1-.13.33-.288.66-.473.99-.194.34-.417.67-.667 1zm-3.17 2.71c-.936.53-1.914.91-2.898 1.135-.278.06-.557.11-.836.15-.408.05-.815.08-1.22.08l-.125-.01.88-2.23.203.04.084-.01 3.258-.48.1.19.773.98-.21.13zm-1.727-11.367c.334-.038.668-.057 1-.057l.195.004.49.026-.73 1.85c-.09-.037-.19-.05-.292-.035l-3.723.55-.808-1.07c1.245-.69 2.564-1.12 3.868-1.268zm6.262 1.72l.148.184-.84 2.13-2.263.34-1.42-1.79.64-1.62.2-.5.66-.09h.04l1.562-.23 1.273 1.61zm-4.886 7.143l-3.4.504-2.14-2.696 1.27-3.2 3.41-.503 2.14 2.695-1.26 3.2zm-9.79.875l.69-1.743 2.67-.395 1.68 2.113-.99 2.508-1.13.168-1.53.227-1.67-2.114.31-.77zm2-6.527c.47-.486 1-.933 1.58-1.336l.89 1.17-1.36 3.438-2.9.43c-.14.022-.27.1-.36.212.09-.45.24-.91.44-1.37.29-.663.68-1.3 1.16-1.892.18-.224.38-.44.58-.652zm14.76-3.533c.16-.087.35-.13.59-.13.5 0 1.04.195 1.37.34-.07.574-.29 1.48-.82 1.78-.35.2-.72.304-1.08.304l-.12-.01c-.1-.25-.22-.49-.35-.73-.13-.24-.28-.46-.44-.68.18-.35.49-.67.88-.88zm-8.76-4.507c-.29-.16-.6-.328-.93-.54l-.09-.06c.72-.152 2.42-.077 3.65.45.8.346.8 1.66.65 2.7l-.01.105c-.43-.082-.87-.135-1.33-.158-.06-1.39-.82-1.9-1.92-2.498zm-12.12 7.26c-.27.112-.56.227-.88.33.35-.588 1.28-1.627 2.35-2.17.73-.372 1.76.518 2.58 1.516-.23.267-.44.542-.64.824-1.26-1.247-2.14-1-3.38-.5zm2.21 10.044c-.22.104-.43.206-.63.317.13-.52.43-.97.87-1.29.13.22.27.43.43.64-.22.12-.44.22-.66.32zm9.02 5.383c-1.01.627-2.37.89-3.06.89.26-.226.5-.41.74-.59 1.07-.803 1.74-1.434 1.31-3.17.35-.028.7-.07 1.04-.13.44 1.22.67 2.57-.02 3zm11.61-8.53c-.17 1.32-.99 2.823-1.49 3.358v-.107c-.01-.39.01-.74.02-1.078.06-1.255.01-2.168-1.15-2.938.13-.236.25-.474.35-.717l.21-.5.1.038c.97.42 2.1 1.09 1.98 1.95zm-2.11-13.278c-.17-.126-.41-.148-.6-.053l-.09.054c-.14.108-.22.277-.22.458 0 .113.04.223.1.316l.06.077.07.06c.1.07.22.11.35.11.09 0 .18-.02.26-.06l.11-.07.09-.1.1-.2c.04-.16.01-.33-.08-.47l-.13-.14zM4.95 144.75c-.17-.125-.41-.146-.598-.052l-.087.054c-.144.108-.228.277-.228.458 0 .113.03.223.09.316l.062.077.07.066c.1.07.21.11.34.11.09 0 .17-.02.25-.06l.11-.07.09-.1.09-.2c.04-.16.01-.33-.08-.47l-.14-.14zm-.79-2.334l.096-.098.097-.2c.042-.156.014-.325-.076-.46-.11-.16-.29-.257-.48-.257-.125 0-.245.05-.343.12-.243.18-.3.52-.133.78.11.16.29.26.48.26.09 0 .18-.02.26-.06l.11-.07zm25.13-16.218c-.124 0-.244.04-.342.114-.242.182-.3.52-.134.773.106.16.285.257.477.257.09 0 .18-.02.26-.06l.11-.07.1-.097.1-.2c.05-.157.02-.326-.07-.462-.1-.16-.28-.254-.47-.254zm-1.6-1.876c-.132.1-.216.252-.227.417l.007.13c.015.09.05.17.102.24l.057.06.15.1c.07.03.16.06.25.06.12 0 .24-.04.34-.12l.06-.05c.11-.11.17-.26.17-.41 0-.22-.13-.42-.32-.52-.16-.08-.36-.08-.52 0l-.09.05zM4.94 142.744c-.085.016-.167.052-.238.104-.222.166-.294.47-.168.717.056.11.145.2.254.253.08.04.167.06.256.06s.176-.02.255-.06l.09-.055c.12-.088.2-.218.22-.364.03-.19-.03-.37-.16-.5-.13-.14-.32-.2-.51-.16zm23.778-19.3c.15.154.363.243.582.243.173 0 .34-.057.474-.16.156-.115.26-.282.292-.475.037-.216-.02-.444-.154-.624l-.074-.08c-.148-.135-.35-.213-.555-.213-.16 0-.314.046-.446.132l-.05.035c-.32.26-.37.747-.12 1.085l.046.056zm.352-.25l.218-.24.177.268c-.12.08-.285.07-.396-.03zm.453-.015l-.093-.11.055.08-.18-.22.058-.07.223-.17c.125.16.06.36-.063.47zm-.583-.33c.016-.1.068-.18.145-.25.064-.05.14-.07.215-.07.114 0 .194.05.24.1l-.26.25-.128-.16.11.17-.265.19c-.056-.07-.076-.16-.06-.26zM3.287 138.96c.138.12.316.186.502.186.22 0 .43-.092.58-.252l.04-.056c.24-.325.19-.79-.1-1.056-.14-.135-.32-.208-.52-.208-.22 0-.44.094-.59.257l-.07.09c-.2.32-.16.74.09 1l.04.04zm.83-.427l-.273-.174.235-.22c.07.09.13.24.03.4zm-.09-.444l-.092.11.072-.07-.186.21-.07-.05-.2-.19c.13-.13.34-.14.48-.02zm-.526.08l.3.21-.13.15.15-.14.24.23c-.12.12-.36.12-.5-.01-.11-.11-.16-.3-.04-.46zm22.38-16.2c.23.23.57.38.91.38.27 0 .52-.09.72-.25.23-.17.39-.41.43-.7.06-.34-.03-.69-.24-.98l-.07-.09c-.23-.21-.55-.33-.88-.33-.25 0-.49.07-.69.2l-.05.03c-.48.39-.55 1.13-.16 1.65l.05.053zm.93-.8l.01.02-.01.01-.07-.01v-.04l.09.01zM6.2 127.56c.09.05.19.08.29.08.1 0 .2-.025.288-.076l1.84-1.07c.89.804 2.06 1.26 3.27 1.26 1.366 0 2.678-.58 3.6-1.59.2-.22.2-.553 0-.77-.922-1.01-2.233-1.588-3.6-1.588-1.21 0-2.376.456-3.27 1.26L6.774 124c-.177-.105-.395-.105-.57 0-.18.1-.287.29-.287.49v2.57c0 .205.11.394.285.496zm5.69-2.606c.86 0 1.688.295 2.348.83-.66.53-1.49.83-2.346.83-.86 0-1.687-.3-2.347-.83.66-.535 1.49-.83 2.346-.83zm-4.83.533l.51.295-.51.292v-.587zm.325 4.773c.2-.217.2-.553 0-.77-.666-.73-1.614-1.15-2.6-1.15-.83 0-1.633.3-2.265.827l-1.157-.67c-.18-.1-.397-.1-.574 0-.18.103-.29.292-.29.496v1.76c0 .206.11.395.28.497.09.052.18.077.28.077.1 0 .2-.022.28-.074l1.15-.67c.63.527 1.43.824 2.26.824.98 0 1.93-.418 2.6-1.147zm-2.6-.775c.466 0 .92.14 1.305.39-.385.25-.84.39-1.306.39-.467 0-.92-.14-1.306-.39.384-.25.84-.39 1.304-.39zm22.15 17.286c-.83 0-1.635.3-2.267.83l-1.156-.67c-.18-.1-.396-.1-.573 0-.18.11-.29.29-.29.5v1.76c0 .21.11.39.28.5.09.06.18.08.28.08.09 0 .19-.02.28-.07l1.15-.66c.63.53 1.43.83 2.26.83.99 0 1.93-.41 2.6-1.14.2-.21.2-.55 0-.77-.67-.73-1.61-1.15-2.6-1.15zm0 1.93c-.47 0-.92-.14-1.308-.39.386-.25.84-.39 1.306-.39.466 0 .92.14 1.305.39-.385.25-.84.39-1.305.39z" fill="#206FAC"/><path d="M28.746 98.244c.248-1.077.27-2.136.06-3.132.484-.036.97-.187 1.42-.442 1.342-.76 1.43-2.864 1.437-3.102.005-.21-.106-.406-.288-.51-.046-.026-1.148-.647-2.25-.647-.434 0-.82.1-1.148.28-.453.26-.834.61-1.113 1-.75-.69-1.675-1.22-2.72-1.56l.033-.21c.206-1.44.143-3.29-1.322-3.92-1.47-.63-4.74-1.02-5.346.11-.16.29-.27.87.71 1.51.36.24.71.43 1.01.59.7.39 1.08.6 1.24 1.02.05.14.08.3.09.48-1.85.11-3.72.67-5.46 1.65l-.54.33-.14.08-.05.05c-.7.45-1.33.96-1.91 1.51-1-1.19-2.47-2.43-3.9-1.7-1.32.68-3.51 2.78-3.05 3.89.28.69 1.08.55 1.54.4.38-.12.71-.25 1-.37.66-.27 1.03-.4 1.4-.28.26.09.57.32.92.71-.17.3-.33.61-.47.92-.86 1.95-.97 3.91-.35 5.63-1.51.94-2.04 2.95-1.22 4.628l.004.01.11.207c.11.187.3.29.5.29.096 0 .19-.023.28-.073.277-.16.37-.5.22-.78l-.1-.19c-.07-.16-.1-.3-.08-.37.07-.21.58-.45 1.03-.67.27-.124.58-.27.88-.443l.077-.05c1.35 1.23 3.24 1.954 5.39 2.01.15.51.19.89.13 1.17-.08.38-.384.62-.96 1.053-.25.19-.53.4-.83.666-.83.732-.64 1.27-.45 1.523.237.32.71.444 1.287.444 1.176 0 2.774-.53 3.62-1.05 1.363-.84 1.06-2.75.55-4.22 1.03-.28 2.045-.7 3.02-1.25 1.74-.982 3.19-2.305 4.222-3.82.153.106.273.216.36.33.276.35.27.786.235 1.587-.015.35-.03.74-.02 1.17.04 1.18.6 1.38.926 1.4h.04c1.27 0 2.593-2.954 2.805-4.53.22-1.61-1.364-2.632-2.875-3.24zm-3.654 2.42c-.543.702-1.214 1.363-2 1.946l-.674-.857.094-.156 1.51-3.813c.042-.11.048-.226.023-.336l2.212-.327c.166-.02.31-.12.398-.26-.016.24-.047.49-.095.73-.072.37-.183.74-.327 1.1-.13.33-.288.66-.473.99-.194.34-.417.67-.667 1zm-3.17 2.71c-.936.53-1.914.91-2.898 1.135-.278.06-.557.11-.836.15-.408.05-.815.08-1.22.08l-.125-.01.88-2.23.203.04.084-.01 3.258-.48.1.19.773.98-.21.13zm-1.727-11.367c.334-.038.668-.057 1-.057l.195.004.49.026-.73 1.85c-.09-.037-.19-.05-.292-.035l-3.723.55-.808-1.07c1.245-.69 2.564-1.12 3.868-1.268zm6.262 1.72l.148.184-.84 2.13-2.263.34-1.42-1.79.64-1.62.2-.5.66-.09h.04l1.562-.23 1.273 1.61zm-4.886 7.143l-3.4.504-2.14-2.696 1.27-3.2 3.41-.503 2.14 2.695-1.26 3.2zm-9.79.875l.69-1.743 2.67-.395 1.68 2.113-.99 2.508-1.13.168-1.53.227-1.67-2.114.31-.77zm2-6.527c.47-.486 1-.933 1.58-1.336l.89 1.17-1.36 3.438-2.9.43c-.14.022-.27.1-.36.212.09-.45.24-.91.44-1.37.29-.663.68-1.3 1.16-1.892.18-.224.38-.44.58-.652zm14.76-3.533c.16-.087.35-.13.59-.13.5 0 1.04.195 1.37.34-.07.574-.29 1.48-.82 1.78-.35.2-.72.304-1.08.304l-.12-.01c-.1-.25-.22-.49-.35-.73-.13-.24-.28-.46-.44-.68.18-.35.49-.67.88-.88zm-8.76-4.507c-.29-.16-.6-.328-.93-.54l-.09-.06c.72-.152 2.42-.077 3.65.45.8.346.8 1.66.65 2.7l-.01.105c-.43-.082-.87-.135-1.33-.158-.06-1.39-.82-1.9-1.92-2.498zm-12.12 7.26c-.27.112-.56.227-.88.33.35-.588 1.28-1.627 2.35-2.17.73-.372 1.76.518 2.58 1.516-.23.267-.44.542-.64.824-1.26-1.247-2.14-1-3.38-.5zm2.21 10.044c-.22.104-.43.206-.63.317.13-.52.43-.97.87-1.29.13.22.27.43.43.64-.22.12-.44.22-.66.32zm9.02 5.383c-1.01.627-2.37.89-3.06.89.26-.226.5-.41.74-.59 1.07-.803 1.74-1.434 1.31-3.17.35-.028.7-.07 1.04-.13.44 1.22.67 2.57-.02 3zm11.61-8.53c-.17 1.32-.99 2.823-1.49 3.358v-.107c-.01-.39.01-.74.02-1.078.06-1.255.01-2.168-1.15-2.938.13-.236.25-.474.35-.717l.21-.5.1.038c.97.42 2.1 1.09 1.98 1.95zm-2.11-13.278c-.17-.126-.41-.148-.6-.053l-.09.054c-.14.108-.22.277-.22.458 0 .113.04.223.1.316l.06.077.07.06c.1.07.22.11.34.11.09 0 .18-.02.26-.06l.11-.07.1-.1.1-.2c.04-.16.01-.33-.08-.47l-.13-.14zM4.95 104.75c-.17-.125-.41-.146-.598-.052l-.087.054c-.144.108-.228.277-.228.458 0 .113.03.223.09.316l.06.077.073.066c.098.07.217.11.343.11.09 0 .176-.02.253-.06l.11-.07.092-.1.097-.2c.043-.16.015-.33-.076-.47l-.14-.14zm-.79-2.334l.096-.098.097-.2c.042-.156.014-.325-.076-.46-.11-.16-.29-.257-.48-.257-.126 0-.246.05-.344.12-.243.18-.3.52-.133.78.106.16.285.26.476.26.09 0 .176-.02.254-.06l.107-.07zm25.13-16.218c-.124 0-.244.04-.342.114-.242.182-.3.52-.134.773.106.16.285.257.477.257.09 0 .18-.02.26-.06l.11-.07.1-.097.09-.2c.04-.157.02-.326-.07-.462-.1-.16-.28-.254-.47-.254zm-1.6-1.876c-.132.1-.216.252-.227.417l.007.13c.015.09.05.17.102.24l.057.06.15.1c.07.03.16.06.25.06.12 0 .24-.04.34-.12l.06-.05c.11-.11.17-.26.17-.41 0-.22-.13-.42-.32-.52-.16-.08-.36-.08-.52 0l-.09.05zM4.94 102.744c-.085.016-.167.052-.238.104-.222.166-.294.47-.168.717.056.11.145.2.254.253.08.04.167.06.256.06s.176-.02.255-.06l.09-.055c.12-.088.2-.218.22-.364.03-.19-.03-.37-.16-.5-.13-.14-.32-.2-.51-.16zm23.778-19.3c.15.154.363.243.582.243.173 0 .34-.057.474-.16.156-.115.26-.282.292-.475.037-.216-.02-.444-.154-.624l-.074-.08c-.148-.135-.35-.213-.555-.213-.16 0-.314.046-.446.132l-.05.035c-.32.26-.37.747-.12 1.085l.045.056zm.352-.25l.218-.24.177.268c-.12.08-.285.07-.396-.03zm.453-.015l-.093-.11.055.08-.18-.22.058-.07.223-.17c.125.16.06.36-.063.47zm-.583-.33c.016-.1.068-.18.145-.25.064-.05.14-.07.215-.07.114 0 .194.05.24.1l-.26.25-.128-.16.11.17-.265.19c-.057-.07-.077-.16-.06-.26zM3.287 98.96c.138.12.316.186.502.186.22 0 .43-.093.58-.253l.04-.056c.24-.324.19-.79-.1-1.055-.14-.135-.32-.208-.52-.208-.22 0-.44.094-.59.257l-.07.09c-.2.31-.16.73.09 1l.04.04zm.83-.427l-.273-.174.235-.22c.07.09.13.24.03.4zm-.09-.444l-.092.11.072-.06-.186.21-.07-.05-.2-.19c.13-.13.34-.14.48-.02zm-.526.08l.3.21-.13.15.15-.14.24.23c-.12.12-.36.12-.5-.01-.11-.11-.16-.3-.04-.46zm22.38-16.19c.23.23.57.38.91.38.27 0 .52-.09.72-.25.23-.17.39-.41.44-.7.06-.34-.03-.69-.24-.98l-.07-.09c-.23-.21-.55-.33-.88-.33-.25 0-.49.07-.7.2l-.05.03c-.48.39-.55 1.14-.16 1.66l.05.06zm.93-.8l.01.02-.01.01-.07-.01v-.04l.09.01zM6.19 87.57c.09.05.19.078.29.078.1 0 .2-.025.288-.076L8.61 86.5c.89.805 2.057 1.26 3.267 1.26 1.365 0 2.677-.58 3.6-1.588.2-.22.2-.554 0-.772-.923-1.008-2.234-1.587-3.6-1.587-1.21 0-2.377.457-3.27 1.26L6.762 84.01c-.177-.103-.395-.103-.57 0-.178.1-.287.29-.287.494v2.568c0 .204.11.393.286.495zm5.69-2.607c.86 0 1.688.298 2.348.83-.66.53-1.49.83-2.346.83-.856 0-1.685-.3-2.345-.83.66-.532 1.49-.83 2.345-.83zm-4.83.536l.51.29-.51.29v-.58zm.325 4.77c.2-.22.2-.56 0-.77-.666-.73-1.614-1.15-2.6-1.15-.83 0-1.634.29-2.266.82l-1.16-.67c-.18-.1-.4-.1-.57 0-.18.1-.29.29-.29.49v1.76c0 .2.1.39.28.49.09.05.18.07.28.07.1 0 .2-.03.28-.08l1.16-.66c.63.52 1.43.82 2.26.82.98 0 1.93-.42 2.6-1.15zm-2.6-.78c.465 0 .92.14 1.304.39-.39.25-.84.39-1.31.39-.47 0-.92-.14-1.31-.39.38-.25.84-.39 1.3-.39zm22.147 17.28c-.83 0-1.633.29-2.265.82l-1.154-.67c-.176-.1-.394-.1-.57 0-.178.1-.286.29-.286.49v1.76c0 .2.108.39.285.49.09.05.186.07.285.07.098 0 .197-.03.286-.08l1.157-.66c.633.53 1.436.82 2.267.82.986 0 1.935-.42 2.6-1.15.2-.22.2-.556 0-.77-.667-.73-1.615-1.15-2.602-1.15zm0 1.92c-.467 0-.92-.14-1.306-.39.387-.25.84-.39 1.307-.39.467 0 .92.14 1.306.39-.39.25-.84.39-1.31.39z" fill="#fff"/><path d="M28.746 58.244c.248-1.077.27-2.136.06-3.132.484-.036.97-.187 1.42-.442 1.342-.76 1.43-2.864 1.437-3.102.005-.21-.106-.406-.288-.51-.046-.026-1.148-.647-2.25-.647-.434 0-.82.1-1.148.28-.453.26-.834.61-1.113 1-.75-.69-1.675-1.22-2.72-1.56l.033-.21c.206-1.44.143-3.29-1.322-3.92-1.47-.63-4.74-1.02-5.346.11-.16.29-.27.87.71 1.51.36.24.71.43 1.01.59.7.39 1.08.6 1.24 1.02.05.14.08.3.09.48-1.85.11-3.72.67-5.46 1.65l-.54.33-.14.08-.05.05c-.7.45-1.33.96-1.91 1.51-1-1.19-2.47-2.43-3.9-1.7-1.32.68-3.51 2.78-3.05 3.89.28.69 1.08.55 1.54.4.38-.12.71-.25 1-.37.66-.27 1.03-.4 1.4-.28.26.09.57.32.92.71-.17.3-.33.61-.47.92-.86 1.95-.97 3.91-.35 5.63-1.51.94-2.04 2.95-1.22 4.628l.004.01.11.207c.11.187.3.29.5.29.096 0 .19-.023.28-.073.277-.16.37-.5.22-.78l-.1-.19c-.07-.16-.1-.3-.08-.37.07-.21.58-.45 1.03-.67.27-.124.58-.27.88-.443l.077-.05c1.35 1.23 3.24 1.954 5.39 2.01.15.51.19.89.13 1.17-.08.38-.384.62-.96 1.053-.25.19-.53.4-.83.666-.83.732-.64 1.27-.45 1.523.237.32.71.444 1.287.444 1.176 0 2.774-.53 3.62-1.05 1.363-.84 1.06-2.75.55-4.22 1.03-.28 2.045-.7 3.02-1.25 1.74-.982 3.19-2.305 4.222-3.82.153.106.273.216.36.33.276.35.27.786.235 1.587-.015.35-.03.74-.02 1.17.04 1.18.6 1.38.926 1.4h.04c1.27 0 2.593-2.954 2.805-4.53.22-1.61-1.364-2.632-2.875-3.24zm-3.654 2.42c-.543.702-1.214 1.363-2 1.946l-.674-.857.094-.156 1.51-3.813c.042-.11.048-.226.023-.336l2.212-.327c.166-.02.31-.12.398-.26-.016.24-.047.49-.095.73-.072.37-.183.74-.327 1.1-.13.33-.288.66-.473.99-.194.34-.417.67-.667 1zm-3.17 2.71c-.936.53-1.914.91-2.898 1.135-.278.06-.557.11-.836.15-.408.05-.815.08-1.22.08l-.125-.01.88-2.23.203.04.084-.01 3.258-.48.1.19.773.98-.21.13zm-1.727-11.367c.334-.038.668-.057 1-.057l.195.004.49.026-.73 1.85c-.09-.037-.19-.05-.292-.035l-3.723.55-.808-1.07c1.245-.69 2.564-1.12 3.868-1.268zm6.262 1.72l.148.184-.84 2.13-2.263.34-1.42-1.79.64-1.62.2-.5.66-.09h.04l1.562-.23 1.273 1.61zM21.57 60.87l-3.4.504-2.14-2.696 1.267-3.2 3.403-.503 2.137 2.695-1.266 3.2zm-9.793.875l.69-1.743 2.667-.395 1.675 2.113-1 2.508-1.14.168-1.53.227-1.68-2.114.3-.77zm2-6.527c.468-.486.996-.933 1.576-1.336l.883 1.17-1.36 3.438-2.903.43c-.146.022-.275.1-.364.212.08-.45.23-.91.43-1.37.29-.663.68-1.3 1.15-1.892.18-.224.37-.44.57-.652zm14.76-3.533c.155-.087.352-.13.586-.13.502 0 1.038.195 1.368.34-.07.574-.29 1.48-.82 1.78-.35.2-.72.304-1.08.304l-.12-.01c-.1-.25-.22-.49-.35-.73-.13-.24-.28-.46-.44-.68.18-.35.49-.67.88-.88zm-8.76-4.507c-.297-.16-.604-.328-.932-.54l-.088-.06c.716-.152 2.422-.077 3.644.45.8.346.8 1.66.65 2.7l-.01.105c-.43-.082-.87-.135-1.33-.158-.06-1.39-.82-1.9-1.92-2.498zM7.66 54.438c-.277.112-.562.227-.887.33.352-.588 1.282-1.627 2.343-2.17.723-.372 1.754.518 2.574 1.516-.23.267-.445.542-.648.824-1.264-1.247-2.147-1-3.384-.5zm2.203 10.044c-.22.104-.434.206-.634.317.13-.52.42-.97.86-1.29.13.22.27.43.42.64-.22.12-.44.22-.66.32zm9.014 5.383c-1.01.627-2.376.89-3.064.89h-.004c.25-.226.5-.41.74-.59 1.06-.803 1.73-1.434 1.31-3.17.34-.028.69-.07 1.04-.13.43 1.22.67 2.57-.03 3zm11.61-8.53c-.176 1.32-.99 2.823-1.49 3.358l-.006-.107c-.01-.39.01-.74.02-1.078.06-1.255.01-2.168-1.15-2.938.13-.236.25-.474.35-.717l.21-.5.1.038c.97.42 2.1 1.09 1.98 1.95zm-2.11-13.278c-.17-.126-.408-.148-.598-.053l-.09.054c-.15.108-.23.277-.23.458 0 .113.03.223.09.316l.06.077.07.06c.09.07.21.11.34.11.09 0 .17-.02.25-.06l.1-.07.09-.1.1-.2c.04-.16.01-.33-.08-.47l-.14-.14zM4.952 64.75c-.17-.125-.41-.146-.598-.052l-.087.054c-.144.108-.228.277-.228.458 0 .113.03.223.09.316l.06.077.07.066c.1.07.21.11.34.11.09 0 .17-.02.25-.06l.11-.07.09-.1.09-.2c.04-.16.01-.33-.08-.47l-.14-.14zm-.79-2.334l.096-.098.097-.2c.042-.156.014-.325-.076-.46-.11-.16-.29-.257-.48-.257-.13 0-.25.05-.35.12-.25.18-.3.52-.14.78.1.16.28.26.47.26.09 0 .17-.02.25-.06l.11-.07zm25.13-16.218c-.124 0-.244.04-.342.114-.242.182-.3.52-.134.773.106.16.285.257.477.257.09 0 .176-.02.254-.06l.107-.07.095-.097.09-.2c.04-.157.01-.326-.08-.462-.11-.16-.29-.254-.48-.254zm-1.6-1.876c-.132.1-.216.252-.227.417l.007.13c.015.09.05.17.102.24l.057.06.16.1c.08.03.16.06.26.06.13 0 .25-.04.35-.12l.06-.05c.11-.11.17-.26.17-.41 0-.22-.12-.42-.31-.52-.16-.08-.35-.08-.51 0l-.08.05zM4.942 62.744c-.085.016-.167.052-.238.104-.222.166-.294.47-.168.717.056.11.145.2.254.253.08.04.167.06.256.06s.176-.02.255-.06l.09-.055c.12-.088.2-.218.22-.364.03-.19-.03-.37-.16-.5-.13-.14-.32-.2-.5-.16zm23.778-19.3c.15.154.363.243.582.243.173 0 .34-.057.474-.16.156-.115.26-.282.292-.475.037-.216-.02-.444-.154-.624l-.074-.08c-.148-.135-.35-.213-.555-.213-.16 0-.314.046-.446.132l-.05.035c-.32.26-.37.747-.12 1.085l.04.056zm.352-.25l.218-.24.177.268c-.12.08-.285.07-.396-.03zm.453-.015l-.093-.11.055.08-.18-.22.058-.07.223-.17c.125.16.06.36-.063.47zm-.583-.33c.016-.1.068-.18.145-.25.064-.05.14-.07.215-.07.114 0 .194.05.24.1l-.26.25-.128-.16.11.17-.264.2c-.06-.07-.08-.16-.06-.26zM3.287 58.96c.138.12.316.186.502.186.22 0 .43-.093.58-.253l.04-.056c.24-.324.19-.79-.1-1.055-.14-.135-.32-.208-.52-.208-.22 0-.44.094-.59.257l-.07.09c-.2.31-.16.73.09 1l.04.04zm.83-.427l-.273-.174.235-.22c.07.09.13.24.03.4zm-.09-.444l-.092.11.072-.06-.186.21-.07-.05-.2-.19c.13-.13.34-.14.48-.02zm-.526.08l.3.21-.13.15.15-.14.24.23c-.12.12-.36.12-.5-.01-.11-.11-.16-.3-.04-.46zm22.38-16.19c.23.23.57.38.91.38.27 0 .52-.09.72-.25.23-.17.39-.41.44-.7.06-.34-.03-.69-.24-.98l-.07-.09c-.23-.21-.55-.33-.88-.33-.25 0-.49.07-.7.2l-.05.03c-.48.39-.55 1.14-.16 1.66l.05.06zm.93-.8l.01.02-.01.01-.07-.01v-.04l.09.01zM6.19 47.57c.09.05.19.078.29.078.1 0 .2-.025.288-.076L8.61 46.5c.89.805 2.057 1.26 3.267 1.26 1.365 0 2.677-.58 3.6-1.588.2-.22.2-.554 0-.772-.923-1.008-2.234-1.587-3.6-1.587-1.21 0-2.377.457-3.27 1.26L6.762 44.01c-.177-.103-.395-.103-.57 0-.178.1-.287.29-.287.494v2.568c0 .204.11.393.286.495zm5.69-2.607c.86 0 1.688.298 2.348.83-.66.53-1.49.83-2.346.83-.856 0-1.685-.3-2.345-.83.66-.532 1.49-.83 2.345-.83zm-4.83.536l.51.29-.51.29v-.58zm.325 4.77c.2-.22.2-.56 0-.77-.666-.73-1.614-1.15-2.6-1.15-.83 0-1.634.29-2.266.82l-1.16-.67c-.18-.1-.4-.1-.57 0-.18.1-.29.29-.29.49v1.76c0 .2.1.39.28.49.09.05.18.07.28.07.1 0 .2-.03.28-.08l1.16-.66c.63.52 1.43.82 2.26.82.98 0 1.93-.42 2.6-1.15zm-2.6-.78c.465 0 .92.14 1.304.39-.39.25-.84.39-1.31.39-.47 0-.92-.14-1.31-.39.38-.25.84-.39 1.3-.39zM26.92 66.77c-.83 0-1.634.3-2.266.828l-1.154-.67c-.177-.1-.395-.1-.572 0-.177.105-.285.293-.285.497v1.76c0 .2.108.39.285.492.09.05.187.076.286.076.098 0 .197-.024.286-.075l1.156-.666c.633.526 1.436.823 2.267.823.986 0 1.935-.417 2.6-1.146.2-.22.2-.56 0-.77-.667-.73-1.615-1.15-2.602-1.15zm0 1.926c-.468 0-.92-.14-1.307-.39.387-.254.84-.39 1.307-.39.466 0 .92.136 1.305.39-.383.25-.837.39-1.303.39z" fill="#67737B"/><path d="M28.746 18.244c.248-1.077.27-2.136.06-3.132.484-.036.97-.187 1.42-.442 1.342-.76 1.43-2.864 1.437-3.102.005-.21-.106-.406-.288-.51-.046-.026-1.148-.647-2.25-.647-.434 0-.82.1-1.148.28-.453.26-.834.61-1.113 1-.75-.69-1.675-1.22-2.72-1.56l.033-.21c.206-1.44.143-3.29-1.322-3.92-1.47-.63-4.74-1.02-5.346.11-.16.29-.27.87.71 1.51.36.24.71.43 1.01.59.7.39 1.08.6 1.24 1.02.05.14.08.3.09.48-1.85.11-3.72.67-5.46 1.65l-.54.33-.14.08-.05.05c-.7.45-1.33.96-1.91 1.51-1-1.19-2.47-2.43-3.9-1.7-1.32.68-3.51 2.78-3.05 3.89.28.69 1.08.55 1.54.4.38-.12.71-.25 1-.37.66-.27 1.03-.4 1.4-.28.26.09.57.32.92.71-.17.3-.33.61-.47.92-.86 1.95-.97 3.91-.35 5.63-1.51.94-2.04 2.95-1.22 4.628l.004.01.11.207c.11.187.3.29.5.29.096 0 .19-.023.28-.073.277-.16.37-.5.22-.78l-.1-.19c-.07-.16-.1-.3-.08-.37.07-.21.58-.45 1.03-.67.27-.124.58-.27.88-.443l.077-.05c1.35 1.23 3.24 1.954 5.39 2.01.15.51.19.89.13 1.17-.08.38-.384.62-.96 1.053-.25.19-.53.4-.83.666-.83.732-.64 1.27-.45 1.523.237.32.71.444 1.287.444 1.176 0 2.774-.53 3.62-1.05 1.363-.84 1.06-2.75.55-4.22 1.03-.28 2.045-.7 3.02-1.25 1.74-.982 3.19-2.305 4.222-3.82.153.106.273.216.36.33.276.35.27.786.235 1.587-.015.35-.03.74-.02 1.17.04 1.18.6 1.38.926 1.4h.04c1.27 0 2.593-2.954 2.805-4.53.22-1.61-1.364-2.632-2.875-3.24zm-3.654 2.42c-.543.702-1.214 1.363-2 1.946l-.674-.857.094-.156 1.51-3.813c.042-.11.048-.226.023-.336l2.212-.327c.166-.02.31-.12.398-.26-.016.24-.047.49-.095.73-.072.37-.183.74-.327 1.1-.13.33-.288.66-.473.99-.194.34-.417.67-.667 1zm-3.17 2.71c-.936.53-1.914.91-2.898 1.135-.278.06-.557.11-.836.15-.408.05-.815.08-1.22.08l-.125-.01.88-2.23.203.04.084-.01 3.258-.48.1.19.773.98-.21.13zm-1.727-11.367c.334-.038.668-.057 1-.057l.195.004.49.026-.73 1.85c-.09-.037-.19-.05-.292-.035l-3.723.55-.808-1.07c1.245-.69 2.564-1.12 3.868-1.268zm6.262 1.72l.148.184-.84 2.13-2.263.34-1.42-1.79.64-1.62.2-.5.66-.09h.04l1.562-.23 1.273 1.61zM21.57 20.87l-3.4.504-2.14-2.696 1.267-3.2 3.403-.503 2.137 2.695-1.266 3.2zm-9.793.875l.69-1.743 2.667-.395 1.675 2.113-1 2.508-1.14.168-1.53.227-1.68-2.114.3-.77zm2-6.527c.468-.486.996-.933 1.576-1.336l.883 1.17-1.36 3.438-2.903.43c-.146.022-.275.1-.364.212.08-.45.23-.91.43-1.37.29-.663.68-1.3 1.15-1.892.18-.224.37-.44.57-.652zm14.76-3.533c.155-.087.352-.13.586-.13.502 0 1.038.195 1.368.34-.07.574-.29 1.48-.82 1.78-.35.2-.72.304-1.08.304l-.12-.01c-.1-.25-.22-.49-.35-.73-.13-.24-.28-.46-.44-.68.18-.35.49-.67.88-.88zm-8.76-4.507c-.297-.16-.604-.328-.932-.54l-.088-.06c.716-.152 2.422-.077 3.644.45.8.346.8 1.66.65 2.7l-.01.105c-.43-.082-.87-.135-1.33-.158-.06-1.39-.82-1.9-1.92-2.498zM7.66 14.438c-.277.112-.562.227-.887.33.352-.588 1.282-1.627 2.343-2.17.723-.372 1.754.518 2.574 1.516-.23.267-.445.542-.648.824-1.264-1.247-2.147-1-3.384-.5zm2.203 10.044c-.22.104-.434.206-.634.317.13-.52.42-.97.86-1.29.13.22.27.43.42.64-.22.12-.44.22-.66.32zm9.014 5.383c-1.01.627-2.376.89-3.064.89h-.004c.25-.226.5-.41.74-.59 1.06-.803 1.73-1.434 1.31-3.17.34-.028.69-.07 1.04-.13.43 1.22.67 2.57-.03 3zm11.61-8.53c-.176 1.32-.99 2.823-1.49 3.358l-.006-.107c-.01-.39.01-.74.02-1.078.06-1.255.01-2.168-1.15-2.938.13-.236.25-.474.35-.717l.21-.5.1.038c.97.42 2.1 1.09 1.98 1.95zm-2.11-13.278c-.17-.126-.408-.148-.598-.053l-.09.054c-.15.108-.23.277-.23.458 0 .113.03.223.09.316l.06.077.07.06c.09.07.21.11.34.11.09 0 .17-.02.25-.06l.1-.07.09-.1.1-.2c.04-.16.01-.33-.08-.47l-.14-.14zM4.952 24.75c-.17-.125-.41-.146-.598-.052l-.087.054c-.144.108-.228.277-.228.458 0 .113.03.223.09.316l.06.077.07.066c.1.07.21.11.34.11.09 0 .17-.02.25-.06l.11-.07.09-.1.09-.2c.04-.16.01-.33-.08-.47l-.14-.14zm-.79-2.334l.096-.098.097-.2c.042-.156.014-.325-.076-.46-.11-.16-.29-.257-.48-.257-.13 0-.25.05-.35.12-.25.18-.3.52-.14.78.1.16.28.26.47.26.09 0 .17-.02.25-.06l.11-.07zm25.13-16.218c-.124 0-.244.04-.342.114-.242.182-.3.52-.134.773.106.16.285.257.477.257.09 0 .176-.02.254-.06l.107-.07.095-.097.09-.2c.04-.157.01-.326-.08-.462-.11-.16-.29-.254-.48-.254zm-1.6-1.876c-.132.1-.216.252-.227.417l.007.13c.015.09.05.17.102.24l.057.06.16.1c.08.03.16.06.26.06.13 0 .25-.04.35-.12l.06-.05c.11-.11.17-.26.17-.41 0-.22-.12-.42-.31-.52-.16-.08-.35-.08-.51 0l-.08.05zM4.942 22.744c-.085.016-.167.052-.238.104-.222.166-.294.47-.168.717.056.11.145.2.254.253.08.04.167.06.256.06s.176-.02.255-.06l.09-.055c.12-.088.2-.218.22-.364.03-.19-.03-.37-.16-.5-.13-.14-.32-.2-.5-.16zm23.778-19.3c.15.154.363.243.582.243.173 0 .34-.057.474-.16.156-.115.26-.282.292-.475.037-.216-.02-.444-.154-.624l-.074-.08c-.148-.135-.35-.213-.555-.213-.16 0-.314.046-.446.132l-.05.035c-.32.26-.37.747-.12 1.085l.04.056zm.352-.25l.218-.24.177.268c-.12.08-.285.07-.396-.03zm.453-.015l-.093-.11.055.08-.18-.22.058-.07.223-.17c.125.16.06.36-.063.47zm-.583-.33c.016-.1.068-.18.145-.25.064-.05.14-.07.215-.07.114 0 .194.05.24.1l-.26.25-.128-.16.11.17-.264.2c-.053-.07-.073-.16-.057-.26zM3.287 18.96c.138.12.316.186.502.186.22 0 .43-.093.58-.253l.04-.056c.24-.324.19-.79-.1-1.055-.14-.135-.32-.208-.52-.208-.22 0-.44.094-.59.257l-.07.09c-.2.31-.16.73.09 1l.04.04zm.83-.427l-.273-.174.235-.22c.07.09.13.24.03.4zm-.09-.444l-.092.11.072-.06-.186.21-.07-.05-.2-.19c.13-.13.34-.14.48-.02zm-.526.08l.3.21-.13.15.15-.14.24.23c-.12.12-.36.12-.5-.01-.11-.11-.16-.3-.04-.46zm22.38-16.2c.23.23.57.37.91.37.27 0 .52-.08.72-.24.23-.17.39-.41.44-.7.06-.34-.03-.69-.24-.98l-.08-.08c-.23-.21-.55-.33-.88-.33-.25 0-.49.07-.69.2l-.05.04c-.48.4-.55 1.14-.16 1.66l.05.06zm.93-.8l.01.02-.01.01-.07-.01v-.04l.09.01zM6.19 7.56c.09.05.188.08.287.08.1 0 .198-.023.286-.074l1.847-1.07c.89.806 2.058 1.26 3.268 1.26 1.365 0 2.677-.58 3.6-1.587.2-.22.2-.55 0-.77-.923-1.01-2.234-1.58-3.6-1.58-1.21 0-2.377.45-3.27 1.26L6.764 4.01c-.177-.1-.395-.1-.57 0-.178.102-.287.29-.287.495v2.57c0 .203.11.39.286.494zm5.687-2.61c.857 0 1.686.3 2.346.83-.66.536-1.49.83-2.346.83-.856 0-1.685-.294-2.345-.83.66-.53 1.49-.83 2.345-.83zm-4.83.54l.51.295-.51.294v-.59zm.323 4.773c.2-.218.2-.554 0-.77-.667-.73-1.615-1.15-2.602-1.15-.83 0-1.633.298-2.265.826L1.347 8.5c-.177-.1-.395-.1-.572 0-.176.103-.286.292-.286.496v1.762c0 .204.1.393.28.495.09.052.18.077.28.077.1 0 .2-.025.28-.077l1.15-.668c.63.528 1.43.825 2.26.825.99 0 1.94-.418 2.6-1.147zM4.768 9.49c.466 0 .92.137 1.305.39-.384.25-.84.39-1.305.39-.467 0-.92-.14-1.306-.39.386-.253.84-.39 1.306-.39zm22.148 17.284c-.83 0-1.633.298-2.265.826l-1.15-.67c-.17-.1-.39-.1-.57 0-.17.104-.28.292-.28.496v1.762c0 .204.11.393.29.495.09.052.19.077.29.077.1 0 .2-.025.29-.076l1.16-.667c.64.528 1.44.825 2.27.825.99 0 1.94-.418 2.61-1.147.2-.217.2-.553 0-.77-.67-.73-1.61-1.148-2.6-1.148zm0 1.924c-.467 0-.92-.14-1.306-.39.386-.252.84-.39 1.306-.39.466 0 .92.138 1.305.39-.38.252-.83.39-1.3.39z" fill="#3A434E"/></g></svg>