<svg width="32" height="232" viewBox="0 0 32 232" xmlns="http://www.w3.org/2000/svg"><g fill="none">
			<path id="XMLID_22_" fill="#3A444F" d="M26.3,16.4c0.2,0,0.4-0.2,0.4-0.4c0-0.2-0.2-0.1-0.4-0.1c-0.2,0-0.4-0.1-0.4,0.1
				C25.9,16.2,26.1,16.4,26.3,16.4z"/>
			<path id="XMLID_15_" fill="#3A444F" d="M29.9,20c-0.3,0-0.6,0-0.9,0c-0.2-1.9-0.7-3.7-1.2-5c-0.2-0.5-0.3-0.9-0.4-1.2
				c-0.3-1.4-1.7-1.9-3-1.9c-0.5,0-1.3-0.2-2.1-0.5c-0.8-0.2-1.6-0.4-2.1-0.4c-0.8,0-1.4,0.5-1.8,1.3c-2.6,0-4.3-0.2-5.6-0.3
				c-0.9-0.1-1.6-0.1-2.3-0.1c-3.5,0-6.4,2.9-6.4,6.4c0,1.3-0.5,1.8-1.1,2.5c-0.7,0.7-1.4,1.5-1.4,3.4c0,0.3,0.2,0.5,0.5,0.5
				s0.5-0.2,0.5-0.5c0-1.5,0.5-2,1.1-2.7C4,21.2,4.3,21,4.5,20.6c-0.1,2.1-0.8,3.5-1.3,4.7c-0.4,0.9-0.8,1.6-0.8,2.4
				c0,1.2,0.5,1.6,0.6,1.7c0.1,0.1,0.2,0.1,0.3,0.1h2c0.2,0,0.5-0.2,0.5-0.4c0-0.2-0.1-0.4-0.3-0.5c0,0-0.2-0.2-0.2-0.8
				c0-0.9,0.9-2.3,1.6-3.2c0.2,0.5,0.4,1.1,0.4,1.8v3c0,0.3,0.2,0.5,0.5,0.5h2.8c0.2,0,0.3-0.1,0.4-0.2c0.1-0.2,0.1-0.3,0-0.5
				c0,0-0.8-1.6-0.8-3.4c0-0.9,0.1-1.4,0.1-1.6c1.7-0.1,3.1-0.6,4.3-1.1c0.5-0.2,0.9-0.4,1.4-0.5c0.1,0.9,0.4,2.7,0.4,3.7
				c0,1.3-0.7,3.2-0.7,3.2c-0.1,0.2,0,0.3,0.1,0.5c0.1,0.1,0.2,0.2,0.4,0.2h2.6c0.2,0,0.4-0.1,0.5-0.3c0.1-0.2,0.1-0.4-0.1-0.5
				c0,0-0.3-0.3-0.3-0.7c0-0.3,0.4-1.9,0.8-3.6c0.1,0.1,0.2,0.3,0.4,0.4c0.9,0.9,2.3,2.4,2.3,3.4v0.7c0,0.3,0.2,0.5,0.5,0.5h2.2
				c0.2,0,0.3-0.1,0.4-0.2c0.1-0.1,0.1-0.3,0-0.5c-0.1-0.3-0.5-1.2-0.5-1.8c0-1-0.5-1.8-1-2.6c-0.6-1-1.3-2.1-1.5-3.9
				c0,0,0.1,0,0.1,0c0.5,0,0.9-0.3,1.2-1c0.1-0.2,0.2-0.4,0.3-0.7c1.5,0.4,2.1,1.8,2.1,2.7c0,0.8,0,2.6-0.1,4.1c0,1.3,0,2.6,0,3
				c0,0.3,0.2,0.5,0.5,0.5h0.3c0.3,0,0.5-0.2,0.5-0.5c0-0.4,0.2-1.5,0.5-2.6c0.4-1.7,0.9-3.9,0.9-5.3c0,0,0-0.1,0-0.1
				c0.3,0,0.5,0,0.8,0c0.3,0,0.5-0.2,0.5-0.5C30.4,20.3,30.1,20,29.9,20z M4.4,27.8c0,0.3,0,0.6,0.1,0.8H3.6
				c-0.1-0.1-0.1-0.4-0.1-0.8c0-0.6,0.3-1.2,0.7-2c0.5-1,1-2.2,1.3-3.9c0.1,0.2,0.3,0.4,0.4,0.7c0.2,0.3,0.5,0.7,0.7,1
				C5.9,24.3,4.4,26.4,4.4,27.8z M18,28.5c0,0.2,0,0.4,0.1,0.5h-1.1c0.2-0.7,0.5-1.9,0.5-2.9c0-1.1-0.3-3.1-0.4-3.9
				c0.2,0,0.3,0,0.5,0h0.7c0.3,0.6,0.6,1.3,0.8,1.7C18.8,24.9,18,27.9,18,28.5z M23.3,25.3c0.5,0.8,0.9,1.4,0.9,2.1
				c0,0.5,0.1,1,0.3,1.5h-1v-0.2c0-1.4-1.4-2.9-2.5-4.1c-0.4-0.4-0.8-0.8-0.9-1c-0.6-0.9-1.7-3.8-1.7-3.9c-0.1-0.3-0.4-0.4-0.6-0.3
				c-0.3,0.1-0.4,0.4-0.3,0.6c0,0,0.2,0.5,0.5,1.2h-0.3c-1.1,0-2.2,0.4-3.2,0.9c-1.2,0.5-2.5,1.1-4.1,1.1c-0.1,0-0.1,0-0.2,0
				c-0.5,0.2-0.7,1-0.7,2.6c0,1.3,0.4,2.4,0.6,3.1H8.4v-2.5c0-1.8-0.9-3.1-1.7-4.3c-0.8-1.1-1.5-2.2-1.5-3.7c0-3,2.4-5.4,5.4-5.4
				c0.7,0,1.4,0.1,2.2,0.1c1.3,0.1,2.9,0.3,5.4,0.3c-0.3,1.6,0,3.6,1.2,4.8c0.5,0.5,0.9,1,1.2,1.3c0.4,0.5,0.7,0.8,1.1,1
				C21.7,22.8,22.6,24.2,23.3,25.3z M23.7,13.3c-0.3-0.1-0.5,0-0.7,0.3c-0.1,0.3,0,0.5,0.3,0.7c0.4,0.2,0.7,1.1,0.6,2.3
				c-0.1,1.8-0.7,3.2-1.1,3.3c-0.5,0-0.7-0.2-1.4-1c-0.3-0.4-0.7-0.8-1.3-1.4c-1.1-1.1-1.3-3.3-0.7-4.5c0.2-0.4,0.5-0.9,1-0.9
				c0.4,0,1.1,0.2,1.8,0.4c0.9,0.2,1.8,0.5,2.4,0.5c1.7,0,2,0.9,2,1.1c0.1,0.3,0.2,0.8,0.4,1.3c0.4,1.1,0.9,2.8,1.1,4.5
				c-0.9-0.2-1.4-0.6-2.1-1.1c0,0,0,0-0.1,0c-0.3-0.2-0.7-0.4-1.2-0.5c0-0.1,0-0.1,0-0.2C25,16.2,25,13.9,23.7,13.3z M28,21.1
				c0,1.1-0.3,2.6-0.6,4c0-1.3,0-2.6,0-3.3c0-0.4-0.1-0.8-0.2-1.2c0.2,0.1,0.5,0.1,0.7,0.2C28,21,28,21.1,28,21.1z"/>
		</g>
		<g id="XMLID_529_">
			<path id="XMLID_537_" fill="#67737C" d="M26.3,56.4c0.2,0,0.4-0.2,0.4-0.4c0-0.2-0.2-0.1-0.4-0.1c-0.2,0-0.4-0.1-0.4,0.1
				C25.9,56.2,26.1,56.4,26.3,56.4z"/>
			<path id="XMLID_530_" fill="#67737C" d="M29.9,60c-0.3,0-0.6,0-0.9,0c-0.2-1.9-0.7-3.7-1.2-5c-0.2-0.5-0.3-0.9-0.4-1.2
				c-0.3-1.4-1.7-1.9-3-1.9c-0.5,0-1.3-0.2-2.1-0.5c-0.8-0.2-1.6-0.4-2.1-0.4c-0.8,0-1.4,0.5-1.8,1.3c-2.6,0-4.3-0.2-5.6-0.3
				c-0.9-0.1-1.6-0.1-2.3-0.1c-3.5,0-6.4,2.9-6.4,6.4c0,1.3-0.5,1.8-1.1,2.5c-0.7,0.7-1.4,1.5-1.4,3.4c0,0.3,0.2,0.5,0.5,0.5
				s0.5-0.2,0.5-0.5c0-1.5,0.5-2,1.1-2.7C4,61.2,4.3,61,4.5,60.6c-0.1,2.1-0.8,3.5-1.3,4.7c-0.4,0.9-0.8,1.6-0.8,2.4
				c0,1.2,0.5,1.6,0.6,1.7c0.1,0.1,0.2,0.1,0.3,0.1h2c0.2,0,0.5-0.2,0.5-0.4c0-0.2-0.1-0.4-0.3-0.5c0,0-0.2-0.2-0.2-0.8
				c0-0.9,0.9-2.3,1.6-3.2c0.2,0.5,0.4,1.1,0.4,1.8v3c0,0.3,0.2,0.5,0.5,0.5h2.8c0.2,0,0.3-0.1,0.4-0.2c0.1-0.2,0.1-0.3,0-0.5
				c0,0-0.8-1.6-0.8-3.4c0-0.9,0.1-1.4,0.1-1.6c1.7-0.1,3.1-0.6,4.3-1.1c0.5-0.2,0.9-0.4,1.4-0.5c0.1,0.9,0.4,2.7,0.4,3.7
				c0,1.3-0.7,3.2-0.7,3.2c-0.1,0.2,0,0.3,0.1,0.5c0.1,0.1,0.2,0.2,0.4,0.2h2.6c0.2,0,0.4-0.1,0.5-0.3c0.1-0.2,0.1-0.4-0.1-0.5
				c0,0-0.3-0.3-0.3-0.7c0-0.3,0.4-1.9,0.8-3.6c0.1,0.1,0.2,0.3,0.4,0.4c0.9,0.9,2.3,2.4,2.3,3.4v0.7c0,0.3,0.2,0.5,0.5,0.5h2.2
				c0.2,0,0.3-0.1,0.4-0.2c0.1-0.1,0.1-0.3,0-0.5c-0.1-0.3-0.5-1.2-0.5-1.8c0-1-0.5-1.8-1-2.6c-0.6-1-1.3-2.1-1.5-3.9
				c0,0,0.1,0,0.1,0c0.5,0,0.9-0.3,1.2-1c0.1-0.2,0.2-0.4,0.3-0.7c1.5,0.4,2.1,1.8,2.1,2.7c0,0.8,0,2.6-0.1,4.1c0,1.3,0,2.6,0,3
				c0,0.3,0.2,0.5,0.5,0.5h0.3c0.3,0,0.5-0.2,0.5-0.5c0-0.4,0.2-1.5,0.5-2.6c0.4-1.7,0.9-3.9,0.9-5.3c0,0,0-0.1,0-0.1
				c0.3,0,0.5,0,0.8,0c0.3,0,0.5-0.2,0.5-0.5C30.4,60.3,30.1,60,29.9,60z M4.4,67.8c0,0.3,0,0.6,0.1,0.8H3.6
				c-0.1-0.1-0.1-0.4-0.1-0.8c0-0.6,0.3-1.2,0.7-2c0.5-1,1-2.2,1.3-3.9c0.1,0.2,0.3,0.4,0.4,0.7c0.2,0.3,0.5,0.7,0.7,1
				C5.9,64.3,4.4,66.4,4.4,67.8z M18,68.5c0,0.2,0,0.4,0.1,0.5h-1.1c0.2-0.7,0.5-1.9,0.5-2.9c0-1.1-0.3-3.1-0.4-3.9
				c0.2,0,0.3,0,0.5,0h0.7c0.3,0.6,0.6,1.3,0.8,1.7C18.8,64.9,18,67.9,18,68.5z M23.3,65.3c0.5,0.8,0.9,1.4,0.9,2.1
				c0,0.5,0.1,1,0.3,1.5h-1v-0.2c0-1.4-1.4-2.9-2.5-4.1c-0.4-0.4-0.8-0.8-0.9-1c-0.6-0.9-1.7-3.8-1.7-3.9c-0.1-0.3-0.4-0.4-0.6-0.3
				c-0.3,0.1-0.4,0.4-0.3,0.6c0,0,0.2,0.5,0.5,1.2h-0.3c-1.1,0-2.2,0.4-3.2,0.9c-1.2,0.5-2.5,1.1-4.1,1.1c-0.1,0-0.1,0-0.2,0
				c-0.5,0.2-0.7,1-0.7,2.6c0,1.3,0.4,2.4,0.6,3.1H8.4v-2.5c0-1.8-0.9-3.1-1.7-4.3c-0.8-1.1-1.5-2.2-1.5-3.7c0-3,2.4-5.4,5.4-5.4
				c0.7,0,1.4,0.1,2.2,0.1c1.3,0.1,2.9,0.3,5.4,0.3c-0.3,1.6,0,3.6,1.2,4.8c0.5,0.5,0.9,1,1.2,1.3c0.4,0.5,0.7,0.8,1.1,1
				C21.7,62.8,22.6,64.2,23.3,65.3z M23.7,53.3c-0.3-0.1-0.5,0-0.7,0.3c-0.1,0.3,0,0.5,0.3,0.7c0.4,0.2,0.7,1.1,0.6,2.3
				c-0.1,1.8-0.7,3.2-1.1,3.3c-0.5,0-0.7-0.2-1.4-1c-0.3-0.4-0.7-0.8-1.3-1.4c-1.1-1.1-1.3-3.3-0.7-4.5c0.2-0.4,0.5-0.9,1-0.9
				c0.4,0,1.1,0.2,1.8,0.4c0.9,0.2,1.8,0.5,2.4,0.5c1.7,0,2,0.9,2,1.1c0.1,0.3,0.2,0.8,0.4,1.3c0.4,1.1,0.9,2.8,1.1,4.5
				c-0.9-0.2-1.4-0.6-2.1-1.1c0,0,0,0-0.1,0c-0.3-0.2-0.7-0.4-1.2-0.5c0-0.1,0-0.1,0-0.2C25,56.2,25,53.9,23.7,53.3z M28,61.1
				c0,1.1-0.3,2.6-0.6,4c0-1.3,0-2.6,0-3.3c0-0.4-0.1-0.8-0.2-1.2c0.2,0.1,0.5,0.1,0.7,0.2C28,61,28,61.1,28,61.1z"/>
		</g>
		<g id="XMLID_766_">
			<path id="XMLID_774_" fill="#FFFFFF" d="M26.3,96.4c0.2,0,0.4-0.2,0.4-0.4c0-0.2-0.2-0.1-0.4-0.1c-0.2,0-0.4-0.1-0.4,0.1
				C25.9,96.2,26.1,96.4,26.3,96.4z"/>
			<path id="XMLID_767_" fill="#FFFFFF" d="M29.9,100c-0.3,0-0.6,0-0.9,0c-0.2-1.9-0.7-3.7-1.2-5c-0.2-0.5-0.3-0.9-0.4-1.2
				c-0.3-1.4-1.7-1.9-3-1.9c-0.5,0-1.3-0.2-2.1-0.5c-0.8-0.2-1.6-0.4-2.1-0.4c-0.8,0-1.4,0.5-1.8,1.3c-2.6,0-4.3-0.2-5.6-0.3
				c-0.9-0.1-1.6-0.1-2.3-0.1c-3.5,0-6.4,2.9-6.4,6.4c0,1.3-0.5,1.8-1.1,2.5c-0.7,0.7-1.4,1.5-1.4,3.4c0,0.3,0.2,0.5,0.5,0.5
				s0.5-0.2,0.5-0.5c0-1.5,0.5-2,1.1-2.7c0.2-0.3,0.5-0.5,0.7-0.8c-0.1,2.1-0.8,3.5-1.3,4.7c-0.4,0.9-0.8,1.6-0.8,2.4
				c0,1.2,0.5,1.6,0.6,1.7c0.1,0.1,0.2,0.1,0.3,0.1h2c0.2,0,0.5-0.2,0.5-0.4c0-0.2-0.1-0.4-0.3-0.5c0,0-0.2-0.2-0.2-0.8
				c0-0.9,0.9-2.3,1.6-3.2c0.2,0.5,0.4,1.1,0.4,1.8v3c0,0.3,0.2,0.5,0.5,0.5h2.8c0.2,0,0.3-0.1,0.4-0.2c0.1-0.2,0.1-0.3,0-0.5
				c0,0-0.8-1.6-0.8-3.4c0-0.9,0.1-1.4,0.1-1.6c1.7-0.1,3.1-0.6,4.3-1.1c0.5-0.2,0.9-0.4,1.4-0.5c0.1,0.9,0.4,2.7,0.4,3.7
				c0,1.3-0.7,3.2-0.7,3.2c-0.1,0.2,0,0.3,0.1,0.5c0.1,0.1,0.2,0.2,0.4,0.2h2.6c0.2,0,0.4-0.1,0.5-0.3c0.1-0.2,0.1-0.4-0.1-0.5
				c0,0-0.3-0.3-0.3-0.7c0-0.3,0.4-1.9,0.8-3.6c0.1,0.1,0.2,0.3,0.4,0.4c0.9,0.9,2.3,2.4,2.3,3.4v0.7c0,0.3,0.2,0.5,0.5,0.5h2.2
				c0.2,0,0.3-0.1,0.4-0.2c0.1-0.1,0.1-0.3,0-0.5c-0.1-0.3-0.5-1.2-0.5-1.8c0-1-0.5-1.8-1-2.6c-0.6-1-1.3-2.1-1.5-3.9
				c0,0,0.1,0,0.1,0c0.5,0,0.9-0.3,1.2-1c0.1-0.2,0.2-0.4,0.3-0.7c1.5,0.4,2.1,1.8,2.1,2.7c0,0.8,0,2.6-0.1,4.1c0,1.3,0,2.6,0,3
				c0,0.3,0.2,0.5,0.5,0.5h0.3c0.3,0,0.5-0.2,0.5-0.5c0-0.4,0.2-1.5,0.5-2.6c0.4-1.7,0.9-3.9,0.9-5.3c0,0,0-0.1,0-0.1
				c0.3,0,0.5,0,0.8,0c0.3,0,0.5-0.2,0.5-0.5C30.4,100.3,30.1,100,29.9,100z M4.4,107.8c0,0.3,0,0.6,0.1,0.8H3.6
				c-0.1-0.1-0.1-0.4-0.1-0.8c0-0.6,0.3-1.2,0.7-2c0.5-1,1-2.2,1.3-3.9c0.1,0.2,0.3,0.4,0.4,0.7c0.2,0.3,0.5,0.7,0.7,1
				C5.9,104.3,4.4,106.4,4.4,107.8z M18,108.5c0,0.2,0,0.4,0.1,0.5h-1.1c0.2-0.7,0.5-1.9,0.5-2.9c0-1.1-0.3-3.1-0.4-3.9
				c0.2,0,0.3,0,0.5,0h0.7c0.3,0.6,0.6,1.3,0.8,1.7C18.8,104.9,18,107.9,18,108.5z M23.3,105.3c0.5,0.8,0.9,1.4,0.9,2.1
				c0,0.5,0.1,1,0.3,1.5h-1v-0.2c0-1.4-1.4-2.9-2.5-4.1c-0.4-0.4-0.8-0.8-0.9-1c-0.6-0.9-1.7-3.8-1.7-3.9c-0.1-0.3-0.4-0.4-0.6-0.3
				c-0.3,0.1-0.4,0.4-0.3,0.6c0,0,0.2,0.5,0.5,1.2h-0.3c-1.1,0-2.2,0.4-3.2,0.9c-1.2,0.5-2.5,1.1-4.1,1.1c-0.1,0-0.1,0-0.2,0
				c-0.5,0.2-0.7,1-0.7,2.6c0,1.3,0.4,2.4,0.6,3.1H8.4v-2.5c0-1.8-0.9-3.1-1.7-4.3c-0.8-1.1-1.5-2.2-1.5-3.7c0-3,2.4-5.4,5.4-5.4
				c0.7,0,1.4,0.1,2.2,0.1c1.3,0.1,2.9,0.3,5.4,0.3c-0.3,1.6,0,3.6,1.2,4.8c0.5,0.5,0.9,1,1.2,1.3c0.4,0.5,0.7,0.8,1.1,1
				C21.7,102.8,22.6,104.2,23.3,105.3z M23.7,93.3c-0.3-0.1-0.5,0-0.7,0.3c-0.1,0.3,0,0.5,0.3,0.7c0.4,0.2,0.7,1.1,0.6,2.3
				c-0.1,1.8-0.7,3.2-1.1,3.3c-0.5,0-0.7-0.2-1.4-1c-0.3-0.4-0.7-0.8-1.3-1.4c-1.1-1.1-1.3-3.3-0.7-4.5c0.2-0.4,0.5-0.9,1-0.9
				c0.4,0,1.1,0.2,1.8,0.4c0.9,0.2,1.8,0.5,2.4,0.5c1.7,0,2,0.9,2,1.1c0.1,0.3,0.2,0.8,0.4,1.3c0.4,1.1,0.9,2.8,1.1,4.5
				c-0.9-0.2-1.4-0.6-2.1-1.1c0,0,0,0-0.1,0c-0.3-0.2-0.7-0.4-1.2-0.5c0-0.1,0-0.1,0-0.2C25,96.2,25,93.9,23.7,93.3z M28,101.1
				c0,1.1-0.3,2.6-0.6,4c0-1.3,0-2.6,0-3.3c0-0.4-0.1-0.8-0.2-1.2c0.2,0.1,0.5,0.1,0.7,0.2C28,101,28,101.1,28,101.1z"/>
		</g>
		<g id="XMLID_948_">
			<path id="XMLID_956_" fill="#1D70AD" d="M26.3,136.4c0.2,0,0.4-0.2,0.4-0.4c0-0.2-0.2-0.1-0.4-0.1c-0.2,0-0.4-0.1-0.4,0.1
				C25.9,136.2,26.1,136.4,26.3,136.4z"/>
			<path id="XMLID_949_" fill="#1D70AD" d="M29.9,140c-0.3,0-0.6,0-0.9,0c-0.2-1.9-0.7-3.7-1.2-5c-0.2-0.5-0.3-0.9-0.4-1.2
				c-0.3-1.4-1.7-1.9-3-1.9c-0.5,0-1.3-0.2-2.1-0.5c-0.8-0.2-1.6-0.4-2.1-0.4c-0.8,0-1.4,0.5-1.8,1.3c-2.6,0-4.3-0.2-5.6-0.3
				c-0.9-0.1-1.6-0.1-2.3-0.1c-3.5,0-6.4,2.9-6.4,6.4c0,1.3-0.5,1.8-1.1,2.5c-0.7,0.7-1.4,1.5-1.4,3.4c0,0.3,0.2,0.5,0.5,0.5
				s0.5-0.2,0.5-0.5c0-1.5,0.5-2,1.1-2.7c0.2-0.3,0.5-0.5,0.7-0.8c-0.1,2.1-0.8,3.5-1.3,4.7c-0.4,0.9-0.8,1.6-0.8,2.4
				c0,1.2,0.5,1.6,0.6,1.7c0.1,0.1,0.2,0.1,0.3,0.1h2c0.2,0,0.5-0.2,0.5-0.4c0-0.2-0.1-0.4-0.3-0.5c0,0-0.2-0.2-0.2-0.8
				c0-0.9,0.9-2.3,1.6-3.2c0.2,0.5,0.4,1.1,0.4,1.8v3c0,0.3,0.2,0.5,0.5,0.5h2.8c0.2,0,0.3-0.1,0.4-0.2c0.1-0.2,0.1-0.3,0-0.5
				c0,0-0.8-1.6-0.8-3.4c0-0.9,0.1-1.4,0.1-1.6c1.7-0.1,3.1-0.6,4.3-1.1c0.5-0.2,0.9-0.4,1.4-0.5c0.1,0.9,0.4,2.7,0.4,3.7
				c0,1.3-0.7,3.2-0.7,3.2c-0.1,0.2,0,0.3,0.1,0.5c0.1,0.1,0.2,0.2,0.4,0.2h2.6c0.2,0,0.4-0.1,0.5-0.3c0.1-0.2,0.1-0.4-0.1-0.5
				c0,0-0.3-0.3-0.3-0.7c0-0.3,0.4-1.9,0.8-3.6c0.1,0.1,0.2,0.3,0.4,0.4c0.9,0.9,2.3,2.4,2.3,3.4v0.7c0,0.3,0.2,0.5,0.5,0.5h2.2
				c0.2,0,0.3-0.1,0.4-0.2c0.1-0.1,0.1-0.3,0-0.5c-0.1-0.3-0.5-1.2-0.5-1.8c0-1-0.5-1.8-1-2.6c-0.6-1-1.3-2.1-1.5-3.9
				c0,0,0.1,0,0.1,0c0.5,0,0.9-0.3,1.2-1c0.1-0.2,0.2-0.4,0.3-0.7c1.5,0.4,2.1,1.8,2.1,2.7c0,0.8,0,2.6-0.1,4.1c0,1.3,0,2.6,0,3
				c0,0.3,0.2,0.5,0.5,0.5h0.3c0.3,0,0.5-0.2,0.5-0.5c0-0.4,0.2-1.5,0.5-2.6c0.4-1.7,0.9-3.9,0.9-5.3c0,0,0-0.1,0-0.1
				c0.3,0,0.5,0,0.8,0c0.3,0,0.5-0.2,0.5-0.5C30.4,140.3,30.1,140,29.9,140z M4.4,147.8c0,0.3,0,0.6,0.1,0.8H3.6
				c-0.1-0.1-0.1-0.4-0.1-0.8c0-0.6,0.3-1.2,0.7-2c0.5-1,1-2.2,1.3-3.9c0.1,0.2,0.3,0.4,0.4,0.7c0.2,0.3,0.5,0.7,0.7,1
				C5.9,144.3,4.4,146.4,4.4,147.8z M18,148.5c0,0.2,0,0.4,0.1,0.5h-1.1c0.2-0.7,0.5-1.9,0.5-2.9c0-1.1-0.3-3.1-0.4-3.9
				c0.2,0,0.3,0,0.5,0h0.7c0.3,0.6,0.6,1.3,0.8,1.7C18.8,144.9,18,147.9,18,148.5z M23.3,145.3c0.5,0.8,0.9,1.4,0.9,2.1
				c0,0.5,0.1,1,0.3,1.5h-1v-0.2c0-1.4-1.4-2.9-2.5-4.1c-0.4-0.4-0.8-0.8-0.9-1c-0.6-0.9-1.7-3.8-1.7-3.9c-0.1-0.3-0.4-0.4-0.6-0.3
				c-0.3,0.1-0.4,0.4-0.3,0.6c0,0,0.2,0.5,0.5,1.2h-0.3c-1.1,0-2.2,0.4-3.2,0.9c-1.2,0.5-2.5,1.1-4.1,1.1c-0.1,0-0.1,0-0.2,0
				c-0.5,0.2-0.7,1-0.7,2.6c0,1.3,0.4,2.4,0.6,3.1H8.4v-2.5c0-1.8-0.9-3.1-1.7-4.3c-0.8-1.1-1.5-2.2-1.5-3.7c0-3,2.4-5.4,5.4-5.4
				c0.7,0,1.4,0.1,2.2,0.1c1.3,0.1,2.9,0.3,5.4,0.3c-0.3,1.6,0,3.6,1.2,4.8c0.5,0.5,0.9,1,1.2,1.3c0.4,0.5,0.7,0.8,1.1,1
				C21.7,142.8,22.6,144.2,23.3,145.3z M23.7,133.3c-0.3-0.1-0.5,0-0.7,0.3c-0.1,0.3,0,0.5,0.3,0.7c0.4,0.2,0.7,1.1,0.6,2.3
				c-0.1,1.8-0.7,3.2-1.1,3.3c-0.5,0-0.7-0.2-1.4-1c-0.3-0.4-0.7-0.8-1.3-1.4c-1.1-1.1-1.3-3.3-0.7-4.5c0.2-0.4,0.5-0.9,1-0.9
				c0.4,0,1.1,0.2,1.8,0.4c0.9,0.2,1.8,0.5,2.4,0.5c1.7,0,2,0.9,2,1.1c0.1,0.3,0.2,0.8,0.4,1.3c0.4,1.1,0.9,2.8,1.1,4.5
				c-0.9-0.2-1.4-0.6-2.1-1.1c0,0,0,0-0.1,0c-0.3-0.2-0.7-0.4-1.2-0.5c0-0.1,0-0.1,0-0.2C25,136.2,25,133.9,23.7,133.3z M28,141.1
				c0,1.1-0.3,2.6-0.6,4c0-1.3,0-2.6,0-3.3c0-0.4-0.1-0.8-0.2-1.2c0.2,0.1,0.5,0.1,0.7,0.2C28,141,28,141.1,28,141.1z"/>
		</g>
</svg>
