<svg width="32" height="232" viewBox="0 0 32 232" xmlns="http://www.w3.org/2000/svg"><g fill="none"><path d="M4.024 130.847h.107l-.02.284c0 .77.58 1.39 1.29 1.39h7.92c.32 0 .62-.12.85-.34.28-.26.44-.64.44-1.03s-.16-.77-.43-1.03c-.23-.22-.53-.34-.85-.34H8.87l.005-.1c0-.34-.134-.67-.375-.9-.206-.19-.468-.3-.74-.3H4.03c-.617 0-1.118.54-1.118 1.2 0 .67.5 1.21 1.116 1.21zm0-1.308h3.73l.064.02.033.08-.03.08-.06.02c-.28 0-.51.24-.51.55 0 .3.23.55.51.55h5.56c.08 0 .14.04.18.07.04.03.09.1.09.21 0 .11-.05.18-.09.21-.03.03-.09.07-.17.07H5.39c-.146 0-.265-.13-.265-.29 0-.16.118-.28.265-.28.282 0 .51-.25.51-.55h.003c0-.31-.23-.55-.51-.55h-1.37c-.053 0-.096-.05-.096-.11s.044-.11.097-.11zm26.952 18.7h-.85v-5.03c0-.31-.228-.55-.51-.55H27.52c-.277 0-.5.23-.51.53h-1.637c-.254 0-.463.2-.5.46l-.156-.06v-2.51h3.85c.283 0 .51-.25.51-.55 0-.3-.228-.55-.51-.55h-4.093l-.235-10.43 1.93.1c.47.02.89-.3 1.02-.78l.57-2.02.81.22.12.01c.08 0 .16-.02.23-.07l.91-.51c.17-.1.28-.29.27-.5-.01-.21-.12-.4-.3-.49l-.57-.29-.2-.05-1.49-.06c-.15-.12-.33-.2-.52-.22l-3.13-.387c-.1-.013-.2-.01-.29.01l-.38.07v-.846c0-1.324-.73-2.36-1.65-2.36s-1.65 1.036-1.65 2.36v.835l-.31-.06c-.1-.02-.2-.02-.3-.01l-3.19.385c-.19.024-.37.104-.52.23l-1.49.06-.2.05-.57.285c-.17.09-.29.274-.29.483-.01.21.1.408.27.5l.91.517c.07.04.15.06.233.06l.13-.02.81-.22.574 2.015c.13.48.55.8 1.02.78l1.932-.1-.09 3.93c-.18-.1-.39-.16-.61-.16H12.4c-.31 0-.616.12-.85.34-.28.267-.438.64-.438 1.04 0 .396.16.774.44 1.04.24.23.54.35.85.35h2.36l-.005.106c0 .343.14.672.38.9.2.194.46.3.733.3h2.89l-.06 2.56-.02.023H11.3l-.3-.92v-1.12l-.04-.21-.58-1.5c-.03-.08-.08-.15-.14-.21l-.812-.74c-.21-.19-.52-.168-.7.05l-.632.74-.09.14-.36.85H6.04c-.115 0-.227.04-.317.114l-1.024.877-.05.04-.62.66c-.06.07-.11.15-.13.235l-.28.99H2.4c-.283 0-.512.244-.512.55 0 .3.23.55.51.55h16.066v2.49l.002.03-.957.36c-.14.05-.25.165-.31.31l-.34.88h-.5l-.14.02v-1.96c0-.3-.23-.55-.51-.55h-2.09c-.29 0-.51.25-.51.55v1.71h-1.15v-1.51c0-.3-.23-.55-.51-.55h-1.6v-.34c0-.308-.23-.55-.51-.55H7.87c-.283 0-.51.242-.51.55v1.45h-.45v-.576c0-.3-.228-.55-.51-.55H4.257c-.282 0-.51.25-.51.55v.31H2.114c-.282 0-.51.25-.51.55v4h-.51c-.564 0-1.02.49-1.02 1.1 0 .602.456 1.093 1.02 1.093H30.98c.563 0 1.02-.49 1.02-1.098s-.456-1.1-1.02-1.1zm-28.356 0v-3.45h1.123v3.99H2.62v-.55zm12.593-1.27l-.672.17c-.12.03-.22.1-.3.21l-.1.16v-3.76h1.08v3.21zm-2.177 1.26v.55h-1.078V146h1.078v2.224zm-3.176-4.28h1.078v4.83H9.86v-4.83zm-1.48.56v-1.46h.45v5.72h-.45v-4.27zm-1.022 3.72v.55h-.452v-3.72h.452v3.17zm-2.596-4v-.31h1.123v4.84H4.762v-4.55zm10.45 4.45h-.603l.29-.46.05-.08.25-.07.51-.13.22-.06c.11-.03.21-.1.28-.2l.08-.16.42-1.31h.47c.21 0 .39-.13.47-.34l.38-.99.96-.37.72-.28h3.72l.7.27.69.26.3.112.21.54.17.45c.06.16.18.27.33.32l.13.02h.47l.42 1.302.05.11.05.07c.07.09.16.15.27.175l.19.05.05.01.46.12.05.01.23.06.05.07.3.45H15.2zm.614-12.49l.034-.08.063-.03h.002c.282 0 .51-.25.51-.55 0-.31-.228-.55-.51-.55H12.45c-.08 0-.14-.04-.174-.07-.034-.04-.09-.11-.09-.22s.055-.18.09-.22c.034-.03.093-.07.174-.07h5.837c.146 0 .265.13.265.28 0 .16-.12.28-.265.28-.282 0-.51.24-.51.55h-.002c0 .3.228.55.51.55h.553l-.005.21h-2.91l-.065-.03-.033-.08zm3.604-9.46l1.71.33.29.05c.118.02.24.02.36 0l.304-.06 1.05-.2.71-.14 1.76.21-.132.47-2.24-.12c-.282-.02-.56.09-.764.31-.203.21-.314.5-.307.81l.18 8.01-1.44-1.68.14-6.34c.01-.3-.1-.6-.3-.81-.2-.21-.48-.328-.76-.31l-2.24.12-.13-.47 1.82-.22zm1.55-2.97c0-.72.333-1.26.63-1.26s.632.54.632 1.26v1.04l-.63.12-.633-.13v-1.04zm-.477 17.69v-.75h.273l.098-4.38 1.514 1.76.06 2.62h.227v1.75h-2.172v-1.01zm6.456 3.69l-.11-.01h-.5l-.34-.87h.94v.88zm2.14 2.37l-.13-.18c-.08-.11-.18-.19-.3-.22l-.66-.16v-3.22h1.08v3.78zm-24.25-8.09l.5-.54.86-.73h1.8c.2 0 .38-.13.46-.33l.45-1.09.25-.29.35.31.5 1.27v1.1l.03.18.21.65H4.7l.15-.54z" fill="#206FAC"/><path d="M4.024 90.847h.107l-.02.284c0 .77.58 1.39 1.29 1.39h7.92c.32 0 .62-.12.85-.34.28-.26.44-.64.44-1.03s-.16-.77-.43-1.03c-.23-.22-.53-.34-.85-.34H8.87l.005-.1c0-.34-.134-.67-.375-.9-.206-.19-.468-.3-.74-.3H4.03c-.617 0-1.118.54-1.118 1.2 0 .67.5 1.21 1.116 1.21zm0-1.308h3.73l.064.02.033.08-.03.08-.06.02c-.28 0-.51.24-.51.55 0 .3.23.55.51.55h5.56c.08 0 .14.04.18.07.04.03.09.1.09.21 0 .11-.05.18-.09.21-.03.03-.09.07-.17.07H5.39c-.146 0-.265-.13-.265-.29 0-.16.118-.29.265-.29.282 0 .51-.25.51-.55h.003c0-.3-.23-.55-.51-.55h-1.37c-.053 0-.096-.05-.096-.11s.044-.11.097-.11zm26.952 18.7h-.85v-5.03c0-.31-.228-.55-.51-.55H27.52c-.277 0-.5.23-.51.53h-1.637c-.254 0-.463.2-.5.46l-.156-.06v-2.51h3.85c.283 0 .51-.25.51-.55 0-.3-.228-.55-.51-.55h-4.093l-.234-10.42 1.937.1c.47.02.89-.3 1.025-.78l.573-2.02.808.22.125.02c.082 0 .162-.02.236-.07l.913-.52c.172-.1.28-.29.274-.5 0-.21-.11-.4-.29-.49l-.56-.29-.19-.05-1.49-.06c-.15-.13-.32-.21-.51-.23l-3.13-.39c-.09-.01-.19-.01-.29.01l-.38.07v-.85c0-1.324-.72-2.36-1.65-2.36s-1.65 1.036-1.65 2.36v.835l-.31-.06c-.09-.02-.19-.024-.29-.01l-3.19.383c-.19.02-.37.1-.51.226l-1.49.06-.2.05-.56.29c-.17.09-.29.276-.29.485 0 .21.1.4.277.5l.915.51c.07.046.15.07.236.07l.127-.02.81-.22.57 2.012c.135.48.555.8 1.02.776l1.94-.1-.09 3.93c-.18-.11-.384-.17-.605-.17H12.5c-.31 0-.618.122-.85.344-.28.26-.44.64-.44 1.032 0 .39.16.77.44 1.033.234.23.535.35.85.35h2.36l-.007.11c0 .35.14.68.38.904.2.19.464.3.735.3h2.89l-.06 2.56-.02.02h-7.38l-.3-.92V97.9l-.04-.21-.585-1.5c-.037-.08-.08-.15-.147-.21l-.812-.735c-.21-.19-.512-.167-.7.05l-.635.74-.09.145-.36.85H6.04c-.114 0-.226.04-.316.12l-1.024.88-.044.04-.613.66c-.06.07-.104.148-.128.235l-.274.99H2.4c-.283 0-.512.25-.512.55 0 .304.23.55.51.55h16.066v2.493l.002.03-.957.36c-.14.05-.25.16-.31.304l-.34.88h-.5l-.14.02v-1.96c0-.303-.23-.55-.51-.55h-2.09c-.29 0-.51.247-.51.55v1.71h-1.15v-1.51c0-.303-.23-.55-.51-.55h-1.6v-.344c0-.31-.23-.55-.51-.55H7.87c-.283 0-.51.24-.51.55v1.45h-.45v-.577c0-.3-.228-.55-.51-.55H4.257c-.282 0-.51.25-.51.55v.3H2.114c-.282 0-.51.25-.51.55v4h-.51c-.564 0-1.02.5-1.02 1.1 0 .61.456 1.1 1.02 1.1H30.98c.563 0 1.02-.49 1.02-1.09s-.456-1.1-1.02-1.1zm-28.356 0v-3.45h1.123v3.99H2.62v-.55zm12.593-1.27l-.672.17c-.12.03-.22.1-.3.21l-.1.16v-3.76h1.08v3.21zm-2.177 1.26v.55h-1.078V106h1.078v2.224zm-3.176-4.28h1.078v4.83H9.86v-4.83zm-1.48.56v-1.46h.45v5.72h-.45v-4.27zm-1.022 3.72v.55h-.452v-3.72h.452v3.17zm-2.596-4v-.31h1.123v4.84H4.762v-4.55zm10.45 4.45h-.603l.29-.46.05-.08.25-.07.51-.13.22-.06c.11-.03.21-.1.28-.2l.08-.16.42-1.31h.47c.21 0 .39-.13.47-.34l.38-.99.96-.37.72-.28h3.72l.7.27.69.26.3.112.21.54.17.45c.06.16.18.27.33.32l.13.02h.47l.42 1.302.05.11.05.07c.07.09.16.15.27.175l.19.05.05.01.46.12.05.01.23.06.05.07.3.45H15.2zm.614-12.49l.034-.08.063-.03h.002c.282 0 .51-.25.51-.55 0-.31-.228-.55-.51-.55H12.45c-.08 0-.14-.04-.174-.07-.034-.04-.09-.11-.09-.22s.055-.18.09-.22c.034-.03.093-.07.174-.07h5.837c.146 0 .265.13.265.28 0 .16-.12.28-.265.28-.282 0-.51.24-.51.55h-.002c0 .3.228.55.51.55h.553l-.005.21h-2.91l-.065-.03-.033-.08zm3.604-9.46l1.71.33.29.05c.118.02.24.02.36 0l.304-.06 1.05-.2.71-.14 1.76.21-.132.47-2.24-.12c-.282-.02-.56.09-.764.31-.203.21-.314.5-.307.81l.18 8.01-1.44-1.68.14-6.34c.01-.3-.1-.6-.3-.81-.2-.21-.48-.328-.76-.31l-2.24.12-.13-.47 1.82-.22zm1.55-2.97c0-.72.333-1.26.63-1.26s.632.54.632 1.26v1.04l-.63.12-.633-.13v-1.03zm-.477 17.69v-.75h.273l.098-4.38 1.514 1.76.06 2.62h.227v1.75h-2.172v-1.01zm6.456 3.69l-.11-.01h-.5l-.34-.87h.94v.88zm2.14 2.37l-.13-.18c-.08-.11-.18-.19-.3-.22l-.66-.16v-3.22h1.08v3.78zM4.85 99.45l.5-.54.86-.735h1.8c.2 0 .382-.13.465-.326l.45-1.1.25-.29.35.31.498 1.27v1.1l.03.18.21.65H4.7l.15-.54z" fill="#fff"/><path d="M4.024 50.847h.107l-.02.284c0 .77.58 1.39 1.29 1.39h7.92c.32 0 .62-.12.85-.34.28-.26.44-.64.44-1.03s-.16-.77-.43-1.03c-.23-.22-.53-.34-.85-.34H8.87l.005-.1c0-.34-.134-.67-.375-.9-.206-.19-.468-.3-.74-.3H4.03c-.617 0-1.118.54-1.118 1.2 0 .67.5 1.21 1.116 1.21zm0-1.308h3.73l.064.02.033.08-.03.08-.06.02c-.28 0-.51.24-.51.55 0 .3.23.55.51.55h5.56c.08 0 .14.04.18.07.04.03.09.1.09.21 0 .11-.05.18-.09.21-.03.03-.09.07-.17.07H5.39c-.146 0-.265-.13-.265-.29 0-.16.118-.29.265-.29.282 0 .51-.25.51-.55h.003c0-.3-.23-.55-.51-.55h-1.37c-.053 0-.096-.05-.096-.11s.044-.11.097-.11zm26.952 18.7h-.85v-5.03c0-.31-.228-.55-.51-.55H27.52c-.277 0-.5.23-.51.53h-1.637c-.254 0-.463.2-.5.46l-.156-.06v-2.5h3.85c.283 0 .51-.25.51-.55 0-.31-.228-.55-.51-.55h-4.093l-.234-10.42 1.937.1c.47.02.89-.3 1.025-.78l.573-2.02.808.22.125.01c.082 0 .162-.02.236-.07l.913-.52c.172-.09.28-.29.274-.49 0-.21-.11-.4-.29-.49l-.56-.29-.19-.05-1.49-.06c-.15-.125-.32-.205-.51-.23l-3.13-.38c-.09-.01-.19-.01-.29.01l-.38.07v-.846c0-1.326-.72-2.36-1.65-2.36s-1.65 1.034-1.65 2.36v.833l-.31-.06c-.09-.02-.19-.024-.29-.01l-3.19.38c-.19.03-.37.11-.51.23l-1.49.06-.2.05-.56.29c-.17.09-.29.28-.29.49 0 .21.1.404.277.5l.915.513c.07.04.15.06.236.06l.127-.02.81-.22.57 2.017c.135.48.555.8 1.02.773l1.94-.1-.09 3.936c-.18-.11-.384-.17-.605-.17H12.5c-.31 0-.618.12-.85.34-.28.26-.44.64-.44 1.036 0 .394.16.772.44 1.036.234.22.535.35.85.35h2.36l-.007.1c0 .346.14.675.38.9.2.196.464.3.735.3h2.89l-.06 2.56-.02.025h-7.38l-.3-.92v-1.12l-.04-.21-.585-1.5c-.037-.08-.08-.15-.147-.21l-.812-.74c-.21-.19-.512-.163-.7.05l-.635.74-.09.15-.36.85H6.04c-.114 0-.226.047-.316.12l-1.024.87-.044.046-.613.66c-.06.06-.104.14-.128.23l-.275 1H2.4c-.283 0-.512.24-.512.55 0 .3.23.55.51.55h16.066v2.49l.002.03-.957.36c-.14.05-.25.16-.31.304l-.34.88h-.5l-.14.02V63.2c0-.3-.23-.55-.51-.55h-2.09c-.29 0-.51.25-.51.55v1.71h-1.15V63.4c0-.3-.23-.55-.51-.55h-1.6v-.342c0-.303-.23-.55-.51-.55H7.87c-.283 0-.51.247-.51.55v1.455h-.45v-.58c0-.3-.228-.55-.51-.55H4.257c-.282 0-.51.25-.51.55v.31H2.114c-.282 0-.51.25-.51.55v4h-.51c-.564 0-1.02.5-1.02 1.1 0 .61.456 1.1 1.02 1.1H30.98c.563 0 1.02-.49 1.02-1.09s-.456-1.1-1.02-1.1zm-28.356 0v-3.45h1.123v3.99H2.62v-.55zm12.593-1.27l-.672.17c-.12.03-.22.1-.3.21l-.1.16v-3.76h1.08v3.21zm-2.177 1.26v.55h-1.078v-2.77h1.078v2.22zM9.86 63.96h1.078v4.83H9.86v-4.83zm-1.48.56v-1.45h.45v5.725h-.45v-4.27zm-1.022 3.72v.55h-.452v-3.72h.452v3.17zm-2.596-3.99v-.302h1.123v4.848H4.762V64.25zm10.45 4.45h-.603l.29-.454.05-.076.25-.063.51-.127.22-.056c.11-.03.21-.1.28-.2l.08-.155.42-1.31h.47c.21 0 .39-.14.47-.34l.38-.99.96-.37.72-.28h3.72l.7.26.69.26.3.11.21.54.17.45c.06.16.18.27.33.32l.13.02h.47l.42 1.3.05.11.05.07c.07.08.16.15.27.17l.19.05.05.01.46.11.05.01.23.06.05.08.3.45H15.2zm.614-12.49l.034-.08.063-.025h.002c.282 0 .51-.246.51-.55 0-.303-.228-.55-.51-.55H12.45c-.08 0-.14-.038-.174-.07-.034-.033-.09-.104-.09-.215 0-.11.055-.18.09-.213.034-.032.093-.072.174-.072h5.837c.146 0 .265.13.265.286 0 .16-.12.29-.265.29-.282 0-.51.25-.51.55h-.002c0 .31.228.55.51.55h.553l-.005.21h-2.91l-.065-.02-.033-.08zm3.604-9.46l1.71.334.29.057c.118.03.24.03.36.01l.304-.06 1.05-.2.71-.13 1.76.22-.132.47-2.24-.11c-.282-.01-.56.1-.764.31-.203.22-.314.51-.307.82l.18 8.01-1.44-1.67.14-6.33c.01-.3-.1-.6-.3-.81-.2-.21-.48-.32-.76-.31l-2.24.12-.13-.46 1.82-.22zm1.55-2.965c0-.722.333-1.262.63-1.262s.632.54.632 1.262v1.04l-.63.118-.633-.124v-1.04zm-.477 17.695v-.744h.273l.098-4.385 1.514 1.77.06 2.62h.227v1.75h-2.172v-1.01zm6.456 3.697l-.11-.013h-.5l-.34-.87h.94v.883zm2.14 2.373l-.13-.186c-.08-.11-.18-.186-.3-.216l-.66-.163v-3.22h1.08v3.785zM4.85 59.454l.5-.54.862-.735h1.802c.2 0 .382-.13.465-.33l.45-1.1.25-.29.35.31.49 1.27v1.1l.03.18.21.65H4.7l.15-.54z" fill="#67737B"/><path d="M4.024 10.847h.107l-.02.284c0 .77.58 1.39 1.29 1.39h7.92c.32 0 .62-.12.85-.34.28-.26.44-.64.44-1.03s-.16-.77-.43-1.03c-.23-.22-.53-.34-.85-.34H8.87l.005-.1c0-.34-.134-.67-.375-.9-.206-.19-.468-.3-.74-.3H4.03c-.617 0-1.118.54-1.118 1.2 0 .67.5 1.21 1.116 1.21zm0-1.308h3.73l.064.02.033.08-.03.08-.06.02c-.28 0-.51.24-.51.55 0 .3.23.55.51.55h5.56c.08 0 .14.04.18.07.04.03.09.1.09.21 0 .11-.05.18-.09.21-.03.03-.09.07-.17.07H5.39c-.146 0-.265-.13-.265-.29 0-.16.118-.29.265-.29.282 0 .51-.25.51-.55h.003c0-.3-.23-.55-.51-.55h-1.37c-.053 0-.096-.05-.096-.11s.044-.11.097-.11zm26.952 18.7h-.85v-5.03c0-.31-.228-.55-.51-.55H27.52c-.277 0-.5.23-.51.53h-1.637c-.254 0-.463.2-.5.46l-.156-.06v-2.5h3.85c.283 0 .51-.25.51-.55 0-.31-.228-.55-.51-.55h-4.093L24.24 9.57l1.937.1c.47.023.89-.295 1.025-.776l.573-2.014.808.22.125.017c.082 0 .162-.02.236-.063l.913-.513c.172-.09.28-.29.274-.49 0-.21-.11-.39-.29-.48l-.56-.28-.19-.05-1.49-.06c-.15-.12-.32-.2-.51-.23l-3.13-.38c-.09-.01-.19-.01-.29.01l-.38.07V3.8c0-1.325-.72-2.36-1.65-2.36s-1.66 1.034-1.66 2.36v.834l-.31-.06c-.09-.02-.19-.024-.29-.01l-3.19.383c-.19.024-.37.104-.52.23l-1.49.06-.2.05-.57.286c-.17.09-.29.28-.29.488 0 .21.11.41.28.5l.92.52c.08.04.16.06.24.06l.12-.02.808-.22.57 2.02c.13.48.55.8 1.02.78L19 9.6l-.09 3.932c-.18-.11-.39-.17-.61-.17h-5.84c-.315 0-.617.123-.85.345-.28.263-.44.64-.44 1.037 0 .396.16.77.44 1.038.236.22.54.35.85.35h2.36l-.005.108c0 .346.14.675.38.9.2.196.468.3.74.3h2.884L18.76 20l-.02.025h-7.38l-.297-.92v-1.12l-.04-.21-.584-1.5c-.03-.08-.08-.15-.14-.21l-.82-.74c-.21-.19-.52-.166-.71.05l-.64.74-.09.145-.36.85H6.04c-.114 0-.226.04-.316.12L4.7 18.1l-.044.046-.613.66c-.06.068-.104.147-.128.234L3.64 20H2.4c-.283 0-.512.246-.512.55 0 .303.23.55.51.55h16.066v2.492l.002.03-.957.362c-.14.05-.25.162-.31.306l-.34.88h-.5l-.14.02v-1.97c0-.304-.23-.55-.51-.55h-2.09c-.29 0-.51.246-.51.55v1.71h-1.15v-1.51c0-.304-.23-.55-.51-.55h-1.6v-.345c0-.304-.23-.55-.51-.55H7.87c-.283 0-.51.246-.51.55v1.454h-.45v-.58c0-.31-.228-.55-.51-.55H4.257c-.282 0-.51.24-.51.55v.3H2.114c-.282 0-.51.24-.51.55v4h-.51c-.564 0-1.02.49-1.02 1.1 0 .61.456 1.1 1.02 1.1H30.98c.563 0 1.02-.49 1.02-1.1s-.456-1.1-1.02-1.1zm-28.356 0v-3.45h1.123v3.99H2.62v-.55zm12.593-1.27l-.672.17c-.12.03-.22.1-.3.21l-.1.16v-3.76h1.08v3.21zm-2.177 1.26v.55h-1.078v-2.77h1.078v2.22zM9.86 23.96h1.078v4.83H9.86v-4.83zm-1.48.56v-1.45h.45v5.725h-.45v-4.27zm-1.022 3.72v.55h-.452v-3.72h.452v3.17zm-2.596-3.99v-.302h1.123v4.848H4.762V24.25zm10.45 4.45h-.603l.29-.454.05-.076.25-.063.51-.127.22-.056c.11-.03.21-.1.28-.2l.08-.155.42-1.31h.47c.21 0 .39-.14.47-.34l.38-.99.96-.37.72-.28h3.72l.7.26.69.26.3.11.21.54.17.45c.06.16.18.27.33.32l.13.02h.47l.42 1.3.05.11.05.07c.07.08.16.15.27.17l.19.05.05.01.46.11.05.01.23.06.05.08.3.45H15.2zm.614-12.49l.034-.08.063-.025h.002c.282 0 .51-.246.51-.55 0-.303-.228-.55-.51-.55H12.45c-.08 0-.14-.038-.174-.07-.034-.033-.09-.104-.09-.215 0-.11.055-.18.09-.213.034-.032.093-.072.174-.072h5.837c.146 0 .265.13.265.286 0 .16-.12.29-.265.29-.282 0-.51.25-.51.55h-.002c0 .31.228.55.51.55h.553l-.005.21h-2.91l-.065-.02-.033-.08zm3.604-9.46l1.71.334.29.057c.118.03.24.03.36.01l.304-.06 1.05-.2.71-.13 1.76.22-.132.47-2.24-.11c-.282-.01-.56.1-.764.31-.203.22-.314.51-.307.82l.18 8.01-1.44-1.67.14-6.33c.01-.3-.1-.6-.3-.81-.2-.21-.48-.32-.76-.31l-2.24.12-.13-.47 1.82-.22zm1.55-2.965c0-.722.333-1.262.63-1.262s.632.54.632 1.262v1.04l-.63.118-.633-.124V3.78zm-.477 17.695v-.744h.273l.098-4.385 1.514 1.77.06 2.62h.227v1.75h-2.172v-1.01zm6.456 3.697l-.11-.013h-.5l-.34-.87h.94v.883zm2.14 2.373l-.13-.186c-.08-.11-.18-.186-.3-.216l-.66-.163v-3.22h1.08v3.785zM4.85 19.454l.5-.54.862-.735h1.802c.2 0 .382-.13.465-.33l.45-1.1.25-.29.35.31.49 1.27v1.1l.03.18.21.65H4.7l.15-.54z" fill="#3A434E"/></g></svg>