<svg width="32" height="232" viewBox="0 0 32 232" xmlns="http://www.w3.org/2000/svg"><g fill="none"><path d="M31.993 132.82c.055-.198-.02-.41-.182-.528-.63-.463-1.34-.77-2.1-.915.46-.237.89-.417 1.28-.513.2-.048.34-.218.36-.422.02-.206-.09-.4-.27-.49-.71-.344-1.48-.52-2.27-.52-.49 0-.99.07-1.5.204.73-.818 1.47-1.523 2.15-1.895.18-.09.28-.29.24-.5-.03-.2-.18-.36-.38-.4-.31-.06-.63-.09-.95-.09-.81 0-1.61.2-2.38.58.46-.81.95-1.52 1.45-1.97.15-.13.2-.35.12-.55-.07-.19-.26-.31-.46-.3-2.38.14-4.35 1.83-5.55 4.75-.68 1.67-1.67 3.9-2.71 5.23-1.04-1.32-2.02-3.55-2.71-5.22-1.2-2.92-3.17-4.6-5.55-4.74-.2-.01-.38.11-.46.3-.07.19-.02.41.13.55.5.46.99 1.16 1.45 1.98-.77-.37-1.57-.57-2.38-.57-.31 0-.63.03-.95.09-.2.04-.35.2-.38.4-.03.21.07.41.24.51.68.38 1.42 1.08 2.15 1.9-.5-.13-1.01-.2-1.5-.2-.79 0-1.56.18-2.27.52-.18.09-.29.29-.27.49.02.21.17.38.36.42.39.1.83.28 1.28.52-.76.15-1.46.457-2.1.92-.16.12-.23.33-.18.53.06.2.23.34.43.35.55.034 1.21.207 1.9.46l-1.45.247c-.16.03-.31.1-.43.205l-1.39-2.2c-.58-.91-1.76-1.16-2.64-.564-.438.3-.74.77-.83 1.3-.048.27.122.52.38.56.252.05.5-.12.54-.39.047-.27.197-.5.42-.66.45-.3 1.05-.17 1.34.29l1.76 2.77-.16.05-2.94-1.04c-.48-.17-1-.14-1.45.097-.46.23-.8.63-.968 1.13-.17.51-.122 1.075.12 1.55.08.166.24.26.41.26.07 0 .143-.02.22-.055.23-.126.32-.42.19-.66-.125-.25-.146-.53-.06-.79.084-.25.258-.453.49-.57.23-.12.495-.137.74-.05l1.744.617c-.65.24-1.245.53-1.52.813-.82.85-.82 2.23 0 3.07.394.41.92.64 1.483.64.56 0 1.09-.22 1.48-.63.07-.077.145-.17.215-.288v7.42c0 .27.21.49.47.49s.47-.217.47-.48v-5.43c1.05 2.514 3.47 4.28 6.287 4.28l.193-.02 2.608-.576 2.55 1.75c.16.11.34.16.52.16s.37-.06.528-.17l2.51-1.75 2.76.58.19.02c3.76 0 6.82-3.15 6.845-7.023l.32-3.66c.043-.5-.3-.96-.78-1.04l-1.45-.245c.695-.256 1.35-.43 1.9-.46.2-.01.37-.154.422-.35zm-2.282 5.634v.086c0 2.8-2.18 5.08-4.87 5.13l-3.05-.638c-.24-.05-.5 0-.71.147l-2.31 1.61-2.35-1.62c-.15-.11-.33-.17-.52-.17l-.19.02-2.89.63c-2.69-.06-4.87-2.34-4.87-5.13v-.09l-.24-2.81 3.38-.57.77-.13.76-.13.11-.02.13-.02 3.09 1.09 1.16.41.28.1.54.19.49.17c.19.07.4.07.6 0l.66-.23.48-.16.33-.12 1.12-.38.34-.11 1.13-.38 1.8-.61.13.02.11.02.758.13.764.13 3.377.577-.244 2.81zm-14.46-8.828c.41 1.003.8 1.877 1.17 2.635-.58-.72-1.14-1.48-1.61-2.13-.46-.65-.96-1.21-1.49-1.68-.53-1.12-1.03-2.01-1.5-2.69 1.43.56 2.63 1.89 3.44 3.88zm10.6-3.876c-.47.683-.97 1.567-1.5 2.69-.52.47-1.02 1.032-1.49 1.68-.47.66-1.02 1.414-1.61 2.14.37-.757.76-1.63 1.17-2.634.82-1.987 2.01-3.32 3.44-3.876zm2.1 5.566c-.83.09-1.68.342-2.56.75-.25.12-.5.25-.76.395l-.18.11c-.3.17-.61.35-.94.52.36-.28.73-.58 1.13-.91l.25-.2c.39-.3.78-.56 1.18-.78 1.158-.64 2.31-.9 3.39-.75-.45.23-.94.52-1.48.87zm-3.85.05l-.06.054-.8.655c-.36.293-.75.593-1.15.886l-.45.33c.4-.48.83-1.02 1.29-1.63.23-.3.46-.61.7-.95.18-.25.37-.48.55-.71.31-.35.62-.67.95-.95.86-.73 1.78-1.16 2.72-1.28-.71.63-1.5 1.52-2.41 2.7-.45.26-.89.57-1.33.93zm-10.59-1.38c.19.222.38.458.56.71.24.335.47.65.7.95.46.615.89 1.16 1.29 1.64l-.44-.326c-.4-.292-.78-.593-1.15-.886l-.8-.655-.07-.06c-.43-.36-.88-.67-1.32-.93-.91-1.18-1.7-2.07-2.41-2.69.95.12 1.86.55 2.72 1.28.33.27.64.59.95.95zm-.69 1.992l.25.198c.4.326.77.628 1.13.908l-.94-.52-.18-.103c-.25-.14-.51-.27-.76-.39-.87-.41-1.73-.66-2.56-.75-.53-.36-1.02-.64-1.47-.87 1.08-.15 2.23.12 3.39.76.39.22.79.48 1.17.78zm-3.4.282c.35.025.72.084 1.08.18.47.118.95.292 1.43.52l-.61.104-.64.11-.91.155c-.83-.39-1.55-.67-2.19-.86.46-.15.95-.23 1.46-.23l.39.01zm17.6.913l-.64-.11-.61-.103c.49-.23.97-.402 1.43-.52.37-.095.73-.155 1.08-.18l.39-.015c.51 0 1 .076 1.46.227-.63.186-1.35.47-2.18.856l-.91-.155zM4.8 138.94c-.22.227-.512.352-.823.352-.31 0-.604-.125-.823-.352-.455-.47-.455-1.23 0-1.7.27-.28 1.315-.67 2.334-.98l.187.066v.448c-.29.97-.63 1.91-.88 2.167zm19.52-1.788c-.187 0-.377.014-.563.04-1.212.18-2.272.93-2.88 2.006-.257.298-.467.642-.616 1.022-.06.16-.03.344.07.48.65.86 1.63 1.352 2.68 1.352.16 0 .33-.012.49-.035.32-.047.63-.14.91-.275 1.4-.212 2.59-1.18 3.11-2.533.07-.16.04-.35-.06-.48-.76-1.01-1.9-1.58-3.13-1.58zm-2.68 2.618c.38-.408.883-.683 1.438-.765l.355-.025c.658 0 1.296.28 1.76.763-.24.455-.61.822-1.05 1.056-.24.12-.504.21-.78.25-.774.11-1.566-.17-2.11-.74.106-.21.24-.39.39-.55zm4.57-.15c-.007-.092-.04-.182-.098-.258-.473-.62-1.116-1.05-1.833-1.24h.04c.83 0 1.64.364 2.21.987-.09.18-.2.35-.32.51zm-9.546-.475c-.585-1.005-1.57-1.723-2.7-1.937-.24-.045-.48-.068-.72-.068-1.17 0-2.27.528-3.03 1.45-.11.133-.144.316-.087.48.48 1.38 1.64 2.4 3.035 2.663l.126.02c.246.115.506.2.777.252.21.038.416.058.62.058 1 0 1.947-.453 2.598-1.243.11-.132.14-.315.084-.478-.154-.45-.4-.855-.7-1.196zm-2.43 1.906c-.24-.04-.47-.12-.68-.24-.47-.24-.86-.65-1.096-1.14.457-.44 1.06-.69 1.69-.69.148 0 .3.02.447.04.504.1.96.35 1.31.72.188.2.347.42.466.68-.45.44-1.06.69-1.69.69-.15 0-.3-.01-.44-.04zm-3.12-2.04c.57-.57 1.33-.9 2.128-.9l.063.01c-.673.18-1.29.57-1.753 1.14-.076.09-.113.21-.11.32-.126-.17-.236-.36-.325-.55zm16.997-1.42c.16.16.37.25.59.25.17 0 .34-.05.48-.16.34-.25.4-.77.14-1.14l-.04-.05c-.13-.15-.34-.24-.57-.24-.18 0-.35.06-.49.16-.16.12-.26.29-.29.49-.03.22.02.45.15.64l.05.06zm.73-.53l-.08.14-.05.03-.11-.06.05-.04.19-.13.01.09zm-.21-.16l.08-.02.08.04-.1.11-.11.09c-.04-.06.01-.16.08-.2zm-1.76-.37c.09.14.24.22.4.22.1 0 .2-.03.28-.09.11-.08.18-.21.19-.35.01-.14-.04-.28-.14-.38l-.04-.04c-.16-.12-.4-.12-.56 0-.18.14-.24.4-.14.61l.03.05m-17.51-.12c-.14-.1-.31-.16-.49-.16-.22 0-.43.09-.57.24l-.04.05c-.26.38-.2.89.14 1.15.14.11.3.16.48.16.22 0 .435-.09.588-.25l.05-.06c.13-.18.184-.42.15-.63-.03-.2-.134-.37-.29-.48zm-.49.81l-.05-.02-.08-.13.02-.09.183.14.05.05-.11.066zm.15-.12l-.11-.09-.11-.11c.02-.02.088-.05.15 0 .06.05.11.14.07.2zm1.63-.5l.02-.03.04-.05c.06-.09.09-.19.08-.3-.01-.14-.08-.27-.19-.35-.08-.06-.18-.1-.28-.1-.12 0-.24.05-.33.14l-.02.03-.04.05c-.055.09-.083.2-.08.31.01.14.078.27.186.35.086.065.18.1.287.1.124 0 .243-.05.33-.14" fill="#206FAC"/><path d="M31.993 92.82c.055-.198-.02-.41-.182-.528-.63-.463-1.34-.77-2.1-.915.46-.237.89-.417 1.28-.513.2-.048.34-.218.36-.422.02-.206-.09-.4-.27-.49-.71-.344-1.48-.52-2.27-.52-.49 0-.99.07-1.5.204.73-.818 1.47-1.523 2.15-1.895.18-.09.28-.29.24-.5-.03-.2-.18-.36-.38-.4-.31-.06-.63-.09-.95-.09-.81 0-1.61.2-2.38.58.46-.81.95-1.52 1.45-1.97.15-.13.2-.35.12-.55-.07-.19-.26-.31-.46-.3-2.38.14-4.35 1.83-5.55 4.75-.68 1.67-1.67 3.9-2.71 5.23-1.04-1.32-2.02-3.55-2.71-5.22-1.2-2.92-3.17-4.6-5.55-4.74-.2-.01-.38.11-.46.3-.07.19-.02.41.13.55.5.46.99 1.16 1.45 1.98-.77-.37-1.57-.57-2.38-.57-.31 0-.63.03-.95.09-.2.04-.35.2-.38.4-.03.21.07.41.24.51.68.38 1.42 1.08 2.15 1.9-.5-.13-1.01-.2-1.5-.2-.79 0-1.56.18-2.27.52-.18.09-.29.29-.27.49.02.21.17.38.36.42.39.1.83.28 1.28.52-.76.15-1.46.457-2.1.92-.16.12-.23.33-.18.53.06.2.23.34.43.35.55.034 1.21.207 1.9.46l-1.45.247c-.16.03-.31.1-.43.205l-1.4-2.21c-.572-.91-1.76-1.16-2.64-.565-.43.295-.733.77-.83 1.3-.04.26.13.513.38.56.26.05.5-.13.548-.39.05-.274.2-.51.424-.66.446-.304 1.047-.175 1.34.286l1.76 2.77-.16.045-2.94-1.04c-.48-.17-1-.133-1.454.1-.46.23-.8.63-.97 1.13-.19.49-.15 1.05.1 1.53.085.16.248.26.417.26.076 0 .15-.02.22-.06.23-.123.32-.42.197-.654-.13-.25-.15-.53-.066-.79.084-.252.26-.46.49-.574.23-.12.495-.135.74-.05l1.744.62c-.65.25-1.246.53-1.52.82-.82.85-.82 2.22 0 3.07.393.41.92.64 1.482.64.56 0 1.09-.22 1.483-.63.07-.08.14-.17.21-.29v7.427c0 .27.21.48.47.48s.47-.217.47-.484v-5.433c1.05 2.517 3.47 4.28 6.284 4.28l.19-.02 2.6-.572 2.55 1.75c.15.11.34.168.52.168s.36-.054.52-.164l2.51-1.75 2.75.58.19.02c3.76 0 6.82-3.147 6.85-7.025l.32-3.67c.047-.5-.294-.96-.78-1.04l-1.444-.245c.69-.25 1.35-.428 1.9-.46.2-.01.37-.15.43-.35zm-2.282 5.634v.086c0 2.8-2.18 5.08-4.87 5.13l-3.05-.638c-.24-.05-.5 0-.71.147l-2.31 1.61-2.35-1.62c-.15-.11-.33-.17-.52-.17l-.19.02-2.89.63c-2.69-.06-4.87-2.34-4.87-5.13v-.09l-.24-2.81 3.38-.57.77-.13.76-.13.11-.02.13-.02 3.09 1.09 1.16.41.28.1.54.19.49.17c.19.07.4.07.6 0l.66-.23.48-.16.33-.12 1.12-.38.34-.11 1.13-.38 1.8-.61.13.02.11.02.758.13.764.13 3.377.577-.244 2.81zm-14.46-8.828c.42 1.003.8 1.877 1.17 2.635-.58-.72-1.14-1.48-1.61-2.13-.46-.65-.96-1.21-1.49-1.68-.53-1.12-1.03-2.01-1.5-2.69 1.43.56 2.63 1.89 3.44 3.88zm10.59-3.876c-.47.683-.97 1.567-1.5 2.69-.52.47-1.02 1.032-1.49 1.68-.47.66-1.02 1.414-1.61 2.14.37-.757.76-1.63 1.17-2.634.82-1.987 2.01-3.32 3.44-3.876zm2.1 5.566c-.83.09-1.68.342-2.56.75-.25.12-.5.25-.76.395l-.18.11c-.29.17-.61.35-.94.52.36-.28.73-.58 1.13-.91l.25-.2c.39-.3.78-.56 1.17-.78 1.16-.64 2.32-.9 3.39-.75-.45.23-.94.52-1.48.87zm-3.85.05l-.06.054-.8.655c-.36.293-.75.593-1.14.886l-.45.33c.4-.48.83-1.02 1.29-1.63.23-.3.46-.61.7-.95.18-.25.37-.48.56-.71.31-.35.63-.67.95-.95.86-.73 1.78-1.16 2.73-1.28-.71.63-1.5 1.52-2.41 2.7-.45.26-.89.57-1.33.93zm-10.59-1.38c.19.222.38.458.56.71.24.335.48.65.7.95.46.615.89 1.16 1.29 1.64l-.44-.326c-.39-.292-.78-.593-1.15-.886l-.8-.655-.06-.06c-.44-.36-.88-.67-1.33-.93-.91-1.18-1.7-2.07-2.41-2.69.95.12 1.86.55 2.72 1.28.33.27.64.59.95.95zm-.69 1.992l.25.198c.4.326.77.628 1.13.908l-.94-.52-.18-.103c-.25-.14-.51-.27-.76-.39-.87-.41-1.73-.66-2.56-.75-.53-.36-1.02-.64-1.47-.87 1.08-.15 2.23.12 3.39.76.39.22.79.48 1.17.78zm-3.4.282c.36.025.72.084 1.08.18.47.118.95.292 1.44.52l-.61.104-.64.11-.91.155c-.83-.39-1.55-.67-2.19-.86.46-.15.95-.23 1.46-.23l.39.01zm17.59.913l-.64-.11-.61-.103c.49-.23.97-.402 1.43-.52.37-.095.73-.155 1.08-.18l.39-.015c.51 0 1 .076 1.46.227-.63.186-1.35.47-2.18.856l-.91-.155zM4.8 98.94c-.22.227-.51.352-.823.352-.31 0-.605-.125-.824-.352-.452-.47-.452-1.23 0-1.7.27-.28 1.318-.67 2.337-.98l.19.066v.448c-.29.97-.63 1.91-.88 2.167zm19.52-1.788c-.187 0-.377.014-.563.04-1.213.18-2.273.93-2.88 2.006-.26.298-.47.642-.617 1.022-.063.16-.037.344.066.48.65.86 1.63 1.352 2.68 1.352.16 0 .325-.012.485-.035.32-.047.63-.14.91-.275 1.4-.212 2.59-1.18 3.12-2.533.06-.16.04-.35-.07-.48-.76-1.01-1.9-1.58-3.13-1.58zm-2.68 2.618c.38-.408.883-.683 1.44-.765l.352-.025c.656 0 1.294.28 1.76.763-.24.455-.61.822-1.05 1.056-.243.12-.506.21-.78.25-.776.11-1.568-.17-2.11-.74.104-.21.237-.39.39-.55zm4.57-.15c-.007-.092-.04-.182-.098-.258-.474-.62-1.117-1.05-1.834-1.24h.04c.83 0 1.64.364 2.21.987-.09.18-.2.35-.32.51zm-9.546-.475c-.582-1.005-1.565-1.723-2.7-1.937-.24-.045-.48-.068-.72-.068-1.165 0-2.27.528-3.03 1.45-.11.133-.14.316-.084.48.48 1.38 1.64 2.4 3.036 2.663l.128.02c.246.115.506.2.777.252.21.038.42.058.62.058 1 0 1.95-.453 2.6-1.243.11-.132.14-.315.09-.478-.15-.45-.4-.855-.7-1.196zm-2.426 1.906c-.24-.04-.47-.12-.683-.24-.47-.24-.86-.65-1.095-1.14.46-.44 1.06-.69 1.69-.69.15 0 .3.02.45.04.502.1.96.35 1.31.72.186.2.345.42.464.68-.458.44-1.06.69-1.69.69-.15 0-.3-.01-.447-.04zm-3.12-2.04c.567-.57 1.33-.9 2.126-.9l.064.01c-.675.18-1.29.57-1.755 1.14-.076.09-.113.21-.11.32-.126-.17-.236-.36-.325-.55zm16.995-1.42c.153.16.367.25.587.25.174 0 .338-.05.48-.16.34-.25.4-.77.14-1.14l-.04-.05c-.135-.15-.345-.24-.57-.24-.18 0-.357.06-.495.16-.157.12-.26.29-.294.49-.03.22.02.45.15.64l.05.06zm.727-.53l-.08.14-.054.03-.11-.06.048-.04.187-.13.01.09zm-.21-.16l.075-.02.076.04-.1.11-.11.09c-.04-.06.01-.16.08-.2zm-1.76-.37c.09.14.237.22.394.22.1 0 .2-.03.28-.09.11-.08.18-.21.19-.35.01-.14-.042-.28-.14-.38l-.046-.04c-.162-.12-.4-.12-.564 0-.185.14-.24.4-.14.61l.03.05m-17.53-.13c-.138-.1-.313-.16-.494-.16-.226 0-.435.09-.574.24l-.04.05c-.26.38-.196.89.145 1.15.14.1.3.16.48.16.22 0 .44-.09.59-.25l.05-.06c.13-.18.19-.42.15-.63-.03-.2-.13-.37-.29-.48zm-.494.81l-.056-.02-.08-.13.013-.09.184.14.05.05-.11.07zM9 97.1l-.117-.086-.105-.11c.02-.025.08-.052.15-.004.052.04.11.133.07.2zm1.626-.5l.024-.03.04-.05c.06-.09.088-.2.08-.31-.01-.14-.076-.27-.184-.353-.08-.062-.18-.1-.282-.1-.124 0-.243.055-.33.14l-.023.03-.04.05c-.05.09-.08.194-.07.302.01.14.08.27.19.35.08.06.18.1.29.1.13 0 .25-.05.33-.14" fill="#fff"/><path d="M31.993 52.82c.055-.198-.02-.41-.182-.528-.63-.463-1.34-.77-2.1-.915.46-.237.89-.417 1.28-.513.2-.048.34-.218.36-.422.02-.206-.09-.4-.27-.49-.71-.344-1.48-.52-2.27-.52-.49 0-.99.07-1.5.204.73-.818 1.47-1.523 2.15-1.895.18-.09.28-.29.24-.5-.03-.2-.18-.36-.38-.4-.31-.06-.63-.09-.95-.09-.81 0-1.61.2-2.38.58.46-.81.95-1.52 1.45-1.97.15-.13.2-.35.12-.55-.07-.19-.26-.31-.46-.3-2.38.14-4.35 1.83-5.55 4.75-.68 1.67-1.67 3.9-2.71 5.23-1.04-1.32-2.02-3.55-2.71-5.22-1.2-2.92-3.17-4.6-5.55-4.74-.2-.01-.38.11-.46.3-.07.19-.02.41.13.55.5.46.99 1.16 1.45 1.98-.77-.37-1.57-.57-2.38-.57-.31 0-.63.03-.95.09-.2.04-.35.2-.38.4-.03.21.07.41.24.51.68.38 1.42 1.08 2.15 1.9-.5-.13-1.01-.2-1.5-.2-.79 0-1.56.18-2.27.52-.18.09-.29.29-.27.49.02.21.17.38.36.42.39.1.83.28 1.28.52-.76.15-1.46.457-2.1.92-.16.12-.23.33-.18.53.06.2.23.34.43.35.55.034 1.21.207 1.9.46l-1.45.247c-.16.03-.31.1-.43.205l-1.4-2.21c-.572-.91-1.76-1.16-2.64-.565-.43.295-.733.77-.83 1.3-.04.26.13.513.38.56.26.05.5-.13.548-.39.05-.274.2-.51.424-.66.446-.304 1.047-.175 1.34.286l1.76 2.77-.16.045-2.94-1.04c-.48-.17-1-.133-1.454.1-.46.23-.8.63-.97 1.13-.19.49-.15 1.05.1 1.53.085.16.248.26.417.26.076 0 .15-.02.22-.06.23-.123.32-.42.197-.654-.13-.25-.15-.53-.066-.79.084-.252.26-.46.49-.574.23-.12.495-.135.74-.05l1.744.62c-.65.25-1.246.53-1.52.82-.82.85-.82 2.22 0 3.07.393.41.92.64 1.482.64.56 0 1.09-.22 1.483-.63.07-.08.14-.17.21-.29v7.427c0 .27.21.48.47.48s.47-.217.47-.484v-5.43c1.05 2.514 3.47 4.28 6.284 4.28l.19-.02 2.6-.578 2.55 1.75c.15.11.34.16.52.16s.36-.06.52-.17L21.8 65l2.755.58.19.017c3.76 0 6.82-3.148 6.846-7.026l.32-3.66c.05-.5-.29-.96-.78-1.04l-1.44-.24c.69-.25 1.35-.43 1.9-.46.2-.01.37-.15.43-.35zm-2.282 5.634v.086c0 2.8-2.18 5.08-4.87 5.13l-3.05-.638c-.24-.05-.5 0-.71.147l-2.31 1.61-2.35-1.62c-.15-.11-.33-.17-.52-.17l-.19.02-2.89.63c-2.69-.06-4.87-2.34-4.87-5.13v-.09l-.24-2.81 3.38-.57.77-.13.76-.13.11-.02.13-.02 3.09 1.09 1.16.41.28.1.54.19.49.17c.19.07.4.07.6 0l.66-.23.48-.16.33-.12 1.12-.38.34-.11 1.13-.38 1.8-.61.13.02.11.02.758.13.764.13 3.377.577-.244 2.81zm-14.46-8.828c.42 1.003.8 1.877 1.17 2.635-.58-.72-1.14-1.48-1.61-2.13-.46-.65-.96-1.21-1.49-1.68-.53-1.12-1.03-2.01-1.5-2.69 1.43.56 2.63 1.89 3.44 3.88zm10.59-3.876c-.47.683-.97 1.567-1.5 2.69-.52.47-1.02 1.032-1.49 1.68-.47.66-1.02 1.414-1.61 2.14.37-.757.76-1.63 1.17-2.634.82-1.987 2.01-3.32 3.44-3.876zm2.1 5.566c-.83.09-1.68.342-2.56.75-.25.12-.5.25-.76.395l-.18.11c-.29.17-.61.35-.94.52.36-.28.73-.58 1.13-.91l.25-.2c.39-.3.78-.56 1.17-.78 1.16-.64 2.32-.9 3.39-.75-.45.23-.94.52-1.48.87zm-3.85.05l-.06.054-.8.655c-.36.293-.75.593-1.14.886l-.45.33c.4-.48.83-1.02 1.29-1.63.23-.3.46-.61.7-.95.18-.25.37-.48.56-.71.31-.35.63-.67.95-.95.86-.73 1.78-1.16 2.73-1.28-.71.63-1.5 1.52-2.41 2.7-.45.26-.89.57-1.33.93zm-10.59-1.38c.19.222.38.458.56.71.24.335.48.65.7.95.46.615.89 1.16 1.29 1.64l-.44-.326c-.39-.292-.78-.593-1.15-.886l-.8-.655-.06-.06c-.44-.36-.88-.67-1.33-.93-.91-1.18-1.7-2.07-2.41-2.69.95.12 1.86.55 2.72 1.28.33.27.64.59.95.95zm-.69 1.992l.25.198c.4.326.77.628 1.13.908l-.94-.52-.18-.103c-.25-.14-.51-.27-.76-.39-.87-.41-1.73-.66-2.56-.75-.53-.36-1.02-.64-1.47-.87 1.08-.15 2.23.12 3.39.76.39.22.79.48 1.17.78zm-3.4.282c.36.025.72.084 1.08.18.47.118.95.292 1.44.52l-.61.104-.64.11-.91.155c-.83-.39-1.55-.67-2.19-.86.46-.15.95-.23 1.46-.23l.39.01zm17.59.913l-.64-.11-.61-.103c.49-.23.97-.402 1.43-.52.37-.095.73-.155 1.08-.18l.39-.015c.51 0 1 .076 1.46.227-.63.186-1.35.47-2.18.856l-.91-.155zM4.8 58.94c-.22.227-.51.352-.823.352-.31 0-.605-.125-.824-.352-.452-.47-.452-1.23 0-1.7.27-.28 1.318-.67 2.337-.98l.19.066v.448c-.29.97-.63 1.91-.88 2.167zm19.52-1.788c-.187 0-.377.014-.563.04-1.213.18-2.273.93-2.88 2.006-.26.298-.47.642-.617 1.022-.063.16-.037.344.066.48.65.86 1.63 1.352 2.68 1.352.16 0 .325-.012.485-.035.32-.047.63-.14.91-.275 1.4-.212 2.59-1.18 3.12-2.533.06-.16.04-.35-.07-.48-.76-1.01-1.9-1.58-3.13-1.58zm-2.68 2.618c.38-.408.883-.683 1.44-.765l.352-.025c.656 0 1.294.28 1.76.763-.24.455-.61.822-1.05 1.056-.243.12-.506.21-.78.25-.776.11-1.568-.17-2.11-.74.104-.21.237-.39.39-.55zm4.57-.15c-.007-.092-.04-.182-.098-.258-.474-.62-1.117-1.05-1.834-1.24h.04c.83 0 1.64.364 2.21.987-.09.18-.2.35-.32.51zm-9.546-.475c-.582-1.005-1.565-1.723-2.7-1.937-.24-.045-.48-.068-.72-.068-1.165 0-2.27.528-3.03 1.45-.11.133-.14.316-.084.48.48 1.38 1.64 2.4 3.036 2.663l.128.02c.246.115.506.2.777.252.21.038.42.058.62.058 1 0 1.95-.453 2.6-1.243.11-.132.14-.315.09-.478-.15-.45-.4-.855-.7-1.196zm-2.43 1.905c-.24-.045-.47-.126-.68-.24-.47-.248-.86-.65-1.095-1.148.45-.442 1.06-.69 1.69-.69.14 0 .3.013.44.04.5.096.96.352 1.31.718.19.195.35.42.46.672-.46.442-1.06.692-1.69.692-.15 0-.3-.014-.45-.042zm-3.12-2.042c.57-.575 1.33-.9 2.13-.9l.064.003c-.677.18-1.293.57-1.757 1.14-.07.09-.11.21-.11.32-.12-.17-.23-.36-.32-.55zm16.998-1.423c.153.158.367.25.587.25.17 0 .33-.054.47-.16.34-.255.4-.768.14-1.143l-.04-.05c-.13-.153-.34-.24-.57-.24-.18 0-.35.057-.49.16-.16.117-.26.29-.3.488-.04.215.02.447.14.634l.05.062zm.727-.532l-.08.135-.06.023-.11-.06.04-.04.18-.13.01.09zm-.22-.163l.08-.026.07.035-.11.11-.12.08c-.05-.07.01-.16.07-.21zm-1.76-.375c.09.136.24.218.4.218.1 0 .2-.034.28-.097.11-.084.18-.214.19-.354.01-.14-.05-.28-.14-.38l-.05-.042c-.17-.127-.4-.128-.57-.002-.19.14-.24.398-.14.608l.03.05M9.34 56.4c-.134-.104-.31-.16-.49-.16-.226 0-.435.087-.574.24l-.04.05c-.26.374-.2.887.142 1.146.14.102.3.155.48.155.22 0 .437-.09.59-.25l.05-.06c.13-.18.183-.42.148-.63-.03-.2-.13-.37-.29-.48zm-.49.808l-.056-.023-.08-.135.013-.09.18.136.05.047-.11.066zm.15-.116l-.117-.087-.105-.11c.02-.026.08-.053.15-.005.056.043.11.138.07.2zm1.626-.503l.02-.03.04-.05c.06-.09.088-.2.08-.31-.01-.14-.076-.27-.184-.36-.08-.07-.18-.1-.282-.1-.124 0-.243.05-.33.14l-.023.02-.04.05c-.056.09-.084.19-.077.3.008.14.076.27.184.35.08.06.18.1.28.1.12 0 .24-.05.33-.14" fill="#67737B"/><path d="M31.993 12.82c.055-.198-.02-.41-.182-.528-.63-.463-1.34-.77-2.1-.915.46-.237.89-.417 1.28-.513.2-.048.34-.218.36-.422.02-.206-.09-.4-.27-.49-.71-.344-1.48-.52-2.27-.52-.49 0-.99.07-1.5.204.73-.818 1.47-1.523 2.15-1.895.18-.09.28-.29.24-.5-.03-.2-.18-.36-.38-.4-.31-.06-.63-.09-.95-.09-.81 0-1.61.2-2.38.58.46-.81.95-1.52 1.45-1.97.15-.13.2-.35.12-.55-.07-.19-.26-.31-.46-.3-2.38.14-4.35 1.83-5.55 4.75-.68 1.67-1.67 3.9-2.71 5.23-1.04-1.32-2.02-3.55-2.71-5.22-1.2-2.92-3.17-4.6-5.55-4.74-.2-.01-.38.11-.46.3-.07.19-.02.41.13.55.5.46.99 1.16 1.45 1.98-.77-.37-1.57-.57-2.38-.57-.31 0-.63.03-.95.09-.2.04-.35.2-.38.4-.03.21.07.41.24.51.68.38 1.42 1.08 2.15 1.9-.5-.13-1.01-.2-1.5-.2-.79 0-1.56.18-2.27.52-.18.09-.29.29-.27.49.02.21.17.38.36.42.39.1.83.28 1.28.52-.76.15-1.46.457-2.1.92-.16.12-.23.33-.18.53.06.2.23.34.43.35.55.034 1.21.207 1.9.46l-1.45.247c-.16.03-.31.1-.43.205l-1.4-2.21c-.572-.91-1.76-1.16-2.64-.565-.43.295-.733.77-.83 1.3-.04.26.13.513.38.56.26.05.5-.13.548-.39.05-.274.2-.51.424-.66.446-.304 1.047-.175 1.34.286l1.76 2.77-.16.045-2.94-1.04c-.48-.17-1-.133-1.454.1-.46.23-.8.63-.97 1.13-.19.49-.15 1.05.1 1.53.085.16.248.26.417.26.076 0 .15-.02.22-.06.23-.123.32-.42.197-.654-.13-.25-.15-.53-.066-.79.084-.252.26-.46.49-.574.23-.12.495-.135.74-.05l1.744.62c-.65.25-1.246.53-1.52.82-.82.85-.82 2.22 0 3.07.393.41.92.64 1.482.64.56 0 1.09-.22 1.483-.63.07-.08.14-.17.21-.29v7.427c0 .27.21.48.47.48s.47-.217.47-.484v-5.43c1.05 2.514 3.47 4.28 6.284 4.28l.19-.02 2.6-.578 2.55 1.75c.15.11.34.16.52.16s.36-.06.52-.17L21.8 25l2.755.58.19.017c3.76 0 6.82-3.148 6.846-7.026l.32-3.66c.05-.5-.29-.96-.78-1.04l-1.44-.24c.69-.25 1.35-.43 1.9-.46.2-.01.37-.15.43-.35zm-2.282 5.634v.086c0 2.8-2.18 5.08-4.87 5.13l-3.05-.638c-.24-.05-.5 0-.71.147l-2.31 1.61-2.35-1.62c-.15-.11-.33-.17-.52-.17l-.19.02-2.89.63c-2.69-.06-4.87-2.34-4.87-5.13v-.09l-.24-2.81 3.38-.57.77-.13.76-.13.11-.02.13-.02 3.09 1.09 1.16.41.28.1.54.19.49.17c.19.07.4.07.6 0l.66-.23.48-.16.33-.12 1.12-.38.34-.11 1.13-.38 1.8-.61.13.02.11.02.758.13.764.13 3.377.577-.244 2.81zM15.25 9.626c.412 1.003.8 1.877 1.168 2.635-.587-.72-1.142-1.48-1.613-2.13-.464-.65-.965-1.21-1.49-1.68-.535-1.12-1.03-2.01-1.507-2.69 1.428.56 2.624 1.89 3.44 3.88zM25.84 5.75c-.476.683-.97 1.567-1.505 2.69-.526.47-1.026 1.032-1.49 1.68-.47.66-1.026 1.414-1.615 2.14.37-.757.756-1.63 1.17-2.634.817-1.987 2.012-3.32 3.44-3.876zm2.095 5.566c-.83.09-1.687.342-2.562.75-.252.12-.506.25-.762.395l-.18.11c-.29.17-.61.35-.94.52.36-.28.73-.58 1.13-.91l.25-.2c.39-.3.78-.56 1.17-.78 1.16-.64 2.32-.9 3.39-.75-.45.23-.94.52-1.47.87zm-3.852.05l-.066.054-.803.655c-.365.293-.752.593-1.147.886l-.448.33c.4-.48.83-1.02 1.28-1.63.22-.3.45-.61.69-.95.18-.25.36-.48.55-.71.31-.35.62-.67.95-.95.86-.73 1.77-1.16 2.72-1.28-.71.63-1.5 1.52-2.41 2.7-.45.26-.89.57-1.33.93zM13.49 9.986c.188.222.374.458.554.71.24.335.477.65.7.95.46.615.887 1.16 1.29 1.64l-.45-.326c-.395-.292-.783-.593-1.15-.886l-.803-.655-.06-.06c-.44-.36-.88-.67-1.32-.93-.91-1.18-1.7-2.07-2.41-2.69.95.12 1.86.55 2.72 1.28.33.27.64.59.95.95zm-.697 1.992l.248.198c.4.326.77.628 1.13.908l-.94-.52-.18-.103c-.25-.14-.51-.27-.76-.39-.87-.41-1.73-.66-2.56-.75-.54-.36-1.03-.64-1.47-.87 1.08-.15 2.23.12 3.39.76.39.22.78.48 1.17.78zm-3.4.282c.354.025.715.084 1.08.18.47.118.947.292 1.433.52l-.61.104-.64.11-.913.155c-.83-.39-1.56-.67-2.19-.86.453-.15.94-.23 1.45-.23l.385.01zm17.597.913l-.64-.11-.61-.103c.485-.23.963-.402 1.43-.52.367-.095.728-.155 1.082-.18l.383-.015c.512 0 .997.076 1.453.227-.634.186-1.357.47-2.188.856l-.91-.155zM4.793 18.94c-.22.227-.512.352-.823.352-.31 0-.604-.125-.823-.352-.453-.47-.453-1.23 0-1.7.27-.28 1.317-.67 2.336-.98l.187.066v.448c-.288.97-.63 1.91-.877 2.167zm19.52-1.788c-.187 0-.377.014-.563.04-1.212.18-2.272.93-2.88 2.006-.257.298-.467.642-.616 1.022-.063.16-.037.344.066.48.653.86 1.63 1.352 2.683 1.352.16 0 .323-.012.483-.035.32-.047.625-.14.912-.275 1.393-.212 2.584-1.18 3.112-2.533.063-.16.038-.35-.066-.48-.76-1.01-1.903-1.58-3.13-1.58zm-2.68 2.618c.38-.408.883-.683 1.438-.765l.36-.025c.66 0 1.3.28 1.76.763-.24.455-.61.822-1.05 1.056-.24.12-.5.21-.78.25-.77.11-1.56-.17-2.11-.74.11-.21.24-.39.39-.55zm4.57-.15c-.007-.092-.04-.182-.098-.258-.472-.62-1.115-1.05-1.832-1.24h.04c.83 0 1.64.364 2.21.987-.09.18-.2.35-.32.51zm-9.546-.475c-.583-1.005-1.566-1.723-2.7-1.937-.24-.045-.48-.068-.72-.068-1.166 0-2.27.528-3.03 1.45-.11.133-.142.316-.085.48.478 1.38 1.64 2.4 3.034 2.663l.128.02c.246.115.506.2.777.252.21.038.42.058.62.058 1 0 1.95-.453 2.6-1.243.11-.132.14-.315.09-.478-.15-.45-.4-.855-.7-1.196zM14.23 21.05c-.24-.045-.47-.126-.682-.24-.47-.248-.858-.65-1.095-1.148.457-.442 1.06-.69 1.69-.69.148 0 .3.013.447.04.504.096.96.352 1.31.718.188.195.347.42.466.672-.457.442-1.06.692-1.69.692-.148 0-.298-.014-.446-.042zm-3.12-2.042c.568-.575 1.33-.9 2.127-.9l.065.003c-.677.18-1.293.57-1.757 1.14-.075.09-.112.21-.11.32-.125-.17-.235-.36-.324-.55zm16.996-1.423c.153.158.367.25.587.25.172 0 .336-.054.478-.16.34-.255.4-.768.14-1.143l-.04-.05c-.13-.153-.34-.24-.57-.24-.18 0-.35.057-.49.16-.15.117-.26.29-.29.488-.03.215.02.447.15.634l.05.062zm.727-.532l-.08.135-.056.023-.11-.06.047-.04.186-.13.013.09zm-.212-.163l.08-.026.08.035-.1.11-.11.08c-.04-.07.01-.16.08-.21zm-1.76-.375c.09.136.24.218.4.218.1 0 .2-.034.28-.097.11-.084.18-.214.19-.354.01-.14-.04-.28-.14-.38l-.04-.042c-.16-.127-.4-.128-.56-.002-.18.14-.24.398-.14.608l.03.05M9.35 16.4c-.14-.104-.315-.16-.496-.16-.224 0-.433.087-.572.24l-.04.05c-.26.374-.2.887.14 1.146.14.102.3.155.47.155.22 0 .436-.09.59-.25l.05-.06c.13-.18.183-.42.15-.63-.03-.2-.13-.37-.29-.48zm-.496.808l-.054-.023-.08-.135.013-.09.184.136.05.047-.11.066zm.15-.116l-.115-.087-.11-.11c.02-.026.08-.053.15-.005.06.043.11.138.07.2zm1.628-.503l.02-.03.04-.05c.06-.09.09-.2.08-.31-.01-.14-.08-.27-.188-.36-.08-.07-.18-.1-.283-.1-.12 0-.24.05-.33.14l-.02.02-.04.05c-.05.09-.08.19-.07.3.01.14.08.27.19.35.08.06.18.1.28.1.13 0 .25-.05.33-.14" fill="#3A434E"/></g></svg>