<svg width="32" height="232" viewBox="0 0 32 232" xmlns="http://www.w3.org/2000/svg"><g fill="none">
			<path id="XMLID_1204_" fill="#3A444F" d="M28.5,25.5h-14c0-0.6,0-1.2,0-1.9c0.2,0,0.4-0.1,0.7-0.1c0.6,0,0.9,0.1,1.3,0.3
				c0.4,0.2,0.8,0.3,1.7,0.3c0.8,0,1.3-0.2,1.7-0.3c0.3-0.1,0.6-0.3,1.3-0.3c0.6,0,0.9,0.1,1.3,0.3c0.4,0.2,0.8,0.3,1.7,0.3
				c0.8,0,1.3-0.2,1.7-0.3c0.3-0.1,0.6-0.3,1.3-0.3c0.3,0,0.5-0.2,0.5-0.5c0-0.3-0.2-0.5-0.5-0.5c-0.8,0-1.3,0.2-1.7,0.3
				C24.9,22.9,24.6,23,24,23c-0.6,0-0.9-0.1-1.3-0.3c-0.4-0.2-0.8-0.3-1.7-0.3c-0.8,0-1.3,0.2-1.7,0.3c-0.3,0.1-0.6,0.3-1.3,0.3
				c-0.6,0-0.9-0.1-1.3-0.3c-0.4-0.2-0.8-0.3-1.7-0.3c-0.2,0-0.4,0-0.6,0c0-0.4,0.1-0.8,0.1-1.2c0.6-5,2.6-8.8,5.8-11.1
				c0.1,0.5,0.1,1.1-0.1,1.6c-0.2,0.7-0.8,1.2-1.4,1.5c-0.3,0.1-0.4,0.4-0.3,0.7c0.1,0.2,0.3,0.3,0.5,0.3c0.1,0,0.1,0,0.2,0
				c0.9-0.4,1.6-1.2,2-2.1c0.2-0.7,0.3-1.4,0.2-2c1.1,0.6,1.7,1.8,1.6,3.1c0,0.3,0.2,0.6,0.5,0.6c0,0,0,0,0.1,0
				c0.3,0,0.5-0.2,0.5-0.5c0.2-1.7-0.7-3.3-2.1-4.1c0.3-0.1,0.7-0.1,1.1,0c0.8,0.1,1.5,0.5,1.9,1.1c0.1,0.1,0.3,0.2,0.4,0.2
				c0.1,0,0.2,0,0.3-0.1c0.2-0.2,0.3-0.5,0.1-0.7c-0.7-0.8-1.6-1.4-2.6-1.5c-0.4-0.1-0.7-0.1-1,0c0.1-0.3,0.2-0.7,0.2-1
				c0.1-1-0.2-2.1-0.9-2.9c-0.2-0.2-0.5-0.3-0.7-0.1c-0.2,0.2-0.3,0.5-0.1,0.7c0.5,0.6,0.7,1.4,0.6,2.2c0,0.4-0.1,0.7-0.3,1
				c-0.4-1.6-1.8-2.8-3.5-3c-0.3,0-0.6,0.2-0.6,0.5c0,0.3,0.2,0.6,0.5,0.6c1.3,0.1,2.3,1.1,2.6,2.3c-0.6-0.3-1.3-0.4-2-0.3
				c-1,0.1-1.9,0.6-2.6,1.4c-0.2,0.2-0.1,0.6,0.1,0.7c0.1,0.1,0.2,0.1,0.3,0.1c0.2,0,0.3-0.1,0.4-0.2c0.5-0.6,1.1-0.9,1.8-1
				c0.5-0.1,1,0,1.5,0.3c-3.5,2-6,5.9-7.3,11.3c-0.2,0.9-0.4,1.7-0.5,2.5c-0.4,0-0.7-0.1-0.9-0.2c-0.2-0.1-0.3-0.1-0.5-0.2l-0.8-16
				c0.7,0.2,1.3,0.6,1.8,1.1c0.6,0.7,0.8,1.5,0.7,2.4c0,0.3,0.2,0.6,0.5,0.6c0,0,0,0,0.1,0c0.3,0,0.5-0.2,0.5-0.5
				c0.1-1.1-0.2-2.3-1-3.1c-0.5-0.6-1.2-1.1-2-1.4c1.3-0.8,3-0.8,4.2,0.1c0.2,0.2,0.6,0.1,0.7-0.1c0.2-0.2,0.1-0.6-0.1-0.7
				c-1.6-1.2-3.8-1.3-5.4-0.2c0.3-1.3,1.5-2.4,3-2.6c0.3,0,0.5-0.3,0.5-0.6c0-0.3-0.3-0.5-0.6-0.5c-1.7,0.2-3.1,1.3-3.7,2.8
				C8.6,3.5,8.3,3.1,7.9,2.9C7,2.2,5.8,1.9,4.6,2c-0.3,0-0.5,0.3-0.5,0.6c0,0.3,0.3,0.5,0.6,0.5C5.7,3,6.6,3.2,7.3,3.7
				c0.4,0.3,0.7,0.7,1,1.1c-1.8-0.6-3.9,0-5.2,1.6C2.9,6.6,3,7,3.2,7.1c0.1,0.1,0.2,0.1,0.3,0.1C3.7,7.3,3.9,7.2,4,7
				c0.9-1.2,2.6-1.7,4-1.2C7.3,6.3,6.7,6.9,6.4,7.7c-0.5,1-0.5,2.2-0.1,3.3c0.1,0.2,0.3,0.3,0.5,0.3c0.1,0,0.1,0,0.2,0
				c0.3-0.1,0.4-0.4,0.3-0.7C6.9,9.8,7,8.9,7.3,8.2C7.6,7.6,8,7.1,8.6,6.7L7.9,22.6c-0.1,0-0.2,0.1-0.3,0.1C7.3,22.9,7,23,6.4,23
				c-0.3,0-0.5,0.2-0.5,0.5c0,0.3,0.2,0.5,0.5,0.5c0.7,0,1.1-0.1,1.5-0.3l-0.1,1.7H6.2c-0.3,0-0.5,0.2-0.5,0.5
				c0,0.3,0.2,0.5,0.5,0.5h2.1h1.8h0h1.4c-0.1,1.3-0.1,2.1-0.1,2.1c0,0,0,0,0,0c0,0,0,0,0,0.1c0,0,0,0,0,0.1c0,0,0,0,0,0
				c0,0,0,0,0,0c0,0,0,0,0,0c0,0,0,0,0,0c0,0,0,0,0,0c0,0,0,0,0,0c0,0,0,0,0,0c0,0,0,0,0.1,0c0,0,0,0,0,0c0,0,0,0,0.1,0c0,0,0,0,0,0
				c0,0,0.1,0,0.1,0h2.2h7.1c0.3,0,0.5-0.2,0.5-0.5c0-0.3-0.2-0.5-0.5-0.5h-6.7c0-0.3-0.1-0.9-0.1-1.6h13.9c0.3,0,0.5-0.2,0.5-0.5
				C29,25.7,28.8,25.5,28.5,25.5z M13.6,28.1h-1.1c0-0.4,0-0.9,0.1-1.6c0-0.3,0-0.7,0.1-1.1c0-0.4,0.1-0.9,0.2-1.4
				c0-0.4,0.1-0.7,0.2-1.1c0.1-0.7,0.3-1.4,0.4-2.2c0.2-0.9,0.5-1.7,0.7-2.4c-0.2,0.9-0.4,1.8-0.5,2.8c-0.1,0.6-0.1,1.1-0.2,1.7
				c0,0.4,0,0.8-0.1,1.1c0,0.6,0,1.1,0,1.6c0,0.4,0,0.7,0,1.1C13.5,27.2,13.6,27.7,13.6,28.1z M8.9,23.5l0-1.1l0.2-4.8l0.2,4.8
				l0,1.1l0.1,2H8.8L8.9,23.5z M10.6,25.5l-0.1-1.8c0,0,0,0,0,0c0.3,0.1,0.6,0.3,1.2,0.3c-0.1,0.5-0.1,1-0.2,1.4H10.6z"/>
			<path id="XMLID_1203_" fill="#3A444F" d="M22.3,17.2c0.2,0,0.4-0.1,0.5-0.3c0,0,0,0,0,0c0.2-0.1,0.3-0.2,0.5-0.2
				c0.3,0,0.5,0.1,0.8,0.2c0.2,0.2,0.6,0.2,0.7-0.1c0.2-0.2,0.2-0.6-0.1-0.7c-0.4-0.4-1-0.5-1.5-0.5c-0.4,0-0.7,0.2-1,0.3
				c-0.3-0.2-0.6-0.3-1-0.3c-0.6,0-1.1,0.1-1.5,0.5c-0.2,0.2-0.3,0.5-0.1,0.7c0.2,0.2,0.5,0.3,0.7,0.1c0.4-0.3,0.9-0.3,1.3,0
				c0,0,0,0,0,0C21.9,17,22.1,17.2,22.3,17.2L22.3,17.2z"/>
			<path id="XMLID_1202_" fill="#3A444F" d="M20,18.3c-0.5-0.3-1.2-0.3-1.7,0.2C18,18.7,18,19,18.2,19.2c0.2,0.2,0.5,0.3,0.7,0.1
				c0.2-0.1,0.4-0.1,0.6,0c0.1,0.2,0.3,0.3,0.5,0.3h0c0.2,0,0.4-0.1,0.5-0.3c0.2-0.1,0.4-0.1,0.6,0c0.2,0.2,0.6,0.2,0.7-0.1
				c0.2-0.2,0.2-0.6-0.1-0.7C21.2,18.1,20.5,18,20,18.3z"/>
		</g>
		<g id="XMLID_1344_">
			<path id="XMLID_1347_" fill="#67737C" d="M28.5,65.5h-14c0-0.6,0-1.2,0-1.9c0.2,0,0.4-0.1,0.7-0.1c0.6,0,0.9,0.1,1.3,0.3
				c0.4,0.2,0.8,0.3,1.7,0.3c0.8,0,1.3-0.2,1.7-0.3c0.3-0.1,0.6-0.3,1.3-0.3c0.6,0,0.9,0.1,1.3,0.3c0.4,0.2,0.8,0.3,1.7,0.3
				c0.8,0,1.3-0.2,1.7-0.3c0.3-0.1,0.6-0.3,1.3-0.3c0.3,0,0.5-0.2,0.5-0.5c0-0.3-0.2-0.5-0.5-0.5c-0.8,0-1.3,0.2-1.7,0.3
				C24.9,62.9,24.6,63,24,63c-0.6,0-0.9-0.1-1.3-0.3c-0.4-0.2-0.8-0.3-1.7-0.3c-0.8,0-1.3,0.2-1.7,0.3c-0.3,0.1-0.6,0.3-1.3,0.3
				c-0.6,0-0.9-0.1-1.3-0.3c-0.4-0.2-0.8-0.3-1.7-0.3c-0.2,0-0.4,0-0.6,0c0-0.4,0.1-0.8,0.1-1.2c0.6-5,2.6-8.8,5.8-11.1
				c0.1,0.5,0.1,1.1-0.1,1.6c-0.2,0.7-0.8,1.2-1.4,1.5c-0.3,0.1-0.4,0.4-0.3,0.7c0.1,0.2,0.3,0.3,0.5,0.3c0.1,0,0.1,0,0.2,0
				c0.9-0.4,1.6-1.2,2-2.1c0.2-0.7,0.3-1.4,0.2-2c1.1,0.6,1.7,1.8,1.6,3.1c0,0.3,0.2,0.6,0.5,0.6c0,0,0,0,0.1,0
				c0.3,0,0.5-0.2,0.5-0.5c0.2-1.7-0.7-3.3-2.1-4.1c0.3-0.1,0.7-0.1,1.1,0c0.8,0.1,1.5,0.5,1.9,1.1c0.1,0.1,0.3,0.2,0.4,0.2
				c0.1,0,0.2,0,0.3-0.1c0.2-0.2,0.3-0.5,0.1-0.7c-0.7-0.8-1.6-1.4-2.6-1.5c-0.4-0.1-0.7-0.1-1,0c0.1-0.3,0.2-0.7,0.2-1
				c0.1-1-0.2-2.1-0.9-2.9c-0.2-0.2-0.5-0.3-0.7-0.1c-0.2,0.2-0.3,0.5-0.1,0.7c0.5,0.6,0.7,1.4,0.6,2.2c0,0.4-0.1,0.7-0.3,1
				c-0.4-1.6-1.8-2.8-3.5-3c-0.3,0-0.6,0.2-0.6,0.5c0,0.3,0.2,0.6,0.5,0.6c1.3,0.1,2.3,1.1,2.6,2.3c-0.6-0.3-1.3-0.4-2-0.3
				c-1,0.1-1.9,0.6-2.6,1.4c-0.2,0.2-0.1,0.6,0.1,0.7c0.1,0.1,0.2,0.1,0.3,0.1c0.2,0,0.3-0.1,0.4-0.2c0.5-0.6,1.1-0.9,1.8-1
				c0.5-0.1,1,0,1.5,0.3c-3.5,2-6,5.9-7.3,11.3c-0.2,0.9-0.4,1.7-0.5,2.5c-0.4,0-0.7-0.1-0.9-0.2c-0.2-0.1-0.3-0.1-0.5-0.2l-0.8-16
				c0.7,0.2,1.3,0.6,1.8,1.1c0.6,0.7,0.8,1.5,0.7,2.4c0,0.3,0.2,0.6,0.5,0.6c0,0,0,0,0.1,0c0.3,0,0.5-0.2,0.5-0.5
				c0.1-1.1-0.2-2.3-1-3.1c-0.5-0.6-1.2-1.1-2-1.4c1.3-0.8,3-0.8,4.2,0.1c0.2,0.2,0.6,0.1,0.7-0.1c0.2-0.2,0.1-0.6-0.1-0.7
				c-1.6-1.2-3.8-1.3-5.4-0.2c0.3-1.3,1.5-2.4,3-2.6c0.3,0,0.5-0.3,0.5-0.6c0-0.3-0.3-0.5-0.6-0.5c-1.7,0.2-3.1,1.3-3.7,2.8
				c-0.3-0.3-0.6-0.7-0.9-0.9c-1-0.7-2.1-1-3.3-0.9c-0.3,0-0.5,0.3-0.5,0.6c0,0.3,0.3,0.5,0.6,0.5c0.9-0.1,1.8,0.1,2.6,0.7
				c0.4,0.3,0.7,0.7,1,1.1c-1.8-0.6-3.9,0-5.2,1.6C2.9,46.6,3,47,3.2,47.1c0.1,0.1,0.2,0.1,0.3,0.1c0.2,0,0.3-0.1,0.4-0.2
				c0.9-1.2,2.6-1.7,4-1.2c-0.7,0.5-1.3,1.1-1.6,1.9c-0.5,1-0.5,2.2-0.1,3.3c0.1,0.2,0.3,0.3,0.5,0.3c0.1,0,0.1,0,0.2,0
				c0.3-0.1,0.4-0.4,0.3-0.7c-0.3-0.8-0.3-1.7,0.1-2.5c0.3-0.6,0.7-1.1,1.3-1.4L7.9,62.6c-0.1,0-0.2,0.1-0.3,0.1
				C7.3,62.9,7,63,6.4,63c-0.3,0-0.5,0.2-0.5,0.5c0,0.3,0.2,0.5,0.5,0.5c0.7,0,1.1-0.1,1.5-0.3l-0.1,1.7H6.2c-0.3,0-0.5,0.2-0.5,0.5
				s0.2,0.5,0.5,0.5h2.1h1.8h0h1.4c-0.1,1.3-0.1,2.1-0.1,2.1c0,0,0,0,0,0c0,0,0,0,0,0.1c0,0,0,0,0,0.1c0,0,0,0,0,0c0,0,0,0,0,0
				c0,0,0,0,0,0c0,0,0,0,0,0c0,0,0,0,0,0c0,0,0,0,0,0c0,0,0,0,0,0c0,0,0,0,0.1,0c0,0,0,0,0,0c0,0,0,0,0.1,0c0,0,0,0,0,0
				c0,0,0.1,0,0.1,0h2.2h7.1c0.3,0,0.5-0.2,0.5-0.5c0-0.3-0.2-0.5-0.5-0.5h-6.7c0-0.3-0.1-0.9-0.1-1.6h13.9c0.3,0,0.5-0.2,0.5-0.5
				S28.8,65.5,28.5,65.5z M13.6,68.1h-1.1c0-0.4,0-0.9,0.1-1.6c0-0.3,0-0.7,0.1-1.1c0-0.4,0.1-0.9,0.2-1.4c0-0.4,0.1-0.7,0.2-1.1
				c0.1-0.7,0.3-1.4,0.4-2.2c0.2-0.9,0.5-1.7,0.7-2.4c-0.2,0.9-0.4,1.8-0.5,2.8c-0.1,0.6-0.1,1.1-0.2,1.7c0,0.4,0,0.8-0.1,1.1
				c0,0.6,0,1.1,0,1.6c0,0.4,0,0.7,0,1.1C13.5,67.2,13.6,67.7,13.6,68.1z M8.9,63.5l0-1.1l0.2-4.8l0.2,4.8l0,1.1l0.1,2H8.8L8.9,63.5
				z M10.6,65.5l-0.1-1.8c0,0,0,0,0,0c0.3,0.1,0.6,0.3,1.2,0.3c-0.1,0.5-0.1,1-0.2,1.4H10.6z"/>
			<path id="XMLID_1346_" fill="#67737C" d="M22.3,57.2c0.2,0,0.4-0.1,0.5-0.3c0,0,0,0,0,0c0.2-0.1,0.3-0.2,0.5-0.2
				c0.3,0,0.5,0.1,0.8,0.2c0.2,0.2,0.6,0.2,0.7-0.1c0.2-0.2,0.2-0.6-0.1-0.7c-0.4-0.4-1-0.5-1.5-0.5c-0.4,0-0.7,0.2-1,0.3
				c-0.3-0.2-0.6-0.3-1-0.3c-0.6,0-1.1,0.1-1.5,0.5c-0.2,0.2-0.3,0.5-0.1,0.7c0.2,0.2,0.5,0.3,0.7,0.1c0.4-0.3,0.9-0.3,1.3,0
				c0,0,0,0,0,0C21.9,57,22.1,57.2,22.3,57.2L22.3,57.2z"/>
			<path id="XMLID_1345_" fill="#67737C" d="M20,58.3c-0.5-0.3-1.2-0.3-1.7,0.2C18,58.7,18,59,18.2,59.2c0.2,0.2,0.5,0.3,0.7,0.1
				c0.2-0.1,0.4-0.1,0.6,0c0.1,0.2,0.3,0.3,0.5,0.3h0c0.2,0,0.4-0.1,0.5-0.3c0.2-0.1,0.4-0.1,0.6,0c0.2,0.2,0.6,0.2,0.7-0.1
				c0.2-0.2,0.2-0.6-0.1-0.7C21.2,58.1,20.5,58,20,58.3z"/>
		</g>
		<g id="XMLID_1538_">
			<path id="XMLID_1541_" fill="#FFFFFF" d="M28.5,105.5h-14c0-0.6,0-1.2,0-1.9c0.2,0,0.4-0.1,0.7-0.1c0.6,0,0.9,0.1,1.3,0.3
				c0.4,0.2,0.8,0.3,1.7,0.3c0.8,0,1.3-0.2,1.7-0.3c0.3-0.1,0.6-0.3,1.3-0.3c0.6,0,0.9,0.1,1.3,0.3c0.4,0.2,0.8,0.3,1.7,0.3
				c0.8,0,1.3-0.2,1.7-0.3c0.3-0.1,0.6-0.3,1.3-0.3c0.3,0,0.5-0.2,0.5-0.5c0-0.3-0.2-0.5-0.5-0.5c-0.8,0-1.3,0.2-1.7,0.3
				c-0.3,0.1-0.6,0.3-1.3,0.3c-0.6,0-0.9-0.1-1.3-0.3c-0.4-0.2-0.8-0.3-1.7-0.3c-0.8,0-1.3,0.2-1.7,0.3c-0.3,0.1-0.6,0.3-1.3,0.3
				c-0.6,0-0.9-0.1-1.3-0.3c-0.4-0.2-0.8-0.3-1.7-0.3c-0.2,0-0.4,0-0.6,0c0-0.4,0.1-0.8,0.1-1.2c0.6-5,2.6-8.8,5.8-11.1
				c0.1,0.5,0.1,1.1-0.1,1.6c-0.2,0.7-0.8,1.2-1.4,1.5c-0.3,0.1-0.4,0.4-0.3,0.7c0.1,0.2,0.3,0.3,0.5,0.3c0.1,0,0.1,0,0.2,0
				c0.9-0.4,1.6-1.2,2-2.1c0.2-0.7,0.3-1.4,0.2-2c1.1,0.6,1.7,1.8,1.6,3.1c0,0.3,0.2,0.6,0.5,0.6c0,0,0,0,0.1,0
				c0.3,0,0.5-0.2,0.5-0.5c0.2-1.7-0.7-3.3-2.1-4.1c0.3-0.1,0.7-0.1,1.1,0c0.8,0.1,1.5,0.5,1.9,1.1c0.1,0.1,0.3,0.2,0.4,0.2
				c0.1,0,0.2,0,0.3-0.1c0.2-0.2,0.3-0.5,0.1-0.7c-0.7-0.8-1.6-1.4-2.6-1.5c-0.4-0.1-0.7-0.1-1,0c0.1-0.3,0.2-0.7,0.2-1
				c0.1-1-0.2-2.1-0.9-2.9c-0.2-0.2-0.5-0.3-0.7-0.1c-0.2,0.2-0.3,0.5-0.1,0.7c0.5,0.6,0.7,1.4,0.6,2.2c0,0.4-0.1,0.7-0.3,1
				c-0.4-1.6-1.8-2.8-3.5-3c-0.3,0-0.6,0.2-0.6,0.5c0,0.3,0.2,0.6,0.5,0.6c1.3,0.1,2.3,1.1,2.6,2.3c-0.6-0.3-1.3-0.4-2-0.3
				c-1,0.1-1.9,0.6-2.6,1.4c-0.2,0.2-0.1,0.6,0.1,0.7c0.1,0.1,0.2,0.1,0.3,0.1c0.2,0,0.3-0.1,0.4-0.2c0.5-0.6,1.1-0.9,1.8-1
				c0.5-0.1,1,0,1.5,0.3c-3.5,2-6,5.9-7.3,11.3c-0.2,0.9-0.4,1.7-0.5,2.5c-0.4,0-0.7-0.1-0.9-0.2c-0.2-0.1-0.3-0.1-0.5-0.2l-0.8-16
				c0.7,0.2,1.3,0.6,1.8,1.1c0.6,0.7,0.8,1.5,0.7,2.4c0,0.3,0.2,0.6,0.5,0.6c0,0,0,0,0.1,0c0.3,0,0.5-0.2,0.5-0.5
				c0.1-1.1-0.2-2.3-1-3.1c-0.5-0.6-1.2-1.1-2-1.4c1.3-0.8,3-0.8,4.2,0.1c0.2,0.2,0.6,0.1,0.7-0.1c0.2-0.2,0.1-0.6-0.1-0.7
				c-1.6-1.2-3.8-1.3-5.4-0.2c0.3-1.3,1.5-2.4,3-2.6c0.3,0,0.5-0.3,0.5-0.6c0-0.3-0.3-0.5-0.6-0.5c-1.7,0.2-3.1,1.3-3.7,2.8
				c-0.3-0.3-0.6-0.7-0.9-0.9c-1-0.7-2.1-1-3.3-0.9c-0.3,0-0.5,0.3-0.5,0.6c0,0.3,0.3,0.5,0.6,0.5c0.9-0.1,1.8,0.1,2.6,0.7
				c0.4,0.3,0.7,0.7,1,1.1c-1.8-0.6-3.9,0-5.2,1.6C2.9,86.6,3,87,3.2,87.1c0.1,0.1,0.2,0.1,0.3,0.1c0.2,0,0.3-0.1,0.4-0.2
				c0.9-1.2,2.6-1.7,4-1.2c-0.7,0.5-1.3,1.1-1.6,1.9c-0.5,1-0.5,2.2-0.1,3.3c0.1,0.2,0.3,0.3,0.5,0.3c0.1,0,0.1,0,0.2,0
				c0.3-0.1,0.4-0.4,0.3-0.7c-0.3-0.8-0.3-1.7,0.1-2.5c0.3-0.6,0.7-1.1,1.3-1.4l-0.7,15.9c-0.1,0-0.2,0.1-0.3,0.1
				C7.3,102.9,7,103,6.4,103c-0.3,0-0.5,0.2-0.5,0.5c0,0.3,0.2,0.5,0.5,0.5c0.7,0,1.1-0.1,1.5-0.3l-0.1,1.7H6.2
				c-0.3,0-0.5,0.2-0.5,0.5s0.2,0.5,0.5,0.5h2.1h1.8h0h1.4c-0.1,1.3-0.1,2.1-0.1,2.1c0,0,0,0,0,0c0,0,0,0,0,0.1c0,0,0,0,0,0.1
				c0,0,0,0,0,0c0,0,0,0,0,0c0,0,0,0,0,0c0,0,0,0,0,0c0,0,0,0,0,0c0,0,0,0,0,0c0,0,0,0,0,0c0,0,0,0,0.1,0c0,0,0,0,0,0c0,0,0,0,0.1,0
				c0,0,0,0,0,0c0,0,0.1,0,0.1,0h2.2h7.1c0.3,0,0.5-0.2,0.5-0.5c0-0.3-0.2-0.5-0.5-0.5h-6.7c0-0.3-0.1-0.9-0.1-1.6h13.9
				c0.3,0,0.5-0.2,0.5-0.5S28.8,105.5,28.5,105.5z M13.6,108.1h-1.1c0-0.4,0-0.9,0.1-1.6c0-0.3,0-0.7,0.1-1.1c0-0.4,0.1-0.9,0.2-1.4
				c0-0.4,0.1-0.7,0.2-1.1c0.1-0.7,0.3-1.4,0.4-2.2c0.2-0.9,0.5-1.7,0.7-2.4c-0.2,0.9-0.4,1.8-0.5,2.8c-0.1,0.6-0.1,1.1-0.2,1.7
				c0,0.4,0,0.8-0.1,1.1c0,0.6,0,1.1,0,1.6c0,0.4,0,0.7,0,1.1C13.5,107.2,13.6,107.7,13.6,108.1z M8.9,103.5l0-1.1l0.2-4.8l0.2,4.8
				l0,1.1l0.1,2H8.8L8.9,103.5z M10.6,105.5l-0.1-1.8c0,0,0,0,0,0c0.3,0.1,0.6,0.3,1.2,0.3c-0.1,0.5-0.1,1-0.2,1.4H10.6z"/>
			<path id="XMLID_1540_" fill="#FFFFFF" d="M22.3,97.2c0.2,0,0.4-0.1,0.5-0.3c0,0,0,0,0,0c0.2-0.1,0.3-0.2,0.5-0.2
				c0.3,0,0.5,0.1,0.8,0.2c0.2,0.2,0.6,0.2,0.7-0.1c0.2-0.2,0.2-0.6-0.1-0.7c-0.4-0.4-1-0.5-1.5-0.5c-0.4,0-0.7,0.2-1,0.3
				c-0.3-0.2-0.6-0.3-1-0.3c-0.6,0-1.1,0.1-1.5,0.5c-0.2,0.2-0.3,0.5-0.1,0.7c0.2,0.2,0.5,0.3,0.7,0.1c0.4-0.3,0.9-0.3,1.3,0
				c0,0,0,0,0,0C21.9,97,22.1,97.2,22.3,97.2L22.3,97.2z"/>
			<path id="XMLID_1539_" fill="#FFFFFF" d="M20,98.3c-0.5-0.3-1.2-0.3-1.7,0.2C18,98.7,18,99,18.2,99.2c0.2,0.2,0.5,0.3,0.7,0.1
				c0.2-0.1,0.4-0.1,0.6,0c0.1,0.2,0.3,0.3,0.5,0.3h0c0.2,0,0.4-0.1,0.5-0.3c0.2-0.1,0.4-0.1,0.6,0c0.2,0.2,0.6,0.2,0.7-0.1
				c0.2-0.2,0.2-0.6-0.1-0.7C21.2,98.1,20.5,98,20,98.3z"/>
		</g>
		<g id="XMLID_1706_">
			<path id="XMLID_1709_" fill="#1D70AD" d="M28.5,145.5h-14c0-0.6,0-1.2,0-1.9c0.2,0,0.4-0.1,0.7-0.1c0.6,0,0.9,0.1,1.3,0.3
				c0.4,0.2,0.8,0.3,1.7,0.3c0.8,0,1.3-0.2,1.7-0.3c0.3-0.1,0.6-0.3,1.3-0.3c0.6,0,0.9,0.1,1.3,0.3c0.4,0.2,0.8,0.3,1.7,0.3
				c0.8,0,1.3-0.2,1.7-0.3c0.3-0.1,0.6-0.3,1.3-0.3c0.3,0,0.5-0.2,0.5-0.5c0-0.3-0.2-0.5-0.5-0.5c-0.8,0-1.3,0.2-1.7,0.3
				c-0.3,0.1-0.6,0.3-1.3,0.3c-0.6,0-0.9-0.1-1.3-0.3c-0.4-0.2-0.8-0.3-1.7-0.3c-0.8,0-1.3,0.2-1.7,0.3c-0.3,0.1-0.6,0.3-1.3,0.3
				c-0.6,0-0.9-0.1-1.3-0.3c-0.4-0.2-0.8-0.3-1.7-0.3c-0.2,0-0.4,0-0.6,0c0-0.4,0.1-0.8,0.1-1.2c0.6-5,2.6-8.8,5.8-11.1
				c0.1,0.5,0.1,1.1-0.1,1.6c-0.2,0.7-0.8,1.2-1.4,1.5c-0.3,0.1-0.4,0.4-0.3,0.7c0.1,0.2,0.3,0.3,0.5,0.3c0.1,0,0.1,0,0.2,0
				c0.9-0.4,1.6-1.2,2-2.1c0.2-0.7,0.3-1.4,0.2-2c1.1,0.6,1.7,1.8,1.6,3.1c0,0.3,0.2,0.6,0.5,0.6c0,0,0,0,0.1,0
				c0.3,0,0.5-0.2,0.5-0.5c0.2-1.7-0.7-3.3-2.1-4.1c0.3-0.1,0.7-0.1,1.1,0c0.8,0.1,1.5,0.5,1.9,1.1c0.1,0.1,0.3,0.2,0.4,0.2
				c0.1,0,0.2,0,0.3-0.1c0.2-0.2,0.3-0.5,0.1-0.7c-0.7-0.8-1.6-1.4-2.6-1.5c-0.4-0.1-0.7-0.1-1,0c0.1-0.3,0.2-0.7,0.2-1
				c0.1-1-0.2-2.1-0.9-2.9c-0.2-0.2-0.5-0.3-0.7-0.1c-0.2,0.2-0.3,0.5-0.1,0.7c0.5,0.6,0.7,1.4,0.6,2.2c0,0.4-0.1,0.7-0.3,1
				c-0.4-1.6-1.8-2.8-3.5-3c-0.3,0-0.6,0.2-0.6,0.5c0,0.3,0.2,0.6,0.5,0.6c1.3,0.1,2.3,1.1,2.6,2.3c-0.6-0.3-1.3-0.4-2-0.3
				c-1,0.1-1.9,0.6-2.6,1.4c-0.2,0.2-0.1,0.6,0.1,0.7c0.1,0.1,0.2,0.1,0.3,0.1c0.2,0,0.3-0.1,0.4-0.2c0.5-0.6,1.1-0.9,1.8-1
				c0.5-0.1,1,0,1.5,0.3c-3.5,2-6,5.9-7.3,11.3c-0.2,0.9-0.4,1.7-0.5,2.5c-0.4,0-0.7-0.1-0.9-0.2c-0.2-0.1-0.3-0.1-0.5-0.2l-0.8-16
				c0.7,0.2,1.3,0.6,1.8,1.1c0.6,0.7,0.8,1.5,0.7,2.4c0,0.3,0.2,0.6,0.5,0.6c0,0,0,0,0.1,0c0.3,0,0.5-0.2,0.5-0.5
				c0.1-1.1-0.2-2.3-1-3.1c-0.5-0.6-1.2-1.1-2-1.4c1.3-0.8,3-0.8,4.2,0.1c0.2,0.2,0.6,0.1,0.7-0.1c0.2-0.2,0.1-0.6-0.1-0.7
				c-1.6-1.2-3.8-1.3-5.4-0.2c0.3-1.3,1.5-2.4,3-2.6c0.3,0,0.5-0.3,0.5-0.6c0-0.3-0.3-0.5-0.6-0.5c-1.7,0.2-3.1,1.3-3.7,2.8
				c-0.3-0.3-0.6-0.7-0.9-0.9c-1-0.7-2.1-1-3.3-0.9c-0.3,0-0.5,0.3-0.5,0.6c0,0.3,0.3,0.5,0.6,0.5c0.9-0.1,1.8,0.1,2.6,0.7
				c0.4,0.3,0.7,0.7,1,1.1c-1.8-0.6-3.9,0-5.2,1.6c-0.2,0.2-0.1,0.6,0.1,0.7c0.1,0.1,0.2,0.1,0.3,0.1c0.2,0,0.3-0.1,0.4-0.2
				c0.9-1.2,2.6-1.7,4-1.2c-0.7,0.5-1.3,1.1-1.6,1.9c-0.5,1-0.5,2.2-0.1,3.3c0.1,0.2,0.3,0.3,0.5,0.3c0.1,0,0.1,0,0.2,0
				c0.3-0.1,0.4-0.4,0.3-0.7c-0.3-0.8-0.3-1.7,0.1-2.5c0.3-0.6,0.7-1.1,1.3-1.4l-0.7,15.9c-0.1,0-0.2,0.1-0.3,0.1
				C7.3,142.9,7,143,6.4,143c-0.3,0-0.5,0.2-0.5,0.5c0,0.3,0.2,0.5,0.5,0.5c0.7,0,1.1-0.1,1.5-0.3l-0.1,1.7H6.2
				c-0.3,0-0.5,0.2-0.5,0.5c0,0.3,0.2,0.5,0.5,0.5h2.1h1.8h0h1.4c-0.1,1.3-0.1,2.1-0.1,2.1c0,0,0,0,0,0c0,0,0,0,0,0.1c0,0,0,0,0,0.1
				c0,0,0,0,0,0c0,0,0,0,0,0c0,0,0,0,0,0c0,0,0,0,0,0c0,0,0,0,0,0c0,0,0,0,0,0c0,0,0,0,0,0c0,0,0,0,0.1,0c0,0,0,0,0,0c0,0,0,0,0.1,0
				c0,0,0,0,0,0c0,0,0.1,0,0.1,0h2.2h7.1c0.3,0,0.5-0.2,0.5-0.5c0-0.3-0.2-0.5-0.5-0.5h-6.7c0-0.3-0.1-0.9-0.1-1.6h13.9
				c0.3,0,0.5-0.2,0.5-0.5C29,145.7,28.8,145.5,28.5,145.5z M13.6,148.1h-1.1c0-0.4,0-0.9,0.1-1.6c0-0.3,0-0.7,0.1-1.1
				c0-0.4,0.1-0.9,0.2-1.4c0-0.4,0.1-0.7,0.2-1.1c0.1-0.7,0.3-1.4,0.4-2.2c0.2-0.9,0.5-1.7,0.7-2.4c-0.2,0.9-0.4,1.8-0.5,2.8
				c-0.1,0.6-0.1,1.1-0.2,1.7c0,0.4,0,0.8-0.1,1.1c0,0.6,0,1.1,0,1.6c0,0.4,0,0.7,0,1.1C13.5,147.2,13.6,147.7,13.6,148.1z
				 M8.9,143.5l0-1.1l0.2-4.8l0.2,4.8l0,1.1l0.1,2H8.8L8.9,143.5z M10.6,145.5l-0.1-1.8c0,0,0,0,0,0c0.3,0.1,0.6,0.3,1.2,0.3
				c-0.1,0.5-0.1,1-0.2,1.4H10.6z"/>
			<path id="XMLID_1708_" fill="#1D70AD" d="M22.3,137.2c0.2,0,0.4-0.1,0.5-0.3c0,0,0,0,0,0c0.2-0.1,0.3-0.2,0.5-0.2
				c0.3,0,0.5,0.1,0.8,0.2c0.2,0.2,0.6,0.2,0.7-0.1c0.2-0.2,0.2-0.6-0.1-0.7c-0.4-0.4-1-0.5-1.5-0.5c-0.4,0-0.7,0.2-1,0.3
				c-0.3-0.2-0.6-0.3-1-0.3c-0.6,0-1.1,0.1-1.5,0.5c-0.2,0.2-0.3,0.5-0.1,0.7c0.2,0.2,0.5,0.3,0.7,0.1c0.4-0.3,0.9-0.3,1.3,0
				c0,0,0,0,0,0C21.9,137,22.1,137.2,22.3,137.2L22.3,137.2z"/>
			<path id="XMLID_1707_" fill="#1D70AD" d="M20,138.3c-0.5-0.3-1.2-0.3-1.7,0.2c-0.2,0.2-0.3,0.5-0.1,0.7c0.2,0.2,0.5,0.3,0.7,0.1
				c0.2-0.1,0.4-0.1,0.6,0c0.1,0.2,0.3,0.3,0.5,0.3h0c0.2,0,0.4-0.1,0.5-0.3c0.2-0.1,0.4-0.1,0.6,0c0.2,0.2,0.6,0.2,0.7-0.1
				c0.2-0.2,0.2-0.6-0.1-0.7C21.2,138.1,20.5,138,20,138.3z"/>
		</g>
</svg>
