<svg width="32" height="232" viewBox="0 0 32 232" xmlns="http://www.w3.org/2000/svg"><g fill="none"><path d="M18.238 121.37c.095.094.226.147.36.147.136 0 .265-.053.36-.147.155-.153.193-.387.095-.58-.075-.148-.217-.248-.38-.272-.156-.023-.32.03-.433.14-.156.153-.195.39-.095.583l.093.13zm-4.843 1.602l.422.228.23.417c.09.16.26.26.446.26s.356-.1.445-.26l.23-.417.423-.228c.17-.088.27-.257.27-.44s-.1-.352-.26-.44l-.42-.228-.23-.417c-.09-.16-.26-.26-.44-.26s-.35.1-.44.26l-.23.417-.42.228c-.16.088-.26.257-.26.44s.1.352.27.44zm17.59 26.392h-.297v-5.575h.004c.28 0 .508-.23.508-.51s-.227-.5-.508-.5h-.004v-4.35h.004c.28 0 .508-.23.508-.5s-.227-.5-.508-.5h-.004v-1.26c0-.28-.227-.5-.508-.5h-5.76v-1.04h.15c.28 0 .51-.23.51-.5s-.228-.5-.51-.5h-.285c-.14-.24-.38-.42-.665-.48l-.364-1.12c-.068-.21-.263-.35-.483-.35h-5.12c-.205-.66-.823-1.13-1.552-1.13s-1.34.48-1.55 1.13H9.67c-.22 0-.416.14-.483.35l-.364 1.11c-.284.06-.524.23-.665.48h-.286c-.28 0-.508.22-.508.5 0 .27.227.5.508.5h.15v1.03h-2.6v-4.14h.2c.28 0 .51-.23.51-.5s-.228-.5-.51-.5H5.43l-.183-.96h25.14c.28 0 .508-.23.508-.5s-.227-.5-.508-.5h-.172l-.11-.13-1.46-1.17-.728-1.63-.02-.04c-.225-.4-.555-.9-.852-1.06-.157-.1-1.025-.82-1.773-1.46-.12-.11-.285-.15-.442-.12l-1.496.33-.19.08-1.242.89-1.263-.33c-.2-.057-.42.02-.54.18l-1.21 1.6-.94.67h-.8c-.09 0-.18.024-.26.07l-.84.49h-2.37l-.81-.42-.29-.65c-.11-.24-.38-.356-.63-.27l-2.27.77-1.37-.26-1.41-.72c-.15-.077-.33-.075-.48.006l-1.81.987-1.07-5.6c-.05-.233-.26-.404-.5-.404s-.45.17-.5.405l-1.44 7.7-.32.104H.64c-.28 0-.507.223-.507.5s.227.5.508.5H.9l-.183.957H.52c-.28 0-.508.224-.508.5s.227.502.508.502h.2v6.81h-.2c-.28 0-.508.222-.508.5s.227.5.508.5h.2v10.325c-.17.18-.275.42-.275.69 0 .56.455 1.01 1.015 1.01h29.528c.56 0 1.015-.45 1.015-1s-.45-1-1.01-1zM3.07 136.582h.772v-2.722c-.02-.405-.358-.728-.773-.728-.42 0-.76.323-.78.728v2.722h.77zm-1.144-6.998l.065-.34.04-.162v-.01l.1-.49.01-.02.95-4.956 1.04 5.45.01.026.28 1.46H1.75l.183-.958zm2.973-2.186l.11-.045 1.69-.92 1.23.63.14.047 1.56.296c.08.017.17.01.26-.018l1.95-.66.17.387c.04.104.13.19.23.242l1.07.56c.07.037.15.056.23.056h2.63c.09 0 .18-.024.26-.07l.84-.49h.82c.1 0 .21-.032.29-.094l1.13-.81.11-.11 1.05-1.39 1.17.3c.14.04.3.01.43-.08l1.35-.98 1.14-.25c.61.52 1.48 1.25 1.73 1.4.09.07.3.38.46.66l.77 1.72c.03.07.08.13.14.18l.73.59H5.05l-.224-1.17.064-.02zm-3.17 4.146h2.68v6.81H1.73v-6.81zm8.32 4.135v-.54h3.31v5.21h-3.31v-4.68zm-.16-2.54l.14-.44h4.44v.94H9.73l.164-.5zm5.59-.97c0-.19.09-.36.23-.47.1-.08.23-.13.37-.13s.27.05.37.13c.14.11.23.28.23.47v.03l.03.15v1.55h-1.25v-1.74zm7.21 1.47h-4.95v-.94h4.65l.3.94zm6.96 15.72h-.74v-4.78h-1.35v4.77h-1.01v-4.78H25.2v4.77h-.8v-5.59h3.747l.116.01h1.385v5.57zm-8.8-2.92c-.42 0-.76.32-.78.73v2.19h-1.02v-2.09l.01-.11c0-1.01.83-1.84 1.86-1.84.58 0 1.1.26 1.44.68v3.35h-.75v-2.19c-.02-.41-.36-.73-.78-.73zm-14.88-1.86v4.77h-.56v-5.59h2.6v5.59h-.68v-4.78H5.98zm-.57-5.23h.2c.28 0 .51-.23.51-.51 0-.19-.11-.35-.26-.43H8v4.34h-.68v-2.98H5.98v2.98h-.56v-3.42zm8.95-.94v-3.28h3.69v5.21h-3.69v-1.93zm1.84 8.02c-.42 0-.76.32-.78.72v2.19h-1.07v-2.41c.1-.92.89-1.63 1.84-1.63.95 0 1.73.71 1.84 1.63v2.41h-1.07v-2.19c-.02-.41-.36-.73-.78-.73zm-4.66 0c-.42 0-.75.32-.77.72v2.19h-.75V146c.34-.423.86-.695 1.45-.695.97 0 1.76.74 1.85 1.674l-.01.16.01.11v2.09H12.3v-2.19c-.02-.4-.357-.73-.772-.73zm-1.52-2.28c.12-.16.27-.29.44-.4.29-.19.63-.3 1.01-.3.37 0 .71.11 1 .29.42.27.73.7.82 1.2-.497-.41-1.13-.65-1.82-.65-.53 0-1.028.14-1.45.39v-.55zm5.16-.4c.29-.19.64-.3 1.01-.3s.71.11 1 .29c.42.27.72.7.82 1.2-.5-.41-1.14-.65-1.83-.65-.697 0-1.33.24-1.83.65.09-.51.394-.94.814-1.21zm4.73 0c.29-.19.64-.3 1.01-.3s.71.11 1 .29c.16.1.31.23.43.38v.56c-.42-.24-.91-.38-1.44-.38-.69 0-1.33.24-1.82.65.09-.51.39-.94.81-1.21zm2.45-1v.08l-.17-.09c-.39-.19-.82-.3-1.28-.3-.46 0-.89.1-1.28.29-.22.1-.42.23-.6.39v-1.81h3.31v1.41zm-4.33-1.42v1.78c-.18-.15-.37-.27-.57-.37-.39-.19-.82-.3-1.28-.3-.46 0-.89.1-1.28.29-.21.1-.4.22-.57.37v-1.79h3.69zm-4.71 1.41v.38c-.18-.15-.37-.28-.58-.38-.39-.19-.82-.3-1.28-.3-.46 0-.89.11-1.277.29l-.18.09v-1.51h3.31v1.415zm16.31 0h-.74v-2.98h-1.35v2.98h-1.01v-2.98H25.2v2.98h-.8v-4.34h3.75l.12.01h1.384v4.33zm-5.25-6.09h5.25v.74H24.4v-.74zm-2.03-1v4.67h-3.31v-5.21h3.31v.53zm-16.97 1H8v.74H5.42v-.74zm-2.86 2.67H4.4v10h-.56v-2.19c-.01-.22-.11-.41-.266-.54-.14-.12-.32-.19-.51-.19s-.37.07-.51.19c-.158.13-.26.32-.27.53v2.19h-.56v-10h.83zm13.96-2.68c-.096-.03-.197-.05-.3-.05-.104 0-.205.02-.3.04-.364.1-.65.38-.754.74-.03.09-.045.19-.045.3l.02.2c.04.19.12.36.24.5.204.23.504.38.84.38.34 0 .64-.15.84-.388.12-.14.203-.31.24-.5l.02-.2c0-.107-.02-.208-.047-.3-.11-.36-.39-.64-.757-.74zm-4.078 1.74v-2.25h-1.5v3.14h1.544v-.9zm9.01 0v-2.25H19.9v3.14h1.545v-.9" fill="#206FAC"/><path d="M18.238 81.37c.095.094.226.147.36.147.136 0 .265-.053.36-.147.155-.153.193-.387.095-.58-.075-.148-.217-.248-.38-.272-.156-.023-.32.03-.433.14-.156.153-.195.39-.095.583l.093.13zm-4.843 1.602l.422.228.23.417c.09.16.26.26.446.26s.356-.1.445-.26l.23-.417.423-.228c.17-.088.27-.257.27-.44s-.1-.352-.26-.44l-.42-.228-.23-.417c-.09-.16-.26-.26-.44-.26s-.35.1-.44.26l-.23.417-.42.228c-.16.088-.26.257-.26.44s.1.352.27.44zm17.59 26.392h-.297v-5.575h.004c.28 0 .508-.23.508-.51s-.227-.5-.508-.5h-.004v-4.34h.004c.28 0 .508-.23.508-.51s-.227-.5-.508-.5h-.004v-1.25c0-.28-.227-.5-.508-.5h-5.76v-1.04h.15c.28 0 .51-.23.51-.5s-.228-.51-.51-.51h-.285c-.14-.24-.38-.42-.665-.48l-.364-1.12c-.068-.21-.263-.35-.483-.35h-5.12c-.205-.66-.823-1.13-1.552-1.13s-1.34.47-1.55 1.13H9.67c-.22 0-.416.14-.483.35l-.364 1.11c-.284.06-.524.24-.665.48h-.286c-.28 0-.508.22-.508.5 0 .27.227.5.508.5h.15v1.03h-2.6v-4.13h.2c.28 0 .51-.23.51-.5s-.228-.5-.51-.5H5.43l-.183-.96h25.14c.28 0 .508-.23.508-.5s-.227-.5-.508-.5h-.172l-.11-.13-1.46-1.17-.728-1.63-.02-.04c-.225-.4-.555-.91-.852-1.07-.157-.1-1.025-.82-1.773-1.46-.12-.11-.285-.15-.442-.11l-1.496.32-.19.08-1.242.9-1.263-.33c-.2-.05-.42.02-.54.18l-1.21 1.6-.94.67h-.8c-.09 0-.18.024-.26.07l-.84.49h-2.37l-.81-.42-.29-.65c-.11-.238-.38-.356-.63-.27l-2.25.77-1.37-.26-1.41-.72c-.15-.077-.33-.075-.48.01l-1.81.984-1.07-5.6c-.04-.237-.25-.408-.5-.408s-.45.17-.49.41L1.1 88.47l-.316.103H.64c-.28 0-.507.223-.507.5s.22.5.5.5H.9l-.184.958H.518c-.28 0-.508.23-.508.5s.227.51.508.51h.2v6.81h-.2c-.28 0-.508.23-.508.5s.227.5.508.5h.2v10.32c-.17.18-.275.42-.275.69 0 .56.455 1.01 1.015 1.01h29.528c.56 0 1.015-.45 1.015-1s-.45-1-1.01-1zM3.07 96.582h.772V93.86c-.02-.405-.358-.728-.773-.728-.42 0-.76.323-.78.728v2.722h.77zm-1.144-6.998l.065-.34.04-.162v-.01l.1-.49.01-.02.95-4.956 1.04 5.45.01.026.28 1.46H1.75l.183-.958zM4.9 87.398l.11-.045 1.693-.92 1.228.63.14.047 1.57.296c.09.017.18.01.26-.018l1.95-.66.18.387c.05.104.13.19.23.242l1.08.56c.08.037.16.056.24.056h2.63c.09 0 .18-.024.26-.07l.84-.49h.82c.11 0 .21-.032.3-.094l1.14-.81.11-.11 1.05-1.39 1.17.3c.15.04.31.01.43-.08l1.35-.98 1.14-.25c.62.52 1.49 1.25 1.74 1.4.09.07.3.38.47.66l.77 1.72c.04.07.09.13.15.18l.74.59H5.06l-.223-1.16.066-.02zm-3.17 4.146h2.68v6.81H1.73v-6.81zm8.32 4.135v-.54h3.31v5.21h-3.31v-4.67zm-.154-2.54l.143-.44h4.43v.94H9.73l.164-.5zm5.597-.97c0-.19.09-.36.232-.47.103-.08.234-.13.376-.13s.28.05.38.13c.14.11.23.28.23.47l.01.03.03.15v1.55H15.5v-1.73zm7.216 1.47h-4.95v-.94h4.64l.3.94zm6.96 15.72h-.74v-4.78h-1.35v4.77h-1.01v-4.78h-1.35v4.77h-.8v-5.59h3.75l.11.01h1.38v5.57zm-8.8-2.92c-.42 0-.76.32-.78.73v2.19h-1.02v-2.09l.01-.11c0-1.01.83-1.84 1.85-1.84.58 0 1.1.26 1.44.68v3.35h-.75v-2.19c-.02-.41-.36-.73-.78-.73zm-14.89-1.85v4.77h-.56v-5.59h2.6v5.59h-.69v-4.78H5.98zm-.57-5.23h.2c.28 0 .51-.23.51-.51 0-.19-.1-.35-.26-.43h2.15v4.34h-.68v-2.98H5.98v2.98h-.56v-3.41zm8.95-.94v-3.28h3.69v5.21h-3.69v-1.93zm1.84 8.02c-.42 0-.76.32-.78.73v2.19h-1.07v-2.41c.1-.92.89-1.63 1.84-1.63.95 0 1.73.71 1.84 1.62v2.41h-1.07v-2.19c-.02-.41-.36-.73-.78-.73zm-4.65 0c-.42 0-.76.32-.78.73v2.19h-.75v-3.34c.34-.43.86-.7 1.45-.7.97 0 1.76.74 1.85 1.67l-.01.16.01.11v2.09H12.3v-2.19c-.017-.41-.356-.73-.77-.73zm-1.52-2.28c.12-.16.27-.29.44-.4.29-.19.63-.3 1.01-.3.37 0 .71.11 1 .29.42.27.72.7.82 1.2-.5-.41-1.14-.65-1.83-.65-.53 0-1.03.14-1.45.39v-.55zm5.16-.4c.29-.19.64-.3 1.01-.3s.72.11 1.01.29c.42.27.72.7.81 1.2-.5-.41-1.14-.65-1.83-.65s-1.33.24-1.82.65c.09-.51.39-.94.81-1.21zm4.73 0c.29-.19.64-.3 1.01-.3s.72.11 1.01.29c.16.1.31.23.43.38v.56c-.43-.24-.92-.38-1.44-.38-.7 0-1.33.24-1.83.65.09-.51.4-.94.82-1.21zm2.45-1.01v.09l-.17-.09c-.39-.19-.82-.3-1.28-.3-.46 0-.89.1-1.28.29-.22.1-.42.23-.6.39v-1.81h3.31v1.41zm-4.33-1.42v1.78c-.18-.15-.37-.27-.57-.37-.39-.19-.82-.3-1.28-.3-.46 0-.89.1-1.28.29-.21.1-.4.23-.57.37v-1.78h3.69zm-4.71 1.41v.38c-.18-.15-.37-.28-.58-.38-.39-.19-.82-.3-1.28-.3-.46 0-.89.1-1.28.29l-.18.094v-1.51h3.31v1.412zm16.31 0h-.74v-2.98h-1.35v2.98h-1.01v-2.98H25.2v2.98h-.8V98.4h3.75l.116.015h1.387v4.33zm-5.25-6.09h5.25v.74H24.4v-.74zm-2.04-1v4.67h-3.31v-5.2h3.31v.53zm-16.97 1H8v.74H5.42v-.74zm-2.85 2.69H4.4v10h-.56v-2.19c-.01-.22-.11-.41-.264-.54-.14-.12-.32-.19-.51-.19s-.37.07-.51.19c-.16.13-.26.32-.27.54v2.18h-.56v-10h.83zm13.97-2.68c-.1-.03-.2-.04-.3-.04-.11 0-.21.01-.3.04-.37.1-.65.38-.76.74-.028.092-.044.2-.044.3l.02.2c.04.19.12.36.24.5.21.235.51.384.84.384.34 0 .64-.15.84-.39.12-.14.2-.31.24-.5l.02-.2c0-.106-.02-.207-.05-.3-.1-.36-.39-.64-.75-.74zm-4.08 1.74v-2.24H10.9v3.14h1.545V98.4zm9.01 0v-2.24H19.9v3.14h1.546V98.4" fill="#fff"/><path d="M18.238 41.37c.095.094.226.147.36.147.136 0 .265-.053.36-.147.155-.153.193-.387.095-.58-.075-.148-.217-.248-.38-.272-.156-.023-.32.03-.433.14-.156.153-.195.39-.095.583l.093.13zm-4.843 1.602l.422.228.23.417c.09.16.26.26.446.26s.356-.1.445-.26l.23-.417.423-.228c.17-.088.27-.257.27-.44s-.1-.352-.26-.44l-.42-.228-.23-.417c-.09-.16-.26-.26-.44-.26s-.35.1-.44.26l-.23.417-.42.228c-.16.088-.26.257-.26.44s.1.352.27.44zm17.59 26.392h-.297V63.79h.004c.28 0 .508-.226.508-.502 0-.277-.227-.502-.508-.502h-.004V58.44h.004c.28 0 .508-.225.508-.502s-.227-.5-.508-.5h-.004V56.18c0-.276-.227-.5-.508-.5h-5.76v-1.035h.15c.28 0 .51-.224.51-.5s-.228-.502-.51-.502h-.285c-.14-.24-.38-.42-.665-.48l-.364-1.114c-.068-.21-.263-.35-.483-.35h-5.12c-.205-.66-.823-1.13-1.552-1.13s-1.34.47-1.55 1.13H9.67c-.22 0-.416.14-.483.35l-.364 1.11c-.284.06-.524.24-.665.48h-.286c-.28 0-.508.22-.508.5 0 .27.227.5.508.5h.15v1.03h-2.6v-4.13h.2c.28 0 .51-.23.51-.5s-.228-.5-.51-.5H5.43l-.183-.96h25.14c.28 0 .508-.23.508-.5s-.227-.5-.508-.5h-.172l-.11-.13-1.46-1.17-.728-1.63-.02-.04c-.225-.4-.555-.91-.852-1.07-.157-.1-1.025-.82-1.773-1.46-.12-.11-.285-.15-.442-.11l-1.496.32-.19.08-1.242.9-1.263-.33c-.2-.05-.42.02-.54.18l-1.21 1.6-.94.67h-.8c-.09 0-.18.02-.26.07l-.84.49h-2.37l-.81-.42-.29-.65c-.11-.24-.38-.36-.63-.27l-2.25.77-1.37-.26-1.41-.72c-.15-.08-.33-.08-.48 0l-1.81.98-1.07-5.6c-.04-.24-.25-.41-.5-.41s-.45.17-.49.41L1.1 48.47l-.313.103H.64c-.28 0-.507.225-.507.5s.22.503.5.503H.9l-.184.957H.518c-.28 0-.508.226-.508.5s.227.504.508.504h.2v6.81h-.2c-.28 0-.508.226-.508.503s.227.5.508.5h.2v10.33c-.17.18-.275.42-.275.685 0 .554.455 1.003 1.015 1.003h29.528c.56 0 1.015-.45 1.015-1.003 0-.554-.45-1.003-1.01-1.003zM3.07 56.582h.772V53.86c-.02-.405-.358-.728-.773-.728-.42 0-.76.323-.78.728v2.722h.77zm-1.144-6.998l.065-.34.04-.162v-.01l.1-.49.01-.02.95-4.956 1.04 5.45.01.026.28 1.46H1.75l.183-.958zM4.9 47.398l.11-.045 1.693-.92 1.228.63.14.047 1.57.296c.09.017.18.01.26-.018l1.95-.66.18.387c.05.104.13.19.23.242l1.08.56c.08.037.16.056.24.056h2.63c.09 0 .18-.024.26-.07l.84-.49h.82c.11 0 .21-.032.3-.094l1.14-.81.11-.11 1.05-1.39 1.17.3c.15.04.31.01.43-.08l1.35-.98 1.14-.25c.62.52 1.49 1.25 1.74 1.4.09.07.3.38.47.66l.77 1.72c.04.07.09.13.15.18l.74.59H5.06l-.223-1.16.066-.02zm-3.17 4.146h2.68v6.81H1.73v-6.81zm8.32 4.135v-.54h3.31v5.21h-3.31v-4.67zm-.154-2.54l.143-.44h4.43v.94H9.73l.164-.5zm5.597-.97c0-.19.09-.36.232-.47.103-.08.234-.13.376-.13s.28.05.38.13c.14.11.23.28.23.47l.01.03.03.15v1.55H15.5v-1.73zm7.216 1.47h-4.95v-.94h4.64l.3.94zm6.96 15.72h-.74v-4.77h-1.35v4.77h-1.01v-4.77h-1.35v4.77h-.8v-5.59h3.75l.11.01h1.38v5.57zm-8.8-2.92c-.42 0-.76.32-.78.73v2.19h-1.02v-2.08l.01-.11c0-1.01.83-1.84 1.85-1.84.58 0 1.1.26 1.44.67v3.35h-.75v-2.18c-.02-.41-.36-.73-.78-.73zM5.98 64.59v4.774h-.56v-5.59h2.6v5.59h-.684V64.59h-1.35zm-.565-5.23h.2c.28 0 .51-.225.51-.502 0-.185-.1-.344-.254-.43h2.15v4.346h-.68v-2.98H5.99v2.98h-.564V59.36zm8.953-.934v-3.28h3.69v5.208h-3.69v-1.928zm1.846 8.022c-.416 0-.755.323-.774.728v2.188h-1.07V66.96c.106-.913.892-1.625 1.844-1.625.95 0 1.736.712 1.842 1.626v2.41h-1.07v-2.19c-.02-.4-.36-.73-.774-.73zm-4.65 0c-.418 0-.757.323-.776.728v2.188h-.745V66.03c.34-.422.866-.694 1.454-.694.97 0 1.766.738 1.85 1.675l-.007.16.01.11v2.09h-1.02v-2.19c-.016-.4-.355-.73-.77-.73zm-1.52-2.275c.124-.155.274-.29.443-.398.29-.186.636-.296 1.01-.296.37 0 .716.11 1.006.29.42.27.726.7.82 1.2-.497-.41-1.133-.65-1.825-.65-.53 0-1.025.14-1.452.39v-.55zm5.16-.398c.29-.186.638-.296 1.01-.296.373 0 .72.11 1.01.29.42.27.722.7.816 1.2-.497-.41-1.133-.65-1.825-.65s-1.33.24-1.824.65c.1-.51.4-.94.82-1.21zm4.73 0c.29-.186.638-.296 1.01-.296.373 0 .72.11 1.01.29.162.1.31.23.43.38v.56c-.424-.24-.915-.38-1.44-.38-.693 0-1.33.24-1.825.65.09-.51.4-.94.82-1.21zm2.45-1.003v.087l-.163-.09c-.38-.19-.81-.3-1.27-.3-.45 0-.89.1-1.27.29-.21.1-.41.23-.59.39v-1.8h3.31v1.41zm-4.324-1.416v1.784c-.174-.144-.364-.268-.57-.368-.384-.19-.817-.296-1.275-.296-.457 0-.89.107-1.275.296-.205.1-.395.224-.57.368v-1.784h3.69zm-4.704 1.416v.38c-.175-.15-.37-.277-.58-.38-.385-.19-.82-.296-1.276-.296-.458 0-.89.107-1.276.296l-.175.095v-1.51h3.31v1.415zm16.314 0h-.738v-2.98h-1.35v2.98H26.57v-2.98h-1.35v2.98h-.8v-4.347h3.748l.117.014h1.386v4.33zm-5.25-6.09h5.25v.74h-5.25v-.74zm-2.03-1.002v4.673h-3.31v-5.208h3.31v.533zm-16.966 1H8.02v.74H5.423v-.74zm-2.86 2.676H4.41v10.006h-.566v-2.188c-.01-.215-.11-.407-.265-.54-.14-.116-.32-.188-.51-.188s-.37.072-.51.19c-.16.132-.26.323-.27.538v2.188h-.56V59.358h.83zm13.96-2.676c-.096-.027-.197-.042-.302-.042-.104 0-.205.015-.3.042-.364.102-.65.383-.754.74-.028.097-.044.198-.044.303l.02.2c.035.188.12.36.24.5.202.236.502.385.838.385.336 0 .637-.15.838-.384.12-.14.206-.313.24-.502l.02-.2c0-.104-.016-.205-.044-.3-.105-.36-.39-.64-.753-.742zm-4.078 1.744V56.18H10.9v3.14h1.545v-.894zm9.012 0V56.18H19.91v3.14h1.547v-.894" fill="#67737B"/><path d="M18.238 1.37c.095.094.226.147.36.147.136 0 .265-.053.36-.147.155-.153.193-.387.095-.58-.075-.148-.217-.248-.38-.272-.156-.023-.32.03-.433.14-.156.153-.195.39-.095.583l.093.13zm-4.843 1.6l.422.228.23.417c.09.16.26.26.446.26s.356-.1.445-.26l.23-.417.423-.228c.17-.088.27-.257.27-.44s-.1-.352-.26-.44l-.42-.228-.23-.417c-.09-.16-.26-.26-.44-.26s-.35.1-.44.26l-.23.417-.42.228c-.16.088-.26.257-.26.44s.1.352.27.44zm17.59 26.392h-.297V23.79h.004c.28 0 .508-.226.508-.502 0-.277-.227-.502-.508-.502h-.004V18.44h.004c.28 0 .508-.225.508-.502s-.227-.5-.508-.5h-.004V16.18c0-.276-.227-.5-.508-.5h-5.76v-1.035h.15c.28 0 .51-.224.51-.5s-.228-.502-.51-.502h-.285c-.14-.24-.38-.42-.665-.48l-.364-1.114c-.068-.21-.263-.35-.483-.35h-5.12c-.205-.66-.823-1.13-1.552-1.13s-1.34.47-1.55 1.13H9.67c-.22 0-.416.14-.483.35l-.364 1.11c-.284.06-.524.24-.665.48h-.286c-.28 0-.508.22-.508.5 0 .27.227.5.508.5h.15v1.03h-2.6v-4.13h.2c.28 0 .51-.23.51-.5s-.228-.5-.51-.5H5.43l-.183-.96h25.14c.28 0 .508-.23.508-.5s-.227-.5-.508-.5h-.172l-.11-.13-1.46-1.17-.728-1.63-.02-.04c-.225-.4-.555-.91-.852-1.07-.157-.1-1.025-.82-1.773-1.46-.12-.11-.285-.15-.442-.11l-1.496.32-.19.08-1.242.9-1.263-.33c-.2-.05-.42.02-.54.18l-1.21 1.6-.94.67h-.8c-.09 0-.18.02-.26.07l-.84.49h-2.37l-.81-.42-.29-.65c-.11-.24-.38-.36-.63-.27L9.7 6.4l-1.363-.26-1.404-.72c-.15-.076-.33-.074-.48.007l-1.812.986-1.07-5.6c-.04-.237-.25-.408-.5-.408s-.45.17-.49.408L1.11 8.48l-.315.104h-.15c-.28 0-.508.224-.508.5s.227.502.508.502h.252l-.183.957H.52c-.28 0-.508.224-.508.5s.227.502.508.502h.2v6.81h-.2c-.28 0-.508.225-.508.502s.227.5.508.5h.2v10.326c-.17.18-.275.42-.275.684 0 .554.455 1.003 1.015 1.003h29.528c.56 0 1.015-.45 1.015-1.003 0-.554-.45-1.003-1.01-1.003zM3.07 16.582h.772V13.86c-.02-.405-.358-.728-.773-.728-.42 0-.76.323-.78.728v2.722h.77zM1.925 9.584l.065-.34.032-.162.002-.01.094-.49.004-.02.947-4.956 1.04 5.45v.026l.28 1.46H1.74l.183-.958zM4.9 7.398l.11-.045 1.693-.92 1.228.63.14.047 1.57.296c.09.017.18.01.26-.018l1.95-.66.18.387c.05.104.13.19.23.242l1.08.56c.08.037.16.056.24.056h2.63c.09 0 .18-.024.26-.07l.84-.49h.82c.11 0 .21-.032.3-.094l1.14-.81.11-.11 1.05-1.39 1.17.3c.15.04.31.01.43-.08l1.35-.98L24.81 4c.613.523 1.484 1.256 1.734 1.404.085.072.3.38.463.664l.77 1.72c.033.07.083.136.146.187l.735.59h-23.6L4.83 7.41l.066-.018zm-3.17 4.146h2.68v6.81H1.73v-6.81zm8.32 4.135v-.54h3.31v5.21h-3.31v-4.67zm-.154-2.54l.143-.44h4.43v.94H9.73l.164-.5zm5.597-.97c0-.19.09-.36.232-.47.103-.08.234-.13.376-.13s.28.05.38.13c.14.11.23.28.23.47l.01.03.03.15v1.55H15.5v-1.73zm7.216 1.47h-4.95v-.94h4.64l.3.94zm6.96 15.72h-.74v-4.77h-1.35v4.77h-1.01v-4.77h-1.35v4.77h-.8v-5.59h3.75l.11.01h1.38v5.57zm-8.8-2.92c-.42 0-.76.32-.78.73v2.19h-1.02v-2.08l.01-.11c0-1.01.83-1.84 1.85-1.84.58 0 1.1.26 1.44.67v3.35h-.75v-2.18c-.02-.41-.36-.73-.78-.73zM5.98 24.59v4.774h-.56v-5.59h2.6v5.59h-.684V24.59h-1.35zm-.565-5.23h.2c.28 0 .51-.225.51-.502 0-.185-.1-.344-.254-.43h2.15v4.346h-.68v-2.98H5.99v2.98h-.564V19.36zm8.953-.934v-3.28h3.69v5.208h-3.69v-1.928zm1.846 8.022c-.416 0-.755.323-.774.728v2.188h-1.07V26.96c.106-.913.892-1.625 1.844-1.625.95 0 1.736.712 1.842 1.626v2.41h-1.07v-2.19c-.02-.4-.36-.73-.774-.73zm-4.65 0c-.418 0-.757.323-.776.728v2.188h-.745V26.03c.34-.422.866-.694 1.454-.694.97 0 1.766.738 1.85 1.675l-.007.16.01.11v2.09h-1.02v-2.19c-.016-.4-.355-.73-.77-.73zm-1.52-2.275c.124-.155.274-.29.443-.398.29-.186.636-.296 1.01-.296.37 0 .716.11 1.006.29.42.27.726.7.82 1.2-.497-.41-1.133-.65-1.825-.65-.53 0-1.025.14-1.452.39v-.55zm5.16-.398c.29-.186.638-.296 1.01-.296.373 0 .72.11 1.01.29.42.27.722.7.816 1.2-.497-.41-1.133-.65-1.825-.65s-1.33.24-1.824.65c.1-.51.4-.94.82-1.21zm4.73 0c.29-.186.638-.296 1.01-.296.373 0 .72.11 1.01.29.162.1.31.23.43.38v.56c-.424-.24-.915-.38-1.44-.38-.693 0-1.33.24-1.825.65.09-.51.4-.94.82-1.21zm2.45-1.003v.087l-.163-.09c-.38-.19-.81-.3-1.27-.3-.45 0-.89.1-1.27.29-.21.1-.41.23-.59.39v-1.8h3.31v1.41zm-4.324-1.416v1.784c-.174-.144-.364-.268-.57-.368-.384-.19-.817-.296-1.275-.296-.457 0-.89.107-1.275.296-.205.1-.395.224-.57.368v-1.784h3.69zm-4.704 1.416v.38c-.175-.15-.37-.277-.58-.38-.385-.19-.82-.296-1.276-.296-.458 0-.89.107-1.276.296l-.175.095v-1.51h3.31v1.415zm16.314 0h-.738v-2.98h-1.35v2.98H26.57v-2.98h-1.35v2.98h-.8v-4.347h3.748l.117.014h1.386v4.33zm-5.25-6.09h5.25v.74h-5.25v-.74zm-2.03-1.002v4.673h-3.31v-5.208h3.31v.533zm-16.966 1H8.02v.74H5.423v-.74zm-2.86 2.676H4.41v10.006h-.566v-2.188c-.01-.215-.11-.407-.265-.54-.14-.116-.32-.188-.51-.188s-.37.072-.51.19c-.16.132-.26.323-.27.538v2.188h-.56V19.358h.83zm13.96-2.676c-.096-.027-.197-.042-.302-.042-.104 0-.205.015-.3.042-.364.102-.65.383-.754.74-.028.097-.044.198-.044.303l.02.2c.035.188.12.36.24.5.202.236.502.385.838.385.336 0 .637-.15.838-.384.12-.14.206-.313.24-.502l.02-.2c0-.104-.016-.205-.044-.3-.105-.36-.39-.64-.753-.742zm-4.078 1.744V16.18H10.9v3.14h1.545v-.894zm9.012 0V16.18H19.91v3.14h1.547v-.894" fill="#3A434E"/></g></svg>