<svg width="32" height="232" viewBox="0 0 32 232" xmlns="http://www.w3.org/2000/svg"><g fill="none"><path d="M29.745 135.074l1.384-2.77c.15-.298.14-.653-.01-.95-.15-.3-.43-.503-.76-.55l-2.99-.422-.72-2.106c-.11-.315-.36-.557-.67-.65-.31-.09-.65-.023-.9.184l-2.88 2.352.97-5.598c.06-.327-.04-.66-.26-.9s-.55-.354-.86-.307l-2.85.413-2.28-3.332c-.19-.274-.5-.437-.82-.437-.33 0-.63.17-.82.44L13 123.77l-2.85-.41c-.32-.04-.64.07-.863.31-.22.25-.32.58-.257.91l1.053 5.65-2.96-2.42c-.255-.2-.59-.27-.9-.18-.31.09-.56.34-.668.65l-.72 2.11-2.996.43c-.32.05-.6.25-.75.55-.15.3-.15.66 0 .95l1.38 2.77-1.26 1.82c-.19.27-.24.62-.13.93.1.32.34.56.65.66l6.07 1.95-1.03 4.04c-.09.35 0 .72.25.98.19.21.45.32.71.32l.23-.025 6.03-1.463-.47 6.243c-.03.286.07.57.26.782.19.21.45.33.73.33h3.12c.28 0 .54-.12.73-.33.19-.214.28-.497.26-.785l-.48-6.278 6.025 1.49c.34.087.702-.02.95-.28.245-.26.34-.633.25-.984l-1.03-4.04 6.08-1.946c.304-.1.55-.34.65-.656.1-.314.053-.66-.134-.93l-1.257-1.82zm-14.103 14.492l.437-5.79.08-.02.43 5.81h-.96zm1.38-7.742l-.323-.08v-3.368l2.53 2.117c.09.078.2.115.31.115.14 0 .29-.066.39-.19.17-.223.14-.55-.08-.728l-2.42-2.02 6.66-2.262 1.6.94c.08.047.16.07.24.07.17 0 .34-.095.43-.263.13-.248.05-.564-.19-.705l-.82-.478 1.07-.366c.26-.09.4-.38.32-.652-.09-.272-.37-.42-.64-.33l-1.118.38.132-.59c.06-.277-.11-.555-.38-.62-.27-.066-.54.107-.604.385l-.277 1.2-7.225 2.45v-3.69l.02-.04 2.204-4.45c.13-.26.03-.57-.215-.7s-.546-.03-.673.22l-1.33 2.68v-4.36c0-.29-.22-.52-.5-.52-.275 0-.5.23-.5.52v4.46l-1.38-2.8c-.125-.26-.43-.36-.673-.23-.243.13-.34.44-.215.69l2.2 4.45.074.11v3.64l-6.65-2.3-.31-1.36c-.064-.278-.334-.45-.603-.386-.27.07-.436.35-.37.63l.162.73-1.85-.64c-.26-.1-.548.05-.637.32-.09.27.05.56.314.65l1.64.572-.674.4c-.24.14-.325.46-.188.7.09.17.26.27.435.27.09 0 .17-.02.25-.07l1.46-.853 6.27 2.188-2.4 2.01c-.21.18-.25.5-.07.72.1.13.24.19.39.19.11 0 .22-.03.31-.11l2.56-2.14v3.39l-.48.118-1.02.25-5.03 1.22.85-3.33c.14-.54-.16-1.09-.67-1.25l-5.66-1.817.81-1.17c.22-.314.25-.73.08-1.073l-1.013-2.03 2.197-.31c.37-.05.68-.31.8-.68l.45-1.34 3.976 3.25c.33.27.786.3 1.144.08.35-.225.54-.655.46-1.08l-1.3-6.968 2.062.3c.37.06.74-.11.96-.42l1.816-2.65 1.814 2.65c.22.32.59.48.96.43l2.08-.3-1.2 6.884c-.073.42.115.85.47 1.07.36.22.81.19 1.14-.08l3.85-3.15.46 1.335c.12.364.434.63.805.68l2.2.31-1.02 2.03c-.173.343-.145.76.073 1.073l.81 1.17-5.664 1.812c-.51.16-.8.71-.67 1.25l.85 3.32-6.05-1.5z" fill="#206FAC"/><path d="M29.745 95.074l1.384-2.77c.15-.298.14-.653-.01-.95-.15-.3-.43-.503-.76-.55l-2.99-.422-.72-2.106c-.11-.315-.36-.557-.67-.65-.31-.09-.65-.023-.9.184l-2.88 2.352.97-5.598c.06-.327-.04-.66-.26-.9s-.55-.354-.86-.307l-2.85.413-2.28-3.332c-.19-.274-.5-.437-.82-.437-.33 0-.63.17-.82.44L13 83.77l-2.85-.41c-.32-.04-.64.07-.863.31-.22.25-.32.58-.257.91l1.053 5.65-2.96-2.42c-.254-.2-.59-.27-.9-.18-.31.09-.56.34-.667.65l-.72 2.11-2.996.43c-.322.05-.602.25-.752.55-.15.3-.15.66 0 .95l1.384 2.77-1.254 1.82c-.184.27-.234.62-.13.93.102.32.344.56.65.66l6.073 1.95-1.02 4.04c-.09.35.01.72.25.98.19.21.45.32.72.32l.23-.026 6.03-1.463-.47 6.25c-.02.29.07.57.26.78.19.21.46.33.74.33h3.12c.28 0 .55-.12.74-.33.19-.21.29-.49.27-.78l-.474-6.27 6.026 1.49c.34.09.7-.02.95-.28.243-.26.34-.63.25-.98l-1.027-4.04 6.08-1.95c.3-.1.55-.34.65-.65.1-.313.05-.66-.135-.93l-1.26-1.82zm-14.103 14.492l.437-5.79.08-.02.43 5.81h-.96zm1.38-7.742l-.323-.08v-3.368l2.53 2.117c.09.078.2.115.31.115.14 0 .29-.066.39-.19.17-.223.14-.55-.08-.728l-2.42-2.02 6.66-2.262 1.6.94c.08.047.16.07.24.07.17 0 .34-.095.43-.263.13-.248.05-.564-.19-.705l-.82-.478 1.07-.366c.26-.09.4-.38.32-.652-.09-.272-.37-.42-.64-.33l-1.118.38.132-.59c.06-.277-.11-.555-.38-.62-.27-.066-.54.107-.604.385l-.277 1.2-7.225 2.45v-3.68l.02-.04 2.204-4.45c.13-.26.03-.57-.215-.7s-.546-.03-.673.22l-1.33 2.68v-4.35c0-.29-.22-.52-.5-.52-.275 0-.5.23-.5.51v4.46l-1.38-2.8c-.126-.26-.43-.36-.674-.23-.245.13-.343.45-.217.7l2.2 4.45.076.11v3.64L9 94.53l-.307-1.36c-.063-.28-.333-.45-.602-.38-.27.07-.43.35-.37.63l.17.73-1.85-.646c-.26-.09-.54.055-.63.325-.09.27.05.563.315.654l1.65.576-.67.4c-.24.14-.32.457-.19.706.09.168.26.26.44.26.09 0 .17-.02.25-.066l1.46-.85 6.27 2.18-2.4 2.01c-.21.18-.25.505-.07.73.1.122.25.19.39.19.11 0 .22-.04.32-.117l2.56-2.145v3.392l-.48.113-1.027.248-5.025 1.22.85-3.33c.14-.532-.16-1.083-.67-1.25l-5.67-1.82.81-1.17c.214-.313.243-.73.07-1.072l-1.014-2.03 2.192-.31c.375-.052.686-.314.81-.68l.45-1.34 3.97 3.25c.33.27.78.3 1.14.076.35-.225.54-.655.46-1.08l-1.3-6.968 2.06.3c.37.053.74-.112.957-.428l1.816-2.652 1.82 2.652c.22.316.59.48.96.427L21 85.6l-1.2 6.89c-.077.43.11.85.47 1.07.36.22.81.19 1.135-.07l3.857-3.15.46 1.34c.125.37.44.63.81.68l2.194.31-1.02 2.03c-.17.35-.14.76.078 1.08l.806 1.17-5.664 1.82c-.515.16-.81.714-.675 1.25l.85 3.32-6.05-1.495z" fill="#fff"/><path d="M29.745 55.074l1.384-2.77c.15-.298.14-.653-.01-.95-.15-.3-.43-.503-.76-.55l-2.99-.422-.72-2.106c-.11-.315-.36-.557-.67-.65-.31-.09-.65-.023-.9.184l-2.88 2.352.97-5.598c.06-.327-.04-.66-.26-.9s-.55-.354-.86-.307l-2.85.413-2.28-3.332c-.19-.274-.5-.437-.82-.437-.33 0-.63.17-.82.44L13 43.77l-2.85-.41c-.32-.04-.64.07-.863.31-.22.25-.32.58-.257.91l1.053 5.65-2.96-2.42c-.254-.2-.59-.27-.9-.18-.31.09-.56.34-.667.65l-.72 2.11-2.996.43c-.322.05-.602.25-.752.55-.15.3-.15.66 0 .95l1.384 2.77-1.254 1.82c-.184.27-.234.62-.13.93.102.32.344.56.65.66l6.073 1.95-1.02 4.04c-.09.35.01.72.25.98.19.21.45.32.72.32l.23-.03 6.03-1.46-.47 6.246c-.03.288.07.57.26.784.19.21.46.33.74.33h3.13c.28 0 .55-.12.74-.33.19-.214.29-.497.27-.785l-.47-6.28 6.02 1.49c.34.084.7-.02.95-.28.245-.26.34-.637.25-.988l-1.03-4.04 6.076-1.945c.305-.096.55-.34.65-.655.1-.318.05-.66-.133-.93l-1.254-1.82zM15.642 69.566l.437-5.79.08-.02.43 5.81h-.96zm1.38-7.742l-.323-.08v-3.368l2.53 2.117c.09.078.2.115.31.115.14 0 .29-.066.39-.19.17-.223.14-.55-.08-.728l-2.42-2.02 6.66-2.262 1.6.94c.08.047.16.07.24.07.17 0 .34-.095.43-.263.13-.248.05-.564-.19-.705l-.82-.478 1.07-.366c.26-.09.4-.38.32-.652-.09-.272-.37-.42-.64-.33l-1.118.38.132-.59c.06-.277-.11-.555-.38-.62-.27-.066-.54.107-.604.385l-.277 1.2-7.225 2.45v-3.68l.02-.04 2.204-4.45c.13-.26.03-.57-.215-.7s-.546-.03-.673.22l-1.33 2.68v-4.35c0-.29-.22-.52-.5-.52-.275 0-.5.23-.5.51v4.46l-1.38-2.8c-.126-.26-.43-.36-.674-.23-.245.13-.343.45-.217.7l2.2 4.45.076.11v3.64L9 54.53l-.307-1.36c-.063-.28-.333-.45-.602-.38-.27.07-.43.35-.37.63l.17.73-1.85-.646c-.26-.09-.54.055-.63.325-.09.27.05.563.315.654l1.65.576-.67.4c-.24.14-.32.457-.19.706.09.168.26.26.44.26.09 0 .17-.02.25-.066l1.46-.85 6.27 2.18-2.4 2.01c-.21.18-.25.505-.07.73.1.122.25.19.39.19.11 0 .22-.04.32-.117l2.56-2.145v3.392l-.48.113-1.027.248L9.2 63.33l.848-3.33c.14-.535-.16-1.086-.67-1.25l-5.67-1.82.81-1.17c.215-.316.244-.73.072-1.075l-1.015-2.03 2.193-.31c.375-.052.686-.314.81-.68l.45-1.34L11 53.575c.33.27.78.3 1.14.077.35-.225.54-.655.46-1.08l-1.3-6.968 2.06.3c.37.053.74-.112.956-.428l1.817-2.652 1.82 2.652c.22.316.59.48.96.427L21 45.6l-1.2 6.89c-.077.43.11.85.47 1.07.36.22.81.19 1.135-.07l3.857-3.15.46 1.34c.125.37.44.63.81.68l2.194.31-1.02 2.03c-.17.35-.14.76.078 1.08l.806 1.17-5.664 1.82c-.515.16-.81.714-.675 1.25l.85 3.32-6.05-1.495z" fill="#67737B"/><path d="M29.745 15.074l1.384-2.77c.15-.298.14-.653-.01-.95-.15-.3-.43-.503-.76-.55l-2.99-.422-.72-2.106c-.11-.315-.36-.557-.67-.65-.31-.09-.65-.023-.9.184l-2.88 2.352.97-5.598c.06-.327-.04-.66-.26-.9s-.55-.354-.86-.307l-2.85.413L16.94.438C16.753.164 16.447 0 16.122 0c-.326 0-.63.164-.818.438l-2.28 3.332-2.85-.413c-.322-.047-.643.07-.866.31-.223.243-.32.582-.258.91l1.056 5.652-2.96-2.42c-.252-.21-.588-.28-.898-.19-.31.09-.56.33-.667.65l-.72 2.1-2.99.42c-.32.04-.6.25-.75.55-.15.3-.15.65 0 .95l1.38 2.77-1.25 1.82c-.18.27-.23.61-.13.93.11.31.35.56.66.66l6.08 1.94-1.02 4.04c-.09.35.01.72.26.98.19.2.45.31.72.31l.23-.03 6.03-1.46-.47 6.24c-.02.29.08.57.27.78.19.21.46.33.74.33h3.12c.28 0 .547-.12.736-.33.19-.22.287-.5.266-.79l-.47-6.28 6.023 1.49c.34.09.7-.02.95-.28s.34-.63.25-.98l-1.02-4.04 6.07-1.94c.306-.097.55-.34.65-.65.104-.32.055-.66-.13-.93l-1.26-1.82zM15.642 29.566l.437-5.79.08-.02.43 5.81h-.96zm1.38-7.742l-.323-.08v-3.368l2.53 2.117c.09.078.2.115.31.115.14 0 .29-.066.39-.19.17-.223.14-.55-.08-.728l-2.42-2.02 6.66-2.262 1.6.94c.08.047.16.07.24.07.17 0 .34-.095.43-.263.13-.248.05-.564-.19-.705l-.82-.478 1.07-.366c.26-.09.4-.38.32-.652-.09-.272-.37-.42-.64-.33l-1.118.38.132-.59c.06-.277-.11-.555-.38-.62-.27-.066-.54.107-.604.385l-.277 1.2-7.225 2.45v-3.68l.02-.04 2.21-4.45c.124-.26.03-.57-.22-.7s-.547-.03-.674.22l-1.33 2.68V6.52c0-.285-.22-.517-.5-.517-.276 0-.5.23-.5.514v4.463L14.3 8.186c-.13-.256-.43-.357-.676-.227-.248.13-.346.45-.22.7l2.203 4.45.072.11v3.64L9 14.53l-.31-1.36c-.065-.28-.335-.45-.6-.387-.27.066-.44.343-.377.622l.168.73-1.85-.645c-.26-.09-.54.056-.63.326-.09.27.06.563.32.654l1.65.575-.67.398c-.24.14-.33.457-.19.706.09.16.26.26.43.26.09 0 .17-.02.25-.07l1.46-.85 6.27 2.18-2.4 2.01c-.21.18-.25.5-.07.72.1.12.24.19.39.19.11 0 .22-.04.31-.12l2.56-2.14v3.39l-.48.11-1.02.25-5.02 1.22.85-3.33c.14-.54-.16-1.09-.67-1.25L3.7 16.91l.805-1.17c.21-.32.24-.73.07-1.08l-1.02-2.03 2.19-.31c.37-.06.68-.32.81-.68l.47-1.33L11 13.56c.33.27.78.3 1.14.07.35-.227.54-.657.46-1.08L11.28 5.6l2.06.3c.37.054.74-.11.95-.427L16.1 2.82l1.815 2.654c.22.316.59.48.96.427l2.085-.3-1.2 6.89c-.075.43.113.85.47 1.07.36.22.81.19 1.137-.07l3.858-3.15.457 1.34c.128.37.44.63.81.68l2.197.31-1.02 2.03c-.17.35-.14.76.07 1.08l.8 1.17-5.67 1.81c-.52.16-.81.71-.68 1.25l.84 3.32-6.05-1.5z" fill="#3A434E"/></g></svg>