<svg width="32" height="232" viewBox="0 0 32 232" xmlns="http://www.w3.org/2000/svg"><g fill="none"><path d="M22.45 150.574c-.272 0-.39-.046-.55-.11-.197-.076-.44-.17-.886-.17s-.69.094-.885.17c-.17.064-.28.11-.56.11s-.39-.046-.55-.11c-.2-.076-.44-.17-.89-.17s-.69.094-.89.17c-.16.064-.28.11-.55.11s-.39-.046-.55-.11c-.2-.076-.44-.17-.89-.17s-.69.094-.89.17c-.16.064-.28.11-.55.11s-.39-.046-.56-.11c-.2-.076-.44-.17-.89-.17s-.69.094-.89.17c-.16.064-.28.11-.55.11s-.39-.046-.55-.11c-.2-.076-.44-.17-.89-.17s-.69.094-.89.17c-.16.064-.28.11-.55.11s-.39-.046-.55-.11c-.2-.076-.44-.17-.89-.17s-.69.094-.89.17c-.16.064-.28.11-.55.11s-.39-.046-.56-.11c-.196-.076-.44-.17-.885-.17-.255 0-.46.205-.46.46s.205.46.46.46c.27 0 .39.045.55.108.196.077.44.172.885.172s.69-.095.88-.172c.16-.063.28-.11.55-.11s.39.047.554.11c.19.077.44.172.88.172s.69-.095.88-.172c.163-.063.28-.11.553-.11s.39.047.55.11c.2.077.44.172.887.172s.69-.095.885-.172c.16-.063.28-.11.55-.11s.39.047.55.11c.2.077.44.172.89.172s.69-.095.884-.172c.16-.063.28-.11.55-.11.275 0 .39.047.554.11.19.077.44.172.88.172s.69-.095.88-.172c.16-.063.28-.11.55-.11s.39.047.55.11c.2.077.44.172.887.172s.69-.095.883-.172c.163-.063.28-.11.553-.11s.39.047.55.11c.195.077.44.172.884.172.26 0 .46-.206.46-.46s-.2-.46-.46-.46m9.54-2.552c0-.508-.41-.92-.91-.92h-1.9v-10.747c0-.254-.2-.46-.454-.46h-3.89c-.253 0-.458.206-.458.46v2.203c-.076-.158-.23-.27-.42-.27h-2.55c-.254 0-.46.207-.46.46v.76h-.214c-.256 0-.46.205-.46.46v3.87c-.24-.17-.48-.33-.73-.48v-6.704c0-.254-.205-.46-.458-.46h-.73v-2.415c0-.26-.205-.46-.458-.46s-.46.2-.46.46v2.41h-.407v-3.04c0-.18-.1-.34-.25-.41-.16-.08-.34-.07-.48.04l-3.36 2.48c-.12.08-.19.22-.19.37v4.26h-2.33c-.25 0-.46.2-.46.46v2.13l-.52.21v-1.14c0-.26-.2-.46-.46-.46H7.1l-.31-9.32h.4c.235 0 .43-.18.457-.41l.2-1.84c.015-.13-.026-.26-.113-.36l-.095-.08v-.82c0-.26-.21-.46-.46-.46h-.82V121c0-.252-.21-.46-.46-.46s-.46.208-.46.46v6.82h-.8c-.26 0-.46.207-.46.46v.82l-.1.08c-.09.098-.13.228-.12.358l.2 1.83c.02.233.22.41.45.41h.4l-.31 9.32H2.69c-.253 0-.458.207-.458.46v5.53H.906c-.506 0-.917.413-.917.92 0 .405.25.747.62.87.08.07.18.113.29.113.27 0 .39.05.55.11.19.08.44.17.88.17s.69-.09.88-.17c.16-.06.28-.11.55-.11s.39.05.55.11c.19.08.44.17.88.17s.69-.09.88-.17c.16-.06.28-.11.55-.11s.39.05.55.11c.19.08.44.17.88.17s.69-.09.89-.17c.16-.06.28-.11.55-.11s.39.05.55.11c.19.08.44.17.88.17s.69-.09.88-.17c.16-.06.27-.11.55-.11s.39.05.55.11c.19.08.44.17.88.17s.69-.09.88-.17c.16-.06.28-.11.55-.11.272 0 .39.05.55.11.197.08.44.17.886.17s.69-.09.884-.17c.16-.06.28-.11.55-.11s.39.05.55.11c.2.08.44.17.886.17s.69-.09.886-.17c.16-.06.28-.11.55-.11s.39.05.55.11c.19.08.44.17.88.17s.69-.09.886-.17c.16-.06.28-.11.55-.11s.39.05.55.11c.195.08.44.17.884.17s.69-.09.88-.17c.163-.06.28-.11.553-.11s.39.05.55.11c.2.08.44.17.89.17s.69-.09.884-.17c.16-.06.28-.11.55-.11s.39.05.554.11c.193.08.44.17.883.17.253 0 .46-.2.46-.46.27-.16.46-.45.46-.79zm-26.36-6.91l.28-8.26.478 14.25.01.14.023.707h-1l.02-.71v-.03l.2-6.1zm-.53-12.36H6.7v.286H5.09v-.286zm-.16 1.207h1.95l-.1.91h-1.7l-.1-.92zm12.19 7.15h1.47v5.74c-.472-.23-.962-.43-1.465-.59v-5.16zm-1 4.89c-.73-.16-1.48-.24-2.24-.24h-.202v-5.9l2.445-1.81V142zm-5.233-1.18h1.47v1.05c-.5.07-.99.17-1.47.31v-1.37zm0 3.29c.477-.17.967-.3 1.468-.38l.404-.06.055-.01.41-.03h.05l.403-.02h.204c.765 0 1.517.1 2.243.29l.13.04.328.1.13.04.326.11.135.05c.51.2 1 .44 1.465.73l.46.3.458.34c.26.2.5.41.73.64.16.15.31.31.46.48l.07.07h-1.12l-.13-.17c-.14-.183-.29-.36-.45-.524-.15-.15-.3-.3-.46-.437-.45-.39-.94-.72-1.47-.99l-.13-.07-.32-.15-.13-.05-.33-.127-.13-.05c-.71-.24-1.47-.36-2.24-.36h-.2l-.4.023-.05.004-.41.05-.05.01-.404.08c-.51.11-1 .28-1.47.49l-.46.23-.46.27c-.18.12-.35.24-.52.37-.33.255-.63.54-.914.845-.16.17-.316.36-.46.55H7.3l-.01-.4c.37-.38.78-.73 1.21-1.04.29-.21.6-.41.914-.58l.52-.27.46-.207.456-.17zm-1.61 2.66l.18-.18c.16-.163.34-.316.52-.46.15-.115.3-.225.46-.328.143-.098.3-.19.45-.273.46-.25.95-.44 1.46-.57l.4-.09.05-.01.4-.057.05-.01.4-.03.205-.01c.77 0 1.53.14 2.24.41l.13.05.322.14.136.06.327.17.13.08c.486.292.93.65 1.32 1.07l.15.16.135.16H8.94l.283-.32zm16.03-9.966h2.973v10.29h-2.97V136.81zM21.8 139.2h1.634v.29h-1.63v-.3zm-.67 1.21h2.98v6.67h-.36v-5.71c0-.26-.21-.46-.46-.46s-.46.2-.46.46v5.1l-.37-.49v-4.61c0-.26-.21-.46-.46-.46s-.46.2-.46.46v3.57l-.43-.4v-4.15zm-12.67 1.61v1.13c-.446.25-.877.53-1.286.84l-.06-1.98h1.35zm-5.336 0h1.54l-.16 4.89-.11.18H3.15v-5.07zm18.61-10.22l.12.08.2.05.21-.05c.23-.12.32-.39.21-.62-.04-.09-.11-.17-.2-.21-.17-.09-.39-.05-.52.08-.14.14-.177.35-.087.53l.08.11zm-1.94-4.32l.2.05c.12 0 .24-.05.33-.14.14-.14.18-.36.09-.53-.04-.09-.11-.16-.2-.21-.08-.04-.17-.06-.25-.05l-.18.07-.09.06c-.14.14-.176.35-.086.53.04.08.11.15.2.2zm-5.18 1.09l.38.21.21.38c.08.15.23.24.4.24s.32-.09.4-.24l.21-.38.38-.21c.15-.08.24-.24.24-.41 0-.17-.09-.33-.24-.41l-.38-.21-.21-.39c-.08-.15-.23-.24-.4-.24s-.32.09-.4.24l-.21.38-.38.21c-.15.08-.24.23-.24.4s.09.32.24.4z" fill="#206FAC"/><path d="M22.45 110.574c-.272 0-.39-.046-.55-.11-.197-.076-.44-.17-.886-.17s-.69.094-.885.17c-.17.064-.28.11-.56.11s-.39-.046-.55-.11c-.2-.076-.44-.17-.89-.17s-.69.094-.89.17c-.16.064-.28.11-.55.11s-.39-.046-.55-.11c-.2-.076-.44-.17-.89-.17s-.69.094-.89.17c-.16.064-.28.11-.55.11s-.39-.046-.56-.11c-.2-.076-.44-.17-.89-.17s-.69.094-.89.17c-.16.064-.28.11-.55.11s-.39-.046-.55-.11c-.2-.076-.44-.17-.89-.17s-.69.094-.89.17c-.16.064-.28.11-.55.11s-.39-.046-.55-.11c-.2-.076-.44-.17-.89-.17s-.69.094-.89.17c-.16.064-.28.11-.55.11s-.39-.046-.56-.11c-.196-.076-.44-.17-.885-.17-.255 0-.46.205-.46.46s.205.46.46.46c.27 0 .39.045.55.108.196.077.44.172.885.172s.69-.095.88-.172c.16-.063.28-.11.55-.11s.39.047.554.11c.19.077.44.172.88.172s.69-.095.88-.172c.163-.063.28-.11.553-.11s.39.047.55.11c.2.077.44.172.887.172s.69-.095.885-.172c.16-.063.28-.11.55-.11s.39.047.55.11c.2.077.44.172.89.172s.69-.095.884-.172c.16-.063.28-.11.55-.11.275 0 .39.047.554.11.19.077.44.172.88.172s.69-.095.88-.172c.16-.063.28-.11.55-.11s.39.047.55.11c.2.077.44.172.887.172s.69-.095.883-.172c.163-.063.28-.11.553-.11s.39.047.55.11c.195.077.44.172.884.172.26 0 .46-.206.46-.46s-.2-.46-.46-.46m9.54-2.552c0-.508-.41-.92-.91-.92h-1.9V96.355c0-.254-.2-.46-.454-.46h-3.89c-.253 0-.458.206-.458.46v2.203c-.076-.158-.23-.27-.42-.27h-2.55c-.254 0-.46.207-.46.46v.76h-.214c-.256 0-.46.205-.46.46v3.87c-.24-.17-.48-.33-.73-.48v-6.704c0-.254-.205-.46-.458-.46h-.73V93.78c0-.255-.205-.46-.458-.46s-.46.205-.46.46v2.414h-.407V93.16c0-.174-.1-.333-.25-.41-.16-.08-.34-.064-.48.04l-3.36 2.478c-.12.087-.19.224-.19.37v4.26h-2.33c-.25 0-.46.206-.46.46v2.135l-.52.216v-1.14c0-.26-.2-.46-.46-.46H7.1l-.31-9.32h.4c.235 0 .43-.18.457-.41l.2-1.84c.015-.13-.026-.26-.113-.36l-.095-.08v-.82c0-.26-.21-.46-.46-.46h-.82V81c0-.253-.21-.46-.46-.46s-.46.207-.46.46v6.82h-.8c-.26 0-.46.206-.46.46v.82l-.1.08c-.09.097-.13.227-.12.357l.2 1.83c.02.234.22.41.45.41h.4L4.7 101.1H2.69c-.253 0-.458.2-.458.46v5.53H.906c-.506 0-.917.41-.917.92 0 .4.25.74.62.87.08.07.18.11.29.11.27 0 .39.04.55.11.19.07.44.17.88.17s.69-.1.88-.17c.16-.07.28-.11.55-.11s.39.04.55.11c.19.07.44.17.88.17s.69-.1.88-.17c.16-.07.28-.11.55-.11s.39.04.55.11c.19.07.44.17.88.17s.69-.1.89-.17c.16-.07.28-.11.55-.11s.39.04.55.11c.19.07.44.17.88.17s.69-.1.88-.17c.16-.07.27-.11.55-.11s.39.04.55.11c.19.07.44.17.88.17s.69-.1.88-.17c.16-.07.28-.11.55-.11.272 0 .39.04.55.11.197.07.44.17.886.17s.69-.1.884-.17c.16-.07.28-.11.55-.11s.39.04.55.11c.2.07.44.17.886.17s.69-.1.886-.17c.16-.07.28-.11.55-.11s.39.04.55.11c.19.07.44.17.88.17s.69-.1.886-.17c.16-.07.28-.11.55-.11s.39.04.55.11c.195.07.44.17.884.17s.69-.1.88-.17c.163-.07.28-.11.553-.11s.39.04.55.11c.2.07.44.17.89.17s.69-.1.884-.17c.16-.07.28-.11.55-.11s.39.04.554.11c.193.07.44.17.883.17.253 0 .46-.21.46-.46v-.01c.27-.16.46-.46.46-.8zm-26.36-6.91l.28-8.26.478 14.25.01.14.023.707h-1l.02-.71v-.03l.2-6.1zm-.53-12.36H6.7v.286H5.09v-.286zM4.9 89.96h1.95l-.1.91H5.03l-.1-.92zm12.19 7.15h1.468v5.74c-.473-.23-.963-.43-1.466-.59V97.1zM16.07 102c-.73-.153-1.48-.234-2.242-.234l-.202.003v-5.9l2.445-1.81V102zm-5.235-1.18h1.467v1.055c-.498.07-.987.176-1.467.313v-1.37zm0 3.296c.476-.166.966-.294 1.467-.38l.406-.06.054-.005.406-.03h.05l.404-.02h.204c.764 0 1.516.1 2.242.29l.132.04.327.1.13.04.326.11.133.05c.51.2 1 .44 1.467.73l.46.3.458.34c.26.2.5.42.73.64.16.16.31.32.46.48l.07.08h-1.12l-.13-.17c-.14-.18-.29-.36-.45-.52-.15-.15-.3-.3-.46-.43-.45-.39-.94-.72-1.47-.99l-.13-.07-.32-.15-.13-.05-.33-.123-.13-.046c-.71-.24-1.47-.36-2.24-.36h-.2l-.4.023h-.05l-.41.05-.05.01-.4.08c-.51.11-1 .28-1.47.49l-.46.23-.46.27c-.18.12-.35.24-.52.37-.33.255-.63.54-.91.845-.16.17-.31.36-.46.55H7.3l-.01-.4c.37-.38.78-.73 1.21-1.04.29-.21.6-.41.914-.58l.52-.27.46-.207.456-.17zm-1.615 2.666l.177-.18c.16-.163.34-.316.52-.46.15-.115.3-.225.46-.328.143-.097.3-.188.452-.272.46-.25.95-.44 1.46-.57l.4-.088.05-.01.4-.055.05-.01.4-.03.2-.01c.77 0 1.53.14 2.24.41l.13.05.32.14.13.06.323.17.13.08c.486.29.93.65 1.32 1.07l.15.16.135.16H8.94l.283-.32zm16.027-9.966h2.973v10.287h-2.97V96.816zm-3.43 2.394h1.632v.295h-1.63v-.3zm-.674 1.214h2.98v6.675h-.356v-5.71c0-.26-.204-.46-.457-.46s-.458.2-.458.46v5.1l-.365-.49v-4.61c0-.26-.204-.46-.457-.46s-.458.2-.458.46v3.57l-.423-.4v-4.15zM8.48 102.03v1.137c-.446.25-.877.53-1.286.842l-.066-1.98H8.48zm-5.336 0h1.54l-.164 4.89-.11.18H3.148v-5.07zM21.75 91.81l.12.085.204.05.206-.05c.226-.113.317-.39.204-.616-.044-.09-.117-.17-.206-.21-.172-.09-.392-.05-.528.08-.14.14-.176.35-.086.53l.084.11zm-1.94-4.32l.207.05c.122 0 .238-.05.324-.136.14-.14.18-.354.09-.532-.04-.09-.11-.162-.2-.206-.08-.04-.17-.055-.25-.045l-.18.07-.08.07c-.14.14-.18.36-.09.54.05.09.12.16.2.2zm-5.18 1.096l.382.21.208.38c.08.148.235.24.402.24.167 0 .322-.092.402-.24l.21-.38.38-.21c.147-.08.24-.235.24-.404 0-.168-.093-.323-.24-.403l-.38-.21-.21-.39c-.08-.15-.235-.24-.402-.24-.168 0-.322.09-.402.24l-.21.38-.38.21c-.147.08-.238.23-.238.4s.09.32.238.4z" fill="#fff"/><path d="M22.45 70.574c-.272 0-.39-.046-.55-.11-.197-.076-.44-.17-.886-.17s-.69.094-.885.17c-.17.064-.28.11-.56.11s-.39-.046-.55-.11c-.2-.076-.44-.17-.89-.17s-.69.094-.89.17c-.16.064-.28.11-.55.11s-.39-.046-.55-.11c-.2-.076-.44-.17-.89-.17s-.69.094-.89.17c-.16.064-.28.11-.55.11s-.39-.046-.56-.11c-.2-.076-.44-.17-.89-.17s-.69.094-.89.17c-.16.064-.28.11-.55.11s-.39-.046-.55-.11c-.2-.076-.44-.17-.89-.17s-.69.094-.89.17c-.16.064-.28.11-.55.11s-.39-.046-.55-.11c-.2-.076-.44-.17-.89-.17s-.69.094-.89.17c-.16.064-.28.11-.55.11s-.39-.046-.56-.11c-.196-.076-.44-.17-.885-.17-.255 0-.46.205-.46.46s.205.46.46.46c.27 0 .39.045.55.108.196.077.44.172.885.172s.69-.095.88-.172c.16-.063.28-.11.55-.11s.39.047.554.11c.19.077.44.172.88.172s.69-.095.88-.172c.163-.063.28-.11.553-.11s.39.047.55.11c.2.077.44.172.887.172s.69-.095.885-.172c.16-.063.28-.11.55-.11s.39.047.55.11c.2.077.44.172.89.172s.69-.095.884-.172c.16-.063.28-.11.55-.11.275 0 .39.047.554.11.19.077.44.172.88.172s.69-.095.88-.172c.16-.063.28-.11.55-.11s.39.047.55.11c.2.077.44.172.887.172s.69-.095.883-.172c.163-.063.28-.11.553-.11s.39.047.55.11c.195.077.44.172.884.172.26 0 .46-.206.46-.46s-.2-.46-.46-.46m9.54-2.552c0-.508-.41-.92-.91-.92h-1.9V56.355c0-.254-.2-.46-.454-.46h-3.89c-.253 0-.458.206-.458.46v2.203c-.076-.158-.23-.27-.42-.27h-2.55c-.254 0-.46.207-.46.46v.76h-.214c-.256 0-.46.205-.46.46v3.87c-.24-.17-.48-.33-.73-.48v-6.704c0-.254-.205-.46-.458-.46h-.73V53.78c0-.255-.205-.46-.458-.46s-.46.205-.46.46v2.414h-.407V53.16c0-.174-.1-.333-.25-.41-.16-.08-.34-.064-.48.04l-3.36 2.478c-.12.087-.19.224-.19.37v4.26h-2.33c-.25 0-.46.206-.46.46v2.135l-.52.216v-1.14c0-.26-.2-.46-.46-.46H7.1l-.31-9.32h.4c.235 0 .43-.18.457-.41l.2-1.84c.015-.13-.026-.26-.113-.36l-.095-.08v-.82c0-.26-.21-.46-.46-.46h-.82V41c0-.253-.21-.46-.46-.46s-.46.207-.46.46v6.82h-.8c-.26 0-.46.206-.46.46v.82l-.1.08c-.09.097-.13.227-.12.357l.2 1.83c.02.234.22.41.45.41h.4l-.3 9.323H2.69c-.253 0-.458.206-.458.46v5.53H.906c-.506 0-.917.412-.917.92 0 .404.25.746.62.87.08.07.18.112.29.112.27 0 .39.046.55.11.19.076.44.17.88.17s.69-.094.88-.17c.16-.064.28-.11.55-.11s.39.046.55.11c.19.076.44.17.88.17s.69-.094.88-.17c.16-.064.28-.11.55-.11s.39.046.55.11c.19.076.44.17.88.17s.69-.094.89-.17c.16-.064.28-.11.55-.11s.39.046.55.11c.19.076.44.17.88.17s.69-.094.88-.17c.16-.064.27-.11.55-.11s.39.046.55.11c.19.076.44.17.88.17s.69-.094.88-.17c.16-.064.28-.11.55-.11.272 0 .39.046.55.11.197.076.44.17.886.17s.69-.094.884-.17c.16-.064.28-.11.55-.11s.39.046.55.11c.2.076.44.17.886.17s.69-.094.886-.17c.16-.064.28-.11.55-.11s.39.046.55.11c.19.076.44.17.88.17s.69-.094.886-.17c.16-.064.28-.11.55-.11s.39.046.55.11c.195.076.44.17.884.17s.69-.094.88-.17c.163-.064.28-.11.553-.11s.39.046.55.11c.2.076.44.17.89.17s.69-.094.884-.17c.16-.064.28-.11.55-.11s.39.046.554.11c.193.076.44.17.883.17.253 0 .46-.205.46-.46v-.006c.27-.16.46-.457.46-.797zM5.6 61.112l.28-8.26.474 14.25.008.14.023.707h-1l.02-.71v-.03l.206-6.1zm-.532-12.36H6.7v.286H5.09v-.286zm-.16 1.207h1.95l-.1.91H5.03l-.1-.92zm12.19 7.15h1.467v5.74c-.472-.23-.962-.43-1.465-.59V57.1zM16.07 62c-.73-.153-1.48-.234-2.242-.234l-.202.003v-5.9l2.445-1.81V62zm-5.235-1.18h1.467v1.055c-.498.07-.987.176-1.467.313v-1.37zm0 3.296c.476-.166.966-.294 1.467-.38l.406-.06.054-.005.406-.03h.05l.404-.02h.204c.764 0 1.516.1 2.242.29l.132.04.327.1.13.04.326.11.133.05c.51.2 1 .44 1.467.73l.46.3.458.34c.26.2.5.42.73.64.16.16.31.32.46.48l.07.08h-1.12l-.13-.17c-.14-.18-.29-.36-.45-.52-.15-.15-.3-.3-.46-.43-.45-.39-.94-.72-1.47-.99l-.13-.07-.32-.15-.13-.05-.33-.123-.13-.046c-.71-.24-1.47-.36-2.24-.36h-.2l-.4.023h-.05l-.41.05-.05.01-.4.08c-.51.11-1 .28-1.47.49l-.46.23-.46.27c-.18.12-.35.24-.52.37-.33.255-.63.54-.91.845-.16.17-.31.36-.46.55H7.3l-.01-.4c.37-.38.78-.73 1.21-1.04.29-.21.6-.41.914-.58l.52-.27.46-.207.456-.17zM9.22 66.782l.177-.18c.16-.163.34-.316.52-.46.15-.115.3-.225.46-.328.143-.097.3-.188.452-.272.46-.25.95-.44 1.46-.57l.4-.088.05-.01.4-.055.05-.01.4-.03.2-.01c.77 0 1.53.14 2.24.41l.13.05.32.14.13.06.323.17.13.08c.486.29.93.65 1.32 1.07l.15.16.135.16H8.94l.283-.32zm16.027-9.966h2.973v10.287h-2.97V56.816zm-3.43 2.394h1.632v.295h-1.63v-.3zm-.674 1.214h2.98V67.1h-.356v-5.71c0-.252-.204-.46-.457-.46s-.458.208-.458.46v5.105l-.36-.495v-4.607c0-.254-.204-.46-.457-.46s-.458.206-.458.46v3.576l-.423-.4v-4.15zM8.483 62.03v1.137c-.447.25-.878.53-1.287.842l-.066-1.98h1.35zm-5.337 0h1.54l-.164 4.89-.11.18H3.15v-5.07zM21.75 51.81l.12.085.204.05.206-.05c.226-.113.317-.39.204-.616-.044-.09-.117-.17-.206-.21-.172-.09-.392-.05-.528.08-.14.14-.176.35-.086.53l.084.11zm-1.94-4.32l.207.05c.122 0 .238-.05.324-.136.14-.14.18-.354.09-.532-.04-.09-.11-.162-.2-.206-.08-.04-.17-.055-.25-.045l-.18.07-.08.07c-.14.14-.18.36-.09.54.05.09.12.16.2.2zm-5.18 1.096l.382.21.208.38c.08.148.235.24.402.24.167 0 .322-.092.402-.24l.21-.38.38-.21c.147-.08.24-.235.24-.404 0-.168-.093-.323-.24-.403l-.38-.21-.21-.39c-.08-.15-.235-.24-.402-.24-.168 0-.322.09-.402.24l-.21.38-.38.21c-.147.08-.238.23-.238.4s.09.32.238.4z" fill="#67737B"/><path d="M22.45 30.574c-.272 0-.39-.046-.55-.11-.197-.076-.44-.17-.886-.17s-.69.094-.885.17c-.17.064-.28.11-.56.11s-.39-.046-.55-.11c-.2-.076-.44-.17-.89-.17s-.69.094-.89.17c-.16.064-.28.11-.55.11s-.39-.046-.55-.11c-.2-.076-.44-.17-.89-.17s-.69.094-.89.17c-.16.064-.28.11-.55.11s-.39-.046-.56-.11c-.2-.076-.44-.17-.89-.17s-.69.094-.89.17c-.16.064-.28.11-.55.11s-.39-.046-.55-.11c-.2-.076-.44-.17-.89-.17s-.69.094-.89.17c-.16.064-.28.11-.55.11s-.39-.046-.55-.11c-.2-.076-.44-.17-.89-.17s-.69.094-.89.17c-.16.064-.28.11-.55.11s-.39-.046-.56-.11c-.196-.076-.44-.17-.885-.17-.255 0-.46.205-.46.46s.205.46.46.46c.27 0 .39.045.55.108.196.077.44.172.885.172s.69-.095.88-.172c.16-.063.28-.11.55-.11s.39.047.554.11c.19.077.44.172.88.172s.69-.095.88-.172c.163-.063.28-.11.553-.11s.39.047.55.11c.2.077.44.172.887.172s.69-.095.885-.172c.16-.063.28-.11.55-.11s.39.047.55.11c.2.077.44.172.89.172s.69-.095.884-.172c.16-.063.28-.11.55-.11.275 0 .39.047.554.11.19.077.44.172.88.172s.69-.095.88-.172c.16-.063.28-.11.55-.11s.39.047.55.11c.2.077.44.172.887.172s.69-.095.883-.172c.163-.063.28-.11.553-.11s.39.047.55.11c.195.077.44.172.884.172.26 0 .46-.206.46-.46s-.2-.46-.46-.46m9.54-2.552c0-.508-.41-.92-.91-.92h-1.9V16.355c0-.254-.2-.46-.454-.46h-3.89c-.253 0-.458.206-.458.46v2.203c-.076-.158-.23-.27-.42-.27h-2.55c-.254 0-.46.207-.46.46v.76h-.214c-.256 0-.46.205-.46.46v3.87c-.24-.17-.48-.33-.73-.48v-6.704c0-.254-.205-.46-.458-.46h-.73V13.78c0-.255-.205-.46-.458-.46s-.46.205-.46.46v2.414h-.407V13.16c0-.174-.1-.333-.25-.41-.16-.08-.34-.064-.48.04l-3.36 2.478c-.12.087-.19.224-.19.37v4.26h-2.33c-.25 0-.46.206-.46.46v2.135l-.52.216v-1.14c0-.26-.2-.46-.46-.46H7.1l-.31-9.32h.4c.235 0 .43-.18.457-.41l.2-1.84c.015-.13-.026-.26-.113-.36L7.64 9.1v-.82c0-.254-.21-.46-.46-.46h-.82V1.01c0-.254-.207-.46-.46-.46s-.46.206-.46.46v6.82h-.8c-.254 0-.46.205-.46.46v.82l-.095.08c-.087.096-.128.226-.114.356l.2 1.83c.03.234.23.41.46.41h.4l-.31 9.322H2.69c-.253 0-.458.206-.458.46v5.53H.906c-.506 0-.917.412-.917.92 0 .404.25.746.62.87.08.07.18.112.29.112.27 0 .39.046.55.11.19.076.44.17.88.17s.69-.094.88-.17c.16-.064.28-.11.55-.11s.39.046.55.11c.19.076.44.17.88.17s.69-.094.88-.17c.16-.064.28-.11.55-.11s.39.046.55.11c.19.076.44.17.88.17s.69-.094.89-.17c.16-.064.28-.11.55-.11s.39.046.55.11c.19.076.44.17.88.17s.69-.094.88-.17c.16-.064.27-.11.55-.11s.39.046.55.11c.19.076.44.17.88.17s.69-.094.88-.17c.16-.064.28-.11.55-.11.272 0 .39.046.55.11.197.076.44.17.886.17s.69-.094.884-.17c.16-.064.28-.11.55-.11s.39.046.55.11c.2.076.44.17.886.17s.69-.094.886-.17c.16-.064.28-.11.55-.11s.39.046.55.11c.19.076.44.17.88.17s.69-.094.886-.17c.16-.064.28-.11.55-.11s.39.046.55.11c.195.076.44.17.884.17s.69-.094.88-.17c.163-.064.28-.11.553-.11s.39.046.55.11c.2.076.44.17.89.17s.69-.094.884-.17c.16-.064.28-.11.55-.11s.39.046.554.11c.193.076.44.17.883.17.253 0 .46-.205.46-.46v-.006c.27-.16.46-.456.46-.796zM5.6 21.112l.28-8.26.474 14.25.008.14.023.707h-1l.02-.71v-.03l.206-6.1zm-.53-12.36H6.7v.286H5.09v-.286zM4.93 9.96h1.95l-.1.91H5.034l-.1-.914zm12.19 7.15h1.467v5.747c-.474-.23-.964-.425-1.467-.584V17.11zM16.073 22c-.73-.153-1.48-.234-2.242-.234l-.2.003v-5.9l2.45-1.81V22zm-5.235-1.18h1.467v1.055c-.498.07-.987.176-1.467.313v-1.37zm0 3.296c.476-.166.966-.294 1.467-.38l.406-.06.06-.005.41-.03h.05l.41-.02h.21c.77 0 1.52.1 2.24.29l.14.04.33.1.13.04.33.11.14.05c.51.2 1 .44 1.47.73l.46.3.46.34c.25.2.5.42.73.64.16.16.31.32.46.48l.07.08h-1.12l-.13-.17c-.144-.18-.297-.36-.457-.52-.15-.15-.3-.3-.46-.43-.45-.39-.94-.72-1.47-.99l-.15-.08-.323-.15-.13-.05-.33-.123-.13-.045c-.713-.235-1.47-.36-2.24-.36h-.203l-.41.026h-.05l-.406.05-.05.007-.403.076c-.51.11-1 .28-1.47.49l-.46.23-.455.27c-.18.12-.354.24-.52.37-.33.25-.637.54-.92.84-.16.17-.32.36-.46.55H7.3l-.01-.4c.37-.38.78-.73 1.21-1.04.29-.21.6-.41.914-.58l.524-.27.458-.21.46-.17zm-1.615 2.666l.177-.18c.163-.163.34-.316.52-.46.15-.115.3-.225.46-.328.145-.097.3-.188.454-.272.462-.25.955-.44 1.467-.57l.41-.088.05-.01.41-.055.05-.01.41-.03.21-.01c.78 0 1.53.14 2.24.41l.13.05.33.14.13.06.33.17.13.08c.49.29.93.65 1.32 1.07l.15.16.14.16h-9.8l.29-.32zm16.027-9.966h2.975v10.287H25.25V16.816zm-3.43 2.394h1.634v.295H21.82v-.3zm-.672 1.214h2.98V27.1h-.356v-5.71c0-.252-.205-.46-.458-.46s-.458.208-.458.46v5.105L22.493 26v-4.607c0-.254-.205-.46-.458-.46s-.458.206-.458.46v3.576l-.423-.4v-4.15zM8.483 22.03v1.137c-.447.25-.878.53-1.287.842l-.066-1.98h1.35zm-5.337 0h1.54l-.164 4.89-.11.18H3.15v-5.07zM21.75 11.81l.12.085.204.05.206-.05c.226-.113.317-.39.204-.616-.044-.09-.117-.17-.206-.21-.172-.09-.392-.05-.528.08-.14.14-.176.35-.086.53l.084.11zm-1.94-4.32l.207.05c.122 0 .238-.05.324-.136.14-.14.18-.354.09-.532-.04-.09-.11-.162-.2-.206-.08-.04-.17-.055-.25-.045l-.18.07-.08.07c-.14.14-.18.36-.09.54.05.09.12.16.2.2zm-5.18 1.096l.382.21.208.38c.08.148.235.24.402.24.167 0 .322-.092.402-.24l.21-.38.38-.21c.147-.08.24-.235.24-.404 0-.168-.093-.323-.24-.403l-.38-.21-.21-.39c-.08-.15-.235-.24-.402-.24-.168 0-.322.09-.402.24l-.21.38-.38.21c-.147.08-.238.23-.238.4s.09.32.238.4z" fill="#3A434E"/></g></svg>