<svg width="32" height="232" viewBox="0 0 32 232" xmlns="http://www.w3.org/2000/svg"><g fill="none"><path d="M10.525 122.896c.14 0 .272-.057.37-.158.1-.1.154-.24.154-.382 0-.143-.06-.28-.16-.382-.1-.1-.23-.157-.37-.157-.14 0-.27.056-.37.157-.1.1-.16.24-.16.383 0 .143.05.28.15.38.09.102.23.16.37.16zm4.21 3.2c.14 0 .273-.056.37-.157.1-.11.155-.24.155-.39 0-.15-.056-.28-.155-.38-.098-.1-.23-.16-.37-.16-.138 0-.27.05-.37.15-.1.1-.155.24-.155.38s.055.28.153.38c.098.1.232.16.37.16zm5.648-1.572c.14 0 .272-.057.37-.158.098-.1.154-.24.154-.382 0-.143-.056-.28-.155-.382-.098-.1-.23-.157-.37-.157-.138 0-.27.056-.37.157-.098.1-.154.24-.154.382 0 .143.055.28.153.38.1.102.24.16.38.16zm1.457-3.602c.098.102.233.16.372.16.14 0 .272-.058.37-.16.16-.163.2-.414.098-.62-.077-.16-.224-.267-.39-.293-.163-.03-.332.03-.448.15-.16.16-.2.41-.098.62l.096.13zm2.382 2.13c.14 0 .272-.058.37-.16.098-.1.154-.238.153-.38 0-.144-.056-.282-.155-.383-.098-.1-.23-.16-.37-.16-.138 0-.27.05-.37.15-.1.1-.155.24-.155.38s.055.28.153.38c.098.1.232.16.37.16zm-19.066 1.405l.436.245.238.448c.092.173.268.28.46.28s.368-.107.46-.28l.238-.448.436-.245c.168-.094.273-.275.273-.472 0-.197-.104-.378-.273-.472l-.436-.245-.238-.448c-.092-.173-.268-.28-.46-.28s-.368.107-.46.28l-.238.448-.435.245c-.168.094-.273.276-.273.472 0 .197.104.378.273.472zm9.982-2.475l.436.245.238.448c.092.173.268.28.46.28.19 0 .368-.107.46-.28l.238-.448.436-.245c.168-.094.273-.276.273-.472 0-.197-.11-.378-.28-.472l-.44-.245-.24-.448c-.09-.173-.27-.28-.46-.28s-.37.107-.46.28l-.24.448-.44.245c-.17.094-.27.276-.27.472 0 .197.1.378.27.472zm16.244 8.785h-.177l-.114-.135-1.5-1.25-.75-1.75-.02-.046c-.23-.425-.57-.97-.87-1.142-.16-.103-1.05-.878-1.83-1.57-.12-.11-.29-.155-.45-.12l-1.54.348-.19.09-1.28.96-1.3-.352c-.2-.056-.42.023-.55.198l-1.25 1.72-.97.717h-.82c-.09 0-.18.026-.26.075l-.86.525H14.2l-.833-.45-.295-.697c-.11-.256-.4-.384-.65-.293l-2.34.822-1.41-.277-1.45-.773c-.154-.083-.34-.08-.493.006l-1.94 1.097-1.24.343c-.08.023-.15.065-.22.124l-.8.763-.01.015-.72.735-.92.314H.69c-.29 0-.524.24-.524.538 0 .297.234.538.524.538h30.69c.29 0 .524-.24.524-.538 0-.297-.234-.538-.524-.538zm-28.168-.28l.7-.665 1.174-.326.116-.048 1.746-.99 1.267.678.143.05 1.618.32c.09.017.182.01.268-.02l2.014-.708.177.415c.048.112.13.204.236.26l1.112.6c.075.04.16.062.244.062h2.71c.09 0 .18-.026.26-.075l.86-.525h.84c.11 0 .22-.036.31-.1l1.17-.87.11-.114 1.08-1.49 1.2.33c.15.04.31.01.44-.08l1.39-1.04 1.18-.26c.63.56 1.53 1.35 1.78 1.51.09.08.31.41.48.72l.79 1.85c.03.08.08.15.15.2l.76.63H2.94l.27-.28zm7.113 8.994h.002c.28 0 .52-.24.52-.53v-2.46l.09.01c.63 0 1.14-.52 1.14-1.17v-1.13c0-.3-.24-.54-.53-.54-.29 0-.53.24-.53.54v1.14c0 .06-.05.1-.1.1-.06 0-.1-.04-.1-.1l-.01-.04v-2.49c0-.29-.24-.53-.53-.53-.29 0-.53.24-.53.54v3.12c0 .05-.04.1-.1.1s-.093-.04-.093-.094v-1.55c0-.293-.234-.54-.524-.54-.29 0-.52.247-.52.54v1.55c0 .65.513 1.176 1.144 1.176l.1-.005v1.334H8.72c-.29 0-.524.24-.524.54 0 .3.235.54.524.54h1.61zm-3.654-2.56c-.29 0-.524.24-.524.54v1.55c0 .19-.15.33-.33.33-.18 0-.33-.14-.33-.33l-.01-.05v-3.4c0-.29-.24-.53-.53-.53-.29 0-.53.24-.53.54v4.26c0 .19-.15.33-.33.33-.18 0-.33-.14-.33-.33v-2.12c0-.29-.23-.54-.52-.54-.29 0-.53.24-.53.54v2.12c0 .78.61 1.41 1.37 1.41.11 0 .22-.01.33-.04v2.26H2.77c-.29 0-.525.24-.525.54 0 .3.233.54.523.54h2.21c.29 0 .525-.24.525-.53v-3.6c.104.03.212.04.323.04.756 0 1.37-.63 1.37-1.41v-1.55c0-.29-.234-.53-.523-.53zm13.736 2.87c-1.4 0-3.48.83-5.58 2.22-1.41.93-2.63 2-3.44 2.99-1.37 1.68-1.2 2.75-.82 3.36.24.39.75.86 1.8.86.86 0 1.98-.32 3.21-.89v.36c-.73.52-1.24 1.32-1.39 2.26h-3.1c-.29 0-.53.24-.53.54 0 .3.23.54.52.54h9.15c.29 0 .52-.24.52-.54 0-1.15-.57-2.18-1.43-2.79v-2.71c.81-.65 1.51-1.32 2.03-1.97 1.36-1.67 1.2-2.75.82-3.35-.25-.39-.76-.86-1.81-.86zm-2.85 11.15h-2.29c.09-.41.29-.77.57-1.07.17-.18.37-.34.6-.46.31-.16.66-.25 1.03-.25s.72.1 1.03.26c.22.12.43.28.6.46.27.3.47.66.57 1.07h-2.11zm.74-2.75c-.27-.07-.55-.11-.84-.11-.29 0-.57.04-.84.11v-.39c.43-.24.87-.5 1.31-.79l.36-.24v1.44zm-1.5-3l-.25.16c-.34.22-.67.41-.99.59-1.31.72-2.41 1.08-3.06 1.13.34-.62 1.35-1.86 3.43-3.23 1.84-1.21 3.43-1.8 4.28-1.87-.34.62-1.36 1.86-3.43 3.24zm13.23-12.45c-.96 0-2.47.61-3.94 1.58-1.01.67-1.88 1.42-2.46 2.13-.9 1.11-.82 1.79-.58 2.16.14.24.46.52 1.11.52.62 0 1.47-.25 2.39-.7v.38c-.48.36-.83.9-.96 1.52h-2.18c-.29 0-.523.24-.523.54 0 .3.23.54.52.54h2.61l.05.01h3.95c.29 0 .525-.24.525-.54-.006-.84-.4-1.59-1.01-2.05v-1.91c0-.13-.048-.25-.12-.34.44-.38.83-.762 1.13-1.14.9-1.103.81-1.78.58-2.15-.148-.23-.46-.51-1.118-.51zm-1.53 4.68v.91c-.14-.02-.29-.04-.44-.04-.15 0-.3.02-.44.04v-.47l.49-.31.17-.11h.22zm-1.79 2.89c.06-.15.14-.28.23-.41.21-.26.51-.45.85-.51l.26-.02.26.03c.34.07.64.25.85.52.1.12.18.26.23.41h-2.7zm1.25-3.96l-.42.29-.4.25-.05.03-.53.3c-1.05.57-1.92.83-2.4.83l-.23-.03c.01-.32.77-1.5 2.71-2.78 1.47-.97 2.75-1.4 3.36-1.4l.22.03c-.015.3-.667 1.34-2.29 2.5zm-7.79-1.75c.7-.86.62-1.41.43-1.72-.13-.2-.39-.44-.93-.44-.72 0-1.81.43-2.9 1.16-.74.49-1.37 1.04-1.79 1.56-.71.87-.62 1.41-.43 1.72.12.2.38.44.92.44.4 0 .91-.13 1.47-.37-.26.25-.45.56-.55.92h-1.45c-.29 0-.53.24-.53.54 0 .3.23.54.52.54h1.87l.03.01h2.83c.29 0 .52-.24.52-.54 0-.62-.28-1.17-.72-1.54v-1.29l-.04-.2c.28-.25.53-.5.73-.75zm-2.62 3.26c.16-.22.42-.37.71-.37s.55.15.71.37h-1.43zm.88-1.44l-.17-.01-.17.01v-.08l.28-.18.05-.03v.3zm-.29-1.4l-.33.23c-.27.18-.52.33-.76.45-.67.35-1.21.52-1.53.53.16-.33.74-1.02 1.82-1.73.99-.66 1.85-.96 2.29-.98-.15.3-.63.88-1.49 1.5z" fill="#206FAC"/><path d="M10.525 82.896c.14 0 .272-.057.37-.158.1-.1.154-.24.154-.382 0-.143-.06-.28-.16-.382-.1-.1-.23-.157-.37-.157-.14 0-.27.056-.37.157-.1.1-.16.24-.16.383 0 .143.05.28.15.38.09.102.23.16.37.16zm4.21 3.2c.14 0 .273-.056.37-.157.1-.11.155-.24.155-.39 0-.15-.056-.28-.155-.38-.098-.1-.23-.16-.37-.16-.138 0-.27.05-.37.15-.1.1-.155.24-.155.38s.055.28.153.38c.098.1.232.16.37.16zm5.648-1.572c.14 0 .272-.057.37-.158.098-.1.154-.24.154-.382 0-.143-.056-.28-.155-.382-.098-.1-.23-.157-.37-.157-.138 0-.27.056-.37.157-.098.1-.154.24-.154.382 0 .143.055.28.153.38.1.102.24.16.38.16zm1.457-3.602c.098.102.233.16.372.16.14 0 .272-.058.37-.16.16-.163.2-.414.098-.62-.077-.16-.224-.267-.39-.293-.163-.03-.332.03-.448.15-.16.16-.2.41-.098.62l.096.13zm2.382 2.13c.14 0 .272-.058.37-.16.098-.1.154-.238.153-.38 0-.144-.056-.282-.155-.383-.098-.1-.23-.16-.37-.16-.138 0-.27.05-.37.15-.1.1-.155.24-.155.38s.055.28.153.38c.098.1.232.16.37.16zM5.156 84.456l.436.245.238.45c.092.18.268.28.46.28s.368-.1.46-.28l.238-.45.436-.24c.168-.09.273-.27.273-.47 0-.19-.104-.38-.273-.47l-.436-.24-.238-.45c-.092-.17-.268-.28-.46-.28s-.368.11-.46.28l-.238.45-.435.25c-.168.1-.273.28-.273.47 0 .2.104.38.273.47zm9.982-2.475l.436.25.238.45c.092.18.268.28.46.28.19 0 .368-.1.46-.28l.238-.45.436-.24c.168-.09.273-.27.273-.47 0-.2-.11-.38-.28-.47l-.44-.24-.24-.45c-.09-.17-.27-.28-.46-.28s-.37.11-.46.28l-.24.45-.44.25c-.17.1-.27.28-.27.47 0 .2.1.38.27.47zm16.244 8.79h-.177l-.114-.13-1.5-1.25-.75-1.75-.02-.04c-.23-.42-.57-.97-.87-1.14-.16-.1-1.05-.87-1.83-1.57-.12-.11-.29-.15-.45-.12l-1.54.35-.19.09-1.28.96-1.3-.35c-.2-.06-.42.02-.55.2l-1.25 1.72-.97.72h-.82c-.09 0-.18.03-.26.08l-.86.53H14.2l-.833-.45-.295-.7c-.11-.25-.4-.38-.65-.29l-2.34.82-1.41-.28-1.45-.77c-.154-.08-.34-.08-.493.01l-1.95 1.08-1.24.35c-.08.03-.15.07-.22.13l-.8.766-.01.017-.72.737-.917.314H.7c-.29 0-.524.24-.524.54 0 .3.234.54.524.54h30.68c.29 0 .524-.24.524-.54 0-.295-.234-.54-.524-.54zm-28.168-.28l.7-.66 1.174-.32.116-.05 1.746-.99 1.267.68.143.05 1.618.32c.09.02.182.01.268-.02l2.014-.71.177.42c.048.11.13.21.236.26l1.112.6c.075.04.16.06.244.06h2.71c.09 0 .18-.02.26-.07l.86-.52h.84c.11 0 .22-.03.31-.1l1.17-.87.11-.11 1.08-1.49 1.2.33c.15.04.31.01.44-.09l1.39-1.04 1.18-.26c.63.56 1.53 1.35 1.78 1.51.09.08.31.41.48.72l.79 1.85c.03.08.08.15.15.2l.76.63H2.94l.27-.28zm7.113 9h.002c.28 0 .52-.24.52-.53V96.5l.09.003c.63 0 1.14-.526 1.14-1.174v-1.14c0-.3-.24-.54-.53-.54-.29 0-.53.24-.53.54v1.13c0 .05-.05.1-.1.1-.06 0-.1-.05-.1-.1l-.01-.04v-2.49c0-.3-.24-.54-.53-.54-.29 0-.53.24-.53.53v3.11c0 .05-.04.09-.1.09s-.09-.05-.09-.1v-1.55c0-.3-.23-.54-.52-.54-.29 0-.525.24-.525.54v1.54c0 .65.51 1.17 1.142 1.17h.1v1.34H8.72c-.29 0-.524.24-.524.54 0 .29.235.53.524.53h1.61zm-3.654-2.56c-.29 0-.524.24-.524.54v1.56c0 .18-.15.33-.33.33-.18 0-.33-.15-.33-.33l-.01-.05v-3.41c0-.29-.24-.53-.53-.53-.29 0-.53.24-.53.54v4.26c0 .19-.15.33-.33.33-.18 0-.33-.14-.33-.33V97.7c0-.297-.23-.538-.52-.538-.29 0-.53.24-.53.537v2.11c0 .77.61 1.41 1.37 1.41.11 0 .22-.02.33-.05v2.26H2.77c-.29 0-.525.24-.525.54 0 .29.233.53.523.53h2.21c.29 0 .525-.24.525-.54v-3.6c.104.02.212.04.323.04.756 0 1.37-.64 1.37-1.41v-1.55c0-.3-.234-.54-.523-.54zm13.737 2.86c-1.397 0-3.48.83-5.58 2.22-1.41.93-2.63 2-3.44 2.99-1.368 1.68-1.2 2.75-.82 3.35.24.39.754.86 1.804.86.86 0 1.985-.32 3.215-.89v.36c-.73.52-1.24 1.32-1.39 2.26h-3.1c-.29 0-.53.24-.53.54 0 .3.23.54.52.54h9.15c.29 0 .52-.24.52-.54 0-1.15-.56-2.18-1.42-2.79v-2.71c.81-.64 1.51-1.32 2.04-1.97 1.36-1.67 1.2-2.75.82-3.35-.25-.39-.76-.86-1.81-.86zm-2.85 11.15h-2.29c.097-.41.298-.77.57-1.07.175-.19.378-.34.6-.46.31-.17.66-.26 1.03-.26s.723.1 1.03.26c.226.12.43.27.6.46.276.29.478.66.57 1.07h-2.11zm.748-2.75c-.267-.07-.548-.11-.837-.11-.29 0-.57.04-.83.11v-.39c.43-.24.87-.5 1.32-.79l.36-.24v1.44zm-1.493-3l-.243.16c-.34.22-.668.41-.985.59-1.31.72-2.407 1.08-3.06 1.13.34-.62 1.354-1.86 3.43-3.23 1.84-1.21 3.438-1.8 4.288-1.87-.34.62-1.356 1.86-3.43 3.24zm13.237-12.45c-.955 0-2.463.61-3.934 1.58-1.003.67-1.875 1.43-2.452 2.13-.9 1.11-.813 1.79-.58 2.16.146.24.46.52 1.116.52.62 0 1.472-.25 2.396-.7v.38c-.478.36-.824.9-.954 1.52H23.46c-.29 0-.523.24-.523.54 0 .3.234.54.524.54h2.61l.05.01h3.95c.29 0 .53-.24.53-.54v-.01c0-.84-.4-1.58-1.01-2.05V96.9c0-.128-.04-.244-.11-.336.45-.38.83-.767 1.13-1.14.9-1.11.82-1.78.58-2.15-.14-.236-.46-.516-1.11-.516zm-1.528 4.68v.91c-.143-.02-.29-.04-.44-.04-.15 0-.297.02-.44.04v-.47l.49-.31.173-.11h.22zm-1.79 2.89c.057-.15.138-.28.236-.41.213-.26.51-.44.85-.51l.264-.02.263.03c.34.07.64.25.852.52.09.12.18.26.23.41h-2.7zm1.25-3.96l-.417.29-.395.25-.05.03-.525.3c-1.045.56-1.92.82-2.394.82l-.226-.03c.015-.32.775-1.5 2.71-2.78 1.47-.97 2.75-1.4 3.367-1.4l.226.03c-.014.3-.666 1.34-2.293 2.5zM20.2 94.58c.703-.863.62-1.412.427-1.72-.125-.2-.387-.438-.925-.438-.72 0-1.804.43-2.896 1.153-.732.484-1.368 1.036-1.79 1.555-.703.864-.62 1.413-.427 1.72.12.2.38.44.92.44.4 0 .91-.133 1.47-.373-.26.245-.46.56-.55.92h-1.45c-.29 0-.53.24-.53.537 0 .297.23.538.52.538h1.87l.03.003h2.83c.29 0 .52-.24.52-.538v-.006c0-.62-.29-1.17-.72-1.54v-1.29l-.04-.21c.28-.25.53-.5.73-.75zm-2.62 3.256c.16-.225.42-.372.714-.372s.553.147.715.372h-1.43zm.88-1.44l-.166-.01-.166.01v-.08l.282-.18.05-.033v.294zM18.173 95l-.332.23c-.26.176-.52.326-.76.452-.66.348-1.21.516-1.53.53.17-.337.75-1.023 1.82-1.733 1-.66 1.86-.97 2.29-.99-.14.3-.62.87-1.48 1.5z" fill="#fff"/><path d="M10.525 42.896c.14 0 .272-.057.37-.158.1-.1.154-.24.154-.382 0-.143-.06-.28-.16-.382-.1-.1-.23-.157-.37-.157-.14 0-.27.056-.37.157-.1.1-.16.24-.16.383 0 .143.05.28.15.38.09.102.23.16.37.16zm4.21 3.2c.14 0 .273-.056.37-.157.1-.11.155-.24.155-.39 0-.15-.056-.28-.155-.38-.098-.1-.23-.16-.37-.16-.138 0-.27.05-.37.15-.1.1-.155.24-.155.38s.055.28.153.38c.098.1.232.16.37.16zm5.648-1.572c.14 0 .272-.057.37-.158.098-.1.154-.24.154-.382 0-.143-.056-.28-.155-.382-.098-.1-.23-.157-.37-.157-.138 0-.27.056-.37.157-.098.1-.154.24-.154.382 0 .143.055.28.153.38.1.102.24.16.38.16zm1.457-3.602c.098.102.233.16.372.16.14 0 .272-.058.37-.16.16-.163.2-.414.098-.62-.077-.16-.224-.267-.39-.293-.163-.03-.332.03-.448.15-.16.16-.2.41-.098.62l.096.13zm2.382 2.13c.14 0 .272-.058.37-.16.098-.1.154-.238.153-.38 0-.144-.056-.282-.155-.383-.098-.1-.23-.16-.37-.16-.138 0-.27.05-.37.15-.1.1-.155.24-.155.38s.055.28.153.38c.098.1.232.16.37.16zM5.156 44.456l.436.245.238.45c.092.18.268.28.46.28s.368-.1.46-.28l.238-.45.436-.24c.168-.09.273-.27.273-.47 0-.19-.104-.38-.273-.47l-.436-.24-.238-.45c-.092-.17-.268-.28-.46-.28s-.368.11-.46.28l-.238.45-.435.25c-.168.1-.273.28-.273.47 0 .2.104.38.273.47zm9.982-2.475l.436.25.238.45c.092.18.268.28.46.28.19 0 .368-.1.46-.28l.238-.45.436-.24c.168-.09.273-.27.273-.47 0-.2-.11-.38-.28-.47l-.44-.24-.24-.45c-.09-.17-.27-.28-.46-.28s-.37.11-.46.28l-.24.45-.44.25c-.17.1-.27.28-.27.47 0 .2.1.38.27.47zm16.244 8.79h-.177l-.114-.13-1.5-1.25-.75-1.75-.02-.04c-.23-.42-.57-.97-.87-1.14-.16-.1-1.05-.87-1.83-1.57-.12-.11-.29-.15-.45-.12l-1.54.35-.19.09-1.28.96-1.3-.35c-.2-.06-.42.02-.55.2l-1.25 1.72-.97.72h-.82c-.09 0-.18.03-.26.08l-.86.53H14.2l-.833-.45-.295-.7c-.11-.25-.4-.38-.65-.29l-2.34.82-1.41-.28-1.45-.77c-.154-.08-.34-.08-.493.01l-1.95 1.08-1.24.35c-.08.03-.15.07-.22.13l-.8.766-.01.017-.72.737-.917.314H.7c-.29 0-.524.24-.524.54 0 .3.234.54.524.54h30.68c.29 0 .524-.24.524-.54 0-.295-.234-.54-.524-.54zm-28.168-.28l.7-.66 1.174-.32.116-.05 1.746-.99 1.267.68.143.05 1.618.32c.09.02.182.01.268-.02l2.014-.71.177.42c.048.11.13.21.236.26l1.112.6c.075.04.16.06.244.06h2.71c.09 0 .18-.02.26-.07l.86-.52h.84c.11 0 .22-.03.31-.1l1.17-.87.11-.11 1.08-1.49 1.2.33c.15.04.31.01.44-.09l1.39-1.04 1.18-.26c.63.56 1.53 1.35 1.78 1.51.09.08.31.41.48.72l.79 1.85c.03.08.08.15.15.2l.76.63H2.94l.27-.28zm7.113 9h.002c.28 0 .52-.24.52-.53V56.5l.09.003c.63 0 1.14-.526 1.14-1.174v-1.14c0-.3-.24-.54-.53-.54-.29 0-.53.24-.53.54v1.13c0 .05-.05.1-.1.1-.06 0-.1-.05-.1-.1l-.01-.04v-2.49c0-.3-.24-.54-.53-.54-.29 0-.53.24-.53.53v3.11c0 .05-.04.09-.1.09s-.09-.05-.09-.1v-1.55c0-.3-.23-.54-.52-.54-.29 0-.525.24-.525.54v1.54c0 .65.51 1.17 1.142 1.17h.1v1.34H8.72c-.29 0-.524.24-.524.54 0 .29.235.53.524.53h1.61zm-3.654-2.56c-.29 0-.524.24-.524.54v1.56c0 .18-.15.33-.33.33-.18 0-.33-.15-.33-.33l-.01-.05v-3.41c0-.29-.24-.53-.53-.53-.29 0-.53.24-.53.54v4.26c0 .19-.15.33-.33.33-.18 0-.33-.14-.33-.33V57.7c0-.297-.23-.538-.52-.538-.29 0-.53.24-.53.537v2.11c0 .77.61 1.41 1.37 1.41.11 0 .22-.02.33-.05v2.26H2.77c-.29 0-.525.24-.525.54 0 .29.233.53.523.53h2.21c.29 0 .525-.24.525-.54v-3.6c.104.02.212.04.323.04.756 0 1.37-.64 1.37-1.41v-1.55c0-.3-.234-.54-.523-.54zm13.737 2.86c-1.397 0-3.48.83-5.58 2.22-1.41.93-2.63 2-3.44 2.99-1.368 1.68-1.2 2.75-.82 3.35.24.39.754.86 1.804.86.86 0 1.985-.32 3.215-.89v.36c-.73.52-1.24 1.32-1.39 2.26h-3.1c-.29 0-.53.24-.53.54 0 .3.23.54.52.54h9.15c.29 0 .52-.24.52-.54 0-1.15-.56-2.18-1.42-2.79v-2.71c.81-.64 1.51-1.32 2.04-1.97 1.36-1.67 1.2-2.75.82-3.35-.25-.39-.76-.86-1.81-.86zm-2.85 11.15h-2.29c.096-.41.297-.77.57-1.06.174-.18.377-.34.6-.46.31-.16.66-.26 1.03-.26s.722.1 1.03.26c.225.12.428.28.6.46.275.3.477.66.57 1.07h-2.11zm.747-2.75c-.267-.07-.548-.11-.837-.11-.29 0-.57.04-.836.11v-.39c.432-.24.872-.5 1.313-.79l.36-.24v1.43zm-1.493-3l-.243.16c-.34.21-.66.41-.98.58-1.31.72-2.4 1.08-3.06 1.13.34-.62 1.36-1.86 3.43-3.23 1.84-1.22 3.44-1.8 4.29-1.87-.34.62-1.35 1.86-3.43 3.24zM30.05 52.74c-.95 0-2.46.604-3.93 1.577-1 .666-1.87 1.423-2.45 2.13-.9 1.11-.81 1.784-.58 2.154.15.24.46.52 1.12.52.62 0 1.473-.25 2.397-.7v.38c-.48.37-.824.9-.954 1.52h-2.19c-.29 0-.522.24-.522.54 0 .3.24.54.53.54h2.61l.05.01h3.95c.29 0 .53-.24.53-.53v-.01c0-.84-.4-1.59-1.01-2.06V56.9c0-.13-.04-.245-.11-.337.45-.38.83-.765 1.13-1.14.9-1.106.82-1.78.58-2.15-.14-.234-.46-.514-1.11-.514zm-1.52 4.68v.902c-.14-.026-.29-.04-.44-.04-.15 0-.295.014-.44.04v-.477l.49-.31.175-.116h.22zm-1.79 2.886c.06-.15.14-.28.238-.41.213-.26.51-.44.85-.51l.264-.02.263.022c.34.064.64.25.85.513.1.12.18.26.237.41h-2.7zm1.25-3.96l-.415.29-.395.25-.05.03-.525.3c-1.045.568-1.92.83-2.394.83l-.22-.03c.01-.323.77-1.507 2.71-2.786 1.47-.97 2.75-1.407 3.37-1.407l.23.03c-.01.3-.66 1.335-2.29 2.5zM20.2 54.58c.703-.863.62-1.412.427-1.72-.125-.2-.387-.438-.925-.438-.72 0-1.804.43-2.896 1.153-.732.484-1.368 1.036-1.79 1.555-.703.864-.62 1.413-.427 1.72.12.2.38.44.92.44.4 0 .91-.133 1.47-.373-.26.245-.46.56-.55.92h-1.45c-.29 0-.53.24-.53.537 0 .297.23.538.52.538h1.87l.03.003h2.83c.29 0 .52-.24.52-.538v-.006c0-.62-.29-1.17-.72-1.54v-1.29l-.04-.21c.28-.25.53-.5.73-.75zm-2.62 3.256c.16-.225.42-.372.714-.372s.553.147.715.372h-1.43zm.88-1.44l-.166-.01-.166.01v-.08l.282-.18.05-.033v.294zM18.173 55l-.332.23c-.26.176-.52.326-.76.452-.66.348-1.21.516-1.53.53.17-.337.75-1.023 1.82-1.733 1-.66 1.86-.97 2.29-.99-.14.3-.62.87-1.48 1.5z" fill="#67737B"/><path d="M10.525 2.896c.14 0 .272-.057.37-.158.1-.1.154-.24.154-.382 0-.143-.06-.28-.16-.382-.1-.1-.23-.157-.37-.157-.14 0-.27.056-.37.157-.1.1-.16.24-.16.383 0 .143.05.28.15.38.09.102.23.16.37.16zm4.21 3.2c.14 0 .273-.056.37-.157.1-.11.155-.24.155-.39 0-.15-.056-.28-.155-.38-.098-.1-.23-.16-.37-.16-.138 0-.27.05-.37.15-.1.1-.155.24-.155.38s.055.28.153.38c.098.1.232.16.37.16zm5.648-1.572c.14 0 .272-.057.37-.158.098-.1.154-.24.154-.382 0-.143-.056-.28-.155-.382-.098-.1-.23-.157-.37-.157-.138 0-.27.056-.37.157-.098.1-.154.24-.154.382 0 .143.055.28.153.38.1.102.24.16.38.16zM21.84.922c.098.102.233.16.372.16.14 0 .272-.058.37-.16.16-.163.2-.414.098-.62-.077-.16-.224-.267-.39-.293-.163-.03-.332.03-.448.15-.16.16-.2.41-.098.62l.096.13zm2.382 2.13c.14 0 .272-.058.37-.16.098-.1.154-.238.153-.38 0-.144-.056-.282-.155-.383-.098-.1-.23-.16-.37-.16-.138 0-.27.05-.37.15-.1.1-.155.24-.155.38s.055.28.153.38c.098.1.232.16.37.16zM5.156 4.456l.436.245.238.45c.092.18.268.28.46.28s.368-.1.46-.28l.238-.45.436-.24c.168-.09.273-.27.273-.47 0-.19-.104-.38-.273-.47l-.436-.24-.238-.45c-.092-.17-.268-.28-.46-.28s-.368.11-.46.28l-.238.45-.435.25c-.168.1-.273.28-.273.47 0 .2.104.38.273.47zm9.982-2.475l.436.25.238.45c.092.18.268.28.46.28.19 0 .368-.1.46-.28l.238-.45.436-.24c.168-.09.273-.27.273-.47 0-.2-.11-.38-.28-.47L16.97.8l-.24-.45c-.09-.173-.27-.28-.46-.28s-.37.107-.46.28l-.24.45-.437.245c-.168.095-.272.277-.272.473 0 .195.11.376.28.47zm16.244 8.79h-.177l-.114-.13-1.5-1.25-.75-1.75-.02-.04c-.23-.42-.57-.97-.87-1.14-.16-.1-1.05-.87-1.83-1.57-.12-.11-.29-.15-.45-.12l-1.54.35-.19.09-1.28.96-1.3-.35c-.2-.06-.42.02-.55.2l-1.25 1.72-.97.72h-.82c-.09 0-.18.03-.26.08l-.86.53H14.2l-.833-.45-.295-.7c-.11-.25-.4-.38-.65-.29l-2.34.82-1.41-.28-1.45-.77c-.16-.08-.34-.08-.5.01L4.75 8.47l-1.235.343c-.082.023-.157.065-.22.124l-.802.763-.015.015-.715.735-.916.314H.692c-.29 0-.524.24-.524.538 0 .297.234.538.524.538H31.38c.29 0 .524-.24.524-.538 0-.297-.234-.538-.524-.538zm-28.168-.28l.7-.66 1.174-.33.116-.05 1.746-.99 1.267.68.143.05 1.618.32c.09.02.182.01.268-.02l2.014-.71.177.42c.048.11.13.21.236.26l1.112.6c.075.04.16.06.244.06h2.71c.09 0 .18-.02.26-.07l.86-.52h.84c.11 0 .22-.03.31-.1l1.17-.87.11-.11 1.09-1.49 1.2.33c.15.04.31.01.44-.08l1.39-1.05 1.18-.26c.63.57 1.53 1.35 1.78 1.51.09.08.31.41.48.72l.79 1.85c.03.08.08.15.15.2l.76.63H2.94l.27-.27zm7.113 9h.002c.28 0 .52-.24.52-.53V16.5l.09.003c.63 0 1.14-.526 1.14-1.174v-1.14c0-.3-.24-.54-.53-.54-.29 0-.53.24-.53.54v1.13c0 .05-.05.1-.1.1-.06 0-.1-.05-.1-.1l-.01-.04v-2.49c0-.3-.24-.54-.53-.54-.29 0-.53.24-.53.53v3.11c0 .05-.04.09-.1.09s-.09-.05-.09-.1v-1.55c0-.3-.23-.54-.52-.54-.29 0-.525.24-.525.54v1.54c0 .65.51 1.17 1.142 1.17h.1v1.34H8.72c-.29 0-.524.24-.524.54 0 .29.235.53.524.53h1.61zm-3.654-2.56c-.29 0-.524.24-.524.54v1.56c0 .18-.15.33-.33.33-.18 0-.33-.15-.33-.33l-.01-.05v-3.41c0-.29-.24-.53-.53-.53-.29 0-.53.24-.53.54v4.26c0 .19-.15.33-.33.33-.18 0-.33-.14-.33-.33V17.7c0-.297-.23-.538-.52-.538-.29 0-.53.24-.53.537v2.11c0 .77.61 1.41 1.37 1.41.11 0 .22-.02.33-.05v2.26H2.77c-.29 0-.525.24-.525.54 0 .29.233.53.523.53h2.21c.29 0 .525-.24.525-.54v-3.6c.104.02.212.04.323.04.756 0 1.37-.64 1.37-1.41v-1.55c0-.3-.234-.54-.523-.54zm13.737 2.86c-1.397 0-3.48.83-5.58 2.22-1.41.93-2.63 2-3.44 2.99-1.368 1.68-1.2 2.75-.82 3.35.24.39.754.86 1.804.86.86 0 1.985-.32 3.215-.89v.36c-.73.52-1.24 1.32-1.39 2.26h-3.1c-.29 0-.53.24-.53.54 0 .3.23.54.52.54h9.15c.29 0 .52-.24.52-.54 0-1.15-.56-2.18-1.42-2.79v-2.71c.81-.64 1.51-1.32 2.04-1.97 1.36-1.67 1.2-2.75.82-3.35-.25-.39-.76-.86-1.81-.86zm-2.85 11.15h-2.29c.096-.41.297-.77.57-1.06.174-.18.377-.34.6-.46.31-.16.66-.26 1.03-.26s.722.1 1.03.26c.225.12.428.28.6.46.275.3.477.66.57 1.07h-2.11zm.747-2.75c-.267-.07-.548-.11-.837-.11-.29 0-.57.04-.836.11v-.39c.432-.24.872-.5 1.313-.79l.36-.24v1.43zm-1.493-3l-.243.16c-.34.21-.66.41-.98.58-1.31.72-2.4 1.08-3.06 1.13.34-.62 1.36-1.86 3.43-3.23 1.84-1.22 3.44-1.8 4.29-1.87-.34.62-1.35 1.86-3.43 3.24zM30.05 12.74c-.95 0-2.46.604-3.93 1.577-1 .666-1.87 1.423-2.45 2.13-.9 1.11-.81 1.784-.58 2.154.15.24.46.52 1.12.52.62 0 1.473-.25 2.397-.7v.38c-.48.37-.824.9-.954 1.52h-2.19c-.29 0-.522.24-.522.54 0 .3.24.54.53.54h2.61l.05.01h3.95c.29 0 .53-.24.53-.53v-.01c0-.84-.4-1.59-1.01-2.06V16.9c0-.13-.04-.245-.11-.337.45-.38.83-.765 1.13-1.14.9-1.106.82-1.78.58-2.15-.14-.234-.46-.514-1.11-.514zm-1.52 4.68v.902c-.14-.026-.29-.04-.44-.04-.15 0-.295.014-.44.04v-.477l.49-.31.175-.116h.22zm-1.79 2.886c.06-.15.14-.28.238-.41.213-.26.51-.44.85-.51l.264-.02.263.022c.34.064.64.25.85.513.1.12.18.26.237.41h-2.7zm1.25-3.96l-.415.29-.395.25-.05.03-.525.3c-1.045.568-1.92.83-2.394.83l-.22-.03c.01-.323.77-1.507 2.71-2.786 1.47-.97 2.75-1.407 3.37-1.407l.23.03c-.01.3-.66 1.335-2.29 2.5zM20.2 14.58c.703-.863.62-1.412.427-1.72-.125-.2-.387-.438-.925-.438-.72 0-1.804.43-2.896 1.153-.732.484-1.368 1.036-1.79 1.555-.703.864-.62 1.413-.427 1.72.12.2.38.44.92.44.4 0 .91-.133 1.47-.373-.26.245-.46.56-.55.92h-1.45c-.29 0-.53.24-.53.537 0 .297.23.538.52.538h1.87l.03.003h2.83c.29 0 .52-.24.52-.538v-.006c0-.62-.29-1.17-.72-1.54v-1.29l-.04-.21c.28-.25.53-.5.73-.75zm-2.62 3.256c.16-.225.42-.372.714-.372s.553.147.715.372h-1.43zm.88-1.44l-.166-.01-.166.01v-.08l.282-.18.05-.033v.294zM18.173 15l-.332.23c-.26.176-.52.326-.76.452-.66.348-1.21.516-1.53.53.17-.337.75-1.023 1.82-1.733 1-.66 1.86-.97 2.29-.99-.14.3-.62.87-1.48 1.5z" fill="#3A434E"/></g></svg>