<svg width="32" height="232" viewBox="0 0 32 232" xmlns="http://www.w3.org/2000/svg"><g fill="none"><path d="M31.01 146.913l-4.114-.33-1.9-.583-.12-.028-1.88-.32-.03-.005-3.025-.42-.12-.008h-.27c.23-.31.28-.72.12-1.07-.16-.37-.51-.61-.9-.61l-1.24.01.5-.12c.17-.04.32-.12.45-.24l2.73-2.56.05-.05 2.24-2.39 1.48-1.01 2.95-.23.1-.01 3.25-.57c.54-.1.9-.63.81-1.2-.09-.57-.6-.95-1.13-.85l-.32.05-1.64-3.64-.98-2.2-.42-2.87c-.03-.22-.195-.4-.405-.43l-1.79-.32c-.2-.04-.4.06-.51.25l-1.03 1.86-1.21 1.77-.844-3.18-.12-.61h1.22c.273 0 .495-.24.495-.52 0-.29-.22-.52-.49-.52h-1.42l-.406-2.1c-.03-.18-.16-.33-.325-.39s-.35-.02-.48.1l-1.4 1.284-2.308.8-.01.003-.073.034-.01.01-.07.05-.008.004-.004.007-.06.07-.01.013-.04.07v.01l-.01.02H14.2c-.27 0-.493.23-.493.52 0 .285.22.52.494.52h1.7l-.36 1.134-.02.108-.33 2.98-.84-1.33-1.15-2.31c-.07-.15-.21-.25-.37-.28-.16-.022-.31.035-.42.155l-1.56 1.71c-.08.09-.13.217-.13.346l-.05 2.3-1.01 1.97-.17.34-.836-.71-.64-1.27v-2.104c0-.18-.09-.35-.25-.45-.15-.09-.34-.09-.49 0l-2.05 1.24c-.084.06-.153.14-.2.23l-.69 1.52-.25-.53c-.063-.135-.177-.23-.313-.27l-1.05-.3c-.134-.04-.277-.02-.394.06-.12.075-.2.2-.224.344l-.29 1.66L.55 133.1c-.173.22-.15.55.06.73.097.08.21.12.32.12.14 0 .28-.06.38-.18l.38-.476.96-1.2c.056-.07.094-.15.11-.24l.216-1.24.32.09.5 1.06-.55 1.24-.076.17-.985 1.38c-.09.126-.12.288-.08.44l.3 1.217v2.28h-1c-.27 0-.495.23-.495.52 0 .286.22.518.494.518h6.92l-.36.7H6.33c-.272 0-.494.23-.494.52 0 .284.222.516.494.516h7.662c.193 0 .37-.12.45-.304.08-.19.048-.4-.08-.56l-.73-.88h5.745l-2.04 1.913-2.132.48c-.336.077-.61.33-.723.67l-.546 1.64-.05.26-.137-.05c-.18-.07-.4-.16-.8-.16s-.62.09-.8.16c-.14.053-.22.09-.44.09s-.31-.037-.44-.09c-.18-.074-.4-.164-.8-.164s-.62.09-.8.16c-.14.05-.22.09-.44.09s-.31-.04-.44-.09c-.18-.077-.4-.167-.8-.167s-.62.09-.8.166c-.14.05-.23.09-.44.09-.22 0-.31-.04-.44-.09-.18-.076-.4-.166-.8-.166s-.62.09-.8.163c-.14.05-.23.09-.44.09-.28 0-.5.23-.5.516 0 .286.22.517.49.517.4 0 .62-.09.79-.16.13-.052.22-.09.44-.09s.3.038.44.09c.17.07.39.16.79.16s.62-.09.79-.16c.133-.052.22-.09.44-.09s.3.038.44.09c.17.07.39.16.793.16s.62-.09.792-.16c.133-.052.22-.09.44-.09s.3.038.44.09c.17.07.39.16.793.16s.62-.09.795-.16c.132-.052.22-.09.44-.09s.304.038.44.09c.173.07.393.16.8.16l.34-.02c.11.044.22.066.34.066h.01l1.673-.01c-.22.3-.26.7-.11 1.04.16.37.51.61.9.61h2.41l2.94.41 1.804.31 1.94.6.2.04 4.213.33.072.006c.51 0 .943-.417.982-.96.04-.57-.367-1.07-.91-1.115zm-8.877-10.24l-1.732 1.853h-4.37l.28-1.374 1.58-.752c.17-.078.28-.243.29-.43l.12-1.638c.02-.285-.18-.535-.45-.557-.27-.022-.51.19-.53.476l-.1 1.34-1.54.74c-.14.07-.24.21-.27.37l-.18.92-.18.93h-1.77l-.14-.15-.98-.66-.15-.06-1.1-.28c-.17-.04-.35.01-.47.15l-.69.76-.263.16-.2.12h-2.9l.13-.11.07-.07 1.21-1.46 2.98-1.042c.093-.03.175-.092.235-.18l1.69-2.32 3.09-2.19.06-.06.01-.005.05-.07.01-.014.03-.074v-.013l.02-.08.006-.017v-.04l.486-4.33.388-1.23 1.23 1.46.05.055 1.13 1c.098.08.21.12.32.12.13 0 .258-.05.35-.15l.95-1.003.06-.08.028-.04.9 3.357-.55 1.02-.54 1-.636.03-.655.04c-.278.012-.488.26-.47.54.01.28.23.49.49.49h.02l1.56-.08c.17-.01.32-.11.41-.265l1.315-2.43 1.48-2.167 1.237 1.22c.09.093.21.14.34.14.09 0 .18-.02.26-.076l.88-.57.03.096 1.013 2.26 1.52 3.37-1.86.33-3.16.246c-.17.013-.33.07-.47.166l-1.774 1.22-.11.09-.054.05zm-9.523 3.168l.102.2.186.23h-3.83l.332-.64.09-.05.75-.44.096-.07.018-.02.46-.5.087-.09.37.1.38.1.63.42.14.1.2.71zm-9.25-2.28v-1.07l.608-.34.57-.32c.24-.13.33-.45.2-.7-.13-.25-.43-.34-.67-.21l-.884.51-.028-.11-.07-.28.304-.43.566-.79.052-.09.74-1.67 1.062-2.34 1.18-.71v1.33c0 .09.02.17.06.24l.74 1.49.094.13.035.04 1.37 1.17c.11.1.26.14.41.11.14-.03.27-.13.34-.26l1.52-2.962c.03-.07.05-.15.06-.232l.04-2.22.95-1.04.83 1.69.03.05 1.33 2.1-2.75 1.954-.11.112-1.65 2.26L7.33 136c-.082.03-.16.08-.215.15l-1.27 1.53-1.11.9H3.36v-.974zm15.434-13.54l.416-.14.17-.1.836-.76.197 1.02.1.52.102.52.073.38-.046.02-.146.08-.12.13-.23.37-.593.63-.755-.67-1.216-1.44h-.005l-.058-.07 1.27-.44zm7.817 2.22l.23 1.55-.16.07-.35.23-.39.26-.6-.6-.48-.47.68-1.22 1.1.2zm-16.06 21.08c.22 0 .31.04.44.09.18.07.4.16.8.16s.62-.09.8-.16c.14-.05.23-.09.44-.09s.31.04.44.09c.18.07.4.16.8.16s.62-.09.8-.16c.14-.05.22-.09.44-.09.28 0 .5-.23.5-.52 0-.28-.22-.51-.49-.51-.4 0-.62.09-.79.16-.13.06-.22.09-.43.09s-.31-.03-.44-.09c-.18-.07-.4-.16-.8-.16s-.62.09-.8.16c-.13.06-.22.09-.43.09s-.3-.03-.44-.09c-.17-.07-.39-.16-.79-.16s-.62.09-.794.16c-.13.06-.22.09-.44.09-.21 0-.3-.03-.43-.09-.18-.07-.4-.16-.8-.16s-.62.09-.8.16c-.133.06-.22.09-.44.09-.27 0-.49.23-.49.52 0 .29.22.52.49.52.4 0 .62-.09.8-.16.135-.05.224-.09.44-.09s.3.04.435.09c.17.07.39.16.8.16.4 0 .62-.09.79-.16.135-.05.22-.09.44-.09zm8.64 1.53c-.4 0-.62.09-.79.17-.13.06-.22.09-.44.09s-.3-.03-.43-.09c-.17-.07-.39-.16-.79-.16s-.62.09-.79.16c-.13.06-.22.09-.44.09s-.3-.03-.44-.09c-.17-.07-.39-.16-.79-.16s-.62.09-.79.16c-.13.06-.22.09-.44.09s-.3-.03-.43-.09c-.17-.07-.39-.16-.79-.16s-.62.09-.8.16c-.14.06-.23.09-.44.09-.27 0-.5.23-.5.52 0 .29.22.52.495.52.4 0 .62-.09.8-.16.13-.06.22-.09.438-.09s.308.04.44.09c.18.07.4.16.8.16s.62-.09.8-.16c.13-.05.22-.09.44-.09s.3.04.436.09c.18.08.4.17.8.17s.62-.09.8-.16c.135-.05.223-.09.44-.09s.303.04.437.09c.18.07.4.16.8.16s.62-.09.8-.16c.14-.05.227-.09.44-.09.276 0 .497-.23.497-.52 0-.28-.22-.52-.5-.52zM4.27 143.2c.22 0 .307.036.44.09.177.074.396.163.8.163.4 0 .62-.09.795-.165.138-.054.227-.09.44-.09.218 0 .306.035.44.09.176.073.395.162.797.162.4 0 .62-.09.797-.163.13-.054.22-.09.44-.09.27 0 .49-.233.49-.52 0-.285-.22-.517-.5-.517-.4 0-.62.09-.8.16-.14.055-.22.092-.44.092s-.31-.04-.44-.09c-.18-.076-.4-.165-.8-.165s-.62.09-.8.16c-.14.054-.22.09-.44.09s-.31-.036-.44-.09c-.18-.073-.39-.162-.8-.162s-.62.09-.8.16c-.13.055-.22.092-.44.092s-.3-.037-.44-.09c-.17-.074-.39-.163-.79-.163-.41 0-.63.09-.8.16-.14.058-.22.095-.44.095-.28 0-.5.23-.5.51s.22.52.49.52c.4 0 .62-.09.79-.16.13-.06.22-.09.44-.09s.3.03.434.09c.18.07.4.16.8.16s.62-.09.8-.16c.132-.06.22-.09.436-.09zm-1.48-19.46c.226.206.51.32.81.32h1.05l-.004.082c0 .32.13.623.36.836.196.18.446.28.705.28h3.51c.59 0 1.07-.502 1.07-1.118s-.47-1.118-1.06-1.118h-.08l.03-.243c0-.71-.55-1.29-1.22-1.29H3.6c-.296 0-.583.11-.807.32-.265.24-.417.59-.417.96s.15.71.415.96zm.65-1.148l.16-.064h4.337c.13 0 .236.11.236.247s-.11.247-.24.247c-.27 0-.492.233-.492.518 0 .286.22.518.5.518h1.28c.05 0 .08.036.08.08 0 .046-.03.082-.08.082h-3.5l-.05-.02-.02-.06.03-.062.05-.02c.28 0 .5-.232.5-.518 0-.286-.22-.518-.49-.518H3.6l-.157-.067c-.03-.027-.08-.09-.08-.185 0-.097.05-.157.08-.185zm8.51.693h5.01c.28 0 .5-.23.5-.518 0-.286-.22-.518-.494-.518h-5.01c-.273 0-.495.23-.495.51s.22.52.5.52" fill="#206FAC"/><path d="M31.01 106.913l-4.114-.33-1.9-.583-.12-.028-1.88-.32-.03-.005-3.025-.42-.12-.008h-.27c.23-.31.28-.72.12-1.07-.16-.37-.51-.61-.9-.61l-1.24.01.5-.12c.17-.04.32-.12.45-.24l2.73-2.56.05-.05 2.24-2.39 1.48-1.01 2.95-.23.1-.01 3.25-.57c.54-.1.9-.63.81-1.2-.09-.57-.6-.95-1.13-.85l-.32.05L29 90.73l-.98-2.2-.42-2.87c-.03-.22-.197-.4-.407-.43l-1.79-.32c-.2-.04-.4.06-.51.25l-1.03 1.86-1.21 1.77-.842-3.18-.12-.61h1.22c.28 0 .5-.24.5-.52 0-.29-.22-.52-.49-.52H21.5l-.41-2.1c-.037-.18-.16-.33-.328-.39s-.35-.02-.48.1l-1.4 1.286-2.31.8v.003l-.078.032-.015.01-.07.05-.01.003-.006.007-.06.07-.01.012-.04.07-.002.01-.01.02H14.2c-.27 0-.492.23-.492.52 0 .285.22.52.492.52h1.7l-.36 1.134-.02.107-.334 2.98-.84-1.33-1.146-2.3c-.076-.15-.21-.25-.37-.28-.16-.02-.317.034-.427.154L10.82 87.2c-.085.092-.133.216-.136.345l-.05 2.298-1.012 1.966-.174.34-.833-.71-.63-1.29v-2.1c0-.19-.093-.36-.246-.45-.16-.09-.35-.09-.5 0l-2.05 1.24c-.09.05-.16.13-.2.22l-.69 1.52-.25-.54c-.07-.13-.18-.23-.32-.27l-1.06-.3c-.13-.04-.28-.02-.39.06-.12.08-.2.2-.23.35l-.29 1.66-1.25 1.6c-.18.22-.15.54.06.73.09.08.2.12.32.12.14 0 .28-.07.38-.19l.38-.48.96-1.2c.05-.07.09-.15.1-.24l.21-1.24.32.09.5 1.06-.54 1.24-.07.17-.99 1.38c-.09.12-.12.28-.08.44l.31 1.21v2.28H1.4c-.27 0-.494.23-.494.51s.22.52.497.52h6.92l-.36.69H6.33c-.272 0-.494.23-.494.52 0 .28.222.51.494.51h7.662c.193 0 .37-.12.45-.31.08-.19.048-.4-.08-.56l-.73-.877h5.745l-2.04 1.915-2.132.49c-.336.072-.61.33-.723.67l-.546 1.634-.05.265-.137-.05c-.18-.07-.4-.16-.8-.16s-.62.09-.8.16c-.14.05-.22.09-.44.09s-.31-.04-.44-.09c-.18-.076-.4-.166-.8-.166s-.62.09-.8.16c-.14.05-.22.09-.44.09s-.31-.04-.44-.09c-.18-.08-.4-.17-.8-.17s-.62.09-.8.16c-.14.055-.23.09-.44.09-.22 0-.31-.035-.44-.09-.18-.072-.4-.162-.8-.162s-.62.09-.8.16c-.14.06-.23.09-.44.09-.28 0-.5.238-.5.52 0 .29.22.52.49.52.4 0 .62-.09.79-.16.13-.055.22-.09.44-.09s.3.035.44.09c.17.07.39.16.79.16s.62-.09.79-.16c.133-.055.22-.09.44-.09s.3.035.44.09c.17.07.39.16.793.16s.62-.09.792-.16c.133-.055.22-.09.44-.09s.3.035.44.09c.17.07.39.16.793.16s.62-.09.795-.16c.132-.055.22-.09.44-.09s.304.035.44.09c.173.07.393.16.8.16l.34-.023c.11.04.22.064.34.064h.01l1.673-.01c-.22.3-.26.7-.11 1.05.16.37.51.61.9.61h2.41l2.94.403 1.804.31 1.94.6.2.04 4.213.34h.072c.51 0 .943-.412.982-.955.04-.57-.367-1.07-.91-1.12zm-8.877-10.24L20.4 98.525h-4.373l.275-1.374 1.578-.75c.164-.08.274-.24.288-.43l.122-1.64c.02-.28-.182-.53-.454-.55-.27-.02-.51.19-.53.48l-.1 1.34-1.54.74c-.142.07-.246.21-.278.37l-.183.92-.185.93h-1.772l-.146-.16-.988-.66-.147-.06-1.104-.28c-.17-.04-.352.01-.474.15l-.7.76-.26.157-.2.118H6.35l.133-.11.072-.07 1.21-1.46 2.977-1.043c.094-.03.176-.093.236-.176l1.693-2.32 3.1-2.19.07-.06.01-.005.06-.07.01-.013.04-.075.01-.01.02-.08.01-.01.01-.03.49-4.324.39-1.23 1.23 1.46.05.05 1.13 1c.09.084.208.124.32.124.128 0 .25-.05.35-.15l.95-1.007.06-.08.023-.04.89 3.353-.55 1.02-.54 1-.63.03-.654.035c-.27.01-.48.25-.47.54.01.28.23.49.49.49h.02l1.56-.08c.17-.01.32-.11.4-.27l1.315-2.44 1.48-2.16 1.23 1.22c.098.097.22.14.34.14.09 0 .18-.02.26-.072l.88-.576.038.1 1.01 2.27 1.52 3.37-1.86.326-3.16.25c-.17.02-.33.07-.47.17l-1.79 1.2-.114.096-.056.05zM12.61 99.84l.102.196.186.223h-3.83l.332-.65.09-.06.75-.44.096-.08.018-.02.46-.5.087-.1.37.09.38.09.63.42.14.09.2.7zm-9.25-2.286v-1.07l.608-.346.57-.326c.24-.137.33-.45.2-.703-.13-.26-.43-.35-.67-.21l-.884.5-.028-.12-.07-.29.304-.43.566-.8.052-.09.74-1.68 1.062-2.33 1.178-.72v1.34c0 .08.018.16.055.24l.733 1.49.093.12.03.03 1.37 1.17c.11.09.26.13.4.1s.27-.12.34-.26l1.52-2.96c.03-.07.05-.15.05-.24l.05-2.22.95-1.046.83 1.69.02.045 1.33 2.1L12 92.492l-.11.117-1.65 2.26-2.96 1.04c-.085.03-.16.08-.218.15l-1.25 1.54-1.11.89H3.36v-.97zm15.434-13.546l.416-.144.17-.103.836-.76.197 1.02.1.52.102.52.073.38-.046.02-.146.08-.12.13-.23.37-.593.63-.755-.67-1.216-1.44h-.005l-.058-.07 1.27-.44zm7.817 2.216l.23 1.545-.16.06-.35.23-.39.25-.6-.6-.48-.47.68-1.22 1.1.19zm-16.06 21.08c.22 0 .31.036.44.09.18.072.4.162.8.162s.62-.09.8-.162c.14-.054.23-.09.44-.09s.31.036.44.09c.18.072.4.162.8.162s.62-.09.8-.162c.14-.054.22-.09.44-.09.28 0 .5-.232.5-.52 0-.285-.22-.516-.49-.516-.4 0-.62.09-.79.162-.13.055-.22.09-.43.09s-.31-.035-.44-.09c-.18-.072-.4-.162-.8-.162s-.62.09-.8.162c-.13.055-.22.09-.43.09s-.3-.035-.44-.09c-.17-.072-.39-.162-.79-.162s-.62.09-.794.162c-.13.055-.22.09-.44.09-.21 0-.3-.035-.43-.09-.18-.072-.4-.162-.8-.162s-.62.09-.8.162c-.133.055-.22.09-.44.09-.27 0-.49.232-.49.518 0 .286.22.518.49.518.4 0 .62-.09.8-.162.135-.054.224-.09.44-.09s.3.036.435.09c.17.072.39.162.8.162.4 0 .62-.09.79-.162.135-.054.22-.09.44-.09zm8.64 1.528c-.4 0-.62.09-.79.162-.13.055-.22.09-.44.09s-.3-.035-.43-.09c-.17-.072-.39-.162-.79-.162s-.62.09-.79.162c-.13.055-.22.09-.44.09s-.3-.035-.44-.09c-.17-.072-.39-.162-.79-.162s-.62.09-.79.162c-.13.055-.22.09-.44.09s-.3-.035-.43-.09c-.17-.072-.39-.162-.79-.162s-.62.09-.8.162c-.14.055-.23.09-.44.09-.27 0-.5.232-.5.52 0 .285.22.517.495.517.4 0 .62-.09.8-.16.13-.05.22-.09.438-.09s.308.04.44.09c.18.08.4.17.8.17s.62-.09.8-.16c.13-.05.22-.09.44-.09s.3.04.436.09c.18.08.4.17.8.17s.62-.09.8-.16c.135-.05.223-.09.44-.09s.303.04.437.09c.18.08.4.17.8.17s.62-.09.8-.16c.14-.05.227-.09.44-.09.276 0 .497-.23.497-.52 0-.28-.22-.52-.5-.52zm-14.92-5.637c.22 0 .31.036.44.09.18.074.4.163.8.163s.62-.09.8-.162c.14-.054.23-.09.44-.09.22 0 .31.035.44.09.18.073.4.162.8.162s.62-.09.8-.162c.14-.054.23-.09.44-.09.27 0 .5-.233.5-.52 0-.285-.22-.517-.49-.517-.4 0-.62.09-.79.16-.13.05-.22.09-.44.09s-.3-.04-.44-.09c-.17-.08-.39-.17-.79-.17s-.62.09-.79.16c-.14.05-.22.09-.44.09s-.302-.04-.44-.09c-.172-.08-.39-.17-.793-.17s-.62.09-.797.16c-.13.05-.22.09-.436.09s-.306-.04-.44-.09c-.18-.08-.396-.17-.8-.17s-.62.09-.8.16c-.13.05-.22.09-.44.09-.27 0-.49.23-.49.52 0 .28.22.52.49.52.4 0 .62-.09.795-.17.13-.06.22-.09.43-.09s.306.03.44.09c.18.07.4.16.8.16s.62-.09.8-.17c.134-.06.22-.09.44-.09zm-1.48-19.46c.23.206.51.32.81.32h1.05v.082c0 .32.13.625.36.838.2.18.45.28.71.28h3.5c.59 0 1.07-.502 1.07-1.118s-.47-1.117-1.06-1.117h-.08l.03-.247c0-.708-.55-1.283-1.23-1.283H3.6c-.297 0-.584.113-.808.32-.264.245-.416.595-.416.963 0 .367.15.718.415.962zm.65-1.148l.16-.062h4.34c.13 0 .24.11.24.247s-.11.247-.24.247c-.27 0-.49.23-.49.51h-.01c0 .28.22.52.5.52h1.28c.05 0 .08.03.08.08s-.03.08-.08.08h-3.5l-.05-.02-.02-.06.03-.06.05-.02c.28 0 .5-.23.5-.52 0-.29-.22-.52-.49-.52H3.6l-.157-.07c-.03-.03-.08-.09-.08-.19s.05-.16.08-.19zm8.51.695h5.01c.28 0 .5-.23.5-.518 0-.286-.22-.518-.49-.518h-5.01c-.27 0-.49.232-.49.518 0 .286.22.518.5.518" fill="#fff"/><path d="M31.01 66.913l-4.114-.33-1.9-.583-.12-.028-1.88-.32-.03-.005-3.025-.42-.12-.008h-.27c.23-.31.28-.72.12-1.07-.16-.37-.51-.61-.9-.61l-1.24.01.5-.12c.17-.04.32-.12.45-.24l2.73-2.56.05-.05 2.24-2.39 1.48-1.01 2.95-.23.1-.01 3.25-.57c.54-.1.9-.63.81-1.2-.09-.57-.6-.95-1.13-.85l-.32.05L29 50.73l-.98-2.2-.42-2.87c-.03-.22-.197-.4-.407-.43l-1.79-.32c-.2-.04-.4.06-.51.25l-1.03 1.86-1.21 1.77-.842-3.18-.12-.61h1.22c.28 0 .5-.24.5-.52 0-.29-.22-.52-.49-.52H21.5l-.41-2.1c-.037-.18-.16-.33-.328-.39s-.35-.02-.48.1l-1.4 1.286-2.31.8v.003l-.078.032-.015.01-.07.05-.01.003-.006.007-.06.07-.01.012-.04.07-.002.01-.01.02H14.2c-.27 0-.492.23-.492.52 0 .285.22.52.492.52h1.7l-.36 1.134-.02.107-.334 2.98-.84-1.33-1.146-2.3c-.076-.15-.21-.25-.37-.28-.16-.02-.317.034-.427.154L10.82 47.2c-.085.092-.133.216-.136.345l-.05 2.298-1.012 1.966-.174.34-.833-.71-.63-1.29v-2.1c0-.19-.093-.36-.246-.45-.16-.09-.35-.09-.5 0l-2.05 1.24c-.09.05-.16.13-.2.22l-.69 1.52-.25-.54c-.07-.13-.18-.23-.32-.27l-1.06-.3c-.13-.04-.28-.02-.39.06-.12.08-.2.2-.23.35l-.29 1.66-1.25 1.6c-.18.22-.15.54.06.73.09.08.2.12.32.12.14 0 .28-.07.38-.19l.38-.48.96-1.2c.05-.07.09-.15.1-.24l.21-1.24.32.09.5 1.06-.54 1.24-.07.17-.99 1.38c-.09.12-.12.28-.08.44l.31 1.21v2.28H1.4c-.27 0-.494.23-.494.51s.22.52.497.52h6.92l-.36.69H6.33c-.272 0-.494.23-.494.52 0 .28.222.51.494.51h7.662c.193 0 .37-.12.45-.31.08-.19.048-.4-.08-.56l-.73-.877h5.745l-2.04 1.915-2.132.49c-.336.072-.61.33-.723.67l-.546 1.634-.05.265-.137-.05c-.18-.07-.4-.16-.8-.16s-.62.09-.8.16c-.14.05-.22.09-.44.09s-.31-.04-.44-.09c-.18-.076-.4-.166-.8-.166s-.62.09-.8.16c-.14.05-.22.09-.44.09s-.31-.04-.44-.09c-.18-.08-.4-.17-.8-.17s-.62.09-.8.16c-.14.055-.23.09-.44.09-.22 0-.31-.035-.44-.09-.18-.072-.4-.162-.8-.162s-.62.09-.8.16c-.14.06-.23.09-.44.09-.28 0-.5.238-.5.52 0 .29.22.52.49.52.4 0 .62-.09.79-.16.13-.055.22-.09.44-.09s.3.035.44.09c.17.07.39.16.79.16s.62-.09.79-.16c.133-.055.22-.09.44-.09s.3.035.44.09c.17.07.39.16.793.16s.62-.09.792-.16c.133-.055.22-.09.44-.09s.3.035.44.09c.17.07.39.16.793.16s.62-.09.795-.16c.132-.055.22-.09.44-.09s.304.035.44.09c.173.07.393.16.8.16l.34-.023c.11.04.22.064.34.064h.01l1.673-.01c-.22.3-.26.7-.11 1.05.16.37.51.61.9.61h2.41l2.94.403 1.81.31 1.94.6.2.04 4.218.337.072.006c.51 0 .95-.42.987-.96.044-.57-.364-1.07-.91-1.12zm-8.877-10.24L20.4 58.525h-4.373l.275-1.374 1.578-.75c.164-.08.274-.24.288-.43l.122-1.64c.02-.28-.182-.53-.454-.55-.27-.02-.51.19-.53.48l-.1 1.34-1.54.74c-.142.07-.246.21-.278.37l-.183.92-.185.93h-1.772l-.146-.16-.988-.66-.147-.06-1.104-.28c-.17-.04-.352.01-.474.15l-.7.76-.26.157-.2.118H6.35l.133-.11.072-.07 1.21-1.46 2.977-1.043c.094-.03.176-.093.236-.176l1.693-2.32 3.1-2.19.07-.06.01-.005.06-.07.01-.013.04-.075.01-.01.02-.08.01-.01.01-.03.49-4.324.39-1.23 1.23 1.46.05.05 1.13 1c.09.084.208.124.32.124.128 0 .25-.05.35-.15l.95-1.007.06-.08.023-.04.89 3.353-.55 1.02-.54 1-.63.03-.654.035c-.27.01-.48.25-.47.54.01.28.23.49.49.49h.02l1.56-.08c.17-.01.32-.11.4-.27l1.315-2.44 1.48-2.16 1.23 1.22c.098.097.22.14.34.14.09 0 .18-.02.26-.072l.88-.576.038.1 1.01 2.27 1.52 3.37-1.86.326-3.16.25c-.17.02-.33.07-.47.17l-1.79 1.2-.114.096-.056.05zM12.61 59.84l.102.196.186.223h-3.83l.332-.65.09-.06.75-.44.096-.08.018-.02.46-.5.087-.1.37.09.38.09.63.42.14.09.2.7zm-9.25-2.286v-1.07l.608-.346.57-.326c.24-.137.33-.45.2-.703-.13-.26-.43-.35-.67-.21l-.884.5-.028-.12-.07-.29.304-.43.566-.8.052-.09.74-1.68 1.062-2.33 1.178-.72v1.34c0 .08.018.16.055.24l.733 1.49.093.12.03.03 1.37 1.17c.11.09.26.13.4.1s.27-.12.34-.26l1.52-2.96c.03-.07.05-.15.05-.24l.05-2.22.95-1.046.83 1.69.02.045 1.33 2.1L12 52.492l-.11.117-1.65 2.26-2.96 1.04c-.085.03-.16.08-.218.15l-1.25 1.54-1.11.89H3.36v-.97zm15.434-13.546l.416-.144.17-.103.836-.76.197 1.02.1.52.102.52.073.38-.046.02-.146.08-.12.13-.23.37-.593.63-.755-.67-1.216-1.44h-.005l-.058-.07 1.27-.44zm7.817 2.216l.23 1.545-.16.06-.35.23-.39.25-.6-.6-.48-.47.68-1.22 1.1.19zm-16.06 21.08c.22 0 .31.036.44.09.18.072.4.162.8.162s.62-.09.8-.162c.14-.054.23-.09.44-.09s.31.036.44.09c.18.072.4.162.8.162s.62-.09.8-.162c.14-.054.22-.09.44-.09.28 0 .5-.232.5-.52 0-.285-.22-.516-.49-.516-.4 0-.62.09-.8.162-.13.055-.22.09-.44.09s-.3-.035-.44-.09c-.17-.072-.39-.162-.79-.162s-.62.09-.8.162c-.13.055-.22.09-.44.09s-.3-.035-.44-.09c-.18-.072-.39-.162-.8-.162-.4 0-.62.09-.79.162-.13.055-.22.09-.44.09-.21 0-.3-.035-.44-.09-.17-.072-.39-.162-.8-.162s-.62.09-.79.162c-.13.055-.22.09-.44.09-.27 0-.49.232-.49.518 0 .286.22.518.5.518.4 0 .62-.09.8-.162.13-.054.22-.09.44-.09s.31.036.44.09c.18.072.4.162.8.162s.62-.09.8-.162c.136-.054.225-.09.44-.09zm8.64 1.528c-.4 0-.62.09-.79.162-.13.055-.22.09-.44.09s-.3-.035-.43-.09c-.17-.072-.39-.162-.79-.162s-.62.09-.79.162c-.13.055-.22.09-.44.09s-.3-.035-.44-.09c-.17-.072-.39-.162-.79-.162s-.62.09-.8.162c-.13.055-.22.09-.43.09s-.3-.035-.43-.09c-.17-.072-.39-.162-.79-.162s-.62.09-.8.162c-.13.055-.22.09-.44.09-.27 0-.49.232-.49.52 0 .285.22.517.5.517.4 0 .62-.09.8-.16.13-.05.22-.09.436-.09s.306.04.44.09c.175.08.395.17.797.17.4 0 .62-.09.797-.16.13-.05.22-.09.44-.09s.3.04.432.09c.176.08.396.17.8.17.4 0 .62-.09.8-.16.135-.05.223-.09.44-.09s.303.04.44.09c.174.08.393.17.795.17.4 0 .62-.09.8-.16.135-.05.22-.09.44-.09.273 0 .494-.23.494-.52 0-.28-.22-.52-.494-.52zM4.27 63.195c.215 0 .303.036.437.09.176.074.395.163.798.163.4 0 .62-.09.796-.162.14-.054.23-.09.44-.09.22 0 .31.035.44.09.18.073.4.162.8.162s.62-.09.8-.162c.14-.054.23-.09.44-.09.27 0 .5-.233.5-.52 0-.285-.22-.517-.49-.517-.4 0-.62.09-.79.16-.13.05-.22.09-.43.09s-.3-.04-.43-.09c-.17-.08-.39-.17-.79-.17s-.62.09-.8.16c-.13.05-.22.09-.43.09s-.3-.04-.44-.09c-.17-.08-.39-.17-.79-.17s-.62.09-.8.16c-.13.05-.22.09-.43.09s-.306-.04-.44-.09c-.175-.08-.394-.17-.795-.17-.405 0-.62.09-.8.16-.13.05-.22.09-.44.09-.274 0-.496.23-.496.52 0 .28.22.52.496.52.4 0 .62-.09.8-.17.134-.06.224-.09.44-.09s.303.03.436.09c.18.07.4.16.8.16s.62-.09.8-.17c.13-.06.22-.09.435-.09zm-1.48-19.46c.222.206.51.32.806.32H4.65l-.005.082c0 .32.13.625.36.838.196.18.446.28.705.28h3.505c.587 0 1.064-.502 1.064-1.118S9.8 43.02 9.21 43.02h-.08l.024-.247c0-.708-.548-1.283-1.223-1.283H3.6c-.297 0-.584.113-.808.32-.264.245-.416.595-.416.963 0 .367.15.718.415.962zm.65-1.148l.156-.062h4.337c.13 0 .236.11.236.247s-.11.247-.24.247c-.27 0-.5.23-.5.51s.22.52.49.52h1.29c.04 0 .07.03.07.08s-.04.08-.08.08H5.7l-.05-.02-.027-.06.03-.06.05-.02c.28 0 .5-.23.5-.52 0-.29-.22-.52-.49-.52H3.6l-.155-.07c-.03-.03-.08-.09-.08-.19s.05-.16.08-.19zm8.51.695h5.01c.275 0 .496-.23.496-.518 0-.286-.22-.518-.494-.518h-5.01c-.27 0-.493.232-.493.518 0 .286.22.518.49.518" fill="#67737B"/><path d="M31.01 26.913l-4.114-.33-1.9-.583-.12-.028-1.88-.32-.03-.005-3.025-.42-.12-.008h-.27c.23-.31.28-.72.12-1.07-.16-.37-.51-.61-.9-.61l-1.24.01.5-.12c.17-.04.32-.12.45-.24l2.73-2.56.05-.05 2.24-2.39 1.48-1.01 2.95-.23.1-.01 3.25-.57c.54-.1.9-.63.81-1.2-.09-.57-.6-.95-1.13-.85l-.32.05L29 10.73l-.99-2.2-.42-2.87c-.03-.22-.196-.4-.406-.43l-1.79-.32c-.2-.04-.402.06-.505.25l-1.07 1.89-1.21 1.77-.85-3.18-.12-.61h1.21c.28 0 .5-.23.5-.52 0-.29-.22-.52-.49-.52h-1.42l-.4-2.1c-.03-.18-.16-.33-.32-.39s-.35-.02-.48.1l-1.41 1.3-2.31.8h-.01l-.07.03-.01.01-.07.05h-.01l-.06.06-.01.01-.04.07v.01l-.01.02H14.2c-.27 0-.49.23-.49.52 0 .29.22.52.5.52h1.7l-.36 1.132-.02.1-.333 2.98-.84-1.33-1.14-2.3c-.072-.15-.21-.25-.37-.275-.155-.02-.313.037-.423.157l-1.57 1.72c-.086.09-.134.213-.137.342l-.05 2.3L9.65 11.8l-.172.34-.83-.71L8 10.16v-2.1c0-.184-.1-.355-.25-.447-.16-.095-.35-.095-.5 0L5.19 8.86c-.09.053-.16.132-.2.226l-.69 1.518-.25-.534c-.06-.133-.18-.23-.31-.27l-1.06-.3c-.134-.04-.277-.016-.394.06-.117.078-.198.204-.223.347l-.287 1.66L.52 13.142c-.176.22-.148.546.06.73.094.08.206.12.318.12.14 0 .28-.063.38-.185l.38-.476.96-1.2c.055-.07.093-.15.108-.24l.214-1.24.32.09.5 1.06-.547 1.24-.074.17-.99 1.38c-.09.13-.12.29-.08.44l.3 1.22v2.29h-.99c-.27 0-.5.23-.5.52 0 .29.22.52.49.52H8.3l-.36.7H6.33c-.272 0-.494.23-.494.52 0 .29.222.52.494.52h7.662c.193 0 .37-.12.45-.3.08-.18.048-.4-.08-.55l-.73-.87h5.745l-2.04 1.91-2.132.49c-.336.08-.61.33-.723.67l-.546 1.64-.05.26-.137-.05c-.18-.07-.4-.16-.8-.16s-.62.09-.8.16c-.14.06-.22.09-.44.09s-.31-.03-.44-.09c-.18-.07-.4-.16-.8-.16s-.62.09-.8.16c-.14.06-.22.09-.44.09s-.31-.03-.44-.09c-.17-.08-.39-.17-.79-.17s-.62.09-.8.17c-.14.05-.23.09-.44.09-.22 0-.31-.04-.44-.09-.18-.07-.4-.16-.8-.16s-.62.09-.8.16c-.13.05-.22.09-.44.09-.27 0-.5.23-.5.518 0 .29.22.52.49.52.4 0 .62-.09.8-.16.13-.056.22-.09.44-.09s.3.034.44.09c.17.07.39.16.8.16.4 0 .62-.09.79-.16.13-.056.22-.09.44-.09s.3.034.44.09c.17.07.39.16.79.16s.62-.09.79-.16c.14-.056.228-.09.44-.09s.308.034.44.09c.178.07.397.16.8.16s.62-.09.8-.16c.134-.056.22-.09.44-.09s.303.034.44.09c.17.07.39.16.794.16l.34-.024c.11.04.224.063.343.063h.01l1.676-.01c-.21.3-.255.7-.11 1.045.16.37.51.61.9.61h2.41l2.95.406 1.81.3 1.94.59.204.04 4.217.335h.07c.51 0 .943-.414.98-.96.046-.57-.36-1.07-.91-1.113zm-8.877-10.24L20.4 18.525h-4.373l.275-1.374 1.578-.75c.164-.08.274-.24.288-.43l.122-1.64c.02-.28-.182-.53-.454-.55-.27-.02-.51.19-.53.48l-.1 1.34-1.54.74c-.142.07-.246.21-.278.37l-.183.92-.185.93h-1.772l-.146-.16-.988-.66-.147-.06-1.104-.28c-.17-.04-.352.01-.474.15l-.7.76-.26.157-.2.118H6.35l.133-.11.072-.07 1.21-1.46 2.977-1.043c.094-.03.176-.093.236-.176l1.693-2.32 3.1-2.19.07-.06.01-.005.06-.07.01-.013.04-.075.01-.01.02-.08.01-.01.01-.03.49-4.324.39-1.23 1.23 1.46.05.05 1.13 1c.09.084.208.124.32.124.128 0 .25-.05.35-.15l.94-1.01.06-.08.03-.037.89 3.354-.55 1.02-.54 1-.63.03-.655.034c-.27.01-.48.255-.47.54.01.28.23.49.49.49h.02l1.56-.08c.17-.01.32-.11.4-.265l1.32-2.44 1.48-2.16 1.23 1.22c.095.093.22.14.34.14.09 0 .18-.024.26-.076l.883-.57.03.094 1.016 2.27 1.52 3.37-1.86.324-3.16.244c-.163.016-.324.07-.464.17l-1.777 1.22-.12.09-.055.05zM12.61 19.84l.102.196.186.223h-3.83l.332-.65.09-.06.75-.44.096-.08.018-.02.46-.5.087-.1.37.09.38.09.63.42.14.09.2.7zm-9.25-2.286v-1.07l.608-.346.57-.326c.24-.137.33-.45.2-.703-.13-.26-.43-.35-.67-.21l-.884.5-.028-.12-.07-.29.304-.43.566-.8.052-.09.74-1.68 1.064-2.33 1.178-.71v1.34c0 .08.01.16.05.24l.73 1.49.092.12.034.03 1.377 1.17c.114.09.263.13.407.1.144-.03.268-.12.338-.26l1.524-2.96c.036-.07.056-.15.06-.23l.044-2.22.954-1.04.837 1.69.027.04 1.33 2.1-2.754 1.95-.115.12-1.648 2.26-2.963 1.04c-.083.03-.158.08-.216.15L5.84 17.63l-1.11.894H3.36v-.972zM18.794 4.008l.416-.144.17-.103.836-.76.197 1.02.1.52.102.52.073.38-.046.02-.146.08-.12.13-.23.37-.593.63-.755-.67-1.216-1.44h-.005l-.058-.07 1.27-.44zm7.817 2.216l.23 1.545-.16.06-.35.23-.39.25-.6-.6-.48-.47.68-1.22 1.1.19zm-16.06 21.08c.22 0 .31.036.44.09.18.072.4.162.8.162s.62-.09.8-.162c.14-.054.23-.09.44-.09s.31.036.44.09c.18.072.4.162.8.162s.62-.09.8-.162c.14-.054.22-.09.44-.09.28 0 .5-.232.5-.52 0-.285-.22-.516-.49-.516-.4 0-.62.09-.8.162-.13.055-.22.09-.44.09s-.3-.035-.44-.09c-.17-.072-.39-.162-.79-.162s-.62.09-.8.162c-.13.055-.22.09-.44.09s-.3-.035-.44-.09c-.18-.072-.39-.162-.8-.162-.4 0-.62.09-.79.162-.13.055-.22.09-.44.09-.21 0-.3-.035-.44-.09-.17-.072-.39-.162-.8-.162s-.62.09-.79.162c-.13.055-.22.09-.44.09-.27 0-.49.232-.49.518 0 .286.22.518.5.518.4 0 .62-.09.8-.162.13-.054.22-.09.44-.09s.31.036.44.09c.18.072.4.162.8.162s.62-.09.8-.162c.136-.054.225-.09.44-.09zm8.64 1.528c-.4 0-.62.09-.79.162-.13.055-.22.09-.44.09s-.3-.035-.43-.09c-.17-.072-.39-.162-.79-.162s-.62.09-.79.162c-.13.055-.22.09-.44.09s-.3-.035-.44-.09c-.17-.072-.39-.162-.79-.162s-.62.09-.8.162c-.13.055-.22.09-.43.09s-.3-.035-.43-.09c-.17-.072-.39-.162-.79-.162s-.62.09-.8.162c-.13.055-.22.09-.44.09-.27 0-.49.232-.49.52 0 .285.22.517.5.517.4 0 .62-.09.8-.16.13-.05.22-.09.436-.09s.306.04.44.09c.175.08.395.17.797.17.4 0 .62-.09.797-.16.13-.05.22-.09.44-.09s.3.04.432.09c.176.08.396.17.8.17.4 0 .62-.09.8-.16.135-.05.223-.09.44-.09s.303.04.44.09c.174.08.393.17.795.17.4 0 .62-.09.8-.16.135-.05.22-.09.44-.09.273 0 .494-.23.494-.52 0-.28-.22-.52-.494-.52zM4.27 23.195c.215 0 .303.036.437.09.176.074.395.163.798.163.4 0 .62-.09.796-.162.14-.054.23-.09.44-.09.22 0 .31.035.44.09.18.073.4.162.8.162s.62-.09.8-.162c.14-.054.23-.09.44-.09.27 0 .5-.233.5-.52 0-.285-.22-.517-.49-.517-.4 0-.62.09-.79.16-.13.05-.22.09-.43.09s-.3-.04-.43-.09c-.17-.08-.39-.17-.79-.17s-.62.09-.8.16c-.13.05-.22.09-.43.09s-.3-.04-.44-.09c-.17-.08-.39-.17-.79-.17s-.62.09-.8.16c-.13.05-.22.09-.43.09s-.306-.04-.44-.09c-.175-.08-.394-.17-.795-.17-.405 0-.62.09-.8.16-.13.05-.22.09-.44.09-.274 0-.496.23-.496.52 0 .28.22.52.496.52.4 0 .62-.09.8-.17.134-.06.224-.09.44-.09s.303.03.436.09c.18.07.4.16.8.16s.62-.09.8-.17c.13-.06.22-.09.435-.09zM2.79 3.735c.222.206.51.32.806.32H4.65l-.005.082c0 .32.13.625.36.838.196.18.446.28.705.28h3.505c.587 0 1.064-.502 1.064-1.118S9.8 3.02 9.21 3.02h-.08l.024-.247c0-.708-.548-1.283-1.223-1.283H3.6c-.297 0-.584.113-.808.32-.264.245-.416.595-.416.963 0 .367.15.718.415.962zm.65-1.148l.156-.062h4.337c.13 0 .236.11.236.247s-.11.247-.24.247c-.27 0-.5.23-.5.51s.22.52.49.52h1.29c.04 0 .07.03.07.08s-.04.08-.08.08H5.7l-.05-.02-.027-.06.03-.06.05-.02c.28 0 .5-.23.5-.52 0-.29-.22-.52-.49-.52H3.6l-.155-.07c-.03-.03-.08-.09-.08-.19s.05-.16.08-.19zm8.51.695h5.01c.275 0 .496-.23.496-.518 0-.286-.22-.518-.494-.518h-5.01c-.27 0-.493.232-.493.518 0 .286.22.518.49.518" fill="#3A434E"/></g></svg>