<svg width="32" height="232" viewBox="0 0 32 232" xmlns="http://www.w3.org/2000/svg"><g fill="none"><path d="M30.877 148.822H28.92l1.916-9.77c.03-.147-.01-.3-.104-.416-.095-.116-.237-.184-.386-.184h-4.42v-1c.16-.06.285-.2.32-.378l.32-1.66c.262.047.532.072.805.072.36 0 .72-.042 1.07-.126 2.17-.516 3.67-2.517 3.56-4.757-.01-.208-.14-.39-.34-.454-.19-.07-.41-.01-.54.16-.39.49-.85.91-1.36 1.25.67-1.7.29-3.68-1.03-5.01-.14-.15-.37-.19-.56-.11-.19.08-.3.28-.29.49.02.25.02.49 0 .74-.21-.51-.51-.97-.88-1.37-.33-1.49-1.14-2.84-2.34-3.83-.18-.16-.45-.16-.63 0-1.19.99-2.01 2.34-2.34 3.82-.37.4-.67.86-.88 1.37-.01-.25-.01-.5 0-.75.01-.21-.1-.41-.29-.49-.19-.09-.41-.05-.55.1-1.33 1.33-1.7 3.31-1.03 5.01-.502-.34-.96-.76-1.36-1.25-.13-.16-.342-.23-.54-.16-.2.06-.335.24-.344.45-.107 2.24 1.39 4.24 3.56 4.75.35.09.71.13 1.068.13.28 0 .55-.03.81-.07l.32 1.66c.04.17.16.32.32.37v1H19.5c-.27 0-.5.22-.5.5v1.11c-3.1-.317-7.253-1.008-10.82-2.51.02-1.9.07-4.09.16-6.597l.06-.116.453-1.4h.34c.275 0 .5-.23.5-.51 0-.113-.04-.22-.106-.31l-.86-1.324c-.093-.14-.25-.226-.42-.226h-.14l-.705-5.41c-.036-.25-.248-.44-.498-.44s-.46.19-.493.44l-.7 5.41h-.09c-.17 0-.32.084-.42.23l-.88 1.36c-.1.15-.11.35-.02.51.09.17.26.27.44.27h.34l.46 1.4c.03.08.07.15.13.21.07 1.98.12 3.758.14 5.35-.98-.572-1.87-1.233-2.62-1.992-.14-.14-.36-.18-.54-.11-.19.08-.31.265-.31.47v14.06H1.01c-.55 0-1 .45-1 1.003s.45 1.01 1 1.01h29.87c.552 0 1-.45 1-1s-.45-1.01-1-1.01zm-1.14-9.364l-1.835 9.364h-.58l-.493-6.3c-.02-.262-.24-.464-.5-.464h-.41v-2.6h3.81zm-23.055-8.12h.592c-.075 2.15-.12 4.065-.14 5.77l-.006.553-.004.56c-.008 1.27-.003 2.41.013 3.43l.01.51.01.51.025.96.017.51.02.5.05 1.13.03.51.03.51.07.87.04.5.05.51.02.19.06.44H6.36l.06-.44.026-.19.054-.5.048-.5.07-.87.033-.504.03-.504.06-1.13.02-.506.02-.506.03-.954.01-.5.01-.5c.02-1.06.02-2.246.01-3.56V137c-.02-1.668-.06-3.53-.14-5.616zM5.9 128.08h2.086l.23.356H5.67l.114-.176.117-.18zm1.847 1.362l-.24.74h-1.13l-.24-.74h1.61zm11.205 11.64l1 .09c1.16.096 2.115.138 2.756.157v.31H8.138c-.014-.9-.02-1.9-.016-3 1.98.79 4.296 1.43 6.935 1.9 1.393.24 2.72.41 3.894.53zm1.473-6.702c-1.234-.293-2.19-1.2-2.592-2.344.644.52 1.372.918 2.162 1.187.528.507 1.166.88 1.862 1.09l.24.067-.218.045c-.21.035-.41.054-.62.054-.28 0-.56-.04-.84-.1zm-.233-2.466c-.716-1.054-.817-2.372-.347-3.49.113.72.337 1.417.664 2.074.16.777.52 1.478 1.02 2.053.17.2.35.39.55.55.15.13.31.25.48.35-.41-.07-.79-.2-1.15-.4-.33-.18-.64-.42-.9-.7-.13-.13-.24-.27-.34-.42zm1.244-1.895c-.072-.51-.036-1 .088-1.47.1-.38.26-.74.47-1.06.165-.25.36-.49.582-.69l.08-.08c-.057.18-.103.36-.144.55-.188.84-.225 1.71-.1 2.59l.087.48c.13.64.35 1.26.65 1.83l.02.04.15.27.07.12.12.19c-.15-.07-.29-.14-.42-.23l-.07-.05c-.81-.53-1.39-1.38-1.58-2.38l-.03-.15zm2.88-6.48c.526.5.95 1.09 1.255 1.74-.15-.08-.31-.14-.48-.2-.19-.07-.41-.01-.54.15-.13.16-.15.38-.05.57.68 1.2.93 2.55.74 3.92-.11.81-.38 1.58-.79 2.27l-.12.12-.12-.12c-.4-.69-.67-1.46-.79-2.27-.19-1.37.06-2.73.74-3.93.1-.19.08-.41-.05-.57-.13-.16-.35-.23-.54-.16-.17.05-.33.12-.48.19.3-.65.73-1.24 1.25-1.74zm2.88 6.47l-.026.15c-.185 1-.77 1.85-1.573 2.38l-.07.04.007-.06-.03-.22-.046-.1.022-.04c.3-.58.52-1.19.655-1.84l.087-.49c.125-.88.088-1.75-.1-2.6-.04-.19-.087-.37-.143-.55l.07.07c.22.21.41.44.58.69.21.32.37.68.47 1.06.12.466.16.963.09 1.465zm.173 4.46c-.21 0-.42-.02-.62-.06l-.22-.05.24-.07c.69-.21 1.33-.59 1.86-1.09.79-.27 1.52-.67 2.16-1.19-.4 1.14-1.36 2.05-2.6 2.34-.28.06-.56.1-.84.1zm.73-2.14c-.27.28-.57.52-.9.7-.36.19-.74.33-1.14.4.17-.11.33-.23.48-.35.2-.17.39-.36.56-.55.49-.58.85-1.28 1.02-2.06.32-.66.55-1.36.66-2.08.47 1.12.37 2.44-.35 3.49-.11.15-.22.29-.34.43zm-3.99 2.15h.4c.33.26.69.47 1.08.64l-.26 1.34h-2.05l-.26-1.35c.39-.16.75-.38 1.08-.64zm-.41 3.96v-.97h1.22v4.57H23.7v-3.61zm2.66 10.98h-4.1v-.11l.49-6.26h3.1l.5 6.36zm-20.63-4.81l-.06 1.13H3.33v-1.13h2.4zm-2.4 2.14h2.28l-.07.87H3.33v-.87zm0-4.1h2.46l-.03.95H3.33v-.96zm5.28 6.67l-.08-.51-.03-.2h12.81l-.06.7H8.61zm-.28-2.58h13.13l-.07.87H8.41l-.07-.87zm-.12-2.13h13.42l-.09 1.13H8.27l-.055-1.13zm-.07-1.96h13.64l-.08.95H8.18l-.024-.96zm-2.34-1H3.33v-5.75c.727.6 1.558 1.16 2.49 1.67.016 1.54.01 2.89-.01 4.07zm-2.48 7.17v-.2h2.1l-.03.19-.08.5h-2v-.51zm16.62-9.37h2.76v.86c-.64-.02-1.6-.07-2.76-.16v-.71zM7.1 127.01h-.37l.184-1.408.183 1.4zm5.76 2.673l.135.09c.068.037.144.057.22.057.08 0 .156-.02.226-.054.25-.12.35-.42.22-.67-.05-.1-.12-.18-.22-.225-.18-.09-.42-.05-.57.1-.15.16-.19.39-.09.59l.09.13zm-2.427-3.48c.07.038.15.056.23.056.132 0 .26-.06.353-.15.153-.16.19-.39.095-.58-.04-.1-.12-.18-.22-.23-.08-.05-.18-.06-.28-.05l-.2.07-.09.07c-.15.15-.19.39-.09.58.05.09.13.17.22.22zm.23 8.04c0 .185.1.354.26.44l.417.23.227.42c.088.16.256.27.438.27.184 0 .35-.1.44-.26l.226-.42.42-.23c.16-.085.26-.255.26-.44s-.1-.352-.26-.44l-.41-.23-.23-.416c-.09-.16-.25-.26-.44-.26s-.35.1-.44.263l-.22.42-.41.23c-.16.087-.26.257-.26.44" fill="#206FAC"/><path d="M30.877 108.822H28.92l1.916-9.77c.03-.147-.01-.3-.104-.416-.095-.116-.237-.184-.386-.184h-4.42v-1c.16-.06.285-.2.32-.378l.32-1.66c.262.047.532.072.805.072.36 0 .72-.042 1.07-.126 2.17-.516 3.67-2.517 3.56-4.757-.01-.208-.14-.39-.34-.454-.19-.07-.41-.01-.54.16-.39.49-.85.91-1.36 1.25.67-1.7.29-3.68-1.03-5.01-.14-.15-.37-.19-.56-.11-.19.08-.3.28-.29.49.02.25.02.49 0 .74-.21-.51-.51-.97-.88-1.37-.33-1.49-1.14-2.84-2.34-3.83-.18-.16-.45-.16-.63 0-1.19.99-2.01 2.34-2.34 3.82-.37.4-.67.86-.88 1.37-.01-.25-.01-.5 0-.75.01-.21-.1-.41-.29-.49-.19-.09-.41-.05-.55.1-1.33 1.33-1.7 3.31-1.03 5.01-.502-.34-.96-.76-1.36-1.25-.13-.16-.342-.23-.54-.16-.2.06-.335.24-.344.45-.107 2.24 1.39 4.24 3.56 4.75.35.09.71.13 1.068.13.28 0 .55-.03.81-.07l.32 1.66c.04.17.16.32.32.37v1H19.5c-.27 0-.5.22-.5.5v1.11c-3.1-.317-7.253-1.008-10.82-2.51.02-1.9.07-4.09.16-6.597l.06-.116.453-1.4h.34c.275 0 .5-.23.5-.51 0-.113-.04-.22-.106-.31l-.87-1.32c-.09-.14-.25-.225-.416-.225h-.14l-.71-5.408c-.03-.25-.24-.44-.49-.44s-.46.184-.49.44l-.704 5.41h-.09c-.17 0-.323.08-.415.223l-.882 1.37c-.1.155-.11.35-.027.515.09.16.26.26.44.26h.34l.46 1.41c.03.08.07.15.13.2.07 1.98.12 3.76.14 5.354-.98-.58-1.87-1.24-2.62-2-.14-.143-.36-.186-.54-.11-.19.08-.31.263-.31.467v14.06H1c-.552 0-1 .45-1 1.004 0 .56.448 1.01 1 1.01h29.88c.552 0 1-.45 1-1.004s-.45-1.004-1-1.004zm-1.14-9.364l-1.835 9.364h-.58l-.493-6.3c-.02-.262-.24-.464-.5-.464h-.41v-2.6h3.81zm-23.055-8.12h.592c-.075 2.15-.12 4.065-.14 5.77l-.006.553-.004.56c-.008 1.27-.003 2.41.013 3.43l.01.51.01.51.025.96.017.51.02.5.05 1.13.03.51.03.51.07.87.04.5.05.51.02.19.06.44H6.36l.06-.44.026-.19.054-.5.048-.5.07-.87.033-.504.03-.504.06-1.13.02-.506.02-.506.03-.954.01-.5.01-.5c.02-1.06.02-2.246.01-3.56V97c-.02-1.668-.06-3.53-.14-5.616zM5.9 88.08h2.086l.23.356H5.67l.114-.176.117-.18zm1.847 1.362l-.24.74h-1.13l-.24-.74h1.61zm11.205 11.64l1 .09c1.16.096 2.115.138 2.756.157v.31H8.138c-.014-.9-.02-1.9-.016-3 1.98.79 4.296 1.43 6.935 1.9 1.393.24 2.72.41 3.894.53zm1.473-6.702c-1.234-.293-2.19-1.2-2.592-2.344.644.52 1.372.918 2.162 1.187.528.507 1.166.88 1.862 1.09l.24.067-.218.045c-.21.035-.41.054-.62.054-.28 0-.56-.04-.84-.1zm-.233-2.466c-.716-1.054-.817-2.372-.347-3.49.113.72.337 1.417.664 2.074.16.777.52 1.478 1.02 2.053.17.2.35.39.55.55.15.13.31.25.48.35-.41-.07-.79-.2-1.15-.4-.33-.18-.64-.42-.9-.7-.13-.13-.24-.27-.34-.42zm1.244-1.895c-.072-.51-.036-1 .088-1.47.1-.38.26-.74.47-1.06.165-.25.36-.49.582-.69l.08-.08c-.057.18-.103.36-.144.55-.188.84-.225 1.71-.1 2.59l.087.48c.13.64.35 1.26.65 1.83l.02.04.15.27.07.12.12.19c-.15-.07-.29-.14-.42-.23l-.07-.05c-.81-.53-1.39-1.38-1.58-2.38l-.02-.14zm2.88-6.48c.526.5.95 1.09 1.255 1.74-.15-.08-.31-.14-.48-.2-.19-.07-.41-.01-.54.15-.13.16-.15.38-.05.57.68 1.2.93 2.55.74 3.92-.11.81-.38 1.58-.79 2.27l-.12.12-.13-.11c-.4-.69-.67-1.46-.79-2.27-.19-1.37.06-2.73.74-3.93.1-.19.08-.41-.05-.57-.13-.16-.35-.23-.54-.16-.17.05-.33.12-.48.19.3-.65.72-1.24 1.25-1.74zm2.88 6.47l-.026.15c-.185 1-.77 1.85-1.573 2.38l-.07.04.007-.06-.03-.22-.046-.1.022-.04c.3-.58.52-1.19.655-1.84l.087-.49c.125-.88.088-1.75-.1-2.6-.04-.19-.087-.37-.143-.55l.07.07c.22.21.41.44.58.69.21.32.37.68.47 1.06.12.466.16.963.09 1.465zm.173 4.46c-.21 0-.42-.02-.62-.06l-.22-.05.24-.07c.69-.21 1.33-.59 1.86-1.09.79-.27 1.52-.67 2.16-1.19-.4 1.14-1.36 2.05-2.6 2.34-.28.06-.56.1-.84.1zm.73-2.14c-.27.28-.57.52-.9.7-.36.19-.74.33-1.14.4.17-.11.33-.23.48-.35.2-.17.39-.36.56-.55.49-.58.85-1.28 1.02-2.06.32-.66.55-1.36.66-2.08.47 1.12.37 2.44-.35 3.49-.11.15-.22.29-.34.43zm-3.99 2.15h.4c.33.26.69.47 1.08.64l-.26 1.34h-2.05l-.26-1.35c.39-.16.75-.38 1.08-.64zm-.41 3.96v-.97h1.22v4.57H23.7v-3.6zm2.66 10.98h-4.1v-.11l.49-6.26h3.1l.5 6.36zM5.73 104.6l-.06 1.13H3.33v-1.13h2.4zm-2.4 2.14h2.28l-.07.87H3.33v-.87zm0-4.097h2.46l-.03.953H3.33v-.954zm5.28 6.672l-.08-.505-.024-.194h12.81l-.054.7H8.612zm-.28-2.576h13.14l-.068.87H8.412l-.07-.87zm-.12-2.13h13.42l-.09 1.13H8.272l-.05-1.13zm-.065-1.96h13.64l-.075.95H8.186l-.027-.96zm-2.34-1.01H3.33V95.9c.728.605 1.56 1.163 2.493 1.673.014 1.543.01 2.896-.01 4.074zm-2.485 7.17v-.2h2.11l-.02.19-.072.5h-2v-.51zm16.62-9.37h2.76v.86c-.64-.02-1.59-.07-2.76-.16v-.71zM7.1 87h-.37l.184-1.403.183 1.4zm5.76 2.678l.135.09c.068.04.144.06.22.06.08 0 .156-.02.226-.055.25-.124.35-.426.22-.674-.05-.1-.12-.18-.22-.23-.18-.09-.42-.05-.57.1-.15.15-.19.39-.09.59l.09.13zm-2.427-3.48c.07.04.15.057.23.057.132 0 .26-.053.353-.147.153-.16.19-.39.095-.58-.04-.1-.12-.18-.22-.23-.08-.05-.18-.06-.28-.05l-.2.07-.09.07c-.15.15-.19.39-.09.58.05.09.13.17.22.22zm.23 8.04c0 .186.1.355.26.44l.417.23.227.42c.088.16.256.264.438.264.184 0 .35-.1.44-.26l.226-.41.42-.23c.16-.086.26-.256.26-.44s-.1-.353-.26-.44l-.41-.23-.23-.416c-.09-.16-.25-.262-.44-.262s-.35.1-.44.265l-.22.42-.41.23c-.16.08-.26.25-.26.44" fill="#fff"/><path d="M30.877 68.822H28.92l1.916-9.77c.03-.147-.01-.3-.104-.416-.095-.116-.237-.184-.386-.184h-4.42v-1c.16-.06.285-.2.32-.378l.32-1.66c.262.047.532.072.805.072.36 0 .72-.042 1.07-.126 2.17-.516 3.67-2.517 3.56-4.757-.01-.208-.14-.39-.34-.454-.19-.07-.41-.01-.54.16-.39.49-.85.91-1.36 1.25.67-1.7.29-3.68-1.03-5.01-.14-.15-.37-.19-.56-.11-.19.08-.3.28-.29.49.02.25.02.49 0 .74-.21-.51-.51-.97-.88-1.37-.33-1.49-1.14-2.84-2.34-3.83-.18-.16-.45-.16-.63 0-1.19.99-2.01 2.34-2.34 3.82-.37.4-.67.86-.88 1.37-.01-.25-.01-.5 0-.75.01-.21-.1-.41-.29-.49-.19-.09-.41-.05-.55.1-1.33 1.33-1.7 3.31-1.03 5.01-.502-.34-.96-.76-1.36-1.25-.13-.16-.342-.23-.54-.16-.2.06-.335.24-.344.45-.107 2.24 1.39 4.24 3.56 4.75.35.09.71.13 1.068.13.28 0 .55-.03.81-.07l.32 1.66c.04.17.16.32.32.37v1H19.5c-.27 0-.5.22-.5.5v1.11c-3.1-.317-7.253-1.008-10.82-2.51.02-1.9.07-4.09.16-6.597l.06-.116.453-1.4h.34c.275 0 .5-.23.5-.51 0-.113-.04-.22-.106-.31l-.87-1.32c-.09-.14-.25-.225-.416-.225h-.14l-.71-5.408c-.03-.25-.24-.44-.49-.44s-.46.184-.49.44l-.704 5.41h-.09c-.17 0-.323.08-.415.223l-.882 1.37c-.1.155-.11.35-.027.515.09.16.26.26.44.26h.34l.46 1.41c.03.08.07.15.13.2.07 1.98.12 3.76.14 5.354-.98-.58-1.87-1.24-2.62-2-.14-.143-.36-.186-.54-.11-.19.08-.31.263-.31.467V68.8H1c-.552 0-1 .45-1 1.006 0 .56.448 1.01 1 1.01h29.88c.552 0 1-.45 1-1.004s-.45-1.005-1-1.005zm-1.14-9.364l-1.835 9.364h-.58l-.493-6.3c-.02-.262-.24-.464-.5-.464h-.41v-2.6h3.81zm-23.055-8.12h.592c-.075 2.15-.12 4.065-.14 5.77l-.006.553-.004.56c-.008 1.27-.003 2.41.013 3.43l.01.51.01.51.025.96.017.51.02.5.05 1.13.03.51.03.51.07.87.04.5.05.51.02.19.06.44H6.36l.06-.44.026-.19.054-.5.048-.5.07-.87.033-.504.03-.504.06-1.13.02-.506.02-.506.03-.954.01-.5.01-.5c.02-1.06.02-2.246.01-3.56V57c-.02-1.668-.06-3.53-.14-5.616zM5.9 48.08h2.086l.23.356H5.67l.114-.176.117-.18zm1.847 1.362l-.24.74h-1.13l-.24-.74h1.61zm11.205 11.64l1 .09c1.16.096 2.115.138 2.756.157v.31H8.138c-.014-.9-.02-1.9-.016-3 1.98.79 4.296 1.43 6.935 1.9 1.393.24 2.72.41 3.894.53zm1.473-6.702c-1.234-.293-2.19-1.2-2.592-2.344.644.52 1.372.918 2.162 1.187.528.507 1.166.88 1.862 1.09l.24.067-.218.045c-.21.035-.41.054-.62.054-.28 0-.56-.04-.84-.1zm-.233-2.466c-.716-1.054-.817-2.372-.347-3.49.113.72.337 1.417.664 2.074.16.777.52 1.478 1.02 2.053.17.2.35.39.55.55.15.13.31.25.48.35-.41-.07-.79-.2-1.15-.4-.33-.18-.64-.42-.9-.7-.13-.13-.24-.27-.34-.42zm1.244-1.895c-.072-.51-.036-1 .088-1.47.1-.38.26-.74.47-1.06.165-.25.36-.49.582-.69l.08-.08c-.057.18-.103.36-.144.55-.188.84-.225 1.71-.1 2.59l.087.48c.13.64.35 1.26.65 1.83l.02.04.15.27.07.12.12.19c-.15-.07-.29-.14-.42-.23l-.07-.05c-.81-.53-1.39-1.38-1.58-2.38l-.02-.14zm2.88-6.48c.526.5.95 1.09 1.255 1.74-.15-.08-.31-.14-.48-.2-.19-.07-.41-.01-.54.15-.13.16-.15.38-.05.57.68 1.2.93 2.55.74 3.92-.11.81-.38 1.58-.79 2.27l-.12.12-.13-.11c-.4-.69-.67-1.46-.79-2.27-.19-1.37.06-2.73.74-3.93.1-.19.08-.41-.05-.57-.13-.16-.35-.23-.54-.16-.17.05-.33.12-.48.19.3-.65.72-1.24 1.25-1.74zm2.88 6.47l-.026.15c-.185 1-.77 1.85-1.573 2.38l-.07.04.007-.06-.03-.22-.046-.1.022-.04c.3-.58.52-1.19.655-1.84l.087-.49c.125-.88.088-1.75-.1-2.6-.04-.19-.087-.37-.143-.55l.07.07c.22.21.41.44.58.69.21.32.37.68.47 1.06.12.466.16.963.09 1.465zm.173 4.46c-.21 0-.42-.02-.62-.06l-.22-.05.24-.07c.69-.21 1.33-.59 1.86-1.09.79-.27 1.52-.67 2.16-1.19-.4 1.14-1.36 2.05-2.6 2.34-.28.06-.56.1-.84.1zm.73-2.14c-.27.28-.57.52-.9.7-.36.19-.74.33-1.14.4.17-.11.33-.23.48-.35.2-.17.39-.36.56-.55.49-.58.85-1.28 1.02-2.06.32-.66.55-1.36.66-2.08.47 1.12.37 2.44-.35 3.49-.11.15-.22.29-.34.43zm-3.99 2.15h.4c.33.26.69.47 1.08.64l-.26 1.34h-2.05l-.26-1.35c.39-.16.75-.38 1.08-.64zm-.41 3.96v-.97h1.22v4.57H23.7v-3.6zm2.66 10.98h-4.1v-.11l.49-6.26h3.1l.5 6.36zM5.73 64.61l-.056 1.13H3.332v-1.13h2.4zm-2.4 2.137h2.28l-.07.87H3.33v-.87zm0-4.098h2.463l-.026.95H3.33v-.96zm5.28 6.67l-.072-.51-.023-.2h12.81l-.054.7H8.62zm-.272-2.57h13.136l-.068.87H8.412l-.07-.87zm-.12-2.14H21.64l-.087 1.13H8.277l-.055-1.13zm-.062-1.96h13.638l-.075.95H8.19l-.026-.96zm-2.34-1.01H3.333V55.9c.727.605 1.558 1.163 2.492 1.673.014 1.543.01 2.896-.01 4.074zm-2.484 7.18v-.2h2.104l-.025.19-.07.51h-2v-.51zm16.618-9.37h2.757v.86c-.64-.02-1.6-.07-2.76-.16v-.71zM7.098 47H6.73l.184-1.407L7.097 47zm5.76 2.674l.135.093c.068.034.144.054.22.054.08 0 .156-.02.226-.05.24-.12.34-.42.22-.67-.05-.1-.13-.17-.23-.22-.19-.09-.43-.05-.58.1-.16.16-.19.39-.1.59l.09.13zM10.43 46.2c.07.037.15.055.23.055.132 0 .26-.053.353-.147.153-.153.19-.388.095-.58-.048-.1-.127-.18-.225-.228-.086-.043-.184-.06-.28-.05l-.203.072-.094.07c-.154.155-.19.39-.094.586.048.097.125.174.22.223zm.23 8.04c0 .184.1.353.26.44l.417.23.227.42c.088.16.256.26.438.26.184 0 .35-.1.44-.26l.226-.42.416-.23c.16-.086.26-.256.26-.44s-.1-.353-.26-.44l-.415-.23-.23-.418c-.09-.16-.26-.262-.44-.262-.19 0-.35.1-.44.263l-.23.418-.42.23c-.16.09-.26.26-.26.44" fill="#67737B"/><path d="M30.877 28.822H28.92l1.916-9.77c.03-.147-.01-.3-.104-.416-.095-.116-.237-.184-.386-.184h-4.42v-1c.16-.06.285-.2.32-.378l.32-1.66c.262.047.532.072.805.072.36 0 .72-.042 1.07-.126 2.17-.516 3.67-2.517 3.56-4.757-.01-.208-.14-.39-.34-.454-.19-.07-.41-.01-.54.16-.39.49-.85.91-1.36 1.25.67-1.7.29-3.68-1.03-5.01-.14-.15-.37-.19-.56-.11-.19.08-.3.28-.29.49.02.25.02.49 0 .74-.21-.51-.51-.97-.88-1.37-.33-1.49-1.14-2.84-2.34-3.83-.18-.16-.45-.16-.63 0-1.19.99-2.01 2.34-2.34 3.82-.37.4-.67.86-.88 1.37-.01-.25-.01-.5 0-.75.01-.21-.1-.41-.29-.49-.19-.09-.41-.05-.55.1-1.33 1.33-1.7 3.31-1.03 5.01-.502-.34-.96-.76-1.36-1.25-.13-.16-.342-.23-.54-.16-.2.06-.335.24-.344.45-.107 2.24 1.39 4.24 3.56 4.75.35.09.71.13 1.068.13.28 0 .55-.03.81-.07l.32 1.66c.04.17.16.32.32.37v1H19.5c-.27 0-.5.22-.5.5v1.11c-3.1-.317-7.253-1.008-10.82-2.51.02-1.9.07-4.09.16-6.597l.06-.116.453-1.4h.34c.275 0 .5-.23.5-.51 0-.113-.04-.22-.106-.31L8.68 7.3c-.09-.14-.25-.227-.417-.227h-.14l-.71-5.407c-.032-.25-.244-.438-.494-.438s-.47.187-.5.438l-.7 5.407h-.09c-.17 0-.33.086-.42.228l-.88 1.37c-.1.16-.11.36-.03.52.08.17.25.27.44.27h.34l.45 1.41c.02.08.07.15.13.21.07 1.98.12 3.76.14 5.36-.98-.57-1.87-1.24-2.62-1.99-.15-.14-.36-.18-.55-.11-.19.08-.31.27-.31.47v14.06H1c-.55 0-1 .45-1 1.01s.45 1.01 1 1.01h29.88c.552 0 1-.45 1-1s-.45-1.01-1-1.01zm-1.14-9.364l-1.835 9.364h-.58l-.493-6.3c-.02-.262-.24-.464-.5-.464h-.41v-2.6h3.81zm-23.055-8.12h.592c-.075 2.15-.12 4.065-.14 5.77l-.006.553-.004.56c-.008 1.27-.003 2.41.013 3.43l.01.51.01.51.025.96.017.51.02.5.05 1.13.03.51.03.51.07.87.04.5.05.51.02.19.06.44H6.36l.06-.44.026-.19.054-.5.048-.5.07-.87.033-.504.03-.504.06-1.13.02-.506.02-.506.03-.954.01-.5.01-.5c.02-1.06.02-2.246.01-3.56V17c-.02-1.668-.06-3.53-.14-5.616zM5.9 8.08h2.086l.23.356H5.67l.114-.176.117-.18zm1.847 1.362l-.24.74h-1.13l-.24-.74h1.61zm11.205 11.64l1 .09c1.16.096 2.115.138 2.756.157v.31H8.138c-.014-.9-.02-1.9-.016-3 1.98.79 4.296 1.43 6.935 1.9 1.393.24 2.72.41 3.894.53zm1.473-6.702c-1.234-.293-2.19-1.2-2.592-2.344.644.52 1.372.918 2.162 1.187.528.507 1.166.88 1.862 1.09l.24.067-.218.045c-.21.035-.41.054-.62.054-.28 0-.56-.04-.84-.1zm-.233-2.466c-.716-1.054-.817-2.372-.347-3.49.113.72.337 1.417.664 2.074.16.777.52 1.478 1.02 2.053.17.2.35.39.55.55.15.13.31.25.48.35-.41-.07-.79-.2-1.15-.4-.33-.18-.64-.42-.9-.7-.13-.13-.24-.27-.34-.42zm1.244-1.895c-.072-.51-.036-1 .088-1.47.1-.38.26-.74.47-1.06.165-.25.36-.49.582-.69l.08-.08c-.057.18-.103.36-.144.55-.188.84-.225 1.71-.1 2.59l.087.48c.13.64.35 1.26.65 1.83l.02.04.15.27.07.12.12.19c-.15-.07-.29-.14-.42-.23l-.07-.05c-.81-.53-1.39-1.38-1.58-2.38l-.02-.14zm2.88-6.48c.526.5.95 1.09 1.255 1.74-.15-.08-.31-.14-.48-.2-.19-.07-.41-.01-.54.15-.13.16-.15.38-.05.57.68 1.2.93 2.55.74 3.92-.11.81-.38 1.58-.79 2.27l-.12.12-.13-.11c-.4-.69-.67-1.46-.79-2.27-.19-1.37.06-2.73.74-3.93.1-.19.08-.41-.05-.57-.13-.16-.35-.23-.54-.16-.17.05-.33.12-.48.19.3-.65.72-1.24 1.25-1.74zm2.88 6.47l-.026.15c-.185 1-.77 1.85-1.573 2.38l-.07.04.007-.06-.03-.22-.046-.1.022-.04c.3-.58.52-1.19.655-1.84l.087-.49c.125-.88.088-1.75-.1-2.6-.04-.19-.087-.37-.143-.55l.07.07c.22.21.41.44.58.69.21.32.37.68.47 1.06.12.466.16.963.09 1.465zm.173 4.46c-.21 0-.42-.02-.62-.06l-.22-.05.24-.07c.69-.21 1.33-.59 1.86-1.09.79-.27 1.52-.67 2.16-1.19-.4 1.14-1.36 2.05-2.6 2.34-.28.06-.56.1-.84.1zm.73-2.14c-.27.28-.57.52-.9.7-.36.19-.74.33-1.14.4.17-.11.33-.23.48-.35.2-.17.39-.36.56-.55.49-.58.85-1.28 1.02-2.06.32-.66.55-1.36.66-2.08.47 1.12.37 2.44-.35 3.49-.11.15-.22.29-.34.43zm-3.99 2.15h.4c.33.26.69.47 1.08.64l-.26 1.34h-2.05l-.26-1.35c.39-.16.75-.38 1.08-.64zm-.41 3.96v-.97h1.22v4.57H23.7v-3.6zm2.66 10.98h-4.1v-.11l.49-6.26h3.1l.5 6.36zM5.73 24.61l-.056 1.13H3.332v-1.13h2.4zm-2.4 2.137h2.28l-.07.87H3.33v-.87zm0-4.098h2.463l-.026.95H3.33v-.96zm5.28 6.67l-.072-.51-.023-.2h12.81l-.054.7H8.62zm-.272-2.57h13.136l-.068.87H8.412l-.07-.87zm-.12-2.14H21.64l-.087 1.13H8.277l-.055-1.13zm-.062-1.96h13.638l-.075.95H8.19l-.026-.96zm-2.34-1.01H3.333V15.9c.727.605 1.558 1.163 2.492 1.673.014 1.543.01 2.896-.01 4.074zm-2.484 7.18v-.2h2.104l-.025.19-.07.51h-2v-.51zm16.618-9.37h2.757v.86c-.64-.02-1.6-.07-2.76-.16v-.71zM7.098 7H6.73l.184-1.407L7.097 7zm5.76 2.674l.135.093c.068.034.144.054.22.054.08 0 .156-.02.226-.05.24-.12.34-.42.22-.67-.05-.1-.13-.17-.23-.22-.19-.09-.43-.05-.58.1-.16.16-.19.39-.1.59l.09.13zM10.43 6.202c.07.036.15.054.228.054.133 0 .26-.053.354-.147.153-.16.19-.39.095-.58-.048-.1-.127-.18-.225-.23-.086-.05-.184-.06-.28-.05l-.203.07-.1.07c-.16.15-.19.39-.1.58.05.09.12.17.22.22zm.23 8.04c0 .183.1.352.26.44l.416.23.227.418c.088.16.256.262.438.262.19 0 .35-.1.44-.262l.23-.418.42-.23c.16-.087.26-.257.26-.44s-.1-.354-.26-.442l-.41-.23-.22-.417c-.08-.16-.25-.262-.43-.262s-.35.1-.44.27l-.22.42-.41.23c-.16.09-.26.26-.26.44" fill="#3A434E"/></g></svg>