<svg width="32" height="232" viewBox="0 0 32 232" xmlns="http://www.w3.org/2000/svg"><g fill="none"><path d="M30.547 29.77h-.684v-4c.146-.1.244-.272.244-.467s-.097-.367-.244-.467v-.744c.146-.1.244-.272.244-.467s-.097-.367-.244-.467v-.744c.146-.1.244-.272.244-.467 0-.197-.1-.37-.248-.47-.02-.292-.26-.525-.54-.525-.29 0-.52.233-.54.526-.15.1-.25.273-.25.47s.09.366.24.466v.744c-.15.1-.25.272-.25.467s.09.367.24.467v.744c-.15.1-.25.27-.25.467 0 .195.1.367.24.467v3.997H26.9V19.753c2.013-.943 3.293-2.224 3.293-3.83 0-.618-.486-1.12-1.084-1.12-.6 0-1.09.502-1.09 1.12 0 .21-.14.47-.42.754l-3.65-1.527-.12-.04v-2.23c1.38-.348 2.63-.797 3.64-1.346l.22-.122c1.55-.893 2.5-2.035 2.5-3.418 0-.618-.48-1.12-1.08-1.12-.6 0-1.09.502-1.09 1.12 0 .36-.4.863-1.25 1.377-.31 0-.62-.03-.93-.06v-.89c0-.31-.24-.56-.54-.56-.3 0-.54.25-.54.56v.71c-3.33-.74-6.22-3.04-7.7-6.29-.09-.23-.25-.43-.47-.56V.56c0-.31-.24-.56-.54-.56-.3 0-.55.25-.55.56v1.71c-.23.134-.4.345-.48.588-1.49 3.234-4.37 5.53-7.69 6.265v-.705c0-.308-.25-.56-.54-.56-.3 0-.55.252-.55.56v.888c-.31.036-.62.057-.93.065C4.49 8.86 4.1 8.36 4.1 8c0-.618-.486-1.12-1.084-1.12-.6 0-1.084.502-1.084 1.12 0 1.384.95 2.526 2.5 3.42l.215.12c1.012.55 2.255.998 3.642 1.345v2.23l-.12.043-3.66 1.526c-.29-.283-.42-.544-.42-.754 0-.618-.49-1.12-1.09-1.12-.6 0-1.09.502-1.09 1.12 0 1.606 1.28 2.887 3.29 3.83v10.01H3.26v-4c.147-.1.243-.272.243-.467s-.098-.367-.245-.467v-.744c.148-.1.244-.272.244-.467s-.1-.367-.247-.467v-.744c.148-.1.244-.272.244-.467 0-.197-.1-.37-.25-.47-.02-.292-.25-.525-.54-.525-.29 0-.52.233-.54.526-.15.1-.25.273-.25.47s.09.366.24.466v.744c-.15.1-.25.272-.25.467s.09.367.24.467v.744c-.15.1-.25.27-.25.467 0 .195.1.367.24.467v3.997h-.7c-.6 0-1.09.5-1.09 1.12 0 .617.48 1.118 1.08 1.118h29.09c.6 0 1.08-.5 1.08-1.12s-.49-1.12-1.09-1.12zm-8.882-14.7h-.636v-1.65l.63-.097v1.748zm-9.486-1.517c1.26.136 2.57.205 3.88.205 1.3 0 2.61-.07 3.88-.205v1.517h-7.76v-1.517zm3.88-8.032c1.6 2.49 3.96 4.35 6.66 5.33-1.97.44-4.26.68-6.66.68-2.4 0-4.69-.23-6.66-.67 2.7-.97 5.05-2.84 6.66-5.32zm-4.97 7.9v1.66h-.64v-1.75l.63.1zm-2.31 3.89h14.55l1.82.76-.23.08c-2.36.84-5.51 1.3-8.87 1.3-3.37 0-6.52-.46-8.88-1.3l-.23-.08 1.82-.76zm3.27 4.16c-1.06.49-2.03 1.17-2.87 2.02v-2.47c.91.2 1.87.35 2.87.46zm-2.87 3.7c1.67-2.19 4.16-3.44 6.87-3.44s5.2 1.26 6.87 3.45v1.57c-1.35-2.48-3.92-4.15-6.87-4.15-2.94 0-5.51 1.67-6.87 4.14v-1.57zm13.74-1.67c-.84-.85-1.82-1.53-2.87-2.01.99-.11 1.95-.26 2.87-.45v2.47zM7.39 20.57l.715.2v9.004H7.39V20.57zm1.92 9.205c.464-3.417 3.315-6.057 6.753-6.057s6.288 2.64 6.753 6.058H9.31zm14.71-9.005l.716-.198v9.203h-.715V20.77z" fill="#3A434E"/><path d="M30.547 69.77h-.684v-4c.146-.1.244-.272.244-.467s-.097-.367-.244-.467v-.744c.146-.1.244-.272.244-.467s-.097-.367-.244-.467v-.744c.146-.1.244-.272.244-.467 0-.197-.1-.37-.248-.47-.02-.292-.26-.525-.54-.525-.29 0-.52.233-.54.526-.15.1-.25.273-.25.47s.09.366.24.466v.744c-.15.1-.25.272-.25.467s.09.367.24.467v.744c-.15.1-.25.27-.25.467 0 .195.1.367.24.467v3.997H26.9V59.753c2.013-.943 3.293-2.224 3.293-3.83 0-.618-.486-1.12-1.084-1.12-.6 0-1.09.502-1.09 1.12 0 .21-.14.47-.42.754l-3.65-1.527-.12-.04v-2.23c1.38-.348 2.63-.797 3.64-1.346l.22-.122c1.55-.893 2.5-2.035 2.5-3.418 0-.618-.48-1.12-1.08-1.12-.6 0-1.09.502-1.09 1.12 0 .36-.4.863-1.25 1.377-.31 0-.62-.03-.93-.06v-.89c0-.31-.24-.56-.54-.56-.3 0-.54.25-.54.56v.71c-3.33-.74-6.22-3.04-7.7-6.29-.09-.23-.25-.43-.47-.55v-1.71c0-.31-.24-.56-.54-.56-.3 0-.55.25-.55.56v1.71c-.23.14-.4.35-.48.59-1.49 3.24-4.37 5.53-7.69 6.27v-.7c0-.3-.25-.56-.54-.56-.3 0-.55.26-.55.56v.89c-.31.04-.62.06-.93.07-.85-.52-1.24-1.02-1.24-1.38 0-.62-.49-1.12-1.09-1.12-.6 0-1.09.5-1.09 1.12 0 1.38.95 2.53 2.5 3.42l.21.12c1.01.55 2.254 1 3.64 1.35v2.23l-.12.04L4.5 56.7c-.284-.28-.42-.543-.42-.753 0-.62-.486-1.12-1.084-1.12-.6 0-1.083.5-1.083 1.12 0 1.6 1.28 2.885 3.29 3.83v10.01H3.26v-4c.147-.1.243-.273.243-.47s-.098-.365-.245-.465v-.75c.148-.1.244-.27.244-.466s-.1-.365-.247-.465v-.74c.148-.1.244-.27.244-.47 0-.19-.1-.37-.25-.47-.02-.29-.25-.52-.54-.52-.29 0-.52.24-.54.53-.15.1-.25.28-.25.47s.09.37.24.47v.74c-.15.1-.25.27-.25.47s.09.37.24.47v.75c-.15.1-.25.27-.25.47s.1.366.24.466v4h-.7c-.6 0-1.09.5-1.09 1.12 0 .62.48 1.12 1.08 1.12h29.09c.6 0 1.08-.5 1.08-1.12s-.49-1.12-1.09-1.12zm-8.882-14.7h-.636v-1.65l.63-.097v1.748zm-9.486-1.517c1.26.136 2.57.205 3.88.205 1.3 0 2.61-.07 3.88-.205v1.517h-7.76v-1.517zm3.88-8.032c1.6 2.49 3.96 4.35 6.66 5.33-1.97.44-4.26.68-6.66.68-2.4 0-4.69-.23-6.66-.67 2.7-.97 5.05-2.84 6.66-5.32zm-4.97 7.9v1.66h-.64v-1.75l.63.1zm-2.31 3.89h14.55l1.82.76-.23.08c-2.36.84-5.51 1.3-8.87 1.3-3.37 0-6.52-.46-8.88-1.3l-.23-.08 1.82-.76zm3.27 4.16c-1.06.49-2.03 1.17-2.87 2.02v-2.47c.91.2 1.87.35 2.87.46zm-2.87 3.7c1.67-2.19 4.16-3.44 6.87-3.44s5.2 1.26 6.87 3.45v1.57c-1.35-2.48-3.92-4.15-6.87-4.15-2.94 0-5.51 1.67-6.87 4.14v-1.57zm13.74-1.67c-.84-.85-1.82-1.53-2.87-2.01.99-.11 1.95-.26 2.87-.45v2.47zM7.39 60.57l.715.2v9.004H7.39V60.57zm1.92 9.205c.464-3.417 3.315-6.057 6.753-6.057s6.288 2.64 6.753 6.058H9.31zm14.71-9.005l.716-.198v9.203h-.715V60.77z" fill="#67737B"/><path d="M30.547 109.77h-.684v-3.998c.146-.1.244-.272.244-.467s-.097-.367-.244-.467v-.744c.146-.1.244-.272.244-.467s-.097-.367-.244-.467v-.744c.146-.1.244-.272.244-.467 0-.2-.1-.37-.248-.47-.02-.3-.26-.53-.54-.53-.29 0-.52.23-.54.52-.15.1-.25.27-.25.47s.09.36.24.46v.74c-.15.1-.25.27-.25.46s.09.37.24.47v.74c-.15.1-.25.27-.25.46s.1.37.24.47v3.99H26.9v-10c2.013-.95 3.293-2.23 3.293-3.83 0-.62-.486-1.12-1.084-1.12-.6 0-1.09.5-1.09 1.12 0 .21-.14.47-.42.75l-3.65-1.53-.12-.04v-2.23c1.38-.35 2.63-.8 3.64-1.35l.22-.12c1.55-.89 2.5-2.04 2.5-3.42 0-.61-.48-1.12-1.08-1.12-.6 0-1.09.51-1.09 1.12 0 .36-.4.87-1.25 1.38-.31 0-.62-.03-.93-.06v-.89c0-.31-.24-.56-.54-.56-.3 0-.54.25-.54.56v.71c-3.33-.74-6.22-3.04-7.7-6.29-.09-.23-.25-.43-.47-.56v-1.71c0-.31-.24-.56-.54-.56-.3 0-.55.25-.55.56v1.71c-.23.13-.4.34-.48.59-1.49 3.23-4.37 5.53-7.69 6.26v-.7c0-.305-.25-.56-.54-.56-.3 0-.55.255-.55.56v.89c-.31.04-.62.06-.93.066-.85-.52-1.24-1.02-1.24-1.38 0-.62-.49-1.12-1.09-1.12-.6 0-1.09.5-1.09 1.12 0 1.383.95 2.525 2.5 3.42l.21.12c1.01.55 2.254.997 3.64 1.344v2.23l-.12.04-3.65 1.53c-.286-.285-.42-.55-.42-.76 0-.62-.488-1.12-1.086-1.12-.6 0-1.08.5-1.08 1.12 0 1.6 1.28 2.89 3.29 3.83v10.01H3.26v-4c.147-.1.243-.27.243-.46s-.098-.37-.245-.47v-.74c.148-.1.244-.27.244-.464s-.1-.37-.247-.47v-.747c.148-.1.244-.275.244-.47 0-.2-.1-.37-.25-.47-.02-.294-.25-.527-.54-.527-.29 0-.52.24-.54.53-.15.1-.25.272-.25.47s.09.37.24.47v.74c-.15.1-.25.27-.25.47s.09.363.24.463v.743c-.15.1-.25.27-.25.464s.1.37.24.47v4h-.7c-.6 0-1.09.5-1.09 1.12 0 .613.49 1.113 1.08 1.113h29.09c.6 0 1.08-.5 1.08-1.12s-.49-1.12-1.09-1.12zm-8.882-14.7h-.636v-1.65l.63-.097v1.748zm-9.486-1.517c1.26.136 2.57.205 3.88.205 1.3 0 2.61-.07 3.88-.205v1.517h-7.76v-1.517zm3.88-8.032c1.6 2.49 3.96 4.35 6.66 5.33-1.97.44-4.26.68-6.66.68-2.4 0-4.69-.23-6.66-.67 2.7-.97 5.05-2.84 6.66-5.32zm-4.97 7.9v1.66h-.64v-1.75l.63.1zm-2.31 3.89h14.55l1.82.76-.23.08c-2.36.84-5.51 1.3-8.87 1.3-3.37 0-6.52-.46-8.88-1.3l-.23-.08 1.82-.76zm3.27 4.16c-1.06.49-2.03 1.17-2.87 2.02v-2.47c.91.19 1.87.35 2.87.46zm-2.87 3.7c1.67-2.19 4.16-3.44 6.87-3.44s5.2 1.26 6.87 3.45v1.57c-1.36-2.46-3.93-4.13-6.88-4.13-2.95 0-5.52 1.67-6.88 4.14v-1.56zm13.74-1.67c-.84-.85-1.82-1.53-2.87-2.01.99-.11 1.95-.26 2.87-.45v2.48zm-15.53-2.93l.71.2v9.01h-.71v-9.2zm1.92 9.21c.46-3.41 3.31-6.05 6.75-6.05s6.29 2.64 6.75 6.06H9.31zm14.71-9l.71-.2v9.2h-.72v-9.01z" fill="#fff"/><path d="M30.547 149.77h-.684v-3.998c.146-.1.244-.272.244-.467s-.097-.367-.244-.467v-.744c.146-.1.244-.272.244-.467s-.097-.367-.244-.467v-.744c.146-.1.244-.272.244-.467 0-.2-.1-.37-.248-.47-.02-.3-.26-.53-.54-.53-.29 0-.52.23-.54.52-.15.1-.25.27-.25.47s.09.36.24.46v.74c-.15.1-.25.27-.25.46s.09.37.24.47v.74c-.15.1-.25.27-.25.46s.1.37.24.47v3.99H26.9v-10.01c2.013-.94 3.293-2.22 3.293-3.83 0-.62-.486-1.12-1.084-1.12-.6 0-1.09.5-1.09 1.12 0 .21-.14.47-.42.75l-3.66-1.53-.12-.04v-2.24c1.38-.35 2.63-.8 3.64-1.35l.21-.12c1.55-.898 2.5-2.04 2.5-3.42 0-.62-.49-1.12-1.08-1.12-.6 0-1.09.5-1.09 1.12 0 .36-.4.86-1.25 1.374-.31-.01-.62-.03-.93-.066v-.89c0-.305-.24-.56-.54-.56-.3 0-.54.255-.54.56v.71c-3.33-.74-6.22-3.047-7.7-6.297-.09-.23-.25-.427-.47-.556v-1.71c0-.31-.24-.56-.54-.56-.3 0-.54.25-.54.56v1.71c-.23.13-.4.344-.48.587-1.49 3.23-4.37 5.53-7.69 6.263v-.7c0-.31-.25-.56-.54-.56-.3 0-.55.25-.55.56v.89c-.31.03-.62.052-.93.06-.85-.514-1.25-1.016-1.25-1.376 0-.62-.49-1.12-1.09-1.12-.6 0-1.09.5-1.09 1.12 0 1.383.95 2.525 2.5 3.42l.21.12c1.013.55 2.256.997 3.643 1.344v2.23l-.12.04-3.65 1.527c-.28-.28-.42-.54-.42-.75 0-.614-.48-1.12-1.08-1.12-.6 0-1.086.506-1.086 1.12 0 1.61 1.28 2.89 3.29 3.83v10.02H3.25v-3.995c.148-.1.244-.27.244-.465s-.1-.366-.246-.466v-.746c.148-.1.244-.27.244-.47s-.1-.37-.247-.47v-.74c.15-.1.245-.273.245-.47s-.1-.37-.25-.47c-.016-.29-.25-.52-.538-.52-.29 0-.52.234-.54.527-.15.1-.248.28-.248.47s.096.37.243.47v.746c-.148.1-.245.27-.245.463s.096.37.243.47v.75c-.147.1-.244.27-.244.462s.1.37.25.47v4h-.7c-.59 0-1.08.5-1.08 1.12 0 .62.49 1.12 1.09 1.12h29.08c.6 0 1.09-.5 1.09-1.12s-.48-1.12-1.08-1.12zm-8.882-14.698h-.636v-1.652l.63-.097v1.748zm-9.486-1.517c1.26.136 2.57.205 3.88.205 1.3 0 2.61-.07 3.88-.205v1.517h-7.76v-1.517zm3.88-8.032c1.6 2.485 3.96 4.348 6.66 5.325-1.97.438-4.26.673-6.66.673-2.4 0-4.69-.23-6.66-.67 2.7-.97 5.05-2.84 6.66-5.32zm-4.97 7.898v1.66h-.64v-1.75l.63.1zm-2.31 3.89h14.55l1.82.76-.22.09c-2.36.84-5.51 1.3-8.88 1.3-3.37 0-6.52-.46-8.88-1.3l-.23-.08 1.82-.76zm3.27 4.17c-1.06.49-2.03 1.17-2.87 2.02v-2.47c.91.19 1.87.35 2.87.46zm-2.87 3.7c1.67-2.19 4.16-3.44 6.87-3.44s5.2 1.26 6.87 3.45v1.57c-1.36-2.46-3.93-4.13-6.88-4.13-2.95 0-5.52 1.67-6.88 4.14v-1.57zm13.74-1.67c-.84-.85-1.82-1.53-2.87-2.02.99-.11 1.95-.26 2.87-.45v2.48zm-15.54-2.93l.71.2v9.01h-.71v-9.2zm1.92 9.21c.46-3.41 3.31-6.05 6.75-6.05s6.28 2.64 6.75 6.06H9.31zm14.71-9l.71-.19v9.2H24v-9z" fill="#206FAC"/></g></svg>