<svg width="32" height="232" viewBox="0 0 32 232" xmlns="http://www.w3.org/2000/svg"><g fill="none"><path d="M31.103 149.178h-.45l-1.202-26.23v-.082l-.01-.03-.01-.036-.01-.022-.01-.022-.02-.036-.01-.02v-.016l-.02-.033-.01-.01-.01-.01h-.01l-.03-.02-.04-.02-.04-.02h-.04l-.04-.01h-.04l-.03-.01c-.22-.01-5.51-.23-7.53 1.72-.533.52-.81 1.15-.81 1.87 0 .26.207.46.458.46s.458-.2.458-.46c0-.46.174-.85.53-1.2.69-.67 2.054-1.14 3.94-1.35-.655.55-1.2 1.31-1.61 2.28-.673 1.58-.76 3.13-.765 3.2-.012.25.18.47.43.48h.02c.24 0 .44-.19.45-.43 0-.01.09-1.45.698-2.88.41-.96.944-1.67 1.604-2.13-1.7 2.22-.8 7.46-.76 7.69.04.22.23.38.448.38l.08-.01c.25-.045.41-.284.37-.534-.25-1.43-.63-5.49.63-7.01.25-.304.554-.49.918-.562l.18 16.186h-.06l-1.01-3.913c-.02-.077-.06-.147-.11-.204l-1.27-1.34c-.14-.145-.36-.18-.54-.085l-1.78.95-1.78-.95c-.17-.09-.38-.06-.52.07l-3.03 2.83-.23-.182c-.75-.63-1.53-1.28-2.32-1.51-.31-.353-1.602-1.76-2.56-1.76-.59 0-2.16 0-2.16 1.156 0 .18-.09.43-.19.73-.162.45-.363 1-.363 1.69 0 .26.11.42.195.51.16.16.358.19.52.2l-.05.06c-.175.23-.443.58-.443 1.27 0 .93.82 1.37 1.62 1.42l-.014.29-.04.83H11.3l-.08-.14-2.25-3.96c-.048-.08-.115-.14-.195-.18l-.04-.02.036-5.06c.9.404 1.39.856 1.39 1.305 0 .26.2.46.45.46s.45-.2.45-.46c0-.92-.76-1.69-2.28-2.3l.02-1.72c.67.27 1.33.74 1.98 1.407.178.18.46.186.64.008s.18-.47.008-.65c-.84-.866-1.716-1.445-2.617-1.735l.03-3.71c.49.29.87.73 1.09 1.26.25.61.25 1.275-.007 1.874-.1.237.01.508.24.607l.18.04c.17 0 .34-.1.41-.28.35-.83.35-1.743.01-2.582-.23-.58-.61-1.07-1.1-1.45 1.057-.27 2.22.13 2.87 1.07.09.13.23.2.37.2.09 0 .18-.024.26-.08.208-.145.26-.433.11-.64-.86-1.25-2.41-1.784-3.81-1.435.54-.825 1.567-1.3 2.63-1.11.25.05.48-.12.528-.37.04-.25-.12-.49-.37-.53-1.29-.22-2.53.27-3.3 1.19-.11-.29-.26-.567-.45-.826-.54-.75-1.35-1.25-2.27-1.41-.25-.045-.48.12-.522.375-.04.25.124.49.37.53.69.12 1.294.495 1.7 1.05.2.275.34.58.415.89-1.207-.8-2.844-.824-4.064.064-.2.15-.25.437-.1.64.144.2.43.25.63.1.913-.662 2.15-.642 3.05-.03-.58.19-1.1.527-1.515.99-.6.677-.9 1.54-.848 2.44.012.246.212.43.45.43h.02c.25-.01.44-.23.423-.49-.04-.65.172-1.27.61-1.76.28-.32.64-.56 1.04-.71l-.17 3.45c-.16-.01-.328-.016-.49-.01-1.63.074-2.86 1.044-3.436 1.6-.07-.13-.11-.27-.13-.43-.07-.83.71-1.91 1.01-2.25.17-.19.16-.48-.03-.65-.18-.17-.47-.15-.64.04-.05.07-1.35 1.55-1.24 2.95.04.49.23.9.577 1.24v6.16l-1.68.89c-.22.12-.31.4-.19.62.12.23.39.32.62.2l.39-.203.87-.46v10.51H.91c-.5 0-.91.41-.91.92s.406.92.91.92h30.196c.5 0 .908-.41.908-.92s-.402-.92-.904-.92zm-5.58-10.084c-.546-.453-1.29-.723-1.995-.723-.59 0-1.108.04-1.61.08-.507.04-1.03.08-1.643.08h-.045c-.098 0-.212-.03-.336-.08-.164-.07-.345-.18-.536-.32l2.683-2.5 1.72.92c.13.07.29.07.43 0l1.7-.9.95 1 1.07 4.14c.05.21.24.35.44.35h.42l.05 4.46-.13-.15c-.94-1.09-2-2.32-2-3.63 0-.83-.2-1.45-.47-1.91-.2-.34-.44-.6-.66-.78zm-5.293.356c.667 0 1.22-.042 1.755-.083.508-.04.988-.075 1.543-.075l.126.007c.144.01.394.04.672.15.637.24 1.422.83 1.422 2.33 0 1.65 1.237 3.08 2.23 4.23.303.35.61.7.836 1.02l.02 1.76-.107.18-.012.02h-.86l.037-.25c.08-.72-.158-1.3-.666-1.63-.88-.58-2.578-2.2-2.756-2.54-.225-.42-.677-.35-1.886-.15-.66.11-1.48.25-2.328.31h-.02c-1.36.09-2.782-.01-3.68-.74.088-.56.2-.99.305-1.39.17-.617.32-1.197.32-2.08 0-.256-.2-.46-.45-.46s-.45.203-.45.46c0 .762-.12 1.24-.28 1.84-.22.834-.49 1.873-.49 4.035 0 .88-.15 1.94-.24 2.49h-.47l-.01-.444c0-.79-.33-1.31-.65-1.81-.34-.55-.67-1.06-.67-2.02 0-1.17.06-2.25.11-3.19.04-.81.08-1.57.08-2.28 0-2.13.63-2.52 1.88-2.52.68 0 1.55.74 2.33 1.394.84.704 1.64 1.374 2.4 1.374zm-3.357 5.834l.205 3.655h-.906c.094-.61.227-1.62.227-2.5 0-.53.01-.98.04-1.38.14.08.28.15.43.21zm.925.287c.666.15 1.38.18 2.083.15.11.36.31.75.51 1.16.21.42.47.93.47 1.15 0 .4-.38.92-.51 1.07l-.06.09H18l-.202-3.6zm4.43 3.37h-.708c.133-.27.24-.59.24-.92 0-.44-.275-.99-.565-1.56-.13-.25-.278-.55-.376-.8.58-.06 1.14-.15 1.63-.23.25.84.56 2 .56 2.4 0 .52-.48 1.12-.8 1.12zm-10.288-9.23c0-.37.113-.52.256-.7.14-.18.328-.43.328-.82 0-.27-.108-.43-.2-.52-.185-.18-.417-.2-.594-.2.035-.43.17-.8.3-1.16.13-.36.25-.69.25-1.04 0-.01.015-.23 1.25-.23.252 0 .757.36 1.25.81-1.44.25-2.068 1.3-2.068 3.39 0 .32-.01.66-.022 1.01-.458-.02-.75-.21-.75-.5zm-5.82-4.22l.152.03c.186 0 .36-.11.427-.3.43-1.23-.43-2.42-1.3-3.25.51.1 1.08.21 1.65.37l.48.14-.22 4.81-1.51-.76c-.13-.06-.29-.06-.41.01l-.9.48-.24-4.81c.21.17.45.38.68.61.55.56 1.16 1.38.9 2.12-.09.24.04.51.27.59zm-1.47 4.39l-.093-1.87 1.063-.56 1.66.84-.485 10.91H5.12l-.47-9.29zm2.595-9.97l.408.01-.07 1.6-.303-.08c-.93-.24-1.85-.4-2.51-.5.554-.44 1.422-.97 2.475-1.01zm1.363 19.27l.07-9.6 1.92 3.38c.08.15.23.23.392.23h1.566c-.016.48-.026.97-.026 1.49 0 1.24.454 1.95.818 2.52.283.45.506.8.506 1.33v.02l.02.66H8.606zm14.753-3.9l.43-.05c.52.69 2.17 2.18 2.95 2.69.44.29.24.99.14 1.26h-3.45c.31-.39.51-.9.51-1.36 0-.56-.35-1.82-.57-2.54zm-8.58-15.5c.24-.2.59-.21.83-.03l.01.02c.08.17.24.27.41.27h.06c.18 0 .34-.1.41-.26l.01-.01c.25-.18.59-.17.83.03.19.17.48.14.64-.05.16-.19.14-.48-.05-.65-.54-.46-1.29-.49-1.85-.13-.56-.36-1.32-.33-1.85.13-.19.17-.22.46-.05.65s.45.22.64.06zm2.62 2.05c.16.2.45.22.64.06.24-.2.59-.21.83-.03l.01.02c.08.16.24.27.41.27h.06c.18 0 .34-.1.41-.26l.01-.01c.25-.18.59-.17.83.03.19.17.48.14.64-.05.17-.19.14-.48-.05-.65-.53-.45-1.29-.49-1.85-.13-.56-.36-1.32-.32-1.85.13-.19.17-.21.46-.05.65z" fill="#206FAC"/><path d="M31.103 109.178h-.45l-1.202-26.23v-.082l-.01-.03-.01-.036-.01-.022-.01-.022-.02-.036-.01-.02v-.016l-.02-.033-.01-.01-.01-.01h-.01l-.03-.02-.04-.02-.04-.02h-.04l-.04-.01h-.04l-.03-.01c-.22-.01-5.51-.23-7.53 1.72-.533.52-.81 1.15-.81 1.87 0 .26.207.46.458.46s.458-.2.458-.46c0-.46.174-.85.53-1.2.69-.67 2.054-1.14 3.94-1.35-.655.55-1.2 1.31-1.61 2.28-.673 1.58-.76 3.13-.765 3.2-.012.25.18.47.43.48h.02c.24 0 .44-.19.45-.43 0-.01.09-1.45.698-2.88.41-.96.944-1.67 1.604-2.13-1.7 2.22-.8 7.46-.76 7.69.04.22.23.38.448.38l.08-.01c.25-.045.41-.284.37-.534-.25-1.43-.63-5.49.63-7.01.25-.304.554-.49.918-.562l.18 16.186h-.06l-1.02-3.92c-.02-.073-.06-.143-.11-.2l-1.265-1.34c-.14-.145-.36-.18-.54-.085l-1.8.935-1.784-.953c-.17-.09-.38-.06-.52.07l-3.03 2.83-.23-.182c-.76-.63-1.53-1.28-2.32-1.513-.31-.36-1.61-1.76-2.56-1.76-.59 0-2.16 0-2.16 1.15 0 .19-.09.44-.19.73-.17.45-.37 1.01-.37 1.69 0 .26.11.42.19.51.16.16.36.19.52.2l-.05.06c-.18.23-.44.58-.44 1.27 0 .93.81 1.38 1.62 1.42l-.02.29-.04.83h-1.35l-.08-.14-2.25-3.95c-.046-.08-.11-.14-.19-.18l-.04-.02.033-5.06c.89.4 1.38.85 1.38 1.3 0 .257.2.46.45.46s.45-.2.45-.46c0-.92-.76-1.69-2.28-2.3l.014-1.72c.67.27 1.33.74 1.977 1.405.176.18.46.18.64.004s.18-.47.006-.65c-.84-.87-1.712-1.45-2.613-1.74l.03-3.71c.49.29.87.728 1.09 1.258.25.61.25 1.272-.004 1.87-.098.237.01.508.24.607l.18.04c.174 0 .342-.1.42-.28.35-.83.35-1.745.01-2.584-.24-.58-.62-1.07-1.1-1.45 1.05-.27 2.22.127 2.87 1.065.08.13.23.2.37.2.09 0 .18-.02.26-.08.2-.14.25-.43.11-.64-.86-1.25-2.41-1.78-3.81-1.43.54-.826 1.56-1.3 2.63-1.11.242.044.48-.125.52-.376.04-.25-.127-.49-.37-.53-1.29-.22-2.53.27-3.3 1.19-.11-.29-.26-.567-.45-.826-.54-.75-1.35-1.25-2.27-1.41-.25-.05-.48.12-.524.37-.04.25.13.49.37.53.69.12 1.3.495 1.7 1.05.2.275.34.58.42.89-1.206-.8-2.84-.824-4.06.064-.206.15-.25.438-.107.645.14.2.43.25.63.1.913-.67 2.15-.65 3.05-.03-.58.19-1.1.52-1.52.99-.6.67-.9 1.54-.844 2.44.02.24.22.43.456.43h.03c.25-.017.44-.236.427-.49-.04-.65.18-1.28.61-1.77.285-.32.64-.56 1.04-.702L7.7 89c-.16-.01-.328-.015-.49-.007-1.63.073-2.86 1.043-3.436 1.598-.075-.13-.118-.27-.13-.43-.07-.83.706-1.91 1.01-2.25.17-.19.154-.48-.032-.65-.18-.17-.47-.15-.64.04-.052.07-1.35 1.55-1.24 2.95.04.49.23.9.575 1.24v6.16l-1.676.89c-.23.12-.31.4-.2.62.12.23.39.32.62.2l.39-.2.87-.46v10.51H.91c-.5 0-.91.41-.91.92s.406.92.91.92h30.196c.5 0 .908-.41.908-.92s-.402-.92-.904-.92zm-5.58-10.084c-.546-.453-1.29-.723-1.995-.723-.59 0-1.108.04-1.61.08-.507.04-1.03.08-1.643.08h-.045c-.098 0-.212-.03-.336-.08-.164-.07-.345-.18-.536-.32l2.683-2.5 1.72.92c.13.07.29.07.43 0l1.7-.9.95 1 1.07 4.14c.05.21.24.35.44.35h.42l.05 4.46-.13-.15c-.94-1.09-2-2.32-2-3.63 0-.83-.2-1.45-.47-1.91-.2-.34-.44-.6-.66-.78zm-5.293.356c.667 0 1.22-.042 1.755-.083.508-.04.988-.075 1.543-.075l.126.007c.144.01.394.04.672.15.637.24 1.422.83 1.422 2.33 0 1.65 1.237 3.08 2.23 4.23.303.35.61.7.836 1.02l.02 1.76-.107.18-.012.02h-.86l.037-.25c.08-.72-.158-1.3-.666-1.63-.88-.58-2.578-2.2-2.756-2.54-.225-.42-.677-.35-1.886-.15-.66.11-1.48.25-2.328.31h-.02c-1.36.09-2.782-.01-3.68-.74.088-.56.2-.99.305-1.39.17-.617.32-1.197.32-2.08 0-.256-.2-.46-.45-.46s-.45.203-.45.46c0 .762-.12 1.24-.28 1.84-.22.834-.49 1.873-.49 4.035 0 .88-.15 1.94-.24 2.49h-.47l-.01-.444c0-.79-.33-1.31-.65-1.81-.34-.55-.67-1.06-.67-2.02 0-1.17.06-2.25.11-3.19.04-.81.08-1.57.08-2.28 0-2.13.63-2.52 1.88-2.52.68 0 1.55.74 2.33 1.394.84.704 1.64 1.374 2.4 1.374zm-3.357 5.834l.205 3.655h-.906c.094-.61.227-1.62.227-2.5 0-.53.01-.98.04-1.38.14.08.28.15.43.21zm.925.287c.666.15 1.38.18 2.083.15.11.36.31.75.51 1.16.21.42.47.93.47 1.15 0 .4-.38.92-.51 1.07l-.06.09H18l-.202-3.6zm4.43 3.37h-.708c.133-.27.24-.59.24-.92 0-.44-.275-.99-.565-1.56-.13-.25-.278-.55-.376-.8.58-.06 1.14-.15 1.63-.23.25.84.56 2 .56 2.4 0 .52-.48 1.12-.8 1.12zM11.94 99.71c0-.374.113-.52.256-.708.14-.18.328-.43.328-.82 0-.27-.108-.434-.2-.525-.185-.184-.417-.205-.594-.205.035-.43.17-.8.3-1.163.13-.36.25-.7.25-1.05 0-.01.015-.24 1.25-.24.252 0 .757.35 1.25.8-1.44.24-2.068 1.29-2.068 3.38 0 .32-.01.66-.022 1.01-.458-.02-.75-.21-.75-.5zm-5.82-4.22l.152.028c.186 0 .36-.117.427-.305.43-1.234-.43-2.427-1.3-3.252.51.1 1.08.21 1.65.37l.48.14-.22 4.81-1.51-.75c-.13-.06-.29-.06-.41.01l-.9.48-.24-4.81c.21.17.45.38.68.61.55.56 1.16 1.38.9 2.12-.09.24.04.51.27.59zm-1.47 4.39l-.093-1.878 1.063-.563 1.66.83-.485 10.9H5.12l-.47-9.3zm2.595-9.974l.408.007-.07 1.6-.303-.083c-.93-.246-1.85-.408-2.51-.507.554-.445 1.422-.97 2.475-1.017zm1.363 19.27l.07-9.606 1.92 3.375c.08.143.23.23.392.23h1.566c-.016.475-.026.97-.026 1.486 0 1.24.454 1.95.818 2.52.283.45.506.8.506 1.33v.02l.02.66H8.606zm14.753-3.9l.43-.05c.52.685 2.17 2.18 2.95 2.69.44.285.24.992.14 1.262h-3.45c.31-.394.51-.902.51-1.36 0-.56-.35-1.82-.57-2.543zM14.78 89.77c.24-.208.584-.21.83-.033l.005.013c.074.163.235.267.41.267h.053c.177 0 .338-.104.41-.266l.008-.01c.246-.18.59-.17.83.03.19.17.478.14.64-.05.16-.19.135-.48-.057-.65-.54-.45-1.29-.49-1.86-.13-.57-.36-1.32-.32-1.86.13-.2.17-.22.46-.06.65s.45.22.64.06zm2.617 2.05c.16.196.447.22.64.058.24-.206.583-.21.83-.032l.004.013c.08.16.24.26.41.26h.06c.18 0 .34-.11.41-.27l.01-.02c.25-.18.59-.18.83.03.19.16.48.14.64-.06.17-.2.14-.49-.05-.65-.53-.46-1.29-.49-1.85-.13-.56-.36-1.32-.33-1.85.13-.19.16-.21.45-.05.65z" fill="#fff"/><path d="M31.103 69.178h-.45l-1.202-26.23v-.082l-.01-.03-.01-.036-.01-.022-.01-.022-.02-.036-.01-.02v-.016l-.02-.033-.01-.01-.01-.01h-.01l-.03-.02-.04-.02-.04-.02h-.04l-.04-.01h-.04l-.03-.01c-.22-.01-5.51-.23-7.53 1.72-.533.52-.81 1.15-.81 1.87 0 .26.207.46.458.46s.458-.2.458-.46c0-.46.174-.85.53-1.2.69-.67 2.054-1.14 3.94-1.35-.655.55-1.2 1.31-1.61 2.28-.673 1.58-.76 3.13-.765 3.2-.012.25.18.47.43.48h.02c.24 0 .44-.19.45-.43 0-.01.09-1.45.698-2.88.41-.96.944-1.67 1.604-2.13-1.7 2.22-.8 7.46-.76 7.69.04.22.23.38.448.38l.08-.01c.25-.045.41-.284.37-.534-.25-1.43-.63-5.49.63-7.01.25-.304.554-.49.918-.562l.18 16.18h-.06l-1.04-3.93c-.02-.077-.055-.147-.11-.204L26.3 54.74c-.14-.146-.36-.182-.54-.086l-1.78.956-1.788-.954c-.17-.09-.376-.064-.517.07l-3.03 2.83-.223-.187c-.754-.64-1.527-1.29-2.32-1.52-.31-.36-1.606-1.77-2.56-1.77-.59 0-2.157 0-2.157 1.16 0 .18-.09.43-.196.73-.17.45-.37 1-.37 1.69 0 .26.1.42.19.51.16.16.35.19.52.2l-.05.06c-.18.23-.45.58-.45 1.27 0 .93.81 1.37 1.61 1.42l-.02.29-.04.83h-1.34l-.08-.15-2.25-3.96c-.05-.08-.12-.14-.2-.18l-.04-.02.03-5.06c.89.4 1.38.85 1.38 1.3 0 .25.202.46.453.46s.45-.21.45-.46c0-.92-.765-1.7-2.285-2.3l.02-1.73c.67.27 1.33.74 1.976 1.4.18.18.466.18.645 0s.18-.47.01-.65c-.84-.87-1.71-1.445-2.61-1.735l.03-3.7c.494.29.88.725 1.092 1.255.25.61.25 1.27 0 1.87-.1.24.01.51.24.61l.18.035c.17 0 .34-.105.414-.28.344-.83.35-1.75.003-2.587-.24-.58-.62-1.07-1.1-1.448 1.05-.27 2.22.127 2.864 1.065.09.13.23.197.373.197.09 0 .18-.03.26-.08.204-.15.255-.437.11-.64-.86-1.25-2.41-1.788-3.81-1.44.54-.83 1.56-1.3 2.63-1.114.247.04.48-.13.524-.38.04-.25-.12-.49-.37-.535-1.29-.22-2.53.27-3.3 1.19-.11-.29-.256-.56-.445-.82-.548-.75-1.356-1.25-2.278-1.41-.25-.04-.486.128-.53.38-.04.25.128.49.37.53.69.12 1.298.497 1.7 1.05.2.277.34.58.42.89-1.21-.8-2.85-.82-4.07.066-.2.14-.25.43-.1.64.147.2.43.25.634.1.91-.67 2.15-.65 3.05-.036-.58.19-1.1.53-1.516.99-.6.68-.9 1.54-.845 2.44.01.25.21.436.45.436h.03c.25-.01.44-.23.42-.482-.04-.65.174-1.28.61-1.77.283-.32.64-.56 1.04-.71L7.69 49c-.16-.01-.324-.015-.49-.007-1.625.073-2.856 1.043-3.432 1.598-.072-.13-.115-.27-.13-.43-.07-.83.71-1.91 1.01-2.25.17-.19.157-.48-.03-.65-.185-.17-.472-.15-.64.04-.056.07-1.355 1.55-1.243 2.95.04.49.232.9.574 1.24v6.16l-1.67.89c-.22.12-.31.4-.19.62.12.23.39.32.62.2l.38-.2.87-.46v10.5H.9c-.5 0-.91.41-.91.92s.41.92.91.92h30.2c.5 0 .91-.41.91-.92s-.4-.92-.903-.92zm-5.58-10.084c-.546-.453-1.29-.723-1.995-.723-.59 0-1.108.04-1.61.08-.507.04-1.03.08-1.643.08h-.045c-.098 0-.212-.03-.336-.08-.164-.07-.345-.18-.536-.32l2.683-2.5 1.72.92c.13.07.29.07.43 0l1.7-.9.95 1 1.07 4.14c.05.21.24.35.44.35h.42l.05 4.46-.13-.15c-.94-1.09-2-2.32-2-3.63 0-.83-.2-1.45-.47-1.91-.2-.34-.44-.6-.66-.78zm-5.293.356c.667 0 1.22-.042 1.755-.083.508-.04.988-.075 1.543-.075l.126.007c.144.01.394.04.672.15.637.24 1.422.83 1.422 2.33 0 1.65 1.237 3.08 2.23 4.23.303.35.61.7.836 1.02l.02 1.76-.107.18-.012.02h-.86l.037-.25c.08-.72-.158-1.3-.666-1.63-.88-.58-2.578-2.2-2.756-2.54-.225-.42-.677-.35-1.886-.15-.66.11-1.48.25-2.328.31h-.02c-1.36.09-2.782-.01-3.68-.74.088-.56.2-.99.305-1.39.17-.617.32-1.197.32-2.08 0-.256-.2-.46-.45-.46s-.45.203-.45.46c0 .762-.12 1.24-.28 1.84-.22.834-.49 1.873-.49 4.035 0 .88-.15 1.94-.24 2.49h-.47l-.01-.444c0-.79-.33-1.31-.65-1.81-.34-.55-.67-1.06-.67-2.02 0-1.17.06-2.25.11-3.19.04-.81.08-1.57.08-2.28 0-2.13.63-2.52 1.88-2.52.68 0 1.55.74 2.33 1.394.84.704 1.64 1.374 2.4 1.374zm-3.357 5.834l.205 3.655h-.906c.094-.61.227-1.62.227-2.5 0-.53.01-.98.04-1.38.14.08.28.15.43.21zm.925.287c.666.15 1.38.18 2.083.15.11.36.31.75.51 1.16.21.42.47.93.47 1.15 0 .4-.38.92-.51 1.07l-.06.09H18l-.202-3.6zm4.43 3.37h-.708c.133-.27.24-.59.24-.92 0-.44-.275-.99-.565-1.56-.13-.25-.278-.55-.376-.8.58-.06 1.14-.15 1.63-.23.25.84.56 2 .56 2.4 0 .52-.48 1.12-.8 1.12zM11.94 59.71c0-.374.113-.52.256-.708.14-.18.328-.43.328-.82 0-.27-.108-.434-.2-.525-.185-.184-.417-.205-.594-.205.035-.43.17-.8.3-1.163.13-.36.25-.7.25-1.05 0-.01.015-.24 1.25-.24.252 0 .757.35 1.25.8-1.44.24-2.068 1.29-2.068 3.38 0 .32-.01.66-.022 1.01-.458-.02-.75-.21-.75-.5zm-5.82-4.22l.152.028c.186 0 .36-.117.427-.305.43-1.234-.43-2.427-1.3-3.252.51.1 1.08.21 1.65.37l.48.14-.22 4.81-1.51-.75c-.13-.06-.29-.06-.41.01l-.9.48-.24-4.81c.21.17.45.38.68.61.55.56 1.16 1.38.9 2.12-.09.24.04.51.27.59zm-1.47 4.39l-.093-1.878 1.063-.563 1.66.83-.485 10.9H5.12l-.47-9.3zm2.595-9.974l.408.007-.07 1.6-.303-.083c-.93-.246-1.85-.408-2.51-.507.554-.445 1.422-.97 2.475-1.017zm1.363 19.27l.07-9.606 1.92 3.375c.08.143.23.23.392.23h1.566c-.016.475-.026.97-.026 1.486 0 1.24.454 1.95.818 2.52.283.45.506.8.506 1.33v.02l.02.66H8.606zm14.753-3.9l.43-.05c.52.685 2.17 2.18 2.95 2.69.44.285.24.992.14 1.262h-3.45c.31-.394.51-.902.51-1.36 0-.56-.35-1.82-.57-2.543zM14.78 49.77c.24-.208.584-.21.83-.033l.005.013c.074.163.235.267.41.267h.053c.177 0 .338-.104.41-.266l.008-.01c.246-.18.59-.17.83.03.19.17.478.14.64-.05.16-.19.135-.48-.057-.65-.54-.45-1.29-.49-1.86-.13-.57-.36-1.32-.32-1.86.13-.2.17-.22.46-.06.65s.45.22.64.06zm2.617 2.05c.16.196.447.22.64.058.24-.206.583-.21.83-.032l.004.013c.08.16.24.26.41.26h.06c.18 0 .34-.11.41-.27l.01-.02c.25-.18.59-.18.83.03.19.16.48.14.64-.06.17-.2.14-.49-.05-.65-.53-.46-1.29-.49-1.85-.13-.56-.36-1.32-.33-1.85.13-.19.16-.21.45-.05.65z" fill="#67737B"/><path d="M31.103 29.178h-.45L29.45 2.948l-.002-.026-.004-.036-.004-.02-.01-.03-.01-.036-.01-.022-.012-.022-.02-.036-.014-.02-.007-.01-.005-.006-.027-.033-.016-.01-.01-.01h-.01l-.04-.02-.04-.02-.04-.02h-.04l-.05-.01h-.06L29 2.53c-.23-.01-5.52-.236-7.54 1.72-.533.52-.81 1.15-.81 1.87 0 .252.207.46.458.46s.453-.208.453-.46c0-.465.18-.858.53-1.2.69-.67 2.06-1.14 3.94-1.35-.65.55-1.2 1.31-1.61 2.28-.67 1.58-.76 3.13-.76 3.2-.01.25.18.47.43.48h.03c.24 0 .44-.19.46-.434 0-.02.09-1.46.69-2.89.41-.96.95-1.67 1.61-2.13-1.7 2.21-.8 7.46-.76 7.68.04.22.23.38.45.38l.08-.01c.25-.05.41-.29.37-.54-.25-1.43-.63-5.49.63-7.01.25-.307.55-.49.92-.565l.18 16.19h-.06l-1.01-3.91c-.02-.07-.06-.14-.11-.2l-1.26-1.34c-.14-.14-.36-.18-.54-.08l-1.782.954-1.787-.953c-.17-.09-.38-.06-.52.07l-3.03 2.83-.23-.183c-.75-.63-1.524-1.28-2.316-1.51-.31-.352-1.61-1.76-2.56-1.76-.59 0-2.16 0-2.16 1.16 0 .184-.09.44-.2.73-.16.45-.36 1.004-.36 1.69 0 .26.107.42.196.51.16.16.36.19.52.2l-.05.06c-.177.23-.44.58-.44 1.27 0 .93.82 1.377 1.62 1.42l-.02.29-.04.83h-1.34l-.08-.14-2.25-3.95c-.045-.08-.11-.14-.19-.18l-.04-.02.034-5.06c.895.403 1.385.855 1.385 1.304 0 .256.204.46.455.46s.45-.203.45-.46c0-.92-.77-1.69-2.29-2.3l.014-1.72c.67.27 1.33.74 1.98 1.4.18.18.46.188.64.01s.18-.47.01-.65c-.84-.88-1.71-1.46-2.61-1.75l.03-3.71c.494.29.876.728 1.092 1.258.25.61.25 1.275-.002 1.874-.09.234.01.51.25.604l.174.038c.176 0 .344-.1.42-.28.345-.83.35-1.744.004-2.58-.233-.58-.613-1.07-1.1-1.45 1.058-.27 2.226.127 2.87 1.065.09.13.23.2.375.2.09 0 .18-.028.26-.08.2-.15.253-.437.11-.64-.86-1.25-2.41-1.788-3.81-1.44.54-.827 1.56-1.3 2.63-1.113.245.04.48-.13.52-.38.04-.25-.12-.49-.37-.53-1.282-.22-2.53.27-3.3 1.19-.11-.29-.25-.57-.44-.825-.56-.74-1.37-1.24-2.29-1.4-.25-.048-.48.12-.523.372-.04.25.125.49.37.53.69.12 1.295.49 1.7 1.05.2.27.34.58.416.89-1.2-.8-2.84-.83-4.06.06-.2.15-.25.44-.1.65.15.21.43.255.636.107.915-.666 2.15-.646 3.05-.033-.58.19-1.1.52-1.513.99-.6.67-.9 1.54-.845 2.44.015.24.215.43.453.43h.03c.25-.02.44-.24.43-.49-.04-.65.18-1.28.61-1.77.29-.32.64-.56 1.04-.7L7.7 9c-.16-.01-.32-.017-.49-.01-1.62.073-2.852 1.043-3.43 1.598-.073-.13-.12-.272-.13-.43-.07-.835.708-1.91 1.01-2.255.17-.19.156-.48-.03-.65-.186-.17-.473-.16-.64.03-.057.06-1.356 1.54-1.244 2.95.04.48.23.89.574 1.23v6.16l-1.678.89c-.222.12-.31.395-.192.62.117.226.39.314.613.196l.387-.21.87-.46v10.52H.904c-.5 0-.907.41-.907.92s.406.92.908.92h30.198c.5 0 .908-.41.908-.92s-.4-.92-.9-.92zm-5.58-10.084c-.546-.453-1.29-.723-1.995-.723-.59 0-1.108.04-1.61.08-.507.04-1.03.08-1.643.08h-.045c-.098 0-.212-.03-.336-.08-.164-.07-.345-.18-.536-.32l2.683-2.5 1.72.92c.13.07.29.07.43 0l1.7-.9.95 1 1.07 4.14c.05.21.24.35.44.35h.42l.05 4.46-.13-.15c-.94-1.09-2-2.32-2-3.63 0-.83-.2-1.45-.47-1.91-.2-.34-.44-.6-.66-.78zm-5.293.356c.667 0 1.22-.042 1.755-.083.508-.04.988-.075 1.543-.075l.126.007c.144.01.394.04.672.15.637.24 1.422.83 1.422 2.33 0 1.65 1.237 3.08 2.23 4.23.303.35.61.7.836 1.02l.02 1.76-.107.18-.012.02h-.86l.037-.25c.08-.72-.158-1.3-.666-1.63-.88-.58-2.578-2.2-2.756-2.54-.225-.42-.677-.35-1.886-.15-.66.11-1.48.25-2.328.31h-.02c-1.36.09-2.782-.01-3.68-.74.088-.56.2-.99.305-1.39.17-.617.32-1.197.32-2.08 0-.256-.2-.46-.45-.46s-.45.203-.45.46c0 .762-.12 1.24-.28 1.84-.22.834-.49 1.873-.49 4.035 0 .88-.15 1.94-.24 2.49h-.47l-.01-.444c0-.79-.33-1.31-.65-1.81-.34-.55-.67-1.06-.67-2.02 0-1.17.06-2.25.11-3.19.04-.81.08-1.57.08-2.28 0-2.13.63-2.52 1.88-2.52.68 0 1.55.74 2.33 1.394.84.704 1.64 1.374 2.4 1.374zm-3.357 5.834l.205 3.655h-.906c.094-.61.227-1.62.227-2.5 0-.53.01-.98.04-1.38.14.08.28.15.43.21zm.925.287c.666.15 1.38.18 2.083.15.11.36.31.75.51 1.16.21.42.47.93.47 1.15 0 .4-.38.92-.51 1.07l-.06.09H18l-.202-3.6zm4.43 3.37h-.708c.133-.27.24-.59.24-.92 0-.44-.275-.99-.565-1.56-.13-.25-.278-.55-.376-.8.58-.06 1.14-.15 1.63-.23.25.84.56 2 .56 2.4 0 .52-.48 1.12-.8 1.12zM11.94 19.71c0-.374.113-.52.256-.708.14-.18.328-.43.328-.82 0-.27-.108-.434-.2-.525-.185-.184-.417-.205-.594-.205.035-.43.17-.8.3-1.163.13-.36.25-.7.25-1.05 0-.01.015-.24 1.25-.24.252 0 .757.35 1.25.8-1.44.24-2.068 1.29-2.068 3.38 0 .32-.01.66-.022 1.01-.458-.02-.75-.21-.75-.5zm-5.82-4.22l.152.028c.186 0 .36-.117.427-.305.43-1.234-.43-2.427-1.3-3.252.51.1 1.08.21 1.65.37l.48.14-.22 4.81-1.51-.75c-.13-.06-.29-.06-.41.01l-.9.48-.24-4.81c.21.17.45.38.68.61.55.56 1.16 1.38.9 2.12-.09.24.04.51.27.59zm-1.47 4.39l-.093-1.878 1.063-.563 1.66.83-.485 10.9H5.12l-.47-9.3zm2.595-9.974l.408.007-.07 1.6-.303-.083c-.93-.246-1.85-.408-2.51-.507.554-.445 1.422-.97 2.475-1.017zm1.363 19.27l.07-9.606 1.92 3.375c.08.143.23.23.392.23h1.566c-.016.475-.026.97-.026 1.486 0 1.24.454 1.95.818 2.52.283.45.506.8.506 1.33v.02l.02.66H8.606zm14.753-3.9l.43-.05c.52.685 2.17 2.18 2.95 2.69.44.285.24.992.14 1.262h-3.45c.31-.394.51-.902.51-1.36 0-.56-.35-1.82-.57-2.543zM14.78 9.768c.24-.207.584-.21.83-.032l.005.013c.074.16.235.26.41.26h.053c.177 0 .338-.11.41-.27l.008-.02c.246-.18.59-.18.83.03.19.16.478.14.64-.06.16-.2.135-.49-.057-.65-.54-.46-1.29-.49-1.86-.13-.57-.36-1.32-.33-1.86.13-.2.16-.22.45-.06.65s.45.22.64.05zm2.617 2.052c.16.195.447.22.64.057.24-.206.583-.21.83-.032l.004.013c.08.163.24.267.41.267h.06c.18 0 .34-.104.41-.266l.01-.02c.25-.18.59-.18.83.03.19.16.48.14.64-.06.17-.2.14-.49-.05-.65-.53-.46-1.29-.49-1.85-.13-.56-.36-1.32-.33-1.85.13-.19.16-.21.45-.05.65z" fill="#3A434E"/></g></svg>