<svg width="32" height="232" viewBox="0 0 32 232" xmlns="http://www.w3.org/2000/svg"><g fill="none"><path d="M31.954 136.257l-.005-.112c-.75-8.6-7.44-15.24-15.56-15.447-4.28-.11-8.34 1.56-11.43 4.698-3.1 3.14-4.86 7.37-4.96 11.918-.04 1.826.19 3.63.68 5.363.18.65.83 1.016 1.44.82l.05-.022.04.003c.25 0 .48-.173.55-.44l.05-.172c.05-.112.09-.232.1-.356 1.48-4.654 5.04-8.27 9.42-9.673v.008c-.03 5.557-2 10.343-6.03 14.633-.57.598-1.17 1.166-1.78 1.69-.5.422-.59 1.196-.19 1.728.22.305.56.465.9.465.25 0 .5-.08.72-.26.68-.58 1.35-1.21 1.97-1.87 2.35-2.5 4.09-5.23 5.21-8.17 2.3-4.44 4.27-6.05 6.17-7.61.67-.55 1.31-1.07 1.95-1.7l.05-.04v.01l.06-.06.024-.03.335-.35c1.275-1.36 1.9-2.74 1.9-4.22 0-.53-.077-1.04-.21-1.52 3.393 2.35 5.76 6.26 6.17 10.82v1.59c-1.36-1.84-3.476-3.03-5.84-3.03-4.1 0-7.43 3.55-7.43 7.91v7.527c0 .34.253.618.573.618.32 0 .58-.27.58-.61v-7.53c0-3.68 2.812-6.674 6.27-6.674 1.42 0 2.734.504 3.79 1.36-.82-.41-1.73-.647-2.696-.647-3.49 0-6.33 3.02-6.33 6.74v5.27c0 .34.26.61.58.61.32 0 .58-.28.58-.62v-5.27c0-3.032 2.32-5.503 5.18-5.503 2.12 0 3.95 1.36 4.75 3.31l.002 8.68c0 .68.52 1.23 1.155 1.23h.004c.64 0 1.16-.55 1.16-1.23l-.01-13.79zm-25.396-9.08c1.897-1.924 4.216-3.202 6.724-3.738l.136 4.95c-3.79.87-6.38 2.42-8.263 4.97-.362-.29-.91-.48-1.638-.72l-.326-.08c.72-2.02 1.86-3.86 3.37-5.39zm-3.7 6.587c.092 0 .2.02.323.06.33.105 1.19.385 1.33.557.02.18-.25.78-.51 1.36-.34.77-.8 1.81-1.31 3.26-.15-.73-.27-1.49-.35-2.19.07-1.03.23-2.05.48-3.03h.04zm2.097 2.695l.087-.2c.285-.64.497-1.11.582-1.52l.042-.06c1.158-1.77 3.088-3.92 7.785-5.05l.05 1.63c-3.33.69-6.32 2.55-8.54 5.18zm17.567-9.44c0 1.14-.487 2.2-1.533 3.32l-.03.03-.07.07c-.73.77-1.47 1.37-2.25 2.01-1.33 1.08-2.77 2.26-4.34 4.44.23-1.32.35-2.67.35-4.05l-.01-.15.02-.19-.26-9.28c.62-.08 1.26-.11 1.9-.09 1.9.04 3.72.51 5.36 1.3.51.71.82 1.6.82 2.56zm-5.416 1.01c.04.02.137.06.27.06.092 0 .182-.02.27-.07l.098-.06c.28-.22.345-.64.14-.94l-.03-.05c-.12-.15-.295-.23-.482-.23-.116 0-.23.03-.33.09l-.085.06c-.257.24-.29.65-.073.93.058.07.14.14.223.18zm-.125-.24l.38-.35v-.01l.01-.01.26.47c-.2.12-.48.07-.64-.12zm.74.05l-.31-.39-.01-.04.4-.35c.18.23.15.57-.07.77zm-.33-.99l.19.04h.01l-.2.49.2-.5-.2.48-.21-.47c.05-.02.12-.05.22-.05zm-2.09.57c0 1.23.95 2.24 2.1 2.24 1.16 0 2.1-1 2.1-2.24s-.94-2.24-2.1-2.24c-1.16 0-2.1 1-2.1 2.23zm1.78-.46l.3.43-.02-.03.02.03-.01.03-.39.3c-.17-.25-.12-.6.11-.78zm.33-.55c.52 0 .95.45.95 1s-.42 1-.94 1-.94-.45-.94-1.01.43-1.007.95-1.007z" fill="#206FAC"/><path d="M31.954 96.257l-.005-.112c-.75-8.6-7.44-15.24-15.56-15.447-4.28-.11-8.34 1.56-11.43 4.698C1.86 88.536.1 92.766 0 97.314c-.04 1.826.19 3.63.684 5.363.185.65.83 1.016 1.44.82l.055-.022.04.003c.25 0 .48-.173.55-.44l.05-.172c.05-.112.09-.232.1-.356 1.48-4.654 5.04-8.27 9.42-9.673v.008c-.03 5.557-2 10.343-6.03 14.633-.57.598-1.17 1.166-1.78 1.69-.5.422-.59 1.196-.19 1.728.22.305.56.465.9.465.25 0 .5-.08.72-.26.68-.58 1.35-1.21 1.97-1.87 2.35-2.5 4.09-5.23 5.21-8.17 2.3-4.44 4.27-6.05 6.17-7.61.67-.55 1.31-1.07 1.95-1.7l.05-.04v.01l.06-.06.03-.03.33-.35c1.28-1.36 1.9-2.74 1.9-4.22 0-.53-.08-1.04-.21-1.52 3.4 2.35 5.76 6.26 6.17 10.82v1.59c-1.36-1.84-3.47-3.03-5.84-3.03-4.1 0-7.43 3.55-7.43 7.91v7.527c0 .34.26.618.58.618.32 0 .58-.27.58-.61v-7.53c0-3.68 2.81-6.674 6.27-6.674 1.42 0 2.74.504 3.79 1.36-.82-.41-1.73-.647-2.69-.647-3.49 0-6.33 3.02-6.33 6.74v5.27c0 .34.26.61.58.61.32 0 .58-.28.58-.62v-5.27c0-3.032 2.32-5.503 5.17-5.503 2.12 0 3.95 1.36 4.74 3.31l.008 8.68c0 .68.514 1.23 1.15 1.23h.004c.64 0 1.156-.55 1.155-1.23L31.9 96.3zm-25.396-9.08c1.897-1.924 4.216-3.202 6.724-3.738l.136 4.95c-3.79.87-6.38 2.42-8.263 4.97-.362-.29-.91-.48-1.638-.72l-.326-.08c.72-2.02 1.86-3.86 3.37-5.39zm-3.7 6.587c.092 0 .2.02.323.06.33.105 1.19.385 1.33.557.02.18-.25.78-.51 1.36-.34.77-.8 1.81-1.31 3.26-.15-.73-.27-1.49-.35-2.19.07-1.03.23-2.05.48-3.03h.04zm2.097 2.695l.087-.2c.285-.64.497-1.11.582-1.52l.042-.06c1.158-1.77 3.088-3.92 7.785-5.05l.05 1.63c-3.33.69-6.32 2.55-8.54 5.18zm17.567-9.44c0 1.14-.487 2.2-1.533 3.32l-.03.03-.07.07c-.73.77-1.47 1.37-2.25 2.01-1.33 1.08-2.77 2.26-4.34 4.44.23-1.32.35-2.67.35-4.05l-.01-.15.02-.19-.26-9.28c.62-.08 1.26-.11 1.9-.09 1.9.04 3.72.51 5.36 1.3.51.71.82 1.6.82 2.56zm-5.416 1.01c.04.02.137.06.27.06.092 0 .182-.02.27-.07l.098-.06c.28-.22.345-.64.14-.94l-.03-.05c-.12-.15-.295-.23-.482-.23-.116 0-.23.03-.33.09l-.085.06c-.257.24-.29.65-.073.93.058.07.14.14.223.18zm-.125-.24l.38-.35v-.01l.01-.01.26.47c-.2.12-.48.07-.64-.12zm.74.05l-.31-.39-.01-.04.4-.35c.18.23.15.57-.07.77zm-.33-.99l.19.04h.01l-.2.49.2-.5-.2.48-.21-.47c.05-.02.12-.05.22-.05zm-2.09.57c0 1.23.95 2.24 2.1 2.24 1.16 0 2.1-1 2.1-2.24s-.94-2.24-2.1-2.24c-1.16 0-2.1 1-2.1 2.23zm1.78-.46l.3.43-.02-.03.02.03-.01.03-.39.3c-.17-.25-.12-.6.11-.78zm.33-.55c.52 0 .95.45.95 1s-.42 1-.94 1-.94-.45-.94-1.01.43-1.007.95-1.007z" fill="#fff"/><path d="M31.954 56.257l-.005-.112c-.75-8.6-7.44-15.24-15.56-15.447-4.28-.11-8.34 1.56-11.43 4.698C1.86 48.536.1 52.766 0 57.314c-.04 1.826.19 3.63.684 5.363.185.65.83 1.016 1.44.82l.055-.022.04.003c.25 0 .48-.173.55-.44l.05-.172c.05-.112.09-.232.1-.356 1.48-4.654 5.04-8.27 9.42-9.673v.008c-.03 5.557-2 10.343-6.03 14.633-.57.598-1.17 1.166-1.78 1.69-.5.422-.59 1.196-.19 1.728.22.305.56.465.9.465.25 0 .5-.08.72-.26.68-.58 1.35-1.21 1.97-1.87 2.35-2.5 4.09-5.23 5.21-8.17 2.3-4.44 4.27-6.05 6.17-7.61.67-.55 1.31-1.07 1.95-1.7l.05-.04v.01l.06-.06.03-.03.33-.35c1.28-1.36 1.9-2.74 1.9-4.22 0-.53-.08-1.04-.21-1.52 3.4 2.35 5.76 6.26 6.17 10.82v1.59c-1.36-1.84-3.47-3.03-5.84-3.03-4.1 0-7.43 3.55-7.43 7.91v7.527c0 .34.26.618.58.618.32 0 .58-.27.58-.61V62.8c0-3.68 2.81-6.673 6.27-6.673 1.42 0 2.74.505 3.79 1.36-.82-.41-1.73-.64-2.69-.64-3.49 0-6.33 3.02-6.33 6.733v5.27c0 .34.26.62.58.62.32 0 .58-.275.58-.615v-5.27c0-3.036 2.32-5.507 5.17-5.507 2.12 0 3.95 1.366 4.74 3.314l.008 8.684c0 .68.514 1.23 1.15 1.23h.004c.64 0 1.156-.556 1.155-1.23L31.9 56.28zm-25.396-9.08c1.897-1.924 4.216-3.202 6.724-3.738l.136 4.95c-3.79.87-6.38 2.42-8.263 4.97-.362-.29-.91-.48-1.638-.72l-.326-.08c.72-2.02 1.86-3.86 3.37-5.39zm-3.7 6.587c.092 0 .2.02.323.06.33.105 1.19.385 1.33.557.02.18-.25.78-.51 1.36-.34.77-.8 1.81-1.31 3.26-.15-.73-.27-1.49-.35-2.19.07-1.03.23-2.05.48-3.03h.04zm2.097 2.695l.087-.2c.285-.64.497-1.11.582-1.52l.042-.06c1.158-1.77 3.088-3.92 7.785-5.05l.05 1.63c-3.33.69-6.32 2.55-8.54 5.18zm17.567-9.44c0 1.14-.487 2.2-1.533 3.32l-.03.03-.07.07c-.73.77-1.47 1.37-2.25 2.01-1.33 1.08-2.77 2.26-4.34 4.44.23-1.32.35-2.67.35-4.05l-.01-.15.02-.19-.26-9.28c.62-.08 1.26-.11 1.9-.09 1.9.04 3.72.51 5.36 1.3.51.71.82 1.6.82 2.56zm-5.416 1.01c.04.02.137.06.27.06.092 0 .182-.02.27-.07l.098-.06c.28-.22.345-.64.14-.94l-.03-.05c-.12-.15-.295-.23-.482-.23-.116 0-.23.03-.33.09l-.085.06c-.257.24-.29.65-.073.93.058.07.14.14.223.18zm-.125-.24l.38-.35v-.01l.01-.01.26.47c-.2.12-.48.07-.64-.12zm.74.05l-.31-.39-.01-.04.4-.35c.18.23.15.57-.07.77zm-.33-.99l.19.04h.01l-.2.49.2-.5-.2.48-.21-.47c.05-.02.12-.05.22-.05zm-2.09.57c0 1.23.95 2.24 2.1 2.24 1.16 0 2.1-1 2.1-2.24s-.94-2.24-2.1-2.24c-1.16 0-2.1 1-2.1 2.23zm1.78-.46l.3.43-.02-.03.02.03-.01.03-.39.3c-.17-.25-.12-.6.11-.78zm.33-.55c.52 0 .95.45.95 1s-.42 1-.94 1-.94-.45-.94-1.01.43-1.007.95-1.007z" fill="#67737B"/><path d="M31.954 16.257l-.005-.112C31.2 7.545 24.51.905 16.39.698c-4.273-.11-8.33 1.56-11.426 4.698-3.096 3.14-4.856 7.37-4.96 11.918-.04 1.826.19 3.63.685 5.363.18.65.83 1.016 1.44.82l.05-.022.04.003c.25 0 .48-.173.55-.44l.05-.172c.05-.112.08-.232.1-.356 1.48-4.654 5.04-8.27 9.42-9.673v.008c-.03 5.557-2 10.343-6.03 14.633-.56.598-1.16 1.166-1.78 1.69-.5.422-.59 1.196-.19 1.728.23.305.56.465.9.465.25 0 .5-.08.72-.26.68-.58 1.35-1.21 1.97-1.87 2.35-2.5 4.09-5.23 5.21-8.17 2.3-4.44 4.27-6.05 6.17-7.61.67-.55 1.31-1.07 1.96-1.7l.05-.04v.01l.06-.06.02-.03.33-.35c1.28-1.36 1.9-2.74 1.9-4.22 0-.53-.07-1.04-.21-1.52 3.4 2.35 5.76 6.26 6.17 10.82v1.59c-1.36-1.84-3.47-3.03-5.84-3.03-4.1 0-7.43 3.55-7.43 7.91v7.527c0 .34.26.618.58.618.32 0 .58-.27.58-.61V22.8c0-3.68 2.81-6.673 6.27-6.673 1.43 0 2.74.505 3.79 1.36-.82-.41-1.73-.64-2.695-.64-3.49 0-6.33 3.02-6.33 6.733v5.27c0 .34.26.62.58.62.32 0 .58-.275.58-.615v-5.27c0-3.036 2.32-5.507 5.18-5.507 2.123 0 3.95 1.366 4.75 3.314l.01 8.684c0 .68.52 1.23 1.154 1.23.64 0 1.156-.556 1.155-1.23l-.01-13.796zM6.558 7.177c1.897-1.924 4.216-3.202 6.724-3.738l.136 4.95c-3.79.87-6.38 2.42-8.263 4.97-.362-.29-.91-.48-1.638-.72l-.326-.08c.72-2.02 1.86-3.86 3.37-5.39zm-3.7 6.587c.092 0 .2.02.323.06.33.105 1.19.385 1.33.557.02.18-.25.78-.51 1.36-.34.77-.8 1.81-1.31 3.26-.15-.73-.27-1.49-.35-2.19.07-1.03.23-2.05.48-3.03h.04zm2.097 2.695l.087-.2c.285-.64.497-1.11.582-1.52l.042-.06c1.158-1.77 3.088-3.92 7.785-5.05l.05 1.63c-3.33.69-6.32 2.55-8.54 5.18zm17.567-9.44c0 1.14-.487 2.2-1.533 3.32l-.03.03-.07.06c-.73.77-1.47 1.37-2.25 2.01-1.33 1.08-2.77 2.26-4.34 4.44.23-1.32.35-2.67.35-4.05l-.01-.15.02-.19-.26-9.28c.62-.08 1.26-.11 1.9-.09 1.9.05 3.72.51 5.36 1.31.51.71.82 1.6.82 2.56zm-5.416 1.01c.04.02.137.06.27.06.092 0 .182-.02.27-.07l.098-.06c.28-.22.345-.64.14-.94l-.03-.05c-.12-.15-.295-.23-.482-.23-.116 0-.23.03-.33.09l-.085.06c-.257.23-.29.64-.073.93.058.07.14.14.223.17zm-.126-.23l.374-.35.002-.01h-.002l.012-.01.26.47c-.205.12-.482.07-.644-.12zm.733.05l-.313-.38-.017-.04.402-.35c.177.23.145.57-.072.77zm-.336-.99l.19.04h.01l-.203.49.193-.5-.2.48-.206-.48c.05-.02.12-.05.22-.05zm-2.093.58c0 1.23.943 2.23 2.102 2.23 1.16 0 2.102-1 2.102-2.24s-.943-2.23-2.102-2.23c-1.16 0-2.102 1-2.102 2.23zm1.778-.46l.298.43h-.002l-.023-.03.02.03-.015.03-.39.3c-.17-.25-.12-.6.11-.78zm.325-.55c.52 0 .945.45.945 1s-.424 1-.945 1c-.52 0-.946-.45-.946-1s.43-1.01.95-1.01z" fill="#3A434E"/></g></svg>