<svg width="32" height="232" viewBox="0 0 32 232" xmlns="http://www.w3.org/2000/svg"><g fill="none"><path d="M18.352 146.43c.458 0 .71-.096.91-.173.167-.064.287-.11.57-.11.26 0 .47-.207.47-.462s-.21-.462-.47-.462c-.46 0-.71.096-.912.174-.167.064-.287.11-.568.11-.28 0-.4-.047-.567-.11-.202-.078-.453-.174-.91-.174-.46 0-.71.096-.912.174-.166.064-.286.11-.567.11-.28 0-.4-.047-.568-.11-.202-.078-.452-.174-.91-.174-.46 0-.71.096-.912.174-.167.064-.287.11-.568.11-.28 0-.4-.047-.567-.11-.2-.078-.45-.174-.91-.174-.45 0-.71.096-.91.174-.16.064-.28.11-.57.11-.28 0-.4-.047-.56-.11-.2-.078-.45-.174-.91-.174s-.71.096-.91.174c-.16.064-.28.11-.57.11-.28 0-.4-.047-.56-.11-.2-.078-.45-.174-.91-.174s-.71.096-.91.174c-.16.064-.28.11-.56.11s-.4-.047-.57-.11c-.2-.078-.45-.174-.91-.174-.26 0-.47.207-.47.462 0 .256.21.462.47.462.28 0 .4.046.57.11.21.077.46.173.91.173.46 0 .71-.096.92-.173.17-.064.29-.11.57-.11.28 0 .4.046.57.11.2.077.45.173.91.173s.71-.096.91-.173c.17-.064.29-.11.57-.11.28 0 .4.046.57.11.2.077.45.173.91.173s.71-.096.91-.173c.17-.064.29-.11.57-.11.28 0 .4.046.56.11.2.077.45.173.91.173s.71-.096.91-.173c.17-.064.29-.11.57-.11.28 0 .4.046.57.11.206.077.457.173.91.173s.71-.096.916-.173c.16-.064.283-.11.564-.11.28 0 .4.046.57.11.2.077.454.173.91.173m-1.31-21.46h.21c-.034.112-.053.23-.053.35 0 .703.59 1.274 1.3 1.274H27c.315 0 .62-.114.858-.32.28-.24.44-.59.44-.954 0-.365-.16-.713-.44-.955-.233-.205-.54-.318-.86-.318h-4.83l.02-.174c0-.315-.136-.615-.38-.824-.203-.18-.47-.28-.74-.28h-3.99c-.616 0-1.12.49-1.12 1.1 0 .6.504 1.1 1.12 1.1zm0-1.27h3.984l.12.043.06.13-.06.13-.12.043c-.26 0-.47.207-.47.462s.21.463.47.463H27c.11 0 .19.05.232.09.04.04.12.13.12.26s-.08.23-.12.26c-.05.04-.13.09-.24.09H18.5c-.197 0-.356-.15-.356-.35 0-.19.16-.35.356-.35.26 0 .472-.2.472-.46h.002c0-.25-.21-.46-.472-.46h-1.46c-.098 0-.178-.08-.178-.17 0-.09.08-.17.177-.17zm-14.2 20.01c.165-.064.285-.11.566-.11.28 0 .4.046.563.11.2.077.45.174.91.174s.71-.096.91-.174c.16-.064.28-.11.57-.11.28 0 .4.046.56.11.21.077.46.174.91.174.46 0 .71-.096.92-.174.17-.064.29-.11.57-.11.28 0 .4.046.57.11.2.077.45.174.91.174s.71-.096.91-.174c.16-.064.28-.11.57-.11.28 0 .4.046.56.11.2.077.45.174.91.174s.71-.096.91-.174c.16-.064.28-.11.56-.11s.4.046.57.11c.2.077.45.174.91.174s.71-.096.91-.174c.16-.064.28-.11.57-.11.28 0 .4.046.56.11.2.077.45.174.91.174s.71-.096.91-.174c.163-.064.283-.11.57-.11.28 0 .4.046.57.11.2.077.45.174.91.174s.71-.096.91-.174c.17-.064.29-.11.57-.11h.05c-.09.62-.14 1.302-.14 2.048 0 .255.21.463.47.463h3.43c.26 0 .47-.2.47-.46v-1.77l.153.01c.455 0 .71-.09.91-.17.164-.06.285-.11.566-.11.28 0 .4.05.57.11.2.08.45.18.91.18.26 0 .47-.21.47-.46s-.21-.46-.47-.46l-.26-.02c.05-.1.07-.22.07-.34v-2.36c0-.48-.37-.87-.85-.92v-.89c0-.25-.21-.46-.47-.46s-.47.21-.47.47v.85l-1.12-.05v-3.06c0-.253-.21-.46-.47-.46s-.47.207-.47.46v1.69c-.285.17-.843.555-1.43 1.26l-10.115-.49v-2.582h3.337v.65c0 .255.21.46.47.46h1.79c.26 0 .477-.21.477-.463v-1.26h2.127c.26 0 .47-.2.47-.46v-.12h5.38v1.727c0 .26.21.467.47.467s.47-.21.47-.46v-2.19c0-.25-.21-.46-.47-.46h-6.32c-.26 0-.474.21-.474.46v.13h-2.15c-.26 0-.47.21-.47.46v1.26h-.84v-.65c0-.26-.21-.465-.473-.465h-3.81v-4.1h2.79v.12c0 .257.21.46.47.46h2.12v1.26c0 .258.21.46.477.46h1.79c.26 0 .47-.21.47-.46v-.65h2.4c.26 0 .47-.21.47-.46v-1.59h3.3c.26 0 .47-.21.47-.466s-.21-.46-.47-.46h-3.78c-.26 0-.47.21-.47.462v1.59h-2.4c-.26 0-.47.21-.47.46v.65h-.85v-1.26c0-.256-.21-.46-.47-.46h-2.12v-.13c0-.253-.21-.46-.473-.46h-3.25v-1.24h.02c.26 0 .47-.205.47-.46v-1.5c0-.253-.21-.46-.47-.46h-2.01c-.26 0-.48.207-.48.46v.405h-.38v-.4c0-.26-.21-.464-.47-.464h-1.65c-.26 0-.47.21-.47.465v.4H10.1v-.4c0-.256-.21-.46-.473-.46H7.97c-.262 0-.473.204-.473.46v.402h-.382v-.404c0-.25-.21-.46-.472-.46H4.988c-.26 0-.472.21-.472.46v.41h-.382v-.405c0-.255-.212-.46-.472-.46H1.664c-.26 0-.472.21-.472.46v1.5c0 .255.21.46.472.46h.077v11.83l-.77 2.03c-.13-.03-.29-.05-.49-.05-.26 0-.47.21-.47.46 0 .26.21.468.48.468.28 0 .4.045.57.11.2.076.45.173.91.173s.71-.09.91-.17zm-.724-16.355H3.2v.403c0 .255.21.462.47.462H5c.26 0 .472-.208.472-.462v-.403h.71v.403c0 .255.21.462.47.462h1.32c.26 0 .47-.208.47-.462v-.403h.71v.403c0 .255.21.462.47.462h1.32c.26 0 .48-.208.48-.462v-.403h.71v.403c0 .255.21.462.48.462h1.32c.26 0 .47-.208.47-.462v-.403h1.062v.573h-.02c-.26 0-.473.207-.473.462v.674c-.52 0-.94.414-.94.924v9.508c0 .493.4.9.9.924l.05.002.47.023.47.023 9.02.432c-.1.24-.202.498-.3.772h-21v-11.684c0-.51-.42-.924-.94-.924v-.674c0-.255-.21-.462-.47-.462h-.08v-.573zm25.12 11.806l.204-.18v6.21H25c.016-.48.054-.93.112-1.35l.044-.31.114-.6.08-.32c.09-.33.19-.64.296-.92.1-.26.205-.5.315-.72.17-.34.358-.64.54-.9.27-.37.54-.66.777-.89zm2.18 2.52h-1.04v-.6l1.037.05v.56zm2.02 6.81c-.404 0-.59-.07-.82-.16l-.21-.07c.86-.44 1.095-.95 1.13-1.04.058-.14.04-.3-.05-.42s-.233-.2-.39-.2h-8.82c-.154 0-.3.08-.39.2-.085.13-.105.29-.05.43.046.12.365.81 1.678 1.28h-.015c-.406 0-.59-.07-.82-.16-.27-.1-.58-.22-1.164-.22s-.893.12-1.164.22c-.23.09-.41.16-.82.16-.4 0-.59-.07-.82-.16-.27-.1-.58-.22-1.16-.22-.26 0-.47.21-.47.47s.21.46.47.46c.41 0 .59.07.82.16.28.11.58.22 1.17.22s.9-.12 1.17-.22c.23-.09.42-.16.82-.16s.59.07.82.16c.27.11.58.22 1.17.22s.89-.12 1.17-.22c.23-.09.42-.16.82-.16.41 0 .59.07.82.16.28.11.58.22 1.17.22s.9-.12 1.17-.22c.23-.09.42-.16.82-.16.41 0 .59.07.82.16.27.11.58.22 1.17.22.26 0 .47-.2.47-.46s-.21-.46-.47-.46zm-1.612-.98c-.584.27-1.553.52-3.135.52-1.57 0-2.54-.24-3.13-.51h6.26zM6.43 135.04c-.017-.373-.33-.67-.72-.67-.384 0-.7.297-.717.67v.44H6.43v-.44zm3.018 0c-.02-.373-.333-.67-.72-.67-.385 0-.7.297-.72.67v.44h1.44v-.44zm3.017 0c-.018-.373-.332-.67-.718-.67-.39 0-.707.297-.72.67v.44h1.432v-.44zm-6.035-2.3c-.018-.373-.332-.67-.72-.67-.385 0-.7.297-.718.67v.44H6.43v-.44zm3.017 0c-.02-.373-.334-.67-.72-.67-.386 0-.7.297-.72.67v.44h1.44v-.44zm3.016 0c-.008-.177-.084-.337-.202-.457-.13-.13-.31-.213-.51-.213s-.39.08-.52.212c-.12.12-.19.28-.2.456v.44h1.44v-.44zm-6.034-2.21c-.01-.218-.12-.41-.29-.53-.12-.09-.27-.14-.43-.14-.17 0-.31.05-.43.14-.17.12-.28.31-.29.53v.44h1.44v-.44zm3.01 0c-.01-.218-.12-.41-.29-.53-.12-.09-.27-.14-.43-.14-.16 0-.31.05-.43.14-.17.12-.28.31-.29.53v.44h1.44v-.44zm3.01.44v-.44l-.03-.178c-.05-.143-.14-.265-.26-.353-.12-.09-.27-.15-.43-.15-.17 0-.31.05-.43.14-.17.12-.28.31-.29.53v.44h1.43zm-6.04 6.265c-.02-.374-.33-.67-.72-.67-.39 0-.7.296-.72.67v.44h1.44v-.44zm3.01 0c-.02-.374-.34-.67-.72-.67-.39 0-.7.296-.72.67v.44h1.44v-.44zm3.01 0c-.02-.374-.33-.67-.72-.67-.39 0-.71.296-.72.67v.44h1.43v-.44zM6.4 139.43c-.02-.37-.332-.67-.72-.67-.385 0-.7.3-.72.67v.44H6.4v-.44zm3.017 0c-.02-.37-.336-.67-.72-.67-.388 0-.7.3-.72.67v.44h1.44v-.44zm3.014 0c-.02-.37-.33-.67-.72-.67-.39 0-.7.3-.72.67v.44h1.44v-.44z" fill="#206FAC"/><path d="M18.352 106.43c.458 0 .71-.096.91-.173.167-.064.287-.11.57-.11.26 0 .47-.207.47-.462s-.21-.462-.47-.462c-.46 0-.71.096-.912.174-.167.064-.287.11-.568.11-.28 0-.4-.047-.567-.11-.202-.078-.453-.174-.91-.174-.46 0-.71.096-.912.174-.166.064-.286.11-.567.11-.28 0-.4-.047-.568-.11-.202-.078-.452-.174-.91-.174-.46 0-.71.096-.912.174-.167.064-.287.11-.568.11-.28 0-.4-.047-.567-.11-.2-.078-.45-.174-.91-.174-.45 0-.71.096-.91.174-.16.064-.28.11-.57.11-.28 0-.4-.047-.56-.11-.2-.078-.45-.174-.91-.174s-.71.096-.91.174c-.16.064-.28.11-.57.11-.28 0-.4-.047-.56-.11-.2-.078-.45-.174-.91-.174s-.71.096-.91.174c-.16.064-.28.11-.56.11s-.4-.047-.57-.11c-.2-.078-.45-.174-.91-.174-.26 0-.47.207-.47.462 0 .256.21.462.47.462.28 0 .4.046.57.11.21.077.46.173.91.173.46 0 .71-.096.92-.173.17-.064.29-.11.57-.11.28 0 .4.046.57.11.2.077.45.173.91.173s.71-.096.91-.173c.17-.064.29-.11.57-.11.28 0 .4.046.57.11.2.077.45.173.91.173s.71-.096.91-.173c.17-.064.29-.11.57-.11.28 0 .4.046.56.11.2.077.45.173.91.173s.71-.096.91-.173c.17-.064.29-.11.57-.11.28 0 .4.046.57.11.206.077.457.173.91.173s.71-.096.916-.173c.16-.064.283-.11.564-.11.28 0 .4.046.57.11.2.077.454.173.91.173m-1.31-21.46h.21c-.033.112-.05.23-.05.35 0 .703.584 1.274 1.3 1.274H27c.313 0 .62-.114.856-.32.28-.24.44-.59.44-.954 0-.365-.16-.713-.44-.955-.233-.205-.54-.318-.86-.318h-4.83l.02-.174c0-.315-.14-.615-.38-.824-.207-.18-.47-.28-.74-.28h-3.99c-.62 0-1.12.49-1.12 1.1 0 .6.5 1.1 1.12 1.1zm0-1.27h3.985l.11.043.06.13-.06.13-.12.043c-.26 0-.47.207-.47.462s.21.463.47.463h5.94c.11 0 .19.05.24.09.042.04.12.13.12.26s-.08.23-.12.26c-.05.04-.13.09-.24.09H18.5c-.197 0-.356-.15-.356-.35 0-.19.16-.35.356-.35.26 0 .472-.2.472-.46h.002c0-.25-.21-.46-.472-.46h-1.46c-.098 0-.178-.08-.178-.17 0-.09.08-.17.177-.17zm-14.2 20.01c.165-.064.285-.11.566-.11.28 0 .4.046.564.11.202.077.452.174.91.174.46 0 .71-.096.91-.174.167-.064.29-.11.57-.11.28 0 .4.046.567.11.207.077.457.174.91.174.46 0 .71-.096.917-.174.17-.064.29-.11.57-.11.28 0 .4.046.57.11.2.077.45.174.91.174s.71-.096.91-.174c.17-.064.29-.11.57-.11.28 0 .4.046.57.11.2.077.45.174.91.174s.71-.096.91-.174c.17-.064.29-.11.57-.11.28 0 .4.046.57.11.2.077.45.174.91.174s.71-.096.91-.174c.17-.064.29-.11.57-.11.28 0 .4.046.57.11.2.077.46.174.91.174.46 0 .71-.096.92-.174.17-.064.29-.11.57-.11.29 0 .41.046.57.11.2.077.45.174.91.174s.71-.096.91-.174c.17-.064.29-.11.57-.11h.05c-.09.62-.14 1.302-.14 2.048 0 .255.21.463.47.463h3.43c.26 0 .475-.2.475-.46v-1.77l.153.01c.46 0 .71-.09.91-.17.17-.06.29-.11.57-.11.28 0 .4.05.57.11.2.08.45.18.91.18.26 0 .475-.21.475-.46s-.21-.46-.476-.46l-.26-.02c.04-.1.064-.22.064-.34v-2.36c0-.48-.37-.87-.85-.92v-.89c0-.25-.21-.46-.47-.46s-.47.21-.47.47v.85l-1.126-.05v-3.07c0-.25-.21-.46-.47-.46s-.47.21-.47.467v1.69c-.286.17-.844.556-1.43 1.26l-10.12-.49v-2.58h3.34v.65c0 .25.21.46.47.46h1.79c.26 0 .472-.21.472-.46v-1.26h2.125c.26 0 .47-.21.47-.46v-.13H30V96.6c0 .26.21.47.47.47s.47-.206.47-.46v-2.2c0-.255-.21-.46-.47-.46h-6.32c-.26 0-.476.205-.476.46v.125h-2.13c-.26 0-.472.207-.472.46v1.264h-.85v-.65c0-.26-.21-.47-.47-.47h-3.81v-4.1h2.786v.13c0 .25.21.46.47.46h2.12v1.26c0 .26.21.46.47.46h1.795c.26 0 .472-.2.472-.46v-.65h2.408c.26 0 .47-.21.47-.46v-1.59h3.3c.26 0 .47-.21.47-.46s-.21-.46-.47-.46h-3.78c-.26 0-.472.21-.472.46v1.59h-2.4c-.26 0-.47.21-.47.46v.65h-.85v-1.27c0-.26-.21-.46-.47-.46h-2.12v-.13c0-.26-.21-.468-.47-.468h-3.25v-1.23h.02c.26 0 .47-.203.47-.46v-1.5c0-.252-.21-.46-.47-.46h-2.01c-.26 0-.47.21-.47.46v.406h-.38v-.41c0-.26-.21-.47-.47-.47h-1.68c-.26 0-.47.21-.47.46v.4h-.38v-.4c0-.254-.21-.46-.47-.46H7.97c-.262 0-.473.21-.473.46v.404h-.382v-.4c0-.257-.21-.464-.472-.464H4.988c-.26 0-.472.21-.472.465v.41h-.382v-.41c0-.256-.212-.463-.472-.463H1.664c-.26 0-.472.21-.472.47v1.49c0 .254.21.462.472.462h.077v11.84l-.77 2.03c-.13-.03-.29-.05-.49-.05-.26 0-.47.21-.47.465s.21.46.48.46c.28 0 .4.043.57.11.2.074.45.17.91.17s.71-.094.91-.17zm-.73-16.355H3.2v.403c0 .255.21.462.47.462h1.326c.26 0 .472-.208.472-.462v-.403h.71v.403c0 .255.212.462.473.462h1.33c.26 0 .474-.208.474-.462v-.403h.71v.403c0 .255.21.462.472.462h1.326c.26 0 .473-.208.473-.462v-.403h.71v.403c0 .255.212.462.473.462h1.327c.26 0 .472-.208.472-.462v-.403h1.064v.573h-.02c-.26 0-.47.207-.47.462v.674c-.52 0-.944.414-.944.924v9.508c0 .493.392.9.894.924l.045.002.47.023.47.023 9.02.432c-.108.24-.21.498-.3.772H3.632V89.988c0-.51-.422-.924-.943-.924v-.674c0-.255-.21-.462-.48-.462h-.07v-.573zM27.27 99.16l.206-.18v6.207h-2.48c.016-.483.054-.933.11-1.352l.05-.312.115-.6.08-.325c.09-.333.19-.64.3-.925.1-.26.21-.502.32-.723.17-.343.36-.642.54-.9.27-.376.54-.668.78-.89zm2.184 2.513H28.42v-.605l1.033.05v.556zm2.02 6.807c-.406 0-.59-.07-.82-.16l-.21-.076c.86-.442 1.093-.948 1.13-1.044.053-.143.034-.302-.054-.427-.09-.125-.235-.2-.39-.2h-8.82c-.156 0-.302.075-.39.2-.087.125-.107.285-.05.427.044.114.363.805 1.676 1.28h-.016c-.407 0-.59-.07-.82-.16-.272-.103-.58-.22-1.165-.22s-.893.118-1.164.22c-.23.09-.41.16-.82.16-.4 0-.59-.07-.82-.16-.27-.103-.58-.22-1.16-.22-.26 0-.47.207-.47.462 0 .256.21.462.47.462.41 0 .59.07.82.16.28.103.58.22 1.17.22s.9-.118 1.17-.22c.23-.09.42-.16.82-.16s.59.07.82.16c.27.103.58.22 1.17.22s.89-.118 1.17-.22c.23-.09.42-.16.82-.16.41 0 .59.07.82.16.28.103.58.22 1.17.22s.9-.118 1.17-.22c.23-.09.42-.16.82-.16.41 0 .59.07.82.16.27.103.58.22 1.17.22.26 0 .47-.207.47-.462s-.21-.462-.47-.462zm-1.614-.983c-.586.265-1.555.513-3.137.513-1.57 0-2.54-.247-3.128-.513h6.265zM6.44 95.027c-.02-.373-.333-.67-.72-.67-.386 0-.7.297-.72.67v.44h1.44v-.44zm3.016 0c-.015-.373-.33-.67-.72-.67-.382 0-.7.297-.715.67v.44h1.43v-.44zm3.02 0c-.02-.373-.332-.67-.72-.67-.39 0-.71.297-.72.67v.44h1.43v-.44zm-6.04-2.297c-.017-.373-.33-.67-.72-.67-.384 0-.7.297-.717.67v.44h1.43v-.44zm3.018 0c-.02-.373-.333-.67-.72-.67-.385 0-.7.297-.72.67v.44h1.44v-.44zm3.017 0c-.005-.177-.08-.337-.2-.457-.13-.132-.312-.214-.515-.214s-.39.08-.52.21c-.12.12-.2.28-.21.45v.44h1.43v-.44zm-6.03-2.21c-.01-.218-.12-.41-.288-.532-.12-.09-.27-.14-.43-.14-.164 0-.313.05-.433.14-.167.122-.278.313-.29.53v.44h1.43v-.44zm3.017 0c-.01-.218-.12-.41-.29-.532-.12-.09-.27-.14-.43-.14-.163 0-.31.05-.43.14-.168.122-.28.313-.29.53v.44h1.44v-.44zm3.015.44v-.44l-.033-.178c-.047-.143-.137-.265-.256-.353-.12-.09-.27-.15-.43-.15-.162 0-.31.05-.43.14-.167.12-.28.31-.29.53v.44h1.438zm-6.04 6.265c-.017-.373-.33-.67-.72-.67-.384 0-.7.297-.717.67v.44H6.43v-.44zm3.018 0c-.02-.373-.334-.67-.72-.67-.386 0-.7.297-.72.67v.44h1.44v-.44zm3.016 0c-.018-.373-.332-.67-.718-.67-.39 0-.71.297-.72.67v.44h1.43v-.44zM6.43 99.422c-.018-.373-.332-.67-.72-.67-.385 0-.7.297-.718.67v.44H6.43v-.44zm3.017 0c-.02-.373-.334-.67-.72-.67-.386 0-.7.297-.72.67v.44h1.44v-.44zm3.016 0c-.018-.373-.332-.67-.718-.67-.39 0-.71.297-.72.67v.44h1.43v-.44z" fill="#fff"/><path d="M18.352 66.43c.458 0 .71-.096.91-.173.167-.064.287-.11.57-.11.26 0 .47-.207.47-.462s-.21-.462-.47-.462c-.46 0-.71.096-.912.174-.167.064-.287.11-.568.11-.28 0-.4-.047-.567-.11-.202-.078-.453-.174-.91-.174-.46 0-.71.096-.912.174-.166.064-.286.11-.567.11-.28 0-.4-.047-.568-.11-.202-.078-.452-.174-.91-.174-.46 0-.71.096-.912.174-.167.064-.287.11-.568.11-.28 0-.4-.047-.567-.11-.2-.078-.45-.174-.91-.174-.45 0-.71.096-.91.174-.16.064-.28.11-.57.11-.28 0-.4-.047-.56-.11-.2-.078-.45-.174-.91-.174s-.71.096-.91.174c-.16.064-.28.11-.57.11-.28 0-.4-.047-.56-.11-.2-.078-.45-.174-.91-.174s-.71.096-.91.174c-.16.064-.28.11-.56.11s-.4-.047-.57-.11c-.2-.078-.45-.174-.91-.174-.26 0-.47.207-.47.462 0 .256.21.462.47.462.28 0 .4.046.57.11.21.077.46.173.91.173.46 0 .71-.096.92-.173.17-.064.29-.11.57-.11.28 0 .4.046.57.11.2.077.45.173.91.173s.71-.096.91-.173c.17-.064.29-.11.57-.11.28 0 .4.046.57.11.2.077.45.173.91.173s.71-.096.91-.173c.17-.064.29-.11.57-.11.28 0 .4.046.56.11.2.077.45.173.91.173s.71-.096.91-.173c.17-.064.29-.11.57-.11.28 0 .4.046.57.11.206.077.457.173.91.173s.71-.096.916-.173c.16-.064.283-.11.564-.11.28 0 .4.046.57.11.2.077.454.173.91.173m-1.31-21.46h.21c-.033.112-.05.23-.05.35 0 .703.584 1.274 1.3 1.274H27c.313 0 .62-.114.856-.32.28-.24.44-.59.44-.954 0-.365-.16-.713-.44-.955-.233-.205-.54-.318-.86-.318h-4.83l.02-.174c0-.315-.14-.615-.38-.824-.207-.18-.47-.28-.74-.28h-3.99c-.62 0-1.12.49-1.12 1.1 0 .6.5 1.1 1.12 1.1zm0-1.27h3.985l.11.043.06.13-.06.13-.12.043c-.26 0-.47.207-.47.462s.21.463.47.463h5.94c.11 0 .19.05.24.09.042.04.12.13.12.26s-.08.23-.12.26c-.05.04-.13.09-.24.09H18.5c-.197 0-.356-.15-.356-.35 0-.19.16-.35.356-.35.26 0 .472-.2.472-.46h.002c0-.25-.21-.46-.472-.46h-1.46c-.098 0-.178-.08-.178-.17 0-.09.08-.17.177-.17zM2.87 63.71c.164-.064.284-.11.565-.11.28 0 .4.046.57.11.2.077.45.174.91.174s.71-.096.91-.174c.17-.064.29-.11.57-.11.28 0 .4.046.57.11.2.077.45.174.91.174s.71-.096.91-.174c.17-.064.29-.11.57-.11.28 0 .4.046.57.11.2.077.45.174.91.174s.71-.096.91-.174c.17-.064.29-.11.57-.11.28 0 .4.046.57.11.2.077.45.174.91.174s.71-.096.91-.174c.167-.064.288-.11.568-.11.28 0 .4.046.57.11.2.077.453.174.91.174s.71-.096.91-.174c.167-.064.288-.11.57-.11.28 0 .4.046.57.11.2.077.45.174.91.174s.71-.096.91-.174c.166-.064.286-.11.567-.11.29 0 .41.046.57.11.2.077.45.174.91.174s.71-.096.91-.174c.17-.064.29-.11.57-.11h.05c-.09.62-.14 1.302-.14 2.048 0 .255.21.463.47.463h3.43c.26 0 .48-.2.48-.46v-1.77l.16.01c.46 0 .71-.09.91-.17.17-.06.29-.11.57-.11.28 0 .4.05.57.11.2.08.45.18.91.18.26 0 .48-.21.48-.46s-.21-.46-.477-.46l-.26-.02c.04-.1.064-.22.064-.34v-2.36c0-.48-.37-.87-.853-.92v-.89c0-.25-.21-.46-.47-.46s-.47.21-.47.47v.85l-1.12-.05v-3.07c0-.25-.21-.46-.47-.46s-.47.21-.47.467v1.69c-.29.17-.846.556-1.43 1.26l-10.12-.485v-2.58H19.3v.65c0 .253.21.46.47.46h1.79c.26 0 .47-.207.47-.46v-1.26h2.12c.26 0 .473-.207.473-.46v-.127H30v1.73c0 .26.21.47.47.47s.474-.205.474-.46v-2.2c0-.256-.21-.46-.47-.46h-6.32c-.26 0-.47.204-.47.46v.124h-2.12c-.26 0-.474.206-.474.46v1.263h-.842v-.65c0-.26-.21-.47-.47-.47h-3.81v-4.1h2.785v.13c0 .25.21.46.47.46h2.12v1.26c0 .253.21.46.475.46h1.79c.26 0 .47-.207.47-.46v-.65h2.41c.26 0 .47-.21.47-.464V50.2h3.304c.26 0 .47-.21.47-.47s-.21-.46-.47-.46h-3.78c-.26 0-.47.21-.47.462v1.59H23.6c-.26 0-.47.205-.47.46v.65h-.85v-1.27c0-.254-.21-.46-.47-.46h-2.12v-.126c0-.255-.21-.462-.47-.462h-3.26V50l-.006-.008v-1.13h.02c.26 0 .47-.206.47-.46v-1.5c0-.255-.21-.462-.47-.462h-2.02c-.26 0-.47.208-.47.463v.402h-.38V46.9c0-.254-.21-.46-.47-.46h-1.66c-.26 0-.472.207-.472.462v.402h-.4V46.9c0-.256-.21-.463-.47-.463H7.97c-.262 0-.473.208-.473.463v.403h-.382V46.9c0-.255-.21-.462-.472-.462H4.988c-.26 0-.472.208-.472.463v.41h-.382v-.41c0-.25-.212-.46-.472-.46H1.664c-.26 0-.472.21-.472.47v1.5c0 .26.21.47.472.47h.077v11.84l-.77 2.03c-.13-.03-.29-.05-.49-.05-.26 0-.47.21-.47.46s.21.46.48.46c.28 0 .4.05.57.11.2.08.45.18.91.18s.71-.09.91-.17zm-.73-16.355h1.054v.403c0 .255.21.462.472.462h1.326c.26 0 .472-.208.472-.462v-.403h.71v.403c0 .255.212.462.473.462h1.325c.26 0 .472-.208.472-.462v-.403h.71v.403c0 .255.212.462.473.462h1.325c.26 0 .472-.208.472-.462v-.403h.71v.403c0 .255.212.462.473.462h1.326c.26 0 .472-.208.472-.462v-.403h1.065v.573h-.02c-.26 0-.472.207-.472.462v.674c-.52 0-.943.414-.943.924v9.508c0 .493.395.9.897.924l.046.002.472.023.47.023 9.017.432c-.107.24-.208.498-.3.772H3.634V49.988c0-.51-.423-.924-.944-.924v-.674c0-.255-.21-.462-.472-.462H2.14v-.573zM27.262 59.16l.206-.18v6.207h-2.48c.016-.483.054-.933.112-1.352l.047-.312.116-.6.078-.325c.09-.333.19-.64.3-.925.1-.26.21-.502.32-.723.17-.343.36-.642.54-.9.27-.376.54-.668.78-.89zm2.184 2.513h-1.034v-.605l1.034.05v.556zm2.022 6.807c-.407 0-.59-.07-.82-.16l-.212-.076c.86-.442 1.094-.948 1.132-1.044.055-.143.036-.302-.052-.427-.09-.125-.234-.2-.39-.2H22.31c-.156 0-.302.075-.39.2-.087.125-.107.285-.05.427.044.114.363.805 1.676 1.28h-.016c-.407 0-.59-.07-.82-.16-.272-.103-.58-.22-1.165-.22s-.893.118-1.164.22c-.23.09-.41.16-.82.16-.4 0-.59-.07-.82-.16-.27-.103-.58-.22-1.16-.22-.26 0-.47.207-.47.462 0 .256.21.462.47.462.41 0 .59.07.82.16.28.103.58.22 1.17.22s.9-.118 1.17-.22c.23-.09.42-.16.82-.16s.59.07.82.16c.27.103.58.22 1.17.22s.89-.118 1.17-.22c.23-.09.42-.16.82-.16.41 0 .59.07.82.16.28.103.58.22 1.17.22s.9-.118 1.17-.22c.23-.09.42-.16.82-.16.41 0 .59.07.82.16.27.103.58.22 1.17.22.26 0 .47-.207.47-.462s-.21-.462-.47-.462zm-1.615-.983c-.585.265-1.554.513-3.136.513-1.57 0-2.54-.247-3.127-.513h6.262zm-23.42-12.47c-.018-.373-.332-.67-.72-.67-.385 0-.7.297-.718.67v.44h1.437v-.44zm3.017 0c-.018-.373-.333-.67-.72-.67-.385 0-.7.297-.718.67v.44H9.45v-.44zm3.017 0c-.018-.373-.332-.67-.718-.67-.39 0-.71.297-.72.67v.44h1.43v-.44zM6.433 52.73c-.018-.373-.332-.67-.72-.67-.385 0-.7.297-.718.67v.44h1.437v-.44zm3.017 0c-.018-.373-.333-.67-.72-.67-.385 0-.7.297-.718.67v.44H9.45v-.44zm3.017 0c-.008-.177-.084-.337-.202-.457-.13-.132-.313-.214-.516-.214s-.39.08-.52.21c-.12.12-.2.28-.21.45v.44h1.43v-.44zm-6.034-2.21c-.01-.218-.12-.41-.288-.532-.12-.09-.27-.14-.43-.14-.163 0-.312.05-.432.14-.166.122-.277.313-.288.53v.44h1.437v-.44zm3.017 0c-.01-.218-.12-.41-.288-.532-.12-.09-.27-.14-.43-.14-.163 0-.312.05-.43.14-.168.122-.28.313-.29.53v.44H9.45v-.44zm3.017.44v-.44l-.032-.178c-.046-.143-.136-.265-.255-.353-.12-.09-.268-.15-.43-.15-.162 0-.31.05-.43.14-.167.12-.28.31-.29.53v.44h1.438zm-6.034 6.265c-.018-.373-.332-.67-.72-.67-.385 0-.7.297-.718.67v.44h1.437v-.44zm3.017 0c-.018-.373-.333-.67-.72-.67-.385 0-.7.297-.718.67v.44H9.45v-.44zm3.017 0c-.018-.373-.332-.67-.718-.67-.39 0-.71.297-.72.67v.44h1.43v-.44zm-6.034 2.197c-.018-.373-.332-.67-.72-.67-.385 0-.7.297-.718.67v.44h1.437v-.44zm3.017 0c-.018-.373-.333-.67-.72-.67-.385 0-.7.297-.718.67v.44H9.45v-.44zm3.017 0c-.018-.373-.332-.67-.718-.67-.39 0-.71.297-.72.67v.44h1.43v-.44z" fill="#67737B"/><path d="M18.352 26.43c.458 0 .71-.096.91-.173.167-.064.287-.11.57-.11.26 0 .47-.207.47-.462s-.21-.462-.47-.462c-.46 0-.71.096-.912.174-.167.064-.287.11-.568.11-.28 0-.4-.047-.567-.11-.202-.078-.453-.174-.91-.174-.46 0-.71.096-.912.174-.166.064-.286.11-.567.11-.28 0-.4-.047-.568-.11-.202-.078-.452-.174-.91-.174-.46 0-.71.096-.912.174-.167.064-.287.11-.568.11-.28 0-.4-.047-.567-.11-.2-.078-.45-.174-.91-.174-.45 0-.71.096-.91.174-.16.064-.28.11-.57.11-.28 0-.4-.047-.56-.11-.2-.078-.45-.174-.91-.174s-.71.096-.91.174c-.16.064-.28.11-.57.11-.28 0-.4-.047-.56-.11-.2-.078-.45-.174-.91-.174s-.71.096-.91.174c-.16.064-.28.11-.56.11s-.4-.047-.57-.11c-.2-.078-.45-.174-.91-.174-.26 0-.47.207-.47.462 0 .256.21.462.47.462.28 0 .4.046.57.11.21.077.46.173.91.173.46 0 .71-.096.92-.173.17-.064.29-.11.57-.11.28 0 .4.046.57.11.2.077.45.173.91.173s.71-.096.91-.173c.17-.064.29-.11.57-.11.28 0 .4.046.57.11.2.077.45.173.91.173s.71-.096.91-.173c.17-.064.29-.11.57-.11.28 0 .4.046.56.11.2.077.45.173.91.173s.71-.096.91-.173c.17-.064.29-.11.57-.11.28 0 .4.046.57.11.206.077.457.173.91.173s.71-.096.916-.173c.16-.064.283-.11.564-.11.28 0 .4.046.57.11.2.077.454.173.91.173M17.04 4.97h.21c-.033.112-.052.23-.052.35 0 .703.583 1.274 1.3 1.274h8.463c.32 0 .62-.114.86-.32.28-.24.44-.59.44-.954 0-.365-.16-.713-.44-.955-.24-.205-.54-.318-.86-.318h-4.83l.02-.174c0-.315-.13-.615-.38-.824-.2-.18-.47-.28-.74-.28h-3.99c-.62 0-1.12.49-1.12 1.1 0 .6.5 1.1 1.12 1.1zm0-1.27h3.985l.116.043.06.13-.06.13-.12.043c-.26 0-.47.207-.47.462s.21.463.47.463h5.94c.11 0 .19.05.24.09.05.04.12.13.12.26s-.07.23-.12.26c-.04.04-.12.09-.23.09H18.5c-.197 0-.356-.15-.356-.35 0-.19.16-.35.356-.35.26 0 .472-.2.472-.46h.002c0-.25-.21-.46-.472-.46h-1.46c-.098 0-.178-.08-.178-.17 0-.09.08-.17.177-.17zM2.863 23.71c.166-.064.286-.11.567-.11.28 0 .4.046.567.11.202.077.452.174.91.174.46 0 .71-.096.91-.174.167-.064.288-.11.57-.11.28 0 .4.046.567.11.202.077.452.174.91.174.46 0 .71-.096.912-.174.167-.064.287-.11.568-.11.28 0 .4.046.568.11.2.077.452.174.91.174.46 0 .71-.096.91-.174.167-.064.287-.11.568-.11.28 0 .4.046.568.11.2.077.452.174.91.174.46 0 .71-.096.912-.174.166-.064.287-.11.567-.11.28 0 .4.046.567.11.202.077.453.174.91.174s.71-.096.912-.174c.166-.064.287-.11.568-.11.28 0 .4.046.568.11.2.077.452.174.91.174.46 0 .71-.096.912-.174.166-.064.286-.11.567-.11.29 0 .41.046.57.11.2.077.45.174.91.174s.71-.096.91-.174c.17-.064.29-.11.57-.11h.05c-.09.62-.14 1.302-.14 2.048 0 .255.21.463.47.463h3.43c.26 0 .48-.2.48-.46v-1.77l.16.01c.46 0 .71-.09.91-.17.17-.06.29-.11.57-.11.28 0 .4.05.57.11.2.08.45.18.91.18.26 0 .48-.21.48-.46s-.21-.46-.47-.46l-.26-.02c.04-.1.07-.22.07-.34v-2.36c0-.48-.37-.87-.85-.92v-.89c0-.25-.21-.46-.47-.46s-.47.21-.47.47v.85l-1.12-.05v-3.07c0-.25-.21-.46-.47-.46s-.47.21-.47.467v1.69c-.29.17-.84.556-1.43 1.26l-10.12-.485v-2.58h3.34v.65c0 .253.21.46.47.46h1.79c.26 0 .47-.207.47-.46v-1.26h2.12c.26 0 .48-.207.48-.46v-.127H30v1.73c0 .26.21.47.47.47s.473-.205.473-.46v-2.2c0-.256-.21-.46-.477-.46h-6.32c-.26 0-.47.204-.47.46v.124h-2.12c-.26 0-.473.206-.473.46v1.263h-.844v-.65c0-.26-.21-.47-.47-.47h-3.81v-4.1h2.78v.13c0 .25.21.46.47.46h2.12v1.26c0 .253.21.46.47.46h1.79c.26 0 .47-.207.47-.46v-.65h2.41c.26 0 .47-.21.47-.464V10.2h3.3c.26 0 .47-.21.47-.47s-.21-.46-.47-.46h-3.78c-.26 0-.475.21-.475.462v1.59h-2.41c-.26 0-.47.205-.47.46v.65h-.85v-1.27c0-.254-.21-.46-.47-.46h-2.12v-.126c0-.255-.21-.462-.47-.462h-3.26V10l-.005-.007V8.85h.02c.26 0 .47-.207.47-.462V6.89c0-.255-.21-.462-.47-.462h-2.02c-.26 0-.47.207-.47.462v.403h-.384V6.89c0-.255-.21-.462-.47-.462h-1.66c-.26 0-.47.207-.47.462v.403h-.39V6.89c0-.255-.21-.462-.472-.462H7.97c-.262 0-.473.207-.473.462v.403h-.382V6.89c0-.255-.21-.462-.472-.462H4.988c-.26 0-.472.207-.472.462v.403h-.382V6.89c0-.255-.212-.462-.472-.462H1.664c-.26 0-.472.207-.472.462v1.498c0 .255.21.463.472.463h.077v11.84l-.77 2.03c-.13-.02-.29-.04-.49-.04-.26 0-.47.21-.47.46s.21.46.47.46c.28 0 .4.05.57.11.2.08.46.18.91.18.46 0 .71-.09.92-.17zM2.14 7.355h1.054v.403c0 .255.21.462.472.462h1.326c.26 0 .472-.208.472-.462v-.403h.71v.403c0 .255.212.462.473.462h1.325c.26 0 .472-.208.472-.462v-.403h.71v.403c0 .255.212.462.473.462h1.325c.26 0 .472-.208.472-.462v-.403h.71v.403c0 .255.212.462.473.462h1.326c.26 0 .472-.208.472-.462v-.403h1.065v.573h-.02c-.26 0-.472.207-.472.462v.674c-.52 0-.943.414-.943.924v9.508c0 .493.395.9.897.924l.046.002.472.023.47.023 9.017.432c-.107.24-.208.498-.3.772H3.634V9.988c0-.51-.423-.924-.944-.924V8.39c0-.255-.21-.462-.472-.462H2.14v-.573zM27.262 19.16l.206-.18v6.207h-2.48c.016-.483.054-.933.112-1.352l.047-.312.116-.6.078-.325c.09-.333.19-.64.3-.925.1-.26.21-.502.32-.723.17-.343.36-.642.54-.9.27-.376.54-.668.78-.89zm2.184 2.513h-1.034v-.605l1.034.05v.556zm2.022 6.807c-.407 0-.59-.07-.82-.16l-.212-.076c.86-.442 1.094-.948 1.132-1.044.055-.143.036-.302-.052-.427-.09-.125-.234-.2-.39-.2H22.31c-.156 0-.302.075-.39.2-.087.125-.107.285-.05.427.044.114.363.805 1.676 1.28h-.016c-.407 0-.59-.07-.82-.16-.272-.103-.58-.22-1.165-.22s-.893.118-1.164.22c-.23.09-.41.16-.82.16-.4 0-.59-.07-.82-.16-.27-.103-.58-.22-1.16-.22-.26 0-.47.207-.47.462 0 .256.21.462.47.462.41 0 .59.07.82.16.28.103.58.22 1.17.22s.9-.118 1.17-.22c.23-.09.42-.16.82-.16s.59.07.82.16c.27.103.58.22 1.17.22s.89-.118 1.17-.22c.23-.09.42-.16.82-.16.41 0 .59.07.82.16.28.103.58.22 1.17.22s.9-.118 1.17-.22c.23-.09.42-.16.82-.16.41 0 .59.07.82.16.27.103.58.22 1.17.22.26 0 .47-.207.47-.462s-.21-.462-.47-.462zm-1.615-.983c-.585.265-1.554.513-3.136.513-1.57 0-2.54-.247-3.127-.513h6.262zm-23.42-12.47c-.018-.373-.332-.67-.72-.67-.385 0-.7.297-.718.67v.44h1.437v-.44zm3.017 0c-.018-.373-.333-.67-.72-.67-.385 0-.7.297-.718.67v.44H9.45v-.44zm3.017 0c-.018-.373-.332-.67-.718-.67-.39 0-.71.297-.72.67v.44h1.43v-.44zM6.433 12.73c-.018-.373-.332-.67-.72-.67-.385 0-.7.297-.718.67v.44h1.437v-.44zm3.017 0c-.018-.373-.333-.67-.72-.67-.385 0-.7.297-.718.67v.44H9.45v-.44zm3.017 0c-.008-.177-.084-.337-.202-.457-.13-.132-.313-.214-.516-.214s-.39.08-.52.21c-.12.12-.2.28-.21.45v.44h1.43v-.44zm-6.034-2.21c-.01-.218-.12-.41-.288-.532-.12-.09-.27-.14-.43-.14-.163 0-.312.05-.432.14-.166.122-.277.313-.288.53v.44h1.437v-.44zm3.017 0c-.01-.218-.12-.41-.288-.532-.12-.09-.27-.14-.43-.14-.163 0-.312.05-.43.14-.168.122-.28.313-.29.53v.44H9.45v-.44zm3.017.44v-.44l-.032-.178c-.046-.143-.136-.265-.255-.353-.12-.09-.268-.15-.43-.15-.162 0-.31.05-.43.14-.167.12-.28.31-.29.53v.44h1.438zm-6.034 6.265c-.018-.373-.332-.67-.72-.67-.385 0-.7.297-.718.67v.44h1.437v-.44zm3.017 0c-.018-.373-.333-.67-.72-.67-.385 0-.7.297-.718.67v.44H9.45v-.44zm3.017 0c-.018-.373-.332-.67-.718-.67-.39 0-.71.297-.72.67v.44h1.43v-.44zm-6.034 2.197c-.018-.373-.332-.67-.72-.67-.385 0-.7.297-.718.67v.44h1.437v-.44zm3.017 0c-.018-.373-.333-.67-.72-.67-.385 0-.7.297-.718.67v.44H9.45v-.44zm3.017 0c-.018-.373-.332-.67-.718-.67-.39 0-.71.297-.72.67v.44h1.43v-.44z" fill="#3A434E"/></g></svg>