<svg width="32" height="232" viewBox="0 0 32 232" xmlns="http://www.w3.org/2000/svg"><g fill="none">
			<path id="XMLID_1060_" fill="#3A444F" d="M26.2,15.1c0-0.2,0.1-0.4,0-0.7C26.1,14.3,26,14.2,26,14c0-0.1-0.1-0.1-0.1-0.2
				c-0.1-0.2-0.3-0.2-0.4-0.3c0,0,0-0.1,0-0.1c-0.1-0.1-0.1-0.3-0.3-0.5c-0.1-0.1-0.3-0.2-0.4-0.3c-0.1-0.1-0.3-0.2-0.4-0.3
				c-0.1,0-0.2-0.1-0.3-0.1c-0.1-0.1-0.2-0.1-0.3-0.1c-0.5-0.1-0.9,0-1.2,0.2c0,0,0,0,0,0c0,0,0,0,0,0l-1.5,1l0,0c0,0,0,0,0,0
				L5,23.9c-0.7,0.4-1.2,1.1-1.3,1.9c-0.2,0.8,0,1.6,0.4,2.3c0.6,0.9,1.5,1.4,2.6,1.4l0,0c0.6,0,1.2-0.2,1.7-0.5l4.2-2.8
				c0,0,0,0,0,0l1.5-1c0,0,0,0,0,0c0,0,0,0,0,0l1-0.6c0,0,0,0,0,0c0,0,0,0,0,0l10.7-7c0,0,0,0,0,0c0,0,0,0,0,0
				c0.4-0.3,0.7-0.8,0.7-1.5c0-0.2,0-0.4,0-0.5C26.5,15.3,26.3,15.2,26.2,15.1z M23.6,13.4C23.6,13.4,23.6,13.4,23.6,13.4
				c0.1,0,0.1,0,0.2,0c0,0,0.1,0,0.1,0c0.1,0,0.1,0.1,0.2,0.1c0.1,0.1,0.2,0.2,0.3,0.2c0,0,0,0.1,0.1,0.1c0,0.1,0.1,0.2,0.2,0.4
				c0.1,0.1,0.3,0.2,0.3,0.2c0,0,0,0,0,0c0,0,0,0,0,0.1c0,0.1,0.1,0.2,0.1,0.2c0,0,0,0.1,0,0.1c0,0.2-0.1,0.4,0,0.6
				c0.1,0.2,0.2,0.3,0.4,0.4c0,0.1,0,0.1,0,0.2c0,0.1,0,0.1,0,0.2c0,0.2-0.1,0.3-0.2,0.4c-0.2,0.1-0.4,0.1-0.7,0
				c-0.1,0-0.2-0.1-0.2-0.1c-0.1,0-0.2-0.1-0.2-0.1c0,0-0.1-0.1-0.1-0.1c-0.1-0.1-0.2-0.1-0.3-0.1c0-0.1-0.1-0.2-0.1-0.3
				c0,0-0.1-0.1-0.1-0.1c-0.1-0.1-0.2-0.2-0.3-0.3c-0.1-0.2-0.3-0.3-0.4-0.3c0-0.2,0.1-0.3,0-0.5c0-0.1,0-0.1-0.1-0.2
				c-0.1-0.2-0.1-0.4-0.1-0.6c0-0.3,0.1-0.5,0.3-0.6c0.1-0.1,0.2-0.1,0.3-0.1C23.4,13.3,23.5,13.3,23.6,13.4z M12.7,25l-0.6,0.4
				c0,0,0,0,0,0c-0.3,0.2-0.7,0.3-1.1,0.3c-0.4,0-0.8-0.1-1.2-0.4c-0.1-0.1-0.2-0.1-0.3-0.1c0,0-0.1,0-0.1,0c-0.2,0-0.3,0.1-0.5,0.1
				c-0.2,0-0.3,0-0.4-0.1c0-0.1,0-0.3,0.3-0.8c0.1-0.1,0.1-0.3,0.1-0.4c-0.2-0.8,0.2-1.7,0.9-2.1l0.6-0.4c-0.1,0.4-0.1,0.8,0,1.2
				c0.1,0.3,0.3,0.4,0.6,0.4c0.1,0,0.2,0,0.3,0c0.2,0,0.3,0,0.4,0.1c0,0.1,0,0.3-0.2,0.6c-0.1,0.2-0.1,0.5,0.1,0.7
				C11.9,24.8,12.3,24.9,12.7,25L12.7,25z M15.8,20.7c-0.6,1.4-1.1,2.6-1.8,3.3c-0.2,0.1-0.4,0.1-0.6,0.1c-0.3,0-0.6-0.1-0.9-0.2
				c0.2-0.5,0.2-0.9-0.1-1.2c-0.2-0.3-0.6-0.5-1.1-0.5c0-0.7,0.3-1.4,0.9-1.8l0,0l0,0l5.5-3.6C16.9,18.1,16.3,19.5,15.8,20.7z
				 M7.9,28.2c-0.3,0.2-0.7,0.3-1.1,0.3c-0.7,0-1.3-0.3-1.7-0.9c-0.3-0.5-0.4-1-0.3-1.6c0.1-0.5,0.4-1,0.9-1.3l2.3-1.5
				c0,0.3-0.1,0.6,0,0.9c-0.4,0.6-0.5,1.3-0.2,1.7c0.2,0.4,0.7,0.5,1.2,0.5c0.2,0,0.3,0,0.5,0c0.3,0.2,0.5,0.3,0.8,0.3L7.9,28.2z
				 M16,22.9c0.3-0.6,0.5-1.2,0.8-1.8c0.2-0.5,0.4-1,0.6-1.4c0.7-1.6,1.6-3.2,3-4.5c0.3-0.3,0.7-0.6,1.2-0.9l0,0l0.3-0.2
				c0,0.2,0,0.4,0.1,0.6c0,0.1,0,0.2,0.1,0.2c0,0,0,0.1,0,0.1c0,0.2-0.1,0.4,0,0.7c0.1,0.3,0.4,0.4,0.5,0.4c0,0,0,0,0.1,0
				c0.1,0.1,0.2,0.2,0.3,0.4c0,0.2,0,0.4,0.2,0.6c0.2,0.1,0.4,0.2,0.5,0.2c0,0,0.1,0,0.1,0c0,0,0,0,0,0c0,0,0,0,0,0
				c0.1,0.1,0.2,0.2,0.3,0.2c0,0,0.1,0,0.1,0.1L16,22.9z"/>
			<path id="XMLID_1059_" fill="#3A444F" d="M25.2,8.9C25.2,8.9,25.2,8.9,25.2,8.9l-0.1,0h-2.4h-1.1c-0.2,0-0.4-0.1-0.6-0.2
				c-0.2-0.2-0.3-0.4-0.3-0.6c0-0.2,0.1-0.5,0.3-0.6c0.2-0.1,0.4-0.2,0.6-0.2h1.7h0c0,0,0,0,0,0c1,0,1.8-0.9,1.8-1.9
				c0-1-0.8-1.9-1.9-1.9c-0.3,0-0.5,0.2-0.5,0.5c0,0.3,0.2,0.5,0.5,0.5c0.5,0,0.9,0.4,0.9,0.9c0,0.5-0.4,0.9-0.9,0.9h-1.7
				c-0.5,0-0.9,0.2-1.2,0.5C20,7,19.7,7.5,19.7,8.1c0,0.5,0.2,1,0.6,1.4c0.3,0.3,0.8,0.5,1.2,0.5h1.1h2.4c1.2,0,2.2,1,2.2,2.2
				c0,0.5-0.1,0.9-0.4,1.3c-0.2,0.2-0.1,0.5,0.1,0.7c0.1,0.1,0.2,0.1,0.3,0.1c0.2,0,0.3-0.1,0.4-0.2c0.4-0.6,0.6-1.2,0.6-1.9
				C28.3,10.4,27,9,25.2,8.9z"/>
			<path id="XMLID_1058_" fill="#3A444F" d="M20.8,4.5h0.9c0.3,0,0.5-0.2,0.5-0.5c0-0.3-0.2-0.5-0.5-0.5h-0.9
				c-0.4,0-0.7-0.3-0.7-0.7c0-0.4,0.3-0.7,0.7-0.7c0.3,0,0.5-0.2,0.5-0.5S21.1,1,20.8,1c-1,0-1.7,0.8-1.7,1.7
				C19.1,3.7,19.9,4.5,20.8,4.5z"/>
			<path id="XMLID_1053_" fill="#3A444F" d="M5.4,16.7C5.4,16.7,5.4,16.7,5.4,16.7c0,0.1,0.1,0.1,0.1,0.1c0,0.1,0.1,0.1,0.1,0.2
				c0,0,0,0,0,0c0,0,0,0,0.1,0.1c0,0,0,0,0,0c0.3,0.3,0.7,0.5,1.2,0.6c0.3,0.1,0.5,0.1,0.8,0.1c1.5,0,3.4-0.8,5.1-2.3
				c2-1.7,3.2-3.8,3.1-5.4c0,0,0,0,0,0c0,0,0,0,0,0c0-0.4-0.1-0.7-0.3-1.1c0,0,0,0,0,0c0,0,0-0.1-0.1-0.1c0-0.1-0.1-0.1-0.1-0.2l0,0
				c0,0,0,0,0,0c0,0-0.1-0.1-0.1-0.1c0,0,0,0,0,0C15,8.2,14.6,8,14.1,7.9c-0.3-0.1-0.5-0.1-0.8-0.1c-1.5,0-3.4,0.8-5.1,2.3
				c-2,1.7-3.2,3.8-3.1,5.4C5.1,15.9,5.2,16.3,5.4,16.7z M7.3,16.8c-0.1,0-0.2,0-0.2,0c-0.2-0.1-0.4-0.1-0.6-0.3c0,0,0,0,0,0
				c0,0,0,0-0.1-0.1c0,0-0.1-0.1-0.1-0.1c0,0,0,0,0,0c-0.2-0.2-0.3-0.5-0.3-0.8c0,0,0-0.1,0-0.1c0-0.3,0.2-0.6,0.4-0.8
				c0.2,0,0.6,0.3,1.1,0.9c0.4,0.5,0.5,0.9,0.5,1C7.9,16.7,7.6,16.8,7.3,16.8z M13.7,8.9c0.1,0,0.2,0,0.2,0C14.1,9,14.3,9,14.5,9.2
				l0,0c0,0,0,0,0.1,0.1c0,0,0.1,0.1,0.1,0.1c0,0,0,0,0,0c0.2,0.2,0.3,0.5,0.3,0.8c0,0.3-0.1,0.7-0.4,0.9c-0.2,0-0.6-0.3-1.1-0.9
				c-0.4-0.5-0.5-0.9-0.5-1C13.1,9,13.4,8.9,13.7,8.9z M8.8,10.9c1-0.8,2.1-1.5,3.1-1.8c0,0.2,0,0.4,0.1,0.7c0.2,0.5,0.6,1,1,1.5
				c0.4,0.4,0.9,0.8,1.4,0.8c-0.4,0.9-1.2,1.8-2.3,2.7c-1,0.8-2.1,1.5-3.1,1.8c0-0.2,0-0.4-0.1-0.7c-0.2-0.5-0.6-1-1-1.5
				c-0.4-0.4-0.9-0.8-1.4-0.8C7,12.7,7.8,11.8,8.8,10.9z"/>
			<path id="XMLID_1049_" fill="#3A444F" d="M10.5,15.1c0.5,0,1-0.2,1.4-0.5c0.3-0.2,0.5-0.5,0.6-0.8c0,0,0,0,0,0c0,0,0,0,0,0
				c0-0.1,0-0.1,0.1-0.2c0,0,0,0,0,0c0-0.1,0-0.1,0.1-0.2c0,0,0-0.1,0-0.1c0,0,0,0,0-0.1c0-0.1,0-0.1,0-0.2c0,0,0,0,0,0c0,0,0,0,0,0
				c0-0.1,0-0.3,0-0.4c0,0,0,0,0,0c0-0.1,0-0.3-0.1-0.4c0,0,0,0,0,0c0-0.1,0-0.1-0.1-0.2c0,0,0,0,0,0c0-0.1-0.1-0.1-0.1-0.2
				c0,0,0,0,0,0c0,0-0.1-0.1-0.1-0.1c0,0,0,0,0,0c0-0.1-0.1-0.1-0.1-0.2c-0.4-0.5-1-0.8-1.7-0.8c-0.1,0-0.2,0-0.3,0c0,0,0,0,0,0
				c-0.1,0-0.1,0-0.2,0c0,0,0,0,0,0c0,0-0.1,0-0.1,0c0,0,0,0,0,0c-0.3,0.1-0.6,0.2-0.9,0.5c-0.9,0.8-1.1,2.2-0.3,3.2
				C9.2,14.8,9.8,15.1,10.5,15.1z M10.4,11.6c0,0,0.1,0,0.1,0c0,0,0,0,0,0c0,0,0.1,0,0.1,0c0,0,0,0,0,0c0,0,0.1,0,0.1,0l0,0
				c0,0,0.1,0,0.1,0c0,0,0,0,0,0c0,0,0.1,0,0.1,0.1c0,0,0,0,0,0c0,0,0.1,0,0.1,0.1c0,0,0,0,0,0c0,0,0.1,0,0.1,0.1c0,0,0,0,0,0
				c0,0,0.1,0.1,0.1,0.1c0,0,0.1,0.1,0.1,0.1c0,0,0,0,0,0c0,0,0,0.1,0,0.1c0,0,0,0,0,0c0,0,0,0.1,0,0.1c0,0,0,0,0,0c0,0,0,0.1,0,0.1
				c0,0,0,0,0,0c0,0,0,0.1,0,0.1c0,0,0,0,0,0c0,0,0,0.1,0,0.1c0,0,0,0,0,0c0,0,0,0.1,0,0.1c0,0,0,0,0,0c0,0,0,0.1,0,0.1c0,0,0,0,0,0
				c-0.4,0-0.8-0.1-1-0.4C10.5,12.3,10.4,12,10.4,11.6z M9.4,12.2c0.1,0.4,0.2,0.8,0.5,1.1c0.3,0.3,0.6,0.6,1,0.7
				c-0.1,0.1-0.3,0.1-0.5,0.1c-0.4,0-0.7-0.2-0.9-0.4C9.2,13.2,9.2,12.6,9.4,12.2z"/>
		</g>
		<g id="XMLID_1418_">
			<path id="XMLID_1430_" fill="#67737C" d="M26.2,55.1c0-0.2,0.1-0.4,0-0.7C26.1,54.3,26,54.2,26,54c0-0.1-0.1-0.1-0.1-0.2
				c-0.1-0.2-0.3-0.2-0.4-0.3c0,0,0-0.1,0-0.1c-0.1-0.1-0.1-0.3-0.3-0.5c-0.1-0.1-0.3-0.2-0.4-0.3c-0.1-0.1-0.3-0.2-0.4-0.3
				c-0.1,0-0.2-0.1-0.3-0.1c-0.1-0.1-0.2-0.1-0.3-0.1c-0.5-0.1-0.9,0-1.2,0.2c0,0,0,0,0,0c0,0,0,0,0,0l-1.5,1l0,0c0,0,0,0,0,0
				L5,63.9c-0.7,0.4-1.2,1.1-1.3,1.9c-0.2,0.8,0,1.6,0.4,2.3c0.6,0.9,1.5,1.4,2.6,1.4l0,0c0.6,0,1.2-0.2,1.7-0.5l4.2-2.8
				c0,0,0,0,0,0l1.5-1c0,0,0,0,0,0c0,0,0,0,0,0l1-0.6c0,0,0,0,0,0c0,0,0,0,0,0l10.7-7c0,0,0,0,0,0c0,0,0,0,0,0
				c0.4-0.3,0.7-0.8,0.7-1.5c0-0.2,0-0.4,0-0.5C26.5,55.3,26.3,55.2,26.2,55.1z M23.6,53.4C23.6,53.4,23.6,53.4,23.6,53.4
				c0.1,0,0.1,0,0.2,0c0,0,0.1,0,0.1,0c0.1,0,0.1,0.1,0.2,0.1c0.1,0.1,0.2,0.2,0.3,0.2c0,0,0,0.1,0.1,0.1c0,0.1,0.1,0.2,0.2,0.4
				c0.1,0.1,0.3,0.2,0.3,0.2c0,0,0,0,0,0c0,0,0,0,0,0.1c0,0.1,0.1,0.2,0.1,0.2c0,0,0,0.1,0,0.1c0,0.2-0.1,0.4,0,0.6
				c0.1,0.2,0.2,0.3,0.4,0.4c0,0.1,0,0.1,0,0.2c0,0.1,0,0.1,0,0.2c0,0.2-0.1,0.3-0.2,0.4c-0.2,0.1-0.4,0.1-0.7,0
				c-0.1,0-0.2-0.1-0.2-0.1c-0.1,0-0.2-0.1-0.2-0.1c0,0-0.1-0.1-0.1-0.1c-0.1-0.1-0.2-0.1-0.3-0.1c0-0.1-0.1-0.2-0.1-0.3
				c0,0-0.1-0.1-0.1-0.1c-0.1-0.1-0.2-0.2-0.3-0.3c-0.1-0.2-0.3-0.3-0.4-0.3c0-0.2,0.1-0.3,0-0.5c0-0.1,0-0.1-0.1-0.2
				c-0.1-0.2-0.1-0.4-0.1-0.6c0-0.3,0.1-0.5,0.3-0.6c0.1-0.1,0.2-0.1,0.3-0.1C23.4,53.3,23.5,53.3,23.6,53.4z M12.7,65l-0.6,0.4
				c0,0,0,0,0,0c-0.3,0.2-0.7,0.3-1.1,0.3c-0.4,0-0.8-0.1-1.2-0.4c-0.1-0.1-0.2-0.1-0.3-0.1c0,0-0.1,0-0.1,0c-0.2,0-0.3,0.1-0.5,0.1
				c-0.2,0-0.3,0-0.4-0.1c0-0.1,0-0.3,0.3-0.8c0.1-0.1,0.1-0.3,0.1-0.4c-0.2-0.8,0.2-1.7,0.9-2.1l0.6-0.4c-0.1,0.4-0.1,0.8,0,1.2
				c0.1,0.3,0.3,0.4,0.6,0.4c0.1,0,0.2,0,0.3,0c0.2,0,0.3,0,0.4,0.1c0,0.1,0,0.3-0.2,0.6c-0.1,0.2-0.1,0.5,0.1,0.7
				C11.9,64.8,12.3,64.9,12.7,65L12.7,65z M15.8,60.7c-0.6,1.4-1.1,2.6-1.8,3.3c-0.2,0.1-0.4,0.1-0.6,0.1c-0.3,0-0.6-0.1-0.9-0.2
				c0.2-0.5,0.2-0.9-0.1-1.2c-0.2-0.3-0.6-0.5-1.1-0.5c0-0.7,0.3-1.4,0.9-1.8l0,0l0,0l5.5-3.6C16.9,58.1,16.3,59.5,15.8,60.7z
				 M7.9,68.2c-0.3,0.2-0.7,0.3-1.1,0.3c-0.7,0-1.3-0.3-1.7-0.9c-0.3-0.5-0.4-1-0.3-1.6c0.1-0.5,0.4-1,0.9-1.3l2.3-1.5
				c0,0.3-0.1,0.6,0,0.9c-0.4,0.6-0.5,1.3-0.2,1.7c0.2,0.4,0.7,0.5,1.2,0.5c0.2,0,0.3,0,0.5,0c0.3,0.2,0.5,0.3,0.8,0.3L7.9,68.2z
				 M16,62.9c0.3-0.6,0.5-1.2,0.8-1.8c0.2-0.5,0.4-1,0.6-1.4c0.7-1.6,1.6-3.2,3-4.5c0.3-0.3,0.7-0.6,1.2-0.9l0,0l0.3-0.2
				c0,0.2,0,0.4,0.1,0.6c0,0.1,0,0.2,0.1,0.2c0,0,0,0.1,0,0.1c0,0.2-0.1,0.4,0,0.7c0.1,0.3,0.4,0.4,0.5,0.4c0,0,0,0,0.1,0
				c0.1,0.1,0.2,0.2,0.3,0.4c0,0.2,0,0.4,0.2,0.6c0.2,0.1,0.4,0.2,0.5,0.2c0,0,0.1,0,0.1,0c0,0,0,0,0,0c0,0,0,0,0,0
				c0.1,0.1,0.2,0.2,0.3,0.2c0,0,0.1,0,0.1,0.1L16,62.9z"/>
			<path id="XMLID_1429_" fill="#67737C" d="M25.2,48.9C25.2,48.9,25.2,48.9,25.2,48.9l-0.1,0h-2.4h-1.1c-0.2,0-0.4-0.1-0.6-0.2
				c-0.2-0.2-0.3-0.4-0.3-0.6c0-0.2,0.1-0.5,0.3-0.6c0.2-0.1,0.4-0.2,0.6-0.2h1.7h0c0,0,0,0,0,0c1,0,1.8-0.9,1.8-1.9
				c0-1-0.8-1.9-1.9-1.9c-0.3,0-0.5,0.2-0.5,0.5c0,0.3,0.2,0.5,0.5,0.5c0.5,0,0.9,0.4,0.9,0.9c0,0.5-0.4,0.9-0.9,0.9h-1.7
				c-0.5,0-0.9,0.2-1.2,0.5c-0.4,0.4-0.6,0.9-0.6,1.4c0,0.5,0.2,1,0.6,1.4c0.3,0.3,0.8,0.5,1.2,0.5h1.1h2.4c1.2,0,2.2,1,2.2,2.2
				c0,0.5-0.1,0.9-0.4,1.3c-0.2,0.2-0.1,0.5,0.1,0.7c0.1,0.1,0.2,0.1,0.3,0.1c0.2,0,0.3-0.1,0.4-0.2c0.4-0.6,0.6-1.2,0.6-1.9
				C28.3,50.4,27,49,25.2,48.9z"/>
			<path id="XMLID_1428_" fill="#67737C" d="M20.8,44.5h0.9c0.3,0,0.5-0.2,0.5-0.5c0-0.3-0.2-0.5-0.5-0.5h-0.9
				c-0.4,0-0.7-0.3-0.7-0.7c0-0.4,0.3-0.7,0.7-0.7c0.3,0,0.5-0.2,0.5-0.5c0-0.3-0.2-0.5-0.5-0.5c-1,0-1.7,0.8-1.7,1.7
				C19.1,43.7,19.9,44.5,20.8,44.5z"/>
			<path id="XMLID_1423_" fill="#67737C" d="M5.4,56.7C5.4,56.7,5.4,56.7,5.4,56.7c0,0.1,0.1,0.1,0.1,0.1c0,0.1,0.1,0.1,0.1,0.2
				c0,0,0,0,0,0c0,0,0,0,0.1,0.1c0,0,0,0,0,0c0.3,0.3,0.7,0.5,1.2,0.6c0.3,0.1,0.5,0.1,0.8,0.1c1.5,0,3.4-0.8,5.1-2.3
				c2-1.7,3.2-3.8,3.1-5.4c0,0,0,0,0,0c0,0,0,0,0,0c0-0.4-0.1-0.7-0.3-1.1c0,0,0,0,0,0c0,0,0-0.1-0.1-0.1c0-0.1-0.1-0.1-0.1-0.2l0,0
				c0,0,0,0,0,0c0,0-0.1-0.1-0.1-0.1c0,0,0,0,0,0c-0.3-0.3-0.7-0.5-1.2-0.6c-0.3-0.1-0.5-0.1-0.8-0.1c-1.5,0-3.4,0.8-5.1,2.3
				c-2,1.7-3.2,3.8-3.1,5.4C5.1,55.9,5.2,56.3,5.4,56.7z M7.3,56.8c-0.1,0-0.2,0-0.2,0c-0.2-0.1-0.4-0.1-0.6-0.3c0,0,0,0,0,0
				c0,0,0,0-0.1-0.1c0,0-0.1-0.1-0.1-0.1c0,0,0,0,0,0c-0.2-0.2-0.3-0.5-0.3-0.8c0,0,0-0.1,0-0.1c0-0.3,0.2-0.6,0.4-0.8
				c0.2,0,0.6,0.3,1.1,0.9c0.4,0.5,0.5,0.9,0.5,1C7.9,56.7,7.6,56.8,7.3,56.8z M13.7,48.9c0.1,0,0.2,0,0.2,0
				c0.2,0.1,0.4,0.1,0.6,0.3l0,0c0,0,0,0,0.1,0.1c0,0,0.1,0.1,0.1,0.1c0,0,0,0,0,0c0.2,0.2,0.3,0.5,0.3,0.8c0,0.3-0.1,0.7-0.4,0.9
				c-0.2,0-0.6-0.3-1.1-0.9c-0.4-0.5-0.5-0.9-0.5-1C13.1,49,13.4,48.9,13.7,48.9z M8.8,50.9c1-0.8,2.1-1.5,3.1-1.8
				c0,0.2,0,0.4,0.1,0.7c0.2,0.5,0.6,1,1,1.5c0.4,0.4,0.9,0.8,1.4,0.8c-0.4,0.9-1.2,1.8-2.3,2.7c-1,0.8-2.1,1.5-3.1,1.8
				c0-0.2,0-0.4-0.1-0.7c-0.2-0.5-0.6-1-1-1.5c-0.4-0.4-0.9-0.8-1.4-0.8C7,52.7,7.8,51.8,8.8,50.9z"/>
			<path id="XMLID_1419_" fill="#67737C" d="M10.5,55.1c0.5,0,1-0.2,1.4-0.5c0.3-0.2,0.5-0.5,0.6-0.8c0,0,0,0,0,0c0,0,0,0,0,0
				c0-0.1,0-0.1,0.1-0.2c0,0,0,0,0,0c0-0.1,0-0.1,0.1-0.2c0,0,0-0.1,0-0.1c0,0,0,0,0-0.1c0-0.1,0-0.1,0-0.2c0,0,0,0,0,0c0,0,0,0,0,0
				c0-0.1,0-0.3,0-0.4c0,0,0,0,0,0c0-0.1,0-0.3-0.1-0.4c0,0,0,0,0,0c0-0.1,0-0.1-0.1-0.2c0,0,0,0,0,0c0-0.1-0.1-0.1-0.1-0.2
				c0,0,0,0,0,0c0,0-0.1-0.1-0.1-0.1c0,0,0,0,0,0c0-0.1-0.1-0.1-0.1-0.2c-0.4-0.5-1-0.8-1.7-0.8c-0.1,0-0.2,0-0.3,0c0,0,0,0,0,0
				c-0.1,0-0.1,0-0.2,0c0,0,0,0,0,0c0,0-0.1,0-0.1,0c0,0,0,0,0,0c-0.3,0.1-0.6,0.2-0.9,0.5c-0.9,0.8-1.1,2.2-0.3,3.2
				C9.2,54.8,9.8,55.1,10.5,55.1z M10.4,51.6c0,0,0.1,0,0.1,0c0,0,0,0,0,0c0,0,0.1,0,0.1,0c0,0,0,0,0,0c0,0,0.1,0,0.1,0l0,0
				c0,0,0.1,0,0.1,0c0,0,0,0,0,0c0,0,0.1,0,0.1,0.1c0,0,0,0,0,0c0,0,0.1,0,0.1,0.1c0,0,0,0,0,0c0,0,0.1,0,0.1,0.1c0,0,0,0,0,0
				c0,0,0.1,0.1,0.1,0.1c0,0,0.1,0.1,0.1,0.1c0,0,0,0,0,0c0,0,0,0.1,0,0.1c0,0,0,0,0,0c0,0,0,0.1,0,0.1c0,0,0,0,0,0c0,0,0,0.1,0,0.1
				c0,0,0,0,0,0c0,0,0,0.1,0,0.1c0,0,0,0,0,0c0,0,0,0.1,0,0.1c0,0,0,0,0,0c0,0,0,0.1,0,0.1c0,0,0,0,0,0c0,0,0,0.1,0,0.1c0,0,0,0,0,0
				c-0.4,0-0.8-0.1-1-0.4C10.5,52.3,10.4,52,10.4,51.6z M9.4,52.2c0.1,0.4,0.2,0.8,0.5,1.1c0.3,0.3,0.6,0.6,1,0.7
				c-0.1,0.1-0.3,0.1-0.5,0.1c-0.4,0-0.7-0.2-0.9-0.4C9.2,53.2,9.2,52.6,9.4,52.2z"/>
		</g>
		<g id="XMLID_1612_">
			<path id="XMLID_1624_" fill="#FFFFFF" d="M26.2,95.1c0-0.2,0.1-0.4,0-0.7C26.1,94.3,26,94.2,26,94c0-0.1-0.1-0.1-0.1-0.2
				c-0.1-0.2-0.3-0.2-0.4-0.3c0,0,0-0.1,0-0.1c-0.1-0.1-0.1-0.3-0.3-0.5c-0.1-0.1-0.3-0.2-0.4-0.3c-0.1-0.1-0.3-0.2-0.4-0.3
				c-0.1,0-0.2-0.1-0.3-0.1c-0.1-0.1-0.2-0.1-0.3-0.1c-0.5-0.1-0.9,0-1.2,0.2c0,0,0,0,0,0c0,0,0,0,0,0l-1.5,1l0,0c0,0,0,0,0,0
				L5,103.9c-0.7,0.4-1.2,1.1-1.3,1.9c-0.2,0.8,0,1.6,0.4,2.3c0.6,0.9,1.5,1.4,2.6,1.4l0,0c0.6,0,1.2-0.2,1.7-0.5l4.2-2.8
				c0,0,0,0,0,0l1.5-1c0,0,0,0,0,0c0,0,0,0,0,0l1-0.6c0,0,0,0,0,0c0,0,0,0,0,0l10.7-7c0,0,0,0,0,0c0,0,0,0,0,0
				c0.4-0.3,0.7-0.8,0.7-1.5c0-0.2,0-0.4,0-0.5C26.5,95.3,26.3,95.2,26.2,95.1z M23.6,93.4C23.6,93.4,23.6,93.4,23.6,93.4
				c0.1,0,0.1,0,0.2,0c0,0,0.1,0,0.1,0c0.1,0,0.1,0.1,0.2,0.1c0.1,0.1,0.2,0.2,0.3,0.2c0,0,0,0.1,0.1,0.1c0,0.1,0.1,0.2,0.2,0.4
				c0.1,0.1,0.3,0.2,0.3,0.2c0,0,0,0,0,0c0,0,0,0,0,0.1c0,0.1,0.1,0.2,0.1,0.2c0,0,0,0.1,0,0.1c0,0.2-0.1,0.4,0,0.6
				c0.1,0.2,0.2,0.3,0.4,0.4c0,0.1,0,0.1,0,0.2c0,0.1,0,0.1,0,0.2c0,0.2-0.1,0.3-0.2,0.4c-0.2,0.1-0.4,0.1-0.7,0
				c-0.1,0-0.2-0.1-0.2-0.1c-0.1,0-0.2-0.1-0.2-0.1c0,0-0.1-0.1-0.1-0.1c-0.1-0.1-0.2-0.1-0.3-0.1c0-0.1-0.1-0.2-0.1-0.3
				c0,0-0.1-0.1-0.1-0.1c-0.1-0.1-0.2-0.2-0.3-0.3c-0.1-0.2-0.3-0.3-0.4-0.3c0-0.2,0.1-0.3,0-0.5c0-0.1,0-0.1-0.1-0.2
				c-0.1-0.2-0.1-0.4-0.1-0.6c0-0.3,0.1-0.5,0.3-0.6c0.1-0.1,0.2-0.1,0.3-0.1C23.4,93.3,23.5,93.3,23.6,93.4z M12.7,105l-0.6,0.4
				c0,0,0,0,0,0c-0.3,0.2-0.7,0.3-1.1,0.3c-0.4,0-0.8-0.1-1.2-0.4c-0.1-0.1-0.2-0.1-0.3-0.1c0,0-0.1,0-0.1,0c-0.2,0-0.3,0.1-0.5,0.1
				c-0.2,0-0.3,0-0.4-0.1c0-0.1,0-0.3,0.3-0.8c0.1-0.1,0.1-0.3,0.1-0.4c-0.2-0.8,0.2-1.7,0.9-2.1l0.6-0.4c-0.1,0.4-0.1,0.8,0,1.2
				c0.1,0.3,0.3,0.4,0.6,0.4c0.1,0,0.2,0,0.3,0c0.2,0,0.3,0,0.4,0.1c0,0.1,0,0.3-0.2,0.6c-0.1,0.2-0.1,0.5,0.1,0.7
				C11.9,104.8,12.3,104.9,12.7,105L12.7,105z M15.8,100.7c-0.6,1.4-1.1,2.6-1.8,3.3c-0.2,0.1-0.4,0.1-0.6,0.1
				c-0.3,0-0.6-0.1-0.9-0.2c0.2-0.5,0.2-0.9-0.1-1.2c-0.2-0.3-0.6-0.5-1.1-0.5c0-0.7,0.3-1.4,0.9-1.8l0,0l0,0l5.5-3.6
				C16.9,98.1,16.3,99.5,15.8,100.7z M7.9,108.2c-0.3,0.2-0.7,0.3-1.1,0.3c-0.7,0-1.3-0.3-1.7-0.9c-0.3-0.5-0.4-1-0.3-1.6
				c0.1-0.5,0.4-1,0.9-1.3l2.3-1.5c0,0.3-0.1,0.6,0,0.9c-0.4,0.6-0.5,1.3-0.2,1.7c0.2,0.4,0.7,0.5,1.2,0.5c0.2,0,0.3,0,0.5,0
				c0.3,0.2,0.5,0.3,0.8,0.3L7.9,108.2z M16,102.9c0.3-0.6,0.5-1.2,0.8-1.8c0.2-0.5,0.4-1,0.6-1.4c0.7-1.6,1.6-3.2,3-4.5
				c0.3-0.3,0.7-0.6,1.2-0.9l0,0l0.3-0.2c0,0.2,0,0.4,0.1,0.6c0,0.1,0,0.2,0.1,0.2c0,0,0,0.1,0,0.1c0,0.2-0.1,0.4,0,0.7
				c0.1,0.3,0.4,0.4,0.5,0.4c0,0,0,0,0.1,0c0.1,0.1,0.2,0.2,0.3,0.4c0,0.2,0,0.4,0.2,0.6c0.2,0.1,0.4,0.2,0.5,0.2c0,0,0.1,0,0.1,0
				c0,0,0,0,0,0c0,0,0,0,0,0c0.1,0.1,0.2,0.2,0.3,0.2c0,0,0.1,0,0.1,0.1L16,102.9z"/>
			<path id="XMLID_1623_" fill="#FFFFFF" d="M25.2,88.9C25.2,88.9,25.2,88.9,25.2,88.9l-0.1,0h-2.4h-1.1c-0.2,0-0.4-0.1-0.6-0.2
				c-0.2-0.2-0.3-0.4-0.3-0.6c0-0.2,0.1-0.5,0.3-0.6c0.2-0.1,0.4-0.2,0.6-0.2h1.7h0c0,0,0,0,0,0c1,0,1.8-0.9,1.8-1.9
				c0-1-0.8-1.9-1.9-1.9c-0.3,0-0.5,0.2-0.5,0.5c0,0.3,0.2,0.5,0.5,0.5c0.5,0,0.9,0.4,0.9,0.9c0,0.5-0.4,0.9-0.9,0.9h-1.7
				c-0.5,0-0.9,0.2-1.2,0.5c-0.4,0.4-0.6,0.9-0.6,1.4c0,0.5,0.2,1,0.6,1.4c0.3,0.3,0.8,0.5,1.2,0.5h1.1h2.4c1.2,0,2.2,1,2.2,2.2
				c0,0.5-0.1,0.9-0.4,1.3c-0.2,0.2-0.1,0.5,0.1,0.7c0.1,0.1,0.2,0.1,0.3,0.1c0.2,0,0.3-0.1,0.4-0.2c0.4-0.6,0.6-1.2,0.6-1.9
				C28.3,90.4,27,89,25.2,88.9z"/>
			<path id="XMLID_1622_" fill="#FFFFFF" d="M20.8,84.5h0.9c0.3,0,0.5-0.2,0.5-0.5c0-0.3-0.2-0.5-0.5-0.5h-0.9
				c-0.4,0-0.7-0.3-0.7-0.7c0-0.4,0.3-0.7,0.7-0.7c0.3,0,0.5-0.2,0.5-0.5c0-0.3-0.2-0.5-0.5-0.5c-1,0-1.7,0.8-1.7,1.7
				C19.1,83.7,19.9,84.5,20.8,84.5z"/>
			<path id="XMLID_1617_" fill="#FFFFFF" d="M5.4,96.7C5.4,96.7,5.4,96.7,5.4,96.7c0,0.1,0.1,0.1,0.1,0.1c0,0.1,0.1,0.1,0.1,0.2
				c0,0,0,0,0,0c0,0,0,0,0.1,0.1c0,0,0,0,0,0c0.3,0.3,0.7,0.5,1.2,0.6c0.3,0.1,0.5,0.1,0.8,0.1c1.5,0,3.4-0.8,5.1-2.3
				c2-1.7,3.2-3.8,3.1-5.4c0,0,0,0,0,0c0,0,0,0,0,0c0-0.4-0.1-0.7-0.3-1.1c0,0,0,0,0,0c0,0,0-0.1-0.1-0.1c0-0.1-0.1-0.1-0.1-0.2l0,0
				c0,0,0,0,0,0c0,0-0.1-0.1-0.1-0.1c0,0,0,0,0,0c-0.3-0.3-0.7-0.5-1.2-0.6c-0.3-0.1-0.5-0.1-0.8-0.1c-1.5,0-3.4,0.8-5.1,2.3
				c-2,1.7-3.2,3.8-3.1,5.4C5.1,95.9,5.2,96.3,5.4,96.7z M7.3,96.8c-0.1,0-0.2,0-0.2,0c-0.2-0.1-0.4-0.1-0.6-0.3c0,0,0,0,0,0
				c0,0,0,0-0.1-0.1c0,0-0.1-0.1-0.1-0.1c0,0,0,0,0,0c-0.2-0.2-0.3-0.5-0.3-0.8c0,0,0-0.1,0-0.1c0-0.3,0.2-0.6,0.4-0.8
				c0.2,0,0.6,0.3,1.1,0.9c0.4,0.5,0.5,0.9,0.5,1C7.9,96.7,7.6,96.8,7.3,96.8z M13.7,88.9c0.1,0,0.2,0,0.2,0
				c0.2,0.1,0.4,0.1,0.6,0.3l0,0c0,0,0,0,0.1,0.1c0,0,0.1,0.1,0.1,0.1c0,0,0,0,0,0c0.2,0.2,0.3,0.5,0.3,0.8c0,0.3-0.1,0.7-0.4,0.9
				c-0.2,0-0.6-0.3-1.1-0.9c-0.4-0.5-0.5-0.9-0.5-1C13.1,89,13.4,88.9,13.7,88.9z M8.8,90.9c1-0.8,2.1-1.5,3.1-1.8
				c0,0.2,0,0.4,0.1,0.7c0.2,0.5,0.6,1,1,1.5c0.4,0.4,0.9,0.8,1.4,0.8c-0.4,0.9-1.2,1.8-2.3,2.7c-1,0.8-2.1,1.5-3.1,1.8
				c0-0.2,0-0.4-0.1-0.7c-0.2-0.5-0.6-1-1-1.5c-0.4-0.4-0.9-0.8-1.4-0.8C7,92.7,7.8,91.8,8.8,90.9z"/>
			<path id="XMLID_1613_" fill="#FFFFFF" d="M10.5,95.1c0.5,0,1-0.2,1.4-0.5c0.3-0.2,0.5-0.5,0.6-0.8c0,0,0,0,0,0c0,0,0,0,0,0
				c0-0.1,0-0.1,0.1-0.2c0,0,0,0,0,0c0-0.1,0-0.1,0.1-0.2c0,0,0-0.1,0-0.1c0,0,0,0,0-0.1c0-0.1,0-0.1,0-0.2c0,0,0,0,0,0c0,0,0,0,0,0
				c0-0.1,0-0.3,0-0.4c0,0,0,0,0,0c0-0.1,0-0.3-0.1-0.4c0,0,0,0,0,0c0-0.1,0-0.1-0.1-0.2c0,0,0,0,0,0c0-0.1-0.1-0.1-0.1-0.2
				c0,0,0,0,0,0c0,0-0.1-0.1-0.1-0.1c0,0,0,0,0,0c0-0.1-0.1-0.1-0.1-0.2c-0.4-0.5-1-0.8-1.7-0.8c-0.1,0-0.2,0-0.3,0c0,0,0,0,0,0
				c-0.1,0-0.1,0-0.2,0c0,0,0,0,0,0c0,0-0.1,0-0.1,0c0,0,0,0,0,0c-0.3,0.1-0.6,0.2-0.9,0.5c-0.9,0.8-1.1,2.2-0.3,3.2
				C9.2,94.8,9.8,95.1,10.5,95.1z M10.4,91.6c0,0,0.1,0,0.1,0c0,0,0,0,0,0c0,0,0.1,0,0.1,0c0,0,0,0,0,0c0,0,0.1,0,0.1,0l0,0
				c0,0,0.1,0,0.1,0c0,0,0,0,0,0c0,0,0.1,0,0.1,0.1c0,0,0,0,0,0c0,0,0.1,0,0.1,0.1c0,0,0,0,0,0c0,0,0.1,0,0.1,0.1c0,0,0,0,0,0
				c0,0,0.1,0.1,0.1,0.1c0,0,0.1,0.1,0.1,0.1c0,0,0,0,0,0c0,0,0,0.1,0,0.1c0,0,0,0,0,0c0,0,0,0.1,0,0.1c0,0,0,0,0,0c0,0,0,0.1,0,0.1
				c0,0,0,0,0,0c0,0,0,0.1,0,0.1c0,0,0,0,0,0c0,0,0,0.1,0,0.1c0,0,0,0,0,0c0,0,0,0.1,0,0.1c0,0,0,0,0,0c0,0,0,0.1,0,0.1c0,0,0,0,0,0
				c-0.4,0-0.8-0.1-1-0.4C10.5,92.3,10.4,92,10.4,91.6z M9.4,92.2c0.1,0.4,0.2,0.8,0.5,1.1c0.3,0.3,0.6,0.6,1,0.7
				c-0.1,0.1-0.3,0.1-0.5,0.1c-0.4,0-0.7-0.2-0.9-0.4C9.2,93.2,9.2,92.6,9.4,92.2z"/>
		</g>
		<g id="XMLID_1780_">
			<path id="XMLID_1792_" fill="#1D70AD" d="M26.2,135.1c0-0.2,0.1-0.4,0-0.7c-0.1-0.1-0.1-0.3-0.2-0.4c0-0.1-0.1-0.1-0.1-0.2
				c-0.1-0.2-0.3-0.2-0.4-0.3c0,0,0-0.1,0-0.1c-0.1-0.1-0.1-0.3-0.3-0.5c-0.1-0.1-0.3-0.2-0.4-0.3c-0.1-0.1-0.3-0.2-0.4-0.3
				c-0.1,0-0.2-0.1-0.3-0.1c-0.1-0.1-0.2-0.1-0.3-0.1c-0.5-0.1-0.9,0-1.2,0.2c0,0,0,0,0,0c0,0,0,0,0,0l-1.5,1l0,0c0,0,0,0,0,0
				L5,143.9c-0.7,0.4-1.2,1.1-1.3,1.9c-0.2,0.8,0,1.6,0.4,2.3c0.6,0.9,1.5,1.4,2.6,1.4l0,0c0.6,0,1.2-0.2,1.7-0.5l4.2-2.8
				c0,0,0,0,0,0l1.5-1c0,0,0,0,0,0c0,0,0,0,0,0l1-0.6c0,0,0,0,0,0c0,0,0,0,0,0l10.7-7c0,0,0,0,0,0c0,0,0,0,0,0
				c0.4-0.3,0.7-0.8,0.7-1.5c0-0.2,0-0.4,0-0.5C26.5,135.3,26.3,135.2,26.2,135.1z M23.6,133.4C23.6,133.4,23.6,133.4,23.6,133.4
				c0.1,0,0.1,0,0.2,0c0,0,0.1,0,0.1,0c0.1,0,0.1,0.1,0.2,0.1c0.1,0.1,0.2,0.2,0.3,0.2c0,0,0,0.1,0.1,0.1c0,0.1,0.1,0.2,0.2,0.4
				c0.1,0.1,0.3,0.2,0.3,0.2c0,0,0,0,0,0c0,0,0,0,0,0.1c0,0.1,0.1,0.2,0.1,0.2c0,0,0,0.1,0,0.1c0,0.2-0.1,0.4,0,0.6
				c0.1,0.2,0.2,0.3,0.4,0.4c0,0.1,0,0.1,0,0.2c0,0.1,0,0.1,0,0.2c0,0.2-0.1,0.3-0.2,0.4c-0.2,0.1-0.4,0.1-0.7,0
				c-0.1,0-0.2-0.1-0.2-0.1c-0.1,0-0.2-0.1-0.2-0.1c0,0-0.1-0.1-0.1-0.1c-0.1-0.1-0.2-0.1-0.3-0.1c0-0.1-0.1-0.2-0.1-0.3
				c0,0-0.1-0.1-0.1-0.1c-0.1-0.1-0.2-0.2-0.3-0.3c-0.1-0.2-0.3-0.3-0.4-0.3c0-0.2,0.1-0.3,0-0.5c0-0.1,0-0.1-0.1-0.2
				c-0.1-0.2-0.1-0.4-0.1-0.6c0-0.3,0.1-0.5,0.3-0.6c0.1-0.1,0.2-0.1,0.3-0.1C23.4,133.3,23.5,133.3,23.6,133.4z M12.7,145l-0.6,0.4
				c0,0,0,0,0,0c-0.3,0.2-0.7,0.3-1.1,0.3c-0.4,0-0.8-0.1-1.2-0.4c-0.1-0.1-0.2-0.1-0.3-0.1c0,0-0.1,0-0.1,0c-0.2,0-0.3,0.1-0.5,0.1
				c-0.2,0-0.3,0-0.4-0.1c0-0.1,0-0.3,0.3-0.8c0.1-0.1,0.1-0.3,0.1-0.4c-0.2-0.8,0.2-1.7,0.9-2.1l0.6-0.4c-0.1,0.4-0.1,0.8,0,1.2
				c0.1,0.3,0.3,0.4,0.6,0.4c0.1,0,0.2,0,0.3,0c0.2,0,0.3,0,0.4,0.1c0,0.1,0,0.3-0.2,0.6c-0.1,0.2-0.1,0.5,0.1,0.7
				C11.9,144.8,12.3,144.9,12.7,145L12.7,145z M15.8,140.7c-0.6,1.4-1.1,2.6-1.8,3.3c-0.2,0.1-0.4,0.1-0.6,0.1
				c-0.3,0-0.6-0.1-0.9-0.2c0.2-0.5,0.2-0.9-0.1-1.2c-0.2-0.3-0.6-0.5-1.1-0.5c0-0.7,0.3-1.4,0.9-1.8l0,0l0,0l5.5-3.6
				C16.9,138.1,16.3,139.5,15.8,140.7z M7.9,148.2c-0.3,0.2-0.7,0.3-1.1,0.3c-0.7,0-1.3-0.3-1.7-0.9c-0.3-0.5-0.4-1-0.3-1.6
				c0.1-0.5,0.4-1,0.9-1.3l2.3-1.5c0,0.3-0.1,0.6,0,0.9c-0.4,0.6-0.5,1.3-0.2,1.7c0.2,0.4,0.7,0.5,1.2,0.5c0.2,0,0.3,0,0.5,0
				c0.3,0.2,0.5,0.3,0.8,0.3L7.9,148.2z M16,142.9c0.3-0.6,0.5-1.2,0.8-1.8c0.2-0.5,0.4-1,0.6-1.4c0.7-1.6,1.6-3.2,3-4.5
				c0.3-0.3,0.7-0.6,1.2-0.9l0,0l0.3-0.2c0,0.2,0,0.4,0.1,0.6c0,0.1,0,0.2,0.1,0.2c0,0,0,0.1,0,0.1c0,0.2-0.1,0.4,0,0.7
				c0.1,0.3,0.4,0.4,0.5,0.4c0,0,0,0,0.1,0c0.1,0.1,0.2,0.2,0.3,0.4c0,0.2,0,0.4,0.2,0.6c0.2,0.1,0.4,0.2,0.5,0.2c0,0,0.1,0,0.1,0
				c0,0,0,0,0,0c0,0,0,0,0,0c0.1,0.1,0.2,0.2,0.3,0.2c0,0,0.1,0,0.1,0.1L16,142.9z"/>
			<path id="XMLID_1791_" fill="#1D70AD" d="M25.2,128.9C25.2,128.9,25.2,128.9,25.2,128.9l-0.1,0h-2.4h-1.1c-0.2,0-0.4-0.1-0.6-0.2
				c-0.2-0.2-0.3-0.4-0.3-0.6c0-0.2,0.1-0.5,0.3-0.6c0.2-0.1,0.4-0.2,0.6-0.2h1.7h0c0,0,0,0,0,0c1,0,1.8-0.9,1.8-1.9
				c0-1-0.8-1.9-1.9-1.9c-0.3,0-0.5,0.2-0.5,0.5c0,0.3,0.2,0.5,0.5,0.5c0.5,0,0.9,0.4,0.9,0.9c0,0.5-0.4,0.9-0.9,0.9h-1.7
				c-0.5,0-0.9,0.2-1.2,0.5c-0.4,0.4-0.6,0.9-0.6,1.4c0,0.5,0.2,1,0.6,1.4c0.3,0.3,0.8,0.5,1.2,0.5h1.1h2.4c1.2,0,2.2,1,2.2,2.2
				c0,0.5-0.1,0.9-0.4,1.3c-0.2,0.2-0.1,0.5,0.1,0.7c0.1,0.1,0.2,0.1,0.3,0.1c0.2,0,0.3-0.1,0.4-0.2c0.4-0.6,0.6-1.2,0.6-1.9
				C28.3,130.4,27,129,25.2,128.9z"/>
			<path id="XMLID_1790_" fill="#1D70AD" d="M20.8,124.5h0.9c0.3,0,0.5-0.2,0.5-0.5c0-0.3-0.2-0.5-0.5-0.5h-0.9
				c-0.4,0-0.7-0.3-0.7-0.7c0-0.4,0.3-0.7,0.7-0.7c0.3,0,0.5-0.2,0.5-0.5s-0.2-0.5-0.5-0.5c-1,0-1.7,0.8-1.7,1.7
				C19.1,123.7,19.9,124.5,20.8,124.5z"/>
			<path id="XMLID_1785_" fill="#1D70AD" d="M5.4,136.7C5.4,136.7,5.4,136.7,5.4,136.7c0,0.1,0.1,0.1,0.1,0.1c0,0.1,0.1,0.1,0.1,0.2
				c0,0,0,0,0,0c0,0,0,0,0.1,0.1c0,0,0,0,0,0c0.3,0.3,0.7,0.5,1.2,0.6c0.3,0.1,0.5,0.1,0.8,0.1c1.5,0,3.4-0.8,5.1-2.3
				c2-1.7,3.2-3.8,3.1-5.4c0,0,0,0,0,0c0,0,0,0,0,0c0-0.4-0.1-0.7-0.3-1.1c0,0,0,0,0,0c0,0,0-0.1-0.1-0.1c0-0.1-0.1-0.1-0.1-0.2l0,0
				c0,0,0,0,0,0c0,0-0.1-0.1-0.1-0.1c0,0,0,0,0,0c-0.3-0.3-0.7-0.5-1.2-0.6c-0.3-0.1-0.5-0.1-0.8-0.1c-1.5,0-3.4,0.8-5.1,2.3
				c-2,1.7-3.2,3.8-3.1,5.4C5.1,135.9,5.2,136.3,5.4,136.7z M7.3,136.8c-0.1,0-0.2,0-0.2,0c-0.2-0.1-0.4-0.1-0.6-0.3c0,0,0,0,0,0
				c0,0,0,0-0.1-0.1c0,0-0.1-0.1-0.1-0.1c0,0,0,0,0,0c-0.2-0.2-0.3-0.5-0.3-0.8c0,0,0-0.1,0-0.1c0-0.3,0.2-0.6,0.4-0.8
				c0.2,0,0.6,0.3,1.1,0.9c0.4,0.5,0.5,0.9,0.5,1C7.9,136.7,7.6,136.8,7.3,136.8z M13.7,128.9c0.1,0,0.2,0,0.2,0
				c0.2,0.1,0.4,0.1,0.6,0.3l0,0c0,0,0,0,0.1,0.1c0,0,0.1,0.1,0.1,0.1c0,0,0,0,0,0c0.2,0.2,0.3,0.5,0.3,0.8c0,0.3-0.1,0.7-0.4,0.9
				c-0.2,0-0.6-0.3-1.1-0.9c-0.4-0.5-0.5-0.9-0.5-1C13.1,129,13.4,128.9,13.7,128.9z M8.8,130.9c1-0.8,2.1-1.5,3.1-1.8
				c0,0.2,0,0.4,0.1,0.7c0.2,0.5,0.6,1,1,1.5c0.4,0.4,0.9,0.8,1.4,0.8c-0.4,0.9-1.2,1.8-2.3,2.7c-1,0.8-2.1,1.5-3.1,1.8
				c0-0.2,0-0.4-0.1-0.7c-0.2-0.5-0.6-1-1-1.5c-0.4-0.4-0.9-0.8-1.4-0.8C7,132.7,7.8,131.8,8.8,130.9z"/>
			<path id="XMLID_1781_" fill="#1D70AD" d="M10.5,135.1c0.5,0,1-0.2,1.4-0.5c0.3-0.2,0.5-0.5,0.6-0.8c0,0,0,0,0,0c0,0,0,0,0,0
				c0-0.1,0-0.1,0.1-0.2c0,0,0,0,0,0c0-0.1,0-0.1,0.1-0.2c0,0,0-0.1,0-0.1c0,0,0,0,0-0.1c0-0.1,0-0.1,0-0.2c0,0,0,0,0,0c0,0,0,0,0,0
				c0-0.1,0-0.3,0-0.4c0,0,0,0,0,0c0-0.1,0-0.3-0.1-0.4c0,0,0,0,0,0c0-0.1,0-0.1-0.1-0.2c0,0,0,0,0,0c0-0.1-0.1-0.1-0.1-0.2
				c0,0,0,0,0,0c0,0-0.1-0.1-0.1-0.1c0,0,0,0,0,0c0-0.1-0.1-0.1-0.1-0.2c-0.4-0.5-1-0.8-1.7-0.8c-0.1,0-0.2,0-0.3,0c0,0,0,0,0,0
				c-0.1,0-0.1,0-0.2,0c0,0,0,0,0,0c0,0-0.1,0-0.1,0c0,0,0,0,0,0c-0.3,0.1-0.6,0.2-0.9,0.5c-0.9,0.8-1.1,2.2-0.3,3.2
				C9.2,134.8,9.8,135.1,10.5,135.1z M10.4,131.6c0,0,0.1,0,0.1,0c0,0,0,0,0,0c0,0,0.1,0,0.1,0c0,0,0,0,0,0c0,0,0.1,0,0.1,0l0,0
				c0,0,0.1,0,0.1,0c0,0,0,0,0,0c0,0,0.1,0,0.1,0.1c0,0,0,0,0,0c0,0,0.1,0,0.1,0.1c0,0,0,0,0,0c0,0,0.1,0,0.1,0.1c0,0,0,0,0,0
				c0,0,0.1,0.1,0.1,0.1c0,0,0.1,0.1,0.1,0.1c0,0,0,0,0,0c0,0,0,0.1,0,0.1c0,0,0,0,0,0c0,0,0,0.1,0,0.1c0,0,0,0,0,0c0,0,0,0.1,0,0.1
				c0,0,0,0,0,0c0,0,0,0.1,0,0.1c0,0,0,0,0,0c0,0,0,0.1,0,0.1c0,0,0,0,0,0c0,0,0,0.1,0,0.1c0,0,0,0,0,0c0,0,0,0.1,0,0.1c0,0,0,0,0,0
				c-0.4,0-0.8-0.1-1-0.4C10.5,132.3,10.4,132,10.4,131.6z M9.4,132.2c0.1,0.4,0.2,0.8,0.5,1.1c0.3,0.3,0.6,0.6,1,0.7
				c-0.1,0.1-0.3,0.1-0.5,0.1c-0.4,0-0.7-0.2-0.9-0.4C9.2,133.2,9.2,132.6,9.4,132.2z"/>
		</g>
</svg>
