<svg width="32" height="232" viewBox="0 0 32 232" xmlns="http://www.w3.org/2000/svg"><g fill="none"><path d="M6.547 140.697c1.652 0 2.996-1.36 2.996-3.032 0-.63-.19-1.214-.518-1.7-.54-.803-1.45-1.33-2.48-1.33-.51 0-.988.13-1.41.357-.943.51-1.586 1.517-1.586 2.673 0 1.672 1.34 3.032 2.99 3.032zm0-4.93c.3 0 .58.073.83.198.618.31 1.046.955 1.046 1.7 0 1.047-.842 1.898-1.877 1.898-1.035 0-1.877-.85-1.877-1.898 0-.87.58-1.603 1.37-1.826.16-.05.33-.08.5-.08zm0 3.5c.872 0 1.582-.72 1.582-1.602 0-.312-.26-.566-.56-.566-.31 0-.56.25-.56.56 0 .26-.21.47-.47.47-.31 0-.56.25-.56.56 0 .31.25.56.56.56zm18.836 1.43c1.652 0 2.996-1.36 2.996-3.032 0-1.17-.66-2.186-1.63-2.692-.41-.216-.88-.34-1.38-.34-1.03 0-1.94.53-2.48 1.332-.33.485-.52 1.07-.52 1.7 0 1.672 1.34 3.032 2.99 3.032zm4.712 6.21h-.415l.73-4.192c.08-.36 1.136-5.542-1.135-8.4-.627-.79-1.44-1.324-2.43-1.602l-.35-3.205c-.034-1-.768-1.81-1.683-1.854l-8.71-.99h-.25l-8.78.99c-.915.045-1.65.853-1.684 1.854l-.343 3.154c-1.076.26-1.956.81-2.623 1.652-2.27 2.86-1.213 8.042-1.136 8.4l.732 4.192h-.183c-.618 0-1.12.507-1.12 1.132 0 .567.412 1.035.95 1.118v1.698c0 .626.5 1.133 1.12 1.133H7.19c.62 0 1.12-.507 1.12-1.133v-1.684h4.265c.005.31.253.557.56.557h5.428c.306 0 .554-.25.56-.557h4.616v1.684c0 .626.5 1.133 1.12 1.133h4.4c.62 0 1.12-.507 1.12-1.133v-1.724c.47-.13.83-.57.83-1.093 0-.625-.51-1.132-1.12-1.132zm-5.54-10.942c.25-.125.53-.198.828-.198.164 0 .323.023.475.064.805.22 1.4.96 1.4 1.84 0 1.05-.84 1.9-1.876 1.9-1.035 0-1.877-.85-1.877-1.9 0-.74.428-1.39 1.047-1.7zm.828 3.3c.872 0 1.583-.717 1.583-1.6 0-.312-.25-.566-.56-.566-.31 0-.56.25-.56.56 0 .26-.207.47-.463.47-.31 0-.56.25-.56.56 0 .31.25.56.56.56zm-23.003 3.22c-.01-.05-1.052-4.988.916-7.463.428-.538.963-.916 1.616-1.143.488-.17 1.04-.26 1.667-.26.24 0 .43.01.61.03l.25.04c.38.08.6.23.85.4.46.31.99.66 2.33.66 1.09 0 1.86-.5 2.52-1.07l.52-.48c.57-.53 1.07-1 1.73-1.17v4.15h-1.86c-.31 0-.56.25-.56.56 0 .31.25.56.56.56h.68l.13.37c.08.22.29.37.52.37H17c.235 0 .444-.15.526-.37l.14-.38h.683c.31 0 .56-.25.56-.567 0-.31-.25-.565-.56-.565H16.5v-4.07c.55.21 1 .63 1.5 1.097l.523.475c.66.56 1.433 1.06 2.523 1.06 1.34 0 1.87-.355 2.333-.667.25-.17.47-.32.85-.4.12-.03.27-.05.43-.06l.42-.02c.7 0 1.32.11 1.86.323.56.23 1.03.59 1.42 1.07 1.97 2.48.92 7.42.91 7.46l-.01.03-.42 2.38c-.05-.84-.74-1.5-1.58-1.5h-1.33v-.51c0-.62-.5-1.13-1.12-1.13-.27 0-.52.09-.71.25l-.12-.15-.73-1.4c-.09-.174-.27-.29-.47-.3l-6.82-.35h-.054l-6.876.36c-.193.01-.37.12-.462.3l-.8 1.59c-.197-.17-.453-.27-.73-.27-.62 0-1.12.503-1.12 1.13v.503H4.61c-.874 0-1.585.72-1.585 1.604s.71 1.602 1.586 1.602h1.34v.31h-2.8l-.76-4.4v-.03zm15.623 5.554v.55h-4.31v-2h4.31v1.44zm10.54-1.14H25.98v-.31h1.334c.647 0 1.203-.4 1.45-.96l-.22 1.26zm-6.073-5.64l.223.42h-6.17v-.74l5.947.31zm1.27 3.35v.84h-7.216v-.94h7.215v.1zm-15.55 0v-.1h7.215v.94H8.19v-.84zm19.124.84H25.98v-.94h1.334c.257 0 .466.21.466.47s-.21.47-.466.47zm-3.74-2.08h-7.05v-.56h6.76l.29.55zm-8.17-1.69H9.238l.223-.43 5.95-.31v.73zm0 1.13v.55h-7.05l.29-.56h6.76zm-9.453 2.63H4.62c-.257 0-.466-.21-.466-.47s.21-.47.467-.47h1.33v.94zm13.18 1.13h4.62v.31h-4.62v-.31zm-10.93 0h4.39v.31h-4.4v-.31zm-.59-16.72l8.38-.95 8.31.94.29 2.64c-.95.08-1.39.37-1.78.64-.39.26-.71.47-1.71.47l-.2-.01 3.05-1.57c.28-.14.39-.48.24-.76-.14-.28-.47-.39-.75-.25l-3.76 1.93-.11.07c-.25-.2-.5-.42-.75-.66-.7-.65-1.49-1.38-2.66-1.52l-.03-.007-.03-.006h-.22c-.09 0-.18-.004-.27.02-1.17.14-1.96.87-2.65 1.52-.72.663-1.33 1.24-2.29 1.24-.83 0-1.19-.147-1.51-.348l2.62-1.22c.28-.13.403-.47.273-.75s-.46-.41-.74-.28l-3.42 1.6c-.15-.04-.33-.08-.53-.1l.29-2.66zm-3.7 19.29h2.16v.55H3.91v-.55zm22.08 0h2.17v.55h-2.17v-.55zM20.08 126c.09.228.3.365.53.365l.2-.04 2.28-.89c.29-.12.43-.445.32-.74-.11-.29-.43-.435-.72-.322l-2.28.893c-.285.114-.43.44-.32.734zm-6.56-2.93c.09.223.3.36.53.36l.2-.04c.29-.11.43-.44.32-.73l-.88-2.306c-.112-.29-.436-.436-.724-.32-.29.11-.43.44-.32.73l.883 2.3zm-4.9 1.96l2.38 1.08c.076.03.15.044.23.044.214 0 .42-.125.512-.337.125-.288-.003-.62-.286-.75l-2.39-1.065c-.282-.127-.613.002-.74.29-.123.285.005.62.288.745zm9.09-1.557c.075.036.15.05.228.05.215 0 .42-.125.51-.34l1.057-2.41c.125-.288-.003-.62-.285-.75-.28-.123-.61.006-.735.29l-1.06 2.42c-.122.287.006.62.29.75zm1.46 1.04c.11.12.26.18.41.18.14 0 .277-.05.385-.154l1.208-1.15c.22-.21.233-.57.02-.8-.21-.23-.566-.24-.79-.02l-1.205 1.15c-.22.21-.232.57-.02.8zM12 124.31c.11.12.26.18.41.18.14 0 .277-.054.385-.157.225-.215.234-.57.02-.8l-1.132-1.22c-.21-.23-.563-.24-.79-.026-.222.215-.232.573-.02.8L12 124.31zm4-1.21h.02c.303 0 .55-.243.56-.55l.047-1.675c.01-.313-.234-.573-.543-.58-.31-.01-.57.24-.578.55l-.046 1.673c-.01.315.234.576.543.584z" fill="#206FAC"/><path d="M6.547 100.697c1.652 0 2.996-1.36 2.996-3.032 0-.63-.19-1.214-.518-1.7-.54-.803-1.45-1.33-2.48-1.33-.51 0-.988.13-1.41.357-.943.51-1.586 1.517-1.586 2.673 0 1.672 1.34 3.032 2.99 3.032zm0-4.93c.3 0 .58.073.83.198.618.31 1.046.955 1.046 1.7 0 1.047-.842 1.898-1.877 1.898-1.035 0-1.877-.85-1.877-1.898 0-.87.58-1.603 1.37-1.826.16-.05.33-.08.5-.08zm0 3.5c.872 0 1.582-.72 1.582-1.602 0-.312-.26-.566-.56-.566-.31 0-.56.25-.56.56 0 .26-.21.47-.47.47-.31 0-.56.25-.56.56 0 .31.25.56.56.56zm18.836 1.43c1.652 0 2.996-1.36 2.996-3.032 0-1.17-.66-2.186-1.63-2.692-.41-.216-.88-.34-1.38-.34-1.03 0-1.94.53-2.48 1.332-.33.485-.52 1.07-.52 1.7 0 1.672 1.34 3.032 2.99 3.032zm4.712 6.21h-.415l.73-4.192c.08-.36 1.136-5.542-1.135-8.4-.627-.79-1.44-1.324-2.43-1.602l-.35-3.205c-.034-1-.768-1.81-1.683-1.854l-8.71-.99h-.25l-8.78.99c-.915.045-1.65.853-1.684 1.854l-.343 3.154c-1.076.26-1.956.81-2.623 1.652-2.27 2.86-1.213 8.042-1.136 8.4l.732 4.192h-.183c-.618 0-1.12.507-1.12 1.132 0 .567.412 1.035.95 1.118v1.698c0 .626.5 1.133 1.12 1.133H7.19c.62 0 1.12-.507 1.12-1.133v-1.684h4.265c.005.31.253.557.56.557h5.428c.306 0 .554-.25.56-.557h4.616v1.684c0 .626.5 1.133 1.12 1.133h4.4c.62 0 1.12-.507 1.12-1.133v-1.724c.47-.13.83-.57.83-1.093 0-.625-.51-1.132-1.12-1.132zm-5.54-10.942c.25-.125.53-.198.828-.198.164 0 .323.023.475.064.805.22 1.4.96 1.4 1.84 0 1.05-.84 1.9-1.876 1.9-1.035 0-1.877-.85-1.877-1.9 0-.74.428-1.39 1.047-1.7zm.828 3.3c.872 0 1.583-.717 1.583-1.6 0-.312-.25-.566-.56-.566-.31 0-.56.25-.56.56 0 .26-.207.47-.463.47-.31 0-.56.25-.56.56 0 .31.25.56.56.56zm-23.003 3.22c-.01-.05-1.052-4.988.916-7.463.428-.538.963-.916 1.616-1.143.488-.17 1.04-.26 1.667-.26.24 0 .43.01.61.03l.25.04c.38.08.6.23.85.4.46.31.99.66 2.33.66 1.09 0 1.86-.5 2.52-1.07l.52-.48c.57-.53 1.07-1 1.73-1.17v4.15h-1.86c-.31 0-.56.25-.56.56 0 .31.25.56.56.56h.68l.13.37c.08.22.29.37.52.37H17c.235 0 .444-.15.526-.37l.14-.38h.683c.31 0 .56-.25.56-.567 0-.31-.25-.565-.56-.565H16.5V92.1c.55.21 1 .63 1.5 1.09l.523.47c.66.563 1.433 1.064 2.523 1.064 1.34 0 1.87-.35 2.333-.664.25-.17.47-.31.85-.4.12-.023.27-.044.43-.06l.42-.013c.7 0 1.32.11 1.86.324.56.23 1.03.59 1.42 1.07 1.97 2.48.92 7.42.91 7.47l-.01.03-.42 2.39c-.05-.84-.74-1.505-1.58-1.505h-1.33v-.504c0-.626-.5-1.13-1.12-1.13-.27 0-.52.093-.71.25l-.12-.15-.73-1.394c-.09-.18-.27-.29-.47-.3l-6.8-.34h-.056l-6.878.357c-.2.01-.376.125-.468.3l-.818 1.568c-.198-.17-.45-.273-.73-.273-.62 0-1.12.506-1.12 1.13v.506h-1.3c-.874 0-1.585.72-1.585 1.603 0 .88.71 1.6 1.586 1.6h1.34v.312h-2.8l-.76-4.4v-.023zm15.623 5.554v.55h-4.31v-2h4.31v1.44zm10.54-1.14H25.98v-.31h1.334c.647 0 1.203-.4 1.45-.96l-.22 1.26zm-6.073-5.64l.223.42h-6.17v-.74l5.947.31zm1.27 3.35v.84h-7.216v-.94h7.215v.1zm-15.55 0v-.1h7.215v.94H8.19v-.84zm19.124.84H25.98v-.94h1.334c.257 0 .466.21.466.47s-.21.47-.466.47zm-3.74-2.08h-7.05v-.56h6.76l.29.55zm-8.17-1.69H9.238l.223-.43 5.95-.31v.73zm0 1.13v.55h-7.05l.29-.56h6.76zm-9.453 2.63H4.62c-.257 0-.466-.21-.466-.47s.21-.47.467-.47h1.33v.94zm13.18 1.13h4.62v.31h-4.62v-.31zm-10.93 0h4.39v.31h-4.4v-.31zm-.59-16.72l8.38-.95 8.31.94.29 2.64c-.95.08-1.39.37-1.78.64-.39.26-.71.47-1.71.47l-.2-.01 3.05-1.57c.28-.14.39-.48.24-.76-.14-.28-.47-.39-.75-.25l-3.76 1.93-.11.07c-.25-.2-.5-.42-.75-.66-.7-.65-1.49-1.38-2.66-1.52l-.03-.007-.03-.006h-.22c-.09 0-.18-.004-.27.02-1.17.14-1.96.87-2.65 1.52-.72.663-1.33 1.24-2.29 1.24-.83 0-1.19-.147-1.51-.348l2.62-1.22c.28-.13.403-.47.273-.75s-.46-.41-.74-.28l-3.42 1.6c-.15-.04-.33-.08-.53-.1l.29-2.66zm-3.7 19.29h2.16v.55H3.91v-.55zm22.08 0h2.17v.55h-2.17v-.55zM20.08 86c.09.226.3.363.53.363l.2-.04 2.28-.89c.29-.12.43-.448.32-.74-.11-.293-.43-.438-.72-.325l-2.28.89c-.285.11-.43.44-.32.73zm-6.56-2.93c.09.224.3.36.53.36l.2-.04c.29-.11.43-.44.32-.73l-.88-2.304c-.113-.29-.437-.435-.725-.32-.29.11-.43.44-.32.73l.883 2.3zM8.6 85.05l2.39 1.066c.072.03.15.042.225.042.215 0 .42-.126.513-.338.125-.287-.003-.62-.286-.748L9.054 84.01c-.283-.125-.614.004-.74.29-.124.287.004.62.287.747zm9.083-1.555c.073.03.15.046.226.046.21 0 .42-.12.51-.33l1.05-2.41c.12-.29-.01-.62-.29-.75-.29-.12-.62.01-.74.29l-1.05 2.42c-.13.29 0 .62.28.75zm1.458 1.04c.11.12.26.176.41.176.14 0 .28-.05.39-.15l1.21-1.15c.23-.21.24-.57.03-.8-.21-.22-.56-.23-.79-.02l-1.2 1.15c-.22.22-.23.58-.02.8zm-7.17-.208c.11.115.26.175.41.175.14 0 .28-.05.39-.154.23-.213.24-.57.03-.8l-1.14-1.218c-.21-.224-.56-.234-.79-.02-.22.217-.23.575-.02.8l1.14 1.22zm4.02-1.225h.02c.3 0 .55-.24.56-.55l.05-1.673c.01-.32-.23-.58-.54-.59-.31-.01-.56.24-.57.55l-.04 1.67c-.01.31.24.57.55.58z" fill="#fff"/><path d="M6.547 60.697c1.652 0 2.996-1.36 2.996-3.032 0-.63-.19-1.214-.518-1.7-.54-.803-1.45-1.33-2.48-1.33-.51 0-.988.13-1.41.357-.943.51-1.586 1.517-1.586 2.673 0 1.672 1.34 3.032 2.99 3.032zm0-4.93c.3 0 .58.073.83.198.618.31 1.046.955 1.046 1.7 0 1.047-.842 1.898-1.877 1.898-1.035 0-1.877-.85-1.877-1.898 0-.87.58-1.603 1.37-1.826.16-.05.33-.08.5-.08zm0 3.5c.872 0 1.582-.72 1.582-1.602 0-.312-.26-.566-.56-.566-.31 0-.56.25-.56.56 0 .26-.21.47-.47.47-.31 0-.56.25-.56.56 0 .31.25.56.56.56zm18.836 1.43c1.652 0 2.996-1.36 2.996-3.032 0-1.17-.66-2.186-1.63-2.692-.41-.216-.88-.34-1.38-.34-1.03 0-1.94.53-2.48 1.332-.33.485-.52 1.07-.52 1.7 0 1.672 1.34 3.032 2.99 3.032zm4.712 6.21h-.415l.73-4.192c.08-.36 1.136-5.542-1.135-8.4-.627-.79-1.44-1.325-2.43-1.602l-.35-3.205c-.034-1-.768-1.81-1.683-1.854l-8.71-.99h-.25l-8.78.99c-.915.045-1.65.853-1.684 1.854l-.343 3.154c-1.076.26-1.956.81-2.623 1.652-2.27 2.86-1.213 8.042-1.136 8.4l.732 4.192h-.183c-.618 0-1.12.507-1.12 1.132 0 .567.412 1.035.95 1.118v1.698c0 .626.5 1.133 1.12 1.133H7.19c.62 0 1.12-.507 1.12-1.133V69.17h4.265c.005.31.253.557.56.557h5.428c.306 0 .554-.25.56-.557h4.616v1.684c0 .626.5 1.133 1.12 1.133h4.4c.62 0 1.12-.507 1.12-1.133V69.13c.47-.13.83-.57.83-1.093 0-.625-.51-1.132-1.12-1.132zm-5.54-10.942c.25-.125.53-.198.828-.198.164 0 .323.023.475.064.805.22 1.4.96 1.4 1.84 0 1.05-.84 1.9-1.876 1.9-1.035 0-1.877-.85-1.877-1.9 0-.74.428-1.39 1.047-1.7zm.828 3.3c.872 0 1.583-.717 1.583-1.6 0-.312-.25-.566-.56-.566-.31 0-.56.25-.56.56 0 .26-.207.47-.463.47-.31 0-.56.25-.56.56 0 .31.25.56.56.56zM2.38 62.485c-.01-.05-1.052-4.988.916-7.463.428-.538.963-.916 1.616-1.143.488-.17 1.04-.26 1.667-.26.24 0 .43.01.61.03l.25.04c.38.08.6.23.85.4.46.31.99.66 2.33.66 1.09 0 1.86-.5 2.52-1.07l.52-.48c.57-.53 1.07-1 1.73-1.17v4.15h-1.86c-.31 0-.56.25-.56.56 0 .31.25.56.56.56h.68l.13.37c.08.22.29.37.52.37H17c.235 0 .444-.15.526-.37l.14-.38h.683c.31 0 .56-.25.56-.567 0-.31-.25-.565-.56-.565H16.5V52.1c.55.21 1 .63 1.5 1.09l.523.47c.66.563 1.433 1.064 2.523 1.064 1.34 0 1.87-.35 2.333-.664.25-.17.47-.31.85-.4.12-.023.27-.044.43-.06l.42-.013c.7 0 1.32.11 1.86.324.56.23 1.03.59 1.42 1.07 1.97 2.48.92 7.42.91 7.47l-.01.03-.42 2.39c-.05-.84-.74-1.505-1.58-1.505h-1.33v-.504c0-.626-.5-1.13-1.12-1.13-.27 0-.52.093-.71.25l-.1-.14-.73-1.396c-.09-.18-.27-.29-.47-.3l-6.8-.35h-.06l-6.88.357c-.196.01-.373.125-.465.3l-.81 1.565c-.198-.17-.454-.276-.73-.276-.62 0-1.12.506-1.12 1.13v.506H4.61c-.875 0-1.586.72-1.586 1.605 0 .88.71 1.6 1.586 1.6h1.34v.31h-2.8l-.768-4.4-.005-.02zm15.623 5.554v.55h-4.31v-2h4.31v1.44zm10.54-1.14H25.98v-.31h1.334c.647 0 1.203-.4 1.45-.96l-.22 1.26zm-6.073-5.63l.223.42h-6.17v-.74l5.947.31zm1.27 3.34v.84h-7.216v-.94h7.215v.1zm-15.55 0v-.1h7.215v.94H8.19v-.84zm19.124.84H25.98v-.94h1.334c.257 0 .466.21.466.47s-.21.47-.466.47zm-3.74-2.07h-7.05v-.56h6.76l.29.55zm-8.17-1.69H9.238l.223-.43 5.95-.31v.73zm0 1.13v.55h-7.05l.29-.56h6.76zM5.95 65.46H4.618c-.257 0-.466-.21-.466-.47s.21-.472.467-.472h1.33v.942zm13.174 1.133h4.617v.312h-4.61v-.312zm-10.932 0h4.385v.312H8.19v-.312zm-.59-16.72l8.375-.945 8.308.945.287 2.64c-.95.082-1.39.377-1.786.642-.397.266-.71.476-1.714.476l-.207-.01 3.05-1.57c.275-.14.385-.48.244-.76-.14-.28-.48-.39-.76-.25l-3.76 1.94-.11.08c-.26-.19-.5-.42-.76-.66-.7-.64-1.49-1.38-2.66-1.51h-.06l-.08-.01h-.14c-.09 0-.19 0-.27.02-1.17.14-1.96.87-2.66 1.52-.72.67-1.34 1.24-2.29 1.24-.84 0-1.19-.14-1.52-.35l2.62-1.22c.28-.13.4-.46.27-.75s-.47-.41-.75-.27l-3.42 1.6c-.16-.04-.33-.07-.53-.1l.29-2.66zM3.904 69.17H6.07v.552H3.903v-.552zm22.076 0h2.167v.552H25.98v-.552zm-5.91-23.143c.085.225.297.362.522.362l.202-.04 2.278-.89c.29-.12.432-.45.32-.74-.112-.29-.436-.44-.724-.33l-2.28.89c-.287.11-.43.44-.32.73zm-6.567-2.934c.086.225.298.363.523.363l.202-.04c.29-.112.432-.44.32-.73l-.882-2.306c-.112-.29-.436-.436-.724-.323-.29.113-.432.44-.32.732l.882 2.3zM8.6 45.053l2.39 1.066c.072.03.15.04.225.04.215 0 .42-.13.513-.34.125-.29-.003-.62-.286-.75l-2.388-1.06c-.283-.13-.614 0-.74.29-.124.28.004.62.287.74zm9.083-1.555c.073.033.15.048.226.048.21 0 .42-.126.51-.338l1.05-2.415c.12-.286-.01-.62-.29-.747-.29-.126-.62.003-.74.29l-1.05 2.414c-.13.286 0 .62.28.747zm1.458 1.04c.11.12.26.178.41.178.14 0 .28-.05.39-.155l1.21-1.15c.23-.21.24-.57.03-.8-.21-.22-.56-.23-.79-.02l-1.2 1.15c-.22.22-.23.58-.02.8zm-7.17-.206c.11.118.26.178.41.178.14 0 .28-.052.39-.155.23-.214.24-.572.03-.8l-1.13-1.218c-.21-.228-.56-.238-.79-.023-.22.215-.23.573-.02.8L12 44.332zm4.02-1.222h.02c.3 0 .55-.242.56-.55l.05-1.674c.01-.313-.23-.573-.54-.582-.31-.01-.56.238-.57.55l-.04 1.674c-.01.313.24.574.55.582z" fill="#67737B"/><path d="M6.547 20.697c1.652 0 2.996-1.36 2.996-3.032 0-.63-.19-1.214-.518-1.7-.54-.803-1.45-1.33-2.48-1.33-.51 0-.988.13-1.41.357-.943.51-1.586 1.517-1.586 2.673 0 1.672 1.34 3.032 2.99 3.032zm0-4.93c.3 0 .58.073.83.198.618.31 1.046.955 1.046 1.7 0 1.047-.842 1.898-1.877 1.898-1.035 0-1.877-.85-1.877-1.898 0-.87.58-1.603 1.37-1.826.16-.05.33-.08.5-.08zm0 3.5c.872 0 1.582-.72 1.582-1.602 0-.312-.26-.566-.56-.566-.31 0-.56.25-.56.56 0 .26-.21.47-.47.47-.31 0-.56.25-.56.56 0 .31.25.56.56.56zm18.836 1.43c1.652 0 2.996-1.36 2.996-3.032 0-1.17-.66-2.186-1.63-2.692-.41-.216-.88-.34-1.38-.34-1.03 0-1.94.53-2.48 1.332-.33.485-.52 1.07-.52 1.7 0 1.672 1.34 3.032 2.99 3.032zm4.712 6.21h-.415l.73-4.192c.08-.36 1.136-5.542-1.135-8.4-.627-.79-1.44-1.325-2.43-1.602l-.35-3.205c-.034-1-.768-1.81-1.683-1.854l-8.71-.99h-.25l-8.78.99c-.915.045-1.65.853-1.684 1.854l-.343 3.154c-1.076.26-1.956.81-2.623 1.652-2.27 2.86-1.213 8.042-1.136 8.4l.732 4.192h-.183c-.618 0-1.12.507-1.12 1.132 0 .567.412 1.035.95 1.118v1.698c0 .626.5 1.133 1.12 1.133H7.19c.62 0 1.12-.507 1.12-1.133V29.17h4.265c.005.31.253.557.56.557h5.428c.306 0 .554-.25.56-.557h4.616v1.684c0 .626.5 1.133 1.12 1.133h4.4c.62 0 1.12-.507 1.12-1.133V29.13c.47-.13.83-.57.83-1.093 0-.625-.51-1.132-1.12-1.132zm-5.54-10.942c.25-.125.53-.198.828-.198.164 0 .323.023.475.064.805.22 1.4.96 1.4 1.84 0 1.05-.84 1.9-1.876 1.9-1.035 0-1.877-.85-1.877-1.9 0-.74.428-1.39 1.047-1.7zm.828 3.3c.872 0 1.583-.717 1.583-1.6 0-.312-.25-.566-.56-.566-.31 0-.56.25-.56.56 0 .26-.207.47-.463.47-.31 0-.56.25-.56.56 0 .31.25.56.56.56zM2.38 22.485c-.01-.05-1.052-4.988.916-7.463.428-.538.963-.916 1.616-1.143.488-.17 1.04-.26 1.667-.26.24 0 .43.01.61.03l.25.04c.38.08.6.23.85.4.46.31.99.66 2.33.66 1.09 0 1.86-.5 2.52-1.07l.52-.48c.57-.53 1.07-1 1.73-1.17v4.15h-1.86c-.31 0-.56.25-.56.56 0 .31.25.56.56.56h.68l.13.37c.08.22.29.37.52.37H17c.235 0 .444-.15.526-.37l.14-.38h.683c.31 0 .56-.25.56-.567 0-.31-.25-.565-.56-.565H16.5V12.1c.55.21 1 .63 1.5 1.09l.523.47c.66.563 1.433 1.064 2.523 1.064 1.34 0 1.87-.35 2.333-.664.25-.17.47-.31.85-.4.12-.023.27-.044.43-.06l.42-.013c.7 0 1.32.11 1.86.324.56.23 1.03.59 1.42 1.07 1.97 2.48.92 7.42.91 7.47l-.01.03-.42 2.39c-.05-.84-.74-1.505-1.58-1.505h-1.33v-.504c0-.626-.5-1.13-1.12-1.13-.27 0-.52.093-.71.25l-.1-.14-.73-1.396c-.09-.18-.27-.29-.47-.3l-6.8-.35h-.06l-6.88.357c-.196.01-.373.125-.465.3l-.81 1.565c-.198-.17-.454-.276-.73-.276-.62 0-1.12.506-1.12 1.13v.506H4.61c-.875 0-1.586.72-1.586 1.605 0 .88.71 1.6 1.586 1.6h1.34v.31h-2.8l-.768-4.4-.005-.02zm15.623 5.554v.55h-4.31v-2h4.31v1.44zm10.54-1.14H25.98v-.31h1.334c.647 0 1.203-.4 1.45-.96l-.22 1.26zm-6.073-5.63l.223.42h-6.17v-.74l5.947.31zm1.27 3.34v.84h-7.216v-.94h7.215v.1zm-15.55 0v-.1h7.215v.94H8.19v-.84zm19.124.84H25.98v-.94h1.334c.257 0 .466.21.466.47s-.21.47-.466.47zm-3.74-2.07h-7.05v-.56h6.76l.29.55zm-8.17-1.69H9.238l.223-.43 5.95-.31v.73zm0 1.13v.55h-7.05l.29-.56h6.76zM5.95 25.46H4.618c-.257 0-.466-.21-.466-.47s.21-.472.467-.472h1.33v.942zm13.174 1.133h4.617v.312h-4.61v-.312zm-10.932 0h4.385v.312H8.19v-.312zM7.6 9.873l8.375-.945 8.308.945.287 2.64c-.95.082-1.39.377-1.786.642-.397.266-.71.476-1.714.476l-.207-.01 3.05-1.57c.275-.14.385-.48.244-.76-.14-.28-.477-.39-.753-.25l-3.76 1.94-.108.08c-.253-.19-.498-.42-.756-.66-.7-.64-1.487-1.38-2.66-1.51h-.057l-.082-.01h-.13c-.09 0-.18 0-.27.02-1.17.14-1.96.87-2.65 1.52-.71.67-1.33 1.24-2.29 1.24-.83 0-1.19-.14-1.51-.35l2.62-1.22c.28-.13.41-.46.28-.75s-.46-.41-.74-.27l-3.42 1.6c-.15-.04-.33-.07-.53-.1l.29-2.66zM3.904 29.17H6.07v.552H3.903v-.552zm22.076 0h2.167v.552H25.98v-.552zM20.07 6.027c.085.225.297.362.522.362l.202-.04 2.278-.89c.29-.12.432-.45.32-.74-.112-.29-.436-.44-.724-.33l-2.28.89c-.287.11-.43.44-.32.73zm-6.567-2.934c.086.225.298.363.523.363l.202-.04c.29-.112.432-.44.32-.73L13.666.38c-.112-.29-.436-.436-.724-.323-.29.113-.432.44-.32.732l.882 2.3zM8.6 5.053l2.39 1.066c.072.03.15.04.225.04.215 0 .42-.13.513-.34.125-.29-.003-.62-.286-.75L9.054 4.01c-.283-.126-.614.003-.74.29-.124.286.004.62.287.746zm9.083-1.555c.073.033.15.048.226.048.21 0 .42-.126.51-.338L19.47.793c.125-.286-.003-.62-.285-.747-.28-.126-.61.003-.738.29l-1.05 2.414c-.126.286.002.62.285.747zm1.458 1.04c.11.12.26.178.41.178.14 0 .28-.05.39-.155l1.21-1.15c.23-.21.24-.57.03-.8-.21-.22-.56-.23-.79-.02l-1.21 1.15c-.22.22-.23.58-.02.8zm-7.17-.206c.11.118.26.178.41.178.14 0 .28-.052.39-.155.23-.214.24-.572.03-.8l-1.14-1.218c-.21-.228-.56-.238-.79-.023-.22.215-.23.573-.02.8l1.14 1.218zm4.02-1.222h.02c.3 0 .55-.242.56-.55l.04-1.673c.01-.313-.23-.573-.54-.582-.31-.01-.56.238-.57.55l-.04 1.675c-.01.31.24.57.55.58z" fill="#3A434E"/></g></svg>