<svg width="32" height="232" viewBox="0 0 32 232" xmlns="http://www.w3.org/2000/svg"><g fill="none"><path d="M29.097 149.955h-.938V138.62h.33c.27 0 .5-.225.5-.5 0-.21-.13-.39-.32-.465l-1.89-.9-1.68-10.115v-2.1c0-.28-.23-.5-.5-.5s-.5.22-.5.5v2.043l-1.6 10.17-1.92.91c-.21.102-.33.335-.28.562.05.227.25.39.49.39h.33v11.335h-1.17v-10.6c0-.37-.21-.693-.51-.866v-6.26h.19c.28 0 .5-.225.5-.5 0-.278-.23-.502-.51-.502h-.2v-2.833c0-.26-.2-.48-.46-.5-.26-.02-.5.15-.54.41l-.16.89-.67-7.6v-1.09c0-.28-.23-.5-.5-.5s-.5.22-.5.5v1.08l-.67 7.6-.16-.89c-.05-.26-.28-.43-.54-.41-.26.02-.46.24-.46.5v2.83h-.19c-.28 0-.5.22-.5.5 0 .27.22.5.5.5h.19v5.84l-2.47-5.17v-.75h.102c.274 0 .5-.23.5-.5 0-.28-.227-.5-.504-.5h-.1v-.11c0-.28-.223-.5-.5-.5-.28 0-.5.22-.5.5v.1h-.11c-.28 0-.5.22-.5.5 0 .27.22.5.5.5h.1v.74l-2.47 5.16v-5.84h.2c.275 0 .5-.23.5-.5 0-.28-.225-.5-.5-.5h-.19v-2.84c0-.26-.2-.48-.46-.5-.258-.02-.493.15-.54.41l-.16.89-.67-7.6v-1.08c0-.28-.223-.5-.5-.5-.278 0-.5.22-.5.5v1.08l-.66 7.6-.16-.89c-.05-.26-.285-.43-.54-.41-.26.02-.46.24-.46.5v2.83H4c-.276 0-.5.22-.5.5s.226.5.503.5h.19v6.26c-.3.17-.503.49-.503.86v10.61h-.75c-.554 0-1.004.45-1.004 1s.45 1 1.003 1h1.57l.19.02h14.25l.19-.02h9.95c.55 0 1-.45 1-1s-.45-1-1.01-1zm-17.266-13.18c-.34 0-.62.276-.62.616 0 .35.28.62.62.62.35 0 .62-.27.62-.61 0-.34-.27-.61-.62-.61zm6.07-2.24c-.02-.405-.35-.728-.76-.728-.41 0-.74.322-.76.727v2.714h1.53v-2.714zm6.75 5.394c-.41 0-.74.32-.76.72v2.71h1.53v-2.72c-.02-.41-.35-.73-.76-.73zm0 5.22c-.41 0-.74.32-.76.72v2.71h1.53v-2.72c-.02-.41-.35-.73-.76-.73zM7.3 134.53c-.02-.405-.355-.728-.765-.728-.41 0-.745.322-.764.727v2.71H7.3v-2.72zm9.83 5.955c-.41 0-.746.32-.764.725v1.85h1.53v-1.85c-.02-.403-.355-.725-.766-.725zm-10.596 0c-.41 0-.745.32-.764.725v1.85h1.524v-1.85c-.02-.403-.354-.725-.764-.725zm10.596 3.19c-.41 0-.75.32-.77.724v1.85h1.53v-1.85c-.02-.41-.354-.73-.765-.73zm-10.6 0c-.41 0-.746.32-.765.724v1.85h1.528v-1.85c-.02-.41-.354-.73-.764-.73zm3.302-5.33l1.994-4.174 1.993 4.18.16.34H9.67l.16-.33zm1.036 11.604v-6.28c0-.19.397-.59.96-.91.48.27.96.68.96.9v6.27h-1.92zm1.18-8.2c-.14-.07-.3-.07-.44 0-.29.14-1.744.89-1.744 1.92v6.27H8.86v-9.61h5.943v9.6h-1.01v-6.27c0-1.03-1.45-1.78-1.742-1.92zm-6.34 8.19h-.5v-10h2.645v10h-2.14zm12.24 0h-2.146v-10h2.647v10h-.5zm-.48-18.73h-.683l.34-3.89.342 3.88zm-1.666 1h2.647v6.72H15.8v-6.73zm-8.932-1h-.68l.343-3.89.34 3.88zm-1.665 1H7.85v6.72H5.21v-6.73zm17.96 5.32c.15-.07.255-.21.28-.38l1.162-7.38 1.23 7.38c.025.16.13.3.277.37l.155.07h-3.26l.15-.08zm-.03 1.07h3.01v11.33h-3.01V138.6z" fill="#206FAC"/><path d="M29.097 109.955h-.938V98.62h.33c.27 0 .5-.225.5-.5 0-.21-.13-.39-.32-.465l-1.89-.9L25.1 86.64v-2.1c0-.28-.223-.5-.5-.5s-.5.22-.5.5v2.043l-1.6 10.17-1.914.91c-.212.104-.324.337-.273.564.052.225.255.39.49.39h.33v11.333H19.96v-10.6c0-.37-.203-.693-.502-.866v-6.26h.197c.278 0 .502-.225.502-.5 0-.278-.224-.502-.502-.502h-.197V88.39c0-.26-.2-.477-.458-.5-.257-.02-.493.156-.54.41l-.16.89-.668-7.6v-1.086c0-.276-.225-.5-.502-.5s-.502.224-.502.5v1.085l-.67 7.6-.16-.89c-.046-.26-.28-.43-.54-.41-.257.02-.456.24-.456.5v2.83h-.197c-.278 0-.502.22-.502.5 0 .27.225.5.502.5h.197v5.84l-2.47-5.17v-.75h.104c.277 0 .502-.23.502-.5 0-.28-.225-.5-.502-.5h-.104v-.11c0-.28-.225-.5-.5-.5-.28 0-.503.22-.503.5v.1h-.11c-.28 0-.5.22-.5.5 0 .27.22.5.5.5h.1v.74l-2.47 5.17V92.2h.2c.27 0 .5-.224.5-.5 0-.277-.23-.5-.5-.5h-.19v-2.83c0-.26-.2-.476-.46-.5-.26-.02-.5.157-.54.41l-.16.89-.67-7.6V80.5c0-.276-.23-.5-.5-.5-.28 0-.5.224-.5.5v1.085l-.66 7.6-.16-.89c-.05-.254-.29-.43-.54-.41-.26.024-.46.24-.46.5v2.832h-.2c-.28 0-.5.224-.5.5 0 .277.22.5.5.5h.19v6.262c-.3.17-.5.49-.5.86v10.6h-.76c-.56 0-1.01.44-1.01 1s.45 1 1.01 1h1.57l.19.02h14.25l.19-.02h9.95c.55 0 1-.45 1-1 0-.56-.45-1-1.01-1zM11.83 96.775c-.34 0-.62.276-.62.616 0 .35.28.62.62.62.343 0 .62-.27.62-.61 0-.34-.278-.61-.62-.61zm6.064-2.24c-.02-.405-.354-.728-.765-.728-.41 0-.75.322-.77.727v2.714h1.53v-2.714zm6.75 5.394c-.41 0-.745.32-.763.72v2.71h1.53v-2.72c-.02-.41-.35-.73-.76-.73zm0 5.22c-.41 0-.745.32-.763.72v2.71h1.53v-2.72c-.02-.41-.35-.73-.76-.73zM7.298 94.53c-.02-.404-.354-.727-.764-.727-.41 0-.745.322-.764.727v2.714h1.528V94.53zm9.832 5.956c-.41 0-.747.32-.765.725v1.85h1.53v-1.85c-.02-.4-.355-.72-.766-.72zm-10.597 0c-.41 0-.745.32-.764.725v1.85h1.52v-1.85c-.02-.4-.36-.72-.77-.72zm10.596 3.19c-.41 0-.75.32-.77.724v1.85h1.53v-1.85c-.02-.405-.36-.726-.77-.726zm-10.6 0c-.41 0-.75.32-.77.724v1.85h1.53v-1.85c-.02-.405-.36-.726-.77-.726zm3.3-5.33l1.99-4.174 1.99 4.173.16.334h-4.3l.16-.34zm1.03 11.604v-6.272c0-.188.39-.588.96-.907.48.28.96.69.96.91v6.27h-1.92zm1.18-8.195c-.14-.07-.3-.07-.44 0-.29.14-1.75.897-1.75 1.92v6.273h-1v-9.605h5.95v9.603h-1.01v-6.27c0-1.024-1.45-1.78-1.75-1.92zM5.7 109.95h-.5v-10h2.65v10H5.71zm12.24 0H15.8v-10h2.648v10h-.5zm-.48-18.73h-.682l.34-3.89.342 3.883zm-1.665 1h2.647v6.72H15.8v-6.72zm-8.93-1h-.68l.34-3.89.34 3.883zm-1.667 1h2.65v6.72H5.21v-6.72zm17.96 5.32c.15-.07.255-.21.28-.38l1.162-7.377 1.23 7.382c.025.16.13.3.277.37l.154.072H23l.157-.077zm-.03 1.07h3.01v11.333h-3.01V98.62z" fill="#fff"/><path d="M29.097 69.955h-.938V58.62h.33c.27 0 .5-.225.5-.5 0-.21-.13-.39-.32-.465l-1.89-.9L25.1 46.64v-2.1c0-.28-.223-.5-.5-.5s-.5.22-.5.5v2.043l-1.6 10.17-1.914.91c-.212.104-.324.337-.273.564.052.225.255.39.49.39h.33V69.95H19.96v-10.6c0-.37-.203-.693-.502-.866v-6.26h.197c.278 0 .502-.225.502-.5 0-.278-.224-.502-.502-.502h-.197V48.39c0-.26-.2-.477-.458-.5-.257-.02-.493.156-.54.41l-.16.89-.668-7.6v-1.086c0-.276-.225-.5-.502-.5s-.502.224-.502.5v1.085l-.67 7.6-.16-.89c-.046-.26-.28-.43-.54-.41-.257.02-.456.24-.456.5v2.83h-.197c-.278 0-.502.22-.502.5 0 .27.225.5.502.5h.197v5.84l-2.47-5.17v-.75h.104c.277 0 .502-.23.502-.5 0-.28-.225-.5-.502-.5h-.104v-.11c0-.28-.225-.5-.5-.5-.28 0-.503.22-.503.5v.1h-.11c-.28 0-.5.22-.5.5 0 .27.22.5.5.5h.1v.74l-2.47 5.17V52.2h.2c.27 0 .5-.224.5-.5 0-.277-.23-.5-.5-.5h-.19v-2.83c0-.26-.2-.476-.46-.5-.26-.02-.5.157-.54.41l-.16.89-.67-7.6V40.5c0-.276-.23-.5-.5-.5-.28 0-.5.224-.5.5v1.085l-.66 7.6-.16-.89c-.05-.254-.29-.43-.54-.41-.26.024-.46.24-.46.5v2.832h-.2c-.28 0-.5.224-.5.5 0 .277.22.5.5.5h.19v6.262c-.3.17-.5.49-.5.86v10.61h-.76c-.56 0-1.01.44-1.01 1s.45 1 1.01 1h1.57l.19.02h14.25l.19-.02h9.95c.55 0 1-.45 1-1 0-.56-.45-1-1.01-1zM11.83 56.775c-.34 0-.62.276-.62.616 0 .35.28.62.62.62.343 0 .62-.27.62-.61 0-.34-.278-.61-.62-.61zm6.064-2.24c-.02-.405-.354-.728-.765-.728-.41 0-.75.322-.77.727v2.714h1.53v-2.714zm6.75 5.394c-.41 0-.745.32-.763.72v2.71h1.53v-2.71c-.02-.41-.35-.73-.76-.73zm0 5.22c-.41 0-.745.32-.763.72v2.71h1.53v-2.71c-.02-.41-.35-.73-.76-.73zM7.298 54.53c-.02-.404-.354-.727-.764-.727-.41 0-.745.322-.764.727v2.714h1.528V54.53zm9.832 5.956c-.41 0-.747.32-.765.725v1.85h1.53v-1.85c-.02-.4-.355-.72-.766-.72zm-10.597 0c-.41 0-.745.32-.764.725v1.85h1.52v-1.85c-.02-.4-.36-.72-.77-.72zm10.596 3.19c-.41 0-.75.32-.77.724v1.85h1.53V64.4c-.02-.405-.36-.726-.77-.726zm-10.6 0c-.41 0-.75.32-.77.724v1.85h1.53V64.4c-.02-.405-.36-.726-.77-.726zm3.3-5.33l1.99-4.174 1.99 4.173.16.334h-4.3l.16-.34zm1.03 11.604v-6.27c0-.188.39-.588.96-.907.48.277.96.686.96.907v6.272h-1.92zm1.18-8.195c-.14-.07-.3-.07-.44 0-.29.14-1.75.897-1.75 1.92v6.273h-1v-9.6h5.95v9.604h-1.01V63.68c0-1.024-1.45-1.78-1.75-1.922zM5.71 69.95h-.5v-10h2.645v10.005H5.712zm12.24 0h-2.146v-10h2.647v10.005h-.5zm-.48-18.73h-.683l.34-3.882.342 3.883zm-1.666 1h2.647v6.727h-2.64v-6.724zm-8.932-1H6.19l.343-3.882.34 3.883zm-1.665 1h2.645v6.727H5.21v-6.724zm17.96 5.32c.15-.07.255-.21.28-.372l1.162-7.377 1.23 7.39c.02.16.13.3.27.37l.15.08h-3.25l.15-.07zm-.03 1.076h3.01V69.95h-3.01V58.62z" fill="#67737B"/><path d="M29.097 29.955h-.938V18.62h.33c.27 0 .5-.225.5-.5 0-.21-.13-.39-.32-.465l-1.89-.9L25.1 6.64v-2.1c0-.276-.224-.5-.502-.5-.277 0-.5.224-.5.5v2.047l-1.6 10.17-1.914.91c-.212.102-.324.335-.273.562.06.22.26.39.49.39h.33v11.33h-1.17v-10.6c0-.37-.2-.7-.5-.87v-6.26h.2c.28 0 .5-.23.5-.5 0-.28-.22-.5-.5-.5h-.19V8.39c0-.26-.2-.477-.46-.5-.25-.02-.49.156-.54.41l-.16.89-.66-7.6V.503c0-.276-.22-.5-.5-.5s-.5.224-.5.5V1.59l-.67 7.6-.16-.89c-.04-.254-.28-.43-.54-.41-.25.024-.45.24-.45.5v2.832h-.19c-.28 0-.5.224-.5.5 0 .277.23.5.51.5h.2v5.844l-2.5-5.166v-.75h.11c.276 0 .5-.23.5-.5 0-.28-.225-.5-.5-.5h-.106v-.11c0-.276-.225-.5-.5-.5-.28 0-.503.224-.503.5v.104h-.11c-.28 0-.5.224-.5.5 0 .277.224.5.5.5h.104v.743l-2.47 5.166v-5.84h.197c.28 0 .5-.224.5-.5 0-.277-.22-.5-.5-.5h-.19V8.39c0-.26-.2-.477-.456-.5-.26-.02-.49.156-.54.41l-.16.89-.67-7.6V.503c0-.276-.22-.5-.5-.5s-.5.224-.5.5V1.59l-.66 7.6-.16-.89c-.048-.254-.28-.43-.54-.41-.26.024-.458.24-.458.5v2.832h-.2c-.276 0-.5.224-.5.5 0 .277.23.5.51.5h.19v6.262c-.3.172-.5.495-.5.865v10.6h-.76c-.55 0-1 .44-1 1s.45 1 1.01 1h1.57l.19.02h14.25l.19-.02h9.95c.56 0 1.01-.45 1.01-1 0-.56-.45-1-1-1zM11.83 16.775c-.34 0-.62.276-.62.616 0 .35.28.62.62.62.343 0 .62-.27.62-.61 0-.34-.278-.61-.62-.61zm6.064-2.24c-.02-.405-.354-.728-.765-.728-.41 0-.75.322-.77.727v2.714h1.53v-2.714zm6.75 5.394c-.41 0-.745.32-.763.72v2.71h1.53v-2.71c-.02-.41-.35-.73-.76-.73zm0 5.22c-.41 0-.745.32-.763.72v2.71h1.53v-2.71c-.02-.41-.35-.73-.76-.73zM7.298 14.53c-.02-.404-.354-.727-.764-.727-.41 0-.745.322-.764.727v2.714h1.528V14.53zm9.832 5.956c-.41 0-.747.32-.765.725v1.85h1.53v-1.85c-.02-.4-.355-.72-.766-.72zm-10.597 0c-.41 0-.745.32-.764.725v1.85h1.52v-1.85c-.02-.4-.36-.72-.77-.72zm10.596 3.19c-.41 0-.75.32-.77.724v1.85h1.53V24.4c-.02-.405-.36-.726-.77-.726zm-10.6 0c-.41 0-.75.32-.77.724v1.85h1.53V24.4c-.02-.405-.36-.726-.77-.726zm3.3-5.33l1.99-4.174 1.99 4.173.16.334h-4.3l.16-.34zm1.03 11.604v-6.27c0-.188.39-.588.96-.907.48.277.96.686.96.907v6.272h-1.92zm1.18-8.195c-.14-.07-.3-.07-.44 0-.29.14-1.75.897-1.75 1.92v6.273h-1v-9.6h5.95v9.604h-1.01V23.68c0-1.024-1.45-1.78-1.75-1.922zM5.71 29.95h-.5v-10h2.645v10.005H5.712zm12.24 0h-2.146v-10h2.647v10.005h-.5zm-.48-18.73h-.683l.34-3.882.342 3.883zm-1.666 1h2.647v6.727h-2.64v-6.724zm-8.932-1H6.19l.343-3.882.34 3.883zm-1.665 1h2.645v6.727H5.21v-6.724zm17.96 5.32c.15-.07.255-.21.28-.372L24.61 9.79l1.23 7.383c.025.16.13.3.277.37l.155.073h-3.258l.155-.076zm-.03 1.076h3.01V29.95h-3.01V18.62z" fill="#3A434E"/></g></svg>