<svg width="32" height="232" viewBox="0 0 32 232" xmlns="http://www.w3.org/2000/svg"><g fill="none"><path d="M18.21 142.8c.28 0 .402.047.568.112.202.078.452.175.91.175.46 0 .71-.097.912-.175.167-.065.287-.11.568-.11.28 0 .4.045.568.11.2.078.452.175.91.175s.71-.097.91-.175c.168-.065.288-.11.57-.11h.048c-.09.628-.142 1.317-.142 2.072 0 .26.21.468.47.468h3.43c.26 0 .47-.21.47-.468v-1.79l.158.003c.46 0 .71-.097.91-.175.168-.065.288-.11.57-.11.28 0 .4.045.567.11.202.078.453.175.91.175.262 0 .473-.21.473-.468s-.21-.47-.472-.47c-.28 0-.402-.05-.568-.11-.2-.08-.453-.18-.91-.18-.46 0-.71.09-.912.17-.166.06-.287.11-.57.11l-.156-.01v-3h1.683c.26 0 .472-.21.472-.47s-.21-.47-.472-.47h-1.683v-2.95c0-.26-.21-.47-.47-.47-.262 0-.473.21-.473.47v1.71c-.28.16-.83.54-1.4 1.23h-2.14c-.9-2.92-3.52-5-6.59-5.23l-.21-.03h-6.38v-.68h2.1c.26 0 .47-.21.47-.47v-1.75h5.38v.12c0 .26.21.47.47.47h2.12v1.27c0 .25.21.46.47.46h1.79c.26 0 .47-.21.47-.47v-.66h2.4c.26 0 .47-.21.47-.47v-1.61h3.3c.26 0 .47-.21.47-.47s-.21-.47-.47-.47h-3.77c-.26 0-.47.21-.47.47v1.61h-2.4c-.26 0-.47.21-.47.464v.66h-.85v-1.276c0-.26-.21-.47-.48-.47h-2.12v-.13c0-.26-.21-.47-.47-.47h-6.32c-.26 0-.48.21-.48.47v1.746h-2.1c-.26 0-.47.21-.47.47v1.15H8.9c-.624 0-1.13-.5-1.13-1.12l-.02-.18-.233-4.54c-.026-.5-.44-.89-.943-.89H3.8c-.51 0-.93.4-.94.91l-.378 14.59c-.003.11.015.217.05.32l-.018.006c-.166.064-.287.11-.568.11-.28 0-.41-.046-.57-.11-.2-.08-.45-.175-.91-.175-.26 0-.48.21-.48.47s.21.47.47.47c.28 0 .4.05.57.11.2.08.45.18.91.18s.71-.09.91-.17c.16-.064.28-.11.57-.11.28 0 .4.046.57.11.2.08.45.176.91.176s.71-.097.91-.175c.17-.065.29-.11.57-.11.28 0 .4.045.56.11.2.08.45.175.91.175s.71-.093.91-.17c.16-.067.28-.11.57-.11.28 0 .4.043.56.11.2.08.45.173.91.173s.71-.095.91-.173c.167-.067.29-.11.57-.11.28 0 .4.043.57.11.2.08.45.173.91.173s.71-.095.91-.173c.166-.06.29-.11.57-.11.28 0 .4.05.57.11.2.08.45.18.91.18s.71-.09.91-.17c.163-.07.284-.11.564-.11zm-8.243-5.676l.127-.01h6.78l.126.01c.808 0 1.514.437 1.893 1.085H8.073c.38-.65 1.086-1.09 1.894-1.09zm17.394 1.085l.1-.09v6.28h-2.48c.02-.49.06-.95.12-1.37.04-.26.08-.5.12-.73l.04-.2c.14-.61.31-1.15.51-1.61.24-.55.5-1 .76-1.36.3-.41.59-.72.84-.94zm-1.95.93c-.15.25-.3.53-.44.84-.27-.24-.5-.52-.68-.85h1.12zM4.73 128.08h.963l.205 3.996.033.2c.22 1.437 1.48 2.54 2.99 2.54h7.86l.32.01c2.38.13 4.41 1.742 5.07 4.01l.02.05.26.74.04.082c.42.896 1.08 1.634 1.89 2.15v.008l-.22-.01c-.46 0-.71.1-.91.178-.16.063-.28.11-.57.11-.28 0-.4-.047-.56-.11-.2-.08-.46-.176-.91-.176l-.11.004.01-.13v-2.688l-.03-.224c-.22-1.894-1.76-3.393-3.69-3.558l-.21-.027h-7.2l-.15.013c-2.012.074-3.66 1.61-3.89 3.57l-.025.223v1.76H4.4l.33-12.71zm12.006 14.062c-.28 0-.4-.048-.568-.11-.2-.08-.452-.177-.91-.177-.46 0-.71.097-.91.175-.168.063-.288.11-.57.11-.28 0-.4-.047-.567-.11-.2-.08-.45-.176-.91-.176s-.71.096-.91.174c-.17.064-.29.11-.57.11-.28 0-.4-.046-.56-.11-.2-.08-.45-.175-.91-.175s-.71.096-.91.174c-.16.06-.28.11-.57.11l-.17-.01c.06-.123.1-.26.1-.405v-2.445l.01-.147H19.2l.006.147v2.445c0 .123.026.242.07.35l-.134-.05c-.2-.077-.45-.175-.91-.175-.45 0-.71.096-.91.174-.16.07-.28.11-.57.11zm-7.448-16.74h.21c-.033.114-.052.23-.052.355 0 .71.583 1.29 1.3 1.29h8.462c.316 0 .62-.114.86-.323.28-.246.44-.6.44-.968 0-.37-.16-.72-.44-.967-.24-.21-.544-.33-.86-.33h-4.832l.016-.18c0-.32-.14-.62-.38-.83-.205-.18-.47-.28-.74-.28H9.285c-.618 0-1.12.5-1.12 1.11s.503 1.11 1.12 1.11zm0-1.286h3.983l.12.044.06.13-.06.13-.11.044c-.26 0-.47.21-.47.466s.21.468.47.468h5.94c.11 0 .19.05.24.09.05.04.12.127.12.265s-.07.225-.12.265c-.05.04-.12.09-.23.09h-8.47c-.19 0-.35-.16-.35-.355 0-.193.16-.352.36-.352.26 0 .48-.21.48-.46s-.21-.46-.47-.46H9.29c-.1 0-.178-.08-.178-.17 0-.1.08-.17.177-.17zM31.46 147.73c-.408 0-.59-.07-.82-.16l-.213-.08c.86-.445 1.093-.958 1.13-1.055.056-.144.036-.306-.05-.43-.09-.13-.235-.205-.39-.205H22.3c-.155 0-.3.076-.388.203-.088.125-.108.287-.052.43.045.117.364.815 1.676 1.296h-.016c-.407 0-.59-.07-.82-.16-.273-.11-.58-.23-1.165-.23-.585 0-.893.12-1.164.22-.23.09-.41.16-.82.16-.4 0-.59-.07-.82-.16-.27-.11-.58-.23-1.16-.23-.26 0-.47.21-.47.47s.21.47.47.47c.41 0 .59.07.82.16.27.1.58.22 1.17.22s.9-.12 1.17-.23c.23-.09.41-.16.82-.16s.59.07.82.16c.27.1.58.22 1.17.22s.89-.12 1.16-.23c.23-.09.42-.16.82-.16s.59.07.82.16c.28.1.58.22 1.17.22s.89-.12 1.17-.23c.23-.09.42-.16.82-.16s.59.07.82.16c.28.102.58.22 1.17.22.26 0 .48-.21.48-.464s-.21-.466-.47-.466zm-1.625-.994c-.586.27-1.555.52-3.125.52s-2.54-.25-3.126-.52h6.25z" fill="#206FAC"/><path d="M18.21 102.8c.28 0 .402.047.568.112.202.078.452.175.91.175.46 0 .71-.097.912-.175.167-.065.287-.11.568-.11.28 0 .4.045.568.11.2.078.452.175.91.175s.71-.097.91-.175c.168-.065.288-.11.57-.11h.048c-.09.628-.142 1.317-.142 2.072 0 .26.21.468.47.468h3.43c.26 0 .47-.21.47-.468v-1.79l.158.003c.46 0 .71-.097.91-.175.168-.065.288-.11.57-.11.28 0 .4.045.567.11.202.078.453.175.91.175.262 0 .473-.21.473-.468s-.21-.47-.472-.47c-.28 0-.402-.05-.568-.11-.2-.08-.453-.18-.91-.18-.46 0-.71.09-.912.17-.166.06-.287.11-.57.11l-.156-.01v-3h1.683c.26 0 .472-.21.472-.47s-.21-.47-.472-.47h-1.683v-2.94c0-.26-.21-.47-.47-.47-.262 0-.473.21-.473.47v1.71c-.28.16-.83.54-1.4 1.23h-2.14c-.9-2.92-3.52-5-6.59-5.23l-.21-.03h-6.38v-.68h2.1c.26 0 .47-.21.47-.47v-1.74h5.38v.12c0 .26.21.47.47.47h2.12v1.27c0 .25.21.46.47.46h1.79c.26 0 .47-.21.47-.47v-.66h2.4c.26 0 .47-.21.47-.47v-1.61h3.3c.26 0 .47-.21.47-.47s-.21-.467-.47-.467h-3.77c-.26 0-.47.21-.47.47v1.61h-2.4c-.26 0-.47.21-.47.47v.656h-.85v-1.27c0-.257-.21-.467-.48-.467h-2.12v-.13c0-.26-.21-.47-.47-.47h-6.32c-.26 0-.48.21-.48.47V91.3h-2.1c-.26 0-.47.21-.47.47v1.15H8.9c-.624 0-1.13-.5-1.13-1.12l-.02-.18-.233-4.54c-.026-.5-.44-.89-.943-.89H3.8c-.51 0-.93.4-.94.91l-.378 14.59c-.003.11.015.22.05.32l-.018.01c-.166.06-.287.11-.568.11-.28 0-.41-.05-.57-.11-.2-.08-.45-.18-.91-.18-.26 0-.48.21-.48.47s.21.47.47.47c.28 0 .4.04.57.11.2.08.45.17.91.17s.71-.1.91-.18c.16-.062.28-.11.57-.11.28 0 .4.048.57.11.2.08.45.178.91.178s.71-.097.91-.175c.17-.067.29-.11.57-.11.28 0 .4.043.56.11.2.08.45.173.91.173s.71-.098.91-.176c.16-.06.28-.11.57-.11.28 0 .4.05.56.11.2.08.45.18.91.18s.71-.1.91-.18c.167-.06.29-.11.57-.11.28 0 .4.05.57.11.2.08.45.18.91.18s.71-.1.91-.18c.166-.06.29-.11.57-.11.28 0 .4.05.57.11.2.08.45.18.91.18s.71-.096.91-.174c.163-.07.284-.11.564-.11zm-8.243-5.676l.127-.01h6.78l.126.01c.808 0 1.514.437 1.893 1.085H8.073c.38-.65 1.086-1.09 1.894-1.09zM27.36 98.21l.1-.085v6.28h-2.48c.016-.49.055-.944.112-1.37.033-.253.075-.495.12-.727l.042-.195c.135-.61.31-1.144.508-1.607.234-.546.496-.995.76-1.36.293-.41.587-.716.838-.937zm-1.956.935c-.153.255-.3.535-.44.843-.27-.238-.5-.522-.68-.843h1.12zM4.726 88.088h.963l.2 3.996.03.2c.22 1.437 1.47 2.54 2.98 2.54h7.85l.31.008c2.37.13 4.41 1.743 5.06 4.01l.01.05.26.74.03.083c.42.896 1.08 1.634 1.89 2.15v.008l-.22-.01c-.46 0-.71.098-.91.176-.17.06-.29.11-.57.11-.28 0-.4-.05-.57-.11-.2-.08-.46-.18-.91-.18h-.11l.01-.13v-2.68l-.03-.23c-.22-1.9-1.77-3.4-3.7-3.56l-.21-.03H9.96l-.153.01c-2.018.07-3.665 1.61-3.894 3.57l-.03.22v1.75h-1.49l.33-12.72zm12.006 14.062c-.28 0-.4-.047-.568-.11-.2-.08-.452-.176-.91-.176-.46 0-.71.097-.91.175-.168.06-.288.11-.57.11-.28 0-.4-.05-.567-.11-.2-.08-.452-.18-.91-.18-.46 0-.71.09-.91.17-.168.06-.288.11-.57.11-.28 0-.4-.05-.566-.11-.2-.08-.45-.18-.91-.18s-.71.09-.91.17c-.16.06-.28.11-.57.11l-.17-.01c.06-.13.1-.26.1-.41v-2.44l.01-.15h11.39l.01.15v2.44c0 .12.03.24.07.35l-.13-.05c-.2-.08-.45-.18-.91-.18-.45 0-.71.09-.91.17-.16.06-.28.11-.57.11zM9.284 85.412h.21c-.033.113-.052.23-.052.354 0 .71.583 1.29 1.3 1.29h8.462c.316 0 .62-.114.86-.323.28-.245.44-.598.44-.967 0-.37-.16-.72-.44-.966-.24-.21-.544-.323-.86-.323h-4.832l.016-.176c0-.31-.14-.62-.38-.83-.205-.18-.468-.28-.74-.28H9.285c-.618 0-1.12.5-1.12 1.11s.503 1.12 1.12 1.12zm0-1.287h3.983l.116.044.06.13-.06.13-.116.04h-.002c-.26 0-.47.21-.47.47s.21.47.47.47h5.94c.11 0 .187.05.234.09.04.04.12.12.12.26s-.08.22-.12.26c-.05.04-.13.09-.24.09h-8.46c-.2 0-.36-.16-.36-.36 0-.2.16-.36.35-.36.26 0 .47-.21.47-.47s-.21-.47-.48-.47H9.28c-.097 0-.176-.08-.176-.18 0-.1.08-.18.177-.18zm22.172 23.612c-.407 0-.59-.07-.82-.16l-.212-.08c.86-.445 1.093-.958 1.13-1.055.056-.144.036-.306-.05-.432-.09-.127-.235-.203-.39-.203H22.3c-.155 0-.3.076-.388.203-.088.126-.108.288-.052.432.045.116.364.814 1.676 1.295h-.016c-.407 0-.59-.07-.82-.16-.273-.105-.58-.224-1.165-.224-.585 0-.893.12-1.164.224-.23.09-.41.16-.82.16-.4 0-.59-.07-.82-.16-.27-.105-.58-.224-1.16-.224-.26 0-.47.21-.47.468s.21.47.47.47c.41 0 .59.07.82.16.27.11.58.23 1.17.23s.9-.12 1.17-.22c.23-.09.41-.16.82-.16s.59.07.82.16c.27.11.58.23 1.17.23s.89-.12 1.16-.22c.23-.09.42-.16.82-.16s.59.07.82.16c.28.11.58.23 1.17.23s.89-.12 1.17-.22c.23-.09.42-.16.82-.16s.59.07.82.16c.28.1.58.22 1.17.22.26 0 .48-.21.48-.47s-.21-.46-.47-.46zm-1.624-.994c-.586.27-1.555.52-3.125.52s-2.538-.25-3.125-.52h6.25z" fill="#fff"/><path d="M18.21 62.8c.28 0 .402.047.568.112.202.078.452.175.91.175.46 0 .71-.097.912-.175.167-.065.287-.11.568-.11.28 0 .4.045.568.11.2.078.452.175.91.175s.71-.097.91-.175c.168-.065.288-.11.57-.11h.048c-.09.628-.142 1.317-.142 2.072 0 .26.21.468.47.468h3.43c.26 0 .47-.21.47-.468v-1.79l.158.003c.46 0 .71-.097.91-.175.168-.065.288-.11.57-.11.28 0 .4.045.567.11.202.078.453.175.91.175.262 0 .473-.21.473-.468s-.21-.47-.472-.47c-.28 0-.402-.05-.568-.11-.2-.08-.453-.18-.91-.18-.46 0-.71.09-.912.17-.166.06-.287.11-.57.11l-.156-.01v-3h1.683c.26 0 .472-.21.472-.47s-.21-.47-.472-.47h-1.683v-2.94c0-.26-.21-.47-.47-.47-.262 0-.473.21-.473.47v1.71c-.28.16-.83.54-1.4 1.23h-2.14c-.9-2.92-3.52-5-6.59-5.23l-.21-.03h-6.38v-.68h2.1c.26 0 .47-.21.47-.47v-1.74h5.38v.12c0 .26.21.47.47.47h2.12v1.27c0 .25.21.46.47.46h1.79c.26 0 .47-.21.47-.47v-.66h2.4c.26 0 .47-.21.47-.47v-1.61h3.3c.26 0 .47-.21.47-.47s-.21-.467-.47-.467h-3.77c-.26 0-.47.21-.47.47v1.61h-2.4c-.26 0-.47.21-.47.47v.656h-.85v-1.27c0-.257-.21-.467-.48-.467h-2.12v-.13c0-.26-.21-.47-.47-.47h-6.32c-.26 0-.48.21-.48.47V51.3h-2.1c-.26 0-.47.21-.47.47v1.15H8.9c-.624 0-1.13-.5-1.13-1.12l-.02-.18-.233-4.54c-.026-.5-.44-.89-.943-.89H3.8c-.51 0-.93.4-.94.91l-.374 14.6c-.003.11.015.22.05.32l-.018.006c-.166.06-.287.11-.568.11-.28 0-.41-.05-.57-.11-.2-.08-.45-.18-.91-.18-.26 0-.48.21-.48.47s.21.47.47.47c.28 0 .4.04.57.11.2.08.45.17.91.17s.71-.1.91-.18c.16-.064.28-.11.57-.11.28 0 .4.046.57.11.2.08.45.176.91.176s.71-.097.91-.175c.17-.07.29-.11.57-.11.28 0 .4.04.56.11.2.08.45.17.91.17s.71-.1.91-.18c.16-.066.28-.11.57-.11.28 0 .4.044.56.11.2.08.45.174.91.174s.71-.1.91-.17c.164-.06.29-.11.57-.11.28 0 .4.05.57.11.2.08.45.18.91.18s.71-.1.91-.18c.163-.06.29-.11.57-.11.28 0 .4.05.57.11.2.08.45.18.91.18s.71-.09.91-.17c.16-.06.28-.11.56-.11zm-8.243-5.676l.127-.01h6.78l.126.01c.808 0 1.514.437 1.893 1.085H8.073c.38-.65 1.086-1.09 1.894-1.09zM27.36 58.21l.1-.085v6.28h-2.48c.016-.49.055-.944.112-1.37.033-.253.075-.495.12-.727l.042-.195c.135-.61.31-1.144.508-1.607.234-.546.496-.995.76-1.36.293-.41.587-.716.838-.937zm-1.956.935c-.153.255-.3.535-.44.843-.27-.238-.5-.522-.68-.843h1.12zM4.726 48.088h.963l.2 3.996.03.2c.22 1.437 1.47 2.54 2.98 2.54h7.85l.31.008c2.37.13 4.41 1.743 5.06 4.01l.01.05.26.74.03.083c.42.896 1.08 1.634 1.89 2.15v.008l-.22-.01c-.46 0-.71.098-.91.176-.17.06-.29.11-.57.11-.28 0-.4-.05-.57-.11-.2-.08-.46-.18-.91-.18h-.11l.01-.13v-2.68l-.03-.23c-.22-1.9-1.77-3.4-3.7-3.56l-.21-.03H9.96l-.153.01c-2.018.07-3.665 1.61-3.894 3.57l-.03.22v1.76h-1.49l.33-12.72zM16.732 62.15c-.28 0-.4-.047-.568-.11-.2-.08-.452-.176-.91-.176-.46 0-.71.097-.91.175-.168.06-.288.11-.57.11-.28 0-.4-.05-.567-.11-.2-.08-.452-.18-.91-.18-.46 0-.71.09-.91.17-.168.06-.288.11-.57.11-.28 0-.4-.05-.566-.11-.2-.08-.45-.18-.91-.18s-.71.09-.91.17c-.16.06-.28.11-.57.11l-.17-.01c.06-.13.1-.26.1-.41v-2.44l.01-.15h11.39l.01.15v2.44c0 .12.03.24.07.35l-.13-.05c-.2-.08-.45-.18-.91-.18-.45 0-.71.09-.91.17-.16.06-.28.11-.57.11zM9.284 45.412h.21c-.033.113-.052.23-.052.354 0 .71.583 1.29 1.3 1.29h8.462c.316 0 .62-.114.86-.323.28-.245.44-.598.44-.967 0-.37-.16-.72-.44-.966-.24-.21-.544-.323-.86-.323h-4.832l.016-.176c0-.31-.14-.62-.38-.83-.205-.18-.468-.28-.74-.28H9.285c-.618 0-1.12.5-1.12 1.11s.503 1.12 1.12 1.12zm0-1.287h3.983l.116.044.06.13-.06.13-.116.04h-.002c-.26 0-.47.21-.47.47s.21.47.47.47h5.94c.11 0 .187.05.234.09.04.04.12.12.12.26s-.08.22-.12.26c-.05.04-.13.09-.24.09h-8.46c-.2 0-.36-.16-.36-.36 0-.2.16-.36.35-.36.26 0 .47-.21.47-.47s-.21-.47-.48-.47H9.28c-.097 0-.176-.08-.176-.18 0-.1.08-.18.177-.18zm22.172 23.612c-.407 0-.59-.07-.82-.16l-.212-.08c.86-.445 1.093-.958 1.13-1.055.056-.144.036-.306-.05-.432-.09-.127-.235-.203-.39-.203H22.3c-.155 0-.3.076-.388.203-.088.126-.108.288-.052.432.045.116.364.814 1.676 1.295h-.016c-.407 0-.59-.07-.82-.16-.273-.105-.58-.224-1.165-.224-.585 0-.893.12-1.164.224-.23.09-.41.16-.82.16-.4 0-.59-.07-.82-.16-.27-.105-.58-.224-1.16-.224-.26 0-.47.21-.47.468s.21.47.47.47c.41 0 .59.07.82.16.27.11.58.23 1.17.23s.9-.12 1.17-.22c.23-.09.41-.16.82-.16s.59.07.82.16c.27.11.58.23 1.17.23s.89-.12 1.16-.22c.23-.09.42-.16.82-.16s.59.07.82.16c.28.11.58.23 1.17.23s.89-.12 1.17-.22c.23-.09.42-.16.82-.16s.59.07.82.16c.28.1.58.22 1.17.22.26 0 .48-.21.48-.47s-.21-.46-.47-.46zm-1.624-.994c-.586.27-1.555.52-3.125.52s-2.538-.25-3.125-.52h6.25z" fill="#67737B"/><path d="M18.21 22.8c.28 0 .402.047.568.112.202.078.452.175.91.175.46 0 .71-.097.912-.175.167-.065.287-.11.568-.11.28 0 .4.045.568.11.2.078.452.175.91.175s.71-.097.91-.175c.168-.065.288-.11.57-.11h.048c-.09.628-.142 1.317-.142 2.072 0 .26.21.468.47.468h3.43c.26 0 .47-.21.47-.468v-1.79l.158.003c.46 0 .71-.097.91-.175.168-.065.288-.11.57-.11.28 0 .4.045.567.11.202.078.453.175.91.175.262 0 .473-.21.473-.468s-.21-.47-.472-.47c-.28 0-.402-.05-.568-.11-.2-.08-.453-.18-.91-.18-.46 0-.71.09-.912.17-.166.06-.287.11-.57.11l-.156-.01v-3h1.683c.26 0 .472-.21.472-.47s-.21-.47-.472-.47h-1.683v-2.94c0-.26-.21-.47-.47-.47-.262 0-.473.21-.473.47v1.71c-.28.16-.83.54-1.4 1.23h-2.14c-.9-2.92-3.52-5-6.59-5.23l-.21-.03h-6.38v-.68h2.1c.26 0 .47-.21.47-.47v-1.74h5.38v.12c0 .26.21.47.47.47h2.12v1.27c0 .25.21.46.47.46h1.79c.26 0 .47-.21.47-.47v-.66h2.4c.26 0 .47-.21.47-.47v-1.6h3.3c.26 0 .47-.21.47-.47s-.21-.468-.47-.468h-3.77c-.26 0-.47.21-.47.466v1.61h-2.4c-.26 0-.47.21-.47.47v.66h-.85v-1.28c0-.255-.21-.465-.48-.465h-2.12v-.12c0-.26-.21-.47-.47-.47h-6.32c-.26 0-.48.21-.48.47v1.75h-2.1c-.26 0-.47.21-.47.47v1.15H8.9c-.624 0-1.13-.5-1.13-1.12l-.02-.19-.233-4.54c-.026-.5-.44-.89-.943-.89H3.8c-.51 0-.93.403-.94.91L2.48 21.7c-.003.11.015.22.05.32l-.018.008c-.166.06-.287.11-.568.11-.28 0-.41-.05-.57-.11-.2-.08-.45-.18-.91-.18-.26 0-.48.21-.48.47s.21.47.47.47c.28 0 .4.04.57.11.2.08.45.17.91.17s.71-.1.91-.18c.16-.07.28-.11.57-.11.28 0 .4.04.57.11.2.08.45.17.91.17s.71-.1.91-.18c.17-.07.29-.11.57-.11.28 0 .4.04.56.11.2.08.45.17.91.17s.71-.1.91-.18c.16-.07.28-.11.57-.11.28 0 .4.04.56.11.2.08.45.17.91.17s.71-.1.91-.18c.167-.063.29-.11.57-.11.28 0 .4.047.57.11.2.08.45.177.91.177s.71-.097.91-.175c.166-.06.29-.11.57-.11.28 0 .4.05.57.11.2.08.45.18.91.18s.71-.095.91-.173c.163-.066.284-.11.564-.11zm-8.243-5.676l.127-.01h6.78l.126.01c.808 0 1.514.437 1.893 1.085H8.073c.38-.65 1.086-1.09 1.894-1.09zM27.36 18.21l.1-.085v6.28h-2.48c.016-.49.055-.944.112-1.37.033-.253.075-.495.12-.727l.042-.195c.135-.61.31-1.144.508-1.607.234-.546.496-.995.76-1.36.293-.41.587-.716.838-.937zm-1.956.935c-.153.255-.3.535-.44.843-.27-.238-.5-.522-.68-.843h1.12zM4.726 8.088h.963l.2 3.996.03.2c.22 1.437 1.47 2.54 2.98 2.54h7.85l.31.008c2.37.13 4.41 1.743 5.06 4.01l.01.05.26.74.03.083c.42.896 1.08 1.634 1.89 2.15v.008l-.22-.01c-.46 0-.71.098-.91.176-.17.06-.29.11-.57.11-.28 0-.4-.05-.57-.11-.2-.08-.46-.18-.91-.18h-.11l.01-.13v-2.68l-.03-.23c-.22-1.9-1.77-3.4-3.7-3.56l-.21-.03H9.96l-.153.01c-2.018.07-3.665 1.61-3.894 3.57l-.03.22v1.76h-1.49l.33-12.72zM16.732 22.15c-.28 0-.4-.047-.568-.11-.2-.08-.452-.176-.91-.176-.46 0-.71.097-.91.175-.168.06-.288.11-.57.11-.28 0-.4-.05-.567-.11-.2-.08-.452-.18-.91-.18-.46 0-.71.09-.91.17-.168.06-.288.11-.57.11-.28 0-.4-.05-.566-.11-.2-.08-.45-.18-.91-.18s-.71.09-.91.17c-.16.06-.28.11-.57.11l-.17-.01c.06-.13.1-.26.1-.41v-2.44l.01-.15h11.39l.01.15v2.44c0 .12.03.24.07.35l-.13-.05c-.2-.08-.45-.18-.91-.18-.45 0-.71.09-.91.17-.16.06-.28.11-.57.11zM9.284 5.412h.21c-.033.113-.052.23-.052.354 0 .71.583 1.29 1.3 1.29h8.462c.316 0 .62-.114.86-.323.28-.245.44-.598.44-.967 0-.37-.16-.72-.44-.966-.24-.21-.544-.323-.86-.323h-4.832l.016-.176c0-.31-.14-.62-.38-.83-.205-.18-.468-.28-.74-.28H9.285c-.618 0-1.12.5-1.12 1.11s.503 1.12 1.12 1.12zm0-1.287h3.983l.116.044.06.13-.06.13-.116.04h-.002c-.26 0-.47.21-.47.47s.21.47.47.47h5.94c.11 0 .187.05.234.09.04.04.12.12.12.26s-.08.22-.12.26c-.05.04-.13.09-.24.09h-8.46c-.2 0-.36-.16-.36-.36 0-.2.16-.36.35-.36.26 0 .47-.21.47-.47s-.21-.47-.48-.47H9.28c-.097 0-.176-.08-.176-.18 0-.1.08-.18.177-.18zm22.172 23.612c-.407 0-.59-.07-.82-.16l-.212-.08c.86-.445 1.093-.958 1.13-1.055.056-.144.036-.306-.05-.432-.09-.127-.235-.203-.39-.203H22.3c-.155 0-.3.076-.388.203-.088.126-.108.288-.052.432.045.116.364.814 1.676 1.295h-.016c-.407 0-.59-.07-.82-.16-.273-.105-.58-.224-1.165-.224-.585 0-.893.12-1.164.224-.23.09-.41.16-.82.16-.4 0-.59-.07-.82-.16-.27-.105-.58-.224-1.16-.224-.26 0-.47.21-.47.468s.21.47.47.47c.41 0 .59.07.82.16.27.11.58.23 1.17.23s.9-.12 1.17-.22c.23-.09.41-.16.82-.16s.59.07.82.16c.27.11.58.23 1.17.23s.89-.12 1.16-.22c.23-.09.42-.16.82-.16s.59.07.82.16c.28.11.58.23 1.17.23s.89-.12 1.17-.22c.23-.09.42-.16.82-.16s.59.07.82.16c.28.1.58.22 1.17.22.26 0 .48-.21.48-.47s-.21-.46-.47-.46zm-1.624-.994c-.586.27-1.555.52-3.125.52s-2.538-.25-3.125-.52h6.25z" fill="#373D43"/></g></svg>