<svg width="32" height="232" viewBox="0 0 32 232" xmlns="http://www.w3.org/2000/svg"><g fill="none"><path d="M14.977 122.893c.363-.335.883-.335 1.244-.03l.02.043c.09.196.26.32.46.32h.07c.2 0 .38-.124.46-.32l.02-.042c.36-.306.88-.306 1.25.03.22.197.53.166.71-.07.18-.234.16-.584-.06-.78-.7-.645-1.68-.677-2.4-.146-.72-.53-1.7-.5-2.4.145-.21.197-.24.547-.06.782s.5.266.71.068zm-1.487 2.578c.158-.14.378-.15.543-.04.086.19.26.31.448.31h.05c.19 0 .36-.11.45-.3.17-.11.39-.1.55.04.22.2.53.17.71-.07.18-.23.15-.58-.06-.78-.48-.44-1.14-.49-1.66-.17-.52-.32-1.18-.27-1.66.18-.21.2-.24.55-.06.79s.5.27.71.07zm17.464 22.87H24.66l.27-1.54c.54 0 .837-.16 1.077-.29.198-.1.34-.18.67-.18s.472.08.67.19c.245.14.55.3 1.113.3s.867-.16 1.113-.29c.198-.1.34-.18.67-.18.28 0 .505-.25.505-.55 0-.3-.226-.55-.505-.55-.562 0-.867.17-1.112.3-.19.11-.34.18-.67.18s-.47-.07-.67-.18c-.24-.13-.55-.3-1.11-.3s-.87.17-1.11.3c-.14.08-.26.14-.43.17l.44-2.51c.09.03.18.04.26.01l.36-.09.32.22c.12.08.26.11.39.07l.36-.09.31.22c.12.08.26.11.39.07l.36-.09.31.22c.12.08.26.11.39.07l.36-.09.31.22c.08.06.18.09.27.09l.12-.02.49-.12h.06c.1 0 .2-.03.29-.1.23-.173.28-.52.13-.77l-4.46-7.07c-.07-.13-.19-.21-.33-.23-.13-.03-.27.01-.38.09l-6.31 5.06c-.22.18-.27.53-.11.78.07.11.18.18.29.21l.43.3c.12.08.26.108.39.07l.36-.09.31.22c.11.08.25.106.39.07l.36-.094.32.22c.11.08.25.105.385.07l.36-.093.316.22c.115.08.255.11.39.08l.36-.092.31.22.19.08-.44 2.48c-.23-.12-.53-.25-1.026-.25-.56 0-.87.167-1.11.3-.2.11-.34.19-.67.19s-.47-.077-.67-.18c-.247-.13-.55-.297-1.115-.297s-.87.166-1.115.3c-.193.106-.34.183-.67.183-.324 0-.47-.08-.67-.182-.24-.13-.55-.29-1.11-.29s-.864.16-1.11.29c-.2.103-.34.18-.67.18s-.47-.08-.67-.184c-.244-.13-.55-.295-1.11-.295s-.87.166-1.11.298c-.2.104-.34.18-.67.18s-.47-.076-.67-.18c-.247-.13-.55-.3-1.11-.3-.42 0-.697.09-.91.194.26-.93.67-1.875 1.31-2.66 1.03-1.24 2.494-1.864 4.364-1.864 2.304 0 4.43-.994 5.98-2.797 1.306-1.51 2.11-3.483 2.33-5.642.445.48.735 1.09.83 1.76.11.785-.063 1.564-.49 2.194-.165.246-.12.594.105.778.09.076.19.11.3.11.15 0 .3-.075.4-.222.59-.87.83-1.945.677-3.03-.103-.743-.39-1.43-.812-2.01 1.206-.01 2.365.79 2.818 2.08.08.22.27.357.47.357l.19-.04c.26-.11.39-.43.29-.72-.604-1.71-2.14-2.78-3.74-2.78.795-.812 2.02-1.07 3.124-.542.26.12.56-.01.67-.29.11-.28-.01-.61-.26-.73-1.33-.634-2.8-.41-3.87.44-.168-1.44-1.027-2.774-2.36-3.41-.254-.12-.55.01-.66.29-.11.28.01.61.265.73 1.1.527 1.77 1.69 1.78 2.885-1.094-1.29-2.855-1.79-4.4-1.105-.26.116-.38.44-.28.72.1.28.4.42.655.307 1.16-.513 2.482-.132 3.3.847-.678.055-1.32.3-1.89.726-.82.62-1.37 1.55-1.54 2.62-.05.3.13.59.403.643l.09.01c.24 0 .45-.19.492-.46.13-.774.52-1.446 1.12-1.895.4-.3.86-.48 1.35-.53-.37 4.11-3.22 6.81-7.32 6.81-3.22 0-5.7 1.824-7.17 5.282-.153.37-.29.73-.41 1.09-.19-.07-.43-.13-.75-.13h-.08l.285-4.85c.46-.154.97-.233 1.533-.233 3.277 0 5.23-4.558 5.957-6.63.64.09 1.22.43 1.62.96.39.53.58 1.19.51 1.86-.03.31.173.58.45.61l.05.004c.256 0 .475-.216.5-.5.094-.97-.17-1.926-.74-2.68-.365-.49-.83-.86-1.353-1.097.876-.526 2-.47 2.82.237.22.186.535.144.71-.1.17-.24.13-.59-.09-.78-1.137-.98-2.695-1.06-3.91-.335.09-.26.214-.512.382-.742.41-.57 1-.93 1.67-1.02.275-.04.47-.32.435-.62-.04-.31-.29-.52-.57-.48-.923.13-1.75.63-2.324 1.42-.18.24-.32.5-.44.77-.73-.98-1.92-1.53-3.173-1.354-.273.04-.47.317-.432.62.036.3.287.52.565.48.97-.14 1.89.33 2.39 1.13-1.34-.36-2.83.154-3.703 1.42-.17.24-.13.59.094.774.09.077.2.11.3.11.15 0 .3-.07.4-.213.676-.97 1.85-1.33 2.87-.955-.67 1.68-2.38 5.18-4.99 5.18-.5 0-.973.06-1.422.17l.59-10.06c.51.25.94.66 1.24 1.18.382.67.51 1.467.34 2.23-.067.3.1.6.372.67l.112.017c.22 0 .43-.17.49-.428.22-1.06.05-2.15-.47-3.08-.37-.637-.88-1.146-1.48-1.49 1.1-.54 2.45-.31 3.33.67.1.11.23.17.36.17.13 0 .26-.05.357-.16.194-.216.2-.567 0-.786-1.17-1.31-2.97-1.62-4.44-.92.44-1.098 1.47-1.87 2.67-1.87.28 0 .51-.25.51-.556 0-.3-.225-.55-.5-.55-1.45 0-2.72.85-3.39 2.1-.677-1.25-1.94-2.1-3.396-2.1-.273 0-.5.25-.5.554 0 .31.228.555.506.555 1.2 0 2.234.77 2.67 1.87-1.47-.71-3.27-.396-4.44.91-.2.22-.2.57 0 .784.1.11.227.16.356.16.13 0 .26-.05.36-.16.88-.98 2.23-1.21 3.33-.67-.6.345-1.11.854-1.478 1.49-.53.93-.7 2.02-.47 3.08.05.252.26.424.49.424l.11-.016c.27-.07.44-.37.372-.67-.165-.764-.04-1.555.342-2.23.29-.5.695-.89 1.18-1.15L4.05 139.1c-.43.283-.82.633-1.18 1.054-1.14 1.34-1.877 3.33-2.2 5.91-.12.973-.156 1.84-.162 2.463-.29.195-.486.547-.486.95 0 .613.45 1.11 1.008 1.11h29.93c.558 0 1.01-.497 1.01-1.11 0-.614-.452-1.11-1.01-1.11zm-24.37-1.14c-.044.43-.064.82-.072 1.15h-.147c.052-.33.123-.72.22-1.14zm22.754-4.66l-.36.1-.312-.22c-.115-.08-.254-.1-.386-.07l-.36.1-.312-.22c-.115-.08-.254-.1-.387-.07l-.36.1-.31-.22c-.11-.08-.25-.1-.38-.07l-.36.1-.31-.22c-.11-.08-.25-.1-.38-.07l-.36.09-.31-.22c-.11-.08-.25-.1-.38-.07l-.36.09-.31-.22c-.11-.08-.25-.1-.39-.07l-.36.1-.31-.21c-.11-.08-.25-.11-.38-.07l-.36.09-.31-.22-.16-.07 4.93-3.97 3.49 5.53-.18.01zM8.186 146.5c.198-.106.34-.183.67-.183.328 0 .47.077.67.183.244.132.55.296 1.11.296s.868-.164 1.113-.297c.19-.11.34-.19.67-.19s.47.07.67.18c.24.13.55.29 1.11.29s.86-.17 1.11-.3c.2-.11.34-.19.67-.19s.47.07.67.18c.24.13.55.29 1.11.29s.87-.17 1.11-.3c.19-.11.34-.19.67-.19s.47.07.67.18c.24.13.55.29 1.11.29s.86-.17 1.11-.3c.19-.11.34-.19.67-.19s.47.07.67.18l.16.08-.31 1.75H7.52c.014-.45.05-1.01.143-1.61.22-.06.38-.15.52-.228zm-2.894-.183c.197 0 .326.027.44.073-.195.75-.317 1.423-.392 1.945h-.31l.118-2.012.143-.006zm-2.616 2.018c-.053-.47-.103-1.078-.11-1.748.166.082.37.16.652.193l-.165 1.554h-.376zm1.06-6.69l.032-.04-.433 4.072c-.21-.023-.336-.09-.494-.174l-.24-.123c.1-1.324.4-2.72 1.14-3.736zm-2.228 6.69c.006-.345.023-.76.058-1.217.018.452.052.864.09 1.217h-.15z" fill="#206FAC"/><path d="M14.977 82.893c.363-.335.883-.335 1.244-.03l.02.043c.09.196.26.32.46.32h.07c.2 0 .38-.124.46-.32l.02-.042c.36-.306.88-.306 1.25.03.22.197.53.166.71-.07.18-.234.16-.584-.06-.78-.7-.645-1.68-.677-2.4-.146-.72-.53-1.7-.5-2.4.145-.21.197-.24.547-.06.782s.5.266.71.068zM13.49 85.47c.158-.145.378-.155.543-.04.086.185.26.302.448.302h.05c.19 0 .36-.117.45-.3.17-.116.39-.107.55.04.22.196.53.165.71-.07.18-.235.15-.585-.06-.782-.48-.444-1.14-.49-1.66-.174-.52-.318-1.18-.27-1.66.174-.21.197-.24.548-.06.782.18.235.5.266.71.07zm17.464 22.865H24.66l.27-1.54c.54-.006.837-.165 1.077-.295.198-.106.34-.183.67-.183s.472.077.67.183c.245.133.55.297 1.113.297s.867-.164 1.113-.297c.198-.106.34-.183.67-.183.28 0 .505-.25.505-.556 0-.3-.226-.55-.505-.55-.562 0-.867.17-1.112.3-.19.11-.34.19-.67.19s-.47-.07-.67-.18c-.24-.13-.55-.29-1.11-.29s-.87.17-1.11.3c-.14.08-.26.14-.43.17l.44-2.51c.09.03.18.04.26.01l.36-.09.32.22c.12.08.26.11.39.07l.36-.09.31.22c.12.08.26.11.39.07l.36-.09.31.22c.12.08.26.11.39.07l.36-.09.31.22c.08.06.18.09.27.09l.12-.01.49-.13.06.01c.1 0 .2-.03.29-.09.23-.173.28-.52.13-.77l-4.47-7.1c-.07-.122-.19-.205-.33-.23-.13-.025-.27.01-.38.098l-6.31 5.055c-.22.18-.27.53-.11.778.08.115.18.185.29.215l.43.3c.12.08.26.107.39.07l.36-.09.32.21c.11.08.25.1.384.07l.36-.1.32.22c.12.08.26.1.39.07l.36-.1.32.22c.12.08.26.107.39.07l.36-.093.31.21.19.08-.43 2.48c-.23-.12-.53-.25-1.026-.25-.57 0-.87.164-1.12.296-.2.103-.34.18-.67.18s-.47-.078-.67-.18c-.244-.13-.55-.3-1.112-.3-.564 0-.87.163-1.114.295-.194.1-.34.18-.67.18-.325 0-.47-.08-.67-.187-.24-.13-.55-.295-1.11-.295s-.865.166-1.11.3c-.194.104-.34.18-.67.18-.324 0-.47-.077-.67-.18-.24-.135-.55-.3-1.11-.3s-.864.166-1.11.3c-.2.104-.34.18-.67.18s-.47-.076-.67-.182c-.244-.134-.55-.3-1.11-.3-.416 0-.69.09-.91.19.26-.93.67-1.876 1.316-2.66 1.03-1.24 2.496-1.865 4.366-1.865 2.3 0 4.428-.99 5.98-2.798 1.3-1.51 2.11-3.484 2.328-5.643.447.48.737 1.09.83 1.76.11.782-.06 1.56-.49 2.19-.163.245-.12.593.107.777.09.075.197.11.3.11.156 0 .31-.076.407-.22.59-.87.83-1.95.678-3.03-.11-.747-.39-1.435-.817-2.015 1.203-.01 2.362.79 2.82 2.08.08.22.27.356.47.356l.18-.04c.26-.11.385-.43.285-.72-.6-1.71-2.14-2.78-3.74-2.78.797-.82 2.024-1.07 3.126-.55.26.12.556-.01.666-.29.11-.28-.005-.61-.26-.73-1.33-.63-2.8-.41-3.87.44-.164-1.44-1.02-2.78-2.355-3.41-.254-.12-.55.01-.66.29-.11.28.01.61.26.73 1.1.53 1.77 1.69 1.78 2.887-1.1-1.29-2.86-1.79-4.407-1.1-.256.11-.38.434-.276.72.105.284.4.42.657.31 1.16-.517 2.484-.136 3.3.843-.68.05-1.325.294-1.89.72-.82.62-1.37 1.547-1.54 2.616-.05.3.13.59.404.64l.09.01c.24 0 .45-.19.5-.46.13-.77.53-1.44 1.12-1.89.41-.305.87-.48 1.35-.53-.36 4.11-3.21 6.81-7.32 6.81-3.22 0-5.7 1.825-7.165 5.283-.15.37-.29.73-.41 1.09-.19-.07-.43-.13-.75-.13H5.3l.29-4.85c.46-.156.97-.235 1.54-.235 3.272 0 5.23-4.55 5.952-6.62.64.09 1.22.425 1.62.962.392.522.58 1.182.512 1.86-.03.3.17.573.45.61h.05c.258 0 .477-.21.5-.5.096-.97-.17-1.92-.74-2.68-.363-.488-.83-.86-1.35-1.09.876-.528 2-.47 2.82.24.22.183.535.14.71-.1.17-.24.13-.59-.09-.778-1.137-.98-2.695-1.065-3.913-.34.087-.27.215-.52.38-.75.41-.56 1.007-.925 1.67-1.02.278-.04.47-.32.438-.62-.035-.305-.29-.52-.564-.48-.92.13-1.75.636-2.32 1.423-.18.242-.325.502-.44.774-.736-.975-1.92-1.53-3.178-1.35-.28.04-.47.32-.437.62.035.305.286.52.564.48.97-.14 1.885.33 2.39 1.13-1.344-.36-2.832.16-3.706 1.42-.17.25-.13.597.09.78.1.08.2.116.31.116.15 0 .3-.08.4-.22.67-.976 1.85-1.33 2.87-.957-.67 1.672-2.382 5.18-4.99 5.18-.5 0-.974.053-1.423.17l.59-10.06c.51.25.94.66 1.24 1.18.388.67.51 1.46.346 2.23-.067.293.1.592.37.663l.117.01c.227 0 .434-.17.49-.425.225-1.06.057-2.15-.47-3.076-.37-.64-.875-1.15-1.476-1.49 1.1-.54 2.455-.31 3.335.67.1.11.23.163.36.163.13 0 .26-.05.355-.16.194-.21.2-.567 0-.78-1.17-1.31-2.96-1.62-4.43-.92.43-1.1 1.47-1.87 2.67-1.87.28 0 .5-.25.5-.56 0-.31-.23-.557-.504-.557-1.45 0-2.72.845-3.39 2.1-.676-1.254-1.94-2.1-3.395-2.1-.28 0-.5.247-.5.554 0 .31.22.556.5.556 1.2 0 2.233.78 2.67 1.87-1.47-.7-3.27-.39-4.44.92-.2.22-.196.57 0 .785.1.11.23.16.36.16.13 0 .26-.05.36-.16.88-.98 2.23-1.21 3.333-.67-.6.345-1.1.854-1.47 1.49-.53.93-.692 2.02-.47 3.08.06.25.26.43.49.43l.12-.02c.27-.07.44-.37.377-.664-.16-.768-.04-1.56.342-2.23.29-.508.7-.9 1.18-1.15l-1.2 10.73c-.428.284-.82.634-1.18 1.055-1.14 1.34-1.88 3.33-2.2 5.91-.12.97-.16 1.84-.165 2.46-.29.197-.486.55-.486.95 0 .615.45 1.113 1 1.113h29.94c.55 0 1.01-.494 1.01-1.11 0-.61-.45-1.11-1.01-1.11zm-24.37-1.145c-.044.425-.064.812-.072 1.145h-.147c.052-.332.123-.72.22-1.145zm22.754-4.662l-.36.093-.312-.21c-.115-.08-.254-.1-.386-.07l-.36.1-.312-.22c-.115-.08-.254-.1-.387-.07l-.36.09-.31-.22c-.11-.08-.25-.1-.38-.07l-.36.1-.31-.22c-.11-.08-.25-.1-.38-.07l-.36.1-.31-.22c-.11-.08-.25-.1-.38-.07l-.36.09-.31-.22c-.11-.08-.25-.1-.39-.07l-.36.1-.31-.22c-.11-.08-.25-.11-.38-.07l-.36.1-.31-.22-.16-.07L26.04 97l3.487 5.526-.18.01zm-21.152 3.97c.198-.105.34-.182.67-.182.328 0 .47.077.67.183.244.13.55.29 1.11.29s.868-.17 1.113-.3c.19-.11.34-.19.67-.19s.47.07.67.18c.24.13.55.29 1.11.29s.86-.17 1.11-.3c.2-.11.34-.19.67-.19s.47.07.67.18c.24.13.55.29 1.11.29s.87-.17 1.11-.3c.19-.11.34-.19.67-.19s.47.07.67.18c.24.13.55.29 1.11.29s.86-.17 1.11-.3c.19-.11.34-.19.67-.19s.47.074.67.18l.16.08-.31 1.752H7.52c.014-.447.05-1.005.143-1.61.22-.06.38-.147.52-.22zm-2.894-.182c.197 0 .326.027.44.073-.195.75-.317 1.42-.392 1.94h-.31l.118-2.01.143-.01zm-2.616 2.018c-.053-.47-.103-1.078-.11-1.748.166.082.37.16.652.193l-.165 1.55h-.376zm1.06-6.69l.032-.04-.433 4.072c-.21-.023-.336-.09-.494-.174l-.24-.123c.1-1.33.4-2.72 1.14-3.74zm-2.228 6.69c.006-.345.023-.76.058-1.217.018.452.052.864.09 1.217h-.15z" fill="#fff"/><path d="M14.977 42.893c.363-.335.883-.335 1.244-.03l.02.043c.09.196.26.32.46.32h.07c.2 0 .38-.124.46-.32l.02-.042c.36-.306.88-.306 1.25.03.22.197.53.166.71-.07.18-.234.16-.584-.06-.78-.7-.645-1.68-.677-2.4-.146-.72-.53-1.7-.5-2.4.145-.21.197-.24.547-.06.782s.5.266.71.068zM13.49 45.47c.158-.145.378-.155.543-.04.086.185.26.302.448.302h.05c.19 0 .36-.117.45-.3.17-.116.39-.107.55.04.22.196.53.165.71-.07.18-.235.15-.585-.06-.782-.48-.444-1.14-.49-1.66-.174-.52-.318-1.18-.27-1.66.174-.21.197-.24.548-.06.782.18.235.5.266.71.07zm17.464 22.865H24.66l.27-1.54c.54-.006.837-.165 1.077-.295.198-.106.34-.183.67-.183s.472.077.67.183c.245.133.55.297 1.113.297s.867-.164 1.113-.297c.198-.106.34-.183.67-.183.28 0 .505-.25.505-.556 0-.3-.226-.55-.505-.55-.562 0-.867.17-1.112.3-.19.11-.34.19-.67.19s-.47-.07-.67-.18c-.24-.13-.55-.29-1.11-.29s-.87.17-1.11.3c-.14.08-.26.14-.43.17l.44-2.51c.09.03.18.04.26.01l.36-.09.32.22c.12.08.26.11.39.07l.36-.09.31.22c.12.08.26.11.39.07l.36-.09.31.22c.12.08.26.11.39.07l.36-.09.31.22c.08.06.18.09.27.09l.12-.01.49-.13.06.01c.1 0 .2-.03.29-.09.23-.173.28-.52.13-.77l-4.47-7.1c-.07-.122-.19-.205-.33-.23-.13-.025-.27.01-.38.098l-6.31 5.055c-.22.18-.27.53-.11.778.08.115.18.185.29.215l.43.3c.12.08.26.107.39.07l.36-.09.32.21c.11.08.25.1.384.07l.36-.1.32.22c.12.08.26.1.39.07l.36-.1.32.22c.12.08.26.107.39.07l.36-.093.31.21.19.08-.43 2.48c-.23-.12-.53-.25-1.026-.25-.57 0-.87.164-1.12.296-.2.103-.34.18-.67.18s-.47-.078-.67-.18c-.244-.13-.55-.3-1.112-.3-.564 0-.87.163-1.114.295-.194.1-.34.18-.67.18-.325 0-.47-.08-.67-.187-.24-.13-.55-.295-1.11-.295s-.865.166-1.11.3c-.194.104-.34.18-.67.18-.324 0-.47-.077-.67-.18-.24-.135-.55-.3-1.11-.3s-.864.166-1.11.3c-.2.104-.34.18-.67.18s-.47-.076-.67-.182c-.244-.134-.55-.3-1.11-.3-.416 0-.69.09-.91.19.26-.93.67-1.876 1.316-2.66 1.03-1.24 2.496-1.865 4.366-1.865 2.3 0 4.428-.99 5.98-2.798 1.3-1.51 2.11-3.484 2.328-5.643.447.48.737 1.09.83 1.76.11.782-.06 1.56-.49 2.19-.163.245-.12.593.107.777.09.075.197.11.3.11.156 0 .31-.076.407-.22.59-.87.83-1.95.678-3.03-.11-.747-.39-1.435-.817-2.015 1.203-.01 2.362.79 2.82 2.08.08.22.27.356.47.356l.18-.04c.26-.11.385-.43.285-.72-.6-1.71-2.14-2.78-3.74-2.78.797-.82 2.024-1.07 3.126-.55.26.12.556-.01.666-.29.11-.28-.005-.61-.26-.73-1.33-.63-2.8-.41-3.87.44-.164-1.44-1.02-2.78-2.355-3.41-.254-.12-.55.01-.66.29-.11.28.01.61.26.73 1.1.53 1.77 1.69 1.78 2.887-1.1-1.29-2.86-1.79-4.407-1.1-.256.11-.38.434-.276.72.105.284.4.42.657.31 1.16-.517 2.484-.136 3.3.843-.68.05-1.325.294-1.89.72-.82.62-1.37 1.547-1.54 2.616-.05.3.13.59.404.64l.09.01c.24 0 .45-.19.5-.46.13-.77.53-1.44 1.12-1.89.41-.305.87-.48 1.35-.53-.36 4.11-3.21 6.81-7.32 6.81-3.22 0-5.7 1.825-7.165 5.283-.15.37-.29.73-.41 1.09-.19-.07-.43-.13-.75-.13H5.3l.29-4.85c.46-.156.97-.235 1.54-.235 3.272 0 5.23-4.55 5.952-6.62.64.09 1.22.425 1.62.962.392.522.58 1.182.512 1.86-.03.3.17.573.45.61h.05c.258 0 .477-.21.5-.5.096-.97-.17-1.92-.74-2.68-.363-.488-.83-.86-1.35-1.09.876-.528 2-.47 2.82.24.22.183.535.14.71-.1.17-.24.13-.59-.09-.778-1.137-.98-2.695-1.065-3.913-.34.087-.27.215-.52.38-.75.41-.56 1.007-.925 1.67-1.02.278-.04.47-.32.438-.62-.035-.305-.29-.52-.564-.48-.92.13-1.75.636-2.32 1.423-.18.242-.325.502-.44.774-.736-.975-1.92-1.53-3.178-1.35-.28.04-.47.32-.437.62.035.305.286.52.564.48.97-.14 1.885.33 2.39 1.13-1.344-.36-2.832.16-3.706 1.42-.17.25-.13.597.09.78.1.08.2.116.31.116.15 0 .3-.08.4-.22.67-.976 1.85-1.33 2.87-.957-.67 1.672-2.382 5.18-4.99 5.18-.5 0-.974.053-1.423.17l.59-10.06c.51.25.94.66 1.24 1.18.388.67.51 1.46.346 2.23-.067.293.1.592.37.663l.117.01c.227 0 .434-.17.49-.425.225-1.06.057-2.15-.47-3.076-.37-.64-.875-1.15-1.476-1.49 1.1-.54 2.455-.31 3.335.67.1.11.23.163.36.163.13 0 .26-.05.355-.16.194-.21.2-.567 0-.78-1.17-1.31-2.96-1.62-4.43-.92.43-1.1 1.47-1.87 2.67-1.87.28 0 .5-.25.5-.56 0-.31-.23-.557-.504-.557-1.45 0-2.72.845-3.39 2.1-.676-1.254-1.94-2.1-3.395-2.1-.28 0-.5.247-.5.554 0 .31.22.556.5.556 1.2 0 2.233.78 2.67 1.87-1.47-.7-3.27-.39-4.44.92-.2.22-.196.57 0 .785.1.11.23.16.36.16.13 0 .26-.05.36-.16.88-.98 2.23-1.21 3.333-.67-.6.345-1.1.854-1.47 1.49-.53.93-.692 2.02-.47 3.08.06.25.26.43.49.43l.12-.02c.27-.07.44-.37.377-.664-.16-.768-.04-1.56.342-2.23.29-.508.7-.9 1.18-1.15l-1.2 10.73c-.428.284-.82.634-1.18 1.055-1.14 1.34-1.88 3.33-2.2 5.91-.12.97-.16 1.84-.165 2.46-.29.197-.486.55-.486.95 0 .615.45 1.113 1 1.113h29.94c.55 0 1.01-.494 1.01-1.11 0-.61-.45-1.11-1.01-1.11zM6.584 67.19c-.044.425-.064.812-.072 1.145h-.147c.052-.332.123-.72.22-1.145zm22.754-4.662l-.36.093-.312-.21c-.115-.08-.254-.1-.386-.07l-.36.1-.312-.22c-.115-.08-.254-.1-.387-.07l-.36.09-.31-.22c-.11-.08-.25-.1-.38-.07l-.36.1-.31-.22c-.11-.08-.25-.1-.38-.07l-.36.1-.31-.22c-.11-.08-.25-.1-.38-.07l-.36.09-.31-.22c-.11-.08-.25-.1-.39-.07l-.36.1-.31-.22c-.11-.08-.25-.11-.38-.07l-.36.1-.31-.22-.16-.07L26.04 57l3.487 5.526-.18.01zm-21.152 3.97c.198-.105.34-.182.67-.182.328 0 .47.077.67.183.244.13.55.29 1.11.29s.868-.17 1.113-.3c.19-.11.34-.19.67-.19s.47.07.67.18c.24.13.55.29 1.11.29s.86-.17 1.11-.3c.2-.11.34-.19.67-.19s.47.07.67.18c.24.13.55.29 1.11.29s.87-.17 1.11-.3c.19-.11.34-.19.67-.19s.47.07.67.18c.24.13.55.29 1.11.29s.86-.17 1.11-.3c.19-.11.34-.19.67-.19s.47.074.67.18l.16.08-.31 1.752H7.52c.014-.447.05-1.005.143-1.61.22-.06.38-.147.52-.22zm-2.894-.182c.197 0 .326.027.44.073-.195.75-.317 1.42-.392 1.94h-.31l.118-2.01.143-.01zm-2.616 2.018c-.053-.47-.103-1.078-.11-1.748.166.082.37.16.652.193l-.165 1.55h-.376zm1.06-6.69l.032-.04-.433 4.072c-.21-.023-.336-.09-.494-.174l-.24-.122c.1-1.324.4-2.72 1.14-3.736zm-2.228 6.69c.006-.345.023-.76.058-1.217.018.452.052.864.09 1.217h-.15z" fill="#67737B"/><path d="M14.977 2.893c.363-.335.883-.335 1.244-.03l.02.043c.09.196.26.32.46.32h.07c.2 0 .38-.124.46-.32l.02-.042c.36-.306.88-.306 1.25.03.22.197.53.166.71-.07.18-.234.16-.584-.06-.78-.7-.645-1.68-.677-2.4-.146-.72-.53-1.7-.5-2.4.145-.21.197-.24.547-.06.782s.5.266.71.068zM13.49 5.47c.158-.145.378-.155.543-.04.086.185.26.302.448.302h.05c.19 0 .36-.117.45-.3.17-.116.39-.107.55.04.22.196.53.165.71-.07.18-.235.15-.585-.06-.782-.48-.444-1.14-.49-1.66-.174-.52-.318-1.18-.27-1.66.174-.21.197-.24.548-.06.782.18.235.5.266.71.07zm17.464 22.865H24.66l.27-1.54c.54-.006.837-.165 1.077-.295.198-.106.34-.183.67-.183s.472.077.67.183c.245.133.55.297 1.113.297s.867-.164 1.113-.297c.198-.106.34-.183.67-.183.28 0 .505-.25.505-.556 0-.3-.226-.55-.505-.55-.562 0-.867.17-1.112.3-.19.11-.34.19-.67.19s-.47-.07-.67-.18c-.24-.13-.55-.29-1.11-.29s-.87.17-1.11.3c-.14.08-.26.14-.43.17l.44-2.51c.09.03.18.04.26.01l.36-.09.32.22c.12.08.26.11.39.07l.36-.09.31.22c.12.08.26.11.39.07l.36-.09.31.22c.12.08.26.11.39.07l.36-.09.31.22c.08.06.18.09.27.09l.12-.01.49-.13.06.01c.1 0 .2-.03.29-.09.23-.173.28-.52.13-.77l-4.47-7.1c-.07-.122-.19-.205-.33-.23-.13-.025-.27.01-.38.098l-6.31 5.055c-.22.18-.27.53-.11.778.08.115.18.185.29.215l.43.3c.12.08.26.107.39.07l.36-.09.32.21c.11.08.25.1.384.07l.36-.1.32.22c.12.08.26.1.39.07l.36-.1.32.22c.12.08.26.107.39.07l.36-.093.31.21.19.08-.43 2.48c-.23-.12-.53-.25-1.026-.25-.57 0-.87.164-1.12.296-.2.103-.34.18-.67.18s-.47-.078-.67-.18c-.244-.13-.55-.3-1.112-.3-.564 0-.87.163-1.114.295-.194.1-.34.18-.67.18-.325 0-.47-.08-.67-.187-.24-.13-.55-.295-1.11-.295s-.865.166-1.11.3c-.194.104-.34.18-.67.18-.324 0-.47-.077-.67-.18-.24-.135-.55-.3-1.11-.3s-.864.166-1.11.3c-.2.104-.34.18-.67.18s-.47-.076-.67-.182c-.244-.134-.55-.3-1.11-.3-.416 0-.69.09-.91.19.26-.93.67-1.876 1.316-2.66 1.03-1.24 2.496-1.865 4.366-1.865 2.3 0 4.428-.99 5.98-2.798 1.3-1.51 2.11-3.484 2.328-5.643.447.48.737 1.09.83 1.76.11.782-.06 1.56-.49 2.19-.163.245-.12.593.107.777.09.075.197.11.3.11.156 0 .31-.076.407-.22.59-.87.83-1.95.678-3.03-.11-.747-.39-1.435-.817-2.015 1.203-.01 2.362.79 2.82 2.08.08.22.27.356.47.356l.18-.04c.26-.11.385-.43.285-.72-.6-1.71-2.14-2.78-3.74-2.78.797-.82 2.024-1.07 3.126-.55.26.12.556-.01.666-.29.11-.28-.005-.61-.26-.73-1.33-.63-2.8-.41-3.87.44-.17-1.44-1.025-2.78-2.36-3.41-.254-.12-.55.01-.66.29-.11.28.006.61.26.73 1.1.53 1.77 1.69 1.78 2.887-1.1-1.29-2.86-1.79-4.404-1.1-.25.11-.38.434-.27.72.105.284.4.42.657.31 1.16-.517 2.485-.136 3.3.843-.67.05-1.32.294-1.89.72-.82.616-1.366 1.54-1.54 2.61-.05.306.133.59.41.65l.09.01c.24 0 .45-.19.49-.46.13-.774.524-1.446 1.12-1.895.4-.3.865-.48 1.35-.53-.36 4.11-3.21 6.81-7.32 6.81-3.22 0-5.7 1.825-7.17 5.283-.15.37-.29.73-.41 1.09-.19-.07-.43-.128-.75-.128H5.3l.29-4.85c.46-.16.97-.237 1.535-.237 3.27 0 5.23-4.55 5.95-6.63.64.087 1.22.425 1.62.96.39.53.58 1.19.51 1.86-.027.306.174.58.45.61h.053c.253 0 .47-.21.5-.495.09-.97-.17-1.92-.74-2.68-.37-.485-.83-.856-1.356-1.09.875-.53 2-.47 2.82.235.22.186.54.144.71-.098.17-.24.13-.59-.09-.78-1.14-.98-2.695-1.067-3.913-.34.086-.27.214-.52.382-.75.41-.565 1.004-.927 1.67-1.02.275-.04.47-.32.435-.62-.034-.307-.29-.52-.563-.48-.92.13-1.75.634-2.33 1.42-.177.246-.323.506-.44.778-.734-.976-1.92-1.53-3.176-1.35-.276.04-.47.32-.435.622.036.3.287.52.565.48.97-.14 1.887.33 2.39 1.13-1.343-.36-2.83.16-3.71 1.42-.17.247-.12.596.1.78.09.078.2.115.307.115.15 0 .3-.076.4-.22.673-.972 1.85-1.33 2.87-.953-.67 1.67-2.384 5.176-4.99 5.176-.5 0-.976.06-1.425.17L6.26 8.3c.513.256.94.66 1.24 1.18.387.676.51 1.467.345 2.23-.07.3.1.6.37.67l.12.017c.222 0 .43-.17.49-.42.22-1.06.052-2.15-.47-3.08-.37-.64-.88-1.15-1.48-1.49 1.1-.546 2.453-.31 3.333.67.1.11.23.162.36.162.125 0 .253-.05.35-.16.196-.22.2-.57 0-.79C9.753 6 7.96 5.69 6.49 6.39c.436-1.1 1.47-1.87 2.67-1.87.28 0 .505-.25.505-.558 0-.307-.227-.555-.505-.555-1.45 0-2.72.844-3.39 2.1-.67-1.255-1.94-2.1-3.39-2.1-.28 0-.5.246-.5.553 0 .307.23.555.507.555 1.2 0 2.234.77 2.67 1.87-1.483-.704-3.28-.39-4.45.916-.2.22-.196.57 0 .79.1.11.23.16.358.16.13 0 .26-.05.36-.16.88-.98 2.23-1.21 3.33-.67-.6.35-1.11.86-1.47 1.49-.53.93-.7 2.02-.47 3.08.052.26.26.43.49.43l.112-.01c.27-.07.44-.37.38-.67-.16-.77-.04-1.56.345-2.23.29-.5.694-.9 1.18-1.15L4.05 19.08c-.426.283-.82.633-1.18 1.054-1.14 1.34-1.88 3.33-2.2 5.91-.12.974-.158 1.84-.164 2.464-.292.196-.487.548-.487.95 0 .614.45 1.112 1 1.112h29.94c.55 0 1.01-.498 1.01-1.11 0-.615-.45-1.112-1.01-1.112zM6.584 27.19c-.044.425-.064.812-.072 1.145h-.147c.052-.332.123-.72.22-1.145zm22.754-4.662l-.36.093-.312-.21c-.115-.08-.254-.1-.386-.07l-.36.1-.312-.22c-.115-.08-.254-.1-.387-.07l-.36.09-.31-.22c-.11-.08-.25-.1-.38-.07l-.36.1-.31-.22c-.11-.08-.25-.1-.38-.07l-.36.1-.31-.22c-.11-.08-.25-.1-.38-.07l-.36.09-.31-.22c-.11-.08-.25-.1-.39-.07l-.36.1-.31-.22c-.11-.08-.25-.11-.38-.07l-.36.1-.31-.22-.16-.07L26.04 17l3.487 5.526-.18.01zm-21.152 3.97c.198-.105.34-.182.67-.182.328 0 .47.077.67.183.244.13.55.29 1.11.29s.868-.17 1.113-.3c.19-.11.34-.19.67-.19s.47.07.67.18c.24.13.55.29 1.11.29s.86-.17 1.11-.3c.2-.11.34-.19.67-.19s.47.07.67.18c.24.13.55.29 1.11.29s.87-.17 1.11-.3c.19-.11.34-.19.67-.19s.47.07.67.18c.24.13.55.29 1.11.29s.86-.17 1.11-.3c.19-.11.34-.19.67-.19s.47.074.67.18l.16.08-.31 1.752H7.52c.014-.447.05-1.005.143-1.61.22-.06.38-.147.52-.22zm-2.894-.182c.197 0 .326.027.44.073-.195.75-.317 1.42-.392 1.94h-.31l.118-2.01.143-.01zm-2.616 2.018c-.053-.47-.103-1.078-.11-1.748.166.082.37.16.652.193l-.165 1.55h-.376zm1.06-6.69l.032-.04-.433 4.072c-.21-.023-.336-.09-.494-.174l-.24-.122c.1-1.324.4-2.72 1.14-3.736zm-2.228 6.69c.006-.345.023-.76.058-1.217.018.452.052.864.09 1.217h-.15z" fill="#3A434E"/></g></svg>