<svg width="32" height="232" viewBox="0 0 32 232" xmlns="http://www.w3.org/2000/svg"><g fill="none"><path d="M31.217 128.383c-.01-.795-.063-1.303-.07-1.378-.024-.208-.105-.405-.23-.566-.07-.09-.163-.19-.275-.27l.526-2.51c.03-.15.003-.31-.08-.43s-.208-.21-.35-.23l-1.752-.26c-.142-.02-.286.02-.397.12-.12.09-.18.23-.19.39l-.16 2.81h-.01c-1.25.02-2.86 1.65-4.8 4.86l-.15.23c-.87.92-2.03 1.37-3.55 1.37-2.69 0-5.72-1.45-7.35-2.23-.47-.23-.81-.39-1.05-.48-.48-.17-.93-.26-1.35-.26-.33 0-.59.05-.79.12h-.06c-.3 0-.43.23-.52.4l-.29.54c-.09.17-.17.44-.07.8.06.23.21.54.65.99-.53-.16-.93-.27-1.2-.32-.36-.07-.71-.1-1.04-.1-.77 0-1.3.19-1.62.37-.37-.01-.49.3-.57.52l-.27.74c-.06.17-.1.43-.01.73-.19-.01-.38-.02-.56-.02-1.13 0-1.9.29-2.39.57-.64.07-.84.69-.93.96l-.29.93c-.1.33-.155.84.146 1.44.29.57 1.01 1.472 3.873 2.67 1.45.6 2.79 1 2.84 1.02.4.112.79.222 1.18.33l-.48.07c-1.66.35-2.58 1.05-3.07 1.61-.11.055-.21.13-.3.22-.3.326-.307.687-.31 1.006v.97c.016 1.795 2.24 2.2 2.973 2.33 1.25.226 2.742.274 3.78.274.742 0 1.253-.02 1.28-.02 9.32-.48 15.482-3.26 18.31-8.25 2.524-4.46 1.673-9.45.91-12.1zM6.735 146.215c3.186-.087 11.766-.61 17.148-3.68.184-.105.282-.31.268-.52l-.05-.218c-.13-.265-.44-.365-.69-.222-.56.32-1.18.62-1.85.9-.91.382-1.93.727-3.04 1.033-1.89.522-4.04.93-6.41 1.215-1.18.14-2.29.235-3.24.296-.99.06-1.82.09-2.41.11.32-.23.83-.48 1.61-.64.29-.06.89-.12 1.59-.19 1.42-.15 3.4-.35 5.53-.79 1.36-.28 2.78-.66 4.14-1.19 1.59-.61 3.09-1.42 4.35-2.49 1.13-.96 2.05-2.14 2.64-3.59.18-.44.33-.9.44-1.38l.01-.04.08-.36.19-.9.06-.25.05-.21c.15-.65.3-1.23.45-1.73l.036-.12c.18-.6.35-1.08.513-1.48.21-.52.403-.9.573-1.17l.103-.16.19-.25-.04.32-.1.74-.146.97c-.09.552-.187 1.13-.29 1.72l-.07.342c-.07.38-.15.76-.23 1.13-.18.86-.384 1.69-.61 2.44l-.11.37c-.31.947-.65 1.73-1.02 2.205-.155.2-.153.484-.01.68l.08.09c.096.083.21.124.327.124.15 0 .295-.07.4-.2.45-.585.88-1.53 1.28-2.82.357-1.16.69-2.59.995-4.3.08-.45.153-.9.22-1.32.083.45.156.94.207 1.45.12 1.2.12 2.54-.13 3.89-.206 1.11-.576 2.23-1.18 3.3-2.46 4.32-8.058 6.736-16.64 7.18-.007 0-.49.02-1.188.02-2.02 0-3.265-.17-3.98-.36zm-3.97-8.372c.955.324 2.382.78 4.024 1.21 3.26.853 6.07 1.283 8.37 1.283.53 0 1.04-.023 1.52-.07.28-.027.49-.292.46-.592-.01-.127-.07-.24-.14-.325-.11-.12-.26-.19-.42-.17-.26.02-.52.04-.78.05-.63.02-1.28.01-1.95-.04-2.7-.18-5.62-.86-7.9-1.5-1.4-.4-2.55-.78-3.28-1.03.24-.07.56-.13.99-.13.23 0 .49.01.76.05.29.04.88.18 1.56.34.99.24 2.29.55 3.76.82 1.12.2 2.34.38 3.59.47.59.04 1.18.07 1.78.07.56 0 1.1-.03 1.62-.07 1.67-.14 3.13-.5 4.39-1.09.49-.23.95-.49 1.38-.79.48-.33.92-.71 1.31-1.12.34-.36.66-.75.94-1.18-.04.22-.1.43-.16.64-.09.31-.2.6-.33.89-.14.3-.3.59-.48.87-.18.26-.36.51-.57.75-.32.37-.67.71-1.05 1.03-.4.32-.82.62-1.27.89-1.76 1.06-3.89 1.73-5.92 2.17-2.26-.18-4.78-.67-7.52-1.48-.01-.01-1.32-.4-2.69-.97-.99-.42-1.63-.76-2.05-1.03zm4.794-4.656c.25.047.71.182 1.29.353.7.207 1.58.466 2.57.71.6.15 1.25.292 1.92.415.63.115 1.28.21 1.94.275.56.055 1.13.087 1.7.087 2.38 0 4.29-.562 5.71-1.673-1.06 1.253-2.57 2.083-4.53 2.485-.44.09-.91.15-1.39.2-.47.04-.95.07-1.46.07h-.2c-3.28 0-6.66-.82-8.67-1.31l-.71-.17c-.53-.41-.55-.62-.55-.63l.21-.59c.1-.09.48-.34 1.28-.34.26 0 .55.03.85.08zm12.07.447c-.79.2-1.67.302-2.65.302-1.79 0-3.63-.334-5.21-.717-1.32-.8-2.44-1.71-2.53-2.09l.19-.36c.07-.04.25-.11.55-.11.3 0 .64.07 1.01.2.18.06.52.22.95.43 1.68.8 4.78 2.29 7.67 2.33zm9.65-7.86l.1-1.862.65.096-.38 1.798-.01.01-.11.52-.3-.043.02-.48v-.04z" fill="#206FAC"/><path d="M31.217 88.383c-.01-.795-.063-1.303-.07-1.378-.024-.208-.105-.405-.23-.566-.07-.09-.163-.19-.275-.27l.526-2.51c.03-.15.003-.31-.08-.43s-.208-.21-.35-.23l-1.752-.26c-.142-.02-.286.02-.397.12-.12.09-.18.23-.19.39l-.16 2.81h-.01c-1.25.02-2.86 1.65-4.8 4.86l-.15.23c-.87.92-2.03 1.37-3.55 1.37-2.69 0-5.72-1.45-7.35-2.23-.47-.23-.81-.39-1.05-.48-.48-.17-.93-.26-1.35-.26-.33 0-.59.05-.79.12h-.06c-.3 0-.43.23-.52.4l-.29.54c-.09.17-.17.44-.07.8.06.23.21.54.65.99-.53-.16-.93-.27-1.2-.32-.36-.07-.71-.1-1.04-.1-.77 0-1.3.19-1.62.37-.37-.01-.49.3-.57.52l-.27.74c-.06.17-.1.43-.01.73-.19-.01-.38-.02-.56-.02-1.13 0-1.9.29-2.39.57-.64.07-.84.69-.93.96l-.29.93c-.1.33-.155.84.146 1.44.29.57 1.01 1.472 3.873 2.67 1.45.6 2.79 1 2.84 1.02.4.112.79.222 1.18.33l-.48.07c-1.66.35-2.58 1.05-3.07 1.61-.11.055-.21.13-.3.22-.3.326-.307.687-.31 1.006v.97c.016 1.795 2.24 2.2 2.973 2.33 1.25.226 2.742.274 3.78.274.742 0 1.253-.02 1.28-.02 9.32-.48 15.482-3.26 18.31-8.25 2.524-4.46 1.673-9.45.91-12.1zM6.735 106.215c3.186-.087 11.766-.61 17.148-3.68.184-.105.282-.31.268-.52l-.05-.218c-.13-.265-.44-.365-.69-.222-.56.32-1.18.62-1.85.9-.91.382-1.93.727-3.04 1.033-1.89.522-4.04.93-6.41 1.215-1.18.14-2.29.235-3.24.296-.99.06-1.82.09-2.41.11.32-.23.83-.48 1.61-.64.29-.06.89-.12 1.59-.19 1.42-.15 3.4-.35 5.53-.79 1.36-.28 2.78-.66 4.14-1.19 1.59-.61 3.09-1.42 4.35-2.49 1.13-.96 2.05-2.14 2.64-3.59.18-.44.33-.9.44-1.38l.01-.04.08-.36.19-.9.06-.25.05-.21c.15-.65.3-1.23.45-1.73l.036-.12c.18-.6.35-1.08.513-1.48.21-.52.403-.9.573-1.17l.103-.16.19-.25-.04.32-.1.74-.146.97c-.09.552-.187 1.13-.29 1.72l-.07.342c-.07.38-.15.76-.23 1.13-.18.86-.384 1.69-.61 2.44l-.11.37c-.31.947-.65 1.73-1.02 2.205-.155.2-.153.484-.01.68l.08.09c.096.083.21.124.327.124.15 0 .295-.07.4-.2.45-.585.88-1.53 1.28-2.82.357-1.16.69-2.59.995-4.3.08-.45.153-.9.22-1.32.083.45.156.94.207 1.45.12 1.2.12 2.54-.13 3.89-.206 1.11-.576 2.23-1.18 3.3-2.46 4.32-8.058 6.736-16.64 7.18-.007 0-.49.02-1.188.02-2.02 0-3.265-.17-3.98-.36zm-3.97-8.372c.955.324 2.382.78 4.024 1.21 3.26.853 6.07 1.283 8.37 1.283.53 0 1.04-.023 1.52-.07.28-.027.49-.292.46-.592-.01-.127-.07-.24-.14-.325-.11-.12-.26-.19-.42-.17-.26.02-.52.04-.78.05-.63.02-1.28.01-1.95-.04-2.7-.18-5.62-.86-7.9-1.5-1.4-.4-2.55-.78-3.28-1.03.24-.07.56-.13.99-.13.23 0 .49.01.76.05.29.04.88.18 1.56.34.99.24 2.29.55 3.76.82 1.12.2 2.34.38 3.59.47.59.04 1.18.07 1.78.07.56 0 1.1-.03 1.62-.07 1.67-.14 3.13-.5 4.39-1.09.49-.23.95-.49 1.38-.79.48-.33.92-.71 1.31-1.12.34-.36.66-.75.94-1.18-.04.22-.1.43-.16.64-.09.31-.2.6-.33.89-.14.3-.3.59-.48.87-.18.26-.36.51-.57.75-.32.37-.67.71-1.05 1.03-.4.32-.82.62-1.27.89-1.76 1.06-3.89 1.73-5.92 2.17-2.26-.18-4.78-.67-7.52-1.48-.01-.01-1.32-.4-2.69-.97-.99-.42-1.63-.76-2.05-1.03zm4.794-4.656c.25.047.71.182 1.29.353.7.207 1.58.466 2.57.71.6.15 1.25.292 1.92.415.63.115 1.28.21 1.94.275.56.055 1.13.087 1.7.087 2.38 0 4.29-.562 5.71-1.673-1.06 1.253-2.57 2.083-4.53 2.485-.44.09-.91.15-1.39.2-.47.04-.95.07-1.46.07h-.2c-3.28 0-6.66-.82-8.67-1.31l-.71-.17c-.53-.41-.55-.62-.55-.63l.21-.59c.1-.09.48-.34 1.28-.34.26 0 .55.03.85.08zm12.07.447c-.79.2-1.67.302-2.65.302-1.79 0-3.63-.334-5.21-.717-1.32-.8-2.44-1.71-2.53-2.09l.19-.36c.07-.04.25-.11.55-.11.3 0 .64.07 1.01.2.18.06.52.22.95.43 1.68.8 4.78 2.29 7.67 2.33zm9.65-7.86l.1-1.862.65.096-.38 1.798-.01.01-.11.52-.3-.043.02-.48v-.04z" fill="#fff"/><path d="M31.217 48.383c-.01-.795-.063-1.303-.07-1.378-.024-.208-.105-.405-.23-.566-.07-.09-.163-.19-.275-.27l.526-2.51c.03-.15.003-.31-.08-.43s-.208-.21-.35-.23l-1.752-.26c-.142-.02-.286.02-.397.12-.12.09-.18.23-.19.39l-.16 2.81h-.01c-1.25.02-2.86 1.65-4.8 4.86l-.15.23c-.87.92-2.03 1.37-3.55 1.37-2.69 0-5.72-1.45-7.35-2.23-.47-.23-.81-.39-1.05-.48-.48-.17-.93-.26-1.35-.26-.33 0-.59.05-.79.12h-.06c-.3 0-.43.23-.52.4l-.29.54c-.09.17-.17.44-.07.8.06.23.21.54.65.99-.53-.16-.93-.27-1.2-.32-.36-.07-.71-.1-1.04-.1-.77 0-1.3.19-1.62.37-.37-.01-.49.3-.57.52l-.27.74c-.06.17-.1.43-.01.73-.19-.01-.38-.02-.56-.02-1.13 0-1.9.29-2.39.57-.64.07-.84.69-.93.96l-.29.93c-.1.33-.155.84.146 1.44.29.57 1.01 1.472 3.873 2.67 1.45.6 2.79 1 2.84 1.02.4.112.79.222 1.18.33l-.48.07c-1.66.357-2.58 1.057-3.07 1.61-.11.06-.21.13-.3.227-.3.32-.3.68-.3 1v.97c.014 1.795 2.24 2.2 2.97 2.33 1.254.227 2.75.275 3.78.275.75 0 1.26-.02 1.283-.023 9.322-.49 15.483-3.26 18.31-8.25 2.53-4.47 1.674-9.45.91-12.1zM6.735 66.215c3.186-.087 11.766-.61 17.148-3.68.184-.105.282-.31.268-.52l-.05-.218c-.13-.265-.44-.365-.69-.222-.56.32-1.18.62-1.85.9-.91.382-1.93.727-3.04 1.033-1.89.522-4.04.93-6.41 1.215-1.18.14-2.29.235-3.24.296-.99.06-1.82.09-2.41.11.32-.23.83-.48 1.61-.64.29-.06.89-.12 1.59-.19 1.42-.15 3.4-.35 5.53-.79 1.36-.28 2.78-.66 4.14-1.19 1.59-.61 3.09-1.42 4.35-2.49 1.13-.96 2.05-2.14 2.64-3.59.18-.44.33-.9.44-1.38l.01-.04.08-.36.19-.9.06-.25.05-.21c.15-.65.3-1.23.45-1.73l.036-.12c.18-.6.35-1.08.513-1.48.21-.52.403-.9.573-1.17l.103-.16.19-.25-.04.32-.1.74-.146.97c-.09.552-.187 1.13-.29 1.72l-.07.342c-.07.38-.15.76-.23 1.13-.18.86-.384 1.69-.61 2.44l-.11.37c-.31.947-.65 1.73-1.02 2.205-.155.2-.153.484-.01.68l.08.09c.096.083.21.124.327.124.15 0 .295-.07.4-.2.45-.585.88-1.53 1.28-2.82.357-1.16.69-2.59.995-4.3.08-.45.153-.9.22-1.32.083.45.156.94.207 1.45.12 1.2.12 2.54-.13 3.89-.206 1.11-.576 2.23-1.18 3.3-2.46 4.32-8.058 6.736-16.64 7.18-.007 0-.49.02-1.188.02-2.02 0-3.265-.17-3.98-.36zm-3.97-8.372c.955.324 2.382.78 4.024 1.21 3.26.853 6.07 1.283 8.37 1.283.53 0 1.04-.023 1.52-.07.28-.027.49-.292.46-.592-.01-.127-.07-.24-.14-.325-.11-.12-.26-.19-.42-.17-.26.02-.52.04-.78.05-.63.02-1.28.01-1.95-.04-2.7-.18-5.62-.86-7.9-1.5-1.4-.4-2.55-.78-3.28-1.03.24-.07.56-.13.99-.13.23 0 .49.01.76.05.29.04.88.18 1.56.34.99.24 2.29.55 3.76.82 1.12.2 2.34.38 3.59.47.59.04 1.18.07 1.78.07.56 0 1.1-.03 1.62-.07 1.67-.14 3.13-.5 4.39-1.09.49-.23.95-.49 1.38-.79.48-.33.92-.71 1.31-1.12.34-.36.66-.75.94-1.18-.04.22-.1.43-.16.64-.09.31-.2.6-.33.89-.14.3-.3.59-.48.87-.18.26-.36.51-.57.75-.32.37-.67.71-1.05 1.03-.4.32-.82.62-1.27.89-1.76 1.06-3.89 1.73-5.92 2.17-2.26-.18-4.78-.67-7.52-1.48-.01-.01-1.32-.4-2.69-.97-.99-.42-1.63-.76-2.05-1.03zm4.794-4.656c.25.047.71.182 1.29.353.7.207 1.58.466 2.57.71.6.15 1.25.292 1.92.415.63.115 1.28.21 1.94.275.56.055 1.13.087 1.7.087 2.38 0 4.29-.562 5.71-1.673-1.06 1.253-2.57 2.083-4.53 2.485-.44.09-.91.15-1.39.2-.47.04-.95.07-1.46.07h-.2c-3.28 0-6.66-.82-8.67-1.31l-.71-.17c-.53-.41-.55-.62-.55-.63l.21-.59c.1-.09.48-.34 1.28-.34.26 0 .55.03.85.08zm12.07.447c-.79.2-1.67.302-2.65.302-1.79 0-3.63-.334-5.21-.717-1.32-.8-2.44-1.71-2.53-2.09l.19-.36c.07-.04.25-.11.55-.11.3 0 .64.07 1.01.2.18.06.52.22.95.43 1.68.8 4.78 2.29 7.67 2.33zm9.65-7.86l.1-1.862.65.096-.38 1.798-.01.01-.11.52-.3-.043.02-.48v-.04z" fill="#67737B"/><path d="M31.217 8.383c-.01-.795-.063-1.303-.07-1.378-.024-.208-.105-.405-.23-.566-.07-.09-.163-.19-.275-.27l.526-2.51c.03-.15.003-.31-.08-.43s-.208-.21-.35-.23l-1.752-.26c-.142-.02-.286.02-.397.12-.12.09-.18.23-.19.39l-.16 2.81h-.01c-1.25.02-2.86 1.65-4.8 4.86l-.15.23c-.87.92-2.03 1.37-3.55 1.37-2.69 0-5.72-1.45-7.35-2.23-.47-.23-.81-.39-1.05-.48-.48-.17-.93-.26-1.35-.26-.33 0-.59.05-.79.12h-.06c-.3 0-.43.23-.53.4l-.29.54c-.08.17-.17.44-.07.8.07.23.21.54.66.99-.53-.16-.92-.27-1.2-.32-.36-.07-.71-.1-1.03-.1-.77 0-1.3.19-1.63.37-.37-.01-.49.3-.57.52l-.27.74c-.06.17-.1.43-.005.73-.19-.01-.38-.02-.56-.02-1.128 0-1.898.28-2.39.564-.64.077-.837.69-.925.96l-.29.93c-.1.33-.15.85.15 1.44.29.58 1.01 1.48 3.873 2.67 1.45.61 2.78 1.01 2.84 1.02.4.12.79.23 1.18.336l-.48.08c-1.667.35-2.59 1.05-3.08 1.608-.11.05-.217.13-.3.22-.3.323-.308.684-.31 1.003v.97c.02 1.796 2.244 2.2 2.975 2.33 1.253.226 2.75.274 3.78.274.75 0 1.26-.03 1.28-.03 9.33-.485 15.49-3.26 18.31-8.25 2.53-4.465 1.68-9.45.91-12.1zM6.735 26.215c3.186-.087 11.766-.61 17.148-3.68.184-.105.282-.31.268-.52l-.05-.218c-.13-.265-.44-.365-.69-.222-.56.32-1.18.62-1.85.9-.91.382-1.93.727-3.04 1.033-1.89.522-4.04.93-6.41 1.215-1.18.14-2.29.235-3.24.296-.99.06-1.82.09-2.41.11.32-.23.83-.48 1.61-.64.29-.06.89-.12 1.59-.19 1.42-.15 3.4-.35 5.53-.79 1.36-.28 2.78-.66 4.14-1.19 1.59-.61 3.09-1.42 4.35-2.49 1.13-.96 2.05-2.14 2.64-3.59.18-.44.33-.9.44-1.38l.01-.04.08-.36.19-.9.06-.25.05-.21c.15-.65.3-1.23.45-1.73l.036-.12c.18-.6.35-1.08.513-1.48.21-.52.403-.9.573-1.17l.103-.16.19-.25-.04.32-.1.74-.146.97c-.09.552-.187 1.13-.29 1.72l-.07.342c-.07.38-.15.76-.23 1.13-.18.86-.384 1.69-.61 2.44l-.11.37c-.31.947-.65 1.73-1.02 2.205-.155.2-.153.484-.01.68l.08.09c.096.083.21.124.327.124.15 0 .295-.07.4-.2.45-.585.88-1.53 1.28-2.82.357-1.16.69-2.59.995-4.3.08-.45.153-.9.22-1.32.083.45.156.94.207 1.45.12 1.2.12 2.54-.13 3.89-.206 1.11-.576 2.23-1.18 3.3-2.46 4.32-8.058 6.736-16.64 7.18-.007 0-.49.02-1.188.02-2.02 0-3.265-.17-3.98-.36zm-3.97-8.372c.955.324 2.382.78 4.024 1.21 3.26.853 6.07 1.283 8.37 1.283.53 0 1.04-.023 1.52-.07.28-.027.49-.292.46-.592-.01-.127-.07-.24-.14-.325-.11-.12-.26-.19-.42-.17-.26.02-.52.04-.78.05-.63.02-1.28.01-1.95-.04-2.7-.18-5.62-.86-7.9-1.5-1.4-.4-2.55-.78-3.28-1.03.24-.07.56-.13.99-.13.23 0 .49.01.76.05.29.04.88.18 1.56.34.99.24 2.29.55 3.76.82 1.12.2 2.34.38 3.59.47.59.04 1.18.07 1.78.07.56 0 1.1-.03 1.62-.07 1.67-.14 3.13-.5 4.39-1.09.49-.23.95-.49 1.38-.79.48-.33.92-.71 1.31-1.12.34-.36.66-.75.94-1.18-.04.22-.1.43-.16.64-.09.31-.2.6-.33.89-.14.3-.3.59-.48.87-.18.26-.36.51-.57.75-.32.37-.67.71-1.05 1.03-.4.32-.82.62-1.27.89-1.76 1.06-3.89 1.73-5.92 2.17-2.26-.18-4.78-.67-7.52-1.48-.01-.01-1.32-.4-2.69-.97-.99-.42-1.63-.76-2.05-1.03zm4.794-4.656c.25.047.71.182 1.29.353.7.207 1.58.466 2.57.71.6.15 1.25.292 1.92.415.63.115 1.28.21 1.94.275.56.055 1.13.087 1.7.087 2.38 0 4.29-.562 5.71-1.673-1.06 1.253-2.57 2.083-4.53 2.485-.44.09-.91.15-1.39.2-.47.04-.95.07-1.46.07h-.2c-3.28 0-6.66-.82-8.67-1.31l-.71-.17c-.53-.41-.55-.62-.55-.63l.21-.59c.1-.09.48-.34 1.28-.34.26 0 .55.03.85.08zm12.07.447c-.79.2-1.67.302-2.65.302-1.79 0-3.63-.334-5.21-.717-1.32-.8-2.44-1.71-2.53-2.09l.19-.36c.07-.04.25-.11.55-.11.3 0 .64.07 1.01.2.18.06.52.22.95.43 1.68.8 4.78 2.29 7.67 2.33zm9.65-7.86l.1-1.862.65.096-.38 1.798-.01.01-.11.52-.3-.043.02-.48v-.04z" fill="#3A434E"/></g></svg>