<svg width="32" height="232" viewBox="0 0 32 232" xmlns="http://www.w3.org/2000/svg"><g fill="none">
			<path id="XMLID_1172_" fill="#2C3643" d="M17.5,13.7h-3c-0.3,0-0.5,0.2-0.5,0.5l-0.4,7.5c0,0.1,0,0.3,0.1,0.4
				c0.1,0.1,0.2,0.2,0.4,0.2h3.7c0.1,0,0.3-0.1,0.4-0.2c0.1-0.1,0.1-0.2,0.1-0.4L18,14.2C18,13.9,17.8,13.7,17.5,13.7z M14.7,21.2
				l0.3-6.5h2l0.3,6.5H14.7z"/>
			<path id="XMLID_1171_" fill="#2C3643" d="M15.4,13.2h1.1c0.3,0,0.5-0.2,0.5-0.5c0-0.3-0.2-0.5-0.5-0.5h-1.1
				c-0.3,0-0.5,0.2-0.5,0.5C14.9,13,15.2,13.2,15.4,13.2z"/>
			<path id="XMLID_1159_" fill="#2C3643" d="M27.3,27.2C27.3,27.2,27.3,27.2,27.3,27.2l-0.3-5.3c0-0.2-0.2-0.4-0.4-0.5v-0.8
				c0-0.3-0.2-0.5-0.5-0.5h-1.9c-0.3,0-0.5,0.2-0.5,0.5v0.8c-0.2,0.1-0.4,0.2-0.4,0.5L23,25.5l-0.5-1l-1.2-13.9
				c0-0.3-0.2-0.5-0.5-0.5h-1.2V9c0-0.3-0.2-0.5-0.5-0.5h-0.4V7.4c0-0.3-0.2-0.5-0.5-0.5h-1.1c0.8-0.4,1.3-1.2,1.3-2.2
				c0-1.4-1.1-2.4-2.4-2.4c-1.4,0-2.4,1.1-2.4,2.4c0,0.9,0.5,1.8,1.3,2.2h-1.1c-0.3,0-0.5,0.2-0.5,0.5v1.1h-0.3
				c-0.3,0-0.5,0.2-0.5,0.5v1.1h-1.2c-0.3,0-0.5,0.2-0.5,0.5L9.5,24.5l-0.5,1l-0.2-3.5c0-0.2-0.2-0.4-0.4-0.5v-0.8
				c0-0.3-0.2-0.5-0.5-0.5H6c-0.3,0-0.5,0.2-0.5,0.5v0.8c-0.2,0.1-0.4,0.2-0.4,0.5l-0.3,5.3c0,0,0,0,0,0c0,0,0,0,0,0v2.3
				C4.7,29.8,5,30,5.2,30h21.5c0.3,0,0.5-0.2,0.5-0.5L27.3,27.2C27.3,27.2,27.3,27.2,27.3,27.2z M14.6,4.7c0-0.8,0.6-1.4,1.4-1.4
				c0.8,0,1.4,0.6,1.4,1.4c0,0.8-0.6,1.4-1.4,1.4C15.2,6.1,14.6,5.5,14.6,4.7z M14.3,7.9h3.5v0.6h-3.5V7.9z M24.2,22.5h1.7l0.3,4.3
				H24L24.2,22.5z M24.7,21.2h0.9v0.2h-0.9V21.2z M13.4,9.5h5.2v0.6h-5.2V9.5z M11.7,11.1h1.2h6.2h1.2L21.4,24H10.6L11.7,11.1z
				 M10.3,25.2h11.4l0.8,1.5H9.4L10.3,25.2z M6.1,22.5h1.7L8,26.7H5.8L6.1,22.5z M6.5,21.2h0.9v0.2H6.5V21.2z M26.2,29H5.8v-1.2h2.8
				h14.8h2.8V29z"/>
		</g>
		<g id="XMLID_1301_">
			<path id="XMLID_1315_" fill="#67737C" d="M17.5,53.7h-3c-0.3,0-0.5,0.2-0.5,0.5l-0.4,7.5c0,0.1,0,0.3,0.1,0.4
				c0.1,0.1,0.2,0.2,0.4,0.2h3.7c0.1,0,0.3-0.1,0.4-0.2c0.1-0.1,0.1-0.2,0.1-0.4L18,54.2C18,53.9,17.8,53.7,17.5,53.7z M14.7,61.2
				l0.3-6.5h2l0.3,6.5H14.7z"/>
			<path id="XMLID_1314_" fill="#67737C" d="M15.4,53.2h1.1c0.3,0,0.5-0.2,0.5-0.5c0-0.3-0.2-0.5-0.5-0.5h-1.1
				c-0.3,0-0.5,0.2-0.5,0.5C14.9,53,15.2,53.2,15.4,53.2z"/>
			<path id="XMLID_1302_" fill="#67737C" d="M27.3,67.2C27.3,67.2,27.3,67.2,27.3,67.2l-0.3-5.3c0-0.2-0.2-0.4-0.4-0.5v-0.8
				c0-0.3-0.2-0.5-0.5-0.5h-1.9c-0.3,0-0.5,0.2-0.5,0.5v0.8c-0.2,0.1-0.4,0.2-0.4,0.5L23,65.5l-0.5-1l-1.2-13.9
				c0-0.3-0.2-0.5-0.5-0.5h-1.2V49c0-0.3-0.2-0.5-0.5-0.5h-0.4v-1.1c0-0.3-0.2-0.5-0.5-0.5h-1.1c0.8-0.4,1.3-1.2,1.3-2.2
				c0-1.4-1.1-2.4-2.4-2.4c-1.4,0-2.4,1.1-2.4,2.4c0,0.9,0.5,1.8,1.3,2.2h-1.1c-0.3,0-0.5,0.2-0.5,0.5v1.1h-0.3
				c-0.3,0-0.5,0.2-0.5,0.5v1.1h-1.2c-0.3,0-0.5,0.2-0.5,0.5L9.5,64.5l-0.5,1l-0.2-3.5c0-0.2-0.2-0.4-0.4-0.5v-0.8
				c0-0.3-0.2-0.5-0.5-0.5H6c-0.3,0-0.5,0.2-0.5,0.5v0.8c-0.2,0.1-0.4,0.2-0.4,0.5l-0.3,5.3c0,0,0,0,0,0c0,0,0,0,0,0v2.3
				C4.7,69.8,5,70,5.2,70h21.5c0.3,0,0.5-0.2,0.5-0.5L27.3,67.2C27.3,67.2,27.3,67.2,27.3,67.2z M14.6,44.7c0-0.8,0.6-1.4,1.4-1.4
				c0.8,0,1.4,0.6,1.4,1.4c0,0.8-0.6,1.4-1.4,1.4C15.2,46.1,14.6,45.5,14.6,44.7z M14.3,47.9h3.5v0.6h-3.5V47.9z M24.2,62.5h1.7
				l0.3,4.3H24L24.2,62.5z M24.7,61.2h0.9v0.2h-0.9V61.2z M13.4,49.5h5.2v0.6h-5.2V49.5z M11.7,51.1h1.2h6.2h1.2L21.4,64H10.6
				L11.7,51.1z M10.3,65.2h11.4l0.8,1.5H9.4L10.3,65.2z M6.1,62.5h1.7L8,66.7H5.8L6.1,62.5z M6.5,61.2h0.9v0.2H6.5V61.2z M26.2,69
				H5.8v-1.2h2.8h14.8h2.8V69z"/>
		</g>
		<g id="XMLID_1495_">
			<path id="XMLID_1509_" fill="#FFFFFF" d="M17.5,93.7h-3c-0.3,0-0.5,0.2-0.5,0.5l-0.4,7.5c0,0.1,0,0.3,0.1,0.4
				c0.1,0.1,0.2,0.2,0.4,0.2h3.7c0.1,0,0.3-0.1,0.4-0.2c0.1-0.1,0.1-0.2,0.1-0.4L18,94.2C18,93.9,17.8,93.7,17.5,93.7z M14.7,101.2
				l0.3-6.5h2l0.3,6.5H14.7z"/>
			<path id="XMLID_1508_" fill="#FFFFFF" d="M15.4,93.2h1.1c0.3,0,0.5-0.2,0.5-0.5c0-0.3-0.2-0.5-0.5-0.5h-1.1
				c-0.3,0-0.5,0.2-0.5,0.5C14.9,93,15.2,93.2,15.4,93.2z"/>
			<path id="XMLID_1496_" fill="#FFFFFF" d="M27.3,107.2C27.3,107.2,27.3,107.2,27.3,107.2l-0.3-5.3c0-0.2-0.2-0.4-0.4-0.5v-0.8
				c0-0.3-0.2-0.5-0.5-0.5h-1.9c-0.3,0-0.5,0.2-0.5,0.5v0.8c-0.2,0.1-0.4,0.2-0.4,0.5l-0.2,3.5l-0.5-1l-1.2-13.9
				c0-0.3-0.2-0.5-0.5-0.5h-1.2V89c0-0.3-0.2-0.5-0.5-0.5h-0.4v-1.1c0-0.3-0.2-0.5-0.5-0.5h-1.1c0.8-0.4,1.3-1.2,1.3-2.2
				c0-1.4-1.1-2.4-2.4-2.4c-1.4,0-2.4,1.1-2.4,2.4c0,0.9,0.5,1.8,1.3,2.2h-1.1c-0.3,0-0.5,0.2-0.5,0.5v1.1h-0.3
				c-0.3,0-0.5,0.2-0.5,0.5v1.1h-1.2c-0.3,0-0.5,0.2-0.5,0.5l-1.2,13.9l-0.5,1l-0.2-3.5c0-0.2-0.2-0.4-0.4-0.5v-0.8
				c0-0.3-0.2-0.5-0.5-0.5H6c-0.3,0-0.5,0.2-0.5,0.5v0.8c-0.2,0.1-0.4,0.2-0.4,0.5l-0.3,5.3c0,0,0,0,0,0c0,0,0,0,0,0v2.3
				c0,0.3,0.2,0.5,0.5,0.5h21.5c0.3,0,0.5-0.2,0.5-0.5L27.3,107.2C27.3,107.2,27.3,107.2,27.3,107.2z M14.6,84.7
				c0-0.8,0.6-1.4,1.4-1.4c0.8,0,1.4,0.6,1.4,1.4c0,0.8-0.6,1.4-1.4,1.4C15.2,86.1,14.6,85.5,14.6,84.7z M14.3,87.9h3.5v0.6h-3.5
				V87.9z M24.2,102.5h1.7l0.3,4.3H24L24.2,102.5z M24.7,101.2h0.9v0.2h-0.9V101.2z M13.4,89.5h5.2v0.6h-5.2V89.5z M11.7,91.1h1.2
				h6.2h1.2l1.1,12.9H10.6L11.7,91.1z M10.3,105.2h11.4l0.8,1.5H9.4L10.3,105.2z M6.1,102.5h1.7l0.3,4.3H5.8L6.1,102.5z M6.5,101.2
				h0.9v0.2H6.5V101.2z M26.2,109H5.8v-1.2h2.8h14.8h2.8V109z"/>
		</g>
		<g id="XMLID_1663_">
			<path id="XMLID_1677_" fill="#1D70AD" d="M17.5,133.7h-3c-0.3,0-0.5,0.2-0.5,0.5l-0.4,7.5c0,0.1,0,0.3,0.1,0.4
				c0.1,0.1,0.2,0.2,0.4,0.2h3.7c0.1,0,0.3-0.1,0.4-0.2c0.1-0.1,0.1-0.2,0.1-0.4l-0.4-7.5C18,133.9,17.8,133.7,17.5,133.7z
				 M14.7,141.2l0.3-6.5h2l0.3,6.5H14.7z"/>
			<path id="XMLID_1676_" fill="#1D70AD" d="M15.4,133.2h1.1c0.3,0,0.5-0.2,0.5-0.5c0-0.3-0.2-0.5-0.5-0.5h-1.1
				c-0.3,0-0.5,0.2-0.5,0.5C14.9,133,15.2,133.2,15.4,133.2z"/>
			<path id="XMLID_1664_" fill="#1D70AD" d="M27.3,147.2C27.3,147.2,27.3,147.2,27.3,147.2l-0.3-5.3c0-0.2-0.2-0.4-0.4-0.5v-0.8
				c0-0.3-0.2-0.5-0.5-0.5h-1.9c-0.3,0-0.5,0.2-0.5,0.5v0.8c-0.2,0.1-0.4,0.2-0.4,0.5l-0.2,3.5l-0.5-1l-1.2-13.9
				c0-0.3-0.2-0.5-0.5-0.5h-1.2V129c0-0.3-0.2-0.5-0.5-0.5h-0.4v-1.1c0-0.3-0.2-0.5-0.5-0.5h-1.1c0.8-0.4,1.3-1.2,1.3-2.2
				c0-1.4-1.1-2.4-2.4-2.4c-1.4,0-2.4,1.1-2.4,2.4c0,0.9,0.5,1.8,1.3,2.2h-1.1c-0.3,0-0.5,0.2-0.5,0.5v1.1h-0.3
				c-0.3,0-0.5,0.2-0.5,0.5v1.1h-1.2c-0.3,0-0.5,0.2-0.5,0.5l-1.2,13.9l-0.5,1l-0.2-3.5c0-0.2-0.2-0.4-0.4-0.5v-0.8
				c0-0.3-0.2-0.5-0.5-0.5H6c-0.3,0-0.5,0.2-0.5,0.5v0.8c-0.2,0.1-0.4,0.2-0.4,0.5l-0.3,5.3c0,0,0,0,0,0c0,0,0,0,0,0v2.3
				c0,0.3,0.2,0.5,0.5,0.5h21.5c0.3,0,0.5-0.2,0.5-0.5L27.3,147.2C27.3,147.2,27.3,147.2,27.3,147.2z M14.6,124.7
				c0-0.8,0.6-1.4,1.4-1.4c0.8,0,1.4,0.6,1.4,1.4c0,0.8-0.6,1.4-1.4,1.4C15.2,126.1,14.6,125.5,14.6,124.7z M14.3,127.9h3.5v0.6
				h-3.5V127.9z M24.2,142.5h1.7l0.3,4.3H24L24.2,142.5z M24.7,141.2h0.9v0.2h-0.9V141.2z M13.4,129.5h5.2v0.6h-5.2V129.5z
				 M11.7,131.1h1.2h6.2h1.2l1.1,12.9H10.6L11.7,131.1z M10.3,145.2h11.4l0.8,1.5H9.4L10.3,145.2z M6.1,142.5h1.7l0.3,4.3H5.8
				L6.1,142.5z M6.5,141.2h0.9v0.2H6.5V141.2z M26.2,149H5.8v-1.2h2.8h14.8h2.8V149z"/>
		</g>
</svg>
