<svg width="32" height="232" viewBox="0 0 32 232" xmlns="http://www.w3.org/2000/svg"><g fill="none"><path d="M29.126 145.698L27.78 122.93c-.03-.497-.332-.93-.775-1.11-.184-.073-4.576-1.82-11.16-1.82-6.584 0-11.03 1.745-11.215 1.82-.446.177-.75.612-.78 1.11l-1.347 22.768c-.023.382.12.755.39 1.015 3.528 3.414 8.118 5.295 12.922 5.295s9.394-1.88 12.924-5.295c.26-.26.41-.633.38-1.015zm-3.154-12.172h-4.676v-2.355h4.537l.14 2.36zm.643 10.89H19.94v-2.308l-.006-.048h6.542l.14 2.356zm-7.892-1.67v7.4h-5.818v-7.4h.007c.328.214.68.395 1.047.535l.4 5.2c.02.33.29.59.6.59h1.68c.31 0 .58-.25.6-.58l.41-5.2c.36-.14.71-.32 1.04-.53h.01zM5.796 131.17h4.537v2.356H5.657l.14-2.355zm5.75 0v-1.9h8.535v4.267h-3.84v3.473h-1.13v1.274h2.35v-3.473h2.63v3.07c0 1.48-.68 2.79-1.73 3.6-.18.14-.36.26-.56.37-.19.11-.39.2-.59.27l-.03.02c-.2.07-.4.13-.62.16-.23.04-.47.07-.71.07s-.48-.02-.71-.06c-.21-.04-.42-.09-.62-.16l-.03-.01c-.2-.07-.4-.16-.6-.27-.19-.1-.38-.23-.56-.37-1.05-.81-1.73-2.12-1.73-3.59v-3.06h3.17v-1.27h-3.18v-2.37zm4.268 12.45c.208 0 .412-.014.614-.038l-.33 4.21h-.566l-.33-4.21c.2.024.405.037.61.037zm.608-15.623v-5.444c1.37.024 2.662.13 3.836.282l-2.834 5.16h-1.002zm-1.215 0h-1.002l-2.833-5.16c1.15-.15 2.436-.257 3.835-.282v5.442zM5.582 134.8h4.75v2.356h-4.89l.14-2.356zm-.215 3.63h4.992c.07.853.33 1.652.73 2.356H5.23l.14-2.356zm6.328 3.63l-.005.048v2.308H5.014l.14-2.356h6.54zm-.005 3.63v3.228c-2.25-.603-4.363-1.696-6.203-3.228h6.203zm14.71-4.904h-5.864c.396-.704.655-1.503.733-2.356h4.99l.14 2.356zm-.214-3.63h-4.89V134.8h4.75l.14 2.356zm-.43-7.26h-4.46v-.98l4.166-3.99.294 4.97zm-5.303-1.9h-1.627l2.73-4.968c1.326.223 2.454.494 3.31.745l-4.413 4.224zm-10.377-4.964l2.726 4.965h-1.627L6.77 123.78c.785-.226 1.91-.51 3.306-.748zm.256 5.883v.982h-4.46l.293-4.97 4.167 3.99zm9.606 16.775h6.203c-1.84 1.532-3.95 2.625-6.2 3.228v-3.228z" fill="#206FAC"/><path d="M29.126 105.698L27.78 82.93c-.03-.497-.332-.93-.775-1.11-.184-.073-4.576-1.82-11.16-1.82-6.584 0-11.03 1.745-11.215 1.82-.446.177-.75.612-.78 1.11l-1.347 22.768c-.023.382.12.755.39 1.015 3.528 3.414 8.118 5.295 12.922 5.295s9.394-1.88 12.924-5.295c.26-.26.41-.633.38-1.015zm-3.154-12.172h-4.676V91.17h4.537l.14 2.356zm.643 10.89H19.94v-2.308l-.006-.048h6.542l.14 2.356zm-7.892-1.67v7.4h-5.818v-7.4h.007c.328.214.68.395 1.047.535l.4 5.2c.02.33.29.59.6.59h1.68c.31 0 .58-.25.6-.58l.41-5.2c.36-.14.71-.32 1.04-.53h.01zM5.796 91.17h4.537v2.356H5.657l.14-2.355zm5.75 0v-1.9h8.535v4.267h-3.84v3.473h-1.13v1.274h2.35V94.81h2.63v3.063c0 1.474-.68 2.783-1.73 3.598-.18.14-.36.26-.56.37-.19.11-.39.2-.59.27l-.03.01c-.2.07-.4.13-.62.17-.23.04-.47.07-.71.07s-.48-.02-.71-.06c-.21-.04-.42-.09-.62-.16l-.03-.01c-.2-.07-.4-.16-.6-.27-.19-.1-.38-.23-.56-.37-1.05-.81-1.73-2.12-1.73-3.59v-3.07h3.17v-1.27h-3.18v-2.37zm4.268 12.45c.208 0 .412-.014.614-.038l-.33 4.21h-.566l-.33-4.21c.2.024.405.037.61.037zm.608-15.623v-5.444c1.37.024 2.662.13 3.836.282l-2.834 5.16h-1.002zm-1.215 0h-1.002l-2.833-5.16c1.15-.15 2.436-.257 3.835-.282v5.442zM5.582 94.8h4.75v2.356h-4.89l.14-2.356zm-.215 3.63h4.992c.07.853.33 1.652.73 2.356H5.23l.14-2.356zm6.328 3.63l-.005.048v2.308H5.014l.14-2.356h6.54zm-.005 3.63v3.228c-2.25-.603-4.363-1.696-6.203-3.228h6.203zm14.71-4.904h-5.864c.396-.704.655-1.503.733-2.356h4.99l.14 2.356zm-.214-3.63h-4.89V94.8h4.75l.14 2.356zm-.43-7.26h-4.46v-.98l4.166-3.99.294 4.97zm-5.303-1.9h-1.627l2.73-4.968c1.326.223 2.454.494 3.31.745l-4.413 4.224zm-10.377-4.964l2.726 4.965h-1.627L6.77 83.78c.785-.226 1.91-.51 3.306-.748zm.256 5.883v.982h-4.46l.293-4.97 4.167 3.99zm9.606 16.775h6.203c-1.84 1.532-3.95 2.625-6.2 3.228v-3.228z" fill="#fff"/><path d="M29.126 65.698L27.78 42.93c-.03-.497-.332-.93-.775-1.11-.184-.073-4.576-1.82-11.16-1.82-6.584 0-11.03 1.745-11.215 1.82-.446.177-.75.612-.78 1.11L2.502 65.698c-.023.382.12.755.39 1.015 3.528 3.414 8.118 5.295 12.922 5.295s9.394-1.88 12.924-5.295c.268-.26.41-.633.388-1.015zm-3.154-12.172h-4.676V51.17h4.537l.14 2.356zm.643 10.89H19.94v-2.308l-.006-.048h6.542l.14 2.356zm-7.892-1.67v7.4h-5.818v-7.4h.007c.328.214.68.395 1.047.535l.4 5.2c.02.33.29.59.6.59h1.68c.31 0 .58-.25.6-.58l.41-5.2c.36-.14.71-.32 1.04-.53h.01zM5.796 51.17h4.537v2.356H5.657l.14-2.355zm5.75 0v-1.9h8.535v4.267h-3.84v3.473h-1.13v1.274h2.35V54.81h2.63v3.063c0 1.474-.68 2.783-1.73 3.598-.18.14-.36.26-.56.37-.19.11-.39.2-.59.27l-.03.01c-.2.07-.4.13-.62.17-.23.04-.47.07-.71.07s-.48-.02-.71-.06c-.21-.04-.42-.09-.62-.16l-.03-.01c-.2-.07-.4-.16-.6-.27-.19-.1-.38-.23-.56-.37-1.05-.81-1.73-2.12-1.73-3.59v-3.07h3.17v-1.27h-3.18v-2.37zm4.268 12.45c.208 0 .412-.014.614-.038l-.33 4.21h-.566l-.33-4.21c.2.024.405.037.61.037zm.608-15.623v-5.444c1.37.024 2.662.13 3.836.282l-2.834 5.16h-1.002zm-1.215 0h-1.002l-2.833-5.16c1.15-.15 2.436-.257 3.835-.282v5.442zM5.582 54.8h4.75v2.356h-4.89l.14-2.356zm-.215 3.63h4.992c.07.853.33 1.652.73 2.356H5.23l.14-2.356zm6.328 3.63l-.005.048v2.308H5.014l.14-2.356h6.54zm-.005 3.63v3.228c-2.25-.603-4.363-1.696-6.203-3.228h6.203zm14.71-4.904h-5.864c.396-.704.655-1.503.733-2.356h4.99l.14 2.356zm-.214-3.63h-4.89V54.8h4.75l.14 2.356zm-.43-7.26h-4.46v-.98l4.166-3.99.294 4.97zm-5.303-1.9h-1.627l2.73-4.968c1.326.223 2.454.494 3.31.745l-4.413 4.224zm-10.377-4.964l2.726 4.965h-1.627L6.77 43.78c.785-.226 1.91-.51 3.306-.748zm.256 5.883v.982h-4.46l.293-4.97 4.167 3.99zm9.606 16.775h6.203c-1.84 1.532-3.95 2.625-6.2 3.228V65.69z" fill="#67737B"/><path d="M29.126 25.698L27.78 2.93c-.03-.497-.332-.93-.775-1.11C26.82 1.748 22.43 0 15.845 0S4.815 1.746 4.63 1.82c-.446.177-.75.612-.78 1.11L2.502 25.698c-.023.382.12.755.39 1.015 3.528 3.414 8.118 5.295 12.922 5.295s9.394-1.88 12.924-5.295c.268-.26.41-.633.388-1.015zm-3.154-12.172h-4.676V11.17h4.537l.14 2.356zm.643 10.89H19.94v-2.308l-.006-.048h6.542l.14 2.356zm-7.892-1.67v7.4h-5.818v-7.4h.007c.328.214.68.395 1.047.535l.4 5.2c.02.33.29.59.6.59h1.68c.31 0 .58-.25.6-.58l.41-5.2c.36-.14.71-.32 1.04-.53h.01zM5.796 11.17h4.537v2.356H5.657l.14-2.355zm5.75 0v-1.9h8.535v4.267h-3.84v3.473h-1.13v1.274h2.35V14.81h2.63v3.063c0 1.474-.68 2.783-1.73 3.598-.18.14-.36.26-.56.37-.19.11-.39.2-.59.27l-.03.01c-.2.07-.4.13-.62.17-.23.04-.47.07-.71.07s-.48-.02-.71-.06c-.21-.04-.42-.09-.62-.16l-.03-.01c-.2-.07-.4-.16-.6-.27-.19-.1-.38-.23-.56-.37-1.05-.81-1.73-2.12-1.73-3.59v-3.07h3.17v-1.27h-3.18v-2.37zm4.268 12.45c.208 0 .412-.014.614-.038l-.33 4.21h-.566l-.33-4.21c.2.024.405.037.61.037zm.608-15.623V2.553c1.37.024 2.662.13 3.836.282l-2.834 5.16h-1.002zm-1.215 0h-1.002l-2.833-5.16c1.15-.15 2.436-.257 3.835-.282v5.442zM5.582 14.8h4.75v2.356h-4.89l.14-2.356zm-.215 3.63h4.992c.07.853.33 1.652.73 2.356H5.23l.14-2.356zm6.328 3.63l-.005.048v2.308H5.014l.14-2.356h6.54zm-.005 3.63v3.228c-2.25-.603-4.363-1.696-6.203-3.228h6.203zm14.71-4.904h-5.864c.396-.704.655-1.503.733-2.356h4.99l.14 2.356zm-.214-3.63h-4.89V14.8h4.75l.14 2.356zm-.43-7.26h-4.46v-.98l4.166-3.99.294 4.97zm-5.303-1.9h-1.627l2.73-4.968c1.326.223 2.454.494 3.31.745l-4.413 4.224zM10.076 3.033l2.726 4.965h-1.627L6.77 3.78c.785-.226 1.91-.51 3.306-.748zm.256 5.883v.982h-4.46l.293-4.97 4.167 3.99zm9.606 16.775h6.203c-1.84 1.54-3.95 2.63-6.2 3.23v-3.23z" fill="#3A434E"/></g></svg>