<svg width="32" height="232" viewBox="0 0 32 232" xmlns="http://www.w3.org/2000/svg"><g fill="none"><path d="M31.053 122.07H29.89c-.085-.124-.225-.206-.385-.206h-1.51c-.16 0-.3.082-.386.207h-1.04c-.09-.12-.23-.2-.39-.2h-1.51c-.16 0-.3.08-.39.21h-1.03c-.09-.12-.23-.2-.39-.2h-1.51c-.16 0-.3.08-.39.21h-1.03c-.09-.12-.23-.2-.39-.2h-1.51c-.16 0-.3.08-.39.21H13.8l-.027.01-.137-.02c-.845 0-1.6-.58-2.07-1.05-.23-.59-.584-1-1.076-1-.96 0-1.4 1.57-1.4 3.02s.44 3.02 1.4 3.02c.45 0 .787-.35 1.016-.86.462-.48 1.25-1.11 2.13-1.11l.134-.02h3.777v4.63c-1.22-.14-2.295-.89-2.865-2.03l-.007-.01-.025-.05c-.114-.233-.314-.41-.555-.493-.24-.08-.502-.06-.73.06l-11.46 6.16c-.225.12-.394.33-.47.58-.076.25-.052.52.066.75l.03.05v.004c.84 1.68.35 3.77-1.14 4.86-.42.307-.52.9-.24 1.345 2.73 4.31 5.85 7.57 9.28 9.67 3.41 2.08 6.07 2.39 7.35 2.39.73 0 1.35-.1 1.82-.29l.17-.073.04-.02.04-.02.16-.104c1.35-.93 3.53-4.44 3.69-10.21l.75.68c.09.08.2.12.31.12.11 0 .22-.04.31-.12l5.72-5.15c.1-.1.16-.23.16-.37v-12.38h1.08c.53 0 .95-.44.95-.99s-.42-.99-.95-.99zm-20.626-.93l.094-.136c.08.075.18.258.26.545.11.34.19.83.19 1.46 0 .71-.11 1.25-.23 1.59-.07.21-.15.35-.21.41l-.06-.09c-.16-.26-.38-.91-.38-1.92 0-.96.2-1.59.36-1.88zm1.466 2.494c.018-.206.027-.415.027-.62l-.02-.533c.298.19.63.35.99.45l-.01.13.01.13c-.363.1-.698.26-.998.45zm17.137.406v12.154l-5.25 4.722-3.083-2.773-.433-.39-1.734-1.56V122.85h.56v2.682c0 .272.213.492.475.492h1.803c.262 0 .475-.22.475-.492v-2.682h.56v2.682c0 .272.213.492.475.492h1.803c.27 0 .48-.22.48-.492v-2.682h.56v2.682c0 .272.22.492.48.492H28c.26 0 .474-.22.474-.492v-2.682h.56v1.192zm-9.817 19.915c-.54 2.98-1.607 4.327-1.89 4.64-.11.018-.282.034-.514.034-.71 0-2.19-.15-4.23-1.12-3.84-1.83-6.82-5.24-8.69-7.9 1.04-1.52 1.48-3.4 1.21-5.24l8.08-4.34c1.18 1.18 2.75 1.88 4.39 1.99v4.39c0 .14.06.28.16.37l1.62 1.45c.19 1.85.19 3.79-.15 5.7zm7.454-19.915h.854v.998h-.85v-.998zm-3.313 0h.854v.998h-.854v-.998zm-3.313 0h.86v.998h-.85v-.998zm.49 20.17c-.61 3.388-1.98 5.25-2.55 5.622l-.02.014-.02.01c-.08.037-.42.156-1.13.156-.88 0-3.25-.207-6.38-2.12-2.98-1.83-5.74-4.632-8.2-8.342 1.48-1.534 2.02-3.836 1.36-5.903l9.92-5.325c.97 1.355 2.45 2.207 4.09 2.326v.394c-1.5-.107-2.92-.8-3.95-1.942-.14-.16-.37-.202-.56-.1l-8.7 4.67c-.19.102-.29.32-.24.537.36 1.802-.07 3.66-1.18 5.1-.13.172-.14.414-.01.593 1.93 2.787 5.1 6.526 9.27 8.508 2.21 1.05 3.85 1.205 4.63 1.205.35 0 .67-.032.87-.09l.18-.094c.25-.22.67-.74 1.093-1.58.54-1.06.94-2.31 1.197-3.72.3-1.66.35-3.34.25-4.96l.41.36c.07 1.54 0 3.11-.29 4.67zm7.69 5.955c-.14-.023-.3.03-.4.138-.14.15-.18.382-.09.572l.09.125c.09.093.21.145.34.145.13 0 .25-.052.34-.144.15-.15.18-.37.09-.56-.07-.14-.2-.24-.35-.26zM7.69 126.96c.127 0 .248-.05.337-.143.09-.092.14-.218.14-.35 0-.13-.052-.255-.14-.348-.09-.1-.21-.15-.336-.15-.12 0-.24.05-.33.14-.09.09-.14.22-.14.35 0 .13.05.25.14.34.09.09.21.14.34.14zm-1.84-3.197c.127 0 .248-.052.337-.144.09-.1.14-.22.14-.35 0-.26-.19-.47-.433-.49-.14-.02-.28.04-.378.14-.09.09-.14.22-.14.35 0 .13.05.25.138.34.09.09.21.14.337.14zm22.86 17.146c-.14-.02-.28.03-.38.14-.09.09-.14.21-.14.35 0 .13.05.25.14.34.088.09.21.14.336.14.126 0 .247-.05.336-.15.09-.09.14-.22.14-.35 0-.26-.19-.47-.433-.49zm-2.017 4.5l-.395-.23-.216-.41c-.083-.16-.243-.26-.417-.26s-.333.09-.416.25l-.22.41-.4.22c-.15.08-.25.25-.25.43s.09.34.24.43l.39.22.21.41c.08.16.24.25.41.25s.33-.1.41-.26l.21-.41.39-.22c.15-.09.25-.25.25-.43s-.1-.35-.25-.43zM2.825 128.39l.395.223.216.41c.083.157.243.255.416.255.174 0 .333-.098.417-.256l.21-.41.39-.223c.15-.09.24-.26.24-.44s-.1-.35-.25-.43l-.4-.23-.22-.41c-.09-.16-.25-.26-.42-.26s-.33.1-.42.25l-.22.41-.4.22c-.15.08-.25.25-.25.43s.09.34.25.43zm13.578 15.46l-.915-1.553-2.022-4.05 2.073-1.113.89-.17c.17-.033.31-.16.36-.332.05-.172.01-.36-.11-.49l-.61-.664-.16-.875c-.04-.178-.16-.323-.33-.378-.17-.055-.35-.01-.48.118l-.65.66-2.08 1.11-.89-1.766-.16-.927c-.03-.178-.16-.323-.32-.38-.17-.054-.35-.012-.48.113l-.64.63-.85.167c-.17.034-.31.163-.37.336-.05.173-.01.362.114.492l.635.674.88 1.767-2.073 1.11-.896.17c-.17.03-.31.16-.365.33-.054.17-.01.36.11.49l.61.66.16.87c.033.18.16.32.324.38.17.05.35.01.473-.12l.65-.66 2.073-1.11 2.02 4.05.69 1.67.23 1.36c.03.18.16.33.33.38l.14.02c.12 0 .25-.06.34-.15l.8-.86 1.11-.17c.172-.03.32-.16.38-.33.05-.18.01-.37-.118-.51l-.94-.98zm-1.01 1.183l-.264.282-.08-.47-.04-.11-.73-1.74-.02-.03-2.25-4.505c-.09-.17-.25-.266-.42-.266-.08 0-.15.018-.22.055l-2.56 1.37-.12.08-.07.07-.02-.12c-.02-.1-.06-.18-.12-.25l-.1-.11.1-.02.13-.05 2.55-1.37c.23-.13.32-.42.2-.67l-1.14-2.27-.08-.12-.067-.07.11-.03c.09-.02.17-.06.24-.13l.1-.11.017.1.05.14 1.13 2.27c.06.12.16.2.28.24.12.04.25.03.365-.03l2.56-1.37.11-.08.07-.07.02.11c.02.09.06.18.125.248l.1.11-.1.02-.134.046-2.555 1.37c-.113.06-.2.16-.235.29-.04.12-.025.26.03.37l2.25 4.505.02.03.952 1.61.07.09.31.334-.348.05c-.1.015-.2.066-.27.14zm12.332-17.854h-7.888c-.262 0-.475.22-.475.49v7.5c0 .14.06.28.164.37l3.944 3.54c.09.08.2.12.31.12.112 0 .223-.04.312-.12l3.944-3.55c.104-.1.164-.23.164-.37v-7.5c0-.28-.213-.5-.475-.5zm-.475 7.76l-3.47 3.12-3.468-3.12v-6.79h6.94v6.78z" fill="#206FAC"/><path d="M31.053 82.07H29.89c-.085-.124-.225-.206-.385-.206h-1.51c-.16 0-.3.082-.386.207h-1.04c-.09-.12-.23-.2-.39-.2h-1.51c-.16 0-.3.08-.39.21h-1.03c-.09-.12-.23-.2-.39-.2h-1.51c-.16 0-.3.08-.39.21h-1.03c-.09-.12-.23-.2-.39-.2h-1.51c-.16 0-.3.08-.39.21H13.8l-.027.01-.137-.02c-.845 0-1.6-.58-2.07-1.05-.227-.59-.58-1-1.07-1-.96 0-1.4 1.57-1.4 3.02s.44 3.02 1.4 3.02c.45 0 .786-.34 1.015-.86.47-.472 1.25-1.11 2.13-1.11l.14-.02h3.78v4.63c-1.22-.13-2.29-.882-2.86-2.023v-.01l-.02-.045c-.11-.237-.31-.415-.55-.497-.24-.082-.5-.06-.73.06L1.93 92.33c-.22.12-.39.33-.47.58-.07.25-.05.526.07.758l.03.05v.01c.84 1.68.35 3.77-1.14 4.86-.414.308-.523.9-.242 1.346 2.73 4.325 5.857 7.58 9.287 9.68 3.4 2.084 6.06 2.395 7.35 2.395.72 0 1.35-.1 1.81-.29l.17-.08.04-.02.04-.02.16-.1c1.35-.93 3.53-4.44 3.69-10.21l.75.68c.09.08.2.12.31.12.11 0 .22-.04.31-.12l5.72-5.15c.1-.09.16-.23.16-.37v-12.4h1.07c.52 0 .95-.44.95-.99s-.43-.987-.95-.987zm-20.626-.93l.094-.136c.08.075.18.258.26.545.11.34.19.83.19 1.46 0 .71-.11 1.25-.23 1.59-.07.21-.15.35-.21.41l-.06-.09c-.16-.26-.38-.91-.38-1.92 0-.96.2-1.59.36-1.88zm1.466 2.494c.018-.206.027-.415.027-.62l-.02-.533c.298.19.63.35.99.45l-.01.13.01.13c-.363.1-.698.26-.998.45zm17.137.406v12.154l-5.25 4.722-3.083-2.773-.433-.39-1.734-1.56V82.85h.56v2.682c0 .272.213.492.475.492h1.803c.262 0 .475-.22.475-.492V82.85h.56v2.682c0 .272.213.492.475.492h1.803c.27 0 .48-.22.48-.492V82.85h.56v2.682c0 .272.22.492.48.492H28c.26 0 .474-.22.474-.492V82.85h.56v1.192zm-9.817 19.915c-.54 2.98-1.607 4.327-1.89 4.64-.11.018-.282.034-.514.034-.71 0-2.19-.15-4.23-1.12-3.84-1.83-6.82-5.24-8.69-7.9 1.04-1.52 1.48-3.4 1.21-5.24l8.08-4.34c1.18 1.18 2.75 1.88 4.39 1.99v4.39c0 .14.06.28.16.37l1.62 1.45c.19 1.85.19 3.79-.15 5.7zm7.454-19.915h.854v.998h-.85v-.998zm-3.313 0h.854v.998h-.854v-.998zm-3.313 0h.86v.998h-.85v-.998zm.49 20.17c-.61 3.388-1.98 5.25-2.55 5.622l-.02.014-.02.01c-.08.037-.42.156-1.13.156-.88 0-3.25-.207-6.38-2.12-2.98-1.83-5.74-4.632-8.2-8.342 1.48-1.534 2.02-3.836 1.36-5.903l9.92-5.325c.97 1.355 2.45 2.207 4.09 2.326v.394c-1.5-.107-2.92-.8-3.95-1.942-.14-.16-.37-.202-.56-.1l-8.71 4.67c-.19.102-.29.32-.24.537.36 1.802-.07 3.66-1.17 5.1-.13.172-.13.414-.01.593 1.93 2.787 5.1 6.526 9.27 8.508 2.21 1.05 3.85 1.205 4.63 1.205.35 0 .67-.032.87-.09l.18-.094c.25-.22.67-.74 1.1-1.58.54-1.06.94-2.31 1.2-3.72.3-1.66.36-3.34.25-4.96l.41.36c.07 1.54 0 3.11-.28 4.67zm7.69 5.955c-.14-.023-.3.03-.4.138-.14.15-.18.382-.09.572l.09.125c.09.093.21.145.34.145.13 0 .25-.052.34-.144.15-.15.18-.37.09-.56-.07-.14-.2-.24-.35-.26zM7.69 86.96c.127 0 .248-.05.337-.143.09-.092.14-.218.14-.35 0-.13-.052-.255-.14-.348-.09-.1-.21-.15-.336-.15-.12 0-.24.05-.33.14-.09.09-.14.22-.14.35 0 .13.05.25.14.34.09.09.21.14.34.14zm-1.84-3.197c.127 0 .248-.052.337-.144.09-.1.14-.22.14-.35 0-.26-.19-.47-.433-.49-.14-.02-.28.04-.378.14-.09.09-.14.22-.14.35 0 .13.05.25.138.34.09.09.21.14.337.14zm22.86 17.146c-.14-.02-.28.03-.38.14-.09.09-.14.21-.14.35 0 .13.05.25.14.34.088.09.21.14.336.14.126 0 .247-.05.336-.15.09-.09.14-.22.14-.35 0-.26-.19-.47-.433-.49zm-2.017 4.5l-.395-.23-.216-.41c-.083-.16-.243-.26-.417-.26s-.333.09-.416.25l-.22.41-.4.22c-.15.08-.25.25-.25.43s.09.34.24.43l.39.22.21.41c.08.16.24.25.41.25s.33-.1.41-.26l.21-.41.39-.22c.15-.09.25-.25.25-.43s-.1-.35-.25-.43zM2.825 88.39l.395.223.216.41c.083.157.243.255.416.255.174 0 .333-.098.417-.256l.21-.41.39-.223c.15-.09.24-.26.24-.44s-.1-.35-.25-.43l-.4-.22-.22-.41c-.09-.16-.25-.26-.42-.26s-.33.1-.42.25l-.22.41-.4.22c-.15.08-.25.25-.25.43s.09.34.25.43zm13.578 15.46l-.915-1.553-2.022-4.05 2.073-1.113.89-.17c.17-.033.31-.16.36-.332.05-.172.01-.36-.11-.49l-.61-.664-.16-.875c-.04-.178-.16-.323-.33-.378-.17-.055-.35-.01-.48.118l-.65.66-2.08 1.11-.89-1.766-.16-.927c-.03-.178-.16-.323-.32-.38-.17-.054-.35-.012-.48.113l-.64.63-.85.167c-.17.034-.31.163-.37.336-.05.173-.01.362.114.492l.635.674.88 1.767-2.07 1.11-.896.17c-.17.03-.31.16-.365.33-.054.17-.01.36.11.49l.61.66.16.87c.03.18.152.32.32.38.17.05.35.01.475-.12l.65-.66 2.08-1.11 2.02 4.05.7 1.67.23 1.36c.036.18.16.33.33.38l.14.02c.13 0 .25-.06.34-.15l.8-.86 1.115-.18c.18-.03.326-.16.38-.33.058-.18.01-.37-.11-.5l-.94-.99zm-1.01 1.183l-.264.282-.08-.47-.04-.11-.73-1.74-.02-.03-2.25-4.505c-.09-.17-.25-.266-.42-.266-.08 0-.15.018-.22.055l-2.55 1.37-.12.08-.07.07-.02-.12c-.01-.1-.06-.18-.12-.25l-.1-.11.1-.02.13-.05 2.56-1.37c.23-.13.32-.42.2-.67l-1.13-2.27-.08-.12-.07-.07.11-.02c.09-.02.17-.06.24-.13l.1-.11.01.1.04.14 1.13 2.28c.06.11.16.2.28.24.12.04.25.03.37-.03l2.552-1.38.12-.09.07-.07.02.12c.02.09.06.18.125.24l.1.11-.1.017-.13.05-2.556 1.37c-.11.06-.195.16-.233.287-.04.13-.022.26.03.38l2.25 4.504.02.03.956 1.62.07.09.32.34-.35.06c-.1.02-.2.07-.27.145zM27.725 87.18h-7.888c-.262 0-.475.22-.475.49v7.502c0 .143.06.278.164.372l3.944 3.547c.09.08.2.12.31.12.112 0 .223-.04.312-.12l3.944-3.54c.104-.09.164-.23.164-.37v-7.5c0-.27-.213-.49-.475-.49zm-.475 7.768l-3.47 3.12-3.468-3.12v-6.784h6.94v6.784z" fill="#fff"/><path d="M31.053 42.07H29.89c-.085-.124-.225-.206-.385-.206h-1.51c-.16 0-.3.082-.386.207h-1.04c-.09-.12-.23-.2-.39-.2h-1.51c-.16 0-.3.08-.39.21h-1.03c-.09-.12-.23-.2-.39-.2h-1.51c-.16 0-.3.08-.39.21h-1.03c-.09-.12-.23-.2-.39-.2h-1.51c-.16 0-.3.08-.39.21H13.8l-.027.01-.137-.02c-.845 0-1.6-.58-2.07-1.05-.227-.59-.58-1-1.07-1-.96 0-1.4 1.57-1.4 3.02s.44 3.02 1.4 3.02c.45 0 .786-.34 1.015-.86.47-.472 1.25-1.11 2.13-1.11l.14-.02h3.78v4.63c-1.22-.13-2.29-.882-2.86-2.023v-.01l-.02-.045c-.11-.237-.31-.415-.55-.497-.24-.082-.5-.06-.73.06L1.93 52.33c-.22.12-.39.33-.47.58-.07.25-.05.526.07.758l.03.05v.01c.84 1.68.35 3.77-1.14 4.86-.414.308-.523.9-.242 1.346 2.73 4.32 5.856 7.58 9.286 9.68 3.4 2.08 6.06 2.39 7.35 2.39.72 0 1.35-.1 1.81-.29l.17-.08.04-.02.04-.02.16-.1c1.35-.93 3.53-4.433 3.69-10.21l.75.68c.09.08.2.12.31.12.11 0 .22-.04.31-.12l5.72-5.15c.1-.09.16-.23.16-.37v-12.4h1.07c.52 0 .95-.44.95-.983s-.43-.98-.95-.98zm-20.626-.93l.094-.136c.08.075.18.258.26.545.11.34.19.83.19 1.46 0 .71-.11 1.25-.23 1.59-.07.21-.15.35-.21.41l-.06-.09c-.16-.26-.38-.91-.38-1.92 0-.96.2-1.59.36-1.88zm1.466 2.494c.018-.206.027-.415.027-.62l-.02-.533c.298.19.63.35.99.45l-.01.13.01.13c-.363.1-.698.26-.998.45zm17.137.406v12.154l-5.25 4.722-3.083-2.773-.433-.39-1.734-1.56V42.85h.56v2.682c0 .272.213.492.475.492h1.803c.262 0 .475-.22.475-.492V42.85h.56v2.682c0 .272.213.492.475.492h1.803c.27 0 .48-.22.48-.492V42.85h.56v2.682c0 .272.22.492.48.492H28c.26 0 .474-.22.474-.492V42.85h.56v1.192zm-9.817 19.915c-.54 2.98-1.607 4.327-1.89 4.64-.11.018-.282.034-.514.034-.71 0-2.19-.15-4.23-1.12-3.84-1.83-6.82-5.24-8.69-7.9 1.04-1.52 1.48-3.4 1.21-5.24l8.08-4.34c1.18 1.18 2.75 1.88 4.39 1.99v4.39c0 .14.06.28.16.37l1.62 1.45c.19 1.85.19 3.79-.15 5.7zm7.454-19.915h.854v.998h-.85v-.998zm-3.313 0h.854v.998h-.854v-.998zm-3.313 0h.86v.998h-.85v-.998zm.49 20.17c-.61 3.388-1.98 5.25-2.55 5.622l-.02.014-.02.01c-.08.037-.42.156-1.13.156-.88 0-3.25-.207-6.38-2.12-2.98-1.83-5.74-4.632-8.2-8.342 1.48-1.534 2.02-3.836 1.36-5.903l9.92-5.325c.97 1.355 2.45 2.207 4.09 2.326v.394c-1.5-.107-2.92-.8-3.95-1.942-.14-.16-.37-.202-.56-.1l-8.71 4.67c-.19.102-.29.32-.24.537.36 1.802-.07 3.66-1.17 5.1-.13.172-.13.414-.01.593 1.93 2.787 5.1 6.526 9.27 8.508 2.21 1.05 3.85 1.205 4.63 1.205.35 0 .67-.032.87-.09l.18-.094c.25-.22.67-.74 1.1-1.58.54-1.06.94-2.31 1.2-3.72.3-1.66.36-3.34.25-4.96l.41.36c.07 1.54 0 3.11-.28 4.67zm7.69 5.955c-.14-.023-.3.03-.4.138-.14.15-.18.382-.09.572l.08.125c.09.093.21.145.34.145.13 0 .25-.052.34-.144.15-.15.18-.37.09-.56-.07-.14-.2-.24-.35-.26zM7.69 46.96c.127 0 .248-.05.337-.143.09-.092.14-.218.14-.35 0-.13-.052-.255-.14-.348-.09-.1-.21-.15-.336-.15-.12 0-.24.05-.33.14-.09.09-.14.22-.14.35 0 .13.05.25.14.34.09.09.21.14.34.14zm-1.84-3.197c.127 0 .248-.052.337-.144.09-.1.14-.22.14-.35 0-.26-.19-.47-.433-.49-.14-.02-.28.04-.378.14-.09.09-.14.22-.14.35 0 .13.05.25.138.34.09.09.21.14.337.14zM28.71 60.91c-.14-.014-.28.038-.38.14-.09.092-.14.218-.14.35 0 .13.05.255.14.347.088.093.21.145.336.145.126 0 .247-.052.336-.144.09-.092.14-.218.14-.35 0-.256-.19-.467-.433-.49zm-2.017 4.5l-.395-.225-.216-.41c-.083-.157-.243-.255-.417-.255s-.333.098-.416.256l-.22.41-.4.223c-.15.08-.25.25-.25.43s.09.34.24.43l.39.22.21.41c.08.15.24.25.41.25s.33-.1.41-.26l.21-.41.39-.23c.15-.09.25-.25.25-.43s-.1-.35-.25-.43zM2.825 48.39l.395.223.216.41c.083.157.243.255.416.255.174 0 .333-.098.417-.256l.21-.41.39-.223c.15-.09.24-.26.24-.44s-.1-.35-.25-.43l-.4-.22-.22-.41c-.09-.16-.25-.26-.42-.26s-.33.1-.42.25l-.22.41-.4.22c-.15.08-.25.25-.25.43s.09.34.25.43zm13.578 15.46l-.915-1.553-2.022-4.05 2.073-1.113.89-.17c.17-.033.31-.16.36-.332.05-.172.01-.36-.11-.49l-.61-.664-.16-.875c-.04-.178-.16-.323-.33-.378-.17-.055-.35-.01-.48.118l-.65.66-2.08 1.11-.89-1.766-.16-.927c-.03-.178-.16-.323-.32-.38-.17-.054-.35-.012-.48.113l-.64.63-.85.167c-.17.034-.31.163-.37.336-.05.173-.01.362.114.492l.635.674.88 1.767-2.07 1.11-.896.17c-.17.03-.31.16-.365.33-.054.17-.01.36.11.49l.61.66.16.87c.03.18.152.32.32.38.17.05.35.01.475-.12l.65-.66 2.08-1.11 2.02 4.05.7 1.67.23 1.36c.036.18.16.33.33.38l.14.02c.13 0 .25-.06.34-.15l.8-.86 1.115-.18c.18-.03.326-.16.38-.33.058-.18.01-.37-.11-.5l-.94-.99zm-1.01 1.183l-.264.282-.08-.47-.04-.11-.73-1.74-.02-.03-2.25-4.505c-.09-.17-.25-.266-.42-.266-.08 0-.15.018-.22.055l-2.55 1.37-.12.08-.07.07-.02-.12c-.01-.1-.06-.18-.12-.25l-.1-.11.1-.02.13-.05 2.56-1.37c.23-.13.32-.42.2-.67l-1.13-2.27-.08-.12-.07-.07.11-.02c.09-.02.17-.06.24-.13l.1-.11.01.1.04.14 1.13 2.28c.06.11.16.2.28.24.12.04.25.03.37-.03l2.552-1.38.12-.09.07-.07.02.12c.02.09.06.18.125.24l.1.11-.1.017-.13.05-2.556 1.37c-.11.06-.195.16-.233.287-.04.13-.022.26.03.38l2.25 4.504.02.03.956 1.62.07.09.32.34-.35.06c-.1.02-.2.07-.27.145zM27.725 47.18h-7.888c-.262 0-.475.22-.475.49v7.502c0 .143.06.278.164.372l3.944 3.547c.09.08.2.12.31.12.112 0 .223-.04.312-.12l3.944-3.54c.104-.09.164-.23.164-.37v-7.5c0-.27-.213-.49-.475-.49zm-.475 7.768l-3.47 3.12-3.468-3.12v-6.784h6.94v6.784z" fill="#67737B"/><path d="M31.053 2.07H29.89c-.085-.124-.225-.206-.385-.206h-1.51c-.16 0-.3.082-.386.207h-1.04c-.09-.12-.23-.2-.39-.2h-1.51c-.16 0-.3.08-.39.21h-1.03c-.09-.12-.23-.2-.39-.2h-1.51c-.16 0-.3.08-.39.21h-1.03c-.09-.12-.23-.2-.39-.2h-1.51c-.16 0-.3.08-.39.21H13.8l-.027.01-.137-.02c-.845 0-1.6-.58-2.07-1.05C11.363.41 11.013 0 10.52 0c-.962 0-1.4 1.563-1.4 3.016s.438 3.017 1.4 3.017c.45 0 .787-.345 1.016-.86.464-.476 1.248-1.11 2.13-1.11l.136-.022h3.776v4.63c-1.22-.13-2.295-.88-2.865-2.02l-.005-.01-.022-.04c-.114-.23-.314-.41-.555-.49-.24-.08-.5-.06-.73.06L1.92 12.32c-.224.12-.393.33-.47.58-.075.25-.05.52.067.753l.027.05v.007c.84 1.68.35 3.77-1.14 4.86-.415.303-.524.9-.243 1.34 2.74 4.324 5.86 7.58 9.29 9.68 3.41 2.083 6.07 2.394 7.35 2.394.73 0 1.35-.1 1.82-.286l.18-.076.04-.023.04-.02.17-.11c1.36-.93 3.54-4.44 3.69-10.21l.76.68c.09.08.2.12.31.12.12 0 .23-.04.32-.12l5.73-5.15c.11-.09.17-.23.17-.37V4.04h1.07c.52 0 .95-.44.95-.985s-.43-.985-.95-.985zm-20.626-.93l.094-.136c.08.075.18.258.26.545.11.34.19.83.19 1.46 0 .71-.11 1.25-.23 1.59-.07.21-.15.35-.21.41l-.06-.09c-.16-.26-.38-.91-.38-1.92 0-.96.2-1.59.36-1.88zm1.466 2.494c.018-.206.027-.415.027-.62l-.02-.533c.298.19.63.35.99.45l-.01.13.01.13c-.363.1-.698.26-.998.45zm17.137.406v12.154l-5.25 4.722-3.083-2.773-.433-.39-1.734-1.56V2.85h.56v2.68c0 .272.213.492.475.492h1.803c.262 0 .475-.22.475-.492V2.848h.56V5.53c0 .272.213.492.475.492h1.803c.27 0 .48-.22.48-.492V2.848h.56V5.53c0 .272.22.492.48.492H28c.26 0 .474-.22.474-.492V2.848h.56V4.04zm-9.817 19.915c-.54 2.98-1.607 4.327-1.89 4.64-.11.018-.282.034-.514.034-.71 0-2.19-.15-4.23-1.12-3.84-1.83-6.82-5.24-8.69-7.9 1.04-1.52 1.48-3.4 1.21-5.24l8.08-4.34c1.18 1.18 2.75 1.88 4.39 1.99v4.39c0 .14.06.28.16.37l1.62 1.45c.19 1.85.19 3.79-.15 5.7zM26.667 4.04h.854v.998h-.85V4.04zm-3.313 0h.854v.998h-.854V4.04zm-3.313 0h.86v.998h-.85V4.04zm.49 20.17c-.61 3.388-1.98 5.25-2.55 5.622l-.02.014-.02.01c-.08.037-.42.156-1.13.156-.88 0-3.25-.207-6.38-2.12-2.98-1.83-5.74-4.632-8.2-8.342 1.48-1.534 2.02-3.836 1.36-5.903l9.92-5.325c.97 1.355 2.45 2.207 4.09 2.326v.394c-1.5-.107-2.92-.8-3.95-1.942-.14-.16-.37-.202-.56-.1l-8.71 4.67c-.19.102-.29.32-.24.537.36 1.802-.07 3.66-1.17 5.1-.13.172-.13.414-.01.593 1.93 2.787 5.1 6.526 9.27 8.508 2.21 1.05 3.85 1.205 4.63 1.205.35 0 .67-.032.87-.09l.18-.094c.25-.22.67-.74 1.1-1.58.54-1.06.94-2.31 1.2-3.72.3-1.66.36-3.34.25-4.96l.41.36c.07 1.54 0 3.11-.28 4.67zm7.69 5.955c-.14-.023-.3.03-.4.138-.14.15-.18.382-.09.572l.08.125c.09.093.21.145.34.145.13 0 .25-.052.34-.144.15-.15.18-.37.09-.56-.07-.14-.2-.24-.35-.26zM7.69 6.96c.127 0 .248-.05.337-.143.09-.092.14-.218.14-.35 0-.13-.052-.255-.14-.348-.09-.1-.21-.15-.336-.15-.12 0-.24.05-.33.14-.09.09-.14.22-.14.35 0 .13.05.25.14.34.09.09.21.14.34.14zM5.85 3.764c.127 0 .248-.052.337-.144.09-.093.14-.22.14-.35 0-.257-.19-.468-.433-.49-.14-.014-.28.04-.378.14-.09.093-.14.22-.14.35 0 .13.05.256.138.348.09.093.21.145.337.145zM28.71 20.91c-.14-.014-.28.038-.38.14-.09.092-.14.218-.14.35 0 .13.05.255.14.347.088.093.21.145.336.145.126 0 .247-.052.336-.144.09-.092.14-.218.14-.35 0-.256-.19-.467-.433-.49zm-2.017 4.5l-.395-.225-.216-.41c-.083-.157-.243-.255-.417-.255s-.333.098-.416.256l-.22.41-.4.223c-.15.08-.25.25-.25.43s.09.34.24.43l.39.22.21.41c.08.15.24.25.41.25s.33-.1.41-.26l.21-.41.39-.23c.15-.09.25-.25.25-.43s-.1-.35-.25-.43zM2.825 8.39l.395.223.216.41c.083.157.243.255.416.255.174 0 .333-.098.417-.256l.21-.41.39-.223c.15-.09.24-.26.24-.44s-.1-.35-.25-.43l-.39-.22-.22-.41c-.09-.16-.25-.26-.42-.26s-.33.1-.42.25l-.22.41-.4.22c-.15.08-.25.25-.25.43s.09.34.24.43zm13.578 15.46l-.915-1.553-2.022-4.05 2.073-1.113.89-.17c.17-.033.31-.16.36-.332.05-.172.01-.36-.11-.49l-.61-.664-.16-.875c-.04-.178-.16-.323-.33-.378-.17-.055-.35-.01-.48.118l-.65.66-2.08 1.11-.89-1.766-.16-.927c-.03-.178-.16-.323-.32-.38-.17-.054-.35-.012-.48.113l-.64.63-.85.167c-.17.034-.31.163-.37.336-.05.173-.01.362.114.492l.635.674.88 1.767-2.07 1.11-.896.17c-.17.03-.31.16-.365.33-.054.17-.01.36.11.49l.61.66.16.87c.03.18.152.32.32.38.17.05.35.01.475-.12l.65-.66 2.08-1.11 2.02 4.05.7 1.67.23 1.36c.036.18.16.33.33.38l.14.02c.13 0 .25-.06.34-.15l.8-.86 1.115-.18c.18-.03.326-.16.38-.33.058-.18.01-.37-.11-.5l-.94-.99zm-1.01 1.183l-.264.282-.08-.47-.04-.11-.73-1.74-.02-.03-2.25-4.505c-.09-.17-.25-.266-.42-.266-.08 0-.15.018-.22.055l-2.55 1.37-.12.08-.07.07-.02-.12c-.01-.1-.06-.18-.12-.25l-.1-.11.1-.02.13-.05 2.56-1.37c.23-.13.32-.42.2-.67l-1.13-2.27-.08-.12-.07-.07.11-.02c.09-.02.17-.06.24-.13l.1-.11.01.1.04.14 1.13 2.28c.06.11.16.2.28.24.12.04.25.03.37-.03l2.552-1.38.12-.09.07-.07.02.12c.02.09.06.18.125.24l.1.11-.1.017-.13.05-2.556 1.37c-.11.06-.195.16-.233.287-.04.13-.022.26.03.38l2.25 4.504.02.03.956 1.62.07.09.32.34-.35.06c-.1.02-.2.07-.27.145zM27.725 7.18h-7.888c-.262 0-.475.22-.475.49v7.502c0 .143.06.278.164.372l3.944 3.547c.09.08.2.12.31.12.112 0 .223-.04.312-.12l3.944-3.54c.104-.09.164-.23.164-.37v-7.5c0-.27-.213-.49-.475-.49zm-.475 7.768l-3.47 3.12-3.468-3.12V8.164h6.94v6.784z" fill="#3A434E"/></g></svg>