<svg width="32" height="232" viewBox="0 0 32 232" xmlns="http://www.w3.org/2000/svg"><g fill="none"><path d="M15.398 135.138v.995c0 .262.206.474.46.474h.75c.252 0 .46-.212.46-.474s-.207-.474-.46-.474h-.292v-.53c0-.26-.206-.48-.46-.48s-.458.21-.458.47zm5.705.4l.153-.028.475-.153c.25-.07.39-.33.33-.58-.06-.254-.32-.403-.56-.334-.18.05-.36.11-.54.174-.24.087-.36.358-.28.605.07.195.25.317.44.317zm8.255 3.21c.083.16.242.25.405.25.073 0 .147-.02.216-.057.22-.12.3-.41.18-.64-.09-.17-.19-.34-.29-.5-.14-.22-.42-.28-.64-.14-.22.14-.28.44-.14.66l.25.45zm-5.157-3.595l.5.074.09.008c.22 0 .41-.16.45-.39.05-.256-.12-.503-.36-.55-.18-.036-.37-.064-.56-.085-.25-.028-.48.16-.5.42-.02.26.16.494.41.522zm5.9 6.045l.04.513c.01.26.22.46.46.46h.02c.26-.01.45-.23.44-.49-.01-.19-.02-.39-.04-.58v-.02c-.03-.26-.26-.44-.51-.41-.25.03-.43.28-.4.54zM27 136.15l.414.29c.082.06.177.09.27.09.142 0 .282-.067.372-.194.15-.21.105-.508-.1-.662-.152-.115-.31-.224-.47-.327-.214-.138-.497-.07-.63.152-.135.22-.07.51.146.65zm3.363 7.797c-.24-.086-.5.045-.585.292l-.18.47c-.1.24.006.52.24.62l.18.04c.18 0 .347-.11.423-.29.08-.18.15-.36.21-.55.09-.25-.04-.52-.28-.61zm-5.013 5.61l.12-.017c.182-.05.364-.11.542-.174.24-.088.364-.358.28-.605-.084-.24-.346-.37-.586-.28l-.475.16c-.24.07-.39.33-.32.58.06.21.24.35.45.35zm2.858-2.722l-.364.35c-.192.172-.212.472-.046.67.09.108.22.163.347.163.106 0 .214-.038.3-.116.143-.127.282-.26.415-.4.18-.185.178-.485-.002-.67-.18-.184-.47-.183-.65.003zm-5.447 1.99l-.49-.074c-.25-.04-.49.13-.53.38-.04.26.12.51.37.56.19.04.38.07.56.09l.05.01c.23 0 .43-.18.46-.42.03-.26-.15-.49-.4-.52zM2.79 132.493l-.01.132c0 .595.47 1.08 1.046 1.08h5.3c.254 0 .5-.096.69-.27.226-.206.355-.5.355-.81 0-.31-.13-.604-.35-.81-.19-.175-.43-.27-.69-.27h-2.6c0-.272-.11-.53-.31-.71-.16-.154-.38-.238-.6-.238H2.8c-.508 0-.92.425-.92.948 0 .52.41.945.914.948zm2.826-.948h-.002c-.253 0-.46.212-.46.474 0 .26.207.47.46.47h3.513l.083.03.044.1-.043.09-.08.03h-5.3c-.07 0-.12-.06-.12-.13 0-.08.06-.14.13-.14.26 0 .46-.21.46-.47 0-.27-.2-.48-.46-.48H2.8h2.82zm24.874 18.567h-1.76L27.1 147.3c1.616-1.176 2.675-3.117 2.675-5.31 0-3.58-2.822-6.495-6.292-6.495-1.13 0-2.216.307-3.167.88v-3.783c0-.35-.185-.656-.46-.82v-1.462l-.007-.074-.01-.024-.02-.07-.01-.01-.04-.07-.02-.02-.02-.025-1.59-1.977v-1.668c.01-.15-.04-.3-.15-.4-1.08-.988-1.7-2.406-1.7-3.89v-1.59c0-.262-.21-.474-.46-.474s-.46.213-.46.474v1.59c0 1.484-.62 2.9-1.7 3.89-.11.1-.17.25-.15.4v1.668l-1.59 1.977-.02.025-.02.02-.04.07-.01.012-.02.07-.01.023-.007.074v1.47c-.27.17-.46.47-.46.82v7.02c0 .33.17.62.41.79v.43h-2.6v-.6c0-.26-.207-.47-.46-.47h-.06v-1.6c0-.26-.206-.47-.46-.47h-.4v-1.15c0-.26-.206-.47-.46-.47-.253 0-.46.21-.46.47v1.16h-.64v-1.16c0-.26-.206-.47-.46-.47-.253 0-.458.21-.458.47v1.16h-.39c-.253 0-.46.21-.46.48v1.6h-.06c-.254 0-.46.21-.46.47v2.9H2.02c-.254 0-.46.21-.46.48v6.51h-.28c-.507 0-.918.42-.918.95s.41.95.918.95h29.207c.507 0 .918-.42.918-.95 0-.52-.41-.94-.918-.94zm-17.712-19.32h6.163v.853h-6.16v-.852zm5.703 4.378c-.25-.716-.76-1.303-1.42-1.63h1.43v1.63zm-.75.963c0 1.06-.83 1.926-1.86 1.926s-1.87-.87-1.87-1.93.84-1.93 1.87-1.93 1.87.86 1.87 1.92zm-4.49-.963v-1.63h1.43c-.66.327-1.17.913-1.42 1.63zm0 1.925c.24.676.71 1.235 1.31 1.57h-1.31v-1.57zm5.25 0v1.57h-1.31c.61-.336 1.08-.895 1.31-1.57zm-4.83 3.466h4.42v2.53h-4.42v-2.52zm0 3.48h4.42v2.95h-4.42v-2.94zm14.02 6.08H19.9v-1.03l.75-1.29c.866.45 1.83.7 2.83.7 1.016 0 1.977-.25 2.828-.69l1.35 2.33zm-3.78-8.36c-.08-.14-.23-.23-.39-.23s-.31.09-.39.23l-.87 1.51c-.31-.33-.5-.77-.5-1.26 0-1 .79-1.82 1.77-1.82s1.77.82 1.77 1.82c0 .49-.19.94-.5 1.27l-.87-1.51zm.09 2c-.15.05-.31.07-.48.07-.16 0-.32-.02-.48-.07l.48-.83.49.83zm-.48 1.02c.35 0 .67-.06.97-.18l1.39 2.4c-.71.36-1.51.56-2.35.56-.83 0-1.63-.2-2.35-.56l1.39-2.4c.3.12.63.19.97.19zm0-8.32c2.97 0 5.38 2.49 5.38 5.55 0 1.85-.88 3.49-2.23 4.49l-1.39-2.39c.57-.51.93-1.26.93-2.1 0-1.52-1.2-2.77-2.68-2.77-1.48 0-2.68 1.25-2.68 2.77 0 .84.36 1.59.93 2.1l-1.39 2.4c-.15-.11-.3-.23-.44-.36v-5.72c.25-.17.41-.46.41-.79v-2.1c.92-.69 2.02-1.06 3.17-1.06zm-9.01-9.63h2.78v.99H14.5v-.98zm1.39-2.36c.2.5.47.98.79 1.41h-1.59c.33-.43.6-.9.8-1.4zm-1.68 4.3h3.36l.88 1.1H13.3l.883-1.1zM9.18 141.8h2.644v8.335H9.16V141.8zm-4.31-1.08h.06c.253 0 .46-.21.46-.47v-1.603h2.35v1.603c0 .26.204.47.46.47h.06v9.41H7.8v-8.79c0-.266-.207-.478-.46-.478s-.46.21-.46.47v8.796h-.64v-8.79c0-.265-.206-.48-.46-.48-.253 0-.458.21-.458.478v8.79h-.45v-9.41zm-2.38 3.37h1.46v6.037H2.48v-6.032zm11.165 3.854h4.42v2.18h-4.42v-2.18z" fill="#206FAC"/><path d="M15.398 95.138v.995c0 .262.206.474.46.474h.75c.252 0 .46-.212.46-.474s-.207-.474-.46-.474h-.292v-.53c0-.26-.206-.48-.46-.48s-.458.21-.458.47zm5.705.4l.153-.028.475-.153c.25-.07.39-.33.33-.58-.06-.254-.32-.403-.56-.334-.18.05-.36.11-.54.174-.24.087-.36.358-.28.605.07.195.25.317.44.317zm8.255 3.21c.083.16.242.25.405.25.073 0 .147-.02.216-.057.22-.12.3-.41.18-.64-.09-.17-.19-.34-.29-.5-.14-.22-.42-.28-.64-.14-.22.14-.28.44-.14.66l.25.45zM24.2 95.152l.494.074.083.008c.217 0 .41-.16.45-.39.047-.256-.118-.503-.367-.55-.186-.036-.374-.064-.56-.085-.254-.03-.48.16-.507.42-.027.26.155.49.408.52zm5.9 6.045l.038.513c.01.256.214.455.46.455h.018c.253-.01.45-.23.44-.493-.01-.193-.024-.39-.045-.58v-.02c-.03-.26-.26-.44-.51-.408-.25.032-.43.273-.4.534zM27 96.15l.414.29c.082.06.177.09.27.09.142 0 .282-.067.372-.194.15-.21.105-.508-.1-.662-.152-.115-.31-.224-.47-.327-.214-.138-.497-.07-.63.152-.135.22-.07.51.146.65zm3.363 7.797c-.24-.086-.5.045-.585.292l-.18.47c-.1.24.006.52.24.62l.18.04c.18 0 .347-.11.423-.29.08-.18.15-.36.21-.55.09-.25-.04-.52-.28-.61zm-5.013 5.61l.12-.017c.182-.05.364-.11.542-.174.24-.088.364-.358.28-.605-.084-.24-.346-.37-.586-.28l-.475.16c-.24.07-.39.33-.32.58.06.21.24.35.45.35zm2.858-2.722l-.364.35c-.192.172-.212.472-.046.67.09.108.22.163.347.163.106 0 .214-.038.3-.116.143-.127.282-.26.415-.4.18-.185.178-.485-.002-.67-.18-.184-.47-.183-.65.003zm-5.447 1.99l-.49-.074c-.25-.04-.49.13-.53.38-.04.26.12.51.37.56.19.04.38.07.56.09l.05.01c.23 0 .43-.18.46-.42.03-.26-.15-.49-.4-.52zM2.79 92.493l-.01.132c0 .595.47 1.08 1.046 1.08h5.3c.254 0 .5-.096.69-.27.226-.206.355-.5.355-.81 0-.31-.13-.604-.35-.81-.19-.175-.43-.27-.69-.27h-2.6c0-.272-.11-.53-.31-.71-.16-.154-.38-.238-.6-.238H2.8c-.508 0-.92.425-.92.948 0 .52.41.945.914.948zm2.826-.948h-.002c-.253 0-.46.212-.46.474 0 .26.207.47.46.47h3.513l.083.03.044.1-.043.09-.08.03h-5.3c-.07 0-.12-.06-.12-.13 0-.08.06-.14.13-.14.26 0 .46-.21.46-.47 0-.27-.2-.48-.46-.48H2.8h2.82zm24.874 18.567h-1.76L27.1 107.3c1.616-1.176 2.675-3.117 2.675-5.31 0-3.58-2.822-6.495-6.292-6.495-1.13 0-2.216.307-3.167.88v-3.783c0-.35-.185-.656-.46-.82V90.31l-.007-.074-.01-.024-.02-.07-.01-.01-.04-.07-.02-.02-.02-.025-1.59-1.977v-1.668c.01-.15-.04-.3-.15-.4-1.08-.988-1.7-2.406-1.7-3.89v-1.59c0-.262-.21-.474-.46-.474s-.46.213-.46.474v1.59c0 1.484-.62 2.9-1.7 3.89-.11.1-.17.25-.15.4v1.668l-1.59 1.977-.02.025-.02.02-.04.07-.01.012-.02.07-.01.023-.007.074v1.47c-.27.17-.46.47-.46.82v7.02c0 .33.17.62.41.79v.43h-2.6v-.6c0-.26-.207-.47-.46-.47h-.06v-1.6c0-.26-.206-.47-.46-.47h-.4v-1.16c0-.26-.206-.47-.46-.47-.253 0-.46.21-.46.48v1.16h-.64v-1.16c0-.26-.206-.47-.46-.47-.253 0-.458.21-.458.48v1.16h-.39c-.253 0-.46.21-.46.47v1.6h-.06c-.254 0-.46.21-.46.47v2.9H2.02c-.254 0-.46.21-.46.48v6.51h-.28c-.507 0-.918.42-.918.94s.41.95.918.95h29.207c.507 0 .918-.43.918-.95s-.41-.95-.918-.95zm-17.712-19.32h6.163v.853h-6.16v-.852zm5.703 4.378c-.25-.716-.76-1.303-1.42-1.63h1.43v1.63zm-.75.963c0 1.06-.83 1.926-1.86 1.926S14 97.19 14 96.13s.836-1.93 1.864-1.93 1.863.865 1.863 1.926zm-4.49-.963v-1.63h1.43c-.66.327-1.17.913-1.42 1.63zm0 1.925c.24.676.71 1.235 1.31 1.57h-1.31v-1.57zm5.25 0v1.57h-1.31c.61-.336 1.08-.895 1.31-1.57zm-4.83 3.466h4.42v2.53h-4.42v-2.52zm0 3.48h4.42v2.95h-4.42v-2.94zm14.02 6.08H19.9v-1.03l.75-1.29c.866.45 1.83.7 2.83.7 1.016 0 1.977-.25 2.828-.69l1.35 2.33zm-3.78-8.36c-.08-.14-.23-.23-.39-.23s-.31.09-.39.23l-.87 1.51c-.31-.33-.5-.77-.5-1.26 0-1 .79-1.82 1.77-1.82s1.77.82 1.77 1.82c0 .49-.19.94-.5 1.27l-.87-1.51zm.09 2c-.15.05-.31.07-.48.07-.16 0-.32-.02-.48-.07l.48-.83.49.83zm-.48 1.02c.35 0 .67-.06.97-.18l1.39 2.4c-.71.36-1.51.56-2.35.56-.83 0-1.63-.2-2.35-.56l1.39-2.4c.3.12.63.19.97.19zm0-8.32c2.97 0 5.38 2.49 5.38 5.55 0 1.85-.88 3.49-2.23 4.49l-1.39-2.39c.57-.51.93-1.26.93-2.1 0-1.52-1.2-2.77-2.68-2.77-1.48 0-2.68 1.25-2.68 2.77 0 .84.36 1.59.93 2.1l-1.39 2.4c-.15-.11-.3-.23-.44-.36v-5.72c.25-.17.41-.46.41-.79v-2.11c.92-.69 2.02-1.06 3.17-1.06zm-9.01-9.63h2.78v.99H14.5v-.98zm1.39-2.36c.2.5.47.98.79 1.41h-1.59c.33-.43.6-.9.8-1.4zm-1.68 4.3h3.36l.88 1.1H13.3l.883-1.1zM9.18 101.8h2.644v8.335H9.16V101.8zm-4.31-1.08h.06c.253 0 .46-.21.46-.47v-1.61h2.35v1.6c0 .26.204.47.46.47h.06v9.41H7.8v-8.79c0-.263-.207-.475-.46-.475s-.46.21-.46.474v8.79h-.64v-8.79c0-.27-.206-.48-.46-.48-.253 0-.458.21-.458.47v8.79h-.45v-9.41zm-2.38 3.37h1.46v6.037H2.48v-6.032zm11.165 3.854h4.42v2.18h-4.42v-2.18z" fill="#fff"/><path d="M15.398 55.138v.995c0 .262.206.474.46.474h.75c.252 0 .46-.212.46-.474s-.207-.474-.46-.474h-.292v-.53c0-.26-.206-.48-.46-.48s-.458.21-.458.47zm5.705.4l.153-.028.475-.153c.25-.07.39-.33.33-.58-.06-.254-.32-.403-.56-.334-.18.05-.36.11-.54.174-.24.087-.36.358-.28.605.07.195.25.317.44.317zm8.255 3.21c.083.16.242.25.405.25.073 0 .147-.02.216-.057.22-.12.3-.41.18-.64-.09-.17-.19-.34-.29-.5-.14-.22-.42-.28-.64-.14-.22.14-.28.44-.14.66l.25.45zM24.2 55.152l.494.074.083.008c.217 0 .41-.16.45-.39.047-.256-.118-.503-.367-.55-.186-.036-.374-.064-.56-.085-.254-.03-.48.16-.507.42-.027.26.155.49.408.52zm5.9 6.045l.038.513c.01.256.214.455.46.455h.018c.253-.01.45-.23.44-.493-.01-.193-.024-.39-.045-.58v-.02c-.03-.26-.26-.44-.51-.408-.25.032-.43.273-.4.534zM27 56.15l.414.29c.082.06.177.09.27.09.142 0 .282-.067.372-.194.15-.21.105-.508-.1-.662-.152-.115-.31-.224-.47-.327-.214-.138-.497-.07-.63.152-.135.22-.07.51.146.65zm3.363 7.797c-.24-.086-.5.045-.585.292l-.18.47c-.1.24.006.52.24.62l.18.04c.18 0 .347-.11.423-.29.08-.18.15-.36.21-.55.09-.25-.04-.52-.28-.61zm-5.013 5.61l.12-.017c.182-.05.364-.11.542-.174.24-.088.364-.358.28-.605-.084-.24-.346-.37-.586-.28l-.475.16c-.24.07-.39.33-.32.58.06.21.24.35.45.35zm2.858-2.722l-.364.35c-.192.172-.212.472-.046.67.09.108.22.163.347.163.106 0 .214-.038.3-.116.143-.127.282-.26.415-.4.18-.185.178-.485-.002-.67-.18-.184-.47-.183-.65.003zm-5.447 1.99l-.49-.074c-.25-.04-.49.13-.53.38-.04.26.12.51.37.56.19.04.38.07.56.09l.05.01c.23 0 .43-.18.46-.42.03-.26-.15-.49-.4-.52zM2.79 52.493l-.01.132c0 .595.47 1.08 1.046 1.08h5.3c.254 0 .5-.096.69-.27.226-.206.355-.5.355-.81 0-.31-.13-.604-.35-.81-.19-.175-.43-.27-.69-.27h-2.6c0-.272-.11-.53-.31-.71-.16-.154-.38-.238-.6-.238H2.8c-.508 0-.92.425-.92.948 0 .52.41.945.914.948zm2.826-.948h-.002c-.253 0-.46.212-.46.474 0 .26.207.47.46.47h3.513l.083.03.044.1-.043.09-.08.03h-5.3c-.07 0-.12-.06-.12-.13 0-.08.06-.14.13-.14.26 0 .46-.21.46-.47 0-.27-.2-.48-.46-.48H2.8h2.82zM30.49 70.112h-1.76L27.1 67.3c1.616-1.176 2.675-3.117 2.675-5.31 0-3.58-2.822-6.495-6.292-6.495-1.13 0-2.216.307-3.167.88v-3.783c0-.35-.185-.656-.46-.82V50.31l-.007-.074-.01-.024-.02-.07-.01-.01-.04-.07-.02-.02-.02-.025-1.59-1.977v-1.668c.01-.15-.04-.3-.15-.4-1.08-.988-1.7-2.406-1.7-3.89v-1.59c0-.262-.21-.474-.46-.474s-.46.213-.46.474v1.59c0 1.484-.62 2.9-1.7 3.89-.11.1-.17.25-.15.4v1.668l-1.59 1.977-.02.025-.02.02-.04.07-.01.012-.02.07-.01.023-.007.074v1.47c-.27.17-.46.47-.46.82v7.02c0 .33.17.62.41.79v.43h-2.6v-.6c0-.26-.207-.47-.46-.47h-.06v-1.6c0-.26-.206-.47-.46-.47h-.4v-1.16c0-.26-.206-.47-.46-.47-.253 0-.46.21-.46.48v1.16h-.64v-1.16c0-.26-.206-.47-.46-.47-.253 0-.458.21-.458.48v1.16h-.39c-.253 0-.46.21-.46.47v1.6h-.06c-.254 0-.46.21-.46.47v2.9H2.02c-.254 0-.46.21-.46.48v6.51h-.28c-.507 0-.918.42-.918.94s.41.95.918.95h29.207c.507 0 .918-.43.918-.95s-.41-.95-.918-.95zm-17.712-19.32h6.163v.853h-6.16v-.852zm5.703 4.378c-.25-.716-.76-1.303-1.42-1.63h1.43v1.63zm-.75.963c0 1.06-.83 1.926-1.86 1.926S14 57.19 14 56.13s.836-1.93 1.864-1.93 1.863.865 1.863 1.926zm-4.49-.963v-1.63h1.43c-.66.327-1.17.913-1.42 1.63zm0 1.925c.24.676.71 1.235 1.31 1.57h-1.31v-1.57zm5.25 0v1.57h-1.31c.61-.336 1.08-.895 1.31-1.57zm-4.84 3.465h4.42v2.53h-4.42v-2.53zm0 3.477h4.42v2.947h-4.42v-2.946zm14.02 6.078H19.9v-1.03l.75-1.29c.866.45 1.83.693 2.83.693 1.016 0 1.977-.25 2.828-.696l1.35 2.325zm-3.79-8.365c-.08-.144-.23-.23-.39-.23s-.31.086-.39.23l-.87 1.51c-.31-.33-.5-.777-.5-1.268 0-1.005.79-1.823 1.77-1.823s1.77.81 1.77 1.82c0 .49-.19.94-.49 1.26l-.88-1.51zm.09 1.995c-.15.046-.31.072-.48.072-.16 0-.32-.026-.48-.07l.48-.832.49.83zm-.48 1.02c.35 0 .67-.067.97-.186l1.39 2.39c-.71.36-1.51.56-2.35.56-.83 0-1.63-.2-2.35-.57l1.39-2.4c.3.12.63.18.97.18zm0-8.318c2.97 0 5.38 2.488 5.38 5.547 0 1.847-.88 3.485-2.23 4.493l-1.39-2.397c.57-.51.93-1.26.93-2.1 0-1.527-1.21-2.77-2.69-2.77s-2.68 1.244-2.68 2.77c0 .84.36 1.59.93 2.1l-1.39 2.4c-.15-.114-.3-.235-.43-.363v-5.72c.25-.17.41-.46.41-.792V57.51c.92-.69 2.02-1.067 3.17-1.067zm-9.01-9.632h2.78v.986h-2.78v-.98zm1.39-2.365c.2.5.47.973.79 1.405h-1.59c.32-.43.59-.904.79-1.405zm-1.68 4.3h3.36l.88 1.1H13.3l.88-1.1zM9.16 61.78h2.646v8.335H9.162V61.78zM4.854 60.7h.06c.255 0 .46-.21.46-.472v-1.602h2.35v1.602c0 .26.206.473.46.473h.06v9.41h-.46v-8.79c0-.26-.205-.47-.458-.47-.254 0-.46.21-.46.48v8.8h-.642v-8.8c0-.26-.206-.47-.46-.47-.253 0-.458.21-.458.48v8.79h-.45V60.7zm-2.376 3.374h1.46v6.036h-1.46v-6.036zm11.167 3.853h4.42v2.183h-4.42v-2.183z" fill="#67737B"/><path d="M15.398 15.138v.995c0 .262.206.474.46.474h.75c.252 0 .46-.212.46-.474s-.207-.474-.46-.474h-.292v-.53c0-.26-.206-.48-.46-.48s-.458.21-.458.47zm5.705.4l.153-.028.475-.153c.25-.07.39-.33.33-.58-.06-.254-.32-.403-.56-.334-.18.05-.36.11-.54.174-.24.087-.36.358-.28.605.07.195.25.317.44.317zm8.255 3.21c.083.16.242.25.405.25.073 0 .147-.02.216-.057.22-.12.3-.41.18-.64-.09-.17-.19-.34-.29-.5-.14-.22-.42-.28-.64-.14-.22.14-.28.44-.14.66l.25.45zM24.2 15.152l.494.074.083.008c.217 0 .41-.16.45-.39.047-.256-.118-.503-.367-.55-.186-.036-.374-.064-.56-.085-.254-.03-.48.16-.507.42-.027.26.155.49.408.52zm5.9 6.045l.038.513c.01.256.214.455.46.455h.018c.253-.01.45-.23.44-.493-.01-.193-.024-.39-.045-.58v-.02c-.03-.26-.26-.44-.51-.408-.25.032-.43.273-.4.534zM27 16.15l.414.29c.082.06.177.09.27.09.142 0 .282-.067.372-.194.15-.21.105-.508-.1-.662-.152-.115-.31-.224-.47-.327-.214-.138-.497-.07-.63.152-.135.22-.07.51.146.65zm3.363 7.797c-.24-.086-.5.045-.585.292l-.18.47c-.1.24.006.52.24.62l.18.04c.18 0 .347-.11.423-.29.08-.18.15-.36.21-.55.09-.25-.04-.52-.28-.61zm-5.013 5.61l.12-.017c.182-.05.364-.11.542-.174.24-.088.364-.358.28-.605-.084-.24-.346-.37-.586-.28l-.475.16c-.24.07-.39.33-.32.58.06.21.24.35.45.35zm2.858-2.722l-.364.35c-.192.172-.212.472-.046.67.09.108.22.163.347.163.106 0 .214-.038.3-.116.143-.127.282-.26.415-.4.18-.185.178-.485-.002-.67-.18-.184-.47-.183-.65.003zm-5.447 1.99l-.49-.074c-.25-.04-.49.13-.53.38-.04.26.12.51.37.56.19.04.38.07.56.09l.05.01c.23 0 .43-.18.46-.42.03-.26-.15-.49-.4-.52zM2.79 12.493l-.01.132c0 .595.47 1.08 1.046 1.08h5.3c.254 0 .5-.096.69-.27.226-.206.355-.5.355-.81 0-.31-.13-.604-.35-.81-.19-.175-.43-.27-.69-.27h-2.6c0-.272-.11-.53-.31-.71-.16-.154-.38-.238-.6-.238H2.8c-.508 0-.92.425-.92.948 0 .52.41.945.914.948zm2.826-.948h-.002c-.253 0-.46.212-.46.474 0 .26.207.47.46.47h3.513l.083.03.044.1-.043.09-.08.03h-5.3c-.07 0-.12-.06-.12-.13 0-.08.06-.14.13-.14.26 0 .46-.21.46-.47 0-.27-.2-.48-.46-.48H2.8h2.82zM30.49 30.112h-1.76L27.1 27.3c1.616-1.176 2.675-3.117 2.675-5.31 0-3.58-2.822-6.495-6.292-6.495-1.13 0-2.216.307-3.167.88v-3.783c0-.35-.185-.656-.46-.82V10.31l-.007-.074-.01-.024-.02-.07-.01-.01-.04-.07-.02-.02-.02-.025-1.58-1.977V6.372c.01-.15-.04-.3-.15-.4-1.08-.988-1.7-2.406-1.7-3.89V.49c0-.262-.21-.474-.46-.474s-.45.214-.45.476v1.59c0 1.484-.62 2.9-1.7 3.89-.11.1-.17.25-.15.4V8.04l-1.59 1.977-.02.025-.02.02-.04.07-.01.012-.02.07-.01.023-.01.074v1.47c-.27.17-.46.47-.46.82v7.02c0 .33.17.62.41.79v.43h-2.6v-.6c0-.26-.21-.47-.46-.47h-.06v-1.6c0-.26-.21-.47-.46-.47h-.4v-1.16c0-.26-.21-.47-.46-.47s-.46.21-.46.48v1.16h-.64v-1.16c0-.26-.21-.47-.46-.47-.26 0-.46.21-.46.48v1.16h-.39c-.26 0-.46.21-.46.47v1.6H4.4c-.256 0-.46.21-.46.47v2.9H2.02c-.254 0-.46.21-.46.48v6.51h-.28c-.507 0-.918.42-.918.94s.41.95.918.95h29.207c.507 0 .918-.43.918-.95s-.41-.95-.918-.95zm-17.712-19.32h6.163v.853h-6.16v-.852zm5.703 4.378c-.25-.716-.76-1.303-1.42-1.63h1.43v1.63zm-.75.963c0 1.06-.83 1.926-1.86 1.926S14 17.19 14 16.13s.836-1.93 1.864-1.93 1.863.865 1.863 1.926zm-4.49-.963v-1.63h1.43c-.66.327-1.17.913-1.42 1.63zm0 1.925c.24.676.71 1.235 1.31 1.57h-1.31v-1.57zm5.25 0v1.57h-1.31c.61-.336 1.08-.895 1.31-1.57zm-4.84 3.465h4.42v2.53h-4.42v-2.53zm0 3.477h4.42v2.947h-4.42v-2.946zm14.02 6.078H19.9v-1.03l.75-1.29c.866.45 1.83.693 2.83.693 1.016 0 1.977-.25 2.828-.696l1.35 2.325zm-3.79-8.365c-.08-.144-.23-.23-.39-.23s-.31.086-.39.23l-.87 1.51c-.31-.33-.5-.777-.5-1.268 0-1.005.79-1.823 1.77-1.823s1.77.81 1.77 1.82c0 .49-.19.94-.49 1.26l-.88-1.51zm.09 1.995c-.15.046-.31.072-.48.072-.16 0-.32-.026-.48-.07l.48-.832.49.83zm-.48 1.02c.35 0 .67-.067.97-.186l1.39 2.39c-.71.36-1.51.56-2.35.56-.83 0-1.63-.2-2.35-.57l1.39-2.4c.3.12.63.18.97.18zm0-8.318c2.97 0 5.38 2.488 5.38 5.547 0 1.847-.88 3.485-2.23 4.493l-1.39-2.397c.57-.51.93-1.26.93-2.1 0-1.527-1.21-2.77-2.69-2.77s-2.68 1.244-2.68 2.77c0 .84.36 1.59.93 2.1l-1.39 2.4c-.15-.114-.3-.235-.43-.363v-5.72c.25-.17.41-.46.41-.792V17.51c.92-.69 2.02-1.067 3.17-1.067zM14.47 6.81h2.776v.986H14.47V6.81zm1.388-2.365c.203.5.47.974.794 1.406h-1.59c.326-.43.592-.9.795-1.4zm-1.68 4.3h3.36l.885 1.1h-5.126l.883-1.1zm-5.013 13.03h2.646v8.336H9.16v-8.33zM4.853 20.7h.06c.256 0 .46-.21.46-.472v-1.602h2.35v1.602c0 .26.207.473.46.473h.06v9.41h-.46v-8.79c0-.26-.204-.47-.457-.47-.254 0-.46.21-.46.48v8.8h-.642v-8.8c0-.26-.206-.47-.46-.47-.253 0-.458.21-.458.48v8.79h-.45V20.7zM2.48 24.074h1.46v6.036H2.48v-6.036zm11.167 3.853h4.42v2.183h-4.42v-2.183z" fill="#3A434E"/></g></svg>