<svg width="32" height="232" viewBox="0 0 32 232" xmlns="http://www.w3.org/2000/svg"><g fill="none">
			<path id="XMLID_1973_" fill="#3A444F" d="M17.3,19c-0.4-0.2-0.8-0.3-1.3-0.3c-0.5,0-0.9,0.1-1.3,0.3c-1.1,0.5-1.8,1.6-1.8,2.8
				c0,1.7,1.4,3.1,3.1,3.1c1.7,0,3.1-1.4,3.1-3.1C19.1,20.6,18.3,19.5,17.3,19z M16,24c-1.2,0-2.1-1-2.1-2.1c0-1.2,1-2.1,2.1-2.1
				c1.2,0,2.1,1,2.1,2.1C18.1,23,17.2,24,16,24z"/>
			<path id="XMLID_1972_" fill="#3A444F" d="M16,20.2c-0.3,0-0.5,0.2-0.5,0.5v1L15.2,22c-0.2,0.2-0.2,0.5,0,0.7
				c0.1,0.1,0.2,0.1,0.3,0.1c0.1,0,0.3-0.1,0.4-0.2l0.5-0.5c0.1-0.1,0.1-0.2,0.1-0.3v-1.2C16.5,20.4,16.3,20.2,16,20.2z"/>
			<path id="XMLID_1957_" fill="#3A444F" d="M23.2,29.1V26v-7.1c0.1-0.1,0.2-0.2,0.2-0.4c0-0.2-0.1-0.3-0.2-0.4v-2.7
				c0.1-0.1,0.2-0.2,0.2-0.4c0-0.3-0.2-0.5-0.5-0.5h0L22,11.4c-0.1-0.2-0.2-0.3-0.5-0.3c-0.2,0-0.4,0.1-0.5,0.3l-0.2,0.8v-0.2
				c0,0,0,0,0,0c0,0,0,0,0,0V7.9c0-0.2-0.2-0.4-0.4-0.5c-0.2,0-0.5,0.1-0.5,0.4l-0.2,1.3l-0.6-1.3V5.3c0-0.2-0.2-0.4-0.4-0.5
				c-0.2,0-0.5,0.2-0.5,0.4l-0.1,0.4l-1.7-3.8V0.5C16.5,0.2,16.3,0,16,0c-0.3,0-0.5,0.2-0.5,0.5v1.4l-1.7,3.7l-0.1-0.4
				c0-0.2-0.3-0.4-0.5-0.4c-0.2,0-0.4,0.2-0.4,0.5v2.6c0,0,0,0,0,0l-0.6,1.3l-0.2-1.3c0-0.2-0.3-0.4-0.5-0.4c-0.2,0-0.4,0.2-0.4,0.5
				v3.9c0,0,0,0,0,0c0,0,0,0,0,0v0.2l-0.2-0.8c-0.1-0.2-0.2-0.3-0.5-0.3c-0.2,0-0.4,0.1-0.5,0.3l-0.9,3.1h0c-0.3,0-0.5,0.2-0.5,0.5
				c0,0.2,0.1,0.3,0.2,0.4V18c-0.1,0.1-0.2,0.2-0.2,0.4c0,0.2,0.1,0.3,0.2,0.4V26v3.1c-0.2,0-0.4,0.2-0.4,0.5c0,0.3,0.2,0.5,0.5,0.5
				h0.4h1.8h1.6h1.6H16h1.6h1.6h1.6h1.8h0.4c0.3,0,0.5-0.2,0.5-0.5C23.5,29.3,23.4,29.1,23.2,29.1z M9.8,18.9h1.4v6.6H9.8V18.9z
				 M9.8,15.5h1.4V18H9.8V15.5z M14.1,7.3l0.5-1.2h2.7l0.5,1.2l0.1,0.1h-0.1h-3.7h-0.1L14.1,7.3z M16,3.1l0.9,2h-1.8L16,3.1z
				 M13.7,8.4h4.6c0,0,0,0,0,0l0.6,1.3h-5.8L13.7,8.4z M22.2,18h-1.4v-2.5h1.4V18z M19.3,10.7l0.1,0.2l0.5,1.2v0.3v5.8L18.1,17v-3.6
				c0-1.1-0.9-2.1-2.1-2.1c-1.1,0-2.1,0.9-2.1,2.1v3.6l-1.9,1.1v-5.8V12l0.5-1.2l0.1-0.2H19.3z M16,13.8c-0.3,0-0.5,0.2-0.5,0.5v1.9
				l-0.7,0.4v-3.1c0-0.6,0.5-1.1,1.1-1.1c0.6,0,1.1,0.5,1.1,1.1v3.1l-0.6-0.4v-1.9C16.5,14,16.3,13.8,16,13.8z M12.1,19.2l0.3-0.2
				L16,17l3.6,2.1l0.3,0.2v6.3h-7.9V19.2z M20.9,18.9h1.4v6.6h-1.4V18.9z M21.5,13.2l0.4,1.3h-0.7L21.5,13.2z M10.5,13.2l0.4,1.3
				h-0.7L10.5,13.2z M21.4,29.1v-0.8c0-0.3-0.2-0.5-0.5-0.5c-0.3,0-0.5,0.2-0.5,0.5v0.8h-0.7v-0.8c0-0.3-0.2-0.5-0.5-0.5
				c-0.3,0-0.5,0.2-0.5,0.5v0.8h-0.7v-0.8c0-0.3-0.2-0.5-0.5-0.5c-0.3,0-0.5,0.2-0.5,0.5v0.8h-0.7v-0.8c0-0.3-0.2-0.5-0.5-0.5
				c-0.3,0-0.5,0.2-0.5,0.5v0.8h-0.7v-0.8c0-0.3-0.2-0.5-0.5-0.5c-0.3,0-0.5,0.2-0.5,0.5v0.8h-0.7v-0.8c0-0.3-0.2-0.5-0.5-0.5
				c-0.3,0-0.5,0.2-0.5,0.5v0.8h-0.7v-0.8c0-0.3-0.2-0.5-0.5-0.5c-0.3,0-0.5,0.2-0.5,0.5v0.8H9.8v-2.6h1.8h0h0h8.8h0h1.8v2.6H21.4z"
				/>
		</g>
		<g id="XMLID_2341_">
			<path id="XMLID_2358_" fill="#67737C" d="M17.3,59c-0.4-0.2-0.8-0.3-1.3-0.3c-0.5,0-0.9,0.1-1.3,0.3c-1.1,0.5-1.8,1.6-1.8,2.8
				c0,1.7,1.4,3.1,3.1,3.1c1.7,0,3.1-1.4,3.1-3.1C19.1,60.6,18.3,59.5,17.3,59z M16,64c-1.2,0-2.1-1-2.1-2.1c0-1.2,1-2.1,2.1-2.1
				c1.2,0,2.1,1,2.1,2.1C18.1,63,17.2,64,16,64z"/>
			<path id="XMLID_2357_" fill="#67737C" d="M16,60.2c-0.3,0-0.5,0.2-0.5,0.5v1L15.2,62c-0.2,0.2-0.2,0.5,0,0.7
				c0.1,0.1,0.2,0.1,0.3,0.1c0.1,0,0.3-0.1,0.4-0.2l0.5-0.5c0.1-0.1,0.1-0.2,0.1-0.3v-1.2C16.5,60.4,16.3,60.2,16,60.2z"/>
			<path id="XMLID_2342_" fill="#67737C" d="M23.2,69.1V66v-7.1c0.1-0.1,0.2-0.2,0.2-0.4c0-0.2-0.1-0.3-0.2-0.4v-2.7
				c0.1-0.1,0.2-0.2,0.2-0.4c0-0.3-0.2-0.5-0.5-0.5h0L22,51.4c-0.1-0.2-0.2-0.3-0.5-0.3c-0.2,0-0.4,0.1-0.5,0.3l-0.2,0.8v-0.2
				c0,0,0,0,0,0c0,0,0,0,0,0v-3.9c0-0.2-0.2-0.4-0.4-0.5c-0.2,0-0.5,0.1-0.5,0.4l-0.2,1.3l-0.6-1.3v-2.6c0-0.2-0.2-0.4-0.4-0.5
				c-0.2,0-0.5,0.2-0.5,0.4l-0.1,0.4l-1.7-3.8v-1.4c0-0.3-0.2-0.5-0.5-0.5c-0.3,0-0.5,0.2-0.5,0.5v1.4l-1.7,3.7l-0.1-0.4
				c0-0.2-0.3-0.4-0.5-0.4c-0.2,0-0.4,0.2-0.4,0.5v2.6c0,0,0,0,0,0l-0.6,1.3l-0.2-1.3c0-0.2-0.3-0.4-0.5-0.4c-0.2,0-0.4,0.2-0.4,0.5
				v3.9c0,0,0,0,0,0c0,0,0,0,0,0v0.2l-0.2-0.8c-0.1-0.2-0.2-0.3-0.5-0.3c-0.2,0-0.4,0.1-0.5,0.3l-0.9,3.1h0c-0.3,0-0.5,0.2-0.5,0.5
				c0,0.2,0.1,0.3,0.2,0.4V58c-0.1,0.1-0.2,0.2-0.2,0.4c0,0.2,0.1,0.3,0.2,0.4V66v3.1c-0.2,0-0.4,0.2-0.4,0.5c0,0.3,0.2,0.5,0.5,0.5
				h0.4h1.8h1.6h1.6H16h1.6h1.6h1.6h1.8h0.4c0.3,0,0.5-0.2,0.5-0.5C23.5,69.3,23.4,69.1,23.2,69.1z M9.8,58.9h1.4v6.6H9.8V58.9z
				 M9.8,55.5h1.4V58H9.8V55.5z M14.1,47.3l0.5-1.2h2.7l0.5,1.2l0.1,0.1h-0.1h-3.7h-0.1L14.1,47.3z M16,43.1l0.9,2h-1.8L16,43.1z
				 M13.7,48.4h4.6c0,0,0,0,0,0l0.6,1.3h-5.8L13.7,48.4z M22.2,58h-1.4v-2.5h1.4V58z M19.3,50.7l0.1,0.2l0.5,1.2v0.3v5.8L18.1,57
				v-3.6c0-1.1-0.9-2.1-2.1-2.1c-1.1,0-2.1,0.9-2.1,2.1v3.6l-1.9,1.1v-5.8V52l0.5-1.2l0.1-0.2H19.3z M16,53.8
				c-0.3,0-0.5,0.2-0.5,0.5v1.9l-0.7,0.4v-3.1c0-0.6,0.5-1.1,1.1-1.1c0.6,0,1.1,0.5,1.1,1.1v3.1l-0.6-0.4v-1.9
				C16.5,54,16.3,53.8,16,53.8z M12.1,59.2l0.3-0.2L16,57l3.6,2.1l0.3,0.2v6.3h-7.9V59.2z M20.9,58.9h1.4v6.6h-1.4V58.9z M21.5,53.2
				l0.4,1.3h-0.7L21.5,53.2z M10.5,53.2l0.4,1.3h-0.7L10.5,53.2z M21.4,69.1v-0.8c0-0.3-0.2-0.5-0.5-0.5c-0.3,0-0.5,0.2-0.5,0.5v0.8
				h-0.7v-0.8c0-0.3-0.2-0.5-0.5-0.5c-0.3,0-0.5,0.2-0.5,0.5v0.8h-0.7v-0.8c0-0.3-0.2-0.5-0.5-0.5c-0.3,0-0.5,0.2-0.5,0.5v0.8h-0.7
				v-0.8c0-0.3-0.2-0.5-0.5-0.5c-0.3,0-0.5,0.2-0.5,0.5v0.8h-0.7v-0.8c0-0.3-0.2-0.5-0.5-0.5c-0.3,0-0.5,0.2-0.5,0.5v0.8h-0.7v-0.8
				c0-0.3-0.2-0.5-0.5-0.5c-0.3,0-0.5,0.2-0.5,0.5v0.8h-0.7v-0.8c0-0.3-0.2-0.5-0.5-0.5c-0.3,0-0.5,0.2-0.5,0.5v0.8H9.8v-2.6h1.8h0
				h0h8.8h0h1.8v2.6H21.4z"/>
		</g>
		<g id="XMLID_2510_">
			<path id="XMLID_2527_" fill="#FFFFFF" d="M17.3,99c-0.4-0.2-0.8-0.3-1.3-0.3c-0.5,0-0.9,0.1-1.3,0.3c-1.1,0.5-1.8,1.6-1.8,2.8
				c0,1.7,1.4,3.1,3.1,3.1c1.7,0,3.1-1.4,3.1-3.1C19.1,100.6,18.3,99.5,17.3,99z M16,104c-1.2,0-2.1-1-2.1-2.1c0-1.2,1-2.1,2.1-2.1
				c1.2,0,2.1,1,2.1,2.1C18.1,103,17.2,104,16,104z"/>
			<path id="XMLID_2526_" fill="#FFFFFF" d="M16,100.2c-0.3,0-0.5,0.2-0.5,0.5v1l-0.4,0.4c-0.2,0.2-0.2,0.5,0,0.7
				c0.1,0.1,0.2,0.1,0.3,0.1c0.1,0,0.3-0.1,0.4-0.2l0.5-0.5c0.1-0.1,0.1-0.2,0.1-0.3v-1.2C16.5,100.4,16.3,100.2,16,100.2z"/>
			<path id="XMLID_2511_" fill="#FFFFFF" d="M23.2,109.1V106v-7.1c0.1-0.1,0.2-0.2,0.2-0.4s-0.1-0.3-0.2-0.4v-2.7
				c0.1-0.1,0.2-0.2,0.2-0.4c0-0.3-0.2-0.5-0.5-0.5h0L22,91.4c-0.1-0.2-0.2-0.3-0.5-0.3c-0.2,0-0.4,0.1-0.5,0.3l-0.2,0.8v-0.2
				c0,0,0,0,0,0c0,0,0,0,0,0v-3.9c0-0.2-0.2-0.4-0.4-0.5c-0.2,0-0.5,0.1-0.5,0.4l-0.2,1.3l-0.6-1.3v-2.6c0-0.2-0.2-0.4-0.4-0.5
				c-0.2,0-0.5,0.2-0.5,0.4l-0.1,0.4l-1.7-3.8v-1.4c0-0.3-0.2-0.5-0.5-0.5c-0.3,0-0.5,0.2-0.5,0.5v1.4l-1.7,3.7l-0.1-0.4
				c0-0.2-0.3-0.4-0.5-0.4c-0.2,0-0.4,0.2-0.4,0.5v2.6c0,0,0,0,0,0l-0.6,1.3l-0.2-1.3c0-0.2-0.3-0.4-0.5-0.4c-0.2,0-0.4,0.2-0.4,0.5
				v3.9c0,0,0,0,0,0c0,0,0,0,0,0v0.2l-0.2-0.8c-0.1-0.2-0.2-0.3-0.5-0.3c-0.2,0-0.4,0.1-0.5,0.3l-0.9,3.1h0c-0.3,0-0.5,0.2-0.5,0.5
				c0,0.2,0.1,0.3,0.2,0.4V98c-0.1,0.1-0.2,0.2-0.2,0.4s0.1,0.3,0.2,0.4v7.1v3.1c-0.2,0-0.4,0.2-0.4,0.5c0,0.3,0.2,0.5,0.5,0.5h0.4
				h1.8h1.6h1.6H16h1.6h1.6h1.6h1.8h0.4c0.3,0,0.5-0.2,0.5-0.5C23.5,109.3,23.4,109.1,23.2,109.1z M9.8,98.9h1.4v6.6H9.8V98.9z
				 M9.8,95.5h1.4V98H9.8V95.5z M14.1,87.3l0.5-1.2h2.7l0.5,1.2l0.1,0.1h-0.1h-3.7h-0.1L14.1,87.3z M16,83.1l0.9,2h-1.8L16,83.1z
				 M13.7,88.4h4.6c0,0,0,0,0,0l0.6,1.3h-5.8L13.7,88.4z M22.2,98h-1.4v-2.5h1.4V98z M19.3,90.7l0.1,0.2l0.5,1.2v0.3v5.8L18.1,97
				v-3.6c0-1.1-0.9-2.1-2.1-2.1c-1.1,0-2.1,0.9-2.1,2.1v3.6l-1.9,1.1v-5.8V92l0.5-1.2l0.1-0.2H19.3z M16,93.8
				c-0.3,0-0.5,0.2-0.5,0.5v1.9l-0.7,0.4v-3.1c0-0.6,0.5-1.1,1.1-1.1c0.6,0,1.1,0.5,1.1,1.1v3.1l-0.6-0.4v-1.9
				C16.5,94,16.3,93.8,16,93.8z M12.1,99.2l0.3-0.2L16,97l3.6,2.1l0.3,0.2v6.3h-7.9V99.2z M20.9,98.9h1.4v6.6h-1.4V98.9z M21.5,93.2
				l0.4,1.3h-0.7L21.5,93.2z M10.5,93.2l0.4,1.3h-0.7L10.5,93.2z M21.4,109.1v-0.8c0-0.3-0.2-0.5-0.5-0.5c-0.3,0-0.5,0.2-0.5,0.5
				v0.8h-0.7v-0.8c0-0.3-0.2-0.5-0.5-0.5c-0.3,0-0.5,0.2-0.5,0.5v0.8h-0.7v-0.8c0-0.3-0.2-0.5-0.5-0.5c-0.3,0-0.5,0.2-0.5,0.5v0.8
				h-0.7v-0.8c0-0.3-0.2-0.5-0.5-0.5c-0.3,0-0.5,0.2-0.5,0.5v0.8h-0.7v-0.8c0-0.3-0.2-0.5-0.5-0.5c-0.3,0-0.5,0.2-0.5,0.5v0.8h-0.7
				v-0.8c0-0.3-0.2-0.5-0.5-0.5c-0.3,0-0.5,0.2-0.5,0.5v0.8h-0.7v-0.8c0-0.3-0.2-0.5-0.5-0.5c-0.3,0-0.5,0.2-0.5,0.5v0.8H9.8v-2.6
				h1.8h0h0h8.8h0h1.8v2.6H21.4z"/>
		</g>
		<g id="XMLID_2627_">
			<path id="XMLID_2644_" fill="#1D70AD" d="M17.3,139c-0.4-0.2-0.8-0.3-1.3-0.3c-0.5,0-0.9,0.1-1.3,0.3c-1.1,0.5-1.8,1.6-1.8,2.8
				c0,1.7,1.4,3.1,3.1,3.1c1.7,0,3.1-1.4,3.1-3.1C19.1,140.6,18.3,139.5,17.3,139z M16,144c-1.2,0-2.1-1-2.1-2.1
				c0-1.2,1-2.1,2.1-2.1c1.2,0,2.1,1,2.1,2.1C18.1,143,17.2,144,16,144z"/>
			<path id="XMLID_2643_" fill="#1D70AD" d="M16,140.2c-0.3,0-0.5,0.2-0.5,0.5v1l-0.4,0.4c-0.2,0.2-0.2,0.5,0,0.7
				c0.1,0.1,0.2,0.1,0.3,0.1c0.1,0,0.3-0.1,0.4-0.2l0.5-0.5c0.1-0.1,0.1-0.2,0.1-0.3v-1.2C16.5,140.4,16.3,140.2,16,140.2z"/>
			<path id="XMLID_2628_" fill="#1D70AD" d="M23.2,149.1V146v-7.1c0.1-0.1,0.2-0.2,0.2-0.4s-0.1-0.3-0.2-0.4v-2.7
				c0.1-0.1,0.2-0.2,0.2-0.4c0-0.3-0.2-0.5-0.5-0.5h0l-0.9-3.1c-0.1-0.2-0.2-0.3-0.5-0.3c-0.2,0-0.4,0.1-0.5,0.3l-0.2,0.8v-0.2
				c0,0,0,0,0,0c0,0,0,0,0,0v-3.9c0-0.2-0.2-0.4-0.4-0.5c-0.2,0-0.5,0.1-0.5,0.4l-0.2,1.3l-0.6-1.3v-2.6c0-0.2-0.2-0.4-0.4-0.5
				c-0.2,0-0.5,0.2-0.5,0.4l-0.1,0.4l-1.7-3.8v-1.4c0-0.3-0.2-0.5-0.5-0.5c-0.3,0-0.5,0.2-0.5,0.5v1.4l-1.7,3.7l-0.1-0.4
				c0-0.2-0.3-0.4-0.5-0.4c-0.2,0-0.4,0.2-0.4,0.5v2.6c0,0,0,0,0,0l-0.6,1.3l-0.2-1.3c0-0.2-0.3-0.4-0.5-0.4c-0.2,0-0.4,0.2-0.4,0.5
				v3.9c0,0,0,0,0,0c0,0,0,0,0,0v0.2l-0.2-0.8c-0.1-0.2-0.2-0.3-0.5-0.3c-0.2,0-0.4,0.1-0.5,0.3l-0.9,3.1h0c-0.3,0-0.5,0.2-0.5,0.5
				c0,0.2,0.1,0.3,0.2,0.4v2.7c-0.1,0.1-0.2,0.2-0.2,0.4s0.1,0.3,0.2,0.4v7.1v3.1c-0.2,0-0.4,0.2-0.4,0.5c0,0.3,0.2,0.5,0.5,0.5h0.4
				h1.8h1.6h1.6H16h1.6h1.6h1.6h1.8h0.4c0.3,0,0.5-0.2,0.5-0.5C23.5,149.3,23.4,149.1,23.2,149.1z M9.8,138.9h1.4v6.6H9.8V138.9z
				 M9.8,135.5h1.4v2.5H9.8V135.5z M14.1,127.3l0.5-1.2h2.7l0.5,1.2l0.1,0.1h-0.1h-3.7h-0.1L14.1,127.3z M16,123.1l0.9,2h-1.8
				L16,123.1z M13.7,128.4h4.6c0,0,0,0,0,0l0.6,1.3h-5.8L13.7,128.4z M22.2,138h-1.4v-2.5h1.4V138z M19.3,130.7l0.1,0.2l0.5,1.2v0.3
				v5.8l-1.9-1.1v-3.6c0-1.1-0.9-2.1-2.1-2.1c-1.1,0-2.1,0.9-2.1,2.1v3.6l-1.9,1.1v-5.8V132l0.5-1.2l0.1-0.2H19.3z M16,133.8
				c-0.3,0-0.5,0.2-0.5,0.5v1.9l-0.7,0.4v-3.1c0-0.6,0.5-1.1,1.1-1.1c0.6,0,1.1,0.5,1.1,1.1v3.1l-0.6-0.4v-1.9
				C16.5,134,16.3,133.8,16,133.8z M12.1,139.2l0.3-0.2L16,137l3.6,2.1l0.3,0.2v6.3h-7.9V139.2z M20.9,138.9h1.4v6.6h-1.4V138.9z
				 M21.5,133.2l0.4,1.3h-0.7L21.5,133.2z M10.5,133.2l0.4,1.3h-0.7L10.5,133.2z M21.4,149.1v-0.8c0-0.3-0.2-0.5-0.5-0.5
				c-0.3,0-0.5,0.2-0.5,0.5v0.8h-0.7v-0.8c0-0.3-0.2-0.5-0.5-0.5c-0.3,0-0.5,0.2-0.5,0.5v0.8h-0.7v-0.8c0-0.3-0.2-0.5-0.5-0.5
				c-0.3,0-0.5,0.2-0.5,0.5v0.8h-0.7v-0.8c0-0.3-0.2-0.5-0.5-0.5c-0.3,0-0.5,0.2-0.5,0.5v0.8h-0.7v-0.8c0-0.3-0.2-0.5-0.5-0.5
				c-0.3,0-0.5,0.2-0.5,0.5v0.8h-0.7v-0.8c0-0.3-0.2-0.5-0.5-0.5c-0.3,0-0.5,0.2-0.5,0.5v0.8h-0.7v-0.8c0-0.3-0.2-0.5-0.5-0.5
				c-0.3,0-0.5,0.2-0.5,0.5v0.8H9.8v-2.6h1.8h0h0h8.8h0h1.8v2.6H21.4z"/>
		</g>
</svg>
