<svg width="32" height="232" viewBox="0 0 32 232" xmlns="http://www.w3.org/2000/svg"><g fill="none">
<path id="XMLID_574_" fill="#3A444F" d="M18.2,27.4c0.2-0.1,0.3-0.1,0.6-0.1c0.3,0,0.4,0.1,0.6,0.1c0.2,0.1,0.5,0.2,1,0.2
				c0.5,0,0.7-0.1,1-0.2c0.2-0.1,0.3-0.1,0.6-0.1c0.3,0,0.4,0.1,0.6,0.1c0.2,0.1,0.5,0.2,1,0.2c0.5,0,0.7-0.1,1-0.2
				c0.2-0.1,0.3-0.1,0.6-0.1c0.3,0,0.5-0.2,0.5-0.5c0-0.3-0.2-0.5-0.5-0.5c-0.5,0-0.7,0.1-1,0.2c-0.2,0.1-0.3,0.1-0.6,0.1
				c-0.3,0-0.4-0.1-0.6-0.1c-0.2-0.1-0.5-0.2-1-0.2c-0.5,0-0.7,0.1-1,0.2c-0.2,0.1-0.3,0.1-0.6,0.1c-0.3,0-0.4-0.1-0.6-0.1
				c-0.2-0.1-0.5-0.2-1-0.2c-0.5,0-0.7,0.1-1,0.2c-0.2,0.1-0.3,0.1-0.6,0.1c-0.3,0-0.4-0.1-0.6-0.1c-0.2-0.1-0.5-0.2-1-0.2
				c-0.5,0-0.7,0.1-1,0.2c-0.2,0.1-0.3,0.1-0.6,0.1c-0.3,0-0.4-0.1-0.6-0.1c-0.2-0.1-0.5-0.2-1-0.2c-0.5,0-0.7,0.1-1,0.2
				c-0.2,0.1-0.3,0.1-0.6,0.1c-0.3,0-0.4-0.1-0.6-0.1c-0.2-0.1-0.5-0.2-1-0.2c-0.5,0-0.7,0.1-1,0.2c-0.2,0.1-0.3,0.1-0.6,0.1
				c-0.3,0-0.4-0.1-0.6-0.1c-0.2-0.1-0.5-0.2-1-0.2c-0.3,0-0.5,0.2-0.5,0.5c0,0.3,0.2,0.5,0.5,0.5c0.3,0,0.4,0.1,0.6,0.1
				c0.2,0.1,0.5,0.2,1,0.2c0.5,0,0.7-0.1,1-0.2c0.2-0.1,0.3-0.1,0.6-0.1c0.3,0,0.4,0.1,0.6,0.1c0.2,0.1,0.5,0.2,1,0.2
				c0.5,0,0.7-0.1,1-0.2c0.2-0.1,0.3-0.1,0.6-0.1c0.3,0,0.4,0.1,0.6,0.1c0.2,0.1,0.5,0.2,1,0.2c0.5,0,0.7-0.1,1-0.2
				c0.2-0.1,0.3-0.1,0.6-0.1c0.3,0,0.4,0.1,0.6,0.1c0.2,0.1,0.5,0.2,1,0.2C17.7,27.6,18,27.4,18.2,27.4z"/>
			<path id="XMLID_573_" fill="#3A444F" d="M26.5,28.8c-0.5,0-0.7,0.1-1,0.2c-0.2,0.1-0.3,0.1-0.6,0.1c-0.3,0-0.4-0.1-0.6-0.1
				c-0.2-0.1-0.5-0.2-1-0.2c-0.5,0-0.7,0.1-1,0.2c-0.2,0.1-0.3,0.1-0.6,0.1s-0.4-0.1-0.6-0.1c-0.2-0.1-0.5-0.2-1-0.2
				c-0.5,0-0.7,0.1-1,0.2c-0.2,0.1-0.3,0.1-0.6,0.1c-0.3,0-0.4-0.1-0.6-0.1c-0.2-0.1-0.5-0.2-1-0.2c-0.3,0-0.5,0.2-0.5,0.5
				c0,0.3,0.2,0.5,0.5,0.5c0.3,0,0.4,0.1,0.6,0.1c0.2,0.1,0.5,0.2,1,0.2c0.5,0,0.7-0.1,1-0.2c0.2-0.1,0.3-0.1,0.6-0.1
				c0.3,0,0.4,0.1,0.6,0.1c0.2,0.1,0.5,0.2,1,0.2c0.5,0,0.7-0.1,1-0.2c0.2-0.1,0.3-0.1,0.6-0.1c0.3,0,0.4,0.1,0.6,0.1
				c0.2,0.1,0.5,0.2,1,0.2c0.5,0,0.7-0.1,1-0.2c0.2-0.1,0.3-0.1,0.6-0.1c0.3,0,0.5-0.2,0.5-0.5C27,29,26.8,28.8,26.5,28.8z"/>
			<path id="XMLID_572_" fill="#3A444F" d="M7.8,10.8c0.3-0.3,0.8-0.3,1.2,0c0,0,0,0,0,0C9.1,10.9,9.2,11,9.4,11h0.1
				c0.2,0,0.3-0.1,0.4-0.3c0,0,0,0,0,0c0.1-0.1,0.3-0.2,0.5-0.2c0.2,0,0.5,0.1,0.7,0.2c0.2,0.2,0.5,0.1,0.7-0.1
				c0.2-0.2,0.1-0.5-0.1-0.7c-0.4-0.3-0.9-0.5-1.4-0.4c-0.3,0-0.6,0.1-0.9,0.3C9.2,9.8,8.9,9.7,8.6,9.6c-0.5,0-1,0.1-1.4,0.4
				C7,10.2,7,10.5,7.2,10.7C7.3,10.9,7.6,10.9,7.8,10.8z"/>
			<path id="XMLID_571_" fill="#3A444F" d="M6.4,12.9c0.1-0.1,0.3-0.1,0.5,0c0.1,0.2,0.2,0.3,0.4,0.3h0c0.2,0,0.3-0.1,0.4-0.3
				c0.2-0.1,0.4-0.1,0.5,0c0.2,0.2,0.5,0.1,0.7-0.1c0.2-0.2,0.1-0.5-0.1-0.7c-0.4-0.4-1.1-0.4-1.5-0.1c-0.5-0.3-1.1-0.2-1.5,0.1
				c-0.2,0.2-0.2,0.5-0.1,0.7C6,13.1,6.3,13.1,6.4,12.9z"/>
			<path id="XMLID_565_" fill="#3A444F" d="M29.2,24h-3.3c-0.8-1.2-0.5-2.5-0.3-3.9c0.4-2.1,0.8-4.5-1.9-7.4c0.4,0.1,0.7,0.2,1,0.4
				c0.6,0.4,0.9,0.9,1,1.6c0,0.2,0.2,0.4,0.5,0.4c0,0,0.1,0,0.1,0c0.3,0,0.4-0.3,0.4-0.5c-0.2-0.9-0.7-1.7-1.4-2.2
				c-0.5-0.4-1.1-0.6-1.7-0.6c0.8-0.8,2-1.1,3.1-0.7c0.2,0.1,0.5,0,0.6-0.3c0.1-0.2,0-0.5-0.3-0.6c-1.4-0.6-3.1-0.2-4.1,0.9
				c0-0.3,0.1-0.7,0.2-1c0.3-0.6,0.8-1.2,1.4-1.4c0.2-0.1,0.3-0.4,0.2-0.6c-0.1-0.2-0.4-0.3-0.6-0.2c-0.9,0.4-1.6,1.1-1.9,1.9
				c-0.1,0.3-0.2,0.6-0.2,0.9c-1-0.7-2.3-0.9-3.6-0.4c-0.2,0.1-0.3,0.4-0.2,0.6c0.1,0.2,0.4,0.3,0.6,0.2c1-0.4,2.2-0.2,2.9,0.5
				c-1.5,0-2.9,0.9-3.5,2.3c-0.1,0.2,0,0.5,0.3,0.6c0.1,0,0.1,0,0.2,0c0.2,0,0.4-0.1,0.4-0.3c0.4-1.1,1.5-1.8,2.6-1.7
				c-0.4,0.5-0.7,1.1-0.8,1.7c-0.1,0.9,0.1,1.8,0.6,2.5c0.1,0.1,0.2,0.2,0.4,0.2c0.1,0,0.2,0,0.3-0.1c0.2-0.2,0.2-0.4,0.1-0.7
				c-0.4-0.5-0.6-1.2-0.5-1.8c0.1-0.6,0.4-1.1,0.8-1.5c2.9,2.7,2.5,4.9,2.1,7c-0.2,1.3-0.5,2.7,0.1,4H21v-1.5l0.6-0.3l0.8,0.4
				c0.1,0,0.1,0.1,0.2,0.1c0.2,0,0.3-0.1,0.4-0.2c0-0.1,0.1-0.2,0.1-0.2c0-0.1,0-0.3-0.1-0.4l-9.4-9.6c0,0,0,0,0,0c0,0,0,0,0,0
				c0,0,0,0,0,0c0,0,0,0,0,0c0,0,0,0,0,0c0,0,0,0,0,0c0,0,0,0,0,0c0,0,0,0,0,0c0,0,0,0,0,0c0,0,0,0,0,0c0,0,0,0,0,0c0,0,0,0,0,0
				c0,0,0,0,0,0c0,0,0,0,0,0c0,0,0,0,0,0c0,0,0,0,0,0c0,0,0,0,0,0c0,0,0,0,0,0l-9.4,9.1c-0.1,0.1-0.1,0.2-0.1,0.4
				c0,0.2,0.1,0.3,0.2,0.4l1,0.5c0.1,0.1,0.3,0.1,0.4,0l0.4-0.2V24H2.8c-0.3,0-0.5,0.2-0.5,0.5s0.2,0.5,0.5,0.5h22.9l0,0
				c0,0,0,0,0,0h3.6c0.3,0,0.5-0.2,0.5-0.5S29.5,24,29.2,24z M21.2,21.3l-0.4,0.2c-0.1-0.1-0.2-0.1-0.3-0.1c-0.1,0-0.1,0-0.2,0
				l-0.5-0.3c-0.1-0.1-0.3-0.1-0.4,0l-0.8,0.4l-0.8-0.4c-0.1-0.1-0.3-0.1-0.4,0l-0.8,0.4l-0.3-0.2l-2.2-7.3L21.2,21.3z M13,13.3
				l2.4,8l-0.6,0.3L14,21.1c-0.1-0.1-0.3-0.1-0.4,0l-0.8,0.4L12,21.1c-0.1-0.1-0.3-0.1-0.4,0l-0.8,0.4L10,21.1
				c-0.1-0.1-0.3-0.1-0.4,0l-0.8,0.4L8,21.1c-0.1-0.1-0.3-0.1-0.4,0l-0.8,0.4L6,21.1c-0.1-0.1-0.3-0.1-0.4,0l-0.7,0.4l0,0l0,0
				l-0.2-0.1L13,13.3z M6.4,22.4l0.2,0.1c0.1,0.1,0.3,0.1,0.4,0l0.8-0.4l0.8,0.4c0.1,0.1,0.3,0.1,0.4,0l0.8-0.4l0.6,0.3V24h-4V22.4z
				 M11.3,22.3l0.5-0.2l0.8,0.4c0.1,0.1,0.3,0.1,0.4,0l0.8-0.4l0.8,0.4c0.1,0.1,0.3,0.1,0.4,0l0.8-0.4l0.8,0.4
				c0.1,0.1,0.3,0.1,0.4,0l0.8-0.4l0.8,0.4c0.1,0.1,0.3,0.1,0.4,0l0.8-0.4l0.4,0.2V24h-8.8V22.3z"/>
		</g>
		<g id="XMLID_347_">
			<path id="XMLID_357_" fill="#67737C" d="M18.2,67.4c0.2-0.1,0.3-0.1,0.6-0.1c0.3,0,0.4,0.1,0.6,0.1c0.2,0.1,0.5,0.2,1,0.2
				c0.5,0,0.7-0.1,1-0.2c0.2-0.1,0.3-0.1,0.6-0.1c0.3,0,0.4,0.1,0.6,0.1c0.2,0.1,0.5,0.2,1,0.2c0.5,0,0.7-0.1,1-0.2
				c0.2-0.1,0.3-0.1,0.6-0.1c0.3,0,0.5-0.2,0.5-0.5c0-0.3-0.2-0.5-0.5-0.5c-0.5,0-0.7,0.1-1,0.2c-0.2,0.1-0.3,0.1-0.6,0.1
				c-0.3,0-0.4-0.1-0.6-0.1c-0.2-0.1-0.5-0.2-1-0.2c-0.5,0-0.7,0.1-1,0.2c-0.2,0.1-0.3,0.1-0.6,0.1c-0.3,0-0.4-0.1-0.6-0.1
				c-0.2-0.1-0.5-0.2-1-0.2c-0.5,0-0.7,0.1-1,0.2c-0.2,0.1-0.3,0.1-0.6,0.1c-0.3,0-0.4-0.1-0.6-0.1c-0.2-0.1-0.5-0.2-1-0.2
				c-0.5,0-0.7,0.1-1,0.2c-0.2,0.1-0.3,0.1-0.6,0.1c-0.3,0-0.4-0.1-0.6-0.1c-0.2-0.1-0.5-0.2-1-0.2c-0.5,0-0.7,0.1-1,0.2
				c-0.2,0.1-0.3,0.1-0.6,0.1c-0.3,0-0.4-0.1-0.6-0.1c-0.2-0.1-0.5-0.2-1-0.2c-0.5,0-0.7,0.1-1,0.2c-0.2,0.1-0.3,0.1-0.6,0.1
				c-0.3,0-0.4-0.1-0.6-0.1c-0.2-0.1-0.5-0.2-1-0.2c-0.3,0-0.5,0.2-0.5,0.5c0,0.3,0.2,0.5,0.5,0.5c0.3,0,0.4,0.1,0.6,0.1
				c0.2,0.1,0.5,0.2,1,0.2c0.5,0,0.7-0.1,1-0.2c0.2-0.1,0.3-0.1,0.6-0.1c0.3,0,0.4,0.1,0.6,0.1c0.2,0.1,0.5,0.2,1,0.2
				c0.5,0,0.7-0.1,1-0.2c0.2-0.1,0.3-0.1,0.6-0.1c0.3,0,0.4,0.1,0.6,0.1c0.2,0.1,0.5,0.2,1,0.2c0.5,0,0.7-0.1,1-0.2
				c0.2-0.1,0.3-0.1,0.6-0.1c0.3,0,0.4,0.1,0.6,0.1c0.2,0.1,0.5,0.2,1,0.2C17.7,67.6,18,67.4,18.2,67.4z"/>
			<path id="XMLID_356_" fill="#67737C" d="M26.5,68.8c-0.5,0-0.7,0.1-1,0.2c-0.2,0.1-0.3,0.1-0.6,0.1c-0.3,0-0.4-0.1-0.6-0.1
				c-0.2-0.1-0.5-0.2-1-0.2c-0.5,0-0.7,0.1-1,0.2c-0.2,0.1-0.3,0.1-0.6,0.1s-0.4-0.1-0.6-0.1c-0.2-0.1-0.5-0.2-1-0.2
				c-0.5,0-0.7,0.1-1,0.2c-0.2,0.1-0.3,0.1-0.6,0.1c-0.3,0-0.4-0.1-0.6-0.1c-0.2-0.1-0.5-0.2-1-0.2c-0.3,0-0.5,0.2-0.5,0.5
				c0,0.3,0.2,0.5,0.5,0.5c0.3,0,0.4,0.1,0.6,0.1c0.2,0.1,0.5,0.2,1,0.2c0.5,0,0.7-0.1,1-0.2c0.2-0.1,0.3-0.1,0.6-0.1
				c0.3,0,0.4,0.1,0.6,0.1c0.2,0.1,0.5,0.2,1,0.2c0.5,0,0.7-0.1,1-0.2c0.2-0.1,0.3-0.1,0.6-0.1c0.3,0,0.4,0.1,0.6,0.1
				c0.2,0.1,0.5,0.2,1,0.2c0.5,0,0.7-0.1,1-0.2c0.2-0.1,0.3-0.1,0.6-0.1c0.3,0,0.5-0.2,0.5-0.5C27,69,26.8,68.8,26.5,68.8z"/>
			<path id="XMLID_355_" fill="#67737C" d="M7.8,50.8c0.3-0.3,0.8-0.3,1.2,0c0,0,0,0,0,0C9.1,50.9,9.2,51,9.4,51h0.1
				c0.2,0,0.3-0.1,0.4-0.3c0,0,0,0,0,0c0.1-0.1,0.3-0.2,0.5-0.2c0.2,0,0.5,0.1,0.7,0.2c0.2,0.2,0.5,0.1,0.7-0.1
				c0.2-0.2,0.1-0.5-0.1-0.7c-0.4-0.3-0.9-0.5-1.4-0.4c-0.3,0-0.6,0.1-0.9,0.3c-0.3-0.2-0.6-0.3-0.9-0.3c-0.5,0-1,0.1-1.4,0.4
				C7,50.2,7,50.5,7.2,50.7C7.3,50.9,7.6,50.9,7.8,50.8z"/>
			<path id="XMLID_354_" fill="#67737C" d="M6.4,52.9c0.1-0.1,0.3-0.1,0.5,0c0.1,0.2,0.2,0.3,0.4,0.3h0c0.2,0,0.3-0.1,0.4-0.3
				c0.2-0.1,0.4-0.1,0.5,0c0.2,0.2,0.5,0.1,0.7-0.1c0.2-0.2,0.1-0.5-0.1-0.7c-0.4-0.4-1.1-0.4-1.5-0.1c-0.5-0.3-1.1-0.2-1.5,0.1
				c-0.2,0.2-0.2,0.5-0.1,0.7C6,53.1,6.3,53.1,6.4,52.9z"/>
			<path id="XMLID_348_" fill="#67737C" d="M29.2,64h-3.3c-0.8-1.2-0.5-2.5-0.3-3.9c0.4-2.1,0.8-4.5-1.9-7.4c0.4,0.1,0.7,0.2,1,0.4
				c0.6,0.4,0.9,0.9,1,1.6c0,0.2,0.2,0.4,0.5,0.4c0,0,0.1,0,0.1,0c0.3,0,0.4-0.3,0.4-0.5c-0.2-0.9-0.7-1.7-1.4-2.2
				c-0.5-0.4-1.1-0.6-1.7-0.6c0.8-0.8,2-1.1,3.1-0.7c0.2,0.1,0.5,0,0.6-0.3c0.1-0.2,0-0.5-0.3-0.6c-1.4-0.6-3.1-0.2-4.1,0.9
				c0-0.3,0.1-0.7,0.2-1c0.3-0.6,0.8-1.2,1.4-1.4c0.2-0.1,0.3-0.4,0.2-0.6c-0.1-0.2-0.4-0.3-0.6-0.2c-0.9,0.4-1.6,1.1-1.9,1.9
				c-0.1,0.3-0.2,0.6-0.2,0.9c-1-0.7-2.3-0.9-3.6-0.4c-0.2,0.1-0.3,0.4-0.2,0.6c0.1,0.2,0.4,0.3,0.6,0.2c1-0.4,2.2-0.2,2.9,0.5
				c-1.5,0-2.9,0.9-3.5,2.3c-0.1,0.2,0,0.5,0.3,0.6c0.1,0,0.1,0,0.2,0c0.2,0,0.4-0.1,0.4-0.3c0.4-1.1,1.5-1.8,2.6-1.7
				c-0.4,0.5-0.7,1.1-0.8,1.7c-0.1,0.9,0.1,1.8,0.6,2.5c0.1,0.1,0.2,0.2,0.4,0.2c0.1,0,0.2,0,0.3-0.1c0.2-0.2,0.2-0.4,0.1-0.7
				c-0.4-0.5-0.6-1.2-0.5-1.8c0.1-0.6,0.4-1.1,0.8-1.5c2.9,2.7,2.5,4.9,2.1,7c-0.2,1.3-0.5,2.7,0.1,4H21v-1.5l0.6-0.3l0.8,0.4
				c0.1,0,0.1,0.1,0.2,0.1c0.2,0,0.3-0.1,0.4-0.2c0-0.1,0.1-0.2,0.1-0.2c0-0.1,0-0.3-0.1-0.4l-9.4-9.6c0,0,0,0,0,0c0,0,0,0,0,0
				c0,0,0,0,0,0c0,0,0,0,0,0c0,0,0,0,0,0c0,0,0,0,0,0c0,0,0,0,0,0c0,0,0,0,0,0c0,0,0,0,0,0c0,0,0,0,0,0c0,0,0,0,0,0c0,0,0,0,0,0
				c0,0,0,0,0,0c0,0,0,0,0,0c0,0,0,0,0,0c0,0,0,0,0,0c0,0,0,0,0,0c0,0,0,0,0,0l-9.4,9.1c-0.1,0.1-0.1,0.2-0.1,0.4
				c0,0.2,0.1,0.3,0.2,0.4l1,0.5c0.1,0.1,0.3,0.1,0.4,0l0.4-0.2V64H2.8c-0.3,0-0.5,0.2-0.5,0.5c0,0.3,0.2,0.5,0.5,0.5h22.9l0,0
				c0,0,0,0,0,0h3.6c0.3,0,0.5-0.2,0.5-0.5C29.7,64.2,29.5,64,29.2,64z M21.2,61.3l-0.4,0.2c-0.1-0.1-0.2-0.1-0.3-0.1
				c-0.1,0-0.1,0-0.2,0l-0.5-0.3c-0.1-0.1-0.3-0.1-0.4,0l-0.8,0.4l-0.8-0.4c-0.1-0.1-0.3-0.1-0.4,0l-0.8,0.4l-0.3-0.2l-2.2-7.3
				L21.2,61.3z M13,53.3l2.4,8l-0.6,0.3L14,61.1c-0.1-0.1-0.3-0.1-0.4,0l-0.8,0.4L12,61.1c-0.1-0.1-0.3-0.1-0.4,0l-0.8,0.4L10,61.1
				c-0.1-0.1-0.3-0.1-0.4,0l-0.8,0.4L8,61.1c-0.1-0.1-0.3-0.1-0.4,0l-0.8,0.4L6,61.1c-0.1-0.1-0.3-0.1-0.4,0l-0.7,0.4l0,0l0,0
				l-0.2-0.1L13,53.3z M6.4,62.4l0.2,0.1c0.1,0.1,0.3,0.1,0.4,0l0.8-0.4l0.8,0.4c0.1,0.1,0.3,0.1,0.4,0l0.8-0.4l0.6,0.3V64h-4V62.4z
				 M11.3,62.3l0.5-0.2l0.8,0.4c0.1,0.1,0.3,0.1,0.4,0l0.8-0.4l0.8,0.4c0.1,0.1,0.3,0.1,0.4,0l0.8-0.4l0.8,0.4
				c0.1,0.1,0.3,0.1,0.4,0l0.8-0.4l0.8,0.4c0.1,0.1,0.3,0.1,0.4,0l0.8-0.4l0.4,0.2V64h-8.8V62.3z"/>
		</g>
		<g id="XMLID_600_">
			<path id="XMLID_610_" fill="#FFFFFF" d="M18.2,107.4c0.2-0.1,0.3-0.1,0.6-0.1c0.3,0,0.4,0.1,0.6,0.1c0.2,0.1,0.5,0.2,1,0.2
				c0.5,0,0.7-0.1,1-0.2c0.2-0.1,0.3-0.1,0.6-0.1c0.3,0,0.4,0.1,0.6,0.1c0.2,0.1,0.5,0.2,1,0.2c0.5,0,0.7-0.1,1-0.2
				c0.2-0.1,0.3-0.1,0.6-0.1c0.3,0,0.5-0.2,0.5-0.5c0-0.3-0.2-0.5-0.5-0.5c-0.5,0-0.7,0.1-1,0.2c-0.2,0.1-0.3,0.1-0.6,0.1
				c-0.3,0-0.4-0.1-0.6-0.1c-0.2-0.1-0.5-0.2-1-0.2c-0.5,0-0.7,0.1-1,0.2c-0.2,0.1-0.3,0.1-0.6,0.1c-0.3,0-0.4-0.1-0.6-0.1
				c-0.2-0.1-0.5-0.2-1-0.2c-0.5,0-0.7,0.1-1,0.2c-0.2,0.1-0.3,0.1-0.6,0.1c-0.3,0-0.4-0.1-0.6-0.1c-0.2-0.1-0.5-0.2-1-0.2
				c-0.5,0-0.7,0.1-1,0.2c-0.2,0.1-0.3,0.1-0.6,0.1c-0.3,0-0.4-0.1-0.6-0.1c-0.2-0.1-0.5-0.2-1-0.2c-0.5,0-0.7,0.1-1,0.2
				c-0.2,0.1-0.3,0.1-0.6,0.1c-0.3,0-0.4-0.1-0.6-0.1c-0.2-0.1-0.5-0.2-1-0.2c-0.5,0-0.7,0.1-1,0.2c-0.2,0.1-0.3,0.1-0.6,0.1
				c-0.3,0-0.4-0.1-0.6-0.1c-0.2-0.1-0.5-0.2-1-0.2c-0.3,0-0.5,0.2-0.5,0.5c0,0.3,0.2,0.5,0.5,0.5c0.3,0,0.4,0.1,0.6,0.1
				c0.2,0.1,0.5,0.2,1,0.2c0.5,0,0.7-0.1,1-0.2c0.2-0.1,0.3-0.1,0.6-0.1c0.3,0,0.4,0.1,0.6,0.1c0.2,0.1,0.5,0.2,1,0.2
				c0.5,0,0.7-0.1,1-0.2c0.2-0.1,0.3-0.1,0.6-0.1c0.3,0,0.4,0.1,0.6,0.1c0.2,0.1,0.5,0.2,1,0.2c0.5,0,0.7-0.1,1-0.2
				c0.2-0.1,0.3-0.1,0.6-0.1c0.3,0,0.4,0.1,0.6,0.1c0.2,0.1,0.5,0.2,1,0.2C17.7,107.6,18,107.4,18.2,107.4z"/>
			<path id="XMLID_609_" fill="#FFFFFF" d="M26.5,108.8c-0.5,0-0.7,0.1-1,0.2c-0.2,0.1-0.3,0.1-0.6,0.1c-0.3,0-0.4-0.1-0.6-0.1
				c-0.2-0.1-0.5-0.2-1-0.2c-0.5,0-0.7,0.1-1,0.2c-0.2,0.1-0.3,0.1-0.6,0.1s-0.4-0.1-0.6-0.1c-0.2-0.1-0.5-0.2-1-0.2
				c-0.5,0-0.7,0.1-1,0.2c-0.2,0.1-0.3,0.1-0.6,0.1c-0.3,0-0.4-0.1-0.6-0.1c-0.2-0.1-0.5-0.2-1-0.2c-0.3,0-0.5,0.2-0.5,0.5
				c0,0.3,0.2,0.5,0.5,0.5c0.3,0,0.4,0.1,0.6,0.1c0.2,0.1,0.5,0.2,1,0.2c0.5,0,0.7-0.1,1-0.2c0.2-0.1,0.3-0.1,0.6-0.1
				c0.3,0,0.4,0.1,0.6,0.1c0.2,0.1,0.5,0.2,1,0.2c0.5,0,0.7-0.1,1-0.2c0.2-0.1,0.3-0.1,0.6-0.1c0.3,0,0.4,0.1,0.6,0.1
				c0.2,0.1,0.5,0.2,1,0.2c0.5,0,0.7-0.1,1-0.2c0.2-0.1,0.3-0.1,0.6-0.1c0.3,0,0.5-0.2,0.5-0.5C27,109,26.8,108.8,26.5,108.8z"/>
			<path id="XMLID_608_" fill="#FFFFFF" d="M7.8,90.8c0.3-0.3,0.8-0.3,1.2,0c0,0,0,0,0,0C9.1,90.9,9.2,91,9.4,91h0.1
				c0.2,0,0.3-0.1,0.4-0.3c0,0,0,0,0,0c0.1-0.1,0.3-0.2,0.5-0.2c0.2,0,0.5,0.1,0.7,0.2c0.2,0.2,0.5,0.1,0.7-0.1
				c0.2-0.2,0.1-0.5-0.1-0.7c-0.4-0.3-0.9-0.5-1.4-0.4c-0.3,0-0.6,0.1-0.9,0.3c-0.3-0.2-0.6-0.3-0.9-0.3c-0.5,0-1,0.1-1.4,0.4
				C7,90.2,7,90.5,7.2,90.7C7.3,90.9,7.6,90.9,7.8,90.8z"/>
			<path id="XMLID_607_" fill="#FFFFFF" d="M6.4,92.9c0.1-0.1,0.3-0.1,0.5,0c0.1,0.2,0.2,0.3,0.4,0.3h0c0.2,0,0.3-0.1,0.4-0.3
				c0.2-0.1,0.4-0.1,0.5,0c0.2,0.2,0.5,0.1,0.7-0.1c0.2-0.2,0.1-0.5-0.1-0.7c-0.4-0.4-1.1-0.4-1.5-0.1c-0.5-0.3-1.1-0.2-1.5,0.1
				c-0.2,0.2-0.2,0.5-0.1,0.7C6,93.1,6.3,93.1,6.4,92.9z"/>
			<path id="XMLID_601_" fill="#FFFFFF" d="M29.2,104h-3.3c-0.8-1.2-0.5-2.5-0.3-3.9c0.4-2.1,0.8-4.5-1.9-7.4c0.4,0.1,0.7,0.2,1,0.4
				c0.6,0.4,0.9,0.9,1,1.6c0,0.2,0.2,0.4,0.5,0.4c0,0,0.1,0,0.1,0c0.3,0,0.4-0.3,0.4-0.5c-0.2-0.9-0.7-1.7-1.4-2.2
				c-0.5-0.4-1.1-0.6-1.7-0.6c0.8-0.8,2-1.1,3.1-0.7c0.2,0.1,0.5,0,0.6-0.3c0.1-0.2,0-0.5-0.3-0.6c-1.4-0.6-3.1-0.2-4.1,0.9
				c0-0.3,0.1-0.7,0.2-1c0.3-0.6,0.8-1.2,1.4-1.4c0.2-0.1,0.3-0.4,0.2-0.6c-0.1-0.2-0.4-0.3-0.6-0.2c-0.9,0.4-1.6,1.1-1.9,1.9
				c-0.1,0.3-0.2,0.6-0.2,0.9c-1-0.7-2.3-0.9-3.6-0.4c-0.2,0.1-0.3,0.4-0.2,0.6c0.1,0.2,0.4,0.3,0.6,0.2c1-0.4,2.2-0.2,2.9,0.5
				c-1.5,0-2.9,0.9-3.5,2.3c-0.1,0.2,0,0.5,0.3,0.6c0.1,0,0.1,0,0.2,0c0.2,0,0.4-0.1,0.4-0.3c0.4-1.1,1.5-1.8,2.6-1.7
				c-0.4,0.5-0.7,1.1-0.8,1.7c-0.1,0.9,0.1,1.8,0.6,2.5c0.1,0.1,0.2,0.2,0.4,0.2c0.1,0,0.2,0,0.3-0.1c0.2-0.2,0.2-0.4,0.1-0.7
				c-0.4-0.5-0.6-1.2-0.5-1.8c0.1-0.6,0.4-1.1,0.8-1.5c2.9,2.7,2.5,4.9,2.1,7c-0.2,1.3-0.5,2.7,0.1,4H21v-1.5l0.6-0.3l0.8,0.4
				c0.1,0,0.1,0.1,0.2,0.1c0.2,0,0.3-0.1,0.4-0.2c0-0.1,0.1-0.2,0.1-0.2c0-0.1,0-0.3-0.1-0.4l-9.4-9.6c0,0,0,0,0,0c0,0,0,0,0,0
				c0,0,0,0,0,0c0,0,0,0,0,0c0,0,0,0,0,0c0,0,0,0,0,0c0,0,0,0,0,0c0,0,0,0,0,0c0,0,0,0,0,0c0,0,0,0,0,0c0,0,0,0,0,0c0,0,0,0,0,0
				c0,0,0,0,0,0c0,0,0,0,0,0c0,0,0,0,0,0c0,0,0,0,0,0c0,0,0,0,0,0c0,0,0,0,0,0l-9.4,9.1c-0.1,0.1-0.1,0.2-0.1,0.4
				c0,0.2,0.1,0.3,0.2,0.4l1,0.5c0.1,0.1,0.3,0.1,0.4,0l0.4-0.2v1.7H2.8c-0.3,0-0.5,0.2-0.5,0.5c0,0.3,0.2,0.5,0.5,0.5h22.9l0,0
				c0,0,0,0,0,0h3.6c0.3,0,0.5-0.2,0.5-0.5C29.7,104.2,29.5,104,29.2,104z M21.2,101.3l-0.4,0.2c-0.1-0.1-0.2-0.1-0.3-0.1
				c-0.1,0-0.1,0-0.2,0l-0.5-0.3c-0.1-0.1-0.3-0.1-0.4,0l-0.8,0.4l-0.8-0.4c-0.1-0.1-0.3-0.1-0.4,0l-0.8,0.4l-0.3-0.2l-2.2-7.3
				L21.2,101.3z M13,93.3l2.4,8l-0.6,0.3l-0.8-0.4c-0.1-0.1-0.3-0.1-0.4,0l-0.8,0.4l-0.8-0.4c-0.1-0.1-0.3-0.1-0.4,0l-0.8,0.4
				l-0.8-0.4c-0.1-0.1-0.3-0.1-0.4,0l-0.8,0.4L8,101.1c-0.1-0.1-0.3-0.1-0.4,0l-0.8,0.4L6,101.1c-0.1-0.1-0.3-0.1-0.4,0l-0.7,0.4
				l0,0l0,0l-0.2-0.1L13,93.3z M6.4,102.4l0.2,0.1c0.1,0.1,0.3,0.1,0.4,0l0.8-0.4l0.8,0.4c0.1,0.1,0.3,0.1,0.4,0l0.8-0.4l0.6,0.3
				v1.6h-4V102.4z M11.3,102.3l0.5-0.2l0.8,0.4c0.1,0.1,0.3,0.1,0.4,0l0.8-0.4l0.8,0.4c0.1,0.1,0.3,0.1,0.4,0l0.8-0.4l0.8,0.4
				c0.1,0.1,0.3,0.1,0.4,0l0.8-0.4l0.8,0.4c0.1,0.1,0.3,0.1,0.4,0l0.8-0.4l0.4,0.2v1.7h-8.8V102.3z"/>
		</g>
		<g id="XMLID_813_">
			<path id="XMLID_823_" fill="#1D70AD" d="M18.2,147.4c0.2-0.1,0.3-0.1,0.6-0.1c0.3,0,0.4,0.1,0.6,0.1c0.2,0.1,0.5,0.2,1,0.2
				c0.5,0,0.7-0.1,1-0.2c0.2-0.1,0.3-0.1,0.6-0.1c0.3,0,0.4,0.1,0.6,0.1c0.2,0.1,0.5,0.2,1,0.2c0.5,0,0.7-0.1,1-0.2
				c0.2-0.1,0.3-0.1,0.6-0.1c0.3,0,0.5-0.2,0.5-0.5c0-0.3-0.2-0.5-0.5-0.5c-0.5,0-0.7,0.1-1,0.2c-0.2,0.1-0.3,0.1-0.6,0.1
				c-0.3,0-0.4-0.1-0.6-0.1c-0.2-0.1-0.5-0.2-1-0.2c-0.5,0-0.7,0.1-1,0.2c-0.2,0.1-0.3,0.1-0.6,0.1c-0.3,0-0.4-0.1-0.6-0.1
				c-0.2-0.1-0.5-0.2-1-0.2c-0.5,0-0.7,0.1-1,0.2c-0.2,0.1-0.3,0.1-0.6,0.1c-0.3,0-0.4-0.1-0.6-0.1c-0.2-0.1-0.5-0.2-1-0.2
				c-0.5,0-0.7,0.1-1,0.2c-0.2,0.1-0.3,0.1-0.6,0.1c-0.3,0-0.4-0.1-0.6-0.1c-0.2-0.1-0.5-0.2-1-0.2c-0.5,0-0.7,0.1-1,0.2
				c-0.2,0.1-0.3,0.1-0.6,0.1c-0.3,0-0.4-0.1-0.6-0.1c-0.2-0.1-0.5-0.2-1-0.2c-0.5,0-0.7,0.1-1,0.2c-0.2,0.1-0.3,0.1-0.6,0.1
				c-0.3,0-0.4-0.1-0.6-0.1c-0.2-0.1-0.5-0.2-1-0.2c-0.3,0-0.5,0.2-0.5,0.5c0,0.3,0.2,0.5,0.5,0.5c0.3,0,0.4,0.1,0.6,0.1
				c0.2,0.1,0.5,0.2,1,0.2c0.5,0,0.7-0.1,1-0.2c0.2-0.1,0.3-0.1,0.6-0.1c0.3,0,0.4,0.1,0.6,0.1c0.2,0.1,0.5,0.2,1,0.2
				c0.5,0,0.7-0.1,1-0.2c0.2-0.1,0.3-0.1,0.6-0.1c0.3,0,0.4,0.1,0.6,0.1c0.2,0.1,0.5,0.2,1,0.2c0.5,0,0.7-0.1,1-0.2
				c0.2-0.1,0.3-0.1,0.6-0.1c0.3,0,0.4,0.1,0.6,0.1c0.2,0.1,0.5,0.2,1,0.2C17.7,147.6,18,147.4,18.2,147.4z"/>
			<path id="XMLID_822_" fill="#1D70AD" d="M26.5,148.8c-0.5,0-0.7,0.1-1,0.2c-0.2,0.1-0.3,0.1-0.6,0.1c-0.3,0-0.4-0.1-0.6-0.1
				c-0.2-0.1-0.5-0.2-1-0.2c-0.5,0-0.7,0.1-1,0.2c-0.2,0.1-0.3,0.1-0.6,0.1s-0.4-0.1-0.6-0.1c-0.2-0.1-0.5-0.2-1-0.2
				c-0.5,0-0.7,0.1-1,0.2c-0.2,0.1-0.3,0.1-0.6,0.1c-0.3,0-0.4-0.1-0.6-0.1c-0.2-0.1-0.5-0.2-1-0.2c-0.3,0-0.5,0.2-0.5,0.5
				c0,0.3,0.2,0.5,0.5,0.5c0.3,0,0.4,0.1,0.6,0.1c0.2,0.1,0.5,0.2,1,0.2c0.5,0,0.7-0.1,1-0.2c0.2-0.1,0.3-0.1,0.6-0.1
				c0.3,0,0.4,0.1,0.6,0.1c0.2,0.1,0.5,0.2,1,0.2c0.5,0,0.7-0.1,1-0.2c0.2-0.1,0.3-0.1,0.6-0.1c0.3,0,0.4,0.1,0.6,0.1
				c0.2,0.1,0.5,0.2,1,0.2c0.5,0,0.7-0.1,1-0.2c0.2-0.1,0.3-0.1,0.6-0.1c0.3,0,0.5-0.2,0.5-0.5C27,149,26.8,148.8,26.5,148.8z"/>
			<path id="XMLID_821_" fill="#1D70AD" d="M7.8,130.8c0.3-0.3,0.8-0.3,1.2,0c0,0,0,0,0,0c0.1,0.2,0.2,0.3,0.4,0.3h0.1
				c0.2,0,0.3-0.1,0.4-0.3c0,0,0,0,0,0c0.1-0.1,0.3-0.2,0.5-0.2c0.2,0,0.5,0.1,0.7,0.2c0.2,0.2,0.5,0.1,0.7-0.1
				c0.2-0.2,0.1-0.5-0.1-0.7c-0.4-0.3-0.9-0.5-1.4-0.4c-0.3,0-0.6,0.1-0.9,0.3c-0.3-0.2-0.6-0.3-0.9-0.3c-0.5,0-1,0.1-1.4,0.4
				c-0.2,0.2-0.2,0.5-0.1,0.7C7.3,130.9,7.6,130.9,7.8,130.8z"/>
			<path id="XMLID_820_" fill="#1D70AD" d="M6.4,132.9c0.1-0.1,0.3-0.1,0.5,0c0.1,0.2,0.2,0.3,0.4,0.3h0c0.2,0,0.3-0.1,0.4-0.3
				c0.2-0.1,0.4-0.1,0.5,0c0.2,0.2,0.5,0.1,0.7-0.1c0.2-0.2,0.1-0.5-0.1-0.7c-0.4-0.4-1.1-0.4-1.5-0.1c-0.5-0.3-1.1-0.2-1.5,0.1
				c-0.2,0.2-0.2,0.5-0.1,0.7C6,133.1,6.3,133.1,6.4,132.9z"/>
			<path id="XMLID_814_" fill="#1D70AD" d="M29.2,144h-3.3c-0.8-1.2-0.5-2.5-0.3-3.9c0.4-2.1,0.8-4.5-1.9-7.4c0.4,0.1,0.7,0.2,1,0.4
				c0.6,0.4,0.9,0.9,1,1.6c0,0.2,0.2,0.4,0.5,0.4c0,0,0.1,0,0.1,0c0.3,0,0.4-0.3,0.4-0.5c-0.2-0.9-0.7-1.7-1.4-2.2
				c-0.5-0.4-1.1-0.6-1.7-0.6c0.8-0.8,2-1.1,3.1-0.7c0.2,0.1,0.5,0,0.6-0.3c0.1-0.2,0-0.5-0.3-0.6c-1.4-0.6-3.1-0.2-4.1,0.9
				c0-0.3,0.1-0.7,0.2-1c0.3-0.6,0.8-1.2,1.4-1.4c0.2-0.1,0.3-0.4,0.2-0.6c-0.1-0.2-0.4-0.3-0.6-0.2c-0.9,0.4-1.6,1.1-1.9,1.9
				c-0.1,0.3-0.2,0.6-0.2,0.9c-1-0.7-2.3-0.9-3.6-0.4c-0.2,0.1-0.3,0.4-0.2,0.6c0.1,0.2,0.4,0.3,0.6,0.2c1-0.4,2.2-0.2,2.9,0.5
				c-1.5,0-2.9,0.9-3.5,2.3c-0.1,0.2,0,0.5,0.3,0.6c0.1,0,0.1,0,0.2,0c0.2,0,0.4-0.1,0.4-0.3c0.4-1.1,1.5-1.8,2.6-1.7
				c-0.4,0.5-0.7,1.1-0.8,1.7c-0.1,0.9,0.1,1.8,0.6,2.5c0.1,0.1,0.2,0.2,0.4,0.2c0.1,0,0.2,0,0.3-0.1c0.2-0.2,0.2-0.4,0.1-0.7
				c-0.4-0.5-0.6-1.2-0.5-1.8c0.1-0.6,0.4-1.1,0.8-1.5c2.9,2.7,2.5,4.9,2.1,7c-0.2,1.3-0.5,2.7,0.1,4H21v-1.5l0.6-0.3l0.8,0.4
				c0.1,0,0.1,0.1,0.2,0.1c0.2,0,0.3-0.1,0.4-0.2c0-0.1,0.1-0.2,0.1-0.2c0-0.1,0-0.3-0.1-0.4l-9.4-9.6c0,0,0,0,0,0c0,0,0,0,0,0
				c0,0,0,0,0,0c0,0,0,0,0,0c0,0,0,0,0,0c0,0,0,0,0,0c0,0,0,0,0,0c0,0,0,0,0,0c0,0,0,0,0,0c0,0,0,0,0,0c0,0,0,0,0,0c0,0,0,0,0,0
				c0,0,0,0,0,0c0,0,0,0,0,0c0,0,0,0,0,0c0,0,0,0,0,0c0,0,0,0,0,0c0,0,0,0,0,0l-9.4,9.1c-0.1,0.1-0.1,0.2-0.1,0.4
				c0,0.2,0.1,0.3,0.2,0.4l1,0.5c0.1,0.1,0.3,0.1,0.4,0l0.4-0.2v1.7H2.8c-0.3,0-0.5,0.2-0.5,0.5s0.2,0.5,0.5,0.5h22.9l0,0
				c0,0,0,0,0,0h3.6c0.3,0,0.5-0.2,0.5-0.5S29.5,144,29.2,144z M21.2,141.3l-0.4,0.2c-0.1-0.1-0.2-0.1-0.3-0.1c-0.1,0-0.1,0-0.2,0
				l-0.5-0.3c-0.1-0.1-0.3-0.1-0.4,0l-0.8,0.4l-0.8-0.4c-0.1-0.1-0.3-0.1-0.4,0l-0.8,0.4l-0.3-0.2l-2.2-7.3L21.2,141.3z M13,133.3
				l2.4,8l-0.6,0.3l-0.8-0.4c-0.1-0.1-0.3-0.1-0.4,0l-0.8,0.4l-0.8-0.4c-0.1-0.1-0.3-0.1-0.4,0l-0.8,0.4l-0.8-0.4
				c-0.1-0.1-0.3-0.1-0.4,0l-0.8,0.4L8,141.1c-0.1-0.1-0.3-0.1-0.4,0l-0.8,0.4L6,141.1c-0.1-0.1-0.3-0.1-0.4,0l-0.7,0.4l0,0l0,0
				l-0.2-0.1L13,133.3z M6.4,142.4l0.2,0.1c0.1,0.1,0.3,0.1,0.4,0l0.8-0.4l0.8,0.4c0.1,0.1,0.3,0.1,0.4,0l0.8-0.4l0.6,0.3v1.6h-4
				V142.4z M11.3,142.3l0.5-0.2l0.8,0.4c0.1,0.1,0.3,0.1,0.4,0l0.8-0.4l0.8,0.4c0.1,0.1,0.3,0.1,0.4,0l0.8-0.4l0.8,0.4
				c0.1,0.1,0.3,0.1,0.4,0l0.8-0.4l0.8,0.4c0.1,0.1,0.3,0.1,0.4,0l0.8-0.4l0.4,0.2v1.7h-8.8V142.3z"/>
		</g>
</svg>
