<svg width="32" height="232" viewBox="0 0 32 232" xmlns="http://www.w3.org/2000/svg"><g fill="none">
			<path id="XMLID_1009_" fill="#3A444F" d="M28.6,28.6l-0.4-1.8c0-0.2-0.2-0.3-0.4-0.4l-0.6-0.2l-0.4-0.8v-0.9
				c0-0.2-0.1-0.3-0.2-0.4l-1.2-0.7l-0.4-1.3c-0.1-0.2-0.2-0.3-0.5-0.3h-0.1v-7.6h0.6c0.2,0,0.4-0.1,0.5-0.3c0.1-0.2,0-0.4-0.1-0.5
				l-2.8-2.3v-0.4V9.1v-1h-3.2l0.5,1.3l-0.5,1.3h2.3v0.5l-2.7,2.2c-0.2,0.1-0.2,0.3-0.1,0.5c0.1,0.2,0.2,0.3,0.5,0.3h0.6v0.7
				l-3.1-1.8c-0.1-0.1-0.3-0.1-0.5,0L13,14.9v-2.2h0c0.3,0,0.5-0.2,0.5-0.5c0-0.3-0.2-0.5-0.5-0.5h0V9.4c0.2-0.1,0.3-0.2,0.3-0.5
				c0-0.2-0.1-0.4-0.3-0.4L12.2,8V5.7c0-0.3-0.2-0.5-0.4-0.5c-0.2,0-0.3,0.1-0.4,0.2l-0.6-2.9V1.9c0-0.3-0.2-0.5-0.5-0.5
				c-0.3,0-0.5,0.2-0.5,0.5v0.6L9.1,5.4C9,5.3,8.8,5.2,8.7,5.2c-0.3,0-0.4,0.2-0.4,0.5V8L7.3,8.5C7.1,8.6,7,8.8,7.1,9
				c0,0.2,0.2,0.3,0.3,0.3v2.4h0c-0.3,0-0.5,0.2-0.5,0.5c0,0.3,0.2,0.5,0.5,0.5h0v2.5h0c-0.3,0-0.5,0.2-0.5,0.5
				c0,0.3,0.2,0.5,0.5,0.5h0v5.6h0c-0.2,0-0.4,0.1-0.5,0.3l-0.5,1.5c0,0,0,0,0,0c0,0,0,0,0,0c0,0,0,0.1,0,0.1c0,0,0,0,0,0v0.4
				l-0.9,0.4c-0.1,0.1-0.2,0.2-0.3,0.3L5,26l-0.8,0.3c-0.2,0.1-0.3,0.2-0.3,0.3l-0.4,1.9c0,0.1,0,0.3,0.1,0.4
				c0.1,0.1,0.2,0.2,0.4,0.2h4c0.3,0,0.5-0.2,0.5-0.5c0-0.3-0.2-0.5-0.5-0.5H4.5l0.2-1.1l0.8-0.3c0.1-0.1,0.3-0.2,0.3-0.3l0.3-1.1
				L7.1,25c0.2-0.1,0.3-0.2,0.3-0.4v-0.3H14l0.4,1c0.1,0.1,0.2,0.2,0.3,0.3l1.4,0.5l0.7,1.3c0.1,0.2,0.3,0.2,0.4,0.2
				c0.1,0,0.2,0,0.2-0.1c0.2-0.1,0.3-0.4,0.2-0.7l-0.8-1.5c-0.1-0.1-0.2-0.2-0.3-0.2l-1.4-0.4l-0.2-0.4h2.7l0.7,1l0.2,0.9
				c0,0.1,0.1,0.2,0.1,0.2l0.8,0.8l-0.2,1.4c0,0.1,0,0.3,0.1,0.4c0.1,0.1,0.2,0.2,0.4,0.2h3.1c0.3,0,0.5-0.2,0.5-0.5
				c0-0.3-0.2-0.5-0.5-0.5h-2.6l0.1-1.1c0-0.1,0-0.3-0.1-0.4l-0.9-0.8L19.3,25c0-0.1,0-0.1-0.1-0.2l-0.4-0.5h5.9l1,0.6v0.7
				c0,0.1,0,0.2,0.1,0.2l0.6,1c0.1,0.1,0.2,0.2,0.3,0.2l0.6,0.1l0.2,1h-2.8c-0.3,0-0.5,0.2-0.5,0.5c0,0.3,0.2,0.5,0.5,0.5h3.4
				c0.1,0,0.3-0.1,0.4-0.2C28.6,28.9,28.6,28.7,28.6,28.6z M20.7,9.7l0.1-0.3l-0.1-0.3h0.8v0v0.6H20.7z M22,12l1.6,1.3h-3.1L22,12z
				 M23.4,14.2v7.6h-2.7v-6.1v-1.5H23.4z M18.3,21.8v-5.6h1.4v5.6H18.3z M13,16.2L13,16.2h1.4v5.6H13V16.2z M15.4,16.2h2v5.6h-2
				V16.2z M16.3,14.1l1.9,1.1h-3.9L16.3,14.1z M10.9,8.2c0,0.1,0.1,0.2,0.2,0.3H9.3c0.1-0.1,0.1-0.2,0.2-0.3l0.7-3.3L10.9,8.2z
				 M8.4,9.4H12v2.4h-1.2v-1.1c0-0.4-0.3-0.7-0.7-0.7c-0.4,0-0.7,0.3-0.7,0.7v1.1H8.4V9.4z M8.4,12.7H12v2.5h-1.2v-1.1
				c0-0.4-0.3-0.7-0.7-0.7c-0.4,0-0.7,0.3-0.7,0.7v1.1H8.4V12.7z M8.4,16.2H12v5.6h-1.2v-1.4c0-0.4-0.3-0.7-0.7-0.7
				c-0.4,0-0.7,0.3-0.7,0.7v1.4H8.4V16.2z M14.3,23.3L14.3,23.3H7.6l0.2-0.5h0.1h4.6h7.7h3.7h0.2l0.2,0.5H14.3z"/>
		</g>
		<g id="XMLID_1378_">
			<path id="XMLID_1394_" fill="#67737C" d="M22.7,56.3c0-0.4-0.3-0.7-0.7-0.7c-0.4,0-0.7,0.3-0.7,0.7V58h1.4V56.3z"/>
			<path id="XMLID_1393_" fill="#67737C" d="M16.3,68.2h-5.4c0,0,0,0,0,0l0.9-2c0.1-0.2,0-0.5-0.2-0.6c-0.2-0.1-0.5,0-0.6,0.2
				l-0.8,1.9l-0.7,0.6c-0.2,0.1-0.2,0.3-0.1,0.5c0.1,0.2,0.2,0.3,0.4,0.3h6.7c0.3,0,0.5-0.2,0.5-0.5C16.8,68.4,16.6,68.2,16.3,68.2z
				"/>
			<path id="XMLID_1379_" fill="#67737C" d="M28.6,68.6l-0.4-1.8c0-0.2-0.2-0.3-0.4-0.4l-0.6-0.2l-0.4-0.8v-0.9
				c0-0.2-0.1-0.3-0.2-0.4l-1.2-0.7l-0.4-1.3c-0.1-0.2-0.2-0.3-0.5-0.3h-0.1v-7.6h0.6c0.2,0,0.4-0.1,0.5-0.3c0.1-0.2,0-0.4-0.1-0.5
				l-2.8-2.3v-0.4v-1.5v-1h-3.2l0.5,1.3l-0.5,1.3h2.3v0.5l-2.7,2.2c-0.2,0.1-0.2,0.3-0.1,0.5c0.1,0.2,0.2,0.3,0.5,0.3h0.6v0.7
				l-3.1-1.8c-0.1-0.1-0.3-0.1-0.5,0L13,54.9v-2.2h0c0.3,0,0.5-0.2,0.5-0.5c0-0.3-0.2-0.5-0.5-0.5h0v-2.4c0.2-0.1,0.3-0.2,0.3-0.5
				c0-0.2-0.1-0.4-0.3-0.4L12.2,48v-2.3c0-0.3-0.2-0.5-0.4-0.5c-0.2,0-0.3,0.1-0.4,0.2l-0.6-2.9v-0.6c0-0.3-0.2-0.5-0.5-0.5
				c-0.3,0-0.5,0.2-0.5,0.5v0.6l-0.6,2.9c-0.1-0.1-0.3-0.2-0.4-0.2c-0.3,0-0.4,0.2-0.4,0.5V48l-0.9,0.5C7.1,48.6,7,48.8,7.1,49
				c0,0.2,0.2,0.3,0.3,0.3v2.4h0c-0.3,0-0.5,0.2-0.5,0.5c0,0.3,0.2,0.5,0.5,0.5h0v2.5h0c-0.3,0-0.5,0.2-0.5,0.5
				c0,0.3,0.2,0.5,0.5,0.5h0v5.6h0c-0.2,0-0.4,0.1-0.5,0.3l-0.5,1.5c0,0,0,0,0,0c0,0,0,0,0,0c0,0,0,0.1,0,0.1c0,0,0,0,0,0v0.4
				l-0.9,0.4c-0.1,0.1-0.2,0.2-0.3,0.3L5,66l-0.8,0.3c-0.2,0.1-0.3,0.2-0.3,0.3l-0.4,1.9c0,0.1,0,0.3,0.1,0.4
				c0.1,0.1,0.2,0.2,0.4,0.2h4c0.3,0,0.5-0.2,0.5-0.5c0-0.3-0.2-0.5-0.5-0.5H4.5l0.2-1.1l0.8-0.3c0.1-0.1,0.3-0.2,0.3-0.3l0.3-1.1
				L7.1,65c0.2-0.1,0.3-0.2,0.3-0.4v-0.3H14l0.4,1c0.1,0.1,0.2,0.2,0.3,0.3l1.4,0.5l0.7,1.3c0.1,0.2,0.3,0.2,0.4,0.2
				c0.1,0,0.2,0,0.2-0.1c0.2-0.1,0.3-0.4,0.2-0.7l-0.8-1.5c-0.1-0.1-0.2-0.2-0.3-0.2l-1.4-0.4l-0.2-0.4h2.7l0.7,1l0.2,0.9
				c0,0.1,0.1,0.2,0.1,0.2l0.8,0.8l-0.2,1.4c0,0.1,0,0.3,0.1,0.4c0.1,0.1,0.2,0.2,0.4,0.2h3.1c0.3,0,0.5-0.2,0.5-0.5
				c0-0.3-0.2-0.5-0.5-0.5h-2.6l0.1-1.1c0-0.1,0-0.3-0.1-0.4l-0.9-0.8L19.3,65c0-0.1,0-0.1-0.1-0.2l-0.4-0.5h5.9l1,0.6v0.7
				c0,0.1,0,0.2,0.1,0.2l0.6,1c0.1,0.1,0.2,0.2,0.3,0.2l0.6,0.1l0.2,1h-2.8c-0.3,0-0.5,0.2-0.5,0.5c0,0.3,0.2,0.5,0.5,0.5h3.4
				c0.1,0,0.3-0.1,0.4-0.2C28.6,68.9,28.6,68.7,28.6,68.6z M20.7,49.7l0.1-0.3l-0.1-0.3h0.8v0v0.6H20.7z M22,52l1.6,1.3h-3.1L22,52z
				 M23.4,54.2v7.6h-2.7v-6.1v-1.5H23.4z M18.3,61.8v-5.6h1.4v5.6H18.3z M13,56.2L13,56.2h1.4v5.6H13V56.2z M15.4,56.2h2v5.6h-2
				V56.2z M16.3,54.1l1.9,1.1h-3.9L16.3,54.1z M10.9,48.2c0,0.1,0.1,0.2,0.2,0.3H9.3c0.1-0.1,0.1-0.2,0.2-0.3l0.7-3.3L10.9,48.2z
				 M8.4,49.4H12v2.4h-1.2v-1.1c0-0.4-0.3-0.7-0.7-0.7c-0.4,0-0.7,0.3-0.7,0.7v1.1H8.4V49.4z M8.4,52.7H12v2.5h-1.2v-1.1
				c0-0.4-0.3-0.7-0.7-0.7c-0.4,0-0.7,0.3-0.7,0.7v1.1H8.4V52.7z M8.4,56.2H12v5.6h-1.2v-1.4c0-0.4-0.3-0.7-0.7-0.7
				c-0.4,0-0.7,0.3-0.7,0.7v1.4H8.4V56.2z M14.3,63.3L14.3,63.3H7.6l0.2-0.5h0.1h4.6h7.7h3.7h0.2l0.2,0.5H14.3z"/>
		</g>
		<g id="XMLID_1572_">
			<path id="XMLID_1588_" fill="#FFFFFF" d="M22.7,96.3c0-0.4-0.3-0.7-0.7-0.7c-0.4,0-0.7,0.3-0.7,0.7V98h1.4V96.3z"/>
			<path id="XMLID_1587_" fill="#FFFFFF" d="M16.3,108.2h-5.4c0,0,0,0,0,0l0.9-2c0.1-0.2,0-0.5-0.2-0.6c-0.2-0.1-0.5,0-0.6,0.2
				l-0.8,1.9l-0.7,0.6c-0.2,0.1-0.2,0.3-0.1,0.5c0.1,0.2,0.2,0.3,0.4,0.3h6.7c0.3,0,0.5-0.2,0.5-0.5
				C16.8,108.4,16.6,108.2,16.3,108.2z"/>
			<path id="XMLID_1573_" fill="#FFFFFF" d="M28.6,108.6l-0.4-1.8c0-0.2-0.2-0.3-0.4-0.4l-0.6-0.2l-0.4-0.8v-0.9
				c0-0.2-0.1-0.3-0.2-0.4l-1.2-0.7l-0.4-1.3c-0.1-0.2-0.2-0.3-0.5-0.3h-0.1v-7.6h0.6c0.2,0,0.4-0.1,0.5-0.3c0.1-0.2,0-0.4-0.1-0.5
				l-2.8-2.3v-0.4v-1.5v-1h-3.2l0.5,1.3l-0.5,1.3h2.3v0.5l-2.7,2.2c-0.2,0.1-0.2,0.3-0.1,0.5c0.1,0.2,0.2,0.3,0.5,0.3h0.6v0.7
				l-3.1-1.8c-0.1-0.1-0.3-0.1-0.5,0L13,94.9v-2.2h0c0.3,0,0.5-0.2,0.5-0.5c0-0.3-0.2-0.5-0.5-0.5h0v-2.4c0.2-0.1,0.3-0.2,0.3-0.5
				c0-0.2-0.1-0.4-0.3-0.4L12.2,88v-2.3c0-0.3-0.2-0.5-0.4-0.5c-0.2,0-0.3,0.1-0.4,0.2l-0.6-2.9v-0.6c0-0.3-0.2-0.5-0.5-0.5
				c-0.3,0-0.5,0.2-0.5,0.5v0.6l-0.6,2.9c-0.1-0.1-0.3-0.2-0.4-0.2c-0.3,0-0.4,0.2-0.4,0.5V88l-0.9,0.5C7.1,88.6,7,88.8,7.1,89
				c0,0.2,0.2,0.3,0.3,0.3v2.4h0c-0.3,0-0.5,0.2-0.5,0.5c0,0.3,0.2,0.5,0.5,0.5h0v2.5h0c-0.3,0-0.5,0.2-0.5,0.5
				c0,0.3,0.2,0.5,0.5,0.5h0v5.6h0c-0.2,0-0.4,0.1-0.5,0.3l-0.5,1.5c0,0,0,0,0,0c0,0,0,0,0,0c0,0,0,0.1,0,0.1c0,0,0,0,0,0v0.4
				l-0.9,0.4c-0.1,0.1-0.2,0.2-0.3,0.3L5,106l-0.8,0.3c-0.2,0.1-0.3,0.2-0.3,0.3l-0.4,1.9c0,0.1,0,0.3,0.1,0.4
				c0.1,0.1,0.2,0.2,0.4,0.2h4c0.3,0,0.5-0.2,0.5-0.5c0-0.3-0.2-0.5-0.5-0.5H4.5l0.2-1.1l0.8-0.3c0.1-0.1,0.3-0.2,0.3-0.3l0.3-1.1
				l0.9-0.4c0.2-0.1,0.3-0.2,0.3-0.4v-0.3H14l0.4,1c0.1,0.1,0.2,0.2,0.3,0.3l1.4,0.5l0.7,1.3c0.1,0.2,0.3,0.2,0.4,0.2
				c0.1,0,0.2,0,0.2-0.1c0.2-0.1,0.3-0.4,0.2-0.7l-0.8-1.5c-0.1-0.1-0.2-0.2-0.3-0.2l-1.4-0.4l-0.2-0.4h2.7l0.7,1l0.2,0.9
				c0,0.1,0.1,0.2,0.1,0.2l0.8,0.8l-0.2,1.4c0,0.1,0,0.3,0.1,0.4c0.1,0.1,0.2,0.2,0.4,0.2h3.1c0.3,0,0.5-0.2,0.5-0.5
				c0-0.3-0.2-0.5-0.5-0.5h-2.6l0.1-1.1c0-0.1,0-0.3-0.1-0.4l-0.9-0.8l-0.2-0.9c0-0.1,0-0.1-0.1-0.2l-0.4-0.5h5.9l1,0.6v0.7
				c0,0.1,0,0.2,0.1,0.2l0.6,1c0.1,0.1,0.2,0.2,0.3,0.2l0.6,0.1l0.2,1h-2.8c-0.3,0-0.5,0.2-0.5,0.5c0,0.3,0.2,0.5,0.5,0.5h3.4
				c0.1,0,0.3-0.1,0.4-0.2C28.6,108.9,28.6,108.7,28.6,108.6z M20.7,89.7l0.1-0.3l-0.1-0.3h0.8v0v0.6H20.7z M22,92l1.6,1.3h-3.1
				L22,92z M23.4,94.2v7.6h-2.7v-6.1v-1.5H23.4z M18.3,101.8v-5.6h1.4v5.6H18.3z M13,96.2L13,96.2h1.4v5.6H13V96.2z M15.4,96.2h2
				v5.6h-2V96.2z M16.3,94.1l1.9,1.1h-3.9L16.3,94.1z M10.9,88.2c0,0.1,0.1,0.2,0.2,0.3H9.3c0.1-0.1,0.1-0.2,0.2-0.3l0.7-3.3
				L10.9,88.2z M8.4,89.4H12v2.4h-1.2v-1.1c0-0.4-0.3-0.7-0.7-0.7c-0.4,0-0.7,0.3-0.7,0.7v1.1H8.4V89.4z M8.4,92.7H12v2.5h-1.2v-1.1
				c0-0.4-0.3-0.7-0.7-0.7c-0.4,0-0.7,0.3-0.7,0.7v1.1H8.4V92.7z M8.4,96.2H12v5.6h-1.2v-1.4c0-0.4-0.3-0.7-0.7-0.7
				c-0.4,0-0.7,0.3-0.7,0.7v1.4H8.4V96.2z M14.3,103.3L14.3,103.3H7.6l0.2-0.5h0.1h4.6h7.7h3.7h0.2l0.2,0.5H14.3z"/>
		</g>
		<g id="XMLID_1740_">
			<path id="XMLID_1756_" fill="#1D70AD" d="M22.7,136.3c0-0.4-0.3-0.7-0.7-0.7c-0.4,0-0.7,0.3-0.7,0.7v1.7h1.4V136.3z"/>
			<path id="XMLID_1755_" fill="#1D70AD" d="M16.3,148.2h-5.4c0,0,0,0,0,0l0.9-2c0.1-0.2,0-0.5-0.2-0.6c-0.2-0.1-0.5,0-0.6,0.2
				l-0.8,1.9l-0.7,0.6c-0.2,0.1-0.2,0.3-0.1,0.5c0.1,0.2,0.2,0.3,0.4,0.3h6.7c0.3,0,0.5-0.2,0.5-0.5
				C16.8,148.4,16.6,148.2,16.3,148.2z"/>
			<path id="XMLID_1741_" fill="#1D70AD" d="M28.6,148.6l-0.4-1.8c0-0.2-0.2-0.3-0.4-0.4l-0.6-0.2l-0.4-0.8v-0.9
				c0-0.2-0.1-0.3-0.2-0.4l-1.2-0.7l-0.4-1.3c-0.1-0.2-0.2-0.3-0.5-0.3h-0.1v-7.6h0.6c0.2,0,0.4-0.1,0.5-0.3c0.1-0.2,0-0.4-0.1-0.5
				l-2.8-2.3v-0.4v-1.5v-1h-3.2l0.5,1.3l-0.5,1.3h2.3v0.5l-2.7,2.2c-0.2,0.1-0.2,0.3-0.1,0.5c0.1,0.2,0.2,0.3,0.5,0.3h0.6v0.7
				l-3.1-1.8c-0.1-0.1-0.3-0.1-0.5,0l-3.1,1.8v-2.2h0c0.3,0,0.5-0.2,0.5-0.5c0-0.3-0.2-0.5-0.5-0.5h0v-2.4c0.2-0.1,0.3-0.2,0.3-0.5
				c0-0.2-0.1-0.4-0.3-0.4l-0.9-0.5v-2.3c0-0.3-0.2-0.5-0.4-0.5c-0.2,0-0.3,0.1-0.4,0.2l-0.6-2.9v-0.6c0-0.3-0.2-0.5-0.5-0.5
				c-0.3,0-0.5,0.2-0.5,0.5v0.6l-0.6,2.9c-0.1-0.1-0.3-0.2-0.4-0.2c-0.3,0-0.4,0.2-0.4,0.5v2.3l-0.9,0.5c-0.2,0.1-0.3,0.3-0.2,0.5
				c0,0.2,0.2,0.3,0.3,0.3v2.4h0c-0.3,0-0.5,0.2-0.5,0.5c0,0.3,0.2,0.5,0.5,0.5h0v2.5h0c-0.3,0-0.5,0.2-0.5,0.5
				c0,0.3,0.2,0.5,0.5,0.5h0v5.6h0c-0.2,0-0.4,0.1-0.5,0.3l-0.5,1.5c0,0,0,0,0,0c0,0,0,0,0,0c0,0,0,0.1,0,0.1c0,0,0,0,0,0v0.4
				l-0.9,0.4c-0.1,0.1-0.2,0.2-0.3,0.3L5,146l-0.8,0.3c-0.2,0.1-0.3,0.2-0.3,0.3l-0.4,1.9c0,0.1,0,0.3,0.1,0.4
				c0.1,0.1,0.2,0.2,0.4,0.2h4c0.3,0,0.5-0.2,0.5-0.5c0-0.3-0.2-0.5-0.5-0.5H4.5l0.2-1.1l0.8-0.3c0.1-0.1,0.3-0.2,0.3-0.3l0.3-1.1
				l0.9-0.4c0.2-0.1,0.3-0.2,0.3-0.4v-0.3H14l0.4,1c0.1,0.1,0.2,0.2,0.3,0.3l1.4,0.5l0.7,1.3c0.1,0.2,0.3,0.2,0.4,0.2
				c0.1,0,0.2,0,0.2-0.1c0.2-0.1,0.3-0.4,0.2-0.7l-0.8-1.5c-0.1-0.1-0.2-0.2-0.3-0.2l-1.4-0.4l-0.2-0.4h2.7l0.7,1l0.2,0.9
				c0,0.1,0.1,0.2,0.1,0.2l0.8,0.8l-0.2,1.4c0,0.1,0,0.3,0.1,0.4c0.1,0.1,0.2,0.2,0.4,0.2h3.1c0.3,0,0.5-0.2,0.5-0.5
				c0-0.3-0.2-0.5-0.5-0.5h-2.6l0.1-1.1c0-0.1,0-0.3-0.1-0.4l-0.9-0.8l-0.2-0.9c0-0.1,0-0.1-0.1-0.2l-0.4-0.5h5.9l1,0.6v0.7
				c0,0.1,0,0.2,0.1,0.2l0.6,1c0.1,0.1,0.2,0.2,0.3,0.2l0.6,0.1l0.2,1h-2.8c-0.3,0-0.5,0.2-0.5,0.5c0,0.3,0.2,0.5,0.5,0.5h3.4
				c0.1,0,0.3-0.1,0.4-0.2C28.6,148.9,28.6,148.7,28.6,148.6z M20.7,129.7l0.1-0.3l-0.1-0.3h0.8v0v0.6H20.7z M22,132l1.6,1.3h-3.1
				L22,132z M23.4,134.2v7.6h-2.7v-6.1v-1.5H23.4z M18.3,141.8v-5.6h1.4v5.6H18.3z M13,136.2L13,136.2h1.4v5.6H13V136.2z
				 M15.4,136.2h2v5.6h-2V136.2z M16.3,134.1l1.9,1.1h-3.9L16.3,134.1z M10.9,128.2c0,0.1,0.1,0.2,0.2,0.3H9.3
				c0.1-0.1,0.1-0.2,0.2-0.3l0.7-3.3L10.9,128.2z M8.4,129.4H12v2.4h-1.2v-1.1c0-0.4-0.3-0.7-0.7-0.7c-0.4,0-0.7,0.3-0.7,0.7v1.1
				H8.4V129.4z M8.4,132.7H12v2.5h-1.2v-1.1c0-0.4-0.3-0.7-0.7-0.7c-0.4,0-0.7,0.3-0.7,0.7v1.1H8.4V132.7z M8.4,136.2H12v5.6h-1.2
				v-1.4c0-0.4-0.3-0.7-0.7-0.7c-0.4,0-0.7,0.3-0.7,0.7v1.4H8.4V136.2z M14.3,143.3L14.3,143.3H7.6l0.2-0.5h0.1h4.6h7.7h3.7h0.2
				l0.2,0.5H14.3z"/>
		</g>
</svg>
