<svg width="32" height="232" viewBox="0 0 32 232" xmlns="http://www.w3.org/2000/svg"><g fill="none"><path d="M16.93 143.863c-.118-.843-.56-1.59-1.245-2.106-.332-.25-.702-.426-1.093-.533.326-.592.457-1.268.363-1.95-.118-.843-.56-1.59-1.245-2.105-.313-.24-.66-.41-1.028-.52.318-.59.443-1.26.35-1.93-.116-.85-.56-1.59-1.244-2.11-.565-.43-1.24-.65-1.948-.65-1.018 0-1.955.46-2.57 1.26-.61.79-.782 1.78-.56 2.68-.733.02-1.418.28-1.965.73l-3.085-2.31c-.318-.24-.77-.18-1.01.13-.242.31-.18.76.137.99l3.088 2.32c-.3.66-.36 1.39-.192 2.07-.978.03-1.872.48-2.466 1.25-.52.68-.743 1.51-.626 2.36.12.84.56 1.59 1.25 2.1.57.42 1.24.65 1.95.65.85 0 1.64-.32 2.23-.88.2.31.46.6.78.84.57.42 1.24.64 1.95.64.86 0 1.65-.32 2.25-.9.21.34.48.643.81.89.57.42 1.24.65 1.95.65 1.02 0 1.96-.46 2.57-1.26.52-.68.74-1.52.63-2.36zm-4.093-5.558c.38.284.623.697.687 1.163.064.466-.058.93-.346 1.304-.34.443-.857.697-1.42.697-.392 0-.763-.13-1.075-.36-.47-.36-.712-.9-.702-1.44l.05-.38c.06-.23.16-.45.31-.65.16-.2.34-.36.55-.47.13-.05.26-.1.39-.16.16-.05.32-.07.49-.07.39 0 .77.12 1.08.36zm-4.42-4.21c.34-.443.858-.696 1.42-.696.393 0 .763.12 1.076.35.38.28.624.7.688 1.16.07.46-.05.93-.34 1.3-.15.19-.34.35-.54.47-.13.04-.26.09-.38.15-.15.04-.32.07-.49.07-.39 0-.76-.13-1.07-.36-.78-.59-.93-1.7-.34-2.47zm-1.605 3.244c.39 0 .762.12 1.075.35.38.28.623.69.688 1.16l.014.28-.05.36c-.06.23-.16.46-.32.66-.15.19-.34.35-.55.47-.13.04-.26.09-.39.16-.16.04-.32.07-.49.07-.39 0-.77-.13-1.08-.36-.79-.59-.94-1.7-.34-2.47.34-.45.86-.7 1.42-.7zm-3.03 7.46c-.392 0-.765-.13-1.077-.36-.38-.29-.623-.7-.688-1.17-.064-.47.058-.93.346-1.31.34-.44.857-.7 1.42-.7.392 0 .764.12 1.076.35.47.35.71.9.7 1.45l-.05.34c-.06.23-.16.46-.32.67-.34.44-.86.69-1.42.69zm4.948.6c-.39 0-.763-.13-1.076-.36-.474-.36-.716-.9-.7-1.45l.043-.35c.055-.24.158-.47.316-.67.15-.2.337-.35.546-.47.13-.05.26-.1.38-.16.15-.05.32-.07.49-.07.39 0 .76.12 1.07.36.38.28.62.69.69 1.16.06.46-.06.92-.35 1.3-.34.44-.86.69-1.42.69zm6.424-.05c-.34.44-.858.69-1.42.69-.393 0-.764-.13-1.076-.36-.38-.29-.623-.7-.69-1.16-.063-.47.06-.93.347-1.31.34-.45.858-.7 1.42-.7.392 0 .764.12 1.077.36.38.28.623.69.687 1.16.06.46-.06.92-.35 1.3zm12.207 3.78h-3.22v-11.9c4.06-.68 7.17-4.18 7.17-8.39 0-.06-.15-6.57-.92-8.06-.24-.48-.74-.79-1.28-.79H16.3c-.547 0-1.045.3-1.29.78-.764 1.49-.92 7.99-.92 8.06 0 4.2 3.105 7.7 7.166 8.38v11.9H18.03c-.797 0-1.443.63-1.443 1.42s.648 1.42 1.444 1.42h9.34c.8 0 1.45-.64 1.45-1.43s-.64-1.43-1.44-1.43zm-9.94-26.28h10.55c.18 1.17.34 3.22.41 4.68H17.01c.07-1.47.225-3.51.406-4.69zm-.44 6.11h11.43c-.06 3.06-2.6 5.53-5.71 5.53s-5.65-2.47-5.72-5.54z" fill="#206FAC"/><path d="M16.93 103.863c-.118-.843-.56-1.59-1.245-2.106-.332-.25-.702-.426-1.093-.533.326-.592.457-1.268.363-1.95-.118-.843-.56-1.59-1.245-2.105-.313-.24-.66-.41-1.028-.52.318-.59.443-1.26.35-1.93-.116-.85-.56-1.59-1.244-2.11-.565-.43-1.24-.65-1.948-.65-1.018 0-1.955.46-2.57 1.26-.61.79-.782 1.78-.56 2.68-.733.02-1.418.28-1.965.73l-3.085-2.3c-.318-.24-.77-.18-1.01.13-.242.31-.18.76.137 1l3.088 2.31c-.3.66-.36 1.39-.192 2.07-.978.03-1.872.49-2.466 1.26-.52.68-.743 1.52-.626 2.36.12.84.56 1.59 1.25 2.11.57.42 1.24.65 1.95.65.85 0 1.64-.32 2.23-.88.2.31.46.6.78.84.57.42 1.24.65 1.95.65.86 0 1.65-.33 2.25-.9.21.34.48.64.81.89.57.42 1.24.65 1.95.65 1.02 0 1.96-.46 2.57-1.26.52-.68.74-1.52.63-2.36zm-4.093-5.558c.38.284.623.697.687 1.163.064.466-.058.93-.346 1.304-.34.443-.857.697-1.42.697-.392 0-.763-.13-1.075-.36-.47-.36-.712-.9-.702-1.44l.05-.38c.06-.23.16-.45.31-.65.16-.2.34-.36.55-.47.13-.05.26-.1.39-.16.16-.05.32-.07.49-.07.39 0 .77.12 1.08.36zm-4.42-4.21c.34-.443.858-.696 1.42-.696.393 0 .763.12 1.076.35.38.28.624.7.688 1.16.07.46-.05.93-.34 1.3-.15.19-.34.35-.54.47-.13.04-.26.09-.38.15-.15.04-.32.07-.49.07-.39 0-.76-.13-1.07-.36-.78-.59-.93-1.7-.34-2.47zM6.812 97.34c.39 0 .762.123 1.075.357.38.284.623.697.688 1.164l.014.29-.05.36c-.06.24-.16.46-.32.66-.15.2-.34.36-.55.47-.13.05-.26.1-.39.16-.16.05-.32.07-.49.07-.39 0-.77-.12-1.08-.36-.79-.58-.94-1.69-.34-2.46.34-.44.86-.69 1.42-.69zm-3.03 7.462c-.392 0-.765-.124-1.077-.36-.38-.283-.623-.696-.688-1.163-.064-.47.058-.93.346-1.31.34-.44.857-.7 1.42-.7.392 0 .764.12 1.076.35.47.35.71.9.7 1.45l-.05.34c-.06.23-.16.46-.32.67-.34.44-.86.7-1.42.7zm4.948.607c-.39 0-.763-.13-1.076-.36-.474-.36-.716-.9-.7-1.45l.043-.35c.055-.24.158-.47.316-.67.15-.2.337-.36.546-.47.13-.05.26-.1.38-.16.15-.05.32-.07.49-.07.39 0 .76.12 1.07.36.38.28.62.69.69 1.16.06.46-.06.92-.35 1.3-.34.44-.86.69-1.42.69zm6.424-.05c-.34.44-.858.69-1.42.69-.393 0-.764-.13-1.076-.36-.38-.29-.623-.7-.69-1.16-.063-.47.06-.93.347-1.31.34-.45.858-.7 1.42-.7.392 0 .764.12 1.077.36.38.28.623.69.687 1.16.06.46-.06.93-.35 1.3zm12.207 3.78h-3.22v-11.9c4.06-.68 7.17-4.18 7.17-8.39 0-.06-.15-6.57-.92-8.06-.24-.48-.74-.79-1.28-.79H16.3c-.547 0-1.045.3-1.29.78-.764 1.49-.92 7.99-.92 8.06 0 4.2 3.105 7.7 7.166 8.38v11.9H18.03c-.797 0-1.443.64-1.443 1.42s.648 1.42 1.444 1.42h9.34c.8 0 1.45-.64 1.45-1.43s-.64-1.43-1.44-1.43zm-9.94-26.27h10.55c.18 1.17.34 3.22.41 4.69H17.01c.07-1.47.225-3.52.406-4.69zm-.44 6.11h11.43c-.06 3.06-2.6 5.53-5.71 5.53s-5.65-2.47-5.72-5.54z" fill="#fff"/><path d="M16.93 63.863c-.118-.843-.56-1.59-1.245-2.106-.332-.25-.702-.426-1.093-.533.326-.592.457-1.268.363-1.95-.118-.843-.56-1.59-1.245-2.105-.313-.24-.66-.41-1.028-.52.318-.59.443-1.26.35-1.93-.116-.85-.56-1.59-1.244-2.11-.565-.43-1.24-.65-1.948-.65-1.018 0-1.955.46-2.57 1.26-.61.79-.782 1.78-.56 2.68-.733.02-1.418.28-1.965.73l-3.085-2.3c-.318-.24-.77-.18-1.01.13-.242.31-.18.76.137 1l3.088 2.31c-.3.66-.36 1.39-.192 2.07-.978.03-1.872.49-2.466 1.26-.52.68-.743 1.52-.626 2.36.12.84.56 1.59 1.25 2.11.57.42 1.24.65 1.95.65.85 0 1.64-.32 2.23-.88.2.31.46.6.78.84.57.42 1.24.65 1.95.65.86 0 1.65-.33 2.25-.9.21.34.48.64.81.89.57.42 1.24.65 1.95.65 1.02 0 1.96-.46 2.57-1.26.52-.68.74-1.52.63-2.36zm-4.093-5.558c.38.284.623.697.687 1.163.064.466-.058.93-.346 1.304-.34.443-.857.697-1.42.697-.392 0-.763-.13-1.075-.36-.47-.36-.712-.9-.702-1.44l.05-.38c.06-.23.16-.45.31-.65.16-.2.34-.36.55-.47.13-.05.26-.1.39-.16.16-.05.32-.07.49-.07.39 0 .77.12 1.08.36zm-4.42-4.21c.34-.443.858-.696 1.42-.696.393 0 .763.12 1.076.35.38.28.624.7.688 1.16.07.46-.05.93-.34 1.3-.15.19-.34.35-.54.47-.13.04-.26.09-.38.15-.15.04-.32.07-.49.07-.39 0-.76-.13-1.07-.36-.78-.59-.93-1.7-.34-2.47zM6.812 57.34c.39 0 .762.123 1.075.357.38.284.623.697.688 1.164l.014.29-.05.36c-.06.24-.16.46-.32.66-.15.2-.34.36-.55.47-.13.05-.26.1-.39.16-.16.05-.32.07-.49.07-.39 0-.77-.12-1.08-.36-.79-.58-.94-1.69-.34-2.46.34-.44.86-.69 1.42-.69zm-3.03 7.46c-.392 0-.765-.124-1.077-.36-.38-.283-.623-.696-.688-1.163-.064-.467.058-.93.346-1.305.34-.442.857-.696 1.42-.696.392 0 .764.123 1.076.357.47.356.71.902.7 1.45l-.05.346c-.06.23-.16.46-.32.67-.34.44-.86.69-1.42.69zm4.948.607c-.39 0-.763-.125-1.076-.36-.474-.355-.716-.9-.7-1.448l.043-.35c.055-.24.158-.47.316-.67.15-.2.337-.36.546-.47.13-.05.26-.1.38-.16.15-.05.32-.07.49-.07.39 0 .76.12 1.07.36.38.28.62.69.69 1.16.06.46-.06.92-.35 1.3-.34.44-.86.69-1.42.69zm6.424-.05c-.34.443-.858.697-1.42.697-.393 0-.764-.124-1.076-.36-.38-.283-.623-.696-.69-1.162-.063-.466.06-.928.347-1.304.34-.442.858-.695 1.42-.695.392 0 .764.123 1.077.358.38.29.623.7.687 1.17.06.47-.06.93-.35 1.31zm12.207 3.787h-3.22v-11.9c4.06-.68 7.17-4.18 7.17-8.383 0-.06-.15-6.56-.92-8.06-.24-.48-.74-.78-1.28-.78H16.3c-.547 0-1.045.31-1.29.79-.764 1.5-.92 8-.92 8.06 0 4.21 3.105 7.71 7.166 8.39v11.9H18.03c-.797 0-1.443.64-1.443 1.43 0 .79.648 1.43 1.444 1.43h9.34c.8 0 1.45-.64 1.45-1.42s-.64-1.42-1.44-1.42zM17.42 42.87h10.55c.18 1.175.335 3.22.404 4.687H17.01c.07-1.466.225-3.512.406-4.688zm-.443 6.113H28.41c-.065 3.063-2.604 5.534-5.718 5.534s-5.653-2.47-5.72-5.534z" fill="#67737B"/><path d="M16.93 23.863c-.118-.843-.56-1.59-1.245-2.106-.332-.25-.702-.426-1.093-.533.326-.592.457-1.268.363-1.95-.118-.843-.56-1.59-1.245-2.105-.313-.24-.66-.41-1.028-.52.318-.59.443-1.26.35-1.93-.116-.85-.56-1.59-1.244-2.11-.565-.43-1.24-.65-1.948-.65-1.018 0-1.955.46-2.57 1.26-.61.79-.782 1.78-.56 2.68-.733.02-1.418.28-1.965.73l-3.085-2.3c-.318-.24-.77-.18-1.01.13-.242.31-.18.76.137 1l3.088 2.31c-.3.66-.36 1.39-.192 2.07-.978.03-1.872.49-2.466 1.26-.52.68-.743 1.52-.626 2.36.12.84.56 1.59 1.25 2.11.57.42 1.24.65 1.95.65.85 0 1.64-.32 2.23-.88.2.31.46.6.78.84.57.42 1.24.65 1.95.65.86 0 1.65-.33 2.25-.9.21.34.48.64.81.89.57.42 1.24.65 1.95.65 1.02 0 1.96-.46 2.57-1.26.52-.68.74-1.52.63-2.36zm-4.093-5.558c.38.284.623.697.687 1.163.064.466-.058.93-.346 1.304-.34.443-.857.697-1.42.697-.392 0-.763-.13-1.075-.36-.47-.36-.712-.9-.702-1.44l.05-.38c.06-.23.16-.45.31-.65.16-.2.34-.36.55-.47.13-.05.26-.1.39-.16.16-.05.32-.07.49-.07.39 0 .77.12 1.08.36zm-4.42-4.21c.34-.443.858-.696 1.42-.696.393 0 .763.12 1.076.35.38.28.624.7.688 1.16.07.46-.05.93-.34 1.3-.15.19-.34.35-.54.47-.13.04-.26.09-.38.15-.15.04-.32.07-.49.07-.39 0-.76-.13-1.07-.36-.78-.59-.93-1.7-.34-2.47zM6.812 17.34c.39 0 .762.123 1.075.357.38.284.623.697.688 1.164l.014.29-.05.36c-.06.24-.16.46-.32.66-.15.2-.34.36-.55.47-.13.05-.26.1-.39.16-.16.05-.32.07-.49.07-.39 0-.77-.12-1.08-.36-.79-.58-.94-1.69-.34-2.46.34-.44.86-.69 1.42-.69zm-3.03 7.46c-.392 0-.765-.124-1.077-.36-.38-.283-.623-.696-.688-1.163-.064-.467.058-.93.346-1.305.34-.442.857-.696 1.42-.696.392 0 .764.123 1.076.357.47.356.71.902.7 1.45l-.05.346c-.06.23-.16.46-.32.67-.34.44-.86.69-1.42.69zm4.948.607c-.39 0-.763-.125-1.076-.36-.474-.355-.716-.9-.7-1.448l.043-.35c.055-.24.158-.47.316-.67.15-.2.337-.36.546-.47.13-.05.26-.1.38-.16.15-.05.32-.07.49-.07.39 0 .76.12 1.07.36.38.28.62.69.69 1.16.06.46-.06.92-.35 1.3-.34.44-.86.69-1.42.69zm6.424-.05c-.34.443-.858.697-1.42.697-.393 0-.764-.124-1.076-.36-.38-.283-.623-.696-.69-1.162-.063-.466.06-.928.347-1.304.34-.442.858-.695 1.42-.695.392 0 .764.123 1.077.358.38.29.623.7.687 1.17.06.47-.06.93-.35 1.31zm12.207 3.787h-3.22v-11.9c4.06-.68 7.17-4.18 7.17-8.383 0-.06-.15-6.56-.92-8.06-.24-.48-.74-.78-1.28-.78H16.3c-.547 0-1.045.31-1.29.79-.764 1.5-.92 8-.92 8.06 0 4.21 3.105 7.71 7.166 8.39v11.9H18.03c-.797 0-1.443.64-1.443 1.43 0 .79.648 1.43 1.444 1.43h9.34c.8 0 1.45-.64 1.45-1.42s-.64-1.42-1.44-1.42zM17.42 2.872h10.55c.18 1.176.335 3.222.404 4.688H17.01c.07-1.466.225-3.512.406-4.688zm-.443 6.114H28.41c-.065 3.063-2.604 5.534-5.718 5.534s-5.653-2.47-5.72-5.534z" fill="#3A434E"/></g></svg>