<svg width="32" height="232" viewBox="0 0 32 232" xmlns="http://www.w3.org/2000/svg"><g fill="none"><path d="M31.865 147.12l-2.03-4.925c-.158-.385-.52-.634-.92-.634h-1.4l-.08-7.34h1.16c.48-.08.844-.51.844-1.04v-1.06l1-1.75c.28-.5.13-1.15-.34-1.45-.13-.08-.27-.12-.41-.14l.25-1.04c.07-.31.01-.65-.18-.9-.19-.26-.49-.41-.79-.41h-7.71c.09-.3.04-.63-.13-.9-.19-.28-.5-.46-.83-.46h-3.15l.19-.2c.19-.2.19-.54 0-.74-.2-.2-.51-.2-.71 0l-.13.14v-.58c0-.29-.23-.53-.5-.53s-.51.24-.51.53v.58l-.13-.14c-.2-.2-.52-.2-.71.01-.2.21-.2.54 0 .75l.19.2H11.6c-.332 0-.64.17-.83.46-.172.26-.22.59-.13.9h-7.7c-.31 0-.6.15-.79.4-.19.26-.256.59-.18.908l.25 1.048c-.156.02-.31.074-.45.17-.458.33-.578.986-.268 1.467l.977 1.52v1.28c0 .58.45 1.05 1 1.05l.23-.03h.87l-.08 7.34H3.05c-.4 0-.76.25-.92.64L.08 147.2c-.133.325-.103.7.083.996.186.3.5.48.838.48h29.98c.56 0 1.01-.47 1.01-1.06 0-.17-.04-.33-.11-.48zM5.51 141.56l.08-7.34h.265l.114 10.525h-.5l.03-3.185zm1.347-7.34h1.547l-.08 7.34H6.937l-.08-7.34zm2.93 10.525H9.29l.116-10.526h.266l.115 10.52zm.887-10.526h1.547l-.08 7.34h-1.38l-.08-7.34zm2.93 10.52h-.496l.115-10.53h.267l.115 10.52zm.887-10.53h3.04l-.08 7.34h-2.88l-.08-7.34zm4.42 10.52h-.49l.12-10.53h.27l.11 9.44.01 1.08zm.89-10.53h1.55l-.08 7.34h-1.39l-.08-7.34zm2.93 10.52h-.49l.12-10.53h.27l.12 10.52zm.89-10.53h1.55l-.08 7.34H23.7l-.08-7.34zm2.9 7.34l.04 3.18h-.49l.12-10.53h.27l.08 7.34zM4.41 131.16h-.54l-.158-.244-.113-.174-.27-.415h25.42l-.24.42-.1.174-.14.25H4.4zm-.17-2.66h7.61v.664H4.4l-.16-.67zm8.166-1.886h7.22l-.114.3-.174.475H12.69l-.175-.48-.11-.31zm15.13 2.55H20.18v-.67h7.513l-.16.665zm-14.684-.72h6.328v.715h-6.33v-.72zm-8.356 3.763H27.44v.95H4.486v-.948zm-1.964 14.33l1.184-2.88h.77l-.018 1.6c-.002.14.05.276.145.377.09.1.22.156.355.156h1.51c.134 0 .262-.053.356-.153.095-.1.147-.234.146-.374l-.018-1.6H8.3l-.018 1.6c-.002.14.05.277.144.378.094.1.223.16.357.16h1.51c.133 0 .262-.06.356-.16.09-.1.14-.23.14-.37l-.02-1.6h1.34l-.02 1.6c0 .14.05.28.14.38.09.1.22.16.35.16h1.51c.13 0 .26-.06.35-.16.09-.1.14-.23.14-.37l-.02-1.6h2.83l-.02 1.6c0 .14.05.28.14.38.09.1.22.16.35.16h1.51c.132 0 .26-.05.354-.15.094-.1.147-.23.145-.37l-.02-1.6h1.34l-.02 1.6c0 .14.05.28.15.38.09.1.22.15.35.15h1.51c.135 0 .26-.054.357-.154.09-.1.143-.24.14-.38l-.015-1.6h1.34l-.017 1.6c0 .14.05.277.14.378.09.1.22.156.355.156H27c.13 0 .26-.06.354-.16.09-.1.14-.237.14-.377l-.02-1.6h.72l1.19 2.88H2.53z" fill="#206FAC"/><path d="M31.865 107.12l-2.03-4.925c-.158-.385-.52-.634-.92-.634h-1.4l-.08-7.34h1.16c.48-.08.844-.51.844-1.04v-1.07l1-1.75c.28-.5.13-1.15-.34-1.45-.13-.08-.27-.12-.41-.14l.25-1.04c.07-.31.01-.65-.18-.9-.19-.26-.49-.4-.79-.4h-7.71c.09-.3.04-.63-.13-.9-.19-.28-.5-.45-.83-.45h-3.15l.19-.2c.19-.21.19-.54 0-.75-.2-.2-.51-.2-.71 0l-.13.14v-.58c0-.29-.23-.53-.5-.53s-.51.24-.51.53v.58l-.13-.14c-.2-.2-.52-.2-.71.01-.2.205-.2.54 0 .744l.19.2H11.6c-.332 0-.64.17-.83.46-.172.264-.22.596-.13.9h-7.7c-.31 0-.6.15-.79.406-.19.25-.256.59-.18.9l.25 1.05c-.156.015-.31.072-.45.17-.458.33-.578.98-.268 1.463l.977 1.52v1.28c0 .58.45 1.05 1 1.05l.23-.03h.87l-.08 7.34H3.05c-.4 0-.76.25-.92.632l-2.05 4.97c-.133.323-.103.7.083.994.186.3.5.475.838.475h29.98c.56 0 1.01-.47 1.01-1.053 0-.17-.04-.33-.11-.48zM5.51 101.56l.08-7.34h.265l.114 10.525h-.5l.03-3.185zm1.347-7.34h1.547l-.08 7.34H6.937l-.08-7.34zm2.93 10.525H9.29l.116-10.526h.266l.115 10.52zm.887-10.526h1.547l-.08 7.34h-1.38l-.08-7.34zm2.93 10.52h-.496l.115-10.53h.267l.115 10.52zm.887-10.53h3.04l-.08 7.34h-2.88l-.08-7.34zm4.42 10.52h-.49l.12-10.53h.27l.11 9.44.01 1.08zm.89-10.53h1.55l-.08 7.34h-1.39l-.08-7.34zm2.93 10.52h-.49l.12-10.53h.27l.12 10.52zm.89-10.53h1.55l-.08 7.34H23.7l-.08-7.34zm2.9 7.34l.04 3.18h-.49l.11-10.52h.27l.08 7.34zM4.41 91.16h-.54l-.158-.243-.113-.174-.27-.415h25.42l-.24.42-.1.174-.14.244H4.4zm-.17-2.66h7.61v.665H4.4l-.16-.67zm8.162-1.88h7.22l-.116.302-.174.474h-6.64l-.17-.475-.11-.3zm15.13 2.55h-7.356v-.67h7.514l-.16.664zm-14.686-.72h6.328v.716h-6.328v-.718zM4.49 92.213h22.944v.948H4.488v-.94zm-1.963 14.33l1.186-2.88h.77l-.018 1.598c-.002.14.05.28.145.38.092.1.22.16.354.16h1.51c.134 0 .262-.05.356-.15.095-.1.147-.23.146-.37l-.018-1.6H8.3l-.018 1.6c-.002.14.05.28.144.38.094.1.223.16.357.16h1.51c.133 0 .262-.06.356-.16.09-.1.14-.23.14-.37l-.02-1.6h1.34l-.02 1.6c0 .14.05.28.14.38.09.1.22.16.35.16h1.51c.13 0 .26-.06.35-.16.09-.1.14-.24.14-.38l-.02-1.6h2.83l-.02 1.6c0 .14.05.28.14.38.09.1.22.16.35.16h1.51c.132 0 .26-.05.354-.15.094-.1.147-.23.145-.37l-.02-1.6h1.34l-.02 1.6c0 .14.05.276.15.376.09.1.22.16.35.16h1.51c.135 0 .26-.05.357-.15.09-.1.143-.24.14-.38l-.015-1.6h1.34L25 105.3c0 .14.05.275.14.376.09.1.22.157.355.157h1.51c.13 0 .26-.06.354-.16.09-.1.14-.24.14-.38l-.02-1.6h.72l1.19 2.88H2.53z" fill="#fff"/><path d="M31.865 67.12l-2.03-4.925c-.158-.385-.52-.634-.92-.634h-1.4l-.08-7.34h1.16c.48-.08.844-.51.844-1.04v-1.07l1-1.75c.28-.5.13-1.15-.34-1.45-.13-.08-.27-.12-.41-.14l.25-1.04c.07-.31.01-.65-.18-.9-.19-.26-.49-.4-.79-.4h-7.71c.09-.3.04-.63-.13-.9-.19-.28-.5-.45-.83-.45h-3.15l.19-.2c.19-.21.19-.54 0-.75-.2-.2-.51-.2-.71 0l-.13.14v-.58c0-.29-.23-.53-.5-.53s-.51.24-.51.53v.58l-.13-.14c-.2-.2-.52-.2-.71.01-.2.205-.2.54 0 .744l.19.2H11.6c-.332 0-.64.17-.83.46-.172.264-.22.596-.13.9h-7.7c-.31 0-.6.15-.79.406-.19.25-.256.59-.18.9l.25 1.05c-.156.015-.31.072-.45.17-.458.33-.578.98-.268 1.463l.977 1.52v1.28c0 .58.45 1.05 1 1.05l.23-.03h.87l-.08 7.34H3.05c-.4 0-.76.25-.92.632L.08 67.19c-.133.327-.103.7.083.998.186.3.5.477.838.477h29.98c.56 0 1.01-.47 1.01-1.053 0-.17-.04-.33-.11-.48zM5.51 61.56l.08-7.34h.265l.114 10.525h-.5l.03-3.185zm1.347-7.34h1.547l-.08 7.34H6.937l-.08-7.34zm2.93 10.525H9.29l.116-10.526h.266l.115 10.52zm.887-10.526h1.547l-.08 7.34h-1.38l-.08-7.34zm2.93 10.52h-.496l.115-10.53h.267l.115 10.52zm.887-10.53h3.04l-.08 7.34h-2.88l-.08-7.34zm4.42 10.52h-.49l.12-10.53h.27l.11 9.44.01 1.08zm.89-10.53h1.55l-.08 7.34h-1.39l-.08-7.34zm2.93 10.52h-.49l.12-10.53h.27l.12 10.52zm.89-10.53h1.55l-.08 7.34H23.7l-.08-7.34zm2.9 7.34l.04 3.18h-.49l.11-10.52h.27l.08 7.34zM4.41 51.16h-.54l-.158-.243-.113-.174-.27-.415h25.42l-.24.42-.1.174-.14.244H4.4zm-.17-2.66h7.61v.665H4.4l-.16-.67zm8.162-1.88h7.22l-.116.302-.174.474h-6.64l-.17-.475-.11-.3zm15.13 2.55h-7.356v-.67h7.514l-.16.664zm-14.686-.72h6.328v.716h-6.328v-.718zM4.49 52.213h22.944v.948H4.488v-.94zm-1.963 14.33l1.186-2.88h.77l-.018 1.598c-.002.14.05.28.145.38.092.1.22.16.354.16h1.51c.134 0 .262-.05.356-.15.095-.1.147-.23.146-.37l-.018-1.6H8.3l-.018 1.6c-.002.14.05.28.144.38.094.1.223.16.357.16h1.51c.133 0 .262-.06.356-.16.09-.1.14-.23.14-.37l-.02-1.6h1.34l-.02 1.6c0 .14.05.28.14.38.09.1.22.16.35.16h1.51c.13 0 .26-.06.35-.16.09-.1.14-.24.14-.38l-.02-1.6h2.83l-.02 1.6c0 .14.05.28.14.38.09.1.22.16.35.16h1.51c.132 0 .26-.05.354-.15.094-.1.147-.23.145-.37l-.02-1.6h1.34l-.02 1.6c0 .14.05.276.15.376.09.1.22.16.35.16h1.51c.135 0 .26-.05.357-.15.09-.1.143-.24.14-.38l-.015-1.6h1.34L25 65.3c0 .14.05.275.14.376.09.1.22.157.355.157h1.51c.13 0 .26-.06.354-.16.09-.1.14-.24.14-.38l-.02-1.6h.72l1.19 2.88H2.53z" fill="#67737B"/><path d="M31.865 27.12l-2.03-4.925c-.158-.385-.52-.634-.92-.634h-1.4l-.08-7.34h1.16c.48-.08.844-.51.844-1.04v-1.07l1-1.75c.28-.5.13-1.15-.34-1.45-.13-.08-.27-.12-.41-.14l.25-1.04c.07-.31.01-.65-.18-.9-.19-.26-.49-.4-.79-.4h-7.71c.09-.3.04-.63-.13-.9-.19-.28-.5-.45-.83-.45h-3.15l.19-.2c.19-.21.19-.54 0-.75-.2-.2-.51-.2-.71 0l-.13.14v-.58c0-.29-.23-.53-.5-.53s-.51.24-.51.53v.58l-.13-.14c-.2-.2-.52-.2-.71.01-.2.205-.2.54 0 .744l.19.2H11.6c-.332 0-.64.17-.83.46-.172.264-.22.596-.13.9h-7.7c-.31 0-.6.15-.79.406-.19.25-.256.59-.18.9l.25 1.05c-.156.015-.31.072-.45.17-.458.33-.578.98-.268 1.463l.977 1.52v1.28c0 .58.45 1.05 1 1.05l.23-.03h.87l-.08 7.34H3.05c-.4 0-.76.25-.92.632L.08 27.19c-.133.327-.103.7.083.998.186.3.5.477.838.477h29.98c.56 0 1.01-.47 1.01-1.053 0-.17-.04-.33-.11-.48zM5.51 21.56l.08-7.34h.265l.114 10.525h-.5l.03-3.185zm1.347-7.34h1.547l-.08 7.34H6.937l-.08-7.34zm2.93 10.525H9.29l.116-10.526h.266l.115 10.52zm.887-10.526h1.547l-.08 7.34h-1.38l-.08-7.34zm2.93 10.52h-.496l.115-10.53h.267l.115 10.52zm.887-10.53h3.04l-.08 7.34h-2.88l-.08-7.34zm4.42 10.52h-.49l.12-10.53h.27l.11 9.44.01 1.08zm.89-10.53h1.55l-.08 7.34h-1.39l-.08-7.34zm2.93 10.52h-.49l.12-10.53h.27l.12 10.52zm.89-10.53h1.55l-.08 7.34H23.7l-.08-7.34zm2.9 7.34l.04 3.18h-.49l.11-10.52h.27l.08 7.34zM4.41 11.16h-.54l-.158-.243-.113-.174-.27-.415h25.42l-.24.42-.1.174-.14.244H4.4zM4.24 8.5h7.61v.665H4.4l-.16-.67zm8.16-1.88h7.22l-.115.303-.174.478h-6.64l-.17-.47-.11-.3zm15.13 2.55h-7.355V8.5h7.514l-.16.665zm-14.686-.72h6.328v.716h-6.327V8.45zm-8.356 3.764h22.945v.948H4.488v-.948zm-1.962 14.33l1.186-2.88h.77l-.017 1.598c-.002.14.05.276.145.377.093.1.22.15.355.15h1.51c.134 0 .262-.06.356-.16.1-.1.15-.24.15-.38l-.02-1.6H8.3l-.018 1.6c-.002.14.05.27.144.37.094.1.223.15.357.15h1.51c.133 0 .262-.06.356-.16.09-.1.14-.24.14-.38l-.02-1.6h1.34l-.02 1.6c0 .14.05.27.14.37.09.1.22.16.35.16h1.51c.13 0 .26-.06.35-.16.09-.1.14-.24.14-.38l-.02-1.6h2.83l-.02 1.6c0 .14.05.28.14.38.09.1.22.15.35.15h1.51c.132 0 .26-.06.354-.16.094-.1.147-.24.145-.38l-.02-1.6h1.34l-.02 1.6c0 .14.05.28.15.38.09.1.22.153.35.153h1.51c.135 0 .26-.056.357-.156.09-.1.143-.24.14-.38l-.015-1.6h1.34L25 25.22c0 .14.05.28.14.38.09.1.22.16.355.16h1.51c.13 0 .26-.06.354-.16.09-.1.14-.237.14-.377l-.02-1.6h.72l1.19 2.88H2.53z" fill="#373D43"/></g></svg>