<svg width="32" height="232" viewBox="0 0 32 232" xmlns="http://www.w3.org/2000/svg"><g fill="none"><path d="M31.883 146.592l-2.03-5.027c-.16-.393-.522-.648-.92-.648H27.53l-.08-7.49h1.05l.038-.006h.072c.48-.08.85-.52.85-1.06v-1.08l1.01-1.79c.286-.51.13-1.17-.342-1.47-.13-.08-.266-.13-.405-.14l.25-1.06c.077-.32.01-.66-.18-.92s-.482-.42-.79-.42h-7.72c.09-.31.04-.65-.13-.92-.19-.29-.498-.47-.83-.47h-3.15l.193-.2c.197-.21.197-.55 0-.76-.194-.21-.512-.21-.707 0l-.13.14v-.59c0-.3-.23-.54-.51-.54s-.5.24-.5.54v.59l-.13-.14c-.2-.21-.52-.21-.71 0-.2.21-.2.55 0 .76l.19.21h-3.25c-.33 0-.64.17-.83.46-.17.27-.22.61-.13.92H2.95c-.31 0-.6.15-.79.42-.19.26-.26.6-.18.927l.25 1.066c-.158.02-.313.078-.453.18-.457.33-.578 1-.267 1.49l.977 1.547v1.31c0 .59.45 1.07 1.002 1.07l.23-.03h.86l-.08 7.497H3.05c-.4 0-.76.256-.92.65l-2.055 5.09c-.134.335-.104.72.082 1.02.184.31.5.49.837.49h29.99c.554 0 1.003-.48 1.003-1.075 0-.175-.04-.34-.11-.49zM5.51 140.916l.08-7.49h.267l.115 10.74h-.496l.035-3.25zm1.35-7.49h1.548l-.08 7.49H6.94l-.08-7.49zm2.933 10.74h-.496l.114-10.74h.27l.12 10.74zm.887-10.74h1.548l-.08 7.49H10.76l-.08-7.49zm2.932 10.74h-.495l.115-10.74h.266l.114 10.74zm.888-10.74h3.037l-.08 7.49H14.58l-.08-7.49zm4.422 10.74h-.496l.115-10.74h.27l.12 10.74zm.887-10.74h1.54l-.08 7.49h-1.38l-.08-7.49zm2.93 10.74h-.5l.11-10.74h.26l.11 10.74zm.88-10.74h1.55l-.08 7.49h-1.38l-.08-7.49zm2.89 7.49l.02 2.15.01 1.1h-.5l.11-10.74h.26l.08 7.49zM4.4 130.306h-.53l-.155-.247-.115-.19-.267-.43h25.432l-.24.43-.24.42H4.408zm-.17-2.712h7.615v.678H4.4l-.16-.678zm8.17-1.926h7.226l-.29.796H12.69l-.173-.483-.114-.31zm15.14 2.603h-7.36v-.67h7.52l-.16.68zm-14.692-.73h6.332v.73h-6.33v-.73zm-8.36 3.85h22.96v.97H4.492v-.96zm-1.96 14.62l1.186-2.94h.77l-.014 1.63c-.006.15.05.29.14.39.095.1.224.16.358.16h1.51c.134 0 .262-.06.357-.16.094-.1.146-.24.145-.38l-.018-1.63h1.342l-.018 1.63c-.003.14.05.28.143.38.09.11.22.16.35.16h1.51c.13 0 .26-.05.36-.16.09-.1.14-.24.14-.38l-.02-1.63h1.34l-.02 1.63c0 .15.05.28.14.39.09.1.22.16.35.16h1.51c.13 0 .26-.06.35-.16.09-.1.14-.24.14-.38l-.02-1.63h2.83l-.02 1.63c-.01.15.05.29.14.39.09.1.22.16.35.16h1.51c.13 0 .26-.06.35-.16.093-.1.15-.24.15-.38l-.02-1.63h1.34l-.02 1.63c0 .14.05.28.14.38.1.1.23.16.36.16h1.51c.13 0 .26-.06.36-.16.09-.1.14-.24.14-.38l-.02-1.63H25l-.017 1.63c0 .14.05.28.14.38.09.11.22.16.35.16H27c.132 0 .26-.05.355-.16.096-.1.15-.24.147-.38l-.01-1.63h.72l1.19 2.94H2.53z" fill="#206FAC"/><path d="M31.883 106.592l-2.03-5.027c-.16-.393-.522-.648-.92-.648H27.53l-.08-7.49h1.05l.038-.006h.072c.48-.08.85-.52.85-1.06v-1.09l1.01-1.79c.286-.51.13-1.17-.342-1.47-.13-.08-.266-.13-.405-.14l.25-1.06c.077-.32.01-.66-.18-.92s-.482-.41-.79-.41h-7.72c.09-.31.04-.65-.13-.92-.19-.29-.498-.47-.83-.47h-3.15l.193-.2c.197-.21.197-.55 0-.76-.194-.21-.512-.21-.707 0l-.13.14v-.59c0-.29-.23-.54-.51-.54s-.5.24-.5.54v.59l-.13-.14c-.2-.21-.52-.2-.71.01-.2.21-.2.55 0 .76l.19.21h-3.25c-.33 0-.64.17-.83.46-.17.27-.22.61-.13.92H2.95c-.31 0-.6.16-.79.42-.19.26-.26.605-.18.926l.25 1.066c-.158.015-.313.074-.453.175-.457.337-.578 1-.267 1.497l.977 1.55v1.31c0 .6.45 1.08 1.002 1.08l.23-.03h.86l-.08 7.49H3.05c-.4 0-.76.26-.92.65L.075 106.7c-.134.33-.104.72.082 1.02.184.308.5.49.837.49h29.99c.554 0 1.003-.48 1.003-1.072 0-.173-.04-.34-.11-.49zM5.51 100.916l.08-7.49h.267l.115 10.74h-.496l.035-3.25zm1.35-7.49h1.548l-.08 7.49H6.94l-.08-7.49zm2.933 10.74h-.496l.114-10.74h.27l.12 10.74zm.887-10.74h1.548l-.08 7.49H10.76l-.08-7.49zm2.932 10.74h-.495l.115-10.74h.266l.114 10.74zm.888-10.74h3.037l-.08 7.49H14.58l-.08-7.49zm4.422 10.74h-.496l.115-10.74h.27l.12 10.74zm.887-10.74h1.54l-.08 7.49h-1.38l-.08-7.49zm2.93 10.74h-.5l.11-10.74h.26l.11 10.74zm.88-10.74h1.55l-.08 7.49h-1.38l-.08-7.49zm2.89 7.49l.02 2.15.01 1.1h-.5l.11-10.74h.26l.08 7.49zM4.4 90.306h-.53l-.155-.247-.115-.19-.267-.43h25.432l-.24.43-.24.42H4.408zm-.17-2.712h7.615v.678H4.4l-.16-.678zm8.17-1.926h7.226l-.29.796H12.69l-.173-.483-.114-.31zm15.14 2.603h-7.36v-.67h7.52l-.16.68zm-14.692-.73h6.332v.73h-6.33v-.73zm-8.36 3.85h22.96v.97H4.492v-.96zm-1.96 14.62l1.186-2.94h.77l-.014 1.63c-.006.15.05.29.14.39.095.1.224.16.358.16h1.51c.134 0 .262-.06.357-.16.094-.1.146-.24.145-.38l-.018-1.63h1.342l-.018 1.63c-.003.14.05.28.143.38.09.11.22.16.35.16h1.51c.13 0 .26-.05.36-.16.09-.1.14-.24.14-.38l-.02-1.63h1.34l-.02 1.63c0 .15.05.28.14.39.09.1.22.16.35.16h1.51c.13 0 .26-.06.35-.16.09-.1.14-.24.14-.38l-.02-1.63h2.83l-.02 1.63c-.01.15.05.29.14.39.09.1.22.16.35.16h1.51c.13 0 .26-.06.35-.16.093-.1.15-.24.15-.38l-.02-1.63h1.34l-.02 1.63c0 .14.05.28.14.38.1.1.23.16.36.16h1.51c.13 0 .26-.06.36-.16.09-.1.14-.24.14-.38l-.02-1.63H25l-.017 1.63c0 .14.05.28.14.38.09.11.22.16.35.16H27c.132 0 .26-.05.355-.16.096-.1.15-.24.147-.38l-.01-1.63h.72l1.19 2.94H2.53z" fill="#fff"/><path d="M31.883 66.592l-2.03-5.027c-.16-.393-.522-.648-.92-.648H27.53l-.08-7.49h1.05l.038-.006h.072c.48-.08.85-.52.85-1.06v-1.09l1.01-1.79c.286-.51.13-1.17-.342-1.47-.13-.08-.266-.13-.405-.14l.25-1.06c.077-.32.01-.66-.18-.92s-.482-.41-.79-.41h-7.72c.09-.31.04-.65-.13-.92-.19-.29-.498-.47-.83-.47h-3.15l.193-.2c.197-.21.197-.55 0-.76-.194-.21-.512-.21-.707 0l-.13.14v-.59c0-.29-.23-.54-.51-.54s-.5.24-.5.54v.59l-.13-.14c-.2-.21-.52-.2-.71.01-.2.21-.2.55 0 .76l.19.21h-3.25c-.33 0-.64.17-.83.46-.17.27-.22.61-.13.92H2.95c-.31 0-.6.16-.79.42-.19.26-.26.605-.18.926l.25 1.066c-.158.015-.313.074-.453.175-.457.337-.578 1-.267 1.497l.977 1.55v1.31c0 .6.45 1.08 1.002 1.08l.23-.03h.86l-.08 7.49H3.05c-.4 0-.76.26-.92.65L.08 66.66c-.134.333-.104.716.082 1.02.185.3.5.483.838.483h29.99c.553 0 1.002-.48 1.002-1.075 0-.17-.04-.34-.11-.49zM5.51 60.916l.08-7.49h.267l.115 10.74h-.496l.035-3.25zm1.35-7.49h1.548l-.08 7.49H6.94l-.08-7.49zm2.933 10.74h-.496l.114-10.74h.27l.12 10.74zm.887-10.74h1.548l-.08 7.49H10.76l-.08-7.49zm2.932 10.74h-.495l.115-10.74h.266l.114 10.74zm.888-10.74h3.037l-.08 7.49H14.58l-.08-7.49zm4.422 10.74h-.496l.115-10.74h.27l.12 10.74zm.887-10.74h1.54l-.08 7.49h-1.38l-.08-7.49zm2.93 10.74h-.5l.11-10.74h.26l.11 10.74zm.88-10.74h1.55l-.08 7.49h-1.38l-.08-7.49zm2.89 7.49l.02 2.15.01 1.1h-.5l.11-10.74h.26l.08 7.49zM4.4 50.306h-.53l-.155-.247-.115-.19-.267-.43h25.432l-.24.43-.24.42H4.408zm-.17-2.712h7.615v.678H4.4l-.16-.678zm8.17-1.926h7.226l-.29.796H12.69l-.173-.483-.114-.31zm15.14 2.603h-7.36v-.67h7.52l-.16.68zm-14.692-.73h6.332v.73h-6.33v-.73zm-8.36 3.85h22.96v.97H4.492v-.96zm-1.96 14.62l1.186-2.94h.77l-.02 1.64c-.002.15.05.29.145.39.09.1.22.16.35.16h1.51c.13 0 .26-.06.35-.16.09-.1.14-.24.14-.38l-.02-1.63H8.3l-.018 1.63c-.002.15.05.29.144.39.094.1.222.16.36.16h1.51c.13 0 .26-.06.354-.16.094-.1.146-.24.144-.38l-.02-1.63h1.343l-.017 1.63c-.002.15.05.29.144.39.096.1.225.16.358.16h1.51c.135 0 .263-.06.358-.16.094-.1.146-.24.145-.38L14.6 63.1h2.83l-.02 1.63c-.01.145.05.284.14.385.09.107.22.16.36.16h1.51c.13 0 .26-.053.35-.16.09-.1.14-.24.14-.38l-.02-1.63h1.34l-.018 1.63c-.005.146.05.285.14.386.093.11.22.16.356.16h1.51c.137 0 .265-.05.36-.16.094-.1.146-.24.144-.38l-.015-1.63h1.34l-.016 1.63c0 .15.05.29.15.39.09.1.22.16.35.16h1.51c.14 0 .26-.06.36-.16.1-.1.15-.24.15-.38l-.01-1.63h.72l1.19 2.94H2.53z" fill="#67737B"/><path d="M31.883 26.592l-2.03-5.027c-.16-.393-.522-.648-.92-.648H27.53l-.08-7.49h1.05l.038-.006h.072c.48-.08.85-.52.85-1.06v-1.09l1.01-1.79c.286-.51.13-1.17-.342-1.47-.13-.08-.266-.13-.405-.14l.25-1.06c.077-.32.01-.66-.18-.92s-.482-.41-.79-.41h-7.72c.09-.31.04-.65-.13-.92-.19-.29-.498-.47-.83-.47h-3.15l.193-.2c.197-.21.197-.55 0-.76-.194-.21-.512-.21-.707 0l-.13.14v-.59c0-.29-.23-.54-.51-.54s-.5.24-.5.54v.59l-.13-.14c-.2-.21-.52-.2-.71.01-.2.21-.2.55 0 .76l.19.21h-3.25c-.33 0-.64.17-.83.46-.17.27-.22.61-.13.92H2.95c-.31 0-.6.16-.79.42-.19.26-.26.605-.18.926L2.23 7.9c-.158.014-.313.073-.453.174-.457.337-.578 1-.267 1.497l.977 1.55v1.31c0 .6.45 1.08 1.002 1.08l.23-.03h.86l-.08 7.49H3.05c-.4 0-.76.26-.92.65L.08 26.66c-.134.333-.104.716.082 1.02.185.3.5.483.838.483h29.99c.553 0 1.002-.48 1.002-1.075 0-.17-.04-.34-.11-.49zM5.51 20.916l.08-7.49h.267l.115 10.74h-.496l.035-3.25zm1.35-7.49h1.548l-.08 7.49H6.94l-.08-7.49zm2.933 10.74h-.496l.114-10.74h.27l.12 10.74zm.887-10.74h1.548l-.08 7.49H10.76l-.08-7.49zm2.932 10.74h-.495l.115-10.74h.266l.114 10.74zm.888-10.74h3.037l-.08 7.49H14.58l-.08-7.49zm4.422 10.74h-.496l.115-10.74h.27l.12 10.74zm.887-10.74h1.54l-.08 7.49h-1.38l-.08-7.49zm2.93 10.74h-.5l.11-10.74h.26l.11 10.74zm.88-10.74h1.55l-.08 7.49h-1.38l-.08-7.49zm2.89 7.49l.02 2.15.01 1.1h-.5l.11-10.74h.26l.08 7.49zM4.4 10.306h-.53l-.155-.247-.115-.19-.267-.43h25.432l-.24.43-.24.42H4.408zm-.17-2.712h7.615v.678H4.4l-.16-.678zm8.17-1.926h7.226l-.29.796H12.69l-.173-.483-.114-.31zM27.54 8.27h-7.36V7.6h7.52l-.16.678zm-14.69-.73h6.333v.73H12.85v-.73zm-8.36 3.844h22.96v.968H4.493v-.967zM2.53 26.006l1.187-2.94h.77l-.02 1.634c-.002.144.05.283.145.384.094.102.223.16.357.16h1.51c.13 0 .26-.058.35-.16.09-.102.14-.24.14-.384l-.02-1.63H8.3l-.017 1.63c-.002.144.05.283.144.384.096.102.224.16.36.16h1.51c.133 0 .26-.058.356-.16.094-.102.146-.24.144-.384l-.018-1.63h1.34l-.02 1.63c-.01.144.05.283.14.384.09.102.22.16.36.16h1.51c.13 0 .26-.058.35-.16.09-.102.14-.24.14-.384l-.02-1.63h2.83l-.01 1.63c-.01.144.05.283.14.384.09.102.22.16.36.16h1.51c.13 0 .26-.058.35-.16.09-.102.14-.24.14-.384l-.02-1.63h1.34l-.02 1.63c-.01.144.05.283.14.384.09.102.22.16.36.16h1.51c.13 0 .26-.058.35-.16.09-.102.15-.24.14-.384l-.018-1.63h1.34l-.02 1.63c0 .144.05.283.143.384.093.102.22.16.355.16h1.51c.13 0 .26-.058.356-.16.1-.102.15-.24.15-.384l-.02-1.63h.72l1.19 2.938H2.53z" fill="#3A434E"/></g></svg>