<svg width="32" height="232" viewBox="0 0 32 232" xmlns="http://www.w3.org/2000/svg"><g fill="none">
			<path id="XMLID_994_" fill="#3A444F" d="M14.8,26.1c-0.4,0-0.7,0.3-0.7,0.7v0.7h1.5v-0.7C15.5,26.4,15.2,26.1,14.8,26.1z"/>
			<path id="XMLID_993_" fill="#3A444F" d="M17.2,26.1c-0.4,0-0.7,0.3-0.7,0.7v0.7h1.5v-0.7C17.9,26.4,17.6,26.1,17.2,26.1z"/>
			<path id="XMLID_983_" fill="#3A444F" d="M21.6,17.2h-1.2V15c0.2-0.1,0.3-0.2,0.3-0.5v-3h0.6c0.2,0,0.4-0.2,0.5-0.4
				c0-0.2-0.1-0.4-0.3-0.5c0,0-1-0.4-2.1-1.6c-1-1.1-2.4-3-2.9-6.1V2.7c0.2,0,0.4-0.2,0.4-0.5c0-0.2-0.2-0.4-0.4-0.5V1.5
				C16.5,1.2,16.3,1,16,1c-0.3,0-0.5,0.2-0.5,0.5v0.3c-0.2,0-0.4,0.2-0.4,0.5c0,0.2,0.2,0.4,0.4,0.5v0.2C15,6,13.7,7.9,12.7,9
				c-1.1,1.2-2.1,1.6-2.1,1.6c-0.2,0.1-0.3,0.3-0.3,0.5c0,0.2,0.2,0.4,0.5,0.4h0.6v3c0,0.2,0.1,0.4,0.3,0.5v2.3h-1.2
				c-0.3,0-0.5,0.2-0.5,0.5c0,0.2,0.1,0.4,0.3,0.4v2.1c0,0.1,0,0.1,0,0.2l1.1,2.5l-0.3,7.5c0,0.1,0,0.3,0.1,0.4
				c0.1,0.1,0.2,0.1,0.3,0.1h8.8c0,0,0,0,0,0c0.3,0,0.5-0.2,0.5-0.5c0,0,0,0,0-0.1L20.6,23l1.1-2.5c0-0.1,0-0.1,0-0.2v-2.1
				c0.2-0.1,0.3-0.2,0.3-0.4C22.1,17.5,21.8,17.2,21.6,17.2z M16,5.1c0.9,2.8,2.4,4.5,3.6,5.4h-7.1C13.6,9.6,15.1,7.9,16,5.1z
				 M12.8,11.5v0.8h0.9v-0.8h0.9v0.8h0.9v-0.8h0.9v0.8h0.9v-0.8h0.9v0.8h0.9v-0.8h0.6V14h-7.5v-2.5H12.8z M12.6,15h6.8v2.2h-1.5
				v-0.4c0-0.4-0.3-0.7-0.7-0.7c-0.4,0-0.7,0.3-0.7,0.7v0.4h-1v-0.4c0-0.4-0.3-0.7-0.7-0.7c-0.4,0-0.7,0.3-0.7,0.7v0.4h-1.5V15z
				 M19.7,22.4H19v-1.6c0-0.1,0.2-0.2,0.3-0.3c0.2,0.1,0.3,0.2,0.3,0.3V22.4z M16.3,22.4h-0.7v-1.6c0-0.1,0.2-0.2,0.3-0.3
				c0.2,0.1,0.3,0.2,0.3,0.3V22.4z M13,22.4h-0.7v-1.6c0-0.1,0.2-0.2,0.3-0.3c0.2,0.1,0.3,0.2,0.3,0.3V22.4z M12.1,30l0.2-6.7h1.2
				h1.7h1.6h1.7h1.2l0.2,6.7H12.1z M20.8,20.2l-0.2,0.4c-0.1-0.6-0.8-1-1.1-1.1c-0.1-0.1-0.3-0.1-0.4,0c-0.3,0.1-1.1,0.6-1.1,1.3
				v1.7h-0.8v-1.7c0-0.7-0.8-1.1-1.1-1.3c-0.1-0.1-0.3-0.1-0.4,0c-0.3,0.1-1.1,0.6-1.1,1.3v1.7H14v-1.7c0-0.7-0.8-1.1-1.1-1.3
				c-0.1-0.1-0.3-0.1-0.4,0c-0.2,0.1-0.9,0.5-1.1,1.1l-0.2-0.4v-1.9h9.6V20.2z"/>
		</g>
		<g id="XMLID_1352_">
			<path id="XMLID_1364_" fill="#67737C" d="M14.8,66.1c-0.4,0-0.7,0.3-0.7,0.7v0.7h1.5v-0.7C15.5,66.4,15.2,66.1,14.8,66.1z"/>
			<path id="XMLID_1363_" fill="#67737C" d="M17.2,66.1c-0.4,0-0.7,0.3-0.7,0.7v0.7h1.5v-0.7C17.9,66.4,17.6,66.1,17.2,66.1z"/>
			<path id="XMLID_1353_" fill="#67737C" d="M21.6,57.2h-1.2V55c0.2-0.1,0.3-0.2,0.3-0.5v-3h0.6c0.2,0,0.4-0.2,0.5-0.4
				c0-0.2-0.1-0.5-0.3-0.5c0,0-1-0.4-2.1-1.6c-1-1.1-2.4-3-2.9-6.1v-0.2c0.2,0,0.4-0.2,0.4-0.5c0-0.2-0.2-0.4-0.4-0.5v-0.3
				c0-0.3-0.2-0.5-0.5-0.5c-0.3,0-0.5,0.2-0.5,0.5v0.3c-0.2,0-0.4,0.2-0.4,0.5c0,0.2,0.2,0.4,0.4,0.5v0.2c-0.5,3.1-1.8,5-2.9,6.1
				c-1.1,1.2-2.1,1.6-2.1,1.6c-0.2,0.1-0.3,0.3-0.3,0.5c0,0.2,0.2,0.4,0.5,0.4h0.6v3c0,0.2,0.1,0.4,0.3,0.5v2.3h-1.2
				c-0.3,0-0.5,0.2-0.5,0.5c0,0.2,0.1,0.4,0.3,0.4v2.1c0,0.1,0,0.1,0,0.2l1.1,2.5l-0.3,7.5c0,0.1,0,0.3,0.1,0.4
				c0.1,0.1,0.2,0.1,0.3,0.1h8.8c0,0,0,0,0,0c0.3,0,0.5-0.2,0.5-0.5c0,0,0,0,0-0.1L20.6,63l1.1-2.5c0-0.1,0-0.1,0-0.2v-2.1
				c0.2-0.1,0.3-0.2,0.3-0.4C22.1,57.5,21.8,57.2,21.6,57.2z M16,45.1c0.9,2.8,2.4,4.5,3.6,5.4h-7.1C13.6,49.6,15.1,47.9,16,45.1z
				 M12.8,51.5v0.8h0.9v-0.8h0.9v0.8h0.9v-0.8h0.9v0.8h0.9v-0.8h0.9v0.8h0.9v-0.8h0.6V54h-7.5v-2.5H12.8z M12.6,55h6.8v2.2h-1.5
				v-0.4c0-0.4-0.3-0.7-0.7-0.7c-0.4,0-0.7,0.3-0.7,0.7v0.4h-1v-0.4c0-0.4-0.3-0.7-0.7-0.7c-0.4,0-0.7,0.3-0.7,0.7v0.4h-1.5V55z
				 M19.7,62.4H19v-1.6c0-0.1,0.2-0.2,0.3-0.3c0.2,0.1,0.3,0.2,0.3,0.3V62.4z M16.3,62.4h-0.7v-1.6c0-0.1,0.2-0.2,0.3-0.3
				c0.2,0.1,0.3,0.2,0.3,0.3V62.4z M13,62.4h-0.7v-1.6c0-0.1,0.2-0.2,0.3-0.3c0.2,0.1,0.3,0.2,0.3,0.3V62.4z M12.1,70l0.2-6.7h1.2
				h1.7h1.6h1.7h1.2l0.2,6.7H12.1z M20.8,60.2l-0.2,0.4c-0.1-0.6-0.8-1-1.1-1.1c-0.1-0.1-0.3-0.1-0.4,0c-0.3,0.1-1.1,0.6-1.1,1.3
				v1.7h-0.8v-1.7c0-0.7-0.8-1.1-1.1-1.3c-0.1-0.1-0.3-0.1-0.4,0c-0.3,0.1-1.1,0.6-1.1,1.3v1.7H14v-1.7c0-0.7-0.8-1.1-1.1-1.3
				c-0.1-0.1-0.3-0.1-0.4,0c-0.2,0.1-0.9,0.5-1.1,1.1l-0.2-0.4v-1.9h9.6V60.2z"/>
		</g>
		<g id="XMLID_1546_">
			<path id="XMLID_1558_" fill="#FFFFFF" d="M14.8,106.1c-0.4,0-0.7,0.3-0.7,0.7v0.7h1.5v-0.7C15.5,106.4,15.2,106.1,14.8,106.1z"/>
			<path id="XMLID_1557_" fill="#FFFFFF" d="M17.2,106.1c-0.4,0-0.7,0.3-0.7,0.7v0.7h1.5v-0.7C17.9,106.4,17.6,106.1,17.2,106.1z"/>
			<path id="XMLID_1547_" fill="#FFFFFF" d="M21.6,97.2h-1.2V95c0.2-0.1,0.3-0.2,0.3-0.5v-3h0.6c0.2,0,0.4-0.2,0.5-0.4
				c0-0.2-0.1-0.4-0.3-0.5c0,0-1-0.4-2.1-1.6c-1-1.1-2.4-3-2.9-6.1v-0.2c0.2,0,0.4-0.2,0.4-0.5c0-0.2-0.2-0.4-0.4-0.5v-0.3
				c0-0.3-0.2-0.5-0.5-0.5c-0.3,0-0.5,0.2-0.5,0.5v0.3c-0.2,0-0.4,0.2-0.4,0.5c0,0.2,0.2,0.4,0.4,0.5v0.2c-0.5,3.1-1.8,5-2.9,6.1
				c-1.1,1.2-2.1,1.6-2.1,1.6c-0.2,0.1-0.3,0.3-0.3,0.5c0,0.2,0.2,0.4,0.5,0.4h0.6v3c0,0.2,0.1,0.4,0.3,0.5v2.3h-1.2
				c-0.3,0-0.5,0.2-0.5,0.5c0,0.2,0.1,0.4,0.3,0.4v2.1c0,0.1,0,0.1,0,0.2l1.1,2.5l-0.3,7.5c0,0.1,0,0.3,0.1,0.4
				c0.1,0.1,0.2,0.1,0.3,0.1h8.8c0,0,0,0,0,0c0.3,0,0.5-0.2,0.5-0.5c0,0,0,0,0-0.1l-0.3-7.5l1.1-2.5c0-0.1,0-0.1,0-0.2v-2.1
				c0.2-0.1,0.3-0.2,0.3-0.4C22.1,97.5,21.8,97.2,21.6,97.2z M16,85.1c0.9,2.8,2.4,4.5,3.6,5.4h-7.1C13.6,89.6,15.1,87.9,16,85.1z
				 M12.8,91.5v0.8h0.9v-0.8h0.9v0.8h0.9v-0.8h0.9v0.8h0.9v-0.8h0.9v0.8h0.9v-0.8h0.6V94h-7.5v-2.5H12.8z M12.6,95h6.8v2.2h-1.5
				v-0.4c0-0.4-0.3-0.7-0.7-0.7c-0.4,0-0.7,0.3-0.7,0.7v0.4h-1v-0.4c0-0.4-0.3-0.7-0.7-0.7c-0.4,0-0.7,0.3-0.7,0.7v0.4h-1.5V95z
				 M19.7,102.4H19v-1.6c0-0.1,0.2-0.2,0.3-0.3c0.2,0.1,0.3,0.2,0.3,0.3V102.4z M16.3,102.4h-0.7v-1.6c0-0.1,0.2-0.2,0.3-0.3
				c0.2,0.1,0.3,0.2,0.3,0.3V102.4z M13,102.4h-0.7v-1.6c0-0.1,0.2-0.2,0.3-0.3c0.2,0.1,0.3,0.2,0.3,0.3V102.4z M12.1,110l0.2-6.7
				h1.2h1.7h1.6h1.7h1.2l0.2,6.7H12.1z M20.8,100.2l-0.2,0.4c-0.1-0.6-0.8-1-1.1-1.1c-0.1-0.1-0.3-0.1-0.4,0
				c-0.3,0.1-1.1,0.6-1.1,1.3v1.7h-0.8v-1.7c0-0.7-0.8-1.1-1.1-1.3c-0.1-0.1-0.3-0.1-0.4,0c-0.3,0.1-1.1,0.6-1.1,1.3v1.7H14v-1.7
				c0-0.7-0.8-1.1-1.1-1.3c-0.1-0.1-0.3-0.1-0.4,0c-0.2,0.1-0.9,0.5-1.1,1.1l-0.2-0.4v-1.9h9.6V100.2z"/>
		</g>
		<g id="XMLID_1714_">
			<path id="XMLID_1726_" fill="#1D70AD" d="M14.8,146.1c-0.4,0-0.7,0.3-0.7,0.7v0.7h1.5v-0.7C15.5,146.4,15.2,146.1,14.8,146.1z"/>
			<path id="XMLID_1725_" fill="#1D70AD" d="M17.2,146.1c-0.4,0-0.7,0.3-0.7,0.7v0.7h1.5v-0.7C17.9,146.4,17.6,146.1,17.2,146.1z"/>
			<path id="XMLID_1715_" fill="#1D70AD" d="M21.6,137.2h-1.2V135c0.2-0.1,0.3-0.2,0.3-0.5v-3h0.6c0.2,0,0.4-0.2,0.5-0.4
				c0-0.2-0.1-0.4-0.3-0.5c0,0-1-0.4-2.1-1.6c-1-1.1-2.4-3-2.9-6.1v-0.2c0.2,0,0.4-0.2,0.4-0.5c0-0.2-0.2-0.4-0.4-0.5v-0.3
				c0-0.3-0.2-0.5-0.5-0.5c-0.3,0-0.5,0.2-0.5,0.5v0.3c-0.2,0-0.4,0.2-0.4,0.5c0,0.2,0.2,0.4,0.4,0.5v0.2c-0.5,3.1-1.8,5-2.9,6.1
				c-1.1,1.2-2.1,1.6-2.1,1.6c-0.2,0.1-0.3,0.3-0.3,0.5c0,0.2,0.2,0.4,0.5,0.4h0.6v3c0,0.2,0.1,0.4,0.3,0.5v2.3h-1.2
				c-0.3,0-0.5,0.2-0.5,0.5c0,0.2,0.1,0.4,0.3,0.4v2.1c0,0.1,0,0.1,0,0.2l1.1,2.5l-0.3,7.5c0,0.1,0,0.3,0.1,0.4
				c0.1,0.1,0.2,0.1,0.3,0.1h8.8c0,0,0,0,0,0c0.3,0,0.5-0.2,0.5-0.5c0,0,0,0,0-0.1l-0.3-7.5l1.1-2.5c0-0.1,0-0.1,0-0.2v-2.1
				c0.2-0.1,0.3-0.2,0.3-0.4C22.1,137.5,21.8,137.2,21.6,137.2z M16,125.1c0.9,2.8,2.4,4.5,3.6,5.4h-7.1
				C13.6,129.6,15.1,127.9,16,125.1z M12.8,131.5v0.8h0.9v-0.8h0.9v0.8h0.9v-0.8h0.9v0.8h0.9v-0.8h0.9v0.8h0.9v-0.8h0.6v2.5h-7.5
				v-2.5H12.8z M12.6,135h6.8v2.2h-1.5v-0.4c0-0.4-0.3-0.7-0.7-0.7c-0.4,0-0.7,0.3-0.7,0.7v0.4h-1v-0.4c0-0.4-0.3-0.7-0.7-0.7
				c-0.4,0-0.7,0.3-0.7,0.7v0.4h-1.5V135z M19.7,142.4H19v-1.6c0-0.1,0.2-0.2,0.3-0.3c0.2,0.1,0.3,0.2,0.3,0.3V142.4z M16.3,142.4
				h-0.7v-1.6c0-0.1,0.2-0.2,0.3-0.3c0.2,0.1,0.3,0.2,0.3,0.3V142.4z M13,142.4h-0.7v-1.6c0-0.1,0.2-0.2,0.3-0.3
				c0.2,0.1,0.3,0.2,0.3,0.3V142.4z M12.1,150l0.2-6.7h1.2h1.7h1.6h1.7h1.2l0.2,6.7H12.1z M20.8,140.2l-0.2,0.4
				c-0.1-0.6-0.8-1-1.1-1.1c-0.1-0.1-0.3-0.1-0.4,0c-0.3,0.1-1.1,0.6-1.1,1.3v1.7h-0.8v-1.7c0-0.7-0.8-1.1-1.1-1.3
				c-0.1-0.1-0.3-0.1-0.4,0c-0.3,0.1-1.1,0.6-1.1,1.3v1.7H14v-1.7c0-0.7-0.8-1.1-1.1-1.3c-0.1-0.1-0.3-0.1-0.4,0
				c-0.2,0.1-0.9,0.5-1.1,1.1l-0.2-0.4v-1.9h9.6V140.2z"/>
		</g>
</svg>
