<svg width="32" height="232" viewBox="0 0 32 232" xmlns="http://www.w3.org/2000/svg"><g fill="none">
		<path id="XMLID_518_" fill="#3A444F" d="M30.1,23.8l-1.8-0.7c-0.1,0-0.3,0-0.4,0l-4,1.9c0,0,0,0,0,0l-0.8,0.5
			c-0.3-0.3-0.9-0.4-1.5-0.4c-0.1,0-0.3-0.2-0.5-0.9c-0.2-0.6-0.2-1.3-0.2-1.7c0-0.6,0.4-1.8,0.9-2.9c0.5,0,0.8-0.1,1-0.2
			c0.2-0.1,0.4-0.1,0.7-0.1c0.4,0,0.5,0.1,0.7,0.1c0.2,0.1,0.5,0.2,1.1,0.2c0.5,0,0.8-0.1,1.1-0.2c0.2-0.1,0.4-0.1,0.7-0.1
			c0.4,0,0.5,0.1,0.7,0.1c0.2,0.1,0.5,0.2,1.1,0.2c0.3,0,0.5-0.2,0.5-0.5c0-0.3-0.2-0.5-0.5-0.5c-0.4,0-0.5-0.1-0.7-0.1
			c-0.2-0.1-0.5-0.2-1.1-0.2c-0.5,0-0.8,0.1-1.1,0.2c-0.2,0.1-0.4,0.1-0.7,0.1c-0.4,0-0.5-0.1-0.7-0.1c-0.2-0.1-0.5-0.2-1.1-0.2
			c-0.5,0-0.8,0.1-1.1,0.2c0,0,0,0,0,0c1-1.2,3.1-2.8,3.6-2.8c1.3,0,2.2-1.4,2.2-2.1c0-0.2,0-0.7-1.6-1.2c-0.3-0.4-1-0.7-2.1-0.7
			c-1.4,0-2.2,0.5-2.9,1c-0.3,0.2-0.6,0.4-0.9,0.5L17.7,10c-0.1-0.1-0.2-0.1-0.3-0.1l-2.9-0.2L12,7.2C11.9,7.1,11.7,7,11.6,7
			c-0.1,0-0.3,0.1-0.3,0.2l-2.4,2.9c0,0,0,0,0,0l-3.1,4.2c0,0.1-0.1,0.1-0.1,0.2l-1,4c0,0,0,0,0,0c-0.2,0.1-0.4,0.1-0.7,0.1
			c-0.4,0-0.5-0.1-0.7-0.1c-0.2-0.1-0.5-0.2-1.1-0.2c-0.3,0-0.5,0.2-0.5,0.5c0,0.3,0.2,0.5,0.5,0.5c0.4,0,0.5,0.1,0.7,0.1
			c0.2,0.1,0.5,0.2,1.1,0.2c0.5,0,0.8-0.1,1.1-0.2c0.2-0.1,0.4-0.1,0.7-0.1c0.4,0,0.5,0.1,0.7,0.1c0.2,0.1,0.5,0.2,1.1,0.2
			c0,0,0,0,0,0c-0.5,1.3-0.7,2.8-0.7,4.2c0,0.6-0.4,1.2-0.8,1.7c-0.3,0.5-0.7,0.8-0.7,1.3c0,0.4,0.1,0.7,0.3,1H4.9
			c-0.1,0-0.2,0-0.2,0.1l-2.1,1.2c-0.2,0.1-0.3,0.4-0.2,0.7C2.5,29.9,2.6,30,2.8,30C2.9,30,3,30,3,29.9l2-1.2h13.2
			c0.1,0,0.1,0,0.2,0l3.6-1.5c0,0,0,0,0.1,0l2.2-1.3l3.8-1.8l1.6,0.6c0.3,0.1,0.5,0,0.6-0.3C30.5,24.2,30.3,23.9,30.1,23.8z
			 M7.5,18.6c-0.4,0-0.5-0.1-0.7-0.1c-0.2-0.1-0.5-0.2-1.1-0.2c0,0,0,0,0,0l0.9-3.5l3.1-4.1l2-2.4l2.2,2.2l1.7,2.5
			c0.1,0.1,0.2,0.2,0.4,0.2c0.1,0,0.2,0,0.3-0.1c0.2-0.2,0.3-0.5,0.1-0.7l-1.2-1.7l1.9,0.2l2.7,2.8c-0.2,0-0.3,0-0.5,0
			c-0.9,0-1.3,0.1-1.7,0.3c-0.6,0.2-1.2,0.5-4.2,0.5c-2.1,0-3.8,1.1-5.1,3.3C8.2,18,8,18.3,7.9,18.6C7.8,18.6,7.7,18.6,7.5,18.6z
			 M6.7,26.1c0.4-0.6,1-1.3,1-2.3c0-3.4,1.8-8.4,5.7-8.4c3.1,0,3.9-0.3,4.5-0.5c0.4-0.1,0.6-0.2,1.4-0.2c0.6,0,1.2-0.1,1.6-0.3
			c0,0,0,0,0,0c0.6-0.2,1-0.5,1.4-0.7c0.7-0.4,1.2-0.8,2.3-0.8c0.7,0,1.1,0.1,1.2,0.2c0,0.2,0.2,0.3,0.4,0.4
			c0.4,0.1,0.9,0.3,1.1,0.4c-0.1,0.3-0.6,1-1.2,1c-0.8,0-2,1-2.7,1.5c-0.9,0.7-1.9,1.7-2.2,2.4c-0.3,0.6-1.2,2.6-1.2,3.8
			c0,0,0,3.6,1.7,3.6c0,0,0.1,0,0.1,0c-0.5,0.2-1.2,0.3-1.8,0c-1-0.5-1.6-2-1.8-4.3l0-0.4c0,0,0,0,0,0l-0.1-1.6
			c0-0.3-0.2-0.5-0.5-0.5c-0.3,0-0.5,0.2-0.5,0.5l0,1.3c-1.8,0.8-3.3,0.8-4.6,0.8c-0.2,0-0.5,0-0.7,0c-1.9,0-3.4,3.9-3.4,4.6
			c0,0.6,0.5,0.9,0.7,1c0,0,0,0,0.1,0c-0.5,0.1-1.6,0.1-2.7,0c-0.1-0.1-0.3-0.4-0.3-0.7C6.3,26.7,6.5,26.3,6.7,26.1z M13.5,26.3
			c0.1,0.3,0.3,0.4,0.6,0.5c0.5,0.2,1,0.7,1,0.9c0,0,0,0,0,0c-0.5,0.1-1,0-1.4,0c-0.3,0-0.6-0.1-0.9,0c-0.1,0-0.1,0-0.1,0
			c-0.2-0.1-0.6-0.9-0.5-4.9c0.1,0,0.2,0,0.3,0c0.4,0,0.9,0,1.4,0C13.6,23.7,13.1,25.5,13.5,26.3z M10.4,27.8c0,0,0-0.1,0-0.1
			c0-0.6-0.5-0.9-0.7-1c-0.1,0-0.2-0.1-0.3-0.2c0,0,0,0,0,0c0-0.2,0.3-1.1,0.8-2.1c0.3-0.6,0.6-1,0.9-1.3c-0.1,2.7,0.1,4,0.4,4.7
			H10.4z M18.1,27.8h-2c0-0.8-0.9-1.6-1.7-1.9c0,0-0.2-0.4,0.1-1.6c0.2-0.8,0.4-1.5,0.4-1.5c0,0,0,0,0-0.1c0.7-0.1,1.5-0.3,2.3-0.6
			c0.2,2.6,1,4.2,2.3,4.8c0.1,0.1,0.3,0.1,0.4,0.2L18.1,27.8z"/>
		<path id="XMLID_358_" fill="#67737C" d="M30.1,63.8l-1.8-0.7c-0.1,0-0.3,0-0.4,0l-4,1.9c0,0,0,0,0,0l-0.8,0.5
			c-0.3-0.3-0.9-0.4-1.5-0.4c-0.1,0-0.3-0.2-0.5-0.9c-0.2-0.6-0.2-1.3-0.2-1.7c0-0.6,0.4-1.8,0.9-2.9c0.5,0,0.8-0.1,1-0.2
			c0.2-0.1,0.4-0.1,0.7-0.1c0.4,0,0.5,0.1,0.7,0.1c0.2,0.1,0.5,0.2,1.1,0.2c0.5,0,0.8-0.1,1.1-0.2c0.2-0.1,0.4-0.1,0.7-0.1
			c0.4,0,0.5,0.1,0.7,0.1c0.2,0.1,0.5,0.2,1.1,0.2c0.3,0,0.5-0.2,0.5-0.5c0-0.3-0.2-0.5-0.5-0.5c-0.4,0-0.5-0.1-0.7-0.1
			c-0.2-0.1-0.5-0.2-1.1-0.2c-0.5,0-0.8,0.1-1.1,0.2c-0.2,0.1-0.4,0.1-0.7,0.1c-0.4,0-0.5-0.1-0.7-0.1c-0.2-0.1-0.5-0.2-1.1-0.2
			c-0.5,0-0.8,0.1-1.1,0.2c0,0,0,0,0,0c1-1.2,3.1-2.8,3.6-2.8c1.3,0,2.2-1.4,2.2-2.1c0-0.2,0-0.7-1.6-1.2c-0.3-0.4-1-0.7-2.1-0.7
			c-1.4,0-2.2,0.5-2.9,1c-0.3,0.2-0.6,0.4-0.9,0.5L17.7,50c-0.1-0.1-0.2-0.1-0.3-0.1l-2.9-0.2L12,47.2c-0.1-0.1-0.2-0.1-0.4-0.1
			c-0.1,0-0.3,0.1-0.3,0.2l-2.4,2.9c0,0,0,0,0,0l-3.1,4.2c0,0.1-0.1,0.1-0.1,0.2l-1,4c0,0,0,0,0,0c-0.2,0.1-0.4,0.1-0.7,0.1
			c-0.4,0-0.5-0.1-0.7-0.1c-0.2-0.1-0.5-0.2-1.1-0.2c-0.3,0-0.5,0.2-0.5,0.5c0,0.3,0.2,0.5,0.5,0.5c0.4,0,0.5,0.1,0.7,0.1
			c0.2,0.1,0.5,0.2,1.1,0.2c0.5,0,0.8-0.1,1.1-0.2c0.2-0.1,0.4-0.1,0.7-0.1c0.4,0,0.5,0.1,0.7,0.1c0.2,0.1,0.5,0.2,1.1,0.2
			c0,0,0,0,0,0c-0.5,1.3-0.7,2.8-0.7,4.2c0,0.6-0.4,1.2-0.8,1.7c-0.3,0.5-0.7,0.8-0.7,1.3c0,0.4,0.1,0.7,0.3,1H4.9
			c-0.1,0-0.2,0-0.2,0.1l-2.1,1.2c-0.2,0.1-0.3,0.4-0.2,0.7C2.5,69.9,2.6,70,2.8,70C2.9,70,3,70,3,69.9l2-1.2h13.2
			c0.1,0,0.1,0,0.2,0l3.6-1.5c0,0,0,0,0.1,0l2.2-1.3l3.8-1.8l1.6,0.6c0.3,0.1,0.5,0,0.6-0.3C30.5,64.2,30.3,63.9,30.1,63.8z
			 M7.5,58.6c-0.4,0-0.5-0.1-0.7-0.1c-0.2-0.1-0.5-0.2-1.1-0.2c0,0,0,0,0,0l0.9-3.5l3.1-4.1l2-2.4l2.2,2.2l1.7,2.5
			c0.1,0.1,0.2,0.2,0.4,0.2c0.1,0,0.2,0,0.3-0.1c0.2-0.2,0.3-0.5,0.1-0.7l-1.2-1.7l1.9,0.2l2.7,2.8c-0.2,0-0.3,0-0.5,0
			c-0.9,0-1.3,0.1-1.7,0.3c-0.6,0.2-1.2,0.5-4.2,0.5c-2.1,0-3.8,1.1-5.1,3.3C8.2,58,8,58.3,7.9,58.6C7.8,58.6,7.7,58.6,7.5,58.6z
			 M6.7,66.1c0.4-0.6,1-1.3,1-2.3c0-3.4,1.8-8.4,5.7-8.4c3.1,0,3.9-0.3,4.5-0.5c0.4-0.1,0.6-0.2,1.4-0.2c0.6,0,1.2-0.1,1.6-0.3
			c0,0,0,0,0,0c0.6-0.2,1-0.5,1.4-0.7c0.7-0.4,1.2-0.8,2.3-0.8c0.7,0,1.1,0.1,1.2,0.2c0,0.2,0.2,0.3,0.4,0.4
			c0.4,0.1,0.9,0.3,1.1,0.4c-0.1,0.3-0.6,1-1.2,1c-0.8,0-2,1-2.7,1.5c-0.9,0.7-1.9,1.7-2.2,2.4c-0.3,0.6-1.2,2.6-1.2,3.8
			c0,0,0,3.6,1.7,3.6c0,0,0.1,0,0.1,0c-0.5,0.2-1.2,0.3-1.8,0c-1-0.5-1.6-2-1.8-4.3l0-0.4c0,0,0,0,0,0l-0.1-1.6
			c0-0.3-0.2-0.5-0.5-0.5c-0.3,0-0.5,0.2-0.5,0.5l0,1.3c-1.8,0.8-3.3,0.8-4.6,0.8c-0.2,0-0.5,0-0.7,0c-1.9,0-3.4,3.9-3.4,4.6
			c0,0.6,0.5,0.9,0.7,1c0,0,0,0,0.1,0c-0.5,0.1-1.6,0.1-2.7,0c-0.1-0.1-0.3-0.4-0.3-0.7C6.3,66.7,6.5,66.3,6.7,66.1z M13.5,66.3
			c0.1,0.3,0.3,0.4,0.6,0.5c0.5,0.2,1,0.7,1,0.9c0,0,0,0,0,0c-0.5,0.1-1,0-1.4,0c-0.3,0-0.6-0.1-0.9,0c-0.1,0-0.1,0-0.1,0
			c-0.2-0.1-0.6-0.9-0.5-4.9c0.1,0,0.2,0,0.3,0c0.4,0,0.9,0,1.4,0C13.6,63.7,13.1,65.5,13.5,66.3z M10.4,67.8c0,0,0-0.1,0-0.1
			c0-0.6-0.5-0.9-0.7-1c-0.1,0-0.2-0.1-0.3-0.2c0,0,0,0,0,0c0-0.2,0.3-1.1,0.8-2.1c0.3-0.6,0.6-1,0.9-1.3c-0.1,2.7,0.1,4,0.4,4.7
			H10.4z M18.1,67.8h-2c0-0.8-0.9-1.6-1.7-1.9c0,0-0.2-0.4,0.1-1.6c0.2-0.8,0.4-1.5,0.4-1.5c0,0,0,0,0-0.1c0.7-0.1,1.5-0.3,2.3-0.6
			c0.2,2.6,1,4.2,2.3,4.8c0.1,0.1,0.3,0.1,0.4,0.2L18.1,67.8z"/>
		<path id="XMLID_611_" fill="#FFFFFF" d="M30.1,103.8l-1.8-0.7c-0.1,0-0.3,0-0.4,0l-4,1.9c0,0,0,0,0,0l-0.8,0.5
			c-0.3-0.3-0.9-0.4-1.5-0.4c-0.1,0-0.3-0.2-0.5-0.9c-0.2-0.6-0.2-1.3-0.2-1.7c0-0.6,0.4-1.8,0.9-2.9c0.5,0,0.8-0.1,1-0.2
			c0.2-0.1,0.4-0.1,0.7-0.1c0.4,0,0.5,0.1,0.7,0.1c0.2,0.1,0.5,0.2,1.1,0.2c0.5,0,0.8-0.1,1.1-0.2c0.2-0.1,0.4-0.1,0.7-0.1
			c0.4,0,0.5,0.1,0.7,0.1c0.2,0.1,0.5,0.2,1.1,0.2c0.3,0,0.5-0.2,0.5-0.5c0-0.3-0.2-0.5-0.5-0.5c-0.4,0-0.5-0.1-0.7-0.1
			c-0.2-0.1-0.5-0.2-1.1-0.2c-0.5,0-0.8,0.1-1.1,0.2c-0.2,0.1-0.4,0.1-0.7,0.1c-0.4,0-0.5-0.1-0.7-0.1c-0.2-0.1-0.5-0.2-1.1-0.2
			c-0.5,0-0.8,0.1-1.1,0.2c0,0,0,0,0,0c1-1.2,3.1-2.8,3.6-2.8c1.3,0,2.2-1.4,2.2-2.1c0-0.2,0-0.7-1.6-1.2c-0.3-0.4-1-0.7-2.1-0.7
			c-1.4,0-2.2,0.5-2.9,1c-0.3,0.2-0.6,0.4-0.9,0.5L17.7,90c-0.1-0.1-0.2-0.1-0.3-0.1l-2.9-0.2L12,87.2c-0.1-0.1-0.2-0.1-0.4-0.1
			c-0.1,0-0.3,0.1-0.3,0.2l-2.4,2.9c0,0,0,0,0,0l-3.1,4.2c0,0.1-0.1,0.1-0.1,0.2l-1,4c0,0,0,0,0,0c-0.2,0.1-0.4,0.1-0.7,0.1
			c-0.4,0-0.5-0.1-0.7-0.1c-0.2-0.1-0.5-0.2-1.1-0.2c-0.3,0-0.5,0.2-0.5,0.5c0,0.3,0.2,0.5,0.5,0.5c0.4,0,0.5,0.1,0.7,0.1
			c0.2,0.1,0.5,0.2,1.1,0.2c0.5,0,0.8-0.1,1.1-0.2c0.2-0.1,0.4-0.1,0.7-0.1c0.4,0,0.5,0.1,0.7,0.1c0.2,0.1,0.5,0.2,1.1,0.2
			c0,0,0,0,0,0c-0.5,1.3-0.7,2.8-0.7,4.2c0,0.6-0.4,1.2-0.8,1.7c-0.3,0.5-0.7,0.8-0.7,1.3c0,0.4,0.1,0.7,0.3,1H4.9
			c-0.1,0-0.2,0-0.2,0.1l-2.1,1.2c-0.2,0.1-0.3,0.4-0.2,0.7c0.1,0.2,0.3,0.2,0.4,0.2c0.1,0,0.2,0,0.2-0.1l2-1.2h13.2
			c0.1,0,0.1,0,0.2,0l3.6-1.5c0,0,0,0,0.1,0l2.2-1.3l3.8-1.8l1.6,0.6c0.3,0.1,0.5,0,0.6-0.3C30.5,104.2,30.3,103.9,30.1,103.8z
			 M7.5,98.6c-0.4,0-0.5-0.1-0.7-0.1c-0.2-0.1-0.5-0.2-1.1-0.2c0,0,0,0,0,0l0.9-3.5l3.1-4.1l2-2.4l2.2,2.2l1.7,2.5
			c0.1,0.1,0.2,0.2,0.4,0.2c0.1,0,0.2,0,0.3-0.1c0.2-0.2,0.3-0.5,0.1-0.7l-1.2-1.7l1.9,0.2l2.7,2.8c-0.2,0-0.3,0-0.5,0
			c-0.9,0-1.3,0.1-1.7,0.3c-0.6,0.2-1.2,0.5-4.2,0.5c-2.1,0-3.8,1.1-5.1,3.3C8.2,98,8,98.3,7.9,98.6C7.8,98.6,7.7,98.6,7.5,98.6z
			 M6.7,106.1c0.4-0.6,1-1.3,1-2.3c0-3.4,1.8-8.4,5.7-8.4c3.1,0,3.9-0.3,4.5-0.5c0.4-0.1,0.6-0.2,1.4-0.2c0.6,0,1.2-0.1,1.6-0.3
			c0,0,0,0,0,0c0.6-0.2,1-0.5,1.4-0.7c0.7-0.4,1.2-0.8,2.3-0.8c0.7,0,1.1,0.1,1.2,0.2c0,0.2,0.2,0.3,0.4,0.4
			c0.4,0.1,0.9,0.3,1.1,0.4c-0.1,0.3-0.6,1-1.2,1c-0.8,0-2,1-2.7,1.5c-0.9,0.7-1.9,1.7-2.2,2.4c-0.3,0.6-1.2,2.6-1.2,3.8
			c0,0,0,3.6,1.7,3.6c0,0,0.1,0,0.1,0c-0.5,0.2-1.2,0.3-1.8,0c-1-0.5-1.6-2-1.8-4.3l0-0.4c0,0,0,0,0,0l-0.1-1.6
			c0-0.3-0.2-0.5-0.5-0.5c-0.3,0-0.5,0.2-0.5,0.5l0,1.3c-1.8,0.8-3.3,0.8-4.6,0.8c-0.2,0-0.5,0-0.7,0c-1.9,0-3.4,3.9-3.4,4.6
			c0,0.6,0.5,0.9,0.7,1c0,0,0,0,0.1,0c-0.5,0.1-1.6,0.1-2.7,0c-0.1-0.1-0.3-0.4-0.3-0.7C6.3,106.7,6.5,106.3,6.7,106.1z M13.5,106.3
			c0.1,0.3,0.3,0.4,0.6,0.5c0.5,0.2,1,0.7,1,0.9c0,0,0,0,0,0c-0.5,0.1-1,0-1.4,0c-0.3,0-0.6-0.1-0.9,0c-0.1,0-0.1,0-0.1,0
			c-0.2-0.1-0.6-0.9-0.5-4.9c0.1,0,0.2,0,0.3,0c0.4,0,0.9,0,1.4,0C13.6,103.7,13.1,105.5,13.5,106.3z M10.4,107.8c0,0,0-0.1,0-0.1
			c0-0.6-0.5-0.9-0.7-1c-0.1,0-0.2-0.1-0.3-0.2c0,0,0,0,0,0c0-0.2,0.3-1.1,0.8-2.1c0.3-0.6,0.6-1,0.9-1.3c-0.1,2.7,0.1,4,0.4,4.7
			H10.4z M18.1,107.8h-2c0-0.8-0.9-1.6-1.7-1.9c0,0-0.2-0.4,0.1-1.6c0.2-0.8,0.4-1.5,0.4-1.5c0,0,0,0,0-0.1c0.7-0.1,1.5-0.3,2.3-0.6
			c0.2,2.6,1,4.2,2.3,4.8c0.1,0.1,0.3,0.1,0.4,0.2L18.1,107.8z"/>
		<path id="XMLID_824_" fill="#1D70AD" d="M30.1,143.8l-1.8-0.7c-0.1,0-0.3,0-0.4,0l-4,1.9c0,0,0,0,0,0l-0.8,0.5
			c-0.3-0.3-0.9-0.4-1.5-0.4c-0.1,0-0.3-0.2-0.5-0.9c-0.2-0.6-0.2-1.3-0.2-1.7c0-0.6,0.4-1.8,0.9-2.9c0.5,0,0.8-0.1,1-0.2
			c0.2-0.1,0.4-0.1,0.7-0.1c0.4,0,0.5,0.1,0.7,0.1c0.2,0.1,0.5,0.2,1.1,0.2c0.5,0,0.8-0.1,1.1-0.2c0.2-0.1,0.4-0.1,0.7-0.1
			c0.4,0,0.5,0.1,0.7,0.1c0.2,0.1,0.5,0.2,1.1,0.2c0.3,0,0.5-0.2,0.5-0.5c0-0.3-0.2-0.5-0.5-0.5c-0.4,0-0.5-0.1-0.7-0.1
			c-0.2-0.1-0.5-0.2-1.1-0.2c-0.5,0-0.8,0.1-1.1,0.2c-0.2,0.1-0.4,0.1-0.7,0.1c-0.4,0-0.5-0.1-0.7-0.1c-0.2-0.1-0.5-0.2-1.1-0.2
			c-0.5,0-0.8,0.1-1.1,0.2c0,0,0,0,0,0c1-1.2,3.1-2.8,3.6-2.8c1.3,0,2.2-1.4,2.2-2.1c0-0.2,0-0.7-1.6-1.2c-0.3-0.4-1-0.7-2.1-0.7
			c-1.4,0-2.2,0.5-2.9,1c-0.3,0.2-0.6,0.4-0.9,0.5l-3.2-3.3c-0.1-0.1-0.2-0.1-0.3-0.1l-2.9-0.2l-2.5-2.5c-0.1-0.1-0.2-0.1-0.4-0.1
			c-0.1,0-0.3,0.1-0.3,0.2l-2.4,2.9c0,0,0,0,0,0l-3.1,4.2c0,0.1-0.1,0.1-0.1,0.2l-1,4c0,0,0,0,0,0c-0.2,0.1-0.4,0.1-0.7,0.1
			c-0.4,0-0.5-0.1-0.7-0.1c-0.2-0.1-0.5-0.2-1.1-0.2c-0.3,0-0.5,0.2-0.5,0.5c0,0.3,0.2,0.5,0.5,0.5c0.4,0,0.5,0.1,0.7,0.1
			c0.2,0.1,0.5,0.2,1.1,0.2c0.5,0,0.8-0.1,1.1-0.2c0.2-0.1,0.4-0.1,0.7-0.1c0.4,0,0.5,0.1,0.7,0.1c0.2,0.1,0.5,0.2,1.1,0.2
			c0,0,0,0,0,0c-0.5,1.3-0.7,2.8-0.7,4.2c0,0.6-0.4,1.2-0.8,1.7c-0.3,0.5-0.7,0.8-0.7,1.3c0,0.4,0.1,0.7,0.3,1H4.9
			c-0.1,0-0.2,0-0.2,0.1l-2.1,1.2c-0.2,0.1-0.3,0.4-0.2,0.7c0.1,0.2,0.3,0.2,0.4,0.2c0.1,0,0.2,0,0.2-0.1l2-1.2h13.2
			c0.1,0,0.1,0,0.2,0l3.6-1.5c0,0,0,0,0.1,0l2.2-1.3l3.8-1.8l1.6,0.6c0.3,0.1,0.5,0,0.6-0.3C30.5,144.2,30.3,143.9,30.1,143.8z
			 M7.5,138.6c-0.4,0-0.5-0.1-0.7-0.1c-0.2-0.1-0.5-0.2-1.1-0.2c0,0,0,0,0,0l0.9-3.5l3.1-4.1l2-2.4l2.2,2.2l1.7,2.5
			c0.1,0.1,0.2,0.2,0.4,0.2c0.1,0,0.2,0,0.3-0.1c0.2-0.2,0.3-0.5,0.1-0.7l-1.2-1.7l1.9,0.2l2.7,2.8c-0.2,0-0.3,0-0.5,0
			c-0.9,0-1.3,0.1-1.7,0.3c-0.6,0.2-1.2,0.5-4.2,0.5c-2.1,0-3.8,1.1-5.1,3.3c-0.2,0.3-0.3,0.6-0.4,0.8
			C7.8,138.6,7.7,138.6,7.5,138.6z M6.7,146.1c0.4-0.6,1-1.3,1-2.3c0-3.4,1.8-8.4,5.7-8.4c3.1,0,3.9-0.3,4.5-0.5
			c0.4-0.1,0.6-0.2,1.4-0.2c0.6,0,1.2-0.1,1.6-0.3c0,0,0,0,0,0c0.6-0.2,1-0.5,1.4-0.7c0.7-0.4,1.2-0.8,2.3-0.8
			c0.7,0,1.1,0.1,1.2,0.2c0,0.2,0.2,0.3,0.4,0.4c0.4,0.1,0.9,0.3,1.1,0.4c-0.1,0.3-0.6,1-1.2,1c-0.8,0-2,1-2.7,1.5
			c-0.9,0.7-1.9,1.7-2.2,2.4c-0.3,0.6-1.2,2.6-1.2,3.8c0,0,0,3.6,1.7,3.6c0,0,0.1,0,0.1,0c-0.5,0.2-1.2,0.3-1.8,0
			c-1-0.5-1.6-2-1.8-4.3l0-0.4c0,0,0,0,0,0l-0.1-1.6c0-0.3-0.2-0.5-0.5-0.5c-0.3,0-0.5,0.2-0.5,0.5l0,1.3c-1.8,0.8-3.3,0.8-4.6,0.8
			c-0.2,0-0.5,0-0.7,0c-1.9,0-3.4,3.9-3.4,4.6c0,0.6,0.5,0.9,0.7,1c0,0,0,0,0.1,0c-0.5,0.1-1.6,0.1-2.7,0c-0.1-0.1-0.3-0.4-0.3-0.7
			C6.3,146.7,6.5,146.3,6.7,146.1z M13.5,146.3c0.1,0.3,0.3,0.4,0.6,0.5c0.5,0.2,1,0.7,1,0.9c0,0,0,0,0,0c-0.5,0.1-1,0-1.4,0
			c-0.3,0-0.6-0.1-0.9,0c-0.1,0-0.1,0-0.1,0c-0.2-0.1-0.6-0.9-0.5-4.9c0.1,0,0.2,0,0.3,0c0.4,0,0.9,0,1.4,0
			C13.6,143.7,13.1,145.5,13.5,146.3z M10.4,147.8c0,0,0-0.1,0-0.1c0-0.6-0.5-0.9-0.7-1c-0.1,0-0.2-0.1-0.3-0.2c0,0,0,0,0,0
			c0-0.2,0.3-1.1,0.8-2.1c0.3-0.6,0.6-1,0.9-1.3c-0.1,2.7,0.1,4,0.4,4.7H10.4z M18.1,147.8h-2c0-0.8-0.9-1.6-1.7-1.9
			c0,0-0.2-0.4,0.1-1.6c0.2-0.8,0.4-1.5,0.4-1.5c0,0,0,0,0-0.1c0.7-0.1,1.5-0.3,2.3-0.6c0.2,2.6,1,4.2,2.3,4.8
			c0.1,0.1,0.3,0.1,0.4,0.2L18.1,147.8z"/>
	</g>
</svg>
