<svg width="32" height="232" viewBox="0 0 32 232" xmlns="http://www.w3.org/2000/svg"><g fill="none"><path d="M30.966 144.596H27.79v-.907c-.04-.92-.597-1.69-1.37-2v-1.52c0-.48-.39-.87-.877-.88v-4.3c0-.49-.4-.88-.896-.88v-4.5c0-.49-.405-.88-.905-.88h-1.985v-3.19l.002-.02-.02-.12-.52-2.7c-.04-.21-.23-.36-.45-.36h-.75l-.53-.32c-.13-.08-.28-.09-.42-.03l-.65.27-.72-.59c-.07-.06-.16-.09-.24-.1l-.96-.1c-.15-.02-.29.03-.38.14l-.59.6-1.05-.59c-.21-.12-.47-.06-.6.13l-.36.5-.65-.17c-.07-.02-.15-.02-.23-.01l-1.06.25c-.17.04-.3.175-.34.345l-.52 2.722v.002l-.01.075v3.21H8.69c-.5 0-.905.395-.905.88v4.496c-.497.004-.898.396-.898.88v4.3c-.486.015-.876.403-.876.88v4.42h-.73v-.41c-.03-.86-.71-1.535-1.54-1.535s-1.51.678-1.55 1.538v.41H.91c-.5 0-.905.394-.905.88s.405.88.905.88h1.28v1.74c0 .244.204.44.454.44h3.51c.25 0 .453-.196.453-.44 0-.24-.203-.44-.453-.44h-.867v-1.3H23.49v3.39c0 .244.202.44.452.44h5.992c.25 0 .452-.196.452-.44 0-.24-.202-.44-.452-.44h-2.14v-2.95h3.175c.49 0 .9-.39.9-.88 0-.485-.41-.88-.91-.88zm-4.08 1.763v2.94h-2.494v-5.59c.013-.26.092-.5.217-.7.2-.33.52-.55.9-.59l.12-.01c.29 0 .56.11.78.3.27.23.45.59.46.99v2.64zm-14.756-23.2l.66-.16.843.22.103.01.235-.06.16-.14.31-.43.58.32.15-.04-.02.1-.11.45-.83-.07h-.07l-1.33.09-.11-.02-.59-.1.04-.22zm5.117-.7l.828.67c.13.1.314.13.47.06l.69-.29.432.26c.072.04.153.06.238.06h.502l.353 1.85h-8.998l.162-.85.768.13h.112l1.352-.1 1.185.1h.04c.21 0 .4-.14.44-.34l.25-1.03.59-.62.59.06zm-5.577 6.27v-2.76h9.18v3.01h-2.955v-1.51c0-.25-.203-.44-.452-.44h-2.365c-.25 0-.452.19-.452.44v1.5H11.67v-.25zm3.86 0v-.82h1.46v1.06h-1.46v-.25zm4.237 2.74v.43h-6.94v-.44h6.94zm-6.94 1.31h6.94v.43h-6.94v-.45zm0 5.26h6.94v.43h-6.94v-.44zm.035-1.32h6.905v.43h-6.94v-.45h.035zm-.036 2.63h6.94v.43h-6.94v-.44zm0-9.15h6.94v.37h-6.94v-.38zm0 3.88h6.94v.43h-6.94v-.44zm0 1.31h6.94v.43h-6.94v-.44zm0 6.58h6.94v.43h-6.94v-.4zm0 1.31h6.94v.43h-6.94v-.44zm6.94-2.19h-6.94v-.44h6.94v.43zm.905-5.25h3.07v3.53h-3.06v-3.54zm0-5.38h2.17V134h-2.17v-3.53zm-11.97 8.8v-3.42h3.22v3.53H8.7v-.12zm4.13 5.34h6.95v.39h-6.94v-.4zM9.6 130.5h2.323v3.538H9.6V130.5zm-1.774 10.676h4.097v3.42H7.828v-3.42zm12.848 0h3.94v.638c-.64.364-1.084 1.06-1.12 1.873v.903h-2.82v-3.42zm-16.29 5.18v1.3H3.097v-3.44c.02-.383.3-.68.643-.68.34 0 .62.297.64.68v2.142z" fill="#206FAC"/><path d="M30.966 104.596H27.79v-.907c-.04-.92-.597-1.69-1.37-2v-1.52c0-.48-.39-.87-.877-.88v-4.3c0-.49-.4-.88-.896-.88v-4.49c0-.49-.405-.88-.905-.88h-1.985v-3.19l.002-.02-.02-.12-.52-2.7c-.04-.21-.23-.36-.45-.36h-.75l-.53-.32c-.13-.08-.28-.09-.42-.03l-.65.27-.72-.58c-.07-.06-.16-.09-.24-.1l-.96-.1c-.15-.02-.29.03-.38.13l-.59.61-1.05-.59c-.21-.12-.47-.06-.6.13l-.36.5-.65-.17c-.07-.02-.15-.02-.23 0l-1.06.25c-.17.04-.3.17-.34.34l-.52 2.73v.01l-.01.07v3.21H8.69c-.5 0-.905.393-.905.88v4.5c-.497 0-.898.39-.898.88v4.3c-.486.01-.876.4-.876.88v4.42h-.73v-.418c-.03-.86-.71-1.53-1.54-1.53s-1.51.675-1.55 1.535v.41H.91c-.5 0-.905.393-.905.88s.405.88.905.88h1.28v1.74c0 .243.204.44.454.44h3.51c.25 0 .453-.197.453-.44 0-.244-.203-.44-.453-.44h-.867v-1.3H23.49v3.39c0 .243.202.44.452.44h5.992c.25 0 .452-.197.452-.44 0-.244-.202-.44-.452-.44h-2.14v-2.95h3.175c.49 0 .9-.397.9-.88 0-.49-.41-.884-.91-.884zm-4.08 1.763v2.94h-2.494v-5.59c.013-.26.092-.5.217-.7.2-.33.52-.55.9-.59l.12-.01c.29 0 .56.11.78.3.27.23.45.59.46.99v2.64zM12.13 83.16l.66-.158.843.223.103.014.235-.06.16-.14.31-.43.58.32.15-.04-.02.11-.11.45-.83-.07h-.07l-1.33.09-.11-.02-.59-.1.04-.22zm5.117-.697l.828.675c.13.107.314.132.47.067l.69-.29.432.26c.072.043.153.066.238.066h.502l.353 1.86h-8.998l.162-.85.768.13.112.01 1.352-.1 1.185.1h.04c.21 0 .4-.14.44-.34l.25-1.02.59-.61.59.06zM11.67 88.74v-2.76h9.18v3.01h-2.955v-1.506c0-.243-.203-.44-.452-.44h-2.365c-.25 0-.452.197-.452.44v1.507H11.67v-.25zm3.86 0v-.815h1.46v1.066h-1.46v-.25zm4.237 2.743v.435h-6.905l-.036.003v-.44l.036.01h6.905zm-6.94 1.313l.035.003h6.905v.43h-6.94v-.44zm0 5.264l.035.003h6.905v.435h-6.905l-.036.003v-.44zm.035-1.313h6.905v.435h-6.905l-.036.003v-.442l.036.003zm-.036 2.63l.036.002h6.905v.43h-6.94v-.44zm0-9.148h6.94v.37h-6.94v-.38zm0 3.88h6.94v.43h-6.94v-.44zm0 1.31h6.94v.43h-6.94v-.45zm0 6.58h6.94v.43h-6.94V102zm0 1.31h6.94v.43h-6.94v-.45zm6.94-2.2h-6.94v-.44h6.94v.43zm.905-5.25h3.07v3.54h-3.06v-3.53zm0-5.38h2.17v3.53h-2.17V90.5zM8.7 99.29v-3.41h3.22v3.536H8.7v-.12zm4.13 5.342l.037.003h6.91v.395h-6.94v-.398zM9.6 90.5h2.322v3.537H9.595V90.5zm-1.775 10.675h4.097v3.42h-4.1v-3.42zm12.848 0h3.94v.638c-.64.364-1.08 1.06-1.12 1.873v.903h-2.82v-3.42zm-16.29 5.18v1.3H3.1v-3.44c.02-.383.3-.68.643-.68.34 0 .62.297.64.68v2.142z" fill="#fff"/><path d="M30.966 64.596H27.79v-.907c-.04-.92-.597-1.69-1.37-2v-1.52c0-.48-.39-.87-.877-.88v-4.3c0-.49-.4-.88-.896-.88v-4.49c0-.49-.405-.88-.905-.88h-1.985v-3.19l.002-.02-.02-.12-.52-2.7c-.04-.21-.23-.36-.45-.36h-.75l-.53-.32c-.13-.08-.28-.09-.42-.03l-.65.27-.72-.58c-.07-.06-.16-.09-.24-.1l-.96-.1c-.15-.02-.29.03-.38.13l-.59.61-1.05-.59c-.21-.12-.47-.06-.6.13l-.36.5-.65-.17c-.07-.02-.15-.02-.23 0l-1.06.25c-.17.04-.3.17-.34.34l-.52 2.73v.01l-.01.07v3.21H8.69c-.5 0-.905.393-.905.88v4.5c-.497 0-.898.39-.898.88v4.3c-.486.01-.876.4-.876.88v4.42h-.73v-.418c-.03-.86-.71-1.53-1.54-1.53s-1.51.675-1.55 1.535v.41H.91c-.5 0-.905.393-.905.88s.405.88.905.88h1.28v1.74c0 .243.204.44.454.44h3.51c.25 0 .453-.197.453-.44 0-.244-.203-.44-.453-.44h-.867v-1.3H23.49v3.39c0 .243.202.44.452.44h5.992c.25 0 .452-.197.452-.44 0-.244-.202-.44-.452-.44h-2.14v-2.94h3.175c.49 0 .9-.397.9-.88 0-.49-.41-.884-.91-.884zm-4.08 1.763v2.94h-2.494v-5.59c.013-.26.092-.5.217-.7.2-.33.52-.55.9-.59l.12-.01c.29 0 .56.11.78.3.27.23.45.59.46.99v2.64zM12.13 43.16l.66-.158.843.223.103.014.235-.06.16-.14.31-.43.58.32.15-.04-.02.11-.11.45-.83-.07h-.07l-1.33.09-.11-.02-.59-.1.04-.22zm5.117-.697l.828.675c.13.107.314.132.47.067l.69-.29.432.26c.072.043.153.066.238.066h.502l.353 1.86h-8.998l.162-.85.768.13.112.01 1.352-.1 1.185.1h.04c.21 0 .4-.14.44-.34l.25-1.02.59-.61.59.06zM11.67 48.74v-2.76h9.18v3.01h-2.955v-1.506c0-.243-.203-.44-.452-.44h-2.365c-.25 0-.452.197-.452.44v1.507H11.67v-.25zm3.86 0v-.815h1.46v1.066h-1.46v-.25zm4.237 2.743v.435h-6.905l-.036.003v-.44l.036.01h6.905zm-6.94 1.313l.035.003h6.905v.43h-6.94v-.44zm0 5.264l.035.003h6.905v.435h-6.905l-.036.003v-.44zm.035-1.313h6.905v.435h-6.905l-.036.003v-.442l.036.003zm-.036 2.63l.036.002h6.905v.43h-6.94v-.44zm0-9.148h6.94v.37h-6.94v-.38zm0 3.88h6.94v.43h-6.94v-.44zm0 1.31h6.94v.43h-6.94v-.45zm0 6.58h6.94v.43h-6.94V62zm0 1.31h6.94v.43h-6.94v-.44zm6.94-2.2h-6.94v-.44h6.94v.43zm.905-5.25h3.07v3.54h-3.06v-3.53zm0-5.38h2.17v3.53h-2.17V50.5zM8.7 59.29v-3.41h3.22v3.536H8.7v-.12zm4.13 5.342l.037.003h6.91v.395h-6.94v-.398zM9.6 50.5h2.322v3.537H9.595V50.5zM7.83 61.175h4.093v3.42H7.83v-3.42zm12.844 0h3.94v.638c-.642.364-1.087 1.06-1.122 1.873v.903h-2.82v-3.42zm-16.29 5.18v1.3H3.09v-3.44c.02-.383.3-.68.645-.68.34 0 .622.297.642.68v2.142z" fill="#67737B"/><path d="M30.966 24.596H27.79v-.907c-.04-.92-.597-1.69-1.37-2v-1.52c0-.48-.39-.87-.877-.88v-4.3c0-.49-.4-.88-.896-.88V9.62c0-.486-.405-.88-.905-.88h-1.985V5.555l.002-.017-.02-.12-.52-2.696c-.04-.21-.23-.36-.45-.36h-.75l-.53-.315c-.13-.076-.28-.087-.42-.03l-.65.274-.72-.58c-.07-.05-.16-.09-.24-.1l-.96-.1c-.15-.01-.29.04-.38.14l-.59.61-1.05-.58c-.21-.11-.47-.06-.6.13l-.36.51-.65-.17c-.07-.02-.15-.02-.23 0l-1.06.26c-.17.04-.3.18-.34.35l-.52 2.73v.01l-.01.07v3.21H8.69c-.5 0-.905.4-.905.88v4.5c-.497.01-.898.4-.898.88v4.3c-.486.02-.876.41-.876.88v4.42h-.73v-.41c-.03-.86-.71-1.53-1.54-1.53s-1.51.68-1.55 1.54v.41H.91c-.5 0-.905.4-.905.88s.405.88.905.88h1.28v1.74c0 .25.204.44.454.44h3.51c.25 0 .453-.19.453-.44 0-.24-.203-.44-.453-.44h-.867v-1.3H23.49v3.39c0 .25.202.44.452.44h5.992c.25 0 .452-.19.452-.44 0-.24-.202-.44-.452-.44h-2.14V26.4h3.175c.49 0 .9-.394.9-.88 0-.49-.41-.88-.91-.88zm-4.08 1.763v2.94h-2.494v-5.59c.013-.26.092-.5.217-.7.2-.33.52-.55.9-.59l.12-.01c.29 0 .56.11.78.3.27.23.45.59.46.99v2.64zM12.13 3.16l.66-.158.843.223.103.014.235-.06.16-.14.31-.43.58.32.15-.04-.02.11-.11.45-.83-.07h-.07l-1.33.09-.11-.02-.59-.1.04-.22zm5.117-.697l.828.675c.13.107.314.132.47.067l.69-.29.432.26c.072.043.153.066.238.066h.502l.353 1.86h-8.998l.162-.85.768.14.112.01 1.352-.1 1.185.1h.04c.21 0 .4-.14.44-.34l.25-1.03.59-.61.59.06zM11.67 8.74V5.98h9.18v3.01h-2.955V7.485c0-.243-.203-.44-.452-.44h-2.365c-.25 0-.452.197-.452.44V8.99H11.67v-.25zm3.86 0v-.815h1.46V8.99h-1.46v-.25zm4.237 2.743v.435h-6.905l-.036.003v-.44l.036.01h6.905zm-6.94 1.313l.035.003h6.905v.43h-6.94v-.44zm0 5.264l.035.003h6.905v.435h-6.905l-.036.003v-.44zm.035-1.313h6.905v.435h-6.905l-.036.003v-.442l.036.003zm-.036 2.63l.036.002h6.905v.43h-6.94v-.44zm0-9.148h6.94v.37h-6.94v-.38zm0 3.88h6.94v.43h-6.94v-.44zm0 1.31h6.94v.43h-6.94v-.45zm0 6.58h6.94v.43h-6.94V22zm0 1.31h6.94v.43h-6.94v-.44zm6.94-2.2h-6.94v-.44h6.94v.43zm.905-5.25h3.07v3.54h-3.06v-3.53zm0-5.38h2.17v3.53h-2.17V10.5zM8.7 19.29v-3.41h3.22v3.536H8.7v-.12zm4.13 5.342l.037.003h6.91v.395h-6.94v-.398zM9.6 10.5h2.322v3.537H9.595V10.5zM7.83 21.175h4.093v3.42H7.83v-3.42zm12.844 0h3.94v.638c-.642.364-1.087 1.06-1.122 1.873v.903h-2.82v-3.42zm-16.29 5.18v1.3H3.09v-3.44c.02-.383.3-.68.645-.68.34 0 .622.297.642.68v2.142z" fill="#3A434E"/></g></svg>