<svg width="32" height="232" viewBox="0 0 32 232" xmlns="http://www.w3.org/2000/svg"><g fill="none"><path d="M31.474 150.717c-.28 0-.4-.05-.567-.117-.176-.072-.39-.16-.747-.18v-9.982l.24.202.446.377c.202.17.5.137.662-.074.163-.21.132-.522-.07-.693l-1.278-1.08v-1.61c0-.273-.212-.494-.47-.494h-.594c-.19-.356-.55-.964-.864-1.145-.145-.09-.906-.75-1.636-1.41v-10.73l.02-.19c0-1.12-.542-2.43-1.347-3.24-.18-.18-.42-.27-.66-.27h-2.54c-.25 0-.48.1-.66.28-.74.76-1.26 1.9-1.35 2.96l-.01.16v13.34l-.31.44-1.01.76h-.86c-.09 0-.17.03-.24.07l-.9.55h-.84v-.71c0-.27-.21-.49-.47-.49h-.76v-2.79c0-.27-.21-.49-.47-.49s-.47.22-.47.5v2.79h-.42v-3.5c0-.19-.11-.36-.27-.44-.17-.08-.36-.06-.5.06l-2.48 2.04v-4.2c0-.26-.1-.51-.28-.697l-.89-.926v-2.97c0-.277-.22-.5-.48-.5s-.47.22-.47.497v1.99l-.15-.15c-.37-.39-.97-.39-1.33 0l-.15.15v-1.99c0-.27-.21-.492-.47-.492s-.48.22-.48.498v2.97l-.89.92c-.18.19-.28.44-.28.7v6.8l-.81.227c-.07.02-.14.06-.196.116l-.82.79-.01.01-.74.77-1.025.358c-.244.088-.38.367-.295.625.07.2.25.33.45.33l.15-.02 1.13-.397.148-.084.037-.03.81-.847.728-.7.45-.126v2.46H2.73c-.26 0-.47.22-.47.495v8.555c-.088.02-.187.03-.326.03-.28 0-.4-.05-.57-.114-.2-.083-.45-.185-.91-.185-.26 0-.47.22-.47.495s.21.5.47.5c.28 0 .4.05.57.113.2.08.45.188.91.188s.705-.1.91-.19c.12-.05.22-.09.38-.11h.37c.16.02.26.06.382.11.202.08.452.18.91.18s.71-.1.91-.18c.167-.07.287-.11.567-.11.28 0 .4.05.567.12.202.08.452.18.91.18s.71-.1.91-.18c.165-.07.285-.12.56-.12l.082.01h.11c.153.016.252.057.38.107.2.08.45.18.91.18.453 0 .71-.1.91-.183.12-.055.22-.095.38-.11h.37c.16.015.254.06.38.11.2.08.45.18.91.18.455 0 .71-.106.91-.19.123-.05.22-.09.38-.11h.37c.16.02.257.06.38.11.202.08.453.186.91.186.46 0 .71-.107.91-.19.167-.07.29-.115.57-.115.28 0 .4.05.566.12.2.08.45.19.91.19s.71-.1.91-.18c.166-.07.287-.12.567-.12.28 0 .4.05.567.12.2.08.455.18.91.18s.71-.1.91-.184c.17-.07.29-.12.57-.12.28 0 .4.05.565.114.2.08.452.184.91.184s.708-.1.91-.185c.166-.07.286-.118.567-.118.28 0 .4.05.568.116.2.08.45.18.91.18s.71-.103.91-.185c.167-.07.287-.12.57-.12.28 0 .4.05.566.12.2.08.452.18.91.18.26 0 .472-.22.472-.49s-.21-.496-.474-.496zm-9.527-27.182l.002-.033c.02-.472.24-1.043.55-1.472h1.69c.28.404.49.94.53 1.397l-.01.155v.7h-2.77v-.747zm6.04 13.532h-1.39v-1.265c.487.433.992.87 1.166.975.046.04.13.15.223.29zm1.23 1.5v11.707h-2.673c.033-.1.052-.21.052-.322v-11.9h2.622v.514zm-7.27-13.298h2.765v.65h-2.765v-.66zm0 19.68h2.765v.65h-2.765v-.66zm0-1.64h2.765v.65h-2.765v-.66zm0-1.64h2.765v.65h-2.765v-.66zm0-1.64h2.765v.65h-2.765v-.66zm0 6.56h2.765v.65h-2.765v-.66zm0-9.85h2.765v.65h-2.765v-.66zm0 1.64h2.765v.65h-2.765v-.66zm0-11.49h2.765v.65h-2.765v-.66zm0 1.64h2.765v.65h-2.765v-.66zm0 1.64h2.765v.65h-2.765v-.66zm0 1.64h2.765v.65h-2.765v-.66zm0 1.64h2.765v.65h-2.765v-.66zm1.62 1.64h1.145v.65h-2.765v-.66h1.62zm-1.62 13.12h2.765v.73h-2.765v-.73zm-3.652-7.46h1.68v.4h-1.68v-.41zm2.15 1.39h.22v8.1H20.3l.002-.02v-6.94c0-.18-.096-.34-.237-.43-.07-.05-.148-.07-.234-.07-.26 0-.47.22-.47.49v6.97h-.38l.01-.02v-6.95c0-.27-.21-.49-.47-.49s-.47.22-.47.49v6.94l.01.02h-.43v-8.1h2.84zM3.207 150.4v-7.8h1.508v7.805H3.207zm11.008-12.03h.754v12.03h-1.51v-12.03h.75zm-1.832-1.243v13.277H9.87v-13.44l.212-.172 2.3-1.885v2.228zm-6.256 4.17l.363.377-.363.38v-.76zm2.07-7.5l-.368-.386.36-.38v.77zm0 14.362l-1.034 1.08-.276-.29-.76-.8-.275-.29.275-.29 1.036-1.08 1.31 1.37-.275.29zm-2.07-2.74l.37.38-.37.38v-.77zm2.07-3.37l-.362-.38.363-.38v.76zm0 4.13l-.368-.39.36-.38v.77zm-2.07-10.42l-.275-.29 1.31-1.37 1.036 1.08.276.29-1.31 1.37-1.037-1.08zm1.036 2.47l1.035 1.08.276.28-1.16 1.21-.15.16-1.037-1.09-.275-.29 1.31-1.37zm0 4.12l1.035 1.08.276.29-.276.28-1.035 1.09-1.31-1.37 1.31-1.37zm1.31-11.02l-.332.34-.97 1.02-.98-1.03-.33-.35 1.31-1.37 1.31 1.37zm-2.346 1.68l.37.38-.37.38V133zm0 4.16v-.03l.02.02.346.36h.003l-.37.38v-.74zm2.07.26v.48l-.368-.39.18-.2.18-.19v.29zm7.715 13.05v-10.9h.968c.084 0 .167-.03.24-.07l.894-.56h.877c.1 0 .2-.04.28-.1l.9-.677v1.586h-2.24c-.26 0-.47.22-.47.49v.9h-.22c-.26 0-.47.22-.47.49v9.03c-.25-.01-.36-.05-.52-.12l-.22-.09zm1.958-19.26c.082.06.182.1.285.1.1 0 .2-.04.282-.1.183-.15.243-.41.14-.62l-.14-.18c-.16-.13-.4-.13-.565 0-.183.14-.242.4-.138.61l.136.17m-2.114-4.72c.082.07.182.1.284.1.102 0 .2-.03.282-.095.183-.145.242-.405.14-.62l-.138-.173c-.163-.13-.402-.13-.565 0-.19.14-.25.4-.14.62l.13.17m-5.25 1.22l.39.22.21.41c.08.16.24.26.41.26s.33-.1.41-.255l.21-.41.39-.225c.15-.09.24-.256.24-.436s-.1-.34-.25-.43l-.39-.22-.22-.41c-.09-.16-.24-.26-.42-.26s-.33.1-.42.26l-.22.41-.39.22c-.15.086-.248.25-.248.43s.094.35.245.434" fill="#206FAC"/><path d="M31.474 110.717c-.28 0-.4-.05-.567-.117-.176-.072-.39-.16-.747-.18v-9.982l.24.202.446.377c.202.17.5.137.662-.074.163-.21.132-.522-.07-.693l-1.278-1.08v-1.61c0-.273-.212-.494-.47-.494h-.594c-.19-.356-.55-.964-.864-1.145-.145-.09-.906-.75-1.636-1.41V83.78l.02-.196c0-1.127-.542-2.432-1.347-3.246-.18-.178-.42-.276-.66-.276h-2.54c-.25 0-.48.1-.66.28-.74.752-1.26 1.9-1.35 2.955l-.01.155v13.343l-.31.436-1.01.76h-.86c-.09 0-.17.03-.24.07l-.9.55h-.84v-.71c0-.27-.21-.49-.47-.49h-.76v-2.79c0-.27-.21-.49-.47-.49s-.47.22-.47.5v2.79h-.42v-3.5c0-.18-.11-.36-.27-.44-.17-.08-.36-.06-.5.06l-2.48 2.03v-4.2c0-.26-.1-.51-.28-.69l-.89-.92v-2.97c0-.27-.22-.49-.48-.49s-.47.22-.47.5v1.99l-.15-.15c-.37-.39-.97-.39-1.33 0l-.15.15V86.8c0-.27-.21-.493-.47-.493s-.48.22-.48.49v2.97l-.89.93c-.18.185-.28.435-.28.697v6.8l-.81.23c-.07.02-.14.06-.196.114l-.82.79-.01.01-.74.774-1.025.36c-.244.087-.38.366-.295.62.07.21.25.34.45.34l.15-.025 1.134-.4.15-.084.035-.033.81-.84.722-.7.445-.12v2.46H2.73c-.26 0-.47.22-.47.49v8.56c-.088.02-.187.034-.326.034-.28 0-.4-.05-.57-.115-.2-.08-.45-.18-.91-.18-.26 0-.47.22-.47.49s.21.49.47.49c.28 0 .4.05.57.12.2.08.45.18.91.18s.705-.1.91-.18c.12-.05.22-.09.38-.11h.37c.16.02.26.06.382.11.202.08.452.18.91.18s.71-.1.91-.188c.167-.07.287-.12.567-.12.28 0 .4.05.567.115.202.08.452.186.91.186s.71-.1.91-.184c.165-.07.285-.12.56-.12l.082.01h.11c.153.02.252.06.38.11.2.08.45.18.91.18.453 0 .71-.1.91-.184.12-.05.22-.09.38-.11h.37c.16.02.254.06.38.11.2.08.45.183.91.183.455 0 .71-.1.91-.19.123-.05.22-.09.38-.11h.37c.16.02.257.06.38.11.202.08.453.18.91.18.46 0 .71-.1.91-.186.167-.07.29-.12.57-.12.28 0 .4.05.566.113.2.08.45.18.91.18s.71-.1.91-.187c.166-.07.287-.12.567-.12.28 0 .4.05.567.12.2.08.455.18.91.18s.71-.1.91-.184c.17-.07.29-.11.57-.11.28 0 .4.05.565.115.2.08.452.18.91.18s.708-.1.91-.18c.166-.07.286-.113.567-.113.28 0 .4.05.568.11.2.08.45.18.91.18s.71-.1.91-.184c.167-.07.287-.12.57-.12.28 0 .4.05.566.12.2.08.452.186.91.186.26 0 .472-.22.472-.49s-.21-.497-.474-.497zm-9.527-27.182l.002-.033c.02-.472.24-1.043.55-1.472h1.69c.28.404.49.94.53 1.397l-.01.155v.7h-2.77v-.747zm6.04 13.532h-1.39v-1.265c.487.433.992.87 1.166.975.046.04.13.15.223.29zm1.23 1.5v11.707h-2.673c.033-.1.052-.21.052-.322v-11.9h2.622v.514zm-7.27-13.298h2.765v.65h-2.765v-.66zm0 19.68h2.765v.65h-2.765v-.66zm0-1.64h2.765v.65h-2.765v-.66zm0-1.64h2.765v.65h-2.765v-.66zm0-1.64h2.765v.65h-2.765v-.66zm0 6.56h2.765v.65h-2.765v-.66zm0-9.85h2.765v.65h-2.765v-.66zm0 1.64h2.765v.65h-2.765v-.66zm0-11.49h2.765v.65h-2.765v-.65zm0 1.64h2.765v.65h-2.765v-.66zm0 1.64h2.765v.65h-2.765v-.66zm0 1.64h2.765v.65h-2.765v-.66zm0 1.64h2.765v.65h-2.765v-.66zm1.62 1.64h1.145v.65h-2.765v-.65h1.62zm-1.62 13.12h2.765v.73h-2.765v-.73zm-3.652-7.46h1.68v.4h-1.68v-.41zm2.15 1.39h.22v8.1H20.3l.002-.02v-6.94c0-.18-.096-.34-.237-.43-.07-.05-.148-.07-.234-.07-.26 0-.47.22-.47.49v6.97h-.38l.01-.02v-6.95c0-.27-.21-.49-.47-.49s-.47.22-.47.49v6.94l.01.02h-.43v-8.1h2.84zM3.207 110.4v-7.8h1.508v7.805H3.207zm11.008-12.03h.754v12.03h-1.51V98.39h.75zm-1.832-1.243v13.275H9.87V96.98l.212-.173 2.3-1.885v2.226zm-6.256 4.16l.363.38-.363.38v-.76zm2.07-7.5l-.368-.385.36-.387v.77zm0 14.363l-1.034 1.08-.276-.29-.76-.79-.275-.29.275-.29 1.036-1.08 1.31 1.37-.275.29zm-2.07-2.74l.37.385-.37.387v-.77zm2.07-3.365l-.362-.38.363-.376v.75zm0 4.138l-.368-.385.36-.382v.77zm-2.07-10.42l-.274-.29 1.31-1.37L8.2 95.2l.276.288-1.31 1.37-1.037-1.08zm1.037 2.476l1.036 1.1.275.28-1.16 1.21-.15.15-1.037-1.08-.275-.29 1.31-1.37zm0 4.12l1.036 1.09.275.29-.276.28-1.04 1.08-1.31-1.37 1.31-1.37zm1.31-11.02l-.332.34-.977 1.02-.978-1.02-.333-.35 1.31-1.37 1.312 1.37zm-2.346 1.68l.37.38-.37.38v-.77zm0 4.16v-.03l.02.02.346.36h.003l-.37.38v-.74zm2.07.26v.48l-.368-.39.184-.2.184-.19v.29zm7.715 13.05V99.6h.968c.09 0 .17-.022.24-.067l.9-.553h.88c.1 0 .2-.033.28-.093l.9-.675V99.8h-2.24c-.26 0-.47.22-.47.492v.898h-.22c-.26 0-.47.22-.47.493v9.033c-.25-.005-.36-.052-.52-.116l-.22-.085zm1.957-19.25c.09.06.19.1.29.1.1 0 .2-.04.28-.1.19-.15.25-.41.14-.62l-.14-.18c-.16-.13-.4-.13-.56 0-.18.14-.24.4-.14.61l.14.17m-2.114-4.72c.08.07.18.1.283.1.1 0 .2-.03.28-.09.18-.15.24-.41.14-.62l-.14-.17c-.16-.13-.4-.13-.57 0-.19.14-.25.4-.14.61l.13.17m-5.26 1.22l.39.22.21.41c.08.16.24.25.41.25s.33-.1.41-.256l.21-.41.39-.228c.15-.087.24-.25.24-.43s-.098-.35-.25-.437l-.393-.225-.21-.41c-.08-.16-.24-.257-.41-.257s-.33.1-.42.254l-.21.41-.394.224c-.15.09-.245.25-.245.43s.095.342.246.43" fill="#fff"/><path d="M31.474 70.717c-.28 0-.4-.05-.567-.117-.176-.072-.39-.16-.747-.18v-9.982l.24.202.446.377c.202.17.5.137.662-.074.163-.21.132-.522-.07-.693l-1.278-1.08v-1.61c0-.273-.212-.494-.47-.494h-.594c-.19-.356-.55-.964-.864-1.145-.145-.09-.906-.75-1.636-1.41V43.78l.02-.196c0-1.127-.542-2.432-1.347-3.246-.18-.178-.42-.276-.66-.276h-2.54c-.25 0-.48.1-.66.28-.74.752-1.26 1.9-1.35 2.955l-.01.155v13.343l-.31.436-1.01.76h-.86c-.09 0-.17.03-.24.07l-.9.55h-.84v-.71c0-.27-.21-.49-.47-.49h-.76v-2.79c0-.27-.21-.49-.47-.49s-.47.22-.47.5v2.79h-.42v-3.5c0-.18-.11-.36-.27-.44-.17-.08-.36-.06-.5.06l-2.48 2.03v-4.2c0-.26-.1-.51-.28-.69l-.89-.92v-2.97c0-.27-.22-.49-.48-.49s-.47.22-.47.5v1.99l-.15-.15c-.37-.39-.97-.39-1.33 0l-.15.15V46.8c0-.27-.21-.493-.47-.493s-.48.22-.48.49v2.97l-.89.93c-.18.185-.28.435-.28.697v6.8l-.81.23c-.07.02-.14.06-.196.114l-.82.79-.01.01-.74.774-1.025.36c-.244.087-.38.366-.295.62.07.21.25.34.45.34l.15-.025L2.03 61l.147-.085.036-.034.81-.84.725-.7.447-.12v2.46H2.73c-.26 0-.47.22-.47.49v8.56c-.088.02-.187.04-.326.04-.28 0-.4-.05-.57-.11-.2-.08-.45-.18-.91-.18-.26 0-.47.22-.47.49s.21.49.47.49c.28 0 .4.05.57.12.2.08.45.187.91.187s.705-.1.91-.18c.12-.05.22-.09.38-.11h.37c.16.02.26.06.382.11.202.08.452.185.91.185s.71-.1.91-.183c.167-.07.287-.12.567-.12.28 0 .4.05.567.12.202.08.452.185.91.185s.71-.1.91-.182c.165-.07.285-.12.56-.12l.082.01h.11c.153.018.252.06.38.11.2.08.45.18.91.18.453 0 .71-.1.91-.18.12-.05.22-.09.38-.11h.37c.16.02.254.06.38.11.2.08.45.185.91.185.455 0 .71-.1.91-.19.123-.05.22-.09.38-.11h.37c.16.02.257.06.38.11.202.08.453.184.91.184.46 0 .71-.1.91-.185.167-.07.29-.117.57-.117.28 0 .4.05.566.11.2.08.45.185.91.185s.71-.1.91-.18c.166-.07.287-.117.567-.117.28 0 .4.05.567.118.2.08.455.186.91.186s.71-.1.91-.18c.17-.07.29-.12.57-.12.28 0 .4.05.565.12.2.08.452.18.91.18s.708-.1.91-.19c.166-.07.286-.117.567-.117.28 0 .4.05.568.11.2.08.45.18.91.18s.71-.1.91-.183c.167-.07.287-.12.57-.12.28 0 .4.05.566.116.2.08.452.183.91.183.26 0 .472-.22.472-.49s-.21-.49-.474-.49zm-9.527-27.182l.002-.033c.02-.472.24-1.043.55-1.472h1.69c.28.404.49.94.53 1.397l-.01.155v.7h-2.77v-.747zm6.04 13.532h-1.39v-1.265c.487.433.992.87 1.166.975.046.04.13.15.223.29zm1.23 1.5v11.707h-2.673c.033-.1.052-.21.052-.322v-11.9h2.622v.514zm-7.27-13.298h2.765v.65h-2.765v-.66zm0 19.68h2.765v.65h-2.765v-.66zm0-1.64h2.765v.65h-2.765v-.66zm0-1.64h2.765v.65h-2.765v-.66zm0-1.64h2.765v.65h-2.765v-.66zm0 6.56h2.765v.65h-2.765v-.66zm0-9.85h2.765v.65h-2.765v-.66zm0 1.64h2.765v.65h-2.765v-.66zm0-11.49h2.765v.65h-2.765v-.65zm0 1.64h2.765v.65h-2.765v-.66zm0 1.64h2.765v.65h-2.765v-.66zm0 1.64h2.765v.65h-2.765v-.66zm0 1.64h2.765v.65h-2.765v-.66zm1.62 1.64h1.145v.65h-2.765v-.65h1.62zm-1.62 13.12h2.765v.73h-2.765v-.73zm-3.652-7.46h1.68v.4h-1.68v-.41zm2.15 1.39h.22v8.1H20.3l.002-.02V63.3c0-.18-.096-.34-.237-.424-.07-.044-.148-.07-.234-.07-.26 0-.47.22-.47.493v6.96h-.38l.01-.02V63.3c0-.272-.21-.492-.47-.492s-.47.22-.47.492v6.944l.01.02h-.43v-8.1h2.84zM3.207 70.42v-7.8h1.508v7.803H3.207zm11.008-12.03h.754v12.03h-1.51V58.39h.75zm-1.832-1.245v13.277H9.87V56.98l.212-.173 2.3-1.885v2.226zM6.127 61.31l.363.378-.363.38v-.76zm2.07-7.5l-.368-.385.36-.386v.77zm0 14.363l-1.034 1.082-.276-.29-.76-.792-.275-.29.275-.288 1.036-1.082 1.31 1.37-.275.29zm-2.07-2.742l.37.39-.37.39v-.77zm2.07-3.36l-.362-.38.363-.38v.76zm0 4.14l-.368-.38.36-.38v.77zm-2.07-10.43l-.274-.29 1.31-1.37L8.2 55.21l.276.288-1.31 1.37-1.037-1.08zm1.037 2.48L8.2 59.34l.275.29-1.16 1.21-.15.15-1.037-1.08-.275-.29 1.31-1.37zm0 4.13L8.2 63.46l.275.29-.276.288-1.04 1.082-1.31-1.37 1.31-1.37zm1.31-11.02l-.332.35-.977 1.03-.978-1.02-.333-.34L7.164 50l1.312 1.37zm-2.346 1.68l.37.39-.37.39v-.77zm0 4.17v-.03l.02.02.346.36h.003l-.37.38v-.74zm2.07.26v.48l-.368-.38.184-.19.184-.19v.29zm7.715 13.05V59.6h.968c.09 0 .17-.022.24-.067l.9-.553h.88c.1 0 .2-.033.28-.093l.9-.675V59.8h-2.24c-.26 0-.47.22-.47.492v.898h-.22c-.26 0-.47.22-.47.493v9.033c-.25-.005-.36-.052-.52-.116l-.22-.085zm1.957-19.26c.09.07.19.1.29.1.1 0 .2-.03.28-.1.187-.14.247-.4.14-.61l-.14-.17c-.16-.12-.4-.12-.56 0-.184.15-.243.41-.14.62l.136.17m-2.113-4.72c.08.07.18.1.283.1.103 0 .2-.03.283-.09.18-.14.24-.4.14-.61l-.14-.17c-.17-.13-.4-.13-.57 0-.19.14-.25.4-.14.62l.13.17M10.5 47.8l.39.22.21.41c.08.16.24.25.41.25s.33-.1.41-.257l.21-.41.39-.227c.15-.086.24-.25.24-.43s-.1-.35-.25-.435l-.39-.22-.22-.41c-.08-.16-.24-.26-.41-.26s-.33.1-.42.26l-.21.41-.39.22c-.15.08-.245.25-.245.43s.09.345.24.43" fill="#67737B"/><path d="M31.474 30.717c-.28 0-.4-.05-.567-.117-.176-.072-.39-.16-.747-.18v-9.982l.24.202.446.377c.202.17.5.137.662-.074.163-.21.132-.522-.07-.693l-1.278-1.08v-1.61c0-.273-.212-.494-.47-.494h-.594c-.19-.356-.55-.964-.864-1.145-.145-.09-.906-.75-1.636-1.41V3.78l.02-.196c0-1.126-.542-2.43-1.347-3.245-.18-.18-.42-.28-.66-.28h-2.54c-.25 0-.48.1-.66.28-.74.75-1.26 1.9-1.35 2.95l-.01.15v13.34l-.31.43-1.01.76h-.86c-.09 0-.17.02-.24.07l-.9.55h-.84v-.71c0-.27-.21-.5-.47-.5h-.76V14.6c0-.273-.21-.494-.47-.494s-.47.22-.47.494v2.79h-.42V13.9c0-.187-.11-.36-.27-.442-.17-.08-.36-.06-.5.055l-2.48 2.03V11.35c0-.26-.1-.51-.28-.696l-.88-.92V6.77c0-.274-.22-.495-.48-.495s-.47.22-.47.494v1.98l-.15-.16c-.37-.39-.97-.39-1.34 0l-.14.15V6.76c0-.272-.21-.493-.47-.493s-.47.22-.47.492v2.97l-.89.92c-.18.18-.28.43-.28.7v6.8l-.81.22c-.077.02-.14.06-.2.11l-.82.79-.01.01-.74.77-1.02.36c-.25.08-.38.36-.3.62.07.2.25.34.45.34l.15-.03 1.13-.4.15-.09.034-.04.81-.84.72-.7.446-.13v2.46H2.7c-.26 0-.47.22-.47.49v8.55c-.09.02-.19.033-.33.033-.28 0-.4-.05-.57-.12-.2-.09-.45-.19-.91-.19-.26 0-.47.22-.47.49s.21.49.47.49c.28 0 .4.05.57.116.2.08.45.18.91.18s.71-.1.91-.186c.127-.05.226-.09.38-.11h.37c.16.02.26.06.388.11.206.08.456.186.91.186s.71-.1.91-.18c.17-.07.29-.12.57-.12.28 0 .4.05.57.12.2.08.45.18.91.18s.71-.1.91-.185c.164-.07.284-.117.56-.12l.08.01h.11c.155.02.254.06.38.11.2.08.45.18.91.18.455 0 .71-.1.91-.18.12-.05.22-.09.38-.11h.37c.16.02.256.06.38.11.2.08.45.18.91.18.457 0 .71-.1.91-.18.125-.05.22-.09.38-.11h.37c.16.02.26.06.38.11.204.08.455.18.91.18.46 0 .71-.1.91-.183.17-.07.29-.114.57-.114.28 0 .4.05.568.12.2.08.45.18.91.18s.71-.1.91-.18c.17-.07.29-.12.57-.12.28 0 .4.05.57.12.2.08.45.184.91.184s.71-.1.91-.186c.17-.07.29-.12.57-.12.28 0 .4.05.56.12.2.08.453.18.91.18s.71-.1.91-.18c.167-.07.287-.12.57-.12.28 0 .4.05.57.113.2.08.45.18.91.18s.71-.108.91-.19c.165-.07.285-.12.57-.12.28 0 .4.05.564.113.2.08.45.188.91.188.26 0 .47-.22.47-.49s-.21-.493-.47-.493zM21.947 3.535l.002-.033c.02-.472.24-1.043.55-1.472h1.69c.28.404.49.94.53 1.397l-.01.155v.7h-2.77v-.747zm6.04 13.532h-1.39v-1.265c.487.433.992.87 1.166.975.046.04.13.15.223.29zm1.23 1.5v11.707h-2.673c.033-.1.052-.21.052-.322v-11.9h2.622v.514zM21.947 5.27h2.765v.654h-2.765V5.27zm0 19.685h2.765v.655h-2.765v-.654zm0-1.64h2.765v.654h-2.765v-.66zm0-1.642h2.765v.655h-2.765v-.656zm0-1.64h2.765v.654h-2.765v-.655zm0 6.562h2.765v.655h-2.765v-.654zm0-9.844h2.765v.66h-2.765v-.65zm0 1.64h2.765v.66h-2.765v-.65zm0-11.48h2.765v.66h-2.765v-.66zm0 1.64h2.765v.66h-2.765v-.66zm0 1.64h2.765v.66h-2.765v-.65zm0 1.64h2.765v.66h-2.765v-.65zm0 1.64h2.765v.66h-2.765v-.65zm1.62 1.64h1.145v.66h-2.765v-.65h1.62zm-1.62 13.13h2.765v.73h-2.765v-.73zm-3.652-7.45h1.68v.41h-1.68v-.4zm2.15 1.39h.22v8.1H20.3l.002-.02v-6.95c0-.18-.096-.34-.237-.42-.07-.04-.148-.06-.234-.06-.26 0-.47.22-.47.49v6.97h-.38l.01-.02v-6.95c0-.27-.21-.49-.47-.49s-.47.22-.47.49v6.95l.01.02h-.43v-8.1h2.84zM3.207 30.43v-7.81h1.508v7.803H3.207zm11.008-12.04h.754v12.03h-1.51V18.39h.75zm-1.832-1.245v13.277H9.87V16.98l.212-.173 2.3-1.885v2.226zM6.127 21.31l.363.378-.363.38v-.76zm2.07-7.5l-.368-.385.36-.386v.77zm0 14.363l-1.034 1.082-.276-.29-.76-.792-.275-.29.275-.288 1.036-1.082 1.31 1.37-.275.29zm-2.07-2.742l.37.39-.37.39v-.77zm2.07-3.36l-.362-.38.363-.38v.76zm0 4.14l-.368-.38.36-.38v.77zm-2.07-10.43l-.274-.29 1.31-1.37L8.2 15.21l.276.288-1.31 1.37-1.037-1.08zm1.037 2.48L8.2 19.34l.275.29-1.16 1.21-.15.15-1.037-1.08-.275-.29 1.31-1.37zm0 4.13L8.2 23.46l.275.29-.276.288-1.04 1.082-1.31-1.37 1.31-1.37zm1.31-11.02l-.332.35-.977 1.03-.978-1.02-.333-.34L7.164 10l1.312 1.37zm-2.346 1.68l.37.39-.37.39v-.77zm0 4.17v-.03l.02.02.346.36h.003l-.37.38v-.74zm2.07.26v.48l-.368-.38.184-.19.184-.19v.29zm7.715 13.05V19.6h.968c.09 0 .17-.022.24-.067l.9-.553h.88c.1 0 .2-.033.28-.093l.9-.675V19.8h-2.24c-.26 0-.47.22-.47.492v.898h-.22c-.26 0-.47.22-.47.493v9.033c-.25-.005-.36-.052-.52-.116l-.22-.085zm1.957-19.26c.09.07.19.1.29.1.1 0 .2-.03.28-.1.187-.14.247-.4.14-.61l-.14-.17c-.16-.12-.4-.12-.56 0-.184.15-.243.41-.14.62l.136.17m-2.113-4.72c.08.07.18.1.283.1.103 0 .2-.03.283-.09.18-.14.24-.4.14-.61l-.14-.17c-.17-.13-.4-.13-.57 0-.19.14-.25.4-.14.62l.13.17m-5.25 1.2l.39.227.21.41c.08.155.24.253.41.253s.33-.1.41-.26l.22-.41.39-.228c.15-.09.24-.26.24-.44s-.1-.35-.25-.43l-.39-.23-.22-.41c-.08-.16-.236-.26-.41-.26s-.33.1-.415.25l-.21.41-.39.226c-.15.09-.24.26-.24.44s.095.345.246.43" fill="#3A434E"/></g></svg>