<svg width="32" height="232" viewBox="0 0 32 232" xmlns="http://www.w3.org/2000/svg"><g fill="none"><path d="M29.59 139.496v-3.323c0-.174-.092-.326-.23-.413v-2.648c0-.26-.203-.472-.46-.49v-1.748c0-.196-.117-.364-.285-.444l-.844-8.117c-.02-.252-.24-.443-.49-.443s-.47.192-.49.443l-.84 8.117c-.17.08-.28.248-.28.444v1.747c-.25.02-.46.23-.46.5v2.65c-.13.09-.23.24-.23.42v1.8l-.88-.62c-.17-.12-.4-.12-.58 0l-.41.3v-2.69c0-.12-.02-.25-.07-.36l-.87-2.21.03-.16.03-3.93c0-.27-.22-.49-.49-.49h-.01c-.27 0-.5.22-.5.49v.84c-1.11-2.1-2.99-3.7-3.96-4.44v-1.65c0-.27-.22-.49-.5-.49h-.16v-.85l.06-.1.22-.114c.16-.09.26-.25.26-.43s-.1-.35-.26-.44l-.212-.12-.12-.21c-.085-.16-.253-.255-.435-.255s-.35.1-.44.26l-.12.21-.21.11c-.16.09-.26.256-.26.436s.1.35.26.437l.22.11.05.11v.854h-.16c-.275 0-.5.22-.5.49v1.65c-.91.69-2.64 2.16-3.764 4.09l.01-.484c0-.275-.22-.497-.5-.5-.28 0-.5.22-.506.49l-.03 3.275c-.03.22-.05.44-.06.665l-.94 2.38c-.044.115-.07.237-.07.36v2.634l-.324-.23c-.173-.128-.41-.128-.58 0l-.97.68v-1.85c0-.18-.09-.33-.23-.418v-2.65c0-.26-.2-.47-.46-.49v-1.75c0-.198-.12-.366-.285-.446l-.84-8.12c-.03-.25-.24-.44-.5-.44s-.47.19-.5.44l-.843 8.11c-.17.08-.29.247-.29.44v1.75c-.25.02-.46.23-.46.49v2.65c-.135.09-.23.24-.23.417v3.32c-.29.17-.495.49-.495.86V151c0 .544.44.986 1 .986H29.1c.55 0 .996-.445.996-.99v-10.63c0-.366-.202-.685-.5-.856zM4.874 127.194l.33 3.187h-.66l.33-3.18zm2.367 12.01l1.21-.853.62.44.37.26c.18.13.41.13.58 0l.99-.7.99.7c.18.13.41.13.58 0l.99-.7.99.7c.18.13.41.13.58 0l.98-.69.01-.01.02.01.98.69c.18.13.41.13.58 0l.99-.7.99.7c.18.13.41.13.58 0l.85-.59.15-.1.99.7c.18.13.41.13.58 0l.29-.2.71-.5 1.17.83.03.02v.84l-.03-.01c-.22-.1-.47-.16-.73-.16-.46 0-.88.19-1.2.5l-.15.17-.15-.16-.01-.01c-.31-.3-.73-.48-1.19-.48-.13 0-.25.02-.37.04-.315.07-.6.23-.83.45l-.15.17-.156-.16c-.314-.31-.74-.49-1.2-.49-.46 0-.884.19-1.2.497l-.15.166-.155-.17c-.32-.306-.74-.493-1.21-.493-.46 0-.89.19-1.2.496l-.16.17-.154-.167c-.32-.305-.74-.49-1.203-.49-.464 0-.886.19-1.204.494l-.15.17-.15-.17c-.24-.23-.537-.39-.87-.46l-.333-.03c-.46 0-.88.19-1.2.5H9.5l-.15.16-.153-.164c-.317-.302-.74-.49-1.204-.49-.257 0-.503.06-.724.165l.01-.812zm3.82-4.076l.69-1.74h8.65l.69 1.74v2.144l-.14.07-.47.337v-2.45c0-.28-.22-.5-.5-.5-.27 0-.49.22-.49.49v2.46l-.5-.36c-.12-.09-.27-.11-.41-.08v-2.03c0-.28-.22-.5-.5-.5s-.49.22-.49.5v2.63l.01.06-.16.11-.75-.54v-2.27c0-.28-.23-.5-.5-.5s-.5.22-.5.49v2.24l-.8.562-.13-.085.01-.083v-2.63c0-.27-.22-.49-.5-.49-.27 0-.5.22-.5.492v2.04c-.15-.05-.32-.03-.45.064l-.46.327v-2.43c0-.27-.22-.49-.5-.49s-.5.22-.5.497v2.47l-.51-.364c-.07-.05-.15-.08-.233-.09v-2.13zm4.86-11.615h.32v.57c-.1-.015-.21-.015-.31 0v-.57zm-.11 2.985l.27-.214.28.216c.57 1.094 1.32 2.868 1.52 4.913H14.3c.194-2.043.945-3.82 1.515-4.915zm11.47.696l.34 3.187h-.66l.33-3.18zm-21.09 23.31H3.56V139.24h2.63v2.302l-.008.107v3.4l.01.1v5.35zm-2.4-16.898h2.18v2.073H3.79v-2.08zm.47-2.237H5.5v1.24H4.25v-1.25zm21.71 5.29h2.63v1.58h-2.63v-1.59zm.22-3.06h2.18v2.07h-2.18v-2.07zm.46-2.24h1.25v1.25h-1.25v-1.25zM8.74 141.68v2.883H7.18v-2.882l.01-.09.032-.14c.107-.35.397-.59.738-.59.415 0 .756.37.78.84zm1.932-.835c.415 0 .757.367.78.836v2.89h-1.56v-2.88c.024-.47.365-.83.78-.83zm3.493.836v2.89h-1.562v-2.88c.025-.47.366-.83.78-.83.416 0 .758.37.782.84zm2.712 0v2.89h-1.562v-2.88c.025-.47.366-.83.78-.83.416 0 .758.37.782.84zm2.712 0v2.89h-1.57v-2.88c.02-.47.36-.83.78-.83.41 0 .75.37.78.84zm1.15 2.87v-2.86c.02-.47.36-.83.78-.83.41 0 .75.37.78.84v2.89h-1.56v-.01zm4.22-3.13l.01.05.03.22v2.89h-1.56v-2.88c.02-.47.36-.83.78-.83.33 0 .61.24.73.57zm-21.4-4.74h2.63v1.59H3.56v-1.58zm25.03 3.69v10.16h-2.63v-5.23l.05-.21v-3.41l-.04-.29v-2.11h2.6v1.11zm-21.4 5.2h2.12l.07.01h2.56l.07-.01.07.01h2.63l.07.01h2.64l.07.008h2.56l.07-.01.07.004h2.56l.07-.004.07.004h2.01V150H7.19v-4.436zm12.77-14.13h-1.1c-.1-1.15-.36-2.22-.68-3.15.73.85 1.48 1.95 1.77 3.16zm-6-3.16c-.32.93-.58 2-.68 3.16h-1.1c.27-1.17.99-2.26 1.77-3.16zm-9.09 12.35c-.41 0-.74.32-.76.72v1.83h1.52v-1.82c-.02-.4-.36-.72-.76-.72zm0 3.15c-.41 0-.74.32-.76.72v1.83h1.52v-1.83c-.02-.4-.36-.71-.76-.71zm22.4-3.15c-.41 0-.74.32-.76.72v1.83h1.52v-1.82c-.02-.4-.36-.72-.76-.72zm0 3.15c-.41 0-.74.32-.76.72v1.83h1.52v-1.83c-.02-.4-.36-.71-.76-.71zm-19.11 2.67h1v2.59h-1v-2.58zm1.84 0h1v2.59h-1v-2.58zm1.84 0h1v2.59h-1v-2.58zm1.84 0h1v2.59h-1v-2.58zm1.84 0h1v2.59h-1v-2.58zm1.84 0h.99v2.59h-1v-2.58zm1.83 0h1v2.59h-1v-2.58zm1.84 0h1v2.59h-1v-2.58zm1.84 0h1v2.59h-1v-2.58z" fill="#206FAC"/><path d="M29.59 99.496v-3.323c0-.174-.092-.326-.23-.413v-2.648c0-.26-.203-.472-.46-.49v-1.748c0-.196-.117-.364-.285-.444l-.844-8.117c-.02-.252-.24-.443-.49-.443s-.47.192-.49.443l-.84 8.117c-.17.08-.28.248-.28.444v1.747c-.25.02-.46.23-.46.5v2.65c-.13.09-.23.24-.23.42v1.8l-.88-.62c-.17-.12-.4-.12-.58 0l-.41.3v-2.7c0-.12-.02-.24-.07-.36l-.87-2.21.03-.16.03-3.93c0-.27-.22-.49-.49-.49h-.01c-.27 0-.5.22-.5.49v.84c-1.11-2.1-2.99-3.71-3.96-4.44v-1.65c0-.272-.22-.492-.5-.492h-.16v-.86l.06-.105.22-.115c.16-.09.26-.26.26-.44s-.1-.346-.26-.43l-.212-.12-.12-.21c-.084-.16-.254-.26-.434-.26s-.35.093-.44.252l-.115.21-.21.12c-.16.086-.26.25-.26.43s.1.35.26.435l.213.12.05.107v.85h-.16c-.27 0-.5.223-.5.495v1.65c-.91.69-2.64 2.16-3.76 4.09l.01-.488c0-.27-.22-.496-.494-.498-.28 0-.5.22-.51.49l-.02 3.27c-.03.22-.05.44-.06.67l-.94 2.38c-.047.116-.07.24-.07.36v2.63l-.327-.23c-.178-.126-.41-.126-.58 0l-.97.68V96.2c0-.173-.09-.325-.23-.412v-2.65c0-.26-.207-.472-.465-.49v-1.75c0-.194-.12-.362-.287-.442l-.85-8.12c-.023-.25-.24-.44-.494-.44s-.47.19-.497.44l-.84 8.12c-.16.08-.28.247-.28.443v1.75c-.25.02-.46.23-.46.49v2.65c-.14.09-.23.24-.23.42v3.32c-.29.17-.5.49-.5.85V111c0 .548.45.99 1 .99h26c.55 0 1-.442 1-.99v-10.63c0-.37-.2-.686-.5-.86zM4.874 87.194l.33 3.187h-.66l.33-3.18zm2.367 12.01l1.21-.853.62.44.37.26c.18.13.41.13.58 0l.99-.7.99.7c.18.13.41.13.58 0l.99-.7.99.7c.18.13.41.13.58 0l.98-.69.01-.01.02.01.98.69c.18.13.41.13.58 0l.99-.7.99.7c.18.13.41.13.58 0l.85-.59.15-.1.99.7c.18.13.41.13.58 0l.29-.2.71-.5 1.17.83.03.02v.84l-.03-.01c-.22-.1-.47-.16-.73-.16-.46 0-.88.19-1.2.5l-.15.17-.15-.16-.01-.01c-.31-.3-.73-.48-1.19-.48-.13 0-.25.02-.37.04-.315.07-.6.23-.83.45l-.15.17-.156-.16c-.314-.31-.74-.49-1.2-.49-.46 0-.884.19-1.2.497l-.15.166-.155-.17c-.32-.306-.74-.493-1.21-.493-.46 0-.89.19-1.2.496l-.16.17-.154-.167c-.32-.305-.74-.49-1.203-.49-.464 0-.886.19-1.204.494l-.15.17-.15-.17c-.24-.23-.537-.39-.87-.46l-.333-.03c-.46 0-.88.19-1.2.5H9.5l-.15.16-.153-.164c-.317-.302-.74-.49-1.204-.49-.257 0-.503.06-.724.165l.01-.812zm3.82-4.076l.69-1.74h8.65l.69 1.74v2.144l-.14.07-.47.337v-2.45c0-.28-.22-.5-.5-.5-.27 0-.49.22-.49.49v2.46l-.5-.36c-.12-.09-.27-.11-.41-.08v-2.03c0-.28-.22-.5-.5-.5s-.49.22-.49.5v2.63l.01.06-.16.11-.75-.54V95.2c0-.272-.23-.493-.5-.493s-.5.22-.5.49v2.235l-.8.564-.13-.086.01-.086V95.2c0-.276-.22-.497-.5-.497-.27 0-.5.22-.5.495v2.04c-.15-.05-.32-.03-.45.07l-.46.327v-2.43c0-.27-.22-.495-.5-.495s-.5.22-.5.5v2.47l-.51-.37c-.07-.05-.15-.08-.233-.09V95.1zm4.86-11.615h.32v.57c-.1-.015-.21-.015-.31 0v-.57zm-.11 2.985l.27-.214.28.216c.57 1.094 1.32 2.868 1.52 4.913H14.3c.194-2.043.945-3.82 1.515-4.915zm11.47.696l.34 3.187h-.66l.33-3.18zm-21.09 23.31H3.56V99.24h2.63v2.302l-.008.107v3.4l.01.1v5.35zm-2.4-16.9h2.18v2.074H3.79v-2.074zm.46-2.236H5.5v1.248H4.25v-1.25zm21.71 5.297h2.63v1.587h-2.63v-1.587zm.23-3.06h2.18v2.072h-2.18v-2.074zm.46-2.238h1.25v1.248h-1.25v-1.25zM8.74 101.68v2.883H7.18v-2.882l.01-.09.032-.14c.107-.35.397-.59.738-.59.415 0 .756.37.78.84zm1.932-.835c.415 0 .757.367.78.836v2.89h-1.56v-2.88c.024-.47.365-.83.78-.83zm3.493.836v2.89h-1.562v-2.88c.025-.47.366-.83.78-.83.416 0 .758.37.782.84zm2.712 0v2.89h-1.562v-2.88c.025-.47.366-.83.78-.83.416 0 .758.37.782.84zm2.712 0v2.89h-1.57v-2.88c.02-.47.36-.83.78-.83.41 0 .75.37.78.84zm1.15 2.87v-2.86c.02-.47.36-.83.78-.83.41 0 .75.37.78.84v2.89h-1.56v-.01zm4.22-3.13l.01.05.03.22v2.89h-1.56v-2.88c.02-.47.36-.83.78-.83.33 0 .61.24.73.57zm-21.4-4.75h2.63v1.59H3.56v-1.59zm25.03 3.69v10.16h-2.63v-5.23l.05-.21v-3.41l-.04-.29v-2.12h2.6v1.11zm-21.4 5.2h2.12l.07.01h2.64l.07.01h2.63l.07.01h2.63l.08.005h2.56l.07-.005.07.01h2.56l.08-.006.074.004h2.01V110H7.194v-4.433zm12.77-14.14h-1.1c-.1-1.15-.36-2.22-.68-3.15.73.84 1.48 1.95 1.77 3.16zm-6-3.16c-.32.93-.58 2-.68 3.16h-1.1c.27-1.17.99-2.26 1.77-3.16zm-9.09 12.36c-.41 0-.74.32-.76.72v1.83h1.52v-1.82c-.02-.4-.36-.71-.76-.71zm0 3.15c-.41 0-.74.32-.76.72v1.83h1.52v-1.82c-.02-.4-.36-.72-.76-.72zm22.4-3.15c-.41 0-.74.32-.76.72v1.83h1.52v-1.82c-.02-.4-.36-.71-.76-.71zm0 3.15c-.41 0-.74.32-.76.72v1.83h1.52v-1.82c-.02-.4-.36-.72-.76-.72zm-19.11 2.67h1v2.59h-1v-2.58zm1.84 0h1v2.59h-1v-2.58zm1.84 0h1v2.59h-1v-2.58zm1.84 0h1v2.59h-1v-2.58zm1.84 0h1v2.59h-1v-2.58zm1.84 0h1v2.59h-1v-2.58zm1.84 0h1v2.59h-1v-2.58zm1.84 0h1v2.59h-1v-2.58zm1.84 0h1v2.59h-1v-2.58z" fill="#fff"/><path d="M29.59 59.496v-3.323c0-.174-.092-.326-.23-.413v-2.648c0-.26-.203-.472-.46-.49v-1.748c0-.196-.117-.364-.285-.444l-.844-8.117c-.02-.252-.24-.443-.49-.443s-.47.192-.49.443l-.84 8.117c-.17.08-.28.248-.28.444v1.747c-.25.02-.46.23-.46.5v2.65c-.13.09-.23.24-.23.42v1.8l-.88-.62c-.17-.12-.4-.12-.58 0l-.41.3v-2.7c0-.12-.02-.24-.07-.36l-.87-2.21.03-.16.03-3.93c0-.27-.22-.49-.49-.49h-.01c-.27 0-.5.22-.5.49v.84c-1.11-2.1-2.99-3.71-3.96-4.44v-1.65c0-.272-.22-.492-.5-.492h-.16v-.86l.06-.105.22-.115c.16-.09.26-.26.26-.44s-.1-.346-.26-.43l-.212-.12-.12-.21c-.084-.16-.254-.26-.434-.26s-.35.093-.44.252l-.115.21-.21.12c-.16.086-.26.25-.26.43s.1.35.26.435l.213.12.05.107v.85h-.16c-.27 0-.5.223-.5.495v1.65c-.91.69-2.64 2.16-3.76 4.09l.01-.488c0-.27-.22-.496-.494-.498-.28 0-.5.22-.51.49l-.02 3.27c-.03.22-.05.44-.06.67l-.94 2.38c-.047.116-.07.24-.07.36v2.63l-.327-.23c-.178-.126-.41-.126-.58 0l-.97.68V56.2c0-.173-.09-.325-.23-.412v-2.65c0-.26-.207-.472-.465-.49v-1.75c0-.194-.12-.362-.287-.442l-.85-8.12c-.023-.25-.24-.44-.494-.44s-.47.19-.497.44l-.84 8.12c-.16.08-.28.247-.28.443v1.75c-.25.02-.46.23-.46.49v2.65c-.14.09-.23.24-.23.42v3.32c-.29.17-.5.49-.5.85V71c0 .54.45.984 1 .984h26c.55 0 1-.444 1-.99V60.35c0-.364-.2-.683-.5-.854zM4.874 47.194l.33 3.187h-.66l.33-3.18zm2.367 12.01l1.21-.853.62.44.37.26c.18.13.41.13.58 0l.99-.7.99.7c.18.13.41.13.58 0l.99-.7.99.7c.18.13.41.13.58 0l.98-.69.01-.01.02.01.98.69c.18.13.41.13.58 0l.99-.7.99.7c.18.13.41.13.58 0l.85-.59.15-.1.99.7c.18.13.41.13.58 0l.29-.2.71-.5 1.17.83.03.02v.84l-.03-.01c-.22-.1-.47-.16-.73-.16-.46 0-.88.19-1.2.5l-.15.17-.15-.16-.01-.01c-.31-.3-.73-.48-1.19-.48-.13 0-.25.02-.37.04-.315.07-.6.23-.83.45l-.15.17-.156-.16c-.314-.31-.74-.49-1.2-.49-.46 0-.884.19-1.2.497l-.15.166-.155-.17c-.32-.306-.74-.493-1.21-.493-.46 0-.89.19-1.2.496l-.16.17-.154-.167c-.32-.305-.74-.49-1.203-.49-.464 0-.886.19-1.204.494l-.15.17-.15-.17c-.24-.23-.537-.39-.87-.46l-.333-.03c-.46 0-.88.19-1.2.5H9.5l-.15.16-.153-.164c-.317-.302-.74-.49-1.204-.49-.257 0-.503.06-.724.165l.01-.812zm3.82-4.076l.69-1.74h8.65l.69 1.74v2.144l-.14.07-.47.337v-2.45c0-.28-.22-.5-.5-.5-.27 0-.49.22-.49.49v2.46l-.5-.36c-.12-.09-.27-.11-.41-.08v-2.03c0-.28-.22-.5-.5-.5s-.49.22-.49.5v2.63l.01.06-.16.11-.75-.54V55.2c0-.272-.23-.493-.5-.493s-.5.22-.5.49v2.235l-.8.564-.13-.086.01-.086V55.2c0-.276-.22-.497-.5-.497-.27 0-.5.22-.5.495v2.04c-.15-.05-.32-.03-.45.07l-.46.327v-2.43c0-.27-.22-.495-.5-.495s-.5.22-.5.5v2.47l-.51-.37c-.07-.05-.15-.08-.233-.09V55.1zm4.86-11.615h.32v.57c-.1-.015-.21-.015-.31 0v-.57zm-.11 2.985l.27-.214.28.216c.57 1.094 1.32 2.868 1.52 4.913H14.3c.194-2.043.945-3.82 1.515-4.915zm11.47.696l.34 3.187h-.66l.33-3.18zM6.2 70.504H3.56V59.24h2.63v2.302l-.008.107v3.4l.01.1v5.35zm-2.406-16.9H5.97v2.074H3.79v-2.074zm.46-2.236H5.5v1.248H4.25v-1.25zm21.71 5.297h2.63v1.587h-2.63v-1.587zm.23-3.06h2.176v2.072h-2.18v-2.074zm.46-2.238h1.25v1.248h-1.25v-1.25zM8.74 61.68v2.883H7.18V61.68l.01-.096.032-.145c.107-.35.397-.6.738-.6.415 0 .756.36.78.83zm1.932-.835c.415 0 .757.367.78.836v2.89h-1.56v-2.89c.024-.47.365-.83.78-.83zm3.493.836v2.89h-1.562v-2.89c.025-.47.366-.83.78-.83.416 0 .758.37.782.84zm2.712 0v2.89h-1.562v-2.89c.025-.47.366-.83.78-.83.416 0 .758.37.782.84zm2.712 0v2.89h-1.57v-2.89c.02-.47.36-.83.78-.83.41 0 .75.37.78.84zm1.15 2.87v-2.87c.02-.47.36-.83.78-.83.41 0 .75.37.78.84v2.89h-1.56v-.01zm4.22-3.13l.01.05.03.22v2.89h-1.56v-2.89c.02-.47.36-.83.78-.83.33 0 .61.24.73.57zm-21.4-4.75h2.63v1.59H3.56v-1.59zm25.03 3.69v10.15h-2.63v-5.23l.05-.21v-3.41l-.04-.29v-2.12h2.6v1.11zm-21.4 5.2h2.12l.07.01h2.64l.07.01h2.63l.07.01h2.63l.08.005h2.56l.07-.005.07.01h2.56l.08-.006.074.004h2.01V70H7.194v-4.44zm12.77-14.14h-1.1c-.1-1.15-.36-2.22-.68-3.15.73.84 1.48 1.95 1.77 3.16zm-6-3.16c-.32.93-.58 2-.68 3.16h-1.1c.27-1.17.99-2.26 1.77-3.16zM4.87 60.62c-.408 0-.74.318-.76.717v1.827h1.52v-1.827c-.02-.4-.352-.717-.76-.717zm0 3.15c-.408 0-.74.317-.76.716v1.827h1.52v-1.827c-.02-.4-.352-.717-.76-.717zm22.4-3.15c-.408 0-.74.318-.76.717v1.827h1.52v-1.827c-.02-.4-.352-.717-.76-.717zm0 3.15c-.408 0-.74.317-.76.716v1.827h1.52v-1.827c-.02-.4-.352-.717-.76-.717zM8.16 66.435h1v2.584h-1v-2.59zm1.84 0h1v2.584h-1v-2.59zm1.837 0h1v2.584h-1v-2.59zm1.84 0h.997v2.584h-1v-2.59zm1.837 0h1v2.584h-1v-2.59zm1.84 0h.998v2.584h-1v-2.59zm1.838 0h1v2.584h-1v-2.59zm1.84 0h.998v2.584h-1v-2.59zm1.838 0h1v2.584h-1v-2.59z" fill="#67737B"/><path d="M29.59 19.496v-3.323c0-.174-.092-.326-.23-.413v-2.648c0-.26-.203-.472-.46-.49v-1.748c0-.196-.117-.364-.285-.444l-.844-8.117c-.02-.252-.24-.443-.49-.443s-.47.192-.49.443l-.84 8.117c-.17.08-.28.248-.28.444v1.747c-.25.02-.46.23-.46.5v2.65c-.13.09-.23.24-.23.42v1.8l-.88-.62c-.17-.12-.4-.12-.58 0l-.41.3v-2.7c0-.12-.02-.24-.07-.36l-.87-2.21.03-.16.03-3.93c0-.27-.22-.49-.49-.49h-.01c-.27 0-.5.22-.5.49v.84c-1.11-2.1-2.99-3.71-3.96-4.44V3.02c0-.275-.22-.495-.5-.495h-.16v-.85l.06-.103.22-.116c.16-.085.26-.252.26-.432s-.1-.345-.26-.432l-.22-.12-.12-.212c-.09-.162-.26-.258-.44-.258s-.35.097-.44.256l-.12.212-.21.116c-.16.087-.26.253-.26.433s.1.34.26.43l.22.11.06.1v.85h-.16c-.272 0-.5.22-.5.49v1.65c-.91.69-2.64 2.16-3.76 4.09l.008-.49c.01-.28-.22-.5-.49-.5-.28-.01-.5.21-.502.49l-.02 3.27c-.03.22-.05.44-.06.66l-.94 2.37c-.05.11-.07.23-.07.36v2.63l-.33-.23c-.173-.13-.406-.13-.58 0l-.97.68v-1.85c0-.18-.09-.33-.226-.42V13.1c0-.26-.2-.47-.46-.49v-1.74c0-.195-.117-.363-.284-.443L5.38 2.31c-.025-.252-.24-.443-.496-.443s-.47.19-.5.442l-.843 8.11c-.16.08-.28.24-.28.44v1.74c-.25.02-.46.23-.46.49v2.64c-.14.09-.23.24-.23.41v3.32c-.29.17-.5.49-.5.85v10.63c0 .55.45.99 1 .99H29.1c.55 0 .996-.44.996-.99v-10.6c0-.37-.2-.69-.5-.86zM4.874 7.194l.33 3.187h-.66l.33-3.18zm2.367 12.01l1.21-.853.62.44.37.26c.18.13.41.13.58 0l.99-.7.99.7c.18.13.41.13.58 0l.99-.7.99.7c.18.13.41.13.58 0l.98-.69.01-.01.02.01.98.69c.18.13.41.13.58 0l.99-.7.99.7c.18.13.41.13.58 0l.85-.59.15-.1.99.7c.18.13.41.13.58 0l.29-.2.71-.5 1.17.83.03.02v.84l-.03-.01c-.22-.1-.47-.16-.73-.16-.46 0-.88.19-1.2.5l-.15.17-.15-.16-.01-.01c-.31-.3-.73-.48-1.19-.48-.13 0-.25.02-.37.04-.315.07-.6.23-.83.45l-.15.17-.156-.16c-.314-.31-.74-.49-1.2-.49-.46 0-.884.19-1.2.497l-.15.166-.155-.17c-.32-.306-.74-.493-1.21-.493-.46 0-.89.19-1.2.496l-.16.17-.154-.167c-.32-.305-.74-.49-1.203-.49-.464 0-.886.19-1.204.494l-.15.17-.15-.17c-.24-.23-.537-.39-.87-.46l-.333-.03c-.46 0-.88.19-1.2.5H9.5l-.15.16-.153-.164c-.317-.302-.74-.49-1.204-.49-.257 0-.503.06-.724.165l.01-.812zm3.82-4.076l.69-1.74h8.65l.69 1.74v2.144l-.14.07-.47.337v-2.45c0-.28-.22-.5-.5-.5-.27 0-.49.22-.49.49v2.46l-.5-.36c-.12-.09-.27-.11-.41-.08v-2.03c0-.28-.22-.5-.5-.5s-.49.22-.49.5v2.63l.01.06-.16.11-.75-.54V15.2c0-.272-.23-.493-.5-.493s-.5.22-.5.49v2.235l-.8.564-.13-.086.01-.086V15.2c0-.276-.22-.497-.5-.497-.27 0-.5.22-.5.495v2.04c-.15-.05-.32-.03-.45.07l-.46.327v-2.43c0-.27-.22-.495-.5-.495s-.5.22-.5.5v2.47l-.51-.37c-.07-.05-.15-.08-.233-.09V15.1zm4.86-11.615h.32v.57c-.1-.015-.21-.015-.31 0v-.57zm-.11 2.985l.27-.214.28.216c.57 1.094 1.32 2.868 1.52 4.913H14.3c.194-2.043.945-3.82 1.515-4.915zm11.47.696l.34 3.187h-.66l.33-3.18zM6.2 30.504H3.56V19.24h2.63v2.302l-.008.107v3.4l.01.1v5.35zm-2.406-16.9H5.97v2.074H3.79v-2.074zm.46-2.236H5.5v1.248H4.25v-1.25zm21.71 5.297h2.63v1.587h-2.63v-1.587zm.23-3.06h2.176v2.072h-2.18v-2.074zm.46-2.238h1.25v1.248h-1.25v-1.25zM8.74 21.68v2.883H7.18V21.68l.01-.096.032-.145c.107-.35.397-.6.738-.6.415 0 .756.36.78.83zm1.932-.835c.415 0 .757.367.78.836v2.89h-1.56v-2.89c.024-.47.365-.83.78-.83zm3.493.836v2.89h-1.562v-2.89c.025-.47.366-.83.78-.83.416 0 .758.37.782.84zm2.712 0v2.89h-1.562v-2.89c.025-.47.366-.83.78-.83.416 0 .758.37.782.84zm2.712 0v2.89h-1.57v-2.89c.02-.47.36-.83.78-.83.41 0 .75.37.78.84zm1.15 2.87v-2.87c.02-.47.36-.83.78-.83.41 0 .75.37.78.84v2.89h-1.56v-.01zm4.22-3.13l.01.05.03.22v2.89h-1.56v-2.89c.02-.47.36-.83.78-.83.33 0 .61.24.73.57zm-21.4-4.75h2.63v1.59H3.56v-1.59zm25.03 3.69v10.15h-2.63v-5.23l.05-.21v-3.41l-.04-.29v-2.12h2.6v1.11zm-21.4 5.2h2.12l.07.01h2.64l.07.01h2.63l.07.01h2.63l.08.005h2.56l.07-.005.07.01h2.56l.08-.006.074.004h2.01V30H7.194v-4.44zm12.77-14.14h-1.1c-.1-1.15-.36-2.22-.68-3.15.73.84 1.48 1.95 1.77 3.16zm-6-3.16c-.32.93-.58 2-.68 3.16h-1.1c.27-1.17.99-2.26 1.77-3.16zM4.87 20.62c-.408 0-.74.318-.76.717v1.827h1.52v-1.827c-.02-.4-.352-.717-.76-.717zm0 3.15c-.408 0-.74.317-.76.716v1.827h1.52v-1.827c-.02-.4-.352-.717-.76-.717zm22.4-3.15c-.408 0-.74.318-.76.717v1.827h1.52v-1.827c-.02-.4-.352-.717-.76-.717zm0 3.15c-.408 0-.74.317-.76.716v1.827h1.52v-1.827c-.02-.4-.352-.717-.76-.717zM8.16 26.435h1v2.584h-1v-2.59zm1.84 0h1v2.584h-1v-2.59zm1.837 0h1v2.584h-1v-2.59zm1.84 0h.994v2.584h-1v-2.59zm1.834 0h1v2.584h-1v-2.59zm1.84 0h1v2.584h-1v-2.59zm1.84 0h1v2.584h-1v-2.59zm1.84 0h1v2.584h-1v-2.59zm1.84 0h1v2.584h-1v-2.59z" fill="#3A434E"/></g></svg>