<svg width="32" height="232" viewBox="0 0 32 232" xmlns="http://www.w3.org/2000/svg"><g fill="none">
			<path id="XMLID_671_" fill="#3A444F" d="M25.5,20.8c-0.5,0-0.7,0.1-1,0.2c-0.2,0.1-0.3,0.1-0.6,0.1s-0.4-0.1-0.6-0.1
				c-0.2-0.1-0.5-0.2-1-0.2c-0.5,0-0.7,0.1-1,0.2c-0.2,0.1-0.3,0.1-0.6,0.1c-0.3,0-0.4-0.1-0.6-0.1c-0.1-0.1-0.3-0.1-0.5-0.2
				l-0.4-4.9l0.7-1.3c0,0,0,0,0,0c0,0,0,0,0,0c0,0,0,0,0-0.1c0,0,0,0,0,0c0,0,0-0.1,0-0.1c0,0,0,0,0,0v-1.8c0-0.3-0.2-0.5-0.5-0.5
				h-0.7V8.8c0,0,0-0.1,0.1-0.1l0.6-1.3c0,0,0-0.1,0.1-0.1c0-0.1,0-0.1,0-0.2c0-0.1,0-0.2-0.1-0.3c-0.1-0.1-0.1-0.1-0.2-0.2
				l-2.7-2.2V3.9V2.4v-1h-3.2l0.5,1.3l-0.5,1.3h2.3v0.5l-2.6,2.2c-0.1,0-0.2,0.1-0.2,0.2c-0.1,0.1-0.1,0.2-0.1,0.3
				c0,0.1,0,0.1,0,0.2c0,0,0,0.1,0.1,0.1l0.6,1.3c0,0,0,0.1,0.1,0.1v3.3h-0.7c-0.3,0-0.5,0.2-0.5,0.5v1.8c0,0,0,0,0,0
				c0,0,0,0.1,0,0.1c0,0,0,0,0,0c0,0,0,0.1,0,0.1c0,0,0,0,0,0c0,0,0,0,0,0l0.7,1.3l-0.4,4.9c-0.2,0-0.4,0.1-0.5,0.2
				c-0.2,0.1-0.3,0.1-0.6,0.1c-0.3,0-0.4-0.1-0.6-0.1c-0.2-0.1-0.5-0.2-1-0.2c-0.5,0-0.7,0.1-1,0.2c-0.2,0.1-0.3,0.1-0.6,0.1
				c-0.3,0-0.4-0.1-0.6-0.1c-0.2-0.1-0.5-0.2-1-0.2c-0.3,0-0.5,0.2-0.5,0.5c0,0.3,0.2,0.5,0.5,0.5c0.3,0,0.4,0.1,0.6,0.1
				c0.2,0.1,0.5,0.2,1,0.2c0.5,0,0.7-0.1,1-0.2c0.2-0.1,0.3-0.1,0.6-0.1c0.3,0,0.4,0.1,0.6,0.1c0.2,0.1,0.5,0.2,1,0.2s0.7-0.1,1-0.2
				c0,0,0.1,0,0.1,0l-0.5,6.6H8.4c-0.2,0-0.4,0.2-0.5,0.4l-0.4,2c0,0.1,0,0.3,0.1,0.4c0.1,0.1,0.2,0.2,0.4,0.2h16
				c0.1,0,0.3-0.1,0.4-0.2c0.1-0.1,0.1-0.3,0.1-0.4l-0.4-2c0-0.2-0.2-0.4-0.5-0.4h-3.4l-0.5-6.6c0,0,0.1,0,0.1,0
				c0.2,0.1,0.5,0.2,1,0.2c0.5,0,0.7-0.1,1-0.2c0.2-0.1,0.3-0.1,0.6-0.1c0.3,0,0.4,0.1,0.6,0.1c0.2,0.1,0.5,0.2,1,0.2
				c0.5,0,0.7-0.1,1-0.2c0.2-0.1,0.3-0.1,0.6-0.1c0.3,0,0.5-0.2,0.5-0.5C25.9,21,25.7,20.8,25.5,20.8z M14.6,3l0.1-0.3l-0.1-0.4h0.9
				v0.1V3H14.6z M16.7,28.5h-1.3V26c0-0.1,0.3-0.4,0.7-0.6c0.4,0.2,0.7,0.5,0.7,0.6V28.5z M17.6,28.5V26c0-0.8-1.2-1.4-1.4-1.6
				c-0.1-0.1-0.3-0.1-0.4,0c-0.2,0.1-1.4,0.7-1.4,1.6v2.5h-1.6l0.5-6.7l0.1-0.9l0.3-4.6h4.6l0.3,4.6l0.1,0.9l0.5,6.7H17.6z M15.3,13
				h1.5v0.9h-1.5V13z M14.8,14.9h2.4h1.5l-0.3,0.5h-4.9l-0.3-0.5H14.8z M19,13v0.9h-1.3V13h0.6H19z M18.3,7.6l-0.2,0.5h-4.1
				l-0.2-0.5H18.3z M16,5.3l1.7,1.4h-3.3L16,5.3z M14.2,9h3.6v3.1h-0.6h-2.4h-0.6V9z M13,13h0.7h0.6v0.9H13V13z M23.4,30.4H8.6
				l0.2-1h3.5h2.6h2.2h2.6h3.5L23.4,30.4z"/>
			<path id="XMLID_668_" fill="#3A444F" d="M16,11.8c0.7,0,1.3-0.6,1.3-1.3S16.7,9.3,16,9.3c-0.7,0-1.3,0.6-1.3,1.3
				S15.3,11.8,16,11.8z M16,10.2c0.2,0,0.3,0.1,0.3,0.3c0,0.2-0.1,0.3-0.3,0.3c-0.2,0-0.3-0.1-0.3-0.3C15.7,10.4,15.8,10.2,16,10.2z
				"/>
			<path id="XMLID_667_" fill="#3A444F" d="M16,21.3c-0.3,0-0.6,0.2-0.7,0.6c0,0,0,0.1,0,0.1v0.7h1.4V22c0,0,0-0.1,0-0.1
				C16.6,21.6,16.3,21.3,16,21.3z"/>
			<path id="XMLID_666_" fill="#3A444F" d="M16.5,18.6c0-0.3-0.3-0.5-0.5-0.5c-0.3,0-0.5,0.2-0.5,0.5v0.5h1.1V18.6z"/>
		</g>
		<g id="XMLID_1437_">
			<path id="XMLID_1443_" fill="#67737C" d="M25.5,60.8c-0.5,0-0.7,0.1-1,0.2c-0.2,0.1-0.3,0.1-0.6,0.1s-0.4-0.1-0.6-0.1
				c-0.2-0.1-0.5-0.2-1-0.2c-0.5,0-0.7,0.1-1,0.2c-0.2,0.1-0.3,0.1-0.6,0.1c-0.3,0-0.4-0.1-0.6-0.1c-0.1-0.1-0.3-0.1-0.5-0.2
				l-0.4-4.9l0.7-1.3c0,0,0,0,0,0c0,0,0,0,0,0c0,0,0,0,0-0.1c0,0,0,0,0,0c0,0,0-0.1,0-0.1c0,0,0,0,0,0v-1.8c0-0.3-0.2-0.5-0.5-0.5
				h-0.7v-3.3c0,0,0-0.1,0.1-0.1l0.6-1.3c0,0,0-0.1,0.1-0.1c0-0.1,0-0.1,0-0.2c0-0.1,0-0.2-0.1-0.3c-0.1-0.1-0.1-0.1-0.2-0.2
				l-2.7-2.2v-0.5v-1.6v-1h-3.2l0.5,1.3l-0.5,1.3h2.3v0.5l-2.6,2.2c-0.1,0-0.2,0.1-0.2,0.2c-0.1,0.1-0.1,0.2-0.1,0.3
				c0,0.1,0,0.1,0,0.2c0,0,0,0.1,0.1,0.1l0.6,1.3c0,0,0,0.1,0.1,0.1v3.3h-0.7c-0.3,0-0.5,0.2-0.5,0.5v1.8c0,0,0,0,0,0
				c0,0,0,0.1,0,0.1c0,0,0,0,0,0c0,0,0,0.1,0,0.1c0,0,0,0,0,0c0,0,0,0,0,0l0.7,1.3l-0.4,4.9c-0.2,0-0.4,0.1-0.5,0.2
				c-0.2,0.1-0.3,0.1-0.6,0.1c-0.3,0-0.4-0.1-0.6-0.1c-0.2-0.1-0.5-0.2-1-0.2c-0.5,0-0.7,0.1-1,0.2c-0.2,0.1-0.3,0.1-0.6,0.1
				c-0.3,0-0.4-0.1-0.6-0.1c-0.2-0.1-0.5-0.2-1-0.2c-0.3,0-0.5,0.2-0.5,0.5c0,0.3,0.2,0.5,0.5,0.5c0.3,0,0.4,0.1,0.6,0.1
				c0.2,0.1,0.5,0.2,1,0.2c0.5,0,0.7-0.1,1-0.2c0.2-0.1,0.3-0.1,0.6-0.1c0.3,0,0.4,0.1,0.6,0.1c0.2,0.1,0.5,0.2,1,0.2s0.7-0.1,1-0.2
				c0,0,0.1,0,0.1,0l-0.5,6.6H8.4c-0.2,0-0.4,0.2-0.5,0.4l-0.4,2c0,0.1,0,0.3,0.1,0.4c0.1,0.1,0.2,0.2,0.4,0.2h16
				c0.1,0,0.3-0.1,0.4-0.2c0.1-0.1,0.1-0.3,0.1-0.4l-0.4-2c0-0.2-0.2-0.4-0.5-0.4h-3.4l-0.5-6.6c0,0,0.1,0,0.1,0
				c0.2,0.1,0.5,0.2,1,0.2c0.5,0,0.7-0.1,1-0.2c0.2-0.1,0.3-0.1,0.6-0.1c0.3,0,0.4,0.1,0.6,0.1c0.2,0.1,0.5,0.2,1,0.2
				c0.5,0,0.7-0.1,1-0.2c0.2-0.1,0.3-0.1,0.6-0.1c0.3,0,0.5-0.2,0.5-0.5C25.9,61,25.7,60.8,25.5,60.8z M14.6,43l0.1-0.3l-0.1-0.4
				h0.9v0.1V43H14.6z M16.7,68.5h-1.3V66c0-0.1,0.3-0.4,0.7-0.6c0.4,0.2,0.7,0.5,0.7,0.6V68.5z M17.6,68.5V66c0-0.8-1.2-1.4-1.4-1.6
				c-0.1-0.1-0.3-0.1-0.4,0c-0.2,0.1-1.4,0.7-1.4,1.6v2.5h-1.6l0.5-6.7l0.1-0.9l0.3-4.6h4.6l0.3,4.6l0.1,0.9l0.5,6.7H17.6z M15.3,53
				h1.5v0.9h-1.5V53z M14.8,54.9h2.4h1.5l-0.3,0.5h-4.9l-0.3-0.5H14.8z M19,53v0.9h-1.3V53h0.6H19z M18.3,47.6l-0.2,0.5h-4.1
				l-0.2-0.5H18.3z M16,45.3l1.7,1.4h-3.3L16,45.3z M14.2,49h3.6v3.1h-0.6h-2.4h-0.6V49z M13,53h0.7h0.6v0.9H13V53z M23.4,70.4H8.6
				l0.2-1h3.5h2.6h2.2h2.6h3.5L23.4,70.4z"/>
			<path id="XMLID_1440_" fill="#67737C" d="M16,51.8c0.7,0,1.3-0.6,1.3-1.3c0-0.7-0.6-1.3-1.3-1.3c-0.7,0-1.3,0.6-1.3,1.3
				C14.7,51.3,15.3,51.8,16,51.8z M16,50.2c0.2,0,0.3,0.1,0.3,0.3c0,0.2-0.1,0.3-0.3,0.3c-0.2,0-0.3-0.1-0.3-0.3
				C15.7,50.4,15.8,50.2,16,50.2z"/>
			<path id="XMLID_1439_" fill="#67737C" d="M16,61.3c-0.3,0-0.6,0.2-0.7,0.6c0,0,0,0.1,0,0.1v0.7h1.4V62c0,0,0-0.1,0-0.1
				C16.6,61.6,16.3,61.3,16,61.3z"/>
			<path id="XMLID_1438_" fill="#67737C" d="M16.5,58.6c0-0.3-0.3-0.5-0.5-0.5c-0.3,0-0.5,0.2-0.5,0.5v0.5h1.1V58.6z"/>
		</g>
		<g id="XMLID_1631_">
			<path id="XMLID_1637_" fill="#FFFFFF" d="M25.5,100.8c-0.5,0-0.7,0.1-1,0.2c-0.2,0.1-0.3,0.1-0.6,0.1s-0.4-0.1-0.6-0.1
				c-0.2-0.1-0.5-0.2-1-0.2c-0.5,0-0.7,0.1-1,0.2c-0.2,0.1-0.3,0.1-0.6,0.1c-0.3,0-0.4-0.1-0.6-0.1c-0.1-0.1-0.3-0.1-0.5-0.2
				l-0.4-4.9l0.7-1.3c0,0,0,0,0,0c0,0,0,0,0,0c0,0,0,0,0-0.1c0,0,0,0,0,0c0,0,0-0.1,0-0.1c0,0,0,0,0,0v-1.8c0-0.3-0.2-0.5-0.5-0.5
				h-0.7v-3.3c0,0,0-0.1,0.1-0.1l0.6-1.3c0,0,0-0.1,0.1-0.1c0-0.1,0-0.1,0-0.2c0-0.1,0-0.2-0.1-0.3c-0.1-0.1-0.1-0.1-0.2-0.2
				l-2.7-2.2v-0.5v-1.6v-1h-3.2l0.5,1.3l-0.5,1.3h2.3v0.5l-2.6,2.2c-0.1,0-0.2,0.1-0.2,0.2c-0.1,0.1-0.1,0.2-0.1,0.3
				c0,0.1,0,0.1,0,0.2c0,0,0,0.1,0.1,0.1l0.6,1.3c0,0,0,0.1,0.1,0.1v3.3h-0.7c-0.3,0-0.5,0.2-0.5,0.5v1.8c0,0,0,0,0,0
				c0,0,0,0.1,0,0.1c0,0,0,0,0,0c0,0,0,0.1,0,0.1c0,0,0,0,0,0c0,0,0,0,0,0l0.7,1.3l-0.4,4.9c-0.2,0-0.4,0.1-0.5,0.2
				c-0.2,0.1-0.3,0.1-0.6,0.1c-0.3,0-0.4-0.1-0.6-0.1c-0.2-0.1-0.5-0.2-1-0.2c-0.5,0-0.7,0.1-1,0.2c-0.2,0.1-0.3,0.1-0.6,0.1
				c-0.3,0-0.4-0.1-0.6-0.1c-0.2-0.1-0.5-0.2-1-0.2c-0.3,0-0.5,0.2-0.5,0.5c0,0.3,0.2,0.5,0.5,0.5c0.3,0,0.4,0.1,0.6,0.1
				c0.2,0.1,0.5,0.2,1,0.2c0.5,0,0.7-0.1,1-0.2c0.2-0.1,0.3-0.1,0.6-0.1c0.3,0,0.4,0.1,0.6,0.1c0.2,0.1,0.5,0.2,1,0.2s0.7-0.1,1-0.2
				c0,0,0.1,0,0.1,0l-0.5,6.6H8.4c-0.2,0-0.4,0.2-0.5,0.4l-0.4,2c0,0.1,0,0.3,0.1,0.4c0.1,0.1,0.2,0.2,0.4,0.2h16
				c0.1,0,0.3-0.1,0.4-0.2c0.1-0.1,0.1-0.3,0.1-0.4l-0.4-2c0-0.2-0.2-0.4-0.5-0.4h-3.4l-0.5-6.6c0,0,0.1,0,0.1,0
				c0.2,0.1,0.5,0.2,1,0.2c0.5,0,0.7-0.1,1-0.2c0.2-0.1,0.3-0.1,0.6-0.1c0.3,0,0.4,0.1,0.6,0.1c0.2,0.1,0.5,0.2,1,0.2
				c0.5,0,0.7-0.1,1-0.2c0.2-0.1,0.3-0.1,0.6-0.1c0.3,0,0.5-0.2,0.5-0.5C25.9,101,25.7,100.8,25.5,100.8z M14.6,83l0.1-0.3l-0.1-0.4
				h0.9v0.1V83H14.6z M16.7,108.5h-1.3V106c0-0.1,0.3-0.4,0.7-0.6c0.4,0.2,0.7,0.5,0.7,0.6V108.5z M17.6,108.5V106
				c0-0.8-1.2-1.4-1.4-1.6c-0.1-0.1-0.3-0.1-0.4,0c-0.2,0.1-1.4,0.7-1.4,1.6v2.5h-1.6l0.5-6.7l0.1-0.9l0.3-4.6h4.6l0.3,4.6l0.1,0.9
				l0.5,6.7H17.6z M15.3,93h1.5v0.9h-1.5V93z M14.8,94.9h2.4h1.5l-0.3,0.5h-4.9l-0.3-0.5H14.8z M19,93v0.9h-1.3V93h0.6H19z
				 M18.3,87.6l-0.2,0.5h-4.1l-0.2-0.5H18.3z M16,85.3l1.7,1.4h-3.3L16,85.3z M14.2,89h3.6v3.1h-0.6h-2.4h-0.6V89z M13,93h0.7h0.6
				v0.9H13V93z M23.4,110.4H8.6l0.2-1h3.5h2.6h2.2h2.6h3.5L23.4,110.4z"/>
			<path id="XMLID_1634_" fill="#FFFFFF" d="M16,91.8c0.7,0,1.3-0.6,1.3-1.3c0-0.7-0.6-1.3-1.3-1.3c-0.7,0-1.3,0.6-1.3,1.3
				C14.7,91.3,15.3,91.8,16,91.8z M16,90.2c0.2,0,0.3,0.1,0.3,0.3c0,0.2-0.1,0.3-0.3,0.3c-0.2,0-0.3-0.1-0.3-0.3
				C15.7,90.4,15.8,90.2,16,90.2z"/>
			<path id="XMLID_1633_" fill="#FFFFFF" d="M16,101.3c-0.3,0-0.6,0.2-0.7,0.6c0,0,0,0.1,0,0.1v0.7h1.4V102c0,0,0-0.1,0-0.1
				C16.6,101.6,16.3,101.3,16,101.3z"/>
			<path id="XMLID_1632_" fill="#FFFFFF" d="M16.5,98.6c0-0.3-0.3-0.5-0.5-0.5c-0.3,0-0.5,0.2-0.5,0.5v0.5h1.1V98.6z"/>
		</g>
		<g id="XMLID_1799_">
			<path id="XMLID_1805_" fill="#1D70AD" d="M25.5,140.8c-0.5,0-0.7,0.1-1,0.2c-0.2,0.1-0.3,0.1-0.6,0.1s-0.4-0.1-0.6-0.1
				c-0.2-0.1-0.5-0.2-1-0.2c-0.5,0-0.7,0.1-1,0.2c-0.2,0.1-0.3,0.1-0.6,0.1c-0.3,0-0.4-0.1-0.6-0.1c-0.1-0.1-0.3-0.1-0.5-0.2
				l-0.4-4.9l0.7-1.3c0,0,0,0,0,0c0,0,0,0,0,0c0,0,0,0,0-0.1c0,0,0,0,0,0c0,0,0-0.1,0-0.1c0,0,0,0,0,0v-1.8c0-0.3-0.2-0.5-0.5-0.5
				h-0.7v-3.3c0,0,0-0.1,0.1-0.1l0.6-1.3c0,0,0-0.1,0.1-0.1c0-0.1,0-0.1,0-0.2c0-0.1,0-0.2-0.1-0.3c-0.1-0.1-0.1-0.1-0.2-0.2
				l-2.7-2.2v-0.5v-1.6v-1h-3.2l0.5,1.3l-0.5,1.3h2.3v0.5l-2.6,2.2c-0.1,0-0.2,0.1-0.2,0.2c-0.1,0.1-0.1,0.2-0.1,0.3
				c0,0.1,0,0.1,0,0.2c0,0,0,0.1,0.1,0.1l0.6,1.3c0,0,0,0.1,0.1,0.1v3.3h-0.7c-0.3,0-0.5,0.2-0.5,0.5v1.8c0,0,0,0,0,0
				c0,0,0,0.1,0,0.1c0,0,0,0,0,0c0,0,0,0.1,0,0.1c0,0,0,0,0,0c0,0,0,0,0,0l0.7,1.3l-0.4,4.9c-0.2,0-0.4,0.1-0.5,0.2
				c-0.2,0.1-0.3,0.1-0.6,0.1c-0.3,0-0.4-0.1-0.6-0.1c-0.2-0.1-0.5-0.2-1-0.2c-0.5,0-0.7,0.1-1,0.2c-0.2,0.1-0.3,0.1-0.6,0.1
				c-0.3,0-0.4-0.1-0.6-0.1c-0.2-0.1-0.5-0.2-1-0.2c-0.3,0-0.5,0.2-0.5,0.5c0,0.3,0.2,0.5,0.5,0.5c0.3,0,0.4,0.1,0.6,0.1
				c0.2,0.1,0.5,0.2,1,0.2c0.5,0,0.7-0.1,1-0.2c0.2-0.1,0.3-0.1,0.6-0.1c0.3,0,0.4,0.1,0.6,0.1c0.2,0.1,0.5,0.2,1,0.2s0.7-0.1,1-0.2
				c0,0,0.1,0,0.1,0l-0.5,6.6H8.4c-0.2,0-0.4,0.2-0.5,0.4l-0.4,2c0,0.1,0,0.3,0.1,0.4c0.1,0.1,0.2,0.2,0.4,0.2h16
				c0.1,0,0.3-0.1,0.4-0.2c0.1-0.1,0.1-0.3,0.1-0.4l-0.4-2c0-0.2-0.2-0.4-0.5-0.4h-3.4l-0.5-6.6c0,0,0.1,0,0.1,0
				c0.2,0.1,0.5,0.2,1,0.2c0.5,0,0.7-0.1,1-0.2c0.2-0.1,0.3-0.1,0.6-0.1c0.3,0,0.4,0.1,0.6,0.1c0.2,0.1,0.5,0.2,1,0.2
				c0.5,0,0.7-0.1,1-0.2c0.2-0.1,0.3-0.1,0.6-0.1c0.3,0,0.5-0.2,0.5-0.5C25.9,141,25.7,140.8,25.5,140.8z M14.6,123l0.1-0.3
				l-0.1-0.4h0.9v0.1v0.6H14.6z M16.7,148.5h-1.3V146c0-0.1,0.3-0.4,0.7-0.6c0.4,0.2,0.7,0.5,0.7,0.6V148.5z M17.6,148.5V146
				c0-0.8-1.2-1.4-1.4-1.6c-0.1-0.1-0.3-0.1-0.4,0c-0.2,0.1-1.4,0.7-1.4,1.6v2.5h-1.6l0.5-6.7l0.1-0.9l0.3-4.6h4.6l0.3,4.6l0.1,0.9
				l0.5,6.7H17.6z M15.3,133h1.5v0.9h-1.5V133z M14.8,134.9h2.4h1.5l-0.3,0.5h-4.9l-0.3-0.5H14.8z M19,133v0.9h-1.3V133h0.6H19z
				 M18.3,127.6l-0.2,0.5h-4.1l-0.2-0.5H18.3z M16,125.3l1.7,1.4h-3.3L16,125.3z M14.2,129h3.6v3.1h-0.6h-2.4h-0.6V129z M13,133h0.7
				h0.6v0.9H13V133z M23.4,150.4H8.6l0.2-1h3.5h2.6h2.2h2.6h3.5L23.4,150.4z"/>
			<path id="XMLID_1802_" fill="#1D70AD" d="M16,131.8c0.7,0,1.3-0.6,1.3-1.3s-0.6-1.3-1.3-1.3c-0.7,0-1.3,0.6-1.3,1.3
				S15.3,131.8,16,131.8z M16,130.2c0.2,0,0.3,0.1,0.3,0.3c0,0.2-0.1,0.3-0.3,0.3c-0.2,0-0.3-0.1-0.3-0.3
				C15.7,130.4,15.8,130.2,16,130.2z"/>
			<path id="XMLID_1801_" fill="#1D70AD" d="M16,141.3c-0.3,0-0.6,0.2-0.7,0.6c0,0,0,0.1,0,0.1v0.7h1.4V142c0,0,0-0.1,0-0.1
				C16.6,141.6,16.3,141.3,16,141.3z"/>
			<path id="XMLID_1800_" fill="#1D70AD" d="M16.5,138.6c0-0.3-0.3-0.5-0.5-0.5c-0.3,0-0.5,0.2-0.5,0.5v0.5h1.1V138.6z"/>
		</g>
</svg>
