<svg width="32" height="232" viewBox="0 0 32 232" xmlns="http://www.w3.org/2000/svg"><g fill="none"><path d="M5.93 142.977h2.435c.276 0 .5-.228.5-.508v-2.17c0-.99-1.23-1.72-1.478-1.86-.15-.09-.33-.09-.48 0-.247.14-1.476.87-1.476 1.85v2.16c0 .28.23.51.5.51zm.5-2.67c0-.206.344-.555.718-.814.375.26.718.608.718.815v1.653H6.43v-1.65zm-.5 7.622h2.435c.276 0 .5-.23.5-.51v-2.16c0-.99-1.23-1.72-1.478-1.86-.15-.09-.33-.09-.48 0-.247.13-1.476.87-1.476 1.85v2.16c0 .28.23.51.5.51zm.5-2.67c0-.21.344-.56.718-.82.375.26.718.61.718.81v1.65H6.43v-1.66zm-3.503-2.29H4.3c.277 0 .5-.23.5-.51v-2.16c0-.92-.752-1.69-.838-1.78-.194-.2-.502-.2-.696 0-.086.08-.838.85-.838 1.77v2.16c0 .28.223.51.5.51zm.5-2.67c0-.2.082-.4.187-.58.104.18.188.39.188.58v1.65h-.376v-1.65zm-.5 7.62H4.3c.277 0 .5-.23.5-.51v-2.16c0-.92-.752-1.69-.838-1.78-.194-.19-.502-.19-.696 0-.086.08-.838.85-.838 1.77v2.16c0 .28.223.51.5.51zm.5-2.67c0-.2.082-.4.187-.59.104.18.188.39.188.58v1.65h-.376v-1.66zm20.042-2.29h2.43c.27 0 .5-.23.5-.51v-2.16c0-.99-1.23-1.72-1.48-1.86-.15-.08-.33-.08-.48 0-.25.14-1.48.87-1.48 1.86v2.16c0 .28.22.51.5.51zm.49-2.67c0-.21.34-.56.72-.82.37.26.72.61.72.81v1.65h-1.44v-1.65zm-.5 7.62h2.44c.27 0 .5-.23.5-.51v-2.16c0-.99-1.23-1.72-1.48-1.86-.15-.09-.33-.09-.48 0-.25.13-1.48.87-1.48 1.85v2.16c0 .28.22.51.5.51zm.5-2.67c0-.21.34-.56.72-.82.35.24.72.6.72.81v1.65h-1.44v-1.66zm3.56-2.29h1.38c.27 0 .5-.23.5-.51v-2.16c0-.92-.76-1.69-.84-1.78-.2-.19-.5-.19-.7 0-.09.08-.84.85-.84 1.77v2.16c0 .28.22.51.5.51zm.5-2.67c0-.2.08-.4.18-.58.1.18.18.39.18.58v1.65H28v-1.65zm-.5 7.62h1.38c.27 0 .5-.23.5-.51v-2.16c0-.92-.76-1.69-.84-1.78-.2-.2-.5-.2-.7 0-.09.08-.84.85-.84 1.77v2.16c0 .28.22.51.5.51zm3.43-17.45c-.55 0-1 .46-1 1.02v5.2h-.44v-2.58c0-.28-.23-.51-.5-.51-.28 0-.5.22-.5.5v2.59h-1.59c.21-.33.37-.75.37-1.29 0-1.23-.88-1.92-1.59-2.48-.31-.25-.6-.48-.78-.72v-.8c.1-.12.16-.27.16-.448 0-.37-.3-.676-.67-.676-.37 0-.67.302-.67.676 0 .177.06.33.16.45v.8c-.18.24-.48.47-.78.717-.17.13-.34.263-.51.413.01-.18.02-.36.02-.556 0-2.86-2.08-4.5-3.75-5.814-.86-.675-1.67-1.314-2.09-2-.06-.1-.13-.186-.22-.26l-.15-.11v-1.74c.24-.166.4-.446.4-.76 0-.51-.4-.92-.9-.92s-.9.41-.9.916c0 .317.16.597.406.76v1.737l-.026.014c-.15.097-.27.226-.35.374-.423.68-1.23 1.316-2.08 1.99-1.67 1.316-3.74 2.96-3.74 5.816 0 .19.01.38.027.56-.17-.15-.34-.28-.502-.41-.3-.248-.6-.48-.78-.71v-.8c.1-.12.17-.28.17-.45 0-.377-.3-.68-.666-.68-.37 0-.67.303-.67.68 0 .17.062.33.166.45v.8c-.18.232-.47.47-.78.71-.71.56-1.59 1.25-1.59 2.48 0 .533.16.96.37 1.29H3.43v-2.59c0-.28-.224-.51-.5-.51s-.5.23-.5.51v2.59H2v-5.2c0-.56-.447-1.02-.998-1.02-.552 0-.998.45-.998 1.01v18.31c0 .56.447 1.015.998 1.015l9.75.004h5.326l14.885.01c.264 0 .518-.108.706-.3.18-.19.29-.45.29-.72v-18.3c0-.56-.45-1.01-1-1.01zm-2.93 14.77c0-.2.08-.4.18-.59.1.18.18.39.18.58v1.65H28v-1.66zm-21.17-11.5c.23-.18.46-.37.67-.57.2.2.44.39.66.57.64.51 1.2.95 1.2 1.68 0 .75-.54 1.13-.74 1.25H6.39c-.207-.12-.74-.51-.74-1.25s.558-1.18 1.203-1.69zm16.91 0c.23-.18.46-.37.66-.57.2.2.44.39.66.57.64.51 1.2.95 1.2 1.68 0 .75-.54 1.13-.74 1.25H23.3c-.207-.12-.74-.51-.74-1.25s.558-1.18 1.203-1.69zm-12 3.99v-.78h8.42v11.84h-.7v-7.12c0-1.52-1.46-2.9-2.42-3.64l-.42-.31-.41-.27c-.15-.1-.35-.1-.51 0l-.41.27-.42.31c-.96.74-2.42 2.11-2.42 3.63v7.11h-.7V137.7zm4.21 5.84c-.4 0-.74.32-.76.73v4.43h-1.75v-5.69c0-.88 1.46-1.96 2.51-2.53.27.14.74.42 1.21.78.84.64 1.31 1.26 1.31 1.74v5.69h-1.75v-4.43c-.01-.41-.35-.74-.76-.74zm.22-4.08c-.14-.07-.3-.07-.43 0-.19.09-1.24.63-2.1 1.43.45-1 1.62-1.95 2.33-2.43.7.47 1.88 1.43 2.33 2.42-.87-.79-1.92-1.33-2.11-1.43zm13.77 9.3l-7.78-.01V137.7h7.78v11.07zM9.78 137.72v11.06H2.003v-11.06h7.78zm14.66-7.09c.15 0 .273.1.316.236-.086-.072-.195-.116-.315-.116s-.22.044-.31.117c.05-.138.17-.238.32-.238zm-8.457-8.635c.054 0 .098.045.098.1 0 .055-.04.1-.09.1s-.1-.045-.1-.1c0-.055.05-.1.1-.1zm-1.73 6.58c.597-.473 1.207-.956 1.73-1.492.523.536 1.133 1.02 1.73 1.49 1.528 1.21 2.97 2.35 2.97 4.213 0 .913-.308 1.61-.69 2.124h-8.02c-.38-.514-.69-1.21-.69-2.124 0-1.864 1.442-3.004 2.97-4.212zm-6.728 2.056c.148 0 .273.1.315.24-.086-.07-.195-.11-.315-.11s-.23.05-.315.12c.043-.13.167-.23.315-.23zm.167-5.12c.276 0 .5-.23.5-.51s-.224-.5-.5-.5-.5.23-.5.51.224.51.5.51m13.56-.96l.415.23.227.43c.087.17.255.27.438.27.182 0 .35-.1.438-.26l.227-.42.415-.23c.16-.09.26-.26.26-.44s-.1-.36-.26-.45l-.415-.23-.227-.42c-.087-.16-.255-.26-.438-.26-.182 0-.35.1-.438.26l-.227.43-.415.23c-.16.09-.26.26-.26.45s.1.36.26.45m5.435 2.59l.024.03c.1.095.22.15.36.15.11 0 .21-.03.3-.1.12-.09.19-.22.2-.37.01-.11-.02-.22-.08-.313l-.04-.053-.02-.03c-.09-.093-.22-.15-.35-.15-.1 0-.21.04-.3.104-.11.083-.18.22-.2.37 0 .11.03.22.09.31l.04.06" fill="#206FAC"/><path d="M5.93 102.977h2.435c.276 0 .5-.228.5-.508v-2.17c0-.99-1.23-1.72-1.478-1.86-.15-.09-.33-.09-.48 0-.247.14-1.476.87-1.476 1.85v2.16c0 .28.23.51.5.51zm.5-2.67c0-.206.344-.555.718-.814.375.26.718.608.718.815v1.653H6.43v-1.65zm-.5 7.622h2.435c.276 0 .5-.23.5-.51v-2.16c0-.99-1.23-1.72-1.478-1.86-.15-.09-.33-.09-.48 0-.247.13-1.476.87-1.476 1.85v2.16c0 .28.23.51.5.51zm.5-2.67c0-.21.344-.56.718-.82.375.26.718.61.718.81v1.65H6.43v-1.66zm-3.503-2.29H4.3c.277 0 .5-.23.5-.51v-2.16c0-.92-.752-1.69-.838-1.78-.194-.2-.502-.2-.696 0-.086.08-.838.85-.838 1.77v2.16c0 .28.223.51.5.51zm.5-2.67c0-.2.082-.4.187-.58.104.18.188.39.188.58v1.65h-.376v-1.65zm-.5 7.62H4.3c.277 0 .5-.23.5-.51v-2.16c0-.92-.752-1.69-.838-1.78-.194-.19-.502-.19-.696 0-.086.08-.838.85-.838 1.77v2.16c0 .28.223.51.5.51zm.5-2.67c0-.2.082-.4.187-.59.104.18.188.39.188.58v1.65h-.376v-1.66zm20.042-2.29h2.43c.27 0 .5-.23.5-.51v-2.16c0-.99-1.23-1.72-1.48-1.86-.15-.08-.33-.08-.48 0-.25.14-1.48.87-1.48 1.86v2.16c0 .28.22.51.5.51zm.49-2.67c0-.21.34-.56.72-.82.37.26.72.61.72.81v1.65h-1.44v-1.65zm-.5 7.62h2.44c.27 0 .5-.23.5-.51v-2.16c0-.99-1.23-1.72-1.48-1.86-.15-.09-.33-.09-.48 0-.25.13-1.48.87-1.48 1.85v2.16c0 .28.22.51.5.51zm.5-2.67c0-.21.34-.56.72-.82.35.24.72.6.72.81v1.65h-1.44v-1.66zm3.56-2.29h1.38c.27 0 .5-.23.5-.51v-2.16c0-.92-.76-1.69-.84-1.78-.2-.19-.5-.19-.7 0-.09.08-.84.85-.84 1.77v2.16c0 .28.22.51.5.51zm.5-2.67c0-.2.08-.4.18-.58.1.18.18.39.18.58v1.65H28v-1.65zm-.5 7.62h1.38c.27 0 .5-.23.5-.51v-2.16c0-.92-.76-1.69-.84-1.78-.2-.2-.5-.2-.7 0-.09.08-.84.85-.84 1.77v2.16c0 .28.22.51.5.51zm3.43-17.45c-.55 0-1 .46-1 1.02v5.2h-.44V94.1c0-.28-.23-.506-.5-.506-.28 0-.5.228-.5.508v2.59h-1.59c.21-.33.37-.75.37-1.29 0-1.23-.88-1.923-1.59-2.482-.31-.243-.6-.475-.78-.712v-.8c.1-.12.16-.273.16-.444 0-.374-.3-.678-.67-.678-.37 0-.67.302-.67.676 0 .17.06.325.16.445v.8c-.18.24-.48.47-.78.712-.17.13-.34.26-.51.41.01-.18.02-.37.02-.56 0-2.86-2.08-4.5-3.75-5.82-.86-.68-1.67-1.32-2.09-2-.06-.1-.13-.19-.22-.26l-.15-.11v-1.74c.24-.17.4-.45.4-.76 0-.51-.4-.92-.9-.92s-.9.41-.9.91c0 .31.16.59.406.76v1.73l-.026.01c-.15.09-.27.22-.35.37-.423.68-1.23 1.32-2.08 1.99-1.67 1.32-3.74 2.96-3.74 5.82 0 .19.01.37.027.55-.17-.15-.34-.29-.502-.42-.3-.25-.6-.48-.78-.72v-.8c.1-.12.17-.277.17-.45 0-.37-.3-.676-.666-.676-.37 0-.67.3-.67.68 0 .17.062.33.166.45v.79c-.18.24-.47.47-.78.715-.71.56-1.59 1.25-1.59 2.48 0 .54.16.97.37 1.297H3.43V94.1c0-.28-.224-.51-.5-.51s-.5.23-.5.51v2.59H2v-5.2c0-.56-.447-1.016-.998-1.016-.552 0-.998.45-.998 1.01v18.29c0 .56.447 1.015.998 1.015h29.96c.265 0 .52-.11.707-.3.18-.19.29-.45.29-.72V91.5c0-.56-.45-1.014-1-1.014zm-2.93 14.77c0-.2.08-.4.18-.59.1.18.18.39.18.58v1.65H28v-1.66zM6.85 93.73c.23-.18.46-.368.67-.57.207.203.44.387.67.567.65.51 1.203.95 1.203 1.682 0 .75-.534 1.13-.738 1.25h-2.26c-.208-.13-.74-.51-.74-1.25s.557-1.18 1.202-1.69zm16.917 0c.23-.18.46-.368.663-.57.202.203.44.387.663.567.646.51 1.203.95 1.203 1.682 0 .75-.535 1.13-.74 1.25H23.3c-.207-.13-.74-.51-.74-1.25s.558-1.18 1.203-1.69zm-12 3.99v-.78h8.41v11.84h-.7v-7.115c0-1.52-1.46-2.895-2.424-3.64l-.42-.308-.407-.27c-.158-.095-.354-.095-.51 0l-.41.27-.422.31c-.967.742-2.425 2.116-2.425 3.637v7.114h-.7V97.723zm4.205 5.84c-.406 0-.74.325-.76.735v4.428H13.47v-5.69c0-.874 1.457-1.96 2.508-2.528.27.146.74.423 1.21.782.84.64 1.306 1.26 1.306 1.744v5.69h-1.75v-4.42c-.017-.41-.35-.73-.76-.73zm.22-4.08c-.14-.07-.3-.07-.437 0-.194.092-1.246.632-2.11 1.43.45-.996 1.626-1.95 2.33-2.425.704.473 1.88 1.428 2.33 2.424-.86-.8-1.917-1.34-2.11-1.44zm13.764 9.304l-7.78-.01V97.72h7.78v11.067zM9.78 97.72v11.06H2.003V97.72h7.78zm14.66-7.09c.15 0 .273.1.316.236-.086-.072-.195-.116-.315-.116s-.22.044-.31.117c.05-.138.17-.238.32-.238zm-8.457-8.635c.054 0 .098.045.098.1 0 .055-.04.1-.09.1s-.1-.045-.1-.1c0-.055.05-.1.1-.1zm-1.73 6.58c.597-.473 1.207-.956 1.73-1.492.523.536 1.133 1.02 1.73 1.49 1.528 1.21 2.97 2.35 2.97 4.213 0 .913-.308 1.61-.69 2.124h-8.02c-.38-.514-.69-1.21-.69-2.124 0-1.864 1.442-3.004 2.97-4.212zM7.525 90.63c.148 0 .273.1.315.238-.086-.072-.195-.117-.315-.117s-.23.05-.315.12c.043-.13.167-.23.315-.23zm.167-5.12c.276 0 .5-.23.5-.51s-.224-.507-.5-.507-.5.228-.5.51c0 .28.224.507.5.507m13.56-.962l.415.23.227.424c.087.163.255.264.438.264.182 0 .35-.1.438-.264l.227-.423.415-.23c.16-.09.26-.26.26-.45s-.1-.36-.26-.45l-.415-.24-.227-.42c-.087-.17-.255-.27-.438-.27-.182 0-.35.1-.438.26l-.227.42-.415.23c-.16.09-.26.26-.26.44s.1.36.26.45m5.435 2.59l.024.02c.1.09.22.15.36.15.11 0 .21-.03.3-.1.12-.09.19-.22.2-.37.01-.11-.02-.23-.08-.32l-.04-.056-.02-.03c-.09-.09-.22-.15-.35-.15-.1 0-.21.04-.3.11-.11.09-.18.223-.2.37 0 .113.03.224.09.316l.04.056" fill="#fff"/><path d="M5.93 62.977h2.435c.276 0 .5-.228.5-.508V60.3c0-.983-1.23-1.72-1.478-1.857-.15-.083-.33-.083-.48 0-.247.14-1.476.874-1.476 1.857v2.16c0 .28.23.51.5.51zm.5-2.67c0-.206.344-.555.718-.814.375.26.718.608.718.815v1.653H6.43v-1.65zm-.5 7.622h2.435c.276 0 .5-.23.5-.51v-2.16c0-.99-1.23-1.72-1.478-1.86-.15-.09-.33-.09-.48 0-.247.13-1.476.87-1.476 1.85v2.16c0 .28.23.51.5.51zm.5-2.67c0-.21.344-.56.718-.82.375.26.718.61.718.81v1.65H6.43v-1.65zm-3.503-2.29H4.3c.277 0 .5-.23.5-.51V60.3c0-.92-.752-1.69-.838-1.776-.194-.193-.502-.193-.696 0-.086.083-.838.854-.838 1.775v2.16c0 .28.223.51.5.51zm.5-2.67c0-.2.082-.4.187-.59.104.18.188.39.188.58v1.65h-.376V60.3zm-.5 7.62H4.3c.277 0 .5-.23.5-.51v-2.16c0-.92-.752-1.69-.838-1.78-.194-.19-.502-.19-.696 0-.086.08-.838.85-.838 1.77v2.16c0 .28.223.51.5.51zm.5-2.67c0-.2.082-.4.187-.59.104.18.188.39.188.58v1.66h-.376v-1.65zm20.043-2.28h2.43c.274 0 .5-.23.5-.51V60.3c0-.982-1.23-1.72-1.48-1.856-.15-.082-.33-.082-.48 0-.247.14-1.476.875-1.476 1.858v2.16c0 .28.223.51.5.51zm.493-2.67c0-.21.344-.56.718-.82.38.26.72.61.72.81v1.65h-1.43V60.3zm-.5 7.62H25.9c.277 0 .5-.23.5-.51v-2.16c0-.99-1.23-1.72-1.477-1.86-.15-.09-.33-.09-.48 0-.247.13-1.476.87-1.476 1.85v2.16c0 .28.223.51.5.51zm.5-2.67c0-.21.343-.56.718-.82.36.24.72.6.72.81v1.66h-1.43v-1.65zm3.565-2.29h1.374c.276 0 .5-.23.5-.51V60.3c0-.92-.754-1.69-.84-1.775-.193-.192-.5-.192-.695 0-.086.084-.838.855-.838 1.776v2.16c0 .28.22.51.5.51zm.5-2.67c0-.2.082-.4.187-.58.103.18.187.39.187.58v1.65h-.376V60.3zm-.5 7.62h1.374c.276 0 .5-.23.5-.51v-2.16c0-.92-.754-1.69-.84-1.78-.193-.2-.5-.2-.695 0-.086.08-.838.85-.838 1.77v2.16c0 .28.22.51.5.51zm3.43-17.45c-.55 0-.998.46-.998 1.02v5.2h-.437V54.1c0-.28-.224-.505-.5-.505-.275 0-.498.23-.498.51v2.59h-1.59c.21-.33.367-.75.367-1.29 0-1.23-.88-1.926-1.588-2.485-.308-.245-.6-.477-.78-.714v-.8c.1-.12.165-.272.165-.443 0-.373-.3-.677-.67-.677-.37 0-.67.304-.67.678 0 .17.06.327.16.447v.8c-.18.24-.47.47-.78.72-.17.13-.34.27-.51.42.01-.18.02-.36.02-.56 0-2.86-2.08-4.5-3.75-5.81-.86-.67-1.67-1.31-2.09-2-.06-.1-.13-.18-.22-.26l-.16-.11v-1.74c.24-.16.4-.44.4-.76 0-.5-.4-.92-.9-.92s-.9.41-.9.92c0 .32.16.6.4.77v1.73l-.03.02c-.15.096-.27.22-.35.37-.43.68-1.23 1.32-2.08 1.99-1.67 1.32-3.75 2.96-3.75 5.82 0 .19.01.377.03.558-.17-.15-.34-.285-.503-.415-.305-.24-.6-.48-.78-.71v-.8c.1-.12.17-.28.17-.45 0-.38-.3-.68-.668-.68-.37 0-.67.3-.67.673 0 .17.06.32.17.44v.8c-.18.24-.47.47-.78.71-.71.56-1.59 1.26-1.59 2.49 0 .54.16.96.37 1.29H3.43v-2.58c0-.28-.224-.51-.5-.51s-.5.23-.5.51v2.588H2v-5.2c0-.56-.447-1.014-.998-1.014-.552 0-.998.45-.998 1.01v18.3c0 .56.447 1.02.998 1.02h29.96c.265 0 .52-.11.707-.3.18-.19.29-.45.29-.72V51.5c0-.56-.45-1.014-1-1.014zm-2.93 14.77c0-.2.082-.4.187-.59.103.18.187.39.187.58v1.66h-.376v-1.65zM6.856 53.73c.228-.18.46-.37.668-.57.206.2.44.386.667.566.65.51 1.21.95 1.21 1.683 0 .75-.53 1.13-.74 1.25H6.4c-.21-.12-.74-.51-.74-1.25s.556-1.18 1.2-1.69zm16.916 0c.228-.18.46-.37.667-.57.2.2.44.386.66.566.64.51 1.2.95 1.2 1.683 0 .75-.54 1.13-.74 1.25H23.3c-.207-.12-.74-.51-.74-1.25s.558-1.18 1.203-1.69zm-11.996 3.99v-.78h8.412v11.84h-.7v-7.11c0-1.52-1.46-2.895-2.425-3.64l-.422-.308-.4-.27c-.15-.094-.35-.094-.51 0l-.41.27-.42.31c-.96.743-2.42 2.117-2.42 3.638v7.114h-.7V57.722zm4.206 5.84c-.407 0-.74.324-.76.734v4.43h-1.748v-5.69c0-.873 1.456-1.96 2.507-2.53.27.15.74.426 1.21.785.84.64 1.31 1.26 1.31 1.74v5.69h-1.75V64.3c-.01-.41-.35-.737-.76-.737zm.22-4.08c-.14-.07-.3-.07-.438 0-.193.09-1.245.63-2.108 1.43.448-.997 1.625-1.95 2.328-2.426.704.476 1.88 1.43 2.328 2.427-.863-.79-1.917-1.33-2.11-1.43zm13.763 9.303l-7.78-.01V57.72h7.78v11.07zM9.78 57.72v11.06H2.003V57.72h7.78zm14.66-7.09c.15 0 .273.1.316.236-.086-.072-.195-.116-.315-.116s-.22.044-.31.117c.05-.138.17-.238.32-.238zm-8.457-8.635c.054 0 .098.045.098.1 0 .055-.04.1-.09.1s-.1-.045-.1-.1c0-.055.05-.1.1-.1zm-1.73 6.58c.597-.473 1.207-.956 1.73-1.492.523.536 1.133 1.02 1.73 1.49 1.528 1.21 2.97 2.35 2.97 4.213 0 .913-.308 1.61-.69 2.124h-8.02c-.38-.514-.69-1.21-.69-2.124 0-1.864 1.442-3.004 2.97-4.212zM7.525 50.63c.148 0 .273.1.315.238-.086-.072-.195-.117-.315-.117s-.23.05-.315.12c.043-.13.167-.23.315-.23zm.167-5.12c.276 0 .5-.23.5-.51s-.224-.507-.5-.507-.5.228-.5.51c0 .28.224.507.5.507m13.56-.962l.415.23.227.424c.087.163.255.264.438.264.182 0 .35-.1.438-.264l.227-.423.415-.23c.16-.09.26-.26.26-.45s-.1-.36-.26-.45l-.415-.24-.227-.42c-.087-.17-.255-.27-.438-.27-.182 0-.35.1-.438.26l-.227.42-.415.23c-.16.09-.26.26-.26.44s.1.36.26.45m5.435 2.59l.024.02c.1.09.22.15.36.15.11 0 .21-.03.3-.1.12-.09.19-.22.2-.37.01-.11-.02-.23-.08-.32l-.04-.056-.02-.03c-.09-.09-.22-.15-.35-.15-.1 0-.21.04-.3.11-.11.09-.18.223-.2.37 0 .113.03.224.09.316l.04.056" fill="#67737B"/><path d="M5.93 22.977h2.435c.276 0 .5-.228.5-.508V20.3c0-.983-1.23-1.72-1.478-1.857-.15-.083-.33-.083-.48 0-.247.14-1.476.874-1.476 1.857v2.16c0 .28.23.51.5.51zm.5-2.67c0-.206.344-.555.718-.814.375.26.718.608.718.815v1.653H6.43v-1.65zm-.5 7.622h2.435c.276 0 .5-.23.5-.51v-2.16c0-.99-1.23-1.72-1.478-1.86-.15-.09-.33-.09-.48 0-.247.13-1.476.87-1.476 1.85v2.16c0 .28.23.51.5.51zm.5-2.67c0-.21.344-.56.718-.82.375.26.718.61.718.81v1.65H6.43v-1.65zm-3.503-2.29H4.3c.277 0 .5-.23.5-.51V20.3c0-.92-.752-1.69-.838-1.776-.194-.193-.502-.193-.696 0-.086.083-.838.854-.838 1.775v2.16c0 .28.223.51.5.51zm.5-2.67c0-.2.082-.4.187-.59.104.18.188.39.188.58v1.65h-.376V20.3zm-.5 7.62H4.3c.277 0 .5-.23.5-.51v-2.16c0-.92-.752-1.69-.838-1.78-.194-.19-.502-.19-.696 0-.086.08-.838.85-.838 1.77v2.16c0 .28.223.51.5.51zm.5-2.67c0-.2.082-.4.187-.59.104.18.188.39.188.58v1.66h-.376v-1.65zm20.043-2.28h2.43c.274 0 .5-.23.5-.51V20.3c0-.982-1.23-1.72-1.48-1.856-.15-.082-.33-.082-.48 0-.247.14-1.476.875-1.476 1.858v2.16c0 .28.223.51.5.51zm.493-2.67c0-.21.344-.56.718-.82.38.26.72.61.72.81v1.65h-1.43V20.3zm-.5 7.62H25.9c.277 0 .5-.23.5-.51v-2.16c0-.99-1.23-1.72-1.477-1.86-.15-.09-.33-.09-.48 0-.247.13-1.476.87-1.476 1.85v2.16c0 .28.223.51.5.51zm.5-2.67c0-.21.343-.56.718-.82.36.24.72.6.72.81v1.66h-1.43v-1.65zm3.565-2.29h1.374c.276 0 .5-.23.5-.51V20.3c0-.92-.754-1.69-.84-1.775-.193-.192-.5-.192-.695 0-.086.084-.838.855-.838 1.776v2.16c0 .28.22.51.5.51zm.5-2.67c0-.2.082-.4.187-.58.103.18.187.39.187.58v1.65h-.376V20.3zm-.5 7.62h1.374c.276 0 .5-.23.5-.51v-2.16c0-.92-.754-1.69-.84-1.78-.193-.2-.5-.2-.695 0-.086.08-.838.85-.838 1.77v2.16c0 .28.22.51.5.51zm3.43-17.45c-.55 0-.998.46-.998 1.02v5.2h-.437V14.1c0-.28-.224-.505-.5-.505-.275 0-.498.23-.498.51v2.59h-1.59c.21-.33.367-.75.367-1.29 0-1.23-.88-1.926-1.588-2.485-.308-.245-.6-.477-.78-.714v-.8c.1-.12.165-.272.165-.443 0-.373-.3-.677-.67-.677-.37 0-.67.304-.67.678 0 .17.06.327.16.447v.8c-.18.24-.47.47-.78.72-.17.13-.34.27-.51.42.01-.18.02-.36.02-.56 0-2.86-2.08-4.5-3.75-5.81-.86-.67-1.67-1.31-2.09-2-.06-.1-.13-.18-.22-.26l-.16-.11V2.85c.24-.164.4-.444.4-.76 0-.506-.4-.918-.9-.918s-.9.41-.9.916c0 .317.16.597.4.762v1.73l-.03.015c-.15.096-.27.225-.35.373-.43.68-1.23 1.316-2.08 1.99-1.67 1.32-3.74 2.96-3.74 5.82 0 .192.01.376.02.557-.17-.15-.34-.283-.5-.413-.31-.243-.6-.475-.78-.712v-.8c.1-.12.166-.274.166-.446 0-.376-.3-.68-.66-.68-.364 0-.663.303-.663.677 0 .17.06.33.165.45v.8c-.18.24-.47.47-.78.72-.71.56-1.59 1.26-1.59 2.49 0 .54.16.97.37 1.29H3.43v-2.58c0-.28-.224-.51-.5-.51s-.5.23-.5.51v2.59H2v-5.21c0-.56-.447-1.01-.998-1.01-.552 0-.998.46-.998 1.02V29.8c0 .56.447 1.015.998 1.015l9.75.004h20.21c.265 0 .52-.11.707-.3.18-.19.29-.45.29-.72V11.5c0-.56-.45-1.014-1-1.014zm-2.93 14.77c0-.2.082-.4.187-.59.103.18.187.39.187.58v1.66h-.376v-1.65zM6.856 13.73c.228-.18.46-.37.668-.57.206.2.44.386.667.566.65.51 1.21.95 1.21 1.683 0 .75-.53 1.13-.74 1.25H6.4c-.21-.12-.74-.51-.74-1.25s.556-1.18 1.2-1.69zm16.916 0c.228-.18.46-.37.667-.57.2.2.44.386.66.566.64.51 1.2.95 1.2 1.683 0 .75-.54 1.13-.74 1.25H23.3c-.207-.12-.74-.51-.74-1.25s.558-1.18 1.203-1.69zm-11.996 3.99v-.78h8.412v11.84h-.7v-7.11c0-1.52-1.46-2.895-2.425-3.64l-.422-.308-.4-.27c-.15-.094-.35-.094-.51 0l-.41.27-.42.31c-.96.743-2.42 2.117-2.42 3.638v7.114h-.7V17.722zm4.206 5.84c-.407 0-.74.324-.76.734v4.43h-1.748v-5.69c0-.873 1.456-1.96 2.507-2.53.27.15.74.426 1.21.785.84.64 1.31 1.26 1.31 1.74v5.69h-1.75V24.3c-.01-.41-.35-.737-.76-.737zm.22-4.08c-.14-.07-.3-.07-.438 0-.193.09-1.245.63-2.108 1.43.448-.997 1.625-1.95 2.328-2.426.704.476 1.88 1.43 2.328 2.427-.863-.79-1.917-1.33-2.11-1.43zm13.763 9.303l-7.78-.01V17.72h7.78v11.07zM9.78 17.72v11.06H2.003V17.72h7.78zm14.66-7.09c.15 0 .273.1.316.236-.086-.072-.195-.116-.315-.116s-.22.044-.31.117c.05-.138.17-.238.32-.238zm-8.457-8.635c.054 0 .098.045.098.1 0 .055-.04.1-.09.1s-.1-.045-.1-.1c0-.055.05-.1.1-.1zm-1.73 6.58c.597-.473 1.207-.956 1.73-1.492.523.536 1.133 1.02 1.73 1.49 1.528 1.21 2.97 2.35 2.97 4.213 0 .913-.308 1.61-.69 2.124h-8.02c-.38-.514-.69-1.21-.69-2.124 0-1.864 1.442-3.004 2.97-4.212zM7.525 10.63c.148 0 .273.1.315.238-.086-.072-.195-.117-.315-.117s-.23.05-.315.12c.043-.13.167-.23.315-.23zm.167-5.12c.276 0 .5-.23.5-.51s-.224-.507-.5-.507-.5.228-.5.51c0 .28.224.507.5.507m13.56-.962l.415.23.227.424c.087.163.255.264.438.264.182 0 .35-.1.438-.264l.227-.423.415-.23c.16-.09.26-.26.26-.45s-.1-.36-.26-.45l-.415-.24L22.77 3c-.087-.162-.255-.263-.438-.263-.182 0-.35.1-.438.264l-.227.43-.415.23c-.16.09-.26.26-.26.45s.1.36.26.45m5.435 2.6l.024.03c.1.09.22.15.36.15.11 0 .21-.03.3-.1.12-.09.19-.22.2-.37.01-.11-.02-.22-.08-.32l-.04-.05-.02-.03c-.09-.09-.22-.15-.35-.15-.1 0-.21.04-.3.11-.11.09-.18.23-.2.37 0 .12.03.23.09.32l.04.05" fill="#3A434E"/></g></svg>