<svg width="32" height="232" viewBox="0 0 32 232" xmlns="http://www.w3.org/2000/svg"><g fill="none"><path d="M31.52 148.694c-.23 0-.352-.035-.48-.085.14-.26.176-.58.088-.86l-.767-2.55v-8.21h.06c.26 0 .47-.23.47-.52 0-.29-.21-.52-.47-.52h-.06v-4.28c0-.39-.18-.72-.47-.9v-1.08c0-.29-.21-.52-.47-.52h-6.55v-1.31c.09-.1.15-.23.15-.38v-1.44c0-.29-.1-.55-.25-.79h6.65c.26 0 .47-.23.47-.52 0-.29-.21-.52-.47-.52h-7.76l-.01-.01v-.97c0-.28-.21-.52-.47-.52s-.47.23-.47.515v.96l-.01.01h-4.01c-.26 0-.47.23-.47.52 0 .286.21.52.47.52h2.9c-.15.24-.25.5-.25.79v1.43c0 .144.06.28.15.37v.474H12.6v-.47c.092-.09.15-.225.15-.374v-1.434c0-.858-.885-1.53-1.37-1.837v-.96c0-.287-.21-.52-.47-.52s-.474.235-.474.52v.966c-.487.31-1.372.98-1.372 1.838v1.44c0 .143.056.28.145.37v1.3H2.6c-.26 0-.47.23-.47.52v1.08c-.283.18-.47.51-.47.897v4.27h-.02c-.26 0-.47.23-.47.517 0 .286.21.52.47.52h.02v8.21l-.768 2.54c-.064.22-.06.45.006.66-.113-.02-.242-.03-.395-.03-.26 0-.47.23-.47.52 0 .288.21.52.47.52.28 0 .4.05.568.12.2.09.46.2.91.2s.71-.11.91-.192c.17-.07.29-.12.57-.12.28 0 .4.05.56.12.2.087.45.194.91.194s.71-.106.91-.19c.16-.07.28-.12.56-.12s.4.05.57.124c.2.087.45.194.91.194s.71-.11.91-.2c.17-.07.29-.12.57-.12.28 0 .4.05.57.12.2.09.45.194.91.194s.71-.11.91-.196c.17-.07.29-.12.57-.12.28 0 .4.05.57.12.2.09.45.2.91.2s.71-.103.91-.19c.17-.07.29-.123.57-.123.28 0 .4.05.57.124.2.08.46.19.91.19.46 0 .71-.107.91-.19.17-.07.29-.12.57-.12.28 0 .4.05.57.12.2.09.45.196.91.196s.71-.11.91-.195c.17-.07.29-.12.57-.12.28 0 .4.05.57.13.2.09.45.196.91.196s.71-.11.91-.19c.17-.07.29-.123.57-.123.28 0 .4.05.57.12.2.09.46.196.91.196.46 0 .71-.11.91-.195.17-.07.29-.12.57-.12.28 0 .4.052.57.124.2.084.46.19.91.19.46 0 .71-.106.91-.19.17-.074.29-.125.57-.125.28 0 .4.05.57.125.2.09.45.198.91.198.26 0 .47-.23.47-.52 0-.29-.21-.52-.47-.52zm-13.352-12.136l.083.035.13.02c.13 0 .25-.053.34-.15l.01-.01c.14-.158.17-.394.08-.59l-.08-.124v-.01c-.12-.14-.3-.18-.46-.13l-.08.03c-.11.06-.19.17-.23.3-.04.13-.03.27.03.4.05.09.12.17.21.22zm5.183 1.884c.09.1.21.154.34.154.13 0 .25-.054.34-.15.09-.097.14-.23.14-.367 0-.14-.05-.27-.13-.37-.14-.16-.36-.2-.54-.1-.11.06-.19.17-.23.3-.04.13-.03.27.03.4l.09.13zm3.99.1c.07.036.14.054.22.054.13 0 .25-.054.34-.15.15-.157.18-.4.09-.6l-.09-.134c-.14-.154-.36-.194-.54-.098-.11.062-.2.17-.24.3-.04.13-.03.275.03.398.05.098.12.178.21.228zM4.9 138.08c0-.09-.018-.17-.052-.24l-.063-.107v-.002l-.023-.02c-.088-.09-.207-.15-.334-.15-.072 0-.144.02-.21.06-.136.08-.23.22-.255.38-.023.17.026.33.13.45.09.1.21.15.337.15.126 0 .245-.05.334-.15.09-.09.14-.23.14-.36zm3 .36c.087.1.21.15.335.15.125 0 .244-.053.333-.15.09-.096.14-.23.14-.366 0-.138-.05-.27-.137-.366-.14-.155-.36-.196-.54-.1-.11.063-.19.17-.23.3-.04.132-.03.276.03.4l.09.13zm5.524-1.887c.066.036.14.055.213.055.125 0 .244-.054.333-.15.145-.16.18-.4.09-.6-.08-.176-.244-.286-.422-.286-.072 0-.144.017-.21.053-.135.074-.23.215-.255.38-.025.165.025.332.133.45l.12.095zm-10.353-6.33H9.2v.423H3.062v-.424zm7.83-5.09c.21.132.4.276.54.415h-1.08c.15-.14.33-.283.54-.414zm-.9 1.45h1.8v.41H10v-.41zm.15 2.812v-1.316h1.51v3.44h-1.51v-2.13zm10.81-4.11h.45l.32.262h-1.08l.32-.264zm-.67 1.297h1.8v.41h-1.8v-.41zm.15 1.777v-.28h1.51v3.44h-1.51v-3.17zm8.51 18.67H3.08l.192-.64h25.465l.19.63zm-23.47-2.71v-3.78c0-.2.38-.61.9-.94.46.29.9.71.9.94v4.3h-1.8v-.52zm7.13-13.42h6.89v.61h-6.9v-.61zm10.28 1.28h6.08v1.25h-6.08v-1.25zm-10.14.36v.6c0 .28.21.51.47.51s.47-.23.47-.52v-.61h.2v.603c0 .29.21.52.47.52s.47-.233.47-.52v-.606H15v.605c0 .29.21.52.47.52s.47-.23.47-.52v-.606h.194v.602c0 .29.21.52.47.52.262 0 .472-.23.472-.52v-.6h.193v.6c0 .28.21.513.47.513s.47-.23.47-.516v-.61h.19v.6c0 .227.13.417.31.488l.15.03c.12 0 .23-.05.31-.135.09-.09.15-.23.15-.38v-.6h.12v1.39h-6.88v-1.395h.14zm-2.59.15v-.16h1.51v1.4h-1.51v-1.24zm2.45 2.43v-.16h6.89v9.86h-.62v-5.91c0-.2-.04-.4-.13-.6-.1-.22-.25-.45-.47-.67-.21-.22-.48-.44-.81-.66-.62-.41-1.23-.68-1.26-.69-.11-.05-.23-.05-.34 0-.02.01-.63.28-1.26.69-.95.63-1.41 1.26-1.41 1.92v5.91h-.57v-9.7zm1.51 9.18v-5.39c0-.34.78-1.05 1.91-1.57 1.13.52 1.91 1.23 1.91 1.56v5.91H14.1v-.52zm6.32-11.77h1.51v1.39h-1.51v-1.4zm1.51 2.58v9.7h-1.51V135h1.51v.153zM9.22 132.7v.73H3.06v-1.25h6.132v.52zm.943 11.61V135h1.506v9.855h-1.51v-.518zm14.59 0v-3.78c0-.192.37-.61.9-.94.45.29.9.71.9.94v4.3h-1.8v-.52zM19.49 129.7v.174H12.6v-.488h6.888v.31zm9 14.624h-1.01v-3.78c0-1.064-1.36-1.846-1.634-1.99-.13-.07-.284-.07-.414 0-.27.144-1.634.93-1.634 1.99v3.78h-.916v-7.34h5.606v7.34zm0-8.378h-5.61v-1.47h.06v.68c0 .285.21.517.47.517s.472-.234.472-.52v-.68h.19v.68c0 .285.21.517.47.517s.47-.232.47-.52v-.68h.2v.68c0 .287.21.52.47.52s.47-.23.47-.518v-.68h.194v.68c0 .284.21.52.47.52s.47-.236.47-.52v-.68h.194v.68c0 .28.21.513.47.513s.47-.23.47-.517v-.68h.06v1.47zm-5.604-5.73h6.08v.423h-6.08v-.43zm-19.34 4.925v-.66h.082v.68c0 .29.21.52.47.52s.473-.23.473-.52v-.68h.19v.68c0 .29.21.52.47.52s.47-.23.47-.52v-.68h.2v.68c0 .29.21.52.47.52s.48-.23.48-.51v-.68h.19v.68c0 .29.21.52.47.52s.47-.23.47-.51v-.68h.19v.68c0 .28.21.52.47.52s.47-.23.47-.51v-.68h.09v1.47H3.53v-.804zm0 1.85H9.2v7.34h-.99v-3.78c0-1.06-1.365-1.84-1.638-1.99-.13-.07-.282-.07-.412 0-.273.15-1.636.93-1.636 1.99v3.78H3.54v-7.34zm-.95-10.75H5.23c.26 0 .47-.23.47-.51s-.21-.52-.472-.52H2.59c-.26 0-.47.23-.47.52 0 .29.21.52.47.52m1.044-1.39h4.448c.26 0 .47-.23.47-.52 0-.28-.21-.52-.47-.52H3.634c-.26 0-.47.23-.47.51 0 .29.21.52.47.52m21.457.81c-.26 0-.47.23-.47.52 0 .28.21.51.47.51h2.64c.26 0 .47-.23.47-.51s-.21-.52-.47-.52h-2.64m-9.8-2.51h2.64c.26 0 .47-.23.47-.51 0-.283-.21-.514-.47-.514h-2.64c-.26 0-.47.23-.47.518 0 .29.21.52.47.52" fill="#206FAC"/><path d="M31.52 108.694c-.23 0-.352-.035-.48-.085.14-.26.176-.58.088-.86l-.767-2.55v-8.21h.06c.26 0 .47-.23.47-.52 0-.29-.21-.52-.47-.52h-.06v-4.27c0-.39-.18-.72-.47-.9V89.7c0-.285-.21-.517-.47-.517h-6.55v-1.3c.09-.095.15-.228.15-.375v-1.43c0-.287-.1-.55-.25-.79h6.65c.26 0 .47-.23.47-.518 0-.286-.21-.518-.47-.518h-7.76l-.01-.01v-.963c0-.29-.21-.52-.47-.52s-.47.23-.47.52v.96l-.01.01h-4.01c-.26 0-.47.23-.47.52 0 .28.21.51.47.51h2.9c-.15.24-.25.51-.25.79v1.44c0 .15.06.28.15.38v.47H12.6v-.47c.092-.1.15-.23.15-.38v-1.44c0-.86-.885-1.53-1.37-1.84v-.97c0-.29-.21-.52-.47-.52s-.474.23-.474.51v.96c-.487.3-1.372.98-1.372 1.83v1.43c0 .14.056.28.145.37v1.3H2.6c-.26 0-.47.23-.47.52v1.08c-.283.18-.47.51-.47.89v4.27h-.02c-.26 0-.47.23-.47.51 0 .29.21.52.47.52h.02v8.21l-.77 2.55c-.065.22-.06.45.005.66-.113-.02-.242-.03-.395-.03-.26 0-.47.23-.47.52 0 .288.21.52.47.52.28 0 .4.05.567.12.2.09.453.196.91.196s.71-.11.91-.196c.167-.07.288-.12.568-.12.28 0 .4.05.56.123.2.09.45.197.91.197s.71-.103.91-.19c.16-.07.28-.12.56-.12s.4.05.568.124c.2.086.45.193.91.193s.71-.11.91-.198c.167-.07.288-.12.568-.12.28 0 .4.05.57.12.2.09.45.19.91.19s.71-.11.91-.194c.17-.07.29-.12.57-.12.28 0 .4.05.57.123.2.09.45.195.91.195s.71-.11.91-.196c.17-.078.29-.13.57-.13.28 0 .4.05.57.125.2.09.46.19.91.19.46 0 .71-.1.91-.19.17-.07.29-.12.57-.12.28 0 .4.05.57.12.2.09.45.198.91.198s.71-.106.91-.19c.17-.074.29-.125.57-.125.28 0 .4.05.57.123.2.087.45.194.91.194s.71-.107.91-.19c.17-.07.29-.125.57-.125.28 0 .4.05.57.12.2.08.46.19.91.19.46 0 .71-.11.91-.19.17-.07.29-.12.57-.12.28 0 .4.05.57.12.2.09.45.19.91.19s.71-.1.91-.19c.17-.07.29-.12.57-.12.28 0 .4.05.57.12.2.09.45.194.91.194.26 0 .47-.23.47-.517 0-.29-.21-.52-.47-.52zM18.167 96.558l.083.035.13.02c.126 0 .246-.053.334-.15l.008-.01c.137-.158.17-.394.08-.59l-.08-.124-.007-.01c-.12-.14-.303-.18-.464-.13l-.08.03c-.11.06-.19.17-.23.3-.04.13-.03.27.03.4.05.09.12.17.21.22zm5.183 1.884c.09.1.21.154.337.154.125 0 .245-.054.333-.15.09-.097.14-.23.14-.367 0-.14-.05-.27-.138-.37-.14-.16-.367-.2-.545-.1-.113.06-.198.17-.238.3-.04.13-.03.27.02.4l.08.13zm3.99.1c.066.036.14.054.214.054.125 0 .244-.054.333-.15.144-.157.18-.4.09-.6l-.09-.134c-.138-.154-.365-.194-.543-.098-.113.062-.198.17-.238.3-.04.13-.03.275.027.398.045.098.118.178.207.228zM4.892 98.08c0-.085-.018-.166-.052-.238l-.064-.104v-.002l-.023-.027c-.087-.1-.206-.15-.333-.15-.073 0-.145.02-.21.05-.137.07-.232.21-.256.38-.024.16.025.33.13.45.088.1.21.15.336.15.125 0 .244-.06.333-.15.09-.1.14-.23.14-.37zm3 .362c.087.1.21.154.335.154.125 0 .244-.054.333-.15.09-.097.14-.23.14-.367 0-.14-.05-.27-.138-.37-.14-.16-.367-.2-.545-.1-.113.06-.198.17-.238.3-.04.13-.03.27.02.4l.08.13zm5.524-1.884c.066.036.14.055.213.055.12 0 .24-.054.33-.15.14-.16.18-.4.09-.6-.08-.176-.25-.286-.42-.286-.08 0-.15.017-.21.053-.14.075-.24.216-.26.38-.03.166.02.333.13.45l.12.096zM3.063 90.23h6.132v.423H3.063v-.424zm7.832-5.09c.21.132.394.276.54.415h-1.08c.146-.14.33-.283.54-.414zm-.9 1.45h1.8V87h-1.8v-.41zm.143 2.812v-1.315h1.507v3.447h-1.507v-2.132zm10.81-4.11h.443l.32.263h-1.08l.32-.263zm-.677 1.298h1.81V87h-1.8v-.41zm.15 1.777v-.28h1.51v3.447h-1.51v-3.167zm8.51 18.674H3.08l.192-.63h25.465l.19.64zm-23.47-2.7v-3.78c0-.19.38-.61.9-.94.46.29.9.71.9.94v4.3h-1.8v-.52zm7.13-13.41h6.89v.61h-6.89v-.61zm10.28 1.29h6.08v1.25h-6.08v-1.25zm-10.14.37v.61c0 .29.21.52.47.52s.47-.23.47-.52v-.6h.2v.61c0 .29.21.52.47.52s.47-.23.47-.52v-.61H15v.6c0 .29.21.52.47.52s.47-.23.47-.52v-.6h.194v.61c0 .29.21.52.47.52.262 0 .472-.23.472-.513v-.61h.193v.61c0 .285.21.52.47.52s.47-.235.47-.52v-.61h.19v.61c0 .226.13.416.31.487l.15.034c.12 0 .23-.052.31-.135.09-.1.15-.23.15-.387v-.61h.12V94h-6.88v-1.4h.14zm-2.59.16v-.15h1.51V94h-1.51v-1.24zm2.45 2.43V95h6.89v9.854h-.62v-5.908c0-.2-.04-.4-.13-.596-.1-.223-.25-.445-.47-.666-.21-.22-.48-.438-.81-.657-.62-.412-1.23-.678-1.26-.69-.11-.046-.23-.046-.34 0-.02.012-.64.278-1.26.69-.95.632-1.41 1.26-1.41 1.92v5.908h-.57v-9.702zm1.51 9.19v-5.39c0-.34.78-1.04 1.91-1.57 1.13.52 1.91 1.23 1.91 1.57v5.91H14.1v-.51zm6.32-11.77h1.51V94h-1.51v-1.4zm1.51 2.58v9.7h-1.51V95h1.51v.153zM9.2 92.73v.73H3.06v-1.25h6.132v.513zm.942 11.61V95h1.507v9.855h-1.51v-.518zm14.59 0v-3.78c0-.2.373-.61.9-.94.45.28.9.71.9.94v4.29h-1.8v-.516zm-5.257-14.63v.17h-6.887v-.48h6.887v.31zm9 14.62H27.47v-3.78c0-1.06-1.364-1.84-1.637-1.99-.13-.07-.283-.07-.413 0-.273.15-1.637.93-1.637 1.99v3.78h-.917v-7.34h5.607v7.34zm0-8.374h-5.607v-1.47h.057v.68c0 .284.21.516.47.516s.472-.23.472-.52v-.68h.193v.68c0 .28.21.51.47.51s.47-.23.47-.52v-.68h.192v.68c0 .28.21.51.47.51s.472-.23.472-.517v-.68h.193v.68c0 .284.21.516.47.516s.47-.23.47-.52v-.68h.19v.68c0 .29.21.52.47.52s.473-.23.473-.52v-.68h.064v1.47zm-5.607-5.73h6.08v.422h-6.08v-.425zM3.533 95.15v-.66h.082v.677c0 .28.21.51.47.51s.472-.23.472-.52v-.68h.193v.68c0 .28.21.51.47.51s.472-.23.472-.517v-.68h.193v.68c0 .284.21.516.47.516s.472-.23.472-.518v-.68h.193v.68c0 .284.21.516.47.516s.472-.23.472-.52v-.68h.193v.68c0 .286.21.518.47.518s.472-.23.472-.518v-.68h.092v1.47H3.52v-.807zm0 1.844h5.66v7.34h-.99v-3.78c0-1.06-1.365-1.843-1.638-1.99-.13-.07-.283-.07-.413 0-.273.147-1.636.93-1.636 1.99v3.78h-.982v-7.34zm-.943-10.75h2.633c.26 0 .472-.233.472-.52 0-.285-.21-.517-.472-.517H2.59c-.26 0-.47.232-.47.518 0 .286.21.518.47.518m1.044-1.398h4.448c.26 0 .47-.232.47-.518 0-.286-.21-.518-.47-.518H3.634c-.26 0-.47.23-.47.51s.21.52.47.52m21.457.81c-.26 0-.47.23-.47.52 0 .28.21.51.47.51h2.64c.26 0 .47-.24.47-.52 0-.29-.21-.52-.47-.52h-2.64m-9.8-2.52h2.64c.26 0 .47-.23.47-.52 0-.29-.21-.52-.47-.52h-2.64c-.26 0-.47.23-.47.51 0 .29.21.52.47.52" fill="#fff"/><path d="M31.52 68.694c-.23 0-.352-.035-.48-.085.14-.26.176-.58.088-.86l-.768-2.55v-8.21h.06c.26 0 .47-.23.47-.52 0-.29-.21-.52-.47-.52h-.06v-4.27c0-.39-.186-.72-.47-.9V49.7c0-.285-.21-.517-.47-.517h-6.55v-1.3c.09-.094.148-.227.148-.374v-1.43c0-.29-.1-.55-.248-.79h6.65c.26 0 .47-.23.47-.52 0-.29-.21-.52-.47-.52h-7.76l-.018-.01v-.97c0-.29-.21-.52-.47-.52s-.472.23-.472.51v.96l-.018.01H16.68c-.26 0-.47.23-.47.52 0 .28.21.51.47.51h2.9c-.15.24-.25.51-.25.79v1.44c0 .15.057.28.147.38v.48H12.59v-.48c.092-.1.15-.23.15-.38v-1.44c0-.86-.885-1.53-1.372-1.84v-.97c0-.29-.21-.52-.47-.52s-.472.23-.472.52v.96c-.487.3-1.372.98-1.372 1.83v1.43c0 .14.055.28.144.37v1.3H2.594c-.26 0-.47.23-.47.52v1.08c-.283.18-.472.51-.472.892V55.9h-.02c-.26 0-.47.23-.47.515 0 .284.21.52.47.52h.02v8.21L.885 67.7c-.065.213-.06.45.005.66-.113-.02-.242-.037-.395-.037-.26 0-.47.23-.47.514 0 .286.21.52.47.52.28 0 .4.05.567.12.2.09.452.196.91.196s.71-.11.91-.2c.166-.07.287-.123.567-.123.28 0 .4.05.56.123.2.09.45.198.91.198s.71-.1.91-.19c.16-.07.28-.12.56-.12s.4.05.56.13c.2.09.45.2.91.2s.71-.1.91-.19c.16-.07.28-.12.56-.12s.4.05.56.13c.2.084.45.19.91.19s.71-.11.91-.194c.16-.07.28-.12.56-.12s.4.05.56.123c.2.082.45.19.91.19s.71-.11.91-.197c.17-.07.29-.12.57-.12.28 0 .4.05.56.127.2.087.457.19.91.19.46 0 .71-.11.91-.19.17-.07.29-.123.57-.123.28 0 .4.06.57.13.2.085.45.19.91.19s.71-.105.91-.19c.168-.07.29-.123.57-.123.28 0 .4.05.57.12.2.088.45.195.91.195s.71-.105.91-.19c.17-.07.29-.124.57-.124.28 0 .4.053.564.125.2.09.46.2.91.2.46 0 .71-.11.91-.19.17-.07.29-.123.57-.123.28 0 .4.05.57.123.2.085.46.19.91.19.46 0 .71-.105.91-.19.17-.073.29-.124.57-.124.28 0 .4.05.57.13.2.084.455.19.91.19.26 0 .475-.23.475-.517 0-.29-.21-.52-.47-.52zM18.167 56.558l.083.035.13.02c.126 0 .246-.053.334-.15l.008-.01c.137-.158.17-.394.08-.59l-.08-.124-.007-.01c-.12-.14-.303-.18-.464-.13l-.08.03c-.11.06-.19.17-.23.3-.04.13-.03.27.03.4.05.09.12.17.21.22zm5.183 1.884c.09.1.21.154.337.154.125 0 .245-.054.333-.15.09-.097.14-.23.14-.367 0-.14-.05-.27-.138-.37-.14-.16-.367-.2-.545-.1-.113.06-.198.17-.238.3-.04.13-.03.27.02.4l.08.13zm3.99.1c.066.036.14.054.214.054.125 0 .244-.054.333-.15.144-.157.18-.4.09-.6l-.09-.134c-.138-.154-.365-.194-.543-.098-.113.062-.198.17-.238.3-.04.13-.03.275.027.398.045.098.118.178.207.228zM4.892 58.08c0-.085-.018-.166-.052-.238l-.064-.104v-.002l-.023-.027c-.087-.1-.206-.15-.333-.15-.073 0-.145.02-.21.05-.137.07-.232.21-.256.38-.024.16.025.33.13.45.088.1.21.15.336.15.125 0 .244-.06.333-.15.09-.1.14-.23.14-.37zm3 .362c.087.1.21.154.335.154.125 0 .244-.054.333-.15.09-.097.14-.23.14-.367 0-.14-.05-.27-.138-.37-.14-.16-.367-.2-.545-.1-.113.06-.198.17-.238.3-.04.13-.03.27.02.4l.08.13zm5.524-1.884c.066.036.14.055.213.055.12 0 .24-.054.33-.15.14-.16.18-.4.09-.6-.08-.176-.25-.286-.42-.286-.08 0-.15.017-.21.053-.14.075-.24.216-.26.38-.03.166.02.333.13.45l.12.096zM3.063 50.23h6.132v.423H3.063v-.424zm7.832-5.09c.21.132.394.276.54.415h-1.08c.146-.14.33-.283.54-.414zm-.9 1.45h1.8V47h-1.8v-.41zm.143 2.812v-1.315h1.507v3.447h-1.507v-2.132zm10.81-4.11h.443l.32.263h-1.08l.32-.263zm-.677 1.298h1.81V47h-1.8v-.41zm.15 1.777v-.28h1.51v3.447h-1.51v-3.167zm8.51 18.674H3.08l.192-.63h25.465l.19.64zm-23.47-2.7v-3.78c0-.19.38-.61.9-.94.46.29.9.71.9.94v4.3h-1.8v-.52zm7.13-13.41h6.89v.61h-6.89v-.61zm10.28 1.29h6.08v1.25h-6.08v-1.25zm-10.14.37v.61c0 .29.21.52.47.52s.47-.23.47-.52v-.6h.2v.61c0 .29.21.52.47.52s.47-.23.47-.52v-.61H15v.6c0 .29.21.52.47.52s.47-.23.47-.52v-.6h.194v.61c0 .29.21.52.47.52.262 0 .472-.23.472-.513v-.61h.193v.61c0 .285.21.52.47.52s.47-.235.47-.52v-.61h.19v.61c0 .226.13.416.31.487l.15.034c.12 0 .23-.052.31-.135.09-.1.15-.23.15-.387v-.61h.12V54h-6.88v-1.4h.14zm-2.59.16v-.15h1.51V54h-1.51v-1.24zm2.45 2.43V55h6.89v9.854h-.62v-5.908c0-.2-.04-.4-.13-.596-.1-.223-.25-.445-.47-.666-.21-.22-.48-.438-.81-.657-.62-.412-1.23-.678-1.26-.69-.11-.046-.23-.046-.34 0-.02.012-.64.278-1.26.69-.95.632-1.41 1.26-1.41 1.92v5.908h-.57v-9.702zm1.51 9.19v-5.39c0-.34.78-1.04 1.91-1.57 1.13.52 1.91 1.23 1.91 1.57v5.91H14.1v-.51zm6.32-11.77h1.51V54h-1.51v-1.4zm1.51 2.58v9.7h-1.51V55h1.51v.153zM9.2 52.73v.73H3.06v-1.25h6.132v.513zm.942 11.61V55h1.507v9.855h-1.51v-.518zm14.59 0v-3.78c0-.2.373-.61.9-.94.45.28.9.71.9.94v4.29h-1.8v-.516zm-5.257-14.63v.17h-6.887v-.48h6.887v.31zm9 14.62H27.47v-3.78c0-1.06-1.364-1.84-1.637-1.99-.13-.07-.283-.07-.413 0-.273.15-1.637.93-1.637 1.99v3.78h-.917v-7.34h5.607v7.34zm0-8.374h-5.607v-1.47h.057v.68c0 .284.21.516.47.516s.472-.23.472-.52v-.68h.193v.68c0 .28.21.51.47.51s.47-.23.47-.52v-.68h.192v.68c0 .28.21.51.47.51s.472-.23.472-.517v-.68h.193v.68c0 .284.21.516.47.516s.47-.23.47-.52v-.68h.19v.68c0 .29.21.52.47.52s.473-.23.473-.52v-.68h.064v1.47zm-5.607-5.73h6.08v.422h-6.08v-.425zM3.533 55.15v-.66h.082v.677c0 .28.21.51.47.51s.472-.23.472-.52v-.68h.193v.68c0 .28.21.51.47.51s.472-.23.472-.517v-.68h.193v.68c0 .284.21.516.47.516s.472-.23.472-.518v-.68h.193v.68c0 .284.21.516.47.516s.472-.23.472-.52v-.68h.193v.68c0 .286.21.518.47.518s.472-.23.472-.518v-.68h.092v1.47H3.52v-.807zm0 1.844h5.66v7.34h-.99v-3.78c0-1.06-1.365-1.843-1.638-1.99-.13-.07-.283-.07-.413 0-.273.147-1.636.93-1.636 1.99v3.78h-.982v-7.34zm-.943-10.75h2.633c.26 0 .472-.233.472-.52 0-.285-.21-.517-.472-.517H2.59c-.26 0-.47.232-.47.518 0 .286.21.518.47.518m1.044-1.398h4.448c.26 0 .47-.232.47-.518 0-.286-.21-.518-.47-.518H3.634c-.26 0-.47.23-.47.51s.21.52.47.52m21.457.81c-.26 0-.47.23-.47.52 0 .28.21.51.47.51h2.64c.26 0 .47-.24.47-.52 0-.29-.21-.52-.47-.52h-2.64m-9.8-2.52h2.64c.26 0 .47-.23.47-.52 0-.29-.21-.52-.47-.52h-2.64c-.26 0-.47.23-.47.51 0 .29.21.52.47.52" fill="#67737B"/><path d="M31.52 28.694c-.23 0-.352-.035-.48-.085.14-.26.176-.58.088-.86l-.768-2.55v-8.21h.06c.26 0 .47-.23.47-.52 0-.29-.21-.52-.47-.52h-.06v-4.27c0-.39-.186-.72-.47-.9V9.71c0-.285-.21-.517-.47-.517h-6.55V7.89c.09-.094.148-.227.148-.374V6.08c0-.286-.1-.55-.248-.79h6.65c.26 0 .47-.23.47-.517 0-.286-.21-.518-.47-.518h-7.76l-.018-.01V3.28c0-.286-.21-.518-.47-.518s-.472.232-.472.518v.962l-.018.01H16.68c-.26 0-.47.232-.47.52 0 .285.21.517.47.517h2.9c-.15.24-.25.5-.25.79v1.43c0 .14.057.28.147.37v.47H12.59v-.47c.092-.1.15-.23.15-.38V6.08c0-.856-.885-1.53-1.372-1.835v-.962c0-.286-.21-.518-.47-.518s-.472.232-.472.518v.962c-.487.306-1.372.98-1.372 1.834v1.43c0 .14.055.27.144.37v1.31H2.594c-.26 0-.47.23-.47.52v1.08c-.283.18-.472.51-.472.89v4.27h-.02c-.26 0-.47.23-.47.51s.21.52.47.52h.02v8.21l-.767 2.55c-.065.21-.06.45.005.66-.113-.02-.242-.04-.395-.04-.26 0-.47.23-.47.52 0 .28.21.52.47.52.28 0 .4.05.567.12.2.08.452.19.91.19s.71-.11.91-.2c.166-.07.287-.13.567-.13.28 0 .4.05.56.12.2.08.45.19.91.19s.71-.11.91-.19c.16-.07.28-.12.56-.12s.4.05.56.12c.2.08.45.19.91.19s.71-.11.91-.2c.16-.07.28-.12.56-.12s.4.05.56.12c.2.09.45.19.91.19s.71-.11.91-.2c.16-.07.28-.125.56-.125s.4.05.56.12c.2.083.45.19.91.19s.71-.11.91-.198c.17-.07.29-.12.57-.12.28 0 .4.05.56.12.2.09.457.198.91.198.46 0 .71-.105.91-.19.17-.07.29-.12.57-.12.28 0 .4.052.57.124.2.084.45.19.91.19s.71-.11.91-.195c.168-.07.29-.123.57-.123.28 0 .4.05.57.125.2.086.45.193.91.193s.71-.11.91-.192c.17-.07.29-.12.57-.12.28 0 .4.05.564.12.2.08.46.19.91.19.46 0 .71-.11.91-.2.17-.073.29-.124.57-.124.28 0 .4.05.57.12.2.086.46.193.91.193.46 0 .71-.105.91-.19.17-.073.29-.124.57-.124.28 0 .4.05.57.12.2.08.455.19.91.19.26 0 .475-.23.475-.52 0-.287-.21-.52-.47-.52zM18.167 16.558l.083.035.13.02c.126 0 .246-.053.334-.15l.008-.01c.137-.158.17-.394.08-.59l-.08-.124-.007-.01c-.12-.14-.303-.18-.464-.13l-.08.03c-.11.06-.19.17-.23.3-.04.13-.03.27.03.4.05.09.12.17.21.22zm5.183 1.884c.09.1.21.154.337.154.125 0 .245-.054.333-.15.09-.097.14-.23.14-.367 0-.14-.05-.27-.138-.37-.14-.16-.367-.2-.545-.1-.113.06-.198.17-.238.3-.04.13-.03.27.02.4l.08.13zm3.99.1c.066.036.14.054.214.054.125 0 .244-.054.333-.15.144-.157.18-.4.09-.6l-.09-.134c-.138-.154-.365-.194-.543-.098-.113.062-.198.17-.238.3-.04.13-.03.275.027.398.045.098.118.178.207.228zM4.892 18.08c0-.085-.018-.166-.052-.238l-.064-.104v-.002l-.023-.027c-.087-.1-.206-.15-.333-.15-.073 0-.145.02-.21.05-.137.07-.232.21-.256.38-.024.16.025.33.13.45.088.1.21.15.336.15.125 0 .244-.06.333-.15.09-.1.14-.23.14-.37zm3 .362c.087.1.21.154.335.154.125 0 .244-.054.333-.15.09-.097.14-.23.14-.367 0-.14-.05-.27-.138-.37-.14-.16-.367-.2-.545-.1-.113.06-.198.17-.238.3-.04.13-.03.27.02.4l.08.13zm5.524-1.884c.066.036.14.055.213.055.12 0 .24-.054.33-.15.14-.16.18-.4.09-.6-.08-.176-.25-.286-.42-.286-.08 0-.15.017-.21.053-.14.075-.24.216-.26.38-.03.166.02.333.13.45l.12.096zM3.063 10.23h6.132v.423H3.063v-.424zm7.832-5.09c.21.132.394.276.54.415h-1.08c.146-.14.33-.283.54-.414zm-.9 1.45h1.8V7h-1.8v-.41zm.143 2.812V8.087h1.507v3.447h-1.507V9.402zm10.81-4.11h.443l.32.263h-1.08l.32-.263zM20.27 6.59h1.803V7h-1.8v-.41zm.15 1.777v-.28h1.506v3.447H20.42V8.367zm8.51 18.674H3.08l.192-.63h25.465l.19.64zm-23.47-2.7v-3.78c0-.19.372-.61.9-.94.452.29.9.71.9.94v4.3h-1.8v-.52zm7.13-13.41h6.885v.61h-6.887v-.61zm10.28 1.29h6.077v1.25h-6.08v-1.25zm-10.14.37v.61c0 .29.21.52.47.52s.47-.23.47-.52v-.6h.193v.61c0 .29.21.52.47.52.262 0 .472-.23.472-.52v-.61h.193v.6c0 .29.212.52.472.52s.47-.23.47-.52v-.6h.193v.61c0 .29.21.52.47.52.262 0 .472-.23.472-.513v-.61h.193v.61c0 .285.21.52.47.52s.472-.235.472-.52v-.61h.193v.61c0 .226.132.416.314.487l.157.034c.122 0 .23-.052.314-.135.096-.1.157-.23.157-.387v-.61h.125V14h-6.887v-1.4h.14zm-2.59.16v-.15h1.505V14h-1.507v-1.24zm2.45 2.43V15h6.885v9.854h-.623v-5.908c0-.2-.043-.4-.13-.596-.1-.223-.257-.445-.47-.666-.215-.22-.485-.438-.815-.657-.62-.412-1.234-.678-1.26-.69-.11-.046-.233-.046-.344 0-.025.012-.638.278-1.26.69-.952.632-1.414 1.26-1.414 1.92v5.908h-.57v-9.702zm1.51 9.19v-5.39c0-.34.773-1.04 1.905-1.57 1.13.52 1.905 1.23 1.905 1.57v5.91H14.1v-.51zm6.32-11.77h1.505V14h-1.507v-1.4zm1.505 2.58v9.7h-1.507V15h1.507v.153zm-12.73-2.43v.74H3.062v-1.25h6.132v.52zm.943 11.62V15h1.507v9.855h-1.507v-.518zm14.59 0v-3.78c0-.19.373-.61.9-.94.452.29.9.71.9.94v4.3h-1.8v-.52zM19.474 9.71v.175h-6.887V9.4h6.887v.31zm9 14.625H27.47v-3.78c0-1.062-1.364-1.844-1.637-1.99-.13-.07-.283-.07-.413 0-.273.146-1.637.93-1.637 1.99v3.78h-.917v-7.34h5.607v7.34zm0-8.376h-5.607v-1.47h.057v.68c0 .29.21.52.47.52s.472-.23.472-.52v-.68h.193v.68c0 .29.21.52.47.52s.47-.23.47-.52v-.68h.19v.68c0 .29.21.52.47.52s.47-.23.47-.52v-.68h.19v.68c0 .28.21.52.47.52s.47-.24.47-.52v-.68h.19v.68c0 .28.21.51.47.51s.47-.23.47-.52v-.68h.06v1.47zm-5.607-5.73h6.08v.43h-6.08v-.43zM3.533 15.16v-.66h.082v.677c0 .286.21.518.47.518s.472-.23.472-.517v-.68h.193v.68c0 .284.21.516.47.516s.472-.232.472-.52v-.68h.193v.68c0 .287.21.52.47.52s.472-.233.472-.52v-.68h.193v.68c0 .285.21.517.47.517s.472-.23.472-.52v-.68h.193v.68c0 .29.21.52.47.52s.472-.23.472-.52v-.68h.092v1.47H3.52v-.8zm0 1.844h5.66v7.34h-.99v-3.78c0-1.06-1.365-1.843-1.638-1.99-.13-.07-.283-.07-.413 0-.273.147-1.636.93-1.636 1.99v3.78h-.982V17zM2.59 6.242h2.633c.26 0 .472-.23.472-.517 0-.286-.21-.518-.472-.518H2.59c-.26 0-.47.232-.47.518 0 .286.21.518.47.518m1.044-1.398h4.448c.26 0 .47-.232.47-.518 0-.286-.21-.518-.47-.518H3.634c-.26 0-.47.23-.47.51 0 .29.21.52.47.52m21.457.81c-.26 0-.47.23-.47.52 0 .28.21.51.47.51h2.64c.26 0 .47-.24.47-.52 0-.29-.21-.52-.47-.52h-2.64m-9.8-2.52h2.64c.26 0 .47-.23.47-.52 0-.29-.21-.52-.47-.52h-2.64c-.26 0-.47.23-.47.51 0 .29.21.52.47.52" fill="#3A434E"/></g></svg>