<svg width="32" height="232" viewBox="0 0 32 232" xmlns="http://www.w3.org/2000/svg"><g fill="none"><path d="M30.405 150.163v-6.516l.002-.02-.01-.09-.272-2.61c-.025-.242-.232-.427-.478-.427H28.02l.008-.084V139.4c.524-.007.947-.43.947-.954 0-.528-.43-.955-.96-.955H22.33c-.53 0-.96.43-.96.96s.422.95.946.96v1.02l.01.09h-1.55v-11.83c0-.26-.106-.49-.277-.67v-1.61c0-.26-.22-.48-.49-.48s-.48.22-.48.48v.19l-1.49-3.92c-.05-.11-.13-.2-.24-.26v-1.9c0-.26-.22-.48-.48-.48s-.48.22-.48.48v1.86h-1.81v-1.85c0-.26-.22-.48-.48-.48s-.49.22-.49.48v1.91c-.11.06-.2.15-.24.26l-1.49 3.92v-.19c0-.26-.22-.48-.48-.48s-.48.22-.48.48v1.61c-.17.17-.28.41-.28.67v11.82h-7v-2.7l.24.01c.35 0 .7-.06 1.03-.12.3-.05.58-.11.85-.11.19 0 .36.03.52.09.14.06.31.04.44-.05s.2-.23.2-.39v-2c0-.2-.13-.38-.32-.45-.27-.1-.55-.145-.86-.145-.36 0-.7.06-1.03.126-.31.055-.59.108-.86.108l-.27-.02c-.07-.18-.25-.32-.46-.32-.27 0-.48.218-.48.48v5.51H2.2c-.246 0-.453.187-.48.43l-.275 2.65v.027l-.003.03v6.54c-.288.164-.48.47-.48.825 0 .53.43.954.96.954H29.9c.53 0 .96-.43.96-.952 0-.35-.192-.66-.48-.82zm-27.73-8.708h8.438v1.696H2.498l.177-1.69zM12.95 127.72l1.672-4.403h2.644l1.853 4.88H18.1l-.095-.1-1.8-1.375c-.176-.133-.42-.132-.593.004l-1.26.993-.485.38-.09.09h-1.01l.18-.48zm16.44 15.43h-8.614v-1.695h8.438l.177 1.696zm-26.944.956h8.668v2.822H2.446v-2.822zm18.33 0h8.668v2.822h-8.668v-2.822zm-1.955 6.883l-.02-.15c-.03-.17-.07-.33-.13-.48l-.14-.33c-.48-.93-1.45-1.56-2.57-1.56s-2.09.63-2.57 1.56l-.15.33c-.05.15-.1.31-.13.48l-.02.14-.01.05h-.51v-.06l.01-.15c.01-.17.03-.32.07-.48l.09-.33c.09-.26.2-.51.34-.74.6-.98 1.68-1.63 2.91-1.63 1.23 0 2.31.65 2.91 1.63.14.23.25.47.34.73l.09.33c.03.16.05.32.06.48l.01.14v.05h-.515l-.002-.06zm-5.78-7.36v-1.37c.09-.33.28-.61.54-.82.26-.2.58-.32.93-.32.34 0 .67.11.93.31l.14.12c.19.18.49.18.68 0l.14-.12c.27-.21.59-.32.93-.32.35 0 .68.12.93.31.36.28.6.71.6 1.19l.02.11v5.06c-.77-.69-1.79-1.11-2.91-1.11-1.11 0-2.13.42-2.9 1.11v-4.19zm.97 7.69l.03-.28.01-.06.04-.15c.05-.17.12-.33.21-.48.07-.12.16-.23.26-.33.36-.38.86-.61 1.41-.61s1.06.23 1.41.6c.1.1.18.21.26.33.09.15.16.31.21.48l.04.14.01.05.03.28v.03h-3.88v-.04zm14.34-1.29v-1.1c-.01-.23-.2-.41-.43-.41-.23 0-.41.18-.43.4v1.09h-.56v-1.1c-.01-.23-.19-.41-.42-.41-.23 0-.41.18-.43.4v1.1h-.55v-1.1c-.01-.23-.2-.41-.43-.41-.23 0-.41.18-.43.4v1.1h-.56v-1.09c-.01-.23-.2-.41-.43-.41-.23 0-.42.18-.43.41v1.1h-.56v-1.1c-.01-.23-.19-.41-.42-.41-.23 0-.41.18-.43.4v1.1h-1.05v-2.15h8.67V150h-1.11zm-9.49-15.06c-.42-.34-.95-.54-1.54-.54-.32 0-.64.06-.94.18v-.71h2.48v1.05zm-4.2-5.83v-.45l.04-.04 1.21-.96.02-.02.02.01 1.25.95.05.04v2.26h-2.59v-1.82zm4.2 3.81h-2.48v-1.04h1.34c.27 0 .48-.22.48-.48v-1.82h.66v3.33zm-4.68-1.04h1.24v1.04h-2.38v-3.34h.66v1.81c0 .26.22.48.48.48zm-1.13 1.99h2.38v.69c-.28-.11-.59-.17-.9-.17-.55 0-1.06.18-1.47.48v-1zm0 2.61c.17-.65.77-1.13 1.47-1.13.4 0 .78.15 1.07.43.19.18.49.18.68 0 .29-.28.67-.44 1.07-.44.84 0 1.53.68 1.53 1.51l.02.11v3.68c-.1-.08-.21-.15-.32-.22-.36-.2-.77-.32-1.22-.32-.43 0-.85.11-1.22.32l-.18.11-.18-.12c-.37-.21-.78-.32-1.22-.32-.44 0-.86.12-1.22.32l-.25.16v-4.13zm-10.6 11.37h8.67v2.15h-1.05v-1.1c-.01-.23-.2-.41-.43-.41-.23 0-.41.18-.43.4v1.09h-.56v-1.09c-.01-.22-.19-.4-.42-.4-.23 0-.41.18-.43.41v1.09h-.56v-1.1c-.01-.227-.19-.406-.42-.406-.23 0-.41.18-.43.406v1.095h-.56v-1.1c-.01-.224-.2-.403-.43-.403-.23 0-.42.18-.43.41v1.1H4.4v-1.1c-.007-.186-.134-.34-.305-.39l-.122-.02c-.15 0-.283.08-.36.2-.038.06-.064.137-.068.21v1.1h-1.1v-2.15zm20.83-7.47v-1.01h3.79v1.01l.01.08h-3.81l.01-.09zm-17.91-4.73c.3-.06.59-.11.86-.11l.21.01v1.04l-.21-.01c-.36 0-.7.06-1.03.12-.3.05-.58.11-.86.11l-.22-.01v-1.04h.21c.36 0 .7-.07 1.03-.13zm17.3-4.66c.22.19.51.3.8.3h1.67v.09c0 .3.13.58.36.78.2.17.44.26.7.26h3.52c.58 0 1.06-.47 1.06-1.05s-.47-1.05-1.05-1.05h-.1l.03-.25c0-.67-.54-1.21-1.21-1.21H23.5c-.293 0-.58.1-.8.3-.26.23-.41.56-.41.9s.15.67.41.9zm.64-1.09c.03-.03.08-.06.16-.06h4.94c.13 0 .25.11.25.24s-.12.24-.25.24c-.27 0-.49.21-.49.48 0 .26.22.48.48.48h1.29c.05 0 .09.04.09.09 0 .05-.04.09-.09.09h-3.51l-.06-.03-.03-.07.03-.07.06-.03c.27 0 .48-.22.48-.48s-.21-.48-.48-.48h-2.72c-.07 0-.13-.03-.16-.06-.04-.03-.09-.09-.09-.19s.05-.16.09-.19zM4.1 146.44h.3v-1.312c-.01-.19-.14-.34-.31-.39l-.13-.02c-.15 0-.286.08-.36.19-.04.06-.067.13-.07.21v1.31h.546zm1.72-1.312c-.01-.23-.2-.41-.43-.41-.23 0-.42.18-.43.4v1.31h.85v-1.31zm4.24 0c-.01-.23-.2-.41-.43-.41-.23 0-.42.18-.43.4v1.31h.85v-1.31zm-2.83 0c-.01-.23-.2-.41-.43-.41-.23 0-.42.18-.43.4v1.31h.85v-1.31zm1.41 0c-.01-.23-.2-.41-.43-.41-.23 0-.42.18-.43.4v1.31h.85v-1.31zm14.03 0c-.01-.23-.2-.41-.43-.41-.23 0-.42.18-.43.4v1.31h.852v-1.31zm1.41 0c-.01-.23-.2-.41-.43-.41-.23 0-.42.18-.43.4v1.31h.856v-1.31zm4.243 0c-.01-.23-.2-.41-.43-.41-.23 0-.416.18-.427.4v1.31h.853v-1.31zm-2.83 0c-.01-.23-.2-.41-.43-.41-.23 0-.416.18-.427.4v1.31h.854v-1.31zm1.414 0c-.01-.23-.198-.41-.428-.41-.23 0-.42.18-.43.4v1.31h.85v-1.31zm-12.76-5.58h3.56c.265 0 .48-.22.48-.48 0-.23-.16-.42-.377-.47v-1.78c-.017-.39-.34-.7-.73-.7-.394 0-.715.307-.733.693v1.77h-.84v-1.77c-.02-.39-.34-.69-.73-.69-.39 0-.713.31-.73.69v1.78c-.217.05-.38.24-.38.47 0 .27.217.48.48.48zm0 5.64h3.56c.265 0 .48-.22.48-.48 0-.23-.16-.42-.377-.47v-1.78c-.017-.387-.34-.694-.73-.694-.394 0-.715.31-.733.694v1.77h-.84v-1.77c-.02-.385-.34-.692-.73-.692-.39 0-.713.31-.73.693v1.78c-.217.05-.38.24-.38.47 0 .26.217.48.48.48zm1.78-15.08c.31 0 .57-.21.646-.5l.026-.17c0-.11-.03-.215-.08-.31-.12-.21-.34-.354-.6-.354-.26 0-.48.142-.59.354-.05.09-.08.2-.08.31l.02.17c.07.283.34.494.65.494z" fill="#206FAC"/><path d="M30.405 110.163v-6.516l.002-.02-.01-.09-.272-2.61c-.025-.242-.232-.427-.478-.427H28.02l.008-.084V99.4c.524-.007.947-.43.947-.954 0-.528-.43-.955-.96-.955H22.33c-.53 0-.96.43-.96.96s.422.95.946.96v1.02l.01.09h-1.55V88.68c0-.26-.106-.498-.277-.67V86.4c0-.265-.22-.48-.49-.48s-.48.215-.48.48v.19l-1.49-3.92c-.05-.116-.13-.208-.24-.26v-1.907c0-.264-.22-.478-.48-.478s-.48.214-.48.478v1.858h-1.81v-1.85c0-.26-.22-.47-.48-.47s-.49.22-.49.48v1.91c-.11.06-.2.15-.24.26l-1.49 3.92v-.19c0-.26-.22-.48-.48-.48s-.48.22-.48.48v1.61c-.17.17-.28.41-.28.67v11.82h-7v-2.7l.24.01c.35 0 .7-.06 1.03-.12.3-.05.58-.11.85-.11.19 0 .36.03.52.09.14.06.31.04.44-.05s.2-.23.2-.39v-2.01c0-.2-.13-.38-.32-.45-.27-.1-.55-.14-.86-.14-.36 0-.7.07-1.03.13-.31.06-.59.11-.86.11l-.27-.02c-.07-.18-.25-.32-.46-.32-.27 0-.48.22-.48.48v5.51H2.2c-.246 0-.453.19-.48.43l-.275 2.65v.027l-.003.02v6.53c-.288.166-.48.474-.48.827 0 .53.43.954.96.954H29.9c.53 0 .96-.43.96-.95 0-.355-.192-.66-.48-.827zm-27.73-8.708h8.438v1.696H2.498l.177-1.69zM12.95 87.72l1.672-4.403h2.644l1.853 4.88H18.1l-.095-.1-1.8-1.375c-.176-.133-.42-.132-.593.004l-1.26.993-.485.38-.09.09h-1.01l.18-.48zm16.44 15.43h-8.614v-1.695h8.438l.177 1.696zm-26.944.956h8.668v2.822H2.446v-2.822zm18.33 0h8.668v2.822h-8.668v-2.822zm-1.955 6.883l-.02-.15c-.03-.17-.07-.33-.13-.48l-.14-.33c-.48-.93-1.45-1.56-2.57-1.56s-2.09.63-2.57 1.56l-.15.33c-.05.15-.1.31-.13.48l-.02.14-.01.05h-.51v-.06l.01-.15c.01-.17.03-.32.07-.48l.09-.33c.09-.26.2-.51.34-.74.6-.98 1.68-1.63 2.91-1.63 1.23 0 2.31.65 2.91 1.63.14.23.25.47.34.73l.09.33c.03.16.05.32.06.48l.01.14v.05h-.515l-.002-.06zm-5.78-7.36v-1.37c.09-.33.28-.61.54-.82.26-.2.58-.32.93-.32.34 0 .67.11.93.31l.14.12c.19.18.49.18.68 0l.14-.12c.27-.21.59-.32.93-.32.35 0 .68.12.93.31.36.28.6.71.6 1.19l.02.11v5.06c-.77-.69-1.79-1.11-2.91-1.11-1.11 0-2.13.42-2.9 1.11v-4.19zm.97 7.69l.03-.28.01-.06.04-.15c.05-.17.12-.33.21-.48.07-.12.16-.23.26-.33.36-.38.86-.61 1.41-.61s1.06.23 1.41.6c.1.1.18.21.26.33.09.15.16.31.21.48l.04.14.01.05.03.28v.03h-3.88v-.04zm14.34-1.29v-1.1c-.01-.23-.2-.41-.43-.41-.23 0-.41.18-.43.4v1.09h-.56v-1.1c-.01-.23-.19-.41-.42-.41-.23 0-.41.18-.43.4v1.1h-.55v-1.1c-.01-.23-.2-.41-.43-.41-.23 0-.41.18-.43.4v1.1h-.56v-1.09c-.01-.23-.2-.41-.43-.41-.23 0-.42.18-.43.41v1.1h-.56v-1.1c-.01-.23-.19-.41-.42-.41-.23 0-.41.18-.43.4v1.1h-1.05v-2.15h8.67V110h-1.11zm-9.49-15.06c-.42-.34-.95-.54-1.54-.54-.32 0-.64.06-.94.18v-.71h2.48v1.05zm-4.2-5.83v-.44l.04-.04 1.21-.96.02-.02.02.01 1.25.95.05.04v2.26h-2.59v-1.82zm4.2 3.81h-2.48v-1.04h1.34c.27 0 .48-.22.48-.48v-1.81h.66v3.33zm-4.68-1.04h1.24v1.04h-2.38v-3.33h.66v1.81c0 .26.22.48.48.48zm-1.14 2h2.38v.69c-.28-.11-.59-.17-.9-.17-.55 0-1.06.18-1.47.48v-1zm0 2.61c.17-.65.77-1.13 1.47-1.13.4 0 .78.15 1.07.43.19.18.49.18.68 0 .29-.28.67-.44 1.07-.44.84 0 1.53.68 1.53 1.51l.02.11v3.68c-.1-.08-.21-.15-.32-.22-.36-.21-.78-.32-1.22-.32-.43 0-.85.11-1.22.32l-.18.11-.18-.12c-.36-.21-.78-.32-1.22-.32-.44 0-.85.11-1.21.32l-.25.16V96.5zM2.45 107.88h8.666v2.153h-1.05v-1.095c-.01-.227-.198-.406-.428-.406-.23 0-.417.18-.428.405v1.094h-.56v-1.09c-.01-.22-.198-.4-.428-.4-.23 0-.417.18-.428.41v1.1h-.56v-1.09c-.01-.22-.197-.4-.427-.4-.23 0-.417.18-.428.41v1.1h-.56v-1.09c-.01-.23-.2-.41-.43-.41-.23 0-.42.18-.43.41v1.1H4.4v-1.1c-.007-.18-.134-.33-.305-.38l-.122-.02c-.15 0-.283.08-.36.2-.038.06-.064.133-.068.21v1.095h-1.1v-2.15zm20.83-7.466V99.4h3.79v1.015l.007.084H23.27l.008-.09zM5.37 95.682c.3-.055.586-.108.857-.108l.21.012v1.043l-.21-.01c-.358 0-.7.06-1.03.12-.303.05-.587.11-.858.11l-.22-.01V95.8l.21.008c.36 0 .7-.063 1.03-.124zm17.293-4.66c.222.193.506.3.8.3h1.67l-.005.09c0 .3.13.587.357.786.193.17.44.262.696.262h3.52c.58 0 1.06-.47 1.06-1.046 0-.577-.47-1.046-1.05-1.046h-.1l.03-.248c0-.663-.54-1.203-1.21-1.203h-4.95c-.29 0-.58.107-.8.3-.26.23-.41.56-.41.903s.15.673.41.902zm.636-1.09c.03-.027.08-.06.16-.06h4.94c.13 0 .25.11.25.247s-.12.24-.25.24c-.27 0-.49.21-.49.48 0 .26.21.48.48.48h1.29c.05 0 .09.04.09.09 0 .05-.04.09-.09.09h-3.51l-.06-.03-.03-.07.03-.07.06-.03c.26 0 .48-.22.48-.48s-.22-.48-.48-.48h-2.72c-.08 0-.14-.04-.17-.06-.04-.03-.09-.09-.09-.19s.05-.16.08-.19zm-19.2 16.51h.3v-1.313c-.01-.19-.14-.34-.31-.39l-.13-.02c-.15 0-.29.08-.36.19-.04.06-.07.13-.07.21v1.31h.54zm1.72-1.313c-.01-.23-.2-.41-.43-.41-.23 0-.42.18-.43.4v1.31h.85v-1.31zm4.24 0c-.01-.23-.2-.41-.43-.41-.23 0-.42.18-.43.4v1.31h.85v-1.31zm-2.83 0c-.01-.23-.2-.41-.43-.41-.23 0-.42.18-.43.4v1.31h.85v-1.31zm1.41 0c-.01-.23-.2-.41-.43-.41-.23 0-.42.18-.43.4v1.31h.85v-1.31zm14.03 0c-.01-.23-.2-.41-.43-.41-.23 0-.42.18-.43.4v1.31h.85v-1.31zm1.41 0c-.01-.23-.2-.41-.43-.41-.23 0-.42.18-.43.4v1.31h.85v-1.31zm4.24 0c-.01-.23-.2-.41-.43-.41-.23 0-.42.18-.43.4v1.31h.85v-1.31zm-2.83 0c-.01-.23-.2-.41-.43-.41-.23 0-.42.18-.43.4v1.31h.85v-1.31zm1.41 0c-.01-.23-.2-.41-.43-.41-.23 0-.42.18-.43.4v1.31h.85v-1.31zm-12.76-5.58h3.56c.26 0 .48-.22.48-.48 0-.23-.16-.42-.38-.47v-1.78c-.02-.39-.34-.7-.73-.7-.4 0-.72.3-.74.69v1.77h-.84v-1.77c-.02-.39-.34-.7-.73-.7-.39 0-.72.3-.73.69v1.78c-.22.05-.38.24-.38.47 0 .26.21.48.48.48zm0 5.64h3.56c.26 0 .48-.22.48-.48 0-.23-.16-.42-.38-.47v-1.78c-.02-.39-.34-.7-.73-.7-.4 0-.72.3-.74.69v1.77h-.84v-1.77c-.02-.39-.34-.7-.73-.7-.39 0-.72.31-.73.69v1.78c-.22.05-.38.24-.38.46 0 .26.21.472.48.472zm1.78-15.08c.31 0 .57-.21.64-.5l.02-.17c0-.11-.03-.22-.08-.31-.12-.21-.34-.36-.6-.36-.26 0-.48.14-.59.35-.05.09-.08.2-.08.31l.02.17c.072.28.34.49.65.49z" fill="#fff"/><path d="M30.405 70.163v-6.516l.002-.02-.01-.09-.272-2.61c-.025-.242-.232-.427-.478-.427H28.02l.008-.084V59.4c.524-.007.947-.43.947-.954 0-.528-.43-.955-.96-.955H22.33c-.53 0-.96.43-.96.96s.422.95.946.96v1.02l.01.09h-1.55V48.68c0-.26-.106-.498-.277-.67V46.4c0-.265-.22-.48-.49-.48s-.48.215-.48.48v.19l-1.49-3.92c-.05-.116-.13-.208-.24-.26v-1.907c0-.264-.22-.478-.48-.478s-.48.214-.48.478v1.858h-1.81v-1.85c0-.26-.22-.47-.48-.47s-.49.22-.49.48v1.91c-.11.06-.2.15-.24.26l-1.49 3.92v-.19c0-.26-.22-.48-.48-.48s-.48.22-.48.48v1.61c-.17.17-.28.41-.28.67v11.8h-7v-2.7l.24.01c.35 0 .7-.06 1.03-.12.3-.05.58-.11.85-.11.19 0 .36.03.52.09.14.06.31.04.44-.05s.2-.23.2-.39v-2.01c0-.2-.13-.38-.32-.45-.27-.1-.55-.14-.86-.14-.36 0-.7.07-1.03.13-.31.06-.59.11-.86.11l-.27-.02c-.07-.18-.25-.32-.46-.32-.27 0-.48.22-.48.48v5.51H2.2c-.246 0-.453.19-.48.43l-.275 2.65v.03l-.003.026V70.2c-.288.164-.48.472-.48.825 0 .526.43.953.96.953H29.9c.53 0 .96-.43.96-.956 0-.354-.192-.66-.48-.83zm-27.73-8.708h8.438v1.696H2.498l.177-1.69zM12.95 47.72l1.672-4.403h2.644l1.853 4.88H18.1l-.095-.1-1.8-1.375c-.176-.133-.42-.132-.593.004l-1.26.993-.485.38-.09.09h-1.01l.18-.48zm16.44 15.43h-8.614v-1.695h8.438l.177 1.696zm-26.944.956h8.668v2.822H2.446v-2.822zm18.33 0h8.668v2.822h-8.668v-2.822zM18.82 70.99l-.022-.147c-.03-.164-.073-.324-.13-.478l-.147-.33c-.48-.927-1.45-1.562-2.57-1.562s-2.09.635-2.57 1.56l-.15.332c-.05.154-.1.313-.13.478l-.02.146-.01.05h-.51v-.06l.01-.15c.01-.17.03-.32.07-.48l.09-.33c.09-.26.2-.51.34-.74.6-.98 1.68-1.63 2.91-1.63 1.23 0 2.31.65 2.91 1.63.14.23.25.47.34.73l.09.33c.04.16.06.32.07.48l.01.14.01.05h-.514l-.003-.05zm-5.783-7.36v-1.362c.086-.327.28-.61.54-.813.26-.2.58-.318.932-.318.34 0 .66.113.93.318l.13.116c.18.19.48.19.67 0l.13-.11c.26-.2.59-.32.93-.32.35 0 .67.12.93.32.36.28.59.71.59 1.2l.01.12v5.06c-.77-.69-1.79-1.11-2.91-1.11s-2.14.42-2.91 1.11v-4.2zm.97 7.69l.027-.276.008-.055.035-.15c.047-.17.117-.33.206-.48.072-.12.157-.23.253-.33.354-.38.853-.61 1.408-.61.555 0 1.055.23 1.408.6.096.1.18.21.253.33.09.15.16.31.206.48l.04.14.01.05.03.27.01.03h-3.88v-.03zm14.335-1.286V68.94c-.01-.227-.198-.406-.428-.406-.23 0-.417.18-.428.405v1.09h-.56v-1.09c-.01-.23-.197-.41-.427-.41-.23 0-.42.18-.43.4v1.09h-.56v-1.09c-.01-.23-.2-.41-.43-.41-.23 0-.42.18-.43.4v1.09h-.56v-1.09c-.01-.23-.2-.41-.43-.41-.23 0-.42.18-.43.4V70h-.56v-1.09c-.01-.226-.2-.405-.43-.405-.23 0-.42.18-.43.404V70h-1.05v-2.15h8.66V70h-1.1zm-9.488-15.056c-.423-.333-.957-.532-1.538-.532-.327 0-.645.064-.94.184v-.71h2.478v1.058zm-4.2-5.826v-.445l.042-.033 1.21-.955.017-.02.016.01 1.25.95.04.03v2.26h-2.58v-1.82zm4.2 3.813h-2.477v-1.04h1.34c.267 0 .482-.214.482-.478V49.63h.65v3.334zm-4.68-1.04h1.242v1.04h-2.378V49.63h.655v1.818c0 .264.215.478.48.478zm-1.136 1.995h2.378v.696c-.285-.11-.59-.17-.906-.17-.55 0-1.06.18-1.472.482V53.92zm0 2.612c.17-.65.765-1.13 1.472-1.13.4 0 .78.153 1.067.433.187.183.487.183.674 0 .29-.28.67-.434 1.07-.434.84 0 1.53.68 1.53 1.52l.02.12v3.69c-.1-.08-.2-.15-.32-.21-.36-.2-.77-.31-1.21-.31-.43 0-.85.11-1.22.32l-.18.12-.18-.11c-.37-.2-.78-.31-1.22-.31-.44 0-.85.12-1.21.32l-.25.17v-4.13zm-10.59 11.35h8.667v2.152h-1.05V68.94c-.01-.227-.198-.406-.428-.406-.23 0-.417.18-.428.405v1.09h-.56v-1.09c-.01-.23-.2-.41-.43-.41-.23 0-.42.18-.43.4v1.09h-.56v-1.09c-.01-.23-.2-.41-.43-.41-.23 0-.42.18-.43.4v1.09h-.56v-1.09c-.01-.23-.2-.41-.43-.41-.23 0-.42.18-.43.4V70H4.4v-1.09c-.007-.184-.134-.335-.305-.386l-.122-.02c-.15 0-.283.08-.36.192-.038.06-.064.13-.068.21V70h-1.1v-2.15zm20.83-7.467V59.4h3.79v1.015l.008.084H23.27l.008-.09zM5.37 55.682c.3-.055.586-.108.857-.108l.21.012v1.043l-.21-.01c-.358 0-.7.06-1.03.12-.303.05-.587.11-.858.11l-.22-.01V55.8l.21.008c.36 0 .7-.063 1.03-.124zm17.293-4.66c.222.193.506.3.8.3h1.67l-.005.09c0 .3.13.587.357.786.193.17.44.262.696.262h3.52c.58 0 1.06-.47 1.06-1.046 0-.577-.47-1.046-1.05-1.046h-.1l.03-.248c0-.663-.54-1.203-1.21-1.203h-4.95c-.29 0-.58.107-.8.3-.26.23-.41.56-.41.903s.15.673.41.902zm.636-1.09c.03-.027.08-.06.16-.06h4.94c.13 0 .25.11.25.247s-.12.24-.25.24c-.27 0-.49.21-.49.48 0 .26.21.48.48.48h1.29c.05 0 .09.04.09.09 0 .05-.04.09-.09.09h-3.51l-.06-.03-.03-.07.03-.07.06-.03c.26 0 .48-.22.48-.48s-.22-.48-.48-.48h-2.72c-.08 0-.14-.04-.17-.06-.04-.03-.09-.09-.09-.19s.05-.16.08-.19zM4.1 66.442h.305V65.13c-.008-.185-.135-.336-.306-.387l-.13-.02c-.15 0-.29.08-.36.197-.04.06-.07.132-.07.21v1.31h.55zm1.72-1.312c-.01-.227-.198-.406-.428-.406-.23 0-.417.18-.428.405v1.31h.856v-1.31zm4.245 0c-.01-.227-.198-.406-.428-.406-.23 0-.417.18-.428.405v1.31h.85v-1.31zm-2.83 0c-.01-.227-.198-.406-.428-.406-.23 0-.417.18-.428.405v1.31h.85v-1.31zm1.415 0c-.01-.227-.198-.406-.428-.406-.23 0-.417.18-.428.405v1.31h.856v-1.31zm14.033 0c-.01-.227-.198-.406-.428-.406-.23 0-.417.18-.428.405v1.31h.855v-1.31zm1.415 0c-.01-.227-.198-.406-.428-.406-.23 0-.417.18-.428.405v1.31h.856v-1.31zm4.245 0c-.01-.227-.198-.406-.428-.406-.23 0-.417.18-.428.405v1.31h.855v-1.31zm-2.83 0c-.01-.227-.198-.406-.428-.406-.23 0-.417.18-.428.405v1.31h.856v-1.31zm1.415 0c-.01-.227-.198-.406-.428-.406-.23 0-.417.18-.428.405v1.31h.856v-1.31zm-12.762-5.574h3.56c.267 0 .482-.214.482-.478 0-.228-.16-.42-.377-.466v-1.78c-.01-.386-.33-.693-.73-.693-.39 0-.71.3-.73.69v1.77h-.84v-1.77c-.02-.39-.34-.7-.73-.7-.39 0-.71.3-.73.69v1.78c-.21.05-.37.24-.37.46 0 .26.22.48.48.48zm0 5.646h3.56c.267 0 .482-.214.482-.478 0-.228-.16-.418-.377-.466v-1.78c-.01-.386-.33-.693-.73-.693-.39 0-.71.307-.73.693v1.768h-.84v-1.768c-.02-.386-.34-.693-.73-.693-.39 0-.71.307-.73.693v1.78c-.21.047-.37.238-.37.466 0 .264.22.478.48.478zm1.78-15.076c.312 0 .573-.21.648-.497l.023-.17c0-.11-.028-.22-.077-.31-.112-.21-.335-.36-.592-.36-.257 0-.48.14-.592.35-.05.09-.077.2-.077.31l.02.17c.07.28.33.49.64.49z" fill="#67737B"/><path d="M30.405 30.163v-6.516l.002-.02-.01-.09-.272-2.61c-.025-.242-.232-.427-.478-.427H28.02l.008-.084V19.4c.524-.007.947-.43.947-.954 0-.528-.43-.955-.96-.955H22.33c-.53 0-.96.43-.96.96s.422.95.946.96v1.02l.01.09h-1.55V8.68c0-.26-.106-.5-.277-.67V6.4c0-.265-.22-.48-.49-.48s-.48.215-.48.48v.19l-1.49-3.92c-.05-.116-.13-.208-.24-.26V.503c0-.264-.22-.478-.48-.478s-.48.214-.48.478V2.36h-1.81V.504c0-.264-.22-.478-.48-.478s-.49.214-.49.478V2.41c-.11.052-.2.144-.24.26l-1.49 3.92V6.4c0-.265-.22-.48-.48-.48s-.48.215-.48.48v1.604c-.17.172-.28.41-.28.67V20.5h-7v-2.7l.24.01c.35 0 .7-.063 1.03-.124.3-.055.58-.108.85-.108.19 0 .36.028.52.086.14.054.31.033.44-.056s.2-.236.2-.392v-2.003c0-.2-.13-.38-.32-.448-.27-.098-.55-.145-.86-.145-.36 0-.7.063-1.03.124-.31.055-.59.108-.86.108l-.27-.02c-.07-.187-.25-.322-.46-.322-.27 0-.48.214-.48.478V20.5H2.2c-.246 0-.453.185-.48.428l-.275 2.65v.025l-.003.025v6.544c-.288.165-.48.473-.48.826 0 .528.43.955.96.955H29.9c.53 0 .96-.43.96-.955 0-.355-.192-.66-.48-.827zm-27.73-8.708h8.438v1.696H2.498l.177-1.69zM12.95 7.72l1.672-4.403h2.644l1.853 4.88H18.1l-.095-.1-1.8-1.375c-.176-.133-.42-.132-.593.004l-1.26.993-.485.38-.09.09h-1.01l.18-.48zm16.44 15.43h-8.614v-1.695h8.438l.177 1.696zm-26.944.956h8.668v2.822H2.446v-2.822zm18.33 0h8.668v2.822h-8.668v-2.822zM18.82 30.99l-.022-.147c-.03-.164-.073-.324-.13-.478l-.147-.33c-.48-.927-1.45-1.562-2.57-1.562s-2.09.635-2.57 1.56l-.15.332c-.05.154-.1.313-.13.478l-.02.146-.01.05h-.51v-.06l.01-.15c.01-.17.03-.32.07-.48l.09-.33c.09-.26.2-.51.34-.74.6-.98 1.68-1.63 2.91-1.63 1.23 0 2.31.65 2.91 1.63.14.23.25.47.34.73l.09.33c.04.16.06.32.07.48l.01.14.01.05h-.514l-.003-.05zm-5.783-7.36v-1.362c.086-.327.28-.61.54-.813.26-.2.58-.318.932-.318.34 0 .66.113.93.318l.13.116c.18.19.48.19.67 0l.13-.11c.26-.2.59-.32.93-.32.35 0 .67.12.93.32.36.28.59.71.59 1.2l.01.12v5.06c-.77-.69-1.79-1.11-2.91-1.11s-2.14.42-2.91 1.11v-4.2zm.97 7.69l.027-.276.008-.055.035-.15c.047-.17.117-.33.206-.48.072-.12.157-.23.253-.33.354-.38.853-.61 1.408-.61.555 0 1.055.23 1.408.6.096.1.18.21.253.33.09.15.16.31.206.48l.04.14.01.05.03.27.01.03h-3.88v-.03zm14.335-1.286V28.94c-.01-.227-.198-.406-.428-.406-.23 0-.417.18-.428.405v1.09h-.56v-1.09c-.01-.23-.197-.41-.427-.41-.23 0-.42.18-.43.4v1.09h-.56v-1.09c-.01-.23-.2-.41-.43-.41-.23 0-.42.18-.43.4v1.09h-.56v-1.09c-.01-.23-.2-.41-.43-.41-.23 0-.42.18-.43.4V30h-.56v-1.09c-.01-.226-.2-.405-.43-.405-.23 0-.42.18-.43.404V30h-1.05v-2.15h8.66V30h-1.1zm-9.488-15.056c-.423-.333-.957-.532-1.538-.532-.327 0-.645.064-.94.184v-.71h2.478v1.058zm-4.2-5.826v-.445l.042-.033 1.21-.955.017-.02.016.01 1.25.95.04.03v2.26h-2.58v-1.8zm4.2 3.813h-2.477v-1.04h1.34c.267 0 .482-.214.482-.478V9.63h.65v3.334zm-4.68-1.04h1.242v1.04h-2.378V9.63h.655v1.818c0 .264.215.478.48.478zm-1.136 1.995h2.378v.696c-.285-.11-.59-.17-.906-.17-.55 0-1.06.18-1.472.482V13.92zm0 2.612c.17-.65.765-1.13 1.472-1.13.4 0 .78.153 1.067.433.187.183.487.183.674 0 .29-.28.67-.434 1.07-.434.84 0 1.53.68 1.53 1.52l.02.12v3.69c-.1-.08-.2-.15-.32-.21-.36-.2-.77-.31-1.21-.31-.43 0-.85.11-1.22.32l-.18.12-.18-.11c-.37-.2-.78-.31-1.22-.31-.44 0-.85.12-1.21.32l-.25.17v-4.13zm-10.59 11.35h8.667v2.152h-1.05V28.94c-.01-.227-.198-.406-.428-.406-.23 0-.417.18-.428.405v1.09h-.56v-1.09c-.01-.23-.2-.41-.43-.41-.23 0-.42.18-.43.4v1.09h-.56v-1.09c-.01-.23-.2-.41-.43-.41-.23 0-.42.18-.43.4v1.09h-.56v-1.09c-.01-.23-.2-.41-.43-.41-.23 0-.42.18-.43.4V30H4.4v-1.09c-.007-.184-.134-.335-.305-.386l-.122-.02c-.15 0-.283.08-.36.192-.038.06-.064.13-.068.21V30h-1.1v-2.15zm20.83-7.467V19.4h3.79v1.015l.008.084H23.27l.008-.09zM5.37 15.682c.3-.055.586-.108.857-.108l.21.012v1.043l-.21-.01c-.358 0-.7.06-1.03.12-.303.05-.587.11-.858.11l-.22-.01V15.8l.21.008c.36 0 .7-.063 1.03-.124zm17.293-4.66c.222.193.506.3.8.3h1.67l-.005.09c0 .3.13.587.357.786.193.17.44.262.696.262h3.52c.58 0 1.06-.47 1.06-1.046 0-.577-.47-1.046-1.05-1.046h-.1l.03-.248c0-.663-.54-1.203-1.21-1.203h-4.95c-.29 0-.58.107-.8.3-.26.23-.41.56-.41.903s.15.673.41.902zm.636-1.09c.03-.027.08-.06.16-.06h4.94c.13 0 .25.11.25.247s-.12.24-.25.24c-.27 0-.49.21-.49.48 0 .26.21.48.48.48h1.29c.05 0 .09.04.09.09 0 .05-.04.09-.09.09h-3.51l-.06-.03-.03-.07.03-.07.06-.03c.26 0 .48-.22.48-.48s-.22-.48-.48-.48h-2.72c-.08 0-.14-.04-.17-.06-.04-.03-.09-.09-.09-.19s.05-.16.08-.19zM4.1 26.442h.305V25.13c-.008-.185-.135-.336-.306-.387l-.13-.02c-.15 0-.29.08-.36.197-.04.06-.07.132-.07.21v1.31h.55zm1.72-1.312c-.01-.227-.198-.406-.428-.406-.23 0-.417.18-.428.405v1.31h.856v-1.31zm4.245 0c-.01-.227-.198-.406-.428-.406-.23 0-.417.18-.428.405v1.31h.85v-1.31zm-2.83 0c-.01-.227-.198-.406-.428-.406-.23 0-.417.18-.428.405v1.31h.85v-1.31zm1.415 0c-.01-.227-.198-.406-.428-.406-.23 0-.417.18-.428.405v1.31h.856v-1.31zm14.033 0c-.01-.227-.198-.406-.428-.406-.23 0-.417.18-.428.405v1.31h.855v-1.31zm1.415 0c-.01-.227-.198-.406-.428-.406-.23 0-.417.18-.428.405v1.31h.856v-1.31zm4.245 0c-.01-.227-.198-.406-.428-.406-.23 0-.417.18-.428.405v1.31h.855v-1.31zm-2.83 0c-.01-.227-.198-.406-.428-.406-.23 0-.417.18-.428.405v1.31h.856v-1.31zm1.415 0c-.01-.227-.198-.406-.428-.406-.23 0-.417.18-.428.405v1.31h.856v-1.31zm-12.762-5.574h3.56c.267 0 .482-.214.482-.478 0-.228-.16-.42-.377-.466v-1.78c-.01-.386-.33-.693-.73-.693-.39 0-.71.3-.73.69v1.77h-.84v-1.77c-.02-.39-.34-.7-.73-.7-.39 0-.71.3-.73.69v1.78c-.21.05-.37.24-.37.46 0 .26.22.48.48.48zm0 5.646h3.56c.267 0 .482-.214.482-.478 0-.228-.16-.418-.377-.466v-1.78c-.01-.386-.33-.693-.73-.693-.39 0-.71.307-.73.693v1.768h-.84v-1.768c-.02-.386-.34-.693-.73-.693-.39 0-.71.307-.73.693v1.78c-.21.047-.37.238-.37.466 0 .264.22.478.48.478zm1.78-15.076c.312 0 .573-.21.648-.497l.023-.17c0-.11-.028-.22-.077-.31-.112-.21-.335-.36-.592-.36-.257 0-.48.14-.592.35-.05.09-.077.2-.077.31l.02.17c.07.28.33.49.64.49z" fill="#3A434E"/></g></svg>