<svg width="32" height="232" viewBox="0 0 32 232" xmlns="http://www.w3.org/2000/svg"><g fill="none"><path d="M5.948 143.645h2.437c.276 0 .5-.242.5-.54v-2.298c0-1.046-1.23-1.83-1.478-1.976-.15-.08-.33-.08-.48 0-.246.15-1.478.93-1.478 1.98v2.3c0 .3.22.54.5.54zm.5-2.84c0-.22.344-.59.718-.866.353.26.72.63.72.86v1.76H6.45v-1.76zm-.5 8.106h2.437c.276 0 .5-.24.5-.54v-2.29c0-1.04-1.23-1.83-1.478-1.97-.15-.09-.33-.09-.48 0-.246.15-1.478.93-1.478 1.98v2.3c0 .3.22.54.5.54zm.5-2.83c0-.22.345-.59.72-.86.374.28.718.65.718.87v1.76H6.45v-1.75zm-3.505-2.43h1.375c.276 0 .5-.24.5-.54v-2.3c0-.98-.754-1.8-.84-1.89-.193-.2-.502-.2-.697 0-.08.09-.83.91-.83 1.89v2.3c0 .3.23.54.5.54zm.5-2.84c0-.2.084-.42.188-.62.11.2.19.42.19.62v1.76h-.37v-1.76zm-.5 8.11h1.375c.276 0 .5-.24.5-.54v-2.3c0-.97-.754-1.79-.84-1.88-.193-.2-.502-.2-.697 0-.08.09-.83.91-.83 1.89v2.3c0 .3.23.54.5.54zm.5-2.84c0-.2.084-.42.188-.62.11.2.19.42.19.62v1.76h-.37v-1.76zm20.06-2.42h2.436c.27 0 .5-.24.5-.54v-2.3c0-1.04-1.24-1.83-1.48-1.97-.15-.09-.33-.09-.48 0-.25.15-1.48.93-1.48 1.98v2.3c0 .3.22.54.5.54zm.5-2.84c0-.22.343-.59.72-.87.374.28.718.65.718.87v1.76h-1.43v-1.75zm-.5 8.11h2.436c.27 0 .5-.24.5-.54v-2.29c0-1.04-1.24-1.83-1.48-1.97-.15-.09-.33-.09-.48 0-.25.15-1.48.93-1.48 1.98v2.3c0 .3.22.54.5.54zm.5-2.84c0-.22.343-.59.72-.86.374.28.718.65.718.87v1.76h-1.43v-1.76zm3.567-2.43h1.376c.275 0 .5-.24.5-.54v-2.3c0-.98-.753-1.8-.84-1.89-.194-.2-.502-.2-.696 0-.086.09-.84.91-.84 1.89v2.3c0 .3.223.54.5.54zm.5-2.84c0-.2.084-.42.19-.62.104.2.187.42.187.62v1.76h-.377v-1.76zm-.5 8.11h1.376c.275 0 .5-.24.5-.54v-2.3c0-.97-.753-1.79-.84-1.88-.194-.2-.502-.2-.696 0-.086.09-.84.91-.84 1.89v2.3c0 .3.223.54.5.54zm3.433-18.55c-.55 0-1 .49-1 1.09V137h-.436v-2.754c0-.3-.224-.54-.5-.54-.277 0-.5.24-.5.54v2.75H26.98c.208-.35.365-.8.365-1.374 0-1.31-.88-2.05-1.59-2.644-.307-.26-.6-.5-.78-.753v-.85c.104-.125.167-.29.167-.473 0-.397-.3-.72-.666-.72-.368 0-.667.323-.667.72 0 .182.06.35.16.476v.85c-.18.25-.48.498-.78.756-.17.138-.34.285-.51.444.01-.19.02-.39.02-.592 0-3.04-2.08-4.786-3.75-6.19-.86-.72-1.67-1.4-2.09-2.13-.06-.1-.13-.195-.21-.28l-.16-.114v-1.85c.24-.174.4-.472.4-.81 0-.536-.41-.973-.9-.973s-.9.44-.9.97c0 .34.16.63.4.81v1.85l-.03.01c-.16.1-.27.24-.35.39-.43.72-1.24 1.4-2.09 2.11-1.67 1.4-3.75 3.144-3.75 6.184 0 .202.01.4.02.59l-.51-.45c-.31-.254-.6-.5-.78-.75v-.85c.1-.13.17-.296.17-.478 0-.4-.3-.72-.67-.72-.36 0-.66.32-.66.72 0 .18.06.35.16.472v.85c-.18.25-.47.5-.78.76-.71.6-1.59 1.34-1.59 2.645 0 .57.16 1.022.36 1.372H3.45v-2.75c0-.3-.223-.54-.5-.54-.276 0-.5.24-.5.54V137h-.437v-5.53c0-.6-.447-1.08-1-1.08s-.998.482-.998 1.08v19.46c0 .594.446 1.08 1 1.08H16.1l14.898.006c.265 0 .52-.117.707-.32.187-.206.292-.48.292-.767v-19.47c0-.6-.45-1.08-1-1.08zm-2.933 15.71c0-.2.083-.42.188-.62.105.2.188.42.188.62v1.76h-.377v-1.76zM6.877 133.81c.23-.192.462-.387.668-.603.207.215.44.41.668.603.646.542 1.204 1.01 1.204 1.79 0 .796-.535 1.202-.74 1.328h-2.26c-.208-.128-.74-.534-.74-1.328 0-.78.558-1.248 1.203-1.79zm16.93 0c.227-.192.46-.387.667-.603.206.215.44.41.668.603.645.542 1.203 1.01 1.203 1.79 0 .796-.534 1.202-.74 1.328h-2.263c-.207-.128-.74-.534-.74-1.328 0-.78.558-1.248 1.204-1.79zM11.8 138.052v-.827h8.42v12.594h-.7v-7.57c0-1.62-1.46-3.08-2.425-3.87l-.422-.33-.408-.29c-.157-.1-.352-.1-.51 0l-.408.28-.422.33c-.966.79-2.425 2.25-2.425 3.87v7.56h-.7v-11.76zm4.21 6.213c-.408 0-.742.347-.76.784v4.7H13.5v-6.05c0-.93 1.455-2.09 2.507-2.69.265.15.738.45 1.21.83.84.68 1.304 1.34 1.304 1.85v6.05h-1.75v-4.71c-.01-.44-.35-.79-.76-.79zm.218-4.342c-.138-.073-.3-.073-.437 0-.19.102-1.24.677-2.11 1.523.45-1.057 1.63-2.073 2.33-2.577.71.5 1.89 1.51 2.33 2.57-.86-.85-1.91-1.42-2.11-1.53zm13.775 9.9l-7.786-.003v-11.768h7.786v11.77zm-20.2-11.77v11.764l-7.788-.002v-11.762h7.787zm14.67-7.54c.15 0 .273.105.316.25-.09-.076-.2-.124-.32-.124s-.23.04-.32.12c.04-.15.16-.25.31-.25zm-8.464-9.186c.05 0 .09.048.09.106 0 .058-.05.106-.1.106-.06 0-.1-.05-.1-.11s.04-.11.1-.11zm-1.74 6.998c.6-.502 1.21-1.015 1.73-1.586.52.57 1.13 1.08 1.73 1.58 1.53 1.28 2.97 2.49 2.97 4.48 0 .97-.31 1.71-.69 2.26h-8.02c-.38-.55-.69-1.29-.69-2.26 0-1.99 1.44-3.2 2.97-4.48zm-6.74 2.187c.15 0 .27.106.31.252-.09-.077-.2-.125-.32-.125s-.23.04-.32.12c.04-.15.17-.25.31-.25zm19.17-3.714l.02.028c.09.1.21.157.35.157.11 0 .21-.038.3-.107.11-.093.19-.238.2-.395.01-.11-.02-.23-.08-.33l-.04-.05-.03-.03c-.09-.1-.22-.15-.35-.15-.11 0-.21.04-.3.11-.12.1-.19.24-.2.4-.01.12.02.24.08.34l.04.06zm-19-1.733c.27 0 .5-.243.5-.54 0-.3-.23-.542-.5-.542-.28 0-.5.243-.5.54 0 .3.22.542.5.542zm13.57-1.024l.41.25.22.45c.08.18.25.28.44.28.18 0 .35-.1.43-.28l.23-.45.42-.24c.16-.09.26-.27.26-.47 0-.19-.1-.38-.26-.47l-.41-.24-.23-.45c-.09-.17-.26-.28-.44-.28s-.35.11-.44.28l-.23.45-.416.25c-.16.1-.26.28-.26.48 0 .2.1.38.26.48z" fill="#206FAC"/><path d="M5.948 103.645h2.437c.276 0 .5-.242.5-.54v-2.298c0-1.046-1.23-1.83-1.478-1.976-.15-.08-.33-.08-.48 0-.246.15-1.478.93-1.478 1.98v2.3c0 .3.22.54.5.54zm.5-2.84c0-.22.344-.59.718-.866.353.26.72.63.72.86v1.76H6.45v-1.76zm-.5 8.106h2.437c.276 0 .5-.24.5-.54v-2.29c0-1.04-1.23-1.83-1.478-1.97-.15-.09-.33-.09-.48 0-.246.15-1.478.93-1.478 1.98v2.3c0 .3.22.54.5.54zm.5-2.83c0-.22.345-.59.72-.86.374.28.718.65.718.87v1.76H6.45v-1.75zm-3.505-2.43h1.375c.276 0 .5-.24.5-.54v-2.3c0-.98-.754-1.8-.84-1.89-.193-.2-.502-.2-.697 0-.08.09-.83.91-.83 1.89v2.3c0 .3.23.54.5.54zm.5-2.84c0-.2.084-.42.188-.62.11.2.19.42.19.62v1.76h-.37v-1.76zm-.5 8.11h1.375c.276 0 .5-.24.5-.54v-2.3c0-.97-.754-1.79-.84-1.88-.193-.2-.502-.2-.697 0-.08.09-.83.91-.83 1.89v2.3c0 .3.23.54.5.54zm.5-2.84c0-.2.084-.42.188-.62.11.2.19.42.19.62v1.76h-.37v-1.76zm20.06-2.42h2.436c.27 0 .5-.24.5-.54v-2.3c0-1.04-1.24-1.83-1.48-1.97-.15-.09-.33-.09-.48 0-.25.15-1.48.93-1.48 1.98v2.3c0 .3.22.54.5.54zm.5-2.84c0-.22.343-.59.72-.87.374.28.718.65.718.87v1.76h-1.43v-1.75zm-.5 8.11h2.436c.27 0 .5-.24.5-.54v-2.29c0-1.04-1.24-1.83-1.48-1.97-.15-.09-.33-.09-.48 0-.25.15-1.48.93-1.48 1.98v2.3c0 .3.22.54.5.54zm.5-2.84c0-.22.343-.59.72-.86.374.28.718.65.718.87v1.76h-1.43v-1.76zm3.567-2.43h1.376c.275 0 .5-.24.5-.54v-2.3c0-.98-.753-1.8-.84-1.89-.194-.2-.502-.2-.696 0-.086.09-.84.91-.84 1.89v2.3c0 .3.223.54.5.54zm.5-2.84c0-.2.084-.42.19-.62.104.2.187.42.187.62v1.76h-.377v-1.76zm-.5 8.11h1.376c.275 0 .5-.24.5-.54v-2.3c0-.97-.753-1.79-.84-1.88-.194-.2-.502-.2-.696 0-.086.09-.84.91-.84 1.89v2.3c0 .3.223.54.5.54zm3.433-18.55c-.55 0-1 .49-1 1.09V97h-.436v-2.76c0-.3-.224-.54-.5-.54-.277 0-.5.24-.5.54v2.75H26.98c.208-.35.365-.803.365-1.374 0-1.31-.88-2.05-1.59-2.644-.307-.26-.6-.503-.78-.755v-.85c.104-.13.167-.296.167-.48 0-.395-.3-.72-.666-.72-.368 0-.667.325-.667.72 0 .184.06.35.16.478v.85c-.18.25-.48.5-.78.757-.17.14-.34.286-.51.445.01-.19.02-.39.02-.592 0-3.04-2.08-4.784-3.75-6.186-.86-.72-1.67-1.4-2.09-2.13-.06-.1-.13-.19-.21-.28l-.16-.11v-1.85c.24-.17.4-.47.4-.81 0-.53-.41-.97-.9-.97s-.9.44-.9.98c0 .34.16.63.4.81v1.85l-.03.01c-.16.1-.27.24-.35.4-.43.73-1.24 1.4-2.09 2.12-1.67 1.4-3.75 3.15-3.75 6.19 0 .21.01.4.02.6l-.5-.45c-.31-.26-.6-.51-.79-.76v-.85c.1-.13.17-.29.17-.48 0-.4-.3-.72-.67-.72-.37 0-.67.32-.67.72 0 .18.06.35.166.48v.85c-.18.25-.47.5-.78.76-.71.59-1.59 1.33-1.59 2.64 0 .57.16 1.03.362 1.38H3.45v-2.76c0-.3-.223-.54-.5-.54-.276 0-.5.24-.5.54V97h-.437v-5.53c0-.6-.447-1.083-1-1.083s-.998.486-.998 1.08v19.46c0 .596.446 1.08 1 1.08l9.755.003.027.004H16.1l14.898.005c.265 0 .52-.12.707-.32.187-.21.292-.48.292-.77V91.44c0-.597-.45-1.08-1-1.08zm-2.933 15.71c0-.2.083-.42.188-.62.105.2.188.42.188.62v1.76h-.377v-1.76zM6.877 93.81c.23-.192.462-.387.668-.603.207.215.44.41.668.603.646.542 1.204 1.01 1.204 1.79 0 .796-.535 1.202-.74 1.328h-2.26c-.208-.128-.74-.534-.74-1.328 0-.78.558-1.248 1.203-1.79zm16.93 0c.227-.192.46-.387.667-.603.206.215.44.41.668.603.645.542 1.203 1.01 1.203 1.79 0 .796-.534 1.202-.74 1.328h-2.263c-.207-.128-.74-.534-.74-1.328 0-.78.558-1.248 1.204-1.79zM11.8 98.052v-.827h8.42v12.594h-.7v-7.57c0-1.62-1.46-3.08-2.425-3.87l-.422-.33-.408-.29c-.157-.1-.352-.1-.51 0l-.408.28-.422.33c-.966.79-2.425 2.25-2.425 3.87v7.56h-.7V98.05zm4.21 6.213c-.408 0-.742.347-.76.784v4.7H13.5v-6.05c0-.93 1.455-2.09 2.507-2.69.265.15.738.45 1.21.83.84.68 1.304 1.34 1.304 1.85v6.05h-1.75v-4.71c-.01-.44-.35-.79-.76-.79zm.218-4.342c-.138-.073-.3-.073-.437 0-.19.102-1.24.677-2.11 1.523.45-1.057 1.63-2.073 2.33-2.577.71.5 1.89 1.51 2.33 2.57-.86-.85-1.91-1.42-2.11-1.53zm13.775 9.9l-7.786-.003V98.052h7.786v11.77zm-20.2-11.77v11.764l-7.788-.002V98.053h7.787zm14.67-7.54c.15 0 .273.105.316.25-.09-.076-.2-.124-.32-.124s-.23.04-.32.12c.04-.15.16-.25.31-.25zm-8.464-9.186c.05 0 .09.048.09.106 0 .058-.05.106-.1.106-.06 0-.1-.05-.1-.11s.04-.11.1-.11zm-1.74 6.998c.6-.502 1.21-1.015 1.73-1.586.52.57 1.13 1.08 1.73 1.58 1.53 1.28 2.97 2.49 2.97 4.48 0 .97-.31 1.71-.69 2.26h-8.02c-.38-.55-.69-1.29-.69-2.26 0-1.99 1.44-3.2 2.97-4.48zm-6.73 2.187c.15 0 .27.106.31.252-.09-.077-.2-.125-.32-.125s-.23.04-.32.12c.04-.15.17-.25.31-.25zm19.17-3.714l.02.028c.09.1.22.157.35.157.1 0 .21-.038.3-.107.11-.093.19-.238.2-.395 0-.11-.03-.23-.09-.33l-.04-.05-.03-.03c-.09-.1-.22-.15-.35-.15-.11 0-.22.04-.3.11-.12.1-.19.24-.2.4-.01.12.02.24.08.34l.04.06zm-19-1.733c.27 0 .5-.243.5-.54 0-.3-.23-.542-.5-.542-.28 0-.5.243-.5.54 0 .3.22.542.5.542zm13.57-1.024l.41.25.22.45c.08.18.25.28.44.28s.35-.1.44-.28l.23-.45.42-.24c.16-.09.26-.27.26-.47 0-.19-.1-.38-.26-.47l-.41-.24-.23-.45c-.09-.17-.26-.28-.44-.28s-.35.11-.44.28l-.23.45-.42.25c-.16.1-.26.28-.26.48 0 .2.1.38.26.48z" fill="#fff"/><path d="M5.948 63.645h2.437c.276 0 .5-.242.5-.54v-2.298c0-1.046-1.23-1.83-1.478-1.976-.15-.08-.33-.08-.48 0-.246.15-1.478.93-1.478 1.98v2.3c0 .3.22.54.5.54zm.5-2.84c0-.22.344-.59.718-.866.353.26.72.63.72.86v1.76H6.45V60.8zm-.5 8.106h2.437c.276 0 .5-.24.5-.54v-2.29c0-1.04-1.23-1.83-1.478-1.97-.15-.09-.33-.09-.48 0-.246.15-1.478.93-1.478 1.98v2.3c0 .3.22.54.5.54zm.5-2.83c0-.22.345-.59.72-.86.374.28.718.65.718.87v1.76H6.45v-1.76zm-3.505-2.43h1.375c.276 0 .5-.24.5-.54v-2.3c0-.98-.754-1.8-.84-1.89-.193-.2-.502-.2-.697 0-.08.09-.83.91-.83 1.89v2.3c0 .3.23.54.5.54zm.5-2.84c0-.2.084-.42.188-.62.11.2.19.42.19.62v1.76h-.37v-1.76zm-.5 8.11h1.375c.276 0 .5-.24.5-.54v-2.3c0-.97-.754-1.79-.84-1.88-.193-.2-.502-.2-.697 0-.08.09-.83.91-.83 1.89v2.3c0 .3.23.54.5.54zm.5-2.84c0-.2.084-.42.188-.62.11.2.19.42.19.62v1.76h-.37v-1.76zm20.06-2.42h2.436c.27 0 .5-.24.5-.54v-2.3c0-1.05-1.24-1.83-1.48-1.98-.15-.09-.33-.09-.48 0-.25.15-1.48.93-1.48 1.98v2.3c0 .3.22.54.5.54zm.5-2.84c0-.22.343-.59.72-.87.374.28.718.65.718.87v1.76h-1.43v-1.76zm-.5 8.11h2.436c.27 0 .5-.24.5-.54v-2.3c0-1.04-1.24-1.83-1.48-1.97-.15-.09-.33-.09-.48 0-.25.15-1.48.93-1.48 1.98v2.3c0 .3.22.54.5.54zm.5-2.84c0-.22.343-.59.72-.86.374.28.718.65.718.87v1.76h-1.43V66.1zm3.567-2.43h1.376c.275 0 .5-.24.5-.54v-2.3c0-.98-.753-1.8-.84-1.89-.194-.2-.502-.2-.696 0-.086.09-.84.91-.84 1.89v2.3c0 .3.223.54.5.54zm.5-2.84c0-.2.084-.42.19-.62.104.2.187.42.187.62v1.76h-.377V60.8zm-.5 8.11h1.376c.275 0 .5-.24.5-.54v-2.3c0-.97-.753-1.79-.84-1.88-.194-.2-.502-.2-.696 0-.086.09-.84.91-.84 1.89v2.3c0 .3.223.54.5.54zm3.433-18.55c-.55 0-1 .49-1 1.09V57h-.436v-2.76c0-.3-.224-.54-.5-.54-.277 0-.5.24-.5.54v2.754H26.98c.208-.35.365-.805.365-1.376 0-1.31-.88-2.05-1.59-2.646-.307-.26-.6-.503-.78-.755v-.85c.104-.13.167-.29.167-.472 0-.396-.3-.72-.666-.72-.368 0-.667.324-.667.72 0 .183.06.35.16.477v.85c-.18.25-.48.495-.78.753-.17.137-.34.284-.51.443.01-.19.02-.39.02-.592 0-3.04-2.08-4.784-3.75-6.186-.86-.72-1.67-1.4-2.09-2.127-.06-.1-.13-.19-.21-.28l-.16-.11v-1.85c.24-.172.4-.47.4-.81 0-.534-.41-.97-.9-.97s-.9.437-.9.974c0 .34.16.64.4.81v1.85l-.03.02c-.16.1-.27.24-.35.393-.43.73-1.24 1.4-2.09 2.12-1.67 1.403-3.75 3.15-3.75 6.19 0 .202.01.4.02.59l-.5-.44c-.31-.258-.6-.504-.78-.756v-.85c.1-.125.17-.292.17-.474 0-.395-.3-.72-.67-.72-.37 0-.66.325-.66.72 0 .184.06.35.16.478v.85c-.18.25-.47.5-.78.758-.71.596-1.59 1.336-1.59 2.645 0 .57.16 1.03.36 1.38H3.45v-2.76c0-.29-.223-.54-.5-.54-.276 0-.5.25-.5.54V57h-.437v-5.53c0-.6-.447-1.082-1-1.082s-.998.49-.998 1.08V70.9c0 .597.446 1.08 1 1.08l9.755.004.027.003H16.1l14.9.003c.265 0 .52-.113.707-.316.187-.203.292-.478.292-.764V51.44c0-.597-.45-1.08-1-1.08zm-2.933 15.7c0-.2.083-.42.188-.62.105.2.188.42.188.62v1.76h-.377v-1.76zM6.877 53.81c.23-.192.462-.387.668-.603.207.215.44.41.668.603.646.542 1.204 1.01 1.204 1.79 0 .796-.535 1.202-.74 1.328h-2.26c-.208-.128-.74-.534-.74-1.328 0-.78.558-1.248 1.203-1.79zm16.93 0c.227-.192.46-.387.667-.603.206.215.44.41.668.603.645.542 1.203 1.01 1.203 1.79 0 .796-.534 1.202-.74 1.328h-2.263c-.207-.128-.74-.534-.74-1.328 0-.78.558-1.248 1.204-1.79zM11.8 58.052v-.827h8.42V69.82h-.7v-7.57c0-1.617-1.46-3.08-2.425-3.87l-.422-.33-.408-.286c-.157-.1-.352-.1-.51 0l-.408.286-.422.33c-.966.79-2.425 2.253-2.425 3.87v7.566h-.7V58.052zm4.21 6.213c-.408 0-.742.347-.76.784v4.7H13.5V63.7c0-.927 1.455-2.082 2.507-2.686.265.156.738.45 1.21.83.84.684 1.304 1.343 1.304 1.857v6.06h-1.75v-4.71c-.01-.43-.35-.78-.76-.78zm.218-4.342c-.138-.073-.3-.073-.437 0-.19.102-1.24.677-2.11 1.523.45-1.057 1.63-2.073 2.33-2.577.71.5 1.89 1.51 2.33 2.57-.86-.85-1.91-1.42-2.11-1.53zm13.775 9.9l-7.786-.003V58.052h7.786v11.77zm-20.2-11.77v11.764l-7.788-.002V58.053h7.787zm14.67-7.54c.15 0 .273.105.316.25-.09-.076-.2-.124-.32-.124s-.23.04-.32.12c.04-.15.16-.25.31-.25zm-8.464-9.186c.05 0 .09.048.09.106 0 .058-.05.106-.1.106-.06 0-.1-.05-.1-.11s.04-.11.1-.11zm-1.74 6.998c.6-.502 1.21-1.015 1.73-1.586.52.57 1.13 1.08 1.73 1.58 1.53 1.28 2.97 2.49 2.97 4.48 0 .97-.31 1.71-.69 2.26h-8.02c-.38-.55-.69-1.29-.69-2.26 0-1.99 1.44-3.2 2.97-4.48zm-6.73 2.187c.15 0 .27.106.31.252-.09-.077-.2-.125-.32-.125s-.23.04-.32.12c.04-.15.17-.25.31-.25zm19.17-3.714l.02.028c.09.1.22.157.35.157.1 0 .21-.038.3-.107.11-.093.19-.238.2-.395 0-.11-.03-.23-.09-.33l-.04-.05-.03-.03c-.09-.1-.22-.15-.35-.15-.11 0-.22.04-.3.11-.12.1-.19.24-.2.4-.01.12.02.24.08.34l.04.06zm-19-1.733c.27 0 .5-.243.5-.54 0-.3-.23-.542-.5-.542-.28 0-.5.243-.5.54 0 .3.22.542.5.542zm13.57-1.024l.41.25.22.45c.08.18.25.28.44.28s.35-.1.44-.28l.23-.45.42-.24c.16-.09.26-.27.26-.47 0-.19-.1-.38-.26-.47l-.41-.24-.23-.45c-.09-.17-.26-.28-.44-.28s-.35.11-.44.28l-.23.45-.42.25c-.16.1-.26.28-.26.48 0 .2.1.38.26.48z" fill="#67737B"/><path d="M5.948 23.645h2.437c.276 0 .5-.242.5-.54v-2.298c0-1.046-1.23-1.83-1.478-1.976-.15-.08-.33-.08-.48 0-.246.15-1.478.93-1.478 1.98v2.3c0 .3.22.54.5.54zm.5-2.84c0-.22.344-.59.718-.866.353.26.72.63.72.86v1.76H6.45V20.8zm-.5 8.106h2.437c.276 0 .5-.24.5-.54v-2.29c0-1.04-1.23-1.83-1.478-1.97-.15-.09-.33-.09-.48 0-.246.15-1.478.93-1.478 1.98v2.3c0 .3.22.54.5.54zm.5-2.83c0-.22.345-.59.72-.86.374.28.718.65.718.87v1.76H6.45v-1.76zm-3.505-2.43h1.375c.276 0 .5-.24.5-.54v-2.3c0-.98-.754-1.8-.84-1.89-.193-.2-.502-.2-.697 0-.08.09-.83.91-.83 1.89v2.3c0 .3.23.54.5.54zm.5-2.84c0-.2.084-.42.188-.62.11.2.19.42.19.62v1.76h-.37v-1.76zm-.5 8.11h1.375c.276 0 .5-.24.5-.54v-2.3c0-.97-.754-1.79-.84-1.88-.193-.2-.502-.2-.697 0-.08.09-.83.91-.83 1.89v2.3c0 .3.23.54.5.54zm.5-2.84c0-.2.084-.42.188-.62.11.2.19.42.19.62v1.76h-.37v-1.76zm20.06-2.42h2.436c.27 0 .5-.24.5-.54v-2.3c0-1.05-1.24-1.83-1.48-1.98-.15-.09-.33-.09-.48 0-.25.15-1.48.93-1.48 1.98v2.3c0 .3.22.54.5.54zm.5-2.84c0-.22.343-.59.72-.87.374.28.718.65.718.87v1.76h-1.43v-1.76zm-.5 8.11h2.436c.27 0 .5-.24.5-.54v-2.3c0-1.04-1.24-1.83-1.48-1.97-.15-.09-.33-.09-.48 0-.25.15-1.48.93-1.48 1.98v2.3c0 .3.22.54.5.54zm.5-2.84c0-.22.343-.59.72-.86.374.28.718.65.718.87v1.76h-1.43V26.1zm3.567-2.43h1.376c.275 0 .5-.24.5-.54v-2.3c0-.98-.753-1.8-.84-1.89-.194-.2-.502-.2-.696 0-.086.09-.84.91-.84 1.89v2.3c0 .3.223.54.5.54zm.5-2.84c0-.2.084-.42.19-.62.104.2.187.42.187.62v1.76h-.377V20.8zm-.5 8.11h1.376c.275 0 .5-.24.5-.54v-2.3c0-.97-.753-1.79-.84-1.88-.194-.2-.502-.2-.696 0-.086.09-.84.91-.84 1.89v2.3c0 .3.223.54.5.54zm3.433-18.55c-.55 0-1 .49-1 1.09V17h-.436v-2.76c0-.3-.224-.54-.5-.54-.277 0-.5.24-.5.54v2.754H26.98c.208-.35.365-.805.365-1.376 0-1.31-.88-2.05-1.59-2.646-.307-.26-.6-.503-.78-.755v-.85c.104-.13.167-.29.167-.472 0-.396-.3-.72-.666-.72-.368 0-.667.324-.667.72 0 .183.06.35.16.477v.85c-.18.25-.48.495-.78.753-.17.137-.34.284-.51.443.01-.19.02-.39.02-.592 0-3.04-2.08-4.784-3.75-6.186-.86-.72-1.67-1.4-2.09-2.127-.06-.1-.13-.19-.21-.28l-.16-.11V2.25c.24-.175.4-.473.4-.81 0-.537-.41-.974-.9-.974s-.9.438-.9.975c0 .34.16.64.4.81V4.1l-.03.015c-.16.1-.27.24-.35.396-.43.73-1.24 1.4-2.09 2.12-1.66 1.4-3.74 3.14-3.74 6.18 0 .21.01.4.02.6l-.51-.44c-.31-.25-.6-.5-.78-.75v-.85c.1-.12.17-.29.17-.47 0-.4-.3-.72-.67-.72-.37 0-.67.32-.67.72 0 .18.06.35.16.47v.85c-.18.25-.48.5-.78.76-.71.6-1.59 1.34-1.59 2.64 0 .57.15 1.02.36 1.37H3.45v-2.76c0-.29-.223-.54-.5-.54-.276 0-.5.25-.5.54v2.76h-.437v-5.53c0-.6-.447-1.08-1-1.08s-.998.49-.998 1.08V30.9c0 .597.446 1.08 1 1.08l9.755.004.028.003h5.3l14.9.003c.263 0 .52-.113.705-.316.187-.203.292-.478.292-.764V11.44c0-.597-.45-1.08-1-1.08zm-2.933 15.7c0-.2.083-.42.188-.62.105.2.188.42.188.62v1.76h-.377v-1.76zM6.877 13.81c.23-.192.462-.387.668-.603.207.215.44.41.668.603.646.542 1.204 1.01 1.204 1.79 0 .796-.535 1.202-.74 1.328h-2.26c-.208-.128-.74-.534-.74-1.328 0-.78.558-1.248 1.203-1.79zm16.93 0c.227-.192.46-.387.667-.603.206.215.44.41.668.603.645.542 1.203 1.01 1.203 1.79 0 .796-.534 1.202-.74 1.328h-2.263c-.207-.128-.74-.534-.74-1.328 0-.78.558-1.248 1.204-1.79zM11.8 18.052v-.827h8.42V29.82h-.7v-7.57c0-1.617-1.46-3.08-2.425-3.87l-.422-.33-.408-.286c-.157-.1-.352-.1-.51 0l-.408.286-.422.33c-.966.79-2.425 2.253-2.425 3.87v7.566h-.7V18.052zm4.21 6.213c-.408 0-.742.347-.76.784v4.7H13.5V23.7c0-.927 1.455-2.082 2.507-2.686.265.156.738.45 1.21.83.84.684 1.304 1.343 1.304 1.857v6.06h-1.75v-4.71c-.01-.43-.35-.78-.76-.78zm.218-4.342c-.138-.073-.3-.073-.437 0-.19.102-1.24.677-2.11 1.523.45-1.057 1.63-2.073 2.33-2.577.71.5 1.89 1.51 2.33 2.57-.86-.85-1.91-1.42-2.11-1.53zm13.775 9.9l-7.786-.003V18.052h7.786v11.77zm-20.2-11.77v11.764l-7.788-.002V18.053h7.787zm14.67-7.54c.15 0 .273.105.316.25-.09-.076-.2-.124-.32-.124s-.23.04-.32.12c.04-.15.16-.25.31-.25zM16.01 1.326c.052 0 .097.048.097.106 0 .058-.044.106-.098.106-.06 0-.1-.05-.1-.107 0-.05.04-.1.1-.1zm-1.733 6.998c.598-.502 1.208-1.015 1.732-1.586.52.57 1.13 1.082 1.73 1.585 1.53 1.284 2.97 2.497 2.97 4.48 0 .97-.31 1.713-.69 2.26h-8.03c-.38-.547-.69-1.29-.69-2.26 0-1.983 1.44-3.196 2.97-4.48zM7.544 10.51c.15 0 .273.107.315.253-.09-.077-.2-.125-.32-.125s-.23.047-.32.124c.04-.145.17-.252.31-.252zM26.72 6.8h.002l.024.028c.092.1.218.157.352.157.108 0 .212-.038.3-.107.116-.093.19-.238.2-.395.007-.117-.023-.236-.083-.335l-.04-.057-.024-.03c-.09-.1-.21-.15-.35-.15-.1 0-.21.04-.3.11-.11.1-.19.24-.2.4 0 .12.03.24.09.34l.04.06zM7.71 5.065c.277 0 .5-.243.5-.54 0-.3-.223-.542-.5-.542-.274 0-.5.243-.5.54 0 .3.225.542.5.542zM21.283 4.04l.416.247.22.45c.08.173.25.28.44.28s.35-.107.44-.28l.23-.45.41-.246c.16-.09.26-.27.26-.47 0-.19-.1-.38-.26-.47l-.42-.24-.23-.45c-.09-.17-.26-.28-.44-.28s-.35.11-.44.28l-.23.45-.42.25c-.16.1-.26.28-.26.48 0 .2.1.38.26.47z" fill="#3A434E"/></g></svg>