<svg width="32" height="232" viewBox="0 0 32 232" xmlns="http://www.w3.org/2000/svg"><g fill="none">
			<path id="XMLID_2018_" fill="#3A444F" d="M27.1,23.6c-0.5,0-0.7,0.1-0.9,0.2c-0.2,0.1-0.3,0.1-0.6,0.1c-0.3,0-0.4,0-0.6-0.1
				c-0.1,0-0.2-0.1-0.4-0.1l-0.7-2.3c-0.1-0.2-0.2-0.3-0.4-0.3h-0.6v-9.4V9.2V9.1V7.3V5.7C22.9,5.6,23,5.5,23,5.3V4
				c0-0.8-0.9-1.4-1.4-1.7V1.5c0-0.3-0.2-0.5-0.5-0.5c-0.3,0-0.5,0.2-0.5,0.5v0.9c-0.5,0.3-1.4,0.9-1.4,1.7v1.3c0,0,0,0.1,0,0.1
				h-6.6c0,0,0-0.1,0-0.1V4c0-0.8-0.9-1.4-1.4-1.7V1.5c0-0.3-0.2-0.5-0.5-0.5c-0.3,0-0.5,0.2-0.5,0.5v0.9C9.9,2.6,9,3.2,9,4v1.3
				c0,0.1,0.1,0.3,0.1,0.3v1.7v1.8v0.1v0.3v2.2v9.4H8.5c-0.2,0-0.4,0.1-0.4,0.3l-0.8,2.4c-0.2-0.1-0.4-0.2-0.9-0.2
				c-0.5,0-0.7,0.1-0.9,0.2c-0.2,0.1-0.3,0.1-0.6,0.1c-0.3,0-0.5,0.2-0.5,0.5c0,0.3,0.2,0.5,0.5,0.5c0.5,0,0.7-0.1,0.9-0.2
				c0.2-0.1,0.3-0.1,0.6-0.1c0.3,0,0.4,0,0.6,0.1c0.2,0.1,0.5,0.2,0.9,0.2c0.5,0,0.7-0.1,0.9-0.2c0.2-0.1,0.3-0.1,0.6-0.1
				c0.3,0,0.4,0,0.6,0.1c0.2,0.1,0.5,0.2,0.9,0.2c0.5,0,0.7-0.1,0.9-0.2c0.2-0.1,0.3-0.1,0.6-0.1c0.3,0,0.4,0,0.6,0.1
				c0.2,0.1,0.5,0.2,0.9,0.2c0.5,0,0.7-0.1,0.9-0.2c0.2-0.1,0.3-0.1,0.6-0.1s0.4,0,0.6,0.1c0.2,0.1,0.5,0.2,0.9,0.2
				c0.5,0,0.7-0.1,0.9-0.2c0.2-0.1,0.3-0.1,0.6-0.1c0.3,0,0.4,0,0.6,0.1c0.2,0.1,0.5,0.2,0.9,0.2c0.5,0,0.7-0.1,0.9-0.2
				c0.2-0.1,0.3-0.1,0.6-0.1c0.3,0,0.4,0,0.6,0.1c0.2,0.1,0.5,0.2,0.9,0.2c0.5,0,0.7-0.1,0.9-0.2c0.2-0.1,0.3-0.1,0.6-0.1
				c0.3,0,0.4,0,0.6,0.1c0.2,0.1,0.5,0.2,0.9,0.2c0.5,0,0.7-0.1,0.9-0.2c0.2-0.1,0.3-0.1,0.6-0.1c0.3,0,0.5-0.2,0.5-0.5
				C27.5,23.9,27.3,23.6,27.1,23.6z M18.8,21.1v-5.4c0-0.6-0.5-1.2-1.4-1.7c-0.6-0.4-1.2-0.6-1.3-0.6c-0.1,0-0.2,0-0.3,0
				c0,0-0.6,0.3-1.3,0.6c-1,0.6-1.4,1.1-1.4,1.7v5.4h-0.6v-9h6.9v9H18.8z M17.9,21.1h-3.8v-5.4c0-0.3,0.8-1,1.9-1.4
				c1.1,0.5,1.9,1.1,1.9,1.4V21.1z M11.8,4.5v0.4H10V4.5H11.8z M13.4,10.8c0.3,0,0.5-0.2,0.5-0.5V9.9h0.3v0.4c0,0.3,0.2,0.5,0.5,0.5
				c0.3,0,0.5-0.2,0.5-0.5V9.9h0.3v0.4c0,0.3,0.2,0.5,0.5,0.5c0.3,0,0.5-0.2,0.5-0.5V9.9h0.3v0.4c0,0.3,0.2,0.5,0.5,0.5
				s0.5-0.2,0.5-0.5V9.9h0.3v0.4c0,0.3,0.2,0.5,0.5,0.5c0.3,0,0.5-0.2,0.5-0.5V9.9h0.4v1.3h-6.9V9.9H13v0.4
				C13,10.6,13.2,10.8,13.4,10.8z M22,4.5v0.4h-1.8V4.5H22z M21.9,6.9h-1.5V5.9V5.8h1.5V6.9z M21.9,7.8v0.9h-1.5V7.8H21.9z
				 M20.4,9.6h1.5v1.5h-1.5V9.6z M10.1,7.8h1.5v0.9h-1.5V7.8z M11.6,5.9v0.9h-1.5v-1L11.6,5.9L11.6,5.9z M10.1,9.9h1.5v1.3h-1.5V9.9
				z M20.4,12.1h1.5v9h-1.5V12.1z M21.1,3.2c0.2,0.1,0.4,0.2,0.5,0.4h-1.1C20.7,3.4,20.9,3.3,21.1,3.2z M19.4,6.4v0.9V9h-6.9V7.3
				V6.4H19.4z M10.9,3.2c0.2,0.1,0.4,0.3,0.5,0.4h-1.1C10.5,3.4,10.7,3.3,10.9,3.2z M10.1,12.1h1.5v9h-1.5V12.1z M23.2,23.8
				c-0.2,0.1-0.3,0.1-0.6,0.1c-0.3,0-0.4,0-0.6-0.1c-0.2-0.1-0.5-0.2-0.9-0.2c-0.5,0-0.7,0.1-0.9,0.2c-0.2,0.1-0.3,0.1-0.6,0.1
				c-0.3,0-0.4,0-0.6-0.1c-0.2-0.1-0.5-0.2-0.9-0.2c-0.5,0-0.7,0.1-0.9,0.2c-0.2,0.1-0.3,0.1-0.6,0.1c-0.3,0-0.4,0-0.6-0.1
				c-0.2-0.1-0.5-0.2-0.9-0.2c-0.5,0-0.7,0.1-0.9,0.2c-0.2,0.1-0.3,0.1-0.6,0.1c-0.3,0-0.4,0-0.6-0.1c-0.2-0.1-0.5-0.2-0.9-0.2
				c-0.5,0-0.7,0.1-0.9,0.2c-0.2,0.1-0.3,0.1-0.6,0.1c-0.3,0-0.4,0-0.6-0.1c-0.2-0.1-0.5-0.2-0.9-0.2c-0.5,0-0.7,0.1-0.9,0.2
				c-0.1,0-0.1,0-0.2,0.1l0.6-1.8h0.8h2.4h1.5h4.8h1.6h2.4h0.8l0.5,1.6C23.5,23.7,23.3,23.8,23.2,23.8z"/>
			<path id="XMLID_2017_" fill="#3A444F" d="M18.7,12.8c-0.1-0.1-0.2-0.1-0.3-0.1c-0.1,0-0.2,0-0.3,0.1c-0.1,0.1-0.2,0.4-0.1,0.5
				c0.1,0.1,0.2,0.2,0.4,0.3c0,0,0,0,0.1,0c0.1,0,0.2,0,0.3-0.1c0.1-0.1,0.2-0.4,0.1-0.5C18.7,12.9,18.7,12.8,18.7,12.8z"/>
			<path id="XMLID_2016_" fill="#3A444F" d="M13.6,12.7c-0.1,0-0.2,0-0.3,0.1c-0.1,0.1-0.1,0.2-0.1,0.3c0,0.1,0.1,0.2,0.1,0.3
				c0.1,0.1,0.2,0.1,0.3,0.1c0.1,0,0.2,0,0.3-0.1c0.1-0.1,0.2-0.4,0.1-0.5C13.9,12.8,13.8,12.7,13.6,12.7z"/>
		</g>
		<g id="XMLID_2400_">
			<path id="XMLID_2403_" fill="#67737C" d="M27.1,63.6c-0.5,0-0.7,0.1-0.9,0.2c-0.2,0.1-0.3,0.1-0.6,0.1c-0.3,0-0.4,0-0.6-0.1
				c-0.1,0-0.2-0.1-0.4-0.1l-0.7-2.3c-0.1-0.2-0.2-0.3-0.4-0.3h-0.6v-9.4v-2.5v-0.1v-1.8v-1.7c0.1-0.1,0.1-0.2,0.1-0.3V44
				c0-0.8-0.9-1.4-1.4-1.7v-0.9c0-0.3-0.2-0.5-0.5-0.5c-0.3,0-0.5,0.2-0.5,0.5v0.9c-0.5,0.3-1.4,0.9-1.4,1.7v1.3c0,0,0,0.1,0,0.1
				h-6.6c0,0,0-0.1,0-0.1V44c0-0.8-0.9-1.4-1.4-1.7v-0.9c0-0.3-0.2-0.5-0.5-0.5c-0.3,0-0.5,0.2-0.5,0.5v0.9C9.9,42.6,9,43.2,9,44
				v1.3c0,0.1,0.1,0.3,0.1,0.3v1.7v1.8v0.1v0.3v2.2v9.4H8.5c-0.2,0-0.4,0.1-0.4,0.3l-0.8,2.4c-0.2-0.1-0.4-0.2-0.9-0.2
				c-0.5,0-0.7,0.1-0.9,0.2c-0.2,0.1-0.3,0.1-0.6,0.1c-0.3,0-0.5,0.2-0.5,0.5c0,0.3,0.2,0.5,0.5,0.5c0.5,0,0.7-0.1,0.9-0.2
				c0.2-0.1,0.3-0.1,0.6-0.1c0.3,0,0.4,0,0.6,0.1c0.2,0.1,0.5,0.2,0.9,0.2c0.5,0,0.7-0.1,0.9-0.2c0.2-0.1,0.3-0.1,0.6-0.1
				c0.3,0,0.4,0,0.6,0.1c0.2,0.1,0.5,0.2,0.9,0.2c0.5,0,0.7-0.1,0.9-0.2c0.2-0.1,0.3-0.1,0.6-0.1c0.3,0,0.4,0,0.6,0.1
				c0.2,0.1,0.5,0.2,0.9,0.2c0.5,0,0.7-0.1,0.9-0.2c0.2-0.1,0.3-0.1,0.6-0.1s0.4,0,0.6,0.1c0.2,0.1,0.5,0.2,0.9,0.2
				c0.5,0,0.7-0.1,0.9-0.2c0.2-0.1,0.3-0.1,0.6-0.1c0.3,0,0.4,0,0.6,0.1c0.2,0.1,0.5,0.2,0.9,0.2c0.5,0,0.7-0.1,0.9-0.2
				c0.2-0.1,0.3-0.1,0.6-0.1c0.3,0,0.4,0,0.6,0.1c0.2,0.1,0.5,0.2,0.9,0.2c0.5,0,0.7-0.1,0.9-0.2c0.2-0.1,0.3-0.1,0.6-0.1
				c0.3,0,0.4,0,0.6,0.1c0.2,0.1,0.5,0.2,0.9,0.2c0.5,0,0.7-0.1,0.9-0.2c0.2-0.1,0.3-0.1,0.6-0.1c0.3,0,0.5-0.2,0.5-0.5
				C27.5,63.9,27.3,63.6,27.1,63.6z M18.8,61.1v-5.4c0-0.6-0.5-1.2-1.4-1.7c-0.6-0.4-1.2-0.6-1.3-0.6c-0.1,0-0.2,0-0.3,0
				c0,0-0.6,0.3-1.3,0.6c-1,0.6-1.4,1.1-1.4,1.7v5.4h-0.6v-9h6.9v9H18.8z M17.9,61.1h-3.8v-5.4c0-0.3,0.8-1,1.9-1.4
				c1.1,0.5,1.9,1.1,1.9,1.4V61.1z M11.8,44.5v0.4H10v-0.4H11.8z M13.4,50.8c0.3,0,0.5-0.2,0.5-0.5v-0.4h0.3v0.4
				c0,0.3,0.2,0.5,0.5,0.5c0.3,0,0.5-0.2,0.5-0.5v-0.4h0.3v0.4c0,0.3,0.2,0.5,0.5,0.5c0.3,0,0.5-0.2,0.5-0.5v-0.4h0.3v0.4
				c0,0.3,0.2,0.5,0.5,0.5s0.5-0.2,0.5-0.5v-0.4h0.3v0.4c0,0.3,0.2,0.5,0.5,0.5c0.3,0,0.5-0.2,0.5-0.5v-0.4h0.4v1.3h-6.9v-1.3H13
				v0.4C13,50.6,13.2,50.8,13.4,50.8z M22,44.5v0.4h-1.8v-0.4H22z M21.9,46.9h-1.5v-0.9v-0.1h1.5V46.9z M21.9,47.8v0.9h-1.5v-0.9
				H21.9z M20.4,49.6h1.5v1.5h-1.5V49.6z M10.1,47.8h1.5v0.9h-1.5V47.8z M11.6,45.9v0.9h-1.5v-1L11.6,45.9L11.6,45.9z M10.1,49.9
				h1.5v1.3h-1.5V49.9z M20.4,52.1h1.5v9h-1.5V52.1z M21.1,43.2c0.2,0.1,0.4,0.2,0.5,0.4h-1.1C20.7,43.4,20.9,43.3,21.1,43.2z
				 M19.4,46.4v0.9V49h-6.9v-1.7v-0.9H19.4z M10.9,43.2c0.2,0.1,0.4,0.3,0.5,0.4h-1.1C10.5,43.4,10.7,43.3,10.9,43.2z M10.1,52.1
				h1.5v9h-1.5V52.1z M23.2,63.8c-0.2,0.1-0.3,0.1-0.6,0.1c-0.3,0-0.4,0-0.6-0.1c-0.2-0.1-0.5-0.2-0.9-0.2c-0.5,0-0.7,0.1-0.9,0.2
				c-0.2,0.1-0.3,0.1-0.6,0.1c-0.3,0-0.4,0-0.6-0.1c-0.2-0.1-0.5-0.2-0.9-0.2c-0.5,0-0.7,0.1-0.9,0.2c-0.2,0.1-0.3,0.1-0.6,0.1
				c-0.3,0-0.4,0-0.6-0.1c-0.2-0.1-0.5-0.2-0.9-0.2c-0.5,0-0.7,0.1-0.9,0.2c-0.2,0.1-0.3,0.1-0.6,0.1c-0.3,0-0.4,0-0.6-0.1
				c-0.2-0.1-0.5-0.2-0.9-0.2c-0.5,0-0.7,0.1-0.9,0.2c-0.2,0.1-0.3,0.1-0.6,0.1c-0.3,0-0.4,0-0.6-0.1c-0.2-0.1-0.5-0.2-0.9-0.2
				c-0.5,0-0.7,0.1-0.9,0.2c-0.1,0-0.1,0-0.2,0.1l0.6-1.8h0.8h2.4h1.5h4.8h1.6h2.4h0.8l0.5,1.6C23.5,63.7,23.3,63.8,23.2,63.8z"/>
			<path id="XMLID_2402_" fill="#67737C" d="M18.7,52.8c-0.1-0.1-0.2-0.1-0.3-0.1c-0.1,0-0.2,0-0.3,0.1c-0.1,0.1-0.2,0.4-0.1,0.5
				c0.1,0.1,0.2,0.2,0.4,0.3c0,0,0,0,0.1,0c0.1,0,0.2,0,0.3-0.1c0.1-0.1,0.2-0.4,0.1-0.5C18.7,52.9,18.7,52.8,18.7,52.8z"/>
			<path id="XMLID_2401_" fill="#67737C" d="M13.6,52.7c-0.1,0-0.2,0-0.3,0.1c-0.1,0.1-0.1,0.2-0.1,0.3c0,0.1,0.1,0.2,0.1,0.3
				c0.1,0.1,0.2,0.1,0.3,0.1c0.1,0,0.2,0,0.3-0.1c0.1-0.1,0.2-0.4,0.1-0.5C13.9,52.8,13.8,52.7,13.6,52.7z"/>
		</g>
		<g id="XMLID_2569_">
			<path id="XMLID_2572_" fill="#FFFFFF" d="M27.1,103.6c-0.5,0-0.7,0.1-0.9,0.2c-0.2,0.1-0.3,0.1-0.6,0.1c-0.3,0-0.4,0-0.6-0.1
				c-0.1,0-0.2-0.1-0.4-0.1l-0.7-2.3c-0.1-0.2-0.2-0.3-0.4-0.3h-0.6v-9.4v-2.5v-0.1v-1.8v-1.7c0.1-0.1,0.1-0.2,0.1-0.3V84
				c0-0.8-0.9-1.4-1.4-1.7v-0.9c0-0.3-0.2-0.5-0.5-0.5c-0.3,0-0.5,0.2-0.5,0.5v0.9c-0.5,0.3-1.4,0.9-1.4,1.7v1.3c0,0,0,0.1,0,0.1
				h-6.6c0,0,0-0.1,0-0.1V84c0-0.8-0.9-1.4-1.4-1.7v-0.9c0-0.3-0.2-0.5-0.5-0.5c-0.3,0-0.5,0.2-0.5,0.5v0.9C9.9,82.6,9,83.2,9,84
				v1.3c0,0.1,0.1,0.3,0.1,0.3v1.7v1.8v0.1v0.3v2.2v9.4H8.5c-0.2,0-0.4,0.1-0.4,0.3l-0.8,2.4c-0.2-0.1-0.4-0.2-0.9-0.2
				c-0.5,0-0.7,0.1-0.9,0.2c-0.2,0.1-0.3,0.1-0.6,0.1c-0.3,0-0.5,0.2-0.5,0.5c0,0.3,0.2,0.5,0.5,0.5c0.5,0,0.7-0.1,0.9-0.2
				c0.2-0.1,0.3-0.1,0.6-0.1c0.3,0,0.4,0,0.6,0.1c0.2,0.1,0.5,0.2,0.9,0.2c0.5,0,0.7-0.1,0.9-0.2c0.2-0.1,0.3-0.1,0.6-0.1
				c0.3,0,0.4,0,0.6,0.1c0.2,0.1,0.5,0.2,0.9,0.2c0.5,0,0.7-0.1,0.9-0.2c0.2-0.1,0.3-0.1,0.6-0.1c0.3,0,0.4,0,0.6,0.1
				c0.2,0.1,0.5,0.2,0.9,0.2c0.5,0,0.7-0.1,0.9-0.2c0.2-0.1,0.3-0.1,0.6-0.1s0.4,0,0.6,0.1c0.2,0.1,0.5,0.2,0.9,0.2
				c0.5,0,0.7-0.1,0.9-0.2c0.2-0.1,0.3-0.1,0.6-0.1c0.3,0,0.4,0,0.6,0.1c0.2,0.1,0.5,0.2,0.9,0.2c0.5,0,0.7-0.1,0.9-0.2
				c0.2-0.1,0.3-0.1,0.6-0.1c0.3,0,0.4,0,0.6,0.1c0.2,0.1,0.5,0.2,0.9,0.2c0.5,0,0.7-0.1,0.9-0.2c0.2-0.1,0.3-0.1,0.6-0.1
				c0.3,0,0.4,0,0.6,0.1c0.2,0.1,0.5,0.2,0.9,0.2c0.5,0,0.7-0.1,0.9-0.2c0.2-0.1,0.3-0.1,0.6-0.1c0.3,0,0.5-0.2,0.5-0.5
				C27.5,103.9,27.3,103.6,27.1,103.6z M18.8,101.1v-5.4c0-0.6-0.5-1.2-1.4-1.7c-0.6-0.4-1.2-0.6-1.3-0.6c-0.1,0-0.2,0-0.3,0
				c0,0-0.6,0.3-1.3,0.6c-1,0.6-1.4,1.1-1.4,1.7v5.4h-0.6v-9h6.9v9H18.8z M17.9,101.1h-3.8v-5.4c0-0.3,0.8-1,1.9-1.4
				c1.1,0.5,1.9,1.1,1.9,1.4V101.1z M11.8,84.5v0.4H10v-0.4H11.8z M13.4,90.8c0.3,0,0.5-0.2,0.5-0.5v-0.4h0.3v0.4
				c0,0.3,0.2,0.5,0.5,0.5c0.3,0,0.5-0.2,0.5-0.5v-0.4h0.3v0.4c0,0.3,0.2,0.5,0.5,0.5c0.3,0,0.5-0.2,0.5-0.5v-0.4h0.3v0.4
				c0,0.3,0.2,0.5,0.5,0.5s0.5-0.2,0.5-0.5v-0.4h0.3v0.4c0,0.3,0.2,0.5,0.5,0.5c0.3,0,0.5-0.2,0.5-0.5v-0.4h0.4v1.3h-6.9v-1.3H13
				v0.4C13,90.6,13.2,90.8,13.4,90.8z M22,84.5v0.4h-1.8v-0.4H22z M21.9,86.9h-1.5v-0.9v-0.1h1.5V86.9z M21.9,87.8v0.9h-1.5v-0.9
				H21.9z M20.4,89.6h1.5v1.5h-1.5V89.6z M10.1,87.8h1.5v0.9h-1.5V87.8z M11.6,85.9v0.9h-1.5v-1L11.6,85.9L11.6,85.9z M10.1,89.9
				h1.5v1.3h-1.5V89.9z M20.4,92.1h1.5v9h-1.5V92.1z M21.1,83.2c0.2,0.1,0.4,0.2,0.5,0.4h-1.1C20.7,83.4,20.9,83.3,21.1,83.2z
				 M19.4,86.4v0.9V89h-6.9v-1.7v-0.9H19.4z M10.9,83.2c0.2,0.1,0.4,0.3,0.5,0.4h-1.1C10.5,83.4,10.7,83.3,10.9,83.2z M10.1,92.1
				h1.5v9h-1.5V92.1z M23.2,103.8c-0.2,0.1-0.3,0.1-0.6,0.1c-0.3,0-0.4,0-0.6-0.1c-0.2-0.1-0.5-0.2-0.9-0.2c-0.5,0-0.7,0.1-0.9,0.2
				c-0.2,0.1-0.3,0.1-0.6,0.1c-0.3,0-0.4,0-0.6-0.1c-0.2-0.1-0.5-0.2-0.9-0.2c-0.5,0-0.7,0.1-0.9,0.2c-0.2,0.1-0.3,0.1-0.6,0.1
				c-0.3,0-0.4,0-0.6-0.1c-0.2-0.1-0.5-0.2-0.9-0.2c-0.5,0-0.7,0.1-0.9,0.2c-0.2,0.1-0.3,0.1-0.6,0.1c-0.3,0-0.4,0-0.6-0.1
				c-0.2-0.1-0.5-0.2-0.9-0.2c-0.5,0-0.7,0.1-0.9,0.2c-0.2,0.1-0.3,0.1-0.6,0.1c-0.3,0-0.4,0-0.6-0.1c-0.2-0.1-0.5-0.2-0.9-0.2
				c-0.5,0-0.7,0.1-0.9,0.2c-0.1,0-0.1,0-0.2,0.1l0.6-1.8h0.8h2.4h1.5h4.8h1.6h2.4h0.8l0.5,1.6C23.5,103.7,23.3,103.8,23.2,103.8z"
				/>
			<path id="XMLID_2571_" fill="#FFFFFF" d="M18.7,92.8c-0.1-0.1-0.2-0.1-0.3-0.1c-0.1,0-0.2,0-0.3,0.1c-0.1,0.1-0.2,0.4-0.1,0.5
				c0.1,0.1,0.2,0.2,0.4,0.3c0,0,0,0,0.1,0c0.1,0,0.2,0,0.3-0.1c0.1-0.1,0.2-0.4,0.1-0.5C18.7,92.9,18.7,92.8,18.7,92.8z"/>
			<path id="XMLID_2570_" fill="#FFFFFF" d="M13.6,92.7c-0.1,0-0.2,0-0.3,0.1c-0.1,0.1-0.1,0.2-0.1,0.3c0,0.1,0.1,0.2,0.1,0.3
				c0.1,0.1,0.2,0.1,0.3,0.1c0.1,0,0.2,0,0.3-0.1c0.1-0.1,0.2-0.4,0.1-0.5C13.9,92.8,13.8,92.7,13.6,92.7z"/>
		</g>
		<g id="XMLID_2686_">
			<path id="XMLID_2689_" fill="#1D70AD" d="M27.1,143.6c-0.5,0-0.7,0.1-0.9,0.2c-0.2,0.1-0.3,0.1-0.6,0.1c-0.3,0-0.4,0-0.6-0.1
				c-0.1,0-0.2-0.1-0.4-0.1l-0.7-2.3c-0.1-0.2-0.2-0.3-0.4-0.3h-0.6v-9.4v-2.5v-0.1v-1.8v-1.7c0.1-0.1,0.1-0.2,0.1-0.3V124
				c0-0.8-0.9-1.4-1.4-1.7v-0.9c0-0.3-0.2-0.5-0.5-0.5c-0.3,0-0.5,0.2-0.5,0.5v0.9c-0.5,0.3-1.4,0.9-1.4,1.7v1.3c0,0,0,0.1,0,0.1
				h-6.6c0,0,0-0.1,0-0.1V124c0-0.8-0.9-1.4-1.4-1.7v-0.9c0-0.3-0.2-0.5-0.5-0.5c-0.3,0-0.5,0.2-0.5,0.5v0.9
				C9.9,122.6,9,123.2,9,124v1.3c0,0.1,0.1,0.3,0.1,0.3v1.7v1.8v0.1v0.3v2.2v9.4H8.5c-0.2,0-0.4,0.1-0.4,0.3l-0.8,2.4
				c-0.2-0.1-0.4-0.2-0.9-0.2c-0.5,0-0.7,0.1-0.9,0.2c-0.2,0.1-0.3,0.1-0.6,0.1c-0.3,0-0.5,0.2-0.5,0.5c0,0.3,0.2,0.5,0.5,0.5
				c0.5,0,0.7-0.1,0.9-0.2c0.2-0.1,0.3-0.1,0.6-0.1c0.3,0,0.4,0,0.6,0.1c0.2,0.1,0.5,0.2,0.9,0.2c0.5,0,0.7-0.1,0.9-0.2
				c0.2-0.1,0.3-0.1,0.6-0.1c0.3,0,0.4,0,0.6,0.1c0.2,0.1,0.5,0.2,0.9,0.2c0.5,0,0.7-0.1,0.9-0.2c0.2-0.1,0.3-0.1,0.6-0.1
				c0.3,0,0.4,0,0.6,0.1c0.2,0.1,0.5,0.2,0.9,0.2c0.5,0,0.7-0.1,0.9-0.2c0.2-0.1,0.3-0.1,0.6-0.1s0.4,0,0.6,0.1
				c0.2,0.1,0.5,0.2,0.9,0.2c0.5,0,0.7-0.1,0.9-0.2c0.2-0.1,0.3-0.1,0.6-0.1c0.3,0,0.4,0,0.6,0.1c0.2,0.1,0.5,0.2,0.9,0.2
				c0.5,0,0.7-0.1,0.9-0.2c0.2-0.1,0.3-0.1,0.6-0.1c0.3,0,0.4,0,0.6,0.1c0.2,0.1,0.5,0.2,0.9,0.2c0.5,0,0.7-0.1,0.9-0.2
				c0.2-0.1,0.3-0.1,0.6-0.1c0.3,0,0.4,0,0.6,0.1c0.2,0.1,0.5,0.2,0.9,0.2c0.5,0,0.7-0.1,0.9-0.2c0.2-0.1,0.3-0.1,0.6-0.1
				c0.3,0,0.5-0.2,0.5-0.5C27.5,143.9,27.3,143.6,27.1,143.6z M18.8,141.1v-5.4c0-0.6-0.5-1.2-1.4-1.7c-0.6-0.4-1.2-0.6-1.3-0.6
				c-0.1,0-0.2,0-0.3,0c0,0-0.6,0.3-1.3,0.6c-1,0.6-1.4,1.1-1.4,1.7v5.4h-0.6v-9h6.9v9H18.8z M17.9,141.1h-3.8v-5.4
				c0-0.3,0.8-1,1.9-1.4c1.1,0.5,1.9,1.1,1.9,1.4V141.1z M11.8,124.5v0.4H10v-0.4H11.8z M13.4,130.8c0.3,0,0.5-0.2,0.5-0.5v-0.4h0.3
				v0.4c0,0.3,0.2,0.5,0.5,0.5c0.3,0,0.5-0.2,0.5-0.5v-0.4h0.3v0.4c0,0.3,0.2,0.5,0.5,0.5c0.3,0,0.5-0.2,0.5-0.5v-0.4h0.3v0.4
				c0,0.3,0.2,0.5,0.5,0.5s0.5-0.2,0.5-0.5v-0.4h0.3v0.4c0,0.3,0.2,0.5,0.5,0.5c0.3,0,0.5-0.2,0.5-0.5v-0.4h0.4v1.3h-6.9v-1.3H13
				v0.4C13,130.6,13.2,130.8,13.4,130.8z M22,124.5v0.4h-1.8v-0.4H22z M21.9,126.9h-1.5v-0.9v-0.1h1.5V126.9z M21.9,127.8v0.9h-1.5
				v-0.9H21.9z M20.4,129.6h1.5v1.5h-1.5V129.6z M10.1,127.8h1.5v0.9h-1.5V127.8z M11.6,125.9v0.9h-1.5v-1L11.6,125.9L11.6,125.9z
				 M10.1,129.9h1.5v1.3h-1.5V129.9z M20.4,132.1h1.5v9h-1.5V132.1z M21.1,123.2c0.2,0.1,0.4,0.2,0.5,0.4h-1.1
				C20.7,123.4,20.9,123.3,21.1,123.2z M19.4,126.4v0.9v1.7h-6.9v-1.7v-0.9H19.4z M10.9,123.2c0.2,0.1,0.4,0.3,0.5,0.4h-1.1
				C10.5,123.4,10.7,123.3,10.9,123.2z M10.1,132.1h1.5v9h-1.5V132.1z M23.2,143.8c-0.2,0.1-0.3,0.1-0.6,0.1c-0.3,0-0.4,0-0.6-0.1
				c-0.2-0.1-0.5-0.2-0.9-0.2c-0.5,0-0.7,0.1-0.9,0.2c-0.2,0.1-0.3,0.1-0.6,0.1c-0.3,0-0.4,0-0.6-0.1c-0.2-0.1-0.5-0.2-0.9-0.2
				c-0.5,0-0.7,0.1-0.9,0.2c-0.2,0.1-0.3,0.1-0.6,0.1c-0.3,0-0.4,0-0.6-0.1c-0.2-0.1-0.5-0.2-0.9-0.2c-0.5,0-0.7,0.1-0.9,0.2
				c-0.2,0.1-0.3,0.1-0.6,0.1c-0.3,0-0.4,0-0.6-0.1c-0.2-0.1-0.5-0.2-0.9-0.2c-0.5,0-0.7,0.1-0.9,0.2c-0.2,0.1-0.3,0.1-0.6,0.1
				c-0.3,0-0.4,0-0.6-0.1c-0.2-0.1-0.5-0.2-0.9-0.2c-0.5,0-0.7,0.1-0.9,0.2c-0.1,0-0.1,0-0.2,0.1l0.6-1.8h0.8h2.4h1.5h4.8h1.6h2.4
				h0.8l0.5,1.6C23.5,143.7,23.3,143.8,23.2,143.8z"/>
			<path id="XMLID_2688_" fill="#1D70AD" d="M18.7,132.8c-0.1-0.1-0.2-0.1-0.3-0.1c-0.1,0-0.2,0-0.3,0.1c-0.1,0.1-0.2,0.4-0.1,0.5
				c0.1,0.1,0.2,0.2,0.4,0.3c0,0,0,0,0.1,0c0.1,0,0.2,0,0.3-0.1c0.1-0.1,0.2-0.4,0.1-0.5C18.7,132.9,18.7,132.8,18.7,132.8z"/>
			<path id="XMLID_2687_" fill="#1D70AD" d="M13.6,132.7c-0.1,0-0.2,0-0.3,0.1c-0.1,0.1-0.1,0.2-0.1,0.3c0,0.1,0.1,0.2,0.1,0.3
				c0.1,0.1,0.2,0.1,0.3,0.1c0.1,0,0.2,0,0.3-0.1c0.1-0.1,0.2-0.4,0.1-0.5C13.9,132.8,13.8,132.7,13.6,132.7z"/>
		</g>
</svg>
