<svg width="32" height="232" viewBox="0 0 32 232" xmlns="http://www.w3.org/2000/svg"><g fill="none"><path d="M5.724 125.678c.21.2.48.312.76.312h1.59l-.006.094c0 .31.124.606.34.812.183.174.418.27.66.27h3.342c.552 0 1-.484 1-1.08 0-.598-.448-1.083-1-1.083h-.096l.025-.256c0-.686-.52-1.245-1.16-1.245h-4.7c-.28 0-.55.11-.76.31-.25.237-.4.578-.4.934 0 .356.14.697.39.933zm.605-1.125c.03-.03.08-.064.15-.064h4.7c.13 0 .23.11.23.25s-.11.25-.24.25c-.26 0-.46.22-.46.49s.2.49.45.49h1.23c.05 0 .09.04.09.09s-.04.09-.09.09H9.07l-.057-.02-.03-.07.03-.07.057-.03h.002c.252 0 .457-.22.457-.5s-.21-.49-.46-.49H6.48c-.073 0-.125-.04-.156-.07-.03-.03-.08-.09-.08-.19s.05-.16.08-.19zm25.59 22.474c0-.546-.41-.988-.92-.988h-9.99l-.84-.4-.72-.39 3.3-.42.12-.04 1.91-.89.08-.05.87-.66.09-.09.83-1.07 1.34.16c.15.02.29-.05.39-.17l.92-1.14 1.57-.61c.23-.09.36-.38.27-.63-.09-.26-.35-.39-.59-.3l-1.688.65c-.07.02-.13.07-.19.14l-.84 1.03-.41-.05-.94-.11c-.15-.02-.3.05-.4.17l-.95 1.22-.784.59-1.107.51-2.06-.85-.05-.02-1.97-.55-.07-.01-2.643-.3-.716-.08.17-.1.13-.08h4.58c.16 0 .31-.09.39-.24l.59-1.06 2.38-.89 1.83-.68 1.4-.514c.24-.09.37-.37.29-.626-.08-.26-.34-.4-.58-.31l-.86.31-.22-2.23v-2.52l-.02-.22h3.426c.28 0 .55-.11.76-.31.25-.24.39-.58.39-.933 0-.36-.15-.7-.4-.936-.21-.203-.48-.313-.76-.313h-1.59l.005-.096c0-.31-.125-.606-.34-.81-.184-.176-.42-.27-.66-.27h-1.91l-.49-1.58-.106-.19-1.28-1.393c-.11-.12-.27-.17-.42-.136-.15.036-.28.15-.334.308l-.566 1.58-.03.166-.06 1.92-.11.58-.41-.51c-.1-.125-.242-.188-.39-.17-.15.014-.28.11-.35.245l-.643 1.3c-.04.07-.06.16-.06.24v2.814l-.34.133-.292-.438-.273-2.39h.067c.26 0 .46-.22.46-.5s-.2-.494-.45-.494h-.17l-.01-.14-.2-2.61c-.01-.17-.1-.318-.24-.397-.133-.08-.3-.08-.433 0l-1.19.71c-.13.08-.22.22-.23.385l-.13 1.58-.04.46H13.1l-.25-.38c-.143-.216-.42-.27-.623-.125l-.708.505H10.2c-.253 0-.457.22-.457.494s.21.49.46.49h.64l-.193.5-.034.19v2.01l-.396 1.29-.582.76-.23-2v-1.79l-.04-.2-.97-2.37-.113-.166-1.08-1.046c-.133-.13-.324-.163-.49-.085-.163.08-.27.257-.272.45l-.013 1.92-.29.855-.12-.056c-.19-.086-.41-.03-.54.143l-.69.91c-.06.07-.09.16-.1.25l-.19 1.76-.01.06v2.7l-.41-.358-.18-.098-2.08-.57c-.25-.07-.5.09-.56.353-.067.26.08.53.33.6l1.973.55 1.07.94 1.44 1.324c.07.066.16.106.252.116l3.345.34 2.974.284.035.61c.01.21.15.39.34.45l2.44.67.06.01 3.46.39 1.91.54.19.075.65.27-1.93.24-1.87.23-.04.01-1.87-.83c-.39-.2-1.61-.822-1.8-.9-.156-.053-1.05-.19-2.66-.39L9.1 142l-.876-.7c-.08-.06-.173-.096-.27-.096H6.09l-1.57-.183-1.703-.46-.11-.01h-.99c-.253 0-.457.22-.457.5s.205.5.457.5h.933l1.676.46.06.01.987.12.64.08.05.01h1.755l.853.68c.07.05.14.09.22.1l2.62.33c1.07.134 2.28.3 2.47.35.15.064.98.48 1.72.86l.03.01 1.93.85 1.21.65.29.15-.52-.15H.92c-.505 0-.914.44-.914.99 0 .43.26.8.617.93.08.076.183.12.296.12.28 0 .39.05.55.12.2.083.44.186.89.186s.68-.1.88-.183c.16-.064.27-.113.55-.113s.39.05.55.116c.19.08.43.187.88.187s.69-.102.88-.184c.16-.07.28-.12.55-.12s.39.05.55.12c.19.08.44.18.88.18s.68-.1.88-.185c.16-.07.28-.12.55-.12s.39.05.55.12c.19.08.44.186.88.186s.68-.106.88-.19c.16-.07.28-.115.55-.115s.39.05.55.12c.19.084.44.19.88.19s.68-.1.88-.19c.16-.07.28-.114.55-.114s.39.05.55.12c.19.08.44.187.88.187s.68-.107.88-.19c.16-.07.27-.116.55-.116s.39.05.55.12c.19.08.43.18.88.18.44 0 .68-.1.88-.18.16-.07.28-.12.55-.12s.39.05.55.12c.19.08.44.19.88.19s.68-.1.88-.185c.16-.07.28-.12.55-.12s.39.05.55.117c.19.08.44.19.88.19s.68-.1.88-.182c.16-.064.28-.113.55-.113s.39.05.55.12c.19.08.44.185.88.185s.68-.104.88-.186c.16-.07.27-.12.55-.12s.39.05.55.12c.19.08.44.184.88.184.25 0 .45-.22.45-.494v-.01c.27-.17.46-.49.46-.85zm-18.33-5.885l-.04-.677c-.02-.244-.19-.442-.42-.463l-2.98-.288-.22-.02v-1.82l-.01-.1-.08-.392.11-.154.99-1.29.08-.16.44-1.455.02-.155v-1.99l.32-.827.52-.37.26.41.02.04.05 1.94-.37 1.08-.45.07c-.23.04-.4.24-.4.49v1.54c0 .28.2.5.46.5.25 0 .45-.22.45-.49v-1.1l.33-.05c.17-.02.31-.14.37-.32l.42-1.25.325-.16.2.44v1.55l.02.14.335 1.295.01.017c.055.19.21.33.4.34l.844.07-.11.33-.01.05-.74 3.34-.06.033-.11.06-.12.106-.9-.25zm2.34-9.758l-.02.27-.01.04v2.506l.13 2.053-.09.258-.78-.06-.23-.89v-1.59l-.05-.21-.44-.97c-.11-.24-.38-.34-.6-.23l-.28.14-.04-1.29h2.38zm.99-.988l.03-.376.11-1.32.35-.213.14 1.86v.05l.42 3.626c.01.084.03.163.08.23l.57.84.01.018.04.06v.01l1.25 1.19.96 1.84c.09.16.24.25.4.25.08 0 .16-.02.23-.06.22-.13.3-.43.17-.67l-1-1.91-.1-.12-.73-.69.246-.1c.18-.07.3-.25.3-.46v-3.03l.29-.55.6.75.01.01.044.05.01.01.05.04.02.01.07.03h.01l.08.02h.01l.388.05.17.02.59.73.04 1.26c.006.27.21.48.455.48h.01c.254-.01.45-.23.444-.51l-.046-1.43c0-.11-.04-.22-.11-.31l-.82-1.01c-.08-.09-.18-.15-.3-.16l-.23-.022.2-1.08.01-.08.05-1.873.28-.79.7.77.49 1.58.03.066.02.05.27.45.11.186.01.017.287.474.086.147.03.29.18 1.86v2.527l.244 2.48-1.49.55-2.542.95c-.1.04-.19.115-.24.216l-.086.16v.004l-.445.812h-4.43l-.11.01.54-2.46.54-1.63.027-.2-.135-2.132v-2.43l.104-1.32zm9.76-.493l.05.024.03.07-.03.07-.06.024c-.25 0-.46.23-.46.5s.2.5.45.5h2.582c.07 0 .122.04.153.07.03.03.08.09.08.19s-.05.17-.08.19c-.03.03-.083.07-.156.07h-3.52l-.1-1.08c-.01-.08-.03-.15-.07-.22l-.23-.39h1.34zm-21.3 4.883l.17-1.595.36-.47v1.06c0 .28.2.5.46.5s.45-.22.45-.49v-1.34l.46-1.34.02-.16.01-.89.25.25.89 2.18v1.78l.24 2.13.003.04.294 1.54v1.676l-2.46-.25-1.176-1.08v-3.49zm9.71-8.94h2.34c.25 0 .45-.22.45-.494s-.21-.494-.46-.494H15.1c-.253 0-.457.22-.457.494s.204.494.456.494m.08-1.358h5.76c.25 0 .45-.22.45-.494s-.2-.494-.45-.494h-5.77c-.26 0-.46.22-.46.494s.2.494.46.494" fill="#206FAC"/><path d="M5.724 85.678c.21.2.48.312.76.312h1.59l-.006.094c0 .31.124.606.34.812.183.174.418.27.66.27h3.342c.552 0 1-.484 1-1.08 0-.598-.448-1.083-1-1.083h-.096l.025-.256c0-.686-.52-1.245-1.16-1.245h-4.7c-.28 0-.55.11-.76.31-.25.237-.4.578-.4.934 0 .356.14.697.39.933zm.605-1.125c.03-.03.08-.064.15-.064h4.7c.13 0 .23.11.23.25s-.11.25-.24.25c-.26 0-.46.22-.46.49s.2.49.45.49h1.23c.05 0 .09.04.09.09s-.04.09-.09.09H9.07l-.057-.02-.03-.07.03-.07.057-.03h.002c.252 0 .457-.22.457-.5S9.32 85 9.07 85H6.487c-.073 0-.125-.034-.156-.063-.03-.03-.08-.092-.08-.192s.05-.163.08-.192zm25.59 22.474c0-.546-.41-.988-.92-.988h-9.99l-.84-.4-.72-.39 3.3-.42.12-.04 1.91-.89.08-.05.87-.66.09-.09.83-1.07 1.34.16c.15.02.29-.05.39-.17l.92-1.14 1.57-.61c.23-.09.36-.38.27-.63-.09-.26-.35-.39-.59-.3l-1.688.65c-.07.02-.13.07-.19.14l-.84 1.03-.41-.05-.94-.11c-.15-.02-.3.05-.4.17l-.95 1.22-.784.59-1.107.51-2.06-.85-.05-.02-1.97-.55-.07-.01-2.643-.3-.716-.08.17-.1.13-.08h4.58c.16 0 .31-.09.39-.24l.59-1.06 2.4-.875 1.83-.676 1.4-.514c.24-.09.37-.37.29-.62-.08-.26-.34-.4-.58-.31l-.855.31-.22-2.23v-2.5l-.02-.22h3.42c.28 0 .55-.11.76-.31.25-.23.39-.57.39-.93 0-.35-.15-.69-.4-.93-.21-.21-.48-.32-.76-.32h-1.59v-.1c0-.31-.13-.61-.34-.81-.188-.18-.42-.27-.66-.27h-1.91l-.49-1.58-.11-.19-1.27-1.394c-.11-.12-.27-.17-.42-.134-.15.032-.28.15-.338.304l-.56 1.58-.03.17-.06 1.92-.11.58-.41-.51c-.097-.12-.244-.183-.39-.17-.15.02-.28.11-.35.25L19.562 91c-.04.07-.06.16-.06.24v2.818l-.34.13-.295-.433-.275-2.39h.07c.26 0 .46-.22.46-.497s-.2-.493-.46-.493h-.17l-.01-.14-.2-2.61c-.01-.17-.1-.32-.24-.398-.13-.08-.3-.08-.43.003l-1.19.71c-.13.08-.22.226-.23.39l-.13 1.58-.033.463H13.1L12.85 90c-.145-.216-.42-.27-.625-.125l-.708.502H10.2c-.253 0-.457.22-.457.494s.21.49.46.49h.64l-.193.51-.034.19v2.01l-.396 1.29-.582.76-.23-2v-1.79l-.04-.2-.97-2.37-.113-.16-1.08-1.05c-.133-.13-.324-.16-.49-.08-.163.08-.27.26-.272.45l-.013 1.91-.29.86-.12-.05c-.19-.08-.41-.03-.54.15l-.69.92c-.055.08-.09.16-.1.26l-.2 1.76-.004.06v2.7l-.408-.35-.18-.1-2.078-.572c-.245-.07-.495.09-.558.356-.064.26.083.53.33.6l1.976.55 1.07.936 1.44 1.326c.07.07.16.11.256.12l3.35.34 2.974.287.033.61c.02.213.15.395.35.45l2.45.675.07.017 3.46.39 1.92.534.19.074.65.27-1.93.245-1.86.23-.03.01-1.87-.83c-.39-.2-1.61-.83-1.8-.9-.15-.06-1.05-.19-2.66-.4l-2.5-.31-.88-.7c-.08-.06-.17-.094-.27-.094h-1.9l-1.57-.186-1.7-.46-.11-.01h-.99c-.25 0-.45.22-.45.49s.21.5.46.5h.94l1.68.45.06.01.99.117.64.077.05.005h1.76l.856.68c.064.05.14.08.22.09l2.62.32c1.07.136 2.27.3 2.47.35.15.066.977.48 1.713.86l.023.01 1.927.857 1.21.65.28.156-.52-.15H.92c-.505 0-.914.445-.914.99 0 .43.26.8.617.935.08.07.183.12.296.12.27 0 .39.05.55.11.2.085.44.19.88.19s.68-.1.88-.18c.16-.07.27-.117.55-.117s.38.05.55.11c.19.087.43.19.88.19s.68-.1.88-.18c.16-.07.28-.12.55-.12s.39.05.55.118c.19.08.44.184.88.184s.68-.105.88-.187c.16-.07.27-.12.55-.12s.39.05.55.12c.19.08.43.184.88.184s.68-.1.88-.18c.16-.07.28-.117.55-.117s.39.05.55.115c.19.08.44.182.88.182s.68-.1.88-.184c.16-.065.28-.114.55-.114s.39.05.55.116c.19.08.44.19.88.19s.68-.1.88-.187c.16-.063.28-.11.55-.11s.39.05.55.114c.19.083.44.186.88.186s.68-.1.88-.18c.16-.07.28-.12.55-.12s.39.05.55.12c.19.08.44.184.88.184s.68-.1.88-.186c.16-.07.28-.12.55-.12s.39.05.55.116c.19.085.44.19.88.19s.68-.1.88-.184c.16-.07.28-.12.55-.12s.39.05.55.118c.19.086.44.19.88.19s.69-.1.88-.18c.16-.065.27-.114.55-.114s.39.05.55.113c.19.082.44.19.88.19.25 0 .46-.22.46-.498v-.01c.27-.17.45-.49.45-.86zm-18.33-5.885l-.04-.677c-.02-.244-.19-.442-.42-.463l-2.98-.288-.22-.02v-1.82l-.01-.1-.08-.392.11-.154.99-1.29.08-.16.44-1.455.02-.155v-1.99l.32-.827.52-.37.26.41.02.04.05 1.94-.37 1.08-.45.07c-.23.04-.4.24-.4.49v1.54c0 .28.2.5.46.5.25 0 .45-.22.45-.49v-1.11l.33-.05c.17-.02.31-.15.37-.32l.42-1.25.325-.16.2.44v1.55l.02.14.335 1.29.01.02c.055.19.21.32.4.34l.844.07-.11.33-.01.05-.74 3.33-.06.04-.11.06-.12.1-.9-.25zm2.34-9.758l-.02.27-.01.04V94.2l.13 2.053-.09.258-.78-.06-.23-.89v-1.6l-.05-.21-.44-.97c-.11-.24-.38-.34-.6-.23l-.28.14-.04-1.29h2.38zm.99-.988l.03-.376.11-1.32.35-.213.14 1.86v.05l.42 3.626c.01.084.03.163.08.23l.57.84.01.018.04.06v.01l1.25 1.19.96 1.84c.09.16.24.25.4.25.08 0 .16-.02.23-.06.22-.13.3-.43.17-.67l-1-1.91-.1-.12-.73-.69.246-.1c.18-.07.3-.25.3-.46V91.4l.29-.556.6.75.01.01.044.046.01.01.05.04.02.014.07.03h.01l.08.02h.01l.388.05.17.02.59.73.04 1.256c.006.267.21.478.455.478h.01c.254-.01.45-.235.444-.51l-.046-1.43c0-.115-.04-.225-.11-.31l-.82-1.008c-.08-.096-.18-.155-.3-.168l-.23-.024.2-1.08.01-.08.05-1.874.28-.79.7.77.49 1.58.03.065.02.04.27.45.11.18.01.01.287.47.086.14.03.29.18 1.85v2.53l.244 2.48-1.49.55-2.542.94c-.1.04-.19.11-.24.213l-.086.16v.002l-.445.814h-4.43l-.11.02.54-2.47.54-1.63.027-.2-.135-2.14V91.7l.104-1.32zm9.76-.493l.05.024.03.07-.03.07-.06.024c-.25 0-.46.23-.46.5s.2.5.45.5h2.582c.07 0 .122.04.153.07.03.03.08.09.08.19s-.05.17-.08.19c-.03.03-.083.07-.156.07h-3.52l-.1-1.08c-.01-.08-.03-.15-.07-.22l-.23-.39h1.34zM5.4 94.786l.173-1.595.36-.47v1.06c0 .28.204.5.456.5s.46-.22.46-.49v-1.35l.45-1.34.03-.16.01-.89.25.25.89 2.18v1.78l.24 2.13v.04l.29 1.54v1.67l-2.46-.25-1.16-1.09v-3.5zm9.71-8.94h2.34c.255 0 .46-.22.46-.494s-.2-.494-.454-.494h-2.342c-.253 0-.457.22-.457.494s.205.494.457.494m.076-1.358h5.766c.253 0 .457-.22.457-.494s-.204-.494-.456-.494H15.19c-.253 0-.457.22-.457.494s.206.494.458.494" fill="#fff"/><path d="M5.724 45.678c.21.2.48.312.76.312h1.59l-.006.094c0 .31.124.606.34.812.183.174.418.27.66.27h3.342c.552 0 1-.484 1-1.08 0-.598-.448-1.083-1-1.083h-.096l.025-.256c0-.686-.52-1.245-1.16-1.245h-4.7c-.28 0-.55.11-.76.31-.25.237-.4.578-.4.934 0 .356.14.697.39.933zm.605-1.125c.03-.03.08-.064.15-.064h4.7c.13 0 .23.11.23.25s-.11.25-.24.25c-.26 0-.46.22-.46.49s.2.49.45.49h1.23c.05 0 .09.04.09.09s-.04.09-.09.09H9.07l-.057-.02-.03-.07.03-.07.057-.03h.002c.252 0 .457-.22.457-.5S9.32 45 9.07 45H6.487c-.073 0-.125-.034-.156-.063-.03-.03-.08-.092-.08-.192s.05-.163.08-.192zm25.59 22.474c0-.546-.41-.988-.92-.988h-9.99l-.84-.4-.72-.39 3.3-.42.12-.04 1.91-.89.08-.05.87-.66.09-.09.83-1.07 1.34.16c.15.02.3-.05.4-.17l.92-1.14 1.57-.61c.24-.09.36-.38.27-.63-.09-.26-.35-.39-.59-.3l-1.68.65c-.075.02-.14.07-.19.14l-.84 1.03-.41-.05-.94-.11c-.15-.02-.3.05-.4.17l-.95 1.22-.79.59-1.11.51-2.064-.85-.04-.02-1.976-.55-.07-.01-2.642-.3-.717-.08.17-.1.13-.08h4.58c.16 0 .31-.09.394-.24l.586-1.06 2.4-.88 1.83-.67h.003l1.4-.518c.24-.09.37-.37.29-.63-.08-.258-.34-.397-.58-.31l-.853.314-.22-2.23v-2.5l-.02-.226h3.42c.28 0 .55-.11.76-.31.25-.237.4-.58.4-.934 0-.355-.15-.695-.39-.93-.21-.21-.48-.32-.76-.32H27.7l.005-.1c0-.31-.124-.61-.34-.81-.183-.18-.418-.27-.66-.27h-1.91l-.487-1.58-.108-.19-1.274-1.4c-.11-.12-.267-.17-.42-.132-.15.033-.277.15-.333.305l-.564 1.58-.03.162-.06 1.92-.11.58-.41-.51c-.1-.12-.25-.186-.39-.17-.15.016-.28.11-.35.25l-.68 1.3c-.04.07-.06.16-.06.24v2.817l-.35.13-.3-.43-.28-2.39h.06c.25 0 .452-.22.452-.49s-.206-.49-.458-.49h-.17l-.02-.14-.2-2.61c-.02-.17-.11-.32-.24-.396-.14-.08-.3-.08-.44.003l-1.19.71c-.13.08-.22.225-.24.39l-.13 1.58-.04.46h-2.92L12.81 50c-.15-.216-.42-.27-.63-.125l-.705.505h-1.31c-.254 0-.458.22-.458.494s.21.49.46.49h.64l-.19.5-.03.19v2.01l-.4 1.29-.584.76-.23-2v-1.79l-.04-.2-.97-2.37-.11-.17-1.08-1.05c-.135-.13-.326-.16-.49-.09-.165.08-.27.256-.274.45l-.01 1.92-.29.85-.12-.06c-.19-.08-.41-.03-.54.15l-.69.914c-.06.07-.09.16-.1.25l-.2 1.76-.01.06v2.71l-.41-.35-.18-.1-2.08-.57c-.25-.07-.5.09-.56.35-.07.264.08.534.33.6l1.97.55 1.07.937 1.44 1.33c.07.065.16.105.25.115l3.35.34 2.974.29.03.61c.01.215.15.397.34.45l2.45.677.06.015 3.46.39 1.912.535.187.07.65.27-1.93.25-1.87.237-.03.01-1.87-.83c-.39-.2-1.61-.826-1.8-.9-.155-.06-1.05-.19-2.66-.395l-2.5-.31-.88-.7c-.08-.06-.17-.1-.27-.1H6.08l-1.57-.19-1.7-.46-.11-.015h-.99c-.253 0-.457.22-.457.493s.205.495.457.495h.935L4.32 62l.06.01.99.12.64.08.05.003h1.76l.86.68c.07.05.14.084.22.094l2.62.326c1.07.137 2.27.304 2.47.35.15.067.98.485 1.72.864l.03.01 1.93.855 1.21.646.285.157-.52-.15H.92c-.505 0-.914.443-.914.99 0 .43.26.8.617.933.08.072.183.12.296.12.27 0 .39.05.55.12.2.08.44.183.88.183s.68-.1.88-.18c.16-.07.27-.12.55-.12s.38.05.55.12c.19.09.43.19.88.19s.68-.1.88-.18c.16-.07.28-.12.55-.12s.39.05.55.12c.19.08.44.19.88.19s.68-.1.88-.182c.16-.07.27-.117.55-.117s.39.05.55.12c.19.083.43.186.88.186s.68-.1.88-.185c.16-.07.28-.114.55-.114s.39.05.55.114c.19.08.44.183.88.183s.68-.1.88-.18c.16-.07.28-.12.55-.12s.39.05.55.114c.19.08.44.183.88.183s.68-.1.88-.18c.16-.063.28-.11.55-.11s.39.05.55.115c.19.087.44.19.88.19s.68-.1.88-.182c.16-.07.28-.118.55-.118s.39.05.55.115c.19.09.44.19.88.19s.68-.1.88-.18c.16-.066.28-.115.55-.115s.39.05.55.117c.19.08.44.186.88.186s.68-.1.88-.182c.16-.07.28-.12.55-.12s.39.05.55.117c.19.085.44.188.88.188s.69-.1.88-.18c.16-.064.27-.113.55-.113s.39.05.55.11c.19.08.44.187.88.187.25 0 .46-.22.46-.494v-.01c.27-.17.45-.49.45-.86zm-18.33-5.885l-.04-.677c-.02-.244-.19-.442-.42-.463l-2.98-.288-.22-.02v-1.82l-.01-.1-.08-.392.11-.154.99-1.29.08-.16.44-1.455.02-.155v-1.99l.32-.827.52-.37.26.41.02.04.05 1.94-.37 1.08-.45.07c-.23.04-.4.24-.4.49v1.54c0 .28.2.5.46.5.25 0 .45-.22.45-.49v-1.11l.33-.05c.17-.02.31-.15.37-.32l.42-1.25.32-.16.2.44v1.55l.02.14.332 1.29.006.02c.057.19.214.32.4.34l.846.07-.11.33-.01.05-.74 3.33-.06.04-.11.06-.12.1-.9-.25zm2.34-9.758l-.02.27-.01.04V54.2l.13 2.053-.09.258-.78-.06-.23-.89v-1.6l-.05-.21-.44-.97c-.11-.24-.38-.34-.6-.23l-.28.14-.04-1.29h2.38zm.99-.988l.03-.376.11-1.32.35-.213.14 1.86v.05l.42 3.626c.01.084.04.163.08.23l.57.84.01.018.04.06v.01l1.25 1.19.96 1.84c.09.16.24.25.4.25.08 0 .152-.02.23-.06.22-.13.29-.43.17-.67l-1-1.91-.1-.12-.73-.69.24-.1c.18-.07.3-.25.3-.46V51.4l.293-.556.594.75.01.01.042.046.012.01.05.04.02.014.066.03h.01l.08.02h.01l.39.05.17.02.59.73.035 1.256c.004.267.21.478.453.478h.014c.26-.01.45-.235.45-.51l-.04-1.43c-.005-.115-.046-.225-.116-.31l-.82-1.008c-.08-.096-.18-.155-.3-.168l-.24-.024.2-1.08.01-.08.057-1.874.28-.79.7.77.49 1.58.03.065.02.04.27.45.11.18.01.01.288.47.085.14.03.29.18 1.85v2.53l.242 2.48-1.5.55-2.546.94c-.1.04-.19.11-.24.213l-.08.16v.002l-.45.814h-4.43l-.11.02.547-2.47.54-1.63.023-.2-.13-2.14V51.7l.11-1.32zm9.76-.493l.06.024.03.07-.03.07-.06.024c-.26 0-.46.23-.46.5s.2.5.45.5h2.58c.07 0 .12.04.15.07.03.03.08.09.08.19s-.05.17-.08.19c-.03.03-.08.07-.15.07h-3.51l-.1-1.08c-.01-.08-.03-.15-.07-.22l-.23-.39h1.34zM5.4 54.786l.173-1.595.36-.47v1.06c0 .28.204.5.456.5s.46-.22.46-.49v-1.35l.45-1.34.03-.16.01-.89.25.25.89 2.18v1.78l.24 2.13v.04l.29 1.54v1.67l-2.46-.25-1.16-1.09v-3.5zm9.71-8.94h2.34c.255 0 .46-.22.46-.494s-.2-.494-.454-.494h-2.342c-.253 0-.457.22-.457.494s.205.494.457.494m.076-1.358h5.766c.253 0 .457-.22.457-.494s-.204-.494-.456-.494H15.19c-.253 0-.457.22-.457.494s.206.494.458.494" fill="#67737B"/><path d="M5.724 5.678c.21.2.48.312.76.312h1.59l-.006.094c0 .31.124.606.34.812.183.174.418.27.66.27h3.342c.552 0 1-.484 1-1.08 0-.598-.448-1.083-1-1.083h-.096l.025-.256c0-.686-.52-1.245-1.16-1.245h-4.7c-.28 0-.55.11-.76.31-.25.237-.4.578-.4.934 0 .356.14.697.39.933zm.605-1.125c.03-.03.08-.064.15-.064h4.7c.13 0 .23.11.23.25s-.11.25-.24.25c-.26 0-.46.22-.46.49s.2.49.45.49h1.23c.05 0 .09.04.09.09s-.04.09-.09.09H9.07l-.057-.02-.03-.07.03-.07.057-.03h.002c.252 0 .457-.22.457-.5S9.32 5 9.07 5H6.487c-.073 0-.125-.034-.156-.063-.03-.03-.08-.092-.08-.192s.05-.163.08-.192zm25.59 22.474c0-.546-.41-.988-.92-.988h-9.99l-.84-.4-.72-.39 3.3-.42.12-.04 1.91-.89.08-.05.87-.66.09-.09.83-1.07 1.34.16c.15.02.3-.05.4-.17l.92-1.14 1.57-.61c.24-.09.36-.38.27-.63-.09-.26-.35-.39-.59-.3l-1.68.65c-.075.02-.14.07-.19.14l-.84 1.03-.41-.05-.94-.11c-.15-.02-.3.05-.4.17l-.95 1.22-.79.59-1.11.51-2.064-.85-.04-.02-1.976-.55-.07-.01-2.642-.3-.717-.08.17-.1.13-.08h4.58c.16 0 .31-.09.394-.24l.586-1.06 2.4-.88 1.83-.67h.003l1.4-.518c.24-.09.37-.37.29-.63-.08-.258-.34-.397-.58-.31l-.853.314-.22-2.23v-2.5l-.02-.226h3.42c.28 0 .55-.11.76-.31.25-.237.4-.58.4-.934 0-.355-.15-.695-.39-.93-.21-.21-.48-.32-.76-.32H27.7l.005-.1c0-.31-.124-.61-.34-.81-.183-.18-.418-.27-.66-.27h-1.91l-.487-1.58-.108-.19-1.274-1.4c-.11-.12-.267-.17-.42-.132-.15.033-.277.15-.333.305l-.56 1.58-.03.16-.06 1.92-.106.58-.41-.51c-.096-.12-.243-.18-.39-.17-.147.02-.278.11-.352.25l-.67 1.28c-.04.076-.06.16-.06.246v2.82l-.345.136-.295-.435-.275-2.39h.064c.25 0 .458-.22.458-.49s-.205-.5-.457-.5h-.18l-.016-.14-.2-2.62c-.02-.17-.11-.32-.24-.4-.14-.08-.3-.078-.44.004l-1.19.71c-.13.08-.22.227-.24.39l-.14 1.58-.04.466h-2.92l-.25-.378c-.15-.216-.42-.27-.63-.125l-.71.503h-1.31c-.26 0-.46.22-.46.493s.2.49.46.49h.63l-.2.5-.04.19v2.01l-.4 1.29-.58.76-.23-2V12.3l-.04-.2-.97-2.368-.11-.17L7.19 8.55c-.133-.13-.324-.164-.49-.086-.163.076-.27.252-.272.446l-.012 1.905-.29.854L6 11.62c-.186-.08-.405-.03-.535.15l-.69.912c-.053.073-.09.16-.1.255L4.49 14.7l-.004.058v2.706l-.407-.355-.18-.1-2.08-.58c-.25-.07-.5.09-.56.35-.07.26.08.53.33.6l1.97.55 1.07.93 1.45 1.34c.07.06.16.1.25.11l3.35.34 2.97.29.03.61c.01.21.15.39.34.45l2.44.67.06.01 3.46.39 1.91.53.18.07.65.27-1.93.24-1.87.23-.03.01-1.87-.83c-.39-.2-1.61-.83-1.8-.9-.16-.06-1.05-.19-2.66-.4l-2.5-.31-.88-.7c-.08-.07-.17-.1-.27-.1H6.08L4.51 21l-1.7-.46-.11-.01h-.99c-.253 0-.457.22-.457.49s.205.496.457.496h.935L4.32 22l.06.01.99.117.64.08.05.003h1.76l.857.68c.064.052.14.084.22.094l2.62.324c1.07.138 2.27.305 2.47.35.15.068.977.486 1.713.865l.024.01 1.926.856 1.21.64.283.15-.517-.15H.92c-.505 0-.914.44-.914.99 0 .43.26.8.617.93.08.07.183.12.296.12.27 0 .39.05.55.12.2.08.44.18.88.18s.68-.1.88-.19c.16-.07.27-.12.55-.12s.38.05.55.11c.19.08.43.19.88.19s.68-.1.88-.19c.16-.07.28-.12.55-.12s.39.05.55.11c.19.08.44.18.88.18s.68-.103.88-.185c.16-.07.27-.116.55-.116s.39.05.55.116c.19.087.43.19.88.19s.68-.1.88-.183c.16-.07.28-.12.55-.12s.39.05.55.117c.19.08.44.184.88.184s.68-.1.88-.18c.16-.068.28-.117.55-.117s.39.05.55.11c.19.08.44.19.88.19s.68-.1.88-.185c.16-.06.28-.11.55-.11s.39.05.55.12c.19.082.44.185.88.185s.68-.105.88-.187c.16-.07.28-.12.55-.12s.39.05.55.12c.19.08.44.182.88.182s.68-.1.88-.182c.16-.07.28-.12.55-.12s.39.05.55.115c.19.08.44.184.88.184s.68-.1.88-.185c.16-.07.28-.12.55-.12s.39.05.55.116c.19.086.44.19.88.19s.69-.1.88-.18c.16-.064.27-.113.55-.113s.39.05.55.115c.19.084.44.19.88.19.25 0 .46-.22.46-.49v-.01c.27-.17.45-.49.45-.86zm-18.33-5.885l-.04-.677c-.02-.244-.19-.442-.42-.463l-2.98-.288-.22-.02v-1.82l-.01-.1-.08-.392.11-.154.99-1.29.08-.16.44-1.455.02-.155v-1.99l.32-.827.52-.37.26.41.02.04.05 1.94-.37 1.08-.45.07c-.23.04-.4.24-.4.49v1.54c0 .28.2.5.46.5.25 0 .45-.22.45-.49v-1.11l.33-.05c.17-.02.31-.15.37-.32l.42-1.25.32-.16.2.44v1.55l.02.14.332 1.29.006.02c.057.19.214.32.4.34l.846.07-.11.33-.01.05-.74 3.33-.06.04-.11.06-.12.1-.9-.25zm2.34-9.758l-.02.27-.01.04V14.2l.13 2.053-.09.258-.78-.06-.23-.89v-1.6l-.05-.21-.44-.97c-.11-.24-.38-.34-.6-.23l-.28.14-.04-1.29h2.38zm.99-.988l.03-.376.11-1.32.35-.213.14 1.86v.05l.42 3.626c.01.084.04.163.08.23l.57.84.01.018.04.06v.01l1.25 1.19.96 1.84c.09.16.24.25.4.25.08 0 .152-.02.23-.06.22-.13.29-.43.17-.67l-1-1.91-.1-.12-.73-.69.24-.1c.18-.07.3-.25.3-.46V11.4l.293-.556.594.75.01.01.042.046.012.01.05.04.02.014.066.03h.01l.08.02h.01l.39.05.17.02.59.73.035 1.256c.004.267.21.478.453.478h.014c.26-.01.45-.235.45-.51l-.04-1.43c-.005-.115-.046-.225-.116-.31l-.82-1.008c-.08-.096-.18-.155-.3-.168l-.24-.024.2-1.08.01-.08.057-1.874.28-.79.7.77.49 1.58.03.065.02.04.27.45.11.18.01.01.288.47.085.14.03.29.18 1.85v2.53l.242 2.48-1.5.55-2.546.94c-.1.04-.19.11-.24.213l-.08.16v.002l-.45.814h-4.43l-.11.02.547-2.47.54-1.63.023-.2-.13-2.14V11.7l.11-1.32zm9.76-.493l.06.024.03.07-.03.07-.06.024c-.26 0-.46.23-.46.5s.2.5.45.5h2.58c.07 0 .12.04.15.07.03.03.08.09.08.19s-.05.17-.08.19c-.03.03-.08.07-.15.07h-3.51l-.1-1.08c-.01-.08-.03-.15-.07-.22l-.23-.39h1.34zM5.4 14.786l.173-1.595.36-.47v1.06c0 .28.204.5.456.5s.46-.22.46-.49v-1.35l.45-1.34.03-.16.01-.89.25.25.89 2.18v1.78l.24 2.13v.04l.29 1.54v1.67l-2.46-.25-1.16-1.09v-3.5zm9.71-8.94h2.34c.255 0 .46-.22.46-.494s-.2-.494-.454-.494h-2.342c-.253 0-.457.22-.457.494s.205.494.457.494m.076-1.358h5.766c.253 0 .457-.22.457-.494s-.204-.494-.456-.494H15.19c-.253 0-.457.22-.457.494s.206.494.458.494" fill="#373D43"/></g></svg>