<svg width="32" height="232" viewBox="0 0 32 232" xmlns="http://www.w3.org/2000/svg"><g fill="none"><path d="M31.02 147.806h-.355v-8.446c0-.264-.213-.477-.476-.477h-1.32c.27-.453.45-1.013.45-1.685 0-1.675-1.22-2.625-2.11-3.32-.41-.318-.8-.62-.98-.904l-.17-.21-.18-.133v-.41c.13-.12.21-.29.21-.49 0-.38-.31-.68-.69-.68-.38 0-.68.31-.68.69 0 .2.08.37.21.5v.41l-.02.02c-.14.09-.25.21-.33.34-.18.28-.57.58-.97.9-.89.7-2.11 1.65-2.11 3.32 0 .67.18 1.23.46 1.69h-1.32c-.26 0-.48.22-.48.48v4.51c-.33-.44-.65-.9-.96-1.38v-11.65c0-.26-.22-.47-.48-.47h-1.97c-.12-.2-.31-.36-.54-.43-.09-.02-.19-.04-.29-.04h-2.88v-.51c0-.26-.22-.47-.48-.47s-.48.218-.48.48v.51H9.24c-.1 0-.19.015-.28.043-.23.07-.42.23-.54.436H6.45c-.264 0-.476.21-.476.47v11.65c-1.67 2.593-3.747 4.65-4.46 5.32h-.55c-.526 0-.95.424-.95.95 0 .53.424.956.95.956H31.02c.524 0 .95-.43.95-.957 0-.53-.426-.958-.95-.958zm-5.594-16.344c.133 0 .243.098.263.226-.08-.05-.17-.08-.27-.08s-.19.03-.27.08c.02-.128.13-.226.26-.226zm-.63 3.926c.21-.165.426-.333.63-.512.204.18.42.346.63.512.855.666 1.374 1.12 1.374 1.81 0 .678-.44 1.053-.683 1.208h-2.642c-.242-.155-.683-.53-.683-1.208 0-.69.518-1.144 1.373-1.81zm-18.08 9.395c.223-.307.445-.626.662-.955.56-.847 1.09-1.76 1.534-2.712.396-.848.725-1.728.95-2.626.214-.843.335-1.702.335-2.562v-4.133h4.812v4.133c0 .86.12 1.72.33 2.562.22.898.55 1.78.95 2.626.44.953.97 1.865 1.53 2.712.21.328.44.648.66.955.57.788 1.15 1.504 1.69 2.126l.47.53.33.36h-4.84l-1.33-7.52c-.02-.5-.35-1.11-.99-1.87-.45-.53-.9-.94-.92-.96-.18-.17-.46-.17-.64 0-.02.02-.47.43-.92.96-.65.76-.97 1.37-.99 1.87l-1.33 7.51h-4.8c.74-.79 1.63-1.82 2.5-3.02zm14.423-4.944h8.57v8.44h-.38v-6.18c-.04-.93-.76-1.66-1.63-1.66-.44 0-.85.18-1.14.49-.3-.31-.7-.5-1.14-.5-.45 0-.86.19-1.15.51-.3-.32-.7-.51-1.15-.51-.88 0-1.59.73-1.63 1.66v3.41l-.38-.45v-5.24zm3.62 2.29c.02-.42.31-.74.67-.74.31 0 .58.25.65.59l-.01.11v6.24h-1.32v-6.21zm-.95 5.67v.11l-.13-.12c-.26-.25-.7-.67-1.23-1.24v-4.44c.02-.42.32-.74.67-.74.36 0 .65.32.67.73v5.67zm-13.74 0l1.25-5.42.01-.11c.01-.23.59-.83 1.27-1.35.68.52 1.25 1.12 1.27 1.35l.01.1 1.25 5.41h-5.06zm2.8-7.86c-.17-.12-.39-.12-.55 0-.27.19-.7.51-1.08.88l.07-.41v-.09c0-.38.61-1.2 1.27-1.87.86.86 1.27 1.6 1.27 1.86l.01.08.07.41c-.39-.38-.81-.7-1.08-.88zm15.51 8.4h-1.35v-6.22l.02-.14c.07-.35.34-.6.65-.6.36 0 .65.32.67.73v6.21zm-10.11-7.51c-.81-1.57-1.37-3.26-1.37-4.92v-4.61h1.37v9.53zM6.91 131.3h1.37v4.61c0 1.66-.56 3.35-1.37 4.92v-9.53zm5.143 1.667c-.01-.176-.154-.316-.33-.316-.178 0-.32.14-.33.32v1.18h.656v-1.18zm.862 0c-.008-.176-.15-.316-.33-.316-.177 0-.32.14-.33.32v1.18h.66v-1.18zm.864 0c-.01-.176-.16-.316-.33-.316-.18 0-.32.14-.33.32v1.18h.66v-1.18zm.86 0c-.01-.176-.15-.316-.33-.316-.18 0-.32.14-.33.32v1.18h.66v-1.18zm-3.46 0c-.01-.176-.15-.316-.33-.316-.18 0-.32.14-.33.32v1.18h.66v-1.18zm10.38-3.098c.03.24.23.41.47.41l.06-.01 2.49-.33c.26-.04.44-.28.41-.54-.04-.26-.28-.45-.54-.41l-2.5.33c-.26.03-.44.27-.41.53zm-5.87-4.53c.03.24.23.41.47.41l.06-.01c.26-.03.44-.27.41-.53l-.33-2.51c-.04-.26-.27-.45-.53-.41-.26.03-.45.27-.41.53l.32 2.5zm-5.42.68l2.13 1.64c.08.07.18.1.29.1.14 0 .28-.07.37-.19.16-.21.12-.51-.09-.67l-2.13-1.65c-.21-.16-.51-.12-.67.08-.16.21-.12.51.09.67zm9.46.67c.08.07.19.1.29.1.14 0 .28-.07.38-.19l1.63-2.14c.16-.21.12-.51-.09-.67-.21-.16-.51-.12-.67.09l-1.64 2.15c-.16.21-.12.51.084.67zm1.23 1.43c.09.16.25.24.41.24.08 0 .16-.02.235-.06l1.482-.85c.23-.13.31-.42.18-.65-.13-.23-.42-.31-.65-.18l-1.48.85c-.23.13-.31.42-.18.65zm-7.13-1.96c.09.16.25.24.41.24.08 0 .16-.02.233-.06.23-.13.31-.43.18-.66l-.847-1.49c-.13-.23-.42-.31-.65-.18-.225.13-.305.42-.175.65l.844 1.49zm4.26-.28l.12.01c.208 0 .4-.14.457-.35l.45-1.65c.07-.25-.078-.52-.33-.59-.255-.07-.517.08-.586.33l-.45 1.65c-.07.25.08.51.33.58z" fill="#206FAC"/><path d="M31.02 107.806h-.355V99.36c0-.264-.213-.477-.476-.477h-1.32c.27-.453.45-1.013.45-1.685 0-1.675-1.22-2.625-2.11-3.32-.41-.318-.8-.62-.98-.904l-.17-.21-.18-.133v-.41c.13-.12.21-.29.21-.49 0-.38-.31-.68-.69-.68-.38 0-.68.31-.68.69 0 .2.08.37.21.5v.41l-.02.02c-.14.09-.25.21-.33.34-.18.28-.57.58-.97.9-.89.7-2.11 1.65-2.11 3.32 0 .67.18 1.23.46 1.69h-1.32c-.26 0-.48.22-.48.48v4.51c-.33-.44-.65-.9-.96-1.38V90.84c0-.264-.22-.477-.48-.477h-1.97c-.12-.205-.31-.362-.54-.435-.09-.028-.19-.043-.29-.043h-2.88v-.507c0-.264-.22-.477-.48-.477s-.48.22-.48.48v.51H9.24c-.1 0-.19.02-.28.05-.23.07-.42.23-.54.44H6.45c-.264 0-.476.22-.476.48v11.65c-1.67 2.6-3.747 4.65-4.46 5.32h-.55c-.526 0-.95.43-.95.96s.424.96.95.96H31.02c.524 0 .95-.42.95-.95s-.426-.96-.95-.96zm-5.594-16.344c.133 0 .243.098.263.226-.08-.05-.17-.08-.27-.08s-.19.03-.27.08c.02-.128.13-.226.26-.226zm-.63 3.926c.21-.165.426-.333.63-.512.204.18.42.346.63.512.855.666 1.374 1.12 1.374 1.81 0 .68-.44 1.054-.683 1.21h-2.642c-.242-.156-.683-.53-.683-1.21 0-.69.518-1.143 1.373-1.81zm-18.08 9.395c.223-.307.445-.626.662-.955.56-.847 1.09-1.76 1.534-2.712.396-.848.725-1.728.95-2.626.214-.843.335-1.702.335-2.562v-4.133h4.812v4.133c0 .86.12 1.72.33 2.562.22.898.55 1.78.95 2.626.44.953.97 1.865 1.53 2.712.21.328.44.648.66.955.57.788 1.15 1.504 1.69 2.126l.47.53.33.36h-4.84l-1.33-7.52c-.02-.5-.35-1.11-.99-1.87-.45-.53-.9-.94-.92-.96-.18-.17-.46-.17-.64 0-.02.02-.47.43-.92.96-.65.76-.97 1.37-.99 1.87l-1.33 7.51h-4.8c.74-.79 1.63-1.82 2.5-3.02zM21.14 99.84h8.574v8.44h-.375v-6.176c-.04-.93-.76-1.66-1.63-1.66-.44 0-.85.188-1.14.494-.3-.306-.7-.494-1.14-.494-.45 0-.86.195-1.15.51-.3-.315-.7-.51-1.15-.51-.88 0-1.59.73-1.63 1.66v3.41l-.38-.442v-5.235zm3.626 2.297c.02-.414.317-.737.675-.737.32 0 .59.252.66.597l-.01.11v6.244h-1.32v-6.21zm-.95 5.67v.114l-.123-.11c-.26-.24-.696-.67-1.23-1.23v-4.43c.022-.41.318-.73.676-.73.35 0 .65.33.67.74v5.67zm-13.744-.004l1.248-5.416.012-.106c.017-.22.593-.82 1.272-1.35.678.53 1.254 1.13 1.27 1.35l.013.11 1.248 5.42H10.07zm2.805-7.857c-.164-.116-.383-.116-.547 0-.266.188-.692.508-1.077.883l.072-.41.007-.09c0-.38.613-1.2 1.273-1.87.864.87 1.27 1.6 1.27 1.86l.007.08.073.41c-.386-.38-.812-.7-1.078-.89zm15.51 8.404h-1.35v-6.213l.02-.14c.072-.345.34-.597.656-.597.36 0 .654.323.675.737v6.213zm-10.105-7.503c-.808-1.57-1.37-3.26-1.37-4.92v-4.61h1.37v9.53zm-11.358-9.53h1.37v4.61c0 1.66-.562 3.35-1.37 4.92v-9.53zm5.143 1.666c-.008-.175-.152-.315-.33-.315-.176 0-.32.14-.328.315v1.177h.65v-1.177zm.864 0c0-.175-.15-.315-.32-.315s-.32.14-.33.315v1.177h.66v-1.177zm.87 0c-.01-.175-.15-.315-.33-.315-.17 0-.32.14-.33.315v1.177h.66v-1.177zm.87 0c-.01-.175-.15-.315-.33-.315-.17 0-.32.14-.33.315v1.177h.66v-1.177zm-3.45 0c-.01-.175-.15-.315-.33-.315-.17 0-.32.14-.33.315v1.177h.66v-1.177zm10.38-3.097c.03.24.24.415.47.415h.07l2.5-.33c.26-.03.45-.27.41-.53-.03-.26-.27-.44-.53-.41l-2.51.32c-.26.04-.44.28-.41.54zm-5.86-4.523c.03.24.24.415.47.415l.07-.004c.26-.034.44-.274.41-.536l-.33-2.506c-.04-.26-.28-.446-.54-.41-.26.033-.44.273-.41.535l.33 2.505zm-5.42.68l2.14 1.644c.09.067.19.1.29.1.15 0 .29-.065.38-.188.16-.21.12-.51-.08-.67l-2.14-1.65c-.21-.16-.51-.12-.66.09-.16.21-.12.51.09.67zm9.47.678c.09.07.19.1.29.1.14 0 .28-.06.38-.18l1.64-2.14c.16-.21.12-.51-.09-.67-.21-.16-.51-.12-.66.09l-1.64 2.15c-.16.21-.12.51.09.67zm1.23 1.43c.09.16.25.24.42.24.08 0 .16-.02.23-.06l1.48-.85c.23-.13.31-.42.18-.65-.13-.23-.42-.31-.65-.18l-1.48.85c-.23.13-.31.42-.18.65zm-7.13-1.96c.09.16.25.24.41.24.08 0 .16-.02.24-.06.23-.13.31-.42.18-.65l-.84-1.49c-.13-.23-.42-.31-.64-.17-.23.13-.31.42-.18.65l.85 1.49zm4.26-.27l.13.02c.21 0 .4-.14.46-.35l.45-1.65c.07-.25-.08-.51-.33-.58-.25-.07-.51.08-.58.33l-.45 1.65c-.07.26.08.52.34.59z" fill="#fff"/><path d="M31.02 67.806h-.355V59.36c0-.264-.213-.477-.476-.477h-1.32c.27-.453.45-1.013.45-1.685 0-1.675-1.22-2.625-2.11-3.32-.41-.318-.8-.62-.98-.904l-.17-.21-.18-.133v-.41c.13-.12.21-.29.21-.49 0-.38-.31-.68-.69-.68-.38 0-.68.31-.68.69 0 .2.08.37.21.5v.41l-.02.02c-.14.09-.25.21-.33.34-.18.28-.57.58-.97.9-.89.7-2.11 1.65-2.11 3.32 0 .67.18 1.23.46 1.69h-1.32c-.26 0-.48.22-.48.48v4.5c-.33-.44-.65-.9-.96-1.38V50.84c0-.264-.22-.477-.48-.477h-1.97c-.12-.205-.31-.362-.54-.435-.09-.028-.19-.043-.29-.043h-2.88v-.507c0-.264-.22-.477-.48-.477s-.48.22-.48.48v.51H9.24c-.1 0-.19.02-.28.05-.23.07-.42.23-.54.44H6.45c-.264 0-.476.22-.476.48V62.5c-1.67 2.595-3.747 4.647-4.46 5.32h-.55c-.526 0-.95.426-.95.953 0 .528.424.954.95.954H31.02c.524 0 .95-.427.95-.954 0-.53-.426-.958-.95-.958zm-5.594-16.344c.133 0 .243.098.263.226-.08-.05-.17-.08-.27-.08s-.19.03-.27.08c.02-.128.13-.226.26-.226zm-.63 3.926c.21-.165.426-.333.63-.512.204.18.42.346.63.512.855.666 1.374 1.12 1.374 1.81 0 .68-.44 1.054-.683 1.21h-2.642c-.242-.156-.683-.53-.683-1.21 0-.69.518-1.143 1.373-1.81zm-18.08 9.395c.223-.307.445-.626.662-.955.56-.847 1.09-1.76 1.534-2.712.396-.848.725-1.728.95-2.626.214-.843.335-1.702.335-2.562v-4.133h4.812v4.133c0 .86.12 1.72.33 2.562.22.898.55 1.78.95 2.626.44.953.97 1.865 1.53 2.712.21.328.44.648.66.955.57.788 1.15 1.504 1.69 2.126l.47.53.33.36h-4.84l-1.33-7.52c-.02-.5-.35-1.11-.99-1.87-.45-.53-.9-.94-.92-.96-.18-.17-.46-.17-.64 0-.02.02-.47.43-.92.96-.65.76-.97 1.37-.99 1.87l-1.3 7.52H4.21c.74-.79 1.636-1.82 2.505-3.02zM21.14 59.84h8.574v8.44h-.375v-6.176c-.04-.93-.76-1.66-1.63-1.66-.44 0-.85.188-1.14.494-.3-.306-.7-.494-1.14-.494-.45 0-.86.195-1.15.51-.3-.315-.7-.51-1.15-.51-.88 0-1.59.73-1.63 1.66v3.41l-.38-.442v-5.235zm3.626 2.297c.02-.414.317-.737.675-.737.32 0 .59.252.66.597l-.01.11v6.244h-1.32v-6.21zm-.95 5.67v.114l-.123-.11c-.26-.24-.696-.67-1.23-1.23v-4.44c.022-.41.318-.73.676-.73.35 0 .65.33.67.74v5.67zm-13.744-.004l1.248-5.416.012-.106c.017-.22.593-.82 1.272-1.35.678.53 1.254 1.13 1.27 1.35l.013.11 1.248 5.42H10.07zm2.805-7.857c-.164-.116-.383-.116-.547 0-.266.188-.692.508-1.077.883l.072-.41.007-.09c0-.38.613-1.2 1.273-1.87.864.87 1.27 1.6 1.27 1.86l.007.08.073.41c-.386-.38-.812-.7-1.078-.89zm15.51 8.404h-1.35v-6.213l.02-.14c.072-.345.34-.597.656-.597.36 0 .654.323.675.737v6.213zm-10.105-7.503c-.808-1.57-1.37-3.26-1.37-4.92v-4.61h1.37v9.53zm-11.358-9.53h1.37v4.61c0 1.66-.562 3.35-1.37 4.92v-9.53zm5.143 1.666c-.008-.175-.152-.315-.33-.315-.176 0-.32.14-.328.315v1.177h.65v-1.177zm.864 0c0-.175-.15-.315-.32-.315s-.32.14-.33.315v1.177h.66v-1.177zm.87 0c-.01-.175-.15-.315-.33-.315-.17 0-.32.14-.33.315v1.177h.66v-1.177zm.87 0c-.01-.175-.15-.315-.33-.315-.17 0-.32.14-.33.315v1.177h.66v-1.177zm-3.45 0c-.01-.175-.15-.315-.33-.315-.17 0-.32.14-.33.315v1.177h.66v-1.177zm10.38-3.097c.03.24.24.415.47.415h.07l2.5-.33c.26-.03.45-.27.41-.53-.03-.26-.27-.44-.53-.41l-2.51.32c-.26.04-.44.28-.41.54zm-5.86-4.523c.03.24.24.415.47.415l.07-.004c.26-.034.44-.274.41-.536l-.33-2.506c-.04-.26-.28-.446-.54-.41-.26.033-.44.273-.41.535l.33 2.505zm-5.42.68l2.14 1.644c.09.067.19.1.29.1.15 0 .29-.065.38-.188.16-.21.12-.51-.08-.67l-2.14-1.65c-.21-.16-.51-.12-.66.09-.16.21-.12.51.09.67zm9.47.678c.09.07.19.1.29.1.14 0 .28-.06.38-.18l1.64-2.14c.16-.21.12-.51-.09-.67-.21-.16-.51-.12-.66.09l-1.64 2.15c-.16.21-.12.51.09.67zm1.23 1.43c.09.16.25.24.42.24.08 0 .16-.02.23-.06l1.48-.85c.23-.13.31-.42.18-.65-.13-.23-.42-.31-.65-.18l-1.48.85c-.23.13-.31.42-.18.65zm-7.13-1.96c.09.16.25.24.41.24.08 0 .16-.02.24-.06.23-.13.31-.42.18-.65l-.84-1.49c-.13-.23-.42-.31-.64-.17-.23.13-.31.42-.18.65l.85 1.49zm4.26-.27l.13.02c.21 0 .4-.14.46-.35l.45-1.65c.07-.25-.08-.51-.33-.58-.25-.07-.51.08-.58.33l-.45 1.65c-.07.26.08.52.34.59z" fill="#67737B"/><path d="M31.02 27.806h-.355V19.36c0-.264-.213-.477-.476-.477h-1.32c.27-.453.45-1.013.45-1.685 0-1.675-1.22-2.625-2.11-3.32-.41-.318-.8-.62-.98-.904l-.17-.21-.18-.133v-.41c.13-.12.21-.29.21-.49 0-.38-.31-.68-.69-.68-.38 0-.68.31-.68.69 0 .2.08.37.21.5v.41l-.02.02c-.14.09-.25.21-.33.34-.18.28-.57.58-.97.9-.89.7-2.11 1.65-2.11 3.32 0 .67.18 1.23.46 1.69h-1.32c-.26 0-.48.22-.48.48v4.5c-.33-.44-.65-.9-.96-1.38V10.84c0-.264-.22-.477-.48-.477h-1.97c-.12-.205-.31-.362-.54-.435-.09-.028-.19-.043-.29-.043h-2.88v-.507c0-.264-.22-.477-.48-.477s-.48.22-.48.48v.51H9.24c-.1 0-.19.02-.28.05-.23.07-.42.23-.54.44H6.45c-.264 0-.476.22-.476.48V22.5c-1.67 2.595-3.747 4.647-4.46 5.32h-.55c-.526 0-.95.426-.95.953 0 .528.424.954.95.954H31.02c.524 0 .95-.427.95-.954 0-.53-.426-.958-.95-.958zm-5.594-16.344c.133 0 .243.098.263.226-.08-.05-.17-.08-.27-.08s-.19.03-.27.08c.02-.128.13-.226.26-.226zm-.63 3.926c.21-.165.426-.333.63-.512.204.18.42.346.63.512.855.666 1.374 1.12 1.374 1.81 0 .68-.44 1.054-.683 1.21h-2.642c-.242-.156-.683-.53-.683-1.21 0-.69.518-1.143 1.373-1.81zm-18.08 9.395c.223-.307.445-.626.662-.955.56-.847 1.09-1.76 1.534-2.712.396-.848.725-1.728.95-2.626.214-.843.335-1.702.335-2.562v-4.133h4.812v4.133c0 .86.12 1.72.33 2.562.22.898.55 1.78.95 2.626.44.953.97 1.865 1.53 2.712.21.328.44.648.66.955.57.788 1.15 1.504 1.69 2.126l.47.53.33.36h-4.84l-1.33-7.52c-.02-.5-.35-1.11-.99-1.87-.45-.53-.9-.94-.92-.96-.18-.17-.46-.17-.64 0-.02.02-.47.43-.92.96-.65.76-.97 1.37-.99 1.87l-1.3 7.52H4.21c.74-.79 1.636-1.82 2.505-3.02zM21.14 19.84h8.574v8.44h-.375v-6.176c-.04-.93-.76-1.66-1.63-1.66-.44 0-.85.188-1.14.494-.3-.306-.7-.494-1.14-.494-.45 0-.86.195-1.15.51-.3-.315-.7-.51-1.15-.51-.88 0-1.59.73-1.63 1.66v3.41l-.38-.442v-5.235zm3.626 2.297c.02-.414.317-.737.675-.737.32 0 .59.252.66.597l-.01.11v6.244h-1.32v-6.21zm-.95 5.67v.114l-.123-.11c-.26-.24-.696-.67-1.23-1.23v-4.44c.022-.41.318-.73.676-.73.35 0 .65.33.67.74v5.67zm-13.744-.004l1.248-5.416.012-.106c.017-.22.593-.82 1.272-1.35.678.53 1.254 1.13 1.27 1.35l.013.11 1.248 5.42H10.07zm2.805-7.857c-.164-.116-.383-.116-.547 0-.266.188-.692.508-1.077.883l.072-.41.007-.09c0-.38.613-1.2 1.273-1.87.864.87 1.27 1.6 1.27 1.86l.007.08.073.41c-.386-.38-.812-.7-1.078-.89zm15.51 8.404h-1.35v-6.213l.02-.14c.072-.345.34-.597.656-.597.36 0 .654.323.675.737v6.213zm-10.105-7.503c-.808-1.57-1.37-3.26-1.37-4.92v-4.61h1.37v9.53zm-11.358-9.53h1.37v4.61c0 1.66-.562 3.35-1.37 4.92v-9.53zm5.143 1.666c-.008-.175-.152-.315-.33-.315-.176 0-.32.14-.328.315v1.177h.65v-1.177zm.864 0c0-.175-.15-.315-.32-.315s-.32.14-.33.315v1.177h.66v-1.177zm.87 0c-.01-.175-.15-.315-.33-.315-.17 0-.32.14-.33.315v1.177h.66v-1.177zm.87 0c-.01-.175-.15-.315-.33-.315-.17 0-.32.14-.33.315v1.177h.66v-1.177zm-3.45 0c-.01-.175-.15-.315-.33-.315-.17 0-.32.14-.33.315v1.177h.66v-1.177zM21.6 9.886c.03.24.235.415.47.415h.064l2.496-.33c.26-.03.444-.27.41-.53-.034-.26-.27-.44-.533-.41l-2.5.32c-.26.04-.443.28-.41.54zm-5.87-4.523c.03.24.235.415.47.415l.063-.004c.26-.034.44-.274.41-.536l-.33-2.506c-.04-.26-.278-.446-.538-.41-.26.033-.445.273-.41.535l.326 2.505zm-5.42.68l2.134 1.644c.087.067.19.1.29.1.143 0 .284-.065.377-.188.16-.21.12-.51-.08-.67l-2.14-1.65c-.21-.16-.51-.12-.67.08-.16.21-.12.51.09.67zm9.466.678c.086.07.188.1.29.1.142 0 .283-.06.377-.18l1.63-2.14c.16-.21.12-.51-.087-.67-.21-.16-.508-.12-.667.09l-1.64 2.14c-.16.21-.12.51.08.67zm1.234 1.43c.087.16.247.24.413.24.08 0 .16-.02.236-.06l1.48-.85c.23-.13.31-.42.18-.65-.13-.23-.42-.31-.65-.18l-1.48.85c-.23.13-.31.42-.18.65zm-7.133-1.97c.088.16.248.25.413.25.08 0 .16-.02.235-.06.228-.13.307-.43.177-.65l-.85-1.49c-.13-.23-.42-.31-.65-.18-.228.13-.308.43-.178.65l.843 1.49zm4.26-.27l.125.02c.2 0 .4-.14.45-.35l.45-1.65c.07-.25-.078-.51-.33-.58-.254-.07-.516.08-.585.33l-.45 1.65c-.07.26.08.52.332.59z" fill="#3A434E"/></g></svg>