<svg width="32" height="232" viewBox="0 0 32 232" xmlns="http://www.w3.org/2000/svg"><g fill="none">

			<path id="XMLID_1942_" fill="#3A444F" d="M20.4,3L20.4,3c0.2,0,0.4-0.1,0.5-0.3c0.1-0.2,0-0.4-0.1-0.5C20.7,2.1,20.6,2,20.4,2
				c-0.1,0-0.3,0.1-0.4,0.2c-0.1,0.1-0.2,0.2-0.2,0.4c0,0.1,0.1,0.3,0.2,0.4C20.1,3,20.3,3,20.4,3z"/>
			<path id="XMLID_1941_" fill="#3A444F" d="M18.8,4.9L18.8,4.9c0.2,0,0.4-0.1,0.5-0.3c0.1-0.2,0.1-0.4-0.1-0.6
				c-0.1-0.1-0.3-0.2-0.4-0.2c-0.2,0-0.3,0.1-0.4,0.2c0,0,0,0,0,0.1c-0.1,0.2-0.1,0.4,0.1,0.6C18.6,4.8,18.7,4.9,18.8,4.9z"/>
			<path id="XMLID_1940_" fill="#3A444F" d="M20.3,4.4c-0.1,0.1-0.2,0.2-0.2,0.4c0,0.1,0.1,0.3,0.2,0.4c0.1,0.1,0.2,0.1,0.3,0.1
				c0,0,0,0,0.1,0c0.1,0,0.2,0,0.2-0.1c0.1-0.1,0.2-0.1,0.2-0.2c0,0,0-0.1,0-0.1c0,0,0-0.1,0-0.1c0-0.2-0.1-0.4-0.3-0.5
				C20.8,4.2,20.5,4.3,20.3,4.4z"/>
			<path id="XMLID_1939_" fill="#3A444F" d="M22.3,20.7c0-0.3-0.2-0.5-0.5-0.6c-0.3,0-0.5,0.2-0.6,0.5c0,0.2,0,0.4,0,0.7
				c0,0.7,0,1.5,0.1,2.4c0,0.3,0.2,0.5,0.5,0.5c0,0,0,0,0,0c0.3,0,0.5-0.3,0.5-0.5c0-0.8-0.1-1.6-0.1-2.3
				C22.3,21.1,22.3,20.9,22.3,20.7z"/>
			<path id="XMLID_1938_" fill="#3A444F" d="M23.3,10.8c-0.3,0-0.5,0.3-0.5,0.5c0,0.7,0,1.4,0,2.1c0,1.9-0.3,2.8-0.7,3.8
				c-0.1,0.3-0.3,0.7-0.4,1.1c-0.1,0.3,0.1,0.6,0.3,0.7c0.1,0,0.1,0,0.2,0c0.2,0,0.4-0.1,0.5-0.4c0.1-0.4,0.2-0.7,0.4-1
				c0.4-1,0.8-2.1,0.8-4.2c0-0.8,0-1.5,0-2.2C23.8,11,23.6,10.8,23.3,10.8z"/>
			<path id="XMLID_1930_" fill="#3A444F" d="M25.4,13.5c0-3.8-0.5-4.7-0.8-4.9c0,0,0,0-0.1-0.1c0-0.1,0-0.1,0-0.2
				c0-0.4-0.3-1.1-1.5-1.5c-0.8-0.3-1.9-0.5-3.1-0.5c-1.1,0-2.2,0.2-3.1,0.5c-1.3,0.5-1.5,1.1-1.5,1.5c0,0.1,0,0.1,0,0.2
				c-0.5,0.2-0.9,1.3-0.9,5c0,0,0,0.1,0,0.1c-0.1,0-0.2,0-0.3,0.1c-0.6,0.3-1.1,1-1.6,2.1c-0.2-1.2-0.5-2-0.9-2.5
				c-0.4-0.4-0.8-0.6-1.3-0.6c-0.8,0-1.4,0.6-2.1,1.3c-0.1,0.1-0.1,0.1-0.2,0.2c-0.1,0.1-0.1,0.1-0.2,0.2c-0.7,0.7-1.3,1.3-1.3,2.1
				c0,0.4,0.2,0.9,0.6,1.3c0.5,0.5,1.5,0.8,2.5,1c-1.1,0.5-1.8,1-2.1,1.6c-0.3,0.5-0.4,1-0.2,1.4c0.2,0.8,1,1.2,1.9,1.7
				c0.1,0,0.2,0.1,0.3,0.1c0.1,0.1,0.2,0.1,0.3,0.1c0.7,0.4,1.3,0.8,2,0.8h0c0.6,0,1.1-0.3,1.5-1c0.4-0.7,0.4-1.7,0.1-3.2
				c0,0,0-0.1,0-0.1c0.3,0.3,0.6,0.7,0.8,1.2c0.4,1,0.4,2.1,0,3.1c-0.1,0.3,0,0.6,0.3,0.7c0.1,0,0.1,0,0.2,0c0.2,0,0.4-0.1,0.5-0.3
				c0.5-1.3,0.5-2.6,0-3.9c-0.2-0.6-0.6-1-0.9-1.5c0.6,0.1,1.3,0.2,1.9,0.2c0,0,0,0,0,0c0.1,0.5,0.2,1.1,0.2,1.7
				c0,2.9-0.4,5.5-0.4,5.5c0,0.2,0.1,0.5,0.3,0.6c0.1,0,1.7,0.6,3.9,0.6c2.2,0,3.9-0.6,4-0.6c0.2-0.1,0.4-0.3,0.4-0.6
				c0,0-0.4-2.6-0.4-5.5c0-1.4,0.3-2.2,0.7-3.1C24.9,17.1,25.4,15.9,25.4,13.5z M16.4,8.4c0-0.2,1.1-0.9,3.6-0.9
				c2.5,0,3.6,0.7,3.6,0.9c0,0,0,0.1,0,0.1h-4.1c0,0-0.1,0-0.1,0c0,0-0.1,0-0.1,0c-0.3,0-0.5,0.2-0.5,0.5v3.6c0,0.2-0.2,0.4-0.4,0.4
				c-0.2,0-0.4-0.2-0.4-0.4V9c0-0.3-0.2-0.5-0.5-0.5c0,0-0.1,0-0.1,0c-0.1,0-0.1,0-0.2,0L16.4,8.4C16.4,8.5,16.4,8.4,16.4,8.4z
				 M7.9,17c-0.2-0.2-0.3-0.4-0.3-0.5c0-0.4,0.5-0.8,1-1.3C8.7,15,8.8,15,8.9,14.9c0.1-0.1,0.1-0.1,0.2-0.2c0.5-0.5,1-1,1.4-1
				c0.1,0,0.2,0,0.5,0.3c0.6,0.6,0.7,2.5,0.7,3.8C10.1,17.8,8.4,17.5,7.9,17z M12.2,22.9c-0.3,0.5-0.5,0.5-0.6,0.5h0
				c-0.4,0-0.9-0.3-1.5-0.6c-0.1-0.1-0.2-0.1-0.3-0.2c-0.1-0.1-0.2-0.1-0.3-0.2c-0.6-0.4-1.3-0.7-1.3-1c0-0.1,0-0.4,0.1-0.6
				c0.4-0.7,2-1.4,3.3-1.8c0,0,0.1,0,0.1,0c0,0,0.1,0,0.1,0.1c0.1,0.3,0.2,0.7,0.3,1.2C12.4,21.6,12.4,22.5,12.2,22.9z M12.9,18
				c0.4-1.2,1.1-2.8,1.7-3.3c0.1,1.6,0.5,2.6,0.9,3.5c0,0.1,0.1,0.2,0.1,0.3C14.6,18.5,13.5,18.2,12.9,18z M19.9,27
				c-1.4,0-2.5-0.2-3.1-0.4c0-0.2,0-0.4,0.1-0.6c0.5,0.2,1.6,0.5,3.1,0.5c1.6,0,2.6-0.3,3.1-0.5c0,0.3,0.1,0.5,0.1,0.6
				C22.6,26.7,21.3,27,19.9,27z M23.5,17.9c-0.4,1-0.7,1.9-0.7,3.5c0,1.3,0.1,2.5,0.2,3.4c0,0,0,0,0,0c0,0-0.9,0.6-2.9,0.6
				c-1.8,0-2.8-0.4-3-0.5c0.1-1,0.2-2.2,0.2-3.5c0-1.5-0.4-2.5-0.7-3.5c-0.4-1.1-0.8-2.2-0.8-4.4c0-2.7,0.2-3.7,0.3-4h1v3.1
				c0,0.8,0.6,1.4,1.4,1.4c0.8,0,1.4-0.6,1.4-1.4V9.5H24c0.1,0.4,0.4,1.4,0.4,4C24.4,15.7,24,16.8,23.5,17.9z"/>
		</g>
		<g id="XMLID_2441_">
			<path id="XMLID_2454_" fill="#67737C" d="M20.4,43L20.4,43c0.2,0,0.4-0.1,0.5-0.3c0.1-0.2,0-0.4-0.1-0.5
				c-0.1-0.1-0.2-0.2-0.4-0.2c-0.1,0-0.3,0.1-0.4,0.2c-0.1,0.1-0.2,0.2-0.2,0.4c0,0.1,0.1,0.3,0.2,0.4C20.1,43,20.3,43,20.4,43z"/>
			<path id="XMLID_2453_" fill="#67737C" d="M18.8,44.9L18.8,44.9c0.2,0,0.4-0.1,0.5-0.3c0.1-0.2,0.1-0.4-0.1-0.6
				c-0.1-0.1-0.3-0.2-0.4-0.2c-0.2,0-0.3,0.1-0.4,0.2c0,0,0,0,0,0.1c-0.1,0.2-0.1,0.4,0.1,0.6C18.6,44.8,18.7,44.9,18.8,44.9z"/>
			<path id="XMLID_2452_" fill="#67737C" d="M20.3,44.4c-0.1,0.1-0.2,0.2-0.2,0.4c0,0.1,0.1,0.3,0.2,0.4c0.1,0.1,0.2,0.1,0.3,0.1
				c0,0,0,0,0.1,0c0.1,0,0.2,0,0.2-0.1c0.1-0.1,0.2-0.1,0.2-0.2c0,0,0-0.1,0-0.1c0,0,0-0.1,0-0.1c0-0.2-0.1-0.4-0.3-0.5
				C20.8,44.2,20.5,44.3,20.3,44.4z"/>
			<path id="XMLID_2451_" fill="#67737C" d="M22.3,60.7c0-0.3-0.2-0.5-0.5-0.6c-0.3,0-0.5,0.2-0.6,0.5c0,0.2,0,0.4,0,0.7
				c0,0.7,0,1.5,0.1,2.4c0,0.3,0.2,0.5,0.5,0.5c0,0,0,0,0,0c0.3,0,0.5-0.3,0.5-0.5c0-0.8-0.1-1.6-0.1-2.3
				C22.3,61.1,22.3,60.9,22.3,60.7z"/>
			<path id="XMLID_2450_" fill="#67737C" d="M23.3,50.8c-0.3,0-0.5,0.3-0.5,0.5c0,0.7,0,1.4,0,2.1c0,1.9-0.3,2.8-0.7,3.8
				c-0.1,0.3-0.3,0.7-0.4,1.1c-0.1,0.3,0.1,0.6,0.3,0.7c0.1,0,0.1,0,0.2,0c0.2,0,0.4-0.1,0.5-0.4c0.1-0.4,0.2-0.7,0.4-1
				c0.4-1,0.8-2.1,0.8-4.2c0-0.8,0-1.5,0-2.2C23.8,51,23.6,50.8,23.3,50.8z"/>
			<path id="XMLID_2442_" fill="#67737C" d="M25.4,53.5c0-3.8-0.5-4.7-0.8-4.9c0,0,0,0-0.1-0.1c0-0.1,0-0.1,0-0.2
				c0-0.4-0.3-1.1-1.5-1.5c-0.8-0.3-1.9-0.5-3.1-0.5c-1.1,0-2.2,0.2-3.1,0.5c-1.3,0.5-1.5,1.1-1.5,1.5c0,0.1,0,0.1,0,0.2
				c-0.5,0.2-0.9,1.3-0.9,5c0,0,0,0.1,0,0.1c-0.1,0-0.2,0-0.3,0.1c-0.6,0.3-1.1,1-1.6,2.1c-0.2-1.2-0.5-2-0.9-2.5
				c-0.4-0.4-0.8-0.6-1.3-0.6c-0.8,0-1.4,0.6-2.1,1.3c-0.1,0.1-0.1,0.1-0.2,0.2c-0.1,0.1-0.1,0.1-0.2,0.2c-0.7,0.7-1.3,1.3-1.3,2.1
				c0,0.4,0.2,0.9,0.6,1.3c0.5,0.5,1.5,0.8,2.5,1c-1.1,0.5-1.8,1-2.1,1.6c-0.3,0.5-0.4,1-0.2,1.4c0.2,0.8,1,1.2,1.9,1.7
				c0.1,0,0.2,0.1,0.3,0.1c0.1,0.1,0.2,0.1,0.3,0.1c0.7,0.4,1.3,0.8,2,0.8h0c0.6,0,1.1-0.3,1.5-1c0.4-0.7,0.4-1.7,0.1-3.2
				c0,0,0-0.1,0-0.1c0.3,0.3,0.6,0.7,0.8,1.2c0.4,1,0.4,2.1,0,3.1c-0.1,0.3,0,0.6,0.3,0.7c0.1,0,0.1,0,0.2,0c0.2,0,0.4-0.1,0.5-0.3
				c0.5-1.3,0.5-2.6,0-3.9c-0.2-0.6-0.6-1-0.9-1.5c0.6,0.1,1.3,0.2,1.9,0.2c0,0,0,0,0,0c0.1,0.5,0.2,1.1,0.2,1.7
				c0,2.9-0.4,5.5-0.4,5.5c0,0.2,0.1,0.5,0.3,0.6c0.1,0,1.7,0.6,3.9,0.6c2.2,0,3.9-0.6,4-0.6c0.2-0.1,0.4-0.3,0.4-0.6
				c0,0-0.4-2.6-0.4-5.5c0-1.4,0.3-2.2,0.7-3.1C24.9,57.1,25.4,55.9,25.4,53.5z M16.4,48.4c0-0.2,1.1-0.9,3.6-0.9
				c2.5,0,3.6,0.7,3.6,0.9c0,0,0,0.1,0,0.1h-4.1c0,0-0.1,0-0.1,0c0,0-0.1,0-0.1,0c-0.3,0-0.5,0.2-0.5,0.5v3.6c0,0.2-0.2,0.4-0.4,0.4
				c-0.2,0-0.4-0.2-0.4-0.4V49c0-0.3-0.2-0.5-0.5-0.5c0,0-0.1,0-0.1,0c-0.1,0-0.1,0-0.2,0L16.4,48.4C16.4,48.5,16.4,48.4,16.4,48.4z
				 M7.9,57c-0.2-0.2-0.3-0.4-0.3-0.5c0-0.4,0.5-0.8,1-1.3C8.7,55,8.8,55,8.9,54.9c0.1-0.1,0.1-0.1,0.2-0.2c0.5-0.5,1-1,1.4-1
				c0.1,0,0.2,0,0.5,0.3c0.6,0.6,0.7,2.5,0.7,3.8C10.1,57.8,8.4,57.5,7.9,57z M12.2,62.9c-0.3,0.5-0.5,0.5-0.6,0.5h0
				c-0.4,0-0.9-0.3-1.5-0.6c-0.1-0.1-0.2-0.1-0.3-0.2c-0.1-0.1-0.2-0.1-0.3-0.2c-0.6-0.4-1.3-0.7-1.3-1c0-0.1,0-0.4,0.1-0.6
				c0.4-0.7,2-1.4,3.3-1.8c0,0,0.1,0,0.1,0c0,0,0.1,0,0.1,0.1c0.1,0.3,0.2,0.7,0.3,1.2C12.4,61.6,12.4,62.5,12.2,62.9z M12.9,58
				c0.4-1.2,1.1-2.8,1.7-3.3c0.1,1.6,0.5,2.6,0.9,3.5c0,0.1,0.1,0.2,0.1,0.3C14.6,58.5,13.5,58.2,12.9,58z M19.9,67
				c-1.4,0-2.5-0.2-3.1-0.4c0-0.2,0-0.4,0.1-0.6c0.5,0.2,1.6,0.5,3.1,0.5c1.6,0,2.6-0.3,3.1-0.5c0,0.3,0.1,0.5,0.1,0.6
				C22.6,66.7,21.3,67,19.9,67z M23.5,57.9c-0.4,1-0.7,1.9-0.7,3.5c0,1.3,0.1,2.5,0.2,3.4c0,0,0,0,0,0c0,0-0.9,0.6-2.9,0.6
				c-1.8,0-2.8-0.4-3-0.5c0.1-1,0.2-2.2,0.2-3.5c0-1.5-0.4-2.5-0.7-3.5c-0.4-1.1-0.8-2.2-0.8-4.4c0-2.7,0.2-3.7,0.3-4h1v3.1
				c0,0.8,0.6,1.4,1.4,1.4c0.8,0,1.4-0.6,1.4-1.4v-3.1H24c0.1,0.4,0.4,1.4,0.4,4C24.4,55.7,24,56.8,23.5,57.9z"/>
		</g>
		<g id="XMLID_2610_">
			<path id="XMLID_2623_" fill="#FFFFFF" d="M20.4,83L20.4,83c0.2,0,0.4-0.1,0.5-0.3c0.1-0.2,0-0.4-0.1-0.5
				c-0.1-0.1-0.2-0.2-0.4-0.2c-0.1,0-0.3,0.1-0.4,0.2c-0.1,0.1-0.2,0.2-0.2,0.4c0,0.1,0.1,0.3,0.2,0.4C20.1,83,20.3,83,20.4,83z"/>
			<path id="XMLID_2622_" fill="#FFFFFF" d="M18.8,84.9L18.8,84.9c0.2,0,0.4-0.1,0.5-0.3c0.1-0.2,0.1-0.4-0.1-0.6
				c-0.1-0.1-0.3-0.2-0.4-0.2c-0.2,0-0.3,0.1-0.4,0.2c0,0,0,0,0,0.1c-0.1,0.2-0.1,0.4,0.1,0.6C18.6,84.8,18.7,84.9,18.8,84.9z"/>
			<path id="XMLID_2621_" fill="#FFFFFF" d="M20.3,84.4c-0.1,0.1-0.2,0.2-0.2,0.4c0,0.1,0.1,0.3,0.2,0.4c0.1,0.1,0.2,0.1,0.3,0.1
				c0,0,0,0,0.1,0c0.1,0,0.2,0,0.2-0.1c0.1-0.1,0.2-0.1,0.2-0.2c0,0,0-0.1,0-0.1c0,0,0-0.1,0-0.1c0-0.2-0.1-0.4-0.3-0.5
				C20.8,84.2,20.5,84.3,20.3,84.4z"/>
			<path id="XMLID_2620_" fill="#FFFFFF" d="M22.3,100.7c0-0.3-0.2-0.5-0.5-0.6c-0.3,0-0.5,0.2-0.6,0.5c0,0.2,0,0.4,0,0.7
				c0,0.7,0,1.5,0.1,2.4c0,0.3,0.2,0.5,0.5,0.5c0,0,0,0,0,0c0.3,0,0.5-0.3,0.5-0.5c0-0.8-0.1-1.6-0.1-2.3
				C22.3,101.1,22.3,100.9,22.3,100.7z"/>
			<path id="XMLID_2619_" fill="#FFFFFF" d="M23.3,90.8c-0.3,0-0.5,0.3-0.5,0.5c0,0.7,0,1.4,0,2.1c0,1.9-0.3,2.8-0.7,3.8
				c-0.1,0.3-0.3,0.7-0.4,1.1c-0.1,0.3,0.1,0.6,0.3,0.7c0.1,0,0.1,0,0.2,0c0.2,0,0.4-0.1,0.5-0.4c0.1-0.4,0.2-0.7,0.4-1
				c0.4-1,0.8-2.1,0.8-4.2c0-0.8,0-1.5,0-2.2C23.8,91,23.6,90.8,23.3,90.8z"/>
			<path id="XMLID_2611_" fill="#FFFFFF" d="M25.4,93.5c0-3.8-0.5-4.7-0.8-4.9c0,0,0,0-0.1-0.1c0-0.1,0-0.1,0-0.2
				c0-0.4-0.3-1.1-1.5-1.5c-0.8-0.3-1.9-0.5-3.1-0.5c-1.1,0-2.2,0.2-3.1,0.5c-1.3,0.5-1.5,1.1-1.5,1.5c0,0.1,0,0.1,0,0.2
				c-0.5,0.2-0.9,1.3-0.9,5c0,0,0,0.1,0,0.1c-0.1,0-0.2,0-0.3,0.1c-0.6,0.3-1.1,1-1.6,2.1c-0.2-1.2-0.5-2-0.9-2.5
				c-0.4-0.4-0.8-0.6-1.3-0.6c-0.8,0-1.4,0.6-2.1,1.3c-0.1,0.1-0.1,0.1-0.2,0.2c-0.1,0.1-0.1,0.1-0.2,0.2c-0.7,0.7-1.3,1.3-1.3,2.1
				c0,0.4,0.2,0.9,0.6,1.3c0.5,0.5,1.5,0.8,2.5,1c-1.1,0.5-1.8,1-2.1,1.6c-0.3,0.5-0.4,1-0.2,1.4c0.2,0.8,1,1.2,1.9,1.7
				c0.1,0,0.2,0.1,0.3,0.1c0.1,0.1,0.2,0.1,0.3,0.1c0.7,0.4,1.3,0.8,2,0.8h0c0.6,0,1.1-0.3,1.5-1c0.4-0.7,0.4-1.7,0.1-3.2
				c0,0,0-0.1,0-0.1c0.3,0.3,0.6,0.7,0.8,1.2c0.4,1,0.4,2.1,0,3.1c-0.1,0.3,0,0.6,0.3,0.7c0.1,0,0.1,0,0.2,0c0.2,0,0.4-0.1,0.5-0.3
				c0.5-1.3,0.5-2.6,0-3.9c-0.2-0.6-0.6-1-0.9-1.5c0.6,0.1,1.3,0.2,1.9,0.2c0,0,0,0,0,0c0.1,0.5,0.2,1.1,0.2,1.7
				c0,2.9-0.4,5.5-0.4,5.5c0,0.2,0.1,0.5,0.3,0.6c0.1,0,1.7,0.6,3.9,0.6c2.2,0,3.9-0.6,4-0.6c0.2-0.1,0.4-0.3,0.4-0.6
				c0,0-0.4-2.6-0.4-5.5c0-1.4,0.3-2.2,0.7-3.1C24.9,97.1,25.4,95.9,25.4,93.5z M16.4,88.4c0-0.2,1.1-0.9,3.6-0.9
				c2.5,0,3.6,0.7,3.6,0.9c0,0,0,0.1,0,0.1h-4.1c0,0-0.1,0-0.1,0c0,0-0.1,0-0.1,0c-0.3,0-0.5,0.2-0.5,0.5v3.6c0,0.2-0.2,0.4-0.4,0.4
				c-0.2,0-0.4-0.2-0.4-0.4V89c0-0.3-0.2-0.5-0.5-0.5c0,0-0.1,0-0.1,0c-0.1,0-0.1,0-0.2,0L16.4,88.4C16.4,88.5,16.4,88.4,16.4,88.4z
				 M7.9,97c-0.2-0.2-0.3-0.4-0.3-0.5c0-0.4,0.5-0.8,1-1.3C8.7,95,8.8,95,8.9,94.9c0.1-0.1,0.1-0.1,0.2-0.2c0.5-0.5,1-1,1.4-1
				c0.1,0,0.2,0,0.5,0.3c0.6,0.6,0.7,2.5,0.7,3.8C10.1,97.8,8.4,97.5,7.9,97z M12.2,102.9c-0.3,0.5-0.5,0.5-0.6,0.5h0
				c-0.4,0-0.9-0.3-1.5-0.6c-0.1-0.1-0.2-0.1-0.3-0.2c-0.1-0.1-0.2-0.1-0.3-0.2c-0.6-0.4-1.3-0.7-1.3-1c0-0.1,0-0.4,0.1-0.6
				c0.4-0.7,2-1.4,3.3-1.8c0,0,0.1,0,0.1,0c0,0,0.1,0,0.1,0.1c0.1,0.3,0.2,0.7,0.3,1.2C12.4,101.6,12.4,102.5,12.2,102.9z M12.9,98
				c0.4-1.2,1.1-2.8,1.7-3.3c0.1,1.6,0.5,2.6,0.9,3.5c0,0.1,0.1,0.2,0.1,0.3C14.6,98.5,13.5,98.2,12.9,98z M19.9,107
				c-1.4,0-2.5-0.2-3.1-0.4c0-0.2,0-0.4,0.1-0.6c0.5,0.2,1.6,0.5,3.1,0.5c1.6,0,2.6-0.3,3.1-0.5c0,0.3,0.1,0.5,0.1,0.6
				C22.6,106.7,21.3,107,19.9,107z M23.5,97.9c-0.4,1-0.7,1.9-0.7,3.5c0,1.3,0.1,2.5,0.2,3.4c0,0,0,0,0,0c0,0-0.9,0.6-2.9,0.6
				c-1.8,0-2.8-0.4-3-0.5c0.1-1,0.2-2.2,0.2-3.5c0-1.5-0.4-2.5-0.7-3.5c-0.4-1.1-0.8-2.2-0.8-4.4c0-2.7,0.2-3.7,0.3-4h1v3.1
				c0,0.8,0.6,1.4,1.4,1.4c0.8,0,1.4-0.6,1.4-1.4v-3.1H24c0.1,0.4,0.4,1.4,0.4,4C24.4,95.7,24,96.8,23.5,97.9z"/>
		</g>
		<g id="XMLID_2727_">
			<path id="XMLID_2740_" fill="#1D70AD" d="M20.4,123L20.4,123c0.2,0,0.4-0.1,0.5-0.3c0.1-0.2,0-0.4-0.1-0.5
				c-0.1-0.1-0.2-0.2-0.4-0.2c-0.1,0-0.3,0.1-0.4,0.2c-0.1,0.1-0.2,0.2-0.2,0.4c0,0.1,0.1,0.3,0.2,0.4C20.1,123,20.3,123,20.4,123z"
				/>
			<path id="XMLID_2739_" fill="#1D70AD" d="M18.8,124.9L18.8,124.9c0.2,0,0.4-0.1,0.5-0.3c0.1-0.2,0.1-0.4-0.1-0.6
				c-0.1-0.1-0.3-0.2-0.4-0.2c-0.2,0-0.3,0.1-0.4,0.2c0,0,0,0,0,0.1c-0.1,0.2-0.1,0.4,0.1,0.6C18.6,124.8,18.7,124.9,18.8,124.9z"/>
			<path id="XMLID_2738_" fill="#1D70AD" d="M20.3,124.4c-0.1,0.1-0.2,0.2-0.2,0.4c0,0.1,0.1,0.3,0.2,0.4c0.1,0.1,0.2,0.1,0.3,0.1
				c0,0,0,0,0.1,0c0.1,0,0.2,0,0.2-0.1c0.1-0.1,0.2-0.1,0.2-0.2c0,0,0-0.1,0-0.1c0,0,0-0.1,0-0.1c0-0.2-0.1-0.4-0.3-0.5
				C20.8,124.2,20.5,124.3,20.3,124.4z"/>
			<path id="XMLID_2737_" fill="#1D70AD" d="M22.3,140.7c0-0.3-0.2-0.5-0.5-0.6c-0.3,0-0.5,0.2-0.6,0.5c0,0.2,0,0.4,0,0.7
				c0,0.7,0,1.5,0.1,2.4c0,0.3,0.2,0.5,0.5,0.5c0,0,0,0,0,0c0.3,0,0.5-0.3,0.5-0.5c0-0.8-0.1-1.6-0.1-2.3
				C22.3,141.1,22.3,140.9,22.3,140.7z"/>
			<path id="XMLID_2736_" fill="#1D70AD" d="M23.3,130.8c-0.3,0-0.5,0.3-0.5,0.5c0,0.7,0,1.4,0,2.1c0,1.9-0.3,2.8-0.7,3.8
				c-0.1,0.3-0.3,0.7-0.4,1.1c-0.1,0.3,0.1,0.6,0.3,0.7c0.1,0,0.1,0,0.2,0c0.2,0,0.4-0.1,0.5-0.4c0.1-0.4,0.2-0.7,0.4-1
				c0.4-1,0.8-2.1,0.8-4.2c0-0.8,0-1.5,0-2.2C23.8,131,23.6,130.8,23.3,130.8z"/>
			<path id="XMLID_2728_" fill="#1D70AD" d="M25.4,133.5c0-3.8-0.5-4.7-0.8-4.9c0,0,0,0-0.1-0.1c0-0.1,0-0.1,0-0.2
				c0-0.4-0.3-1.1-1.5-1.5c-0.8-0.3-1.9-0.5-3.1-0.5c-1.1,0-2.2,0.2-3.1,0.5c-1.3,0.5-1.5,1.1-1.5,1.5c0,0.1,0,0.1,0,0.2
				c-0.5,0.2-0.9,1.3-0.9,5c0,0,0,0.1,0,0.1c-0.1,0-0.2,0-0.3,0.1c-0.6,0.3-1.1,1-1.6,2.1c-0.2-1.2-0.5-2-0.9-2.5
				c-0.4-0.4-0.8-0.6-1.3-0.6c-0.8,0-1.4,0.6-2.1,1.3c-0.1,0.1-0.1,0.1-0.2,0.2c-0.1,0.1-0.1,0.1-0.2,0.2c-0.7,0.7-1.3,1.3-1.3,2.1
				c0,0.4,0.2,0.9,0.6,1.3c0.5,0.5,1.5,0.8,2.5,1c-1.1,0.5-1.8,1-2.1,1.6c-0.3,0.5-0.4,1-0.2,1.4c0.2,0.8,1,1.2,1.9,1.7
				c0.1,0,0.2,0.1,0.3,0.1c0.1,0.1,0.2,0.1,0.3,0.1c0.7,0.4,1.3,0.8,2,0.8h0c0.6,0,1.1-0.3,1.5-1c0.4-0.7,0.4-1.7,0.1-3.2
				c0,0,0-0.1,0-0.1c0.3,0.3,0.6,0.7,0.8,1.2c0.4,1,0.4,2.1,0,3.1c-0.1,0.3,0,0.6,0.3,0.7c0.1,0,0.1,0,0.2,0c0.2,0,0.4-0.1,0.5-0.3
				c0.5-1.3,0.5-2.6,0-3.9c-0.2-0.6-0.6-1-0.9-1.5c0.6,0.1,1.3,0.2,1.9,0.2c0,0,0,0,0,0c0.1,0.5,0.2,1.1,0.2,1.7
				c0,2.9-0.4,5.5-0.4,5.5c0,0.2,0.1,0.5,0.3,0.6c0.1,0,1.7,0.6,3.9,0.6c2.2,0,3.9-0.6,4-0.6c0.2-0.1,0.4-0.3,0.4-0.6
				c0,0-0.4-2.6-0.4-5.5c0-1.4,0.3-2.2,0.7-3.1C24.9,137.1,25.4,135.9,25.4,133.5z M16.4,128.4c0-0.2,1.1-0.9,3.6-0.9
				c2.5,0,3.6,0.7,3.6,0.9c0,0,0,0.1,0,0.1h-4.1c0,0-0.1,0-0.1,0c0,0-0.1,0-0.1,0c-0.3,0-0.5,0.2-0.5,0.5v3.6c0,0.2-0.2,0.4-0.4,0.4
				c-0.2,0-0.4-0.2-0.4-0.4V129c0-0.3-0.2-0.5-0.5-0.5c0,0-0.1,0-0.1,0c-0.1,0-0.1,0-0.2,0L16.4,128.4
				C16.4,128.5,16.4,128.4,16.4,128.4z M7.9,137c-0.2-0.2-0.3-0.4-0.3-0.5c0-0.4,0.5-0.8,1-1.3c0.1-0.1,0.1-0.1,0.2-0.2
				c0.1-0.1,0.1-0.1,0.2-0.2c0.5-0.5,1-1,1.4-1c0.1,0,0.2,0,0.5,0.3c0.6,0.6,0.7,2.5,0.7,3.8C10.1,137.8,8.4,137.5,7.9,137z
				 M12.2,142.9c-0.3,0.5-0.5,0.5-0.6,0.5h0c-0.4,0-0.9-0.3-1.5-0.6c-0.1-0.1-0.2-0.1-0.3-0.2c-0.1-0.1-0.2-0.1-0.3-0.2
				c-0.6-0.4-1.3-0.7-1.3-1c0-0.1,0-0.4,0.1-0.6c0.4-0.7,2-1.4,3.3-1.8c0,0,0.1,0,0.1,0c0,0,0.1,0,0.1,0.1c0.1,0.3,0.2,0.7,0.3,1.2
				C12.4,141.6,12.4,142.5,12.2,142.9z M12.9,138c0.4-1.2,1.1-2.8,1.7-3.3c0.1,1.6,0.5,2.6,0.9,3.5c0,0.1,0.1,0.2,0.1,0.3
				C14.6,138.5,13.5,138.2,12.9,138z M19.9,147c-1.4,0-2.5-0.2-3.1-0.4c0-0.2,0-0.4,0.1-0.6c0.5,0.2,1.6,0.5,3.1,0.5
				c1.6,0,2.6-0.3,3.1-0.5c0,0.3,0.1,0.5,0.1,0.6C22.6,146.7,21.3,147,19.9,147z M23.5,137.9c-0.4,1-0.7,1.9-0.7,3.5
				c0,1.3,0.1,2.5,0.2,3.4c0,0,0,0,0,0c0,0-0.9,0.6-2.9,0.6c-1.8,0-2.8-0.4-3-0.5c0.1-1,0.2-2.2,0.2-3.5c0-1.5-0.4-2.5-0.7-3.5
				c-0.4-1.1-0.8-2.2-0.8-4.4c0-2.7,0.2-3.7,0.3-4h1v3.1c0,0.8,0.6,1.4,1.4,1.4c0.8,0,1.4-0.6,1.4-1.4v-3.1H24
				c0.1,0.4,0.4,1.4,0.4,4C24.4,135.7,24,136.8,23.5,137.9z"/>
		</g>
</svg>
