<svg width="32" height="232" viewBox="0 0 32 232" xmlns="http://www.w3.org/2000/svg"><g fill="none"><path d="M30.178 136.055c-.754-.74-2.032-1.25-3.816-1.533 1.61-.887 2.634-1.795 3.108-2.756.475-.963.585-1.86.33-2.66-.454-1.417-1.887-2.156-3.404-2.938l-.473-.245-.47-.248c-1.252-.663-2.33-1.236-3.433-1.236-1.19 0-2.122.66-2.77 1.98-.477.96-.584 2.35-.326 4.22-1.155-1.2-2.19-1.93-3.135-2.21-.17-1.54-.34-2.48-.36-2.56-.07-.37-.31-.67-.62-.82V125c0-1.933-5.63-1.99-6.27-1.99-.65 0-6.28.057-6.28 1.99v.05c-.32.15-.55.447-.62.815-.03.144-.66 3.53-.66 8.28 0 2.63.47 4.736.9 6.594.35 1.56.69 3.04.69 4.61 0 3.46-.3 5.27-.3 5.29-.06.33.03.67.24.92s.52.4.84.4H13.7c.324 0 .633-.15.84-.41.21-.26.3-.6.246-.93 0-.02-.3-1.83-.3-5.29 0-1.57.335-3.05.69-4.62l.21-.94.23-.04c1.2-.348 2.513-1.02 3.624-1.68-.453.932-.743 1.96-.843 3.03-.21 2.292.45 4.54 1.878 6.32.11.134.266.204.425.204.12 0 .25-.04.35-.13.235-.2.27-.554.075-.8-1.24-1.544-1.817-3.5-1.628-5.49.09-.96.353-1.87.77-2.71l.06.54c.33 2.78.962 4.59 1.933 5.54.74.72 1.515 1.09 2.31 1.09 1.483 0 2.6-1.226 3.782-2.52l.362-.396.364-.39c1.178-1.257 2.29-2.446 2.258-3.936-.017-.846-.41-1.65-1.17-2.397zm-8.962-8.607c.364-.74.65-.74.805-.74.57 0 1.47.48 2.43.985l.48.254.49.25c1.05.54 2.13 1.1 2.3 1.618.08.258-.06.643-.2.92-.56 1.137-3.32 2.477-5.57 3.276-.7-2.34-1.28-5.42-.72-6.56zm-17.838-2.365l.15-.117c.54-.332 2.25-.8 5.02-.8 2.77 0 4.477.468 5.018.8l.15.117v.466H12.48c-.307 0-.553.25-.553.56v4.39c0 .14-.2.29-.47.29-.27 0-.472-.16-.472-.3v-4.39c0-.32-.247-.57-.55-.57H3.378v-.47zm10.185 3.3h-.532v-1.146h.39c.05.312.1.698.15 1.147zm-3.68-1.146v1.147H3.53c.05-.45.1-.835.146-1.147h6.207zm-5.265 22.485l.034-.398h7.79l.035.398H4.62zm8.43-9.48c-.384 1.695-.747 3.296-.747 5.128 0 1.097.03 2.038.07 2.82H4.73c.04-.782.068-1.723.068-2.82 0-1.832-.363-3.433-.747-5.128-.41-1.825-.84-3.71-.84-6.078 0-1.78.1-3.368.21-4.644h6.47v.987c0 .79.71 1.43 1.58 1.43s1.58-.64 1.58-1.43v-.987h.65c.12 1.276.21 2.865.21 4.644 0 2.366-.43 4.252-.84 6.078zm2.82-2.938c.136-.964.226-2.004.226-3.14 0-1.126-.035-2.174-.09-3.12 1.17.816 2.628 2.56 3.702 4.1-.92.63-2.43 1.59-3.837 2.16zm11.64 3.51l-.376.403-.372.405c-.81.886-1.646 1.803-2.176 1.803-.26 0-.57-.252-.786-.462-.896-.877-1.352-3.98-1.45-6.43h.185c3.044 0 5.39.448 6.125 1.168.22.22.482.53.488.8.012.55-.828 1.45-1.64 2.32zm-1.953 7.576l-.458-.258-.25-.472c-.097-.182-.283-.296-.485-.296-.2 0-.387.114-.484.296l-.25.472-.46.258c-.177.1-.287.29-.287.5 0 .206.11.397.29.497l.46.258.25.472c.1.182.29.296.49.296s.39-.113.49-.296l.25-.472.46-.258c.18-.1.29-.29.29-.498 0-.21-.11-.4-.28-.5zm-19.2-27.327c.097.074.214.115.334.115.11 0 .23-.04.33-.113.21-.164.28-.464.16-.71l-.04-.06c-.11-.158-.28-.253-.46-.253-.12 0-.24.04-.33.113-.13.1-.21.25-.22.416-.01.17.05.33.16.45l.05.05zm3.138 1.153c.095.075.213.115.333.115.12 0 .235-.04.33-.11.214-.16.283-.46.164-.71l-.035-.06c-.102-.15-.275-.25-.46-.25-.117 0-.233.04-.328.12-.13.1-.21.25-.22.42-.012.17.047.33.16.45l.056.05zm8.28 26.356c-.103-.157-.276-.252-.46-.252-.118 0-.234.04-.33.113-.128.1-.21.25-.22.415-.01.165.048.327.16.444l.057.05c.096.075.213.115.333.115.12 0 .235-.04.33-.113.213-.164.282-.464.163-.71l-.035-.062zM6.1 143.437c-.3.033-.52.312-.49.624.047.46.07.89.07 1.31 0 .55-.008 1.09-.022 1.61-.01.32.23.58.535.59h.016c.29 0 .54-.24.55-.55.01-.53.02-1.08.02-1.64 0-.46-.03-.93-.08-1.42-.03-.31-.31-.54-.61-.5zm-.163-.976c.298-.06.488-.36.425-.67-.097-.47-.2-.93-.31-1.41-.422-1.85-.856-3.77-.856-6.2 0-.99.03-1.99.086-2.99.018-.31-.214-.58-.518-.6-.302-.01-.565.22-.582.54-.058 1.02-.088 2.05-.088 3.07 0 2.56.47 4.64.884 6.47.11.48.212.94.307 1.4.055.27.284.45.54.45l.114-.01z" fill="#206FAC"/><path d="M30.178 96.055c-.754-.74-2.032-1.25-3.816-1.533 1.61-.887 2.634-1.795 3.108-2.756.475-.963.585-1.86.33-2.66-.454-1.417-1.887-2.156-3.404-2.938l-.473-.245-.47-.248c-1.252-.663-2.33-1.236-3.433-1.236-1.19 0-2.122.66-2.77 1.98-.477.96-.584 2.35-.326 4.22-1.155-1.2-2.19-1.93-3.135-2.21-.17-1.54-.34-2.48-.36-2.56-.07-.37-.31-.67-.62-.82V85c0-1.933-5.63-1.99-6.27-1.99-.65 0-6.28.057-6.28 1.99v.05c-.32.15-.55.447-.62.815-.03.144-.66 3.53-.66 8.28 0 2.63.47 4.736.9 6.594.35 1.56.69 3.04.69 4.61 0 3.46-.3 5.27-.3 5.29-.06.33.03.67.24.92s.52.4.84.4H13.7c.324 0 .633-.15.84-.41.21-.26.3-.6.246-.93 0-.02-.3-1.83-.3-5.29 0-1.57.335-3.05.69-4.62l.21-.94.23-.04c1.2-.348 2.513-1.02 3.624-1.68-.453.932-.743 1.96-.843 3.03-.21 2.292.45 4.54 1.878 6.32.11.134.266.204.425.204.12 0 .25-.04.35-.13.235-.2.27-.554.075-.8-1.24-1.544-1.817-3.5-1.628-5.49.09-.96.353-1.87.77-2.71l.06.54c.33 2.78.962 4.59 1.933 5.54.74.72 1.515 1.09 2.31 1.09 1.483 0 2.6-1.226 3.782-2.52l.362-.396.364-.39c1.178-1.257 2.29-2.446 2.258-3.936-.017-.846-.41-1.65-1.17-2.397zm-8.962-8.607c.364-.74.65-.74.805-.74.57 0 1.47.48 2.43.985l.48.254.49.25c1.05.54 2.13 1.1 2.3 1.618.08.258-.06.643-.2.92-.56 1.137-3.32 2.477-5.57 3.276-.7-2.34-1.28-5.42-.72-6.56zM3.378 85.083l.15-.117c.54-.332 2.25-.8 5.02-.8 2.77 0 4.477.468 5.018.8l.15.117v.466H12.48c-.307 0-.553.25-.553.56v4.39c0 .14-.2.29-.47.29-.27 0-.472-.16-.472-.3V86.1c0-.312-.247-.567-.55-.567H3.378v-.468zm10.185 3.3h-.532v-1.146h.39c.05.312.1.698.15 1.147zm-3.68-1.146v1.147H3.53c.05-.45.1-.835.146-1.147h6.207zm-5.265 22.485l.034-.398h7.79l.035.398H4.62zm8.43-9.48c-.384 1.695-.747 3.296-.747 5.128 0 1.097.03 2.038.07 2.82H4.73c.04-.782.068-1.723.068-2.82 0-1.832-.363-3.433-.747-5.128-.41-1.825-.84-3.71-.84-6.078 0-1.78.1-3.368.21-4.644h6.47v.987c0 .79.71 1.43 1.58 1.43s1.58-.64 1.58-1.43v-.987h.65c.12 1.276.21 2.865.21 4.644 0 2.366-.43 4.252-.84 6.078zm2.82-2.938c.136-.964.226-2.004.226-3.14 0-1.126-.035-2.174-.09-3.12 1.17.816 2.628 2.56 3.702 4.1-.92.63-2.43 1.59-3.837 2.16zm11.64 3.51l-.376.403-.372.405c-.81.886-1.646 1.803-2.176 1.803-.26 0-.57-.252-.786-.462-.896-.877-1.352-3.98-1.45-6.43h.185c3.044 0 5.39.448 6.125 1.168.22.22.482.53.488.8.012.55-.828 1.45-1.64 2.32zm-1.953 7.576l-.458-.258-.25-.472c-.097-.182-.283-.296-.485-.296-.2 0-.387.114-.484.296l-.25.472-.46.258c-.177.1-.287.29-.287.5 0 .206.11.397.29.497l.46.258.25.472c.1.182.29.296.49.296s.39-.113.49-.296l.25-.472.46-.258c.18-.1.29-.29.29-.498 0-.21-.11-.4-.28-.5zm-19.2-27.327c.097.074.214.115.334.115.11 0 .23-.04.33-.113.21-.164.28-.464.16-.71l-.04-.06c-.11-.158-.28-.253-.46-.253-.12 0-.24.04-.33.113-.13.1-.21.25-.22.416-.01.17.05.33.16.45l.05.05zm3.138 1.153c.095.075.213.115.333.115.12 0 .235-.04.33-.11.214-.16.283-.46.164-.71l-.035-.06c-.102-.15-.275-.25-.46-.25-.117 0-.233.04-.328.12-.13.1-.21.25-.22.42-.012.17.047.33.16.45l.056.05zm8.28 26.356c-.103-.157-.276-.252-.46-.252-.118 0-.234.04-.33.113-.128.1-.21.25-.22.415-.01.165.048.327.16.444l.057.05c.096.075.213.115.333.115.12 0 .235-.04.33-.113.213-.164.282-.464.163-.71l-.035-.062zM6.1 103.437c-.3.033-.52.312-.49.624.047.46.07.89.07 1.31 0 .55-.008 1.09-.022 1.61-.01.32.23.58.535.59h.016c.29 0 .54-.24.55-.55.01-.53.02-1.08.02-1.64 0-.46-.03-.93-.08-1.42-.03-.31-.31-.54-.61-.5zm-.163-.976c.298-.06.488-.36.425-.67-.097-.47-.2-.93-.31-1.41-.422-1.85-.856-3.77-.856-6.2 0-.99.03-1.99.086-2.99.018-.31-.214-.58-.518-.6-.302-.01-.565.22-.582.54-.058 1.02-.088 2.05-.088 3.07 0 2.56.47 4.64.884 6.47.11.48.212.94.307 1.4.055.27.284.45.54.45l.114-.01z" fill="#fff"/><path d="M30.178 56.055c-.754-.74-2.032-1.25-3.816-1.533 1.61-.887 2.634-1.795 3.108-2.756.475-.963.585-1.86.33-2.66-.454-1.417-1.887-2.156-3.404-2.938l-.473-.245-.47-.248c-1.252-.663-2.33-1.236-3.433-1.236-1.19 0-2.122.66-2.77 1.98-.477.96-.584 2.35-.326 4.22-1.155-1.2-2.19-1.93-3.135-2.21-.17-1.54-.34-2.48-.36-2.56-.07-.37-.31-.67-.62-.82V45c0-1.933-5.63-1.99-6.27-1.99-.65 0-6.28.057-6.28 1.99v.05c-.32.15-.55.447-.62.815-.03.144-.66 3.53-.66 8.28 0 2.63.47 4.736.9 6.594.35 1.56.69 3.04.69 4.61 0 3.46-.3 5.27-.3 5.29-.06.33.03.67.24.92s.52.4.84.4H13.7c.324 0 .633-.15.84-.41.21-.26.3-.6.246-.93 0-.02-.3-1.83-.3-5.29 0-1.57.335-3.05.69-4.62l.21-.94.23-.04c1.2-.348 2.513-1.02 3.624-1.68-.453.932-.743 1.96-.843 3.03-.21 2.292.45 4.54 1.878 6.32.11.134.266.204.425.204.12 0 .25-.04.35-.13.235-.2.27-.554.075-.8-1.24-1.544-1.817-3.5-1.628-5.49.09-.96.353-1.87.77-2.71l.06.54c.33 2.78.962 4.59 1.933 5.54.74.72 1.515 1.09 2.31 1.09 1.483 0 2.6-1.226 3.782-2.52l.362-.396.364-.39c1.178-1.257 2.29-2.446 2.258-3.936-.017-.846-.41-1.65-1.17-2.397zm-8.962-8.607c.364-.74.65-.74.805-.74.57 0 1.47.48 2.43.985l.48.254.49.25c1.05.54 2.13 1.1 2.3 1.618.08.258-.06.643-.2.92-.56 1.137-3.32 2.477-5.57 3.276-.7-2.34-1.28-5.42-.72-6.56zM3.378 45.083l.15-.117c.54-.332 2.25-.8 5.02-.8 2.77 0 4.477.468 5.018.8l.15.117v.466H12.48c-.307 0-.553.25-.553.56v4.39c0 .14-.2.29-.47.29-.27 0-.472-.16-.472-.3V46.1c0-.312-.247-.567-.55-.567H3.378v-.468zm10.185 3.3h-.532v-1.146h.39c.05.312.1.698.15 1.147zm-3.68-1.146v1.147H3.53c.05-.45.1-.835.146-1.147h6.207zM4.618 69.722l.034-.398h7.79l.035.398H4.62zm8.43-9.48c-.384 1.695-.747 3.296-.747 5.128 0 1.097.03 2.038.07 2.82H4.73c.04-.782.068-1.723.068-2.82 0-1.832-.363-3.433-.747-5.128-.41-1.825-.84-3.71-.84-6.078 0-1.78.1-3.368.21-4.644h6.47v.987c0 .79.71 1.43 1.58 1.43s1.58-.64 1.58-1.43v-.987h.65c.12 1.276.21 2.865.21 4.644 0 2.366-.43 4.252-.84 6.078zm2.82-2.938c.136-.964.226-2.004.226-3.14 0-1.126-.035-2.174-.09-3.12 1.17.816 2.628 2.56 3.702 4.1-.92.63-2.43 1.59-3.837 2.16zm11.64 3.51l-.376.403-.372.405c-.81.886-1.646 1.803-2.176 1.803-.26 0-.57-.252-.786-.462-.896-.877-1.352-3.98-1.45-6.43h.185c3.044 0 5.39.448 6.125 1.168.22.22.482.53.488.8.012.55-.828 1.45-1.64 2.32zm-1.953 7.576l-.458-.258-.25-.472c-.097-.182-.283-.296-.485-.296-.2 0-.387.114-.484.296l-.25.472-.46.258c-.177.1-.287.29-.287.5 0 .206.11.397.29.497l.46.258.25.472c.1.182.29.296.49.296s.39-.113.49-.296l.25-.472.46-.258c.18-.1.29-.29.29-.498 0-.21-.11-.4-.28-.5zm-19.2-27.327c.097.074.214.115.334.115.11 0 .23-.04.33-.113.21-.164.28-.464.16-.71l-.04-.06c-.11-.158-.28-.253-.46-.253-.12 0-.24.04-.33.113-.13.1-.21.25-.22.416-.01.17.05.33.16.45l.05.05zm3.138 1.153c.095.075.213.115.333.115.12 0 .235-.04.33-.11.214-.16.283-.46.164-.71l-.035-.06c-.102-.15-.275-.25-.46-.25-.117 0-.233.04-.328.12-.13.1-.21.25-.22.42-.012.17.047.33.16.45l.056.05zm8.28 26.356c-.103-.157-.276-.252-.46-.252-.118 0-.234.04-.33.113-.128.1-.21.25-.22.415-.01.165.048.327.16.444l.057.05c.096.075.213.115.333.115.12 0 .235-.04.33-.113.213-.164.282-.464.163-.71l-.035-.062zM6.1 63.437c-.3.033-.52.312-.49.624.047.46.07.89.07 1.31 0 .55-.008 1.09-.022 1.61-.01.32.23.58.535.59h.016c.29 0 .54-.24.55-.55.01-.53.02-1.08.02-1.64 0-.46-.03-.93-.08-1.42-.03-.31-.31-.54-.61-.5zm-.163-.976c.298-.06.488-.36.425-.67-.097-.47-.2-.93-.31-1.41-.422-1.85-.856-3.77-.856-6.2 0-.99.03-1.99.086-2.99.018-.31-.214-.58-.518-.6-.302-.01-.565.22-.582.54-.058 1.02-.088 2.05-.088 3.07 0 2.56.47 4.64.884 6.47.11.48.212.94.307 1.4.055.27.284.45.54.45l.114-.01z" fill="#67737B"/><path d="M30.178 16.055c-.754-.74-2.032-1.25-3.816-1.533 1.61-.887 2.634-1.795 3.108-2.756.475-.963.585-1.86.33-2.66-.454-1.417-1.887-2.156-3.404-2.938l-.473-.245-.47-.248C24.2 5.012 23.123 4.44 22.02 4.44c-1.19 0-2.122.666-2.77 1.98-.477.965-.584 2.358-.326 4.227-1.155-1.2-2.19-1.93-3.135-2.208-.17-1.55-.34-2.48-.36-2.56-.07-.37-.31-.67-.62-.82v-.05c0-1.94-5.63-1.99-6.27-1.99-.65 0-6.28.05-6.28 1.99v.05c-.32.15-.55.44-.62.81-.02.15-.65 3.54-.65 8.29 0 2.62.47 4.73.9 6.59.35 1.56.69 3.04.69 4.61 0 3.46-.3 5.27-.3 5.29-.06.33.03.67.24.92s.52.41.84.41h10.35c.32 0 .63-.15.84-.41.21-.26.3-.6.24-.93 0-.02-.3-1.83-.3-5.29 0-1.57.33-3.05.69-4.62l.21-.94.23-.04c1.2-.35 2.51-1.02 3.62-1.68-.46.93-.75 1.96-.85 3.03-.21 2.29.45 4.54 1.88 6.32.11.13.26.2.42.2.12 0 .25-.04.35-.13.23-.2.27-.555.07-.8-1.24-1.545-1.82-3.5-1.63-5.49.09-.96.36-1.88.77-2.71l.06.53c.33 2.78.97 4.593 1.94 5.544.74.72 1.51 1.09 2.31 1.09 1.48 0 2.6-1.22 3.78-2.52l.36-.39.36-.39c1.177-1.258 2.29-2.447 2.257-3.937-.017-.844-.41-1.65-1.17-2.395zm-8.962-8.607c.364-.74.65-.74.805-.74.57 0 1.47.48 2.43.985l.48.254.49.25c1.05.54 2.13 1.1 2.3 1.618.08.258-.06.643-.2.92-.56 1.137-3.32 2.477-5.57 3.276-.7-2.34-1.28-5.42-.72-6.56zM3.378 5.083l.15-.117c.54-.332 2.25-.8 5.02-.8 2.77 0 4.477.468 5.018.8l.15.117v.466H12.48c-.307 0-.553.25-.553.56v4.39c0 .14-.2.29-.47.29-.27 0-.472-.16-.472-.3V6.11c0-.312-.247-.567-.55-.567H3.378V5.08zm10.185 3.3h-.532V7.238h.39c.05.312.1.698.15 1.147zm-3.68-1.146v1.147H3.53c.05-.45.1-.835.146-1.147h6.207zM4.618 29.722l.034-.398h7.79l.035.398H4.62zm8.43-9.48c-.384 1.695-.747 3.296-.747 5.128 0 1.097.03 2.038.07 2.82H4.73c.04-.782.068-1.723.068-2.82 0-1.832-.363-3.433-.747-5.128-.41-1.825-.84-3.71-.84-6.078 0-1.78.1-3.368.21-4.644h6.47v.987c0 .79.71 1.43 1.58 1.43s1.58-.64 1.58-1.43V9.52h.65c.12 1.276.21 2.865.21 4.644 0 2.366-.43 4.252-.84 6.078zm2.82-2.938c.136-.964.226-2.004.226-3.14 0-1.126-.035-2.174-.09-3.12 1.17.816 2.628 2.56 3.702 4.1-.92.63-2.43 1.59-3.837 2.16zm11.64 3.51l-.376.403-.372.405c-.81.886-1.646 1.803-2.176 1.803-.26 0-.57-.252-.786-.462-.896-.877-1.352-3.98-1.45-6.43h.185c3.044 0 5.39.448 6.125 1.168.22.22.482.53.488.8.012.55-.828 1.45-1.64 2.32zm-1.953 7.576l-.458-.258-.25-.472c-.097-.182-.283-.296-.485-.296-.2 0-.387.114-.484.296l-.25.472-.46.258c-.177.1-.287.29-.287.5 0 .206.11.397.29.497l.46.258.25.472c.1.182.29.296.49.296s.39-.113.49-.296l.25-.472.46-.258c.18-.1.29-.29.29-.498 0-.21-.11-.4-.28-.5zM6.355 1.063c.097.074.214.115.334.115.11 0 .23-.04.33-.113C7.23.9 7.3.6 7.18.355l-.035-.06c-.1-.16-.272-.255-.458-.255-.117 0-.233.04-.33.113-.127.1-.21.25-.22.416-.01.16.05.32.163.44l.056.05zm3.138 1.153c.095.075.213.115.333.115.12 0 .235-.04.33-.11.214-.16.283-.46.164-.71l-.035-.06c-.102-.15-.275-.25-.46-.25-.117 0-.233.04-.328.12-.13.1-.21.25-.22.42-.012.17.047.33.16.45l.056.05zm8.28 26.356c-.103-.157-.276-.252-.46-.252-.118 0-.234.04-.33.113-.128.1-.21.25-.22.415-.01.165.048.327.16.444l.057.05c.096.075.213.115.333.115.12 0 .235-.04.33-.113.213-.164.282-.464.163-.71l-.035-.062zM6.1 23.437c-.3.033-.52.312-.49.624.047.46.07.89.07 1.31 0 .55-.008 1.09-.022 1.61-.01.32.23.58.535.59h.016c.29 0 .54-.24.55-.55.01-.53.02-1.08.02-1.64 0-.46-.03-.93-.08-1.42-.03-.31-.31-.54-.61-.5zm-.163-.976c.298-.06.488-.36.425-.67-.097-.47-.2-.93-.31-1.41-.422-1.85-.856-3.77-.856-6.2 0-.99.03-1.99.086-2.99.018-.31-.214-.58-.518-.6-.302-.01-.565.22-.582.54-.058 1.02-.088 2.05-.088 3.07 0 2.56.47 4.64.884 6.47.11.48.212.94.307 1.4.055.27.284.45.54.45l.114-.01z" fill="#3A434E"/></g></svg>