<svg width="32" height="232" viewBox="0 0 32 232" xmlns="http://www.w3.org/2000/svg"><g fill="none"><path d="M31.513 138.96c.275 0 .498-.24.498-.537 0-.296-.22-.536-.49-.536h-7.44v-.65h.38c.55 0 1-.48 1-1.073 0-.563-.4-1.023-.91-1.068-.41-3.75-3.16-6.725-6.62-7.21v-.642c0-.593-.44-1.073-.99-1.073s-.99.48-.99 1.08v.64c-.2.03-.4.06-.59.11v-4.34c0-.29-.22-.53-.49-.53H3.06v-.04c.183-.15.302-.4.302-.67 0-.47-.36-.86-.802-.86-.443 0-.802.39-.802.87 0 .27.12.52.304.68v10.99H.922c-.274 0-.497.24-.497.54 0 .3.223.54.498.54H2.06v2.75H.493c-.275 0-.497.24-.497.54 0 .298.222.538.497.538H2.06v9.3h-.758c-.55 0-.995.48-.995 1.075s.446 1.07.995 1.07h29.44c.55 0 .995-.48.995-1.07s-.445-1.08-.995-1.08h-5.1v-7.57c0-.59-.447-1.07-.996-1.07h-.568V139h7.434zm-8.43 0v.66h-1.05v-2.383h1.05v1.723zm-1.354 9.607h-1.56v-3.13c.02-.51.36-.908.78-.908.41 0 .75.39.77.9v3.13zm-2.71-.308v.3h-1.55v-3.13c.02-.51.36-.91.78-.91.41 0 .75.39.77.91v2.82zm-2.71 0v.3h-1.55v-3.13c.02-.51.36-.91.78-.91.41 0 .75.39.77.91v2.82zm-4.26 0v-2.83c.02-.51.36-.91.78-.91.41 0 .75.4.78.91v3.13h-1.55v-.31zm10.66 0v-2.86c-.05-1.09-.82-1.95-1.78-1.95-.54 0-1.03.27-1.35.71-.33-.44-.81-.72-1.35-.72-.55 0-1.03.27-1.36.71-.33-.44-.81-.72-1.35-.72s-1.03.27-1.35.71c-.33-.44-.81-.72-1.35-.72-.96 0-1.73.85-1.78 1.94v2.85h-.88v-6.49h13.46v6.49h-.92zM3.05 136.07v-.93h.81v1.323l.03.178c.07.21.25.36.467.36H5.73v.89H3.055v-1.82zm13.81-6.11c2.84-.03 5.22 2.2 5.67 5.13H11.306c.08-.53.224-1.046.428-1.53h3.095c.27 0 .5-.24.5-.538v-2.82c.49-.155 1-.24 1.53-.245zm-13.707 2.08h11.18v.445H3.153v-.447zm17.883 5.844v1.733H19.33v-2.384h1.707v.65zm-10.283 1.073v-1.724h1.05v2.383h-1.05v-.66zm7.582-1.074v1.733H15.5v-2.384h2.837v.65zM12.8 138.96v-1.723h1.705v2.383H12.8v-.66zm1.533-9.512v1.52H3.153v-5.26h11.18v3.74zm-11.18-5.26h11.18v.447H3.153v-.447zm-.79-1.792c0-.115.087-.208.194-.208.107 0 .193.093.193.208 0 .115-.087.21-.193.21-.107 0-.194-.095-.194-.21zm.69 11.166h6.554c-.148.497-.25 1.01-.31 1.534-.51.044-.913.505-.913 1.068 0 .593.445 1.073.995 1.073h.38v.65H6.72v-1.422c0-.296-.223-.537-.498-.537h-1.37v-1.322c0-.297-.224-.537-.5-.537h-1.3v-.51zm0 5.398H9.76v.66h-.57c-.55 0-.995.48-.995 1.072v7.567h-5.14v-9.3zm16.14-15.465l.415.243.226.446c.087.172.255.28.436.28.182 0 .35-.108.437-.28l.226-.446.413-.243c.16-.094.26-.275.26-.47 0-.196-.1-.377-.26-.472l-.413-.244-.226-.45c-.087-.17-.255-.28-.437-.28s-.35.11-.436.28l-.226.44-.414.24c-.16.09-.26.27-.26.47 0 .19.1.38.26.47zm3.706 4.376l.02.03c.09.1.22.16.35.16.11 0 .21-.03.3-.1.11-.09.19-.23.2-.39 0-.12-.03-.23-.09-.33l-.04-.05-.03-.03c-.09-.1-.22-.15-.35-.15-.11 0-.21.04-.3.11-.12.09-.19.24-.2.39-.01.12.02.24.08.34l.04.06zm2.75-3.79c.08.07.19.11.3.11.1 0 .21-.04.29-.1.19-.15.25-.44.14-.67l-.03-.06c-.1-.15-.25-.23-.42-.23-.11 0-.22.04-.3.11-.12.1-.19.24-.2.4-.01.16.04.31.15.42l.05.05zm-.53 3.98h3.03c.27 0 .5-.24.5-.53 0-.29-.23-.53-.5-.53h-3.03c-.28 0-.5.24-.5.54 0 .3.22.54.5.54zm-14.89.29l.31-.58c.09-.17.09-.37 0-.53-.09-.16-.25-.27-.43-.27h-.62l-.32-.6c-.09-.16-.26-.27-.43-.27s-.35.1-.43.27l-.32.6h-.62c-.18 0-.34.1-.43.27-.09.17-.09.37 0 .54l.31.58-.31.58c-.09.17-.09.37 0 .54.08.17.25.27.43.27h.62l.32.6c.09.17.25.27.43.27s.34-.1.43-.26l.32-.6h.62c.28 0 .5-.24.5-.53 0-.11-.03-.22-.09-.3l-.29-.54zm-1.32.32h-.35l-.17-.31.17-.31h.35l.17.32-.17.32z" fill="#206FAC"/><path d="M31.513 98.96c.275 0 .498-.24.498-.537 0-.296-.22-.536-.49-.536h-7.44v-.65h.38c.55 0 1-.48 1-1.073 0-.563-.4-1.023-.91-1.068-.41-3.75-3.16-6.725-6.62-7.21v-.642c0-.593-.44-1.073-.99-1.073s-.99.48-.99 1.08v.64c-.2.03-.4.06-.59.11v-4.34c0-.29-.22-.53-.49-.53H3.06v-.04c.183-.15.302-.4.302-.67 0-.47-.36-.86-.802-.86-.443 0-.802.39-.802.87 0 .27.12.52.304.68V94.1H.922c-.274 0-.497.24-.497.537 0 .3.223.54.498.54H2.06v2.74H.493c-.275 0-.497.24-.497.536 0 .298.222.538.497.538H2.06v9.3h-.758c-.55 0-.995.48-.995 1.08s.446 1.08.995 1.08h29.44c.55 0 .995-.48.995-1.07s-.445-1.07-.995-1.07h-5.1v-7.57c0-.59-.447-1.07-.996-1.07h-.568V99h7.434zm-8.43 0v.66h-1.05v-2.383h1.05v1.723zm-1.354 9.607h-1.56v-3.13c.02-.51.36-.908.78-.908.41 0 .75.39.77.9v3.13zm-2.71-.308v.3h-1.55v-3.13c.02-.51.36-.91.78-.91.41 0 .75.39.77.91v2.82zm-2.71 0v.3h-1.55v-3.13c.02-.51.36-.91.78-.91.41 0 .75.39.77.91v2.82zm-4.26 0v-2.83c.02-.51.36-.91.78-.91.41 0 .75.4.78.91v3.13h-1.55v-.31zm10.66 0v-2.86c-.05-1.09-.82-1.95-1.78-1.95-.54 0-1.03.27-1.35.71-.33-.44-.81-.72-1.35-.72-.55 0-1.03.27-1.36.71-.33-.44-.81-.72-1.35-.72s-1.03.27-1.35.71c-.33-.44-.81-.72-1.35-.72-.96 0-1.73.85-1.78 1.94v2.85h-.88v-6.49h13.46v6.49h-.92zM3.05 96.07v-.927h.81v1.323l.03.178c.068.21.25.36.467.36h1.37v.885H3.05v-1.82zm13.81-6.11c2.84-.03 5.22 2.2 5.668 5.13H11.31c.08-.53.224-1.043.428-1.53h3.095c.28 0 .5-.24.5-.535v-2.82c.49-.155 1.01-.24 1.536-.245zM3.155 92.04h11.18v.448H3.155v-.447zm17.883 5.847v1.733H19.33v-2.383h1.707v.65zM10.755 98.96v-1.723h1.05v2.383h-1.05v-.66zm7.582-1.073v1.733H15.5v-2.383h2.837v.65zM12.8 98.96v-1.723h1.705v2.383H12.8v-.66zm1.533-9.512v1.52H3.153v-5.26h11.18v3.74zm-11.18-5.26h11.18v.447H3.153v-.447zm-.79-1.792c0-.115.087-.208.194-.208.107 0 .193.093.193.208 0 .115-.087.21-.193.21-.107 0-.194-.095-.194-.21zm.69 11.166h6.554c-.148.497-.25 1.01-.31 1.534-.51.044-.913.505-.913 1.068 0 .593.445 1.073.995 1.073h.38v.65H6.72v-1.422c0-.296-.223-.537-.498-.537h-1.37v-1.322c0-.297-.224-.537-.5-.537h-1.3v-.51zm0 5.398H9.76v.66h-.57c-.55 0-.995.48-.995 1.072v7.567h-5.14v-9.3zm16.14-15.465l.415.243.226.446c.087.172.255.28.436.28.182 0 .35-.108.437-.28l.226-.446.413-.243c.16-.094.26-.275.26-.47 0-.196-.1-.377-.26-.472l-.413-.244-.226-.45c-.087-.17-.255-.28-.437-.28s-.35.11-.436.28l-.226.44-.414.24c-.16.09-.26.27-.26.47 0 .19.1.38.26.47zM22.9 87.87l.023.03c.092.098.218.155.35.155.108 0 .212-.037.298-.106.12-.1.19-.24.2-.4.01-.12-.02-.24-.08-.34l-.04-.06-.02-.03c-.09-.1-.22-.16-.35-.16-.11 0-.21.04-.3.1-.11.09-.19.23-.2.39 0 .12.03.23.09.33l.04.05zm2.75-3.79c.088.07.193.108.302.108.107 0 .212-.038.297-.106.19-.155.25-.438.14-.67l-.03-.06c-.1-.148-.25-.237-.42-.237-.11 0-.21.037-.3.106-.12.1-.19.24-.2.4-.01.16.04.31.14.42l.05.05zm-.525 3.974h3.03c.275 0 .498-.24.498-.536 0-.296-.223-.536-.498-.536h-3.03c-.275 0-.498.24-.498.536 0 .297.223.536.498.536zm-14.887.285l.31-.59c.09-.17.09-.37 0-.54-.087-.17-.252-.27-.43-.27h-.622l-.32-.6c-.09-.17-.254-.27-.43-.27s-.343.1-.432.27l-.32.6H7.37c-.177 0-.34.1-.43.26-.09.16-.09.37 0 .54l.31.58-.31.58c-.09.16-.09.37 0 .53.088.17.253.27.43.27h.624l.32.6c.09.17.254.27.43.27s.343-.1.432-.27l.32-.6h.625c.28 0 .5-.24.5-.54 0-.12-.03-.22-.09-.31l-.29-.54zm-1.317.31h-.35l-.17-.31.17-.32h.35l.17.31-.17.31z" fill="#fff"/><path d="M31.513 58.96c.275 0 .498-.24.498-.537 0-.296-.22-.536-.49-.536h-7.44v-.65h.38c.55 0 1-.48 1-1.073 0-.563-.4-1.023-.91-1.068-.41-3.75-3.16-6.725-6.62-7.21v-.642c0-.593-.44-1.073-.99-1.073s-.99.48-.99 1.08v.64c-.2.03-.4.06-.59.11v-4.34c0-.29-.22-.53-.49-.53H3.06v-.04c.183-.15.302-.4.302-.67 0-.47-.36-.86-.802-.86-.443 0-.802.39-.802.87 0 .27.12.52.304.68V54.1H.922c-.274 0-.497.24-.497.537 0 .3.223.54.498.54H2.06v2.74H.493c-.275 0-.497.24-.497.536 0 .298.222.538.497.538H2.06v9.3h-.758c-.55 0-.995.48-.995 1.08s.446 1.08.995 1.08h29.44c.55 0 .995-.48.995-1.07s-.445-1.07-.995-1.07h-5.1v-7.6c0-.59-.447-1.07-.996-1.07h-.568v-.66h7.434zm-8.43 0v.66h-1.05v-2.383h1.05v1.723zm-1.354 9.607h-1.56v-3.13c.02-.51.36-.908.78-.908.41 0 .75.39.77.9v3.13zm-2.71-.308v.3h-1.55v-3.13c.02-.51.36-.91.78-.91.41 0 .75.39.77.91v2.82zm-2.71 0v.3h-1.55v-3.13c.02-.51.36-.91.78-.91.41 0 .75.39.77.91v2.82zm-4.26 0v-2.83c.02-.51.36-.91.78-.91.41 0 .75.4.78.91v3.13h-1.55v-.31zm10.66 0V65.4c-.05-1.09-.82-1.946-1.78-1.946-.54 0-1.03.277-1.35.717-.33-.44-.81-.71-1.35-.71-.55 0-1.03.28-1.36.72-.33-.44-.81-.71-1.35-.71s-1.03.28-1.35.72c-.33-.44-.81-.71-1.35-.71-.96 0-1.73.86-1.78 1.95v2.86h-.88v-6.5h13.46v6.49h-.92zM3.05 56.07v-.927h.81v1.323l.03.178c.068.21.25.36.467.36h1.37v.885H3.05v-1.82zm13.81-6.11c2.84-.03 5.22 2.2 5.668 5.13H11.31c.08-.53.224-1.043.428-1.53h3.095c.28 0 .5-.24.5-.535v-2.82c.49-.155 1.01-.24 1.536-.245zM3.155 52.04h11.18v.448H3.155v-.447zm17.883 5.847v1.733H19.33v-2.383h1.707v.65zM10.755 58.96v-1.723h1.05v2.383h-1.05v-.66zm7.582-1.073v1.733H15.5v-2.383h2.837v.65zM12.8 58.96v-1.723h1.705v2.383H12.8v-.66zm1.533-9.512v1.52H3.153v-5.26h11.18v3.74zm-11.18-5.26h11.18v.447H3.153v-.447zm-.79-1.792c0-.115.087-.208.194-.208.107 0 .193.093.193.208 0 .115-.087.21-.193.21-.107 0-.194-.095-.194-.21zm.69 11.166h6.554c-.148.497-.25 1.01-.31 1.534-.51.044-.913.505-.913 1.068 0 .593.445 1.073.995 1.073h.38v.65H6.72v-1.422c0-.296-.223-.537-.498-.537h-1.37v-1.322c0-.297-.224-.537-.5-.537h-1.3v-.51zm0 5.398H9.76v.66h-.57c-.55 0-.995.48-.995 1.072v7.567h-5.14v-9.3zm16.14-15.465l.415.243.226.446c.087.172.255.28.436.28.182 0 .35-.108.437-.28l.226-.446.413-.243c.16-.094.26-.275.26-.47 0-.196-.1-.377-.26-.472l-.413-.244-.226-.45c-.087-.17-.255-.28-.437-.28s-.35.11-.436.28l-.226.44-.414.24c-.16.09-.26.27-.26.47 0 .19.1.38.26.47zM22.9 47.87l.023.03c.092.098.218.155.35.155.108 0 .212-.037.298-.106.12-.1.19-.24.2-.4.01-.12-.02-.24-.08-.34l-.04-.06-.02-.03c-.09-.1-.22-.16-.35-.16-.11 0-.21.04-.3.1-.11.09-.19.23-.2.39 0 .12.03.23.09.33l.04.05zm2.75-3.79c.088.07.193.108.302.108.107 0 .212-.038.297-.106.19-.155.25-.438.14-.67l-.03-.06c-.1-.148-.25-.237-.42-.237-.11 0-.21.037-.3.106-.12.1-.19.24-.2.4-.01.16.04.31.14.42l.05.05zm-.525 3.974h3.03c.275 0 .498-.24.498-.536 0-.296-.223-.536-.498-.536h-3.03c-.275 0-.498.24-.498.536 0 .297.223.536.498.536zm-14.887.285l.31-.59c.09-.17.09-.37 0-.54-.087-.17-.252-.27-.43-.27h-.622l-.32-.6c-.09-.17-.254-.27-.43-.27s-.343.1-.432.27l-.32.6H7.37c-.177 0-.34.1-.43.26-.09.16-.09.37 0 .54l.31.58-.31.58c-.09.16-.09.37 0 .53.088.17.253.27.43.27h.624l.32.6c.09.17.254.27.43.27s.343-.1.432-.27l.32-.6h.625c.28 0 .5-.24.5-.54 0-.12-.03-.22-.09-.31l-.29-.54zm-1.317.31h-.35l-.17-.31.17-.32h.35l.17.31-.17.31z" fill="#67737B"/><path d="M31.513 18.96c.275 0 .498-.24.498-.537 0-.296-.22-.536-.49-.536h-7.44v-.65h.38c.55 0 1-.48 1-1.073 0-.563-.4-1.023-.91-1.068-.41-3.75-3.16-6.725-6.62-7.21v-.642c0-.593-.44-1.073-.99-1.073s-.99.48-.99 1.08v.64c-.2.03-.4.06-.59.11V3.66c0-.298-.22-.538-.49-.538H3.06V3.08c.183-.158.302-.402.302-.677 0-.477-.36-.865-.802-.865-.443 0-.802.388-.802.864 0 .272.12.516.304.675V14.07H.922c-.274 0-.497.24-.497.537 0 .296.223.536.498.536H2.06v2.745H.493c-.275 0-.497.24-.497.536 0 .297.222.537.497.537H2.06v9.3h-.758c-.55 0-.995.48-.995 1.08s.446 1.08.995 1.08h29.44c.55 0 .995-.48.995-1.07s-.445-1.07-.995-1.07h-5.1V20.7c0-.592-.447-1.072-.996-1.072h-.568v-.66h7.434zm-8.43 0v.66h-1.05v-2.383h1.05v1.723zm-1.354 9.607h-1.56v-3.13c.02-.51.36-.908.78-.908.41 0 .75.39.77.9v3.13zm-2.71-.308v.3h-1.55v-3.13c.02-.51.36-.91.78-.91.41 0 .75.39.77.91v2.82zm-2.71 0v.3h-1.55v-3.13c.02-.51.36-.91.78-.91.41 0 .75.39.77.91v2.82zm-4.26 0v-2.83c.02-.51.36-.91.78-.91.41 0 .75.4.78.91v3.13h-1.55v-.31zm10.66 0V25.4c-.05-1.09-.82-1.946-1.78-1.946-.54 0-1.03.277-1.35.717-.33-.44-.81-.71-1.35-.71-.55 0-1.03.28-1.36.72-.33-.44-.81-.71-1.35-.71s-1.03.28-1.35.72c-.33-.44-.81-.71-1.35-.71-.96 0-1.73.86-1.78 1.95v2.86h-.88v-6.5h13.46v6.49h-.92zM3.05 16.07v-.927h.81v1.323l.03.178c.068.21.25.36.467.36h1.37v.885H3.05v-1.82zm13.81-6.11c2.84-.03 5.22 2.2 5.668 5.13H11.31c.08-.53.224-1.043.428-1.53h3.095c.28 0 .5-.24.5-.535v-2.82c.49-.155 1.01-.24 1.536-.245zM3.155 12.04h11.18v.448H3.155v-.447zm17.883 5.847v1.733H19.33v-2.383h1.707v.65zM10.755 18.96v-1.723h1.05v2.383h-1.05v-.66zm7.582-1.073v1.733H15.5v-2.383h2.837v.65zM12.8 18.96v-1.723h1.705v2.383H12.8v-.66zm1.533-9.512v1.52H3.153V5.71h11.18v3.74zm-11.18-5.26h11.18v.447H3.153v-.447zm-.79-1.792c0-.115.087-.208.194-.208.107 0 .193.093.193.208 0 .115-.087.21-.193.21-.107 0-.194-.095-.194-.21zm.69 11.166h6.554c-.148.497-.25 1.01-.31 1.534-.51.044-.913.505-.913 1.068 0 .593.445 1.073.995 1.073h.38v.65H6.72v-1.422c0-.296-.223-.537-.498-.537h-1.37v-1.322c0-.297-.224-.537-.5-.537h-1.3v-.51zm0 5.398H9.76v.66h-.57c-.55 0-.995.48-.995 1.072v7.567h-5.14v-9.3zm16.14-15.465l.415.243.226.446c.087.172.255.28.436.28.182 0 .35-.108.437-.28l.226-.446.413-.243c.16-.094.26-.275.26-.47 0-.196-.1-.377-.26-.472l-.413-.244-.226-.45c-.087-.17-.255-.28-.437-.28s-.35.11-.436.28l-.226.44-.414.24c-.16.09-.26.27-.26.47 0 .19.1.38.26.47zM22.9 7.87l.023.03c.092.098.218.155.35.155.108 0 .212-.037.298-.106.12-.1.19-.24.2-.4.01-.12-.02-.24-.08-.34l-.04-.06-.02-.03c-.09-.1-.22-.16-.35-.16-.11 0-.21.04-.3.1-.11.09-.19.23-.2.39 0 .12.03.23.09.33l.04.05zm2.75-3.79c.088.07.193.108.302.108.107 0 .212-.038.297-.106.19-.155.25-.438.14-.67l-.03-.06c-.1-.148-.25-.237-.42-.237-.11 0-.21.037-.3.106-.12.1-.19.24-.2.4-.01.16.04.31.14.42l.05.05zm-.525 3.974h3.03c.275 0 .498-.24.498-.536 0-.296-.223-.536-.498-.536h-3.03c-.275 0-.498.24-.498.536 0 .297.223.536.498.536zm-14.887.285l.31-.59c.09-.17.09-.37 0-.54-.087-.17-.252-.27-.43-.27h-.622l-.32-.6c-.09-.17-.254-.27-.43-.27s-.343.1-.432.27l-.32.6H7.37c-.177 0-.34.1-.43.26-.09.16-.09.37 0 .54l.31.58-.31.58c-.09.16-.09.37 0 .53.088.17.253.27.43.27h.624l.32.6c.09.17.254.27.43.27s.343-.1.432-.27l.32-.6h.625c.28 0 .5-.24.5-.54 0-.12-.03-.22-.09-.31l-.29-.54zm-1.318.31h-.35l-.17-.31.168-.32h.352l.168.31-.168.31z" fill="#3A434E"/></g></svg>