<svg width="32" height="232" viewBox="0 0 32 232" xmlns="http://www.w3.org/2000/svg"><g fill="none"><path d="M23.017 134.748c-.557 0-1.008.472-1.008 1.055s.45 1.056 1 1.056 1.01-.48 1.01-1.06-.45-1.06-1.01-1.06zm4.39 10.62c-.133 0-.257.036-.366.098-.22.13-.37.373-.39.655v.5h1.51v-.49c-.02-.42-.35-.75-.75-.75zm-4.358-1.73c-.41 0-.74.335-.76.754v4.572h1.51v-4.572c-.02-.42-.35-.753-.76-.753zm-3.75 2.977v-.494c-.01-.21-.1-.4-.24-.53-.14-.13-.32-.22-.52-.22-.41 0-.74.34-.76.76v.5h1.51zm-9.91-1.91c.38 0 .68-.323.68-.72 0-.396-.31-.717-.69-.717-.38 0-.69.322-.69.718 0 .397.3.718.68.718zm4.63 0c.38 0 .68-.323.68-.72 0-.396-.31-.717-.69-.717-.38 0-.69.322-.69.718 0 .397.3.718.68.718zm-9.28 0c.38 0 .68-.323.68-.72 0-.396-.31-.717-.69-.717-.38 0-.69.322-.69.718 0 .397.3.718.68.718m-1.09-12.748c.3.28.69.436 1.1.436h2.04c-.04.14-.07.287-.07.438 0 .423.17.826.47 1.107.26.24.59.37.94.37h5.61c.78 0 1.41-.663 1.41-1.477 0-.813-.63-1.475-1.41-1.475h-.53c.09-.216.14-.453.14-.703 0-.96-.746-1.74-1.66-1.74H4.76c-.406 0-.796.154-1.1.435-.36.33-.564.806-.564 1.305 0 .498.206.974.565 1.305zm.65-1.832c.12-.114.28-.176.44-.176h6.95c.37 0 .67.315.67.703 0 .39-.3.71-.67.71-.27 0-.49.23-.49.52 0 .29.22.52.5.52h2.06c.23 0 .42.2.42.44s-.19.44-.42.44h-5.6c-.13 0-.23-.06-.28-.11-.09-.08-.15-.2-.15-.32s.05-.24.143-.33c.054-.05.146-.11.276-.11h.002c.273 0 .495-.23.495-.52 0-.28-.23-.51-.5-.51H4.75c-.163 0-.32-.06-.444-.17-.145-.13-.228-.32-.228-.52s.083-.39.228-.52zm26.68 19.728h-.39v-7.356c-.05-1.146-.66-2.165-1.58-2.73v-6.946l-.01-.036-.01-.078-.006-.014c-.016-.214-.04-.426-.07-.634v-.004l-.038-.203-.04-.2-.04-.19-.008-.01-.05-.19v-.01l-.054-.19v-.01l-.06-.19-.007-.01-.068-.19-.077-.19c-.22-.56-.49-1.1-.8-1.6-.92-1.51-2.133-2.71-3.002-3.47l-.1-.08-.09-.08h-.01l-.082-.07h-.01l-.08-.06-.01-.01-.073-.05-.02-.018-.02-.02v-1.734c0-.283-.22-.52-.492-.52h-.18v-.91l.04-.09.21-.12c.16-.09.26-.27.26-.46s-.1-.36-.26-.45l-.21-.12-.12-.226c-.08-.168-.25-.27-.43-.27s-.35.1-.436.27l-.113.22-.213.125c-.16.09-.26.263-.26.45 0 .19.1.37.26.46l.214.12.07.13v.88h-.13c-.27 0-.493.23-.493.514V125c-1.38 1.115-4.66 4.13-4.8 7.867v4.45H5.414c-.275 0-.535.12-.72.327l-3.27 3.622c-.178.19-.275.446-.275.71v7.92h-.14c-.54 0-.99.46-.99 1.036s.45 1.036.99 1.036H31c.547 0 .99-.465.99-1.04s-.443-1.04-.99-1.04zm-14.13-7.296c.01-.288.09-.558.22-.794.29-.54.85-.9 1.48-.9.17 0 .34.028.5.077.67.21 1.17.84 1.21 1.61v.91h-3.41v-.91zm0 3.19v-1.242h3.41v5.317h-3.41v-4.07zm4.54-12.197h3.24v5.23c-.46-.36-1.02-.58-1.63-.58-.61 0-1.16.2-1.61.55v-5.22zm1.61 5.69c.76 0 1.41.52 1.63 1.25v1.35H21.4v-1.42c.238-.7.87-1.19 1.61-1.19zm-1.61 9.97v-6.34h3.24v6.93H21.4v-.6zm-9.2-2.96h3.66v3.55H12.2v-3.56zm-4.56 0h3.57v3.55H7.65v-3.56zm-4.52 0h3.53v3.55h-3.5v-3.56zm25.98 3.56l-.05-.01H25.7v-5.31h3.39v5.32zm0-6.36H25.7v-1.08c.104-.74.64-1.33 1.325-1.49l.1-.02.263-.03c.75 0 1.39.5 1.62 1.21.05.15.08.31.09.48v.91zm-3.45-2.98l-.03-.14v-6.8H27v6.3c-.52.07-.99.3-1.375.63zm.18-7.98c-.07-1.39-.35-2.67-.7-3.77.88 1.09 1.66 2.4 1.83 3.76H25.8zm-3.07-5.63l.27-.23.27.22c.6 1.23 1.41 3.28 1.53 5.63h-3.6c.12-2.34.93-4.4 1.54-5.63zm-3.7 11.62v-4.96h1.34v6.72l-.058.26c-.36-.33-.8-.56-1.29-.66v-1.37zm-3.2 4.04v2.68H12.2v-2.78h3.663v.09zm-8.228-.09h3.57v2.77H7.65v-2.78zm-4.52 0h3.53v2.77h-3.5v-2.78zm19.76-18.71h.31v.6c-.106-.02-.21-.02-.317 0v-.6zm-2.55 5.78l.15-.22c.15-.21.3-.4.46-.59-.36 1.1-.64 2.38-.7 3.78H19.1v-.05l.01-.07.03-.2.014-.06.042-.19.01-.057.056-.206.013-.044.065-.21.013-.04.077-.21.017-.03.087-.21.016-.03.1-.21.01-.024.11-.215.013-.02.116-.215v-.01l.12-.21v-.01l.14-.215v-.01l.14-.21v-.01zm-3.26 9.81v.94c-.405.28-.73.66-.946 1.12H3.97l1.866-2.07h11.25z" fill="#206FAC"/><path d="M23.017 94.748c-.557 0-1.008.472-1.008 1.055s.45 1.056 1 1.056 1.01-.48 1.01-1.06-.45-1.06-1.01-1.06zm4.39 10.62c-.133 0-.257.036-.366.098-.22.13-.37.373-.39.655v.5h1.51v-.49c-.02-.42-.35-.75-.75-.75zm-4.358-1.73c-.41 0-.74.335-.76.754v4.572h1.51v-4.572c-.02-.42-.35-.753-.76-.753zm-3.75 2.977v-.494c-.01-.21-.1-.4-.24-.53-.14-.13-.32-.22-.52-.22-.41 0-.74.34-.76.76v.5h1.51zm-9.91-1.91c.38 0 .68-.323.68-.72 0-.396-.31-.717-.69-.717-.38 0-.69.322-.69.718 0 .397.3.718.68.718zm4.63 0c.38 0 .68-.323.68-.72 0-.396-.31-.717-.69-.717-.38 0-.69.322-.69.718 0 .397.3.718.68.718zm-9.28 0c.38 0 .68-.323.68-.72 0-.396-.31-.717-.69-.717-.38 0-.69.322-.69.718 0 .397.3.718.68.718M3.65 91.956c.303.28.693.436 1.1.436h2.04c-.04.14-.064.287-.064.438 0 .423.17.826.472 1.107.26.24.59.37.932.37h5.613c.78 0 1.41-.663 1.41-1.477 0-.813-.63-1.475-1.41-1.475h-.535c.09-.216.143-.453.143-.703 0-.96-.75-1.74-1.66-1.74H4.75c-.406 0-.796.154-1.1.435-.36.33-.564.806-.564 1.305 0 .498.205.974.564 1.305zm.654-1.832c.13-.114.287-.176.45-.176h6.94c.37 0 .67.315.67.703 0 .39-.3.71-.67.71-.28 0-.5.23-.5.52 0 .29.22.52.494.52h2.06c.23 0 .42.2.42.44s-.19.44-.42.44H8.14c-.13 0-.223-.06-.277-.11-.092-.08-.143-.2-.143-.32s.05-.24.143-.33c.055-.05.147-.11.277-.11h.003c.274 0 .496-.23.496-.52 0-.28-.23-.51-.5-.51H4.75c-.163 0-.32-.06-.444-.17-.145-.13-.228-.32-.228-.52s.083-.39.228-.52zm26.68 19.728h-.39v-7.356c-.05-1.146-.66-2.165-1.57-2.73v-6.83l-.01-.116-.01-.036-.01-.078-.004-.014c-.014-.214-.037-.426-.07-.634v-.004l-.036-.203-.04-.2-.046-.19v-.01l-.05-.19v-.01l-.055-.19-.004-.01-.06-.19v-.01l-.07-.19-.07-.19c-.22-.56-.5-1.1-.8-1.6-.92-1.51-2.14-2.71-3.01-3.47h-.01l-.1-.08v-.01l-.09-.08h-.01l-.09-.07h-.01l-.08-.06-.01-.01-.08-.06-.01-.01-.02-.02v-1.74c0-.28-.23-.52-.5-.52h-.18v-.91l.05-.09.21-.12c.16-.09.26-.26.26-.45s-.1-.36-.26-.45l-.21-.12-.117-.22c-.083-.16-.25-.27-.43-.27s-.35.108-.435.27l-.114.228-.21.12c-.16.09-.26.266-.26.455 0 .19.1.366.26.457l.213.12.06.13v.88h-.13c-.275 0-.497.23-.497.514V85c-1.38 1.11-4.66 4.13-4.805 7.862l-.01.11v4.33H5.413c-.27 0-.53.12-.72.33l-3.27 3.62c-.172.194-.27.45-.27.714v7.92h-.14c-.54 0-.99.465-.99 1.038s.45 1.038.99 1.038H31c.547 0 .99-.46.99-1.04s-.443-1.03-.99-1.03zm-14.12-7.296c.016-.288.096-.558.225-.794.29-.54.85-.9 1.48-.9.17 0 .34.028.5.077.67.21 1.17.84 1.2 1.61v.91h-3.41v-.91zm0 3.19v-1.242h3.416v5.317h-3.41v-4.07zm4.54-12.197h3.24v5.23c-.452-.36-1.02-.58-1.63-.58-.6 0-1.16.2-1.61.55v-5.21zm1.61 5.69c.766 0 1.41.52 1.63 1.25v1.35h-3.24v-1.42c.24-.7.87-1.19 1.61-1.19zm-1.61 9.97v-6.34h3.24v6.93h-3.24v-.6zm-9.2-2.96h3.668v3.55H12.21v-3.56zm-4.56 0h3.57v3.55H7.65v-3.56zm-4.52 0h3.53v3.55H3.13v-3.56zm25.987 3.56l-.04-.01h-3.35v-5.31h3.4v5.32zm0-6.36h-3.39v-1.08c.11-.74.64-1.33 1.33-1.49l.1-.02.27-.03c.75 0 1.39.5 1.62 1.21.05.15.08.31.09.48v.91zm-3.44-2.98l-.03-.14v-6.8h1.41v6.3c-.52.07-.99.3-1.37.63zm.18-7.98c-.06-1.39-.34-2.67-.69-3.77.89 1.09 1.66 2.4 1.84 3.76h-1.14zm-3.07-5.63l.27-.23.27.22c.61 1.23 1.42 3.28 1.54 5.63h-3.62c.12-2.34.93-4.4 1.54-5.63zm-3.7 11.64v-4.95h1.35v6.72l-.06.26c-.35-.33-.8-.56-1.28-.66V98.5zm-3.19 4.04v2.68h-3.67v-2.78h3.67v.09zm-8.22-.09h3.57v2.77H7.65v-2.78zm-4.52 0h3.53v2.77H3.13v-2.78zM22.9 83.74h.315v.6c-.104-.018-.21-.018-.315 0v-.6zm-2.548 5.787l.147-.21c.15-.206.3-.4.45-.59-.35 1.1-.64 2.384-.7 3.78h-1.14v-.046l.01-.07.03-.19.01-.06.04-.19.01-.05.05-.2.01-.04.06-.21.01-.04.08-.21.01-.03.09-.21.01-.03.1-.21.015-.02.11-.21.01-.02.12-.21.01-.01.125-.22.006-.01.14-.213.008-.01.14-.21.004-.01zm-3.256 9.812v.94c-.403.28-.73.66-.944 1.12H3.97l1.866-2.07H17.09z" fill="#fff"/><path d="M23.017 54.748c-.557 0-1.008.472-1.008 1.055s.45 1.056 1 1.056 1.01-.48 1.01-1.06-.45-1.06-1.01-1.06zm4.39 10.62c-.133 0-.257.036-.366.098-.22.13-.37.373-.39.655v.5h1.51v-.49c-.02-.42-.35-.75-.75-.75zm-4.358-1.73c-.41 0-.74.335-.76.754v4.572h1.51v-4.572c-.02-.42-.35-.753-.76-.753zm-3.75 2.977v-.494c-.01-.21-.1-.4-.24-.53-.14-.13-.32-.22-.52-.22-.41 0-.74.34-.76.76v.5h1.51zm-9.91-1.91c.38 0 .68-.323.68-.72 0-.396-.31-.717-.69-.717-.38 0-.69.322-.69.718 0 .397.3.718.68.718zm4.63 0c.38 0 .68-.323.68-.72 0-.396-.31-.717-.69-.717-.38 0-.69.322-.69.718 0 .397.3.718.68.718zm-9.28 0c.38 0 .68-.323.68-.72 0-.396-.31-.717-.69-.717-.38 0-.69.322-.69.718 0 .397.3.718.68.718M3.65 51.956c.303.28.693.436 1.1.436h2.04c-.04.14-.064.287-.064.438 0 .423.17.826.474 1.107.26.24.59.37.932.37h5.613c.78 0 1.41-.663 1.41-1.477 0-.813-.63-1.475-1.41-1.475h-.535c.09-.216.143-.453.143-.703 0-.96-.75-1.74-1.67-1.74H4.75c-.405 0-.795.154-1.1.435-.36.33-.563.806-.563 1.305 0 .498.205.974.564 1.305zm.654-1.832c.128-.114.285-.176.448-.176h6.94c.37 0 .67.315.67.703 0 .39-.3.71-.67.71-.28 0-.5.23-.5.52 0 .29.22.52.493.52h2.06c.23 0 .42.2.42.44s-.19.44-.42.44H8.14c-.13 0-.223-.06-.277-.11-.092-.08-.143-.2-.143-.32s.05-.24.143-.33c.055-.05.147-.11.277-.11h.003c.274 0 .496-.23.496-.52 0-.28-.23-.51-.5-.51H4.75c-.163 0-.32-.06-.444-.17-.145-.13-.228-.32-.228-.52s.083-.39.228-.52zm26.68 19.728h-.39v-7.356c-.05-1.146-.66-2.165-1.572-2.73v-6.83l-.01-.116-.01-.036-.012-.078-.003-.014c-.014-.214-.037-.426-.07-.634v-.004l-.036-.203-.04-.2-.04-.19v-.01l-.05-.19v-.01l-.05-.19v-.01l-.06-.19v-.01l-.06-.19-.07-.19c-.22-.56-.49-1.1-.8-1.6-.92-1.51-2.13-2.71-3-3.47h-.01l-.09-.08h-.01l-.09-.08h-.01l-.082-.07h-.01l-.076-.06-.01-.01-.07-.06-.02-.01-.02-.02v-1.74c0-.284-.22-.52-.495-.52h-.18v-.91l.05-.09.21-.12c.16-.09.254-.263.254-.453s-.1-.36-.26-.452l-.21-.12-.12-.22c-.08-.16-.25-.27-.43-.27s-.35.11-.44.27l-.11.23-.21.125c-.16.09-.26.26-.26.45s.1.37.26.46l.21.12.07.13v.877h-.13c-.27 0-.492.23-.492.52V45c-1.385 1.11-4.66 4.13-4.81 7.864v4.44H5.41c-.272 0-.532.12-.72.33l-3.27 3.62c-.175.193-.272.45-.272.713v7.92h-.14c-.54 0-.99.464-.99 1.037s.45 1.03.99 1.03H31c.547 0 .99-.466.99-1.04s-.443-1.037-.99-1.037zm-14.12-7.296c.015-.288.095-.558.224-.794.298-.54.85-.9 1.486-.9.17 0 .34.028.5.077.67.21 1.17.84 1.203 1.61v.91h-3.41v-.91zm0 3.19v-1.242h3.415v5.317h-3.41v-4.07zm4.54-12.197h3.24v5.23c-.453-.36-1.017-.58-1.63-.58-.6 0-1.16.2-1.61.55v-5.21zm1.61 5.69c.765 0 1.413.52 1.63 1.25v1.35h-3.24v-1.42c.24-.7.87-1.19 1.61-1.19zm-1.61 9.97v-6.33h3.24v6.93h-3.24v-.6zm-9.197-2.96h3.664v3.55h-3.66v-3.55zm-4.56 0h3.57v3.55H7.65v-3.55zm-4.52 0h3.53v3.55H3.13v-3.55zm25.983 3.56l-.046-.01h-3.35v-5.3h3.4v5.32zm0-6.36h-3.39v-1.08c.104-.74.64-1.33 1.325-1.49l.1-.02.267-.03c.75 0 1.388.5 1.618 1.21.05.15.08.31.09.48v.91zm-3.446-2.98l-.03-.14v-6.8h1.41v6.3c-.52.07-.993.3-1.375.63zm.18-7.98c-.06-1.39-.34-2.67-.692-3.77.888 1.09 1.66 2.4 1.838 3.76h-1.14zm-3.07-5.63l.27-.23.27.22c.61 1.23 1.42 3.28 1.54 5.63H21.24c.12-2.34.93-4.4 1.54-5.63zM19.07 58.5v-4.95h1.345v6.72l-.057.26c-.358-.33-.8-.56-1.288-.656v-1.37zm-3.197 4.04v2.686H12.21V62.45h3.665v.093zm-8.225-.09h3.57v2.776H7.65V62.45zm-4.52 0h3.53v2.776H3.13V62.45zM22.89 43.747h.316v.6c-.104-.018-.21-.018-.315 0v-.6zm-2.547 5.787l.148-.212v-.002c.15-.203.31-.4.46-.59-.35 1.1-.63 2.387-.7 3.78h-1.14l.01-.043.01-.07.04-.194.01-.062.05-.19.02-.05.06-.2.01-.04.07-.21.02-.04.08-.21.02-.03.09-.21.01-.03.1-.21.02-.02.11-.21.01-.02.12-.21.01-.01.126-.22.01-.01.137-.21.004-.01.14-.21v-.003zm-3.255 9.812v.94c-.404.28-.732.667-.945 1.126H3.973l1.865-2.066H17.09z" fill="#67737B"/><path d="M23.017 14.748c-.557 0-1.008.472-1.008 1.055s.45 1.056 1 1.056 1.01-.48 1.01-1.06-.45-1.06-1.01-1.06zm4.39 10.62c-.133 0-.257.036-.366.098-.22.13-.37.373-.39.655v.5h1.51v-.49c-.02-.42-.35-.75-.75-.75zm-4.358-1.73c-.41 0-.74.335-.76.754v4.572h1.51v-4.572c-.02-.42-.35-.753-.76-.753zm-3.75 2.977v-.494c-.01-.21-.1-.4-.24-.53-.14-.13-.32-.22-.52-.22-.41 0-.74.34-.76.76v.5h1.51zm-9.91-1.91c.38 0 .68-.323.68-.72 0-.396-.31-.717-.69-.717-.38 0-.69.322-.69.718 0 .397.3.718.68.718zm4.63 0c.38 0 .68-.323.68-.72 0-.396-.31-.717-.69-.717-.38 0-.69.322-.69.718 0 .397.3.718.68.718zm-9.28 0c.38 0 .68-.323.68-.72 0-.396-.31-.717-.69-.717-.38 0-.69.322-.69.718 0 .397.3.718.68.718M3.65 11.956c.303.28.693.436 1.1.436h2.04c-.04.14-.064.287-.064.438 0 .423.17.826.474 1.107.26.24.59.37.932.37h5.613c.78 0 1.41-.663 1.41-1.477 0-.813-.63-1.475-1.41-1.475h-.535c.09-.216.143-.453.143-.703 0-.96-.75-1.74-1.67-1.74H4.75c-.405 0-.795.154-1.1.435-.36.33-.563.806-.563 1.305 0 .498.205.974.564 1.305zm.654-1.832c.128-.114.285-.176.448-.176h6.94c.37 0 .67.315.67.703 0 .39-.3.71-.67.71-.28 0-.5.23-.5.52 0 .29.22.52.493.52h2.06c.23 0 .42.2.42.44s-.19.44-.42.44H8.14c-.13 0-.223-.06-.277-.11-.092-.08-.143-.2-.143-.32s.05-.24.143-.33c.055-.05.147-.11.277-.11h.003c.274 0 .496-.23.496-.52 0-.28-.23-.51-.5-.51H4.75c-.163 0-.32-.06-.444-.17-.145-.13-.228-.32-.228-.52s.083-.39.228-.52zm26.68 19.728h-.39v-7.356c-.05-1.146-.66-2.165-1.572-2.73v-6.83l-.01-.116-.01-.036-.012-.078-.003-.014c-.014-.214-.037-.426-.07-.634v-.004l-.036-.203-.04-.2-.04-.19v-.01l-.05-.19v-.01l-.05-.19v-.01l-.06-.19v-.01l-.06-.19-.07-.19c-.22-.56-.49-1.1-.8-1.6-.92-1.51-2.13-2.71-3-3.47h-.01l-.09-.08h-.01l-.09-.08h-.01l-.085-.07h-.01l-.076-.06-.01-.01-.07-.05-.02-.01L24.2 5V3.23c0-.286-.22-.52-.495-.52h-.18v-.92l.05-.09.21-.12c.16-.09.26-.265.26-.455s-.1-.364-.254-.455l-.21-.12-.11-.223c-.09-.166-.26-.27-.44-.27s-.35.103-.44.27l-.12.223-.21.122c-.16.092-.26.266-.26.455 0 .19.1.364.26.455l.21.122.07.13v.875h-.13c-.273 0-.495.23-.495.51v1.74c-1.38 1.11-4.66 4.13-4.805 7.86l-.007.11v4.33H5.41c-.27 0-.53.12-.72.33l-3.27 3.62c-.174.19-.27.45-.27.71v7.92h-.14c-.54 0-.99.46-.99 1.03s.45 1.03.99 1.03H31c.547 0 .99-.47.99-1.04s-.443-1.04-.99-1.04zm-14.12-7.296c.015-.288.095-.558.224-.794.298-.54.85-.9 1.486-.9.17 0 .34.028.5.077.67.21 1.17.84 1.203 1.61v.91h-3.41v-.91zm0 3.19v-1.242h3.415v5.317h-3.41v-4.07zm4.54-12.197h3.24v5.23c-.453-.36-1.017-.58-1.63-.58-.6 0-1.16.2-1.61.55v-5.21zm1.61 5.69c.765 0 1.413.52 1.63 1.25v1.35h-3.24v-1.42c.24-.7.87-1.19 1.61-1.19zm-1.61 9.97v-6.33h3.24v6.93h-3.24v-.6zm-9.197-2.96h3.664v3.55h-3.66v-3.55zm-4.56 0h3.57v3.55H7.65v-3.55zm-4.52 0h3.53v3.55H3.13v-3.55zm25.983 3.56l-.046-.01h-3.35v-5.3h3.4v5.32zm0-6.36h-3.39v-1.08c.104-.74.64-1.33 1.325-1.49l.1-.02.267-.03c.75 0 1.388.5 1.618 1.21.05.15.08.31.09.48v.91zm-3.446-2.98l-.03-.14v-6.8h1.41v6.3c-.52.07-.993.3-1.375.63zm.18-7.98c-.06-1.39-.34-2.67-.692-3.77.888 1.09 1.66 2.4 1.838 3.76h-1.14zm-3.07-5.62l.27-.23.27.22c.61 1.23 1.42 3.28 1.54 5.63H21.24c.12-2.34.93-4.4 1.538-5.63zm-3.7 11.62v-4.95h1.346v6.72l-.058.26c-.357-.33-.8-.56-1.287-.66V18.5zm-3.196 4.04v2.68H12.21v-2.77h3.665v.09zm-8.225-.09h3.57v2.77H7.65v-2.77zm-4.52 0h3.53v2.77H3.13v-2.77zm19.762-18.7h.315v.6c-.108-.02-.21-.02-.32 0v-.6zm-2.548 5.79l.148-.21c.15-.21.302-.4.458-.59-.352 1.1-.636 2.38-.7 3.78h-1.14l.005-.05.01-.07.033-.2.02-.06.05-.19.02-.05.06-.2.02-.05.07-.21.02-.04.08-.21.018-.04.087-.21.01-.03.1-.22.01-.026.11-.218.01-.02.12-.21.005-.018.125-.22.01-.01.14-.21.008-.01.14-.21.006-.007zm-3.255 9.81v.94c-.4.28-.73.66-.94 1.12H3.97l1.866-2.07H17.09z" fill="#3A434E"/></g></svg>