<svg width="32" height="232" viewBox="0 0 32 232" xmlns="http://www.w3.org/2000/svg"><g fill="none"><path d="M31.055 149.674h-.897v-8.56c0-.364-.183-.696-.476-.877v-4.098c0-.1-.027-.19-.07-.27l-.537-6.01v-1.7c0-.28-.213-.51-.476-.51s-.48.22-.48.5v1.69l-.47 5.39-.5-.27v-1.47c0-.28-.22-.51-.48-.51s-.48.23-.48.51v.94l-.53-.29v-.66c0-.1-.03-.18-.07-.26l-.54-7.39v-2.07c0-.28-.22-.51-.48-.51s-.48.22-.48.5v2.07l-.51 7.18-.64-.35v-1.25c0-.28-.21-.51-.48-.51s-.48.226-.48.506v.74l-.62-.334v-1.364c0-.096-.03-.18-.07-.26l-.54-7.39v-2.07c0-.28-.22-.51-.48-.51s-.48.22-.48.5v2.077l-.12 1.72-.13-1.72v-2.07c0-.28-.218-.5-.48-.5s-.48.23-.48.51v2.07l-.514 7.23-.45-.25v-1.136c0-.28-.217-.506-.48-.506s-.474.23-.474.51v.615l-.25-.135v-1.57c0-.28-.214-.51-.48-.51s-.474.223-.474.503v1.514l-.25.14v-.56c0-.28-.214-.51-.477-.51s-.474.23-.474.51v1.09l-.4.22-.51-7.15v-2.077c0-.28-.21-.51-.473-.51s-.48.22-.48.5v2.07l-.13 1.728-.12-1.72v-2.08c0-.28-.217-.504-.48-.504s-.474.22-.474.5v2.08l-.54 7.39c-.04.076-.07.16-.07.26v1.31l-.62.34v-.69c0-.28-.213-.507-.476-.507s-.473.23-.473.51v1.22l-.63.35-.51-7.14v-2.07c0-.28-.21-.508-.47-.508s-.473.226-.473.506v2.07l-.54 7.39c-.043.076-.07.16-.07.256v.63l-.53.297v-.93c0-.28-.213-.51-.476-.51s-.48.23-.48.51v1.45l-.5.275-.46-5.387v-1.7c0-.28-.214-.51-.476-.51-.268 0-.48.23-.48.51v1.695l-.54 6.01c-.04.08-.07.17-.07.267v4.097c-.29.18-.477.51-.477.87v8.56h-.9c-.526 0-.95.46-.95 1.02s.424 1.01.95 1.01H31c.526 0 .95-.46.95-1.02s-.43-1.02-.955-1.02zM16.75 138.45c-.02-.41-.336-.736-.725-.736-.39 0-.706.326-.724.736v4.47h1.45v-4.47zm0-5.43c-.02-.41-.336-.736-.725-.736-.39 0-.706.327-.724.737v2.39h1.45v-2.38zm-13.307 2.3l.027.312h-.054l.028-.312zm4.01-2.81l.035.503h-.074l.037-.502zm8.204-2.34l.29-.16.352.193 1.74.955v18.056h-1.3v-4.265H15.3v4.26h-1.298v-18.12l1.657-.92zm7.863 3.974v2.727l-2.122-1.16v-2.72l2.123 1.16zm1.075-1.634l.037.503h-.072l.036-.502zm-17.267 2.26v-.742h.248v15.648h-.248V134.77zm11.67-3.094v-.687h.25v18.68h-.25v-18zm5.474 2.987v-.635h.248v15.648h-.248V134.66zm4.01 1.984h.247v13.03h-.25v-13.03zm-.952 12.566h-1.86v-8.887l1.86 1.014v7.873zm-4.01 0H21.4v-11.22l2.123 1.16v10.06zM13.05 131.04v18.636h-.25V130.99h.25v.05zm-2.4 18.173H8.527v-10.096l2.123-1.172v11.27zm-4.273 0h-1.86v-7.88l1.86-1.028v8.908zM3.32 139.71v-3.062h.246v13.03H3.32v-9.968zm25.26-4.077l.025-.312.028.32h-.055zm-1.05.7v2.728l-1.86-1.01v-2.72l1.86 1.02zm-7.083-4.436v17.78H20.2V130.99h.248v.908zm-.16-1.92l.035-.504.037.503h-.08zm-1.165-.504l.037.503h-.08l.03-.503zm-6.233.503l.03-.503.03.503h-.07zm-1.17-.503l.03.503h-.07l.03-.503zm-.13 1.795v-.278h.25v18.686h-.25v-18.408zm-.95 4.39l-2.12 1.172v-2.72l1.07-.59c.12-.01.23-.073.31-.17l.74-.41v2.725zm-4.27 2.362l-1.86 1.027v-2.723l1.86-1.026v2.723z" fill="#206FAC"/><path d="M31.055 109.674h-.897v-8.56c0-.364-.183-.696-.476-.877V96.14c0-.1-.027-.188-.07-.266l-.537-6.01V88.17c0-.28-.213-.507-.476-.507s-.48.227-.48.508v1.7l-.47 5.4-.5-.27v-1.47c0-.28-.22-.5-.48-.5s-.48.23-.48.51v.95l-.53-.29v-.66c0-.09-.03-.18-.07-.25l-.54-7.39v-2.1c0-.28-.22-.5-.48-.5s-.48.23-.48.51v2.08l-.51 7.18-.64-.35v-1.26c0-.28-.21-.51-.48-.51s-.48.22-.48.5v.73l-.62-.34v-1.36c0-.09-.03-.18-.07-.25l-.54-7.39v-2.07c0-.28-.22-.51-.48-.51s-.48.227-.48.507v2.077l-.12 1.725-.13-1.724v-2.07c0-.28-.22-.505-.48-.505s-.48.23-.48.51v2.07l-.52 7.22-.45-.25v-1.13c0-.28-.217-.51-.48-.51s-.474.225-.474.505v.61l-.25-.14v-1.57c0-.28-.214-.506-.48-.506s-.474.222-.474.502v1.52l-.25.14v-.564c0-.28-.214-.503-.477-.503s-.475.22-.475.5v1.09l-.4.22-.51-7.153v-2.07c0-.28-.21-.51-.472-.51s-.478.22-.478.5v2.07l-.13 1.72-.12-1.72v-2.07c0-.28-.213-.51-.476-.51s-.475.227-.475.507v2.07l-.54 7.39c-.04.075-.07.162-.07.256v1.31l-.62.344v-.69c0-.28-.214-.508-.477-.508s-.475.22-.475.5v1.215l-.63.35-.51-7.14V83.8c0-.28-.21-.508-.47-.508s-.477.227-.477.507v2.07l-.54 7.39c-.044.07-.07.16-.07.25v.63l-.53.29v-.93c0-.28-.214-.51-.477-.51s-.48.22-.48.5v1.45l-.5.27-.46-5.39v-1.69c0-.28-.213-.51-.475-.51-.265 0-.48.22-.48.5v1.69l-.54 6.01c-.04.08-.07.17-.07.26v4.097c-.29.18-.474.512-.474.875v8.56h-.9c-.525 0-.95.454-.95 1.015 0 .56.425 1.01.95 1.01H31c.526 0 .95-.45.95-1.01s-.43-1.02-.955-1.02zM16.75 98.45c-.02-.41-.336-.736-.725-.736-.39 0-.706.326-.724.736v4.47h1.45v-4.47zm0-5.43c-.02-.41-.336-.736-.725-.736-.39 0-.706.327-.724.737v2.39h1.45v-2.39zm-13.307 2.3l.027.312h-.054l.028-.312zm4.01-2.81l.035.503h-.074l.037-.502zm8.204-2.34l.29-.16.352.193 1.74.955v18.056h-1.3v-4.265H15.3v4.26h-1.298V91.08l1.657-.915zm7.863 3.974v2.727l-2.12-1.16v-2.72l2.123 1.16zm1.075-1.634l.037.503h-.072l.036-.502zM7.328 94.77v-.742h.248v15.648h-.248V94.77zm11.67-3.094v-.687h.25v18.68h-.25v-18zm5.474 2.987v-.635h.248v15.648h-.248V94.66zm4.01 1.984h.247v13.03h-.25v-13.03zm-.952 12.566h-1.86v-8.887l1.86 1.014v7.873zm-4.01 0H21.4V97.99l2.123 1.16v10.06zM13.05 91.036v18.637h-.25V90.987h.25v.05zm-2.4 18.174H8.527V99.114l2.123-1.172v11.27zm-4.273 0h-1.86v-7.88l1.86-1.028v8.908zM3.32 99.707v-3.062h.247v13.03H3.32v-9.968zm25.26-4.077l.026-.312.028.312h-.055zm-1.048.7v2.728l-1.86-1.015v-2.727l1.86 1.015zm-7.084-4.436v17.78H20.2V90.988h.248v.907zm-.16-1.92l.035-.504.037.503h-.072zm-1.165-.504l.037.503h-.072l.036-.503zm-6.233.503l.036-.503.036.503h-.072zm-1.163-.503l.036.503h-.072l.04-.503zm-.125 1.795v-.278h.25v18.686h-.25V91.265zm-.95 4.39L8.527 96.83v-2.722l1.072-.592c.12-.013.23-.076.31-.172l.74-.41v2.724zm-4.274 2.362l-1.86 1.027V96.32l1.86-1.026v2.723z" fill="#fff"/><path d="M31.055 69.674h-.897v-8.56c0-.364-.183-.696-.476-.877V56.14c0-.1-.027-.188-.07-.266l-.537-6.01V48.17c0-.28-.213-.507-.476-.507s-.48.227-.48.508v1.7l-.47 5.4-.5-.27v-1.47c0-.28-.22-.5-.48-.5s-.48.23-.48.51v.95l-.53-.29v-.66c0-.09-.03-.18-.07-.25l-.54-7.39v-2.1c0-.28-.22-.5-.48-.5s-.48.23-.48.51v2.08l-.51 7.18-.64-.35v-1.26c0-.28-.21-.51-.48-.51s-.48.22-.48.5v.73l-.62-.34v-1.36c0-.09-.03-.18-.07-.25l-.54-7.39v-2.07c0-.28-.22-.51-.48-.51s-.48.227-.48.507v2.077l-.12 1.725-.13-1.724v-2.07c0-.28-.22-.505-.48-.505s-.48.23-.48.51v2.07l-.52 7.22-.45-.25v-1.13c0-.28-.217-.51-.48-.51s-.474.225-.474.505v.61l-.25-.14v-1.57c0-.28-.214-.506-.48-.506s-.474.222-.474.502v1.52l-.25.14v-.564c0-.28-.214-.503-.477-.503s-.475.22-.475.5v1.09l-.4.22-.51-7.153v-2.07c0-.28-.21-.51-.472-.51s-.478.22-.478.5v2.07l-.13 1.72-.12-1.72v-2.07c0-.28-.213-.51-.476-.51s-.475.227-.475.507v2.07l-.54 7.39c-.04.075-.07.162-.07.256v1.31l-.62.344v-.69c0-.28-.214-.508-.477-.508s-.475.22-.475.5v1.215l-.63.35-.51-7.14V43.8c0-.28-.21-.508-.47-.508s-.477.227-.477.507v2.07l-.54 7.39c-.044.07-.07.16-.07.25v.63l-.53.29v-.93c0-.28-.214-.51-.477-.51s-.48.22-.48.5v1.45l-.5.27-.46-5.39v-1.69c0-.28-.213-.51-.475-.51-.265 0-.48.22-.48.5v1.69l-.54 6.01c-.04.08-.07.17-.07.26v4.1c-.29.18-.474.513-.474.876v8.56h-.9c-.525 0-.95.46-.95 1.02s.425 1.01.95 1.01H31c.526 0 .95-.45.95-1.01s-.43-1.02-.955-1.02zM16.75 58.45c-.02-.41-.336-.736-.725-.736-.39 0-.706.326-.724.736v4.47h1.45v-4.47zm0-5.43c-.02-.41-.336-.736-.725-.736-.39 0-.706.327-.724.737v2.39h1.45v-2.39zm-13.307 2.3l.027.312h-.054l.028-.312zm4.01-2.81l.035.503h-.074l.037-.502zm8.204-2.34l.29-.16.352.193 1.74.955V69.21h-1.3v-4.265H15.3v4.266h-1.298V51.09l1.657-.916zm7.863 3.974v2.727l-2.12-1.16v-2.72l2.123 1.16zm1.075-1.634l.037.503h-.072l.036-.502zM7.328 54.77v-.742h.248v15.648h-.248V54.77zm11.67-3.094v-.687h.25v18.68h-.25v-18zm5.474 2.987v-.635h.248v15.648h-.248V54.66zm4.01 1.984h.247v13.03h-.25v-13.03zM27.53 69.21h-1.86v-8.887l1.86 1.014v7.873zm-4.01 0H21.4V57.99l2.123 1.16v10.06zM13.05 51.036v18.637h-.25V50.987h.25v.05zm-2.4 18.174H8.527V59.114l2.123-1.172v11.27zm-4.273 0h-1.86v-7.88l1.86-1.028v8.908zM3.32 59.707v-3.062h.247v13.03H3.32v-9.968zm25.26-4.077l.026-.312.028.312h-.055zm-1.048.7v2.728l-1.86-1.015v-2.727l1.86 1.015zm-7.084-4.436v17.78H20.2V50.988h.248v.907zm-.16-1.92l.035-.504.037.503h-.072zm-1.165-.504l.037.503h-.072l.036-.503zm-6.233.503l.036-.503.036.503h-.072zm-1.163-.503l.036.503h-.072l.04-.503zm-.125 1.795v-.278h.25v18.686h-.25V51.265zm-.95 4.39L8.527 56.83v-2.722l1.072-.592c.12-.013.23-.076.31-.172l.74-.41v2.724zm-4.274 2.362l-1.86 1.027V56.32l1.86-1.026v2.723z" fill="#67737B"/><path d="M31.055 29.674h-.897v-8.56c0-.364-.183-.696-.476-.877V16.14c0-.1-.027-.188-.07-.266l-.537-6.01V8.17c0-.28-.213-.507-.476-.507s-.48.227-.48.508v1.7l-.47 5.4-.5-.27v-1.47c0-.28-.22-.5-.48-.5s-.48.23-.48.51v.95l-.53-.29v-.66c0-.09-.03-.18-.07-.25l-.54-7.39V3.8c0-.28-.22-.51-.48-.51s-.48.227-.48.507V5.87l-.51 7.176-.64-.346v-1.258c0-.28-.21-.507-.48-.507s-.48.227-.48.507v.738l-.62-.338v-1.365c0-.094-.03-.18-.07-.255l-.54-7.39V.755c0-.28-.22-.507-.48-.507s-.47.226-.47.506V2.83l-.12 1.723-.13-1.722V.76c0-.28-.22-.507-.48-.507S18.6.48 18.6.76v2.07l-.514 7.226-.45-.247V8.67c0-.28-.21-.507-.475-.507s-.47.227-.47.507v.616l-.25-.14V7.58c0-.28-.21-.506-.47-.506s-.48.227-.48.507V9.1l-.25.14v-.563c0-.28-.21-.507-.47-.507s-.47.227-.47.507v1.09l-.4.22-.51-7.153V.758c0-.28-.21-.507-.474-.507s-.476.23-.476.51v2.07l-.13 1.73-.127-1.72V.76c0-.28-.21-.507-.48-.507s-.47.227-.47.507v2.07l-.54 7.39c-.04.076-.07.163-.07.257v1.31l-.62.345v-.69c0-.28-.21-.508-.473-.508s-.48.227-.48.507v1.22l-.63.35-.51-7.14V3.8c0-.28-.21-.507-.48-.507s-.47.227-.47.507v2.07l-.54 7.39c-.04.075-.07.16-.07.255v.634l-.53.29v-.93c0-.28-.21-.51-.478-.51s-.475.22-.475.5v1.45l-.5.27-.46-5.38V8.16c0-.28-.214-.51-.476-.51s-.474.23-.474.51v1.69l-.54 6.01c-.04.08-.07.17-.07.268v4.097c-.29.18-.47.52-.47.88v8.56h-.9c-.53 0-.95.458-.95 1.02 0 .56.42 1.013.95 1.013h30.06c.525 0 .95-.453.95-1.013s-.43-1.02-.96-1.02zM16.75 18.45c-.02-.41-.336-.736-.725-.736-.39 0-.706.326-.724.736v4.47h1.45v-4.47zm0-5.43c-.02-.41-.336-.736-.725-.736-.39 0-.706.327-.724.737v2.39h1.45v-2.39zm-13.307 2.3l.027.312h-.054l.028-.312zm4.01-2.81l.035.503h-.074l.037-.502zm8.204-2.34l.29-.16.352.193 1.74.955V29.21h-1.3v-4.265H15.3v4.266h-1.298V11.09l1.657-.916zm7.863 3.974v2.727l-2.12-1.16v-2.72l2.123 1.16zm1.075-1.634l.037.503h-.072l.036-.502zM7.328 14.77v-.742h.248v15.648h-.248V14.77zm11.67-3.094v-.687h.25v18.68h-.25v-18zm5.474 2.987v-.635h.248v15.648h-.248V14.66zm4.01 1.984h.247v13.03h-.25v-13.03zM27.53 29.21h-1.86v-8.887l1.86 1.014v7.873zm-4.01 0H21.4V17.99l2.123 1.16v10.06zM13.05 11.036v18.637h-.25V10.987h.25v.05zm-2.4 18.174H8.527V19.114l2.123-1.172v11.27zm-4.273 0h-1.86v-7.88l1.86-1.028v8.908zM3.32 19.707v-3.062h.247v13.03H3.32v-9.968zm25.26-4.077l.026-.312.028.312h-.055zm-1.048.7v2.728l-1.86-1.015v-2.727l1.86 1.015zm-7.084-4.436v17.78H20.2V10.988h.248v.907zm-.16-1.92l.035-.504.037.503h-.072zm-1.165-.504l.037.503h-.072l.036-.503zm-6.233.503l.036-.503.036.503h-.072zm-1.163-.503l.036.503h-.072l.04-.503zm-.125 1.795v-.278h.25v18.686h-.25V11.265zm-.95 4.39L8.527 16.83v-2.722l1.072-.592c.12-.013.23-.076.31-.172l.74-.41v2.724zm-4.274 2.362l-1.86 1.027V16.32l1.86-1.026v2.723z" fill="#3A434E"/></g></svg>