<svg width="32" height="232" viewBox="0 0 32 232" xmlns="http://www.w3.org/2000/svg"><g fill="none"><path d="M29.996 149.88h-8.084l.3-3.108c.184-.065.325-.234.346-.447.02-.213-.086-.408-.255-.51l.233-2.418h1.017v1.344c0 .3.23.53.512.53h1.363c.283 0 .512-.23.512-.53v-.53h4.056c.283 0 .512-.23.512-.53 0-.29-.23-.53-.512-.53h-4.568l-.206.05c-.18.08-.305.27-.305.48v.54h-.34v-1.34c0-.29-.23-.53-.512-.53h-1.127l.006-.03c.02-.21-.086-.4-.255-.5l.29-3.06c.18-.06.32-.23.34-.44.02-.21-.09-.41-.26-.51l.29-3.05c.18-.06.32-.23.34-.44.02-.21-.09-.41-.26-.51l.29-3.06c.18-.06.32-.23.34-.44.02-.21-.08-.4-.25-.51l.39-4.11c.06-.58-.35-1.09-.91-1.15l-.55-.05.24-2.5c.052-.58-.358-1.1-.92-1.156l-6.95-.71c-.27-.03-.54.054-.75.23-.21.174-.35.43-.37.71l-.24 2.5-.55-.057c-.27-.026-.54.06-.75.24-.21.173-.34.43-.37.71l-.39 4.11c-.19.064-.33.233-.35.45-.02.21.09.41.26.51l-.298 3.05c-.18.064-.32.234-.34.45-.02.21.08.41.25.51l-.29 3.06c-.18.063-.32.23-.34.45-.02.21.082.4.25.51l-.296 3.05-.124.067c-1.72.37-2.99 1.22-3.31 2.28H5.09c-.28 0-.51.24-.51.53v2.44H1.71c-.28 0-.51.23-.51.522 0 .296.227.53.51.53h3.38c.283 0 .512-.234.512-.53V144h1.97c.284 0 .513-.237.513-.53 0-.665.916-1.386 2.377-1.735l-.276 2.878c-.182.066-.324.235-.344.45-.02.215.085.41.254.51l-.42 4.35H2.06c-.563 0-1.02.47-1.02 1.055S1.497 152 2.062 152H30c.564 0 1.022-.47 1.022-1.054 0-.584-.458-1.056-1.023-1.056zm-15.614-11.522c-.26-.026-.494.17-.52.44l-.153 1.588.94.097.15-1.59c.02-.268-.17-.508-.43-.535zm2.917.792c.02-.27-.17-.51-.43-.536-.26-.027-.5.17-.52.44l-.16 1.588.94.096.15-1.588zm2.49.255c.02-.27-.17-.51-.43-.536-.26-.03-.5.17-.52.43l-.16 1.59.94.09.15-1.59zm-5.03-5.05c-.26-.026-.5.17-.52.44l-.15 1.59.94.095.15-1.588c.02-.27-.17-.51-.43-.537zm2.49.256c-.26-.02-.5.17-.52.44l-.16 1.59.94.1.15-1.59c.02-.27-.17-.51-.43-.53zm2.49.26c-.26-.02-.5.17-.52.44l-.15 1.59.94.1.15-1.59c.02-.27-.17-.51-.43-.53zm-4.6-4.51c-.26-.02-.5.17-.52.44l-.16 1.59.94.1.15-1.59c.02-.26-.17-.5-.43-.53zm2.49.26c-.26-.02-.5.17-.52.44l-.15 1.59.94.1.15-1.59c.02-.27-.17-.51-.43-.53zm2.49.26c-.26-.02-.49.17-.52.44l-.15 1.59.94.1.15-1.59c.02-.27-.17-.51-.43-.53zm-6.13 11.5c-.26-.03-.5.17-.52.44l-.15 1.59.94.1.15-1.59c.02-.27-.17-.51-.43-.53zm2.49.26c-.26-.02-.5.17-.52.44l-.15 1.59.94.1.15-1.59c.02-.27-.17-.51-.43-.53zm2.49.26c-.26-.02-.5.17-.52.44l-.16 1.59.94.1.15-1.59c.02-.27-.17-.51-.43-.54zm-3.44-16.52c-.27-.02-.5.17-.52.44l-.16 1.59.94.1.15-1.59c.03-.26-.17-.5-.43-.53zm2.49.26c-.26-.02-.5.17-.52.44l-.16 1.59.94.1.15-1.59c.02-.26-.17-.5-.43-.53zm2.49.26c-.26-.02-.5.17-.52.44l-.16 1.59.94.1.15-1.59c.02-.27-.17-.51-.43-.54zm-2.79 20.26c-.47-.04-.89.31-.94.79l-.19 1.98h-1.32l-.3-.03.2-2.11c.04-.48-.3-.91-.77-.96-.47-.05-.89.31-.94.79l-.21 2.11-1.52-.15.36-3.73 8.05.82-.32 3.27H18.3l.172-1.8c.047-.48-.296-.91-.765-.96zm-4.45-13.37l8.05.83-.29 2.97-8.05-.82.28-2.96zm.38-4.01l8.05.83-.29 2.96-8.05-.82.28-2.96zm.39-4.06l8.05.83-.29 3.01-8.05-.83.29-3.01zm6.89 12.92l-.29 2.97-7.82-.8c-.04-.1-.12-.18-.21-.24l.26-2.74 8.05.828zm-8.44 3.19l8.05.83-.29 2.96-8.05-.82.29-2.96zm3.45-19.49l4.92.51-.14 1.45-.74-.07.06-.68c.02-.27-.17-.51-.43-.534-.26-.03-.5.17-.52.44l-.07.68-1.55-.16.06-.68c.02-.27-.17-.51-.43-.54-.26-.023-.5.17-.52.44l-.07.68-.74-.08.14-1.45zM1.41 131.4c.252.23.576.357.912.357h1.34l-.013.175c0 .352.14.687.4.922.22.198.5.307.79.307h4.18c.66 0 1.19-.55 1.19-1.23 0-.68-.54-1.23-1.19-1.23h-.2c.03-.12.04-.24.04-.37 0-.78-.62-1.42-1.38-1.42H2.31c-.333 0-.657.13-.91.36-.3.27-.47.66-.47 1.07 0 .41.173.8.47 1.07zm.677-1.344c.046-.043.125-.092.235-.092h5.17c.196 0 .356.166.356.37 0 .202-.16.367-.357.367-.28 0-.51.24-.51.53 0 .29.23.53.51.53h1.53c.1 0 .17.08.17.18 0 .1-.07.18-.17.18H4.84l-.11-.04-.058-.13.058-.13.11-.04h.004c.282 0 .512-.24.512-.53 0-.29-.23-.53-.512-.53h-2.52c-.11 0-.19-.05-.236-.09-.046-.04-.122-.13-.122-.28 0-.14.076-.23.122-.27z" fill="#206FAC"/><path d="M29.996 109.88h-8.084l.3-3.108c.184-.065.325-.234.346-.447.02-.213-.086-.408-.255-.51l.233-2.418h1.017v1.344c0 .3.23.53.512.53h1.363c.283 0 .512-.23.512-.53v-.53h4.056c.283 0 .512-.23.512-.53 0-.29-.23-.53-.512-.53h-4.568l-.206.05c-.18.08-.305.27-.305.48v.54h-.34v-1.34c0-.29-.23-.53-.512-.53h-1.127l.006-.03c.02-.21-.086-.4-.255-.5l.29-3.06c.18-.06.32-.23.34-.44.02-.21-.09-.41-.26-.51l.29-3.05c.18-.06.32-.23.34-.44.02-.21-.09-.41-.26-.51l.29-3.06c.18-.06.32-.23.34-.44.02-.21-.08-.4-.25-.51l.39-4.11c.06-.58-.35-1.09-.91-1.15l-.55-.05.24-2.5c.052-.58-.358-1.1-.92-1.156l-6.95-.71c-.27-.03-.54.054-.75.23-.21.174-.35.43-.37.71l-.24 2.5-.55-.057c-.27-.026-.54.06-.75.24-.21.173-.34.43-.37.71l-.39 4.11c-.19.064-.33.233-.35.45-.02.21.09.41.26.51l-.298 3.05c-.18.064-.32.234-.34.45-.02.21.08.41.25.51l-.29 3.06c-.18.063-.32.23-.34.45-.02.21.082.4.25.51l-.296 3.05-.124.067c-1.72.37-2.99 1.22-3.31 2.28H5.09c-.28 0-.51.24-.51.53v2.44H1.71c-.28 0-.51.23-.51.522 0 .296.227.53.51.53h3.38c.283 0 .512-.234.512-.53V104h1.97c.284 0 .513-.237.513-.53 0-.665.916-1.386 2.377-1.735l-.276 2.878c-.182.066-.324.235-.344.45-.02.215.085.41.254.51l-.42 4.35H2.06c-.563 0-1.02.47-1.02 1.055S1.497 112 2.062 112H30c.564 0 1.022-.47 1.022-1.054 0-.584-.458-1.056-1.023-1.056zM14.382 98.358c-.26-.026-.494.17-.52.44l-.153 1.588.94.097.15-1.59c.02-.268-.17-.508-.43-.535zm2.917.792c.02-.27-.17-.51-.43-.536-.26-.027-.5.17-.52.44l-.16 1.588.94.096.15-1.588zm2.49.255c.02-.27-.17-.51-.43-.536-.26-.03-.5.17-.52.43l-.16 1.59.94.09.15-1.59zm-5.03-5.05c-.26-.026-.5.17-.52.44l-.15 1.59.94.095.15-1.588c.02-.27-.17-.51-.43-.537zm2.49.256c-.26-.02-.5.17-.52.44l-.16 1.59.94.1.15-1.59c.02-.27-.17-.51-.43-.53zm2.49.26c-.26-.02-.5.17-.52.44l-.15 1.59.94.1.15-1.59c.02-.27-.17-.51-.43-.53zm-4.6-4.51c-.26-.02-.5.17-.52.44l-.16 1.59.94.1.15-1.59c.02-.26-.17-.5-.43-.53zm2.49.26c-.26-.02-.5.17-.52.44l-.15 1.59.94.1.15-1.59c.02-.27-.17-.51-.43-.53zm2.49.26c-.26-.02-.49.17-.52.44l-.15 1.59.94.1.15-1.59c.02-.27-.17-.51-.43-.53zm-6.13 11.5c-.26-.03-.5.17-.52.44l-.15 1.59.94.1.15-1.59c.02-.27-.17-.51-.43-.53zm2.49.26c-.26-.02-.5.17-.52.44l-.15 1.59.94.1.15-1.59c.02-.27-.17-.51-.43-.53zm2.49.26c-.26-.02-.5.17-.52.44l-.16 1.59.94.1.15-1.59c.02-.27-.17-.51-.43-.54zm-3.44-16.53c-.27-.02-.5.17-.52.44l-.16 1.59.94.1.15-1.59c.02-.26-.17-.5-.43-.53zm2.49.26c-.26-.02-.5.17-.52.44l-.16 1.59.94.1.15-1.59c.02-.26-.17-.5-.43-.53zm2.49.26c-.27-.02-.5.17-.52.44l-.16 1.59.94.1.15-1.59c.02-.27-.17-.51-.43-.53zm-2.8 20.26c-.47-.05-.89.31-.94.79l-.19 1.98h-1.32l-.3-.03.2-2.11c.04-.48-.3-.91-.77-.96-.47-.05-.89.31-.94.79l-.2 2.11-1.53-.15.36-3.73 8.05.83-.32 3.27H18.3l.17-1.8c.046-.48-.297-.91-.766-.96zm-4.45-13.37l8.05.83-.29 2.96-8.05-.82.28-2.96zm.38-4.01l8.05.83-.29 2.97-8.05-.82.28-2.96zm.39-4.06l8.05.83-.29 3.01-8.05-.82.29-3.01zm6.9 12.91l-.29 2.97-7.82-.8c-.05-.1-.12-.19-.21-.24l.26-2.742 8.05.83zm-8.44 3.19l8.05.83-.29 2.97-8.05-.82.28-2.96zm3.45-19.5l4.91.51-.14 1.45-.74-.07.06-.68c.02-.27-.17-.51-.43-.53-.26-.02-.5.17-.52.44l-.07.68-1.55-.16.06-.68c.02-.26-.17-.5-.43-.53-.26-.02-.5.17-.52.44l-.07.68-.74-.07.14-1.45zM1.41 91.4c.25.23.575.356.91.356h1.34l-.012.175c0 .35.14.69.4.92.22.2.5.31.79.31h4.18c.66 0 1.19-.55 1.19-1.23 0-.68-.537-1.23-1.19-1.23h-.2c.03-.12.043-.24.043-.37 0-.78-.62-1.42-1.38-1.42H2.31c-.333 0-.657.13-.91.36-.3.27-.47.66-.47 1.07 0 .41.173.8.47 1.07zm.676-1.345c.046-.043.125-.092.235-.092h5.17c.2 0 .36.17.36.37 0 .205-.16.37-.35.37-.28 0-.51.237-.51.53 0 .29.23.527.51.527h1.53c.1 0 .17.072.17.17 0 .095-.07.173-.17.173H4.84l-.11-.044-.058-.13.058-.13.11-.05h.004c.282 0 .512-.24.512-.53 0-.3-.23-.53-.512-.53h-2.52c-.11 0-.19-.05-.236-.09-.046-.05-.122-.14-.122-.28 0-.15.076-.24.122-.28z" fill="#fff"/><path d="M29.996 69.88h-8.084l.3-3.108c.184-.065.325-.234.346-.447.02-.213-.086-.408-.255-.51l.233-2.418h1.017v1.344c0 .3.23.53.512.53h1.363c.283 0 .512-.23.512-.53v-.53h4.056c.283 0 .512-.23.512-.53 0-.29-.23-.53-.512-.53h-4.568l-.206.05c-.18.08-.305.27-.305.48v.54h-.34v-1.35c0-.29-.23-.53-.512-.53h-1.127l.006-.03c.02-.21-.086-.4-.255-.5l.29-3.06c.18-.06.32-.23.34-.44.02-.21-.09-.41-.26-.51l.29-3.05c.18-.06.32-.23.34-.44.02-.21-.09-.41-.26-.51l.29-3.06c.18-.06.32-.23.34-.44.02-.21-.08-.4-.25-.51l.39-4.11c.06-.58-.35-1.09-.91-1.15l-.55-.05.24-2.51c.052-.58-.358-1.1-.92-1.16l-6.95-.71c-.27-.03-.54.06-.75.237-.21.18-.35.435-.37.714l-.24 2.5-.55-.056c-.27-.03-.54.06-.75.23-.21.18-.34.437-.37.715l-.39 4.11c-.19.066-.33.235-.35.45-.02.212.09.41.26.51l-.298 3.056c-.18.067-.32.237-.34.45-.02.21.08.406.25.507l-.29 3.056c-.18.07-.32.24-.34.45-.02.216.082.41.25.51l-.296 3.06-.124.063c-1.72.367-2.99 1.22-3.31 2.28H5.09c-.28 0-.51.24-.51.53v2.43H1.71c-.28 0-.51.24-.51.53 0 .29.227.53.51.53h3.38c.283 0 .512-.238.512-.53V64h1.97c.284 0 .513-.235.513-.53 0-.663.916-1.384 2.377-1.733l-.276 2.876c-.182.064-.324.233-.344.447-.02.216.085.41.254.51l-.42 4.35H2.06c-.563 0-1.02.47-1.02 1.056S1.497 72 2.062 72H30c.564 0 1.022-.47 1.022-1.05 0-.586-.458-1.058-1.023-1.058zM14.382 58.358c-.26-.026-.494.17-.52.44l-.153 1.588.94.097.15-1.59c.02-.268-.17-.508-.43-.535zm2.917.792c.02-.27-.17-.51-.43-.536-.26-.027-.5.17-.52.44l-.15 1.586.94.096.15-1.588zm2.49.255c.02-.27-.17-.51-.43-.536-.26-.03-.5.17-.52.43l-.16 1.59.94.09.15-1.59zm-5.03-5.05c-.26-.026-.5.17-.52.44l-.15 1.59.94.095.15-1.588c.02-.27-.17-.51-.43-.537zm2.49.256c-.26-.02-.5.17-.52.44l-.16 1.59.94.1.15-1.59c.02-.27-.17-.51-.43-.53zm2.49.26c-.26-.02-.5.17-.52.44l-.15 1.59.94.1.15-1.59c.02-.27-.17-.51-.43-.53zm-4.6-4.51c-.26-.02-.5.17-.52.44l-.16 1.59.94.1.15-1.59c.02-.26-.17-.5-.43-.53zm2.49.26c-.26-.02-.5.17-.52.44l-.15 1.59.94.1.15-1.59c.02-.27-.17-.51-.43-.53zm2.49.26c-.26-.02-.49.17-.52.44l-.15 1.59.94.1.15-1.59c.02-.27-.17-.51-.43-.53zM14 62.37c-.26-.03-.494.17-.52.44l-.152 1.583.945.1.154-1.59c.026-.27-.165-.51-.426-.53zm2.49.25c-.26-.026-.493.17-.52.44l-.152 1.59.946.094.153-1.585c.026-.27-.165-.51-.426-.54zm2.492.255c-.26-.026-.494.17-.52.44l-.152 1.59.945.095.153-1.59c.026-.268-.165-.508-.426-.535zM15.537 46.35c-.262-.025-.494.17-.52.44l-.153 1.59.945.096.15-1.59c.02-.268-.17-.508-.43-.535zm2.49.256c-.26-.027-.493.17-.518.44l-.16 1.588.94.096.15-1.59c.02-.268-.17-.508-.43-.535zm2.492.255c-.27-.02-.5.17-.52.44l-.16 1.59.94.1.15-1.59c.02-.27-.17-.51-.43-.53zm-2.8 20.26c-.47-.04-.89.31-.94.79l-.19 1.98h-1.32l-.3-.03.2-2.11c.04-.48-.3-.91-.77-.96-.47-.05-.89.31-.94.79l-.2 2.11-1.52-.15.36-3.73 8.05.83-.32 3.27H18.3l.17-1.8c.048-.48-.295-.91-.764-.96zm-4.45-13.37l8.05.83-.29 2.97-8.05-.82.28-2.96zm.38-4.01l8.05.83-.29 2.97-8.05-.82.28-2.96zm.39-4.06l8.05.83-.29 3.01-8.05-.82.29-3.01zm6.89 12.92l-.29 2.97-7.82-.8c-.05-.1-.12-.18-.21-.24l.26-2.74 8.05.83zm-8.43 3.18l8.05.83-.29 2.97-8.05-.82.28-2.96zm3.45-19.5l4.91.51-.14 1.45-.74-.07.06-.68c.02-.27-.17-.51-.43-.53-.26-.02-.5.17-.52.44l-.07.68-1.55-.16.06-.68c.02-.26-.17-.5-.43-.53-.26-.02-.5.17-.52.44l-.07.68-.74-.07.14-1.45zM1.41 51.4c.252.23.576.357.912.357h1.34l-.013.175c0 .35.14.684.4.92.22.2.5.306.79.306h4.18c.66 0 1.19-.553 1.19-1.23 0-.68-.54-1.23-1.19-1.23h-.2c.03-.12.04-.243.04-.37 0-.786-.62-1.425-1.38-1.425H2.31c-.333 0-.657.13-.91.36-.3.27-.47.66-.47 1.07 0 .41.173.8.47 1.07zm.677-1.344c.046-.043.125-.092.235-.092h5.17c.196 0 .356.17.356.37 0 .205-.16.37-.357.37-.28 0-.51.237-.51.53 0 .29.23.527.51.527h1.53c.1 0 .17.07.17.17 0 .09-.07.17-.17.17H4.84l-.11-.04-.058-.13.058-.13.11-.04h.004c.282 0 .512-.23.512-.53 0-.29-.23-.53-.512-.53h-2.52c-.11 0-.19-.05-.236-.09-.046-.04-.122-.13-.122-.27s.076-.23.122-.28z" fill="#67737B"/><path d="M29.996 29.88h-8.084l.3-3.108c.184-.065.325-.234.346-.447.02-.213-.086-.408-.255-.51l.233-2.418h1.017v1.344c0 .3.23.53.512.53h1.363c.283 0 .512-.23.512-.53v-.53h4.056c.283 0 .512-.23.512-.53 0-.29-.23-.53-.512-.53h-4.568l-.206.05c-.18.08-.305.27-.305.48v.54h-.34v-1.35c0-.29-.23-.53-.512-.53h-1.127l.006-.03c.02-.21-.086-.4-.255-.5l.29-3.06c.18-.06.32-.23.34-.44.02-.21-.09-.41-.26-.51l.29-3.05c.18-.06.32-.23.34-.44.02-.21-.09-.41-.26-.51l.29-3.06c.18-.06.32-.23.34-.44.02-.21-.08-.4-.25-.51l.39-4.11c.06-.58-.35-1.09-.91-1.15l-.55-.05.24-2.51c.052-.58-.358-1.1-.92-1.16L15.15.07c-.27-.027-.54.058-.75.235-.21.177-.342.434-.37.713l-.24 2.5-.547-.057c-.27-.02-.54.06-.75.24-.21.18-.34.44-.37.71l-.392 4.11c-.18.07-.32.24-.34.45-.02.22.09.41.26.51l-.29 3.06c-.18.07-.32.24-.34.45-.02.22.09.41.26.51l-.29 3.06c-.18.07-.33.24-.35.45-.02.22.09.41.26.51l-.29 3.06-.12.07c-1.73.36-2.99 1.21-3.31 2.28H5.09c-.28 0-.51.24-.51.53v2.44H1.71c-.28 0-.51.24-.51.53 0 .29.228.53.51.53h3.38c.284 0 .513-.23.513-.53v-2.44h1.97c.284 0 .513-.23.513-.53 0-.66.915-1.38 2.376-1.73l-.277 2.88c-.182.07-.324.24-.344.45-.02.22.09.41.26.51l-.42 4.35H2.06c-.563 0-1.02.48-1.02 1.06S1.497 32 2.062 32H30c.564 0 1.022-.473 1.022-1.056 0-.586-.458-1.058-1.023-1.058zM14.382 18.358c-.26-.026-.494.17-.52.44l-.153 1.588.94.097.15-1.59c.02-.268-.17-.508-.43-.535zm2.917.792c.02-.27-.17-.51-.43-.536-.26-.027-.5.17-.52.44l-.15 1.586.94.096.15-1.588zm2.49.255c.02-.27-.17-.51-.43-.536-.26-.03-.5.17-.52.43l-.16 1.59.94.09.15-1.59zm-5.03-5.05c-.26-.026-.5.17-.52.44l-.15 1.59.94.095.15-1.588c.02-.27-.17-.51-.43-.537zm2.49.256c-.26-.02-.5.17-.52.44l-.16 1.59.94.1.15-1.59c.02-.27-.17-.51-.43-.53zm2.49.26c-.26-.02-.5.17-.52.44l-.15 1.59.94.1.15-1.59c.02-.27-.17-.51-.43-.53zm-4.6-4.51c-.26-.02-.5.17-.52.44l-.16 1.59.94.1.15-1.59c.02-.26-.17-.5-.43-.53zm2.49.26c-.26-.02-.5.17-.52.44l-.15 1.59.94.1.15-1.59c.02-.27-.17-.51-.43-.53zm2.49.26c-.26-.02-.49.17-.52.44l-.15 1.59.94.1.15-1.59c.02-.27-.17-.51-.43-.53zM14 22.37c-.26-.03-.494.17-.52.44l-.152 1.583.945.1.154-1.59c.026-.27-.165-.51-.426-.53zm2.49.25c-.26-.026-.493.17-.52.44l-.152 1.59.946.094.153-1.585c.026-.27-.165-.51-.426-.54zm2.492.255c-.26-.026-.494.17-.52.44l-.152 1.59.945.095.153-1.59c.026-.268-.165-.508-.426-.535zM15.537 6.35c-.262-.025-.494.17-.52.44l-.153 1.59.945.096.15-1.59c.02-.268-.17-.508-.43-.535zm2.49.256c-.26-.027-.493.17-.518.44l-.16 1.588.94.096.15-1.59c.02-.268-.17-.508-.43-.535zm2.492.255c-.27-.02-.5.17-.52.44l-.16 1.59.94.1.15-1.59c.02-.27-.17-.51-.43-.53zm-2.8 20.26c-.47-.04-.89.31-.94.79l-.19 1.98h-1.32l-.3-.03.2-2.11c.04-.48-.3-.91-.77-.96-.47-.05-.89.31-.94.79l-.2 2.11-1.52-.15.36-3.73 8.05.83-.32 3.27H18.3l.17-1.8c.048-.48-.295-.91-.764-.96zm-4.45-13.37l8.05.83-.29 2.97-8.05-.82.28-2.96zm.38-4.01l8.05.83-.29 2.97-8.05-.82.28-2.96zm.39-4.06l8.05.83-.29 3.01-8.05-.82.29-3.01zm6.89 12.92l-.29 2.97-7.82-.8c-.05-.1-.12-.18-.21-.24l.26-2.74 8.05.83zm-8.43 3.18l8.05.83-.29 2.97-8.05-.82.28-2.96zm3.45-19.5l4.91.51-.14 1.45-.74-.07.06-.68c.02-.27-.17-.51-.43-.53-.26-.02-.5.17-.52.44l-.07.68-1.55-.16.06-.68c.02-.26-.17-.5-.43-.53-.26-.02-.5.17-.52.44l-.07.68-.74-.07.14-1.45zM1.41 11.4c.252.23.576.357.912.357h1.34l-.013.175c0 .35.14.684.4.92.22.2.5.306.79.306h4.18c.66 0 1.19-.553 1.19-1.23 0-.68-.54-1.23-1.19-1.23h-.2c.03-.12.04-.243.04-.37 0-.786-.62-1.425-1.38-1.425H2.31c-.333 0-.657.13-.91.36-.3.27-.47.66-.47 1.07 0 .41.173.8.47 1.07zm.677-1.344c.046-.043.125-.092.235-.092h5.17c.196 0 .356.17.356.37 0 .205-.16.37-.357.37-.28 0-.51.237-.51.53 0 .29.23.527.51.527h1.53c.1 0 .17.07.17.17 0 .09-.07.17-.17.17H4.84l-.11-.04-.058-.13.058-.13.11-.04h.004c.282 0 .512-.23.512-.53 0-.29-.23-.53-.512-.53h-2.52c-.11 0-.19-.05-.236-.09-.046-.04-.122-.13-.122-.27s.076-.23.122-.28z" fill="#3A434E"/></g></svg>