<svg width="32" height="232" viewBox="0 0 32 232" xmlns="http://www.w3.org/2000/svg"><g fill="none">
			<path id="XMLID_1040_" fill="#3A444F" d="M26.7,20.3c-0.1-0.3-0.3-0.4-0.6-0.3h0l0,0c-0.1,0-0.2,0-0.3,0h0
				c-0.7,0-1.7-0.6-2.1-0.9l-1.3-4.8c1.3-0.5,2.2-1.7,2.4-3c0-0.1,0.1-0.1,0.1-0.2c0,0,0-0.1,0-0.1c0-0.5,0-0.9-0.1-1.4c0,0,0,0,0,0
				l-1.5-4.9c-0.1-0.2-0.3-0.4-0.6-0.3L16.2,6c-0.1,0-0.1,0-0.2,0.1c0,0-0.1-0.1-0.2-0.1L9.4,4.2C9.2,4.2,8.9,4.3,8.8,4.6L7.3,9.5
				c0,0,0,0,0,0c-0.1,0.5-0.2,1.1-0.1,1.6c0,0,0,0,0,0c0.2,1.4,1.1,2.6,2.4,3.1L8.3,19C7.9,19.4,6.9,20,6.2,20c-0.1,0-0.2,0-0.3,0
				l0,0h0c-0.3-0.1-0.5,0.1-0.6,0.3c-0.1,0.3,0.1,0.5,0.3,0.6l5,1.4c0,0,0,0,0,0c0,0,0.1,0,0.1,0c0,0,0,0,0,0c0.3,0,0.5-0.2,0.5-0.5
				c0-0.2-0.2-0.4-0.4-0.5c-0.5-0.2-1.2-1.2-1.6-2l1.3-4.8c0.2,0,0.4,0,0.6,0c1.8,0,3.4-1.2,3.8-2.9c0,0,0,0,0,0l1-4.2l1,4.2
				c0,0,0,0,0,0c0.5,1.7,2,2.9,3.8,2.9c0.2,0,0.4,0,0.6,0l1.3,4.8c-0.3,0.7-1.1,1.8-1.6,2c-0.3,0.1-0.4,0.3-0.3,0.6
				c0.1,0.2,0.3,0.4,0.5,0.4c0,0,0.1,0,0.1,0c0,0,0,0,0,0l5-1.4C26.6,20.8,26.8,20.5,26.7,20.3z M23.4,20c0.2,0.1,0.4,0.3,0.7,0.4
				L23,20.8C23.2,20.5,23.3,20.3,23.4,20z M22.4,5.3l1.4,4.5c0.1,0.3,0.1,0.5,0.1,0.8h-6.1l-0.9-3.7L22.4,5.3z M23.7,11.5
				c-0.3,0.9-1.1,1.7-2.1,2c-0.3,0.1-0.5,0.1-0.8,0.1c-1.3,0-2.4-0.8-2.9-2.1H23.7z M10.3,13.5c-1-0.3-1.8-1-2.1-2H14
				c-0.4,1.2-1.6,2.1-2.9,2.1C10.9,13.6,10.6,13.5,10.3,13.5z M14.2,10.6H8.1c0-0.3,0-0.5,0.1-0.8l1.4-4.5l5.5,1.5L14.2,10.6z
				 M7.9,20.5c0.3-0.1,0.5-0.3,0.7-0.4c0.1,0.2,0.3,0.5,0.4,0.7L7.9,20.5z"/>
			<path id="XMLID_1039_" fill="#3A444F" d="M16,4.6c0.3,0,0.5-0.2,0.5-0.5V1.5C16.5,1.2,16.3,1,16,1c-0.3,0-0.5,0.2-0.5,0.5v2.7
				C15.5,4.4,15.7,4.6,16,4.6z"/>
			<path id="XMLID_1038_" fill="#3A444F" d="M17.4,4.6c0.1,0,0.3-0.1,0.4-0.2L19,3.1c0.2-0.2,0.2-0.5,0-0.7c-0.2-0.2-0.5-0.2-0.7,0
				l-1.3,1.4c-0.2,0.2-0.2,0.5,0,0.7C17.2,4.6,17.3,4.6,17.4,4.6z"/>
			<path id="XMLID_1037_" fill="#3A444F" d="M14.2,4.5c0.1,0.1,0.2,0.2,0.4,0.2c0.1,0,0.2,0,0.3-0.1c0.2-0.2,0.2-0.5,0-0.7l-1.3-1.4
				c-0.2-0.2-0.5-0.2-0.7,0c-0.2,0.2-0.2,0.5,0,0.7L14.2,4.5z"/>
			<path id="XMLID_1033_" fill="#3A444F" d="M19.6,16.4C19.6,16.3,19.6,16.3,19.6,16.4C19.6,16.3,19.6,16.3,19.6,16.4
				c0-0.1,0-0.1,0-0.2c0,0,0,0,0,0c0,0,0,0,0-0.1c0,0,0,0,0,0c0,0,0,0,0-0.1c0,0,0,0,0,0c0,0,0,0-0.1,0c0,0,0,0,0,0c0,0,0,0,0,0
				c0,0,0,0-0.1,0c0,0,0,0,0,0c0,0-0.1,0-0.1,0c0,0,0,0,0,0l-3.6-0.5c-0.2,0-0.3,0-0.4,0.2l-2.8,3.3c0,0,0,0,0,0c0,0,0,0,0,0.1
				c0,0,0,0,0,0c0,0,0,0,0,0.1c0,0,0,0,0,0c0,0,0,0.1,0,0.1c0,0,0,0,0,0c0,0,0,0,0,0v3.1c0,0.1,0.1,0.3,0.2,0.4
				c0.1,0.1,0.2,0.1,0.3,0.1c0,0,0.1,0,0.1,0l6.4-1.6c0.2-0.1,0.4-0.2,0.4-0.5L19.6,16.4C19.6,16.4,19.6,16.4,19.6,16.4
				C19.6,16.4,19.6,16.4,19.6,16.4z M17.4,16.7L14.4,18l1.3-1.5L17.4,16.7z M13.2,19.6l5.4-2.4v3.3l-5.4,1.3V19.6z"/>
		</g>
		<g id="XMLID_1402_">
			<path id="XMLID_1410_" fill="#67737C" d="M26.7,60.3c-0.1-0.3-0.3-0.4-0.6-0.3h0l0,0c-0.1,0-0.2,0-0.3,0h0
				c-0.7,0-1.7-0.6-2.1-0.9l-1.3-4.8c1.3-0.5,2.2-1.7,2.4-3c0-0.1,0.1-0.1,0.1-0.2c0,0,0-0.1,0-0.1c0-0.5,0-0.9-0.1-1.4c0,0,0,0,0,0
				l-1.5-4.9c-0.1-0.2-0.3-0.4-0.6-0.3L16.2,46c-0.1,0-0.1,0-0.2,0.1c0,0-0.1-0.1-0.2-0.1l-6.4-1.8c-0.2-0.1-0.5,0.1-0.6,0.3
				l-1.5,4.9c0,0,0,0,0,0c-0.1,0.5-0.2,1.1-0.1,1.6c0,0,0,0,0,0c0.2,1.4,1.1,2.6,2.4,3.1L8.3,59C7.9,59.4,6.9,60,6.2,60
				c-0.1,0-0.2,0-0.3,0l0,0h0c-0.3-0.1-0.5,0.1-0.6,0.3c-0.1,0.3,0.1,0.5,0.3,0.6l5,1.4c0,0,0,0,0,0c0,0,0.1,0,0.1,0c0,0,0,0,0,0
				c0.3,0,0.5-0.2,0.5-0.5c0-0.2-0.2-0.4-0.4-0.5c-0.5-0.2-1.2-1.2-1.6-2l1.3-4.8c0.2,0,0.4,0,0.6,0c1.8,0,3.4-1.2,3.8-2.9
				c0,0,0,0,0,0l1-4.2l1,4.2c0,0,0,0,0,0c0.5,1.7,2,2.9,3.8,2.9c0.2,0,0.4,0,0.6,0l1.3,4.8c-0.3,0.7-1.1,1.8-1.6,2
				c-0.3,0.1-0.4,0.3-0.3,0.6c0.1,0.2,0.3,0.4,0.5,0.4c0,0,0.1,0,0.1,0c0,0,0,0,0,0l5-1.4C26.6,60.8,26.8,60.5,26.7,60.3z M23.4,60
				c0.2,0.1,0.4,0.3,0.7,0.4L23,60.8C23.2,60.5,23.3,60.3,23.4,60z M22.4,45.3l1.4,4.5c0.1,0.3,0.1,0.5,0.1,0.8h-6.1l-0.9-3.7
				L22.4,45.3z M23.7,51.5c-0.3,0.9-1.1,1.7-2.1,2c-0.3,0.1-0.5,0.1-0.8,0.1c-1.3,0-2.4-0.8-2.9-2.1H23.7z M10.3,53.5
				c-1-0.3-1.8-1-2.1-2H14c-0.4,1.2-1.6,2.1-2.9,2.1C10.9,53.6,10.6,53.5,10.3,53.5z M14.2,50.6H8.1c0-0.3,0-0.5,0.1-0.8l1.4-4.5
				l5.5,1.5L14.2,50.6z M7.9,60.5c0.3-0.1,0.5-0.3,0.7-0.4c0.1,0.2,0.3,0.5,0.4,0.7L7.9,60.5z"/>
			<path id="XMLID_1409_" fill="#67737C" d="M16,44.6c0.3,0,0.5-0.2,0.5-0.5v-2.7c0-0.3-0.2-0.5-0.5-0.5c-0.3,0-0.5,0.2-0.5,0.5v2.7
				C15.5,44.4,15.7,44.6,16,44.6z"/>
			<path id="XMLID_1408_" fill="#67737C" d="M17.4,44.6c0.1,0,0.3-0.1,0.4-0.2l1.3-1.4c0.2-0.2,0.2-0.5,0-0.7
				c-0.2-0.2-0.5-0.2-0.7,0l-1.3,1.4c-0.2,0.2-0.2,0.5,0,0.7C17.2,44.6,17.3,44.6,17.4,44.6z"/>
			<path id="XMLID_1407_" fill="#67737C" d="M14.2,44.5c0.1,0.1,0.2,0.2,0.4,0.2c0.1,0,0.2,0,0.3-0.1c0.2-0.2,0.2-0.5,0-0.7
				l-1.3-1.4c-0.2-0.2-0.5-0.2-0.7,0c-0.2,0.2-0.2,0.5,0,0.7L14.2,44.5z"/>
			<path id="XMLID_1403_" fill="#67737C" d="M19.6,56.4C19.6,56.3,19.6,56.3,19.6,56.4C19.6,56.3,19.6,56.3,19.6,56.4
				c0-0.1,0-0.1,0-0.2c0,0,0,0,0,0c0,0,0,0,0-0.1c0,0,0,0,0,0c0,0,0,0,0-0.1c0,0,0,0,0,0c0,0,0,0-0.1,0c0,0,0,0,0,0c0,0,0,0,0,0
				c0,0,0,0-0.1,0c0,0,0,0,0,0c0,0-0.1,0-0.1,0c0,0,0,0,0,0l-3.6-0.5c-0.2,0-0.3,0-0.4,0.2l-2.8,3.3c0,0,0,0,0,0c0,0,0,0,0,0.1
				c0,0,0,0,0,0c0,0,0,0,0,0.1c0,0,0,0,0,0c0,0,0,0.1,0,0.1c0,0,0,0,0,0c0,0,0,0,0,0v3.1c0,0.1,0.1,0.3,0.2,0.4
				c0.1,0.1,0.2,0.1,0.3,0.1c0,0,0.1,0,0.1,0l6.4-1.6c0.2-0.1,0.4-0.2,0.4-0.5L19.6,56.4C19.6,56.4,19.6,56.4,19.6,56.4
				C19.6,56.4,19.6,56.4,19.6,56.4z M17.4,56.7L14.4,58l1.3-1.5L17.4,56.7z M13.2,59.6l5.4-2.4v3.3l-5.4,1.3V59.6z"/>
		</g>
		<g id="XMLID_1596_">
			<path id="XMLID_1604_" fill="#FFFFFF" d="M26.7,100.3c-0.1-0.3-0.3-0.4-0.6-0.3h0l0,0c-0.1,0-0.2,0-0.3,0h0
				c-0.7,0-1.7-0.6-2.1-0.9l-1.3-4.8c1.3-0.5,2.2-1.7,2.4-3c0-0.1,0.1-0.1,0.1-0.2c0,0,0-0.1,0-0.1c0-0.5,0-0.9-0.1-1.4c0,0,0,0,0,0
				l-1.5-4.9c-0.1-0.2-0.3-0.4-0.6-0.3L16.2,86c-0.1,0-0.1,0-0.2,0.1c0,0-0.1-0.1-0.2-0.1l-6.4-1.8c-0.2-0.1-0.5,0.1-0.6,0.3
				l-1.5,4.9c0,0,0,0,0,0c-0.1,0.5-0.2,1.1-0.1,1.6c0,0,0,0,0,0c0.2,1.4,1.1,2.6,2.4,3.1L8.3,99c-0.4,0.3-1.4,0.9-2.1,0.9
				c-0.1,0-0.2,0-0.3,0l0,0h0c-0.3-0.1-0.5,0.1-0.6,0.3c-0.1,0.3,0.1,0.5,0.3,0.6l5,1.4c0,0,0,0,0,0c0,0,0.1,0,0.1,0c0,0,0,0,0,0
				c0.3,0,0.5-0.2,0.5-0.5c0-0.2-0.2-0.4-0.4-0.5c-0.5-0.2-1.2-1.2-1.6-2l1.3-4.8c0.2,0,0.4,0,0.6,0c1.8,0,3.4-1.2,3.8-2.9
				c0,0,0,0,0,0l1-4.2l1,4.2c0,0,0,0,0,0c0.5,1.7,2,2.9,3.8,2.9c0.2,0,0.4,0,0.6,0l1.3,4.8c-0.3,0.7-1.1,1.8-1.6,2
				c-0.3,0.1-0.4,0.3-0.3,0.6c0.1,0.2,0.3,0.4,0.5,0.4c0,0,0.1,0,0.1,0c0,0,0,0,0,0l5-1.4C26.6,100.8,26.8,100.5,26.7,100.3z
				 M23.4,100c0.2,0.1,0.4,0.3,0.7,0.4l-1.2,0.3C23.2,100.5,23.3,100.3,23.4,100z M22.4,85.3l1.4,4.5c0.1,0.3,0.1,0.5,0.1,0.8h-6.1
				l-0.9-3.7L22.4,85.3z M23.7,91.5c-0.3,0.9-1.1,1.7-2.1,2c-0.3,0.1-0.5,0.1-0.8,0.1c-1.3,0-2.4-0.8-2.9-2.1H23.7z M10.3,93.5
				c-1-0.3-1.8-1-2.1-2H14c-0.4,1.2-1.6,2.1-2.9,2.1C10.9,93.6,10.6,93.5,10.3,93.5z M14.2,90.6H8.1c0-0.3,0-0.5,0.1-0.8l1.4-4.5
				l5.5,1.5L14.2,90.6z M7.9,100.5c0.3-0.1,0.5-0.3,0.7-0.4c0.1,0.2,0.3,0.5,0.4,0.7L7.9,100.5z"/>
			<path id="XMLID_1603_" fill="#FFFFFF" d="M16,84.6c0.3,0,0.5-0.2,0.5-0.5v-2.7c0-0.3-0.2-0.5-0.5-0.5c-0.3,0-0.5,0.2-0.5,0.5v2.7
				C15.5,84.4,15.7,84.6,16,84.6z"/>
			<path id="XMLID_1602_" fill="#FFFFFF" d="M17.4,84.6c0.1,0,0.3-0.1,0.4-0.2l1.3-1.4c0.2-0.2,0.2-0.5,0-0.7
				c-0.2-0.2-0.5-0.2-0.7,0l-1.3,1.4c-0.2,0.2-0.2,0.5,0,0.7C17.2,84.6,17.3,84.6,17.4,84.6z"/>
			<path id="XMLID_1601_" fill="#FFFFFF" d="M14.2,84.5c0.1,0.1,0.2,0.2,0.4,0.2c0.1,0,0.2,0,0.3-0.1c0.2-0.2,0.2-0.5,0-0.7
				l-1.3-1.4c-0.2-0.2-0.5-0.2-0.7,0c-0.2,0.2-0.2,0.5,0,0.7L14.2,84.5z"/>
			<path id="XMLID_1597_" fill="#FFFFFF" d="M19.6,96.4C19.6,96.3,19.6,96.3,19.6,96.4C19.6,96.3,19.6,96.3,19.6,96.4
				c0-0.1,0-0.1,0-0.2c0,0,0,0,0,0c0,0,0,0,0-0.1c0,0,0,0,0,0c0,0,0,0,0-0.1c0,0,0,0,0,0c0,0,0,0-0.1,0c0,0,0,0,0,0c0,0,0,0,0,0
				c0,0,0,0-0.1,0c0,0,0,0,0,0c0,0-0.1,0-0.1,0c0,0,0,0,0,0l-3.6-0.5c-0.2,0-0.3,0-0.4,0.2l-2.8,3.3c0,0,0,0,0,0c0,0,0,0,0,0.1
				c0,0,0,0,0,0c0,0,0,0,0,0.1c0,0,0,0,0,0c0,0,0,0.1,0,0.1c0,0,0,0,0,0c0,0,0,0,0,0v3.1c0,0.1,0.1,0.3,0.2,0.4
				c0.1,0.1,0.2,0.1,0.3,0.1c0,0,0.1,0,0.1,0l6.4-1.6c0.2-0.1,0.4-0.2,0.4-0.5L19.6,96.4C19.6,96.4,19.6,96.4,19.6,96.4
				C19.6,96.4,19.6,96.4,19.6,96.4z M17.4,96.7L14.4,98l1.3-1.5L17.4,96.7z M13.2,99.6l5.4-2.4v3.3l-5.4,1.3V99.6z"/>
		</g>
		<g id="XMLID_1764_">
			<path id="XMLID_1772_" fill="#1D70AD" d="M26.7,140.3c-0.1-0.3-0.3-0.4-0.6-0.3h0l0,0c-0.1,0-0.2,0-0.3,0h0
				c-0.7,0-1.7-0.6-2.1-0.9l-1.3-4.8c1.3-0.5,2.2-1.7,2.4-3c0-0.1,0.1-0.1,0.1-0.2c0,0,0-0.1,0-0.1c0-0.5,0-0.9-0.1-1.4c0,0,0,0,0,0
				l-1.5-4.9c-0.1-0.2-0.3-0.4-0.6-0.3l-6.4,1.8c-0.1,0-0.1,0-0.2,0.1c0,0-0.1-0.1-0.2-0.1l-6.4-1.8c-0.2-0.1-0.5,0.1-0.6,0.3
				l-1.5,4.9c0,0,0,0,0,0c-0.1,0.5-0.2,1.1-0.1,1.6c0,0,0,0,0,0c0.2,1.4,1.1,2.6,2.4,3.1L8.3,139c-0.4,0.3-1.4,0.9-2.1,0.9
				c-0.1,0-0.2,0-0.3,0l0,0h0c-0.3-0.1-0.5,0.1-0.6,0.3c-0.1,0.3,0.1,0.5,0.3,0.6l5,1.4c0,0,0,0,0,0c0,0,0.1,0,0.1,0c0,0,0,0,0,0
				c0.3,0,0.5-0.2,0.5-0.5c0-0.2-0.2-0.4-0.4-0.5c-0.5-0.2-1.2-1.2-1.6-2l1.3-4.8c0.2,0,0.4,0,0.6,0c1.8,0,3.4-1.2,3.8-2.9
				c0,0,0,0,0,0l1-4.2l1,4.2c0,0,0,0,0,0c0.5,1.7,2,2.9,3.8,2.9c0.2,0,0.4,0,0.6,0l1.3,4.8c-0.3,0.7-1.1,1.8-1.6,2
				c-0.3,0.1-0.4,0.3-0.3,0.6c0.1,0.2,0.3,0.4,0.5,0.4c0,0,0.1,0,0.1,0c0,0,0,0,0,0l5-1.4C26.6,140.8,26.8,140.5,26.7,140.3z
				 M23.4,140c0.2,0.1,0.4,0.3,0.7,0.4l-1.2,0.3C23.2,140.5,23.3,140.3,23.4,140z M22.4,125.3l1.4,4.5c0.1,0.3,0.1,0.5,0.1,0.8h-6.1
				l-0.9-3.7L22.4,125.3z M23.7,131.5c-0.3,0.9-1.1,1.7-2.1,2c-0.3,0.1-0.5,0.1-0.8,0.1c-1.3,0-2.4-0.8-2.9-2.1H23.7z M10.3,133.5
				c-1-0.3-1.8-1-2.1-2H14c-0.4,1.2-1.6,2.1-2.9,2.1C10.9,133.6,10.6,133.5,10.3,133.5z M14.2,130.6H8.1c0-0.3,0-0.5,0.1-0.8
				l1.4-4.5l5.5,1.5L14.2,130.6z M7.9,140.5c0.3-0.1,0.5-0.3,0.7-0.4c0.1,0.2,0.3,0.5,0.4,0.7L7.9,140.5z"/>
			<path id="XMLID_1771_" fill="#1D70AD" d="M16,124.6c0.3,0,0.5-0.2,0.5-0.5v-2.7c0-0.3-0.2-0.5-0.5-0.5c-0.3,0-0.5,0.2-0.5,0.5
				v2.7C15.5,124.4,15.7,124.6,16,124.6z"/>
			<path id="XMLID_1770_" fill="#1D70AD" d="M17.4,124.6c0.1,0,0.3-0.1,0.4-0.2l1.3-1.4c0.2-0.2,0.2-0.5,0-0.7
				c-0.2-0.2-0.5-0.2-0.7,0l-1.3,1.4c-0.2,0.2-0.2,0.5,0,0.7C17.2,124.6,17.3,124.6,17.4,124.6z"/>
			<path id="XMLID_1769_" fill="#1D70AD" d="M14.2,124.5c0.1,0.1,0.2,0.2,0.4,0.2c0.1,0,0.2,0,0.3-0.1c0.2-0.2,0.2-0.5,0-0.7
				l-1.3-1.4c-0.2-0.2-0.5-0.2-0.7,0c-0.2,0.2-0.2,0.5,0,0.7L14.2,124.5z"/>
			<path id="XMLID_1765_" fill="#1D70AD" d="M19.6,136.4C19.6,136.3,19.6,136.3,19.6,136.4C19.6,136.3,19.6,136.3,19.6,136.4
				c0-0.1,0-0.1,0-0.2c0,0,0,0,0,0c0,0,0,0,0-0.1c0,0,0,0,0,0c0,0,0,0,0-0.1c0,0,0,0,0,0c0,0,0,0-0.1,0c0,0,0,0,0,0c0,0,0,0,0,0
				c0,0,0,0-0.1,0c0,0,0,0,0,0c0,0-0.1,0-0.1,0c0,0,0,0,0,0l-3.6-0.5c-0.2,0-0.3,0-0.4,0.2l-2.8,3.3c0,0,0,0,0,0c0,0,0,0,0,0.1
				c0,0,0,0,0,0c0,0,0,0,0,0.1c0,0,0,0,0,0c0,0,0,0.1,0,0.1c0,0,0,0,0,0c0,0,0,0,0,0v3.1c0,0.1,0.1,0.3,0.2,0.4
				c0.1,0.1,0.2,0.1,0.3,0.1c0,0,0.1,0,0.1,0l6.4-1.6c0.2-0.1,0.4-0.2,0.4-0.5L19.6,136.4C19.6,136.4,19.6,136.4,19.6,136.4
				C19.6,136.4,19.6,136.4,19.6,136.4z M17.4,136.7l-2.9,1.3l1.3-1.5L17.4,136.7z M13.2,139.6l5.4-2.4v3.3l-5.4,1.3V139.6z"/>
		</g>
</svg>
