<svg width="32" height="232" viewBox="0 0 32 232" xmlns="http://www.w3.org/2000/svg"><g fill="none">
		<path id="XMLID_1987_" fill="#3A444F" d="M28.3,23.4L27.9,22V19c0-0.1,0-0.2-0.1-0.3l-0.1-0.2l0.2-0.5c0-0.1,0-0.1,0-0.2v-1.4
			c0-0.1,0-0.2-0.1-0.3l-0.6-0.7c-0.1-0.1-0.3-0.2-0.4-0.1l-0.6,0.1l-0.3-0.1c-0.1,0-0.1,0-0.2,0h-4.9l-0.2-0.8
			c0-0.1-0.1-0.2-0.2-0.3L20.2,14l0.2-0.6c0-0.1,0-0.1,0-0.2l-0.1-0.7c0-0.2-0.1-0.3-0.3-0.3L19.6,12l0.1-0.3c0,0,0,0,0,0l0.2-1.3
			c0-0.1,0-0.3-0.1-0.4c-0.1-0.1-0.2-0.2-0.4-0.2l-2.6,0l-0.2-1.3c0-0.1-0.1-0.2-0.1-0.2l-0.3-0.3L16.2,7c0-0.1,0-0.1,0-0.2
			l-0.1-0.4c0-0.1,0-0.1-0.1-0.2l-0.2-0.3l0-1.2c0-0.1,0-0.1-0.1-0.2l-0.3-1.3c-0.1-0.2-0.2-0.4-0.5-0.4H4.2C4,2.8,3.9,2.9,3.8,3
			C3.7,3.1,3.7,3.3,3.7,3.4l0.5,1.4c0,0.1,0.1,0.2,0.2,0.2l0.2,1.4v3.3c-0.2,0-0.4,0.2-0.4,0.5c0,0.2,0.2,0.4,0.4,0.5v4.5
			c-0.2,0-0.4,0.2-0.4,0.5c0,0.2,0.2,0.4,0.4,0.5V22l-0.4,1.4c0,0.1,0,0.3,0.1,0.4C4.4,23.9,4.6,24,4.7,24h23.1c0,0,0,0,0,0
			c0.3,0,0.5-0.2,0.5-0.5C28.3,23.5,28.3,23.4,28.3,23.4z M20.2,16.2c0,0,0.1,0,0.1,0h5.2l0.3,0.1c0.1,0,0.2,0,0.2,0l0.5-0.1
			l0.3,0.4v1.1l-0.2,0.7c-0.1,0.1,0,0.3,0.1,0.4l0.2,0.3v2.5h-1.8v-2.5c0-0.8-0.6-1.4-1.4-1.4c-0.8,0-1.4,0.6-1.4,1.4v2.5h-1.1v-2.5
			c0-0.8-0.6-1.4-1.4-1.4c-0.8,0-1.4,0.6-1.4,1.4v2.5h-1.1v-2.5c0-0.8-0.6-1.4-1.4-1.4c-0.8,0-1.4,0.6-1.4,1.4v2.5h-1.1v-2.5
			c0-0.8-0.6-1.4-1.4-1.4c-0.8,0-1.4,0.6-1.4,1.4v2.5H9.7v-2.5c0-0.8-0.6-1.4-1.4-1.4c-0.8,0-1.4,0.6-1.4,1.4v2.5H5.6v-5.5h1.9h1.8
			h2.1h1.8h2.1H17H20.2z M24.2,19.2v2.5h-0.8v-2.5c0-0.2,0.2-0.4,0.4-0.4C24,18.8,24.2,18.9,24.2,19.2z M20.4,19.2v2.5h-0.8v-2.5
			c0-0.2,0.2-0.4,0.4-0.4C20.2,18.8,20.4,18.9,20.4,19.2z M16.5,19.2v2.5h-0.8v-2.5c0-0.2,0.2-0.4,0.4-0.4
			C16.3,18.8,16.5,18.9,16.5,19.2z M12.6,19.2v2.5h-0.8v-2.5c0-0.2,0.2-0.4,0.4-0.4C12.5,18.8,12.6,18.9,12.6,19.2z M8.8,19.2v2.5
			H7.9v-2.5c0-0.2,0.2-0.4,0.4-0.4S8.8,18.9,8.8,19.2z M7.9,15.2v-1.8c0-0.2,0.2-0.4,0.4-0.4s0.4,0.2,0.4,0.4v1.8H7.9z M11.8,15.2
			v-1.8c0-0.2,0.2-0.4,0.4-0.4c0.2,0,0.4,0.2,0.4,0.4v1.8H11.8z M15.7,15.2v-1.8c0-0.2,0.2-0.4,0.4-0.4c0.2,0,0.4,0.2,0.4,0.4v1.8
			H15.7z M16.4,10.7l2.5,0l-0.1,0.8l-0.1,0.7c0,0.2,0.1,0.4,0.3,0.5l0.5,0.2l0.1,0.3l-0.2,0.8c0,0.2,0,0.4,0.2,0.5l0.3,0.2l0.1,0.5
			h-2.4v-1.8c0-0.8-0.6-1.4-1.4-1.4c-0.8,0-1.4,0.6-1.4,1.4v1.8h-1.1v-1.8c0-0.8-0.6-1.4-1.4-1.4c-0.8,0-1.4,0.6-1.4,1.4v1.8H9.7
			v-1.8c0-0.8-0.6-1.4-1.4-1.4c-0.8,0-1.4,0.6-1.4,1.4v1.8H5.6v-4.5H16.4z M7.9,9.8v-2c0-0.2,0.2-0.4,0.4-0.4s0.4,0.2,0.4,0.4v2H7.9
			z M11.8,9.8v-2c0-0.2,0.2-0.4,0.4-0.4c0.2,0,0.4,0.2,0.4,0.4v2H11.8z M15,6.3l0.3,0.4l0,0.2l-0.2,1c0,0.1,0,0.3,0.1,0.4l0.4,0.4
			l0.2,1h-2.2v-2c0-0.8-0.6-1.4-1.4-1.4c-0.8,0-1.4,0.6-1.4,1.4v2H9.7v-2c0-0.8-0.6-1.4-1.4-1.4C7.6,6.4,7,7,7,7.7v2H5.6V6.4
			c0,0,0,0,0-0.1L5.4,5.2h9.5l0,0.9C14.9,6.1,14.9,6.2,15,6.3z M4.9,3.7h9.8l0.1,0.5H5L4.9,3.7z M5.3,23.1l0.1-0.5h2c0,0,0,0,0,0
			h1.8c0,0,0,0,0,0h2.1c0,0,0,0,0,0h1.8c0,0,0,0,0,0h2.1c0,0,0,0,0,0H17c0,0,0,0,0,0H19c0,0,0,0,0,0h1.8c0,0,0,0,0,0h2.1
			c0,0,0,0,0,0h1.8c0,0,0,0,0,0h2.3l0.1,0.5H5.3z"/>
		<path id="XMLID_2372_" fill="#67737C" d="M28.3,63.4L27.9,62V59c0-0.1,0-0.2-0.1-0.3l-0.1-0.2l0.2-0.5c0-0.1,0-0.1,0-0.2v-1.4
			c0-0.1,0-0.2-0.1-0.3l-0.6-0.7c-0.1-0.1-0.3-0.2-0.4-0.1l-0.6,0.1l-0.3-0.1c-0.1,0-0.1,0-0.2,0h-4.9l-0.2-0.8
			c0-0.1-0.1-0.2-0.2-0.3L20.2,54l0.2-0.6c0-0.1,0-0.1,0-0.2l-0.1-0.7c0-0.2-0.1-0.3-0.3-0.3L19.6,52l0.1-0.3c0,0,0,0,0,0l0.2-1.3
			c0-0.1,0-0.3-0.1-0.4c-0.1-0.1-0.2-0.2-0.4-0.2l-2.6,0l-0.2-1.3c0-0.1-0.1-0.2-0.1-0.2l-0.3-0.3l0.2-0.9c0-0.1,0-0.1,0-0.2
			l-0.1-0.4c0-0.1,0-0.1-0.1-0.2l-0.2-0.3l0-1.2c0-0.1,0-0.1-0.1-0.2l-0.3-1.3c-0.1-0.2-0.2-0.4-0.5-0.4H4.2c-0.2,0-0.3,0.1-0.4,0.2
			c-0.1,0.1-0.1,0.3-0.1,0.4l0.5,1.4c0,0.1,0.1,0.2,0.2,0.2l0.2,1.4v3.3c-0.2,0-0.4,0.2-0.4,0.5c0,0.2,0.2,0.4,0.4,0.5v4.5
			c-0.2,0-0.4,0.2-0.4,0.5c0,0.2,0.2,0.4,0.4,0.5V62l-0.4,1.4c0,0.1,0,0.3,0.1,0.4C4.4,63.9,4.6,64,4.7,64h23.1c0,0,0,0,0,0
			c0.3,0,0.5-0.2,0.5-0.5C28.3,63.5,28.3,63.4,28.3,63.4z M20.2,56.2c0,0,0.1,0,0.1,0h5.2l0.3,0.1c0.1,0,0.2,0,0.2,0l0.5-0.1
			l0.3,0.4v1.1l-0.2,0.7c-0.1,0.1,0,0.3,0.1,0.4l0.2,0.3v2.5h-1.8v-2.5c0-0.8-0.6-1.4-1.4-1.4c-0.8,0-1.4,0.6-1.4,1.4v2.5h-1.1v-2.5
			c0-0.8-0.6-1.4-1.4-1.4c-0.8,0-1.4,0.6-1.4,1.4v2.5h-1.1v-2.5c0-0.8-0.6-1.4-1.4-1.4c-0.8,0-1.4,0.6-1.4,1.4v2.5h-1.1v-2.5
			c0-0.8-0.6-1.4-1.4-1.4c-0.8,0-1.4,0.6-1.4,1.4v2.5H9.7v-2.5c0-0.8-0.6-1.4-1.4-1.4c-0.8,0-1.4,0.6-1.4,1.4v2.5H5.6v-5.5h1.9h1.8
			h2.1h1.8h2.1H17H20.2z M24.2,59.2v2.5h-0.8v-2.5c0-0.2,0.2-0.4,0.4-0.4C24,58.8,24.2,58.9,24.2,59.2z M20.4,59.2v2.5h-0.8v-2.5
			c0-0.2,0.2-0.4,0.4-0.4C20.2,58.8,20.4,58.9,20.4,59.2z M16.5,59.2v2.5h-0.8v-2.5c0-0.2,0.2-0.4,0.4-0.4
			C16.3,58.8,16.5,58.9,16.5,59.2z M12.6,59.2v2.5h-0.8v-2.5c0-0.2,0.2-0.4,0.4-0.4C12.5,58.8,12.6,58.9,12.6,59.2z M8.8,59.2v2.5
			H7.9v-2.5c0-0.2,0.2-0.4,0.4-0.4S8.8,58.9,8.8,59.2z M7.9,55.2v-1.8c0-0.2,0.2-0.4,0.4-0.4s0.4,0.2,0.4,0.4v1.8H7.9z M11.8,55.2
			v-1.8c0-0.2,0.2-0.4,0.4-0.4c0.2,0,0.4,0.2,0.4,0.4v1.8H11.8z M15.7,55.2v-1.8c0-0.2,0.2-0.4,0.4-0.4c0.2,0,0.4,0.2,0.4,0.4v1.8
			H15.7z M16.4,50.7l2.5,0l-0.1,0.8l-0.1,0.7c0,0.2,0.1,0.4,0.3,0.5l0.5,0.2l0.1,0.3l-0.2,0.8c0,0.2,0,0.4,0.2,0.5l0.3,0.2l0.1,0.5
			h-2.4v-1.8c0-0.8-0.6-1.4-1.4-1.4c-0.8,0-1.4,0.6-1.4,1.4v1.8h-1.1v-1.8c0-0.8-0.6-1.4-1.4-1.4c-0.8,0-1.4,0.6-1.4,1.4v1.8H9.7
			v-1.8c0-0.8-0.6-1.4-1.4-1.4c-0.8,0-1.4,0.6-1.4,1.4v1.8H5.6v-4.5H16.4z M7.9,49.8v-2c0-0.2,0.2-0.4,0.4-0.4s0.4,0.2,0.4,0.4v2
			H7.9z M11.8,49.8v-2c0-0.2,0.2-0.4,0.4-0.4c0.2,0,0.4,0.2,0.4,0.4v2H11.8z M15,46.3l0.3,0.4l0,0.2l-0.2,1c0,0.1,0,0.3,0.1,0.4
			l0.4,0.4l0.2,1h-2.2v-2c0-0.8-0.6-1.4-1.4-1.4c-0.8,0-1.4,0.6-1.4,1.4v2H9.7v-2c0-0.8-0.6-1.4-1.4-1.4C7.6,46.4,7,47,7,47.7v2H5.6
			v-3.3c0,0,0,0,0-0.1l-0.2-1.2h9.5l0,0.9C14.9,46.1,14.9,46.2,15,46.3z M4.9,43.7h9.8l0.1,0.5H5L4.9,43.7z M5.3,63.1l0.1-0.5h2
			c0,0,0,0,0,0h1.8c0,0,0,0,0,0h2.1c0,0,0,0,0,0h1.8c0,0,0,0,0,0h2.1c0,0,0,0,0,0H17c0,0,0,0,0,0H19c0,0,0,0,0,0h1.8c0,0,0,0,0,0
			h2.1c0,0,0,0,0,0h1.8c0,0,0,0,0,0h2.3l0.1,0.5H5.3z"/>
		<path id="XMLID_2541_" fill="#FFFFFF" d="M28.3,103.4l-0.4-1.3V99c0-0.1,0-0.2-0.1-0.3l-0.1-0.2l0.2-0.5c0-0.1,0-0.1,0-0.2v-1.4
			c0-0.1,0-0.2-0.1-0.3l-0.6-0.7c-0.1-0.1-0.3-0.2-0.4-0.1l-0.6,0.1l-0.3-0.1c-0.1,0-0.1,0-0.2,0h-4.9l-0.2-0.8
			c0-0.1-0.1-0.2-0.2-0.3L20.2,94l0.2-0.6c0-0.1,0-0.1,0-0.2l-0.1-0.7c0-0.2-0.1-0.3-0.3-0.3L19.6,92l0.1-0.3c0,0,0,0,0,0l0.2-1.3
			c0-0.1,0-0.3-0.1-0.4c-0.1-0.1-0.2-0.2-0.4-0.2l-2.6,0l-0.2-1.3c0-0.1-0.1-0.2-0.1-0.2l-0.3-0.3l0.2-0.9c0-0.1,0-0.1,0-0.2
			l-0.1-0.4c0-0.1,0-0.1-0.1-0.2l-0.2-0.3l0-1.2c0-0.1,0-0.1-0.1-0.2l-0.3-1.3c-0.1-0.2-0.2-0.4-0.5-0.4H4.2c-0.2,0-0.3,0.1-0.4,0.2
			c-0.1,0.1-0.1,0.3-0.1,0.4l0.5,1.4c0,0.1,0.1,0.2,0.2,0.2l0.2,1.4v3.3c-0.2,0-0.4,0.2-0.4,0.5c0,0.2,0.2,0.4,0.4,0.5v4.5
			c-0.2,0-0.4,0.2-0.4,0.5c0,0.2,0.2,0.4,0.4,0.5v5.9l-0.4,1.4c0,0.1,0,0.3,0.1,0.4c0.1,0.1,0.2,0.2,0.4,0.2h23.1c0,0,0,0,0,0
			c0.3,0,0.5-0.2,0.5-0.5C28.3,103.5,28.3,103.4,28.3,103.4z M20.2,96.2c0,0,0.1,0,0.1,0h5.2l0.3,0.1c0.1,0,0.2,0,0.2,0l0.5-0.1
			l0.3,0.4v1.1l-0.2,0.7c-0.1,0.1,0,0.3,0.1,0.4l0.2,0.3v2.5h-1.8v-2.5c0-0.8-0.6-1.4-1.4-1.4c-0.8,0-1.4,0.6-1.4,1.4v2.5h-1.1v-2.5
			c0-0.8-0.6-1.4-1.4-1.4c-0.8,0-1.4,0.6-1.4,1.4v2.5h-1.1v-2.5c0-0.8-0.6-1.4-1.4-1.4c-0.8,0-1.4,0.6-1.4,1.4v2.5h-1.1v-2.5
			c0-0.8-0.6-1.4-1.4-1.4c-0.8,0-1.4,0.6-1.4,1.4v2.5H9.7v-2.5c0-0.8-0.6-1.4-1.4-1.4c-0.8,0-1.4,0.6-1.4,1.4v2.5H5.6v-5.5h1.9h1.8
			h2.1h1.8h2.1H17H20.2z M24.2,99.2v2.5h-0.8v-2.5c0-0.2,0.2-0.4,0.4-0.4C24,98.8,24.2,98.9,24.2,99.2z M20.4,99.2v2.5h-0.8v-2.5
			c0-0.2,0.2-0.4,0.4-0.4C20.2,98.8,20.4,98.9,20.4,99.2z M16.5,99.2v2.5h-0.8v-2.5c0-0.2,0.2-0.4,0.4-0.4
			C16.3,98.8,16.5,98.9,16.5,99.2z M12.6,99.2v2.5h-0.8v-2.5c0-0.2,0.2-0.4,0.4-0.4C12.5,98.8,12.6,98.9,12.6,99.2z M8.8,99.2v2.5
			H7.9v-2.5c0-0.2,0.2-0.4,0.4-0.4S8.8,98.9,8.8,99.2z M7.9,95.2v-1.8c0-0.2,0.2-0.4,0.4-0.4s0.4,0.2,0.4,0.4v1.8H7.9z M11.8,95.2
			v-1.8c0-0.2,0.2-0.4,0.4-0.4c0.2,0,0.4,0.2,0.4,0.4v1.8H11.8z M15.7,95.2v-1.8c0-0.2,0.2-0.4,0.4-0.4c0.2,0,0.4,0.2,0.4,0.4v1.8
			H15.7z M16.4,90.7l2.5,0l-0.1,0.8l-0.1,0.7c0,0.2,0.1,0.4,0.3,0.5l0.5,0.2l0.1,0.3l-0.2,0.8c0,0.2,0,0.4,0.2,0.5l0.3,0.2l0.1,0.5
			h-2.4v-1.8c0-0.8-0.6-1.4-1.4-1.4c-0.8,0-1.4,0.6-1.4,1.4v1.8h-1.1v-1.8c0-0.8-0.6-1.4-1.4-1.4c-0.8,0-1.4,0.6-1.4,1.4v1.8H9.7
			v-1.8c0-0.8-0.6-1.4-1.4-1.4c-0.8,0-1.4,0.6-1.4,1.4v1.8H5.6v-4.5H16.4z M7.9,89.8v-2c0-0.2,0.2-0.4,0.4-0.4s0.4,0.2,0.4,0.4v2
			H7.9z M11.8,89.8v-2c0-0.2,0.2-0.4,0.4-0.4c0.2,0,0.4,0.2,0.4,0.4v2H11.8z M15,86.3l0.3,0.4l0,0.2l-0.2,1c0,0.1,0,0.3,0.1,0.4
			l0.4,0.4l0.2,1h-2.2v-2c0-0.8-0.6-1.4-1.4-1.4c-0.8,0-1.4,0.6-1.4,1.4v2H9.7v-2c0-0.8-0.6-1.4-1.4-1.4C7.6,86.4,7,87,7,87.7v2H5.6
			v-3.3c0,0,0,0,0-0.1l-0.2-1.2h9.5l0,0.9C14.9,86.1,14.9,86.2,15,86.3z M4.9,83.7h9.8l0.1,0.5H5L4.9,83.7z M5.3,103.1l0.1-0.5h2
			c0,0,0,0,0,0h1.8c0,0,0,0,0,0h2.1c0,0,0,0,0,0h1.8c0,0,0,0,0,0h2.1c0,0,0,0,0,0H17c0,0,0,0,0,0H19c0,0,0,0,0,0h1.8c0,0,0,0,0,0
			h2.1c0,0,0,0,0,0h1.8c0,0,0,0,0,0h2.3l0.1,0.5H5.3z"/>
		<path id="XMLID_2658_" fill="#1D70AD" d="M28.3,143.4l-0.4-1.3V139c0-0.1,0-0.2-0.1-0.3l-0.1-0.2l0.2-0.5c0-0.1,0-0.1,0-0.2v-1.4
			c0-0.1,0-0.2-0.1-0.3l-0.6-0.7c-0.1-0.1-0.3-0.2-0.4-0.1l-0.6,0.1l-0.3-0.1c-0.1,0-0.1,0-0.2,0h-4.9l-0.2-0.8
			c0-0.1-0.1-0.2-0.2-0.3l-0.2-0.1l0.2-0.6c0-0.1,0-0.1,0-0.2l-0.1-0.7c0-0.2-0.1-0.3-0.3-0.3l-0.4-0.2l0.1-0.3c0,0,0,0,0,0l0.2-1.3
			c0-0.1,0-0.3-0.1-0.4c-0.1-0.1-0.2-0.2-0.4-0.2l-2.6,0l-0.2-1.3c0-0.1-0.1-0.2-0.1-0.2l-0.3-0.3l0.2-0.9c0-0.1,0-0.1,0-0.2
			l-0.1-0.4c0-0.1,0-0.1-0.1-0.2l-0.2-0.3l0-1.2c0-0.1,0-0.1-0.1-0.2l-0.3-1.3c-0.1-0.2-0.2-0.4-0.5-0.4H4.2c-0.2,0-0.3,0.1-0.4,0.2
			c-0.1,0.1-0.1,0.3-0.1,0.4l0.5,1.4c0,0.1,0.1,0.2,0.2,0.2l0.2,1.4v3.3c-0.2,0-0.4,0.2-0.4,0.5c0,0.2,0.2,0.4,0.4,0.5v4.5
			c-0.2,0-0.4,0.2-0.4,0.5c0,0.2,0.2,0.4,0.4,0.5v5.9l-0.4,1.4c0,0.1,0,0.3,0.1,0.4c0.1,0.1,0.2,0.2,0.4,0.2h23.1c0,0,0,0,0,0
			c0.3,0,0.5-0.2,0.5-0.5C28.3,143.5,28.3,143.4,28.3,143.4z M20.2,136.2c0,0,0.1,0,0.1,0h5.2l0.3,0.1c0.1,0,0.2,0,0.2,0l0.5-0.1
			l0.3,0.4v1.1l-0.2,0.7c-0.1,0.1,0,0.3,0.1,0.4l0.2,0.3v2.5h-1.8v-2.5c0-0.8-0.6-1.4-1.4-1.4c-0.8,0-1.4,0.6-1.4,1.4v2.5h-1.1v-2.5
			c0-0.8-0.6-1.4-1.4-1.4c-0.8,0-1.4,0.6-1.4,1.4v2.5h-1.1v-2.5c0-0.8-0.6-1.4-1.4-1.4c-0.8,0-1.4,0.6-1.4,1.4v2.5h-1.1v-2.5
			c0-0.8-0.6-1.4-1.4-1.4c-0.8,0-1.4,0.6-1.4,1.4v2.5H9.7v-2.5c0-0.8-0.6-1.4-1.4-1.4c-0.8,0-1.4,0.6-1.4,1.4v2.5H5.6v-5.5h1.9h1.8
			h2.1h1.8h2.1H17H20.2z M24.2,139.2v2.5h-0.8v-2.5c0-0.2,0.2-0.4,0.4-0.4C24,138.8,24.2,138.9,24.2,139.2z M20.4,139.2v2.5h-0.8
			v-2.5c0-0.2,0.2-0.4,0.4-0.4C20.2,138.8,20.4,138.9,20.4,139.2z M16.5,139.2v2.5h-0.8v-2.5c0-0.2,0.2-0.4,0.4-0.4
			C16.3,138.8,16.5,138.9,16.5,139.2z M12.6,139.2v2.5h-0.8v-2.5c0-0.2,0.2-0.4,0.4-0.4C12.5,138.8,12.6,138.9,12.6,139.2z
			 M8.8,139.2v2.5H7.9v-2.5c0-0.2,0.2-0.4,0.4-0.4S8.8,138.9,8.8,139.2z M7.9,135.2v-1.8c0-0.2,0.2-0.4,0.4-0.4s0.4,0.2,0.4,0.4v1.8
			H7.9z M11.8,135.2v-1.8c0-0.2,0.2-0.4,0.4-0.4c0.2,0,0.4,0.2,0.4,0.4v1.8H11.8z M15.7,135.2v-1.8c0-0.2,0.2-0.4,0.4-0.4
			c0.2,0,0.4,0.2,0.4,0.4v1.8H15.7z M16.4,130.7l2.5,0l-0.1,0.8l-0.1,0.7c0,0.2,0.1,0.4,0.3,0.5l0.5,0.2l0.1,0.3l-0.2,0.8
			c0,0.2,0,0.4,0.2,0.5l0.3,0.2l0.1,0.5h-2.4v-1.8c0-0.8-0.6-1.4-1.4-1.4c-0.8,0-1.4,0.6-1.4,1.4v1.8h-1.1v-1.8
			c0-0.8-0.6-1.4-1.4-1.4c-0.8,0-1.4,0.6-1.4,1.4v1.8H9.7v-1.8c0-0.8-0.6-1.4-1.4-1.4c-0.8,0-1.4,0.6-1.4,1.4v1.8H5.6v-4.5H16.4z
			 M7.9,129.8v-2c0-0.2,0.2-0.4,0.4-0.4s0.4,0.2,0.4,0.4v2H7.9z M11.8,129.8v-2c0-0.2,0.2-0.4,0.4-0.4c0.2,0,0.4,0.2,0.4,0.4v2H11.8
			z M15,126.3l0.3,0.4l0,0.2l-0.2,1c0,0.1,0,0.3,0.1,0.4l0.4,0.4l0.2,1h-2.2v-2c0-0.8-0.6-1.4-1.4-1.4c-0.8,0-1.4,0.6-1.4,1.4v2H9.7
			v-2c0-0.8-0.6-1.4-1.4-1.4c-0.8,0-1.4,0.6-1.4,1.4v2H5.6v-3.3c0,0,0,0,0-0.1l-0.2-1.2h9.5l0,0.9C14.9,126.1,14.9,126.2,15,126.3z
			 M4.9,123.7h9.8l0.1,0.5H5L4.9,123.7z M5.3,143.1l0.1-0.5h2c0,0,0,0,0,0h1.8c0,0,0,0,0,0h2.1c0,0,0,0,0,0h1.8c0,0,0,0,0,0h2.1
			c0,0,0,0,0,0H17c0,0,0,0,0,0H19c0,0,0,0,0,0h1.8c0,0,0,0,0,0h2.1c0,0,0,0,0,0h1.8c0,0,0,0,0,0h2.3l0.1,0.5H5.3z"/>
	</g>
</svg>
