<svg width="32" height="232" viewBox="0 0 32 232" xmlns="http://www.w3.org/2000/svg"><g fill="none"><path d="M31.902 128.118c-.186-1.58-.917-2.73-2.06-3.24-.395-.178-.822-.268-1.27-.268-1.345 0-2.76.81-3.917 2.152-.997-1.535-2.366-2.494-3.762-2.494-.224 0-.45.025-.666.074-1.22.275-2.168 1.258-2.664 2.77-.443 1.345-.48 2.99-.108 4.63.572 2.52 2.01 4.55 3.686 5.277l.3 1.54-1.42 2.87-.03.06-2.16 5.39c-.18.46.03.98.49 1.18l1.77.79c.13.05.26.08.38.08.34 0 .67-.19.83-.51l1.58-3.13 1.04 3.82c.12.41.49.68.9.68l.21-.03 1.89-.43c.49-.11.8-.58.72-1.07l-1.04-5.72-.01-.07-.92-3.48.79-1.92c1.79-.38 3.6-2.088 4.67-4.44.69-1.54.98-3.16.82-4.56zm-6.174 7.23c-.114.004-.224.03-.325.074-.224.093-.408.27-.503.503l-2.673 6.534-.038.07-2.17 4.29-.14-.06 1.81-4.54.31-.63 1.36-2.77.18-.37 1.27-2.58c.16-.33.11-.72-.12-1-.28-.33-.47-.86-.53-1.51-.03-.28-.03-.59-.01-.91l.05-.47.09.04.57.26 3.31 1.48c-.84.99-1.78 1.52-2.49 1.54zm-6.458-4.013c-.098-.432-.16-.868-.188-1.295l4.086-.92-.006.015c-.423.938-.69 1.896-.8 2.81l-2.717.61c-.147-.374-.274-.782-.374-1.22zm9.302-4.87c.183 0 .355.034.508.103.513.23.868.873.973 1.766.052.44.04.924-.03 1.425l-3.964-1.78c.74-.89 1.64-1.52 2.51-1.52zm.815 5.455c-.185.41-.39.784-.61 1.123l-2.6-1.163-.212-.095-.97-.434-.574-.25c.11-.39.26-.79.44-1.2.18-.38.39-.77.63-1.14l.15.07 4.19 1.88c-.11.41-.26.83-.44 1.23zm-10.055-4.23c.28-.855.757-1.416 1.306-1.54l.256-.027c.9 0 1.777.87 2.412 2.017l-4.228.952c.03-.505.115-.98.254-1.403zm2.84 7.73c-.686-.166-1.5-.87-2.126-2.004l2.256-.508c0 1.007.208 1.923.62 2.65l-.155.315c-.124-.224-.337-.392-.596-.454zm2.574 7.535l.874 4.806-.148.04-1.286-4.71-.065-.34.35-.84.28 1.06zm-13.16-13.375c.274-.23.665-.233.94-.03l.01.02c.076.164.24.27.42.27h.058c.18 0 .346-.105.422-.27l.01-.02c.275-.202.665-.2.94.03.196.164.49.14.655-.057.17-.196.14-.488-.05-.653-.58-.484-1.39-.515-2-.13-.6-.384-1.42-.354-2 .13-.19.164-.22.457-.05.653s.46.222.66.057zm1.124-2.65c.274-.23.665-.233.94-.03l.01.02c.076.163.24.268.422.268h.056c.18 0 .345-.104.422-.268l.01-.02c.275-.203.665-.2.94.03.196.164.49.138.655-.058.165-.196.14-.488-.057-.653-.58-.49-1.392-.52-1.998-.13-.606-.39-1.42-.36-1.998.13-.197.16-.223.45-.057.65.165.19.46.22.655.05zm4.936 7.397c0-.373-.24-.895-1.39-1.26-.733-.234-1.7-.362-2.72-.362s-1.984.128-2.717.36l-.31.11h-.09c-.94 0-1.82.116-2.49.33-1.07.34-1.3.834-1.3 1.187 0 .158.04.343.19.53l.59 6.387-.25 1.6-.26-.04h-2l1.45-16.7c.47.21.87.55 1.15.99.35.56.47 1.22.32 1.85-.06.25.09.5.34.55l.11.01c.21 0 .41-.15.46-.36.21-.89.06-1.8-.43-2.57-.34-.54-.81-.96-1.36-1.25 1.02-.45 2.26-.26 3.08.56.09.09.21.14.33.14.12 0 .23-.05.33-.14.18-.18.18-.48 0-.66-1.08-1.09-2.74-1.36-4.1-.77.4-.917 1.35-1.56 2.46-1.56.26 0 .47-.21.47-.46s-.21-.46-.46-.46c-1.34 0-2.51.71-3.13 1.75-.63-1.04-1.8-1.75-3.14-1.75-.25 0-.46.21-.46.47s.21.46.465.46c1.11 0 2.07.65 2.47 1.56-1.36-.59-3.014-.32-4.094.77-.18.18-.18.47 0 .65.09.09.21.133.33.133.12 0 .24-.04.33-.14.81-.82 2.06-1.01 3.074-.56-.555.29-1.024.72-1.36 1.25-.49.775-.645 1.685-.44 2.57.05.21.245.353.456.353l.11-.01c.25-.06.4-.31.343-.56-.15-.636-.04-1.296.32-1.86.26-.414.64-.74 1.08-.954L3.1 143.17H.936c-.515 0-.93.415-.93.927s.415.926.93.926H6.9l-.108.71c-.02.13.02.27.107.37.08.1.21.16.35.16h2.37l-.03.202c-.02.13.02.267.1.37.09.102.21.16.35.16h6.97c.13 0 .26-.06.35-.16.09-.103.12-.24.1-.37l-.7-4.55.65-7.037c.16-.2.2-.397.2-.565zm-8.768-.098c.173-.04.363-.06.57-.08l-.013.08-.006.09c0 .11.02.23.08.36l.12.2.02.26.01.1c-.3-.03-.56-.06-.8-.1-.73-.13-1.16-.34-1.28-.47.12-.13.55-.33 1.28-.46zm4.386-.6l.274-.01c.895 0 1.605.1 2.125.23.61.15.96.34 1.043.46-.084.11-.434.31-1.043.46-.397.1-.905.18-1.522.21h-.1l-.46.01h-.03c-.32 0-.61-.01-.88-.03-.49-.04-.9-.12-1.24-.2l-.34-.1c-.39-.13-.63-.27-.69-.37l.11-.1.23-.13c.18-.08.41-.17.71-.24.16-.04.34-.08.53-.11.38-.06.82-.11 1.32-.12zm-5.324 2.25l.075.02.3 4.14c.016.24.22.43.463.43h.034c.256-.02.45-.24.43-.5l-.278-3.87.317.04v.02l.16 3.81c.01.24.22.44.47.44h.02c.08-.01.16-.03.22-.07l.08.79h-1.9l-.49-5.32.12.04zm.352 6.2h1.97l-.498 3.26h-1.97l.497-3.27zm5.68 4h-3.38l.043-.27.52-3.41h4.768l.56 3.67h-2.51zm1.925-4.61H11.18l-.03-.32-.458-4.95-.02-.22-.023-.25-.02-.22.19.06.26.07v.06l.31 4.34c.02.24.22.43.46.43h.03l.13-.03c.18-.07.31-.26.3-.47l-.28-3.92-.02-.24.34.04.09.01v.1l.13 3.15.03.86v.01c.01.23.2.41.43.43h.05c.26-.01.46-.23.45-.49l-.15-3.39-.03-.636h.14l.41-.004-.17 4.03c-.01.26.18.47.44.48h.02c.25 0 .45-.19.46-.44l.17-4.14.44-.062-.3 4.19c-.02.253.17.475.43.493h.03c.24 0 .444-.18.462-.43l.324-4.48.18-.06-.55 5.96z" fill="#206FAC"/><path d="M31.902 88.118c-.186-1.58-.917-2.73-2.06-3.24-.395-.178-.822-.268-1.27-.268-1.345 0-2.76.81-3.917 2.152-.997-1.535-2.366-2.494-3.762-2.494-.224 0-.45.025-.666.074-1.22.275-2.168 1.258-2.664 2.77-.443 1.345-.48 2.99-.108 4.63.572 2.52 2.01 4.55 3.686 5.277l.3 1.54-1.42 2.87-.03.06-2.16 5.39c-.18.46.03.98.49 1.18l1.77.79c.13.05.26.08.38.08.34 0 .67-.19.83-.51l1.58-3.13 1.04 3.82c.12.41.49.68.9.68l.21-.03 1.89-.43c.49-.11.8-.58.72-1.07l-1.04-5.72-.01-.07-.92-3.48.79-1.92c1.79-.38 3.6-2.088 4.67-4.44.69-1.54.98-3.16.82-4.56zm-6.174 7.23c-.114.004-.224.03-.325.074-.224.093-.408.27-.503.503l-2.673 6.534-.038.07-2.17 4.29-.14-.06 1.81-4.54.31-.63 1.36-2.77.18-.37 1.27-2.58c.16-.33.11-.72-.12-1-.28-.33-.47-.86-.53-1.51-.03-.28-.03-.59-.01-.91l.05-.46.09.04.57.26 3.32 1.49c-.84.99-1.78 1.52-2.49 1.54zm-6.458-4.013c-.098-.432-.16-.868-.188-1.295l4.086-.92-.006.015c-.423.938-.69 1.896-.8 2.81l-2.717.61c-.147-.374-.274-.782-.374-1.22zm9.302-4.87c.183 0 .355.034.508.103.513.23.868.873.973 1.766.052.44.04.924-.03 1.425l-3.963-1.78c.742-.89 1.644-1.53 2.51-1.53zm.815 5.455c-.185.41-.39.784-.61 1.123l-2.6-1.163-.212-.095-.97-.434-.574-.25c.11-.39.26-.79.44-1.2.18-.38.39-.77.63-1.14l.15.07 4.19 1.88c-.11.41-.26.83-.44 1.23zm-10.055-4.23c.28-.855.757-1.416 1.306-1.54l.256-.027c.9 0 1.777.87 2.412 2.017l-4.228.952c.03-.505.115-.98.254-1.403zm2.84 7.73c-.686-.166-1.5-.87-2.126-2.004l2.256-.508c0 1.007.208 1.923.62 2.65l-.155.315c-.124-.224-.337-.392-.596-.454zm2.574 7.535l.874 4.806-.148.04-1.286-4.71-.065-.34.35-.84.28 1.06zM11.586 89.58c.274-.23.665-.233.94-.03l.01.02c.076.164.24.27.42.27h.058c.18 0 .346-.105.422-.27l.01-.02c.275-.202.665-.2.94.03.196.164.49.14.655-.057.17-.196.14-.488-.05-.653-.58-.484-1.39-.515-2-.13-.6-.384-1.42-.354-2 .13-.19.164-.22.457-.05.653s.46.222.66.057zm1.124-2.65c.274-.23.665-.233.94-.03l.01.02c.076.163.24.268.422.268h.056c.18 0 .345-.104.422-.268l.01-.02c.275-.203.665-.2.94.03.196.164.49.138.655-.058.165-.196.14-.488-.057-.653-.58-.49-1.392-.52-1.998-.13-.606-.39-1.42-.36-1.998.13-.197.16-.223.45-.057.65.165.19.46.22.655.05zm4.936 7.397c0-.373-.24-.895-1.39-1.26-.733-.234-1.7-.362-2.72-.362s-1.984.128-2.717.36l-.31.11h-.09c-.94 0-1.82.116-2.49.33-1.07.34-1.3.834-1.3 1.187 0 .158.04.343.19.53l.59 6.387-.25 1.6-.26-.04h-2l1.46-16.69c.47.21.87.55 1.15.98.35.56.46 1.22.31 1.85-.06.25.09.49.34.55l.1.01c.21 0 .4-.15.45-.36.21-.88.05-1.8-.44-2.57-.34-.54-.81-.96-1.36-1.25 1.01-.45 2.26-.26 3.08.56.09.09.21.13.33.13.12 0 .23-.05.32-.14.18-.18.18-.48 0-.66-1.09-1.09-2.74-1.358-4.1-.77.4-.916 1.35-1.56 2.46-1.56.252 0 .46-.21.46-.46s-.205-.465-.46-.465c-1.34 0-2.51.705-3.13 1.75-.626-1.045-1.796-1.75-3.136-1.75-.26 0-.468.21-.468.462s.21.46.46.46c1.11 0 2.065.64 2.47 1.56-1.36-.59-3.017-.33-4.097.76-.18.18-.18.474 0 .654.09.09.21.13.324.13.12 0 .24-.045.33-.14.815-.82 2.06-1.01 3.08-.56-.552.29-1.02.715-1.36 1.247-.49.77-.642 1.68-.434 2.567.05.213.24.36.45.36l.11-.01c.25-.06.41-.31.35-.557-.15-.64-.036-1.3.32-1.86.263-.42.64-.745 1.083-.96l-2.33 16.68H.93c-.51 0-.93.415-.93.927s.42.93.93.93H6.9l-.108.71c-.02.13.02.27.107.37.08.1.21.16.35.16h2.37l-.03.206c-.02.134.02.27.1.37.09.105.21.164.35.164h6.97c.13 0 .26-.06.35-.16.09-.104.12-.24.1-.37l-.7-4.55.65-7.037c.16-.2.2-.4.2-.568zm-8.768-.098c.173-.04.363-.06.57-.08l-.013.08-.006.09c0 .11.02.23.08.36l.12.2.02.26.01.1c-.3-.03-.56-.06-.8-.1-.73-.13-1.16-.34-1.28-.47.12-.13.55-.33 1.28-.46zm4.386-.6l.274-.01c.895 0 1.605.1 2.125.23.61.15.96.34 1.043.46-.084.11-.434.31-1.043.46-.397.1-.905.18-1.522.21h-.1l-.46.01h-.03c-.32 0-.61-.01-.88-.03-.49-.04-.9-.12-1.24-.2l-.34-.1c-.39-.13-.63-.27-.69-.37l.11-.1.23-.13c.18-.08.41-.17.71-.24.16-.04.34-.08.53-.11.38-.06.82-.11 1.32-.12zM7.94 95.88l.075.02.3 4.142c.016.244.22.43.463.43h.034c.256-.02.45-.24.43-.496l-.278-3.87.317.042v.025l.16 3.816c.01.24.22.44.47.44h.02c.08-.01.16-.03.22-.07l.08.79h-1.9l-.49-5.32.12.04zm.352 6.207h1.97l-.498 3.262h-1.97l.497-3.27zm5.68 3.998h-3.38l.043-.272.52-3.405h4.768l.56 3.677h-2.51zm1.925-4.604H11.18l-.03-.32-.458-4.95-.02-.21-.023-.24-.02-.22.19.07.26.08v.06l.31 4.34c.02.25.22.43.46.43h.03l.13-.03c.18-.07.31-.25.3-.46l-.28-3.92-.02-.23.34.04.09.01v.1l.13 3.16.03.86v.01c.01.23.2.41.43.43l.03.01h.02c.26-.01.46-.23.45-.48l-.15-3.39-.03-.63h.56l-.17 4.03c-.01.256.18.472.44.482h.02c.25 0 .45-.197.46-.445l.17-4.14.44-.063-.3 4.19c-.02.26.17.48.43.5h.03c.24 0 .44-.19.46-.43l.32-4.49.18-.06-.55 5.96z" fill="#fff"/><path d="M31.902 48.118c-.186-1.58-.917-2.73-2.06-3.24-.395-.178-.822-.268-1.27-.268-1.345 0-2.76.81-3.917 2.152-.997-1.535-2.366-2.494-3.762-2.494-.224 0-.45.025-.666.074-1.22.275-2.168 1.258-2.664 2.77-.443 1.345-.48 2.99-.108 4.63.572 2.52 2.01 4.55 3.686 5.277l.3 1.54-1.42 2.87-.03.06-2.16 5.4c-.18.46.03.98.49 1.18l1.77.79c.13.05.26.08.38.08.34 0 .67-.19.83-.51l1.58-3.13 1.05 3.82c.11.41.49.68.9.68l.21-.03 1.89-.43c.49-.11.8-.58.72-1.07l-1.05-5.71-.01-.07-.92-3.48.78-1.91c1.79-.39 3.6-2.09 4.67-4.45.69-1.54.99-3.16.82-4.56zm-6.174 7.23c-.114.004-.224.03-.325.074-.224.093-.408.27-.503.503l-2.673 6.534-.038.07-2.17 4.29-.14-.06 1.81-4.54.31-.63 1.36-2.77.18-.37 1.27-2.58c.16-.33.11-.72-.12-1-.28-.33-.47-.86-.53-1.51-.03-.28-.03-.59-.01-.91l.05-.46.09.04.57.26 3.32 1.49c-.84.99-1.78 1.52-2.49 1.54zm-6.458-4.013c-.098-.432-.16-.868-.188-1.295l4.086-.92-.006.015c-.423.938-.69 1.896-.8 2.81l-2.717.61c-.147-.374-.274-.782-.374-1.22zm9.302-4.87c.183 0 .355.034.508.103.513.23.868.873.973 1.766.052.44.04.924-.03 1.425l-3.963-1.78c.742-.89 1.644-1.53 2.51-1.53zm.815 5.455c-.185.41-.39.784-.61 1.123l-2.6-1.163-.212-.095-.97-.434-.574-.25c.11-.39.26-.79.44-1.2.18-.38.39-.77.63-1.14l.15.07 4.19 1.88c-.11.41-.26.83-.44 1.23zm-10.055-4.23c.28-.855.757-1.416 1.306-1.54l.256-.027c.9 0 1.777.87 2.412 2.017l-4.228.952c.03-.505.115-.98.254-1.403zm2.84 7.73c-.686-.166-1.5-.87-2.126-2.004l2.256-.508c0 1.007.208 1.923.62 2.65l-.155.315c-.124-.224-.337-.392-.596-.454zm2.574 7.535l.874 4.806-.148.04-1.286-4.71-.065-.34.35-.84.28 1.06zM11.586 49.58c.274-.23.665-.233.94-.03l.01.02c.076.164.24.27.42.27h.058c.18 0 .346-.105.422-.27l.01-.02c.275-.202.665-.2.94.03.196.164.49.14.655-.057.17-.196.14-.488-.05-.653-.58-.484-1.39-.515-2-.13-.6-.384-1.42-.354-2 .13-.19.164-.22.457-.05.653s.46.222.66.057zm1.124-2.65c.274-.23.665-.233.94-.03l.01.02c.076.163.24.268.422.268h.056c.18 0 .345-.104.422-.268l.01-.02c.275-.203.665-.2.94.03.196.164.49.138.655-.058.165-.196.14-.488-.057-.653-.58-.49-1.392-.52-1.998-.13-.606-.39-1.42-.36-1.998.13-.197.16-.223.45-.057.65.165.19.46.22.655.05zm4.936 7.397c0-.373-.24-.895-1.39-1.26-.733-.234-1.7-.362-2.72-.362s-1.984.128-2.717.36l-.31.11h-.09c-.94 0-1.82.116-2.49.33-1.07.34-1.3.834-1.3 1.187 0 .158.04.343.19.53l.59 6.387-.25 1.6-.26-.04h-2l1.46-16.69c.47.21.87.55 1.15.98.35.56.46 1.22.31 1.85-.06.25.09.49.34.55l.1.01c.21 0 .4-.15.45-.36.21-.88.05-1.8-.44-2.57-.34-.54-.81-.96-1.36-1.25 1.01-.45 2.26-.26 3.08.56.09.09.21.13.33.13.12 0 .23-.05.32-.14.18-.18.18-.48 0-.66-1.09-1.09-2.74-1.358-4.1-.77.4-.916 1.35-1.56 2.46-1.56.252 0 .46-.21.46-.46s-.205-.465-.46-.465c-1.34 0-2.51.705-3.13 1.75-.626-1.045-1.796-1.75-3.136-1.75-.26 0-.468.21-.468.462s.21.46.46.46c1.11 0 2.065.64 2.47 1.56-1.36-.59-3.017-.33-4.097.76-.18.18-.18.474 0 .654.09.09.21.13.324.13.12 0 .24-.045.33-.14.815-.82 2.06-1.01 3.08-.56-.552.29-1.02.715-1.36 1.247-.49.77-.642 1.68-.434 2.567.05.213.24.36.45.36l.11-.01c.25-.06.41-.31.35-.557-.15-.64-.036-1.3.32-1.86.263-.42.64-.745 1.083-.96l-2.32 16.7h-2.1c-.51 0-.93.416-.93.928s.42.927.93.927H6.9l-.108.707c-.02.135.02.27.107.37.08.106.21.165.35.165h2.37l-.03.2c-.02.13.02.27.1.37.09.1.21.16.35.16h6.97c.13 0 .26-.06.35-.16.09-.1.12-.24.1-.37l-.7-4.55.65-7.032c.16-.2.2-.4.2-.57zm-8.768-.098c.173-.04.363-.06.57-.08l-.013.08-.006.09c0 .11.02.23.08.36l.12.2.02.26.01.1c-.3-.03-.56-.06-.8-.1-.73-.13-1.16-.34-1.28-.47.12-.13.55-.33 1.28-.46zm4.386-.6l.274-.01c.895 0 1.605.1 2.125.23.61.15.96.34 1.043.46-.084.11-.434.31-1.043.46-.397.1-.905.18-1.522.21h-.1l-.46.01h-.03c-.32 0-.61-.01-.88-.03-.49-.04-.9-.12-1.24-.2l-.34-.1c-.39-.13-.63-.27-.69-.37l.11-.1.23-.13c.18-.08.41-.17.71-.24.16-.04.34-.08.53-.11.38-.06.82-.11 1.32-.12zM7.94 55.88l.075.02.3 4.142c.016.244.22.43.463.43h.034c.256-.02.45-.24.43-.496l-.278-3.87.317.042v.025l.16 3.816c.01.24.22.44.47.44h.02c.08-.01.16-.03.22-.07l.08.79h-1.9l-.49-5.32.12.04zm.352 6.207h1.97l-.498 3.262h-1.97l.497-3.27zm5.68 3.998h-3.38l.043-.272.52-3.405h4.768l.56 3.677h-2.51zm1.925-4.604H11.18l-.03-.32-.458-4.95-.02-.21-.023-.24-.02-.22.19.07.26.08v.06l.31 4.34c.02.25.22.43.46.43h.03l.13-.03c.18-.07.31-.25.3-.46l-.28-3.92-.02-.23.34.04.09.01v.1l.13 3.16.03.86v.01c.01.23.2.41.43.43l.03.01h.02c.26-.01.46-.23.45-.48l-.15-3.39-.03-.63h.56l-.17 4.03c-.01.256.18.472.44.482h.02c.25 0 .45-.197.46-.445l.17-4.14.44-.063-.3 4.19c-.02.26.17.48.43.5h.03c.24 0 .44-.19.46-.43l.32-4.49.18-.06-.55 5.96z" fill="#67737B"/><path d="M31.902 8.118c-.186-1.58-.917-2.73-2.06-3.24-.395-.178-.822-.268-1.27-.268-1.345 0-2.76.81-3.917 2.152-.997-1.535-2.366-2.494-3.762-2.494-.224 0-.45.025-.666.074-1.22.275-2.168 1.258-2.664 2.77-.443 1.345-.48 2.99-.108 4.63.572 2.52 2.01 4.55 3.686 5.277l.3 1.54-1.42 2.87-.03.06-2.16 5.4c-.18.46.03.98.49 1.18l1.77.79c.13.05.26.08.38.08.34 0 .67-.19.83-.51l1.58-3.13 1.05 3.82c.11.41.49.68.9.68l.21-.03 1.89-.43c.49-.11.8-.58.72-1.07l-1.05-5.71-.01-.07-.92-3.48.78-1.91c1.79-.39 3.6-2.09 4.67-4.45.69-1.54.99-3.16.82-4.56zm-6.174 7.23c-.114.004-.224.03-.325.074-.224.093-.408.27-.503.503l-2.673 6.534-.038.07-2.17 4.29-.14-.06 1.81-4.54.31-.63 1.36-2.77.18-.37 1.27-2.58c.16-.33.11-.72-.12-1-.28-.33-.47-.86-.53-1.51-.03-.28-.03-.59-.01-.91l.05-.46.09.04.57.26 3.32 1.49c-.84.99-1.78 1.52-2.49 1.54zm-6.458-4.013c-.098-.432-.16-.868-.188-1.295l4.086-.92-.006.015c-.423.938-.69 1.896-.8 2.81l-2.717.61c-.147-.374-.274-.782-.374-1.22zm9.302-4.87c.183 0 .355.034.508.103.513.23.868.873.973 1.766.052.44.04.924-.03 1.425L26.06 7.98c.745-.883 1.647-1.522 2.51-1.522zm.815 5.455c-.185.41-.39.784-.61 1.123l-2.6-1.163-.212-.095-.97-.434-.574-.25c.11-.39.26-.79.44-1.2.18-.38.39-.77.63-1.14l.15.07 4.19 1.88c-.11.41-.26.83-.44 1.23zM19.332 7.69c.28-.855.757-1.416 1.306-1.54l.256-.027c.9 0 1.777.87 2.412 2.017l-4.228.952c.03-.505.115-.98.254-1.403zm2.84 7.73c-.686-.166-1.5-.87-2.126-2.004l2.256-.508c0 1.007.208 1.923.62 2.65l-.155.315c-.124-.224-.337-.392-.596-.454zm2.574 7.535l.874 4.806-.148.04-1.286-4.71-.065-.34.35-.84.28 1.06zM11.586 9.58c.274-.23.665-.233.94-.03l.01.02c.076.164.24.27.42.27h.058c.18 0 .346-.105.422-.27l.01-.02c.275-.202.665-.2.94.03.196.164.49.14.655-.057.17-.196.14-.488-.05-.653-.58-.484-1.39-.515-2-.13-.6-.384-1.42-.354-2 .13-.19.164-.22.457-.05.653s.46.222.66.057zm1.124-2.65c.274-.23.665-.233.94-.03l.01.02c.076.163.24.268.422.268h.056c.18 0 .345-.104.422-.268l.01-.02c.275-.203.665-.2.94.03.196.164.49.138.655-.058.165-.196.14-.488-.057-.653-.58-.49-1.392-.52-1.998-.13-.606-.39-1.42-.36-1.998.13-.197.16-.223.45-.057.65.165.19.46.22.655.05zm4.936 7.397c0-.373-.24-.895-1.39-1.26-.733-.234-1.7-.362-2.72-.362s-1.984.128-2.717.36l-.31.11h-.09c-.94 0-1.82.116-2.49.33-1.07.34-1.3.834-1.3 1.187 0 .158.04.343.19.53l.59 6.387-.25 1.6-.26-.04h-2L6.36 6.48c.475.21.873.55 1.15.988.356.56.468 1.22.317 1.85-.06.25.096.5.346.558l.107.012c.21 0 .402-.144.453-.357.208-.88.054-1.79-.436-2.56-.337-.53-.805-.96-1.36-1.24 1.017-.45 2.266-.26 3.08.56.09.09.21.14.33.14.118 0 .236-.04.327-.13.183-.18.185-.47.005-.65-1.09-1.09-2.74-1.35-4.1-.76.4-.91 1.35-1.56 2.46-1.56.25 0 .46-.2.46-.46s-.21-.46-.47-.46c-1.34 0-2.51.71-3.13 1.75C5.28 3.11 4.11 2.4 2.77 2.4c-.26 0-.47.21-.47.464s.21.46.466.46c1.11 0 2.063.64 2.467 1.56-1.36-.59-3.02-.33-4.1.76-.18.18-.18.475.004.655.09.09.21.13.325.13.12 0 .24-.05.33-.14.81-.82 2.06-1.01 3.08-.56-.556.29-1.025.71-1.36 1.24-.49.77-.646 1.68-.438 2.57.05.21.24.36.45.36l.105-.02c.25-.06.4-.31.34-.56-.15-.64-.04-1.3.32-1.86.26-.42.63-.75 1.08-.96l-2.3 16.67H.93c-.513 0-.93.41-.93.92s.417.92.93.92H6.9l-.108.706c-.02.13.02.27.107.37.08.102.21.16.35.16h2.37l-.03.203c-.02.132.02.27.1.37.09.103.21.162.35.162h6.97c.13 0 .26-.06.35-.16.09-.107.12-.24.1-.376l-.7-4.55.65-7.036c.16-.2.2-.395.2-.563zm-8.768-.098c.173-.04.363-.06.57-.08l-.013.08-.006.09c0 .11.02.23.08.36l.12.2.02.26.01.1c-.3-.03-.56-.06-.8-.1-.73-.13-1.16-.34-1.28-.47.12-.13.55-.33 1.28-.46zm4.386-.6l.274-.01c.895 0 1.605.1 2.125.23.61.15.96.34 1.043.46-.084.11-.434.31-1.043.46-.397.1-.905.18-1.522.21h-.1l-.46.01h-.03c-.32 0-.61-.01-.88-.03-.49-.04-.9-.12-1.24-.2l-.34-.1c-.39-.13-.63-.27-.69-.37l.11-.1.23-.13c.18-.08.41-.17.71-.24.16-.04.34-.08.53-.11.38-.06.82-.11 1.32-.12zM7.94 15.88l.075.02.3 4.142c.016.244.22.43.463.43h.034c.256-.02.45-.24.43-.496l-.278-3.87.317.042v.025l.16 3.816c.01.24.22.44.47.44h.02c.08-.01.16-.03.22-.07l.08.79h-1.9l-.49-5.32.12.04zm.352 6.207h1.97l-.498 3.262h-1.97l.497-3.27zm5.68 3.998h-3.38l.043-.272.52-3.405h4.768l.56 3.677h-2.51zm1.925-4.604H11.18l-.03-.32-.458-4.95-.02-.21-.023-.24-.02-.22.19.07.26.08v.06l.31 4.34c.02.25.22.43.46.43h.03l.13-.03c.18-.07.31-.25.3-.46l-.28-3.92-.02-.23.34.04.09.01v.1l.13 3.16.03.86v.01c.01.23.2.41.43.43l.03.01h.02c.26-.01.46-.23.45-.48l-.15-3.39-.03-.63h.56l-.17 4.03c-.01.256.18.472.44.482h.02c.25 0 .45-.197.46-.445l.17-4.14.44-.063-.3 4.19c-.02.26.17.48.43.5h.03c.24 0 .44-.19.46-.43l.32-4.49.18-.06-.55 5.96z" fill="#3A434E"/></g></svg>