<svg width="32" height="232" viewBox="0 0 32 232" xmlns="http://www.w3.org/2000/svg"><g fill="none">
		<path id="XMLID_50_" fill="#3A444F" d="M29.2,8.8c-0.2-0.2-0.5-0.2-0.7,0l-0.7,0.6c-3.8,1.4-7.8,2.1-11.7,2.1
			c-4,0-7.9-0.7-11.7-2.1L3.6,8.8C3.3,8.6,3,8.6,2.8,8.8c-0.2,0.2-0.2,0.5,0,0.7l0.6,0.5c0,0.3,0.1,0.7,0.2,1.1
			c0.1,0.4,0.2,0.9,0.2,1.1c0,0.2,0.1,0.4,0.3,0.5C5.6,13.3,7,13.7,8.4,14l0,1.9H7.1c-0.3,0-0.5,0.2-0.5,0.5v2
			c0,0.3,0.2,0.5,0.5,0.5h1.2L8.2,22c-0.2,0.1-0.4,0.2-0.4,0.5c0,0.2,0.2,0.4,0.4,0.5L8,29H6.3c-0.3,0-0.5,0.2-0.5,0.5
			C5.8,29.8,6,30,6.3,30h2.2h1.8h3c0.3,0,0.5-0.2,0.5-0.5c0-0.3-0.2-0.5-0.5-0.5h-2.5v-6.1c0.2-0.1,0.3-0.3,0.3-0.4
			c0-0.2-0.1-0.4-0.3-0.4v-3.1h3.4c0.1,0.2,0.2,0.3,0.4,0.3l2.7,0c0.2,0,0.3-0.1,0.4-0.3h3.4V22c-0.2,0.1-0.3,0.3-0.3,0.4
			c0,0.2,0.1,0.4,0.3,0.4V29h-2.5c-0.3,0-0.5,0.2-0.5,0.5c0,0.3,0.2,0.5,0.5,0.5h3h1.8h2.2c0.3,0,0.5-0.2,0.5-0.5
			c0-0.3-0.2-0.5-0.5-0.5H24l-0.1-6c0.2-0.1,0.4-0.3,0.4-0.5c0-0.2-0.2-0.4-0.4-0.5l-0.1-3.1h1.2c0.3,0,0.5-0.2,0.5-0.5v-2
			c0-0.3-0.2-0.5-0.5-0.5h-1.2l0-1.9c1.4-0.3,2.7-0.7,4.1-1.2c0.2-0.1,0.3-0.3,0.3-0.5c0-0.2,0.1-0.7,0.2-1.1
			c0.1-0.4,0.2-0.8,0.2-1.1l0.6-0.5C29.3,9.4,29.3,9.1,29.2,8.8z M22.7,15.9h-0.5v-1.6c0.2,0,0.3-0.1,0.5-0.1L22.7,15.9z M24.4,16.9
			v1h-0.7h-0.5h-0.5h-0.6h-0.5h-0.5h-3.2l0.1-1h3.1h0.5h0.5h0.5h0.5h0.5H24.4z M22.8,22h-0.6v-3.1h0.6L22.8,22z M22.2,29v-6h0.7
			l0.1,6H22.2z M10.8,17.9h-0.5H9.8H9.3H8.8H8.3H7.6v-1h0.7h0.5h0.5h0.5h0.5h0.5H14l0.1,1H10.8z M9.8,29H9l0.1-6h0.7V29z M9.8,22
			H9.2l0.1-3.1h0.6V22z M16.9,17.9l0,0.3l-1.8,0l0-0.3l-0.1-1l0-0.5l0-0.5l-0.1-1l0-0.3h2.5l0,0.3l-0.1,1l0,0.5l0,0.5L16.9,17.9z
			 M21.2,15.9h-3.1l0.1-1.1c1-0.1,2-0.2,3-0.3V15.9z M13.9,15.9h-3.1v-1.4c1,0.2,2,0.3,3,0.3L13.9,15.9z M9.4,14.2
			c0.2,0,0.3,0.1,0.5,0.1v1.6H9.3L9.4,14.2z M23.1,13.1c-0.2,0-0.4,0.1-0.5,0.1c-0.1,0-0.3,0.1-0.4,0.1c-0.2,0-0.3,0.1-0.5,0.1
			c-0.2,0-0.3,0.1-0.5,0.1c-1,0.2-2,0.3-2.9,0.3c0,0,0-0.1-0.1-0.1c-0.1-0.1-0.2-0.2-0.4-0.2h-3.6c-0.1,0-0.3,0.1-0.4,0.2
			c0,0-0.1,0.1-0.1,0.1c-1-0.1-2-0.2-2.9-0.3c-0.2,0-0.3-0.1-0.5-0.1c-0.2,0-0.3-0.1-0.5-0.1c-0.1,0-0.3-0.1-0.4-0.1
			c-0.2,0-0.4-0.1-0.5-0.1c-0.2,0-0.3-0.1-0.5-0.1c-1.2-0.3-2.3-0.6-3.5-1c0-0.3-0.1-0.6-0.2-1c0-0.1-0.1-0.3-0.1-0.4
			c3.7,1.2,7.5,1.9,11.4,1.9c3.9,0,7.7-0.6,11.4-1.9c0,0.1-0.1,0.3-0.1,0.4c-0.1,0.3-0.2,0.7-0.2,1c-1.2,0.4-2.4,0.7-3.5,1
			C23.5,13,23.3,13.1,23.1,13.1z"/>
		<path id="XMLID_508_" fill="#67737C" d="M29.2,48.8c-0.2-0.2-0.5-0.2-0.7,0l-0.7,0.6c-3.8,1.4-7.8,2.1-11.7,2.1
			c-4,0-7.9-0.7-11.7-2.1l-0.7-0.6c-0.2-0.2-0.5-0.2-0.7,0c-0.2,0.2-0.2,0.5,0,0.7l0.6,0.5c0,0.3,0.1,0.7,0.2,1.1
			c0.1,0.4,0.2,0.9,0.2,1.1c0,0.2,0.1,0.4,0.3,0.5C5.6,53.3,7,53.7,8.4,54l0,1.9H7.1c-0.3,0-0.5,0.2-0.5,0.5v2
			c0,0.3,0.2,0.5,0.5,0.5h1.2L8.2,62c-0.2,0.1-0.4,0.2-0.4,0.5c0,0.2,0.2,0.4,0.4,0.5L8,69H6.3c-0.3,0-0.5,0.2-0.5,0.5
			C5.8,69.8,6,70,6.3,70h2.2h1.8h3c0.3,0,0.5-0.2,0.5-0.5c0-0.3-0.2-0.5-0.5-0.5h-2.5v-6.1c0.2-0.1,0.3-0.3,0.3-0.4
			c0-0.2-0.1-0.4-0.3-0.4v-3.1h3.4c0.1,0.2,0.2,0.3,0.4,0.3l2.7,0c0.2,0,0.3-0.1,0.4-0.3h3.4V62c-0.2,0.1-0.3,0.3-0.3,0.4
			c0,0.2,0.1,0.4,0.3,0.4V69h-2.5c-0.3,0-0.5,0.2-0.5,0.5c0,0.3,0.2,0.5,0.5,0.5h3h1.8h2.2c0.3,0,0.5-0.2,0.5-0.5
			c0-0.3-0.2-0.5-0.5-0.5H24l-0.1-6c0.2-0.1,0.4-0.3,0.4-0.5c0-0.2-0.2-0.4-0.4-0.5l-0.1-3.1h1.2c0.3,0,0.5-0.2,0.5-0.5v-2
			c0-0.3-0.2-0.5-0.5-0.5h-1.2l0-1.9c1.4-0.3,2.7-0.7,4.1-1.2c0.2-0.1,0.3-0.3,0.3-0.5c0-0.2,0.1-0.7,0.2-1.1
			c0.1-0.4,0.2-0.8,0.2-1.1l0.6-0.5C29.3,49.4,29.3,49.1,29.2,48.8z M22.7,55.9h-0.5v-1.6c0.2,0,0.3-0.1,0.5-0.1L22.7,55.9z
			 M24.4,56.9v1h-0.7h-0.5h-0.5h-0.6h-0.5h-0.5h-3.2l0.1-1h3.1h0.5h0.5h0.5h0.5h0.5H24.4z M22.8,62h-0.6v-3.1h0.6L22.8,62z M22.2,69
			v-6h0.7l0.1,6H22.2z M10.8,57.9h-0.5H9.8H9.3H8.8H8.3H7.6v-1h0.7h0.5h0.5h0.5h0.5h0.5H14l0.1,1H10.8z M9.8,69H9l0.1-6h0.7V69z
			 M9.8,62H9.2l0.1-3.1h0.6V62z M16.9,57.9l0,0.3l-1.8,0l0-0.3l-0.1-1l0-0.5l0-0.5l-0.1-1l0-0.3h2.5l0,0.3l-0.1,1l0,0.5l0,0.5
			L16.9,57.9z M21.2,55.9h-3.1l0.1-1.1c1-0.1,2-0.2,3-0.3V55.9z M13.9,55.9h-3.1v-1.4c1,0.2,2,0.3,3,0.3L13.9,55.9z M9.4,54.2
			c0.2,0,0.3,0.1,0.5,0.1v1.6H9.3L9.4,54.2z M23.1,53.1c-0.2,0-0.4,0.1-0.5,0.1c-0.1,0-0.3,0.1-0.4,0.1c-0.2,0-0.3,0.1-0.5,0.1
			c-0.2,0-0.3,0.1-0.5,0.1c-1,0.2-2,0.3-2.9,0.3c0,0,0-0.1-0.1-0.1c-0.1-0.1-0.2-0.2-0.4-0.2h-3.6c-0.1,0-0.3,0.1-0.4,0.2
			c0,0-0.1,0.1-0.1,0.1c-1-0.1-2-0.2-2.9-0.3c-0.2,0-0.3-0.1-0.5-0.1c-0.2,0-0.3-0.1-0.5-0.1c-0.1,0-0.3-0.1-0.4-0.1
			c-0.2,0-0.4-0.1-0.5-0.1c-0.2,0-0.3-0.1-0.5-0.1c-1.2-0.3-2.3-0.6-3.5-1c0-0.3-0.1-0.6-0.2-1c0-0.1-0.1-0.3-0.1-0.4
			c3.7,1.2,7.5,1.9,11.4,1.9c3.9,0,7.7-0.6,11.4-1.9c0,0.1-0.1,0.3-0.1,0.4c-0.1,0.3-0.2,0.7-0.2,1c-1.2,0.4-2.4,0.7-3.5,1
			C23.5,53,23.3,53.1,23.1,53.1z"/>
		<path id="XMLID_752_" fill="#FFFFFF" d="M29.2,88.8c-0.2-0.2-0.5-0.2-0.7,0l-0.7,0.6c-3.8,1.4-7.8,2.1-11.7,2.1
			c-4,0-7.9-0.7-11.7-2.1l-0.7-0.6c-0.2-0.2-0.5-0.2-0.7,0c-0.2,0.2-0.2,0.5,0,0.7l0.6,0.5c0,0.3,0.1,0.7,0.2,1.1
			c0.1,0.4,0.2,0.9,0.2,1.1c0,0.2,0.1,0.4,0.3,0.5C5.6,93.3,7,93.7,8.4,94l0,1.9H7.1c-0.3,0-0.5,0.2-0.5,0.5v2
			c0,0.3,0.2,0.5,0.5,0.5h1.2L8.2,102c-0.2,0.1-0.4,0.2-0.4,0.5c0,0.2,0.2,0.4,0.4,0.5L8,109H6.3c-0.3,0-0.5,0.2-0.5,0.5
			c0,0.3,0.2,0.5,0.5,0.5h2.2h1.8h3c0.3,0,0.5-0.2,0.5-0.5c0-0.3-0.2-0.5-0.5-0.5h-2.5v-6.1c0.2-0.1,0.3-0.3,0.3-0.4
			c0-0.2-0.1-0.4-0.3-0.4v-3.1h3.4c0.1,0.2,0.2,0.3,0.4,0.3l2.7,0c0.2,0,0.3-0.1,0.4-0.3h3.4v3.1c-0.2,0.1-0.3,0.3-0.3,0.4
			c0,0.2,0.1,0.4,0.3,0.4v6.1h-2.5c-0.3,0-0.5,0.2-0.5,0.5c0,0.3,0.2,0.5,0.5,0.5h3h1.8h2.2c0.3,0,0.5-0.2,0.5-0.5
			c0-0.3-0.2-0.5-0.5-0.5H24l-0.1-6c0.2-0.1,0.4-0.3,0.4-0.5c0-0.2-0.2-0.4-0.4-0.5l-0.1-3.1h1.2c0.3,0,0.5-0.2,0.5-0.5v-2
			c0-0.3-0.2-0.5-0.5-0.5h-1.2l0-1.9c1.4-0.3,2.7-0.7,4.1-1.2c0.2-0.1,0.3-0.3,0.3-0.5c0-0.2,0.1-0.7,0.2-1.1
			c0.1-0.4,0.2-0.8,0.2-1.1l0.6-0.5C29.3,89.4,29.3,89.1,29.2,88.8z M22.7,95.9h-0.5v-1.6c0.2,0,0.3-0.1,0.5-0.1L22.7,95.9z
			 M24.4,96.9v1h-0.7h-0.5h-0.5h-0.6h-0.5h-0.5h-3.2l0.1-1h3.1h0.5h0.5h0.5h0.5h0.5H24.4z M22.8,102h-0.6v-3.1h0.6L22.8,102z
			 M22.2,109v-6h0.7l0.1,6H22.2z M10.8,97.9h-0.5H9.8H9.3H8.8H8.3H7.6v-1h0.7h0.5h0.5h0.5h0.5h0.5H14l0.1,1H10.8z M9.8,109H9l0.1-6
			h0.7V109z M9.8,102H9.2l0.1-3.1h0.6V102z M16.9,97.9l0,0.3l-1.8,0l0-0.3l-0.1-1l0-0.5l0-0.5l-0.1-1l0-0.3h2.5l0,0.3l-0.1,1l0,0.5
			l0,0.5L16.9,97.9z M21.2,95.9h-3.1l0.1-1.1c1-0.1,2-0.2,3-0.3V95.9z M13.9,95.9h-3.1v-1.4c1,0.2,2,0.3,3,0.3L13.9,95.9z M9.4,94.2
			c0.2,0,0.3,0.1,0.5,0.1v1.6H9.3L9.4,94.2z M23.1,93.1c-0.2,0-0.4,0.1-0.5,0.1c-0.1,0-0.3,0.1-0.4,0.1c-0.2,0-0.3,0.1-0.5,0.1
			c-0.2,0-0.3,0.1-0.5,0.1c-1,0.2-2,0.3-2.9,0.3c0,0,0-0.1-0.1-0.1c-0.1-0.1-0.2-0.2-0.4-0.2h-3.6c-0.1,0-0.3,0.1-0.4,0.2
			c0,0-0.1,0.1-0.1,0.1c-1-0.1-2-0.2-2.9-0.3c-0.2,0-0.3-0.1-0.5-0.1c-0.2,0-0.3-0.1-0.5-0.1c-0.1,0-0.3-0.1-0.4-0.1
			c-0.2,0-0.4-0.1-0.5-0.1c-0.2,0-0.3-0.1-0.5-0.1c-1.2-0.3-2.3-0.6-3.5-1c0-0.3-0.1-0.6-0.2-1c0-0.1-0.1-0.3-0.1-0.4
			c3.7,1.2,7.5,1.9,11.4,1.9c3.9,0,7.7-0.6,11.4-1.9c0,0.1-0.1,0.3-0.1,0.4c-0.1,0.3-0.2,0.7-0.2,1c-1.2,0.4-2.4,0.7-3.5,1
			C23.5,93,23.3,93.1,23.1,93.1z"/>
		<path id="XMLID_934_" fill="#1D70AD" d="M29.2,128.8c-0.2-0.2-0.5-0.2-0.7,0l-0.7,0.6c-3.8,1.4-7.8,2.1-11.7,2.1
			c-4,0-7.9-0.7-11.7-2.1l-0.7-0.6c-0.2-0.2-0.5-0.2-0.7,0c-0.2,0.2-0.2,0.5,0,0.7l0.6,0.5c0,0.3,0.1,0.7,0.2,1.1
			c0.1,0.4,0.2,0.9,0.2,1.1c0,0.2,0.1,0.4,0.3,0.5c1.4,0.5,2.8,0.9,4.1,1.2l0,1.9H7.1c-0.3,0-0.5,0.2-0.5,0.5v2
			c0,0.3,0.2,0.5,0.5,0.5h1.2L8.2,142c-0.2,0.1-0.4,0.2-0.4,0.5c0,0.2,0.2,0.4,0.4,0.5L8,149H6.3c-0.3,0-0.5,0.2-0.5,0.5
			c0,0.3,0.2,0.5,0.5,0.5h2.2h1.8h3c0.3,0,0.5-0.2,0.5-0.5c0-0.3-0.2-0.5-0.5-0.5h-2.5v-6.1c0.2-0.1,0.3-0.3,0.3-0.4
			c0-0.2-0.1-0.4-0.3-0.4v-3.1h3.4c0.1,0.2,0.2,0.3,0.4,0.3l2.7,0c0.2,0,0.3-0.1,0.4-0.3h3.4v3.1c-0.2,0.1-0.3,0.3-0.3,0.4
			c0,0.2,0.1,0.4,0.3,0.4v6.1h-2.5c-0.3,0-0.5,0.2-0.5,0.5c0,0.3,0.2,0.5,0.5,0.5h3h1.8h2.2c0.3,0,0.5-0.2,0.5-0.5
			c0-0.3-0.2-0.5-0.5-0.5H24l-0.1-6c0.2-0.1,0.4-0.3,0.4-0.5c0-0.2-0.2-0.4-0.4-0.5l-0.1-3.1h1.2c0.3,0,0.5-0.2,0.5-0.5v-2
			c0-0.3-0.2-0.5-0.5-0.5h-1.2l0-1.9c1.4-0.3,2.7-0.7,4.1-1.2c0.2-0.1,0.3-0.3,0.3-0.5c0-0.2,0.1-0.7,0.2-1.1
			c0.1-0.4,0.2-0.8,0.2-1.1l0.6-0.5C29.3,129.4,29.3,129.1,29.2,128.8z M22.7,135.9h-0.5v-1.6c0.2,0,0.3-0.1,0.5-0.1L22.7,135.9z
			 M24.4,136.9v1h-0.7h-0.5h-0.5h-0.6h-0.5h-0.5h-3.2l0.1-1h3.1h0.5h0.5h0.5h0.5h0.5H24.4z M22.8,142h-0.6v-3.1h0.6L22.8,142z
			 M22.2,149v-6h0.7l0.1,6H22.2z M10.8,137.9h-0.5H9.8H9.3H8.8H8.3H7.6v-1h0.7h0.5h0.5h0.5h0.5h0.5H14l0.1,1H10.8z M9.8,149H9l0.1-6
			h0.7V149z M9.8,142H9.2l0.1-3.1h0.6V142z M16.9,137.9l0,0.3l-1.8,0l0-0.3l-0.1-1l0-0.5l0-0.5l-0.1-1l0-0.3h2.5l0,0.3l-0.1,1l0,0.5
			l0,0.5L16.9,137.9z M21.2,135.9h-3.1l0.1-1.1c1-0.1,2-0.2,3-0.3V135.9z M13.9,135.9h-3.1v-1.4c1,0.2,2,0.3,3,0.3L13.9,135.9z
			 M9.4,134.2c0.2,0,0.3,0.1,0.5,0.1v1.6H9.3L9.4,134.2z M23.1,133.1c-0.2,0-0.4,0.1-0.5,0.1c-0.1,0-0.3,0.1-0.4,0.1
			c-0.2,0-0.3,0.1-0.5,0.1c-0.2,0-0.3,0.1-0.5,0.1c-1,0.2-2,0.3-2.9,0.3c0,0,0-0.1-0.1-0.1c-0.1-0.1-0.2-0.2-0.4-0.2h-3.6
			c-0.1,0-0.3,0.1-0.4,0.2c0,0-0.1,0.1-0.1,0.1c-1-0.1-2-0.2-2.9-0.3c-0.2,0-0.3-0.1-0.5-0.1c-0.2,0-0.3-0.1-0.5-0.1
			c-0.1,0-0.3-0.1-0.4-0.1c-0.2,0-0.4-0.1-0.5-0.1c-0.2,0-0.3-0.1-0.5-0.1c-1.2-0.3-2.3-0.6-3.5-1c0-0.3-0.1-0.6-0.2-1
			c0-0.1-0.1-0.3-0.1-0.4c3.7,1.2,7.5,1.9,11.4,1.9c3.9,0,7.7-0.6,11.4-1.9c0,0.1-0.1,0.3-0.1,0.4c-0.1,0.3-0.2,0.7-0.2,1
			c-1.2,0.4-2.4,0.7-3.5,1C23.5,133,23.3,133.1,23.1,133.1z"/>
	</g>
</svg>
