<svg width="32" height="232" viewBox="0 0 32 232" xmlns="http://www.w3.org/2000/svg"><g fill="none"><path d="M30.517 149.72h-.683v-3.99c.147-.1.244-.272.244-.467s-.097-.366-.244-.467v-.742c.147-.1.244-.27.244-.466s-.097-.367-.244-.467v-.74c.147-.1.244-.27.244-.46s-.098-.37-.247-.47c-.01-.29-.25-.52-.53-.52-.29 0-.52.24-.54.53-.15.1-.24.27-.24.47 0 .2.1.37.25.47v.74c-.14.1-.24.27-.24.47s.1.37.24.47v.75c-.14.1-.24.27-.24.47s.1.37.25.47v3.99H26.9v-10c2.01-.94 3.287-2.22 3.287-3.82 0-.62-.487-1.12-1.085-1.12s-1.082.5-1.082 1.12c0 .21-.14.47-.42.76l-3.65-1.52-.12-.04v-2.23c1.385-.342 2.626-.79 3.636-1.34l.218-.12c1.546-.89 2.496-2.03 2.496-3.41 0-.615-.483-1.115-1.08-1.115s-1.084.5-1.084 1.116c0 .36-.395.87-1.24 1.38-.313-.003-.62-.03-.93-.06v-.88c0-.31-.24-.56-.54-.56-.3 0-.54.25-.54.56v.7c-3.327-.735-6.207-3.04-7.69-6.28-.09-.227-.248-.425-.467-.554v-1.71c0-.305-.24-.56-.54-.56-.3 0-.54.255-.54.56v1.71c-.23.136-.4.346-.48.59-1.49 3.225-4.36 5.52-7.68 6.252v-.703c0-.31-.25-.56-.54-.56-.3 0-.55.25-.55.56v.885c-.31.04-.62.06-.93.07-.85-.515-1.24-1.016-1.24-1.376 0-.62-.49-1.12-1.09-1.12s-1.08.5-1.08 1.115c0 1.38.95 2.52 2.5 3.41l.22.12c1.01.55 2.25.99 3.63 1.34v2.23l-.12.04-3.65 1.52c-.29-.28-.42-.54-.42-.75 0-.618-.49-1.118-1.09-1.118s-1.09.5-1.09 1.12c0 1.6 1.28 2.88 3.29 3.82v10H3.27v-3.99c.145-.1.242-.27.242-.468s-.1-.366-.246-.467v-.74c.148-.1.245-.27.245-.47s-.1-.36-.24-.46v-.74c.15-.1.25-.274.25-.47s-.1-.368-.25-.468c-.01-.3-.25-.53-.53-.53-.29 0-.52.23-.54.523-.15.1-.24.27-.24.47 0 .19.1.362.25.462v.74c-.14.1-.24.274-.24.47s.1.37.25.47v.74c-.14.1-.24.27-.24.466s.1.37.24.47v3.99H1.5c-.6 0-1.085.5-1.085 1.117S.89 152 1.49 152h29.03c.597 0 1.082-.5 1.082-1.12s-.486-1.118-1.085-1.118zm-8.867-14.673h-.635v-1.65l.635-.095v1.745zm-9.47-1.514c1.263.135 2.57.204 3.876.204 1.305 0 2.612-.07 3.877-.204v1.514H12.18v-1.514zm3.876-8.02c1.604 2.482 3.954 4.342 6.647 5.317-1.967.437-4.25.672-6.647.672s-4.68-.235-6.647-.672c2.69-.975 5.04-2.835 6.64-5.316zm-4.96 7.885v1.65h-.634V133.3l.635.096zm-2.302 3.884H23.32l1.816.76-.22.08c-2.35.837-5.497 1.298-8.86 1.298-3.363 0-6.51-.46-8.86-1.298l-.22-.08 1.817-.76zm3.266 4.154c-1.057.485-2.026 1.164-2.866 2.015v-2.46c.913.19 1.875.35 2.866.46zm-2.866 3.687c1.67-2.187 4.16-3.44 6.862-3.44 2.703 0 5.193 1.252 6.862 3.44v1.563c-1.36-2.464-3.925-4.13-6.862-4.13-2.938 0-5.504 1.666-6.862 4.13v-1.563zm13.724-1.672c-.84-.85-1.81-1.53-2.866-2.01.99-.11 1.953-.26 2.866-.45v2.47zm-15.52-2.91l.713.2v8.99H7.4v-9.18zm1.916 9.19c.464-3.41 3.31-6.05 6.742-6.05s6.278 2.64 6.742 6.05H9.315zm14.686-9l.714-.19v9.19H24v-8.99z" fill="#206FAC"/><path d="M30.517 109.72h-.683v-3.99c.147-.1.244-.272.244-.467s-.097-.366-.244-.467v-.742c.147-.1.244-.27.244-.466s-.097-.367-.244-.467v-.74c.147-.1.244-.27.244-.46s-.098-.37-.247-.47c-.01-.29-.25-.52-.53-.52-.29 0-.52.24-.54.53-.15.1-.24.27-.24.47 0 .2.1.37.25.47v.74c-.14.1-.24.27-.24.47s.1.37.24.47v.75c-.14.1-.24.27-.24.47s.1.37.25.47v3.99H26.9v-10c2.01-.94 3.287-2.22 3.287-3.82 0-.62-.487-1.12-1.085-1.12s-1.1.49-1.1 1.11c0 .21-.135.47-.42.76l-3.646-1.52-.12-.04V92.9c1.385-.348 2.626-.797 3.636-1.34l.21-.12c1.54-.89 2.49-2.038 2.49-3.42 0-.62-.488-1.12-1.086-1.12S28 87.36 28 87.98c0 .36-.394.862-1.24 1.376-.312-.008-.62-.03-.927-.065v-.88c0-.31-.242-.56-.54-.56-.3 0-.542.25-.542.56v.71c-3.32-.73-6.2-3.04-7.68-6.28-.09-.23-.24-.42-.46-.55v-1.71c0-.3-.24-.56-.54-.56-.3 0-.54.26-.54.56v1.71c-.23.14-.39.35-.48.59-1.48 3.23-4.36 5.52-7.67 6.26v-.7c0-.31-.24-.56-.54-.56-.3 0-.54.25-.54.56v.89c-.3.04-.61.06-.93.07-.84-.52-1.24-1.02-1.24-1.38 0-.61-.48-1.11-1.08-1.11s-1.09.49-1.09 1.11c0 1.387.95 2.527 2.5 3.42l.22.12c1.01.546 2.26.994 3.64 1.34v2.23l-.12.04-3.65 1.52c-.28-.28-.42-.54-.42-.75 0-.618-.48-1.118-1.08-1.118s-1.08.5-1.08 1.12c0 1.604 1.28 2.88 3.29 3.824v10H3.27v-3.99c.145-.1.242-.27.242-.465s-.097-.364-.244-.465v-.746c.147-.1.244-.27.244-.466s-.097-.37-.244-.47v-.74c.147-.1.244-.27.244-.46s-.098-.37-.247-.47c-.018-.29-.25-.53-.538-.53-.288 0-.52.23-.538.53-.15.1-.25.27-.25.47 0 .194.09.366.24.466v.74c-.15.1-.25.274-.25.47s.09.365.24.465v.74c-.15.1-.25.27-.25.466s.1.37.24.47v3.99h-.7c-.6 0-1.09.5-1.09 1.12S.85 112 1.45 112H30.5c.6 0 1.082-.5 1.082-1.12s-.484-1.115-1.083-1.115zM21.65 95.047h-.635v-1.65l.635-.095v1.745zm-9.47-1.514c1.263.135 2.57.204 3.876.204 1.305 0 2.612-.07 3.877-.204v1.514H12.18v-1.514zm3.876-8.02c1.604 2.482 3.954 4.342 6.647 5.317-1.967.437-4.25.672-6.647.672s-4.68-.235-6.647-.672c2.69-.975 5.04-2.835 6.64-5.316zm-4.96 7.885v1.65h-.634V93.3l.635.096zm-2.302 3.884H23.32l1.816.76-.22.08c-2.35.837-5.497 1.298-8.86 1.298-3.363 0-6.51-.46-8.86-1.298l-.22-.08 1.817-.76zm3.266 4.154c-1.057.485-2.026 1.164-2.866 2.015v-2.46c.913.19 1.875.35 2.866.46zm-2.866 3.687c1.67-2.187 4.16-3.44 6.862-3.44 2.703 0 5.193 1.252 6.862 3.44v1.563c-1.36-2.464-3.925-4.13-6.862-4.13-2.938 0-5.504 1.666-6.862 4.13v-1.563zm13.724-1.672c-.84-.85-1.81-1.53-2.866-2.01.99-.11 1.953-.26 2.866-.45v2.47zm-15.52-2.91l.713.2v8.99H7.4v-9.18zm1.916 9.19c.464-3.41 3.31-6.05 6.742-6.05s6.278 2.64 6.742 6.05H9.315zm14.686-9l.714-.19v9.19H24v-8.99z" fill="#fff"/><path d="M30.517 69.72h-.683v-3.99c.147-.1.244-.272.244-.467s-.097-.366-.244-.467v-.742c.147-.1.244-.27.244-.466s-.097-.367-.244-.467v-.74c.147-.1.244-.27.244-.46s-.098-.37-.247-.47c-.01-.29-.25-.52-.53-.52-.29 0-.52.24-.54.53-.15.1-.24.27-.24.47 0 .2.1.37.25.47v.74c-.14.1-.24.27-.24.47s.1.37.24.47v.75c-.14.1-.24.27-.24.47s.1.37.25.47v3.99H26.9v-10c2.01-.94 3.287-2.22 3.287-3.82 0-.62-.487-1.12-1.085-1.12s-1.1.49-1.1 1.11c0 .21-.135.47-.42.76l-3.646-1.52-.12-.04V52.9c1.385-.348 2.626-.797 3.636-1.34l.21-.12c1.54-.89 2.49-2.038 2.49-3.42 0-.62-.488-1.12-1.086-1.12S28 47.36 28 47.98c0 .36-.394.862-1.24 1.376-.312-.008-.62-.03-.927-.065v-.88c0-.31-.242-.56-.54-.56-.3 0-.542.25-.542.56v.71c-3.32-.73-6.2-3.04-7.68-6.28-.09-.23-.24-.42-.46-.55v-1.71c0-.3-.24-.56-.54-.56-.3 0-.54.26-.54.56v1.71c-.23.14-.39.35-.48.59-1.48 3.23-4.36 5.52-7.67 6.26v-.7c0-.31-.24-.56-.54-.56-.3 0-.54.25-.54.56v.89c-.3.04-.61.06-.93.07-.84-.52-1.24-1.02-1.24-1.38 0-.61-.48-1.11-1.08-1.11s-1.09.49-1.09 1.11c0 1.387.95 2.527 2.5 3.42l.22.12c1.01.546 2.26.994 3.64 1.34v2.23l-.12.04-3.65 1.52c-.28-.28-.42-.54-.42-.75 0-.618-.48-1.118-1.08-1.118s-1.08.5-1.08 1.12c0 1.604 1.28 2.88 3.29 3.824v10H3.27v-3.99c.145-.1.242-.27.242-.465s-.097-.364-.244-.465V64.1c.147-.1.244-.27.244-.466s-.097-.37-.244-.47v-.74c.147-.1.244-.27.244-.46s-.098-.37-.247-.47c-.018-.29-.25-.53-.538-.53-.288 0-.52.23-.538.53-.15.1-.25.27-.25.47 0 .194.09.366.24.466v.74c-.15.1-.25.274-.25.47s.09.365.24.465v.74c-.15.1-.25.27-.25.466s.1.37.24.47v3.99h-.7c-.6 0-1.09.5-1.09 1.12S.85 72 1.45 72H30.5c.6 0 1.082-.5 1.082-1.118s-.484-1.12-1.083-1.12zM21.65 55.047h-.635v-1.65l.635-.095v1.745zm-9.47-1.514c1.263.135 2.57.204 3.876.204 1.305 0 2.612-.07 3.877-.204v1.514H12.18v-1.514zm3.876-8.02c1.604 2.482 3.954 4.342 6.647 5.317-1.967.437-4.25.672-6.647.672s-4.68-.235-6.647-.672c2.69-.975 5.04-2.835 6.64-5.316zm-4.96 7.885v1.65h-.634V53.3l.635.096zm-2.302 3.884H23.32l1.816.76-.22.08c-2.35.837-5.497 1.298-8.86 1.298-3.363 0-6.51-.46-8.86-1.298l-.22-.08 1.817-.76zm3.266 4.154c-1.057.485-2.026 1.164-2.866 2.015v-2.46c.913.2 1.875.35 2.866.46zm-2.866 3.687c1.67-2.187 4.16-3.44 6.862-3.44 2.703 0 5.193 1.252 6.862 3.44v1.563c-1.36-2.464-3.925-4.13-6.862-4.13-2.938 0-5.504 1.666-6.862 4.13v-1.563zm13.724-1.672c-.84-.85-1.81-1.53-2.866-2.01.99-.11 1.953-.26 2.866-.45v2.47zm-15.52-2.91l.713.2v8.99H7.4v-9.19zm1.916 9.19c.464-3.41 3.31-6.05 6.742-6.05s6.278 2.64 6.742 6.05H9.315zm14.686-9l.714-.19v9.19H24v-9z" fill="#67737B"/><path d="M30.517 29.72h-.683v-3.99c.147-.1.244-.272.244-.467s-.097-.366-.244-.467v-.742c.147-.1.244-.27.244-.466s-.097-.367-.244-.467v-.74c.147-.1.244-.27.244-.46s-.098-.37-.247-.47c-.01-.29-.25-.52-.53-.52-.29 0-.52.24-.54.53-.15.1-.24.27-.24.47 0 .2.1.37.25.47v.74c-.14.1-.24.27-.24.47s.1.37.24.47v.75c-.14.1-.24.27-.24.47s.1.37.25.47v3.99H26.9v-10c2.01-.94 3.287-2.22 3.287-3.82 0-.62-.487-1.12-1.085-1.12s-1.1.49-1.1 1.11c0 .21-.135.47-.42.76l-3.646-1.52-.12-.04V12.9c1.385-.348 2.626-.797 3.636-1.34l.21-.12c1.54-.89 2.49-2.038 2.49-3.42 0-.62-.488-1.12-1.086-1.12S28 7.36 28 7.98c0 .36-.394.862-1.24 1.376-.312-.008-.62-.03-.927-.065v-.88c0-.3-.242-.56-.54-.56-.3 0-.542.26-.542.56v.71c-3.32-.73-6.2-3.04-7.68-6.28-.09-.22-.24-.42-.46-.55V.56c0-.308-.24-.56-.54-.56-.3 0-.54.252-.54.56v1.706c-.23.136-.39.346-.48.588-1.48 3.228-4.36 5.52-7.67 6.255V8.4c0-.308-.24-.56-.54-.56-.3 0-.54.252-.54.56v.886c-.3.036-.61.057-.93.065-.85-.51-1.24-1.01-1.24-1.37 0-.61-.48-1.11-1.08-1.11s-1.08.5-1.08 1.12c0 1.38.95 2.52 2.5 3.42l.22.12c1.01.55 2.25 1 3.64 1.35v2.23l-.12.04-3.65 1.52c-.28-.28-.42-.54-.42-.75 0-.61-.48-1.11-1.08-1.11s-1.08.5-1.08 1.12c0 1.61 1.28 2.88 3.29 3.83v10h-2v-3.99c.15-.1.25-.27.25-.46s-.09-.36-.24-.46v-.74c.15-.1.25-.27.25-.464s-.096-.37-.243-.47v-.74c.145-.1.24-.27.24-.47s-.096-.37-.245-.47c-.02-.29-.25-.526-.54-.526-.29 0-.52.23-.54.523-.15.1-.25.275-.25.47 0 .196.09.368.24.468v.74c-.15.1-.25.275-.25.47s.09.366.24.466v.74c-.15.1-.25.27-.25.464s.1.364.24.464v3.99h-.7c-.6 0-1.09.5-1.09 1.12S.864 32 1.458 32H30.5c.6 0 1.082-.5 1.082-1.113s-.484-1.11-1.083-1.11zM21.65 15.047h-.635v-1.65l.635-.095v1.745zm-9.47-1.514c1.263.135 2.57.204 3.876.204 1.305 0 2.612-.07 3.877-.204v1.514H12.18v-1.514zm3.876-8.02c1.604 2.482 3.954 4.342 6.647 5.317-1.967.437-4.25.672-6.647.672s-4.68-.235-6.647-.672c2.69-.975 5.04-2.835 6.64-5.316zm-4.96 7.885v1.65h-.634V13.3l.635.096zm-2.302 3.884H23.32l1.816.76-.22.08c-2.35.837-5.497 1.298-8.86 1.298-3.363 0-6.51-.46-8.86-1.298l-.22-.08 1.817-.76zm3.266 4.154c-1.057.485-2.026 1.164-2.866 2.015v-2.46c.913.2 1.875.35 2.866.46zm-2.866 3.687c1.67-2.187 4.16-3.44 6.862-3.44 2.703 0 5.193 1.252 6.862 3.44v1.563c-1.36-2.464-3.925-4.13-6.862-4.13-2.938 0-5.504 1.666-6.862 4.13v-1.563zm13.724-1.672c-.84-.85-1.81-1.53-2.866-2.01.99-.11 1.953-.26 2.866-.45v2.47zm-15.52-2.91l.713.2v8.99H7.4v-9.19zm1.916 9.19c.464-3.41 3.31-6.05 6.742-6.05s6.278 2.64 6.742 6.05H9.315zm14.686-9l.714-.19v9.19H24v-9z" fill="#3A434E"/></g></svg>