<svg width="32" height="232" viewBox="0 0 32 232" xmlns="http://www.w3.org/2000/svg"><g fill="none"><path d="M20.19 121.218c.066.035.14.054.216.054.074 0 .148-.018.215-.054l.13-.094c.09-.094.14-.223.14-.357 0-.134-.05-.262-.14-.356l-.12-.09c-.08-.04-.18-.06-.28-.05-.1.02-.2.07-.27.15-.09.1-.14.23-.14.36 0 .19.11.37.27.45zm-5.852.915l.4.228.22.42c.084.16.245.26.42.26s.338-.1.424-.26l.218-.42.4-.22c.155-.09.25-.25.25-.44 0-.18-.095-.35-.25-.44l-.4-.23-.218-.41c-.085-.16-.247-.26-.423-.26s-.34.1-.43.26l-.22.42-.4.23c-.16.09-.25.26-.25.44 0 .19.09.36.25.45zm16.255 27.847h-1.3v-23.012c0-.194-.107-.37-.274-.454l-2.03-1.014-.02-.006-.02-.007-.08-.025-.02-.002-.09-.01h-.01l-.01.002-.09.01-.08.026-.01.006-.01.003-2.13 1.014c-.17.09-.28.27-.28.46v9.29h-1.02v-.2c0-.27-.22-.5-.48-.5-.27 0-.48.23-.48.51v.2h-.85v-9.29c0-.19-.11-.37-.28-.45l-2.04-.99-.04-.02h-.01l-.05-.02-.07-.01h-.07l-.21.05-2.07 1.01c-.17.09-.28.26-.28.46v12.72c-.04.07-.06.15-.06.23v5.22h-.46c.04-1.71.05-3.66 0-5.66-.11-4.99-.51-8.78-1.2-11.44v-.01c-.45-1.712-1.02-2.953-1.72-3.74-.62-.692-1.38-1.06-2.19-1.06s-1.57.368-2.19 1.06c-1.78 2-2.72 6.97-2.86 15.19-.04 2.066-.02 4.07.03 5.81-.3.19-.5.525-.51.91L4.79 150h-.26l-.11-16.464 1.01-2.53c.06-.14.05-.298-.02-.432-.07-.132-.19-.226-.333-.253l-.648-.12v-3.9c.15-.09.26-.25.26-.44 0-.24-.16-.44-.38-.49v-1.69c0-.27-.22-.5-.48-.5H3.8v-2.61c0-.28-.217-.51-.48-.51-.268 0-.483.22-.483.5v2.62H2.8c-.265 0-.48.228-.48.506v1.69c-.217.05-.38.25-.38.49 0 .193.105.36.258.44v3.895l-.646.124c-.142.03-.266.12-.335.25s-.077.29-.022.43l1.002 2.52-.108 16.465h-.72c-.53 0-.97.45-.97 1s.43 1.01.96 1.01h29.22c.53 0 .96-.45.96-1.007s-.43-1.005-.97-1.005zm-2.63-9.556h.367v9.556h-3.19v-9.556h2.822zm-1.495-9.053H27v8.05h-.532v-8.05zm-6.483 9.06h.396v4.86l-.39-.09c-.19-.03-.39-.05-.59-.05h-2.27v-4.71h2.86zm1.663 7.21h-2.625 2.625zm-3.157-16.26h.54v8.05h-.53v-8.05zm-1.83 14.77h2.74c.21 0 .4.03.59.08.14.03.27.08.4.13.17.07.33.16.48.25l.05.03h-2.57c-.26 0-.48.23-.48.51v1.01c0 .28.22.5.48.5h4.25c.26.47.44.91.57 1.23l.04.12.11.31-.06.04H5.83l-.047-.01-.02-.05.02-.192.004-.075.26-3.73v-.033l.08-.08h10.55zm-6.02-20.85l1.01 1.06-1.01 1.06-1.01-1.05 1.01-1.05zm3.18 16.39l-.8-.84.79-.82c.01.57.02 1.13.02 1.67zm-2.67 3.47h-1.02l-.5-.52 1.01-1.05 1.01 1.06-.5.53zm-.5-3.25l-1.01-1.06 1.01-1.05 1.01 1.06-1.01 1.06zm0-12.74l1.01 1.06-.34.36c-.21-.12-.44-.18-.68-.18-.23 0-.45.07-.66.18l-.33-.34 1.01-1.05zm2.6 2.71l-.71.74c-.1-.52-.28-.98-.51-1.35l.32-.33.91.95zm-2.59 6.31l-1.01-1.05.43-.45c.18.08.37.13.57.13.21 0 .41-.05.59-.14l.44.46-1.01 1.06zm-1.04-4.62v-.07c.02-.61.16-1.14.36-1.52.06-.11.13-.21.2-.29.12-.14.24-.23.36-.27l.12-.02.17.04c.12.05.24.15.35.3l.17.27c.2.38.34.92.35 1.53v.07c0 .7-.17 1.3-.4 1.7l-.14.22-.02.02c-.14.18-.31.28-.46.28-.082 0-.17-.03-.25-.08l-.16-.13-.02-.02-.124-.15-.066-.103c-.24-.397-.41-1.006-.41-1.715v-.04zm2.35 2.45c.29-.4.5-.93.6-1.54l.82.86-1.04 1.09-.38-.4zm-2.69-4.77c-.24.37-.42.83-.52 1.35l-.68-.71.91-.95.31.32zm-.54 3.25c.11.61.32 1.14.61 1.54l-.36.38-1.04-1.08.8-.83zm1.34 4.49l-1.1 1.15L7.89 139l1.1-1.15 1.1 1.15zm1.19 0l1.1-1.15 1.1 1.15-1.1 1.15-1.1-1.14zm2.51-1.1l-.73-.76.67-.69c.03.47.05.95.07 1.46zm-.73-4.35l.41-.42.09.94-.49-.51zm-.68-4.02l-1.16-1.22 1.05-1.1c.19.49.37 1.09.55 1.86l-.44.46zm-2.22-1.21l-1.17 1.2-.48-.51c.18-.76.37-1.37.55-1.85l1.1 1.146zm-1.85 1.93l-.06.06.02-.1.04.044zm-.44 2.86l.44.46-.53.557.1-1.01zm-.24 3.338l.69.72-.75.785c.01-.52.04-1.02.06-1.5zM7.48 140l.797.834-.807.85c0-.55.003-1.11.01-1.68zm1.477 1.545l1.13 1.18-1.13 1.18-1.127-1.18 1.13-1.18zm2.254 1.18l1.13-1.18 1.13 1.18-1.13 1.18-1.13-1.18zm-3.72 1.064l.79.83-.5.52H7.5l-.027-1.36zm17.66-16.49l1.17-.56v2.76c0 .27.22.5.48.5.27 0 .49-.23.49-.5v-2.75l1.06.53v12.14h-.36v-8.55c0-.28-.21-.5-.48-.5H26c-.265 0-.48.23-.48.51v8.55h-.367V127.3zm-1.13 9.97v12.12c-.18-.46-.46-1.09-.85-1.72v-10.4h.85zm-1.81 0v9.15c-.27-.28-.56-.51-.85-.7v-8.46h.86zm-5-9.98l1.12-.55v2.75c0 .27.22.5.48.5s.48-.23.48-.5v-2.75l1.12.54v12.13H20v-8.55c0-.28-.216-.51-.48-.51h-1.5c-.265 0-.48.22-.48.5v8.55h-.34v-12.1zm-3.68 17.85l-.5-.53.8-.84-.02 1.36h-.27zM3.17 126.45l.153.03.15-.03v3.614h-.3v-3.617zm-.036 6.772l-.81-2.046.55-.108h.9l.55.106-.81 2.045-.04.19.11 16.56h-.53l.11-16.56-.04-.2zm12.75 14.12v.577c.01.1.13.19.29.21h.06c.19 0 .35-.1.36-.22v-.58c-.01-.12-.17-.22-.364-.22h-.078c-.16.02-.286.1-.294.21zm-1.17-.215c-.2 0-.36.1-.37.22v.58c.01.12.17.22.36.22.19 0 .35-.09.36-.21v-.58c-.01-.12-.17-.21-.37-.21zm-1.54 0c-.2 0-.36.1-.37.22v.58c.01.11.13.19.29.21l.07.01c.194 0 .354-.09.364-.21v-.58c-.01-.12-.17-.21-.365-.21zm-1.54 0c-.2 0-.36.1-.37.22v.58c.004.1.11.18.26.21l.104.01.103-.01c.15-.02.26-.1.26-.2v-.58c-.01-.12-.17-.21-.36-.21zm-1.54 0c-.194 0-.354.1-.363.22v.58l.07.12c.07.06.18.1.3.1.2 0 .36-.09.37-.21v-.58c-.01-.12-.17-.21-.36-.21zm-1.53 0l-.013.01c-.19.01-.34.1-.35.22v.58c.01.08.08.15.18.18l.19.04c.2 0 .36-.09.37-.21v-.58c-.01-.12-.17-.213-.36-.213zm-1.342.04l-.19-.03c-.197 0-.357.1-.366.22v.58c.01.12.17.22.37.22.2 0 .36-.09.367-.21v-.58c-.003-.074-.07-.14-.17-.18z" fill="#206FAC"/><path d="M20.19 81.218c.066.035.14.054.216.054.074 0 .148-.018.215-.054l.13-.094c.09-.094.14-.223.14-.357 0-.134-.05-.262-.14-.356l-.12-.09c-.08-.04-.18-.06-.28-.05-.1.02-.2.07-.27.15-.09.1-.14.23-.14.36 0 .19.11.37.27.45zm-5.852.915l.4.228.22.42c.084.16.245.26.42.26s.338-.1.424-.26l.218-.42.4-.22c.155-.09.25-.25.25-.44 0-.18-.095-.35-.25-.44l-.4-.23-.218-.41c-.085-.16-.247-.26-.423-.26s-.34.1-.43.26l-.22.42-.4.23c-.16.09-.25.26-.25.44 0 .19.09.36.25.45zm16.255 27.847h-1.3V86.968c0-.194-.107-.37-.274-.454L26.99 85.5l-.014-.006-.016-.007-.077-.025-.013-.002-.087-.01h-.002v.002l-.08.01-.08.026-.01.006v.003l-2.13 1.014c-.17.09-.28.27-.28.46v9.29h-1.02v-.2c0-.27-.21-.5-.48-.5-.26 0-.48.23-.48.51v.2h-.85v-9.29c0-.19-.1-.37-.27-.45l-2.04-.99-.04-.02H19l-.05-.02-.07-.01h-.08l-.21.05-2.065 1.01c-.17.09-.276.26-.276.46v12.7c-.04.07-.06.15-.06.23v5.22h-.47c.03-1.7.04-3.66 0-5.66-.12-4.99-.51-8.78-1.21-11.44l-.01-.003c-.45-1.72-1.02-2.96-1.72-3.74-.62-.7-1.38-1.066-2.19-1.066s-1.57.365-2.19 1.06c-1.78 2-2.72 6.968-2.87 15.188-.038 2.07-.017 4.07.03 5.81-.297.19-.5.528-.506.91L4.802 110h-.27l-.11-16.47 1-2.525c.054-.14.046-.3-.023-.434-.07-.13-.2-.22-.34-.25l-.65-.12v-3.9c.155-.08.26-.25.26-.44 0-.24-.163-.44-.38-.49v-1.69c0-.27-.215-.5-.48-.5h-.03v-2.62c0-.28-.217-.5-.48-.5-.268 0-.483.23-.483.51v2.62H2.8c-.265 0-.48.23-.48.51v1.69c-.217.05-.38.25-.38.49 0 .2.105.36.258.45v3.89l-.646.13c-.142.03-.266.12-.335.26s-.077.29-.022.43l1.002 2.53L2.09 110h-.72c-.53 0-.97.45-.97 1.005 0 .552.43 1.003.962 1.003h29.22c.53 0 .962-.45.962-1.006S31.114 110 30.58 110zm-2.63-9.556h.367v9.556h-3.19v-9.556h2.822zm-1.495-9.053H27v8.05h-.532v-8.05zm-6.483 9.06h.396v4.86l-.39-.09c-.19-.03-.39-.05-.59-.05h-2.27v-4.71h2.86zm1.663 7.21h-2.625 2.625zM18.49 91.38h.54v8.046h-.53v-8.05zm-1.83 14.767h2.74c.205 0 .4.028.59.074.136.03.27.08.396.13.168.07.328.16.48.25l.047.03h-2.57c-.265 0-.48.23-.48.51v1.01c0 .28.215.5.48.5h4.255c.253.47.44.91.563 1.23l.04.12.11.31-.06.04H5.83l-.045-.01-.027-.05.013-.19.01-.07.26-3.73v-.03l.08-.076h10.55zm-6.02-20.854l1.01 1.056-1.01 1.05-1.01-1.06 1.01-1.06zm3.177 16.384l-.807-.846.79-.82c.01.57.015 1.13.017 1.67zm-2.672 3.464H10.13l-.503-.52 1.01-1.05 1.01 1.06-.504.53zm-.506-3.25l-1.01-1.05 1.01-1.05 1.01 1.06-1.01 1.06zm0-12.74l1.01 1.06-.34.36c-.22-.12-.44-.18-.69-.18-.24 0-.46.07-.67.18l-.33-.34 1.01-1.05zm2.59 2.72l-.71.74c-.1-.52-.28-.98-.52-1.35l.32-.33.9.95zm-2.6 6.31l-1.01-1.06.42-.44c.18.09.37.13.57.13.2 0 .4-.05.59-.14l.43.46-1.01 1.06zm-1.05-4.62v-.07c.01-.61.15-1.14.35-1.52.06-.11.12-.21.19-.29.11-.14.23-.23.36-.27l.12-.02.16.04c.12.05.24.15.35.3l.17.27c.2.38.33.92.34 1.53v.07c0 .7-.16 1.3-.4 1.7l-.14.22-.02.02c-.15.18-.31.28-.47.28-.08 0-.17-.03-.25-.08l-.16-.13-.02-.02-.13-.16-.07-.1c-.237-.39-.41-1-.41-1.71l.002-.03zM11.95 96c.285-.4.495-.936.6-1.548l.82.86-1.04 1.085-.38-.398zm-2.7-4.767c-.24.363-.42.822-.525 1.343l-.684-.716.9-.947.31.32zm-.548 3.24c.107.61.32 1.14.606 1.54l-.366.38-1.038-1.084.8-.84zm1.34 4.493l-1.1 1.147-1.096-1.147 1.097-1.148 1.1 1.148zm1.184 0l1.098-1.148 1.098 1.148-1.098 1.147-1.098-1.147zm2.51-1.095l-.73-.76.663-.69.06 1.46zm-.73-4.35l.403-.42.09.94-.5-.51zm-.68-4.02l-1.164-1.22 1.05-1.09c.185.49.372 1.09.55 1.86l-.437.46zm-2.22-1.21L8.944 89.5l-.483-.506c.17-.765.36-1.374.55-1.856l1.09 1.146zM8.262 90.2l-.06.064.018-.107.042.044zm-.44 2.857l.44.46-.533.556.09-1.015zm-.247 3.337l.687.718-.75.783c.018-.52.04-1.02.063-1.5zm-.112 3.602l.798.834-.8.846c0-.552.01-1.113.01-1.68zm1.478 1.545l1.13 1.18-1.13 1.18-1.12-1.18 1.13-1.18zm2.26 1.18l1.13-1.18 1.13 1.18-1.13 1.18-1.13-1.18zm-3.72 1.07l.8.83-.5.53H7.5l-.03-1.35zM25.15 87.3l1.17-.553v2.76c0 .277.212.5.48.5.263 0 .48-.224.48-.5V86.76l1.06.53v12.13h-.37v-8.55c0-.28-.215-.504-.48-.504h-1.5c-.266 0-.48.225-.48.503v8.55h-.37V87.29zm-1.13 9.978v12.12c-.18-.46-.46-1.088-.85-1.72v-10.4h.85zm-1.815 0v9.157c-.27-.275-.555-.51-.85-.7v-8.46h.853zm-5.003-9.98l1.117-.545v2.75c0 .276.21.5.48.5s.48-.225.48-.5v-2.75l1.11.54v12.13h-.4v-8.55c0-.276-.22-.5-.48-.5h-1.5c-.27 0-.48.224-.48.502v8.56h-.34V87.3zm-3.68 17.847l-.505-.525.8-.84-.02 1.364h-.277zM3.16 86.45l.154.03.153-.03v3.618h-.31V86.45zm-.035 6.776l-.81-2.046.55-.107h.902l.55.107-.81 2.046-.04.196.11 16.56h-.53l.11-16.56-.037-.196zm12.75 14.12v.577c.01.104.132.19.294.21l.06.003h.01c.2 0 .36-.095.37-.214v-.578c-.01-.12-.17-.214-.37-.214h-.02l-.06.005c-.16.02-.29.105-.29.21zm-1.166-.215c-.19 0-.35.1-.36.22v.58c.01.12.17.22.36.22.2 0 .36-.09.37-.21v-.58c-.01-.12-.17-.21-.37-.21zm-1.53 0c-.2 0-.36.1-.37.22v.58c.01.11.13.19.29.21l.07.01c.19 0 .35-.09.36-.21v-.58c-.01-.12-.17-.21-.37-.21zm-1.54 0c-.2 0-.36.1-.37.22v.58c0 .1.11.18.26.21l.1.01.1-.01c.14-.02.25-.1.26-.2v-.58c-.01-.12-.17-.21-.37-.21zm-1.54 0c-.2 0-.36.1-.37.22v.58l.06.12c.07.06.18.1.3.1.2 0 .36-.09.37-.21v-.58c-.02-.12-.17-.21-.37-.21zm-1.53 0l-.02.01c-.19.01-.35.1-.36.22v.58c0 .08.07.15.18.18l.19.04c.19 0 .35-.09.36-.21v-.58c-.01-.12-.17-.21-.37-.21zm-1.34.04l-.2-.03c-.2 0-.36.1-.37.22v.58c.01.12.17.22.37.22.19 0 .35-.09.36-.21v-.58c-.01-.07-.07-.14-.17-.18z" fill="#fff"/><path d="M20.19 41.218c.066.035.14.054.216.054.074 0 .148-.018.215-.054l.13-.094c.09-.094.14-.223.14-.357 0-.134-.05-.262-.14-.356l-.12-.09c-.08-.04-.18-.06-.28-.05-.1.02-.2.07-.27.15-.09.1-.14.23-.14.36 0 .19.11.37.27.45zm-5.852.915l.4.228.22.42c.084.16.245.26.42.26s.338-.1.424-.26l.218-.42.4-.22c.155-.09.25-.25.25-.44 0-.18-.095-.35-.25-.44l-.4-.23-.218-.41c-.085-.16-.247-.26-.423-.26s-.34.1-.43.26l-.22.42-.4.23c-.16.09-.25.26-.25.44 0 .19.09.36.25.45zM30.593 69.98h-1.3V46.968c0-.194-.107-.37-.274-.454L26.99 45.5l-.014-.006-.016-.007-.077-.025-.013-.002-.087-.01h-.002v.002l-.08.01-.08.026-.01.006v.003l-2.13 1.014c-.17.09-.28.27-.28.46v9.29h-1.02v-.2c0-.27-.21-.5-.48-.5-.26 0-.48.23-.48.51v.2h-.85v-9.29c0-.19-.1-.37-.27-.45l-2.04-.99-.04-.02H19l-.05-.02-.07-.01h-.08l-.21.05-2.065 1.01c-.17.09-.276.26-.276.46v12.7c-.04.07-.06.15-.06.23v5.22h-.47c.03-1.7.04-3.66 0-5.66-.12-4.99-.51-8.78-1.21-11.44l-.01-.003c-.45-1.72-1.02-2.96-1.72-3.74-.62-.7-1.38-1.066-2.19-1.066s-1.57.365-2.19 1.06c-1.78 2-2.72 6.968-2.87 15.188-.038 2.07-.017 4.07.03 5.81-.297.19-.5.528-.506.91L4.802 70h-.27l-.11-16.47 1-2.525c.054-.14.046-.3-.023-.434-.07-.13-.2-.22-.34-.25l-.65-.12v-3.9c.155-.08.26-.25.26-.44 0-.24-.163-.44-.38-.49v-1.69c0-.27-.215-.5-.48-.5h-.03v-2.62c0-.28-.217-.5-.48-.5-.268 0-.483.23-.483.51v2.62H2.8c-.265 0-.48.23-.48.51v1.69c-.217.05-.38.25-.38.49 0 .2.105.36.258.45v3.89l-.646.13c-.142.03-.266.12-.335.26s-.077.29-.022.43l1.002 2.53L2.09 70h-.715c-.53 0-.962.45-.962 1.01 0 .553.43 1.004.962 1.004H30.59c.532 0 .963-.45.963-1.008S31.123 70 30.59 70zm-2.63-9.556h.367v9.556h-3.19v-9.556h2.822zm-1.495-9.053H27v8.05h-.532v-8.05zm-6.483 9.06h.396v4.86l-.39-.09c-.19-.03-.39-.05-.59-.05h-2.27v-4.71h2.86zm1.663 7.21h-2.625 2.625zM18.49 51.38h.54v8.046h-.53v-8.05zm-1.83 14.76h2.74c.205 0 .4.027.59.073.136.032.27.076.396.13.168.07.328.154.48.252l.047.032h-2.57c-.265 0-.48.225-.48.502v1c0 .28.215.5.48.5h4.255c.253.46.44.91.563 1.23l.04.11.11.3-.06.03H5.83l-.048-.01-.027-.05.013-.2.005-.08.26-3.73v-.03l.08-.07h10.55zm-6.02-20.855l1.01 1.056-1.01 1.06-1.01-1.05 1.01-1.05zm3.17 16.385l-.808-.846.79-.826c.01.564.016 1.123.018 1.67zm-2.673 3.464h-1.013l-.503-.527 1.01-1.056 1.01 1.06-.5.53zm-.507-3.255l-1.01-1.06 1.01-1.06 1.01 1.05-1.01 1.05zm0-12.74l1.01 1.05-.342.35c-.212-.12-.44-.19-.682-.19-.234 0-.457.06-.664.17l-.332-.35 1.01-1.06zm2.596 2.71l-.71.74c-.1-.52-.28-.99-.518-1.35l.323-.34.91.94zm-2.596 6.31L9.62 57.1l.427-.446c.18.083.37.13.57.13.206 0 .404-.05.59-.14l.434.455-1.01 1.05zm-1.043-4.62v-.07c.016-.62.157-1.15.356-1.52.06-.12.124-.21.193-.3.114-.14.237-.23.36-.27l.12-.02.164.03c.12.05.24.15.35.29l.17.27c.198.38.336.91.346 1.53v.01l.002.06c0 .7-.167 1.3-.398 1.69l-.147.21-.017.02c-.148.17-.31.27-.468.27-.083 0-.168-.03-.25-.08l-.158-.13-.02-.02-.127-.16-.067-.107c-.237-.395-.41-1.004-.41-1.713l.002-.033zm2.353 2.45c.284-.4.494-.94.598-1.55l.822.86-1.04 1.08-.38-.4zm-2.693-4.76c-.24.36-.422.82-.526 1.34l-.68-.72.91-.95.31.32zM8.7 54.47c.107.61.32 1.14.606 1.54l-.366.38-1.038-1.085.8-.84zm1.34 4.492l-1.1 1.147-1.096-1.15 1.096-1.15 1.1 1.14zm1.184 0l1.098-1.148 1.098 1.148-1.098 1.147-1.098-1.15zm2.51-1.095l-.73-.76.663-.69c.026.464.048.95.068 1.456zm-.73-4.353l.403-.422.09.94-.494-.516zm-.68-4.027l-1.164-1.22 1.05-1.096c.185.49.372 1.1.55 1.86l-.437.46zm-2.22-1.214L8.942 49.49l-.483-.506c.17-.765.36-1.374.55-1.856l1.09 1.146zM8.262 50.2l-.06.064.018-.107.042.044zm-.44 2.857l.44.46-.533.556.09-1.015zm-.247 3.337l.687.718-.75.783c.018-.52.04-1.02.063-1.5zm-.112 3.602l.798.834-.8.846c0-.552.01-1.113.01-1.68zM8.94 61.54l1.13 1.18-1.13 1.18-1.127-1.18 1.13-1.18zm2.254 1.18l1.13-1.18 1.13 1.18-1.13 1.18-1.13-1.18zM7.47 63.782l.792.83-.503.527H7.5l-.03-1.36zm17.67-16.488l1.168-.556v2.76c0 .276.216.5.48.5.267 0 .482-.225.482-.5v-2.744l1.06.53V59.42h-.367v-8.55c0-.28-.215-.504-.48-.504h-1.495c-.266 0-.48.225-.48.503v8.55h-.368V47.29zm-1.128 9.975v12.11c-.18-.46-.46-1.09-.852-1.72v-10.4h.852zm-1.815 0v9.15c-.273-.28-.558-.51-.853-.7v-8.45h.853zm-5.006-9.98l1.12-.55v2.75c0 .28.22.5.48.5s.49-.23.49-.51v-2.74l1.12.54v12.13H20v-8.55c0-.28-.216-.51-.48-.51h-1.5c-.265 0-.48.22-.48.5v8.56h-.34V47.3zm-3.68 17.84l-.5-.53.8-.84-.02 1.36h-.27zM3.17 46.45l.153.03.154-.03v3.618H3.17V46.45zm-.036 6.776l-.81-2.046.55-.107h.9l.55.107-.81 2.046-.035.196.11 16.56h-.53l.11-16.56-.04-.196zm12.75 14.12v.577c.01.104.13.19.294.21l.057.003h.013c.197 0 .357-.095.367-.214v-.578c-.01-.12-.17-.214-.37-.214h-.015l-.058.005c-.163.02-.286.105-.294.21zm-1.166-.215c-.197 0-.357.1-.366.22v.58c.01.12.17.22.366.22.197 0 .357-.09.367-.21v-.58c-.01-.12-.17-.21-.37-.21zm-1.533 0c-.2 0-.36.1-.37.22v.58c.01.11.13.19.293.21l.075.01c.198 0 .358-.09.368-.21v-.58c-.01-.12-.17-.21-.36-.21zm-1.536 0c-.2 0-.36.1-.37.22v.58c.01.1.11.18.26.21l.11.01.1-.01c.14-.02.25-.1.26-.2v-.58c-.01-.12-.17-.21-.37-.21zm-1.54 0c-.2 0-.36.1-.37.22v.58l.06.12c.07.06.18.1.3.1.2 0 .36-.09.37-.21v-.58c-.01-.12-.17-.21-.37-.21zm-1.54 0l-.02.01c-.19.01-.35.1-.36.22v.58c.01.08.08.15.18.18l.19.04c.19 0 .35-.09.36-.21v-.58c-.01-.12-.17-.21-.37-.21zm-1.35.04l-.19-.03c-.2 0-.36.1-.37.22v.58c.01.12.17.22.36.22.19 0 .35-.09.36-.21v-.58c-.01-.07-.08-.14-.18-.18z" fill="#67737B"/><path d="M20.19 1.218c.066.035.14.054.216.054.074 0 .148-.018.215-.054l.13-.094c.09-.094.14-.223.14-.357 0-.134-.05-.262-.14-.356l-.13-.09c-.08-.04-.18-.06-.27-.05-.1.02-.2.07-.27.15-.09.1-.14.23-.14.36 0 .19.11.37.27.45zm-5.852.915l.4.228.22.42c.084.16.245.26.42.26s.338-.1.424-.26l.218-.42.4-.22c.155-.09.25-.25.25-.44 0-.18-.095-.35-.25-.44l-.4-.23-.218-.41c-.085-.16-.247-.26-.423-.26s-.34.1-.43.26l-.22.42-.4.23c-.16.09-.25.26-.25.44 0 .19.09.36.25.45zM30.593 29.98h-1.3V6.968c0-.194-.107-.37-.274-.454L26.99 5.5l-.014-.006-.016-.007-.077-.025-.013-.002-.087-.01h-.002v.002l-.08.01-.08.026-.01.006v.003L24.48 6.51c-.174.09-.285.27-.285.46v9.29h-1.02v-.2c0-.27-.216-.5-.48-.5-.267 0-.482.23-.482.51v.2h-.85v-9.3c0-.19-.106-.37-.276-.45l-2.04-.99L19 5.51h-.006l-.05-.02-.07-.014-.054-.01h-.02l-.21.04-2.08 1.02c-.17.083-.276.26-.276.456V19.7c-.032.07-.054.146-.054.23v5.21h-.47c.034-1.71.045-3.66 0-5.66-.112-4.997-.508-8.787-1.202-11.44l-.002-.01c-.448-1.71-1.02-2.955-1.72-3.74-.62-.694-1.378-1.06-2.188-1.06-.81 0-1.57.37-2.19 1.063-1.78 2-2.718 6.965-2.86 15.185-.04 2.064-.02 4.07.03 5.81-.3.187-.5.523-.51.91L4.8 29.98h-.27l-.11-16.47 1.006-2.52c.054-.14.046-.3-.023-.433-.07-.133-.193-.227-.335-.254l-.646-.125v-3.9c.152-.086.256-.25.256-.444 0-.24-.162-.442-.38-.49V3.66c0-.276-.214-.5-.48-.5h-.03V.544c0-.278-.216-.503-.48-.503-.267 0-.482.23-.482.51v2.61H2.8c-.265 0-.48.23-.48.51v1.69c-.217.05-.38.25-.38.49 0 .2.105.36.258.45v3.9l-.646.12c-.142.03-.266.12-.335.25s-.077.3-.022.44l1.002 2.53L2.09 30h-.715c-.53 0-.962.45-.962 1.003 0 .557.43 1.008.962 1.008H30.59c.532 0 .963-.45.963-1S31.123 30 30.59 30zm-2.63-9.556h.367v9.556h-3.19v-9.556h2.822zm-1.495-9.053H27v8.05h-.532v-8.05zm-6.483 9.06h.396v4.86l-.39-.09c-.19-.03-.39-.05-.59-.05h-2.27v-4.71h2.86zm1.663 7.21h-2.625 2.625zM18.49 11.38h.54v8.046h-.53v-8.05zm-1.83 14.76h2.74c.205 0 .4.027.59.073.136.032.27.076.396.13.168.07.328.154.48.252l.047.032h-2.57c-.265 0-.48.225-.48.502v1c0 .28.215.5.48.5h4.255c.253.46.44.91.563 1.23l.04.11.11.3-.06.03H5.83l-.048-.01-.027-.05.013-.2.005-.08.26-3.73v-.03l.08-.07h10.55zM10.64 5.285l1.01 1.056-1.01 1.06-1.02-1.06 1.01-1.05zm3.17 16.385l-.808-.846.79-.826c.01.564.016 1.123.018 1.67zm-2.673 3.464h-1.013l-.503-.527 1.01-1.056 1.01 1.06-.5.53zm-.507-3.255l-1.01-1.06 1.01-1.06 1.01 1.05-1.01 1.05zm0-12.74l1.01 1.05-.342.35c-.212-.12-.44-.19-.682-.19-.234 0-.457.06-.664.17l-.332-.35 1.01-1.06zm2.596 2.71l-.71.74c-.1-.52-.28-.99-.518-1.35l.323-.34.91.94zm-2.596 6.31L9.62 17.1l.427-.446c.18.083.37.13.57.13.206 0 .404-.05.59-.14l.434.455-1.01 1.05zm-1.043-4.62v-.07c.016-.62.157-1.15.356-1.52.06-.12.124-.21.193-.3.114-.14.237-.23.36-.27l.12-.02.164.03c.12.05.24.15.35.29l.17.27c.198.38.336.91.346 1.53v.01l.002.06c0 .7-.167 1.3-.398 1.69l-.147.21-.017.02c-.148.17-.31.27-.468.27-.083 0-.168-.03-.25-.08l-.158-.13-.02-.02-.127-.16-.067-.107c-.237-.395-.41-1.004-.41-1.713l.002-.033zm2.353 2.45c.284-.4.494-.94.598-1.55l.822.86-1.04 1.08-.38-.4zm-2.693-4.76c-.24.36-.422.82-.526 1.34l-.68-.72.91-.95.31.32zM8.7 14.47c.107.61.32 1.14.606 1.54l-.366.38-1.038-1.085.8-.84zm1.34 4.492l-1.1 1.147-1.096-1.15 1.096-1.15 1.1 1.14zm1.184 0l1.098-1.148 1.098 1.148-1.098 1.147-1.098-1.15zm2.51-1.095l-.73-.76.663-.69c.026.464.048.95.068 1.456zm-.73-4.353l.403-.422.09.94-.494-.516zm-.68-4.027L11.16 8.27l1.05-1.098c.185.485.372 1.092.55 1.856l-.437.457zm-2.22-1.214L8.944 9.49l-.484-.506c.176-.766.363-1.375.55-1.857l1.095 1.146zM8.262 10.2l-.06.064.018-.107.042.044zm-.44 2.857l.44.46-.533.556.09-1.015zm-.247 3.337l.687.718-.75.783c.018-.52.04-1.02.063-1.5zm-.112 3.602l.798.834-.8.846c0-.552.01-1.113.01-1.68zM8.94 21.54l1.13 1.18-1.13 1.18-1.127-1.18 1.13-1.18zm2.254 1.18l1.13-1.18 1.13 1.18-1.13 1.18-1.13-1.18zM7.47 23.782l.792.83-.503.527H7.5l-.03-1.36zM25.14 7.295l1.168-.556V9.5c0 .276.216.5.48.5.267 0 .482-.225.482-.5V6.753l1.06.53V19.42h-.367v-8.55c0-.28-.215-.504-.48-.504h-1.495c-.266 0-.48.225-.48.503v8.55h-.368V7.29zm-1.128 9.975v12.118c-.18-.46-.46-1.087-.852-1.718v-10.4h.852zm-1.815 0v9.156c-.273-.277-.558-.51-.853-.7V17.27h.853zM17.19 7.29l1.115-.546v2.754c0 .278.215.502.48.502s.483-.225.483-.502V6.75l1.114.543v12.13h-.396V10.87c0-.277-.216-.502-.48-.502H18.01c-.265 0-.48.225-.48.503v8.56h-.34V7.3zm-3.683 17.846l-.504-.527.8-.84-.02 1.36h-.277zM3.164 6.45l.153.03.153-.03v3.618h-.306V6.45zm-.036 6.776l-.81-2.046.55-.107h.902l.55.107-.81 2.046-.037.196.11 16.56h-.526l.11-16.56-.037-.196zm12.75 14.12v.577c.01.104.132.19.294.21l.057.003h.01c.19 0 .35-.095.36-.214v-.578c-.01-.12-.17-.214-.37-.214h-.02l-.06.005c-.17.02-.29.105-.3.21zm-1.166-.215c-.197 0-.357.1-.366.22v.58c.01.12.17.22.366.22.197 0 .357-.09.367-.21v-.58c-.01-.12-.17-.21-.37-.21zm-1.533 0c-.2 0-.36.1-.37.22v.58c.01.11.13.19.29.21l.07.01c.19 0 .35-.09.36-.21v-.58c-.01-.12-.17-.21-.37-.21zm-1.54 0c-.2 0-.36.1-.37.22v.58c0 .1.11.18.26.21l.1.01.1-.01c.14-.02.25-.1.26-.2v-.58c-.01-.12-.17-.21-.37-.21zm-1.54 0c-.2 0-.36.1-.37.22v.58l.06.12c.07.06.18.1.3.1.2 0 .36-.09.37-.21v-.58c-.02-.12-.17-.21-.37-.21zm-1.54 0l-.02.01c-.19.01-.35.1-.36.22v.58c.01.08.08.15.18.18l.19.04c.19 0 .35-.09.36-.21v-.58c-.01-.12-.17-.21-.37-.21zm-1.34.04l-.19-.03c-.2 0-.36.1-.37.22v.58c.01.12.17.22.36.22.2 0 .36-.09.36-.21v-.58c-.01-.07-.07-.14-.17-.18z" fill="#3A434E"/></g></svg>