<svg width="32" height="232" viewBox="0 0 32 232" xmlns="http://www.w3.org/2000/svg"><g fill="none">
<path id="XMLID_250_" fill="#3A444F" d="M23.5,13.4l-0.4-3.3c0-0.2-0.2-0.4-0.5-0.4H22c-0.4,0-0.7,0.2-0.9,0.5
				c0-0.1,0-0.2-0.1-0.2l-0.8-1.1l0.5-1.2c0.1-0.2,0-0.4-0.1-0.5c-0.1-0.1-0.3-0.2-0.5-0.1l-1.3,0.4l-0.9-0.7l-0.2-1.1l1-0.9
				c0.1-0.1,0.2-0.3,0.1-0.5c-0.1-0.2-0.2-0.3-0.4-0.3l-1.4-0.2l-0.6-1.2C16.4,2.1,16.2,2,16,2c-0.2,0-0.4,0.1-0.4,0.3L15,3.5
				l-1.4,0.2c-0.2,0-0.3,0.2-0.4,0.3c-0.1,0.2,0,0.4,0.1,0.5l1,0.9l-0.2,1.1l-0.9,0.7l-1.3-0.4c-0.2-0.1-0.4,0-0.5,0.1
				c-0.1,0.1-0.2,0.3-0.1,0.5l0.5,1.2L11,9.9c0,0.1-0.1,0.1-0.1,0.2c-0.2-0.3-0.5-0.5-0.9-0.5H9.4c-0.3,0-0.5,0.2-0.5,0.4l-0.4,3.3
				c0,0,0,0,0,0.1c0,1.1,1.4,1.5,2.2,1.6L10.1,27c0,0.1-0.1,1,0,1.9c0.1,1.2,0.3,2.1,0.6,2.6c0,0.1,0,0.2,0.1,0.2
				c0.1,0.1,0.3,0.2,0.4,0.2c0,0,0.1,0,0.1,0c0,0,0.1,0,0.1,0h9c0,0,0.1,0,0.1,0c0,0,0.1,0,0.1,0c0.2,0,0.3-0.1,0.4-0.2
				c0-0.1,0.1-0.1,0.1-0.2c0.4-0.6,0.6-1.4,0.6-2.6c0.1-1,0-1.8,0-1.9l-0.6-11.8c0.2,0,0.5-0.1,0.7-0.2
				C23.3,14.5,23.5,13.9,23.5,13.4C23.5,13.5,23.5,13.4,23.5,13.4z M18.8,8.3l0.6-0.2l-0.2,0.5c-0.1,0.2,0,0.3,0.1,0.5l0.3,0.5
				l-0.6,0c-0.2,0-0.3,0.1-0.4,0.2l-0.4,0.5L18,9.7c0-0.2-0.2-0.3-0.3-0.3l-0.5-0.2l0.5-0.3c0.1-0.1,0.2-0.2,0.2-0.4l0-0.6l0.5,0.4
				C18.5,8.3,18.7,8.4,18.8,8.3z M16,8.7l-0.9-0.5l0-1L16,6.6l0.9,0.5l0,1L16,8.7z M15.4,4.4c0.2,0,0.3-0.1,0.4-0.3L16,3.6l0.3,0.5
				c0.1,0.1,0.2,0.2,0.4,0.3l0.6,0.1l-0.4,0.4c-0.1,0.1-0.2,0.3-0.1,0.5l0.1,0.6l-0.5-0.3c-0.1-0.1-0.3-0.1-0.5,0l-0.5,0.3l0.1-0.6
				c0-0.2,0-0.3-0.1-0.5l-0.4-0.4L15.4,4.4z M12.8,8.7l-0.2-0.5l0.6,0.2c0.2,0,0.3,0,0.4-0.1l0.5-0.4l0,0.6c0,0.2,0.1,0.3,0.2,0.4
				l0.5,0.3l-0.5,0.2C14.2,9.4,14,9.5,14,9.7l-0.2,0.6l-0.4-0.5c-0.1-0.1-0.2-0.2-0.4-0.2c0,0,0,0,0,0l-0.6,0l0.3-0.5
				C12.8,9,12.9,8.8,12.8,8.7z M11.1,10.9C11.1,10.9,11.1,10.8,11.1,10.9c0-0.2,0-0.2,0-0.3c0.1,0.1,0.2,0.2,0.4,0.1l1.4-0.1l0.8,1
				c0.1,0.1,0.2,0.2,0.4,0.2c0,0,0.1,0,0.1,0c0.2,0,0.3-0.2,0.4-0.4l0.3-1.3L16,9.8l1.1,0.4l0.3,1.3c0,0.2,0.2,0.3,0.4,0.4
				c0,0,0.1,0,0.1,0c0.1,0,0.3-0.1,0.4-0.2l0.8-1l1.4,0.1c0.1,0,0.3,0,0.4-0.1c0,0.1,0,0.2,0,0.3c0,0,0,0,0,0.1l0.2,1.6L20,12.7
				c0,0,0,0,0,0c-0.8,0.2-1.3,0.7-1.3,1.4l0,6.1c-0.7-0.7-1.6-1-2.7-1c-1.1,0-2,0.3-2.6,1l0-6c0-0.7-0.5-1.2-1.3-1.4c0,0,0,0,0,0
				l-1.1-0.2L11.1,10.9z M16,31c-0.6,0-1.4-1.4-1.5-2.6c0.4,0.2,1,0.4,1.5,0.4c0.5,0,1.1-0.2,1.5-0.4C17.4,29.6,16.6,31,16,31z
				 M13.4,24.7c0-0.3-0.1-0.6-0.1-0.9l0-1c1.3-0.1,2.2-0.8,2.7-1.5c0.5,0.7,1.3,1.4,2.6,1.5c0,0,0,0.1,0,0.1l0,1
				c0,0.3,0,0.5-0.1,0.8c-0.1,1-0.6,2.3-1.2,2.6c-0.5,0.2-1.1,0.4-1.4,0.4c-0.3,0-0.8-0.1-1.4-0.4C14.1,27.1,13.6,25.9,13.4,24.7z
				 M16.6,20.2C16.6,20.2,16.6,20.2,16.6,20.2C16.6,20.2,16.6,20.2,16.6,20.2c0.6,0,1.1,0.3,1.4,0.7c0.2,0.2,0.4,0.6,0.5,1
				C17.3,21.7,16.7,20.7,16.6,20.2z M15.5,20.1C15.5,20.2,15.5,20.2,15.5,20.1C15.5,20.2,15.5,20.2,15.5,20.1
				c-0.2,0.5-0.7,1.6-2,1.7c0.1-0.4,0.3-0.7,0.5-1C14.4,20.5,14.9,20.2,15.5,20.1z M9.5,13.5l0.4-2.9H10c0,0,0,0,0,0
				c0,0,0,0.1,0,0.2l-0.2,2c0,0.3,0.1,0.5,0.4,0.6l1.5,0.3c0.2,0,0.5,0.2,0.5,0.4l0,8.8c0,0.3,0,0.7,0,1l0,0.5c0,0.1,0,0.2,0.1,0.2
				c0,0.1,0,0.2,0,0.3c0.1,0.5,0.2,1.3,0.6,2c0,0,0,0.1-0.1,0.1l-1.7,3.3c-0.1-0.4-0.2-0.9-0.2-1.4c-0.1-1,0-1.8,0-1.8c0,0,0,0,0,0
				l0.6-12.3c0-0.3-0.2-0.5-0.5-0.5C10.4,14.1,9.5,13.8,9.5,13.5z M12,31l1.4-2.9c0,0.9,0.4,2.1,0.9,2.9H12z M17.6,31
				c0.6-0.8,0.9-2,0.9-2.9L20,31H17.6z M20.8,14.2c-0.3,0-0.5,0.3-0.5,0.5L20.9,27c0,0,0,0,0,0c0,0,0.1,0.9,0,1.8
				c0,0.6-0.1,1-0.2,1.4l-1.7-3.3c0,0,0-0.1-0.1-0.1c0,0,0-0.1,0-0.1c0.3-0.6,0.5-1.3,0.5-1.9c0-0.1,0-0.2,0-0.3c0-0.1,0-0.1,0-0.2
				l0-0.4c0-0.4,0-0.8,0-1.1l0-8.8c0-0.2,0.4-0.4,0.5-0.4l1.5-0.3c0.3-0.1,0.4-0.3,0.4-0.6l-0.2-2c0-0.1,0-0.1,0-0.2c0,0,0,0,0,0
				h0.2l0.4,2.9C22.5,13.8,21.5,14.1,20.8,14.2z"/>
			<path id="XMLID_249_" fill="#3A444F" d="M16.3,25.5c0.3,0,0.5-0.2,0.5-0.5v-0.8c0.1-0.1,0.4-0.2,0.8-0.2c0.3,0,0.5-0.2,0.5-0.5
				c0-0.3-0.2-0.5-0.5-0.5c-1.1,0-1.6,0.5-1.7,0.6c-0.1,0.1-0.1,0.2-0.1,0.3v1C15.8,25.3,16.1,25.5,16.3,25.5z"/>
			<path id="XMLID_248_" fill="#3A444F" d="M15.6,26.9h0.8c0.3,0,0.5-0.2,0.5-0.5c0-0.3-0.2-0.5-0.5-0.5h-0.8
				c-0.3,0-0.5,0.2-0.5,0.5C15.1,26.7,15.3,26.9,15.6,26.9z"/>
		</g>
		<g id="XMLID_427_">
			<path id="XMLID_453_" fill="#67737C" d="M23.5,53.4l-0.4-3.3c0-0.2-0.2-0.4-0.5-0.4H22c-0.4,0-0.7,0.2-0.9,0.5
				c0-0.1,0-0.2-0.1-0.2l-0.8-1.1l0.5-1.2c0.1-0.2,0-0.4-0.1-0.5c-0.1-0.1-0.3-0.2-0.5-0.1l-1.3,0.4l-0.9-0.7l-0.2-1.1l1-0.9
				c0.1-0.1,0.2-0.3,0.1-0.5c-0.1-0.2-0.2-0.3-0.4-0.3l-1.4-0.2l-0.6-1.2C16.4,42.1,16.2,42,16,42c-0.2,0-0.4,0.1-0.4,0.3L15,43.5
				l-1.4,0.2c-0.2,0-0.3,0.2-0.4,0.3c-0.1,0.2,0,0.4,0.1,0.5l1,0.9l-0.2,1.1l-0.9,0.7l-1.3-0.4c-0.2-0.1-0.4,0-0.5,0.1
				c-0.1,0.1-0.2,0.3-0.1,0.5l0.5,1.2L11,49.9c0,0.1-0.1,0.1-0.1,0.2c-0.2-0.3-0.5-0.5-0.9-0.5H9.4c-0.3,0-0.5,0.2-0.5,0.4l-0.4,3.3
				c0,0,0,0,0,0.1c0,1.1,1.4,1.5,2.2,1.6L10.1,67c0,0.1-0.1,1,0,1.9c0.1,1.2,0.3,2.1,0.6,2.6c0,0.1,0,0.2,0.1,0.2
				c0.1,0.1,0.3,0.2,0.4,0.2c0,0,0.1,0,0.1,0c0,0,0.1,0,0.1,0h9c0,0,0.1,0,0.1,0c0,0,0.1,0,0.1,0c0.2,0,0.3-0.1,0.4-0.2
				c0-0.1,0.1-0.1,0.1-0.2c0.4-0.6,0.6-1.4,0.6-2.6c0.1-1,0-1.8,0-1.9l-0.6-11.8c0.2,0,0.5-0.1,0.7-0.2
				C23.3,54.5,23.5,53.9,23.5,53.4C23.5,53.5,23.5,53.4,23.5,53.4z M18.8,48.3l0.6-0.2l-0.2,0.5c-0.1,0.2,0,0.3,0.1,0.5l0.3,0.5
				l-0.6,0c-0.2,0-0.3,0.1-0.4,0.2l-0.4,0.5L18,49.7c0-0.2-0.2-0.3-0.3-0.3l-0.5-0.2l0.5-0.3c0.1-0.1,0.2-0.2,0.2-0.4l0-0.6l0.5,0.4
				C18.5,48.3,18.7,48.4,18.8,48.3z M16,48.7l-0.9-0.5l0-1l0.9-0.5l0.9,0.5l0,1L16,48.7z M15.4,44.4c0.2,0,0.3-0.1,0.4-0.3l0.3-0.5
				l0.3,0.5c0.1,0.1,0.2,0.2,0.4,0.3l0.6,0.1l-0.4,0.4c-0.1,0.1-0.2,0.3-0.1,0.5l0.1,0.6l-0.5-0.3c-0.1-0.1-0.3-0.1-0.5,0l-0.5,0.3
				l0.1-0.6c0-0.2,0-0.3-0.1-0.5l-0.4-0.4L15.4,44.4z M12.8,48.7l-0.2-0.5l0.6,0.2c0.2,0,0.3,0,0.4-0.1l0.5-0.4l0,0.6
				c0,0.2,0.1,0.3,0.2,0.4l0.5,0.3l-0.5,0.2c-0.2,0.1-0.3,0.2-0.3,0.3l-0.2,0.6l-0.4-0.5c-0.1-0.1-0.2-0.2-0.4-0.2c0,0,0,0,0,0
				l-0.6,0l0.3-0.5C12.8,49,12.9,48.8,12.8,48.7z M11.1,50.9C11.1,50.9,11.1,50.8,11.1,50.9c0-0.2,0-0.2,0-0.3
				c0.1,0.1,0.2,0.2,0.4,0.1l1.4-0.1l0.8,1c0.1,0.1,0.2,0.2,0.4,0.2c0,0,0.1,0,0.1,0c0.2,0,0.3-0.2,0.4-0.4l0.3-1.3l1.1-0.4l1.1,0.4
				l0.3,1.3c0,0.2,0.2,0.3,0.4,0.4c0,0,0.1,0,0.1,0c0.1,0,0.3-0.1,0.4-0.2l0.8-1l1.4,0.1c0.1,0,0.3,0,0.4-0.1c0,0.1,0,0.2,0,0.3
				c0,0,0,0,0,0.1l0.2,1.6L20,52.7c0,0,0,0,0,0c-0.8,0.2-1.3,0.7-1.3,1.4l0,6.1c-0.7-0.7-1.6-1-2.7-1c-1.1,0-2,0.3-2.6,1l0-6
				c0-0.7-0.5-1.2-1.3-1.4c0,0,0,0,0,0l-1.1-0.2L11.1,50.9z M16,71c-0.6,0-1.4-1.4-1.5-2.6c0.4,0.2,1,0.4,1.5,0.4
				c0.5,0,1.1-0.2,1.5-0.4C17.4,69.6,16.6,71,16,71z M13.4,64.7c0-0.3-0.1-0.6-0.1-0.9l0-1c1.3-0.1,2.2-0.8,2.7-1.5
				c0.5,0.7,1.3,1.4,2.6,1.5c0,0,0,0.1,0,0.1l0,1c0,0.3,0,0.5-0.1,0.8c-0.1,1-0.6,2.3-1.2,2.6c-0.5,0.2-1.1,0.4-1.4,0.4
				c-0.3,0-0.8-0.1-1.4-0.4C14.1,67.1,13.6,65.9,13.4,64.7z M16.6,60.2C16.6,60.2,16.6,60.2,16.6,60.2
				C16.6,60.2,16.6,60.2,16.6,60.2c0.6,0,1.1,0.3,1.4,0.7c0.2,0.2,0.4,0.6,0.5,1C17.3,61.7,16.7,60.7,16.6,60.2z M15.5,60.1
				C15.5,60.2,15.5,60.2,15.5,60.1C15.5,60.2,15.5,60.2,15.5,60.1c-0.2,0.5-0.7,1.6-2,1.7c0.1-0.4,0.3-0.7,0.5-1
				C14.4,60.5,14.9,60.2,15.5,60.1z M9.5,53.5l0.4-2.9H10c0,0,0,0,0,0c0,0,0,0.1,0,0.2l-0.2,2c0,0.3,0.1,0.5,0.4,0.6l1.5,0.3
				c0.2,0,0.5,0.2,0.5,0.4l0,8.8c0,0.3,0,0.7,0,1l0,0.5c0,0.1,0,0.2,0.1,0.2c0,0.1,0,0.2,0,0.3c0.1,0.5,0.2,1.3,0.6,2
				c0,0,0,0.1-0.1,0.1l-1.7,3.3c-0.1-0.4-0.2-0.9-0.2-1.4c-0.1-1,0-1.8,0-1.8c0,0,0,0,0,0l0.6-12.3c0-0.3-0.2-0.5-0.5-0.5
				C10.4,54.1,9.5,53.8,9.5,53.5z M12,71l1.4-2.9c0,0.9,0.4,2.1,0.9,2.9H12z M17.6,71c0.6-0.8,0.9-2,0.9-2.9L20,71H17.6z M20.8,54.2
				c-0.3,0-0.5,0.3-0.5,0.5L20.9,67c0,0,0,0,0,0c0,0,0.1,0.9,0,1.8c0,0.6-0.1,1-0.2,1.4l-1.7-3.3c0,0,0-0.1-0.1-0.1c0,0,0-0.1,0-0.1
				c0.3-0.6,0.5-1.3,0.5-1.9c0-0.1,0-0.2,0-0.3c0-0.1,0-0.1,0-0.2l0-0.4c0-0.4,0-0.8,0-1.1l0-8.8c0-0.2,0.4-0.4,0.5-0.4l1.5-0.3
				c0.3-0.1,0.4-0.3,0.4-0.6l-0.2-2c0-0.1,0-0.1,0-0.2c0,0,0,0,0,0h0.2l0.4,2.9C22.5,53.8,21.5,54.1,20.8,54.2z"/>
			<path id="XMLID_429_" fill="#67737C" d="M16.3,65.5c0.3,0,0.5-0.2,0.5-0.5v-0.8c0.1-0.1,0.4-0.2,0.8-0.2c0.3,0,0.5-0.2,0.5-0.5
				s-0.2-0.5-0.5-0.5c-1.1,0-1.6,0.5-1.7,0.6c-0.1,0.1-0.1,0.2-0.1,0.3v1C15.8,65.3,16.1,65.5,16.3,65.5z"/>
			<path id="XMLID_428_" fill="#67737C" d="M15.6,66.9h0.8c0.3,0,0.5-0.2,0.5-0.5s-0.2-0.5-0.5-0.5h-0.8c-0.3,0-0.5,0.2-0.5,0.5
				S15.3,66.9,15.6,66.9z"/>
		</g>
		<g id="XMLID_694_">
			<path id="XMLID_697_" fill="#FFFFFF" d="M23.5,93.4l-0.4-3.3c0-0.2-0.2-0.4-0.5-0.4H22c-0.4,0-0.7,0.2-0.9,0.5
				c0-0.1,0-0.2-0.1-0.2l-0.8-1.1l0.5-1.2c0.1-0.2,0-0.4-0.1-0.5c-0.1-0.1-0.3-0.2-0.5-0.1l-1.3,0.4l-0.9-0.7l-0.2-1.1l1-0.9
				c0.1-0.1,0.2-0.3,0.1-0.5c-0.1-0.2-0.2-0.3-0.4-0.3l-1.4-0.2l-0.6-1.2C16.4,82.1,16.2,82,16,82c-0.2,0-0.4,0.1-0.4,0.3L15,83.5
				l-1.4,0.2c-0.2,0-0.3,0.2-0.4,0.3c-0.1,0.2,0,0.4,0.1,0.5l1,0.9l-0.2,1.1l-0.9,0.7l-1.3-0.4c-0.2-0.1-0.4,0-0.5,0.1
				c-0.1,0.1-0.2,0.3-0.1,0.5l0.5,1.2L11,89.9c0,0.1-0.1,0.1-0.1,0.2c-0.2-0.3-0.5-0.5-0.9-0.5H9.4c-0.3,0-0.5,0.2-0.5,0.4l-0.4,3.3
				c0,0,0,0,0,0.1c0,1.1,1.4,1.5,2.2,1.6L10.1,107c0,0.1-0.1,1,0,1.9c0.1,1.2,0.3,2.1,0.6,2.6c0,0.1,0,0.2,0.1,0.2
				c0.1,0.1,0.3,0.2,0.4,0.2c0,0,0.1,0,0.1,0c0,0,0.1,0,0.1,0h9c0,0,0.1,0,0.1,0c0,0,0.1,0,0.1,0c0.2,0,0.3-0.1,0.4-0.2
				c0-0.1,0.1-0.1,0.1-0.2c0.4-0.6,0.6-1.4,0.6-2.6c0.1-1,0-1.8,0-1.9l-0.6-11.8c0.2,0,0.5-0.1,0.7-0.2
				C23.3,94.5,23.5,93.9,23.5,93.4C23.5,93.5,23.5,93.4,23.5,93.4z M18.8,88.3l0.6-0.2l-0.2,0.5c-0.1,0.2,0,0.3,0.1,0.5l0.3,0.5
				l-0.6,0c-0.2,0-0.3,0.1-0.4,0.2l-0.4,0.5L18,89.7c0-0.2-0.2-0.3-0.3-0.3l-0.5-0.2l0.5-0.3c0.1-0.1,0.2-0.2,0.2-0.4l0-0.6l0.5,0.4
				C18.5,88.3,18.7,88.4,18.8,88.3z M16,88.7l-0.9-0.5l0-1l0.9-0.5l0.9,0.5l0,1L16,88.7z M15.4,84.4c0.2,0,0.3-0.1,0.4-0.3l0.3-0.5
				l0.3,0.5c0.1,0.1,0.2,0.2,0.4,0.3l0.6,0.1l-0.4,0.4c-0.1,0.1-0.2,0.3-0.1,0.5l0.1,0.6l-0.5-0.3c-0.1-0.1-0.3-0.1-0.5,0l-0.5,0.3
				l0.1-0.6c0-0.2,0-0.3-0.1-0.5l-0.4-0.4L15.4,84.4z M12.8,88.7l-0.2-0.5l0.6,0.2c0.2,0,0.3,0,0.4-0.1l0.5-0.4l0,0.6
				c0,0.2,0.1,0.3,0.2,0.4l0.5,0.3l-0.5,0.2c-0.2,0.1-0.3,0.2-0.3,0.3l-0.2,0.6l-0.4-0.5c-0.1-0.1-0.2-0.2-0.4-0.2c0,0,0,0,0,0
				l-0.6,0l0.3-0.5C12.8,89,12.9,88.8,12.8,88.7z M11.1,90.9C11.1,90.9,11.1,90.8,11.1,90.9c0-0.2,0-0.2,0-0.3
				c0.1,0.1,0.2,0.2,0.4,0.1l1.4-0.1l0.8,1c0.1,0.1,0.2,0.2,0.4,0.2c0,0,0.1,0,0.1,0c0.2,0,0.3-0.2,0.4-0.4l0.3-1.3l1.1-0.4l1.1,0.4
				l0.3,1.3c0,0.2,0.2,0.3,0.4,0.4c0,0,0.1,0,0.1,0c0.1,0,0.3-0.1,0.4-0.2l0.8-1l1.4,0.1c0.1,0,0.3,0,0.4-0.1c0,0.1,0,0.2,0,0.3
				c0,0,0,0,0,0.1l0.2,1.6L20,92.7c0,0,0,0,0,0c-0.8,0.2-1.3,0.7-1.3,1.4l0,6.1c-0.7-0.7-1.6-1-2.7-1c-1.1,0-2,0.3-2.6,1l0-6
				c0-0.7-0.5-1.2-1.3-1.4c0,0,0,0,0,0l-1.1-0.2L11.1,90.9z M16,111c-0.6,0-1.4-1.4-1.5-2.6c0.4,0.2,1,0.4,1.5,0.4
				c0.5,0,1.1-0.2,1.5-0.4C17.4,109.6,16.6,111,16,111z M13.4,104.7c0-0.3-0.1-0.6-0.1-0.9l0-1c1.3-0.1,2.2-0.8,2.7-1.5
				c0.5,0.7,1.3,1.4,2.6,1.5c0,0,0,0.1,0,0.1l0,1c0,0.3,0,0.5-0.1,0.8c-0.1,1-0.6,2.3-1.2,2.6c-0.5,0.2-1.1,0.4-1.4,0.4
				c-0.3,0-0.8-0.1-1.4-0.4C14.1,107.1,13.6,105.9,13.4,104.7z M16.6,100.2C16.6,100.2,16.6,100.2,16.6,100.2
				C16.6,100.2,16.6,100.2,16.6,100.2c0.6,0,1.1,0.3,1.4,0.7c0.2,0.2,0.4,0.6,0.5,1C17.3,101.7,16.7,100.7,16.6,100.2z M15.5,100.1
				C15.5,100.2,15.5,100.2,15.5,100.1C15.5,100.2,15.5,100.2,15.5,100.1c-0.2,0.5-0.7,1.6-2,1.7c0.1-0.4,0.3-0.7,0.5-1
				C14.4,100.5,14.9,100.2,15.5,100.1z M9.5,93.5l0.4-2.9H10c0,0,0,0,0,0c0,0,0,0.1,0,0.2l-0.2,2c0,0.3,0.1,0.5,0.4,0.6l1.5,0.3
				c0.2,0,0.5,0.2,0.5,0.4l0,8.8c0,0.3,0,0.7,0,1l0,0.5c0,0.1,0,0.2,0.1,0.2c0,0.1,0,0.2,0,0.3c0.1,0.5,0.2,1.3,0.6,2
				c0,0,0,0.1-0.1,0.1l-1.7,3.3c-0.1-0.4-0.2-0.9-0.2-1.4c-0.1-1,0-1.8,0-1.8c0,0,0,0,0,0l0.6-12.3c0-0.3-0.2-0.5-0.5-0.5
				C10.4,94.1,9.5,93.8,9.5,93.5z M12,111l1.4-2.9c0,0.9,0.4,2.1,0.9,2.9H12z M17.6,111c0.6-0.8,0.9-2,0.9-2.9L20,111H17.6z
				 M20.8,94.2c-0.3,0-0.5,0.3-0.5,0.5l0.6,12.3c0,0,0,0,0,0c0,0,0.1,0.9,0,1.8c0,0.6-0.1,1-0.2,1.4l-1.7-3.3c0,0,0-0.1-0.1-0.1
				c0,0,0-0.1,0-0.1c0.3-0.6,0.5-1.3,0.5-1.9c0-0.1,0-0.2,0-0.3c0-0.1,0-0.1,0-0.2l0-0.4c0-0.4,0-0.8,0-1.1l0-8.8
				c0-0.2,0.4-0.4,0.5-0.4l1.5-0.3c0.3-0.1,0.4-0.3,0.4-0.6l-0.2-2c0-0.1,0-0.1,0-0.2c0,0,0,0,0,0h0.2l0.4,2.9
				C22.5,93.8,21.5,94.1,20.8,94.2z"/>
			<path id="XMLID_696_" fill="#FFFFFF" d="M16.3,105.5c0.3,0,0.5-0.2,0.5-0.5v-0.8c0.1-0.1,0.4-0.2,0.8-0.2c0.3,0,0.5-0.2,0.5-0.5
				s-0.2-0.5-0.5-0.5c-1.1,0-1.6,0.5-1.7,0.6c-0.1,0.1-0.1,0.2-0.1,0.3v1C15.8,105.3,16.1,105.5,16.3,105.5z"/>
			<path id="XMLID_695_" fill="#FFFFFF" d="M15.6,106.9h0.8c0.3,0,0.5-0.2,0.5-0.5s-0.2-0.5-0.5-0.5h-0.8c-0.3,0-0.5,0.2-0.5,0.5
				S15.3,106.9,15.6,106.9z"/>
		</g>
		<g id="XMLID_876_">
			<path id="XMLID_879_" fill="#1D70AD" d="M23.5,133.4l-0.4-3.3c0-0.2-0.2-0.4-0.5-0.4H22c-0.4,0-0.7,0.2-0.9,0.5
				c0-0.1,0-0.2-0.1-0.2l-0.8-1.1l0.5-1.2c0.1-0.2,0-0.4-0.1-0.5c-0.1-0.1-0.3-0.2-0.5-0.1l-1.3,0.4l-0.9-0.7l-0.2-1.1l1-0.9
				c0.1-0.1,0.2-0.3,0.1-0.5c-0.1-0.2-0.2-0.3-0.4-0.3l-1.4-0.2l-0.6-1.2c-0.1-0.2-0.3-0.3-0.4-0.3c-0.2,0-0.4,0.1-0.4,0.3l-0.6,1.2
				l-1.4,0.2c-0.2,0-0.3,0.2-0.4,0.3c-0.1,0.2,0,0.4,0.1,0.5l1,0.9l-0.2,1.1l-0.9,0.7l-1.3-0.4c-0.2-0.1-0.4,0-0.5,0.1
				c-0.1,0.1-0.2,0.3-0.1,0.5l0.5,1.2l-0.8,1.1c0,0.1-0.1,0.1-0.1,0.2c-0.2-0.3-0.5-0.5-0.9-0.5H9.4c-0.3,0-0.5,0.2-0.5,0.4
				l-0.4,3.3c0,0,0,0,0,0.1c0,1.1,1.4,1.5,2.2,1.6L10.1,147c0,0.1-0.1,1,0,1.9c0.1,1.2,0.3,2.1,0.6,2.6c0,0.1,0,0.2,0.1,0.2
				c0.1,0.1,0.3,0.2,0.4,0.2c0,0,0.1,0,0.1,0c0,0,0.1,0,0.1,0h9c0,0,0.1,0,0.1,0c0,0,0.1,0,0.1,0c0.2,0,0.3-0.1,0.4-0.2
				c0-0.1,0.1-0.1,0.1-0.2c0.4-0.6,0.6-1.4,0.6-2.6c0.1-1,0-1.8,0-1.9l-0.6-11.8c0.2,0,0.5-0.1,0.7-0.2
				C23.3,134.5,23.5,133.9,23.5,133.4C23.5,133.5,23.5,133.4,23.5,133.4z M18.8,128.3l0.6-0.2l-0.2,0.5c-0.1,0.2,0,0.3,0.1,0.5
				l0.3,0.5l-0.6,0c-0.2,0-0.3,0.1-0.4,0.2l-0.4,0.5l-0.2-0.6c0-0.2-0.2-0.3-0.3-0.3l-0.5-0.2l0.5-0.3c0.1-0.1,0.2-0.2,0.2-0.4
				l0-0.6l0.5,0.4C18.5,128.3,18.7,128.4,18.8,128.3z M16,128.7l-0.9-0.5l0-1l0.9-0.5l0.9,0.5l0,1L16,128.7z M15.4,124.4
				c0.2,0,0.3-0.1,0.4-0.3l0.3-0.5l0.3,0.5c0.1,0.1,0.2,0.2,0.4,0.3l0.6,0.1l-0.4,0.4c-0.1,0.1-0.2,0.3-0.1,0.5l0.1,0.6l-0.5-0.3
				c-0.1-0.1-0.3-0.1-0.5,0l-0.5,0.3l0.1-0.6c0-0.2,0-0.3-0.1-0.5l-0.4-0.4L15.4,124.4z M12.8,128.7l-0.2-0.5l0.6,0.2
				c0.2,0,0.3,0,0.4-0.1l0.5-0.4l0,0.6c0,0.2,0.1,0.3,0.2,0.4l0.5,0.3l-0.5,0.2c-0.2,0.1-0.3,0.2-0.3,0.3l-0.2,0.6l-0.4-0.5
				c-0.1-0.1-0.2-0.2-0.4-0.2c0,0,0,0,0,0l-0.6,0l0.3-0.5C12.8,129,12.9,128.8,12.8,128.7z M11.1,130.9
				C11.1,130.9,11.1,130.8,11.1,130.9c0-0.2,0-0.2,0-0.3c0.1,0.1,0.2,0.2,0.4,0.1l1.4-0.1l0.8,1c0.1,0.1,0.2,0.2,0.4,0.2
				c0,0,0.1,0,0.1,0c0.2,0,0.3-0.2,0.4-0.4l0.3-1.3l1.1-0.4l1.1,0.4l0.3,1.3c0,0.2,0.2,0.3,0.4,0.4c0,0,0.1,0,0.1,0
				c0.1,0,0.3-0.1,0.4-0.2l0.8-1l1.4,0.1c0.1,0,0.3,0,0.4-0.1c0,0.1,0,0.2,0,0.3c0,0,0,0,0,0.1l0.2,1.6l-1.1,0.2c0,0,0,0,0,0
				c-0.8,0.2-1.3,0.7-1.3,1.4l0,6.1c-0.7-0.7-1.6-1-2.7-1c-1.1,0-2,0.3-2.6,1l0-6c0-0.7-0.5-1.2-1.3-1.4c0,0,0,0,0,0l-1.1-0.2
				L11.1,130.9z M16,151c-0.6,0-1.4-1.4-1.5-2.6c0.4,0.2,1,0.4,1.5,0.4c0.5,0,1.1-0.2,1.5-0.4C17.4,149.6,16.6,151,16,151z
				 M13.4,144.7c0-0.3-0.1-0.6-0.1-0.9l0-1c1.3-0.1,2.2-0.8,2.7-1.5c0.5,0.7,1.3,1.4,2.6,1.5c0,0,0,0.1,0,0.1l0,1
				c0,0.3,0,0.5-0.1,0.8c-0.1,1-0.6,2.3-1.2,2.6c-0.5,0.2-1.1,0.4-1.4,0.4c-0.3,0-0.8-0.1-1.4-0.4C14.1,147.1,13.6,145.9,13.4,144.7
				z M16.6,140.2C16.6,140.2,16.6,140.2,16.6,140.2C16.6,140.2,16.6,140.2,16.6,140.2c0.6,0,1.1,0.3,1.4,0.7c0.2,0.2,0.4,0.6,0.5,1
				C17.3,141.7,16.7,140.7,16.6,140.2z M15.5,140.1C15.5,140.2,15.5,140.2,15.5,140.1C15.5,140.2,15.5,140.2,15.5,140.1
				c-0.2,0.5-0.7,1.6-2,1.7c0.1-0.4,0.3-0.7,0.5-1C14.4,140.5,14.9,140.2,15.5,140.1z M9.5,133.5l0.4-2.9H10c0,0,0,0,0,0
				c0,0,0,0.1,0,0.2l-0.2,2c0,0.3,0.1,0.5,0.4,0.6l1.5,0.3c0.2,0,0.5,0.2,0.5,0.4l0,8.8c0,0.3,0,0.7,0,1l0,0.5c0,0.1,0,0.2,0.1,0.2
				c0,0.1,0,0.2,0,0.3c0.1,0.5,0.2,1.3,0.6,2c0,0,0,0.1-0.1,0.1l-1.7,3.3c-0.1-0.4-0.2-0.9-0.2-1.4c-0.1-1,0-1.8,0-1.8c0,0,0,0,0,0
				l0.6-12.3c0-0.3-0.2-0.5-0.5-0.5C10.4,134.1,9.5,133.8,9.5,133.5z M12,151l1.4-2.9c0,0.9,0.4,2.1,0.9,2.9H12z M17.6,151
				c0.6-0.8,0.9-2,0.9-2.9L20,151H17.6z M20.8,134.2c-0.3,0-0.5,0.3-0.5,0.5l0.6,12.3c0,0,0,0,0,0c0,0,0.1,0.9,0,1.8
				c0,0.6-0.1,1-0.2,1.4l-1.7-3.3c0,0,0-0.1-0.1-0.1c0,0,0-0.1,0-0.1c0.3-0.6,0.5-1.3,0.5-1.9c0-0.1,0-0.2,0-0.3c0-0.1,0-0.1,0-0.2
				l0-0.4c0-0.4,0-0.8,0-1.1l0-8.8c0-0.2,0.4-0.4,0.5-0.4l1.5-0.3c0.3-0.1,0.4-0.3,0.4-0.6l-0.2-2c0-0.1,0-0.1,0-0.2c0,0,0,0,0,0
				h0.2l0.4,2.9C22.5,133.8,21.5,134.1,20.8,134.2z"/>
			<path id="XMLID_878_" fill="#1D70AD" d="M16.3,145.5c0.3,0,0.5-0.2,0.5-0.5v-0.8c0.1-0.1,0.4-0.2,0.8-0.2c0.3,0,0.5-0.2,0.5-0.5
				s-0.2-0.5-0.5-0.5c-1.1,0-1.6,0.5-1.7,0.6c-0.1,0.1-0.1,0.2-0.1,0.3v1C15.8,145.3,16.1,145.5,16.3,145.5z"/>
			<path id="XMLID_877_" fill="#1D70AD" d="M15.6,146.9h0.8c0.3,0,0.5-0.2,0.5-0.5c0-0.3-0.2-0.5-0.5-0.5h-0.8
				c-0.3,0-0.5,0.2-0.5,0.5C15.1,146.7,15.3,146.9,15.6,146.9z"/>
		</g>
	</svg>
