<svg width="32" height="232" viewBox="0 0 32 232" xmlns="http://www.w3.org/2000/svg"><g fill="none"><path d="M16.45 144.6c-.28 0-.4-.05-.568-.12-.202-.085-.453-.19-.91-.19-.46 0-.71.104-.913.188-.17.07-.29.12-.57.12-.28 0-.4-.05-.57-.12-.2-.084-.46-.19-.91-.19-.46 0-.71.105-.91.19-.17.07-.29.12-.57.12-.28 0-.4-.05-.57-.12-.2-.084-.46-.19-.91-.19-.46 0-.71.106-.91.19-.17.07-.29.12-.57.12-.28 0-.4-.05-.57-.12-.2-.083-.46-.19-.91-.19-.46 0-.71.106-.91.19-.17.07-.29.12-.57.12-.26 0-.47.227-.47.507s.21.506.47.506c.46 0 .71-.1.91-.18.17-.07.29-.12.57-.12.28 0 .4.05.56.12.2.09.45.19.91.19s.71-.1.91-.19c.16-.07.28-.12.57-.12.28 0 .4.05.57.12.2.09.45.19.91.19s.71-.1.91-.19c.17-.07.29-.12.57-.12.28 0 .4.05.57.12.2.09.45.19.91.19s.71-.1.91-.19c.17-.07.29-.12.57-.12.28 0 .4.05.57.12.2.09.45.19.91.19.26 0 .47-.22.47-.5s-.21-.5-.47-.5m-5.02-16.97h3.45c.25 0 .49-.1.68-.28.22-.21.35-.51.35-.83l-.01-.09h1.64c.29 0 .56-.11.78-.32.26-.24.4-.59.4-.95s-.15-.71-.41-.95c-.21-.2-.49-.32-.78-.32H12.7c-.657 0-1.19.58-1.19 1.28l.026.26h-.1c-.57 0-1.033.5-1.033 1.11 0 .62.464 1.11 1.034 1.11zm0-1.2h1.26c.26 0 .47-.22.47-.5s-.22-.5-.48-.5c-.14 0-.25-.11-.25-.26 0-.14.11-.26.24-.26h4.85c.07 0 .13.04.16.07s.08.1.08.2-.06.17-.09.2-.09.06-.16.06h-2.67c-.26 0-.476.226-.476.506s.21.506.47.506l.06.027.03.07-.03.07-.06.023H11.4c-.05 0-.09-.04-.09-.096 0-.05.04-.09.09-.09zM31.8 142.7c.06-.134.09-.28.09-.437 0-.56-.42-1.012-.945-1.012h-.14v-.47c0-.22-.14-.42-.34-.48l-.197-.06-.447-.95v-.46c0-.16-.06-.3-.18-.4l-.28-.24-.04-.07v-6.15c.17-.07.28-.25.28-.46 0-.21-.11-.38-.28-.46v-.46h.38c.26 0 .48-.23.48-.51 0-.13-.04-.25-.12-.34l-3.96-5.49v-1.45c0-.28-.21-.5-.47-.5s-.47.227-.47.507v1.45l-3.99 5.52c-.11.153-.13.36-.05.53.08.17.24.28.42.28h.4v.45c-.18.07-.31.258-.31.476 0 .216.13.4.31.47v3.31H21c-.26 0-.473.227-.473.507v.51h-.37v-.51c0-.28-.21-.51-.47-.51H19v-.605h.424c.19 0 .362-.12.435-.31.07-.19.03-.403-.1-.55l-2.07-2.242v-.92c0-.28-.21-.51-.47-.51s-.47.225-.47.504v.52h-1.38v-.526c0-.28-.21-.51-.48-.51s-.47.23-.47.508v.8l-2.17 2.36c-.13.146-.17.36-.1.55.07.19.24.31.43.31h.24v.607h-.69c-.26 0-.47.226-.47.506v.51h-.37v-.51c0-.28-.21-.502-.47-.502h-.63v-3.32c.16-.076.28-.254.28-.46 0-.21-.12-.384-.28-.46v-.465h.38c.26 0 .47-.22.47-.5 0-.13-.05-.25-.13-.34l-3.97-5.49v-1.45c0-.28-.21-.51-.48-.51s-.47.226-.47.506v1.45L2 129.73c-.11.16-.13.36-.05.53.08.18.24.29.42.29h.41v.45c-.18.07-.31.257-.31.475 0 .218.13.4.31.47v6.09l-.07.12-.28.24c-.117.098-.18.24-.18.397v.465l-.45.954-.19.06c-.2.06-.34.26-.34.49v.475h-.3c-.52 0-.945.46-.945 1.018l.027.24c-.05.08-.08.18-.08.28 0 .28.21.5.47.5.28 0 .4.05.57.12.2.08.45.19.91.19s.71-.11.91-.19c.17-.07.29-.12.57-.12.28 0 .4.05.56.12.21.08.46.19.91.19.46 0 .71-.11.92-.19.16-.07.28-.12.57-.12.28 0 .4.05.57.12.2.08.46.19.91.19.38 0 .62-.07.8-.15h1.37c.18.07.42.148.79.148.377 0 .613-.07.797-.144h1.36c.185.07.42.14.8.14.375 0 .61-.07.795-.145h1.36c.18.07.42.14.796.14.38 0 .614-.07.8-.14h1.36c.183.07.42.143.796.143.38 0 .613-.07.8-.143h1.36c.18.07.42.14.793.14.42 0 .665-.09.86-.17v3.05c0 .28.21.505.47.505h2.56c.26 0 .47-.222.47-.502v-.05c-.006-1.225-.165-2.234-.404-3.063.13-.05.25-.09.484-.09.28 0 .4.05.56.12.204.09.455.19.91.19.46 0 .71-.1.915-.19.17-.07.29-.12.57-.12.28 0 .4.05.57.12.2.09.45.19.91.19.26 0 .47-.22.47-.5 0-.167-.07-.31-.18-.4zM8.15 132.53c-.177 0-.32.146-.328.33v1.075h.65v-1.073c-.01-.182-.15-.33-.328-.33zm-3.327 0c-.176 0-.32.146-.327.33v1.075h.647v-1.073c-.007-.182-.15-.33-.324-.33zm1.66 0c-.175 0-.318.146-.326.33v1.075h.65v-1.073c-.003-.182-.15-.33-.32-.33zm1.66 2.692c-.174 0-.317.15-.325.335v1.07h.65v-1.072c-.01-.185-.15-.332-.325-.332zm-3.324 0c-.18 0-.32.15-.33.335v1.07h.65v-1.072c-.01-.185-.15-.332-.33-.332zm1.66 0c-.18 0-.32.15-.33.335v1.07h.65v-1.072c-.01-.185-.15-.332-.33-.332zm20.78-2.69c-.18 0-.32.147-.33.33v1.076h.65v-1.072c-.01-.183-.15-.33-.33-.33zm-3.33 0c-.18 0-.32.147-.33.33v1.076h.65v-1.072c-.01-.183-.15-.33-.33-.33zm1.66 0c-.17 0-.32.147-.32.33v1.076h.65v-1.072c-.01-.183-.15-.33-.33-.33zm1.66 2.693c-.17 0-.32.146-.32.33v1.074h.64v-1.08c-.01-.19-.15-.34-.33-.34zm-3.32 0c-.18 0-.32.146-.33.33v1.074h.65v-1.08c-.01-.19-.15-.34-.33-.34zm1.66 0c-.18 0-.32.146-.33.33v1.074h.65v-1.08c-.01-.19-.15-.34-.33-.34zm-23.38 6.02v-.09l.05-.02c.13-.04.23-.133.29-.26l.59-1.263c.03-.07.05-.15.05-.227v-.34l.16-.14.1-.12.19-.312c.05-.08.07-.176.07-.273v-6.202h5.52v6.25c0 .1.02.194.07.276l.09.148.07.12.1.12.162.14v.34c0 .074.02.15.05.22l.59 1.264c.06.13.162.22.29.26l.052.018v.39h-8.5v-.296zm1.51-10.68h5.52v.42h-5.5v-.42zm7.08 6.73h1.31c.26 0 .47-.226.47-.506v-.51h.22v4.96h-1.14v-.47c0-.23-.14-.43-.34-.49l-.2-.06-.45-.96v-.47c0-.16-.065-.3-.178-.4l-.28-.24-.05-.08v-1.82h.157v.51c0 .28.21.5.47.5zm2.94-2.027v-.62h4.28v7.103h-.68v-2.59c-.04-.82-.67-1.46-1.44-1.46-.77 0-1.398.65-1.434 1.47v2.6h-.736v-6.48zm3.16-3.09l1.342 1.456H13.7l1.275-1.39.15-.07h1.78zm2.752 5.12H21c.26 0 .47-.23.47-.51v-.51h.45v1.77l-.07.12-.28.24c-.113.095-.18.24-.18.394v.46l-.446.956-.2.06c-.202.062-.34.26-.34.486v.474H19v-4.965h.218v.51c0 .28.21.508.472.508zm3.18-6.736h5.51v.42h-5.51v-.42zm-7.41 11.188v-2.557c.016-.28.23-.49.49-.49s.472.21.49.49v2.66h-.98v-.105zm14.415-.507v.29H25.8l-.194-.29c-.453-.65-.906-1.02-1.164-1.2v-1.31c0-.28-.21-.507-.472-.507s-.472.226-.472.506v2.8h-2.145v-.388l.054-.02c.128-.04.234-.13.29-.26l.59-1.26c.036-.07.05-.15.05-.226v-.34l.167-.14.102-.12.19-.314c.047-.08.073-.174.073-.27v-6.205h5.51v6.25c0 .09.02.19.07.27l.16.26.1.12.16.14v.34c0 .08.01.15.05.22l.59 1.26c.06.12.16.22.29.26l.05.01v.09zm-5.43 2.07v-1.98l.18.2c.12.144.247.31.37.507.094.15.19.317.28.502.074.147.144.306.21.477l.02.05.07.18.105.32c.2.64.34 1.43.37 2.38h-1.6v-2.66zm1.17-18.093l3.13 4.326h-6.25l3.126-4.325zm-19.12 0l3.123 4.326H3.36l3.124-4.325zm9.78 11.64v-.935l-.045-.153c-.053-.106-.16-.177-.28-.177-.12 0-.22.07-.28.177l-.04.156V137h.65v-.14m13.66 11.48c-.46 0-.71.106-.91.19-.17.07-.29.12-.57.12-.25 0-.37-.04-.51-.1.49-.34.64-.694.67-.77.05-.153.03-.33-.06-.465s-.23-.22-.39-.22H21.6c-.155 0-.3.08-.39.22-.087.138-.107.31-.05.468.02.06.133.336.48.63-.15-.04-.336-.07-.582-.07-.46 0-.71.104-.912.19-.167.07-.287.12-.568.12-.26 0-.472.224-.472.504s.21.506.472.506c.46 0 .71-.107.91-.19.168-.07.288-.12.57-.12.28 0 .4.05.567.12.202.083.453.19.91.19.46 0 .71-.107.912-.19.167-.07.287-.12.568-.12.28 0 .4.05.568.12.203.083.454.19.912.19.46 0 .71-.107.91-.19.168-.07.288-.12.57-.12.28 0 .4.05.567.12.2.083.452.19.91.19.46 0 .71-.107.912-.19.167-.07.287-.12.568-.12.26 0 .472-.227.472-.507s-.21-.506-.472-.506zm-5.05-.072c-.667 0-1.18-.063-1.578-.16h3.15c-.4.096-.91.16-1.58.16z" fill="#206FAC"/><path d="M16.45 104.6c-.28 0-.4-.05-.568-.12-.202-.085-.453-.19-.91-.19-.46 0-.71.104-.913.188-.17.07-.29.12-.57.12-.28 0-.4-.05-.57-.12-.2-.084-.46-.19-.91-.19-.46 0-.71.105-.91.19-.17.07-.29.12-.57.12-.28 0-.4-.05-.57-.12-.2-.084-.46-.19-.91-.19-.46 0-.71.106-.91.19-.17.07-.29.12-.57.12-.28 0-.4-.05-.57-.12-.2-.083-.46-.19-.91-.19-.46 0-.71.106-.91.19-.17.07-.29.12-.57.12-.26 0-.47.227-.47.507s.21.506.47.506c.46 0 .71-.1.91-.18.17-.07.29-.12.57-.12.28 0 .4.05.56.12.2.09.45.19.91.19s.71-.1.91-.19c.16-.07.28-.12.57-.12.28 0 .4.05.57.12.2.09.45.19.91.19s.71-.1.91-.19c.17-.07.29-.12.57-.12.28 0 .4.05.57.12.2.09.45.19.91.19s.71-.1.91-.19c.17-.07.29-.12.57-.12.28 0 .4.05.57.12.2.09.45.19.91.19.26 0 .47-.22.47-.5s-.21-.5-.47-.5m-5-16.98h3.45c.25 0 .49-.1.68-.28.22-.21.35-.51.35-.83l-.01-.09h1.64c.29 0 .56-.11.78-.32.26-.24.41-.59.41-.95s-.15-.71-.4-.95c-.22-.2-.49-.32-.78-.32H12.7c-.657 0-1.19.58-1.19 1.28l.026.27h-.1c-.57 0-1.033.5-1.033 1.11 0 .62.464 1.11 1.034 1.11zm0-1.2h1.26c.26 0 .47-.22.47-.5s-.22-.5-.48-.5c-.14 0-.25-.11-.25-.26 0-.14.11-.26.24-.26h4.85c.07 0 .13.04.16.07s.08.1.08.2-.058.17-.09.2c-.03.03-.09.07-.16.07h-2.67c-.26 0-.48.23-.48.51s.21.506.47.506l.06.026.03.07-.03.07-.06.02H11.4c-.05 0-.09-.04-.09-.096 0-.05.04-.09.09-.09zm20.37 16.25c.06-.13.09-.28.09-.43 0-.56-.42-1.01-.94-1.01h-.14v-.47c0-.22-.14-.42-.34-.48l-.19-.06-.45-.95v-.47c0-.155-.06-.3-.18-.396l-.28-.24-.04-.07v-6.15c.17-.08.28-.26.28-.47 0-.21-.11-.39-.28-.47v-.46h.38c.26 0 .47-.23.47-.51 0-.13-.05-.25-.13-.34l-3.97-5.49v-1.45c0-.28-.21-.506-.48-.506s-.47.226-.47.506v1.45l-3.99 5.526c-.11.15-.13.36-.05.53.08.17.24.28.42.28h.4V91c-.18.07-.31.256-.31.474 0 .217.13.4.31.47v3.31H21c-.26 0-.472.23-.472.51v.51h-.37v-.51c0-.28-.21-.5-.47-.5H19v-.605h.424c.19 0 .362-.13.435-.31.07-.19.03-.41-.1-.55l-2.07-2.25v-.92c0-.28-.21-.51-.47-.51s-.47.23-.47.5v.53h-1.38v-.52c0-.28-.21-.51-.48-.51s-.47.227-.47.506v.8l-2.17 2.37c-.13.145-.17.36-.1.55.07.19.24.31.43.31h.24v.606h-.69c-.26 0-.47.227-.47.507v.51h-.37v-.51c0-.28-.21-.5-.47-.5h-.63v-3.32c.16-.08.28-.258.28-.46 0-.21-.12-.388-.28-.467v-.46h.38c.26 0 .47-.23.47-.51 0-.13-.05-.25-.13-.34l-3.97-5.49v-1.45c0-.28-.21-.51-.47-.51s-.47.23-.47.51v1.45l-3.99 5.52c-.11.158-.13.36-.05.53.08.18.24.29.42.29h.41V91c-.18.07-.31.254-.31.472 0 .218.12.4.31.47v6.09l-.08.12-.28.24c-.11.098-.18.24-.18.397v.46l-.45.95-.19.06c-.2.06-.34.26-.34.49v.47h-.3c-.52 0-.95.45-.95 1.01l.02.24c-.05.08-.08.18-.08.28 0 .28.21.51.47.51.28 0 .4.05.57.12.2.08.45.19.91.19s.71-.11.91-.19c.17-.07.29-.12.57-.12.28 0 .4.05.564.12.21.08.46.19.91.19.46 0 .71-.11.92-.19.16-.07.28-.12.57-.12.28 0 .4.05.57.12.21.08.46.19.91.19.38 0 .62-.07.8-.15h1.37c.186.07.42.14.8.14.376 0 .612-.07.796-.15h1.37c.183.07.42.14.8.14.373 0 .61-.07.793-.14h1.362c.18.07.42.14.793.14.38 0 .614-.07.8-.14h1.36c.183.07.42.14.796.14.38 0 .613-.07.8-.15h1.36c.182.07.42.143.795.143.42 0 .664-.09.86-.17v3.053c0 .28.21.506.47.506h2.56c.26 0 .47-.22.47-.5v-.046c-.007-1.22-.166-2.23-.405-3.06.13-.05.25-.083.487-.083.28 0 .4.05.56.12.2.09.452.19.91.19.46 0 .71-.1.912-.19.17-.07.29-.12.57-.12.28 0 .4.05.57.12.2.09.45.19.91.19.26 0 .47-.22.47-.5 0-.16-.07-.3-.18-.396zM8.15 92.52c-.175 0-.318.143-.326.33v1.073h.65v-1.07c-.01-.18-.15-.33-.326-.33zm-3.325 0c-.174 0-.317.143-.325.33v1.073h.648v-1.07c-.008-.18-.15-.33-.325-.33zm1.662 0c-.174 0-.317.143-.325.33v1.073h.65v-1.07c-.008-.18-.15-.33-.325-.33zm1.662 2.69c-.18 0-.32.146-.33.33v1.07h.65v-1.07c-.01-.19-.15-.34-.33-.34zm-3.33 0c-.18 0-.32.146-.33.33v1.07h.64v-1.07c-.01-.19-.15-.34-.33-.34zm1.66 0c-.18 0-.32.146-.33.33v1.07h.65v-1.07c-.01-.19-.15-.34-.33-.34zm20.79-2.694c-.18 0-.32.147-.33.332v1.075h.64v-1.07c-.01-.18-.15-.33-.33-.33zm-3.33 0c-.18 0-.32.147-.33.332v1.075h.65v-1.07c-.01-.18-.15-.33-.33-.33zm1.66 0c-.18 0-.32.147-.33.332v1.075h.65v-1.07c-.01-.18-.15-.33-.33-.33zm1.66 2.693c-.18 0-.32.14-.33.33v1.07h.64v-1.07c-.01-.19-.15-.34-.33-.34zm-3.33 0c-.17 0-.32.14-.33.33v1.07h.65v-1.07c-.01-.19-.15-.34-.33-.34zm1.66 0c-.18 0-.32.14-.33.33v1.07h.65v-1.07c-.01-.19-.15-.34-.33-.34zM2.2 101.23v-.09l.05-.02c.13-.04.237-.133.296-.26l.59-1.263c.033-.07.05-.148.05-.226v-.34l.164-.14.1-.12.19-.32c.05-.08.07-.18.07-.28v-6.2h5.52v6.25c0 .09.028.19.077.27l.09.14.075.13.103.12.164.14v.34c0 .07.01.15.05.22l.59 1.26c.06.12.16.22.29.26l.05.01v.39h-8.5v-.29zm1.52-10.683h5.52v.42h-5.5v-.42zm7.08 6.733h1.312c.26 0 .47-.226.47-.506v-.51h.215v4.97h-1.14v-.47c0-.22-.14-.42-.34-.48l-.198-.06-.45-.96v-.46c0-.15-.07-.3-.18-.39l-.28-.24-.05-.07v-1.82h.15v.51c0 .28.21.5.47.5zm2.946-2.027v-.62h4.28v7.11h-.67v-2.6c-.036-.82-.665-1.464-1.434-1.464-.77 0-1.397.64-1.433 1.46v2.6h-.73v-6.49zm3.17-3.09l1.342 1.46h-4.55L15 92.23l.144-.07h1.782zm2.752 5.12H21c.26 0 .473-.222.473-.502v-.5h.45v1.77l-.07.11-.282.24c-.11.09-.17.24-.17.39v.46l-.44.96-.2.06c-.2.06-.34.26-.34.48v.47H19v-4.97h.218v.51c0 .28.21.51.472.51zm3.18-6.73h5.512v.42h-5.51v-.42zm-7.414 11.19v-2.56c.013-.277.23-.49.49-.49s.47.213.49.49v2.664h-.98v-.108zm14.412-.507v.294H25.8l-.193-.293c-.45-.65-.907-1.02-1.165-1.197v-1.31c0-.278-.21-.505-.472-.505s-.472.23-.472.51v2.8h-2.14v-.38l.053-.02c.13-.04.24-.13.29-.26l.59-1.26c.04-.07.05-.15.05-.22v-.34l.17-.14.1-.12.19-.31c.05-.08.07-.17.07-.27V92h5.52v6.25c0 .096.03.19.08.273l.16.265.11.12.17.14v.34c0 .08.02.157.05.227l.59 1.265c.06.12.17.22.29.26l.06.01v.09zm-5.43 2.07v-1.98l.18.2c.12.146.242.31.365.51.1.15.19.316.28.5l.01.003c.08.14.15.3.21.47l.03.05.07.18.11.32c.19.64.33 1.43.37 2.38h-1.6v-2.65zm1.17-18.09l3.125 4.325h-6.25l3.13-4.32zm-19.126 0l3.12 4.325H3.36l3.124-4.32zm9.78 11.64v-.936l-.046-.155c-.055-.1-.16-.17-.28-.17-.12 0-.222.07-.28.18l-.042.16V97h.65v-.14m13.66 11.48c-.46 0-.71.103-.91.19-.17.07-.29.12-.57.12-.25 0-.37-.04-.51-.1.497-.343.645-.696.67-.77.056-.155.037-.33-.05-.467s-.234-.22-.39-.22H21.6c-.155 0-.3.083-.39.22-.087.137-.107.31-.05.467.02.06.133.335.48.63-.15-.04-.336-.07-.582-.07-.46 0-.71.102-.912.19-.167.07-.287.12-.568.12-.26 0-.472.222-.472.502s.21.505.472.505c.46 0 .71-.105.91-.19.168-.07.288-.12.57-.12.28 0 .4.05.567.12.202.085.453.19.91.19.46 0 .71-.105.912-.19.167-.07.287-.12.568-.12.28 0 .4.05.568.12.203.085.454.19.912.19.46 0 .71-.105.91-.19.168-.07.288-.12.57-.12.28 0 .4.05.567.12.2.085.452.19.91.19.46 0 .71-.105.912-.19.167-.07.287-.12.568-.12.26 0 .472-.225.472-.505s-.21-.507-.472-.507zm-5.045-.075c-.668 0-1.18-.065-1.58-.16h3.15c-.4.094-.915.16-1.58.16z" fill="#fff"/><path d="M16.45 64.6c-.28 0-.4-.05-.568-.12-.202-.085-.453-.19-.91-.19-.46 0-.71.104-.913.188-.17.07-.29.12-.57.12-.28 0-.4-.05-.57-.12-.2-.084-.46-.19-.91-.19-.46 0-.71.105-.91.19-.17.07-.29.12-.57.12-.28 0-.4-.05-.57-.12-.2-.084-.46-.19-.91-.19-.46 0-.71.106-.91.19-.17.07-.29.12-.57.12-.28 0-.4-.05-.57-.12-.2-.083-.46-.19-.91-.19-.46 0-.71.106-.91.19-.17.07-.29.12-.57.12-.26 0-.47.227-.47.507s.21.506.47.506c.46 0 .71-.1.91-.18.17-.07.29-.12.57-.12.28 0 .4.05.56.12.2.09.45.19.91.19s.71-.1.91-.19c.16-.07.28-.12.57-.12.28 0 .4.05.57.12.2.09.45.19.91.19s.71-.1.91-.19c.17-.07.29-.12.57-.12.28 0 .4.05.57.12.2.09.45.19.91.19s.71-.1.91-.19c.17-.07.29-.12.57-.12.28 0 .4.05.57.12.2.09.45.19.91.19.26 0 .47-.22.47-.5s-.21-.5-.47-.5m-5-16.98h3.45c.25 0 .49-.1.68-.28.22-.21.35-.51.35-.83l-.01-.09h1.64c.29 0 .56-.11.78-.32.26-.24.41-.59.41-.95s-.15-.71-.4-.95c-.22-.2-.49-.32-.78-.32H12.7c-.657 0-1.19.58-1.19 1.28l.026.27h-.1c-.57 0-1.033.5-1.033 1.11 0 .62.464 1.11 1.034 1.11zm0-1.2h1.26c.26 0 .47-.22.47-.5s-.22-.5-.48-.5c-.14 0-.25-.11-.25-.26 0-.14.11-.26.24-.26h4.85c.07 0 .13.04.16.07s.08.1.08.2-.058.17-.09.2c-.03.03-.09.07-.16.07h-2.67c-.26 0-.48.23-.48.51s.21.506.47.506l.06.026.03.07-.03.07-.06.02H11.4c-.05 0-.09-.04-.09-.096 0-.05.04-.09.09-.09zm20.37 16.25c.06-.13.09-.28.09-.43 0-.56-.42-1.01-.94-1.01h-.14v-.47c0-.22-.14-.42-.34-.48l-.19-.06-.45-.95v-.47c0-.155-.06-.3-.18-.396l-.28-.24-.04-.07v-6.15c.17-.08.28-.26.28-.47 0-.21-.11-.39-.28-.47v-.46h.38c.26 0 .47-.23.47-.51 0-.13-.05-.25-.13-.34l-3.97-5.49v-1.45c0-.28-.21-.506-.48-.506s-.47.226-.47.506v1.45l-3.99 5.526c-.11.15-.13.36-.05.53.08.17.24.28.42.28h.4V51c-.18.07-.31.256-.31.474 0 .217.13.4.31.47v3.31H21c-.26 0-.472.23-.472.51v.51h-.37v-.51c0-.28-.21-.5-.47-.5H19v-.605h.424c.19 0 .362-.13.435-.31.07-.19.03-.41-.1-.55l-2.07-2.25v-.92c0-.28-.21-.51-.47-.51s-.47.23-.47.5v.53h-1.38v-.52c0-.28-.21-.51-.48-.51s-.47.227-.47.506v.8l-2.17 2.37c-.13.145-.17.36-.1.55.07.19.24.31.43.31h.24v.606h-.69c-.26 0-.47.227-.47.507v.51h-.37v-.51c0-.28-.21-.5-.47-.5h-.63v-3.32c.16-.08.28-.258.28-.46 0-.21-.12-.388-.28-.467v-.46h.38c.26 0 .47-.23.47-.51 0-.13-.05-.25-.13-.34l-3.97-5.49v-1.45c0-.28-.21-.51-.47-.51s-.47.23-.47.51v1.45l-3.99 5.52c-.11.158-.13.36-.05.53.08.18.24.29.42.29h.41V51c-.18.07-.31.254-.31.472 0 .218.12.4.31.47v6.09l-.08.12-.28.24c-.11.098-.18.24-.18.397v.46l-.45.95-.19.06c-.2.06-.34.26-.34.49v.47h-.3c-.52 0-.95.45-.95 1.01l.02.24c-.05.08-.08.18-.08.28 0 .28.21.51.47.51.28 0 .4.05.57.12.2.08.45.19.91.19s.71-.11.91-.19c.17-.07.29-.12.57-.12.28 0 .4.05.564.12.21.08.46.19.91.19.46 0 .71-.11.92-.19.16-.07.28-.12.57-.12.28 0 .4.05.57.12.21.08.46.19.91.19.38 0 .62-.07.8-.15h1.37c.186.07.42.14.8.14.376 0 .612-.07.796-.15h1.37c.183.07.42.14.8.14.373 0 .61-.07.793-.14h1.362c.18.07.42.14.793.14.38 0 .614-.07.8-.14h1.36c.183.07.42.14.796.14.38 0 .613-.07.8-.15h1.36c.182.07.42.143.795.143.42 0 .664-.09.86-.17v3.053c0 .28.21.506.47.506h2.56c.26 0 .47-.22.47-.5v-.04c-.007-1.223-.166-2.23-.405-3.06.13-.05.25-.087.487-.087.28 0 .4.05.56.12.2.09.452.19.91.19.46 0 .71-.1.912-.19.17-.07.29-.12.57-.12.28 0 .4.05.57.12.2.09.45.19.91.19.26 0 .47-.22.47-.5 0-.16-.07-.3-.18-.396zM8.15 52.52c-.175 0-.318.143-.326.33v1.073h.65v-1.07c-.01-.18-.15-.33-.326-.33zm-3.325 0c-.174 0-.317.143-.325.33v1.073h.648v-1.07c-.008-.18-.15-.33-.325-.33zm1.662 0c-.174 0-.317.143-.325.33v1.073h.65v-1.07c-.008-.18-.15-.33-.325-.33zm1.662 2.69c-.18 0-.32.146-.33.33v1.07h.65v-1.07c-.01-.19-.15-.34-.33-.34zm-3.33 0c-.18 0-.32.146-.33.33v1.07h.64v-1.07c-.01-.19-.15-.34-.33-.34zm1.66 0c-.18 0-.32.146-.33.33v1.07h.65v-1.07c-.01-.19-.15-.34-.33-.34zm20.79-2.694c-.18 0-.32.147-.33.332v1.075h.64v-1.07c-.01-.18-.15-.33-.33-.33zm-3.33 0c-.18 0-.32.147-.33.332v1.075h.65v-1.07c-.01-.18-.15-.33-.33-.33zm1.66 0c-.18 0-.32.147-.33.332v1.075h.65v-1.07c-.01-.18-.15-.33-.33-.33zm1.66 2.693c-.18 0-.32.14-.33.33v1.07h.64v-1.07c-.01-.19-.15-.34-.33-.34zm-3.33 0c-.17 0-.32.14-.33.33v1.07h.65v-1.07c-.01-.19-.15-.34-.33-.34zm1.66 0c-.18 0-.32.14-.33.33v1.07h.65v-1.07c-.01-.19-.15-.34-.33-.34zM2.21 61.23v-.093l.05-.017c.122-.04.23-.133.29-.26l.59-1.263c.03-.07.05-.148.05-.226v-.34l.16-.14.1-.12.19-.32c.05-.08.07-.18.07-.28v-6.2h5.52v6.25c0 .09.022.19.07.27l.09.14.07.13.1.12.166.14v.34c0 .07.016.15.05.22l.59 1.26c.06.12.164.22.29.26l.055.01v.39h-8.5v-.3zm1.52-10.683h5.52v.42H3.74v-.42zm7.08 6.733h1.31c.26 0 .47-.226.47-.506v-.51h.215v4.968h-1.14v-.48c0-.23-.14-.43-.34-.49l-.19-.06-.44-.96v-.47c0-.16-.066-.3-.18-.4l-.28-.24-.045-.074v-1.82h.16v.51c0 .275.21.502.475.502zm2.942-2.027v-.62h4.28v7.11h-.67v-2.6c-.037-.82-.666-1.46-1.435-1.46-.77 0-1.396.65-1.43 1.47v2.6h-.73v-6.49zm3.17-3.09l1.34 1.46h-4.55L15 52.23l.145-.07h1.79zm2.75 5.12H21c.26 0 .473-.22.473-.5v-.51h.45v1.77l-.07.12-.282.24c-.11.1-.17.24-.17.4v.47l-.44.96-.2.06c-.2.06-.34.26-.34.49v.477H19v-4.97h.218v.51c0 .28.21.51.472.51zm3.18-6.73h5.513v.42h-5.51v-.42zm-7.41 11.19v-2.56c.016-.27.23-.49.49-.49s.47.22.49.49v2.67h-.98v-.11zm14.415-.5v.3H25.8l-.193-.29c-.45-.65-.9-1.02-1.16-1.19v-1.31c0-.28-.21-.505-.47-.505s-.475.227-.475.507v2.8h-2.15v-.385l.05-.02c.13-.04.235-.13.29-.26l.59-1.26c.037-.07.05-.15.05-.224v-.34l.168-.14.1-.12.19-.315c.05-.08.07-.17.07-.27V52h5.51v6.25c0 .096.02.19.07.273l.16.265.104.12.165.14v.34c0 .08.01.156.05.226l.59 1.266c.06.122.16.22.29.26l.05.01v.093zm-5.424 2.07v-1.98l.18.2c.12.15.242.31.365.51.096.15.19.32.28.5.077.15.147.31.21.48l.026.06.067.19.11.32c.19.65.33 1.437.37 2.38h-1.6V63.3zm1.17-18.09l3.125 4.33h-6.25l3.126-4.32zm-19.126 0l3.12 4.33H3.36l3.126-4.32zm9.78 11.64v-.93l-.046-.15c-.06-.1-.16-.17-.28-.17-.12 0-.22.07-.28.18l-.04.155V57h.65v-.14m13.66 11.48c-.46 0-.71.104-.91.19-.17.07-.29.12-.57.12-.25 0-.37-.04-.51-.1.5-.343.64-.696.67-.77.05-.155.04-.33-.05-.467s-.23-.22-.39-.22H21.6c-.155 0-.3.082-.39.22-.087.136-.107.31-.05.466.02.06.133.33.48.63-.15-.04-.336-.08-.582-.08-.46 0-.71.1-.912.19-.167.07-.287.12-.568.12-.26 0-.472.22-.472.5s.21.5.472.5c.46 0 .71-.11.91-.19.168-.07.288-.12.57-.12.28 0 .4.05.567.12.202.08.453.19.91.19.46 0 .71-.11.912-.19.167-.07.287-.12.568-.12.28 0 .4.05.568.12.203.08.454.19.912.19.46 0 .71-.11.91-.19.168-.07.288-.12.57-.12.28 0 .4.05.567.12.2.08.452.19.91.19.46 0 .71-.11.912-.19.167-.07.287-.12.568-.12.26 0 .472-.23.472-.51s-.21-.51-.472-.51zm-5.05-.074c-.66 0-1.18-.065-1.57-.16h3.15c-.4.094-.91.16-1.58.16z" fill="#67737B"/><path d="M16.45 24.6c-.28 0-.4-.05-.568-.12-.202-.085-.453-.19-.91-.19-.46 0-.71.104-.913.188-.17.07-.29.12-.57.12-.28 0-.4-.05-.57-.12-.2-.084-.46-.19-.91-.19-.46 0-.71.105-.91.19-.17.07-.29.12-.57.12-.28 0-.4-.05-.57-.12-.2-.084-.46-.19-.91-.19-.46 0-.71.106-.91.19-.17.07-.29.12-.57.12-.28 0-.4-.05-.57-.12-.2-.083-.46-.19-.91-.19-.46 0-.71.106-.91.19-.17.07-.29.12-.57.12-.26 0-.47.227-.47.507s.21.506.47.506c.46 0 .71-.1.91-.18.17-.07.29-.12.57-.12.28 0 .4.05.56.12.2.09.45.19.91.19s.71-.1.91-.19c.16-.07.28-.12.57-.12.28 0 .4.05.57.12.2.09.45.19.91.19s.71-.1.91-.19c.17-.07.29-.12.57-.12.28 0 .4.05.57.12.2.09.45.19.91.19s.71-.1.91-.19c.17-.07.29-.12.57-.12.28 0 .4.05.57.12.2.09.45.19.91.19.26 0 .47-.22.47-.5s-.21-.5-.47-.5M11.42 7.64h3.45c.25 0 .496-.1.685-.273.22-.21.35-.51.35-.83l-.008-.09h1.64c.29 0 .566-.114.784-.32.26-.24.41-.59.41-.955s-.15-.71-.4-.953c-.22-.21-.5-.32-.79-.32h-4.85c-.65 0-1.19.57-1.19 1.27l.03.26h-.1c-.57 0-1.03.49-1.03 1.1 0 .61.46 1.11 1.03 1.11zm0-1.2h1.27c.26 0 .47-.226.47-.506s-.212-.51-.473-.51c-.135 0-.245-.116-.245-.26 0-.147.11-.265.245-.265h4.858c.076 0 .13.03.16.06.032.03.085.09.085.2 0 .1-.05.17-.083.2-.03.03-.088.06-.16.06h-2.67c-.26 0-.475.23-.475.51s.21.5.472.5l.06.02.03.07-.03.07-.06.025h-3.45c-.05 0-.09-.046-.09-.1 0-.053.04-.096.09-.096zM31.8 22.688c.06-.137.09-.28.09-.44 0-.56-.42-1.016-.94-1.016h-.143v-.472c0-.23-.14-.42-.34-.49l-.195-.06-.447-.96v-.46c0-.153-.07-.3-.18-.394l-.28-.24-.05-.074v-6.15c.167-.08.28-.258.28-.465 0-.208-.113-.385-.28-.464v-.46h.377c.26 0 .475-.22.475-.5 0-.13-.047-.25-.123-.34l-3.966-5.49V2.76c0-.28-.21-.508-.47-.508s-.47.22-.47.5V4.2l-3.99 5.53c-.11.153-.13.36-.05.532.08.173.244.283.424.283h.403v.45c-.18.072-.31.256-.31.474 0 .21.13.4.31.47v3.31H21c-.26 0-.472.22-.472.5v.51h-.37v-.51c0-.28-.21-.51-.472-.51h-.69v-.61h.425c.19 0 .37-.13.44-.31.08-.19.04-.41-.1-.55l-2.06-2.25v-.92c0-.28-.21-.51-.47-.51s-.47.22-.47.5v.52h-1.38v-.52c0-.28-.21-.51-.47-.51s-.47.22-.47.5v.79l-2.17 2.36c-.13.14-.17.36-.1.55.07.19.25.31.44.31h.24v.6h-.69c-.26 0-.47.22-.47.5v.51h-.37v-.51c0-.28-.21-.51-.47-.51h-.63v-3.3c.17-.08.28-.26.28-.47 0-.21-.11-.388-.28-.467v-.46h.38c.26 0 .47-.22.47-.5 0-.13-.05-.25-.13-.34L6.95 4.2V2.75c0-.28-.21-.507-.472-.507s-.47.226-.47.506V4.2L2.02 9.72c-.11.154-.13.36-.05.533.08.173.244.283.424.283H2.8v.45c-.18.07-.31.254-.31.472 0 .218.128.402.31.473v6.09l-.073.12-.28.24c-.113.1-.18.24-.18.4v.46l-.446.96-.19.06c-.2.07-.34.26-.34.49v.48H.98c-.52 0-.944.46-.944 1.01l.027.24c-.05.09-.08.18-.08.29 0 .28.21.51.47.51.283 0 .403.05.57.12.2.09.453.19.91.19.46 0 .71-.1.91-.19.17-.07.29-.12.57-.12.28 0 .4.05.568.12.21.09.46.19.91.19.46 0 .71-.1.92-.19.16-.07.28-.12.57-.12.28 0 .4.05.57.12.21.09.46.19.91.19.38 0 .62-.07.8-.14h1.37c.19.07.42.15.8.15.38 0 .62-.07.8-.14H13c.184.07.42.14.8.14.374 0 .61-.07.794-.14h1.363c.18.07.42.14.796.14.38 0 .614-.07.8-.14h1.36c.183.07.42.14.796.14.38 0 .61-.07.8-.14h1.36c.18.07.42.14.79.14.42 0 .66-.09.86-.17v3.05c0 .28.21.51.47.51h2.56c.26 0 .47-.222.47-.502v-.05c-.01-1.222-.17-2.23-.41-3.06.13-.05.25-.09.48-.09.28 0 .4.05.56.12.2.09.45.19.91.19s.71-.1.91-.19c.17-.07.29-.12.57-.12.28 0 .4.05.57.12.2.09.45.19.91.19.26 0 .47-.22.47-.5 0-.163-.07-.305-.18-.4zM8.15 12.51c-.175 0-.318.146-.326.33v1.076h.65v-1.07c-.01-.18-.15-.33-.326-.33zm-3.325 0c-.174 0-.317.146-.325.33v1.076h.646v-1.07c-.008-.18-.15-.33-.325-.33zm1.662 0c-.174 0-.317.146-.325.33v1.076h.65v-1.07c-.006-.18-.15-.33-.323-.33zM8.15 15.2c-.18 0-.32.15-.33.334v1.07h.65v-1.07c-.01-.19-.15-.33-.33-.33zm-3.33 0c-.18 0-.32.15-.33.334v1.07h.64v-1.07c-.01-.19-.15-.33-.33-.33zm1.66 0c-.18 0-.32.15-.33.334v1.07h.65v-1.07c-.01-.19-.15-.33-.33-.33zm20.79-2.69c-.18 0-.32.146-.33.33v1.076h.64v-1.07c-.01-.18-.15-.33-.328-.33zm-3.33 0c-.18 0-.32.146-.33.33v1.076h.65v-1.07c-.01-.18-.15-.33-.33-.33zm1.66 0c-.18 0-.32.146-.33.33v1.076h.65v-1.07c-.01-.18-.15-.33-.328-.33zm1.66 2.692c-.18 0-.32.147-.33.332v1.07h.646v-1.07c-.008-.19-.15-.33-.325-.33zm-3.33 0c-.177 0-.32.147-.33.332v1.07h.65v-1.07c-.01-.19-.15-.33-.324-.33zm1.66 0c-.175 0-.32.147-.326.332v1.07h.65v-1.07c-.01-.19-.15-.33-.327-.33zm-23.38 6.02v-.092l.055-.017c.125-.04.23-.133.29-.26l.59-1.263c.033-.07.05-.148.05-.226v-.34l.164-.14.1-.12.19-.32c.04-.08.07-.18.07-.28v-6.2h5.51v6.25c0 .092.02.19.07.27l.09.15.07.13.1.12.16.14v.34c0 .074.01.15.05.22l.59 1.267c.06.13.16.22.29.26l.05.02v.39H2.2v-.29zM3.73 10.54h5.52v.42H3.74v-.42zm7.085 6.733h1.312c.26 0 .47-.226.47-.506v-.51h.217v4.97h-1.14v-.474c0-.226-.14-.424-.34-.486l-.198-.06-.446-.96v-.46c0-.16-.07-.3-.18-.4l-.28-.24-.05-.07V16.26h.155v.51c0 .28.21.506.473.506zm2.946-2.027v-.62h4.28v7.11h-.67v-2.6c-.03-.82-.66-1.46-1.43-1.46-.77 0-1.39.65-1.43 1.47v2.6h-.73v-6.49zm3.17-3.09l1.34 1.46h-4.55l1.28-1.39.15-.07h1.79zm2.75 5.12H21c.26 0 .473-.22.473-.5v-.5h.45v1.77l-.07.12-.282.24c-.11.096-.17.24-.17.395v.47l-.44.96-.2.06c-.2.06-.34.26-.34.49v.48H19v-4.97h.218v.51c0 .28.21.51.472.51zm3.18-6.73h5.52v.42h-5.51v-.42zm-7.41 11.19v-2.56c.02-.27.23-.49.49-.49s.48.22.49.49v2.67h-.98v-.104zm14.42-.5v.296H25.8l-.194-.293c-.456-.65-.91-1.02-1.167-1.2v-1.31c0-.28-.21-.51-.47-.51s-.47.22-.47.5v2.8h-2.15v-.39l.05-.02c.12-.04.23-.14.29-.26l.59-1.27c.03-.07.05-.15.05-.23v-.34l.16-.14.1-.12.19-.32c.05-.08.07-.17.07-.27v-6.21h5.51v6.25c0 .1.02.19.07.277l.16.27.1.12.16.14v.34c0 .08.01.156.05.226l.59 1.26c.06.13.16.22.29.26l.05.016v.09zm-5.43 2.07v-1.98l.18.2c.12.147.24.31.37.51.09.15.19.317.28.5.08.146.15.305.21.476l.03.054.07.184.11.32c.2.65.34 1.436.37 2.38h-1.6V23.3zm1.17-18.1l3.12 4.33h-6.25L25.6 5.21zm-19.13 0L9.61 9.53H3.36l3.13-4.32zm9.79 11.64v-.93l-.04-.155c-.05-.11-.16-.18-.28-.18-.12 0-.22.07-.28.18l-.04.16V17h.65v-.14m13.65 11.48c-.45 0-.71.11-.91.19-.16.07-.28.12-.57.12-.24 0-.37-.04-.51-.092.5-.344.65-.7.67-.77.06-.156.04-.33-.05-.47s-.23-.22-.39-.22H21.6c-.155 0-.3.085-.39.22-.087.14-.107.314-.05.47.02.06.133.334.48.63-.15-.04-.336-.073-.582-.073-.46 0-.71.107-.912.19-.167.07-.287.12-.568.12-.26 0-.472.227-.472.507s.21.507.472.507c.46 0 .71-.11.91-.19.168-.07.288-.12.57-.12.28 0 .4.05.567.12.202.08.453.19.91.19.46 0 .71-.11.912-.19.167-.07.287-.12.568-.12.28 0 .4.05.568.12.203.08.454.19.912.19.46 0 .71-.11.91-.19.168-.07.288-.12.57-.12.28 0 .4.05.567.12.2.08.452.19.91.19.46 0 .71-.11.912-.19.167-.07.287-.12.568-.12.26 0 .472-.23.472-.51s-.21-.51-.472-.51zm-5.04-.07c-.66 0-1.17-.062-1.57-.16h3.15c-.39.097-.91.16-1.57.16z" fill="#3A434E"/></g></svg>