<svg width="32" height="232" viewBox="0 0 32 232" xmlns="http://www.w3.org/2000/svg"><g fill="none"><path d="M18.147 124.92c.066.033.138.05.212.05.12 0 .24-.05.33-.14.09-.09.14-.21.14-.338 0-.18-.11-.347-.27-.427-.13-.067-.29-.066-.42 0l-.04.027-.08.062c-.09.09-.14.212-.14.34 0 .126.05.248.14.338l.12.087zm-2.58 2.42c-.08-.04-.173-.056-.263-.045l-.19.068-.088.068c-.144.15-.18.38-.088.56.046.09.118.17.207.21.066.04.14.05.213.05.125 0 .244-.05.332-.14.143-.14.178-.37.088-.55-.046-.09-.12-.16-.21-.21zm-2.03-3.447l.39.218.214.4c.09.16.24.25.42.25s.33-.09.41-.25l.22-.39.39-.21c.15-.08.25-.24.25-.42 0-.17-.09-.33-.24-.41l-.39-.22-.21-.39c-.08-.15-.24-.24-.41-.24s-.33.1-.41.25l-.21.4-.39.22c-.15.09-.24.25-.24.42s.1.34.25.42zm12.115 26.15h-.658v-16.28c0-.427-.274-.788-.653-.91-.19-2.07-.42-3.753-.69-5.02l.01-.064c0-.1-.03-.19-.07-.26-.3-1.38-.75-2.73-1.67-3.08v-.64c.25-.02.44-.22.44-.48s-.19-.46-.43-.48v-2.35c0-.27-.21-.48-.47-.48s-.47.21-.47.47v2.35c-.24.02-.42.22-.42.47 0 .24.19.44.42.47v.64c-.96.35-1.4 1.83-1.71 3.27-.26 1.28-.5 3.02-.7 5.17-.32.14-.55.48-.55.87v4.86h-4v-4.87c0-.43-.27-.79-.65-.91-.2-2.07-.43-3.75-.69-5.02l.01-.07c0-.1-.02-.18-.07-.26-.31-1.38-.75-2.73-1.67-3.076v-.64c.24-.023.43-.225.43-.474 0-.25-.19-.454-.43-.475v-2.35c0-.26-.21-.47-.47-.47s-.47.213-.47.48v2.35c-.24.02-.43.225-.43.474 0 .25.19.45.43.47v.634c-.97.36-1.41 1.83-1.71 3.28-.27 1.282-.5 3.02-.7 5.17-.33.15-.56.48-.56.87V150h-.71c-.52 0-.94.425-.94.95 0 .528.42.956.94.956h19.34c.51 0 .93-.43.93-.96 0-.526-.42-.952-.94-.952zm-15.196-23.245l.15.494h-.298l.148-.494zm.374 1.45l.034.168h-.81l.033-.17h.742zm10.61-1.45l.15.494h-.298l.15-.494zm.375 1.45l.034.168h-.81l.03-.17h.74zm1.3 21.794h-.48v-8.177c0-.264-.21-.477-.47-.477s-.47.214-.47.477v8.177h-.428v-8.177c0-.264-.21-.477-.47-.477s-.47.214-.47.477v8.177h-.445v-9.202h3.232v9.202zm-3.232-15.444c.266-.15.454-.428.48-.755l.01-.106h2.162l.01.11c.03.36.26.66.57.795v.23h-3.232v-.274zm.814-3.983H22.2l.06.47h-1.62l.057-.47zm1.368-.955H20.83l.044-.29h1.146l.046.29zm-1.532 2.38h1.838l.08.742h-1.99l.08-.743zm-.65 3.786h3.233v1.415h-3.232v-1.41zm0 2.37h3.233v1.69h-3.232v-1.69zm-1.878 4.844l-1.185-2.16h1.185v2.16zM8.9 134.598c.265-.15.453-.428.48-.755l.01-.106h2.162l.01.11c.03.36.26.66.57.795v.23H8.9v-.274zm.813-3.983h1.503l.06.47h-1.62l.057-.47zm1.368-.955H9.85l.044-.29h1.146l.046.29zm-1.53 2.38h1.84l.08.742H9.48l.074-.743zm-.65 3.786h3.23v1.415H8.9v-1.41zm0 2.37h3.23v1.69H8.9v-1.69zm5.11 2.684h1.28l-1.27 2.326v-2.326zm-5.11-.04h3.23v9.202h-.49v-8.177c0-.264-.21-.477-.47-.477s-.47.214-.47.477v8.177h-.42v-8.177c0-.264-.21-.477-.47-.477s-.47.214-.47.477v8.177H8.9v-9.202zm5.11 4.327l2.05-3.725 1.95 3.56v5.04h-4v-4.874zm0-5.586h4v.35h-4v-.34z" fill="#206FAC"/><path d="M18.147 84.92c.066.033.138.05.212.05.12 0 .24-.05.33-.14.09-.09.14-.21.14-.338 0-.18-.11-.347-.27-.427-.13-.067-.29-.066-.42 0l-.04.027-.08.062c-.09.09-.14.212-.14.34 0 .126.05.248.14.338l.12.087zm-2.58 2.42c-.08-.04-.173-.056-.263-.045l-.19.068-.088.068c-.144.15-.18.38-.088.56.046.09.118.17.207.21.066.04.14.05.213.05.125 0 .244-.05.332-.14.143-.14.178-.37.088-.55-.046-.09-.12-.16-.21-.21zm-2.03-3.447l.39.218.214.4c.09.16.24.25.42.25s.33-.09.41-.25l.22-.39.39-.21c.15-.08.25-.24.25-.42 0-.17-.09-.33-.24-.41l-.39-.22-.21-.39c-.08-.15-.24-.24-.41-.24s-.33.1-.41.25l-.21.4-.39.22c-.15.09-.24.25-.24.42s.1.34.25.42zm12.115 26.15h-.658v-16.28c0-.427-.274-.788-.653-.91-.19-2.07-.42-3.753-.69-5.02l.01-.064c0-.1-.03-.19-.07-.26-.3-1.38-.75-2.73-1.67-3.08v-.64c.25-.02.44-.22.44-.48s-.19-.46-.43-.48V80.5c0-.264-.21-.477-.47-.477s-.47.213-.47.477v2.353c-.24.024-.42.226-.42.473 0 .247.19.448.42.473v.64c-.96.35-1.4 1.83-1.71 3.27-.26 1.28-.5 3.02-.7 5.17-.32.15-.55.48-.55.87v4.86h-4v-4.86c0-.43-.27-.79-.65-.91-.2-2.07-.43-3.76-.69-5.02l.01-.07c0-.1-.02-.19-.07-.26-.31-1.38-.75-2.73-1.67-3.08v-.64c.24-.03.43-.23.43-.48 0-.25-.19-.45-.43-.48V80.5c0-.264-.21-.477-.47-.477s-.47.213-.47.477v2.353c-.24.022-.43.224-.43.473 0 .25.19.45.43.473v.63c-.97.36-1.41 1.83-1.71 3.27-.27 1.28-.5 3.02-.7 5.17-.33.15-.56.48-.56.87v16.28h-.71c-.52 0-.94.42-.94.95s.42.95.94.95h19.34c.51 0 .93-.43.93-.96s-.42-.96-.94-.96zM10.456 86.797l.15.494h-.298l.148-.49zm.374 1.45l.034.168h-.81l.033-.17h.742zm10.61-1.45l.15.494h-.298l.15-.49zm.375 1.45l.034.168h-.81l.03-.17h.74zm1.3 21.794h-.48v-8.17c0-.26-.21-.47-.47-.47s-.47.22-.47.48v8.18h-.428v-8.17c0-.26-.21-.47-.47-.47s-.47.22-.47.48v8.18h-.445v-9.2h3.232v9.2zM19.883 94.6c.266-.15.454-.428.48-.755l.01-.106h2.162l.01.11c.03.36.26.66.57.79v.23h-3.232v-.27zm.814-3.983H22.2l.06.47h-1.62l.057-.47zm1.368-.955H20.83l.044-.29h1.146l.046.29zm-1.532 2.38h1.838l.08.74h-1.99l.08-.742zm-.65 3.785h3.233v1.415h-3.232v-1.414zm0 2.37h3.233v1.69h-3.232v-1.69zm-1.878 4.844l-1.185-2.16h1.185v2.16zM8.9 94.6c.265-.15.453-.428.48-.755l.01-.105h2.162l.01.11c.03.36.26.66.57.795v.23H8.9V94.6zm.813-3.983h1.503l.06.47h-1.62l.057-.47zm1.368-.955H9.85l.044-.29h1.146l.046.29zm-1.53 2.38h1.84l.08.74H9.48l.074-.743zm-.65 3.784h3.23v1.415H8.9v-1.41zm0 2.37h3.23v1.69H8.9v-1.69zm5.11 2.684h1.28l-1.27 2.325v-2.326zm-5.11-.04h3.23v9.2h-.49v-8.176c0-.263-.21-.476-.47-.476s-.47.214-.47.477v8.178h-.42v-8.174c0-.27-.21-.48-.47-.48s-.47.21-.47.47v8.17H8.9v-9.2zm5.11 4.326l2.05-3.725 1.95 3.56v5.04h-4v-4.87zm0-5.586h4v.345h-4v-.343z" fill="#fff"/><path d="M18.147 44.92c.066.033.138.05.212.05.12 0 .24-.05.33-.14.09-.09.14-.21.14-.338 0-.18-.11-.347-.27-.427-.13-.067-.29-.066-.42 0l-.04.027-.08.062c-.09.09-.14.212-.14.34 0 .126.05.248.14.338l.12.087zm-2.58 2.42c-.08-.04-.173-.056-.263-.045l-.19.068-.088.068c-.144.15-.18.38-.088.56.046.09.118.17.207.21.066.04.14.05.213.05.125 0 .244-.05.332-.14.143-.14.178-.37.088-.55-.046-.09-.12-.16-.21-.21zm-2.03-3.447l.39.218.214.4c.09.16.24.25.42.25s.33-.09.41-.25l.22-.39.39-.21c.15-.08.25-.24.25-.42 0-.17-.09-.33-.24-.41l-.39-.22-.21-.39c-.08-.15-.24-.24-.41-.24s-.33.1-.41.25l-.21.4-.39.22c-.15.09-.24.25-.24.42s.1.34.25.42zm12.115 26.15h-.658v-16.28c0-.427-.274-.788-.653-.91-.19-2.07-.42-3.753-.69-5.02l.01-.064c0-.1-.03-.19-.07-.26-.3-1.38-.75-2.73-1.67-3.08v-.64c.25-.02.44-.22.44-.48s-.19-.46-.43-.48V40.5c0-.264-.21-.477-.47-.477s-.47.213-.47.477v2.353c-.24.024-.42.226-.42.473 0 .247.19.448.42.473v.64c-.96.35-1.4 1.83-1.71 3.27-.26 1.28-.5 3.02-.7 5.17-.32.15-.55.48-.55.87v4.86h-4v-4.86c0-.43-.27-.79-.65-.91-.2-2.07-.43-3.76-.69-5.02l.01-.07c0-.1-.02-.19-.07-.26-.31-1.38-.75-2.73-1.67-3.08v-.64c.24-.03.43-.23.43-.48 0-.25-.19-.45-.43-.48V40.5c0-.264-.21-.477-.47-.477s-.47.213-.47.477v2.353c-.24.022-.43.224-.43.473 0 .25.19.45.43.473v.63c-.97.36-1.41 1.83-1.71 3.27-.27 1.28-.5 3.02-.7 5.17-.33.15-.56.48-.56.87v16.28h-.71c-.52 0-.94.42-.94.95s.42.95.94.95h19.34c.51 0 .93-.43.93-.96s-.42-.96-.94-.96zM10.456 46.797l.15.494h-.298l.148-.49zm.374 1.45l.034.168h-.81l.033-.17h.742zm10.61-1.45l.15.494h-.298l.15-.49zm.375 1.45l.034.168h-.81l.03-.17h.74zm1.3 21.794h-.48v-8.17c0-.26-.21-.47-.47-.47s-.47.22-.47.48v8.18h-.428v-8.18c0-.26-.21-.47-.47-.47s-.47.22-.47.48v8.18h-.445v-9.2h3.232v9.2zM19.883 54.6c.266-.15.454-.428.48-.755l.01-.106h2.162l.01.11c.03.36.26.66.57.79v.23h-3.232v-.27zm.814-3.983H22.2l.06.47h-1.62l.057-.47zm1.368-.955H20.83l.044-.29h1.146l.046.29zm-1.532 2.38h1.838l.08.74h-1.99l.08-.742zm-.65 3.785h3.233v1.415h-3.232v-1.414zm0 2.37h3.233v1.69h-3.232v-1.69zm-1.878 4.844l-1.185-2.16h1.185v2.16zM8.9 54.6c.265-.15.453-.428.48-.755l.01-.105h2.162l.01.11c.03.36.26.66.57.795v.23H8.9V54.6zm.813-3.983h1.503l.06.47h-1.62l.057-.47zm1.368-.955H9.85l.044-.29h1.146l.046.29zm-1.53 2.38h1.84l.08.74H9.48l.074-.743zm-.65 3.784h3.23v1.415H8.9v-1.41zm0 2.37h3.23v1.69H8.9v-1.69zm5.11 2.684h1.28l-1.27 2.325V60.88zm-5.11-.04h3.23v9.2h-.49v-8.18c0-.263-.21-.476-.47-.476s-.47.214-.47.477v8.18h-.42v-8.17c0-.26-.21-.47-.47-.47s-.47.22-.47.48v8.18H8.9v-9.2zm5.11 4.326l2.05-3.725L18.01 65v5.04h-4v-4.87zm0-5.586h4v.345h-4v-.343z" fill="#67737B"/><path d="M18.147 4.92c.066.033.138.05.212.05.12 0 .24-.05.33-.14.09-.09.14-.21.14-.338 0-.18-.11-.347-.27-.427-.13-.067-.29-.066-.42 0l-.04.027-.08.062c-.09.09-.14.212-.14.34 0 .126.05.248.14.338l.12.087zm-2.58 2.42c-.08-.04-.173-.056-.263-.045l-.19.068-.088.068c-.144.15-.18.38-.088.56.046.09.118.17.207.21.066.04.14.05.213.05.125 0 .244-.05.332-.14.143-.14.178-.37.088-.55-.046-.09-.12-.16-.21-.21zm-2.03-3.447l.39.218.214.4c.09.16.24.25.42.25s.33-.09.41-.25l.22-.39.39-.21c.15-.08.25-.24.25-.42 0-.17-.09-.33-.24-.41l-.39-.22-.21-.39c-.08-.15-.24-.24-.41-.24s-.33.1-.41.25l-.21.4-.39.22c-.15.09-.24.25-.24.42s.1.34.25.42zm12.115 26.15h-.658v-16.28c0-.427-.274-.788-.653-.91-.19-2.07-.42-3.753-.69-5.02l.01-.064c0-.1-.03-.19-.07-.26-.3-1.38-.75-2.73-1.67-3.08V3.8c.25-.018.44-.222.44-.474s-.19-.455-.43-.474V.5c0-.264-.21-.477-.47-.477s-.47.213-.47.477v2.353c-.24.024-.42.226-.42.473 0 .247.19.448.42.473v.64c-.96.35-1.4 1.83-1.71 3.27-.26 1.28-.5 3.02-.7 5.17-.32.15-.55.48-.55.87v4.86h-4v-4.86c0-.43-.27-.79-.65-.91-.2-2.07-.43-3.76-.69-5.02l.01-.07c0-.1-.02-.19-.07-.26-.31-1.38-.75-2.73-1.67-3.08V3.8c.24-.023.43-.225.43-.474 0-.25-.19-.452-.43-.473V.5c0-.264-.21-.477-.47-.477s-.5.213-.5.477v2.353c-.24.022-.43.224-.43.473 0 .25.19.45.43.473v.63c-.97.36-1.41 1.83-1.71 3.27-.27 1.28-.5 3.02-.7 5.17-.33.15-.55.48-.55.87v16.28h-.71c-.52 0-.94.42-.94.95s.42.95.94.95h19.34c.512 0 .932-.43.932-.96s-.42-.96-.94-.96zM10.456 6.797l.15.494h-.298l.148-.49zm.374 1.45l.034.168h-.81l.033-.17h.742zm10.61-1.45l.15.494h-.298l.15-.49zm.375 1.45l.034.168h-.81l.03-.17h.74zm1.3 21.794h-.48v-8.17c0-.26-.21-.47-.47-.47s-.47.22-.47.48v8.18h-.428v-8.18c0-.26-.21-.47-.47-.47s-.47.22-.47.48v8.18h-.445v-9.2h3.232v9.2zM19.883 14.6c.266-.15.454-.428.48-.755l.01-.106h2.162l.01.11c.03.36.26.66.57.79v.23h-3.232v-.27zm.814-3.983H22.2l.06.47h-1.62l.057-.47zm1.368-.955H20.83l.044-.29h1.146l.046.29zm-1.532 2.38h1.838l.08.74h-1.99l.08-.742zm-.65 3.785h3.233v1.415h-3.232v-1.414zm0 2.37h3.233v1.69h-3.232v-1.69zm-1.878 4.844l-1.185-2.16h1.185v2.16zM8.9 14.6c.265-.15.453-.428.48-.755l.01-.105h2.162l.01.11c.03.36.26.66.57.795v.23H8.9V14.6zm.813-3.983h1.503l.06.47h-1.62l.057-.47zm1.368-.955H9.85l.044-.29h1.146l.046.29zm-1.53 2.38h1.84l.08.74H9.48l.074-.743zm-.65 3.784h3.23v1.415H8.9v-1.41zm0 2.37h3.23v1.69H8.9v-1.69zm5.11 2.684h1.28l-1.27 2.325V20.88zm-5.11-.04h3.23v9.2h-.49v-8.18c0-.263-.21-.476-.47-.476s-.47.214-.47.477v8.18h-.42v-8.17c0-.26-.21-.47-.47-.47s-.47.22-.47.48v8.18H8.9v-9.2zm5.11 4.326l2.05-3.725L18.01 25v5.04h-4v-4.87zm0-5.586h4v.345h-4v-.343z" fill="#3A434E"/></g></svg>