<?xml version="1.0" encoding="utf-8"?>
<!-- Generator: Adobe Illustrator 19.0.0, SVG Export Plug-In . SVG Version: 6.00 Build 0)  -->
<svg version="1.1" id="Layer_1" xmlns="http://www.w3.org/2000/svg" xmlns:xlink="http://www.w3.org/1999/xlink" x="0px" y="0px"
	 viewBox="0 0 32 232" style="enable-background:new 0 0 32 232;" xml:space="preserve">
<style type="text/css">
	.st0{fill:#3A444F;}
	.st1{fill:#67737C;}
	.st2{fill:#FFFFFF;}
	.st3{fill:#1D70AD;}
</style>
<path id="XMLID_1921_" class="st0" d="M28.3,14c-1-1-2.4-1.6-3.9-1.6c-0.5,0-1,0.1-1.5,0.2l-0.4-1.9l0,0l-0.3-1.5h0.5l0.4,2.1
	c0,0.2,0.3,0.4,0.5,0.4h3.3c0.3,0,0.5-0.2,0.5-0.4l0.5-2.5c0-0.2,0-0.3-0.1-0.4c-0.1-0.1-0.2-0.2-0.4-0.2h-4.2c0,0-0.1,0-0.1,0
	c0,0,0,0-0.1,0h-1l-0.2-1.2c0,0,0,0,0,0c0,0,0,0,0-0.1c0,0,0,0,0,0c0,0,0,0,0-0.1c0,0,0,0,0,0c0,0,0,0,0,0c0,0-0.1-0.1-0.1-0.1
	c0,0,0,0,0,0c0,0,0,0-0.1,0c0,0,0,0,0,0c0,0-0.1,0-0.1,0c0,0,0,0,0,0c0,0-0.1,0-0.1,0c0,0,0,0,0,0h-2.8C17.7,6.5,17,7.2,17,8
	c0,0.3,0.2,0.5,0.5,0.5C17.8,8.5,18,8.3,18,8c0-0.2,0.2-0.5,0.5-0.5h2.3l0.2,1l-8.1,5.3l-0.8-4.2h1.5c0.3,0,0.5-0.2,0.5-0.5
	c0-0.3-0.2-0.5-0.4-0.6L9.8,8C9.6,8,9.4,8.1,9.3,8.2C9.2,8.4,9.2,8.6,9.3,8.7l0.2,0.5C9.6,9.5,9.8,9.6,10,9.6h1.1l0.1,0.7l-2,2.8
	c-0.8-0.4-1.7-0.7-2.7-0.7c-1.5,0-2.9,0.6-3.9,1.6c-1,1-1.6,2.4-1.6,3.9c0,1.5,0.6,2.9,1.6,3.9c1,1,2.4,1.6,3.9,1.6
	c1.5,0,2.9-0.6,3.9-1.6c0.7-0.7,1.2-1.5,1.4-2.4l1,0.2l-0.2,1.5h-0.4c-0.3,0-0.5,0.2-0.5,0.5c0,0.3,0.2,0.5,0.5,0.5h1.4
	c0.3,0,0.5-0.2,0.5-0.5c0-0.3-0.2-0.5-0.5-0.5h0l0.2-1.6l7.8-7.7l0.2,1.2c-0.5,0.3-1,0.6-1.4,1c-1,1-1.6,2.4-1.6,3.9
	c0,1.5,0.6,2.9,1.6,3.9c1,1,2.4,1.6,3.9,1.6c1.5,0,2.9-0.6,3.9-1.6c1-1,1.6-2.4,1.6-3.9C29.9,16.5,29.4,15.1,28.3,14z M26.8,9.2
	l-0.3,1.5h-2.4l-0.3-1.5H26.8z M9.7,14.8c1,1,1.4,2.2,1.3,3.5l-3.8-0.7l2.2-3.1C9.5,14.6,9.6,14.7,9.7,14.8z M9.7,21.1
	c-0.8,0.8-2,1.3-3.2,1.3c-1.2,0-2.3-0.5-3.2-1.3c-0.8-0.8-1.3-2-1.3-3.2s0.5-2.3,1.3-3.2c0.8-0.8,2-1.3,3.2-1.3c0.7,0,1.4,0.2,2,0.5
	l-2.7,3.7c-0.1,0.1-0.1,0.3-0.1,0.5c0.1,0.2,0.2,0.3,0.4,0.3l4.6,0.8C10.6,20,10.2,20.6,9.7,21.1z M12,18.4c0.1-1.6-0.4-3.2-1.6-4.4
	c-0.1-0.1-0.3-0.2-0.4-0.4l1.4-2l1.3,6.9L12,18.4z M13.8,18.2l-0.6-3.3l8.1-5.3l0.2,1L13.8,18.2z M27.6,21.1c-0.8,0.8-2,1.3-3.2,1.3
	c-1.2,0-2.3-0.5-3.2-1.3c-0.8-0.8-1.3-2-1.3-3.2s0.5-2.3,1.3-3.2c0.3-0.3,0.6-0.5,0.9-0.7l0.6,3.1c0,0,0,0,0,0.1
	c0.1,0.4,0.6,1.3,1.7,1.3c0.3,0,0.5-0.2,0.5-0.5c0-0.3-0.2-0.5-0.5-0.5c-0.5,0-0.6-0.4-0.7-0.5l-0.6-3.3c0.4-0.1,0.9-0.2,1.3-0.2
	c1.2,0,2.3,0.5,3.2,1.3c0.8,0.8,1.3,2,1.3,3.2S28.4,20.3,27.6,21.1z"/>
<path id="XMLID_2433_" class="st1" d="M28.3,54c-1-1-2.4-1.6-3.9-1.6c-0.5,0-1,0.1-1.5,0.2l-0.4-1.9l0,0l-0.3-1.5h0.5l0.4,2.1
	c0,0.2,0.3,0.4,0.5,0.4h3.3c0.3,0,0.5-0.2,0.5-0.4l0.5-2.5c0-0.2,0-0.3-0.1-0.4c-0.1-0.1-0.2-0.2-0.4-0.2h-4.2c0,0-0.1,0-0.1,0
	c0,0,0,0-0.1,0h-1l-0.2-1.2c0,0,0,0,0,0c0,0,0,0,0-0.1c0,0,0,0,0,0c0,0,0,0,0-0.1c0,0,0,0,0,0c0,0,0,0,0,0c0,0-0.1-0.1-0.1-0.1
	c0,0,0,0,0,0c0,0,0,0-0.1,0c0,0,0,0,0,0c0,0-0.1,0-0.1,0c0,0,0,0,0,0c0,0-0.1,0-0.1,0c0,0,0,0,0,0h-2.8c-0.8,0-1.5,0.7-1.5,1.5
	c0,0.3,0.2,0.5,0.5,0.5c0.3,0,0.5-0.2,0.5-0.5c0-0.2,0.2-0.5,0.5-0.5h2.3l0.2,1l-8.1,5.3l-0.8-4.2h1.5c0.3,0,0.5-0.2,0.5-0.5
	c0-0.3-0.2-0.5-0.4-0.6L9.8,48c-0.2,0-0.4,0.1-0.5,0.2c-0.1,0.2-0.1,0.4-0.1,0.5l0.2,0.5c0.1,0.2,0.3,0.3,0.5,0.3h1.1l0.1,0.7
	l-2,2.8c-0.8-0.4-1.7-0.7-2.7-0.7c-1.5,0-2.9,0.6-3.9,1.6c-1,1-1.6,2.4-1.6,3.9c0,1.5,0.6,2.9,1.6,3.9c1,1,2.4,1.6,3.9,1.6
	c1.5,0,2.9-0.6,3.9-1.6c0.7-0.7,1.2-1.5,1.4-2.4l1,0.2l-0.2,1.5h-0.4c-0.3,0-0.5,0.2-0.5,0.5c0,0.3,0.2,0.5,0.5,0.5h1.4
	c0.3,0,0.5-0.2,0.5-0.5c0-0.3-0.2-0.5-0.5-0.5h0l0.2-1.6l7.8-7.7l0.2,1.2c-0.5,0.3-1,0.6-1.4,1c-1,1-1.6,2.4-1.6,3.9
	c0,1.5,0.6,2.9,1.6,3.9c1,1,2.4,1.6,3.9,1.6c1.5,0,2.9-0.6,3.9-1.6c1-1,1.6-2.4,1.6-3.9C29.9,56.5,29.4,55.1,28.3,54z M26.8,49.2
	l-0.3,1.5h-2.4l-0.3-1.5H26.8z M9.7,54.8c1,1,1.4,2.2,1.3,3.5l-3.8-0.7l2.2-3.1C9.5,54.6,9.6,54.7,9.7,54.8z M9.7,61.1
	c-0.8,0.8-2,1.3-3.2,1.3c-1.2,0-2.3-0.5-3.2-1.3c-0.8-0.8-1.3-2-1.3-3.2c0-1.2,0.5-2.3,1.3-3.2c0.8-0.8,2-1.3,3.2-1.3
	c0.7,0,1.4,0.2,2,0.5l-2.7,3.7c-0.1,0.1-0.1,0.3-0.1,0.5c0.1,0.2,0.2,0.3,0.4,0.3l4.6,0.8C10.6,60,10.2,60.6,9.7,61.1z M12,58.4
	c0.1-1.6-0.4-3.2-1.6-4.4c-0.1-0.1-0.3-0.2-0.4-0.4l1.4-2l1.3,6.9L12,58.4z M13.8,58.2l-0.6-3.3l8.1-5.3l0.2,1L13.8,58.2z
	 M27.6,61.1c-0.8,0.8-2,1.3-3.2,1.3c-1.2,0-2.3-0.5-3.2-1.3c-0.8-0.8-1.3-2-1.3-3.2c0-1.2,0.5-2.3,1.3-3.2c0.3-0.3,0.6-0.5,0.9-0.7
	l0.6,3.1c0,0,0,0,0,0.1c0.1,0.4,0.6,1.3,1.7,1.3c0.3,0,0.5-0.2,0.5-0.5s-0.2-0.5-0.5-0.5c-0.5,0-0.6-0.4-0.7-0.5l-0.6-3.3
	c0.4-0.1,0.9-0.2,1.3-0.2c1.2,0,2.3,0.5,3.2,1.3c0.8,0.8,1.3,2,1.3,3.2C28.9,59.1,28.4,60.3,27.6,61.1z"/>
<path id="XMLID_2602_" class="st2" d="M28.3,94c-1-1-2.4-1.6-3.9-1.6c-0.5,0-1,0.1-1.5,0.2l-0.4-1.9l0,0l-0.3-1.5h0.5l0.4,2.1
	c0,0.2,0.3,0.4,0.5,0.4h3.3c0.3,0,0.5-0.2,0.5-0.4l0.5-2.5c0-0.2,0-0.3-0.1-0.4c-0.1-0.1-0.2-0.2-0.4-0.2h-4.2c0,0-0.1,0-0.1,0
	c0,0,0,0-0.1,0h-1l-0.2-1.2c0,0,0,0,0,0c0,0,0,0,0-0.1c0,0,0,0,0,0c0,0,0,0,0-0.1c0,0,0,0,0,0c0,0,0,0,0,0c0,0-0.1-0.1-0.1-0.1
	c0,0,0,0,0,0c0,0,0,0-0.1,0c0,0,0,0,0,0c0,0-0.1,0-0.1,0c0,0,0,0,0,0c0,0-0.1,0-0.1,0c0,0,0,0,0,0h-2.8c-0.8,0-1.5,0.7-1.5,1.5
	c0,0.3,0.2,0.5,0.5,0.5c0.3,0,0.5-0.2,0.5-0.5c0-0.2,0.2-0.5,0.5-0.5h2.3l0.2,1l-8.1,5.3l-0.8-4.2h1.5c0.3,0,0.5-0.2,0.5-0.5
	c0-0.3-0.2-0.5-0.4-0.6L9.8,88c-0.2,0-0.4,0.1-0.5,0.2c-0.1,0.2-0.1,0.4-0.1,0.5l0.2,0.5c0.1,0.2,0.3,0.3,0.5,0.3h1.1l0.1,0.7
	l-2,2.8c-0.8-0.4-1.7-0.7-2.7-0.7c-1.5,0-2.9,0.6-3.9,1.6c-1,1-1.6,2.4-1.6,3.9c0,1.5,0.6,2.9,1.6,3.9c1,1,2.4,1.6,3.9,1.6
	c1.5,0,2.9-0.6,3.9-1.6c0.7-0.7,1.2-1.5,1.4-2.4l1,0.2l-0.2,1.5h-0.4c-0.3,0-0.5,0.2-0.5,0.5c0,0.3,0.2,0.5,0.5,0.5h1.4
	c0.3,0,0.5-0.2,0.5-0.5c0-0.3-0.2-0.5-0.5-0.5h0l0.2-1.6l7.8-7.7l0.2,1.2c-0.5,0.3-1,0.6-1.4,1c-1,1-1.6,2.4-1.6,3.9
	c0,1.5,0.6,2.9,1.6,3.9c1,1,2.4,1.6,3.9,1.6c1.5,0,2.9-0.6,3.9-1.6c1-1,1.6-2.4,1.6-3.9C29.9,96.5,29.4,95.1,28.3,94z M26.8,89.2
	l-0.3,1.5h-2.4l-0.3-1.5H26.8z M9.7,94.8c1,1,1.4,2.2,1.3,3.5l-3.8-0.7l2.2-3.1C9.5,94.6,9.6,94.7,9.7,94.8z M9.7,101.1
	c-0.8,0.8-2,1.3-3.2,1.3c-1.2,0-2.3-0.5-3.2-1.3c-0.8-0.8-1.3-2-1.3-3.2s0.5-2.3,1.3-3.2c0.8-0.8,2-1.3,3.2-1.3c0.7,0,1.4,0.2,2,0.5
	l-2.7,3.7c-0.1,0.1-0.1,0.3-0.1,0.5c0.1,0.2,0.2,0.3,0.4,0.3l4.6,0.8C10.6,100,10.2,100.6,9.7,101.1z M12,98.4
	c0.1-1.6-0.4-3.2-1.6-4.4c-0.1-0.1-0.3-0.2-0.4-0.4l1.4-2l1.3,6.9L12,98.4z M13.8,98.2l-0.6-3.3l8.1-5.3l0.2,1L13.8,98.2z
	 M27.6,101.1c-0.8,0.8-2,1.3-3.2,1.3c-1.2,0-2.3-0.5-3.2-1.3c-0.8-0.8-1.3-2-1.3-3.2s0.5-2.3,1.3-3.2c0.3-0.3,0.6-0.5,0.9-0.7
	l0.6,3.1c0,0,0,0,0,0.1c0.1,0.4,0.6,1.3,1.7,1.3c0.3,0,0.5-0.2,0.5-0.5s-0.2-0.5-0.5-0.5c-0.5,0-0.6-0.4-0.7-0.5l-0.6-3.3
	c0.4-0.1,0.9-0.2,1.3-0.2c1.2,0,2.3,0.5,3.2,1.3c0.8,0.8,1.3,2,1.3,3.2S28.4,100.3,27.6,101.1z"/>
<path id="XMLID_2719_" class="st3" d="M28.3,134c-1-1-2.4-1.6-3.9-1.6c-0.5,0-1,0.1-1.5,0.2l-0.4-1.9l0,0l-0.3-1.5h0.5l0.4,2.1
	c0,0.2,0.3,0.4,0.5,0.4h3.3c0.3,0,0.5-0.2,0.5-0.4l0.5-2.5c0-0.2,0-0.3-0.1-0.4c-0.1-0.1-0.2-0.2-0.4-0.2h-4.2c0,0-0.1,0-0.1,0
	c0,0,0,0-0.1,0h-1l-0.2-1.2c0,0,0,0,0,0c0,0,0,0,0-0.1c0,0,0,0,0,0c0,0,0,0,0-0.1c0,0,0,0,0,0c0,0,0,0,0,0c0,0-0.1-0.1-0.1-0.1
	c0,0,0,0,0,0c0,0,0,0-0.1,0c0,0,0,0,0,0c0,0-0.1,0-0.1,0c0,0,0,0,0,0c0,0-0.1,0-0.1,0c0,0,0,0,0,0h-2.8c-0.8,0-1.5,0.7-1.5,1.5
	c0,0.3,0.2,0.5,0.5,0.5c0.3,0,0.5-0.2,0.5-0.5c0-0.2,0.2-0.5,0.5-0.5h2.3l0.2,1l-8.1,5.3l-0.8-4.2h1.5c0.3,0,0.5-0.2,0.5-0.5
	c0-0.3-0.2-0.5-0.4-0.6L9.8,128c-0.2,0-0.4,0.1-0.5,0.2c-0.1,0.2-0.1,0.4-0.1,0.5l0.2,0.5c0.1,0.2,0.3,0.3,0.5,0.3h1.1l0.1,0.7
	l-2,2.8c-0.8-0.4-1.7-0.7-2.7-0.7c-1.5,0-2.9,0.6-3.9,1.6c-1,1-1.6,2.4-1.6,3.9c0,1.5,0.6,2.9,1.6,3.9c1,1,2.4,1.6,3.9,1.6
	c1.5,0,2.9-0.6,3.9-1.6c0.7-0.7,1.2-1.5,1.4-2.4l1,0.2l-0.2,1.5h-0.4c-0.3,0-0.5,0.2-0.5,0.5c0,0.3,0.2,0.5,0.5,0.5h1.4
	c0.3,0,0.5-0.2,0.5-0.5c0-0.3-0.2-0.5-0.5-0.5h0l0.2-1.6l7.8-7.7l0.2,1.2c-0.5,0.3-1,0.6-1.4,1c-1,1-1.6,2.4-1.6,3.9
	c0,1.5,0.6,2.9,1.6,3.9c1,1,2.4,1.6,3.9,1.6c1.5,0,2.9-0.6,3.9-1.6c1-1,1.6-2.4,1.6-3.9C29.9,136.5,29.4,135.1,28.3,134z
	 M26.8,129.2l-0.3,1.5h-2.4l-0.3-1.5H26.8z M9.7,134.8c1,1,1.4,2.2,1.3,3.5l-3.8-0.7l2.2-3.1C9.5,134.6,9.6,134.7,9.7,134.8z
	 M9.7,141.1c-0.8,0.8-2,1.3-3.2,1.3c-1.2,0-2.3-0.5-3.2-1.3c-0.8-0.8-1.3-2-1.3-3.2c0-1.2,0.5-2.3,1.3-3.2c0.8-0.8,2-1.3,3.2-1.3
	c0.7,0,1.4,0.2,2,0.5l-2.7,3.7c-0.1,0.1-0.1,0.3-0.1,0.5c0.1,0.2,0.2,0.3,0.4,0.3l4.6,0.8C10.6,140,10.2,140.6,9.7,141.1z M12,138.4
	c0.1-1.6-0.4-3.2-1.6-4.4c-0.1-0.1-0.3-0.2-0.4-0.4l1.4-2l1.3,6.9L12,138.4z M13.8,138.2l-0.6-3.3l8.1-5.3l0.2,1L13.8,138.2z
	 M27.6,141.1c-0.8,0.8-2,1.3-3.2,1.3c-1.2,0-2.3-0.5-3.2-1.3c-0.8-0.8-1.3-2-1.3-3.2c0-1.2,0.5-2.3,1.3-3.2c0.3-0.3,0.6-0.5,0.9-0.7
	l0.6,3.1c0,0,0,0,0,0.1c0.1,0.4,0.6,1.3,1.7,1.3c0.3,0,0.5-0.2,0.5-0.5c0-0.3-0.2-0.5-0.5-0.5c-0.5,0-0.6-0.4-0.7-0.5l-0.6-3.3
	c0.4-0.1,0.9-0.2,1.3-0.2c1.2,0,2.3,0.5,3.2,1.3c0.8,0.8,1.3,2,1.3,3.2C28.9,139.1,28.4,140.3,27.6,141.1z"/>
</svg>
