<svg width="32" height="232" viewBox="0 0 32 232" xmlns="http://www.w3.org/2000/svg"><g fill="none"><path d="M3.517 126.845h.21c-.033.127-.052.26-.052.4 0 .804.583 1.46 1.3 1.46h8.457c.316 0 .62-.13.858-.366.28-.28.44-.68.44-1.1 0-.42-.16-.82-.44-1.1-.238-.24-.543-.37-.858-.37h-4.83l.017-.2c0-.36-.14-.71-.38-.94-.21-.21-.47-.32-.74-.32H3.51c-.618 0-1.12.56-1.12 1.25s.502 1.26 1.12 1.26zm0-1.456H7.5l.115.05.06.14-.06.15-.116.05h-.01c-.26 0-.48.23-.48.53 0 .29.21.53.47.53h5.93c.11 0 .19.05.23.1.04.04.12.14.12.3 0 .15-.08.25-.12.3-.05.04-.13.1-.24.1H4.97c-.196 0-.356-.18-.356-.4 0-.22.16-.4.357-.4.26 0 .48-.24.48-.53 0-.3-.21-.53-.47-.53H3.51c-.097 0-.176-.09-.176-.2 0-.11.08-.2.173-.2zm28 17.71c-.28 0-.4-.06-.567-.13-.2-.09-.452-.2-.91-.2h-.175v-6.25c0-.3-.21-.53-.47-.53h-.77v-2.16c0-.3-.21-.53-.47-.53h-1.582v-3.14c0-.59-.422-1.06-.943-1.06h-.175l-1.255-5.66c-.05-.24-.24-.4-.457-.4-.217 0-.405.16-.458.4l-1.255 5.66h-.17c-.52 0-.94.47-.94 1.06v2.6h-.95c-.65-1.4-1.89-2.4-3.35-2.57v-1.16c0-.29-.21-.53-.47-.53s-.47.24-.47.53v1.16c-2.07.26-3.7 2.19-3.8 4.55h-.84v-.94c0-.59-.42-1.06-.94-1.06h-.41v-1.34c0-.3-.21-.53-.47-.53H3.35c-.26 0-.47.23-.47.53v1.34h-.41c-.52 0-.943.47-.943 1.06v9.01l.015.17-.14-.06c-.202-.09-.452-.2-.91-.2-.26 0-.472.23-.472.53 0 .29.21.53.473.53.28 0 .4.05.567.12.2.086.45.196.91.196s.708-.11.91-.19c.165-.076.286-.13.566-.13.28 0 .4.05.568.123.2.09.453.2.91.2H5v1.49c0 .29.21.53.472.53h2.55c.26 0 .47-.24.47-.53v-.05c-.003-.54-.033-1.043-.085-1.51.152-.04.27-.09.374-.136.17-.077.29-.13.57-.13.28 0 .4.054.57.13.2.084.45.194.91.194s.71-.11.91-.2l.22-.086h.7l.22.08c.2.09.45.2.91.2s.71-.11.91-.2l.22-.08h.71l.22.085c.2.082.46.192.91.192s.71-.11.91-.198l.22-.082h.7l.22.08c.2.09.45.2.91.2s.71-.11.91-.197l.22-.082h.7l.05.014.01.005.16.06c.2.084.46.194.91.194s.71-.11.91-.2l.05-.02h1.05l.04.02c.2.09.45.2.91.2s.71-.11.91-.2c.17-.07.29-.124.57-.124.28 0 .4.05.57.125.2.085.457.195.91.195.46 0 .71-.11.91-.2.17-.07.29-.13.57-.13.28 0 .4.057.57.13.2.09.45.2.91.2.26 0 .47-.237.47-.53 0-.29-.21-.53-.47-.53zm-15.362-11.85c1.107 0 2.09.6 2.7 1.53.11.16.207.34.29.53.077.17.143.34.196.53.06.2.11.42.14.63h-6.64c.23-1.83 1.63-3.24 3.32-3.24zm6.848-2.13l.74-3.35.865 3.9h-1.73l.125-.57zm3.57 7.94h2.35v5.71h-2.35v-5.71zm0-2.69h1.11V136h-1.11v-1.625zm-3.773-3.13h1.886v10.58H22.8v-10.58zm-2.08 11.57h-.23v-1.1c0-.29-.21-.53-.47-.53s-.473.24-.473.53v1.1h-.763v-1.1c0-.29-.21-.53-.472-.53s-.472.24-.472.53v1.09h-.763v-1.1c0-.29-.21-.53-.472-.53s-.472.24-.472.53v1.09h-.763v-1.09c0-.29-.21-.53-.472-.53-.26 0-.472.23-.472.53v1.09h-.763v-1.1c0-.29-.21-.53-.47-.53-.262 0-.473.23-.473.53v1.09h-.763v-1.09c0-.17-.07-.32-.18-.42-.08-.07-.18-.118-.29-.118-.233 0-.424.19-.464.44l-.008.1v1.09h-.463V140h10.514v2.815h-.347zm-7.916-7.28h6.744v1.49h-6.744v-1.49zm-.08 2.61h8.343v.78H10.71l.202-.79h1.81zm8.086-4.31v3.18h-.32V135l-.046-.227c-.013-.324-.055-.638-.123-.94h.49zm-9.785 1.99h.755v1.26h-.755v-1.26zm-7.21-3.86H8.73v.81H3.818v-.81zM5.94 143.9v-3.64c.43.474.982 1.31 1.315 2.68.086.354.157.743.208 1.17.038.315.065.647.078 1h-1.6v-1.21zm2.5-.94l-.192.078c-.535-2.618-1.8-3.764-2.307-4.13v-1.368c0-.294-.21-.53-.47-.53s-.47.236-.47.53v5.545l-.08.002c-.28 0-.4-.054-.56-.127-.14-.06-.3-.13-.53-.17l.01-.03v-7.86h4.91v7.868l.01.085-.3.115zm4.747 4.637c-.458 0-.71.11-.91.2-.167.072-.288.125-.568.125-.28 0-.4-.05-.57-.12-.2-.09-.45-.2-.91-.2-.27 0-.47.04-.63.09.36-.31.48-.6.5-.67.05-.16.03-.342-.05-.49-.09-.14-.24-.23-.39-.23H3.1c-.155 0-.3.09-.388.23-.088.14-.107.33-.052.49.026.08.175.456.676.82-.132.054-.254.09-.49.09-.26 0-.472.24-.472.53 0 .293.21.53.472.53.458 0 .71-.11.91-.2.167-.07.287-.124.568-.124.28 0 .4.053.567.126.2.09.45.2.91.2s.71-.11.91-.2c.16-.074.28-.127.56-.127s.4.055.57.13c.2.09.45.2.91.2s.71-.11.91-.2c.17-.07.29-.124.57-.124.28 0 .4.055.57.13.2.09.45.2.91.2s.71-.11.91-.2c.17-.074.29-.127.57-.127.26 0 .47-.24.47-.53 0-.296-.21-.53-.47-.53zm-8.38-.244H7.95c-.396.1-.91.166-1.572.166-.663 0-1.177-.07-1.573-.17z" fill="#206FAC"/><path d="M3.517 86.845h.21c-.033.127-.052.26-.052.4 0 .804.583 1.46 1.3 1.46h8.457c.316 0 .62-.13.858-.366.28-.28.44-.68.44-1.1 0-.42-.16-.82-.44-1.1-.238-.24-.543-.37-.858-.37h-4.83l.017-.2c0-.36-.14-.71-.38-.94-.21-.21-.47-.32-.74-.32H3.51c-.618 0-1.12.56-1.12 1.25s.502 1.26 1.12 1.26zm0-1.456H7.5l.115.05.06.14-.06.15-.116.05h-.01c-.26 0-.48.23-.48.53 0 .29.21.53.47.53h5.93c.11 0 .19.05.23.1.04.04.12.14.12.3 0 .15-.08.25-.12.3-.05.04-.13.1-.24.1H4.97c-.196 0-.356-.18-.356-.4 0-.22.16-.4.357-.4.26 0 .48-.24.48-.53 0-.3-.21-.53-.47-.53H3.51c-.097 0-.176-.09-.176-.2 0-.11.08-.2.173-.2zm28 17.71c-.28 0-.4-.06-.567-.13-.2-.09-.452-.2-.91-.2h-.175v-6.24c0-.3-.21-.53-.47-.53h-.77v-2.16c0-.3-.21-.53-.47-.53h-1.582v-3.13c0-.59-.422-1.06-.943-1.06h-.175L24.2 83.46c-.05-.237-.24-.403-.457-.403-.217 0-.405.166-.458.402l-1.255 5.66h-.17c-.52 0-.943.47-.943 1.06v2.6h-.95c-.65-1.4-1.893-2.4-3.352-2.57v-1.16c0-.3-.21-.53-.472-.53s-.47.23-.47.53v1.16c-2.073.26-3.7 2.19-3.803 4.55h-.84v-.94c0-.59-.424-1.06-.945-1.06h-.408v-1.34c0-.3-.21-.53-.472-.53h-5.86c-.26 0-.47.23-.47.53v1.34h-.41c-.52 0-.942.47-.942 1.06v9.02l.015.16-.142-.06c-.202-.09-.452-.2-.91-.2-.26 0-.472.23-.472.53 0 .29.21.53.473.53.28 0 .4.05.567.12.2.08.45.19.91.19s.708-.11.91-.2c.165-.07.286-.13.566-.13.28 0 .4.05.567.13.2.09.452.2.91.2h.08v1.49c0 .292.21.53.472.53h2.55c.26 0 .47-.238.47-.53v-.05c-.01-.54-.04-1.04-.09-1.51.15-.04.27-.09.37-.136.16-.075.28-.13.56-.13s.4.056.56.13c.2.09.45.2.91.2s.71-.11.91-.2l.21-.083h.7l.21.08c.2.09.45.2.91.2s.71-.11.91-.2l.22-.085h.7l.21.083c.2.086.45.196.91.196s.71-.11.91-.2l.21-.085h.7l.21.083c.2.09.45.2.91.2s.71-.11.91-.2l.21-.085h.707l.05.02h.01l.16.07c.2.09.45.2.91.2s.71-.11.91-.2l.04-.02h1.05l.04.02c.2.082.45.192.91.192s.71-.11.91-.2c.164-.07.285-.125.566-.125.28 0 .4.056.562.13.2.086.45.196.91.196s.71-.11.91-.192c.17-.08.29-.13.57-.13.28 0 .4.05.564.124.2.08.45.19.91.19.26 0 .47-.23.47-.53 0-.29-.21-.53-.47-.53zm-15.36-11.85c1.106 0 2.09.6 2.7 1.53.11.16.206.34.29.53.076.17.142.34.195.53.06.2.105.42.133.63H12.84c.23-1.83 1.63-3.24 3.317-3.24zm6.847-2.13l.74-3.35.865 3.9h-1.73l.12-.57zm3.57 7.94h2.35v5.71h-2.35v-5.71zm0-2.69h1.11V96h-1.11v-1.625zM22.8 91.24h1.886v10.58H22.8V91.24zm-2.08 11.574h-.23v-1.094c0-.29-.21-.53-.47-.53s-.473.238-.473.53v1.095h-.763v-1.094c0-.29-.21-.53-.472-.53s-.472.24-.472.53v1.1h-.763v-1.09c0-.29-.21-.53-.472-.53s-.472.24-.472.53v1.1h-.763v-1.09c0-.29-.21-.53-.472-.53-.26 0-.472.24-.472.53v1.1h-.763v-1.09c0-.29-.21-.53-.47-.53-.262 0-.473.24-.473.53v1.1h-.763v-1.09c0-.16-.07-.31-.18-.41-.08-.07-.18-.11-.29-.11-.233 0-.424.19-.464.44l-.008.096v1.093h-.463v-2.82h10.514v2.81h-.347zm-7.916-7.275h6.744v1.49h-6.744v-1.49zm-.08 2.61h8.343v.78H10.71l.202-.79h1.81zm8.086-4.31v3.18h-.32V95l-.046-.226c-.013-.323-.055-.637-.123-.94h.49zm-9.785 1.99h.755v1.26h-.755v-1.26zm-7.21-3.86H8.73v.81H3.818v-.81zm2.125 11.94v-3.64c.43.47.982 1.31 1.315 2.68.086.35.157.74.208 1.17.038.31.065.64.078 1h-1.6v-1.21zm2.5-.94l-.192.07c-.535-2.62-1.8-3.77-2.307-4.13v-1.36c0-.3-.21-.53-.47-.53s-.47.23-.47.53v5.54h-.08c-.28 0-.4-.06-.56-.13-.14-.06-.3-.13-.53-.17l.01-.03V94.9h4.91v7.868l.01.087-.3.115zm4.747 4.63c-.458 0-.71.11-.91.2-.167.07-.288.12-.568.12-.28 0-.4-.05-.57-.12-.2-.09-.45-.2-.91-.2-.27 0-.47.04-.63.09.36-.31.48-.6.5-.67.05-.16.03-.35-.05-.49-.09-.14-.24-.23-.39-.23H3.1c-.155 0-.3.09-.388.23-.088.14-.107.33-.052.49.026.07.175.45.676.81-.132.05-.254.09-.49.09-.26 0-.472.24-.472.53 0 .29.21.53.472.53.458 0 .71-.11.91-.2.167-.07.287-.13.568-.13.28 0 .4.05.567.12.2.09.45.2.91.2s.71-.11.91-.2c.16-.07.28-.13.56-.13s.4.054.57.13c.2.09.45.2.91.2s.71-.11.91-.2c.17-.07.29-.12.57-.12.28 0 .4.05.57.124.2.09.45.2.91.2s.71-.11.91-.2c.17-.074.29-.127.57-.127.26 0 .47-.24.47-.53 0-.29-.21-.53-.47-.53zm-8.38-.25H7.95c-.396.1-.91.16-1.572.16-.663 0-1.177-.07-1.573-.17z" fill="#fff"/><path d="M3.517 46.845h.21c-.033.127-.052.26-.052.4 0 .804.583 1.46 1.3 1.46h8.457c.316 0 .62-.13.858-.366.28-.28.44-.68.44-1.1 0-.42-.16-.82-.44-1.1-.238-.24-.543-.37-.858-.37h-4.83l.017-.2c0-.36-.14-.71-.38-.94-.21-.21-.47-.32-.74-.32H3.51c-.618 0-1.12.56-1.12 1.25s.502 1.26 1.12 1.26zm0-1.456H7.5l.115.05.06.14-.06.15-.116.05h-.01c-.26 0-.48.23-.48.53 0 .29.21.53.47.53h5.93c.11 0 .19.05.23.1.04.04.12.14.12.3 0 .15-.08.25-.12.3-.05.04-.13.1-.24.1H4.97c-.196 0-.356-.18-.356-.4 0-.22.16-.4.357-.4.26 0 .48-.24.48-.53 0-.3-.21-.53-.47-.53H3.51c-.097 0-.176-.09-.176-.2 0-.11.08-.2.173-.2zm28 17.71c-.28 0-.4-.06-.567-.13-.2-.09-.452-.2-.91-.2h-.175v-6.24c0-.3-.21-.53-.47-.53h-.77v-2.16c0-.3-.21-.53-.47-.53h-1.582v-3.13c0-.59-.422-1.06-.943-1.06h-.175L24.2 43.46c-.05-.237-.24-.403-.457-.403-.217 0-.405.166-.458.402l-1.255 5.66h-.17c-.52 0-.943.47-.943 1.06v2.6h-.95c-.65-1.4-1.893-2.4-3.352-2.57v-1.16c0-.3-.21-.53-.472-.53s-.47.23-.47.53v1.16c-2.073.26-3.7 2.19-3.803 4.55h-.84v-.94c0-.59-.424-1.06-.945-1.06h-.408v-1.34c0-.3-.21-.53-.472-.53h-5.86c-.26 0-.47.23-.47.53v1.34h-.41c-.52 0-.942.47-.942 1.06v9.02l.015.16-.142-.06c-.202-.09-.452-.2-.91-.2-.26 0-.472.23-.472.53 0 .29.21.53.473.53.28 0 .4.05.567.12.2.08.45.19.91.19s.708-.11.91-.2c.165-.07.286-.13.566-.13.28 0 .4.05.567.13.2.09.452.2.91.2h.08v1.49c0 .29.21.53.472.53h2.55c.26 0 .47-.24.47-.53v-.05c-.01-.54-.04-1.04-.09-1.51.15-.04.27-.09.37-.137.16-.075.28-.13.56-.13s.4.056.56.13c.2.09.45.2.91.2s.71-.11.91-.2l.21-.083h.7l.21.08c.2.09.45.2.91.2s.71-.11.91-.2l.22-.085h.7l.21.083c.2.085.45.195.91.195s.71-.11.91-.2l.21-.085h.7l.21.084c.2.09.45.2.91.2s.71-.11.91-.2l.21-.085h.707l.05.02h.01l.16.07c.2.09.45.2.91.2s.71-.11.91-.2l.04-.02h1.05l.04.02c.2.08.45.19.91.19s.71-.11.91-.2c.164-.07.285-.124.566-.124.28 0 .4.056.562.13.2.086.45.196.91.196s.71-.11.91-.195c.17-.08.29-.13.57-.13.28 0 .4.05.564.12.2.08.45.19.91.19.26 0 .47-.23.47-.53 0-.29-.21-.53-.47-.53zm-15.36-11.85c1.106 0 2.09.6 2.7 1.53.11.16.206.34.29.53.076.17.142.34.195.53.06.2.105.42.133.63H12.84c.23-1.83 1.63-3.24 3.317-3.24zm6.847-2.13l.74-3.35.865 3.9h-1.73l.12-.57zm3.57 7.94h2.35v5.71h-2.35v-5.71zm0-2.69h1.11V56h-1.11v-1.625zM22.8 51.24h1.886v10.58H22.8V51.24zm-2.08 11.574h-.23V61.72c0-.29-.21-.53-.47-.53s-.473.238-.473.53v1.095h-.763V61.72c0-.29-.21-.53-.472-.53s-.472.238-.472.53v1.095h-.763V61.72c0-.29-.21-.53-.472-.53s-.472.238-.472.53v1.095h-.763V61.72c0-.29-.21-.53-.472-.53-.26 0-.472.238-.472.53v1.095h-.763V61.72c0-.29-.21-.53-.47-.53-.262 0-.473.238-.473.53v1.095h-.763V61.72c0-.167-.07-.315-.18-.412-.08-.07-.18-.11-.29-.11-.233 0-.424.187-.464.434l-.008.095v1.092h-.463V60h10.514v2.815h-.347zm-7.916-7.275h6.744v1.49h-6.744v-1.49zm-.08 2.61h8.343v.78H10.71l.202-.79h1.81zm8.086-4.31v3.18h-.32V55l-.046-.226c-.013-.323-.055-.637-.123-.94h.49zm-9.785 1.99h.755v1.26h-.755v-1.26zm-7.21-3.86H8.73v.81H3.818v-.81zM5.94 63.91v-3.64c.43.474.982 1.31 1.315 2.68.086.354.157.743.208 1.172.038.313.065.645.078 1h-1.6v-1.21zm2.5-.938l-.192.076c-.535-2.618-1.8-3.764-2.307-4.13V57.55c0-.293-.21-.53-.47-.53s-.47.237-.47.53v5.546l-.08.002c-.28 0-.4-.053-.56-.126-.14-.06-.3-.13-.53-.17l.01-.03v-7.867h4.91v7.867l.01.085-.3.115zm4.747 4.635c-.458 0-.71.11-.91.198-.167.073-.288.126-.568.126-.28 0-.4-.05-.57-.12-.2-.09-.45-.2-.91-.2-.27 0-.47.04-.63.09.36-.31.48-.6.5-.67.05-.16.03-.34-.05-.49-.09-.14-.24-.23-.39-.23H3.1c-.155 0-.3.09-.388.23-.088.14-.107.33-.052.49.026.08.175.46.676.82-.132.06-.254.09-.49.09-.26 0-.472.24-.472.53 0 .3.21.53.472.53.458 0 .71-.11.91-.2.167-.07.287-.12.568-.12.28 0 .4.06.567.13.2.09.45.2.91.2s.71-.11.91-.2c.16-.07.28-.12.56-.12s.4.06.57.13c.2.09.45.2.91.2s.71-.11.91-.2c.17-.07.29-.12.57-.12.28 0 .4.06.57.13.2.09.45.2.91.2s.71-.11.91-.2c.17-.07.29-.12.57-.12.26 0 .47-.24.47-.53 0-.29-.21-.53-.47-.53zm-8.38-.244H7.95c-.396.1-.91.167-1.572.167-.663 0-1.177-.068-1.573-.167z" fill="#67737B"/><path d="M3.517 6.845h.21c-.033.127-.052.26-.052.4 0 .804.583 1.46 1.3 1.46h8.457c.316 0 .62-.13.858-.366.28-.28.44-.68.44-1.1 0-.42-.16-.82-.44-1.1-.238-.24-.543-.37-.858-.37h-4.83l.017-.2c0-.36-.14-.71-.38-.94-.21-.21-.47-.32-.74-.32H3.51c-.618 0-1.12.56-1.12 1.25s.502 1.26 1.12 1.26zm0-1.456H7.5l.115.05.06.14-.06.15-.116.05h-.01c-.26 0-.48.23-.48.53 0 .29.21.53.47.53h5.93c.11 0 .19.05.23.1.04.04.12.14.12.3 0 .15-.08.25-.12.3-.05.04-.13.1-.24.1H4.97c-.196 0-.356-.18-.356-.4 0-.22.16-.4.357-.4.26 0 .48-.24.48-.53 0-.3-.21-.53-.47-.53H3.51c-.097 0-.176-.09-.176-.2 0-.11.08-.2.173-.2zm28 17.71c-.28 0-.4-.06-.567-.13-.2-.09-.452-.2-.91-.2h-.175v-6.24c0-.3-.21-.53-.47-.53h-.77v-2.16c0-.3-.21-.53-.47-.53h-1.582v-3.13c0-.59-.422-1.06-.943-1.06h-.175L24.2 3.46c-.05-.237-.24-.403-.457-.403-.217 0-.405.166-.458.402L22.03 9.12h-.173c-.52 0-.943.474-.943 1.06v2.603h-.95c-.65-1.398-1.893-2.396-3.352-2.57v-1.16c0-.293-.21-.53-.472-.53s-.472.237-.472.53v1.164c-2.072.264-3.7 2.19-3.802 4.557h-.84v-.933c0-.58-.423-1.06-.944-1.06h-.408v-1.34c0-.29-.21-.53-.472-.53H3.344c-.26 0-.472.24-.472.53v1.34h-.408c-.52 0-.943.48-.943 1.06v9.02l.02.17-.14-.06c-.2-.09-.45-.2-.91-.2-.26 0-.47.24-.47.53 0 .3.21.53.48.53.28 0 .4.06.57.13.2.09.45.2.91.2s.71-.11.91-.19c.17-.07.29-.12.57-.12.28 0 .4.06.57.13.2.09.45.2.91.2H5v1.5c0 .29.21.53.47.53h2.55c.26 0 .473-.24.473-.53l-.002-.05c0-.54-.03-1.04-.08-1.51.15-.04.27-.09.38-.13.17-.07.29-.12.57-.12.28 0 .4.06.57.13.2.086.46.196.91.196s.71-.11.91-.2l.22-.09h.71l.22.08c.2.09.45.2.91.2s.71-.11.91-.2l.22-.08h.71l.22.09c.2.09.45.2.91.2s.71-.11.91-.195l.21-.083h.7l.22.085c.2.09.45.2.91.2s.71-.11.91-.2l.21-.085h.71l.045.02.013.005.15.065c.2.09.456.2.91.2s.71-.11.91-.2l.046-.02h1.05l.04.02c.2.086.453.196.91.196s.71-.11.91-.2c.167-.07.288-.12.57-.12.28 0 .4.058.56.13.2.09.457.2.91.2.46 0 .71-.11.91-.2.17-.075.29-.13.57-.13.28 0 .4.05.57.127.2.09.455.2.91.2.265 0 .476-.233.476-.53 0-.29-.21-.53-.47-.53zm-15.36-11.85c1.106 0 2.09.6 2.7 1.53.11.16.206.34.29.53.076.17.142.34.195.53.06.2.105.42.133.63H12.84c.23-1.83 1.63-3.24 3.317-3.24zm6.847-2.13l.74-3.35.865 3.9h-1.73l.12-.56zm3.57 7.94h2.35v5.71h-2.35v-5.71zm0-2.69h1.11V16h-1.11v-1.625zM22.8 11.24h1.886v10.58H22.8V11.24zm-2.08 11.574h-.23V21.72c0-.29-.21-.53-.47-.53s-.473.238-.473.53v1.095h-.763V21.72c0-.29-.21-.53-.472-.53s-.472.238-.472.53v1.095h-.763V21.72c0-.29-.21-.53-.472-.53s-.472.238-.472.53v1.095h-.763V21.72c0-.29-.21-.53-.472-.53-.26 0-.472.238-.472.53v1.095h-.763V21.72c0-.29-.21-.53-.47-.53-.262 0-.473.238-.473.53v1.095h-.763V21.72c0-.167-.07-.315-.18-.412-.08-.07-.18-.11-.29-.11-.233 0-.424.187-.464.434l-.008.095v1.092h-.463V20h10.514v2.815h-.347zm-7.916-7.275h6.744v1.49h-6.744v-1.49zm-.08 2.61h8.343v.78H10.71l.202-.79h1.81zm8.086-4.31v3.18h-.32V15l-.046-.226c-.013-.323-.055-.637-.123-.94h.49zm-9.785 1.99h.755v1.26h-.755v-1.26zm-7.21-3.86H8.73v.81H3.818v-.81zM5.94 23.91v-3.64c.43.474.982 1.31 1.315 2.68.086.354.157.743.208 1.172.038.313.065.645.078 1h-1.6v-1.21zm2.5-.938l-.192.076c-.535-2.618-1.8-3.764-2.307-4.13V17.55c0-.293-.21-.53-.47-.53s-.47.237-.47.53v5.546l-.08.002c-.28 0-.4-.053-.56-.126-.14-.06-.3-.13-.53-.17l.01-.03v-7.867h4.91v7.867l.01.085-.3.115zm4.747 4.635c-.458 0-.71.11-.91.198-.167.073-.288.126-.568.126-.28 0-.4-.05-.57-.12-.2-.09-.45-.2-.91-.2-.27 0-.47.04-.63.09.36-.31.48-.6.5-.67.05-.16.03-.34-.05-.49-.09-.14-.24-.23-.39-.23H3.1c-.155 0-.3.09-.388.23-.088.14-.107.33-.052.49.026.08.175.46.676.82-.132.06-.254.09-.49.09-.26 0-.472.24-.472.53 0 .3.21.53.472.53.458 0 .71-.11.91-.2.167-.07.287-.12.568-.12.28 0 .4.06.567.13.2.09.45.2.91.2s.71-.11.91-.2c.16-.07.28-.12.56-.12s.4.06.57.13c.2.09.45.2.91.2s.71-.11.91-.2c.17-.07.29-.12.57-.12.28 0 .4.06.57.13.2.09.45.2.91.2s.71-.11.91-.2c.17-.07.29-.12.57-.12.26 0 .47-.24.47-.53 0-.29-.21-.53-.47-.53zm-8.38-.244H7.95c-.396.1-.91.167-1.572.167-.663 0-1.177-.068-1.573-.167z" fill="#3A434E"/></g></svg>