<svg width="32" height="232" viewBox="0 0 32 232" xmlns="http://www.w3.org/2000/svg"><g fill="none"><path d="M23.29 133.14c-.164.2-.14.505.05.677l1.65 1.494c.087.08.19.12.295.12.128 0 .256-.05.346-.17.17-.2.14-.5-.05-.67l-1.65-1.49c-.19-.17-.47-.15-.64.06zm-6.813-5.53c.086.077.19.114.295.114.128 0 .256-.057.345-.17.163-.2.14-.505-.05-.677l-1.652-1.495c-.19-.173-.476-.148-.64.054-.162.202-.14.506.05.678l1.653 1.494zm6.655-.418c.128 0 .256-.057.346-.17l1.41-1.75c.163-.2.14-.505-.05-.678-.19-.173-.478-.148-.64.054l-1.41 1.75c-.164.202-.142.506.05.678.085.078.19.115.293.115zm-3.284-1.13h.036c.25-.022.438-.254.418-.52l-.183-2.45c-.02-.266-.24-.463-.49-.443-.25.02-.44.25-.42.51l.18 2.45c.02.25.22.44.45.44zm4.4 3.946c.02.252.218.444.452.444l.037-.002 2.313-.193c.25-.02.436-.252.417-.518-.02-.27-.238-.47-.49-.45l-2.312.19c-.25.02-.437.25-.417.51zm1.636 2.81c.19 0 .368-.13.43-.33.08-.253-.05-.525-.287-.61l-1.398-.488c-.24-.084-.5.053-.58.305-.08.252.05.525.29.608l1.39.49.14.023zm-4.408-6.554l.143.024c.19 0 .36-.128.43-.33l.46-1.48c.08-.253-.05-.526-.29-.61-.24-.082-.5.054-.58.307l-.46 1.48c-.08.253.05.525.29.61zm-3.706.028c.08.168.24.265.406.265l.204-.052c.224-.12.314-.41.202-.646l-.662-1.4c-.112-.24-.385-.34-.61-.22-.223.12-.314.41-.2.64l.66 1.39zm6.057 2.12c.08.17.24.266.406.266l.204-.052 1.315-.7c.224-.12.315-.41.2-.647-.11-.24-.384-.34-.608-.22l-1.315.7c-.23.12-.32.41-.21.65zm7.26 18.91h-1.074v-1.564c0-.266-.203-.48-.454-.48h-.73v-1.493c0-.266-.21-.48-.46-.48h-.77v-1.493c0-.266-.21-.482-.46-.482h-.77v-1.492c0-.266-.2-.48-.46-.48h-.81v-1.493c0-.266-.21-.482-.46-.482h-.83v-1.492c0-.26-.21-.48-.46-.48h-.81v-1.49c0-.26-.2-.48-.455-.48H21v-4.31c0-.26-.202-.48-.453-.48H11.4c-.25 0-.45.22-.45.48v4.32h-1.1c-.25 0-.456.22-.456.48v1.5h-.8c-.25 0-.455.22-.455.48v1.5h-.82c-.25 0-.46.22-.46.48v1.49h-.8c-.25 0-.46.22-.46.48v1.5h-.76c-.25 0-.46.22-.46.49v1.49h-.76c-.25 0-.46.22-.46.48v1.5h-.72c-.25 0-.46.22-.46.48v1.57H.91c-.502 0-.91.43-.91.96s.408.967.91.967h30.175c.5 0 .908-.43.908-.965s-.407-.965-.908-.965zm-16.328-.073v-12.97h2.45v12.98h-2.45v-.02zm4.23-1.01H29.1v1.01H18.998v-1.01zm0-1.98h8.92v1.01h-8.92v-1.01zm0-1.98h7.71v1.01h-7.71v-1.01zm0-1.98h6.48v1.01h-6.48v-1.01zm0-1.98h5.22v1.01h-5.22v-1.01zm0-1.98h3.95v1.01h-3.95v-1.01zm2.69-1.97v1.01h-2.69v-1h1.58l.11-.02h.99zm-9.81-4.8h8.24v3.83h-1.25c-.16-.28-.45-.47-.78-.47s-.62.19-.78.47h-.6v-1.37c0-.25-.32-.45-.72-.45-.4 0-.72.2-.72.45v1.372h-.6c-.16-.28-.44-.466-.77-.466s-.62.19-.78.47h-1.26v-3.84zm-1.56 4.8h.99l.11.02H13v.99h-2.687v-1.01zm-1.26 1.97H13v1.01H9.05v-1.01zm-1.28 1.97H13v1.01H7.777v-1.01zm-1.26 1.97H13v1.01H6.518v-1.01zm-1.22 1.97H13v1.01H5.298v-1.01zm-1.22 1.97H13v1.01H4.078v-1.01zm-1.18 1.98H13v1.01H2.897v-1.01z" fill="#206FAC"/><path d="M23.29 93.14c-.164.2-.14.505.05.677l1.65 1.494c.087.08.19.12.295.12.128 0 .256-.05.346-.17.17-.2.14-.5-.05-.67l-1.65-1.49c-.19-.17-.47-.15-.64.06zm-6.813-5.53c.086.077.19.114.295.114.128 0 .256-.057.345-.17.163-.2.14-.505-.05-.677l-1.652-1.495c-.19-.173-.476-.148-.64.054-.162.202-.14.506.05.678l1.653 1.494zm6.655-.418c.128 0 .256-.057.346-.17l1.41-1.75c.163-.2.14-.505-.05-.678-.19-.173-.478-.148-.64.054l-1.41 1.75c-.164.202-.142.506.05.678.085.078.19.115.293.115zm-3.284-1.13h.036c.25-.022.438-.254.418-.52l-.183-2.45c-.02-.266-.24-.463-.49-.443-.25.02-.44.25-.42.51l.18 2.45c.02.25.22.44.45.44zm4.4 3.946c.02.252.218.444.452.444l.037-.002 2.313-.193c.25-.02.436-.252.417-.518-.02-.27-.238-.47-.49-.45l-2.312.19c-.25.02-.437.25-.417.51zm1.636 2.81c.19 0 .368-.13.43-.33.08-.253-.05-.525-.287-.61l-1.398-.488c-.24-.084-.5.053-.58.305-.08.252.05.525.29.608l1.39.49.14.023zm-4.408-6.554l.143.024c.19 0 .36-.128.43-.33l.46-1.48c.08-.253-.05-.526-.29-.61-.24-.082-.5.054-.58.307l-.46 1.48c-.08.253.05.525.29.61zm-3.706.028c.08.168.24.265.406.265l.204-.052c.224-.12.314-.41.202-.646l-.662-1.4c-.112-.24-.385-.34-.61-.22-.223.12-.314.41-.2.64l.66 1.39zm6.057 2.12c.08.17.24.266.406.266l.204-.052 1.315-.7c.224-.12.315-.41.2-.647-.11-.24-.384-.34-.608-.22l-1.315.7c-.23.12-.32.41-.21.65zm7.26 18.91h-1.074v-1.564c0-.266-.203-.48-.454-.48h-.73v-1.493c0-.266-.21-.48-.46-.48h-.77v-1.493c0-.266-.21-.482-.46-.482h-.77v-1.492c0-.266-.2-.48-.46-.48h-.81v-1.493c0-.266-.21-.482-.46-.482h-.83V95.89c0-.265-.21-.48-.46-.48h-.81v-1.492c0-.266-.2-.482-.455-.482H21V89.12c0-.265-.202-.48-.453-.48H11.4c-.25 0-.45.216-.45.48v4.316h-1.1c-.25 0-.456.216-.456.482v1.492h-.8c-.25 0-.455.216-.455.48v1.493h-.82c-.25 0-.46.216-.46.482v1.492h-.8c-.25 0-.46.216-.46.48v1.493h-.76c-.25 0-.46.216-.46.482v1.492h-.76c-.25 0-.46.216-.46.48v1.493h-.72c-.25 0-.46.216-.46.48v1.566H.91c-.502 0-.91.43-.91.963 0 .53.408.963.91.963h30.175c.5 0 .908-.44.908-.97s-.407-.97-.908-.97zm-16.328-.073V94.28h2.45v12.983h-2.45v-.02zm4.23-1.01H29.1v1.01H18.998v-1.01zm0-1.98h8.92v1.01h-8.92v-1.01zm0-1.98h7.71v1.01h-7.71v-1.01zm0-1.98h6.48v1.01h-6.48v-1.01zm0-1.98h5.22v1.01h-5.22v-1.01zm0-1.98h3.95v1.01h-3.95v-1.01zm2.69-1.97v1.01h-2.69v-.99h1.58l.11-.02h.99zm-9.81-4.79h8.24v3.83h-1.25c-.16-.28-.45-.47-.78-.47s-.62.18-.78.46h-.6v-1.37c0-.25-.32-.45-.72-.45-.4 0-.72.2-.72.44v1.38h-.6c-.16-.276-.44-.46-.77-.46s-.61.19-.77.47h-1.26V89.6zm-1.56 4.8h.99l.11.02H13v.99h-2.687v-1zm-1.26 1.98H13v1.01H9.05v-1.01zm-1.28 1.98H13v1.01H7.777v-1.01zm-1.26 1.97H13v1.01H6.517v-1.01zm-1.22 1.97H13v1.01H5.297v-1.01zm-1.22 1.97H13v1.01H4.077v-1.01zm-1.18 1.97H13v1.01H2.893v-1.01z" fill="#fff"/><path d="M23.29 53.14c-.164.2-.14.505.05.677l1.65 1.494c.087.08.19.12.295.12.128 0 .256-.05.346-.17.17-.2.14-.5-.05-.67l-1.65-1.49c-.19-.17-.47-.15-.64.06zm-6.813-5.53c.086.077.19.114.295.114.128 0 .256-.057.345-.17.163-.2.14-.505-.05-.677l-1.652-1.495c-.19-.173-.476-.148-.64.054-.162.202-.14.506.05.678l1.653 1.494zm6.655-.418c.128 0 .256-.057.346-.17l1.41-1.75c.163-.2.14-.505-.05-.678-.19-.173-.478-.148-.64.054l-1.41 1.75c-.164.202-.142.506.05.678.085.078.19.115.293.115zm-3.284-1.13h.036c.25-.022.438-.254.418-.52l-.183-2.45c-.02-.266-.24-.463-.49-.443-.25.02-.44.25-.42.51l.18 2.45c.02.25.22.44.45.44zm4.4 3.946c.02.252.218.444.452.444l.037-.002 2.313-.193c.25-.02.436-.252.417-.518-.02-.27-.238-.47-.49-.45l-2.312.19c-.25.02-.437.25-.417.51zm1.636 2.81c.19 0 .368-.13.43-.33.08-.253-.05-.525-.287-.61l-1.398-.488c-.24-.084-.5.053-.58.305-.08.252.05.525.29.608l1.39.49.14.023zm-4.408-6.554l.143.024c.19 0 .36-.128.43-.33l.46-1.48c.08-.253-.05-.526-.29-.61-.24-.082-.5.054-.58.307l-.46 1.48c-.08.253.05.525.29.61zm-3.706.028c.08.168.24.265.406.265l.204-.052c.224-.12.314-.41.202-.646l-.662-1.4c-.112-.24-.385-.34-.61-.22-.223.12-.314.41-.2.64l.66 1.39zm6.057 2.12c.08.17.24.266.406.266l.204-.052 1.315-.7c.224-.12.315-.41.2-.647-.11-.24-.384-.34-.608-.22l-1.315.7c-.23.12-.32.41-.21.65zm7.26 18.91h-1.074V65.76c0-.266-.203-.48-.454-.48h-.73v-1.493c0-.266-.21-.48-.46-.48h-.77V61.81c0-.266-.21-.482-.46-.482h-.77v-1.492c0-.266-.2-.48-.46-.48h-.81v-1.493c0-.266-.21-.482-.46-.482h-.83v-1.49c0-.26-.21-.48-.46-.48h-.81v-1.49c0-.26-.2-.48-.455-.48H21v-4.32c0-.26-.202-.48-.453-.48H11.4c-.25 0-.45.22-.45.48v4.32h-1.1c-.25 0-.456.22-.456.48v1.49h-.8c-.25 0-.455.22-.455.48v1.5h-.82c-.25 0-.46.22-.46.48v1.49h-.8c-.25 0-.46.22-.46.48v1.5h-.76c-.25 0-.46.22-.46.49v1.49h-.76c-.25 0-.46.22-.46.48v1.49h-.72c-.25 0-.46.22-.46.48v1.57H.91c-.502 0-.91.43-.91.96s.408.97.91.97h30.175c.5 0 .908-.43.908-.96s-.407-.96-.908-.96zM14.76 67.25V54.285h2.45V67.27h-2.45v-.02zm4.237-1.01h10.107v1.01H18.997v-1.01zm0-1.974h8.927v1.01h-8.927v-1.01zm0-1.973h7.707v1.01h-7.707v-1.01zm0-1.973h6.487v1.01h-6.487v-1.01zm0-1.973h5.227v1.01h-5.227v-1.01zm0-1.973h3.948v1.01h-3.948v-1.01zm2.69-1.973v1.02h-2.69v-.99h1.58l.112-.01h.99zm-9.81-4.79h8.246v3.84h-1.257c-.16-.28-.447-.46-.776-.46-.33 0-.617.19-.777.47h-.6v-1.38c0-.24-.318-.44-.712-.44-.39 0-.71.2-.71.45v1.37h-.6c-.16-.28-.44-.47-.77-.47s-.61.19-.77.47h-1.26v-3.84zm-1.563 4.79h.996l.112.02h1.58v1h-2.688v-1.01zm-1.26 1.98h3.95v1.01h-3.95v-1.01zm-1.278 1.97h5.227v1.01H7.776v-1.01zm-1.26 1.98h6.488v1.01H6.517v-1.01zm-1.22 1.97h7.708v1.01H5.297V62.3zm-1.22 1.98h8.928v1.01H4.077v-1.01zm-1.18 1.97h10.108v1.01H2.896v-1.01z" fill="#67737B"/><path d="M23.29 13.14c-.164.2-.14.505.05.677l1.65 1.494c.087.08.19.12.295.12.128 0 .256-.05.346-.17.17-.2.14-.5-.05-.67l-1.65-1.49c-.19-.17-.47-.15-.64.06zm-6.813-5.53c.086.077.19.114.295.114.128 0 .256-.057.345-.17.163-.2.14-.505-.05-.677l-1.652-1.495c-.19-.173-.476-.148-.64.054-.162.202-.14.506.05.678l1.653 1.494zm6.655-.418c.128 0 .256-.057.346-.17l1.41-1.75c.163-.2.14-.505-.05-.678-.19-.173-.478-.148-.64.054l-1.41 1.75c-.164.202-.142.506.05.678.085.078.19.115.293.115zm-3.284-1.13h.036c.25-.022.438-.254.418-.52l-.183-2.45c-.02-.266-.24-.463-.49-.443-.25.02-.44.25-.42.51l.18 2.45c.02.25.22.44.45.44zm4.4 3.946c.02.252.218.444.452.444l.037-.002 2.313-.193c.25-.02.436-.252.417-.518-.02-.27-.238-.47-.49-.45l-2.312.19c-.25.02-.437.25-.417.51zm1.636 2.81c.19 0 .368-.13.43-.33.08-.253-.05-.525-.287-.61l-1.398-.488c-.24-.084-.5.053-.58.305-.08.252.05.525.29.608l1.39.49.14.023zm-4.408-6.554l.143.024c.19 0 .36-.128.43-.33l.46-1.48c.08-.253-.05-.526-.29-.61-.24-.082-.5.054-.58.307l-.46 1.48c-.08.253.05.525.29.61zm-3.706.028c.08.168.24.265.406.265l.204-.052c.224-.12.314-.41.202-.646l-.662-1.4c-.112-.24-.385-.34-.61-.22-.223.12-.314.41-.2.64l.66 1.39zm6.057 2.12c.08.17.24.266.406.266l.204-.052 1.315-.7c.224-.12.315-.41.2-.647-.11-.24-.384-.34-.608-.22l-1.315.7c-.23.12-.32.41-.21.65zm7.26 18.91h-1.074V25.76c0-.266-.203-.48-.454-.48h-.73v-1.493c0-.266-.21-.48-.46-.48h-.77V21.81c0-.266-.21-.482-.46-.482h-.77v-1.492c0-.266-.2-.48-.46-.48h-.81v-1.493c0-.266-.21-.482-.46-.482h-.83v-1.49c0-.26-.21-.48-.46-.48h-.81v-1.49c0-.26-.2-.48-.455-.48H21V9.12c0-.265-.202-.48-.453-.48H11.4c-.25 0-.45.216-.45.48v4.316h-1.1c-.25 0-.456.216-.456.482v1.492h-.8c-.25 0-.455.216-.455.48v1.493h-.82c-.25 0-.46.216-.46.482v1.492h-.8c-.25 0-.46.216-.46.48v1.493h-.76c-.25 0-.46.216-.46.482v1.492h-.76c-.25 0-.46.216-.46.48v1.493h-.72c-.25 0-.46.216-.46.48v1.566H.91c-.502 0-.91.43-.91.963 0 .53.408.963.91.963h30.175c.5 0 .908-.44.908-.97s-.407-.97-.908-.97zM14.76 27.25V14.285h2.45V27.27h-2.45v-.02zm4.237-1.01h10.107v1.01H18.997v-1.01zm0-1.974h8.927v1.01h-8.927v-1.01zm0-1.973h7.707v1.01h-7.707v-1.01zm0-1.973h6.487v1.01h-6.487v-1.01zm0-1.973h5.227v1.01h-5.227v-1.01zm0-1.973h3.948v1.01h-3.948v-1.01zm2.69-1.973v1.02h-2.69v-.99h1.58l.112-.01h.99zm-9.81-4.79h8.246v3.84h-1.257c-.16-.28-.447-.46-.776-.46-.33 0-.617.19-.777.47h-.6v-1.38c0-.24-.318-.44-.712-.44-.39 0-.71.2-.71.45v1.37h-.6c-.16-.28-.44-.47-.77-.47s-.61.19-.77.47h-1.26V9.61zm-1.563 4.79h.996l.112.02h1.58v1h-2.688v-1.01zm-1.26 1.98h3.95v1.01h-3.95v-1.01zm-1.278 1.97h5.227v1.01H7.776v-1.01zm-1.26 1.98h6.488v1.01H6.517v-1.01zm-1.22 1.97h7.708v1.01H5.297V22.3zm-1.22 1.98h8.928v1.01H4.077v-1.01zm-1.18 1.97h10.108v1.01H2.896v-1.01z" fill="#3A434E"/></g></svg>