<svg width="32" height="232" viewBox="0 0 32 232" xmlns="http://www.w3.org/2000/svg"><g fill="none"><path d="M3.338 124.478h2.85l3.207 3.514c.107.117.252.18.4.18l.207-.043c.21-.09.348-.31.348-.54v-1.37c0-.11-.03-.22-.085-.31l-.86-1.44h3.192c.17 0 .33-.08.435-.22l2.124-2.82c.132-.18.157-.42.064-.62s-.286-.33-.5-.33h-1.426c-.154 0-.3.06-.405.18l-.69.77H3.34c-1.077 0-1.86.63-1.86 1.51 0 .87.78 1.51 1.854 1.51zm.007-1.865h9.1c.155 0 .3-.067.406-.184l.69-.77h.04l-1.24 1.65H3.35c-.448 0-.75-.19-.75-.35 0-.17.303-.35.753-.35zm4.378 1.865h.374l.71 1.19-1.085-1.19zm23.127-1.807h-2.475c-.486 0-.915.34-1.06.82l-.824 2.79-1.75 2.3c-.15.21-.24.46-.24.73v2.27l-1.15.59c-.11.06-.21.14-.3.24-.29.32-.52.59-.71.83l-.82-.63-1.25-1.01c-.17-.13-.39-.15-.58-.05l-3.38 1.77-2.61 1.09-1.97-.56c-.14-.04-.29-.02-.42.05l-1.42.84-.15-.77c-.04-.2-.18-.36-.36-.43l-.66-.23-.28-.593v-.87c0-.175-.08-.34-.21-.452l-.53-.442v-.96c0-.32-.25-.58-.552-.58H4.46v-1.51c0-.32-.24-.57-.54-.58-.124 0-3.018-.074-3.34-.074-.307 0-.555.26-.555.58 0 .32.248.58.554.58.21 0 1.69.03 2.77.06v2.61c0 .162.07.32.19.43L5.2 133v1.983c0 .352.32 1.168.95 2.425.072.15.205.258.362.296l1.036.256.27.786.04.098.994 1.785H7.12c-.976 0-1.768.83-1.768 1.85 0 .98.738 1.79 1.666 1.85h.09c.364 0 .66.31.66.69 0 .38-.296.69-.66.69H1.813c-.306 0-.554.26-.554.58 0 .32.24.58.55.58h5.33c.96-.02 1.73-.85 1.73-1.86 0-.99-.74-1.8-1.67-1.85l-.09-.01c-.37 0-.66-.31-.66-.69 0-.38.29-.69.65-.69h11.91l-1.22.47c-.37.14-.65.48-.71.89l-.01.02h-3.55c-1.2 0-2.17 1.02-2.17 2.27 0 1.21.91 2.21 2.05 2.27l.1.01c.6 0 1.38.54 1.38 1.11 0 .15-.03.29-.08.43H4.46c-.612 0-1.11.52-1.11 1.16 0 .64.497 1.16 1.11 1.16h11.48c.294 0 .576-.12.784-.34l1.774-1.86c.208-.22.325-.52.325-.82v-2.34l.35-2.03 3.94-1.51c.44-.17.73-.61.73-1.09v-6.63c.13-.19.397-.53.666-.83l1.59-.82c.38-.2.62-.6.62-1.04v-2.59l1.64-2.16c.08-.11.15-.24.19-.38l.64-2.178h1.66c.61 0 1.1-.52 1.1-1.16 0-.645-.5-1.165-1.11-1.165zm-14.232 23.26l-.017.21v1.96l-.59.62c-.04-.56-.34-1.11-.84-1.52-.45-.37-1-.59-1.53-.62l-.1-.01c-.58 0-1.06-.5-1.06-1.11s.48-1.11 1.06-1.11h3.36l-.27 1.6zm-5-10.93l1.935.55c.116.04.24.03.35-.02l2.808-1.16.05-.02 3.09-1.62.99.8.88.68c-.1.27-.1.43-.1.55v1.5l-2.08.33c-.19.03-.36.17-.43.36l-.52 1.35-2.99-.07-1.46-1.2c-.2-.17-.49-.16-.69.01l-1.48 1.27v-.82c0-.28-.18-.52-.45-.57l-1.26-.25-.14-.74 1.53-.91zm-1.48 5.63l-1.29-2.32-.353-1.03c-.063-.18-.213-.32-.396-.37l-1.09-.26c-.34-.68-.67-1.45-.71-1.67v-2.22c0-.17-.07-.33-.19-.44l-1.66-1.53v-.24h2.09v.66c0 .18.07.34.21.45l.53.45v.73c0 .09.02.18.06.26l.44.93c.06.14.18.24.32.29l.57.2.24 1.22.29 1.54c.04.23.22.42.44.46l1.17.24v1.23c0 .14.05.28.13.38l.89 1.08h-1.72zm3.2 0l-.99-1.18 1.432-1.23 1.264 1.04c.094.08.21.12.33.13l3.56.08h.013c.225 0 .43-.14.514-.36l.55-1.41 1.61-.25v3.21h-8.28zm1.677-17.16c-.306 0-.554.26-.554.58 0 .33.25.59.56.59h4.9c.31 0 .56-.26.56-.58 0-.32-.25-.58-.55-.58h-4.9m1.94-.4h8.27c.31 0 .56-.26.56-.58 0-.32-.24-.58-.55-.58h-8.27c-.3 0-.55.26-.55.58 0 .32.25.58.56.58" fill="#206FAC"/><path d="M3.338 84.478h2.85l3.207 3.514c.107.117.252.18.4.18l.207-.043c.21-.09.348-.31.348-.54v-1.37c0-.11-.03-.22-.085-.31l-.86-1.44h3.192c.17 0 .33-.08.435-.22l2.124-2.82c.132-.18.157-.42.064-.62s-.286-.33-.5-.33h-1.426c-.154 0-.3.06-.405.18l-.69.77H3.34c-1.077 0-1.86.63-1.86 1.51 0 .87.78 1.51 1.854 1.51zm.007-1.865h9.1c.155 0 .3-.067.406-.184l.69-.77h.04l-1.24 1.65H3.35c-.448 0-.75-.19-.75-.35 0-.17.303-.35.753-.35zm4.378 1.865h.374l.71 1.19-1.085-1.19zM30.85 82.67h-2.475c-.486 0-.915.332-1.06.818l-.824 2.783-1.75 2.3c-.15.21-.24.46-.24.73v2.27l-1.15.59c-.11.06-.21.14-.3.24-.29.32-.52.59-.71.83l-.82-.63-1.25-1c-.17-.13-.39-.15-.58-.05l-3.38 1.77-2.61 1.08-1.97-.56c-.14-.04-.29-.02-.42.06l-1.42.84-.15-.77c-.04-.2-.18-.36-.37-.43l-.67-.24-.28-.59v-.87c0-.174-.08-.34-.21-.45l-.53-.45v-.96c0-.32-.25-.58-.553-.58H4.46v-1.51c0-.32-.24-.573-.54-.58-.125-.01-3.02-.08-3.34-.08-.307 0-.555.26-.555.58 0 .32.248.58.554.58.21 0 1.69.04 2.77.06v2.61c0 .17.07.33.19.44L5.2 93v1.984c0 .352.32 1.168.95 2.425.07.15.204.25.36.29l1.037.25.27.78.04.1.994 1.78H7.12c-.976 0-1.768.83-1.768 1.85 0 .98.738 1.79 1.666 1.85h.09c.364 0 .66.31.66.69 0 .38-.296.69-.66.69H1.813c-.306 0-.554.26-.554.58 0 .32.24.58.55.58h5.33c.96-.02 1.73-.85 1.73-1.85 0-.99-.74-1.8-1.67-1.85l-.09-.01c-.37 0-.66-.31-.66-.69 0-.38.29-.69.65-.69h11.91l-1.22.47c-.37.14-.65.48-.71.89l-.01.02h-3.55c-1.2 0-2.17 1.02-2.17 2.27 0 1.21.91 2.21 2.05 2.27l.1.01c.6 0 1.38.54 1.38 1.11 0 .15-.03.295-.08.43H4.46c-.612 0-1.11.52-1.11 1.16 0 .64.497 1.16 1.11 1.16h11.48c.294 0 .576-.124.784-.34l1.774-1.86c.208-.22.325-.515.325-.824v-2.34l.35-2.03 3.94-1.51c.44-.17.73-.61.73-1.09v-6.62c.13-.19.397-.53.666-.83l1.59-.82c.38-.194.62-.6.62-1.043V89.7l1.64-2.152c.08-.113.15-.243.19-.38l.64-2.176h1.66c.61 0 1.1-.52 1.1-1.162 0-.642-.5-1.162-1.11-1.162zm-14.232 23.257l-.017.203v1.96l-.59.62c-.04-.565-.34-1.116-.84-1.528-.45-.37-1-.59-1.53-.618l-.1-.01c-.58 0-1.06-.5-1.06-1.113s.48-1.11 1.06-1.11h3.36l-.27 1.6zm-5-10.938l1.935.55c.116.03.24.02.35-.02l2.808-1.17.05-.02 3.09-1.62.99.79.88.68c-.1.26-.1.43-.1.55v1.49l-2.08.32c-.19.03-.36.16-.43.35l-.52 1.35-2.99-.07-1.46-1.2c-.2-.17-.49-.17-.69.01l-1.48 1.27v-.83c0-.28-.18-.52-.45-.57l-1.26-.25-.14-.74 1.53-.91zm-1.48 5.63l-1.29-2.33-.353-1.04c-.063-.19-.213-.33-.396-.37l-1.09-.27c-.34-.69-.67-1.45-.71-1.67v-2.22c0-.17-.07-.33-.19-.44l-1.66-1.53v-.24h2.09v.65c0 .18.07.35.21.46l.53.44v.73c0 .09.02.18.06.26l.44.93c.06.13.18.24.32.29l.57.2.24 1.22.29 1.53c.04.23.22.41.44.45l1.17.23v1.22c0 .14.05.274.13.38l.89 1.08h-1.72zm3.2 0l-.99-1.19 1.432-1.23 1.264 1.03c.094.07.21.12.33.12l3.56.07h.013c.225 0 .43-.15.514-.37l.55-1.42 1.61-.25v3.21h-8.28zm1.677-17.17c-.306 0-.554.26-.554.58 0 .32.25.58.56.58h4.9c.31 0 .56-.26.56-.58 0-.33-.25-.59-.55-.59h-4.9m1.94-.41h8.27c.31 0 .56-.26.56-.58 0-.32-.24-.58-.55-.58h-8.27c-.3 0-.55.26-.55.58 0 .32.25.58.56.58" fill="#fff"/><path d="M3.338 44.478h2.85l3.207 3.514c.107.117.252.18.4.18l.207-.043c.21-.09.348-.31.348-.54v-1.37c0-.11-.03-.22-.085-.31l-.86-1.44h3.192c.17 0 .33-.08.435-.22l2.124-2.82c.132-.18.157-.42.064-.62s-.286-.33-.5-.33h-1.426c-.154 0-.3.06-.405.18l-.69.77H3.34c-1.077 0-1.86.63-1.86 1.51 0 .87.78 1.51 1.854 1.51zm.007-1.865h9.1c.155 0 .3-.067.406-.184l.69-.77h.04l-1.24 1.65H3.35c-.448 0-.75-.19-.75-.35 0-.17.303-.35.753-.35zm4.378 1.865h.374l.71 1.19-1.085-1.19zM30.85 42.67h-2.475c-.486 0-.915.332-1.06.818l-.824 2.783-1.75 2.3c-.15.21-.24.46-.24.73v2.27l-1.15.59c-.11.06-.21.14-.3.24-.29.32-.52.59-.71.83l-.82-.63-1.25-1c-.17-.13-.39-.15-.58-.05l-3.38 1.77-2.61 1.08-1.97-.56c-.14-.04-.29-.02-.42.06l-1.42.84-.15-.77c-.04-.2-.18-.36-.37-.43l-.67-.24-.28-.59v-.87c0-.174-.08-.34-.21-.45l-.53-.45v-.96c0-.32-.25-.58-.553-.58H4.46v-1.51c0-.32-.24-.573-.54-.58-.125-.01-3.02-.08-3.34-.08-.307 0-.555.26-.555.58 0 .32.248.58.554.58.21 0 1.69.04 2.77.06v2.61c0 .17.07.33.19.44L5.2 53v1.984c0 .352.32 1.168.95 2.425.07.15.204.25.36.29l1.037.25.27.78.04.1.994 1.78H7.12c-.976 0-1.768.83-1.768 1.85 0 .98.738 1.79 1.666 1.85h.09c.364 0 .66.31.66.69 0 .38-.296.69-.66.69H1.813c-.306 0-.554.26-.554.58 0 .32.24.58.55.58h5.33C8.1 66.83 8.87 66 8.87 65c0-.99-.74-1.8-1.67-1.85l-.09-.01c-.37 0-.66-.31-.66-.69 0-.38.29-.69.65-.69h11.91l-1.22.47c-.37.142-.65.48-.71.89l-.01.025h-3.55c-1.2 0-2.17 1.02-2.17 2.276 0 1.22.91 2.21 2.05 2.28l.1.01c.6 0 1.38.54 1.38 1.12 0 .15-.03.3-.08.43H4.46c-.612 0-1.11.52-1.11 1.16 0 .64.497 1.16 1.11 1.16h11.48c.294 0 .576-.12.784-.34l1.774-1.86c.208-.22.325-.51.325-.82v-2.34l.35-2.03 3.94-1.51c.44-.17.73-.61.73-1.09v-6.62c.13-.19.397-.53.666-.83l1.59-.82c.38-.19.62-.6.62-1.04V49.7l1.64-2.152c.08-.113.15-.243.19-.38l.64-2.176h1.66c.61 0 1.1-.52 1.1-1.162 0-.642-.5-1.162-1.11-1.162zM16.618 65.928l-.017.203v1.96l-.59.62c-.04-.56-.34-1.11-.84-1.52-.45-.37-1-.59-1.53-.62l-.1-.01c-.58 0-1.06-.5-1.06-1.11s.48-1.11 1.06-1.11h3.36l-.27 1.6zm-5-10.938l1.935.552c.116.033.24.026.35-.02l2.808-1.166.05-.02 3.09-1.62.99.794.88.68c-.1.265-.1.43-.1.55v1.493l-2.08.324c-.19.03-.36.166-.43.356l-.52 1.35-2.99-.066-1.46-1.2c-.2-.166-.49-.162-.69.01l-1.48 1.273v-.824c0-.28-.18-.518-.45-.57l-1.26-.253-.14-.738 1.53-.907zm-1.48 5.63l-1.29-2.324-.353-1.034c-.063-.186-.213-.326-.396-.37l-1.09-.265c-.34-.683-.67-1.45-.71-1.67v-2.225c0-.167-.07-.326-.19-.436l-1.66-1.53v-.242h2.09v.658c0 .176.07.343.21.454l.53.445v.73c0 .09.02.18.06.26l.44.93c.06.14.18.24.32.29l.57.21.24 1.22.29 1.54c.04.23.22.41.44.46l1.17.24v1.23c0 .14.05.28.13.38l.89 1.08h-1.72zm3.2 0l-.99-1.187L13.78 58.2l1.264 1.033c.094.077.21.12.33.123l3.56.077h.013c.225 0 .43-.143.514-.363l.55-1.412 1.61-.25v3.212h-8.28zm1.677-17.162c-.306 0-.554.26-.554.58 0 .322.25.582.56.582h4.9c.31 0 .56-.26.56-.58 0-.322-.25-.582-.55-.582h-4.9m1.94-.407h8.27c.31 0 .56-.26.56-.58 0-.32-.24-.58-.55-.58h-8.27c-.3 0-.55.26-.55.58 0 .32.25.58.56.58" fill="#67737B"/><path d="M3.338 4.478h2.85l3.207 3.514c.107.117.252.18.4.18l.207-.043c.21-.09.348-.31.348-.54V6.22c0-.11-.03-.216-.085-.308l-.86-1.44h3.192c.17 0 .33-.08.435-.22l2.124-2.816c.132-.174.157-.41.064-.613-.093-.2-.286-.328-.5-.328h-1.426c-.154 0-.3.065-.405.182l-.69.766H3.34c-1.077 0-1.86.636-1.86 1.512 0 .873.78 1.51 1.854 1.514zm.007-1.865h9.1c.155 0 .3-.067.406-.184l.69-.77h.04l-1.25 1.65H3.35c-.448-.01-.75-.19-.75-.35 0-.17.303-.36.753-.36zm4.378 1.865h.374l.71 1.19-1.085-1.19zM30.85 2.67h-2.475c-.486 0-.915.332-1.06.818L26.49 6.27l-1.752 2.3c-.157.206-.243.46-.243.726v2.267l-1.153.592c-.113.06-.217.138-.306.233-.293.316-.525.588-.71.825l-.824-.634-1.257-1.01c-.168-.14-.395-.16-.585-.06l-3.38 1.77-2.612 1.08-1.976-.57c-.14-.04-.29-.02-.42.05l-1.42.84-.155-.77c-.04-.21-.18-.37-.365-.44l-.658-.24-.283-.6v-.87c0-.18-.07-.34-.21-.45l-.53-.45V9.9c0-.32-.24-.58-.55-.58H4.46v-1.5c0-.317-.24-.574-.54-.582-.125 0-3.02-.075-3.34-.075-.307 0-.555.26-.555.58 0 .32.248.58.554.58.21 0 1.69.035 2.77.063V11c0 .167.07.326.19.436L5.2 13v1.984c0 .35.32 1.168.95 2.425.07.15.202.25.36.29l1.035.25.27.78.04.09.994 1.78H7.12c-.976 0-1.768.83-1.768 1.85 0 .98.738 1.79 1.666 1.85l.09.01c.364 0 .66.31.66.69 0 .38-.296.69-.66.69H1.813c-.306 0-.554.26-.554.58 0 .32.24.58.55.58h5.33c.96-.02 1.73-.85 1.73-1.86 0-.99-.74-1.8-1.67-1.85l-.09-.01c-.37 0-.66-.31-.66-.69 0-.38.29-.69.65-.69h11.91l-1.22.47c-.37.14-.65.48-.71.89l-.01.02h-3.55c-1.2 0-2.17 1.02-2.17 2.27 0 1.21.91 2.21 2.05 2.27l.1.01c.6 0 1.38.54 1.38 1.11 0 .15-.03.3-.08.43H4.46c-.612 0-1.11.52-1.11 1.16 0 .64.497 1.16 1.11 1.16h11.48c.294 0 .576-.13.784-.34l1.774-1.86c.208-.22.325-.52.325-.83V26.2l.35-2.03 3.94-1.51c.44-.167.73-.603.73-1.09v-6.61c.13-.19.397-.525.666-.826l1.59-.82c.38-.195.62-.6.62-1.044V9.7l1.64-2.152c.08-.113.15-.243.19-.38l.64-2.176h1.66c.61 0 1.1-.52 1.1-1.162 0-.642-.5-1.162-1.11-1.162zM16.618 25.928l-.017.203v1.96l-.59.62c-.04-.56-.34-1.11-.84-1.52-.45-.37-1-.59-1.53-.62l-.1-.01c-.58 0-1.06-.5-1.06-1.11s.48-1.11 1.06-1.11h3.36l-.27 1.6zm-5-10.938l1.935.552c.116.033.24.026.35-.02l2.808-1.166.05-.02 3.09-1.62.99.794.88.68c-.1.265-.1.43-.1.55v1.493l-2.08.324c-.19.03-.36.166-.43.356l-.52 1.35-2.99-.066-1.46-1.2c-.2-.166-.49-.162-.69.01l-1.48 1.273v-.824c0-.28-.18-.518-.45-.57l-1.26-.253-.14-.738 1.53-.907zm-1.48 5.63l-1.29-2.324-.353-1.034c-.063-.186-.213-.326-.396-.37l-1.09-.265c-.34-.683-.67-1.45-.71-1.67v-2.225c0-.167-.07-.326-.19-.436l-1.66-1.53v-.242h2.09v.658c0 .176.07.343.21.454l.53.445v.73c0 .09.02.18.06.26l.44.93c.06.14.18.24.32.29l.57.21.24 1.22.29 1.54c.04.23.22.41.44.46l1.17.24v1.23c0 .14.05.28.13.38l.89 1.08h-1.72zm3.2 0l-.99-1.187L13.78 18.2l1.264 1.033c.094.077.21.12.33.123l3.56.077h.013c.225 0 .43-.143.514-.363l.55-1.412 1.61-.25v3.212h-8.28zm1.677-17.162c-.306 0-.554.26-.554.58 0 .322.25.582.56.582h4.9c.31 0 .56-.26.56-.58 0-.322-.25-.582-.55-.582h-4.9m1.94-.407h8.27c.31 0 .56-.26.56-.58 0-.32-.24-.58-.55-.58h-8.27c-.3 0-.55.26-.55.58 0 .32.25.58.56.58" fill="#3A434E"/></g></svg>