<svg width="32" height="232" viewBox="0 0 32 232" xmlns="http://www.w3.org/2000/svg"><g fill="none">
		<path id="XMLID_1175_" fill="#3A444F" d="M22.6,22.3l0.7-1.6c0.1-0.2,0.1-0.3,0-0.5C23.2,20.1,23,20,22.8,20h-0.5v-4.5
			c0.1-0.1,0.2-0.1,0.2-0.2l0.7-1.6c0.1-0.2,0.1-0.3,0-0.5c-0.1-0.1-0.3-0.2-0.4-0.2h-1h-0.7v-2.8c0.1-0.1,0.1-0.2,0.1-0.4
			c0-1.7-0.9-3.6-2.5-5.4c-0.9-1-1.8-1.7-2.3-2V1.7c0,0,0,0,0,0l0-0.1l0.2-0.1C16.9,1.4,17,1.2,17,1c0-0.2-0.1-0.4-0.3-0.4l-0.2-0.1
			l-0.1-0.2C16.4,0.1,16.2,0,16,0h0c-0.2,0-0.4,0.1-0.4,0.3l-0.1,0.2l-0.2,0.1C15.1,0.7,15,0.8,15,1c0,0.2,0.1,0.4,0.3,0.4l0.2,0.1
			l0,0.1c0,0,0,0,0,0v0.8c-0.4,0.3-1.3,1-2.3,2c-1.7,1.8-2.5,3.6-2.5,5.4c0,0.1,0.1,0.3,0.1,0.4v2.8h-0.7h-1c-0.2,0-0.3,0.1-0.4,0.2
			c-0.1,0.1-0.1,0.3,0,0.5l0.7,1.6c0.1,0.1,0.1,0.2,0.2,0.2V20H9.2c-0.2,0-0.3,0.1-0.4,0.2c-0.1,0.1-0.1,0.3,0,0.5l0.7,1.6
			c0.1,0.1,0.1,0.2,0.2,0.2v4.8H9.2c-0.2,0-0.3,0.1-0.4,0.2c-0.1,0.1-0.1,0.3,0,0.5l0.7,1.6C9.5,29.9,9.7,30,9.9,30h0.3h11.6h0.3
			c0.2,0,0.4-0.1,0.5-0.3l0.7-1.6c0.1-0.2,0.1-0.3,0-0.5c-0.1-0.1-0.3-0.2-0.4-0.2h-0.5v-4.8C22.4,22.5,22.5,22.4,22.6,22.3z
			 M17.7,9.3h-3.4c0.1-2.5,1.1-4.6,1.7-5.6C16.6,4.7,17.6,6.9,17.7,9.3z M14.7,10.3h2.5v2.6h-2.5V10.3z M18.3,12.9v-2.6h1.8v2.6
			H18.3z M11.9,10.3h1.8v2.6h-1.8V10.3z M11.4,13.9h2.9h3.6h2.9h0.7h0.5H22l-0.2,0.5l0,0.1h-0.5H10.7h-0.5l0-0.1L10,13.9h0.2h0.5
			H11.4z M10.7,15.6h10.6V20h-3v-1.4c0-1.3-1-2.3-2.3-2.3c-1.3,0-2.3,1-2.3,2.3V20h-3V15.6z M17.3,27.4h-2.5v-2.5h2.5V27.4z
			 M17.3,23.8h-2.5v-5.3c0-0.7,0.6-1.3,1.3-1.3c0.7,0,1.3,0.6,1.3,1.3V23.8z M13.7,21.6h-3h-0.5l0-0.1L10,21h0.2h0.5h3V21.6z
			 M21.3,21.6h-3V21h3h0.5H22l-0.2,0.5l0,0.1H21.3z M10.7,22.6h3v1.7v3h-3V22.6z M10.2,28.4h0.5h3.5h3.6h3.5h0.5H22l-0.2,0.5l0,0.1
			h-0.5H10.7h-0.5l0-0.1L10,28.4H10.2z M21.3,27.4h-3v-3v-1.7h3V27.4z M20.2,9.3h-1.5c-0.1-1.8-0.6-3.3-1.1-4.5
			C18.8,5.9,20,7.5,20.2,9.3z M14.3,4.8c-0.5,1.2-1,2.8-1.1,4.5h-1.5C12,7.5,13.2,5.9,14.3,4.8z"/>
		<path id="XMLID_1318_" fill="#67737C" d="M22.6,62.3l0.7-1.6c0.1-0.2,0.1-0.3,0-0.5C23.2,60.1,23,60,22.8,60h-0.5v-4.5
			c0.1-0.1,0.2-0.1,0.2-0.2l0.7-1.6c0.1-0.2,0.1-0.3,0-0.5c-0.1-0.1-0.3-0.2-0.4-0.2h-1h-0.7v-2.8c0.1-0.1,0.1-0.2,0.1-0.4
			c0-1.7-0.9-3.6-2.5-5.4c-0.9-1-1.8-1.7-2.3-2v-0.8c0,0,0,0,0,0l0-0.1l0.2-0.1c0.2-0.1,0.3-0.3,0.3-0.4c0-0.2-0.1-0.4-0.3-0.4
			l-0.2-0.1l-0.1-0.2C16.4,40.1,16.2,40,16,40h0c-0.2,0-0.4,0.1-0.4,0.3l-0.1,0.2l-0.2,0.1C15.1,40.7,15,40.8,15,41
			c0,0.2,0.1,0.4,0.3,0.4l0.2,0.1l0,0.1c0,0,0,0,0,0v0.8c-0.4,0.3-1.3,1-2.3,2c-1.7,1.8-2.5,3.6-2.5,5.4c0,0.1,0.1,0.3,0.1,0.4v2.8
			h-0.7h-1c-0.2,0-0.3,0.1-0.4,0.2c-0.1,0.1-0.1,0.3,0,0.5l0.7,1.6c0.1,0.1,0.1,0.2,0.2,0.2V60H9.2c-0.2,0-0.3,0.1-0.4,0.2
			c-0.1,0.1-0.1,0.3,0,0.5l0.7,1.6c0.1,0.1,0.1,0.2,0.2,0.2v4.8H9.2c-0.2,0-0.3,0.1-0.4,0.2c-0.1,0.1-0.1,0.3,0,0.5l0.7,1.6
			C9.5,69.9,9.7,70,9.9,70h0.3h11.6h0.3c0.2,0,0.4-0.1,0.5-0.3l0.7-1.6c0.1-0.2,0.1-0.3,0-0.5c-0.1-0.1-0.3-0.2-0.4-0.2h-0.5v-4.8
			C22.4,62.5,22.5,62.4,22.6,62.3z M17.7,49.3h-3.4c0.1-2.5,1.1-4.6,1.7-5.6C16.6,44.7,17.6,46.9,17.7,49.3z M14.7,50.3h2.5v2.6
			h-2.5V50.3z M18.3,52.9v-2.6h1.8v2.6H18.3z M11.9,50.3h1.8v2.6h-1.8V50.3z M11.4,53.9h2.9h3.6h2.9h0.7h0.5H22l-0.2,0.5l0,0.1h-0.5
			H10.7h-0.5l0-0.1L10,53.9h0.2h0.5H11.4z M10.7,55.6h10.6V60h-3v-1.4c0-1.3-1-2.3-2.3-2.3c-1.3,0-2.3,1-2.3,2.3V60h-3V55.6z
			 M17.3,67.4h-2.5v-2.5h2.5V67.4z M17.3,63.8h-2.5v-5.3c0-0.7,0.6-1.3,1.3-1.3c0.7,0,1.3,0.6,1.3,1.3V63.8z M13.7,61.6h-3h-0.5
			l0-0.1L10,61h0.2h0.5h3V61.6z M21.3,61.6h-3V61h3h0.5H22l-0.2,0.5l0,0.1H21.3z M10.7,62.6h3v1.7v3h-3V62.6z M10.2,68.4h0.5h3.5
			h3.6h3.5h0.5H22l-0.2,0.5l0,0.1h-0.5H10.7h-0.5l0-0.1L10,68.4H10.2z M21.3,67.4h-3v-3v-1.7h3V67.4z M20.2,49.3h-1.5
			c-0.1-1.8-0.6-3.3-1.1-4.5C18.8,45.9,20,47.5,20.2,49.3z M14.3,44.8c-0.5,1.2-1,2.8-1.1,4.5h-1.5C12,47.5,13.2,45.9,14.3,44.8z"/>
		<path id="XMLID_1512_" fill="#FFFFFF" d="M22.6,102.3l0.7-1.6c0.1-0.2,0.1-0.3,0-0.5c-0.1-0.1-0.3-0.2-0.4-0.2h-0.5v-4.5
			c0.1-0.1,0.2-0.1,0.2-0.2l0.7-1.6c0.1-0.2,0.1-0.3,0-0.5c-0.1-0.1-0.3-0.2-0.4-0.2h-1h-0.7v-2.8c0.1-0.1,0.1-0.2,0.1-0.4
			c0-1.7-0.9-3.6-2.5-5.4c-0.9-1-1.8-1.7-2.3-2v-0.8c0,0,0,0,0,0l0-0.1l0.2-0.1c0.2-0.1,0.3-0.3,0.3-0.4c0-0.2-0.1-0.4-0.3-0.4
			l-0.2-0.1l-0.1-0.2C16.4,80.1,16.2,80,16,80h0c-0.2,0-0.4,0.1-0.4,0.3l-0.1,0.2l-0.2,0.1C15.1,80.7,15,80.8,15,81
			c0,0.2,0.1,0.4,0.3,0.4l0.2,0.1l0,0.1c0,0,0,0,0,0v0.8c-0.4,0.3-1.3,1-2.3,2c-1.7,1.8-2.5,3.6-2.5,5.4c0,0.1,0.1,0.3,0.1,0.4v2.8
			h-0.7h-1c-0.2,0-0.3,0.1-0.4,0.2c-0.1,0.1-0.1,0.3,0,0.5l0.7,1.6c0.1,0.1,0.1,0.2,0.2,0.2v4.5H9.2c-0.2,0-0.3,0.1-0.4,0.2
			c-0.1,0.1-0.1,0.3,0,0.5l0.7,1.6c0.1,0.1,0.1,0.2,0.2,0.2v4.8H9.2c-0.2,0-0.3,0.1-0.4,0.2c-0.1,0.1-0.1,0.3,0,0.5l0.7,1.6
			c0.1,0.2,0.3,0.3,0.5,0.3h0.3h11.6h0.3c0.2,0,0.4-0.1,0.5-0.3l0.7-1.6c0.1-0.2,0.1-0.3,0-0.5c-0.1-0.1-0.3-0.2-0.4-0.2h-0.5v-4.8
			C22.4,102.5,22.5,102.4,22.6,102.3z M17.7,89.3h-3.4c0.1-2.5,1.1-4.6,1.7-5.6C16.6,84.7,17.6,86.9,17.7,89.3z M14.7,90.3h2.5v2.6
			h-2.5V90.3z M18.3,92.9v-2.6h1.8v2.6H18.3z M11.9,90.3h1.8v2.6h-1.8V90.3z M11.4,93.9h2.9h3.6h2.9h0.7h0.5H22l-0.2,0.5l0,0.1h-0.5
			H10.7h-0.5l0-0.1L10,93.9h0.2h0.5H11.4z M10.7,95.6h10.6v4.4h-3v-1.4c0-1.3-1-2.3-2.3-2.3c-1.3,0-2.3,1-2.3,2.3v1.4h-3V95.6z
			 M17.3,107.4h-2.5v-2.5h2.5V107.4z M17.3,103.8h-2.5v-5.3c0-0.7,0.6-1.3,1.3-1.3c0.7,0,1.3,0.6,1.3,1.3V103.8z M13.7,101.6h-3
			h-0.5l0-0.1L10,101h0.2h0.5h3V101.6z M21.3,101.6h-3V101h3h0.5H22l-0.2,0.5l0,0.1H21.3z M10.7,102.6h3v1.7v3h-3V102.6z
			 M10.2,108.4h0.5h3.5h3.6h3.5h0.5H22l-0.2,0.5l0,0.1h-0.5H10.7h-0.5l0-0.1l-0.2-0.5H10.2z M21.3,107.4h-3v-3v-1.7h3V107.4z
			 M20.2,89.3h-1.5c-0.1-1.8-0.6-3.3-1.1-4.5C18.8,85.9,20,87.5,20.2,89.3z M14.3,84.8c-0.5,1.2-1,2.8-1.1,4.5h-1.5
			C12,87.5,13.2,85.9,14.3,84.8z"/>
		<path id="XMLID_1680_" fill="#1D70AD" d="M22.6,142.3l0.7-1.6c0.1-0.2,0.1-0.3,0-0.5c-0.1-0.1-0.3-0.2-0.4-0.2h-0.5v-4.5
			c0.1-0.1,0.2-0.1,0.2-0.2l0.7-1.6c0.1-0.2,0.1-0.3,0-0.5c-0.1-0.1-0.3-0.2-0.4-0.2h-1h-0.7v-2.8c0.1-0.1,0.1-0.2,0.1-0.4
			c0-1.7-0.9-3.6-2.5-5.4c-0.9-1-1.8-1.7-2.3-2v-0.8c0,0,0,0,0,0l0-0.1l0.2-0.1c0.2-0.1,0.3-0.3,0.3-0.4c0-0.2-0.1-0.4-0.3-0.4
			l-0.2-0.1l-0.1-0.2c-0.1-0.2-0.3-0.3-0.4-0.3h0c-0.2,0-0.4,0.1-0.4,0.3l-0.1,0.2l-0.2,0.1c-0.2,0.1-0.3,0.3-0.3,0.4
			c0,0.2,0.1,0.4,0.3,0.4l0.2,0.1l0,0.1c0,0,0,0,0,0v0.8c-0.4,0.3-1.3,1-2.3,2c-1.7,1.8-2.5,3.6-2.5,5.4c0,0.1,0.1,0.3,0.1,0.4v2.8
			h-0.7h-1c-0.2,0-0.3,0.1-0.4,0.2c-0.1,0.1-0.1,0.3,0,0.5l0.7,1.6c0.1,0.1,0.1,0.2,0.2,0.2v4.5H9.2c-0.2,0-0.3,0.1-0.4,0.2
			c-0.1,0.1-0.1,0.3,0,0.5l0.7,1.6c0.1,0.1,0.1,0.2,0.2,0.2v4.8H9.2c-0.2,0-0.3,0.1-0.4,0.2c-0.1,0.1-0.1,0.3,0,0.5l0.7,1.6
			c0.1,0.2,0.3,0.3,0.5,0.3h0.3h11.6h0.3c0.2,0,0.4-0.1,0.5-0.3l0.7-1.6c0.1-0.2,0.1-0.3,0-0.5c-0.1-0.1-0.3-0.2-0.4-0.2h-0.5v-4.8
			C22.4,142.5,22.5,142.4,22.6,142.3z M17.7,129.3h-3.4c0.1-2.5,1.1-4.6,1.7-5.6C16.6,124.7,17.6,126.9,17.7,129.3z M14.7,130.3h2.5
			v2.6h-2.5V130.3z M18.3,132.9v-2.6h1.8v2.6H18.3z M11.9,130.3h1.8v2.6h-1.8V130.3z M11.4,133.9h2.9h3.6h2.9h0.7h0.5H22l-0.2,0.5
			l0,0.1h-0.5H10.7h-0.5l0-0.1l-0.2-0.5h0.2h0.5H11.4z M10.7,135.6h10.6v4.4h-3v-1.4c0-1.3-1-2.3-2.3-2.3c-1.3,0-2.3,1-2.3,2.3v1.4
			h-3V135.6z M17.3,147.4h-2.5v-2.5h2.5V147.4z M17.3,143.8h-2.5v-5.3c0-0.7,0.6-1.3,1.3-1.3c0.7,0,1.3,0.6,1.3,1.3V143.8z
			 M13.7,141.6h-3h-0.5l0-0.1L10,141h0.2h0.5h3V141.6z M21.3,141.6h-3V141h3h0.5H22l-0.2,0.5l0,0.1H21.3z M10.7,142.6h3v1.7v3h-3
			V142.6z M10.2,148.4h0.5h3.5h3.6h3.5h0.5H22l-0.2,0.5l0,0.1h-0.5H10.7h-0.5l0-0.1l-0.2-0.5H10.2z M21.3,147.4h-3v-3v-1.7h3V147.4z
			 M20.2,129.3h-1.5c-0.1-1.8-0.6-3.3-1.1-4.5C18.8,125.9,20,127.5,20.2,129.3z M14.3,124.8c-0.5,1.2-1,2.8-1.1,4.5h-1.5
			C12,127.5,13.2,125.9,14.3,124.8z"/>
			</g>
</svg>
