<svg width="32" height="232" viewBox="0 0 32 232" xmlns="http://www.w3.org/2000/svg"><g fill="none"><path d="M5.452 123.62h.08l-.023.246c0 .714.54 1.296 1.21 1.296h5.56c.29 0 .58-.115.8-.324.26-.246.41-.6.41-.97 0-.373-.15-.727-.41-.972-.23-.21-.51-.325-.81-.325h-2.3v-.07c0-.32-.13-.63-.36-.84-.2-.18-.45-.28-.7-.28H5.45c-.583 0-1.058.51-1.058 1.13 0 .62.475 1.13 1.06 1.13zm0-1.207H8.93l.047.02.026.06-.027.058-.047.02h-.01c-.27 0-.5.24-.5.53 0 .29.22.53.49.53h3.36l.15.07c.03.03.08.09.08.19s-.05.16-.08.19l-.15.07H6.72c-.127 0-.23-.11-.23-.24s.102-.24.23-.24c.272 0 .492-.23.492-.52h.002c0-.29-.22-.52-.492-.52H5.45l-.074-.07.075-.08zm25.566 26.094h-2.1c.374-.525.587-1.144.587-1.81v-.088c.004-.1-.003-.2-.024-.29-.03-.29-.11-.57-.22-.83l-2.16-7.84c-.02-.54-.18-1.07-.45-1.53l-.04-.07c-.11-.18-.23-.35-.37-.5-.32-.35-.71-.61-1.14-.76.11-.09.22-.18.31-.29.32-.34.54-.73.67-1.15.46-.24.82-.7.92-1.26l.07-.36c.11-.57-.04-1.13-.37-1.54 0-.37-.06-.74-.18-1.08h2.7c.27 0 .49-.24.49-.53 0-.29-.22-.53-.49-.53h-3.34c-.38-.42-.88-.71-1.43-.83-.19-.04-.38-.06-.57-.06-1.14 0-2.15.74-2.59 1.83-.3.15-.55.4-.72.71h-1.42v-1.96c0-.29-.22-.527-.49-.527h-6.6c-.27 0-.49.24-.49.53v.14H9.33c-.27 0-.49.232-.49.522v1.43h-.89v-.74c0-.29-.22-.525-.493-.525h-2.51v-1.8c0-.29-.22-.522-.493-.522H.516c-.272 0-.492.233-.492.523 0 .29.222.52.493.52H3.96v1.804c0 .29.22.523.49.523h2.51v.74c0 .29.222.523.493.523h1.87c.272 0 .493-.23.493-.52v-1.43h2.215c.28 0 .5-.235.5-.52v-.15h5.61v1.97c0 .29.22.53.49.53h1.63c-.06.56.13 1.1.48 1.473-.05.81.22 1.64.8 2.255.27.29.59.51.94.654-.15.115-.3.245-.44.39-.3.32-.53.7-.68 1.12l-1.14 1.98-1.04-.716c.06-.19.09-.39.09-.59l1.53-1.85c.18-.21.17-.53-.02-.72l-.89-.95c-.18-.2-.48-.21-.67-.024l-1.73 1.638c-.46.003-.9.2-1.23.55-.37.395-.55.932-.51 1.48L13.62 140c-.174.21-.166.524.02.722l-.81.86c-.19.204-.19.535 0 .74.096.105.22.156.35.156.124 0 .25-.05.346-.15l.81-.86c.095.096.217.145.34.145.116 0 .234-.044.327-.135l1.387-1.33c.09.203.21.393.36.56l.04.037 2.784 2.67c.225.23.496.407.793.51l.2.088-2.54.46c-1.847.04-3.28 1.28-3.28 2.86 0 .42.1.81.28 1.16h-1.98v-2.27c0-.71-.31-1.34-.78-1.722.053-.19.084-.39.084-.6V142c0-1.075-.76-1.95-1.71-1.95H8.85c-.15-.513-.34-1.035-.527-1.552-.11-.303-.22-.61-.32-.903-.19-.57-.337-1.1-.337-1.47 0-.296.055-.496.166-.593.2-.173.64-.19.955-.147l.14.026c.368.09.73-.05.96-.34h.79c.27 0 .49-.23.49-.52 0-.29-.22-.52-.49-.52h-.61c-.11-.32-.37-.58-.703-.66-.17-.04-1.69-.38-2.756.53-.41.36-.91 1.03-.91 2.24 0 .96.386 2.01.79 3.13l.28.8h-2.23c-.943 0-1.71.88-1.71 1.95v1.91c0 .21.03.42.085.6-.47.38-.78 1.01-.78 1.73v2.27H1.22c-.545 0-.986.47-.986 1.05 0 .58.44 1.05.985 1.05h29.8c.54 0 .98-.47.98-1.05 0-.58-.44-1.05-.98-1.05zm-16.355-8.127l-.028-.03 1.97-2.335c.108-.128.15-.304.114-.47-.07-.286.01-.58.2-.784.17-.18.41-.26.65-.23.14.02.28-.03.39-.13l1.53-1.45.23.25-1.36 1.64c-.1.12-.14.27-.12.42l-.01.27c-.03.16-.1.31-.21.43l-.09.08c-.21.01-.4.06-.58.16l-.08-.01c-.16-.04-.33.01-.44.12l-2.19 2.1zm9.193-11.084l.174.02c.22.047.412.186.536.387l.056.108c.078.18.103.37.068.56v.01l-.014.06-.002.01c-.065.28-.017.57.114.8l.07.11-2.28-.5-.06-.01c.25-.14.437-.4.497-.72l.01-.04.007-.06c.038-.18.125-.34.246-.46.153-.15.36-.25.58-.25zm1.065 4.205c-.06.1-.13.2-.21.29-.33.36-.77.55-1.24.55s-.91-.19-1.24-.55c-.26-.28-.42-.62-.48-.98l3.19.7zm-8.72 13.85c0-.69.87-1.28 1.89-1.28h.09l.52-.09-1.32 2.55-.01.02-.06-.02c-.64-.2-1.1-.65-1.1-1.16zm1.57-7.74c-.05-.06-.08-.14-.08-.22l.05-.17.04-.05c.1-.1.25-.11.36-.05l.07.06.08.07 1.54 1.06v1.3l-2.05-1.97zm3.04 2.69v-1.74l.13-.14 1.73-2.98.05-.11c.08-.24.2-.45.37-.63.29-.3.66-.47 1.06-.47s.78.17 1.07.47c.07.08.14.17.2.26l.01.01c.16.26.24.56.24.87l.02.15 2.218 8.05.035.09c.07.15.11.31.13.47v.03l.005.1c0 .3-.1.58-.28.84h-.46l-.19-.01c-.99-.07-1.78-.39-2.34-.94-.396-.38-.62-.83-.748-1.2l-.1-.36c-.06-.252-.068-.422-.068-.43l-.005-.015v-.017l-.21-2.443 1.45-1.55c.19-.2.19-.537 0-.74-.19-.2-.5-.2-.695 0l-1.02 1.08-.602.642-.724.77c-.19.19-.43.3-.69.3-.15 0-.31-.04-.44-.11l-.09-.04-.05-.014.02-.145zm-2.31 6.22l1.44-2.77 3.02-.54c.03.15.08.33.14.51.17.51.47 1.11 1 1.63.33.32.7.58 1.12.78.35.17.74.29 1.16.37l-.12.04c-.3.08-.61.13-.94.13h-6.86l.06-.12zm-13.7-6.36h5.56v1.6H4.8v-1.6zm-.69 6.34v-.29h2.77c.28 0 .5-.23.5-.52 0-.29-.22-.53-.49-.53H4.1v-.93h6.952v2.29H4.094v-.01zm20.97-21.88c.08.21.27.33.46.33l.19-.03 1.63-.7c.25-.1.38-.41.28-.68-.1-.27-.39-.4-.64-.29l-1.62.7c-.25.11-.37.41-.27.68zm-4.73-2.14c.08.2.26.33.46.33l.19-.04c.26-.11.38-.41.28-.68l-.65-1.73c-.1-.27-.38-.4-.64-.29-.25.11-.37.42-.27.68l.66 1.73zm-3.44 1.59l1.72.78.19.05c.19 0 .38-.12.45-.32.11-.27-.01-.57-.26-.69l-1.72-.78c-.25-.11-.54.01-.64.28-.1.27.01.57.26.69zm6.49-1.27l.19.04c.19 0 .38-.12.46-.32l.74-1.83c.11-.26-.01-.57-.26-.69-.25-.11-.54.01-.64.28l-.73 1.84c-.1.27.01.58.26.69zm1.03.75c.1.11.23.16.36.16.13 0 .25-.05.35-.15l.85-.88c.2-.2.2-.53.01-.74-.19-.21-.5-.21-.69-.01l-.85.88c-.19.21-.2.54-.01.75zm-5.14-.08c.1.11.23.16.35.16.13 0 .25-.05.35-.15.2-.2.2-.53.01-.74l-.82-.91c-.19-.21-.5-.21-.7-.01-.19.2-.2.54-.01.74l.83.91zm2.94-.94h.01c.27 0 .49-.23.49-.51l.02-1.26c0-.29-.21-.53-.48-.53s-.486.23-.49.52l-.02 1.26c-.005.29.21.53.485.53z" fill="#206FAC"/><path d="M5.452 83.62h.08l-.023.246c0 .714.54 1.296 1.21 1.296h5.56c.29 0 .58-.115.8-.324.26-.246.41-.6.41-.97 0-.373-.15-.727-.41-.972-.23-.21-.51-.325-.81-.325h-2.3v-.07c0-.32-.13-.63-.36-.84-.2-.18-.45-.28-.7-.28H5.45c-.583 0-1.058.51-1.058 1.13 0 .62.475 1.13 1.06 1.13zm0-1.207H8.93l.047.02.026.06-.027.058-.047.02h-.01c-.27 0-.5.24-.5.53 0 .29.22.53.49.53h3.36l.15.07c.03.03.08.09.08.19s-.05.16-.08.19l-.15.07H6.72c-.127 0-.23-.11-.23-.24s.102-.24.23-.24c.272 0 .492-.23.492-.52h.002c0-.29-.22-.52-.492-.52H5.45l-.074-.07.075-.08zm25.566 26.094h-2.1c.374-.525.587-1.144.587-1.81v-.088c.004-.1-.003-.2-.024-.29-.03-.29-.11-.57-.22-.83l-2.16-7.84c-.02-.54-.18-1.07-.45-1.53l-.04-.07c-.11-.18-.23-.35-.37-.5-.32-.35-.71-.61-1.14-.76.11-.09.22-.18.31-.29.32-.34.54-.73.67-1.15.46-.24.82-.7.92-1.26l.07-.36c.11-.57-.04-1.13-.38-1.54.01-.37-.06-.74-.18-1.08h2.7c.28 0 .5-.24.5-.53 0-.29-.22-.53-.49-.53h-3.34c-.38-.42-.88-.71-1.43-.83-.19-.04-.38-.06-.57-.06-1.14 0-2.15.74-2.59 1.83-.3.15-.55.4-.72.71h-1.42v-1.96c0-.29-.22-.527-.49-.527h-6.6c-.27 0-.49.24-.49.53v.14H9.33c-.27 0-.49.232-.49.522v1.43h-.89v-.74c0-.29-.22-.525-.49-.525H4.95v-1.8c0-.29-.22-.52-.494-.52H.518c-.272 0-.492.238-.492.528 0 .29.222.52.493.52h3.44v1.804c0 .29.22.52.49.52h2.51v.74c0 .29.22.52.49.52h1.87c.27 0 .49-.237.49-.527v-1.43h2.21c.28 0 .5-.236.5-.525v-.14h5.61v1.96c0 .29.22.522.49.522h1.63c-.06.555.13 1.093.48 1.47-.05.81.22 1.64.8 2.257.27.29.59.51.94.66-.16.115-.31.245-.44.39-.3.32-.53.7-.68 1.12l-1.16 2-1.05-.714c.06-.19.09-.39.09-.59l1.53-1.845c.17-.203.16-.52-.02-.72l-.89-.942c-.18-.198-.48-.208-.67-.024l-1.73 1.63c-.47.007-.91.2-1.24.55-.37.4-.56.936-.52 1.48l-2.13 2.52c-.18.21-.17.528.02.726l-.81.86c-.19.21-.19.54 0 .746.09.102.22.153.35.153.12 0 .25-.05.34-.153l.81-.86c.09.09.21.14.34.14.11 0 .23-.047.32-.138l1.38-1.33c.09.204.21.394.36.56l.04.04 2.79 2.663c.223.23.494.405.79.51l.2.086-2.54.46c-1.847.04-3.28 1.28-3.28 2.86 0 .417.1.81.28 1.16H13v-2.27c0-.71-.31-1.34-.78-1.725.054-.19.085-.39.085-.6V102c0-1.075-.767-1.95-1.71-1.95H8.84c-.15-.513-.34-1.035-.527-1.552-.11-.303-.22-.61-.32-.903-.19-.57-.337-1.1-.337-1.47 0-.293.053-.493.164-.59.2-.173.64-.19.955-.147l.14.026c.366.085.73-.058.96-.34h.79c.27 0 .49-.235.49-.524 0-.29-.22-.525-.49-.525h-.61c-.11-.32-.37-.58-.705-.66-.17-.04-1.69-.38-2.756.528-.41.353-.91 1.03-.91 2.236 0 .95.384 2.01.79 3.13l.28.79h-2.22c-.94 0-1.71.87-1.71 1.95v1.9c0 .21.03.41.087.6-.47.38-.78 1.01-.78 1.72v2.27h-.91c-.54 0-.98.47-.98 1.05 0 .58.44 1.05.99 1.05h29.8c.54 0 .98-.47.98-1.05 0-.58-.44-1.05-.98-1.05zm-16.355-8.127l-.028-.03 1.97-2.335c.108-.128.15-.304.114-.47-.07-.286.01-.58.2-.784.17-.18.41-.26.65-.23.14.02.28-.03.39-.13l1.53-1.45.23.25-1.36 1.64c-.1.12-.14.27-.12.42l-.01.27c-.03.16-.1.31-.21.43l-.09.08c-.21.01-.4.06-.58.16l-.08-.01c-.16-.04-.33.01-.44.12l-2.19 2.1zm9.193-11.084l.174.02c.22.047.412.186.536.387l.056.108c.078.18.103.37.068.56v.01l-.014.06-.002.01c-.065.28-.017.57.114.8l.07.11-2.28-.5-.06-.01c.25-.14.437-.4.497-.72l.01-.04.007-.06c.038-.18.125-.34.246-.46.153-.15.36-.25.58-.25zM24.92 93.5c-.06.1-.134.197-.218.285-.33.354-.772.55-1.242.55s-.91-.196-1.242-.55c-.26-.278-.422-.624-.484-.984l3.186.71zm-8.728 13.845c0-.696.866-1.285 1.89-1.285l.082-.008.52-.093-1.32 2.54-.012.02-.06-.02c-.642-.21-1.1-.66-1.1-1.16zm1.563-7.74c-.052-.06-.08-.14-.08-.22l.047-.174.04-.05c.093-.1.242-.11.355-.05l.072.06.08.07 1.54 1.06v1.3l-2.06-1.97zm3.04 2.687v-1.74l.127-.145 1.722-2.98.048-.11c.074-.24.196-.45.365-.63.283-.302.66-.468 1.062-.468s.77.16 1.06.46c.07.08.14.16.19.26.15.26.24.56.24.86l.02.15 2.21 8.05.03.08c.07.15.11.31.13.47v.12c0 .3-.1.58-.28.84h-.46l-.19-.01c-.99-.08-1.78-.39-2.34-.95-.4-.38-.62-.83-.75-1.21l-.1-.36c-.06-.26-.07-.43-.07-.44l-.01-.02v-.02l-.21-2.44 1.45-1.55c.2-.21.2-.54 0-.74-.19-.21-.5-.21-.69 0l-1.02 1.08-.6.64-.73.773c-.18.2-.43.31-.69.31-.15 0-.31-.04-.44-.116l-.09-.038-.05-.02.02-.146zm-2.308 6.215l1.437-2.773 3.018-.544c.032.15.076.323.138.507.17.504.468 1.105 1 1.63.322.32.697.58 1.12.778.35.164.735.286 1.153.366l-.125.04c-.297.08-.616.13-.945.13h-6.86l.063-.12zm-13.694-6.354h5.558v1.602H4.8v-1.602zm-.697 6.338v-.29h2.767c.272 0 .492-.23.492-.52 0-.29-.22-.52-.492-.52H4.096v-.92h6.952v2.29H4.096v-.01zm20.968-21.88c.077.21.262.33.456.33l.184-.03 1.624-.7c.252-.1.374-.41.273-.68-.1-.26-.38-.4-.64-.29l-1.62.7c-.25.11-.37.42-.27.69zm-4.734-2.15c.073.21.26.33.453.33l.184-.04c.25-.11.373-.42.27-.68l-.654-1.73c-.1-.26-.388-.39-.64-.29-.252.11-.374.42-.273.69l.656 1.73zm-3.448 1.59l1.722.78.192.04c.19 0 .373-.12.452-.32.106-.26-.01-.57-.26-.69l-1.723-.78c-.25-.11-.54.01-.646.28-.11.27.01.58.26.69zm6.493-1.27l.192.05c.19 0 .373-.12.452-.32l.73-1.83c.1-.26-.01-.57-.26-.69-.25-.11-.54.01-.65.28l-.74 1.83c-.11.27.01.58.26.69zm1.025.75c.097.11.225.16.354.16.124 0 .247-.05.343-.15l.85-.88c.195-.2.2-.53.01-.74-.19-.21-.5-.21-.695-.01l-.852.88c-.194.21-.2.54-.01.75zm-5.143-.08c.096.11.224.16.352.16.12 0 .24-.05.34-.14.19-.2.2-.53.01-.74l-.83-.91c-.19-.2-.5-.21-.7-.01-.2.21-.2.54-.01.75l.82.91zm2.933-.93h.008c.268 0 .488-.23.492-.51l.017-1.26c.003-.29-.214-.53-.486-.53-.27 0-.49.23-.49.52L21.72 84c0 .29.22.53.49.53z" fill="#fff"/><path d="M5.452 43.62h.08l-.023.246c0 .714.54 1.296 1.21 1.296h5.56c.29 0 .58-.115.8-.324.26-.246.41-.6.41-.97 0-.373-.15-.727-.41-.972-.23-.21-.51-.325-.81-.325h-2.3v-.07c0-.32-.13-.63-.36-.84-.2-.18-.45-.28-.7-.28H5.45c-.583 0-1.058.51-1.058 1.13 0 .62.475 1.13 1.06 1.13zm0-1.207H8.93l.047.02.026.06-.027.058-.047.02h-.01c-.27 0-.5.24-.5.53 0 .29.22.53.49.53h3.36l.15.07c.03.03.08.09.08.19s-.05.16-.08.19l-.15.07H6.72c-.127 0-.23-.11-.23-.24s.102-.24.23-.24c.272 0 .492-.23.492-.52h.002c0-.29-.22-.52-.492-.52H5.45l-.074-.07.075-.08zm25.566 26.094h-2.1c.374-.525.587-1.144.587-1.81v-.088c.004-.1-.003-.2-.024-.29-.03-.29-.11-.57-.22-.83l-2.16-7.84c-.02-.54-.18-1.07-.45-1.53l-.04-.07c-.11-.18-.23-.35-.37-.5-.32-.35-.71-.61-1.14-.76.11-.09.22-.18.31-.29.32-.34.54-.73.67-1.15.46-.24.82-.7.92-1.26l.07-.36c.11-.57-.04-1.13-.38-1.54.01-.37-.06-.74-.18-1.08h2.7c.28 0 .5-.24.5-.53 0-.29-.22-.53-.49-.53h-3.34c-.38-.42-.88-.71-1.43-.83-.19-.04-.38-.06-.57-.06-1.14 0-2.15.74-2.59 1.83-.3.15-.55.4-.72.71h-1.42v-1.96c0-.29-.22-.527-.49-.527h-6.6c-.27 0-.49.24-.49.53v.14H9.33c-.27 0-.49.232-.49.522v1.43h-.89v-.74c0-.29-.22-.525-.49-.525H4.95v-1.8c0-.29-.22-.52-.494-.52H.518c-.272 0-.492.238-.492.528 0 .29.222.52.493.52h3.44v1.804c0 .29.22.52.49.52h2.51v.74c0 .29.22.52.49.52h1.87c.27 0 .49-.237.49-.527v-1.43h2.21c.28 0 .5-.236.5-.525v-.14h5.61v1.96c0 .29.22.522.49.522h1.63c-.06.555.13 1.093.48 1.47-.05.81.22 1.64.8 2.257.27.29.59.51.94.66-.16.115-.31.245-.44.39-.3.32-.53.7-.68 1.12l-1.16 2-1.05-.714c.06-.19.09-.39.09-.59l1.53-1.845c.17-.203.16-.52-.02-.72l-.89-.942c-.18-.198-.48-.208-.67-.024l-1.73 1.63c-.47.007-.91.2-1.24.55-.37.4-.56.936-.52 1.48L13.56 60c-.18.21-.17.525.02.723l-.81.86c-.19.208-.19.54 0 .745.09.104.22.155.35.155.12 0 .25-.05.34-.153l.81-.864c.095.092.217.14.34.14.116 0 .23-.045.327-.136l1.38-1.33c.09.205.21.395.36.56l.04.04 2.79 2.664c.22.23.492.406.79.51l.2.087-2.54.46c-1.85.04-3.28 1.28-3.28 2.86 0 .42.1.81.28 1.16H13v-2.27c0-.71-.31-1.34-.78-1.72.054-.19.085-.39.085-.6V62c0-1.075-.767-1.95-1.71-1.95H8.84c-.15-.513-.34-1.035-.527-1.552-.11-.303-.22-.61-.32-.903-.19-.57-.337-1.1-.337-1.47 0-.293.053-.493.164-.59.2-.173.64-.19.955-.147l.14.026c.366.085.73-.058.96-.34h.79c.27 0 .49-.235.49-.524 0-.29-.22-.525-.49-.525h-.61c-.11-.32-.37-.58-.705-.66-.17-.04-1.69-.38-2.756.528-.41.353-.91 1.03-.91 2.236 0 .95.384 2.01.79 3.13l.28.79h-2.22c-.94 0-1.71.87-1.71 1.95v1.9c0 .21.03.41.087.6-.47.38-.78 1.01-.78 1.72v2.27h-.91c-.54 0-.98.47-.98 1.05 0 .58.44 1.05.99 1.05h29.8c.54 0 .98-.47.98-1.05 0-.58-.44-1.05-.98-1.05zM14.663 60.38l-.028-.03 1.97-2.335c.108-.128.15-.304.114-.47-.07-.286.01-.58.2-.784.17-.18.41-.26.65-.23.14.02.28-.03.39-.13l1.53-1.45.23.25-1.36 1.64c-.1.12-.14.27-.12.42l-.01.27c-.03.16-.1.31-.21.43l-.09.08c-.21.01-.4.06-.58.16l-.08-.01c-.16-.04-.33.01-.44.12l-2.19 2.1zm9.193-11.084l.174.02c.22.047.412.186.536.387l.056.108c.078.18.103.37.068.56v.01l-.014.06-.002.01c-.065.28-.017.57.114.8l.07.11-2.28-.5-.06-.01c.25-.14.437-.4.497-.72l.01-.04.007-.06c.038-.18.125-.34.246-.46.153-.15.36-.25.58-.25zM24.92 53.5c-.06.1-.134.197-.218.285-.33.354-.772.55-1.242.55s-.91-.196-1.242-.55c-.26-.278-.422-.624-.484-.984l3.186.71zm-8.728 13.845c0-.696.866-1.285 1.89-1.285l.082-.008.52-.093-1.32 2.54-.012.02-.06-.02c-.642-.21-1.1-.66-1.1-1.16zm1.563-7.74c-.052-.06-.08-.14-.08-.22l.047-.174.04-.05c.093-.1.242-.11.355-.05l.072.06.08.07 1.54 1.06v1.3l-2.06-1.97zm3.04 2.687v-1.74l.127-.145 1.722-2.98.048-.11c.074-.24.196-.45.365-.63.283-.302.66-.468 1.062-.468s.77.16 1.06.46c.07.08.14.16.19.26.15.26.24.56.24.86l.02.15L27.84 66l.032.088c.07.15.114.31.13.47l.002.02.005.103c0 .3-.1.58-.28.84h-.46l-.19-.01c-.99-.07-1.78-.39-2.34-.94-.4-.38-.62-.83-.75-1.2l-.1-.36c-.06-.26-.07-.43-.07-.43l-.01-.01v-.01l-.21-2.44 1.45-1.55c.19-.21.19-.54 0-.74-.19-.21-.5-.21-.7 0l-1.02 1.08-.6.64-.73.78c-.18.197-.43.305-.69.305-.15 0-.31-.04-.44-.114l-.09-.035-.05-.02.02-.146zm-2.308 6.215l1.437-2.773 3.018-.544c.032.15.076.323.138.507.17.504.468 1.105 1 1.63.322.32.697.58 1.12.778.35.164.735.286 1.153.366l-.125.04c-.297.08-.616.13-.945.13h-6.86l.063-.12zM4.793 62.153h5.558v1.602H4.8v-1.602zm-.697 6.338v-.29h2.767c.272 0 .492-.23.492-.52 0-.29-.22-.52-.492-.52H4.096v-.92h6.952v2.29H4.096v-.02zm20.968-21.88c.077.21.262.33.456.33l.184-.03 1.624-.7c.252-.1.374-.41.273-.68-.1-.26-.38-.4-.64-.29l-1.62.7c-.25.11-.37.42-.27.69zm-4.734-2.15c.073.21.26.33.453.33l.184-.04c.25-.11.373-.42.27-.68l-.654-1.73c-.1-.26-.388-.39-.64-.29-.252.11-.374.42-.273.69l.656 1.73zm-3.448 1.59l1.722.78.192.04c.19 0 .373-.12.452-.32.106-.26-.01-.57-.26-.69l-1.723-.78c-.25-.11-.54.01-.646.28-.11.27.01.58.26.69zm6.493-1.27l.192.05c.19 0 .373-.12.452-.32l.73-1.83c.1-.26-.01-.57-.26-.69-.25-.11-.54.01-.65.28l-.74 1.83c-.11.27.01.58.26.69zm1.025.75c.097.11.225.16.354.16.124 0 .247-.05.343-.15l.85-.88c.195-.2.2-.53.01-.74-.19-.21-.5-.21-.695-.01l-.852.88c-.194.21-.2.54-.01.75zm-5.143-.08c.096.11.224.16.352.16.12 0 .24-.05.34-.14.19-.2.2-.53.01-.74l-.83-.91c-.19-.2-.5-.21-.7-.01-.2.21-.2.54-.01.75l.82.91zm2.933-.93h.008c.268 0 .488-.23.492-.51l.017-1.26c.003-.29-.214-.53-.486-.53-.27 0-.49.23-.49.52L21.72 44c0 .29.22.53.49.53z" fill="#67737B"/><path d="M5.452 3.62h.08l-.023.246c0 .714.54 1.296 1.21 1.296h5.56c.29 0 .58-.115.8-.324.26-.246.41-.6.41-.97 0-.373-.15-.727-.41-.972-.23-.21-.51-.325-.81-.325h-2.3V2.5c0-.32-.13-.63-.36-.84-.2-.18-.45-.28-.7-.28H5.45c-.583 0-1.058.51-1.058 1.13 0 .62.475 1.13 1.06 1.13zm0-1.207H8.93l.047.02.026.06-.027.058-.047.02h-.01c-.27 0-.5.24-.5.53 0 .29.22.53.49.53h3.36l.15.07c.03.03.08.09.08.19s-.05.16-.08.19l-.15.07H6.72c-.127 0-.23-.11-.23-.24s.102-.24.23-.24c.272 0 .492-.23.492-.52h.002c0-.29-.22-.52-.492-.52H5.45l-.074-.08.075-.08zm25.566 26.094h-2.1c.374-.525.587-1.144.587-1.81v-.088c.004-.1-.003-.2-.024-.29-.03-.29-.11-.57-.22-.83l-2.16-7.84c-.02-.54-.18-1.07-.45-1.53l-.04-.07c-.11-.18-.23-.35-.37-.5-.32-.35-.71-.61-1.14-.76.11-.09.22-.18.31-.29.32-.34.54-.73.67-1.15.46-.24.82-.7.92-1.26l.07-.36c.11-.57-.04-1.13-.38-1.54.01-.37-.06-.74-.18-1.08h2.7c.28 0 .5-.24.5-.53 0-.29-.22-.53-.49-.53h-3.34c-.38-.42-.88-.71-1.43-.83-.19-.04-.38-.06-.57-.06-1.14 0-2.15.74-2.59 1.83-.3.15-.55.4-.72.71h-1.42V7.79c0-.29-.22-.525-.49-.525h-6.6c-.27 0-.49.237-.49.527v.14H9.33c-.27 0-.49.235-.49.525V9.89h-.89v-.74c0-.29-.22-.525-.49-.525H4.95V6.818c0-.29-.22-.525-.494-.525H.518c-.272 0-.492.235-.492.525 0 .29.222.524.493.524h3.44v1.805c0 .29.22.525.49.525h2.51v.738c0 .29.22.525.49.525h1.87c.27 0 .49-.235.49-.525V8.978h2.21c.28 0 .5-.235.5-.524V8.31h5.61v1.962c0 .29.22.525.49.525h1.63c-.06.557.13 1.095.48 1.474-.05.82.22 1.64.8 2.26.27.29.59.51.94.66-.16.12-.31.25-.44.39-.3.32-.53.7-.68 1.12l-1.15 1.98-1.05-.71c.06-.19.09-.39.09-.59l1.53-1.84c.17-.2.16-.52-.02-.72l-.89-.94c-.18-.19-.48-.2-.67-.02l-1.73 1.64c-.47.01-.91.2-1.24.55-.37.4-.56.94-.52 1.48l-2.13 2.52c-.17.21-.16.53.02.73l-.81.86c-.19.21-.19.54 0 .74.1.11.22.16.35.16.13 0 .25-.05.35-.15l.81-.86c.09.1.21.15.34.15.11 0 .23-.043.32-.134l1.388-1.33c.09.2.21.39.36.56l.04.03 2.79 2.67c.224.23.495.41.792.51l.2.09-2.54.456c-1.85.04-3.28 1.28-3.28 2.86 0 .42.1.81.28 1.16H13v-2.27c0-.71-.31-1.34-.786-1.723.055-.19.086-.39.086-.6v-1.9c0-1.074-.77-1.95-1.71-1.95H8.84c-.15-.51-.34-1.034-.526-1.55-.11-.304-.22-.61-.32-.904-.19-.57-.337-1.1-.337-1.47 0-.296.055-.496.166-.59.2-.17.64-.19.955-.147l.14.024c.367.087.73-.056.96-.34h.79c.27 0 .49-.233.49-.522 0-.29-.22-.52-.49-.52h-.61c-.11-.33-.37-.58-.704-.66-.17-.05-1.69-.38-2.756.52-.412.36-.91 1.03-.91 2.24 0 .954.385 2.01.79 3.13l.28.796H4.536c-.942 0-1.71.875-1.71 1.95v1.904c0 .21.03.41.086.6-.47.38-.78 1.01-.78 1.724v2.27H1.22c-.545 0-.986.47-.986 1.05 0 .58.44 1.05.985 1.05h29.8c.54 0 .98-.47.98-1.05 0-.58-.44-1.05-.98-1.05zM14.663 20.38l-.028-.03 1.97-2.335c.108-.128.15-.304.114-.47-.07-.286.01-.58.2-.784.17-.18.41-.26.65-.23.14.02.28-.03.39-.13l1.53-1.45.23.25-1.36 1.64c-.1.12-.14.27-.12.42l-.01.27c-.03.16-.1.31-.21.43l-.09.08c-.21.01-.4.06-.58.16l-.08-.01c-.16-.04-.33.01-.44.12l-2.19 2.1zm9.193-11.084l.174.02c.22.047.412.186.536.387l.056.108c.078.18.103.37.068.56v.01l-.014.06-.002.01c-.065.28-.017.57.114.8l.07.11-2.28-.5-.06-.01c.25-.14.437-.4.497-.72l.01-.04.007-.06c.038-.18.125-.34.246-.46.153-.15.36-.25.58-.25zM24.92 13.5c-.06.1-.134.197-.218.285-.33.354-.772.55-1.242.55s-.91-.196-1.242-.55c-.26-.278-.422-.624-.484-.984l3.186.71zm-8.728 13.845c0-.696.866-1.285 1.89-1.285l.082-.008.52-.093-1.32 2.54-.012.02-.06-.02c-.642-.21-1.1-.66-1.1-1.16zm1.563-7.74c-.052-.06-.08-.14-.08-.22l.047-.174.04-.05c.093-.1.242-.11.355-.05l.072.06.08.07 1.54 1.06v1.3l-2.06-1.97zm3.04 2.687v-1.74l.127-.145 1.722-2.98.048-.11c.074-.24.196-.45.365-.63.283-.302.66-.468 1.062-.468s.77.16 1.06.46c.07.08.14.16.19.26.15.26.24.56.24.86l.02.15L27.84 26l.032.088c.07.15.114.31.13.47l.002.02.005.103c0 .3-.1.58-.28.84h-.46l-.19-.01c-.99-.07-1.78-.39-2.34-.94-.4-.38-.62-.83-.75-1.2l-.1-.36c-.06-.26-.07-.43-.07-.43l-.01-.01v-.01l-.21-2.44 1.45-1.55c.19-.21.19-.54 0-.74-.19-.21-.5-.21-.7 0l-1.02 1.08-.6.64-.73.78c-.18.197-.43.305-.69.305-.15 0-.31-.04-.44-.114l-.09-.035-.05-.02.02-.146zm-2.308 6.215l1.437-2.773 3.018-.544c.032.15.076.323.138.507.17.504.468 1.105 1 1.63.322.32.697.58 1.12.778.35.164.735.286 1.153.366l-.125.04c-.297.08-.616.13-.945.13h-6.86l.063-.12zM4.793 22.153h5.558v1.602H4.8v-1.602zm-.697 6.338v-.29h2.767c.272 0 .492-.23.492-.52 0-.29-.22-.52-.492-.52H4.096v-.92h6.952v2.29H4.096v-.02zM25.064 6.61c.077.204.262.328.456.328l.184-.037 1.624-.7c.252-.1.374-.41.273-.68-.1-.27-.38-.4-.64-.29l-1.62.7c-.25.11-.37.42-.27.68zM20.33 4.46c.076.205.26.33.456.33l.184-.04c.252-.107.374-.414.272-.682l-.655-1.732c-.1-.265-.388-.396-.64-.29-.252.11-.374.417-.273.686l.655 1.73zm-3.445 1.587l1.722.78.192.042c.19 0 .37-.12.45-.32.1-.27-.01-.58-.26-.69l-1.72-.78c-.25-.12-.54.01-.65.27-.11.26.01.57.26.69zm6.493-1.272l.192.043c.19 0 .374-.12.453-.32l.732-1.836c.107-.267-.01-.575-.26-.69-.25-.112-.54.01-.646.278l-.74 1.836c-.11.267.01.575.26.688zm1.025.75c.096.107.224.16.353.16.124 0 .247-.05.343-.15l.85-.88c.19-.202.2-.534.01-.743-.19-.21-.5-.213-.7-.01l-.85.88c-.2.202-.2.534-.01.742zm-5.144-.08c.09.108.22.16.35.16.12 0 .25-.05.34-.147.19-.202.2-.534.01-.742l-.83-.91c-.19-.206-.5-.21-.7-.01-.2.203-.2.535-.01.744l.82.908zm2.93-.936c.26 0 .48-.23.49-.52l.02-1.27c0-.29-.22-.53-.49-.54h-.01c-.27 0-.49.22-.5.51v1.28c-.01.29.21.53.48.53z" fill="#3A434E"/></g></svg>