<svg width="32" height="232" viewBox="0 0 32 232" xmlns="http://www.w3.org/2000/svg"><g fill="none"><path d="M18.307 128.722c-.066.264.086.534.34.603l1.792.486.12.02c.21 0 .4-.14.45-.37.06-.26-.09-.53-.34-.6l-1.79-.48c-.26-.07-.52.09-.58.36zm-2.414-3.828l.116.017c.2 0 .39-.15.44-.38l.45-1.93c.06-.27-.09-.55-.33-.62-.25-.07-.5.09-.56.37l-.45 1.93c-.07.28.08.55.33.63zm-3.458.248c.083.168.232.26.384.26.07 0 .15-.022.22-.07.21-.148.28-.472.16-.723l-.94-1.9c-.13-.25-.4-.34-.61-.19-.21.15-.29.47-.16.72l.94 1.89zm5.467 1.5c.09.15.255.236.423.236.084 0 .17-.02.248-.066l1.76-1.01c.235-.133.313-.426.176-.654-.14-.228-.44-.305-.68-.17l-1.76 1.008c-.24.134-.32.427-.18.655zm2.115.73l-1.296.147c-.27.03-.46.24-.42.47.04.21.25.36.49.36l.07-.01 1.3-.15c.27-.03.46-.24.43-.47-.03-.23-.28-.39-.55-.36zm-5.7-2.924c.027.268.194.462.386.462l.052-.005c.213-.04.363-.306.334-.598l-.14-1.394c-.03-.29-.23-.498-.44-.457-.22.04-.37.307-.34.598l.13 1.394zm2.803.855c.092.067.2.1.308.1.153 0 .303-.066.403-.19l.82-1.006c.17-.21.13-.51-.09-.673-.22-.16-.54-.12-.71.09l-.81 1.007c-.17.21-.13.52.1.68zm13.935 23.642H14.722l-.195-.247-.486-4.534v-.007l-.48-4.09-.04-.147c.1-.18.18-.363.26-.55l.21.092c.51.227 1.28.57 2.16.57 2.64 0 3.46-2.8 3.81-3.994l.03-.09c.46.114 1.01.047 1.32-.01l.1.017c.59.108 1.26.192 1.68-.192.15-.13.32-.37.32-.766 0-.232-.04-.432-.11-.607h3.8l.83 10.236h-5.6c-.26 0-.47.227-.47.506s.21.506.48.506h9.02c.26 0 .47-.227.47-.506 0-.28-.21-.506-.47-.506H29.8l-1.337-10.236h2.863c.262 0 .474-.227.474-.506 0-.28-.212-.506-.474-.506H28.33l-.935-7.157c.334.3.596.67.763 1.1.26.67.258 1.4-.004 2.06-.102.26.01.56.25.67l.186.04c.185 0 .36-.11.437-.31.362-.91.364-1.92.007-2.84-.247-.63-.643-1.18-1.15-1.59 1.1-.3 2.32.14 2.994 1.17.092.14.24.22.39.22.093 0 .187-.03.27-.09.215-.16.267-.47.118-.7-.897-1.37-2.517-1.96-3.982-1.57.184-.29.425-.55.714-.76.59-.43 1.313-.59 2.034-.46.258.05.503-.13.547-.41.04-.27-.13-.53-.39-.58-.97-.17-1.93.04-2.73.62-.28.2-.52.43-.72.69-.12-.32-.27-.62-.47-.91-.57-.82-1.42-1.37-2.38-1.55-.26-.05-.51.14-.55.41-.05.28.13.54.38.59.72.13 1.35.54 1.77 1.16.21.3.35.63.43.98-1.26-.88-2.97-.9-4.25.07-.22.17-.27.48-.11.71.15.23.45.28.66.12.96-.73 2.24-.71 3.19-.04-.6.21-1.15.58-1.58 1.09-.62.74-.94 1.7-.88 2.68.02.27.22.48.47.48h.03c.26-.01.46-.25.44-.53-.04-.716.19-1.405.64-1.94.374-.45.87-.75 1.42-.88l.61 7.52H22.2l-.085.01c-.2-.08-.396-.14-.572-.2-.23-.07-.516-.162-.61-.24l-.18-.152c-.342-.296-.752-.647-1.252-.78v-.26c0-.28-.21-.5-.47-.5s-.47.23-.47.506v.48c-.21.25-.37.654-.55 1.153l-.12-.02h-1.02v-3.59c0-.28-.21-.51-.47-.51H15v-1.89c0-.28-.213-.5-.475-.5H9.927c-.262 0-.474.225-.474.504v.13H8.04c-.262 0-.474.226-.474.505v1.38H7.21v-.71c0-.28-.212-.504-.474-.504h-1.62v-1.74c0-.28-.21-.51-.473-.51H1.898c-.262 0-.474.226-.474.505 0 .28.212.51.474.51h2.27v1.74c0 .28.213.502.475.502h1.62v.71c0 .28.21.503.473.503H8.04c.262 0 .474-.227.474-.506v-1.38h1.413c.262 0 .474-.23.474-.51v-.136h3.65v1.89c0 .28.22.51.48.51h1.4v3.08h-3.7l-.04.006c-.09-.11-.17-.24-.27-.4-.38-.62-.89-1.463-2.78-1.463-1.57 0-2.25 1.02-2.79 1.86H1.5c-.262 0-.474.23-.474.51s.213.5.475.5h4.02c-.14.11-.31.208-.47.31-.64.39-1.44.87-1.54 2.27l-.06.16c0 .01-.18 1.03-.47 2.08-.49 1.77-.85 2.07-.9 2.11-.25.01-.45.23-.45.5 0 .28.21.51.48.51.63 0 1.13-.69 1.61-2.23.03.24.05.487.05.757 0 .566-.21 1.09-.38 1.514-.14.34-.24.61-.24.88 0 .21.03.38.07.56.05.257.1.577.1 1.225 0 .62-.16 1.554-.29 2.31-.12.67-.18 1.05-.18 1.31l.017.282H.96c-.524 0-.95.45-.95 1.01s.426 1.01.95 1.01h30.096c.524 0 .948-.45.948-1.01s-.424-1.01-.948-1.01zm-18.622-7.318l-.083-.345.053-.146.03.492zm4.944-7.375c-.376 1.185-.886 2.458-1.702 2.458-.275 0-.545-.598-.807-1.176-.192-.426-.407-.9-.69-1.283h3.2zm-11.816.95c.3-.176.64-.374.93-.67.19-.19.35-.404.5-.623l.08-.11.08-.12c.51-.75.94-1.4 2.03-1.4 1.37 0 1.66.44 1.99.96.32.5.72 1.13 1.96 1.13.47 0 .77.5 1.17 1.27.38.72.81 1.54 1.66 1.54 1.66 0 2.34-1.96 2.83-3.39.14-.39.32-.91.44-1.09.32.05.64.31.95.57l.2.15c.24.18.57.28.92.39.8.24 1.15.41 1.15.8-.07.03-.27.07-.88-.04-.17-.03-.26-.05-.36-.03-.43.08-.96.08-1.09 0-.13-.13-.31-.18-.48-.13-.32.08-.41.37-.57.9-.33 1.09-.95 3.14-2.88 3.14-.68 0-1.32-.28-1.78-.47l-.32-.14.02-.32c0-.99-.28-1.42-.34-1.49l-.74.59-.01-.02c.005 0 .16.26.16.91 0 .17-.027.35-.074.52l-.07.23c-.25.67-.77 1.35-1.24 1.98-.32.42-.634.83-.86 1.23l.08-1.824c.006-.16-.07-.316-.2-.41-.13-.097-.3-.12-.444-.06-.004 0-.36.136-.973.166-.5.03-1.26-.01-2.21-.31.2-.68.325-1.44.325-2.31 0-.27-.21-.484-.47-.484s-.47.22-.47.483c0 .938-.163 1.73-.413 2.44-.29.815-.686 1.52-1.076 2.21l-.4.726c-.14.27-.28.595-.4.95l-.04-.21-.05-.35c.01-.07.1-.3.17-.464.19-.46.45-1.09.45-1.83 0-.48-.05-.87-.11-1.28-.07-.54-.15-1.15-.15-2.16 0-.99.43-1.24 1.07-1.61zm.93 13.543l-.35-.223-.18-2.803.4-3.72v-.15c.2-.38.38-.78.55-1.21 1.42.48 2.52.43 3.18.32L9.74 149H6.69c-.037-.11-.104-.2-.2-.26zm-2.36.258v-.095c0-.434.33-3.042.83-4.822l-.13 1.374v.098l.19 3.292.03.153h-.91zm6.4.492c.24-1.892.54-5.06.58-6.045.02-.347.28-.824.6-1.33l1.07 2.44.49 4.935h-2.75z" fill="#206FAC"/><path d="M18.307 88.722c-.066.264.086.534.34.603l1.792.486.12.02c.21 0 .4-.14.45-.37.06-.26-.09-.53-.34-.6l-1.79-.48c-.26-.07-.52.09-.58.36zm-2.414-3.828l.116.017c.2 0 .39-.15.44-.38l.45-1.93c.06-.27-.09-.55-.33-.62-.25-.07-.5.09-.56.37l-.45 1.93c-.07.28.08.55.33.63zm-3.458.248c.083.168.232.26.384.26.07 0 .15-.022.22-.07.21-.148.28-.472.16-.723l-.94-1.9c-.13-.25-.4-.34-.61-.19-.21.15-.29.47-.16.72l.94 1.89zm5.467 1.5c.09.15.255.236.423.236.084 0 .17-.02.248-.066l1.76-1.01c.235-.133.313-.426.176-.654-.14-.228-.44-.305-.68-.17l-1.76 1.008c-.24.134-.32.427-.18.655zm2.115.73l-1.296.147c-.27.03-.46.24-.42.47.04.21.25.36.49.36l.07-.01 1.3-.15c.27-.03.46-.24.43-.47-.03-.23-.28-.39-.55-.36zm-5.7-2.924c.027.268.194.462.386.462l.052-.005c.213-.04.363-.306.334-.598l-.14-1.394c-.03-.29-.23-.498-.44-.457-.22.04-.37.307-.34.598l.13 1.394zm2.803.855c.092.067.2.1.308.1.153 0 .303-.066.403-.19l.82-1.006c.17-.21.13-.51-.09-.673-.22-.16-.54-.12-.71.09l-.81 1.007c-.17.21-.13.52.1.68zm13.935 23.642H14.722l-.195-.247-.486-4.534v-.007l-.48-4.09-.04-.147c.1-.18.18-.363.26-.55l.21.092c.51.227 1.28.57 2.16.57 2.64 0 3.46-2.8 3.81-3.994l.03-.09c.46.114 1.01.047 1.32-.01l.1.017c.59.108 1.26.192 1.68-.192.15-.13.32-.37.32-.766 0-.232-.04-.432-.11-.607h3.8l.83 10.236h-5.6c-.26 0-.47.227-.47.506s.21.506.48.506h9.02c.26 0 .47-.227.47-.506 0-.28-.21-.506-.47-.506H29.8L28.463 94.39h2.863c.262 0 .474-.227.474-.506 0-.28-.212-.506-.474-.506H28.33l-.935-7.157c.334.3.596.67.763 1.1.26.67.258 1.4-.004 2.06-.102.26.01.56.25.67l.186.04c.185 0 .36-.11.437-.31.362-.91.364-1.92.007-2.84-.247-.63-.643-1.18-1.15-1.59 1.1-.3 2.32.14 2.994 1.17.092.14.24.22.39.22.093 0 .187-.03.27-.09.215-.16.267-.47.118-.7-.897-1.37-2.517-1.96-3.982-1.57.184-.29.425-.55.714-.76.59-.43 1.313-.59 2.034-.46.258.05.503-.13.547-.41.04-.27-.13-.53-.39-.58-.97-.17-1.93.04-2.73.62-.28.2-.52.43-.72.69-.12-.32-.27-.62-.47-.91-.57-.82-1.42-1.37-2.38-1.55-.26-.05-.51.14-.55.41-.05.28.13.54.38.59.72.13 1.35.54 1.77 1.16.21.3.35.63.43.98-1.26-.88-2.97-.9-4.25.07-.22.17-.27.48-.11.71.15.23.45.28.66.12.96-.73 2.24-.71 3.19-.04-.6.21-1.15.58-1.58 1.09-.62.74-.94 1.7-.88 2.68.02.27.22.48.47.48h.03c.26-.01.46-.25.44-.53-.04-.716.19-1.405.64-1.94.374-.45.87-.75 1.42-.88l.61 7.52H22.2l-.085.01c-.2-.08-.396-.14-.572-.2-.23-.07-.516-.162-.61-.24l-.18-.152c-.343-.3-.753-.65-1.253-.78v-.26c0-.28-.21-.505-.47-.505s-.476.23-.476.51v.48c-.214.25-.377.658-.55 1.157l-.12-.02H16.87v-3.6c0-.28-.212-.51-.474-.51H15V87.4c0-.28-.213-.503-.475-.503H9.927c-.262 0-.474.227-.474.506v.136H8.04c-.262 0-.474.22-.474.5v1.38H7.21v-.71c0-.28-.212-.51-.474-.51h-1.62v-1.74c0-.28-.21-.51-.473-.51H1.898c-.262 0-.474.23-.474.5 0 .28.212.51.474.51h2.27v1.74c0 .28.213.51.475.51h1.62v.71c0 .28.21.5.473.5H8.04c.262 0 .474-.23.474-.51v-1.38h1.413c.262 0 .474-.23.474-.51v-.14h3.65v1.89c0 .28.22.5.48.5h1.4v3.082h-3.7l-.04.006c-.09-.11-.17-.246-.27-.4-.38-.62-.89-1.468-2.78-1.468-1.57 0-2.25 1.02-2.79 1.86H1.5c-.262 0-.474.22-.474.5s.213.502.475.502h4.02c-.14.11-.31.21-.47.31-.64.39-1.44.875-1.54 2.27l-.06.16c0 .01-.18 1.03-.47 2.08-.49 1.77-.85 2.07-.9 2.11-.25.01-.45.235-.45.505 0 .28.21.504.48.504.63 0 1.13-.69 1.61-2.22.03.246.05.49.05.76 0 .563-.21 1.09-.38 1.51-.14.34-.24.61-.24.88 0 .21.03.38.07.56.05.26.1.58.1 1.23 0 .62-.16 1.56-.29 2.31-.12.664-.18 1.05-.18 1.305l.017.284H.96c-.524 0-.95.45-.95 1.01s.426 1.013.95 1.013h30.096c.524 0 .948-.456.948-1.01 0-.56-.424-1.01-.948-1.01zm-18.622-7.318l-.083-.345.053-.146.03.492zm4.944-7.375c-.376 1.185-.886 2.458-1.702 2.458-.275 0-.545-.598-.807-1.176-.192-.426-.407-.9-.69-1.283h3.2zm-11.816.95c.3-.176.64-.374.93-.67.19-.19.35-.404.5-.623l.08-.11.08-.12c.51-.75.94-1.4 2.03-1.4 1.37 0 1.66.44 1.99.96.32.5.72 1.13 1.96 1.13.47 0 .77.5 1.17 1.27.38.72.81 1.54 1.66 1.54 1.66 0 2.34-1.96 2.83-3.39.14-.39.32-.91.44-1.09.32.05.64.31.95.57l.2.15c.24.18.57.28.92.39.8.24 1.15.41 1.15.8-.07.03-.27.07-.88-.04-.17-.03-.26-.05-.36-.03-.43.08-.96.08-1.09 0-.13-.13-.31-.18-.48-.13-.32.08-.41.37-.57.9-.33 1.09-.95 3.14-2.88 3.14-.68 0-1.32-.28-1.78-.47l-.32-.14.02-.32c0-.99-.28-1.42-.34-1.49l-.74.59-.01-.02s.154.26.154.91c0 .17-.024.35-.07.52l-.074.23c-.25.67-.77 1.35-1.24 1.98-.32.42-.636.83-.86 1.23l.08-1.825c.004-.16-.07-.316-.2-.41-.13-.1-.3-.12-.446-.06-.006 0-.36.136-.975.166-.498.03-1.26-.01-2.21-.31.2-.68.32-1.44.32-2.31 0-.27-.21-.483-.47-.483s-.47.22-.47.486c0 .94-.163 1.73-.413 2.44-.287.815-.684 1.52-1.074 2.21l-.4.726c-.145.27-.28.6-.404.95l-.04-.21-.05-.35c.004-.07.1-.3.17-.46.19-.46.45-1.09.45-1.83 0-.48-.05-.87-.1-1.28-.07-.54-.15-1.15-.15-2.16 0-.99.42-1.235 1.064-1.61zm.93 13.543l-.35-.223-.18-2.803.4-3.72v-.15c.2-.38.38-.78.55-1.21 1.42.48 2.52.43 3.18.32L9.74 109H6.69c-.037-.11-.104-.2-.2-.26zm-2.36.258v-.095c0-.434.33-3.042.83-4.822l-.13 1.374v.098l.19 3.292.03.153h-.91zm6.4.492c.24-1.892.54-5.06.58-6.045.02-.347.28-.824.6-1.33l1.07 2.44.49 4.935h-2.75z" fill="#fff"/><path d="M18.307 48.722c-.066.264.086.534.34.603l1.792.486.12.02c.21 0 .4-.14.45-.37.06-.26-.09-.53-.34-.6l-1.79-.48c-.26-.07-.52.09-.58.36zm-2.414-3.828l.116.017c.2 0 .39-.15.44-.38l.45-1.93c.06-.27-.09-.55-.33-.62-.25-.07-.5.09-.56.37l-.45 1.93c-.07.28.08.55.33.63zm-3.458.248c.083.168.232.26.384.26.07 0 .15-.022.22-.07.21-.148.28-.472.16-.723l-.94-1.9c-.13-.25-.4-.34-.61-.19-.21.15-.29.47-.16.72l.94 1.89zm5.467 1.5c.09.15.255.236.423.236.084 0 .17-.02.248-.066l1.76-1.01c.235-.133.313-.426.176-.654-.14-.228-.44-.305-.68-.17l-1.76 1.008c-.24.134-.32.427-.18.655zm2.115.73l-1.296.147c-.27.03-.46.24-.42.47.04.21.25.36.49.36l.07-.01 1.3-.15c.27-.03.46-.24.43-.47-.03-.23-.28-.39-.55-.36zm-5.7-2.924c.027.268.194.462.386.462l.052-.005c.213-.04.363-.306.334-.598l-.14-1.394c-.03-.29-.23-.498-.44-.457-.22.04-.37.307-.34.598l.13 1.394zm2.803.855c.092.067.2.1.308.1.153 0 .303-.066.403-.19l.82-1.006c.17-.21.13-.51-.09-.673-.22-.16-.54-.12-.71.09l-.81 1.007c-.17.21-.13.52.1.68zm13.935 23.642H14.722l-.195-.247-.486-4.534v-.007l-.48-4.09-.04-.147c.1-.18.18-.363.26-.55l.21.092c.51.227 1.28.57 2.16.57 2.64 0 3.46-2.8 3.81-3.994l.03-.09c.46.114 1.01.047 1.32-.01l.1.017c.59.108 1.26.192 1.68-.192.15-.13.32-.37.32-.766 0-.232-.04-.432-.11-.607h3.8l.83 10.236h-5.6c-.26 0-.47.227-.47.506s.21.506.48.506h9.02c.26 0 .47-.227.47-.506 0-.28-.21-.506-.47-.506H29.8L28.463 54.39h2.863c.262 0 .474-.227.474-.506 0-.28-.212-.506-.474-.506H28.33l-.935-7.157c.334.3.596.67.763 1.1.26.67.258 1.4-.004 2.06-.102.26.01.56.25.67l.186.04c.185 0 .36-.11.437-.31.362-.91.364-1.92.007-2.84-.247-.63-.643-1.18-1.15-1.59 1.1-.3 2.32.14 2.994 1.17.092.14.24.22.39.22.093 0 .187-.03.27-.09.215-.16.267-.47.118-.7-.897-1.37-2.517-1.96-3.982-1.57.184-.29.425-.55.714-.76.59-.43 1.313-.59 2.034-.46.258.05.503-.13.547-.41.04-.27-.13-.53-.39-.58-.97-.17-1.93.04-2.73.62-.28.2-.52.43-.72.69-.12-.32-.27-.62-.47-.91-.57-.82-1.42-1.37-2.38-1.55-.26-.05-.51.14-.55.41-.05.28.13.54.38.59.72.13 1.35.54 1.77 1.16.21.3.35.63.43.98-1.26-.88-2.97-.9-4.25.07-.22.17-.27.48-.11.71.15.23.45.28.66.12.96-.73 2.24-.71 3.19-.04-.6.21-1.15.58-1.58 1.09-.62.74-.94 1.7-.88 2.68.02.27.22.48.47.48h.03c.26-.01.46-.25.44-.53-.04-.716.19-1.405.64-1.94.374-.45.87-.75 1.42-.88l.61 7.52H22.2l-.085.01c-.2-.08-.396-.14-.572-.2-.23-.07-.516-.162-.61-.24l-.18-.152c-.343-.3-.753-.65-1.253-.78v-.26c0-.28-.21-.505-.47-.505s-.476.23-.476.51v.48c-.214.25-.377.658-.55 1.157l-.12-.02H16.87v-3.6c0-.28-.212-.51-.474-.51H15V47.4c0-.28-.213-.503-.475-.503H9.927c-.262 0-.474.227-.474.506v.136H8.04c-.262 0-.474.22-.474.5v1.38H7.21v-.71c0-.28-.212-.51-.474-.51h-1.62v-1.74c0-.28-.21-.51-.473-.51H1.898c-.262 0-.474.23-.474.5 0 .28.212.51.474.51h2.27v1.74c0 .28.213.51.475.51h1.62v.71c0 .28.21.5.473.5H8.04c.262 0 .474-.23.474-.51v-1.38h1.413c.262 0 .474-.23.474-.51v-.14h3.65v1.89c0 .28.22.5.48.5h1.4v3.082h-3.7l-.04.006c-.09-.11-.17-.246-.27-.4-.38-.62-.89-1.468-2.78-1.468-1.57 0-2.25 1.02-2.79 1.86H1.5c-.262 0-.474.22-.474.5s.213.502.475.502h4.02c-.14.11-.31.21-.47.31-.64.39-1.44.875-1.54 2.27l-.06.16c0 .01-.18 1.03-.47 2.08-.49 1.77-.85 2.07-.9 2.11-.25.01-.45.235-.45.505 0 .28.21.504.48.504.63 0 1.13-.69 1.61-2.22.03.246.05.49.05.76 0 .563-.21 1.09-.38 1.51-.14.34-.24.61-.24.88 0 .21.03.38.07.56.05.26.1.58.1 1.23 0 .62-.16 1.56-.29 2.31-.12.664-.18 1.05-.18 1.305l.017.284H.96c-.524 0-.95.45-.95 1.01s.426 1.013.95 1.013h30.096c.524 0 .948-.456.948-1.01 0-.56-.424-1.01-.948-1.01zm-18.622-7.318l-.083-.345.053-.146.03.492zm4.944-7.375c-.376 1.185-.886 2.458-1.702 2.458-.275 0-.545-.598-.807-1.176-.192-.426-.407-.9-.69-1.283h3.2zm-11.816.95c.3-.176.64-.374.93-.67.19-.19.35-.404.5-.623l.08-.11.08-.12c.51-.75.94-1.4 2.03-1.4 1.37 0 1.66.44 1.99.96.32.5.72 1.13 1.96 1.13.47 0 .77.5 1.17 1.27.38.72.81 1.54 1.66 1.54 1.66 0 2.34-1.96 2.83-3.39.14-.39.32-.91.44-1.09.32.05.64.31.95.57l.2.15c.24.18.57.28.92.39.8.24 1.15.41 1.15.8-.07.03-.27.07-.88-.04-.17-.03-.26-.05-.36-.03-.43.08-.96.08-1.09 0-.13-.13-.31-.18-.48-.13-.32.08-.41.37-.57.9-.33 1.09-.95 3.14-2.88 3.14-.68 0-1.32-.28-1.78-.47l-.32-.14.02-.32c0-.99-.28-1.42-.34-1.49l-.74.59-.01-.02s.154.26.154.91c0 .17-.024.35-.07.52l-.074.23c-.25.67-.77 1.35-1.24 1.98-.32.42-.636.83-.86 1.23l.08-1.825c.004-.16-.07-.316-.2-.41-.13-.1-.3-.12-.446-.06-.006 0-.36.136-.975.166-.498.03-1.26-.01-2.21-.31.2-.68.32-1.44.32-2.31 0-.27-.21-.483-.47-.483s-.47.22-.47.486c0 .94-.163 1.73-.413 2.44-.287.815-.684 1.52-1.074 2.21l-.4.726c-.145.27-.28.6-.404.95l-.04-.21-.05-.35c.004-.07.1-.3.17-.46.19-.46.45-1.09.45-1.83 0-.48-.05-.87-.1-1.28-.07-.54-.15-1.15-.15-2.16 0-.99.42-1.235 1.064-1.61zm.93 13.543l-.35-.223-.18-2.803.39-3.72v-.15c.2-.38.38-.78.55-1.21 1.42.48 2.52.43 3.18.32L9.74 69H6.69c-.04-.104-.108-.196-.2-.257zm-2.36.258v-.095c0-.434.33-3.042.83-4.822l-.13 1.374v.098l.19 3.292.03.153h-.91zm6.4.492c.24-1.892.54-5.06.58-6.045.02-.347.28-.824.6-1.33l1.07 2.44.49 4.935h-2.75z" fill="#67737B"/><path d="M18.307 8.722c-.066.264.086.534.34.603l1.792.486.12.02c.21 0 .4-.14.45-.37.06-.26-.09-.53-.34-.6l-1.79-.48c-.26-.07-.52.09-.58.36zm-2.414-3.828l.116.017c.2 0 .39-.15.44-.38l.45-1.93c.06-.27-.09-.55-.33-.62-.25-.07-.5.09-.56.37l-.45 1.93c-.07.28.08.55.32.63zm-3.458.248c.083.168.232.26.384.26.07 0 .15-.022.22-.07.21-.148.28-.472.16-.723l-.94-1.9c-.13-.25-.4-.34-.61-.19-.21.15-.29.47-.16.72l.94 1.89zm5.467 1.5c.09.15.255.236.423.236.084 0 .17-.02.248-.066l1.76-1.01c.235-.133.313-.426.176-.654-.14-.228-.44-.305-.68-.17l-1.76 1.008c-.24.134-.32.427-.18.655zm2.115.73l-1.296.147c-.27.03-.46.24-.42.47.04.21.25.36.49.36l.07-.01 1.29-.14c.27-.03.46-.24.43-.47-.03-.23-.28-.39-.55-.36zm-5.7-2.924c.027.268.194.462.386.462l.052-.005c.213-.04.363-.306.334-.598l-.14-1.394c-.03-.29-.23-.498-.44-.457-.22.04-.37.307-.34.598l.13 1.394zm2.803.855c.092.067.2.1.308.1.153 0 .303-.066.403-.19l.82-1.006c.17-.21.13-.51-.09-.673-.22-.16-.54-.12-.71.09l-.82 1.006c-.17.21-.13.515.1.676zm13.935 23.642H14.722l-.195-.247-.486-4.534v-.007l-.48-4.09-.04-.147c.1-.18.18-.363.26-.55l.21.092c.51.227 1.28.57 2.16.57 2.64 0 3.46-2.8 3.81-3.994l.03-.09c.46.114 1.01.047 1.32-.01l.1.017c.59.108 1.26.192 1.68-.192.15-.13.32-.37.32-.766 0-.232-.04-.432-.11-.607h3.8l.83 10.236h-5.6c-.26 0-.47.227-.47.506s.21.506.48.506h9.02c.26 0 .47-.227.47-.506 0-.28-.21-.506-.47-.506H29.8L28.463 14.39h2.863c.262 0 .474-.227.474-.506 0-.28-.212-.506-.474-.506H28.33l-.935-7.157c.334.3.596.67.763 1.1.26.67.258 1.4-.004 2.06-.102.26.01.56.25.67l.186.04c.185 0 .36-.11.437-.31.362-.91.364-1.92.007-2.84-.247-.63-.643-1.18-1.15-1.59 1.1-.3 2.32.14 2.994 1.17.092.14.24.22.39.22.093 0 .187-.03.27-.09.215-.16.267-.47.118-.7-.897-1.37-2.517-1.96-3.982-1.57.184-.29.425-.55.714-.76.59-.43 1.313-.59 2.034-.46.258.05.503-.13.547-.41.04-.27-.13-.53-.39-.58-.97-.17-1.93.04-2.73.62-.28.2-.52.43-.72.69-.12-.32-.27-.62-.47-.91-.57-.82-1.42-1.37-2.38-1.55-.26-.05-.51.14-.55.41-.05.28.13.54.38.59.72.13 1.35.54 1.77 1.16.21.3.35.63.43.98-1.26-.88-2.97-.9-4.25.07-.22.17-.27.48-.11.71.15.23.45.28.66.12.96-.73 2.24-.71 3.19-.04-.6.21-1.15.58-1.58 1.09-.62.74-.94 1.7-.88 2.68.02.27.22.48.47.48h.03c.26-.01.46-.25.44-.53-.04-.716.19-1.405.64-1.94.374-.45.87-.75 1.42-.88l.61 7.52H22.2l-.085.01c-.2-.08-.396-.14-.572-.2-.23-.07-.516-.162-.61-.24l-.18-.152c-.343-.3-.753-.65-1.253-.78v-.26c0-.28-.21-.505-.47-.505s-.476.23-.476.51v.48c-.214.25-.377.658-.55 1.157l-.12-.02H16.87V9.8c0-.28-.212-.505-.474-.505H15v-1.9c0-.28-.213-.506-.475-.506H9.927c-.262 0-.474.22-.474.5v.13H8.04c-.262 0-.474.22-.474.5V9.4H7.21v-.7c0-.28-.212-.505-.474-.505h-1.62V6.46c0-.28-.21-.508-.473-.508H1.898c-.262 0-.474.227-.474.506 0 .28.212.506.474.506h2.27v1.74c0 .28.213.507.475.507h1.62v.71c0 .28.21.5.473.5H8.04c.262 0 .474-.23.474-.51V8.54h1.413c.262 0 .474-.228.474-.507v-.137h3.65v1.89c0 .28.22.506.48.506h1.4v3.085h-3.7l-.04.005c-.09-.11-.17-.242-.27-.4-.38-.618-.89-1.464-2.78-1.464-1.57 0-2.25 1.02-2.79 1.86H1.5c-.262 0-.474.226-.474.505s.213.506.475.506h4.02c-.14.11-.31.2-.47.31-.64.39-1.44.87-1.54 2.27l-.06.16c0 .01-.18 1.03-.47 2.08-.49 1.77-.85 2.07-.9 2.11-.25.01-.45.23-.45.5 0 .28.21.5.48.5.63 0 1.13-.69 1.61-2.23.03.24.05.48.05.75 0 .56-.21 1.09-.38 1.51-.14.34-.24.61-.24.88 0 .21.03.38.07.56.05.26.1.58.1 1.22 0 .62-.16 1.55-.29 2.31-.12.66-.18 1.05-.18 1.3l.017.29H.96c-.524 0-.95.45-.95 1.01s.426 1.01.95 1.01h30.096c.524 0 .948-.46.948-1.02s-.424-1.01-.948-1.01zm-18.622-7.318l-.083-.345.053-.146.03.492zm4.944-7.375c-.376 1.185-.886 2.458-1.702 2.458-.275 0-.545-.598-.807-1.176-.192-.426-.407-.9-.69-1.283h3.2zm-11.816.95c.3-.176.64-.374.93-.67.19-.19.35-.404.5-.623l.08-.11.08-.12c.51-.75.94-1.4 2.03-1.4 1.37 0 1.66.44 1.99.96.32.5.72 1.13 1.96 1.13.47 0 .77.5 1.17 1.27.38.72.81 1.54 1.66 1.54 1.66 0 2.34-1.96 2.83-3.39.14-.39.32-.91.44-1.09.32.05.64.31.95.57l.2.15c.24.18.57.28.92.39.8.24 1.15.41 1.15.8-.07.03-.27.07-.88-.04-.17-.03-.26-.05-.36-.03-.43.08-.96.08-1.09 0-.13-.13-.31-.18-.48-.13-.32.08-.41.37-.57.9-.33 1.09-.95 3.14-2.88 3.14-.68 0-1.32-.28-1.78-.47l-.32-.14.02-.32c0-.99-.28-1.42-.34-1.49l-.74.59-.01-.02s.154.26.154.91c0 .17-.024.35-.07.52l-.074.23c-.25.67-.77 1.35-1.24 1.98-.32.42-.636.83-.86 1.23l.08-1.825c.004-.16-.07-.316-.2-.41-.13-.1-.3-.12-.446-.06-.006 0-.36.136-.975.166-.498.03-1.26-.01-2.21-.31.2-.68.32-1.44.32-2.31 0-.27-.21-.483-.47-.483s-.47.22-.47.486c0 .94-.163 1.73-.413 2.44-.287.815-.684 1.52-1.074 2.21l-.4.726c-.145.27-.28.6-.404.95l-.04-.21-.05-.35c.004-.07.1-.3.17-.46.19-.46.45-1.09.45-1.83 0-.48-.05-.87-.1-1.28-.07-.54-.15-1.15-.15-2.16 0-.99.42-1.235 1.064-1.61zm.93 13.543l-.35-.223-.18-2.803.39-3.72v-.15c.2-.38.38-.78.55-1.21 1.42.48 2.52.43 3.18.32L9.74 29H6.69c-.04-.104-.108-.196-.2-.257zm-2.36.258v-.095c0-.434.33-3.042.83-4.822l-.13 1.374v.098l.19 3.292.03.153h-.91zm6.4.492c.24-1.892.54-5.06.58-6.045.02-.347.28-.824.6-1.33l1.07 2.44.49 4.935h-2.75z" fill="#3A434E"/></g></svg>