<svg width="32" height="232" viewBox="0 0 32 232" xmlns="http://www.w3.org/2000/svg"><g fill="none"><path d="M30.994 149.995h-.475l-1.25-29.475-.01-.03-.01-.04-.01-.02-.01-.04-.01-.036-.01-.02-.02-.032-.02-.033-.01-.02-.03-.03-.03-.03-.01-.01-.03-.03-.03-.03-.01-.01-.03-.02-.04-.02-.01-.01-.04-.01-.04-.02-.01-.01-.04-.01-.04-.01c-.238-.01-5.75-.25-7.85 1.84-.56.56-.848 1.23-.848 2 0 .27.21.49.47.49s.475-.22.475-.49c0-.5.18-.92.55-1.29.72-.72 2.14-1.22 4.106-1.45-.68.59-1.246 1.403-1.68 2.44-.7 1.69-.79 3.36-.794 3.43-.018.27.182.5.443.52h.024c.25 0 .46-.208.475-.47 0-.01.086-1.557.72-3.086.427-1.03.986-1.79 1.67-2.28-1.773 2.37-.84 7.99-.8 8.23.04.24.24.404.47.404l.08-.007c.26-.05.43-.302.38-.57-.26-1.532-.652-5.87.66-7.51.26-.322.58-.52.958-.6l.17 16.426h-1.9l-.01-.01-1.523-1.64-.946-1.59c-.042-.08-.11-.14-.19-.187l-1.28-.656c-.08-.04-.17-.06-.26-.05l-3.45.4-.16.05-2.6 1.36-2.074.75h-.86c.29-.38.76-.9 1.14-1.32 1.37-1.5 3.07-3.36 3.48-5.27.15-.71.37-.95.477-.98l.11.04c.435.454 1.39.354 1.85.27l.18.044c.46.12.934.247 1.25-.013.147-.12.23-.3.23-.5 0-.19 0-.304-.852-1.2-.34-.35-.84-.85-1.15-1.1-.33-.27-.69-.45-1.09-.55l-.11-.67c-.045-.27-.29-.45-.547-.405-.26.04-.43.3-.39.563l.075.455c-.577.12-.987.65-1.24.98l-.15.183c-.07.073-.13.17-.33.514-.38.65-1.164 1.99-2.146 3.14-1.15 1.34-2.213 2.022-3.17 2.022-1.56 0-2 .75-2.38 1.42-.143.24-.277.474-.47.68-.207.21-.79.48-1.354.74-1.25.578-2.76 1.28-3.11 2.506H1.2c-.26 0-.474.22-.474.49s.214.494.475.494h2.1c-.09.383-.21.91-.36 1.444-.49 1.72-.85 2.02-.91 2.05-.25.01-.45.23-.45.49 0 .275.21.496.47.496.62 0 1.12-.675 1.6-2.17.02.236.04.47.04.734 0 .55-.21 1.063-.38 1.474-.13.34-.24.6-.24.86 0 .21.03.37.06.55.05.25.11.567.11 1.2 0 .61-.16 1.52-.29 2.25-.112.65-.18 1.027-.18 1.27l.02.28H.97c-.522 0-.946.44-.946.99s.423.986.946.986h30.025c.522 0 .946-.44.946-.983s-.42-.984-.94-.984zm-16.8-12.49l.155-.027 2.17-.79.05-.024 2.55-1.338 3.23-.37 1.03.533.9 1.51.06.08.93 1h-11.8c-.04-.21-.1-.41-.17-.58h.87zm-7.14-1.025c.7-.325 1.306-.605 1.636-.95.276-.287.454-.594.612-.866.34-.587.545-.94 1.577-.94 2.53 0 4.7-3.214 6.12-5.632l.21-.35.2-.245c.18-.24.49-.638.73-.638.49 0 .9.13 1.25.42.25.2.69.63 1.05 1.01l-.23-.01c-.44.08-.96.08-1.09 0-.28-.29-.68-.39-1.04-.29-.55.16-.93.74-1.14 1.71-.36 1.63-2.02 3.46-3.24 4.8-1.13 1.23-1.67 1.85-1.67 2.41v.03c-.01.12.02.25.1.35 0 0 .45.6.45 1.29 0 .98-.62 2.23-1.17 3.33-.22.44-.43.86-.6 1.24l.07-1.64c0-.17-.07-.33-.2-.42-.13-.1-.3-.12-.45-.06-.01 0-.36.14-.98.17-.5.02-1.27-.02-2.22-.32.2-.69.32-1.47.32-2.35 0-.27-.21-.49-.47-.49s-.48.22-.48.49c0 .96-.17 1.76-.42 2.49-.29.83-.69 1.55-1.08 2.25l-.4.74c-.15.275-.28.606-.41.97l-.04-.216c-.03-.15-.05-.245-.05-.355.004-.074.1-.305.17-.473.19-.47.454-1.11.454-1.865 0-.49-.05-.89-.104-1.31-.07-.55-.15-1.17-.15-2.2 0-.926 1.45-1.6 2.62-2.14zm-.714 13.264l-.353-.217-.18-2.728.396-3.62-.007-.15c.194-.37.383-.76.55-1.18 1.42.46 2.525.42 3.18.31l-.332 7.82H6.54c-.036-.1-.103-.19-.2-.25zm-2.237.25l-.002-.086c0-.4.36-2.8.9-4.44l-.13 1.264v.09l.2 3.032.03.14h-.99zm6.733 0c.236-1.708.538-4.57.582-5.46.017-.34.23-.858.495-1.418l1.18 2.42.488 4.46h-2.74zm3.865 0l-.19-.24-.48-4.417-.01-.046v-.02l-1.06-4.08-.04-.11c.29-.66.53-1.34.61-1.99h15.01l.11 10.92H14.7zM4.58 127.777c.252-.22.61-.225.864-.033l.006.014c.078.174.245.285.428.285h.055c.184 0 .35-.11.43-.285l.005-.014c.254-.192.61-.188.863.033.2.175.5.148.67-.06.17-.21.14-.52-.06-.696-.56-.49-1.34-.52-1.93-.14-.59-.38-1.37-.35-1.93.14-.2.18-.22.49-.06.7.17.21.47.24.67.06zm2.726 2.2c.168.208.466.235.666.06.25-.22.61-.225.863-.033l.004.014c.07.174.24.285.42.285h.05c.18 0 .35-.11.43-.285v-.014c.26-.192.61-.188.86.033.2.175.5.148.67-.06.17-.21.14-.52-.06-.696-.56-.49-1.35-.52-1.94-.14-.59-.38-1.38-.35-1.94.14-.2.18-.23.49-.06.7z" fill="#206FAC"/><path d="M30.994 109.995h-.475L29.27 80.52l-.004-.03-.004-.038-.005-.02-.01-.037-.01-.036-.008-.02-.02-.04-.02-.04-.01-.02-.03-.03-.03-.03-.01-.01-.03-.03-.03-.03-.01-.01-.03-.02-.04-.02-.01-.01-.04-.01-.04-.02h-.01l-.04-.01h-.03c-.24-.01-5.75-.26-7.85 1.84-.56.56-.85 1.23-.85 2 0 .27.21.49.47.49s.47-.22.47-.49c0-.49.18-.91.55-1.28.72-.72 2.14-1.22 4.1-1.45-.68.59-1.25 1.404-1.68 2.44-.7 1.69-.79 3.355-.8 3.425-.017.27.183.5.45.52h.02c.25 0 .46-.21.47-.47 0-.02.09-1.56.72-3.09.43-1.028.99-1.79 1.676-2.28-1.77 2.37-.84 7.99-.795 8.23.04.24.24.404.466.404l.086-.008c.26-.05.43-.304.38-.57-.26-1.53-.656-5.87.66-7.51.26-.32.57-.52.95-.6l.17 16.43h-1.9l-.01-.01-1.53-1.64-.942-1.586c-.046-.08-.11-.14-.19-.18L22.64 94c-.08-.04-.17-.06-.26-.05l-3.455.396-.16.05-2.6 1.36-2.07.75h-.86c.29-.38.76-.896 1.14-1.313 1.37-1.5 3.07-3.36 3.48-5.264.15-.71.37-.96.475-.99l.115.04c.436.45 1.39.35 1.85.27l.183.04c.46.12.935.24 1.254-.02.145-.12.23-.3.23-.5 0-.19 0-.31-.854-1.2-.34-.36-.84-.86-1.15-1.11-.33-.27-.69-.45-1.09-.54l-.11-.68c-.045-.27-.29-.45-.547-.41-.25.04-.43.3-.38.57l.07.45c-.57.12-.98.65-1.24.98l-.15.18c-.07.07-.13.17-.33.52-.38.64-1.16 1.98-2.14 3.13-1.15 1.34-2.22 2.03-3.17 2.03-1.56 0-2 .75-2.38 1.41-.14.24-.27.47-.47.68-.2.21-.79.48-1.35.74-1.24.573-2.76 1.28-3.11 2.5H1.22c-.262 0-.474.22-.474.493s.212.49.473.49h2.1c-.09.38-.21.905-.36 1.44-.49 1.725-.85 2.02-.91 2.055-.25.01-.45.226-.45.49 0 .27.21.494.47.494.62 0 1.12-.67 1.6-2.166.02.235.04.47.04.733 0 .55-.21 1.062-.38 1.473-.14.334-.25.6-.25.86 0 .21.03.37.06.55.05.25.1.56.1 1.194 0 .61-.17 1.52-.3 2.25-.12.65-.18 1.028-.18 1.27l.012.28H.97c-.522 0-.946.44-.946.99 0 .545.423.986.946.986h30.025c.522 0 .946-.44.946-.984s-.42-.986-.94-.986zm-16.8-12.49l.155-.027 2.17-.79.05-.024 2.55-1.338 3.23-.37 1.03.533.9 1.51.06.08.93 1h-11.8c-.05-.21-.11-.41-.17-.58h.87zm-7.14-1.025c.7-.325 1.306-.605 1.636-.95.276-.287.454-.594.612-.866.34-.587.545-.94 1.577-.94 2.53 0 4.7-3.214 6.12-5.632l.21-.35.2-.245c.18-.24.49-.638.73-.638.49 0 .9.13 1.25.42.25.2.69.63 1.05 1.01l-.23-.01c-.44.08-.96.08-1.09 0-.28-.29-.68-.39-1.04-.29-.55.16-.93.74-1.14 1.71-.36 1.63-2.02 3.46-3.24 4.8-1.13 1.23-1.67 1.85-1.67 2.41v.03c-.01.12.02.25.1.35 0 0 .45.6.45 1.29 0 .98-.62 2.23-1.17 3.33-.22.44-.43.86-.6 1.24l.07-1.64c0-.17-.07-.33-.2-.42-.13-.1-.3-.12-.45-.06-.01 0-.36.14-.98.17-.5.02-1.27-.02-2.22-.32.2-.69.32-1.47.32-2.35 0-.27-.21-.49-.47-.49s-.48.22-.48.49c0 .96-.17 1.76-.42 2.49-.29.83-.69 1.55-1.08 2.25l-.4.74c-.15.275-.28.606-.41.97l-.04-.216c-.03-.15-.05-.245-.05-.355.004-.074.1-.305.17-.473.19-.47.454-1.11.454-1.865 0-.49-.05-.89-.104-1.31-.07-.55-.15-1.17-.15-2.2 0-.926 1.45-1.6 2.62-2.14zm-.714 13.264l-.353-.217-.18-2.728.396-3.62-.007-.15c.194-.37.383-.76.55-1.18 1.42.46 2.525.42 3.18.31l-.332 7.82H6.54c-.036-.1-.103-.19-.2-.25zm-2.237.25l-.002-.086c0-.4.36-2.8.9-4.44l-.13 1.264v.09l.2 3.032.03.14h-.99zm6.733 0c.236-1.708.538-4.57.582-5.46.017-.34.23-.858.495-1.418l1.18 2.42.488 4.46h-2.74zm3.865 0l-.19-.24-.48-4.417-.01-.046v-.02l-1.06-4.08-.04-.11c.29-.66.53-1.34.61-1.99h15.01l.11 10.92H14.7zM4.58 87.777c.252-.22.61-.225.864-.033l.006.014c.078.174.245.285.428.285h.055c.184 0 .35-.11.43-.285l.005-.014c.254-.192.61-.188.863.033.2.175.5.148.67-.06.17-.21.14-.52-.06-.696-.56-.49-1.34-.52-1.93-.14-.59-.38-1.37-.35-1.93.14-.2.18-.22.49-.06.7.17.21.47.24.67.06zm2.726 2.2c.168.208.466.235.666.06.25-.22.61-.225.863-.033l.004.014c.07.174.24.285.42.285h.05c.18 0 .35-.11.43-.285v-.014c.26-.192.61-.188.86.033.2.175.5.148.67-.06.17-.21.14-.52-.06-.696-.56-.49-1.35-.52-1.94-.14-.59-.38-1.38-.35-1.94.14-.2.18-.23.49-.06.7z" fill="#fff"/><path d="M30.994 69.995h-.475L29.27 40.52l-.004-.03-.004-.038-.005-.02-.01-.037-.01-.036-.008-.02-.02-.04-.02-.04-.01-.02-.03-.03-.03-.03-.01-.01-.03-.03-.03-.03-.01-.01-.03-.02-.04-.02-.01-.01-.04-.01-.04-.02h-.01l-.04-.01h-.03c-.24-.01-5.75-.26-7.85 1.84-.56.56-.85 1.23-.85 2 0 .27.21.49.47.49s.47-.22.47-.49c0-.49.18-.91.55-1.28.72-.72 2.14-1.22 4.1-1.45-.68.59-1.25 1.404-1.68 2.44-.7 1.69-.79 3.355-.8 3.425-.017.27.183.5.45.52h.02c.25 0 .46-.21.47-.47 0-.02.09-1.56.72-3.09.43-1.028.99-1.79 1.676-2.28-1.77 2.37-.84 7.99-.795 8.23.04.24.24.404.466.404l.086-.008c.26-.05.43-.304.38-.57-.26-1.53-.656-5.87.66-7.51.26-.32.57-.52.95-.6l.17 16.43h-1.9l-.01-.01-1.53-1.64-.942-1.586c-.046-.08-.11-.14-.19-.18L22.64 54c-.08-.04-.17-.06-.26-.05l-3.455.396-.16.05-2.6 1.36-2.07.75h-.86c.29-.38.76-.896 1.14-1.313 1.37-1.5 3.07-3.36 3.48-5.264.15-.71.37-.96.475-.99l.115.04c.436.45 1.39.35 1.85.27l.183.04c.46.12.935.24 1.254-.02.145-.12.23-.3.23-.5 0-.19 0-.31-.854-1.2-.34-.36-.84-.86-1.15-1.11-.33-.27-.69-.45-1.09-.54l-.11-.68c-.045-.27-.29-.45-.547-.41-.25.04-.43.3-.38.57l.07.45c-.57.12-.98.65-1.24.98l-.15.18c-.07.07-.13.17-.33.52-.38.64-1.16 1.98-2.14 3.13-1.15 1.34-2.22 2.03-3.17 2.03-1.56 0-2 .75-2.38 1.41-.14.24-.27.47-.47.68-.2.21-.79.48-1.35.74-1.24.573-2.76 1.28-3.11 2.5H1.22c-.262 0-.474.22-.474.493s.212.49.473.49h2.1c-.09.38-.21.905-.36 1.44-.49 1.725-.85 2.02-.91 2.055-.25.01-.45.226-.45.49 0 .27.21.494.47.494.62 0 1.12-.67 1.6-2.166.02.235.04.47.04.733 0 .55-.21 1.062-.38 1.473-.14.334-.25.6-.25.86 0 .21.03.37.06.55.05.25.1.56.1 1.194 0 .61-.17 1.52-.3 2.25-.12.65-.18 1.028-.18 1.27l.012.28H.97c-.522 0-.946.44-.946.99 0 .545.423.986.946.986h30.025c.522 0 .946-.44.946-.984s-.42-.986-.94-.986zm-16.8-12.49l.155-.027 2.17-.79.05-.024 2.55-1.338 3.23-.37 1.03.533.9 1.51.06.08.93 1h-11.8c-.05-.21-.11-.41-.17-.58h.87zm-7.14-1.025c.7-.325 1.306-.605 1.636-.95.276-.287.454-.594.612-.866.34-.587.545-.94 1.577-.94 2.53 0 4.7-3.214 6.12-5.632l.21-.35.2-.245c.18-.24.49-.638.73-.638.49 0 .9.13 1.25.42.25.2.69.63 1.05 1.01l-.23-.01c-.44.08-.96.08-1.09 0-.28-.29-.68-.39-1.04-.29-.55.16-.93.74-1.14 1.71-.36 1.63-2.02 3.46-3.24 4.8-1.13 1.23-1.67 1.85-1.67 2.41v.03c-.01.12.02.25.1.35 0 0 .45.6.45 1.29 0 .98-.62 2.23-1.17 3.33-.22.44-.43.86-.6 1.24l.07-1.64c0-.17-.07-.33-.2-.42-.13-.1-.3-.12-.45-.06-.01 0-.36.14-.98.17-.5.02-1.27-.02-2.22-.32.2-.69.32-1.47.32-2.35 0-.27-.21-.49-.47-.49s-.48.22-.48.49c0 .96-.17 1.76-.42 2.49-.29.83-.69 1.55-1.08 2.25l-.4.74c-.15.275-.28.606-.41.97l-.04-.216c-.03-.15-.05-.245-.05-.355.004-.074.1-.305.17-.473.19-.47.454-1.11.454-1.865 0-.49-.05-.89-.104-1.31-.07-.55-.15-1.17-.15-2.2 0-.926 1.45-1.6 2.62-2.14zM6.34 69.744l-.353-.217-.18-2.728.396-3.62-.007-.15c.194-.37.383-.76.55-1.18 1.42.46 2.525.42 3.18.31l-.332 7.82H6.54c-.036-.1-.103-.19-.2-.25zm-2.237.25L4.1 69.91c0-.4.358-2.8.9-4.44l-.137 1.264-.002.09.2 3.032.03.14h-.98zm6.733 0c.236-1.708.538-4.57.582-5.46.017-.34.23-.858.495-1.418l1.18 2.42.488 4.46h-2.74zm3.865 0l-.19-.24-.48-4.417-.01-.046v-.02l-1.06-4.08-.04-.11c.29-.66.53-1.34.61-1.99h15.01l.1 10.91H14.7zM4.58 47.777c.252-.22.61-.225.864-.033l.006.014c.078.174.245.285.428.285h.055c.184 0 .35-.11.43-.285l.005-.014c.254-.192.61-.188.863.033.2.175.5.148.67-.06.17-.21.14-.52-.06-.696-.56-.49-1.34-.52-1.93-.14-.59-.38-1.37-.35-1.93.14-.2.18-.22.49-.06.7.17.21.47.24.67.06zm2.726 2.2c.168.208.466.235.666.06.25-.22.61-.225.863-.033l.004.014c.07.174.24.285.42.285h.05c.18 0 .35-.11.43-.285v-.014c.26-.192.61-.188.86.033.2.175.5.148.67-.06.17-.21.14-.52-.06-.696-.56-.49-1.35-.52-1.94-.14-.59-.38-1.38-.35-1.94.14-.2.18-.23.49-.06.7z" fill="#67737B"/><path d="M30.994 29.995h-.475L29.27.52V.49l-.003-.038-.005-.02-.01-.037-.01-.036-.008-.02-.015-.03-.02-.04-.01-.02-.03-.03-.02-.02-.01-.01-.03-.03-.03-.03-.02-.01-.03-.02-.03-.02-.01-.01-.04-.01-.04-.02h-.01l-.04-.01h-.04c-.24-.01-5.75-.26-7.85 1.84-.56.56-.85 1.23-.85 2 0 .27.21.49.47.49s.47-.22.47-.5c0-.5.18-.92.55-1.29.72-.72 2.14-1.22 4.1-1.45-.69.59-1.25 1.4-1.68 2.44-.7 1.69-.8 3.35-.8 3.42-.02.27.18.5.44.52h.02c.25 0 .45-.21.47-.47 0-.02.08-1.56.72-3.09.422-1.03.98-1.79 1.67-2.28-1.778 2.37-.84 7.99-.8 8.23.04.24.24.41.462.41l.082-.01c.26-.05.43-.31.383-.57-.26-1.54-.66-5.88.657-7.51.26-.33.576-.53.955-.6l.17 16.42h-1.9l-.01-.018-1.525-1.636-.95-1.584c-.05-.08-.115-.14-.194-.18L22.64 14c-.08-.04-.17-.06-.26-.05l-3.45.4-.16.05-2.6 1.36-2.07.75h-.862c.29-.38.762-.9 1.142-1.318 1.365-1.496 3.07-3.36 3.48-5.262.15-.71.37-.952.474-.983l.114.04c.434.455 1.386.355 1.85.273l.18.043c.46.12.934.244 1.253-.016.15-.12.23-.3.23-.496 0-.19 0-.3-.85-1.2-.34-.35-.84-.85-1.15-1.1-.33-.27-.69-.44-1.09-.54l-.11-.68c-.04-.27-.29-.45-.54-.4-.26.05-.43.3-.39.57l.07.46c-.57.12-.98.65-1.24.98l-.15.18c-.07.08-.12.17-.33.52-.37.65-1.16 1.99-2.14 3.14-1.15 1.35-2.22 2.03-3.17 2.03-1.56 0-2 .75-2.38 1.42-.14.25-.27.48-.47.68-.2.22-.79.49-1.35.75-1.24.58-2.76 1.28-3.1 2.508H1.22c-.262 0-.474.22-.474.49s.212.49.473.49h2.1c-.09.38-.21.91-.36 1.445-.49 1.725-.85 2.018-.91 2.055-.25.01-.45.223-.45.49 0 .27.21.49.47.49.62 0 1.12-.67 1.6-2.17.02.24.04.47.04.738 0 .55-.21 1.06-.38 1.473-.14.332-.25.6-.25.86 0 .205.03.37.06.545.05.25.1.56.1 1.2 0 .6-.17 1.51-.3 2.25-.12.64-.18 1.02-.18 1.27l.012.28H.97c-.522 0-.946.44-.946.98s.423.985.946.985h30.025c.522 0 .946-.44.946-.986S31.52 30 31 30zm-16.8-12.49l.155-.027 2.17-.79.05-.024 2.55-1.338 3.23-.37 1.03.533.9 1.51.06.08.93 1h-11.8c-.05-.21-.11-.41-.17-.58h.87zm-7.14-1.025c.7-.325 1.306-.605 1.636-.95.276-.287.454-.594.612-.866.34-.587.545-.94 1.577-.94 2.53 0 4.7-3.214 6.12-5.632l.21-.35.2-.245c.18-.24.49-.638.73-.638.49 0 .9.13 1.25.42.25.2.69.63 1.05 1.01l-.23-.01c-.44.08-.96.08-1.09 0-.28-.29-.68-.39-1.04-.29-.55.16-.93.74-1.14 1.71-.36 1.63-2.02 3.46-3.24 4.8-1.13 1.23-1.67 1.85-1.67 2.41v.03c-.01.12.02.25.1.35 0 0 .45.6.45 1.29 0 .98-.62 2.23-1.17 3.33-.22.44-.43.86-.6 1.24l.07-1.64c0-.17-.07-.33-.2-.42-.13-.1-.3-.12-.45-.06-.01 0-.36.14-.98.17-.5.02-1.27-.02-2.22-.32.2-.69.32-1.47.32-2.35 0-.27-.21-.49-.47-.49s-.48.22-.48.49c0 .96-.17 1.76-.42 2.49-.29.83-.69 1.55-1.08 2.25l-.4.74c-.15.275-.28.606-.41.97l-.04-.216c-.03-.15-.05-.245-.05-.355.004-.074.1-.305.17-.473.19-.47.454-1.11.454-1.865 0-.49-.05-.89-.104-1.31-.07-.55-.15-1.17-.15-2.2 0-.926 1.45-1.6 2.62-2.14zM6.34 29.744l-.353-.217-.18-2.728.396-3.62-.007-.15c.194-.37.383-.76.55-1.18 1.42.46 2.525.42 3.18.31l-.332 7.82H6.54c-.036-.1-.103-.19-.2-.25zm-2.237.25L4.1 29.91c0-.4.358-2.8.9-4.44l-.137 1.264-.002.09.2 3.032.03.14h-.98zm6.733 0c.236-1.708.538-4.57.582-5.46.017-.34.23-.858.495-1.418l1.18 2.42.488 4.46h-2.74zm3.865 0l-.19-.24-.48-4.417-.01-.046v-.02l-1.06-4.08-.04-.11c.29-.66.53-1.34.61-1.99h15.01l.1 10.91H14.7zM4.58 7.777c.252-.22.61-.225.864-.033l.006.014c.078.174.245.285.428.285h.055c.184 0 .35-.11.43-.285l.005-.014c.254-.192.61-.188.863.033.2.175.5.148.67-.06.17-.21.14-.52-.06-.696-.56-.49-1.34-.52-1.93-.14-.59-.38-1.37-.35-1.93.14-.2.18-.22.49-.06.7.17.21.47.24.67.06zm2.726 2.2c.168.208.466.235.666.06.25-.22.61-.225.863-.033l.004.014c.07.174.24.285.42.285h.05c.18 0 .35-.11.43-.285v-.014c.26-.192.61-.188.86.033.2.175.5.148.67-.06.17-.21.14-.52-.06-.696-.56-.49-1.35-.52-1.94-.14-.59-.38-1.38-.35-1.94.14-.2.18-.23.49-.06.7z" fill="#3A434E"/></g></svg>