<svg width="32" height="232" viewBox="0 0 32 232" xmlns="http://www.w3.org/2000/svg"><g fill="none"><path d="M23.114 126.03l-.024.247c0 .717.566 1.3 1.26 1.3h4.448c.306 0 .602-.115.832-.325.272-.247.427-.603.427-.975 0-.373-.155-.728-.427-.974-.23-.21-.526-.326-.832-.326h-1.07l.006-.08c0-.324-.136-.634-.372-.848-.2-.19-.458-.29-.725-.29H23.03c-.604 0-1.096.51-1.096 1.13s.492 1.13 1.097 1.13h.09zm-.083-1.21h3.61l.05.02.03.058-.03.06-.05.02c-.28 0-.51.236-.51.527 0 .29.23.527.51.527h2.16c.08 0 .13.034.16.063.03.028.08.088.08.184s-.05.15-.08.18l-.15.06h-4.45c-.13 0-.24-.11-.24-.25s.11-.25.24-.25c.28 0 .51-.24.51-.53 0-.29-.23-.53-.51-.53h-1.32l-.07-.08.08-.08zm8.04 19.526l-2.77-.826-.21-.016-1.34.2-1.34-.61-.2-.044H23.6l-.51-.263 1.383-1.39h3.7c.416 0 .79-.26.946-.657.15-.397.06-.853-.24-1.152l-3.53-3.543c-.19-.19-.45-.298-.72-.298h-2.56l.22-.227h2.43c.56 0 1.02-.472 1.02-1.054 0-.317-.14-.6-.35-.793l-3.49-3.506c-.19-.19-.44-.298-.71-.298h-1.23l.23-.23h1.27c.57 0 1.02-.47 1.02-1.06 0-.32-.13-.6-.35-.8l-3.49-3.51c-.19-.19-.45-.3-.71-.3h-.55l-.71-2.91c.06-.11.1-.23.1-.36 0-.38-.31-.69-.68-.69-.38 0-.68.3-.68.68 0 .13.04.25.1.36l-.7 2.9h-.55c-.27 0-.52.1-.71.29l-3.53 3.54c-.3.3-.39.75-.24 1.15.16.39.53.65.942.65H12l.23.23H11c-.265 0-.52.103-.71.3l-3.534 3.55c-.298.3-.39.75-.235 1.15s.53.66.95.66H9.9l.226.222H7.568c-.267 0-.52.103-.712.294l-3.53 3.547c-.3.3-.39.755-.235 1.15.16.4.53.66.95.66h3.7l.99.99-1.36.717c-.09.05-.17.13-.22.23v.01l-.42.854-1.07-.395-.74-.28-.09-.028-2.78-.45c-.2-.03-.4.063-.51.242l-1.03 1.68c-.15.242-.08.57.16.722.09.053.18.08.27.08.17 0 .34-.088.44-.248l.84-1.384 1.52.25.88.146 2.19.81c.24.084.51-.02.63-.26l.56-1.12 1.49-.78v3.54h-2.3c-.28 0-.51.24-.51.53v1.277H5.53c-.282 0-.51.235-.51.526v.85H3.09c-.563 0-1.02.47-1.02 1.056S2.526 152 3.09 152h26.003c.563 0 1.02-.47 1.02-1.052s-.456-1.052-1.02-1.052h-1.926v-.85c0-.29-.23-.526-.51-.526h-1.122v-1.274c0-.29-.228-.53-.51-.53H22.73v-2.94l.498.256c.07.037.15.057.228.057h1.62l1.376.62c.087.04.184.05.278.04l1.382-.21 2.666.79.142.02c.222 0 .426-.15.49-.38.08-.28-.078-.58-.348-.66zM6.04 149.59h20.11v.32H6.037v-.32zm1.633-1.8h16.845v.746H7.668v-.747zm8.193-23.798l.23-.943.23.94.04.15h-.534l.038-.15zM5.29 139.818l2.48-2.49h16.64l2.48 2.49H5.29zm3.436-5.878l2.48-2.49h9.768l2.48 2.49H8.727zm3.26-5.877l2.48-2.49h3.248l2.48 2.49h-8.207zm2.42 1.053h4.1l-1.277 1.28h-2.28l-1.28-1.28h.73zm-2.107 5.878h8.31l-1.28 1.28h-6.49l-1.28-1.28h.73zm7.73 11.106v-1.334c-.02-.413-.35-.742-.76-.742s-.74.33-.76.742v1.858h-1.68v-1.858c-.02-.413-.35-.742-.76-.742s-.74.33-.76.742v1.858h-1.68v-1.858c-.02-.413-.35-.742-.76-.742s-.74.33-.76.742v1.858h-1.16v-3.42h10.22v3.42h-1.16v-.527zm2.01-5.23l-1.05 1.052-.14.164h-9.54l-.14-.164-1.05-1.052h11.91z" fill="#206FAC"/><path d="M23.114 86.03l-.024.247c0 .717.566 1.3 1.26 1.3h4.448c.306 0 .602-.115.832-.325.272-.247.427-.603.427-.975 0-.373-.155-.728-.427-.974-.23-.21-.526-.326-.832-.326h-1.07l.006-.08c0-.324-.136-.634-.372-.848-.2-.19-.458-.29-.725-.29H23.03c-.604 0-1.096.51-1.096 1.13s.492 1.13 1.097 1.13h.09zm-.083-1.21h3.61l.05.02.03.058-.03.06-.05.02c-.28 0-.51.236-.51.527 0 .29.23.527.51.527h2.16c.08 0 .13.034.16.063.03.028.08.088.08.184s-.05.15-.08.18l-.15.06h-4.45c-.13 0-.24-.11-.24-.25s.11-.25.24-.25c.28 0 .51-.24.51-.53 0-.29-.23-.53-.51-.53h-1.32l-.07-.08.08-.08zm8.04 19.526l-2.77-.826-.21-.016-1.34.2-1.34-.61-.2-.044H23.6l-.51-.263 1.383-1.39h3.7c.416 0 .79-.26.946-.657.15-.397.06-.853-.24-1.152l-3.53-3.543c-.19-.19-.45-.298-.72-.298h-2.56l.22-.227h2.43c.56 0 1.02-.472 1.02-1.054 0-.317-.14-.6-.35-.793l-3.49-3.506c-.19-.19-.45-.298-.71-.298h-1.23l.22-.23h1.27c.57 0 1.02-.47 1.02-1.06 0-.32-.13-.6-.35-.8l-3.5-3.5c-.19-.19-.447-.3-.71-.3h-.55l-.707-2.91c.06-.11.1-.23.1-.36 0-.38-.305-.69-.678-.69-.374 0-.677.3-.677.68 0 .13.04.25.1.36l-.7 2.9h-.55c-.26 0-.52.1-.71.29l-3.53 3.54c-.3.3-.39.75-.23 1.15.15.39.53.65.94.65H12l.228.23H11c-.265 0-.52.1-.71.3L6.76 93.7c-.297.3-.39.75-.234 1.15s.53.654.946.654h2.426l.226.225H7.567c-.267 0-.52.1-.712.3l-3.53 3.54c-.3.3-.39.75-.235 1.15.156.39.53.65.946.65h3.7l.99 1-1.366.71c-.096.05-.174.13-.224.22l-.005.01-.42.86-1.07-.4-.74-.27-.09-.03-2.78-.45c-.2-.03-.4.06-.51.24l-1.02 1.7c-.15.244-.08.57.16.724.09.05.18.08.27.08.17 0 .34-.09.44-.25l.84-1.38 1.52.243.888.14 2.19.81c.24.09.507-.02.625-.255l.56-1.125 1.49-.774v3.55h-2.3c-.28 0-.51.235-.51.525v1.27H5.53c-.28 0-.51.23-.51.52v.85H3.09c-.563 0-1.02.47-1.02 1.05 0 .58.456 1.05 1.02 1.05h26.003c.563 0 1.02-.47 1.02-1.06s-.456-1.06-1.02-1.06h-1.926v-.85c0-.29-.23-.527-.51-.527h-1.122v-1.273c0-.29-.228-.53-.51-.53H22.73v-2.94l.498.26c.07.035.15.055.228.055h1.62l1.376.63c.087.04.184.05.278.04l1.382-.205 2.666.79.142.02c.222 0 .426-.15.49-.38.08-.28-.078-.57-.348-.65zM6.04 109.59h20.11v.32H6.037v-.32zm1.633-1.8h16.845v.746H7.668v-.747zm8.19-23.8l.23-.943.23.942.04.15h-.534l.03-.15zM5.29 99.818l2.48-2.49h16.64l2.48 2.49H5.29zm3.436-5.878l2.48-2.49h9.768l2.48 2.49H8.727zm3.26-5.877l2.48-2.49h3.248l2.48 2.49h-8.207zm2.42 1.053h4.1l-1.277 1.28h-2.28l-1.28-1.28h.73zM12.3 94.994h8.314l-1.276 1.28h-6.495l-1.276-1.28h.732zm7.734 11.105v-1.34c-.02-.42-.35-.74-.754-.74s-.734.33-.753.74v1.86h-1.683v-1.86c-.02-.42-.348-.74-.753-.74s-.73.33-.75.74v1.86h-1.68v-1.86c-.02-.42-.34-.74-.75-.74s-.73.33-.75.74v1.86h-1.17v-3.42H21.2v3.42h-1.164v-.53zm2.01-5.23l-1.048 1.05-.133.16h-9.545l-.133-.17-1.048-1.05h11.908z" fill="#fff"/><path d="M23.114 46.03l-.024.247c0 .717.566 1.3 1.26 1.3h4.448c.306 0 .602-.115.832-.325.272-.247.427-.603.427-.975 0-.373-.155-.728-.427-.974-.23-.21-.526-.326-.832-.326h-1.07l.006-.08c0-.324-.136-.634-.372-.848-.2-.19-.458-.29-.725-.29H23.03c-.604 0-1.096.51-1.096 1.13s.492 1.13 1.097 1.13h.09zm-.083-1.21h3.61l.05.02.03.058-.03.06-.05.02c-.28 0-.51.236-.51.527 0 .29.23.527.51.527h2.16c.08 0 .13.034.16.063.03.028.08.088.08.184s-.05.15-.08.18l-.15.06h-4.45c-.13 0-.24-.11-.24-.25s.11-.25.24-.25c.28 0 .51-.24.51-.53 0-.29-.23-.53-.51-.53h-1.32l-.07-.08.08-.08zm8.04 19.526l-2.77-.826-.21-.016-1.34.2-1.34-.61-.2-.044H23.6l-.51-.263 1.382-1.39h3.7c.416 0 .79-.26.946-.657.15-.397.06-.853-.24-1.152l-3.53-3.543c-.19-.19-.444-.298-.71-.298h-2.56l.224-.227h2.43c.56 0 1.02-.472 1.02-1.054 0-.317-.14-.6-.35-.793l-3.5-3.506c-.19-.19-.446-.298-.71-.298h-1.23l.225-.23h1.275c.57 0 1.02-.47 1.02-1.06 0-.32-.13-.6-.34-.8l-3.5-3.51c-.19-.19-.445-.3-.71-.3h-.55l-.705-2.91c.06-.11.1-.23.1-.36 0-.38-.304-.69-.677-.69-.373 0-.676.3-.676.68 0 .13.038.25.1.36l-.706 2.9h-.55c-.265 0-.52.1-.71.29l-3.53 3.54c-.3.3-.39.75-.236 1.15.154.39.53.65.943.65H12l.228.23H11c-.265 0-.52.103-.71.3L6.76 53.7c-.297.3-.39.752-.234 1.15s.53.656.946.656h2.426l.226.225H7.567c-.267 0-.52.11-.712.3l-3.53 3.55c-.3.3-.39.76-.235 1.15.156.4.53.66.946.66h3.7l.99 1-1.366.72c-.096.05-.174.13-.224.23l-.005.01-.42.86-1.07-.39-.74-.27-.09-.02-2.78-.45c-.2-.03-.4.06-.51.24L.49 64.97c-.15.247-.08.57.16.727.084.055.178.08.27.08.17 0 .337-.086.433-.246l.84-1.38 1.52.25.883.14 2.19.81c.24.09.507-.02.625-.25l.56-1.12 1.49-.77v3.55h-2.3c-.28 0-.51.24-.51.53v1.28H5.53c-.282 0-.51.24-.51.53v.85H3.09c-.563 0-1.02.47-1.02 1.06 0 .58.456 1.05 1.02 1.05h26.003c.563 0 1.02-.47 1.02-1.05s-.456-1.053-1.02-1.053h-1.926v-.85c0-.29-.23-.53-.51-.53h-1.122v-1.28c0-.29-.228-.53-.51-.53H22.73V63.8l.498.256c.07.04.15.06.228.06h1.62l1.376.626c.087.04.184.05.278.04l1.382-.205 2.666.796.142.02c.222 0 .426-.15.49-.38.08-.28-.078-.572-.348-.653zM6.04 69.59h20.11v.32H6.03v-.32zm1.63-1.8h16.845v.746H7.668v-.747zm8.192-23.8l.23-.943.23.942.037.15h-.54l.04-.15zM5.29 59.818l2.48-2.49h16.64l2.48 2.49H5.29zm3.436-5.878l2.48-2.49h9.768l2.48 2.49H8.727zm3.26-5.877l2.48-2.49h3.248l2.48 2.49h-8.207zm2.42 1.053h4.1l-1.277 1.28h-2.28l-1.28-1.28h.73zM12.3 54.994h8.314l-1.276 1.28h-6.495l-1.276-1.28h.732zM20.033 66.1v-1.332c-.02-.413-.35-.742-.754-.742s-.74.33-.76.742v1.858h-1.68v-1.858c-.02-.413-.35-.742-.76-.742s-.74.33-.76.742v1.858h-1.68v-1.858c-.02-.413-.35-.742-.76-.742s-.74.33-.75.742v1.858h-1.16v-3.42h10.22v3.42h-1.16V66.1zm2.01-5.228l-1.048 1.052-.133.164h-9.545l-.133-.164-1.048-1.052h11.908z" fill="#67737B"/><path d="M23.114 6.03l-.024.247c0 .717.566 1.3 1.26 1.3h4.448c.306 0 .602-.115.832-.325.272-.247.427-.603.427-.975 0-.373-.155-.728-.427-.974-.23-.21-.526-.326-.832-.326h-1.07l.006-.08c0-.324-.136-.634-.372-.848-.2-.19-.458-.29-.725-.29H23.03c-.604 0-1.096.51-1.096 1.13s.492 1.13 1.097 1.13h.09zm-.083-1.21h3.61l.05.02.03.058-.03.06-.05.02c-.28 0-.51.236-.51.527 0 .29.23.527.51.527h2.16c.08 0 .13.034.16.063.03.028.08.088.08.184s-.05.15-.08.18l-.15.06h-4.45c-.13 0-.24-.11-.24-.25s.11-.25.24-.25c.28 0 .51-.24.51-.53 0-.29-.23-.53-.51-.53h-1.32l-.07-.08.08-.08zm8.04 19.526l-2.77-.826-.21-.016-1.34.2-1.34-.61-.2-.044H23.6l-.51-.263 1.382-1.39h3.7c.416 0 .79-.26.946-.657.15-.397.06-.853-.24-1.152l-3.53-3.543c-.19-.19-.444-.298-.71-.298h-2.56l.224-.227h2.43c.56 0 1.02-.472 1.02-1.054 0-.317-.14-.6-.35-.793l-3.5-3.506c-.19-.19-.446-.298-.71-.298h-1.23l.225-.23h1.275c.57 0 1.02-.47 1.02-1.06 0-.32-.13-.6-.34-.8l-3.495-3.5c-.19-.2-.447-.3-.713-.3h-.546l-.71-2.9c.065-.11.1-.23.1-.36 0-.38-.3-.69-.673-.69-.37 0-.675.3-.675.68 0 .13.036.25.1.35l-.71 2.91h-.55c-.262 0-.52.1-.71.29l-3.53 3.55c-.3.3-.39.75-.234 1.15.16.39.53.65.948.65h1.28l.227.23h-1.23c-.27 0-.52.11-.71.3L6.77 13.7c-.3.3-.39.754-.24 1.15s.53.656.947.656h2.425l.226.225H7.57c-.268 0-.52.11-.713.3l-3.53 3.54c-.3.3-.39.76-.235 1.16.156.4.53.66.946.66h3.7l.99 1-1.366.72c-.096.05-.174.13-.224.23l-.005.01-.42.86-1.07-.4-.74-.27-.09-.02-2.78-.45c-.2-.03-.403.064-.51.24L.49 24.97c-.15.246-.08.57.16.726.083.055.177.08.27.08.17 0 .336-.086.432-.246l.84-1.382 1.52.245.883.142 2.19.81c.24.088.507-.02.625-.255l.56-1.124 1.486-.777v3.55H7.158c-.282 0-.51.24-.51.53v1.28H5.525c-.282 0-.51.23-.51.52v.85H3.09c-.563 0-1.02.47-1.02 1.05 0 .58.456 1.05 1.02 1.05h26.003c.563 0 1.02-.47 1.02-1.06s-.456-1.06-1.02-1.06h-1.926v-.85c0-.29-.23-.53-.51-.53h-1.122v-1.28c0-.29-.228-.53-.51-.53H22.73v-2.94l.498.25c.07.032.15.052.228.052h1.62l1.376.625c.087.04.184.053.278.04l1.382-.205 2.666.797.142.02c.222 0 .426-.15.49-.38.08-.28-.078-.57-.348-.65zM6.04 29.59h20.11v.32H6.03v-.32zm1.63-1.8h16.845v.746H7.668v-.747zm8.192-23.8l.23-.943.23.942.037.15h-.54l.04-.15zM5.29 19.818l2.48-2.49h16.64l2.48 2.49H5.29zm3.436-5.878l2.48-2.49h9.768l2.48 2.49H8.727zm3.26-5.877l2.48-2.49h3.248l2.48 2.49h-8.207zm2.42 1.053h4.1l-1.277 1.28h-2.28l-1.28-1.28h.73zM12.3 14.994h8.314l-1.276 1.28h-6.495l-1.276-1.28h.732zM20.033 26.1v-1.332c-.02-.413-.35-.742-.754-.742s-.74.33-.76.742v1.858h-1.68v-1.858c-.02-.413-.35-.742-.76-.742s-.74.33-.76.742v1.858h-1.68v-1.858c-.02-.413-.35-.742-.76-.742s-.74.33-.75.742v1.858h-1.16v-3.42h10.22v3.42h-1.16V26.1zm2.01-5.228l-1.048 1.052-.133.164h-9.545l-.133-.164-1.048-1.052h11.908z" fill="#3A434E"/></g></svg>