<svg width="32" height="232" viewBox="0 0 32 232" xmlns="http://www.w3.org/2000/svg"><g fill="none"><path d="M31.01 138.453H20.1c-.89 0-1.695.382-2.28 1h-.547c.004-.14-.018-.28-.07-.418l-.89-2.43-.052-.117 1.58-2.697.04-.06 1.17-2.85.04-.17.29-4.43.94.66.43.3 2.09 1.46 1.16 1.39.14.11 1.4.82.11 1.66.04.18.95 2.26c.05.12.14.21.24.27l3.46 1.78c.26.13.56.02.68-.25.12-.26.02-.58-.23-.71l-3.29-1.7-.84-1.99-.12-1.852c-.02-.18-.11-.342-.26-.43l-1.57-.913-1.14-1.37-.1-.09-2.12-1.48.836-2.933 1.51 1.3.074.058 2.7 1.57 1.863 3.47c.056.108.145.19.25.23l2.667 1.13c.26.11.55-.02.65-.29.11-.27-.02-.58-.28-.69l-2.5-1.065-1.85-3.44c-.046-.08-.11-.154-.196-.2l-2.787-1.62-2.053-1.77c-.13-.11-.31-.15-.47-.095-.16.05-.284.186-.33.357l-.97 3.394-1.23-.86c-.15-.102-.34-.114-.5-.03-.16.087-.27.255-.28.445l-.17 2.706h-1.49c-.22 0-.42.15-.48.375l-.7 2.3-2.276 1.75-1.29-2.656c-.16-.33-.46-.547-.81-.58-.34-.035-.68.123-.89.416l-1.78 2.48c-.106.14-.174.32-.197.5-.04.293-.09.606-.13.866l-1.01.017c-.34.01-.65.193-.83.495l-.75 1.24-1.46 1.34c-.13.12-.23.27-.29.44l-.66 1.928c-.06.19-.08.38-.04.567H2.14c-.28 0-.505.24-.505.54 0 .297.226.536.505.536h14.99c-.172.413-.267.873-.267 1.36 0 1.822 1.35 3.32 3.048 3.42l.17.015c.67 0 1.22.58 1.22 1.29s-.54 1.29-1.21 1.29H1.01c-.557 0-1.01.48-1.01 1.07 0 .59.45 1.07 1.01 1.07h19.13c1.754-.035 3.17-1.56 3.17-3.43 0-1.823-1.35-3.32-3.047-3.42l-.166-.016c-.67 0-1.215-.58-1.215-1.29s.545-1.29 1.212-1.29H31.01c.127 0 .25-.03.362-.08.242 0 .444-.184.49-.43.1-.16.157-.36.157-.57 0-.59-.46-1.07-1.01-1.07zm-17.226-5.11l2.523-1.94c.087-.067.15-.16.184-.27l.64-2.094h1.05l-.09 1.48-1.11 2.73-1.4 2.39-.92-1.02-.8-1.16-.06-.13.01-.01zm-8.618 6.108l.514-1.49 1.37-1.26c.074-.06.137-.14.19-.23l.533-.88h1.034c.267.03.532-.04.75-.22.275-.22.507-.53.74-2.23l.656-.91 1.124 2.32.086.15.89 1.28.084.11 1.367 1.51.687 1.87H5.17zm-1.193 4.04c.49 0 .76-.11.974-.2.178-.07.307-.12.607-.12s.43.06.607.13c.22.09.49.2.98.2s.76-.11.98-.2c.18-.07.31-.12.61-.12s.43.06.61.13c.22.09.49.2.98.2s.76-.11.98-.2c.18-.07.31-.13.61-.13s.43.06.61.13c.22.09.49.2.98.2s.76-.11.97-.2c.18-.07.31-.12.61-.12.28 0 .51-.24.51-.53 0-.29-.22-.53-.5-.53-.49 0-.76.11-.97.2-.18.08-.31.13-.61.13s-.43-.05-.61-.12c-.21-.09-.48-.2-.97-.2s-.76.11-.97.2c-.18.08-.304.13-.604.13s-.43-.05-.61-.12c-.213-.09-.482-.2-.972-.2s-.76.11-.97.2c-.175.08-.304.13-.604.13s-.43-.05-.61-.13c-.213-.09-.48-.2-.97-.2s-.76.11-.97.2c-.18.08-.31.13-.61.13-.28 0-.505.24-.505.54 0 .3.23.54.51.54M1.072 146c.49 0 .76-.11.973-.2.18-.07.31-.126.61-.126s.43.05.61.126c.218.09.486.2.977.2.49 0 .76-.11.976-.2.18-.076.31-.13.61-.13s.43.055.608.13c.22.09.49.2.98.2s.76-.11.975-.2c.18-.075.31-.13.61-.13s.43.06.606.13c.22.09.488.2.978.2s.76-.11.97-.2c.18-.07.31-.126.61-.126.28 0 .51-.24.51-.54 0-.3-.22-.54-.5-.54-.49 0-.76.113-.974.203-.175.075-.304.128-.604.128s-.43-.05-.61-.124c-.215-.09-.483-.2-.973-.2s-.76.11-.977.2c-.176.07-.305.13-.605.13s-.43-.05-.6-.123c-.22-.09-.485-.2-.975-.2s-.76.11-.98.2c-.18.07-.31.124-.61.124s-.43-.054-.6-.13c-.213-.09-.48-.2-.97-.2s-.754.11-.97.2c-.18.076-.31.13-.61.13-.28 0-.5.24-.5.53 0 .3.23.538.507.538m1.82-16.9H6.6c.27 0 .526-.1.73-.29.24-.222.373-.542.373-.88l-.003-.1h1.7c.31 0 .605-.12.84-.34.27-.254.43-.623.43-1.01s-.16-.754-.43-1.01c-.235-.22-.53-.34-.84-.34H4.2c-.7 0-1.27.607-1.27 1.35l.025.278h-.11c-.61 0-1.104.528-1.104 1.17 0 .65.5 1.176 1.11 1.176zm0-1.27h1.35c.28 0 .506-.24.506-.532h-.02c0-.293-.23-.532-.507-.532-.147 0-.264-.123-.264-.28 0-.15.12-.273.264-.273H9.4c.08 0 .137.038.172.07.033.03.09.1.09.208 0 .11-.057.18-.09.21-.034.037-.09.07-.173.07H6.52c-.28 0-.505.24-.505.54 0 .3.226.54.505.54h.002l.063.026.033.07-.033.077-.063.026h-3.69c-.052 0-.095-.046-.095-.1 0-.06.043-.105.096-.105zm10.237-4.344h5.35c.28 0 .5-.24.5-.53 0-.3-.223-.54-.502-.54h-5.36c-.28 0-.5.24-.5.54 0 .297.23.53.51.53zm-1.43 1.77H17c.278 0 .504-.24.504-.53 0-.3-.226-.534-.505-.534h-5.36c-.28 0-.51.24-.51.54 0 .296.22.535.5.535z" fill="#206FAC"/><path d="M31.01 98.453H20.1c-.89 0-1.695.382-2.28 1h-.547c.004-.14-.018-.28-.07-.418l-.89-2.43-.052-.117 1.58-2.697.04-.06 1.17-2.85.04-.17.29-4.43.94.66.43.3 2.09 1.46L24 90.09l.138.11 1.4.817.11 1.66.04.18.95 2.26c.05.114.134.207.24.262l3.455 1.78c.253.13.555.02.676-.25.12-.27.01-.59-.24-.72l-3.29-1.69-.84-1.99-.12-1.86c-.02-.18-.11-.35-.26-.43l-1.57-.92-1.15-1.37-.1-.09-2.12-1.49.83-2.93 1.51 1.3.07.06 2.7 1.57 1.85 3.45c.05.103.14.185.25.23l2.66 1.13c.26.11.55-.02.653-.295.11-.27-.02-.584-.28-.694l-2.51-1.07-1.85-3.44c-.04-.083-.11-.154-.19-.2l-2.787-1.62-2.05-1.77c-.13-.11-.3-.15-.46-.095-.16.05-.29.19-.34.36l-.965 3.4-1.23-.86c-.15-.1-.34-.11-.5-.03-.16.09-.267.26-.28.45l-.15 2.7h-1.49c-.22 0-.416.15-.48.373l-.7 2.3-2.274 1.75-1.29-2.66c-.16-.33-.46-.546-.81-.58-.34-.033-.68.125-.89.418l-1.79 2.46c-.105.146-.173.32-.196.504-.037.294-.085.607-.13.867l-1.005.015c-.337.007-.65.192-.83.494l-.75 1.24-1.454 1.34c-.13.12-.226.27-.284.44l-.666 1.92c-.065.19-.077.38-.045.56H2.14c-.28 0-.505.24-.505.54 0 .29.226.53.505.53h14.99c-.172.42-.267.88-.267 1.36 0 1.83 1.35 3.33 3.048 3.43l.17.02c.67 0 1.22.58 1.22 1.29s-.54 1.29-1.21 1.29H1.01c-.557 0-1.01.48-1.01 1.07 0 .59.45 1.07 1.01 1.07h19.13c1.754-.03 3.17-1.56 3.17-3.43 0-1.82-1.35-3.32-3.047-3.42l-.166-.01c-.67 0-1.215-.58-1.215-1.29s.545-1.29 1.212-1.29H31.01c.127 0 .25-.03.362-.07.242 0 .444-.18.49-.43.1-.16.157-.36.157-.57 0-.59-.46-1.07-1.01-1.07zm-17.226-5.11l2.523-1.94c.087-.067.15-.16.184-.27l.64-2.094h1.05l-.09 1.48-1.11 2.73-1.4 2.39-.92-1.02-.8-1.16-.06-.13.01-.01zM5.166 99.45l.514-1.492 1.37-1.262c.074-.067.137-.145.19-.23l.533-.885c.473 0 .912 0 1.034.01.267.03.532-.04.75-.22.275-.22.507-.53.74-2.23l.656-.91 1.124 2.32.086.15.89 1.28.084.11 1.367 1.51.687 1.87H5.17zm-1.193 4.04c.49 0 .76-.11.974-.2.178-.075.307-.128.607-.128s.43.053.607.127c.22.08.49.2.98.2s.76-.11.98-.2c.18-.08.31-.13.61-.13s.43.05.61.12c.22.09.49.2.98.2s.76-.11.98-.2c.18-.08.31-.13.61-.13s.43.05.61.12c.22.09.49.2.98.2s.76-.11.97-.2c.18-.08.31-.13.61-.13.28 0 .51-.24.51-.54 0-.3-.22-.54-.5-.54-.49 0-.76.11-.97.2-.18.07-.31.13-.61.13s-.43-.06-.61-.13c-.21-.09-.48-.2-.97-.2s-.76.11-.97.2c-.18.07-.304.12-.604.12s-.43-.05-.61-.13c-.213-.09-.482-.2-.972-.2s-.76.11-.97.2c-.175.07-.304.13-.604.13s-.43-.05-.61-.13c-.213-.09-.48-.2-.97-.2s-.76.11-.97.2c-.18.07-.31.13-.61.13-.28 0-.505.24-.505.53 0 .29.23.53.51.53m-2.96 2.45c.49 0 .76-.11.973-.2.18-.08.31-.13.61-.13s.43.05.61.12c.22.09.487.2.978.2.49 0 .76-.11.976-.2.18-.07.31-.126.61-.126s.43.052.61.13c.22.09.49.2.98.2s.76-.11.974-.2c.18-.076.307-.13.607-.13s.43.053.608.127c.22.09.49.2.98.2s.76-.11.97-.2c.18-.07.31-.12.61-.12.28 0 .51-.24.51-.532 0-.296-.225-.535-.504-.535-.49 0-.76.11-.975.2-.173.08-.302.13-.602.13s-.43-.05-.61-.125c-.216-.09-.484-.2-.974-.2s-.76.11-.975.2c-.178.07-.307.127-.607.127s-.43-.054-.6-.13c-.22-.09-.486-.2-.976-.2s-.76.11-.98.2c-.18.075-.31.128-.61.128s-.43-.05-.603-.13c-.214-.09-.482-.2-.972-.2s-.752.11-.97.2c-.18.08-.31.13-.61.13-.28 0-.5.24-.5.535 0 .297.23.536.51.536M2.91 89H6.6c.27 0 .526-.102.73-.29.24-.22.373-.54.373-.88l-.003-.1h1.7c.31 0 .606-.12.84-.34.273-.25.43-.62.43-1.01s-.157-.75-.43-1.01c-.234-.22-.53-.34-.84-.34H4.2c-.7 0-1.27.61-1.27 1.35l.026.28h-.11c-.61 0-1.105.53-1.105 1.17 0 .65.5 1.174 1.11 1.174zm0-1.272h1.3c.28 0 .504-.24.504-.535h-.02c0-.296-.226-.535-.505-.535-.15 0-.27-.123-.27-.276 0-.153.114-.28.26-.28h5.19c.08 0 .136.04.17.07.034.03.09.1.09.21 0 .11-.056.177-.09.21-.033.03-.09.07-.172.07H6.52c-.28 0-.505.24-.505.534 0 .29.226.53.505.53h.002l.063.03.033.08-.033.075-.063.03h-3.69c-.052 0-.095-.04-.095-.1 0-.05.043-.1.096-.1zm10.2-4.33h5.35c.28 0 .5-.24.5-.538 0-.3-.23-.538-.51-.538h-5.36c-.28 0-.51.24-.51.53 0 .29.23.53.508.53zm-1.43 1.79H17c.278 0 .504-.24.504-.538 0-.298-.226-.537-.505-.537h-5.36c-.28 0-.51.24-.51.535 0 .3.22.54.5.54z" fill="#fff"/><path d="M31.01 58.453H20.1c-.89 0-1.695.382-2.28 1h-.547c.004-.14-.018-.28-.07-.418l-.89-2.43-.052-.117 1.58-2.697.04-.06 1.17-2.85.04-.17.29-4.43.94.66.43.3 2.09 1.46L24 50.09l.138.11 1.4.817.11 1.66.04.18.95 2.26c.05.114.134.207.24.262l3.455 1.78c.253.13.555.02.676-.25.12-.27.01-.59-.24-.72l-3.29-1.69-.84-1.99-.12-1.86c-.02-.18-.11-.35-.26-.43l-1.57-.92-1.15-1.37-.1-.09-2.12-1.49.83-2.93 1.51 1.3.07.06 2.7 1.57 1.85 3.45c.05.103.14.185.25.23l2.66 1.13c.26.11.55-.02.653-.295.11-.27-.02-.584-.28-.694l-2.51-1.07-1.85-3.44c-.04-.083-.11-.154-.19-.2l-2.787-1.62-2.05-1.77c-.13-.11-.3-.15-.46-.095-.16.05-.29.19-.34.36l-.965 3.4-1.23-.86c-.15-.1-.34-.11-.5-.03-.16.09-.267.26-.28.45l-.15 2.7h-1.49c-.22 0-.416.15-.48.373l-.7 2.3-2.274 1.75-1.29-2.66c-.16-.33-.46-.546-.81-.58-.34-.033-.68.125-.89.418l-1.79 2.46c-.105.146-.173.32-.196.504-.037.294-.085.607-.13.867l-1.005.015c-.337.007-.65.192-.83.494l-.75 1.24-1.454 1.34c-.13.12-.226.27-.284.44l-.666 1.92c-.065.19-.077.38-.045.56H2.14c-.28 0-.505.24-.505.54 0 .29.226.53.505.53h14.99c-.172.42-.267.88-.267 1.36 0 1.83 1.35 3.33 3.048 3.43l.17.02c.67 0 1.22.58 1.22 1.29s-.54 1.29-1.21 1.29H1.01c-.56 0-1.01.48-1.01 1.08 0 .59.45 1.07 1.008 1.07H20.14c1.754-.04 3.17-1.56 3.17-3.43 0-1.83-1.35-3.32-3.047-3.43l-.166-.01c-.67 0-1.215-.58-1.215-1.29s.545-1.29 1.212-1.29H31.01c.127 0 .25-.03.362-.08.242 0 .444-.18.49-.43.1-.16.157-.36.157-.57 0-.59-.46-1.07-1.01-1.07zm-17.226-5.11l2.523-1.94c.087-.067.15-.16.184-.27l.64-2.094h1.05l-.09 1.48-1.11 2.73-1.4 2.39-.92-1.02-.8-1.16-.06-.13.01-.01zM5.166 59.45l.514-1.492 1.37-1.262c.074-.067.137-.145.19-.23l.533-.885c.473 0 .912 0 1.034.01.267.03.532-.04.75-.22.275-.22.507-.53.74-2.23l.656-.91 1.124 2.32.086.15.89 1.28.084.11 1.367 1.51.687 1.87H5.17zm-1.193 4.04c.49 0 .76-.11.974-.2.178-.075.307-.128.607-.128s.43.053.607.127c.22.08.49.2.98.2s.76-.11.98-.2c.18-.08.31-.13.61-.13s.43.05.61.12c.22.09.49.2.98.2s.76-.11.98-.2c.18-.08.31-.13.61-.13s.43.05.61.12c.22.09.49.2.98.2s.76-.11.97-.2c.18-.08.31-.13.61-.13.28 0 .51-.24.51-.54 0-.3-.22-.54-.5-.54-.49 0-.76.11-.97.2-.18.07-.31.13-.61.13s-.43-.06-.61-.13c-.21-.09-.48-.2-.97-.2s-.76.11-.97.2c-.18.07-.304.12-.604.12s-.43-.05-.61-.13c-.213-.09-.482-.2-.972-.2s-.76.11-.97.2c-.175.07-.304.13-.604.13s-.43-.05-.61-.13c-.213-.09-.48-.2-.97-.2s-.76.11-.97.2c-.18.07-.31.13-.61.13-.28 0-.505.24-.505.53 0 .29.23.53.51.53M1.07 65.9c.49 0 .76-.115.974-.205.175-.077.304-.13.604-.13s.43.06.61.13c.22.09.49.2.98.2s.76-.11.97-.2c.18-.07.306-.12.606-.12s.43.053.61.13c.216.09.484.2.974.2s.76-.11.978-.2c.176-.076.305-.13.605-.13s.43.056.61.13c.22.09.488.2.978.2s.76-.11.97-.2c.18-.07.31-.125.61-.125.28 0 .51-.24.51-.53 0-.3-.227-.54-.506-.54-.49 0-.76.11-.97.2-.18.073-.31.126-.61.126s-.43-.052-.61-.126c-.212-.09-.48-.2-.97-.2s-.76.11-.976.2c-.18.07-.31.123-.61.123s-.43-.06-.61-.13c-.214-.09-.48-.2-.97-.2s-.76.11-.975.2c-.18.07-.31.13-.61.13s-.43-.06-.61-.13c-.213-.09-.48-.2-.97-.2s-.76.11-.98.2c-.18.07-.3.122-.6.122-.28 0-.507.24-.507.536 0 .3.23.54.508.54M2.883 49h3.69c.27 0 .53-.1.73-.29.24-.22.376-.54.376-.88l-.01-.1H9.4c.31 0 .607-.12.84-.34.27-.253.43-.62.43-1.01s-.16-.753-.43-1.01c-.233-.22-.53-.34-.84-.34H4.2c-.7 0-1.27.61-1.27 1.35l.027.28h-.11c-.61 0-1.105.525-1.105 1.17 0 .646.495 1.17 1.104 1.17zm0-1.27H4.2c.28 0 .505-.24.505-.534H4.69c0-.3-.226-.54-.505-.54-.145 0-.262-.124-.262-.277 0-.16.118-.28.263-.28h5.192c.08 0 .138.03.173.07.04.03.09.1.09.2 0 .11-.05.17-.09.21-.03.03-.09.07-.17.07H6.52c-.28 0-.505.24-.505.53 0 .29.226.53.505.53h.002l.063.02.033.07-.033.076-.063.024h-3.69c-.052 0-.095-.04-.095-.1 0-.05.043-.1.096-.1zm10.23-4.35h5.356c.28 0 .508-.24.508-.53 0-.297-.222-.536-.5-.536H13.1c-.28 0-.506.24-.506.538 0 .293.23.53.508.53zm-1.42 1.78H17c.278 0 .504-.24.504-.53 0-.297-.226-.536-.505-.536h-5.36c-.28 0-.51.24-.51.538 0 .293.22.53.5.53z" fill="#67737B"/><path d="M31.01 18.453H20.1c-.89 0-1.695.382-2.28 1h-.547c.004-.14-.018-.28-.07-.418l-.89-2.43-.052-.117 1.58-2.697.04-.06 1.17-2.85.04-.17.29-4.43.94.66.43.3 2.09 1.46L24 10.09l.138.11 1.4.817.11 1.66.04.18.95 2.26c.05.114.134.207.24.262l3.455 1.78c.253.13.555.02.676-.25.12-.27.01-.59-.24-.72l-3.29-1.69-.84-1.99-.12-1.86c-.02-.18-.11-.35-.26-.43l-1.57-.92-1.15-1.37-.1-.1-2.12-1.48.83-2.94 1.51 1.3.07.05 2.7 1.56 1.85 3.45c.05.1.14.18.25.23l2.66 1.13c.26.11.55-.02.654-.3.11-.274-.02-.586-.28-.696l-2.5-1.07-1.85-3.44c-.04-.09-.11-.16-.19-.206l-2.79-1.62-2.06-1.77c-.13-.115-.305-.15-.465-.098-.16.05-.286.182-.335.353l-.97 3.397-1.223-.86c-.15-.103-.34-.115-.5-.03-.16.085-.267.253-.28.443l-.173 2.71h-1.49c-.22 0-.42.15-.48.376l-.7 2.3-2.28 1.75L12 9.726c-.16-.327-.47-.545-.81-.577-.35-.04-.68.12-.89.42l-1.77 2.49c-.107.15-.175.32-.198.5-.036.29-.084.602-.13.862l-1.004.016c-.338.006-.65.19-.832.493l-.75 1.24-1.457 1.34c-.13.12-.23.27-.29.44l-.66 1.93c-.07.19-.08.38-.05.57H2.14c-.28 0-.505.24-.505.54 0 .3.226.54.505.54h14.99c-.172.42-.267.88-.267 1.36 0 1.83 1.35 3.33 3.048 3.43l.17.02c.67 0 1.22.58 1.22 1.29s-.54 1.29-1.21 1.29H1.01C.45 27.9 0 28.38 0 28.98c0 .59.45 1.07 1.008 1.07H20.14c1.754-.04 3.17-1.56 3.17-3.43 0-1.827-1.35-3.32-3.047-3.426l-.166-.01c-.67 0-1.215-.58-1.215-1.29s.545-1.29 1.212-1.29H31.01c.127 0 .25-.03.362-.08.242 0 .444-.184.49-.43.1-.162.157-.36.157-.57 0-.59-.46-1.07-1.01-1.07zm-17.226-5.11l2.523-1.94c.087-.067.15-.16.184-.27l.64-2.094h1.05l-.09 1.48-1.11 2.73-1.4 2.39-.92-1.02-.8-1.16-.06-.13.01-.01zM5.166 19.45l.514-1.492 1.37-1.262c.074-.067.137-.145.19-.23l.533-.885c.473 0 .912 0 1.034.01.267.03.532-.04.75-.22.275-.22.507-.53.74-2.23l.656-.91 1.124 2.32.086.15.89 1.28.084.11 1.367 1.51.687 1.87H5.17zm-1.193 4.04c.49 0 .76-.11.974-.2.178-.075.307-.128.607-.128s.43.053.607.127c.22.08.49.2.98.2s.76-.11.98-.2c.18-.08.31-.13.61-.13s.43.05.61.12c.22.09.49.2.98.2s.76-.11.98-.2c.18-.08.31-.13.61-.13s.43.05.61.12c.22.09.49.2.98.2s.76-.11.97-.2c.18-.08.31-.13.61-.13.28 0 .51-.24.51-.54 0-.3-.22-.54-.5-.54-.49 0-.76.11-.97.2-.18.07-.31.13-.61.13s-.43-.06-.61-.13c-.21-.09-.48-.2-.97-.2s-.76.11-.97.2c-.18.07-.304.12-.604.12s-.43-.05-.61-.13c-.213-.09-.482-.2-.972-.2s-.76.11-.97.2c-.175.07-.304.13-.604.13s-.43-.05-.61-.13c-.213-.09-.48-.2-.97-.2s-.76.11-.97.2c-.18.07-.31.13-.61.13-.28 0-.505.24-.505.53 0 .29.23.53.51.53M1.07 25.9c.49 0 .76-.115.974-.205.175-.077.304-.13.604-.13s.43.06.61.13c.22.09.49.2.98.2s.76-.11.97-.2c.18-.07.306-.12.606-.12s.43.053.61.13c.216.09.484.2.974.2s.76-.11.978-.2c.176-.076.305-.13.605-.13s.43.056.61.13c.22.09.488.2.978.2s.76-.11.97-.2c.18-.07.31-.125.61-.125.28 0 .51-.24.51-.53 0-.3-.227-.54-.506-.54-.49 0-.76.11-.97.2-.18.073-.31.126-.61.126s-.43-.052-.61-.126c-.212-.09-.48-.2-.97-.2s-.76.11-.976.2c-.18.07-.31.123-.61.123s-.43-.06-.61-.13c-.214-.09-.48-.2-.97-.2s-.76.11-.975.2c-.18.07-.31.13-.61.13s-.43-.06-.61-.13c-.213-.09-.48-.2-.97-.2s-.76.11-.98.2c-.18.07-.3.122-.6.122-.28 0-.507.24-.507.536 0 .3.23.54.508.54M2.84 9.05h3.69c.268 0 .527-.103.73-.292.238-.222.374-.542.374-.88l-.005-.1h1.75c.31 0 .6-.12.84-.34.27-.254.43-.623.43-1.01s-.16-.754-.43-1.01c-.24-.22-.53-.34-.84-.34h-5.2c-.7 0-1.27.607-1.27 1.35l.02.278h-.1c-.61 0-1.11.528-1.11 1.174s.5 1.17 1.11 1.17zm0-1.273h1.35c.28 0 .507-.24.507-.534 0-.293-.227-.532-.506-.532-.14 0-.26-.12-.26-.27 0-.15.12-.28.26-.28h5.19c.08 0 .14.04.18.07.04.03.09.1.09.21 0 .11-.05.18-.09.21-.03.03-.09.07-.17.07H6.52c-.28 0-.505.24-.505.54 0 .3.226.54.505.54h.002l.063.03.033.08-.033.08-.063.02h-3.69c-.052 0-.095-.04-.095-.1 0-.05.043-.1.096-.1zM13.07 3.42h5.352c.28 0 .507-.24.507-.536 0-.295-.23-.534-.51-.534h-5.35c-.28 0-.51.24-.51.535 0 .297.22.536.5.536zM11.645 5.2H17c.278 0 .504-.24.504-.535 0-.296-.226-.535-.505-.535h-5.36c-.28 0-.51.24-.51.535 0 .296.22.535.5.535z" fill="#3A434E"/></g></svg>