<svg width="32" height="232" viewBox="0 0 32 232" xmlns="http://www.w3.org/2000/svg"><g fill="none">
		<path id="XMLID_1025_" fill="#3A444F" d="M28,23.2c-0.8,0-1.2,0.2-1.5,0.3c-0.3,0.1-0.6,0.2-1.2,0.2c-0.6,0-0.8-0.1-1.2-0.2
			c-0.2-0.1-0.4-0.2-0.7-0.2l0.8-1.8c0.1-0.1,0.1-0.3,0-0.4c-0.1-0.1-0.2-0.2-0.4-0.2l-6.2-0.4v-1.7h5.2c0.2,0,0.3-0.1,0.4-0.2
			c0.1-0.1,0.1-0.3,0-0.4L17.7,3.9V3.1V1.7V1.5c0-0.1-0.1-0.3-0.2-0.4C17.4,1,17.2,1,17.1,1l-3.5,0.8c-0.2,0.1-0.4,0.2-0.4,0.5
			c0,0.2,0.2,0.4,0.4,0.5l3.1,0.7v0.3c0,0.1,0,0.1,0,0.2v0.2c-1.9,0.9-3.5,2.4-4.7,4.2c-1.2,1.9-1.8,4-1.8,6.2
			c0,1.3,0.2,2.6,0.6,3.8c0.1,0.2,0.2,0.3,0.5,0.3h5.4c0,0,0,0,0,0c0,0,0,0,0,0v1.7L8,19.8c-0.1,0-0.3,0-0.4,0.1
			c-0.1,0.1-0.2,0.2-0.2,0.3l0,0c0,1.5,0.8,2.8,2.1,3.4c-0.1,0-0.2,0-0.3,0c-0.6,0-0.8-0.1-1.2-0.2c-0.4-0.1-0.8-0.3-1.5-0.3
			c-0.8,0-1.2,0.2-1.5,0.3c-0.3,0.1-0.6,0.2-1.2,0.2c-0.3,0-0.5,0.2-0.5,0.5c0,0.3,0.2,0.5,0.5,0.5c0.8,0,1.2-0.2,1.5-0.3
			c0.3-0.1,0.6-0.2,1.2-0.2s0.8,0.1,1.2,0.2c0.4,0.1,0.8,0.3,1.5,0.3s1.2-0.2,1.5-0.3c0.3-0.1,0.6-0.2,1.2-0.2
			c0.6,0,0.8,0.1,1.2,0.2c0.4,0.1,0.8,0.3,1.5,0.3c0.8,0,1.2-0.2,1.5-0.3c0.3-0.1,0.6-0.2,1.2-0.2s0.8,0.1,1.2,0.2
			c0.4,0.1,0.8,0.3,1.5,0.3c0.8,0,1.2-0.2,1.5-0.3c0.3-0.1,0.6-0.2,1.2-0.2c0.6,0,0.8,0.1,1.2,0.2c0.4,0.1,0.8,0.3,1.5,0.3
			c0.8,0,1.2-0.2,1.5-0.3c0.3-0.1,0.6-0.2,1.2-0.2c0.3,0,0.5-0.2,0.5-0.5C28.5,23.4,28.3,23.2,28,23.2z M22.1,17.7h-4.5V6.5
			L22.1,17.7z M15.9,2.3l0.8-0.2v0.4L15.9,2.3z M11.6,17.7c-0.3-1-0.5-2.1-0.5-3.2c0-2,0.6-4,1.7-5.7c0.8-1.3,1.9-2.4,3.1-3.2
			c-0.7,1.9-1,3.9-1,6c0,2.1,0.4,4.1,1.1,6.1H11.6z M15.9,11.7c0-1.8,0.3-3.5,0.8-5.1v10.3C16.1,15.2,15.9,13.5,15.9,11.7z
			 M21.2,23.5c-0.3,0.1-0.6,0.2-1.2,0.2c-0.6,0-0.8-0.1-1.2-0.2c-0.4-0.1-0.8-0.3-1.5-0.3s-1.2,0.2-1.5,0.3
			c-0.3,0.1-0.6,0.2-1.2,0.2c-0.6,0-0.8-0.1-1.2-0.2c-0.4-0.1-0.8-0.3-1.5-0.3c-0.2,0-0.4,0-0.5,0c0,0-0.1,0-0.2,0
			c-1.4,0-2.6-1-2.8-2.4l14.6,0.9l-0.7,1.5C21.8,23.2,21.5,23.4,21.2,23.5z"/>
		<path id="XMLID_1395_" fill="#67737C" d="M28,63.2c-0.8,0-1.2,0.2-1.5,0.3c-0.3,0.1-0.6,0.2-1.2,0.2c-0.6,0-0.8-0.1-1.2-0.2
			c-0.2-0.1-0.4-0.2-0.7-0.2l0.8-1.8c0.1-0.1,0.1-0.3,0-0.4c-0.1-0.1-0.2-0.2-0.4-0.2l-6.2-0.4v-1.7h5.2c0.2,0,0.3-0.1,0.4-0.2
			c0.1-0.1,0.1-0.3,0-0.4l-5.6-14.1v-0.9v-1.4v-0.2c0-0.1-0.1-0.3-0.2-0.4C17.4,41,17.2,41,17.1,41l-3.5,0.8
			c-0.2,0.1-0.4,0.2-0.4,0.5c0,0.2,0.2,0.4,0.4,0.5l3.1,0.7v0.3c0,0.1,0,0.1,0,0.2v0.2c-1.9,0.9-3.5,2.4-4.7,4.2
			c-1.2,1.9-1.8,4-1.8,6.2c0,1.3,0.2,2.6,0.6,3.8c0.1,0.2,0.2,0.3,0.5,0.3h5.4c0,0,0,0,0,0c0,0,0,0,0,0v1.7L8,59.8
			c-0.1,0-0.3,0-0.4,0.1c-0.1,0.1-0.2,0.2-0.2,0.3l0,0c0,1.5,0.8,2.8,2.1,3.4c-0.1,0-0.2,0-0.3,0c-0.6,0-0.8-0.1-1.2-0.2
			c-0.4-0.1-0.8-0.3-1.5-0.3c-0.8,0-1.2,0.2-1.5,0.3c-0.3,0.1-0.6,0.2-1.2,0.2c-0.3,0-0.5,0.2-0.5,0.5c0,0.3,0.2,0.5,0.5,0.5
			c0.8,0,1.2-0.2,1.5-0.3c0.3-0.1,0.6-0.2,1.2-0.2s0.8,0.1,1.2,0.2c0.4,0.1,0.8,0.3,1.5,0.3s1.2-0.2,1.5-0.3
			c0.3-0.1,0.6-0.2,1.2-0.2c0.6,0,0.8,0.1,1.2,0.2c0.4,0.1,0.8,0.3,1.5,0.3c0.8,0,1.2-0.2,1.5-0.3c0.3-0.1,0.6-0.2,1.2-0.2
			s0.8,0.1,1.2,0.2c0.4,0.1,0.8,0.3,1.5,0.3c0.8,0,1.2-0.2,1.5-0.3c0.3-0.1,0.6-0.2,1.2-0.2c0.6,0,0.8,0.1,1.2,0.2
			c0.4,0.1,0.8,0.3,1.5,0.3c0.8,0,1.2-0.2,1.5-0.3c0.3-0.1,0.6-0.2,1.2-0.2c0.3,0,0.5-0.2,0.5-0.5C28.5,63.4,28.3,63.2,28,63.2z
			 M22.1,57.7h-4.5V46.5L22.1,57.7z M15.9,42.3l0.8-0.2v0.4L15.9,42.3z M11.6,57.7c-0.3-1-0.5-2.1-0.5-3.2c0-2,0.6-4,1.7-5.7
			c0.8-1.3,1.9-2.4,3.1-3.2c-0.7,1.9-1,3.9-1,6c0,2.1,0.4,4.1,1.1,6.1H11.6z M15.9,51.7c0-1.8,0.3-3.5,0.8-5.1v10.3
			C16.1,55.2,15.9,53.5,15.9,51.7z M21.2,63.5c-0.3,0.1-0.6,0.2-1.2,0.2c-0.6,0-0.8-0.1-1.2-0.2c-0.4-0.1-0.8-0.3-1.5-0.3
			s-1.2,0.2-1.5,0.3c-0.3,0.1-0.6,0.2-1.2,0.2c-0.6,0-0.8-0.1-1.2-0.2c-0.4-0.1-0.8-0.3-1.5-0.3c-0.2,0-0.4,0-0.5,0c0,0-0.1,0-0.2,0
			c-1.4,0-2.6-1-2.8-2.4l14.6,0.9l-0.7,1.5C21.8,63.2,21.5,63.4,21.2,63.5z"/>
		<path id="XMLID_1589_" fill="#FFFFFF" d="M28,103.2c-0.8,0-1.2,0.2-1.5,0.3c-0.3,0.1-0.6,0.2-1.2,0.2c-0.6,0-0.8-0.1-1.2-0.2
			c-0.2-0.1-0.4-0.2-0.7-0.2l0.8-1.8c0.1-0.1,0.1-0.3,0-0.4c-0.1-0.1-0.2-0.2-0.4-0.2l-6.2-0.4v-1.7h5.2c0.2,0,0.3-0.1,0.4-0.2
			c0.1-0.1,0.1-0.3,0-0.4l-5.6-14.1v-0.9v-1.4v-0.2c0-0.1-0.1-0.3-0.2-0.4C17.4,81,17.2,81,17.1,81l-3.5,0.8
			c-0.2,0.1-0.4,0.2-0.4,0.5c0,0.2,0.2,0.4,0.4,0.5l3.1,0.7v0.3c0,0.1,0,0.1,0,0.2v0.2c-1.9,0.9-3.5,2.4-4.7,4.2
			c-1.2,1.9-1.8,4-1.8,6.2c0,1.3,0.2,2.6,0.6,3.8c0.1,0.2,0.2,0.3,0.5,0.3h5.4c0,0,0,0,0,0c0,0,0,0,0,0v1.7L8,99.8
			c-0.1,0-0.3,0-0.4,0.1c-0.1,0.1-0.2,0.2-0.2,0.3l0,0c0,1.5,0.8,2.8,2.1,3.4c-0.1,0-0.2,0-0.3,0c-0.6,0-0.8-0.1-1.2-0.2
			c-0.4-0.1-0.8-0.3-1.5-0.3c-0.8,0-1.2,0.2-1.5,0.3c-0.3,0.1-0.6,0.2-1.2,0.2c-0.3,0-0.5,0.2-0.5,0.5c0,0.3,0.2,0.5,0.5,0.5
			c0.8,0,1.2-0.2,1.5-0.3c0.3-0.1,0.6-0.2,1.2-0.2s0.8,0.1,1.2,0.2c0.4,0.1,0.8,0.3,1.5,0.3s1.2-0.2,1.5-0.3
			c0.3-0.1,0.6-0.2,1.2-0.2c0.6,0,0.8,0.1,1.2,0.2c0.4,0.1,0.8,0.3,1.5,0.3c0.8,0,1.2-0.2,1.5-0.3c0.3-0.1,0.6-0.2,1.2-0.2
			s0.8,0.1,1.2,0.2c0.4,0.1,0.8,0.3,1.5,0.3c0.8,0,1.2-0.2,1.5-0.3c0.3-0.1,0.6-0.2,1.2-0.2c0.6,0,0.8,0.1,1.2,0.2
			c0.4,0.1,0.8,0.3,1.5,0.3c0.8,0,1.2-0.2,1.5-0.3c0.3-0.1,0.6-0.2,1.2-0.2c0.3,0,0.5-0.2,0.5-0.5C28.5,103.4,28.3,103.2,28,103.2z
			 M22.1,97.7h-4.5V86.5L22.1,97.7z M15.9,82.3l0.8-0.2v0.4L15.9,82.3z M11.6,97.7c-0.3-1-0.5-2.1-0.5-3.2c0-2,0.6-4,1.7-5.7
			c0.8-1.3,1.9-2.4,3.1-3.2c-0.7,1.9-1,3.9-1,6c0,2.1,0.4,4.1,1.1,6.1H11.6z M15.9,91.7c0-1.8,0.3-3.5,0.8-5.1v10.3
			C16.1,95.2,15.9,93.5,15.9,91.7z M21.2,103.5c-0.3,0.1-0.6,0.2-1.2,0.2c-0.6,0-0.8-0.1-1.2-0.2c-0.4-0.1-0.8-0.3-1.5-0.3
			s-1.2,0.2-1.5,0.3c-0.3,0.1-0.6,0.2-1.2,0.2c-0.6,0-0.8-0.1-1.2-0.2c-0.4-0.1-0.8-0.3-1.5-0.3c-0.2,0-0.4,0-0.5,0c0,0-0.1,0-0.2,0
			c-1.4,0-2.6-1-2.8-2.4l14.6,0.9l-0.7,1.5C21.8,103.2,21.5,103.4,21.2,103.5z"/>
		<path id="XMLID_1757_" fill="#1D70AD" d="M28,143.2c-0.8,0-1.2,0.2-1.5,0.3c-0.3,0.1-0.6,0.2-1.2,0.2c-0.6,0-0.8-0.1-1.2-0.2
			c-0.2-0.1-0.4-0.2-0.7-0.2l0.8-1.8c0.1-0.1,0.1-0.3,0-0.4c-0.1-0.1-0.2-0.2-0.4-0.2l-6.2-0.4v-1.7h5.2c0.2,0,0.3-0.1,0.4-0.2
			c0.1-0.1,0.1-0.3,0-0.4l-5.6-14.1v-0.9v-1.4v-0.2c0-0.1-0.1-0.3-0.2-0.4c-0.1-0.1-0.3-0.1-0.4-0.1l-3.5,0.8
			c-0.2,0.1-0.4,0.2-0.4,0.5c0,0.2,0.2,0.4,0.4,0.5l3.1,0.7v0.3c0,0.1,0,0.1,0,0.2v0.2c-1.9,0.9-3.5,2.4-4.7,4.2
			c-1.2,1.9-1.8,4-1.8,6.2c0,1.3,0.2,2.6,0.6,3.8c0.1,0.2,0.2,0.3,0.5,0.3h5.4c0,0,0,0,0,0c0,0,0,0,0,0v1.7L8,139.8
			c-0.1,0-0.3,0-0.4,0.1c-0.1,0.1-0.2,0.2-0.2,0.3l0,0c0,1.5,0.8,2.8,2.1,3.4c-0.1,0-0.2,0-0.3,0c-0.6,0-0.8-0.1-1.2-0.2
			c-0.4-0.1-0.8-0.3-1.5-0.3c-0.8,0-1.2,0.2-1.5,0.3c-0.3,0.1-0.6,0.2-1.2,0.2c-0.3,0-0.5,0.2-0.5,0.5c0,0.3,0.2,0.5,0.5,0.5
			c0.8,0,1.2-0.2,1.5-0.3c0.3-0.1,0.6-0.2,1.2-0.2s0.8,0.1,1.2,0.2c0.4,0.1,0.8,0.3,1.5,0.3s1.2-0.2,1.5-0.3
			c0.3-0.1,0.6-0.2,1.2-0.2c0.6,0,0.8,0.1,1.2,0.2c0.4,0.1,0.8,0.3,1.5,0.3c0.8,0,1.2-0.2,1.5-0.3c0.3-0.1,0.6-0.2,1.2-0.2
			s0.8,0.1,1.2,0.2c0.4,0.1,0.8,0.3,1.5,0.3c0.8,0,1.2-0.2,1.5-0.3c0.3-0.1,0.6-0.2,1.2-0.2c0.6,0,0.8,0.1,1.2,0.2
			c0.4,0.1,0.8,0.3,1.5,0.3c0.8,0,1.2-0.2,1.5-0.3c0.3-0.1,0.6-0.2,1.2-0.2c0.3,0,0.5-0.2,0.5-0.5C28.5,143.4,28.3,143.2,28,143.2z
			 M22.1,137.7h-4.5v-11.2L22.1,137.7z M15.9,122.3l0.8-0.2v0.4L15.9,122.3z M11.6,137.7c-0.3-1-0.5-2.1-0.5-3.2c0-2,0.6-4,1.7-5.7
			c0.8-1.3,1.9-2.4,3.1-3.2c-0.7,1.9-1,3.9-1,6c0,2.1,0.4,4.1,1.1,6.1H11.6z M15.9,131.7c0-1.8,0.3-3.5,0.8-5.1v10.3
			C16.1,135.2,15.9,133.5,15.9,131.7z M21.2,143.5c-0.3,0.1-0.6,0.2-1.2,0.2c-0.6,0-0.8-0.1-1.2-0.2c-0.4-0.1-0.8-0.3-1.5-0.3
			s-1.2,0.2-1.5,0.3c-0.3,0.1-0.6,0.2-1.2,0.2c-0.6,0-0.8-0.1-1.2-0.2c-0.4-0.1-0.8-0.3-1.5-0.3c-0.2,0-0.4,0-0.5,0c0,0-0.1,0-0.2,0
			c-1.4,0-2.6-1-2.8-2.4l14.6,0.9l-0.7,1.5C21.8,143.2,21.5,143.4,21.2,143.5z"/>
	</g>
</svg>
