<svg width="32" height="232" viewBox="0 0 32 232" xmlns="http://www.w3.org/2000/svg"><g fill="none"><path d="M20.427 123.444h.09l-.026.286c0 .83.62 1.505 1.37 1.505h4.82c.33 0 .65-.134.9-.376.3-.29.47-.7.47-1.13 0-.43-.17-.85-.46-1.13-.24-.25-.56-.38-.9-.38h-1.16l.01-.09c0-.38-.15-.74-.4-.98-.21-.21-.49-.33-.78-.33h-3.91c-.65 0-1.18.59-1.18 1.31s.54 1.31 1.19 1.31zm0-1.402h3.902l.05.024.03.068-.03.07-.06.022h-.01c-.31 0-.55.273-.55.61 0 .337.24.61.55.61h2.34c.08 0 .13.04.17.072.03.032.09.102.09.213s-.06.19-.09.22c-.04.04-.09.07-.17.07h-4.81c-.15 0-.26-.12-.26-.28 0-.15.11-.28.26-.28.3 0 .55-.27.55-.61 0-.33-.25-.61-.55-.61h-1.43c-.05 0-.09-.04-.09-.09 0-.05.03-.09.08-.09zM.237 130.68c.098.08.215.124.335.124.12 0 .235-.043.33-.12.215-.178.284-.5.164-.763-.04-.08-.094-.15-.162-.21-.19-.16-.472-.16-.663 0-.21.18-.28.5-.16.77.04.09.09.16.16.21zm4.377-.73c.102.17.276.273.46.273.12 0 .236-.043.33-.12.13-.108.21-.27.222-.447.01-.177-.048-.35-.162-.476l-.056-.054c-.19-.16-.473-.16-.664-.002-.215.177-.284.5-.163.765l.04.06zm-1.166-7.104l.027.032c.103.113.242.177.39.177.12 0 .235-.042.33-.12.13-.106.21-.27.22-.447.01-.135-.023-.27-.09-.38l-.044-.065-.02-.032c-.1-.11-.24-.17-.39-.17-.12 0-.23.04-.33.12-.13.11-.21.27-.22.45-.01.14.03.27.09.38l.05.07zm2.945 2.703l.46.27.25.5c.097.19.283.31.485.31.2 0 .387-.12.485-.32l.25-.51.46-.28c.178-.11.29-.32.29-.54 0-.22-.11-.43-.29-.54l-.46-.28-.25-.51c-.097-.19-.283-.32-.485-.32s-.388.12-.485.31l-.25.51-.46.27c-.177.11-.288.316-.288.54 0 .222.11.43.288.533zm-4.653 2.26l.456.27.25.5c.098.19.284.31.486.31s.387-.12.485-.32l.25-.51.46-.28c.177-.11.287-.32.287-.54 0-.23-.11-.43-.287-.54l-.46-.28-.25-.51c-.098-.2-.284-.32-.486-.32s-.38.12-.48.32l-.25.5-.46.272c-.17.11-.28.313-.28.536 0 .22.11.42.29.53zm28.41 12.58c-.45 0-.696.1-.89.19-.15.06-.25.1-.494.1-.24 0-.34-.05-.49-.11-.197-.09-.442-.19-.892-.19s-.695.1-.892.19c-.15.06-.25.1-.49.1-.242 0-.34-.04-.49-.11-.198-.09-.443-.19-.893-.19s-.7.1-.89.19c-.15.06-.25.1-.49.1s-.35-.04-.5-.11c-.2-.09-.44-.19-.89-.19s-.7.1-.89.19c-.15.06-.25.11-.49.11-.31 0-.55.27-.55.61 0 .34.24.61.55.61.45 0 .69-.1.89-.19.15-.06.25-.11.49-.11s.34.04.49.1c.2.082.44.19.89.19.44 0 .69-.108.89-.19.15-.068.25-.11.49-.11s.34.043.49.107c.2.09.44.19.89.19s.69-.1.89-.19c.15-.06.25-.105.49-.105s.34.044.49.11c.19.085.44.19.89.19s.69-.105.89-.19c.15-.065.25-.107.49-.107.3 0 .55-.276.55-.61 0-.34-.25-.61-.56-.61zm1.305-2c-.24 0-.34-.05-.49-.11-.15-.07-.326-.14-.596-.18l-2.38-1.55-.98-.73-.7-1.8-.57-1.43-.18-.78h4.37c.3 0 .55-.28.55-.61 0-.34-.25-.61-.55-.61h-4.65l-.02-.08c-.03-.13-.1-.24-.19-.32l-1.27-1.16c-.14-.13-.32-.17-.5-.12-.18.05-.32.19-.38.37l-.45 1.3h-.36V129c0-.22-.11-.42-.28-.53l-1.07-.67-1.1-2.195c-.1-.2-.29-.32-.5-.316-.21 0-.39.13-.49.33l-1 2.21-1.55 1.22-.13.15-.88 1.39h-1.47c-.31 0-.55.27-.55.61 0 .33.25.61.55.61h1.61l.13-.02h6.53l-.63 1.06-.64 1.04-.03.05-.64 1.27-1.01 1.09-1.1.47-.05.02-2.25 1.26-.16.14-.09.037c-.15.062-.25.105-.49.105s-.34-.045-.49-.11c-.16-.07-.357-.15-.66-.18V138l-.13-2.195h1.713c.306 0 .553-.275.553-.61 0-.34-.246-.61-.55-.61H14l-3.24-7.6c-.092-.213-.287-.35-.5-.35-.215 0-.41.137-.5.35l-3.25 7.644H5.34c-.305 0-.553.27-.553.61 0 .34.25.61.554.61h1.58l-.12 2.2-.01.04c0 .59.13 1.18.37 1.71-.29.56-.45 1.19-.46 1.86l-2.49 1.13-1.09-6.23.26-.93.82-.76c.15-.15.22-.37.18-.59-.04-.22-.18-.4-.38-.46l-1-.38-.69-.91c-.13-.17-.33-.25-.53-.204-.2.04-.36.2-.42.41l-.32 1.135-.82.76c-.15.144-.22.37-.18.59.04.22.18.395.37.46l1.02.353.63.825 1.11 6.376-2.1.94c-.57.25-.84.963-.61 1.59.18.47.59.76 1.02.76.14 0 .28-.03.42-.096l1.69-.76.53 3.013c.05.29.28.49.54.49l.105-.01c.3-.062.5-.382.44-.713l-.56-3.257 2.304-1.04c.484 2.07 2.19 3.55 4.154 3.55l.344-.012c.75-.067 1.48-.35 2.1-.827.154-.12.244-.32.24-.53-.01-.21-.12-.4-.29-.502-.36-.22-.597-.62-.63-1.07-.01-.194.01-.384.07-.565.09-.12.18-.245.257-.375l7.85 2.415-2.96 3.016c-.45.46-.476 1.23-.06 1.726.217.26.513.39.81.39.27 0 .54-.11.75-.324l4.41-4.5c.294-.3.42-.75.324-1.18-.09-.43-.39-.77-.775-.89l-9.77-3.007-.006-.1c-.04-.56-.19-1.097-.43-1.578.072-.166.14-.335.19-.508.207 0 .304.04.44.1.2.084.44.19.89.19s.697-.106.89-.19c.15-.066.25-.11.49-.11s.34.04.49.105c.2.08.44.19.89.19s.7-.11.897-.19c.15-.07.25-.11.49-.11s.34.04.49.11c.2.08.44.19.89.19s.694-.11.89-.19c.15-.07.25-.11.49-.11s.34.04.49.1c.196.08.44.19.89.19s.696-.11.89-.19c.15-.07.25-.11.49-.11.245 0 .34.04.49.1.2.08.446.19.896.19s.696-.11.89-.19c.15-.07.25-.11.49-.11s.34.04.49.11c.196.08.44.19.89.19s.696-.11.89-.19c.15-.07.25-.11.49-.11s.34.04.49.11c.2.08.44.19.89.19.31 0 .55-.28.55-.61 0-.34-.24-.61-.55-.61zm-21.135 1.4c-.35-.01-.68.14-.93.41-.214.23-.214.62 0 .86.217.24.567.24.78 0l.136-.06c.034 0 .098.01.156.07.11.12.25.18.39.18.143 0 .285-.06.393-.18.215-.24.215-.63 0-.86-.247-.28-.575-.43-.922-.43zm.81-2.25h.5c.306 0 .554-.28.554-.61 0-.34-.248-.61-.553-.61h-.49c-.3 0-.55.27-.55.61 0 .33.25.61.56.61zm9.895-6.93h-4.52l.375-.59 1.577-1.25c.073-.06.13-.14.17-.23l.597-1.31.67 1.33c.047.09.12.17.208.23l.922.58v1.22zm-19.3 4.26l-.025-.01.027-.03.147-.14c.08-.08.14-.18.172-.29l.068-.24.07.09.077.1c.07.09.16.15.26.19l.22.07-.17.16c-.08.07-.14.17-.17.29l-.06.24-.14-.2c-.07-.09-.15-.16-.26-.19l-.19-.07zm17.97 2.43l1.148-1.24.098-.14.67-1.33.32-.52.04.09c.09.23.29.38.52.38l.1-.01 1.03-.2c.14-.03.27-.11.35-.24l.48-.72.44.01.45 1.11.77 1.95c.04.1.11.2.2.26l1.13.84.03.02 1.2.78c-.19-.008-.284-.047-.42-.106-.2-.084-.44-.19-.89-.19s-.693.106-.89.19c-.15.066-.25.11-.49.11s-.34-.044-.49-.11c-.2-.084-.443-.19-.893-.19s-.69.106-.89.19c-.15.066-.25.11-.49.11s-.34-.044-.49-.11c-.195-.084-.44-.19-.89-.19s-.69.106-.89.19c-.15.066-.25.11-.49.11s-.34-.044-.49-.11c-.195-.084-.44-.19-.89-.19s-.692.106-.89.19c-.15.066-.25.11-.49.11l-.09-.004.786-.44 1.174-.507.19-.13zm3.013-4.53l.494-.84.05-.11.004-.01.417-1.22.027-.08.084.07.454.41.268 1.15-.338-.01c-.184-.01-.356.09-.463.25l-.247.37-.267.402-.36.07-.15-.42-.02-.06h.06zm-14.8 1.47l2.368-5.58 2.37 5.58.157.37h-5.05l.156-.37zm4.58 1.58l.128 2.25c-.002.22-.028.44-.08.65-.218-.14-.502-.1-.68.12-.063.07-.102.16-.125.25-.05.21 0 .45.16.61.46.46.73 1.08.78 1.76l.01.19c0 .45-.1.89-.29 1.29l-.05.09c-.08.15-.17.29-.28.42l-.09.16c-.15.385-.22.81-.19 1.23.04.52.22 1 .5 1.39-.29.123-.59.2-.91.23l-.25.01c-1.51 0-2.81-1.18-3.12-2.8-.02-.15-.05-.296-.06-.447l-.1-1.354c-.01-.15 0-.29.01-.43.07-.93.58-1.76 1.32-2.178.1.174.27.29.47.29h1.11c.31 0 .55-.28.55-.61v-.02c-.01-.33-.25-.592-.55-.592h-.55v-1.44c0-.332-.25-.61-.55-.61H8.7c-.3 0-.55.278-.55.61 0 .34.25.61.555.61h.384v.49c-.41.16-.77.397-1.09.69-.05-.2-.07-.41-.07-.62l.13-2.25h4.45z" fill="#206FAC"/><path d="M20.427 83.444h.09l-.026.286c0 .83.62 1.505 1.37 1.505h4.82c.33 0 .65-.134.9-.376.3-.29.47-.7.47-1.13 0-.43-.17-.85-.46-1.13-.24-.25-.56-.38-.9-.38h-1.16l.01-.09c0-.38-.15-.74-.4-.98-.21-.21-.49-.33-.78-.33h-3.91c-.65 0-1.18.59-1.18 1.31s.54 1.31 1.19 1.31zm0-1.402h3.902l.05.024.03.068-.03.07-.06.022h-.01c-.31 0-.55.273-.55.61 0 .337.24.61.55.61h2.34c.08 0 .13.04.17.072.03.032.09.102.09.213s-.06.19-.09.22c-.04.04-.09.07-.17.07h-4.81c-.15 0-.26-.12-.26-.28 0-.15.11-.28.26-.28.3 0 .55-.27.55-.61 0-.33-.25-.61-.55-.61h-1.43c-.05 0-.09-.04-.09-.09 0-.05.03-.09.08-.09zM.237 90.68c.098.08.215.124.335.124.12 0 .235-.043.33-.12.215-.178.284-.5.164-.763-.04-.08-.094-.15-.162-.21-.19-.16-.472-.16-.663 0-.21.18-.28.5-.16.77.04.09.09.16.16.21zm4.377-.73c.102.17.276.273.46.273.12 0 .236-.043.33-.12.13-.108.21-.27.222-.447.01-.177-.048-.35-.162-.476l-.056-.054c-.19-.16-.473-.16-.664-.002-.215.177-.284.5-.163.765l.04.06zm-1.166-7.104l.027.032c.103.113.242.177.39.177.12 0 .235-.042.33-.12.13-.106.21-.27.22-.447.01-.135-.023-.27-.09-.38l-.044-.065-.02-.032c-.1-.11-.24-.17-.39-.17-.12 0-.23.04-.33.12-.13.11-.21.27-.22.45-.01.14.03.27.09.38l.05.07zm2.945 2.703l.46.27.25.5c.097.19.283.31.485.31.2 0 .387-.12.485-.32l.25-.51.46-.28c.178-.11.29-.32.29-.54 0-.22-.11-.43-.29-.54l-.46-.28-.25-.51c-.097-.19-.283-.32-.485-.32s-.388.12-.485.31l-.25.51-.46.27c-.177.11-.288.316-.288.54 0 .222.11.43.288.533zM1.74 87.81l.458.277.25.507c.098.196.284.317.486.317s.387-.12.485-.31l.25-.5.46-.27c.17-.1.28-.31.28-.53 0-.22-.11-.43-.29-.54l-.46-.27-.25-.5c-.1-.2-.29-.32-.49-.32s-.39.13-.49.32l-.25.51-.46.28c-.18.11-.29.31-.29.54 0 .22.11.428.29.53zm28.41 12.58c-.45 0-.694.106-.89.192-.15.064-.25.107-.492.107-.24 0-.34-.05-.49-.11-.197-.09-.442-.19-.892-.19s-.695.1-.892.19c-.15.06-.25.1-.49.1-.242 0-.34-.05-.49-.11-.198-.09-.443-.19-.893-.19-.44 0-.69.1-.89.19-.15.06-.25.1-.49.1s-.34-.04-.49-.11c-.19-.09-.44-.19-.89-.19s-.69.1-.89.19c-.15.06-.25.1-.49.1-.3 0-.55.27-.55.61 0 .33.25.61.55.61.45 0 .7-.11.89-.19.15-.07.25-.11.49-.11s.34.04.49.1c.2.09.45.19.9.19s.7-.1.89-.19c.15-.06.25-.11.49-.11.25 0 .35.04.5.102.2.08.44.19.89.19s.7-.11.89-.19c.15-.07.25-.11.49-.11s.34.04.49.105c.2.09.44.19.89.19s.7-.1.89-.19c.15-.06.25-.104.49-.104.31 0 .56-.275.56-.61 0-.34-.24-.61-.55-.61zm1.307-1.996c-.24 0-.34-.043-.49-.108-.15-.064-.326-.14-.596-.174L28 96.566l-.98-.73-.7-1.796-.57-1.423-.182-.778h4.373c.31 0 .55-.28.55-.61 0-.34-.24-.61-.55-.61h-4.66l-.02-.08c-.03-.13-.09-.24-.18-.32l-1.27-1.16c-.13-.13-.32-.17-.49-.12-.17.05-.31.19-.37.37l-.45 1.3h-.36v-1.57c0-.22-.11-.42-.28-.53l-1.07-.68-1.1-2.2c-.1-.19-.29-.32-.49-.31-.2 0-.39.13-.48.34l-1.01 2.21-1.54 1.22-.13.14-.88 1.39h-1.48c-.3 0-.55.28-.55.61 0 .34.25.61.56.61h1.61l.13-.02.03.01h6.51l-.62 1.07-.64 1.03-.03.05-.64 1.27L19 96.36l-1.096.47-.05.023-2.248 1.264-.16.136-.086.036c-.15.06-.25.1-.49.1s-.34-.04-.49-.11c-.16-.07-.353-.15-.66-.18v-.06l-.126-2.2h1.714c.305 0 .552-.28.552-.61 0-.34-.247-.61-.552-.61h-1.284L10.78 87c-.092-.214-.287-.35-.5-.35-.215 0-.41.136-.5.35l-3.247 7.644H5.346c-.305 0-.553.272-.553.61 0 .336.247.61.553.61h1.58L6.8 98.057l-.003.038c0 .596.13 1.185.37 1.713-.285.56-.448 1.196-.454 1.863L4.22 102.8l-1.09-6.232.266-.936.822-.765c.154-.143.225-.368.185-.587-.04-.22-.185-.396-.378-.462L3 93.462l-.69-.91c-.13-.17-.334-.25-.53-.203-.2.04-.36.2-.42.41l-.32 1.14-.823.76c-.155.14-.227.37-.187.59.04.22.185.4.378.46l1.027.35.63.82 1.11 6.37-2.093.94c-.565.25-.835.97-.604 1.59.175.47.588.76 1.023.76.14 0 .28-.03.42-.09l1.68-.76.53 3.01c.05.29.28.49.54.49l.11-.01c.3-.07.5-.39.44-.72l-.56-3.26 2.3-1.04c.49 2.06 2.19 3.55 4.16 3.55l.35-.02c.76-.06 1.48-.35 2.1-.82.16-.12.25-.32.24-.53-.01-.21-.12-.4-.28-.51-.36-.22-.59-.62-.62-1.07-.01-.2.01-.39.07-.57.09-.12.18-.247.26-.377l7.85 2.41-2.96 3.015c-.45.46-.48 1.23-.06 1.73.22.26.51.39.81.39.27 0 .54-.11.75-.33l4.41-4.5c.29-.3.42-.75.32-1.18-.09-.43-.39-.77-.78-.89l-9.77-3.006v-.103c-.04-.56-.19-1.1-.43-1.58.08-.167.14-.336.2-.51.21.01.306.05.445.11.19.086.44.19.89.19s.69-.104.89-.19c.15-.064.25-.106.49-.106s.34.047.49.11c.2.088.44.19.89.19s.69-.102.89-.19c.15-.062.25-.11.49-.11s.34.05.49.11c.2.088.44.19.89.19s.693-.102.89-.19c.15-.062.25-.11.49-.11s.34.048.49.11c.196.087.44.19.89.19s.696-.103.893-.19c.15-.063.25-.11.49-.11s.34.047.49.11c.2.088.44.19.89.19s.698-.102.895-.19c.15-.062.25-.11.49-.11s.34.048.49.11c.197.09.44.19.89.19s.697-.1.89-.19c.15-.06.25-.102.49-.102s.34.04.49.103c.2.087.45.19.9.19.307 0 .55-.27.55-.61 0-.34-.243-.61-.55-.61zM10.323 99.79c-.353-.008-.683.142-.93.415-.216.237-.216.623 0 .86.215.24.565.24.78 0l.134-.057c.034 0 .098.01.156.076.108.12.25.18.39.18.142 0 .284-.06.392-.18.215-.238.215-.624 0-.862-.247-.273-.575-.426-.922-.432zm.81-2.244h.498c.31 0 .56-.274.56-.61 0-.338-.25-.61-.55-.61h-.5c-.3 0-.55.272-.55.61 0 .336.25.61.55.61zm9.893-6.928h-4.52l.375-.592 1.58-1.246c.08-.057.13-.134.17-.222l.6-1.312.67 1.334c.05.098.12.178.21.234l.92.583v1.225zm-19.3 4.258L1.7 94.87l.03-.025.147-.137c.08-.075.14-.174.172-.285l.06-.24.07.093.07.1c.07.09.15.154.26.19l.22.073-.18.16c-.08.07-.14.17-.17.28l-.07.24-.15-.2c-.07-.09-.16-.16-.26-.19l-.19-.07zm17.97 2.437l1.148-1.237.098-.14.664-1.33.32-.517.035.09c.09.23.29.38.52.38l.1-.01 1.03-.2c.14-.03.27-.12.35-.24l.48-.72.44.01.45 1.11.77 1.95c.04.1.11.19.2.26l1.13.84.03.02 1.21.78c-.19-.01-.29-.05-.42-.11-.192-.09-.44-.19-.89-.19s-.69.1-.89.19c-.15.06-.25.11-.49.11s-.34-.05-.49-.11c-.2-.09-.44-.19-.89-.19s-.69.1-.89.19c-.15.06-.25.11-.49.11s-.34-.05-.49-.11c-.2-.09-.44-.19-.89-.19s-.69.1-.89.19c-.15.06-.24.11-.49.11s-.34-.05-.49-.11c-.19-.09-.44-.19-.89-.19s-.69.1-.89.19c-.15.06-.25.11-.49.11l-.09-.01.788-.44 1.17-.51.186-.13zm3.013-4.524l.49-.84.05-.11v-.01l.41-1.22.02-.08.08.07.45.41.26 1.15-.34-.01c-.19-.01-.36.09-.47.25l-.25.37-.27.4-.365.07-.15-.42-.02-.07h.06zm-14.8 1.48l2.36-5.58 2.37 5.58.15.37H7.75l.157-.37zm4.58 1.58l.12 2.25c0 .22-.03.44-.08.65-.22-.14-.5-.1-.68.11-.07.07-.1.16-.13.25-.05.21 0 .45.16.61.45.46.73 1.08.78 1.76l.01.19c0 .45-.1.9-.3 1.3l-.05.09c-.08.15-.18.29-.28.42l-.1.16c-.15.39-.22.81-.19 1.23.04.51.21.99.5 1.39-.29.12-.6.2-.91.23l-.26.01c-1.51 0-2.82-1.18-3.13-2.8-.03-.15-.05-.3-.06-.45l-.1-1.36c-.01-.15-.01-.29 0-.43.07-.93.57-1.76 1.31-2.17.09.17.27.29.47.29h1.11c.3 0 .55-.28.55-.61v-.02c-.01-.33-.25-.6-.55-.6h-.56V96.9c0-.337-.25-.61-.55-.61h-.94c-.31 0-.55.273-.55.61 0 .337.24.61.55.61h.38V98c-.408.16-.77.394-1.09.69-.05-.2-.07-.41-.08-.617L8 95.84h4.46z" fill="#fff"/><path d="M20.427 43.444h.09l-.026.286c0 .83.62 1.505 1.37 1.505h4.82c.33 0 .65-.134.9-.376.3-.29.47-.7.47-1.13 0-.43-.17-.85-.46-1.13-.24-.25-.56-.38-.9-.38h-1.16l.01-.09c0-.38-.15-.74-.4-.98-.21-.21-.49-.33-.78-.33h-3.91c-.65 0-1.18.59-1.18 1.31s.54 1.31 1.19 1.31zm0-1.402h3.902l.05.024.03.068-.03.07-.06.022h-.01c-.31 0-.55.273-.55.61 0 .337.24.61.55.61h2.34c.08 0 .13.04.17.072.03.032.09.102.09.213s-.06.19-.09.22c-.04.04-.09.07-.17.07h-4.81c-.15 0-.26-.12-.26-.28 0-.15.11-.28.26-.28.3 0 .55-.27.55-.61 0-.33-.25-.61-.55-.61h-1.43c-.05 0-.09-.04-.09-.09 0-.05.03-.09.08-.09zM.237 50.68c.098.08.215.124.335.124.12 0 .235-.043.33-.12.215-.178.284-.5.164-.763-.04-.08-.094-.15-.162-.21-.19-.16-.472-.16-.663 0-.21.18-.28.5-.16.77.04.09.09.16.16.21zm4.377-.73c.102.17.276.273.46.273.12 0 .236-.043.33-.12.13-.108.21-.27.222-.447.01-.177-.048-.35-.162-.476l-.056-.054c-.19-.16-.473-.16-.664-.002-.215.177-.284.5-.163.765l.04.06zm-1.166-7.104l.027.032c.103.113.242.177.39.177.12 0 .235-.042.33-.12.13-.106.21-.27.22-.447.01-.135-.023-.27-.09-.38l-.044-.065-.02-.032c-.1-.11-.24-.17-.39-.17-.12 0-.23.04-.33.12-.13.11-.21.27-.22.45-.01.14.03.27.09.38l.05.07zm2.945 2.703l.46.27.25.5c.097.19.283.31.485.31.2 0 .387-.12.485-.32l.25-.51.46-.28c.178-.11.29-.32.29-.54 0-.22-.11-.43-.29-.54l-.46-.28-.25-.51c-.097-.19-.283-.32-.485-.32s-.388.12-.485.31l-.25.51-.46.27c-.177.11-.288.316-.288.54 0 .222.11.43.288.533zM1.74 47.81l.458.277.25.507c.098.196.284.317.486.317s.387-.12.485-.31l.25-.5.46-.27c.17-.1.28-.31.28-.53 0-.22-.11-.43-.29-.54l-.46-.27-.25-.5c-.1-.2-.29-.32-.49-.32s-.39.13-.49.32l-.25.51-.46.28c-.18.11-.29.31-.29.54 0 .22.11.428.29.53zm28.41 12.58c-.45 0-.694.106-.89.192-.15.064-.25.107-.492.107-.24 0-.34-.05-.49-.11-.197-.09-.442-.19-.892-.19s-.695.1-.892.19c-.15.06-.25.1-.49.1-.242 0-.34-.05-.49-.11-.198-.09-.443-.19-.893-.19-.44 0-.69.1-.89.19-.15.06-.25.1-.49.1s-.34-.04-.49-.11c-.19-.09-.44-.19-.89-.19s-.69.1-.89.19c-.15.06-.25.1-.49.1-.3 0-.55.27-.55.61 0 .33.25.61.55.61.45 0 .7-.11.89-.19.15-.07.25-.11.49-.11s.34.04.49.1c.2.09.45.19.9.19s.7-.1.89-.19c.15-.06.25-.11.49-.11.25 0 .35.04.5.102.2.08.44.19.89.19s.7-.11.89-.19c.15-.07.25-.11.49-.11s.34.04.49.105c.2.09.44.19.89.19s.7-.1.89-.19c.15-.06.25-.104.49-.104.31 0 .56-.275.56-.61 0-.34-.24-.61-.55-.61zm1.307-1.996c-.24 0-.34-.043-.49-.108-.15-.064-.326-.14-.596-.174L28 56.566l-.98-.73-.7-1.796-.57-1.423-.182-.778h4.373c.31 0 .55-.28.55-.61 0-.34-.24-.61-.55-.61h-4.66l-.02-.08c-.03-.13-.09-.24-.18-.32l-1.27-1.16c-.13-.13-.32-.17-.49-.12-.17.05-.31.19-.37.37l-.45 1.3h-.36v-1.57c0-.22-.11-.42-.28-.53l-1.07-.68-1.1-2.2c-.1-.19-.29-.32-.49-.31-.2 0-.39.13-.48.34l-1.01 2.21-1.54 1.22-.13.14-.88 1.39h-1.48c-.3 0-.55.28-.55.61 0 .34.25.61.56.61h1.61l.13-.02.03.01h6.51l-.62 1.07-.64 1.03-.03.05-.64 1.27L19 56.36l-1.096.47-.05.023-2.248 1.264-.16.136-.086.036c-.15.06-.25.1-.49.1s-.34-.04-.49-.11c-.16-.07-.353-.15-.66-.18v-.06l-.126-2.2h1.714c.305 0 .552-.28.552-.61 0-.34-.247-.61-.552-.61h-1.284L10.78 47c-.092-.214-.287-.35-.5-.35-.215 0-.41.136-.5.35l-3.247 7.644H5.346c-.305 0-.553.272-.553.61 0 .336.247.61.553.61h1.58L6.8 58.057l-.003.038c0 .596.13 1.185.37 1.713-.285.56-.448 1.196-.454 1.863L4.22 62.8l-1.085-6.24.265-.935.823-.764c.155-.14.226-.36.186-.58-.04-.22-.19-.39-.38-.46L3 53.46l-.692-.91c-.13-.17-.333-.25-.53-.204-.198.044-.358.204-.418.416l-.32 1.136-.824.764c-.156.142-.228.367-.188.586.04.22.184.396.377.462l1.026.352.63.827 1.11 6.37-2.09.94c-.56.25-.83.96-.6 1.59.18.47.59.76 1.02.76.14 0 .28-.03.42-.09l1.68-.76.53 3.01c.05.29.29.49.55.49l.11-.01c.3-.07.5-.39.44-.72l-.56-3.25 2.3-1.04c.49 2.06 2.19 3.55 4.16 3.55l.34-.02c.76-.07 1.48-.35 2.1-.83.16-.12.25-.32.24-.53-.01-.21-.12-.4-.28-.51-.36-.22-.59-.62-.62-1.07-.01-.2.01-.39.07-.57.09-.12.18-.25.25-.38l7.85 2.41-2.96 3.01c-.44.45-.47 1.22-.06 1.72.22.26.52.39.81.39.27 0 .54-.11.75-.33l4.42-4.5c.3-.3.42-.75.33-1.18-.09-.43-.39-.77-.78-.89l-9.78-3v-.104c-.04-.56-.18-1.09-.43-1.57.08-.163.15-.33.2-.505.2 0 .3.04.44.1.2.09.44.19.89.19s.7-.1.89-.19c.15-.06.25-.11.49-.11s.34.04.49.104c.2.084.44.19.89.19s.7-.106.9-.19c.15-.066.25-.108.49-.108s.34.04.49.11c.19.08.44.19.89.19s.69-.11.89-.19c.15-.07.25-.11.49-.11s.34.042.49.11c.2.08.44.19.89.19s.7-.11.895-.19c.15-.07.25-.11.49-.11s.34.045.49.11c.19.084.44.19.89.19s.69-.106.89-.19c.15-.066.25-.108.49-.108s.34.046.49.11c.2.086.44.19.89.19s.7-.104.896-.19c.15-.064.25-.106.49-.106s.34.04.49.105c.2.08.44.19.89.19.31 0 .56-.27.56-.61 0-.34-.246-.61-.55-.61zM10.323 59.79c-.353-.008-.683.142-.93.415-.216.237-.216.623 0 .86.215.24.565.24.78 0l.134-.057c.034 0 .098.01.156.076.108.12.25.18.39.18.142 0 .284-.06.392-.18.215-.238.215-.624 0-.862-.247-.273-.575-.426-.922-.432zm.81-2.244h.498c.31 0 .56-.274.56-.61 0-.338-.25-.61-.55-.61h-.5c-.3 0-.55.272-.55.61 0 .336.25.61.55.61zm9.893-6.928h-4.52l.375-.592 1.58-1.246c.08-.057.13-.134.17-.222l.6-1.312.67 1.334c.05.098.12.178.21.234l.92.583v1.225zm-19.3 4.258L1.7 54.87l.03-.025.147-.137c.08-.075.14-.174.172-.285l.06-.24.07.093.07.1c.07.09.15.154.26.19l.22.073-.18.16c-.08.07-.14.17-.17.28l-.07.24-.15-.2c-.07-.09-.16-.16-.26-.19l-.19-.07zm17.97 2.437l1.148-1.237.098-.14.664-1.33.32-.517.035.09c.09.23.29.38.52.38l.1-.01 1.03-.2c.14-.03.27-.12.35-.24l.48-.72.44.01.45 1.11.77 1.95c.04.1.11.19.2.26l1.13.84.03.02 1.21.78c-.19-.01-.29-.05-.42-.11-.192-.09-.44-.19-.89-.19s-.69.1-.89.19c-.15.06-.25.11-.49.11s-.34-.05-.49-.11c-.2-.09-.44-.19-.89-.19s-.69.1-.89.19c-.15.06-.25.11-.49.11s-.34-.05-.49-.11c-.2-.09-.44-.19-.89-.19s-.69.1-.89.19c-.15.06-.24.11-.49.11s-.34-.05-.49-.11c-.19-.09-.44-.19-.89-.19s-.69.1-.89.19c-.15.06-.25.11-.49.11l-.09-.01.788-.44 1.17-.51.186-.13zm3.013-4.524l.49-.84.05-.11v-.01l.41-1.22.02-.08.08.07.45.41.26 1.15-.34-.01c-.19-.01-.36.09-.47.25l-.25.37-.27.4-.365.07-.15-.42-.02-.07h.06zm-14.8 1.48l2.36-5.58 2.37 5.58.15.37H7.75l.157-.37zm4.58 1.58l.12 2.25c0 .22-.03.44-.08.65-.22-.14-.5-.1-.68.11-.07.07-.1.16-.13.25-.05.21 0 .45.16.61.45.46.73 1.08.78 1.76l.01.19c0 .45-.1.9-.3 1.3l-.05.09c-.08.15-.18.29-.28.42l-.1.16c-.15.39-.22.81-.19 1.23.04.51.21.99.5 1.39-.29.12-.6.2-.91.23l-.26.01c-1.51 0-2.82-1.18-3.13-2.8-.03-.15-.05-.3-.06-.45L7.8 61.9c-.01-.145-.01-.29.003-.43.07-.93.572-1.753 1.314-2.172.096.18.27.294.47.294h1.11c.302 0 .55-.275.55-.61v-.015c-.01-.33-.25-.6-.55-.6h-.557v-1.45c0-.34-.25-.61-.55-.61h-.94c-.31 0-.55.27-.55.61 0 .334.24.61.55.61h.38v.48c-.404.16-.77.396-1.09.69-.045-.2-.07-.41-.07-.615l.13-2.25h4.46z" fill="#67737B"/><path d="M20.427 3.444h.09l-.026.286c0 .83.62 1.505 1.37 1.505h4.82c.33 0 .65-.134.9-.376.3-.29.47-.7.47-1.13 0-.43-.17-.85-.46-1.13-.24-.25-.56-.38-.9-.38h-1.16l.01-.09c0-.38-.15-.74-.4-.98-.22-.21-.5-.33-.79-.33h-3.9c-.65 0-1.19.59-1.19 1.31s.54 1.31 1.19 1.31zm0-1.402h3.902l.05.024.03.068-.03.07-.06.022h-.01c-.31 0-.55.273-.55.61 0 .337.24.61.55.61h2.34c.08 0 .13.04.17.072.03.032.09.102.09.213s-.06.19-.09.22c-.04.04-.09.07-.17.07h-4.81c-.15 0-.26-.12-.26-.28 0-.15.11-.28.26-.28.3 0 .55-.27.55-.61 0-.33-.25-.61-.55-.61h-1.43c-.05 0-.09-.04-.09-.09 0-.05.03-.09.08-.09zM.237 10.68c.098.08.215.124.335.124.12 0 .235-.043.33-.12.215-.178.284-.5.164-.763-.04-.08-.094-.15-.162-.21-.19-.16-.472-.16-.663 0-.21.18-.28.5-.16.77.04.09.09.16.16.21zm4.377-.73c.102.17.276.273.46.273.12 0 .236-.043.33-.12.13-.108.21-.27.222-.447.01-.177-.048-.35-.162-.476l-.056-.054c-.19-.16-.473-.16-.664-.002-.215.177-.284.5-.163.765l.04.06zM3.448 2.845l.027.032c.103.113.242.177.39.177.12 0 .235-.042.33-.12.13-.106.21-.27.22-.447.01-.135-.023-.27-.09-.38l-.044-.065-.02-.032c-.1-.112-.24-.176-.39-.176-.12 0-.23.042-.33.12-.13.106-.21.27-.22.447-.01.14.03.27.09.38l.05.07zM6.393 5.55l.46.276.25.507c.097.196.283.317.485.317.2 0 .387-.12.485-.317l.25-.507.46-.276c.178-.107.29-.313.29-.535 0-.223-.11-.428-.29-.535l-.46-.277-.25-.507c-.097-.195-.283-.317-.485-.317s-.388.12-.485.31l-.25.5-.46.27c-.177.1-.288.31-.288.53 0 .22.11.43.288.53zM1.74 7.813l.458.277.25.508c.098.196.284.317.486.317s.387-.122.485-.317l.25-.507.46-.27c.17-.1.28-.31.28-.53 0-.22-.11-.43-.29-.53l-.46-.27-.25-.5c-.1-.19-.29-.31-.49-.31s-.39.13-.49.32l-.25.51-.46.28c-.18.11-.29.31-.29.53 0 .22.11.43.29.54zm28.41 12.58c-.45 0-.694.106-.89.192-.15.064-.25.107-.492.107-.24 0-.34-.043-.49-.107-.197-.086-.442-.19-.892-.19s-.695.104-.892.19c-.15.064-.25.107-.49.107-.242 0-.34-.043-.49-.107-.198-.086-.443-.19-.893-.19-.44 0-.69.104-.89.19-.15.064-.25.107-.49.107s-.34-.043-.49-.107c-.19-.086-.44-.19-.89-.19s-.69.104-.89.19c-.15.064-.25.107-.49.107-.3 0-.55.273-.55.61 0 .337.25.61.55.61.45 0 .7-.105.89-.19.15-.065.25-.107.49-.107s.34.043.49.107c.2.085.45.19.9.19s.7-.105.89-.19c.15-.065.25-.107.49-.107.25 0 .35.043.5.107.2.085.44.19.89.19s.7-.105.89-.19c.15-.065.25-.107.49-.107s.34.043.49.107c.2.085.44.19.89.19s.7-.105.89-.19c.15-.065.25-.107.49-.107.31 0 .56-.273.56-.61 0-.337-.24-.61-.55-.61zm1.307-1.996c-.24 0-.34-.043-.49-.108-.15-.07-.326-.14-.596-.18L28 16.56l-.98-.73-.7-1.797-.57-1.42-.182-.78h4.373c.31 0 .55-.27.55-.61 0-.332-.24-.61-.55-.61h-4.66l-.02-.08c-.03-.12-.09-.232-.18-.32l-1.27-1.16c-.13-.12-.32-.17-.49-.12-.17.05-.31.19-.37.38l-.45 1.305h-.36V9.04c0-.22-.11-.42-.28-.53l-1.07-.67-1.1-2.197c-.1-.198-.29-.32-.49-.314-.2 0-.39.13-.48.33L17.7 7.88 16.16 9.1l-.13.147-.882 1.395h-1.475c-.305 0-.552.273-.552.61 0 .337.25.61.56.61h1.62l.13-.02.03.002h6.51l-.63 1.065-.64 1.03-.03.05-.63 1.27-1.01 1.09-1.09.47-.05.02-2.25 1.26-.16.13-.08.04c-.15.06-.25.11-.49.11s-.34-.05-.49-.11c-.16-.07-.35-.15-.66-.18v-.06l-.13-2.19h1.72c.31 0 .56-.27.56-.61 0-.34-.24-.61-.55-.61h-1.29L10.78 7c-.092-.214-.287-.35-.5-.35-.215 0-.41.136-.5.35l-3.247 7.644H5.346c-.305 0-.553.272-.553.61 0 .336.247.61.553.61h1.58l-.126 2.19-.003.04c0 .595.13 1.184.37 1.712-.285.56-.448 1.196-.454 1.863L4.22 22.79l-1.085-6.23.265-.935.823-.764c.155-.14.226-.36.186-.58-.04-.22-.19-.39-.38-.46L3 13.46l-.692-.91c-.13-.17-.333-.25-.53-.204-.198.044-.358.204-.418.416l-.32 1.136-.824.764c-.156.142-.228.367-.188.586.04.22.184.396.377.462l1.026.352.63.827 1.11 6.37-2.09.94c-.56.25-.83.96-.6 1.59.18.47.59.76 1.02.76.14 0 .28-.03.42-.09l1.68-.76.53 3.01c.05.29.29.49.55.49l.11-.01c.3-.07.5-.39.44-.72l-.56-3.25 2.3-1.04c.49 2.06 2.19 3.55 4.16 3.55l.34-.02c.76-.07 1.48-.35 2.1-.83.16-.12.25-.32.24-.53-.01-.21-.12-.4-.28-.51-.36-.22-.59-.62-.62-1.07-.01-.2.01-.39.07-.57.09-.12.18-.25.25-.38l7.85 2.41-2.96 3.01c-.44.45-.47 1.22-.06 1.72.22.26.52.39.81.39.27 0 .54-.11.75-.33l4.42-4.5c.3-.3.42-.75.33-1.18-.09-.43-.39-.77-.78-.89l-9.78-3v-.104c-.04-.56-.18-1.09-.43-1.57.08-.163.15-.33.2-.505.2 0 .3.04.44.1.2.09.44.19.89.19s.7-.1.89-.19c.15-.06.25-.11.49-.11s.34.04.49.104c.2.084.44.19.89.19s.7-.106.9-.19c.15-.066.25-.108.49-.108s.34.04.49.11c.19.08.44.19.89.19s.69-.11.89-.19c.15-.07.25-.11.49-.11s.34.042.49.11c.2.08.44.19.89.19s.7-.11.895-.19c.15-.07.25-.11.49-.11s.34.045.49.11c.19.084.44.19.89.19s.69-.106.89-.19c.15-.066.25-.108.49-.108s.34.046.49.11c.2.086.44.19.89.19s.7-.104.896-.19c.15-.064.25-.106.49-.106s.34.04.49.105c.2.08.44.19.89.19.31 0 .56-.27.56-.61 0-.34-.246-.61-.55-.61zm-21.134 1.396c-.353-.008-.683.142-.93.415-.216.237-.216.623 0 .86.215.24.565.24.78 0l.134-.057c.034 0 .098.01.156.08.108.12.25.18.39.18.142 0 .284-.06.392-.18.215-.24.215-.62 0-.86-.247-.27-.575-.42-.922-.43zm.81-2.244h.498c.31 0 .56-.28.56-.61 0-.34-.25-.61-.55-.61h-.5c-.3 0-.55.27-.55.61 0 .33.25.61.55.61zm9.893-6.93h-4.52l.375-.59 1.58-1.25c.08-.06.13-.14.17-.22l.6-1.31.67 1.33c.05.1.12.18.21.23l.92.58v1.22zm-19.3 4.26l-.025-.01.03-.03.15-.14c.08-.08.14-.18.17-.29l.07-.24.07.09.08.1c.07.09.16.15.26.19l.22.07-.17.16c-.08.07-.14.17-.17.29l-.06.24-.14-.2c-.07-.09-.15-.16-.26-.19l-.19-.07zm17.97 2.43l1.148-1.24.098-.14.664-1.33.32-.52.035.09c.09.23.29.38.52.38l.1-.01 1.03-.2c.14-.03.27-.12.35-.24l.48-.72.44.01.45 1.11.77 1.95c.04.1.11.2.2.26l1.13.84.03.02 1.21.78c-.19-.01-.29-.05-.42-.11-.192-.08-.44-.19-.89-.19s-.69.11-.89.19c-.15.07-.25.11-.49.11s-.34-.04-.49-.11c-.2-.08-.44-.19-.89-.19s-.69.11-.89.19c-.15.07-.25.11-.49.11s-.34-.04-.49-.11c-.2-.08-.44-.19-.89-.19s-.69.11-.89.19c-.15.07-.24.11-.49.11s-.34-.04-.49-.11c-.19-.08-.44-.19-.89-.19s-.69.11-.89.19c-.15.07-.25.11-.49.11h-.09l.788-.44 1.17-.51.186-.13zm3.013-4.53l.49-.84.05-.11v-.01l.41-1.22.02-.08.08.07.45.41.26 1.15-.34-.01c-.19-.01-.36.09-.47.25l-.25.37-.27.4-.365.07-.15-.42-.02-.07h.06zm-14.8 1.48l2.36-5.58 2.37 5.58.15.37H7.75l.157-.37zm4.58 1.58l.12 2.25c0 .22-.03.44-.08.65-.22-.14-.5-.1-.68.11-.07.07-.1.16-.13.25-.05.21 0 .45.16.61.46.46.73 1.08.78 1.76l.01.19c0 .45-.1.9-.3 1.3l-.05.09c-.08.15-.18.29-.28.42l-.1.16c-.16.38-.22.81-.19 1.23.04.51.21.99.49 1.39-.29.12-.6.2-.91.23l-.26.01c-1.51 0-2.82-1.18-3.12-2.8-.03-.15-.05-.3-.06-.45L7.8 21.9c-.01-.148-.01-.29 0-.43.07-.93.575-1.756 1.317-2.175.096.18.27.296.47.296h1.11c.305 0 .55-.27.55-.61v-.01c-.006-.33-.25-.59-.55-.59h-.554v-1.45c0-.34-.246-.61-.55-.61h-.94c-.304 0-.55.27-.55.61 0 .34.246.61.55.61h.387v.48c-.4.16-.77.4-1.083.69-.043-.2-.07-.41-.07-.61l.13-2.25h4.46z" fill="#3A434E"/></g></svg>