<svg width="32" height="232" viewBox="0 0 32 232" xmlns="http://www.w3.org/2000/svg"><g fill="none"><path d="M7.517 124.048c.267-.24.646-.244.917-.036l.006.015c.082.188.26.31.455.31h.057c.195 0 .372-.12.455-.31l.006-.015c.27-.208.65-.203.916.036.21.19.52.16.7-.066.18-.226.15-.563-.06-.753-.6-.54-1.43-.57-2.05-.16-.63-.42-1.46-.38-2.05.15-.21.19-.24.52-.06.75.17.22.49.25.7.06m2.89 2.38c.17.22.49.25.7.06.26-.24.64-.25.91-.04v.01c.08.18.26.3.45.3h.06c.19 0 .37-.12.45-.31v-.01c.27-.21.65-.21.91.03.21.19.53.16.71-.07.173-.23.15-.56-.067-.75-.59-.53-1.42-.57-2.05-.16-.62-.41-1.454-.38-2.05.152-.21.19-.24.53-.06.753m-8.775 6.3h3.7c.267 0 .525-.106.726-.295.237-.22.373-.54.373-.874l-.007-.1h1.74c.308 0 .605-.12.836-.34.272-.26.43-.63.43-1.01 0-.39-.157-.76-.43-1.01-.23-.22-.527-.34-.834-.34H2.97c-.696 0-1.263.6-1.263 1.343l.026.274h-.11c-.61 0-1.1.525-1.1 1.17 0 .645.49 1.17 1.1 1.17zm0-1.27h1.35c.276 0 .5-.24.5-.536 0-.3-.225-.538-.5-.538-.145 0-.26-.124-.26-.28 0-.15.116-.275.26-.275H8.1c.08 0 .14.04.17.07.035.03.09.1.09.205 0 .11-.055.177-.09.21-.032.033-.09.07-.17.07H5.29c-.276 0-.5.24-.5.535 0 .296.224.535.5.535h.01l.063.03.033.07-.033.08-.063.027H1.634c-.053 0-.095-.04-.095-.1 0-.06.04-.1.09-.1zm29.28 16.45h-.316V137c0-.59-.45-1.07-1.007-1.07-.37 0-.7.216-.87.535H27.3v-4.177h.24c.27 0 .5-.24.5-.534 0-.295-.23-.534-.5-.534h-.3c-.19-2.57-2.11-4.63-4.52-4.853v-3.738c0-.3-.23-.54-.5-.54h-2.77c-.28 0-.5.24-.5.53v2.3c0 .29.23.53.51.53h2.27v.91c-2.35.28-4.2 2.31-4.38 4.83h-.43c-.275 0-.5.24-.5.53 0 .29.225.53.5.53h.347v.8l-1.113-.37c-.09-.03-.185-.04-.276-.01l-1.71.48-2.234.29c-.09.01-.18.05-.25.11l-1.516 1.28-2.05.42c-.13.02-.24.1-.316.22l-.76 1.16-1.754.55-.17.096-1.466 1.25c-.09.087-.15.2-.17.32H2.46c-.277 0-.502.24-.502.537 0 .296.225.535.502.535h11.56v1.54c-.223.04-.38.102-.517.16-.178.072-.306.125-.604.125-.3 0-.43-.055-.61-.13-.22-.09-.48-.2-.97-.2s-.76.11-.97.2c-.18.07-.31.13-.61.13s-.43-.057-.61-.13c-.21-.09-.48-.2-.97-.2s-.76.11-.97.2c-.18.074-.31.13-.61.13s-.43-.05-.6-.13c-.22-.084-.48-.2-.97-.2s-.75.116-.97.2c-.18.08-.31.13-.61.13-.28 0-.5.24-.5.54 0 .3.22.54.5.54.49 0 .75-.11.97-.2.18-.07.3-.126.6-.126s.42.05.6.125c.212.09.48.2.97.2s.753-.11.97-.2c.18-.07.303-.13.6-.13s.426.05.603.13c.21.09.48.2.962.2s.76-.11.97-.2c.18-.075.302-.13.6-.13s.425.054.602.13c.21.09.48.2.96.2s.75-.11.97-.2l.15-.06v1.99l-.15-.06c-.21-.084-.48-.2-.967-.2s-.76.116-.97.2c-.18.08-.31.13-.607.13-.3 0-.43-.05-.608-.125-.213-.09-.48-.2-.97-.2s-.754.11-.97.2c-.175.07-.303.12-.6.12-.3 0-.43-.06-.605-.13-.21-.09-.48-.2-.965-.2s-.75.11-.97.2c-.174.07-.3.12-.6.12s-.43-.05-.605-.13c-.22-.09-.48-.2-.97-.2s-.76.11-.97.2c-.18.08-.31.13-.606.13-.28 0-.5.24-.5.53 0 .29.22.53.5.53.485 0 .752-.11.97-.2.173-.074.3-.13.6-.13s.42.056.6.13c.213.09.48.2.97.2s.75-.11.965-.2c.17-.073.3-.126.6-.126s.42.06.6.13c.21.09.48.2.97.2.48 0 .75-.11.962-.2.175-.07.303-.13.6-.13.3 0 .43.058.605.13.22.09.48.2.97.2s.76-.11.97-.2c.18-.073.31-.13.6-.13s.43.05.61.128c.133.057.29.12.513.16v2.2H1.04c-.55 0-1 .48-1 1.07s.45 1.07 1 1.07h29.868c.554 0 1.003-.473 1.003-1.07 0-.59-.45-1.063-1-1.063zm-4.116-.21h-.51v-2.195c0-2.33-1.78-4.23-3.97-4.23-2.186 0-3.967 1.9-3.967 4.23v2.197h-.51v-2.19c0-2.63 2-4.76 4.47-4.76s4.472 2.14 4.472 4.77v2.194zm-1.51 0h-5.93v-2.195c0-1.74 1.33-3.16 2.964-3.16s2.965 1.42 2.965 3.16v2.197zm3.3 0h-.79v-2.195c0-3.213-2.46-5.83-5.48-5.83-3.02 0-5.477 2.62-5.477 5.835v2.19H16V137.5h1.21v1.26h1.004v-1.26h.87v1.264h1v-1.27h.87v1.26h1.008v-1.26h.87v1.267h1.004v-1.26h.87v1.27h1.006v-1.26h.87v1.27h1.01v-1.26h.97v10.157zm-23.13-9.26l.222-.19 1.36-.43.47-.15.18-.107.086-.1.75-1.15 1.97-.405c.08-.02.15-.06.21-.11l1.5-1.27 2.13-.29.06-.01 1.61-.45.715.23.56.19v2.25h-1.4c-.176-.32-.5-.535-.87-.535-.555 0-1.004.48-1.004 1.07v1.905h-9.1l.56-.48zm16.523-9.92l.34-.02.34.02c.21.53.42 1.43.46 2.712h-1.6c.04-1.28.25-2.186.46-2.716zm4.34 7.96h-.8v-2.21c-.02-.43-.36-.777-.77-.777-.41 0-.745.34-.764.77v2.21h-.9v-2.21c-.02-.43-.35-.777-.76-.777-.41 0-.74.346-.76.778v2.21h-.9v-2.21c-.02-.43-.35-.78-.76-.78-.41 0-.74.34-.76.77v2.21h-.85v-4.18h8.03v4.18zm-1.07-5.248H24.1c-.024-.8-.117-1.6-.283-2.29.76.483 1.296 1.317 1.42 2.29zm-5.28-8.056h1.77v1.238h-1.76v-1.235zm.82 5.77c-.17.69-.26 1.49-.28 2.29h-1.13c.12-.97.66-1.81 1.412-2.29z" fill="#206FAC"/><path d="M7.517 84.048c.267-.24.646-.244.917-.036l.006.015c.082.188.26.31.455.31h.057c.195 0 .372-.12.455-.31l.006-.015c.27-.208.65-.203.916.036.21.19.52.16.7-.066.18-.226.15-.563-.06-.753-.6-.54-1.43-.57-2.05-.16-.63-.42-1.46-.38-2.05.15-.21.19-.24.52-.06.75.17.22.49.25.7.06m2.89 2.38c.17.22.49.25.7.06.26-.24.64-.25.91-.04v.01c.08.18.26.3.45.3h.06c.19 0 .37-.12.45-.31l.01-.02c.27-.21.65-.2.91.04.21.19.53.16.71-.07.17-.23.15-.56-.07-.75-.59-.53-1.42-.57-2.05-.16-.62-.415-1.458-.378-2.05.154-.21.19-.24.53-.06.753m-8.78 6.3h3.7c.266 0 .524-.108.725-.297.237-.22.373-.54.373-.88v-.1h1.74c.308 0 .605-.12.836-.332.27-.255.43-.62.43-1.01 0-.384-.158-.75-.43-1.01-.23-.214-.528-.334-.835-.334H2.97c-.696 0-1.263.6-1.263 1.343l.028.273h-.11c-.61 0-1.1.525-1.1 1.17 0 .645.49 1.17 1.1 1.17zm0-1.276h1.35c.278 0 .5-.24.5-.537 0-.29-.223-.53-.5-.53-.14 0-.26-.124-.26-.28 0-.15.12-.275.26-.275H8.1c.08 0 .14.04.175.07.03.03.09.1.09.21 0 .103-.06.17-.09.203-.036.03-.09.07-.17.07H5.29c-.276 0-.5.24-.5.534 0 .3.224.535.5.535h.01l.063.03.033.075-.033.074-.063.025H1.634c-.053 0-.095-.047-.095-.1 0-.06.04-.105.09-.105zm29.29 16.47h-.315V97c0-.59-.45-1.07-1.006-1.07-.37 0-.7.216-.87.535H27.3V92.29h.24c.27 0 .5-.24.5-.534 0-.295-.23-.534-.5-.534h-.3c-.19-2.57-2.11-4.63-4.52-4.853v-3.74c0-.3-.23-.54-.5-.54h-2.77c-.28 0-.5.24-.5.53v2.3c0 .29.23.53.51.53h2.27v.91c-2.35.28-4.2 2.31-4.38 4.83h-.43c-.28 0-.5.24-.5.53 0 .29.22.53.5.53h.34v.8l-1.11-.36c-.09-.03-.19-.04-.28-.01l-1.71.48-2.24.3c-.09.01-.18.05-.25.11l-1.52 1.28-2.05.42c-.13.03-.24.11-.32.22l-.76 1.17-1.754.55-.17.09-1.47 1.25c-.09.08-.15.19-.17.32h-1c-.278 0-.503.24-.503.53 0 .29.225.53.502.53h11.56v1.54c-.224.04-.38.11-.518.16-.178.08-.306.13-.604.13-.3 0-.43-.05-.61-.127-.22-.09-.48-.2-.97-.2s-.76.11-.97.2c-.18.075-.31.13-.61.13s-.43-.05-.61-.124c-.21-.09-.48-.2-.97-.2s-.76.11-.97.2c-.18.074-.31.127-.61.127s-.43-.05-.6-.124c-.22-.09-.48-.2-.97-.2s-.75.11-.97.2c-.18.07-.31.125-.61.125-.276 0-.5.24-.5.533 0 .29.225.53.5.53.49 0 .755-.11.97-.2.18-.075.304-.13.602-.13s.424.05.6.127c.215.09.48.2.97.2s.756-.11.97-.2c.18-.07.306-.124.604-.124s.422.05.6.123c.21.09.48.2.96.2s.76-.11.97-.2c.18-.073.304-.13.6-.13s.427.05.604.13c.21.09.48.2.96.2s.753-.11.97-.2l.15-.06v1.99l-.15-.06c-.21-.09-.48-.2-.965-.2s-.76.11-.97.2c-.18.07-.31.127-.608.127-.3 0-.43-.053-.608-.127-.214-.09-.48-.2-.97-.2s-.755.11-.97.2c-.176.076-.304.13-.6.13-.3 0-.43-.054-.606-.13-.21-.09-.48-.2-.967-.2s-.75.11-.97.2c-.174.076-.3.13-.6.13s-.43-.054-.605-.13c-.22-.09-.48-.2-.97-.2s-.76.11-.97.2c-.18.077-.31.13-.607.13-.28 0-.5.24-.5.53 0 .3.22.538.5.538.487 0 .754-.11.97-.2.175-.076.3-.13.6-.13s.42.06.6.13c.215.09.48.2.97.2s.75-.11.967-.2c.17-.07.3-.13.6-.13s.42.06.6.13c.21.09.48.2.97.2.48 0 .75-.11.962-.2.173-.07.3-.126.6-.126s.43.054.603.13c.22.09.48.2.97.2s.76-.11.97-.2c.18-.07.31-.126.6-.126s.43.05.61.126c.134.06.29.12.514.16v2.2H1.04c-.55 0-1 .48-1 1.07s.45 1.07 1 1.07h29.868c.554 0 1.003-.48 1.003-1.07 0-.59-.45-1.07-1-1.07zm-4.115-.21h-.508v-2.19c0-2.33-1.78-4.23-3.97-4.23-2.19 0-3.97 1.9-3.97 4.23v2.19h-.51v-2.19c0-2.63 2-4.76 4.47-4.76s4.47 2.14 4.47 4.77v2.2zm-1.51 0h-5.93v-2.19c0-1.74 1.33-3.16 2.965-3.16 1.636 0 2.967 1.42 2.967 3.16v2.19zm3.3 0h-.79v-2.19c0-3.22-2.458-5.837-5.48-5.837-3.02 0-5.476 2.62-5.476 5.835v2.19H16V97.53h1.21v1.27h1v-1.267h.87V98.8h1v-1.267h.87V98.8h1v-1.267h.87V98.8h1v-1.267h.87V98.8h1.01v-1.267h.87V98.8h1.01v-1.267h.97v10.153zM5.44 98.42l.223-.19 1.357-.426.47-.15.185-.107.088-.1.75-1.144 1.966-.405c.08-.016.15-.05.21-.105l1.51-1.263 2.13-.284.06-.01 1.61-.45.71.236.56.186v2.257h-1.39c-.17-.32-.49-.536-.87-.536-.55 0-1 .48-1 1.07v1.9H4.89l.56-.48zm16.53-9.92l.34-.02.34.02c.21.53.423 1.434.46 2.717h-1.594c.04-1.28.25-2.187.46-2.717zm4.34 7.963h-.793v-2.21c-.02-.43-.354-.775-.764-.775-.41 0-.745.344-.764.776v2.208h-.91v-2.21c-.02-.43-.35-.775-.76-.775-.41 0-.75.343-.77.775v2.208h-.9v-2.21c-.02-.43-.36-.775-.77-.775-.41 0-.75.344-.77.776v2.21h-.85v-4.17h8.03v4.18zm-1.06-5.245h-1.14c-.023-.797-.116-1.597-.282-2.29.757.484 1.295 1.318 1.417 2.29zm-5.276-8.055h1.767V84.4h-1.76v-1.234zm.82 5.765c-.165.693-.258 1.493-.282 2.29h-1.13c.122-.972.66-1.806 1.418-2.29z" fill="#fff"/><path d="M7.517 44.048c.267-.24.646-.244.917-.036l.006.015c.082.188.26.31.455.31h.057c.195 0 .372-.12.455-.31l.006-.015c.27-.208.65-.203.916.036.21.19.52.16.7-.066.18-.226.15-.563-.06-.753-.6-.54-1.43-.57-2.05-.16-.63-.42-1.46-.38-2.05.15-.21.19-.24.52-.06.75.17.22.49.25.7.06m2.89 2.38c.17.22.49.25.7.06.26-.24.64-.25.91-.04v.01c.08.18.26.3.45.3h.06c.19 0 .37-.12.45-.31l.01-.02c.27-.21.65-.2.91.04.21.19.53.16.71-.07.17-.23.15-.56-.07-.75-.59-.53-1.42-.57-2.05-.16-.62-.415-1.458-.378-2.05.154-.21.19-.24.53-.06.753m-8.78 6.3h3.7c.266 0 .524-.108.725-.297.237-.22.373-.54.373-.88v-.1h1.74c.308 0 .605-.12.836-.332.27-.255.43-.62.43-1.01 0-.384-.158-.75-.43-1.01-.23-.214-.528-.334-.835-.334H2.97c-.696 0-1.263.6-1.263 1.343l.028.273h-.11c-.61 0-1.1.525-1.1 1.17 0 .645.49 1.17 1.1 1.17zm0-1.276h1.35c.278 0 .5-.24.5-.537 0-.29-.223-.53-.5-.53-.14 0-.26-.124-.26-.28 0-.15.12-.275.26-.275H8.1c.08 0 .14.04.175.07.03.03.09.1.09.21 0 .103-.06.17-.09.203-.036.03-.09.07-.17.07H5.29c-.276 0-.5.24-.5.534 0 .3.224.535.5.535h.01l.063.03.033.075-.033.074-.063.025H1.634c-.053 0-.095-.047-.095-.1 0-.06.04-.105.09-.105zM30.9 67.9h-.315V57c0-.59-.45-1.07-1.003-1.07-.37 0-.694.216-.868.535H27.32V52.29h.242c.277 0 .502-.24.502-.534 0-.295-.225-.534-.502-.534h-.297c-.19-2.57-2.112-4.63-4.52-4.853v-3.74c0-.3-.225-.54-.502-.54h-2.77c-.277 0-.502.24-.502.53v2.3c0 .29.23.53.51.53h2.27v.91c-2.34.28-4.19 2.31-4.38 4.83h-.42c-.27 0-.5.24-.5.53 0 .29.23.53.5.53h.35v.8l-1.11-.37c-.09-.03-.18-.04-.27-.01l-1.71.48-2.23.3c-.09.01-.17.05-.25.11l-1.51 1.28-2.05.42c-.13.03-.24.11-.31.22l-.76 1.17-1.75.55-.17.09-1.47 1.25c-.09.08-.15.19-.17.32H2.46c-.277 0-.502.24-.502.53 0 .292.225.53.502.53h11.56v1.54c-.223.04-.38.11-.517.16-.178.08-.306.13-.604.13-.3 0-.43-.05-.61-.125-.22-.09-.48-.2-.97-.2s-.76.11-.97.2c-.18.074-.31.13-.61.13s-.43-.05-.61-.12c-.21-.09-.48-.2-.97-.2s-.76.11-.97.2c-.18.08-.31.13-.61.13s-.43-.05-.6-.125c-.22-.09-.48-.2-.97-.2s-.75.11-.97.2c-.18.076-.31.13-.61.13-.28 0-.5.24-.5.536 0 .3.22.538.5.538.49 0 .75-.11.97-.2.18-.073.3-.126.6-.126s.42.05.6.12c.212.09.48.2.97.2s.753-.11.97-.2c.18-.07.303-.125.6-.125s.426.054.603.13c.21.09.48.2.962.2s.76-.11.97-.2c.18-.078.302-.13.6-.13s.425.05.602.124c.21.09.48.2.96.2s.75-.11.97-.2l.15-.06v1.99l-.15-.06c-.21-.09-.48-.2-.967-.2s-.76.11-.97.2c-.18.072-.31.125-.607.125-.3 0-.43-.057-.608-.13-.213-.09-.48-.2-.97-.2s-.754.11-.97.2c-.175.073-.303.13-.6.13-.3 0-.43-.06-.605-.13-.21-.09-.48-.2-.965-.2s-.75.11-.97.2c-.174.07-.3.13-.6.13s-.43-.06-.605-.13c-.22-.09-.48-.2-.97-.2s-.76.11-.97.2c-.18.07-.31.13-.606.13-.28 0-.5.24-.5.53 0 .292.22.53.5.53.485 0 .752-.11.97-.2.173-.076.3-.13.6-.13s.42.054.6.13c.213.09.48.2.97.2s.75-.11.965-.2c.17-.076.3-.13.6-.13s.42.055.6.13c.21.09.48.2.97.2.48 0 .75-.11.962-.2.175-.075.303-.13.6-.13.3 0 .43.054.605.128.22.09.48.2.97.2s.76-.11.97-.2c.18-.07.31-.12.6-.12s.43.05.61.13c.133.052.29.12.513.16v2.2H1.04c-.55 0-1 .48-1 1.07S.49 70 1.04 70h29.868c.554 0 1.003-.48 1.003-1.07 0-.59-.45-1.07-1-1.07zm-4.115-.21h-.505v-2.193c0-2.332-1.78-4.23-3.97-4.23-2.187 0-3.968 1.898-3.968 4.23v2.192h-.505v-2.2c0-2.63 2-4.77 4.47-4.77s4.47 2.13 4.47 4.76v2.19zm-1.508 0h-5.94v-2.193c0-1.742 1.33-3.16 2.965-3.16 1.635 0 2.966 1.418 2.966 3.16v2.192zm3.3 0h-.79v-2.193c0-3.218-2.46-5.836-5.48-5.836-3.02 0-5.48 2.62-5.48 5.84v2.19h-.816V57.54h1.22v1.267h1.01V57.54h.87v1.267h1V57.54h.87v1.267h1.01V57.54h.87v1.267h1.01V57.54h.87v1.267h1.01V57.54h.87v1.267h1V57.54h.97v10.15zM5.45 58.427l.224-.192 1.358-.426.47-.15.183-.11.087-.1.748-1.15 1.968-.41c.08-.02.153-.05.216-.11l1.502-1.26 2.13-.29.065-.02 1.61-.45.72.23.57.18v2.26h-1.4c-.17-.32-.49-.54-.87-.54-.55 0-1 .48-1 1.07v1.91H4.89l.56-.48zm16.525-9.922l.338-.02.338.02c.21.53.43 1.433.46 2.716h-1.59c.04-1.28.25-2.18.46-2.71zm4.34 7.962h-.795v-2.21c-.02-.43-.353-.775-.763-.775-.41 0-.745.344-.764.776v2.208h-.902v-2.21c-.01-.43-.35-.775-.76-.775-.41 0-.74.35-.76.78v2.21h-.9v-2.21c-.02-.43-.35-.77-.76-.77-.41 0-.74.35-.76.78v2.21h-.85V52.3h8.03v4.175zM25.25 51.22h-1.14c-.024-.797-.117-1.597-.283-2.29.757.484 1.295 1.318 1.417 2.29zm-5.277-8.055h1.767V44.4h-1.766v-1.234zm.82 5.765c-.165.693-.258 1.493-.282 2.29h-1.13c.13-.972.66-1.806 1.42-2.29z" fill="#67737B"/><path d="M7.517 4.048c.267-.24.646-.244.917-.036l.006.015c.082.188.26.31.455.31h.057c.195 0 .372-.12.455-.31l.006-.015c.27-.208.65-.203.916.036.21.19.52.16.7-.066.18-.226.15-.563-.06-.753-.6-.54-1.43-.57-2.05-.16-.63-.42-1.46-.38-2.05.15-.21.19-.24.52-.06.75.17.22.49.25.7.06m2.89 2.39c.17.22.49.25.7.06.26-.24.64-.25.91-.04v.01c.08.19.26.31.45.31h.05c.19 0 .37-.12.45-.31l.01-.02c.27-.21.65-.2.91.03.21.19.53.16.7-.07.18-.23.15-.57-.06-.76-.6-.53-1.43-.57-2.05-.157-.63-.418-1.46-.38-2.05.15-.21.19-.24.53-.06.754M1.6 12.7h3.7c.266 0 .524-.106.725-.295.237-.226.373-.546.373-.88l-.005-.1h1.742c.307 0 .604-.12.835-.34.272-.26.43-.63.43-1.01 0-.39-.157-.76-.43-1.01-.23-.22-.527-.34-.834-.34h-5.16c-.697 0-1.264.6-1.264 1.34l.027.274h-.11c-.61 0-1.1.52-1.1 1.17 0 .64.49 1.17 1.1 1.17zm0-1.274h1.35c.275 0 .5-.24.5-.534 0-.294-.226-.533-.503-.533-.143 0-.26-.13-.26-.28 0-.16.12-.28.26-.28h5.16c.08 0 .14.04.173.07.035.03.09.1.09.2 0 .11-.055.18-.09.21-.032.03-.09.07-.17.07H5.3c-.277 0-.502.24-.502.53 0 .29.225.53.502.53l.063.02.033.075-.033.072-.063.023H1.634c-.053 0-.095-.046-.095-.1 0-.06.04-.104.09-.104zm29.28 16.45h-.32V17c0-.59-.45-1.07-1-1.07-.37 0-.696.216-.87.535H27.3V12.29h.24c.278 0 .5-.24.5-.534 0-.295-.222-.534-.5-.534h-.296c-.19-2.57-2.114-4.63-4.52-4.853V2.63c0-.295-.227-.534-.504-.534h-2.77c-.274 0-.5.24-.5.534v2.303c0 .295.23.534.51.534h2.27v.913c-2.34.287-4.19 2.317-4.38 4.838h-.42c-.27 0-.5.24-.5.535 0 .295.23.534.5.534h.35v.8l-1.114-.368c-.09-.03-.184-.04-.275-.01l-1.71.48-2.23.3c-.09.01-.17.05-.25.11l-1.51 1.27-2.04.42c-.13.02-.24.1-.31.22l-.76 1.16-1.75.55-.17.09-1.47 1.25c-.1.08-.158.19-.18.32H2.46c-.277 0-.502.24-.502.53 0 .29.225.53.502.53h11.56v1.54c-.223.04-.38.1-.517.16-.178.07-.306.12-.604.12-.3 0-.43-.05-.61-.13-.22-.09-.48-.2-.97-.2s-.76.11-.97.2c-.18.08-.31.13-.61.13s-.43-.05-.61-.13c-.21-.09-.48-.2-.97-.2s-.76.11-.97.2c-.18.074-.31.13-.61.13s-.43-.055-.6-.13c-.22-.09-.48-.2-.97-.2s-.75.11-.97.2c-.18.073-.31.126-.61.126-.28 0-.5.24-.5.533 0 .3.22.54.5.54.49 0 .75-.11.97-.2.18-.07.3-.125.6-.125s.42.05.6.122c.212.09.48.2.97.2s.753-.11.97-.2c.18-.07.303-.128.6-.128s.426.053.603.13c.21.09.48.2.962.2s.76-.11.97-.2c.18-.076.302-.13.6-.13s.425.05.602.13c.21.09.48.2.96.2s.75-.11.97-.2l.15-.06v1.99l-.15-.06c-.21-.09-.48-.2-.967-.2s-.76.11-.97.2c-.18.07-.31.12-.607.12-.3 0-.43-.05-.608-.12-.213-.09-.48-.2-.97-.2s-.754.11-.97.2c-.175.075-.303.13-.6.13-.3 0-.43-.055-.605-.13-.21-.09-.48-.2-.965-.2s-.75.11-.97.2c-.174.075-.3.13-.6.13s-.43-.05-.605-.127c-.22-.09-.48-.2-.97-.2s-.76.11-.97.2c-.18.074-.31.127-.606.127-.28 0-.5.24-.5.538 0 .293.22.532.5.532.485 0 .752-.11.97-.2.173-.077.3-.13.6-.13s.42.054.6.13c.213.09.48.2.97.2s.75-.11.965-.2c.17-.076.3-.13.6-.13s.42.056.6.13c.21.09.48.2.97.2.48 0 .75-.11.962-.2.175-.07.303-.124.6-.124.3 0 .43.052.605.13.22.09.48.2.97.2s.76-.11.97-.2c.18-.077.31-.13.6-.13s.43.05.61.123c.133.06.29.12.513.16v2.2H1.04c-.55 0-1 .48-1 1.07S.49 30 1.04 30h29.868c.554 0 1.003-.478 1.003-1.07 0-.59-.45-1.068-1-1.068zm-4.12-.21h-.504V25.5c0-2.332-1.78-4.23-3.97-4.23-2.184 0-3.965 1.898-3.965 4.23v2.192h-.5v-2.2c0-2.63 2-4.77 4.47-4.77s4.47 2.138 4.47 4.767v2.19zm-1.507 0h-5.94V25.5c0-1.742 1.33-3.16 2.963-3.16 1.637 0 2.968 1.418 2.968 3.16v2.192zm3.3 0h-.79V25.5c0-3.218-2.46-5.836-5.48-5.836-3.02 0-5.48 2.62-5.48 5.84v2.19H16V17.54h1.217v1.267h1.003V17.54h.87v1.267h1.01V17.54h.87v1.267h1.004V17.54h.87v1.267h1.004V17.54h.874v1.267h1.003V17.54h.87v1.267H27.6V17.54h.97v10.15zm-23.12-9.26l.224-.19 1.36-.427.47-.15.182-.11.08-.1.74-1.15 1.97-.41c.08-.02.15-.05.21-.11l1.502-1.26 2.13-.29.066-.01 1.61-.45.72.23.57.19v2.26h-1.4c-.17-.32-.494-.54-.87-.54-.55 0-1 .48-1 1.07v1.91H4.89l.56-.48zM21.973 8.5l.34-.02.34.02c.21.53.43 1.433.46 2.716h-1.59c.04-1.28.25-2.18.46-2.71zm4.34 7.96h-.795v-2.21c-.02-.43-.353-.773-.763-.773-.41 0-.745.345-.764.777v2.208h-.9v-2.21c-.01-.43-.35-.775-.76-.775-.41 0-.74.35-.76.78v2.21h-.9v-2.21c-.02-.43-.35-.77-.76-.77-.41 0-.74.35-.76.78v2.21h-.85V12.3h8.03v4.175zm-1.063-5.24h-1.14c-.024-.797-.117-1.597-.283-2.29.757.484 1.295 1.318 1.417 2.29zm-5.277-8.055h1.767V4.4h-1.766V3.166zm.82 5.765c-.165.693-.258 1.493-.282 2.29h-1.13c.13-.972.66-1.806 1.42-2.29z" fill="#3A434E"/></g></svg>