<svg width="32" height="232" viewBox="0 0 32 232" xmlns="http://www.w3.org/2000/svg"><g fill="none"><path d="M21.744 126.377h3.45c.25 0 .493-.103.683-.29.223-.22.35-.538.35-.87l-.004-.102h1.64c.288 0 .567-.12.784-.334.256-.25.404-.61.404-1s-.14-.75-.4-1c-.21-.21-.49-.33-.78-.33h-4.86c-.65 0-1.19.6-1.19 1.34l.03.28h-.1c-.57 0-1.03.52-1.03 1.16 0 .64.47 1.16 1.04 1.16zm0-1.263h1.264c.26 0 .472-.237.472-.53h-.002c0-.293-.21-.53-.472-.53-.135 0-.245-.123-.245-.275 0-.16.11-.28.25-.28h4.86c.08 0 .13.03.17.07.03.03.09.1.09.2s-.05.17-.08.2-.09.07-.16.07H25.2c-.263 0-.474.23-.474.53 0 .29.21.53.472.53h.002l.06.02.03.07-.03.07-.06.02h-3.45c-.05 0-.09-.05-.09-.1 0-.06.04-.11.09-.11zm9.562 19.24l-4.334-1.324-.247-.037h-6.68c-.14 0-.28.036-.408.104l-3.27 1.76-.065.04-1.28.833c-.184-.286-.435-1.187-.435-2.23 0-.558.333-1.645.71-2.615.4-.013.634-.113.822-.196.16-.08.28-.13.56-.13s.4.05.57.12c.2.09.45.2.91.2s.71-.11.91-.2c.16-.07.28-.13.57-.13.28 0 .4.05.57.12.2.09.45.2.91.2s.71-.11.91-.2c.16-.07.28-.13.57-.13.28 0 .4.05.57.12.2.09.45.2.91.2s.71-.11.91-.2c.17-.07.29-.13.57-.13.26 0 .47-.24.47-.53 0-.3-.21-.53-.47-.53-.46 0-.71.11-.91.2-.17.07-.29.12-.57.12-.28 0-.4-.06-.57-.13-.2-.09-.45-.2-.91-.2s-.71.11-.91.2c-.17.07-.29.12-.57.12-.28 0-.4-.058-.57-.13-.2-.09-.45-.2-.91-.2s-.71.11-.91.2c-.17.07-.29.124-.57.124-.28 0-.4-.05-.57-.125-.21-.09-.46-.2-.91-.2-.29 0-.49.044-.65.096.85-1.02 2.34-2.28 2.75-2.29.44 0 .85-.237 1.18-.56h10.38c.26 0 .47-.24.47-.53 0-.296-.21-.53-.48-.53h-3.88l-3.74-2.846-.15-.07-1.42-.414-.02-.166-.93-3.3-.1-.2-2.74-3.37-.02-.02-2.08-2.28c-.17-.19-.44-.2-.63-.03l-2.17 1.98-2.53.19c-.08.004-.16.034-.23.083l-2.2 1.62-2.4-1.547c-.166-.108-.37-.09-.52.04l-3.244 2.76c-.21.17-.25.503-.09.74.16.23.454.28.66.1l2.996-2.548 3.206 2.05 2.63 4.72c.07.122.184.21.314.24l1.8.38c.073.012.152.01.23-.02l4.154-1.484 4.993 1.47 2.52 1.91H20.6c.042-.14.065-.26.065-.37 0-.52-.49-.81-.92-.99l-.43-.17c-.19-.32-.66-.63-1.78-.63-1.16 0-1.82.48-2.4.904-.56.41-1.045.766-2.01.766-.78 0-1.1.14-1.44.285-.14.06-.29.125-.504.19H.81c-.26 0-.47.233-.47.53 0 .29.21.53.47.53h5.11c-.702.52-1.32 1.29-1.833 2.3-.81 1.59-1.296 3.7-1.296 5.64 0 .57-.35 1.08-.66 1.53-.25.37-.49.72-.54 1.11H.92c-.52 0-.943.47-.943 1.06S.4 149.4.92 149.4h11c.13 0 .25-.03.36-.08l3-1.37.12-.065 1.82-1.19 3.04-1.635h6.34l4.21 1.286c.51.155 1.03-.18 1.16-.744.14-.567-.16-1.15-.66-1.303zm-13.92-13.115c-.085-.03-.176-.03-.26 0l-4.176 1.49-1.478-.31-2.586-4.64c-.04-.08-.098-.14-.166-.18l-.254-.16 1.688-1.24 1.662-.13-1 1.93c-.13.25-.054.58.17.72.076.05.157.07.238.07.163 0 .32-.1.408-.27l1.404-2.71 1.89-1.73 1.773 1.95 2.66 3.27.76 2.72-2.74-.81zm-14.51 15.63c.362-.53.858-1.26.858-2.19 0-3.1 1.458-7.69 4.586-7.69 2.562 0 3.213-.28 3.736-.51.298-.13.495-.22 1.102-.22 1.244 0 1.924-.5 2.525-.94.54-.4 1.004-.74 1.887-.74.527 0 .846.09.965.15.046.17.17.31.335.36.31.09.647.23.83.33-.142.3-.525.8-.907.8-1.064 0-3.702 2.61-4.166 3.72-.23.55-.984 2.44-.984 3.53 0 .02.01 1.73.54 2.71l-.667.3c-.652-.56-1.064-1.84-1.198-3.72l-.01-.36v-.02l-.043-1.45c-.008-.3-.226-.53-.487-.52-.26.01-.465.255-.456.55l.032 1.11c-1.266.64-2.36.53-3.33.435-.335-.03-.653-.06-.962-.06-.728 0-1.426.72-2.073 2.133-.42.92-.78 2.08-.78 2.534l.01.165H2.58c.075-.14.2-.327.296-.465zm4.758.46c-.12-.31-.31-1.2-.22-3.76l.528.04c.273.02.563.05.87.07-.225.75-.45 1.82-.186 2.46.113.27.302.46.547.55.31.1.517.42.59.63H7.636zm-2.206 0l-.097-.07-.17-.12c.02-.23.26-1.14.68-2.06.22-.48.43-.83.62-1.07-.04 1.68.05 2.68.19 3.31H5.43zm6.308 0h-1.01c-.068-.69-.597-1.4-1.25-1.64-.086-.21.01-1.04.345-2.04.5-.06 1.03-.18 1.59-.42.16 1.69.55 2.93 1.15 3.71l-.82.37z" fill="#206FAC"/><path d="M21.744 86.377h3.45c.25 0 .493-.103.683-.29.223-.22.35-.538.35-.87l-.004-.102h1.64c.288 0 .567-.12.784-.334.256-.25.404-.61.404-1s-.14-.75-.4-1c-.21-.21-.49-.33-.78-.33h-4.86c-.65 0-1.19.6-1.19 1.34l.03.28h-.1c-.57 0-1.03.52-1.03 1.16 0 .64.47 1.16 1.04 1.16zm0-1.263h1.264c.26 0 .472-.237.472-.53h-.002c0-.293-.21-.53-.472-.53-.135 0-.245-.123-.245-.275 0-.16.11-.28.25-.28h4.86c.08 0 .13.03.17.07.03.03.09.1.09.2s-.05.17-.08.2-.09.07-.16.07H25.2c-.263 0-.474.23-.474.53 0 .29.21.53.472.53h.002l.06.02.03.07-.03.07-.06.02h-3.45c-.05 0-.09-.05-.09-.1 0-.06.04-.11.09-.11zm9.562 19.24l-4.334-1.324-.247-.037h-6.68c-.14 0-.28.036-.408.104l-3.27 1.76-.065.04-1.28.833c-.184-.286-.435-1.187-.435-2.23 0-.558.333-1.645.71-2.615.4-.013.634-.113.822-.196.16-.08.28-.13.56-.13s.4.05.57.12c.2.09.45.2.91.2s.71-.11.91-.2c.16-.07.28-.13.57-.13.28 0 .4.05.57.12.2.09.45.2.91.2s.71-.11.91-.2c.16-.07.28-.13.57-.13.28 0 .4.05.57.12.2.09.45.2.91.2s.71-.11.91-.2c.17-.07.29-.13.57-.13.26 0 .47-.24.47-.53 0-.3-.21-.53-.47-.53-.46 0-.71.11-.91.2-.17.07-.29.12-.57.12-.28 0-.4-.06-.57-.13-.2-.09-.45-.2-.91-.2s-.71.11-.91.2c-.17.07-.29.12-.57.12-.28 0-.4-.058-.57-.13-.2-.09-.45-.2-.91-.2s-.71.11-.91.2c-.17.07-.29.124-.57.124-.28 0-.4-.05-.57-.125-.21-.09-.46-.2-.91-.2-.29 0-.49.044-.65.096.85-1.02 2.34-2.28 2.75-2.29.44 0 .85-.237 1.18-.56h10.38c.26 0 .47-.24.47-.53 0-.296-.21-.53-.48-.53h-3.88l-3.74-2.84-.14-.07-1.42-.417-.02-.164-.93-3.296-.1-.2-2.74-3.37-.02-.02-2.08-2.3c-.18-.19-.45-.2-.63-.03l-2.17 1.98-2.53.2c-.08.01-.16.04-.23.09l-2.19 1.63-2.4-1.545c-.17-.106-.37-.09-.52.037L1.37 88.1c-.21.178-.25.51-.09.744.157.233.453.28.66.103l3-2.546 3.202 2.06 2.633 4.72c.07.13.183.21.313.24l1.8.38c.08.02.16.01.23-.01l4.16-1.48 5 1.47 2.52 1.91h-4.16c.04-.13.07-.26.07-.36 0-.53-.49-.81-.92-.99l-.43-.17c-.19-.32-.66-.63-1.78-.63-1.166 0-1.82.48-2.4.9-.56.41-1.046.76-2.01.76-.78 0-1.1.14-1.44.287-.14.06-.29.127-.5.188H.81c-.26 0-.47.24-.47.53 0 .3.21.53.47.53h5.11c-.702.53-1.32 1.3-1.833 2.3-.81 1.59-1.296 3.7-1.296 5.64 0 .57-.35 1.09-.66 1.54-.25.37-.49.72-.54 1.11H.92c-.52 0-.943.47-.943 1.06s.423 1.06.944 1.06h11c.13 0 .25-.03.36-.08l3-1.37.12-.06 1.82-1.19 3.04-1.64h6.34l4.21 1.29c.51.152 1.03-.18 1.16-.747.14-.57-.16-1.15-.66-1.3zM17.386 91.24c-.085-.028-.176-.025-.26.006l-4.176 1.49-1.478-.312-2.586-4.637c-.04-.074-.098-.136-.166-.18l-.254-.162 1.688-1.242 1.662-.13-1 1.93c-.13.254-.054.58.17.726.076.05.157.07.238.07.163 0 .32-.1.408-.27l1.404-2.71 1.89-1.73 1.774 1.96 2.66 3.27.763 2.72-2.736-.81zm-14.51 15.63c.362-.53.858-1.254.858-2.186 0-3.1 1.458-7.688 4.586-7.688 2.562 0 3.213-.282 3.736-.51.298-.128.495-.214 1.102-.214 1.244 0 1.924-.498 2.525-.938.54-.394 1.004-.735 1.887-.735.527 0 .846.09.965.15.046.17.17.31.335.36.31.09.647.23.83.33-.142.3-.525.8-.907.8-1.064 0-3.702 2.61-4.166 3.72-.23.55-.984 2.43-.984 3.53 0 .02.01 1.73.54 2.71l-.667.3c-.652-.57-1.064-1.84-1.198-3.72l-.01-.36v-.02l-.043-1.45c-.008-.3-.226-.53-.487-.52-.26.01-.465.25-.456.54l.032 1.11c-1.266.64-2.36.53-3.33.44-.335-.04-.653-.07-.962-.07-.728 0-1.426.72-2.073 2.13-.42.91-.78 2.08-.78 2.53l.01.16H2.58c.075-.14.2-.326.296-.46zm4.758.46c-.12-.303-.31-1.195-.22-3.76l.528.045c.273.027.563.055.87.07-.225.757-.45 1.824-.186 2.464.113.27.302.46.547.55.31.1.517.42.59.63H7.636zm-2.206 0l-.097-.064-.17-.12c.02-.232.26-1.136.68-2.054.22-.48.43-.826.62-1.07-.04 1.68.05 2.685.19 3.308H5.43zm6.308 0h-1.01c-.068-.684-.597-1.395-1.25-1.636-.086-.203.01-1.037.345-2.035.5-.06 1.03-.18 1.59-.42.16 1.69.55 2.93 1.15 3.71l-.82.37z" fill="#fff"/><path d="M21.744 46.377h3.45c.25 0 .493-.103.683-.29.223-.22.35-.538.35-.87l-.004-.102h1.64c.288 0 .567-.12.784-.334.256-.25.404-.61.404-1s-.14-.75-.4-1c-.21-.21-.49-.33-.78-.33h-4.86c-.65 0-1.19.6-1.19 1.34l.03.28h-.1c-.57 0-1.03.52-1.03 1.16 0 .64.47 1.16 1.04 1.16zm0-1.263h1.264c.26 0 .472-.237.472-.53h-.002c0-.293-.21-.53-.472-.53-.135 0-.245-.123-.245-.275 0-.16.11-.28.25-.28h4.86c.08 0 .13.03.17.07.03.03.09.1.09.2s-.05.17-.08.2-.09.07-.16.07H25.2c-.263 0-.474.23-.474.53 0 .29.21.53.472.53h.002l.06.02.03.07-.03.07-.06.02h-3.45c-.05 0-.09-.05-.09-.1 0-.06.04-.11.09-.11zm9.562 19.24l-4.334-1.324-.247-.037h-6.68c-.14 0-.28.036-.408.104l-3.27 1.76-.065.04-1.28.833c-.184-.286-.435-1.187-.435-2.23 0-.558.333-1.645.71-2.615.4-.013.634-.113.822-.196.16-.08.28-.13.56-.13s.4.05.57.12c.2.09.45.2.91.2s.71-.11.91-.2c.16-.07.28-.13.57-.13.28 0 .4.05.57.12.2.09.45.2.91.2s.71-.11.91-.2c.16-.07.28-.13.57-.13.28 0 .4.05.57.12.2.09.45.2.91.2s.71-.11.91-.2c.17-.07.29-.13.57-.13.26 0 .47-.24.47-.53 0-.3-.21-.53-.47-.53-.46 0-.71.11-.91.2-.17.07-.29.12-.57.12-.28 0-.4-.06-.57-.13-.2-.09-.45-.2-.91-.2s-.71.11-.91.2c-.17.07-.29.12-.57.12-.28 0-.4-.058-.57-.13-.2-.09-.45-.2-.91-.2s-.71.11-.91.2c-.17.07-.29.124-.57.124-.28 0-.4-.05-.57-.125-.21-.09-.46-.2-.91-.2-.29 0-.49.044-.65.096.85-1.02 2.34-2.28 2.75-2.29.44 0 .85-.237 1.18-.56h10.38c.26 0 .47-.24.47-.53 0-.296-.21-.53-.48-.53h-3.88l-3.74-2.84-.14-.07-1.42-.417-.02-.164-.93-3.296-.1-.2-2.74-3.37-.02-.02-2.08-2.3c-.18-.19-.45-.2-.63-.03l-2.17 1.98-2.53.2c-.08.01-.16.04-.23.09l-2.19 1.63-2.4-1.545c-.17-.106-.37-.09-.52.037L1.37 48.1c-.21.178-.25.51-.09.744.157.233.453.28.66.103l3-2.546 3.202 2.06 2.633 4.72c.07.13.183.21.313.24l1.8.38c.08.02.16.01.23-.01l4.16-1.48 5 1.47 2.52 1.91h-4.16c.04-.13.07-.26.07-.36 0-.53-.49-.81-.92-.99l-.43-.17c-.19-.32-.66-.63-1.78-.63-1.166 0-1.82.48-2.4.9-.56.41-1.046.76-2.01.76-.78 0-1.1.14-1.44.287-.14.06-.29.127-.5.188H.81c-.26 0-.47.24-.47.53 0 .3.21.53.47.53h5.11c-.702.53-1.32 1.3-1.833 2.3-.81 1.59-1.296 3.7-1.296 5.64 0 .57-.35 1.09-.66 1.54-.25.37-.49.72-.54 1.11H.92c-.52 0-.943.47-.943 1.06S.4 69.45.92 69.45h11c.122 0 .242-.028.355-.08l3-1.37.12-.065 1.822-1.19 3.042-1.638h6.34l4.21 1.285c.5.153 1.02-.18 1.16-.746.13-.567-.16-1.15-.67-1.303zM17.386 51.24c-.085-.028-.176-.025-.26.006l-4.176 1.49-1.478-.312-2.586-4.637c-.04-.074-.098-.136-.166-.18l-.254-.162 1.688-1.242 1.662-.13-1 1.93c-.13.254-.054.58.17.726.076.05.157.07.238.07.163 0 .32-.1.408-.27l1.404-2.71 1.89-1.73 1.774 1.96 2.66 3.27.763 2.72-2.736-.81zM2.876 66.87c.363-.53.86-1.253.86-2.185 0-3.1 1.457-7.688 4.585-7.688 2.57 0 3.22-.282 3.74-.51.3-.128.5-.214 1.1-.214 1.25 0 1.93-.498 2.53-.938.54-.394 1.01-.735 1.89-.735.53 0 .85.09.97.15.05.175.17.316.34.364.31.09.65.228.83.335-.14.3-.52.79-.9.79-1.06 0-3.7 2.61-4.16 3.72-.23.55-.98 2.43-.98 3.53 0 .02.01 1.73.54 2.71l-.67.3c-.65-.57-1.06-1.84-1.2-3.72l-.01-.36v-.02l-.04-1.45c-.01-.29-.22-.52-.49-.51-.26.01-.46.25-.45.54l.04 1.11c-1.26.64-2.36.53-3.33.43-.33-.04-.65-.07-.96-.07-.73 0-1.42.71-2.07 2.13-.42.92-.77 2.08-.77 2.53l.01.16H2.59c.074-.14.2-.325.295-.46zm4.76.46c-.12-.302-.31-1.194-.22-3.76l.527.046c.273.027.563.055.87.07-.225.757-.45 1.824-.186 2.464.113.273.302.463.547.55.31.108.517.42.59.63H7.636zm-2.207 0l-.1-.063-.17-.12c.02-.232.25-1.136.68-2.054.22-.48.43-.826.61-1.07-.04 1.68.05 2.685.19 3.308H5.43zm6.3 0h-1.01c-.07-.683-.6-1.394-1.25-1.635-.09-.203.01-1.037.34-2.035.49-.052 1.02-.172 1.58-.414.15 1.69.54 2.93 1.15 3.71l-.83.376z" fill="#67737B"/><path d="M21.744 6.377h3.45c.25 0 .493-.103.683-.29.223-.22.35-.538.35-.87l-.004-.102h1.64c.288 0 .567-.12.784-.334.256-.25.404-.61.404-1s-.14-.75-.4-1c-.21-.21-.49-.33-.78-.33h-4.86c-.65 0-1.19.6-1.19 1.34l.03.28h-.1c-.57 0-1.03.52-1.03 1.16 0 .64.47 1.16 1.04 1.16zm0-1.263h1.264c.26 0 .472-.237.472-.53h-.002c0-.293-.21-.53-.472-.53-.135 0-.245-.123-.245-.275 0-.16.11-.28.25-.28h4.86c.08 0 .13.03.17.07.03.03.09.1.09.2s-.05.17-.08.2-.09.07-.16.07H25.2c-.263 0-.474.23-.474.53 0 .29.21.53.472.53h.002l.06.02.03.07-.03.07-.06.02h-3.45c-.05 0-.09-.05-.09-.1 0-.06.04-.11.09-.11zm9.562 19.24l-4.334-1.324-.247-.037h-6.68c-.14 0-.28.036-.408.104l-3.27 1.76-.065.04-1.28.833c-.184-.286-.435-1.187-.435-2.23 0-.558.333-1.645.71-2.615.4-.013.634-.113.822-.196.16-.08.28-.13.56-.13s.4.05.57.12c.2.09.45.2.91.2s.71-.11.91-.2c.16-.07.28-.13.57-.13.28 0 .4.05.57.12.2.09.45.2.91.2s.71-.11.91-.2c.16-.07.28-.13.57-.13.28 0 .4.05.57.12.2.09.45.2.91.2s.71-.11.91-.2c.17-.07.29-.13.57-.13.26 0 .47-.24.47-.53 0-.3-.21-.53-.47-.53-.46 0-.71.11-.91.2-.17.07-.29.12-.57.12-.28 0-.4-.06-.57-.13-.2-.09-.45-.2-.91-.2s-.71.11-.91.2c-.17.07-.29.12-.57.12-.28 0-.4-.058-.57-.13-.2-.09-.45-.2-.91-.2s-.71.11-.91.2c-.17.07-.29.124-.57.124-.28 0-.4-.05-.57-.125-.21-.09-.46-.2-.91-.2-.29 0-.49.044-.65.096.85-1.02 2.34-2.28 2.75-2.29.44 0 .85-.237 1.18-.56h10.38c.26 0 .47-.24.47-.53 0-.296-.21-.53-.48-.53h-3.88l-3.74-2.84-.14-.07-1.42-.417-.02-.164-.93-3.296-.1-.2-2.74-3.37-.02-.02-2.08-2.3c-.18-.19-.45-.2-.63-.03l-2.17 1.98-2.53.2c-.08.01-.16.04-.23.09L7.53 6.84 5.14 5.3c-.165-.108-.37-.09-.52.04L1.38 8.11c-.21.176-.25.508-.092.742.157.233.453.28.66.103l2.995-2.548 3.202 2.056 2.633 4.72c.07.127.183.213.313.24l1.8.38c.08.017.16.012.23-.015l4.16-1.484 5 1.47 2.52 1.912h-4.16c.04-.134.07-.26.07-.367 0-.53-.49-.81-.92-.99l-.43-.17c-.19-.32-.66-.63-1.77-.63-1.16 0-1.82.48-2.4.9-.56.41-1.04.76-2.01.76-.78 0-1.1.14-1.44.28-.14.06-.29.12-.5.18H.81c-.26 0-.47.24-.47.53 0 .29.21.53.47.53h5.11c-.702.52-1.32 1.29-1.833 2.3-.81 1.59-1.296 3.7-1.296 5.64 0 .57-.35 1.08-.66 1.53-.25.37-.49.72-.54 1.11H.92c-.52 0-.943.47-.943 1.06s.423 1.1.943 1.1h11c.122 0 .242-.03.355-.08l3-1.37.12-.07 1.822-1.19 3.043-1.64h6.34l4.21 1.28c.5.15 1.02-.18 1.16-.75.13-.568-.16-1.15-.67-1.304zM17.386 11.24c-.085-.028-.176-.025-.26.006l-4.176 1.49-1.478-.312-2.586-4.637c-.04-.074-.098-.136-.166-.18l-.254-.162 1.688-1.242 1.662-.13-1 1.93c-.13.254-.054.58.17.726.076.05.157.07.238.07.163 0 .32-.1.408-.27l1.404-2.71 1.89-1.73L16.7 6.05l2.66 3.27.764 2.72-2.736-.803zM2.876 26.87c.363-.53.86-1.253.86-2.185 0-3.1 1.457-7.688 4.585-7.688 2.57 0 3.22-.282 3.74-.51.3-.128.5-.214 1.1-.214 1.25 0 1.93-.498 2.53-.938.54-.394 1.01-.735 1.89-.735.53 0 .85.09.97.15.05.175.17.316.34.364.31.09.65.228.83.335-.14.3-.52.79-.9.79-1.06 0-3.7 2.61-4.16 3.72-.23.55-.98 2.43-.98 3.53 0 .02.01 1.73.54 2.71l-.67.3c-.65-.57-1.06-1.84-1.2-3.72l-.01-.36v-.02l-.04-1.45c-.01-.29-.22-.52-.49-.51-.26.01-.46.25-.45.54l.04 1.11c-1.26.64-2.36.53-3.33.43-.33-.04-.65-.07-.96-.07-.73 0-1.42.71-2.07 2.13-.42.92-.77 2.08-.77 2.53l.01.16H2.59c.074-.14.2-.325.295-.46zm4.76.46c-.12-.302-.31-1.194-.22-3.76l.527.046c.273.027.563.055.87.07-.225.757-.45 1.824-.186 2.464.113.273.302.463.547.55.31.108.517.42.59.63H7.636zm-2.207 0l-.1-.063-.17-.12c.02-.232.25-1.136.68-2.054.22-.48.43-.826.61-1.07-.04 1.68.05 2.685.19 3.308H5.43zm6.3 0h-1.01c-.07-.683-.6-1.394-1.25-1.635-.09-.203.01-1.037.34-2.035.49-.052 1.02-.172 1.58-.414.15 1.69.54 2.93 1.15 3.71l-.83.376z" fill="#3A434E"/></g></svg>