<svg width="32" height="232" viewBox="0 0 32 232" xmlns="http://www.w3.org/2000/svg"><g fill="none">
			<path id="XMLID_193_" fill="#3A444F" d="M24.4,17.9c0.2-0.9,0.2-1.8,0-2.6c0.1,0,0.2,0,0.3,0c0.5,0,1-0.1,1.4-0.4
				c1.2-0.7,1.3-2.5,1.3-2.7c0-0.2-0.1-0.4-0.3-0.4c0,0-1-0.6-2-0.6c-0.4,0-0.7,0.1-1,0.2c-0.6,0.3-1,0.8-1.2,1.3
				c-0.6-0.6-1.4-1-2.2-1.3c0.6-2.8-0.2-3.8-1-4.1c-1.5-0.6-4.2-0.8-4.7,0.1c-0.1,0.3-0.2,0.8,0.6,1.3c0.3,0.2,0.6,0.4,0.9,0.5
				c0.9,0.5,1.3,0.7,1.2,1.8c-1.5,0.1-3.1,0.6-4.5,1.4c-0.8,0.5-1.6,1-2.2,1.7c-1.7-2.3-3-2.3-3.7-1.9c-1.2,0.6-3.1,2.4-2.7,3.4
				C4.7,15.9,5,16.2,5.9,16c0.3-0.1,0.6-0.2,0.9-0.3c1-0.4,1.3-0.5,2.2,0.6c0.1,0.1,0.1,0.1,0.2,0.1C9.1,16.6,9,16.8,8.9,17
				c-0.7,1.5-0.8,3-0.4,4.4c0,0,0,0,0,0c-0.7,0.4-1.2,1.1-1.4,1.9C6.9,24,7,24.8,7.4,25.5c0,0,0,0,0,0c0,0.1,0.1,0.1,0.1,0.2
				c0.1,0.2,0.3,0.3,0.4,0.3c0.1,0,0.2,0,0.2-0.1c0.2-0.1,0.3-0.4,0.2-0.7c0-0.1-0.1-0.1-0.1-0.2c-0.1-0.1-0.1-0.3-0.1-0.3
				c0.1-0.2,0.5-0.4,0.9-0.6c0.2-0.1,0.5-0.2,0.8-0.4c0,0,0.1-0.1,0.1-0.1c1,1,2.5,1.5,4.2,1.6c0.6,1.6,0.3,1.8-0.6,2.5
				c-0.2,0.2-0.5,0.4-0.7,0.6c-0.7,0.6-0.6,1.1-0.4,1.3c0.2,0.3,0.6,0.4,1.1,0.4c1,0,2.4-0.5,3.2-0.9c0.7-0.5,1.4-1.6,0.3-4.2
				c0.9-0.2,1.7-0.6,2.6-1.1c1.5-0.8,2.7-1.9,3.5-3.2c1,0.5,1,0.9,1,1.9c0,0.3,0,0.6,0,1c0,1,0.5,1.2,0.8,1.2c0,0,0,0,0,0
				c1.1,0,2.3-2.6,2.5-4C27.6,20,27.1,18.8,24.4,17.9z M23.9,13.1c0.1-0.3,0.4-0.6,0.8-0.8c0.1-0.1,0.3-0.1,0.5-0.1
				c0.4,0,0.9,0.2,1.2,0.3c-0.1,0.5-0.3,1.3-0.7,1.6c-0.3,0.2-0.6,0.3-1,0.3c-0.4,0-0.7-0.1-0.9-0.4C23.8,13.6,23.9,13.3,23.9,13.1z
				 M23,14.3C23,14.3,23,14.3,23,14.3l-0.7,1.8l-2,0.3l-1.2-1.6l0.7-1.9l1.5-0.2C22,13.1,22.6,13.7,23,14.3z M18.6,20.3l-3,0.4
				l-1.9-2.4l1.1-2.8l3-0.4l1.9,2.4L18.6,20.3z M17.1,8.3c-0.3-0.1-0.5-0.3-0.8-0.5c0,0-0.1,0-0.1-0.1c0.6-0.1,2.1-0.1,3.2,0.4
				c0.9,0.4,0.6,2.1,0.5,2.9c-0.3-0.1-0.7-0.1-1.1-0.1C18.9,9.3,18,8.9,17.1,8.3z M13.7,13.3c1.5-0.8,3.1-1.3,4.6-1.3
				c0.3,0,0.6,0,0.9,0.1c-0.1,0.1-0.2,0.1-0.2,0.3l-0.7,1.8c-0.1,0-0.2,0-0.3,0l-3.3,0.5L13.7,13.3C13.7,13.3,13.7,13.3,13.7,13.3z
				 M12.9,13.8l1.1,1.4l-1.2,3l-2.5,0.4c-0.2,0-0.3,0.1-0.4,0.3l-0.5,1.3c-0.1-0.9,0.1-1.8,0.5-2.8C10.4,16,11.5,14.8,12.9,13.8z
				 M6.4,14.7c-0.2,0.1-0.5,0.2-0.8,0.3c0.3-0.5,1.1-1.4,2.1-1.9c0.9-0.4,2.1,1.2,2.6,1.7c-0.2,0.2-0.4,0.5-0.5,0.7
				C8.4,13.9,7.5,14.3,6.4,14.7z M8.6,23.2c-0.2,0.1-0.4,0.2-0.6,0.3c0.1-0.5,0.4-0.9,0.9-1.2c0,0,0,0,0,0c0.1,0.2,0.2,0.4,0.3,0.5
				C9.1,23,8.9,23.1,8.6,23.2z M9.8,21.9c0,0,0-0.1-0.1-0.1l0.9-2.2l2.3-0.3l1.5,1.9l-0.9,2.3l-1.1,0.5
				C11.3,23.5,10.4,22.8,9.8,21.9z M16.3,28.2c-0.9,0.5-2.1,0.8-2.7,0.8c0,0,0,0,0,0c0.2-0.2,0.4-0.4,0.6-0.5c1-0.8,1.6-1.4,1-3.3
				c0.3,0,0.6-0.1,0.9-0.1C16.4,25.9,17.1,27.7,16.3,28.2z M19.2,23c-1.5,0.8-3.1,1.3-4.6,1.3c-0.2,0-0.3,0-0.5,0l0.1,0
				c0.1-0.1,0.2-0.2,0.3-0.3l0.8-2.1c0.1,0,0.1,0,0.2,0c0,0,0,0,0.1,0l2.9-0.4c0,0,0,0.1,0.1,0.1l0.9,1.3
				C19.3,22.9,19.2,22.9,19.2,23z M20.2,22.3l-0.8-1.2c0,0,0.1-0.1,0.1-0.1l1.3-3.3c0-0.1,0-0.2,0-0.3l1.9-0.3
				c0.2,0,0.3-0.1,0.4-0.3l0.4-1c0.2,1.3-0.1,2.7-0.9,4c0,0,0,0,0,0C22,20.7,21.2,21.6,20.2,22.3z M26.5,20.7
				c-0.2,1.2-0.9,2.5-1.3,2.9c0,0,0-0.1,0-0.1c0-0.3,0-0.6,0-0.9c0-1.1,0.1-2.1-1.4-2.8c0.2-0.3,0.3-0.7,0.4-1
				C25.1,19.1,26.6,19.8,26.5,20.7z"/>
			<path id="XMLID_190_" fill="#3A444F" d="M10.1,8.8c1.2,0,2.3-0.5,3.2-1.4c0.2-0.2,0.2-0.5,0-0.7c-0.8-0.9-2-1.4-3.2-1.4
				S7.8,5.9,7,6.8C6.8,7,6.8,7.3,7,7.4C7.8,8.3,8.9,8.8,10.1,8.8z M10.1,6.4c0.8,0,1.5,0.3,2.1,0.7c-0.6,0.5-1.3,0.7-2.1,0.7
				c-0.8,0-1.5-0.3-2.1-0.7C8.6,6.6,9.4,6.4,10.1,6.4z"/>
			<path id="XMLID_189_" fill="#3A444F" d="M6,8.6L6,8.6c0.3,0,0.5-0.2,0.5-0.5c0-0.2-0.1-0.3-0.2-0.4c0-0.1-0.1-0.3-0.1-0.6
				c0-0.2,0-0.4,0-0.5c0.1-0.1,0.2-0.2,0.2-0.4c0-0.3-0.2-0.5-0.5-0.5C5.6,5.6,5.2,5.9,5.2,7C5.2,8,5.5,8.6,6,8.6z"/>
			<path id="XMLID_186_" fill="#3A444F" d="M23.2,26.9c-0.8,0-1.6,0.3-2.1,0.9c-0.2,0.2-0.2,0.5,0,0.7c0.5,0.6,1.3,0.9,2.1,0.9
				c0.8,0,1.6-0.3,2.1-0.9c0.2-0.2,0.2-0.5,0-0.7C24.7,27.2,24,26.9,23.2,26.9z M23.2,28.4c-0.3,0-0.7-0.1-1-0.3
				c0.3-0.2,0.6-0.3,1-0.3c0.3,0,0.7,0.1,1,0.3C23.8,28.4,23.5,28.4,23.2,28.4z"/>
			<path id="XMLID_185_" fill="#3A444F" d="M20.9,28.4c0-0.1,0-0.2,0-0.3c0-0.1,0-0.2,0-0.2c0.1-0.1,0.1-0.2,0.1-0.4
				c0-0.3-0.2-0.5-0.5-0.5c-0.2,0-0.7,0.1-0.7,1.1c0,1,0.4,1.2,0.7,1.2c0,0,0,0,0,0c0.3,0,0.5-0.2,0.5-0.5
				C21.1,28.6,21,28.5,20.9,28.4z"/>
			<path id="XMLID_184_" fill="#3A444F" d="M24.5,9.1c-0.1-0.1-0.3-0.1-0.5,0c0,0-0.1,0.1-0.1,0.1c-0.1,0.1-0.1,0.2-0.1,0.4
				c0,0.1,0.1,0.3,0.1,0.4c0,0,0.1,0.1,0.1,0.1c0.1,0,0.1,0.1,0.2,0.1c0.1,0,0.2,0,0.2-0.1c0,0,0.1,0,0.1-0.1l0,0l0,0c0,0,0,0,0,0
				l0,0c0.1-0.1,0.1-0.2,0.1-0.3c0-0.2,0-0.3-0.1-0.4C24.6,9.1,24.6,9.1,24.5,9.1z"/>
			<path id="XMLID_183_" fill="#3A444F" d="M25.6,7.5c-0.1-0.1-0.3-0.1-0.5,0c0,0-0.1,0.1-0.1,0.1C25,7.7,24.9,7.8,24.9,8
				c0,0.1,0.1,0.3,0.1,0.4c0,0,0.1,0.1,0.1,0.1c0.1,0,0.1,0.1,0.2,0.1c0.1,0,0.2,0,0.2-0.1c0,0,0.1,0,0.1-0.1l0,0c0,0,0,0,0,0
				c0,0,0,0,0,0l0,0c0.1-0.1,0.1-0.2,0.1-0.3c0-0.2,0-0.3-0.1-0.4C25.7,7.6,25.7,7.5,25.6,7.5z"/>
			<path id="XMLID_182_" fill="#3A444F" d="M23.8,6.2c0,0.1,0.1,0.3,0.1,0.4c0,0,0.1,0.1,0.1,0.1c0.1,0,0.1,0.1,0.2,0.1
				c0.1,0,0.3-0.1,0.4-0.1c0,0,0.1-0.1,0.1-0.2c0.1-0.2,0-0.4-0.1-0.5c0,0-0.1-0.1-0.1-0.1c-0.2-0.1-0.4-0.1-0.6,0.1
				C23.9,6,23.8,6.1,23.8,6.2z"/>
			<path id="XMLID_180_" fill="#3A444F" d="M24.9,5.1c0.1,0.1,0.3,0.2,0.5,0.2c0.2,0,0.3,0,0.4-0.1C26,5,26.1,4.9,26.1,4.7
				c0-0.2,0-0.4-0.1-0.5c0,0,0-0.1-0.1-0.1c-0.1-0.1-0.3-0.2-0.5-0.2c-0.1,0-0.3,0-0.4,0.1c0,0,0,0,0,0C24.7,4.3,24.6,4.7,24.9,5.1
				C24.9,5,24.9,5,24.9,5.1z"/>
			<path id="XMLID_178_" fill="#3A444F" d="M22.5,3.7c0.2,0.2,0.4,0.3,0.7,0.3c0.2,0,0.4-0.1,0.5-0.2c0.2-0.1,0.3-0.3,0.3-0.5
				c0-0.2,0-0.5-0.2-0.7c0,0,0-0.1-0.1-0.1c-0.2-0.2-0.4-0.2-0.6-0.2c-0.2,0-0.4,0.1-0.5,0.2c0,0,0,0,0,0
				C22.3,2.7,22.2,3.2,22.5,3.7C22.5,3.6,22.5,3.6,22.5,3.7z"/>
		</g>
		<g id="XMLID_468_">
			<path id="XMLID_484_" fill="#67737C" d="M24.4,57.9c0.2-0.9,0.2-1.8,0-2.6c0.1,0,0.2,0,0.3,0c0.5,0,1-0.1,1.4-0.4
				c1.2-0.7,1.3-2.5,1.3-2.7c0-0.2-0.1-0.4-0.3-0.4c0,0-1-0.6-2-0.6c-0.4,0-0.7,0.1-1,0.2c-0.6,0.3-1,0.8-1.2,1.3
				c-0.6-0.6-1.4-1-2.2-1.3c0.6-2.8-0.2-3.8-1-4.1c-1.5-0.6-4.2-0.8-4.7,0.1c-0.1,0.3-0.2,0.8,0.6,1.3c0.3,0.2,0.6,0.4,0.9,0.5
				c0.9,0.5,1.3,0.7,1.2,1.8c-1.5,0.1-3.1,0.6-4.5,1.4c-0.8,0.5-1.6,1-2.2,1.7c-1.7-2.3-3-2.3-3.7-1.9c-1.2,0.6-3.1,2.4-2.7,3.4
				C4.7,55.9,5,56.2,5.9,56c0.3-0.1,0.6-0.2,0.9-0.3c1-0.4,1.3-0.5,2.2,0.6c0.1,0.1,0.1,0.1,0.2,0.1C9.1,56.6,9,56.8,8.9,57
				c-0.7,1.5-0.8,3-0.4,4.4c0,0,0,0,0,0c-0.7,0.4-1.2,1.1-1.4,1.9C6.9,64,7,64.8,7.4,65.5c0,0,0,0,0,0c0,0.1,0.1,0.1,0.1,0.2
				c0.1,0.2,0.3,0.3,0.4,0.3c0.1,0,0.2,0,0.2-0.1c0.2-0.1,0.3-0.4,0.2-0.7c0-0.1-0.1-0.1-0.1-0.2c-0.1-0.1-0.1-0.3-0.1-0.3
				c0.1-0.2,0.5-0.4,0.9-0.6c0.2-0.1,0.5-0.2,0.8-0.4c0,0,0.1-0.1,0.1-0.1c1,1,2.5,1.5,4.2,1.6c0.6,1.6,0.3,1.8-0.6,2.5
				c-0.2,0.2-0.5,0.4-0.7,0.6c-0.7,0.6-0.6,1.1-0.4,1.3c0.2,0.3,0.6,0.4,1.1,0.4c1,0,2.4-0.5,3.2-0.9c0.7-0.5,1.4-1.6,0.3-4.2
				c0.9-0.2,1.7-0.6,2.6-1.1c1.5-0.8,2.7-1.9,3.5-3.2c1,0.5,1,0.9,1,1.9c0,0.3,0,0.6,0,1c0,1,0.5,1.2,0.8,1.2c0,0,0,0,0,0
				c1.1,0,2.3-2.6,2.5-4C27.6,60,27.1,58.8,24.4,57.9z M23.9,53.1c0.1-0.3,0.4-0.6,0.8-0.8c0.1-0.1,0.3-0.1,0.5-0.1
				c0.4,0,0.9,0.2,1.2,0.3c-0.1,0.5-0.3,1.3-0.7,1.6c-0.3,0.2-0.6,0.3-1,0.3c-0.4,0-0.7-0.1-0.9-0.4C23.8,53.6,23.9,53.3,23.9,53.1z
				 M23,54.3C23,54.3,23,54.3,23,54.3l-0.7,1.8l-2,0.3l-1.2-1.6l0.7-1.9l1.5-0.2C22,53.1,22.6,53.7,23,54.3z M18.6,60.3l-3,0.4
				l-1.9-2.4l1.1-2.8l3-0.4l1.9,2.4L18.6,60.3z M17.1,48.3c-0.3-0.1-0.5-0.3-0.8-0.5c0,0-0.1,0-0.1-0.1c0.6-0.1,2.1-0.1,3.2,0.4
				c0.9,0.4,0.6,2.1,0.5,2.9c-0.3-0.1-0.7-0.1-1.1-0.1C18.9,49.3,18,48.9,17.1,48.3z M13.7,53.3c1.5-0.8,3.1-1.3,4.6-1.3
				c0.3,0,0.6,0,0.9,0.1c-0.1,0.1-0.2,0.1-0.2,0.3l-0.7,1.8c-0.1,0-0.2,0-0.3,0l-3.3,0.5L13.7,53.3C13.7,53.3,13.7,53.3,13.7,53.3z
				 M12.9,53.8l1.1,1.4l-1.2,3l-2.5,0.4c-0.2,0-0.3,0.1-0.4,0.3l-0.5,1.3c-0.1-0.9,0.1-1.8,0.5-2.8C10.4,56,11.5,54.8,12.9,53.8z
				 M6.4,54.7c-0.2,0.1-0.5,0.2-0.8,0.3c0.3-0.5,1.1-1.4,2.1-1.9c0.9-0.4,2.1,1.2,2.6,1.7c-0.2,0.2-0.4,0.5-0.5,0.7
				C8.4,53.9,7.5,54.3,6.4,54.7z M8.6,63.2c-0.2,0.1-0.4,0.2-0.6,0.3c0.1-0.5,0.4-0.9,0.9-1.2c0,0,0,0,0,0c0.1,0.2,0.2,0.4,0.3,0.5
				C9.1,63,8.9,63.1,8.6,63.2z M9.8,61.9c0,0,0-0.1-0.1-0.1l0.9-2.2l2.3-0.3l1.5,1.9l-0.9,2.3l-1.1,0.5
				C11.3,63.5,10.4,62.8,9.8,61.9z M16.3,68.2c-0.9,0.5-2.1,0.8-2.7,0.8c0,0,0,0,0,0c0.2-0.2,0.4-0.4,0.6-0.5c1-0.8,1.6-1.4,1-3.3
				c0.3,0,0.6-0.1,0.9-0.1C16.4,65.9,17.1,67.7,16.3,68.2z M19.2,63c-1.5,0.8-3.1,1.3-4.6,1.3c-0.2,0-0.3,0-0.5,0l0.1,0
				c0.1-0.1,0.2-0.2,0.3-0.3l0.8-2.1c0.1,0,0.1,0,0.2,0c0,0,0,0,0.1,0l2.9-0.4c0,0,0,0.1,0.1,0.1l0.9,1.3
				C19.3,62.9,19.2,62.9,19.2,63z M20.2,62.3l-0.8-1.2c0,0,0.1-0.1,0.1-0.1l1.3-3.3c0-0.1,0-0.2,0-0.3l1.9-0.3
				c0.2,0,0.3-0.1,0.4-0.3l0.4-1c0.2,1.3-0.1,2.7-0.9,4c0,0,0,0,0,0C22,60.7,21.2,61.6,20.2,62.3z M26.5,60.7
				c-0.2,1.2-0.9,2.5-1.3,2.9c0,0,0-0.1,0-0.1c0-0.3,0-0.6,0-0.9c0-1.1,0.1-2.1-1.4-2.8c0.2-0.3,0.3-0.7,0.4-1
				C25.1,59.1,26.6,59.8,26.5,60.7z"/>
			<path id="XMLID_481_" fill="#67737C" d="M10.1,48.8c1.2,0,2.3-0.5,3.2-1.4c0.2-0.2,0.2-0.5,0-0.7c-0.8-0.9-2-1.4-3.2-1.4
				S7.8,45.9,7,46.8c-0.2,0.2-0.2,0.5,0,0.7C7.8,48.3,8.9,48.8,10.1,48.8z M10.1,46.4c0.8,0,1.5,0.3,2.1,0.7
				c-0.6,0.5-1.3,0.7-2.1,0.7c-0.8,0-1.5-0.3-2.1-0.7C8.6,46.6,9.4,46.4,10.1,46.4z"/>
			<path id="XMLID_480_" fill="#67737C" d="M6,48.6L6,48.6c0.3,0,0.5-0.2,0.5-0.5c0-0.2-0.1-0.3-0.2-0.4c0-0.1-0.1-0.3-0.1-0.6
				c0-0.2,0-0.4,0-0.5c0.1-0.1,0.2-0.2,0.2-0.4c0-0.3-0.2-0.5-0.5-0.5c-0.3,0-0.8,0.2-0.8,1.4C5.2,48,5.5,48.6,6,48.6z"/>
			<path id="XMLID_477_" fill="#67737C" d="M23.2,66.9c-0.8,0-1.6,0.3-2.1,0.9c-0.2,0.2-0.2,0.5,0,0.7c0.5,0.6,1.3,0.9,2.1,0.9
				c0.8,0,1.6-0.3,2.1-0.9c0.2-0.2,0.2-0.5,0-0.7C24.7,67.2,24,66.9,23.2,66.9z M23.2,68.4c-0.3,0-0.7-0.1-1-0.3
				c0.3-0.2,0.6-0.3,1-0.3c0.3,0,0.7,0.1,1,0.3C23.8,68.4,23.5,68.4,23.2,68.4z"/>
			<path id="XMLID_476_" fill="#67737C" d="M20.9,68.4c0-0.1,0-0.2,0-0.3c0-0.1,0-0.2,0-0.2c0.1-0.1,0.1-0.2,0.1-0.4
				c0-0.3-0.2-0.5-0.5-0.5c-0.2,0-0.7,0.1-0.7,1.1c0,1,0.4,1.2,0.7,1.2c0,0,0,0,0,0c0.3,0,0.5-0.2,0.5-0.5
				C21.1,68.6,21,68.5,20.9,68.4z"/>
			<path id="XMLID_475_" fill="#67737C" d="M24.5,49.1c-0.1-0.1-0.3-0.1-0.5,0c0,0-0.1,0.1-0.1,0.1c-0.1,0.1-0.1,0.2-0.1,0.4
				c0,0.1,0.1,0.3,0.1,0.4c0,0,0.1,0.1,0.1,0.1c0.1,0,0.1,0.1,0.2,0.1c0.1,0,0.2,0,0.2-0.1c0,0,0.1,0,0.1-0.1l0,0l0,0c0,0,0,0,0,0
				l0,0c0.1-0.1,0.1-0.2,0.1-0.3c0-0.2,0-0.3-0.1-0.4C24.6,49.1,24.6,49.1,24.5,49.1z"/>
			<path id="XMLID_474_" fill="#67737C" d="M25.6,47.5c-0.1-0.1-0.3-0.1-0.5,0c0,0-0.1,0.1-0.1,0.1c-0.1,0.1-0.1,0.2-0.1,0.4
				c0,0.1,0.1,0.3,0.1,0.4c0,0,0.1,0.1,0.1,0.1c0.1,0,0.1,0.1,0.2,0.1c0.1,0,0.2,0,0.2-0.1c0,0,0.1,0,0.1-0.1l0,0c0,0,0,0,0,0
				c0,0,0,0,0,0l0,0c0.1-0.1,0.1-0.2,0.1-0.3c0-0.2,0-0.3-0.1-0.4C25.7,47.6,25.7,47.5,25.6,47.5z"/>
			<path id="XMLID_473_" fill="#67737C" d="M23.8,46.2c0,0.1,0.1,0.3,0.1,0.4c0,0,0.1,0.1,0.1,0.1c0.1,0,0.1,0.1,0.2,0.1
				c0.1,0,0.3-0.1,0.4-0.1c0,0,0.1-0.1,0.1-0.2c0.1-0.2,0-0.4-0.1-0.5c0,0-0.1-0.1-0.1-0.1c-0.2-0.1-0.4-0.1-0.6,0.1
				C23.9,46,23.8,46.1,23.8,46.2z"/>
			<path id="XMLID_471_" fill="#67737C" d="M24.9,45.1c0.1,0.1,0.3,0.2,0.5,0.2c0.2,0,0.3,0,0.4-0.1c0.1-0.1,0.2-0.2,0.3-0.4
				c0-0.2,0-0.4-0.1-0.5c0,0,0-0.1-0.1-0.1c-0.1-0.1-0.3-0.2-0.5-0.2c-0.1,0-0.3,0-0.4,0.1c0,0,0,0,0,0
				C24.7,44.3,24.6,44.7,24.9,45.1C24.9,45,24.9,45,24.9,45.1z"/>
			<path id="XMLID_469_" fill="#67737C" d="M22.5,43.7c0.2,0.2,0.4,0.3,0.7,0.3c0.2,0,0.4-0.1,0.5-0.2c0.2-0.1,0.3-0.3,0.3-0.5
				c0-0.2,0-0.5-0.2-0.7c0,0,0-0.1-0.1-0.1c-0.2-0.2-0.4-0.2-0.6-0.2c-0.2,0-0.4,0.1-0.5,0.2c0,0,0,0,0,0
				C22.3,42.7,22.2,43.2,22.5,43.7C22.5,43.6,22.5,43.6,22.5,43.7z"/>
		</g>
		<g id="XMLID_712_">
			<path id="XMLID_728_" fill="#FFFFFF" d="M24.4,97.9c0.2-0.9,0.2-1.8,0-2.6c0.1,0,0.2,0,0.3,0c0.5,0,1-0.1,1.4-0.4
				c1.2-0.7,1.3-2.5,1.3-2.7c0-0.2-0.1-0.4-0.3-0.4c0,0-1-0.6-2-0.6c-0.4,0-0.7,0.1-1,0.2c-0.6,0.3-1,0.8-1.2,1.3
				c-0.6-0.6-1.4-1-2.2-1.3c0.6-2.8-0.2-3.8-1-4.1c-1.5-0.6-4.2-0.8-4.7,0.1c-0.1,0.3-0.2,0.8,0.6,1.3c0.3,0.2,0.6,0.4,0.9,0.5
				c0.9,0.5,1.3,0.7,1.2,1.8c-1.5,0.1-3.1,0.6-4.5,1.4c-0.8,0.5-1.6,1-2.2,1.7c-1.7-2.3-3-2.3-3.7-1.9c-1.2,0.6-3.1,2.4-2.7,3.4
				C4.7,95.9,5,96.2,5.9,96c0.3-0.1,0.6-0.2,0.9-0.3c1-0.4,1.3-0.5,2.2,0.6c0.1,0.1,0.1,0.1,0.2,0.1C9.1,96.6,9,96.8,8.9,97
				c-0.7,1.5-0.8,3-0.4,4.4c0,0,0,0,0,0c-0.7,0.4-1.2,1.1-1.4,1.9c-0.2,0.7-0.1,1.5,0.2,2.2c0,0,0,0,0,0c0,0.1,0.1,0.1,0.1,0.2
				c0.1,0.2,0.3,0.3,0.4,0.3c0.1,0,0.2,0,0.2-0.1c0.2-0.1,0.3-0.4,0.2-0.7c0-0.1-0.1-0.1-0.1-0.2c-0.1-0.1-0.1-0.3-0.1-0.3
				c0.1-0.2,0.5-0.4,0.9-0.6c0.2-0.1,0.5-0.2,0.8-0.4c0,0,0.1-0.1,0.1-0.1c1,1,2.5,1.5,4.2,1.6c0.6,1.6,0.3,1.8-0.6,2.5
				c-0.2,0.2-0.5,0.4-0.7,0.6c-0.7,0.6-0.6,1.1-0.4,1.3c0.2,0.3,0.6,0.4,1.1,0.4c1,0,2.4-0.5,3.2-0.9c0.7-0.5,1.4-1.6,0.3-4.2
				c0.9-0.2,1.7-0.6,2.6-1.1c1.5-0.8,2.7-1.9,3.5-3.2c1,0.5,1,0.9,1,1.9c0,0.3,0,0.6,0,1c0,1,0.5,1.2,0.8,1.2c0,0,0,0,0,0
				c1.1,0,2.3-2.6,2.5-4C27.6,100,27.1,98.8,24.4,97.9z M23.9,93.1c0.1-0.3,0.4-0.6,0.8-0.8c0.1-0.1,0.3-0.1,0.5-0.1
				c0.4,0,0.9,0.2,1.2,0.3c-0.1,0.5-0.3,1.3-0.7,1.6c-0.3,0.2-0.6,0.3-1,0.3c-0.4,0-0.7-0.1-0.9-0.4C23.8,93.6,23.9,93.3,23.9,93.1z
				 M23,94.3C23,94.3,23,94.3,23,94.3l-0.7,1.8l-2,0.3l-1.2-1.6l0.7-1.9l1.5-0.2C22,93.1,22.6,93.7,23,94.3z M18.6,100.3l-3,0.4
				l-1.9-2.4l1.1-2.8l3-0.4l1.9,2.4L18.6,100.3z M17.1,88.3c-0.3-0.1-0.5-0.3-0.8-0.5c0,0-0.1,0-0.1-0.1c0.6-0.1,2.1-0.1,3.2,0.4
				c0.9,0.4,0.6,2.1,0.5,2.9c-0.3-0.1-0.7-0.1-1.1-0.1C18.9,89.3,18,88.9,17.1,88.3z M13.7,93.3c1.5-0.8,3.1-1.3,4.6-1.3
				c0.3,0,0.6,0,0.9,0.1c-0.1,0.1-0.2,0.1-0.2,0.3l-0.7,1.8c-0.1,0-0.2,0-0.3,0l-3.3,0.5L13.7,93.3C13.7,93.3,13.7,93.3,13.7,93.3z
				 M12.9,93.8l1.1,1.4l-1.2,3l-2.5,0.4c-0.2,0-0.3,0.1-0.4,0.3l-0.5,1.3c-0.1-0.9,0.1-1.8,0.5-2.8C10.4,96,11.5,94.8,12.9,93.8z
				 M6.4,94.7c-0.2,0.1-0.5,0.2-0.8,0.3c0.3-0.5,1.1-1.4,2.1-1.9c0.9-0.4,2.1,1.2,2.6,1.7c-0.2,0.2-0.4,0.5-0.5,0.7
				C8.4,93.9,7.5,94.3,6.4,94.7z M8.6,103.2c-0.2,0.1-0.4,0.2-0.6,0.3c0.1-0.5,0.4-0.9,0.9-1.2c0,0,0,0,0,0c0.1,0.2,0.2,0.4,0.3,0.5
				C9.1,103,8.9,103.1,8.6,103.2z M9.8,101.9c0,0,0-0.1-0.1-0.1l0.9-2.2l2.3-0.3l1.5,1.9l-0.9,2.3l-1.1,0.5
				C11.3,103.5,10.4,102.8,9.8,101.9z M16.3,108.2c-0.9,0.5-2.1,0.8-2.7,0.8c0,0,0,0,0,0c0.2-0.2,0.4-0.4,0.6-0.5
				c1-0.8,1.6-1.4,1-3.3c0.3,0,0.6-0.1,0.9-0.1C16.4,105.9,17.1,107.7,16.3,108.2z M19.2,103c-1.5,0.8-3.1,1.3-4.6,1.3
				c-0.2,0-0.3,0-0.5,0l0.1,0c0.1-0.1,0.2-0.2,0.3-0.3l0.8-2.1c0.1,0,0.1,0,0.2,0c0,0,0,0,0.1,0l2.9-0.4c0,0,0,0.1,0.1,0.1l0.9,1.3
				C19.3,102.9,19.2,102.9,19.2,103z M20.2,102.3l-0.8-1.2c0,0,0.1-0.1,0.1-0.1l1.3-3.3c0-0.1,0-0.2,0-0.3l1.9-0.3
				c0.2,0,0.3-0.1,0.4-0.3l0.4-1c0.2,1.3-0.1,2.7-0.9,4c0,0,0,0,0,0C22,100.7,21.2,101.6,20.2,102.3z M26.5,100.7
				c-0.2,1.2-0.9,2.5-1.3,2.9c0,0,0-0.1,0-0.1c0-0.3,0-0.6,0-0.9c0-1.1,0.1-2.1-1.4-2.8c0.2-0.3,0.3-0.7,0.4-1
				C25.1,99.1,26.6,99.8,26.5,100.7z"/>
			<path id="XMLID_725_" fill="#FFFFFF" d="M10.1,88.8c1.2,0,2.3-0.5,3.2-1.4c0.2-0.2,0.2-0.5,0-0.7c-0.8-0.9-2-1.4-3.2-1.4
				S7.8,85.9,7,86.8c-0.2,0.2-0.2,0.5,0,0.7C7.8,88.3,8.9,88.8,10.1,88.8z M10.1,86.4c0.8,0,1.5,0.3,2.1,0.7
				c-0.6,0.5-1.3,0.7-2.1,0.7c-0.8,0-1.5-0.3-2.1-0.7C8.6,86.6,9.4,86.4,10.1,86.4z"/>
			<path id="XMLID_724_" fill="#FFFFFF" d="M6,88.6L6,88.6c0.3,0,0.5-0.2,0.5-0.5c0-0.2-0.1-0.3-0.2-0.4c0-0.1-0.1-0.3-0.1-0.6
				c0-0.2,0-0.4,0-0.5c0.1-0.1,0.2-0.2,0.2-0.4c0-0.3-0.2-0.5-0.5-0.5c-0.3,0-0.8,0.2-0.8,1.4C5.2,88,5.5,88.6,6,88.6z"/>
			<path id="XMLID_721_" fill="#FFFFFF" d="M23.2,106.9c-0.8,0-1.6,0.3-2.1,0.9c-0.2,0.2-0.2,0.5,0,0.7c0.5,0.6,1.3,0.9,2.1,0.9
				c0.8,0,1.6-0.3,2.1-0.9c0.2-0.2,0.2-0.5,0-0.7C24.7,107.2,24,106.9,23.2,106.9z M23.2,108.4c-0.3,0-0.7-0.1-1-0.3
				c0.3-0.2,0.6-0.3,1-0.3c0.3,0,0.7,0.1,1,0.3C23.8,108.4,23.5,108.4,23.2,108.4z"/>
			<path id="XMLID_720_" fill="#FFFFFF" d="M20.9,108.4c0-0.1,0-0.2,0-0.3c0-0.1,0-0.2,0-0.2c0.1-0.1,0.1-0.2,0.1-0.4
				c0-0.3-0.2-0.5-0.5-0.5c-0.2,0-0.7,0.1-0.7,1.1c0,1,0.4,1.2,0.7,1.2c0,0,0,0,0,0c0.3,0,0.5-0.2,0.5-0.5
				C21.1,108.6,21,108.5,20.9,108.4z"/>
			<path id="XMLID_719_" fill="#FFFFFF" d="M24.5,89.1c-0.1-0.1-0.3-0.1-0.5,0c0,0-0.1,0.1-0.1,0.1c-0.1,0.1-0.1,0.2-0.1,0.4
				c0,0.1,0.1,0.3,0.1,0.4c0,0,0.1,0.1,0.1,0.1c0.1,0,0.1,0.1,0.2,0.1c0.1,0,0.2,0,0.2-0.1c0,0,0.1,0,0.1-0.1l0,0l0,0c0,0,0,0,0,0
				l0,0c0.1-0.1,0.1-0.2,0.1-0.3c0-0.2,0-0.3-0.1-0.4C24.6,89.1,24.6,89.1,24.5,89.1z"/>
			<path id="XMLID_718_" fill="#FFFFFF" d="M25.6,87.5c-0.1-0.1-0.3-0.1-0.5,0c0,0-0.1,0.1-0.1,0.1c-0.1,0.1-0.1,0.2-0.1,0.4
				c0,0.1,0.1,0.3,0.1,0.4c0,0,0.1,0.1,0.1,0.1c0.1,0,0.1,0.1,0.2,0.1c0.1,0,0.2,0,0.2-0.1c0,0,0.1,0,0.1-0.1l0,0c0,0,0,0,0,0
				c0,0,0,0,0,0l0,0c0.1-0.1,0.1-0.2,0.1-0.3c0-0.2,0-0.3-0.1-0.4C25.7,87.6,25.7,87.5,25.6,87.5z"/>
			<path id="XMLID_717_" fill="#FFFFFF" d="M23.8,86.2c0,0.1,0.1,0.3,0.1,0.4c0,0,0.1,0.1,0.1,0.1c0.1,0,0.1,0.1,0.2,0.1
				c0.1,0,0.3-0.1,0.4-0.1c0,0,0.1-0.1,0.1-0.2c0.1-0.2,0-0.4-0.1-0.5c0,0-0.1-0.1-0.1-0.1c-0.2-0.1-0.4-0.1-0.6,0.1
				C23.9,86,23.8,86.1,23.8,86.2z"/>
			<path id="XMLID_715_" fill="#FFFFFF" d="M24.9,85.1c0.1,0.1,0.3,0.2,0.5,0.2c0.2,0,0.3,0,0.4-0.1c0.1-0.1,0.2-0.2,0.3-0.4
				c0-0.2,0-0.4-0.1-0.5c0,0,0-0.1-0.1-0.1c-0.1-0.1-0.3-0.2-0.5-0.2c-0.1,0-0.3,0-0.4,0.1c0,0,0,0,0,0
				C24.7,84.3,24.6,84.7,24.9,85.1C24.9,85,24.9,85,24.9,85.1z"/>
			<path id="XMLID_713_" fill="#FFFFFF" d="M22.5,83.7c0.2,0.2,0.4,0.3,0.7,0.3c0.2,0,0.4-0.1,0.5-0.2c0.2-0.1,0.3-0.3,0.3-0.5
				c0-0.2,0-0.5-0.2-0.7c0,0,0-0.1-0.1-0.1c-0.2-0.2-0.4-0.2-0.6-0.2c-0.2,0-0.4,0.1-0.5,0.2c0,0,0,0,0,0
				C22.3,82.7,22.2,83.2,22.5,83.7C22.5,83.6,22.5,83.6,22.5,83.7z"/>
		</g>
		<g id="XMLID_894_">
			<path id="XMLID_910_" fill="#1D70AD" d="M24.4,137.9c0.2-0.9,0.2-1.8,0-2.6c0.1,0,0.2,0,0.3,0c0.5,0,1-0.1,1.4-0.4
				c1.2-0.7,1.3-2.5,1.3-2.7c0-0.2-0.1-0.4-0.3-0.4c0,0-1-0.6-2-0.6c-0.4,0-0.7,0.1-1,0.2c-0.6,0.3-1,0.8-1.2,1.3
				c-0.6-0.6-1.4-1-2.2-1.3c0.6-2.8-0.2-3.8-1-4.1c-1.5-0.6-4.2-0.8-4.7,0.1c-0.1,0.3-0.2,0.8,0.6,1.3c0.3,0.2,0.6,0.4,0.9,0.5
				c0.9,0.5,1.3,0.7,1.2,1.8c-1.5,0.1-3.1,0.6-4.5,1.4c-0.8,0.5-1.6,1-2.2,1.7c-1.7-2.3-3-2.3-3.7-1.9c-1.2,0.6-3.1,2.4-2.7,3.4
				c0.1,0.3,0.4,0.6,1.4,0.4c0.3-0.1,0.6-0.2,0.9-0.3c1-0.4,1.3-0.5,2.2,0.6c0.1,0.1,0.1,0.1,0.2,0.1c-0.1,0.2-0.2,0.4-0.3,0.7
				c-0.7,1.5-0.8,3-0.4,4.4c0,0,0,0,0,0c-0.7,0.4-1.2,1.1-1.4,1.9c-0.2,0.7-0.1,1.5,0.2,2.2c0,0,0,0,0,0c0,0.1,0.1,0.1,0.1,0.2
				c0.1,0.2,0.3,0.3,0.4,0.3c0.1,0,0.2,0,0.2-0.1c0.2-0.1,0.3-0.4,0.2-0.7c0-0.1-0.1-0.1-0.1-0.2c-0.1-0.1-0.1-0.3-0.1-0.3
				c0.1-0.2,0.5-0.4,0.9-0.6c0.2-0.1,0.5-0.2,0.8-0.4c0,0,0.1-0.1,0.1-0.1c1,1,2.5,1.5,4.2,1.6c0.6,1.6,0.3,1.8-0.6,2.5
				c-0.2,0.2-0.5,0.4-0.7,0.6c-0.7,0.6-0.6,1.1-0.4,1.3c0.2,0.3,0.6,0.4,1.1,0.4c1,0,2.4-0.5,3.2-0.9c0.7-0.5,1.4-1.6,0.3-4.2
				c0.9-0.2,1.7-0.6,2.6-1.1c1.5-0.8,2.7-1.9,3.5-3.2c1,0.5,1,0.9,1,1.9c0,0.3,0,0.6,0,1c0,1,0.5,1.2,0.8,1.2c0,0,0,0,0,0
				c1.1,0,2.3-2.6,2.5-4C27.6,140,27.1,138.8,24.4,137.9z M23.9,133.1c0.1-0.3,0.4-0.6,0.8-0.8c0.1-0.1,0.3-0.1,0.5-0.1
				c0.4,0,0.9,0.2,1.2,0.3c-0.1,0.5-0.3,1.3-0.7,1.6c-0.3,0.2-0.6,0.3-1,0.3c-0.4,0-0.7-0.1-0.9-0.4
				C23.8,133.6,23.9,133.3,23.9,133.1z M23,134.3C23,134.3,23,134.3,23,134.3l-0.7,1.8l-2,0.3l-1.2-1.6l0.7-1.9l1.5-0.2
				C22,133.1,22.6,133.7,23,134.3z M18.6,140.3l-3,0.4l-1.9-2.4l1.1-2.8l3-0.4l1.9,2.4L18.6,140.3z M17.1,128.3
				c-0.3-0.1-0.5-0.3-0.8-0.5c0,0-0.1,0-0.1-0.1c0.6-0.1,2.1-0.1,3.2,0.4c0.9,0.4,0.6,2.1,0.5,2.9c-0.3-0.1-0.7-0.1-1.1-0.1
				C18.9,129.3,18,128.9,17.1,128.3z M13.7,133.3c1.5-0.8,3.1-1.3,4.6-1.3c0.3,0,0.6,0,0.9,0.1c-0.1,0.1-0.2,0.1-0.2,0.3l-0.7,1.8
				c-0.1,0-0.2,0-0.3,0l-3.3,0.5L13.7,133.3C13.7,133.3,13.7,133.3,13.7,133.3z M12.9,133.8l1.1,1.4l-1.2,3l-2.5,0.4
				c-0.2,0-0.3,0.1-0.4,0.3l-0.5,1.3c-0.1-0.9,0.1-1.8,0.5-2.8C10.4,136,11.5,134.8,12.9,133.8z M6.4,134.7
				c-0.2,0.1-0.5,0.2-0.8,0.3c0.3-0.5,1.1-1.4,2.1-1.9c0.9-0.4,2.1,1.2,2.6,1.7c-0.2,0.2-0.4,0.5-0.5,0.7
				C8.4,133.9,7.5,134.3,6.4,134.7z M8.6,143.2c-0.2,0.1-0.4,0.2-0.6,0.3c0.1-0.5,0.4-0.9,0.9-1.2c0,0,0,0,0,0
				c0.1,0.2,0.2,0.4,0.3,0.5C9.1,143,8.9,143.1,8.6,143.2z M9.8,141.9c0,0,0-0.1-0.1-0.1l0.9-2.2l2.3-0.3l1.5,1.9l-0.9,2.3l-1.1,0.5
				C11.3,143.5,10.4,142.8,9.8,141.9z M16.3,148.2c-0.9,0.5-2.1,0.8-2.7,0.8c0,0,0,0,0,0c0.2-0.2,0.4-0.4,0.6-0.5
				c1-0.8,1.6-1.4,1-3.3c0.3,0,0.6-0.1,0.9-0.1C16.4,145.9,17.1,147.7,16.3,148.2z M19.2,143c-1.5,0.8-3.1,1.3-4.6,1.3
				c-0.2,0-0.3,0-0.5,0l0.1,0c0.1-0.1,0.2-0.2,0.3-0.3l0.8-2.1c0.1,0,0.1,0,0.2,0c0,0,0,0,0.1,0l2.9-0.4c0,0,0,0.1,0.1,0.1l0.9,1.3
				C19.3,142.9,19.2,142.9,19.2,143z M20.2,142.3l-0.8-1.2c0,0,0.1-0.1,0.1-0.1l1.3-3.3c0-0.1,0-0.2,0-0.3l1.9-0.3
				c0.2,0,0.3-0.1,0.4-0.3l0.4-1c0.2,1.3-0.1,2.7-0.9,4c0,0,0,0,0,0C22,140.7,21.2,141.6,20.2,142.3z M26.5,140.7
				c-0.2,1.2-0.9,2.5-1.3,2.9c0,0,0-0.1,0-0.1c0-0.3,0-0.6,0-0.9c0-1.1,0.1-2.1-1.4-2.8c0.2-0.3,0.3-0.7,0.4-1
				C25.1,139.1,26.6,139.8,26.5,140.7z"/>
			<path id="XMLID_907_" fill="#1D70AD" d="M10.1,128.8c1.2,0,2.3-0.5,3.2-1.4c0.2-0.2,0.2-0.5,0-0.7c-0.8-0.9-2-1.4-3.2-1.4
				s-2.3,0.5-3.2,1.4c-0.2,0.2-0.2,0.5,0,0.7C7.8,128.3,8.9,128.8,10.1,128.8z M10.1,126.4c0.8,0,1.5,0.3,2.1,0.7
				c-0.6,0.5-1.3,0.7-2.1,0.7c-0.8,0-1.5-0.3-2.1-0.7C8.6,126.6,9.4,126.4,10.1,126.4z"/>
			<path id="XMLID_906_" fill="#1D70AD" d="M6,128.6L6,128.6c0.3,0,0.5-0.2,0.5-0.5c0-0.2-0.1-0.3-0.2-0.4c0-0.1-0.1-0.3-0.1-0.6
				c0-0.2,0-0.4,0-0.5c0.1-0.1,0.2-0.2,0.2-0.4c0-0.3-0.2-0.5-0.5-0.5c-0.3,0-0.8,0.2-0.8,1.4C5.2,128,5.5,128.6,6,128.6z"/>
			<path id="XMLID_903_" fill="#1D70AD" d="M23.2,146.9c-0.8,0-1.6,0.3-2.1,0.9c-0.2,0.2-0.2,0.5,0,0.7c0.5,0.6,1.3,0.9,2.1,0.9
				c0.8,0,1.6-0.3,2.1-0.9c0.2-0.2,0.2-0.5,0-0.7C24.7,147.2,24,146.9,23.2,146.9z M23.2,148.4c-0.3,0-0.7-0.1-1-0.3
				c0.3-0.2,0.6-0.3,1-0.3c0.3,0,0.7,0.1,1,0.3C23.8,148.4,23.5,148.4,23.2,148.4z"/>
			<path id="XMLID_902_" fill="#1D70AD" d="M20.9,148.4c0-0.1,0-0.2,0-0.3c0-0.1,0-0.2,0-0.2c0.1-0.1,0.1-0.2,0.1-0.4
				c0-0.3-0.2-0.5-0.5-0.5c-0.2,0-0.7,0.1-0.7,1.1c0,1,0.4,1.2,0.7,1.2c0,0,0,0,0,0c0.3,0,0.5-0.2,0.5-0.5
				C21.1,148.6,21,148.5,20.9,148.4z"/>
			<path id="XMLID_901_" fill="#1D70AD" d="M24.5,129.1c-0.1-0.1-0.3-0.1-0.5,0c0,0-0.1,0.1-0.1,0.1c-0.1,0.1-0.1,0.2-0.1,0.4
				c0,0.1,0.1,0.3,0.1,0.4c0,0,0.1,0.1,0.1,0.1c0.1,0,0.1,0.1,0.2,0.1c0.1,0,0.2,0,0.2-0.1c0,0,0.1,0,0.1-0.1l0,0l0,0c0,0,0,0,0,0
				l0,0c0.1-0.1,0.1-0.2,0.1-0.3c0-0.2,0-0.3-0.1-0.4C24.6,129.1,24.6,129.1,24.5,129.1z"/>
			<path id="XMLID_900_" fill="#1D70AD" d="M25.6,127.5c-0.1-0.1-0.3-0.1-0.5,0c0,0-0.1,0.1-0.1,0.1c-0.1,0.1-0.1,0.2-0.1,0.4
				c0,0.1,0.1,0.3,0.1,0.4c0,0,0.1,0.1,0.1,0.1c0.1,0,0.1,0.1,0.2,0.1c0.1,0,0.2,0,0.2-0.1c0,0,0.1,0,0.1-0.1l0,0c0,0,0,0,0,0
				c0,0,0,0,0,0l0,0c0.1-0.1,0.1-0.2,0.1-0.3c0-0.2,0-0.3-0.1-0.4C25.7,127.6,25.7,127.5,25.6,127.5z"/>
			<path id="XMLID_899_" fill="#1D70AD" d="M23.8,126.2c0,0.1,0.1,0.3,0.1,0.4c0,0,0.1,0.1,0.1,0.1c0.1,0,0.1,0.1,0.2,0.1
				c0.1,0,0.3-0.1,0.4-0.1c0,0,0.1-0.1,0.1-0.2c0.1-0.2,0-0.4-0.1-0.5c0,0-0.1-0.1-0.1-0.1c-0.2-0.1-0.4-0.1-0.6,0.1
				C23.9,126,23.8,126.1,23.8,126.2z"/>
			<path id="XMLID_897_" fill="#1D70AD" d="M24.9,125.1c0.1,0.1,0.3,0.2,0.5,0.2c0.2,0,0.3,0,0.4-0.1c0.1-0.1,0.2-0.2,0.3-0.4
				c0-0.2,0-0.4-0.1-0.5c0,0,0-0.1-0.1-0.1c-0.1-0.1-0.3-0.2-0.5-0.2c-0.1,0-0.3,0-0.4,0.1c0,0,0,0,0,0
				C24.7,124.3,24.6,124.7,24.9,125.1C24.9,125,24.9,125,24.9,125.1z"/>
			<path id="XMLID_895_" fill="#1D70AD" d="M22.5,123.7c0.2,0.2,0.4,0.3,0.7,0.3c0.2,0,0.4-0.1,0.5-0.2c0.2-0.1,0.3-0.3,0.3-0.5
				c0-0.2,0-0.5-0.2-0.7c0,0,0-0.1-0.1-0.1c-0.2-0.2-0.4-0.2-0.6-0.2c-0.2,0-0.4,0.1-0.5,0.2c0,0,0,0,0,0
				C22.3,122.7,22.2,123.2,22.5,123.7C22.5,123.6,22.5,123.6,22.5,123.7z"/>
		</g>
	</svg>
