<svg width="32" height="232" viewBox="0 0 32 232" xmlns="http://www.w3.org/2000/svg"><g fill="none"><path d="M12.35 128.337c.093.093.21.14.327.14.128 0 .255-.055.35-.164l1.43-1.647c.18-.208.17-.535-.023-.73-.193-.196-.496-.186-.677.022l-1.43 1.648c-.18.208-.17.536.023.73zm-6.138.215c.093.093.21.14.327.14.12 0 .25-.055.35-.163.18-.21.17-.54-.03-.74l-1.53-1.55c-.2-.2-.5-.19-.68.02-.18.21-.17.53.02.73l1.52 1.54zm-3.076 3.576h.016l2.232-.08c.264-.008.472-.247.463-.532-.008-.286-.23-.506-.494-.5l-2.232.08c-.26.008-.47.247-.46.533.01.27.22.5.48.5zm6.43-4.916h.017c.264-.01.47-.248.463-.534l-.072-2.41c-.008-.286-.23-.508-.494-.5-.264.01-.472.248-.463.534l.072 2.41c0 .28.22.5.47.5zm1.523.273l.17.034c.19 0 .37-.13.44-.34l.5-1.43c.09-.27-.03-.57-.28-.67-.25-.1-.53.03-.62.3l-.51 1.43c-.1.26.03.56.27.66zm-6.93 2.156l1.32.55.17.04c.19 0 .37-.12.45-.33.09-.26-.03-.56-.28-.67l-1.33-.54c-.25-.1-.53.03-.62.3-.1.27.03.57.27.67zm3.34-2.33c.08.2.25.31.44.31l.19-.04c.24-.11.35-.42.24-.68l-.58-1.39c-.11-.26-.39-.37-.64-.26-.24.12-.35.43-.24.69l.57 1.4zm13.59.59h6.11c.26 0 .48-.23.48-.51 0-.08-.02-.16-.06-.23-.24-.6-.79-1-1.4-1h-.01c-.31-.99-1.17-1.69-2.18-1.69-.7 0-1.35.34-1.78.91-.93.13-1.65.99-1.65 2.02 0 .29.21.52.48.52zm1.39-1.51h.03c.16 0 .31-.09.4-.23.25-.41.67-.66 1.12-.66.69 0 1.26.56 1.33 1.3l.01.08H21.7c.16-.29.45-.48.783-.48zm8.57 20.12h-2.14v-.22l-.02-.19-.32-1.81v-1.64l-.2-1.62v-1.17c0-.15-.03-.31-.1-.45l-.62-1.38c-.05-.1-.1-.19-.17-.27L26 136.08c-.156-.173-.363-.284-.585-.31l-1.69-.21-.11-.006h-.707l-.54-.52-1.103-1.42-.21-1.525.62.34.09.03 1.237.36.127.02h1.21l1.01 1.4c.09.12.23.2.38.2h1.03l.82 1.03c.09.12.23.18.36.18.11 0 .22-.04.31-.13.2-.188.22-.51.05-.73l-.98-1.21c-.09-.12-.22-.18-.36-.18h-1.01l-1-1.43c-.09-.127-.23-.2-.38-.2H23.2l-1.13-.335-1.253-.686-.44-1.47c-.03-.095-.07-.184-.123-.267l-.54-.847-.34-.73c-.11-.23-.3-.42-.532-.51l-1.073-.42c-.21-.08-.44-.08-.65 0l-1.1.42c-.26.1-.46.3-.57.57l-.62 1.57-.05.17-.7.22-.05.018-1.92.84c-.13.056-.22.16-.27.3l-.82 2.37-1.23 1.372h-1l-.37-.7c-.1-.19-.3-.29-.5-.26l-3.07.56-.08.02-1.7.65c-.25.094-.38.39-.29.66.07.21.25.34.45.34l.16-.03 1.66-.64 2.69-.49.34.655c.08.165.24.266.41.266H10c.13 0 .256-.06.346-.16l1.437-1.613.104-.174.79-2.25 1.7-.745.19-.06-.06.274c-.087.2-.208.64-.52 2.17l-.014.085-.27 2.18-.12.31c-1.665.39-2.053 1.5-2.19 2.036-.81.22-1.49 1.17-1.725 1.84-.055.16-.035.34.055.48.09.14.234.226.39.226h2.26l-.003.04-.587.99-.565.22h-.78c-.345 0-.664.2-.833.522l-.585 1.12c-.063-.25-.186-.66-.42-1.38v-.89c0-.12-.02-.24-.054-.35l-.37-1.11-.105-.225-.41-.67c-.08-.13-.19-.25-.33-.33l-.66-.39c-.35-.21-.77-.17-1.08.1l-.74.67c-.12.11-.21.25-.27.41l-.53 1.43-.01.02-.62 1.737-.02.066-.53 1.87-.02.09-.29 1.47-.21 1.106H.98c-.53 0-.958.46-.958 1.03 0 .57.43 1.03.96 1.03h30.08c.53 0 .96-.463.96-1.035 0-.57-.43-1.03-.96-1.03zm-15.16-13.27c.13-.66.3-1.44.37-1.68.08-.17.18-.54.38-1.77l.41-1.04.38-.14.39.15.2.43.06.13.5.78.46 1.56.36 2.55c.02.19.1.37.21.51l1.31 1.7.09.11.68.66.583 1.8.467 2.45c.098.49.496.83.94.83l.2-.02c.52-.12.85-.667.75-1.226l-.48-2.51-.03-.133-.223-.69.94.116 1.14 1.28.46 1.024v1l.01.134.2 1.624v1.535l.015.19.32 1.82v.13h-9.56c-.04-.1-.09-.19-.16-.277l-1.31-1.65-.41-1.85c-.04-.18-.12-.34-.24-.47l-1.19-1.35c.05-.1.085-.204.103-.315l.1-.59h5.115c.263 0 .48-.23.48-.515 0-1.48-1.06-2.7-2.4-2.82-.477-.67-1.153-1.127-1.91-1.3l.26-2.1zm-4.9 5.71c.24-.29.53-.51.75-.51.41 0 .51-.43.55-.61.08-.31.2-.81.81-1.16.39-.22.96-.37 1.84-.37.13 0 .25.01.37.03.64.11 1.2.51 1.56 1.1.1.16.26.25.44.23.75.01 1.38.55 1.59 1.28H11zm-6.7 7.55l.13-.68.28-1.42.52-1.79.61-1.69.44-1.17.15.25.27.83v.89c0 .12.01.24.05.35.18.56.39 1.24.45 1.45.02.16.08.47.32 1.28.09.3.29.53.56.65.26.12.56.1.81-.05l1.27-.75c.16-.092.29-.23.37-.4l.466-.9h.384c.11 0 .22-.02.32-.06l1.03-.4c.106-.04.206-.102.29-.18l.71.806.41 1.83c.03.16.1.307.2.43l.61.77H4.3z" fill="#206FAC"/><path d="M12.35 88.337c.093.093.21.14.327.14.128 0 .255-.055.35-.164l1.43-1.647c.18-.208.17-.535-.023-.73-.193-.196-.496-.186-.677.022l-1.43 1.648c-.18.208-.17.536.023.73zm-6.138.215c.093.093.21.14.327.14.12 0 .25-.055.35-.163.18-.21.17-.54-.03-.74l-1.53-1.54c-.2-.2-.5-.19-.68.02-.18.21-.17.53.02.73l1.53 1.54zm-3.076 3.576h.016l2.232-.08c.264-.008.472-.247.463-.532-.008-.286-.23-.506-.494-.5l-2.232.08c-.26.008-.47.247-.46.533.01.27.22.5.48.5zm6.43-4.916h.017c.264-.01.47-.248.463-.534l-.072-2.41c-.008-.286-.23-.508-.494-.5-.264.01-.472.248-.463.534l.072 2.41c0 .28.22.5.47.5zm1.523.273l.17.034c.19 0 .37-.13.44-.34l.5-1.43c.09-.27-.03-.57-.28-.67-.25-.1-.53.03-.62.3l-.51 1.43c-.1.26.03.56.27.66zM4.16 89.64l1.322.548.17.034c.193 0 .375-.127.448-.333.095-.27-.03-.57-.276-.67L4.5 88.67c-.246-.102-.523.03-.617.298-.095.268.03.566.276.67zm3.34-2.33c.08.192.256.306.44.306l.194-.045c.24-.11.35-.42.242-.68l-.578-1.39c-.107-.26-.39-.37-.632-.26-.242.12-.35.43-.242.69l.576 1.39zm13.592.59H27.2c.264 0 .48-.23.48-.517 0-.084-.02-.164-.053-.234-.234-.61-.79-1.01-1.4-1.01h-.007c-.307-1-1.17-1.69-2.18-1.69-.695 0-1.344.33-1.78.91-.927.12-1.65.98-1.65 2.02 0 .28.216.52.48.52zm1.395-1.517h.028c.162 0 .313-.088.4-.234.25-.42.67-.67 1.126-.67.7 0 1.27.56 1.34 1.3l.02.08h-3.69c.16-.29.45-.48.78-.49zm8.572 20.113h-2.15v-.226l-.02-.19-.32-1.818v-1.506l-.01-.135-.2-1.62v-1.17c0-.15-.03-.31-.1-.45l-.6-1.38c-.05-.1-.1-.19-.17-.26L26 96.07c-.155-.175-.362-.286-.584-.31l-1.69-.21-.108-.008h-.705l-.54-.524-1.1-1.42-.217-1.524.624.33.09.03 1.236.366.13.02h1.21l1.003 1.4c.09.13.23.2.38.2h1.03l.82 1.04c.1.12.23.18.37.18.11 0 .23-.04.32-.126.2-.183.22-.51.05-.73l-.97-1.21c-.09-.113-.22-.18-.36-.18h-1.02l-1.01-1.405c-.09-.13-.23-.2-.38-.2H23.2l-1.13-.34-1.253-.69-.44-1.47c-.03-.1-.07-.19-.123-.27l-.54-.85-.34-.74c-.11-.24-.3-.42-.532-.51l-1.073-.42c-.21-.08-.44-.08-.65-.01l-1.1.42c-.26.1-.46.3-.57.57l-.62 1.57-.05.16-.7.227-.05.014-1.92.84c-.13.05-.22.16-.27.298l-.83 2.36-1.22 1.38h-1l-.37-.705c-.1-.19-.3-.295-.5-.26l-3.07.56-.08.02-1.7.655c-.25.1-.38.39-.29.66.07.21.25.35.45.35l.16-.03 1.66-.64 2.69-.49.34.654c.08.17.24.27.41.27H10c.13 0 .256-.05.346-.15l1.44-1.616.103-.175.79-2.25 1.7-.747.19-.06-.06.27c-.09.2-.21.64-.52 2.17l-.02.084-.27 2.18-.12.302c-1.67.39-2.06 1.5-2.2 2.037-.81.22-1.49 1.17-1.73 1.84-.05.16-.03.337.06.477.09.14.23.225.39.225h2.25l-.01.032-.59 1-.57.22h-.78c-.35 0-.67.2-.84.52L9 102.88c-.063-.25-.19-.657-.42-1.375v-.89c0-.12-.02-.24-.056-.35l-.37-1.113-.1-.224-.415-.668c-.09-.136-.2-.25-.33-.33l-.66-.397c-.35-.21-.78-.17-1.08.104l-.75.664c-.12.11-.22.25-.28.41l-.53 1.43-.01.02-.62 1.73-.02.07-.54 1.87-.02.09-.29 1.48-.21 1.11H.97c-.53 0-.954.47-.954 1.04 0 .57.43 1.036.954 1.036h30.08c.53 0 .958-.46.958-1.032 0-.57-.43-1.03-.957-1.03zM15.89 93.24c.136-.66.307-1.445.376-1.687.08-.177.18-.54.387-1.77l.41-1.04.38-.145.392.152.2.43.067.124.498.78.468 1.558.36 2.545c.025.187.1.363.212.51l1.318 1.697.096.106.68.658.584 1.796.466 2.446c.094.49.492.826.937.826l.2-.02c.52-.116.85-.663.75-1.222l-.48-2.514-.03-.134-.22-.694.94.116 1.14 1.282.46 1.024v1l.01.136.2 1.623v1.534l.02.19.32 1.818v.13h-9.56c-.04-.096-.09-.19-.16-.274L16 104.57l-.41-1.85c-.04-.18-.12-.34-.24-.47l-1.19-1.35c.05-.1.084-.2.102-.31l.1-.592h5.115c.264 0 .48-.23.48-.515 0-1.48-1.057-2.7-2.398-2.822-.48-.67-1.16-1.12-1.91-1.3l.26-2.1zm-4.893 5.706c.242-.292.532-.517.757-.517.41 0 .513-.43.557-.61.08-.31.2-.81.81-1.16.39-.22.96-.37 1.84-.37.13 0 .25.01.37.03.64.11 1.2.5 1.56 1.1.1.15.26.24.44.23.75 0 1.38.54 1.59 1.28H11zm-6.696 7.55l.13-.68.28-1.42.52-1.79.61-1.694.44-1.174.01-.004.15.243.28.824v.89c0 .12.02.24.06.35.18.56.4 1.24.45 1.45.02.16.09.47.33 1.29.09.3.29.53.56.65.27.12.57.1.82-.05l1.28-.75c.16-.09.29-.23.38-.4l.47-.9h.39c.11 0 .22-.02.32-.06l1.03-.4c.1-.04.2-.1.29-.18l.71.81.41 1.83c.036.16.106.31.2.43l.61.77H4.3z" fill="#fff"/><path d="M12.35 48.337c.093.093.21.14.327.14.128 0 .255-.055.35-.164l1.43-1.647c.18-.208.17-.535-.023-.73-.193-.196-.496-.186-.677.022l-1.43 1.648c-.18.208-.17.536.023.73zm-6.138.215c.093.093.21.14.327.14.12 0 .25-.055.35-.163.18-.21.17-.54-.03-.74l-1.53-1.54c-.2-.2-.5-.19-.68.02-.18.21-.17.53.02.73l1.53 1.54zm-3.076 3.576h.016l2.232-.08c.264-.008.472-.247.463-.532-.008-.286-.23-.506-.494-.5l-2.232.08c-.26.008-.47.247-.46.533.01.27.22.5.48.5zm6.43-4.916h.017c.264-.01.47-.248.463-.534l-.072-2.41c-.008-.286-.23-.508-.494-.5-.264.01-.472.248-.463.534l.072 2.41c0 .28.22.5.47.5zm1.523.273l.17.034c.19 0 .37-.13.44-.34l.5-1.43c.09-.27-.03-.57-.28-.67-.25-.1-.53.03-.62.3l-.51 1.43c-.1.26.03.56.27.66zM4.16 49.64l1.322.548.17.034c.193 0 .375-.127.448-.333.095-.27-.03-.57-.276-.67L4.5 48.67c-.246-.102-.523.03-.617.298-.095.268.03.566.276.67zm3.34-2.33c.08.192.256.306.44.306l.194-.045c.24-.11.35-.42.242-.68l-.578-1.39c-.107-.26-.39-.37-.632-.26-.242.12-.35.43-.242.69l.576 1.39zm13.592.59H27.2c.264 0 .48-.23.48-.517 0-.084-.02-.164-.053-.234-.234-.61-.79-1.01-1.4-1.01h-.007c-.307-1-1.17-1.69-2.18-1.69-.695 0-1.344.33-1.78.91-.927.12-1.65.98-1.65 2.02 0 .28.216.52.48.52zm1.395-1.517h.028c.162 0 .313-.088.4-.234.25-.42.67-.67 1.126-.67.7 0 1.27.56 1.34 1.3l.02.08h-3.69c.16-.29.45-.48.78-.49zm8.572 20.113h-2.15v-.226l-.02-.19-.32-1.818v-1.506l-.01-.135-.19-1.62v-1.17c0-.15-.03-.31-.1-.45L27.66 58c-.044-.1-.102-.19-.172-.264l-1.48-1.67c-.156-.174-.36-.285-.585-.31l-1.69-.21-.108-.007h-.71l-.54-.53-1.11-1.42-.214-1.53.63.33.09.03 1.23.37.13.02h1.21l1.01 1.4c.09.12.23.2.38.2h1.03l.83 1.03c.1.12.23.18.37.18.11 0 .22-.04.31-.12.2-.19.23-.51.05-.73l-.97-1.21c-.09-.11-.22-.18-.36-.18h-1.01L24.96 52c-.09-.13-.23-.2-.38-.2H23.2l-1.13-.336-1.253-.685-.44-1.47c-.03-.1-.07-.18-.13-.27l-.54-.85-.34-.74c-.11-.24-.3-.42-.53-.51l-1.08-.42c-.207-.08-.434-.08-.642 0l-1.1.42c-.254.09-.458.3-.564.57l-.61 1.57-.05.16-.69.22-.04.01-1.91.84c-.12.05-.22.16-.26.294L11.05 53l-1.23 1.37H8.795l-.368-.706c-.1-.19-.3-.293-.497-.257l-3.064.56-.08.022-1.7.65c-.25.09-.38.39-.29.66.07.21.253.34.45.34l.16-.03 1.66-.64 2.693-.49.34.65c.08.16.24.26.41.26h1.5c.13 0 .25-.06.34-.16l1.44-1.61.1-.18.78-2.26 1.7-.74.19-.06-.06.27c-.08.2-.2.64-.52 2.17l-.02.08-.27 2.18-.12.3c-1.67.39-2.06 1.5-2.2 2.03-.81.22-1.49 1.17-1.73 1.84-.058.16-.038.33.052.47.09.14.24.22.396.22h2.26l-.008.04-.58.99-.57.22h-.78c-.346 0-.66.2-.83.522L9 62.84c-.066-.247-.19-.655-.42-1.373v-.89c0-.12-.02-.24-.06-.35l-.37-1.118-.102-.23-.41-.67c-.09-.14-.2-.25-.33-.33l-.66-.4c-.35-.21-.78-.17-1.08.11l-.74.66c-.12.11-.22.25-.28.41l-.53 1.42-.01.02-.62 1.73-.02.06-.538 1.87-.02.09-.29 1.47-.21 1.1H.98c-.53 0-.958.464-.958 1.035 0 .57.43 1.03.958 1.03h30.077c.53 0 .958-.46.958-1.03 0-.57-.43-1.035-.958-1.035zM15.89 53.24c.136-.66.307-1.445.376-1.687.08-.177.18-.54.387-1.77l.41-1.04.38-.145.392.152.2.43.067.124.498.78.468 1.558.36 2.545c.025.187.1.363.212.51l1.318 1.697.096.106.68.658.584 1.796.466 2.446c.094.49.492.826.937.826l.2-.02c.52-.116.85-.663.75-1.222l-.48-2.514-.03-.134-.22-.694.94.116 1.14 1.282.46 1.024v1l.01.136.2 1.623v1.534l.02.19.32 1.818v.13h-9.56c-.04-.096-.09-.19-.16-.274L16 64.57l-.41-1.85c-.04-.18-.12-.34-.24-.47l-1.19-1.35c.05-.1.084-.2.102-.31l.1-.592h5.115c.264 0 .48-.23.48-.515 0-1.48-1.057-2.7-2.398-2.822-.48-.67-1.16-1.12-1.91-1.3l.26-2.1zm-4.893 5.706c.242-.292.532-.517.757-.517.41 0 .513-.43.557-.61.08-.31.2-.81.81-1.16.39-.22.96-.37 1.84-.37.13 0 .25.01.37.03.64.11 1.2.5 1.56 1.1.1.15.26.24.44.23.75 0 1.38.54 1.59 1.28H11zM4.3 66.496l.13-.68.28-1.42.513-1.79.603-1.694.442-1.174.004-.004.15.243.275.824v.89c0 .12.018.24.055.35.18.56.393 1.24.447 1.45.01.16.08.47.32 1.29.08.3.29.53.55.65.26.12.56.1.81-.05l1.27-.75c.15-.09.28-.23.37-.4l.46-.9h.39c.11 0 .22-.02.32-.06l1.03-.4c.1-.04.2-.1.29-.18l.71.81.4 1.83c.033.16.103.31.2.43l.61.77H4.3z" fill="#67737B"/><path d="M12.35 8.337c.093.093.21.14.327.14.128 0 .255-.055.35-.164l1.43-1.647c.18-.208.17-.535-.023-.73-.193-.196-.496-.186-.677.022l-1.43 1.648c-.18.208-.17.536.023.73zm-6.138.215c.093.093.21.14.327.14.12 0 .25-.055.35-.163.18-.21.17-.54-.03-.74L5.34 6.25c-.193-.192-.496-.18-.677.026-.18.21-.17.536.022.732L6.21 8.55zm-3.076 3.576h.016l2.232-.08c.264-.008.472-.247.463-.532-.008-.286-.23-.506-.494-.5l-2.232.08c-.26.008-.47.247-.46.533.01.27.22.5.48.5zm6.43-4.916h.017c.264-.01.47-.248.463-.534l-.072-2.41c-.008-.286-.23-.508-.494-.5-.264.01-.472.248-.463.534l.072 2.41c0 .28.22.5.47.5zm1.523.273l.17.034c.19 0 .37-.13.44-.34l.5-1.43c.09-.27-.03-.57-.28-.67-.25-.1-.53.03-.62.3l-.5 1.43c-.1.26.03.56.27.66zM4.16 9.64l1.322.548.17.034c.193 0 .375-.127.448-.333.095-.27-.03-.57-.276-.67L4.5 8.67c-.246-.102-.523.03-.617.298-.095.268.03.566.276.67zM7.5 7.31c.08.192.256.306.44.306l.194-.045c.24-.11.35-.42.242-.68l-.578-1.4c-.107-.26-.39-.37-.632-.26-.242.12-.35.43-.242.69L7.5 7.31zm13.592.59H27.2c.264 0 .48-.23.48-.517 0-.084-.02-.164-.053-.234-.234-.61-.79-1.01-1.4-1.01h-.007c-.307-1-1.17-1.69-2.18-1.69-.695 0-1.344.33-1.78.91-.927.12-1.65.98-1.65 2.02 0 .28.216.52.48.52zm1.395-1.517h.028c.162 0 .313-.088.4-.234.25-.42.67-.67 1.126-.67.7 0 1.27.56 1.34 1.3l.02.08h-3.69c.16-.29.45-.48.78-.49zm8.572 20.113h-2.15v-.226l-.02-.19-.32-1.818v-1.506l-.01-.135-.19-1.62v-1.17c0-.15-.03-.31-.1-.45L27.66 18c-.044-.1-.102-.19-.172-.264l-1.48-1.67c-.156-.174-.36-.285-.585-.31l-1.69-.21-.108-.007h-.71l-.54-.53-1.11-1.42-.214-1.53.63.33.09.03 1.23.37.13.02h1.21l1.01 1.4c.09.12.23.2.38.2h1.03l.83 1.03c.1.12.23.18.37.18.11 0 .22-.04.31-.12.2-.19.23-.51.05-.73l-.97-1.21c-.09-.11-.22-.18-.36-.18h-1.01L24.96 12c-.09-.13-.23-.2-.38-.2H23.2l-1.13-.336-1.253-.685-.44-1.47c-.03-.1-.07-.18-.13-.27l-.54-.85-.34-.74c-.11-.24-.3-.42-.53-.51l-1.07-.42c-.21-.08-.44-.08-.65 0l-1.1.42c-.254.09-.458.3-.564.57l-.616 1.57-.05.17-.697.23-.046.01-1.914.84c-.12.05-.22.16-.266.29L11.036 13l-1.224 1.38h-1.02l-.37-.706c-.1-.19-.3-.29-.496-.256l-3.064.56-.08.02-1.7.65c-.25.09-.38.39-.29.66.07.21.253.34.45.34l.16-.03 1.66-.64 2.693-.49.34.652c.08.16.24.262.41.262h1.502c.13 0 .255-.056.345-.157l1.44-1.61.102-.173.787-2.252 1.7-.74.19-.06-.06.273c-.08.198-.2.64-.51 2.167l-.01.08-.27 2.18-.12.307c-1.66.39-2.05 1.5-2.19 2.03-.81.22-1.49 1.17-1.72 1.84-.05.16-.03.335.06.475.09.14.24.222.4.222h2.25v.04l-.58.995-.56.22h-.78c-.344 0-.663.2-.832.52l-.59 1.12c-.06-.25-.19-.66-.42-1.37v-.89c0-.12-.02-.24-.06-.35l-.37-1.11-.1-.23-.41-.67c-.08-.14-.2-.25-.33-.33l-.66-.4c-.34-.21-.77-.17-1.08.1l-.74.66c-.12.11-.22.25-.28.41l-.53 1.42-.01.02-.62 1.73-.02.065-.53 1.87-.02.09-.29 1.47-.21 1.1H.98c-.53 0-.96.464-.96 1.035 0 .57.43 1.035.95 1.035h30.08c.53 0 .96-.46.96-1.03 0-.57-.43-1.04-.957-1.04zM15.89 13.24c.136-.66.307-1.445.376-1.687.08-.177.18-.54.387-1.77l.41-1.04.38-.145.392.152.2.43.067.124.498.78.468 1.558.36 2.545c.025.187.1.363.212.51l1.318 1.697.096.106.68.658.584 1.796.466 2.446c.094.49.492.826.937.826l.2-.02c.52-.116.85-.663.75-1.222l-.48-2.514-.03-.134-.22-.694.94.116 1.14 1.282.46 1.024v1l.01.136.2 1.623v1.534l.02.19.32 1.818v.13h-9.56c-.04-.096-.09-.19-.16-.274L16 24.57l-.41-1.85c-.04-.18-.12-.34-.24-.47l-1.19-1.35c.05-.1.084-.2.102-.31l.1-.592h5.115c.264 0 .48-.23.48-.515 0-1.48-1.057-2.7-2.398-2.822-.48-.67-1.16-1.12-1.91-1.3l.26-2.1zm-4.893 5.706c.242-.292.532-.517.757-.517.41 0 .513-.43.557-.61.08-.31.2-.81.81-1.16.39-.22.96-.37 1.84-.37.13 0 .25.01.37.03.64.11 1.2.5 1.56 1.1.1.15.26.24.44.23.75 0 1.38.54 1.59 1.28H11zM4.3 26.496l.13-.68.28-1.42.513-1.79.603-1.694.442-1.174.004-.004.15.243.275.824v.89c0 .12.018.24.055.35.18.56.393 1.24.447 1.45.01.16.08.47.32 1.29.08.3.29.53.55.65.26.12.56.1.81-.05l1.27-.75c.15-.09.28-.23.37-.4l.46-.9h.39c.11 0 .22-.02.32-.06l1.03-.4c.1-.04.2-.1.29-.18l.71.81.4 1.83c.033.16.103.31.2.43l.61.77H4.3z" fill="#3A434E"/></g></svg>