<svg width="32" height="232" viewBox="0 0 32 232" xmlns="http://www.w3.org/2000/svg"><g fill="none"><path d="M15.002 123.338c.204-.18.46-.267.726-.242.192.018.37.092.52.213l.015.04c.083.18.26.31.457.31h.07c.195 0 .374-.13.457-.31l.016-.04c.362-.3.882-.3 1.245.03.214.19.532.16.71-.07.18-.23.152-.57-.06-.76-.41-.37-.93-.54-1.464-.49-.342.03-.663.15-.94.35-.277-.2-.598-.32-.94-.35-.532-.05-1.052.12-1.462.49-.214.19-.24.52-.062.75.18.22.498.25.71.06zm-1.488 2.48c.158-.14.38-.15.544-.04.086.178.26.29.45.29h.043c.19 0 .37-.112.45-.29.17-.11.39-.1.55.04.22.19.53.16.71-.066.18-.226.15-.563-.06-.753-.48-.43-1.14-.48-1.66-.17-.51-.31-1.18-.26-1.66.16-.21.19-.24.52-.06.75.18.22.5.25.71.06zm17.484 21.997h-6.3l.27-1.48c.54-.008.837-.16 1.077-.285.198-.102.34-.177.67-.177s.474.074.672.177c.246.127.55.285 1.114.285.57 0 .87-.158 1.12-.285.2-.102.34-.177.67-.177.28 0 .51-.24.51-.534 0-.3-.22-.54-.5-.54-.56 0-.87.16-1.11.28-.2.1-.34.17-.67.17s-.47-.08-.67-.18c-.24-.13-.55-.29-1.11-.29s-.87.16-1.11.28c-.14.07-.26.13-.43.16l.44-2.42c.08.02.17.03.26.01l.36-.09.31.21c.12.07.26.1.39.07l.36-.09.32.21c.12.07.25.1.39.07l.36-.09.32.21c.11.07.25.1.386.06l.36-.09.313.21c.08.05.172.08.27.08l.113-.02.496-.12h.055c.1 0 .2-.03.29-.1.23-.17.288-.5.13-.748l-4.46-6.797c-.08-.12-.196-.2-.33-.22-.134-.025-.27.01-.38.094l-6.324 4.86c-.222.177-.272.51-.11.75.076.11.18.175.29.204l.43.29c.12.07.26.1.39.07l.36-.09.31.21c.12.07.26.1.39.062l.36-.09.316.21c.118.08.257.106.39.07l.36-.09.314.21c.12.08.255.1.39.07l.36-.09.31.21.19.08-.436 2.39c-.23-.117-.53-.24-1.03-.24-.56 0-.87.16-1.113.284-.2.1-.34.17-.67.17s-.47-.07-.67-.18c-.242-.13-.55-.29-1.11-.29s-.87.16-1.113.29c-.195.103-.34.18-.67.18s-.47-.07-.67-.176c-.244-.13-.55-.29-1.11-.29s-.87.16-1.12.283c-.2.1-.34.174-.67.174s-.47-.072-.67-.175c-.244-.13-.55-.29-1.112-.29s-.87.16-1.12.29c-.195.1-.34.178-.67.178s-.47-.07-.67-.172c-.243-.125-.55-.283-1.11-.283-.42 0-.697.087-.91.184.26-.9.67-1.81 1.314-2.56 1.027-1.19 2.496-1.796 4.37-1.796 2.31 0 4.435-.957 5.99-2.69 1.306-1.46 2.115-3.355 2.33-5.43.447.46.74 1.05.833 1.693.11.75-.06 1.5-.49 2.11-.162.232-.12.57.107.75.09.07.195.1.3.1.154 0 .31-.076.405-.217.59-.84.83-1.875.68-2.915-.108-.72-.39-1.38-.82-1.94 1.21-.01 2.37.76 2.82 2 .08.21.27.34.47.34l.183-.036c.26-.107.39-.417.29-.69-.604-1.65-2.14-2.68-3.746-2.68.794-.78 2.02-1.03 3.13-.52.252.12.55-.01.66-.28.11-.27-.01-.586-.267-.7-1.336-.61-2.81-.4-3.88.42-.16-1.39-1.02-2.67-2.353-3.28-.26-.113-.556.01-.667.28-.11.27.003.59.26.706 1.104.507 1.775 1.624 1.78 2.776-1.097-1.24-2.86-1.72-4.41-1.06-.26.11-.38.422-.28.7.106.27.4.402.66.292 1.16-.493 2.49-.13 3.306.81-.68.05-1.33.29-1.89.7-.82.598-1.37 1.49-1.543 2.52-.05.29.13.568.407.62l.09.01c.24 0 .46-.183.5-.44.13-.745.523-1.392 1.12-1.823.403-.29.87-.46 1.35-.51-.366 3.956-3.22 6.55-7.33 6.55-3.226 0-5.707 1.76-7.17 5.087-.158.35-.29.7-.41 1.04-.19-.07-.43-.13-.758-.13h-.08l.286-4.67c.46-.15.98-.22 1.54-.22 3.28 0 5.24-4.38 5.96-6.376.65.08 1.22.41 1.63.927.398.503.58 1.14.52 1.79-.03.29.17.552.45.582l.05.01c.25 0 .47-.205.5-.48.09-.934-.18-1.85-.75-2.58-.364-.47-.83-.825-1.35-1.05.88-.51 2.004-.45 2.824.225.22.18.54.14.71-.097.173-.238.134-.57-.086-.75-1.14-.947-2.7-1.027-3.92-.33.09-.254.22-.496.387-.72.41-.54 1.003-.89 1.67-.98.276-.036.47-.304.436-.596-.034-.296-.287-.5-.564-.46-.93.122-1.757.61-2.33 1.365-.18.23-.326.48-.44.74-.177-.22-.378-.424-.605-.6-.74-.58-1.653-.826-2.58-.7-.275.04-.47.31-.435.6.038.29.29.5.567.46.67-.09 1.33.086 1.86.5.22.17.4.37.54.59-1.346-.35-2.84.15-3.71 1.364-.17.24-.126.57.096.75.09.08.2.11.304.11.155 0 .306-.07.405-.21.67-.932 1.85-1.28 2.87-.92-.67 1.61-2.39 4.98-5 4.98-.5 0-.975.06-1.42.17l.59-9.68c.51.24.94.63 1.24 1.135.39.65.51 1.41.344 2.142-.06.288.11.576.38.644l.114.01c.23 0 .43-.163.49-.41.22-1.02.06-2.07-.47-2.96-.37-.612-.88-1.1-1.48-1.433 1.1-.52 2.46-.3 3.34.648.1.106.23.16.36.16.125 0 .253-.05.35-.15.195-.21.2-.547 0-.757-1.17-1.255-2.97-1.56-4.44-.88.44-1.054 1.47-1.8 2.676-1.8.28 0 .503-.24.503-.53 0-.295-.23-.534-.508-.534-1.46 0-2.73.814-3.4 2.02-.677-1.206-1.946-2.02-3.4-2.02-.28 0-.5.24-.5.534 0 .3.23.537.507.537 1.205 0 2.24.74 2.677 1.8-1.47-.68-3.27-.38-4.44.88-.19.21-.19.55.01.753.097.1.225.15.35.15.13 0 .26-.05.36-.16.88-.945 2.24-1.166 3.34-.646-.6.33-1.11.82-1.472 1.436-.53.89-.7 1.94-.47 2.96.055.244.26.41.49.41l.12-.01c.27-.07.44-.36.374-.647-.16-.732-.04-1.493.35-2.14.283-.484.692-.86 1.18-1.11l-1.2 10.37c-.43.273-.828.61-1.18 1.014-1.14 1.29-1.88 3.2-2.2 5.687-.12.93-.16 1.77-.17 2.37-.29.18-.487.52-.487.91 0 .59.45 1.07 1.004 1.07H31c.56 0 1.01-.48 1.01-1.07s-.452-1.07-1.01-1.07zm-24.4-1.102c-.043.41-.064.783-.072 1.102H6.38c.05-.32.122-.693.22-1.102zm22.782-4.484l-.36.09-.312-.21c-.115-.08-.255-.11-.387-.07l-.36.09-.31-.21c-.11-.08-.25-.11-.38-.07l-.36.09-.31-.21c-.11-.08-.25-.11-.38-.07l-.36.09-.31-.21c-.11-.08-.25-.1-.38-.07l-.36.09-.31-.21c-.11-.08-.25-.1-.39-.07l-.36.09-.31-.21c-.11-.08-.25-.1-.39-.07l-.36.09-.31-.21c-.11-.08-.25-.1-.38-.07l-.36.09-.31-.21-.17-.07 4.95-3.81 3.49 5.31-.18.01zm-21.177 3.82c.198-.11.34-.18.67-.18s.472.07.67.17c.246.12.55.28 1.114.28.563 0 .868-.16 1.114-.29.2-.11.35-.18.67-.18s.48.07.68.17c.25.12.55.28 1.12.28s.87-.16 1.12-.29c.2-.11.34-.18.67-.18s.48.07.67.18c.25.12.55.28 1.12.28.57 0 .87-.16 1.12-.29.2-.1.34-.18.67-.18s.47.07.67.18c.25.13.55.28 1.12.28s.87-.16 1.12-.29c.2-.1.34-.174.67-.174s.48.076.67.18l.16.08-.31 1.684H7.54c.013-.43.05-.963.142-1.55.22-.055.38-.14.522-.21zm-2.898-.18c.197 0 .327.02.442.07-.196.72-.318 1.37-.394 1.87h-.31l.12-1.94.142-.01zm-2.62 1.94c-.052-.46-.1-1.04-.11-1.68.167.08.37.15.653.18l-.165 1.49h-.377zm1.063-6.44l.03-.04-.433 3.91c-.212-.02-.337-.09-.495-.17l-.243-.12c.093-1.27.396-2.62 1.14-3.6zm-2.232 6.44c.006-.34.023-.74.058-1.18.02.44.053.84.09 1.18h-.148z" fill="#206FAC"/><path d="M15.002 83.338c.204-.18.46-.267.726-.242.192.018.37.092.52.213l.015.04c.083.18.26.31.457.31h.07c.195 0 .374-.13.457-.31l.016-.04c.362-.3.882-.3 1.245.03.214.19.532.16.71-.07.18-.23.152-.57-.06-.76-.41-.37-.93-.54-1.464-.49-.342.03-.663.15-.94.35-.277-.2-.598-.32-.94-.35-.532-.05-1.052.12-1.462.49-.214.19-.24.52-.062.75.18.22.498.25.71.06zm-1.488 2.48c.158-.14.38-.15.544-.04.086.178.26.29.45.29h.043c.19 0 .37-.112.45-.29.17-.11.39-.1.55.04.22.19.53.16.71-.066.18-.226.15-.563-.06-.753-.48-.43-1.14-.48-1.66-.17-.51-.31-1.18-.26-1.66.16-.21.19-.24.52-.06.75.18.22.5.25.71.06zm17.484 21.997h-6.3l.27-1.48c.54-.008.837-.16 1.077-.285.198-.102.34-.177.67-.177s.474.074.672.177c.246.127.55.285 1.114.285.57 0 .87-.158 1.12-.285.2-.102.34-.177.67-.177.28 0 .51-.24.51-.534 0-.3-.22-.54-.5-.54-.56 0-.87.16-1.11.28-.2.1-.34.17-.67.17s-.47-.08-.67-.18c-.24-.13-.55-.29-1.11-.29s-.87.16-1.11.28c-.14.07-.26.13-.43.16l.44-2.42c.08.02.17.03.26.01l.36-.09.31.21c.12.07.26.1.39.07l.36-.09.32.21c.12.07.25.1.39.07l.36-.09.32.21c.11.07.25.1.386.06l.36-.09.313.21c.08.05.172.08.27.08l.113-.02.496-.12h.055c.1 0 .2-.03.29-.1.23-.17.288-.5.13-.748L26.65 95.8c-.08-.12-.195-.2-.33-.222-.133-.024-.27.01-.38.095l-6.323 4.86c-.224.177-.274.51-.11.75.074.11.18.175.29.204l.43.29c.118.072.257.1.39.07l.36-.09.31.21c.117.07.257.1.39.063l.36-.09.314.21c.12.08.26.105.39.07l.36-.09.32.21c.12.08.26.1.39.07l.36-.09.31.21.19.08-.43 2.39c-.23-.118-.53-.24-1.03-.24-.56 0-.87.16-1.11.283-.2.1-.34.172-.67.172s-.47-.07-.67-.18c-.24-.13-.55-.29-1.11-.29s-.87.16-1.11.286c-.197.11-.34.18-.67.18s-.47-.07-.67-.17c-.246-.13-.55-.29-1.11-.29s-.87.16-1.12.29c-.2.1-.34.18-.67.18s-.47-.073-.67-.176c-.246-.13-.55-.29-1.114-.29s-.87.16-1.12.29c-.195.1-.34.178-.67.178s-.47-.07-.67-.17c-.243-.127-.55-.285-1.11-.285-.42 0-.697.087-.91.184.26-.897.67-1.807 1.314-2.56 1.027-1.19 2.496-1.795 4.37-1.795 2.31 0 4.435-.955 5.99-2.69 1.306-1.456 2.115-3.353 2.33-5.43.447.46.74 1.05.833 1.695.11.75-.062 1.5-.49 2.11-.164.232-.12.57.105.75.09.07.2.1.3.1.16 0 .31-.076.41-.217.59-.84.83-1.876.68-2.916-.106-.72-.39-1.38-.817-1.94 1.21-.01 2.37.76 2.82 2 .08.21.27.34.47.34l.186-.034c.26-.103.39-.413.29-.69-.605-1.645-2.14-2.68-3.747-2.68.794-.78 2.02-1.03 3.13-.52.252.12.55-.006.66-.28.11-.27-.01-.58-.267-.7-1.335-.61-2.81-.4-3.88.424-.16-1.39-1.02-2.67-2.352-3.28-.26-.113-.555.01-.666.28-.11.27.005.588.26.706 1.106.507 1.777 1.624 1.78 2.776-1.095-1.24-2.86-1.72-4.41-1.06-.26.11-.38.423-.28.7.108.27.4.403.66.293 1.16-.49 2.49-.13 3.308.81-.68.05-1.33.29-1.89.7-.82.6-1.37 1.49-1.543 2.52-.05.29.13.57.406.62l.09.01c.24 0 .46-.18.5-.44.13-.74.526-1.39 1.12-1.82.406-.29.87-.46 1.35-.51-.363 3.96-3.22 6.55-7.33 6.55-3.223 0-5.704 1.76-7.17 5.09-.155.35-.29.7-.41 1.04-.19-.07-.43-.13-.755-.13H5.3l.286-4.67c.46-.15.98-.22 1.54-.22 3.28 0 5.24-4.38 5.96-6.374.65.08 1.22.406 1.63.923.394.504.58 1.14.515 1.79-.03.29.17.553.45.583l.05.008c.25 0 .47-.202.5-.48.09-.93-.18-1.85-.75-2.58-.36-.47-.83-.822-1.35-1.05.88-.51 2.008-.45 2.828.228.22.18.54.14.71-.097.17-.235.13-.57-.09-.75-1.14-.944-2.7-1.024-3.92-.326.09-.257.22-.5.387-.72.41-.54 1-.89 1.67-.98.275-.04.47-.307.435-.6-.034-.292-.287-.5-.564-.46-.93.126-1.756.61-2.33 1.37-.18.23-.325.48-.44.74-.176-.22-.38-.423-.604-.6-.74-.58-1.654-.825-2.58-.7-.276.04-.472.31-.436.6.037.29.29.5.566.46.67-.09 1.33.087 1.856.5.22.17.4.37.545.59-1.344-.35-2.84.15-3.71 1.365-.17.24-.124.57.098.75.09.08.2.11.307.11.153 0 .304-.07.403-.21.67-.935 1.85-1.28 2.87-.92-.67 1.61-2.39 4.98-5 4.98-.5 0-.976.06-1.42.17l.59-9.68c.51.24.94.63 1.24 1.133.39.65.51 1.41.343 2.143-.06.287.106.575.377.643l.115.01c.23 0 .43-.164.49-.41.222-1.02.06-2.07-.47-2.96-.368-.61-.87-1.1-1.478-1.43 1.105-.52 2.46-.3 3.34.65.1.103.23.16.36.16.128 0 .256-.05.355-.15.19-.21.2-.55 0-.76-1.18-1.245-2.98-1.55-4.45-.87.44-1.054 1.47-1.8 2.673-1.8.28 0 .502-.24.502-.53 0-.295-.227-.534-.506-.534-1.454 0-2.724.814-3.4 2.02-.67-1.206-1.94-2.02-3.392-2.02-.28 0-.505.24-.505.534 0 .294.225.533.504.533 1.208 0 2.24.74 2.68 1.8C3.6 86 1.8 86.3.63 87.56c-.2.21-.2.55 0 .75.094.1.22.15.35.15.13 0 .26-.05.36-.16.88-.94 2.235-1.16 3.34-.64-.6.33-1.11.82-1.476 1.434-.53.89-.7 1.94-.473 2.96.05.24.26.41.49.41l.12-.01c.27-.07.44-.36.37-.65-.16-.74-.04-1.5.35-2.14.29-.49.7-.86 1.18-1.11L4.06 98.9c-.43.273-.822.61-1.18 1.014-1.14 1.29-1.88 3.202-2.2 5.686-.12.936-.15 1.77-.16 2.37-.29.187-.49.526-.49.914 0 .59.45 1.07 1.01 1.07H31c.56 0 1.01-.48 1.01-1.07s-.452-1.07-1.01-1.07zm-24.4-1.102c-.043.41-.064.783-.072 1.102H6.38c.05-.32.122-.693.22-1.102zm22.782-4.484l-.36.09-.312-.21c-.115-.08-.255-.11-.387-.07l-.36.09-.31-.21c-.11-.08-.25-.11-.38-.07l-.36.09-.31-.21c-.11-.08-.25-.11-.38-.07l-.36.09-.31-.21c-.11-.08-.25-.1-.38-.07l-.36.09-.31-.21c-.11-.08-.25-.1-.39-.07l-.36.09-.31-.21c-.11-.08-.25-.1-.39-.07l-.36.09-.31-.21c-.11-.08-.25-.1-.38-.07l-.36.09-.31-.21-.17-.07 4.94-3.81 3.49 5.31-.18.01zm-21.177 3.82c.198-.11.34-.18.67-.18s.472.07.67.17c.246.12.55.28 1.114.28.563 0 .868-.16 1.114-.29.2-.11.35-.18.67-.18s.48.07.68.17c.25.12.55.28 1.12.28s.87-.16 1.12-.29c.2-.11.34-.18.67-.18s.48.07.67.18c.25.12.55.28 1.12.28.57 0 .87-.16 1.12-.29.2-.1.34-.18.67-.18s.47.07.67.18c.25.13.55.28 1.12.28s.87-.16 1.12-.29c.2-.1.34-.174.67-.174s.48.076.67.18l.16.08-.31 1.684H7.54c.013-.43.05-.963.142-1.55.22-.055.38-.14.522-.21zm-2.898-.18c.197 0 .327.02.442.07-.196.72-.318 1.37-.394 1.87h-.31l.12-1.94.142-.01zm-2.62 1.94c-.052-.46-.1-1.04-.11-1.68.167.08.37.15.653.18l-.165 1.49h-.377zm1.063-6.44l.03-.04-.433 3.91c-.212-.02-.337-.09-.495-.17l-.243-.12c.093-1.27.396-2.62 1.14-3.6zm-2.232 6.44c.006-.34.023-.74.058-1.18.02.44.053.84.09 1.18h-.148z" fill="#fff"/><path d="M15.002 43.338c.204-.18.46-.267.726-.242.192.018.37.092.52.213l.015.04c.083.18.26.31.457.31h.07c.195 0 .374-.13.457-.31l.016-.04c.362-.3.882-.3 1.245.03.214.19.532.16.71-.07.18-.23.152-.57-.06-.76-.41-.37-.93-.54-1.464-.49-.342.03-.663.15-.94.35-.277-.2-.598-.32-.94-.35-.532-.05-1.052.12-1.462.49-.214.19-.24.52-.062.75.18.22.498.25.71.06zm-1.488 2.48c.158-.14.38-.15.544-.04.086.178.26.29.45.29h.043c.19 0 .37-.112.45-.29.17-.11.39-.1.55.04.22.19.53.16.71-.066.18-.226.15-.563-.06-.753-.48-.43-1.14-.48-1.66-.17-.51-.31-1.18-.26-1.66.16-.21.19-.24.52-.06.75.18.22.5.25.71.06zm17.484 21.997h-6.3l.27-1.48c.54-.008.837-.16 1.077-.285.198-.102.34-.177.67-.177s.474.074.672.177c.246.127.55.285 1.114.285.57 0 .87-.158 1.12-.285.2-.102.34-.177.67-.177.28 0 .51-.24.51-.534 0-.3-.22-.54-.5-.54-.56 0-.87.16-1.11.28-.2.1-.34.17-.67.17s-.47-.08-.67-.18c-.24-.13-.55-.29-1.11-.29s-.87.16-1.11.28c-.14.07-.26.13-.43.16l.44-2.42c.08.02.17.03.26.01l.36-.09.31.21c.12.07.26.1.39.07l.36-.09.32.21c.12.07.25.1.39.07l.36-.09.32.21c.11.07.25.1.386.06l.36-.09.313.21c.08.05.172.08.27.08l.113-.02.496-.12h.055c.1 0 .2-.03.29-.1.23-.17.288-.5.13-.748L26.65 55.8c-.08-.12-.195-.2-.33-.222-.133-.024-.27.01-.38.095L19.6 60.55c-.225.176-.275.51-.11.75.073.11.18.174.29.203l.43.29c.117.075.256.1.39.07l.36-.09.31.21c.116.074.256.1.39.066l.36-.09.313.21c.117.08.256.1.39.07l.36-.09.313.21c.115.08.254.1.387.07l.36-.09.31.21.19.08-.436 2.39c-.23-.12-.53-.24-1.027-.24-.564 0-.87.16-1.115.28-.2.1-.34.17-.67.17s-.473-.07-.67-.18c-.247-.13-.552-.29-1.115-.29s-.87.16-1.115.28c-.195.1-.34.18-.67.18s-.47-.07-.67-.18c-.244-.13-.55-.29-1.11-.29s-.87.16-1.117.28c-.198.1-.34.17-.67.17s-.47-.077-.67-.18c-.246-.13-.55-.29-1.114-.29s-.87.16-1.117.29c-.196.1-.34.176-.67.176s-.47-.074-.67-.177c-.244-.127-.55-.285-1.112-.285-.42 0-.695.084-.91.18.26-.9.67-1.81 1.316-2.56 1.03-1.19 2.5-1.797 4.37-1.797 2.31 0 4.44-.958 5.99-2.69 1.31-1.46 2.12-3.356 2.33-5.43.45.46.74 1.05.84 1.692.11.75-.06 1.5-.49 2.11-.16.234-.12.57.11.75.09.07.2.1.3.1.16 0 .31-.075.41-.216.59-.84.83-1.87.68-2.91-.1-.72-.39-1.38-.81-1.94 1.21-.014 2.37.76 2.82 2 .08.21.27.34.47.34l.188-.037c.26-.104.39-.414.29-.69-.61-1.646-2.14-2.68-3.75-2.68.796-.78 2.023-1.03 3.13-.52.254.12.55-.007.66-.278.11-.27-.01-.583-.264-.7-1.332-.61-2.803-.4-3.873.424-.163-1.39-1.02-2.67-2.356-3.28-.26-.112-.555.01-.666.28-.11.27.007.59.26.707 1.108.507 1.78 1.624 1.78 2.776-1.093-1.24-2.86-1.72-4.41-1.06-.26.11-.38.422-.28.7.11.27.4.402.66.292 1.16-.495 2.49-.13 3.31.81-.68.05-1.33.29-1.89.7-.82.596-1.37 1.49-1.544 2.52-.05.29.13.566.403.62l.09.01c.24 0 .46-.185.5-.44.128-.747.526-1.394 1.12-1.825.406-.29.868-.46 1.35-.506-.363 3.954-3.22 6.55-7.33 6.55-3.223 0-5.704 1.76-7.172 5.085-.154.35-.29.7-.41 1.042-.19-.07-.43-.126-.754-.126h-.08l.28-4.67c.46-.15.98-.226 1.54-.226 3.28 0 5.24-4.38 5.96-6.376.65.08 1.22.41 1.63.925.397.506.58 1.14.518 1.79-.03.29.174.555.45.585l.053.005c.255 0 .475-.2.5-.48.09-.93-.175-1.85-.745-2.58-.363-.47-.83-.82-1.35-1.05.88-.51 2.005-.45 2.825.23.22.18.54.14.71-.093.17-.237.132-.57-.088-.75-1.14-.946-2.7-1.026-3.92-.328.09-.26.22-.5.386-.72.41-.54 1.003-.89 1.67-.98.276-.04.472-.31.436-.6-.03-.297-.287-.5-.56-.46-.93.12-1.76.61-2.33 1.364-.18.236-.33.48-.44.746-.18-.224-.38-.426-.61-.6-.74-.58-1.654-.828-2.58-.7-.276.04-.472.305-.436.6.036.29.29.5.565.46.67-.09 1.327.084 1.855.496.22.17.4.37.55.59-1.343-.35-2.84.15-3.71 1.367-.17.24-.123.57.1.75.094.08.2.11.31.11.15 0 .303-.07.4-.21.67-.933 1.85-1.28 2.87-.92-.673 1.61-2.388 4.98-5 4.98-.5 0-.973.06-1.422.17l.59-9.678c.515.24.945.63 1.245 1.13.387.65.51 1.41.346 2.15-.066.284.102.572.373.64l.112.01c.23 0 .437-.167.49-.41.228-1.02.06-2.07-.47-2.96-.362-.61-.87-1.1-1.472-1.43 1.106-.52 2.46-.3 3.34.646.1.1.23.16.36.16.13 0 .26-.05.356-.15.193-.21.2-.55 0-.76-1.207-1.24-3-1.54-4.477-.86.44-1.055 1.47-1.8 2.675-1.8.28 0 .504-.24.504-.53 0-.296-.223-.535-.5-.535-1.456 0-2.726.812-3.4 2.02-.672-1.208-1.94-2.02-3.394-2.02-.28 0-.503.24-.503.532 0 .295.227.534.506.534 1.205 0 2.24.74 2.677 1.8-1.47-.68-3.27-.38-4.44.88-.2.21-.2.55 0 .75.09.1.22.15.35.15.13 0 .26-.05.36-.16.88-.94 2.23-1.16 3.34-.64-.6.33-1.11.82-1.48 1.44-.53.89-.7 1.94-.478 2.96.052.24.26.41.49.41l.12-.01c.27-.07.44-.36.37-.65-.16-.74-.04-1.5.35-2.14.29-.49.698-.86 1.18-1.11L4.053 58.9c-.43.273-.82.61-1.18 1.014C1.73 61.204.99 63.116.67 65.6c-.12.936-.157 1.77-.163 2.37-.292.187-.488.526-.488.914 0 .59.45 1.07 1 1.07H31c.56 0 1.01-.48 1.01-1.07s-.452-1.07-1.01-1.07zm-24.4-1.102c-.043.41-.064.783-.072 1.102H6.38c.05-.32.122-.693.22-1.102zM29.38 62.23l-.36.09-.312-.21c-.115-.08-.255-.104-.387-.07l-.36.09-.31-.21c-.11-.077-.25-.102-.38-.07l-.36.09-.31-.21c-.11-.076-.25-.102-.38-.068l-.36.09-.31-.21c-.11-.078-.25-.102-.38-.07l-.36.09-.31-.21c-.11-.076-.25-.1-.39-.068l-.36.09-.31-.21c-.11-.077-.25-.102-.39-.07l-.36.09-.31-.21c-.11-.077-.25-.102-.38-.068l-.36.09-.31-.21-.17-.07 4.94-3.806 3.49 5.32-.18.01zM8.203 66.05c.198-.102.34-.177.67-.177s.472.074.67.177c.246.127.55.285 1.114.285.563 0 .868-.158 1.114-.285.2-.102.35-.177.67-.177s.48.074.68.177c.25.127.55.285 1.12.285s.87-.158 1.12-.285c.2-.102.34-.177.67-.177s.48.074.67.177c.25.127.55.285 1.12.285.57 0 .87-.158 1.12-.285.2-.102.34-.177.67-.177s.47.074.67.177c.25.127.55.285 1.12.285s.87-.158 1.12-.285c.2-.102.34-.177.67-.177s.48.074.67.177l.16.08-.31 1.686H7.54c.013-.43.05-.966.142-1.552.22-.058.38-.14.522-.214zm-2.898-.177c.197 0 .327.027.442.07-.196.72-.318 1.37-.394 1.872h-.31l.12-1.936.142-.01zm-2.62 1.942c-.052-.454-.1-1.037-.11-1.682.167.08.37.154.653.186l-.165 1.49h-.377zm1.063-6.438l.03-.037-.433 3.916c-.212-.022-.337-.085-.495-.167l-.243-.12c.093-1.28.396-2.62 1.14-3.6zm-2.232 6.438c.006-.335.023-.737.058-1.18.02.438.053.838.09 1.18h-.148z" fill="#67737B"/><path d="M15.002 3.338c.204-.18.46-.267.726-.242.192.018.37.092.52.213l.015.04c.083.18.26.31.457.31h.07c.195 0 .374-.13.457-.31l.016-.04c.362-.3.882-.3 1.245.03.214.19.532.16.71-.07.18-.23.152-.57-.06-.76-.41-.37-.93-.54-1.464-.49-.342.03-.663.15-.94.35-.277-.2-.598-.32-.94-.35-.532-.05-1.052.12-1.462.49-.214.19-.24.52-.062.75.18.22.498.25.71.06zm-1.488 2.48c.158-.14.38-.15.544-.04.086.178.26.29.45.29h.043c.19 0 .37-.112.45-.29.17-.11.39-.1.55.04.22.19.53.16.71-.066.18-.226.15-.563-.06-.753-.48-.43-1.14-.48-1.66-.17-.51-.31-1.18-.26-1.66.16-.21.19-.24.52-.06.75.18.22.5.25.71.06zm17.484 21.997h-6.3l.27-1.48c.54-.008.837-.16 1.077-.285.198-.102.34-.177.67-.177s.474.074.672.177c.246.127.55.285 1.114.285.57 0 .87-.158 1.12-.285.2-.102.34-.177.67-.177.28 0 .51-.24.51-.534 0-.3-.22-.54-.5-.54-.56 0-.87.16-1.11.28-.2.1-.34.17-.67.17s-.47-.08-.67-.18c-.24-.13-.55-.29-1.11-.29s-.87.16-1.11.28c-.14.07-.26.13-.43.16l.44-2.42c.08.02.17.03.26.01l.36-.09.31.21c.12.07.26.1.39.07l.36-.09.32.21c.12.07.25.1.39.07l.36-.09.32.21c.11.07.25.1.386.06l.36-.09.313.21c.08.05.172.08.27.08l.113-.02.496-.12h.055c.1 0 .2-.03.29-.1.23-.17.288-.5.13-.748L26.65 15.8c-.08-.12-.195-.2-.33-.222-.133-.024-.27.01-.38.095L19.6 20.55c-.225.176-.275.51-.11.75.073.11.18.174.29.203l.43.29c.117.075.256.1.39.07l.36-.09.31.21c.116.074.256.1.39.066l.36-.09.313.21c.117.08.256.1.39.07l.36-.09.313.21c.115.08.254.1.387.07l.36-.09.31.21.19.08-.436 2.39c-.23-.12-.53-.24-1.027-.24-.564 0-.87.16-1.115.28-.2.1-.34.17-.67.17s-.473-.07-.67-.18c-.247-.13-.552-.29-1.115-.29s-.87.16-1.115.28c-.195.1-.34.18-.67.18s-.47-.07-.67-.18c-.244-.13-.55-.29-1.11-.29s-.87.16-1.117.28c-.198.1-.34.17-.67.17s-.47-.077-.67-.18c-.246-.13-.55-.29-1.114-.29s-.87.16-1.117.29c-.196.1-.34.176-.67.176s-.47-.074-.67-.177c-.244-.127-.55-.285-1.112-.285-.42 0-.695.084-.91.18.26-.9.67-1.81 1.316-2.56 1.03-1.19 2.5-1.797 4.37-1.797 2.31 0 4.44-.958 5.99-2.69 1.31-1.46 2.12-3.356 2.33-5.43.45.46.74 1.05.84 1.692.11.75-.06 1.5-.49 2.11-.16.234-.12.57.11.75.09.07.2.1.3.1.16 0 .31-.075.41-.216.59-.84.83-1.87.68-2.91-.1-.72-.39-1.38-.81-1.94 1.21-.014 2.37.76 2.82 2 .08.21.27.34.47.34l.188-.037c.26-.104.39-.414.29-.69-.61-1.646-2.14-2.68-3.75-2.68.796-.78 2.023-1.03 3.13-.52.254.12.55-.007.66-.278.11-.27-.01-.583-.264-.7-1.332-.61-2.803-.4-3.873.424-.163-1.39-1.02-2.67-2.356-3.28-.26-.112-.555.01-.666.28-.11.27.007.59.26.707 1.108.507 1.78 1.624 1.78 2.776-1.093-1.24-2.86-1.72-4.41-1.06-.26.11-.38.422-.28.7.11.27.4.402.66.292 1.16-.495 2.49-.13 3.31.81-.68.05-1.33.29-1.89.7-.82.596-1.37 1.49-1.544 2.52-.05.29.13.566.403.62l.09.01c.24 0 .46-.185.5-.44.128-.747.526-1.394 1.12-1.825.406-.29.868-.46 1.35-.506-.363 3.954-3.22 6.55-7.33 6.55-3.223 0-5.704 1.76-7.172 5.085-.154.35-.29.7-.41 1.042-.19-.07-.43-.126-.754-.126h-.08l.28-4.67c.46-.15.98-.226 1.54-.226 3.28 0 5.24-4.38 5.96-6.376.65.08 1.22.41 1.63.925.397.506.58 1.14.518 1.79-.03.29.174.555.45.585l.053.005c.255 0 .475-.2.5-.48.09-.93-.175-1.85-.745-2.58-.363-.47-.83-.82-1.35-1.05.88-.51 2.005-.45 2.825.23.22.18.54.14.71-.093.17-.237.132-.57-.088-.75-1.14-.946-2.7-1.026-3.92-.328.09-.26.22-.5.386-.72.41-.54 1.003-.89 1.67-.98.276-.04.472-.31.436-.6-.03-.297-.287-.5-.56-.46-.93.12-1.76.61-2.33 1.364-.18.236-.33.48-.44.746-.18-.224-.38-.426-.61-.6-.74-.58-1.654-.828-2.58-.7-.276.04-.472.305-.436.6.036.29.29.5.565.46.67-.09 1.327.084 1.855.496.22.17.4.37.55.59-1.343-.35-2.84.15-3.71 1.367-.17.24-.123.57.1.75.094.08.2.11.31.11.15 0 .303-.07.4-.21.67-.933 1.85-1.28 2.87-.92-.673 1.61-2.388 4.98-5 4.98-.5 0-.973.06-1.422.17L6.3 8.49c.515.24.945.63 1.245 1.13.385.65.51 1.41.344 2.15-.07.286.1.574.37.642l.11.01c.23 0 .437-.167.49-.41.228-1.02.06-2.07-.47-2.96C8 8.49 7.49 8 6.89 7.662c1.1-.52 2.454-.3 3.34.65.1.11.23.16.36.16.123 0 .25-.05.35-.15.197-.2.2-.54.004-.75-1.2-1.23-2.998-1.54-4.47-.86.438-1.05 1.472-1.8 2.676-1.8.28 0 .503-.24.503-.53 0-.295-.22-.534-.5-.534-1.45 0-2.72.813-3.39 2.02C5.09 4.65 3.82 3.84 2.368 3.84c-.28 0-.506.24-.506.533 0 .295.224.534.503.534 1.205 0 2.24.75 2.677 1.8-1.47-.68-3.27-.37-4.444.88-.193.21-.19.55.008.76.096.11.224.16.35.16.13 0 .26-.05.36-.16.88-.94 2.237-1.16 3.34-.64-.6.33-1.11.82-1.474 1.434-.53.89-.7 1.94-.475 2.96.054.25.26.41.49.41l.116-.01c.27-.06.44-.35.378-.64-.16-.73-.04-1.5.34-2.14.29-.48.7-.86 1.19-1.1L4.05 18.9c-.43.273-.825.61-1.18 1.014C1.73 21.204.99 23.116.67 25.6c-.12.936-.157 1.77-.163 2.37-.292.187-.488.526-.488.914 0 .59.45 1.07 1 1.07H31c.56 0 1.01-.48 1.01-1.07s-.452-1.07-1.01-1.07zm-24.4-1.102c-.043.41-.064.783-.072 1.102H6.38c.05-.32.122-.693.22-1.102zM29.38 22.23l-.36.09-.312-.21c-.115-.08-.255-.104-.387-.07l-.36.09-.31-.21c-.11-.077-.25-.102-.38-.07l-.36.09-.31-.21c-.11-.076-.25-.102-.38-.068l-.36.09-.31-.21c-.11-.078-.25-.102-.38-.07l-.36.09-.31-.21c-.11-.076-.25-.1-.39-.068l-.36.09-.31-.21c-.11-.077-.25-.102-.39-.07l-.36.09-.31-.21c-.11-.077-.25-.102-.38-.068l-.36.09-.31-.21-.17-.07 4.94-3.806 3.49 5.32-.18.01zM8.203 26.05c.198-.102.34-.177.67-.177s.472.074.67.177c.246.127.55.285 1.114.285.563 0 .868-.158 1.114-.285.2-.102.35-.177.67-.177s.48.074.68.177c.25.127.55.285 1.12.285s.87-.158 1.12-.285c.2-.102.34-.177.67-.177s.48.074.67.177c.25.127.55.285 1.12.285.57 0 .87-.158 1.12-.285.2-.102.34-.177.67-.177s.47.074.67.177c.25.127.55.285 1.12.285s.87-.158 1.12-.285c.2-.102.34-.177.67-.177s.48.074.67.177l.16.08-.31 1.686H7.54c.013-.43.05-.966.142-1.552.22-.058.38-.14.522-.214zm-2.898-.177c.197 0 .327.027.442.07-.196.72-.318 1.37-.394 1.872h-.31l.12-1.936.142-.01zm-2.62 1.942c-.052-.454-.1-1.037-.11-1.682.167.08.37.154.653.186l-.165 1.49h-.377zm1.063-6.438l.03-.037-.433 3.916c-.212-.022-.337-.085-.495-.167l-.243-.12c.093-1.28.396-2.62 1.14-3.6zm-2.232 6.438c.006-.335.023-.737.058-1.18.02.438.053.838.09 1.18h-.148z" fill="#3A434E"/></g></svg>