<svg width="32" height="232" viewBox="0 0 32 232" xmlns="http://www.w3.org/2000/svg"><g fill="none"><path d="M31.012 148.846h-1.324v-6.407h.218c.273 0 .495-.24.495-.54 0-.3-.22-.53-.49-.53h-.22v-1.74c0-.4-.2-.74-.49-.92v-5.23c0-.14-.05-.27-.13-.36v-4.47c0-.27-.19-.5-.43-.53v-1.35c0-.3-.22-.54-.49-.54h-.47v-1.2c.23-.05.4-.26.4-.52 0-.29-.22-.53-.49-.53h-.01c-.27-.63-.94-1.12-1.34-1.37v-.39c.22-.06.38-.26.38-.52s-.16-.47-.39-.52c-.04-.24-.24-.42-.48-.42s-.44.18-.48.42c-.22.05-.39.26-.39.52s.16.46.38.52v.39c-.402.25-1.073.73-1.34 1.36h-.02c-.277 0-.498.23-.498.53 0 .26.17.47.4.52v1.2h-.47c-.274 0-.496.23-.496.53v1.35c-.246.03-.436.25-.436.52v1.5l-5.83-3.95v-.84h.04c.27 0 .49-.24.49-.53 0-.29-.22-.53-.5-.53h-.04v-.048c0-.29-.22-.53-.493-.53-.27 0-.492.24-.492.53v.05h-.04c-.272 0-.494.24-.494.53 0 .3.22.536.494.536h.04v.832l-5.83 3.95v-1.508c0-.27-.19-.49-.433-.528v-1.35c0-.29-.22-.53-.49-.53h-.47v-1.2c.225-.047.395-.26.395-.52 0-.29-.22-.53-.49-.53H8.2c-.268-.63-.94-1.12-1.346-1.37v-.387c.22-.06.382-.267.382-.52 0-.26-.17-.47-.393-.52-.047-.244-.246-.424-.484-.424-.24 0-.44.18-.49.42-.23.052-.39.265-.39.52s.16.462.38.52v.39c-.41.25-1.08.733-1.35 1.364H4.5c-.28 0-.5.24-.5.53 0 .26.17.47.4.52v1.2h-.47c-.275 0-.497.24-.497.53v1.35c-.246.03-.436.26-.436.53v4.47c-.08.097-.13.22-.13.358v5.223c-.29.18-.49.52-.49.92v1.74h-.22c-.274 0-.496.23-.496.53 0 .29.22.53.5.53h.22v6.405H1.04c-.548 0-.99.476-.99 1.063s.443 1.06.99 1.06h29.97c.547 0 .99-.47.99-1.06s-.443-1.06-.99-1.06zm-24.667-25.29c.23.14.434.297.594.447H5.75c.16-.15.363-.306.595-.448zm-.966 1.51h1.93v1.19H5.38v-1.19zm4.32 7.178h12.65v.668H9.7v-.668zm16-8.69c.21.133.42.29.59.45H25.1c.16-.15.364-.307.595-.45zm-.97 1.512h1.93v1.19h-1.93v-1.19zm-5.3 20.048c-.06-.075-1.34-1.82-3.42-1.82s-3.37 1.745-3.42 1.82c-.07.092-.11.207-.11.325v3.4h-1.16v-6.41h9.37v6.4h-1.16v-3.41c0-.12-.04-.24-.11-.33zm-11.61.353v3.38H6.71v-3.38h-.99v3.38H4.34v-4.49h6.01v4.49H8.82v-3.38h-.99zm-3.49-3.028h6.01v.85h-6v-.86zm23.36-1.07h-5.83l.2-.68h5.63v.67zm0 7.47h-1.38v-3.38h-.99v3.38h-1.11v-3.38h-.99v3.38h-1.53v-4.49h6.01v4.49zm-15.11-10.27v-4.6h6.85v5.13h-.6v-2.93c0-.3-.22-.53-.5-.53h-.99c-.2-.59-.73-1.01-1.35-1.01s-1.14.42-1.34 1h-.98c-.28 0-.5.23-.5.53v2.92h-.6v-.53zM11 140.7l-.16-.54H21.2l-.157.53-.2.673h-9.63l-.2-.676zm3.18-2.13v-1.86h.9c.273 0 .495-.24.495-.54 0-.26.195-.476.44-.476s.44.213.44.473c0 .293.22.53.494.53h.9v2.394h-3.67v-.53zm7.507 3.86h6.01v.85h-6v-.854zm.65-3.87v.53h-1.9v-5.13h1.91v4.6zm-12.644 0v-4.6h1.91v5.13h-1.9v-.53zm-5.36 2.126h5.63l.2.675H4.34v-.67zm9.15 8.146v-3.21c.3-.347 1.224-1.28 2.534-1.28 1.3 0 2.232.936 2.532 1.28v3.742h-5.06v-.534zm13.1-10.273v-1.25c-.02-.51-.41-.91-.886-.91-.477 0-.865.4-.887.91v1.25h-1.48v-4.55h4.87v4.55h-1.61zm-2.82-11.26h3.868v.81h-3.86v-.82zm-.432 3.52v-1.64h4.74v3.76h-1.48v-1.34c-.02-.51-.41-.91-.88-.91-.46 0-.84.39-.88.88v1.36h-1.48v-2.12zm-14.63.34v1.78H7.23v-1.34l-.002-.04c-.036-.49-.417-.87-.883-.87-.476 0-.865.4-.887.91v1.33H3.98v-3.76h4.734v1.99zm-4.3-3.86h3.87v.81H4.41v-.82zm-.56 6.7h4.87v4.55H7.23v-1.25c-.023-.51-.41-.91-.887-.91-.476 0-.865.4-.887.91v1.25H3.85V134zm12.13-6.85h.05l.05-.01 5.92 4.01h-3.13v-.93c0-.3-.22-.54-.49-.54s-.49.24-.49.53v.93H14.2v-.94c0-.3-.22-.53-.493-.53s-.495.24-.495.53v.93h-3.14l5.92-4.01zm-.17 2.75c.07.03.14.05.22.05.1 0 .19-.03.28-.09.11-.08.19-.2.21-.34.03-.14 0-.28-.07-.4l-.06-.08c-.11-.12-.26-.17-.41-.16-.11.01-.21.06-.29.15-.15.16-.19.41-.09.61.05.1.13.19.22.24z" fill="#206FAC"/><path d="M31.012 108.846h-1.324v-6.407h.218c.273 0 .495-.24.495-.54 0-.3-.22-.53-.49-.53h-.22v-1.74c0-.4-.2-.74-.49-.92v-5.22c0-.14-.05-.27-.13-.36v-4.47c0-.27-.19-.49-.43-.53v-1.35c0-.3-.22-.53-.49-.53h-.47v-1.2c.23-.05.4-.26.4-.52 0-.3-.22-.53-.49-.53h-.01c-.27-.63-.94-1.12-1.34-1.37v-.39c.22-.06.38-.27.38-.52 0-.26-.16-.47-.39-.52-.04-.25-.24-.43-.48-.43s-.44.18-.48.42c-.22.05-.39.26-.39.52s.16.46.38.51v.39c-.402.25-1.073.73-1.34 1.37h-.02c-.277 0-.498.24-.498.53 0 .26.17.47.4.52v1.2h-.47c-.274 0-.496.24-.496.53v1.35c-.246.03-.436.25-.436.52v1.5l-5.83-3.94v-.84h.04c.27 0 .49-.24.49-.53 0-.3-.224-.53-.5-.53h-.044v-.05c0-.297-.22-.53-.497-.53-.27 0-.49.24-.49.53v.045h-.04c-.27 0-.49.234-.49.53 0 .29.22.53.5.53h.045v.833l-5.83 3.95v-1.5c0-.27-.19-.5-.44-.53v-1.35c0-.3-.22-.54-.49-.54h-.47v-1.2c.227-.04.397-.26.397-.52 0-.29-.22-.53-.49-.53H8.2c-.268-.63-.94-1.12-1.346-1.37v-.38c.22-.058.382-.267.382-.518 0-.26-.17-.47-.393-.52-.047-.245-.246-.425-.484-.425-.24 0-.44.18-.49.42-.23.054-.39.267-.39.52s.16.464.38.52v.39c-.41.25-1.08.737-1.35 1.37H4.5c-.28 0-.5.24-.5.53 0 .26.17.474.4.52v1.2h-.47c-.275 0-.497.238-.497.53V88.1c-.246.04-.436.26-.436.53v4.47c-.08.1-.13.22-.13.36v5.23c-.29.184-.49.527-.49.92v1.74h-.22c-.274 0-.496.24-.496.53 0 .296.22.534.5.534h.22v6.41H1.04c-.548 0-.99.476-.99 1.063s.443 1.06.99 1.06h29.97c.547 0 .99-.47.99-1.06s-.443-1.06-.99-1.06zM6.345 83.556c.23.14.434.297.594.447H5.75c.16-.15.363-.307.595-.448zm-.966 1.51h1.93v1.19H5.38v-1.19zm4.32 7.178h12.65v.668H9.7v-.668zm16-8.69c.21.133.42.29.59.45H25.1c.16-.15.365-.308.596-.45zm-.97 1.512h1.93v1.19h-1.93v-1.19zm-5.3 20.048c-.06-.075-1.34-1.82-3.42-1.82s-3.37 1.745-3.42 1.82c-.07.092-.11.207-.11.325v3.4h-1.16v-6.41h9.37v6.4h-1.16v-3.41c0-.12-.04-.24-.11-.33zm-11.61.353v3.38H6.71v-3.38h-.99v3.38H4.34v-4.49h6.01v4.49H8.82v-3.38h-.99zm-3.49-3.028h6.01v.85h-6v-.86zm23.36-1.07h-5.83l.2-.68h5.63v.67zm0 7.47h-1.38v-3.38h-.99v3.38h-1.11v-3.38h-.99v3.38h-1.53v-4.49h6.01v4.49zM12.6 98.57v-4.596h6.853v5.13h-.602V96.18c0-.293-.22-.532-.49-.532h-.98c-.2-.585-.72-1.004-1.34-1.004s-1.14.42-1.34 1.004h-.99c-.27 0-.49.238-.49.532v2.925h-.61v-.532zm-1.588 2.128l-.157-.532H21.2l-.157.532-.2.67h-9.63l-.2-.675zm3.18-2.126v-1.86h.9c.274 0 .496-.24.496-.533 0-.26.197-.47.44-.47s.44.21.44.47c0 .29.222.53.496.53h.898v2.39h-3.67v-.54zm7.508 3.866h6.01v.85H21.7v-.855zm.65-3.87v.53h-1.907v-5.13h1.908v4.6zm-12.646 0v-4.6h1.908v5.13H9.704v-.532zm-5.36 2.125h5.63l.2.675h-5.83v-.675zm9.15 8.146v-3.21c.3-.35 1.223-1.28 2.533-1.28 1.3 0 2.233.94 2.533 1.28v3.74h-5.066v-.53zm13.1-10.27v-1.25c-.02-.51-.41-.91-.887-.91-.476 0-.864.4-.886.91v1.25h-1.48v-4.55h4.87v4.55H26.6zm-2.82-11.26h3.867v.81h-3.86v-.82zm-.433 3.52v-1.64h4.74v3.76H26.6v-1.33c-.02-.51-.41-.91-.888-.91-.465 0-.847.38-.883.87l-.01.03v1.33h-1.48v-2.12zm-14.62.34v1.78H7.24v-1.33l-.004-.04c-.035-.49-.416-.88-.882-.88-.475 0-.864.4-.886.91v1.33H3.98v-3.76h4.734v1.98zm-4.3-3.86h3.86v.81H4.42v-.82zm-.57 6.7h4.87v4.55H7.24v-1.25c-.023-.51-.41-.91-.887-.91-.476 0-.865.4-.887.91v1.25H3.85v-4.55zm12.13-6.85h.05l.05-.01L22 91.17h-3.14v-.94c0-.292-.22-.53-.495-.53-.273 0-.495.24-.495.533v.932H14.2v-.934c0-.29-.22-.53-.494-.53s-.495.24-.495.53v.94h-3.14l5.92-4.01zm-.17 2.75c.07.03.15.05.22.05.1 0 .2-.04.28-.09.11-.08.19-.21.22-.34.03-.14 0-.29-.07-.4l-.06-.08c-.1-.12-.25-.17-.4-.16-.11.01-.21.06-.29.15-.15.16-.18.41-.09.61.05.1.13.19.23.24z" fill="#fff"/><path d="M31.012 68.846h-1.324V62.44h.218c.273 0 .495-.24.495-.533 0-.293-.22-.532-.49-.532h-.22v-1.74c0-.393-.2-.736-.49-.92V53.49c0-.14-.05-.263-.13-.358v-4.47c0-.27-.19-.492-.43-.525v-1.352c0-.294-.22-.532-.49-.532h-.47v-1.2c.23-.048.4-.262.4-.52 0-.293-.22-.53-.49-.53h-.01c-.27-.63-.94-1.12-1.34-1.37v-.388c.22-.056.38-.265.38-.516 0-.26-.16-.47-.39-.52-.04-.25-.24-.43-.48-.43s-.44.18-.48.42c-.22.05-.39.26-.39.52s.16.46.38.51v.39c-.402.25-1.073.73-1.34 1.36h-.02c-.277 0-.498.24-.498.53 0 .26.17.47.4.52v1.2h-.47c-.274 0-.496.23-.496.53v1.35c-.246.03-.436.25-.436.52v1.5l-5.84-3.93v-.84h.04c.27 0 .49-.24.49-.53 0-.3-.22-.53-.494-.53h-.05v-.05c0-.3-.22-.54-.49-.54s-.49.24-.49.53v.045h-.04c-.27 0-.49.24-.49.53 0 .3.22.537.5.537h.04v.84l-5.83 3.95v-1.5c0-.27-.19-.49-.434-.52v-1.35c0-.29-.22-.53-.49-.53h-.47v-1.2c.23-.04.4-.26.4-.52 0-.29-.22-.53-.495-.53H8.2c-.267-.63-.94-1.12-1.345-1.37v-.38c.22-.05.384-.26.384-.51 0-.26-.17-.47-.4-.52-.05-.24-.25-.42-.49-.42s-.44.18-.49.42c-.23.05-.4.267-.4.52s.16.46.38.52v.39c-.41.25-1.08.735-1.34 1.366-.28 0-.5.24-.5.53 0 .26.17.475.4.523v1.2h-.47c-.28 0-.5.233-.5.53v1.35c-.25.03-.44.254-.44.525v4.47c-.08.096-.13.22-.13.357v5.23c-.29.184-.49.53-.49.92v1.74h-.22c-.275 0-.497.24-.497.53 0 .3.22.534.5.534h.22v6.41H1.04c-.548 0-.99.48-.99 1.06s.443 1.06.99 1.06h29.97c.547 0 .99-.47.99-1.06s-.443-1.06-.99-1.06zM6.345 43.556c.23.14.434.297.594.447H5.75c.16-.15.363-.307.595-.448zm-.966 1.51h1.93v1.19H5.38v-1.19zm4.32 7.178h12.65v.668H9.7v-.668zm16-8.69c.21.133.42.29.59.45H25.1c.16-.15.365-.308.596-.45zm-.97 1.512h1.93v1.19h-1.93v-1.19zm-5.29 20.048c-.06-.075-1.34-1.82-3.42-1.82s-3.37 1.745-3.42 1.82c-.07.092-.11.207-.11.325v3.4h-1.16v-6.4h9.37v6.4h-1.16v-3.4c0-.12-.04-.24-.11-.33zm-11.61.353v3.38H6.71v-3.38h-.99v3.38H4.34v-4.49h6.01v4.49H8.82v-3.38h-.99zM4.34 62.44h6.01v.85H4.34v-.853zm23.366-1.067h-5.83l.2-.676h5.63v.675zm0 7.47h-1.384v-3.378h-.99v3.38h-1.117v-3.38h-.992v3.38h-1.53v-4.49h6.01v4.49zM12.6 58.573v-4.597h6.853v5.13h-.602V56.18c0-.293-.22-.532-.49-.532h-.98c-.2-.585-.72-1.004-1.34-1.004s-1.14.42-1.34 1.004h-.99c-.27 0-.49.238-.49.532v2.925h-.61v-.532zM11.013 60.7l-.157-.533H21.2l-.157.532-.2.67h-9.63l-.2-.68zm3.18-2.127v-1.86h.9c.274 0 .496-.24.496-.533 0-.26.19-.473.44-.473s.44.213.44.473c0 .294.22.532.49.532h.9v2.393h-3.67v-.532zM21.7 62.44h6.01v.853H21.7v-.854zm.65-3.867v.532h-1.907v-5.13h1.908v4.598zm-12.646 0v-4.598h1.908v5.13H9.704v-.532zM4.344 60.7h5.63l.2.675h-5.83V60.7zm9.15 8.146v-3.21c.3-.347 1.223-1.28 2.533-1.28 1.3 0 2.233.936 2.533 1.28v3.742h-5.066v-.532zm13.1-10.273v-1.25c-.02-.505-.41-.91-.887-.91-.476 0-.864.404-.886.91v1.25h-1.48V54.02h4.87v4.553H26.6zm-2.82-11.255h3.867v.814h-3.86v-.814zm-.433 3.52v-1.643h4.74v3.763H26.6V51.62c-.02-.504-.41-.908-.888-.908-.465 0-.847.386-.883.876l-.01.032v1.337h-1.48v-2.12zm-14.62.342v1.778H7.24V51.62l-.003-.032c-.035-.49-.416-.876-.882-.876-.475 0-.864.403-.886.91v1.336H3.98v-3.763h4.734v1.985zm-4.3-3.862h3.86v.814H4.42v-.814zm-.57 6.702h4.87v4.553H7.24v-1.25c-.023-.505-.41-.91-.887-.91-.476 0-.865.404-.887.91v1.25H3.85V54.02zm12.13-6.85l.05.004.05-.005L22 51.18h-3.14v-.94c0-.3-.22-.53-.495-.53-.273 0-.495.24-.495.53v.93H14.2v-.936c0-.294-.22-.53-.494-.53s-.495.24-.495.53v.933h-3.14l5.92-4.01zm-.17 2.754c.07.036.15.055.22.055.1 0 .2-.04.28-.09.11-.08.19-.21.22-.34.03-.14 0-.29-.07-.4l-.06-.08c-.1-.12-.25-.17-.4-.16-.11.01-.21.06-.29.15-.15.16-.18.41-.09.61.05.1.13.19.23.24z" fill="#67737B"/><path d="M31.012 28.846h-1.324V22.44h.218c.273 0 .495-.24.495-.533 0-.293-.22-.532-.49-.532h-.22v-1.74c0-.393-.2-.736-.49-.92V13.49c0-.14-.05-.263-.13-.358v-4.47c0-.27-.19-.492-.43-.525V6.785c0-.294-.22-.532-.49-.532h-.47v-1.2c.23-.048.4-.262.4-.52 0-.293-.22-.53-.49-.53h-.01c-.27-.63-.94-1.12-1.34-1.37v-.388c.22-.056.38-.265.38-.516 0-.26-.16-.47-.39-.52-.04-.25-.24-.43-.48-.43s-.44.18-.48.42c-.22.05-.39.26-.39.52s.16.46.38.51v.39c-.402.25-1.073.73-1.34 1.36h-.02c-.277 0-.498.24-.498.53 0 .26.17.47.4.52v1.2h-.47c-.274 0-.496.23-.496.53v1.36c-.246.03-.436.25-.436.52v1.5l-5.83-3.95v-.83h.04c.27 0 .493-.24.493-.53 0-.3-.227-.53-.5-.53h-.04v-.04c0-.3-.22-.53-.495-.53-.27 0-.49.24-.49.54v.04h-.04c-.27 0-.49.24-.49.53 0 .29.22.53.5.53h.044v.83l-5.83 3.95v-1.5c0-.27-.19-.49-.438-.53V6.79c0-.294-.22-.532-.49-.532h-.47v-1.2c.23-.048.4-.262.4-.52 0-.293-.22-.53-.494-.53h-.03c-.265-.63-.94-1.12-1.343-1.37V2.25c.22-.056.384-.265.384-.516 0-.26-.17-.47-.394-.52-.05-.25-.25-.43-.487-.43-.24 0-.43.18-.48.42-.223.053-.39.266-.39.52s.16.463.38.518v.39C5.45 2.88 4.78 3.37 4.51 4h-.02c-.273 0-.495.24-.495.53 0 .26.172.474.4.522v1.2H3.92c-.273 0-.495.233-.495.53v1.35c-.244.03-.434.252-.434.523v4.47c-.08.1-.13.22-.13.36v5.228c-.29.185-.49.528-.49.92v1.74h-.22c-.27 0-.49.24-.49.53 0 .297.22.535.5.535h.22v6.408H1.04c-.548 0-.99.476-.99 1.063s.443 1.06.99 1.06h29.97c.547 0 .99-.48.99-1.06s-.443-1.07-.99-1.07zM6.345 3.556c.23.14.434.297.594.447H5.75c.16-.15.363-.307.595-.448zm-.966 1.51h1.93v1.19H5.38v-1.19zm4.32 7.178h12.65v.668H9.7v-.668zm16-8.69c.21.133.42.29.59.45H25.1c.16-.15.365-.308.596-.45zm-.97 1.512h1.93v1.19h-1.93v-1.19zm-5.29 20.048c-.06-.075-1.34-1.82-3.42-1.82-2.09 0-3.37 1.745-3.42 1.82-.07.092-.11.207-.11.325v3.4h-1.16v-6.4h9.37v6.4h-1.16v-3.4c0-.12-.04-.24-.11-.33zm-11.62.353v3.38H6.71v-3.38h-.99v3.38H4.34v-4.49h6.01v4.49H8.82v-3.38h-.99zM4.34 22.44h6.01v.85H4.34v-.853zm23.366-1.067h-5.83l.2-.676h5.63v.675zm0 7.47h-1.384v-3.378h-.99v3.38h-1.117v-3.38h-.992v3.38h-1.53v-4.49h6.01v4.49zM12.6 18.573v-4.597h6.853v5.13h-.602V16.18c0-.293-.22-.532-.49-.532h-.98c-.2-.585-.72-1.004-1.34-1.004s-1.14.42-1.34 1.004h-.99c-.27 0-.49.238-.49.532v2.925h-.61v-.532zM11.013 20.7l-.157-.533H21.2l-.157.532-.2.67h-9.63l-.2-.68zm3.18-2.127v-1.86h.9c.274 0 .496-.24.496-.533 0-.26.19-.473.44-.473s.44.213.44.473c0 .294.22.532.49.532h.9v2.393h-3.67v-.532zM21.7 22.44h6.01v.853H21.7v-.854zm.65-3.867v.532h-1.907v-5.13h1.908v4.598zm-12.646 0v-4.598h1.908v5.13H9.704v-.532zM4.344 20.7h5.63l.2.675h-5.83V20.7zm9.15 8.146v-3.21c.3-.347 1.223-1.28 2.533-1.28 1.3 0 2.233.936 2.533 1.28v3.742h-5.066v-.532zm13.1-10.273v-1.25c-.02-.505-.41-.91-.887-.91-.476 0-.864.404-.886.91v1.25h-1.48V14.02h4.87v4.553H26.6zm-2.82-11.255h3.867v.814h-3.86v-.814zm-.433 3.52V9.196h4.74v3.763H26.6v-1.34c-.02-.51-.41-.91-.888-.91-.465 0-.847.38-.883.87l-.01.03v1.33h-1.48v-2.12zm-14.62.342v1.778H7.24V11.62l-.003-.032c-.035-.49-.416-.876-.882-.876-.475 0-.864.403-.886.91v1.336H3.98V9.195h4.734v1.985zm-4.3-3.862h3.86v.814H4.42v-.814zm-.57 6.702h4.87v4.553H7.24v-1.25c-.023-.505-.41-.91-.887-.91-.476 0-.865.404-.887.91v1.25H3.85V14.02zm12.13-6.85l.05.004.05-.005L22 11.18h-3.14v-.94c0-.3-.22-.53-.495-.53-.273 0-.495.24-.495.53v.93H14.2v-.936c0-.294-.22-.53-.494-.53s-.495.24-.495.53v.933h-3.14l5.92-4.01zm-.17 2.754c.07.036.15.055.22.055.1 0 .2-.04.28-.09.11-.08.19-.21.22-.34.03-.14 0-.29-.07-.4l-.06-.08c-.1-.12-.25-.17-.4-.16-.11.01-.21.06-.29.15-.15.16-.18.41-.09.61.05.1.13.19.23.24z" fill="#3A434E"/></g></svg>