<svg width="32" height="232" viewBox="0 0 32 232" xmlns="http://www.w3.org/2000/svg"><g fill="none">
			<path id="XMLID_390_" fill="#3A444F" d="M18.2,20.6c0-0.4-0.7-1.2-0.7-1.2s-0.7,0.8-0.7,1.2V22h1.5V20.6z"/>
			<path id="XMLID_389_" fill="#3A444F" d="M21,20.6c0-0.4-0.7-1.2-0.7-1.2s-0.7,0.8-0.7,1.2V22H21V20.6z"/>
			<path id="XMLID_388_" fill="#3A444F" d="M15.3,20.6c0-0.4-0.7-1.2-0.7-1.2s-0.7,0.8-0.7,1.2V22h1.5V20.6z"/>
			<path id="XMLID_387_" fill="#3A444F" d="M11,20.6V22h1.5v-1.4c0-0.4-0.7-1.2-0.7-1.2S11,20.2,11,20.6z"/>
			<rect id="XMLID_386_" x="13.8" y="23.8" fill="#3A444F" width="1.5" height="1.7"/>
			<rect id="XMLID_385_" x="16.7" y="23.8" fill="#3A444F" width="1.5" height="1.7"/>
			<rect id="XMLID_384_" x="19.6" y="23.8" fill="#3A444F" width="1.5" height="1.7"/>
			<path id="XMLID_375_" fill="#3A444F" d="M24,29.4l-0.3-1.7c0-0.2-0.1-0.3-0.3-0.4v-11c0-0.1,0-0.1,0-0.2c0,0,0-0.1,0-0.1v-1.8
				c0-0.3-0.2-0.5-0.5-0.5c-0.3,0-0.5,0.2-0.5,0.5v0.4L22,13.8c0,0,0-0.1,0-0.1v-1.8c0-0.3-0.2-0.5-0.5-0.5c-0.3,0-0.5,0.2-0.5,0.5
				v0.4l-0.4-0.8c0,0,0-0.1,0-0.1V9.5c0-0.3-0.2-0.5-0.5-0.5c-0.3,0-0.5,0.2-0.5,0.5v0.3l-0.4-0.8c0,0,0-0.1,0-0.1V7.1
				c0-0.3-0.2-0.5-0.5-0.5c-0.3,0-0.5,0.2-0.5,0.5v0.3l-0.4-0.8c0,0,0-0.1,0-0.1V4.8c0-0.3-0.2-0.5-0.5-0.5c-0.3,0-0.5,0.2-0.5,0.5
				v0.3l-0.4-0.6V3.3h0.1c0.3,0,0.5-0.2,0.5-0.5c0-0.3-0.2-0.5-0.5-0.5h-0.1V2.3c0-0.3-0.2-0.5-0.5-0.5c-0.3,0-0.5,0.2-0.5,0.5v0.1
				h-0.1c-0.3,0-0.5,0.2-0.5,0.5c0,0.3,0.2,0.5,0.5,0.5h0.1v1L15.1,5V4.8c0-0.3-0.2-0.5-0.5-0.5c-0.3,0-0.5,0.2-0.5,0.5v1.8
				l-0.4,0.7V7.1c0-0.3-0.2-0.5-0.5-0.5c-0.3,0-0.5,0.2-0.5,0.5V9c0,0,0,0,0,0l-0.4,0.8V9.5c0-0.3-0.2-0.5-0.5-0.5
				c-0.3,0-0.5,0.2-0.5,0.5v1.8c0,0,0,0,0,0.1l-0.4,0.8v-0.3c0-0.3-0.2-0.5-0.5-0.5c-0.3,0-0.5,0.2-0.5,0.5v1.8c0,0,0,0.1,0,0.1
				l-0.4,0.8v-0.4c0-0.3-0.2-0.5-0.5-0.5c-0.3,0-0.5,0.2-0.5,0.5v1.8c0,0,0,0.1,0,0.1c0,0.1,0,0.1,0,0.2v11
				c-0.2,0.1-0.3,0.2-0.3,0.4L8,29.4c0,0.1,0,0.3,0.1,0.4C8.2,29.9,8.3,30,8.4,30h15.1c0.1,0,0.3-0.1,0.4-0.2
				C24,29.7,24.1,29.6,24,29.4z M12.1,27.4h-0.8v-2.8c0-0.1,0.2-0.2,0.4-0.4c0.2,0.1,0.4,0.3,0.4,0.4V27.4z M11.9,23.3
				c-0.1-0.1-0.3-0.1-0.4,0c-0.3,0.1-1.2,0.6-1.2,1.3v2.8H9.5V16.8h1.3h3.3V18c0,0.3,0.2,0.5,0.5,0.5h2.9c0.3,0,0.5-0.2,0.5-0.5
				v-1.1h3.3h1.3v10.5h-9.4v-2.8C13.1,23.9,12.2,23.4,11.9,23.3z M16.9,16.8L16.9,16.8v0.7h-1.9v-0.7v0v-0.8h1.9V16.8z M14.9,15.1
				l0.1-0.3h2l0.1,0.3H14.9z M18.1,15.9c0.1-0.1,0.1-0.3,0.1-0.4l-0.3-1.3c-0.1-0.2-0.2-0.4-0.5-0.4h-2.7c-0.2,0-0.4,0.1-0.5,0.4
				l-0.3,1.3c0,0.1,0,0.3,0.1,0.4h-2.3L16,8.5l4.4,7.3H18.1z M16,5.5l6.1,10.4h-0.6l-5.1-8.5c-0.1-0.1-0.2-0.2-0.4-0.2c0,0,0,0,0,0
				c-0.2,0-0.3,0.1-0.4,0.2l-5,8.5H9.9L16,5.5z M9,29l0.1-0.7h1.7h1.8h10.3L23,29H9z"/>
		</g>
		<g id="XMLID_405_">
			<path id="XMLID_421_" fill="#67737C" d="M18.2,60.6c0-0.4-0.7-1.2-0.7-1.2s-0.7,0.8-0.7,1.2V62h1.5V60.6z"/>
			<path id="XMLID_420_" fill="#67737C" d="M21,60.6c0-0.4-0.7-1.2-0.7-1.2s-0.7,0.8-0.7,1.2V62H21V60.6z"/>
			<path id="XMLID_419_" fill="#67737C" d="M15.3,60.6c0-0.4-0.7-1.2-0.7-1.2s-0.7,0.8-0.7,1.2V62h1.5V60.6z"/>
			<path id="XMLID_418_" fill="#67737C" d="M11,60.6V62h1.5v-1.4c0-0.4-0.7-1.2-0.7-1.2S11,60.2,11,60.6z"/>
			<rect id="XMLID_417_" x="13.8" y="63.8" fill="#67737C" width="1.5" height="1.7"/>
			<rect id="XMLID_416_" x="16.7" y="63.8" fill="#67737C" width="1.5" height="1.7"/>
			<rect id="XMLID_415_" x="19.6" y="63.8" fill="#67737C" width="1.5" height="1.7"/>
			<path id="XMLID_406_" fill="#67737C" d="M24,69.4l-0.3-1.7c0-0.2-0.1-0.3-0.3-0.4v-11c0-0.1,0-0.1,0-0.2c0,0,0-0.1,0-0.1v-1.8
				c0-0.3-0.2-0.5-0.5-0.5c-0.3,0-0.5,0.2-0.5,0.5v0.4L22,53.8c0,0,0-0.1,0-0.1v-1.8c0-0.3-0.2-0.5-0.5-0.5c-0.3,0-0.5,0.2-0.5,0.5
				v0.4l-0.4-0.8c0,0,0-0.1,0-0.1v-1.8c0-0.3-0.2-0.5-0.5-0.5c-0.3,0-0.5,0.2-0.5,0.5v0.3l-0.4-0.8c0,0,0-0.1,0-0.1v-1.8
				c0-0.3-0.2-0.5-0.5-0.5c-0.3,0-0.5,0.2-0.5,0.5v0.3l-0.4-0.8c0,0,0-0.1,0-0.1v-1.8c0-0.3-0.2-0.5-0.5-0.5c-0.3,0-0.5,0.2-0.5,0.5
				v0.3l-0.4-0.6v-1.1h0.1c0.3,0,0.5-0.2,0.5-0.5c0-0.3-0.2-0.5-0.5-0.5h-0.1v-0.1c0-0.3-0.2-0.5-0.5-0.5c-0.3,0-0.5,0.2-0.5,0.5
				v0.1h-0.1c-0.3,0-0.5,0.2-0.5,0.5c0,0.3,0.2,0.5,0.5,0.5h0.1v1L15.1,45v-0.2c0-0.3-0.2-0.5-0.5-0.5c-0.3,0-0.5,0.2-0.5,0.5v1.8
				l-0.4,0.7v-0.3c0-0.3-0.2-0.5-0.5-0.5c-0.3,0-0.5,0.2-0.5,0.5V49c0,0,0,0,0,0l-0.4,0.8v-0.3c0-0.3-0.2-0.5-0.5-0.5
				c-0.3,0-0.5,0.2-0.5,0.5v1.8c0,0,0,0,0,0.1l-0.4,0.8v-0.3c0-0.3-0.2-0.5-0.5-0.5c-0.3,0-0.5,0.2-0.5,0.5v1.8c0,0,0,0.1,0,0.1
				l-0.4,0.8v-0.4c0-0.3-0.2-0.5-0.5-0.5c-0.3,0-0.5,0.2-0.5,0.5v1.8c0,0,0,0.1,0,0.1c0,0.1,0,0.1,0,0.2v11
				c-0.2,0.1-0.3,0.2-0.3,0.4L8,69.4c0,0.1,0,0.3,0.1,0.4C8.2,69.9,8.3,70,8.4,70h15.1c0.1,0,0.3-0.1,0.4-0.2
				C24,69.7,24.1,69.6,24,69.4z M12.1,67.4h-0.8v-2.8c0-0.1,0.2-0.2,0.4-0.4c0.2,0.1,0.4,0.3,0.4,0.4V67.4z M11.9,63.3
				c-0.1-0.1-0.3-0.1-0.4,0c-0.3,0.1-1.2,0.6-1.2,1.3v2.8H9.5V56.8h1.3h3.3V58c0,0.3,0.2,0.5,0.5,0.5h2.9c0.3,0,0.5-0.2,0.5-0.5
				v-1.1h3.3h1.3v10.5h-9.4v-2.8C13.1,63.9,12.2,63.4,11.9,63.3z M16.9,56.8L16.9,56.8v0.7h-1.9v-0.7v0v-0.8h1.9V56.8z M14.9,55.1
				l0.1-0.3h2l0.1,0.3H14.9z M18.1,55.9c0.1-0.1,0.1-0.3,0.1-0.4l-0.3-1.3c-0.1-0.2-0.2-0.4-0.5-0.4h-2.7c-0.2,0-0.4,0.1-0.5,0.4
				l-0.3,1.3c0,0.1,0,0.3,0.1,0.4h-2.3l4.3-7.3l4.4,7.3H18.1z M16,45.5l6.1,10.4h-0.6l-5.1-8.5c-0.1-0.1-0.2-0.2-0.4-0.2
				c0,0,0,0,0,0c-0.2,0-0.3,0.1-0.4,0.2l-5,8.5H9.9L16,45.5z M9,69l0.1-0.7h1.7h1.8h10.3L23,69H9z"/>
		</g>
		<g id="XMLID_653_">
			<path id="XMLID_688_" fill="#FFFFFF" d="M18.2,100.6c0-0.4-0.7-1.2-0.7-1.2s-0.7,0.8-0.7,1.2v1.4h1.5V100.6z"/>
			<path id="XMLID_687_" fill="#FFFFFF" d="M21,100.6c0-0.4-0.7-1.2-0.7-1.2s-0.7,0.8-0.7,1.2v1.4H21V100.6z"/>
			<path id="XMLID_686_" fill="#FFFFFF" d="M15.3,100.6c0-0.4-0.7-1.2-0.7-1.2s-0.7,0.8-0.7,1.2v1.4h1.5V100.6z"/>
			<path id="XMLID_685_" fill="#FFFFFF" d="M11,100.6v1.4h1.5v-1.4c0-0.4-0.7-1.2-0.7-1.2S11,100.2,11,100.6z"/>
			<rect id="XMLID_684_" x="13.8" y="103.8" fill="#FFFFFF" width="1.5" height="1.7"/>
			<rect id="XMLID_664_" x="16.7" y="103.8" fill="#FFFFFF" width="1.5" height="1.7"/>
			<rect id="XMLID_663_" x="19.6" y="103.8" fill="#FFFFFF" width="1.5" height="1.7"/>
			<path id="XMLID_654_" fill="#FFFFFF" d="M24,109.4l-0.3-1.7c0-0.2-0.1-0.3-0.3-0.4v-11c0-0.1,0-0.1,0-0.2c0,0,0-0.1,0-0.1v-1.8
				c0-0.3-0.2-0.5-0.5-0.5c-0.3,0-0.5,0.2-0.5,0.5v0.4L22,93.8c0,0,0-0.1,0-0.1v-1.8c0-0.3-0.2-0.5-0.5-0.5c-0.3,0-0.5,0.2-0.5,0.5
				v0.4l-0.4-0.8c0,0,0-0.1,0-0.1v-1.8c0-0.3-0.2-0.5-0.5-0.5c-0.3,0-0.5,0.2-0.5,0.5v0.3l-0.4-0.8c0,0,0-0.1,0-0.1v-1.8
				c0-0.3-0.2-0.5-0.5-0.5c-0.3,0-0.5,0.2-0.5,0.5v0.3l-0.4-0.8c0,0,0-0.1,0-0.1v-1.8c0-0.3-0.2-0.5-0.5-0.5c-0.3,0-0.5,0.2-0.5,0.5
				v0.3l-0.4-0.6v-1.1h0.1c0.3,0,0.5-0.2,0.5-0.5c0-0.3-0.2-0.5-0.5-0.5h-0.1v-0.1c0-0.3-0.2-0.5-0.5-0.5c-0.3,0-0.5,0.2-0.5,0.5
				v0.1h-0.1c-0.3,0-0.5,0.2-0.5,0.5c0,0.3,0.2,0.5,0.5,0.5h0.1v1L15.1,85v-0.2c0-0.3-0.2-0.5-0.5-0.5c-0.3,0-0.5,0.2-0.5,0.5v1.8
				l-0.4,0.7v-0.3c0-0.3-0.2-0.5-0.5-0.5c-0.3,0-0.5,0.2-0.5,0.5V89c0,0,0,0,0,0l-0.4,0.8v-0.3c0-0.3-0.2-0.5-0.5-0.5
				c-0.3,0-0.5,0.2-0.5,0.5v1.8c0,0,0,0,0,0.1l-0.4,0.8v-0.3c0-0.3-0.2-0.5-0.5-0.5c-0.3,0-0.5,0.2-0.5,0.5v1.8c0,0,0,0.1,0,0.1
				l-0.4,0.8v-0.4c0-0.3-0.2-0.5-0.5-0.5c-0.3,0-0.5,0.2-0.5,0.5v1.8c0,0,0,0.1,0,0.1c0,0.1,0,0.1,0,0.2v11
				c-0.2,0.1-0.3,0.2-0.3,0.4L8,109.4c0,0.1,0,0.3,0.1,0.4c0.1,0.1,0.2,0.2,0.4,0.2h15.1c0.1,0,0.3-0.1,0.4-0.2
				C24,109.7,24.1,109.6,24,109.4z M12.1,107.4h-0.8v-2.8c0-0.1,0.2-0.2,0.4-0.4c0.2,0.1,0.4,0.3,0.4,0.4V107.4z M11.9,103.3
				c-0.1-0.1-0.3-0.1-0.4,0c-0.3,0.1-1.2,0.6-1.2,1.3v2.8H9.5V96.8h1.3h3.3V98c0,0.3,0.2,0.5,0.5,0.5h2.9c0.3,0,0.5-0.2,0.5-0.5
				v-1.1h3.3h1.3v10.5h-9.4v-2.8C13.1,103.9,12.2,103.4,11.9,103.3z M16.9,96.8L16.9,96.8v0.7h-1.9v-0.7v0v-0.8h1.9V96.8z
				 M14.9,95.1l0.1-0.3h2l0.1,0.3H14.9z M18.1,95.9c0.1-0.1,0.1-0.3,0.1-0.4l-0.3-1.3c-0.1-0.2-0.2-0.4-0.5-0.4h-2.7
				c-0.2,0-0.4,0.1-0.5,0.4l-0.3,1.3c0,0.1,0,0.3,0.1,0.4h-2.3l4.3-7.3l4.4,7.3H18.1z M16,85.5l6.1,10.4h-0.6l-5.1-8.5
				c-0.1-0.1-0.2-0.2-0.4-0.2c0,0,0,0,0,0c-0.2,0-0.3,0.1-0.4,0.2l-5,8.5H9.9L16,85.5z M9,109l0.1-0.7h1.7h1.8h10.3L23,109H9z"/>
		</g>
		<g id="XMLID_854_">
			<path id="XMLID_870_" fill="#1D70AD" d="M18.2,140.6c0-0.4-0.7-1.2-0.7-1.2s-0.7,0.8-0.7,1.2v1.4h1.5V140.6z"/>
			<path id="XMLID_869_" fill="#1D70AD" d="M21,140.6c0-0.4-0.7-1.2-0.7-1.2s-0.7,0.8-0.7,1.2v1.4H21V140.6z"/>
			<path id="XMLID_868_" fill="#1D70AD" d="M15.3,140.6c0-0.4-0.7-1.2-0.7-1.2s-0.7,0.8-0.7,1.2v1.4h1.5V140.6z"/>
			<path id="XMLID_867_" fill="#1D70AD" d="M11,140.6v1.4h1.5v-1.4c0-0.4-0.7-1.2-0.7-1.2S11,140.2,11,140.6z"/>
			<rect id="XMLID_866_" x="13.8" y="143.8" fill="#1D70AD" width="1.5" height="1.7"/>
			<rect id="XMLID_865_" x="16.7" y="143.8" fill="#1D70AD" width="1.5" height="1.7"/>
			<rect id="XMLID_864_" x="19.6" y="143.8" fill="#1D70AD" width="1.5" height="1.7"/>
			<path id="XMLID_855_" fill="#1D70AD" d="M24,149.4l-0.3-1.7c0-0.2-0.1-0.3-0.3-0.4v-11c0-0.1,0-0.1,0-0.2c0,0,0-0.1,0-0.1v-1.8
				c0-0.3-0.2-0.5-0.5-0.5c-0.3,0-0.5,0.2-0.5,0.5v0.4l-0.5-0.8c0,0,0-0.1,0-0.1v-1.8c0-0.3-0.2-0.5-0.5-0.5c-0.3,0-0.5,0.2-0.5,0.5
				v0.4l-0.4-0.8c0,0,0-0.1,0-0.1v-1.8c0-0.3-0.2-0.5-0.5-0.5c-0.3,0-0.5,0.2-0.5,0.5v0.3l-0.4-0.8c0,0,0-0.1,0-0.1v-1.8
				c0-0.3-0.2-0.5-0.5-0.5c-0.3,0-0.5,0.2-0.5,0.5v0.3l-0.4-0.8c0,0,0-0.1,0-0.1v-1.8c0-0.3-0.2-0.5-0.5-0.5c-0.3,0-0.5,0.2-0.5,0.5
				v0.3l-0.4-0.6v-1.1h0.1c0.3,0,0.5-0.2,0.5-0.5c0-0.3-0.2-0.5-0.5-0.5h-0.1v-0.1c0-0.3-0.2-0.5-0.5-0.5c-0.3,0-0.5,0.2-0.5,0.5
				v0.1h-0.1c-0.3,0-0.5,0.2-0.5,0.5c0,0.3,0.2,0.5,0.5,0.5h0.1v1l-0.4,0.7v-0.2c0-0.3-0.2-0.5-0.5-0.5c-0.3,0-0.5,0.2-0.5,0.5v1.8
				l-0.4,0.7v-0.3c0-0.3-0.2-0.5-0.5-0.5c-0.3,0-0.5,0.2-0.5,0.5v1.8c0,0,0,0,0,0l-0.4,0.8v-0.3c0-0.3-0.2-0.5-0.5-0.5
				c-0.3,0-0.5,0.2-0.5,0.5v1.8c0,0,0,0,0,0.1l-0.4,0.8v-0.3c0-0.3-0.2-0.5-0.5-0.5c-0.3,0-0.5,0.2-0.5,0.5v1.8c0,0,0,0.1,0,0.1
				l-0.4,0.8v-0.4c0-0.3-0.2-0.5-0.5-0.5c-0.3,0-0.5,0.2-0.5,0.5v1.8c0,0,0,0.1,0,0.1c0,0.1,0,0.1,0,0.2v11
				c-0.2,0.1-0.3,0.2-0.3,0.4L8,149.4c0,0.1,0,0.3,0.1,0.4c0.1,0.1,0.2,0.2,0.4,0.2h15.1c0.1,0,0.3-0.1,0.4-0.2
				C24,149.7,24.1,149.6,24,149.4z M12.1,147.4h-0.8v-2.8c0-0.1,0.2-0.2,0.4-0.4c0.2,0.1,0.4,0.3,0.4,0.4V147.4z M11.9,143.3
				c-0.1-0.1-0.3-0.1-0.4,0c-0.3,0.1-1.2,0.6-1.2,1.3v2.8H9.5v-10.5h1.3h3.3v1.1c0,0.3,0.2,0.5,0.5,0.5h2.9c0.3,0,0.5-0.2,0.5-0.5
				v-1.1h3.3h1.3v10.5h-9.4v-2.8C13.1,143.9,12.2,143.4,11.9,143.3z M16.9,136.8L16.9,136.8v0.7h-1.9v-0.7v0v-0.8h1.9V136.8z
				 M14.9,135.1l0.1-0.3h2l0.1,0.3H14.9z M18.1,135.9c0.1-0.1,0.1-0.3,0.1-0.4l-0.3-1.3c-0.1-0.2-0.2-0.4-0.5-0.4h-2.7
				c-0.2,0-0.4,0.1-0.5,0.4l-0.3,1.3c0,0.1,0,0.3,0.1,0.4h-2.3l4.3-7.3l4.4,7.3H18.1z M16,125.5l6.1,10.4h-0.6l-5.1-8.5
				c-0.1-0.1-0.2-0.2-0.4-0.2c0,0,0,0,0,0c-0.2,0-0.3,0.1-0.4,0.2l-5,8.5H9.9L16,125.5z M9,149l0.1-0.7h1.7h1.8h10.3L23,149H9z"/>
		</g>
</svg>
