<svg width="32" height="232" viewBox="0 0 32 232" xmlns="http://www.w3.org/2000/svg"><g fill="none"><path d="M17.01 128.37c.198.197.45.306.712.306h2.672c0 .31.117.602.32.807.174.173.397.27.627.27h2.91c.52 0 .95-.483.95-1.076 0-.59-.42-1.07-.94-1.074l.01-.15c0-.674-.48-1.223-1.08-1.223h-5.46c-.26 0-.51.11-.71.306-.23.232-.36.567-.36.918 0 .35.14.684.37.917zm.626-1.03l.086-.037h5.462c.073 0 .13.067.13.15 0 .08-.058.148-.13.148-.26 0-.473.24-.473.54 0 .3.21.54.48.54h1.07-2.9.01c.26 0 .48-.24.48-.53 0-.29-.21-.53-.47-.53h-3.62l-.09-.03-.04-.11.05-.11zm13.455 20.94h-2.96l-.52-1.732v-2.297c.14-.09.23-.26.23-.45V142l-.01-.085v-1.36c0-.9-.9-1.606-1.39-1.926v-1.02c0-.3-.21-.54-.47-.54s-.47.24-.47.53v1.01c-.49.32-1.39 1.02-1.39 1.92v.91h-1.2c-.26 0-.47.24-.47.53v.5h-.33v-.5c0-.3-.21-.54-.47-.54h-1.59c-.26 0-.47.24-.47.54v.5h-.32v-.5c0-.3-.22-.54-.48-.54h-1.59c-.26 0-.48.24-.48.54v.5h-.33v-.5c0-.2-.1-.38-.25-.47v-1.35h7.04c.26 0 .477-.24.477-.53 0-.3-.213-.54-.474-.54h-7.03v-.57h4.33c.26 0 .473-.24.473-.54 0-.296-.213-.537-.474-.537h-4.33v-.784H30.5c.26 0 .474-.24.474-.54 0-.3-.21-.54-.475-.54h-2.19v-1.3c0-.186-.09-.35-.21-.447-.12-.175-.32-.26-.52-.19-.55.19-1.18.29-1.81.29-.69 0-1.36-.117-1.93-.33-.16-.06-.33-.02-.45.09-.51.155-1.08.24-1.66.24-.69 0-1.36-.117-1.93-.33-.16-.06-.33-.02-.45.09-.51.153-1.08.24-1.66.24-.56 0-1.11-.08-1.61-.23l-.01-.05v-1.17c.25-.005.46-.24.46-.537v-1.784c0-.296-.21-.54-.47-.54h-1.01v-4.4c0-.89-.89-1.59-1.38-1.904v-.998c0-.3-.21-.54-.48-.54s-.478.24-.478.54v.993c-.49.32-1.38 1.02-1.38 1.902v.953h-.32v-.25c0-.3-.21-.54-.47-.54s-.475.24-.475.535v.25h-.2v-.25c0-.297-.21-.54-.475-.54s-.473.24-.473.54v.25h-.2v-.25c0-.294-.21-.535-.47-.535s-.474.24-.474.54v.25h-.33v-.953c0-.88-.888-1.58-1.377-1.9v-.99c0-.3-.21-.54-.47-.54s-.47.24-.47.54v1c-.49.32-1.38 1.02-1.38 1.91v4.4H2.69c-.26 0-.473.24-.473.54v1.78c0 .296.212.536.474.536h.05v1.174l-.01.15v2.93c-.36.26-.85.72-.85 1.32v4.217c0 .6.49 1.06.85 1.32v2.9l-.54 1.79H.99c-.522 0-.946.48-.946 1.077 0 .59.424 1.075.946 1.075h30.1c.52 0 .945-.48.945-1.077s-.424-1.078-.946-1.078zM5.64 124.252c.193.126.385.278.542.43H5.09c.147-.144.332-.294.542-.43zm5.748 3.004v2.38c-.217.046-.383.263-.383.526v.492h-.31v-.492c0-.296-.212-.537-.473-.537H8.65c-.26 0-.473.24-.473.537v.492h-.31v-.492c0-.26-.16-.475-.376-.526v-2.38h3.9zm1.85-3.005c.21.14.396.29.544.43h-1.09c.147-.14.333-.29.543-.43zm-.903 1.93v-.42h1.807v3.91l-.01.01c-.18.08-.305.27-.305.5v.49h-.31v-.49c0-.29-.21-.54-.472-.54h-.71v-3.44zm-5.79.54v2.91h-.72c-.26 0-.472.24-.472.54v.49h-.31v-.49c0-.23-.126-.42-.304-.5v-3.9h1.8v.97zm-2.28 4.88l.02.02c.08.07.177.11.285.11h1.25c.108 0 .206-.04.286-.11.113-.1.187-.25.187-.42v-.49h.624v.5c0 .12.036.23.096.32.086.13.222.22.376.22h1.25c.26 0 .47-.24.47-.54v-.49h.62v.49c0 .3.21.54.47.54h1.26c.16 0 .3-.09.38-.22.05-.08.08-.19.08-.31v-.49h.62v.49c0 .3.21.54.47.54h1.26c.11 0 .22-.05.3-.13v-.01c.1-.09.16-.24.16-.4v-.49h.87v.71c-.26.01-.47.25-.47.54v.54H3.68v-.53c0-.29-.21-.53-.47-.53h-.047v-.7h.922v.49c0 .16.06.31.16.404zm13.39 11.44v-.5h.64v.51c0 .3.21.54.474.54h1.27c.26 0 .47-.24.47-.53v-.5h.64v.51c0 .29.21.53.47.53h1.27c.26 0 .47-.24.47-.54v-.5H24v.51c0 .1.025.2.07.28.082.16.23.26.402.26h1.27c.19 0 .356-.13.43-.31l.045-.22v-.5h.64v.81c-.136.095-.226.26-.227.455v2.85l.03.18.45 1.46H16.67l-.545-1.782v-2.93h1.048c.262 0 .473-.24.473-.54zm8.296-3.48c.2.13.4.29.57.45h-1.13c.16-.15.35-.31.57-.45zm-23.12 1.15h.85v1.56c-.03.1-.21.28-.42.43l-.03-.02c-.19-.14-.36-.31-.39-.4v-1.56zm1.8-6.07h9.61v11.51H4.63v-11.51zm-.11 12.59h9.83l.01.04.32 1.04H4.19l.325-1.07zm-.84-9.14v1.56h-.85v-1.56c.03-.09.2-.26.39-.4l.04-.02c.21.15.4.33.43.43zm23.19 3.01v.38h-1.11c-.26 0-.47.24-.47.54v.51h-.26v-1.42h1.85zm.51-6.25v.77h-3.12v-.76c.49.12 1.01.18 1.54.18.54 0 1.08-.06 1.59-.19zm-4.06.01v.76H20.2v-.77c.493.12 1.024.19 1.57.19.53 0 1.054-.06 1.55-.18zm-4.07.01v.75h-3.12v-.77c.51.13 1.05.2 1.61.2.52 0 1.03-.06 1.52-.17zm-9.41 1.06h.95v2.31h-.95v-2.32zm-1.38 8.3h1.95c.26 0 .48-.24.48-.54v-2.92c0-.85-.95-1.44-1.24-1.6-.13-.07-.28-.07-.41 0-1.15.64-1.24 1.39-1.24 1.61v2.92c0 .3.21.54.48.54zm.98-3.97c.26.18.48.41.51.51v2.39H8.92v-2.37c.022-.11.247-.33.504-.52zm7.28 5.4l.02.14-.01.14v.51h1.44v-.51l-.01-.13.02-.13v-.51h-1.44v.51m3.9.27l-.02-.13.02-.135v-.51H19.2v.51l.014.13-.02.138v.51h1.44v-.51m2.46 0l-.013-.14.02-.13v-.51h-1.44v.51l.02.134-.01.134v.51h1.44v-.51m2.46 0l-.01-.13.02-.13v-.51H24.1v.51l.017.14-.015.133v.51h1.44v-.51m-17.404-10h.947v2.314h-.95v-2.31z" fill="#206FAC"/><path d="M17.01 88.37c.198.197.45.306.712.306h2.672c0 .31.117.602.32.807.174.173.397.27.627.27h2.91c.52 0 .95-.483.95-1.076 0-.59-.42-1.07-.94-1.074l.01-.15c0-.674-.48-1.223-1.08-1.223h-5.46c-.26 0-.51.11-.71.306-.23.232-.36.567-.36.918 0 .35.14.684.37.917zm.626-1.03l.086-.037h5.462c.073 0 .13.067.13.15 0 .08-.058.148-.13.148-.26 0-.473.24-.473.54 0 .3.21.54.48.54h1.07-2.9.01c.26 0 .48-.24.48-.53 0-.29-.21-.53-.47-.53h-3.62l-.09-.03-.04-.11.05-.11zm13.455 20.94h-2.96l-.52-1.732v-2.297c.14-.09.23-.26.23-.45V102l-.01-.085v-1.36c0-.9-.9-1.606-1.39-1.926v-1.02c0-.3-.21-.54-.47-.54s-.47.24-.47.53v1.01c-.49.32-1.39 1.02-1.39 1.92v.91h-1.2c-.26 0-.47.24-.47.53v.5h-.33v-.51c0-.3-.21-.54-.47-.54h-1.59c-.26 0-.47.24-.47.54v.5h-.32v-.51c0-.3-.22-.54-.48-.54h-1.59c-.26 0-.48.24-.48.53v.5h-.33v-.507c0-.206-.1-.38-.25-.47v-1.35h7.04c.26 0 .477-.24.477-.537 0-.3-.213-.54-.474-.54h-7.03v-.57h4.33c.26 0 .473-.24.473-.54 0-.293-.213-.534-.474-.534h-4.33v-.785H30.5c.26 0 .474-.24.474-.534 0-.3-.21-.54-.475-.54h-2.19v-1.3c0-.19-.09-.35-.21-.45-.12-.175-.32-.26-.52-.19-.55.19-1.18.29-1.81.29-.69 0-1.36-.11-1.93-.33-.16-.06-.33-.02-.45.09-.51.16-1.08.24-1.66.24-.69 0-1.36-.11-1.93-.33-.16-.06-.33-.02-.45.09-.51.16-1.08.24-1.66.24-.56 0-1.11-.08-1.61-.22l-.01-.05v-1.17c.25-.007.46-.245.46-.54v-1.79c0-.295-.21-.536-.47-.536h-1.01v-4.4c0-.886-.89-1.586-1.38-1.904v-1c0-.3-.21-.54-.48-.54s-.478.24-.478.54v1c-.49.32-1.38 1.02-1.38 1.9v.954h-.32v-.25c0-.294-.21-.535-.47-.535s-.475.24-.475.54v.25h-.2v-.25c0-.3-.21-.54-.475-.54s-.473.24-.473.54v.25h-.2v-.25c0-.3-.21-.54-.47-.54s-.474.24-.474.536v.25h-.33v-.95c0-.88-.888-1.58-1.377-1.9v-1c0-.3-.21-.54-.47-.54s-.47.24-.47.54v1c-.49.32-1.38 1.02-1.38 1.91v4.4H2.69c-.26 0-.473.24-.473.54v1.78c0 .297.212.537.474.537h.05v1.17l-.01.14v2.93c-.36.26-.85.72-.85 1.313v4.217c0 .6.49 1.052.85 1.312v2.9l-.54 1.79H.99c-.522 0-.946.48-.946 1.08 0 .59.424 1.07.946 1.07h30.1c.52 0 .945-.48.945-1.07s-.424-1.075-.946-1.075zM5.64 84.252c.193.126.385.278.542.43H5.09c.147-.144.332-.294.542-.43zm5.748 3.004v2.38c-.217.046-.383.263-.383.526v.492h-.31v-.492c0-.296-.212-.537-.473-.537H8.65c-.26 0-.473.24-.473.537v.492h-.31v-.492c0-.26-.16-.475-.376-.526v-2.38h3.9zm1.85-3.005c.21.14.396.29.544.43h-1.09c.147-.14.333-.29.543-.43zm-.903 1.93v-.42h1.807v3.91l-.01.01c-.18.08-.305.27-.305.5v.49h-.31v-.49c0-.29-.21-.54-.472-.54h-.71v-3.45zm-5.79.54v2.91h-.72c-.26 0-.472.24-.472.54v.49h-.31v-.49c0-.23-.126-.42-.304-.5v-3.91h1.8v.97zM4.26 91.6l.02.02c.08.07.176.11.284.11H5.82c.108 0 .206-.043.286-.112.113-.098.187-.25.187-.425V90.7h.624v.492c0 .12.036.232.096.322.086.13.222.215.376.215h1.25c.26 0 .47-.25.47-.54v-.49h.62v.49c0 .29.21.53.47.53h1.26c.16 0 .3-.09.38-.23.05-.09.08-.2.08-.31v-.49h.62v.49c0 .3.21.54.47.54h1.26c.11 0 .22-.05.3-.13v-.01c.1-.1.16-.24.16-.4v-.49h.87v.7c-.26 0-.47.24-.47.53v.53l-.06-.01H3.68v-.53c0-.3-.21-.54-.47-.54h-.047v-.7h.922v.49c0 .16.06.31.16.41zm13.39 11.434v-.505h.64v.5c0 .29.21.53.473.53h1.274c.26 0 .473-.24.473-.54v-.51h.642v.5c0 .29.21.53.473.53h1.273c.262 0 .473-.24.473-.54v-.51h.65v.51c0 .1.03.2.07.28.09.15.23.26.41.26h1.28c.19 0 .36-.13.43-.32l.05-.22v-.5h.64v.81c-.13.09-.22.26-.22.45v2.84l.03.17.45 1.47H16.67l-.545-1.79v-2.924h1.048c.262 0 .473-.24.473-.54zm8.295-3.484c.202.13.402.29.565.45h-1.13c.152-.15.345-.31.565-.45zm-23.12 1.15h.85v1.556c-.03.098-.215.28-.424.43l-.03-.027c-.19-.15-.36-.31-.39-.41v-1.56zm1.8-6.076h9.607v11.512H4.624V94.623zm-.11 12.587h9.826l.01.04.32 1.04H4.19l.325-1.07zm-.84-9.14v1.56h-.85v-1.56c.03-.09.195-.26.39-.4l.035-.02c.21.15.392.33.423.43zm23.19 3.01v.38h-1.108c-.26 0-.473.24-.473.54v.51h-.262v-1.42h1.844zm.512-6.25v.77h-3.12v-.76c.487.12 1.006.18 1.532.18.54 0 1.08-.06 1.58-.19zm-4.068.01v.77h-3.12v-.77c.49.13 1.02.19 1.57.19.53 0 1.05-.06 1.55-.18zm-4.07.01v.76h-3.12v-.77c.5.13 1.05.2 1.6.2.52 0 1.03-.06 1.51-.17zM9.83 95.9h.946v2.313h-.95V95.9zm-1.382 8.3h1.954c.262 0 .473-.24.473-.537v-2.922c0-.85-.95-1.44-1.242-1.6-.13-.07-.284-.07-.415 0-1.156.64-1.245 1.39-1.245 1.61v2.93c0 .3.21.54.473.54zm.978-3.967c.257.18.482.404.503.51v2.383H8.92v-2.374c.022-.113.247-.338.504-.52zm7.28 5.395l.015.135-.01.134v.51h1.44v-.51l-.01-.135.02-.135v-.51h-1.44v.51m3.9.27l-.01-.135.02-.135v-.51h-1.44v.51l.02.135-.02.134v.51h1.44v-.51m2.46 0l-.01-.135.02-.13v-.51h-1.44v.51l.02.14-.01.14v.51h1.44v-.51m2.46 0l-.02-.13.016-.13v-.51H24.1v.51l.015.14-.02.14v.51h1.44v-.51m-17.41-10h.95v2.32h-.95V95.9z" fill="#fff"/><path d="M17.01 48.37c.198.197.45.306.712.306h2.672c0 .31.117.602.32.807.174.173.397.27.627.27h2.91c.52 0 .95-.483.95-1.076 0-.59-.42-1.07-.94-1.074l.01-.15c0-.674-.48-1.223-1.08-1.223h-5.46c-.26 0-.51.11-.71.306-.23.232-.36.567-.36.918 0 .35.14.684.37.917zm.626-1.03l.086-.037h5.462c.073 0 .13.067.13.15 0 .08-.058.148-.13.148-.26 0-.473.24-.473.54 0 .3.21.54.48.54h1.07-2.9.01c.26 0 .48-.24.48-.53 0-.29-.21-.53-.47-.53h-3.62l-.09-.03-.04-.11.05-.11zM31.09 68.28h-2.967l-.528-1.732V64.25c.134-.094.224-.263.224-.456V61.99l-.01-.086v-1.36c0-.898-.9-1.606-1.4-1.926v-1.016c0-.296-.21-.537-.48-.537-.26 0-.48.24-.48.537v1.016c-.5.32-1.4 1.028-1.4 1.925v.91h-1.18c-.26 0-.48.24-.48.536v.5h-.33v-.51c0-.3-.22-.54-.48-.54H20c-.26 0-.47.24-.47.53v.5h-.326v-.51c0-.3-.214-.54-.476-.54h-1.59c-.26 0-.472.24-.472.54v.5h-.326v-.51c0-.21-.1-.38-.25-.47v-1.35h7.038c.26 0 .473-.24.473-.54 0-.3-.21-.54-.47-.54H16.1v-.57h4.33c.26 0 .473-.24.473-.54 0-.3-.213-.54-.474-.54H16.1v-.79h14.4c.26 0 .473-.24.473-.535 0-.297-.212-.537-.473-.537h-2.18v-1.31c0-.19-.083-.35-.21-.45-.116-.18-.32-.26-.514-.197-.547.19-1.173.29-1.81.29-.686 0-1.354-.117-1.93-.33-.16-.06-.326-.02-.447.09-.51.154-1.08.24-1.66.24-.69 0-1.36-.12-1.93-.335-.16-.06-.33-.02-.45.09-.51.16-1.08.24-1.66.24-.56 0-1.11-.08-1.61-.22l-.01-.05v-1.16c.26-.003.46-.24.46-.535v-1.78c0-.296-.21-.537-.47-.537h-1.02v-4.4c0-.89-.89-1.59-1.38-1.906v-.99c0-.3-.22-.54-.48-.54s-.47.24-.47.54v1c-.49.32-1.38 1.02-1.38 1.907v.956h-.32v-.25c0-.295-.21-.536-.47-.536s-.47.24-.47.54v.25h-.2v-.25c0-.295-.22-.54-.48-.54s-.47.24-.47.54v.25h-.2v-.25c0-.3-.21-.54-.48-.54s-.47.24-.47.54v.25h-.33V45.2c0-.89-.89-1.59-1.38-1.907v-1c0-.298-.21-.538-.47-.538s-.47.24-.47.54v1c-.49.32-1.38 1.02-1.38 1.91v4.4h-1.1c-.26 0-.473.24-.473.535v1.787c0 .292.21.532.472.532h.05v1.17l-.01.15v2.93c-.36.26-.85.72-.85 1.32v4.213c0 .6.49 1.05.85 1.31v2.9l-.54 1.79H.99c-.522 0-.946.48-.946 1.075 0 .59.424 1.08.946 1.08h30.1c.52 0 .945-.48.945-1.073s-.424-1.07-.946-1.07zM5.633 44.252c.193.126.385.278.542.43H5.09c.147-.144.332-.294.542-.43zm5.748 3.004v2.38c-.21.046-.38.263-.38.526v.492h-.31v-.492c0-.296-.21-.537-.47-.537H8.65c-.26 0-.473.24-.473.537v.492h-.31v-.492c0-.26-.16-.475-.376-.526v-2.38h3.9zm1.85-3.005c.21.14.4.29.55.43h-1.09c.15-.14.34-.29.55-.43zm-.9 1.93v-.42h1.81v3.91l-.01.01c-.18.08-.3.27-.3.5v.49h-.31v-.49c0-.29-.21-.54-.47-.54h-.71v-3.45zm-5.79.54v2.91h-.72c-.26 0-.47.24-.47.54v.49h-.31v-.49c0-.23-.12-.42-.3-.5v-3.91h1.8v.97zM4.26 51.6l.02.02c.08.07.176.11.284.11H5.82c.108 0 .206-.042.286-.11.113-.1.187-.25.187-.426V50.7h.624v.492c0 .12.036.232.096.322.086.13.222.215.376.215h1.25c.26 0 .47-.25.47-.54v-.49h.62v.49c0 .29.21.53.47.53h1.26c.16 0 .3-.09.38-.23.05-.09.08-.2.08-.31v-.49h.62v.49c0 .3.21.54.47.54h1.26c.11 0 .22-.05.3-.13v-.01c.1-.1.16-.24.16-.4v-.49h.87v.7c-.26 0-.47.24-.47.53v.53l-.06-.01H3.68v-.53c0-.3-.21-.54-.47-.54h-.047v-.7h.922v.49c0 .16.06.31.16.41zm13.39 11.435v-.505h.64v.504c0 .297.21.537.473.537h1.274c.26 0 .473-.24.473-.53v-.5h.64v.51c0 .3.21.54.474.54h1.273c.262 0 .473-.24.473-.54v-.5h.643v.51c0 .1.026.2.07.28.083.15.232.26.403.26h1.273c.19 0 .35-.13.43-.32l.04-.22v-.5h.64v.81c-.14.1-.23.26-.23.46v2.85l.02.17.44 1.47H16.67l-.545-1.78V63.6h1.048c.262 0 .473-.24.473-.54zm8.295-3.484c.202.13.402.29.565.45h-1.13c.15-.15.344-.31.564-.45zM2.825 60.7h.85v1.556c-.03.098-.215.28-.424.43l-.03-.027c-.19-.15-.36-.31-.39-.41v-1.56zm1.8-6.076h9.607v11.512H4.624V54.623zm-.11 12.587h9.826l.01.04.32 1.04H4.19l.325-1.07zm-.84-9.14v1.56h-.85v-1.56c.03-.09.195-.26.39-.4l.035-.02c.21.15.392.33.423.43zm23.19 3.01v.38h-1.108c-.26 0-.473.24-.473.54v.51h-.262v-1.43h1.844zm.512-6.25v.77h-3.12v-.76c.487.12 1.006.18 1.532.18.54 0 1.08-.06 1.58-.19zm-4.068.01v.77h-3.12v-.77c.49.13 1.02.19 1.57.19.53 0 1.05-.06 1.55-.18zm-4.07.01v.76h-3.12v-.77c.5.13 1.05.2 1.6.2.52 0 1.03-.06 1.51-.17zM9.83 55.9h.946v2.313h-.95V55.9zm-1.38 8.3h1.953c.262 0 .473-.24.473-.537V60.74c0-.85-.95-1.443-1.242-1.605-.13-.072-.284-.072-.415 0-1.16.638-1.25 1.39-1.25 1.606v2.93c0 .3.21.54.47.54zm.977-3.967c.257.18.482.404.503.51v2.383H8.923v-2.374c.022-.113.247-.338.504-.52zm7.28 5.395l.015.135-.016.134v.51h1.44v-.51l-.016-.135.016-.135v-.51h-1.44v.51m3.898.27l-.016-.135.016-.135v-.51h-1.44v.51l.015.135-.02.134v.51h1.44v-.51m2.46 0l-.02-.135.01-.13v-.51h-1.44v.51l.01.14-.02.14v.51h1.44v-.51m2.46 0l-.02-.13.01-.13v-.51h-1.44v.51l.01.14-.02.14v.51h1.44v-.51m-17.4-10h.94v2.32H8.1V55.9z" fill="#67737B"/><path d="M17.01 8.37c.198.197.45.306.712.306h2.672c0 .31.117.602.32.807.174.173.397.27.627.27h2.91c.52 0 .95-.483.95-1.076 0-.59-.42-1.07-.94-1.074l.01-.15c0-.674-.48-1.223-1.08-1.223h-5.46c-.26 0-.51.11-.71.306-.23.232-.36.567-.36.918 0 .35.14.684.37.917zm.626-1.03l.086-.037h5.462c.073 0 .13.067.13.15 0 .08-.058.148-.13.148-.26 0-.473.24-.473.54 0 .3.21.54.48.54h1.07-2.9.01c.26 0 .48-.24.48-.53 0-.29-.21-.53-.47-.53h-3.62l-.09-.03-.04-.11.05-.11zM31.09 28.28h-2.967l-.528-1.732V24.25c.134-.094.224-.263.224-.456V21.99l-.01-.086v-1.36c0-.898-.9-1.606-1.4-1.926v-1.016c0-.296-.21-.537-.48-.537-.26 0-.48.24-.48.537v1.016c-.5.32-1.4 1.028-1.4 1.925v.91h-1.18c-.26 0-.48.24-.48.536v.5h-.33v-.51c0-.3-.22-.54-.48-.54H20c-.26 0-.47.24-.47.53v.5h-.326v-.51c0-.3-.214-.54-.476-.54h-1.59c-.26 0-.472.24-.472.54v.5h-.326v-.51c0-.21-.1-.38-.25-.47v-1.35h7.038c.26 0 .473-.24.473-.54 0-.3-.21-.54-.47-.54H16.1v-.57h4.33c.26 0 .473-.24.473-.54 0-.3-.213-.54-.474-.54H16.1v-.79h14.4c.26 0 .473-.24.473-.535 0-.297-.212-.537-.473-.537h-2.18v-1.31c0-.19-.083-.35-.21-.45-.116-.18-.32-.26-.514-.197-.547.19-1.173.29-1.81.29-.686 0-1.354-.117-1.93-.33-.16-.06-.326-.02-.447.09-.51.154-1.08.24-1.66.24-.69 0-1.36-.12-1.93-.335-.16-.06-.33-.02-.45.09-.51.16-1.08.24-1.66.24-.56 0-1.11-.08-1.61-.22l-.01-.05v-1.16c.26-.003.46-.24.46-.535v-1.78c0-.296-.21-.537-.47-.537h-1.02V5.2c0-.89-.89-1.59-1.38-1.907v-.99c0-.293-.22-.533-.48-.533s-.47.24-.47.536v1c-.49.32-1.38 1.02-1.38 1.9v.955h-.32v-.25c0-.29-.21-.54-.47-.54s-.47.24-.47.54v.25h-.2v-.25c0-.29-.22-.53-.48-.53s-.47.24-.47.54v.25h-.2v-.25c0-.3-.21-.54-.48-.54s-.47.24-.47.54v.25h-.33v-.95c0-.89-.89-1.59-1.38-1.9v-1c0-.3-.21-.54-.47-.54s-.47.24-.47.54v1c-.49.31-1.38 1.01-1.38 1.9v4.4h-1.1c-.26 0-.47.24-.47.53v1.78c0 .295.21.535.47.535h.05v1.177l-.01.147v2.934c-.36.26-.85.72-.85 1.32v4.218c0 .6.49 1.058.85 1.318v2.907l-.54 1.79H.99c-.522 0-.946.48-.946 1.08 0 .594.424 1.076.946 1.076h30.1c.52 0 .945-.48.945-1.073s-.424-1.072-.946-1.072zM5.633 4.252c.193.126.385.278.542.43H5.09c.147-.144.332-.294.542-.43zm5.748 3.004v2.38c-.21.046-.38.263-.38.526v.492h-.31v-.492c0-.296-.21-.537-.47-.537H8.65c-.26 0-.473.24-.473.537v.492h-.31v-.492c0-.26-.16-.475-.376-.526v-2.38h3.9zm1.85-3.005c.21.14.4.29.55.43h-1.09c.15-.14.34-.29.55-.43zm-.9 1.93v-.42h1.81v3.9l-.01.01c-.18.08-.3.27-.3.5v.49h-.31v-.49c0-.29-.21-.53-.47-.53h-.71V6.18zm-5.79.54v2.91h-.72c-.26 0-.47.24-.47.54v.49h-.31v-.49c0-.23-.12-.42-.3-.5V5.76h1.8v.963zM4.26 11.6l.02.02c.08.07.176.11.284.11H5.82c.108 0 .206-.042.286-.11.113-.1.187-.25.187-.426V10.7h.624v.492c0 .12.036.232.096.322.086.13.222.215.376.215h1.25c.26 0 .47-.25.47-.54v-.49h.62v.49c0 .29.21.53.47.53h1.26c.16 0 .3-.09.38-.23.05-.09.08-.2.08-.31v-.49h.62v.49c0 .3.21.54.47.54h1.26c.11 0 .22-.05.3-.13v-.01c.1-.1.16-.24.16-.4v-.49h.87v.7c-.26 0-.47.24-.47.53v.53l-.06-.01H3.68v-.53c0-.3-.21-.54-.47-.54h-.047v-.7h.922v.49c0 .16.06.31.16.41zm13.39 11.435v-.505h.64v.504c0 .297.21.537.473.537h1.274c.26 0 .473-.24.473-.53v-.5h.64v.51c0 .3.21.54.474.54h1.273c.262 0 .473-.24.473-.54v-.5h.643v.51c0 .1.026.2.07.28.083.15.232.26.403.26h1.273c.19 0 .35-.13.43-.32l.04-.22v-.5h.64v.81c-.14.1-.23.26-.23.46v2.85l.02.17.44 1.47H16.67l-.545-1.78V23.6h1.048c.262 0 .473-.24.473-.54zm8.295-3.484c.202.13.402.29.565.45h-1.13c.15-.15.344-.31.564-.45zM2.825 20.7h.85v1.556c-.03.098-.215.28-.424.43l-.03-.027c-.19-.15-.36-.31-.39-.41v-1.56zm1.8-6.076h9.607v11.512H4.624V14.623zm-.11 12.587h9.826l.01.04.32 1.04H4.19l.325-1.07zm-.84-9.14v1.56h-.85v-1.56c.03-.09.195-.26.39-.4l.035-.02c.21.15.392.33.423.43zm23.19 3.01v.38h-1.108c-.26 0-.473.24-.473.54v.51h-.262v-1.43h1.844zm.512-6.25v.77h-3.12v-.76c.487.12 1.006.18 1.532.18.54 0 1.08-.06 1.58-.19zm-4.068.01v.77h-3.12v-.77c.49.13 1.02.19 1.57.19.53 0 1.05-.06 1.55-.18zm-4.07.01v.76h-3.12v-.77c.5.13 1.05.2 1.6.2.52 0 1.03-.06 1.51-.17zM9.83 15.9h.946v2.313h-.95V15.9zm-1.38 8.3h1.953c.262 0 .473-.24.473-.537V20.74c0-.85-.95-1.443-1.242-1.605-.13-.072-.284-.072-.415 0-1.16.638-1.25 1.39-1.25 1.606v2.93c0 .3.21.54.47.54zm.977-3.967c.257.18.482.404.503.51v2.383H8.923v-2.374c.022-.113.247-.338.504-.52zm7.28 5.395l.015.135-.016.134v.51h1.44v-.51l-.016-.135.016-.135v-.51h-1.44v.51m3.898.27l-.016-.135.016-.135v-.51h-1.44v.51l.015.135-.02.134v.51h1.44v-.51m2.46 0l-.02-.135.01-.13v-.51h-1.44v.51l.01.14-.02.14v.51h1.44v-.51m2.46 0l-.02-.13.01-.13v-.51h-1.44v.51l.01.14-.02.14v.51h1.44v-.51m-17.4-10h.94v2.32H8.1V15.9z" fill="#3A434E"/></g></svg>