<svg width="32" height="232" viewBox="0 0 32 232" xmlns="http://www.w3.org/2000/svg"><g fill="none">
			<path id="XMLID_645_" fill="#3A444F" d="M23.4,28.4l-0.8-2.2v-7.2c0.3,0,0.5-0.2,0.5-0.5v-1.5c0-0.3-0.2-0.5-0.5-0.5h-1.3v-1.8
				h0.7c0,0,0,0,0,0c0.3,0,0.5-0.2,0.5-0.5c0-0.2-0.1-0.4-0.3-0.4l-2.3-1c0,0,0-0.1,0-0.1V8.6c0-0.2-0.2-0.4-0.4-0.5
				c-0.2,0-0.5,0.1-0.5,0.4l-0.4,2.1l-2-7.6V1.8c0-0.3-0.2-0.5-0.5-0.5c-0.3,0-0.5,0.2-0.5,0.5v1.3l-2,7.6l-0.4-2.1
				c0-0.2-0.3-0.4-0.5-0.4c-0.2,0-0.4,0.2-0.4,0.5v4.1c0,0,0,0.1,0,0.1l-2.3,1c-0.2,0.1-0.3,0.3-0.3,0.5c0,0.2,0.2,0.4,0.5,0.4h0.7
				v1.8H9.4c-0.3,0-0.5,0.2-0.5,0.5v1.5c0,0.3,0.2,0.5,0.5,0.5h0v7.2l-0.8,2.3c0,0.1,0,0.3,0.1,0.4c0.1,0.1,0.2,0.2,0.4,0.2h13.9h0
				c0.3,0,0.5-0.2,0.5-0.5C23.4,28.6,23.4,28.5,23.4,28.4z M10.2,26.8h4.7h2.2h4.7l0.5,1.4H9.7L10.2,26.8z M16.7,25.8h-1.3v-2.5
				c0-0.1,0.3-0.4,0.7-0.6c0.4,0.2,0.7,0.5,0.7,0.6V25.8z M21.3,17.5h0.9v0.6c-0.3,0-0.5,0.2-0.5,0.5v7.2h-4.1v-2.5
				c0-0.8-1.2-1.4-1.4-1.6c-0.1-0.1-0.3-0.1-0.4,0c-0.2,0.1-1.4,0.7-1.4,1.6v2.5h-4.1v-7.2c0-0.3-0.2-0.5-0.5-0.5h0v-0.6h0.9V18
				c0,0.3,0.2,0.5,0.5,0.5h0h1.2c0.3,0,0.5-0.2,0.5-0.5v-0.4h0.6V18c0,0.3,0.2,0.5,0.5,0.5h1.2c0.3,0,0.5-0.2,0.5-0.5v-0.4h0.6V18
				c0,0.3,0.2,0.5,0.5,0.5H18c0.3,0,0.5-0.2,0.5-0.5v-0.4h0.6V18c0,0.3,0.2,0.5,0.5,0.5h1.2h0c0.3,0,0.5-0.2,0.5-0.5V17.5z M18.1,13
				c0,0.1,0.1,0.2,0.3,0.3l1.3,0.6h-7.5l1.3-0.6c0.1-0.1,0.2-0.2,0.3-0.3l2.1-8L18.1,13z M20.3,14.8v2.7H20v-0.4
				c0-0.3-0.2-0.5-0.5-0.5H18c-0.3,0-0.5,0.2-0.5,0.5v0.4h-0.3v-0.4c0-0.3-0.2-0.5-0.5-0.5h-1.5c-0.3,0-0.5,0.2-0.5,0.5v0.4h-0.3
				v-0.4c0-0.3-0.2-0.5-0.5-0.5h-1.5c-0.3,0-0.5,0.2-0.5,0.5v0.4h-0.3v-2.7H20.3z"/>
			<path id="XMLID_644_" fill="#3A444F" d="M12.5,19.4c-0.4,0-0.7,0.3-0.7,0.7v0.7h1.4v-0.7C13.2,19.7,12.8,19.4,12.5,19.4z"/>
			<path id="XMLID_643_" fill="#3A444F" d="M14.8,19.4c-0.4,0-0.7,0.3-0.7,0.7v0.7h1.4v-0.7C15.5,19.7,15.2,19.4,14.8,19.4z"/>
			<path id="XMLID_642_" fill="#3A444F" d="M17.2,19.4c-0.4,0-0.7,0.3-0.7,0.7v0.7h1.4v-0.7C17.9,19.7,17.6,19.4,17.2,19.4z"/>
			<path id="XMLID_641_" fill="#3A444F" d="M19.5,19.4c-0.4,0-0.7,0.3-0.7,0.7v0.7h1.4v-0.7C20.2,19.7,19.9,19.4,19.5,19.4z"/>
		</g>
		<g id="XMLID_335_">
			<path id="XMLID_340_" fill="#67737C" d="M23.4,68.4l-0.8-2.2v-7.2c0.3,0,0.5-0.2,0.5-0.5v-1.5c0-0.3-0.2-0.5-0.5-0.5h-1.3v-1.8
				h0.7c0,0,0,0,0,0c0.3,0,0.5-0.2,0.5-0.5c0-0.2-0.1-0.4-0.3-0.4l-2.3-1c0,0,0-0.1,0-0.1v-4.1c0-0.2-0.2-0.4-0.4-0.5
				c-0.2,0-0.5,0.1-0.5,0.4l-0.4,2.1l-2-7.6v-1.2c0-0.3-0.2-0.5-0.5-0.5c-0.3,0-0.5,0.2-0.5,0.5v1.3l-2,7.6l-0.4-2.1
				c0-0.2-0.3-0.4-0.5-0.4c-0.2,0-0.4,0.2-0.4,0.5v4.1c0,0,0,0.1,0,0.1l-2.3,1c-0.2,0.1-0.3,0.3-0.3,0.5c0,0.2,0.2,0.4,0.5,0.4h0.7
				v1.8H9.4c-0.3,0-0.5,0.2-0.5,0.5v1.5c0,0.3,0.2,0.5,0.5,0.5h0v7.2l-0.8,2.3c0,0.1,0,0.3,0.1,0.4c0.1,0.1,0.2,0.2,0.4,0.2h13.9h0
				c0.3,0,0.5-0.2,0.5-0.5C23.4,68.6,23.4,68.5,23.4,68.4z M10.2,66.8h4.7h2.2h4.7l0.5,1.4H9.7L10.2,66.8z M16.7,65.8h-1.3v-2.5
				c0-0.1,0.3-0.4,0.7-0.6c0.4,0.2,0.7,0.5,0.7,0.6V65.8z M21.3,57.5h0.9v0.6c-0.3,0-0.5,0.2-0.5,0.5v7.2h-4.1v-2.5
				c0-0.8-1.2-1.4-1.4-1.6c-0.1-0.1-0.3-0.1-0.4,0c-0.2,0.1-1.4,0.7-1.4,1.6v2.5h-4.1v-7.2c0-0.3-0.2-0.5-0.5-0.5h0v-0.6h0.9V58
				c0,0.3,0.2,0.5,0.5,0.5h0h1.2c0.3,0,0.5-0.2,0.5-0.5v-0.4h0.6V58c0,0.3,0.2,0.5,0.5,0.5h1.2c0.3,0,0.5-0.2,0.5-0.5v-0.4h0.6V58
				c0,0.3,0.2,0.5,0.5,0.5H18c0.3,0,0.5-0.2,0.5-0.5v-0.4h0.6V58c0,0.3,0.2,0.5,0.5,0.5h1.2h0c0.3,0,0.5-0.2,0.5-0.5V57.5z M18.1,53
				c0,0.1,0.1,0.2,0.3,0.3l1.3,0.6h-7.5l1.3-0.6c0.1-0.1,0.2-0.2,0.3-0.3l2.1-8L18.1,53z M20.3,54.8v2.7H20v-0.4
				c0-0.3-0.2-0.5-0.5-0.5H18c-0.3,0-0.5,0.2-0.5,0.5v0.4h-0.3v-0.4c0-0.3-0.2-0.5-0.5-0.5h-1.5c-0.3,0-0.5,0.2-0.5,0.5v0.4h-0.3
				v-0.4c0-0.3-0.2-0.5-0.5-0.5h-1.5c-0.3,0-0.5,0.2-0.5,0.5v0.4h-0.3v-2.7H20.3z"/>
			<path id="XMLID_339_" fill="#67737C" d="M12.5,59.4c-0.4,0-0.7,0.3-0.7,0.7v0.7h1.4v-0.7C13.2,59.7,12.8,59.4,12.5,59.4z"/>
			<path id="XMLID_338_" fill="#67737C" d="M14.8,59.4c-0.4,0-0.7,0.3-0.7,0.7v0.7h1.4v-0.7C15.5,59.7,15.2,59.4,14.8,59.4z"/>
			<path id="XMLID_337_" fill="#67737C" d="M17.2,59.4c-0.4,0-0.7,0.3-0.7,0.7v0.7h1.4v-0.7C17.9,59.7,17.6,59.4,17.2,59.4z"/>
			<path id="XMLID_336_" fill="#67737C" d="M19.5,59.4c-0.4,0-0.7,0.3-0.7,0.7v0.7h1.4v-0.7C20.2,59.7,19.9,59.4,19.5,59.4z"/>
		</g>
		<g id="XMLID_588_">
			<path id="XMLID_593_" fill="#FFFFFF" d="M23.4,108.4l-0.8-2.2v-7.2c0.3,0,0.5-0.2,0.5-0.5v-1.5c0-0.3-0.2-0.5-0.5-0.5h-1.3v-1.8
				h0.7c0,0,0,0,0,0c0.3,0,0.5-0.2,0.5-0.5c0-0.2-0.1-0.4-0.3-0.4l-2.3-1c0,0,0-0.1,0-0.1v-4.1c0-0.2-0.2-0.4-0.4-0.5
				c-0.2,0-0.5,0.1-0.5,0.4l-0.4,2.1l-2-7.6v-1.2c0-0.3-0.2-0.5-0.5-0.5c-0.3,0-0.5,0.2-0.5,0.5v1.3l-2,7.6l-0.4-2.1
				c0-0.2-0.3-0.4-0.5-0.4c-0.2,0-0.4,0.2-0.4,0.5v4.1c0,0,0,0.1,0,0.1l-2.3,1c-0.2,0.1-0.3,0.3-0.3,0.5c0,0.2,0.2,0.4,0.5,0.4h0.7
				v1.8H9.4c-0.3,0-0.5,0.2-0.5,0.5v1.5c0,0.3,0.2,0.5,0.5,0.5h0v7.2l-0.8,2.3c0,0.1,0,0.3,0.1,0.4c0.1,0.1,0.2,0.2,0.4,0.2h13.9h0
				c0.3,0,0.5-0.2,0.5-0.5C23.4,108.6,23.4,108.5,23.4,108.4z M10.2,106.8h4.7h2.2h4.7l0.5,1.4H9.7L10.2,106.8z M16.7,105.8h-1.3
				v-2.5c0-0.1,0.3-0.4,0.7-0.6c0.4,0.2,0.7,0.5,0.7,0.6V105.8z M21.3,97.5h0.9v0.6c-0.3,0-0.5,0.2-0.5,0.5v7.2h-4.1v-2.5
				c0-0.8-1.2-1.4-1.4-1.6c-0.1-0.1-0.3-0.1-0.4,0c-0.2,0.1-1.4,0.7-1.4,1.6v2.5h-4.1v-7.2c0-0.3-0.2-0.5-0.5-0.5h0v-0.6h0.9V98
				c0,0.3,0.2,0.5,0.5,0.5h0h1.2c0.3,0,0.5-0.2,0.5-0.5v-0.4h0.6V98c0,0.3,0.2,0.5,0.5,0.5h1.2c0.3,0,0.5-0.2,0.5-0.5v-0.4h0.6V98
				c0,0.3,0.2,0.5,0.5,0.5H18c0.3,0,0.5-0.2,0.5-0.5v-0.4h0.6V98c0,0.3,0.2,0.5,0.5,0.5h1.2h0c0.3,0,0.5-0.2,0.5-0.5V97.5z M18.1,93
				c0,0.1,0.1,0.2,0.3,0.3l1.3,0.6h-7.5l1.3-0.6c0.1-0.1,0.2-0.2,0.3-0.3l2.1-8L18.1,93z M20.3,94.8v2.7H20v-0.4
				c0-0.3-0.2-0.5-0.5-0.5H18c-0.3,0-0.5,0.2-0.5,0.5v0.4h-0.3v-0.4c0-0.3-0.2-0.5-0.5-0.5h-1.5c-0.3,0-0.5,0.2-0.5,0.5v0.4h-0.3
				v-0.4c0-0.3-0.2-0.5-0.5-0.5h-1.5c-0.3,0-0.5,0.2-0.5,0.5v0.4h-0.3v-2.7H20.3z"/>
			<path id="XMLID_592_" fill="#FFFFFF" d="M12.5,99.4c-0.4,0-0.7,0.3-0.7,0.7v0.7h1.4v-0.7C13.2,99.7,12.8,99.4,12.5,99.4z"/>
			<path id="XMLID_591_" fill="#FFFFFF" d="M14.8,99.4c-0.4,0-0.7,0.3-0.7,0.7v0.7h1.4v-0.7C15.5,99.7,15.2,99.4,14.8,99.4z"/>
			<path id="XMLID_590_" fill="#FFFFFF" d="M17.2,99.4c-0.4,0-0.7,0.3-0.7,0.7v0.7h1.4v-0.7C17.9,99.7,17.6,99.4,17.2,99.4z"/>
			<path id="XMLID_589_" fill="#FFFFFF" d="M19.5,99.4c-0.4,0-0.7,0.3-0.7,0.7v0.7h1.4v-0.7C20.2,99.7,19.9,99.4,19.5,99.4z"/>
		</g>
		<g id="XMLID_801_">
			<path id="XMLID_806_" fill="#1D70AD" d="M23.4,148.4l-0.8-2.2v-7.2c0.3,0,0.5-0.2,0.5-0.5v-1.5c0-0.3-0.2-0.5-0.5-0.5h-1.3v-1.8
				h0.7c0,0,0,0,0,0c0.3,0,0.5-0.2,0.5-0.5c0-0.2-0.1-0.4-0.3-0.4l-2.3-1c0,0,0-0.1,0-0.1v-4.1c0-0.2-0.2-0.4-0.4-0.5
				c-0.2,0-0.5,0.1-0.5,0.4l-0.4,2.1l-2-7.6v-1.2c0-0.3-0.2-0.5-0.5-0.5c-0.3,0-0.5,0.2-0.5,0.5v1.3l-2,7.6l-0.4-2.1
				c0-0.2-0.3-0.4-0.5-0.4c-0.2,0-0.4,0.2-0.4,0.5v4.1c0,0,0,0.1,0,0.1l-2.3,1c-0.2,0.1-0.3,0.3-0.3,0.5c0,0.2,0.2,0.4,0.5,0.4h0.7
				v1.8H9.4c-0.3,0-0.5,0.2-0.5,0.5v1.5c0,0.3,0.2,0.5,0.5,0.5h0v7.2l-0.8,2.3c0,0.1,0,0.3,0.1,0.4c0.1,0.1,0.2,0.2,0.4,0.2h13.9h0
				c0.3,0,0.5-0.2,0.5-0.5C23.4,148.6,23.4,148.5,23.4,148.4z M10.2,146.8h4.7h2.2h4.7l0.5,1.4H9.7L10.2,146.8z M16.7,145.8h-1.3
				v-2.5c0-0.1,0.3-0.4,0.7-0.6c0.4,0.2,0.7,0.5,0.7,0.6V145.8z M21.3,137.5h0.9v0.6c-0.3,0-0.5,0.2-0.5,0.5v7.2h-4.1v-2.5
				c0-0.8-1.2-1.4-1.4-1.6c-0.1-0.1-0.3-0.1-0.4,0c-0.2,0.1-1.4,0.7-1.4,1.6v2.5h-4.1v-7.2c0-0.3-0.2-0.5-0.5-0.5h0v-0.6h0.9v0.4
				c0,0.3,0.2,0.5,0.5,0.5h0h1.2c0.3,0,0.5-0.2,0.5-0.5v-0.4h0.6v0.4c0,0.3,0.2,0.5,0.5,0.5h1.2c0.3,0,0.5-0.2,0.5-0.5v-0.4h0.6v0.4
				c0,0.3,0.2,0.5,0.5,0.5H18c0.3,0,0.5-0.2,0.5-0.5v-0.4h0.6v0.4c0,0.3,0.2,0.5,0.5,0.5h1.2h0c0.3,0,0.5-0.2,0.5-0.5V137.5z
				 M18.1,133c0,0.1,0.1,0.2,0.3,0.3l1.3,0.6h-7.5l1.3-0.6c0.1-0.1,0.2-0.2,0.3-0.3l2.1-8L18.1,133z M20.3,134.8v2.7H20v-0.4
				c0-0.3-0.2-0.5-0.5-0.5H18c-0.3,0-0.5,0.2-0.5,0.5v0.4h-0.3v-0.4c0-0.3-0.2-0.5-0.5-0.5h-1.5c-0.3,0-0.5,0.2-0.5,0.5v0.4h-0.3
				v-0.4c0-0.3-0.2-0.5-0.5-0.5h-1.5c-0.3,0-0.5,0.2-0.5,0.5v0.4h-0.3v-2.7H20.3z"/>
			<path id="XMLID_805_" fill="#1D70AD" d="M12.5,139.4c-0.4,0-0.7,0.3-0.7,0.7v0.7h1.4v-0.7C13.2,139.7,12.8,139.4,12.5,139.4z"/>
			<path id="XMLID_804_" fill="#1D70AD" d="M14.8,139.4c-0.4,0-0.7,0.3-0.7,0.7v0.7h1.4v-0.7C15.5,139.7,15.2,139.4,14.8,139.4z"/>
			<path id="XMLID_803_" fill="#1D70AD" d="M17.2,139.4c-0.4,0-0.7,0.3-0.7,0.7v0.7h1.4v-0.7C17.9,139.7,17.6,139.4,17.2,139.4z"/>
			<path id="XMLID_802_" fill="#1D70AD" d="M19.5,139.4c-0.4,0-0.7,0.3-0.7,0.7v0.7h1.4v-0.7C20.2,139.7,19.9,139.4,19.5,139.4z"/>
		</g>
</svg>
