<svg width="32" height="232" viewBox="0 0 32 232" xmlns="http://www.w3.org/2000/svg"><g fill="none"><path d="M29.356 149.906h-.443v-6.19c.198-.075.34-.263.34-.485 0-.22-.142-.41-.34-.48v-4.33c.198-.07.34-.26.34-.48 0-.28-.228-.51-.51-.52l-.796-1.51c-.046-.08-.117-.16-.2-.2v-2.31c.312-.16 1.404-.81 1.404-2.22 0-1.25-.91-1.96-1.65-2.53-.32-.24-.62-.48-.81-.72v-1.57c.11-.12.18-.28.18-.45 0-.38-.31-.69-.7-.69-.38 0-.7.31-.7.7 0 .17.07.33.18.45v1.57c-.18.25-.49.48-.81.73-.74.57-1.65 1.278-1.65 2.53 0 1.16.73 1.806 1.17 2.09v2.45c-.08.045-.15.12-.2.204l-.79 1.51c-.28.008-.51.236-.51.518l.01.095h-.31v-2.19c.37-.244.94-.78.94-1.71 0-1.04-.74-1.61-1.34-2.072-.23-.18-.45-.35-.59-.517v-1.16c.09-.11.14-.25.14-.4 0-.366-.293-.66-.66-.66-.362 0-.66.29-.66.65 0 .15.05.29.138.4v1.15c-.144.17-.365.34-.6.52-.32.25-.68.53-.95.9l-.035-.067-.45-.726c.16-.09.27-.257.27-.45 0-.29-.232-.52-.522-.52h-.3l-.816-2.544c.03-.07.054-.15.054-.23 0-.14-.055-.26-.14-.35l.12-1.73c.26-.23.5-.59.5-1.09 0-.74-.52-1.14-.9-1.43l-.28-.237v-1.14h.11c.29 0 .526-.24.526-.52 0-.29-.237-.52-.527-.52h-.106v-.11c0-.29-.235-.52-.525-.52-.29 0-.52.23-.52.52v.11h-.11c-.29 0-.524.23-.524.52 0 .28.238.52.527.52h.106v1.14l-.28.23c-.38.29-.9.69-.9 1.424 0 .507.24.868.5 1.09l.12 1.73c-.086.09-.14.217-.14.35 0 .08.02.16.06.23l-.817 2.54h-.295c-.29 0-.53.23-.53.52 0 .198.11.36.27.45l-.45.728-.034.07c-.27-.37-.63-.65-.95-.898-.23-.18-.453-.35-.593-.52v-1.157c.087-.11.137-.246.137-.395 0-.36-.3-.66-.66-.66-.37 0-.66.3-.66.66 0 .15.05.286.133.396v1.16c-.14.17-.363.34-.596.52-.6.46-1.342 1.037-1.342 2.07 0 .91.55 1.445.92 1.697v2.2H9l.01-.095c0-.28-.228-.51-.51-.52l-.796-1.51c-.05-.086-.12-.16-.2-.206v-2.31c.31-.16 1.4-.81 1.4-2.226 0-1.25-.92-1.96-1.66-2.53-.32-.245-.622-.48-.81-.72v-1.572c.11-.12.175-.28.175-.45 0-.38-.32-.69-.7-.69-.39 0-.7.31-.7.69 0 .174.06.33.17.454v1.57c-.19.24-.49.47-.81.72-.74.57-1.66 1.27-1.66 2.52 0 1.156.73 1.803 1.17 2.09v2.45c-.09.05-.16.12-.2.21l-.8 1.51c-.29 0-.51.23-.51.51 0 .227.14.41.34.49v4.337c-.2.076-.34.26-.34.486 0 .22.14.41.34.49v6.19h-.44c-.58 0-1.05.46-1.05 1.04 0 .57.47 1.04 1.05 1.04h26.91c.58 0 1.05-.47 1.05-1.04 0-.58-.47-1.04-1.05-1.04zM5.19 129.446c.24-.183.48-.37.695-.573.215.205.457.39.694.573.77.6 1.25 1.014 1.25 1.706 0 .758-.56 1.144-.77 1.264H4.7c-.21-.12-.764-.504-.764-1.264 0-.692.472-1.106 1.25-1.706zm5.144 3.42c.16-.125.324-.25.476-.387.15.13.314.26.476.38.584.45.94.76.94 1.25 0 .51-.353.78-.52.88h-1.79c-.163-.1-.52-.37-.52-.88 0-.5.355-.8.94-1.25zm5.434-6.206h.264l-.08 1.148h-.105l-.08-1.148zm-.033-2.033l.165-.13.165.13c.337.26.495.403.495.604 0 .18-.1.29-.174.34h-.972c-.076-.05-.175-.16-.175-.33 0-.2.15-.34.49-.6zm.006 4.292h.32l.73 2.25h-1.77l.73-2.25zm3.23 6.45c.16.19.33.34.48.44v.55h-.48v-1zm1.55-2.51c.16-.13.33-.25.48-.39.16.13.32.26.48.38.59.45.94.76.94 1.25 0 .51-.35.78-.52.88h-1.8c-.16-.1-.52-.37-.52-.88 0-.5.36-.81.94-1.26zm4.95-3.42c.24-.18.48-.37.7-.57.22.2.46.39.7.57.78.6 1.25 1.01 1.25 1.7 0 .76-.55 1.14-.76 1.26H25c-.213-.12-.767-.51-.767-1.27 0-.69.474-1.11 1.253-1.71zm1.28 14.3h1.13v6.15h-1.13v-6.16zm-22.8-5.31H7.6v1.3H5.67c-.33 0-.643.15-.84.41-.2.26-.26.6-.17.91l.412 1.41v.22H3.94v-4.27zm8.9-1.04h6.62v.61h-3.44c-.07-.02-.15-.02-.23 0h-3.44v-.61h.49zm15.03 1.03v4.27h-1.13v-.23l.41-1.41c.09-.32.03-.65-.17-.92s-.51-.42-.84-.42h-1.93v-1.3h3.66zm-3.65 3.38h.53l-.06.22c-.03.09-.04.19-.04.29v1.16H23v-1.37h-1.05v1.37h-1.427v-1.67h3.684zm-6.2 3.72c-.38 0-.69.3-.71.67v3.6h-.69v-3.6c-.02-.37-.33-.67-.71-.67-.38 0-.69.3-.71.67v3.6h-.69v-3.6c-.02-.37-.33-.67-.71-.67-.38 0-.69.3-.71.67v3.6h-.75v-5.27h7.15v5.27h-.75v-3.6c-.01-.37-.32-.67-.71-.67zM7.17 142.7v-.372c0-.096-.014-.194-.04-.29l-.066-.222h4.218v1.677H9.85v-1.37H8.8v1.37H7.166v-.79zm6.125-1.925c.258-.24.576-.49.955-.744l.464-.29c.48-.29.92-.51 1.175-.64.43.23.8.44 1.13.64.65.4 1.11.75 1.44 1.04.52.47.71.82.77 1.04l.03.19c0 .35-.17.64-.38.86l.01-.12c0-.3-.11-.61-.34-.92-.25-.34-.64-.68-1.18-1.04-.32-.21-.69-.42-1.11-.64l-.08-.04c-.15-.1-.34-.11-.5-.04-.2.09-.76.35-1.32.72-.43.29-.85.64-1.13 1.04-.2.29-.33.6-.33.92v.12c-.22-.22-.38-.51-.38-.85l.02-.18c.07-.31.32-.66.72-1.04zm.676 1.96c0-.257.32-.595.75-.92.36-.26.78-.514 1.17-.705.51.266.88.5 1.16.704.77.562.8.875.8.92 0 .427-.54.68-.73.756H14.7c-.186-.074-.73-.327-.73-.757zm-6.8 1.8h4.12v5.27H7.17v-5.27zm13.36 0h4.11v5.27h-4.11v-5.27zm-2.01-5.05c-.19-.146-.4-.29-.62-.435h.63v.43zm-4.67-.435l-.17.112-.37.263v-.375h.55zm11.54-5.6h1.32v2.16h-1.32v-2.16zm-.55 3.35l.08-.154h2.26l.4.75h-3.05l.32-.597zm-5.27 2.246h2.86v.686h-2.86v-.69zm1.91-1.04h-.96v-1.127l-.01-.11v-.75h.98V138zm-7.58-4.728l.68-1.08h2.68l.68 1.08v3.08h-.57v-1.953c-.01-.31-.27-.557-.59-.557-.31 0-.57.248-.59.558v1.955h-.53v-1.95c-.01-.31-.27-.55-.59-.55-.31 0-.57.25-.59.56v1.96h-.57v-3.08zm-3.58 2.746h.98v1.98h-.97v-1.98zm-.92 3.02h2.86v.687H9.39v-.68zm-4.28-5.6h1.32v2.16H5.11v-2.16zm-.55 3.352l.08-.153H6.9l.393.75h-3.05l.312-.598zm-.62 6.94h1.13v6.157H3.94v-6.158zm22.22-18.22c.16 0 .29.102.33.24-.09-.073-.2-.12-.33-.12s-.24.046-.33.12c.05-.138.18-.24.34-.24zM21 129.58c.16 0 .3.1.36.237-.096-.09-.22-.14-.36-.14-.14 0-.264.05-.358.14.06-.14.198-.238.36-.238zm-8.156 6.78h-.5v-.542c.15-.1.334-.25.5-.45v1zm-2.027-6.78c.16 0 .3.1.36.237-.09-.09-.22-.14-.356-.14-.14 0-.26.05-.36.14.06-.14.2-.238.36-.238zm-4.923-4.06c.156 0 .287.102.332.24-.09-.073-.206-.12-.333-.12-.128 0-.24.046-.333.12.043-.138.174-.24.33-.24zm2.915 20.41h1.05v2.633H8.8v-2.632zm13.15 0h1.05v2.633h-1.05v-2.632zm-3.05-23.663c.24.21.55.33.87.33h2.42l-.01.1c0 .323.14.635.39.85.21.187.48.287.76.287h3.83c.63 0 1.15-.51 1.15-1.138 0-.63-.52-1.14-1.15-1.14h-.11l.03-.27c0-.72-.6-1.31-1.32-1.31h-6.01c-.33 0-.64.116-.88.327-.29.25-.45.607-.45.982s.16.732.45.98zm.69-1.184c.03-.03.09-.068.18-.068h6c.15 0 .27.12.27.27 0 .15-.13.27-.28.27-.29 0-.53.23-.53.52 0 .28.24.52.53.52h1.4c.05 0 .1.04.1.1 0 .05-.05.09-.1.09h-3.84l-.07-.025-.04-.074.032-.074.064-.026c.29 0 .53-.232.53-.52 0-.286-.237-.52-.527-.52h-3.57c-.088 0-.147-.036-.18-.066-.037-.03-.095-.095-.095-.2 0-.105.06-.172.09-.202z" fill="#206FAC"/><path d="M29.356 109.906h-.443v-6.19c.198-.075.34-.263.34-.485 0-.22-.142-.41-.34-.48v-4.34c.198-.07.34-.26.34-.48 0-.28-.228-.51-.51-.52l-.796-1.51c-.046-.08-.117-.16-.2-.2v-2.32c.312-.16 1.404-.81 1.404-2.22 0-1.25-.91-1.96-1.65-2.52-.32-.24-.62-.48-.81-.72v-1.58c.11-.12.18-.28.18-.45 0-.38-.31-.69-.7-.69-.38 0-.7.31-.7.7 0 .18.07.33.18.46v1.57c-.18.25-.49.48-.81.73-.74.57-1.65 1.28-1.65 2.53 0 1.16.73 1.81 1.17 2.09v2.45c-.08.05-.15.12-.2.21l-.79 1.51c-.28.01-.51.24-.51.52l.01.1h-.31v-2.19c.37-.243.94-.78.94-1.71 0-1.04-.74-1.61-1.34-2.07-.23-.18-.45-.35-.59-.515V90.4c.09-.11.14-.246.14-.395 0-.363-.293-.656-.66-.656-.362 0-.66.29-.66.65 0 .15.05.28.138.39v1.15c-.144.17-.365.34-.6.52-.32.25-.68.53-.95.89l-.035-.07-.45-.72c.16-.09.27-.26.27-.45 0-.29-.232-.52-.522-.52h-.3l-.816-2.54c.03-.07.054-.15.054-.23 0-.14-.055-.26-.14-.35l.12-1.73c.26-.23.5-.59.5-1.09 0-.73-.52-1.14-.9-1.43l-.28-.24v-1.14h.11c.29 0 .526-.24.526-.52 0-.29-.237-.52-.527-.52h-.106v-.11c0-.29-.235-.52-.525-.52-.29 0-.52.23-.52.52v.103h-.11c-.29 0-.524.23-.524.52 0 .285.238.52.527.52h.106v1.14l-.28.236c-.38.294-.9.694-.9 1.43 0 .505.24.87.5 1.09l.12 1.73c-.086.094-.14.215-.14.35 0 .08.02.16.06.23l-.817 2.54h-.295c-.29 0-.53.235-.53.52 0 .2.11.365.27.454l-.45.72-.034.07c-.27-.364-.63-.644-.95-.89-.23-.18-.453-.35-.593-.52V90.4c.087-.11.137-.25.137-.398 0-.36-.3-.656-.66-.656-.37 0-.66.29-.66.65 0 .15.05.287.133.397v1.155c-.14.17-.363.34-.596.52-.6.46-1.342 1.035-1.342 2.07 0 .915.55 1.446.92 1.7v2.2H9l.003-.1c0-.28-.224-.51-.51-.516L7.7 95.9c-.046-.086-.12-.16-.2-.206V93.38c.312-.157 1.404-.81 1.404-2.223 0-1.25-.92-1.95-1.66-2.52-.32-.243-.63-.48-.82-.72v-1.58c.11-.12.175-.28.175-.45 0-.38-.32-.692-.7-.692-.39 0-.7.31-.7.694 0 .17.06.33.17.45v1.58c-.19.24-.49.47-.81.72-.74.57-1.66 1.27-1.66 2.53 0 1.16.73 1.8 1.17 2.09v2.45c-.08.05-.15.12-.2.2l-.8 1.51c-.28 0-.51.23-.51.51 0 .22.14.41.34.48v4.33c-.2.08-.34.26-.34.49 0 .22.14.41.34.48v6.19h-.44c-.58 0-1.05.46-1.05 1.04 0 .57.47 1.04 1.05 1.04h26.91c.58 0 1.05-.47 1.05-1.04 0-.58-.47-1.04-1.05-1.04zM5.19 89.446c.24-.183.48-.37.695-.573.215.205.457.39.694.573.77.6 1.25 1.014 1.25 1.706 0 .758-.56 1.144-.77 1.264H4.7c-.21-.12-.764-.504-.764-1.264 0-.692.472-1.106 1.25-1.706zm5.144 3.42c.16-.125.324-.25.476-.387.15.13.314.26.476.38.584.45.94.76.94 1.25 0 .51-.353.78-.52.88h-1.79c-.163-.1-.52-.37-.52-.88 0-.5.355-.8.94-1.25zm5.434-6.206h.264l-.08 1.148h-.105l-.08-1.148zm-.033-2.033l.165-.13.165.13c.337.26.495.403.495.604 0 .18-.1.29-.174.34h-.972c-.076-.05-.175-.16-.175-.33 0-.2.15-.34.49-.6zm.006 4.292h.32l.73 2.25h-1.77l.73-2.25zm3.23 6.45c.16.19.33.34.48.44v.55h-.48v-1zm1.55-2.51c.16-.13.33-.25.48-.39.16.13.32.26.48.38.59.45.94.76.94 1.25 0 .51-.35.78-.52.88h-1.8c-.16-.1-.52-.37-.52-.88 0-.5.36-.81.94-1.26zm4.95-3.42c.24-.18.48-.37.7-.57.22.2.46.39.7.57.78.6 1.25 1.01 1.25 1.7 0 .76-.55 1.14-.76 1.26H25c-.213-.12-.767-.51-.767-1.27 0-.69.474-1.11 1.253-1.71zm1.28 14.3h1.13v6.15h-1.13v-6.16zm-22.81-5.3H7.6v1.3H5.67c-.33 0-.642.15-.84.41-.198.26-.26.6-.17.91l.413 1.41v.22H3.94v-4.26zm8.9-1.04h6.62v.6h-3.44c-.07-.02-.15-.02-.23 0h-3.44v-.6h.49zm15.03 1.03v4.27h-1.13v-.23l.41-1.41c.09-.32.03-.66-.17-.92s-.51-.42-.84-.42h-1.93v-1.3h3.66zm-3.65 3.38h.53l-.07.22c-.03.09-.04.19-.04.29v1.16H23v-1.38h-1.05v1.37h-1.427v-1.67h3.684zm-6.2 3.72c-.38 0-.69.3-.71.67v3.6h-.69v-3.6c-.02-.38-.33-.67-.71-.67-.38 0-.7.3-.71.67v3.6h-.69v-3.6c-.02-.38-.33-.67-.71-.67-.39 0-.7.3-.72.67v3.6h-.75v-5.28h7.15v5.27h-.75v-3.6c-.02-.38-.33-.67-.71-.67zM7.17 102.7v-.377c0-.098-.018-.196-.04-.29l-.07-.224h4.215v1.67H9.84v-1.37H8.8v1.37H7.166v-.79zm6.12-1.93c.26-.24.576-.49.955-.745l.464-.298c.48-.29.92-.515 1.17-.64.43.226.8.438 1.13.638.65.396 1.11.742 1.44 1.04.52.467.71.812.77 1.04l.03.182c0 .35-.17.634-.38.86l.01-.125c0-.306-.11-.61-.34-.92-.25-.34-.64-.682-1.18-1.04-.32-.21-.68-.42-1.1-.64l-.08-.04c-.15-.096-.34-.114-.51-.04-.2.09-.76.347-1.32.724-.42.28-.85.64-1.13 1.04-.2.28-.33.59-.33.92l.003.12c-.214-.23-.376-.51-.376-.86l.026-.19c.07-.307.32-.66.72-1.04zm.676 1.957c0-.255.32-.593.75-.917.353-.26.78-.51 1.17-.7.5.27.875.51 1.153.71.76.565.8.878.8.92 0 .43-.54.68-.73.76H14.7c-.19-.076-.73-.33-.73-.76zm-6.8 1.8h4.113v5.272H7.16v-5.28zm13.36 0h4.11v5.272h-4.11v-5.28zm-2.015-5.05c-.19-.144-.4-.288-.62-.433h.63v.43zm-4.67-.433l-.17.114-.37.26v-.38h.55zm11.54-5.6h1.32v2.16h-1.32v-2.16zm-.55 3.353l.08-.155h2.26l.4.75h-3.05l.32-.596zm-5.27 2.245h2.86v.687h-2.85v-.69zm1.91-1.04h-.97v-1.12l-.01-.108v-.75h.98v1.98zm-7.58-4.727l.68-1.076h2.68l.68 1.07v3.08h-.56V94.4c-.02-.31-.28-.555-.59-.555-.32 0-.58.247-.59.557v1.96h-.54v-1.96c-.02-.31-.27-.557-.59-.557-.32 0-.57.248-.59.558v1.952h-.57v-3.08zm-3.57 2.75h.98v1.98h-.97v-1.98zm-.92 3.02h2.85v.686H9.39v-.68zm-4.28-5.6h1.32v2.16H5.11v-2.16zm-.55 3.35l.08-.152H6.9l.395.75h-3.05l.314-.598zm-.62 6.94h1.13v6.158H3.94v-6.158zm22.22-18.22c.16 0 .29.103.33.24-.09-.072-.2-.12-.33-.12s-.24.047-.33.12c.05-.137.18-.24.34-.24zM21 89.575c.16 0 .3.1.36.238-.1-.09-.22-.14-.36-.14-.14 0-.27.05-.36.14.06-.14.2-.238.36-.238zm-8.16 6.78h-.5v-.54c.15-.1.332-.25.5-.45v1zm-2.03-6.78c.16 0 .297.1.356.238-.09-.09-.22-.14-.353-.14-.14 0-.27.05-.36.14.06-.14.194-.238.36-.238zm-4.927-4.06c.154 0 .285.103.33.24-.09-.072-.208-.12-.335-.12-.125 0-.24.047-.33.12.046-.137.177-.24.333-.24zm2.913 20.41h1.05v2.634H8.79v-2.64zm13.15 0H23v2.634h-1.05v-2.64zM18.9 82.27c.24.21.55.328.873.328H22.2l-.004.1c0 .325.14.637.39.853.21.19.48.29.76.29h3.834c.633 0 1.148-.51 1.148-1.14 0-.63-.515-1.14-1.148-1.14h-.11l.028-.27c0-.72-.593-1.31-1.322-1.31h-6c-.322 0-.632.12-.874.33-.285.25-.45.61-.45.98s.165.73.45.98zm.694-1.184c.034-.03.094-.068.18-.068h6c.15 0 .272.12.272.27 0 .15-.122.27-.272.27-.29 0-.52.233-.52.52h-.003c0 .287.24.52.53.52h1.41c.06 0 .1.044.1.1 0 .054-.04.098-.1.098h-3.84l-.06-.026-.03-.074.04-.074.07-.025c.29 0 .52-.233.52-.52 0-.287-.23-.52-.52-.52H19.8c-.087 0-.146-.037-.18-.067-.036-.03-.09-.097-.09-.202 0-.105.06-.172.09-.202z" fill="#fff"/><path d="M29.356 69.906h-.443v-6.19c.198-.075.34-.263.34-.485 0-.22-.142-.41-.34-.48v-4.34c.198-.07.34-.26.34-.48 0-.28-.228-.51-.51-.52l-.796-1.51c-.046-.08-.117-.16-.2-.2v-2.32c.312-.16 1.404-.81 1.404-2.22 0-1.25-.91-1.96-1.65-2.52-.32-.24-.62-.48-.81-.72v-1.58c.11-.12.18-.28.18-.45 0-.38-.31-.69-.7-.69-.38 0-.7.31-.7.7 0 .18.07.33.18.46v1.57c-.18.25-.49.48-.81.73-.74.57-1.65 1.28-1.65 2.53 0 1.16.73 1.81 1.17 2.09v2.45c-.08.05-.15.12-.2.21l-.79 1.51c-.28.01-.51.24-.51.52l.01.1h-.31v-2.19c.37-.243.94-.78.94-1.71 0-1.04-.74-1.61-1.34-2.07-.23-.18-.45-.35-.59-.515V50.4c.09-.11.14-.246.14-.395 0-.363-.293-.656-.66-.656-.362 0-.66.29-.66.65 0 .15.05.28.138.39v1.15c-.144.17-.365.34-.6.52-.32.25-.68.53-.95.89l-.035-.07-.45-.72c.16-.09.27-.26.27-.45 0-.29-.232-.52-.522-.52h-.3l-.816-2.54c.03-.07.054-.15.054-.23 0-.14-.055-.26-.14-.35l.12-1.73c.26-.23.5-.59.5-1.09 0-.73-.52-1.14-.9-1.43l-.28-.24v-1.14h.11c.29 0 .526-.24.526-.52 0-.29-.237-.52-.527-.52h-.106v-.11c0-.29-.235-.52-.525-.52-.29 0-.52.23-.52.52v.103h-.11c-.29 0-.524.23-.524.52 0 .285.238.52.527.52h.106v1.14l-.28.236c-.38.294-.9.694-.9 1.43 0 .505.24.87.5 1.09l.12 1.73c-.086.094-.14.215-.14.35 0 .08.02.16.06.23l-.817 2.54h-.295c-.29 0-.53.235-.53.52 0 .2.11.365.27.454l-.45.72-.034.07c-.27-.364-.63-.644-.95-.89-.23-.18-.453-.35-.593-.52V50.4c.087-.11.137-.25.137-.398 0-.36-.3-.656-.66-.656-.37 0-.66.29-.66.65 0 .15.05.287.133.397v1.155c-.14.17-.363.34-.596.52-.6.46-1.342 1.035-1.342 2.07 0 .915.55 1.446.92 1.7v2.2H9l.003-.1c0-.28-.224-.51-.51-.516L7.7 55.9c-.046-.086-.12-.16-.2-.206V53.38c.312-.157 1.404-.81 1.404-2.223 0-1.25-.92-1.95-1.66-2.52-.32-.243-.63-.48-.82-.72v-1.58c.11-.12.175-.28.175-.45 0-.38-.32-.692-.7-.692-.39 0-.7.31-.7.694 0 .17.06.33.17.45v1.58c-.19.24-.49.47-.81.72-.74.57-1.66 1.27-1.66 2.53 0 1.16.73 1.8 1.17 2.09v2.45c-.08.05-.15.12-.2.2l-.8 1.51c-.28 0-.51.23-.51.51 0 .22.14.41.34.48v4.33c-.2.08-.34.26-.34.49 0 .22.14.41.34.48v6.19h-.44c-.58 0-1.05.46-1.05 1.04 0 .57.47 1.04 1.05 1.04h26.91c.58 0 1.05-.47 1.05-1.04 0-.58-.47-1.04-1.05-1.04zM5.19 49.446c.24-.183.48-.37.695-.573.215.205.457.39.694.573.77.6 1.25 1.014 1.25 1.706 0 .758-.56 1.144-.77 1.264H4.7c-.21-.12-.764-.504-.764-1.264 0-.692.472-1.106 1.25-1.706zm5.144 3.42c.16-.125.324-.25.476-.387.15.13.314.26.476.38.584.45.94.76.94 1.25 0 .51-.353.78-.52.88h-1.79c-.163-.1-.52-.37-.52-.88 0-.5.355-.8.94-1.25zm5.434-6.206h.264l-.08 1.148h-.105l-.08-1.148zm-.033-2.033l.165-.13.165.13c.337.26.495.403.495.604 0 .18-.1.29-.174.34h-.972c-.076-.05-.175-.16-.175-.33 0-.2.15-.34.49-.6zm.006 4.292h.32l.73 2.25h-1.77l.73-2.25zm3.23 6.45c.16.19.33.34.48.44v.55h-.48v-1zm1.55-2.51c.16-.13.33-.25.48-.39.16.13.32.26.48.38.59.45.94.76.94 1.25 0 .51-.35.78-.52.88h-1.8c-.16-.1-.52-.37-.52-.88 0-.5.36-.81.94-1.26zm4.95-3.42c.24-.18.48-.37.7-.57.22.2.46.39.7.57.78.6 1.25 1.01 1.25 1.7 0 .76-.55 1.14-.76 1.26H25c-.213-.12-.767-.51-.767-1.27 0-.69.474-1.11 1.253-1.71zm1.28 14.3h1.13v6.16h-1.13v-6.15zm-22.81-5.3H7.6v1.3H5.67c-.33 0-.642.15-.84.41-.198.26-.26.6-.17.91l.413 1.41v.22H3.94v-4.26zm8.9-1.04h6.62v.6h-3.44c-.07-.02-.15-.02-.23 0h-3.44v-.6h.49zm15.03 1.03v4.27h-1.13v-.23l.41-1.41c.09-.32.03-.66-.17-.92s-.51-.42-.84-.42h-1.93v-1.3h3.66zm-3.65 3.38h.53l-.07.22c-.03.09-.04.19-.04.29v1.16H23v-1.37h-1.05v1.37h-1.427v-1.67h3.684zm-6.2 3.72c-.38 0-.69.3-.71.67v3.6h-.69v-3.6c-.02-.38-.33-.67-.71-.67-.38 0-.7.3-.71.67v3.6h-.69v-3.6c-.02-.38-.33-.67-.71-.67-.39 0-.7.3-.72.67v3.6h-.75v-5.27h7.15v5.27h-.75v-3.6c-.02-.38-.33-.67-.71-.67zM7.17 62.7v-.374c0-.098-.02-.196-.04-.29l-.07-.224h4.214v1.67H9.84v-1.37H8.8v1.37H7.166v-.79zm6.12-1.927c.26-.24.575-.49.954-.745l.465-.298c.48-.29.92-.514 1.17-.638.43.225.8.437 1.13.637.65.39 1.11.74 1.44 1.04.52.46.71.81.77 1.04l.03.18c0 .35-.17.63-.38.86l.01-.13c0-.31-.11-.61-.34-.92-.25-.34-.64-.68-1.18-1.04-.32-.21-.68-.42-1.1-.64l-.08-.04c-.15-.1-.34-.12-.51-.04-.2.09-.76.34-1.32.72-.42.28-.85.64-1.13 1.04-.2.28-.33.59-.33.92l.01.12c-.217-.23-.38-.51-.38-.86l.023-.19c.07-.31.32-.66.72-1.04zm.675 1.957c0-.254.32-.592.75-.916.353-.26.78-.51 1.17-.7.5.27.875.508 1.153.71.766.564.8.877.8.92 0 .43-.54.68-.73.758h-2.41c-.188-.076-.73-.33-.73-.76zm-6.8 1.8h4.113v5.273H7.16v-5.27zm13.36 0h4.11v5.273h-4.11v-5.27zm-2.015-5.05c-.19-.143-.4-.287-.624-.432h.63v.43zm-4.67-.432l-.17.114-.373.26v-.38h.55zm11.54-5.6h1.32v2.16h-1.32v-2.16zm-.55 3.352l.08-.155h2.253l.395.75H24.51l.314-.596zm-5.27 2.245h2.852v.687h-2.85v-.69zm1.91-1.04h-.97v-1.12l-.01-.108v-.75h.977v1.98zm-7.585-4.727l.674-1.076h2.68l.67 1.078v3.08h-.57v-1.95c-.02-.31-.28-.556-.59-.556-.32 0-.58.247-.59.557v1.96h-.54v-1.96c-.02-.31-.28-.55-.59-.55-.32 0-.58.25-.59.56v1.96h-.57v-3.09zm-3.577 2.75h.977v1.98h-.975v-1.98zm-.92 3.02h2.85v.686H9.39v-.686zm-4.28-5.6h1.32v2.16h-1.32v-2.16zm-.55 3.35l.08-.152H6.89l.395.75H4.243l.313-.598zm-.62 6.94h1.13v6.16h-1.13v-6.15zm22.22-18.22c.155 0 .285.103.33.24-.09-.072-.204-.12-.33-.12-.128 0-.243.047-.333.12.05-.137.18-.24.34-.24zm-5.165 4.06c.16 0 .3.1.36.238-.1-.09-.22-.14-.36-.14-.14 0-.27.05-.36.14.06-.14.2-.238.36-.238zm-8.16 6.78h-.5v-.54c.15-.1.333-.25.5-.45v1zm-2.028-6.78c.16 0 .297.1.356.238-.09-.09-.22-.14-.35-.14-.14 0-.26.05-.36.14.06-.14.2-.238.36-.238zm-4.927-4.06c.156 0 .287.103.332.24-.09-.072-.208-.12-.335-.12-.125 0-.24.047-.33.12.046-.137.177-.24.333-.24zM8.8 65.94h1.048v2.632h-1.05v-2.634zm13.153 0h1.05v2.632h-1.05v-2.634zm-3.047-23.67c.242.21.552.328.873.328h2.42l-.01.1c0 .325.14.637.39.853.21.19.48.29.76.29h3.83c.63 0 1.14-.51 1.14-1.14 0-.63-.52-1.14-1.15-1.14h-.11l.03-.27c0-.72-.59-1.31-1.32-1.31h-6c-.33 0-.64.12-.88.33-.29.25-.45.61-.45.98s.16.73.45.98zm.694-1.184c.035-.03.095-.068.18-.068h6c.152 0 .273.12.273.27 0 .15-.122.27-.272.27-.29 0-.52.233-.52.52 0 .287.24.52.53.52h1.41c.06 0 .1.044.1.1 0 .054-.04.098-.1.098h-3.84l-.06-.026-.03-.074.04-.074.07-.025c.29 0 .52-.233.52-.52 0-.287-.23-.52-.52-.52H19.8c-.087 0-.146-.037-.18-.067-.036-.03-.094-.097-.094-.202 0-.105.06-.172.094-.202z" fill="#67737B"/><path d="M29.356 29.906h-.443v-6.19c.198-.075.34-.263.34-.485 0-.22-.142-.41-.34-.48v-4.34c.198-.07.34-.26.34-.48 0-.28-.228-.51-.51-.52l-.796-1.51c-.046-.08-.117-.16-.2-.2v-2.32c.312-.16 1.404-.81 1.404-2.22 0-1.25-.91-1.96-1.65-2.52-.32-.24-.62-.48-.81-.72V6.33c.11-.122.18-.28.18-.455 0-.38-.31-.692-.7-.692-.38 0-.7.31-.7.692 0 .175.07.333.18.455V7.9c-.18.242-.49.476-.81.723-.74.57-1.65 1.276-1.65 2.527 0 1.156.73 1.803 1.17 2.087v2.45c-.08.04-.15.12-.2.2l-.79 1.51c-.28.006-.51.234-.51.516l.01.093h-.31v-2.19c.37-.245.94-.778.94-1.71 0-1.038-.74-1.61-1.34-2.073-.23-.18-.45-.35-.59-.516v-1.15c.09-.11.14-.247.14-.396 0-.36-.293-.65-.66-.65-.362 0-.66.29-.66.65 0 .15.05.29.138.4v1.16c-.144.17-.365.34-.6.52-.32.25-.68.53-.95.89l-.035-.06-.45-.72c.16-.09.27-.25.27-.45 0-.29-.232-.52-.522-.52h-.3l-.82-2.54c.036-.07.06-.15.06-.23 0-.14-.05-.26-.14-.35l.12-1.73c.26-.22.5-.59.5-1.09 0-.73-.52-1.13-.9-1.42l-.28-.23V2.43h.11c.29 0 .53-.234.53-.52 0-.288-.235-.52-.525-.52h-.106v-.11c0-.287-.24-.52-.53-.52-.29 0-.52.233-.52.52v.107h-.11c-.29 0-.525.232-.525.52 0 .286.24.52.53.52h.11V3.57l-.287.235c-.38.292-.9.692-.9 1.425 0 .504.24.865.5 1.09l.12 1.73c-.09.093-.14.214-.14.348 0 .083.02.16.054.23l-.817 2.543h-.297c-.29 0-.524.24-.524.52 0 .2.11.37.27.46l-.45.73-.04.07c-.26-.36-.62-.64-.95-.89-.23-.18-.45-.35-.59-.52v-1.16c.09-.11.14-.24.14-.39 0-.36-.29-.65-.66-.65-.36 0-.66.29-.66.65 0 .15.05.29.14.4v1.16c-.14.17-.36.34-.59.52-.6.46-1.344 1.04-1.344 2.07 0 .92.55 1.45.914 1.7v2.2h-.29l.01-.09c0-.28-.23-.51-.51-.52L7.7 15.9c-.044-.09-.12-.16-.2-.21v-2.31c.314-.158 1.406-.81 1.406-2.224 0-1.25-.92-1.957-1.655-2.525-.32-.24-.62-.48-.81-.72V6.33c.11-.12.18-.28.18-.454 0-.38-.31-.692-.7-.692-.38 0-.7.31-.7.692 0 .175.07.333.18.455v1.58c-.19.24-.49.48-.81.73-.74.57-1.66 1.28-1.66 2.53 0 1.16.73 1.81 1.17 2.09v2.45c-.08.05-.15.12-.2.21l-.8 1.51c-.28.01-.51.24-.51.52 0 .22.14.41.34.49v4.34c-.2.08-.34.26-.34.49 0 .22.14.41.34.49v6.19h-.45c-.58 0-1.05.47-1.05 1.04 0 .57.47 1.04 1.05 1.04h26.91c.58 0 1.05-.47 1.05-1.04 0-.57-.47-1.04-1.05-1.04zM5.19 9.446c.24-.183.48-.37.695-.573.215.205.457.39.694.573.77.6 1.25 1.014 1.25 1.706 0 .758-.56 1.144-.77 1.264H4.7c-.21-.12-.764-.504-.764-1.264 0-.692.472-1.106 1.25-1.706zm5.144 3.42c.16-.125.324-.25.476-.387.15.13.314.26.476.38.584.45.94.76.94 1.25 0 .51-.353.78-.52.88h-1.79c-.163-.1-.52-.37-.52-.88 0-.5.355-.8.94-1.25zm5.434-6.206h.264l-.08 1.148h-.105l-.08-1.148zm-.033-2.033l.165-.13.165.13c.337.26.495.403.495.604 0 .18-.1.29-.174.34h-.972c-.076-.05-.175-.16-.175-.33 0-.2.15-.34.49-.6zm.006 4.292h.32l.73 2.25h-1.77l.73-2.25zm3.23 6.45c.16.19.33.34.48.44v.55h-.48v-1zm1.55-2.51c.16-.13.33-.25.48-.39.16.13.32.26.48.38.59.45.94.76.94 1.25 0 .51-.35.78-.52.88h-1.8c-.16-.1-.52-.37-.52-.88 0-.5.36-.81.94-1.26zm4.95-3.42c.24-.18.48-.37.7-.57.22.2.46.39.7.57.78.6 1.25 1.01 1.25 1.7 0 .76-.55 1.14-.76 1.26H25c-.213-.12-.767-.51-.767-1.27 0-.69.474-1.11 1.253-1.71zm1.28 14.3h1.13v6.16h-1.13v-6.15zm-22.81-5.3H7.6v1.3H5.67c-.33 0-.642.15-.84.41-.198.26-.26.6-.17.91l.413 1.41v.22H3.94v-4.26zm8.9-1.04h6.62v.6h-3.44c-.07-.02-.15-.02-.23 0h-3.44v-.6h.49zm15.03 1.03v4.27h-1.13v-.23l.41-1.41c.09-.32.03-.66-.17-.92s-.51-.42-.84-.42h-1.93v-1.3h3.66zm-3.65 3.38h.53l-.07.22c-.03.09-.04.19-.04.29v1.16H23v-1.37h-1.05v1.37h-1.427v-1.67h3.684zm-6.2 3.72c-.38 0-.69.3-.71.67v3.6h-.69v-3.6c-.02-.38-.33-.67-.71-.67-.38 0-.7.3-.71.67v3.6h-.69v-3.6c-.02-.38-.33-.67-.71-.67-.39 0-.7.3-.72.67v3.6h-.75v-5.27h7.15v5.27h-.75v-3.6c-.02-.38-.33-.67-.71-.67zM7.17 22.7v-.374c0-.098-.02-.196-.04-.29l-.07-.224h4.214v1.67H9.84v-1.37H8.8v1.37H7.166v-.79zm6.12-1.927c.26-.24.575-.49.954-.745l.465-.298c.48-.29.92-.514 1.17-.638.43.225.8.437 1.13.637.65.39 1.11.74 1.44 1.04.52.46.71.81.77 1.04l.03.18c0 .35-.17.63-.38.86l.01-.13c0-.31-.11-.61-.34-.92-.25-.34-.64-.68-1.18-1.04-.32-.21-.68-.42-1.1-.64l-.08-.04c-.15-.1-.34-.12-.51-.04-.2.09-.76.34-1.32.72-.42.28-.85.64-1.13 1.04-.2.28-.33.59-.33.92l.01.12c-.217-.23-.38-.51-.38-.86l.023-.19c.07-.31.32-.66.72-1.04zm.675 1.957c0-.254.32-.592.75-.916.353-.26.78-.51 1.17-.7.5.27.875.508 1.153.71.766.564.8.877.8.92 0 .43-.54.68-.73.758h-2.41c-.188-.076-.73-.33-.73-.76zm-6.8 1.8h4.113v5.273H7.16v-5.27zm13.36 0h4.11v5.273h-4.11v-5.27zm-2.015-5.05c-.19-.143-.4-.287-.624-.432h.63v.43zm-4.67-.432l-.17.114-.373.26v-.38h.55zm11.54-5.6h1.32v2.16h-1.32v-2.16zm-.55 3.352l.08-.155h2.253l.395.75H24.51l.314-.596zm-5.27 2.245h2.852v.687h-2.85v-.69zm1.91-1.04h-.97v-1.12l-.01-.108v-.75h.977v1.98zm-7.585-4.727l.674-1.076h2.68l.67 1.078v3.08h-.57v-1.95c-.02-.31-.28-.556-.59-.556-.32 0-.58.247-.59.557v1.96h-.54v-1.96c-.02-.31-.28-.55-.59-.55-.32 0-.58.25-.59.56v1.96h-.57v-3.09zm-3.577 2.75h.977v1.98h-.975v-1.98zm-.92 3.02h2.85v.686H9.39v-.686zm-4.28-5.6h1.32v2.16h-1.32v-2.16zm-.55 3.35l.08-.152H6.89l.395.75H4.243l.313-.598zm-.62 6.94h1.13v6.16h-1.13v-6.15zm22.22-18.22c.155 0 .285.103.33.24-.09-.072-.204-.12-.33-.12-.128 0-.243.047-.333.12.05-.137.18-.24.34-.24zm-5.165 4.06c.16 0 .3.1.36.238-.1-.09-.22-.14-.36-.14-.14 0-.27.05-.36.14.06-.14.2-.238.36-.238zm-8.16 6.78h-.5v-.54c.15-.1.333-.25.5-.45v1zm-2.03-6.78c.16 0 .297.1.356.24-.1-.088-.22-.14-.36-.14-.14 0-.27.052-.36.14.06-.14.19-.237.36-.237zm-4.92-4.06c.156 0 .287.104.332.24-.09-.07-.205-.12-.332-.12-.127 0-.24.048-.332.12.05-.136.18-.24.34-.24zM8.8 25.94h1.048v2.632h-1.05v-2.634zm13.153 0h1.05v2.632h-1.05v-2.634zM18.906 2.27c.242.21.552.328.873.328h2.42l-.01.1c0 .325.14.637.39.853.21.19.48.29.76.29h3.83c.63 0 1.14-.51 1.14-1.14 0-.63-.52-1.14-1.15-1.14h-.11l.03-.27c0-.72-.59-1.31-1.32-1.31h-6c-.33 0-.64.12-.88.33-.29.25-.45.61-.45.98s.16.73.45.98zm.694-1.184c.035-.03.095-.068.18-.068h6c.152 0 .273.12.273.27 0 .15-.122.27-.272.27-.29 0-.52.233-.52.52 0 .287.24.52.53.52h1.41c.06 0 .1.044.1.1 0 .054-.04.098-.1.098h-3.84l-.06-.026-.03-.074.04-.074.07-.025c.29 0 .52-.233.52-.52 0-.287-.23-.52-.52-.52H19.8c-.088 0-.147-.037-.18-.067-.037-.03-.095-.097-.095-.202 0-.105.06-.172.094-.202z" fill="#3A434E"/></g></svg>