<svg width="32" height="232" viewBox="0 0 32 232" xmlns="http://www.w3.org/2000/svg"><g fill="none"><path d="M30.99 147.977h-1.815v-9.434l.026-.156v-3.182c0-.168-.08-.317-.2-.406l.02-.12c0-1.43-1.12-2.62-2.6-2.89l-.13-.09v-1.55c0-.14-.06-.27-.15-.36l.01-.05c0-1.31-1.16-2.38-2.59-2.38-.8 0-1.51.33-1.99.86-.51-2.08-2.58-3.66-5.12-3.84v-.77h.08c.26 0 .47-.23.47-.5s-.21-.5-.47-.5h-.08v-.15c0-.27-.21-.5-.47-.5s-.47.22-.47.49v.15h-.08c-.25 0-.46.22-.46.49s.21.49.47.49h.08v.76c-2.58.18-4.67 1.81-5.14 3.93-.47-.58-1.22-.954-2.07-.954-1.43 0-2.59 1.07-2.59 2.38l.03.156c-.04.075-.06.16-.06.25v1.55l-.09.06c-1.58.18-2.81 1.42-2.81 2.91l.05.22c-.06.08-.1.19-.1.3v12.77H.94c-.518 0-.938.445-.938.993s.42.993.938.993h30.053c.518 0 .938-.447.938-.995s-.42-.993-.93-.993zM3.685 134.68c0-.82.6-1.524 1.448-1.81v1.84h-1.45l.002-.03zm2.948-5.012c.057-.72.773-1.292 1.646-1.292.87 0 1.59.572 1.64 1.292v.092h-3.3v-.092zm16.915-1.292c.874 0 1.59.572 1.647 1.292l.006.092h-3.3l.01-.092c.06-.72.78-1.292 1.65-1.292zm4.53 6.305l.002.03h-1.284v-1.77c.757.32 1.28.98 1.28 1.75zM6.586 131.8v-1.136h3.51v1.46h-1.49v-.728c-.012-.257-.212-.46-.458-.46-.245 0-.445.203-.457.46v.727h-1.1v-.322zm20.21 3.905h1.467v2.055h-1.466v-2.055zm-13.03 12.275v-1.804c.012-.197.167-.35.355-.35.09 0 .18.036.24.096v2.44h-.59v-.382zm4.398 0v.382h-.593v-2.442c.07-.06.15-.096.24-.096.19 0 .35.153.36.35v1.804zm-1.53-2.355v2.737h-1.337v-3.21c.02-.372.313-.664.668-.664.355 0 .647.29.668.665v.473zm-4.18-6.372h3.073l-3.072 1.574v-1.573zm7.022 0v1.585l-3.204-1.584h3.205zm0-1.492v.5h-7.02v-1.86h7.02v1.37zm-8.125.54H9.24c.036-.09.094-.17.17-.25.128-.13.305-.23.51-.28.118-.03.245-.05.377-.05s.26.02.377.05c.326.09.583.29.68.54zm-2.18 1h2.35v8.69H9.17v-8.69zm11.25 2.33v-2.33h2.35v8.69h-2.35v-6.36zm2.08-3.56c.07.07.13.15.16.24h-2.12c.1-.25.36-.45.68-.54.12-.03.25-.05.38-.05s.26.02.38.05c.21.06.39.17.52.3zm-9.9-2.66v-.02c0-.68.33-1.31.86-1.78.22-.19.46-.36.74-.49.52-.26 1.13-.41 1.79-.41s1.27.15 1.79.41c.28.14.52.31.74.5.53.48.85 1.1.85 1.79v.02H12.6zm12.76-3.62v.35h-1.34v-.73c-.01-.25-.21-.46-.45-.46-.24 0-.44.21-.45.46v.73h-1.26v-1.46h3.51v1.11zm-21.71 3.93h1.5v2.06h-1.5v-2.05zm3.38 3.18v-5.3h5.18c-.34.53-.54 1.14-.54 1.79l.03.15c-.09.09-.16.22-.16.37v1.18c-.34-.22-.76-.36-1.22-.36-.32 0-.62.07-.88.18-.17.08-.33.17-.47.28-.19.15-.35.34-.47.54l-.02.05-.06.14c-.07.16-.11.33-.12.5l-.01.13.01.09-.03.16-.01.04V148H7.01v-9.1zm12.47 9.59h-.37v-2.34c-.03-.73-.6-1.3-1.29-1.3l-.27.03c-.14-.78-.79-1.36-1.57-1.36s-1.42.59-1.57 1.37l-.27-.03c-.69 0-1.26.58-1.29 1.31v2.34h-.37v-6.55l3.45-1.76 3.58 1.77v6.54zm4.23-.49v-9.23c0-.08-.03-.16-.07-.23v-.13c-.01-.17-.05-.34-.12-.49l-.06-.13-.01-.02c-.11-.21-.27-.4-.47-.55-.14-.11-.29-.2-.47-.28-.27-.12-.58-.18-.9-.18-.44 0-.84.12-1.17.33v-1.15c0-.15-.06-.28-.16-.37l.03-.15c0-.64-.2-1.25-.54-1.78h5.18V148H23.7zm-12.68-18.27h9.83v1.88h-9.83v-1.87zm15.75 9.16h1.44v9.1H26.8v-9.09zm-10.83-13.51c2.43 0 4.44 1.47 4.74 3.36h-9.47c.31-1.89 2.31-3.36 4.74-3.36zM3.64 138.89h1.5v9.093h-1.5v-9.095zm17.956 1.34c-.24 0-.436.2-.447.453v1.46h.89v-1.46c-.01-.253-.21-.453-.45-.453zm-11.27 0c-.24 0-.436.2-.447.453v1.46h.89v-1.46c-.01-.253-.21-.453-.45-.453zm6.153 1.67l-.06-.07c-.13-.117-.29-.184-.46-.184-.13 0-.26.04-.37.116l-.04.03c-.1.085-.17.2-.21.324-.06.205-.03.437.1.62l.04.046c.12.132.29.21.47.21.14 0 .28-.05.39-.14.12-.1.21-.245.24-.413.01-.11.01-.22-.03-.33l-.11-.22zm-.8.375l.07-.16.05-.06c.05-.04.11-.06.17-.06.09 0 .16.05.2.09l-.03.02-.19.19-.11-.14.09.15-.22.17c-.05-.06-.06-.14-.05-.22zm.1.29l.18-.21.15.23c-.1.07-.23.06-.32-.03zm.38-.02l-.07-.1.05.07-.14-.19.05-.06.18-.15c.1.14.05.32-.05.41z" fill="#206FAC"/><path d="M30.99 107.977h-1.815v-9.434l.026-.156v-3.182c0-.168-.08-.317-.2-.406l.02-.12c0-1.43-1.12-2.62-2.6-2.89l-.13-.09v-1.54c0-.14-.06-.27-.15-.36l.01-.05c0-1.31-1.16-2.38-2.59-2.38-.8 0-1.51.33-1.99.86-.51-2.08-2.58-3.66-5.12-3.84v-.77h.08c.26 0 .47-.23.47-.5s-.21-.5-.47-.5h-.08v-.15c0-.27-.21-.49-.47-.49s-.47.22-.47.49v.15h-.08c-.25 0-.46.22-.46.49s.21.49.47.49h.08v.76c-2.58.18-4.67 1.81-5.14 3.93-.47-.58-1.22-.953-2.07-.953-1.43 0-2.59 1.066-2.59 2.377l.03.152c-.04.07-.06.16-.06.25v1.55l-.09.05c-1.58.18-2.81 1.42-2.81 2.91l.05.22c-.06.08-.1.19-.1.3v12.77H.94c-.518 0-.938.444-.938.99s.42 1 .938 1h30.053c.518 0 .938-.448.938-.996s-.42-.99-.93-.99zM3.685 94.68c0-.82.6-1.524 1.448-1.81v1.84h-1.45l.002-.03zm2.948-5.012c.057-.72.773-1.292 1.646-1.292.87 0 1.59.572 1.64 1.292v.092h-3.3v-.092zm16.915-1.292c.874 0 1.59.572 1.647 1.292l.006.092h-3.3l.01-.092c.06-.72.78-1.292 1.65-1.292zm4.53 6.305l.002.03h-1.284v-1.77c.757.32 1.28.98 1.28 1.75zM6.584 91.8v-1.14h3.51v1.46h-1.49v-.728c-.012-.257-.212-.46-.458-.46-.245 0-.445.203-.457.46v.727H6.58v-.33zm20.21 3.905h1.467v2.055H26.8v-2.055zm-13.03 12.275v-1.804c.012-.197.167-.35.355-.35.09 0 .17.036.23.096v2.44h-.6v-.382zm4.398 0v.382h-.593v-2.442c.06-.06.14-.096.23-.096.19 0 .34.153.35.35v1.804zm-1.53-2.355v2.737h-1.337v-3.21c.02-.372.313-.664.668-.664.355 0 .647.29.668.665v.473zm-4.18-6.372h3.073l-3.072 1.574V99.25zm7.022 0v1.585L16.27 99.25h3.205zm0-1.492v.5h-7.02v-1.87h7.02v1.37zm-8.125.54H9.23c.036-.09.094-.17.17-.25.128-.13.305-.23.51-.28.118-.03.245-.05.377-.05s.26.02.377.05c.324.09.58.29.68.54zm-2.19 1h2.35v8.69H9.16V99.3zm11.25 2.33V99.3h2.35v8.69h-2.35v-6.363zm2.07-3.56c.07.07.12.15.16.24h-2.11c.1-.25.35-.45.68-.54.12-.03.24-.05.37-.05s.26.02.37.05c.21.06.39.17.52.3zm-9.9-2.66v-.02c0-.68.32-1.31.85-1.78.21-.19.46-.36.73-.49.52-.26 1.13-.41 1.79-.41s1.27.15 1.79.41c.27.14.52.31.73.5.53.48.85 1.1.85 1.79v.02h-6.75zm12.75-3.62v.35H24v-.73c-.01-.25-.21-.46-.455-.46-.245 0-.445.21-.457.46v.73h-1.26v-1.46h3.51v1.11zM3.62 95.72h1.5v2.054h-1.5v-2.06zM7 98.897v-5.3h5.184c-.345.53-.54 1.14-.54 1.78l.022.15c-.098.09-.16.22-.16.37v1.18c-.34-.23-.764-.36-1.22-.36-.32 0-.62.062-.89.176-.17.078-.33.17-.47.28-.19.15-.35.34-.467.54l-.03.05-.07.135c-.07.15-.11.32-.12.49l-.01.122.01.084-.03.155-.01.04v9.18H7v-9.09zm12.466 9.59h-.37v-2.34c-.034-.73-.6-1.31-1.296-1.31l-.27.03c-.145-.784-.795-1.366-1.573-1.366s-1.424.58-1.57 1.37l-.27-.03c-.693 0-1.262.58-1.294 1.31v2.34h-.373v-6.55l3.447-1.76 3.574 1.77v6.54zm4.23-.5v-9.19l-.005-.04c0-.088-.03-.16-.07-.23v-.13c-.01-.178-.05-.34-.12-.5l-.06-.135-.01-.027c-.11-.21-.27-.398-.47-.553-.14-.116-.29-.21-.47-.285-.27-.118-.57-.185-.9-.185-.43 0-.84.124-1.17.33v-1.15c0-.146-.06-.28-.16-.37l.03-.146c0-.647-.19-1.256-.54-1.785h5.19v14.39H23.7zM11.05 89.73h9.83v1.874h-9.83V89.73zm15.747 9.154h1.44v9.093h-1.44v-9.093zM15.965 85.38c2.425 0 4.433 1.467 4.736 3.358h-9.47c.31-1.892 2.31-3.358 4.74-3.358zM3.633 98.884h1.5v9.093h-1.5v-9.093zm17.957 1.34c-.24 0-.437.2-.448.453v1.463h.895v-1.463c-.01-.252-.207-.452-.448-.452zm-11.27 0c-.24 0-.437.2-.448.453v1.463h.895v-1.463c-.01-.252-.207-.452-.448-.452zm6.152 1.67l-.06-.07c-.123-.117-.29-.184-.457-.184-.13 0-.258.04-.366.115l-.04.03c-.1.086-.17.2-.21.325-.06.204-.03.436.1.618l.04.047c.12.135.29.213.47.213.14 0 .28-.05.39-.14.12-.1.21-.244.24-.412.01-.11.01-.22-.03-.326l-.11-.216zm-.798.375l.07-.16.05-.06c.052-.04.113-.06.176-.06.094 0 .16.05.197.09l-.024.02-.19.19-.104-.14.09.15-.22.17c-.05-.06-.06-.14-.05-.22zm.107.29l.18-.21.15.23c-.1.07-.23.06-.32-.03zm.38-.02l-.07-.1.05.07-.14-.19.05-.06.19-.15c.1.14.05.32-.05.41z" fill="#fff"/><path d="M30.99 67.977h-1.815v-9.434l.026-.156v-3.182c0-.168-.08-.317-.2-.406l.02-.12c0-1.43-1.12-2.62-2.6-2.89l-.13-.09v-1.54c0-.14-.06-.27-.15-.36l.01-.05c0-1.31-1.16-2.38-2.59-2.38-.8 0-1.51.33-1.99.86-.51-2.08-2.58-3.66-5.12-3.84v-.77h.08c.26 0 .47-.23.47-.5s-.21-.5-.47-.5h-.08v-.15c0-.27-.21-.49-.47-.49s-.47.22-.47.49v.15h-.08c-.25 0-.46.22-.46.49s.21.49.47.49h.08v.76c-2.58.18-4.67 1.81-5.14 3.93-.47-.58-1.22-.953-2.07-.953-1.43 0-2.59 1.066-2.59 2.377l.03.152c-.04.07-.06.16-.06.25v1.55l-.09.05c-1.58.18-2.81 1.42-2.81 2.91l.05.22c-.06.08-.1.19-.1.3v12.77H.94c-.518 0-.938.444-.938.99s.42 1 .938 1h30.053c.518 0 .938-.448.938-.996s-.42-.99-.93-.99zM3.685 54.68c0-.82.6-1.524 1.448-1.81v1.84h-1.45l.002-.03zm2.948-5.012c.057-.72.773-1.292 1.646-1.292.87 0 1.59.572 1.64 1.292v.092h-3.3v-.092zm16.915-1.292c.874 0 1.59.572 1.647 1.292l.006.092h-3.3l.01-.092c.06-.72.78-1.292 1.65-1.292zm4.53 6.305l.002.03h-1.284v-1.77c.757.32 1.28.98 1.28 1.75zM6.584 51.8v-1.14h3.51v1.46h-1.49v-.728c-.012-.257-.212-.46-.458-.46-.245 0-.445.203-.457.46v.727H6.58v-.33zm20.21 3.905h1.467v2.055H26.8v-2.055zM13.764 67.98v-1.804c.012-.197.167-.35.355-.35.09 0 .17.036.23.096v2.44h-.6v-.382zm4.398 0v.382h-.593V65.92c.06-.06.14-.096.23-.096.19 0 .34.153.35.35v1.804zm-1.53-2.355v2.737h-1.337v-3.21c.02-.372.313-.664.668-.664.355 0 .647.29.668.665v.473zm-4.18-6.372h3.073l-3.072 1.574V59.25zm7.022 0v1.585L16.27 59.25h3.205zm0-1.492v.5h-7.02v-1.87h7.02v1.37zm-8.125.54H9.23c.036-.09.094-.17.17-.25.128-.13.305-.23.51-.28.118-.03.245-.05.377-.05s.26.02.377.05c.324.09.58.29.68.54zm-2.19 1h2.35v8.69H9.16V59.3zm11.25 2.33V59.3h2.35v8.69h-2.35v-6.37zm2.07-3.56c.07.07.12.15.16.24h-2.11c.1-.25.35-.45.68-.54.12-.03.24-.05.37-.05s.26.02.37.05c.21.06.39.17.52.3zm-9.9-2.66v-.02c0-.68.32-1.31.85-1.78.21-.19.46-.36.73-.49.52-.26 1.13-.41 1.79-.41s1.27.15 1.79.41c.27.14.52.31.73.5.53.48.85 1.1.85 1.79v.02h-6.75zm12.75-3.62v.35H24v-.73c-.01-.25-.21-.46-.455-.46-.245 0-.445.21-.457.46v.73h-1.26v-1.46h3.51v1.11zM3.62 55.72h1.5v2.054h-1.5v-2.06zM7 58.897v-5.3h5.184c-.345.53-.54 1.14-.54 1.78l.022.15c-.098.09-.16.22-.16.37v1.18c-.34-.23-.764-.36-1.22-.36-.32 0-.62.062-.89.176-.17.078-.33.17-.47.28-.19.15-.35.34-.467.54l-.03.05-.07.135c-.07.15-.11.32-.12.49l-.01.122.01.084-.03.155-.01.04v9.18H7v-9.09zm12.466 9.59h-.37v-2.34c-.034-.73-.6-1.31-1.296-1.31l-.27.03c-.145-.784-.795-1.366-1.573-1.366s-1.424.58-1.57 1.37l-.27-.03c-.693 0-1.262.58-1.294 1.31v2.34h-.373v-6.55l3.447-1.76 3.574 1.77v6.54zm4.23-.5v-9.19l-.005-.04c0-.088-.03-.16-.07-.23v-.13c-.01-.178-.05-.34-.12-.5l-.06-.135-.01-.027c-.11-.21-.27-.398-.47-.553-.14-.116-.29-.21-.47-.285-.27-.118-.57-.185-.9-.185-.43 0-.84.124-1.17.33v-1.15c0-.146-.06-.28-.16-.37l.03-.146c0-.647-.19-1.256-.54-1.785h5.19v14.39H23.7zM11.05 49.73h9.83v1.874h-9.83V49.73zm15.747 9.154h1.44v9.093h-1.44v-9.093zM15.965 45.38c2.425 0 4.433 1.467 4.736 3.358h-9.47c.31-1.892 2.31-3.358 4.74-3.358zM3.633 58.884h1.5v9.093h-1.5v-9.093zm17.957 1.34c-.24 0-.437.2-.448.453v1.463h.895v-1.463c-.01-.252-.207-.452-.448-.452zm-11.27 0c-.24 0-.437.2-.448.453v1.463h.895v-1.463c-.01-.252-.207-.452-.448-.452zm6.152 1.67l-.06-.07c-.123-.117-.29-.184-.457-.184-.13 0-.258.04-.366.115l-.04.03c-.1.086-.17.2-.21.325-.06.204-.03.436.1.618l.04.047c.12.135.29.213.47.213.14 0 .28-.05.39-.14.12-.1.21-.244.24-.412.01-.11.01-.22-.03-.326l-.11-.216zm-.798.375l.07-.16.05-.06c.052-.04.113-.06.176-.06.094 0 .16.05.197.09l-.024.02-.19.19-.104-.14.09.15-.22.17c-.05-.06-.06-.14-.05-.22zm.107.29l.18-.21.15.23c-.1.07-.23.06-.32-.03zm.38-.02l-.07-.1.05.07-.14-.19.05-.06.19-.15c.1.14.05.32-.05.41z" fill="#67737B"/><path d="M30.99 27.977h-1.815v-9.434l.026-.156v-3.182c0-.168-.08-.317-.2-.406l.02-.12c0-1.43-1.12-2.62-2.6-2.89l-.13-.09v-1.54c0-.14-.06-.27-.15-.36l.01-.05c0-1.31-1.16-2.38-2.59-2.38-.8 0-1.51.33-1.99.86-.51-2.08-2.58-3.66-5.12-3.84v-.76h.08c.26 0 .47-.23.47-.5s-.21-.49-.47-.49h-.08V2.5c0-.275-.21-.497-.47-.497s-.47.225-.47.5v.15h-.08c-.25 0-.46.22-.46.495s.21.496.47.496h.08v.766c-2.58.18-4.67 1.812-5.14 3.93-.47-.578-1.22-.953-2.07-.953-1.43 0-2.59 1.067-2.59 2.378l.03.157c-.04.072-.06.157-.06.25v1.546l-.09.057c-1.59.185-2.82 1.42-2.82 2.915l.05.22c-.06.08-.1.19-.1.3v12.77H.94c-.518 0-.938.44-.938.99s.42.99.938.99h30.053c.518 0 .938-.45.938-.998s-.42-.993-.93-.993zM3.685 14.68c0-.82.6-1.524 1.448-1.81v1.84h-1.45l.002-.03zm2.947-5.01c.057-.72.773-1.292 1.646-1.292.874 0 1.59.572 1.647 1.292l.006.092h-3.3l.01-.092zm16.915-1.292c.874 0 1.59.572 1.647 1.292l.006.092h-3.304l.006-.092c.057-.72.773-1.292 1.646-1.292zm4.53 6.305l.002.03h-1.29v-1.775c.75.317 1.28.98 1.28 1.747zM6.584 11.798V10.66h3.51v1.46h-1.49v-.728c-.012-.257-.212-.46-.458-.46-.245 0-.445.203-.457.46v.727H6.58v-.33zm20.21 3.905h1.467v2.055H26.8v-2.055zm-13.03 12.275v-1.804c.012-.197.167-.35.355-.35.09 0 .17.036.23.096v2.44h-.6v-.382zm4.398 0v.382h-.593v-2.442c.06-.06.14-.096.23-.096.19 0 .34.153.35.35v1.804zm-1.53-2.355v2.737h-1.337v-3.21c.02-.372.313-.664.668-.664.355 0 .647.29.668.665v.48zm-4.18-6.372h3.073l-3.072 1.58v-1.58zm7.022 0v1.59l-3.204-1.59h3.205zm0-1.49v.5h-7.02v-1.87h7.02v1.37zm-8.125.54H9.23c.036-.09.094-.17.17-.25.128-.13.305-.23.51-.28.118-.03.245-.05.377-.05s.26.02.377.06c.324.09.58.29.68.54zm-2.19 1h2.35v8.69H9.16V19.3zm11.25 2.33V19.3h2.35v8.69h-2.35v-6.37zm2.07-3.56c.07.07.12.16.16.24h-2.11c.1-.24.35-.44.68-.53.12-.03.24-.05.37-.05s.26.02.37.05c.21.06.39.17.52.3zm-9.9-2.66v-.02c0-.68.32-1.31.85-1.78.21-.19.46-.36.73-.49.52-.26 1.13-.41 1.79-.41s1.27.15 1.79.41c.27.14.52.31.73.5.53.48.85 1.1.85 1.79v.02h-6.75zm12.75-3.62v.35H24v-.73c-.01-.25-.21-.46-.455-.46-.245 0-.445.21-.457.46v.73h-1.26v-1.46h3.51v1.11zM3.62 15.72h1.5v2.055h-1.5v-2.06zM7 18.897v-5.3h5.184c-.344.53-.54 1.14-.54 1.78l.023.143c-.097.09-.16.224-.16.37v1.18c-.34-.225-.763-.36-1.22-.36-.32 0-.62.066-.888.18-.17.08-.33.17-.47.28-.2.15-.36.34-.47.54l-.03.05-.07.138c-.07.16-.11.325-.12.5l-.01.12.01.087-.03.155-.01.04v9.19H7v-9.1zm12.466 9.59h-.37v-2.34c-.034-.73-.6-1.31-1.296-1.31l-.27.03c-.145-.783-.795-1.365-1.573-1.365s-1.423.58-1.57 1.366l-.27-.03c-.692 0-1.26.57-1.293 1.3v2.335h-.373v-6.55l3.45-1.764 3.58 1.77v6.54zm4.23-.5v-9.19l-.006-.04c-.006-.087-.03-.166-.072-.23v-.01l-.004-.12c-.012-.177-.053-.34-.12-.5l-.062-.134-.013-.026c-.12-.21-.28-.398-.47-.553-.14-.115-.3-.21-.47-.284-.27-.12-.58-.18-.9-.18-.44 0-.85.125-1.18.33V15.9c0-.147-.07-.28-.16-.37l.02-.147c0-.647-.2-1.256-.55-1.785h5.19v14.39h-1.2zM11.05 9.73h9.83v1.874h-9.83V9.73zm15.747 9.154h1.44v9.093h-1.44v-9.093zM15.965 5.38c2.425 0 4.433 1.467 4.736 3.358h-9.47c.31-1.892 2.31-3.358 4.74-3.358zM3.633 18.884h1.5v9.093h-1.5v-9.093zm17.957 1.34c-.24 0-.437.2-.448.453v1.463h.895v-1.463c-.01-.252-.207-.452-.448-.452zm-11.27 0c-.24 0-.437.2-.448.453v1.463h.895v-1.463c-.01-.252-.207-.452-.448-.452zm6.152 1.67l-.06-.07c-.123-.117-.29-.184-.457-.184-.13 0-.258.04-.366.115l-.04.03c-.1.086-.17.2-.21.325-.06.204-.03.436.1.618l.04.047c.12.135.29.213.47.213.14 0 .28-.05.39-.14.12-.1.21-.244.24-.412.01-.11.01-.22-.03-.326l-.11-.216zm-.798.375l.07-.16.05-.06c.052-.04.113-.06.176-.06.094 0 .16.05.197.09l-.024.02-.19.19-.104-.14.09.15-.22.17c-.05-.06-.06-.14-.05-.22zm.107.29l.18-.21.15.23c-.1.07-.23.06-.32-.03zm.38-.02l-.07-.1.05.07-.14-.19.05-.06.19-.15c.1.14.05.32-.05.41z" fill="#3A434E"/></g></svg>