<svg width="32" height="232" viewBox="0 0 32 232" xmlns="http://www.w3.org/2000/svg"><g fill="none"><path d="M31.04 147.158h-1.375v-9.322c0-.4-.194-.746-.48-.933v-1.07c0-.3-.216-.54-.482-.54h-.218v-2.41c.94-.504 1.84-1.146 2.686-1.92l.07-.07.03-.028.04-.048.03-.035.03-.045.03-.04.03-.044.02-.046.02-.042.02-.05.02-.04.02-.052.01-.04.01-.056.01-.03.01-.125v-.127l-.01-.082v-.014l-.01-.08v-.02l-.02-.08-.003-.02-.03-.08v-.02l-.032-.08v-.01l-.002-.01-.04-.07-.014-.02-.03-.05-.01-.01-.01-.01-.055-.07-.114-.11-.003-.01-.066-.046-.01-.006-.06-.04-.01-.008-.06-.027-.02-.01-.06-.02-.026-.01-.06-.013h-.03l-.05-.006h-.14l-.08.01-.04.006-.05.01-.04.01-.05.02-.03.01c-.027.01-1.776.735-3.56.67 1.64-.68 3.19-1.86 4.595-3.5l.06-.08.02-.03.036-.05.02-.04.023-.046.02-.045.02-.05.01-.045.014-.05.01-.045.01-.056.01-.04.004-.066.007-.03v-.12l-.005-.077-.006-.04-.01-.06-.01-.04-.016-.06-.01-.04-.012-.05-.02-.04-.02-.04-.022-.05-.02-.04-.03-.04-.002-.007-.02-.03-.03-.036-.06-.07v-.006l-.07-.07-.03-.02-.05-.04-.03-.02-.04-.026-.04-.02-.04-.02-.04-.02-.04-.02-.045-.01-.046-.01-.04-.01-.07-.01h-.01l-.09-.01h-.02l-.06.006h-.03l-.054.01-.032.01-.05.017-.04.02-.04.02-.042.02-.014.01c-.04.022-4.184 2.23-6.162-.6l-.007-.01-.053-.07-.015-.018-.073-.08-.02-.02-.06-.05-.026-.02-.06-.035-.03-.016-.04-.02v-.616c0-.3-.22-.54-.48-.54-.27 0-.486.24-.486.54v.532H9.382V123c0-.3-.215-.54-.48-.54-.266 0-.48.24-.48.54v.616l-.044.02-.03.017-.06.04-.03.02-.06.05-.02.016-.07.08-.01.02-.06.07-.01.01c-1.97 2.81-6.13.62-6.17.6l-.02-.01-.05-.02-.046-.02-.04-.02-.05-.01-.03-.01-.06-.01-.028-.01-.08-.01h-.02l-.175.01h-.036l-.053.014-.04.01-.04.013-.04.02-.04.02-.04.02-.042.026-.03.026-.04.034-.02.02-.07.07-.004.01-.057.07-.03.04-.02.03-.01.01-.03.04-.02.04-.02.043-.01.046-.02.05-.02.048-.014.047-.015.05-.01.04-.01.06v.04l-.004.08v.02l.004.1v.035l.01.066.01.046.01.05.01.05.01.05.02.04.02.05.02.04.02.044.02.04.03.05.02.03.06.08c1.404 1.64 2.957 2.82 4.596 3.5-1.78.06-3.53-.66-3.56-.67l-.023-.01-.05-.02-.03-.01-.05-.01-.03-.002-.08-.01-.057-.01h-.08l-.04.01h-.05l-.05.01-.04.01-.046.02-.035.016-.05.02-.04.014-.05.02-.035.02-.04.03-.04.04-.03.02-.07.07-.01.012-.05.06-.006.01-.01.02-.03.053-.02.04-.016.03-.01.02-.02.05-.02.047-.016.05-.01.04-.02.05-.01.05-.01.04-.004.06-.006.04v.23l.01.06v.04l.01.06.01.045.02.05.015.04.02.05.02.05.027.042.023.04.025.05.03.033.04.047.02.03.07.07c.85.776 1.75 1.42 2.687 1.92v2.41H3.3c-.267 0-.48.24-.48.54v1.07c-.29.19-.483.536-.483.935v9.32H.967c-.533 0-.964.483-.964 1.08 0 .592.43 1.075.963 1.075h30.076c.532 0 .963-.48.963-1.08 0-.59-.43-1.08-.963-1.08zm-13.222-16.662v.33h-3.634v-.87h3.634v.54zm-4.116 1.408H18.3c.265 0 .48-.24.48-.54v-.868h4.064c.77.727 1.677 1.122 2.598 1.31l-.39.088-.086.017-.386.07-.062.01-.19.03-.17.02-.062.01-.392.03-.085.01-.41.01H8.78l-.402-.01h-.085l-.39-.03h-.067l-.17-.02-.186-.03-.06-.01-.382-.07-.086-.01-.39-.09c.92-.19 1.828-.58 2.598-1.31h4.064v.87c0 .3.217.54.48.54zm-9.222 1.444c1.378.588 2.826.89 4.303.89h14.435c1.476 0 2.924-.302 4.302-.89v1.945H4.48v-1.945zm.936 3.41v-.388h.74v.926h-.74v-.538zm21.17 0v.538h-.74v-.926h.74v.388zm-19.468 0v-.388h.74v.926h-.74v-.538zm1.703 0v-.388h.74v.926h-.74v-.538zm1.71 0v-.388h.74v.926h-.74v-.538zm1.71 0v-.388h.74v.926h-.74v-.538zm1.7 0v-.388h.74v.926h-.74v-.538zm1.71 0v-.388h.74v.926h-.74v-.538zm1.71 0v-.388h.74v.926h-.74v-.538zm1.71 0v-.388h.74v.926h-.74v-.538zm1.7 0v-.388h.74v.926h-.74v-.538zm1.71 0v-.388h.74v.926h-.74v-.538zm1.71 0v-.388h.74v.926h-.74v-.538zm3.41-.388h.68v.926h-.67v-.926zm-23.76.388v-.388h.67v.926h-.7v-.538zm5.446-11.044H22.8c.94 1.118 2.19 1.74 3.686 1.84l-.196.093-.05.023-.158.07-.076.032-.13.054-.084.032-.12.047-.09.03-.12.042-.09.03-.12.036-.09.027-.12.033-.093.024-.12.03-.1.02-.12.025-.1.018-.12.022-.09.015-.12.017-.09.013-.13.014-.09.01-.13.01-.09.01-.15.01-.07.01-.22.01H8.26l-.13-.01-.09-.01-.124-.01-.09-.01-.12-.01-.09-.01-.12-.02-.09-.02-.12-.025-.098-.02-.12-.03-.09-.022-.12-.03-.09-.022-.12-.04-.09-.03-.12-.04-.09-.03-.13-.045-.09-.037-.13-.06-.08-.03-.16-.07-.05-.02-.2-.1c1.49-.1 2.75-.72 3.68-1.84zm.205 18.103c-.31-.155-.67-.245-1.06-.245s-.75.09-1.06.245v-.033c.03-.63.493-1.12 1.06-1.12.563 0 1.03.49 1.06 1.12v.033zm-2.12 3.343v-1.918c.03-.283.48-.596 1.06-.596.57 0 1.03.31 1.06.595v2.46H7.32v-.54zm9.88-4.01c-.34-.187-.75-.293-1.2-.293-.446 0-.86.105-1.2.292v-.28c.03-.71.56-1.27 1.19-1.27.64 0 1.168.55 1.2 1.27v.27zm-2.4 4.006v-2.528c.038-.333.53-.696 1.2-.696.67 0 1.16.363 1.2.695v3.066h-2.4v-.54zm9.89-3.343c-.306-.155-.67-.245-1.06-.245s-.75.09-1.06.244v-.033c.03-.63.496-1.12 1.06-1.12.565 0 1.03.49 1.06 1.12v.03zm-2.12 3.342v-1.915c.03-.282.484-.595 1.06-.595.58 0 1.03.31 1.06.595v2.455H22.6v-.54zm3.08 0v-3.416c-.05-1.21-.94-2.16-2.03-2.16s-1.97.95-2.02 2.16v3.41H18.2v-4.32c-.055-1.3-1.003-2.31-2.16-2.31-1.16 0-2.107 1.01-2.16 2.31v4.32H10.4v-3.42c-.05-1.21-.937-2.16-2.02-2.16-1.084 0-1.97.95-2.02 2.16v3.41H4.27v-8.24h23.48v8.24h-2.09z" fill="#206FAC"/><path d="M31.04 107.158h-1.375v-9.322c0-.4-.194-.746-.48-.933v-1.07c0-.3-.216-.54-.482-.54h-.218v-2.41c.94-.504 1.84-1.146 2.686-1.92l.07-.07.03-.028.04-.048.03-.035.03-.045.03-.04.03-.044.02-.046.02-.042.02-.05.02-.04.02-.052.01-.04.01-.056.01-.03.01-.125v-.127l-.01-.082v-.014l-.01-.08v-.02l-.02-.08-.003-.02-.03-.08v-.02l-.032-.08v-.01l-.002-.01-.04-.07-.014-.02-.03-.05-.01-.01-.01-.01-.055-.07-.114-.11-.003-.01-.066-.046-.01-.006-.06-.04-.02-.008-.06-.028-.02-.01-.06-.02-.022-.01-.06-.015h-.033l-.05-.01-.04-.005h-.1l-.08.01-.04.003-.05.01-.04.01-.05.02-.03.01c-.024.01-1.773.732-3.56.67 1.64-.685 3.19-1.86 4.598-3.5l.06-.08.02-.03.04-.05.02-.04.024-.05.02-.043.02-.046.012-.044.01-.05.01-.046.01-.055.01-.04.007-.063.008-.033v-.12l-.004-.076v-.036l-.01-.06-.01-.04-.01-.054-.01-.048-.014-.045-.02-.043-.02-.04-.02-.05-.02-.04-.03-.05-.005-.01-.02-.03-.03-.04-.06-.07v-.01l-.07-.07-.026-.02-.05-.04-.03-.026-.04-.025-.04-.02-.04-.02-.043-.02-.04-.02-.04-.01-.05-.015-.04-.01-.07-.01h-.01l-.09-.01h-.02l-.06.006-.03.006-.056.01-.033.01-.05.01-.04.016-.04.02-.044.028-.015.01c-.04.02-4.185 2.23-6.163-.6v-.01l-.055-.07-.012-.02-.07-.078-.02-.02-.062-.05-.024-.02-.07-.04-.03-.013-.04-.02v-.613c0-.3-.22-.54-.48-.54-.27 0-.485.24-.485.54v.534H9.39v-.53c0-.3-.213-.54-.48-.54-.264 0-.48.24-.48.54v.616l-.042.02-.03.02-.06.04-.03.02-.06.05-.02.02-.07.08-.01.02-.058.07h-.01c-1.97 2.81-6.13.626-6.17.6l-.02-.004-.043-.02-.043-.02-.04-.01-.05-.017-.03-.01-.06-.01-.03-.007-.08-.004h-.02l-.174.01-.035.01-.053.013-.04.01-.04.016-.04.02-.04.02-.04.02-.04.025-.035.023-.047.037-.02.02-.07.07-.006.002-.06.06-.026.04-.02.03-.01.01-.025.045-.02.04L.59 85l-.017.04-.02.05-.02.05-.015.044-.014.053-.01.04-.01.06-.002.04-.006.08v.02l.002.097v.03l.006.06.01.04.01.05.01.046.01.05.02.046.02.046.02.044.02.05.02.04.03.05.02.03.06.08c1.4 1.632 2.954 2.812 4.594 3.5-1.786.06-3.535-.66-3.56-.67l-.03-.01-.05-.02-.03-.01-.06-.016-.036-.005-.08-.01-.05-.002H1.4L1.35 89h-.04l-.05.005-.043.01-.04.01-.046.016-.03.01-.05.02-.03.02-.05.03-.03.03-.04.03-.04.04-.03.03-.07.065-.01.017-.05.07v.014l-.01.02-.03.056-.02.04-.012.025-.01.02-.02.05-.02.044-.017.05-.012.05-.01.05-.01.05-.01.05-.006.06v.13l.007.1v.03l.01.07.01.04.01.05.01.04.01.05.014.05.02.05.02.04.02.045.025.04.03.048.024.038.04.047.02.03.07.07c.85.77 1.75 1.417 2.69 1.92v2.41H3.3c-.267 0-.48.24-.48.54v1.07c-.29.188-.483.53-.483.93v9.326H.967c-.533 0-.964.48-.964 1.073s.43 1.076.963 1.076h30.076c.532 0 .963-.486.963-1.08 0-.595-.43-1.08-.963-1.08zM17.817 90.496v.33h-3.634v-.87h3.634v.54zM13.7 91.904h4.6c.265 0 .48-.24.48-.54v-.868h4.064c.77.727 1.677 1.122 2.598 1.31l-.39.088-.086.017-.386.07-.062.01-.19.03-.17.02-.062.01-.392.03-.085.01-.41.01H8.78l-.402-.01h-.085l-.39-.03h-.067l-.17-.02L7.48 92l-.06-.01-.382-.07-.086-.016-.39-.09c.92-.188 1.828-.58 2.598-1.31h4.064v.87c0 .296.217.54.48.54zm-9.22 1.444c1.378.588 2.826.89 4.303.89h14.435c1.476 0 2.924-.302 4.302-.89v1.945H4.48v-1.945zm.936 3.41v-.388h.74v.926h-.74v-.538zm21.17 0v.538h-.74v-.926h.74v.388zm-19.468 0v-.388h.74v.926h-.74v-.538zm1.703 0v-.388h.74v.926h-.74v-.538zm1.71 0v-.388h.74v.926h-.74v-.538zm1.71 0v-.388h.74v.926h-.74v-.538zm1.7 0v-.388h.74v.926h-.74v-.538zm1.71 0v-.388h.74v.926h-.74v-.538zm1.71 0v-.388h.74v.926h-.74v-.538zm1.71 0v-.388h.74v.926h-.74v-.538zm1.7 0v-.388h.74v.926h-.74v-.538zm1.71 0v-.388h.74v.926h-.74v-.538zm1.71 0v-.388h.74v.926h-.74v-.538zm3.41-.388h.68v.926h-.67v-.926zm-23.77.388v-.388h.67v.926h-.7v-.538zm5.44-11.044H22.8c.94 1.118 2.19 1.74 3.69 1.84l-.198.093-.05.023-.15.07-.08.032-.13.054-.08.032-.12.047-.09.03-.12.042-.09.03-.12.036-.09.027-.12.033-.09.024-.12.03-.092.02-.12.025-.096.018-.123.022-.09.015-.12.017-.09.013-.12.014-.08.01-.13.01-.08.01-.14.01-.07.01-.21.01H8.26l-.13-.01-.09-.01-.123-.01-.09-.01-.13-.01-.09-.01-.12-.02-.09-.02-.12-.025-.1-.02-.12-.03-.09-.022-.12-.03-.1-.022-.12-.04-.09-.03-.12-.04-.09-.03-.13-.045-.085-.037-.13-.06-.08-.03-.155-.07-.05-.02-.2-.1c1.5-.1 2.75-.72 3.69-1.84zm.21 18.103c-.305-.155-.666-.245-1.06-.245-.39 0-.75.09-1.06.245v-.033c.034-.63.497-1.12 1.06-1.12.567 0 1.03.49 1.06 1.12v.033zm-2.12 3.343v-1.92c.03-.287.485-.6 1.06-.6.58 0 1.03.31 1.06.595v2.454H7.32v-.54zm9.89-4.01c-.34-.19-.75-.3-1.2-.3-.443 0-.854.106-1.195.293v-.278c.036-.71.56-1.27 1.2-1.27.64 0 1.163.557 1.2 1.27v.276zm-2.394 4v-2.528c.03-.333.52-.696 1.2-.696.67 0 1.16.363 1.19.695v3.07h-2.4v-.54zm9.88-3.343c-.307-.155-.67-.245-1.06-.245s-.754.09-1.06.244v-.033c.03-.63.495-1.12 1.06-1.12.564 0 1.03.49 1.06 1.12v.033zm-2.12 3.342v-1.92c.03-.29.483-.6 1.06-.6.576 0 1.03.31 1.06.59v2.45H22.6v-.54zm3.08 0v-3.42c-.05-1.21-.94-2.16-2.02-2.16-1.085 0-1.97.95-2.02 2.16v3.41H18.2v-4.32c-.057-1.3-1.005-2.31-2.16-2.31-1.16 0-2.11 1.01-2.16 2.31v4.32H10.4v-3.42c-.05-1.21-.937-2.16-2.02-2.16-1.084 0-1.97.95-2.02 2.16v3.41H4.27V98.9h23.48v8.246h-2.09z" fill="#fff"/><path d="M31.04 67.158h-1.375v-9.322c0-.4-.194-.746-.48-.933v-1.07c0-.3-.216-.54-.482-.54h-.218v-2.41c.94-.504 1.84-1.146 2.686-1.92l.07-.07.03-.028.04-.048.03-.035.03-.045.03-.04.03-.044.02-.046.02-.042.02-.05.02-.04.02-.052.01-.04.01-.056.01-.03.01-.125v-.127l-.01-.082v-.014l-.01-.08v-.02l-.02-.08-.003-.02-.03-.08v-.02l-.032-.08v-.01l-.002-.01-.04-.07-.014-.02-.03-.05-.01-.01-.01-.01-.055-.07-.114-.11-.003-.01-.066-.046-.01-.006-.06-.04-.02-.008-.06-.028-.02-.01-.06-.02-.022-.01-.06-.015h-.033l-.05-.01-.04-.005h-.1l-.08.01-.04.003-.05.01-.04.01-.05.02-.03.01c-.024.01-1.773.732-3.56.67 1.64-.685 3.19-1.86 4.598-3.5l.06-.08.02-.03.04-.05.02-.04.024-.05.02-.043.02-.046.012-.044.01-.05.01-.046.01-.055.01-.04.007-.063.008-.033v-.12l-.004-.076v-.036l-.01-.06-.01-.04-.01-.054-.01-.048-.014-.045-.02-.043-.02-.04-.02-.05-.02-.04-.03-.05-.005-.01-.02-.03-.03-.04-.06-.07v-.01l-.07-.07-.026-.02-.05-.04-.03-.026-.04-.025-.04-.02-.04-.02-.043-.02-.04-.02-.04-.01-.05-.015-.04-.01-.07-.01h-.01l-.09-.01h-.02l-.06.006-.03.006-.056.01-.033.01-.05.01-.04.016-.04.02-.044.028-.015.01c-.04.02-4.185 2.23-6.163-.6v-.01l-.055-.07-.012-.02-.07-.078-.02-.02-.062-.05-.024-.02-.07-.04-.03-.013-.04-.02v-.613c0-.3-.22-.54-.48-.54-.27 0-.485.24-.485.54v.534H9.39v-.53c0-.3-.213-.54-.48-.54-.264 0-.48.24-.48.54v.616l-.042.02-.03.02-.06.04-.03.02-.06.05-.02.02-.07.08-.01.02-.058.07h-.01c-1.97 2.81-6.13.626-6.17.6l-.02-.004-.043-.02-.043-.02-.04-.01-.05-.017-.03-.01-.06-.01-.03-.007-.08-.004h-.02l-.174.01-.035.01-.053.013-.04.01-.04.016-.04.02-.04.02-.04.02-.04.025-.035.023-.047.037-.02.02-.07.07-.006.002-.06.06-.026.04-.02.03-.01.01-.025.045-.02.04L.59 45l-.017.04-.02.05-.02.05-.015.044-.014.053-.01.04-.01.06-.002.04-.006.08v.02l.002.097v.03l.006.06.01.04.01.05.01.046.01.05.02.046.02.046.02.044.02.05.02.04.03.05.02.03.06.08c1.4 1.632 2.954 2.812 4.594 3.5-1.786.06-3.535-.66-3.56-.67l-.03-.01-.05-.02-.03-.01-.06-.016-.036-.005-.08-.01-.05-.002H1.4L1.35 49h-.04l-.05.005-.043.01-.04.01-.046.016-.03.01-.05.02-.03.02-.05.03-.03.03-.04.03-.04.04-.03.03-.07.065-.01.017-.05.07v.014l-.01.02-.03.056-.02.04-.012.025-.01.02-.02.05-.02.044-.017.05-.012.05-.01.05-.01.05-.01.05-.006.06v.13l.007.1v.03l.01.07.01.04.01.05.01.04.01.05.014.05.02.05.02.04.02.045.025.04.03.048.024.038.04.047.02.03.07.07c.85.77 1.75 1.417 2.69 1.92v2.41H3.3c-.267 0-.48.24-.48.54v1.07c-.29.188-.483.53-.483.93v9.326H.967c-.533 0-.964.48-.964 1.073s.43 1.076.963 1.076h30.076c.532 0 .963-.486.963-1.08 0-.595-.43-1.08-.963-1.08zM17.817 50.496v.33h-3.634v-.87h3.634v.54zM13.7 51.904h4.6c.265 0 .48-.24.48-.54v-.868h4.064c.77.727 1.677 1.122 2.598 1.31l-.39.088-.086.017-.386.07-.062.01-.19.03-.17.02-.062.01-.392.03-.085.01-.41.01H8.78l-.402-.01h-.085l-.39-.03h-.067l-.17-.02L7.48 52l-.06-.01-.382-.07-.086-.016-.39-.09c.92-.188 1.828-.58 2.598-1.31h4.064v.87c0 .296.217.54.48.54zm-9.22 1.444c1.378.588 2.826.89 4.303.89h14.435c1.476 0 2.924-.302 4.302-.89v1.945H4.48v-1.945zm.936 3.41v-.388h.74v.926h-.74v-.538zm21.17 0v.538h-.74v-.926h.74v.388zm-19.468 0v-.388h.74v.926h-.74v-.538zm1.703 0v-.388h.74v.926h-.74v-.538zm1.71 0v-.388h.74v.926h-.74v-.538zm1.71 0v-.388h.74v.926h-.74v-.538zm1.7 0v-.388h.74v.926h-.74v-.538zm1.71 0v-.388h.74v.926h-.74v-.538zm1.71 0v-.388h.74v.926h-.74v-.538zm1.71 0v-.388h.74v.926h-.74v-.538zm1.7 0v-.388h.74v.926h-.74v-.538zm1.71 0v-.388h.74v.926h-.74v-.538zm1.71 0v-.388h.74v.926h-.74v-.538zm3.41-.388h.68v.926h-.67v-.926zm-23.77.388v-.388h.67v.926h-.7v-.538zm5.44-11.044H22.8c.94 1.118 2.19 1.74 3.69 1.84l-.198.093-.05.023-.15.07-.08.032-.13.054-.08.032-.12.047-.09.03-.12.042-.09.03-.12.036-.09.027-.12.033-.09.024-.12.03-.092.02-.12.025-.096.018-.123.022-.09.015-.12.017-.09.013-.12.014-.08.01-.13.01-.08.01-.14.01-.07.01-.21.01H8.26l-.13-.01-.09-.01-.123-.01-.09-.01-.13-.01-.09-.01-.12-.02-.09-.02-.12-.025-.1-.02-.12-.03-.09-.022-.12-.03-.1-.022-.12-.04-.09-.03-.12-.04-.09-.03-.13-.045-.085-.037-.13-.06-.08-.03-.155-.07-.05-.02-.2-.1c1.5-.1 2.75-.72 3.69-1.84zm.21 18.103c-.305-.155-.666-.245-1.06-.245-.39 0-.75.09-1.06.245v-.033c.034-.63.497-1.12 1.06-1.12.567 0 1.03.49 1.06 1.12v.033zM7.32 67.16v-1.915c.03-.283.484-.596 1.06-.596.577 0 1.03.31 1.06.59v2.46H7.32v-.54zm9.888-4.007c-.342-.187-.753-.293-1.2-.293-.445 0-.856.106-1.197.293v-.277c.04-.71.56-1.268 1.2-1.268.64 0 1.17.556 1.2 1.268v.277zM14.81 67.16v-2.53c.033-.34.525-.7 1.197-.7.67 0 1.166.36 1.2.69v3.07H14.81v-.54zm9.885-3.35c-.308-.16-.67-.25-1.06-.25s-.755.09-1.06.24v-.04c.03-.63.494-1.12 1.06-1.12.563 0 1.026.49 1.06 1.12v.033zm-2.12 3.34v-1.91c.03-.29.482-.6 1.06-.6.575 0 1.03.31 1.06.59v2.46h-2.12v-.54zm3.08 0v-3.41c-.05-1.21-.938-2.16-2.02-2.16-1.085 0-1.97.95-2.02 2.16v3.41h-3.45v-4.32c-.054-1.3-1.002-2.31-2.16-2.31-1.157 0-2.106 1.01-2.16 2.31v4.32H10.4v-3.41c-.05-1.21-.94-2.16-2.023-2.16-1.083 0-1.97.95-2.02 2.16v3.41h-2.09v-8.24h23.48v8.24h-2.09z" fill="#67737B"/><path d="M31.04 27.158h-1.375v-9.322c0-.4-.194-.746-.48-.933v-1.07c0-.3-.216-.54-.482-.54h-.218v-2.41c.94-.504 1.84-1.146 2.686-1.92l.07-.07.03-.028.04-.048.03-.035.03-.045.03-.04.03-.044.02-.046.02-.042.02-.05.02-.04.02-.052.01-.04.01-.056.01-.03.01-.125v-.127l-.01-.082V9.95l-.01-.08v-.014l-.02-.08-.003-.013-.03-.078v-.013l-.032-.075v-.005l-.002-.01-.04-.068-.014-.02-.03-.047-.01-.013-.01-.014-.055-.064-.114-.11-.003-.003-.066-.047-.01-.006-.06-.037-.02-.007-.06-.028-.02-.008-.06-.02-.022-.008-.06-.014-.033-.005-.05-.007-.04-.003-.05-.002-.05.01-.08.01-.04.01-.05.02-.04.01-.05.02-.03.01c-.024.02-1.773.74-3.56.68 1.64-.68 3.19-1.86 4.598-3.5l.06-.07.02-.03.04-.05.02-.04.024-.04.02-.04.02-.05.012-.04.01-.05.01-.04.01-.05.01-.04.007-.06.008-.03V5.5l-.004-.076v-.037l-.01-.06-.01-.04-.01-.054-.01-.045-.014-.047-.02-.04-.02-.04-.02-.05-.02-.04-.03-.04-.005-.01-.02-.03-.03-.04-.06-.07v-.01l-.07-.06-.026-.02-.05-.04-.03-.02-.04-.02-.06-.03-.04-.02-.042-.01-.04-.01-.05-.02-.05-.01-.04-.01-.072-.01h-.1l-.02.01-.07.006-.03.004-.05.01-.036.01-.05.014-.04.016-.04.017-.04.026-.02.01c-.04.024-4.183 2.23-6.16-.6l-.01-.01-.05-.07-.018-.016-.07-.08-.02-.02-.06-.05-.03-.02-.07-.035-.03-.02-.043-.02v-.62c0-.296-.21-.536-.48-.536-.26 0-.48.24-.48.535v.54H9.39v-.54c0-.3-.217-.54-.48-.54-.268 0-.483.24-.483.54v.62l-.043.02-.03.02-.06.04-.03.02-.06.05-.02.02-.07.08-.013.02-.05.07-.01.01c-1.96 2.81-6.12.63-6.16.6l-.02-.01-.04-.02-.04-.02-.04-.01-.05-.01-.03-.01-.06-.01-.03-.01-.07-.01h-.02l-.17.016-.03.01-.05.01-.04.02-.04.02-.04.02-.04.02-.04.02-.04.03-.03.02-.05.03-.02.02-.07.07v.01l-.05.065-.03.04-.02.03-.01.01L.67 5l-.02.04-.02.043-.02.042-.02.05-.018.046-.014.05-.014.05-.01.04-.01.06-.003.04-.01.07v.15l.01.06.01.04.01.05.01.05.02.05.02.05V6l.02.043.03.048.02.04.037.05.02.03.06.08c1.4 1.64 2.95 2.82 4.59 3.5-1.782.07-3.53-.66-3.56-.67l-.024-.01-.052-.02H1.7l-.055-.02H1.6l-.08-.01h-.09l-.05.01-.04.01-.047.01-.045.01-.04.02-.047.02-.03.02-.04.02-.03.02-.04.03-.03.02-.04.03-.05.03-.02.02-.06.07-.01.018-.05.063-.01.01-.012.02-.04.057-.022.04-.02.02-.02.01-.02.05-.02.04-.016.05-.02.04-.01.05-.01.05-.01.046L.5 10l-.01.04-.005.076v.023l.006.09.01.03.01.06.01.04.01.05.01.04.02.05.02.04.02.04.02.04.03.04.03.04.03.04.03.03.04.04.02.03.07.07c.85.78 1.75 1.42 2.69 1.92v2.41H3.3c-.267 0-.48.24-.48.54v1.07c-.29.19-.483.54-.483.933v9.32H.967c-.533 0-.964.483-.964 1.08 0 .592.43 1.075.963 1.075h30.076c.532 0 .963-.48.963-1.075s-.43-1.08-.963-1.08zM17.817 10.496v.33h-3.634v-.87h3.634v.54zM13.7 11.904h4.6c.265 0 .48-.24.48-.54v-.868h4.064c.77.727 1.677 1.122 2.598 1.31l-.39.088-.086.017-.386.07-.062.01-.19.03-.17.02-.062.01-.392.03-.085.01-.41.01H8.78l-.402-.01h-.085l-.39-.03h-.067l-.17-.02L7.48 12l-.06-.01-.382-.07-.086-.016-.39-.09c.92-.188 1.828-.58 2.598-1.31h4.064v.87c0 .296.217.54.48.54zm-9.22 1.444c1.378.588 2.826.89 4.303.89h14.435c1.476 0 2.924-.302 4.302-.89v1.945H4.48v-1.945zm.936 3.41v-.388h.74v.926h-.74v-.538zm21.17 0v.538h-.74v-.926h.74v.388zm-19.468 0v-.388h.74v.926h-.74v-.538zm1.703 0v-.388h.74v.926h-.74v-.538zm1.71 0v-.388h.74v.926h-.74v-.538zm1.71 0v-.388h.74v.926h-.74v-.538zm1.7 0v-.388h.74v.926h-.74v-.538zm1.71 0v-.388h.74v.926h-.74v-.538zm1.71 0v-.388h.74v.926h-.74v-.538zm1.71 0v-.388h.74v.926h-.74v-.538zm1.7 0v-.388h.74v.926h-.74v-.538zm1.71 0v-.388h.74v.926h-.74v-.538zm1.71 0v-.388h.74v.926h-.74v-.538zm3.41-.388h.68v.926h-.67v-.926zm-23.77.388v-.388h.67v.926h-.7v-.538zm5.4-11.044h13.55c.94 1.118 2.19 1.74 3.687 1.84l-.195.093-.05.023-.157.07-.078.032-.13.054-.084.032-.123.047-.088.03-.12.042-.09.03-.12.036-.09.027-.12.033-.093.024-.12.03-.093.02-.12.025-.093.018-.12.022-.09.015-.12.017-.09.013-.12.014-.09.01-.13.01-.08.01-.14.01-.07.01-.21.01H8.36l-.087-.01-.13-.01-.09-.01-.12-.01-.09-.01-.12-.01-.09-.01-.12-.02-.09-.01-.12-.025-.09-.02-.12-.03L7 8.14l-.12-.035-.09-.025-.12-.04-.1-.04-.12-.04-.09-.03-.12-.047-.08-.035-.13-.054-.08-.03-.155-.07-.05-.02-.196-.096c1.49-.1 2.74-.72 3.68-1.84zm.21 18.103c-.307-.155-.668-.245-1.06-.245-.39 0-.753.09-1.06.245v-.033c.032-.63.495-1.12 1.06-1.12.565 0 1.03.49 1.06 1.12v.033zM7.32 27.16v-1.915c.03-.283.483-.596 1.06-.596.576 0 1.03.31 1.06.59v2.46H7.32v-.54zm9.887-4.007c-.34-.187-.752-.293-1.2-.293-.444 0-.855.106-1.196.293v-.277c.03-.71.56-1.268 1.19-1.268.64 0 1.16.556 1.2 1.268v.277zM14.81 27.16v-2.53c.034-.337.526-.7 1.198-.7.67 0 1.164.363 1.198.695v3.07H14.81v-.54zm9.886-3.35c-.305-.154-.667-.244-1.06-.244-.39 0-.752.09-1.06.245v-.03c.033-.63.497-1.12 1.06-1.12.566 0 1.03.49 1.06 1.12v.03zm-2.12 3.343V25.24c.033-.282.485-.595 1.06-.595.578 0 1.03.31 1.06.595v2.46h-2.12v-.54zm3.083 0V23.74c-.05-1.21-.94-2.16-2.03-2.16-1.08 0-1.97.95-2.02 2.16v3.416h-3.44v-4.32c-.06-1.295-1-2.31-2.16-2.31-1.16 0-2.11 1.015-2.16 2.31v4.32H10.4V23.74c-.05-1.21-.94-2.16-2.023-2.16-1.083 0-1.97.95-2.02 2.16v3.415h-2.09V18.91h23.48v8.244h-2.09z" fill="#3A434E"/></g></svg>