<svg width="32" height="232" viewBox="0 0 32 232" xmlns="http://www.w3.org/2000/svg"><g fill="none"><path d="M30.95 149.186h-1.173v-14.008l.578-1.996c.048-.168.02-.35-.08-.49s-.255-.223-.42-.223h-.602v-1.17l-.002-.03.61-.64c.21-.22.21-.57 0-.78-.19-.2-.49-.22-.7-.04v-.29c0-.31-.23-.55-.52-.55-.29 0-.52.24-.52.55v.28c-.2-.18-.5-.17-.7.03-.2.21-.2.56 0 .78l.11.11H25.4l.106-.11c.204-.22.205-.57 0-.78-.19-.2-.493-.21-.7-.04v-.28c0-.31-.233-.55-.523-.55-.29 0-.524.24-.524.55v.28c-.21-.18-.51-.17-.7.03-.21.22-.21.57 0 .78l.1.11h-1.57v-1.96l.06-.1c.09-.17.09-.39-.01-.56-.88-1.5-2.22-2.562-3.77-3.04.2-.214.2-.557 0-.77-.21-.216-.54-.216-.74 0l-.5.524-.1-.01v-1.363c0-.3-.24-.55-.53-.55-.29 0-.53.25-.53.55v1.37l-.1.01-.5-.524c-.21-.21-.54-.21-.74 0-.21.22-.21.56-.01.78-1.55.48-2.89 1.54-3.77 3.04-.1.17-.107.38-.01.56l.062.092v1.96H8.86l.105-.114c.205-.217.205-.565 0-.78-.19-.2-.493-.214-.7-.04v-.28c0-.3-.233-.55-.523-.55-.287 0-.522.25-.522.55v.288c-.206-.176-.508-.165-.7.036-.204.215-.204.564 0 .78l.108.11h-2.13l.108-.11c.205-.216.205-.564 0-.78-.19-.2-.493-.213-.7-.04v-.28c0-.306-.233-.55-.523-.55-.29 0-.523.243-.523.55v.28c-.205-.176-.508-.165-.7.036-.204.216-.203.565.002.78l.605.64-.003.03v1.17h-.6c-.164 0-.32.084-.42.225-.1.14-.13.32-.08.49l.58 2v14.01h-1.18c-.58 0-1.05.496-1.05 1.1s.47 1.1 1.05 1.1h29.883c.58 0 1.048-.49 1.048-1.1 0-.61-.47-1.1-1.048-1.1zM3.81 131.852h6.622v.618h-6.62v-.618zm11.204-5.833l.552.57c.102.11.236.16.37.16l.074-.01h.073c.133 0 .268-.06.37-.16l.552-.58c1.148.22 2.192.8 3 1.69l.152.17h-8.294l.152-.17c.807-.89 1.852-1.47 3-1.69zm6.57 5.83h6.622v.62h-6.62v-.62zm-17.25 4.44H9.78c.037.26.253.47.516.47.173 0 .325-.09.42-.23.05-.07.084-.16.096-.25h4.68c.035.26.25.47.516.47.264 0 .48-.21.516-.48h4.68c.01.09.044.18.094.25.096.13.248.22.42.22.265 0 .48-.21.517-.48h5.446v1.34H4.34v-1.35zm17.25-2.72h6.622v.51h-6.62v-.51zm-9.056 0h6.96v.51h-6.96v-.51zM4.35 149.18v-6.243h1.522v6.794H4.35v-.55zm4.673 0v-7.246c.036-.68.57-1.21 1.22-1.21s1.182.53 1.218 1.21v7.8H9.03v-.55zm5.71 0v-7.246c.037-.68.57-1.21 1.22-1.21s1.183.53 1.22 1.21v7.8h-2.44v-.55zm5.713 0v-7.246c.036-.68.57-1.21 1.22-1.21s1.182.53 1.218 1.21v7.8h-2.438v-.55zm5.7 0v-6.243h1.522v6.794h-1.523v-.55zm1.536-7.345h-2.06c-.29 0-.526.247-.526.552v5.055h-1.164v-5.55c-.057-1.278-1.053-2.277-2.268-2.277-1.214 0-2.21 1-2.266 2.276v5.55H18.22v-5.55c-.057-1.27-1.053-2.27-2.267-2.27-1.215 0-2.21 1-2.267 2.28v5.55h-1.178v-5.55c-.057-1.27-1.053-2.27-2.267-2.27s-2.21 1-2.26 2.28v5.55H6.92v-5.06c0-.3-.236-.55-.525-.55h-2.06v-3.1H27.68v3.1zM19.49 131.3v1.17h-6.962v-3.49h6.96v2.32zm-15.68 2.273h6.622v.512h-6.62v-.512zm3.11 14.98h1.055v.633H6.92v-.634zm5.59 0h1.176v.633H12.51v-.634zm5.71 0h1.18v.633h-1.18v-.634zm5.713 0h1.165v.633h-1.165v-.634zm-10.422-16.44h5c.29 0 .53-.247.53-.55v-1.774c0-.31-.23-.56-.52-.56h-5c-.28 0-.52.24-.52.55v1.77c0 .3.24.55.53.55zm.53-1.772h3.95v.67h-3.95v-.67zm-11.66-7.48c.24.22.53.34.84.34h3.37v.07c0 .34.14.66.38.88.2.19.47.29.73.29h3.6c.62 0 1.11-.52 1.11-1.16 0-.64-.49-1.17-1.11-1.17h-.06l.02-.23c0-.74-.57-1.34-1.27-1.34H3.22c-.308 0-.606.12-.84.34-.273.26-.43.62-.43 1.01s.157.75.43 1zm.7-1.17l.15-.06h6.75c.13 0 .22.11.22.24s-.1.24-.22.24c-.29 0-.52.25-.52.55 0 .31.24.55.53.55h1.31l.06.07-.06.07H7.7l-.04-.01-.02-.05.02-.04.04-.02c.29 0 .52-.24.52-.55 0-.3-.234-.55-.524-.55H3.21l-.146-.06c-.03-.02-.077-.08-.077-.17 0-.09.05-.15.08-.17zm16.65 2.1h2.93c.29 0 .53-.24.53-.55 0-.3-.23-.55-.52-.55h-2.93c-.29 0-.52.25-.52.55 0 .31.24.56.53.56zm1.16-1.49h4.95c.29 0 .52-.24.52-.55 0-.3-.23-.55-.52-.55h-4.95c-.29 0-.52.25-.52.56 0 .31.24.55.53.55z" fill="#206FAC"/><path d="M30.95 109.186h-1.173V95.178l.578-1.996c.048-.168.02-.35-.08-.49s-.255-.223-.42-.223h-.602V91.3l-.002-.027.61-.636c.21-.216.21-.564 0-.78-.19-.202-.49-.213-.7-.037v-.282c0-.304-.23-.55-.52-.55-.29 0-.52.245-.52.55v.282c-.2-.176-.5-.165-.7.036-.2.216-.2.565 0 .78l.11.113H25.4l.106-.12c.204-.22.205-.57 0-.78-.19-.2-.493-.22-.7-.04v-.29c0-.31-.233-.55-.523-.55-.29 0-.524.24-.524.55v.28c-.21-.18-.51-.17-.7.03-.21.21-.21.56 0 .78l.1.11h-1.57v-1.95l.06-.1c.09-.18.09-.39-.01-.56-.88-1.5-2.22-2.57-3.77-3.04.2-.22.2-.56 0-.77-.21-.22-.54-.22-.74-.01l-.5.52-.1-.01v-1.36c0-.31-.24-.55-.53-.55-.29 0-.53.24-.53.55v1.36h-.1l-.5-.527c-.21-.215-.54-.215-.74 0-.21.213-.21.56-.01.772-1.55.48-2.89 1.54-3.77 3.04-.1.17-.107.39-.01.56l.062.1V90.7H8.86l.105-.11c.205-.21.205-.56 0-.78-.19-.2-.493-.21-.7-.032v-.28c0-.31-.233-.55-.523-.55-.287 0-.522.24-.522.55v.28c-.206-.18-.508-.17-.7.033-.204.218-.204.567 0 .78l.108.11h-2.13l.108-.11c.205-.216.205-.564 0-.78-.19-.2-.493-.21-.7-.037v-.28c0-.3-.233-.55-.523-.55-.29 0-.523.25-.523.55v.29c-.205-.173-.508-.162-.7.04-.204.22-.203.57.002.78l.605.64-.003.03v1.17h-.6c-.164 0-.32.08-.42.22-.1.14-.13.32-.08.49l.58 1.99v14.01h-1.18c-.58 0-1.05.494-1.05 1.1s.47 1.1 1.05 1.1h29.883c.58 0 1.048-.49 1.048-1.1 0-.61-.47-1.1-1.048-1.1zM3.81 91.852h6.622v.618h-6.62v-.618zm11.204-5.833l.552.57c.102.11.236.16.37.16l.074-.01h.073c.133 0 .268-.06.37-.16l.552-.58c1.148.22 2.192.8 3 1.69l.152.17h-8.294l.152-.17c.807-.89 1.852-1.47 3-1.69zm6.57 5.83h6.622v.62h-6.62v-.62zm-17.25 4.44H9.78c.037.26.253.47.516.47.173 0 .325-.09.42-.23.05-.07.084-.16.096-.25h4.68c.035.26.25.47.516.47.264 0 .48-.21.516-.48h4.68c.01.09.044.18.094.25.096.13.248.22.42.22.265 0 .48-.21.517-.48h5.446v1.34H4.34v-1.35zm17.25-2.72h6.622v.51h-6.62v-.51zm-9.056 0h6.96v.51h-6.96v-.51zM4.35 109.18v-6.243h1.522v6.794H4.35v-.55zm4.673 0v-7.246c.036-.68.57-1.21 1.22-1.21s1.182.53 1.218 1.21v7.8H9.03v-.55zm5.71 0v-7.246c.037-.68.57-1.21 1.22-1.21s1.183.53 1.22 1.21v7.8h-2.44v-.55zm5.713 0v-7.246c.036-.68.57-1.21 1.22-1.21s1.182.53 1.218 1.21v7.8h-2.438v-.55zm5.7 0v-6.243h1.522v6.794h-1.523v-.55zm1.536-7.345h-2.06c-.29 0-.526.247-.526.552v5.055h-1.164v-5.55c-.057-1.278-1.053-2.277-2.268-2.277-1.214 0-2.21 1-2.266 2.276v5.55H18.22v-5.55c-.057-1.27-1.053-2.27-2.267-2.27-1.215 0-2.21 1-2.267 2.28v5.55h-1.178v-5.55c-.057-1.27-1.053-2.27-2.267-2.27s-2.21 1-2.26 2.28v5.55H6.92v-5.06c0-.3-.236-.55-.525-.55h-2.06v-3.1H27.68v3.1zM19.49 91.3v1.17h-6.962v-3.49h6.96v2.32zM3.81 93.573h6.622v.512h-6.62v-.512zm3.11 14.98h1.055v.633H6.92v-.634zm5.59 0h1.176v.633H12.51v-.634zm5.71 0h1.18v.633h-1.18v-.634zm5.713 0h1.165v.633h-1.165v-.634zM13.51 92.113h4.997c.29 0 .524-.248.524-.55v-1.775c0-.305-.23-.552-.52-.552h-5c-.28 0-.52.246-.52.55v1.774c0 .304.24.55.53.55zm.525-1.773h3.948v.67h-3.948v-.67zm-11.66-7.48c.234.217.53.335.84.335h3.367l-.004.064c0 .33.137.65.376.87.203.19.464.29.733.29h3.593c.612 0 1.11-.53 1.11-1.17 0-.65-.498-1.17-1.11-1.17h-.065l.02-.24c0-.74-.57-1.34-1.27-1.34h-6.75c-.307 0-.605.12-.84.33-.272.25-.43.62-.43 1s.158.75.432 1zm.694-1.177l.14-.058h6.75c.12 0 .22.105.22.235s-.1.234-.22.234c-.29 0-.53.247-.53.552 0 .304.23.55.52.55h1.31l.06.065-.06.07H7.68l-.04-.01-.02-.04.02-.05.04-.01c.29 0 .524-.24.524-.55 0-.3-.235-.55-.525-.55H3.21l-.146-.06c-.03-.02-.077-.08-.077-.17 0-.09.05-.15.08-.17zm16.64 2.1h2.92c.29 0 .52-.246.52-.55 0-.306-.24-.552-.53-.552H19.7c-.29 0-.524.25-.524.55 0 .31.233.56.523.56zm1.16-1.49h4.94c.29 0 .52-.246.52-.55 0-.305-.24-.552-.53-.552h-4.94c-.29 0-.53.25-.53.56 0 .31.23.55.52.55z" fill="#fff"/><path d="M30.95 69.186h-1.173V55.178l.578-1.996c.048-.168.02-.35-.08-.49s-.255-.223-.42-.223h-.602V51.3l-.002-.027.61-.636c.21-.216.21-.564 0-.78-.19-.202-.49-.213-.7-.037v-.282c0-.304-.23-.55-.52-.55-.29 0-.52.245-.52.55v.282c-.2-.176-.5-.165-.7.036-.2.216-.2.565 0 .78l.11.113H25.4l.106-.12c.204-.22.205-.57 0-.78-.19-.2-.493-.22-.7-.04v-.29c0-.31-.233-.55-.523-.55-.29 0-.524.24-.524.55v.28c-.21-.18-.51-.17-.7.03-.21.21-.21.56 0 .78l.1.11h-1.57v-1.95l.06-.1c.09-.18.09-.39-.01-.56-.88-1.5-2.22-2.57-3.77-3.04.2-.22.2-.56 0-.77-.21-.22-.54-.22-.74-.01l-.5.52-.1-.01v-1.36c0-.31-.24-.55-.53-.55-.29 0-.53.24-.53.55v1.36h-.1l-.5-.527c-.21-.215-.54-.215-.74 0-.21.213-.21.56-.01.772-1.55.48-2.89 1.54-3.77 3.04-.1.17-.107.39-.01.56l.062.1V50.7H8.86l.105-.11c.205-.21.205-.56 0-.78-.19-.2-.493-.21-.7-.032v-.28c0-.31-.233-.55-.523-.55-.287 0-.522.24-.522.55v.28c-.206-.18-.508-.17-.7.033-.204.218-.204.567 0 .78l.108.11h-2.13l.108-.11c.205-.216.205-.564 0-.78-.19-.2-.493-.21-.7-.037v-.28c0-.3-.233-.55-.523-.55-.29 0-.523.25-.523.55v.29c-.205-.173-.508-.162-.7.04-.204.22-.203.57.002.78l.605.64-.003.03v1.17h-.6c-.164 0-.32.08-.42.22-.1.14-.13.32-.08.49l.58 1.99v14.01h-1.18c-.58 0-1.05.494-1.05 1.1s.47 1.1 1.05 1.1h29.883c.58 0 1.048-.49 1.048-1.1 0-.61-.47-1.1-1.048-1.1zM3.81 51.852h6.622v.618h-6.62v-.618zm11.204-5.833l.552.57c.102.11.236.16.37.16l.074-.01h.073c.133 0 .268-.06.37-.16l.552-.58c1.148.22 2.192.8 3 1.69l.152.17h-8.294l.152-.17c.807-.89 1.852-1.47 3-1.69zm6.57 5.83h6.622v.62h-6.62v-.62zm-17.25 4.44H9.78c.037.26.253.47.516.47.173 0 .325-.09.42-.23.05-.07.084-.16.096-.25h4.68c.035.26.25.47.516.47.264 0 .48-.21.516-.48h4.68c.01.09.044.18.094.25.096.13.248.22.42.22.265 0 .48-.21.517-.48h5.446v1.34H4.34v-1.35zm17.25-2.72h6.622v.51h-6.62v-.51zm-9.056 0h6.96v.51h-6.96v-.51zM4.35 69.18v-6.24h1.522v6.795H4.35v-.55zm4.673 0v-7.24c.036-.68.57-1.212 1.22-1.212s1.182.532 1.218 1.212v7.798H9.03v-.55zm5.71 0v-7.24c.037-.68.57-1.212 1.22-1.212s1.183.532 1.22 1.212v7.798h-2.44v-.55zm5.713 0v-7.24c.036-.68.57-1.212 1.22-1.212s1.182.532 1.218 1.212v7.798h-2.438v-.55zm5.7 0v-6.24h1.522v6.795h-1.523v-.55zm1.536-7.345h-2.06c-.29 0-.526.247-.526.552v5.055h-1.164V61.9c-.057-1.277-1.053-2.276-2.268-2.276-1.214 0-2.21 1-2.266 2.276v5.548H18.22V61.9c-.057-1.277-1.053-2.276-2.267-2.276-1.215 0-2.21 1-2.267 2.276v5.548h-1.178V61.9c-.057-1.277-1.053-2.276-2.267-2.276s-2.21 1-2.26 2.276v5.548H6.92v-5.056c0-.305-.236-.55-.525-.55h-2.06V58.74H27.68v3.1zM19.49 51.3v1.17h-6.962v-3.49h6.96v2.32zM3.81 53.573h6.622v.512h-6.62v-.512zm3.11 14.98h1.055v.633H6.92v-.634zm5.59 0h1.176v.633H12.51v-.634zm5.71 0h1.18v.633h-1.18v-.634zm5.713 0h1.165v.633h-1.165v-.634zM13.51 52.113h4.997c.29 0 .524-.248.524-.55v-1.775c0-.305-.23-.552-.52-.552h-5c-.28 0-.52.246-.52.55v1.774c0 .304.24.55.53.55zm.525-1.773h3.948v.67h-3.948v-.67zm-11.66-7.48c.234.217.53.335.84.335h3.367l-.004.064c0 .33.137.65.376.87.203.19.464.29.733.29h3.593c.612 0 1.11-.53 1.11-1.17 0-.65-.498-1.17-1.11-1.17h-.065l.02-.24c0-.74-.57-1.34-1.27-1.34h-6.75c-.307 0-.605.12-.84.33-.272.25-.43.62-.43 1s.158.75.432 1zm.694-1.177l.14-.058h6.75c.12 0 .22.105.22.235s-.1.234-.22.234c-.29 0-.53.247-.53.552 0 .304.23.55.52.55h1.31l.06.065-.06.07H7.68l-.04-.01-.02-.04.02-.05.04-.01c.29 0 .524-.24.524-.55 0-.3-.235-.55-.525-.55H3.21l-.146-.06c-.03-.02-.077-.08-.077-.17 0-.09.05-.15.08-.17zm16.64 2.1h2.92c.29 0 .52-.246.52-.55 0-.306-.24-.552-.53-.552H19.7c-.29 0-.524.25-.524.55 0 .31.233.56.523.56zm1.16-1.49h4.94c.29 0 .52-.246.52-.55 0-.305-.24-.552-.53-.552h-4.94c-.29 0-.53.25-.53.56 0 .31.23.55.52.55z" fill="#67737B"/><path d="M30.95 29.186h-1.173V15.178l.578-1.996c.048-.168.02-.35-.08-.49s-.255-.223-.42-.223h-.602V11.3l-.002-.027.61-.636c.21-.216.21-.564 0-.78-.19-.202-.49-.213-.7-.037v-.282c0-.304-.23-.55-.52-.55-.29 0-.52.245-.52.55v.282c-.2-.176-.5-.165-.7.036-.2.216-.2.565 0 .78l.11.113H25.4l.106-.12c.204-.22.205-.57 0-.78-.19-.2-.493-.22-.7-.04v-.28c0-.31-.233-.55-.523-.55-.29 0-.524.24-.524.55v.28c-.21-.18-.51-.17-.7.03-.21.21-.21.56 0 .78l.1.11h-1.57V8.79l.06-.096c.09-.174.09-.387-.01-.557-.88-1.5-2.22-2.568-3.77-3.04.2-.22.2-.56 0-.77-.21-.22-.54-.22-.74-.007l-.5.524-.1-.008V3.48c0-.304-.24-.55-.53-.55-.29 0-.53.246-.53.55v1.364l-.1.008-.5-.524c-.21-.214-.54-.214-.74 0-.21.214-.21.558-.01.773-1.55.48-2.89 1.54-3.77 3.04-.1.17-.107.39-.01.56l.062.1v1.96H8.86l.105-.11c.205-.21.205-.56 0-.78-.19-.2-.493-.21-.7-.03v-.28c0-.3-.233-.55-.523-.55-.287 0-.522.25-.522.55v.28c-.206-.17-.508-.16-.7.04-.204.22-.204.57 0 .78l.108.12h-2.13l.108-.11c.205-.22.205-.56 0-.78-.19-.2-.493-.21-.7-.04v-.29c0-.3-.233-.55-.523-.55-.29 0-.523.25-.523.55v.28c-.205-.17-.508-.16-.7.04-.204.22-.203.57.002.78l.605.64-.003.03v1.17h-.6c-.164 0-.32.08-.42.22-.1.14-.13.32-.08.49l.58 2v14h-1.18c-.58 0-1.05.5-1.05 1.1s.47 1.1 1.05 1.1h29.883c.58 0 1.048-.49 1.048-1.1 0-.61-.47-1.1-1.048-1.1zM3.81 11.852h6.622v.618h-6.62v-.618zM15.015 6.02l.552.577c.102.108.236.16.37.16l.074-.006.08.01c.14 0 .27-.05.37-.16l.55-.58c1.15.22 2.19.81 3 1.69l.15.17h-8.29l.16-.17c.81-.88 1.85-1.47 3-1.68zm6.57 5.832h6.622v.618h-6.62v-.618zm-17.25 4.44H9.78c.037.266.253.472.516.472.173 0 .325-.09.42-.226.05-.07.084-.155.096-.247h4.68c.035.27.25.48.516.48.264 0 .48-.2.516-.47h4.68c.01.1.044.18.094.25.096.14.248.23.42.23.265 0 .48-.2.517-.47h5.446v1.35H4.34V16.3zm17.25-2.72h6.622v.513h-6.62v-.512zm-9.056 0h6.96v.513h-6.96v-.512zM4.35 29.187v-6.243h1.522v6.794H4.35v-.55zm4.673 0V21.94c.036-.68.57-1.212 1.22-1.212s1.182.532 1.218 1.212v7.798H9.03v-.55zm5.71 0V21.94c.037-.68.57-1.212 1.22-1.212s1.183.532 1.22 1.212v7.798h-2.44v-.55zm5.713 0V21.94c.036-.68.57-1.212 1.22-1.212s1.182.532 1.218 1.212v7.798h-2.438v-.55zm5.7 0v-6.243h1.522v6.794h-1.523v-.55zm1.536-7.345h-2.06c-.29 0-.526.247-.526.552v5.056h-1.164V21.9c-.057-1.277-1.053-2.276-2.268-2.276-1.214 0-2.21 1-2.266 2.276v5.548H18.22V21.9c-.057-1.277-1.053-2.276-2.267-2.276-1.215 0-2.21 1-2.267 2.276v5.548h-1.178V21.9c-.057-1.277-1.053-2.276-2.267-2.276s-2.21 1-2.26 2.276v5.548H6.92v-5.056c0-.305-.236-.55-.525-.55h-2.06V18.74H27.68v3.1zM19.49 11.3v1.17h-6.962V8.98h6.96v2.32zM3.81 13.573h6.622v.512h-6.62v-.512zm3.11 14.98h1.055v.633H6.92v-.634zm5.59 0h1.176v.633H12.51v-.634zm5.71 0h1.18v.633h-1.18v-.634zm5.713 0h1.165v.633h-1.165v-.634zM13.51 12.113h4.997c.29 0 .524-.248.524-.55V9.787c0-.305-.23-.552-.52-.552h-5c-.28 0-.52.246-.52.55v1.774c0 .3.24.55.53.55zm.525-1.773h3.948v.67h-3.948v-.67zM2.375 2.86c.234.217.53.335.84.335h3.367l-.004.064c0 .33.137.65.376.87.203.19.464.29.733.29h3.593c.612 0 1.11-.53 1.11-1.17 0-.65-.498-1.17-1.11-1.17h-.065l.02-.24c0-.74-.57-1.34-1.27-1.34h-6.75c-.307 0-.605.12-.84.33-.272.25-.43.62-.43 1s.158.75.432 1zm.695-1.18l.145-.058h6.75c.123 0 .222.105.222.235s-.1.234-.222.234c-.29 0-.525.25-.525.56h-.002c0 .31.235.55.525.55h1.317l.06.07-.06.07H7.687l-.04-.01-.02-.05.02-.05.04-.01h.002c.29 0 .52-.24.52-.55 0-.3-.24-.55-.53-.55H3.21l-.146-.05c-.03-.03-.077-.08-.077-.18s.05-.15.08-.17zm16.645 2.1h2.926c.29 0 .53-.246.53-.55 0-.306-.23-.552-.52-.552h-2.93c-.29 0-.52.246-.52.55 0 .305.24.552.53.552zm1.16-1.49h4.944c.28 0 .52-.246.52-.55 0-.305-.24-.552-.53-.552h-4.94c-.29 0-.53.247-.53.552 0 .304.23.55.52.55z" fill="#3A434E"/></g></svg>