<svg width="32" height="232" viewBox="0 0 32 232" xmlns="http://www.w3.org/2000/svg"><g fill="none"><path d="M17.09 121.006l.154.026c.128 0 .25-.053.342-.147.09-.093.142-.22.142-.354 0-.21-.134-.4-.33-.47l-.208-.02-.196.07-.09.08c-.092.1-.144.22-.144.36 0 .22.134.41.33.48zm-3.943 5.982c.067.035.142.053.217.053.075 0 .15-.01.216-.05l.128-.09c.162-.17.187-.43.06-.63-.048-.07-.113-.13-.188-.17-.114-.06-.25-.07-.37-.02l-.114.06c-.12.09-.2.22-.214.37-.015.15.037.3.14.41l.125.1zm-3.135-4.99l.466.263.255.49c.085.16.248.26.425.26s.34-.1.425-.26l.255-.48.466-.26c.155-.09.25-.25.25-.44 0-.18-.096-.35-.25-.44l-.466-.26-.255-.48c-.085-.16-.248-.26-.425-.26s-.34.1-.425.26l-.255.48-.466.27c-.155.09-.252.26-.252.44s.097.35.252.44zm16.695 28.02l-1.794-3.014c.183.03.384.046.61.046h.003c.267 0 .483-.223.483-.5 0-.112-.04-.216-.1-.3l-2.19-3.605c.24-.03.42-.238.42-.493 0-.112-.04-.216-.1-.3l-2.21-3.638c.06-.13.1-.275.11-.43l.23-6.666 3.3-3.877c.32-.37.32-.94 0-1.32l-4-4.68c-.36-.41-.97-.45-1.37-.09-.4.37-.44 1-.09 1.41l3.43 4.03-2.61 3.06h-.37v-.85c.35-.35.58-.84.58-1.38 0-1.05-.83-1.91-1.85-1.91-.83 0-1.53.57-1.77 1.34l-.14-.01c-.64 0-1.17.54-1.17 1.21 0 .67.53 1.21 1.17 1.21.2 0 .39-.05.56-.14v.54h-.7c-.13 0-.26.06-.34.15-.15.08-.27.19-.36.33l-6.12 6.64c-.37.4-.36 1.03.03 1.42.18.19.42.28.66.28.255 0 .51-.11.7-.31l4.63-5.03.163 4.68v.02l-4.76 3.21c-.18.12-.26.35-.2.56.06.22.25.36.464.36.143 0 .26.02.363.04l-4.57 3.08c-.18.12-.26.35-.2.56.06.22.25.36.463.36.42 0 .71.07.96.18l-3.56 2.45h-.04c-.44 0-.81.31-.93.73-.09.15-.1.348-.01.51.104.44.486.767.94.767.767 0 1.106.22 1.575.53.57.37 1.28.83 2.61.83 1.32 0 2.03-.46 2.6-.83.47-.305.81-.526 1.57-.526s1.105.22 1.574.525c.57.37 1.28.83 2.606.83 1.32 0 2.03-.46 2.6-.83.34-.22.614-.4 1.03-.48l.03-.01c.15-.025.318-.04.514-.04.35 0 .61.046.84.125l.03.01c.254.09.465.23.71.39.57.37 1.28.83 2.6.83.54 0 .97-.45.97-1 0-.43-.26-.79-.627-.938zm-8.698-.065c-.77 0-1.11-.22-1.58-.525-.57-.37-1.28-.832-2.61-.832-1.33 0-2.04.463-2.61.832-.36.23-.63.41-1.08.487l-.04.005c-.14.02-.29.033-.47.033-.33 0-.58-.04-.8-.11l-.03-.01c-.27-.096-.49-.237-.75-.404-.32-.21-.67-.44-1.15-.61l3.11-2.14c.38.2.85.36 1.56.36 1.002 0 1.53-.33 1.99-.61.402-.26.75-.47 1.49-.47.732 0 1.082.21 1.49.47.46.28.982.61 1.99.61s1.53-.33 1.99-.61l.3-.18c.3-.17.64-.29 1.19-.29.642 0 .99.16 1.34.37l.122.08-.087-.01 2.006 3.37c-.224-.1-.42-.22-.644-.37-.57-.37-1.28-.84-2.61-.84s-2.036.46-2.607.83c-.47.3-.81.52-1.574.52zm-.14-16.508l-.06-1.504.48.51.02.02.54.58c.18.2.49.2.68.01l.1-.1.5-.5.05-.05.5-.49-.19 5.35H18l-.132-3.8zm2.14-2.802h.25l-.01.313-1.04 1.03-.95-.995-.01-.14.01-.2h.09c.26 0 .48-.22.48-.5v-.86c.12.03.25.04.37.04l.3-.02v.85c0 .28.21.5.48.5zm-2.92 7.997l.58-.392h3.04l.3.5 1.51 2.485-.34-.156c-.18-.067-.4-.12-.66-.137l-.2-.006c-.72 0-1.1.24-1.41.432-.27.167-.47.288-.91.288s-.64-.12-.91-.288c-.31-.192-.7-.432-1.41-.432s-1.1.24-1.41.432c-.17.103-.3.188-.49.238l-.1.022-.33.028c-.21 0-.36-.027-.5-.072l-.11-.04-.32-.176-.08-.048-.15-.086 3.84-2.59zm-3.65 3.836c.19.082.42.146.72.168l.21.01c.71 0 1.1-.24 1.41-.433.12-.07.22-.14.34-.18.15-.06.32-.1.56-.1.25 0 .42.04.56.1.12.05.22.12.34.19.17.11.36.23.62.31.21.07.46.12.79.12.32 0 .57-.05.79-.12.25-.08.44-.2.61-.31.12-.07.22-.14.34-.19l.14-.05c.11-.03.25-.05.42-.05.26 0 .44.05.6.12l.31.18.11.07 2.17 3.58c-.16-.07-.3-.15-.45-.24l-.06-.03c-.226-.14-.47-.29-.776-.4-.194-.07-.413-.13-.67-.16-.164-.02-.344-.03-.543-.03-1 0-1.522.32-1.99.61-.4.25-.75.47-1.49.47-.73 0-1.08-.22-1.49-.47-.46-.29-.98-.61-1.99-.61s-1.52.32-1.99.61l-.29.18c-.31.17-.64.29-1.197.29-.215 0-.4-.02-.56-.05-.22-.04-.403-.114-.57-.203l-.337-.192-.02-.015-.11-.064c-.18-.11-.37-.22-.59-.31l4.04-2.726z" fill="#206FAC"/><path d="M17.09 81.006l.154.026c.128 0 .25-.053.342-.147.09-.093.142-.22.142-.354 0-.21-.134-.4-.33-.47l-.208-.02-.196.07-.09.08c-.092.1-.144.22-.144.36 0 .22.134.41.33.48zm-3.943 5.982c.067.035.142.053.217.053.075 0 .15-.01.216-.05l.128-.09c.162-.17.187-.43.06-.63-.048-.07-.113-.13-.188-.17-.114-.06-.25-.07-.37-.02l-.114.06c-.12.09-.2.22-.214.37-.015.15.037.3.14.41l.125.1zm-3.135-4.99l.466.263.255.49c.085.16.248.26.425.26s.34-.1.425-.26l.255-.48.466-.26c.155-.09.25-.25.25-.44 0-.18-.096-.35-.25-.44l-.466-.26-.255-.48c-.085-.16-.248-.26-.425-.26s-.34.1-.425.26l-.255.48-.466.27c-.155.09-.252.26-.252.44s.097.35.252.44zm16.695 28.02l-1.794-3.014c.183.03.384.046.61.046h.003c.267 0 .483-.223.483-.5 0-.112-.04-.216-.1-.3l-2.19-3.605c.24-.03.42-.238.42-.493 0-.112-.04-.216-.1-.3l-2.21-3.638c.06-.13.1-.275.11-.43l.23-6.666 3.3-3.877c.32-.37.32-.94 0-1.32l-4-4.68c-.36-.41-.97-.45-1.37-.09-.4.37-.44 1-.09 1.41l3.43 4.03-2.61 3.06h-.37v-.85c.35-.35.58-.84.58-1.38 0-1.05-.83-1.91-1.85-1.91-.83 0-1.53.56-1.77 1.34l-.14-.01c-.64 0-1.17.54-1.17 1.21 0 .67.53 1.21 1.17 1.21.2 0 .39-.05.56-.14v.54h-.7c-.13 0-.26.06-.34.15-.15.08-.27.19-.36.33l-6.11 6.64c-.37.4-.36 1.03.03 1.42.19.19.43.28.66.28.25 0 .51-.11.7-.31l4.63-5.03.16 4.68v.02l-4.76 3.21c-.18.12-.266.35-.2.56.06.21.25.36.46.36.14 0 .26.01.36.04l-4.57 3.08c-.18.12-.26.35-.2.56.06.21.25.36.465.36.42 0 .71.07.96.18l-3.56 2.45h-.04c-.44 0-.81.31-.93.73-.09.15-.1.348-.01.51.102.44.484.767.94.767.77 0 1.104.22 1.573.53.57.37 1.28.83 2.603.83 1.32 0 2.03-.46 2.6-.83.47-.306.81-.527 1.57-.527s1.11.22 1.58.53c.57.37 1.28.83 2.604.83s2.037-.46 2.607-.83c.34-.22.61-.4 1.03-.48l.03-.01c.15-.026.318-.04.51-.04.35 0 .61.045.84.124l.03.01c.254.096.465.23.71.39.57.37 1.28.83 2.6.83.536 0 .97-.445.97-1 0-.424-.26-.79-.623-.93zm-8.698-.065c-.77 0-1.11-.22-1.58-.525-.57-.37-1.28-.832-2.61-.832-1.33 0-2.04.463-2.61.832-.36.23-.63.41-1.08.487l-.04.005c-.14.02-.29.033-.47.033-.33 0-.58-.04-.8-.11l-.03-.01c-.27-.096-.49-.237-.75-.404-.32-.21-.67-.44-1.15-.61l3.11-2.14c.38.2.85.36 1.56.36 1.002 0 1.53-.33 1.99-.61.402-.26.75-.47 1.49-.47.732 0 1.082.21 1.49.47.46.28.982.61 1.99.61s1.53-.33 1.99-.61l.3-.18c.3-.17.64-.29 1.19-.29.642 0 .99.16 1.34.37l.122.08-.087-.01 2.006 3.37c-.224-.1-.42-.22-.644-.37-.57-.37-1.28-.84-2.61-.84s-2.036.46-2.607.83c-.47.3-.81.52-1.574.52zm-.14-16.508l-.06-1.504.48.51.02.02.54.58c.18.2.49.2.68.01l.1-.1.5-.5.05-.05.5-.49-.19 5.35H18l-.132-3.8zm2.14-2.802h.25l-.01.313-1.04 1.03-.95-.995-.01-.14.01-.2h.09c.26 0 .48-.22.48-.5v-.86c.12.03.25.04.37.04l.3-.02v.85c0 .28.21.5.48.5zm-2.92 7.997l.58-.392h3.04l.3.5 1.51 2.485-.34-.156c-.18-.067-.4-.12-.66-.137l-.2-.006c-.72 0-1.1.24-1.41.432-.27.167-.47.288-.91.288s-.64-.12-.91-.288c-.31-.192-.7-.432-1.41-.432s-1.1.24-1.41.432c-.17.103-.3.188-.49.238l-.1.022-.33.028c-.21 0-.36-.027-.5-.072l-.11-.04-.32-.176-.08-.048-.15-.086 3.84-2.59zm-3.65 3.836c.19.082.42.146.72.168l.21.01c.71 0 1.1-.24 1.41-.433.12-.07.22-.14.34-.18.15-.06.32-.1.56-.1.25 0 .42.04.56.1.12.05.22.12.34.19.17.11.36.23.62.31.21.07.46.12.79.12.32 0 .57-.05.79-.12.25-.08.44-.2.61-.31.12-.07.22-.14.34-.19l.14-.05c.11-.03.25-.05.42-.05.26 0 .44.05.6.12l.31.18.11.07 2.17 3.58c-.16-.07-.3-.15-.45-.24l-.06-.03c-.226-.14-.47-.29-.776-.4-.194-.07-.413-.13-.67-.16-.164-.02-.344-.03-.543-.03-1 0-1.522.32-1.99.61-.4.25-.75.47-1.49.47-.73 0-1.08-.22-1.49-.47-.46-.29-.98-.61-1.99-.61s-1.52.32-1.99.61l-.29.18c-.31.17-.64.29-1.197.29-.215 0-.4-.02-.56-.05-.22-.04-.403-.114-.57-.203l-.337-.192-.02-.015-.11-.064c-.18-.11-.37-.22-.59-.31l4.04-2.726z" fill="#fff"/><path d="M17.09 41.006l.154.026c.128 0 .25-.053.342-.147.09-.093.142-.22.142-.354 0-.21-.134-.4-.33-.47l-.208-.02-.196.07-.09.08c-.092.1-.144.22-.144.36 0 .22.134.41.33.48zm-3.943 5.982c.067.035.142.053.217.053.075 0 .15-.01.216-.05l.128-.09c.162-.17.187-.43.06-.63-.048-.07-.113-.13-.188-.17-.114-.06-.25-.07-.37-.02l-.114.06c-.12.09-.2.22-.214.37-.015.15.037.3.14.41l.125.1zm-3.135-4.99l.466.263.255.49c.085.16.248.26.425.26s.34-.1.425-.26l.255-.48.466-.26c.155-.09.25-.25.25-.44 0-.18-.096-.35-.25-.44l-.466-.26-.255-.48c-.085-.16-.248-.26-.425-.26s-.34.1-.425.26l-.255.48-.466.27c-.155.09-.252.26-.252.44s.097.35.252.44zm16.695 28.02l-1.794-3.014c.183.03.384.046.61.046h.003c.267 0 .483-.223.483-.5 0-.112-.04-.216-.1-.3l-2.19-3.605c.24-.03.42-.238.42-.493 0-.112-.04-.216-.1-.3l-2.21-3.638c.06-.13.1-.275.11-.43l.23-6.666 3.3-3.877c.32-.37.32-.94 0-1.32l-4-4.68c-.36-.41-.97-.45-1.37-.09-.4.37-.44 1-.09 1.41l3.43 4.03-2.61 3.06h-.37v-.85c.35-.35.58-.84.58-1.38 0-1.05-.83-1.91-1.85-1.91-.83 0-1.53.56-1.77 1.34l-.14-.01c-.64 0-1.17.54-1.17 1.21 0 .67.53 1.21 1.17 1.21.2 0 .39-.05.56-.14v.54h-.7c-.13 0-.26.06-.34.15-.15.08-.27.19-.36.33l-6.11 6.64c-.37.4-.36 1.03.03 1.42.19.19.43.28.66.28.25 0 .51-.11.7-.31l4.63-5.03.16 4.68v.02l-4.76 3.21c-.18.12-.266.35-.2.56.06.21.25.36.46.36.14 0 .26.01.36.04l-4.56 3.08c-.18.12-.26.35-.2.56.063.22.25.36.465.36.42 0 .71.07.96.18l-3.55 2.44h-.04c-.44 0-.813.31-.93.728-.09.15-.1.346-.01.51.103.437.485.765.94.765.766 0 1.105.22 1.574.528.57.37 1.28.83 2.605.83 1.32 0 2.03-.46 2.6-.83.47-.3.81-.52 1.57-.52s1.1.22 1.57.525c.57.37 1.28.83 2.6.83s2.03-.46 2.6-.83c.34-.22.61-.4 1.03-.48l.03-.006c.15-.027.32-.04.51-.04.35 0 .61.045.835.124l.03.01c.25.09.464.23.71.384.57.37 1.28.83 2.6.83.536 0 .97-.444.97-.996 0-.43-.26-.79-.626-.94zm-8.698-.065c-.77 0-1.11-.22-1.58-.525-.57-.37-1.28-.832-2.61-.832-1.33 0-2.04.463-2.61.832-.36.23-.63.41-1.08.487l-.04.005c-.14.02-.29.033-.47.033-.33 0-.58-.04-.8-.11l-.03-.01c-.27-.096-.49-.237-.75-.404-.32-.21-.67-.44-1.15-.61L10 66.68c.38.2.85.36 1.567.36 1.006 0 1.53-.33 1.99-.61.406-.26.755-.47 1.49-.47.736 0 1.086.21 1.49.47.46.28.986.61 1.99.61s1.53-.33 1.99-.61l.3-.18c.304-.17.64-.29 1.19-.29.646 0 .994.16 1.343.37l.124.08-.087-.01 2.006 3.37c-.224-.1-.42-.22-.644-.37-.57-.37-1.28-.84-2.61-.84s-2.04.46-2.61.83c-.47.304-.81.524-1.58.524zm-.14-16.508l-.06-1.504.48.51.02.02.54.58c.18.2.49.2.68.01l.1-.1.5-.5.05-.05.5-.49-.19 5.35H18l-.132-3.8zm2.14-2.802h.25l-.01.313-1.04 1.03-.95-.995-.01-.14.01-.2h.09c.26 0 .48-.22.48-.5v-.86c.12.03.25.04.37.04l.3-.02v.85c0 .28.21.5.48.5zm-2.92 7.997l.58-.392h3.04l.3.5 1.51 2.485-.34-.156c-.18-.067-.4-.12-.66-.137l-.2-.006c-.72 0-1.1.24-1.41.432-.27.167-.47.288-.91.288s-.64-.12-.91-.288c-.31-.192-.7-.432-1.41-.432s-1.1.24-1.41.432c-.17.103-.3.188-.49.238l-.1.022-.33.028c-.21 0-.36-.027-.5-.072l-.11-.04-.32-.176-.08-.048-.15-.086 3.84-2.59zm-3.65 3.836c.19.082.42.146.72.168l.21.01c.71 0 1.1-.24 1.41-.433.12-.07.22-.14.34-.18.15-.06.32-.1.56-.1.25 0 .42.04.56.1.12.05.22.12.34.19.17.11.36.23.62.31.21.07.46.12.79.12.32 0 .57-.05.79-.12.25-.08.44-.2.61-.31.12-.07.22-.14.34-.19l.14-.05c.11-.03.25-.05.42-.05.26 0 .44.05.6.12l.31.18.11.07 2.17 3.58c-.16-.07-.3-.15-.45-.24l-.04-.04c-.23-.14-.47-.29-.78-.4-.2-.07-.42-.13-.67-.16-.17-.02-.35-.03-.55-.03-1 0-1.525.327-1.99.61-.4.25-.75.47-1.49.47-.733 0-1.08-.22-1.49-.47-.46-.283-.98-.61-1.99-.61s-1.523.327-1.99.61l-.294.18c-.308.17-.64.29-1.196.29-.21 0-.4-.02-.56-.05-.22-.04-.4-.113-.57-.202l-.333-.192-.02-.01-.11-.06c-.18-.11-.37-.22-.592-.31l4.04-2.72z" fill="#67737B"/><path d="M17.09 1.006l.154.026c.128 0 .25-.053.342-.147.09-.093.142-.22.142-.354 0-.21-.134-.4-.33-.47L17.19.04l-.196.07-.09.073c-.094.09-.144.22-.144.354 0 .215.134.406.33.474zm-3.943 5.982c.067.035.142.053.217.053.075 0 .15-.01.216-.05l.128-.09c.162-.17.187-.43.06-.63-.048-.07-.113-.13-.188-.17-.114-.06-.25-.07-.37-.02l-.114.06c-.12.09-.2.22-.214.37-.015.15.037.3.14.41l.125.1zm-3.135-4.99l.466.263.255.49c.085.16.248.26.425.26s.34-.1.425-.26l.255-.48.466-.26c.155-.09.25-.25.25-.44 0-.18-.096-.35-.25-.44l-.466-.26-.255-.48c-.085-.16-.248-.26-.425-.26s-.34.1-.425.26l-.255.48-.466.27c-.155.09-.252.26-.252.44s.097.35.252.44zm16.695 28.02l-1.794-3.014c.183.03.384.046.61.046h.003c.267 0 .483-.223.483-.5 0-.112-.04-.216-.1-.3l-2.19-3.605c.24-.03.42-.238.42-.493 0-.112-.04-.216-.1-.3l-2.21-3.638c.06-.13.1-.275.11-.43l.23-6.666 3.31-3.878c.32-.377.32-.943 0-1.32l-3.99-4.683c-.36-.414-.97-.454-1.37-.09-.4.366-.44.997-.09 1.412l3.43 4.02-2.61 3.06h-.37v-.85c.35-.35.58-.84.58-1.39 0-1.05-.83-1.91-1.85-1.91-.83 0-1.53.56-1.77 1.34l-.14-.01c-.65 0-1.17.54-1.17 1.21 0 .66.52 1.2 1.17 1.2.2 0 .39-.06.56-.15v.54h-.7c-.14 0-.26.05-.35.15-.15.07-.27.19-.36.32l-6.12 6.64c-.37.4-.36 1.03.03 1.41.19.18.43.27.66.27.25 0 .51-.1.7-.31l4.63-5.02.16 4.67v.02L11.77 21c-.18.12-.26.35-.2.56.06.214.25.36.465.36.145 0 .26.013.365.035l-4.57 3.09c-.18.12-.26.35-.2.56.06.21.25.36.464.36.42 0 .71.07.96.175l-3.56 2.45h-.04c-.44 0-.81.307-.93.725-.09.15-.1.348-.01.51.103.44.485.767.94.767.766 0 1.105.22 1.574.52.57.37 1.28.83 2.604.83 1.32 0 2.03-.46 2.6-.83.47-.304.81-.525 1.572-.525s1.103.22 1.572.524c.57.37 1.28.83 2.6.83 1.323 0 2.034-.46 2.604-.83.34-.22.612-.39 1.03-.47h.03c.15-.02.32-.04.513-.04.35 0 .61.05.835.13l.03.01c.25.1.46.23.705.39.57.37 1.28.83 2.606.83.53 0 .97-.44.97-.99 0-.42-.26-.79-.63-.93zm-8.698-.065c-.77 0-1.11-.22-1.58-.525-.57-.37-1.28-.832-2.61-.832-1.33 0-2.04.463-2.61.832-.36.23-.63.41-1.08.487l-.04.005c-.14.02-.29.033-.47.033-.33 0-.58-.04-.8-.11l-.03-.01c-.27-.096-.49-.237-.75-.404-.32-.21-.67-.44-1.15-.61L10 26.68c.38.2.85.36 1.567.36 1.006 0 1.53-.33 1.99-.61.406-.26.755-.47 1.49-.47.736 0 1.086.21 1.49.47.46.28.986.61 1.99.61s1.53-.33 1.99-.61l.3-.18c.304-.17.64-.29 1.19-.29.646 0 .994.16 1.343.37l.124.08-.087-.01 2.006 3.37c-.224-.1-.42-.22-.644-.37-.57-.37-1.28-.84-2.61-.84s-2.04.46-2.61.83c-.47.304-.81.524-1.58.524zm-.14-16.508l-.06-1.504.48.51.02.02.54.58c.18.2.49.2.68.01l.1-.1.5-.5.05-.05.5-.49-.19 5.35H18l-.132-3.8zm2.14-2.802h.25l-.01.313-1.04 1.03-.95-.995-.01-.14.01-.2h.09c.26 0 .48-.22.48-.5v-.87c.12.03.25.04.37.04l.3-.02v.85c0 .28.21.5.48.5zm-2.92 7.997l.58-.392h3.04l.3.5 1.51 2.485-.34-.156c-.18-.067-.4-.12-.66-.137l-.2-.006c-.72 0-1.1.24-1.41.432-.27.167-.47.288-.91.288s-.64-.12-.91-.288c-.31-.192-.7-.432-1.41-.432s-1.1.24-1.41.432c-.17.103-.3.188-.49.238l-.1.022-.33.028c-.21 0-.36-.027-.5-.072l-.11-.04-.32-.176-.08-.048-.15-.086 3.84-2.59zm-3.65 3.836c.19.082.42.146.72.168l.21.01c.71 0 1.1-.24 1.41-.433.12-.07.22-.14.34-.18.15-.06.32-.1.56-.1.25 0 .42.04.56.1.12.05.22.12.34.19.17.11.36.23.62.31.21.07.46.12.79.12.32 0 .57-.05.79-.12.25-.08.44-.2.61-.31.12-.07.22-.14.34-.19l.14-.05c.11-.03.25-.05.42-.05.26 0 .44.05.6.12l.31.18.11.07 2.17 3.58c-.16-.07-.3-.15-.45-.24l-.04-.04c-.23-.14-.47-.29-.78-.4-.2-.07-.42-.13-.67-.16-.17-.02-.35-.03-.55-.03-1 0-1.525.327-1.99.61-.4.25-.75.47-1.49.47-.733 0-1.08-.22-1.49-.47-.46-.283-.98-.61-1.99-.61s-1.523.327-1.99.61l-.294.18c-.308.17-.64.29-1.196.29-.21 0-.4-.02-.56-.05-.22-.04-.4-.113-.57-.202l-.333-.192-.02-.01-.11-.06c-.18-.11-.37-.22-.592-.31l4.04-2.72z" fill="#3A434E"/></g></svg>