<svg width="32" height="232" viewBox="0 0 32 232" xmlns="http://www.w3.org/2000/svg"><g fill="none"><path d="M26.373 149.968v-4.866c0-.257-.098-.497-.262-.68-.02-.774-.04-1.588-.08-2.42v-.187l-.01-.115c-.02-.616-.04-1.24-.07-1.862-.13-3.102-.3-5.577-.5-7.356-.22-2.01-.45-3.08-.82-3.566v-1.8l.1-.212.29-.183c.19-.11.3-.32.3-.55 0-.22-.11-.43-.3-.55l-.29-.18-.16-.34c-.1-.22-.33-.36-.57-.36-.24 0-.46.15-.57.37l-.16.35-.29.19c-.19.12-.3.33-.3.56 0 .23.12.43.31.55l.29.19.1.22v1.74c-.39.46-.63 1.53-.85 3.62-.1.93-.19 2.04-.27 3.336-.14-2.74-.31-4.99-.5-6.69-.26-2.406-.54-3.66-.98-4.2v-1.85l.21-.43.488-.305c.184-.12.3-.33.3-.554 0-.22-.116-.43-.3-.55l-.487-.304-.27-.57c-.11-.22-.33-.36-.57-.36-.24 0-.467.14-.57.364l-.27.56-.486.31c-.19.112-.3.32-.3.55 0 .222.11.43.3.55l.48.303.205.43v1.79c-.47.5-.757 1.76-1.03 4.256-.224 2.05-.415 4.88-.57 8.415l-.306-.14c-.1-2.02-.22-3.662-.357-4.89-.17-1.533-.345-2.5-.72-2.935.15-.14.247-.324.27-.54.027-.24-.043-.473-.19-.65-.2-.2-.423-.293-.65-.293-.19 0-.37.06-.52.184-.164.13-.27.31-.3.528-.036.24.034.49.19.68l.064.07c-.39.425-.57 1.4-.74 2.96-.135 1.23-.25 2.88-.35 4.91l-.28.138c-.16-3.54-.35-6.38-.57-8.43-.27-2.47-.556-3.73-1.02-4.24v-1.81l.21-.437.48-.3c.19-.12.3-.33.3-.55 0-.22-.11-.43-.3-.55l-.484-.3-.27-.57c-.11-.23-.33-.37-.57-.37-.242 0-.464.14-.57.36l-.27.568-.483.3c-.182.12-.3.328-.3.55 0 .23.118.44.3.557l.488.307.207.44v1.827c-.45.53-.73 1.78-1 4.22-.19 1.707-.36 3.95-.502 6.69-.085-1.29-.18-2.404-.277-3.33-.228-2.065-.46-3.14-.848-3.605v-1.39l.1-.214.294-.184c.187-.12.3-.33.3-.55 0-.23-.113-.44-.3-.56l-.29-.18-.165-.346c-.11-.22-.33-.36-.57-.36-.245 0-.467.14-.57.364l-.17.35-.29.18c-.18.12-.3.33-.3.555 0 .22.12.43.3.55l.3.18.1.215v1.41c-.375.48-.61 1.55-.83 3.58-.194 1.78-.363 4.26-.5 7.36l-.077 1.86-.01.117v.19c-.03.83-.056 1.643-.08 2.42-.16.18-.26.42-.26.68V150H3.47c-.54 0-.974.443-.974 1 0 .55.432 1 .97 1h24.89c.54 0 .978-.45.978-1s-.435-1-.974-1h-1.99zm-12.178-11.083l1.295-.608.452-.213.39.184 1.297.612.18.085-.06 1.428-.07-.03-.18-.068-1.12-.526-.05-.03c-.26-.13-.56-.13-.82 0l-.11.05-.71.33c-.2.04-.39.1-.58.17l-.06.02-.05-1.35.16-.08zm10.227 10.972H23.02l-.007-.045c.012-.91.04-2.63.092-4.694l1.316.622v4.116zm-2.6.56h-2.505l-.005-.1-.023-.35-.01-.11c-.07-.963-.2-2.397-.42-3.87l-.04-.24c-.19-1.165-.4-2.145-.64-2.948-.1-.34-.21-.64-.32-.91.38.24.73.55 1.07.94.14.16.27.33.4.51.51.72.97 1.62 1.38 2.71.26.71.47 1.43.64 2.09.16.67.28 1.28.37 1.77v.04l.06.35.01.1zm-4.298 0H13.79l.006-.1.02-.35c.048-.735.127-1.76.256-2.858.046-.39.096-.78.155-1.17l.013-.09c.293-1.93.647-3.11.965-3.78l.162-.31c.204-.35.383-.48.506-.49h.03c.137.01.337.18.565.59l.072.13c.335.67.72 1.88 1.04 3.92l.02.13c.054.36.103.72.147 1.07.134 1.08.22 2.09.272 2.81l.02.35v.1h-.53zm-7.42 0h-.1l.015-.1.05-.35.02-.17c.08-.528.2-1.18.38-1.886.14-.58.32-1.21.54-1.84.36-1.03.78-1.91 1.26-2.61.19-.29.4-.55.61-.79.32-.35.67-.64 1.04-.86-.13.31-.25.66-.36 1.04-.23.8-.43 1.76-.6 2.91l-.01.02c-.23 1.55-.35 3.08-.42 4.09l-.01.11-.02.35-.01.1h-2.4zm-1.278-.722l-.024.162H7.42v-4.115l1.316-.62c.05 1.977.078 3.638.09 4.573zm15.938-5.99l-1.596-.756.048-1.45 1.548.73v1.47zm-16.09-.75l-1.597.75v-1.473l1.547-.728.05 1.45zm12.488-2.426l.05 1.49-2.21-1.05.053-1.45 2.107.99zm-8.325.46l-2.21 1.04.05-1.5 2.108-.99.05 1.45zM23.97 131c.22 1.348.51 4.08.74 9.624l.002.152-1.444-.684c.215-5.187.483-7.788.7-9.092zm-3.897-4.327c.286 1.31.696 4.462 1.015 12.02l.015.377-1.995-.94c.3-7.15.69-10.176.967-11.455zm-4.025 2.27l-.068.125-.074.02-.064-.022.192-.205.01.08zm-.196-.132l.076-.03.093.06.01.01-.21.19-.03-.09.08-.12zm.05 3.47c.115.95.24 2.37.355 4.5l-.053-.02c-.168-.08-.362-.08-.53 0l-.12.06c.112-2.15.235-3.58.347-4.53zm-5.154 6.42c.32-7.56.73-10.71 1.015-12.02.277 1.28.666 4.31.966 11.47l-2 .94.01-.38zm-3.617 1.93c.23-5.54.52-8.27.74-9.62.22 1.31.49 3.91.7 9.1l-1.44.68.01-.15z" fill="#206FAC"/><path d="M26.373 109.968v-4.866c0-.257-.098-.497-.262-.68-.02-.774-.04-1.588-.08-2.42v-.187l-.01-.115c-.02-.616-.04-1.24-.07-1.862-.13-3.102-.3-5.577-.5-7.356-.22-2.01-.45-3.08-.82-3.566v-1.8l.1-.212.29-.183c.19-.11.3-.32.3-.55 0-.22-.11-.43-.3-.55l-.29-.18-.16-.34c-.1-.22-.33-.36-.57-.36-.24 0-.46.15-.57.37l-.16.35-.29.19c-.19.12-.3.33-.3.56 0 .23.12.43.31.55l.29.19.1.22v1.74c-.39.46-.63 1.53-.85 3.62-.1.93-.19 2.04-.27 3.336-.14-2.74-.31-4.99-.5-6.69-.26-2.406-.54-3.66-.98-4.2V83.1l.21-.432.488-.304c.184-.12.3-.326.3-.55 0-.223-.116-.43-.3-.55l-.487-.304-.27-.57c-.11-.22-.33-.362-.57-.362-.24 0-.467.145-.57.37l-.27.565-.486.302c-.19.12-.3.33-.3.55 0 .23.11.438.3.557l.48.302.205.432v1.79c-.47.498-.757 1.757-1.03 4.255-.224 2.05-.415 4.88-.57 8.42l-.306-.14c-.1-2.02-.22-3.66-.357-4.89-.17-1.54-.345-2.5-.72-2.94.15-.13.247-.32.27-.53.027-.24-.043-.47-.19-.65-.2-.2-.423-.29-.65-.29-.19 0-.37.07-.52.19-.164.13-.27.31-.3.53-.036.24.034.49.19.68l.064.07c-.39.43-.57 1.4-.74 2.97-.135 1.23-.25 2.88-.35 4.914l-.28.13c-.16-3.54-.35-6.38-.57-8.43-.27-2.47-.556-3.73-1.02-4.24V83.1l.21-.432.48-.304c.19-.115.3-.325.3-.55 0-.22-.11-.43-.3-.55l-.484-.3-.27-.57c-.11-.228-.33-.37-.57-.37-.242 0-.464.142-.57.366l-.27.565-.483.306c-.182.12-.3.33-.3.55 0 .23.118.44.3.56l.488.31.207.43v1.83c-.45.53-.73 1.78-1 4.22-.19 1.71-.36 3.95-.502 6.69-.085-1.29-.18-2.4-.277-3.33-.228-2.06-.46-3.14-.848-3.6v-1.4l.1-.21.294-.18c.187-.12.3-.323.3-.55 0-.22-.113-.43-.3-.55l-.29-.18-.165-.35c-.11-.23-.33-.37-.57-.37-.245 0-.467.143-.57.366l-.17.343-.29.186c-.18.114-.3.323-.3.55 0 .223.12.432.3.55l.3.183.1.215v1.41c-.375.473-.61 1.544-.83 3.58-.194 1.78-.363 4.253-.5 7.355l-.077 1.86-.01.115v.19c-.03.83-.056 1.64-.08 2.41-.16.18-.26.43-.26.68v4.87H3.47c-.54 0-.974.45-.974 1s.432 1 .97 1h24.89c.54 0 .978-.443.978-1s-.435-1-.974-1h-1.99zM14.195 98.885l1.295-.608.452-.213.39.184 1.297.612.18.085-.06 1.428-.07-.03-.18-.068-1.12-.526-.05-.03c-.26-.13-.56-.13-.82 0l-.11.05-.71.33c-.2.04-.39.1-.58.17l-.06.02-.05-1.35.16-.08zm10.227 10.972H23.02l-.007-.045c.012-.91.04-2.63.092-4.694l1.316.622v4.116zm-2.6.56h-2.505l-.005-.1-.023-.35-.01-.11c-.07-.963-.2-2.397-.42-3.87l-.04-.24c-.19-1.165-.4-2.145-.64-2.948-.1-.34-.21-.64-.32-.91.38.24.73.55 1.07.94.14.16.27.33.4.51.51.72.97 1.62 1.38 2.71.26.71.47 1.43.64 2.09.16.67.28 1.28.37 1.77v.04l.06.35.01.1zm-4.298 0H13.79l.006-.1.02-.35c.048-.735.127-1.76.256-2.858.046-.39.096-.78.155-1.17l.013-.09c.293-1.93.647-3.11.965-3.78l.162-.31c.204-.35.383-.48.506-.49h.03c.137.01.337.18.565.59l.072.13c.335.67.72 1.88 1.04 3.92l.02.13c.054.36.103.72.147 1.07.134 1.08.22 2.09.272 2.81l.02.35v.1h-.53zm-7.42 0h-.1l.015-.1.05-.35.02-.17c.08-.528.2-1.18.38-1.886.14-.58.32-1.21.54-1.84.36-1.03.78-1.91 1.26-2.61.19-.29.4-.55.61-.79.32-.35.67-.64 1.04-.86-.13.31-.25.66-.36 1.04-.23.8-.43 1.76-.6 2.91l-.01.02c-.23 1.55-.35 3.08-.42 4.09l-.01.11-.02.35-.01.1h-2.4zm-1.278-.722l-.024.162H7.42v-4.115l1.316-.62c.05 1.977.078 3.638.09 4.573zm15.938-5.99l-1.596-.756.048-1.45 1.548.73v1.47zm-16.09-.75l-1.597.75v-1.473l1.547-.728.05 1.45zm12.488-2.426l.05 1.49-2.21-1.05.053-1.45 2.107.99zm-8.325.46l-2.21 1.04.05-1.5 2.108-.99.05 1.45zM23.97 91c.22 1.348.51 4.08.74 9.624l.002.152-1.444-.684c.215-5.187.483-7.788.7-9.092zm-3.897-4.327c.286 1.31.696 4.462 1.015 12.02l.015.377-1.995-.94c.3-7.15.69-10.176.967-11.455zm-4.025 2.27l-.068.125-.074.02-.064-.022.192-.205.01.08zm-.196-.132l.076-.03.093.06.01.01-.21.19-.03-.09.08-.12zm.05 3.47c.115.95.24 2.37.355 4.5l-.053-.02c-.168-.08-.362-.08-.53 0l-.12.06c.112-2.15.235-3.58.347-4.53zm-5.154 6.42c.32-7.56.73-10.71 1.015-12.02.277 1.28.666 4.31.966 11.47l-2 .94.01-.38zm-3.617 1.93c.23-5.54.52-8.27.74-9.62.22 1.31.49 3.91.7 9.1l-1.44.68.01-.15z" fill="#fff"/><path d="M26.373 69.968v-4.866c0-.257-.098-.497-.262-.68-.02-.774-.04-1.588-.08-2.42v-.187l-.01-.115c-.02-.616-.04-1.24-.07-1.862-.13-3.102-.3-5.577-.5-7.356-.22-2.01-.45-3.08-.82-3.566v-1.8l.1-.212.29-.183c.19-.11.3-.32.3-.55 0-.22-.11-.43-.3-.55l-.29-.18-.16-.34c-.1-.22-.33-.36-.57-.36-.24 0-.46.15-.57.37l-.16.35-.29.19c-.19.12-.3.33-.3.56 0 .23.12.43.31.55l.29.19.1.22v1.74c-.39.46-.63 1.53-.85 3.62-.1.93-.19 2.04-.27 3.336-.14-2.74-.31-4.99-.5-6.69-.26-2.406-.54-3.66-.98-4.2V43.1l.21-.432.488-.304c.184-.12.3-.326.3-.55 0-.223-.116-.43-.3-.55l-.487-.304-.27-.57c-.11-.22-.33-.362-.57-.362-.24 0-.467.145-.57.37l-.27.565-.486.302c-.19.12-.3.33-.3.55 0 .23.11.438.3.557l.48.302.205.432v1.79c-.47.498-.757 1.757-1.03 4.255-.224 2.05-.415 4.88-.57 8.42l-.306-.14c-.1-2.02-.22-3.66-.357-4.89-.17-1.54-.345-2.5-.72-2.94.15-.13.247-.32.27-.53.027-.24-.043-.47-.19-.65-.2-.2-.423-.29-.65-.29-.19 0-.37.07-.52.19-.164.13-.27.31-.3.53-.036.24.034.49.19.68l.064.07c-.39.43-.57 1.4-.74 2.97-.135 1.23-.25 2.88-.35 4.914l-.28.13c-.16-3.54-.35-6.38-.57-8.43-.27-2.47-.556-3.73-1.02-4.24V43.1l.21-.432.48-.304c.19-.115.3-.325.3-.55 0-.22-.11-.43-.3-.55l-.484-.3-.27-.57c-.11-.228-.33-.37-.57-.37-.242 0-.464.142-.57.366l-.27.565-.483.306c-.182.12-.3.33-.3.55 0 .23.118.44.3.56l.488.31.207.43v1.83c-.45.53-.73 1.78-1 4.22-.19 1.71-.36 3.95-.502 6.69-.085-1.29-.18-2.4-.277-3.33-.228-2.06-.46-3.14-.848-3.6v-1.4l.1-.21.294-.18c.187-.12.3-.323.3-.55 0-.22-.113-.43-.3-.55l-.29-.18-.165-.35c-.11-.23-.33-.37-.57-.37-.245 0-.467.143-.57.366l-.17.343-.29.186c-.18.114-.3.323-.3.55 0 .223.12.432.3.55l.3.183.1.215v1.41c-.375.473-.61 1.544-.83 3.58-.194 1.78-.363 4.253-.5 7.355l-.08 1.86-.01.116V62c-.03.83-.054 1.643-.08 2.417-.16.18-.26.424-.26.68v4.867H3.47c-.54 0-.974.446-.974.998 0 .55.432.998.97.998h24.89c.54 0 .978-.446.978-.997 0-.553-.435-1-.974-1h-1.99zM14.195 58.885l1.295-.608.452-.213.39.184 1.297.612.18.085-.06 1.428-.07-.03-.18-.068-1.12-.526-.05-.03c-.26-.13-.56-.13-.82 0l-.11.05-.71.33c-.2.04-.39.1-.58.17l-.06.02-.05-1.35.16-.08zm10.227 10.972H23.02l-.007-.045c.012-.91.04-2.63.092-4.694l1.316.622v4.116zm-2.6.56h-2.505l-.005-.1-.023-.35-.01-.11c-.07-.963-.2-2.397-.42-3.87l-.04-.24c-.19-1.165-.4-2.145-.64-2.948-.1-.34-.21-.64-.32-.91.38.24.73.55 1.07.94.14.16.27.33.4.51.51.72.97 1.62 1.38 2.71.26.71.47 1.43.64 2.09.16.67.28 1.28.37 1.77v.04l.06.35.01.1zm-4.298 0H13.79l.006-.1.02-.35c.048-.735.127-1.76.256-2.858.046-.39.096-.78.155-1.17l.013-.09c.293-1.93.647-3.11.965-3.78l.162-.31c.204-.35.383-.48.506-.49h.03c.137.01.337.18.565.59l.072.13c.335.67.72 1.88 1.04 3.92l.02.13c.054.36.103.72.147 1.07.134 1.08.22 2.09.272 2.81l.02.35v.1h-.53zm-7.42 0h-.1l.015-.1.05-.35.02-.17c.08-.528.2-1.18.38-1.886.14-.58.32-1.21.54-1.84.36-1.03.78-1.91 1.26-2.61.19-.29.4-.55.61-.79.32-.35.67-.64 1.04-.86-.13.31-.25.66-.36 1.04-.23.8-.43 1.76-.6 2.91l-.01.02c-.23 1.55-.35 3.08-.42 4.09l-.01.11-.02.35-.01.1h-2.4zm-1.278-.722l-.024.162H7.42v-4.115l1.316-.62c.05 1.977.078 3.638.09 4.573zm15.938-5.99l-1.596-.756.048-1.45 1.548.73v1.47zm-16.09-.75l-1.597.75v-1.473l1.547-.728.05 1.45zm12.488-2.426l.05 1.49-2.21-1.05.053-1.45 2.107.99zm-8.325.46l-2.21 1.04.05-1.5 2.108-.99.05 1.45zM23.97 51c.22 1.348.51 4.08.74 9.624l.002.152-1.444-.684c.215-5.187.483-7.788.7-9.092zm-3.897-4.327c.286 1.31.696 4.462 1.015 12.02l.015.377-1.995-.94c.3-7.15.69-10.176.967-11.455zm-4.025 2.27l-.068.125-.074.02-.064-.022.192-.205.01.08zm-.196-.132l.076-.03.093.06.01.01-.21.19-.03-.09.08-.12zm.05 3.47c.115.95.24 2.37.355 4.5l-.053-.02c-.168-.08-.362-.08-.53 0l-.12.06c.112-2.15.235-3.58.347-4.53zm-5.154 6.42c.32-7.56.73-10.71 1.015-12.02.277 1.28.666 4.31.966 11.47l-2 .94.01-.38zM7.13 60.63c.23-5.543.52-8.277.74-9.624.22 1.306.49 3.91.7 9.1l-1.44.68.008-.155z" fill="#67737B"/><path d="M26.373 29.968v-4.866c0-.257-.098-.497-.262-.68-.02-.774-.04-1.588-.08-2.42v-.187l-.01-.115c-.02-.616-.04-1.24-.07-1.862-.13-3.102-.3-5.577-.5-7.356-.22-2.01-.45-3.08-.82-3.566v-1.8l.1-.212.29-.183c.19-.11.3-.32.3-.55 0-.22-.11-.43-.3-.55l-.29-.18-.16-.34c-.1-.22-.33-.36-.57-.36-.24 0-.46.15-.57.37l-.16.35-.29.19c-.19.12-.3.33-.3.56 0 .23.12.43.31.55l.29.19.1.22V8.9c-.39.456-.63 1.53-.85 3.62-.1.924-.19 2.04-.27 3.33-.14-2.74-.31-4.985-.5-6.69-.26-2.403-.54-3.66-.98-4.195V3.08l.21-.433.488-.304c.184-.12.3-.328.3-.553 0-.222-.116-.43-.3-.55l-.49-.304-.27-.568C20.568.143 20.34 0 20.1 0s-.464.143-.57.367l-.27.568-.483.304c-.187.11-.3.32-.3.55 0 .22.113.43.3.55l.483.3.206.43v1.79c-.47.5-.757 1.75-1.03 4.25-.224 2.05-.415 4.88-.57 8.41l-.306-.15c-.1-2.02-.22-3.67-.355-4.89-.17-1.54-.347-2.51-.72-2.94.15-.14.245-.32.267-.54.023-.24-.047-.48-.194-.65-.198-.2-.423-.3-.65-.3-.19 0-.37.06-.52.19-.164.12-.27.3-.302.52-.034.24.036.49.19.68l.066.07c-.388.42-.566 1.4-.735 2.96-.134 1.23-.25 2.88-.347 4.91l-.284.13c-.155-3.54-.347-6.38-.57-8.43-.27-2.47-.553-3.73-1.014-4.24v-1.8l.206-.44.484-.304c.187-.12.3-.33.3-.557 0-.227-.113-.436-.3-.554l-.484-.3-.27-.565C12.223.14 12 0 11.758 0c-.242 0-.464.14-.57.363l-.27.566-.483.3c-.187.12-.3.33-.3.55 0 .22.113.43.3.55l.483.3.206.43V4.9c-.45.526-.73 1.78-1.002 4.217-.19 1.707-.358 3.95-.503 6.69-.09-1.29-.18-2.404-.28-3.33-.23-2.065-.46-3.14-.85-3.605V7.49l.1-.213.29-.184c.18-.118.3-.327.3-.552 0-.22-.12-.43-.3-.55l-.28-.18-.17-.34c-.11-.22-.33-.37-.57-.37-.25 0-.47.14-.57.37l-.17.35-.29.18c-.19.12-.3.33-.3.56 0 .23.11.44.3.56l.29.19.1.21v1.4c-.38.48-.61 1.55-.84 3.58-.2 1.78-.37 4.26-.51 7.36l-.06 1.84-.01.12V22c-.03.83-.06 1.645-.08 2.42-.17.18-.26.422-.26.68v4.865h-2c-.54 0-.98.444-.98.996 0 .55.43 1 .97 1h24.89c.54 0 .974-.44.974-1 0-.55-.435-.99-.974-.99h-1.99zM14.195 18.885l1.295-.608.452-.213.39.184 1.297.612.18.085-.06 1.428-.07-.03-.18-.068-1.12-.526-.05-.03c-.26-.13-.56-.13-.82 0l-.11.05-.71.33c-.2.04-.39.1-.58.17l-.06.02-.05-1.35.16-.08zm10.227 10.972H23.02l-.007-.045c.012-.91.04-2.63.092-4.694l1.316.622v4.116zm-2.6.56h-2.505l-.005-.1-.023-.35-.01-.11c-.07-.963-.2-2.397-.42-3.87l-.04-.24c-.19-1.165-.4-2.145-.64-2.948-.1-.34-.21-.64-.32-.91.38.24.73.55 1.07.94.14.16.27.33.4.51.51.72.97 1.62 1.38 2.71.26.71.47 1.43.64 2.09.16.67.28 1.28.37 1.77v.04l.06.35.01.1zm-4.298 0H13.79l.006-.1.02-.35c.048-.735.127-1.76.256-2.858.046-.39.096-.78.155-1.17l.013-.09c.293-1.93.647-3.11.965-3.78l.162-.31c.204-.35.383-.48.506-.49h.03c.137.01.337.18.565.59l.072.13c.335.67.72 1.88 1.04 3.92l.02.13c.054.36.103.72.147 1.07.134 1.08.22 2.09.272 2.81l.02.35v.1h-.53zm-7.42 0h-.1l.015-.1.05-.35.02-.17c.08-.528.2-1.18.38-1.886.14-.58.32-1.21.54-1.84.36-1.03.78-1.91 1.26-2.61.19-.29.4-.55.61-.79.32-.35.67-.64 1.04-.86-.13.31-.25.66-.36 1.04-.23.8-.43 1.76-.6 2.91l-.01.02c-.23 1.55-.35 3.08-.42 4.09l-.01.11-.02.35-.01.1h-2.4zm-1.278-.722l-.024.162H7.42v-4.115l1.316-.62c.05 1.977.078 3.638.09 4.573zm15.938-5.99l-1.596-.756.048-1.45 1.548.73v1.47zm-16.09-.75l-1.597.75v-1.473l1.547-.728.05 1.45zm12.488-2.426l.05 1.49-2.21-1.05.053-1.45 2.107.99zm-8.325.46l-2.21 1.04.05-1.5 2.108-.99.05 1.45zM23.97 11c.22 1.348.51 4.08.74 9.624l.002.152-1.444-.684c.215-5.187.483-7.788.7-9.092zm-3.897-4.327c.286 1.31.696 4.462 1.015 12.02l.015.377-1.995-.94c.3-7.15.69-10.176.967-11.455zm-4.025 2.27l-.068.125-.074.02-.064-.022.192-.205.01.08zm-.196-.132l.076-.03.093.06.01.01-.21.19-.03-.09.08-.12zm.05 3.47c.115.95.24 2.37.355 4.5l-.053-.02c-.168-.08-.362-.08-.53 0l-.12.06c.112-2.15.235-3.58.347-4.53zm-5.154 6.42c.32-7.56.73-10.71 1.015-12.02.277 1.28.666 4.31.966 11.47l-2 .94.01-.38zM7.13 20.63c.23-5.543.52-8.277.74-9.624.22 1.306.49 3.91.7 9.1l-1.44.68.008-.155z" fill="#373D43"/></g></svg>