<svg width="32" height="232" viewBox="0 0 32 232" xmlns="http://www.w3.org/2000/svg"><g fill="none">
		<path id="XMLID_1192_" fill="#3A444F" d="M30.8,13l-1.9-1.4c-0.1-0.1-0.2-0.1-0.4-0.1l-4,0.3c0,0,0,0,0,0
			c-2.1-1.3-8.6-5.3-11.7-5.3c-0.1,0-0.2,0-0.3,0c0,0,0,0,0,0c0,0,0,0,0,0c0,0-0.1,0-0.1,0c0-0.1,0-0.3,0-0.4c0-0.9-0.5-1.7-1.3-2.4
			c-0.8-0.7-2-1.1-3.2-1.1c-2,0-3.2,1.4-3.3,2.8C4.4,5.4,3.9,5.6,3.5,5.7C3,5.8,2.6,5.9,2.3,6C2.1,6.1,2,6.1,1.9,6.2
			C1.7,6.2,1.4,6.3,1.4,6.7c0,0.2,0.2,0.4,0.4,0.5c0,0,0.1,0,0.1,0c0.2,0,0.9,0,3.1-0.2C5.3,7.5,5.7,8,6.2,8.3c0,1,0.1,3.6,2,5.7
			c1.4,1.5,3.4,2.5,5.9,2.8l1.3,1.9l-0.9,7.5H11c-0.3,0-0.5,0.2-0.5,0.5c0,0.3,0.2,0.5,0.5,0.5h3.9c0.3,0,0.5-0.2,0.5-0.5l1-8.1
			c0-0.1,0-0.3-0.1-0.4L15.5,17c0.3,0,0.6,0,1,0c0,0,0.1,0,0.1,0c0.2,0,0.4,0,0.6,0c0.2,0,0.4,0,0.7,0l1.8,1.6l-0.1,7.8L16.5,27
			c-0.3,0.1-0.5,0.3-0.4,0.6c0.1,0.2,0.3,0.4,0.5,0.4c0,0,0.1,0,0.1,0l3.3-0.7c0.2-0.1,0.4-0.3,0.4-0.5l0.1-8.4
			c0-0.2-0.1-0.3-0.2-0.4l-1.3-1.2c2.3-0.5,4-1.7,5-2.7c0.5,0,0.9,0,1.4,0c1.4,0,4.7-0.2,4.9-0.2c0.2,0,0.4-0.2,0.5-0.4
			C31,13.3,31,13.1,30.8,13z M17.2,15.9c-3.1,0-4.9-1-5.9-1.8c-1.2-1-1.8-2.3-1.8-3.5c0-0.8,0.2-1.5,0.7-2c0,0,0,0,0,0c0,0,0,0,0,0
			c0.7,2.1,5.3,4.8,12.5,5.4C21.4,15,19.6,15.9,17.2,15.9z M14.7,11.1c-2.4-1.1-3.4-2.3-3.6-2.9c0,0,0-0.1,0-0.1
			c0-0.1,0-0.2,0.2-0.3c0.2-0.1,0.4-0.1,0.6-0.2c0.3-0.1,0.6-0.1,0.9-0.1c1.3,0,3.8,1,7.1,2.7c1.8,1,3.4,2,4.2,2.5
			c-0.1,0.1-0.2,0.2-0.3,0.3C20.4,12.9,17.2,12.2,14.7,11.1z M11.5,6c0,0.2-0.1,0.4-0.1,0.6c-0.2,0.1-0.4,0.1-0.5,0.2c0,0,0,0,0,0
			c0,0,0,0,0,0C10.5,6.8,10,6.6,9.5,6.2C8.6,5.5,8.2,4.7,8.2,3.6C10.1,3.7,11.5,4.9,11.5,6z M6.4,4.3c0.2-0.2,0.5-0.4,0.8-0.5
			c0,0.6,0.1,1.1,0.4,1.6L5.8,5.4C5.9,5,6.1,4.6,6.4,4.3z M6,6.5l2.1-0.1c0,0,0,0,0.1,0c0.5,0.5,1,0.9,1.6,1.2c0,0-0.1,0.1-0.1,0.1
			C9.2,7.7,8.8,7.8,8.3,7.8C7,7.8,6.3,7.2,6,6.5z M9,13.3c-1.4-1.6-1.7-3.6-1.7-4.6c0.3,0.1,0.7,0.1,1,0.1c0.2,0,0.3,0,0.5,0
			C8.5,9.4,8.4,10,8.4,10.6c0,1.2,0.4,2.4,1.3,3.4C9.4,13.8,9.2,13.6,9,13.3z M25.6,13.1c-0.1,0-0.3,0-0.4,0
			c0.1-0.1,0.1-0.1,0.1-0.1c0-0.1,0.1-0.1,0.1-0.2l3-0.2L29,13C27.9,13,26.4,13.1,25.6,13.1z"/>
		<path id="XMLID_1335_" fill="#67737C" d="M30.8,53l-1.9-1.4c-0.1-0.1-0.2-0.1-0.4-0.1l-4,0.3c0,0,0,0,0,0
			c-2.1-1.3-8.6-5.3-11.7-5.3c-0.1,0-0.2,0-0.3,0c0,0,0,0,0,0c0,0,0,0,0,0c0,0-0.1,0-0.1,0c0-0.1,0-0.3,0-0.4c0-0.9-0.5-1.7-1.3-2.4
			c-0.8-0.7-2-1.1-3.2-1.1c-2,0-3.2,1.4-3.3,2.8c-0.3,0.1-0.8,0.2-1.3,0.4C3,45.8,2.6,45.9,2.3,46c-0.2,0-0.3,0.1-0.4,0.1
			c-0.2,0.1-0.5,0.2-0.5,0.6c0,0.2,0.2,0.4,0.4,0.5c0,0,0.1,0,0.1,0c0.2,0,0.9,0,3.1-0.2c0.2,0.5,0.6,0.9,1.1,1.2c0,1,0.1,3.6,2,5.7
			c1.4,1.5,3.4,2.5,5.9,2.8l1.3,1.9l-0.9,7.5H11c-0.3,0-0.5,0.2-0.5,0.5c0,0.3,0.2,0.5,0.5,0.5h3.9c0.3,0,0.5-0.2,0.5-0.5l1-8.1
			c0-0.1,0-0.3-0.1-0.4L15.5,57c0.3,0,0.6,0,1,0c0,0,0.1,0,0.1,0c0.2,0,0.4,0,0.6,0c0.2,0,0.4,0,0.7,0l1.8,1.6l-0.1,7.8L16.5,67
			c-0.3,0.1-0.5,0.3-0.4,0.6c0.1,0.2,0.3,0.4,0.5,0.4c0,0,0.1,0,0.1,0l3.3-0.7c0.2-0.1,0.4-0.3,0.4-0.5l0.1-8.4
			c0-0.2-0.1-0.3-0.2-0.4l-1.3-1.2c2.3-0.5,4-1.7,5-2.7c0.5,0,0.9,0,1.4,0c1.4,0,4.7-0.2,4.9-0.2c0.2,0,0.4-0.2,0.5-0.4
			C31,53.3,31,53.1,30.8,53z M17.2,55.9c-3.1,0-4.9-1-5.9-1.8c-1.2-1-1.8-2.3-1.8-3.5c0-0.8,0.2-1.5,0.7-2c0,0,0,0,0,0c0,0,0,0,0,0
			c0.7,2.1,5.3,4.8,12.5,5.4C21.4,55,19.6,55.9,17.2,55.9z M14.7,51.1c-2.4-1.1-3.4-2.3-3.6-2.9c0,0,0-0.1,0-0.1
			c0-0.1,0-0.2,0.2-0.3c0.2-0.1,0.4-0.1,0.6-0.2c0.3-0.1,0.6-0.1,0.9-0.1c1.3,0,3.8,1,7.1,2.7c1.8,1,3.4,2,4.2,2.5
			c-0.1,0.1-0.2,0.2-0.3,0.3C20.4,52.9,17.2,52.2,14.7,51.1z M11.5,46c0,0.2-0.1,0.4-0.1,0.6c-0.2,0.1-0.4,0.1-0.5,0.2c0,0,0,0,0,0
			c0,0,0,0,0,0c-0.3-0.1-0.8-0.3-1.3-0.7c-0.9-0.7-1.3-1.5-1.3-2.5C10.1,43.7,11.5,44.9,11.5,46z M6.4,44.3c0.2-0.2,0.5-0.4,0.8-0.5
			c0,0.6,0.1,1.1,0.4,1.6l-1.7,0.1C5.9,45,6.1,44.6,6.4,44.3z M6,46.5l2.1-0.1c0,0,0,0,0.1,0c0.5,0.5,1,0.9,1.6,1.2
			c0,0-0.1,0.1-0.1,0.1c-0.4,0.1-0.8,0.1-1.3,0.1C7,47.8,6.3,47.2,6,46.5z M9,53.3c-1.4-1.6-1.7-3.6-1.7-4.6c0.3,0.1,0.7,0.1,1,0.1
			c0.2,0,0.3,0,0.5,0c-0.2,0.5-0.4,1.1-0.4,1.8c0,1.2,0.4,2.4,1.3,3.4C9.4,53.8,9.2,53.6,9,53.3z M25.6,53.1c-0.1,0-0.3,0-0.4,0
			c0.1-0.1,0.1-0.1,0.1-0.1c0-0.1,0.1-0.1,0.1-0.2l3-0.2L29,53C27.9,53,26.4,53.1,25.6,53.1z"/>
		<path id="XMLID_1529_" fill="#FFFFFF" d="M30.8,93l-1.9-1.4c-0.1-0.1-0.2-0.1-0.4-0.1l-4,0.3c0,0,0,0,0,0
			c-2.1-1.3-8.6-5.3-11.7-5.3c-0.1,0-0.2,0-0.3,0c0,0,0,0,0,0c0,0,0,0,0,0c0,0-0.1,0-0.1,0c0-0.1,0-0.3,0-0.4c0-0.9-0.5-1.7-1.3-2.4
			c-0.8-0.7-2-1.1-3.2-1.1c-2,0-3.2,1.4-3.3,2.8c-0.3,0.1-0.8,0.2-1.3,0.4C3,85.8,2.6,85.9,2.3,86c-0.2,0-0.3,0.1-0.4,0.1
			c-0.2,0.1-0.5,0.2-0.5,0.6c0,0.2,0.2,0.4,0.4,0.5c0,0,0.1,0,0.1,0c0.2,0,0.9,0,3.1-0.2c0.2,0.5,0.6,0.9,1.1,1.2c0,1,0.1,3.6,2,5.7
			c1.4,1.5,3.4,2.5,5.9,2.8l1.3,1.9l-0.9,7.5H11c-0.3,0-0.5,0.2-0.5,0.5c0,0.3,0.2,0.5,0.5,0.5h3.9c0.3,0,0.5-0.2,0.5-0.5l1-8.1
			c0-0.1,0-0.3-0.1-0.4L15.5,97c0.3,0,0.6,0,1,0c0,0,0.1,0,0.1,0c0.2,0,0.4,0,0.6,0c0.2,0,0.4,0,0.7,0l1.8,1.6l-0.1,7.8l-2.9,0.6
			c-0.3,0.1-0.5,0.3-0.4,0.6c0.1,0.2,0.3,0.4,0.5,0.4c0,0,0.1,0,0.1,0l3.3-0.7c0.2-0.1,0.4-0.3,0.4-0.5l0.1-8.4
			c0-0.2-0.1-0.3-0.2-0.4l-1.3-1.2c2.3-0.5,4-1.7,5-2.7c0.5,0,0.9,0,1.4,0c1.4,0,4.7-0.2,4.9-0.2c0.2,0,0.4-0.2,0.5-0.4
			C31,93.3,31,93.1,30.8,93z M17.2,95.9c-3.1,0-4.9-1-5.9-1.8c-1.2-1-1.8-2.3-1.8-3.5c0-0.8,0.2-1.5,0.7-2c0,0,0,0,0,0c0,0,0,0,0,0
			c0.7,2.1,5.3,4.8,12.5,5.4C21.4,95,19.6,95.9,17.2,95.9z M14.7,91.1c-2.4-1.1-3.4-2.3-3.6-2.9c0,0,0-0.1,0-0.1
			c0-0.1,0-0.2,0.2-0.3c0.2-0.1,0.4-0.1,0.6-0.2c0.3-0.1,0.6-0.1,0.9-0.1c1.3,0,3.8,1,7.1,2.7c1.8,1,3.4,2,4.2,2.5
			c-0.1,0.1-0.2,0.2-0.3,0.3C20.4,92.9,17.2,92.2,14.7,91.1z M11.5,86c0,0.2-0.1,0.4-0.1,0.6c-0.2,0.1-0.4,0.1-0.5,0.2c0,0,0,0,0,0
			c0,0,0,0,0,0c-0.3-0.1-0.8-0.3-1.3-0.7c-0.9-0.7-1.3-1.5-1.3-2.5C10.1,83.7,11.5,84.9,11.5,86z M6.4,84.3c0.2-0.2,0.5-0.4,0.8-0.5
			c0,0.6,0.1,1.1,0.4,1.6l-1.7,0.1C5.9,85,6.1,84.6,6.4,84.3z M6,86.5l2.1-0.1c0,0,0,0,0.1,0c0.5,0.5,1,0.9,1.6,1.2
			c0,0-0.1,0.1-0.1,0.1c-0.4,0.1-0.8,0.1-1.3,0.1C7,87.8,6.3,87.2,6,86.5z M9,93.3c-1.4-1.6-1.7-3.6-1.7-4.6c0.3,0.1,0.7,0.1,1,0.1
			c0.2,0,0.3,0,0.5,0c-0.2,0.5-0.4,1.1-0.4,1.8c0,1.2,0.4,2.4,1.3,3.4C9.4,93.8,9.2,93.6,9,93.3z M25.6,93.1c-0.1,0-0.3,0-0.4,0
			c0.1-0.1,0.1-0.1,0.1-0.1c0-0.1,0.1-0.1,0.1-0.2l3-0.2L29,93C27.9,93,26.4,93.1,25.6,93.1z"/>
		<path id="XMLID_1697_" fill="#1D70AD" d="M30.8,133l-1.9-1.4c-0.1-0.1-0.2-0.1-0.4-0.1l-4,0.3c0,0,0,0,0,0
			c-2.1-1.3-8.6-5.3-11.7-5.3c-0.1,0-0.2,0-0.3,0c0,0,0,0,0,0c0,0,0,0,0,0c0,0-0.1,0-0.1,0c0-0.1,0-0.3,0-0.4c0-0.9-0.5-1.7-1.3-2.4
			c-0.8-0.7-2-1.1-3.2-1.1c-2,0-3.2,1.4-3.3,2.8c-0.3,0.1-0.8,0.2-1.3,0.4c-0.4,0.1-0.8,0.2-1.2,0.3c-0.2,0-0.3,0.1-0.4,0.1
			c-0.2,0.1-0.5,0.2-0.5,0.6c0,0.2,0.2,0.4,0.4,0.5c0,0,0.1,0,0.1,0c0.2,0,0.9,0,3.1-0.2c0.2,0.5,0.6,0.9,1.1,1.2c0,1,0.1,3.6,2,5.7
			c1.4,1.5,3.4,2.5,5.9,2.8l1.3,1.9l-0.9,7.5H11c-0.3,0-0.5,0.2-0.5,0.5c0,0.3,0.2,0.5,0.5,0.5h3.9c0.3,0,0.5-0.2,0.5-0.5l1-8.1
			c0-0.1,0-0.3-0.1-0.4l-0.9-1.3c0.3,0,0.6,0,1,0c0,0,0.1,0,0.1,0c0.2,0,0.4,0,0.6,0c0.2,0,0.4,0,0.7,0l1.8,1.6l-0.1,7.8l-2.9,0.6
			c-0.3,0.1-0.5,0.3-0.4,0.6c0.1,0.2,0.3,0.4,0.5,0.4c0,0,0.1,0,0.1,0l3.3-0.7c0.2-0.1,0.4-0.3,0.4-0.5l0.1-8.4
			c0-0.2-0.1-0.3-0.2-0.4l-1.3-1.2c2.3-0.5,4-1.7,5-2.7c0.5,0,0.9,0,1.4,0c1.4,0,4.7-0.2,4.9-0.2c0.2,0,0.4-0.2,0.5-0.4
			C31,133.3,31,133.1,30.8,133z M17.2,135.9c-3.1,0-4.9-1-5.9-1.8c-1.2-1-1.8-2.3-1.8-3.5c0-0.8,0.2-1.5,0.7-2c0,0,0,0,0,0
			c0,0,0,0,0,0c0.7,2.1,5.3,4.8,12.5,5.4C21.4,135,19.6,135.9,17.2,135.9z M14.7,131.1c-2.4-1.1-3.4-2.3-3.6-2.9c0,0,0-0.1,0-0.1
			c0-0.1,0-0.2,0.2-0.3c0.2-0.1,0.4-0.1,0.6-0.2c0.3-0.1,0.6-0.1,0.9-0.1c1.3,0,3.8,1,7.1,2.7c1.8,1,3.4,2,4.2,2.5
			c-0.1,0.1-0.2,0.2-0.3,0.3C20.4,132.9,17.2,132.2,14.7,131.1z M11.5,126c0,0.2-0.1,0.4-0.1,0.6c-0.2,0.1-0.4,0.1-0.5,0.2
			c0,0,0,0,0,0c0,0,0,0,0,0c-0.3-0.1-0.8-0.3-1.3-0.7c-0.9-0.7-1.3-1.5-1.3-2.5C10.1,123.7,11.5,124.9,11.5,126z M6.4,124.3
			c0.2-0.2,0.5-0.4,0.8-0.5c0,0.6,0.1,1.1,0.4,1.6l-1.7,0.1C5.9,125,6.1,124.6,6.4,124.3z M6,126.5l2.1-0.1c0,0,0,0,0.1,0
			c0.5,0.5,1,0.9,1.6,1.2c0,0-0.1,0.1-0.1,0.1c-0.4,0.1-0.8,0.1-1.3,0.1C7,127.8,6.3,127.2,6,126.5z M9,133.3
			c-1.4-1.6-1.7-3.6-1.7-4.6c0.3,0.1,0.7,0.1,1,0.1c0.2,0,0.3,0,0.5,0c-0.2,0.5-0.4,1.1-0.4,1.8c0,1.2,0.4,2.4,1.3,3.4
			C9.4,133.8,9.2,133.6,9,133.3z M25.6,133.1c-0.1,0-0.3,0-0.4,0c0.1-0.1,0.1-0.1,0.1-0.1c0-0.1,0.1-0.1,0.1-0.2l3-0.2L29,133
			C27.9,133,26.4,133.1,25.6,133.1z"/>
	</g>
</svg>
