<svg width="32" height="232" viewBox="0 0 32 232" xmlns="http://www.w3.org/2000/svg"><g fill="none"><path d="M30.985 147.702h-18.81c-.66 0-1.198-.59-1.198-1.313s.538-1.32 1.198-1.32l.164-.02c1.67-.11 3-1.63 3-3.49 0-.62-.15-1.2-.41-1.7h14.93c.27 0 .49-.25.49-.55 0-.3-.23-.55-.5-.55h-1.01c.03-.19.02-.38-.05-.57l-.66-1.96c-.06-.18-.16-.33-.28-.45l-1.44-1.37-.74-1.26c-.18-.31-.49-.5-.82-.51l-.99-.02c-.05-.27-.09-.59-.13-.89-.02-.19-.09-.37-.2-.52l-1.76-2.54c-.21-.3-.54-.46-.88-.43-.35.03-.65.25-.8.59l-1.8 3.82-.8 1.17-1.447 1.64c-.09.103-.165.225-.21.36l-.88 2.48c-.05.14-.07.282-.07.423h-.87c-.54-.443-1.2-.705-1.92-.705H6.46L5.013 126.6c.328.176.61.433.828.76.34.505.47 1.117.38 1.725-.04.297.14.578.41.63l.09.007c.24 0 .45-.188.49-.455.14-.9-.05-1.805-.55-2.548-.3-.46-.69-.83-1.15-1.08.82-.39 1.82-.26 2.52.42.21.2.52.18.71-.05.19-.23.17-.57-.04-.77-.99-.97-2.4-1.16-3.57-.61.09-.21.21-.4.36-.58.41-.49.97-.78 1.59-.82.28-.02.49-.28.47-.58-.02-.3-.25-.53-.53-.51-.87.06-1.67.47-2.25 1.17-.17.2-.31.42-.43.65-.64-.94-1.7-1.51-2.87-1.43-.27.02-.48.28-.46.58.02.3.25.52.53.51.87-.07 1.66.39 2.09 1.11-1.22-.39-2.6 0-3.47 1.1-.18.22-.16.57.05.77.09.09.21.13.32.13.14 0 .28-.07.38-.19.61-.77 1.59-1.05 2.44-.77-.42.31-.77.73-1.01 1.23-.4.8-.49 1.73-.24 2.6.07.23.26.39.48.39l.15-.02c.268-.09.41-.39.33-.68-.16-.59-.1-1.22.17-1.77.2-.39.48-.71.83-.93l.91 11.46H1.39c-.55 0-.996.49-.996 1.09 0 .6.446 1.09.996 1.09h3.676l.222 2.79H2.192c-.275 0-.498.24-.498.54 0 .3.223.542.498.542h6.173c.275 0 .498-.244.498-.545 0-.3-.223-.55-.498-.55h-1.26l-.356-2.8h5.4c.66 0 1.2.59 1.2 1.31s-.54 1.314-1.2 1.314l-.17.017c-1.68.1-3.01 1.63-3.01 3.49 0 1.9 1.39 3.45 3.13 3.49h18.87c.55 0 .99-.49.99-1.09 0-.61-.45-1.09-1-1.09zm-13.31-10.828l1.348-1.537.083-.108.878-1.31.085-.15 1.1-2.37.64.93c.23 1.73.46 2.04.73 2.27.21.17.47.25.74.22.12-.01.55-.01 1.02 0l.52.9c.05.08.11.16.18.23l1.35 1.28.5 1.52h-9.89l.68-1.91zm3.187 6.447c.213.1.477.21.96.21s.75-.11.962-.2c.176-.07.303-.13.6-.13s.422.06.598.13c.213.09.477.21.96.21s.75-.11.962-.2c.176-.07.303-.13.6-.13s.422.06.598.13c.213.09.477.21.96.21.276 0 .5-.24.5-.54 0-.3-.224-.54-.5-.54-.295 0-.422-.05-.598-.13-.213-.09-.477-.2-.96-.2s-.75.12-.962.21c-.176.08-.303.13-.6.13s-.422-.05-.598-.13c-.213-.09-.477-.2-.96-.2s-.75.12-.962.21c-.176.075-.303.13-.6.13s-.422-.055-.598-.13c-.213-.09-.477-.204-.96-.204s-.75.11-.962.205c-.176.073-.303.13-.6.13s-.422-.057-.598-.13c-.213-.09-.477-.206-.96-.206-.276 0-.5.243-.5.544 0 .3.224.548.5.548.295 0 .422.06.598.13.213.09.477.21.96.21s.75-.117.962-.21c.176-.072.303-.13.6-.13s.422.058.598.13zm7.603 1.48c-.176.08-.303.13-.6.13s-.422-.05-.598-.13c-.213-.09-.477-.2-.96-.2s-.75.12-.962.21c-.176.08-.303.13-.6.13s-.422-.05-.598-.13c-.212-.09-.477-.2-.96-.2s-.75.12-.962.21c-.176.08-.303.13-.6.13s-.422-.05-.598-.13c-.213-.09-.477-.2-.96-.2-.276 0-.5.25-.5.55 0 .3.224.55.5.55.295 0 .422.06.598.13.212.09.477.21.96.21s.75-.11.962-.2c.176-.07.303-.13.6-.13s.422.06.598.13c.213.09.477.21.96.21s.75-.11.962-.2c.176-.07.303-.13.6-.13s.422.06.598.13c.213.09.477.21.96.21s.75-.12.962-.21c.176-.07.303-.13.6-.13s.422.06.598.13c.213.09.477.21.96.21.276 0 .5-.243.5-.544 0-.3-.224-.55-.5-.55-.295 0-.422-.05-.598-.13-.213-.09-.477-.2-.96-.2s-.75.11-.962.204zm-7.113-21.55c.293-.27.71-.27 1.007-.03v.03c.08.19.26.32.45.32h.06c.19 0 .37-.12.45-.31l.01-.02c.29-.24.71-.23 1 .04.21.2.52.17.7-.06.18-.23.15-.57-.06-.77-.62-.57-1.49-.6-2.14-.15-.65-.45-1.52-.42-2.14.15-.21.2-.24.54-.06.77.17.23.49.26.7.07zm-4.995 1.72c.293-.27.71-.27 1.007-.03l.01.03c.08.19.257.32.45.32h.06c.194 0 .37-.12.45-.31l.01-.02c.296-.24.713-.23 1.007.04.21.2.53.17.71-.06.18-.23.15-.57-.06-.77-.62-.57-1.49-.61-2.14-.15-.64-.45-1.51-.42-2.13.15-.21.2-.24.54-.06.77.18.23.49.26.7.07zm-6.088 4.47c.23.22.52.35.82.35h1.73l-.01.11c0 .35.13.67.37.9.2.19.45.3.72.3h3.64c.6 0 1.09-.54 1.09-1.19 0-.66-.49-1.19-1.09-1.19h-.11l.02-.28c0-.76-.57-1.37-1.26-1.37h-5.12c-.31 0-.6.12-.83.35-.27.26-.43.64-.43 1.03s.15.77.42 1.03zm.65-1.24c.03-.03.09-.07.17-.07h5.12c.14 0 .26.13.26.29 0 .16-.12.28-.26.28-.28 0-.5.25-.5.55 0 .3.22.55.49.55h1.33c.05 0 .09.05.09.11s-.04.11-.09.11H13.9l-.06-.03-.032-.07.033-.08.07-.03c.28 0 .5-.24.5-.54 0-.3-.22-.543-.49-.543H11.1c-.08 0-.138-.04-.17-.07-.034-.03-.09-.1-.09-.21s.056-.18.09-.21z" fill="#206FAC"/><path d="M30.985 107.702h-18.81c-.66 0-1.198-.59-1.198-1.313s.538-1.32 1.198-1.32l.164-.02c1.67-.11 3-1.63 3-3.49 0-.62-.15-1.2-.41-1.7h14.93c.27 0 .49-.25.49-.55 0-.3-.23-.55-.5-.55h-1.01c.03-.19.02-.38-.05-.57l-.66-1.96c-.06-.18-.16-.33-.28-.45l-1.44-1.37-.74-1.26c-.18-.31-.49-.5-.82-.5l-.99-.02c-.05-.27-.09-.59-.13-.89-.02-.19-.09-.37-.2-.52l-1.75-2.53c-.21-.3-.54-.46-.88-.43-.34.03-.65.25-.8.58l-1.78 3.84-.79 1.17-1.45 1.64c-.09.1-.17.22-.21.36L15 98.34c-.05.14-.07.28-.07.424h-.88c-.54-.448-1.2-.71-1.92-.71H6.47L5.013 86.6c.328.177.61.434.828.76.34.506.47 1.118.38 1.726-.04.297.14.578.41.63l.09.007c.24 0 .45-.188.49-.455.14-.9-.05-1.804-.55-2.547-.3-.46-.69-.82-1.15-1.07.82-.39 1.82-.25 2.52.43.21.2.52.18.71-.04.19-.22.17-.57-.04-.77-.99-.96-2.4-1.16-3.57-.61.09-.2.21-.4.36-.57.41-.48.97-.77 1.59-.82.28-.02.49-.28.47-.58-.02-.3-.25-.52-.53-.5-.87.06-1.67.48-2.25 1.17-.17.2-.31.42-.43.65-.64-.93-1.7-1.51-2.87-1.43-.27.02-.48.28-.46.58.02.3.26.53.53.51.87-.06 1.66.4 2.09 1.12-1.22-.38-2.6.01-3.47 1.11-.18.23-.16.57.05.77.09.09.21.13.33.13.14 0 .28-.06.38-.18.61-.77 1.59-1.04 2.448-.77-.42.32-.77.73-1.02 1.23-.4.81-.49 1.73-.246 2.6.06.24.26.39.47.39l.144-.03c.26-.09.41-.39.33-.68-.167-.59-.107-1.21.17-1.76.19-.39.48-.71.83-.93l.9 11.46H1.39c-.55 0-.996.486-.996 1.09 0 .6.446 1.09.996 1.09h3.676l.222 2.8H2.192c-.275 0-.498.24-.498.543 0 .3.223.546.498.546h6.173c.275 0 .498-.25.498-.55 0-.3-.223-.55-.498-.55h-1.26l-.356-2.8h5.4c.66 0 1.2.59 1.2 1.31s-.54 1.312-1.2 1.312l-.17.02c-1.68.106-3.01 1.63-3.01 3.49 0 1.904 1.39 3.457 3.13 3.494h18.87c.55 0 .99-.485.99-1.09 0-.6-.45-1.09-1-1.09zm-13.31-10.828l1.348-1.537.083-.108.878-1.31.085-.15 1.1-2.37.64.93c.23 1.73.46 2.04.73 2.27.21.17.47.25.74.22.12-.01.55-.01 1.02 0l.52.9c.05.08.11.16.18.23l1.35 1.28.5 1.52h-9.89l.68-1.91zm3.187 6.447c.213.1.477.21.96.21s.75-.11.962-.2c.176-.07.303-.13.6-.13s.422.06.598.13c.213.09.477.21.96.21s.75-.11.962-.2c.176-.07.303-.13.6-.13s.422.06.598.13c.213.09.477.21.96.21.276 0 .5-.24.5-.54 0-.3-.224-.54-.5-.54-.295 0-.422-.05-.598-.13-.213-.09-.477-.2-.96-.2s-.75.12-.962.21c-.176.08-.303.13-.6.13s-.422-.05-.598-.13c-.213-.09-.477-.2-.96-.2s-.75.12-.962.21c-.176.075-.303.13-.6.13s-.422-.055-.598-.13c-.213-.09-.477-.204-.96-.204s-.75.11-.962.205c-.176.073-.303.13-.6.13s-.422-.057-.598-.13c-.213-.09-.477-.206-.96-.206-.276 0-.5.243-.5.544 0 .3.224.548.5.548.295 0 .422.06.598.13.213.09.477.21.96.21s.75-.117.962-.21c.176-.072.303-.13.6-.13s.422.058.598.13zm7.603 1.48c-.176.08-.303.13-.6.13s-.422-.05-.598-.13c-.213-.09-.477-.2-.96-.2s-.75.12-.962.21c-.176.08-.303.13-.6.13s-.422-.05-.598-.13c-.212-.09-.477-.2-.96-.2s-.75.12-.962.21c-.176.08-.303.13-.6.13s-.422-.05-.598-.13c-.213-.09-.477-.2-.96-.2-.276 0-.5.25-.5.55 0 .3.224.55.5.55.295 0 .422.06.598.13.212.09.477.21.96.21s.75-.11.962-.2c.176-.07.303-.13.6-.13s.422.06.598.13c.213.09.477.21.96.21s.75-.11.962-.2c.176-.07.303-.13.6-.13s.422.06.598.13c.213.09.477.21.96.21s.75-.12.962-.21c.176-.07.303-.13.6-.13s.422.06.598.13c.213.09.477.21.96.21.276 0 .5-.243.5-.544 0-.3-.224-.55-.5-.55-.295 0-.422-.05-.598-.13-.213-.09-.477-.2-.96-.2s-.75.11-.962.204zm-7.113-21.55c.293-.27.71-.27 1.007-.03v.03c.08.2.26.32.45.32h.06c.19 0 .37-.12.45-.31l.01-.02c.29-.24.71-.23 1 .04.21.2.52.17.7-.07.18-.23.15-.57-.06-.76-.62-.57-1.49-.6-2.14-.15-.65-.45-1.52-.42-2.14.15-.21.2-.24.54-.06.77.17.23.49.26.7.07zm-4.995 1.72c.293-.27.71-.27 1.007-.03l.01.03c.08.19.257.32.45.32h.06c.194 0 .37-.12.45-.31l.01-.02c.296-.24.713-.23 1.007.04.21.2.53.17.71-.06.18-.23.15-.57-.06-.77-.62-.57-1.49-.6-2.14-.15-.64-.45-1.51-.42-2.13.15-.21.2-.24.54-.06.77.18.23.49.26.7.07zm-6.087 4.46c.23.22.52.35.824.35h1.73l-.006.11c0 .34.135.67.37.9.2.19.455.3.72.3h3.64c.6 0 1.09-.54 1.09-1.19 0-.66-.49-1.19-1.09-1.19h-.106l.027-.28c0-.76-.57-1.38-1.26-1.38h-5.12c-.31 0-.6.13-.83.35-.27.26-.43.64-.43 1.03s.15.77.42 1.03zm.654-1.24c.033-.03.09-.07.17-.07h5.12c.143 0 .26.13.26.28 0 .15-.117.28-.26.28-.274 0-.497.25-.497.55 0 .3.22.55.496.55h1.334c.054 0 .096.05.096.11s-.043.11-.093.11h-3.64l-.06-.02-.04-.07.03-.08.06-.02c.27 0 .49-.24.49-.54 0-.3-.22-.543-.498-.543h-2.8c-.08 0-.14-.04-.17-.07-.035-.03-.09-.1-.09-.21s.055-.18.09-.21z" fill="#fff"/><path d="M30.985 67.702h-18.81c-.66 0-1.198-.59-1.198-1.313s.538-1.32 1.198-1.32l.164-.02c1.67-.11 3-1.63 3-3.49 0-.62-.15-1.2-.41-1.7h14.93c.27 0 .49-.25.49-.55 0-.3-.23-.55-.5-.55h-1.01c.03-.19.02-.38-.05-.57l-.66-1.96c-.06-.18-.16-.33-.28-.45l-1.44-1.37-.74-1.26c-.18-.31-.49-.5-.82-.5l-.99-.02c-.05-.27-.09-.59-.13-.89-.02-.19-.09-.37-.2-.52l-1.75-2.53c-.21-.3-.54-.46-.88-.43-.34.03-.65.25-.8.58l-1.78 3.84-.79 1.17-1.45 1.64c-.09.1-.17.22-.21.36L15 58.34c-.05.14-.07.28-.07.424h-.88c-.54-.448-1.2-.71-1.92-.71H6.47L5.013 46.6c.328.177.61.434.828.76.34.506.47 1.118.38 1.726-.04.297.14.578.41.63l.09.007c.24 0 .45-.188.49-.455.14-.9-.05-1.804-.55-2.547-.3-.46-.69-.82-1.15-1.07.82-.39 1.82-.25 2.52.43.21.2.52.18.71-.04.19-.22.17-.57-.04-.77-.99-.96-2.4-1.16-3.57-.61.09-.2.21-.4.36-.57.41-.48.97-.77 1.59-.82.28-.02.49-.28.47-.58-.02-.3-.25-.52-.53-.5-.87.06-1.67.48-2.25 1.17-.17.2-.31.42-.43.65-.64-.93-1.7-1.51-2.87-1.43-.27.02-.48.28-.46.58.02.3.26.53.53.51.87-.06 1.66.4 2.09 1.12-1.22-.38-2.6.01-3.47 1.11-.18.23-.16.57.05.77.09.09.21.13.33.13.14 0 .28-.06.38-.18.61-.77 1.59-1.04 2.448-.77-.42.32-.77.73-1.02 1.23-.4.81-.49 1.73-.246 2.6.06.24.26.39.47.39l.144-.03c.26-.09.41-.39.33-.68-.167-.59-.107-1.21.17-1.76.19-.39.48-.71.83-.93l.9 11.46H1.39c-.55 0-.996.486-.996 1.09 0 .6.446 1.09.996 1.09h3.676l.222 2.8H2.192c-.275 0-.498.24-.498.543 0 .3.223.546.498.546h6.173c.275 0 .498-.25.498-.55 0-.3-.223-.55-.498-.55h-1.26l-.356-2.8h5.4c.66 0 1.2.59 1.2 1.31s-.54 1.312-1.2 1.312l-.17.02c-1.68.106-3.01 1.63-3.01 3.49 0 1.904 1.39 3.457 3.13 3.494h18.87c.55 0 .99-.485.99-1.09 0-.6-.45-1.09-1-1.09zm-13.31-10.828l1.348-1.537.083-.108.878-1.31.085-.15 1.1-2.37.64.93c.23 1.73.46 2.04.73 2.27.21.17.47.25.74.22.12-.01.55-.01 1.02 0l.52.9c.05.08.11.16.18.23l1.35 1.28.5 1.52h-9.89l.68-1.91zm3.187 6.447c.213.1.477.21.96.21s.75-.11.962-.2c.176-.07.303-.13.6-.13s.422.06.598.13c.213.09.477.21.96.21s.75-.11.962-.2c.176-.07.303-.13.6-.13s.422.06.598.13c.213.09.477.21.96.21.276 0 .5-.24.5-.54 0-.3-.224-.54-.5-.54-.295 0-.422-.05-.598-.13-.213-.09-.477-.2-.96-.2s-.75.12-.962.21c-.176.08-.303.13-.6.13s-.422-.05-.598-.13c-.213-.09-.477-.2-.96-.2s-.75.12-.962.21c-.176.075-.303.13-.6.13s-.422-.055-.598-.13c-.213-.09-.477-.204-.96-.204s-.75.11-.962.205c-.176.073-.303.13-.6.13s-.422-.057-.598-.13c-.213-.09-.477-.206-.96-.206-.276 0-.5.243-.5.544 0 .3.224.548.5.548.295 0 .422.06.598.13.213.09.477.21.96.21s.75-.117.962-.21c.176-.072.303-.13.6-.13s.422.058.598.13zm7.603 1.48c-.176.08-.303.13-.6.13s-.422-.05-.598-.13c-.213-.09-.477-.2-.96-.2s-.75.12-.962.21c-.176.08-.303.13-.6.13s-.422-.05-.598-.13c-.212-.09-.477-.2-.96-.2s-.75.12-.962.21c-.176.08-.303.13-.6.13s-.422-.05-.598-.13c-.213-.09-.477-.2-.96-.2-.276 0-.5.25-.5.55 0 .3.224.55.5.55.295 0 .422.06.598.13.212.09.477.21.96.21s.75-.11.962-.2c.176-.07.303-.13.6-.13s.422.06.598.13c.213.09.477.21.96.21s.75-.11.962-.2c.176-.07.303-.13.6-.13s.422.06.598.13c.213.09.477.21.96.21s.75-.12.962-.21c.176-.07.303-.13.6-.13s.422.06.598.13c.213.09.477.21.96.21.276 0 .5-.243.5-.544 0-.3-.224-.55-.5-.55-.295 0-.422-.05-.598-.13-.213-.09-.477-.2-.96-.2s-.75.11-.962.204zm-7.113-21.55c.293-.27.71-.27 1.007-.03v.03c.08.2.26.32.45.32h.06c.19 0 .37-.12.45-.31l.01-.02c.29-.24.71-.23 1 .04.21.2.52.17.7-.07.18-.23.15-.57-.06-.76-.62-.57-1.49-.6-2.14-.15-.65-.45-1.52-.42-2.14.15-.21.2-.24.54-.06.77.17.23.49.26.7.07zm-4.995 1.72c.293-.27.71-.27 1.007-.03l.01.03c.08.19.257.32.45.32h.06c.194 0 .37-.12.45-.31l.01-.02c.296-.24.713-.23 1.007.04.21.2.53.17.71-.06.18-.23.15-.57-.06-.77-.62-.57-1.49-.6-2.14-.15-.64-.45-1.51-.42-2.13.15-.21.2-.24.54-.06.77.18.23.49.26.7.07zm-6.087 4.46c.23.22.52.35.824.35h1.73l-.006.11c0 .34.135.67.37.9.2.19.455.3.72.3h3.64c.6 0 1.09-.54 1.09-1.19 0-.66-.49-1.19-1.09-1.19h-.106l.027-.28c0-.76-.57-1.38-1.26-1.38h-5.12c-.31 0-.6.13-.83.35-.27.26-.43.64-.43 1.03s.15.77.42 1.03zm.654-1.24c.033-.03.09-.07.17-.07h5.12c.143 0 .26.13.26.28 0 .15-.117.28-.26.28-.274 0-.497.25-.497.55 0 .3.22.55.496.55h1.334c.054 0 .096.05.096.11s-.043.11-.093.11h-3.64l-.06-.02-.04-.07.03-.08.06-.02c.27 0 .49-.24.49-.54 0-.3-.22-.543-.498-.543h-2.8c-.08 0-.14-.04-.17-.07-.035-.03-.09-.1-.09-.21s.055-.18.09-.21z" fill="#67737B"/><path d="M30.985 27.702h-18.81c-.66 0-1.198-.59-1.198-1.313s.538-1.32 1.198-1.32l.164-.02c1.67-.11 3-1.63 3-3.49 0-.62-.15-1.2-.41-1.7h14.93c.27 0 .49-.25.49-.55 0-.3-.23-.55-.5-.55h-1.01c.03-.19.02-.38-.05-.57l-.66-1.96c-.06-.18-.16-.33-.28-.45l-1.44-1.37-.74-1.26c-.18-.31-.49-.5-.82-.5l-.99-.02c-.05-.27-.09-.59-.13-.89-.02-.19-.09-.37-.2-.52L21.78 8.7c-.206-.3-.54-.46-.88-.426-.34.03-.64.25-.8.58L18.33 12.7l-.79 1.173-1.443 1.643c-.09.104-.163.226-.21.36l-.88 2.477c-.05.14-.07.283-.068.424h-.88c-.54-.444-1.2-.706-1.92-.706H6.47L5.013 6.61c.327.176.61.433.827.76.33.505.462 1.117.37 1.725-.048.297.135.578.41.63l.08.007c.24 0 .45-.19.49-.456.14-.9-.056-1.805-.548-2.55-.304-.46-.697-.82-1.152-1.074.82-.39 1.818-.255 2.515.425.205.2.52.18.703-.044.19-.224.17-.57-.04-.77-.99-.965-2.4-1.16-3.57-.61.09-.205.21-.4.36-.576.407-.486.97-.777 1.585-.82.275-.02.483-.28.466-.58-.02-.3-.26-.527-.53-.508-.87.06-1.67.48-2.25 1.17-.17.2-.32.42-.43.65-.64-.93-1.71-1.51-2.88-1.43-.28.02-.48.28-.47.58.02.3.25.52.53.51.87-.06 1.66.39 2.09 1.11-1.22-.39-2.6 0-3.47 1.1-.18.22-.16.57.05.77.09.09.21.13.32.13.14 0 .28-.07.38-.19.61-.77 1.58-1.04 2.44-.77-.42.31-.77.73-1.02 1.23-.4.8-.49 1.73-.25 2.6.06.23.26.38.47.38l.14-.02c.26-.09.41-.4.33-.68-.17-.59-.11-1.22.17-1.77.19-.39.48-.71.83-.94l.9 11.46h-3.5c-.55 0-1 .49-1 1.09 0 .6.44 1.09.99 1.09h3.68l.22 2.8H2.19c-.275 0-.5.24-.5.54 0 .3.225.54.5.54h6.173c.275 0 .498-.248.498-.55 0-.3-.22-.544-.49-.544H7.11l-.356-2.8h5.4c.66 0 1.2.59 1.2 1.31s-.54 1.313-1.2 1.313l-.17.012c-1.68.106-3.01 1.63-3.01 3.49 0 1.904 1.39 3.457 3.13 3.494h18.87c.55 0 .99-.49.99-1.09 0-.603-.447-1.09-.997-1.09zm-13.31-10.828l1.348-1.537.083-.108.878-1.31.085-.15 1.1-2.37.64.93c.23 1.73.46 2.04.73 2.27.21.17.47.25.74.22.12-.01.55-.01 1.02 0l.52.9c.05.08.11.16.18.23l1.35 1.28.5 1.52h-9.89l.68-1.91zm3.187 6.447c.213.1.477.21.96.21s.75-.11.962-.2c.176-.07.303-.13.6-.13s.422.06.598.13c.213.09.477.21.96.21s.75-.11.962-.2c.176-.07.303-.13.6-.13s.422.06.598.13c.213.09.477.21.96.21.276 0 .5-.24.5-.54 0-.3-.224-.54-.5-.54-.295 0-.422-.05-.598-.13-.213-.09-.477-.2-.96-.2s-.75.12-.962.21c-.176.08-.303.13-.6.13s-.422-.05-.598-.13c-.213-.09-.477-.2-.96-.2s-.75.12-.962.21c-.176.075-.303.13-.6.13s-.422-.055-.598-.13c-.213-.09-.477-.204-.96-.204s-.75.11-.962.205c-.176.073-.303.13-.6.13s-.422-.057-.598-.13c-.213-.09-.477-.206-.96-.206-.276 0-.5.243-.5.544 0 .3.224.548.5.548.295 0 .422.06.598.13.213.09.477.21.96.21s.75-.117.962-.21c.176-.072.303-.13.6-.13s.422.058.598.13zm7.603 1.48c-.176.08-.303.13-.6.13s-.422-.05-.598-.13c-.213-.09-.477-.2-.96-.2s-.75.12-.962.21c-.176.08-.303.13-.6.13s-.422-.05-.598-.13c-.212-.09-.477-.2-.96-.2s-.75.12-.962.21c-.176.08-.303.13-.6.13s-.422-.05-.598-.13c-.213-.09-.477-.2-.96-.2-.276 0-.5.25-.5.55 0 .3.224.55.5.55.295 0 .422.06.598.13.212.09.477.21.96.21s.75-.11.962-.2c.176-.07.303-.13.6-.13s.422.06.598.13c.213.09.477.21.96.21s.75-.11.962-.2c.176-.07.303-.13.6-.13s.422.06.598.13c.213.09.477.21.96.21s.75-.12.962-.21c.176-.07.303-.13.6-.13s.422.06.598.13c.213.09.477.21.96.21.276 0 .5-.243.5-.544 0-.3-.224-.55-.5-.55-.295 0-.422-.05-.598-.13-.213-.09-.477-.2-.96-.2s-.75.11-.962.204zM21.352 3.25c.293-.27.71-.274 1.007-.034v.024c.08.192.26.315.45.315h.06c.19 0 .37-.123.45-.315l.01-.023c.29-.24.71-.235 1 .035.21.193.52.163.7-.068.18-.23.15-.575-.06-.768-.62-.57-1.49-.608-2.14-.154-.65-.453-1.52-.418-2.14.152-.21.193-.24.537-.06.767.17.23.49.26.7.07zm-4.995 1.71c.293-.27.71-.273 1.007-.034l.01.023c.08.19.257.31.45.31h.06c.194 0 .37-.13.45-.32l.01-.03c.296-.24.713-.24 1.007.03.21.19.53.16.71-.07.18-.23.15-.58-.06-.77-.62-.57-1.49-.61-2.14-.16-.64-.45-1.51-.42-2.13.15-.21.19-.24.54-.06.77.18.23.49.26.7.06zM10.27 9.424c.23.222.523.344.828.344h1.73l-.006.104c0 .342.135.67.37.896.2.193.455.3.72.3h3.64c.6 0 1.09-.537 1.09-1.195 0-.66-.49-1.194-1.09-1.194h-.106l.027-.29c0-.76-.563-1.38-1.254-1.38h-5.13c-.31 0-.6.12-.83.34-.27.26-.43.63-.43 1.03s.15.77.42 1.03zm.658-1.242c.033-.033.09-.07.17-.07h5.12c.143 0 .26.126.26.282 0 .156-.117.283-.26.283-.274 0-.497.244-.497.545 0 .3.23.545.5.545h1.34c.06 0 .1.047.1.104 0 .06-.04.11-.09.11h-3.64l-.06-.02-.03-.07.04-.08.07-.02c.28 0 .5-.24.5-.54 0-.3-.22-.54-.5-.54H11.1c-.08 0-.138-.04-.17-.07-.034-.03-.09-.1-.09-.21s.056-.18.09-.21z" fill="#3A434E"/></g></svg>