<svg width="32" height="232" viewBox="0 0 32 232" xmlns="http://www.w3.org/2000/svg"><g fill="none"><path d="M3.49 129.25h.21c-.032.124-.05.252-.05.385 0 .774.582 1.402 1.3 1.402h8.467c.316 0 .62-.124.86-.35.28-.267.44-.65.44-1.052 0-.4-.16-.784-.44-1.05-.24-.227-.544-.352-.86-.352H8.583l.016-.19c0-.348-.14-.678-.39-.907-.21-.195-.47-.303-.74-.303H3.49c-.618 0-1.12.543-1.12 1.21s.502 1.208 1.12 1.208zm0-1.4h3.99l.116.05.06.142-.06.142-.116.048h-.002c-.26 0-.472.228-.472.51s.21.508.472.508h5.942c.11 0 .19.052.235.097.046.043.122.138.122.287 0 .15-.076.245-.122.288-.046.043-.125.096-.235.096H4.95c-.196 0-.355-.172-.355-.384 0-.212.16-.384.356-.384.27 0 .48-.228.48-.51 0-.28-.21-.508-.47-.508H3.5c-.1 0-.18-.085-.18-.19s.08-.192.176-.192zm28.033 17.023c-.28 0-.402-.05-.568-.12-.202-.086-.453-.192-.912-.192l-.174.01v-6c0-.28-.22-.51-.48-.51h-2.82v-5.59c0-.45-.27-.83-.65-.96v-2.4c0-.26-.19-.48-.43-.5-.25-.02-.47.16-.51.42l-.15.91-.63-7.76c-.03-.26-.23-.46-.48-.46-.25 0-.45.2-.47.47l-.63 7.76-.15-.91c-.05-.26-.27-.43-.51-.41-.25.02-.43.24-.43.51v2.4c-.38.14-.65.52-.65.97v6.648h-.42v-1.32l-.04-.19c-.09-1.665-1.26-3.02-2.76-3.25v-.68c0-.28-.21-.51-.48-.51s-.47.23-.47.51v.68c-1.55.25-2.74 1.698-2.74 3.438v1.316h-1.3v-1.72c0-.28-.21-.51-.47-.51H11v-.9c0-.56-.425-1.02-.947-1.02H9.65v-1.29c0-.28-.21-.51-.474-.51H3.32c-.26 0-.472.23-.472.51V135H2.44c-.52 0-.944.46-.944 1.02v8.67l.013.16-.15-.06c-.2-.086-.45-.19-.91-.19-.26 0-.48.226-.48.51s.21.51.47.51c.28 0 .4.05.56.12.2.083.45.19.91.19s.71-.107.91-.19c.16-.07.28-.12.56-.12s.4.05.57.12c.2.083.45.19.91.19h.08v1.435c0 .28.21.51.47.51H8c.26 0 .473-.23.473-.51l-.002-.046c0-.52-.03-1-.08-1.45.15-.04.27-.09.38-.13.17-.07.29-.12.57-.12.28 0 .4.05.57.12.2.08.45.19.91.19s.71-.11.91-.19l.22-.08h.7l.22.08c.2.08.46.19.91.19.46 0 .71-.11.91-.19l.22-.08h.71l.22.08c.2.08.45.19.91.19s.71-.11.91-.19l.22-.08h.71l.22.08c.2.08.46.19.91.19s.71-.11.91-.19l.22-.08h.71l.05.01.01.005.155.06c.2.084.45.19.91.19s.71-.106.91-.19l.04-.02h1.05l.046.02c.2.086.45.19.91.19s.71-.104.91-.19c.167-.07.288-.12.57-.12.28 0 .4.05.567.12.205.086.456.19.915.19s.71-.104.91-.19c.168-.07.288-.12.57-.12.28 0 .4.05.568.12.2.086.45.19.91.19.26 0 .478-.226.478-.51 0-.28-.21-.506-.47-.506zm-14.293-9.54c1.095 0 2.013.837 2.23 1.948H15c.217-1.11 1.135-1.94 2.23-1.94zm-2.28 2.967h4.59v.744h-4.59v-.744zm5.958 1.823h.154v.755h-10.37l.203-.755h10.012zm2.832-12.09l.277 3.41.044.542h-.64l.05-.543.28-3.41zm2.833 11.038h2.352v5.49h-2.352v-5.49zm-3.777-5.59h1.888v10.17h-1.888v-10.17zm-2.082 11.13h-.23v-1.05c0-.28-.21-.5-.47-.5s-.474.23-.474.51v1.06h-.763v-1.05c0-.28-.21-.5-.472-.5s-.472.23-.472.51v1.05h-.764v-1.05c0-.28-.22-.51-.48-.51s-.47.23-.47.51v1.06h-.77v-1.05c0-.28-.21-.51-.47-.51s-.48.23-.48.51v1.06h-.77v-1.06c0-.28-.21-.51-.48-.51-.26 0-.48.23-.48.51v1.06h-.77v-1.05c0-.16-.07-.3-.18-.39-.08-.07-.18-.11-.29-.11-.23 0-.42.18-.47.42l-.01.09v1.05h-.46v-2.71h10.53v2.707h-.35zm-9.704-6.71h.75v1.21h-.756v-1.21zm-7.22-3.71h4.92v.78H3.79v-.78zm2.122 11.47v-3.49c.43.46.98 1.26 1.314 2.57.087.34.16.72.21 1.13.04.3.064.62.077.96h-1.6v-1.16zm2.503-.9l-.194.07c-.53-2.52-1.8-3.62-2.31-3.97v-1.31c0-.28-.21-.51-.47-.51s-.47.23-.47.51v5.33l-.08.01c-.28 0-.4-.05-.57-.12-.13-.06-.3-.12-.53-.16V137h4.92v7.56l.01.08-.3.112zm4.75 4.46c-.46 0-.71.11-.91.19-.168.07-.29.12-.57.12-.28 0-.4-.05-.568-.12-.203-.08-.454-.19-.91-.19-.275 0-.473.04-.63.09.36-.3.476-.58.5-.64.054-.16.034-.33-.054-.47-.09-.14-.234-.22-.39-.22H3.07c-.155 0-.3.08-.39.22-.087.14-.107.32-.05.47.025.07.174.44.676.79-.132.06-.255.09-.49.09-.26 0-.473.23-.473.51s.212.51.473.51c.458 0 .71-.1.91-.19.167-.07.288-.12.57-.12.28 0 .4.05.567.12.2.09.452.19.91.19s.71-.1.912-.19c.166-.07.287-.12.568-.12.28 0 .4.05.568.12.21.09.46.19.92.19s.71-.1.91-.19c.17-.07.29-.12.57-.12.28 0 .4.05.57.12.2.09.46.19.91.19.46 0 .71-.1.91-.19.17-.07.29-.12.57-.12.26 0 .48-.23.48-.51s-.21-.51-.47-.51zm-8.39-.23h3.15c-.396.1-.91.16-1.574.16s-1.17-.06-1.57-.16z" fill="#206FAC"/><path d="M3.49 89.25h.21c-.032.124-.05.252-.05.385 0 .774.582 1.403 1.3 1.403h8.467c.316 0 .62-.124.86-.35.28-.267.44-.65.44-1.052 0-.4-.16-.784-.44-1.05-.24-.227-.544-.352-.86-.352H8.583l.016-.19c0-.347-.14-.678-.39-.907-.21-.195-.47-.302-.74-.302H3.49c-.618 0-1.12.542-1.12 1.21 0 .665.502 1.208 1.12 1.208zm0-1.4h3.99l.116.05.06.142-.06.142-.116.048h-.002c-.26 0-.472.228-.472.51 0 .28.21.508.472.508h5.942c.11 0 .19.053.235.097.046.043.122.138.122.287 0 .15-.076.245-.122.288-.046.044-.125.096-.235.096H4.95c-.196 0-.355-.172-.355-.385 0-.212.16-.384.356-.384.27 0 .48-.23.48-.51s-.21-.51-.47-.51H3.5c-.1 0-.18-.09-.18-.19 0-.11.08-.19.176-.19zm28.033 17.023c-.28 0-.402-.05-.568-.12-.202-.086-.453-.192-.912-.192l-.174.01v-6c0-.28-.22-.51-.48-.51h-2.82v-5.59c0-.45-.27-.83-.65-.96v-2.4c0-.26-.19-.48-.43-.5-.25-.02-.47.16-.51.42l-.15.91-.63-7.76c-.03-.26-.23-.46-.48-.46-.25 0-.45.2-.47.47l-.63 7.76-.15-.9c-.05-.26-.27-.43-.51-.41-.25.03-.43.25-.43.51v2.38c-.38.14-.65.52-.65.97v6.65h-.42V97.8l-.04-.19c-.09-1.663-1.26-3.017-2.76-3.25v-.676c0-.28-.21-.51-.48-.51s-.47.23-.47.51v.68c-1.53.25-2.72 1.693-2.72 3.433v1.32h-1.3v-1.72c0-.28-.21-.51-.47-.51H11v-.895c0-.562-.424-1.017-.946-1.017H9.65v-1.29c0-.28-.21-.51-.473-.51H3.32c-.26 0-.472.23-.472.51v1.29H2.44c-.52 0-.944.457-.944 1.018v8.667l.013.16-.15-.056c-.2-.086-.45-.19-.91-.19-.26 0-.48.226-.48.507s.21.51.47.51c.28 0 .4.05.56.12.2.09.45.2.91.2s.71-.1.91-.19c.16-.07.28-.12.56-.12s.4.05.57.12c.2.09.45.19.91.19l.08-.01v1.44c0 .28.21.51.47.51H8c.26 0 .473-.23.473-.51l-.002-.05c0-.53-.03-1.01-.08-1.45.15-.04.27-.09.38-.13.17-.07.29-.12.57-.12.28 0 .4.05.57.12.2.08.45.19.91.19s.71-.11.91-.19l.22-.08h.7l.22.08c.2.08.46.19.91.19.46 0 .71-.11.91-.19l.22-.08h.71l.22.08c.2.08.45.19.91.19s.71-.11.91-.19l.22-.08h.71l.22.08c.2.08.46.19.91.19s.71-.11.91-.19l.22-.08h.71l.05.01h.01l.155.06c.2.09.45.19.91.19s.71-.1.91-.19l.04-.01h1.05l.046.02c.2.09.45.2.91.2s.71-.1.91-.19c.167-.07.288-.12.57-.12.28 0 .4.05.567.12.205.09.456.19.915.19s.71-.1.91-.19c.168-.07.288-.12.57-.12.28 0 .4.05.568.12.2.09.45.19.91.19.26 0 .478-.23.478-.51s-.21-.51-.47-.51zm-14.293-9.54c1.095 0 2.013.836 2.23 1.948H15c.217-1.11 1.135-1.94 2.23-1.94zM14.95 98.3h4.59v.745h-4.59V98.3zm5.958 1.823h.154v.755h-10.37l.203-.755h10.012zm2.832-12.09l.277 3.41.044.542h-.64l.05-.543.28-3.41zm2.833 11.038h2.352v5.49h-2.352v-5.49zm-3.777-5.59h1.888v10.17h-1.888V93.48zm-2.082 11.13h-.23v-1.05c0-.28-.21-.5-.47-.5s-.474.23-.474.51v1.06h-.763v-1.05c0-.28-.21-.5-.472-.5s-.472.23-.472.51v1.05h-.764v-1.05c0-.28-.22-.51-.48-.51s-.47.23-.47.51v1.06h-.77v-1.05c0-.28-.21-.51-.47-.51s-.48.23-.48.51v1.06h-.77v-1.06c0-.28-.21-.51-.48-.51-.26 0-.48.23-.48.51v1.06h-.77v-1.05c0-.16-.07-.3-.18-.39-.08-.06-.18-.11-.29-.11-.23 0-.42.18-.47.42l-.01.09v1.05h-.46v-2.7h10.53v2.705h-.35zM11.01 97.9h.75v1.21h-.755V97.9zm-7.22-3.714h4.92v.78H3.79v-.78zm2.122 11.47v-3.494c.43.456.98 1.26 1.314 2.57.087.34.16.716.21 1.127.04.3.064.62.077.96h-1.6v-1.17zm2.503-.9l-.193.072c-.536-2.516-1.802-3.617-2.31-3.968v-1.32c0-.28-.21-.51-.472-.51s-.47.23-.47.51v5.33l-.08.003c-.28 0-.4-.05-.568-.12-.138-.06-.3-.126-.536-.163l.002-.03V97h4.92v7.56l.006.082-.3.11zm4.75 4.454c-.458 0-.71.104-.91.19-.167.07-.288.12-.57.12-.28 0-.4-.052-.567-.122-.2-.085-.453-.19-.91-.19-.274 0-.47.036-.63.084.36-.3.477-.58.5-.646.055-.157.035-.332-.053-.47-.088-.138-.233-.22-.388-.22H3.07c-.155 0-.3.083-.39.22-.087.138-.107.313-.05.47.025.073.174.436.676.785-.132.05-.255.09-.49.09-.26 0-.473.23-.473.51s.212.51.473.51c.458 0 .71-.1.91-.19.167-.07.288-.12.57-.12.28 0 .4.05.567.12.2.09.452.19.91.19s.71-.1.912-.19c.166-.07.287-.12.568-.12.28 0 .4.05.568.12.21.09.46.19.92.19s.71-.1.91-.19c.17-.07.29-.12.57-.12.28 0 .4.05.57.12.2.09.46.19.91.19.46 0 .71-.1.91-.19.17-.07.29-.12.57-.12.26 0 .48-.23.48-.51s-.21-.51-.47-.51zm-8.39-.236H7.93c-.397.095-.91.16-1.575.16-.664 0-1.178-.066-1.575-.16z" fill="#fff"/><path d="M3.49 49.25h.21c-.032.124-.05.252-.05.385 0 .774.582 1.403 1.3 1.403h8.467c.316 0 .62-.124.86-.35.28-.267.44-.65.44-1.052 0-.4-.16-.784-.44-1.05-.24-.227-.544-.352-.86-.352H8.583l.016-.19c0-.348-.14-.678-.39-.908-.21-.195-.47-.303-.74-.303H3.49c-.618 0-1.12.542-1.12 1.21 0 .665.502 1.207 1.12 1.207zm0-1.398h3.99l.116.048.06.143-.06.142-.116.048h-.002c-.26 0-.472.228-.472.51s.21.508.472.508h5.942c.11 0 .19.06.235.1.046.05.122.14.122.29 0 .15-.076.25-.122.29-.046.04-.125.1-.235.1H4.95c-.196 0-.355-.17-.355-.38s.16-.38.356-.38c.27 0 .48-.22.48-.51 0-.28-.21-.51-.47-.51H3.5c-.1 0-.18-.08-.18-.19s.08-.19.176-.19zm28.033 17.022c-.28 0-.402-.05-.568-.12-.202-.086-.453-.192-.912-.192l-.174.006v-6.005c0-.282-.22-.51-.48-.51h-2.82V52.46c0-.447-.27-.827-.65-.963V49.1c0-.263-.19-.482-.43-.506-.25-.022-.47.157-.51.416l-.15.906-.63-7.76c-.03-.262-.23-.464-.48-.464-.25 0-.45.202-.47.465l-.63 7.758-.15-.905c-.05-.26-.27-.438-.51-.416-.25.023-.43.243-.43.507v2.4c-.38.14-.65.52-.65.97v6.65h-.42V57.8l-.04-.19c-.09-1.66-1.26-3.016-2.76-3.25v-.675c0-.282-.21-.51-.48-.51s-.47.228-.47.51v.678c-1.55.253-2.74 1.7-2.74 3.44v1.317h-1.3V57.4c0-.28-.21-.51-.47-.51H11v-.897c0-.562-.425-1.02-.947-1.02H9.65v-1.29c0-.28-.21-.51-.474-.51H3.32c-.26 0-.472.23-.472.51v1.29H2.44c-.52 0-.944.456-.944 1.018v8.67l.013.16-.15-.05c-.2-.08-.45-.19-.91-.19-.26 0-.48.23-.48.51 0 .29.21.51.47.51.28 0 .4.05.56.12.2.09.45.2.91.2s.71-.1.91-.19c.16-.07.28-.12.56-.12s.4.05.57.12c.2.09.45.19.91.19h.08v1.44c0 .28.21.51.47.51H8c.26 0 .473-.23.473-.51l-.003-.05c0-.52-.03-1-.08-1.45.15-.04.27-.09.38-.13.17-.07.29-.12.57-.12.28 0 .4.05.57.12.2.09.45.2.91.2s.71-.1.91-.19l.22-.08h.7l.22.08c.2.08.456.19.91.19.46 0 .71-.1.91-.19l.22-.08h.705l.216.08c.2.08.45.19.91.19s.71-.1.91-.19l.22-.08h.71l.22.08c.2.08.45.19.91.19s.71-.1.91-.19l.22-.08h.71l.05.01.02.01.156.06c.2.09.45.19.91.19s.71-.1.91-.19l.04-.01h1.05l.046.013c.2.09.45.195.91.195s.71-.1.91-.19c.16-.07.283-.12.57-.12.28 0 .4.05.56.12.204.09.455.19.914.19s.71-.1.91-.19c.16-.07.28-.12.57-.12.28 0 .4.05.56.12.2.088.45.19.91.19.26 0 .473-.23.473-.51s-.21-.51-.473-.51zm-14.293-9.54c1.095 0 2.013.836 2.23 1.948H15c.217-1.11 1.135-1.95 2.23-1.95zM14.95 58.3h4.59v.745h-4.59V58.3zm5.958 1.824h.154v.755h-10.37l.203-.76h10.012zm2.832-12.09l.277 3.41.044.54h-.64l.05-.54.28-3.41zm2.833 11.038h2.352v5.49h-2.352v-5.49zm-3.777-5.593h1.888v10.16h-1.888V53.48zM20.714 64.6h-.23v-1.05c0-.28-.21-.507-.47-.507s-.474.227-.474.508v1.06h-.763v-1.06c0-.28-.21-.5-.472-.5s-.472.23-.472.51v1.06h-.764v-1.06c0-.28-.22-.5-.48-.5s-.47.23-.47.51v1.06h-.77v-1.06c0-.28-.21-.5-.47-.5s-.48.23-.48.51v1.06h-.77v-1.06c0-.28-.21-.5-.48-.5-.26 0-.48.23-.48.51v1.06h-.77v-1.06c0-.16-.07-.3-.18-.4-.08-.07-.18-.11-.29-.11-.23 0-.42.18-.47.42l-.01.09v1.05h-.46V61.9h10.53v2.71h-.35zm-9.705-6.708h.75v1.21H11v-1.21zm-7.22-3.71h4.92v.78H3.79v-.78zm2.12 11.47V62.16c.43.456.98 1.26 1.31 2.57.08.34.16.716.21 1.127.04.3.06.62.07.962H5.9v-1.17zm2.5-.9l-.2.07c-.54-2.515-1.8-3.616-2.31-3.967V59.54c0-.28-.21-.51-.47-.51s-.47.23-.47.51v5.332l-.08.002c-.28 0-.4-.05-.57-.12-.14-.06-.3-.126-.54-.163v-7.58H8.7v7.56l.006.08-.3.11zm4.75 4.453c-.46 0-.71.105-.91.19-.17.07-.29.122-.57.122-.28 0-.4-.053-.57-.123-.2-.085-.46-.19-.91-.19-.28 0-.47.036-.63.084.36-.3.47-.58.5-.646.05-.157.03-.332-.06-.47-.09-.14-.24-.22-.39-.22H3.07c-.155 0-.3.08-.39.22-.087.137-.107.312-.05.47.025.072.174.435.676.784-.132.05-.255.088-.49.088-.26 0-.473.228-.473.508s.212.51.473.51c.458 0 .71-.106.91-.192.167-.07.288-.12.57-.12.28 0 .4.05.567.12.2.085.452.19.91.19s.71-.104.912-.19c.166-.07.287-.12.568-.12.28 0 .4.05.568.12.21.085.46.19.92.19s.71-.104.91-.19c.17-.07.29-.12.57-.12.28 0 .4.05.57.12.2.085.46.19.91.19.46 0 .71-.104.91-.19.17-.07.29-.12.57-.12.26 0 .48-.23.48-.51s-.21-.508-.47-.508zm-8.39-.234h3.16c-.4.1-.91.16-1.58.16s-1.18-.06-1.58-.16z" fill="#67737B"/><path d="M3.49 9.25h.21c-.032.124-.05.252-.05.385 0 .774.582 1.402 1.3 1.402h8.467c.316 0 .62-.124.86-.35.28-.267.44-.65.44-1.052s-.16-.785-.44-1.05c-.24-.227-.544-.352-.86-.352H8.583l.016-.19c0-.347-.14-.678-.39-.908-.21-.195-.47-.302-.74-.302H3.49c-.618 0-1.12.542-1.12 1.21s.5 1.207 1.12 1.207zm0-1.398h3.99l.116.048.06.143-.06.143-.116.048h-.002c-.26 0-.472.228-.472.51s.21.508.472.508h5.942c.11 0 .19.053.235.096.046.044.122.138.122.288 0 .15-.076.245-.122.288-.046.043-.125.096-.235.096H4.95c-.196 0-.355-.173-.355-.385 0-.212.16-.384.356-.384.27 0 .48-.22.48-.5s-.21-.51-.47-.51H3.5c-.1 0-.18-.08-.18-.19s.08-.19.176-.19zm28.033 17.022c-.28 0-.402-.05-.568-.12-.202-.086-.453-.192-.912-.192l-.174.006v-6.005c0-.282-.22-.51-.48-.51h-2.82V12.46c0-.447-.27-.827-.65-.963V9.1c0-.263-.19-.483-.43-.506-.25-.02-.47.157-.51.417l-.15.91-.63-7.76c-.03-.26-.23-.46-.48-.46-.25 0-.45.2-.47.47l-.63 7.76-.15-.9c-.05-.26-.27-.43-.51-.41-.25.03-.43.25-.43.51v2.39c-.38.14-.65.52-.65.97v6.65h-.42V17.8l-.04-.19c-.09-1.66-1.26-3.015-2.76-3.25v-.674c0-.284-.21-.51-.48-.51s-.47.226-.47.51v.676c-1.55.252-2.74 1.7-2.74 3.44v1.315h-1.3v-1.72c0-.28-.21-.51-.47-.51H11v-.9c0-.56-.425-1.018-.947-1.018H9.65v-1.29c0-.28-.21-.51-.474-.51H3.32c-.26 0-.472.22-.472.51v1.28H2.44c-.52 0-.944.46-.944 1.02v8.67l.013.16-.15-.06c-.2-.09-.45-.19-.91-.19-.26 0-.48.22-.48.51s.21.51.47.51c.28 0 .4.05.56.12.2.08.45.19.91.19s.71-.11.91-.19c.16-.07.28-.13.56-.13s.4.05.57.12c.2.08.45.19.91.19l.08-.01v1.44c0 .28.21.51.47.51H8c.26 0 .473-.23.473-.51l-.002-.05c0-.52-.03-1.01-.08-1.45.15-.04.27-.09.38-.13.17-.07.29-.12.57-.12.28 0 .4.05.57.12.2.08.45.19.91.19s.71-.11.91-.19l.22-.08h.7l.22.08c.2.08.46.19.91.19.46 0 .71-.11.91-.19l.22-.08h.71l.22.08c.2.08.45.19.91.19s.71-.11.91-.19l.22-.08h.71l.22.08c.2.08.46.19.91.19s.71-.11.91-.19l.22-.08h.71l.05.01.01.004.155.067c.2.086.45.19.91.19s.71-.103.91-.19l.04-.02h1.05l.046.02c.2.086.45.19.91.19s.71-.103.91-.19c.167-.07.288-.12.57-.12.28 0 .4.05.567.12.205.086.456.19.915.19s.71-.103.91-.19c.168-.07.288-.12.57-.12.28 0 .4.05.568.12.2.086.45.19.91.19.26 0 .478-.23.478-.51s-.21-.51-.47-.51zm-14.293-9.54c1.095 0 2.013.837 2.23 1.948H15c.217-1.11 1.135-1.95 2.23-1.95zM14.95 18.3h4.59v.745h-4.59V18.3zm5.958 1.823h.154v.756h-10.37l.203-.76h10.012zm2.832-12.09l.277 3.41.044.542h-.64l.05-.543.28-3.41zm2.833 11.038h2.352v5.49h-2.352v-5.49zm-3.777-5.59h1.888v10.17h-1.888V13.48zm-2.082 11.13h-.23v-1.06c0-.28-.21-.51-.47-.51s-.474.23-.474.51v1.06h-.763v-1.06c0-.28-.21-.51-.472-.51s-.472.23-.472.51v1.06h-.764v-1.06c0-.28-.22-.51-.48-.51s-.47.23-.47.51v1.06h-.77v-1.06c0-.28-.21-.51-.47-.51s-.48.23-.48.51v1.06h-.77v-1.06c0-.28-.21-.51-.48-.51-.26 0-.48.23-.48.51v1.06h-.77v-1.06c0-.16-.07-.3-.18-.39-.08-.07-.18-.11-.29-.11-.23 0-.42.18-.47.42l-.01.09v1.05h-.46V21.9h10.53v2.7h-.35zM11.01 17.9h.75v1.21h-.755V17.9zm-7.22-3.714h4.92v.78H3.79v-.78zm2.122 11.47V22.16c.43.455.98 1.258 1.314 2.57.087.34.16.716.21 1.127.04.3.064.62.077.96h-1.6v-1.163zm2.503-.9l-.193.072c-.536-2.516-1.802-3.617-2.31-3.97V19.54c0-.28-.21-.51-.472-.51s-.47.23-.47.51v5.33l-.08.003c-.28 0-.4-.05-.568-.12-.138-.06-.3-.126-.536-.164l.002-.03V17h4.92v7.56l.006.08-.3.112zm4.75 4.454c-.458 0-.71.105-.91.19-.167.07-.288.12-.57.12-.28 0-.4-.052-.567-.122-.2-.085-.453-.19-.91-.19-.274 0-.47.037-.63.085.36-.302.477-.583.5-.648.055-.157.035-.332-.053-.47-.088-.138-.233-.22-.388-.22H3.07c-.155 0-.3.08-.39.22-.087.138-.107.313-.05.47.025.072.174.435.676.784-.132.05-.255.08-.49.08-.26 0-.473.22-.473.51s.212.51.473.51c.458 0 .71-.11.91-.19.167-.07.288-.12.57-.12.28 0 .4.05.567.12.2.08.452.19.91.19s.71-.11.912-.19c.166-.07.287-.12.568-.12.28 0 .4.05.568.12.21.08.46.19.92.19s.71-.11.91-.19c.17-.07.29-.12.57-.12.28 0 .4.05.57.12.2.08.46.19.91.19.46 0 .71-.11.91-.19.17-.07.29-.12.57-.12.26 0 .48-.23.48-.51s-.21-.51-.47-.51zm-8.39-.235H7.93c-.397.095-.91.16-1.575.16-.664 0-1.178-.066-1.575-.16z" fill="#3A434E"/></g></svg>