<svg width="32" height="232" viewBox="0 0 32 232" xmlns="http://www.w3.org/2000/svg"><g fill="none"><path d="M28.38 146.832c-.257 0-.362-.044-.52-.11-.2-.083-.447-.186-.9-.186s-.7.103-.9.186c-.158.066-.263.11-.52.11s-.362-.044-.52-.11c-.2-.083-.447-.186-.9-.186s-.7.103-.9.186c-.158.066-.263.11-.52.11s-.362-.044-.52-.11c-.2-.083-.447-.186-.9-.186-.454 0-.7.103-.9.186-.16.066-.264.11-.52.11s-.363-.044-.522-.11c-.2-.083-.446-.186-.9-.186s-.7.103-.898.186c-.16.066-.264.11-.52.11s-.363-.044-.522-.11c-.2-.083-.446-.186-.9-.186s-.7.103-.898.186c-.16.066-.264.11-.52.11s-.363-.044-.52-.11c-.2-.083-.447-.186-.9-.186s-.7.103-.9.186c-.158.066-.262.11-.52.11s-.36-.044-.52-.11c-.2-.083-.446-.186-.9-.186s-.7.103-.898.186c-.16.066-.264.11-.52.11-.29 0-.522.25-.522.555 0 .307.233.555.52.555.454 0 .7-.103.9-.186.16-.066.264-.11.52-.11s.363.044.522.11c.2.083.446.186.9.186s.7-.103.898-.186c.16-.066.263-.11.52-.11s.362.044.52.11c.2.083.446.186.9.186s.7-.103.9-.186c.158-.066.262-.11.52-.11s.36.044.52.11c.2.083.446.186.9.186s.7-.103.898-.186c.16-.066.264-.11.52-.11s.363.044.522.11c.2.083.446.186.9.186s.7-.103.898-.186c.16-.066.264-.11.52-.11s.363.044.522.11c.2.083.446.186.9.186s.7-.103.9-.186c.158-.066.263-.11.52-.11s.362.044.52.11c.2.083.446.186.9.186s.7-.103.9-.186c.158-.066.263-.11.52-.11s.362.044.52.11c.2.083.447.186.9.186.288 0 .52-.25.52-.555 0-.307-.232-.555-.52-.555m3.4-9.403l-1.087-.84c-.197-.15-.464-.14-.647.03l-1.64 1.52-.124.11-.448-.07-.982-.14-.734-.62c-.13-.11-.3-.15-.46-.1l-1.542.45-.855-1.14-.07-.09-3.53-3.76-1.82-2.24-1.84-4.72c-.08-.21-.22-.39-.4-.51l-1.83-1.25c-.32-.22-.72-.23-1.06-.04-.33.19-.54.57-.54.97V126l-.91 1.107c-.11.136-.19.298-.23.47l-.07.298c-.24-.46-.71-.77-1.24-.77H1.45c-.35 0-.687.14-.95.385-.31.29-.487.71-.487 1.15 0 .438.177.856.487 1.147.262.242.6.38.947.38H5.7l-.018.205c0 .38.154.74.42.99.226.215.517.33.817.33h3.17l-.39 1.71-1.62 1.01c-.32.2-.52.563-.52.96v2.086h-.29c-.3 0-.59.135-.79.38l-.15.17-1.67-.35c-.08-.016-.16-.013-.24.01l-1.04.3-1.19-.62c-.26-.133-.57-.02-.7.258s-.02.604.24.74l1.37.71c.11.053.24.07.36.03l1.11-.32.96.2-.23.28-.15.244-1.95 4.265c-.1.22-.13.46-.09.686-.09.02-.18.04-.32.04-.26 0-.36-.04-.52-.11-.2-.08-.45-.19-.9-.19-.29 0-.52.25-.52.55 0 .31.23.56.52.56.26 0 .36.04.52.11.2.08.44.19.9.19s.7-.1.9-.18l.21-.07.23.03c.1 0 .2-.02.29-.05.113.02.194.06.3.1.2.085.444.188.9.188s.7-.103.896-.186c.16-.07.26-.11.52-.11s.36.04.52.11c.2.08.45.18.9.18s.7-.1.9-.183c.16-.07.265-.11.52-.11s.364.04.523.11c.2.08.445.184.9.184s.7-.1.897-.183c.16-.06.26-.11.52-.11s.36.05.52.11c.2.086.448.19.9.19s.7-.1.9-.186c.16-.067.26-.11.52-.11s.36.043.52.11c.2.08.447.185.9.185s.7-.1.9-.19c.16-.07.262-.11.52-.11s.36.04.52.11c.2.08.444.18.9.18s.7-.1.9-.18c.155-.064.26-.11.52-.11s.36.046.52.11c.2.085.444.19.9.19s.7-.1.9-.18c.16-.07.26-.11.52-.11s.36.04.52.11c.2.08.444.183.9.183s.7-.1.896-.184c.16-.065.268-.11.52-.11s.367.045.526.11c.2.084.444.187.9.187s.7-.105.9-.19c.156-.07.26-.11.52-.11s.36.04.52.11c.2.08.446.185.9.185.29 0 .52-.25.52-.553 0-.31-.23-.56-.52-.56-.258 0-.36-.04-.52-.11-.2-.08-.45-.183-.9-.183l-.316.02c-.005-.21-.07-.41-.19-.59l-.83-1.263-.09-.12-2-2.29-.1-.1-1.33-1.16.73-.22.64.535c.07.06.16.1.25.11l1.808.254h.07c.12 0 .242-.05.34-.14l1.63-1.515.75.58c.233.18.56.122.73-.127.165-.25.113-.59-.12-.77zM6.724 130.4c0-.08.042-.13.067-.155l.13-.052c.29 0 .52-.248.52-.555 0-.307-.23-.555-.52-.555H1.45c-.12 0-.208-.057-.26-.105-.05-.047-.133-.15-.133-.314s.086-.267.136-.314c.05-.048.138-.105.26-.105h8.26c.217 0 .393.188.393.42 0 .23-.176.418-.393.418-.29 0-.52.25-.52.555h-.01c0 .307.232.555.52.555h.735l-.094.416H6.92l-.13-.06c-.024-.03-.066-.08-.066-.16zm20.08 13.316l.334.507-.178-.006c-.454 0-.702.103-.9.186-.16.066-.264.11-.52.11s-.363-.044-.522-.11c-.2-.083-.446-.186-.9-.186s-.7.103-.898.186c-.16.066-.264.11-.52.11s-.363-.044-.522-.11c-.2-.083-.446-.186-.9-.186-.453 0-.7.103-.9.186-.158.066-.263.11-.52.11s-.362-.044-.52-.11c-.2-.083-.447-.186-.9-.186s-.7.103-.9.186c-.158.066-.263.11-.52.11s-.362-.044-.52-.11c-.2-.083-.447-.186-.9-.186s-.7.103-.9.186c-.158.066-.263.11-.52.11s-.362-.044-.52-.11c-.2-.083-.447-.186-.9-.186s-.7.103-.9.186c-.158.066-.263.11-.52.11s-.362-.044-.52-.11c-.2-.083-.447-.186-.9-.186s-.7.103-.9.186c-.158.066-.263.11-.52.11s-.362-.044-.52-.11c-.2-.083-.447-.186-.9-.186s-.7.103-.9.186c-.158.066-.263.11-.52.11-.194 0-.302-.025-.41-.066l1.746-3.812.764-.93h.86c.576 0 1.042-.498 1.042-1.11v-2.56l1.483-.923c.245-.153.422-.406.488-.7l.76-3.35c.11-.195.17-.42.17-.66v-.07l.44-1.936.53-.64.3 1.86.06.168.23.448-.22.447c-.09.17-.08.37.01.54l.54.97v2.33l-.21.52-.04.22v.82l-.51.63c-.082.1-.13.23-.13.36v.87c0 .15.06.3.17.41l.827.79.355.78.045.07.59.9c.096.15.254.23.424.23h.8l.68.5c.094.06.197.1.3.1.165 0 .327-.09.428-.24.165-.25.107-.6-.13-.78l-.814-.61c-.09-.067-.19-.1-.3-.1h-.69l-.41-.626-.38-.83-.12-.17-.724-.706v-.415l.514-.635c.08-.1.123-.23.123-.36v-.91l.22-.53.04-.22V132c0-.1-.02-.2-.07-.28l-.464-.838.062-.125.155-.306c.08-.16.08-.36 0-.52l-.32-.63-.196-1.21 1.34 3.46c.04.11.1.22.18.31l1.96 2.4.05.06 3.51 3.74 1.294 1.73.153.16 1.78 1.55 1.9 2.18zm-8.81-13.973h4.597c.29 0 .52-.25.52-.555 0-.307-.23-.555-.52-.555H18c-.288 0-.52.25-.52.555 0 .307.232.555.52.555zm1.823-1.5h7.767c.288 0 .52-.248.52-.554 0-.31-.232-.56-.52-.56h-7.767c-.288 0-.52.25-.52.55 0 .3.232.55.52.55z" fill="#206FAC"/><path d="M28.38 106.832c-.257 0-.362-.044-.52-.11-.2-.083-.447-.186-.9-.186s-.7.103-.9.186c-.158.066-.263.11-.52.11s-.362-.044-.52-.11c-.2-.083-.447-.186-.9-.186s-.7.103-.9.186c-.158.066-.263.11-.52.11s-.362-.044-.52-.11c-.2-.083-.447-.186-.9-.186-.454 0-.7.103-.9.186-.16.066-.264.11-.52.11s-.363-.044-.522-.11c-.2-.083-.446-.186-.9-.186s-.7.103-.898.186c-.16.066-.264.11-.52.11s-.363-.044-.522-.11c-.2-.083-.446-.186-.9-.186s-.7.103-.898.186c-.16.066-.264.11-.52.11s-.363-.044-.52-.11c-.2-.083-.447-.186-.9-.186s-.7.103-.9.186c-.158.066-.262.11-.52.11s-.36-.044-.52-.11c-.2-.083-.446-.186-.9-.186s-.7.103-.898.186c-.16.066-.264.11-.52.11-.29 0-.522.25-.522.555 0 .307.233.555.52.555.454 0 .7-.103.9-.186.16-.066.264-.11.52-.11s.363.044.522.11c.2.083.446.186.9.186s.7-.103.898-.186c.16-.066.263-.11.52-.11s.362.044.52.11c.2.083.446.186.9.186s.7-.103.9-.186c.158-.066.262-.11.52-.11s.36.044.52.11c.2.083.446.186.9.186s.7-.103.898-.186c.16-.066.264-.11.52-.11s.363.044.522.11c.2.083.446.186.9.186s.7-.103.898-.186c.16-.066.264-.11.52-.11s.363.044.522.11c.2.083.446.186.9.186s.7-.103.9-.186c.158-.066.263-.11.52-.11s.362.044.52.11c.2.083.446.186.9.186s.7-.103.9-.186c.158-.066.263-.11.52-.11s.362.044.52.11c.2.083.447.186.9.186.288 0 .52-.25.52-.555 0-.307-.232-.555-.52-.555m3.4-9.403l-1.087-.84c-.197-.15-.464-.14-.647.03l-1.64 1.52-.124.11-.448-.07-.982-.14-.734-.62c-.13-.11-.3-.15-.46-.1l-1.542.45-.855-1.14-.07-.09-3.53-3.76-1.82-2.24-1.84-4.7c-.08-.21-.22-.39-.4-.51l-1.83-1.25c-.32-.22-.72-.23-1.06-.04-.33.19-.54.57-.54.97v1l-.91 1.1c-.11.133-.19.295-.23.47l-.07.296c-.24-.46-.71-.77-1.24-.77H1.45c-.35 0-.687.14-.95.39-.31.29-.487.71-.487 1.15 0 .44.177.86.487 1.15.262.25.6.38.947.38H5.7l-.018.21c0 .38.154.74.42.99.226.22.517.33.817.33h3.17l-.39 1.71-1.62 1.01c-.32.2-.52.57-.52.96v2.09h-.29c-.3 0-.59.14-.79.38l-.15.18-1.67-.35c-.08-.015-.16-.01-.24.01l-1.04.3-1.19-.62c-.26-.13-.57-.02-.7.26s-.02.607.24.74l1.37.71c.11.06.24.07.36.035l1.11-.32.96.2-.23.28-.15.24-1.95 4.27c-.1.22-.13.46-.09.68-.09.02-.18.037-.33.037-.257 0-.36-.04-.52-.11-.2-.08-.447-.18-.9-.18-.288 0-.52.25-.52.554 0 .31.232.55.52.55.26 0 .362.05.52.11.2.09.45.19.9.19s.7-.1.9-.18l.212-.073.23.03c.1 0 .2-.01.3-.04.12.02.2.05.3.1.2.085.45.19.9.19s.7-.1.9-.19c.16-.068.266-.11.52-.11s.365.042.52.11c.2.08.45.184.9.184s.7-.1.9-.19c.16-.062.266-.11.52-.11s.365.048.52.11c.2.087.45.19.9.19s.7-.1.9-.184c.16-.06.266-.11.52-.11s.365.05.52.11c.2.09.45.19.9.19s.7-.1.9-.185c.16-.06.26-.11.52-.11s.36.05.52.11c.2.09.45.19.9.19s.7-.1.9-.18c.16-.07.27-.11.526-.11s.36.04.52.11c.2.08.45.183.9.183s.7-.11.9-.19c.16-.07.264-.11.52-.11s.36.04.52.11c.2.08.45.18.9.18s.7-.102.9-.185c.16-.068.265-.11.52-.11s.364.042.52.11c.2.08.45.184.9.184s.7-.1.9-.18c.16-.065.266-.11.52-.11s.365.045.524.11c.2.08.446.19.9.19s.7-.1.9-.187c.158-.07.26-.11.52-.11s.36.04.52.11c.2.08.448.186.9.186.29 0 .52-.25.52-.55 0-.31-.234-.56-.52-.56-.26 0-.364-.044-.524-.11-.2-.083-.442-.186-.9-.186l-.31.02c-.01-.21-.07-.42-.19-.6l-.83-1.26-.09-.12-2-2.29-.1-.1-1.33-1.16.74-.218.64.535c.07.06.16.1.25.11l1.805.26.07.008c.123 0 .245-.05.34-.14l1.63-1.51.752.58c.23.18.56.122.724-.127.17-.25.12-.59-.115-.77zM6.724 90.4c0-.08.042-.13.067-.155l.13-.052c.29 0 .52-.248.52-.555 0-.307-.23-.555-.52-.555H1.45c-.12 0-.208-.057-.26-.105-.05-.047-.133-.15-.133-.314s.086-.267.136-.314c.05-.048.138-.105.26-.105h8.26c.217 0 .393.188.393.42 0 .23-.176.418-.393.418-.29 0-.52.25-.52.555h-.01c0 .307.232.555.52.555h.735l-.094.416H6.92l-.13-.06c-.024-.03-.066-.08-.066-.16zm20.08 13.316l.334.507-.178-.006c-.454 0-.702.103-.9.186-.16.066-.264.11-.52.11s-.363-.044-.522-.11c-.2-.083-.446-.186-.9-.186s-.7.103-.898.186c-.16.066-.264.11-.52.11s-.363-.044-.522-.11c-.2-.083-.446-.186-.9-.186-.453 0-.7.103-.9.186-.158.066-.263.11-.52.11s-.362-.044-.52-.11c-.2-.083-.447-.186-.9-.186s-.7.103-.9.186c-.158.066-.263.11-.52.11s-.362-.044-.52-.11c-.2-.083-.447-.186-.9-.186s-.7.103-.9.186c-.158.066-.263.11-.52.11s-.362-.044-.52-.11c-.2-.083-.447-.186-.9-.186s-.7.103-.9.186c-.158.066-.263.11-.52.11s-.362-.044-.52-.11c-.2-.083-.447-.186-.9-.186s-.7.103-.9.186c-.158.066-.263.11-.52.11s-.362-.044-.52-.11c-.2-.083-.447-.186-.9-.186s-.7.103-.9.186c-.158.066-.263.11-.52.11-.194 0-.302-.025-.41-.066l1.746-3.812.764-.93h.86c.576 0 1.042-.498 1.042-1.11v-2.56l1.483-.923c.245-.153.422-.406.488-.7l.76-3.35c.11-.195.17-.42.17-.66v-.07l.44-1.936.53-.64.3 1.86.06.168.23.448-.22.447c-.09.17-.08.37.01.54l.54.97v2.33l-.21.52-.04.22v.82l-.51.63c-.08.1-.13.23-.13.36v.87c0 .15.06.3.17.41l.828.79.356.78.044.07.59.9c.098.15.256.23.426.23h.8l.68.5c.09.06.194.1.3.1.162 0 .324-.09.425-.24.16-.25.104-.6-.13-.78l-.817-.61c-.09-.067-.19-.1-.3-.1h-.69l-.417-.626-.38-.83-.12-.17-.725-.706v-.41l.514-.63c.08-.1.13-.23.13-.37v-.91l.214-.53.04-.22V92c0-.1-.026-.2-.07-.282l-.47-.838.06-.12.155-.3c.08-.16.08-.36 0-.52l-.32-.63-.19-1.205 1.34 3.46c.04.11.1.21.18.3l1.96 2.4.05.057 3.51 3.74 1.3 1.73.15.164 1.78 1.55 1.9 2.18zm-8.81-13.973h4.597c.29 0 .52-.25.52-.555 0-.307-.23-.555-.52-.555H18c-.288 0-.52.25-.52.555 0 .307.232.555.52.555zm1.823-1.5h7.767c.288 0 .52-.248.52-.554 0-.31-.232-.56-.52-.56h-7.767c-.288 0-.52.25-.52.55 0 .3.232.55.52.55z" fill="#fff"/><path d="M28.38 66.832c-.257 0-.362-.044-.52-.11-.2-.083-.447-.186-.9-.186s-.7.103-.9.186c-.158.066-.263.11-.52.11s-.362-.044-.52-.11c-.2-.083-.447-.186-.9-.186s-.7.103-.9.186c-.158.066-.263.11-.52.11s-.362-.044-.52-.11c-.2-.083-.447-.186-.9-.186-.454 0-.7.103-.9.186-.16.066-.264.11-.52.11s-.363-.044-.522-.11c-.2-.083-.446-.186-.9-.186s-.7.103-.898.186c-.16.066-.264.11-.52.11s-.363-.044-.522-.11c-.2-.083-.446-.186-.9-.186s-.7.103-.898.186c-.16.066-.264.11-.52.11s-.363-.044-.52-.11c-.2-.083-.447-.186-.9-.186s-.7.103-.9.186c-.158.066-.262.11-.52.11s-.36-.044-.52-.11c-.2-.083-.446-.186-.9-.186s-.7.103-.898.186c-.16.066-.264.11-.52.11-.29 0-.522.25-.522.555 0 .307.233.555.52.555.454 0 .7-.103.9-.186.16-.066.264-.11.52-.11s.363.044.522.11c.2.083.446.186.9.186s.7-.103.898-.186c.16-.066.263-.11.52-.11s.362.044.52.11c.2.083.446.186.9.186s.7-.103.9-.186c.158-.066.262-.11.52-.11s.36.044.52.11c.2.083.446.186.9.186s.7-.103.898-.186c.16-.066.264-.11.52-.11s.363.044.522.11c.2.083.446.186.9.186s.7-.103.898-.186c.16-.066.264-.11.52-.11s.363.044.522.11c.2.083.446.186.9.186s.7-.103.9-.186c.158-.066.263-.11.52-.11s.362.044.52.11c.2.083.446.186.9.186s.7-.103.9-.186c.158-.066.263-.11.52-.11s.362.044.52.11c.2.083.447.186.9.186.288 0 .52-.25.52-.555 0-.307-.232-.555-.52-.555m3.4-9.403l-1.087-.84c-.197-.15-.464-.14-.647.03l-1.64 1.52-.124.11-.448-.07-.982-.14-.734-.62c-.13-.11-.3-.15-.46-.1l-1.542.45-.855-1.14-.07-.09-3.53-3.76-1.82-2.24-1.84-4.7c-.08-.21-.22-.39-.4-.51l-1.83-1.25c-.32-.22-.72-.23-1.06-.04-.33.19-.54.57-.54.97v1l-.91 1.1c-.11.133-.19.295-.23.47l-.07.296c-.24-.46-.71-.77-1.24-.77H1.45c-.35 0-.687.14-.95.39-.31.29-.487.71-.487 1.15 0 .44.177.86.487 1.15.262.25.6.38.947.38H5.7l-.018.21c0 .38.154.74.42.99.226.22.517.33.817.33h3.17l-.39 1.71-1.62 1.01c-.32.2-.52.57-.52.96v2.09h-.29c-.3 0-.59.14-.79.38l-.15.18-1.67-.35c-.08-.015-.16-.01-.24.01l-1.04.3-1.19-.62c-.26-.13-.57-.02-.7.26s-.02.607.24.74l1.37.71c.11.06.24.07.36.035l1.11-.32.96.2-.23.28-.15.24-1.95 4.26c-.1.22-.13.46-.09.686-.09.024-.18.038-.33.038-.26 0-.36-.04-.52-.11-.2-.08-.45-.185-.9-.185-.29 0-.52.25-.52.557 0 .3.23.55.52.55.26 0 .36.04.52.11.2.08.45.182.9.182s.7-.1.9-.185l.21-.08.232.03c.1 0 .2-.017.3-.048.112.016.193.05.3.093.2.08.443.187.9.187s.7-.1.895-.184c.16-.07.266-.11.52-.11s.365.04.524.11c.2.08.446.18.9.18s.7-.1.898-.184c.16-.07.26-.11.52-.11s.36.04.52.11c.2.08.443.182.9.182s.7-.1.895-.18c.16-.063.26-.11.52-.11s.36.047.52.11c.2.086.442.19.9.19s.7-.103.9-.186c.16-.07.26-.11.52-.11s.36.04.52.11c.2.08.44.19.9.19s.7-.1.9-.19c.16-.07.26-.11.52-.11s.36.04.52.11c.2.08.443.19.9.19s.7-.107.9-.19c.16-.07.26-.11.52-.11s.36.04.52.11c.2.08.443.183.9.183s.7-.1.9-.184c.16-.064.26-.11.52-.11s.36.046.52.11c.2.08.442.19.9.19s.7-.1.894-.18c.16-.067.267-.11.52-.11s.366.043.525.11c.2.082.446.185.9.185s.7-.1.9-.18c.158-.07.26-.11.52-.11s.36.04.52.11c.2.08.448.186.9.186.29 0 .52-.25.52-.56 0-.31-.233-.556-.52-.556-.26 0-.363-.04-.523-.11-.2-.08-.45-.18-.9-.18l-.32.02c-.006-.21-.067-.42-.187-.6l-.83-1.264-.09-.12-2-2.29-.1-.1-1.33-1.16.74-.22.64.532c.07.06.16.1.25.11l1.805.256.07.01c.12 0 .24-.05.34-.14l1.63-1.52.75.58c.23.18.56.13.725-.12.17-.25.12-.6-.11-.78zM6.724 50.4c0-.08.042-.13.067-.155l.13-.052c.29 0 .52-.248.52-.555 0-.307-.23-.555-.52-.555H1.45c-.12 0-.208-.057-.26-.105-.05-.047-.133-.15-.133-.314s.086-.267.136-.314c.05-.048.138-.105.26-.105h8.26c.217 0 .393.188.393.42 0 .23-.176.418-.393.418-.29 0-.52.25-.52.555h-.01c0 .307.232.555.52.555h.735l-.094.416H6.92l-.13-.06c-.024-.03-.066-.08-.066-.16zm20.08 13.316l.334.507-.178-.006c-.454 0-.702.103-.9.186-.16.066-.264.11-.52.11s-.363-.044-.522-.11c-.2-.083-.446-.186-.9-.186s-.7.103-.898.186c-.16.066-.264.11-.52.11s-.363-.044-.522-.11c-.2-.083-.446-.186-.9-.186-.453 0-.7.103-.9.186-.158.066-.263.11-.52.11s-.362-.044-.52-.11c-.2-.083-.447-.186-.9-.186s-.7.103-.9.186c-.158.066-.263.11-.52.11s-.362-.044-.52-.11c-.2-.083-.447-.186-.9-.186s-.7.103-.9.186c-.158.066-.263.11-.52.11s-.362-.044-.52-.11c-.2-.083-.447-.186-.9-.186s-.7.103-.9.186c-.158.066-.263.11-.52.11s-.362-.044-.52-.11c-.2-.083-.447-.186-.9-.186s-.7.103-.9.186c-.158.066-.263.11-.52.11s-.362-.044-.52-.11c-.2-.083-.447-.186-.9-.186s-.7.103-.9.186c-.158.066-.263.11-.52.11-.194 0-.302-.025-.41-.066l1.746-3.812.764-.93h.86c.576 0 1.042-.498 1.042-1.11v-2.56l1.483-.923c.245-.153.422-.406.488-.7l.76-3.35c.11-.195.17-.42.17-.66v-.07l.44-1.936.53-.64.3 1.86.06.168.23.448-.22.447c-.09.17-.08.37.01.54l.54.97v2.33l-.21.52-.04.22v.82l-.51.63c-.08.1-.13.23-.13.36v.87c0 .15.06.3.17.41l.828.79.356.78.044.07.59.9c.098.15.256.23.426.23h.8l.68.5c.09.06.194.1.3.1.162 0 .324-.09.425-.24.16-.25.104-.6-.13-.78l-.817-.61c-.09-.067-.19-.1-.3-.1h-.69l-.417-.626-.38-.83-.12-.17-.725-.706v-.41l.514-.63c.08-.1.13-.23.13-.37v-.91l.214-.53.04-.22V52c0-.1-.026-.2-.07-.282l-.47-.838.06-.12.155-.3c.08-.16.08-.36 0-.52l-.32-.63-.19-1.205 1.34 3.46c.04.11.1.21.18.3l1.96 2.4.05.057 3.51 3.74 1.3 1.73.15.164 1.78 1.55 1.9 2.18zm-8.81-13.973h4.597c.29 0 .52-.25.52-.555 0-.307-.23-.555-.52-.555H18c-.288 0-.52.25-.52.555 0 .307.232.555.52.555zm1.823-1.5h7.767c.288 0 .52-.248.52-.554 0-.31-.232-.56-.52-.56h-7.767c-.288 0-.52.25-.52.55 0 .3.232.55.52.55z" fill="#67737B"/><path d="M28.38 26.832c-.257 0-.362-.044-.52-.11-.2-.083-.447-.186-.9-.186s-.7.103-.9.186c-.158.066-.263.11-.52.11s-.362-.044-.52-.11c-.2-.083-.447-.186-.9-.186s-.7.103-.9.186c-.158.066-.263.11-.52.11s-.362-.044-.52-.11c-.2-.083-.447-.186-.9-.186-.454 0-.7.103-.9.186-.16.066-.264.11-.52.11s-.363-.044-.522-.11c-.2-.083-.446-.186-.9-.186s-.7.103-.898.186c-.16.066-.264.11-.52.11s-.363-.044-.522-.11c-.2-.083-.446-.186-.9-.186s-.7.103-.898.186c-.16.066-.264.11-.52.11s-.363-.044-.52-.11c-.2-.083-.447-.186-.9-.186s-.7.103-.9.186c-.158.066-.262.11-.52.11s-.36-.044-.52-.11c-.2-.083-.446-.186-.9-.186s-.7.103-.898.186c-.16.066-.264.11-.52.11-.29 0-.522.25-.522.555 0 .307.233.555.52.555.454 0 .7-.103.9-.186.16-.066.264-.11.52-.11s.363.044.522.11c.2.083.446.186.9.186s.7-.103.898-.186c.16-.066.263-.11.52-.11s.362.044.52.11c.2.083.446.186.9.186s.7-.103.9-.186c.158-.066.262-.11.52-.11s.36.044.52.11c.2.083.446.186.9.186s.7-.103.898-.186c.16-.066.264-.11.52-.11s.363.044.522.11c.2.083.446.186.9.186s.7-.103.898-.186c.16-.066.264-.11.52-.11s.363.044.522.11c.2.083.446.186.9.186s.7-.103.9-.186c.158-.066.263-.11.52-.11s.362.044.52.11c.2.083.446.186.9.186s.7-.103.9-.186c.158-.066.263-.11.52-.11s.362.044.52.11c.2.083.447.186.9.186.288 0 .52-.25.52-.555 0-.307-.232-.555-.52-.555m3.4-9.403l-1.087-.84c-.197-.15-.464-.14-.647.03l-1.64 1.52-.124.11-.448-.07-.982-.14-.734-.62c-.13-.11-.3-.15-.46-.1l-1.542.45-.855-1.14-.07-.09-3.53-3.76-1.82-2.24L16 5.84c-.083-.21-.224-.39-.404-.51l-1.84-1.24c-.32-.22-.726-.23-1.06-.037-.332.195-.54.568-.54.973V6.03l-.91 1.108c-.11.135-.19.297-.227.472l-.07.297c-.25-.462-.72-.774-1.25-.774H1.44c-.35 0-.685.136-.95.383-.307.29-.485.71-.485 1.147 0 .438.175.856.485 1.147.264.247.6.383.95.383h4.254l-.017.208c0 .38.154.74.42.99.226.22.517.33.817.33h3.177l-.38 1.71-1.61 1.01c-.32.2-.51.57-.51.96v2.09h-.3c-.3 0-.58.14-.78.38l-.14.18-1.67-.35c-.07-.01-.15-.01-.23.01l-1.04.3-1.2-.62c-.26-.13-.57-.02-.7.26s-.02.61.24.75l1.37.71c.12.06.24.07.37.04l1.11-.32.96.2-.23.28-.15.25-1.95 4.26c-.1.22-.12.46-.09.69-.08.03-.18.04-.32.04-.26 0-.36-.04-.52-.11-.2-.08-.45-.18-.9-.18-.29 0-.52.25-.52.56 0 .31.23.56.52.56.26 0 .36.04.52.11.2.08.45.183.9.183s.7-.1.9-.18l.21-.075.24.03c.1 0 .2-.01.3-.043.115.02.2.05.3.098.2.08.45.18.9.18s.7-.1.9-.18c.16-.07.263-.11.52-.11s.36.04.52.11c.2.08.45.185.9.185s.7-.1.9-.182c.16-.07.265-.11.52-.11s.364.04.523.11c.2.08.446.184.9.184s.7-.104.898-.187c.16-.06.27-.11.52-.11s.37.05.52.11c.2.088.45.19.9.19s.7-.1.9-.184c.16-.065.27-.11.52-.11s.36.045.52.11c.2.084.45.19.9.19s.7-.1.9-.187c.16-.07.27-.11.53-.11s.367.04.52.11c.2.08.45.186.9.186s.7-.1.9-.187c.16-.066.268-.11.52-.11s.367.044.52.11c.2.08.45.186.9.186s.7-.1.9-.18c.16-.07.27-.11.52-.11s.368.04.527.11c.2.08.444.184.9.184s.7-.1.896-.18c.16-.064.27-.11.52-.11s.37.046.525.11c.2.085.442.19.9.19s.7-.105.9-.19c.154-.06.26-.11.52-.11s.36.05.52.11c.2.08.444.19.9.19.29 0 .52-.25.52-.554 0-.304-.238-.552-.52-.552-.26 0-.368-.04-.528-.11-.2-.08-.45-.183-.9-.183l-.317.02c-.003-.21-.064-.413-.184-.6l-.836-1.26-.09-.12-2-2.29-.1-.1-1.33-1.16.734-.217.64.535c.07.06.16.1.25.11l1.803.26.07.01c.13 0 .25-.05.34-.137l1.63-1.51.757.58c.23.18.56.12.724-.13.17-.25.12-.596-.114-.775zM6.724 10.4c0-.08.042-.13.067-.155l.13-.052c.29 0 .52-.248.52-.555 0-.307-.23-.555-.52-.555H1.45c-.12 0-.208-.057-.26-.105-.05-.047-.133-.15-.133-.314s.086-.267.136-.314c.05-.048.138-.105.26-.105h8.26c.217 0 .393.188.393.42 0 .23-.176.418-.393.418-.29 0-.52.25-.52.555h-.01c0 .307.232.555.52.555h.735l-.094.416H6.92l-.13-.06c-.024-.03-.066-.08-.066-.16zm20.08 13.316l.334.507-.178-.006c-.454 0-.702.103-.9.186-.16.066-.264.11-.52.11s-.363-.044-.522-.11c-.2-.083-.446-.186-.9-.186s-.7.103-.898.186c-.16.066-.264.11-.52.11s-.363-.044-.522-.11c-.2-.083-.446-.186-.9-.186-.453 0-.7.103-.9.186-.158.066-.263.11-.52.11s-.362-.044-.52-.11c-.2-.083-.447-.186-.9-.186s-.7.103-.9.186c-.158.066-.263.11-.52.11s-.362-.044-.52-.11c-.2-.083-.447-.186-.9-.186s-.7.103-.9.186c-.158.066-.263.11-.52.11s-.362-.044-.52-.11c-.2-.083-.447-.186-.9-.186s-.7.103-.9.186c-.158.066-.263.11-.52.11s-.362-.044-.52-.11c-.2-.083-.447-.186-.9-.186s-.7.103-.9.186c-.158.066-.263.11-.52.11s-.362-.044-.52-.11c-.2-.083-.447-.186-.9-.186s-.7.103-.9.186c-.158.066-.263.11-.52.11-.194 0-.302-.025-.41-.066l1.746-3.812.764-.93h.86c.576 0 1.042-.498 1.042-1.11v-2.56l1.483-.923c.245-.153.422-.406.488-.7l.76-3.35c.11-.195.17-.42.17-.66v-.07L13 8.396l.525-.64.3 1.86.056.168.23.448-.22.447c-.09.17-.08.37.01.54l.54.97v2.33l-.21.52-.04.22v.82l-.51.63c-.08.1-.13.23-.13.36v.87c0 .15.06.3.17.41l.83.79.35.78.05.07.6.9c.1.15.258.23.428.23h.8l.68.5c.094.06.197.1.3.1.165 0 .327-.09.428-.24.164-.25.106-.6-.13-.78l-.815-.61c-.09-.067-.19-.1-.3-.1h-.69l-.41-.626-.38-.83-.12-.17-.72-.706v-.41l.517-.63c.08-.1.13-.23.13-.37v-.91l.215-.53.044-.22V12c0-.1-.03-.2-.07-.282l-.47-.838.06-.12.15-.3c.08-.16.08-.36 0-.52l-.32-.63-.197-1.205L16 11.58c.04.11.1.212.176.302l1.96 2.4.05.057 3.51 3.74 1.3 1.73.15.17 1.78 1.55 1.9 2.18zm-8.81-13.973h4.597c.29 0 .52-.25.52-.555 0-.307-.23-.555-.52-.555H18c-.288 0-.52.25-.52.555 0 .307.232.555.52.555zm1.823-1.5h7.767c.288 0 .52-.248.52-.554 0-.31-.232-.56-.52-.56h-7.767c-.288 0-.52.25-.52.55 0 .3.232.55.52.55z" fill="#3A434E"/></g></svg>