<svg width="32" height="232" viewBox="0 0 32 232" xmlns="http://www.w3.org/2000/svg"><g fill="none"><path d="M31.046 148.208h-1.18l-1.076-1.445c-.088-.118-.224-.187-.368-.187h-.04l-1.248-3.902c-.05-.16-.178-.276-.33-.315l-.364-3.78c-.01-.12-.06-.22-.133-.29v-1.69h1.96c.258 0 .466-.22.466-.49s-.208-.48-.465-.48H26.18c-.1-.21-.254-.38-.443-.5V135c.17-.115.273-.31.273-.52 0-.23-.12-.44-.314-.55l-.02-.013-.013-.02c-.106-.2-.31-.326-.53-.326-.22 0-.423.13-.53.33l-.012.02-.02.02c-.19.11-.31.32-.31.55 0 .21.11.41.28.52v.14c-.32.21-.55.57-.57.99v1.64h-1.92c-.26 0-.46.22-.46.48v.55h-.55V137c0-.265-.21-.48-.46-.48h-1.64l-.54-5.6c-.04-.41-.32-.74-.69-.836v-3.345c-.03-.72-.47-1.31-1.08-1.55v-.65l.01-.01.15-.09c.2-.11.32-.32.32-.55 0-.23-.12-.44-.31-.55l-.15-.09-.08-.16c-.1-.2-.31-.33-.53-.33-.22 0-.42.12-.53.32l-.08.15-.15.08c-.19.11-.31.32-.31.55 0 .22.12.44.32.55l.15.08.01.01v.643c-.604.24-1.044.836-1.08 1.55v3.344c-.37.1-.65.424-.69.834l-.6 6.216H11.8c-.258 0-.466.22-.466.48v1.32h-.836v-.675c0-.263-.21-.48-.465-.48h-2v-1.64c-.02-.424-.244-.785-.57-.99v-.1c.17-.116.273-.31.273-.523 0-.23-.12-.44-.314-.55l-.03-.01-.01-.024c-.11-.2-.31-.326-.53-.326-.22 0-.43.125-.53.326l-.01.023-.02.01c-.2.11-.32.32-.32.55 0 .21.1.406.27.52v.13c-.19.12-.346.29-.446.497H3.44c-.256 0-.464.216-.464.48s.208.48.465.48h2.24v1.688c-.07.08-.12.18-.13.29l-.36 3.78c-.15.04-.28.16-.33.32l-1.25 3.91h-.04c-.14 0-.28.07-.37.19l-1.08 1.45H.94c-.514 0-.93.43-.93.96s.416.97.93.97h30.11c.515 0 .93-.43.93-.96s-.415-.96-.93-.96zm-19.47 0l-1.034-1.388.24-.324h10.41l.242.324-1.034 1.388h-8.824zm-5.156-9.094h.847l.312 3.23H6.11l.31-3.23zm.18-2.504v-.434c.01-.13.116-.232.244-.232.13 0 .234.1.244.232v1.92H6.6v-1.486zm8.633-9.82c.012-.203.1-.385.232-.517.137-.135.32-.218.524-.218s.38.083.52.218c.13.132.22.314.23.518v3.28h-1.51v-3.28zm9.585 21.42h-3.243l.447-.6.052-.07h6.12l.5.668h-3.876zm2.404-2.197l.17.53h-4.515l.17-.53.02.002H27.2l.024-.002zm-.307-.96h-3.563l.126-.396h3.31l.127.395zm-3.13-1.36l.124-.386h2.44l.12.387h-2.69zm.925-4.578h.847l.312 3.23H24.4l.31-3.23zm.668-1.017h-.488v-1.92c.01-.132.116-.233.243-.233.128 0 .234.1.244.232v1.92zm-11.04 1.114h3.3l.526 1.713h-1.148l-.06-.037-.797-.416c-.14-.072-.31-.068-.44.01l-.72.415-.05.028H13.8l.526-1.713zm-.163 5.36v-2.158h.588v2.64h-.588v-.482zm1.52-2.64v-.333l.266-.16.33.16v3.44h-.59v-3.12zm2.107.918v2.203h-.59v-2.64h.59v.437zm.93.01h.31l.82 1.712h-1.13v-1.713zm-5.797 0h.312v1.712h-1.13l.818-1.713zm-7.315.448h2.448l.123.387H5.5l.123-.387zm2.88 1.35l.126.395H5.063l.127-.395H8.5zm.295 1.358h.04l.096-.01.18.537H4.59l.17-.527H8.8zm-5.01 1.525h6.12l.052.07.447.6H3.286l.5-.66zm16.302-10.04v1.8c0 .27.208.48.465.48h1.488c.257 0 .465-.21.465-.48v-.55h1.307l-.348 3.61c-.153.04-.28.16-.33.32l-.73 2.29-.015-.02c-.11-.14-.26-.25-.43-.32l-1.51-3.16c-.07-.13-.16-.25-.28-.34l-.98-3.17c-.04-.13-.11-.25-.2-.35v-.11h1.08zm-5.148-.96l.43-4.54h1.23l.44 4.54h-2.1zm-5.41 2.21v.68c0 .27.2.48.46.48h1.76c.25 0 .46-.21.46-.48v-1.31h.49l-.93 3.02c-.12.09-.21.21-.28.34l-1.5 3.16c-.17.06-.31.17-.42.32l-.01.02-.74-2.29c-.05-.16-.18-.27-.33-.31l-.35-3.61h1.37zm1.94-6.81c.08.07.18.1.28.1.1 0 .2-.03.28-.09.18-.14.24-.39.13-.6l-.03-.05c-.09-.13-.23-.21-.39-.21-.1 0-.2.04-.28.1-.11.09-.18.22-.19.35-.01.14.04.28.13.38l.04.05zm9.01-5.59c.08.07.18.1.28.1.1 0 .19-.03.28-.09.18-.14.24-.39.14-.6l-.14-.17c-.16-.12-.4-.12-.56 0-.18.14-.24.4-.14.61l.13.17zm1.05 5.75c.08.07.18.1.28.1.1 0 .19-.03.27-.09.18-.14.24-.39.13-.6l-.14-.17c-.16-.12-.4-.12-.56 0-.19.14-.24.4-.14.61l.13.17zm-15.2-2.68l.38.22.21.4c.08.16.23.25.4.25s.32-.09.4-.25l.21-.4.38-.22c.15-.08.24-.24.24-.42s-.09-.33-.24-.42l-.39-.22-.21-.4c-.08-.15-.24-.25-.41-.25-.17 0-.33.1-.41.25l-.22.4-.39.22c-.15.09-.24.25-.24.42s.09.34.24.43zm16.54-5.55l.38.22.21.4c.08.16.24.25.41.25.17 0 .32-.09.4-.25l.21-.4.39-.22c.15-.08.24-.24.24-.42s-.1-.33-.24-.42l-.39-.22-.21-.4c-.08-.15-.24-.25-.41-.25-.17 0-.33.1-.41.25l-.21.4-.39.22c-.15.09-.24.25-.24.42 0 .18.09.34.24.43zm.2 7.86c0 .27.21.48.46.48h2.83c.25 0 .46-.21.46-.48s-.21-.48-.47-.48h-2.83c-.26 0-.47.22-.47.48z" fill="#206FAC"/><path d="M31.046 108.208h-1.18l-1.076-1.445c-.088-.118-.224-.187-.368-.187h-.04l-1.248-3.902c-.05-.16-.178-.276-.33-.315l-.364-3.78c-.01-.12-.06-.22-.133-.29v-1.68h1.96c.258 0 .466-.22.466-.49s-.208-.48-.465-.48H26.18c-.1-.21-.254-.38-.443-.5v-.13c.17-.11.273-.31.273-.52 0-.23-.12-.44-.314-.55l-.02-.01-.013-.02c-.106-.2-.31-.33-.53-.33-.22 0-.423.12-.53.32l-.012.02-.02.01c-.19.11-.31.32-.31.55 0 .21.11.4.28.52v.13c-.32.2-.55.56-.57.98v1.64h-1.92c-.26 0-.46.21-.46.48v.55h-.55V97c0-.27-.21-.48-.46-.48h-1.64l-.54-5.6c-.04-.41-.32-.74-.69-.84v-3.34c-.03-.717-.47-1.31-1.08-1.55v-.644l.01-.02.15-.084c.2-.11.32-.32.32-.55 0-.226-.12-.436-.31-.546l-.15-.083-.08-.156c-.1-.2-.31-.323-.53-.323-.22 0-.42.123-.53.324l-.08.157-.15.088c-.19.11-.31.32-.31.55 0 .226.12.44.32.55l.15.082.01.015v.64c-.604.24-1.044.838-1.08 1.55v3.34c-.37.098-.65.426-.69.836l-.6 6.21H11.8c-.258 0-.466.215-.466.48v1.315h-.836v-.67c0-.27-.21-.48-.465-.48h-2v-1.64c-.02-.42-.244-.78-.57-.98V95c.17-.115.273-.31.273-.522 0-.23-.12-.44-.314-.55l-.03-.01-.01-.026c-.11-.2-.31-.325-.53-.325-.22 0-.43.13-.53.33l-.01.023-.02.01c-.2.11-.32.32-.32.55 0 .212.1.407.27.522v.132c-.19.115-.346.285-.446.49H3.44c-.256 0-.464.217-.464.483s.208.48.465.48h2.24v1.68c-.07.077-.12.177-.13.29l-.36 3.775c-.15.04-.28.154-.33.314l-1.26 3.92h-.04c-.14 0-.28.07-.37.186l-1.07 1.446H.94c-.516 0-.93.43-.93.96s.414.964.93.964h30.11c.515 0 .93-.43.93-.963s-.415-.96-.93-.96zm-19.47 0l-1.034-1.388.24-.324h10.41l.242.324-1.034 1.388h-8.824zM6.42 99.114h.847l.312 3.23H6.11l.31-3.23zm.18-2.504v-.434c.01-.13.116-.232.244-.232.13 0 .234.1.244.232v1.92H6.6V96.61zm8.633-9.82c.012-.203.1-.385.232-.517.137-.135.32-.218.524-.218s.38.083.52.218c.13.132.22.314.23.518v3.28h-1.51v-3.28zm9.585 21.42h-3.243l.447-.6.052-.07h6.12l.5.668h-3.876zm2.404-2.197l.17.53h-4.515l.17-.53.02.002H27.2l.024-.002zm-.307-.96h-3.563l.126-.396h3.31l.127.395zm-3.13-1.36l.124-.386h2.44l.12.387h-2.69zm.925-4.578h.847l.312 3.23H24.4l.31-3.23zm.668-1.017h-.488v-1.92c.01-.132.116-.233.243-.233.128 0 .234.1.244.232v1.92zm-11.04 1.114h3.3l.526 1.713h-1.148l-.06-.037-.797-.416c-.14-.072-.31-.068-.44.01l-.72.415-.05.028H13.8l.526-1.713zm-.163 5.36v-2.158h.588v2.64h-.588v-.482zm1.52-2.64v-.333l.266-.16.33.16v3.44h-.59v-3.12zm2.107.918v2.203h-.59v-2.64h.59v.437zm.93.01h.31l.82 1.712h-1.13v-1.713zm-5.797 0h.312v1.712h-1.13l.818-1.713zm-7.315.448h2.448l.123.387H5.5l.123-.387zm2.88 1.35l.126.395H5.063l.127-.395H8.5zm.295 1.358h.04l.096-.01.18.537H4.59l.17-.527H8.8zm-5.01 1.525h6.12l.052.07.447.6H3.286l.5-.66zM20.087 97.5v1.8c0 .265.208.48.465.48h1.488c.257 0 .465-.216.465-.48v-.55h1.307l-.348 3.61c-.153.04-.28.155-.33.315l-.73 2.29-.015-.02c-.11-.147-.26-.256-.43-.318l-1.51-3.158c-.07-.14-.16-.26-.28-.34l-.98-3.18c-.04-.14-.11-.25-.2-.35l-.01-.11h1.08zm-5.148-.962l.43-4.54h1.23l.44 4.54h-2.1zM9.53 98.75v.677c0 .266.207.48.464.48h1.767c.26 0 .47-.215.47-.48v-1.313h.5l-.92 3.017c-.11.09-.21.21-.27.34l-1.51 3.16c-.16.06-.31.17-.42.32l-.01.02-.73-2.29c-.05-.16-.18-.27-.33-.31l-.35-3.61h1.36zm1.943-6.814c.08.063.18.097.28.097.1 0 .2-.033.28-.096.18-.14.238-.393.137-.602l-.03-.052c-.085-.133-.23-.213-.386-.213-.1 0-.198.033-.278.095-.108.084-.176.213-.186.352-.01.14.04.278.136.376l.047.043zm9.016-5.588c.08.063.18.098.28.098.1 0 .19-.034.27-.096.18-.14.24-.393.14-.602l-.14-.17c-.16-.125-.4-.125-.56 0-.18.14-.24.394-.14.603l.13.17zm1.05 5.748c.08.063.18.097.28.097.1 0 .2-.033.28-.095.18-.14.23-.393.13-.602l-.14-.17c-.16-.125-.4-.125-.56 0-.19.14-.24.394-.14.603l.13.16zm-15.2-2.684l.38.22.21.4c.08.154.23.25.4.25s.32-.096.4-.25l.21-.4.38-.22c.15-.085.24-.246.24-.422s-.1-.338-.24-.422l-.39-.22-.22-.4c-.08-.154-.24-.25-.41-.25-.17 0-.33.096-.41.25l-.22.4-.39.22c-.15.085-.24.246-.24.422s.09.338.24.422zm16.54-5.557l.38.22.21.4c.08.155.24.25.41.25.17 0 .32-.096.4-.25l.21-.4.39-.22c.15-.084.24-.246.24-.422s-.09-.338-.24-.422l-.39-.21-.21-.4c-.08-.15-.24-.25-.41-.25-.17 0-.33.1-.41.25l-.21.4-.39.22c-.15.09-.24.25-.24.42 0 .18.09.34.24.43zm.2 7.856c0 .27.21.49.46.49h2.83c.25 0 .46-.21.46-.48s-.21-.48-.47-.48h-2.83c-.26 0-.47.22-.47.48z" fill="#fff"/><path d="M31.046 68.208h-1.18l-1.076-1.445c-.088-.118-.224-.187-.368-.187h-.04l-1.248-3.902c-.05-.16-.178-.276-.33-.315l-.364-3.78c-.01-.12-.06-.22-.133-.29v-1.68h1.96c.258 0 .466-.22.466-.49s-.208-.48-.465-.48H26.18c-.1-.21-.254-.38-.443-.5v-.13c.17-.11.273-.31.273-.52 0-.23-.12-.44-.314-.55l-.02-.01-.013-.02c-.106-.2-.31-.33-.53-.33-.22 0-.423.12-.53.32l-.012.02-.02.01c-.19.11-.31.32-.31.55 0 .21.11.4.28.52v.13c-.32.2-.55.56-.57.98v1.64h-1.92c-.26 0-.46.21-.46.48v.55h-.55V57c0-.27-.21-.48-.46-.48h-1.64l-.54-5.6c-.04-.41-.32-.74-.69-.84v-3.34c-.03-.717-.47-1.31-1.08-1.55v-.644l.01-.02.15-.084c.2-.11.32-.32.32-.55 0-.226-.12-.436-.31-.546l-.15-.083-.08-.156c-.1-.2-.31-.323-.53-.323-.22 0-.42.123-.53.324l-.08.157-.15.088c-.19.11-.31.32-.31.55 0 .226.12.44.32.55l.15.082.01.015v.64c-.604.24-1.044.838-1.08 1.55v3.34c-.37.098-.65.426-.69.836l-.6 6.21H11.8c-.258 0-.466.215-.466.48v1.315h-.836v-.67c0-.27-.21-.48-.465-.48h-2v-1.64c-.02-.42-.244-.78-.57-.98V55c.17-.115.273-.31.273-.522 0-.23-.12-.44-.314-.55l-.03-.01-.01-.026c-.11-.2-.31-.325-.53-.325-.22 0-.43.13-.53.33l-.01.023-.02.01c-.2.11-.32.32-.32.55 0 .212.1.407.27.522v.132c-.19.115-.346.285-.446.49H3.44c-.256 0-.464.217-.464.483s.208.48.465.48h2.24v1.68c-.07.077-.12.177-.13.29l-.36 3.77c-.15.04-.28.154-.33.314L3.6 66.57h-.04c-.143 0-.28.07-.37.187L2.118 68.21H.938c-.516 0-.93.43-.93.962s.414.963.93.963H31.05c.515 0 .93-.43.93-.963s-.415-.963-.93-.963zm-19.47 0l-1.034-1.388.24-.324h10.41l.242.324-1.034 1.388h-8.824zM6.42 59.114h.847l.312 3.23H6.11l.31-3.23zm.18-2.504v-.434c.01-.13.116-.232.244-.232.13 0 .234.1.244.232v1.92H6.6V56.61zm8.633-9.82c.012-.203.1-.385.232-.517.137-.135.32-.218.524-.218s.38.083.52.218c.13.132.22.314.23.518v3.28h-1.51v-3.28zm9.585 21.42h-3.243l.447-.6.052-.07h6.12l.5.668h-3.876zm2.404-2.197l.17.53h-4.515l.17-.53.02.002H27.2l.024-.002zm-.307-.96h-3.563l.126-.396h3.31l.127.395zm-3.13-1.36l.124-.386h2.44l.12.387h-2.69zm.925-4.578h.847l.312 3.23H24.4l.31-3.23zm.668-1.017h-.488v-1.92c.01-.132.116-.233.243-.233.128 0 .234.1.244.232v1.92zm-11.04 1.114h3.3l.526 1.713h-1.148l-.06-.037-.797-.416c-.14-.072-.31-.068-.44.01l-.72.415-.05.028H13.8l.526-1.713zm-.163 5.36v-2.158h.588v2.64h-.588v-.482zm1.52-2.64V61.6l.266-.155.33.167v3.44h-.59v-3.12zm2.107.918v2.203h-.59v-2.64h.59v.437zm.93.01h.31l.82 1.712h-1.13V62.86zm-5.797 0h.312v1.712h-1.13l.818-1.713zm-7.315.448h2.448l.123.387H5.5l.123-.387zm2.88 1.35l.126.395H5.063l.127-.395H8.5zm.295 1.358h.04l.096-.01.18.537H4.59l.17-.527H8.8zm-5.01 1.525h6.12l.052.07.447.6H3.286l.5-.66zM20.087 57.5v1.8c0 .265.208.48.465.48h1.488c.257 0 .465-.216.465-.48v-.55h1.307l-.348 3.61c-.153.04-.28.155-.33.315l-.73 2.29-.015-.02c-.11-.147-.26-.256-.43-.318l-1.51-3.158c-.07-.14-.16-.26-.28-.34l-.98-3.18c-.04-.14-.11-.25-.2-.35l-.01-.11h1.08zm-5.148-.962l.43-4.54h1.23l.44 4.54h-2.1zM9.53 58.75v.677c0 .266.207.48.464.48h1.767c.26 0 .47-.215.47-.48v-1.313h.5l-.93 3.016c-.11.09-.21.205-.27.34l-1.51 3.16c-.16.06-.31.17-.42.32l-.01.02-.73-2.29c-.05-.16-.18-.278-.33-.317l-.35-3.61h1.36zm1.943-6.814c.08.063.18.097.28.097.1 0 .2-.033.28-.096.18-.14.238-.393.137-.602l-.03-.052c-.085-.133-.23-.213-.386-.213-.1 0-.198.033-.278.095-.108.084-.176.213-.186.352-.01.14.04.278.136.376l.047.043zm9.016-5.588c.08.063.18.098.28.098.1 0 .19-.034.27-.096.18-.14.24-.393.14-.602l-.14-.17c-.16-.125-.4-.125-.56 0-.18.14-.24.394-.14.603l.13.17zm1.05 5.748c.08.063.18.097.28.097.1 0 .2-.033.28-.095.18-.14.23-.393.13-.602l-.14-.17c-.16-.125-.4-.125-.56 0-.19.14-.24.394-.14.603l.13.16zm-15.2-2.684l.38.22.21.4c.08.154.23.25.4.25s.32-.096.4-.25l.21-.4.38-.22c.15-.085.24-.246.24-.422s-.1-.338-.24-.422l-.39-.22-.22-.4c-.08-.154-.24-.25-.41-.25-.17 0-.33.096-.41.25l-.22.4-.39.22c-.15.085-.24.246-.24.422s.09.338.24.422zm16.54-5.557l.38.22.21.4c.08.155.24.25.41.25.17 0 .32-.096.4-.25l.21-.4.39-.22c.15-.084.24-.246.24-.422s-.09-.338-.24-.422l-.39-.21-.21-.4c-.08-.15-.24-.25-.41-.25-.17 0-.33.1-.41.25l-.21.4-.39.22c-.15.09-.24.25-.24.42 0 .18.09.34.24.43zm.2 7.856c0 .27.21.49.46.49h2.83c.25 0 .46-.21.46-.48s-.21-.48-.47-.48h-2.83c-.26 0-.47.22-.47.48z" fill="#67737B"/><path d="M31.046 28.208h-1.18l-1.076-1.445c-.088-.118-.224-.187-.368-.187h-.04l-1.248-3.902c-.05-.16-.178-.276-.33-.315l-.364-3.78c-.01-.12-.06-.22-.133-.29v-1.68h1.96c.258 0 .466-.22.466-.49s-.208-.48-.465-.48H26.18c-.1-.21-.254-.38-.443-.5v-.13c.17-.11.273-.31.273-.52 0-.23-.12-.44-.314-.55l-.02-.01-.013-.02c-.106-.2-.31-.33-.53-.33-.22 0-.423.12-.53.32l-.012.02-.02.01c-.19.11-.31.32-.31.55 0 .21.11.4.28.52v.13c-.32.2-.55.56-.57.98v1.64h-1.92c-.26 0-.46.21-.46.48v.55h-.55V17c0-.27-.21-.48-.46-.48h-1.64l-.54-5.6c-.04-.41-.32-.74-.69-.84V6.75c-.03-.71-.47-1.304-1.08-1.545v-.643l.01-.014.15-.085c.2-.11.32-.32.32-.55 0-.228-.12-.438-.31-.548l-.15-.085-.08-.155c-.1-.2-.31-.325-.53-.325-.22 0-.42.125-.53.326l-.08.15-.15.085c-.19.11-.31.32-.31.55 0 .23.12.44.32.55l.15.09.01.02v.65c-.604.24-1.044.84-1.08 1.55v3.35c-.37.1-.65.43-.69.84l-.6 6.21H11.8c-.258 0-.466.22-.466.48v1.32h-.836v-.67c0-.26-.21-.48-.465-.48h-2v-1.64c-.02-.42-.244-.78-.57-.98v-.13c.17-.11.273-.31.273-.52 0-.23-.12-.44-.314-.55l-.03-.01-.01-.02c-.11-.2-.31-.326-.53-.326-.22 0-.43.13-.53.33l-.01.024-.02.01c-.2.11-.32.32-.32.55 0 .214.1.41.27.524v.13c-.19.12-.346.29-.446.49H3.44c-.256 0-.464.22-.464.487s.208.48.465.48h2.24v1.68c-.07.074-.12.174-.13.29l-.36 3.77c-.15.04-.28.15-.33.31l-1.25 3.9h-.04c-.14 0-.28.07-.37.187l-1.08 1.44H.94c-.515 0-.93.43-.93.96s.415.964.93.964h30.11c.515 0 .93-.43.93-.96s-.415-.96-.93-.96zm-19.47 0l-1.034-1.388.24-.324h10.41l.242.324-1.034 1.388h-8.824zM6.42 19.114h.847l.312 3.23H6.11l.31-3.23zm.18-2.504v-.434c.01-.13.116-.232.244-.232.13 0 .234.1.244.232v1.92H6.6V16.61zm8.633-9.82c.012-.203.1-.385.232-.517.137-.135.32-.218.524-.218s.38.083.52.218c.13.132.22.314.23.518v3.28h-1.51V6.79zm9.585 21.42h-3.243l.447-.6.052-.07h6.12l.5.668h-3.876zm2.404-2.197l.17.53h-4.515l.17-.53.02.002H27.2l.024-.002zm-.307-.96h-3.563l.126-.396h3.31l.127.395zm-3.13-1.36l.124-.386h2.44l.12.387h-2.69zm.925-4.578h.847l.312 3.23H24.4l.31-3.23zm.668-1.017h-.488v-1.92c.01-.132.116-.233.243-.233.128 0 .234.1.244.232v1.92zm-11.04 1.114h3.3l.526 1.713h-1.148l-.06-.037-.797-.416c-.14-.072-.31-.068-.44.01l-.72.415-.05.028H13.8l.526-1.713zm-.163 5.36v-2.158h.588v2.64h-.588v-.482zm1.52-2.64V21.6l.266-.155.33.167v3.44h-.59v-3.12zm2.107.918v2.203h-.59v-2.64h.59v.437zm.93.01h.31l.82 1.712h-1.13V22.86zm-5.797 0h.312v1.712h-1.13l.818-1.713zm-7.315.448h2.448l.123.387H5.5l.123-.387zm2.88 1.35l.126.395H5.063l.127-.395H8.5zm.295 1.358h.04l.096-.01.18.537H4.59l.17-.527H8.8zm-5.01 1.525h6.12l.052.07.447.6H3.286l.5-.66zM20.087 17.5v1.8c0 .265.208.48.465.48h1.488c.257 0 .465-.216.465-.48v-.55h1.307l-.348 3.61c-.153.04-.28.155-.33.315l-.73 2.29-.015-.02c-.11-.147-.26-.256-.43-.318l-1.51-3.158c-.07-.14-.16-.26-.28-.34l-.98-3.18c-.04-.14-.11-.25-.2-.35l-.01-.11h1.08zm-5.148-.962l.43-4.54h1.23l.44 4.54h-2.1zM9.53 18.75v.677c0 .266.207.48.464.48h1.767c.26 0 .47-.215.47-.48v-1.313h.5l-.93 3.016c-.11.09-.21.205-.27.34l-1.51 3.16c-.16.06-.31.17-.42.32l-.01.02-.73-2.29c-.05-.16-.18-.278-.33-.317l-.35-3.61h1.36zm1.943-6.814c.08.063.18.097.28.097.1 0 .2-.033.28-.096.18-.14.238-.393.137-.602l-.03-.052c-.085-.133-.23-.213-.386-.213-.1 0-.198.033-.278.095-.108.084-.176.213-.186.352-.01.14.04.278.136.376l.047.043zm9.016-5.588c.08.063.18.098.28.098.1 0 .19-.034.27-.096.18-.14.24-.393.14-.602l-.14-.17c-.16-.125-.4-.125-.56 0-.18.14-.24.394-.14.603l.13.17zm1.05 5.748c.08.063.18.097.28.097.1 0 .2-.033.28-.095.18-.14.23-.393.13-.602l-.14-.17c-.16-.125-.4-.125-.56 0-.19.14-.24.394-.14.603l.13.16zM6.34 9.412l.387.22.212.4c.08.154.23.25.4.25s.32-.096.4-.25l.21-.4.38-.22c.15-.085.24-.246.24-.422s-.09-.338-.24-.422l-.39-.22-.21-.4c-.08-.154-.24-.25-.41-.25-.17 0-.33.096-.41.25l-.22.4-.39.22c-.15.085-.24.246-.24.422s.09.338.24.422zm16.54-5.557l.387.22.21.4c.083.155.24.25.41.25.17 0 .326-.096.407-.25l.21-.4.388-.22c.15-.084.242-.246.242-.422s-.093-.338-.242-.422l-.387-.21-.21-.4c-.082-.15-.24-.25-.41-.25-.168 0-.325.1-.407.25l-.21.4-.387.22c-.14.09-.24.25-.24.42 0 .18.1.34.25.43zm.207 7.856c0 .27.208.49.465.49h2.833c.257 0 .465-.21.465-.48s-.208-.48-.465-.48h-2.833c-.256 0-.465.22-.465.48z" fill="#373D43"/></g></svg>