<svg width="32" height="232" viewBox="0 0 32 232" xmlns="http://www.w3.org/2000/svg"><g fill="none"><path d="M11.475 133.966c-.17-.128-.42-.128-.59 0-.193.142-.255.4-.146.614.03.067.08.125.14.17.08.065.19.1.3.1.1 0 .21-.034.29-.097.19-.142.25-.4.14-.613-.04-.068-.09-.127-.15-.172zm-8.513.47c-.17-.128-.422-.13-.593-.002-.13.092-.2.238-.2.394 0 .154.07.3.19.392.08.064.19.1.29.1.1 0 .21-.036.29-.1.11-.084.18-.215.19-.358.01-.142-.05-.282-.15-.382l-.05-.043zm-1.174 4.003c.086.06.19.09.298.09.106 0 .21-.04.295-.1.2-.14.26-.4.15-.62-.03-.07-.08-.13-.14-.18-.17-.13-.42-.13-.59 0-.19.14-.25.4-.14.61l.14.17zm24.362-16.13c.086.06.19.1.298.1.106 0 .21-.04.294-.1.19-.15.253-.4.147-.62-.04-.07-.09-.13-.15-.17-.17-.13-.42-.13-.59 0-.2.14-.26.4-.15.61l.14.17zm-19.052 1.4c.086.06.19.1.297.1.106 0 .21-.04.295-.1.115-.09.187-.22.198-.36.01-.15-.043-.29-.145-.39l-.05-.05c-.17-.13-.422-.13-.593 0-.125.09-.198.23-.198.39 0 .15.073.3.197.39zm15.518 19.96c1.583-.82 2.37-1.64 2.337-2.44-.038-.93-.933-1.18-1.456-1.18-1.088 0-4.142.88-5.044 1.15H13.77l.17-.13.012-.01c.25-.19 1.058-.88.925-1.81-.047-.34-.262-.94-1.167-1.29-.332-.13-.645-.24-3.424 1.15-1.006.5-2.82 1.47-3.662 2.3-1.426 1.39-5.532 8.31-5.996 9.1-.276.47-.12 1.07.35 1.34.157.09.33.13.498.13.338 0 .668-.18.85-.49 1.77-3 4.743-7.79 5.677-8.69l.01-.01c.398-.4 1.216-.91 2.106-1.4-.31.25-.44.67-.31 1.06.13.4.51.67.93.67h5.87c-1.48.156-2.97.37-4.23.62-2.78.54-3.21.96-3.41 1.166-1.59 1.58-2.22 5.5-2.28 5.94-.08.537.29 1.037.82 1.117.54.08 1.04-.29 1.12-.83.21-1.406.86-3.93 1.7-4.81.51-.31 3.51-1.03 7.62-1.36 2.11-.17 3.81-.91 4.64-1.336zm-7.35-6c.105.41.466.71.892.73l6.98.44h.06c.403 0 .767-.25.917-.62l2.575-6.47c.04-.1.06-.21.066-.31l.01-.13c0-.11-.018-.21-.05-.31l-1.722-6.68c-.106-.41-.467-.71-.893-.74l-6.97-.44c-.42-.03-.82.22-.98.62l-2.57 6.46c-.04.11-.06.22-.07.34-.01.11 0 .23.03.34l1.74 6.74zm3.603-1.57c.02-.38.06-.56.08-.64.21-.01.61-.04.97-.52.11-.15.2-.3.27-.45.32.77.55 1.47.53 1.72-.01.18-.08.35-.18.49l-1.57-.1c-.09-.16-.13-.33-.12-.51zm3.67.73l-.93-.06c.05-.16.09-.33.1-.5.05-.87-1.05-3.18-1.27-3.63-.11-.22-.35-.32-.58-.26-.23.06-.38.28-.36.52 0 .01.08.82-.38 1.43-.09.11-.11.12-.25.12-.77.04-.95.58-1.01 1.56-.02.17 0 .34.03.5l-.93-.06-1.22-4.745 8.58.54-1.82 4.55zm-4.83-11.68l5.55.35 1.22 4.74-8.59-.54 1.81-4.55zm2.97-2.28h.03c.26 0 .47-.2.49-.46l.12-1.9c.01-.27-.19-.51-.46-.52-.28-.02-.51.18-.53.46l-.12 1.9c-.02.27.19.5.46.52zm1.45.09c.11 0 .23-.04.32-.12l.99-.87c.2-.18.22-.49.04-.69-.18-.21-.49-.23-.7-.05l-.99.87c-.21.18-.23.49-.05.69.1.11.23.16.37.16zm-3.3-.35c.09.11.23.16.37.16.11 0 .23-.04.32-.13.2-.18.22-.49.04-.69l-.86-.98c-.18-.208-.49-.228-.7-.048-.21.18-.23.49-.05.692l.87.98zm-17.2 7.06l1.4 3.39c.07.19.25.31.45.31h.03l3.68-.28c.21-.02.39-.17.44-.38l.87-3.57.01-.17-.04-.17-1.41-3.4c-.08-.2-.28-.32-.49-.3l-3.68.28c-.22.01-.39.16-.44.37l-.87 3.57-.02.17.03.17zm5.14 2.47l-2.97.22-1.01-2.44 4.6-.35-.63 2.57zm-3.43-5.8l2.96-.23 1.01 2.44-4.61.35.63-2.57zm2.43 7.86l-1.22 2-.06.15v.02l-.02.15.2 2.33c.01.21.17.39.38.43l2.28.53.11.01c.17 0 .33-.09.42-.24l1.22-1.99.06-.15.02-.14-.01-.086-.19-2.29c-.02-.21-.17-.386-.38-.435L6.32 134c-.206-.05-.422.04-.533.223zm1.44 4.58l-1.59-.37-.11-1.3 2.37.55-.68 1.11zm.8-3.4l.11 1.3-2.38-.56.68-1.12 1.59.37zm1.6-11.56l.02.11.48 1.2c.07.18.26.31.46.31l.03-.01 1.3-.088c.21-.017.39-.166.44-.37l.32-1.26.012-.12-.005-.038-.004-.045-.03-.11-.487-1.207c-.08-.196-.274-.32-.49-.306l-1.3.08c-.21.013-.39.162-.444.37l-.32 1.26-.02.12.005.035v.04zm1.19-.87l.59-.04.29.73-.2.76-.59.04-.3-.74.195-.767zm16.6 5.37c.03.21.2.37.41.4l1.63.25h.07c.18 0 .352-.1.44-.27l.742-1.46.04-.12.006-.03.01-.04v-.13l-.268-1.62c-.03-.21-.2-.37-.41-.408l-1.63-.25c-.21-.03-.42.07-.513.26l-.746 1.47-.04.12-.006.035-.003.04v.125l.267 1.62zm1.24-2.65l.92.14.18 1.12-.51 1.01-.92-.14-.18-1.12.514-1.018zm-1.5 13.41l.33 1.02c.064.2.253.34.47.34h1.07c.214 0 .404-.14.47-.34l.33-1.02.02-.115v-.088l-.02-.12-.33-1.02c-.064-.2-.254-.34-.47-.34h-1.07c-.213 0-.403.14-.47.34l-.33 1.02-.02.112-.004.04v.04l.02.115zm1.16-.69h.36l.17.534-.176.532h-.36l-.17-.53.175-.53zm-18.93-8.9l.41.222.223.41c.084.16.25.256.43.256s.344-.1.43-.26l.22-.4.41-.22c.16-.08.256-.25.256-.43s-.1-.34-.257-.43l-.41-.22-.225-.41c-.085-.16-.25-.25-.43-.25s-.345.1-.43.26l-.22.41-.41.22c-.157.09-.255.25-.255.43s.1.346.258.43zm16.93 13.9c-.09-.16-.257-.257-.438-.257-.18 0-.35.1-.435.255l-.225.41-.41.23c-.16.09-.26.25-.26.43s.1.35.26.43l.41.23.225.41c.08.16.25.26.43.26s.35-.09.43-.25l.22-.41.41-.22c.15-.085.25-.25.25-.43s-.1-.343-.26-.43l-.41-.223-.22-.406zm3.87-10.76c-.09-.154-.25-.252-.43-.252s-.35.1-.436.26l-.22.41-.41.23c-.157.09-.255.25-.255.43s.1.34.26.43l.41.22.23.41c.09.16.25.26.43.26s.35-.09.43-.25l.23-.4.41-.22c.16-.084.26-.25.26-.43s-.09-.34-.25-.43l-.41-.22-.22-.407zm1.12 12.55h-3.12c-.275 0-.495.22-.495.49v1.24H25.8c-.272 0-.492.22-.492.49v.447h-.5v-.96c0-.27-.22-.49-.492-.49H22.66v-.008c0-.27-.22-.49-.494-.49H16.93c-.274 0-.494.22-.494.49v1.35h-1.638c-.273 0-.493.22-.493.49v1.51c0 .27.22.49.493.49.272 0 .492-.22.492-.49v-1.02h1.64c.27 0 .492-.22.492-.49v-1.35h4.252c0 .27.22.49.493.49h1.656v.96c0 .27.225.49.497.49h1.48c.27 0 .492-.22.492-.49v-.444h1.892c.272 0 .493-.22.493-.49v-1.24h2.634c.28 0 .5-.22.5-.49s-.22-.49-.49-.49z" fill="#206FAC"/><path d="M11.475 93.966c-.17-.128-.42-.128-.59 0-.193.142-.255.4-.146.614.03.067.08.125.14.17.08.065.19.1.3.1.1 0 .21-.034.29-.097.19-.142.25-.4.14-.613-.04-.068-.09-.127-.15-.172zm-8.513.47c-.17-.128-.422-.13-.593-.002-.13.092-.2.238-.2.394 0 .154.07.3.19.392.08.064.19.1.29.1.1 0 .21-.036.29-.1.11-.084.18-.215.19-.358.01-.142-.05-.282-.15-.382l-.05-.043zM1.788 98.44c.086.063.19.098.298.098.106 0 .21-.034.295-.097.2-.14.26-.4.15-.61-.03-.07-.08-.12-.14-.17-.17-.12-.42-.13-.59 0-.19.14-.25.4-.14.62l.14.17zM26.15 82.317c.086.064.19.1.298.1.106 0 .21-.035.294-.098.19-.15.253-.4.147-.62-.04-.07-.09-.13-.15-.18-.17-.13-.42-.13-.59 0-.2.14-.26.4-.15.61l.14.17zM7.098 83.714c.086.064.19.098.297.098.106 0 .21-.034.295-.097.115-.085.187-.216.198-.358.01-.143-.043-.283-.145-.383l-.05-.043c-.17-.12-.422-.12-.593 0-.125.09-.198.24-.198.4 0 .16.073.3.197.39zm15.518 19.965c1.583-.82 2.37-1.64 2.337-2.44-.038-.93-.933-1.18-1.456-1.18-1.088 0-4.142.88-5.044 1.14H13.77l.17-.13.012-.01c.25-.19 1.058-.88.925-1.81-.047-.34-.262-.94-1.167-1.29-.332-.13-.645-.25-3.424 1.14-1.006.5-2.82 1.47-3.662 2.31-1.426 1.38-5.532 8.31-5.996 9.1-.276.46-.12 1.07.35 1.34.157.09.33.13.498.13.338 0 .668-.17.85-.48 1.77-3 4.743-7.79 5.677-8.69l.01-.01c.398-.4 1.216-.91 2.106-1.4-.31.26-.44.67-.31 1.06.13.41.51.68.93.68h5.87c-1.48.15-2.97.37-4.23.62-2.78.54-3.21.96-3.41 1.16-1.59 1.58-2.22 5.5-2.28 5.94-.08.535.29 1.035.82 1.115.54.08 1.04-.29 1.12-.825.21-1.404.86-3.93 1.7-4.81.51-.305 3.51-1.02 7.62-1.355 2.11-.17 3.81-.914 4.64-1.34zm-7.35-6.01c.105.41.466.71.892.73l6.98.44h.06c.403 0 .767-.25.917-.62l2.575-6.47c.04-.1.06-.21.066-.31l.01-.13c0-.11-.018-.21-.05-.31l-1.722-6.68c-.106-.41-.467-.71-.893-.74l-6.97-.44c-.42-.03-.82.22-.98.62l-2.57 6.47c-.04.11-.06.22-.07.33-.01.11 0 .22.03.34l1.74 6.74zm3.604-1.57c.02-.38.06-.56.08-.65.212-.01.61-.04.97-.52.11-.15.2-.3.27-.45.32.77.55 1.47.534 1.72-.01.18-.077.35-.18.49l-1.57-.1c-.087-.16-.128-.33-.117-.51zm3.67.73l-.93-.06c.05-.16.09-.33.1-.5.05-.87-1.048-3.18-1.27-3.63-.104-.22-.35-.32-.58-.26-.23.06-.38.28-.352.52 0 0 .083.81-.38 1.43-.087.11-.108.12-.245.12-.77.04-.95.58-1.01 1.56-.013.17 0 .34.035.5l-.925-.06-1.223-4.75 8.587.54-1.815 4.55zm-4.83-11.67l5.55.35 1.22 4.74-8.587-.54 1.81-4.55zm2.97-2.28h.03c.26 0 .47-.2.49-.46l.12-1.9c.014-.27-.19-.5-.46-.52-.28-.02-.51.19-.527.46l-.12 1.9c-.02.27.19.5.46.52zm1.452.09c.115 0 .23-.04.325-.12l.99-.87c.203-.18.223-.49.043-.7-.18-.2-.49-.22-.696-.04l-.99.86c-.208.17-.228.48-.048.69.096.11.232.16.37.16zm-3.3-.35c.096.11.232.16.37.16.115 0 .23-.04.325-.13.204-.18.224-.49.044-.69l-.87-.99c-.18-.21-.49-.23-.69-.05-.21.18-.23.49-.05.69l.87.98zm-17.2 7.06l1.405 3.4c.075.18.256.3.455.3h.037l3.68-.28c.21-.02.39-.17.44-.38l.87-3.57.01-.17-.04-.17-1.4-3.39c-.08-.2-.28-.32-.5-.3l-3.68.28c-.22.01-.39.17-.44.37l-.87 3.57-.01.17.03.17zm5.144 2.47l-2.966.22-1.01-2.44 4.6-.35-.624 2.57zm-3.422-5.8l2.966-.23 1.01 2.44-4.602.35.627-2.57zm2.432 7.86l-1.216 2-.06.14-.003.01-.013.15.195 2.32c.01.21.17.39.38.432l2.28.536.11.02c.17 0 .33-.08.42-.23l1.21-2 .06-.14.02-.135-.01-.088-.2-2.283c-.02-.213-.17-.39-.38-.44L6.32 94c-.21-.05-.424.04-.54.223zm1.44 4.58l-1.59-.38-.11-1.3 2.38.56-.68 1.11zm.8-3.4l.11 1.3-2.38-.56.68-1.12 1.59.37zm1.61-11.56l.025.11.49 1.2c.08.18.26.31.46.31h.03l1.3-.09c.22-.02.4-.17.45-.37l.32-1.26.02-.12v-.03l-.01-.05-.03-.12-.48-1.2c-.08-.2-.27-.32-.49-.31l-1.3.09c-.21.013-.39.16-.44.37l-.32 1.26-.01.12v.04l.01.04zm1.193-.88l.58-.04.29.73-.2.76-.59.04-.3-.74.19-.77zm16.6 5.37c.03.21.2.37.41.41l1.63.25h.07c.18 0 .35-.1.44-.27l.74-1.47.04-.12v-.19l-.27-1.62c-.04-.21-.2-.38-.41-.41l-1.63-.25c-.22-.03-.42.07-.52.26l-.73 1.49-.04.11-.01.03-.01.04v.123l.26 1.62zm1.25-2.64l.92.14.18 1.12-.52 1.01-.93-.15-.19-1.12.52-1.01zm-1.51 13.43l.33 1.02c.06.2.25.34.47.34h1.07c.21 0 .4-.14.47-.34l.33-1.02.02-.12v-.09l-.02-.12-.34-1.02c-.07-.2-.26-.34-.47-.34h-1.07c-.22 0-.41.14-.47.34l-.34 1.02-.02.12v.1l.02.12zm1.16-.69h.36l.17.53-.18.53h-.36l-.18-.53.17-.54zm-18.94-8.9l.41.22.22.41c.08.16.25.25.43.25s.34-.1.43-.26l.22-.41.41-.22c.16-.09.25-.25.25-.43s-.1-.34-.26-.43l-.41-.22-.23-.41c-.09-.15-.26-.25-.44-.25s-.35.1-.43.25l-.23.41-.41.22c-.16.09-.26.25-.26.43s.1.34.26.43zm16.92 13.88c-.09-.15-.25-.25-.44-.25-.18 0-.35.1-.43.26l-.23.4-.41.22c-.16.08-.26.25-.26.43s.1.34.26.43l.41.22.23.41c.09.15.26.25.44.25s.35-.1.44-.26l.23-.41.41-.222c.152-.087.25-.25.25-.43s-.1-.345-.26-.43l-.41-.225-.23-.41zm3.87-10.75c-.09-.16-.26-.25-.44-.25s-.35.09-.43.25l-.23.41-.41.23c-.15.08-.25.25-.25.43s.1.34.26.43l.41.22.23.41c.09.16.25.25.43.25s.35-.1.43-.256l.23-.41.41-.22c.16-.086.26-.25.26-.43s-.09-.344-.25-.43l-.41-.223-.22-.402zm1.12 12.55h-3.12c-.28 0-.5.22-.5.49v1.24h-1.89c-.27 0-.49.22-.49.49v.45h-.5v-.96c0-.27-.22-.49-.49-.49h-1.66c0-.27-.22-.49-.5-.49h-5.23c-.277 0-.497.22-.497.49v1.35h-1.64c-.272 0-.492.22-.492.49v1.51c0 .27.22.49.49.49s.49-.22.49-.49v-1.02h1.64c.27 0 .49-.22.49-.49v-1.35h4.25c0 .27.22.49.493.49H23.8v.96c0 .27.23.49.5.49h1.48c.27 0 .5-.22.5-.49v-.44h1.89c.27 0 .5-.22.5-.49v-1.24h2.64c.28 0 .5-.22.5-.49s-.22-.49-.49-.49z" fill="#fff"/><path d="M11.475 53.966c-.17-.128-.42-.128-.59 0-.193.142-.255.4-.146.614.03.067.08.125.14.17.08.065.19.1.3.1.1 0 .21-.034.29-.097.19-.142.25-.4.14-.613-.04-.068-.09-.127-.15-.172zm-8.513.47c-.17-.128-.422-.13-.593-.002-.13.092-.2.238-.2.394 0 .154.07.3.19.392.08.064.19.1.29.1.1 0 .21-.036.29-.1.11-.084.18-.215.19-.358.01-.142-.05-.282-.15-.382l-.05-.043zM1.788 58.44c.086.063.19.098.298.098.106 0 .21-.034.295-.097.2-.14.26-.4.15-.61-.03-.07-.08-.12-.14-.17-.17-.12-.42-.13-.59 0-.19.14-.25.4-.14.62l.14.17zM26.15 42.317c.086.064.19.1.298.1.106 0 .21-.035.294-.098.19-.15.253-.4.147-.62-.04-.07-.09-.13-.15-.18-.17-.13-.42-.13-.59 0-.2.14-.26.4-.15.61l.14.17zM7.098 43.714c.086.064.19.098.297.098.106 0 .21-.034.295-.097.115-.085.187-.216.198-.358.01-.143-.043-.283-.145-.383l-.05-.043c-.17-.12-.422-.12-.593 0-.125.09-.198.24-.198.4 0 .16.073.3.197.39zM22.616 63.68c1.583-.817 2.37-1.637 2.337-2.44-.038-.927-.933-1.175-1.456-1.175-1.088 0-4.142.88-5.044 1.146H13.77l.17-.12.012-.01c.25-.18 1.058-.87.925-1.8-.047-.33-.262-.94-1.167-1.28-.332-.12-.645-.24-3.424 1.15-1.006.51-2.82 1.47-3.662 2.31-1.426 1.39-5.532 8.32-5.996 9.1-.276.47-.12 1.07.35 1.34.157.09.33.14.498.14.338 0 .668-.17.85-.48 1.77-3 4.743-7.79 5.677-8.69l.01-.01c.398-.39 1.216-.9 2.106-1.39-.31.26-.44.67-.31 1.06.13.41.51.68.93.68h5.87c-1.48.16-2.97.37-4.23.62-2.78.55-3.21.97-3.41 1.17-1.59 1.58-2.22 5.5-2.28 5.94-.08.54.29 1.04.82 1.12.54.08 1.04-.29 1.12-.82.21-1.404.86-3.932 1.7-4.812.51-.302 3.51-1.02 7.62-1.352 2.11-.17 3.81-.91 4.64-1.34zm-7.35-6.002c.105.41.466.708.892.735l6.98.438.06.01c.403 0 .767-.24.917-.62l2.575-6.47c.04-.1.06-.2.066-.31l.01-.13c0-.1-.018-.21-.05-.3l-1.722-6.67c-.106-.41-.467-.71-.893-.73l-6.97-.44c-.42-.02-.82.23-.98.62l-2.57 6.47c-.04.11-.06.22-.07.34v.01c-.01.12 0 .23.03.34l1.74 6.74zm3.603-1.563c.02-.377.06-.56.08-.644.21-.01.61-.03.97-.51.11-.14.2-.29.27-.44.32.78.55 1.47.53 1.73-.01.19-.08.36-.18.49l-1.57-.1c-.09-.15-.13-.33-.12-.51zm3.67.733l-.93-.058c.05-.158.09-.323.1-.497.05-.868-1.05-3.174-1.27-3.628-.11-.215-.35-.322-.58-.256-.23.06-.38.28-.36.52 0 .01.08.81-.38 1.43-.09.11-.11.12-.25.12-.77.04-.95.58-1.01 1.56-.02.17 0 .34.03.5l-.93-.06-1.22-4.75 8.58.54-1.82 4.55zm-4.83-11.675l5.55.348 1.22 4.75-8.59-.54 1.81-4.55zm2.97-2.275h.03c.26 0 .47-.2.49-.46l.12-1.9c.01-.27-.19-.503-.46-.52-.28-.018-.51.187-.53.458l-.12 1.9c-.02.27.19.503.46.52zm1.45.09c.11 0 .23-.04.32-.122l.99-.868c.2-.18.22-.488.04-.692-.18-.203-.49-.223-.7-.044l-.99.867c-.21.17-.23.48-.05.69.1.11.23.16.37.16zm-3.3-.35c.09.11.23.166.37.166.11 0 .23-.04.32-.123.2-.17.22-.48.04-.69l-.88-.98c-.18-.2-.49-.22-.7-.04-.21.18-.23.49-.05.7l.87.99zm-17.2 7.058l1.4 3.397c.07.184.25.304.45.304h.03l3.68-.28c.21-.016.39-.167.44-.374l.87-3.57.01-.172-.04-.17-1.4-3.39c-.08-.19-.28-.32-.5-.3l-3.68.28c-.21.02-.39.17-.44.37l-.87 3.57-.01.17.04.17zm5.14 2.47l-2.97.224-1.01-2.443 4.6-.35-.63 2.568zM3.35 46.36l2.966-.224 1.01 2.443-4.603.35.627-2.57zm2.43 7.864L4.57 56.22l-.06.147v.006l-.003.012-.013.155.195 2.328c.01.212.17.39.38.437l2.28.536.11.02c.17 0 .33-.08.42-.23l1.21-2 .06-.14.02-.13-.01-.08-.2-2.28c-.02-.21-.17-.39-.38-.44L6.32 54c-.21-.05-.424.04-.54.223zm1.44 4.582l-1.59-.372-.11-1.3 2.38.556-.68 1.116zm.8-3.397l.11 1.3-2.38-.56.68-1.12 1.59.37zm1.61-11.56l.03.11.484 1.2c.077.18.26.31.46.31l.03-.01 1.3-.09c.21-.02.39-.17.443-.37l.32-1.26.014-.12v-.08l-.03-.12-.48-1.2c-.08-.2-.28-.32-.49-.31l-1.3.09c-.21.01-.39.16-.45.36l-.32 1.26-.01.12.01.04.01.04zm1.197-.88l.587-.04.295.73-.2.76-.59.04-.29-.74.2-.77zm16.602 5.37c.03.21.2.37.41.4l1.63.25h.07c.18 0 .35-.1.44-.27l.74-1.47.04-.12v-.2l-.27-1.62c-.04-.21-.2-.38-.41-.41l-1.63-.25c-.21-.03-.42.07-.52.26l-.74 1.47-.04.11-.01.04v.16l.26 1.62zm1.25-2.64l.92.14.18 1.12-.52 1.01-.93-.15-.18-1.12.52-1.02zm-1.51 13.42l.33 1.02c.06.2.25.34.47.34h1.07c.21 0 .4-.14.47-.34l.33-1.02.02-.12v-.09l-.02-.12-.34-1.02c-.07-.2-.26-.34-.47-.34h-1.07c-.22 0-.41.14-.47.34l-.34 1.02-.02.12-.01.04V59l.02.12zm1.16-.69h.36l.17.53-.18.53h-.36l-.18-.53.17-.54zM9.39 49.52l.41.223.225.408c.087.16.252.26.432.26s.346-.1.432-.26l.22-.41.41-.22c.16-.08.25-.25.25-.43s-.1-.34-.26-.43l-.41-.22-.23-.41c-.09-.15-.26-.25-.44-.25s-.35.1-.43.26l-.23.41-.41.22c-.16.09-.26.25-.26.43s.1.35.26.43zm16.928 13.89c-.087-.157-.252-.255-.433-.255-.18 0-.346.098-.432.255l-.225.407-.41.223c-.158.086-.256.25-.256.43s.1.345.257.43l.41.224.22.408c.08.157.25.255.43.255s.34-.098.43-.255l.22-.407.41-.223c.16-.086.25-.25.25-.43s-.1-.344-.26-.43l-.41-.224-.22-.407zm3.873-10.757c-.08-.157-.25-.255-.43-.255s-.34.098-.43.255l-.22.408-.41.23c-.15.09-.25.25-.25.43s.1.35.26.43l.41.23.23.41c.09.16.25.26.43.26s.35-.09.44-.25l.23-.41.41-.22c.16-.08.26-.25.26-.43s-.1-.34-.26-.43l-.41-.22-.22-.4zM31.31 65.2h-3.127c-.273 0-.493.22-.493.49v1.238h-1.892c-.272 0-.492.22-.492.49v.445h-.5v-.96c0-.27-.22-.49-.492-.49h-1.657v-.004c0-.28-.22-.49-.493-.49h-5.237c-.273 0-.493.22-.493.49v1.35h-1.638c-.273 0-.493.22-.493.49v1.51c0 .27.22.49.493.49.272 0 .492-.22.492-.49v-1.02h1.64c.27 0 .492-.22.492-.49V66.9h4.252v.004c0 .27.22.49.493.49h1.656v.96c0 .27.23.49.5.49h1.48c.27 0 .5-.22.5-.49v-.446h1.89c.27 0 .5-.22.5-.49V66.18h2.64c.28 0 .5-.22.5-.49s-.22-.49-.49-.49z" fill="#67737B"/><path d="M11.475 13.966c-.17-.128-.42-.128-.59 0-.193.142-.255.4-.146.614.03.067.08.125.14.17.08.065.19.1.3.1.1 0 .21-.034.29-.097.19-.142.25-.4.14-.613-.04-.068-.09-.127-.15-.172zm-8.513.47c-.17-.128-.422-.13-.593-.002-.13.092-.2.238-.2.394 0 .154.07.3.19.392.08.064.19.1.29.1.1 0 .21-.036.29-.1.11-.084.18-.215.19-.358.01-.142-.05-.282-.15-.382l-.05-.043zM1.788 18.44c.086.063.19.098.298.098.106 0 .21-.034.295-.097.2-.14.26-.4.15-.61-.03-.07-.08-.12-.14-.17-.17-.12-.42-.13-.59 0-.19.14-.25.4-.14.62l.14.17zM26.15 2.317c.086.064.19.1.298.1.106 0 .21-.035.294-.098.19-.15.253-.4.147-.62-.04-.07-.09-.13-.15-.18-.17-.13-.42-.13-.59 0-.2.14-.26.4-.15.61l.14.17zM7.098 3.714c.086.064.19.098.297.098.106 0 .21-.034.295-.097.115-.085.187-.216.198-.358.01-.143-.043-.283-.145-.383l-.05-.043c-.17-.12-.422-.12-.593 0-.125.09-.198.24-.198.4 0 .16.073.3.197.39zM22.616 23.68c1.583-.817 2.37-1.637 2.337-2.44-.038-.927-.933-1.175-1.456-1.175-1.088 0-4.142.88-5.044 1.146H13.77l.17-.12.012-.01c.25-.18 1.058-.87.925-1.8-.047-.33-.262-.94-1.167-1.28-.332-.12-.645-.24-3.424 1.15-1.006.51-2.82 1.47-3.662 2.31-1.426 1.39-5.532 8.32-5.996 9.1-.276.47-.12 1.07.35 1.34.157.09.33.14.498.14.338 0 .668-.17.85-.48 1.77-3 4.743-7.79 5.677-8.69l.01-.01c.398-.39 1.216-.9 2.106-1.39-.31.26-.44.67-.31 1.06.13.41.51.68.93.68h5.87c-1.48.16-2.97.37-4.23.62-2.78.55-3.21.97-3.41 1.17-1.59 1.58-2.22 5.5-2.28 5.94-.08.54.29 1.04.82 1.12.54.08 1.04-.29 1.12-.82.21-1.404.86-3.932 1.7-4.812.51-.302 3.51-1.02 7.62-1.352 2.11-.17 3.81-.91 4.64-1.34zm-7.35-6.002c.105.41.466.708.892.735l6.98.438.06.01c.403 0 .767-.24.917-.62l2.575-6.47c.04-.1.06-.2.066-.31l.01-.13c0-.1-.018-.21-.05-.3l-1.722-6.68c-.106-.41-.467-.71-.893-.73l-6.97-.44c-.42-.02-.82.23-.98.62l-2.57 6.47c-.04.11-.06.22-.07.34-.01.11 0 .23.03.34l1.74 6.74zm3.603-1.563c.02-.377.06-.56.08-.644.21-.01.61-.03.97-.51.11-.14.2-.29.27-.44.32.78.55 1.47.53 1.73-.01.19-.08.36-.18.49l-1.57-.1c-.09-.15-.13-.33-.12-.51zm3.67.733l-.93-.058c.05-.158.09-.323.1-.497.05-.868-1.05-3.174-1.27-3.628-.11-.215-.35-.322-.58-.256-.23.06-.38.28-.36.52 0 .01.08.81-.38 1.43-.09.11-.11.12-.25.12-.77.04-.95.58-1.01 1.56-.02.17 0 .34.03.5l-.93-.06-1.22-4.75 8.58.54-1.82 4.55zM17.71 5.173l5.55.348 1.223 4.75-8.583-.54 1.814-4.55zm2.97-2.275h.03c.258 0 .475-.2.49-.46l.12-1.9c.02-.27-.19-.503-.46-.52-.274-.018-.505.187-.522.458l-.12 1.9c-.016.27.19.503.46.52zm1.457.09c.115 0 .23-.04.325-.122l.99-.868c.203-.18.223-.488.043-.692-.18-.203-.494-.223-.7-.044l-.99.867c-.202.17-.222.48-.042.69.097.11.233.16.37.16zm-3.3-.35c.096.11.232.166.37.166.115 0 .23-.04.325-.123.204-.17.224-.48.044-.69l-.873-.98c-.18-.2-.49-.22-.695-.04-.205.18-.225.49-.045.7l.87.99zM1.64 9.696l1.403 3.397c.076.184.257.304.456.304h.03l3.68-.28c.21-.016.39-.167.44-.374l.87-3.57L8.53 9l-.036-.17L7.1 5.44c-.083-.197-.283-.32-.495-.302l-3.68.28c-.213.015-.39.166-.44.372l-.87 3.57-.012.172.037.17zm5.145 2.47l-2.966.224-1.01-2.443 4.6-.35-.63 2.568zM3.357 6.36l2.966-.224 1.01 2.443-4.603.35.626-2.57zm2.432 7.864L4.57 16.22l-.06.147v.006l-.003.012-.013.155.195 2.328c.01.212.17.39.38.437l2.28.536.11.02c.17 0 .33-.08.42-.23l1.21-2 .06-.14.02-.13-.01-.08-.2-2.28c-.02-.21-.17-.39-.38-.44L6.32 14c-.21-.05-.424.04-.54.223zm1.44 4.582l-1.59-.372-.11-1.3 2.38.556-.68 1.116zm.8-3.397l.11 1.3-2.38-.56.68-1.12 1.59.37zM9.64 3.85l.028.117.484 1.207c.075.186.257.31.457.31l.03-.003 1.3-.08c.21-.01.39-.16.44-.37l.32-1.26.01-.12v-.04l-.01-.04-.03-.11-.48-1.2c-.08-.19-.28-.32-.49-.3l-1.3.09c-.22.02-.4.17-.45.37l-.32 1.26-.02.12v.08zm1.196-.872l.587-.04.295.736-.196.766-.588.04-.294-.735.196-.767zM27.438 8.35c.034.21.2.374.41.407l1.63.25.077.005c.183 0 .354-.102.44-.27l.744-1.464.04-.117v-.19l-.27-1.62c-.04-.21-.2-.37-.41-.4l-1.63-.25c-.22-.03-.42.08-.52.27l-.74 1.47-.04.12-.01.04-.01.04v.13l.26 1.62zm1.247-2.642l.923.145.182 1.12-.514 1.014-.923-.145-.182-1.12.52-1.014zm-1.508 13.416l.333 1.018c.066.202.255.34.47.34h1.074c.213 0 .403-.138.47-.34l.332-1.018.02-.116v-.083l-.02-.116-.333-1.02c-.065-.2-.255-.34-.47-.34H27.98c-.214 0-.404.14-.47.34l-.333 1.02-.02.11-.002.04V19l.022.118zm1.16-.69h.36l.173.533-.174.53h-.36l-.174-.53.174-.534zM9.39 9.524l.41.222.225.408c.087.158.252.255.432.255s.346-.1.432-.26l.22-.41.41-.23c.16-.09.25-.25.25-.43s-.1-.35-.26-.43l-.41-.23-.23-.41c-.09-.16-.26-.26-.44-.26s-.35.09-.43.25l-.23.41-.41.22c-.16.09-.26.25-.26.43s.1.34.26.43zM26.318 23.41c-.087-.157-.252-.255-.433-.255-.18 0-.346.098-.432.255l-.225.407-.41.223c-.158.086-.256.25-.256.43s.1.345.257.43l.41.224.22.408c.08.157.25.255.43.255s.34-.098.43-.255l.22-.407.41-.223c.16-.086.25-.25.25-.43s-.1-.344-.26-.43l-.41-.224-.22-.407zm3.873-10.757c-.08-.157-.25-.255-.43-.255s-.34.098-.43.255l-.22.408-.41.23c-.15.09-.25.25-.25.43s.1.35.26.43l.41.23.23.41c.09.16.25.26.43.26s.35-.09.44-.25l.23-.41.41-.22c.16-.08.26-.25.26-.43s-.1-.34-.26-.43l-.41-.22-.22-.4zM31.31 25.2h-3.127c-.273 0-.493.22-.493.49v1.238h-1.892c-.272 0-.492.22-.492.49v.445h-.5v-.96c0-.27-.22-.49-.492-.49h-1.657v-.004c0-.28-.22-.49-.493-.49h-5.237c-.273 0-.493.22-.493.49v1.35h-1.638c-.273 0-.493.22-.493.49v1.51c0 .27.22.49.493.49.272 0 .492-.22.492-.49v-1.02h1.64c.27 0 .492-.22.492-.49V26.9h4.252v.004c0 .27.22.49.493.49h1.656v.96c0 .27.23.49.5.49h1.48c.27 0 .5-.22.5-.49v-.446h1.89c.27 0 .5-.22.5-.49V26.18h2.64c.28 0 .5-.22.5-.49s-.22-.49-.49-.49z" fill="#3A434E"/></g></svg>