<svg width="32" height="231" viewBox="0 0 32 231" xmlns="http://www.w3.org/2000/svg"><g fill="none"><path d="M31.892 136.07c-.077-.262-.247-.48-.466-.616l-1.657-2.186v-1.034c0-.3-.23-.545-.52-.545-.29 0-.52.24-.52.54v1.06h-6.6v-1.07c0-.3-.23-.55-.52-.55-.29 0-.52.24-.52.54v1.06h-.9v-4.09l-.05-.23c-.09-1.99-1.42-3.63-3.17-4.1v-1.56c0-.3-.23-.55-.52-.55v-1.24c0-.3-.23-.55-.51-.55s-.51.25-.51.55v1.24c-.28 0-.51.24-.51.54v1.56c-1.81.49-3.15 2.24-3.15 4.31v4.09H10.6v-1.06c0-.3-.23-.55-.51-.55-.282 0-.512.242-.512.543v1.067H3.25l-.02-.03v-1.03c0-.3-.23-.543-.51-.543s-.51.245-.51.546v1.07L.6 135.42c-.257.14-.45.392-.52.694-.086.144-.098.33-.036.49v12.78c0 .6.46 1.09 1.028 1.09H30.92c.566 0 1.026-.49 1.026-1.09v-12.73c.04-.08.065-.166.065-.26 0-.127-.04-.244-.11-.336zm-29.887-.762l.727-.96.514.678.627.828.007.008H1.587l.42-.553zm13.976-9.46c1.57 0 2.88 1.22 3.12 2.814h-6.23c.25-1.593 1.55-2.813 3.12-2.813zm14.44 10.014h-2.29l.01-.008.42-.545.73-.96.51.67.22.28.42.55zm-6.78 6.318h6.25v3.707h-6.25v-3.707zm-1.03 6.126v.546h-.62v-.988c0-.3-.23-.545-.51-.545s-.51.24-.51.54v.99h-.83v-.99c0-.3-.23-.55-.51-.55s-.51.24-.51.54v.99h-.83v-.99c0-.3-.23-.55-.51-.55s-.51.24-.51.54v.99h-.83v-.99c0-.3-.23-.55-.51-.55s-.51.24-.51.54v.99h-.83v-.99c0-.3-.23-.55-.51-.55s-.51.24-.51.54v.982h-.83v-.985c0-.3-.23-.548-.51-.548s-.51.24-.51.54v.99h-.83v-.99c0-.3-.23-.55-.51-.55s-.51.24-.51.54v.99H9.4v-1.87h13.21v1.33zm-9.73-12.998l2.18-.918.95-.4.95.4 2.18.918 1.3.545H11.6l1.293-.545zm9.74 1.644v4.137H9.39v-4.15h13.22v.01zm1.03.537h6.25v3.6h-6.25v-3.6zm-21.54 0h6.27v3.6H2.09v-3.6zm0 4.69h6.27v3.7H2.09v-3.71zm7.3 0h13.21v3.7H9.39v-3.71zm3.43-12.43h6.36v3.55h-.87v-2.63c0-.3-.23-.55-.51-.55s-.51.24-.51.54v2.63h-.14l-.69-.29v-2.34c0-.3-.23-.55-.51-.55s-.51.24-.51.54v2.39l-.57.24h-.26v-2.63c0-.3-.23-.55-.51-.55s-.51.24-.51.54v2.62h-.75v-3.55zm15.1 4.64l-.69.92h-5.32l-2.17-.92h8.19zm-15.65 0l-2.18.92H4.78l-.695-.92h8.19zm-10.2 12.59h6.28v1.32H2.1v-1.33zm21.55 0h6.25v1.32h-6.25v-1.33zm-13.72-4.29h1.03v2.76H9.92v-2.77zm1.86 0h1.03v2.76h-1.02v-2.77zm1.86 0h1.03v2.76h-1.03v-2.77zm1.86 0h1.03v2.76H15.5v-2.77zm1.86 0h1.03v2.76h-1.03v-2.77zm1.86 0h1.03v2.76H19.2v-2.77zm1.86 0h1.03v2.76h-1.03v-2.77zm-11.15-5.07h1.03v2.76H9.92v-2.77zm1.86 0h1.02v2.76h-1.02v-2.77zm1.86 0h1.03v2.76h-1.03v-2.77zm1.86 0h1.03v2.76H15.5v-2.77zm1.86 0h1.03v2.76h-1.03v-2.77zm1.86 0h1.03v2.76H19.2v-2.77zm1.86 0h1.03v2.76h-1.03v-2.77zM2.8 142.95h1.03v2.347H2.8v-2.347zm1.86 0h1.03v2.347H4.65v-2.347zm1.86 0h1.03v2.347H6.51v-2.347zm-3.71-4.752h1.02v2.348H2.8v-2.348zm1.86 0H5.7v2.348H4.65v-2.348zm1.86 0h1.02v2.348H6.51v-2.348zm17.85 4.752h1.02v2.347h-1.03v-2.347zm1.858 0h1.028v2.347h-1.03v-2.347zm1.858 0h1.02v2.347h-1.03v-2.347zm-3.712-4.752h1.02v2.348h-1.03v-2.348zm1.86 0h1.03v2.348h-1.03v-2.348zm1.86 0h1.02v2.348h-1.03v-2.348zm-4.67-11.022h.086l-.02.255c0 .74.567 1.34 1.266 1.34h4.473c.3 0 .6-.12.83-.34.27-.26.43-.63.43-1.01s-.16-.76-.43-1.01c-.23-.22-.53-.34-.84-.34h-1.08v-.08c0-.34-.14-.66-.38-.88-.2-.19-.46-.3-.73-.3h-3.62c-.61 0-1.11.52-1.11 1.17s.49 1.17 1.1 1.17zm0-1.255h3.628l.05.02.026.06-.025.06-.05.02h-.003c-.28 0-.51.24-.51.54 0 .3.23.54.513.54h2.176c.07 0 .12.03.16.06.03.03.08.09.08.19s-.05.16-.08.19-.09.06-.16.06h-4.48c-.14 0-.24-.12-.24-.26s.1-.26.24-.26c.28 0 .51-.24.51-.54 0-.3-.23-.55-.52-.55h-1.33c-.04 0-.08-.04-.08-.08 0-.05.03-.08.07-.08z" fill="#206FAC"/><path d="M31.892 96.07c-.077-.262-.247-.48-.466-.616l-1.657-2.186v-1.034c0-.3-.23-.545-.52-.545-.29 0-.52.24-.52.54v1.07h-6.6v-1.07c0-.3-.23-.55-.52-.55-.29 0-.52.24-.52.54v1.07h-.9V89.2l-.05-.22c-.09-1.986-1.42-3.63-3.17-4.097v-1.56c0-.3-.23-.546-.52-.547v-1.24c0-.303-.23-.547-.51-.547s-.51.24-.51.54v1.24c-.28 0-.51.24-.51.54v1.56c-1.81.49-3.15 2.24-3.15 4.31v4.1H10.6v-1.06c0-.3-.23-.55-.51-.55-.282 0-.512.24-.512.54v1.07H3.25l-.02-.04v-1.03c0-.3-.23-.54-.51-.54s-.51.24-.51.54v1.07L.6 95.42c-.257.14-.45.39-.52.7-.086.15-.098.33-.036.49v12.78c0 .61.46 1.09 1.028 1.09H30.92c.566 0 1.026-.48 1.026-1.09V96.66c.04-.077.065-.164.065-.26 0-.125-.04-.242-.11-.334zm-29.887-.76l.727-.96.514.678.627.828.007.008H1.587l.42-.553zm13.976-9.46c1.57 0 2.88 1.22 3.12 2.814h-6.23c.25-1.593 1.55-2.813 3.12-2.813zm14.44 10.014h-2.29l.01-.008.42-.545.73-.96.51.68.22.28.42.56zm-6.78 6.318h6.25v3.707h-6.25v-3.71zm-1.02 6.126v.546h-.63v-.988c0-.3-.23-.545-.51-.545s-.51.25-.51.55v.99h-.83v-.99c0-.3-.23-.54-.51-.54s-.51.25-.51.55v.99h-.83v-.99c0-.3-.23-.54-.51-.54s-.51.24-.51.55v.99h-.83v-.98c0-.3-.23-.55-.51-.55s-.51.25-.51.55v.99h-.83v-.99c0-.3-.23-.54-.51-.54s-.51.248-.51.55v.99h-.83v-.99c0-.3-.23-.543-.51-.543s-.51.25-.51.55v.99h-.83v-.99c0-.3-.23-.54-.51-.54s-.51.245-.51.546v.99H9.4V107h13.21v1.326zM12.88 95.31l2.175-.92.95-.4.95.4 2.173.92 1.295.544h-8.84l1.294-.545zm9.734 1.643v4.137H9.39v-4.145h13.22v.01zm1.027.537h6.25v3.6h-6.25v-3.6zm-21.54 0h6.27v3.6H2.1v-3.6zm0 4.69h6.27v3.708H2.1v-3.707zm7.3 0h13.21v3.708H9.39v-3.707zm3.43-12.426h6.36V93.3h-.87v-2.627c0-.3-.23-.545-.51-.545s-.51.244-.51.545V93.3h-.14l-.69-.29v-2.337c0-.3-.23-.545-.51-.545s-.51.244-.51.545v2.386l-.57.24h-.26v-2.63c0-.3-.23-.55-.51-.55s-.51.24-.51.54v2.63h-.75v-3.54zm15.1 4.638l-.69.918h-5.32l-2.17-.918h8.19zm-15.65 0l-2.18.918H4.78l-.695-.918h8.19zM2.09 106.98h6.272v1.328h-6.27v-1.328zm21.543 0h6.25v1.328h-6.25v-1.328zm-13.72-4.29h1.027v2.764H9.915v-2.763zm1.858 0h1.03v2.764h-1.02v-2.763zm1.86 0h1.03v2.764h-1.03v-2.763zm1.86 0h1.03v2.764h-1.03v-2.763zm1.86 0h1.03v2.764h-1.03v-2.763zm1.86 0h1.03v2.764H19.2v-2.763zm1.86 0h1.03v2.764h-1.03v-2.763zM9.92 97.626h1.027v2.763h-1.03v-2.77zm1.86 0h1.02v2.763h-1.027v-2.77zm1.855 0h1.03v2.763h-1.03v-2.77zm1.86 0h1.027v2.763h-1.03v-2.77zm1.858 0h1.028v2.763h-1.02v-2.77zm1.858 0h1.03v2.763H19.2v-2.77zm1.86 0h1.03v2.763h-1.03v-2.77zM2.8 102.95h1.02v2.346H2.793v-2.347zm1.86 0h1.03v2.346H4.65v-2.347zm1.86 0h1.02v2.346H6.51v-2.347zM2.8 98.197h1.02v2.348H2.793v-2.348zm1.857 0H5.68v2.348H4.65v-2.348zm1.858 0H7.54v2.348H6.51v-2.348zm17.85 4.752h1.027v2.34h-1.03v-2.35zm1.858 0h1.028v2.34h-1.03v-2.35zm1.858 0h1.02v2.34h-1.03v-2.35zm-3.71-4.76h1.03v2.35h-1.04v-2.35zm1.86 0h1.03v2.35h-1.03v-2.35zm1.86 0h1.02v2.35h-1.03v-2.35zm-4.67-11.02h.09l-.02.25c0 .74.57 1.34 1.27 1.34h4.48c.31 0 .6-.12.84-.34.28-.26.43-.63.43-1.01s-.15-.76-.43-1.01c-.23-.22-.53-.34-.84-.34h-1.08l.01-.09c0-.34-.14-.66-.38-.88-.2-.19-.46-.29-.73-.29h-3.62c-.61 0-1.1.52-1.1 1.17s.5 1.17 1.11 1.17zm0-1.26h3.63l.05.02.03.06-.02.06-.05.02c-.28 0-.51.24-.51.54 0 .3.23.54.52.54h2.18c.08 0 .13.04.16.06.03.02.08.09.08.19s-.05.16-.08.19-.08.06-.16.06h-4.48c-.13 0-.24-.12-.24-.26s.11-.26.24-.26c.29 0 .52-.25.52-.55 0-.3-.23-.55-.51-.55h-1.33c-.042 0-.08-.04-.08-.087 0-.048.03-.08.078-.08z" fill="#fff"/><path d="M31.892 56.07c-.077-.26-.247-.48-.466-.616l-1.657-2.186v-1.034c0-.3-.23-.545-.52-.545-.29 0-.52.24-.52.54v1.07h-6.6v-1.07c0-.3-.23-.55-.52-.55-.29 0-.52.24-.52.54v1.07h-.9V49.2l-.05-.22c-.09-1.986-1.42-3.63-3.17-4.097v-1.56c0-.3-.23-.546-.52-.547v-1.24c0-.303-.23-.547-.51-.547s-.51.24-.51.54v1.24c-.28 0-.51.24-.51.54v1.56c-1.81.49-3.15 2.24-3.15 4.31v4.1H10.6v-1.06c0-.3-.23-.55-.51-.55-.282 0-.512.24-.512.54v1.07H3.25l-.02-.04v-1.03c0-.3-.23-.54-.51-.54s-.51.24-.51.54v1.07L.6 55.42c-.257.14-.45.39-.52.7-.086.15-.098.33-.036.49v12.78c0 .61.46 1.09 1.028 1.09H30.92c.566 0 1.026-.48 1.026-1.09V56.66c.04-.077.065-.164.065-.26 0-.126-.04-.242-.11-.334zm-29.887-.76l.727-.96.514.678.627.828.007.008H1.587l.42-.553zm13.976-9.46c1.57 0 2.88 1.22 3.12 2.814h-6.23c.25-1.593 1.55-2.813 3.12-2.813zm14.44 10.013h-2.29l.01-.007.42-.545.73-.96.51.68.22.28.42.56zm-6.78 6.32h6.25v3.706h-6.25v-3.71zm-1.02 6.125v.546h-.63v-.987c0-.3-.23-.545-.51-.545s-.51.244-.51.545v.988h-.83v-.987c0-.3-.23-.545-.51-.545s-.51.244-.51.545v.988h-.83v-.987c0-.3-.23-.55-.51-.55s-.51.24-.51.54v.98h-.83v-.99c0-.3-.23-.55-.51-.55s-.51.24-.51.54v.98h-.83v-.99c0-.3-.23-.54-.51-.54s-.51.24-.51.54v.99h-.83v-.99c0-.3-.23-.55-.51-.55s-.51.25-.51.55v.99h-.83v-.99c0-.3-.23-.54-.51-.54s-.51.24-.51.54v.99H9.4v-1.88h13.21v1.33zM12.88 55.31l2.175-.917.95-.4.95.4 2.17.918 1.295.55h-8.84l1.293-.54zm9.734 1.645v4.137H9.39v-4.146h13.22v.01zm1.026.537h6.25v3.6h-6.25v-3.6zm-21.544 0H8.37v3.6H2.1v-3.6zm0 4.69H8.37v3.707H2.1v-3.71zm7.3 0h13.22v3.707H9.39v-3.71zm3.43-12.427h6.36V53.3h-.87v-2.628c0-.3-.23-.545-.513-.545-.285 0-.515.244-.515.545V53.3h-.14l-.69-.292v-2.336c0-.3-.23-.545-.514-.545-.283 0-.513.244-.513.545v2.386l-.57.242h-.26v-2.628c0-.3-.23-.545-.51-.545s-.51.244-.51.545V53.3h-.75v-3.547zm15.098 4.638l-.694.92h-5.32l-2.175-.92h8.186zm-15.65 0l-2.175.92H4.78l-.697-.92h8.19zM2.09 66.98h6.272v1.327h-6.27V66.98zm21.543 0h6.25v1.327h-6.25V66.98zm-13.72-4.29h1.027v2.763H9.915V62.69zm1.858 0h1.03v2.763h-1.02V62.69zm1.86 0h1.03v2.763h-1.03V62.69zm1.86 0h1.03v2.763h-1.03V62.69zm1.86 0h1.03v2.763h-1.03V62.69zm1.86 0h1.03v2.763H19.2V62.69zm1.86 0h1.03v2.763h-1.03V62.69zM9.92 57.624h1.027v2.763h-1.03v-2.763zm1.86 0h1.02v2.763h-1.027v-2.763zm1.855 0h1.03v2.763h-1.03v-2.763zm1.86 0h1.027v2.763h-1.03v-2.763zm1.858 0h1.028v2.763h-1.02v-2.763zm1.858 0h1.03v2.763H19.2v-2.763zm1.86 0h1.03v2.763h-1.03v-2.763zM2.8 62.948h1.02v2.348H2.793v-2.348zm1.86 0h1.03v2.348H4.65v-2.348zm1.86 0h1.02v2.348H6.51v-2.348zM2.8 58.196h1.02v2.348H2.793v-2.348zm1.857 0H5.68v2.348H4.65v-2.348zm1.858 0H7.54v2.348H6.51v-2.348zm17.85 4.752h1.027v2.348h-1.03v-2.348zm1.858 0h1.028v2.348h-1.03v-2.348zm1.858 0h1.02v2.348h-1.03v-2.348zm-3.71-4.752h1.03v2.348h-1.04v-2.348zm1.86 0h1.03v2.348h-1.03v-2.348zm1.86 0h1.02v2.348h-1.03v-2.348zm-4.67-11.022h.09l-.02.255c0 .74.57 1.34 1.27 1.34h4.48c.31 0 .6-.12.84-.34.28-.26.43-.63.43-1.01s-.15-.76-.43-1.01c-.23-.22-.53-.34-.84-.34h-1.08l.01-.08c0-.34-.14-.66-.38-.88-.2-.19-.46-.3-.73-.3h-3.62c-.61 0-1.1.52-1.1 1.17s.5 1.17 1.11 1.17zm0-1.255h3.63l.05.02.03.06-.02.06-.05.02c-.28 0-.51.24-.51.54 0 .3.23.54.52.54h2.18c.08 0 .13.03.16.06s.08.09.08.19-.05.16-.08.19-.08.06-.16.06h-4.48c-.13 0-.24-.12-.24-.26s.11-.26.24-.26c.29 0 .52-.25.52-.55 0-.3-.23-.55-.51-.55h-1.33c-.042 0-.08-.04-.08-.08 0-.05.03-.09.078-.09z" fill="#67737B"/><path d="M31.892 16.07c-.077-.262-.247-.48-.466-.616l-1.657-2.186v-1.034c0-.3-.23-.545-.52-.545-.29 0-.52.24-.52.54v1.07h-6.6v-1.07c0-.3-.23-.55-.52-.55-.29 0-.52.24-.52.54v1.07h-.9V9.2l-.05-.222c-.09-1.98-1.42-3.627-3.17-4.09V3.33c0-.3-.23-.544-.51-.545v-1.24c0-.302-.23-.546-.52-.546-.28 0-.51.24-.51.54v1.24c-.29 0-.51.24-.51.54v1.57c-1.81.49-3.15 2.24-3.15 4.31v4.1H10.6v-1.07c0-.3-.23-.55-.51-.55-.284 0-.514.24-.514.54v1.07H3.25l-.022-.04v-1.03c0-.3-.23-.55-.51-.55-.29 0-.52.24-.52.54v1.07L.59 15.42c-.255.14-.447.392-.52.694-.084.147-.096.33-.034.49v12.78c0 .604.46 1.092 1.026 1.092h29.85c.57 0 1.03-.49 1.03-1.09V16.66c.04-.08.064-.166.064-.26 0-.128-.042-.244-.11-.336zm-29.887-.76l.727-.96.514.678.627.828.007.008H1.587l.42-.553zM15.98 5.85c1.57 0 2.875 1.22 3.12 2.814h-6.236c.246-1.593 1.55-2.813 3.118-2.813zm14.437 10.014h-2.293l.006-.008.412-.545.727-.96.51.68.21.28.42.56zm-6.78 6.318h6.25v3.707h-6.25v-3.71zm-1.028 6.126v.546h-.63v-.988c0-.3-.23-.545-.51-.545-.29 0-.52.25-.52.55v.99h-.83v-.99c0-.3-.23-.54-.52-.54-.29 0-.52.25-.52.55v.99h-.83v-.99c0-.3-.23-.54-.52-.54-.29 0-.52.24-.52.55v.99h-.83v-.98c0-.3-.23-.55-.51-.55-.29 0-.52.25-.52.55v.99h-.83v-.99c0-.3-.23-.54-.52-.54-.29 0-.52.248-.52.55v.99h-.83v-.99c0-.3-.23-.543-.52-.543-.28 0-.51.248-.51.55v.99h-.83v-.99c0-.3-.23-.54-.52-.54-.287 0-.517.245-.517.546v.99h-.42V27H22.6v1.326zM12.87 15.31l2.175-.918.95-.4.95.4 2.173.918 1.294.545H11.58l1.293-.545zm9.734 1.644v4.137H9.39v-4.14h13.22v.01zm1.026.537h6.25v3.6h-6.25v-3.6zm-21.543 0H8.36v3.6H2.09v-3.6zm0 4.69H8.36v3.71H2.09v-3.71zm7.3 0h13.22v3.71H9.39v-3.71zm3.43-12.42h6.36v3.54h-.87v-2.62c0-.3-.23-.54-.514-.54-.283 0-.513.25-.513.55v2.62h-.14l-.69-.29v-2.34c0-.3-.23-.54-.514-.54-.285 0-.515.25-.515.55v2.39l-.57.24h-.25v-2.63c0-.3-.23-.54-.51-.54s-.51.25-.51.55v2.62h-.75V9.75zm15.097 4.64l-.695.92H21.9l-2.175-.92h8.187zm-15.65 0l-2.176.92h-5.31l-.696-.92h8.19zM2.09 26.98h6.272v1.327h-6.27V26.98zm21.543 0h6.25v1.327h-6.25V26.98zm-13.72-4.29h1.027v2.763H9.915V22.69zm1.858 0h1.03v2.763h-1.02V22.69zm1.86 0h1.03v2.763h-1.03V22.69zm1.86 0h1.03v2.763h-1.03V22.69zm1.86 0h1.03v2.763h-1.03V22.69zm1.86 0h1.03v2.763H19.2V22.69zm1.86 0h1.03v2.763h-1.03V22.69zM9.92 17.624h1.027v2.763h-1.03v-2.763zm1.86 0h1.02v2.763h-1.027v-2.763zm1.855 0h1.03v2.763h-1.03v-2.763zm1.86 0h1.027v2.763h-1.03v-2.763zm1.858 0h1.028v2.763h-1.02v-2.763zm1.858 0h1.03v2.763H19.2v-2.763zm1.86 0h1.03v2.763h-1.03v-2.763zM2.8 22.948h1.02v2.348H2.793v-2.348zm1.86 0h1.03v2.348H4.65v-2.348zm1.86 0h1.02v2.348H6.51v-2.348zM2.8 18.196h1.02v2.348H2.793v-2.348zm1.857 0H5.68v2.348H4.65v-2.348zm1.858 0H7.54v2.348H6.51v-2.348zm17.85 4.752h1.027v2.348h-1.03v-2.348zm1.858 0h1.028v2.348h-1.03v-2.348zm1.858 0h1.02v2.348h-1.03v-2.348zm-3.71-4.752h1.03v2.348h-1.04v-2.348zm1.86 0h1.03v2.348h-1.03v-2.348zm1.86 0h1.02v2.348h-1.03v-2.348zM23.41 7.174h.085l-.023.255c0 .74.568 1.34 1.267 1.34h4.47c.31 0 .6-.12.83-.34.27-.26.43-.63.43-1.01s-.16-.76-.43-1.01c-.24-.22-.53-.34-.84-.34h-1.08v-.08c0-.34-.14-.66-.38-.88-.2-.19-.46-.3-.73-.3H23.4c-.61 0-1.103.52-1.103 1.17s.497 1.17 1.106 1.17zm0-1.255h3.627l.05.02.027.06-.03.06-.05.02c-.285 0-.515.24-.515.54 0 .3.23.54.51.54h2.17c.07 0 .12.03.16.06.03.03.08.09.08.19s-.05.16-.08.19c-.04.03-.09.06-.16.06h-4.47c-.14 0-.24-.12-.24-.26s.1-.26.24-.26c.28 0 .51-.25.51-.55 0-.3-.23-.55-.52-.55H23.4c-.04 0-.076-.04-.076-.08 0-.05.034-.09.077-.09z" fill="#373D43"/></g></svg>