<svg width="32" height="232" viewBox="0 0 32 232" xmlns="http://www.w3.org/2000/svg"><g fill="none">
		<path id="XMLID_2004_" fill="#3A444F" d="M25.6,25.1c-0.5,0-0.8,0.1-1,0.2c-0.2,0.1-0.3,0.1-0.6,0.1c-0.3,0-0.4-0.1-0.6-0.1
			c-0.2-0.1-0.5-0.2-1-0.2c-0.1,0-0.2,0-0.3,0v-1.1H23c0.3,0,0.5-0.2,0.5-0.5c0-0.1,0-0.1,0-0.2c0-0.1-1.1-2.2-1.8-5.7
			c0.9-0.7,1.7-1.7,2.2-2.7c0.1-0.2,0-0.5-0.2-0.6c-0.2-0.1-0.5,0-0.6,0.2c-0.5,1-1.2,1.8-2,2.5c-1.2,1-2.8,1.6-4.4,1.8l-0.1-5.3
			l0-1.2c0.4-0.1,0.6-0.4,0.8-0.8l0.8,0l0,0.9c0,0.3,0.2,0.5,0.5,0.5c0,0,0,0,0,0l1.3,0c0.1,1,0.2,2,0.4,3.1c0,0.3,0.3,0.4,0.5,0.4
			c0,0,0,0,0,0c0.2-0.1,0.4-0.3,0.4-0.5c-0.2-1-0.3-2-0.3-2.9l4.7,0c0.3,0,0.5-0.2,0.5-0.5l0-1.3c0-0.3-0.2-0.5-0.5-0.5l-0.8,0
			c-0.2-2.9-1.8-5.6-4.4-7c-0.2-0.1-0.5,0-0.6,0.2c-0.1,0.2,0,0.5,0.2,0.6c0.3,0.1,0.5,0.3,0.8,0.5c1.7,1.3,2.9,3.2,3.1,5.4
			c0,0.1,0,0.2,0,0.3l-2.7,0c-0.2-1.1-1-2.2-2.3-3.3c-0.3-0.3-0.6-0.5-0.9-0.7l-0.1-5.1c0-0.3-0.2-0.5-0.5-0.5l-1.3,0
			c-0.1,0-0.2,0.1-0.3,0.1c-0.1,0.1-0.1,0.2-0.1,0.3l0,0.8C13,2.4,10.8,3.6,9.2,5.5C9.1,5.7,9.1,6,9.3,6.2c0.1,0.1,0.2,0.1,0.3,0.1
			c0.1,0,0.3-0.1,0.4-0.2c0.3-0.3,0.5-0.6,0.8-0.9c1.1-1,2.5-1.7,4.1-1.9c0.2,0,0.4-0.1,0.6-0.1l0,2.8c-0.4,0.3-1.1,0.7-1.8,1.2
			c-0.8,0.7-1.5,1.3-1.9,2L6.5,9.3C6.2,9.3,6,9.5,6,9.7l0,1.3c0,0.3,0.2,0.5,0.5,0.5c0,0,0,0,0,0l0.8,0C7.4,13.2,8,14.9,9,16.2
			c0.1,0.1,0.2,0.2,0.4,0.2c0.1,0,0.2,0,0.3-0.1c0.2-0.2,0.2-0.5,0.1-0.7c-0.9-1.2-1.4-2.6-1.5-4.1l1.3,0c0,0,0,0,0,0l1.1,0l0.9,0
			C11.5,17.9,9,23.3,9,23.4c-0.1,0.1-0.1,0.3,0,0.5c0.1,0.1,0.2,0.2,0.4,0.2h0.9v1.1c-0.2-0.1-0.4-0.1-0.7-0.1c-0.5,0-0.8,0.1-1,0.2
			c-0.2,0.1-0.3,0.1-0.6,0.1c-0.3,0-0.4-0.1-0.6-0.1c-0.2-0.1-0.5-0.2-1-0.2c-0.3,0-0.5,0.2-0.5,0.5c0,0.3,0.2,0.5,0.5,0.5
			c0.3,0,0.4,0.1,0.6,0.1c0.2,0.1,0.5,0.2,1,0.2c0.5,0,0.8-0.1,1-0.2C9.2,26.1,9.3,26,9.6,26c0.3,0,0.4,0.1,0.6,0.1
			c0.2,0.1,0.5,0.2,1,0.2c0.5,0,0.8-0.1,1-0.2c0.2-0.1,0.3-0.1,0.6-0.1c0.3,0,0.4,0.1,0.6,0.1c0.2,0.1,0.5,0.2,1,0.2
			c0.5,0,0.8-0.1,1-0.2c0.2-0.1,0.3-0.1,0.6-0.1c0.3,0,0.4,0.1,0.6,0.1c0.2,0.1,0.5,0.2,1,0.2c0.5,0,0.8-0.1,1-0.2
			c0.2-0.1,0.3-0.1,0.6-0.1c0.3,0,0.4,0.1,0.6,0.1c0.2,0.1,0.5,0.2,1,0.2c0.5,0,0.8-0.1,1-0.2c0.2-0.1,0.3-0.1,0.6-0.1
			c0.3,0,0.4,0.1,0.6,0.1c0.2,0.1,0.5,0.2,1,0.2c0.5,0,0.8-0.1,1-0.2c0.2-0.1,0.3-0.1,0.6-0.1c0.3,0,0.5-0.2,0.5-0.5
			C26.1,25.3,25.8,25.1,25.6,25.1z M20.7,18.3c0.5,2.3,1.1,3.9,1.5,4.8h-0.7H10.8h-0.7c0.7-1.7,2.3-6.2,2.5-11.6l0.9,0c0,0,0,0,0,0
			l1.3,0c0.1,0.4,0.4,0.6,0.8,0.8l0,0.7l-0.9,0c-0.1,0-0.2,0.1-0.3,0.1c-0.1,0.1-0.1,0.2-0.1,0.3l0.1,7.1c0,0.1,0.1,0.2,0.1,0.3
			c0.1,0.1,0.2,0.1,0.3,0.1c0,0,0,0,0,0l1.3,0c0.3,0,0.5-0.2,0.5-0.5l0-0.8C18.1,19.6,19.5,19.1,20.7,18.3z M8,10.6l-0.5,0l-0.5,0
			l0-0.4l4.5,0l0.5,0l0.5,0l0.6,0l0,0.2l0,0.2l-0.7,0l-0.5,0l-0.1,0l-0.4,0l-0.2,0L8,10.6z M16.8,6.5l0,0.5l0,0.9l-0.4,0l0-1.2
			l0-0.3l0-0.3l0-0.3l0-0.3l0-0.7l0-1.6l0-0.4l0-0.6l0-0.5l0.4,0l0,4L16.8,6.5z M20,10.3h-2.9c-0.2-0.3-0.4-0.5-0.7-0.6l0-0.8l0.9,0
			c0.1,0,0.2-0.1,0.3-0.1c0.1-0.1,0.1-0.2,0.1-0.3l0-0.7C18.7,8.4,19.7,9.3,20,10.3z M20.3,11.8l-0.5,0l-0.8,0l0-0.4v0l0.8,0l0.5,0
			l0.1,0l0.4,0l0.1,0l3.2,0l0.3,0l0.3,0l0.5,0l0,0.4l-4.3,0L20.3,11.8z M16,11.4L16,11.4l0,0.5L16,11.4L16,11.4
			C16,11.4,16,11.4,16,11.4c-0.1,0-0.2,0-0.3-0.1c-0.1-0.1-0.1-0.2-0.1-0.3c0,0,0,0,0,0l0,0c0-0.1,0-0.1,0-0.2
			c0.1-0.1,0.2-0.2,0.3-0.2c0,0,0,0,0,0c0.1,0,0.3,0.1,0.3,0.2c0,0.1,0,0.1,0,0.2v0c0,0,0,0,0,0c0,0.1-0.1,0.2-0.1,0.3
			C16.2,11.3,16.1,11.4,16,11.4z M15.6,20l-0.4,0l-0.1-6.1l0.4,0l0,2l0,3.5L15.6,20z M15.5,7.1l0,2.7c-0.3,0.1-0.5,0.3-0.7,0.6h-0.9
			l0-0.7c0-0.1-0.1-0.2-0.1-0.3c-0.1-0.1-0.2-0.1-0.3-0.1l-0.4,0C13.7,8.3,14.7,7.6,15.5,7.1z M20.2,25.3c-0.2-0.1-0.5-0.2-1-0.2
			c-0.5,0-0.8,0.1-1,0.2c-0.2,0.1-0.3,0.1-0.6,0.1c-0.3,0-0.4-0.1-0.6-0.1c-0.2-0.1-0.5-0.2-1-0.2c-0.5,0-0.8,0.1-1,0.2
			c-0.2,0.1-0.3,0.1-0.6,0.1c-0.3,0-0.4-0.1-0.6-0.1c-0.2-0.1-0.5-0.2-1-0.2c-0.5,0-0.8,0.1-1,0.2c-0.2,0.1-0.3,0.1-0.6,0.1v-1.3
			h9.9v1.3c-0.1,0-0.2,0-0.3,0C20.5,25.4,20.3,25.3,20.2,25.3z"/>
		<path id="XMLID_2389_" fill="#67737C" d="M25.6,65.1c-0.5,0-0.8,0.1-1,0.2c-0.2,0.1-0.3,0.1-0.6,0.1c-0.3,0-0.4-0.1-0.6-0.1
			c-0.2-0.1-0.5-0.2-1-0.2c-0.1,0-0.2,0-0.3,0v-1.1H23c0.3,0,0.5-0.2,0.5-0.5c0-0.1,0-0.1,0-0.2c0-0.1-1.1-2.2-1.8-5.7
			c0.9-0.7,1.7-1.7,2.2-2.7c0.1-0.2,0-0.5-0.2-0.6c-0.2-0.1-0.5,0-0.6,0.2c-0.5,1-1.2,1.8-2,2.5c-1.2,1-2.8,1.6-4.4,1.8l-0.1-5.3
			l0-1.2c0.4-0.1,0.6-0.4,0.8-0.8l0.8,0l0,0.9c0,0.3,0.2,0.5,0.5,0.5c0,0,0,0,0,0l1.3,0c0.1,1,0.2,2,0.4,3.1c0,0.3,0.3,0.4,0.5,0.4
			c0,0,0,0,0,0c0.2-0.1,0.4-0.3,0.4-0.5c-0.2-1-0.3-2-0.3-2.9l4.7,0c0.3,0,0.5-0.2,0.5-0.5l0-1.3c0-0.3-0.2-0.5-0.5-0.5l-0.8,0
			c-0.2-2.9-1.8-5.6-4.4-7c-0.2-0.1-0.5,0-0.6,0.2c-0.1,0.2,0,0.5,0.2,0.6c0.3,0.1,0.5,0.3,0.8,0.5c1.7,1.3,2.9,3.2,3.1,5.4
			c0,0.1,0,0.2,0,0.3l-2.7,0c-0.2-1.1-1-2.2-2.3-3.3c-0.3-0.3-0.6-0.5-0.9-0.7l-0.1-5.1c0-0.3-0.2-0.5-0.5-0.5l-1.3,0
			c-0.1,0-0.2,0.1-0.3,0.1c-0.1,0.1-0.1,0.2-0.1,0.3l0,0.8c-2.4,0.2-4.7,1.3-6.2,3.2c-0.2,0.2-0.1,0.5,0.1,0.7
			c0.1,0.1,0.2,0.1,0.3,0.1c0.1,0,0.3-0.1,0.4-0.2c0.3-0.3,0.5-0.6,0.8-0.9c1.1-1,2.5-1.7,4.1-1.9c0.2,0,0.4-0.1,0.6-0.1l0,2.8
			c-0.4,0.3-1.1,0.7-1.8,1.2c-0.8,0.7-1.5,1.3-1.9,2l-5.4,0.1c-0.3,0-0.5,0.2-0.5,0.5l0,1.3c0,0.3,0.2,0.5,0.5,0.5c0,0,0,0,0,0
			l0.8,0C7.4,53.2,8,54.9,9,56.2c0.1,0.1,0.2,0.2,0.4,0.2c0.1,0,0.2,0,0.3-0.1c0.2-0.2,0.2-0.5,0.1-0.7c-0.9-1.2-1.4-2.6-1.5-4.1
			l1.3,0c0,0,0,0,0,0l1.1,0l0.9,0C11.5,57.9,9,63.3,9,63.4c-0.1,0.1-0.1,0.3,0,0.5c0.1,0.1,0.2,0.2,0.4,0.2h0.9v1.1
			c-0.2-0.1-0.4-0.1-0.7-0.1c-0.5,0-0.8,0.1-1,0.2c-0.2,0.1-0.3,0.1-0.6,0.1c-0.3,0-0.4-0.1-0.6-0.1c-0.2-0.1-0.5-0.2-1-0.2
			c-0.3,0-0.5,0.2-0.5,0.5c0,0.3,0.2,0.5,0.5,0.5c0.3,0,0.4,0.1,0.6,0.1c0.2,0.1,0.5,0.2,1,0.2c0.5,0,0.8-0.1,1-0.2
			C9.2,66.1,9.3,66,9.6,66c0.3,0,0.4,0.1,0.6,0.1c0.2,0.1,0.5,0.2,1,0.2c0.5,0,0.8-0.1,1-0.2c0.2-0.1,0.3-0.1,0.6-0.1
			c0.3,0,0.4,0.1,0.6,0.1c0.2,0.1,0.5,0.2,1,0.2c0.5,0,0.8-0.1,1-0.2c0.2-0.1,0.3-0.1,0.6-0.1c0.3,0,0.4,0.1,0.6,0.1
			c0.2,0.1,0.5,0.2,1,0.2c0.5,0,0.8-0.1,1-0.2c0.2-0.1,0.3-0.1,0.6-0.1c0.3,0,0.4,0.1,0.6,0.1c0.2,0.1,0.5,0.2,1,0.2
			c0.5,0,0.8-0.1,1-0.2c0.2-0.1,0.3-0.1,0.6-0.1c0.3,0,0.4,0.1,0.6,0.1c0.2,0.1,0.5,0.2,1,0.2c0.5,0,0.8-0.1,1-0.2
			c0.2-0.1,0.3-0.1,0.6-0.1c0.3,0,0.5-0.2,0.5-0.5C26.1,65.3,25.8,65.1,25.6,65.1z M20.7,58.3c0.5,2.3,1.1,3.9,1.5,4.8h-0.7H10.8
			h-0.7c0.7-1.7,2.3-6.2,2.5-11.6l0.9,0c0,0,0,0,0,0l1.3,0c0.1,0.4,0.4,0.6,0.8,0.8l0,0.7l-0.9,0c-0.1,0-0.2,0.1-0.3,0.1
			c-0.1,0.1-0.1,0.2-0.1,0.3l0.1,7.1c0,0.1,0.1,0.2,0.1,0.3c0.1,0.1,0.2,0.1,0.3,0.1c0,0,0,0,0,0l1.3,0c0.3,0,0.5-0.2,0.5-0.5l0-0.8
			C18.1,59.6,19.5,59.1,20.7,58.3z M8,50.6l-0.5,0l-0.5,0l0-0.4l4.5,0l0.5,0l0.5,0l0.6,0l0,0.2l0,0.2l-0.7,0l-0.5,0l-0.1,0l-0.4,0
			l-0.2,0L8,50.6z M16.8,46.5l0,0.5l0,0.9l-0.4,0l0-1.2l0-0.3l0-0.3l0-0.3l0-0.3l0-0.7l0-1.6l0-0.4l0-0.6l0-0.5l0.4,0l0,4L16.8,46.5
			z M20,50.3h-2.9c-0.2-0.3-0.4-0.5-0.7-0.6l0-0.8l0.9,0c0.1,0,0.2-0.1,0.3-0.1c0.1-0.1,0.1-0.2,0.1-0.3l0-0.7
			C18.7,48.4,19.7,49.3,20,50.3z M20.3,51.8l-0.5,0l-0.8,0l0-0.4v0l0.8,0l0.5,0l0.1,0l0.4,0l0.1,0l3.2,0l0.3,0l0.3,0l0.5,0l0,0.4
			l-4.3,0L20.3,51.8z M16,51.4L16,51.4l0,0.5L16,51.4L16,51.4C16,51.4,16,51.4,16,51.4c-0.1,0-0.2,0-0.3-0.1
			c-0.1-0.1-0.1-0.2-0.1-0.3c0,0,0,0,0,0l0,0c0-0.1,0-0.1,0-0.2c0.1-0.1,0.2-0.2,0.3-0.2c0,0,0,0,0,0c0.1,0,0.3,0.1,0.3,0.2
			c0,0.1,0,0.1,0,0.2v0c0,0,0,0,0,0c0,0.1-0.1,0.2-0.1,0.3C16.2,51.3,16.1,51.4,16,51.4z M15.6,60l-0.4,0l-0.1-6.1l0.4,0l0,2l0,3.5
			L15.6,60z M15.5,47.1l0,2.7c-0.3,0.1-0.5,0.3-0.7,0.6h-0.9l0-0.7c0-0.1-0.1-0.2-0.1-0.3c-0.1-0.1-0.2-0.1-0.3-0.1l-0.4,0
			C13.7,48.3,14.7,47.6,15.5,47.1z M20.2,65.3c-0.2-0.1-0.5-0.2-1-0.2c-0.5,0-0.8,0.1-1,0.2c-0.2,0.1-0.3,0.1-0.6,0.1
			c-0.3,0-0.4-0.1-0.6-0.1c-0.2-0.1-0.5-0.2-1-0.2c-0.5,0-0.8,0.1-1,0.2c-0.2,0.1-0.3,0.1-0.6,0.1c-0.3,0-0.4-0.1-0.6-0.1
			c-0.2-0.1-0.5-0.2-1-0.2c-0.5,0-0.8,0.1-1,0.2c-0.2,0.1-0.3,0.1-0.6,0.1v-1.3h9.9v1.3c-0.1,0-0.2,0-0.3,0
			C20.5,65.4,20.3,65.3,20.2,65.3z"/>
		<path id="XMLID_2558_" fill="#FFFFFF" d="M25.6,105.1c-0.5,0-0.8,0.1-1,0.2c-0.2,0.1-0.3,0.1-0.6,0.1c-0.3,0-0.4-0.1-0.6-0.1
			c-0.2-0.1-0.5-0.2-1-0.2c-0.1,0-0.2,0-0.3,0v-1.1H23c0.3,0,0.5-0.2,0.5-0.5c0-0.1,0-0.1,0-0.2c0-0.1-1.1-2.2-1.8-5.7
			c0.9-0.7,1.7-1.7,2.2-2.7c0.1-0.2,0-0.5-0.2-0.6c-0.2-0.1-0.5,0-0.6,0.2c-0.5,1-1.2,1.8-2,2.5c-1.2,1-2.8,1.6-4.4,1.8l-0.1-5.3
			l0-1.2c0.4-0.1,0.6-0.4,0.8-0.8l0.8,0l0,0.9c0,0.3,0.2,0.5,0.5,0.5c0,0,0,0,0,0l1.3,0c0.1,1,0.2,2,0.4,3.1c0,0.3,0.3,0.4,0.5,0.4
			c0,0,0,0,0,0c0.2-0.1,0.4-0.3,0.4-0.5c-0.2-1-0.3-2-0.3-2.9l4.7,0c0.3,0,0.5-0.2,0.5-0.5l0-1.3c0-0.3-0.2-0.5-0.5-0.5l-0.8,0
			c-0.2-2.9-1.8-5.6-4.4-7c-0.2-0.1-0.5,0-0.6,0.2c-0.1,0.2,0,0.5,0.2,0.6c0.3,0.1,0.5,0.3,0.8,0.5c1.7,1.3,2.9,3.2,3.1,5.4
			c0,0.1,0,0.2,0,0.3l-2.7,0c-0.2-1.1-1-2.2-2.3-3.3c-0.3-0.3-0.6-0.5-0.9-0.7l-0.1-5.1c0-0.3-0.2-0.5-0.5-0.5l-1.3,0
			c-0.1,0-0.2,0.1-0.3,0.1c-0.1,0.1-0.1,0.2-0.1,0.3l0,0.8c-2.4,0.2-4.7,1.3-6.2,3.2c-0.2,0.2-0.1,0.5,0.1,0.7
			c0.1,0.1,0.2,0.1,0.3,0.1c0.1,0,0.3-0.1,0.4-0.2c0.3-0.3,0.5-0.6,0.8-0.9c1.1-1,2.5-1.7,4.1-1.9c0.2,0,0.4-0.1,0.6-0.1l0,2.8
			c-0.4,0.3-1.1,0.7-1.8,1.2c-0.8,0.7-1.5,1.3-1.9,2l-5.4,0.1c-0.3,0-0.5,0.2-0.5,0.5l0,1.3c0,0.3,0.2,0.5,0.5,0.5c0,0,0,0,0,0
			l0.8,0C7.4,93.2,8,94.9,9,96.2c0.1,0.1,0.2,0.2,0.4,0.2c0.1,0,0.2,0,0.3-0.1c0.2-0.2,0.2-0.5,0.1-0.7c-0.9-1.2-1.4-2.6-1.5-4.1
			l1.3,0c0,0,0,0,0,0l1.1,0l0.9,0C11.5,97.9,9,103.3,9,103.4c-0.1,0.1-0.1,0.3,0,0.5c0.1,0.1,0.2,0.2,0.4,0.2h0.9v1.1
			c-0.2-0.1-0.4-0.1-0.7-0.1c-0.5,0-0.8,0.1-1,0.2c-0.2,0.1-0.3,0.1-0.6,0.1c-0.3,0-0.4-0.1-0.6-0.1c-0.2-0.1-0.5-0.2-1-0.2
			c-0.3,0-0.5,0.2-0.5,0.5c0,0.3,0.2,0.5,0.5,0.5c0.3,0,0.4,0.1,0.6,0.1c0.2,0.1,0.5,0.2,1,0.2c0.5,0,0.8-0.1,1-0.2
			c0.2-0.1,0.3-0.1,0.6-0.1c0.3,0,0.4,0.1,0.6,0.1c0.2,0.1,0.5,0.2,1,0.2c0.5,0,0.8-0.1,1-0.2c0.2-0.1,0.3-0.1,0.6-0.1
			c0.3,0,0.4,0.1,0.6,0.1c0.2,0.1,0.5,0.2,1,0.2c0.5,0,0.8-0.1,1-0.2c0.2-0.1,0.3-0.1,0.6-0.1c0.3,0,0.4,0.1,0.6,0.1
			c0.2,0.1,0.5,0.2,1,0.2c0.5,0,0.8-0.1,1-0.2c0.2-0.1,0.3-0.1,0.6-0.1c0.3,0,0.4,0.1,0.6,0.1c0.2,0.1,0.5,0.2,1,0.2
			c0.5,0,0.8-0.1,1-0.2c0.2-0.1,0.3-0.1,0.6-0.1c0.3,0,0.4,0.1,0.6,0.1c0.2,0.1,0.5,0.2,1,0.2c0.5,0,0.8-0.1,1-0.2
			c0.2-0.1,0.3-0.1,0.6-0.1c0.3,0,0.5-0.2,0.5-0.5C26.1,105.3,25.8,105.1,25.6,105.1z M20.7,98.3c0.5,2.3,1.1,3.9,1.5,4.8h-0.7H10.8
			h-0.7c0.7-1.7,2.3-6.2,2.5-11.6l0.9,0c0,0,0,0,0,0l1.3,0c0.1,0.4,0.4,0.6,0.8,0.8l0,0.7l-0.9,0c-0.1,0-0.2,0.1-0.3,0.1
			c-0.1,0.1-0.1,0.2-0.1,0.3l0.1,7.1c0,0.1,0.1,0.2,0.1,0.3c0.1,0.1,0.2,0.1,0.3,0.1c0,0,0,0,0,0l1.3,0c0.3,0,0.5-0.2,0.5-0.5l0-0.8
			C18.1,99.6,19.5,99.1,20.7,98.3z M8,90.6l-0.5,0l-0.5,0l0-0.4l4.5,0l0.5,0l0.5,0l0.6,0l0,0.2l0,0.2l-0.7,0l-0.5,0l-0.1,0l-0.4,0
			l-0.2,0L8,90.6z M16.8,86.5l0,0.5l0,0.9l-0.4,0l0-1.2l0-0.3l0-0.3l0-0.3l0-0.3l0-0.7l0-1.6l0-0.4l0-0.6l0-0.5l0.4,0l0,4L16.8,86.5
			z M20,90.3h-2.9c-0.2-0.3-0.4-0.5-0.7-0.6l0-0.8l0.9,0c0.1,0,0.2-0.1,0.3-0.1c0.1-0.1,0.1-0.2,0.1-0.3l0-0.7
			C18.7,88.4,19.7,89.3,20,90.3z M20.3,91.8l-0.5,0l-0.8,0l0-0.4v0l0.8,0l0.5,0l0.1,0l0.4,0l0.1,0l3.2,0l0.3,0l0.3,0l0.5,0l0,0.4
			l-4.3,0L20.3,91.8z M16,91.4L16,91.4l0,0.5L16,91.4L16,91.4C16,91.4,16,91.4,16,91.4c-0.1,0-0.2,0-0.3-0.1
			c-0.1-0.1-0.1-0.2-0.1-0.3c0,0,0,0,0,0l0,0c0-0.1,0-0.1,0-0.2c0.1-0.1,0.2-0.2,0.3-0.2c0,0,0,0,0,0c0.1,0,0.3,0.1,0.3,0.2
			c0,0.1,0,0.1,0,0.2v0c0,0,0,0,0,0c0,0.1-0.1,0.2-0.1,0.3C16.2,91.3,16.1,91.4,16,91.4z M15.6,100l-0.4,0l-0.1-6.1l0.4,0l0,2l0,3.5
			L15.6,100z M15.5,87.1l0,2.7c-0.3,0.1-0.5,0.3-0.7,0.6h-0.9l0-0.7c0-0.1-0.1-0.2-0.1-0.3c-0.1-0.1-0.2-0.1-0.3-0.1l-0.4,0
			C13.7,88.3,14.7,87.6,15.5,87.1z M20.2,105.3c-0.2-0.1-0.5-0.2-1-0.2c-0.5,0-0.8,0.1-1,0.2c-0.2,0.1-0.3,0.1-0.6,0.1
			c-0.3,0-0.4-0.1-0.6-0.1c-0.2-0.1-0.5-0.2-1-0.2c-0.5,0-0.8,0.1-1,0.2c-0.2,0.1-0.3,0.1-0.6,0.1c-0.3,0-0.4-0.1-0.6-0.1
			c-0.2-0.1-0.5-0.2-1-0.2c-0.5,0-0.8,0.1-1,0.2c-0.2,0.1-0.3,0.1-0.6,0.1v-1.3h9.9v1.3c-0.1,0-0.2,0-0.3,0
			C20.5,105.4,20.3,105.3,20.2,105.3z"/>
		<path id="XMLID_2675_" fill="#1D70AD" d="M25.6,145.1c-0.5,0-0.8,0.1-1,0.2c-0.2,0.1-0.3,0.1-0.6,0.1c-0.3,0-0.4-0.1-0.6-0.1
			c-0.2-0.1-0.5-0.2-1-0.2c-0.1,0-0.2,0-0.3,0v-1.1H23c0.3,0,0.5-0.2,0.5-0.5c0-0.1,0-0.1,0-0.2c0-0.1-1.1-2.2-1.8-5.7
			c0.9-0.7,1.7-1.7,2.2-2.7c0.1-0.2,0-0.5-0.2-0.6c-0.2-0.1-0.5,0-0.6,0.2c-0.5,1-1.2,1.8-2,2.5c-1.2,1-2.8,1.6-4.4,1.8l-0.1-5.3
			l0-1.2c0.4-0.1,0.6-0.4,0.8-0.8l0.8,0l0,0.9c0,0.3,0.2,0.5,0.5,0.5c0,0,0,0,0,0l1.3,0c0.1,1,0.2,2,0.4,3.1c0,0.3,0.3,0.4,0.5,0.4
			c0,0,0,0,0,0c0.2-0.1,0.4-0.3,0.4-0.5c-0.2-1-0.3-2-0.3-2.9l4.7,0c0.3,0,0.5-0.2,0.5-0.5l0-1.3c0-0.3-0.2-0.5-0.5-0.5l-0.8,0
			c-0.2-2.9-1.8-5.6-4.4-7c-0.2-0.1-0.5,0-0.6,0.2c-0.1,0.2,0,0.5,0.2,0.6c0.3,0.1,0.5,0.3,0.8,0.5c1.7,1.3,2.9,3.2,3.1,5.4
			c0,0.1,0,0.2,0,0.3l-2.7,0c-0.2-1.1-1-2.2-2.3-3.3c-0.3-0.3-0.6-0.5-0.9-0.7l-0.1-5.1c0-0.3-0.2-0.5-0.5-0.5l-1.3,0
			c-0.1,0-0.2,0.1-0.3,0.1c-0.1,0.1-0.1,0.2-0.1,0.3l0,0.8c-2.4,0.2-4.7,1.3-6.2,3.2c-0.2,0.2-0.1,0.5,0.1,0.7
			c0.1,0.1,0.2,0.1,0.3,0.1c0.1,0,0.3-0.1,0.4-0.2c0.3-0.3,0.5-0.6,0.8-0.9c1.1-1,2.5-1.7,4.1-1.9c0.2,0,0.4-0.1,0.6-0.1l0,2.8
			c-0.4,0.3-1.1,0.7-1.8,1.2c-0.8,0.7-1.5,1.3-1.9,2l-5.4,0.1c-0.3,0-0.5,0.2-0.5,0.5l0,1.3c0,0.3,0.2,0.5,0.5,0.5c0,0,0,0,0,0
			l0.8,0c0.1,1.7,0.7,3.3,1.7,4.7c0.1,0.1,0.2,0.2,0.4,0.2c0.1,0,0.2,0,0.3-0.1c0.2-0.2,0.2-0.5,0.1-0.7c-0.9-1.2-1.4-2.6-1.5-4.1
			l1.3,0c0,0,0,0,0,0l1.1,0l0.9,0c-0.2,6.4-2.6,11.8-2.7,11.9c-0.1,0.1-0.1,0.3,0,0.5c0.1,0.1,0.2,0.2,0.4,0.2h0.9v1.1
			c-0.2-0.1-0.4-0.1-0.7-0.1c-0.5,0-0.8,0.1-1,0.2c-0.2,0.1-0.3,0.1-0.6,0.1c-0.3,0-0.4-0.1-0.6-0.1c-0.2-0.1-0.5-0.2-1-0.2
			c-0.3,0-0.5,0.2-0.5,0.5c0,0.3,0.2,0.5,0.5,0.5c0.3,0,0.4,0.1,0.6,0.1c0.2,0.1,0.5,0.2,1,0.2c0.5,0,0.8-0.1,1-0.2
			c0.2-0.1,0.3-0.1,0.6-0.1c0.3,0,0.4,0.1,0.6,0.1c0.2,0.1,0.5,0.2,1,0.2c0.5,0,0.8-0.1,1-0.2c0.2-0.1,0.3-0.1,0.6-0.1
			c0.3,0,0.4,0.1,0.6,0.1c0.2,0.1,0.5,0.2,1,0.2c0.5,0,0.8-0.1,1-0.2c0.2-0.1,0.3-0.1,0.6-0.1c0.3,0,0.4,0.1,0.6,0.1
			c0.2,0.1,0.5,0.2,1,0.2c0.5,0,0.8-0.1,1-0.2c0.2-0.1,0.3-0.1,0.6-0.1c0.3,0,0.4,0.1,0.6,0.1c0.2,0.1,0.5,0.2,1,0.2
			c0.5,0,0.8-0.1,1-0.2c0.2-0.1,0.3-0.1,0.6-0.1c0.3,0,0.4,0.1,0.6,0.1c0.2,0.1,0.5,0.2,1,0.2c0.5,0,0.8-0.1,1-0.2
			c0.2-0.1,0.3-0.1,0.6-0.1c0.3,0,0.5-0.2,0.5-0.5C26.1,145.3,25.8,145.1,25.6,145.1z M20.7,138.3c0.5,2.3,1.1,3.9,1.5,4.8h-0.7
			H10.8h-0.7c0.7-1.7,2.3-6.2,2.5-11.6l0.9,0c0,0,0,0,0,0l1.3,0c0.1,0.4,0.4,0.6,0.8,0.8l0,0.7l-0.9,0c-0.1,0-0.2,0.1-0.3,0.1
			c-0.1,0.1-0.1,0.2-0.1,0.3l0.1,7.1c0,0.1,0.1,0.2,0.1,0.3c0.1,0.1,0.2,0.1,0.3,0.1c0,0,0,0,0,0l1.3,0c0.3,0,0.5-0.2,0.5-0.5l0-0.8
			C18.1,139.6,19.5,139.1,20.7,138.3z M8,130.6l-0.5,0l-0.5,0l0-0.4l4.5,0l0.5,0l0.5,0l0.6,0l0,0.2l0,0.2l-0.7,0l-0.5,0l-0.1,0
			l-0.4,0l-0.2,0L8,130.6z M16.8,126.5l0,0.5l0,0.9l-0.4,0l0-1.2l0-0.3l0-0.3l0-0.3l0-0.3l0-0.7l0-1.6l0-0.4l0-0.6l0-0.5l0.4,0l0,4
			L16.8,126.5z M20,130.3h-2.9c-0.2-0.3-0.4-0.5-0.7-0.6l0-0.8l0.9,0c0.1,0,0.2-0.1,0.3-0.1c0.1-0.1,0.1-0.2,0.1-0.3l0-0.7
			C18.7,128.4,19.7,129.3,20,130.3z M20.3,131.8l-0.5,0l-0.8,0l0-0.4v0l0.8,0l0.5,0l0.1,0l0.4,0l0.1,0l3.2,0l0.3,0l0.3,0l0.5,0
			l0,0.4l-4.3,0L20.3,131.8z M16,131.4L16,131.4l0,0.5L16,131.4L16,131.4C16,131.4,16,131.4,16,131.4c-0.1,0-0.2,0-0.3-0.1
			c-0.1-0.1-0.1-0.2-0.1-0.3c0,0,0,0,0,0l0,0c0-0.1,0-0.1,0-0.2c0.1-0.1,0.2-0.2,0.3-0.2c0,0,0,0,0,0c0.1,0,0.3,0.1,0.3,0.2
			c0,0.1,0,0.1,0,0.2v0c0,0,0,0,0,0c0,0.1-0.1,0.2-0.1,0.3C16.2,131.3,16.1,131.4,16,131.4z M15.6,140l-0.4,0l-0.1-6.1l0.4,0l0,2
			l0,3.5L15.6,140z M15.5,127.1l0,2.7c-0.3,0.1-0.5,0.3-0.7,0.6h-0.9l0-0.7c0-0.1-0.1-0.2-0.1-0.3c-0.1-0.1-0.2-0.1-0.3-0.1l-0.4,0
			C13.7,128.3,14.7,127.6,15.5,127.1z M20.2,145.3c-0.2-0.1-0.5-0.2-1-0.2c-0.5,0-0.8,0.1-1,0.2c-0.2,0.1-0.3,0.1-0.6,0.1
			c-0.3,0-0.4-0.1-0.6-0.1c-0.2-0.1-0.5-0.2-1-0.2c-0.5,0-0.8,0.1-1,0.2c-0.2,0.1-0.3,0.1-0.6,0.1c-0.3,0-0.4-0.1-0.6-0.1
			c-0.2-0.1-0.5-0.2-1-0.2c-0.5,0-0.8,0.1-1,0.2c-0.2,0.1-0.3,0.1-0.6,0.1v-1.3h9.9v1.3c-0.1,0-0.2,0-0.3,0
			C20.5,145.4,20.3,145.3,20.2,145.3z"/>
	</g>
</svg>
