<svg width="32" height="232" viewBox="0 0 32 232" xmlns="http://www.w3.org/2000/svg"><g fill="none"><path d="M31.54 148.974c-.28 0-.402-.05-.568-.12-.202-.082-.453-.186-.91-.186l-.11.003v-4.33h.056c.26 0 .472-.22.472-.5 0-.27-.21-.5-.472-.5h-.056v-4.18h.056c.26 0 .472-.22.472-.5 0-.27-.21-.49-.472-.49h-.056v-3.71l-.005-.06-1.183-9.34v-2.54c0-.27-.21-.5-.472-.5s-.472.23-.472.5v2.55l-1.147 9.34-.004.06v3.72h-.06c-.26 0-.47.23-.47.5 0 .28.21.5.47.5h.05v4.18h-.06c-.26 0-.48.23-.48.5s.21.5.47.5h.05v4.37c-.21.04-.36.1-.48.15l-.11.05c.17-.18.27-.43.27-.7v-2.98c0-.5-.36-.92-.83-.99-.16-.18-.34-.35-.52-.5v-2.84c.19-.06.34-.25.34-.47 0-.23-.15-.42-.34-.48v-2.39c.19-.06.34-.25.34-.47 0-.23-.15-.42-.34-.48v-2.25l-.01-.06-.76-6.034v-1.63c0-.27-.21-.5-.48-.5-.26 0-.47.23-.47.5v1.64l-.74 6.038v2.31c-.2.06-.35.25-.35.48 0 .23.14.42.34.48V140c-.2.06-.34.25-.34.48 0 .23.14.42.34.48v1.866l-.23-.01-.23.01v-2.38c.06-.26.02-.53-.12-.76-1.27-2.14-3.427-3.47-5.82-3.628v-.865c.263-.23.333-.642.16-.99l-.13-.15c-.28-.22-.67-.243-.938-.05l-.02.02c-.3.248-.33.68-.2.986.033.08.092.16.17.21l.013.01v.83c-2.4.15-4.56 1.48-5.834 3.62-.13.23-.17.51-.12.77v2.384l-.22-.01-.24.01v-1.87c.197-.06.34-.25.34-.475 0-.23-.144-.42-.34-.48v-2.39c.197-.06.34-.25.34-.477 0-.23-.144-.42-.34-.48v-2.25l-.005-.06-.76-6.06v-1.63c0-.28-.21-.5-.47-.5s-.47.222-.47.5v1.63l-.74 6.038-.002.06v2.25c-.2.06-.35.25-.35.48 0 .23.14.42.34.48v2.4c-.2.06-.34.25-.34.48 0 .23.15.42.346.48v2.84c-.21.17-.41.37-.59.59-.31.16-.53.5-.53.89v2.97c0 .255.09.49.24.664-.16.07-.28.116-.555.116h-.05l.04-.2v-4.433h.06c.26 0 .47-.227.47-.5 0-.28-.21-.5-.47-.5h-.05v-4.18h.06c.26 0 .47-.224.47-.5 0-.277-.21-.5-.47-.5h-.05v-3.714l-.004-.066-1.18-9.346v-2.55c0-.27-.21-.5-.47-.5s-.47.23-.47.5v2.55l-1.15 9.34v3.78h-.06c-.26 0-.47.23-.47.5 0 .28.21.5.47.5h.06v4.18h-.06c-.26 0-.47.228-.47.5s.21.5.47.5h.06v4.44l.03.17-.25-.09c-.2-.08-.45-.182-.91-.182-.26 0-.47.22-.47.5 0 .273.21.5.47.5.28 0 .404.05.57.12.2.08.453.19.91.19.46 0 .71-.107.913-.19.162-.07.282-.12.563-.12.28 0 .4.05.57.12.2.08.45.19.91.19s.71-.1.91-.19c.17-.07.29-.12.57-.12.28 0 .4.05.57.12.2.08.45.186.91.186s.71-.105.91-.19c.16-.07.28-.12.56-.12s.4.05.57.12c.205.084.456.188.91.188.46 0 .71-.102.915-.186.17-.07.29-.12.57-.12.28 0 .4.05.57.12.2.083.453.187.91.187.46 0 .71-.1.913-.185.16-.07.28-.12.56-.12s.4.05.57.12c.2.086.45.19.91.19s.71-.103.91-.187c.163-.07.283-.12.57-.12.28 0 .4.05.57.12.2.084.45.19.91.19s.71-.104.91-.19c.162-.07.29-.12.57-.12.28 0 .4.05.57.12.2.085.45.19.91.19.452 0 .71-.1.91-.19.16-.07.282-.12.57-.12.28 0 .4.05.56.12.2.09.45.19.91.19s.71-.1.91-.18c.17-.07.29-.12.57-.12.28 0 .4.05.57.12.2.08.453.19.91.19.46 0 .71-.107.913-.19.166-.07.29-.12.57-.12.28 0 .4.05.57.12.2.08.45.185.91.185.26 0 .47-.224.47-.5 0-.28-.21-.5-.473-.5zm-28.3-20.08l.64 5.058H2.62l.62-5.06zm-.685 6.057H3.95v3.22H2.555v-3.21zm0 4.21H3.95v4.18H2.555v-4.18zm0 5.18H3.95v3.94H2.555v-3.93zM7.56 132.1l.227 1.75H7.35l.214-1.75zm-.28 5.472h.57v2.35h-.57v-2.35zm0-2.725h.57v1.726h-.57v-1.725zm0 6.074h.57v2.01c-.19.06-.38.13-.57.21v-2.22zm16.5-8.82l.22 1.75h-.436l.216-1.75zm-.28 5.47h.57v2.35h-.57v-2.35zm0-2.72h.57v1.73h-.57v-1.72zm0 6.08h.57v2.22c-.186-.08-.375-.15-.57-.21v-2zm-11.525 3.04c1.026-.9 2.325-1.41 3.708-1.41 1.385 0 2.683.51 3.71 1.41l.29.27h-8l.294-.27zm-3.65 3.25h-1.21v-.98h17.35v.98H8.325zm15.174-3.23c.18.07.35.16.52.26h-3.06l-.1-.12c.38-.19.8-.3 1.24-.34h.22l.23.01c.16.01.32.04.47.07.16.04.32.08.47.14zm-13.1.26H7.34c.164-.1.335-.18.513-.25.16-.06.31-.11.48-.14.155-.03.313-.06.473-.07l.24-.01.226.01c.437.03.856.15 1.24.34l-.1.13zm5.28-6.26c1.24 0 2.41.42 3.36 1.17h-6.72c.94-.75 2.11-1.17 3.36-1.17zm-4.53 3.18h9.06v2.19l-.04.02c-1.22-1.15-2.8-1.8-4.5-1.8-1.69 0-3.28.65-4.49 1.8l-.04-.02v-2.18zM28.3 128.9l.64 5.06h-1.26l.62-5.06zm-.683 6.056h1.393v3.213h-1.394v-3.21zm0 4.21h1.393v4.18h-1.394v-4.18zm0 5.178h1.393v3.938h-1.394v-3.936zm-8.9-12.63c.083.067.183.1.285.1.1 0 .2-.033.283-.097.183-.146.243-.41.14-.625-.032-.07-.08-.13-.138-.175-.164-.13-.404-.13-.568 0-.19.145-.25.41-.14.626l.13.173m5.51-9.097c.08.07.18.1.28.1.1 0 .2-.04.28-.1.18-.15.24-.41.14-.63-.03-.07-.08-.13-.14-.18-.17-.13-.41-.13-.57-.01-.19.15-.24.41-.14.63l.14.17m-7.63 4.31c.08.06.18.1.28.1.1 0 .2-.04.28-.1.18-.15.24-.41.14-.63-.03-.07-.08-.13-.14-.18-.17-.13-.41-.13-.57 0-.19.14-.25.41-.14.62l.13.17m-5.26 1.24l.39.22.22.41c.08.16.24.26.41.26s.33-.1.41-.26l.213-.42.39-.22c.15-.09.243-.258.243-.44s-.09-.35-.24-.44l-.39-.224-.217-.41c-.08-.16-.24-.26-.41-.26s-.33.1-.414.26l-.21.414-.39.228c-.15.085-.25.254-.25.44s.09.35.24.434" fill="#206FAC"/><path d="M31.54 108.974c-.28 0-.402-.05-.568-.12-.202-.082-.453-.186-.91-.186l-.11.003v-4.33h.056c.26 0 .472-.22.472-.5 0-.27-.21-.5-.472-.5h-.056v-4.18h.056c.26 0 .472-.22.472-.5 0-.27-.21-.49-.472-.49h-.056v-3.72l-.005-.06-1.183-9.34V82.5c0-.277-.21-.5-.472-.5s-.472.223-.472.5v2.542l-1.147 9.344-.004.06v3.715h-.06c-.26 0-.47.23-.47.5 0 .28.21.5.47.5h.05v4.18h-.06c-.26 0-.48.23-.48.5s.21.5.47.5h.05v4.37c-.21.04-.36.1-.48.15l-.11.05c.17-.18.27-.43.27-.7v-2.97c0-.5-.36-.92-.83-.99-.16-.18-.34-.35-.52-.5v-2.84c.19-.06.34-.25.34-.47 0-.22-.15-.41-.34-.47v-2.4c.19-.06.34-.25.34-.48 0-.22-.15-.41-.34-.47V94.3l-.77-6.036v-1.63c0-.276-.21-.5-.47-.5s-.47.225-.47.5v1.634l-.74 6.036v2.31c-.2.06-.35.25-.35.48 0 .224.14.413.34.474v2.4c-.2.06-.35.25-.35.478 0 .23.14.42.34.48v1.866l-.23-.01h-.23v-2.38c.06-.26.02-.54-.12-.77-1.28-2.14-3.43-3.47-5.83-3.63v-.863c.27-.24.34-.65.16-.99l-.128-.16c-.277-.22-.67-.25-.936-.05l-.02.02c-.308.25-.33.68-.21.98.04.08.1.16.17.21l.02.01V96c-2.4.153-4.557 1.484-5.83 3.626-.14.23-.18.51-.12.77v2.38l-.227-.01-.24.01v-1.86c.196-.06.34-.25.34-.48 0-.23-.145-.42-.34-.48v-2.39c.196-.06.34-.25.34-.478 0-.23-.145-.42-.34-.48v-2.25l-.006-.06L8 88.25v-1.64c0-.277-.21-.5-.47-.5s-.47.224-.47.5v1.633l-.74 6.037v2.31c-.2.06-.346.25-.346.48 0 .225.143.414.34.475v2.4c-.2.06-.343.25-.343.48 0 .23.15.42.35.48v2.84c-.21.18-.41.377-.59.59-.31.17-.52.507-.52.9v2.976c0 .26.09.49.24.67-.16.07-.28.11-.55.11h-.05l.04-.2v-4.43h.06c.26 0 .47-.22.47-.5 0-.27-.21-.49-.47-.49h-.06v-4.18h.06c.26 0 .47-.22.47-.5s-.21-.5-.47-.5h-.06V94.4L3.7 85.04V82.5c0-.276-.21-.5-.47-.5s-.47.224-.47.5v2.543l-1.15 9.344v3.775h-.06c-.26 0-.47.224-.47.5 0 .275.21.498.47.498h.06v4.178h-.06c-.26 0-.47.223-.47.5s.21.498.47.498h.06v4.436l.03.172-.26-.09c-.2-.082-.45-.186-.91-.186-.26 0-.47.224-.47.5 0 .275.21.498.47.498.28 0 .406.05.57.12.2.082.455.186.91.186.46 0 .71-.103.915-.187.166-.07.286-.12.567-.12.283 0 .403.05.57.12.2.083.452.187.91.187.46 0 .71-.103.91-.187.168-.07.288-.12.57-.12.28 0 .4.05.568.12.2.083.454.187.91.187s.71-.103.913-.187c.163-.07.284-.12.564-.12.28 0 .4.05.568.12.203.083.454.187.91.187.46 0 .71-.103.913-.187.167-.07.288-.12.568-.12.28 0 .4.05.57.12.203.083.454.187.91.187.46 0 .71-.103.914-.187.166-.07.286-.12.567-.12.284 0 .403.05.57.12.2.083.453.187.91.187.46 0 .71-.103.913-.187.166-.07.286-.12.567-.12.28 0 .4.05.567.12.2.083.452.187.91.187.46 0 .71-.103.91-.187.166-.07.287-.12.57-.12.28 0 .4.05.57.12.2.083.45.187.91.187.456 0 .71-.103.91-.187.165-.07.286-.12.57-.12.28 0 .4.05.565.12.2.083.45.187.91.187s.71-.103.91-.187c.16-.07.28-.12.57-.12.28 0 .4.05.56.12.2.083.45.187.91.187s.71-.103.91-.187c.16-.07.29-.12.57-.12.28 0 .4.05.57.12.2.083.45.187.91.187.26 0 .47-.224.47-.5 0-.275-.21-.498-.48-.498zm-28.3-20.08l.64 5.058H2.62l.62-5.06zm-.685 6.057H3.95v3.22H2.555v-3.21zm0 4.21H3.95v4.18H2.555v-4.18zm0 5.18H3.95v3.94H2.555v-3.93zM7.56 92.1l.223 1.75h-.436l.215-1.75zm-.28 5.472h.57v2.35h-.57v-2.35zm0-2.725h.57v1.727h-.57v-1.73zm0 6.075h.57v2.01c-.195.055-.384.127-.57.212v-2.225zm16.495-8.82l.222 1.746h-.436l.22-1.748zm-.28 5.47h.57v2.35h-.57v-2.35zm0-2.725h.57v1.727h-.57v-1.73zm0 6.075h.57v2.216c-.185-.084-.374-.155-.57-.212v-2.002zm-11.525 3.03c1.03-.9 2.328-1.407 3.71-1.407 1.385 0 2.68.508 3.71 1.408l.29.278h-8l.293-.27zm-3.645 3.25h-1.21v-.98h17.35v.98H8.325zm15.173-3.232c.182.07.358.155.525.256H20.96l-.1-.126c.385-.192.803-.307 1.24-.338l.227-.008.228.01c.16.01.32.032.473.066.16.035.32.082.472.14zm-13.094.256H7.338c.164-.1.335-.182.513-.25.16-.06.31-.108.48-.144.16-.034.32-.058.48-.07l.24-.01.23.01c.44.03.86.145 1.24.336l-.1.127zm5.278-6.258c1.245 0 2.416.42 3.36 1.17h-6.72c.946-.75 2.117-1.17 3.36-1.17zm-4.53 3.174h9.06v2.186l-.035.02c-1.22-1.15-2.802-1.802-4.494-1.802-1.69 0-3.273.652-4.492 1.803l-.03-.02v-2.19zM28.3 88.894l.64 5.06h-1.26l.62-5.06zm-.685 6.057h1.394v3.22h-1.4v-3.21zm0 4.21h1.394v4.18h-1.4v-4.18zm0 5.18h1.394v3.94h-1.4v-3.93zm-8.9-12.63c.084.07.184.1.286.1.1 0 .2-.03.29-.1.19-.14.25-.41.14-.62-.03-.07-.08-.13-.14-.17-.16-.13-.4-.13-.56 0-.18.15-.24.41-.14.63l.14.18m5.51-9.09c.08.07.18.11.28.11.1 0 .2-.03.28-.1.19-.14.25-.4.14-.62-.03-.07-.08-.13-.13-.18-.16-.13-.4-.13-.56 0-.19.15-.24.41-.14.63l.14.18m-7.62 4.3c.09.07.18.1.29.1.11 0 .2-.03.29-.09.18-.14.24-.41.14-.62-.03-.07-.08-.13-.14-.172-.17-.13-.41-.13-.57 0-.19.14-.25.41-.14.623l.13.17m-5.26 1.24l.39.23.21.42c.09.16.248.26.42.26s.33-.1.415-.26l.215-.414.39-.225c.15-.08.25-.25.25-.44s-.1-.35-.25-.44l-.39-.22-.22-.414c-.085-.16-.24-.26-.417-.26s-.33.1-.417.26l-.216.415-.394.225c-.15.084-.244.253-.244.44s.09.35.24.44" fill="#fff"/><path d="M31.54 68.974c-.28 0-.402-.05-.568-.12-.202-.082-.453-.186-.91-.186l-.11.003v-4.33h.056c.26 0 .472-.22.472-.5 0-.27-.21-.49-.472-.49h-.056v-4.18h.056c.26 0 .472-.22.472-.5 0-.27-.21-.5-.472-.5h-.056v-3.72l-.005-.06-1.183-9.34V42.5c0-.277-.21-.5-.472-.5s-.472.223-.472.5v2.542l-1.147 9.344-.004.06v3.715h-.06c-.26 0-.47.23-.47.5 0 .28.21.5.47.5h.05v4.18h-.06c-.26 0-.48.23-.48.5s.21.5.47.5h.05v4.37c-.21.04-.36.1-.48.15l-.11.05c.17-.18.27-.43.27-.7v-2.98c0-.5-.36-.92-.83-.99-.16-.18-.34-.35-.52-.5V60.9c.19-.06.34-.25.34-.477 0-.23-.15-.42-.34-.477V57.55c.19-.06.34-.25.34-.48 0-.227-.15-.417-.34-.477V54.28l-.77-6.036V46.6c0-.276-.21-.5-.47-.5s-.47.225-.47.5v1.634l-.74 6.035v2.31c-.2.06-.35.25-.35.48 0 .22.14.41.34.47v2.39c-.2.06-.35.25-.35.47 0 .23.14.42.34.48v1.86l-.23-.01h-.23v-2.38c.06-.26.02-.54-.12-.77-1.28-2.14-3.43-3.47-5.83-3.63v-.86c.27-.23.34-.65.16-.99l-.128-.15c-.277-.22-.67-.25-.936-.05l-.02.02c-.308.24-.33.68-.21.98.04.09.1.16.17.21l.02.01v.83c-2.4.15-4.557 1.48-5.83 3.62-.14.23-.18.51-.12.77v2.38H9l-.24.01v-1.87c.195-.06.34-.25.34-.48 0-.23-.146-.42-.34-.48V57.5c.195-.06.34-.25.34-.476 0-.23-.146-.42-.34-.48V54.3l-.007-.06L8 48.22V46.6c0-.275-.21-.5-.47-.5s-.47.226-.47.5v1.635l-.74 6.035v2.31c-.2.06-.34.25-.34.48 0 .227.14.416.34.477v2.394c-.2.06-.346.25-.346.48 0 .23.143.42.34.48v2.85c-.21.18-.41.38-.59.59-.31.17-.524.51-.524.9v2.97c0 .26.094.49.24.67-.16.07-.28.12-.552.12h-.05l.04-.2v-4.44h.06c.26 0 .475-.22.475-.5 0-.27-.21-.5-.47-.5h-.06v-4.18h.06c.26 0 .47-.22.47-.49s-.21-.5-.47-.5h-.06v-3.72l-.005-.06-1.19-9.34V42.5c0-.276-.21-.5-.47-.5s-.47.224-.47.5v2.543L1.6 54.387v3.775h-.06c-.26 0-.47.224-.47.5 0 .275.21.498.47.498h.06v4.178h-.06c-.26 0-.47.223-.47.5s.21.498.47.498h.06v4.436l.03.172-.256-.09c-.2-.082-.45-.186-.91-.186-.26 0-.47.224-.47.5 0 .275.21.498.47.498.28 0 .407.05.57.12.2.082.456.186.91.186.46 0 .71-.103.916-.187.166-.07.286-.12.567-.12.283 0 .403.05.57.12.2.083.452.187.91.187.46 0 .71-.103.91-.187.17-.07.29-.12.57-.12.28 0 .4.05.57.12.2.083.454.187.91.187s.71-.103.913-.187c.168-.07.29-.12.57-.12.28 0 .4.05.57.12.2.083.45.187.91.187s.71-.103.91-.187c.167-.07.29-.12.57-.12.28 0 .4.05.566.12.202.083.453.187.91.187.46 0 .71-.103.91-.187.17-.07.29-.12.57-.12s.4.05.57.12c.2.083.45.187.91.187s.71-.103.91-.187c.167-.07.287-.12.57-.12.28 0 .4.05.566.12.203.083.454.187.91.187.46 0 .71-.103.913-.187.164-.07.285-.12.566-.12.28 0 .4.05.57.12.2.083.45.187.91.187s.71-.103.91-.187c.17-.07.29-.12.57-.12.28 0 .4.05.57.12.2.083.45.187.91.187s.71-.103.91-.187c.17-.07.29-.12.57-.12.28 0 .4.05.57.12.2.083.45.187.91.187s.71-.103.91-.187c.17-.07.29-.12.57-.12.28 0 .4.05.57.12.2.083.46.187.91.187.26 0 .48-.224.48-.5 0-.275-.21-.498-.47-.498zm-28.3-20.08l.64 5.058H2.62l.62-5.06zm-.685 6.057H3.95v3.22H2.555v-3.21zm0 4.21H3.95v4.18H2.555v-4.18zm0 5.18H3.95v3.94H2.555v-3.94zM7.56 52.1l.223 1.75h-.436l.215-1.75zm-.28 5.472h.57v2.35h-.57v-2.35zm0-2.725h.57v1.727h-.57v-1.73zm0 6.075h.57v2.01c-.195.055-.384.127-.57.212V60.92zm16.495-8.82l.222 1.746h-.436l.22-1.748zm-.28 5.47h.57v2.35h-.57v-2.35zm0-2.725h.57v1.727h-.57v-1.73zm0 6.075h.57v2.216c-.185-.084-.374-.155-.57-.212v-2zM11.97 63.95c1.026-.9 2.325-1.408 3.708-1.408 1.384 0 2.682.508 3.708 1.408l.292.272h-8l.293-.272zM8.323 67.2h-1.21v-.98h17.35v.98H8.323zm15.173-3.232c.182.07.358.155.525.256h-3.06l-.09-.126c.39-.192.8-.307 1.24-.338l.23-.008.23.01c.16.01.32.032.48.066.16.035.32.082.47.14zm-13.094.256H7.338c.164-.1.335-.182.513-.25.16-.06.31-.108.48-.144.16-.034.32-.058.48-.07l.24-.01.23.01c.44.03.86.145 1.24.336l-.1.127zm5.278-6.258c1.244 0 2.415.42 3.36 1.17h-6.72c.945-.75 2.116-1.17 3.36-1.17zm-4.53 3.174h9.06v2.186l-.036.02c-1.22-1.15-2.802-1.802-4.494-1.802-1.692 0-3.274.652-4.493 1.803l-.036-.02V61.14zM28.3 48.894l.64 5.06h-1.26l.62-5.06zm-.685 6.057h1.394v3.22h-1.4v-3.21zm0 4.21h1.394v4.18h-1.4v-4.18zm0 5.18h1.394v3.94h-1.4v-3.94zm-8.9-12.63c.084.07.184.1.286.1.1 0 .2-.03.29-.1.19-.14.25-.41.14-.62-.03-.07-.08-.13-.14-.17-.16-.13-.4-.13-.56 0-.18.15-.24.41-.14.63l.14.18m5.51-9.09c.08.07.18.11.28.11.1 0 .2-.03.28-.1.19-.14.25-.4.14-.62-.03-.07-.08-.13-.13-.18-.16-.13-.4-.13-.56 0-.19.15-.24.41-.14.63l.14.18m-7.62 4.3c.09.07.18.1.29.1.11 0 .2-.03.29-.09.18-.14.24-.41.14-.62-.03-.07-.08-.13-.14-.172-.17-.13-.41-.13-.57 0-.19.14-.25.41-.14.623l.13.17m-5.26 1.24l.39.23.21.42c.09.16.248.26.42.26s.33-.1.415-.26l.215-.414.39-.225c.15-.08.25-.25.25-.44s-.1-.35-.25-.44l-.39-.22-.22-.414c-.085-.16-.24-.26-.417-.26s-.33.1-.417.26l-.216.415-.394.225c-.15.084-.244.253-.244.44s.09.35.24.44" fill="#67737B"/><path d="M31.54 28.974c-.28 0-.402-.05-.568-.12-.202-.082-.453-.186-.91-.186l-.11.003v-4.33h.056c.26 0 .472-.22.472-.5 0-.27-.21-.49-.472-.49h-.056v-4.18h.056c.26 0 .472-.22.472-.5 0-.27-.21-.5-.472-.5h-.056v-3.72l-.005-.06-1.183-9.34V2.5c0-.277-.21-.5-.472-.5s-.472.223-.472.5v2.54l-1.147 9.344-.004.06v3.715h-.06c-.26 0-.47.22-.47.5 0 .27.21.5.47.5h.05v4.17h-.06c-.26 0-.48.22-.48.5s.21.5.47.5h.05v4.37c-.21.04-.36.1-.48.15l-.11.04c.17-.18.27-.43.27-.7v-2.97c0-.51-.36-.93-.83-.99-.16-.19-.34-.36-.52-.51v-2.83c.19-.06.34-.25.34-.48 0-.23-.15-.42-.34-.48v-2.39c.19-.06.34-.25.34-.48 0-.23-.15-.42-.34-.48v-2.31l-.76-6.04V6.6c0-.276-.21-.5-.47-.5s-.48.225-.48.5v1.64l-.74 6.036-.01.06v2.25c-.2.06-.34.25-.34.48 0 .227.14.416.34.477v2.394c-.2.06-.34.25-.34.477 0 .228.15.418.34.478v1.866l-.23-.008-.23.008v-2.382c.06-.26.02-.537-.12-.768-1.277-2.14-3.428-3.47-5.825-3.626v-.864c.267-.234.337-.648.16-.99l-.127-.154c-.28-.222-.67-.247-.94-.053l-.02.02c-.3.25-.33.69-.203.99.04.09.1.16.17.22l.02.01V16c-2.4.153-4.56 1.484-5.83 3.626-.14.23-.18.51-.12.77v2.38l-.23-.01-.24.01V20.9c.2-.06.34-.25.34-.478 0-.23-.14-.417-.34-.477v-2.4c.2-.06.34-.25.34-.475 0-.228-.14-.418-.34-.478v-2.25l-.003-.06L8 8.245v-1.64c0-.275-.21-.5-.47-.5s-.47.226-.47.5V8.24l-.74 6.036v2.31c-.2.06-.34.25-.34.48 0 .227.14.416.34.477v2.394c-.2.06-.346.25-.346.477 0 .228.145.418.34.478v2.843c-.21.176-.41.373-.59.59-.31.165-.52.503-.52.895v2.98c0 .255.093.487.24.664-.16.067-.28.114-.553.114h-.05l.04-.2V24.34h.06c.26 0 .48-.225.48-.5 0-.276-.21-.5-.47-.5h-.06v-4.18h.06c.26 0 .47-.222.47-.497 0-.276-.21-.5-.47-.5h-.06v-3.777L3.71 5.042V2.5c0-.276-.21-.5-.474-.5-.26 0-.47.224-.47.5v2.543l-1.15 9.344v3.775h-.06c-.26 0-.47.224-.47.5 0 .275.21.498.47.498h.06v4.178h-.06c-.26 0-.47.223-.47.5s.21.498.47.498h.06v4.436l.03.172-.256-.09c-.2-.082-.45-.186-.91-.186-.26 0-.47.224-.47.5 0 .275.21.498.47.498.28 0 .406.05.57.12.2.082.455.186.91.186.46 0 .71-.103.915-.187.166-.07.286-.12.567-.12.284 0 .404.05.57.12.2.083.453.187.91.187.46 0 .71-.103.91-.187.17-.07.29-.12.57-.12.28 0 .4.05.57.12.2.083.456.187.91.187s.71-.103.915-.187c.166-.07.29-.12.57-.12.28 0 .4.05.57.12.2.083.45.187.91.187s.71-.103.91-.187c.17-.07.29-.12.57-.12.28 0 .4.05.565.12.202.083.453.187.91.187.46 0 .71-.103.91-.187.17-.07.29-.12.57-.12s.4.05.57.12c.2.083.45.187.91.187s.71-.103.91-.187c.167-.07.287-.12.57-.12.28 0 .4.05.566.12.2.083.452.187.91.187.46 0 .71-.103.91-.187.166-.07.287-.12.568-.12.28 0 .4.05.57.12.2.083.45.187.91.187.458 0 .71-.103.91-.187.167-.07.288-.12.57-.12.28 0 .4.05.567.12.2.083.45.187.91.187s.71-.103.91-.187c.168-.07.29-.12.57-.12.28 0 .4.05.568.12.2.083.45.187.91.187s.71-.103.91-.187c.17-.07.29-.12.57-.12.28 0 .4.05.57.12.2.083.45.187.91.187.26 0 .48-.224.48-.5 0-.275-.21-.498-.47-.498zM3.24 8.894l.64 5.058H2.62l.62-5.06zm-.685 6.057H3.95v3.22H2.555v-3.21zm0 4.21H3.95v4.18H2.555v-4.18zm0 5.18H3.95v3.94H2.555v-3.94zM7.56 12.1l.223 1.75h-.436l.215-1.75zm-.28 5.472h.57v2.35h-.57v-2.35zm0-2.725h.57v1.727h-.57v-1.73zm0 6.075h.57v2.01c-.195.055-.384.127-.57.212V20.92zm16.495-8.82l.222 1.746h-.436l.22-1.748zm-.28 5.47h.57v2.35h-.57v-2.35zm0-2.725h.57v1.727h-.57v-1.73zm0 6.075h.57v2.216c-.185-.084-.374-.155-.57-.212v-2zM11.97 23.95c1.026-.9 2.325-1.408 3.708-1.408 1.384 0 2.682.508 3.708 1.408l.292.272h-8l.293-.272zM8.323 27.2h-1.21v-.98h17.35v.98H8.323zm15.173-3.232c.182.07.358.155.525.256h-3.06l-.09-.126c.39-.192.8-.307 1.24-.338l.23-.008.23.01c.16.01.32.032.48.066.16.035.32.082.47.14zm-13.094.256H7.338c.164-.1.335-.182.513-.25.16-.06.31-.108.48-.144.16-.034.32-.058.48-.07l.24-.01.23.01c.44.03.86.145 1.24.336l-.1.127zm5.278-6.258c1.244 0 2.415.42 3.36 1.17h-6.72c.945-.75 2.116-1.17 3.36-1.17zm-4.53 3.174h9.06v2.186l-.036.02c-1.22-1.15-2.802-1.802-4.494-1.802-1.692 0-3.274.652-4.493 1.803l-.036-.02V21.14zM28.3 8.894l.64 5.06h-1.26l.62-5.06zm-.685 6.057h1.394v3.22h-1.4v-3.21zm0 4.21h1.394v4.18h-1.4v-4.18zm0 5.18h1.394v3.94h-1.4v-3.94zm-8.9-12.63c.084.07.184.1.286.1.1 0 .2-.03.29-.1.19-.14.25-.41.14-.62-.03-.07-.08-.13-.14-.17-.16-.13-.4-.13-.56 0-.18.15-.24.41-.14.63l.14.18m5.51-9.09c.08.07.18.11.28.11.1 0 .2-.03.28-.1.19-.14.25-.4.14-.62-.03-.07-.08-.13-.13-.18-.16-.13-.4-.13-.56 0-.19.15-.24.41-.14.63l.14.18m-7.62 4.3c.09.07.18.1.29.1.11 0 .2-.03.29-.09.18-.14.24-.41.14-.62-.03-.07-.08-.13-.14-.172-.17-.13-.41-.13-.57 0-.19.14-.25.41-.14.623l.13.17m-5.27 1.24l.4.225.21.42c.087.16.246.26.418.26s.33-.1.41-.26l.21-.41.39-.222c.15-.08.247-.25.247-.44s-.1-.35-.25-.44L13 7.12l-.215-.41c-.083-.16-.242-.26-.415-.26-.17 0-.33.1-.415.26l-.214.42-.39.226c-.15.09-.24.26-.24.44s.09.35.24.44" fill="#3A434E"/></g></svg>