<svg width="32" height="232" viewBox="0 0 32 232" xmlns="http://www.w3.org/2000/svg"><g fill="none"><path d="M20.456 126.71c.217.21.496.328.785.328h1.64v.1c0 .325.13.637.35.853.19.19.44.29.69.29h3.45c.57 0 1.04-.51 1.04-1.14s-.47-1.14-1.04-1.14h-.1l.03-.27c0-.72-.53-1.31-1.19-1.31h-4.86c-.28 0-.56.12-.78.33-.25.25-.4.61-.4.98 0 .38.15.74.41.99zm.624-1.184c.032-.03.085-.068.16-.068h4.854c.135 0 .245.12.245.27 0 .15-.11.27-.25.27-.26 0-.47.233-.47.52 0 .287.21.52.47.52h1.26c.05 0 .09.044.09.1 0 .053-.04.098-.09.098H23.9l-.06-.025-.03-.07.03-.07.06-.02h.002c.26 0 .47-.23.47-.52 0-.28-.21-.52-.47-.52h-2.67c-.077 0-.13-.03-.16-.07-.03-.03-.086-.09-.086-.2 0-.1.052-.17.084-.2zm10.43 21.195c-.28 0-.4-.05-.567-.12-.202-.08-.453-.19-.91-.19l-.342.03v-2.37c0-.28-.21-.52-.47-.52h-.63v-1.63c0-.28-.21-.52-.47-.52H24.7v-3.76c0-.25-.174-.47-.406-.51l-3.49-.56h-.112l-.023.01-.03.01-.03.01-.03.01-.02.01-1.33.56c-.19.08-.31.27-.31.49v3.77h-1.4v-9.54c.77-.066 1.43-.1 1.91-.1 2.88 0 4.8.3 6.49.57l.23.034c1.24.195 2.34.36 3.62.36.26 0 .48-.235.48-.52 0-.29-.21-.52-.47-.52-1.29 0-2.42-.18-3.72-.386-1.73-.274-3.68-.583-6.63-.583-.49 0-1.14.03-1.91.093v-5.574c0-.49-.31-.91-.74-1.016L7.76 122l-.06-.01-.04-.01-.11-.006-.02.005h-.12l-.07.01-.043.01-.066.02-.04.02-.07.04-.02.01-3.43 2.23c-.29.19-.46.53-.46.89v7.393l-2.28.34c-.26.04-.44.306-.4.59.03.26.24.45.47.45h.07c.036 0 .86-.13 2.15-.32v7.71h-.46c-.26 0-.47.24-.47.52v1.63H1.7c-.26 0-.47.237-.47.52v2.477c-.178-.07-.4-.12-.73-.12-.26 0-.47.23-.47.52 0 .28.21.52.47.52.28 0 .4.05.565.12.2.09.45.195.91.195.457 0 .71-.11.91-.197.167-.07.287-.12.567-.12.28 0 .4.05.57.125.21.09.46.2.91.2.46 0 .71-.11.92-.195.168-.07.288-.12.57-.12.28 0 .4.058.57.13.2.09.45.2.91.2s.71-.107.91-.19c.17-.077.29-.128.57-.128.28 0 .4.06.567.13.2.087.45.195.91.195s.71-.106.91-.19c.16-.07.28-.125.562-.125.28 0 .4.05.57.12.2.087.45.195.91.195s.71-.103.91-.19c.17-.074.29-.125.57-.125.28 0 .4.05.565.125.204.086.454.194.91.194s.71-.11.914-.19c.16-.07.28-.13.563-.13.28 0 .4.05.57.122.2.09.45.196.91.196s.71-.105.91-.19c.165-.07.286-.125.567-.125.28 0 .4.05.57.12.203.088.453.196.91.196s.71-.11.913-.195c.166-.07.286-.12.57-.12.28 0 .4.05.565.12.2.085.45.193.91.193s.71-.106.91-.193c.165-.07.285-.12.566-.12.28 0 .4.05.567.12.206.09.456.2.91.2s.71-.11.916-.195c.17-.07.29-.12.57-.12.28 0 .4.057.57.128.2.086.45.19.91.19.26 0 .47-.23.47-.52 0-.282-.21-.52-.47-.52zM5.073 133.4v-7.574l1.547-1.004v16.13H5.07v-7.55zm3.434-9.1l7.13 1.764v14.886H14.05v-13.133c0-.247-.157-.46-.376-.51l-3.017-.68c-.14-.03-.283.01-.393.108-.11.1-.174.248-.174.404v13.81H8.506V124.3zm2.528 16.65v-13.18l2.074.467v13.147h-2.08v-.438zm-4.326 1.478h20.93v.966H3.19v-.966H6.7zm13.16-4.445l.38-.162v3.49h-.39v-3.32zm3.87 3.32H21.2v-3.637l2.548.41v3.227zm-21.61 3.274h26.61v1.52H2.14v-1.52zm26.41 4.298c-.28 0-.4-.05-.57-.122-.21-.087-.46-.195-.91-.195s-.71.11-.92.196c-.17.07-.29.124-.57.124-.28 0-.4-.052-.57-.124-.21-.088-.46-.196-.91-.196-.46 0-.71.11-.92.196-.17.07-.29.123-.57.123-.28 0-.4-.052-.57-.124-.2-.09-.45-.198-.91-.198s-.71.11-.91.196c-.17.07-.29.13-.57.13-.28 0-.4-.05-.57-.12-.2-.08-.45-.19-.91-.19s-.71.11-.91.2c-.17.08-.29.13-.57.13-.28 0-.4-.05-.57-.12-.2-.08-.45-.19-.91-.19s-.71.11-.91.2c-.17.07-.29.13-.57.13-.28 0-.4-.05-.57-.12-.2-.08-.45-.19-.91-.19-.26 0-.47.24-.47.52 0 .29.21.52.47.52.28 0 .4.06.57.13.2.09.45.2.91.2s.71-.11.91-.2c.17-.07.29-.12.57-.12.28 0 .4.05.57.12.2.09.45.2.91.2s.71-.11.91-.19c.16-.075.28-.126.57-.126.28 0 .4.05.57.123.2.09.45.197.91.197s.71-.11.91-.196c.16-.07.28-.12.57-.12.28 0 .4.05.56.12.2.09.45.2.91.2s.71-.11.91-.2c.16-.07.28-.128.562-.128.28 0 .4.055.57.126.2.09.456.2.91.2.46 0 .71-.11.916-.19.17-.07.29-.12.57-.12.28 0 .4.053.57.124.205.09.455.196.91.196.265 0 .476-.23.476-.52 0-.282-.21-.52-.474-.52" fill="#206FAC"/><path d="M20.456 86.71c.217.21.496.328.785.328h1.64v.1c0 .325.13.637.35.853.19.19.44.29.69.29h3.45c.57 0 1.04-.51 1.04-1.14S27.93 86 27.36 86h-.1l.026-.27c0-.72-.533-1.31-1.19-1.31H21.24c-.288 0-.567.12-.784.33-.256.25-.403.607-.403.98 0 .378.147.736.403.985zm.624-1.184c.032-.03.085-.068.16-.068h4.854c.135 0 .245.12.245.27 0 .15-.11.27-.25.27-.26 0-.47.233-.47.52 0 .287.21.52.47.52h1.26c.05 0 .09.044.09.1 0 .053-.04.098-.09.098H23.9l-.06-.025-.03-.07.03-.07.06-.02h.002c.26 0 .47-.23.47-.52 0-.28-.21-.52-.47-.52h-2.67c-.077 0-.13-.03-.16-.07-.03-.03-.086-.09-.086-.2 0-.1.052-.17.084-.2zm10.43 21.195c-.28 0-.4-.05-.567-.12-.202-.08-.453-.19-.91-.19l-.342.03v-2.37c0-.28-.21-.52-.47-.52h-.63v-1.63c0-.28-.21-.52-.47-.52H24.7v-3.77c0-.25-.174-.47-.406-.51l-3.49-.56h-.112l-.023.01-.03.01-.03.01-.03.01-.02.01-1.33.56c-.19.08-.31.27-.31.49v3.77h-1.4v-9.54c.77-.06 1.43-.1 1.91-.1 2.88 0 4.8.31 6.49.57l.23.04c1.24.2 2.34.36 3.62.36.26 0 .48-.23.48-.52 0-.29-.21-.52-.47-.52-1.29 0-2.42-.18-3.72-.39-1.73-.27-3.68-.58-6.63-.58-.49 0-1.14.04-1.91.1v-5.58c0-.49-.31-.91-.74-1.01l-9-2.26-.06-.01-.04-.01-.11-.01-.03.005-.09.005-.046.01-.07.01-.05.014-.065.03-.05.02-.07.036-.03.01-3.43 2.23c-.29.19-.46.53-.46.9v7.39c-1.29.19-2.14.32-2.28.34-.26.04-.44.3-.4.59.03.26.23.44.46.44h.07c.03-.006.86-.13 2.15-.32v7.71h-.46c-.26 0-.477.233-.477.52v1.63h-.59c-.26 0-.47.23-.47.52v2.47c-.176-.063-.4-.12-.734-.12-.26 0-.47.233-.47.52 0 .287.215.52.476.52.28 0 .4.05.56.123.2.084.45.192.91.192s.71-.1.91-.19c.17-.07.29-.12.57-.12.28 0 .4.05.563.122.2.09.45.196.91.196s.71-.107.91-.194c.17-.07.29-.12.57-.12.28 0 .4.05.57.12.21.083.46.19.91.19.46 0 .71-.106.92-.19.165-.07.285-.126.566-.126.28 0 .4.05.57.12.2.085.45.193.91.193s.71-.106.91-.19c.167-.07.287-.12.57-.12.28 0 .4.05.565.123.207.09.457.196.91.196.46 0 .71-.104.91-.19.17-.07.29-.123.57-.123.28 0 .4.05.57.125.206.087.456.195.91.195s.71-.11.916-.196c.167-.074.287-.125.57-.125.28 0 .4.052.57.123.2.09.45.2.91.2s.71-.11.91-.2c.166-.07.29-.12.57-.12.28 0 .4.054.566.125.208.09.458.2.91.2s.71-.1.918-.19c.17-.07.29-.12.57-.12.28 0 .4.05.57.12.2.09.45.196.91.196s.71-.106.91-.193c.17-.07.29-.12.57-.12.28 0 .4.05.57.12.2.09.45.2.91.2s.71-.108.91-.19c.17-.077.29-.128.57-.128.28 0 .405.05.57.12.2.083.45.19.91.19.26 0 .47-.23.47-.52 0-.284-.21-.52-.47-.52zM5.073 93.4v-7.58l1.547-1.004v16.13H5.07v-7.55zm3.434-9.1l7.13 1.764v14.886H14.05V87.812c0-.247-.157-.46-.376-.51l-3.017-.68c-.14-.03-.283.01-.393.108-.11.1-.174.247-.174.403v13.814H8.506v-16.65zm2.528 16.65V87.77l2.074.47v13.146h-2.08v-.438zm-4.326 1.478h20.93v.966H3.19v-.966H6.7zm13.16-4.448l.38-.162v3.482h-.39v-3.32zm3.87 3.32H21.2v-3.64l2.548.41v3.228zm-21.61 3.274h26.61v1.52H2.14v-1.52zm26.41 4.298c-.28 0-.4-.05-.57-.122-.21-.087-.46-.195-.91-.195s-.71.11-.92.196c-.17.07-.29.13-.57.13-.28 0-.4-.05-.57-.12-.21-.08-.46-.19-.91-.19-.46 0-.71.11-.92.2-.17.07-.29.13-.57.13-.28 0-.4-.05-.57-.12-.2-.09-.45-.19-.91-.19s-.71.11-.91.2c-.17.07-.29.13-.57.13-.28 0-.4-.05-.57-.12-.2-.085-.45-.193-.91-.193s-.71.11-.91.193c-.17.07-.29.122-.57.122-.28 0-.4-.053-.57-.125-.21-.083-.46-.19-.91-.19-.46 0-.71.11-.92.195-.17.07-.29.12-.57.12-.28 0-.4-.05-.57-.12-.2-.085-.45-.19-.91-.19-.26 0-.47.23-.47.52 0 .284.21.52.47.52.28 0 .4.05.57.12.2.086.45.194.91.194s.71-.11.91-.194c.16-.07.29-.125.57-.125.28 0 .4.05.57.12.2.09.45.2.91.2s.71-.11.91-.2c.16-.07.28-.12.56-.12s.4.05.57.12c.2.09.45.196.91.196s.71-.11.91-.194c.166-.07.29-.12.57-.12.28 0 .4.05.566.12.2.09.45.2.91.2s.71-.11.91-.195c.17-.075.29-.126.57-.126.28 0 .4.05.57.12.2.09.45.196.91.196s.71-.11.91-.194c.17-.07.29-.12.57-.12.28 0 .4.05.57.12.203.085.453.193.91.193.263 0 .474-.238.474-.52 0-.29-.21-.52-.47-.52" fill="#fff"/><path d="M20.456 46.71c.217.21.496.328.785.328h1.64v.1c0 .325.13.637.35.853.19.19.44.29.69.29h3.45c.57 0 1.04-.51 1.04-1.14S27.93 46 27.36 46h-.1l.026-.27c0-.72-.533-1.31-1.19-1.31H21.24c-.288 0-.567.12-.784.33-.256.25-.403.607-.403.98 0 .378.147.736.403.985zm.624-1.184c.032-.03.085-.068.16-.068h4.854c.135 0 .245.12.245.27 0 .15-.11.27-.25.27-.26 0-.47.233-.47.52 0 .287.21.52.47.52h1.26c.05 0 .09.044.09.1 0 .053-.04.098-.09.098H23.9l-.06-.025-.03-.07.03-.07.06-.02h.002c.26 0 .47-.23.47-.52 0-.28-.21-.52-.47-.52h-2.67c-.077 0-.13-.03-.16-.07-.03-.03-.086-.09-.086-.2 0-.1.052-.17.084-.2zM31.51 66.72c-.28 0-.4-.05-.567-.122-.202-.087-.453-.195-.91-.195l-.342.023V64.05c0-.286-.21-.52-.47-.52h-.63v-1.628c0-.287-.21-.52-.47-.52H24.7v-3.764c0-.258-.174-.477-.406-.514l-3.49-.56h-.007l-.02-.002-.032-.002h-.023l-.03.002-.023.003-.03.006-.03.01-.03.01-.02.01-1.33.56c-.19.08-.31.27-.31.49v3.77h-1.4v-9.54c.77-.06 1.43-.1 1.91-.1 2.88 0 4.8.31 6.49.58l.23.04c1.24.2 2.34.36 3.62.36.26 0 .48-.23.48-.52 0-.29-.21-.52-.47-.52-1.29 0-2.42-.18-3.72-.38-1.73-.27-3.68-.58-6.63-.58-.49 0-1.14.04-1.91.1v-5.58c0-.48-.31-.91-.74-1.01L7.75 42l-.06-.01-.04-.01-.11-.005-.023.005-.09.006-.05.007-.07.02-.042.02-.07.03-.043.02-.07.04-.028.017-3.438 2.23c-.29.187-.465.527-.465.895v7.393l-2.28.34c-.25.04-.43.3-.4.59.04.26.24.45.47.45l.1-.038c.04-.002.86-.13 2.15-.32v7.714h-.46c-.26 0-.47.233-.47.52v1.63h-.59c-.26 0-.47.232-.47.52v2.472c-.17-.066-.4-.123-.73-.123-.26 0-.47.233-.47.52 0 .287.218.52.48.52.28 0 .4.05.567.123.204.087.454.195.913.195.455 0 .71-.1.91-.19.165-.07.285-.12.565-.12.28 0 .4.05.568.12.203.09.453.2.91.2.46 0 .71-.1.913-.19.166-.07.286-.12.567-.12.28 0 .4.05.567.13.21.09.46.2.91.2.46 0 .71-.1.92-.19.17-.07.29-.12.57-.12.28 0 .4.06.57.13.2.09.45.2.91.2s.71-.1.91-.19c.17-.07.29-.12.57-.12.28 0 .4.05.57.13.21.085.46.193.91.193.46 0 .71-.11.91-.194.17-.074.29-.125.57-.125.28 0 .4.05.57.12.21.09.46.2.91.2s.71-.11.92-.193c.17-.07.29-.12.57-.12.28 0 .4.054.57.125.2.08.45.19.91.19s.71-.107.91-.194c.17-.08.29-.13.57-.13.28 0 .4.054.57.125.21.083.46.19.91.19s.71-.11.92-.194c.17-.07.29-.12.57-.12.28 0 .4.05.57.12.2.084.45.192.91.192s.71-.11.91-.197c.17-.07.29-.12.57-.12.28 0 .4.05.57.12.207.084.457.19.91.19s.71-.105.917-.19c.167-.07.287-.125.57-.125.28 0 .4.05.57.123.2.09.45.193.91.193.26 0 .47-.23.47-.52 0-.285-.212-.52-.473-.52zM5.073 53.396V45.82l1.547-1.004v16.13H5.07v-7.55zm3.434-9.1l7.13 1.764v14.885H14.05V47.812c0-.247-.157-.46-.376-.51l-3.017-.68c-.14-.03-.283.01-.393.108-.11.1-.174.247-.174.403v13.814H8.506v-16.65zm2.528 16.65V47.768l2.074.468v13.147h-2.08v-.438zM6.71 62.424h20.934v.966H3.197v-.967h3.51zm13.164-4.445l.386-.17v3.49h-.387v-3.32zm3.877 3.32h-2.54v-3.64l2.55.41v3.22zM2.14 64.57h26.61v1.52H2.14v-1.52zm26.414 4.298c-.28 0-.4-.052-.568-.124-.202-.087-.452-.195-.91-.195s-.71.11-.912.19c-.167.07-.287.12-.568.12-.28 0-.4-.05-.568-.13-.202-.09-.452-.2-.91-.2-.46 0-.71.11-.912.19-.167.07-.287.12-.568.12-.28 0-.4-.05-.568-.12-.202-.09-.452-.2-.91-.2-.46 0-.71.11-.912.19-.167.07-.287.12-.568.12-.28 0-.4-.05-.568-.13-.202-.09-.452-.2-.91-.2-.46 0-.71.11-.912.2-.167.072-.287.124-.568.124-.28 0-.4-.05-.567-.12-.202-.09-.452-.197-.91-.197-.46 0-.71.11-.912.195-.167.07-.287.123-.568.123-.28 0-.4-.05-.568-.12-.202-.09-.452-.197-.91-.197-.262 0-.473.23-.473.52 0 .29.21.52.472.52.28 0 .4.05.567.12.202.087.452.195.91.195.46 0 .71-.11.912-.195.166-.07.287-.124.567-.124.28 0 .4.05.568.12.202.09.452.2.91.2s.71-.11.912-.2c.167-.076.287-.127.568-.127.28 0 .4.052.567.123.202.09.452.2.91.2.46 0 .71-.11.912-.197.16-.07.28-.12.56-.12s.4.05.57.12c.2.09.45.197.91.197s.71-.11.91-.197c.16-.07.28-.128.57-.128.28 0 .4.05.57.12.2.09.45.2.91.2s.71-.11.91-.2c.16-.07.28-.12.57-.12.28 0 .4.054.57.125.2.09.45.198.91.198.26 0 .47-.23.47-.52 0-.285-.21-.52-.47-.52" fill="#67737B"/><path d="M20.456 6.71c.217.21.496.328.785.328h1.64v.1c0 .325.13.637.35.853.19.19.44.29.69.29h3.45c.57 0 1.04-.51 1.04-1.14S27.93 6 27.36 6h-.1l.025-.27c0-.723-.533-1.31-1.19-1.31H21.24c-.288 0-.567.116-.784.328-.256.25-.403.606-.403.982 0 .375.147.733.403.982zm.624-1.184c.032-.03.085-.068.16-.068h4.854c.135 0 .245.12.245.27 0 .15-.11.27-.25.27-.26 0-.47.233-.47.52 0 .287.21.52.47.52h1.26c.05 0 .09.044.09.1 0 .053-.04.098-.09.098H23.9l-.06-.025-.03-.07.03-.07.06-.02h.002c.26 0 .47-.23.47-.52 0-.28-.21-.52-.47-.52h-2.67c-.077 0-.13-.03-.16-.07-.03-.03-.086-.09-.086-.2 0-.1.052-.17.084-.2zM31.51 26.72c-.28 0-.4-.05-.567-.122-.202-.087-.453-.195-.91-.195l-.342.023V24.05c0-.286-.21-.52-.47-.52h-.63v-1.628c0-.287-.21-.52-.47-.52H24.7v-3.764c0-.258-.174-.477-.406-.514l-3.49-.56h-.007l-.02-.002-.032-.002h-.023l-.03.002-.023.003-.03.006-.03.01-.03.01-.02.01-1.33.56c-.19.08-.31.27-.31.49v3.77h-1.4v-9.54c.77-.06 1.43-.1 1.91-.1 2.88 0 4.8.31 6.49.58l.23.04c1.24.2 2.34.36 3.62.36.26 0 .48-.23.48-.52 0-.29-.21-.52-.47-.52-1.29 0-2.42-.18-3.72-.38-1.73-.27-3.68-.58-6.63-.58-.49 0-1.14.04-1.91.1v-5.6c0-.48-.31-.9-.74-1.01L7.76 1.99l-.06-.01-.04-.008-.11-.007h-.03l-.08.01-.04.007-.07.014L7.29 2l-.066.026-.04.02-.07.037-.024.015L3.65 4.33c-.29.187-.465.527-.465.895v7.394c-1.283.19-2.14.32-2.28.34-.257.04-.437.3-.4.58.032.26.234.45.466.45l.07-.01c.04-.01.86-.13 2.15-.32v7.71h-.46c-.26 0-.47.23-.47.52v1.63h-.59c-.26 0-.47.23-.47.52v2.47c-.17-.07-.4-.12-.73-.12-.26 0-.47.23-.47.52 0 .28.22.52.48.52.28 0 .4.05.57.12.21.08.46.19.92.19s.71-.11.91-.2c.17-.08.29-.13.57-.13.28 0 .4.05.56.12.21.08.46.19.91.19.46 0 .71-.11.92-.2.17-.07.29-.13.57-.13.28 0 .4.05.57.12.2.08.45.19.91.19s.71-.11.91-.2c.17-.07.29-.13.57-.13.28 0 .4.053.57.124.21.09.46.2.91.2.46 0 .71-.11.92-.198.17-.07.29-.12.57-.12.28 0 .4.053.568.124.2.09.45.197.91.197s.71-.11.91-.193c.168-.07.29-.125.57-.125.28 0 .4.05.567.12.2.084.45.19.91.19s.71-.11.91-.194c.16-.074.28-.125.56-.125s.4.05.568.124c.21.083.46.19.91.19.46 0 .71-.11.92-.197.17-.076.29-.127.57-.127.28 0 .4.056.57.127.2.085.45.193.91.193s.71-.11.91-.2c.17-.07.29-.12.57-.12.28 0 .4.05.567.12.2.09.456.196.91.196.46 0 .71-.11.916-.2.167-.07.287-.123.568-.123.28 0 .4.05.57.12.205.09.455.2.91.2s.71-.11.915-.2c.17-.07.29-.12.57-.12.28 0 .406.054.57.125.2.084.45.19.91.19.26 0 .47-.234.47-.52 0-.29-.21-.52-.47-.52zM5.073 13.396V5.82L6.62 4.817v16.13H5.07v-7.55zm3.434-9.1l7.13 1.764v14.885H14.05V7.812c0-.247-.157-.46-.376-.51l-3.017-.68c-.14-.03-.283.01-.393.108-.11.1-.174.247-.174.403v13.814H8.506V4.297zm2.528 16.65V7.768l2.074.468v13.147h-2.08v-.438zM6.71 22.424h20.934v.966H3.197v-.967h3.51zm13.164-4.445l.386-.17v3.49h-.387v-3.32zm3.877 3.32h-2.54v-3.64l2.55.41v3.22zM2.14 24.57h26.61v1.52H2.14v-1.52zm26.414 4.298c-.28 0-.4-.052-.568-.124-.202-.087-.452-.195-.91-.195s-.71.11-.912.19c-.167.07-.287.12-.568.12-.28 0-.4-.05-.568-.13-.202-.09-.452-.2-.91-.2-.46 0-.71.11-.912.19-.167.07-.287.12-.568.12-.28 0-.4-.05-.568-.12-.202-.09-.452-.2-.91-.2-.46 0-.71.11-.912.19-.167.07-.287.12-.568.12-.28 0-.4-.05-.568-.13-.202-.09-.452-.2-.91-.2-.46 0-.71.11-.912.2-.167.072-.287.124-.568.124-.28 0-.4-.05-.567-.12-.202-.09-.452-.197-.91-.197-.46 0-.71.11-.912.195-.167.07-.287.123-.568.123-.28 0-.4-.05-.568-.12-.202-.09-.452-.197-.91-.197-.262 0-.473.23-.473.52 0 .29.21.52.472.52.28 0 .4.05.567.12.202.087.452.195.91.195.46 0 .71-.11.912-.195.166-.07.287-.124.567-.124.28 0 .4.05.568.12.202.09.452.2.91.2s.71-.11.912-.2c.167-.076.287-.127.568-.127.28 0 .4.052.567.123.202.09.452.2.91.2.46 0 .71-.11.912-.197.16-.07.28-.12.56-.12s.4.05.57.12c.2.09.45.197.91.197s.71-.11.91-.197c.16-.07.28-.128.57-.128.28 0 .4.05.57.12.2.09.45.2.91.2s.71-.11.91-.2c.16-.07.28-.12.57-.12.28 0 .4.054.57.125.2.09.45.198.91.198.26 0 .47-.23.47-.52 0-.285-.21-.52-.47-.52" fill="#3A434E"/></g></svg>