<svg width="32" height="232" viewBox="0 0 32 232" xmlns="http://www.w3.org/2000/svg"><g fill="none">
<path id="XMLID_434_" fill="#3A444F" d="M28.8,16.3l-5-1.2c1.3-1.3,2.5-2.3,4-2.4c0.2,0,0.4-0.2,0.5-0.4c0-0.2-0.1-0.4-0.3-0.5
				c-0.5-0.2-1-0.4-1.6-0.4c-1.3,0-2.6,0.6-3.9,1.1l2.7-4.4c0.1-0.2,0.1-0.4-0.1-0.6c-0.2-0.2-0.4-0.2-0.6-0.1l-4.1,2.5
				c0-1.8,0.1-3.5,1.2-4.5c0.2-0.2,0.2-0.4,0.1-0.6c-0.1-0.2-0.3-0.3-0.6-0.2c-1.8,0.7-2.6,2.5-3.3,4.4L16.5,4
				c0-0.2-0.2-0.4-0.5-0.4c-0.2,0-0.4,0.1-0.5,0.4l-1.2,5C13.1,7.7,12,6.5,12,5c0-0.2-0.2-0.4-0.4-0.5c-0.2,0-0.4,0.1-0.5,0.3
				c-0.8,1.8-0.1,3.7,0.8,5.5L7.5,7.7C7.3,7.6,7.1,7.6,6.9,7.7C6.8,7.9,6.8,8.1,6.9,8.3l2.5,4.1c-1.8,0-3.5-0.1-4.5-1.2
				c-0.2-0.2-0.4-0.2-0.6-0.1c-0.2,0.1-0.3,0.3-0.2,0.6c0.7,1.8,2.5,2.6,4.4,3.3l-5.3,1.2c-0.2,0-0.4,0.2-0.4,0.5
				c0,0.2,0.1,0.4,0.4,0.5l5,1.2c-1.3,1.3-2.5,2.3-4,2.4c-0.2,0-0.4,0.2-0.5,0.4c0,0.2,0.1,0.4,0.3,0.5c0.5,0.2,1,0.4,1.6,0.4
				c1.3,0,2.6-0.6,3.9-1.1l-2.7,4.4c-0.1,0.2-0.1,0.4,0.1,0.6C7.1,26,7.3,26,7.5,25.9l4.1-2.5c0,1.8-0.1,3.5-1.2,4.5
				c-0.2,0.2-0.2,0.4-0.1,0.6c0.1,0.2,0.3,0.3,0.6,0.2c1.8-0.7,2.6-2.5,3.3-4.4l1.2,5.3c0,0.2,0.2,0.4,0.5,0.4
				c0.2,0,0.4-0.1,0.5-0.4l1.2-5c1.3,1.3,2.3,2.5,2.4,4c0,0.2,0.2,0.4,0.4,0.5c0,0,0.1,0,0.1,0c0.2,0,0.3-0.1,0.4-0.3
				c0.8-1.8,0.1-3.7-0.8-5.5l4.4,2.7c0.2,0.1,0.4,0.1,0.6-0.1c0.2-0.2,0.2-0.4,0.1-0.6l-2.5-4.1c1.8,0,3.5,0.1,4.5,1.2
				c0.2,0.2,0.4,0.2,0.6,0.1c0.2-0.1,0.3-0.3,0.2-0.6c-0.7-1.8-2.5-2.6-4.4-3.3l5.3-1.2c0.2,0,0.4-0.2,0.4-0.5
				C29.2,16.6,29.1,16.4,28.8,16.3z M16.9,23.8L16,27.5l-1.1-4.7L14.7,22c0.2,0,0.3,0.1,0.5,0.1c0.1,0,0.1,0,0.2,0
				c0.2,0,0.4,0,0.6,0c0.2,0,0.4,0,0.6,0c0.2,0,0.5-0.1,0.7-0.1l-0.2,0.7L16.9,23.8z M15.1,9.8L16,6.1l1.1,4.7l0.2,0.8
				c-0.2,0-0.3-0.1-0.5-0.1c-0.1,0-0.1,0-0.2,0c-0.2,0-0.4,0-0.6,0c-0.2,0-0.4,0-0.6,0c-0.2,0-0.5,0.1-0.7,0.1l0.2-0.7L15.1,9.8z
				 M20.2,18.1c-0.2,0.7-0.6,1.4-1.2,1.9c-0.3,0.3-0.6,0.5-1,0.7c-0.6,0.3-1.3,0.5-2.1,0.5c0,0-0.1,0-0.1,0c-0.4,0-0.8-0.1-1.2-0.2
				c-0.7-0.2-1.4-0.6-1.9-1.2c-0.3-0.3-0.5-0.6-0.7-1c-0.3-0.6-0.5-1.3-0.5-2.1c0,0,0-0.1,0-0.1c0-0.4,0.1-0.8,0.2-1.2
				c0.2-0.7,0.6-1.4,1.2-1.9c0.3-0.3,0.6-0.5,1-0.7c0.6-0.3,1.3-0.5,2.1-0.5c0,0,0.1,0,0.1,0c0.4,0,0.8,0.1,1.2,0.2
				c0.7,0.2,1.4,0.6,1.9,1.2c0.3,0.3,0.5,0.6,0.7,1c0.3,0.6,0.5,1.3,0.5,2.1c0,0,0,0.1,0,0.1C20.4,17.3,20.4,17.7,20.2,18.1z
				 M21,13.4L20.6,14c-0.1-0.1-0.2-0.3-0.3-0.4c0,0-0.1-0.1-0.1-0.1c-0.2-0.3-0.5-0.6-0.8-0.9c-0.2-0.1-0.4-0.3-0.6-0.4l0.6-0.4
				l0.9-0.6l3-1.8L21,13.4z M12.6,11.8l0.7,0.4c-0.1,0.1-0.3,0.2-0.4,0.3c0,0-0.1,0.1-0.1,0.1c-0.3,0.2-0.6,0.5-0.9,0.8
				c-0.1,0.2-0.3,0.4-0.4,0.6L11,13.4l-0.6-0.9l-1.8-3L12.6,11.8z M10,15.7l0.8-0.2c0,0.2-0.1,0.3-0.1,0.5c0,0.1,0,0.1,0,0.2
				c0,0.2,0,0.4,0,0.6c0,0.2,0,0.4,0,0.6c0,0.2,0.1,0.5,0.1,0.7l-0.7-0.2L9,17.7l-3.7-0.9L10,15.7z M11,20.2l0.4-0.7
				c0.1,0.1,0.2,0.3,0.3,0.4c0,0,0.1,0.1,0.1,0.1c0.2,0.3,0.5,0.6,0.8,0.9c0.2,0.1,0.4,0.3,0.6,0.4l-0.6,0.4l-0.9,0.6l-3,1.8
				L11,20.2z M19.4,21.8l-0.7-0.4c0.1-0.1,0.3-0.2,0.4-0.3c0,0,0.1-0.1,0.1-0.1c0.3-0.2,0.6-0.5,0.9-0.8c0.1-0.2,0.3-0.4,0.4-0.6
				l0.4,0.6l0.6,0.9l1.8,3L19.4,21.8z M22,17.9l-0.8,0.2c0-0.2,0.1-0.3,0.1-0.5c0-0.1,0-0.1,0-0.2c0-0.2,0-0.4,0-0.6
				c0-0.2,0-0.4,0-0.6c0-0.2-0.1-0.5-0.1-0.7l0.7,0.2l1.1,0.3l3.7,0.9L22,17.9z M22.6,13.7c1-0.4,1.9-0.9,2.8-1.1
				c-0.9,0.6-1.8,1.4-2.6,2.3c0,0,0,0,0,0l-1.4-0.3l0.3-0.5C21.9,14,22.3,13.8,22.6,13.7z M18.4,10c0.4-1,0.7-2,1.2-2.8
				c-0.3,1.1-0.3,2.3-0.3,3.4c0,0,0,0.1,0,0.1l-1.2,0.7l-0.1-0.6C18.2,10.6,18.3,10.3,18.4,10z M12.9,10.2c-0.4-1-0.9-1.9-1.1-2.8
				c0.6,0.9,1.4,1.8,2.3,2.6c0,0,0,0,0,0l-0.3,1.4l-0.5-0.3C13.2,10.9,13,10.5,12.9,10.2z M9.2,14.4c-1-0.4-2-0.7-2.8-1.2
				c1.1,0.3,2.3,0.3,3.4,0.3c0,0,0.1,0,0.1,0l0.7,1.2l-0.6,0.1C9.8,14.6,9.5,14.5,9.2,14.4z M9.4,19.9c-1,0.4-1.9,0.9-2.8,1.1
				c0.9-0.6,1.8-1.4,2.6-2.3c0,0,0,0,0,0l1.4,0.3l-0.3,0.5C10.1,19.6,9.7,19.8,9.4,19.9z M13.6,23.6c-0.4,1-0.7,2-1.2,2.8
				c0.3-1.1,0.3-2.3,0.3-3.4c0,0,0-0.1,0-0.1l1.2-0.7l0.1,0.6C13.8,23,13.7,23.3,13.6,23.6z M19.1,23.4c0.4,1,0.9,1.9,1.1,2.8
				c-0.6-0.9-1.4-1.8-2.3-2.6c0,0,0,0,0,0l0.3-1.4l0.5,0.3C18.8,22.7,19,23.1,19.1,23.4z M22.8,19.2c1,0.4,2,0.7,2.8,1.2
				c-1.1-0.3-2.3-0.3-3.4-0.3c0,0-0.1,0-0.1,0L21.3,19l0.6-0.1C22.2,19,22.5,19.1,22.8,19.2z"/>
			<path id="XMLID_433_" fill="#3A444F" d="M17.2,18.6C17.2,18.6,17.2,18.6,17.2,18.6c-0.1,0-0.1,0-0.2,0c-0.1,0-0.1,0-0.2,0
				c0,0-0.1,0-0.1,0c0,0-0.1,0-0.1,0c-0.1,0-0.1,0-0.2,0c-0.1,0-0.1,0-0.2,0c-0.1,0-0.1,0-0.2,0c-0.1,0-0.1,0-0.2,0
				c-0.1,0-0.1,0-0.2,0c-0.1,0-0.1,0-0.2,0c0,0-0.1,0-0.1,0c0,0-0.1,0-0.1,0c-0.1,0-0.1,0-0.2,0c0,0-0.1,0-0.1,0c0,0-0.1,0-0.1,0
				c0,0-0.1,0-0.1,0c0,0,0,0,0,0s0,0,0,0c0,0,0,0,0,0c0,0,0,0.1,0,0.1c0,0,0,0.1,0,0.1c0,0,0,0.1,0,0.1c0,0.1,0.1,0.1,0.1,0.2
				c0,0,0.1,0.1,0.1,0.1c0,0,0.1,0.1,0.1,0.1c0.1,0.1,0.2,0.1,0.3,0.2c0,0,0,0,0.1,0c0.1,0,0.2,0.1,0.2,0.1c0.1,0,0.2,0,0.4,0
				c0.1,0,0.2,0,0.4,0c0.1,0,0.2,0,0.2-0.1c0,0,0,0,0.1,0c0.1-0.1,0.2-0.1,0.3-0.2c0,0,0.1-0.1,0.1-0.1c0,0,0.1-0.1,0.1-0.1
				c0.1-0.1,0.1-0.1,0.1-0.2c0,0,0-0.1,0-0.1c0,0,0-0.1,0-0.1c0,0,0-0.1,0-0.1c0,0,0,0,0,0c0,0,0,0,0,0s0,0,0,0
				C17.3,18.6,17.3,18.6,17.2,18.6z"/>
			<path id="XMLID_432_" fill="#3A444F" d="M18.1,15.1C17.9,15,17.8,15,17.6,15c-0.1,0-0.1,0-0.2,0c-0.2,0-0.3,0.1-0.5,0.2
				c-0.1,0.1-0.2,0.1-0.3,0.2c-0.1,0.1-0.1,0.2-0.1,0.3l-0.1,1.5c0,0.3,0.2,0.5,0.4,0.5c0,0,0,0,0,0c0.2,0,0.4-0.2,0.5-0.4l0.1-1.3
				c0.1,0,0.2-0.1,0.2-0.1c0,0,0,0,0.1,0c0.1,0,0.2,0.1,0.3,0.1c0.1,0.1,0.2,0.1,0.3,0.1c0.1,0,0.2,0,0.3-0.1
				c0.1-0.1,0.1-0.2,0.1-0.3c0-0.1,0-0.3-0.1-0.4C18.4,15.3,18.3,15.1,18.1,15.1z"/>
			<path id="XMLID_431_" fill="#3A444F" d="M15.1,16.2c0.1,0,0.2,0,0.3-0.1c0.2-0.2,0.2-0.5,0-0.7c-0.1-0.1-0.2-0.2-0.3-0.2
				C15,15.1,14.8,15,14.6,15c-0.1,0-0.1,0-0.2,0c-0.2,0-0.4,0-0.6,0.1c-0.2,0.1-0.3,0.2-0.5,0.3c-0.1,0.1-0.1,0.3-0.1,0.4
				c0,0.1,0.1,0.2,0.1,0.3c0.1,0.1,0.2,0.1,0.3,0.1c0.1,0,0.2,0,0.3-0.1c0.1-0.1,0.2-0.1,0.3-0.1c0.2,0,0.3,0,0.4,0.1
				C14.9,16.1,15,16.2,15.1,16.2z"/>
		</g>
		<g id="XMLID_365_">
			<path id="XMLID_369_" fill="#67737C" d="M28.8,56.3l-5-1.2c1.3-1.3,2.5-2.3,4-2.4c0.2,0,0.4-0.2,0.5-0.4c0-0.2-0.1-0.4-0.3-0.5
				c-0.5-0.2-1-0.4-1.6-0.4c-1.3,0-2.6,0.6-3.9,1.1l2.7-4.4c0.1-0.2,0.1-0.4-0.1-0.6c-0.2-0.2-0.4-0.2-0.6-0.1l-4.1,2.5
				c0-1.8,0.1-3.5,1.2-4.5c0.2-0.2,0.2-0.4,0.1-0.6c-0.1-0.2-0.3-0.3-0.6-0.2c-1.8,0.7-2.6,2.5-3.3,4.4L16.5,44
				c0-0.2-0.2-0.4-0.5-0.4c-0.2,0-0.4,0.1-0.5,0.4l-1.2,5c-1.3-1.3-2.3-2.5-2.4-4c0-0.2-0.2-0.4-0.4-0.5c-0.2,0-0.4,0.1-0.5,0.3
				c-0.8,1.8-0.1,3.7,0.8,5.5l-4.4-2.7c-0.2-0.1-0.4-0.1-0.6,0.1c-0.2,0.2-0.2,0.4-0.1,0.6l2.5,4.1c-1.8,0-3.5-0.1-4.5-1.2
				c-0.2-0.2-0.4-0.2-0.6-0.1c-0.2,0.1-0.3,0.3-0.2,0.6c0.7,1.8,2.5,2.6,4.4,3.3l-5.3,1.2c-0.2,0-0.4,0.2-0.4,0.5
				c0,0.2,0.1,0.4,0.4,0.5l5,1.2c-1.3,1.3-2.5,2.3-4,2.4c-0.2,0-0.4,0.2-0.5,0.4c0,0.2,0.1,0.4,0.3,0.5c0.5,0.2,1,0.4,1.6,0.4
				c1.3,0,2.6-0.6,3.9-1.1l-2.7,4.4c-0.1,0.2-0.1,0.4,0.1,0.6C7.1,66,7.3,66,7.5,65.9l4.1-2.5c0,1.8-0.1,3.5-1.2,4.5
				c-0.2,0.2-0.2,0.4-0.1,0.6c0.1,0.2,0.3,0.3,0.6,0.2c1.8-0.7,2.6-2.5,3.3-4.4l1.2,5.3c0,0.2,0.2,0.4,0.5,0.4
				c0.2,0,0.4-0.1,0.5-0.4l1.2-5c1.3,1.3,2.3,2.5,2.4,4c0,0.2,0.2,0.4,0.4,0.5c0,0,0.1,0,0.1,0c0.2,0,0.3-0.1,0.4-0.3
				c0.8-1.8,0.1-3.7-0.8-5.5l4.4,2.7c0.2,0.1,0.4,0.1,0.6-0.1c0.2-0.2,0.2-0.4,0.1-0.6l-2.5-4.1c1.8,0,3.5,0.1,4.5,1.2
				c0.2,0.2,0.4,0.2,0.6,0.1c0.2-0.1,0.3-0.3,0.2-0.6c-0.7-1.8-2.5-2.6-4.4-3.3l5.3-1.2c0.2,0,0.4-0.2,0.4-0.5
				C29.2,56.6,29.1,56.4,28.8,56.3z M16.9,63.8L16,67.5l-1.1-4.7L14.7,62c0.2,0,0.3,0.1,0.5,0.1c0.1,0,0.1,0,0.2,0
				c0.2,0,0.4,0,0.6,0c0.2,0,0.4,0,0.6,0c0.2,0,0.5-0.1,0.7-0.1l-0.2,0.7L16.9,63.8z M15.1,49.8l0.9-3.7l1.1,4.7l0.2,0.8
				c-0.2,0-0.3-0.1-0.5-0.1c-0.1,0-0.1,0-0.2,0c-0.2,0-0.4,0-0.6,0c-0.2,0-0.4,0-0.6,0c-0.2,0-0.5,0.1-0.7,0.1l0.2-0.7L15.1,49.8z
				 M20.2,58.1c-0.2,0.7-0.6,1.4-1.2,1.9c-0.3,0.3-0.6,0.5-1,0.7c-0.6,0.3-1.3,0.5-2.1,0.5c0,0-0.1,0-0.1,0c-0.4,0-0.8-0.1-1.2-0.2
				c-0.7-0.2-1.4-0.6-1.9-1.2c-0.3-0.3-0.5-0.6-0.7-1c-0.3-0.6-0.5-1.3-0.5-2.1c0,0,0-0.1,0-0.1c0-0.4,0.1-0.8,0.2-1.2
				c0.2-0.7,0.6-1.4,1.2-1.9c0.3-0.3,0.6-0.5,1-0.7c0.6-0.3,1.3-0.5,2.1-0.5c0,0,0.1,0,0.1,0c0.4,0,0.8,0.1,1.2,0.2
				c0.7,0.2,1.4,0.6,1.9,1.2c0.3,0.3,0.5,0.6,0.7,1c0.3,0.6,0.5,1.3,0.5,2.1c0,0,0,0.1,0,0.1C20.4,57.3,20.4,57.7,20.2,58.1z
				 M21,53.4L20.6,54c-0.1-0.1-0.2-0.3-0.3-0.4c0,0-0.1-0.1-0.1-0.1c-0.2-0.3-0.5-0.6-0.8-0.9c-0.2-0.1-0.4-0.3-0.6-0.4l0.6-0.4
				l0.9-0.6l3-1.8L21,53.4z M12.6,51.8l0.7,0.4c-0.1,0.1-0.3,0.2-0.4,0.3c0,0-0.1,0.1-0.1,0.1c-0.3,0.2-0.6,0.5-0.9,0.8
				c-0.1,0.2-0.3,0.4-0.4,0.6L11,53.4l-0.6-0.9l-1.8-3L12.6,51.8z M10,55.7l0.8-0.2c0,0.2-0.1,0.3-0.1,0.5c0,0.1,0,0.1,0,0.2
				c0,0.2,0,0.4,0,0.6c0,0.2,0,0.4,0,0.6c0,0.2,0.1,0.5,0.1,0.7l-0.7-0.2L9,57.7l-3.7-0.9L10,55.7z M11,60.2l0.4-0.7
				c0.1,0.1,0.2,0.3,0.3,0.4c0,0,0.1,0.1,0.1,0.1c0.2,0.3,0.5,0.6,0.8,0.9c0.2,0.1,0.4,0.3,0.6,0.4l-0.6,0.4l-0.9,0.6l-3,1.8
				L11,60.2z M19.4,61.8l-0.7-0.4c0.1-0.1,0.3-0.2,0.4-0.3c0,0,0.1-0.1,0.1-0.1c0.3-0.2,0.6-0.5,0.9-0.8c0.1-0.2,0.3-0.4,0.4-0.6
				l0.4,0.6l0.6,0.9l1.8,3L19.4,61.8z M22,57.9l-0.8,0.2c0-0.2,0.1-0.3,0.1-0.5c0-0.1,0-0.1,0-0.2c0-0.2,0-0.4,0-0.6
				c0-0.2,0-0.4,0-0.6c0-0.2-0.1-0.5-0.1-0.7l0.7,0.2l1.1,0.3l3.7,0.9L22,57.9z M22.6,53.7c1-0.4,1.9-0.9,2.8-1.1
				c-0.9,0.6-1.8,1.4-2.6,2.3c0,0,0,0,0,0l-1.4-0.3l0.3-0.5C21.9,54,22.3,53.8,22.6,53.7z M18.4,50c0.4-1,0.7-2,1.2-2.8
				c-0.3,1.1-0.3,2.3-0.3,3.4c0,0,0,0.1,0,0.1l-1.2,0.7l-0.1-0.6C18.2,50.6,18.3,50.3,18.4,50z M12.9,50.2c-0.4-1-0.9-1.9-1.1-2.8
				c0.6,0.9,1.4,1.8,2.3,2.6c0,0,0,0,0,0l-0.3,1.4l-0.5-0.3C13.2,50.9,13,50.5,12.9,50.2z M9.2,54.4c-1-0.4-2-0.7-2.8-1.2
				c1.1,0.3,2.3,0.3,3.4,0.3c0,0,0.1,0,0.1,0l0.7,1.2l-0.6,0.1C9.8,54.6,9.5,54.5,9.2,54.4z M9.4,59.9c-1,0.4-1.9,0.9-2.8,1.1
				c0.9-0.6,1.8-1.4,2.6-2.3c0,0,0,0,0,0l1.4,0.3l-0.3,0.5C10.1,59.6,9.7,59.8,9.4,59.9z M13.6,63.6c-0.4,1-0.7,2-1.2,2.8
				c0.3-1.1,0.3-2.3,0.3-3.4c0,0,0-0.1,0-0.1l1.2-0.7l0.1,0.6C13.8,63,13.7,63.3,13.6,63.6z M19.1,63.4c0.4,1,0.9,1.9,1.1,2.8
				c-0.6-0.9-1.4-1.8-2.3-2.6c0,0,0,0,0,0l0.3-1.4l0.5,0.3C18.8,62.7,19,63.1,19.1,63.4z M22.8,59.2c1,0.4,2,0.7,2.8,1.2
				c-1.1-0.3-2.3-0.3-3.4-0.3c0,0-0.1,0-0.1,0L21.3,59l0.6-0.1C22.2,59,22.5,59.1,22.8,59.2z"/>
			<path id="XMLID_368_" fill="#67737C" d="M17.2,58.6C17.2,58.6,17.2,58.6,17.2,58.6c-0.1,0-0.1,0-0.2,0c-0.1,0-0.1,0-0.2,0
				c0,0-0.1,0-0.1,0c0,0-0.1,0-0.1,0c-0.1,0-0.1,0-0.2,0c-0.1,0-0.1,0-0.2,0c-0.1,0-0.1,0-0.2,0c-0.1,0-0.1,0-0.2,0
				c-0.1,0-0.1,0-0.2,0c-0.1,0-0.1,0-0.2,0c0,0-0.1,0-0.1,0c0,0-0.1,0-0.1,0c-0.1,0-0.1,0-0.2,0c0,0-0.1,0-0.1,0c0,0-0.1,0-0.1,0
				c0,0-0.1,0-0.1,0c0,0,0,0,0,0s0,0,0,0c0,0,0,0,0,0c0,0,0,0.1,0,0.1c0,0,0,0.1,0,0.1c0,0,0,0.1,0,0.1c0,0.1,0.1,0.1,0.1,0.2
				c0,0,0.1,0.1,0.1,0.1c0,0,0.1,0.1,0.1,0.1c0.1,0.1,0.2,0.1,0.3,0.2c0,0,0,0,0.1,0c0.1,0,0.2,0.1,0.2,0.1c0.1,0,0.2,0,0.4,0
				c0.1,0,0.2,0,0.4,0c0.1,0,0.2,0,0.2-0.1c0,0,0,0,0.1,0c0.1-0.1,0.2-0.1,0.3-0.2c0,0,0.1-0.1,0.1-0.1c0,0,0.1-0.1,0.1-0.1
				c0.1-0.1,0.1-0.1,0.1-0.2c0,0,0-0.1,0-0.1c0,0,0-0.1,0-0.1c0,0,0-0.1,0-0.1c0,0,0,0,0,0c0,0,0,0,0,0s0,0,0,0
				C17.3,58.6,17.3,58.6,17.2,58.6z"/>
			<path id="XMLID_367_" fill="#67737C" d="M18.1,55.1C17.9,55,17.8,55,17.6,55c-0.1,0-0.1,0-0.2,0c-0.2,0-0.3,0.1-0.5,0.2
				c-0.1,0.1-0.2,0.1-0.3,0.2c-0.1,0.1-0.1,0.2-0.1,0.3l-0.1,1.5c0,0.3,0.2,0.5,0.4,0.5c0,0,0,0,0,0c0.2,0,0.4-0.2,0.5-0.4l0.1-1.3
				c0.1,0,0.2-0.1,0.2-0.1c0,0,0,0,0.1,0c0.1,0,0.2,0.1,0.3,0.1c0.1,0.1,0.2,0.1,0.3,0.1c0.1,0,0.2,0,0.3-0.1
				c0.1-0.1,0.1-0.2,0.1-0.3c0-0.1,0-0.3-0.1-0.4C18.4,55.3,18.3,55.1,18.1,55.1z"/>
			<path id="XMLID_366_" fill="#67737C" d="M15.1,56.2c0.1,0,0.2,0,0.3-0.1c0.2-0.2,0.2-0.5,0-0.7c-0.1-0.1-0.2-0.2-0.3-0.2
				C15,55.1,14.8,55,14.6,55c-0.1,0-0.1,0-0.2,0c-0.2,0-0.4,0-0.6,0.1c-0.2,0.1-0.3,0.2-0.5,0.3c-0.1,0.1-0.1,0.3-0.1,0.4
				c0,0.1,0.1,0.2,0.1,0.3c0.1,0.1,0.2,0.1,0.3,0.1c0.1,0,0.2,0,0.3-0.1c0.1-0.1,0.2-0.1,0.3-0.1c0.2,0,0.3,0,0.4,0.1
				C14.9,56.1,15,56.2,15.1,56.2z"/>
		</g>
		<g id="XMLID_618_">
			<path id="XMLID_622_" fill="#FFFFFF" d="M28.8,96.3l-5-1.2c1.3-1.3,2.5-2.3,4-2.4c0.2,0,0.4-0.2,0.5-0.4c0-0.2-0.1-0.4-0.3-0.5
				c-0.5-0.2-1-0.4-1.6-0.4c-1.3,0-2.6,0.6-3.9,1.1l2.7-4.4c0.1-0.2,0.1-0.4-0.1-0.6c-0.2-0.2-0.4-0.2-0.6-0.1l-4.1,2.5
				c0-1.8,0.1-3.5,1.2-4.5c0.2-0.2,0.2-0.4,0.1-0.6c-0.1-0.2-0.3-0.3-0.6-0.2c-1.8,0.7-2.6,2.5-3.3,4.4L16.5,84
				c0-0.2-0.2-0.4-0.5-0.4c-0.2,0-0.4,0.1-0.5,0.4l-1.2,5c-1.3-1.3-2.3-2.5-2.4-4c0-0.2-0.2-0.4-0.4-0.5c-0.2,0-0.4,0.1-0.5,0.3
				c-0.8,1.8-0.1,3.7,0.8,5.5l-4.4-2.7c-0.2-0.1-0.4-0.1-0.6,0.1c-0.2,0.2-0.2,0.4-0.1,0.6l2.5,4.1c-1.8,0-3.5-0.1-4.5-1.2
				c-0.2-0.2-0.4-0.2-0.6-0.1c-0.2,0.1-0.3,0.3-0.2,0.6c0.7,1.8,2.5,2.6,4.4,3.3l-5.3,1.2c-0.2,0-0.4,0.2-0.4,0.5
				c0,0.2,0.1,0.4,0.4,0.5l5,1.2c-1.3,1.3-2.5,2.3-4,2.4c-0.2,0-0.4,0.2-0.5,0.4c0,0.2,0.1,0.4,0.3,0.5c0.5,0.2,1,0.4,1.6,0.4
				c1.3,0,2.6-0.6,3.9-1.1l-2.7,4.4c-0.1,0.2-0.1,0.4,0.1,0.6c0.2,0.2,0.4,0.2,0.6,0.1l4.1-2.5c0,1.8-0.1,3.5-1.2,4.5
				c-0.2,0.2-0.2,0.4-0.1,0.6c0.1,0.2,0.3,0.3,0.6,0.2c1.8-0.7,2.6-2.5,3.3-4.4l1.2,5.3c0,0.2,0.2,0.4,0.5,0.4
				c0.2,0,0.4-0.1,0.5-0.4l1.2-5c1.3,1.3,2.3,2.5,2.4,4c0,0.2,0.2,0.4,0.4,0.5c0,0,0.1,0,0.1,0c0.2,0,0.3-0.1,0.4-0.3
				c0.8-1.8,0.1-3.7-0.8-5.5l4.4,2.7c0.2,0.1,0.4,0.1,0.6-0.1c0.2-0.2,0.2-0.4,0.1-0.6l-2.5-4.1c1.8,0,3.5,0.1,4.5,1.2
				c0.2,0.2,0.4,0.2,0.6,0.1c0.2-0.1,0.3-0.3,0.2-0.6c-0.7-1.8-2.5-2.6-4.4-3.3l5.3-1.2c0.2,0,0.4-0.2,0.4-0.5
				C29.2,96.6,29.1,96.4,28.8,96.3z M16.9,103.8l-0.9,3.7l-1.1-4.7l-0.2-0.8c0.2,0,0.3,0.1,0.5,0.1c0.1,0,0.1,0,0.2,0
				c0.2,0,0.4,0,0.6,0c0.2,0,0.4,0,0.6,0c0.2,0,0.5-0.1,0.7-0.1l-0.2,0.7L16.9,103.8z M15.1,89.8l0.9-3.7l1.1,4.7l0.2,0.8
				c-0.2,0-0.3-0.1-0.5-0.1c-0.1,0-0.1,0-0.2,0c-0.2,0-0.4,0-0.6,0c-0.2,0-0.4,0-0.6,0c-0.2,0-0.5,0.1-0.7,0.1l0.2-0.7L15.1,89.8z
				 M20.2,98.1c-0.2,0.7-0.6,1.4-1.2,1.9c-0.3,0.3-0.6,0.5-1,0.7c-0.6,0.3-1.3,0.5-2.1,0.5c0,0-0.1,0-0.1,0c-0.4,0-0.8-0.1-1.2-0.2
				c-0.7-0.2-1.4-0.6-1.9-1.2c-0.3-0.3-0.5-0.6-0.7-1c-0.3-0.6-0.5-1.3-0.5-2.1c0,0,0-0.1,0-0.1c0-0.4,0.1-0.8,0.2-1.2
				c0.2-0.7,0.6-1.4,1.2-1.9c0.3-0.3,0.6-0.5,1-0.7c0.6-0.3,1.3-0.5,2.1-0.5c0,0,0.1,0,0.1,0c0.4,0,0.8,0.1,1.2,0.2
				c0.7,0.2,1.4,0.6,1.9,1.2c0.3,0.3,0.5,0.6,0.7,1c0.3,0.6,0.5,1.3,0.5,2.1c0,0,0,0.1,0,0.1C20.4,97.3,20.4,97.7,20.2,98.1z
				 M21,93.4L20.6,94c-0.1-0.1-0.2-0.3-0.3-0.4c0,0-0.1-0.1-0.1-0.1c-0.2-0.3-0.5-0.6-0.8-0.9c-0.2-0.1-0.4-0.3-0.6-0.4l0.6-0.4
				l0.9-0.6l3-1.8L21,93.4z M12.6,91.8l0.7,0.4c-0.1,0.1-0.3,0.2-0.4,0.3c0,0-0.1,0.1-0.1,0.1c-0.3,0.2-0.6,0.5-0.9,0.8
				c-0.1,0.2-0.3,0.4-0.4,0.6L11,93.4l-0.6-0.9l-1.8-3L12.6,91.8z M10,95.7l0.8-0.2c0,0.2-0.1,0.3-0.1,0.5c0,0.1,0,0.1,0,0.2
				c0,0.2,0,0.4,0,0.6c0,0.2,0,0.4,0,0.6c0,0.2,0.1,0.5,0.1,0.7l-0.7-0.2L9,97.7l-3.7-0.9L10,95.7z M11,100.2l0.4-0.7
				c0.1,0.1,0.2,0.3,0.3,0.4c0,0,0.1,0.1,0.1,0.1c0.2,0.3,0.5,0.6,0.8,0.9c0.2,0.1,0.4,0.3,0.6,0.4l-0.6,0.4l-0.9,0.6l-3,1.8
				L11,100.2z M19.4,101.8l-0.7-0.4c0.1-0.1,0.3-0.2,0.4-0.3c0,0,0.1-0.1,0.1-0.1c0.3-0.2,0.6-0.5,0.9-0.8c0.1-0.2,0.3-0.4,0.4-0.6
				l0.4,0.6l0.6,0.9l1.8,3L19.4,101.8z M22,97.9l-0.8,0.2c0-0.2,0.1-0.3,0.1-0.5c0-0.1,0-0.1,0-0.2c0-0.2,0-0.4,0-0.6
				c0-0.2,0-0.4,0-0.6c0-0.2-0.1-0.5-0.1-0.7l0.7,0.2l1.1,0.3l3.7,0.9L22,97.9z M22.6,93.7c1-0.4,1.9-0.9,2.8-1.1
				c-0.9,0.6-1.8,1.4-2.6,2.3c0,0,0,0,0,0l-1.4-0.3l0.3-0.5C21.9,94,22.3,93.8,22.6,93.7z M18.4,90c0.4-1,0.7-2,1.2-2.8
				c-0.3,1.1-0.3,2.3-0.3,3.4c0,0,0,0.1,0,0.1l-1.2,0.7l-0.1-0.6C18.2,90.6,18.3,90.3,18.4,90z M12.9,90.2c-0.4-1-0.9-1.9-1.1-2.8
				c0.6,0.9,1.4,1.8,2.3,2.6c0,0,0,0,0,0l-0.3,1.4l-0.5-0.3C13.2,90.9,13,90.5,12.9,90.2z M9.2,94.4c-1-0.4-2-0.7-2.8-1.2
				c1.1,0.3,2.3,0.3,3.4,0.3c0,0,0.1,0,0.1,0l0.7,1.2l-0.6,0.1C9.8,94.6,9.5,94.5,9.2,94.4z M9.4,99.9c-1,0.4-1.9,0.9-2.8,1.1
				c0.9-0.6,1.8-1.4,2.6-2.3c0,0,0,0,0,0l1.4,0.3l-0.3,0.5C10.1,99.6,9.7,99.8,9.4,99.9z M13.6,103.6c-0.4,1-0.7,2-1.2,2.8
				c0.3-1.1,0.3-2.3,0.3-3.4c0,0,0-0.1,0-0.1l1.2-0.7l0.1,0.6C13.8,103,13.7,103.3,13.6,103.6z M19.1,103.4c0.4,1,0.9,1.9,1.1,2.8
				c-0.6-0.9-1.4-1.8-2.3-2.6c0,0,0,0,0,0l0.3-1.4l0.5,0.3C18.8,102.7,19,103.1,19.1,103.4z M22.8,99.2c1,0.4,2,0.7,2.8,1.2
				c-1.1-0.3-2.3-0.3-3.4-0.3c0,0-0.1,0-0.1,0L21.3,99l0.6-0.1C22.2,99,22.5,99.1,22.8,99.2z"/>
			<path id="XMLID_621_" fill="#FFFFFF" d="M17.2,98.6C17.2,98.6,17.2,98.6,17.2,98.6c-0.1,0-0.1,0-0.2,0c-0.1,0-0.1,0-0.2,0
				c0,0-0.1,0-0.1,0c0,0-0.1,0-0.1,0c-0.1,0-0.1,0-0.2,0c-0.1,0-0.1,0-0.2,0c-0.1,0-0.1,0-0.2,0c-0.1,0-0.1,0-0.2,0
				c-0.1,0-0.1,0-0.2,0c-0.1,0-0.1,0-0.2,0c0,0-0.1,0-0.1,0c0,0-0.1,0-0.1,0c-0.1,0-0.1,0-0.2,0c0,0-0.1,0-0.1,0c0,0-0.1,0-0.1,0
				c0,0-0.1,0-0.1,0c0,0,0,0,0,0s0,0,0,0c0,0,0,0,0,0c0,0,0,0.1,0,0.1c0,0,0,0.1,0,0.1c0,0,0,0.1,0,0.1c0,0.1,0.1,0.1,0.1,0.2
				c0,0,0.1,0.1,0.1,0.1c0,0,0.1,0.1,0.1,0.1c0.1,0.1,0.2,0.1,0.3,0.2c0,0,0,0,0.1,0c0.1,0,0.2,0.1,0.2,0.1c0.1,0,0.2,0,0.4,0
				c0.1,0,0.2,0,0.4,0c0.1,0,0.2,0,0.2-0.1c0,0,0,0,0.1,0c0.1-0.1,0.2-0.1,0.3-0.2c0,0,0.1-0.1,0.1-0.1c0,0,0.1-0.1,0.1-0.1
				c0.1-0.1,0.1-0.1,0.1-0.2c0,0,0-0.1,0-0.1c0,0,0-0.1,0-0.1c0,0,0-0.1,0-0.1c0,0,0,0,0,0c0,0,0,0,0,0s0,0,0,0
				C17.3,98.6,17.3,98.6,17.2,98.6z"/>
			<path id="XMLID_620_" fill="#FFFFFF" d="M18.1,95.1C17.9,95,17.8,95,17.6,95c-0.1,0-0.1,0-0.2,0c-0.2,0-0.3,0.1-0.5,0.2
				c-0.1,0.1-0.2,0.1-0.3,0.2c-0.1,0.1-0.1,0.2-0.1,0.3l-0.1,1.5c0,0.3,0.2,0.5,0.4,0.5c0,0,0,0,0,0c0.2,0,0.4-0.2,0.5-0.4l0.1-1.3
				c0.1,0,0.2-0.1,0.2-0.1c0,0,0,0,0.1,0c0.1,0,0.2,0.1,0.3,0.1c0.1,0.1,0.2,0.1,0.3,0.1c0.1,0,0.2,0,0.3-0.1
				c0.1-0.1,0.1-0.2,0.1-0.3c0-0.1,0-0.3-0.1-0.4C18.4,95.3,18.3,95.1,18.1,95.1z"/>
			<path id="XMLID_619_" fill="#FFFFFF" d="M15.1,96.2c0.1,0,0.2,0,0.3-0.1c0.2-0.2,0.2-0.5,0-0.7c-0.1-0.1-0.2-0.2-0.3-0.2
				C15,95.1,14.8,95,14.6,95c-0.1,0-0.1,0-0.2,0c-0.2,0-0.4,0-0.6,0.1c-0.2,0.1-0.3,0.2-0.5,0.3c-0.1,0.1-0.1,0.3-0.1,0.4
				c0,0.1,0.1,0.2,0.1,0.3c0.1,0.1,0.2,0.1,0.3,0.1c0.1,0,0.2,0,0.3-0.1c0.1-0.1,0.2-0.1,0.3-0.1c0.2,0,0.3,0,0.4,0.1
				C14.9,96.1,15,96.2,15.1,96.2z"/>
		</g>
		<g id="XMLID_831_">
			<path id="XMLID_835_" fill="#1D70AD" d="M28.8,136.3l-5-1.2c1.3-1.3,2.5-2.3,4-2.4c0.2,0,0.4-0.2,0.5-0.4c0-0.2-0.1-0.4-0.3-0.5
				c-0.5-0.2-1-0.4-1.6-0.4c-1.3,0-2.6,0.6-3.9,1.1l2.7-4.4c0.1-0.2,0.1-0.4-0.1-0.6c-0.2-0.2-0.4-0.2-0.6-0.1l-4.1,2.5
				c0-1.8,0.1-3.5,1.2-4.5c0.2-0.2,0.2-0.4,0.1-0.6c-0.1-0.2-0.3-0.3-0.6-0.2c-1.8,0.7-2.6,2.5-3.3,4.4l-1.2-5.3
				c0-0.2-0.2-0.4-0.5-0.4c-0.2,0-0.4,0.1-0.5,0.4l-1.2,5c-1.3-1.3-2.3-2.5-2.4-4c0-0.2-0.2-0.4-0.4-0.5c-0.2,0-0.4,0.1-0.5,0.3
				c-0.8,1.8-0.1,3.7,0.8,5.5l-4.4-2.7c-0.2-0.1-0.4-0.1-0.6,0.1c-0.2,0.2-0.2,0.4-0.1,0.6l2.5,4.1c-1.8,0-3.5-0.1-4.5-1.2
				c-0.2-0.2-0.4-0.2-0.6-0.1c-0.2,0.1-0.3,0.3-0.2,0.6c0.7,1.8,2.5,2.6,4.4,3.3l-5.3,1.2c-0.2,0-0.4,0.2-0.4,0.5
				c0,0.2,0.1,0.4,0.4,0.5l5,1.2c-1.3,1.3-2.5,2.3-4,2.4c-0.2,0-0.4,0.2-0.5,0.4c0,0.2,0.1,0.4,0.3,0.5c0.5,0.2,1,0.4,1.6,0.4
				c1.3,0,2.6-0.6,3.9-1.1l-2.7,4.4c-0.1,0.2-0.1,0.4,0.1,0.6c0.2,0.2,0.4,0.2,0.6,0.1l4.1-2.5c0,1.8-0.1,3.5-1.2,4.5
				c-0.2,0.2-0.2,0.4-0.1,0.6c0.1,0.2,0.3,0.3,0.6,0.2c1.8-0.7,2.6-2.5,3.3-4.4l1.2,5.3c0,0.2,0.2,0.4,0.5,0.4
				c0.2,0,0.4-0.1,0.5-0.4l1.2-5c1.3,1.3,2.3,2.5,2.4,4c0,0.2,0.2,0.4,0.4,0.5c0,0,0.1,0,0.1,0c0.2,0,0.3-0.1,0.4-0.3
				c0.8-1.8,0.1-3.7-0.8-5.5l4.4,2.7c0.2,0.1,0.4,0.1,0.6-0.1c0.2-0.2,0.2-0.4,0.1-0.6l-2.5-4.1c1.8,0,3.5,0.1,4.5,1.2
				c0.2,0.2,0.4,0.2,0.6,0.1c0.2-0.1,0.3-0.3,0.2-0.6c-0.7-1.8-2.5-2.6-4.4-3.3l5.3-1.2c0.2,0,0.4-0.2,0.4-0.5
				C29.2,136.6,29.1,136.4,28.8,136.3z M16.9,143.8l-0.9,3.7l-1.1-4.7l-0.2-0.8c0.2,0,0.3,0.1,0.5,0.1c0.1,0,0.1,0,0.2,0
				c0.2,0,0.4,0,0.6,0c0.2,0,0.4,0,0.6,0c0.2,0,0.5-0.1,0.7-0.1l-0.2,0.7L16.9,143.8z M15.1,129.8l0.9-3.7l1.1,4.7l0.2,0.8
				c-0.2,0-0.3-0.1-0.5-0.1c-0.1,0-0.1,0-0.2,0c-0.2,0-0.4,0-0.6,0c-0.2,0-0.4,0-0.6,0c-0.2,0-0.5,0.1-0.7,0.1l0.2-0.7L15.1,129.8z
				 M20.2,138.1c-0.2,0.7-0.6,1.4-1.2,1.9c-0.3,0.3-0.6,0.5-1,0.7c-0.6,0.3-1.3,0.5-2.1,0.5c0,0-0.1,0-0.1,0c-0.4,0-0.8-0.1-1.2-0.2
				c-0.7-0.2-1.4-0.6-1.9-1.2c-0.3-0.3-0.5-0.6-0.7-1c-0.3-0.6-0.5-1.3-0.5-2.1c0,0,0-0.1,0-0.1c0-0.4,0.1-0.8,0.2-1.2
				c0.2-0.7,0.6-1.4,1.2-1.9c0.3-0.3,0.6-0.5,1-0.7c0.6-0.3,1.3-0.5,2.1-0.5c0,0,0.1,0,0.1,0c0.4,0,0.8,0.1,1.2,0.2
				c0.7,0.2,1.4,0.6,1.9,1.2c0.3,0.3,0.5,0.6,0.7,1c0.3,0.6,0.5,1.3,0.5,2.1c0,0,0,0.1,0,0.1C20.4,137.3,20.4,137.7,20.2,138.1z
				 M21,133.4l-0.4,0.7c-0.1-0.1-0.2-0.3-0.3-0.4c0,0-0.1-0.1-0.1-0.1c-0.2-0.3-0.5-0.6-0.8-0.9c-0.2-0.1-0.4-0.3-0.6-0.4l0.6-0.4
				l0.9-0.6l3-1.8L21,133.4z M12.6,131.8l0.7,0.4c-0.1,0.1-0.3,0.2-0.4,0.3c0,0-0.1,0.1-0.1,0.1c-0.3,0.2-0.6,0.5-0.9,0.8
				c-0.1,0.2-0.3,0.4-0.4,0.6l-0.4-0.6l-0.6-0.9l-1.8-3L12.6,131.8z M10,135.7l0.8-0.2c0,0.2-0.1,0.3-0.1,0.5c0,0.1,0,0.1,0,0.2
				c0,0.2,0,0.4,0,0.6c0,0.2,0,0.4,0,0.6c0,0.2,0.1,0.5,0.1,0.7l-0.7-0.2L9,137.7l-3.7-0.9L10,135.7z M11,140.2l0.4-0.7
				c0.1,0.1,0.2,0.3,0.3,0.4c0,0,0.1,0.1,0.1,0.1c0.2,0.3,0.5,0.6,0.8,0.9c0.2,0.1,0.4,0.3,0.6,0.4l-0.6,0.4l-0.9,0.6l-3,1.8
				L11,140.2z M19.4,141.8l-0.7-0.4c0.1-0.1,0.3-0.2,0.4-0.3c0,0,0.1-0.1,0.1-0.1c0.3-0.2,0.6-0.5,0.9-0.8c0.1-0.2,0.3-0.4,0.4-0.6
				l0.4,0.6l0.6,0.9l1.8,3L19.4,141.8z M22,137.9l-0.8,0.2c0-0.2,0.1-0.3,0.1-0.5c0-0.1,0-0.1,0-0.2c0-0.2,0-0.4,0-0.6
				c0-0.2,0-0.4,0-0.6c0-0.2-0.1-0.5-0.1-0.7l0.7,0.2l1.1,0.3l3.7,0.9L22,137.9z M22.6,133.7c1-0.4,1.9-0.9,2.8-1.1
				c-0.9,0.6-1.8,1.4-2.6,2.3c0,0,0,0,0,0l-1.4-0.3l0.3-0.5C21.9,134,22.3,133.8,22.6,133.7z M18.4,130c0.4-1,0.7-2,1.2-2.8
				c-0.3,1.1-0.3,2.3-0.3,3.4c0,0,0,0.1,0,0.1l-1.2,0.7l-0.1-0.6C18.2,130.6,18.3,130.3,18.4,130z M12.9,130.2
				c-0.4-1-0.9-1.9-1.1-2.8c0.6,0.9,1.4,1.8,2.3,2.6c0,0,0,0,0,0l-0.3,1.4l-0.5-0.3C13.2,130.9,13,130.5,12.9,130.2z M9.2,134.4
				c-1-0.4-2-0.7-2.8-1.2c1.1,0.3,2.3,0.3,3.4,0.3c0,0,0.1,0,0.1,0l0.7,1.2l-0.6,0.1C9.8,134.6,9.5,134.5,9.2,134.4z M9.4,139.9
				c-1,0.4-1.9,0.9-2.8,1.1c0.9-0.6,1.8-1.4,2.6-2.3c0,0,0,0,0,0l1.4,0.3l-0.3,0.5C10.1,139.6,9.7,139.8,9.4,139.9z M13.6,143.6
				c-0.4,1-0.7,2-1.2,2.8c0.3-1.1,0.3-2.3,0.3-3.4c0,0,0-0.1,0-0.1l1.2-0.7l0.1,0.6C13.8,143,13.7,143.3,13.6,143.6z M19.1,143.4
				c0.4,1,0.9,1.9,1.1,2.8c-0.6-0.9-1.4-1.8-2.3-2.6c0,0,0,0,0,0l0.3-1.4l0.5,0.3C18.8,142.7,19,143.1,19.1,143.4z M22.8,139.2
				c1,0.4,2,0.7,2.8,1.2c-1.1-0.3-2.3-0.3-3.4-0.3c0,0-0.1,0-0.1,0l-0.7-1.2l0.6-0.1C22.2,139,22.5,139.1,22.8,139.2z"/>
			<path id="XMLID_834_" fill="#1D70AD" d="M17.2,138.6C17.2,138.6,17.2,138.6,17.2,138.6c-0.1,0-0.1,0-0.2,0c-0.1,0-0.1,0-0.2,0
				c0,0-0.1,0-0.1,0c0,0-0.1,0-0.1,0c-0.1,0-0.1,0-0.2,0c-0.1,0-0.1,0-0.2,0c-0.1,0-0.1,0-0.2,0c-0.1,0-0.1,0-0.2,0
				c-0.1,0-0.1,0-0.2,0c-0.1,0-0.1,0-0.2,0c0,0-0.1,0-0.1,0c0,0-0.1,0-0.1,0c-0.1,0-0.1,0-0.2,0c0,0-0.1,0-0.1,0c0,0-0.1,0-0.1,0
				c0,0-0.1,0-0.1,0c0,0,0,0,0,0s0,0,0,0c0,0,0,0,0,0c0,0,0,0.1,0,0.1c0,0,0,0.1,0,0.1c0,0,0,0.1,0,0.1c0,0.1,0.1,0.1,0.1,0.2
				c0,0,0.1,0.1,0.1,0.1c0,0,0.1,0.1,0.1,0.1c0.1,0.1,0.2,0.1,0.3,0.2c0,0,0,0,0.1,0c0.1,0,0.2,0.1,0.2,0.1c0.1,0,0.2,0,0.4,0
				c0.1,0,0.2,0,0.4,0c0.1,0,0.2,0,0.2-0.1c0,0,0,0,0.1,0c0.1-0.1,0.2-0.1,0.3-0.2c0,0,0.1-0.1,0.1-0.1c0,0,0.1-0.1,0.1-0.1
				c0.1-0.1,0.1-0.1,0.1-0.2c0,0,0-0.1,0-0.1c0,0,0-0.1,0-0.1c0,0,0-0.1,0-0.1c0,0,0,0,0,0c0,0,0,0,0,0s0,0,0,0
				C17.3,138.6,17.3,138.6,17.2,138.6z"/>
			<path id="XMLID_833_" fill="#1D70AD" d="M18.1,135.1c-0.2-0.1-0.4-0.1-0.6-0.1c-0.1,0-0.1,0-0.2,0c-0.2,0-0.3,0.1-0.5,0.2
				c-0.1,0.1-0.2,0.1-0.3,0.2c-0.1,0.1-0.1,0.2-0.1,0.3l-0.1,1.5c0,0.3,0.2,0.5,0.4,0.5c0,0,0,0,0,0c0.2,0,0.4-0.2,0.5-0.4l0.1-1.3
				c0.1,0,0.2-0.1,0.2-0.1c0,0,0,0,0.1,0c0.1,0,0.2,0.1,0.3,0.1c0.1,0.1,0.2,0.1,0.3,0.1c0.1,0,0.2,0,0.3-0.1
				c0.1-0.1,0.1-0.2,0.1-0.3c0-0.1,0-0.3-0.1-0.4C18.4,135.3,18.3,135.1,18.1,135.1z"/>
			<path id="XMLID_832_" fill="#1D70AD" d="M15.1,136.2c0.1,0,0.2,0,0.3-0.1c0.2-0.2,0.2-0.5,0-0.7c-0.1-0.1-0.2-0.2-0.3-0.2
				c-0.2-0.1-0.3-0.1-0.5-0.2c-0.1,0-0.1,0-0.2,0c-0.2,0-0.4,0-0.6,0.1c-0.2,0.1-0.3,0.2-0.5,0.3c-0.1,0.1-0.1,0.3-0.1,0.4
				c0,0.1,0.1,0.2,0.1,0.3c0.1,0.1,0.2,0.1,0.3,0.1c0.1,0,0.2,0,0.3-0.1c0.1-0.1,0.2-0.1,0.3-0.1c0.2,0,0.3,0,0.4,0.1
				C14.9,136.1,15,136.2,15.1,136.2z"/>
		</g>
	</svg>
