<svg width="32" height="232" viewBox="0 0 32 232" xmlns="http://www.w3.org/2000/svg"><g fill="none">
		<path id="XMLID_129_" fill="#3A444F" d="M27.6,14c-1.5-0.6-3-0.9-4.7-0.9c-2.3,0-4.7,0.5-7,1c-1.7,0.4-3.4,0.8-5.1,0.9
			c-0.1,0-0.1,0-0.2,0c-0.1,0-0.1,0-0.2,0c-0.1,0-0.3,0-0.4,0c0,0,0,0,0,0c-0.1,0-0.2,0-0.3,0c0,0-0.1,0-0.1,0c-0.1,0-0.3,0-0.4,0
			c-1.6,0-3-0.3-4.4-0.8c-0.1,0-0.1,0-0.2,0c-0.1,0-0.2,0-0.3,0.1c-0.1,0.1-0.2,0.2-0.2,0.4v6.9v6.9c0,0.2,0.1,0.4,0.3,0.5
			c1.5,0.6,3,0.9,4.7,0.9h0c2.3,0,4.7-0.5,7-1c2.2-0.5,4.5-1,6.8-1c1.6,0,3,0.3,4.4,0.8c0.2,0.1,0.3,0,0.5-0.1
			c0.1-0.1,0.2-0.2,0.2-0.4V14.5C27.9,14.3,27.8,14.1,27.6,14z M14.6,20.1c0.5-0.1,1-0.2,1.6-0.3c3.7-0.8,7.3-1.6,10.8-0.3v1.2
			c-3.7-1.2-7.4-0.4-11,0.4c-0.4,0.1-0.9,0.2-1.3,0.3V20.1z M26.9,18.4c-3.7-1.2-7.4-0.4-11,0.4c-0.4,0.1-0.9,0.2-1.3,0.3v-1.3
			c0.5-0.1,1-0.2,1.6-0.3c3.7-0.8,7.3-1.6,10.8-0.3V18.4z M14.2,22.5c0.1,0,0.1,0,0.2-0.1c0.6-0.1,1.2-0.3,1.8-0.4
			c3.7-0.8,7.3-1.6,10.8-0.3V23c-3.7-1.2-7.4-0.4-11,0.4c-3.7,0.8-7.3,1.6-10.8,0.3v-1.2c1.3,0.4,2.6,0.6,4,0.6
			C10.9,23.1,12.7,22.8,14.2,22.5z M5.1,24.8c1.4,0.4,2.7,0.6,4,0.6c2.4,0,4.7-0.5,7-1c3.7-0.8,7.3-1.6,10.8-0.3v1.2
			c-3.7-1.2-7.4-0.4-11,0.4c-3.7,0.8-7.3,1.6-10.8,0.3V24.8z M16.1,15.2c2.2-0.5,4.5-1,6.8-1c1.5,0,2.8,0.2,4,0.7v1.2
			c-3.7-1.2-7.4-0.4-11,0.4c-0.4,0.1-0.9,0.2-1.3,0.3v-1.3C15.1,15.4,15.6,15.3,16.1,15.2z M9.8,16.2c0.1,0,0.2,0,0.3,0
			c0.1,0,0.2,0,0.2,0c0.1,0,0.1,0,0.2,0c0.2,0,0.3,0,0.5,0c0,0,0,0,0,0c0.9-0.1,1.7-0.2,2.4-0.4v1.7v0v2.3v0v1.9
			c-1.3,0.3-2.9,0.5-4.4,0.5c-1.5,0-2.8-0.2-4-0.7v-5.9c1.3,0.4,2.6,0.6,4,0.6l0,0h0h0c0.2,0,0.3,0,0.5,0
			C9.7,16.2,9.8,16.2,9.8,16.2z M26.9,27.6c-1.3-0.4-2.6-0.6-4-0.6c-2.3,0-4.7,0.5-7,1c-2.2,0.5-4.5,1-6.8,1h0c-1.5,0-2.8-0.2-4-0.7
			v-1.2c1.4,0.4,2.7,0.6,4,0.6c2.4,0,4.7-0.5,7-1c3.7-0.8,7.3-1.6,10.8-0.3V27.6z"/>
		<path id="XMLID_499_" fill="#67737C" d="M27.6,54c-1.5-0.6-3-0.9-4.7-0.9c-2.3,0-4.7,0.5-7,1c-1.7,0.4-3.4,0.8-5.1,0.9
			c-0.1,0-0.1,0-0.2,0c-0.1,0-0.1,0-0.2,0c-0.1,0-0.3,0-0.4,0c0,0,0,0,0,0c-0.1,0-0.2,0-0.3,0c0,0-0.1,0-0.1,0c-0.1,0-0.3,0-0.4,0
			c-1.6,0-3-0.3-4.4-0.8c-0.1,0-0.1,0-0.2,0c-0.1,0-0.2,0-0.3,0.1c-0.1,0.1-0.2,0.2-0.2,0.4v6.9v6.9c0,0.2,0.1,0.4,0.3,0.5
			c1.5,0.6,3,0.9,4.7,0.9h0c2.3,0,4.7-0.5,7-1c2.2-0.5,4.5-1,6.8-1c1.6,0,3,0.3,4.4,0.8c0.2,0.1,0.3,0,0.5-0.1
			c0.1-0.1,0.2-0.2,0.2-0.4V54.5C27.9,54.3,27.8,54.1,27.6,54z M14.6,60.1c0.5-0.1,1-0.2,1.6-0.3c3.7-0.8,7.3-1.6,10.8-0.3v1.2
			c-3.7-1.2-7.4-0.4-11,0.4c-0.4,0.1-0.9,0.2-1.3,0.3V60.1z M26.9,58.4c-3.7-1.2-7.4-0.4-11,0.4c-0.4,0.1-0.9,0.2-1.3,0.3v-1.3
			c0.5-0.1,1-0.2,1.6-0.3c3.7-0.8,7.3-1.6,10.8-0.3V58.4z M14.2,62.5c0.1,0,0.1,0,0.2-0.1c0.6-0.1,1.2-0.3,1.8-0.4
			c3.7-0.8,7.3-1.6,10.8-0.3V63c-3.7-1.2-7.4-0.4-11,0.4c-3.7,0.8-7.3,1.6-10.8,0.3v-1.2c1.3,0.4,2.6,0.6,4,0.6
			C10.9,63.1,12.7,62.8,14.2,62.5z M5.1,64.8c1.4,0.4,2.7,0.6,4,0.6c2.4,0,4.7-0.5,7-1c3.7-0.8,7.3-1.6,10.8-0.3v1.2
			c-3.7-1.2-7.4-0.4-11,0.4c-3.7,0.8-7.3,1.6-10.8,0.3V64.8z M16.1,55.2c2.2-0.5,4.5-1,6.8-1c1.5,0,2.8,0.2,4,0.7v1.2
			c-3.7-1.2-7.4-0.4-11,0.4c-0.4,0.1-0.9,0.2-1.3,0.3v-1.3C15.1,55.4,15.6,55.3,16.1,55.2z M9.8,56.2c0.1,0,0.2,0,0.3,0
			c0.1,0,0.2,0,0.2,0c0.1,0,0.1,0,0.2,0c0.2,0,0.3,0,0.5,0c0,0,0,0,0,0c0.9-0.1,1.7-0.2,2.4-0.4v1.7v0v2.3v0v1.9
			c-1.3,0.3-2.9,0.5-4.4,0.5c-1.5,0-2.8-0.2-4-0.7v-5.9c1.3,0.4,2.6,0.6,4,0.6l0,0h0h0c0.2,0,0.3,0,0.5,0
			C9.7,56.2,9.8,56.2,9.8,56.2z M26.9,67.6c-1.3-0.4-2.6-0.6-4-0.6c-2.3,0-4.7,0.5-7,1c-2.2,0.5-4.5,1-6.8,1h0c-1.5,0-2.8-0.2-4-0.7
			v-1.2c1.4,0.4,2.7,0.6,4,0.6c2.4,0,4.7-0.5,7-1c3.7-0.8,7.3-1.6,10.8-0.3V67.6z"/>
		<path id="XMLID_743_" fill="#FFFFFF" d="M27.6,94c-1.5-0.6-3-0.9-4.7-0.9c-2.3,0-4.7,0.5-7,1c-1.7,0.4-3.4,0.8-5.1,0.9
			c-0.1,0-0.1,0-0.2,0c-0.1,0-0.1,0-0.2,0c-0.1,0-0.3,0-0.4,0c0,0,0,0,0,0c-0.1,0-0.2,0-0.3,0c0,0-0.1,0-0.1,0c-0.1,0-0.3,0-0.4,0
			c-1.6,0-3-0.3-4.4-0.8c-0.1,0-0.1,0-0.2,0c-0.1,0-0.2,0-0.3,0.1c-0.1,0.1-0.2,0.2-0.2,0.4v6.9v6.9c0,0.2,0.1,0.4,0.3,0.5
			c1.5,0.6,3,0.9,4.7,0.9h0c2.3,0,4.7-0.5,7-1c2.2-0.5,4.5-1,6.8-1c1.6,0,3,0.3,4.4,0.8c0.2,0.1,0.3,0,0.5-0.1
			c0.1-0.1,0.2-0.2,0.2-0.4V94.5C27.9,94.3,27.8,94.1,27.6,94z M14.6,100.1c0.5-0.1,1-0.2,1.6-0.3c3.7-0.8,7.3-1.6,10.8-0.3v1.2
			c-3.7-1.2-7.4-0.4-11,0.4c-0.4,0.1-0.9,0.2-1.3,0.3V100.1z M26.9,98.4c-3.7-1.2-7.4-0.4-11,0.4c-0.4,0.1-0.9,0.2-1.3,0.3v-1.3
			c0.5-0.1,1-0.2,1.6-0.3c3.7-0.8,7.3-1.6,10.8-0.3V98.4z M14.2,102.5c0.1,0,0.1,0,0.2-0.1c0.6-0.1,1.2-0.3,1.8-0.4
			c3.7-0.8,7.3-1.6,10.8-0.3v1.2c-3.7-1.2-7.4-0.4-11,0.4c-3.7,0.8-7.3,1.6-10.8,0.3v-1.2c1.3,0.4,2.6,0.6,4,0.6
			C10.9,103.1,12.7,102.8,14.2,102.5z M5.1,104.8c1.4,0.4,2.7,0.6,4,0.6c2.4,0,4.7-0.5,7-1c3.7-0.8,7.3-1.6,10.8-0.3v1.2
			c-3.7-1.2-7.4-0.4-11,0.4c-3.7,0.8-7.3,1.6-10.8,0.3V104.8z M16.1,95.2c2.2-0.5,4.5-1,6.8-1c1.5,0,2.8,0.2,4,0.7v1.2
			c-3.7-1.2-7.4-0.4-11,0.4c-0.4,0.1-0.9,0.2-1.3,0.3v-1.3C15.1,95.4,15.6,95.3,16.1,95.2z M9.8,96.2c0.1,0,0.2,0,0.3,0
			c0.1,0,0.2,0,0.2,0c0.1,0,0.1,0,0.2,0c0.2,0,0.3,0,0.5,0c0,0,0,0,0,0c0.9-0.1,1.7-0.2,2.4-0.4v1.7v0v2.3v0v1.9
			c-1.3,0.3-2.9,0.5-4.4,0.5c-1.5,0-2.8-0.2-4-0.7v-5.9c1.3,0.4,2.6,0.6,4,0.6l0,0h0h0c0.2,0,0.3,0,0.5,0
			C9.7,96.2,9.8,96.2,9.8,96.2z M26.9,107.6c-1.3-0.4-2.6-0.6-4-0.6c-2.3,0-4.7,0.5-7,1c-2.2,0.5-4.5,1-6.8,1h0
			c-1.5,0-2.8-0.2-4-0.7v-1.2c1.4,0.4,2.7,0.6,4,0.6c2.4,0,4.7-0.5,7-1c3.7-0.8,7.3-1.6,10.8-0.3V107.6z"/>
		<path id="XMLID_925_" fill="#1D70AD" d="M27.6,134c-1.5-0.6-3-0.9-4.7-0.9c-2.3,0-4.7,0.5-7,1c-1.7,0.4-3.4,0.8-5.1,0.9
			c-0.1,0-0.1,0-0.2,0c-0.1,0-0.1,0-0.2,0c-0.1,0-0.3,0-0.4,0c0,0,0,0,0,0c-0.1,0-0.2,0-0.3,0c0,0-0.1,0-0.1,0c-0.1,0-0.3,0-0.4,0
			c-1.6,0-3-0.3-4.4-0.8c-0.1,0-0.1,0-0.2,0c-0.1,0-0.2,0-0.3,0.1c-0.1,0.1-0.2,0.2-0.2,0.4v6.9v6.9c0,0.2,0.1,0.4,0.3,0.5
			c1.5,0.6,3,0.9,4.7,0.9h0c2.3,0,4.7-0.5,7-1c2.2-0.5,4.5-1,6.8-1c1.6,0,3,0.3,4.4,0.8c0.2,0.1,0.3,0,0.5-0.1
			c0.1-0.1,0.2-0.2,0.2-0.4v-13.8C27.9,134.3,27.8,134.1,27.6,134z M14.6,140.1c0.5-0.1,1-0.2,1.6-0.3c3.7-0.8,7.3-1.6,10.8-0.3v1.2
			c-3.7-1.2-7.4-0.4-11,0.4c-0.4,0.1-0.9,0.2-1.3,0.3V140.1z M26.9,138.4c-3.7-1.2-7.4-0.4-11,0.4c-0.4,0.1-0.9,0.2-1.3,0.3v-1.3
			c0.5-0.1,1-0.2,1.6-0.3c3.7-0.8,7.3-1.6,10.8-0.3V138.4z M14.2,142.5c0.1,0,0.1,0,0.2-0.1c0.6-0.1,1.2-0.3,1.8-0.4
			c3.7-0.8,7.3-1.6,10.8-0.3v1.2c-3.7-1.2-7.4-0.4-11,0.4c-3.7,0.8-7.3,1.6-10.8,0.3v-1.2c1.3,0.4,2.6,0.6,4,0.6
			C10.9,143.1,12.7,142.8,14.2,142.5z M5.1,144.8c1.4,0.4,2.7,0.6,4,0.6c2.4,0,4.7-0.5,7-1c3.7-0.8,7.3-1.6,10.8-0.3v1.2
			c-3.7-1.2-7.4-0.4-11,0.4c-3.7,0.8-7.3,1.6-10.8,0.3V144.8z M16.1,135.2c2.2-0.5,4.5-1,6.8-1c1.5,0,2.8,0.2,4,0.7v1.2
			c-3.7-1.2-7.4-0.4-11,0.4c-0.4,0.1-0.9,0.2-1.3,0.3v-1.3C15.1,135.4,15.6,135.3,16.1,135.2z M9.8,136.2c0.1,0,0.2,0,0.3,0
			c0.1,0,0.2,0,0.2,0c0.1,0,0.1,0,0.2,0c0.2,0,0.3,0,0.5,0c0,0,0,0,0,0c0.9-0.1,1.7-0.2,2.4-0.4v1.7v0v2.3v0v1.9
			c-1.3,0.3-2.9,0.5-4.4,0.5c-1.5,0-2.8-0.2-4-0.7v-5.9c1.3,0.4,2.6,0.6,4,0.6l0,0h0h0c0.2,0,0.3,0,0.5,0
			C9.7,136.2,9.8,136.2,9.8,136.2z M26.9,147.6c-1.3-0.4-2.6-0.6-4-0.6c-2.3,0-4.7,0.5-7,1c-2.2,0.5-4.5,1-6.8,1h0
			c-1.5,0-2.8-0.2-4-0.7v-1.2c1.4,0.4,2.7,0.6,4,0.6c2.4,0,4.7-0.5,7-1c3.7-0.8,7.3-1.6,10.8-0.3V147.6z"/>
	</g>
</svg>
