<svg width="32" height="232" viewBox="0 0 32 232" xmlns="http://www.w3.org/2000/svg"><g fill="none"><path d="M13.49 141.39c-.49 0-.757.11-.972.198-.177.073-.306.126-.605.126s-.428-.053-.605-.126c-.215-.09-.482-.2-.97-.2s-.757.11-.972.2c-.177.073-.306.126-.605.126s-.42-.053-.6-.126c-.21-.09-.48-.2-.97-.2s-.75.11-.97.2c-.17.073-.3.126-.6.126s-.43-.053-.6-.126c-.21-.09-.48-.2-.97-.2s-.75.11-.97.2c-.17.073-.3.126-.6.126-.27 0-.5.237-.5.53 0 .293.23.53.51.53.49 0 .76-.11.97-.2.18-.072.31-.125.61-.125s.43.05.61.12c.22.09.48.2.97.2s.76-.11.97-.2c.18-.08.31-.13.61-.13s.43.05.61.12c.22.09.49.2.97.2s.76-.11.98-.2c.18-.08.31-.13.61-.13s.425.05.603.12c.213.09.48.2.97.2s.755-.11.97-.2c.18-.08.305-.13.604-.13.275 0 .5-.24.5-.53 0-.3-.225-.53-.5-.53m-.62 2.68c-.18.07-.307.12-.606.12s-.43-.06-.603-.13c-.22-.09-.48-.2-.97-.2s-.76.11-.97.2c-.18.07-.31.12-.61.12s-.43-.06-.6-.13c-.22-.09-.48-.2-.97-.2s-.76.11-.97.2c-.18.07-.31.12-.61.12-.28 0-.5.23-.5.53 0 .29.224.53.502.53.49 0 .75-.11.97-.2.18-.08.31-.13.6-.13s.43.05.608.12c.217.09.48.2.97.2s.76-.11.97-.2c.18-.08.31-.13.608-.13s.43.05.6.12c.22.09.49.2.97.2s.76-.11.98-.2c.178-.075.306-.128.605-.128s.427.05.605.12c.217.086.48.2.97.2s.76-.11.97-.2c.18-.075.31-.13.61-.13.28 0 .5-.24.5-.53 0-.293-.225-.53-.503-.53-.49 0-.76.11-.97.2-.18.07-.31.125-.61.125s-.43-.05-.602-.124c-.213-.09-.48-.2-.97-.2s-.755.11-.97.2M1.67 129h3.68c.27 0 .523-.1.73-.29.233-.22.37-.54.37-.87l-.007-.1h1.73c.308 0 .606-.12.837-.334.275-.25.43-.62.43-1s-.155-.75-.43-1c-.23-.216-.53-.334-.836-.334h-5.2c-.7 0-1.266.6-1.266 1.335l.027.28H1.63c-.608 0-1.102.52-1.102 1.16s.494 1.16 1.102 1.16zm0-1.26H3c.28 0 .503-.237.503-.53h-.02c0-.293-.226-.53-.504-.53-.15 0-.26-.123-.26-.275 0-.15.11-.272.26-.272h5.17c.08 0 .13.038.17.07.03.03.09.1.09.206 0 .1-.06.17-.09.2-.04.03-.09.06-.17.06H5.3c-.278 0-.503.23-.503.53 0 .29.23.53.51.53l.07.02.035.07-.033.073-.07.027H1.63c-.054 0-.097-.043-.097-.1 0-.054.043-.1.096-.1zm10.202-4.306h5.34c.274 0 .5-.24.5-.53 0-.295-.226-.53-.504-.53h-5.34c-.276 0-.5.235-.5.53 0 .29.223.53.5.53zm-1.42 1.764h5.336c.28 0 .504-.24.504-.53 0-.295-.23-.53-.505-.53h-5.34c-.28 0-.5.235-.5.53 0 .29.223.53.5.53zM31 147.863h-5.464v-1.27h3.412c.18 0 .345-.1.435-.268.09-.162.09-.364 0-.53l-1.672-3.05h3.74c.18 0 .35-.1.44-.263.09-.16.09-.363 0-.53l-1.38-2.513h.41c.28 0 .5-.23.5-.53 0-.11-.03-.21-.09-.3l-1.28-2.34h.48c.28 0 .51-.24.51-.53 0-.11-.03-.22-.09-.3l-2.48-4.53-.2-.36-.13-.16 1 .43.81.34c.26.11.55-.02.66-.29.1-.27-.02-.58-.28-.69l-2.49-1.06-1.84-3.4c-.04-.09-.11-.16-.19-.21l-2.78-1.6-2.05-1.76c-.13-.12-.303-.15-.463-.1-.16.05-.285.18-.333.35l-1.023 3.57-2.07 1.21-1.74.86c-.13.06-.22.18-.27.32l-.69 2.28-2.27 1.734-1.28-2.63c-.16-.32-.46-.54-.8-.57-.344-.03-.68.13-.89.42l-1.78 2.465c-.11.143-.173.32-.2.5-.033.29-.08.6-.13.86l-1 .013c-.34 0-.65.19-.83.483l-.743 1.23-1.45 1.33c-.13.12-.23.27-.287.44l-.66 1.907c-.07.19-.08.38-.048.56H.945c-.28 0-.5.24-.5.53 0 .296.225.53.503.53H20.27l-.568 1.04c-.09.165-.09.367 0 .53.09.165.256.266.436.266h.798l-1.94 3.54c-.09.165-.09.37 0 .53.09.165.255.27.435.27h3.7v1.27H1.04c-.556 0-1.006.474-1.006 1.06s.446 1.06 1 1.06h29.96c.556 0 1.006-.476 1.006-1.06s-.45-1.063-1.006-1.063zm-6.856 0v-1.22h.385v1.91h-.39v-.694zm-1.89-5.87c.09-.166.09-.368 0-.53-.09-.166-.258-.267-.438-.267h-.798l1.842-3.37c.09-.165.09-.367 0-.53-.09-.165-.26-.266-.44-.266h-.893l2.663-4.86 1.838 3.35.113.206.17.3.34.61.22.4h-.9c-.08 0-.17.025-.24.07-.08.044-.14.11-.19.196-.04.086-.07.18-.07.274 0 .09.02.176.07.255l.19.34.11.2.53.97.01.03 1.01 1.84h-.8c-.18 0-.34.1-.43.27-.04.07-.06.15-.06.226 0 .1.02.21.07.31l1.94 3.54h-7.77l1.93-3.54zm6.916-6.795c-.18 0-.35.11-.44.27-.04.07-.06.15-.06.24-.006.1.015.2.065.29l1.304 2.38h-.41c-.18 0-.35.1-.44.27-.09.17-.09.37 0 .53l1.38 2.52h-1.84c-.01-.097-.04-.186-.09-.26l-1.82-3.325h.9c.28 0 .5-.236.5-.53 0-.11-.04-.216-.09-.3l-.36-.65-.15-.26-1.14-2.08 1.32-2.405 1.82 3.336h-.48zm-1.35-4.92c-.18 0-.35.1-.44.26l-1.46 2.67-.592-1.086-.1-1.515c-.013-.18-.11-.34-.26-.426l-1.464-.85-.346-1.15c-.035-.12-.11-.22-.21-.28l-1.102-.74c-.202-.13-.465-.1-.63.08L18 130.76l-2.196 2.36-.068.09-1.418 2.408-.92-1.008-.8-1.14-.064-.133.013-.01 2.515-1.922c.088-.06.15-.16.185-.26l.676-2.22 1.556-.76.03-.01 2.26-1.32c.11-.067.2-.18.24-.31l.87-3.026 1.5 1.28.07.06 2.69 1.56 1.86 3.44c.05.1.14.18.25.23l.61.26-.06-.01zm-23.86 9.09l.513-1.48 1.366-1.25c.07-.07.14-.146.19-.23l.53-.878c.47-.007.91-.008 1.03 0 .26.03.53-.045.75-.218.27-.22.5-.52.74-2.2l.65-.906 1.12 2.3.08.145.89 1.27.08.1 1.36 1.49.68 1.86h-10zm12.07 0c.004-.14-.02-.28-.07-.41l-.887-2.41-.05-.12 1.544-2.63 2.156-2.33 2.924-3.19.6.4.35 1.18c.04.13.127.24.24.3l.99.575-.076.105-3.53 6.458c-.09.165-.09.367 0 .53.09.165.26.266.44.266h.9l-.69 1.26h-4.84z" fill="#206FAC"/><path d="M13.49 101.39c-.49 0-.757.11-.972.198-.177.073-.306.126-.605.126s-.428-.053-.605-.126c-.215-.09-.482-.2-.97-.2s-.757.11-.972.2c-.177.073-.306.126-.605.126s-.42-.053-.6-.126c-.21-.09-.48-.2-.97-.2s-.75.11-.97.2c-.17.073-.3.126-.6.126s-.43-.053-.6-.126c-.21-.09-.48-.2-.97-.2s-.75.11-.97.2c-.17.073-.3.126-.6.126-.27 0-.5.237-.5.53 0 .293.23.53.51.53.49 0 .76-.11.97-.2.18-.072.31-.125.61-.125s.43.05.61.12c.22.09.48.2.97.2s.76-.11.97-.2c.18-.08.31-.13.61-.13s.43.05.61.12c.22.09.49.2.97.2s.76-.11.98-.2c.18-.08.31-.13.61-.13s.425.05.603.12c.213.09.48.2.97.2s.755-.11.97-.2c.18-.08.305-.13.604-.13.275 0 .5-.24.5-.53 0-.3-.225-.53-.5-.53m-.62 2.68c-.18.07-.307.12-.606.12s-.43-.06-.603-.13c-.22-.09-.48-.2-.97-.2s-.76.11-.97.2c-.18.07-.31.12-.61.12s-.43-.06-.6-.13c-.22-.09-.48-.2-.97-.2s-.76.11-.97.2c-.18.07-.31.12-.61.12-.28 0-.5.23-.5.53 0 .29.224.53.502.53.49 0 .75-.11.97-.2.18-.08.31-.13.6-.13s.43.05.608.12c.217.09.48.2.97.2s.76-.11.97-.2c.18-.08.31-.13.608-.13s.43.05.6.12c.22.09.49.2.97.2s.76-.11.98-.2c.178-.075.306-.128.605-.128s.427.05.605.12c.217.086.48.2.97.2s.76-.11.97-.2c.18-.075.31-.13.61-.13.28 0 .5-.24.5-.53 0-.293-.225-.53-.503-.53-.49 0-.76.11-.97.2-.18.07-.31.125-.61.125s-.43-.05-.602-.124c-.213-.09-.48-.2-.97-.2s-.755.11-.97.2M1.67 89h3.68c.27 0 .523-.1.73-.29.233-.22.37-.54.37-.87l-.007-.1h1.73c.308 0 .606-.12.837-.334.275-.25.43-.62.43-1s-.155-.75-.43-1c-.23-.216-.53-.334-.836-.334h-5.2c-.7 0-1.266.6-1.266 1.335l.027.28H1.63c-.608 0-1.102.52-1.102 1.16s.494 1.16 1.102 1.16zm0-1.26H3c.28 0 .503-.237.503-.53h-.02c0-.293-.226-.53-.504-.53-.15 0-.26-.123-.26-.275 0-.15.11-.272.26-.272h5.17c.08 0 .13.038.17.07.03.03.09.1.09.206 0 .1-.06.17-.09.2-.04.03-.09.06-.17.06H5.3c-.278 0-.503.23-.503.53 0 .29.23.53.51.53l.07.02.035.07-.033.073-.07.027H1.63c-.054 0-.097-.043-.097-.1 0-.054.043-.1.096-.1zm10.2-4.303h5.33c.28 0 .5-.24.5-.53 0-.292-.22-.53-.5-.53h-5.34c-.277 0-.5.238-.5.53 0 .29.223.53.5.53zm-1.425 1.77h5.34c.27 0 .5-.234.5-.53 0-.29-.23-.53-.51-.53h-5.34c-.276 0-.5.24-.5.53 0 .296.226.53.504.53zM31 107.863h-5.464v-1.27h3.412c.18 0 .345-.1.435-.263.09-.167.09-.37 0-.53l-1.672-3.05h3.74c.18 0 .35-.1.44-.268.09-.16.09-.363 0-.53l-1.38-2.514h.41c.28 0 .5-.237.5-.53 0-.11-.03-.217-.09-.303l-1.28-2.34h.48c.28 0 .51-.24.51-.53 0-.11-.03-.22-.09-.3l-2.48-4.53-.2-.365-.13-.16 1 .423.81.34c.26.11.55-.02.66-.294.1-.27-.02-.58-.28-.69l-2.5-1.05-1.84-3.4c-.04-.08-.11-.15-.19-.2l-2.8-1.6-2.05-1.75c-.13-.11-.3-.15-.46-.1-.16.05-.28.18-.33.35l-1.022 3.57-2.07 1.21-1.74.853c-.127.06-.223.18-.266.32l-.69 2.276-2.27 1.74-1.28-2.63c-.16-.32-.46-.54-.8-.57-.344-.03-.68.13-.89.42l-1.78 2.46c-.105.15-.173.32-.196.5-.04.3-.087.61-.13.87l-1 .015c-.34.004-.65.187-.83.486l-.75 1.23L2.98 96.5c-.13.12-.23.27-.287.44l-.66 1.907c-.065.186-.076.377-.044.558H.94c-.28 0-.503.24-.503.53 0 .297.226.53.504.53h19.33l-.562 1.04c-.09.166-.09.368 0 .53.09.166.256.267.436.267h.798l-1.94 3.54c-.09.16-.09.364 0 .53.09.16.256.263.436.263h3.7v1.27H1.04c-.556 0-1.006.48-1.006 1.064s.446 1.06 1 1.06h29.96c.556 0 1.006-.48 1.006-1.06s-.45-1.07-1.006-1.07zm-6.856 0v-1.216h.385v1.912h-.39v-.7zm-1.89-5.87c.09-.16.09-.363 0-.53-.09-.16-.258-.262-.438-.262h-.798l1.842-3.36c.09-.16.09-.36 0-.53-.09-.16-.26-.26-.44-.26h-.893l2.663-4.87 1.838 3.35.113.21.17.3.34.61.22.4h-.9c-.08 0-.17.03-.24.07-.08.048-.14.11-.19.2-.04.085-.07.18-.07.273 0 .09.02.178.07.257l.19.34.11.2.53.964.01.03 1.01 1.835h-.8c-.18 0-.34.1-.43.27-.04.07-.06.144-.06.22 0 .108.02.215.07.31l1.94 3.544h-7.77l1.92-3.55zM29.17 95.2c-.18 0-.35.104-.44.268-.04.073-.06.154-.06.235-.006.103.015.206.065.298l1.304 2.38h-.41c-.18 0-.35.1-.44.27-.09.17-.09.37 0 .53l1.38 2.52h-1.84c-.01-.09-.04-.18-.09-.26l-1.82-3.32h.9c.28 0 .5-.23.5-.53 0-.11-.04-.21-.09-.3l-.36-.65-.15-.26-1.14-2.08 1.32-2.4 1.82 3.34h-.48zm-1.35-4.924c-.18 0-.35.1-.44.264l-1.46 2.67-.592-1.085-.1-1.515c-.013-.18-.11-.34-.26-.427l-1.464-.85-.346-1.157c-.035-.12-.11-.22-.21-.287l-1.102-.74c-.202-.14-.465-.1-.63.08L18 90.75l-2.196 2.362-.068.09-1.418 2.407-.92-1.01-.8-1.14-.064-.14.013-.01 2.513-1.92c.087-.07.15-.16.184-.27l.676-2.23 1.555-.76.032-.01 2.263-1.33c.115-.06.2-.17.238-.31l.87-3.02 1.5 1.29.077.05 2.692 1.55 1.86 3.44c.055.1.143.18.25.23l.61.26-.058-.01zm-23.86 9.09l.513-1.478 1.367-1.25c.08-.067.14-.144.19-.23l.536-.876c.473-.002.91-.003 1.032 0 .267.036.53-.04.748-.213.275-.22.506-.53.738-2.21l.656-.91 1.12 2.29.084.14.888 1.26.086.1 1.362 1.5.69 1.85H3.95zm12.07 0c.004-.137-.02-.277-.07-.413l-.887-2.41-.05-.114 1.545-2.63 2.154-2.33 2.923-3.2.6.4.35 1.17c.04.13.127.24.24.3l.99.57-.076.1-3.54 6.46c-.09.16-.09.36 0 .53.09.16.25.26.43.26h.9l-.7 1.26h-4.83z" fill="#fff"/><path d="M13.49 61.39c-.49 0-.757.11-.972.198-.177.073-.306.126-.605.126s-.428-.053-.605-.126c-.215-.09-.482-.2-.97-.2s-.757.11-.972.2c-.177.073-.306.126-.605.126s-.42-.053-.6-.126c-.21-.09-.48-.2-.97-.2s-.75.11-.97.2c-.17.073-.3.126-.6.126s-.43-.053-.6-.126c-.21-.09-.48-.2-.97-.2s-.75.11-.97.2c-.17.073-.3.126-.6.126-.27 0-.5.237-.5.53 0 .293.23.53.51.53.49 0 .76-.11.97-.2.18-.072.31-.125.61-.125s.43.05.61.12c.22.09.48.2.97.2s.76-.11.97-.2c.18-.08.31-.13.61-.13s.43.05.61.12c.22.09.49.2.97.2s.76-.11.98-.2c.18-.08.31-.13.61-.13s.425.05.603.12c.213.09.48.2.97.2s.755-.11.97-.2c.18-.08.305-.13.604-.13.275 0 .5-.24.5-.53 0-.3-.225-.53-.5-.53m-.62 2.68c-.18.07-.307.12-.606.12s-.43-.06-.603-.13c-.22-.09-.48-.2-.97-.2s-.76.11-.97.2c-.18.07-.31.12-.61.12s-.43-.06-.6-.13c-.22-.09-.48-.2-.97-.2s-.76.11-.97.2c-.18.07-.31.12-.61.12-.28 0-.5.23-.5.53 0 .29.224.53.502.53.49 0 .75-.11.97-.2.18-.08.31-.13.6-.13s.43.05.608.12c.217.09.48.2.97.2s.76-.11.97-.2c.18-.08.31-.13.608-.13s.43.05.6.12c.22.09.49.2.97.2s.76-.11.98-.2c.178-.075.306-.128.605-.128s.427.05.605.12c.217.086.48.2.97.2s.76-.11.97-.2c.18-.075.31-.13.61-.13.28 0 .5-.24.5-.53 0-.293-.225-.53-.503-.53-.49 0-.76.11-.97.2-.18.07-.31.125-.61.125s-.43-.05-.602-.124c-.213-.09-.48-.2-.97-.2s-.755.11-.97.2M1.67 49h3.68c.27 0 .523-.1.73-.29.233-.22.37-.54.37-.87l-.007-.1h1.73c.308 0 .606-.12.837-.334.275-.25.43-.62.43-1s-.155-.75-.43-1c-.23-.216-.53-.334-.836-.334h-5.2c-.7 0-1.266.6-1.266 1.335l.027.28H1.63c-.608 0-1.102.52-1.102 1.16s.494 1.16 1.102 1.16zm0-1.26H3c.28 0 .503-.237.503-.53h-.02c0-.293-.226-.53-.504-.53-.15 0-.26-.123-.26-.275 0-.15.11-.272.26-.272h5.17c.08 0 .13.038.17.07.03.03.09.1.09.206 0 .1-.06.17-.09.2-.04.03-.09.06-.17.06H5.3c-.278 0-.503.23-.503.53 0 .29.23.53.51.53l.07.02.035.07-.033.073-.07.027H1.63c-.054 0-.097-.043-.097-.1 0-.054.043-.1.096-.1zm10.2-4.303h5.33c.28 0 .5-.24.5-.53 0-.292-.22-.53-.5-.53h-5.34c-.277 0-.5.238-.5.53 0 .29.223.53.5.53zm-1.425 1.77h5.34c.27 0 .5-.234.5-.53 0-.29-.23-.53-.51-.53h-5.34c-.276 0-.5.24-.5.53 0 .296.226.53.504.53zM31 67.857h-5.46V66.6h3.412c.18 0 .345-.1.435-.265.09-.164.09-.366 0-.53L27.7 62.75h3.74c.18 0 .348-.1.438-.264.09-.16.09-.363 0-.53L30.5 59.443h.404c.277 0 .5-.238.5-.53 0-.113-.03-.218-.09-.304l-1.28-2.34h.48c.28 0 .505-.24.505-.53 0-.11-.04-.22-.09-.3l-2.48-4.53-.2-.37-.14-.16.99.42.8.34c.25.11.55-.02.65-.3.1-.28-.03-.58-.28-.69l-2.49-1.06-1.84-3.41c-.05-.09-.12-.16-.2-.21l-2.78-1.6-2.05-1.75c-.13-.11-.3-.15-.46-.1-.16.05-.29.18-.34.35l-1.03 3.58-2.07 1.21-1.74.85c-.13.06-.22.18-.27.32l-.69 2.27-2.27 1.74-1.28-2.63c-.16-.324-.46-.54-.8-.57-.35-.03-.68.124-.89.413L7.3 52.04c-.107.148-.175.32-.2.5-.035.296-.083.606-.13.864l-1 .02c-.34.004-.65.187-.83.486l-.74 1.23-1.45 1.33c-.13.12-.227.27-.285.44l-.66 1.907c-.066.185-.077.376-.045.557H.946c-.28 0-.502.24-.502.53 0 .296.226.53.504.53H20.27l-.568 1.04c-.09.165-.09.367 0 .53.09.165.256.266.436.266h.798l-1.94 3.54c-.09.167-.09.37 0 .53.09.167.255.268.435.268h3.7v1.27H1.04c-.556 0-1.006.48-1.006 1.065S.48 70 1.034 70h29.96C31.55 70 32 69.525 32 68.94s-.45-1.062-1.006-1.062zm-6.855 0v-1.21h.385v1.914h-.384v-.69zM22.245 62c.09-.163.09-.365 0-.53-.09-.163-.26-.264-.44-.264h-.798l1.842-3.366c.09-.164.09-.366 0-.53-.09-.164-.26-.265-.44-.265h-.9l2.66-4.866L26 55.53l.112.2.162.3.333.61.22.4h-.9c-.086 0-.17.02-.244.06-.078.043-.145.11-.19.195-.047.085-.07.18-.068.273 0 .09.02.18.064.26l.19.34.1.2.53.965.01.03 1 1.832h-.8c-.18 0-.35.1-.44.266-.04.07-.06.15-.07.23-.01.11.01.22.06.31l1.94 3.54h-7.76L22.23 62zm6.914-6.792c-.18 0-.35.104-.44.268-.04.072-.06.153-.06.234-.01.103.01.206.06.298l1.3 2.378h-.41c-.18 0-.35.1-.44.265-.09.17-.09.37 0 .53l1.38 2.52h-1.84c-.01-.09-.04-.18-.09-.26l-1.82-3.32h.9c.28 0 .5-.23.5-.53 0-.11-.03-.21-.09-.3l-.36-.65-.15-.26-1.15-2.08 1.32-2.4 1.83 3.34h-.48zm-1.35-4.924c-.18 0-.35.1-.44.265l-1.46 2.67-.6-1.09-.1-1.52c-.02-.18-.11-.34-.26-.43l-1.47-.85-.35-1.16c-.04-.12-.11-.22-.21-.29l-1.1-.74c-.21-.14-.47-.1-.63.08l-3.2 3.52-2.2 2.36-.07.09-1.42 2.41-.92-1.01-.8-1.14-.07-.13.01-.01 2.51-1.92c.084-.07.15-.16.18-.27l.676-2.23 1.56-.76.03-.01 2.262-1.33c.11-.06.2-.17.234-.31l.87-3.02 1.5 1.29.08.05 2.69 1.55L27 49.82c.056.107.144.188.25.23l.61.26-.057-.002zm-23.86 9.09l.51-1.477 1.36-1.25c.07-.067.14-.144.19-.23l.53-.876h1.04c.26.04.53-.04.74-.21.27-.22.51-.52.74-2.21l.65-.91 1.12 2.3.08.15.88 1.27.08.11 1.36 1.5.68 1.85h-10zm12.07 0c0-.136-.02-.276-.07-.412l-.89-2.41-.05-.114 1.54-2.625 2.15-2.323 2.92-3.2.6.4.35 1.17c.04.13.13.24.24.3l.99.572-.08.11L20.2 57.3c-.09.164-.09.366 0 .53.09.164.255.265.435.265h.896l-.69 1.26h-4.82z" fill="#67737B"/><path d="M13.49 21.39c-.49 0-.757.11-.972.198-.177.073-.306.126-.605.126s-.428-.053-.605-.126c-.215-.09-.482-.2-.97-.2s-.757.11-.972.2c-.177.073-.306.126-.605.126s-.42-.053-.6-.126c-.21-.09-.48-.2-.97-.2s-.75.11-.97.2c-.17.073-.3.126-.6.126s-.43-.053-.6-.126c-.21-.09-.48-.2-.97-.2s-.75.11-.97.2c-.17.073-.3.126-.6.126-.27 0-.5.237-.5.53 0 .293.23.53.51.53.49 0 .76-.11.97-.2.18-.072.31-.125.61-.125s.43.05.61.12c.22.09.48.2.97.2s.76-.11.97-.2c.18-.08.31-.13.61-.13s.43.05.61.12c.22.09.49.2.97.2s.76-.11.98-.2c.18-.08.31-.13.61-.13s.425.05.603.12c.213.09.48.2.97.2s.755-.11.97-.2c.18-.08.305-.13.604-.13.275 0 .5-.24.5-.53 0-.3-.225-.53-.5-.53m-.62 2.68c-.18.07-.307.12-.606.12s-.43-.06-.603-.13c-.22-.09-.48-.2-.97-.2s-.76.11-.97.2c-.18.07-.31.12-.61.12s-.43-.06-.6-.13c-.22-.09-.48-.2-.97-.2s-.76.11-.97.2c-.18.07-.31.12-.61.12-.28 0-.5.23-.5.53 0 .29.224.53.502.53.49 0 .75-.11.97-.2.18-.08.31-.13.6-.13s.43.05.608.12c.217.09.48.2.97.2s.76-.11.97-.2c.18-.08.31-.13.608-.13s.43.05.6.12c.22.09.49.2.97.2s.76-.11.98-.2c.178-.075.306-.128.605-.128s.427.05.605.12c.217.086.48.2.97.2s.76-.11.97-.2c.18-.075.31-.13.61-.13.28 0 .5-.24.5-.53 0-.293-.225-.53-.503-.53-.49 0-.76.11-.97.2-.18.07-.31.125-.61.125s-.43-.05-.602-.124c-.213-.09-.48-.2-.97-.2s-.755.11-.97.2M1.67 9h3.68c.27 0 .523-.1.73-.29.233-.22.37-.54.37-.87l-.007-.1h1.73c.308 0 .606-.12.837-.333.275-.25.43-.62.43-1s-.155-.75-.43-1c-.23-.214-.53-.332-.836-.332h-5.2c-.7 0-1.266.6-1.266 1.334l.027.28H1.63c-.608 0-1.102.52-1.102 1.16s.494 1.16 1.102 1.16zm0-1.26H3c.28 0 .503-.237.503-.53h-.02c0-.293-.226-.53-.504-.53-.15 0-.26-.123-.26-.275 0-.15.11-.272.26-.272h5.17c.08 0 .13.038.17.07.03.03.09.1.09.206 0 .1-.06.17-.09.2-.04.03-.09.06-.17.06H5.3c-.278 0-.503.23-.503.53 0 .29.23.53.51.53l.07.02.035.07-.033.073-.07.03H1.63c-.054 0-.097-.045-.097-.1 0-.056.043-.1.096-.1zm10.2-4.304h5.34c.273 0 .5-.237.5-.53 0-.293-.227-.53-.5-.53h-5.34c-.28 0-.507.237-.507.53 0 .293.226.53.5.53zm-1.42 1.77h5.336c.278 0 .503-.24.503-.53 0-.294-.23-.53-.5-.53h-5.34c-.28 0-.5.236-.5.53 0 .29.22.53.5.53zM31 27.86h-5.47v-1.27h3.41c.18 0 .347-.1.437-.266.09-.163.09-.365 0-.53l-1.673-3.056h3.74c.18 0 .347-.1.437-.265.09-.16.09-.364 0-.53l-1.37-2.513h.41c.28 0 .5-.24.5-.53 0-.117-.03-.22-.09-.308l-1.28-2.34h.48c.28 0 .51-.234.51-.53 0-.11-.03-.214-.09-.3l-2.48-4.525-.2-.366-.13-.16 1 .43.81.34c.26.11.55-.02.65-.29.1-.27-.02-.58-.28-.69l-2.5-1.04-1.84-3.4c-.04-.08-.11-.16-.19-.2L23 3.92l-2.05-1.755c-.13-.112-.305-.147-.465-.096-.16.05-.29.18-.34.35L19.122 6l-2.07 1.21-1.736.85c-.13.06-.23.17-.27.31l-.69 2.28-2.27 1.73-1.28-2.63c-.16-.33-.46-.54-.8-.57-.347-.03-.68.12-.89.41l-1.78 2.47c-.11.15-.178.32-.2.5-.038.295-.086.605-.13.86l-1 .016c-.34.008-.65.19-.83.49l-.75 1.23-1.45 1.33c-.13.12-.227.27-.285.435l-.66 1.91c-.06.19-.07.38-.04.56H.95c-.28 0-.506.24-.506.53 0 .3.23.53.507.53h19.32l-.56 1.04c-.09.17-.09.37 0 .53.09.17.26.27.44.27h.8L19 25.83c-.09.16-.09.362 0 .53.09.16.255.26.435.26h3.7v1.27H1.04c-.556 0-1.006.47-1.006 1.06S.478 30 1.032 30h29.96C31.55 30 32 29.525 32 28.94s-.45-1.062-1.006-1.062zm-6.86 0v-1.2h.386v1.912h-.385v-.693zM22.243 22c.09-.163.09-.365 0-.53-.09-.163-.257-.264-.437-.264h-.798l1.842-3.366c.09-.164.09-.366 0-.53-.09-.164-.26-.265-.44-.265h-.895l2.664-4.866 1.83 3.35.11.2.16.3.33.61.22.4h-.9c-.09 0-.17.02-.25.06-.08.04-.15.11-.19.19-.05.08-.07.18-.07.27 0 .09.02.18.07.26l.19.34.1.2.53.96.01.03 1 1.83h-.8c-.18 0-.35.1-.44.26-.04.07-.06.14-.07.22-.01.1.01.21.07.31l1.94 3.54h-7.76L22.23 22zm6.917-6.792c-.18 0-.35.104-.44.268-.04.072-.06.153-.06.234-.008.103.013.206.063.298l1.304 2.378h-.404c-.18 0-.345.1-.435.265-.09.17-.09.37 0 .53l1.38 2.52h-1.84c-.01-.09-.04-.18-.09-.26l-1.82-3.32h.9c.28 0 .505-.23.505-.53 0-.11-.033-.21-.09-.3l-.357-.65-.146-.26-1.142-2.08 1.32-2.4 1.827 3.34h-.48zm-1.35-4.924c-.18 0-.35.1-.44.265l-1.46 2.67-.594-1.09-.1-1.52c-.013-.18-.11-.34-.26-.43l-1.464-.85-.346-1.16c-.035-.12-.11-.22-.21-.29l-1.102-.74c-.202-.14-.465-.1-.63.08L18 10.75l-2.196 2.366-.068.09-1.418 2.405-.92-1-.8-1.14-.064-.13.013-.01 2.513-1.92c.087-.06.15-.16.184-.26l.676-2.22 1.555-.76.032-.01L19.77 6.8c.115-.067.2-.178.238-.31l.87-3.026 1.5 1.287.077.06 2.692 1.56 1.86 3.44c.055.11.143.19.25.23l.61.26h-.058zm-23.86 9.09l.512-1.477 1.366-1.25c.077-.067.14-.144.19-.23l.534-.876h1.032c.267.04.53-.04.748-.21.275-.22.506-.52.738-2.21l.655-.91 1.12 2.3.085.15.888 1.27.085.11 1.363 1.5.684 1.85h-10zm12.07 0c.003-.136-.02-.276-.07-.412l-.888-2.41-.05-.114 1.544-2.625 2.156-2.324 2.926-3.2.6.4.35 1.17c.04.13.128.24.24.3l.99.57-.075.11-3.537 6.45c-.09.16-.09.36 0 .53.09.16.256.26.436.26h.897l-.7 1.26h-4.82z" fill="#3A434E"/></g></svg>