<svg width="32" height="232" viewBox="0 0 32 232" xmlns="http://www.w3.org/2000/svg"><g fill="none"><path d="M5.16 131.364h4.164c.258 0 .468-.22.468-.49 0-.272-.21-.492-.468-.492H5.16c-.26 0-.47.22-.47.49s.21.492.47.492zm2.94-1.324h4.164c.26 0 .468-.22.468-.492 0-.27-.21-.49-.468-.49H8.102c-.26 0-.468.22-.468.49s.21.49.468.49zm22.87 18.217H29.4c-.26 0-.468.22-.468.49v.34h-.843v-.795c0-.27-.21-.49-.47-.49h-2.11c-.03-.247-.23-.44-.47-.44h-.99v-4.22c0-.54-.42-.98-.94-.98h-.27v-2.45c0-.54-.42-.98-.94-.98h-.73l-.09-1.728c-.01-.26-.22-.466-.47-.466h-1.1v-3.86c0-.27-.21-.49-.47-.49h-.76v-.637c0-.27-.21-.49-.47-.49h-.67l-.41-1.6-.02-.27h2.04l-.03.27c0 .36.14.7.4.94.22.21.5.32.79.32h4.46c.65 0 1.19-.56 1.19-1.25s-.54-1.25-1.2-1.25h-.32c.05-.15.08-.31.08-.47 0-.81-.63-1.46-1.4-1.46h-6.2l-.11-1.82c-.01-.21-.15-.37-.32-.43v-3.51c0-.27-.21-.49-.47-.49s-.47.22-.47.49v3.51c-.18.06-.31.23-.32.44l-.11 1.82h-.38c-.34 0-.67.13-.92.37-.3.28-.48.68-.48 1.09 0 .42.17.82.47 1.1.253.24.58.37.92.37h.21l-.018.277-.41 1.6h-.67c-.26 0-.468.22-.468.49v.64h-.76c-.26 0-.47.22-.47.49v3.86h-1.1c-.25 0-.46.208-.47.47l-.087 1.724h-.7c-.514 0-.933.44-.933.98v2.45H8.2c-.52 0-.937.44-.937.98v4.32h-3.8c-.26 0-.47.22-.47.49v1.14H.927c-.26 0-.467.22-.467.49v1.335c0 .27.21.49.46.49.26 0 .47-.22.47-.49v-.85h2.09c.26 0 .47-.22.47-.49v-1.146h3.34V151c0 .54.42.98.93.98h14.89c.517 0 .936-.44.936-.98v-2.65h.526c.026.244.225.436.467.436h2.1v.794c0 .27.21.49.46.49h1.78c.26 0 .47-.22.47-.49v-.338h.63v1.617c0 .27.21.49.47.49s.46-.22.46-.49v-2.11c0-.27-.21-.49-.47-.49zm-19.816-10.74h9.035l.06 1.213h-9.16l.05-1.212zm1.595-4.35h5.84v3.37h-1.05v-2.413c0-.155-.07-.292-.18-.38-.08-.068-.18-.11-.29-.11-.26 0-.47.22-.47.49v2.413h-.47v-2.412c0-.27-.21-.49-.47-.49s-.47.218-.47.49v2.412h-.47v-2.412c0-.27-.21-.49-.47-.49-.11 0-.21.04-.29.108-.11.09-.18.226-.18.38v2.413h-1.05v-3.37zm1.23-1.128h3.38v.14h-3.38v-.15zm-.04-4.32c0-.14.05-.27.15-.36.06-.06.16-.12.3-.12h.32l-.06.95h-.26c-.15 0-.25-.07-.31-.12-.1-.1-.16-.22-.16-.36zm8.83-.48c.25 0 .45.21.45.48 0 .26-.21.47-.46.47-.26 0-.47.22-.47.49s.21.49.46.49h1.64c.14 0 .25.12.25.27 0 .14-.12.26-.26.26h-4.45c-.08 0-.14-.04-.17-.07-.04-.03-.09-.1-.09-.2 0-.11.05-.17.08-.21.04-.03.09-.07.17-.07.26 0 .47-.22.47-.49s-.21-.5-.47-.5h-3.26l-.05-.96h6.14zm-7.2 1.45l.1-1.7.07 1.2.03.49.01.25v.06h-.24v-.07l.01-.25zm-.15 1.29h.49l.27 1.07h-1.04l.27-1.08zm-5.06 10.71h10.61v1.46h-2.31c-.52 0-.94.44-.94.98V150h-.64v-8.05c0-.27-.21-.49-.47-.49s-.47.22-.47.49V150h-.97v-8.05c0-.27-.21-.49-.47-.49s-.47.22-.47.49V150h-.63v-6.87c0-.54-.42-.98-.94-.98h-2.3v-1.467zm-.94 9.32h-.27v-5.89h2.57v5.89h-.86v-5.11l-.01-.11c-.05-.22-.23-.38-.45-.39-.21 0-.39.14-.45.34l-.03.15V150h-.51zm12.74 0h-.85v-5.11c0-.2-.11-.37-.28-.45l-.2-.05c-.26 0-.47.22-.47.49V150h-.79v-5.89h2.57V150z" fill="#206FAC"/><path d="M5.16 91.364h4.164c.258 0 .468-.22.468-.49 0-.272-.21-.492-.468-.492H5.16c-.26 0-.47.22-.47.49s.21.492.47.492zM8.1 90.04h4.164c.26 0 .468-.22.468-.492 0-.27-.21-.49-.468-.49H8.102c-.26 0-.468.22-.468.49s.21.49.468.49zm22.87 18.217H29.4c-.26 0-.468.22-.468.49v.34h-.843v-.795c0-.27-.21-.49-.47-.49h-2.11c-.03-.247-.23-.44-.47-.44h-.99v-4.22c0-.54-.42-.98-.94-.98h-.27v-2.45c0-.54-.42-.98-.94-.98h-.73l-.09-1.728c-.01-.26-.22-.466-.47-.466h-1.1v-3.86c0-.27-.21-.49-.47-.49h-.76v-.637c0-.27-.21-.49-.47-.49h-.67l-.41-1.6-.02-.27h2.04l-.03.27c0 .36.14.7.4.94.22.21.5.32.79.32h4.46c.65 0 1.19-.56 1.19-1.25s-.54-1.26-1.2-1.26h-.32c.05-.15.08-.31.08-.47 0-.8-.63-1.46-1.4-1.46h-6.2l-.1-1.82c-.01-.2-.14-.37-.32-.43V80.5c0-.27-.21-.49-.47-.49s-.465.22-.465.49v3.51c-.18.06-.31.23-.32.434l-.107 1.82h-.38c-.34 0-.664.13-.92.37-.3.28-.47.68-.47 1.098 0 .418.17.818.47 1.095.254.236.58.366.92.366h.21l-.02.27-.41 1.607h-.67c-.26 0-.47.22-.47.49v.64h-.76c-.26 0-.47.22-.47.49v3.86h-1.1c-.25 0-.45.204-.463.465l-.085 1.73H9.4c-.52 0-.938.44-.938.98v2.45H8.2c-.515 0-.934.44-.934.98v4.32H3.48c-.26 0-.468.22-.468.49v1.142H.927c-.26 0-.468.22-.468.49v1.338c0 .27.21.49.46.49.26 0 .47-.22.47-.49v-.847h2.09c.26 0 .47-.22.47-.49v-1.143h3.34V111c0 .54.42.98.93.98h14.89c.51 0 .93-.44.93-.98v-2.65h.52c.02.244.22.436.46.436h2.1v.794c0 .27.21.49.46.49h1.78c.26 0 .47-.22.47-.49v-.338h.63v1.617c0 .27.21.49.47.49s.46-.22.46-.49v-2.11c0-.27-.21-.49-.47-.49zm-19.816-10.74h9.035l.06 1.213h-9.16l.05-1.212zm1.595-4.35h5.84v3.37h-1.05v-2.413c0-.155-.07-.292-.18-.38-.08-.068-.18-.11-.29-.11-.26 0-.47.22-.47.49v2.413h-.47v-2.412c0-.27-.21-.49-.47-.49s-.47.218-.47.49v2.412h-.47v-2.412c0-.27-.21-.49-.47-.49-.11 0-.21.04-.29.108-.11.09-.18.226-.18.38v2.413h-1.05v-3.37zm1.23-1.128h3.38v.14h-3.38v-.15zm-.04-4.32c0-.14.05-.27.15-.36.06-.06.16-.12.3-.12h.32l-.06.95h-.26c-.15 0-.25-.07-.31-.12-.1-.1-.16-.22-.16-.36zm8.83-.48c.25 0 .45.21.45.48 0 .26-.21.47-.46.47-.26 0-.47.22-.47.49s.21.49.46.49h1.64c.14 0 .25.12.25.27 0 .14-.12.26-.26.26h-4.45c-.08 0-.14-.04-.17-.07-.04-.03-.09-.1-.09-.2 0-.11.05-.17.08-.21.04-.03.09-.07.17-.07.26 0 .47-.22.47-.49s-.21-.5-.47-.5h-3.26l-.05-.96h6.14zm-7.2 1.45l.1-1.7.07 1.2.03.49.01.25v.06h-.24v-.07l.01-.25zm-.15 1.29h.49l.27 1.07h-1.04l.27-1.08zm-5.06 10.71h10.61v1.46h-2.31c-.52 0-.94.44-.94.98V110h-.64v-8.05c0-.27-.21-.49-.47-.49s-.47.22-.47.49V110h-.97v-8.05c0-.27-.21-.49-.47-.49s-.47.22-.47.49V110h-.63v-6.87c0-.54-.42-.98-.94-.98h-2.3v-1.467zm-.94 9.32h-.27v-5.89h2.57v5.89h-.86v-5.11l-.01-.11c-.05-.22-.23-.38-.45-.39-.21 0-.39.14-.45.34l-.03.15V110h-.51zm12.74 0h-.85v-5.11c0-.2-.11-.37-.28-.45l-.2-.05c-.26 0-.47.22-.47.49V110h-.79v-5.89h2.57V110z" fill="#fff"/><path d="M5.16 51.364h4.164c.258 0 .468-.22.468-.49 0-.272-.21-.492-.468-.492H5.16c-.26 0-.47.22-.47.49s.21.492.47.492zM8.1 50.04h4.164c.26 0 .468-.22.468-.492 0-.27-.21-.49-.468-.49H8.102c-.26 0-.468.22-.468.49s.21.49.468.49zm22.87 18.217H29.4c-.26 0-.468.22-.468.49v.34h-.843v-.795c0-.27-.21-.49-.47-.49h-2.11c-.03-.247-.23-.44-.47-.44h-.99v-4.22c0-.54-.42-.98-.94-.98h-.27v-2.45c0-.54-.42-.98-.94-.98h-.73l-.09-1.728c-.01-.26-.22-.466-.47-.466h-1.1v-3.86c0-.27-.21-.49-.47-.49h-.76v-.637c0-.27-.21-.49-.47-.49h-.67l-.41-1.6-.02-.27h2.04l-.03.27c0 .36.14.7.4.94.22.21.5.32.79.32h4.46c.65 0 1.19-.56 1.19-1.25s-.54-1.26-1.2-1.26h-.32c.05-.15.08-.31.08-.47 0-.8-.63-1.46-1.4-1.46h-6.2l-.1-1.82c-.01-.2-.14-.37-.32-.43V40.5c0-.27-.21-.49-.47-.49s-.465.22-.465.49v3.51c-.18.06-.31.23-.32.434l-.107 1.82h-.38c-.34 0-.664.13-.92.37-.3.28-.47.68-.47 1.098 0 .418.17.818.47 1.095.254.236.58.366.92.366h.21l-.02.27-.41 1.607h-.67c-.26 0-.47.22-.47.49v.64h-.76c-.26 0-.47.22-.47.49v3.86h-1.1c-.25 0-.45.204-.463.465l-.085 1.73H9.4c-.52 0-.938.44-.938.98v2.45H8.2c-.515 0-.934.44-.934.98v4.32H3.48c-.26 0-.468.22-.468.49v1.14H.927c-.26 0-.468.22-.468.49v1.337c0 .27.21.49.46.49.26 0 .47-.22.47-.49v-.848h2.09c.26 0 .47-.22.47-.49V68.45h3.34V71c0 .54.42.98.93.98h14.89c.51 0 .93-.44.93-.98v-2.65h.52c.02.244.22.436.46.436h2.1v.794c0 .27.21.49.46.49h1.78c.26 0 .47-.22.47-.49v-.338h.63v1.617c0 .27.21.49.47.49s.46-.22.46-.49v-2.11c0-.27-.21-.49-.47-.49zm-19.816-10.74h9.035l.06 1.213h-9.16l.05-1.212zm1.595-4.35h5.84v3.37h-1.05v-2.413c0-.155-.07-.292-.18-.38-.08-.068-.18-.11-.29-.11-.26 0-.47.22-.47.49v2.413h-.47v-2.412c0-.27-.21-.49-.47-.49s-.47.218-.47.49v2.412h-.47v-2.412c0-.27-.21-.49-.47-.49-.11 0-.21.04-.29.108-.11.09-.18.226-.18.38v2.413h-1.05v-3.37zm1.23-1.128h3.38v.14h-3.38v-.15zm-.04-4.32c0-.14.05-.27.15-.36.06-.06.16-.12.3-.12h.32l-.06.95h-.26c-.15 0-.25-.07-.31-.12-.1-.1-.16-.22-.16-.36zm8.83-.48c.25 0 .45.21.45.48 0 .26-.21.47-.46.47-.26 0-.47.22-.47.49s.21.49.46.49h1.64c.14 0 .25.12.25.27 0 .14-.12.26-.26.26h-4.45c-.08 0-.14-.04-.17-.07-.04-.03-.09-.1-.09-.2 0-.11.05-.17.08-.21.04-.03.09-.07.17-.07.26 0 .47-.22.47-.49s-.21-.5-.47-.5h-3.26l-.05-.96h6.14zm-7.2 1.45l.1-1.7.07 1.2.03.49.01.25v.06h-.24v-.07l.01-.25zm-.15 1.29h.49l.27 1.07h-1.04l.27-1.08zm-5.05 10.71h10.6v1.46h-2.31c-.52 0-.94.44-.94.98V70h-.64v-8.05c0-.27-.21-.49-.47-.49s-.47.22-.47.49V70h-.97v-8.05c0-.27-.21-.49-.47-.49s-.47.22-.47.49V70h-.63v-6.87c0-.542-.42-.98-.94-.98h-2.3v-1.47zm-.94 9.32h-.27v-5.89h2.57v5.89h-.85v-5.1l-.02-.11c-.05-.22-.23-.38-.45-.38h-.01c-.21 0-.39.14-.45.34l-.03.15v5.1h-.51zm12.74 0h-.85v-5.1c0-.2-.11-.37-.28-.45l-.2-.05c-.26 0-.47.22-.47.49V70h-.79v-5.89h2.57V70z" fill="#67737B"/><path d="M5.16 11.364h4.164c.258 0 .468-.22.468-.49 0-.272-.21-.492-.468-.492H5.16c-.26 0-.47.22-.47.49s.21.492.47.492zM8.1 10.04h4.164c.26 0 .468-.22.468-.492 0-.27-.21-.49-.468-.49H8.102c-.26 0-.468.22-.468.49s.21.49.468.49zm22.87 18.217H29.4c-.26 0-.468.22-.468.49v.34h-.843v-.795c0-.27-.21-.49-.47-.49h-2.11c-.03-.247-.23-.44-.47-.44h-.99v-4.22c0-.54-.42-.98-.94-.98h-.27v-2.45c0-.54-.42-.98-.94-.98h-.73l-.09-1.728c-.01-.26-.22-.466-.47-.466h-1.1v-3.86c0-.27-.21-.49-.47-.49h-.76v-.637c0-.27-.21-.49-.47-.49h-.67l-.41-1.6-.02-.27h2.04l-.03.27c0 .36.14.7.4.94.22.21.5.32.79.32h4.46c.65 0 1.19-.56 1.19-1.25s-.5-1.27-1.16-1.27h-.32c.05-.15.08-.31.08-.47 0-.8-.63-1.46-1.4-1.46h-6.2l-.1-1.82c-.01-.2-.14-.37-.32-.43V.5c0-.27-.21-.49-.47-.49s-.46.22-.46.49v3.51c-.18.06-.31.23-.32.433l-.11 1.82h-.38c-.34 0-.67.13-.92.37-.3.28-.48.68-.48 1.1 0 .42.17.82.47 1.1.25.24.58.37.92.37h.21l-.02.27-.41 1.61h-.67c-.26 0-.47.22-.47.49v.64h-.76c-.26 0-.47.22-.47.49v3.86h-1.1c-.25 0-.46.21-.47.47l-.09 1.73h-.72c-.52 0-.94.44-.94.98v2.45h-.27c-.52 0-.94.44-.94.98v4.32h-3.8c-.26 0-.47.22-.47.49v1.14H.92c-.26 0-.462.22-.462.49v1.34c0 .27.21.49.46.49.26 0 .47-.22.47-.49v-.85h2.09c.26 0 .47-.22.47-.49v-1.15h3.34V31c0 .54.42.98.93.98h14.89c.51 0 .93-.44.93-.98v-2.65h.52c.02.244.22.436.46.436h2.1v.794c0 .27.21.49.466.49h1.78c.26 0 .47-.22.47-.49v-.338h.63v1.617c0 .27.21.49.47.49s.466-.22.466-.49v-2.11c0-.27-.21-.49-.46-.49zm-19.816-10.74h9.035l.06 1.213h-9.16l.05-1.212zm1.595-4.35h5.84v3.37h-1.05v-2.413c0-.155-.07-.292-.18-.38-.08-.068-.18-.11-.29-.11-.26 0-.47.22-.47.49v2.413h-.47v-2.412c0-.27-.21-.49-.47-.49s-.47.218-.47.49v2.412h-.47v-2.412c0-.27-.21-.49-.47-.49-.11 0-.21.04-.29.108-.11.09-.18.226-.18.38v2.413h-1.05v-3.37zm1.23-1.128h3.38v.14h-3.38v-.15zm-.04-4.32c0-.14.05-.27.15-.36.06-.06.16-.12.3-.12h.32l-.06.95h-.26c-.15 0-.25-.07-.31-.12-.1-.1-.16-.22-.16-.36zm8.83-.48c.25 0 .45.21.45.48 0 .26-.21.47-.46.47-.26 0-.47.22-.47.49s.21.49.46.49h1.64c.14 0 .25.12.25.27 0 .14-.12.26-.26.26h-4.45c-.08 0-.14-.04-.17-.07-.04-.03-.09-.1-.09-.2 0-.11.05-.17.08-.21.04-.03.09-.07.17-.07.26 0 .47-.22.47-.49s-.21-.5-.47-.5h-3.26l-.05-.96h6.14zm-7.2 1.45l.1-1.7.07 1.2.02.49.01.25v.06h-.24v-.07l.01-.25zm-.15 1.29h.49l.27 1.07h-1.04l.27-1.08zm-5.05 10.71h10.6v1.46h-2.31c-.52 0-.94.44-.94.98V30h-.64v-8.05c0-.27-.21-.49-.47-.49s-.47.22-.47.49V30h-.97v-8.05c0-.27-.21-.49-.47-.49s-.47.22-.47.49V30h-.63v-6.87c0-.542-.42-.98-.94-.98h-2.3v-1.47zm-.94 9.32h-.27v-5.89h2.57v5.89h-.85v-5.1l-.02-.11c-.05-.22-.23-.38-.45-.38h-.01c-.21 0-.39.14-.45.34l-.03.15v5.1h-.51zm12.74 0h-.85v-5.1c0-.2-.11-.37-.28-.45l-.2-.05c-.26 0-.47.22-.47.49V30h-.79v-5.89h2.57V30z" fill="#3A434E"/></g></svg>