<svg width="32" height="232" viewBox="0 0 32 232" xmlns="http://www.w3.org/2000/svg"><g fill="none"><path d="M31.154 144.877c.558-.14.9-.723.762-1.298-.137-.58-.7-.93-1.257-.79l-2.76.7v-3.9h3.07c.28 0 .52-.24.52-.54 0-.13-.04-.25-.12-.34l-.72-1.11.74-1.15c.11-.17.12-.38.03-.56-.09-.18-.27-.28-.46-.28h-3.58c-.29 0-.52.24-.52.53v7.58l-.91.23v-8.94c.16-.04.32-.11.46-.23.34-.3.46-.77.32-1.18v-1.45c0-.3-.24-.54-.52-.54-.29 0-.52.24-.52.54v.03l-3.86-4.86c-.08-.1-.18-.19-.29-.25v-.87c0-.3-.23-.54-.52-.54-.29 0-.52.24-.52.53v.865c-.11.06-.21.142-.28.242l-2.38 2.992-.27.085-.28-5.01c-.02-.29-.25-.51-.52-.51h-.87l-.11.01c-.23.04-.41.24-.43.49l-.05.81c-.18 1.24-.79 2.246-1.55 2.595v-.67c0-.295-.238-.536-.52-.536-.29 0-.52.24-.52.54v.72c-.98-.35-1.73-1.775-1.73-3.425 0-.3-.23-.54-.52-.54H9.6l-.02-.008c-.28 0-.51.24-.51.54 0 1.9-1.002 3.503-2.19 3.503-1.06 0-1.97-1.28-2.15-2.91l-.04-.62-.006-.04-.01-.06-.01-.03-.02-.07-.01-.02c-.083-.177-.26-.3-.46-.3l-.02.007H3.3c-.275 0-.502.23-.518.51l-.27 4.87-.31-.017c-.504 0-.78.11-1.003.2-.19.07-.32.125-.63.125-.29 0-.52.24-.52.54 0 .296.23.537.52.537.5 0 .78-.11 1-.2.18-.07.31-.13.62-.13s.44.06.62.13c.22.09.5.2 1 .2.51 0 .78-.11 1-.2.18-.07.31-.13.62-.13s.44.06.62.13c.22.09.5.2 1 .2s.78-.11 1-.2c.18-.07.32-.13.623-.13s.44.06.624.13c.22.09.5.2 1.002.2l.22-.01-1.94 2.45v-.01c0-.297-.235-.54-.52-.54-.29 0-.52.24-.52.54v1.41l-.01.03-.018.04-.014.056-.01.05-.01.07-.004.033v.11l.006.11.01.05.01.053.01.06.01.04.02.05.02.044.02.043.02.05.02.036.03.06.02.03.04.06.02.03.05.05.07.07.02.015.06.05.03.02.055.04.04.02.05.02.04.02.06.02.046.01.05.016.058.01.05.01.07.01h.355v.42l-.127-.01h-3.2v-.93c0-.3-.235-.54-.52-.54-.29 0-.52.24-.52.537v.93h-.6c-.576 0-1.04.48-1.04 1.07v11.39l-.1.024c-.556.14-.896.72-.76 1.3.118.49.54.81 1.01.81l.25-.03 23.63-5.995v1.88l-4.55 1.2c-.275.07-.45.36-.38.65.06.24.27.4.507.4l.124-.02 8.46-2.147c.27-.07.44-.363.38-.65-.07-.288-.35-.464-.63-.394l-2.88.73v-1.88l3.25-.82zm-3.25-8.17H30l-.395.61c-.116.18-.116.415 0 .595l.394.61h-2.1v-1.815zm-7.053 8.575v-2.82c-.01-.435-.36-.78-.79-.78-.42 0-.77.345-.79.78v3.22h.01l-1.59.405v-9.103H18l.1-.005.03-.01.064-.01.036-.01.058-.02.037-.01.056-.02.04-.02.06-.03.03-.02.06-.04.02-.01.08-.06.08-.08.05-.05.03-.03.04-.06.02-.03.03-.06.02-.04.03-.05.02-.05.02-.046.02-.053.01-.04.02-.06.01-.05.01-.05.01-.11v-.145l-.01-.07-.01-.05-.02-.055-.02-.046-.02-.05-.02-.043-.02-.05-.03-.05-.02-.04-.05-.063-.014-.02-.816-1.03h5.89v10.31l-3.028.77zm-10.92-9.395l3.35-4.21.02.002 2.02 2.53.5.62.12.14.73.91.01.01H9.91l.02-.03zm6.48-3.684l-.57-.723.04.014c.22.086.48.19.95.2l-.4.51zm4.64-2.456l2.69 3.382h-5.38l2.69-3.39zm-4.87.597l.19-3.437.19 3.437h-.38zm-.97-1.253l-.06 1.21-.23.02-.47-.59c.28-.16.54-.37.77-.62zm-3.09.68l-.43.55c-.15.02-.28.04-.39.08l-.07-1.33c.27.31.57.55.9.72zm-2.24.58l.19-3.43.19 3.44h-.38zm-6.11-3.44l.19 3.44h-.38l.19-3.43zm3.98 3.59c-.18.08-.31.13-.62.13s-.44-.05-.62-.12c-.22-.09-.5-.2-1-.2-.19 0-.35.02-.49.04l-.07-1.26c.55.61 1.24.98 1.99.98.76 0 1.45-.37 2-.98l-.07 1.24h-.1c-.5 0-.78.11-1 .2zm-2.79 9.05h3.83l.13-.01v8.79l-3.96 1.01v-9.78zm8.27 4.4c-.42 0-.77.35-.79.78v2.71l-2.48.63v-11.08h6.72v9.37l-2.66.68v-2.31c-.02-.43-.37-.78-.79-.78zm6.2-5.32h1.04v2.31H19.4v-2.31zm2.11 0h1.04v2.31H21.5v-2.31zm-2.11-2.72h1.04v2.31H19.4v-2.31zm2.11 0h1.04v2.31H21.5v-2.31zm-8.59 3.35c-.02-.43-.36-.78-.79-.78-.42 0-.77.35-.79.78v1.95h1.58v-1.95zm2.11 0c-.02-.43-.36-.78-.79-.78-.42 0-.77.35-.79.78v1.95h1.59v-1.95zm-3.67 2.6h3.7v1.08h-3.71v-1.07zm-5.97.69h1.04v2.31H5.37v-2.31zm1.36 0H7.8v2.31H6.73v-2.31zm-1.36 2.63h1.04v2.31H5.37v-2.31zm1.36 0H7.8v2.31H6.73v-2.31zm.53-3.96c0-.41-.32-.74-.71-.74-.39 0-.71.33-.71.74s.32.73.71.73c.398 0 .71-.33.71-.73zm10.06-18.89h.08l-.02.25c0 .74.58 1.33 1.28 1.33h5.88c.31 0 .61-.12.848-.33.28-.25.438-.61.438-.99s-.16-.74-.44-.99c-.23-.21-.53-.33-.84-.33H22.1l.004-.08c0-.33-.138-.65-.378-.86-.204-.183-.467-.29-.74-.29h-3.67c-.617 0-1.12.52-1.12 1.15s.502 1.16 1.12 1.16zm0-1.23H21l.05.02.027.06-.027.06-.05.02h-.004c-.288 0-.52.24-.52.54 0 .3.232.54.52.54h3.55c.075 0 .13.04.16.07.03.03.083.09.083.19s-.05.16-.09.19c-.03.03-.09.06-.16.06h-5.88c-.13 0-.24-.11-.24-.25s.11-.25.24-.25c.29 0 .52-.24.52-.53 0-.29-.23-.53-.52-.53h-1.35c-.04 0-.08-.035-.08-.08 0-.04.04-.08.08-.08zm6.78 5.74c-.22.19-.25.53-.06.76.186.23.515.26.73.07.16-.13.36-.2.57-.18.14.02.27.07.386.15l.01.02c.09.19.27.31.47.31h.06c.206 0 .39-.12.47-.31l.01-.01c.11-.08.246-.13.388-.15.2-.01.405.05.56.19.22.19.55.166.738-.06.18-.23.154-.57-.066-.76-.373-.32-.844-.476-1.325-.43-.29.023-.562.12-.8.273-.24-.153-.513-.25-.803-.275-.484-.04-.954.11-1.324.43" fill="#206FAC"/><path d="M31.154 104.877c.558-.14.9-.723.762-1.298-.137-.58-.7-.93-1.257-.79l-2.76.7v-3.9h3.07c.28 0 .52-.24.52-.54 0-.13-.04-.25-.12-.34l-.72-1.11.74-1.15c.11-.17.12-.38.03-.56-.09-.18-.27-.29-.46-.29h-3.58c-.29 0-.52.24-.52.53v7.59l-.91.23v-8.94c.16-.04.32-.11.46-.23.34-.3.46-.77.32-1.18v-1.44c0-.3-.24-.54-.52-.54-.29 0-.52.24-.52.53v.03l-3.86-4.86c-.08-.1-.18-.18-.29-.247v-.86c0-.3-.23-.54-.52-.54-.29 0-.52.24-.52.54v.87c-.11.063-.21.15-.28.25l-2.38 2.99-.27.086-.28-5.01c-.02-.284-.25-.506-.52-.506h-.85l-.03-.003-.11.01c-.23.04-.41.24-.42.49l-.04.81c-.18 1.24-.79 2.246-1.55 2.595v-.67c0-.3-.24-.54-.52-.54-.29 0-.52.24-.52.533v.72C11.75 88.49 11 87.06 11 85.41c0-.296-.23-.536-.52-.536l-.02.006H9.6c-.285 0-.517.24-.517.54 0 1.9-1 3.5-2.187 3.5-1.06 0-1.973-1.28-2.154-2.91l-.04-.626-.007-.04-.01-.06-.01-.034-.022-.063-.01-.02c-.085-.18-.26-.3-.462-.3H3.3c-.275 0-.502.22-.518.51l-.27 4.863-.31-.02c-.504 0-.78.11-1.003.2-.19.077-.32.13-.63.13-.29 0-.52.24-.52.538 0 .3.23.54.52.54.5 0 .78-.11 1-.2.18-.072.31-.13.62-.13s.44.058.62.13c.22.09.5.2 1 .2.51 0 .78-.11 1-.2.18-.072.31-.13.62-.13s.44.058.62.13c.22.09.5.2 1 .2s.78-.11 1-.2c.18-.072.32-.13.623-.13s.44.058.624.13c.22.09.5.2 1.002.2l.22-.01-1.947 2.45v-.01c0-.29-.23-.532-.52-.532-.285 0-.52.24-.52.533v1.41l-.01.03-.014.04-.01.06-.01.045-.01.07-.006.032-.003.093v.01l.01.12.01.05.01.05.017.06.01.04.02.058.02.042.02.05.02.05.02.036.04.05.02.027.04.056.03.03.048.05.075.07.02.02.06.05.035.03.056.03.04.02.05.026.048.016.05.02.042.01.05.016.05.01.05.002h.42v.42l-.12-.01h-3.2v-.93c0-.3-.233-.54-.52-.54-.288 0-.52.24-.52.54v.93h-.6c-.574 0-1.04.48-1.04 1.07v11.388l-.097.025c-.557.14-.897.72-.76 1.3.117.49.54.817 1.008.817l.25-.03 23.63-6v1.88l-4.55 1.2c-.274.07-.45.36-.38.65.06.244.27.408.508.408l.125-.016 8.46-2.147c.27-.073.44-.364.38-.65-.07-.29-.35-.465-.63-.395l-2.88.73v-1.88l3.25-.82zm-3.25-8.17H30l-.395.61c-.116.18-.116.415 0 .595l.394.61h-2.1v-1.815zm-7.053 8.575v-2.82c-.01-.435-.36-.78-.79-.78-.42 0-.77.345-.79.78v3.22h.01l-1.59.405v-9.103H18l.1-.005.03-.01.064-.01.036-.01.058-.02.037-.01.056-.02.04-.02.06-.03.03-.02.06-.04.02-.01.08-.06.08-.08.05-.05.03-.03.04-.06.02-.03.03-.06.02-.04.03-.05.02-.05.02-.046.02-.053.01-.04.02-.06.01-.05.01-.05.01-.11v-.145l-.01-.07-.01-.05-.02-.05-.02-.04-.02-.05-.02-.048-.023-.05-.03-.05-.02-.04-.044-.07-.014-.02-.84-1h5.89v10.31l-3.025.767zM9.93 95.887l3.348-4.21.02.002 2.013 2.53.5.62.12.14.73.91.01.01H9.91l.02-.03zm6.476-3.684l-.575-.723.04.014c.22.086.48.19.95.2l-.4.51zm4.64-2.456l2.69 3.382H18.36l2.688-3.39zm-4.876.597l.19-3.437.19 3.437h-.38zm-.972-1.253l-.065 1.21-.23.02-.472-.59c.28-.16.54-.37.77-.62zm-3.09.68l-.43.55c-.153.02-.28.04-.388.08l-.073-1.33c.266.31.567.55.893.72zm-2.242.58l.19-3.43.19 3.44h-.38zm-6.12-3.44l.19 3.44h-.38l.19-3.43zM7.72 90.5c-.184.074-.316.127-.625.127s-.44-.052-.623-.126c-.223-.09-.5-.2-1.004-.2-.193 0-.353.02-.488.04l-.07-1.26c.548.61 1.238.97 1.987.97.755 0 1.448-.37 1.998-.98l-.068 1.23h-.1c-.506 0-.783.11-1.004.2zm-2.797 9.04H8.76l.124-.01v8.79l-3.96 1.005V99.54zm8.27 4.393c-.426 0-.772.346-.792.78v2.712l-2.47.63V96.982h6.72v9.366l-2.66.676v-2.31c-.02-.434-.36-.78-.79-.78zm6.198-5.32h1.04v2.312h-1.04v-2.31zm2.11 0h1.04v2.312H21.5v-2.31zm-2.1-2.718h1.04v2.31H19.4v-2.31zm2.11 0h1.04v2.31H21.5v-2.31zm-8.59 3.35c-.01-.433-.36-.78-.79-.78-.42 0-.77.347-.79.78v1.95h1.59v-1.95zm2.11 0c-.02-.433-.36-.78-.79-.78-.42 0-.77.347-.79.78v1.95h1.59v-1.95zm-3.67 2.602h3.7v1.074h-3.71v-1.07zm-5.97.687h1.04v2.31H5.37v-2.31zm1.36 0h1.04v2.31H6.73v-2.31zm-1.36 2.628h1.04v2.31H5.37v-2.31zm1.36 0h1.04v2.31H6.73v-2.31zm.53-3.967c0-.406-.32-.734-.71-.734-.39 0-.71.33-.71.74s.32.74.71.74c.4 0 .72-.33.72-.73zM17.32 82.31h.083l-.023.25c0 .732.574 1.326 1.28 1.326h5.877c.31 0 .613-.118.847-.33.276-.253.435-.615.435-.995s-.16-.74-.44-.99c-.24-.21-.54-.33-.85-.33H22.1l.004-.08c0-.33-.138-.64-.378-.86-.204-.18-.467-.29-.74-.29h-3.67c-.617 0-1.12.52-1.12 1.16s.502 1.16 1.12 1.16zm0-1.235h3.67l.05.02.028.06-.028.062-.05.02h-.004c-.287 0-.52.24-.52.537 0 .297.233.537.52.537h3.55c.076 0 .13.04.16.07.032.03.084.09.084.19s-.052.16-.083.19c-.032.03-.085.06-.16.06H18.66c-.134 0-.243-.11-.243-.25s.11-.25.243-.25c.287 0 .52-.24.52-.54h.002c0-.29-.233-.54-.52-.54h-1.346c-.043 0-.08-.03-.08-.08 0-.04.037-.08.08-.08zm6.78 5.743c-.22.19-.25.53-.064.757.184.227.513.256.732.066.16-.13.36-.2.565-.18.14.02.273.07.385.15l.007.02c.086.19.27.31.47.31h.06c.203 0 .386-.12.47-.31l.008-.01c.112-.08.244-.13.386-.15.2-.01.4.05.56.19.22.19.55.16.73-.06.18-.22.15-.56-.07-.75-.37-.32-.84-.47-1.33-.43-.29.03-.57.12-.81.28-.24-.15-.52-.25-.81-.27-.48-.04-.95.11-1.32.43" fill="#fff"/><path d="M31.154 64.877c.558-.14.9-.723.762-1.298-.137-.58-.7-.93-1.257-.79l-2.76.7v-3.9h3.07c.28 0 .52-.24.52-.54 0-.13-.04-.25-.12-.34l-.72-1.11.74-1.15c.11-.17.12-.38.03-.56-.09-.18-.27-.29-.46-.29h-3.58c-.29 0-.52.24-.52.53v7.59l-.91.23v-8.94c.16-.04.32-.11.46-.23.34-.3.46-.77.32-1.18v-1.44c0-.3-.24-.54-.52-.54-.29 0-.52.24-.52.53v.03l-3.86-4.86c-.08-.1-.18-.18-.29-.247v-.86c0-.3-.23-.54-.52-.54-.29 0-.52.24-.52.54v.87c-.11.063-.21.15-.28.25l-2.38 2.99-.27.086-.28-5.01c-.02-.284-.25-.506-.52-.506h-.85l-.03-.003-.11.01c-.23.04-.41.24-.42.49l-.04.81c-.18 1.24-.79 2.246-1.55 2.595v-.67c0-.3-.24-.54-.52-.54-.29 0-.52.24-.52.533v.72C11.75 48.49 11 47.06 11 45.41c0-.296-.23-.536-.52-.536l-.02.006H9.6c-.285 0-.517.24-.517.54 0 1.9-1 3.5-2.187 3.5-1.06 0-1.973-1.28-2.154-2.91l-.04-.626-.007-.04-.01-.06-.01-.034-.022-.063-.01-.02c-.085-.18-.26-.3-.462-.3H3.3c-.275 0-.502.22-.518.51l-.27 4.863-.31-.02c-.504 0-.78.11-1.003.2-.19.077-.32.13-.63.13-.29 0-.52.24-.52.538 0 .3.23.54.52.54.5 0 .78-.11 1-.2.18-.072.31-.13.62-.13s.44.058.62.13c.22.09.5.2 1 .2.51 0 .78-.11 1-.2.18-.072.31-.13.62-.13s.44.058.62.13c.22.09.5.2 1 .2s.78-.11 1-.2c.18-.072.32-.13.623-.13s.44.058.624.13c.22.09.5.2 1.002.2l.22-.01-1.947 2.45v-.01c0-.29-.23-.532-.52-.532-.285 0-.52.24-.52.533v1.41l-.01.03-.014.04-.01.06-.01.045-.01.07-.006.032-.003.093v.01l.01.12.01.05.01.05.017.06.01.04.02.058.02.042.02.05.02.05.02.036.04.05.02.027.04.056.03.03.048.05.075.07.02.02.06.05.035.03.056.03.04.02.05.026.048.016.05.02.042.01.05.016.05.01.05.002h.42v.42l-.12-.01h-3.2v-.93c0-.3-.233-.54-.52-.54-.288 0-.52.24-.52.54v.93h-.6c-.574 0-1.04.48-1.04 1.07V69.8l-.097.028c-.557.14-.897.724-.76 1.3.117.49.54.817 1.008.817l.25-.03 23.63-6v1.88L22.33 69c-.278.07-.45.36-.38.65.058.244.27.408.504.408l.125-.016 8.46-2.147c.27-.072.44-.363.38-.65-.07-.288-.35-.464-.63-.394l-2.88.73V65.7l3.25-.825zm-3.25-8.17H30l-.395.61c-.116.18-.116.415 0 .595l.394.61h-2.1v-1.815zm-7.053 8.575v-2.82c-.01-.435-.36-.78-.79-.78-.42 0-.77.345-.79.78v3.22h.01l-1.59.405v-9.103H18l.1-.005.03-.01.064-.01.036-.01.058-.02.037-.01.056-.02.04-.02.06-.03.03-.02.06-.04.02-.01.08-.06.08-.08.05-.05.03-.03.04-.06.02-.03.03-.06.02-.04.03-.05.02-.05.02-.046.02-.053.01-.04.02-.06.01-.05.01-.05.01-.11v-.145l-.01-.07-.01-.05-.02-.05-.02-.04-.02-.05-.02-.048-.023-.05-.03-.05-.02-.04-.044-.07-.014-.02-.84-1h5.89V64.5l-3.025.766zM9.93 55.887l3.348-4.21.02.002 2.013 2.53.5.62.12.14.73.91.01.01H9.91l.02-.03zm6.476-3.684l-.575-.723.04.014c.22.086.48.19.95.2l-.4.51zm4.64-2.456l2.69 3.382H18.36l2.688-3.39zm-4.876.597l.19-3.437.19 3.437h-.38zm-.972-1.253l-.065 1.21-.23.02-.472-.59c.28-.16.54-.37.77-.62zm-3.09.68l-.43.55c-.153.02-.28.04-.388.08l-.073-1.33c.266.31.567.55.893.72zm-2.242.58l.19-3.43.19 3.44h-.38zm-6.12-3.44l.19 3.44h-.38l.19-3.43zM7.72 50.5c-.184.074-.316.127-.625.127s-.44-.052-.623-.126c-.223-.09-.5-.2-1.004-.2-.193 0-.353.02-.488.04l-.07-1.26c.548.61 1.238.97 1.987.97.755 0 1.448-.37 1.998-.98l-.068 1.23h-.1c-.506 0-.783.11-1.004.2zm-2.797 9.04H8.76l.124-.01v8.79l-3.96 1.005V59.54zm8.27 4.393c-.426 0-.772.346-.792.78v2.712l-2.47.63V56.982h6.72v9.366l-2.66.676v-2.31c-.02-.434-.36-.78-.79-.78zm6.198-5.32h1.04v2.312h-1.04v-2.31zm2.11 0h1.04v2.312H21.5v-2.31zm-2.1-2.718h1.04v2.31H19.4v-2.31zm2.11 0h1.04v2.31H21.5v-2.31zm-8.59 3.35c-.01-.433-.36-.78-.79-.78-.42 0-.77.347-.79.78v1.95h1.59v-1.95zm2.11 0c-.02-.433-.36-.78-.79-.78-.42 0-.77.347-.79.78v1.95h1.59v-1.95zm-3.67 2.602h3.7v1.074h-3.71v-1.07zm-5.97.687h1.04v2.31H5.37v-2.31zm1.36 0h1.04v2.31H6.73v-2.31zm-1.36 2.628h1.04v2.31H5.37v-2.31zm1.36 0h1.04v2.31H6.73v-2.31zm.53-3.967c0-.406-.32-.734-.71-.734-.39 0-.71.33-.71.74s.32.74.71.74c.4 0 .72-.33.72-.73zM17.32 42.31h.083l-.023.25c0 .732.574 1.326 1.28 1.326h5.877c.31 0 .613-.118.847-.33.276-.253.435-.615.435-.995s-.16-.74-.44-.99c-.24-.21-.54-.33-.85-.33H22.1l.004-.08c0-.33-.138-.64-.378-.86-.204-.18-.467-.29-.74-.29h-3.67c-.617 0-1.12.52-1.12 1.16s.502 1.16 1.12 1.16zm0-1.235h3.67l.05.02.028.06-.028.062-.05.02h-.004c-.287 0-.52.24-.52.537 0 .297.233.537.52.537h3.55c.076 0 .13.04.16.07.032.03.084.09.084.19s-.052.16-.083.19c-.032.03-.085.06-.16.06H18.66c-.134 0-.243-.11-.243-.25s.11-.25.243-.25c.287 0 .52-.24.52-.54h.002c0-.29-.233-.54-.52-.54h-1.346c-.043 0-.08-.03-.08-.08 0-.04.037-.08.08-.08zm6.78 5.743c-.22.19-.25.53-.064.757.184.227.513.256.732.066.16-.13.36-.2.565-.18.14.02.273.07.385.15l.007.02c.086.19.27.31.47.31h.06c.203 0 .386-.12.47-.31l.008-.01c.112-.08.244-.13.386-.15.2-.01.4.05.56.19.22.19.55.16.73-.06.18-.22.15-.56-.07-.75-.37-.32-.84-.47-1.33-.43-.29.03-.57.12-.81.28-.24-.15-.52-.25-.81-.27-.48-.04-.95.11-1.32.43" fill="#67737B"/><path d="M31.154 24.877c.558-.14.9-.723.762-1.298-.137-.58-.7-.93-1.257-.79l-2.76.7v-3.9h3.07c.28 0 .52-.24.52-.54 0-.13-.04-.25-.12-.34l-.72-1.11.74-1.15c.11-.17.12-.38.03-.56-.09-.18-.27-.29-.46-.29h-3.58c-.29 0-.52.24-.52.53v7.59l-.91.23v-8.94c.16-.04.32-.11.46-.23.34-.3.46-.77.32-1.18v-1.44c0-.3-.24-.54-.52-.54-.29 0-.52.24-.52.53v.03l-3.85-4.83c-.08-.1-.18-.18-.29-.25v-.86c0-.297-.23-.537-.52-.537-.29 0-.52.24-.52.53v.86c-.11.06-.21.14-.28.24l-2.38 2.99-.27.086-.28-5.01c-.02-.284-.25-.506-.52-.506h-.87l-.11.01c-.23.047-.41.25-.43.5l-.05.81c-.18 1.24-.79 2.245-1.546 2.594v-.67c0-.3-.23-.54-.52-.54-.284 0-.52.24-.52.54v.72c-.97-.35-1.725-1.78-1.725-3.43 0-.3-.235-.54-.52-.54h-.9c-.287 0-.52.24-.52.534 0 1.9-1 3.5-2.187 3.5-1.06 0-1.974-1.28-2.155-2.91l-.03-.62v-.03l-.01-.05-.01-.038-.02-.07-.01-.017c-.08-.17-.26-.29-.46-.29l-.02.007h-.86c-.27 0-.5.22-.52.5l-.27 4.87-.3-.02c-.5 0-.78.11-1 .2-.18.073-.31.13-.62.13-.28 0-.52.24-.52.533 0 .3.24.54.52.54.51 0 .78-.11 1.01-.2.19-.07.32-.13.63-.13s.44.06.625.13c.22.09.5.2 1 .2s.78-.11 1-.2c.19-.07.32-.13.63-.13s.44.06.63.13c.225.09.5.2 1.006.2.5 0 .78-.11 1-.2.18-.07.314-.13.62-.13s.44.06.625.13c.22.09.495.2 1 .2l.227-.01-1.948 2.44v-.02c0-.29-.24-.532-.52-.532-.29 0-.52.24-.52.53v1.41l-.01.03-.02.04-.016.06-.01.045-.01.067v.04l-.003.1v.01l.005.102.01.05.01.05.015.06.01.04.02.05.014.044.02.043.025.05.02.03.038.054.02.03.04.06.03.03.04.05.075.07.02.02.06.05.04.02.06.03.04.02.053.02.044.015.053.02.05.01.052.02.055.01.05.005.07.007h.35v.42l-.13-.01H5.54v-.93c0-.29-.233-.53-.52-.53-.288 0-.52.24-.52.533v.93h-.61c-.574 0-1.04.48-1.04 1.078v11.39l-.097.027c-.557.14-.897.72-.76 1.3.117.49.54.814 1.008.814l.25-.03 23.63-6v1.88L22.33 29c-.277.07-.45.36-.38.65.06.244.27.408.505.408l.125-.016 8.46-2.147c.276-.07.447-.362.38-.65-.07-.287-.35-.463-.63-.393l-2.877.73v-1.884l3.248-.825zm-3.25-8.17H30l-.395.61c-.116.18-.116.415 0 .595l.394.61h-2.1v-1.815zm-7.053 8.575v-2.82c-.01-.435-.36-.78-.79-.78-.42 0-.77.345-.79.78v3.22h.01l-1.59.405v-9.103H18l.1-.005.03-.01.064-.01.036-.01.058-.02.037-.01.056-.02.04-.02.06-.03.03-.02.06-.04.02-.01.08-.06.08-.08.05-.05.03-.03.04-.06.02-.03.03-.06.02-.04.03-.05.02-.05.02-.046.02-.053.01-.04.02-.06.01-.05.01-.05.01-.11v-.145l-.01-.07-.01-.05-.02-.05-.02-.04-.02-.05-.02-.048-.023-.05-.03-.05-.02-.04-.044-.07-.014-.02-.84-1h5.89V24.5l-3.025.766zM9.93 15.887l3.348-4.21.02.002 2.013 2.53.5.62.12.14.73.91.01.01H9.91l.02-.03zm6.476-3.684l-.575-.723.04.014c.22.086.48.19.95.2l-.4.51zm4.64-2.456l2.69 3.382H18.36l2.688-3.39zm-4.876.597l.19-3.437.19 3.437h-.38zm-.98-1.254l-.066 1.206-.23.016-.472-.594c.277-.16.536-.37.77-.627zm-3.09.675l-.432.544c-.152.01-.278.04-.387.07l-.07-1.34c.27.3.57.54.9.72zm-2.243.578l.19-3.437.19 3.437h-.38zM3.742 6.906l.19 3.437h-.38l.19-3.437zm3.973 3.587c-.184.074-.316.127-.625.127s-.44-.053-.624-.127c-.223-.09-.5-.2-1.004-.2-.193 0-.353.016-.488.04l-.07-1.258c.548.61 1.238.974 1.987.974.76 0 1.45-.37 2-.99l-.07 1.23-.1-.01c-.5 0-.78.11-1 .2zM4.923 19.54H8.76l.124-.01v8.79l-3.96 1.005V19.54zm8.27 4.393c-.426 0-.772.346-.792.78v2.712l-2.47.63V16.982h6.72v9.366l-2.66.676v-2.31c-.02-.434-.36-.78-.79-.78zm6.198-5.32h1.04v2.312h-1.04v-2.31zm2.11 0h1.04v2.312H21.5v-2.31zm-2.1-2.718h1.04v2.31H19.4v-2.31zm2.11 0h1.04v2.31H21.5v-2.31zm-8.59 3.35c-.01-.433-.36-.78-.79-.78-.42 0-.77.347-.79.78v1.95h1.59v-1.95zm2.11 0c-.02-.433-.36-.78-.79-.78-.42 0-.77.347-.79.78v1.95h1.59v-1.95zm-3.67 2.602h3.7v1.074h-3.71v-1.07zm-5.97.687h1.04v2.31H5.37v-2.31zm1.36 0h1.04v2.31H6.73v-2.31zm-1.36 2.628h1.04v2.31H5.37v-2.31zm1.36 0h1.04v2.31H6.73v-2.31zm.53-3.967c0-.406-.32-.734-.71-.734-.39 0-.71.33-.71.74s.32.74.71.74c.4 0 .72-.33.72-.73zM17.32 2.31h.082l-.027.25c0 .732.575 1.326 1.282 1.326h5.874c.31 0 .62-.118.85-.33.27-.253.43-.615.43-.995s-.16-.74-.43-.99c-.23-.21-.53-.33-.84-.33H22.1l.004-.08c0-.33-.138-.64-.378-.86-.204-.18-.467-.29-.74-.29h-3.67c-.617 0-1.12.52-1.12 1.16s.502 1.16 1.12 1.16zm0-1.235h3.67l.05.02.027.06-.028.062-.05.02h-.01c-.29 0-.52.24-.52.537 0 .297.23.537.52.537h3.55c.07 0 .13.04.16.07.03.03.08.09.08.19s-.06.16-.09.19-.09.06-.16.06h-5.87c-.14 0-.25-.11-.25-.25s.11-.25.24-.25c.28 0 .52-.24.52-.54 0-.29-.24-.54-.52-.54H17.3c-.042 0-.08-.03-.08-.08 0-.04.038-.08.08-.08zm6.78 5.743c-.22.19-.25.53-.065.757.184.227.513.256.732.066.16-.13.36-.2.565-.18.14.02.27.07.38.15l.008.02c.09.19.27.31.47.31h.06c.21 0 .39-.12.47-.31l.01-.01c.11-.08.25-.13.39-.15.2-.01.4.05.56.19.22.19.55.16.73-.06.182-.22.154-.56-.066-.75-.374-.32-.845-.47-1.326-.43-.29.03-.565.12-.804.28-.24-.15-.51-.25-.8-.27-.48-.04-.95.11-1.32.43" fill="#3A434E"/></g></svg>