<svg width="32" height="232" viewBox="0 0 32 232" xmlns="http://www.w3.org/2000/svg"><g fill="none">
			<path id="XMLID_1001_" fill="#3A444F" d="M28,19.1c-0.1-0.3-0.3-0.6-0.6-0.9c-0.6-0.4-0.8-0.7-1-1c-0.2-0.3-0.4-0.6-0.8-0.9
				c-0.3-0.2-0.6-0.3-0.9-0.3c-0.2,0-0.4,0-0.5,0.1c-0.1,0-0.1,0-0.2,0c0,0,0,0,0,0c-0.2-0.2-0.2-0.3-0.1-0.4c0-0.1,0.1-0.2,0-0.3
				c0.1-0.1,0.2-0.1,0.3-0.2c1.2-1,1.2-4.5,0.2-5.6c-0.5-0.6-1-0.7-1.3-0.9c-0.3-0.1-0.4-0.2-0.6-0.4C22.3,8.2,22.1,8,22,7.9
				c-0.4-0.6-0.9-1.3-1.6-1.3c-0.3,0-0.6,0.1-0.9,0.4c-0.5,0.5-0.9,0.6-1.3,0.7c-0.3,0.1-0.7,0.2-1.1,0.5c-0.6,0.5-0.6,0.9-0.6,1.2
				c0,0.1,0,0.1,0,0.2c0,0,0,0,0,0c0,0-0.1,0.1-0.1,0.1c0-0.1,0-0.3-0.1-0.5c-0.5-1.4-3-2.3-4.4-2.3c-0.3,0-0.6,0-0.8,0.1
				c-0.7,0.3-1,0.6-1.3,0.9C9.6,8.1,9.5,8.3,9.2,8.4C9.1,8.4,8.9,8.5,8.7,8.5C8,8.7,7.2,8.9,6.9,9.5c-0.2,0.3-0.2,0.7,0,1.1
				c0.2,0.7,0.2,1,0.2,1.4c0,0.4,0,0.7,0.1,1.2c0.2,0.7,0.7,0.9,0.9,1c0.1,0,0.1,0.1,0.1,0.1c0,0,0,0,0,0.1c0,0.2-0.1,0.4-0.1,0.4
				c-0.1,0-0.3-0.1-0.5-0.1c0,0,0,0-0.1,0c-1.6,0-3.7,2.7-3.7,4.2c0,0.8,0.3,1.2,0.5,1.5c0.1,0.2,0.2,0.4,0.2,0.7c0,0.2,0,0.4,0,0.6
				c-0.1,0.7-0.1,1.4,0.3,1.9c0.2,0.3,0.6,0.4,1,0.4c0.7,0,1.1,0.1,1.4,0.3c0.3,0.1,0.7,0.3,1.2,0.3c0,0,0,0,0,0
				c0.7,0,1.1-0.4,1.2-0.6c0,0,0.1-0.1,0.1-0.1c0,0,0,0,0.1,0c0.3,0,0.3,0.2,0.3,0.2c0,0,0,0.1,0,0.1c-0.1,0.1-0.1,0.2-0.2,0.4
				c-0.5,1.5,1.4,4.4,2.9,4.8c0.1,0,0.1,0,0.2,0.1c0,0,0,0,0,0c0.1,0,0.1,0,0.2,0c0,0,0,0,0,0c0.1,0,0.1,0,0.2,0c0.1,0,0.1,0,0.2,0
				c0.2,0,0.4,0,0.6-0.1c0.1,0,0.1,0,0.2,0c0,0,0.1,0,0.1,0c0,0,0,0,0,0c0,0,0,0,0.1,0c0,0,0,0,0,0c0,0,0,0,0,0c0,0,0,0,0,0
				c0,0,0,0,0,0c0,0,0,0,0.1,0c0,0,0,0,0,0c0,0,0,0,0.1,0c0,0,0,0,0,0c0,0,0,0,0.1,0c0,0,0,0,0,0c0,0,0.1,0,0.1,0h0
				c0.2,0,0.4,0.1,0.6,0.2c0.5,0.2,0.9,0.4,1.4,0.4c0.6,0,1-0.3,1.2-0.9c0.2-0.7,0.4-1,0.7-1.3c0.2-0.3,0.5-0.6,0.6-1
				c0.2-0.7,0-1.1-0.2-1.4c0,0-0.1-0.1-0.1-0.1c0,0,0,0,0,0c0.1-0.2,0.2-0.2,0.3-0.2c0,0,0,0,0,0c0.1,0,0.3,0,0.4-0.1
				c0,0,0.1-0.1,0.1-0.1c0.1,0.1,0.2,0.2,0.3,0.3c0.3,0.2,0.8,0.3,1.3,0.3c1.4,0,3.5-0.8,4.1-1.8c0.4-0.7,0.4-1.1,0.5-1.5
				c0-0.3,0-0.4,0.2-0.7c0.1-0.1,0.2-0.3,0.4-0.5C27.6,20.3,28.1,19.7,28,19.1z M22.1,24.3c-0.3,0-0.6-0.1-0.8-0.2
				c-0.2-0.1-0.2-0.2-0.3-0.3c-0.1-0.1-0.2-0.3-0.3-0.4l0.2-1.2c0-0.2,0-0.3-0.1-0.4l-2.2-2.1c1,0.3,1.9,0.3,2.6,0.3
				c0.8,0,1.3-0.1,1.4-0.1c0.3,0,0.4-0.3,0.4-0.6c0-0.3-0.3-0.4-0.6-0.4c0,0-0.7,0.1-1.7,0.1c-0.9,0-2-0.2-3.1-0.7
				c-0.2-0.1-0.4-0.2-0.6-0.3c0.2,0,0.3,0,0.4,0c0.3,0,0.5,0,0.8,0c0.3,0,0.6,0,0.9,0c0.9,0,2-0.1,2.7-0.7c0.6-0.5,0.9-0.9,1-1.1
				c0.1,0.2,0.2,0.4,0.4,0.6c0.2,0.2,0.4,0.3,0.7,0.3c0.2,0,0.3,0,0.4-0.1c0.1,0,0.2,0,0.2,0c0.1,0,0.2,0,0.3,0.1
				c0.3,0.2,0.4,0.4,0.6,0.6c0.2,0.4,0.6,0.8,1.3,1.3c0.1,0,0.2,0.1,0.2,0.2c0,0.2-0.3,0.7-0.6,1c-0.2,0.2-0.3,0.4-0.4,0.6
				c-0.3,0.5-0.3,0.8-0.3,1.2c0,0.3,0,0.6-0.3,1C25,23.6,23.3,24.3,22.1,24.3z M17.3,29c-0.3,0-0.7-0.2-1-0.3
				c-0.2-0.1-0.5-0.2-0.7-0.3c0,0-0.1,0-0.1,0c0,0,0,0,0,0c0,0,0,0,0,0c0,0-0.1,0-0.1,0c0,0,0,0,0,0c0,0-0.1,0-0.1,0c0,0,0,0,0,0
				c0,0-0.1,0-0.1,0c0,0,0,0,0,0c0,0,0,0,0,0c-0.1,0-0.2,0-0.2,0c0,0,0,0,0,0c0,0-0.1,0-0.1,0c0,0,0,0,0,0c0,0-0.1,0-0.1,0
				c0,0,0,0,0,0c0,0-0.1,0-0.1,0c0,0-0.1,0-0.1,0c0,0,0,0-0.1,0c0,0,0,0-0.1,0c0,0-0.1,0-0.1,0c0,0,0,0,0,0c0,0-0.1,0-0.1,0
				c0,0,0,0-0.1,0c0,0-0.1,0-0.1,0c0,0,0,0,0,0c0,0-0.1,0-0.1,0c0,0,0,0-0.1,0c0,0-0.1,0-0.1,0c0,0,0,0-0.1,0c-0.1,0-0.1,0-0.2,0
				c-0.9-0.3-2.5-2.6-2.2-3.6c0,0,0-0.1,0-0.1c0-0.1,0.1-0.1,0.2-0.2c0.1-0.1,0.1-0.1,0.2-0.2c0.1-0.1,0.2-0.3,0.2-0.5
				c0,0,0,0,0-0.1c0,0,0,0,0-0.1c0-0.1,0-0.1,0-0.2c0,0,0-0.1,0-0.1c0-0.1,0-0.1,0-0.1c0-0.1,0-0.1,0-0.2c0,0,0-0.1,0-0.2
				c0,0,0-0.1,0-0.1c0,0,0,0,0-0.1c0-0.1,0-0.1,0-0.2c0-0.2,0.1-0.4,0.2-0.7c0.2-0.8,1.3-1.4,2.3-2c0,0,0.1,0,0.1-0.1
				c0,0,0.1,0,0.1-0.1c0,0,0.1,0,0.1,0c0.1,0,0.1-0.1,0.2-0.1c0,0,0,0,0.1,0c0,0,0,0,0,0c-0.1,0.3-0.1,0.5-0.1,0.8
				c-0.1,0.5-0.1,0.9-0.1,1.3c0,1.9,0.6,3.2,0.6,3.3c0.1,0.2,0.2,0.3,0.4,0.3c0,0,0,0,0,0c0.1,0,0.1,0,0.2,0
				c0.3-0.1,0.4-0.4,0.3-0.6c0,0-0.3-0.7-0.4-1.7c0,0,0,0,0-0.1c-0.1-0.8-0.2-1.9,0.1-3c0,0,0,0,0,0c0.1-0.2,0.1-0.5,0.2-0.7
				c0-0.1,0-0.1,0.1-0.2l0.6,0.5l0.7,0.7l2.5,2.4l-0.1,0.7l-0.1,0.5L19.6,24c-0.1,0-0.1,0-0.2,0.1c-0.3,0.1-0.5,0.4-0.7,0.7
				c-0.3,0.5,0,0.9,0.1,1.1c0.1,0.2,0.2,0.3,0.1,0.6c-0.1,0.3-0.2,0.5-0.4,0.7c-0.3,0.3-0.6,0.7-0.9,1.6C17.5,29,17.4,29,17.3,29z
				 M7.8,10.2c0-0.1-0.1-0.2,0-0.2c0.1-0.2,0.7-0.3,1.1-0.4c0.2-0.1,0.5-0.1,0.7-0.2c0.5-0.2,0.8-0.5,1-0.7c0.2-0.2,0.4-0.4,0.9-0.6
				c0.1,0,0.2-0.1,0.5-0.1c1.3,0,3.2,0.9,3.4,1.6c0,0.1,0.1,0.2,0.1,0.2c0,0.1,0,0.1,0,0.2c0,0.1,0,0.3,0,0.6c0,0.1,0,0.1,0.1,0.2
				c0,0.1,0.1,0.2,0.2,0.3c0.1,0.1,0.2,0.2,0.3,0.3c0.1,0.1,0.3,0.2,0.6,1.2c0.3,0.8-0.2,1.9-0.6,2.9c0,0.1-0.1,0.2-0.1,0.3
				c0,0.1-0.1,0.2-0.1,0.3c-0.2-0.4-0.4-0.8-0.6-1.1c-0.2-0.4-0.5-0.7-0.8-1c-1-1.2-1.9-1.8-2-1.8c-0.2-0.1-0.5-0.1-0.7,0.2
				c-0.1,0.2-0.1,0.5,0.2,0.7c0,0,0.6,0.4,1.3,1.1c0.6,0.6,1.3,1.5,1.8,2.6c0.1,0.1,0.1,0.3,0.2,0.5c-0.3-0.2-0.6-0.5-0.9-0.8
				c-0.9-0.8-2-1.8-3.2-1.8c0,0,0,0-0.1,0c-0.8,0-1.3,0.1-1.5,0.2c0-0.2,0-0.4,0-0.6c-0.1-0.6-0.5-0.7-0.7-0.8
				c-0.2-0.1-0.3-0.1-0.4-0.4c-0.1-0.3-0.1-0.5-0.1-0.8C8.1,11.6,8.2,11,7.8,10.2z M17.6,9.5c0-0.2,0-0.3,0.2-0.5
				c0.3-0.2,0.5-0.3,0.8-0.4c0.4-0.1,0.9-0.3,1.6-0.9c0.1-0.1,0.2-0.1,0.2-0.1c0.2,0,0.6,0.5,0.8,0.9c0.1,0.2,0.3,0.4,0.4,0.6
				c0.4,0.4,0.7,0.5,1,0.7c0.3,0.1,0.6,0.2,0.9,0.6c0.6,0.7,0.7,3.5-0.1,4.2c-0.2,0.1-0.2,0.2-0.4,0.2c-0.1,0-0.2,0.1-0.4,0.1
				c-0.1,0-0.2,0.1-0.3,0.2c0,0-0.1,0.1-0.1,0.1c-0.1,0.2-0.2,0.3-0.3,0.4c0,0,0,0.1,0,0.1c0,0.1-0.1,0.3-0.9,1
				c-0.5,0.4-1.4,0.5-2.1,0.5c-0.3,0-0.6,0-0.9,0c0,0,0,0,0,0c-0.2,0-0.3,0-0.5,0c0.2-0.2,0.3-0.4,0.5-0.6c0.3-0.3,0.5-0.7,0.7-1
				c0.9-1.6,1.2-2.9,1.2-3c0-0.3-0.1-0.5-0.4-0.6c-0.3,0-0.5,0.1-0.6,0.4c0,0-0.1,0.7-0.5,1.6c-0.3,0.8-0.9,1.8-1.8,2.6
				c-0.1,0.1-0.3,0.3-0.4,0.4c0.1-0.4,0.3-0.8,0.4-1.1c0.5-1.2,1.1-2.5,0.6-3.7c-0.3-0.9-0.6-1.2-0.8-1.5c0.1,0,0.3-0.1,0.4-0.2
				C17.5,10.1,17.6,9.7,17.6,9.5z M8.6,23.5c-0.3,0-0.5-0.1-0.8-0.2c-0.4-0.1-0.8-0.3-1.7-0.3c0,0-0.1,0-0.1,0l0,0
				c-0.1,0-0.2,0-0.2-0.1c-0.1-0.2-0.1-0.8-0.1-1.2c0-0.2,0-0.5,0-0.7c0-0.6-0.2-0.9-0.4-1.2c-0.2-0.3-0.3-0.5-0.3-1
				c0-1,1.7-3.2,2.7-3.2l0,0c0.2,0,0.2,0,0.4,0.1c0,0,0.1,0,0.1,0.1c0.1,0.1,0.3,0.1,0.6,0.1c0,0,0,0,0,0c0.2,0,0.4,0,0.5-0.1
				c0.1,0,0.1-0.1,0.2-0.1c0.1-0.1,0.3-0.2,1.3-0.2l0,0c0.8,0,1.7,0.8,2.6,1.5c0,0,0.1,0.1,0.1,0.1c0,0,0.1,0.1,0.1,0.1
				c-0.7,0-1.3,0.1-1.9,0.2c-0.5,0.1-0.9,0.2-1.3,0.3c-1,0.3-1.6,0.7-1.7,0.7c-0.2,0.1-0.3,0.5-0.2,0.7c0.1,0.2,0.3,0.2,0.4,0.2
				c0.1,0,0.2,0,0.3-0.1c0,0,0.6-0.4,1.6-0.7c0.8-0.3,1.9-0.5,3.1-0.4c0.2,0,0.5,0,0.7,0.1c0,0-0.1,0-0.1,0.1c0,0-0.1,0.1-0.1,0.1
				c-0.1,0.1-0.2,0.1-0.2,0.2c-0.2,0.1-0.4,0.3-0.7,0.4c-1.1,0.7-2.4,1.4-2.7,2.5c-0.2,0.8-0.3,1.2-0.3,1.5
				c-0.2-0.1-0.4-0.2-0.6-0.2c-0.1,0-0.1,0-0.2,0c-0.5,0-0.7,0.3-0.9,0.4C9,23.4,8.9,23.5,8.6,23.5l0,0.5L8.6,23.5z"/>
			<circle id="XMLID_1000_" fill="#3A444F" cx="19.8" cy="10.9" r="0.5"/>
			<circle id="XMLID_999_" fill="#3A444F" cx="10.8" cy="11.7" r="0.5"/>
			<circle id="XMLID_998_" fill="#3A444F" cx="8" cy="19.6" r="0.5"/>
			<circle id="XMLID_997_" fill="#3A444F" cx="16.3" cy="25.9" r="0.5"/>
			<circle id="XMLID_996_" fill="#3A444F" cx="23.8" cy="19.4" r="0.5"/>
		</g>
		<g id="XMLID_1365_">
			<path id="XMLID_1371_" fill="#67737C" d="M28,59.1c-0.1-0.3-0.3-0.6-0.6-0.9c-0.6-0.4-0.8-0.7-1-1c-0.2-0.3-0.4-0.6-0.8-0.9
				c-0.3-0.2-0.6-0.3-0.9-0.3c-0.2,0-0.4,0-0.5,0.1c-0.1,0-0.1,0-0.2,0c0,0,0,0,0,0c-0.2-0.2-0.2-0.3-0.1-0.4c0-0.1,0.1-0.2,0-0.3
				c0.1-0.1,0.2-0.1,0.3-0.2c1.2-1,1.2-4.5,0.2-5.6c-0.5-0.6-1-0.7-1.3-0.9c-0.3-0.1-0.4-0.2-0.6-0.4c-0.1-0.1-0.2-0.3-0.4-0.5
				c-0.4-0.6-0.9-1.3-1.6-1.3c-0.3,0-0.6,0.1-0.9,0.4c-0.5,0.5-0.9,0.6-1.3,0.7c-0.3,0.1-0.7,0.2-1.1,0.5c-0.6,0.5-0.6,0.9-0.6,1.2
				c0,0.1,0,0.1,0,0.2c0,0,0,0,0,0c0,0-0.1,0.1-0.1,0.1c0-0.1,0-0.3-0.1-0.5c-0.5-1.4-3-2.3-4.4-2.3c-0.3,0-0.6,0-0.8,0.1
				c-0.7,0.3-1,0.6-1.3,0.9c-0.2,0.2-0.3,0.3-0.6,0.4c-0.2,0.1-0.4,0.1-0.6,0.2c-0.7,0.2-1.4,0.4-1.7,0.9c-0.2,0.3-0.2,0.7,0,1.1
				c0.2,0.7,0.2,1,0.2,1.4c0,0.4,0,0.7,0.1,1.2c0.2,0.7,0.7,0.9,0.9,1c0.1,0,0.1,0.1,0.1,0.1c0,0,0,0,0,0.1c0,0.2-0.1,0.4-0.1,0.4
				c-0.1,0-0.3-0.1-0.5-0.1c0,0,0,0-0.1,0c-1.6,0-3.7,2.7-3.7,4.2c0,0.8,0.3,1.2,0.5,1.5c0.1,0.2,0.2,0.4,0.2,0.7c0,0.2,0,0.4,0,0.6
				c-0.1,0.7-0.1,1.4,0.3,1.9c0.2,0.3,0.6,0.4,1,0.4c0.7,0,1.1,0.1,1.4,0.3c0.3,0.1,0.7,0.3,1.2,0.3c0,0,0,0,0,0
				c0.7,0,1.1-0.4,1.2-0.6c0,0,0.1-0.1,0.1-0.1c0,0,0,0,0.1,0c0.3,0,0.3,0.2,0.3,0.2c0,0,0,0.1,0,0.1c-0.1,0.1-0.1,0.2-0.2,0.4
				c-0.5,1.5,1.4,4.4,2.9,4.8c0.1,0,0.1,0,0.2,0.1c0,0,0,0,0,0c0.1,0,0.1,0,0.2,0c0,0,0,0,0,0c0.1,0,0.1,0,0.2,0c0.1,0,0.1,0,0.2,0
				c0.2,0,0.4,0,0.6-0.1c0.1,0,0.1,0,0.2,0c0,0,0.1,0,0.1,0c0,0,0,0,0,0c0,0,0,0,0.1,0c0,0,0,0,0,0c0,0,0,0,0,0c0,0,0,0,0,0
				c0,0,0,0,0,0c0,0,0,0,0.1,0c0,0,0,0,0,0c0,0,0,0,0.1,0c0,0,0,0,0,0c0,0,0,0,0.1,0c0,0,0,0,0,0c0,0,0.1,0,0.1,0h0
				c0.2,0,0.4,0.1,0.6,0.2c0.5,0.2,0.9,0.4,1.4,0.4c0.6,0,1-0.3,1.2-0.9c0.2-0.7,0.4-1,0.7-1.3c0.2-0.3,0.5-0.6,0.6-1
				c0.2-0.7,0-1.1-0.2-1.4c0,0-0.1-0.1-0.1-0.1c0,0,0,0,0,0c0.1-0.2,0.2-0.2,0.3-0.2c0,0,0,0,0,0c0.1,0,0.3,0,0.4-0.1
				c0,0,0.1-0.1,0.1-0.1c0.1,0.1,0.2,0.2,0.3,0.3c0.3,0.2,0.8,0.3,1.3,0.3c1.4,0,3.5-0.8,4.1-1.8c0.4-0.7,0.4-1.1,0.5-1.5
				c0-0.3,0-0.4,0.2-0.7c0.1-0.1,0.2-0.3,0.4-0.5C27.6,60.3,28.1,59.7,28,59.1z M22.1,64.3c-0.3,0-0.6-0.1-0.8-0.2
				c-0.2-0.1-0.2-0.2-0.3-0.3c-0.1-0.1-0.2-0.3-0.3-0.4l0.2-1.2c0-0.2,0-0.3-0.1-0.4l-2.2-2.1c1,0.3,1.9,0.3,2.6,0.3
				c0.8,0,1.3-0.1,1.4-0.1c0.3,0,0.4-0.3,0.4-0.6c0-0.3-0.3-0.4-0.6-0.4c0,0-0.7,0.1-1.7,0.1c-0.9,0-2-0.2-3.1-0.7
				c-0.2-0.1-0.4-0.2-0.6-0.3c0.2,0,0.3,0,0.4,0c0.3,0,0.5,0,0.8,0c0.3,0,0.6,0,0.9,0c0.9,0,2-0.1,2.7-0.7c0.6-0.5,0.9-0.9,1-1.1
				c0.1,0.2,0.2,0.4,0.4,0.6c0.2,0.2,0.4,0.3,0.7,0.3c0.2,0,0.3,0,0.4-0.1c0.1,0,0.2,0,0.2,0c0.1,0,0.2,0,0.3,0.1
				c0.3,0.2,0.4,0.4,0.6,0.6c0.2,0.4,0.6,0.8,1.3,1.3c0.1,0,0.2,0.1,0.2,0.2c0,0.2-0.3,0.7-0.6,1c-0.2,0.2-0.3,0.4-0.4,0.6
				c-0.3,0.5-0.3,0.8-0.3,1.2c0,0.3,0,0.6-0.3,1C25,63.6,23.3,64.3,22.1,64.3z M17.3,69c-0.3,0-0.7-0.2-1-0.3
				c-0.2-0.1-0.5-0.2-0.7-0.3c0,0-0.1,0-0.1,0c0,0,0,0,0,0c0,0,0,0,0,0c0,0-0.1,0-0.1,0c0,0,0,0,0,0c0,0-0.1,0-0.1,0c0,0,0,0,0,0
				c0,0-0.1,0-0.1,0c0,0,0,0,0,0c0,0,0,0,0,0c-0.1,0-0.2,0-0.2,0c0,0,0,0,0,0c0,0-0.1,0-0.1,0c0,0,0,0,0,0c0,0-0.1,0-0.1,0
				c0,0,0,0,0,0c0,0-0.1,0-0.1,0c0,0-0.1,0-0.1,0c0,0,0,0-0.1,0c0,0,0,0-0.1,0c0,0-0.1,0-0.1,0c0,0,0,0,0,0c0,0-0.1,0-0.1,0
				c0,0,0,0-0.1,0c0,0-0.1,0-0.1,0c0,0,0,0,0,0c0,0-0.1,0-0.1,0c0,0,0,0-0.1,0c0,0-0.1,0-0.1,0c0,0,0,0-0.1,0c-0.1,0-0.1,0-0.2,0
				c-0.9-0.3-2.5-2.6-2.2-3.6c0,0,0-0.1,0-0.1c0-0.1,0.1-0.1,0.2-0.2c0.1-0.1,0.1-0.1,0.2-0.2c0.1-0.1,0.2-0.3,0.2-0.5
				c0,0,0,0,0-0.1c0,0,0,0,0-0.1c0-0.1,0-0.1,0-0.2c0,0,0-0.1,0-0.1c0-0.1,0-0.1,0-0.1c0-0.1,0-0.1,0-0.2c0,0,0-0.1,0-0.2
				c0,0,0-0.1,0-0.1c0,0,0,0,0-0.1c0-0.1,0-0.1,0-0.2c0-0.2,0.1-0.4,0.2-0.7c0.2-0.8,1.3-1.4,2.3-2c0,0,0.1,0,0.1-0.1
				c0,0,0.1,0,0.1-0.1c0,0,0.1,0,0.1,0c0.1,0,0.1-0.1,0.2-0.1c0,0,0,0,0.1,0c0,0,0,0,0,0c-0.1,0.3-0.1,0.5-0.1,0.8
				c-0.1,0.5-0.1,0.9-0.1,1.3c0,1.9,0.6,3.2,0.6,3.3c0.1,0.2,0.2,0.3,0.4,0.3c0,0,0,0,0,0c0.1,0,0.1,0,0.2,0
				c0.3-0.1,0.4-0.4,0.3-0.6c0,0-0.3-0.7-0.4-1.7c0,0,0,0,0-0.1c-0.1-0.8-0.2-1.9,0.1-3c0,0,0,0,0,0c0.1-0.2,0.1-0.5,0.2-0.7
				c0-0.1,0-0.1,0.1-0.2l0.6,0.5l0.7,0.7l2.5,2.4l-0.1,0.7l-0.1,0.5L19.6,64c-0.1,0-0.1,0-0.2,0.1c-0.3,0.1-0.5,0.4-0.7,0.7
				c-0.3,0.5,0,0.9,0.1,1.1c0.1,0.2,0.2,0.3,0.1,0.6c-0.1,0.3-0.2,0.5-0.4,0.7c-0.3,0.3-0.6,0.7-0.9,1.6C17.5,69,17.4,69,17.3,69z
				 M7.8,50.2c0-0.1-0.1-0.2,0-0.2c0.1-0.2,0.7-0.3,1.1-0.4c0.2-0.1,0.5-0.1,0.7-0.2c0.5-0.2,0.8-0.5,1-0.7c0.2-0.2,0.4-0.4,0.9-0.6
				c0.1,0,0.2-0.1,0.5-0.1c1.3,0,3.2,0.9,3.4,1.6c0,0.1,0.1,0.2,0.1,0.2c0,0.1,0,0.1,0,0.2c0,0.1,0,0.3,0,0.6c0,0.1,0,0.1,0.1,0.2
				c0,0.1,0.1,0.2,0.2,0.3c0.1,0.1,0.2,0.2,0.3,0.3c0.1,0.1,0.3,0.2,0.6,1.2c0.3,0.8-0.2,1.9-0.6,2.9c0,0.1-0.1,0.2-0.1,0.3
				c0,0.1-0.1,0.2-0.1,0.3c-0.2-0.4-0.4-0.8-0.6-1.1c-0.2-0.4-0.5-0.7-0.8-1c-1-1.2-1.9-1.8-2-1.8c-0.2-0.1-0.5-0.1-0.7,0.2
				c-0.1,0.2-0.1,0.5,0.2,0.7c0,0,0.6,0.4,1.3,1.1c0.6,0.6,1.3,1.5,1.8,2.6c0.1,0.1,0.1,0.3,0.2,0.5c-0.3-0.2-0.6-0.5-0.9-0.8
				c-0.9-0.8-2-1.8-3.2-1.8c0,0,0,0-0.1,0c-0.8,0-1.3,0.1-1.5,0.2c0-0.2,0-0.4,0-0.6c-0.1-0.6-0.5-0.7-0.7-0.8
				c-0.2-0.1-0.3-0.1-0.4-0.4c-0.1-0.3-0.1-0.5-0.1-0.8C8.1,51.6,8.2,51,7.8,50.2z M17.6,49.5c0-0.2,0-0.3,0.2-0.5
				c0.3-0.2,0.5-0.3,0.8-0.4c0.4-0.1,0.9-0.3,1.6-0.9c0.1-0.1,0.2-0.1,0.2-0.1c0.2,0,0.6,0.5,0.8,0.9c0.1,0.2,0.3,0.4,0.4,0.6
				c0.4,0.4,0.7,0.5,1,0.7c0.3,0.1,0.6,0.2,0.9,0.6c0.6,0.7,0.7,3.5-0.1,4.2c-0.2,0.1-0.2,0.2-0.4,0.2c-0.1,0-0.2,0.1-0.4,0.1
				c-0.1,0-0.2,0.1-0.3,0.2c0,0-0.1,0.1-0.1,0.1c-0.1,0.2-0.2,0.3-0.3,0.4c0,0,0,0.1,0,0.1c0,0.1-0.1,0.3-0.9,1
				c-0.5,0.4-1.4,0.5-2.1,0.5c-0.3,0-0.6,0-0.9,0c0,0,0,0,0,0c-0.2,0-0.3,0-0.5,0c0.2-0.2,0.3-0.4,0.5-0.6c0.3-0.3,0.5-0.7,0.7-1
				c0.9-1.6,1.2-2.9,1.2-3c0-0.3-0.1-0.5-0.4-0.6c-0.3,0-0.5,0.1-0.6,0.4c0,0-0.1,0.7-0.5,1.6c-0.3,0.8-0.9,1.8-1.8,2.6
				c-0.1,0.1-0.3,0.3-0.4,0.4c0.1-0.4,0.3-0.8,0.4-1.1c0.5-1.2,1.1-2.5,0.6-3.7c-0.3-0.9-0.6-1.2-0.8-1.5c0.1,0,0.3-0.1,0.4-0.2
				C17.5,50.1,17.6,49.7,17.6,49.5z M8.6,63.5c-0.3,0-0.5-0.1-0.8-0.2c-0.4-0.1-0.8-0.3-1.7-0.3c0,0-0.1,0-0.1,0l0,0
				c-0.1,0-0.2,0-0.2-0.1c-0.1-0.2-0.1-0.8-0.1-1.2c0-0.2,0-0.5,0-0.7c0-0.6-0.2-0.9-0.4-1.2c-0.2-0.3-0.3-0.5-0.3-1
				c0-1,1.7-3.2,2.7-3.2l0,0c0.2,0,0.2,0,0.4,0.1c0,0,0.1,0,0.1,0.1c0.1,0.1,0.3,0.1,0.6,0.1c0,0,0,0,0,0c0.2,0,0.4,0,0.5-0.1
				c0.1,0,0.1-0.1,0.2-0.1c0.1-0.1,0.3-0.2,1.3-0.2l0,0c0.8,0,1.7,0.8,2.6,1.5c0,0,0.1,0.1,0.1,0.1c0,0,0.1,0.1,0.1,0.1
				c-0.7,0-1.3,0.1-1.9,0.2c-0.5,0.1-0.9,0.2-1.3,0.3c-1,0.3-1.6,0.7-1.7,0.7c-0.2,0.1-0.3,0.5-0.2,0.7c0.1,0.2,0.3,0.2,0.4,0.2
				c0.1,0,0.2,0,0.3-0.1c0,0,0.6-0.4,1.6-0.7c0.8-0.3,1.9-0.5,3.1-0.4c0.2,0,0.5,0,0.7,0.1c0,0-0.1,0-0.1,0.1c0,0-0.1,0.1-0.1,0.1
				c-0.1,0.1-0.2,0.1-0.2,0.2c-0.2,0.1-0.4,0.3-0.7,0.4c-1.1,0.7-2.4,1.4-2.7,2.5c-0.2,0.8-0.3,1.2-0.3,1.5
				c-0.2-0.1-0.4-0.2-0.6-0.2c-0.1,0-0.1,0-0.2,0c-0.5,0-0.7,0.3-0.9,0.4C9,63.4,8.9,63.5,8.6,63.5l0,0.5L8.6,63.5z"/>
			<circle id="XMLID_1370_" fill="#67737C" cx="19.8" cy="50.9" r="0.5"/>
			<circle id="XMLID_1369_" fill="#67737C" cx="10.8" cy="51.7" r="0.5"/>
			<circle id="XMLID_1368_" fill="#67737C" cx="8" cy="59.6" r="0.5"/>
			<circle id="XMLID_1367_" fill="#67737C" cx="16.3" cy="65.9" r="0.5"/>
			<circle id="XMLID_1366_" fill="#67737C" cx="23.8" cy="59.4" r="0.5"/>
		</g>
		<g id="XMLID_1559_">
			<path id="XMLID_1565_" fill="#FFFFFF" d="M28,99.1c-0.1-0.3-0.3-0.6-0.6-0.9c-0.6-0.4-0.8-0.7-1-1c-0.2-0.3-0.4-0.6-0.8-0.9
				c-0.3-0.2-0.6-0.3-0.9-0.3c-0.2,0-0.4,0-0.5,0.1c-0.1,0-0.1,0-0.2,0c0,0,0,0,0,0c-0.2-0.2-0.2-0.3-0.1-0.4c0-0.1,0.1-0.2,0-0.3
				c0.1-0.1,0.2-0.1,0.3-0.2c1.2-1,1.2-4.5,0.2-5.6c-0.5-0.6-1-0.7-1.3-0.9c-0.3-0.1-0.4-0.2-0.6-0.4c-0.1-0.1-0.2-0.3-0.4-0.5
				c-0.4-0.6-0.9-1.3-1.6-1.3c-0.3,0-0.6,0.1-0.9,0.4c-0.5,0.5-0.9,0.6-1.3,0.7c-0.3,0.1-0.7,0.2-1.1,0.5c-0.6,0.5-0.6,0.9-0.6,1.2
				c0,0.1,0,0.1,0,0.2c0,0,0,0,0,0c0,0-0.1,0.1-0.1,0.1c0-0.1,0-0.3-0.1-0.5c-0.5-1.4-3-2.3-4.4-2.3c-0.3,0-0.6,0-0.8,0.1
				c-0.7,0.3-1,0.6-1.3,0.9c-0.2,0.2-0.3,0.3-0.6,0.4c-0.2,0.1-0.4,0.1-0.6,0.2c-0.7,0.2-1.4,0.4-1.7,0.9c-0.2,0.3-0.2,0.7,0,1.1
				c0.2,0.7,0.2,1,0.2,1.4c0,0.4,0,0.7,0.1,1.2c0.2,0.7,0.7,0.9,0.9,1c0.1,0,0.1,0.1,0.1,0.1c0,0,0,0,0,0.1c0,0.2-0.1,0.4-0.1,0.4
				c-0.1,0-0.3-0.1-0.5-0.1c0,0,0,0-0.1,0c-1.6,0-3.7,2.7-3.7,4.2c0,0.8,0.3,1.2,0.5,1.5c0.1,0.2,0.2,0.4,0.2,0.7c0,0.2,0,0.4,0,0.6
				c-0.1,0.7-0.1,1.4,0.3,1.9c0.2,0.3,0.6,0.4,1,0.4c0.7,0,1.1,0.1,1.4,0.3c0.3,0.1,0.7,0.3,1.2,0.3c0,0,0,0,0,0
				c0.7,0,1.1-0.4,1.2-0.6c0,0,0.1-0.1,0.1-0.1c0,0,0,0,0.1,0c0.3,0,0.3,0.2,0.3,0.2c0,0,0,0.1,0,0.1c-0.1,0.1-0.1,0.2-0.2,0.4
				c-0.5,1.5,1.4,4.4,2.9,4.8c0.1,0,0.1,0,0.2,0.1c0,0,0,0,0,0c0.1,0,0.1,0,0.2,0c0,0,0,0,0,0c0.1,0,0.1,0,0.2,0c0.1,0,0.1,0,0.2,0
				c0.2,0,0.4,0,0.6-0.1c0.1,0,0.1,0,0.2,0c0,0,0.1,0,0.1,0c0,0,0,0,0,0c0,0,0,0,0.1,0c0,0,0,0,0,0c0,0,0,0,0,0c0,0,0,0,0,0
				c0,0,0,0,0,0c0,0,0,0,0.1,0c0,0,0,0,0,0c0,0,0,0,0.1,0c0,0,0,0,0,0c0,0,0,0,0.1,0c0,0,0,0,0,0c0,0,0.1,0,0.1,0h0
				c0.2,0,0.4,0.1,0.6,0.2c0.5,0.2,0.9,0.4,1.4,0.4c0.6,0,1-0.3,1.2-0.9c0.2-0.7,0.4-1,0.7-1.3c0.2-0.3,0.5-0.6,0.6-1
				c0.2-0.7,0-1.1-0.2-1.4c0,0-0.1-0.1-0.1-0.1c0,0,0,0,0,0c0.1-0.2,0.2-0.2,0.3-0.2c0,0,0,0,0,0c0.1,0,0.3,0,0.4-0.1
				c0,0,0.1-0.1,0.1-0.1c0.1,0.1,0.2,0.2,0.3,0.3c0.3,0.2,0.8,0.3,1.3,0.3c1.4,0,3.5-0.8,4.1-1.8c0.4-0.7,0.4-1.1,0.5-1.5
				c0-0.3,0-0.4,0.2-0.7c0.1-0.1,0.2-0.3,0.4-0.5C27.6,100.3,28.1,99.7,28,99.1z M22.1,104.3c-0.3,0-0.6-0.1-0.8-0.2
				c-0.2-0.1-0.2-0.2-0.3-0.3c-0.1-0.1-0.2-0.3-0.3-0.4l0.2-1.2c0-0.2,0-0.3-0.1-0.4l-2.2-2.1c1,0.3,1.9,0.3,2.6,0.3
				c0.8,0,1.3-0.1,1.4-0.1c0.3,0,0.4-0.3,0.4-0.6c0-0.3-0.3-0.4-0.6-0.4c0,0-0.7,0.1-1.7,0.1c-0.9,0-2-0.2-3.1-0.7
				c-0.2-0.1-0.4-0.2-0.6-0.3c0.2,0,0.3,0,0.4,0c0.3,0,0.5,0,0.8,0c0.3,0,0.6,0,0.9,0c0.9,0,2-0.1,2.7-0.7c0.6-0.5,0.9-0.9,1-1.1
				c0.1,0.2,0.2,0.4,0.4,0.6c0.2,0.2,0.4,0.3,0.7,0.3c0.2,0,0.3,0,0.4-0.1c0.1,0,0.2,0,0.2,0c0.1,0,0.2,0,0.3,0.1
				c0.3,0.2,0.4,0.4,0.6,0.6c0.2,0.4,0.6,0.8,1.3,1.3c0.1,0,0.2,0.1,0.2,0.2c0,0.2-0.3,0.7-0.6,1c-0.2,0.2-0.3,0.4-0.4,0.6
				c-0.3,0.5-0.3,0.8-0.3,1.2c0,0.3,0,0.6-0.3,1C25,103.6,23.3,104.3,22.1,104.3z M17.3,109c-0.3,0-0.7-0.2-1-0.3
				c-0.2-0.1-0.5-0.2-0.7-0.3c0,0-0.1,0-0.1,0c0,0,0,0,0,0c0,0,0,0,0,0c0,0-0.1,0-0.1,0c0,0,0,0,0,0c0,0-0.1,0-0.1,0c0,0,0,0,0,0
				c0,0-0.1,0-0.1,0c0,0,0,0,0,0c0,0,0,0,0,0c-0.1,0-0.2,0-0.2,0c0,0,0,0,0,0c0,0-0.1,0-0.1,0c0,0,0,0,0,0c0,0-0.1,0-0.1,0
				c0,0,0,0,0,0c0,0-0.1,0-0.1,0c0,0-0.1,0-0.1,0c0,0,0,0-0.1,0c0,0,0,0-0.1,0c0,0-0.1,0-0.1,0c0,0,0,0,0,0c0,0-0.1,0-0.1,0
				c0,0,0,0-0.1,0c0,0-0.1,0-0.1,0c0,0,0,0,0,0c0,0-0.1,0-0.1,0c0,0,0,0-0.1,0c0,0-0.1,0-0.1,0c0,0,0,0-0.1,0c-0.1,0-0.1,0-0.2,0
				c-0.9-0.3-2.5-2.6-2.2-3.6c0,0,0-0.1,0-0.1c0-0.1,0.1-0.1,0.2-0.2c0.1-0.1,0.1-0.1,0.2-0.2c0.1-0.1,0.2-0.3,0.2-0.5
				c0,0,0,0,0-0.1c0,0,0,0,0-0.1c0-0.1,0-0.1,0-0.2c0,0,0-0.1,0-0.1c0-0.1,0-0.1,0-0.1c0-0.1,0-0.1,0-0.2c0,0,0-0.1,0-0.2
				c0,0,0-0.1,0-0.1c0,0,0,0,0-0.1c0-0.1,0-0.1,0-0.2c0-0.2,0.1-0.4,0.2-0.7c0.2-0.8,1.3-1.4,2.3-2c0,0,0.1,0,0.1-0.1
				c0,0,0.1,0,0.1-0.1c0,0,0.1,0,0.1,0c0.1,0,0.1-0.1,0.2-0.1c0,0,0,0,0.1,0c0,0,0,0,0,0c-0.1,0.3-0.1,0.5-0.1,0.8
				c-0.1,0.5-0.1,0.9-0.1,1.3c0,1.9,0.6,3.2,0.6,3.3c0.1,0.2,0.2,0.3,0.4,0.3c0,0,0,0,0,0c0.1,0,0.1,0,0.2,0
				c0.3-0.1,0.4-0.4,0.3-0.6c0,0-0.3-0.7-0.4-1.7c0,0,0,0,0-0.1c-0.1-0.8-0.2-1.9,0.1-3c0,0,0,0,0,0c0.1-0.2,0.1-0.5,0.2-0.7
				c0-0.1,0-0.1,0.1-0.2l0.6,0.5l0.7,0.7l2.5,2.4l-0.1,0.7l-0.1,0.5l-0.1,0.4c-0.1,0-0.1,0-0.2,0.1c-0.3,0.1-0.5,0.4-0.7,0.7
				c-0.3,0.5,0,0.9,0.1,1.1c0.1,0.2,0.2,0.3,0.1,0.6c-0.1,0.3-0.2,0.5-0.4,0.7c-0.3,0.3-0.6,0.7-0.9,1.6C17.5,109,17.4,109,17.3,109
				z M7.8,90.2c0-0.1-0.1-0.2,0-0.2c0.1-0.2,0.7-0.3,1.1-0.4c0.2-0.1,0.5-0.1,0.7-0.2c0.5-0.2,0.8-0.5,1-0.7
				c0.2-0.2,0.4-0.4,0.9-0.6c0.1,0,0.2-0.1,0.5-0.1c1.3,0,3.2,0.9,3.4,1.6c0,0.1,0.1,0.2,0.1,0.2c0,0.1,0,0.1,0,0.2
				c0,0.1,0,0.3,0,0.6c0,0.1,0,0.1,0.1,0.2c0,0.1,0.1,0.2,0.2,0.3c0.1,0.1,0.2,0.2,0.3,0.3c0.1,0.1,0.3,0.2,0.6,1.2
				c0.3,0.8-0.2,1.9-0.6,2.9c0,0.1-0.1,0.2-0.1,0.3c0,0.1-0.1,0.2-0.1,0.3c-0.2-0.4-0.4-0.8-0.6-1.1c-0.2-0.4-0.5-0.7-0.8-1
				c-1-1.2-1.9-1.8-2-1.8c-0.2-0.1-0.5-0.1-0.7,0.2c-0.1,0.2-0.1,0.5,0.2,0.7c0,0,0.6,0.4,1.3,1.1c0.6,0.6,1.3,1.5,1.8,2.6
				c0.1,0.1,0.1,0.3,0.2,0.5c-0.3-0.2-0.6-0.5-0.9-0.8c-0.9-0.8-2-1.8-3.2-1.8c0,0,0,0-0.1,0c-0.8,0-1.3,0.1-1.5,0.2
				c0-0.2,0-0.4,0-0.6c-0.1-0.6-0.5-0.7-0.7-0.8c-0.2-0.1-0.3-0.1-0.4-0.4c-0.1-0.3-0.1-0.5-0.1-0.8C8.1,91.6,8.2,91,7.8,90.2z
				 M17.6,89.5c0-0.2,0-0.3,0.2-0.5c0.3-0.2,0.5-0.3,0.8-0.4c0.4-0.1,0.9-0.3,1.6-0.9c0.1-0.1,0.2-0.1,0.2-0.1
				c0.2,0,0.6,0.5,0.8,0.9c0.1,0.2,0.3,0.4,0.4,0.6c0.4,0.4,0.7,0.5,1,0.7c0.3,0.1,0.6,0.2,0.9,0.6c0.6,0.7,0.7,3.5-0.1,4.2
				c-0.2,0.1-0.2,0.2-0.4,0.2c-0.1,0-0.2,0.1-0.4,0.1c-0.1,0-0.2,0.1-0.3,0.2c0,0-0.1,0.1-0.1,0.1c-0.1,0.2-0.2,0.3-0.3,0.4
				c0,0,0,0.1,0,0.1c0,0.1-0.1,0.3-0.9,1c-0.5,0.4-1.4,0.5-2.1,0.5c-0.3,0-0.6,0-0.9,0c0,0,0,0,0,0c-0.2,0-0.3,0-0.5,0
				c0.2-0.2,0.3-0.4,0.5-0.6c0.3-0.3,0.5-0.7,0.7-1c0.9-1.6,1.2-2.9,1.2-3c0-0.3-0.1-0.5-0.4-0.6c-0.3,0-0.5,0.1-0.6,0.4
				c0,0-0.1,0.7-0.5,1.6c-0.3,0.8-0.9,1.8-1.8,2.6c-0.1,0.1-0.3,0.3-0.4,0.4c0.1-0.4,0.3-0.8,0.4-1.1c0.5-1.2,1.1-2.5,0.6-3.7
				c-0.3-0.9-0.6-1.2-0.8-1.5c0.1,0,0.3-0.1,0.4-0.2C17.5,90.1,17.6,89.7,17.6,89.5z M8.6,103.5c-0.3,0-0.5-0.1-0.8-0.2
				c-0.4-0.1-0.8-0.3-1.7-0.3c0,0-0.1,0-0.1,0l0,0c-0.1,0-0.2,0-0.2-0.1c-0.1-0.2-0.1-0.8-0.1-1.2c0-0.2,0-0.5,0-0.7
				c0-0.6-0.2-0.9-0.4-1.2c-0.2-0.3-0.3-0.5-0.3-1c0-1,1.7-3.2,2.7-3.2l0,0c0.2,0,0.2,0,0.4,0.1c0,0,0.1,0,0.1,0.1
				c0.1,0.1,0.3,0.1,0.6,0.1c0,0,0,0,0,0c0.2,0,0.4,0,0.5-0.1c0.1,0,0.1-0.1,0.2-0.1c0.1-0.1,0.3-0.2,1.3-0.2l0,0
				c0.8,0,1.7,0.8,2.6,1.5c0,0,0.1,0.1,0.1,0.1c0,0,0.1,0.1,0.1,0.1c-0.7,0-1.3,0.1-1.9,0.2c-0.5,0.1-0.9,0.2-1.3,0.3
				c-1,0.3-1.6,0.7-1.7,0.7c-0.2,0.1-0.3,0.5-0.2,0.7c0.1,0.2,0.3,0.2,0.4,0.2c0.1,0,0.2,0,0.3-0.1c0,0,0.6-0.4,1.6-0.7
				c0.8-0.3,1.9-0.5,3.1-0.4c0.2,0,0.5,0,0.7,0.1c0,0-0.1,0-0.1,0.1c0,0-0.1,0.1-0.1,0.1c-0.1,0.1-0.2,0.1-0.2,0.2
				c-0.2,0.1-0.4,0.3-0.7,0.4c-1.1,0.7-2.4,1.4-2.7,2.5c-0.2,0.8-0.3,1.2-0.3,1.5c-0.2-0.1-0.4-0.2-0.6-0.2c-0.1,0-0.1,0-0.2,0
				c-0.5,0-0.7,0.3-0.9,0.4C9,103.4,8.9,103.5,8.6,103.5l0,0.5L8.6,103.5z"/>
			<circle id="XMLID_1564_" fill="#FFFFFF" cx="19.8" cy="90.9" r="0.5"/>
			<circle id="XMLID_1563_" fill="#FFFFFF" cx="10.8" cy="91.7" r="0.5"/>
			<circle id="XMLID_1562_" fill="#FFFFFF" cx="8" cy="99.6" r="0.5"/>
			<circle id="XMLID_1561_" fill="#FFFFFF" cx="16.3" cy="105.9" r="0.5"/>
			<circle id="XMLID_1560_" fill="#FFFFFF" cx="23.8" cy="99.4" r="0.5"/>
		</g>
		<g id="XMLID_1727_">
			<path id="XMLID_1733_" fill="#1D70AD" d="M28,139.1c-0.1-0.3-0.3-0.6-0.6-0.9c-0.6-0.4-0.8-0.7-1-1c-0.2-0.3-0.4-0.6-0.8-0.9
				c-0.3-0.2-0.6-0.3-0.9-0.3c-0.2,0-0.4,0-0.5,0.1c-0.1,0-0.1,0-0.2,0c0,0,0,0,0,0c-0.2-0.2-0.2-0.3-0.1-0.4c0-0.1,0.1-0.2,0-0.3
				c0.1-0.1,0.2-0.1,0.3-0.2c1.2-1,1.2-4.5,0.2-5.6c-0.5-0.6-1-0.7-1.3-0.9c-0.3-0.1-0.4-0.2-0.6-0.4c-0.1-0.1-0.2-0.3-0.4-0.5
				c-0.4-0.6-0.9-1.3-1.6-1.3c-0.3,0-0.6,0.1-0.9,0.4c-0.5,0.5-0.9,0.6-1.3,0.7c-0.3,0.1-0.7,0.2-1.1,0.5c-0.6,0.5-0.6,0.9-0.6,1.2
				c0,0.1,0,0.1,0,0.2c0,0,0,0,0,0c0,0-0.1,0.1-0.1,0.1c0-0.1,0-0.3-0.1-0.5c-0.5-1.4-3-2.3-4.4-2.3c-0.3,0-0.6,0-0.8,0.1
				c-0.7,0.3-1,0.6-1.3,0.9c-0.2,0.2-0.3,0.3-0.6,0.4c-0.2,0.1-0.4,0.1-0.6,0.2c-0.7,0.2-1.4,0.4-1.7,0.9c-0.2,0.3-0.2,0.7,0,1.1
				c0.2,0.7,0.2,1,0.2,1.4c0,0.4,0,0.7,0.1,1.2c0.2,0.7,0.7,0.9,0.9,1c0.1,0,0.1,0.1,0.1,0.1c0,0,0,0,0,0.1c0,0.2-0.1,0.4-0.1,0.4
				c-0.1,0-0.3-0.1-0.5-0.1c0,0,0,0-0.1,0c-1.6,0-3.7,2.7-3.7,4.2c0,0.8,0.3,1.2,0.5,1.5c0.1,0.2,0.2,0.4,0.2,0.7c0,0.2,0,0.4,0,0.6
				c-0.1,0.7-0.1,1.4,0.3,1.9c0.2,0.3,0.6,0.4,1,0.4c0.7,0,1.1,0.1,1.4,0.3c0.3,0.1,0.7,0.3,1.2,0.3c0,0,0,0,0,0
				c0.7,0,1.1-0.4,1.2-0.6c0,0,0.1-0.1,0.1-0.1c0,0,0,0,0.1,0c0.3,0,0.3,0.2,0.3,0.2c0,0,0,0.1,0,0.1c-0.1,0.1-0.1,0.2-0.2,0.4
				c-0.5,1.5,1.4,4.4,2.9,4.8c0.1,0,0.1,0,0.2,0.1c0,0,0,0,0,0c0.1,0,0.1,0,0.2,0c0,0,0,0,0,0c0.1,0,0.1,0,0.2,0c0.1,0,0.1,0,0.2,0
				c0.2,0,0.4,0,0.6-0.1c0.1,0,0.1,0,0.2,0c0,0,0.1,0,0.1,0c0,0,0,0,0,0c0,0,0,0,0.1,0c0,0,0,0,0,0c0,0,0,0,0,0c0,0,0,0,0,0
				c0,0,0,0,0,0c0,0,0,0,0.1,0c0,0,0,0,0,0c0,0,0,0,0.1,0c0,0,0,0,0,0c0,0,0,0,0.1,0c0,0,0,0,0,0c0,0,0.1,0,0.1,0h0
				c0.2,0,0.4,0.1,0.6,0.2c0.5,0.2,0.9,0.4,1.4,0.4c0.6,0,1-0.3,1.2-0.9c0.2-0.7,0.4-1,0.7-1.3c0.2-0.3,0.5-0.6,0.6-1
				c0.2-0.7,0-1.1-0.2-1.4c0,0-0.1-0.1-0.1-0.1c0,0,0,0,0,0c0.1-0.2,0.2-0.2,0.3-0.2c0,0,0,0,0,0c0.1,0,0.3,0,0.4-0.1
				c0,0,0.1-0.1,0.1-0.1c0.1,0.1,0.2,0.2,0.3,0.3c0.3,0.2,0.8,0.3,1.3,0.3c1.4,0,3.5-0.8,4.1-1.8c0.4-0.7,0.4-1.1,0.5-1.5
				c0-0.3,0-0.4,0.2-0.7c0.1-0.1,0.2-0.3,0.4-0.5C27.6,140.3,28.1,139.7,28,139.1z M22.1,144.3c-0.3,0-0.6-0.1-0.8-0.2
				c-0.2-0.1-0.2-0.2-0.3-0.3c-0.1-0.1-0.2-0.3-0.3-0.4l0.2-1.2c0-0.2,0-0.3-0.1-0.4l-2.2-2.1c1,0.3,1.9,0.3,2.6,0.3
				c0.8,0,1.3-0.1,1.4-0.1c0.3,0,0.4-0.3,0.4-0.6c0-0.3-0.3-0.4-0.6-0.4c0,0-0.7,0.1-1.7,0.1c-0.9,0-2-0.2-3.1-0.7
				c-0.2-0.1-0.4-0.2-0.6-0.3c0.2,0,0.3,0,0.4,0c0.3,0,0.5,0,0.8,0c0.3,0,0.6,0,0.9,0c0.9,0,2-0.1,2.7-0.7c0.6-0.5,0.9-0.9,1-1.1
				c0.1,0.2,0.2,0.4,0.4,0.6c0.2,0.2,0.4,0.3,0.7,0.3c0.2,0,0.3,0,0.4-0.1c0.1,0,0.2,0,0.2,0c0.1,0,0.2,0,0.3,0.1
				c0.3,0.2,0.4,0.4,0.6,0.6c0.2,0.4,0.6,0.8,1.3,1.3c0.1,0,0.2,0.1,0.2,0.2c0,0.2-0.3,0.7-0.6,1c-0.2,0.2-0.3,0.4-0.4,0.6
				c-0.3,0.5-0.3,0.8-0.3,1.2c0,0.3,0,0.6-0.3,1C25,143.6,23.3,144.3,22.1,144.3z M17.3,149c-0.3,0-0.7-0.2-1-0.3
				c-0.2-0.1-0.5-0.2-0.7-0.3c0,0-0.1,0-0.1,0c0,0,0,0,0,0c0,0,0,0,0,0c0,0-0.1,0-0.1,0c0,0,0,0,0,0c0,0-0.1,0-0.1,0c0,0,0,0,0,0
				c0,0-0.1,0-0.1,0c0,0,0,0,0,0c0,0,0,0,0,0c-0.1,0-0.2,0-0.2,0c0,0,0,0,0,0c0,0-0.1,0-0.1,0c0,0,0,0,0,0c0,0-0.1,0-0.1,0
				c0,0,0,0,0,0c0,0-0.1,0-0.1,0c0,0-0.1,0-0.1,0c0,0,0,0-0.1,0c0,0,0,0-0.1,0c0,0-0.1,0-0.1,0c0,0,0,0,0,0c0,0-0.1,0-0.1,0
				c0,0,0,0-0.1,0c0,0-0.1,0-0.1,0c0,0,0,0,0,0c0,0-0.1,0-0.1,0c0,0,0,0-0.1,0c0,0-0.1,0-0.1,0c0,0,0,0-0.1,0c-0.1,0-0.1,0-0.2,0
				c-0.9-0.3-2.5-2.6-2.2-3.6c0,0,0-0.1,0-0.1c0-0.1,0.1-0.1,0.2-0.2c0.1-0.1,0.1-0.1,0.2-0.2c0.1-0.1,0.2-0.3,0.2-0.5
				c0,0,0,0,0-0.1c0,0,0,0,0-0.1c0-0.1,0-0.1,0-0.2c0,0,0-0.1,0-0.1c0-0.1,0-0.1,0-0.1c0-0.1,0-0.1,0-0.2c0,0,0-0.1,0-0.2
				c0,0,0-0.1,0-0.1c0,0,0,0,0-0.1c0-0.1,0-0.1,0-0.2c0-0.2,0.1-0.4,0.2-0.7c0.2-0.8,1.3-1.4,2.3-2c0,0,0.1,0,0.1-0.1
				c0,0,0.1,0,0.1-0.1c0,0,0.1,0,0.1,0c0.1,0,0.1-0.1,0.2-0.1c0,0,0,0,0.1,0c0,0,0,0,0,0c-0.1,0.3-0.1,0.5-0.1,0.8
				c-0.1,0.5-0.1,0.9-0.1,1.3c0,1.9,0.6,3.2,0.6,3.3c0.1,0.2,0.2,0.3,0.4,0.3c0,0,0,0,0,0c0.1,0,0.1,0,0.2,0
				c0.3-0.1,0.4-0.4,0.3-0.6c0,0-0.3-0.7-0.4-1.7c0,0,0,0,0-0.1c-0.1-0.8-0.2-1.9,0.1-3c0,0,0,0,0,0c0.1-0.2,0.1-0.5,0.2-0.7
				c0-0.1,0-0.1,0.1-0.2l0.6,0.5l0.7,0.7l2.5,2.4l-0.1,0.7l-0.1,0.5l-0.1,0.4c-0.1,0-0.1,0-0.2,0.1c-0.3,0.1-0.5,0.4-0.7,0.7
				c-0.3,0.5,0,0.9,0.1,1.1c0.1,0.2,0.2,0.3,0.1,0.6c-0.1,0.3-0.2,0.5-0.4,0.7c-0.3,0.3-0.6,0.7-0.9,1.6C17.5,149,17.4,149,17.3,149
				z M7.8,130.2c0-0.1-0.1-0.2,0-0.2c0.1-0.2,0.7-0.3,1.1-0.4c0.2-0.1,0.5-0.1,0.7-0.2c0.5-0.2,0.8-0.5,1-0.7
				c0.2-0.2,0.4-0.4,0.9-0.6c0.1,0,0.2-0.1,0.5-0.1c1.3,0,3.2,0.9,3.4,1.6c0,0.1,0.1,0.2,0.1,0.2c0,0.1,0,0.1,0,0.2
				c0,0.1,0,0.3,0,0.6c0,0.1,0,0.1,0.1,0.2c0,0.1,0.1,0.2,0.2,0.3c0.1,0.1,0.2,0.2,0.3,0.3c0.1,0.1,0.3,0.2,0.6,1.2
				c0.3,0.8-0.2,1.9-0.6,2.9c0,0.1-0.1,0.2-0.1,0.3c0,0.1-0.1,0.2-0.1,0.3c-0.2-0.4-0.4-0.8-0.6-1.1c-0.2-0.4-0.5-0.7-0.8-1
				c-1-1.2-1.9-1.8-2-1.8c-0.2-0.1-0.5-0.1-0.7,0.2c-0.1,0.2-0.1,0.5,0.2,0.7c0,0,0.6,0.4,1.3,1.1c0.6,0.6,1.3,1.5,1.8,2.6
				c0.1,0.1,0.1,0.3,0.2,0.5c-0.3-0.2-0.6-0.5-0.9-0.8c-0.9-0.8-2-1.8-3.2-1.8c0,0,0,0-0.1,0c-0.8,0-1.3,0.1-1.5,0.2
				c0-0.2,0-0.4,0-0.6c-0.1-0.6-0.5-0.7-0.7-0.8c-0.2-0.1-0.3-0.1-0.4-0.4c-0.1-0.3-0.1-0.5-0.1-0.8C8.1,131.6,8.2,131,7.8,130.2z
				 M17.6,129.5c0-0.2,0-0.3,0.2-0.5c0.3-0.2,0.5-0.3,0.8-0.4c0.4-0.1,0.9-0.3,1.6-0.9c0.1-0.1,0.2-0.1,0.2-0.1
				c0.2,0,0.6,0.5,0.8,0.9c0.1,0.2,0.3,0.4,0.4,0.6c0.4,0.4,0.7,0.5,1,0.7c0.3,0.1,0.6,0.2,0.9,0.6c0.6,0.7,0.7,3.5-0.1,4.2
				c-0.2,0.1-0.2,0.2-0.4,0.2c-0.1,0-0.2,0.1-0.4,0.1c-0.1,0-0.2,0.1-0.3,0.2c0,0-0.1,0.1-0.1,0.1c-0.1,0.2-0.2,0.3-0.3,0.4
				c0,0,0,0.1,0,0.1c0,0.1-0.1,0.3-0.9,1c-0.5,0.4-1.4,0.5-2.1,0.5c-0.3,0-0.6,0-0.9,0c0,0,0,0,0,0c-0.2,0-0.3,0-0.5,0
				c0.2-0.2,0.3-0.4,0.5-0.6c0.3-0.3,0.5-0.7,0.7-1c0.9-1.6,1.2-2.9,1.2-3c0-0.3-0.1-0.5-0.4-0.6c-0.3,0-0.5,0.1-0.6,0.4
				c0,0-0.1,0.7-0.5,1.6c-0.3,0.8-0.9,1.8-1.8,2.6c-0.1,0.1-0.3,0.3-0.4,0.4c0.1-0.4,0.3-0.8,0.4-1.1c0.5-1.2,1.1-2.5,0.6-3.7
				c-0.3-0.9-0.6-1.2-0.8-1.5c0.1,0,0.3-0.1,0.4-0.2C17.5,130.1,17.6,129.7,17.6,129.5z M8.6,143.5c-0.3,0-0.5-0.1-0.8-0.2
				c-0.4-0.1-0.8-0.3-1.7-0.3c0,0-0.1,0-0.1,0l0,0c-0.1,0-0.2,0-0.2-0.1c-0.1-0.2-0.1-0.8-0.1-1.2c0-0.2,0-0.5,0-0.7
				c0-0.6-0.2-0.9-0.4-1.2c-0.2-0.3-0.3-0.5-0.3-1c0-1,1.7-3.2,2.7-3.2l0,0c0.2,0,0.2,0,0.4,0.1c0,0,0.1,0,0.1,0.1
				c0.1,0.1,0.3,0.1,0.6,0.1c0,0,0,0,0,0c0.2,0,0.4,0,0.5-0.1c0.1,0,0.1-0.1,0.2-0.1c0.1-0.1,0.3-0.2,1.3-0.2l0,0
				c0.8,0,1.7,0.8,2.6,1.5c0,0,0.1,0.1,0.1,0.1c0,0,0.1,0.1,0.1,0.1c-0.7,0-1.3,0.1-1.9,0.2c-0.5,0.1-0.9,0.2-1.3,0.3
				c-1,0.3-1.6,0.7-1.7,0.7c-0.2,0.1-0.3,0.5-0.2,0.7c0.1,0.2,0.3,0.2,0.4,0.2c0.1,0,0.2,0,0.3-0.1c0,0,0.6-0.4,1.6-0.7
				c0.8-0.3,1.9-0.5,3.1-0.4c0.2,0,0.5,0,0.7,0.1c0,0-0.1,0-0.1,0.1c0,0-0.1,0.1-0.1,0.1c-0.1,0.1-0.2,0.1-0.2,0.2
				c-0.2,0.1-0.4,0.3-0.7,0.4c-1.1,0.7-2.4,1.4-2.7,2.5c-0.2,0.8-0.3,1.2-0.3,1.5c-0.2-0.1-0.4-0.2-0.6-0.2c-0.1,0-0.1,0-0.2,0
				c-0.5,0-0.7,0.3-0.9,0.4C9,143.4,8.9,143.5,8.6,143.5l0,0.5L8.6,143.5z"/>
			<circle id="XMLID_1732_" fill="#1D70AD" cx="19.8" cy="130.9" r="0.5"/>
			<circle id="XMLID_1731_" fill="#1D70AD" cx="10.8" cy="131.7" r="0.5"/>
			<circle id="XMLID_1730_" fill="#1D70AD" cx="8" cy="139.6" r="0.5"/>
			<circle id="XMLID_1729_" fill="#1D70AD" cx="16.3" cy="145.9" r="0.5"/>
			<circle id="XMLID_1728_" fill="#1D70AD" cx="23.8" cy="139.4" r="0.5"/>
		</g>
</svg>
