<svg width="32" height="232" viewBox="0 0 32 232" xmlns="http://www.w3.org/2000/svg"><g fill="none"><path d="M31.06 147.836h-2.9v-5.546c0-.285-.212-.516-.472-.516H24.37v-5.636c.21.04.43.058.663.058.56 0 1.106-.11 1.634-.218.51-.103.99-.2 1.463-.2.36 0 .676.057.97.176.146.06.307.036.433-.06s.202-.256.202-.425v-3.63c0-.22-.123-.41-.307-.49-.4-.16-.825-.24-1.297-.24-.55 0-1.1.11-1.63.22-.51.1-.99.2-1.46.2-.36 0-.67-.06-.97-.18l-.06-.02-.01-.01-.08-.01h-.01l-.08.01h-.01l-.07.02-.01.01-.06.04h-.01l-.05.05-.01.01-.05.06v.01l-.033.07-.01.02-.025.08-.007.02-.01.09v9.93h-.75v-.84c0-.29-.21-.52-.47-.52H19.7v-2.17c.21-.056.367-.26.367-.505 0-.28-.21-.513-.47-.513h-.38v-1.346c.138-.09.228-.256.228-.44 0-.196-.092-.36-.24-.45-.16-1.33-1.002-2.43-2.13-2.85v-1.477c0-.265-.19-.48-.42-.51v-.8c0-.285-.216-.516-.476-.516h-.29c-.26 0-.47.23-.47.512 0 .213.11.4.28.474v.32h-.24c-.26 0-.47.23-.47.51v1.47c-1.13.42-1.98 1.52-2.14 2.85-.15.09-.24.26-.24.45s.09.35.22.44v1.34h-.38c-.26 0-.47.235-.47.52 0 .245.15.45.36.5v2.167H9.8c-.26 0-.47.23-.47.515v.84H7.87l-.747-15.64c-.007-.157-.047-.31-.117-.45l-1.656-3.21c-.165-.33-.48-.53-.82-.53h-.01c-.344.004-.66.216-.82.55l-1.55 3.24c-.063.13-.1.275-.11.424L1 147.836H.94c-.52 0-.94.46-.94 1.032 0 .57.42 1.03.94 1.03h30.12c.52 0 .94-.46.94-1.03 0-.57-.42-1.04-.94-1.04zM5.246 126.48l.73 15.294H4.334c-.26 0-.47.23-.47.516v5.546h-.977l1.022-21.37.64-1.35.69 1.364zm4.075 16.327v4.414l-.21.62h-4.3v-5.03h4.51zm.91 4.694l.03-.18v-5.87h11.48v5.87l.03.16.01.03.12.34.18.52h-2.21v-3.93h.11c.26 0 .47-.23.47-.51v-1.55c0-.28-.21-.51-.47-.51h-7.92c-.26 0-.47.23-.47.52v1.55c0 .29.21.52.47.52h.11v3.94H9.94l.296-.85zm5.68-16.31h.19v.77h-.18v-.77zm.1 1.8c1.08 0 1.98.84 2.21 1.95H13.8c.225-1.11 1.13-1.94 2.207-1.94zm-2.24 2.98h4.49v1.27h-4.49v-1.26zm1.03 2.31h.75v2.15h-.75v-2.14zm1.69 0h.75v2.15h-.75v-2.14zm1.69 0h.57v2.15h-.57v-2.14zm-4.89 0h.57v2.15h-.57v-2.14zm9.43 4.54h4.52v5.03H22.9l-.194-.54v-4.48zm-4.54 1.61h.75v3.94h-.75v-3.93zm-1.69 0h.75v3.94h-.75v-3.93zm-1.69 0h.75v3.94h-.75v-3.93zm-1.69 0h.75v3.94h-.75v-3.93zm-.57-1.55h6.97v.52h-6.98v-.52zm14.15-10.52c.51-.1.99-.2 1.46-.2.24 0 .46.03.67.08v2.58c-.21-.04-.43-.06-.66-.06-.56 0-1.1.11-1.63.22-.51.11-.99.2-1.46.2-.24 0-.46-.02-.66-.07v-.91h1.548c.26 0 .47-.23.47-.52v-1.25l.286-.06zm-1.22.79h-1.08v-.63c.21.04.43.06.67.06l.41-.02v.59zm-9.24-6.03c.22.21.5.33.78.33h1.64l-.01.1c0 .33.13.63.35.85.19.18.43.29.68.29h3.44c.57 0 1.04-.51 1.04-1.13 0-.62-.46-1.13-1.03-1.13H23l.025-.27c0-.72-.53-1.3-1.183-1.3h-4.85c-.285 0-.564.12-.78.33-.256.25-.402.6-.402.98 0 .37.147.73.4.98zm.62-1.17c.04-.03.09-.06.16-.06h4.85c.14 0 .25.12.25.27 0 .15-.11.27-.24.27-.26 0-.47.23-.47.52 0 .29.21.52.47.52h1.26c.05 0 .09.04.09.1s-.04.09-.09.09h-3.44l-.06-.02-.03-.07.03-.07.06-.02c.26 0 .47-.23.47-.516 0-.287-.21-.52-.47-.52H17c-.076 0-.13-.04-.16-.07-.03-.03-.085-.095-.085-.2 0-.104.054-.17.086-.2zm-7.96 19.89v-1.42c-.01-.24-.19-.43-.42-.43-.22 0-.4.2-.41.44v1.42h.84zm-3.19-1.85c-.22 0-.4.2-.41.44v1.42h.82v-1.42c-.01-.24-.19-.43-.42-.43zm.97.44v1.42h.84v-1.42c-.01-.24-.19-.43-.42-.43l-.03.01c-.2.02-.37.2-.38.43zm20.11 0c-.01-.24-.2-.43-.42-.43-.23 0-.41.2-.42.44v1.42h.84v-1.42zm-2.85 1.42H24v-1.42c-.01-.09-.04-.17-.08-.25-.08-.11-.2-.18-.34-.18l-.137.03c-.16.06-.28.22-.285.41v1.42h.76zm1.46-1.42c-.01-.24-.19-.43-.42-.43-.22 0-.4.2-.41.44v1.42h.84v-1.42z" fill="#206FAC"/><path d="M31.06 107.836h-2.9v-5.546c0-.285-.212-.516-.472-.516H24.37v-5.636c.21.04.43.058.663.058.56 0 1.106-.11 1.634-.218.51-.103.99-.2 1.463-.2.36 0 .676.057.97.176.146.06.307.036.433-.06s.202-.256.202-.425v-3.63c0-.22-.123-.41-.307-.49-.4-.16-.825-.24-1.297-.24-.55 0-1.1.11-1.63.22-.51.1-.99.2-1.46.2-.36 0-.67-.06-.97-.18l-.06-.02-.01-.01-.08-.01h-.01l-.08.01h-.01l-.07.02-.01.01-.06.04h-.01l-.05.05-.01.01-.05.07-.033.07-.01.02-.025.08-.007.02-.01.09v9.93h-.75v-.84c0-.29-.21-.52-.47-.52H19.7v-2.16c.21-.056.367-.26.367-.5 0-.29-.21-.52-.47-.52h-.38v-1.35c.138-.09.228-.25.228-.44s-.092-.355-.24-.444c-.16-1.33-1.002-2.43-2.13-2.85v-1.47c0-.267-.19-.48-.42-.51v-.8c0-.285-.216-.516-.476-.516h-.29c-.26 0-.47.23-.47.518 0 .21.11.394.28.472v.32h-.24c-.26 0-.47.233-.47.52v1.472c-1.13.422-1.98 1.52-2.14 2.85-.15.09-.24.25-.24.444 0 .19.09.35.22.44v1.34h-.38c-.26 0-.47.23-.47.52 0 .244.15.45.36.5v2.165H9.8c-.26 0-.47.23-.47.518v.845H7.87L7.12 86.1c-.007-.16-.047-.31-.117-.45L5.35 82.44c-.166-.327-.48-.53-.822-.53h-.01c-.34.005-.66.217-.82.55l-1.55 3.24c-.06.13-.1.277-.11.426L1 107.84H.94c-.52 0-.94.462-.94 1.033 0 .57.42 1.033.94 1.033h30.12c.52 0 .94-.46.94-1.03 0-.57-.42-1.033-.94-1.033zM5.246 86.48l.73 15.294H4.334c-.26 0-.47.23-.47.516v5.546h-.977l1.022-21.37.64-1.35.69 1.364zm4.075 16.327v4.414l-.21.62h-4.3v-5.03h4.51zm.91 4.694l.03-.18v-5.87h11.48v5.87l.03.16.01.03.12.34.18.52h-2.21v-3.93h.11c.26 0 .47-.23.47-.51v-1.55c0-.28-.21-.51-.47-.51h-7.92c-.26 0-.47.23-.47.52v1.55c0 .29.21.52.47.52h.11v3.94H9.94l.296-.85zm5.68-16.31h.19v.77h-.18v-.77zm.1 1.8c1.08 0 1.98.84 2.21 1.95H13.8C14.017 93.83 14.92 93 16 93zm-2.24 2.98h4.49v1.27h-4.49v-1.27zm1.03 2.31h.75v2.15h-.75v-2.15zm1.69 0h.75v2.15h-.75v-2.15zm1.69 0h.57v2.15h-.57v-2.15zm-4.89 0h.57v2.15h-.57v-2.15zm9.43 4.54h4.52v5.03H22.9l-.194-.54v-4.48zm-4.54 1.61h.75v3.94h-.75v-3.93zm-1.69 0h.75v3.94h-.75v-3.93zm-1.69 0h.75v3.94h-.75v-3.93zm-1.69 0h.75v3.94h-.75v-3.93zm-.57-1.55h6.97v.52h-6.98v-.52zm14.15-10.52c.51-.1.99-.2 1.46-.2.24 0 .46.03.67.08v2.57c-.21-.04-.43-.05-.66-.05-.56 0-1.11.11-1.63.22-.51.11-.99.2-1.46.2-.234 0-.454-.02-.66-.07v-.91h1.54c.26 0 .47-.23.47-.51v-1.25l.288-.05zm-1.22.79h-1.08v-.63c.21.04.43.06.66.06l.41-.02v.59zm-9.24-6.02c.21.21.49.33.78.33h1.63v.1c0 .33.13.64.35.85.19.18.43.29.68.29h3.44c.57 0 1.03-.51 1.03-1.13 0-.62-.46-1.13-1.03-1.13H23l.024-.27c0-.72-.535-1.3-1.19-1.3h-4.84c-.29 0-.57.12-.783.33-.26.25-.4.6-.4.98s.15.73.4.98zm.62-1.17c.03-.03.08-.06.16-.06h4.84c.14 0 .25.12.25.27 0 .15-.11.27-.24.27-.26 0-.47.23-.47.52 0 .28.21.52.47.52h1.26c.05 0 .09.04.09.095s-.04.1-.09.1h-3.44l-.06-.03-.03-.08.03-.07.06-.02h.01c.26 0 .47-.23.47-.513 0-.285-.21-.516-.47-.516H17c-.08 0-.13-.03-.16-.06s-.09-.095-.09-.2c0-.104.05-.17.084-.2zm-7.96 19.89v-1.42c-.01-.24-.19-.43-.42-.43-.22 0-.41.2-.42.44v1.42h.84zM5.7 104c-.23 0-.41.195-.42.44v1.42h.83v-1.42c-.01-.24-.197-.43-.42-.43zm.96.44v1.42h.84v-1.42c-.01-.24-.2-.43-.42-.43h-.04c-.21.02-.37.204-.38.434zm20.103 0c-.01-.24-.19-.43-.42-.43-.22 0-.41.19-.42.436v1.42h.84v-1.42zm-2.85 1.42h.08v-1.42c0-.09-.03-.173-.08-.25-.07-.11-.2-.18-.34-.18l-.13.024c-.16.06-.28.22-.28.41v1.42h.76zm1.47-1.42c-.01-.24-.19-.43-.42-.43-.22 0-.404.19-.414.436v1.42h.83v-1.42z" fill="#fff"/><path d="M31.06 67.836h-2.9V62.29c0-.285-.212-.516-.472-.516H24.37v-5.636c.21.04.43.058.663.058.56 0 1.106-.11 1.634-.218.51-.103.99-.2 1.463-.2.36 0 .676.057.97.176.146.06.307.036.433-.06s.202-.256.202-.425v-3.63c0-.22-.123-.41-.307-.49-.4-.16-.825-.24-1.297-.24-.55 0-1.1.11-1.63.22-.51.1-.99.2-1.46.2-.36 0-.67-.06-.97-.18l-.06-.02-.01-.01-.08-.01h-.01l-.08.01h-.01l-.07.02-.01.01-.06.04h-.01l-.05.05-.01.01-.05.07-.033.07-.01.02-.025.08-.007.02-.01.09v9.93h-.75v-.84c0-.29-.21-.52-.47-.52H19.7v-2.16c.21-.056.367-.26.367-.5 0-.29-.21-.52-.47-.52h-.38v-1.35c.138-.09.228-.25.228-.44s-.092-.355-.24-.444c-.16-1.33-1.002-2.43-2.13-2.85v-1.47c0-.267-.19-.48-.42-.51v-.8c0-.285-.216-.516-.476-.516h-.29c-.26 0-.47.23-.47.518 0 .21.11.394.28.472v.32h-.24c-.26 0-.47.233-.47.52v1.472c-1.13.422-1.98 1.52-2.14 2.85-.15.09-.24.25-.24.444 0 .19.09.35.22.44v1.34h-.38c-.26 0-.47.23-.47.52 0 .244.15.45.36.5v2.17H9.8c-.26 0-.47.23-.47.52v.843H7.87L7.12 46.1c-.007-.16-.047-.31-.117-.45L5.35 42.44c-.166-.328-.48-.53-.822-.53h-.01c-.34.004-.66.216-.82.55l-1.55 3.24c-.06.13-.1.276-.11.425L1 67.84H.94c-.52 0-.94.462-.94 1.033 0 .57.42 1.033.94 1.033h30.12c.52 0 .94-.46.94-1.03 0-.57-.42-1.033-.94-1.033zM5.246 46.48l.73 15.294H4.334c-.26 0-.47.23-.47.516v5.546h-.977l1.022-21.37.64-1.35.69 1.364zM9.32 62.807v4.414l-.214.62H4.804v-5.03h4.518zm.91 4.694l.03-.18v-5.87h11.473v5.87l.024.16.007.03.117.34.18.52h-2.21v-3.94h.11c.26 0 .47-.23.47-.51v-1.55c0-.28-.21-.51-.47-.51h-7.92c-.26 0-.47.23-.47.52v1.55c0 .29.21.52.47.52h.11v3.94H9.94l.296-.85zm5.673-16.31h.188v.77h-.18v-.77zm.094 1.8c1.078 0 1.982.84 2.206 1.95H13.79c.225-1.11 1.13-1.94 2.207-1.94zm-2.247 2.98h4.49v1.27h-4.49v-1.27zm1.026 2.31h.75v2.15h-.75v-2.15zm1.692 0h.75v2.15h-.75v-2.15zm1.692 0h.567v2.15h-.568v-2.15zm-4.894 0h.568v2.15h-.568v-2.15zm9.43 4.54h4.52v5.03h-4.328l-.192-.54v-4.49zm-4.537 1.61h.75v3.94h-.75v-3.94zm-1.7 0h.75v3.94h-.75v-3.94zm-1.69 0h.75v3.94h-.75v-3.94zm-1.69 0h.75v3.94h-.75v-3.94zm-.58-1.55h6.97v.52H12.5v-.52zm14.15-10.52c.51-.1.99-.2 1.46-.2.23 0 .45.03.66.08v2.57c-.21-.04-.43-.05-.67-.05-.56 0-1.11.11-1.64.22-.51.11-.99.2-1.47.2-.23 0-.45-.02-.66-.07v-.91h1.55c.26 0 .47-.23.47-.51v-1.25l.28-.05zm-1.23.79h-1.07v-.63c.21.04.43.06.66.06l.41-.02v.59zm-9.24-6.02c.21.21.49.33.78.33h1.64l-.01.1c0 .33.13.64.35.85.19.18.43.29.68.29h3.44c.57 0 1.03-.51 1.03-1.13 0-.62-.46-1.13-1.03-1.13h-.1l.03-.27c0-.72-.54-1.3-1.19-1.3h-4.84c-.29 0-.57.12-.78.33-.26.25-.4.6-.4.97s.14.73.4.98zm.62-1.17c.03-.03.08-.06.16-.06h4.84c.13 0 .24.12.24.27 0 .15-.11.27-.25.27-.26 0-.47.23-.47.52h-.01c0 .29.21.52.47.52h1.26c.05 0 .09.05.09.1 0 .06-.04.1-.09.1H19.6l-.056-.02-.03-.07.03-.07.06-.022h.003c.26 0 .47-.23.47-.517 0-.285-.21-.516-.47-.516h-2.66c-.073 0-.127-.04-.16-.07-.03-.03-.08-.096-.08-.2 0-.105.05-.17.083-.2zM8.86 65.84v-1.42c-.01-.244-.198-.438-.42-.438-.228 0-.41.194-.42.438v1.42h.84zm-3.19-1.86c-.225 0-.41.193-.42.437v1.42h.84v-1.42c-.01-.24-.195-.43-.42-.43zm.966.437v1.42h.84v-1.42c-.01-.24-.19-.43-.42-.43l-.03.01c-.2.02-.37.208-.38.438zm20.11 0c-.01-.24-.19-.43-.42-.43-.22 0-.41.2-.42.44v1.42h.84v-1.42zm-2.85 1.42h.08v-1.42c0-.09-.03-.17-.08-.25-.08-.11-.2-.18-.34-.18l-.13.03c-.16.06-.28.22-.28.41v1.42h.753zm1.47-1.42c-.01-.24-.19-.43-.42-.43-.22 0-.405.2-.415.44v1.42h.84v-1.42z" fill="#67737B"/><path d="M31.06 27.836h-2.9V22.29c0-.285-.212-.516-.472-.516H24.37v-5.636c.21.04.43.058.663.058.56 0 1.106-.11 1.634-.218.51-.103.99-.2 1.463-.2.36 0 .676.057.97.176.146.06.307.036.433-.06s.202-.256.202-.425v-3.63c0-.22-.123-.41-.307-.49-.4-.16-.825-.24-1.297-.24-.55 0-1.1.11-1.63.22-.51.1-.99.2-1.46.2-.36 0-.67-.06-.97-.18l-.06-.02-.01-.01-.08-.01h-.01l-.08.01h-.01l-.07.02-.01.01-.06.04h-.01l-.05.05-.01.01-.05.07-.033.07-.01.02-.025.08-.007.02-.01.09v9.93h-.75v-.84c0-.29-.21-.52-.47-.52H19.7v-2.16c.21-.056.367-.26.367-.5 0-.29-.21-.52-.47-.52h-.38v-1.35c.138-.09.228-.25.228-.44s-.092-.355-.24-.444c-.16-1.33-1.002-2.43-2.13-2.85v-1.47c0-.267-.19-.48-.42-.51v-.8c0-.285-.216-.516-.476-.516h-.29c-.26 0-.47.23-.47.51 0 .22.11.4.28.48v.32h-.24c-.26 0-.47.23-.47.52v1.47c-1.13.43-1.98 1.52-2.14 2.858-.15.09-.24.252-.24.45 0 .18.09.343.22.44v1.34h-.38c-.26 0-.47.23-.47.512 0 .242.15.45.36.5v2.17H9.8c-.26 0-.47.23-.47.513v.843H7.87L7.12 6.12c-.01-.154-.05-.306-.12-.446l-1.647-3.23c-.166-.327-.48-.53-.822-.53h-.01c-.34.005-.66.217-.82.552L2.15 5.704c-.065.132-.1.277-.11.426L1 27.834H.94c-.52 0-.94.462-.94 1.033 0 .57.42 1.033.94 1.033h30.12c.52 0 .94-.462.94-1.033 0-.57-.42-1.033-.94-1.033zM5.246 6.48l.73 15.294H4.334c-.26 0-.47.23-.47.516v5.546h-.977L3.91 6.466l.645-1.35.693 1.364zM9.32 22.807v4.414l-.214.62H4.804v-5.03h4.518zm.91 4.694l.03-.18v-5.87h11.473v5.87l.024.16.007.03.117.34.18.52h-2.21v-3.94h.11c.26 0 .47-.23.47-.51v-1.55c0-.28-.21-.51-.47-.51h-7.92c-.26 0-.47.23-.47.52v1.55c0 .29.21.52.47.52h.11v3.94H9.94l.296-.85zm5.673-16.31h.188v.77h-.18v-.77zm.094 1.8c1.078 0 1.982.84 2.206 1.95H13.79c.225-1.11 1.13-1.94 2.207-1.94zm-2.247 2.98h4.49v1.27h-4.49v-1.27zm1.026 2.31h.75v2.15h-.75v-2.15zm1.692 0h.75v2.15h-.75v-2.15zm1.692 0h.567v2.15h-.568v-2.15zm-4.894 0h.568v2.15h-.568v-2.15zm9.43 4.54h4.52v5.03h-4.328l-.192-.54v-4.49zm-4.537 1.61h.75v3.94h-.75v-3.94zm-1.7 0h.75v3.94h-.75v-3.94zm-1.69 0h.75v3.94h-.75v-3.94zm-1.69 0h.75v3.94h-.75v-3.94zm-.58-1.55h6.97v.52H12.5v-.52zm14.15-10.52c.51-.1.99-.2 1.46-.2.23 0 .45.03.66.08v2.57c-.21-.04-.43-.05-.67-.05-.56 0-1.11.11-1.64.22-.51.11-.99.2-1.47.2-.23 0-.45-.02-.66-.07v-.91h1.55c.26 0 .47-.23.47-.51v-1.25l.28-.05zm-1.23.79h-1.07v-.63c.21.04.43.06.66.06l.41-.02v.59zM16.2 7.12c.216.21.494.322.782.322h1.635l-.005.093c0 .324.128.633.35.848.19.184.43.285.68.285h3.44c.57 0 1.032-.507 1.032-1.13 0-.624-.463-1.132-1.03-1.132h-.1l.026-.268c0-.717-.532-1.3-1.185-1.3h-4.842c-.288 0-.567.115-.783.324-.256.24-.402.6-.402.97s.147.73.402.97zm.62-1.18c.033-.03.086-.07.162-.07h4.842c.135 0 .244.12.244.27 0 .15-.11.27-.244.27-.26 0-.47.23-.47.514h-.003c0 .286.22.517.48.517h1.26c.05 0 .09.05.09.1 0 .06-.04.1-.09.1h-3.44l-.06-.03-.03-.07.03-.07.06-.02c.26 0 .47-.23.47-.52 0-.28-.21-.51-.47-.51h-2.67c-.07 0-.13-.03-.16-.06s-.08-.1-.08-.2.05-.17.09-.2zM8.866 25.83v-1.42c-.01-.243-.194-.437-.42-.437-.224 0-.408.194-.418.438v1.42h.838zm-3.19-1.857c-.224 0-.408.194-.418.438v1.42h.837v-1.42c-.01-.24-.194-.43-.42-.43zm.967.438v1.42h.838v-1.42c-.01-.24-.19-.43-.42-.43l-.03.01c-.2.02-.37.21-.38.44zm20.106 0c-.01-.24-.2-.43-.42-.43-.23 0-.41.2-.42.44v1.42h.84v-1.42zm-2.85 1.42h.08v-1.42c-.01-.09-.04-.17-.08-.25-.08-.11-.2-.18-.34-.18l-.14.03c-.16.06-.28.22-.29.41v1.42h.75zm1.46-1.42c-.01-.24-.2-.43-.42-.43-.23 0-.41.2-.42.44v1.42h.84v-1.42z" fill="#3A434E"/></g></svg>