<svg width="32" height="232" viewBox="0 0 32 232" xmlns="http://www.w3.org/2000/svg"><g fill="none"><path d="M30.948 149.374h-1.64V143.5h1.155c.29 0 .526-.24.526-.535 0-.295-.24-.534-.53-.534H29.3v-4.05c0-.29-.235-.53-.526-.53h-3.62c-.196 0-.374.11-.465.28-.09.18-.08.39.02.55l.75 1.14-.75 1.15c-.11.17-.12.38-.03.55.09.18.27.28.46.28h3.09v.64h-2.96c-.29 0-.53.24-.53.54v.8h-.68l-.87-16.3c-.03-.56-.49-1.01-1.05-1.01h-.2v-3.31c0-.29-.24-.53-.53-.53-.29 0-.53.24-.53.53v3.31H19.2v-3.31c0-.29-.232-.53-.522-.53-.29 0-.53.24-.53.54v3.31h-.196c-.56 0-1.02.45-1.05 1.01l-.65 12.15h-.89v-1.76c0-.46-.29-.86-.7-1v-5.3c0-.4-.216-.75-.535-.93v-5.37c0-.55-.42-1.01-.95-1.06v-3.14c0-.29-.24-.53-.53-.53-.29 0-.525.24-.525.536v3.13h-.32v-1.135c0-.292-.235-.53-.525-.53-.29 0-.526.24-.526.53v1.13h-.32v-3.134c0-.292-.23-.532-.52-.532-.29 0-.52.24-.52.537v3.14c-.54.05-.95.503-.95 1.06v5.37c-.32.18-.54.53-.54.93v2.35H3.98c-.29 0-.526.24-.526.53 0 .297.235.536.525.536h3.94v1.88c-.41.15-.7.54-.7 1.006v4.59H4.59c-.29 0-.527.24-.527.53v6.41H3.44l-.12-9.1 1.317 1.17c.096.09.22.13.342.13.14 0 .29-.06.39-.18.19-.225.16-.56-.05-.756l-1.82-1.61 1.58-1.85c.19-.22.17-.56-.05-.75-.22-.196-.55-.17-.74.05l-1.59 1.84-1.82-1.61c-.22-.196-.55-.17-.74.05-.19.223-.17.56.05.754l1.82 1.61L.43 141c-.19.22-.17.56.05.75.1.086.22.13.34.13.14 0 .29-.06.39-.185l.98-1.16-.12 8.85H1.05c-.58 0-1.05.48-1.05 1.07s.47 1.07 1.05 1.07h29.9c.58 0 1.05-.48 1.05-1.07 0-.59-.47-1.07-1.05-1.07zm-6.565 0l-.014-.265c.43-.49.69-1.13.69-1.83 0-.71-.27-1.38-.76-1.89l-.02-.02-.05-.05-.09-.08-.03-.43h1.15c.29 0 .52-.24.52-.54v-.79h2.44v5.87h-3.87zm-14.357-16.77h2.558v4.167h-2.558v-4.16zm11.48 16.04l-.045-.028c-.8-.44-1.71-.675-2.63-.675-.3 0-.6.03-.89.08-.6.1-1.19.3-1.74.6l-.04.03-.18.11-.18.08c-.13.05-.26.08-.4.09l-.13.01c-.89 0-1.61-.73-1.61-1.64 0-.43.16-.83.46-1.14l.04-.04.09-.08.02-.01c.32-.28.71-.52 1.15-.72.19-.09.39-.17.6-.24.64-.22 1.37-.36 2.13-.42.23-.01.47-.02.71-.02 1.19 0 2.32.21 3.23.59.54.22 1 .5 1.36.82h.01l.01.01.09.09.04.04c.3.31.46.72.46 1.15 0 .91-.72 1.64-1.61 1.64l-.15-.01c-.2-.02-.39-.07-.57-.16l-.18-.1zm-2.593-18.934l.413.42-.46.47.047-.89zm2.347 5.824l-1.19 1.21-1.192-1.21 1.19-1.212 1.192 1.212zm.1 4.035l-1.29 1.31-1.292-1.32 1.29-1.32 1.292 1.31zm.19 4.33c-.804-.23-1.69-.36-2.608-.36l1.126-1.15 1.482 1.51zm.375-1.13l-1.114-1.14 1-1.02.12 2.15zm-.235-4.38l-.88-.9.79-.8.09 1.69zm-.223-4.16l-.657-.67.588-.6.068 1.26zm-.195-3.64l-.462-.47.414-.42.048.89zm-.258 1.24l-.946.96-.946-.96.946-.97.946.96zm-1.69 1.72l-.655.67.06-1.27.59.6zm0 3.93l-.878.89.09-1.7.79.8zm0 4.13l-1.113 1.13.12-2.15 1 1.02zm-3.278 2.28c-.228.06-.45.14-.663.22v-3.47h.838l-.17 3.24zm10.094-3.19l.39-.61c.12-.18.12-.41 0-.59l-.4-.61h2.12v1.81h-2.11zm-5.3-12.14l-.78.79-.78-.79h1.56zm-10.28-2.27h1.48v4.16h-1.48v-4.16zm-5.45 17.2h2.11v5.87H5.11v-5.87zm4.21 5.87V138.9h3.954v6.557c-.45.5-.69 1.143-.69 1.822 0 .7.27 1.34.7 1.82v.26H9.33zm8.53 0l.012-.26c.31-.07.63-.11.95-.11.61 0 1.21.12 1.76.36h-2.73zM2.33 133.35h4.744c.29 0 .525-.24.525-.533 0-.293-.24-.533-.53-.533H2.33c-.184 0-.333-.152-.333-.338 0-.188.15-.34.332-.34.29 0 .52-.24.52-.54 0-.3-.24-.54-.53-.54-.77 0-1.39.63-1.39 1.403s.62 1.4 1.38 1.4zm22.47 1.87h3.28c.29 0 .526-.24.526-.535 0-.298-.235-.538-.525-.538H24.8c-.29 0-.526.24-.526.534 0 .3.235.54.525.54zm1.64-1.48h1.845c.29 0 .525-.24.525-.533 0-.293-.235-.533-.525-.533H26.44c-.29 0-.525.24-.525.535 0 .29.235.53.525.53zm-8.063 11.78l-.316.02c-.74.054-1.46.183-2.12.383-.19.057-.37.12-.55.187l-.37.155c-.26.12-.38.434-.27.704.09.2.28.32.48.32l.17-.03.05-.01.45-.17c.65-.23 1.37-.38 2.13-.45l.42-.02c.29-.01.52-.26.5-.55-.01-.3-.25-.53-.54-.52zm1.59.017h-.14c-.29 0-.524.24-.524.536 0 .295.235.534.525.534h.14c.29 0 .526-.24.526-.53 0-.29-.235-.53-.526-.53z" fill="#206FAC"/><path d="M30.948 109.374h-1.64V103.5h1.155c.29 0 .526-.24.526-.535 0-.295-.24-.534-.53-.534H29.3v-4.05c0-.29-.235-.53-.526-.53h-3.62c-.196 0-.374.11-.465.28-.09.18-.08.39.02.55l.75 1.14-.75 1.15c-.11.17-.12.38-.03.55.09.18.27.28.46.28h3.09v.64h-2.96c-.29 0-.53.24-.53.54v.8h-.68l-.87-16.31c-.03-.56-.49-1.01-1.05-1.01h-.2v-3.31c0-.29-.24-.53-.53-.53-.29 0-.52.24-.52.53v3.31H19.2v-3.31c0-.29-.236-.53-.526-.53-.29 0-.53.24-.53.54v3.31h-.197c-.56 0-1.02.45-1.05 1.01l-.65 12.15h-.89v-1.77c0-.46-.29-.86-.7-1v-5.3c0-.4-.215-.74-.534-.93v-5.37c0-.55-.416-1.01-.95-1.06v-3.14c0-.29-.234-.53-.524-.53-.29 0-.53.24-.53.538V84.2h-.32v-1.14c0-.29-.24-.53-.53-.53-.29 0-.53.24-.53.54v1.14h-.32v-3.14c0-.29-.235-.53-.525-.53-.29 0-.53.24-.53.54v3.13c-.537.05-.95.51-.95 1.07v5.37c-.32.18-.54.53-.54.93v2.35h-3.9c-.29 0-.527.24-.527.53 0 .29.235.53.525.53h3.94v1.88c-.41.15-.7.54-.7 1.01v4.59H4.59c-.29 0-.527.24-.527.53v6.41H3.44l-.12-9.1 1.317 1.16c.096.084.22.13.342.13.14 0 .29-.06.39-.186.19-.224.16-.56-.05-.755L3.5 99.02l1.58-1.853c.19-.223.17-.56-.05-.754-.22-.194-.55-.17-.74.052l-1.587 1.85-1.82-1.61c-.22-.197-.55-.174-.74.05-.19.222-.168.56.05.753l1.82 1.61-1.578 1.85c-.19.223-.17.56.05.754.1.09.222.13.345.13.147 0 .293-.06.397-.183l.99-1.15-.117 8.85H1.05c-.58 0-1.05.48-1.05 1.07 0 .59.47 1.07 1.05 1.07h29.9c.58 0 1.05-.48 1.05-1.07 0-.59-.47-1.07-1.05-1.07zm-6.565 0l-.014-.265c.43-.49.69-1.13.69-1.83 0-.71-.27-1.38-.76-1.89l-.02-.02-.05-.05-.09-.08-.03-.43h1.15c.29 0 .52-.24.52-.54v-.79h2.44v5.87h-3.87zm-14.357-16.77h2.558v4.167h-2.558v-4.16zm11.48 16.04l-.045-.028c-.8-.44-1.71-.675-2.63-.675-.3 0-.6.03-.89.08-.6.1-1.19.3-1.74.6l-.04.03-.18.11-.18.08c-.13.05-.26.08-.4.09l-.13.01c-.89 0-1.61-.73-1.61-1.64 0-.43.16-.83.46-1.14l.04-.04.09-.08.02-.01c.32-.28.71-.52 1.15-.72.19-.09.39-.17.6-.24.64-.22 1.37-.36 2.13-.42.23-.01.47-.02.71-.02 1.19 0 2.32.21 3.23.59.54.22 1 .5 1.36.82h.01l.01.01.09.09.04.04c.3.31.46.72.46 1.15 0 .91-.72 1.64-1.61 1.64l-.15-.01c-.2-.02-.39-.07-.57-.16l-.18-.1zM18.913 89.71l.413.42-.46.47.047-.89zm2.347 5.824l-1.19 1.21-1.192-1.21 1.19-1.212 1.192 1.212zm.1 4.035l-1.29 1.31-1.292-1.32 1.29-1.32 1.292 1.31zm.19 4.33c-.804-.23-1.69-.36-2.608-.36l1.126-1.15 1.482 1.51zm.375-1.13l-1.114-1.14 1-1.02.12 2.15zm-.235-4.38l-.88-.9.79-.8.09 1.69zm-.223-4.16l-.657-.67.588-.6.068 1.26zm-.195-3.64l-.462-.47.414-.42.048.89zm-.258 1.24l-.946.96-.946-.96.946-.97.946.96zm-1.69 1.72l-.655.67.06-1.27.59.6zm0 3.93l-.878.89.09-1.7.79.8zm0 4.13l-1.113 1.13.12-2.15 1 1.02zm-3.278 2.28c-.228.06-.45.14-.663.22v-3.47h.838l-.17 3.24zm10.094-3.19l.39-.61c.12-.18.12-.41 0-.59l-.4-.61h2.12v1.81h-2.11zm-5.3-12.14l-.78.79-.78-.79h1.56zM10.56 86.3h1.484v4.165H10.56V86.3zm-5.446 17.2h2.11v5.873h-2.11V103.5zm4.21 5.874V98.906h3.956v6.557c-.45.5-.696 1.144-.696 1.823 0 .702.265 1.342.697 1.824v.264H9.33zm8.53 0l.014-.26c.312-.068.632-.105.954-.105.604 0 1.204.12 1.758.36h-2.727zM2.33 93.354h4.744c.29 0 .525-.24.525-.534 0-.295-.24-.535-.53-.535H2.33c-.184 0-.333-.152-.333-.338 0-.186.15-.338.332-.338.29 0 .52-.24.52-.54 0-.3-.24-.54-.53-.54-.77 0-1.39.63-1.39 1.4s.62 1.4 1.38 1.4zm22.47 1.868h3.28c.29 0 .526-.24.526-.534 0-.295-.235-.535-.525-.535H24.8c-.29 0-.526.24-.526.535 0 .295.235.534.525.534zm1.64-1.478h1.845c.29 0 .525-.24.525-.534 0-.295-.235-.535-.525-.535H26.44c-.29 0-.525.24-.525.535 0 .295.235.534.525.534zm-8.063 11.78l-.316.02c-.74.053-1.46.182-2.12.382-.19.057-.37.12-.55.187l-.37.154c-.26.12-.38.434-.27.704.09.2.28.32.48.32l.17-.03.05-.01.45-.17c.65-.23 1.37-.38 2.13-.45l.42-.02c.29-.01.52-.26.5-.55-.01-.29-.25-.52-.54-.51zm1.59.016h-.14c-.29 0-.524.24-.524.534 0 .295.235.534.525.534h.14c.29 0 .526-.24.526-.534 0-.295-.235-.534-.526-.534z" fill="#fff"/><path d="M30.948 69.374h-1.64V63.5h1.155c.29 0 .526-.24.526-.535 0-.295-.24-.534-.53-.534H29.3v-4.05c0-.29-.235-.53-.526-.53h-3.62c-.196 0-.374.11-.465.28-.09.18-.08.39.02.55l.75 1.14-.75 1.15c-.11.17-.12.38-.03.55.09.18.27.28.46.28h3.09v.64h-2.96c-.29 0-.53.24-.53.54v.8h-.68l-.87-16.31c-.03-.56-.49-1.01-1.05-1.01h-.2v-3.31c0-.29-.24-.53-.53-.53-.29 0-.52.24-.52.53v3.31H19.2v-3.31c0-.29-.236-.53-.526-.53-.29 0-.53.24-.53.54v3.31h-.197c-.56 0-1.02.45-1.05 1.01l-.65 12.15h-.89v-1.77c0-.46-.29-.86-.7-1v-5.3c0-.4-.215-.74-.534-.93v-5.37c0-.55-.416-1.01-.95-1.06v-3.14c0-.29-.234-.53-.524-.53-.29 0-.53.24-.53.538V44.2h-.32v-1.14c0-.29-.24-.53-.53-.53-.29 0-.53.24-.53.54v1.14h-.32v-3.14c0-.29-.235-.53-.525-.53-.29 0-.53.24-.53.54v3.13c-.537.05-.95.51-.95 1.07v5.37c-.32.18-.54.53-.54.93v2.35h-3.9c-.29 0-.527.24-.527.53 0 .29.235.53.525.53h3.94v1.88c-.41.15-.7.54-.7 1.01v4.59H4.59c-.29 0-.527.24-.527.53v6.41H3.44l-.12-9.1 1.32 1.16c.097.084.22.13.343.13.146 0 .292-.06.396-.186.19-.22.16-.56-.05-.752l-1.82-1.61 1.58-1.85c.19-.22.16-.56-.06-.75-.22-.2-.55-.17-.74.05l-1.58 1.86-1.82-1.61c-.22-.2-.55-.18-.74.05-.19.22-.17.56.05.75l1.82 1.61L.44 61c-.19.222-.17.56.05.753.1.09.22.13.34.13.14 0 .29-.06.39-.183l.99-1.152-.11 8.85H1.05c-.58 0-1.05.48-1.05 1.07 0 .59.47 1.07 1.05 1.07h29.9c.58 0 1.05-.48 1.05-1.07 0-.59-.47-1.07-1.05-1.07zm-6.565 0l-.014-.265c.43-.49.69-1.13.69-1.83 0-.71-.27-1.38-.76-1.89l-.02-.02-.05-.05-.09-.08-.03-.43h1.15c.29 0 .52-.24.52-.54v-.79h2.44v5.87h-3.87zm-14.357-16.77h2.558v4.167h-2.558v-4.16zm11.48 16.04l-.045-.028c-.8-.44-1.71-.675-2.63-.675-.3 0-.6.03-.89.08-.6.1-1.19.3-1.74.6l-.04.03-.18.11-.18.08c-.13.05-.26.08-.4.09l-.13.01c-.89 0-1.61-.73-1.61-1.64 0-.43.16-.83.46-1.14l.04-.04.09-.08.02-.01c.32-.28.71-.52 1.15-.72.19-.09.39-.17.6-.24.64-.22 1.37-.36 2.13-.42.23-.01.47-.02.71-.02 1.19 0 2.32.21 3.23.59.54.22 1 .5 1.36.82h.01l.01.01.09.09.04.04c.3.31.46.72.46 1.15 0 .91-.72 1.64-1.61 1.64l-.15-.01c-.2-.02-.39-.07-.57-.16l-.18-.1zM18.913 49.71l.413.42-.46.47.047-.89zm2.347 5.824l-1.19 1.21-1.192-1.21 1.19-1.212 1.192 1.212zm.1 4.035l-1.29 1.31-1.292-1.32 1.29-1.32 1.292 1.31zm.19 4.33c-.804-.23-1.69-.36-2.608-.36l1.126-1.15 1.482 1.51zm.375-1.13l-1.115-1.14 1-1.02.12 2.15zm-.235-4.38l-.88-.9.79-.8.09 1.69zm-.223-4.16l-.657-.67.588-.6.068 1.26zm-.195-3.64l-.462-.47.414-.42.048.89zm-.258 1.24l-.946.96-.946-.96.946-.97.946.96zm-1.69 1.72l-.655.67.06-1.27.59.6zm0 3.93l-.878.89.09-1.7.79.8zm0 4.13l-1.114 1.14.118-2.15 1 1.02zm-3.278 2.28c-.228.06-.45.14-.663.22v-3.46h.838l-.17 3.24zM26.14 60.7l.398-.605c.118-.18.118-.41 0-.59l-.4-.606h2.118v1.8H26.14zm-5.293-12.14l-.78.795-.78-.79h1.56zM10.56 46.3h1.487v4.165H10.56V46.3zM5.116 63.5h2.11v5.873h-2.11V63.5zm4.21 5.874V58.906h3.956v6.557c-.45.5-.697 1.144-.697 1.823 0 .702.265 1.342.697 1.824v.264H9.325zm8.53 0l.014-.26c.313-.068.633-.105.955-.105.604 0 1.204.12 1.758.36h-2.727zM2.33 53.354h4.744c.29 0 .525-.24.525-.534 0-.295-.24-.535-.53-.535H2.33c-.184 0-.333-.152-.333-.338 0-.186.15-.338.332-.338.29 0 .52-.24.52-.54 0-.3-.24-.54-.53-.54-.77 0-1.39.63-1.39 1.4s.62 1.4 1.38 1.4zm22.47 1.868h3.28c.29 0 .526-.24.526-.534 0-.295-.235-.535-.525-.535H24.8c-.29 0-.526.24-.526.535 0 .295.235.534.525.534zm1.64-1.478h1.845c.29 0 .525-.24.525-.534 0-.295-.235-.535-.525-.535H26.44c-.29 0-.525.24-.525.535 0 .295.235.534.525.534zm-8.063 11.78l-.316.02c-.74.053-1.46.182-2.12.382-.19.057-.37.12-.55.187l-.37.154c-.26.12-.38.434-.27.704.09.2.28.32.48.32l.17-.03.05-.01.45-.17c.65-.23 1.37-.38 2.13-.45l.42-.02c.29-.01.52-.26.5-.55-.01-.29-.25-.52-.54-.51zm1.59.016h-.14c-.29 0-.524.24-.524.534 0 .295.235.534.525.534h.14c.29 0 .526-.24.526-.534 0-.295-.235-.534-.526-.534z" fill="#67737B"/><path d="M30.948 29.374h-1.64V23.5h1.155c.29 0 .526-.24.526-.535 0-.295-.24-.534-.53-.534H29.3v-4.05c0-.29-.235-.53-.526-.53h-3.62c-.196 0-.374.11-.465.28-.09.18-.08.39.02.55l.75 1.14-.75 1.15c-.11.17-.12.38-.03.55.09.18.27.28.46.28h3.09v.64h-2.96c-.29 0-.53.24-.53.54v.8h-.68L23.2 7.47c-.03-.566-.49-1.01-1.05-1.01h-.195V3.14c0-.296-.235-.535-.526-.535-.29 0-.53.24-.53.533v3.31h-1.69v-3.31c0-.295-.24-.534-.53-.534-.29 0-.53.24-.53.534v3.31h-.2c-.56 0-1.02.445-1.05 1.01l-.65 12.148h-.9V17.84c0-.464-.29-.86-.7-1.006V11.54c0-.4-.22-.747-.54-.93V5.232c0-.556-.42-1.01-.95-1.063V1.03c0-.295-.24-.535-.53-.535-.29 0-.53.24-.53.535v3.133h-.32V3.03c0-.294-.24-.533-.53-.533-.29 0-.52.24-.52.534v1.14h-.32V1.04c.007-.3-.23-.54-.52-.54-.29 0-.524.24-.524.534V4.17c-.535.05-.95.507-.95 1.063v5.372c-.32.183-.537.53-.537.93v2.35h-3.9c-.29 0-.527.24-.527.534 0 .29.235.53.525.53h3.94v1.88c-.41.14-.7.54-.7 1v4.59H4.59c-.29 0-.527.24-.527.53v6.41H3.44l-.12-9.11 1.318 1.17c.096.09.22.13.342.13.146 0 .292-.06.396-.18.19-.22.166-.56-.05-.76L3.506 19l1.58-1.853c.19-.224.167-.56-.053-.755-.22-.197-.55-.17-.74.05L2.71 18.31.89 16.7c-.22-.195-.55-.172-.74.05-.19.224-.17.56.05.755l1.82 1.61L.44 20.97c-.19.223-.17.56.05.754.1.087.222.13.345.13.145 0 .29-.06.395-.184l.99-1.154-.118 8.85h-1.05c-.58 0-1.05.48-1.05 1.07 0 .59.47 1.07 1.05 1.07H30.95c.58 0 1.05-.48 1.05-1.07 0-.59-.47-1.07-1.05-1.07zm-6.565 0l-.014-.265c.43-.49.69-1.13.69-1.83 0-.71-.27-1.38-.76-1.89l-.02-.02-.05-.05-.09-.08-.03-.43h1.15c.29 0 .52-.24.52-.54v-.79h2.44v5.87h-3.87zm-14.357-16.77h2.558v4.167h-2.558v-4.16zm11.48 16.04l-.045-.028c-.8-.44-1.71-.675-2.63-.675-.3 0-.6.03-.89.08-.6.1-1.19.3-1.74.6l-.04.03-.18.11-.18.08c-.13.05-.26.08-.4.09l-.13.01c-.89 0-1.61-.73-1.61-1.64 0-.43.16-.83.46-1.14l.04-.04.09-.08.02-.01c.32-.28.71-.52 1.15-.72.19-.09.39-.17.6-.24.64-.22 1.37-.36 2.13-.42.23-.01.47-.02.71-.02 1.19 0 2.32.21 3.23.59.54.22 1 .5 1.36.82h.01l.01.01.09.09.04.04c.3.31.46.72.46 1.15 0 .91-.72 1.64-1.61 1.64l-.15-.01c-.2-.02-.39-.07-.57-.16l-.18-.1zM18.913 9.71l.413.42-.46.47.047-.89zm2.347 5.824l-1.19 1.21-1.192-1.21 1.19-1.212 1.192 1.212zm.1 4.035l-1.29 1.31-1.292-1.32 1.29-1.32 1.292 1.31zm.19 4.33c-.804-.23-1.69-.36-2.608-.36l1.126-1.15 1.482 1.51zm.375-1.13l-1.115-1.14 1-1.02.12 2.15zm-.235-4.38l-.88-.9.79-.8.09 1.69zm-.223-4.16l-.657-.67.588-.6.068 1.26zm-.195-3.64l-.462-.47.414-.42.048.89zm-.258 1.24l-.946.96-.946-.96.946-.97.946.96zm-1.69 1.72l-.655.67.06-1.27.59.6zm0 3.93l-.878.89.09-1.7.79.8zm0 4.13l-1.114 1.14.118-2.15 1 1.02zm-3.278 2.28c-.228.06-.45.14-.663.22v-3.46h.838l-.17 3.24zM26.14 20.7l.398-.605c.118-.18.118-.41 0-.59l-.4-.606h2.118v1.8H26.14zM20.846 8.58l-.78.795-.78-.794h1.56zM10.56 6.304h1.487v4.165H10.56V6.3zM5.116 23.5h2.11v5.873h-2.11V23.5zm4.21 5.874V18.906h3.956v6.557c-.45.5-.697 1.144-.697 1.823 0 .702.265 1.342.697 1.824v.264H9.325zm8.53 0l.014-.26c.313-.068.633-.105.955-.105.604 0 1.204.12 1.758.36h-2.727zM2.33 13.354h4.744c.29 0 .525-.24.525-.534 0-.295-.24-.535-.53-.535H2.33c-.184 0-.333-.152-.333-.338 0-.186.15-.338.332-.338.29 0 .52-.24.52-.54 0-.3-.24-.54-.53-.54-.77 0-1.39.63-1.39 1.4s.62 1.4 1.38 1.4zm22.47 1.868h3.28c.29 0 .526-.24.526-.534 0-.295-.235-.535-.525-.535H24.8c-.29 0-.526.24-.526.535 0 .295.235.534.525.534zm1.64-1.478h1.845c.29 0 .525-.24.525-.534 0-.295-.235-.535-.525-.535H26.44c-.29 0-.525.24-.525.535 0 .295.235.534.525.534zm-8.063 11.78l-.316.02c-.74.053-1.46.182-2.12.382-.19.057-.37.12-.55.187l-.37.154c-.26.12-.38.434-.27.704.09.2.28.32.48.32l.17-.03.05-.01.45-.17c.65-.23 1.37-.38 2.13-.45l.42-.02c.29-.01.52-.26.5-.55-.01-.29-.25-.52-.54-.51zm1.59.016h-.14c-.29 0-.524.24-.524.534 0 .295.235.534.525.534h.14c.29 0 .526-.24.526-.534 0-.295-.235-.534-.526-.534z" fill="#3A434E"/></g></svg>