<svg width="32" height="232" viewBox="0 0 32 232" xmlns="http://www.w3.org/2000/svg"><g fill="none"><path d="M2.47 130.033c-.284 0-.516.24-.516.534v2.894c0 .3.232.54.517.54.29 0 .52-.24.52-.53v-.91h.41v.92c0 .3.23.54.52.54.29 0 .52-.24.52-.53v-2.89c0-.29-.23-.53-.51-.53-.29 0-.52.24-.52.54v.92H3v-.91c0-.29-.23-.53-.516-.53zm5.242-.46c-.285 0-.516.237-.516.532V133c0 .294.23.532.516.532l.033-.004.034.004h.58c.28 0 .51-.238.51-.533 0-.3-.23-.54-.52-.54h-.14v-2.36c0-.3-.23-.54-.52-.54zm1.79.153c-.284 0-.515.24-.515.534v2.893c0 .295.23.534.516.534l.033-.004.033.004h.58c.28 0 .51-.24.51-.534 0-.294-.23-.534-.52-.534H10v-2.36c0-.3-.23-.54-.515-.54zm-3.668 4.022c.644 0 1.17-.54 1.17-1.207v-1.6c0-.66-.526-1.2-1.17-1.2s-1.17.54-1.17 1.21v1.61c0 .67.525 1.21 1.17 1.21zm-.136-2.815c0-.078.06-.14.136-.14.075 0 .136.062.136.14v1.608c0 .08-.06.14-.136.14-.075 0-.136-.06-.136-.14v-1.6zM17 134.516c.645 0 1.17-.542 1.17-1.207v-1.61c0-.67-.524-1.21-1.17-1.21s-1.168.54-1.168 1.2v1.61c0 .66.524 1.2 1.17 1.2zm-.135-2.815c0-.07.06-.14.136-.14.08 0 .14.07.14.14v1.61c0 .08-.06.14-.13.14s-.13-.06-.13-.14v-1.61zm-5.48 2.3c.286 0 .517-.24.517-.53v-1.1l.602-1.59c.103-.27-.028-.58-.294-.69-.265-.1-.565.03-.668.31l-.156.41-.156-.41c-.103-.27-.403-.41-.67-.3-.265.11-.396.42-.293.69l.602 1.6v1.11c0 .3.23.54.51.54zm2.087.22l.06.01c.21 0 .402-.13.48-.34l.138-.36.14.37c.077.21.27.34.48.34h.058c.233-.02.418-.21.452-.45l.413-2.95c.04-.29-.155-.56-.437-.6-.284-.04-.544.16-.585.45l-.14 1.04-.01-.01-.02-.02-.05-.04-.02-.013-.08-.042-.02-.01-.05-.013h-.04l-.03-.002h-.07l-.05.01-.02.006-.07.026-.08.04-.02.014-.05.04-.02.02-.01.01-.14-1.036c-.04-.29-.3-.49-.58-.45-.28.04-.48.31-.44.605l.42 2.955c.03.24.22.428.45.457zm-9.812 3.92c.183.23.51.26.727.07.158-.13.357-.2.56-.18.14.02.272.07.383.15l.007.02c.084.19.267.31.468.31h.06c.2 0 .38-.12.467-.3l.007-.01c.11-.08.24-.13.38-.14.2-.01.4.05.56.19.22.19.54.16.73-.06.18-.22.15-.56-.07-.75-.37-.32-.84-.47-1.32-.43-.29.03-.56.12-.8.28-.24-.15-.51-.25-.8-.27-.48-.04-.95.11-1.32.43-.22.19-.25.53-.07.75zm27.31-.48h-4.413v-1.59c0-.35-.162-.65-.413-.85v-3.37l1.5.26 1.292 2.29c.066.12.173.21.3.24l1.158.36.147.02c.23 0 .43-.15.5-.38.08-.28-.07-.58-.35-.66l-.96-.29-1.31-2.31c-.07-.14-.21-.234-.36-.26l-1.91-.33v-4.88c0-.59-.46-1.063-1.03-1.063h-.77v-3.02c0-.296-.23-.534-.51-.534s-.51.24-.51.53v3.02h-.77v-3.02c0-.292-.23-.53-.51-.53s-.51.238-.51.53v3.02h-.73c-.57 0-1.03.473-1.03 1.06v2.69l-3.13-1.43-1.09-2.99c-.08-.23-.31-.37-.54-.34l-3.48.433-.17.053-1.97 1.01-1.68-.43c-.12-.03-.25-.01-.36.046l-2.95 1.54-.06.04-2.29 1.64c-.23.17-.29.5-.13.74.16.24.49.3.72.134l2.27-1.62 2.74-1.45 1.67.42c.12.03.25.01.36-.04l2.05-1.06 2.99-.38 1.02 2.8c.05.135.15.24.277.3l3.75 1.72v.946l-.15-.01c-.64 0-1.17.54-1.17 1.206v1.61c0 .67.53 1.21 1.17 1.21l.16-.01v.54c-.25.19-.41.5-.41.85v1.59h-3.12V137c0-.59-.46-1.07-1.03-1.07h-3.65c-.57 0-1.03.48-1.03 1.07v4.1h-2c-.283 0-.513.24-.513.536v2.13h-.85v-3.22c0-.296-.23-.534-.515-.534H3.44c-.287 0-.517.24-.517.53v1.13h-.44c-.286 0-.518.235-.518.53 0 .29.232.53.517.53h.95c.28 0 .51-.24.51-.535v-1.13h2.18v3.22c0 .3.23.54.51.54h1.88c.28 0 .52-.24.52-.54v-2.13h1.47v4.65l-.2.01c-.31 0-.44-.055-.62-.13-.22-.09-.5-.2-1-.2s-.777.11-1 .2c-.185.075-.316.128-.62.128-.31 0-.44-.052-.62-.126-.225-.09-.5-.2-1-.2s-.78.11-1 .2c-.18.07-.312.13-.62.13s-.44-.06-.62-.13c-.22-.09-.495-.2-.996-.2-.504 0-.778.11-1 .2-.182.07-.313.12-.62.12-.286 0-.517.24-.517.53 0 .295.23.533.51.533.5 0 .78-.11 1-.2.18-.074.31-.127.62-.127s.44.05.62.13c.22.09.49.2.99.2s.77-.11.99-.2c.18-.077.32-.13.62-.13s.44.052.62.126c.22.09.49.2.99.2s.78-.11 1-.2c.18-.07.31-.124.62-.124s.44.05.62.124c.22.09.5.2 1 .2l.19-.01v1.72H.54c-.284 0-.514.24-.514.532 0 .292.23.53.516.53h30.432l.206-.044c.476-.1.83-.53.83-1.05V138.7c0-.59-.46-1.066-1.03-1.066zm-11.25-4.18c0 .08-.06.14-.136.14-.075 0-.136-.06-.136-.14v-1.61c0-.07.06-.14.136-.14.075 0 .136.07.136.14v1.61zm-3.467 6.32h3.1v8.73h-3.1v-8.72zm5.554-5.33v-7.51h2.273V135h-2.273v-.54zm2.685 2.68v11.38h-3.075v-9.79l-.023-.22v-1.37h3.098zm2.065 2.67h3.38v8.73h-3.38v-8.73zm-13.99-1.73h1.578v10.45h-1.578v-10.46z" fill="#206FAC"/><path d="M2.47 90.033c-.284 0-.516.24-.516.534v2.894c0 .3.232.54.517.54.29 0 .52-.24.52-.53v-.91h.41v.92c0 .3.23.54.52.54.29 0 .52-.24.52-.53v-2.9c0-.29-.23-.53-.51-.53-.29 0-.52.24-.52.54v.92H3v-.92c0-.29-.23-.53-.516-.53zm5.242-.46c-.285 0-.516.237-.516.532V93c0 .294.23.532.516.532l.033-.004.034.004h.58c.28 0 .51-.238.51-.533 0-.3-.23-.54-.52-.54h-.14V90.1c0-.295-.23-.533-.52-.533zm1.79.153c-.284 0-.515.24-.515.534v2.893c0 .295.23.534.516.534l.033-.004.033.004h.58c.28 0 .51-.24.51-.534 0-.294-.23-.534-.52-.534H10v-2.36c0-.3-.23-.54-.515-.54zm-3.668 4.022c.644 0 1.17-.54 1.17-1.207v-1.6c0-.66-.526-1.2-1.17-1.2s-1.17.54-1.17 1.21v1.61c0 .67.525 1.21 1.17 1.21zm-.136-2.815c0-.078.06-.14.136-.14.075 0 .136.062.136.14v1.608c0 .08-.06.14-.136.14-.075 0-.136-.06-.136-.14v-1.6zM17 94.516c.645 0 1.17-.542 1.17-1.207V91.7c0-.665-.524-1.206-1.17-1.206s-1.168.54-1.168 1.207v1.61c0 .67.524 1.21 1.17 1.21zm-.135-2.815c0-.07.06-.14.136-.14.08 0 .14.07.14.14v1.61c0 .08-.06.14-.13.14s-.13-.06-.13-.14V91.7zm-5.48 2.3c.286 0 .517-.24.517-.53v-1.11l.602-1.59c.103-.27-.028-.58-.294-.69-.265-.1-.565.03-.668.31l-.156.42-.156-.42c-.103-.27-.403-.41-.67-.3-.265.11-.396.42-.293.69l.602 1.6v1.11c0 .3.23.53.51.53zm2.087.22l.06.01c.21 0 .402-.13.48-.34l.138-.36.14.37c.077.21.27.34.48.34h.058c.233-.02.418-.21.452-.45l.413-2.95c.04-.29-.155-.56-.437-.6-.284-.04-.544.16-.585.45l-.14 1.04-.01-.01-.02-.02-.05-.04-.02-.013-.08-.042-.02-.01-.05-.013h-.04l-.03-.002h-.07l-.05.01-.02.006-.07.026-.08.04-.02.014-.05.04-.02.02-.01.01-.14-1.036c-.04-.29-.3-.49-.58-.45-.28.04-.48.31-.44.605l.42 2.955c.03.24.22.428.45.457zM3.66 98.13c.183.226.51.255.727.065.158-.136.357-.2.56-.182.14.015.272.066.383.15l.007.014c.084.188.267.308.468.308h.06c.2 0 .38-.12.467-.307l.007-.015c.11-.083.24-.135.38-.147.2-.017.4.047.56.183.22.19.54.16.73-.07.18-.23.15-.56-.07-.75-.37-.32-.84-.47-1.32-.43-.29.02-.56.12-.8.27-.24-.16-.51-.25-.8-.28-.48-.04-.95.11-1.32.43-.22.19-.25.52-.07.75zm27.31-.485h-4.413V96.05c0-.35-.162-.66-.413-.853v-3.372l1.5.254 1.292 2.28c.066.11.173.2.3.24l1.158.35.147.02c.23 0 .43-.15.5-.38.08-.29-.07-.58-.35-.67l-.96-.29-1.31-2.32c-.07-.14-.21-.24-.36-.26l-1.91-.33v-4.88c0-.59-.46-1.07-1.03-1.07h-.77v-3.01c0-.3-.23-.54-.51-.54s-.51.24-.51.53v3.01h-.77v-3.02c0-.29-.23-.53-.51-.53s-.51.24-.51.53v3.02h-.73c-.57 0-1.03.47-1.03 1.06v2.69l-3.13-1.43-1.09-2.99c-.08-.23-.31-.37-.54-.34l-3.48.435-.17.05-1.96 1.02-1.68-.424c-.122-.03-.25-.01-.36.047L4.4 86.45l-.06.036-2.293 1.64c-.236.16-.295.5-.13.74.16.24.48.3.72.13l2.26-1.62 2.745-1.45 1.68.42c.12.03.25.01.36-.04l2.06-1.06 2.99-.38 1.02 2.8c.05.132.15.24.28.3l3.75 1.72v.943l-.155-.01c-.65 0-1.17.54-1.17 1.2v1.61c0 .667.52 1.21 1.17 1.21l.155-.01v.535c-.25.192-.41.5-.41.85v1.594h-3.12v-.665c0-.59-.46-1.07-1.03-1.07h-3.64c-.57 0-1.03.48-1.03 1.07v4.106h-2c-.29 0-.52.24-.52.53v2.13h-.85v-3.22c0-.29-.23-.53-.516-.53H3.43c-.286 0-.516.24-.516.535v1.13h-.437c-.285 0-.517.237-.517.53 0 .295.232.534.517.534h.954c.28 0 .51-.24.51-.537v-1.13h2.18v3.22c0 .293.23.53.51.53h1.88c.28 0 .52-.24.52-.536v-2.13h1.47v4.65l-.2.01c-.31 0-.44-.052-.62-.13-.22-.09-.5-.2-1-.2s-.78.11-1 .2c-.19.078-.32.13-.62.13-.31 0-.44-.052-.62-.13-.23-.09-.5-.2-1-.2s-.78.11-1 .2c-.18.077-.31.13-.62.13s-.44-.054-.62-.13c-.22-.09-.5-.2-1-.2s-.78.11-1 .2c-.18.07-.31.126-.62.126-.28 0-.52.24-.52.53 0 .294.23.532.52.532.5 0 .78-.11 1-.2.18-.078.31-.13.62-.13s.44.05.62.125c.22.09.5.2 1 .2s.78-.11 1-.2c.19-.072.32-.13.62-.13s.44.05.63.13c.22.09.49.2.99.2.51 0 .78-.11 1-.2.18-.08.31-.13.62-.13s.44.05.62.13c.22.09.5.2 1 .2l.2-.01v1.72H.54c-.284 0-.514.24-.514.53 0 .293.23.53.516.53h30.432l.206-.05c.476-.1.83-.53.83-1.04V98.7c0-.59-.46-1.067-1.03-1.067zm-11.25-4.18c0 .077-.06.14-.136.14-.075 0-.136-.063-.136-.14v-1.608c0-.077.06-.14.136-.14.075 0 .136.063.136.14v1.608zm-3.467 6.313h3.1v8.724h-3.1V99.78zm5.554-5.336v-7.516h2.273v8.056h-2.273v-.54zm2.685 2.674V108.5h-3.075v-9.79l-.023-.225v-1.372h3.098zm2.065 2.663h3.38v8.72h-3.38v-8.73zm-13.99-1.73h1.578v10.45h-1.578V98.04z" fill="#fff"/><path d="M2.47 50.033c-.284 0-.516.24-.516.534v2.894c0 .3.232.54.517.54.29 0 .52-.24.52-.53v-.91h.41v.92c0 .3.23.54.52.54.29 0 .52-.24.52-.53v-2.9c0-.29-.23-.53-.51-.53-.29 0-.52.24-.52.54v.92H3v-.92c0-.29-.23-.53-.516-.53zm5.242-.46c-.285 0-.516.237-.516.532V53c0 .294.23.532.516.532l.033-.004.034.004h.58c.28 0 .51-.238.51-.533 0-.3-.23-.54-.52-.54h-.14V50.1c0-.295-.23-.533-.52-.533zm1.79.153c-.284 0-.515.24-.515.534v2.893c0 .295.23.534.516.534l.033-.004.033.004h.58c.28 0 .51-.24.51-.534 0-.294-.23-.534-.52-.534H10v-2.36c0-.3-.23-.54-.515-.54zm-3.668 4.022c.644 0 1.17-.54 1.17-1.207v-1.6c0-.66-.526-1.2-1.17-1.2s-1.17.54-1.17 1.21v1.61c0 .67.525 1.21 1.17 1.21zm-.136-2.815c0-.078.06-.14.136-.14.075 0 .136.062.136.14v1.608c0 .08-.06.14-.136.14-.075 0-.136-.06-.136-.14v-1.6zM17 54.516c.645 0 1.17-.542 1.17-1.207V51.7c0-.665-.524-1.206-1.17-1.206s-1.168.54-1.168 1.207v1.61c0 .67.524 1.21 1.17 1.21zm-.135-2.815c0-.07.06-.14.136-.14.08 0 .14.07.14.14v1.61c0 .08-.06.14-.13.14s-.13-.06-.13-.14V51.7zm-5.48 2.3c.286 0 .517-.24.517-.53v-1.11l.602-1.59c.103-.27-.028-.58-.294-.69-.265-.1-.565.03-.668.31l-.156.42-.156-.42c-.103-.27-.403-.41-.67-.3-.265.11-.396.42-.293.69l.602 1.6v1.11c0 .3.23.53.51.53zm2.087.22l.06.01c.21 0 .402-.13.48-.34l.138-.36.14.37c.077.21.27.34.48.34h.058c.233-.02.418-.21.452-.45l.413-2.95c.04-.29-.155-.56-.437-.6-.284-.04-.544.16-.585.45l-.14 1.04-.01-.01-.02-.02-.05-.04-.02-.013-.08-.042-.02-.01-.05-.013h-.04l-.03-.002h-.07l-.05.01-.02.006-.07.026-.08.04-.02.014-.05.04-.02.02-.01.01-.14-1.036c-.04-.29-.3-.49-.58-.45-.28.04-.48.31-.44.605l.42 2.955c.03.24.22.428.45.457zM3.66 58.13c.183.226.51.255.727.065.158-.136.357-.2.56-.182.14.015.272.066.383.15l.007.014c.084.188.267.308.468.308h.06c.2 0 .38-.12.467-.307l.007-.015c.11-.083.24-.135.38-.147.2-.017.4.047.56.183.22.19.54.16.73-.07.18-.23.15-.56-.07-.75-.37-.32-.84-.47-1.32-.43-.29.02-.56.12-.8.27-.24-.16-.51-.25-.8-.28-.48-.04-.95.11-1.32.43-.22.19-.25.52-.07.75zm27.31-.485h-4.413V56.05c0-.35-.162-.66-.413-.853v-3.372l1.5.254 1.292 2.28c.066.11.173.2.3.24l1.158.35.147.02c.23 0 .43-.15.5-.38.08-.29-.07-.58-.35-.67l-.96-.29-1.31-2.32c-.07-.14-.21-.24-.36-.26l-1.91-.33v-4.88c0-.59-.46-1.07-1.03-1.07h-.77v-3.01c0-.3-.23-.54-.51-.54s-.51.24-.51.53v3.01h-.77v-3.02c0-.29-.23-.53-.51-.53s-.51.24-.51.53v3.02h-.73c-.57 0-1.03.47-1.03 1.06v2.69l-3.13-1.43-1.09-2.99c-.08-.23-.31-.37-.54-.34l-3.48.435-.17.05-1.96 1.02-1.68-.424c-.122-.03-.25-.01-.36.047L4.4 46.45l-.06.036-2.293 1.64c-.236.16-.295.5-.13.74.16.24.48.3.72.13l2.26-1.62 2.745-1.45 1.68.42c.12.03.25.01.36-.04l2.06-1.06 2.99-.38 1.02 2.8c.05.132.15.24.28.3l3.75 1.72v.943l-.155-.01c-.65 0-1.17.54-1.17 1.2v1.61c0 .667.52 1.21 1.17 1.21l.155-.01v.535c-.25.192-.41.5-.41.85v1.594h-3.12v-.665c0-.59-.46-1.07-1.03-1.07h-3.64c-.57 0-1.03.48-1.03 1.07v4.106h-2c-.29 0-.52.24-.52.53v2.13h-.85V60.5c0-.294-.23-.53-.516-.53H3.43c-.286 0-.516.236-.516.53v1.13h-.437c-.285 0-.517.24-.517.54 0 .29.232.53.517.53h.954c.28 0 .51-.24.51-.536v-1.13h2.18v3.22c0 .293.23.53.51.53h1.88c.28 0 .52-.24.52-.53v-2.13h1.47v4.65l-.2.01c-.31 0-.44-.056-.62-.13-.22-.09-.5-.2-1-.2s-.78.11-1 .2c-.19.074-.32.13-.62.13-.31 0-.44-.06-.62-.13-.23-.09-.5-.2-1-.2s-.78.11-1 .2c-.18.07-.31.124-.62.124s-.44-.054-.62-.128c-.22-.09-.5-.2-1-.2s-.78.11-1 .2c-.18.07-.31.123-.62.123-.28 0-.52.24-.52.534 0 .3.23.537.52.537.5 0 .78-.11 1-.2.18-.075.31-.13.62-.13s.44.055.62.13c.22.09.5.2 1 .2s.78-.11 1-.2c.19-.074.32-.13.62-.13s.44.06.63.13c.22.09.49.2.99.2.51 0 .78-.11 1-.2.18-.07.31-.123.62-.123s.44.06.62.13c.22.09.5.2 1 .2l.2-.01v1.72H.54c-.284 0-.514.24-.514.54 0 .3.23.54.516.54h30.432l.206-.04c.476-.1.83-.53.83-1.04V58.71c0-.59-.46-1.068-1.03-1.068zm-11.25-4.18c0 .077-.06.14-.136.14-.075 0-.136-.063-.136-.14v-1.608c0-.077.06-.14.136-.14.075 0 .136.063.136.14v1.608zm-3.467 6.313h3.1V68.5h-3.1v-8.724zm5.554-5.336v-7.516h2.273v8.056h-2.273v-.54zm2.685 2.674V68.5h-3.075v-9.79l-.023-.225v-1.372h3.098zm2.065 2.663h3.38v8.72h-3.38v-8.73zm-13.99-1.73h1.578V68.5h-1.578V58.043z" fill="#67737B"/><path d="M2.47 10.033c-.284 0-.516.24-.516.534v2.894c0 .3.232.54.517.54.29 0 .52-.24.52-.53v-.91h.41v.92c0 .3.23.54.52.54.29 0 .52-.24.52-.53v-2.9c0-.29-.23-.53-.51-.53-.29 0-.52.24-.52.54v.92H3v-.92c0-.29-.23-.53-.516-.53zm5.242-.46c-.285 0-.516.237-.516.532V13c0 .294.23.532.516.532l.033-.004.034.004h.58c.28 0 .51-.238.51-.533 0-.3-.23-.54-.52-.54h-.14V10.1c0-.295-.23-.533-.52-.533zm1.79.153c-.284 0-.515.24-.515.534v2.893c0 .295.23.534.516.534l.033-.004.033.004h.58c.28 0 .51-.24.51-.534 0-.294-.23-.534-.52-.534H10v-2.36c0-.3-.23-.54-.515-.54zm-3.668 4.022c.644 0 1.17-.54 1.17-1.207v-1.6c0-.66-.526-1.2-1.17-1.2s-1.17.54-1.17 1.21v1.61c0 .67.525 1.21 1.17 1.21zm-.136-2.815c0-.078.06-.14.136-.14.075 0 .136.062.136.14v1.608c0 .08-.06.14-.136.14-.075 0-.136-.06-.136-.14v-1.6zM17 14.516c.645 0 1.17-.542 1.17-1.207V11.7c0-.665-.524-1.206-1.17-1.206s-1.168.54-1.168 1.207v1.61c0 .67.524 1.21 1.17 1.21zm-.135-2.815c0-.07.06-.14.136-.14.08 0 .14.07.14.14v1.61c0 .08-.06.14-.13.14s-.13-.06-.13-.14V11.7zm-5.48 2.3c.286 0 .517-.24.517-.53v-1.11l.602-1.59c.103-.27-.028-.58-.294-.69-.265-.1-.565.03-.668.31l-.156.42-.156-.42c-.103-.27-.403-.41-.67-.3-.265.11-.396.42-.293.69l.602 1.6v1.11c0 .3.23.53.51.53zm2.087.22l.06.01c.21 0 .402-.13.48-.34l.138-.36.14.37c.077.21.27.34.48.34h.058c.233-.02.418-.21.452-.45l.413-2.95c.04-.29-.155-.56-.437-.6-.284-.04-.544.16-.585.45l-.14 1.04-.01-.01-.02-.02-.05-.04-.02-.013-.08-.042-.02-.01-.05-.013h-.04l-.03-.002h-.07l-.05.01-.02.006-.07.026-.08.04-.02.014-.05.04-.02.02-.01.01-.14-1.036c-.04-.29-.3-.49-.58-.45-.28.04-.48.31-.44.605l.42 2.955c.03.24.22.428.45.457zM3.66 18.13c.183.226.51.255.727.065.158-.136.357-.2.56-.182.14.015.272.066.383.15l.007.014c.084.188.267.308.468.308h.06c.2 0 .38-.12.467-.307l.007-.015c.11-.083.24-.135.38-.147.2-.017.4.047.56.183.22.19.54.16.73-.07.18-.23.15-.56-.07-.75-.37-.32-.84-.47-1.32-.43-.29.02-.56.12-.8.27-.24-.16-.51-.25-.8-.28-.48-.04-.95.11-1.32.43-.22.19-.25.52-.07.75zm27.31-.485h-4.413V16.05c0-.35-.162-.66-.413-.853v-3.372l1.5.254 1.292 2.28c.066.11.173.2.3.24l1.158.35.147.02c.23 0 .43-.15.5-.38.08-.29-.07-.58-.35-.67l-.96-.29-1.31-2.32c-.07-.14-.21-.24-.36-.26l-1.91-.33V5.86c0-.59-.46-1.067-1.03-1.067h-.77v-3.02c0-.295-.23-.533-.51-.533s-.51.236-.51.53v3.02h-.77V1.772c0-.295-.23-.533-.51-.533s-.51.23-.51.53v3.02h-.73c-.57 0-1.03.47-1.03 1.06v2.69l-3.15-1.43-1.09-2.99c-.08-.23-.3-.38-.54-.35l-3.48.43-.17.05-1.97 1.02-1.68-.42c-.13-.03-.25-.02-.36.04L4.39 6.45l-.06.036-2.29 1.64c-.233.168-.29.5-.13.743.163.24.485.3.72.13l2.262-1.62L7.63 5.94l1.672.422c.12.03.244.015.354-.04l2.054-1.06 2.99-.375 1.02 2.808c.05.134.148.242.274.3l3.75 1.72v.945l-.157-.012c-.645 0-1.17.54-1.17 1.207v1.608c0 .665.525 1.207 1.17 1.207l.158-.013v.537c-.25.194-.414.503-.414.852v1.596h-3.11v-.664c0-.59-.46-1.067-1.03-1.067h-3.65c-.57 0-1.03.48-1.03 1.07v4.11H8.52c-.286 0-.516.24-.516.54v2.13h-.85v-3.23c0-.29-.23-.53-.516-.53h-3.21c-.286 0-.516.24-.516.53v1.13h-.437c-.285 0-.517.24-.517.54 0 .3.232.54.517.54h.954c.28 0 .51-.24.51-.53v-1.13h2.18v3.22c0 .29.23.53.51.53h1.88c.28 0 .52-.24.52-.53v-2.13h1.47v4.65l-.2.01c-.31 0-.44-.05-.62-.12-.22-.09-.5-.2-1-.2s-.78.11-1 .2c-.19.08-.32.13-.62.13-.31 0-.44-.06-.62-.13-.23-.09-.5-.2-1-.2s-.78.11-1 .2c-.18.07-.32.13-.62.13s-.44-.05-.62-.13c-.22-.09-.5-.2-1-.2-.51 0-.78.11-1 .2-.18.08-.32.13-.62.13-.29 0-.52.24-.52.53 0 .3.23.54.51.54.5 0 .78-.11 1-.2.18-.074.31-.13.62-.13s.44.05.62.128c.22.09.49.2.99.2s.77-.11.99-.2c.18-.07.31-.124.62-.124s.44.056.62.13c.22.09.49.2.99.2s.78-.11 1-.2c.18-.073.31-.126.62-.126.3 0 .44.05.62.12.22.09.49.2.99.2l.19-.007v1.72H.54c-.284 0-.514.24-.514.54 0 .294.23.533.516.533h30.432l.206-.044c.476-.1.83-.53.83-1.04v-10.9c0-.59-.46-1.068-1.03-1.068zm-11.25-4.18c0 .077-.06.14-.136.14-.075 0-.136-.063-.136-.14v-1.608c0-.077.06-.14.136-.14.075 0 .136.063.136.14v1.608zm-3.467 6.313h3.1V28.5h-3.1v-8.724zm5.554-5.336V6.924h2.273v8.056h-2.273v-.54zm2.685 2.674V28.5h-3.075v-9.79l-.023-.225v-1.372h3.098zm2.065 2.663h3.38v8.72h-3.38v-8.73zm-13.99-1.73h1.578V28.5h-1.578V18.043z" fill="#3A434E"/></g></svg>