<svg width="32" height="232" viewBox="0 0 32 232" xmlns="http://www.w3.org/2000/svg"><g fill="none">
			<path id="XMLID_1984_" fill="#3A444F" d="M13.4,21.8c0.3,0.2,0.6,0.2,1,0.2c0.7,0,1.4-0.4,1.7-1c0.3-0.5,0.3-1,0.2-1.5
				c-0.1-0.5-0.5-0.9-0.9-1.2c-0.3-0.2-0.6-0.2-1-0.2c-0.7,0-1.4,0.4-1.7,1c-0.3,0.5-0.3,1-0.2,1.5C12.6,21.2,12.9,21.6,13.4,21.8z
				 M13.5,19.6c0.2-0.3,0.5-0.5,0.9-0.5c0.2,0,0.3,0,0.5,0.1c0.2,0.1,0.4,0.4,0.5,0.6c0.1,0.3,0,0.5-0.1,0.8
				c-0.2,0.3-0.5,0.5-0.9,0.5c-0.2,0-0.3,0-0.5-0.1c-0.2-0.1-0.4-0.4-0.5-0.6C13.3,20.1,13.3,19.9,13.5,19.6z"/>
			<path id="XMLID_1983_" fill="#3A444F" d="M11,23.5l2.3,1.3c0.1,0,0.2,0.1,0.2,0.1c0.2,0,0.3-0.1,0.4-0.2c0.1-0.2,0-0.5-0.2-0.6
				l-2.3-1.3c-0.2-0.1-0.5,0-0.6,0.2C10.7,23.1,10.7,23.4,11,23.5z"/>
			<path id="XMLID_1977_" fill="#3A444F" d="M25.2,4.4L25,4.2l0.1-0.1c0.1-0.2,0.1-0.4,0-0.6l-0.8-1c-0.1-0.1-0.2-0.2-0.3-0.2
				l-1.2-0.1c-0.2,0-0.4,0.1-0.5,0.3l-0.1,0.1l-0.2-0.1c-0.2-0.1-0.5,0-0.6,0.3s0,0.5,0.3,0.6l0.1,0.1l-0.1,0.1l-0.1,0
				c-0.2-0.1-0.5,0-0.6,0.3c-0.1,0.2,0,0.5,0.3,0.6l0.1,0l-0.1,0.1l0,0c-0.2-0.1-0.5,0-0.6,0.3c-0.1,0.2,0,0.5,0.3,0.6l-0.1,0.2
				c0,0.1-0.1,0.2,0,0.3l-3.9,6.9c-0.4-0.2-0.9-0.2-1.4-0.2c-1.6,0-3,0.9-3.8,2.2c-0.4,0.6-0.5,1.4-0.5,2.1c0,0.8-0.5,1.3-1.8,2
				c-0.9,0.5-1.6,1.2-2,2c-0.6,1.2-0.8,2.5-0.4,3.8c0.4,1.3,1.2,2.4,2.4,3L9.5,28l-0.1,0.2c-0.1,0.2,0,0.5,0.2,0.6
				c0.1,0,0.2,0.1,0.2,0.1c0.2,0,0.3-0.1,0.4-0.2l0.1-0.2l0.2,0.1c0,0,0,0,0.1,0c0,0,0,0,0,0l1.3,0.7c0.8,0.4,1.6,0.6,2.4,0.6
				c0.5,0,0.9-0.1,1.4-0.2c1.3-0.4,2.4-1.2,3-2.4c0.5-0.9,0.7-1.8,0.6-2.8c-0.1-1.5,0.1-2.2,0.7-2.6c0.6-0.4,1.1-0.9,1.5-1.6
				c0.6-1,0.7-2.2,0.4-3.3c-0.3-1.1-1.1-2-2.1-2.6l-0.8-0.4l3.7-7c0.1,0,0.2-0.1,0.3-0.2l0.1-0.2c0.1,0.1,0.2,0.1,0.3,0.1
				c0.1,0,0.3-0.1,0.4-0.2c0.2-0.2,0.1-0.5-0.1-0.7l0,0l0.1-0.1l0.1,0C24,6,24.1,6,24.2,6c0.1,0,0.3-0.1,0.4-0.2
				c0.2-0.2,0.1-0.5-0.1-0.7l-0.1-0.1L24.5,5l0.1,0.1c0.1,0.1,0.2,0.1,0.3,0.1c0.1,0,0.3-0.1,0.4-0.2C25.4,4.8,25.4,4.5,25.2,4.4z
				 M18.3,13.7l-0.4,0.8l-1.3,2.4l-0.8-0.4l1.3-2.3l0.5-0.8l3.8-6.8L22,6.9L18.3,13.7z M22.9,3.2l0.7,0.1l0.5,0.6l-1.5,2.3l-0.8-0.4
				L22.9,3.2z M7.7,24.6c-0.3-1-0.2-2.1,0.3-3.1c0.4-0.7,1-1.3,1.7-1.6c1.1-0.6,2.3-1.3,2.3-2.8c0-0.6,0.1-1.2,0.4-1.7
				c0.6-1.1,1.7-1.7,3-1.7c0.3,0,0.6,0,0.9,0.1l-1.5,2.6c-0.1,0.1-0.1,0.2,0,0.4c0,0.1,0.1,0.2,0.2,0.3l1.6,0.9
				c0.1,0,0.1,0.1,0.2,0.1c0,0,0.1,0,0.1,0c0.1,0,0.2-0.1,0.3-0.2l1.4-2.7c1.1,1,1.5,2.7,0.7,4.1c-0.3,0.5-0.7,0.9-1.2,1.2
				c-1.3,0.8-1.3,2.2-1.2,3.4c0.1,0.8-0.1,1.6-0.5,2.3c-0.7,1.3-2.1,2.1-3.6,2.1c-0.7,0-1.4-0.2-2-0.5L9.7,27
				C8.7,26.5,8,25.6,7.7,24.6z M21.1,17.4c0.3,0.9,0.1,1.8-0.3,2.6c-0.3,0.5-0.7,0.9-1.2,1.2c-1.3,0.8-1.3,2.2-1.2,3.4
				c0.1,0.8-0.1,1.6-0.5,2.3c-0.5,1-1.4,1.6-2.4,1.9c-0.4,0.1-0.8,0.2-1.3,0.2c1.3-0.3,2.5-1.2,3.1-2.4c0.5-0.9,0.7-1.8,0.6-2.8
				c-0.1-1.5,0.1-2.2,0.7-2.6c0.6-0.4,1.1-0.9,1.5-1.6c0.6-1,0.7-2.2,0.4-3.3C20.8,16.7,21,17,21.1,17.4z"/>
		</g>
		<g id="XMLID_2361_">
			<path id="XMLID_2369_" fill="#67737C" d="M13.4,61.8c0.3,0.2,0.6,0.2,1,0.2c0.7,0,1.4-0.4,1.7-1c0.3-0.5,0.3-1,0.2-1.5
				c-0.1-0.5-0.5-0.9-0.9-1.2c-0.3-0.2-0.6-0.2-1-0.2c-0.7,0-1.4,0.4-1.7,1c-0.3,0.5-0.3,1-0.2,1.5C12.6,61.2,12.9,61.6,13.4,61.8z
				 M13.5,59.6c0.2-0.3,0.5-0.5,0.9-0.5c0.2,0,0.3,0,0.5,0.1c0.2,0.1,0.4,0.4,0.5,0.6c0.1,0.3,0,0.5-0.1,0.8
				c-0.2,0.3-0.5,0.5-0.9,0.5c-0.2,0-0.3,0-0.5-0.1c-0.2-0.1-0.4-0.4-0.5-0.6C13.3,60.1,13.3,59.9,13.5,59.6z"/>
			<path id="XMLID_2368_" fill="#67737C" d="M11,63.5l2.3,1.3c0.1,0,0.2,0.1,0.2,0.1c0.2,0,0.3-0.1,0.4-0.2c0.1-0.2,0-0.5-0.2-0.6
				l-2.3-1.3c-0.2-0.1-0.5,0-0.6,0.2C10.7,63.1,10.7,63.4,11,63.5z"/>
			<path id="XMLID_2362_" fill="#67737C" d="M25.2,44.4L25,44.2l0.1-0.1c0.1-0.2,0.1-0.4,0-0.6l-0.8-1c-0.1-0.1-0.2-0.2-0.3-0.2
				l-1.2-0.1c-0.2,0-0.4,0.1-0.5,0.3l-0.1,0.1l-0.2-0.1c-0.2-0.1-0.5,0-0.6,0.3c-0.1,0.2,0,0.5,0.3,0.6l0.1,0.1l-0.1,0.1l-0.1,0
				c-0.2-0.1-0.5,0-0.6,0.3c-0.1,0.2,0,0.5,0.3,0.6l0.1,0l-0.1,0.1l0,0c-0.2-0.1-0.5,0-0.6,0.3c-0.1,0.2,0,0.5,0.3,0.6l-0.1,0.2
				c0,0.1-0.1,0.2,0,0.3l-3.9,6.9c-0.4-0.2-0.9-0.2-1.4-0.2c-1.6,0-3,0.9-3.8,2.2c-0.4,0.6-0.5,1.4-0.5,2.1c0,0.8-0.5,1.3-1.8,2
				c-0.9,0.5-1.6,1.2-2,2c-0.6,1.2-0.8,2.5-0.4,3.8c0.4,1.3,1.2,2.4,2.4,3L9.5,68l-0.1,0.2c-0.1,0.2,0,0.5,0.2,0.6
				c0.1,0,0.2,0.1,0.2,0.1c0.2,0,0.3-0.1,0.4-0.2l0.1-0.2l0.2,0.1c0,0,0,0,0.1,0c0,0,0,0,0,0l1.3,0.7c0.8,0.4,1.6,0.6,2.4,0.6
				c0.5,0,0.9-0.1,1.4-0.2c1.3-0.4,2.4-1.2,3-2.4c0.5-0.9,0.7-1.8,0.6-2.8c-0.1-1.5,0.1-2.2,0.7-2.6c0.6-0.4,1.1-0.9,1.5-1.6
				c0.6-1,0.7-2.2,0.4-3.3c-0.3-1.1-1.1-2-2.1-2.6l-0.8-0.4l3.7-7c0.1,0,0.2-0.1,0.3-0.2l0.1-0.2c0.1,0.1,0.2,0.1,0.3,0.1
				c0.1,0,0.3-0.1,0.4-0.2c0.2-0.2,0.1-0.5-0.1-0.7l0,0l0.1-0.1l0.1,0C24,46,24.1,46,24.2,46c0.1,0,0.3-0.1,0.4-0.2
				c0.2-0.2,0.1-0.5-0.1-0.7l-0.1-0.1l0.1-0.1l0.1,0.1c0.1,0.1,0.2,0.1,0.3,0.1c0.1,0,0.3-0.1,0.4-0.2
				C25.4,44.8,25.4,44.5,25.2,44.4z M18.3,53.7l-0.4,0.8l-1.3,2.4l-0.8-0.4l1.3-2.3l0.5-0.8l3.8-6.8l0.5,0.3L18.3,53.7z M22.9,43.2
				l0.7,0.1l0.5,0.6l-1.5,2.3l-0.8-0.4L22.9,43.2z M7.7,64.6c-0.3-1-0.2-2.1,0.3-3.1c0.4-0.7,1-1.3,1.7-1.6c1.1-0.6,2.3-1.3,2.3-2.8
				c0-0.6,0.1-1.2,0.4-1.7c0.6-1.1,1.7-1.7,3-1.7c0.3,0,0.6,0,0.9,0.1l-1.5,2.6c-0.1,0.1-0.1,0.2,0,0.4c0,0.1,0.1,0.2,0.2,0.3
				l1.6,0.9c0.1,0,0.1,0.1,0.2,0.1c0,0,0.1,0,0.1,0c0.1,0,0.2-0.1,0.3-0.2l1.4-2.7c1.1,1,1.5,2.7,0.7,4.1c-0.3,0.5-0.7,0.9-1.2,1.2
				c-1.3,0.8-1.3,2.2-1.2,3.4c0.1,0.8-0.1,1.6-0.5,2.3c-0.7,1.3-2.1,2.1-3.6,2.1c-0.7,0-1.4-0.2-2-0.5L9.7,67
				C8.7,66.5,8,65.6,7.7,64.6z M21.1,57.4c0.3,0.9,0.1,1.8-0.3,2.6c-0.3,0.5-0.7,0.9-1.2,1.2c-1.3,0.8-1.3,2.2-1.2,3.4
				c0.1,0.8-0.1,1.6-0.5,2.3c-0.5,1-1.4,1.6-2.4,1.9c-0.4,0.1-0.8,0.2-1.3,0.2c1.3-0.3,2.5-1.2,3.1-2.4c0.5-0.9,0.7-1.8,0.6-2.8
				c-0.1-1.5,0.1-2.2,0.7-2.6c0.6-0.4,1.1-0.9,1.5-1.6c0.6-1,0.7-2.2,0.4-3.3C20.8,56.7,21,57,21.1,57.4z"/>
		</g>
		<g id="XMLID_2530_">
			<path id="XMLID_2538_" fill="#FFFFFF" d="M13.4,101.8c0.3,0.2,0.6,0.2,1,0.2c0.7,0,1.4-0.4,1.7-1c0.3-0.5,0.3-1,0.2-1.5
				c-0.1-0.5-0.5-0.9-0.9-1.2c-0.3-0.2-0.6-0.2-1-0.2c-0.7,0-1.4,0.4-1.7,1c-0.3,0.5-0.3,1-0.2,1.5
				C12.6,101.2,12.9,101.6,13.4,101.8z M13.5,99.6c0.2-0.3,0.5-0.5,0.9-0.5c0.2,0,0.3,0,0.5,0.1c0.2,0.1,0.4,0.4,0.5,0.6
				c0.1,0.3,0,0.5-0.1,0.8c-0.2,0.3-0.5,0.5-0.9,0.5c-0.2,0-0.3,0-0.5-0.1c-0.2-0.1-0.4-0.4-0.5-0.6C13.3,100.1,13.3,99.9,13.5,99.6
				z"/>
			<path id="XMLID_2537_" fill="#FFFFFF" d="M11,103.5l2.3,1.3c0.1,0,0.2,0.1,0.2,0.1c0.2,0,0.3-0.1,0.4-0.2c0.1-0.2,0-0.5-0.2-0.6
				l-2.3-1.3c-0.2-0.1-0.5,0-0.6,0.2C10.7,103.1,10.7,103.4,11,103.5z"/>
			<path id="XMLID_2531_" fill="#FFFFFF" d="M25.2,84.4L25,84.2l0.1-0.1c0.1-0.2,0.1-0.4,0-0.6l-0.8-1c-0.1-0.1-0.2-0.2-0.3-0.2
				l-1.2-0.1c-0.2,0-0.4,0.1-0.5,0.3l-0.1,0.1l-0.2-0.1c-0.2-0.1-0.5,0-0.6,0.3s0,0.5,0.3,0.6l0.1,0.1l-0.1,0.1l-0.1,0
				c-0.2-0.1-0.5,0-0.6,0.3c-0.1,0.2,0,0.5,0.3,0.6l0.1,0l-0.1,0.1l0,0c-0.2-0.1-0.5,0-0.6,0.3c-0.1,0.2,0,0.5,0.3,0.6l-0.1,0.2
				c0,0.1-0.1,0.2,0,0.3l-3.9,6.9c-0.4-0.2-0.9-0.2-1.4-0.2c-1.6,0-3,0.9-3.8,2.2c-0.4,0.6-0.5,1.4-0.5,2.1c0,0.8-0.5,1.3-1.8,2
				c-0.9,0.5-1.6,1.2-2,2c-0.6,1.2-0.8,2.5-0.4,3.8c0.4,1.3,1.2,2.4,2.4,3l0.2,0.1l-0.1,0.2c-0.1,0.2,0,0.5,0.2,0.6
				c0.1,0,0.2,0.1,0.2,0.1c0.2,0,0.3-0.1,0.4-0.2l0.1-0.2l0.2,0.1c0,0,0,0,0.1,0c0,0,0,0,0,0l1.3,0.7c0.8,0.4,1.6,0.6,2.4,0.6
				c0.5,0,0.9-0.1,1.4-0.2c1.3-0.4,2.4-1.2,3-2.4c0.5-0.9,0.7-1.8,0.6-2.8c-0.1-1.5,0.1-2.2,0.7-2.6c0.6-0.4,1.1-0.9,1.5-1.6
				c0.6-1,0.7-2.2,0.4-3.3c-0.3-1.1-1.1-2-2.1-2.6l-0.8-0.4l3.7-7c0.1,0,0.2-0.1,0.3-0.2l0.1-0.2c0.1,0.1,0.2,0.1,0.3,0.1
				c0.1,0,0.3-0.1,0.4-0.2c0.2-0.2,0.1-0.5-0.1-0.7l0,0l0.1-0.1l0.1,0C24,86,24.1,86,24.2,86c0.1,0,0.3-0.1,0.4-0.2
				c0.2-0.2,0.1-0.5-0.1-0.7l-0.1-0.1l0.1-0.1l0.1,0.1c0.1,0.1,0.2,0.1,0.3,0.1c0.1,0,0.3-0.1,0.4-0.2
				C25.4,84.8,25.4,84.5,25.2,84.4z M18.3,93.7l-0.4,0.8l-1.3,2.4l-0.8-0.4l1.3-2.3l0.5-0.8l3.8-6.8l0.5,0.3L18.3,93.7z M22.9,83.2
				l0.7,0.1l0.5,0.6l-1.5,2.3l-0.8-0.4L22.9,83.2z M7.7,104.6c-0.3-1-0.2-2.1,0.3-3.1c0.4-0.7,1-1.3,1.7-1.6
				c1.1-0.6,2.3-1.3,2.3-2.8c0-0.6,0.1-1.2,0.4-1.7c0.6-1.1,1.7-1.7,3-1.7c0.3,0,0.6,0,0.9,0.1l-1.5,2.6c-0.1,0.1-0.1,0.2,0,0.4
				c0,0.1,0.1,0.2,0.2,0.3l1.6,0.9c0.1,0,0.1,0.1,0.2,0.1c0,0,0.1,0,0.1,0c0.1,0,0.2-0.1,0.3-0.2l1.4-2.7c1.1,1,1.5,2.7,0.7,4.1
				c-0.3,0.5-0.7,0.9-1.2,1.2c-1.3,0.8-1.3,2.2-1.2,3.4c0.1,0.8-0.1,1.6-0.5,2.3c-0.7,1.3-2.1,2.1-3.6,2.1c-0.7,0-1.4-0.2-2-0.5
				L9.7,107C8.7,106.5,8,105.6,7.7,104.6z M21.1,97.4c0.3,0.9,0.1,1.8-0.3,2.6c-0.3,0.5-0.7,0.9-1.2,1.2c-1.3,0.8-1.3,2.2-1.2,3.4
				c0.1,0.8-0.1,1.6-0.5,2.3c-0.5,1-1.4,1.6-2.4,1.9c-0.4,0.1-0.8,0.2-1.3,0.2c1.3-0.3,2.5-1.2,3.1-2.4c0.5-0.9,0.7-1.8,0.6-2.8
				c-0.1-1.5,0.1-2.2,0.7-2.6c0.6-0.4,1.1-0.9,1.5-1.6c0.6-1,0.7-2.2,0.4-3.3C20.8,96.7,21,97,21.1,97.4z"/>
		</g>
		<g id="XMLID_2647_">
			<path id="XMLID_2655_" fill="#1D70AD" d="M13.4,141.8c0.3,0.2,0.6,0.2,1,0.2c0.7,0,1.4-0.4,1.7-1c0.3-0.5,0.3-1,0.2-1.5
				c-0.1-0.5-0.5-0.9-0.9-1.2c-0.3-0.2-0.6-0.2-1-0.2c-0.7,0-1.4,0.4-1.7,1c-0.3,0.5-0.3,1-0.2,1.5
				C12.6,141.2,12.9,141.6,13.4,141.8z M13.5,139.6c0.2-0.3,0.5-0.5,0.9-0.5c0.2,0,0.3,0,0.5,0.1c0.2,0.1,0.4,0.4,0.5,0.6
				c0.1,0.3,0,0.5-0.1,0.8c-0.2,0.3-0.5,0.5-0.9,0.5c-0.2,0-0.3,0-0.5-0.1c-0.2-0.1-0.4-0.4-0.5-0.6
				C13.3,140.1,13.3,139.9,13.5,139.6z"/>
			<path id="XMLID_2654_" fill="#1D70AD" d="M11,143.5l2.3,1.3c0.1,0,0.2,0.1,0.2,0.1c0.2,0,0.3-0.1,0.4-0.2c0.1-0.2,0-0.5-0.2-0.6
				l-2.3-1.3c-0.2-0.1-0.5,0-0.6,0.2C10.7,143.1,10.7,143.4,11,143.5z"/>
			<path id="XMLID_2648_" fill="#1D70AD" d="M25.2,124.4l-0.2-0.1l0.1-0.1c0.1-0.2,0.1-0.4,0-0.6l-0.8-1c-0.1-0.1-0.2-0.2-0.3-0.2
				l-1.2-0.1c-0.2,0-0.4,0.1-0.5,0.3l-0.1,0.1l-0.2-0.1c-0.2-0.1-0.5,0-0.6,0.3s0,0.5,0.3,0.6l0.1,0.1l-0.1,0.1l-0.1,0
				c-0.2-0.1-0.5,0-0.6,0.3c-0.1,0.2,0,0.5,0.3,0.6l0.1,0l-0.1,0.1l0,0c-0.2-0.1-0.5,0-0.6,0.3c-0.1,0.2,0,0.5,0.3,0.6l-0.1,0.2
				c0,0.1-0.1,0.2,0,0.3l-3.9,6.9c-0.4-0.2-0.9-0.2-1.4-0.2c-1.6,0-3,0.9-3.8,2.2c-0.4,0.6-0.5,1.4-0.5,2.1c0,0.8-0.5,1.3-1.8,2
				c-0.9,0.5-1.6,1.2-2,2c-0.6,1.2-0.8,2.5-0.4,3.8c0.4,1.3,1.2,2.4,2.4,3l0.2,0.1l-0.1,0.2c-0.1,0.2,0,0.5,0.2,0.6
				c0.1,0,0.2,0.1,0.2,0.1c0.2,0,0.3-0.1,0.4-0.2l0.1-0.2l0.2,0.1c0,0,0,0,0.1,0c0,0,0,0,0,0l1.3,0.7c0.8,0.4,1.6,0.6,2.4,0.6
				c0.5,0,0.9-0.1,1.4-0.2c1.3-0.4,2.4-1.2,3-2.4c0.5-0.9,0.7-1.8,0.6-2.8c-0.1-1.5,0.1-2.2,0.7-2.6c0.6-0.4,1.1-0.9,1.5-1.6
				c0.6-1,0.7-2.2,0.4-3.3c-0.3-1.1-1.1-2-2.1-2.6l-0.8-0.4l3.7-7c0.1,0,0.2-0.1,0.3-0.2l0.1-0.2c0.1,0.1,0.2,0.1,0.3,0.1
				c0.1,0,0.3-0.1,0.4-0.2c0.2-0.2,0.1-0.5-0.1-0.7l0,0l0.1-0.1l0.1,0c0.1,0.1,0.2,0.1,0.3,0.1c0.1,0,0.3-0.1,0.4-0.2
				c0.2-0.2,0.1-0.5-0.1-0.7l-0.1-0.1l0.1-0.1l0.1,0.1c0.1,0.1,0.2,0.1,0.3,0.1c0.1,0,0.3-0.1,0.4-0.2
				C25.4,124.8,25.4,124.5,25.2,124.4z M18.3,133.7l-0.4,0.8l-1.3,2.4l-0.8-0.4l1.3-2.3l0.5-0.8l3.8-6.8l0.5,0.3L18.3,133.7z
				 M22.9,123.2l0.7,0.1l0.5,0.6l-1.5,2.3l-0.8-0.4L22.9,123.2z M7.7,144.6c-0.3-1-0.2-2.1,0.3-3.1c0.4-0.7,1-1.3,1.7-1.6
				c1.1-0.6,2.3-1.3,2.3-2.8c0-0.6,0.1-1.2,0.4-1.7c0.6-1.1,1.7-1.7,3-1.7c0.3,0,0.6,0,0.9,0.1l-1.5,2.6c-0.1,0.1-0.1,0.2,0,0.4
				c0,0.1,0.1,0.2,0.2,0.3l1.6,0.9c0.1,0,0.1,0.1,0.2,0.1c0,0,0.1,0,0.1,0c0.1,0,0.2-0.1,0.3-0.2l1.4-2.7c1.1,1,1.5,2.7,0.7,4.1
				c-0.3,0.5-0.7,0.9-1.2,1.2c-1.3,0.8-1.3,2.2-1.2,3.4c0.1,0.8-0.1,1.6-0.5,2.3c-0.7,1.3-2.1,2.1-3.6,2.1c-0.7,0-1.4-0.2-2-0.5
				L9.7,147C8.7,146.5,8,145.6,7.7,144.6z M21.1,137.4c0.3,0.9,0.1,1.8-0.3,2.6c-0.3,0.5-0.7,0.9-1.2,1.2c-1.3,0.8-1.3,2.2-1.2,3.4
				c0.1,0.8-0.1,1.6-0.5,2.3c-0.5,1-1.4,1.6-2.4,1.9c-0.4,0.1-0.8,0.2-1.3,0.2c1.3-0.3,2.5-1.2,3.1-2.4c0.5-0.9,0.7-1.8,0.6-2.8
				c-0.1-1.5,0.1-2.2,0.7-2.6c0.6-0.4,1.1-0.9,1.5-1.6c0.6-1,0.7-2.2,0.4-3.3C20.8,136.7,21,137,21.1,137.4z"/>
		</g>
</svg>
