<svg width="32" height="232" viewBox="0 0 32 232" xmlns="http://www.w3.org/2000/svg"><g fill="none"><path d="M31.455 147.363H28.71c.965-.92 1.58-2.307 1.58-3.858 0-1.044-.28-2.015-.757-2.82.642-.098 1.116-.31 1.41-.73.168-.24.344-.655.228-1.275-.3-1.61-2.09-2.452-3.78-2.773l-1.65-5.037c.12-.117.2-.29.2-.487 0-.352-.25-.638-.55-.638h-.01l-.6-1.82c.59-.487.97-1.28.97-2.174 0-1.47-1.04-2.68-2.33-2.68h-3.26c-.1 0-.2.04-.28.1l-1.06.74c-.17.12-.27.33-.27.55v1.12l-.51.25c-.28.14-.41.51-.3.84.09.25.3.4.52.4l.22-.05.08-.04v.86c0 .36.25.64.56.64h.87c.4.74 1.45 2.89 1.45 5.13 0 2.2-.96 6.03-1.42 7.7l-.03.07-2.994.1-1.892-.3c-.24-.67-1.06-3.07-1.06-4.62 0-.71-.06-1.4-.14-2.01.39-.37.948-1.06.78-1.8-.2-.9-1.24-1.04-1.58-1.08-.71-.09-1.99-.14-3.8-.14-3.052 0-6.65.14-6.684.14-.236.01-.44.18-.51.437l-.15.51-.28-.23v-1.06c0-.356-.25-.64-.555-.64-.31 0-.557.284-.557.64v1.38c0 .2.09.394.23.514l1.11.92-1.64 5.256c-.126.172-.214.39-.24.63-.05.41.07.8.305 1.07l-.32 2.88c-.025.256.08.505.277.634.08.052.18.08.27.08.12 0 .24-.04.34-.13l1.066-.94.135-.18.86-1.66.21.033c-.17.54-.27 1.13-.27 1.74 0 1.55.62 2.94 1.58 3.86H.64c-.305 0-.554.28-.554.63s.25.638.554.638h30.82c.307 0 .556-.283.556-.634 0-.35-.25-.64-.556-.64zm-20.54-8.85h-3.18l-.075.008c-.27.05-.48.31-.48.63 0 .36.248.64.555.64h3.18c.306 0 .554-.28.554-.64 0-.35-.25-.63-.56-.63zm0-1.622H8.71c-.307 0-.555.29-.555.64 0 .35.25.64.555.64h2.202c.307 0 .555-.28.555-.64 0-.35-.25-.64-.556-.64zm0-1.62h-1.21c-.306 0-.554.29-.554.64 0 .35.25.64.56.64h1.21c.31 0 .56-.28.56-.64 0-.35-.25-.64-.55-.64zm-3.69 9.15c.44 0 .797-.41.797-.91s-.357-.91-.797-.91c-.44 0-.797.41-.797.92s.357.92.797.92zm18.708 0c.44 0 .797-.41.797-.91s-.357-.91-.797-.91c-.44 0-.797.41-.797.92s.357.92.797.92zm-6.29-18.01l.823-.39c.283-.13.417-.51.3-.83-.12-.32-.444-.48-.726-.34l-.398.19v-.22l.66-.46h2.76c-.14.39-.218.87-.218 1.42 0 .54.077 1.02.213 1.4h-3.415v-.74zm4.407-1.45l.108-.28h.026c.27.26.44.65.44 1.08 0 .44-.178.84-.454 1.09h-.012l-.108-.28c-.05-.18-.096-.45-.096-.79s.045-.61.096-.8zm-.648 3.47h.338l1.18 3.59-.93.12c-.26.04-.466.28-.49.58l-.367 4.34.007.18c.028.17.113.32.24.42l.133.07.172.03c.093 0 .185-.02.27-.08l.85-.54 1.48-.94.08.24.078.24-5.003 3.95-.16.13c.167-.65.358-1.43.538-2.26l.083-.38.15-.74c.26-1.34.46-2.703.46-3.77 0-2.07-.74-4-1.27-5.13h2.16zm6.686 10.52c.02.11.017.18-.007.21-.09.14-.45.31-1.54.33l-.35.01h-.7l-.71-.01c-.51 0-1.11.02-1.59.14-.35.09-.71.25-1.07.44l1.96-1.54 1.37-1.08.15-.17c1.28.31 2.37.93 2.51 1.7zm-4.155 2.1c1.18 0 2.14 1.1 2.14 2.46 0 1.36-.96 2.46-2.14 2.46-1.18 0-2.138-1.1-2.138-2.46 0-1.35.96-2.46 2.138-2.46zm-1.524-5.13l-.07.05v-.02l.22-2.58.76-.09.56 1.72-1.48.95zm-22.68 5.63l-.48.93.21-1.88.71.09-.45.88zm9.35-1.05l-.43-.05-6.23-.76-.41-.05-.61-.07-.61-.07-1.2-.14-.19-.02.29-.93.03-.11.95.11 1.25.14.6.07 1.1.13.05.01c.28 0 .52-.243.55-.572.03-.35-.19-.665-.5-.7l-1.41-.16.5-1.33c.07-.19.06-.41-.04-.585s-.26-.29-.44-.304l-1.6-.12.16-.51 9.82.41c.06.52.11 1.1.11 1.69 0 1.37.51 3.19.87 4.3l-2.66-.33zm2.43-7.45c-.07.13-.22.32-.39.49l-.04.03-.53-.02-6.01-.25-3.64-.15.07-.27c1.01-.03 3.81-.12 6.26-.12 1.77 0 3 .05 3.67.13l.07.01c.28.05.44.11.52.15zM2.4 136.17l.21.016.912.068-.33.873-.016.04-.03-.05-1.008-.115.26-.838zm6.863 6.59c.065.234.1.483.1.742 0 1.356-.96 2.458-2.14 2.458-1.178 0-2.138-1.103-2.138-2.458 0-.503.132-.972.36-1.36l3.817.617zm2.32.742l-.013-.37 5.16.836.154.013h.032l3.685-.12c.38-.01.72-.24.92-.6l.08-.14-.01.39c0 1.55.62 2.94 1.58 3.86H10c.966-.92 1.583-2.3 1.583-3.85z" fill="#206FAC"/><path d="M31.455 107.363H28.71c.965-.92 1.58-2.307 1.58-3.858 0-1.044-.28-2.015-.757-2.82.642-.098 1.116-.31 1.41-.73.168-.24.344-.655.228-1.275-.3-1.61-2.09-2.452-3.78-2.773l-1.66-5.037c.12-.117.2-.29.2-.487 0-.352-.25-.638-.55-.638h-.01l-.6-1.82c.59-.487.97-1.28.97-2.174 0-1.47-1.04-2.68-2.33-2.68h-3.26c-.1 0-.2.04-.28.1l-1.06.74c-.17.12-.27.33-.27.55v1.12l-.51.25c-.28.14-.41.51-.3.84.09.25.3.4.52.4l.22-.05.09-.04v.86c0 .36.25.64.56.64h.87c.4.74 1.446 2.89 1.446 5.13 0 2.2-.964 6.03-1.42 7.7l-.036.07-2.996.1-1.894-.3c-.24-.67-1.056-3.07-1.056-4.62 0-.71-.06-1.4-.137-2.01.38-.37.94-1.06.78-1.8-.2-.9-1.24-1.04-1.58-1.08-.71-.09-1.99-.14-3.8-.14-3.057 0-6.65.14-6.69.14-.23.01-.43.18-.503.437l-.15.51-.278-.23V91.3c0-.356-.25-.64-.55-.64-.31 0-.56.284-.56.64v1.38c0 .205.09.397.23.517l1.11.92L.25 99.37c-.125.173-.21.39-.24.63-.05.41.073.796.306 1.07l-.32 2.885c-.027.257.08.506.275.635.09.054.18.082.28.082.12 0 .24-.043.34-.13l1.07-.943.14-.18.86-1.66.21.03c-.17.54-.27 1.12-.27 1.73 0 1.55.62 2.94 1.587 3.85H.637c-.306 0-.555.28-.555.64 0 .35.25.64.56.64h30.82c.31 0 .56-.28.56-.63s-.25-.64-.55-.64zm-20.54-8.85h-3.18l-.075.008c-.27.05-.48.31-.48.63 0 .36.248.64.555.64h3.18c.306 0 .554-.28.554-.64 0-.35-.25-.63-.56-.63zm0-1.622H8.71c-.307 0-.555.29-.555.64 0 .35.25.64.555.64h2.202c.307 0 .555-.28.555-.64 0-.35-.25-.64-.556-.64zm0-1.62h-1.21c-.306 0-.554.29-.554.64 0 .35.25.64.56.64h1.21c.31 0 .56-.28.56-.64 0-.35-.25-.64-.55-.64zm-3.69 9.15c.44 0 .797-.41.797-.91s-.357-.91-.797-.91c-.44 0-.797.41-.797.92s.357.92.797.92zm18.708 0c.44 0 .797-.41.797-.91s-.357-.91-.797-.91c-.44 0-.797.41-.797.92s.357.92.797.92zm-6.29-18.01l.823-.39c.283-.13.417-.51.3-.83-.12-.32-.444-.48-.726-.34l-.398.19v-.22l.66-.46h2.76c-.14.39-.218.87-.218 1.42 0 .54.077 1.02.213 1.4h-3.415v-.74zm4.407-1.45l.108-.28h.026c.27.26.44.65.44 1.08 0 .44-.178.84-.454 1.09h-.012l-.108-.28c-.05-.18-.096-.45-.096-.79s.045-.61.096-.8zm-.648 3.47h.338l1.18 3.59-.93.12c-.26.04-.466.28-.49.58l-.367 4.34.007.18c.028.17.113.32.24.42l.133.07.172.03c.093 0 .185-.02.27-.08l.85-.54 1.48-.94.08.24.078.24-5.003 3.95-.16.13c.167-.65.358-1.43.538-2.26l.083-.38.15-.74c.26-1.34.46-2.703.46-3.77 0-2.07-.74-4-1.27-5.13h2.16zm6.686 10.52c.02.11.017.18-.007.21-.09.14-.45.31-1.54.33l-.35.01h-.7l-.71-.01c-.51 0-1.11.02-1.59.14-.35.09-.71.25-1.07.44l1.96-1.54 1.37-1.08.15-.17c1.28.31 2.37.93 2.51 1.7zm-4.155 2.1c1.18 0 2.14 1.1 2.14 2.46 0 1.36-.96 2.46-2.14 2.46-1.18 0-2.138-1.1-2.138-2.46 0-1.35.96-2.46 2.138-2.46zm-1.523-5.14l-.07.05v-.02l.22-2.58.764-.09.565 1.72-1.48.95zm-22.674 5.63l-.476.93.21-1.88.717.09-.45.88zm9.356-1.05l-.432-.05-6.227-.76-.41-.05-.607-.07-.607-.07-1.21-.14-.19-.02.29-.94.03-.11.95.11 1.25.14.59.07 1.1.126.05.004c.28 0 .52-.245.55-.574.03-.35-.2-.66-.5-.695l-1.41-.16.5-1.33c.07-.19.06-.41-.04-.585s-.26-.29-.44-.31l-1.59-.12.16-.51 9.82.41c.06.52.11 1.1.11 1.683 0 1.37.51 3.19.87 4.3l-2.66-.324zm2.433-7.45c-.064.13-.22.32-.39.49l-.033.03-.532-.02-6.01-.25-3.64-.15.077-.27c1.008-.03 3.812-.12 6.265-.12 1.77 0 3.003.05 3.67.13l.073.01c.288.05.444.11.52.15zM2.4 96.17l.21.016.912.068-.33.873-.016.04-.03-.05L2.138 97l.26-.838zm6.863 6.59c.065.234.1.483.1.742 0 1.356-.96 2.458-2.14 2.458-1.178 0-2.138-1.103-2.138-2.458 0-.503.132-.972.36-1.36l3.817.617zm2.32.742l-.013-.37 5.16.836.154.013h.032l3.685-.12c.38-.01.72-.24.92-.6l.08-.14-.01.39c0 1.55.62 2.94 1.58 3.86H10c.966-.92 1.583-2.3 1.583-3.85z" fill="#fff"/><path d="M31.455 67.363H28.71c.965-.92 1.58-2.307 1.58-3.858 0-1.044-.28-2.015-.757-2.82.642-.098 1.116-.31 1.41-.73.168-.24.344-.655.228-1.275-.3-1.61-2.09-2.452-3.78-2.773l-1.66-5.037c.12-.117.2-.29.2-.487 0-.352-.25-.638-.55-.638h-.01l-.6-1.82c.59-.487.97-1.28.97-2.174 0-1.47-1.04-2.68-2.33-2.68h-3.26c-.1 0-.2.04-.28.1l-1.06.74c-.17.12-.27.33-.27.55v1.12l-.51.25c-.28.14-.41.51-.3.84.09.25.3.4.52.4l.22-.05.09-.04v.86c0 .36.25.64.56.64h.87c.4.74 1.446 2.89 1.446 5.13 0 2.2-.964 6.03-1.42 7.7l-.036.07-2.996.1-1.894-.3c-.24-.67-1.056-3.07-1.056-4.62 0-.71-.06-1.4-.137-2.01.38-.37.94-1.06.78-1.8-.2-.9-1.24-1.04-1.58-1.08-.71-.09-1.99-.14-3.8-.14-3.057 0-6.65.14-6.69.14-.23.01-.43.18-.503.437l-.15.51-.278-.23V51.3c0-.356-.25-.64-.55-.64-.31 0-.56.284-.56.64v1.38c0 .205.09.397.23.517l1.11.92L.25 59.37c-.125.173-.21.39-.24.63-.05.41.073.796.306 1.07l-.32 2.885c-.027.257.08.506.275.635.09.054.18.082.28.082.12 0 .24-.043.34-.13l1.06-.942.14-.18.86-1.66.21.03c-.17.54-.27 1.126-.27 1.736 0 1.55.62 2.94 1.59 3.856H.64c-.307 0-.556.286-.556.638 0 .35.25.64.56.64h30.82c.31 0 .56-.28.56-.63s-.25-.64-.55-.64zm-20.54-8.85h-3.18l-.075.008c-.27.05-.48.31-.48.63 0 .36.248.64.555.64h3.18c.306 0 .554-.28.554-.64 0-.35-.25-.63-.56-.63zm0-1.622H8.71c-.307 0-.555.29-.555.64 0 .35.25.64.555.64h2.202c.307 0 .555-.28.555-.64 0-.35-.25-.64-.556-.64zm0-1.62h-1.21c-.306 0-.554.29-.554.64 0 .35.25.64.56.64h1.21c.31 0 .56-.28.56-.64 0-.35-.25-.64-.55-.64zm-3.69 9.15c.44 0 .797-.41.797-.91s-.357-.91-.797-.91c-.44 0-.797.41-.797.92s.357.92.797.92zm18.708 0c.44 0 .797-.41.797-.91s-.357-.91-.797-.91c-.44 0-.797.41-.797.92s.357.92.797.92zm-6.29-18.01l.823-.39c.283-.13.417-.51.3-.83-.12-.32-.444-.48-.726-.34l-.398.19v-.22l.66-.46h2.76c-.14.39-.218.87-.218 1.42 0 .54.077 1.02.213 1.4h-3.415v-.74zm4.407-1.45l.108-.28h.026c.27.26.44.65.44 1.08 0 .44-.178.84-.454 1.09h-.012l-.108-.28c-.05-.18-.096-.45-.096-.79s.045-.61.096-.8zm-.648 3.47h.338l1.18 3.59-.93.12c-.26.04-.466.28-.49.58l-.367 4.34.007.18c.028.17.113.32.24.42l.133.07.172.03c.093 0 .185-.02.27-.08l.85-.54 1.48-.94.08.24.078.24-5.003 3.94-.16.13c.167-.65.358-1.43.538-2.26l.083-.38.15-.74c.26-1.34.46-2.71.46-3.77 0-2.07-.74-4-1.27-5.13h2.16zm6.686 10.52c.02.11.017.18-.007.21-.09.14-.45.31-1.54.33l-.35.01h-.7l-.71-.01c-.51 0-1.11.02-1.59.14-.35.09-.71.25-1.07.44l1.96-1.54 1.37-1.08.15-.17c1.28.31 2.37.93 2.51 1.7zm-4.155 2.1c1.18 0 2.14 1.1 2.14 2.46 0 1.36-.96 2.46-2.14 2.46-1.18 0-2.138-1.1-2.138-2.46 0-1.35.96-2.46 2.138-2.46zm-1.523-5.14l-.07.05v-.02l.22-2.58.764-.09.565 1.72-1.48.95zM1.735 61.54l-.476.922.21-1.884.71.088-.45.874zm9.356-1.058l-.43-.054-6.22-.767-.41-.05-.6-.07-.6-.07-1.2-.14-.18-.02.29-.93.03-.11.96.11 1.25.14.6.07 1.1.13.06.01c.29 0 .53-.24.56-.57.03-.35-.19-.66-.5-.694l-1.4-.16.5-1.33c.08-.19.06-.406-.03-.584s-.26-.29-.44-.31l-1.59-.12.16-.51 9.83.405c.06.52.11 1.1.11 1.69 0 1.37.51 3.19.87 4.3l-2.66-.32zm2.44-7.448c-.06.128-.22.32-.39.49l-.03.032-.53-.02-6.01-.25-3.64-.15.08-.268c1.01-.034 3.81-.12 6.27-.12 1.77 0 3.01.043 3.67.13l.08.01c.29.045.45.106.52.147zM2.4 56.172l.21.016.912.068-.33.873-.016.04-.03-.05L2.138 57l.26-.838zm6.863 6.59c.065.234.1.483.1.742 0 1.356-.96 2.458-2.14 2.458-1.178 0-2.138-1.103-2.138-2.458 0-.503.132-.972.36-1.36l3.817.617zm2.32.742l-.013-.37 5.16.836.154.013h.032l3.685-.12c.38-.013.72-.24.92-.607l.08-.142-.01.39c0 1.55.62 2.94 1.58 3.858H10c.966-.92 1.583-2.307 1.583-3.858z" fill="#67737B"/><path d="M31.455 27.363H28.71c.965-.92 1.58-2.307 1.58-3.858 0-1.044-.28-2.015-.757-2.82.642-.098 1.116-.31 1.41-.73.168-.24.344-.655.228-1.275-.3-1.61-2.09-2.452-3.78-2.773l-1.66-5.037c.12-.117.2-.29.2-.487 0-.352-.25-.638-.55-.638h-.01l-.6-1.82c.59-.487.97-1.28.97-2.174 0-1.47-1.04-2.68-2.33-2.68h-3.26c-.1 0-.2.04-.28.1l-1.06.73c-.16.12-.27.33-.27.55v1.11l-.5.25c-.28.14-.41.51-.3.84.09.25.3.4.52.4l.21-.05.08-.04v.85c0 .35.25.64.56.64h.87c.4.74 1.45 2.89 1.45 5.13 0 2.2-.97 6.02-1.42 7.7l-.04.07-2.99.1-1.9-.31c-.24-.67-1.06-3.06-1.06-4.62 0-.71-.06-1.4-.14-2.01.39-.37.95-1.06.78-1.8-.2-.9-1.24-1.04-1.58-1.08-.71-.09-1.98-.14-3.79-.14-3.05 0-6.65.14-6.69.14-.23.01-.43.19-.51.44l-.15.51-.27-.23V11.3c0-.354-.25-.64-.55-.64-.3 0-.55.286-.55.64v1.382c0 .207.087.4.23.52l1.11.92L.23 19.35c-.124.175-.212.39-.24.63-.05.41.076.798.31 1.07l-.32 2.89c-.03.255.08.504.273.633.085.055.18.083.275.083.12 0 .24-.044.34-.132l1.065-.94.14-.18.854-1.66.21.034c-.17.54-.27 1.125-.27 1.735 0 1.55.62 2.94 1.585 3.857H.638c-.306 0-.555.285-.555.637 0 .35.25.637.556.637h30.81c.3 0 .55-.28.55-.63s-.25-.64-.56-.64zm-20.54-8.85h-3.18l-.075.008c-.27.05-.48.31-.48.63 0 .36.248.64.555.64h3.18c.306 0 .554-.28.554-.64 0-.35-.25-.63-.56-.63zm0-1.622H8.71c-.307 0-.555.29-.555.64 0 .35.25.64.555.64h2.202c.307 0 .555-.28.555-.64 0-.35-.25-.64-.556-.64zm0-1.62h-1.21c-.306 0-.554.29-.554.64 0 .35.25.64.56.64h1.21c.31 0 .56-.28.56-.64 0-.35-.25-.64-.55-.64zm-3.69 9.15c.44 0 .797-.41.797-.91s-.357-.91-.797-.91c-.44 0-.797.41-.797.92s.357.92.797.92zm18.708 0c.44 0 .797-.41.797-.91s-.357-.91-.797-.91c-.44 0-.797.41-.797.92s.357.92.797.92zm-6.29-18.01l.823-.39c.283-.13.417-.51.3-.83-.12-.32-.444-.48-.726-.34l-.398.19v-.23l.66-.46h2.76c-.14.39-.218.87-.218 1.42 0 .54.077 1.02.213 1.4h-3.415v-.75zm4.407-1.45l.108-.28h.026c.27.26.44.65.44 1.08 0 .44-.178.84-.454 1.09h-.012l-.108-.28c-.05-.18-.096-.45-.096-.79s.045-.61.096-.8zm-.648 3.47h.338l1.18 3.59-.93.12c-.26.04-.466.28-.49.58l-.367 4.34.007.18c.028.17.113.32.24.42l.133.07.172.03c.093 0 .185-.02.27-.08l.85-.54 1.48-.94.08.24.078.24-5.003 3.94-.16.13c.167-.65.358-1.43.538-2.26l.083-.38.15-.74c.26-1.34.46-2.71.46-3.77 0-2.07-.74-4-1.27-5.13h2.16zm6.686 10.52c.02.11.017.18-.007.21-.09.14-.45.31-1.54.33l-.35.01h-.7l-.71-.01c-.51 0-1.11.02-1.59.14-.35.09-.71.25-1.07.44l1.96-1.54 1.37-1.08.15-.17c1.28.31 2.37.93 2.51 1.7zm-4.155 2.1c1.18 0 2.14 1.1 2.14 2.46 0 1.36-.96 2.46-2.14 2.46-1.18 0-2.138-1.1-2.138-2.46 0-1.35.96-2.46 2.138-2.46zm-1.523-5.14l-.07.05v-.02l.22-2.58.764-.09.565 1.72-1.48.95zM1.735 21.54l-.476.922.21-1.884.71.088-.45.874zm9.356-1.058l-.43-.054-6.22-.767-.41-.05-.6-.07-.6-.07-1.2-.14-.18-.02.29-.93.03-.11.96.11 1.25.14.6.07 1.1.13.06.01c.29 0 .53-.24.56-.57.03-.35-.19-.66-.5-.694l-1.4-.16.5-1.33c.08-.19.06-.406-.03-.584s-.26-.29-.44-.31l-1.59-.12.16-.51 9.83.405c.06.52.11 1.1.11 1.69 0 1.37.51 3.19.87 4.3l-2.66-.32zm2.44-7.448c-.06.128-.22.32-.39.49l-.03.032-.53-.02-6.01-.25-3.64-.15.08-.268c1.01-.034 3.81-.12 6.27-.12 1.77 0 3.01.043 3.67.13l.08.01c.29.045.45.106.52.147zM2.4 16.172l.21.016.912.068-.33.873-.016.04-.03-.05L2.138 17l.26-.838zm6.863 6.59c.065.234.1.483.1.742 0 1.356-.96 2.458-2.14 2.458-1.178 0-2.138-1.103-2.138-2.458 0-.503.132-.972.36-1.36l3.817.617zm2.32.742l-.013-.37 5.16.836.154.013h.032l3.685-.12c.38-.013.72-.24.92-.607l.08-.142-.01.39c0 1.55.62 2.94 1.58 3.858H10c.966-.92 1.583-2.307 1.583-3.858z" fill="#3A434E"/></g></svg>