<svg width="32" height="232" viewBox="0 0 32 232" xmlns="http://www.w3.org/2000/svg"><g fill="none"><path d="M9.44 127.264c.08.06.174.09.272.09.097 0 .19-.03.268-.088.175-.13.23-.37.134-.563l-.132-.16c-.155-.116-.383-.116-.538 0-.175.13-.23.37-.132.565l.13.156m13.622.773c.077.06.172.09.27.09.097 0 .19-.03.268-.09.105-.077.17-.198.18-.328.01-.14-.04-.26-.132-.36l-.046-.04c-.155-.12-.383-.12-.54 0-.113.08-.18.22-.18.36 0 .14.066.27.18.36m-3.544-2.73l.373.2.204.37c.08.15.23.24.394.24s.32-.09.4-.24l.21-.38.38-.21c.15-.08.24-.23.24-.39s-.09-.32-.23-.4l-.37-.21-.2-.38c-.08-.14-.23-.23-.39-.23s-.31.09-.39.24l-.2.37-.37.204c-.14.08-.23.23-.23.4s.09.316.23.395M5.93 143.05c.063.103.165.18.284.207l.1.012h2.02c.247 0 .448-.21.448-.45v-2.51c-.036-.79-.677-1.4-1.458-1.4-.238 0-.462.05-.66.16-.173.08-.325.21-.45.35-.127.15-.224.32-.283.51v.01c-.03.11-.05.23-.06.36v2.5c0 .08.03.16.06.22h.01zm.832-2.703c.02-.298.264-.53.562-.53.297 0 .543.232.56.53v2.02h-1.12v-2.02zm18.945-.485c-.072-.19-.182-.36-.32-.503-.127-.14-.28-.24-.448-.32-.19-.08-.39-.13-.6-.13-.78 0-1.42.61-1.46 1.39v2.5c0 .25.2.45.45.45h2.02l.03-.01c.13-.01.24-.08.32-.17.06-.08.09-.17.09-.28v-2.5c-.01-.16-.04-.31-.1-.45zm5.404 7.694h-.21V136.23c0-.25-.2-.45-.45-.45H27.5v-1.548l-.024-.208-.646-2.738c-.074-.316-.31-.56-.606-.652v-.29c0-.25-.2-.45-.45-.45s-.448.2-.448.45v.25h-2.02v-.25c0-.25-.2-.45-.447-.45-.25 0-.45.2-.45.45v.307c-.28.11-.49.34-.56.64l-.48 2.05h-.51v-.03c0-.25-.2-.45-.45-.45s-.45.2-.45.45v.03h-.79v-.03c0-.25-.2-.45-.45-.45s-.45.2-.45.45v.03h-.2v-6.45c0-.49-.41-.9-.9-.9h-.92v-2.77c0-.25-.2-.45-.45-.45h-2.17c-.17 0-.32.09-.4.24-.08.15-.07.33.02.46l.4.6-.4.6c-.1.14-.1.32-.03.47.08.15.23.24.4.24h1.72v.62h-.94c-.5 0-.9.41-.9.9v6.46h-.17v-.03c0-.24-.2-.45-.45-.45s-.45.21-.45.45v.04h-.79v-.03c0-.25-.2-.45-.45-.45s-.45.2-.45.45v.03h-.51l-.48-2.04c-.07-.29-.28-.52-.55-.63v-.31c0-.25-.2-.45-.45-.45s-.45.2-.45.45v.25h-2v-.25c0-.25-.2-.45-.45-.45s-.45.2-.45.45v.29c-.3.1-.54.34-.62.66l-.65 2.74-.03.21v1.64H1.5c-.247 0-.447.2-.447.45v11.23h-.2c-.497 0-.9.41-.9.9s.41.9.9.9H31.1c.5 0 .9-.4.9-.9s-.4-.9-.9-.9zm-6.2-5.188h-1.12v-2.02c.02-.3.27-.53.56-.53.3 0 .55.23.57.53v2.02zm-10.43-17.912l.1-.15c.1-.15.1-.35 0-.5l-.1-.15h.89v.8h-.88zM1.98 136.77h2.155v10.786H3.54v-7.163c0-.25-.2-.45-.45-.45s-.448.202-.448.45v7.163H1.98V136.77zm7.007-2.88H5.6l.433-1.836h2.52l.434 1.837zm3.398.9l-.69.342-.67.332c-.188.092-.287.303-.24.506.048.204.23.348.437.348h.106v.563h-1.325v-2.09h2.382zm2.485-2.736h1.862v1.475l-.45-.23-.245-.12c-.126-.06-.273-.06-.398 0l-.33.16-.45.22v-1.51zm6.764 2.737v2.1H20.31v-.56h.104c.208 0 .39-.14.437-.34.05-.2-.05-.41-.23-.5l-.66-.33-.68-.34h2.37zm1.015-.9l.43-1.83h2.52l.43 1.84h-3.38zm-10.97 3.9l.09.01h8.08l.09-.01h1.68v4.59h-.32v-2.05c-.04-.78-.68-1.39-1.46-1.39-.39 0-.75.16-1.01.41-.27-.25-.62-.4-1.01-.4s-.75.15-1.01.41c-.27-.25-.62-.4-1.01-.4s-.75.16-1.01.41c-.26-.254-.62-.41-1.01-.41s-.75.15-1.01.4c-.27-.25-.62-.403-1.01-.403-.78 0-1.43.61-1.46 1.396v2.055H10v-4.59h1.68zm.54-.9v-.56h7.18v.58h-7.18v-.01zm11.56 10.41v-1.4c.02-.29.26-.53.56-.53.3 0 .54.24.56.53v1.67h-1.12v-.26zm-10.55-6.94c.02-.3.26-.53.56-.53.3 0 .54.23.56.53v2.02h-1.12v-2.02zm2.02 0c.02-.3.26-.53.56-.53.3 0 .54.23.56.53v2.02h-1.12v-2.02zm2.02 0c.02-.3.26-.53.56-.53.3 0 .54.23.56.53v2.02h-1.12v-2.02zm2.02 0c.02-.3.26-.53.56-.53.29 0 .54.23.56.53v2.02H19.3v-2.02zm-6.96 2.02h-1.12v-2.02c.02-.3.26-.53.56-.53.3 0 .54.23.56.53v2.02zM10 147.3v-4.02h11.63v4.285h-.315v-1.76c-.038-.78-.678-1.4-1.46-1.4-.39 0-.748.158-1.01.41-.264-.252-.62-.406-1.012-.406-.39 0-.747.15-1.01.4-.263-.25-.62-.41-1.01-.41-.392 0-.75.15-1.012.4-.26-.25-.62-.41-1.01-.41s-.74.15-1.01.4c-.26-.26-.62-.41-1.01-.41-.78 0-1.42.61-1.46 1.39v1.76H10v-.27zm1.21 0v-1.46c.02-.298.265-.53.56-.53.3 0 .545.23.563.53v1.726H11.21v-.264zm2.02 0v-1.46c.02-.298.265-.53.56-.53.3 0 .546.23.564.53v1.726H13.23v-.264zm2.02 0v-1.46c.02-.298.266-.53.563-.53.298 0 .544.23.562.53v1.726H15.25v-.264zm2.023 0v-1.46c.018-.298.263-.53.56-.53.3 0 .545.23.563.53v1.726H17.27v-.264zm2.02 0v-1.46c.02-.298.264-.53.562-.53.297 0 .542.23.56.53v1.726H19.3v-.264zm-11.41 0v.265h-1.12v-1.67c.02-.3.263-.53.56-.53.298 0 .544.23.56.53v1.406zm18.164.265h-.25v-1.7c-.01-.16-.04-.31-.098-.453-.08-.19-.19-.36-.32-.5-.13-.13-.28-.237-.45-.313-.19-.08-.39-.13-.6-.13-.78 0-1.42.61-1.46 1.39v1.7h-.36v-9.01h3.62v9h-.11zm-.35-10.02h-2.53c.375-.26.824-.404 1.3-.404.16 0 .315.02.467.05.154.03.304.08.447.14l.32.18.07.04h-.06zM14.41 134.8l.91-.45.168-.082.136-.065.205-.1.2.1.13.064.17.085.6.3.3.15.68.34.21.107.36.17h-5.35l.36-.18.21-.11.69-.34zm-7.75 2.74h-.73l.283-.168c.142-.07.293-.126.45-.166.182-.047.372-.072.567-.072.476 0 .924.145 1.3.406H6.663zm-1.182 1.01h3.624v9.005H8.78v-1.703c-.035-.782-.676-1.395-1.457-1.395-.238 0-.462.058-.66.16-.173.087-.325.207-.45.353-.127.147-.224.323-.283.516v.008c-.034.116-.057.235-.063.36v1.702H5.48v-9.007zm20.675-2.607v.767l-.105-.06-.212-.117-.13-.057-.32-.114c-.145-.044-.295-.078-.447-.1-.16-.023-.31-.035-.47-.035-.72 0-1.4.24-1.94.664v-2.1h3.62v1.15zm-11.286-8.507h1.86v3.716h-1.86v-3.714zm-9.39 8.432v-1.08H9.1v2.05c-.533-.393-1.184-.612-1.873-.612-.19 0-.38.017-.565.05-.153.03-.303.066-.45.116l-.282.114-.162.08-.284.166H5.48v-.885zM30 147.55h-.82v-7.16c0-.25-.202-.45-.45-.45-.247 0-.448.202-.448.45v7.163H27.5V136.68h2.503v10.875z" fill="#206FAC"/><path d="M9.44 87.264c.08.06.174.09.272.09.097 0 .19-.03.268-.088.175-.13.23-.37.134-.563l-.132-.16c-.155-.116-.383-.116-.538 0-.175.13-.23.37-.132.565l.13.156m13.622.773c.077.06.172.09.27.09.097 0 .19-.03.268-.09.105-.077.17-.198.18-.328.01-.14-.04-.26-.132-.36l-.046-.04c-.155-.12-.383-.12-.54 0-.113.08-.18.22-.18.36 0 .14.066.27.18.36M19.52 85.3l.373.206.204.375c.08.15.23.24.394.24s.32-.09.4-.23l.21-.37.38-.2c.15-.08.24-.23.24-.39s-.09-.31-.23-.39l-.37-.2-.2-.37c-.08-.14-.23-.23-.39-.23s-.31.09-.39.24l-.2.37-.37.21c-.14.08-.23.23-.23.4s.09.32.23.4M5.93 103.05c.063.103.165.18.284.207l.1.012h2.02c.247 0 .448-.21.448-.45v-2.51c-.036-.79-.677-1.4-1.458-1.4-.238 0-.462.05-.66.16-.173.08-.325.21-.45.35-.127.15-.224.32-.283.51v.01c-.03.11-.05.23-.06.36v2.5c0 .08.03.16.06.22h.01zm.832-2.703c.02-.298.264-.53.562-.53.297 0 .543.232.56.53v2.02h-1.12v-2.02zm18.945-.485c-.072-.19-.182-.36-.32-.503-.127-.14-.28-.24-.448-.32-.19-.08-.39-.13-.6-.13-.78 0-1.42.61-1.46 1.39v2.5c0 .25.2.45.45.45h2.02l.03-.01c.13-.01.24-.08.32-.17.06-.08.09-.17.09-.28v-2.5c-.01-.16-.04-.31-.1-.45zm5.404 7.694h-.21V96.23c0-.25-.2-.45-.45-.45H27.5v-1.548l-.024-.208-.646-2.738c-.074-.316-.31-.56-.606-.652v-.29c0-.25-.2-.45-.45-.45s-.448.2-.448.45v.25h-2.02v-.25c0-.25-.2-.45-.447-.45-.25 0-.45.2-.45.45v.307c-.28.11-.49.34-.56.64l-.48 2.05h-.51v-.03c0-.25-.2-.45-.45-.45s-.45.2-.45.45v.03h-.79v-.03c0-.25-.2-.45-.45-.45s-.45.2-.45.45v.03h-.2v-6.46c0-.49-.41-.9-.9-.9h-.92v-2.77c0-.25-.2-.45-.45-.45h-2.17c-.17 0-.32.09-.4.24-.08.15-.07.33.02.46l.4.6-.4.6c-.1.14-.1.32-.03.47.08.15.23.24.4.24h1.72v.62h-.94c-.5 0-.9.41-.9.9v6.46h-.17v-.04c0-.24-.2-.45-.45-.45s-.45.21-.45.45v.04h-.79v-.04c0-.25-.2-.45-.45-.45s-.45.2-.45.45v.03h-.51l-.48-2.04c-.07-.29-.28-.52-.55-.63v-.31c0-.25-.2-.45-.45-.45s-.45.2-.45.45v.25h-2v-.25c0-.25-.2-.45-.45-.45s-.45.2-.45.45v.29c-.3.1-.54.34-.62.66l-.65 2.73-.03.21v1.64H1.5c-.247 0-.447.2-.447.45v11.24h-.2c-.497 0-.9.4-.9.9s.41.9.9.9H31.1c.5 0 .9-.41.9-.9s-.4-.9-.9-.9zm-6.2-5.188h-1.12v-2.02c.02-.3.27-.53.56-.53.3 0 .55.23.57.53v2.02zM14.48 84.456l.1-.15c.1-.15.1-.35 0-.5l-.1-.15h.885v.8h-.885zM1.98 96.77h2.155v10.786H3.54v-7.163c0-.25-.2-.45-.45-.45s-.448.202-.448.45v7.163H1.98V96.77zm7.007-2.88H5.6l.433-1.836h2.52l.434 1.837zm3.398.9l-.69.342-.67.332c-.188.092-.287.303-.24.506.048.204.23.348.437.348h.106v.563h-1.325v-2.09h2.382zm2.485-2.736h1.862v1.475l-.45-.23-.245-.12c-.126-.06-.273-.06-.398 0l-.33.16-.45.22v-1.51zm6.764 2.737v2.1H20.31v-.56h.104c.208 0 .39-.14.437-.34.05-.2-.05-.41-.23-.5l-.66-.33-.68-.34h2.37zm1.015-.9l.43-1.83h2.52l.43 1.84h-3.38zm-10.97 3.9l.09.01h8.08l.09-.01h1.68v4.59h-.32v-2.05c-.04-.78-.68-1.39-1.46-1.39-.39 0-.75.16-1.01.41-.27-.25-.62-.4-1.01-.4s-.75.15-1.01.41c-.27-.25-.62-.4-1.01-.4s-.75.16-1.01.41c-.26-.25-.62-.402-1.01-.402s-.75.15-1.01.4c-.27-.25-.62-.405-1.01-.405-.78 0-1.43.61-1.46 1.39v2.05H10v-4.6h1.68zm.54-.9v-.56h7.18v.58h-7.18v-.01zm11.55 10.41v-1.4c.02-.29.26-.53.56-.53.3 0 .54.24.56.53v1.67h-1.12v-.26zm-10.55-6.94c.02-.3.26-.53.56-.53.3 0 .54.23.56.53v2.02h-1.12v-2.02zm2.02 0c.02-.3.26-.53.56-.53.29 0 .54.23.56.53v2.02h-1.12v-2.02zm2.02 0c.01-.3.26-.53.56-.53.3 0 .54.23.56.53v2.02h-1.12v-2.02zm2.02 0c.02-.3.26-.53.56-.53.3 0 .54.23.56.53v2.02h-1.1v-2.02zm-6.96 2.02H11.2v-2.02c.02-.3.265-.53.56-.53.3 0 .545.23.563.53v2.02zm-2.33 4.92v-4.02h11.63v4.29h-.32v-1.76c-.04-.78-.68-1.4-1.46-1.4-.39 0-.75.16-1.01.41-.27-.25-.62-.4-1.01-.4s-.75.16-1.01.41c-.27-.25-.62-.4-1.01-.4s-.75.16-1.01.41c-.26-.25-.62-.4-1.01-.4s-.75.15-1.01.41c-.27-.25-.62-.4-1.01-.4-.78 0-1.43.61-1.46 1.4v1.76H10v-.266zm1.21 0v-1.46c.02-.3.26-.53.56-.53.3 0 .54.23.56.53v1.73H11.2v-.26zm2.02 0v-1.46c.02-.3.26-.53.56-.53.3 0 .54.23.56.53v1.73h-1.12v-.26zm2.02 0v-1.46c.02-.3.26-.53.56-.53.3 0 .54.23.56.53v1.73h-1.12v-.26zm2.02 0v-1.46c.02-.3.26-.53.56-.53.3 0 .54.23.56.53v1.73h-1.12v-.26zm2.02 0v-1.46c.02-.3.26-.53.56-.53.29 0 .54.23.56.53v1.73h-1.1v-.26zm-11.41 0v.27H6.76v-1.67c.02-.3.264-.53.56-.53.3 0 .545.23.56.53v1.41zm18.16.27h-.24v-1.7c-.01-.16-.04-.31-.1-.45-.07-.19-.18-.36-.32-.5-.13-.13-.28-.23-.45-.31-.19-.08-.39-.12-.6-.12-.78 0-1.42.61-1.46 1.4v1.7h-.36v-9.01h3.62v9.01h-.11zm-.35-10.02h-2.53c.37-.26.82-.4 1.29-.4.16 0 .32.02.47.05.16.03.31.08.45.14l.32.18.06.04h-.06zM14.41 94.8l.91-.45.17-.08.136-.064.205-.1.21.1.13.065.17.09.6.3.3.15.68.34.22.11.36.18h-5.35l.36-.18.22-.1.69-.34zm-7.75 2.74h-.73l.28-.164c.144-.073.295-.128.45-.168.184-.047.374-.072.57-.072.475 0 .923.144 1.3.405H6.663zm-1.18 1.01h3.625v9.006h-.323v-1.703c-.036-.784-.677-1.397-1.458-1.397-.238 0-.462.058-.66.16-.173.087-.325.207-.45.353-.127.14-.224.32-.283.51v.01c-.03.11-.05.23-.06.36v1.7h-.39v-9zm20.676-2.606v.767l-.105-.06-.21-.11-.13-.05-.32-.11c-.14-.04-.29-.08-.44-.1-.15-.02-.31-.03-.46-.03-.72 0-1.39.24-1.94.67v-2.1h3.63v1.15zM14.87 87.437h1.862v3.716H14.87v-3.716zM5.48 95.87v-1.08h3.625v2.05c-.534-.394-1.185-.613-1.874-.613-.19 0-.38.017-.56.05-.15.03-.3.066-.45.116l-.28.112h-.01l-.16.08-.28.166v.01-.88zm24.523 11.685h-.82v-7.163c0-.25-.202-.45-.45-.45-.247 0-.448.202-.448.45v7.163H27.5V96.68h2.503v10.875z" fill="#fff"/><path d="M9.44 47.264c.08.06.174.09.272.09.097 0 .19-.03.268-.088.175-.13.23-.37.134-.563l-.132-.16c-.155-.116-.383-.116-.538 0-.175.13-.23.37-.132.565l.13.156m13.622.773c.077.06.172.09.27.09.097 0 .19-.03.268-.09.105-.077.17-.198.18-.328.01-.14-.04-.26-.132-.36l-.046-.04c-.155-.12-.383-.12-.54 0-.113.08-.18.22-.18.36 0 .14.066.27.18.36M19.52 45.3l.373.206.204.375c.08.15.23.24.394.24s.32-.09.4-.23l.21-.37.38-.2c.15-.08.24-.23.24-.39s-.09-.31-.23-.39l-.37-.2-.2-.37c-.08-.14-.23-.23-.39-.23s-.31.09-.39.24l-.2.37-.37.21c-.14.08-.23.23-.23.4s.09.32.23.4M5.93 63.05c.063.103.165.18.284.207l.1.012h2.02c.247 0 .448-.21.448-.45v-2.51c-.036-.79-.677-1.4-1.458-1.4-.238 0-.462.05-.66.16-.173.08-.325.21-.45.35-.127.15-.224.32-.283.51v.01c-.03.11-.05.23-.06.36v2.5c0 .08.03.16.06.22h.01zm.832-2.703c.02-.298.264-.53.562-.53.297 0 .543.232.56.53v2.02h-1.12v-2.02zm18.945-.485c-.072-.19-.182-.36-.32-.503-.127-.14-.28-.24-.448-.32-.19-.08-.39-.13-.6-.13-.78 0-1.42.61-1.46 1.39v2.5c0 .25.2.45.45.45h2.02l.03-.01c.13-.01.24-.08.32-.17.06-.08.09-.17.09-.28v-2.5c-.01-.16-.04-.31-.1-.46zm5.404 7.694h-.21V56.23c0-.25-.2-.45-.45-.45H27.5v-1.548l-.024-.208-.646-2.738c-.074-.316-.31-.56-.606-.652v-.29c0-.25-.2-.45-.45-.45s-.448.2-.448.45v.25h-2.02v-.25c0-.25-.2-.45-.447-.45-.25 0-.45.2-.45.45v.307c-.28.11-.49.34-.56.64l-.48 2.05h-.51v-.03c0-.25-.2-.45-.45-.45s-.45.2-.45.45v.03h-.79v-.03c0-.25-.2-.45-.45-.45s-.45.2-.45.45v.03h-.2v-6.46c0-.49-.41-.9-.9-.9h-.92v-2.77c0-.25-.2-.45-.45-.45h-2.17c-.17 0-.32.09-.4.24-.08.15-.07.33.02.46l.4.6-.4.6c-.1.14-.1.32-.03.47.08.15.23.24.4.24h1.72v.62h-.94c-.5 0-.9.41-.9.9v6.46h-.17v-.04c0-.24-.2-.45-.45-.45s-.45.21-.45.45v.04h-.79v-.04c0-.25-.2-.45-.45-.45s-.45.2-.45.45v.03h-.51l-.48-2.04c-.07-.29-.28-.52-.55-.63v-.31c0-.25-.2-.45-.45-.45s-.45.2-.45.45v.25h-2v-.25c0-.25-.2-.45-.45-.45s-.45.2-.45.45v.29c-.3.1-.54.34-.62.66l-.65 2.73-.03.21v1.64H1.5c-.247 0-.447.2-.447.45v11.24h-.2c-.497 0-.9.4-.9.9s.41.9.9.9H31.1c.5 0 .9-.4.9-.9s-.4-.9-.9-.9zm-6.2-5.188h-1.12v-2.02c.02-.3.27-.53.56-.53.3 0 .55.23.57.53v2.02zM14.48 44.456l.1-.15c.1-.15.1-.35 0-.5l-.1-.15h.885v.8h-.885zM1.98 56.77h2.155v10.786H3.54v-7.163c0-.25-.2-.45-.45-.45s-.448.202-.448.45v7.163H1.98V56.77zm7.007-2.88H5.6l.433-1.836h2.52l.434 1.837zm3.398.9l-.69.342-.67.332c-.188.092-.287.303-.24.506.048.204.23.348.437.348h.106v.563h-1.325v-2.09h2.382zm2.485-2.736h1.862v1.475l-.45-.23-.245-.12c-.126-.06-.273-.06-.398 0l-.33.16-.45.22v-1.51zm6.764 2.737v2.1H20.31v-.56h.104c.208 0 .39-.14.437-.34.05-.2-.05-.41-.23-.5l-.66-.33-.68-.34h2.37zm1.015-.9l.43-1.83h2.52l.43 1.84h-3.38zm-10.97 3.9l.09.01h8.08l.09-.01h1.68v4.59h-.32v-2.06c-.04-.78-.68-1.39-1.46-1.39-.39 0-.75.16-1.01.41-.27-.25-.62-.4-1.01-.4s-.75.16-1.01.41c-.27-.25-.62-.4-1.01-.4s-.75.16-1.01.41c-.26-.25-.62-.4-1.01-.4s-.75.16-1.01.41c-.27-.25-.62-.4-1.01-.4-.78 0-1.43.61-1.46 1.397v2.06H10v-4.6h1.68zm.54-.9v-.56h7.18v.58h-7.18v-.01zM23.78 67.3v-1.41c.014-.297.26-.53.56-.53.3 0 .54.233.56.53v1.67h-1.12v-.265zm-10.55-6.95c.018-.298.264-.53.56-.53.3 0 .545.232.563.53v2.02H13.23v-2.02zm2.02 0c.02-.298.265-.53.562-.53.298 0 .544.232.562.53v2.02H15.25v-2.02zm2.022 0c.018-.298.263-.53.56-.53.3 0 .545.232.563.53v2.02h-1.12v-2.02zm2.02 0c.02-.298.264-.53.562-.53.294 0 .54.232.56.53v2.02H19.3v-2.02zm-6.96 2.02H11.21v-2.02c.018-.298.264-.53.56-.53.3 0 .544.232.562.53v2.02zM10 67.294v-4.02h11.63v4.287h-.313V65.8c-.04-.784-.68-1.398-1.46-1.398-.39 0-.75.153-1.01.406-.267-.253-.62-.407-1.015-.407-.39 0-.747.16-1.01.41-.263-.25-.62-.4-1.01-.4-.392 0-.75.16-1.012.41-.26-.25-.62-.4-1.01-.4s-.747.16-1.01.41c-.262-.25-.62-.4-1.01-.4-.78 0-1.422.62-1.46 1.4v1.76H10v-.27zm1.213 0v-1.46c.018-.296.264-.53.56-.53.3 0 .544.233.562.53v1.728h-1.123v-.265zm2.02 0v-1.46c.018-.296.264-.53.56-.53.3 0 .545.233.563.53v1.728h-1.124v-.265zm2.02 0v-1.46c.02-.296.265-.53.562-.53.298 0 .544.233.562.53v1.728H15.25v-.265zm2.022 0v-1.46c.018-.296.263-.53.56-.53.3 0 .545.233.563.53v1.728h-1.12v-.265zm2.02 0v-1.46c.02-.296.264-.53.562-.53.294 0 .54.233.56.53v1.728H19.3v-.265zm-11.41 0v.267H6.762v-1.67c.02-.29.264-.53.562-.53.297 0 .543.24.56.53v1.41zm18.164.267h-.25v-1.7c-.01-.16-.04-.31-.1-.45-.07-.19-.18-.36-.32-.5-.13-.13-.28-.24-.45-.31-.18-.08-.38-.13-.6-.13-.78 0-1.42.62-1.46 1.4v1.71h-.36v-9.01h3.62v9.01h-.11zm-.34-10.02h-2.54c.37-.26.82-.4 1.29-.4.16 0 .31.02.47.05.15.03.3.08.45.15l.32.18.06.04h-.06zM14.42 54.8l.91-.45.165-.082.136-.067.21-.1.21.1.13.07.18.09.6.3.3.15.69.34.22.11.36.18h-5.36l.36-.17.22-.11.69-.34zm-7.758 2.74h-.73l.282-.167c.142-.072.293-.127.45-.167.182-.047.372-.072.567-.072.48 0 .93.145 1.3.406H6.66zM5.48 58.55h3.625v9.006h-.323v-1.703c-.036-.784-.677-1.397-1.458-1.397-.238 0-.462.058-.66.16-.173.087-.325.207-.45.353-.127.14-.224.32-.283.51v.01c-.03.11-.05.23-.06.36v1.7h-.39v-9zm20.676-2.606v.767l-.105-.06-.21-.11-.13-.05-.32-.11c-.14-.04-.29-.08-.44-.1-.15-.02-.31-.03-.46-.03-.72 0-1.39.24-1.94.67v-2.1h3.63v1.15zM14.87 47.437h1.862v3.716H14.87v-3.716zM5.48 55.87v-1.08h3.625v2.05c-.534-.394-1.185-.613-1.874-.613-.19 0-.38.017-.56.05-.15.03-.3.066-.45.116l-.28.112h-.01l-.16.08-.28.166v.01-.88zm24.523 11.685h-.82v-7.163c0-.25-.202-.45-.45-.45-.247 0-.448.202-.448.45v7.163H27.5V56.68h2.503v10.875z" fill="#67737B"/><path d="M9.44 7.264c.08.06.174.09.272.09.097 0 .19-.03.268-.088.175-.13.23-.37.134-.563l-.132-.16c-.155-.116-.383-.116-.538 0-.175.13-.23.37-.132.565l.13.156m13.622.773c.077.06.172.09.27.09.097 0 .19-.03.268-.09.105-.077.17-.198.18-.328.01-.14-.04-.26-.132-.36l-.046-.04c-.155-.12-.383-.12-.54 0-.113.08-.18.22-.18.36 0 .14.066.27.18.36M19.52 5.3l.373.206.204.375c.08.15.23.24.394.24s.32-.09.4-.23l.21-.37.38-.2c.15-.08.24-.23.24-.39s-.09-.31-.23-.39l-.37-.2-.2-.37c-.08-.14-.23-.23-.39-.23s-.31.09-.39.23l-.2.37-.37.21c-.14.08-.23.23-.23.4s.09.32.23.4M5.93 23.05c.063.103.165.18.284.207l.1.012h2.02c.247 0 .448-.21.448-.45v-2.51c-.036-.79-.677-1.4-1.458-1.4-.238 0-.462.05-.66.16-.173.08-.325.21-.45.35-.127.15-.224.32-.283.51v.01c-.03.11-.05.23-.06.36v2.5c0 .08.03.16.06.22h.01zm.832-2.703c.02-.298.264-.53.562-.53.297 0 .543.232.56.53v2.02h-1.12v-2.02zm18.945-.485c-.072-.19-.182-.36-.32-.503-.127-.14-.28-.24-.448-.32-.19-.08-.39-.13-.6-.13-.78 0-1.42.61-1.46 1.39v2.5c0 .25.2.45.45.45h2.02l.03-.01c.13-.01.24-.08.32-.17.06-.08.09-.17.09-.28v-2.5c-.01-.16-.04-.31-.1-.46zm5.404 7.694h-.21V16.23c0-.25-.2-.45-.45-.45H27.5v-1.548l-.024-.208-.646-2.738c-.074-.316-.31-.56-.606-.652v-.29c0-.25-.2-.45-.45-.45s-.448.2-.448.45v.25h-2.02v-.25c0-.25-.2-.45-.447-.45-.25 0-.45.2-.45.45v.307c-.28.11-.49.34-.56.64l-.48 2.05h-.51v-.03c0-.25-.2-.45-.45-.45s-.45.2-.45.45v.03h-.79v-.03c0-.25-.2-.45-.45-.45s-.45.2-.45.45v.03h-.2V6.88c0-.498-.41-.9-.9-.9h-.92V3.204c0-.25-.2-.45-.45-.45h-2.17c-.17 0-.32.092-.4.238-.08.146-.07.324.02.462l.4.6-.4.6c-.1.14-.1.317-.03.463.08.146.23.238.4.238h1.72v.62h-.94c-.5 0-.9.403-.9.9v6.453h-.17v-.035c0-.248-.2-.45-.45-.45s-.45.202-.45.45v.032h-.79v-.033c0-.248-.2-.45-.45-.45s-.45.202-.45.45v.032h-.51l-.48-2.046c-.07-.294-.28-.525-.55-.63v-.31c0-.25-.2-.45-.45-.45s-.45.2-.45.45v.25h-2v-.25c0-.25-.2-.45-.45-.45s-.45.2-.45.45v.288c-.3.093-.54.337-.62.655l-.65 2.74-.03.21v1.64H1.5c-.25 0-.45.2-.45.45v11.23h-.2c-.5 0-.9.41-.9.9s.41.9.9.9H31.1c.5 0 .9-.4.9-.9s-.4-.9-.9-.9zm-6.2-5.188h-1.12v-2.02c.02-.3.27-.53.56-.53.3 0 .55.23.57.53v2.02zM14.48 4.456l.1-.15c.1-.15.1-.35 0-.5l-.1-.15h.885v.8h-.885zM1.98 16.77h2.155v10.786H3.54v-7.163c0-.25-.2-.45-.45-.45s-.448.202-.448.45v7.163H1.98V16.77zm7.007-2.88H5.6l.433-1.836h2.52l.434 1.837zm3.398.9l-.69.342-.67.332c-.188.092-.287.303-.24.506.048.204.23.348.437.348h.106v.563h-1.325v-2.09h2.382zm2.485-2.736h1.862v1.475l-.45-.23-.245-.12c-.126-.06-.273-.06-.398 0l-.33.16-.45.22v-1.51zm6.764 2.737v2.1H20.31v-.56h.104c.208 0 .39-.14.437-.34.05-.2-.05-.41-.23-.5l-.66-.33-.68-.34h2.37zm1.015-.9l.43-1.83h2.52l.43 1.84h-3.38zm-10.97 3.9l.09.01h8.08l.09-.01h1.68v4.59h-.32v-2.06c-.04-.78-.68-1.39-1.46-1.39-.39 0-.75.16-1.01.41-.27-.25-.62-.4-1.01-.4s-.75.16-1.01.41c-.27-.25-.62-.4-1.01-.4s-.75.16-1.01.41c-.26-.25-.62-.4-1.01-.4s-.75.16-1.01.41c-.27-.25-.62-.4-1.01-.4-.78 0-1.43.61-1.46 1.397v2.06H10v-4.6h1.68zm.54-.9v-.56h7.18v.58h-7.18v-.01zM23.78 27.3v-1.41c.014-.297.26-.53.56-.53.3 0 .54.233.56.53v1.67h-1.12v-.265zm-10.55-6.95c.018-.298.264-.53.56-.53.3 0 .545.232.563.53v2.02H13.23v-2.02zm2.02 0c.02-.298.265-.53.562-.53.298 0 .544.232.562.53v2.02H15.25v-2.02zm2.022 0c.018-.298.263-.53.56-.53.3 0 .545.232.563.53v2.02h-1.12v-2.02zm2.02 0c.02-.298.264-.53.562-.53.294 0 .54.232.56.53v2.02H19.3v-2.02zm-6.96 2.02H11.21v-2.02c.018-.298.264-.53.56-.53.3 0 .544.232.562.53v2.02zM10 27.294v-4.02h11.63v4.287h-.313V25.8c-.04-.784-.68-1.398-1.46-1.398-.39 0-.75.153-1.01.406-.267-.253-.62-.407-1.015-.407-.39 0-.747.16-1.01.41-.263-.25-.62-.4-1.01-.4-.392 0-.75.16-1.012.41-.26-.25-.62-.4-1.01-.4s-.747.16-1.01.41c-.262-.25-.62-.4-1.01-.4-.78 0-1.422.62-1.46 1.4v1.76H10v-.27zm1.213 0v-1.46c.018-.296.264-.53.56-.53.3 0 .544.233.562.53v1.728h-1.123v-.265zm2.02 0v-1.46c.018-.296.264-.53.56-.53.3 0 .545.233.563.53v1.728h-1.124v-.265zm2.02 0v-1.46c.02-.296.265-.53.562-.53.298 0 .544.233.562.53v1.728H15.25v-.265zm2.022 0v-1.46c.018-.296.263-.53.56-.53.3 0 .545.233.563.53v1.728h-1.12v-.265zm2.02 0v-1.46c.02-.296.264-.53.562-.53.294 0 .54.233.56.53v1.728H19.3v-.265zm-11.41 0v.267H6.762v-1.67c.02-.29.264-.53.562-.53.297 0 .543.24.56.53v1.41zm18.164.267h-.25v-1.7c-.01-.16-.04-.31-.1-.45-.07-.19-.18-.36-.32-.5-.13-.13-.28-.24-.45-.31-.18-.08-.38-.13-.6-.13-.78 0-1.42.62-1.46 1.4v1.71h-.36v-9.01h3.62v9.01h-.11zm-.34-10.02h-2.54c.37-.26.82-.4 1.29-.4.16 0 .31.02.47.05.15.03.3.08.45.15l.32.18.06.04h-.06zM14.42 14.8l.91-.45.165-.082.136-.067.21-.1.21.1.13.07.18.09.6.3.3.15.69.34.22.11.36.18h-5.36l.36-.17.22-.11.69-.34zm-7.758 2.74h-.73l.282-.167c.142-.072.293-.127.45-.167.182-.047.372-.072.567-.072.48 0 .93.145 1.3.406H6.66zM5.48 18.55h3.625v9.006h-.323v-1.703c-.036-.784-.677-1.397-1.458-1.397-.238 0-.462.058-.66.16-.173.087-.325.207-.45.353-.127.14-.224.32-.283.51v.01c-.03.11-.05.23-.06.36v1.7h-.39v-9zm20.676-2.606v.767l-.105-.06-.21-.11-.13-.05-.32-.11c-.14-.04-.29-.08-.44-.1-.15-.02-.31-.03-.46-.03-.72 0-1.39.24-1.94.67v-2.1h3.63v1.15zM14.87 7.437h1.862v3.716H14.87V7.437zM5.48 15.87v-1.08h3.625v2.05c-.534-.394-1.185-.613-1.874-.613-.19 0-.38.017-.56.05-.15.03-.3.066-.45.116l-.28.112h-.01l-.16.08-.28.166v.01-.88zm24.523 11.685h-.82v-7.163c0-.25-.202-.45-.45-.45-.247 0-.448.202-.448.45v7.163H27.5V16.68h2.503v10.875z" fill="#3A434E"/></g></svg>