<svg xmlns="http://www.w3.org/2000/svg" viewBox="0 0 100 15" enable-background="new 0 0 100 15"><g><g fill="#223B75"><path d="M41.7 2.3c0-.6.5-1.2 1.2-1.2.6 0 1.2.5 1.2 1.2s-.5 1.2-1.2 1.2c-.7-.1-1.2-.6-1.2-1.2zM22.5 4c-2.1 0-3.7 1.5-3.7 3.7s1.5 3.6 3.7 3.6c2.1 0 3.7-1.5 3.7-3.7s-1.6-3.6-3.7-3.6zm0 5.6c-1 0-1.7-.8-1.7-1.9 0-1.1.7-1.9 1.7-1.9s1.7.8 1.7 1.9c0 1.1-.7 1.9-1.7 1.9zM39.4 7.8c-.1-.2-.2-.3-.3-.4l-.1-.1.1-.1c.1-.1.2-.2.3-.4l1.9-2.8h-2.3l-1.4 2.2c-.1.1-.2.2-.5.2h-.3v-4.1c0-.8-.5-.9-1.1-.9h-.9v9.8h2v-3h.2c.2 0 .4 0 .5.2l1.1 2.1c.3.6.6.7 1.2.7h1.5l-1.1-1.9-.8-1.5zM49.3 3.9c-1 0-1.7.5-2.1.8l-.1.1v-.2c-.1-.4-.5-.6-1-.6h-.9v7.1h2v-3.2c0-.3 0-.6.1-.8.2-.8.8-1.2 1.6-1.2.6 0 .9.3.9 1.2v3.1c0 .7.3 1.1 1.1 1.1h1v-4.6c-.1-1.8-1-2.8-2.6-2.8zM42.9 4.1h-.9v7.1h2v-6c0-.7-.4-1.1-1.1-1.1zM30.4 4c-2.1 0-3.7 1.5-3.7 3.7s1.5 3.7 3.7 3.7 3.7-1.5 3.7-3.7-1.6-3.7-3.7-3.7zm0 5.6c-1 0-1.7-.8-1.7-1.9 0-1.1.7-1.9 1.7-1.9s1.7.8 1.7 1.9c0 1.1-.7 1.9-1.7 1.9zM58.5 4.1c-.4 0-.7.2-.8.4l-.1.1-.1-.1c-.3-.3-.9-.6-1.9-.6-1.9 0-3.1 1.4-3.1 3.5s1.3 3.6 3.2 3.6c.6 0 1.1-.1 1.5-.5l.2-.1v.2c0 .9-.6 1.5-1.7 1.5-.5 0-1-.1-1.3-.2-.4-.1-.7 0-.8.4l-.2.4-.2.6.1.1c.7.4 1.6.6 2.5.6 1.7 0 3.7-.9 3.7-3.3v-6.6h-1zm-2.5 5.2c-1.1 0-1.5-1-1.5-1.9 0-.4.1-1.7 1.4-1.7.6 0 1.5.2 1.5 1.8 0 1.4-.8 1.8-1.4 1.8zM17.1 6.2l-.3-.2.3-.2c.3-.3.8-.8.8-1.8 0-1.5-1.2-2.5-3-2.5h-2.3000000000000003c-.5 0-1 .5-1 1v8.8h3.4c2.1 0 3.4-1.1 3.4-2.8-.2-1.1-.6-1.9-1.3-2.3zm-3.7-2v-.5c0-.5.2-.7.6-.7h.8c.7 0 1.1.4 1.1 1.1 0 .5-.3 1.2-1.1 1.2h-1.5v-1.1zm1.6 5.3h-1.6v-2c0-.4.2-.6.5-.7h1.1c.8 0 1.3.5 1.3 1.3 0 .9-.5 1.4-1.3 1.4z"/></g><g fill="#2BACE2"><path d="M60.2 10.1c0-.6.5-1.2 1.2-1.2s1.2.5 1.2 1.2c0 .6-.5 1.2-1.2 1.2-.7-.1-1.2-.6-1.2-1.2zM73.5 4c-2.1 0-3.7 1.5-3.7 3.7s1.5 3.7 3.7 3.7 3.7-1.5 3.7-3.7-1.6-3.7-3.7-3.7zm0 5.6c-1 0-1.7-.8-1.7-1.9 0-1.1.7-1.9 1.7-1.9s1.7.8 1.7 1.9c0 1.1-.7 1.9-1.7 1.9zM86.2 4c-.8 0-1.6.4-2.2 1l-.1.2-.1-.2c-.4-.7-1-1-1.9-1-.9 0-1.6.5-1.9.8l-.2.2-.1-.3c-.1-.4-.5-.6-1-.6h-.8v7h1.9v-3c0-.3 0-.5.1-.8.2-.7.7-1.5 1.5-1.5.6 0 .8.4.8 1.2v4.2h1.9v-3.1c0-.3 0-.6.1-.8.2-.7.7-1.4 1.5-1.4.6 0 .8.3.8 1.2v3.1c0 .7.3 1 1 1h.9v-4.5c.1-1.8-.7-2.7-2.2-2.7zM68.7 8.7s-.8.9-1.9.9c-1 0-2-.6-2-2 0-1.2.8-2 1.9-2 .4 0 .8.1.8.3.1.5.6.5.7.5h1v-.8c0-1.2-1.5-1.7-2.6-1.7-2.2 0-3.8 1.5-3.8 3.7s1.6 3.7 3.8 3.7c1.9 0 2.9-1.2 3-1.3l.1-.1-.8-1.4-.2.2z"/></g></g></svg>