<?xml version="1.0" encoding="utf-8"?>
<!-- Generator: Adobe Illustrator 17.0.0, SVG Export Plug-In . SVG Version: 6.00 Build 0)  -->
<!DOCTYPE svg PUBLIC "-//W3C//DTD SVG 1.1//EN" "http://www.w3.org/Graphics/SVG/1.1/DTD/svg11.dtd">
<svg version="1.1" id="Layer_1" xmlns="http://www.w3.org/2000/svg" xmlns:xlink="http://www.w3.org/1999/xlink" x="0px" y="0px"
	 width="285.516px" height="68.246px" viewBox="0 0 285.516 68.246" enable-background="new 0 0 285.516 68.246"
	 xml:space="preserve">
<path fill="#4B2D81" d="M99.778,37.959c-1.673,2.035-4.385,3.21-8.001,3.21c-4.793,0-9.086-2.17-9.086-7.187
	c0-4.791,3.48-6.962,9.491-7.278c5.699-0.271,7.552-1.312,7.552-3.164c0-1.853-1.764-3.255-5.696-3.255
	c-2.442,0-5.651,0.768-6.06,4.159h-3.976c0.271-4.656,4.113-7.684,10.08-7.684c6.238,0,9.405,2.893,9.405,7.233V36.83
	c0,1.176,0.315,2.893,0.677,3.797h-3.797C100.049,39.949,99.824,39.044,99.778,37.959 M99.734,28.105
	c-1.538,1.356-4.295,1.673-7.053,1.854c-5.065,0.316-6.194,2.078-6.194,4.022c0,2.531,2.441,3.616,5.425,3.616
	c3.979,0,7.731-1.717,7.821-5.921L99.734,28.105L99.734,28.105z"/>
<path fill="#4B2D81" d="M129.444,40.413h-3.634v-3.685c-1.595,2.356-4.526,4.262-7.902,4.262c-6.565,0-11.448-5.369-11.448-11.981
	c0-6.611,4.883-12.025,11.448-12.025c3.286,0,6.128,1.82,7.77,4.038V7.399h3.766V40.413 M117.908,20.49
	c-4.302,0-7.669,3.816-7.669,8.56c0,4.661,3.367,8.48,7.669,8.48c4.215,0,7.77-3.819,7.77-8.48
	C125.678,24.306,122.123,20.49,117.908,20.49z"/>
<polyline fill="#4B2D81" points="143.471,40.413 139.433,40.413 131.136,17.561 135.131,17.561 141.477,35.752 147.77,17.561 
	151.77,17.561 143.471,40.413 "/>
<path fill="#4B2D81" d="M173.245,33.313c-1.599,4.88-5.503,7.63-10.787,7.63c-6.566,0-11.711-5.234-11.711-11.935
	c0-6.611,5.144-12.025,11.496-12.025c5.896,0,11.584,4.881,11.526,13.001h-19.207c0.492,4.747,4.131,7.546,7.896,7.546
	c3.241,0,5.552-1.556,6.799-4.217L173.245,33.313 M169.606,26.61c-0.935-3.726-4.04-6.213-7.363-6.213
	c-3.15,0-6.483,2.31-7.459,6.213H169.606z"/>
<path fill="#4B2D81" d="M194.808,40.413h-3.728V26.524c0-3.505-1.952-6.079-5.587-6.079c-3.464,0-5.991,2.574-5.991,5.991v13.976
	h-3.78V17.561h3.639v2.485c1.56-1.91,3.913-3.063,6.664-3.063c5.591,0,8.783,3.993,8.783,9.672V40.413"/>
<path fill="#4B2D81" d="M207.999,40.413c-5.325,0.621-9.003-2.531-9.003-8.344V21.156h-3.108v-3.594h3.108V12.68h3.725v4.882h5.189
	v3.594h-5.189v10.913c0,4.039,2.481,5.059,5.278,4.881V40.413"/>
<path fill="#4B2D81" d="M228.816,40.413h-3.643v-2.487c-1.546,1.863-3.861,3.018-6.653,3.018c-5.593,0-8.791-3.994-8.791-9.642
	v-13.74h3.732v13.931c0,3.638,1.996,6.038,5.634,6.038c3.373,0,5.946-2.53,5.946-5.948V17.561h3.776L228.816,40.413"/>
<path fill="#4B2D81" d="M243.054,20.755c-3.948-0.221-7.321,1.864-7.321,6.436v13.222h-3.774V17.561h3.644v2.571
	c1.726-2.438,4.835-3.415,7.451-3.105V20.755"/>
<path fill="#4B2D81" d="M264.443,33.313c-1.599,4.88-5.506,7.63-10.79,7.63c-6.562,0-11.709-5.234-11.709-11.935
	c0-6.611,5.148-12.025,11.493-12.025c5.897,0,11.582,4.881,11.532,13.001h-19.21c0.484,4.747,4.125,7.546,7.893,7.546
	c3.242,0,5.552-1.556,6.794-4.217L264.443,33.313 M260.805,26.61c-0.934-3.726-4.046-6.213-7.368-6.213
	c-3.151,0-6.485,2.31-7.456,6.213H260.805z"/>
<path fill="#4B2D81" d="M276.152,40.989c-5.548,0-9.583-2.973-10.208-7.81h3.819c0.493,2.662,3.103,4.303,6.39,4.303
	c3.548,0,5.72-1.73,5.72-3.725c0-1.599-0.614-2.796-6.206-3.552c-5.548-0.797-8.918-2.129-8.918-6.433
	c0-3.282,2.843-6.789,8.959-6.789c5.281,0,8.834,2.663,9.322,7.142h-3.82c-0.529-2.441-2.709-3.681-5.502-3.681
	c-3.018,0-5.188,1.42-5.188,3.193c0,1.642,1.282,2.218,5.768,2.928c5.055,0.802,9.228,1.777,9.228,6.97
	C285.516,38.107,281.614,40.989,276.152,40.989"/>
<path fill="#4B2D81" d="M65.284,49.011c2.363-4.937,3.564-10.524,3.255-16.361C67.559,14.016,51.662-0.298,33.027,0.676
	C14.389,1.658,0.057,17.552,1.049,36.187c0.954,18.145,16.036,32.191,34.033,32.029l0.522,0.03l0.166-0.015
	c0.087-0.007,0.183-0.007,0.278-0.012c3.936-0.207,7.417-1.152,10.248-3.036c2.831-1.864,4.862-4.797,5.545-8.163
	c0.255-1.217,0.353-2.44,0.29-3.64c-0.124-2.464-0.952-4.834-2.415-6.787c-1.459-1.959-3.542-3.469-5.992-4.317
	c-2.536-0.882-5.018-0.947-7.26-0.837c-2.551,0.139-4.862,0.523-6.722,0.608c-1.071,0.06-1.967,0.022-2.618-0.107
	c-0.512-0.095-1.018-0.373-1.343-0.716c-0.326-0.355-0.496-0.704-0.527-1.226c-0.029-0.394,0.134-0.871,0.5-1.272
	c0.364-0.403,0.851-0.656,1.41-0.682c0.614-0.031,1.466,0.332,1.818,0.434c0.853,0.248,1.738,0.437,2.646,0.568
	c1.019,0.16,2.078,0.243,3.16,0.243c7.793,0,14.24-4.413,15.34-10.132c0.183-0.837,0.242-1.706,0.156-2.588
	c-0.04-0.503-0.142-1.005-0.281-1.499c-0.402-1.544-1.187-2.97-2.271-4.218c3.839,0.352,6.517-0.529,8.109-2.12
	c3.002,4.016,4.885,8.924,5.168,14.316c0.234,4.449-0.652,8.67-2.405,12.435l-4.759-2.515l3.491,11.301l11.301-3.494L65.284,49.011
	 M34.78,33.344c-3.289-0.001-5.953-2.671-5.954-5.962c0.001-3.287,2.665-5.955,5.954-5.954c3.294,0,5.959,2.667,5.959,5.954
	C40.74,30.672,38.073,33.342,34.78,33.344z M47.522,15.888c-1.041,0.633-2.144,0.903-3.235,0.961
	c-1.596,0.075-2.561-0.074-2.892-0.182c-0.499-0.179-1.011-0.337-1.534-0.472c-0.087-0.027-0.181-0.049-0.272-0.071
	c-0.145-0.038-0.291-0.07-0.439-0.105c-0.152-0.032-0.302-0.065-0.453-0.097c-0.086-0.017-0.176-0.033-0.261-0.047
	c-0.492-0.097-1.003-0.172-1.534-0.222c-0.688-0.074-1.398-0.113-2.117-0.112c-8.567,0-15.515,5.315-15.513,11.873
	c0,1.094,0.197,2.147,0.558,3.151c0.27,0.813,0.64,1.59,1.113,2.318c-0.271,0.241-0.527,0.49-0.768,0.755
	c-1.61,1.763-2.59,4.162-2.459,6.755c0.123,2.381,1.14,4.509,2.603,6.033c1.469,1.53,3.347,2.527,5.382,2.92
	c1.545,0.293,3.027,0.305,4.435,0.238c2.433-0.139,4.72-0.514,6.727-0.612c1.764-0.098,3.249,0.02,4.373,0.42
	c1.135,0.405,1.899,1.001,2.442,1.714c0.534,0.723,0.865,1.595,0.921,2.66c0.027,0.521-0.018,1.089-0.141,1.698
	c-0.349,1.539-1.021,2.522-2.358,3.451c-1.339,0.903-3.481,1.612-6.441,1.766c-0.031,0-0.05,0.005-0.074,0.003L35.2,60.669h-0.101
	C21.093,60.85,9.317,49.912,8.58,35.794c-0.373-7.25,2.208-13.93,6.711-18.933c4.502-5.002,10.879-8.27,18.126-8.651
	c6.229-0.325,12.034,1.537,16.719,4.917C49.277,14.559,48.383,15.356,47.522,15.888z"/>
<path fill="#778691" d="M87.343,58.889c-1.925,0.225-3.257-0.916-3.257-3.016v-3.946h-1.122v-1.299h1.122v-1.765h1.348v1.765h1.876
	v1.299h-1.876v3.946c0,1.46,0.898,1.829,1.909,1.764L87.343,58.889"/>
<path fill="#778691" d="M95.782,58.889h-1.347v-5.022c0-1.283-0.69-2.197-2.022-2.197c-1.251,0-2.166,0.93-2.166,2.166v5.053h-1.363
	V46.955h1.363v4.508c0.562-0.642,1.38-1.044,2.358-1.044c2.021,0,3.176,1.444,3.176,3.497L95.782,58.889"/>
<path fill="#778691" d="M105.619,56.322c-0.578,1.764-1.989,2.759-3.898,2.759c-2.375,0-4.235-1.893-4.235-4.315
	c0-2.39,1.86-4.347,4.154-4.347c2.134,0,4.187,1.764,4.171,4.701h-6.946c0.176,1.717,1.492,2.728,2.855,2.728
	c1.171,0,2.005-0.562,2.454-1.525L105.619,56.322 M104.304,53.901c-0.337-1.348-1.46-2.247-2.663-2.247
	c-1.139,0-2.342,0.834-2.695,2.247H104.304z"/>
<path fill="#778691" d="M119.918,58.504c0,2.646-1.717,4.444-4.251,4.444c-1.956,0-3.481-1.043-3.898-2.727h1.428
	c0.545,1.236,1.86,1.411,2.47,1.411c2.117,0,2.888-1.636,2.888-3.128v-0.867c-0.594,0.803-1.621,1.46-2.808,1.46
	c-2.374,0-4.138-1.941-4.138-4.331s1.764-4.347,4.138-4.347c1.219,0,2.278,0.69,2.855,1.525v-1.316h1.316L119.918,58.504
	 M115.747,51.687c-1.556,0-2.775,1.38-2.775,3.095c0,1.685,1.219,3.064,2.775,3.064c1.524,0,2.808-1.38,2.808-3.064
	C118.555,53.067,117.271,51.687,115.747,51.687z"/>
<path fill="#778691" d="M126.146,51.782c-1.428-0.08-2.647,0.674-2.647,2.327v4.78h-1.363v-8.262h1.315v0.93
	c0.625-0.881,1.748-1.236,2.695-1.123V51.782"/>
<path fill="#778691" d="M134.957,56.322c-0.577,1.764-1.989,2.759-3.898,2.759c-2.375,0-4.235-1.893-4.235-4.315
	c0-2.39,1.86-4.347,4.155-4.347c2.133,0,4.186,1.764,4.171,4.701h-6.946c0.177,1.717,1.492,2.728,2.856,2.728
	c1.171,0,2.005-0.562,2.454-1.525L134.957,56.322 M133.641,53.901c-0.337-1.348-1.46-2.247-2.662-2.247
	c-1.139,0-2.342,0.834-2.695,2.247H133.641z"/>
<path fill="#778691" d="M142.291,57.942c-0.593,0.723-1.556,1.139-2.839,1.139c-1.701,0-3.225-0.77-3.225-2.55
	c0-1.701,1.236-2.47,3.368-2.583c2.022-0.095,2.679-0.465,2.679-1.123c0-0.657-0.626-1.155-2.021-1.155
	c-0.867,0-2.005,0.273-2.15,1.475h-1.412c0.097-1.651,1.46-2.727,3.578-2.727c2.214,0,3.336,1.027,3.336,2.567v4.556
	c0,0.418,0.112,1.025,0.241,1.347h-1.348C142.387,58.648,142.307,58.329,142.291,57.942 M142.275,54.446
	c-0.545,0.481-1.524,0.593-2.502,0.657c-1.796,0.112-2.198,0.739-2.198,1.428c0,0.898,0.866,1.283,1.924,1.283
	c1.412,0,2.744-0.609,2.776-2.101V54.446z"/>
<path fill="#778691" d="M149.401,58.889c-1.926,0.225-3.257-0.916-3.257-3.016v-3.946h-1.123v-1.299h1.123v-1.765h1.348v1.765h1.876
	v1.299h-1.876v3.946c0,1.46,0.898,1.829,1.909,1.764V58.889"/>
<path fill="#778691" d="M161.146,57.942c-0.594,0.723-1.556,1.139-2.838,1.139c-1.702,0-3.225-0.77-3.225-2.55
	c0-1.701,1.235-2.47,3.369-2.583c2.021-0.095,2.678-0.465,2.678-1.123c0-0.657-0.625-1.155-2.021-1.155
	c-0.866,0-2.005,0.273-2.148,1.475h-1.413c0.097-1.651,1.46-2.727,3.578-2.727c2.213,0,3.336,1.027,3.336,2.567v4.556
	c0,0.418,0.112,1.025,0.241,1.347h-1.348C161.242,58.648,161.162,58.329,161.146,57.942 M161.13,54.446
	c-0.545,0.481-1.523,0.593-2.502,0.657c-1.796,0.112-2.198,0.739-2.198,1.428c0,0.898,0.867,1.283,1.925,1.283
	c1.411,0,2.743-0.609,2.775-2.101V54.446z"/>
<path fill="#778691" d="M172.476,58.889h-1.316v-1.331c-0.577,0.851-1.636,1.539-2.856,1.539c-2.374,0-4.138-1.941-4.138-4.331
	s1.764-4.347,4.138-4.347c1.188,0,2.213,0.658,2.809,1.46v-4.924h1.363L172.476,58.889 M168.304,51.687
	c-1.556,0-2.774,1.38-2.774,3.095c0,1.685,1.218,3.064,2.774,3.064c1.525,0,2.809-1.38,2.809-3.064
	C171.112,53.067,169.829,51.687,168.304,51.687z"/>
<polyline fill="#778691" points="178.271,58.889 176.81,58.889 173.811,50.628 175.254,50.628 177.549,57.205 179.827,50.628 
	181.27,50.628 178.271,58.889 "/>
<path fill="#778691" d="M190.05,56.322c-0.577,1.764-1.989,2.759-3.898,2.759c-2.374,0-4.235-1.893-4.235-4.315
	c0-2.39,1.861-4.347,4.154-4.347c2.134,0,4.188,1.764,4.172,4.701h-6.946c0.177,1.717,1.492,2.728,2.856,2.728
	c1.17,0,2.005-0.562,2.455-1.525L190.05,56.322 M188.735,53.901c-0.337-1.348-1.46-2.247-2.664-2.247
	c-1.139,0-2.341,0.834-2.694,2.247H188.735z"/>
<path fill="#778691" d="M198.812,58.889h-1.348v-5.022c0-1.267-0.706-2.197-2.022-2.197c-1.251,0-2.165,0.93-2.165,2.166v5.053
	h-1.364v-8.262h1.316v0.898c0.562-0.689,1.411-1.107,2.407-1.107c2.021,0,3.176,1.444,3.176,3.497L198.812,58.889"/>
<path fill="#778691" d="M204.447,58.889c-1.925,0.225-3.257-0.916-3.257-3.016v-3.946h-1.123v-1.299h1.123v-1.765h1.347v1.765h1.876
	v1.299h-1.876v3.946c0,1.46,0.899,1.829,1.91,1.764V58.889"/>
<path fill="#778691" d="M212.853,58.889h-1.315v-0.898c-0.562,0.674-1.395,1.09-2.406,1.09c-2.022,0-3.176-1.444-3.176-3.48v-4.973
	h1.348v5.037c0,1.316,0.721,2.183,2.037,2.183c1.218,0,2.148-0.916,2.148-2.152v-5.068h1.364V58.889"/>
<path fill="#778691" d="M219.209,51.782c-1.427-0.08-2.647,0.674-2.647,2.327v4.78h-1.363v-8.262h1.316v0.93
	c0.625-0.881,1.748-1.236,2.694-1.123L219.209,51.782"/>
<path fill="#778691" d="M228.019,56.322c-0.577,1.764-1.988,2.759-3.898,2.759c-2.374,0-4.234-1.893-4.234-4.315
	c0-2.39,1.861-4.347,4.154-4.347c2.134,0,4.187,1.764,4.171,4.701h-6.946c0.177,1.717,1.492,2.728,2.855,2.728
	c1.171,0,2.006-0.562,2.455-1.525L228.019,56.322 M226.705,53.901c-0.337-1.348-1.461-2.247-2.664-2.247
	c-1.139,0-2.341,0.834-2.694,2.247H226.705z"/>
<path fill="#778691" d="M238.79,59.081c-1.188,0-2.214-0.641-2.807-1.444v4.924h-1.363V50.628h1.316v1.316
	c0.577-0.835,1.636-1.525,2.855-1.525c2.375,0,4.123,1.942,4.123,4.315C242.912,57.14,241.165,59.081,238.79,59.081 M238.79,51.67
	c-1.524,0-2.807,1.38-2.807,3.064c0,1.7,1.283,3.095,2.807,3.095c1.54,0,2.759-1.395,2.759-3.095
	C241.549,53.05,240.329,51.67,238.79,51.67z"/>
<path fill="#778691" d="M252.187,56.322c-0.577,1.764-1.988,2.759-3.898,2.759c-2.374,0-4.235-1.893-4.235-4.315
	c0-2.39,1.861-4.347,4.154-4.347c2.134,0,4.187,1.764,4.171,4.701h-6.946c0.177,1.717,1.492,2.728,2.855,2.728
	c1.171,0,2.006-0.562,2.455-1.525L252.187,56.322 M250.873,53.901c-0.337-1.348-1.46-2.247-2.664-2.247
	c-1.139,0-2.341,0.834-2.694,2.247H250.873z"/>
<path fill="#778691" d="M261.754,54.783c0,2.373-1.797,4.298-4.155,4.298c-2.341,0-4.154-1.925-4.154-4.298
	c0-2.407,1.813-4.364,4.154-4.364C259.957,50.419,261.754,52.376,261.754,54.783 M260.39,54.783c0-1.716-1.251-3.113-2.792-3.113
	c-1.524,0-2.775,1.397-2.775,3.113c0,1.685,1.251,3.047,2.775,3.047C259.138,57.83,260.39,56.468,260.39,54.783z"/>
<path fill="#778691" d="M267.677,59.081c-1.188,0-2.215-0.641-2.808-1.444v4.924h-1.364V50.628h1.316v1.316
	c0.578-0.835,1.636-1.525,2.856-1.525c2.374,0,4.122,1.942,4.122,4.315C271.799,57.14,270.051,59.081,267.677,59.081 M267.677,51.67
	c-1.525,0-2.808,1.38-2.808,3.064c0,1.7,1.283,3.095,2.808,3.095c1.539,0,2.758-1.395,2.758-3.095
	C270.435,53.05,269.216,51.67,267.677,51.67z"/>
<rect x="273.583" y="46.955" fill="#778691" width="1.363" height="11.935"/>
<path fill="#778691" d="M284.846,56.322c-0.578,1.764-1.989,2.759-3.898,2.759c-2.375,0-4.235-1.893-4.235-4.315
	c0-2.39,1.861-4.347,4.155-4.347c2.134,0,4.187,1.764,4.171,4.701h-6.946c0.177,1.717,1.492,2.728,2.855,2.728
	c1.171,0,2.006-0.562,2.455-1.525L284.846,56.322 M283.531,53.901c-0.337-1.348-1.46-2.247-2.663-2.247
	c-1.139,0-2.341,0.834-2.694,2.247H283.531z"/>
</svg>
