<?xml version="1.0" encoding="utf-8"?>
<!-- Generator: Adobe Illustrator 19.0.0, SVG Export Plug-In . SVG Version: 6.00 Build 0)  -->
<svg version="1.1" id="Layer_1" xmlns="http://www.w3.org/2000/svg" xmlns:xlink="http://www.w3.org/1999/xlink" x="0px" y="0px"
	 viewBox="0 0 437 120" style="enable-background:new 0 0 437 120;" xml:space="preserve">
<style type="text/css">
	.st0{fill:#52247F;}
</style>
<path class="st0" d="M112.9,95.7c2.5-5.3,3.8-11.3,3.5-17.6C115.4,58,98.2,42.6,78.2,43.6c-20.1,1.1-35.5,18.2-34.4,38.2
	c0.1,2.3,0.5,4.7,1,6.9c0.6,2.2,1.3,4.4,2.3,6.5c0.9,2,2.1,4,3.4,5.8c1.3,1.8,2.8,3.5,4.4,5.1c1.6,1.5,3.4,2.9,5.2,4.2
	c1.9,1.2,3.9,2.3,5.9,3.2c2.1,0.9,4.3,1.6,6.5,2c2.3,0.5,4.6,0.7,7,0.8c3.1,0.1,6.3-0.3,9.2-1.4c1.3-0.5,2.6-1.1,3.8-1.9
	c3-2,5.2-5.2,6-8.8c0.3-1.3,0.4-2.6,0.3-3.9c-0.1-2.7-1-5.2-2.6-7.3c-1.6-2.1-3.8-3.7-6.5-4.6c-2.7-0.9-5.4-1-7.8-0.9
	c-2.7,0.2-5.2,0.6-7.2,0.7c-1.2,0.1-2.1,0-2.8-0.1c-0.6-0.1-1.1-0.4-1.4-0.8c-0.4-0.4-0.5-0.8-0.6-1.3c0-0.4,0.1-0.9,0.5-1.4
	c0.4-0.4,0.9-0.7,1.5-0.7c0.7,0,1.6,0.4,2,0.5c0.9,0.3,1.9,0.5,2.8,0.6c1.1,0.2,2.2,0.3,3.4,0.3c8.4,0,15.3-4.8,16.5-10.9
	c0.2-0.9,0.3-1.8,0.2-2.8c0-0.5-0.2-1.1-0.3-1.6c-0.4-1.7-1.3-3.2-2.4-4.5c4.1,0.4,7-0.6,8.7-2.3c3.2,4.3,5.3,9.6,5.6,15.4
	c0.3,4.8-0.7,9.3-2.6,13.4l-5.1-2.7l3.8,12.2l12.2-3.8L112.9,95.7z M80.1,78.8c-3.5,0-6.4-2.9-6.4-6.4c0-3.5,2.9-6.4,6.4-6.4
	c3.5,0,6.4,2.9,6.4,6.4C86.5,75.9,83.6,78.8,80.1,78.8z M93.8,60c-1.1,0.7-2.3,1-3.5,1c-1.7,0.1-2.8-0.1-3.1-0.2
	c-0.5-0.2-1.1-0.4-1.7-0.5c-0.1,0-0.2-0.1-0.3-0.1c-0.2,0-0.3-0.1-0.5-0.1c-0.2,0-0.3-0.1-0.5-0.1c-0.1,0-0.2,0-0.3-0.1
	c-0.5-0.1-1.1-0.2-1.7-0.2c-0.7-0.1-1.5-0.1-2.3-0.1c-9.2,0-16.7,5.7-16.7,12.8c0,1.2,0.2,2.3,0.6,3.4c0.3,0.9,0.7,1.7,1.2,2.5
	c-0.3,0.3-0.6,0.5-0.8,0.8c-1.7,1.9-2.8,4.5-2.6,7.3c0.1,2.6,1.2,4.9,2.8,6.5c1.6,1.6,3.6,2.7,5.8,3.1c1.7,0.3,3.3,0.3,4.8,0.3
	c2.6-0.1,5.1-0.6,7.2-0.7c1.9-0.1,3.5,0,4.7,0.5c1.2,0.4,2,1.1,2.6,1.8c0.6,0.8,0.9,1.7,1,2.9c0,0.6,0,1.2-0.2,1.8
	c-0.4,1.7-1.1,2.7-2.5,3.7c-1.4,1-3.7,1.7-6.9,1.9c0,0-0.1,0-0.1,0l-0.4,0h-0.1c-15.1,0.2-27.8-11.6-28.6-26.8
	c-0.4-7.8,2.4-15,7.2-20.4c4.8-5.4,11.7-8.9,19.5-9.3c6.7-0.3,13,1.7,18,5.3C95.7,58.6,94.7,59.4,93.8,60z"/>
<g>
	<path class="st0" d="M228.3,73.5c-0.9-1.1-2.6-1.7-4.8-1.7c-2.5,0-5,1-7.1,2.7c-2.5,2.1-4.2,5.1-4.9,8.7
		c-1.2,6.4,1.8,11.1,7.1,11.1c2.6,0,5.1-1.1,6.8-2.9l-0.2,2.4h6.2l0.1-0.4c0.2-1.4,0.6-3.8,1-6.2l4.4-22.5h-7L228.3,73.5z
		 M226.8,81.4l-0.5,2.7c-0.1,0.6-0.2,1-0.4,1.4c-0.7,1.7-2.2,2.8-3.9,2.8c-2.5,0-3.6-2-3-5.3c0.5-2.5,2.1-5.5,5.1-5.5
		c1.9,0,2.8,1.4,2.8,2.8C226.9,80.6,226.8,81.1,226.8,81.4z"/>
	<path class="st0" d="M357.7,73.1c-2-1.3-3.4-1.4-5-1.4c-1.9,0-4.4,1.1-6.1,3.4l0.4-2.9h-6.4l-0.1,0.4c-0.3,1.8-0.6,3.8-1.1,6.8
		l-2.8,14.4h7.3l2.1-11c0.1-0.5,0.2-1,0.4-1.4c0.8-1.9,2.5-3,4.6-3c0.7,0,1.2,0.1,1.6,0.2c0,0,0.2,0,0.5,0.1
		C354,76.4,356.4,74,357.7,73.1z"/>
	<path class="st0" d="M386.7,80.3c-2.5-0.9-2.8-1.4-2.7-2c0.2-1.1,1.7-1.6,2.4-1.6c1.3,0,2.8,0.1,4.2,0.9l0.4,0.2l2.2-4.7l-0.3-0.1
		c-1.1-0.6-3.2-1.2-5.8-1.2c-5.2,0-9.4,3-10.3,7.2c-0.4,2.1,0.1,4.9,4.9,6.6c2.4,0.8,2.7,1.3,2.5,2c-0.1,0.3-0.4,1.3-2.8,1.3
		c-1.5,0-3.8-0.2-5.1-0.9l-0.5-0.2l-2.2,4.4c1.9,1,4.7,2.1,6.8,2.1c5.8,0,10-2.7,10.8-7.1C391.9,83.8,390.5,81.7,386.7,80.3z"/>
	<path class="st0" d="M197.8,64.7l-8.2,16.3h-6.6l-2.8,5.6h6.6l-3.7,7.3h7.7l3.4-7.3h7.7l0.6,7.3h7.5l-3.3-29.1H197.8z M196.9,80.9
		l1.3-2.9l3.1-6.7l0.7,9.5H196.9z"/>
	<path class="st0" d="M311.2,72.2l1.6-7.5l-7.7,1.7l-3.9,19.5c-0.6,3-0.4,5.1,0.6,6.5c0.9,1.2,2.7,1.9,4.8,1.9
		c1.8,0,3.5-0.2,4.5-0.6l0.4-0.1l1.1-5.9l-0.7,0.1c-0.6,0.1-1.2,0.2-1.8,0.2c-0.6,0-1-0.1-1.2-0.4c-0.3-0.4-0.3-1.3,0-2.6l1.4-7h4.5
		l1.1-5.8H311.2z"/>
	<path class="st0" d="M298.5,73.6c-1-1.2-2.6-1.9-4.7-1.9c-2.8,0-4.9,1.2-6.2,2.3l-0.3,0.2l0.3-2h-6.6l-0.1,0.6
		c-0.3,1.8-0.6,3.9-1.1,6.5l-2.8,14.5h7.2l2.4-12.4c0.4-2.2,1.7-3.4,3.6-3.4c0.7,0,1.2,0.2,1.6,0.6c0.5,0.6,0.6,1.7,0.3,3.2
		l-2.3,11.9h7.1l2.5-12.7C300.1,77.7,299.8,75.2,298.5,73.6z"/>
	<polygon class="st0" points="252.9,72.2 245.7,85 245.7,84.9 243.7,72.2 237,72.2 240.6,93.8 247.6,93.8 259.9,72.2 	"/>
	<path class="st0" d="M160.2,82h5.1l-0.9,4.8c-0.5,0.2-2,0.7-3.4,0.7c-3.2-0.1-5.3-0.9-6.4-2.4c-1-1.4-1.2-3.5-0.5-6.3
		c1.4-5.3,5.5-8.6,11.2-8.7c2.2-0.1,5.4,0.5,8.6,1.6c0,0,1.2-6.4,1.3-6.9c-1.3-0.7-4.7-1.6-8.6-1.6c-10.4,0-18.5,6.2-20.5,15.8
		c-1,4.5-0.3,8.4,2,11.1c2.3,2.8,5.9,4.2,10.7,4.2c0.2,0,0.5,0,0.7,0c6.4-0.2,10.8-2.8,11-2.9l0.1-0.1l2.9-15.1l-10.5,0L160.2,82z"
		/>
	<path class="st0" d="M316.8,92.4c1,1.2,2.6,1.9,4.7,1.9c2.8,0,4.9-1.2,6.2-2.3l0.3-0.2l-0.3,2h6.6l0.1-0.6c0.3-1.8,0.6-3.9,1.1-6.5
		l2.8-14.5H331l-2.4,12.4c-0.4,2.2-1.7,3.4-3.6,3.4c-0.7,0-1.2-0.2-1.6-0.6c-0.5-0.6-0.6-1.7-0.3-3.2l2.3-11.9h-7.1l-2.5,12.7
		C315.2,88.3,315.5,90.8,316.8,92.4z"/>
	<path class="st0" d="M269.7,71.7c-5.2,0-11.5,3.6-13.1,11.3c-0.4,2.2-0.5,4.7,0.6,6.7c2.4,4.5,9.1,5,13.5,3.8
		c1.2-0.3,2.4-0.8,3.5-1.5c0,0-2.2-4.7-2.2-4.8c-4.3,2.4-9.3,1.4-9.1-2h13.5l0.1-0.3c0.2-0.6,0.5-1.6,0.7-2.6
		C278.3,77.2,276.8,71.7,269.7,71.7z M271.8,80.4h-7.7c0.7-1.6,2.3-4,4.8-4C271.8,76.4,272,79.1,271.8,80.4z"/>
	<path class="st0" d="M367.1,71.8c-5.3,0-11.6,3.6-13.1,11.4c-0.4,2.2-0.5,4.7,0.6,6.7c2.5,4.5,9.1,5.1,13.6,3.8
		c1.2-0.3,2.4-0.8,3.5-1.5c0,0-2.2-4.8-2.2-4.8c-4.3,2.4-9.4,1.4-9.2-2h13.6l0.1-0.3c0.2-0.6,0.5-1.6,0.7-2.6
		C375.7,77.3,374.2,71.8,367.1,71.8z M369.2,80.4h-7.8c0.7-1.6,2.3-4,4.8-4C369.1,76.4,369.4,79.1,369.2,80.4z"/>
</g>
</svg>
