<svg xmlns="http://www.w3.org/2000/svg" viewBox="0 0 100 15" enable-background="new 0 0 100 15"><path fill="#133D8D" d="M10.7 12.8c.3 0 .5-.2.5-.5v-1.9h2c.3 0 .4-.3.4-.5 0-.3-.2-.5-.5-.5h-2.3000000000000003c-.3 0-.6.3-.6.6v2.4c-.1.2.1.4.5.4M7.9 2c-.3 0-.5.2-.5.5v1.9h-2.1c-.3.1-.5.3-.5.6s.2.5.5.5h2.3000000000000003c.3 0 .6-.3.6-.6v-2.4c.2-.3 0-.5-.3-.5M5.9 2c.6 0 1 .5 1 1 0 .6-.5 1-1 1-.6 0-1-.5-1-1-.1-.6.4-1 1-1"/><path fill="#133D8D" d="M12.3 2.3c.8 0 1.4.6 1.4 1.4v1.8h-4.7v-3.2h3.3zM12.6 12.8c-.6 0-1-.5-1-1 0-.6.5-1 1-1 .6 0 1 .5 1 1s-.5 1-1 1"/><path fill="#133D8D" d="M6.2 12.5c-.8 0-1.4-.6-1.4-1.4v-1.8h4.7v3.2h-3.3z"/><path fill="#8C8C8C" d="M15.7 2c-.7 0-1.3.6-1.3 1.3v2.8h-10.3v-2.8c0-.7-.6-1.3-1.3-1.3s-1.3.6-1.3 1.3v8.4c0 .7.6 1.3 1.3 1.3s1.3-.6 1.3-1.3v-3h10.2v3c0 .7.6 1.3 1.3 1.3.7 0 1.3-.6 1.3-1.3v-8.4c0-.7-.5-1.3-1.2-1.3"/><path fill="#133D8D" d="M18.8 4.5h1.8v2.1h1.7v-2.1h1.9v6h-1.9v-2.4h-1.7v2.4h-1.8zM27.8 4.4c1.8 0 3 1.3 3 3.1s-1.2 3.1-3 3.1-3-1.3-3-3.1c-.1-1.8 1.1-3.1 3-3.1m0 4.7c.5 0 1.2-.3 1.2-1.6s-.7-1.6-1.2-1.6-1.2.3-1.2 1.6.7 1.6 1.2 1.6"/><path fill="#133D8D" d="M32.9 8.5c0 .2 0 .3.1.4.1.4.5.4.9.4.3 0 .8-.1.8-.5 0-.3-.3-.4-1.3-.7-.9-.3-2-.5-2-1.7 0-1.4 1.2-2 2.4-2 1.3 0 2.4.5 2.5 2h-1.7c0-.2-.1-.4-.2-.5-.2-.1-.4-.2-.5-.2-.3 0-.7.1-.7.4 0 .4.9.5 1.7.8.8.2 1.7.6 1.7 1.7 0 1.6-1.4 2.1-2.8 2.1-.7 0-2.6-.2-2.6-2.2h1.7zM38.2 6h-1.6v-1.5h5.3v1.5h-1.8v4.5h-1.9zM42.4 4.5h4.9v1.5h-3.1v.8h2.8v1.4h-2.8v.8h3.2v1.5h-5zM47.9 4.5h1.9v4.5h2.6v1.5h-4.5zM58.2 10.5h-1.8l-.6-3.6h-.1l-.6 3.6h-1.8l-1.6-6h1.8l.7 3.7.8-3.7h1.6l.7 3.8.7-3.8h2zM62.7 4.4c1.8 0 3 1.3 3 3.1s-1.2 3.1-3 3.1-3-1.3-3-3.1 1.2-3.1 3-3.1m0 4.7c.5 0 1.2-.3 1.2-1.6s-.7-1.6-1.2-1.6-1.2.3-1.2 1.6c.1 1.3.8 1.6 1.2 1.6"/><path fill="#133D8D" d="M66.4 4.5h3.5c1 0 2 .6 2 1.7 0 .6-.3 1.3-.9 1.5.5.2.8.7.9 1.5 0 .3 0 1 .2 1.3h-1.9l-.2-.9c0-.6-.1-1.2-.8-1.2h-1v2.1h-1.8v-6zm1.8 2.6h1c.3 0 .8-.1.8-.6 0-.4-.2-.6-.9-.6h-.9v1.2zM72.6 4.5h1.9v4.5h2.7v1.5h-4.6zM77.8 4.5h3c2 0 2.7 1.5 2.7 3 0 1.8-1 3-3.1 3h-2.7v-6h.1zm1.9 4.5h.7c1.1 0 1.3-.9 1.3-1.5 0-.4-.1-1.4-1.5-1.4h-.6v2.9h.1z"/><path fill="#8C8C8C" d="M83.7 9.3h1.3v1.2h-1.3zM87.7 8.5l-.1-.3c-.1-.1-.2-.1-.3-.1-.5 0-.5.4-.5.8s.1.8.5.8c.3 0 .5-.2.5-.5h1.2c-.1.9-.8 1.4-1.7 1.4-1 0-1.8-.7-1.8-1.7s.8-1.7 1.8-1.7c.9 0 1.6.4 1.7 1.3h-1.3zM90.9 10.6c-1.2 0-1.8-.8-1.8-1.7 0-.9.6-1.7 1.8-1.7s1.8.8 1.8 1.7c.1.9-.6 1.7-1.8 1.7m0-2.5c-.5 0-.5.5-.5.8 0 .3.1.8.5.8.5 0 .5-.5.5-.8.1-.4 0-.8-.5-.8"/><path fill="#8C8C8C" d="M93.1 7.2h1.2v.4c.2-.3.6-.4 1.1-.4.4 0 .7.2.9.5.1 0 .3-.5 1.1-.5s1.1.6 1.1 1.1v2.2h-1.2v-1.8c0-.3 0-.6-.4-.6-.4.1-.5.3-.5.6v1.8h-1.2v-1.8c0-.3 0-.6-.4-.6-.3 0-.4.2-.4.6v1.8h-1.2v-3.3h-.1z"/></svg>