<?xml version="1.0" encoding="utf-8"?>
<!-- Generator: Adobe Illustrator 17.0.0, SVG Export Plug-In . SVG Version: 6.00 Build 0)  -->
<!DOCTYPE svg PUBLIC "-//W3C//DTD SVG 1.1//EN" "http://www.w3.org/Graphics/SVG/1.1/DTD/svg11.dtd">
<svg version="1.1" id="Layer_1" xmlns="http://www.w3.org/2000/svg" xmlns:xlink="http://www.w3.org/1999/xlink" x="0px" y="0px"
	 width="95.737px" height="96.43px" viewBox="0 0 95.737 96.43" enable-background="new 0 0 95.737 96.43" xml:space="preserve">
<path fill="#B71F36" d="M79.413,80.162l-5.994,1.607v-0.273l0.189-0.198l-0.151-0.202l-0.229-0.133l-0.296-0.017l0.513-0.623
	c0,0-0.702,0.091-1.018-1.086c0,0-0.792-4.588-3.897-4.773l-0.15-0.736c0,0-0.164-0.249-0.505-0.254c0,0-0.211-0.429,0.126-0.615
	l-1.064,0.188l-0.578-1.978l0.768-0.206l-0.085-0.317c0,0-0.317,0.086-0.667-0.501c0,0-0.208-0.234-0.402-0.23
	c0,0,0.247-0.165-0.041-1.057c0,0-0.178-0.486-0.588-0.568c0,0,0.369-0.974-0.626-1.433c0,0,0.152-1.059-0.521-1.218
	c0,0,0.235-0.935-0.441-1.288c0,0,0.168-0.82-0.371-1.015c0,0,0.102-0.707-0.366-0.824c0,0,0.02-0.831-0.46-0.993
	c0,0,0.021-0.828-0.39-0.913c0,0,0.205-0.686-0.354-0.78c0,0-0.045-0.713-0.455-0.796c0,0-0.152-0.929-0.472-1.038l-0.086,0.023
	c-0.225,0.255,0.109,1.135,0.109,1.135c-0.313,0.277,0.004,0.917,0.004,0.917c-0.436,0.362,0.082,0.853,0.082,0.853
	c-0.312,0.279,0.12,0.985,0.12,0.985c-0.335,0.381,0.098,1.09,0.098,1.09c-0.347,0.335,0.094,0.896,0.094,0.896
	c-0.367,0.438,0.189,1.065,0.189,1.065c-0.41,0.643,0.261,1.336,0.261,1.336c-0.504,0.473,0.159,1.315,0.159,1.315
	c-0.633,0.896,0.174,1.555,0.174,1.555c-0.316,0.276-0.226,0.786-0.226,0.786c0.197,0.918,0.493,0.935,0.493,0.935
	c-0.169,0.093-0.233,0.401-0.233,0.401c-0.01,0.682-0.327,0.767-0.327,0.767l0.085,0.317l0.769-0.206l0.489,2.002l-1.017,0.369
	c0.385-0.006,0.417,0.471,0.417,0.471c-0.292,0.174-0.31,0.471-0.31,0.471l0.24,0.713c-2.595,1.713-0.989,6.083-0.989,6.083
	c0.316,1.178-0.339,1.449-0.339,1.449l0.755,0.284l-0.247,0.162l-0.132,0.229l-0.03,0.251l0.263,0.075l0.229,0.132l-0.075,0.103
	l-1.129,0.303l-2.131-7.037c0,0,1.083-0.142,0.934-2.082l-1.533,0.411c0,0-2.238-8.626-3.042-9.121l-0.039,0.011
	c-0.449,0.829,1.928,9.419,1.928,9.419l-1.534,0.411c0.843,1.753,1.854,1.335,1.854,1.335l1.672,7.16l-0.92,0.246l-0.732-2.733
	l-1.212,0.325l-0.509-1.902c0,0-0.252,0.439-2.218-0.843c0,0-1.824-1.273-4.981-0.426l-0.055,0.014
	c-3.157,0.845-4.1,2.861-4.1,2.861c-1.062,2.093-1.5,1.838-1.5,1.838l0.509,1.902l-1.211,0.325l0.734,2.736l-4.97,1.333
	C27.28,88.645,18.034,82.16,11.978,73.047L8.22,74.054C19.056,91.325,40.284,100.345,60.983,94.8
	c20.7-5.546,34.572-23.973,35.321-44.349l-3.758,1.008C91.858,62.373,87.097,72.606,79.413,80.162"/>
<path fill="#B71F36" d="M37.25,6.225C55.767,1.264,74.736,8.942,84.985,23.94l3.767-1.009C77.827,5.969,56.802-2.838,36.294,2.658
	C15.785,8.153,1.98,26.292,1,46.444l3.766-1.009C6.144,27.321,18.733,11.187,37.25,6.225"/>
<path fill="#B71F36" d="M4.052,52.844L7.96,67.229c0.423,1.555,0.119,1.945-0.128,2.259c-0.192,0.248-0.459,0.589-0.294,1.201
	c0.146,0.543,0.527,0.702,0.838,0.619l0.777-0.265l1.162-0.39l1.813-0.414l0.892-0.195c0.223-0.06,0.536-0.175,0.697-0.461
	c0.111-0.195,0.131-0.426,0.055-0.69c-0.178-0.656-0.764-0.646-1.078-0.639c-0.539,0.008-1.205,0.019-1.777-2.087L7.034,51.871
	c-0.41-1.511-0.091-1.779,0.163-2.001c0.217-0.184,0.577-0.492,0.398-1.144c-0.228-0.849-0.883-0.671-1.276-0.566l-1.42,0.466
	l-0.817,0.275L3.17,49.086L2.019,49.33c-0.161,0.035-0.495,0.107-0.681,0.414c-0.084,0.138-0.163,0.371-0.07,0.705
	c0.184,0.684,0.772,0.768,1.202,0.828C3.062,51.36,3.672,51.446,4.052,52.844"/>
<path fill="#B71F36" d="M23.23,45.444c0.215-0.236,0.508-0.561,0.359-1.108c-0.174-0.606-0.638-0.707-0.989-0.613l-0.273,0.101
	c-0.278,0.112-0.794,0.32-1.575,0.533l-1.622,0.346l-0.415,0.076c0,0.001-0.409,0.316-0.409,0.316
	c-0.15,0.261-0.112,0.584-0.052,0.81c0.001,0.004,0.002,0.006,0.002,0.008c0.171,0.635,0.751,0.756,1.216,0.855
	c0.688,0.149,1.402,0.3,1.795,1.736c0,0,2.627,9.683,2.68,9.88c-1.353-1.434-10.476-11.095-10.476-11.095
	c-0.004-0.004-0.256-0.333-0.256-0.333c-0.236-0.364-0.484-0.546-1.062-0.387c-0.002,0.001-1.283,0.435-1.283,0.435l-0.536,0.19
	c0-0.001-0.424,0.057-0.424,0.057l-0.592,0.091l-0.42,0.325c-0.152,0.269-0.111,0.591-0.05,0.811
	c0.201,0.751,0.697,0.838,1.055,0.902c0.514,0.091,1.369,0.242,2.338,3.804l3.095,11.39c0.455,1.676,0.052,2.235-0.306,2.732
	c-0.258,0.366-0.556,0.777-0.378,1.441c0.08,0.285,0.221,0.476,0.42,0.576c0.29,0.144,0.565,0.033,0.712-0.029l0.062-0.022
	l1.479-0.532l0.838-0.174l1.27-0.27c0.257-0.07,0.619-0.165,0.806-0.491c0.075-0.129,0.145-0.338,0.069-0.622
	c-0.001-0.003-0.002-0.006-0.004-0.008c-0.207-0.767-0.776-0.813-1.153-0.841c-0.608-0.047-1.524-0.121-2.49-3.666
	c0,0-2.206-8.129-2.56-9.43c2.405,2.516,12.168,12.728,12.168,12.728c0.202,0.221,0.506,0.553,1.014,0.414
	c0.639-0.174,0.472-0.789,0.281-1.499c0-0.001-4.571-16.813-4.571-16.813C22.504,46.251,22.924,45.787,23.23,45.444"/>
<path fill="#B71F36" d="M32.746,43.812c0.001,0,1.498-0.409,1.498-0.409c0.777-0.26,1.189,0.271,1.783,1.485
	c0.312,0.639,0.633,1.299,1.249,1.134l0.43-0.354c0.216-0.432-0.004-1.05-0.265-1.699l-0.049-0.128
	c0.003,0.011-0.939-2.693-0.939-2.693c0.001,0.004-0.023-0.07-0.023-0.07c-0.104-0.307-0.343-1.031-0.989-0.857
	c-0.001,0-2.052,0.617-2.052,0.617l-3.297,0.971l-3.327,0.831l-2.092,0.514c-0.649,0.173-0.491,0.923-0.423,1.243l0.017,0.074
	c0,0,0.793,4.026,0.794,4.028l0.02,0.11c0.067,0.409,0.152,0.915,0.502,1.14l0.547,0.079c0.66-0.179,0.593-0.987,0.518-1.923
	c-0.112-1.348-0.133-2.4,0.665-2.617l1.475-0.398c0.294-0.081,0.35-0.062,0.356-0.058c0.06,0.034,0.193,0.219,0.427,1.086
	l3.779,13.907c0.531,1.95,0.002,2.282-0.466,2.574c-0.311,0.195-0.831,0.522-0.627,1.263c0.067,0.241,0.189,0.581,0.495,0.755
	c0.3,0.17,0.603,0.086,0.803,0.03c0.035-0.01,0.961-0.319,0.961-0.319l1.506-0.485c0.001,0,1.546-0.345,1.546-0.345l0.947-0.203
	c0.003,0,0.148-0.039,0.148-0.039c0.294-0.074,0.628-0.158,0.811-0.475c0.176-0.303,0.109-0.657,0.044-0.897
	c-0.154-0.563-0.681-0.622-1.066-0.664c-0.665-0.074-1.58-0.175-2.177-2.379l-3.684-13.547c-0.234-0.864-0.213-1.093-0.179-1.152
	C32.417,43.935,32.456,43.89,32.746,43.812"/>
<path fill="#B71F36" d="M45.301,50.56c0.565-0.157,0.797-0.218,1.539,0.961c0.004,0,2.829,4.43,2.829,4.43
	c1.047,1.639,2.238,3.495,3.916,3.038c0.577-0.157,1.187-0.658,1.523-1.248c0.264-0.464,0.341-0.94,0.222-1.384
	c-0.001-0.005-0.003-0.01-0.003-0.01c-0.071-0.267-0.222-0.478-0.419-0.593l-0.501-0.064l-0.423,0.258c0,0-0.06,0.051-0.077,0.065
	c-0.097,0.026-0.151,0.034-0.255-0.124c-0.001-0.005-1.9-2.832-1.9-2.832c-1.384-2.055-2.795-4.157-3.041-4.575
	c0.027-0.075,0.104-0.212,0.174-0.335l0.467-0.935c0.456-1.243,0.467-2.632,0.033-4.253c-0.005-0.015-0.009-0.033-0.015-0.053
	c-0.262-0.969-1.075-3.342-2.951-4.422c-0.982-0.563-2.1-0.681-3.324-0.346l-3.523,1.087l-1.173,0.254l-0.914,0.187
	c-0.405,0.112-0.731,0.523-0.577,1.1c0.183,0.677,0.741,0.75,1.113,0.796c0.564,0.074,1.204,0.156,1.708,2.009l3.582,13.186
	c0.617,2.277,0.193,2.748-0.088,3.057c-0.186,0.21-0.47,0.521-0.319,1.074c0.086,0.323,0.241,0.547,0.459,0.666
	c0.297,0.163,0.595,0.068,0.74,0.02l0.048-0.016l2.678-0.858l1.045-0.204l0.498-0.087c0.322-0.088,0.547-0.245,0.67-0.465
	c0.077-0.136,0.149-0.361,0.067-0.667c-0.002-0.006-0.003-0.012-0.005-0.019c-0.186-0.692-0.746-0.737-1.081-0.765
	c-0.477-0.038-1.016-0.084-1.488-1.811l-1.405-5.184l-0.083-0.295c-0.022-0.075-0.045-0.157-0.065-0.23
	c-0.033-0.123-0.053-0.222-0.057-0.28C44.963,50.671,45.042,50.629,45.301,50.56 M44.209,48.111l-1.64-6.057
	c-0.246-0.903-0.178-1.227-0.114-1.339c0.065-0.111,0.233-0.162,0.506-0.235c0.429-0.119,0.857-0.055,1.278,0.184
	c0.961,0.55,1.812,1.974,2.339,3.905c0.51,1.877,0.66,3.059-1.529,3.657C44.299,48.431,44.27,48.33,44.209,48.111z"/>
<path fill="#B71F36" d="M56.446,56.193c-0.301,0.254-0.575,0.564-0.378,1.301c0-0.004,0.364,0.484,0.364,0.484
	c0.123,0.071,0.33,0.141,0.608,0.066l1.452-0.474l0.767-0.258l1.096-0.261l3.545-0.875c1.796-0.491,2.169-3.503,1.49-6.017
	c-0.195-0.719-0.506-1.031-0.918-0.92c-0.487,0.137-0.535,0.664-0.593,1.277c-0.116,1.269-0.291,3.182-3.127,3.957
	c-0.356,0.096-0.494,0.018-0.54-0.008c-0.343-0.198-0.568-1.034-0.829-2.008l-1.122-4.121c0,0-0.176-0.645-0.209-0.767
	c-0.117-0.434-0.201-0.791-0.162-0.897c0.009-0.009,0.052-0.042,0.231-0.089l1.3-0.352c0.752-0.205,1.169,0.563,1.636,1.585
	c0.287,0.631,0.558,1.227,1.124,1.075c0.004-0.001,0.419-0.335,0.419-0.335c0.219-0.41,0.046-1.018-0.167-1.663l-0.042-0.118
	c0.003,0.004-1.57-5.293-1.57-5.293c-0.154-0.529-0.316-0.796-0.556-0.928l-0.516-0.037c-0.447,0.123-0.451,0.599-0.461,1.201
	c-0.009,0.958-0.073,1.908-0.715,2.082l-1.108,0.304c-0.191,0.051-0.252,0.051-0.279,0.049c-0.086-0.104-0.209-0.552-0.339-1.031
	c0,0-1.18-4.346-1.201-4.421c-0.158-0.588-0.293-1.152-0.184-1.329c0.125-0.205,0.789-0.386,1.562-0.595
	c1.877-0.511,2.299,0.638,2.674,1.653c0.202,0.56,0.459,1.259,1.128,1.075l0.413-0.33c0.215-0.397,0.053-0.982-0.149-1.593
	l-0.032-0.1c-0.001-0.003-0.875-2.939-0.875-2.939c-0.081-0.302-0.272-0.568-0.501-0.701l-0.546-0.073l-2.2,0.668l-1.779,0.543
	c-0.001,0-3.727,0.922-3.727,0.922l-0.984,0.233c-0.464,0.124-0.706,0.625-0.559,1.159c0.205,0.767,0.826,0.85,1.279,0.911
	c0.587,0.077,1.141,0.154,1.504,1.484l3.808,14.027C57.017,55.705,56.688,55.989,56.446,56.193"/>
<path fill="#B71F36" d="M71.183,44.117c2.449-0.668,3.438-3.786,2.403-7.585c-0.617-2.274-1.641-3.823-3.043-4.6
	c-1.054-0.585-2.272-0.693-3.524-0.318l-2.086,0.668l-0.613,0.199c-1.004,0.272-1.809,0.417-2.2,0.49l-0.262,0.053
	c-0.63,0.172-0.78,0.764-0.651,1.245c0,0,0,0,0,0.001c0.196,0.718,0.783,0.762,1.135,0.788c0.501,0.035,1.068,0.079,1.529,1.773
	c0,0,3.591,13.226,3.597,13.248c0.609,2.272,0.19,2.852-0.083,3.237c-0.178,0.244-0.394,0.55-0.266,1.031
	c0.001,0.003,0.002,0.005,0.002,0.006c0.081,0.306,0.229,0.515,0.439,0.627l0.608,0.03c0-0.002,0.364-0.125,0.364-0.125l1.755-0.579
	l0.549-0.113l1.875-0.416c0.003-0.001,0.061-0.016,0.061-0.016c0.145-0.035,0.382-0.096,0.523-0.337
	c0.139-0.237,0.094-0.518,0.034-0.741c-0.001-0.006-0.004-0.014-0.006-0.024c-0.17-0.63-0.674-0.72-1.004-0.779
	c-0.495-0.088-1.173-0.209-1.765-2.388c0,0-0.777-2.86-1.484-5.467c0.02,0.014,0.025,0.032,0.046,0.046
	C69.595,44.345,70.291,44.359,71.183,44.117 M68.653,42.494c-0.938-3.452-1.873-6.906-1.873-6.906
	c-0.004-0.014-0.008-0.027-0.011-0.039c-0.397-1.48-0.032-1.58,0.237-1.654c0.498-0.137,0.957-0.074,1.406,0.187
	c1.301,0.767,2.112,3.047,2.314,3.863c0.22,0.884,0.81,3.803-0.858,4.26c-0.169,0.045-0.34,0.034-0.492,0.026l-0.381,0.017
	C68.901,42.272,68.759,42.345,68.653,42.494z"/>
<path fill="#B71F36" d="M78.17,50.317c-0.194,0.249-0.46,0.588-0.293,1.199c0.146,0.543,0.521,0.707,0.832,0.623
	c0.004,0,0.782-0.267,0.782-0.267l1.16-0.393c0,0.001,1.824-0.414,1.824-0.414l0.883-0.193c0.221-0.059,0.532-0.171,0.694-0.458
	c0.11-0.194,0.132-0.426,0.059-0.693c-0.179-0.656-0.768-0.647-1.083-0.643c-0.536,0.011-1.201,0.022-1.777-2.086L77.368,32.7
	c-0.411-1.509-0.091-1.782,0.162-2c0.218-0.185,0.576-0.492,0.401-1.147c-0.038-0.136-0.116-0.417-0.375-0.566
	c-0.266-0.153-0.566-0.088-0.9,0.003l-1.416,0.463l-0.824,0.277l-0.914,0.188l-1.106,0.23c-0.001,0-0.048,0.013-0.048,0.013
	c-0.156,0.034-0.49,0.108-0.675,0.411c-0.086,0.137-0.165,0.371-0.071,0.707c0.183,0.682,0.771,0.765,1.199,0.825
	c0.591,0.084,1.202,0.171,1.583,1.567l3.909,14.386C78.717,49.612,78.412,50.005,78.17,50.317"/>
<path fill="#B71F36" d="M82.903,27.354l-1.308,0.419c-1.18,0.32-1.725,0.409-2.052,0.459l-0.41,0.083
	c-0.359,0.096-0.644,0.565-0.499,1.106c0.192,0.698,0.744,0.785,1.146,0.852c0.57,0.09,1.159,0.184,1.601,1.815l3.924,14.445
	c0.368,1.354,0.07,1.592-0.22,1.825c-0.245,0.196-0.652,0.525-0.454,1.254c0.076,0.284,0.219,0.481,0.421,0.59
	c0.308,0.163,0.622,0.058,0.833-0.012l0.946-0.332l0.754-0.265l0.836-0.192l2.87-0.689c2.162-0.589,6.093-4.85,3.698-13.668
	c-1.049-3.855-2.674-6.437-4.837-7.673c-2.186-1.251-4.392-0.863-5.864-0.464L82.903,27.354 M87.516,29.271
	c2.431,1.39,4.075,5.412,4.66,7.57c1.501,5.529,0.803,9.264-1.87,9.993c-1.061,0.29-1.709-0.135-2.032-1.335l-3.79-13.934
	c-0.594-2.197-0.482-2.432,0.345-2.659C85.765,28.652,86.641,28.771,87.516,29.271z"/>
</svg>
