<?xml version="1.0" encoding="utf-8"?>
<!-- Generator: Adobe Illustrator 17.0.0, SVG Export Plug-In . SVG Version: 6.00 Build 0)  -->
<!DOCTYPE svg PUBLIC "-//W3C//DTD SVG 1.1//EN" "http://www.w3.org/Graphics/SVG/1.1/DTD/svg11.dtd">
<svg version="1.1" id="Layer_1" xmlns="http://www.w3.org/2000/svg" xmlns:xlink="http://www.w3.org/1999/xlink" x="0px" y="0px"
	 width="182.88px" height="54.918px" viewBox="0 0 182.88 54.918" enable-background="new 0 0 182.88 54.918" xml:space="preserve">
<path fill="#00769A" d="M94.221,46.573c-0.982,0-1.542-0.561-1.542-1.543V18.172h-8.907v1.544c0,1.192,0.071,2.104,0.071,2.104
	h-0.141c0,0-2.523-4.347-10.309-4.347c-9.466,0-16.269,7.363-16.269,18.723c0,11.079,6.242,18.722,15.919,18.722
	c8.206,0,11.151-5.82,11.151-5.82h0.14v1.333c0,2.104,1.192,3.646,4.416,3.646h8.204v-7.503L94.221,46.573
	C94.221,46.574,94.221,46.573,94.221,46.573z M75.007,47.415c-5.259,0-8.835-4.418-8.835-11.22c0-7.083,4.067-11.08,8.976-11.08
	c5.96,0,8.835,5.47,8.835,11.009C83.983,44.049,79.636,47.415,75.007,47.415"/>
<path fill="#00769A" d="M2.746,27.045c-0.353-0.915-0.987-1.267-1.972-1.267H0v-7.602h5.138c2.958,0,4.364,0.916,5.281,3.379
	l6.755,18.863c0.776,2.111,1.339,5.139,1.339,5.139h0.141c0,0,0.563-3.028,1.266-5.139l6.758-18.863
	c0.913-2.464,2.392-3.379,5.278-3.379h4.787v7.602h-0.845c-0.985,0-1.619,0.352-1.972,1.267L23.65,54.073H13.022L2.746,27.045z"/>
<path fill="#00769A" d="M43.64,27.325c0-1.055-0.561-1.549-1.548-1.549h-2.815v-7.602h8.517c3.308,0,4.716,1.479,4.716,4.787v22.031
	c0,0.986,0.562,1.549,1.549,1.549h2.815v7.531h-8.517c-3.307,0-4.717-1.407-4.717-4.786C43.64,49.286,43.64,27.325,43.64,27.325z"/>
<path fill="#00769A" d="M100.528,25.284h-4.646v-7.109h4.858V8.392h8.726v9.783h8.165v7.109h-8.165v14.5
	c0,5.912,4.645,6.758,7.11,6.758c0.985,0,1.619-0.142,1.619-0.142v7.813c0,0-1.127,0.211-2.745,0.211
	c-4.998,0-14.922-1.479-14.922-13.515C100.528,40.909,100.528,25.284,100.528,25.284z"/>
<path fill="#00769A" d="M137.692,17.331c10.979,0,19.709,7.812,19.709,18.793c0,11.051-8.73,18.793-19.709,18.793
	c-10.911,0-19.637-7.742-19.637-18.793C118.054,25.144,126.781,17.331,137.692,17.331 M137.692,47.316
	c5.842,0,10.7-4.505,10.7-11.191c0-6.617-4.857-11.192-10.7-11.192c-5.771,0-10.629,4.575-10.629,11.192
	C127.063,42.811,131.921,47.316,137.692,47.316"/>
<path fill="#00769A" d="M161.272,27.325c0-1.055-0.564-1.549-1.548-1.549h-2.816v-7.602h8.164c3.168,0,4.786,1.339,4.786,4.365
	v2.112c0,1.337-0.14,2.252-0.14,2.252h0.14c1.619-5.138,5.912-9.221,11.403-9.221c0.774,0,1.619,0.14,1.619,0.14v8.799
	c0,0-0.916-0.142-2.182-0.142c-3.803,0-8.167,2.182-9.784,7.533c-0.494,1.759-0.774,3.73-0.774,5.842v14.218h-8.87V27.325H161.272z"
	/>
<g>
	<g>
		<g>
			<defs>
				<path id="SVGID_1_" d="M38.982,6.466c0,3.571,2.893,6.466,6.463,6.466h6.467V6.466C51.912,2.895,49.017,0,45.445,0
					C41.875-0.001,38.982,2.895,38.982,6.466"/>
			</defs>
			<clipPath id="SVGID_2_">
				<use xlink:href="#SVGID_1_"  overflow="visible"/>
			</clipPath>
			
				<linearGradient id="SVGID_3_" gradientUnits="userSpaceOnUse" x1="191.7314" y1="629.5102" x2="192.4984" y2="629.5102" gradientTransform="matrix(0 -16.8604 -16.8604 0 10659.2402 3245.5984)">
				<stop  offset="0" style="stop-color:#F58025"/>
				<stop  offset="1" style="stop-color:#F8A537"/>
			</linearGradient>
			<rect x="38.982" y="-0.001" clip-path="url(#SVGID_2_)" fill="url(#SVGID_3_)" width="12.93" height="12.932"/>
		</g>
	</g>
</g>
</svg>
