<?xml version="1.0" encoding="utf-8"?>
<!-- Generator: Adobe Illustrator 17.0.0, SVG Export Plug-In . SVG Version: 6.00 Build 0)  -->
<!DOCTYPE svg PUBLIC "-//W3C//DTD SVG 1.1//EN" "http://www.w3.org/Graphics/SVG/1.1/DTD/svg11.dtd">
<svg version="1.1" id="Layer_1" xmlns="http://www.w3.org/2000/svg" xmlns:xlink="http://www.w3.org/1999/xlink" x="0px" y="0px"
	 width="225.863px" height="67.635px" viewBox="0 0 225.863 67.635" enable-background="new 0 0 225.863 67.635"
	 xml:space="preserve">
<path fill="#455560" stroke="#455560" d="M79.13,53.299c-0.603,3.821-3.362,6.128-7.263,6.128c-4.567,0-7.454-3.393-7.454-8.994
	c0-5.963,2.887-9.357,7.454-9.357c4.725,0,7.485,3.13,7.485,8.73c0,0.429,0,0.856-0.032,1.285H67.33
	c0.064,3.658,1.84,5.703,4.789,5.703c2.285,0,3.806-1.255,4.25-3.495C76.369,53.299,79.13,53.299,79.13,53.299z M76.434,48.687
	c-0.031-3.262-1.649-5.04-4.472-5.04c-2.759,0-4.376,1.744-4.631,5.04H76.434z"/>
<path fill="#455560" stroke="#455560" d="M86.203,50.005l-5.487-8.37h3.267l4.06,6.195l3.996-6.195h3.235l-5.582,8.336l5.931,8.896
	h-3.362l-4.345-6.656l-4.219,6.656H80.43L86.203,50.005z"/>
<path fill="#455560" stroke="#455560" d="M97.812,41.635h2.727v2.439c1.364-2.075,3.014-2.998,5.392-2.998
	c4.346,0,7.265,3.459,7.265,9.127c0,5.733-2.983,9.193-7.296,9.193c-2.316,0-4.061-0.856-5.36-2.637v8.996h-2.727L97.812,41.635
	L97.812,41.635z M105.36,56.825c3.077,0,4.917-2.372,4.917-6.82c0-3.953-1.904-6.326-4.948-6.326c-3.077,0-4.884,2.339-4.884,6.689
	C100.444,54.683,102.093,56.825,105.36,56.825z"/>
<path fill="#455560" stroke="#455560" d="M130.51,53.299c-0.602,3.821-3.361,6.128-7.263,6.128c-4.567,0-7.454-3.393-7.454-8.994
	c0-5.963,2.887-9.357,7.454-9.357c4.726,0,7.486,3.13,7.486,8.73c0,0.429,0,0.856-0.033,1.285h-11.989
	c0.064,3.658,1.839,5.703,4.789,5.703c2.285,0,3.807-1.255,4.251-3.495C127.751,53.299,130.51,53.299,130.51,53.299z
	 M127.814,48.687c-0.031-3.262-1.649-5.04-4.471-5.04c-2.76,0-4.377,1.744-4.631,5.04H127.814z"/>
<path fill="#455560" stroke="#455560" d="M148.431,58.867h-2.695v-2.175c-1.427,1.812-3.235,2.703-5.393,2.703
	c-4.344,0-7.263-3.46-7.263-9.093c0-5.733,2.951-9.226,7.263-9.226c2.316,0,4.093,0.889,5.393,2.669v-8.566h2.695V58.867z
	 M140.882,43.679c-3.076,0-4.916,2.373-4.916,6.819c0,3.956,1.904,6.327,4.948,6.327c3.077,0,4.916-2.338,4.916-6.689
	C145.83,45.853,144.149,43.679,140.882,43.679z"/>
<path fill="#455560" stroke="#455560" d="M152.776,35.178h2.791v3.295h-2.791V35.178z M152.776,41.635h2.791v17.232h-2.791V41.635z"
	/>
<path fill="#455560" stroke="#455560" d="M164.575,56.463c0.317,0,0.793-0.033,1.491-0.1v2.471
	c-0.856,0.165-1.618,0.263-2.221,0.263c-2.663,0-3.553-0.955-3.553-3.589V43.944h-2.474v-2.308h2.474v-4.809h2.791v4.809h2.983
	v2.308h-2.983v10.575C163.083,55.935,163.336,56.463,164.575,56.463z"/>
<path fill="#455560" stroke="#455560" d="M169.306,35.178h2.791v3.295h-2.791V35.178z M169.306,41.635h2.791v17.232h-2.791V41.635z"
	/>
<path fill="#455560" stroke="#455560" d="M183.419,41.076c5.012,0,7.96,3.326,7.96,9.159c0,5.832-2.949,9.16-7.929,9.16
	c-5.011,0-7.96-3.328-7.96-9.16C175.49,44.402,178.44,41.076,183.419,41.076z M183.45,56.825c3.235,0,5.042-2.307,5.042-6.59
	s-1.807-6.589-5.042-6.589c-3.298,0-5.107,2.306-5.107,6.589S180.184,56.825,183.45,56.825z"/>
<path fill="#455560" stroke="#455560" d="M205.81,48.259c0-3.064-0.665-4.481-3.329-4.481c-3.076,0-4.916,1.879-4.916,5.272v9.817
	h-2.792V41.635h2.664v2.505c1.269-1.976,3.013-2.934,5.328-2.934c2.507,0,4.219,0.792,5.14,2.341c0.697,1.12,0.728,2.47,0.728,4.15
	c0,0.264,0,0.528,0,0.823v10.346h-2.823V48.259z"/>
<path fill="#455560" stroke="#455560" d="M214.374,53.267c0.191,2.339,1.618,3.558,4.219,3.558c2.441,0,3.869-1.087,3.869-2.735
	c0-1.449-0.824-1.911-2.537-2.339l-3.109-0.824c-3.268-0.824-4.694-1.976-4.694-4.844c0-2.966,2.251-4.975,6.216-4.975
	c3.964,0,6.471,2.075,6.471,5.273c0,0.032,0,0.032,0,0.065h-2.728c-0.095-1.813-1.49-2.866-3.742-2.866s-3.426,0.856-3.426,2.406
	c0,1.251,0.826,1.712,2.602,2.141l2.694,0.658c3.396,0.825,5.044,1.913,5.044,4.943c0,3.526-2.473,5.668-6.914,5.668
	c-4.25,0-6.598-2.176-6.66-6.129L214.374,53.267L214.374,53.267z"/>
<path fill="#9FA617" d="M74.075,21.989h0.088l6.883-21.216h6.797l6.447,21.216h0.088l6.186-21.216h8.886L98.952,33.62h-8.714
	l-5.75-19.036H84.4L77.953,33.62h-8.67L59.482,0.773h8.887L74.075,21.989z"/>
<path fill="#9FA617" d="M143.776,16.587c0,10.631-7.623,18.124-18.166,18.124c-10.542,0-18.166-7.494-18.166-18.124
	c0-9.933,8.712-16.903,18.166-16.903C135.065-0.316,143.776,6.654,143.776,16.587z M116.331,16.631c0,5.664,4.182,9.803,9.279,9.803
	s9.28-4.139,9.28-9.803c0-4.531-4.184-8.669-9.28-8.669C120.513,7.961,116.331,12.099,116.331,16.631z"/>
<path fill="#9FA617" d="M173.193,33.62h-10.63l-8.059-12.633h-0.087V33.62h-8.539V0.773h12.765c6.492,0,11.413,3.093,11.413,10.106
	c0,4.532-2.527,8.452-7.189,9.28L173.193,33.62z M154.417,15.498h0.828c2.787,0,5.924-0.524,5.924-4.095
	c0-3.573-3.138-4.096-5.924-4.096h-0.828V15.498z"/>
<path fill="#9FA617" d="M184.662,26.39H194.9v7.231h-18.777V0.773h8.539L184.662,26.39L184.662,26.39z"/>
<path fill="#9FA617" d="M197.067,0.773h12.111c9.148,0,16.685,7.188,16.685,16.423c0,9.237-7.58,16.424-16.685,16.424h-12.111
	L197.067,0.773L197.067,0.773z M205.605,26.39h1.918c5.098,0,9.453-2.789,9.453-9.193c0-5.88-3.877-9.191-9.366-9.191h-2.005V26.39z
	"/>
<rect x="97.528" y="41.315" fill="#455560" width="3.3" height="26.32"/>
<g>
	<path fill="#455560" d="M71.068,57.63c-0.294,0.134-1.283-0.159-1.283-0.159c-0.935-0.749-2.031-0.668-2.031-0.668
		c-0.481,0.374-2.298,0-2.298,0c-0.989-0.561-2.726-1.042-2.726-1.042c-1.443-0.668-4.757-2.834-4.757-2.834
		c-1.844-1.469-1.924-1.362-1.924-1.362c-1.096,0.053-1.925-0.294-1.925-0.294c-2.272-2.326-3.956-2.78-3.956-2.78
		c0.107-0.053-0.786-0.94-0.786-0.94c-0.241-0.829-0.544-0.894-0.544-0.894c0.317-0.601-0.061-0.927-0.061-0.927
		c-0.133-0.213-0.56-0.305-0.56-0.305c-0.385,0.064-1.215-0.806-1.215-0.806l-0.017-0.567c0.122-0.316-0.154-0.567-0.154-0.567
		c-0.26-0.297-0.211-0.564-0.211-0.564l0.183-5.058c0-0.456-0.104-0.968-0.104-0.968c-0.049-0.671-0.716-1.242-0.716-1.242
		c-0.713-0.823-2.01-0.575-2.01-0.575l-3.319,1.282c-0.139-1.132-0.527-4.174-0.527-4.174c-0.06-0.239-0.113-0.519-0.113-0.519
		c-0.76-2.193-2.119-2.062-2.119-2.062c-0.043-0.586,0.087-0.63,0.087-0.63c0.753-0.2,0.97-0.327,1.212-0.411
		c0.326-0.112,0.26-0.284,0.26-0.284c0.043-0.369,0.326-0.456,0.326-0.456c0.282,0,0.003-0.305,0.003-0.305
		c0.174-0.13,0.174-0.195,0.174-0.195c-0.189-0.646-0.066-0.582,0.012-0.693c0.287-0.097,0.219-0.257,0.213-0.268
		c-0.057-0.118-0.081-0.159-0.332-0.252c-0.248-0.091-0.006-0.763-0.014-0.792c-0.012-0.044,0.163-0.47-0.217-1.07
		c-0.308-0.486-0.62-0.58-0.62-0.58c-0.665-0.336-1.171-0.098-1.2-0.12c-0.237-0.178-1.442-0.431-2.013-0.193
		c-0.307,0.129-0.891,0.124-1.39,1.04c-0.053,0.097-0.265,0.588-0.366,0.858c-0.113,0.302,0.07,0.507-0.111,0.939
		c-0.119,0.282,0.009,0.552,0.016,0.977c0.004,0.235,0.017,0.791-0.027,1.023c-0.276,1.456-0.345,0.75-0.33,1.51
		c0.002,0.091-0.287-0.043-1.176,0.308c-0.054,0.021-0.093-2.242-0.141-2.47c0.094-0.941,0.023-2.954,0.023-2.954
		c0.012,0.056-0.036-2.164,1.194-2.84c0.593-0.327,0.33-1.463,0.33-1.463c-0.018-0.143-0.143-0.786-0.143-0.786
		c0.072-0.572-0.179-1.001-0.179-1.001c-0.143-0.929-0.334-1.071-0.334-1.071c-0.072-0.465-0.129-1.105-0.25-1.393
		c-0.286-0.679-0.356-1.13-0.356-1.13c-0.42-1.521,0.07-2.199,0.07-2.199c0.193-0.151,0.116-0.147,0.116-0.147
		c0.188-0.052,2.578-1.659,2.578-1.659c0.439-0.284,1.96-0.903,1.96-0.903c0.232-0.077,2.122-0.99,2.122-0.99
		c0.417-0.25,1.152-0.718,1.152-0.718c0.307-0.195,0.908-0.375,1.017-0.522c0.712-0.966,1.504-0.632,1.504-0.632
		c0.268,0.066,0.589-0.199,0.589-0.199c0.026-0.044,0.139-0.194,0.241-0.259c0.106-0.067,0.102-0.243,0.12-0.305
		c0.026-0.089,0.075-0.134,0.075-0.134c0.12-0.251-0.138-0.246-0.138-0.246L43.69,5.928c-0.1-0.224,0.052-0.286,0.052-0.286
		s-0.13,0.039,0.204-0.078c0.135-0.047,0.411-0.089,0.411-0.089c0.125-0.009,0.258-0.062,0.33-0.089
		c0.271-0.053,0.17-0.188,0.17-0.188c-0.1-0.083-0.152-0.098-0.152-0.098c-0.071-0.044-0.756,0.062-0.756,0.062
		c-0.417,0.083-0.668,0.116-0.668,0.116l-0.5,0.067c-0.401-0.017-0.685,0.133-0.685,0.133c-0.367,0.217-0.818,0.384-0.818,0.384
		c-0.301,0.134-1.135,0.034-1.135,0.034c-0.402-0.133-0.802,0.101-0.802,0.101c-0.552,0.417-1.771,0.901-1.771,0.901
		c-0.1-0.017-0.784,0.167-0.784,0.167C36.502,7.232,35.5,7.498,35.5,7.498C35.333,7.482,34.949,7.8,34.949,7.8
		c-0.284,0.317-1.269,0.434-1.269,0.434c-0.718-0.033-1.353,0.384-1.353,0.384c-0.167,0.083-1.124,0.298-1.124,0.298
		c-0.138-0.087-0.862,0.095-0.862,0.095c-0.156,0.03-0.588,0.236-0.588,0.236l-0.538,0.331c-0.231,0.093-0.575,0.05-0.65-0.045
		c-0.174-0.218-0.199-0.406-0.156-0.561c0.071-0.26,0.396-0.428,0.461-0.491c0.035-0.034,0.218-0.383,0.093-0.715
		c-0.162-0.432,0.24-0.348,0.204-0.572c-0.038-0.243-0.177-0.189-0.211-0.258C28.932,6.888,29,6.509,29.076,6.403
		c0.056-0.078,0.32-0.213,0.32-0.213c0.152-0.116,0.14-0.144,0.328-0.221c0.417-0.17,0.749-0.287,0.681-0.593
		c-0.078-0.352-0.344-0.488-0.736-0.591c-0.312-0.083-0.527-0.237-0.658-0.368c-0.009-0.01-0.465-0.787-0.717-1.217
		c-0.097-0.165-0.474-0.371-0.474-0.371c-1.182-0.546-2.601-0.008-2.601-0.008L25.13,1.706l0.044-0.042
		c0.286-0.196,0.283-0.47,0.283-0.47l-0.024-0.596c-0.018-0.143-0.143-0.25-0.143-0.25c-0.179-0.179-0.304-0.427-0.304-0.427
		l-0.232-0.5c-0.153-0.153-0.286-0.331-0.286-0.331c-0.009-0.116-0.418-0.241-0.418-0.241c-0.054-0.027-0.339-0.322-0.339-0.322
		c-0.215-0.086-0.42-0.01-0.42-0.01C22.969-1.991,22.12-2,22.12-2c-0.571,0.072-0.834,0.226-0.834,0.226
		c-0.08,0.036-0.518,0.179-0.518,0.179C20.464-1.515,20.42-1.3,20.42-1.3c-0.161,0.054-0.132,0.456-0.132,0.456
		c-0.321,0.188-0.33,0.748-0.33,0.748c-0.009,0.018-0.147,0.258-0.172,0.312c-0.183,0.391-0.207,0.437-0.207,0.437
		C19.537,0.709,19.37,1.052,19.46,1.31c0.055,0.156-0.155,0.324-0.137,0.496c0.047,0.448,0.29,1.27,0.295,1.301
		c0.113,0.764-0.036,1.032-0.036,1.032c-0.459,0.688-1.647,0.491-1.647,0.491L16.6,4.837c-0.715-0.038-1.016,0.132-1.016,0.132
		c-0.075,0.094-0.508,0.282-0.508,0.282c-0.685-0.013-0.64,0.565-0.64,0.565c0,0.226-0.32,0.677-0.32,0.677
		c-2.078,0.821-3.543,0.999-3.543,0.999C9.572,7.528,9.5,8.564,9.5,8.564l-0.109,6.413c0.075,1.662,1.524,3.133,1.524,3.133
		c0.572,0.669,0.512,2.819,0.512,2.819c0.239,0.598,1.972,0.598,1.972,0.598l0.538,0.538c0.239,1.732,1.636,2.182,1.636,2.182
		s0.348,0.253,0.411,0.348c0.167,0.25,0.063,0.011,0.142,0.3c-0.115,0.201,0.144,2.852,0.144,2.852
		c0.115,0.807,0.173,2.219,0.173,2.219c-0.49,1.642-0.396,4.32-0.396,4.32l0.043,0.556c0.029,0.291,0.3,0.599,0.3,0.599
		c0.18,0.076,0.256,0.193,0.256,0.193c-0.068,0.512-0.023,0.683-0.023,0.683h0.227v1.335h0.353v2.85
		c-0.302-0.051-0.252,0.126-0.252,0.126v0.429h-0.227c-0.151,0-0.176,0.126-0.176,0.126v0.379c-0.075,0.58-1.135,0.353-1.135,0.353
		c-0.58-0.176-2.422-0.253-2.422-0.253c-0.428,0-0.782-0.303-0.782-0.303c-0.504-0.303-0.832-0.252-0.832-0.252
		c-0.555-0.051-0.757,0.252-0.757,0.252c-0.126,0.202-0.963,0.357-0.963,0.357l-3.673-0.04c-2.275-0.897-2.435-0.186-2.435-0.186
		c-0.519,0.319-0.838-0.08-0.838-0.08c-1.477-1.557-1.886-0.931-1.886-0.931V59.72l70.779-0.138v-1.309
		C71.523,57.631,71.068,57.63,71.068,57.63z M23.198,5.474c0.175-0.02,0.129-0.027,0.396-0.44c0.047-0.164,0.438-0.288,0.438-0.288
		l0.087-0.041l0.152-0.127c-0.08,0.067-0.03,0.751-0.116,0.915c-0.226,0.432-0.779,0.758-0.814,1.288
		c-0.019,0.29,0.165,0.235,0.449,0.313c0.15,0.042,0.302-0.08,0.351,0c0.169,0.282,0.349,0.524,0.291,0.732
		c-0.348,1.241,0.2,1.198-0.081,1.549c-0.164,0.094-0.07,0.596-0.07,0.596c-0.175,0.246-0.687,0.19-0.687,0.19
		c-0.07-0.516-0.398-1.124-0.398-1.124c0.07-0.585-1.095-2.864-1.095-2.864C21.701,5.686,23.198,5.474,23.198,5.474z M26.592,42.573
		c-0.375,0.11-0.595,0.494-0.595,0.494h-1.876c0,0,0.05-0.963-0.529-0.888l-1.007,0.051c0,0-1.284-0.353-1.233-0.655l-0.327-0.32
		c-0.856-0.302-0.78-0.603-0.78-0.603c0-0.378-0.428-0.478-0.428-0.478v-0.176c0-0.705-0.428-0.528-0.428-0.528v-0.806
		c-0.089-1.372,0.306-2.944,0.306-2.944c0.375-3.834,0.485-4.914,0.485-4.914c0.044-0.419-0.044-0.29-0.132-1.278
		c0.22-0.683,0.551-4.869,0.551-4.869c-0.11-1.608,0.175-2.345,0.175-2.345l1.367-2.066c0.33-0.837,1.68-0.443,1.68-0.443
		c0.198,0.925-0.102,2.281-0.102,2.281c0.299,0.718,2.004,0.939,2.004,0.939c0.308,0.155,0.368,0.365,0.368,0.365
		c-0.176,0.859,0.214,8.035,0.214,8.035c0.11,0.793,0.353,2.423,0.353,2.423C26.394,34.685,26.592,42.573,26.592,42.573z
		 M43.685,43.57c0,0-0.139,0.188-0.109,0.518c0,0-0.027,0.219-0.218,0.205c0,0-0.123-0.028-0.109,0.259v0.464
		c0,0-0.972-0.078-2.545-0.558c-1.014-0.31-1.353-0.795-1.239-0.947c1.274-1.699,1.108-1.423,1.584-1.865
		c0.699-0.647,1.081-1.292,2.663-2.893c0,0,0.249,0.765,0.262,2.954l0.11,1.439C44.084,43.147,43.781,43.556,43.685,43.57z"/>
</g>
</svg>
