<svg width="32" height="232" viewBox="0 0 32 232" xmlns="http://www.w3.org/2000/svg"><g fill="none"><path d="M25.91 129.585H6.092c-.88 0-1.593.707-1.593 1.576v19.27c0 .87.71 1.58 1.59 1.58h19.82c.87 0 1.59-.7 1.59-1.57v-19.27c0-.86-.72-1.57-1.59-1.57zM11.273 150.27h-.302v-7.383h.31v7.382zm9.884 0h-.303v-7.382h.303v7.38zm4.456 0h-2.467v-7.382h.486c.415 0 .796-.322.796-.787v-5.6c0-.59-.476-1.08-1.1-1.08H18.7c-.573 0-1.095.44-1.095 1.09v5.61c0 .46.385.79.795.79h.465v7.38h-5.598v-7.38h.484c.42 0 .8-.32.8-.78v-5.61c0-.59-.47-1.08-1.09-1.08H8.82c-.57 0-1.095.44-1.095 1.09v5.6c0 .46.386.79.796.79h.46v7.38H6.25v-18.92h19.363v18.92zm-.912-25.354l.01-2.33-2.69 2.664V120H20.3v5.27l-2.707-2.683v2.325l3.558 3.524 3.56-3.52zm-14.55 3.52h1.72v-5.267l2.71 2.68v-2.33L11.02 120l-3.56 3.524-.005 2.33 2.693-2.668v5.25zm1.01 6.522c.83 0 1.5-.66 1.5-1.475 0-.814-.66-1.474-1.49-1.474-.82 0-1.49.66-1.49 1.47 0 .81.67 1.47 1.5 1.47zm9.89 0c.83 0 1.5-.66 1.5-1.474s-.67-1.475-1.49-1.475-1.49.66-1.49 1.47.67 1.47 1.5 1.47zm0 0" fill="#206FAC"/><path d="M25.91 89.585H6.092c-.88 0-1.593.707-1.593 1.576v19.27c0 .87.71 1.58 1.59 1.58h19.82c.87 0 1.59-.7 1.59-1.57V91.16c0-.868-.72-1.575-1.59-1.575zM11.273 110.27h-.302v-7.383h.31v7.382zm9.884 0h-.303v-7.382h.303v7.38zm4.456 0h-2.467v-7.382h.486c.415 0 .796-.322.796-.787v-5.6c0-.59-.476-1.08-1.1-1.08H18.7c-.573 0-1.095.44-1.095 1.09v5.61c0 .46.385.79.795.79h.465v7.38h-5.598v-7.38h.484c.42 0 .8-.32.8-.78V96.5c0-.595-.47-1.085-1.09-1.085H8.82c-.57 0-1.095.44-1.095 1.084v5.6c0 .46.386.79.796.79h.46v7.38H6.25V91.35h19.363v18.92zM24.7 84.916l.006-2.33-2.692 2.664V80h-1.722v5.27l-2.707-2.683v2.325l3.558 3.524 3.56-3.52zm-14.553 3.52h1.722V83.17l2.7 2.68v-2.325L11.01 80l-3.56 3.525v2.33l2.695-2.668v5.25zm1.005 6.522c.828 0 1.493-.66 1.493-1.475 0-.814-.665-1.474-1.493-1.474-.824 0-1.493.66-1.493 1.47 0 .81.66 1.47 1.49 1.47zm9.883 0c.825 0 1.493-.66 1.493-1.474s-.67-1.475-1.494-1.475c-.826 0-1.495.66-1.495 1.47s.67 1.47 1.49 1.47zm0 0" fill="#fff"/><path d="M25.91 49.585H6.092c-.88 0-1.593.707-1.593 1.576v19.27c0 .87.71 1.58 1.59 1.58h19.82c.87 0 1.59-.7 1.59-1.57V51.16c0-.868-.72-1.575-1.59-1.575zM11.273 70.27h-.302v-7.383h.31v7.382zm9.884 0h-.303v-7.382h.303v7.38zm4.456 0h-2.467v-7.382h.486c.415 0 .796-.322.796-.787v-5.6c0-.59-.476-1.08-1.1-1.08H18.7c-.573 0-1.095.44-1.095 1.09v5.6c0 .46.385.79.795.79h.465v7.38h-5.598V62.9h.484c.42 0 .8-.324.8-.79V56.5c0-.594-.47-1.084-1.09-1.084H8.82c-.57 0-1.095.44-1.095 1.085v5.6c0 .46.386.79.796.79h.46v7.38H6.25V51.36h19.363v18.91zM24.7 44.916l.006-2.33-2.692 2.664V40h-1.722v5.27l-2.707-2.683v2.325l3.558 3.524 3.56-3.52zm-14.553 3.52h1.722V43.17l2.7 2.68v-2.325L11.01 40l-3.56 3.525v2.33l2.695-2.668v5.25zm1.005 6.522c.828 0 1.493-.66 1.493-1.475 0-.814-.665-1.474-1.493-1.474-.824 0-1.493.66-1.493 1.47 0 .81.66 1.47 1.49 1.47zm9.883 0c.825 0 1.493-.66 1.493-1.474s-.67-1.475-1.494-1.475c-.826 0-1.495.66-1.495 1.47s.67 1.47 1.49 1.47zm0 0" fill="#67737B"/><path d="M25.91 9.585H6.092c-.88 0-1.593.707-1.593 1.576v19.27c0 .87.71 1.58 1.59 1.58h19.82c.87 0 1.59-.7 1.59-1.57V11.16c0-.868-.72-1.575-1.59-1.575zM11.273 30.27h-.302v-7.383h.31v7.382zm9.884 0h-.303v-7.382h.303v7.38zm4.456 0h-2.467v-7.382h.486c.415 0 .796-.322.796-.787v-5.6c0-.59-.476-1.08-1.1-1.08H18.7c-.573 0-1.095.44-1.095 1.09v5.6c0 .46.385.79.795.79h.465v7.38h-5.598V22.9h.484c.42 0 .8-.324.8-.79V16.5c0-.594-.47-1.084-1.09-1.084H8.82c-.57 0-1.095.44-1.095 1.085v5.6c0 .46.386.79.796.79h.46v7.38H6.25V11.36h19.363v18.91zM24.7 4.916l.006-2.33-2.692 2.664V0h-1.722v5.27l-2.707-2.683v2.325l3.558 3.524 3.56-3.52zm-14.553 3.52h1.722V3.17l2.7 2.68V3.524L11.01 0 7.45 3.525v2.33l2.695-2.668v5.25zm1.005 6.522c.828 0 1.493-.66 1.493-1.475 0-.814-.665-1.474-1.493-1.474-.824 0-1.493.66-1.493 1.47 0 .81.66 1.47 1.49 1.47zm9.883 0c.825 0 1.493-.66 1.493-1.474s-.67-1.475-1.494-1.475c-.826 0-1.495.66-1.495 1.47s.67 1.47 1.49 1.47zm0 0" fill="#3A434E"/></g></svg>