<svg width="32" height="232" viewBox="0 0 32 232" xmlns="http://www.w3.org/2000/svg"><g fill="none"><path d="M19.512 25.78h-.426V9.924c0-3.886-2.73-6.087-7.706-6.235v-.26c.57-.22.976-.78.976-1.42 0-.71-.807-1.53-1.154-1.85-.21-.2-.536-.2-.746 0C10.11.48 9.302 1.3 9.302 2c0 .646.406 1.2.976 1.42v.26C5.302 3.84 2.57 6.04 2.57 9.922V25.78h-.424c-.304 0-.55.245-.55.55v1.77c0 .305.247.55.55.55H4.17c-.185.284-.293.62-.293.983 0 .996.81 1.806 1.807 1.806.996 0 1.806-.81 1.806-1.81 0-.37-.107-.7-.292-.99h7.42c-.184.28-.293.62-.293.98 0 .99.81 1.8 1.807 1.8.996 0 1.808-.81 1.808-1.81 0-.37-.11-.7-.293-.99h1.865c.304 0 .55-.25.55-.55V26.3c0-.302-.247-.55-.55-.55zM5.685 30.34c-.39 0-.707-.316-.707-.706 0-.39.317-.707.707-.707.39 0 .707.317.707.707 0 .39-.317.707-.707.707zm10.448 0c-.39 0-.707-.316-.707-.706 0-.39.317-.707.707-.707.39 0 .707.317.707.707 0 .39-.317.707-.707.707zM10.83 1.363c.234.27.413.536.426.647 0 .234-.19.425-.426.425-.234 0-.426-.19-.426-.42.013-.116.192-.38.426-.653zM3.673 9.925c0-1.817.656-3.118 2.003-3.98C6.783 5.238 8.33 4.852 10.28 4.79v2.09H7.16l-.033-.063c-.144-.267-.48-.367-.745-.224-.268.145-.368.478-.224.746l.19.35c.095.18.28.29.484.29h5.533v1.11L9.16 10.91c-.217.124-.324.378-.26.62.064.24.284.41.533.41H16.4c.304 0 .55-.247.55-.55 0-.218-.126-.407-.31-.496L13.465 9.09V7.98h1.365c.216 0 .412-.126.5-.323l.16-.35c.125-.278.002-.604-.275-.73s-.603 0-.727.276l-.012.028H13.43c-.08-.2-.28-.35-.513-.35-.233 0-.432.15-.512.35h-1.022V4.8c1.95.062 3.496.448 4.602 1.155 1.348.86 2.003 2.163 2.003 3.98v15.85H15.42v-.805h.36c.303 0 .55-.247.55-.55 0-.304-.247-.55-.55-.55h-.36v-1.36c0-.304-.245-.55-.548-.55H4.974c-.304 0-.55.246-.55.55v3.264h-.75V9.93zm9.24.116l1.402.8H11.51l1.403-.79zm-7.39 13.03h8.796v2.72h-8.8v-2.72zm13.437 4.48H2.7v-.67h16.26v.68zm5.394-7.39h2.873v1.1h-2.873v-1.1zm5.25-1.74h-1.8v-1.1c0-.3-.246-.55-.55-.55h-2.928c-.304 0-.55.25-.55.55v1.1h-1.8c-.304 0-.55.25-.55.55v11.92c0 .31.247.55.55.55h.97c.004.3.248.55.548.55h.44c.3 0 .544-.24.55-.54h2.862c.005.3.248.54.55.54h.44c.3 0 .542-.24.548-.54h.72c.304 0 .55-.25.55-.55V18.97c0-.304-.247-.55-.55-.55zm-4.728-.54h1.828v.52h-1.828v-.51zm4.178 12.48h-1.256V22.8c0-.3-.247-.55-.55-.55-.304 0-.55.25-.55.55v7.566h-1.815v-7.57c0-.304-.247-.55-.55-.55-.304 0-.55.247-.55.55v7.564h-1.257V19.52h6.528v10.83z" fill="#3A434E"/><path d="M19.512 65.78h-.426V49.924c0-3.886-2.73-6.087-7.706-6.235v-.26c.57-.22.976-.78.976-1.42 0-.71-.807-1.53-1.154-1.85-.21-.2-.536-.2-.746 0-.347.32-1.154 1.14-1.154 1.84 0 .64.406 1.2.976 1.42v.26c-4.976.15-7.707 2.35-7.707 6.23v15.86h-.42c-.3 0-.55.24-.55.55v1.77c0 .3.25.55.55.55h2.02c-.18.28-.29.62-.29.98 0 .99.81 1.8 1.81 1.8s1.81-.81 1.81-1.81c0-.37-.1-.7-.29-.99h7.42c-.18.28-.29.62-.29.98 0 .99.81 1.8 1.81 1.8s1.81-.81 1.81-1.81c0-.37-.11-.7-.29-.99h1.87c.31 0 .55-.25.55-.55V66.3c0-.303-.24-.55-.55-.55zM5.685 70.34c-.39 0-.707-.316-.707-.706 0-.39.317-.707.707-.707.39 0 .707.317.707.707 0 .39-.317.707-.707.707zm10.448 0c-.39 0-.707-.316-.707-.706 0-.39.317-.707.707-.707.39 0 .707.317.707.707 0 .39-.317.707-.707.707zM10.83 41.363c.234.27.413.536.426.647 0 .234-.19.425-.426.425-.234 0-.426-.19-.426-.42.013-.116.192-.38.426-.653zm-7.157 8.563c0-1.817.656-3.118 2.003-3.98 1.107-.707 2.654-1.093 4.603-1.155v2.09H7.16l-.033-.06c-.144-.26-.48-.36-.745-.22-.268.15-.368.48-.224.75l.19.35c.095.18.28.29.484.29h5.533v1.11L9.16 50.91c-.217.124-.324.378-.26.62.064.24.284.41.533.41H16.4c.304 0 .55-.247.55-.55 0-.218-.126-.407-.31-.496l-3.175-1.803v-1.11h1.365c.216 0 .412-.12.5-.32l.16-.35c.125-.28.002-.6-.275-.73s-.603 0-.727.28l-.012.03H13.43c-.08-.2-.28-.35-.513-.35-.233 0-.432.15-.512.35h-1.022V44.8c1.95.06 3.496.447 4.602 1.154 1.348.86 2.003 2.163 2.003 3.98v15.85H15.42v-.805h.36c.303 0 .55-.25.55-.55 0-.31-.247-.55-.55-.55h-.36v-1.36c0-.31-.245-.55-.548-.55H4.974c-.304 0-.55.24-.55.55v3.26h-.75V49.93zm9.24.116l1.402.798H11.51l1.403-.797zm-7.39 13.024h8.796v2.714h-8.8v-2.714zM18.96 67.55H2.7v-.672h16.26v.673zm5.394-7.39h2.873v1.1h-2.873v-1.1zm5.25-1.748h-1.8v-1.096c0-.303-.246-.55-.55-.55h-2.928c-.304 0-.55.247-.55.55v1.096h-1.8c-.304 0-.55.247-.55.55V70.89c0 .304.247.55.55.55h.97c.004.3.248.542.548.542h.44c.3 0 .544-.242.55-.54h2.862c.005.298.248.54.55.54h.44c.3 0 .542-.242.548-.54h.72c.304 0 .55-.248.55-.552V58.962c0-.304-.247-.55-.55-.55zm-4.728-.545h1.828v.513h-1.828v-.513zm4.178 12.474h-1.256v-7.56c0-.3-.247-.55-.55-.55-.304 0-.55.25-.55.55v7.57h-1.815v-7.57c0-.3-.247-.55-.55-.55-.304 0-.55.25-.55.55v7.57h-1.257V59.52h6.528v10.83z" fill="#67737B"/><path d="M19.512 105.78h-.426V89.924c0-3.886-2.73-6.087-7.706-6.235v-.26c.57-.22.976-.78.976-1.42 0-.71-.807-1.53-1.154-1.85-.21-.2-.536-.2-.746 0-.347.32-1.154 1.14-1.154 1.84 0 .64.406 1.2.976 1.42v.26c-4.976.15-7.707 2.35-7.707 6.23v15.85h-.42c-.3 0-.55.24-.55.55v1.77c0 .3.25.55.55.55h2.02c-.18.28-.29.62-.29.98 0 .99.81 1.8 1.81 1.8s1.81-.81 1.81-1.81c0-.37-.1-.7-.29-.99h7.42c-.18.28-.29.62-.29.98 0 .99.81 1.8 1.81 1.8s1.81-.81 1.81-1.81c0-.37-.11-.7-.29-.99h1.87c.31 0 .55-.25.55-.55v-1.77c0-.31-.24-.55-.55-.55zm-13.827 4.56c-.39 0-.707-.316-.707-.706 0-.39.317-.707.707-.707.39 0 .707.317.707.707 0 .39-.317.707-.707.707zm10.448 0c-.39 0-.707-.316-.707-.706 0-.39.317-.707.707-.707.39 0 .707.317.707.707 0 .39-.317.707-.707.707zM10.83 81.363c.234.27.413.536.426.647 0 .234-.19.425-.426.425-.234 0-.426-.19-.426-.42.013-.116.192-.38.426-.653zm-7.157 8.563c0-1.817.656-3.118 2.003-3.98 1.107-.707 2.654-1.093 4.603-1.155v2.09H7.16l-.033-.06c-.144-.26-.48-.36-.745-.22-.268.15-.368.48-.224.75l.19.35c.095.18.28.29.484.29h5.533v1.11L9.16 90.91c-.217.124-.324.378-.26.62.064.24.284.41.533.41H16.4c.304 0 .55-.247.55-.55 0-.218-.126-.407-.31-.496l-3.175-1.803v-1.11h1.365c.216 0 .412-.12.5-.32l.16-.35c.125-.28.002-.6-.275-.73s-.603 0-.727.28l-.012.03H13.43c-.08-.2-.28-.35-.513-.35-.233 0-.432.15-.512.35h-1.022V84.8c1.95.06 3.496.447 4.602 1.154 1.348.86 2.003 2.163 2.003 3.98v15.854H15.42v-.806h.36c.303 0 .55-.246.55-.55 0-.303-.247-.55-.55-.55h-.36v-1.357c0-.305-.245-.55-.548-.55H4.974c-.304 0-.55.245-.55.55v3.263h-.75v-15.86zm9.24.116l1.402.798H11.51l1.403-.797zm-7.39 13.024h8.796v2.714h-8.8v-2.714zm13.438 4.487H2.7v-.672h16.26v.68zm5.4-7.393h2.88v1.1h-2.88v-1.1zm5.25-1.748h-1.8v-1.096c0-.303-.24-.55-.55-.55h-2.93c-.3 0-.55.247-.55.55v1.096h-1.8c-.3 0-.55.247-.55.55v11.928c0 .304.25.55.55.55h.97c.01.3.25.542.55.542h.44c.3 0 .55-.242.55-.54h2.86c.01.298.25.54.55.54h.44c.3 0 .54-.242.55-.54h.72c.31 0 .55-.248.55-.552V98.962c0-.304-.24-.55-.55-.55zm-4.73-.545h1.83v.513h-1.83v-.513zm4.18 12.474H27.8v-7.56c0-.3-.248-.55-.55-.55-.305 0-.55.25-.55.55v7.57h-1.816v-7.56c0-.3-.247-.55-.55-.55-.304 0-.55.25-.55.55v7.57h-1.257V99.52h6.528v10.83z" fill="#fff"/><path d="M19.512 145.78h-.426v-15.855c0-3.886-2.73-6.087-7.706-6.235v-.26c.57-.22.976-.773.976-1.42 0-.705-.807-1.524-1.154-1.844-.21-.194-.536-.194-.746 0-.347.32-1.154 1.14-1.154 1.843 0 .64.406 1.2.976 1.42v.26c-4.976.15-7.707 2.35-7.707 6.23v15.85h-.42c-.3 0-.55.24-.55.55v1.77c0 .3.25.55.55.55h2.02c-.18.28-.29.62-.29.98 0 .99.81 1.8 1.81 1.8s1.81-.81 1.81-1.81c0-.37-.1-.7-.29-.99h7.42c-.18.28-.29.62-.29.98 0 .99.81 1.8 1.81 1.8s1.81-.81 1.81-1.81c0-.37-.11-.7-.29-.99h1.87c.31 0 .55-.25.55-.55v-1.77c0-.31-.24-.55-.55-.55zm-13.827 4.56c-.39 0-.707-.316-.707-.706 0-.39.317-.707.707-.707.39 0 .707.317.707.707 0 .39-.317.707-.707.707zm10.448 0c-.39 0-.707-.316-.707-.706 0-.39.317-.707.707-.707.39 0 .707.317.707.707 0 .39-.317.707-.707.707zm-5.303-28.978c.234.27.413.536.426.647 0 .23-.19.42-.426.42-.234 0-.426-.19-.426-.42.013-.12.192-.38.426-.66zm-7.157 8.563c0-1.817.656-3.118 2.003-3.98 1.107-.707 2.654-1.093 4.603-1.155v2.09H7.16l-.033-.063c-.144-.267-.48-.367-.745-.224-.268.145-.368.478-.224.746l.19.35c.095.18.28.29.484.29h5.533v1.11l-3.205 1.82c-.217.12-.324.37-.26.62.064.24.284.41.533.41H16.4c.304 0 .55-.25.55-.55 0-.22-.126-.41-.31-.5l-3.175-1.81v-1.11h1.365c.216 0 .412-.13.5-.33l.16-.35c.125-.28.002-.61-.275-.73s-.603 0-.727.27l-.012.02H13.43c-.08-.21-.28-.35-.513-.35-.233 0-.432.14-.512.35h-1.022v-2.09c1.95.06 3.496.45 4.602 1.16 1.348.86 2.003 2.16 2.003 3.98v15.85H15.42v-.81h.36c.303 0 .55-.25.55-.55 0-.3-.247-.55-.55-.55h-.36v-1.35c0-.31-.245-.55-.548-.55H4.974c-.304 0-.55.24-.55.55v3.26h-.75V129.9zm9.24.116l1.402.8H11.51l1.403-.79zm-7.39 13.03h8.796v2.72h-8.8v-2.71zm13.438 4.49H2.7v-.67h16.26v.68zm5.4-7.39h2.88v1.1h-2.88v-1.1zm5.25-1.74h-1.8v-1.09c0-.3-.24-.55-.55-.55h-2.93c-.3 0-.55.25-.55.55v1.1h-1.8c-.3 0-.55.25-.55.55v11.92c0 .31.25.55.55.55h.97c.01.3.25.55.55.55h.44c.3 0 .55-.24.55-.54h2.86c.01.3.25.54.55.54h.44c.3 0 .54-.24.55-.54h.72c.31 0 .55-.25.55-.55v-11.93c0-.3-.24-.55-.55-.55zm-4.73-.54h1.83v.52h-1.83v-.51zm4.18 12.48H27.8v-7.57c0-.3-.248-.55-.55-.55-.305 0-.55.25-.55.55v7.57h-1.816v-7.57c0-.3-.247-.55-.55-.55-.304 0-.55.25-.55.55v7.57h-1.257v-10.83h6.528v10.83z" fill="#206FAC"/></g></svg>