<svg width="32" height="232" viewBox="0 0 32 232" xmlns="http://www.w3.org/2000/svg"><g fill="none"><path d="M21.606 167.045c1.544 0 2.796-1.265 2.796-2.82 0-1.56-1.252-2.826-2.796-2.826-1.54 0-2.794 1.26-2.794 2.82s1.253 2.82 2.794 2.82zm4.516 5.535l-.288-.037-.135-.004-2.48-.01-.85-2.66c-.24-.75-.87-1.31-1.58-1.47l-2.25-.92c-.25-.1-.5-.15-.77-.16l-4.96-.1c-.39 0-.76.09-1.09.28l-.06-.04-3.82 3.52c-.93.85-.99 2.31-.14 3.26.44.48 1.06.76 1.7.76.56 0 1.1-.21 1.52-.59l2.77-2.55h.71l-1.64 3.99-1.71 3.38-3.23-.6-.29-.04-.9-.17c-1.25-.23-2.425.63-2.65 1.87-.226 1.25.594 2.46 1.83 2.69l6.16 1.15c1.13.21 2.2-.47 2.56-1.54l.96-1.58.722 2.12v4.93c0 1.27 1.03 2.3 2.294 2.3 1.26 0 2.29-1.03 2.3-2.3v-5.11l-.02-.25c-.01-.25-.05-.46-.115-.657l-1.33-3.91.74-1.78c.41.36.935.566 1.49.57l4.123.006c1.394 0 2.26-.85 2.26-2.21 0-1.21-.71-2.03-1.87-2.17zm0 0" fill="#FFC841"/><path d="M21.606 126.647c1.544 0 2.796-1.265 2.796-2.82 0-1.56-1.252-2.826-2.796-2.826-1.54 0-2.794 1.27-2.794 2.83s1.253 2.82 2.794 2.82zm4.516 5.535l-.288-.037-.135-.004h-2.48l-.85-2.65c-.24-.74-.87-1.31-1.58-1.47l-2.25-.92c-.25-.09-.5-.15-.77-.15l-4.96-.1c-.39 0-.76.1-1.09.29l-.06-.03-3.83 3.52c-.93.85-.99 2.32-.14 3.26.44.49 1.06.76 1.7.76.56 0 1.1-.2 1.52-.59l2.77-2.55.71.01-1.64 3.99-1.71 3.39-3.23-.6-.29-.03-.9-.16c-1.25-.22-2.42.64-2.65 1.88-.22 1.26.6 2.46 1.83 2.7l6.14 1.123c1.13.21 2.2-.46 2.56-1.54l.96-1.573.726 2.13v4.93c0 1.26 1.03 2.29 2.3 2.29 1.26 0 2.29-1.03 2.3-2.3v-5.11l-.02-.25c-.01-.25-.05-.46-.117-.657l-1.33-3.91.74-1.78c.41.36.935.57 1.49.57l4.123.01c1.395 0 2.26-.85 2.26-2.21 0-1.215-.712-2.03-1.88-2.18zm0 0" fill="#206FAC"/><path d="M21.606 86.647c1.544 0 2.796-1.265 2.796-2.82 0-1.56-1.252-2.826-2.796-2.826-1.54 0-2.794 1.27-2.794 2.83s1.253 2.82 2.794 2.82zm4.516 5.535l-.288-.037-.135-.004h-2.48l-.85-2.65c-.24-.74-.87-1.31-1.58-1.47l-2.25-.92c-.25-.09-.5-.15-.77-.15l-4.96-.1c-.39 0-.76.1-1.09.29l-.06-.03-3.82 3.51c-.93.85-.99 2.32-.14 3.26.44.49 1.06.76 1.7.76.56 0 1.1-.2 1.52-.59l2.77-2.55.71.01-1.63 3.99-1.71 3.39-3.23-.6-.29-.03-.9-.16c-1.25-.22-2.43.64-2.65 1.88-.23 1.26.59 2.46 1.83 2.7l6.14 1.13c1.13.21 2.2-.46 2.56-1.54l.96-1.574.72 2.13v4.93c0 1.27 1.03 2.3 2.29 2.3s2.29-1.03 2.3-2.3v-5.11l-.02-.25c-.01-.243-.05-.46-.12-.65l-1.33-3.91.74-1.78c.41.36.936.563 1.49.57l4.124.003c1.397 0 2.26-.85 2.26-2.21 0-1.22-.71-2.03-1.874-2.18zm0 0" fill="#fff"/><path d="M21.606 46.647c1.544 0 2.796-1.265 2.796-2.82 0-1.56-1.252-2.826-2.796-2.826-1.54 0-2.794 1.27-2.794 2.83s1.253 2.82 2.794 2.82zm4.516 5.535l-.288-.037-.135-.004h-2.48l-.85-2.65c-.24-.74-.87-1.31-1.58-1.47l-2.25-.92c-.25-.09-.5-.15-.77-.15l-4.96-.1c-.39 0-.76.1-1.09.29l-.06-.03-3.82 3.51c-.93.85-.99 2.32-.14 3.26.44.49 1.06.76 1.7.76.56 0 1.1-.2 1.52-.59l2.77-2.55.71.01-1.63 3.99-1.71 3.39-3.23-.6-.29-.03-.9-.16c-1.25-.22-2.43.64-2.65 1.88-.23 1.26.59 2.46 1.83 2.7l6.16 1.11c1.13.21 2.2-.46 2.56-1.54l.96-1.57.72 2.13v4.93c0 1.267 1.03 2.297 2.29 2.297s2.29-1.03 2.3-2.3V62.6l-.02-.25c-.01-.247-.05-.46-.12-.655l-1.33-3.91.74-1.78c.41.36.93.57 1.49.57l4.12.01c1.39 0 2.26-.85 2.26-2.21 0-1.21-.72-2.02-1.88-2.17zm0 0" fill="#67747C"/><path d="M21.606 7.045c1.544 0 2.796-1.265 2.796-2.82 0-1.56-1.252-2.826-2.796-2.826-1.54 0-2.794 1.26-2.794 2.82s1.253 2.82 2.794 2.82zm4.516 5.535l-.288-.037-.135-.004-2.48-.01-.85-2.66c-.24-.75-.87-1.31-1.58-1.47l-2.25-.92c-.25-.1-.5-.15-.77-.16l-4.96-.1c-.39 0-.76.09-1.09.28l-.06-.04L7.85 11c-.93.853-.99 2.316-.14 3.26.44.487 1.06.76 1.7.76.56 0 1.11-.205 1.528-.587l2.77-2.55.72.002-1.63 3.995-1.71 3.38-3.226-.6-.284-.034-.9-.166c-1.25-.226-2.424.633-2.65 1.875-.225 1.253.595 2.46 1.83 2.692L12 24.154c1.13.21 2.2-.463 2.56-1.54l.96-1.575.723 2.12v4.93c0 1.27 1.03 2.3 2.296 2.3 1.26 0 2.29-1.03 2.3-2.3v-5.11l-.02-.25c-.01-.25-.05-.46-.12-.66l-1.33-3.92.74-1.78c.4.36.93.56 1.48.57h4.12c1.39 0 2.26-.85 2.26-2.21 0-1.22-.72-2.03-1.88-2.18zm0 0" fill="#3B444F"/></g></svg>