<svg width="32" height="232" viewBox="0 0 32 232" xmlns="http://www.w3.org/2000/svg"><g fill="none"><path d="M25.59 131.607l-.315-.038-.17-.01-1.785-.01-.635-2c-.25-.79-.845-1.41-1.567-1.72l.145.01c1.852 0 3.36-1.54 3.36-3.43 0-1.89-1.508-3.43-3.36-3.43-1.85 0-3.357 1.54-3.357 3.43 0 1.02.45 1.93 1.15 2.56l-.4-.17c-.315-.13-.64-.19-.964-.19l-4.674-.1c-.478 0-.955.12-1.46.41l-.518.39-3.182 2.95c-1.17 1.08-1.25 2.94-.18 4.15 1.037 1.16 2.946 1.25 4.07.21l1.262-1.17-.664 1.65-1.36 2.71-2.497-.48-.31-.04-.8-.15c-1.6-.29-3.06.8-3.34 2.38-.28 1.59.75 3.13 2.31 3.42l5.76 1.07c1.38.26 2.72-.56 3.2-1.87l.04-.08.13.39v4.56c0 1.61 1.29 2.924 2.89 2.924 1.59 0 2.88-1.31 2.89-2.925v-4.85l-.02-.307c-.02-.28-.07-.55-.15-.8l-1.16-3.438.26-.63c.33.13.68.2 1.04.2l3.87.01c1.71 0 2.86-1.15 2.86-2.85 0-1.52-.95-2.62-2.41-2.81zm-4.328-9.107c1.043 0 1.89.865 1.89 1.93 0 1.06-.847 1.927-1.89 1.927-1.04 0-1.887-.866-1.887-1.928 0-1.07.847-1.93 1.887-1.93zm3.877 13.265l-3.87-.007c-.34-.002-.66-.126-.92-.352l-.77-.687-1.2 2.91 1.33 3.97c.04.12.06.25.08.5v4.95c-.01.79-.64 1.43-1.42 1.43-.79 0-1.43-.64-1.43-1.43v-4.68l-1.22-3.76-1.72 2.85-.07.15c-.22.67-.87 1.1-1.58.96l-5.75-1.06c-.76-.15-1.27-.9-1.13-1.68.14-.78.87-1.31 1.63-1.17l.84.15.1.01.16.01 3.56.68 1.88-3.76 1.95-4.82-2.06-.01-2.82 2.61c-.55.5-1.49.45-2-.11-.53-.59-.49-1.51.08-2.04l3.12-2.9.38-.29c.21-.12.43-.17.653-.17l4.662.09c.16 0 .32.03.46.09l2.11.87.12.03c.42.09.8.45.94.89l.962 3.03 2.89.01.264.03c.737.093 1.126.55 1.126 1.32 0 1.11-.76 1.344-1.396 1.344zm0 0" fill="#206FAC"/><path d="M25.59 91.607l-.315-.038-.17-.01-1.785-.01-.635-2c-.25-.79-.845-1.41-1.567-1.72l.145.01c1.852 0 3.36-1.54 3.36-3.43 0-1.89-1.508-3.43-3.36-3.43-1.85 0-3.357 1.54-3.357 3.43 0 1.02.45 1.93 1.15 2.56l-.4-.17c-.315-.13-.64-.19-.964-.19l-4.674-.1c-.478 0-.955.12-1.46.41l-.518.39-3.182 2.96c-1.17 1.08-1.25 2.94-.18 4.15 1.037 1.16 2.946 1.25 4.07.21l1.262-1.17-.664 1.65-1.36 2.71-2.497-.48-.31-.04-.8-.15c-1.59-.29-3.06.81-3.34 2.39-.28 1.59.75 3.13 2.31 3.42l5.76 1.07c1.38.26 2.72-.56 3.2-1.87l.04-.08.13.4v4.55c0 1.61 1.29 2.93 2.89 2.93 1.59 0 2.88-1.32 2.89-2.93v-4.85l-.02-.31c-.02-.28-.07-.55-.15-.79l-1.16-3.43.26-.635c.33.13.68.2 1.04.206l3.87.01c1.71 0 2.86-1.14 2.86-2.85 0-1.52-.94-2.62-2.41-2.81zM21.262 82.5c1.043 0 1.89.865 1.89 1.93 0 1.06-.847 1.927-1.89 1.927-1.04 0-1.887-.866-1.887-1.928 0-1.07.847-1.93 1.887-1.93zm3.877 13.265l-3.87-.007c-.34-.002-.66-.126-.92-.352l-.77-.687-1.2 2.91 1.33 3.97c.04.12.06.25.08.5v4.95c-.01.79-.64 1.43-1.42 1.43-.79 0-1.43-.64-1.43-1.43v-4.68l-1.22-3.76-1.72 2.85-.07.15c-.22.67-.87 1.1-1.58.96l-5.75-1.06c-.76-.15-1.27-.9-1.13-1.68.14-.78.87-1.31 1.63-1.17l.84.15.1.01.16.01 3.56.68 1.88-3.76 1.95-4.82-2.06-.01-2.82 2.61c-.55.5-1.49.45-2-.11-.53-.59-.49-1.51.08-2.04l3.12-2.9.38-.29c.21-.12.43-.17.653-.17l4.662.09c.16 0 .32.03.46.09l2.11.87.12.03c.42.09.8.45.94.89l.962 3.03 2.89.01.264.03c.737.093 1.126.55 1.126 1.32 0 1.11-.76 1.344-1.396 1.344zm0 0" fill="#fff"/><path d="M25.59 51.607l-.315-.038-.17-.01-1.785-.01-.635-2c-.25-.79-.845-1.41-1.567-1.72l.145.01c1.852 0 3.36-1.54 3.36-3.43 0-1.89-1.508-3.43-3.36-3.43-1.85 0-3.357 1.54-3.357 3.43 0 1.02.45 1.93 1.15 2.56l-.4-.17c-.315-.13-.64-.19-.964-.19l-4.674-.1c-.478 0-.955.12-1.46.41l-.518.39-3.182 2.96c-1.17 1.08-1.25 2.94-.18 4.15 1.037 1.16 2.946 1.25 4.07.21l1.262-1.17-.664 1.65-1.36 2.71-2.497-.48-.31-.04-.8-.15c-1.59-.29-3.06.81-3.34 2.39-.28 1.59.75 3.13 2.31 3.42l5.76 1.07c1.38.26 2.72-.56 3.2-1.87l.04-.08.13.4v4.55c0 1.61 1.29 2.93 2.89 2.93 1.59 0 2.88-1.32 2.89-2.93V62.2l-.02-.303c-.02-.28-.07-.55-.15-.792l-1.16-3.43.26-.633c.33.13.68.2 1.04.203l3.87.01c1.71 0 2.86-1.14 2.86-2.85 0-1.52-.94-2.62-2.41-2.81zM21.262 42.5c1.043 0 1.89.865 1.89 1.93 0 1.06-.847 1.927-1.89 1.927-1.04 0-1.887-.866-1.887-1.928 0-1.07.847-1.93 1.887-1.93zm3.877 13.265l-3.87-.007c-.34-.002-.66-.126-.92-.352l-.77-.687-1.2 2.91 1.33 3.97c.04.12.06.25.08.5v4.95c-.01.79-.64 1.43-1.42 1.43-.79 0-1.43-.64-1.43-1.43v-4.67l-1.22-3.77L14 61.46l-.07.15c-.22.676-.87 1.1-1.58.964L6.61 61.52c-.76-.143-1.265-.9-1.127-1.682.14-.776.872-1.314 1.63-1.173l.84.156.105.02.16.01 3.564.68 1.883-3.76 1.95-4.82-2.052-.01-2.815 2.61c-.548.5-1.487.45-1.996-.11-.525-.59-.49-1.51.08-2.04l3.124-2.9.38-.29c.206-.12.43-.17.653-.17l4.67.09c.16.01.31.04.45.09l2.11.88.12.04c.42.09.8.45.94.89l.96 3.03 2.89.01.27.04c.73.1 1.12.55 1.12 1.32 0 1.12-.76 1.35-1.4 1.35zm0 0" fill="#67747C"/><path d="M25.59 11.607l-.315-.038-.17-.01-1.785-.01-.635-2c-.25-.79-.845-1.41-1.567-1.72l.145.01c1.852 0 3.36-1.54 3.36-3.43 0-1.89-1.508-3.43-3.36-3.43-1.85 0-3.357 1.54-3.357 3.43 0 1.02.45 1.93 1.15 2.56l-.4-.17c-.315-.13-.64-.19-.964-.19l-4.674-.1c-.478 0-.955.12-1.46.41l-.518.39-3.182 2.96c-1.17 1.08-1.25 2.94-.18 4.15 1.037 1.16 2.946 1.25 4.07.21l1.262-1.17-.664 1.65-1.36 2.71-2.497-.48-.31-.04-.8-.15c-1.59-.29-3.06.81-3.34 2.39-.28 1.59.75 3.13 2.31 3.42l5.76 1.07c1.38.26 2.72-.56 3.2-1.87l.04-.08.13.4v4.55c0 1.61 1.29 2.93 2.89 2.93 1.59 0 2.88-1.32 2.89-2.93V22.2l-.02-.303c-.02-.28-.07-.55-.15-.792l-1.16-3.43.26-.633c.33.13.68.2 1.04.203l3.87.01c1.71 0 2.86-1.14 2.86-2.85 0-1.52-.94-2.62-2.41-2.81zM21.262 2.5c1.043 0 1.89.865 1.89 1.93 0 1.06-.847 1.927-1.89 1.927-1.04 0-1.887-.866-1.887-1.928 0-1.07.847-1.93 1.887-1.93zm3.877 13.265l-3.87-.007c-.34-.002-.66-.126-.92-.352l-.77-.687-1.2 2.91 1.33 3.97c.04.12.06.25.08.5v4.95c-.01.79-.64 1.43-1.42 1.43-.79 0-1.43-.64-1.43-1.43v-4.67l-1.22-3.77L14 21.46l-.07.15c-.22.676-.87 1.1-1.58.964L6.61 21.52c-.76-.143-1.265-.9-1.127-1.682.14-.776.872-1.314 1.63-1.173l.84.156.105.02.16.01 3.564.68 1.883-3.76 1.95-4.82-2.052-.01-2.815 2.61c-.548.5-1.487.45-1.996-.11-.525-.59-.49-1.51.08-2.04l3.124-2.9.38-.29c.206-.12.43-.17.653-.17l4.67.09c.16.01.31.04.45.09l2.11.88.12.04c.42.09.8.45.94.89l.96 3.03 2.89.01.27.04c.73.1 1.12.55 1.12 1.32 0 1.12-.76 1.35-1.4 1.35zm0 0" fill="#3B444F"/><path d="M25.59 171.607l-.315-.038-.17-.01-1.785-.01-.635-2c-.25-.79-.845-1.41-1.567-1.72l.145.01c1.852 0 3.36-1.54 3.36-3.43 0-1.89-1.508-3.43-3.36-3.43-1.85 0-3.357 1.54-3.357 3.43 0 1.02.45 1.93 1.15 2.56l-.4-.17c-.315-.13-.64-.19-.964-.19l-4.674-.1c-.478 0-.955.12-1.46.41l-.518.39-3.182 2.95c-1.17 1.08-1.25 2.94-.18 4.15 1.037 1.16 2.946 1.25 4.07.21l1.262-1.17-.664 1.65-1.36 2.71-2.497-.48-.31-.04-.8-.15c-1.6-.29-3.06.8-3.34 2.38-.28 1.59.75 3.13 2.31 3.42l5.76 1.07c1.38.26 2.72-.56 3.2-1.87l.04-.08.13.39v4.56c0 1.61 1.29 2.924 2.89 2.924 1.59 0 2.88-1.31 2.89-2.925v-4.85l-.02-.307c-.02-.28-.07-.55-.15-.8l-1.16-3.438.26-.63c.33.13.68.2 1.04.2l3.87.01c1.71 0 2.86-1.15 2.86-2.85 0-1.52-.95-2.62-2.41-2.81zm-4.328-9.107c1.043 0 1.89.865 1.89 1.93 0 1.06-.847 1.927-1.89 1.927-1.04 0-1.887-.866-1.887-1.928 0-1.07.847-1.93 1.887-1.93zm3.877 13.265l-3.87-.007c-.34-.002-.66-.126-.92-.352l-.77-.687-1.2 2.91 1.33 3.97c.04.12.06.25.08.5v4.95c-.01.79-.64 1.43-1.42 1.43-.79 0-1.43-.64-1.43-1.43v-4.68l-1.22-3.76-1.72 2.85-.07.15c-.22.67-.87 1.1-1.58.96l-5.75-1.06c-.76-.15-1.27-.9-1.13-1.68.14-.78.87-1.31 1.63-1.17l.84.15.1.01.16.01 3.56.68 1.88-3.76 1.95-4.82-2.06-.01-2.82 2.61c-.55.5-1.49.45-2-.11-.53-.59-.49-1.51.08-2.04l3.12-2.9.38-.29c.21-.12.43-.17.653-.17l4.662.09c.16 0 .32.03.46.09l2.11.87.12.03c.42.09.8.45.94.89l.962 3.03 2.89.01.264.03c.737.093 1.126.55 1.126 1.32 0 1.11-.76 1.344-1.396 1.344zm0 0" fill="#FFF06D"/></g></svg>