<svg width="22" height="32" viewBox="0 0 22 32" xmlns="http://www.w3.org/2000/svg"><g fill="none"><path d="M15.5 29.984c0 1.105-2.017 2-4.5 2-2.487 0-4.5-.895-4.5-2 0-1.104 2.013-2 4.5-2 2.483 0 4.5.896 4.5 2" fill-opacity=".2" fill="#1D508D"/><path d="M10.998-.016c6.076 0 11 4.363 11 10.92 0 6.406-5.55 9.16-8.506 13.257-2.417 3.35-2.494 5.83-2.494 5.83s-.02-2.49-2.493-5.82C5.465 20.07 0 17.5 0 10.91 0 4.34 4.923-.02 10.997-.02" fill="#FFC83F"/><path d="M13.81 6.756c.776 0 1.402-.63 1.402-1.404 0-.773-.626-1.4-1.4-1.4-.774 0-1.403.627-1.403 1.4 0 .775.62 1.404 1.4 1.404M16.07 9.5l-.146-.016h-.065l-1.24-.003-.43-1.31c-.12-.37-.44-.65-.79-.72l-1.13-.46c-.13-.04-.26-.07-.39-.07L9.4 6.86c-.19 0-.38.043-.548.137l-.028-.018L6.91 8.72c-.464.424-.493 1.148-.067 1.62.22.24.53.378.854.378.28 0 .553-.104.762-.293L9.85 9.16h.36l-.818 1.984-.863 1.678-1.62-.3-.15-.014-.45-.08c-.63-.116-1.22.313-1.33.928-.11.62.3 1.222.91 1.334l3.08.56c.57.11 1.11-.227 1.28-.76l.48-.785.36 1.056v2.46c0 .63.51 1.14 1.15 1.14.63 0 1.15-.51 1.15-1.13v-2.55l-.01-.12c-.01-.12-.03-.23-.07-.32l-.67-1.94.37-.88c.2.18.47.28.74.28l2.07.01c.7 0 1.132-.42 1.132-1.1 0-.6-.357-1.01-.943-1.08" fill="#fff"/></g></svg>