<svg width="32" height="232" viewBox="0 0 32 232" xmlns="http://www.w3.org/2000/svg"><g fill="none"><path d="M17.963 134.537h-.073V124h-3.855l-.002 10.537H3.5v3.857l10.535-.002v.072h.07V149h3.858v-10.536H28.5l-.002-3.855H17.963v-.08" fill="#206FAC"/><path d="M17.963 94.537h-.073V84h-3.855l-.002 10.537H3.5v3.857l10.535-.002v.072h.07V109h3.858V98.464H28.5l-.002-3.855H17.963v-.08" fill="#fff"/><path d="M17.963 54.537h-.073V44h-3.855l-.002 10.537H3.5v3.857l10.535-.002v.072h.07V69h3.858V58.464H28.5l-.002-3.855H17.963v-.08" fill="#67737B"/><path d="M17.963 14.537h-.073V4h-3.855l-.002 10.537H3.5v3.857l10.535-.002v.072h.07V29h3.858V18.464H28.5l-.002-3.855H17.963v-.08" fill="#3A434E"/></g></svg>