<svg width="32" height="232" viewBox="0 0 32 232" xmlns="http://www.w3.org/2000/svg"><g fill="none"><path d="M17.702 148.29l8.6-8.692c.93-.943.93-2.475 0-3.416-.932-.946-2.446-.946-3.375 0l-4.473 4.518v-14.286c0-1.33-1.068-2.414-2.387-2.414-1.325 0-2.39 1.084-2.39 2.414v14.416l-4.6-4.648c-.928-.946-2.444-.946-3.375 0-.935.94-.935 2.473 0 3.416l8.596 8.692c.47.478 1.088.712 1.704.71.614.002 1.23-.232 1.7-.71" fill="#206FAC"/><path d="M17.702 108.29l8.6-8.692c.93-.943.93-2.475 0-3.416-.932-.946-2.446-.946-3.375 0l-4.473 4.518V86.414c0-1.33-1.068-2.414-2.387-2.414-1.325 0-2.39 1.084-2.39 2.414v14.416l-4.6-4.648c-.928-.946-2.444-.946-3.375 0-.935.94-.935 2.473 0 3.416l8.596 8.692c.47.478 1.088.712 1.704.71.614.002 1.23-.232 1.7-.71" fill="#fff"/><path d="M17.702 68.29l8.6-8.692c.93-.943.93-2.475 0-3.416-.932-.946-2.446-.946-3.375 0L18.454 60.7V46.414c0-1.33-1.068-2.414-2.387-2.414-1.325 0-2.39 1.084-2.39 2.414V60.83l-4.6-4.648c-.928-.946-2.444-.946-3.375 0-.935.94-.935 2.473 0 3.416l8.596 8.692c.47.478 1.088.712 1.704.71.614.002 1.23-.232 1.7-.71" fill="#67737B"/><path d="M17.702 28.29l8.6-8.692c.93-.943.93-2.475 0-3.416-.932-.946-2.446-.946-3.375 0L18.454 20.7V6.414c0-1.33-1.068-2.414-2.387-2.414-1.325 0-2.39 1.084-2.39 2.414V20.83l-4.6-4.648c-.928-.946-2.444-.946-3.375 0-.935.94-.935 2.473 0 3.416l8.596 8.692c.47.478 1.088.712 1.704.71.614.002 1.23-.232 1.7-.71" fill="#3A434E"/></g></svg>