<svg width="32" height="232" viewBox="0 0 32 232" xmlns="http://www.w3.org/2000/svg"><g fill="none"><path d="M27.79 135.25l-8.693-8.6c-.945-.93-2.476-.93-3.416 0-.94.933-.94 2.448 0 3.377l4.52 4.472H5.92c-1.332 0-2.416 1.06-2.416 2.38s1.085 2.39 2.417 2.39h14.41l-4.65 4.6c-.94.92-.94 2.44 0 3.37.94.93 2.48.93 3.42 0l8.7-8.6c.48-.47.71-1.09.71-1.71 0-.62-.23-1.23-.71-1.7" fill="#206FAC"/><path d="M27.79 95.25l-8.693-8.6c-.945-.93-2.476-.93-3.416 0-.94.933-.94 2.448 0 3.377L20.2 94.5H5.917c-1.332 0-2.416 1.066-2.416 2.388 0 1.323 1.09 2.39 2.42 2.39h14.41l-4.65 4.6c-.94.927-.94 2.443 0 3.375.94.932 2.48.932 3.42 0l8.7-8.598c.48-.47.71-1.088.71-1.703 0-.614-.23-1.23-.71-1.702" fill="#fff"/><path d="M27.79 55.25l-8.693-8.6c-.945-.93-2.476-.93-3.416 0-.94.933-.94 2.448 0 3.377L20.2 54.5H5.917c-1.332 0-2.416 1.066-2.416 2.388 0 1.323 1.09 2.39 2.42 2.39h14.41l-4.65 4.6c-.94.927-.94 2.443 0 3.375.94.932 2.48.932 3.42 0l8.7-8.598c.48-.47.71-1.088.71-1.703 0-.614-.23-1.23-.71-1.702" fill="#67737B"/><path d="M27.79 15.25l-8.693-8.6c-.945-.93-2.476-.93-3.416 0-.94.933-.94 2.448 0 3.377L20.2 14.5H5.917c-1.332 0-2.416 1.066-2.416 2.388 0 1.323 1.09 2.39 2.42 2.39h14.41l-4.65 4.6c-.94.927-.94 2.443 0 3.375.94.932 2.48.932 3.42 0l8.7-8.598c.48-.47.71-1.088.71-1.703 0-.614-.23-1.23-.71-1.702" fill="#3A434E"/></g></svg>