<svg width="32" height="232" viewBox="0 0 32 232" xmlns="http://www.w3.org/2000/svg"><g fill="none"><path d="M4.21 135.25l8.693-8.6c.943-.93 2.474-.93 3.416 0 .94.933.94 2.448 0 3.377L11.8 134.5h14.284c1.332 0 2.416 1.067 2.416 2.388 0 1.323-1.084 2.39-2.416 2.39H11.668l4.65 4.6c.946.927.946 2.442 0 3.375-.94.932-2.472.932-3.415 0l-8.694-8.598c-.48-.47-.72-1.088-.71-1.704-.01-.61.23-1.23.71-1.7" fill="#206FAC"/><path d="M4.21 95.25l8.693-8.6c.943-.93 2.474-.93 3.416 0 .94.933.94 2.448 0 3.377L11.8 94.5h14.284c1.332 0 2.416 1.067 2.416 2.388 0 1.323-1.084 2.39-2.416 2.39H11.668l4.65 4.6c.946.927.946 2.442 0 3.375-.94.932-2.472.932-3.415 0L4.21 98.655c-.477-.47-.712-1.088-.71-1.704-.002-.61.233-1.23.71-1.7" fill="#fff"/><path d="M4.21 55.25l8.693-8.6c.943-.93 2.474-.93 3.416 0 .94.933.94 2.448 0 3.377L11.8 54.5h14.284c1.332 0 2.416 1.067 2.416 2.388 0 1.323-1.084 2.39-2.416 2.39H11.668l4.65 4.6c.946.927.946 2.442 0 3.375-.94.932-2.472.932-3.415 0L4.21 58.655c-.477-.47-.712-1.088-.71-1.704-.002-.61.233-1.23.71-1.7" fill="#67737B"/><path d="M4.21 15.25l8.693-8.6c.943-.93 2.474-.93 3.416 0 .94.933.94 2.448 0 3.377L11.8 14.5h14.284c1.332 0 2.416 1.067 2.416 2.388 0 1.323-1.084 2.39-2.416 2.39H11.668l4.65 4.6c.946.927.946 2.442 0 3.375-.94.932-2.472.932-3.415 0L4.21 18.655c-.477-.47-.712-1.088-.71-1.704-.002-.61.233-1.23.71-1.7" fill="#3A434E"/></g></svg>