<svg width="32" height="232" viewBox="0 0 32 232" xmlns="http://www.w3.org/2000/svg"><g fill="none"><path d="M17.702 124.71l8.6 8.693c.93.943.93 2.474 0 3.416-.933.94-2.447.94-3.377 0l-4.472-4.52v14.28c0 1.33-1.068 2.41-2.387 2.41-1.325 0-2.39-1.09-2.39-2.42v-14.41l-4.603 4.65c-.925.94-2.44.94-3.375 0-.932-.95-.932-2.48 0-3.42l8.598-8.7c.47-.48 1.087-.72 1.703-.71.61-.01 1.23.23 1.7.71" fill="#206FAC"/><path d="M17.702 84.71l8.6 8.693c.93.943.93 2.474 0 3.416-.933.94-2.447.94-3.377 0l-4.472-4.52v14.28c0 1.33-1.068 2.41-2.387 2.41-1.325 0-2.39-1.09-2.39-2.42v-14.4l-4.603 4.65c-.925.94-2.44.94-3.375 0-.932-.95-.932-2.48 0-3.42l8.598-8.7c.47-.48 1.087-.72 1.703-.71.61-.01 1.23.23 1.7.71" fill="#fff"/><path d="M17.702 44.71l8.6 8.693c.93.943.93 2.474 0 3.416-.933.94-2.447.94-3.377 0l-4.472-4.52v14.28c0 1.33-1.068 2.41-2.387 2.41-1.325 0-2.39-1.09-2.39-2.42v-14.4l-4.603 4.65c-.925.94-2.44.94-3.375 0-.932-.95-.932-2.48 0-3.42l8.598-8.7c.47-.48 1.087-.72 1.703-.71.61-.01 1.23.23 1.7.71" fill="#67737B"/><path d="M17.702 4.71l8.6 8.693c.93.943.93 2.474 0 3.416-.933.94-2.447.94-3.377 0l-4.472-4.52v14.28c0 1.33-1.068 2.41-2.387 2.41-1.325 0-2.39-1.09-2.39-2.42v-14.4l-4.603 4.65c-.925.94-2.44.94-3.375 0-.932-.95-.932-2.48 0-3.42l8.598-8.7c.47-.48 1.087-.72 1.703-.71.61-.01 1.23.23 1.7.71" fill="#3A434E"/></g></svg>