<svg width="32" height="232" viewBox="0 0 32 232" xmlns="http://www.w3.org/2000/svg"><g fill="none"><g fill="#3A434E"><path d="M16.97 11.145c-.002 0-.136.055-.4.055-.284 0-.46-.07-.702-.166-.296-.118-.663-.263-1.246-.263-.222 0-.425.09-.587.27-.522.55-.55 2.1-.516 3l-.19.1.45.89.47-.24c.18-.09.28-.27.27-.47-.07-1.06.03-2.21.19-2.53.32.02.53.1.77.2.28.11.59.24 1.07.24.5 0 .78-.12.83-.15l-.45-.89h.01m-3.21 4.4l-.57-.11-.19.98.64.13.09.01.05-.01 1.11-.12-.12-.99-1.04.12"/><path d="M5.372 29.246H26.43V2.78H5.37v26.466zm-1.5-1.104l.068-.098c1.052-2.036 2.136-3.612 3.046-4.485-.074.22-.116.44-.116.67 0 .98.73 1.7 2.173 2.15.086.06.183.08.28.08h.014c.977.26 2.24.42 3.792.46-.41.46-.76.91-1.05 1.31H3.87v-.11zm8.973-22.148l.292-.01c2.412 0 3.944 1.117 4.822 3.516.78 2.14.87 4.954.94 7.216.05 1.603.1 2.986.36 3.905.21.77.6 1.57.9 2.13-1.17.13-2.25.51-3.23 1.04v-6.13c0-1.71 0-4.29-.58-6.49-.74-2.81-2.22-4.23-4.4-4.23-.57 0-1.05.07-1.47.17.55-.61 1.3-1.02 2.31-1.1h.03zm1.215 19.96c-1.443-.004-2.68-.1-3.66-.275l.183-.1c.25-.12.358-.42.24-.67-.116-.25-.413-.36-.664-.24-.44.2-.77.48-.98.7-.85-.29-1.32-.68-1.32-1.15 0-1.22 2.35-3.02 3.84-3.88.17-.1.26-.29.25-.48l-.11-1.12.24.01c1.23 0 2.19-.61 3.05-1.27.22-.17.26-.48.09-.7-.17-.22-.49-.26-.7-.09-.83.63-1.56 1.06-2.45 1.06-1.46 0-3.01-1.92-3.01-5.48v-.21c.13-.04.31-.07.48-.07.28 0 .49.17.49.17l.65-.76c-.05-.04-.5-.41-1.15-.41-.16 0-.3.02-.44.04.07-.88.23-1.77.52-2.54.42-.29 1.14-.59 2.3-.59 1.69 0 2.81 1.14 3.43 3.48.54 2.07.54 4.58.54 6.23v6.75c-.7.47-1.33 1.01-1.887 1.56zm-5.82-11.82c.163.967.453 1.853.856 2.583.46.836 1.055 1.435 1.732 1.765l.11 1.175c-.477.29-1.408.894-2.26 1.653-.207-1.41-.552-4.288-.437-7.177zm5.096 14.113c1.534-1.93 4.247-4.554 7.664-4.554.788 0 1.45.388 1.867.713l.062.038v3.803h-9.6zM22.93 3.78v19.464c-.445-.257-1-.48-1.636-.535-.254-.44-.806-1.46-1.064-2.36-.227-.81-.27-2.13-.322-3.67-.076-2.34-.172-5.24-1.01-7.53-1.012-2.77-2.95-4.17-5.76-4.17H12.8l-.24.02h-.01c-1.28.13-2.352.71-3.19 1.71-.423.51-.77 1.11-1.05 1.78l-.045.08-.047.15c-1.7 4.36-.76 11.23-.45 13.15-.92.29-2.216 1.35-3.88 4.2V3.78h19.05zm6.24 7.148c0-1.36-.245-2.05-.483-2.718-.22-.615-.426-1.194-.426-2.384s.21-1.77.43-2.383c.24-.668.49-1.357.49-2.72 0-.23-.16-.423-.37-.48-.06-.034-.14-.056-.22-.056-1.65 0-2.49.22-3.3.432-.78.2-1.52.4-3.05.4s-2.27-.2-3.05-.4C18.36.4 17.52.18 15.86.18c-1.653 0-2.493.22-3.304.432-.788.204-1.53.4-3.054.4-1.526 0-2.268-.196-3.053-.4C5.63.4 4.79.182 3.14.182c-.25 0-.453.18-.492.42L2.63.72c0 1.362.248 2.05.487 2.72.218.613.426 1.194.426 2.383 0 1.19-.207 1.77-.425 2.385-.24.668-.484 1.358-.484 2.72 0 1.36.246 2.05.485 2.72.21.61.42 1.19.42 2.382 0 1.19-.21 1.77-.43 2.383-.24.667-.49 1.357-.49 2.72 0 1.36.24 2.05.48 2.717.21.615.42 1.194.42 2.384s-.21 1.77-.43 2.384c-.24.668-.49 1.358-.49 2.72 0 .274.22.498.5.498l.03-.003c1.64-.002 2.47-.22 3.28-.43.78-.208 1.53-.4 3.05-.4s2.27.192 3.05.4c.81.21 1.65.43 3.3.43s2.49-.22 3.3-.43c.79-.208 1.53-.4 3.057-.4 1.53 0 2.27.192 3.054.4.815.21 1.65.43 3.308.43l.03-.003.06.006c.28 0 .5-.224.5-.5 0-1.36-.243-2.05-.48-2.717-.22-.61-.43-1.19-.43-2.38s.21-1.77.427-2.39c.24-.67.48-1.36.48-2.72s-.25-2.05-.488-2.72c-.22-.62-.424-1.2-.424-2.39 0-1.19.21-1.77.43-2.39.24-.67.484-1.36.484-2.72zm-9.457 19.077c-1.654 0-2.493.22-3.305.432-.786.206-1.528.4-3.053.4-1.524 0-2.266-.194-3.052-.4-.812-.212-1.652-.432-3.306-.432-1.654 0-2.494.22-3.306.432-.69.182-1.35.354-2.54.392.05-.86.23-1.36.41-1.88.24-.67.49-1.36.49-2.72s-.24-2.05-.48-2.72c-.22-.62-.42-1.2-.42-2.39s.21-1.77.43-2.39c.24-.67.49-1.36.49-2.72s-.24-2.05-.48-2.72c-.22-.62-.42-1.2-.42-2.39 0-1.19.21-1.77.43-2.39.24-.67.49-1.36.49-2.72s-.24-2.05-.48-2.72c-.19-.53-.37-1.03-.41-1.92 1.2.04 1.86.21 2.55.39.82.21 1.66.43 3.31.43s2.5-.22 3.31-.44c.79-.21 1.53-.4 3.05-.4 1.53 0 2.27.19 3.06.4.81.21 1.65.43 3.31.43s2.5-.22 3.31-.43c.71-.19 1.39-.36 2.64-.4-.04.88-.22 1.39-.41 1.91-.24.67-.48 1.36-.48 2.72s.25 2.05.488 2.72c.22.61.43 1.195.43 2.38 0 1.19-.21 1.77-.426 2.39-.24.666-.484 1.356-.484 2.72 0 1.36.25 2.05.484 2.72.22.61.425 1.19.425 2.38s-.21 1.77-.43 2.38c-.24.664-.482 1.355-.482 2.72s.245 2.05.48 2.72c.186.52.36 1.01.41 1.87-1.25-.03-1.925-.203-2.635-.39-.81-.21-1.65-.43-3.305-.43z"/></g><g fill="#67737B"><path d="M16.97 51.145c-.002 0-.136.055-.4.055-.284 0-.46-.07-.702-.166-.296-.118-.663-.263-1.246-.263-.222 0-.425.09-.587.27-.522.55-.55 2.1-.516 3l-.19.1.45.89.47-.24c.18-.09.28-.27.27-.47-.07-1.06.03-2.21.19-2.53.32.02.53.1.77.2.28.11.59.24 1.07.24.5 0 .78-.12.83-.15l-.45-.89h.01m-3.21 4.4l-.57-.11-.2.98.64.13.09.01h.05l1.11-.123-.12-.99-1.04.12"/><path d="M5.372 69.246H26.43V42.78H5.37v26.466zm-1.5-41.104l.068-.098c1.052-2.036 2.136-3.612 3.046-4.485-.074.22-.116.44-.116.67 0 .98.73 1.7 2.173 2.15.086.06.183.08.28.08h.014c.977.26 2.24.42 3.792.46-.41.46-.76.91-1.05 1.31H3.87v-.11zm8.973-22.148l.292-.01c2.412 0 3.944 1.117 4.822 3.516.78 2.14.87 4.954.94 7.216.05 1.603.1 2.986.36 3.905.21.77.6 1.57.9 2.13-1.17.13-2.25.51-3.23 1.04v-6.13c0-1.71 0-4.29-.58-6.49-.74-2.81-2.22-4.23-4.4-4.23-.57 0-1.05.07-1.47.17.55-.61 1.3-1.02 2.31-1.1h.03zm1.215 19.96c-1.443-.004-2.68-.1-3.66-.275l.183-.1c.25-.12.358-.42.24-.67-.116-.25-.413-.36-.664-.24-.44.2-.77.48-.98.7-.85-.29-1.32-.68-1.32-1.15 0-1.22 2.35-3.02 3.84-3.88.17-.1.26-.29.25-.48l-.11-1.12.24.01c1.23 0 2.19-.61 3.05-1.27.22-.17.26-.48.09-.7-.17-.22-.49-.26-.7-.09-.83.63-1.56 1.06-2.45 1.06-1.46 0-3.01-1.92-3.01-5.48v-.21c.13-.04.31-.07.48-.07.28 0 .49.17.49.17l.65-.76c-.05-.04-.5-.41-1.15-.41-.16 0-.3.02-.44.04.07-.88.23-1.77.52-2.54.42-.29 1.14-.59 2.3-.59 1.69 0 2.81 1.14 3.43 3.48.54 2.07.54 4.58.54 6.23v6.75c-.7.47-1.33 1.01-1.887 1.56zm-5.82-11.82c.163.967.453 1.853.856 2.583.46.836 1.055 1.435 1.732 1.765l.11 1.175c-.477.29-1.408.894-2.26 1.653-.207-1.41-.552-4.288-.437-7.177zm5.096 14.113c1.534-1.93 4.247-4.554 7.664-4.554.788 0 1.45.388 1.867.713l.062.038v3.803h-9.6zM22.93 3.78v19.464c-.445-.257-1-.48-1.636-.535-.254-.44-.806-1.46-1.064-2.36-.227-.81-.27-2.13-.322-3.67-.076-2.34-.172-5.24-1.01-7.53-1.012-2.77-2.95-4.17-5.76-4.17H12.8l-.24.02h-.01c-1.28.13-2.352.71-3.19 1.71-.423.51-.77 1.11-1.05 1.78l-.045.08-.047.15c-1.7 4.36-.76 11.23-.45 13.15-.92.29-2.216 1.35-3.88 4.2V3.78h19.05zm6.24 47.148c0-1.36-.245-2.05-.483-2.718-.22-.615-.426-1.194-.426-2.384s.21-1.77.43-2.383c.24-.668.49-1.357.49-2.72 0-.23-.16-.423-.37-.48-.06-.034-.14-.056-.22-.056-1.65 0-2.49.22-3.3.432-.78.2-1.52.4-3.05.4s-2.26-.2-3.05-.4c-.81-.22-1.65-.44-3.3-.44s-2.49.22-3.3.43c-.78.2-1.53.4-3.05.4-1.52 0-2.27-.2-3.05-.4-.81-.22-1.65-.44-3.3-.44-.25 0-.45.18-.49.42l-.01.11c0 1.36.25 2.05.49 2.72.22.61.43 1.19.43 2.38s-.2 1.77-.42 2.38c-.24.66-.48 1.35-.48 2.72 0 1.36.25 2.05.49 2.72.22.61.426 1.19.426 2.38s-.21 1.77-.43 2.38c-.24.66-.48 1.35-.48 2.72 0 1.36.243 2.05.48 2.71.21.62.42 1.19.42 2.38s-.21 1.77-.43 2.38c-.24.67-.484 1.36-.484 2.72 0 .272.228.5.5.5h.03c1.64 0 2.476-.22 3.28-.43.79-.21 1.53-.4 3.056-.4s2.27.19 3.054.4c.81.21 1.65.43 3.3.43s2.494-.22 3.305-.43c.783-.21 1.524-.4 3.05-.4 1.525 0 2.27.19 3.05.4.81.21 1.65.43 3.307.43l.036-.008.07.01c.28 0 .5-.225.5-.5 0-1.36-.24-2.05-.48-2.72-.22-.614-.427-1.194-.427-2.384s.21-1.77.43-2.385c.236-.66.48-1.35.48-2.713 0-1.36-.243-2.05-.48-2.72-.22-.614-.43-1.194-.43-2.38 0-1.19.21-1.77.43-2.38.232-.67.48-1.36.48-2.72zM17.213-9.995c-1.654 0-2.493.22-3.305.432-.786.206-1.528.4-3.053.4-1.524 0-2.266-.194-3.052-.4-.812-.212-1.652-.432-3.306-.432-1.654 0-2.494.22-3.306.432-.69.182-1.35.354-2.54.392.05-.86.23-1.36.41-1.88.24-.67.49-1.36.49-2.72s-.24-2.05-.48-2.72c-.22-.62-.42-1.2-.42-2.39s.21-1.77.43-2.39c.24-.67.49-1.36.49-2.72s-.24-2.05-.48-2.72c-.22-.62-.42-1.2-.42-2.39 0-1.19.21-1.77.43-2.39.24-.67.49-1.36.49-2.72s-.24-2.05-.48-2.72c-.19-.53-.37-1.03-.41-1.92 1.2.04 1.86.21 2.55.39.82.21 1.66.43 3.31.43s2.5-.22 3.31-.44c.79-.21 1.53-.4 3.05-.4 1.53 0 2.27.19 3.06.4.81.21 1.65.43 3.31.43s2.5-.22 3.31-.43c.71-.19 1.39-.36 2.64-.4-.04.88-.22 1.39-.41 1.91-.24.67-.48 1.36-.48 2.72s.25 2.05.488 2.72c.22.61.43 1.195.43 2.38 0 1.19-.21 1.77-.426 2.39-.24.666-.484 1.356-.484 2.72 0 1.36.25 2.05.484 2.72.22.61.425 1.19.425 2.38s-.21 1.77-.43 2.38c-.24.666-.49 1.357-.49 2.72 0 1.36.25 2.05.49 2.72.18.52.36 1.015.41 1.875-1.25-.03-1.93-.2-2.64-.39-.813-.21-1.653-.43-3.307-.43z"/></g><g fill="#fff"><path d="M16.97 91.145c-.002 0-.136.055-.4.055-.284 0-.46-.07-.702-.166-.296-.118-.663-.263-1.246-.263-.222 0-.425.09-.587.27-.522.55-.55 2.1-.516 3l-.19.1.45.89.47-.24c.18-.09.28-.27.27-.47-.07-1.06.03-2.21.19-2.53.32.02.53.1.77.2.28.11.59.24 1.07.24.5 0 .78-.12.83-.15l-.45-.89h.01m-3.21 4.4l-.57-.11-.2.98.64.13.09.01h.05l1.11-.123-.12-.99-1.04.12"/><path d="M5.372 109.246H26.43V82.78H5.37v26.466zm-1.5-81.104l.068-.098c1.052-2.036 2.136-3.612 3.046-4.485-.074.22-.116.44-.116.67 0 .98.73 1.7 2.173 2.15.086.06.183.08.28.08h.014c.977.26 2.24.42 3.792.46-.41.46-.76.91-1.05 1.31H3.87v-.11zm8.973-22.148l.292-.01c2.412 0 3.944 1.117 4.822 3.516.78 2.14.87 4.954.94 7.216.05 1.603.1 2.986.36 3.905.21.77.6 1.57.9 2.13-1.17.13-2.25.51-3.23 1.04v-6.13c0-1.71 0-4.29-.58-6.49-.74-2.81-2.22-4.23-4.4-4.23-.57 0-1.05.07-1.47.17.55-.61 1.3-1.02 2.31-1.1h.03zm1.215 19.96c-1.443-.004-2.68-.1-3.66-.275l.183-.1c.25-.12.358-.42.24-.67-.116-.25-.413-.36-.664-.24-.44.2-.77.48-.98.7-.85-.29-1.32-.68-1.32-1.15 0-1.22 2.35-3.02 3.84-3.88.17-.1.26-.29.25-.48l-.11-1.12.24.01c1.23 0 2.19-.61 3.05-1.27.22-.17.26-.48.09-.7-.17-.22-.49-.26-.7-.09-.83.63-1.56 1.06-2.45 1.06-1.46 0-3.01-1.92-3.01-5.48v-.21c.13-.04.31-.07.48-.07.28 0 .49.17.49.17l.65-.76c-.05-.04-.5-.41-1.15-.41-.16 0-.3.02-.44.04.07-.88.23-1.77.52-2.54.42-.29 1.14-.59 2.3-.59 1.69 0 2.81 1.14 3.43 3.48.54 2.07.54 4.58.54 6.23v6.75c-.7.47-1.33 1.01-1.887 1.56zm-5.82-11.82c.163.967.453 1.853.856 2.583.46.836 1.055 1.435 1.732 1.765l.11 1.175c-.477.29-1.408.894-2.26 1.653-.207-1.41-.552-4.288-.437-7.177zm5.096 14.113c1.534-1.93 4.247-4.554 7.664-4.554.788 0 1.45.388 1.867.713l.062.038v3.803h-9.6zM22.93 3.78v19.464c-.445-.257-1-.48-1.636-.535-.254-.44-.806-1.46-1.064-2.36-.227-.81-.27-2.13-.322-3.67-.076-2.34-.172-5.24-1.01-7.53-1.012-2.77-2.95-4.17-5.76-4.17H12.8l-.24.02h-.01c-1.28.13-2.352.71-3.19 1.71-.423.51-.77 1.11-1.05 1.78l-.045.08-.047.15c-1.7 4.36-.76 11.23-.45 13.15-.92.29-2.216 1.35-3.88 4.2V3.78h19.05zm6.24 87.148c0-1.36-.245-2.05-.483-2.718-.22-.615-.426-1.194-.426-2.384s.21-1.77.43-2.383c.24-.668.49-1.357.49-2.72 0-.23-.16-.423-.37-.48-.06-.034-.14-.056-.22-.056-1.65 0-2.49.22-3.3.432-.78.2-1.52.4-3.05.4s-2.26-.2-3.05-.4c-.81-.22-1.65-.44-3.3-.44s-2.49.22-3.3.43c-.78.2-1.53.4-3.05.4-1.52 0-2.27-.2-3.05-.4-.81-.22-1.65-.44-3.3-.44-.25 0-.45.18-.49.42l-.01.11c0 1.36.25 2.05.49 2.72.22.61.43 1.19.43 2.38s-.2 1.77-.42 2.38c-.24.66-.48 1.35-.48 2.72 0 1.36.25 2.05.49 2.72.22.61.426 1.19.426 2.38s-.21 1.77-.43 2.38c-.24.66-.48 1.35-.48 2.72 0 1.36.243 2.05.48 2.71.21.62.42 1.19.42 2.38s-.21 1.77-.43 2.38c-.24.67-.484 1.36-.484 2.72 0 .272.228.5.5.5h.03c1.64 0 2.476-.22 3.28-.43.79-.21 1.53-.4 3.056-.4s2.27.19 3.054.4c.81.21 1.65.43 3.3.43s2.494-.22 3.305-.43c.783-.21 1.524-.4 3.05-.4 1.525 0 2.27.19 3.05.4.81.21 1.65.43 3.307.43l.036-.008.07.01c.28 0 .5-.225.5-.5 0-1.36-.24-2.05-.48-2.72-.22-.614-.427-1.194-.427-2.384s.21-1.77.43-2.385c.236-.66.48-1.35.48-2.713 0-1.36-.243-2.05-.48-2.72-.22-.614-.43-1.194-.43-2.38 0-1.19.21-1.77.43-2.38.232-.67.48-1.36.48-2.72zm-9.457-60.923c-1.654 0-2.493.22-3.305.432-.786.206-1.528.4-3.053.4-1.524 0-2.266-.194-3.052-.4-.812-.212-1.652-.432-3.306-.432-1.654 0-2.494.22-3.306.432-.69.182-1.35.354-2.54.392.05-.86.23-1.36.41-1.88.24-.67.49-1.36.49-2.72s-.24-2.05-.48-2.72c-.22-.62-.42-1.2-.42-2.39s.21-1.77.43-2.39c.24-.67.49-1.36.49-2.72s-.24-2.05-.48-2.72c-.22-.62-.42-1.2-.42-2.39 0-1.19.21-1.77.43-2.39.24-.67.49-1.36.49-2.72s-.24-2.05-.48-2.72c-.19-.53-.37-1.03-.41-1.92 1.2.04 1.86.21 2.55.39.82.21 1.66.43 3.31.43s2.5-.22 3.31-.44c.79-.21 1.53-.4 3.05-.4 1.53 0 2.27.19 3.06.4.81.21 1.65.43 3.31.43s2.5-.22 3.31-.43c.71-.19 1.39-.36 2.64-.4-.04.88-.22 1.39-.41 1.91-.24.67-.48 1.36-.48 2.72s.25 2.05.488 2.72c.22.61.43 1.195.43 2.38 0 1.19-.21 1.77-.426 2.39-.24.666-.484 1.356-.484 2.72 0 1.36.25 2.05.484 2.72.22.61.425 1.19.425 2.38s-.21 1.77-.43 2.38c-.24.664-.482 1.355-.482 2.72s.245 2.05.48 2.72c.186.52.36 1.01.41 1.87-1.25-.03-1.925-.203-2.635-.39-.81-.21-1.65-.43-3.305-.43z"/></g><g fill="#206FAC"><path d="M16.97 131.145c-.002 0-.136.055-.4.055-.284 0-.46-.07-.702-.166-.296-.118-.663-.263-1.246-.263-.222 0-.425.09-.587.27-.522.55-.55 2.1-.516 3l-.19.1.45.89.47-.24c.18-.09.28-.27.27-.47-.07-1.06.03-2.21.19-2.53.32.02.53.1.77.2.28.11.59.24 1.07.24.5 0 .78-.12.83-.15l-.45-.89h.01m-3.22 4.4l-.57-.11-.19.98.64.13.09.01h.05l1.11-.13-.12-.99-1.04.12"/><path d="M5.372 149.246H26.43V122.78H5.37v26.466zm-1.5-121.104l.068-.098c1.052-2.036 2.136-3.612 3.046-4.485-.074.22-.116.44-.116.67 0 .98.73 1.7 2.173 2.15.086.06.183.08.28.08h.014c.977.26 2.24.42 3.792.46-.41.46-.76.91-1.05 1.31H3.87v-.11zm8.973-22.148l.292-.01c2.412 0 3.944 1.117 4.822 3.516.78 2.14.87 4.954.94 7.216.05 1.603.1 2.986.36 3.905.21.77.6 1.57.9 2.13-1.17.13-2.25.51-3.23 1.04v-6.13c0-1.71 0-4.29-.58-6.49-.74-2.81-2.22-4.23-4.4-4.23-.57 0-1.05.07-1.47.17.55-.61 1.3-1.02 2.31-1.1h.03zm1.215 19.96c-1.443-.004-2.68-.1-3.66-.275l.183-.1c.25-.12.358-.42.24-.67-.116-.25-.413-.36-.664-.24-.44.2-.77.48-.98.7-.85-.29-1.32-.68-1.32-1.15 0-1.22 2.35-3.02 3.84-3.88.17-.1.26-.29.25-.48l-.11-1.12.24.01c1.23 0 2.19-.61 3.05-1.27.22-.17.26-.48.09-.7-.17-.22-.49-.26-.7-.09-.83.63-1.56 1.06-2.45 1.06-1.46 0-3.01-1.92-3.01-5.48v-.21c.13-.04.31-.07.48-.07.28 0 .49.17.49.17l.65-.76c-.05-.04-.5-.41-1.15-.41-.16 0-.3.02-.44.04.07-.88.23-1.77.52-2.54.42-.29 1.14-.59 2.3-.59 1.69 0 2.81 1.14 3.43 3.48.54 2.07.54 4.58.54 6.23v6.75c-.7.47-1.33 1.01-1.887 1.56zm-5.82-11.82c.163.967.453 1.853.856 2.583.46.836 1.055 1.435 1.732 1.765l.11 1.175c-.477.29-1.408.894-2.26 1.653-.207-1.41-.552-4.288-.437-7.177zm5.096 14.113c1.534-1.93 4.247-4.554 7.664-4.554.788 0 1.45.388 1.867.713l.062.038v3.803h-9.6zM22.93 3.78v19.464c-.445-.257-1-.48-1.636-.535-.254-.44-.806-1.46-1.064-2.36-.227-.81-.27-2.13-.322-3.67-.076-2.34-.172-5.24-1.01-7.53-1.012-2.77-2.95-4.17-5.76-4.17H12.8l-.24.02h-.01c-1.28.13-2.352.71-3.19 1.71-.423.51-.77 1.11-1.05 1.78l-.045.08-.047.15c-1.7 4.36-.76 11.23-.45 13.15-.92.29-2.216 1.35-3.88 4.2V3.78h19.05zm6.24 127.148c0-1.36-.245-2.05-.483-2.718-.22-.615-.426-1.194-.426-2.384s.21-1.77.43-2.383c.24-.668.49-1.357.49-2.72 0-.23-.16-.423-.37-.48-.06-.034-.14-.056-.22-.056-1.65 0-2.49.22-3.3.432-.78.2-1.52.4-3.05.4s-2.26-.2-3.05-.4c-.81-.22-1.65-.44-3.3-.44s-2.49.22-3.3.43c-.78.2-1.53.4-3.05.4-1.52 0-2.27-.2-3.05-.4-.81-.22-1.65-.44-3.3-.44-.25 0-.45.18-.49.42l-.01.11c0 1.36.25 2.05.49 2.72.22.61.43 1.19.43 2.38s-.2 1.77-.42 2.38c-.24.66-.48 1.35-.48 2.72 0 1.36.25 2.05.49 2.72.22.61.426 1.19.426 2.38s-.21 1.77-.43 2.38c-.24.66-.48 1.35-.48 2.72 0 1.36.243 2.05.48 2.71.21.62.42 1.19.42 2.38s-.21 1.77-.43 2.38c-.24.67-.484 1.36-.484 2.72 0 .272.228.5.5.5h.03c1.64 0 2.476-.22 3.28-.43.79-.21 1.53-.4 3.056-.4s2.27.19 3.054.4c.81.21 1.65.43 3.3.43s2.494-.22 3.305-.43c.783-.21 1.524-.4 3.05-.4 1.525 0 2.27.19 3.05.4.81.21 1.65.43 3.307.43l.036-.008.07.01c.28 0 .5-.225.5-.5 0-1.36-.24-2.05-.48-2.72-.22-.614-.427-1.194-.427-2.384s.21-1.77.43-2.385c.236-.66.48-1.35.48-2.713 0-1.36-.243-2.05-.48-2.72-.22-.614-.43-1.194-.43-2.38 0-1.19.21-1.77.43-2.38.232-.67.48-1.36.48-2.72zM17.213-89.995c-1.654 0-2.493.22-3.305.432-.786.206-1.528.4-3.053.4-1.524 0-2.266-.194-3.052-.4-.812-.212-1.652-.432-3.306-.432-1.654 0-2.494.22-3.306.432-.69.182-1.35.354-2.54.392.05-.86.23-1.36.41-1.88.24-.67.49-1.36.49-2.72s-.24-2.05-.48-2.72c-.22-.62-.42-1.2-.42-2.39s.21-1.77.43-2.39c.24-.67.49-1.36.49-2.72s-.24-2.05-.48-2.72c-.22-.62-.42-1.2-.42-2.39 0-1.19.21-1.77.43-2.39.24-.67.49-1.36.49-2.72s-.24-2.05-.48-2.72c-.19-.53-.37-1.03-.41-1.92 1.2.04 1.86.21 2.55.39.82.21 1.66.43 3.31.43s2.5-.22 3.31-.44c.79-.21 1.53-.4 3.05-.4 1.53 0 2.27.19 3.06.4.81.21 1.65.43 3.31.43s2.5-.22 3.31-.43c.71-.19 1.39-.36 2.64-.4-.04.88-.22 1.39-.41 1.91-.24.67-.48 1.36-.48 2.72s.25 2.05.488 2.72c.22.61.43 1.195.43 2.38 0 1.19-.21 1.77-.426 2.39-.24.666-.484 1.356-.484 2.72 0 1.36.25 2.05.484 2.72.22.61.425 1.19.425 2.38s-.21 1.77-.43 2.38c-.24.666-.49 1.357-.49 2.72 0 1.36.25 2.05.49 2.72.18.52.36 1.015.41 1.875-1.25-.03-1.93-.2-2.64-.39-.813-.21-1.653-.43-3.307-.43z"/></g></g></svg>