<svg width="22" height="32" viewBox="0 0 22 32" xmlns="http://www.w3.org/2000/svg"><g fill="none"><path d="M15.5 29.984c0 1.105-2.017 2-4.5 2-2.487 0-4.5-.895-4.5-2 0-1.104 2.013-2 4.5-2 2.483 0 4.5.896 4.5 2" fill-opacity=".2" fill="#1D508D"/><path d="M10.998.016c6.076 0 11 4.362 11 10.92 0 6.407-5.55 9.16-8.505 13.256-2.42 3.346-2.495 5.824-2.495 5.824s-.02-2.49-2.494-5.824C5.464 20.095 0 17.532 0 10.935 0 4.375 4.923.015 10.997.015" fill="#C7E6AA"/><path d="M7.398 6.59h2.165v.976H7.398V6.59zm0 6.51h5.057v.97H7.398v-.97zm7.218-1.206l-7.218.005v-.94l7.218-.02v.95zm0-2.168l-7.218.03v-.962l7.218-.006v.938zm-.066-4.543H7.447c-.565 0-1.025.46-1.025 1.03v9.94c0 .57.46 1.03 1.025 1.03h7.103c.566 0 1.027-.46 1.027-1.03v-9.94c0-.57-.46-1.03-1.027-1.03zm0 0" fill="#fff"/></g></svg>