<svg width="32" height="232" viewBox="0 0 32 232" xmlns="http://www.w3.org/2000/svg"><g fill="none"><path d="M22.848 124.7c1.097 0 1.986.906 1.986 2.024v19.555c0 1.11-.89 2.02-1.986 2.02h-13.7c-1.095 0-1.983-.91-1.983-2.02v-19.56c0-1.12.888-2.03 1.984-2.03h13.69zm-13.793 4.69h4.175v-1.925H9.055v1.924zm0 4.305l13.922-.06v-1.848l-13.922.014v1.9zm0 4.216l13.922-.01v-1.86l-13.922.03v1.85zm0 4.27h9.754v-1.91H9.05v1.91zM22.848 123h-13.7c-2.01 0-3.648 1.67-3.648 3.724v19.555c0 2.05 1.637 3.72 3.65 3.72h13.698c2.015 0 3.652-1.67 3.652-3.72v-19.56c0-2.06-1.637-3.73-3.652-3.73zm0 0" fill="#206FAC"/><path d="M22.848 84.7c1.097 0 1.986.906 1.986 2.024v19.555c0 1.11-.89 2.02-1.986 2.02h-13.7c-1.095 0-1.983-.91-1.983-2.02V86.72c0-1.118.888-2.024 1.984-2.024h13.69zM9.055 89.39h4.175v-1.925H9.055v1.924zm0 4.305l13.922-.06v-1.848L9.055 91.8v1.895zm0 4.216l13.922-.01v-1.86l-13.922.03v1.85zm0 4.27h9.754v-1.91H9.05v1.91zM22.848 83h-13.7C7.14 83 5.5 84.67 5.5 86.724v19.555c0 2.05 1.637 3.72 3.65 3.72h13.698c2.015 0 3.652-1.67 3.652-3.72V86.72c0-2.05-1.637-3.72-3.652-3.72zm0 0" fill="#fff"/><path d="M22.848 44.7c1.097 0 1.986.906 1.986 2.024V66.28c0 1.115-.89 2.02-1.986 2.02h-13.7c-1.095 0-1.983-.905-1.983-2.02V46.723c0-1.118.888-2.024 1.984-2.024h13.69zM9.055 49.39h4.175v-1.925H9.055v1.924zm0 4.305l13.922-.06v-1.848L9.055 51.8v1.895zm0 4.216l13.922-.01v-1.86l-13.922.03v1.85zm0 4.27h9.754v-1.91H9.05v1.91zM22.848 43h-13.7C7.14 43 5.5 44.67 5.5 46.724V66.28C5.5 68.33 7.137 70 9.15 70h13.698c2.015 0 3.652-1.668 3.652-3.72V46.723C26.5 44.67 24.863 43 22.848 43zm0 0" fill="#67747C"/><path d="M22.848 4.7c1.097 0 1.986.906 1.986 2.024V26.28c0 1.115-.89 2.02-1.986 2.02h-13.7c-1.095 0-1.983-.905-1.983-2.02V6.723c0-1.118.888-2.024 1.984-2.024h13.69zM9.055 9.39h4.175V7.464H9.055V9.39zm0 4.305l13.922-.06v-1.848L9.055 11.8v1.895zm0 4.216l13.922-.01v-1.86l-13.922.03v1.85zm0 4.27h9.754v-1.91H9.05v1.91zM22.848 3h-13.7C7.14 3 5.5 4.67 5.5 6.724V26.28C5.5 28.33 7.137 30 9.15 30h13.698c2.015 0 3.652-1.668 3.652-3.72V6.723C26.5 4.67 24.863 3 22.848 3zm0 0" fill="#3B444F"/><path d="M22.848 164.7c1.097 0 1.986.906 1.986 2.024v19.555c0 1.11-.89 2.02-1.986 2.02h-13.7c-1.095 0-1.983-.91-1.983-2.02v-19.56c0-1.12.888-2.03 1.984-2.03h13.69zm-13.793 4.69h4.175v-1.925H9.055v1.924zm0 4.305l13.922-.06v-1.848l-13.922.014v1.9zm0 4.216l13.922-.01v-1.86l-13.922.03v1.85zm0 4.27h9.754v-1.91H9.05v1.91zM22.848 163h-13.7c-2.01 0-3.648 1.67-3.648 3.724v19.555c0 2.05 1.637 3.72 3.65 3.72h13.698c2.015 0 3.652-1.67 3.652-3.72v-19.56c0-2.06-1.637-3.73-3.652-3.73zm0 0" fill="#C7E6AA"/></g></svg>