<svg width="32" height="232" viewBox="0 0 32 232" xmlns="http://www.w3.org/2000/svg"><g fill="none"><path d="M15.917 11.617c1.413 0 2.56-1.146 2.56-2.56 0-1.412-1.147-2.557-2.56-2.557-1.414 0-2.56 1.145-2.56 2.558 0 1.413 1.146 2.56 2.56 2.56zm-.628 11.956c-.46-.42-.91-.845-1.35-1.282-.455-.45-.46-.76-.052-1.25.09-.104.182-.21.257-.32.3-.455.197-.96-.254-1.26-.342-.23-.704-.25-1.043-.013-.56.39-1.02.883-1.33 1.495-.167.32-.18.666-.037 1 .086.2.183.405.315.576.65.84 1.35 1.636 2.193 2.288.163.125.34.244.527.32.624.255 1.114-.08 1.12-.8.02-.276-.114-.53-.35-.75zm3.74-4.11c-.42-.328-.905-.29-1.274.065-.366.35-.393.82-.067 1.27.096.133.214.25.313.383.253.34.252.61-.013.94-.11.14-.24.26-.37.387-.364.354-.73.71-1.102 1.057-.227.21-.34.463-.34.75-.074.66.578 1.002 1.126.784.225-.09.442-.234.618-.4.58-.548 1.16-1.1 1.7-1.685.26-.28.454-.622.64-.956.205-.358.198-.742.004-1.108-.306-.58-.716-1.08-1.232-1.483zm3.147-3.322c-.09-.13-.203-.26-.324-.37-.89-.82-1.768-1.653-2.682-2.45-.76-.66-1.632-1.065-2.677-.99-.233.02-.468 0-.702 0v.006c-.247 0-.496.014-.743-.003-1.03-.07-1.896.347-2.63 1.004-.87.78-1.682 1.626-2.504 2.457-.16.16-.292.375-.37.59-.172.48.16.946.668.937.21-.003.44-.073.625-.175.225-.123.413-.314.62-.474.315-.243.614-.512.95-.722.483-.3.782-.153.886.397.01.052.015.107.025.16.126.72.448 1 1.17 1.02.138.004.276 0 .414-.004.495-.012.99-.034 1.486-.034.314 0 .63.05.946.05.638-.005.998-.32 1.105-.946.024-.136.035-.275.067-.408.093-.392.34-.514.71-.347.125.056.245.13.35.216.332.27.645.56.985.818.24.18.496.35.772.458.327.127.69-.023.88-.288.178-.25.177-.597-.022-.89z" fill="#3A434E"/><path d="M15.917 51.617c1.413 0 2.56-1.146 2.56-2.56 0-1.412-1.147-2.557-2.56-2.557-1.414 0-2.56 1.145-2.56 2.558 0 1.413 1.146 2.56 2.56 2.56zm-.628 11.956c-.46-.42-.91-.845-1.35-1.282-.455-.45-.46-.76-.052-1.25.09-.104.182-.21.257-.32.3-.455.197-.96-.254-1.26-.342-.23-.704-.25-1.043-.013-.56.39-1.02.883-1.33 1.495-.167.32-.18.666-.037 1 .086.2.183.405.315.576.65.84 1.35 1.636 2.193 2.288.163.125.34.244.527.32.624.255 1.114-.08 1.12-.8.02-.276-.114-.53-.35-.75zm3.74-4.11c-.42-.328-.905-.29-1.274.065-.366.35-.393.82-.067 1.27.096.133.214.25.313.383.253.34.252.61-.013.94-.11.14-.24.26-.37.387-.364.354-.73.71-1.102 1.057-.227.21-.34.463-.34.75-.074.66.578 1.002 1.126.784.225-.09.442-.234.618-.4.58-.548 1.16-1.1 1.7-1.685.26-.28.454-.622.64-.956.205-.358.198-.742.004-1.108-.306-.58-.716-1.08-1.232-1.483zm3.147-3.322c-.09-.13-.203-.26-.324-.37-.89-.82-1.768-1.653-2.682-2.45-.76-.66-1.632-1.065-2.677-.99-.233.02-.468 0-.702 0v.006c-.247 0-.496.014-.743-.003-1.03-.07-1.896.347-2.63 1.004-.87.78-1.682 1.626-2.504 2.457-.16.16-.292.375-.37.59-.172.48.16.946.668.937.21-.003.44-.073.625-.175.225-.123.413-.314.62-.474.315-.243.614-.512.95-.722.483-.3.782-.153.886.397.01.052.015.107.025.16.126.72.448 1 1.17 1.02.138.004.276 0 .414-.004.495-.012.99-.034 1.486-.034.314 0 .63.05.946.05.638-.005.998-.32 1.105-.946.024-.136.035-.275.067-.408.093-.392.34-.514.71-.347.125.056.245.13.35.216.332.27.645.56.985.818.24.18.496.35.772.458.327.127.69-.023.88-.288.178-.25.177-.597-.022-.89z" fill="#67737B"/><path d="M15.917 91.617c1.413 0 2.56-1.146 2.56-2.56 0-1.412-1.147-2.557-2.56-2.557-1.414 0-2.56 1.145-2.56 2.558 0 1.413 1.146 2.56 2.56 2.56zm-.628 11.956c-.46-.42-.91-.845-1.35-1.282-.455-.45-.46-.76-.052-1.25.09-.104.182-.21.257-.32.3-.455.197-.96-.254-1.26-.342-.23-.704-.25-1.043-.013-.56.39-1.02.883-1.33 1.495-.167.32-.18.666-.037 1 .086.2.183.405.315.576.65.84 1.35 1.636 2.193 2.288.163.125.34.244.527.32.624.255 1.114-.08 1.12-.8.02-.276-.114-.53-.35-.75zm3.74-4.11c-.42-.328-.905-.29-1.274.065-.366.35-.393.82-.067 1.27.096.133.214.25.313.383.253.34.252.61-.013.94-.11.14-.24.26-.37.387-.364.354-.73.71-1.102 1.057-.227.21-.34.463-.34.75-.074.66.578 1.002 1.126.784.225-.09.442-.234.618-.4.58-.548 1.16-1.1 1.7-1.685.26-.28.454-.622.64-.956.205-.358.198-.742.004-1.108-.306-.58-.716-1.08-1.232-1.483zm3.147-3.322c-.09-.13-.203-.26-.324-.37-.89-.82-1.768-1.653-2.682-2.45-.76-.66-1.632-1.065-2.677-.99-.233.02-.468 0-.702 0v.006c-.247 0-.496.014-.743-.003-1.03-.07-1.896.347-2.63 1.004-.87.78-1.682 1.626-2.504 2.457-.16.16-.292.375-.37.59-.172.48.16.946.668.937.21-.003.44-.073.625-.175.225-.123.413-.314.62-.474.315-.243.614-.512.95-.722.483-.3.782-.153.886.397.01.052.015.107.025.16.126.72.448 1 1.17 1.02.138.004.276 0 .414-.004.495-.012.99-.034 1.486-.034.314 0 .63.05.946.05.638-.005.998-.32 1.105-.946.024-.136.035-.275.067-.408.093-.392.34-.514.71-.347.125.056.245.13.35.216.332.27.645.56.985.818.24.18.496.35.772.458.327.127.69-.023.88-.288.178-.25.177-.597-.022-.89z" fill="#fff"/><path d="M15.917 131.617c1.413 0 2.56-1.146 2.56-2.56 0-1.412-1.147-2.557-2.56-2.557-1.414 0-2.56 1.145-2.56 2.558 0 1.413 1.146 2.56 2.56 2.56zm-.628 11.956c-.46-.42-.91-.845-1.35-1.282-.455-.45-.46-.76-.052-1.25.09-.104.182-.21.257-.32.3-.455.197-.96-.254-1.26-.342-.23-.704-.25-1.043-.013-.56.39-1.02.883-1.33 1.495-.167.32-.18.666-.037 1 .086.2.183.405.315.576.65.84 1.35 1.636 2.193 2.288.163.125.34.244.527.32.624.255 1.114-.08 1.12-.8.02-.276-.114-.53-.35-.75zm3.74-4.11c-.42-.328-.905-.29-1.274.065-.366.35-.393.82-.067 1.27.096.133.214.25.313.383.253.34.252.61-.013.94-.11.14-.24.26-.37.387-.364.354-.73.71-1.102 1.057-.227.21-.34.463-.34.75-.074.66.578 1.002 1.126.784.225-.09.442-.234.618-.4.58-.548 1.16-1.1 1.7-1.685.26-.28.454-.622.64-.956.205-.358.198-.742.004-1.108-.306-.58-.716-1.08-1.232-1.483zm3.147-3.322c-.09-.13-.203-.26-.324-.37-.89-.82-1.768-1.653-2.682-2.45-.76-.66-1.632-1.065-2.677-.99-.233.02-.468 0-.702 0v.006c-.247 0-.496.014-.743-.003-1.03-.07-1.896.347-2.63 1.004-.87.78-1.682 1.626-2.504 2.457-.16.16-.292.375-.37.59-.172.48.16.946.668.937.21-.003.44-.073.625-.175.225-.123.413-.314.62-.474.315-.243.614-.512.95-.722.483-.3.782-.153.886.397.01.052.015.107.025.16.126.72.448 1 1.17 1.02.138.004.276 0 .414-.004.495-.012.99-.034 1.486-.034.314 0 .63.05.946.05.638-.005.998-.32 1.105-.946.024-.136.035-.275.067-.408.093-.392.34-.514.71-.347.125.056.245.13.35.216.332.27.645.56.985.818.24.18.496.35.772.458.327.127.69-.023.88-.288.178-.25.177-.597-.022-.89z" fill="#206FAC"/></g></svg>