<svg width="22" height="32" viewBox="0 0 22 32" xmlns="http://www.w3.org/2000/svg"><g fill="none"><path d="M15.497 29.984c0 1.105-2.016 2-4.5 2-2.486 0-4.5-.895-4.5-2 0-1.104 2.014-2 4.5-2 2.484 0 4.5.896 4.5 2" fill-opacity=".2" fill="#1D508D"/><path d="M10.996.016c6.076 0 11 4.362 11 10.92 0 6.407-5.55 9.16-8.505 13.256-2.41 3.346-2.49 5.824-2.49 5.824s-.01-2.49-2.49-5.824C5.47 20.095 0 17.532 0 10.935 0 4.375 4.923.015 11 .015" fill="#841E1B"/><path d="M13.352 16.505c-.243-.06-.91-.252-1.126-.432-.232-.19-.414-.995-.465-1.454l-.03-.21-.01-.08v-.14l-.04-.13-.12-.05-.17.01c-.18.02-.36.04-.57.03l-.25-.02-.11-.01c-.05-.03-.1-.02-.15.01-.04.03-.07.07-.07.13l-.03.52c-.04.47-.2 1.28-.45 1.46-.36.26-1.04.33-1.05.33-.32.03-.58.32-.58.64v.04c0 .33.27.6.6.6h4.61c.33 0 .6-.27.6-.6v-.04c0-.31-.23-.57-.54-.64m.72-11.92h-6C5.69 7.1 5.19 13 11.03 13s5.164-5.47 3.05-8.422M8.03 7.3c.16-.462.384-.954.687-1.476l.03-.09h4.533l.032.098c.303.524.52 1.016.677 1.478H8.03" fill="#fff"/></g></svg>