<svg width="32" height="232" viewBox="0 0 32 232" xmlns="http://www.w3.org/2000/svg"><g fill="none"><path d="M21.232 187.387c-.495-.116-1.862-.514-2.297-.88-.477-.393-.847-2.038-.955-2.98l-.07-.41-.018-.168v-.29c.002-.1-.032-.19-.092-.25-.074-.08-.154-.1-.258-.1l-.353.03c-.39.04-.76.09-1.18.07l-.51-.03-.23-.02c-.1-.06-.21-.05-.31.01-.09.05-.16.15-.16.27 0 .1-.04.57-.07 1.05-.09.95-.42 2.62-.94 2.99-.75.53-2.13.68-2.15.68-.65.06-1.19.66-1.19 1.31v.08c0 .67.54 1.22 1.23 1.22h9.42c.67 0 1.21-.55 1.21-1.22v-.08c0-.63-.48-1.18-1.12-1.32M22.71 163H10.5c-4.963 5.16-5.98 17.23 5.98 17.23 11.95 0 10.56-11.186 6.23-17.23m-12.37 5.553c.324-.944.786-1.952 1.4-3.02l.063-.196h9.28l.07.196c.62 1.068 1.067 2.076 1.38 3.02H10.34" fill="#831D1B"/><path d="M21.232 147.387c-.495-.116-1.862-.514-2.297-.88-.477-.393-.847-2.038-.955-2.98l-.07-.41-.018-.168v-.29c.002-.1-.032-.19-.092-.25-.074-.08-.154-.1-.258-.1l-.353.03c-.39.04-.76.09-1.18.07l-.51-.03-.23-.02c-.1-.06-.21-.05-.31.01-.09.05-.16.15-.16.27 0 .1-.04.57-.07 1.05-.09.95-.42 2.62-.94 2.99-.75.53-2.13.68-2.15.68-.65.06-1.19.66-1.19 1.31v.08c0 .67.54 1.22 1.23 1.22h9.42c.67 0 1.21-.55 1.21-1.22v-.08c0-.63-.48-1.18-1.12-1.32M22.71 123H10.5c-4.963 5.16-5.98 17.23 5.98 17.23 11.95 0 10.56-11.186 6.23-17.23m-12.37 5.553c.324-.944.786-1.952 1.4-3.02l.063-.196h9.28l.07.196c.62 1.068 1.067 2.076 1.38 3.02H10.34" fill="#206FAC"/><path d="M21.232 107.387c-.495-.116-1.862-.514-2.297-.88-.477-.393-.847-2.038-.955-2.98l-.07-.41-.018-.168v-.29c.002-.1-.032-.19-.092-.25-.074-.08-.154-.1-.258-.1l-.353.03c-.39.04-.76.09-1.18.07l-.51-.03-.23-.02c-.1-.06-.21-.05-.31.01-.09.05-.16.15-.16.27 0 .1-.04.57-.07 1.05-.09.95-.42 2.62-.94 2.99-.75.53-2.13.68-2.15.68-.65.06-1.19.66-1.19 1.31v.08c0 .67.54 1.22 1.23 1.22h9.42c.67 0 1.21-.55 1.21-1.22v-.08c0-.63-.48-1.18-1.12-1.32M22.71 83H10.5c-4.963 5.16-5.98 17.23 5.98 17.23 11.95 0 10.56-11.186 6.23-17.23m-12.37 5.553c.324-.944.786-1.952 1.4-3.02l.063-.196h9.28l.07.196c.62 1.068 1.067 2.076 1.38 3.02H10.34" fill="#fff"/><path d="M21.232 67.387c-.495-.116-1.862-.514-2.297-.88-.477-.393-.847-2.038-.955-2.98l-.07-.41-.018-.168v-.29c.002-.1-.032-.19-.092-.25-.074-.08-.154-.1-.258-.1l-.353.03c-.39.04-.76.09-1.18.07l-.51-.03-.23-.02c-.1-.06-.21-.05-.31.01-.09.05-.16.15-.16.27 0 .1-.04.57-.07 1.05-.09.95-.42 2.62-.94 2.99-.75.53-2.13.68-2.15.68-.65.06-1.19.66-1.19 1.31v.08c0 .67.54 1.22 1.23 1.22h9.42c.67 0 1.21-.55 1.21-1.22v-.08c0-.63-.48-1.18-1.12-1.32M22.71 43H10.5c-4.963 5.16-5.98 17.23 5.98 17.23 11.95 0 10.56-11.186 6.23-17.23m-12.37 5.553c.324-.944.786-1.952 1.4-3.02l.063-.196h9.28l.07.196c.62 1.068 1.067 2.076 1.38 3.02H10.34" fill="#67747C"/><path d="M21.232 27.387c-.495-.116-1.862-.514-2.297-.88-.477-.393-.847-2.038-.955-2.98l-.07-.41-.018-.168v-.29c.002-.1-.032-.19-.092-.25-.074-.08-.154-.1-.258-.1l-.353.03c-.39.04-.76.09-1.18.07l-.51-.03-.23-.02c-.1-.06-.21-.05-.31.01-.09.05-.16.15-.16.27 0 .1-.04.57-.07 1.05-.09.95-.42 2.62-.94 2.99-.75.53-2.13.68-2.15.68-.65.06-1.19.66-1.19 1.31v.08c0 .67.54 1.22 1.23 1.22h9.42c.67 0 1.21-.55 1.21-1.22v-.08c0-.63-.48-1.18-1.12-1.32M22.71 3H10.5c-4.963 5.16-5.98 17.23 5.98 17.23 11.95 0 10.56-11.186 6.23-17.23M10.34 8.553c.324-.944.786-1.952 1.4-3.02l.063-.196h9.276l.07.196c.61 1.068 1.06 2.076 1.38 3.02h-12.2" fill="#3B444F"/></g></svg>