<svg width="32" height="232" viewBox="0 0 32 232" xmlns="http://www.w3.org/2000/svg"><g fill="none"><g fill="#3A434E"><path d="M28.543 5.6l-.81 2.392.178-.007-.043 11.674-.656-.008-.02 4.188.657.004-.002.663h.2l-.006 1.64.85.002.004-1.64h.2l.07-16.577.183-.007-.802-2.33"/><path d="M23.358-.013H3.125c-.345 0-.625.278-.625.62v30.537c0 .343.28.62.625.62h15.7v-.023c.054.02.108.028.162.028.163 0 .323-.063.442-.18l4.37-4.337c.16-.16.214-.39.16-.6h.02V.608c0-.343-.28-.62-.626-.62zm-6.245 29.66v-2.22h2.236l-2.24 2.22zm-.625-3.46c-.346 0-.625.278-.625.62v3.717H1.25V1.228h18.983v24.96h-3.745zM7.138 9.228l-.517-.513-.88.878.96.95c.12.122.28.182.44.182.16 0 .32-.06.444-.18L9.234 8.9l-.883-.877-1.21 1.203"/><path d="M11.19 8.883h9.274v1.24H11.19v-1.24zM7.138 4.908l-.517-.513-.88.877.96.95c.12.122.28.183.44.183.16 0 .32-.06.444-.182l1.655-1.64-.885-.878-1.21 1.203"/><path d="M11.19 4.563h9.274v1.24H11.19v-1.24zM7.138 13.55l-.517-.514-.88.877.96.95c.117.117.276.183.44.183.168 0 .327-.066.444-.182l1.655-1.64-.885-.878-1.21 1.203"/><path d="M11.19 13.204h9.274v1.24H11.19v-1.24zM7.138 17.87l-.517-.513-.88.877.96.95c.12.122.28.182.44.182.16 0 .32-.06.444-.18l1.655-1.643-.885-.877-1.21 1.203"/><path d="M11.19 17.525h9.274v1.24H11.19v-1.24zM11.19 21.89h9.274v1.24H11.19v-1.24zM7.138 22.19l-.517-.513-.88.877.96.95c.117.118.276.183.44.183.168 0 .327-.065.444-.182l1.655-1.64-.885-.878-1.21 1.203"/><path d="M11.19 26.166h5.262v1.24H11.19v-1.24z"/></g><g fill="#67737B"><path d="M28.543 45.6l-.81 2.392.178-.007-.043 11.674-.656-.008-.02 4.188.657.004-.002.663h.2l-.006 1.64.85.002.004-1.64h.2l.07-16.577.183-.007-.802-2.33M23.358 39.987H3.125c-.345 0-.625.278-.625.62v30.537c0 .343.28.62.625.62h15.7v-.023c.054.02.108.028.162.028.163 0 .323-.063.442-.18l4.37-4.337c.16-.16.214-.39.16-.6h.02V40.61c0-.343-.28-.62-.626-.62zm-6.245-10.34v-2.22h2.236l-2.24 2.22zm-.625-3.46c-.346 0-.625.278-.625.62v3.717H1.25V1.228h18.983v24.96h-3.745zm-9.35 23.04l-.517-.512-.88.878.96.95c.12.122.28.182.44.182.16 0 .32-.06.444-.18l1.65-1.645-.883-.877-1.21 1.203M11.19 48.883h9.274v1.24H11.19v-1.24zm-4.052-3.975l-.517-.513-.88.877.96.95c.12.122.28.183.44.183.16 0 .32-.06.444-.182l1.655-1.64-.885-.878-1.21 1.203M11.19 44.563h9.274v1.24H11.19v-1.24zM7.138 53.55l-.517-.514-.88.877.96.95c.117.117.276.183.44.183.168 0 .327-.066.444-.182l1.655-1.64-.885-.878-1.21 1.203M11.19 53.204h9.274v1.24H11.19v-1.24zM7.138 57.87l-.517-.513-.88.877.96.95c.12.122.28.182.44.182.16 0 .32-.06.444-.18l1.655-1.643-.885-.877-1.21 1.203M11.19 57.525h9.274v1.24H11.19v-1.24zm0 4.365h9.274v1.24H11.19v-1.24zm-4.052.3l-.517-.513-.88.877.96.95c.117.118.276.183.44.183.168 0 .327-.065.444-.182l1.655-1.64-.885-.878-1.21 1.203"/><path d="M11.19 66.166h5.262v1.24H11.19v-1.24z"/></g><g fill="#fff"><path d="M28.543 85.6l-.81 2.392.178-.007-.043 11.674-.656-.008-.02 4.188.657.004-.002.663h.2l-.006 1.64.85.002.004-1.64h.2l.07-16.577.183-.007-.802-2.33m-5.187-5.61H3.125c-.345 0-.625.28-.625.62v30.538c0 .343.28.62.625.62h15.7v-.023c.054.02.108.028.162.028.163 0 .323-.063.442-.18l4.37-4.337c.16-.16.214-.39.16-.6h.02V80.61c0-.343-.28-.62-.626-.62zm-6.245-50.34v-2.22h2.236l-2.24 2.22zm-.625-3.46c-.346 0-.625.28-.625.62v3.718H1.25V1.228h18.983v24.96h-3.745zm-9.35 63.04l-.517-.51-.88.877.96.95c.12.122.28.182.44.182.16 0 .32-.06.444-.18l1.65-1.645-.883-.877-1.21 1.203m4.05-.343h9.274v1.24H11.19v-1.24zm-4.052-3.975l-.517-.513-.88.877.96.95c.12.122.28.183.44.183.16 0 .32-.06.444-.182l1.655-1.64-.885-.878-1.21 1.203m4.045-.345h9.274v1.24H11.19v-1.24zM7.138 93.55l-.517-.514-.88.877.96.95c.117.117.276.183.44.183.168 0 .327-.066.444-.182l1.655-1.64-.885-.878-1.21 1.203m4.045-.346h9.274v1.24H11.19v-1.24zM7.138 97.87l-.517-.513-.88.877.96.95c.12.122.28.182.44.182.16 0 .32-.06.444-.18l1.655-1.643-.885-.877-1.21 1.203m4.045-.345h9.274v1.24H11.19v-1.24zm0 4.365h9.274v1.24H11.19v-1.24zm-4.052.3l-.517-.513-.88.877.96.95c.117.118.276.183.44.183.168 0 .327-.065.444-.182l1.655-1.64-.885-.878-1.21 1.203"/><path d="M11.19 106.166h5.262v1.24H11.19v-1.24z"/></g><g fill="#206FAC"><path d="M28.543 125.6l-.81 2.392.178-.007-.043 11.674-.656-.008-.02 4.188.657.004-.002.663h.2l-.006 1.64.85.002.004-1.64h.2l.07-16.577.183-.007-.802-2.33m-5.186-5.61H3.124c-.345 0-.625.278-.625.62v30.537c0 .343.28.62.625.62h15.7v-.023c.054.018.108.027.162.027.163 0 .323-.063.442-.18l4.37-4.337c.16-.16.214-.39.16-.6h.02v-26.04c0-.343-.28-.62-.626-.62zm-6.246-90.34v-2.22h2.236l-2.24 2.22zm-.625-3.46c-.347 0-.626.278-.626.62v3.717H1.25V1.228h18.983v24.96h-3.745zm-9.35 103.04l-.518-.512-.88.878.96.95c.12.122.28.182.44.182.16 0 .32-.06.443-.18L9.24 128.9l-.884-.876-1.21 1.203m4.046-.345h9.274v1.24H11.19v-1.24zm-4.052-3.975l-.517-.513-.88.877.96.95c.12.123.28.184.44.184.16 0 .32-.06.443-.182l1.655-1.64-.883-.878-1.21 1.203m4.046-.345h9.274v1.24H11.19v-1.24zM7.14 133.55l-.516-.515-.88.877.96.95c.116.117.275.183.44.183.167 0 .326-.066.443-.182l1.655-1.64-.884-.878-1.21 1.203m4.046-.346h9.274v1.24H11.19v-1.24zm-4.052 4.666l-.517-.513-.88.877.96.95c.12.122.28.182.44.182.16 0 .32-.06.443-.18l1.655-1.643-.884-.876-1.21 1.203m4.045-.345h9.274v1.24h-9.28v-1.24zm0 4.365h9.274v1.24h-9.28v-1.24zm-4.052.3l-.517-.513-.88.877.96.95c.116.12.275.184.44.184.167 0 .326-.065.443-.182l1.654-1.64-.884-.878-1.21 1.203"/><path d="M11.19 146.166h5.262v1.24H11.19v-1.24z"/></g></g></svg>