<svg width="32" height="232" viewBox="0 0 32 232" xmlns="http://www.w3.org/2000/svg"><g fill="none"><path d="M24.838 127.66c-2.44-2.44-5.64-3.66-8.838-3.66-3.2 0-6.4 1.22-8.84 3.66-4.88 4.883-4.88 12.797 0 17.678C9.6 147.78 12.8 149 16 149s6.397-1.22 8.838-3.662c4.88-4.88 4.88-12.797 0-17.678zM7.893 136.5c0-2.166.844-4.2 2.373-5.732 1.532-1.53 3.568-2.375 5.734-2.375 1.384 0 2.71.347 3.89.996l-11.002 11c-.647-1.18-.995-2.51-.995-3.89zm13.837 5.733c-1.53 1.53-3.565 2.373-5.73 2.373-1.384 0-2.71-.348-3.89-.994l11.002-11c.646 1.177.994 2.506.994 3.888 0 2.166-.846 4.202-2.376 5.733zm0 0" fill="#206FAC"/><path d="M24.838 87.66C22.398 85.22 19.198 84 16 84c-3.2 0-6.4 1.22-8.84 3.66-4.88 4.883-4.88 12.797 0 17.678C9.6 107.78 12.8 109 16 109s6.397-1.22 8.838-3.662c4.88-4.88 4.88-12.797 0-17.678zM7.893 96.5c0-2.166.844-4.2 2.373-5.732 1.532-1.53 3.568-2.375 5.734-2.375 1.384 0 2.71.347 3.89.996l-11.002 11c-.647-1.18-.995-2.51-.995-3.89zm13.837 5.733c-1.53 1.53-3.565 2.373-5.73 2.373-1.384 0-2.71-.348-3.89-.994l11.002-11c.646 1.177.994 2.506.994 3.888 0 2.166-.846 4.202-2.376 5.733zm0 0" fill="#fff"/><path d="M24.838 47.66C22.398 45.22 19.198 44 16 44c-3.2 0-6.4 1.22-8.84 3.66-4.88 4.883-4.88 12.797 0 17.678C9.6 67.78 12.8 69 16 69s6.397-1.22 8.838-3.662c4.88-4.88 4.88-12.797 0-17.678zM7.893 56.5c0-2.166.844-4.2 2.373-5.732 1.532-1.53 3.568-2.375 5.734-2.375 1.384 0 2.71.347 3.89.996l-11.002 11c-.647-1.18-.995-2.51-.995-3.89zm13.837 5.733c-1.53 1.53-3.565 2.373-5.73 2.373-1.384 0-2.71-.348-3.89-.994l11.002-11c.646 1.177.994 2.506.994 3.888 0 2.166-.846 4.202-2.376 5.733zm0 0" fill="#67737B"/><path d="M24.838 7.66C22.398 5.22 19.198 4 16 4c-3.2 0-6.4 1.22-8.84 3.66-4.88 4.883-4.88 12.797 0 17.678C9.6 27.78 12.8 29 16 29s6.397-1.22 8.838-3.662c4.88-4.88 4.88-12.797 0-17.678zM7.893 16.5c0-2.166.844-4.2 2.373-5.732 1.532-1.53 3.568-2.375 5.734-2.375 1.384 0 2.71.347 3.89.996l-11.002 11c-.647-1.18-.995-2.51-.995-3.89zm13.837 5.733c-1.53 1.53-3.565 2.373-5.73 2.373-1.384 0-2.71-.348-3.89-.994l11.002-11c.646 1.177.994 2.506.994 3.888 0 2.166-.846 4.202-2.376 5.733zm0 0" fill="#3A434E"/></g></svg>