<svg width="32" height="232" viewBox="0 0 32 232" xmlns="http://www.w3.org/2000/svg"><g fill="none"><path d="M26.54 141.72c0 4-2.12 7.28-10.12 7.28H5.5v-25h10.84c7.44 0 9.44 2.84 9.44 6.52 0 2.84-1.758 4.6-4.64 5.4 3.2.6 5.4 2.72 5.4 5.8zm-10.8-12.96h-4.08v5.76h3.76c2.64 0 4-1.08 4-2.96 0-1.84-1.28-2.8-3.68-2.8zm0 9.72h-4.08v5.76h4.28c2.88 0 4.2-.92 4.2-2.88 0-2.12-1.718-2.88-4.4-2.88zm0 0" fill="#206FAC"/><path d="M26.54 101.72c0 4-2.12 7.28-10.12 7.28H5.5V84h10.84c7.44 0 9.44 2.84 9.44 6.52 0 2.84-1.758 4.6-4.64 5.4 3.2.6 5.4 2.72 5.4 5.8zm-10.8-12.96h-4.08v5.76h3.76c2.64 0 4-1.08 4-2.96 0-1.84-1.28-2.8-3.68-2.8zm0 9.72h-4.08v5.76h4.28c2.88 0 4.2-.92 4.2-2.88 0-2.12-1.718-2.88-4.4-2.88zm0 0" fill="#fff"/><path d="M26.54 61.72c0 4-2.12 7.28-10.12 7.28H5.5V44h10.84c7.44 0 9.44 2.84 9.44 6.52 0 2.84-1.758 4.6-4.64 5.4 3.2.6 5.4 2.72 5.4 5.8zm-10.8-12.96h-4.08v5.76h3.76c2.64 0 4-1.08 4-2.96 0-1.84-1.28-2.8-3.68-2.8zm0 9.72h-4.08v5.76h4.28c2.88 0 4.2-.92 4.2-2.88 0-2.12-1.718-2.88-4.4-2.88zm0 0" fill="#67737B"/><path d="M26.54 21.72c0 4-2.12 7.28-10.12 7.28H5.5V4h10.84c7.44 0 9.44 2.84 9.44 6.52 0 2.84-1.758 4.6-4.64 5.4 3.2.6 5.4 2.72 5.4 5.8zM15.74 8.76h-4.08v5.76h3.76c2.64 0 4-1.08 4-2.96 0-1.84-1.28-2.8-3.68-2.8zm0 9.72h-4.08v5.76h4.28c2.88 0 4.2-.92 4.2-2.88 0-2.12-1.718-2.88-4.4-2.88zm0 0" fill="#3A434E"/></g></svg>