<svg width="32" height="232" viewBox="0 0 32 232" xmlns="http://www.w3.org/2000/svg"><g fill="none"><path d="M28.21 9.577c.66-.816.557-1.423.426-1.722-.146-.32-.57-.855-1.8-.855H16.063c-1.62 0-3.736.93-4.817 2.12l-6.76 7.42-.262.327c-.76.865-1.24 1.98-1.24 3.21 0 2.718 2.24 4.924 4.993 4.924h8.532c1.56 0 3.96-.11 5.05-1.3l6.75-7.42c.7-.76.86-1.56.44-2.09-.02-.02-1.31-2.62-.55-4.61zM6.265 19.282H16.51c1.614 0 3.727-.93 4.812-2.12l5.23-5.725c-.227.492-.148 1.072-.14 1.072.163.82.506 2.06.688 2.4l-.133.16-6.756 7.42c-.74.82-2.64.71-3.7.71H7.98c-1.75 0-3.173-1.41-3.173-3.14l.004-.22.08-.58h1.38zm0 0" fill="#3B444F"/><path d="M28.21 49.57c.66-.815.557-1.422.426-1.72-.146-.32-.57-.856-1.8-.856H16.063c-1.62 0-3.736.93-4.817 2.12l-6.76 7.42-.262.327c-.76.87-1.24 1.98-1.24 3.21 0 2.72 2.24 4.93 4.993 4.93h8.532c1.56 0 3.96-.11 5.05-1.3l6.75-7.42c.7-.76.86-1.56.44-2.09-.02-.02-1.31-2.61-.55-4.6zM6.265 59.277H16.51c1.614 0 3.727-.93 4.812-2.12l5.23-5.725c-.227.493-.148 1.073-.14 1.073.163.825.506 2.064.688 2.4l-.133.164-6.756 7.42c-.74.82-2.64.71-3.7.71H7.98c-1.75 0-3.173-1.41-3.173-3.14l.004-.22.08-.58h1.38zm0 0" fill="#67737B"/><path d="M28.21 89.57c.66-.815.557-1.422.426-1.72-.146-.32-.57-.856-1.8-.856H16.063c-1.62 0-3.736.93-4.817 2.12l-6.76 7.42-.262.327c-.76.87-1.24 1.98-1.24 3.21 0 2.72 2.24 4.93 4.993 4.93h8.532c1.56 0 3.96-.11 5.05-1.3l6.75-7.42c.7-.76.86-1.56.44-2.09-.02-.02-1.31-2.61-.55-4.6zM6.265 99.277H16.51c1.614 0 3.727-.93 4.812-2.12l5.23-5.725c-.227.493-.148 1.073-.14 1.073.163.825.506 2.064.688 2.4l-.133.164-6.756 7.42c-.74.82-2.64.71-3.7.71H7.98c-1.75 0-3.173-1.41-3.173-3.14l.004-.22.08-.58h1.38zm0 0" fill="#fff"/><path d="M28.21 129.57c.66-.815.557-1.422.426-1.72-.146-.32-.57-.856-1.8-.856H16.063c-1.62 0-3.736.93-4.817 2.12l-6.76 7.42-.262.327c-.76.87-1.24 1.98-1.24 3.21 0 2.72 2.24 4.93 4.993 4.93h8.532c1.56 0 3.96-.11 5.05-1.3l6.75-7.42c.7-.76.86-1.56.44-2.09-.02-.02-1.31-2.61-.55-4.6zm-21.946 9.706h10.244c1.615 0 3.728-.93 4.813-2.12l5.23-5.725c-.22.5-.14 1.08-.14 1.08.17.83.51 2.07.69 2.4l-.13.17-6.75 7.42c-.74.83-2.64.72-3.7.72H7.98c-1.75 0-3.173-1.4-3.173-3.13l.004-.22.08-.57h1.38zm0 0" fill="#206FAC"/></g></svg>