<svg width="33" height="232" viewBox="0 0 33 232" xmlns="http://www.w3.org/2000/svg"><g fill="none"><path d="M21.662 11.84c.89 0 1.612-.718 1.612-1.605v-4.53c0-.887-.722-1.605-1.612-1.605-.892 0-1.614.718-1.614 1.604v4.53c0 .888.722 1.606 1.614 1.606m6.165-2.526l-.212-.21c-.82-.763-1.92-1.23-3.132-1.23h-.323v2.36c0 1.37-1.122 2.486-2.497 2.486-1.38 0-2.5-1.114-2.5-2.485V7.873h-5.966v2.362c0 1.37-1.12 2.485-2.495 2.485-1.376 0-2.496-1.114-2.496-2.485v-2.36C5.72 7.93 3.713 9.96 3.713 12.447v12.448c0 2.52 2.062 4.573 4.597 4.573h16.173c2.534 0 4.596-2.05 4.596-4.573V12.447c0-1.212-.48-2.313-1.26-3.133zM16.344 23.08l-1.194 1.19-1.194-1.193-3.283-3.285 1.194-1.194 3.283 3.284 6.12-6.12 1.193 1.194-6.12 6.12zM10.7 11.84c.892 0 1.614-.718 1.614-1.605v-4.53c0-.887-.722-1.605-1.613-1.605-.89 0-1.61.718-1.61 1.604v4.53c0 .888.72 1.606 1.61 1.606" fill="#373D43"/><path d="M21.663 51.84c.89 0 1.612-.718 1.612-1.605v-4.53c0-.887-.722-1.605-1.612-1.605-.892 0-1.614.718-1.614 1.604v4.53c0 .888.72 1.606 1.61 1.606m6.16-2.526l-.21-.21c-.82-.763-1.92-1.23-3.13-1.23h-.33v2.36c0 1.37-1.12 2.486-2.5 2.486s-2.5-1.114-2.5-2.485v-2.362H13.2v2.362c0 1.37-1.12 2.485-2.495 2.485-1.376 0-2.496-1.114-2.496-2.485v-2.36c-2.49.054-4.5 2.084-4.5 4.572v12.448c0 2.52 2.06 4.573 4.59 4.573h16.18c2.53 0 4.59-2.05 4.59-4.573V52.447c0-1.212-.48-2.313-1.25-3.133zM16.34 63.08l-1.192 1.19-1.192-1.193-3.283-3.285 1.194-1.194 3.28 3.284 6.12-6.12 1.2 1.194-6.12 6.12zM10.7 51.84c.89 0 1.613-.718 1.613-1.605v-4.53c0-.887-.722-1.605-1.613-1.605-.89 0-1.612.718-1.612 1.604v4.53c0 .888.722 1.606 1.612 1.606" fill="#67737B"/><path d="M21.663 90.84c.89 0 1.612-.718 1.612-1.605v-4.53c0-.887-.722-1.605-1.612-1.605-.892 0-1.614.718-1.614 1.604v4.53c0 .888.72 1.606 1.61 1.606m6.16-2.526l-.21-.21c-.82-.763-1.92-1.23-3.13-1.23h-.33v2.36c0 1.37-1.12 2.486-2.5 2.486s-2.5-1.114-2.5-2.485v-2.362H13.2v2.362c0 1.37-1.12 2.485-2.495 2.485-1.376 0-2.496-1.114-2.496-2.485v-2.36c-2.49.054-4.5 2.084-4.5 4.572v12.448c0 2.52 2.06 4.573 4.59 4.573h16.18c2.53 0 4.59-2.05 4.59-4.573V91.447c0-1.212-.48-2.313-1.25-3.133zM16.34 102.08l-1.194 1.192-1.19-1.193-3.285-3.29 1.2-1.19 3.28 3.28 6.12-6.12 1.2 1.19-6.12 6.12zM10.7 90.84c.89 0 1.613-.718 1.613-1.605v-4.53c0-.887-.722-1.605-1.613-1.605-.89 0-1.612.718-1.612 1.604v4.53c0 .888.722 1.606 1.612 1.606" fill="#fff"/><path d="M21.663 130.84c.89 0 1.612-.718 1.612-1.605v-4.53c0-.887-.722-1.605-1.612-1.605-.892 0-1.614.718-1.614 1.604v4.53c0 .888.72 1.606 1.61 1.606m6.16-2.526l-.21-.21c-.82-.763-1.92-1.23-3.13-1.23h-.33v2.36c0 1.37-1.12 2.486-2.5 2.486s-2.5-1.114-2.5-2.485v-2.362H13.2v2.362c0 1.37-1.12 2.485-2.495 2.485-1.376 0-2.496-1.114-2.496-2.485v-2.36c-2.49.054-4.5 2.084-4.5 4.572v12.448c0 2.52 2.06 4.573 4.59 4.573h16.18c2.53 0 4.59-2.05 4.59-4.573v-12.448c0-1.212-.48-2.313-1.25-3.133zM16.34 142.08l-1.194 1.192-1.19-1.193-3.285-3.29 1.2-1.2 3.28 3.28 6.12-6.12 1.2 1.19-6.12 6.12zm-5.64-11.24c.89 0 1.613-.718 1.613-1.605v-4.53c0-.887-.722-1.605-1.613-1.605-.89 0-1.612.718-1.612 1.604v4.53c0 .888.722 1.606 1.612 1.606" fill="#206FAC"/></g></svg>