<svg width="32" height="232" viewBox="0 0 32 232" xmlns="http://www.w3.org/2000/svg"><g fill="none"><path d="M22.684 149c.775 0 1.408-.63 1.408-1.408 0-.783-.633-1.414-1.408-1.414H6.27c-.78 0-1.412.63-1.412 1.414 0 .777.63 1.408 1.412 1.408h16.414zm-5.633-25.866c-.7.844-1.2 2.12-.72 3.187.42.93 1.54 1.34 1.33 2.51-.09.55-.45.9-.66 1.38-.2.47.48.87.69.4.18-.4.47-.74.63-1.16.27-.68.22-1.41-.12-2.06-.2-.38-.57-.64-.87-.94-.35-.37-.43-.91-.34-1.4.09-.46.38-1 .65-1.33.33-.39-.23-.96-.56-.56zm-3.56 0c-.7.844-1.2 2.12-.72 3.187.42.93 1.54 1.34 1.34 2.51-.09.55-.45.9-.67 1.38-.2.47.48.87.69.4.18-.4.47-.74.63-1.16.27-.68.22-1.41-.12-2.06-.2-.38-.57-.64-.87-.94-.35-.37-.43-.91-.34-1.4.09-.46.37-1 .64-1.33.33-.39-.23-.96-.56-.56zm-3.59 0c-.7.844-1.2 2.12-.73 3.187.42.93 1.54 1.34 1.34 2.51-.09.55-.45.9-.66 1.38-.2.47.48.87.69.4.18-.4.47-.74.63-1.16.27-.68.22-1.41-.12-2.06-.2-.38-.57-.64-.86-.94-.36-.37-.43-.91-.34-1.4.09-.46.37-1 .65-1.33.33-.39-.23-.96-.56-.56zm15.55 11.347c-.23 0-.44.03-.66.07l.02-.37v-.12c0-.55-.45-1-1-1H4.01c-.558 0-1.01.46-1.01 1.01v.12c0 .56.094 1.46.21 2l3.802 7.67c.37.42 1.13.76 1.68.76h10.412c.553 0 1.305-.34 1.68-.75l1.834-3.69c.646.87 1.668 1.43 2.828 1.43 1.96 0 3.552-1.59 3.552-3.55 0-1.95-1.593-3.54-3.552-3.54zm0 5.57c-1.11 0-2.02-.9-2.02-2.02s.91-2.03 2.02-2.03c1.12 0 2.03.91 2.03 2.03 0 1.12-.9 2.02-2.02 2.02zm0 0" fill="#206FAC"/><path d="M22.684 109c.775 0 1.408-.63 1.408-1.408 0-.783-.633-1.414-1.408-1.414H6.27c-.78 0-1.412.63-1.412 1.414 0 .777.63 1.408 1.412 1.408h16.414zM17.05 83.134c-.706.844-1.204 2.12-.727 3.187.414.93 1.535 1.34 1.332 2.51-.094.55-.45.9-.666 1.38-.21.47.47.87.68.4.18-.4.46-.74.63-1.16.27-.68.22-1.41-.12-2.06-.21-.38-.58-.64-.87-.94-.36-.37-.44-.91-.35-1.4.08-.46.37-1 .64-1.33.33-.39-.23-.96-.57-.56zm-3.563 0c-.705.844-1.203 2.12-.727 3.187.414.93 1.533 1.34 1.334 2.51-.096.55-.455.9-.67 1.38-.207.47.48.87.69.4.18-.4.465-.74.63-1.16.27-.68.22-1.41-.12-2.06-.204-.38-.575-.64-.868-.94-.357-.37-.435-.91-.347-1.4.08-.46.36-1 .64-1.33.33-.39-.23-.96-.57-.56zm-3.59 0c-.707.844-1.205 2.12-.73 3.187.413.93 1.534 1.34 1.333 2.51-.095.55-.453.9-.668 1.38-.207.47.48.87.69.4.18-.4.465-.74.63-1.16.268-.68.217-1.41-.122-2.06-.2-.38-.573-.64-.866-.94-.36-.37-.435-.91-.347-1.4.084-.46.367-1 .642-1.33.32-.39-.24-.96-.57-.56zm15.55 11.347c-.228 0-.447.03-.665.07l.015-.37v-.12c0-.55-.453-1-1.006-1H4.01c-.558 0-1.01.46-1.01 1.01v.12c0 .56.094 1.46.21 2l3.802 7.67c.37.42 1.13.76 1.68.76h10.412c.553 0 1.305-.34 1.68-.75l1.834-3.69c.646.87 1.668 1.43 2.828 1.43 1.96 0 3.552-1.59 3.552-3.55 0-1.95-1.593-3.54-3.552-3.54zm0 5.57c-1.117 0-2.025-.9-2.025-2.02S24.33 96 25.446 96c1.12 0 2.025.91 2.025 2.025 0 1.114-.9 2.02-2.02 2.02zm0 0" fill="#fff"/><path d="M22.684 69c.775 0 1.408-.63 1.408-1.408 0-.783-.633-1.414-1.408-1.414H6.27c-.78 0-1.412.63-1.412 1.414 0 .777.63 1.408 1.412 1.408h16.414zM17.05 43.134c-.706.844-1.204 2.12-.727 3.187.414.93 1.535 1.34 1.332 2.51-.094.55-.45.9-.666 1.38-.21.47.47.87.68.4.18-.4.46-.74.63-1.16.27-.68.22-1.41-.12-2.06-.21-.38-.58-.64-.87-.94-.36-.37-.44-.91-.35-1.4.08-.46.37-1 .64-1.33.33-.39-.23-.96-.57-.56zm-3.563 0c-.705.844-1.203 2.12-.727 3.187.414.93 1.533 1.34 1.334 2.51-.096.55-.455.9-.67 1.38-.207.47.48.87.69.4.18-.4.465-.74.63-1.16.27-.68.22-1.41-.12-2.06-.204-.38-.575-.64-.868-.94-.357-.37-.435-.91-.347-1.4.08-.46.36-1 .64-1.33.33-.39-.23-.96-.57-.56zm-3.59 0c-.707.844-1.205 2.12-.73 3.187.413.93 1.534 1.34 1.333 2.51-.095.55-.453.9-.668 1.38-.207.47.48.87.69.4.18-.4.465-.74.63-1.16.268-.68.217-1.41-.122-2.06-.2-.38-.573-.64-.866-.94-.36-.37-.435-.91-.347-1.4.084-.46.367-1 .642-1.33.32-.39-.24-.96-.57-.56zm15.55 11.347c-.228 0-.447.03-.665.07l.015-.37v-.12c0-.55-.453-1-1.006-1H4.01c-.558 0-1.01.46-1.01 1.01v.12c0 .56.094 1.46.21 2l3.802 7.67c.37.42 1.13.76 1.68.76h10.412c.553 0 1.305-.34 1.68-.75l1.834-3.69c.646.87 1.668 1.43 2.828 1.43 1.96 0 3.552-1.59 3.552-3.55 0-1.95-1.593-3.54-3.552-3.54zm0 5.57c-1.117 0-2.025-.9-2.025-2.02S24.33 56 25.446 56c1.12 0 2.025.91 2.025 2.025 0 1.114-.9 2.02-2.02 2.02zm0 0" fill="#67737B"/><path d="M22.684 29c.775 0 1.408-.63 1.408-1.408 0-.783-.633-1.414-1.408-1.414H6.27c-.78 0-1.412.63-1.412 1.414 0 .777.63 1.408 1.412 1.408h16.414zM17.05 3.134c-.706.844-1.204 2.12-.727 3.187.414.93 1.535 1.34 1.332 2.51-.094.55-.45.9-.666 1.38-.21.47.47.87.68.4.18-.4.46-.74.63-1.16.27-.68.22-1.41-.12-2.06-.21-.38-.58-.64-.87-.94-.36-.37-.44-.91-.35-1.4.08-.46.37-1 .64-1.33.33-.39-.23-.96-.57-.56zm-3.563 0c-.705.844-1.203 2.12-.727 3.187.414.93 1.533 1.34 1.334 2.51-.096.55-.455.9-.67 1.38-.207.47.48.87.69.4.18-.4.465-.74.63-1.16.27-.68.22-1.41-.12-2.06-.204-.38-.575-.64-.868-.94-.357-.37-.435-.91-.347-1.4.08-.46.36-1 .64-1.33.33-.39-.23-.96-.57-.56zm-3.59 0c-.707.844-1.205 2.12-.73 3.187.413.93 1.534 1.34 1.333 2.51-.095.55-.453.9-.668 1.38-.207.47.48.87.69.4.18-.4.465-.74.63-1.16.268-.68.217-1.41-.122-2.06-.2-.38-.573-.64-.866-.94-.36-.37-.435-.91-.347-1.4.084-.46.367-1 .642-1.33.32-.39-.24-.96-.57-.56zm15.55 11.347c-.228 0-.447.03-.665.07l.015-.37v-.12c0-.55-.453-1-1.006-1H4.01c-.558 0-1.01.46-1.01 1.01v.12c0 .56.094 1.46.21 2l3.802 7.67c.37.42 1.13.76 1.68.76h10.412c.553 0 1.305-.34 1.68-.75l1.834-3.69c.646.87 1.668 1.43 2.828 1.43 1.96 0 3.552-1.59 3.552-3.55 0-1.95-1.593-3.54-3.552-3.54zm0 5.57c-1.117 0-2.025-.9-2.025-2.02S24.33 16 25.446 16c1.12 0 2.025.91 2.025 2.025 0 1.114-.9 2.02-2.02 2.02zm0 0" fill="#3A434E"/></g></svg>