<svg width="32" height="232" viewBox="0 0 32 232" xmlns="http://www.w3.org/2000/svg"><g fill="none"><path d="M22.258 20.217l-.54.52v1.805l4.18-4.038V16.7l-.53.513v-2.18l.452-.433-1.336-1.467-.83 2.506-.828-.9-1.336 4.02.768-.74v2.18zm1.443-3.582l.22-.205v2.188l-.21.205v-2.188zM27.89 6.31L14.924 3.05 14.62 3c-.31-.01-.613.073-.88.243L3.66 9.71c-.43.275-.683.757-.658 1.26l.576 11.63c.03.588.418 1.092.99 1.283l14.22 4.77c.145.05.302.075.474.077h.008c.393 0 .764-.154 1.047-.43l8.202-8.03c.27-.266.42-.618.42-.99L29 7.703c.002-.656-.453-1.23-1.11-1.395zM14.733 5.187l1.616.408 1.03.264-6.77 5.38-.31-.1-3.3-.99 7.72-4.97zm-9 16.76L5.24 12l4.262 1.284v3.818l1.118-.01.658.432 1-.11 1.68.99-.057-3.8 4 1.2.12 10.257-12.29-4.11zm13.087-8.24c-1.263-.374-2.503-.746-3.742-1.12L21.84 6.98l3.854.972-6.874 5.756zm7.967 5.196l-6.44 6.303-.116-9.684 6.6-5.524-.04 8.905zm0 0" fill="#3B444F"/><path d="M22.258 60.216l-.54.52v1.805l4.18-4.03V56.7l-.53.512v-2.18l.452-.433-1.336-1.47-.83 2.5-.828-.9-1.336 4.02.768-.74v2.19zm1.443-3.582l.22-.205v2.18l-.21.2v-2.18zm4.19-10.326l-12.96-3.26-.31-.048c-.31-.01-.61.074-.88.244L3.66 49.71c-.43.274-.683.756-.658 1.26l.576 11.627c.03.588.418 1.092.99 1.283l14.22 4.77c.145.05.302.074.474.076h.008c.393 0 .764-.154 1.047-.43l8.202-8.03c.27-.266.42-.618.42-.99L29 47.702c.002-.656-.453-1.23-1.11-1.395zm-13.15-1.12l1.62.407 1.04.264-6.76 5.38-.31-.1c-1.1-.34-2.19-.67-3.3-1l7.73-4.97zM5.73 61.944L5.24 52l4.262 1.283V57.1l1.118-.01.658.433 1-.11 1.68.99-.057-3.8 4 1.2.12 10.257-12.29-4.115zm13.088-8.238c-1.263-.375-2.503-.747-3.742-1.12l6.762-5.607 3.854.97-6.872 5.75zm7.967 5.195l-6.44 6.31-.116-9.68 6.6-5.53-.04 8.91zm0 0" fill="#67737B"/><path d="M22.258 100.214l-.54.52v1.805l4.18-4.04v-1.8l-.53.51v-2.18l.452-.44-1.336-1.47-.83 2.5-.828-.9-1.336 4.02.768-.74v2.18zm1.443-3.582l.22-.205v2.188l-.21.205v-2.188zm4.19-10.326l-12.96-3.26-.31-.046c-.31-.012-.61.072-.88.242L3.66 89.707c-.43.275-.683.757-.658 1.26l.576 11.628c.03.588.418 1.092.99 1.283l14.22 4.77c.145.05.302.074.474.076h.008c.393 0 .764-.154 1.047-.43l8.202-8.03c.27-.266.42-.618.42-.99L29 87.7c.002-.655-.453-1.228-1.11-1.394zm-13.15-1.12l1.62.407 1.04.264-6.76 5.387-.31-.096c-1.1-.332-2.19-.662-3.3-.994l7.73-4.97zm-9 16.757l-.49-9.946 4.26 1.283v3.82l1.12-.01.66.437 1-.11 1.68.992-.06-3.8 4 1.19.12 10.26-12.29-4.12zm13.09-8.238c-1.26-.375-2.5-.747-3.74-1.12l6.76-5.607 3.86.97-6.87 5.757zm7.96 5.195l-6.44 6.303-.11-9.684 6.6-5.53-.04 8.9zm0 0" fill="#fff"/><path d="M22.258 140.216l-.54.52v1.805l4.18-4.03v-1.81l-.53.52v-2.18l.452-.43-1.336-1.47-.83 2.51-.828-.9-1.336 4.03.768-.73v2.19zm1.443-3.582l.22-.205v2.18l-.21.2v-2.19zm4.19-10.326l-12.96-3.26-.3-.047c-.31-.01-.61.08-.88.25l-10.09 6.46c-.43.28-.68.76-.65 1.26l.58 11.63c.03.59.42 1.1.99 1.29l14.22 4.77c.15.05.3.08.48.08h.01c.4 0 .77-.15 1.05-.43l8.2-8.03c.27-.26.42-.61.42-.99l.06-11.57c0-.65-.45-1.23-1.11-1.39zm-13.15-1.12l1.62.407 1.04.264-6.76 5.38-.31-.1c-1.1-.34-2.19-.67-3.3-1l7.73-4.97zm-9 16.757L5.24 132l4.262 1.283v3.818l1.118-.01.658.44 1-.11 1.68.99-.057-3.8 4 1.2.12 10.26-12.28-4.11zm13.09-8.238c-1.26-.375-2.5-.747-3.74-1.12l6.76-5.607 3.86.97-6.87 5.757zm7.97 5.195l-6.44 6.303-.11-9.684 6.59-5.52-.04 8.91zm0 0" fill="#206FAC"/></g></svg>