<svg width="32" height="232" viewBox="0 0 32 232" xmlns="http://www.w3.org/2000/svg"><g fill="none"><path d="M14.534 147.542V150h3.342v-2.458c5.248-.533 7.124-3.493 7.124-6.75 0-4.144-2.932-5.684-7.24-6.66v-4.708c1.2.504 1.993 1.45 2.727 2.487l3.81-2.81c-1.378-1.92-3.138-3.52-6.42-3.99V123h-3.343v2.012c-4.193.357-6.948 2.813-6.948 6.81 0 4.352 3.49 5.713 7.125 6.57v5.094c-1.7-.474-2.66-1.807-3.84-3.345L7 142.63c1.643 2.604 3.784 4.5 7.534 4.914zm.176-18.414v4.263c-1.29-.44-1.848-.97-1.848-2.1 0-1.06.587-1.89 1.848-2.16zm3.05 14.447v-4.382c1.464.504 1.962 1.125 1.962 2.16 0 1.185-.527 1.926-1.963 2.222zm0 0" fill="#206FAC"/><path d="M14.534 107.542V110h3.342v-2.458c5.248-.533 7.124-3.493 7.124-6.75 0-4.144-2.932-5.684-7.24-6.66v-4.708c1.2.504 1.993 1.45 2.727 2.487l3.81-2.81c-1.378-1.92-3.138-3.52-6.42-3.99V83h-3.343v2.012c-4.193.357-6.948 2.813-6.948 6.81 0 4.352 3.49 5.713 7.125 6.57v5.094c-1.7-.474-2.66-1.807-3.84-3.345L7 102.63c1.643 2.604 3.784 4.5 7.534 4.914zm.176-18.414v4.263c-1.29-.44-1.848-.97-1.848-2.1 0-1.06.587-1.89 1.848-2.16zm3.05 14.447v-4.382c1.464.504 1.962 1.125 1.962 2.16 0 1.185-.527 1.926-1.963 2.222zm0 0" fill="#fff"/><path d="M14.534 67.542V70h3.342v-2.458C23.124 67.01 25 64.05 25 60.792c0-4.144-2.932-5.684-7.24-6.66v-4.708c1.2.504 1.993 1.45 2.727 2.487l3.81-2.81c-1.378-1.92-3.138-3.52-6.42-3.99V43h-3.343v2.012c-4.193.357-6.948 2.813-6.948 6.81 0 4.352 3.49 5.713 7.125 6.57v5.094c-1.7-.474-2.66-1.807-3.84-3.345L7 62.63c1.643 2.604 3.784 4.5 7.534 4.914zm.176-18.414v4.263c-1.29-.44-1.848-.97-1.848-2.1 0-1.06.587-1.89 1.848-2.16zm3.05 14.447v-4.382c1.464.504 1.962 1.125 1.962 2.16 0 1.185-.527 1.926-1.963 2.222zm0 0" fill="#67737B"/><path d="M14.534 27.542V30h3.342v-2.458C23.124 27.01 25 24.05 25 20.792c0-4.144-2.932-5.684-7.24-6.66v-4.71c1.2.505 1.993 1.45 2.727 2.488l3.81-2.812C22.92 7.174 21.16 5.576 17.877 5.1V3h-3.343v2.012c-4.193.357-6.948 2.813-6.948 6.81 0 4.352 3.49 5.713 7.125 6.57v5.094c-1.7-.474-2.66-1.807-3.84-3.345L7 22.63c1.643 2.604 3.784 4.5 7.534 4.914zm.176-18.414v4.263c-1.29-.44-1.848-.97-1.848-2.1 0-1.06.587-1.89 1.848-2.16zm3.05 14.447v-4.382c1.464.504 1.962 1.125 1.962 2.16 0 1.185-.527 1.926-1.963 2.222zm0 0" fill="#3A434E"/></g></svg>