<svg width="32" height="232" viewBox="0 0 32 232" xmlns="http://www.w3.org/2000/svg"><g fill="none"><path d="M23.756 124H8.244c-1.516 0-2.744 1.108-2.744 2.477v16.904c0 .83.447 1.56 1.137 2-.02.57.052 1.1.052 1.36v.11c0 1.2.99 2.17 2.21 2.17 1.21 0 2.21-.97 2.21-2.16v-.1l.05-.86h9.79l.05.87v.11c0 1.2.99 2.17 2.21 2.17s2.21-.97 2.21-2.16v-.1c0-.27.08-.84.05-1.44.61-.45 1.01-1.15 1.01-1.91V126.5c0-1.37-1.24-2.48-2.75-2.48zM7.89 127.733c0-.682.614-1.233 1.372-1.233h13.474c.756 0 1.37.55 1.37 1.233v9.53c0 .68-.614 1.243-1.37 1.243H9.262c-.758 0-1.37-.562-1.37-1.242v-9.53zM9.784 144.1c-1.162 0-2.1-.945-2.1-2.11 0-1.156.938-2.11 2.1-2.11 1.168 0 2.104.954 2.104 2.11 0 1.165-.936 2.11-2.104 2.11zm12.34 0c-1.166 0-2.11-.945-2.11-2.11 0-1.156.944-2.11 2.11-2.11 1.15 0 2.104.954 2.104 2.11 0 1.165-.954 2.11-2.104 2.11zm0 0" fill="#206FAC"/><path d="M23.756 84H8.244C6.728 84 5.5 85.108 5.5 86.477v16.904c0 .83.447 1.56 1.137 2-.02.57.052 1.1.052 1.36v.11c0 1.2.99 2.17 2.21 2.17 1.21 0 2.21-.97 2.21-2.16v-.1l.05-.86h9.79l.05.87v.11c0 1.2.99 2.17 2.21 2.17s2.21-.97 2.21-2.16v-.1c0-.27.08-.84.05-1.44.61-.45 1.01-1.15 1.01-1.91V86.48c0-1.37-1.24-2.477-2.75-2.477zM7.89 87.733c0-.682.614-1.233 1.372-1.233h13.474c.756 0 1.37.55 1.37 1.233v9.53c0 .68-.614 1.243-1.37 1.243H9.262c-.758 0-1.37-.562-1.37-1.242v-9.53zM9.784 104.1c-1.162 0-2.1-.945-2.1-2.11 0-1.156.938-2.11 2.1-2.11 1.168 0 2.104.954 2.104 2.11 0 1.165-.936 2.11-2.104 2.11zm12.34 0c-1.166 0-2.11-.945-2.11-2.11 0-1.156.944-2.11 2.11-2.11 1.15 0 2.104.954 2.104 2.11 0 1.165-.954 2.11-2.104 2.11zm0 0" fill="#fff"/><path d="M23.756 44H8.244C6.728 44 5.5 45.108 5.5 46.477V63.38c0 .83.447 1.558 1.137 1.995-.02.563.052 1.096.052 1.356v.11c0 1.19.99 2.16 2.21 2.16 1.21 0 2.21-.97 2.21-2.16v-.1l.05-.86h9.79l.05.87v.11c0 1.2.99 2.17 2.21 2.17s2.21-.97 2.21-2.16v-.1c0-.27.08-.84.05-1.44.61-.45 1.01-1.15 1.01-1.91V46.48c0-1.37-1.23-2.476-2.75-2.476zM7.89 47.733c0-.682.614-1.233 1.372-1.233h13.474c.756 0 1.37.55 1.37 1.233v9.53c0 .68-.614 1.243-1.37 1.243H9.262c-.758 0-1.37-.562-1.37-1.242v-9.53zM9.784 64.1c-1.162 0-2.1-.945-2.1-2.11 0-1.156.938-2.11 2.1-2.11 1.168 0 2.104.954 2.104 2.11 0 1.165-.936 2.11-2.104 2.11zm12.34 0c-1.166 0-2.11-.945-2.11-2.11 0-1.156.944-2.11 2.11-2.11 1.15 0 2.104.954 2.104 2.11 0 1.165-.954 2.11-2.104 2.11zm0 0" fill="#67737B"/><path d="M23.756 4H8.244C6.728 4 5.5 5.108 5.5 6.477V23.38c0 .83.447 1.558 1.137 1.995-.02.563.052 1.096.052 1.356v.11c0 1.19.99 2.16 2.21 2.16 1.21 0 2.21-.97 2.21-2.16v-.1l.05-.86h9.79l.05.87v.11c0 1.2.99 2.17 2.21 2.17s2.21-.97 2.21-2.16v-.1c0-.27.08-.84.05-1.44.61-.45 1.01-1.15 1.01-1.91V6.48C26.5 5.103 25.27 4 23.75 4zM7.89 7.733c0-.682.614-1.233 1.372-1.233h13.474c.756 0 1.37.55 1.37 1.233v9.53c0 .68-.614 1.243-1.37 1.243H9.262c-.758 0-1.37-.562-1.37-1.242v-9.53zM9.784 24.1c-1.162 0-2.1-.945-2.1-2.11 0-1.156.938-2.11 2.1-2.11 1.168 0 2.104.954 2.104 2.11 0 1.165-.936 2.11-2.104 2.11zm12.34 0c-1.166 0-2.11-.945-2.11-2.11 0-1.156.944-2.11 2.11-2.11 1.15 0 2.104.954 2.104 2.11 0 1.165-.954 2.11-2.104 2.11zm0 0" fill="#3A434E"/></g></svg>