<svg width="32" height="232" viewBox="0 0 32 232" xmlns="http://www.w3.org/2000/svg"><g fill="none"><path d="M15.986 8c2.247 0 4.143.77 5.685 2.315C23.23 11.868 24 13.762 24 16c0 2.248-.762 4.12-2.286 5.614-1.62 1.59-3.53 2.386-5.728 2.386-2.162 0-4.038-.785-5.628-2.357C8.788 20.07 8 18.19 8 16s.787-4.085 2.358-5.685C11.9 8.772 13.778 8 15.986 8zm.028 1.444c-1.82 0-3.357.638-4.614 1.914-1.304 1.334-1.956 2.88-1.956 4.643 0 1.78.647 3.31 1.942 4.61 1.295 1.3 2.838 1.94 4.628 1.94 1.78 0 3.333-.65 4.657-1.95 1.26-1.21 1.89-2.74 1.89-4.58 0-1.82-.64-3.36-1.91-4.64-1.27-1.27-2.82-1.91-4.63-1.91zm2.143 4.57v3.273h-.914v3.886h-2.486v-3.886h-.914v-3.272c0-.143.05-.264.15-.364.1-.1.22-.15.363-.15h3.286c.132 0 .25.05.356.15.104.1.157.23.157.37zm-3.27-2.056c0-.752.37-1.13 1.113-1.13s1.114.378 1.114 1.13c0 .742-.37 1.114-1.114 1.114-.742 0-1.114-.37-1.114-1.114zm0 0" fill="#3B444F"/><path d="M15.986 48c2.247 0 4.143.772 5.685 2.315C23.23 51.867 24 53.762 24 56c0 2.248-.762 4.12-2.286 5.614-1.62 1.59-3.53 2.386-5.728 2.386-2.162 0-4.038-.785-5.628-2.357C8.788 60.07 8 58.19 8 56s.787-4.086 2.358-5.685C11.9 48.772 13.778 48 15.986 48zm.028 1.444c-1.82 0-3.357.638-4.614 1.914-1.304 1.334-1.956 2.88-1.956 4.642 0 1.772.647 3.305 1.942 4.6 1.295 1.295 2.838 1.943 4.628 1.943 1.78 0 3.333-.652 4.657-1.957 1.26-1.21 1.89-2.738 1.89-4.586 0-1.82-.64-3.366-1.91-4.642-1.27-1.276-2.82-1.914-4.63-1.914zm2.143 4.57v3.273h-.914v3.886h-2.486v-3.886h-.914v-3.272c0-.143.05-.264.15-.364.1-.1.22-.15.363-.15h3.286c.132 0 .25.05.356.15.104.1.157.23.157.37zm-3.27-2.056c0-.753.37-1.13 1.113-1.13s1.114.378 1.114 1.13c0 .742-.37 1.113-1.114 1.113-.742 0-1.114-.37-1.114-1.11zm0 0" fill="#67737B"/><path d="M15.986 88c2.247 0 4.143.772 5.685 2.314C23.23 91.867 24 93.762 24 96c0 2.248-.762 4.12-2.286 5.614-1.62 1.59-3.53 2.386-5.728 2.386-2.162 0-4.038-.785-5.628-2.357C8.788 100.07 8 98.19 8 96s.787-4.085 2.358-5.686C11.9 88.77 13.778 88 15.986 88zm.028 1.444c-1.82 0-3.357.638-4.614 1.914-1.304 1.334-1.956 2.88-1.956 4.642 0 1.772.647 3.305 1.942 4.6 1.295 1.295 2.838 1.943 4.628 1.943 1.78 0 3.333-.652 4.657-1.957 1.26-1.21 1.89-2.738 1.89-4.586 0-1.82-.64-3.366-1.91-4.642-1.27-1.276-2.82-1.914-4.63-1.914zm2.143 4.57v3.273h-.914v3.886h-2.486v-3.886h-.914v-3.272c0-.143.05-.264.15-.364.1-.1.22-.15.363-.15h3.286c.132 0 .25.05.356.15.104.1.157.23.157.37zm-3.27-2.056c0-.752.37-1.13 1.113-1.13s1.114.377 1.114 1.13c0 .743-.37 1.114-1.114 1.114-.742 0-1.114-.37-1.114-1.114zm0 0" fill="#fff"/><path d="M15.986 128c2.247 0 4.143.772 5.685 2.315C23.23 131.867 24 133.762 24 136c0 2.248-.762 4.12-2.286 5.614-1.62 1.59-3.53 2.386-5.728 2.386-2.162 0-4.038-.785-5.628-2.357C8.788 140.07 8 138.19 8 136s.787-4.085 2.358-5.685c1.543-1.543 3.42-2.315 5.628-2.315zm.028 1.444c-1.82 0-3.357.638-4.614 1.914-1.304 1.334-1.956 2.88-1.956 4.643 0 1.78.647 3.31 1.942 4.61 1.295 1.3 2.838 1.94 4.628 1.94 1.78 0 3.333-.65 4.657-1.95 1.26-1.21 1.89-2.74 1.89-4.58 0-1.82-.64-3.36-1.91-4.64-1.27-1.27-2.82-1.91-4.63-1.91zm2.143 4.57v3.273h-.914v3.886h-2.486v-3.886h-.914v-3.272c0-.143.05-.264.15-.364.1-.1.22-.15.363-.15h3.286c.132 0 .25.05.356.15.104.1.157.23.157.37zm-3.27-2.056c0-.752.37-1.13 1.113-1.13s1.114.378 1.114 1.13c0 .742-.37 1.113-1.114 1.113-.742 0-1.114-.37-1.114-1.11zm0 0" fill="#206FAC"/></g></svg>