<svg width="32" height="232" viewBox="0 0 32 232" xmlns="http://www.w3.org/2000/svg"><g fill="none"><path d="M28.76 149H3.237C2.004 149 1 148.098 1 146.996c0-.845.574-1.56 1.393-1.867l-.545-1.19c-.17-.37-.185-.78-.042-1.16.13-.37.4-.67.748-.83.713-.34 1.624.01 1.952.74l.322.71 9.93-12.8c.652-.83 1.83-.81 2.452.03l9.582 12.74.326-.7c.323-.72 1.222-1.08 1.938-.74.35.16.62.46.756.83.137.38.12.79-.04 1.15l-.505 1.09c.988.21 1.732 1 1.732 1.97 0 1.1-1.01 2-2.24 2m-12.78-4.15h6.92l-6.93-9.54v9.54" fill="#206FAC"/><path d="M28.76 109H3.237C2.004 109 1 108.098 1 106.996c0-.845.574-1.56 1.393-1.867l-.545-1.19c-.17-.37-.185-.78-.042-1.16.13-.37.4-.67.748-.83.713-.34 1.624.01 1.952.74l.322.71 9.93-12.8c.652-.83 1.83-.81 2.452.03l9.582 12.74.326-.7c.323-.72 1.222-1.08 1.938-.74.35.16.62.46.756.83.137.38.12.79-.04 1.15l-.505 1.09c.988.21 1.732 1 1.732 1.97 0 1.1-1.01 2-2.24 2m-12.78-4.15h6.92l-6.93-9.54v9.54" fill="#fff"/><path d="M28.76 69H3.237C2.004 69 1 68.098 1 66.996c0-.845.574-1.56 1.393-1.867l-.545-1.19c-.17-.37-.185-.78-.042-1.16.13-.37.4-.67.748-.83.713-.34 1.624.01 1.952.74l.322.71 9.93-12.8c.652-.83 1.83-.81 2.452.03l9.582 12.74.326-.7c.323-.72 1.222-1.08 1.938-.74.35.16.62.46.756.83.137.38.12.79-.04 1.15L29.267 65c.988.21 1.732 1.008 1.732 1.97 0 1.107-1.01 2.01-2.24 2.01m-12.78-4.15h6.92l-6.93-9.54v9.54" fill="#67737B"/><path d="M28.76 29H3.237C2.004 29 1 28.098 1 26.996c0-.845.574-1.56 1.393-1.867l-.545-1.19c-.17-.37-.185-.78-.042-1.16.13-.37.4-.67.748-.83.713-.34 1.624.01 1.952.74l.322.71 9.93-12.8c.652-.83 1.83-.81 2.452.03l9.582 12.74.326-.7c.323-.72 1.222-1.08 1.938-.74.35.16.62.46.756.83.137.38.12.79-.04 1.15L29.267 25c.988.21 1.732 1.008 1.732 1.97 0 1.107-1.01 2.01-2.24 2.01m-12.78-4.15h6.92l-6.93-9.54v9.54" fill="#3A434E"/></g></svg>