<svg width="32" height="232" viewBox="0 0 32 232" xmlns="http://www.w3.org/2000/svg"><g fill="none"><path d="M26.368 136.103h-.47l-2-5.605c-.388-.967-.945-1.764-1.91-1.764H9.863c-.967 0-1.552.85-1.903 1.764l-2.003 5.605H5.64c-1.182 0-2.14.954-2.14 2.137v6.85h1.815c-.006.558.06 1.09.06 1.343v.123c0 1.358 1.118 2.444 2.49 2.444 1.368 0 2.48-1.086 2.48-2.444v-.123l.06-.95v-.393H21.44l.02 1.343v.123c0 1.358 1.11 2.444 2.478 2.444 1.38 0 2.492-1.086 2.492-2.444v-.123c0-.254.066-.785.06-1.343h2.01v-6.85c0-1.183-.96-2.137-2.132-2.137zm-17.293-.28l1.51-4.647H21.55l1.51 4.648H9.077zm.83 4.98c0 1.117-.905 2.02-2.012 2.02-1.113 0-2.016-.903-2.016-2.02 0-1.106.903-2.005 2.016-2.005 1.107 0 2.012.9 2.012 2.004zm15.916 0c0 1.117-.89 2.02-2.01 2.02-1.1 0-2.01-.903-2.01-2.02 0-1.106.91-2.005 2.01-2.005 1.12 0 2.01.9 2.01 2.004zm0 0" fill="#206FAC"/><path d="M26.368 96.103h-.47l-2-5.605c-.388-.967-.945-1.764-1.91-1.764H9.863c-.967 0-1.552.85-1.903 1.764l-2.003 5.605H5.64c-1.182 0-2.14.954-2.14 2.137v6.85h1.815c-.006.558.06 1.09.06 1.343v.123c0 1.358 1.118 2.444 2.49 2.444 1.368 0 2.48-1.086 2.48-2.444v-.123l.06-.95v-.393H21.44l.02 1.343v.123c0 1.358 1.11 2.444 2.478 2.444 1.38 0 2.492-1.086 2.492-2.444v-.123c0-.254.066-.785.06-1.343h2.01v-6.85c0-1.183-.96-2.137-2.132-2.137zm-17.293-.28l1.51-4.647H21.55l1.51 4.648H9.077zm.83 4.98c0 1.117-.905 2.02-2.012 2.02-1.113 0-2.016-.903-2.016-2.02 0-1.106.903-2.005 2.016-2.005 1.107 0 2.012.9 2.012 2.004zm15.916 0c0 1.117-.89 2.02-2.01 2.02-1.1 0-2.01-.903-2.01-2.02 0-1.106.91-2.005 2.01-2.005 1.12 0 2.01.9 2.01 2.004zm0 0" fill="#fff"/><path d="M26.368 56.103h-.47l-2-5.605c-.388-.967-.945-1.764-1.91-1.764H9.863c-.967 0-1.552.85-1.903 1.764l-2.003 5.605H5.64c-1.182 0-2.14.954-2.14 2.137v6.85h1.815c-.006.558.06 1.09.06 1.343v.123c0 1.358 1.118 2.444 2.49 2.444 1.368 0 2.48-1.086 2.48-2.444v-.123l.06-.95v-.393H21.44l.02 1.343v.123c0 1.358 1.11 2.444 2.478 2.444 1.38 0 2.492-1.086 2.492-2.444v-.123c0-.254.066-.785.06-1.343h2.01v-6.85c0-1.183-.96-2.137-2.132-2.137zm-17.293-.28l1.51-4.647H21.55l1.51 4.648H9.077zm.83 4.98c0 1.117-.905 2.02-2.012 2.02-1.113 0-2.016-.903-2.016-2.02 0-1.106.903-2.005 2.016-2.005 1.107 0 2.012.9 2.012 2.004zm15.916 0c0 1.117-.89 2.02-2.01 2.02-1.1 0-2.01-.903-2.01-2.02 0-1.106.91-2.005 2.01-2.005 1.12 0 2.01.9 2.01 2.004zm0 0" fill="#67737B"/><path d="M26.368 16.103h-.47l-2-5.605c-.388-.967-.945-1.764-1.91-1.764H9.863c-.967 0-1.552.85-1.903 1.764l-2.003 5.605H5.64c-1.182 0-2.14.954-2.14 2.137v6.85h1.815c-.006.558.06 1.09.06 1.343v.123c0 1.358 1.118 2.444 2.49 2.444 1.368 0 2.48-1.086 2.48-2.444v-.123l.06-.95v-.393H21.44l.02 1.343v.123c0 1.358 1.11 2.444 2.478 2.444 1.38 0 2.492-1.086 2.492-2.444v-.123c0-.254.066-.785.06-1.343h2.01v-6.85c0-1.183-.96-2.137-2.132-2.137zm-17.293-.28l1.51-4.647H21.55l1.51 4.648H9.077zm.83 4.98c0 1.117-.905 2.02-2.012 2.02-1.113 0-2.016-.903-2.016-2.02 0-1.106.903-2.005 2.016-2.005 1.107 0 2.012.9 2.012 2.004zm15.916 0c0 1.117-.89 2.02-2.01 2.02-1.1 0-2.01-.903-2.01-2.02 0-1.106.91-2.005 2.01-2.005 1.12 0 2.01.9 2.01 2.004zm0 0" fill="#3A434E"/></g></svg>