<svg width="32" height="232" viewBox="0 0 32 232" xmlns="http://www.w3.org/2000/svg"><g fill="none"><path d="M21.73 125.094L2.847 136.022c-.333.19-.447.618-.255.95L9.32 148.65c.192.336.617.45.95.256l18.882-10.927c.333-.2.446-.62.255-.96l-6.727-11.67c-.193-.34-.618-.45-.95-.26zm.09 1.558l1.453 2.516-17.678 10.228-1.448-2.515 17.673-10.22zm-11.64 20.696l-2.726-4.73 17.676-10.23 2.726 4.73-17.676 10.23zm2.888-3.82l5.222-3.02.464.806-5.224 3.02-.462-.805zm-3.013 1.746l2.21-1.28.462.806-2.21 1.278-.462-.804zm0 0" fill="#206FAC"/><path d="M21.73 85.094L2.847 96.022c-.333.19-.447.618-.255.95L9.32 108.65c.192.336.617.45.95.256L29.152 97.98c.333-.194.446-.62.255-.954L22.68 85.35c-.193-.334-.618-.45-.95-.256zm.09 1.558l1.453 2.516L5.595 99.396 4.147 96.88 21.82 86.653zm-11.64 20.696l-2.726-4.73 17.676-10.23 2.726 4.73-17.676 10.23zm2.888-3.82l5.222-3.02.464.806-5.224 3.02-.462-.805zm-3.013 1.746l2.21-1.28.462.806-2.21 1.278-.462-.804zm0 0" fill="#fff"/><path d="M21.73 45.094L2.847 56.022c-.333.19-.447.618-.255.95L9.32 68.65c.192.336.617.45.95.256L29.152 57.98c.333-.194.446-.62.255-.954L22.68 45.35c-.193-.334-.618-.45-.95-.256zm.09 1.558l1.453 2.516L5.595 59.396 4.147 56.88 21.82 46.653zM10.18 67.348l-2.726-4.73 17.676-10.23 2.726 4.73-17.676 10.23zm2.888-3.82l5.222-3.02.464.806-5.224 3.02-.462-.805zm-3.013 1.746l2.21-1.28.462.806-2.21 1.278-.462-.804zm0 0" fill="#67737B"/><path d="M21.73 5.094L2.847 16.022c-.333.19-.447.618-.255.95L9.32 28.65c.192.336.617.45.95.256L29.152 17.98c.333-.194.446-.62.255-.954L22.68 5.35c-.193-.334-.618-.45-.95-.256zm.09 1.558l1.453 2.516L5.595 19.396 4.147 16.88 21.82 6.653zM10.18 27.348l-2.726-4.73 17.676-10.23 2.726 4.73-17.676 10.23zm2.888-3.82l5.222-3.02.464.806-5.224 3.02-.462-.805zm-3.013 1.746l2.21-1.28.462.806-2.21 1.278-.462-.804zm0 0" fill="#3A434E"/></g></svg>