<svg width="32" height="232" viewBox="0 0 32 232" xmlns="http://www.w3.org/2000/svg"><g fill="none"><path d="M30.464 186.623c-.84 1.51-2.508 2.377-4.577 2.377H6.113c-2.067 0-3.737-.867-4.577-2.377-.84-1.51-.687-3.365.423-5.09l9.6-14.917C12.63 164.953 14.24 164 16 164c1.75 0 3.37.953 4.44 2.616l9.6 14.918c1.11 1.722 1.265 3.58.424 5.09zm-2.76-3.625l-9.6-14.918c-.577-.898-1.343-1.347-2.105-1.347s-1.53.45-2.11 1.347l-9.6 14.918c-1.16 1.8-.34 3.268 1.81 3.268h19.78c2.16 0 2.97-1.47 1.82-3.268zm-11.66-2.924c-.98 0-1.774-.783-1.774-1.75v-6.04c0-.967.793-1.752 1.773-1.752.98 0 1.773.785 1.773 1.75v6.04c0 .97-.793 1.752-1.773 1.752zm1.772 2.733l-.006-.063.006-.064v.127zm-1.773 1.623c-.955 0-1.73-.75-1.766-1.686.035-.937.81-1.687 1.766-1.687s1.73.75 1.766 1.687c-.04.936-.82 1.686-1.77 1.686zm-1.773-1.75l.006.064-.006.063v-.127zm0 0" fill="#F95D5B"/><path d="M30.464 146.623c-.84 1.51-2.508 2.377-4.577 2.377H6.113c-2.067 0-3.737-.867-4.577-2.377-.84-1.51-.687-3.365.423-5.09l9.6-14.917C12.63 124.953 14.24 124 16 124c1.75 0 3.37.953 4.44 2.616l9.6 14.918c1.11 1.722 1.265 3.58.424 5.09zm-2.76-3.625l-9.6-14.918c-.577-.898-1.343-1.347-2.105-1.347s-1.53.45-2.11 1.347l-9.6 14.918c-1.16 1.8-.34 3.268 1.81 3.268h19.78c2.16 0 2.97-1.47 1.82-3.268zm-11.66-2.924c-.98 0-1.774-.783-1.774-1.75v-6.04c0-.967.793-1.752 1.773-1.752.98 0 1.773.785 1.773 1.75v6.04c0 .97-.793 1.752-1.773 1.752zm1.772 2.733l-.006-.063.006-.064v.127zm-1.773 1.623c-.955 0-1.73-.75-1.766-1.686.035-.937.81-1.687 1.766-1.687s1.73.75 1.766 1.687c-.04.936-.82 1.686-1.77 1.686zm-1.773-1.75l.006.064-.006.063v-.127zm0 0" fill="#206FAC"/><path d="M30.464 106.623c-.84 1.51-2.508 2.377-4.577 2.377H6.113c-2.067 0-3.737-.867-4.577-2.377-.84-1.51-.687-3.365.423-5.09l9.6-14.917C12.63 84.953 14.24 84 16 84c1.75 0 3.37.953 4.44 2.616l9.6 14.918c1.11 1.722 1.265 3.58.424 5.09zm-2.76-3.625l-9.6-14.918c-.577-.898-1.343-1.347-2.105-1.347s-1.53.45-2.11 1.347l-9.6 14.918c-1.16 1.8-.34 3.268 1.81 3.268h19.78c2.16 0 2.97-1.47 1.82-3.268zm-11.66-2.924c-.98 0-1.774-.783-1.774-1.75v-6.04c0-.967.793-1.752 1.773-1.752.98 0 1.773.785 1.773 1.75v6.04c0 .97-.793 1.752-1.773 1.752zm1.772 2.733l-.006-.063.006-.064v.127zm-1.773 1.623c-.955 0-1.73-.75-1.766-1.686.035-.937.81-1.687 1.766-1.687s1.73.75 1.766 1.687c-.04.936-.82 1.686-1.77 1.686zm-1.773-1.75l.006.064-.006.063v-.127zm0 0" fill="#fff"/><path d="M30.464 66.623c-.84 1.51-2.508 2.377-4.577 2.377H6.113c-2.067 0-3.737-.867-4.577-2.377-.84-1.51-.687-3.365.423-5.09l9.6-14.917C12.63 44.953 14.24 44 16 44c1.75 0 3.37.953 4.44 2.616l9.6 14.918c1.11 1.722 1.265 3.58.424 5.09zm-2.76-3.625l-9.6-14.918c-.577-.898-1.343-1.347-2.105-1.347s-1.53.45-2.11 1.347l-9.6 14.918c-1.16 1.8-.34 3.268 1.81 3.268h19.78c2.16 0 2.97-1.47 1.82-3.268zm-11.66-2.924c-.98 0-1.774-.783-1.774-1.75v-6.04c0-.967.793-1.752 1.773-1.752.98 0 1.773.785 1.773 1.75v6.04c0 .97-.793 1.752-1.773 1.752zm1.772 2.733l-.006-.063.006-.064v.127zm-1.773 1.623c-.955 0-1.73-.75-1.766-1.686.035-.937.81-1.687 1.766-1.687s1.73.75 1.766 1.687c-.04.936-.82 1.686-1.77 1.686zm-1.773-1.75l.006.064-.006.063v-.127zm0 0" fill="#67737B"/><path d="M30.464 26.623c-.84 1.51-2.508 2.377-4.577 2.377H6.113c-2.067 0-3.737-.867-4.577-2.377-.84-1.51-.687-3.365.423-5.09l9.6-14.917C12.63 4.953 14.24 4 16 4c1.75 0 3.37.953 4.44 2.616l9.6 14.918c1.11 1.722 1.265 3.58.424 5.09zm-2.76-3.625l-9.6-14.918C17.527 7.182 16.76 6.733 16 6.733s-1.524.45-2.104 1.347l-9.6 14.918c-1.158 1.8-.34 3.268 1.817 3.268h19.774c2.158 0 2.975-1.47 1.818-3.268zm-11.66-2.924c-.98 0-1.774-.783-1.774-1.75v-6.04c0-.967.793-1.752 1.773-1.752.98 0 1.773.785 1.773 1.75v6.04c0 .97-.793 1.752-1.773 1.752zm1.772 2.733l-.006-.063.006-.064v.127zm-1.773 1.623c-.955 0-1.73-.75-1.766-1.686.035-.937.81-1.687 1.766-1.687s1.73.75 1.766 1.687c-.04.936-.82 1.686-1.77 1.686zm-1.773-1.75l.006.064-.006.063v-.127zm0 0" fill="#3A434E"/></g></svg>