<svg width="32" height="232" viewBox="0 0 32 232" xmlns="http://www.w3.org/2000/svg"><g fill="none"><path d="M15.986 8c2.24 0 4.144.78 5.714 2.343.753.752 1.323 1.612 1.715 2.58.39.966.585 1.993.585 3.077 0 1.096-.194 2.12-.58 3.08-.383.956-.955 1.802-1.707 2.533-.78.773-1.666 1.364-2.657 1.774-.99.41-2.014.613-3.07.613-1.057 0-2.07-.202-3.037-.608-.97-.404-1.84-.99-2.6-1.756-.77-.768-1.35-1.63-1.75-2.592C8.19 18.08 8 17.066 8 16c0-1.056.2-2.074.606-3.05.404-.975.994-1.85 1.764-2.62C11.895 8.775 13.765 8 15.984 8zm.028 1.444c-1.828 0-3.366.638-4.615 1.914-.63.637-1.11 1.353-1.45 2.15-.34.794-.51 1.627-.51 2.492 0 .858.17 1.683.5 2.48.34.794.82 1.505 1.45 2.128.62.624 1.34 1.1 2.12 1.428.79.327 1.62.492 2.48.492.86 0 1.69-.166 2.49-.5.8-.332 1.53-.815 2.17-1.442 1.24-1.22 1.87-2.748 1.87-4.587 0-.89-.16-1.73-.49-2.52-.33-.79-.8-1.5-1.42-2.12-1.29-1.29-2.83-1.93-4.64-1.93zm-.1 5.228l-1.07.557c-.115-.24-.257-.41-.422-.5-.166-.1-.32-.15-.463-.15-.72 0-1.08.47-1.08 1.41 0 .42.09.77.27 1.03.18.25.44.38.8.38.46 0 .79-.23.98-.69l.98.5c-.21.39-.5.69-.88.92-.37.22-.78.33-1.23.33-.71 0-1.29-.22-1.73-.66-.44-.44-.66-1.05-.66-1.83 0-.76.22-1.37.66-1.82.44-.45 1-.67 1.68-.67.99 0 1.7.38 2.12 1.15zm4.614 0l-1.056.557c-.115-.24-.255-.41-.42-.5-.167-.1-.327-.15-.48-.15-.715 0-1.07.47-1.07 1.41 0 .42.09.77.272 1.03.18.25.446.38.798.38.467 0 .795-.23.985-.69l1 .5c-.22.39-.514.69-.886.92-.37.22-.77.33-1.21.33-.72 0-1.3-.22-1.73-.66-.43-.44-.65-1.05-.65-1.83 0-.76.22-1.37.67-1.82.45-.45 1.01-.67 1.68-.67.99 0 1.7.38 2.12 1.15zm0 0" fill="#3B444F"/><path d="M15.986 48c2.24 0 4.144.78 5.714 2.343.753.752 1.323 1.612 1.715 2.58.39.966.585 1.993.585 3.077 0 1.096-.194 2.12-.58 3.08-.383.956-.955 1.802-1.707 2.534-.78.773-1.666 1.364-2.657 1.773-.99.408-2.014.613-3.07.613-1.057 0-2.07-.202-3.037-.608-.97-.404-1.84-.99-2.6-1.756-.77-.767-1.35-1.63-1.75-2.592C8.19 58.08 8 57.066 8 56c0-1.056.2-2.074.606-3.048.404-.977.994-1.85 1.764-2.623 1.525-1.56 3.395-2.33 5.614-2.33zm.028 1.444c-1.828 0-3.366.638-4.615 1.914-.63.637-1.11 1.354-1.45 2.15-.34.794-.51 1.627-.51 2.492 0 .858.17 1.684.5 2.48.34.794.82 1.505 1.45 2.128.62.624 1.34 1.1 2.12 1.428.79.327 1.62.492 2.48.492.86 0 1.69-.166 2.49-.5.8-.333 1.53-.815 2.17-1.442 1.24-1.22 1.87-2.748 1.87-4.587 0-.89-.16-1.73-.49-2.52-.33-.79-.8-1.5-1.42-2.12-1.29-1.29-2.84-1.93-4.65-1.93zm-.1 5.228l-1.07.558c-.115-.24-.257-.404-.422-.5-.166-.095-.32-.143-.463-.143-.72 0-1.08.47-1.08 1.413 0 .428.09.77.27 1.03.18.257.44.386.8.386.46 0 .79-.23.98-.685l.98.5c-.21.39-.5.7-.88.92-.37.23-.78.34-1.23.34-.71 0-1.29-.22-1.73-.65-.44-.43-.66-1.04-.66-1.83 0-.76.22-1.36.66-1.81.44-.44 1-.67 1.68-.67.99 0 1.7.39 2.12 1.16zm4.614 0l-1.056.558c-.115-.24-.255-.404-.42-.5-.167-.095-.327-.143-.48-.143-.715 0-1.07.47-1.07 1.413 0 .428.09.77.272 1.03.18.257.446.386.798.386.467 0 .795-.23.985-.685l1 .5c-.22.39-.514.7-.886.92-.37.23-.77.34-1.21.34-.72 0-1.3-.22-1.73-.65-.43-.43-.65-1.04-.65-1.83 0-.76.22-1.36.67-1.81.45-.44 1.01-.67 1.68-.67.99 0 1.7.39 2.12 1.16zm0 0" fill="#67737B"/><path d="M15.986 88c2.24 0 4.144.78 5.714 2.343.753.752 1.323 1.612 1.715 2.58.39.966.585 1.993.585 3.077 0 1.096-.194 2.12-.58 3.08-.383.957-.955 1.802-1.707 2.534-.78.773-1.666 1.364-2.657 1.773-.99.41-2.014.613-3.07.613-1.057 0-2.07-.202-3.037-.608-.97-.404-1.84-.99-2.6-1.756-.77-.767-1.35-1.63-1.75-2.592C8.19 98.08 8 97.066 8 96c0-1.056.2-2.074.606-3.05.404-.976.994-1.85 1.764-2.622 1.525-1.552 3.395-2.33 5.614-2.33zm.028 1.444c-1.828 0-3.366.638-4.615 1.914-.63.637-1.11 1.353-1.45 2.15-.34.794-.51 1.627-.51 2.492 0 .858.17 1.683.5 2.48.34.794.82 1.504 1.45 2.13.62.623 1.34 1.098 2.12 1.427.79.327 1.62.492 2.48.492.86 0 1.69-.17 2.49-.5.8-.34 1.53-.82 2.17-1.45 1.24-1.22 1.87-2.75 1.87-4.59 0-.89-.16-1.73-.49-2.52-.33-.79-.8-1.5-1.42-2.12-1.29-1.29-2.84-1.93-4.65-1.93zm-.1 5.228l-1.07.558c-.115-.24-.257-.404-.422-.5-.166-.095-.32-.143-.463-.143-.72 0-1.08.47-1.08 1.413 0 .428.09.77.27 1.028.18.258.44.388.8.388.46 0 .79-.23.98-.685l.98.5c-.21.39-.5.7-.88.92-.37.23-.78.34-1.23.34-.71 0-1.29-.22-1.73-.65-.44-.44-.66-1.04-.66-1.83 0-.76.22-1.36.66-1.81.44-.44 1-.67 1.68-.67.99 0 1.7.39 2.12 1.16zm4.614 0l-1.056.558c-.115-.24-.255-.404-.42-.5-.167-.095-.327-.143-.48-.143-.715 0-1.07.47-1.07 1.413 0 .428.09.77.272 1.028.18.258.446.388.798.388.467 0 .795-.23.985-.685l1 .5c-.22.39-.514.7-.886.92-.37.23-.77.34-1.21.34-.72 0-1.3-.22-1.73-.65-.43-.44-.65-1.04-.65-1.83 0-.76.22-1.36.67-1.81.45-.44 1.01-.67 1.68-.67.99 0 1.7.39 2.12 1.16zm0 0" fill="#fff"/><path d="M15.986 128c2.24 0 4.144.78 5.714 2.343.753.752 1.323 1.612 1.715 2.58.39.966.585 1.993.585 3.077 0 1.095-.194 2.12-.58 3.08-.383.956-.955 1.802-1.707 2.533-.78.773-1.666 1.364-2.657 1.774-.99.41-2.014.613-3.07.613-1.057 0-2.07-.202-3.037-.607-.97-.404-1.84-.99-2.6-1.756-.77-.768-1.35-1.63-1.75-2.592-.41-.964-.6-1.978-.6-3.044 0-1.05.2-2.07.6-3.04.4-.97.99-1.85 1.76-2.62 1.52-1.55 3.39-2.33 5.61-2.33zm.028 1.444c-1.828 0-3.366.638-4.615 1.914-.63.637-1.11 1.353-1.45 2.15-.34.794-.51 1.627-.51 2.492 0 .858.17 1.684.5 2.48.34.794.82 1.505 1.45 2.13.62.623 1.34 1.098 2.12 1.427.79.327 1.62.492 2.48.492.86 0 1.69-.17 2.49-.5.8-.34 1.53-.82 2.17-1.45 1.24-1.22 1.87-2.75 1.87-4.59 0-.89-.16-1.73-.49-2.52-.33-.79-.8-1.5-1.42-2.12-1.29-1.29-2.84-1.93-4.65-1.93zm-.1 5.228l-1.07.558c-.115-.238-.257-.404-.422-.5-.166-.095-.32-.143-.463-.143-.72 0-1.08.47-1.08 1.413 0 .428.09.77.27 1.03.18.257.44.386.8.386.46 0 .79-.23.98-.685l.98.5c-.21.39-.5.7-.88.92-.37.23-.78.34-1.23.34-.71 0-1.29-.22-1.73-.65-.44-.43-.66-1.04-.66-1.83 0-.76.22-1.36.66-1.81.44-.44 1-.67 1.68-.67.99 0 1.7.39 2.12 1.16zm4.614 0l-1.056.558c-.115-.238-.255-.404-.42-.5-.167-.095-.327-.143-.48-.143-.715 0-1.07.47-1.07 1.413 0 .428.09.77.272 1.03.18.257.446.386.798.386.467 0 .795-.23.985-.685l1 .5c-.22.39-.514.7-.886.92-.37.23-.77.34-1.21.34-.72 0-1.3-.22-1.73-.65-.43-.43-.65-1.04-.65-1.83 0-.76.22-1.36.67-1.81.45-.44 1.01-.67 1.68-.67.99 0 1.7.39 2.12 1.16zm0 0" fill="#206FAC"/></g></svg>