<svg width="32" height="232" viewBox="0 0 32 232" xmlns="http://www.w3.org/2000/svg"><g fill="none"><path d="M3.5 141.583l12.5-12.5 3.332 3.334 9.168 9.166-3.334 3.334L16 135.75l-9.168 9.167-3.332-3.334" fill="#206FAC"/><path d="M3.5 101.583l12.5-12.5 3.332 3.334 9.168 9.166-3.334 3.334L16 95.75l-9.168 9.167-3.332-3.334" fill="#fff"/><path d="M3.5 61.583l12.5-12.5 3.332 3.334 9.168 9.166-3.334 3.334L16 55.75l-9.168 9.167L3.5 61.583" fill="#67737B"/><path d="M3.5 21.583L16 9.083l3.332 3.334 9.168 9.166-3.334 3.334L16 15.75l-9.168 9.167L3.5 21.583" fill="#3A434E"/></g></svg>