<svg width="32" height="232" viewBox="0 0 32 232" xmlns="http://www.w3.org/2000/svg"><g fill="none"><path d="M28.9 130.33c1.297 0 2.35-1.064 2.35-2.37 0-1.303-1.053-2.362-2.35-2.362-1.293 0-2.345 1.058-2.345 2.362 0 1.306 1.052 2.37 2.346 2.37m-5.81 2.834s-.42.82-.54 1.09c-.36.79-1.04 2.363-1.21 3.338-.15.843-.26 4.866-.26 4.866l-3 2.155c-.96.662-1.52 1.357-1.03 2.12.48.753 1.24.488 2.04.103l2.92-1.97c.74-.46 1.1-.658 1.49-1.538.39-.894.52-3.614.52-3.614l3.23 3.302.01 4.19c0 1.058.34 1.816 1.26 1.795.87-.01 1.14-.68 1.14-1.74 0 0 .3-4.17.03-4.69-.66-1.27-3.55-4.67-3.55-4.67l1.32-3.04c.38.64 2.54 3.85 2.54 3.85.41.61 1.09.97 1.64.58.64-.45.49-1.39-.26-2.42l-2.82-4.5c-.38-.6-.81-.77-1.44-1.15l-1.15-.56c-1.16-.44-2.83 2.53-2.83 2.53zm-7.92-5.068c1.4 0 2.53-1.14 2.53-2.547 0-1.41-1.13-2.55-2.53-2.55-1.39 0-2.53 1.14-2.53 2.55s1.14 2.54 2.53 2.54zm.41 2.398c-.4-.653-.87-.834-1.55-1.24l-1.61-.757c-.67-.28-1.45-.177-2.14.187-.35.186-6.26 4.312-6.26 4.312-.84.77-.99 1.28-.58 1.85.34.484 1.38.445 1.76.1l5.22-3.57-.66 1.092s-1.51 2.59-1.94 3.537c-.38.84-1.53 4.027-1.53 4.027l-4.15-.164c-1.21-.077-1.97.247-2.08 1.065-.13 1 .51 1.327 1.53 1.44l4.51.26c.9.043 1.62 0 2.31-.772l1.33-3.17 2.34 3.91v4.45c0 1.14.22 1.96 1.21 1.94.94-.02 1.22-.73 1.23-1.88v-4.61l-.02-.22c-.01-.23-.045-.42-.102-.59l-2.07-4.32 2.11-4.26c.4.7 2.725 4.26 2.725 4.26.446.65 1.18 1.04 1.77.62.69-.48.53-1.5-.28-2.6l-3.04-4.86zm0 0" fill="#206FAC"/><path d="M28.9 90.33c1.297 0 2.35-1.064 2.35-2.37 0-1.303-1.053-2.362-2.35-2.362-1.293 0-2.345 1.058-2.345 2.362 0 1.306 1.052 2.37 2.346 2.37m-5.81 2.834s-.42.82-.54 1.09c-.36.79-1.04 2.363-1.21 3.338-.15.843-.26 4.866-.26 4.866l-3 2.155c-.96.662-1.52 1.357-1.03 2.12.48.753 1.24.488 2.04.103l2.92-1.97c.74-.46 1.1-.658 1.49-1.538.39-.894.52-3.614.52-3.614l3.23 3.302.01 4.19c0 1.058.34 1.816 1.26 1.795.87-.01 1.14-.68 1.14-1.74 0 0 .3-4.17.03-4.69-.66-1.27-3.55-4.67-3.55-4.67l1.32-3.04c.38.64 2.54 3.85 2.54 3.85.41.61 1.09.97 1.64.58.64-.45.49-1.39-.26-2.42l-2.82-4.5c-.38-.6-.81-.77-1.44-1.15l-1.15-.56c-1.16-.44-2.83 2.53-2.83 2.53zm-7.92-5.068c1.4 0 2.53-1.14 2.53-2.547 0-1.41-1.13-2.55-2.53-2.55-1.39 0-2.53 1.14-2.53 2.55s1.14 2.54 2.53 2.54zm.41 2.398c-.4-.653-.87-.834-1.55-1.24l-1.61-.757c-.67-.28-1.45-.177-2.14.187C9.91 88.87 4 92.996 4 92.996c-.84.77-.99 1.28-.586 1.85.342.484 1.376.445 1.757.1l5.22-3.57-.65 1.092s-1.51 2.59-1.94 3.537c-.38.84-1.53 4.027-1.53 4.027l-4.15-.164c-1.21-.077-1.97.247-2.08 1.065-.13 1 .51 1.327 1.53 1.44l4.51.26c.9.043 1.62 0 2.31-.772l1.33-3.17 2.34 3.91v4.45c0 1.14.22 1.96 1.21 1.94.94-.02 1.22-.73 1.23-1.88v-4.61l-.01-.22c-.01-.23-.04-.42-.1-.59l-2.07-4.32 2.11-4.27c.41.7 2.73 4.26 2.73 4.26.45.65 1.18 1.04 1.77.62.69-.48.53-1.5-.28-2.6l-3.06-4.88zm0 0" fill="#fff"/><path d="M28.9 50.33c1.297 0 2.35-1.064 2.35-2.37 0-1.303-1.053-2.362-2.35-2.362-1.293 0-2.345 1.058-2.345 2.362 0 1.306 1.052 2.37 2.346 2.37m-5.81 2.834s-.42.82-.54 1.09c-.36.79-1.04 2.363-1.21 3.338-.15.843-.26 4.866-.26 4.866l-3 2.155c-.96.662-1.52 1.357-1.03 2.12.48.753 1.24.488 2.04.103l2.92-1.97c.74-.46 1.1-.658 1.49-1.538.39-.894.52-3.614.52-3.614l3.23 3.302.01 4.19c0 1.058.34 1.816 1.26 1.795.87-.01 1.14-.68 1.14-1.74 0 0 .3-4.17.03-4.69-.66-1.27-3.55-4.67-3.55-4.67l1.32-3.04c.38.64 2.54 3.85 2.54 3.85.41.61 1.09.97 1.64.58.64-.45.49-1.39-.26-2.42l-2.82-4.5c-.38-.6-.81-.77-1.44-1.15l-1.15-.56c-1.16-.44-2.83 2.53-2.83 2.53zm-7.92-5.068c1.4 0 2.53-1.14 2.53-2.547 0-1.41-1.13-2.55-2.53-2.55-1.39 0-2.53 1.14-2.53 2.55s1.14 2.54 2.53 2.54zm.41 2.398c-.4-.653-.87-.834-1.55-1.24l-1.61-.757c-.67-.28-1.45-.177-2.14.187C9.91 48.87 4 52.996 4 52.996c-.84.77-.99 1.28-.586 1.85.342.484 1.376.445 1.757.1l5.22-3.57-.65 1.092s-1.51 2.59-1.94 3.537c-.38.84-1.53 4.027-1.53 4.027l-4.15-.164C.9 59.79.13 60.115.02 60.933c-.132 1 .51 1.327 1.53 1.44l4.51.26c.9.043 1.615 0 2.302-.772l1.34-3.17 2.34 3.91v4.45c0 1.14.22 1.96 1.21 1.94.94-.02 1.22-.73 1.23-1.88v-4.62l-.012-.22c-.01-.23-.047-.42-.104-.59l-2.07-4.32 2.114-4.26c.4.7 2.72 4.26 2.72 4.26.444.65 1.18 1.04 1.773.62.684-.48.523-1.5-.286-2.6l-3.034-4.86zm0 0" fill="#67737B"/><path d="M28.9 10.33c1.297 0 2.35-1.064 2.35-2.37 0-1.303-1.053-2.362-2.35-2.362-1.293 0-2.345 1.058-2.345 2.362 0 1.306 1.052 2.37 2.346 2.37m-5.81 2.834s-.42.82-.54 1.09c-.36.79-1.04 2.363-1.21 3.338-.15.843-.26 4.866-.26 4.866l-3 2.155c-.96.662-1.52 1.357-1.03 2.12.48.753 1.24.488 2.04.103l2.92-1.97c.74-.46 1.1-.658 1.49-1.538.39-.894.52-3.614.52-3.614l3.23 3.302.01 4.19c0 1.058.34 1.816 1.26 1.795.87-.01 1.14-.68 1.14-1.74 0 0 .3-4.17.03-4.69-.66-1.27-3.55-4.67-3.55-4.67l1.32-3.04c.38.64 2.54 3.85 2.54 3.85.41.61 1.09.97 1.64.58.64-.45.49-1.39-.26-2.42l-2.82-4.5c-.38-.6-.81-.77-1.44-1.15l-1.15-.56c-1.16-.44-2.83 2.53-2.83 2.53zm-7.93-5.068c1.4 0 2.54-1.14 2.54-2.547C17.7 4.14 16.57 3 15.17 3c-1.397 0-2.53 1.14-2.53 2.55s1.133 2.54 2.53 2.54zm.41 2.398c-.4-.653-.87-.834-1.55-1.24l-1.62-.757c-.66-.28-1.45-.177-2.14.187C9.91 8.87 4 12.996 4 12.996c-.84.77-.99 1.28-.586 1.85.342.484 1.376.445 1.757.1l5.22-3.57-.65 1.092s-1.51 2.59-1.94 3.537c-.38.84-1.53 4.027-1.53 4.027l-4.15-.164C.9 19.79.13 20.115.02 20.933c-.132 1 .51 1.327 1.53 1.44l4.51.26c.9.043 1.615 0 2.302-.772l1.34-3.17 2.34 3.91v4.45c0 1.14.22 1.96 1.21 1.94.94-.02 1.22-.73 1.23-1.88v-4.62l-.01-.22c-.01-.23-.046-.42-.103-.59l-2.07-4.32 2.11-4.26c.4.7 2.72 4.26 2.72 4.26.44.65 1.18 1.04 1.77.62.68-.48.52-1.5-.29-2.6l-3.04-4.86zm0 0" fill="#3A434E"/></g></svg>