<svg width="32" height="232" viewBox="0 0 32 232" xmlns="http://www.w3.org/2000/svg"><g fill="none"><path d="M21.986 140.684l6.514 6.463L26.647 149l-6.463-6.413v3.206h-2.506v-7.615h7.717v2.506h-3.41zm-10.17-13.478h2.506v7.615H6.608v-2.5h3.355L3.5 125.86 5.354 124l6.463 6.362v-3.156zm0 0" fill="#206FAC"/><path d="M21.986 100.684l6.514 6.463L26.647 109l-6.463-6.413v3.206h-2.506v-7.615h7.717v2.506h-3.41zm-10.17-13.478h2.506v7.615H6.608v-2.5h3.355L3.5 85.86 5.354 84l6.463 6.362v-3.156zm0 0" fill="#fff"/><path d="M21.986 60.684l6.514 6.463L26.647 69l-6.463-6.413v3.206h-2.506v-7.615h7.717v2.506h-3.41zm-10.17-13.478h2.506v7.615H6.608v-2.5h3.355L3.5 45.86 5.354 44l6.463 6.362v-3.156zm0 0" fill="#67737B"/><path d="M21.986 20.684l6.514 6.463L26.647 29l-6.463-6.413v3.206h-2.506v-7.615h7.717v2.506h-3.41zM11.816 7.206h2.506v7.615H6.608v-2.5h3.355L3.5 5.86 5.354 4l6.463 6.362V7.206zm0 0" fill="#3A434E"/></g></svg>