<svg width="32" height="76" viewBox="0 0 32 76" xmlns="http://www.w3.org/2000/svg"><g fill="none"><path d="M30.043 47.8l-11.685-5.34c-1.075-.49-2.844-.508-3.928-.036L5.944 46.11 1.97 47.837C.887 48.307 0 47.725 0 46.542v-4.46h32v4.46c0 1.183-.882 1.75-1.957 1.257zm0 0" fill="#206FAC"/><path d="M30.043 33.76l-11.685-5.34c-1.075-.49-2.844-.508-3.928-.036L5.944 32.07 1.97 33.797C.887 34.267 0 33.685 0 32.502v-4.46h32v4.46c0 1.183-.882 1.75-1.957 1.257zm0 0" fill="#fff"/><path d="M30.043 19.718L18.358 14.38c-1.075-.492-2.844-.51-3.928-.037L5.944 18.03 1.97 19.755C.887 20.225 0 19.645 0 18.46V14h32v4.46c0 1.184-.882 1.75-1.957 1.258zm0 0" fill="#67737B"/><path d="M30.043 5.76L18.358.42c-1.075-.49-2.844-.508-3.928-.036L5.944 4.07 1.97 5.797C.887 6.267 0 5.685 0 4.502V.042h32V4.5c0 1.183-.882 1.75-1.957 1.257zm0 0" fill="#3B444F"/></g></svg>