<svg width="32" height="232" viewBox="0 0 32 232" xmlns="http://www.w3.org/2000/svg"><g fill="none"><path d="M23.232 142.623c-1.768 1.098-3.978 1.797-6.393 1.938l-4.7 4.46v-4.94c-4.45-1.22-7.64-4.45-7.64-8.28 0-4.86 5.14-8.79 11.49-8.79s11.5 3.93 11.5 8.79c0 2.73-1.64 5.18-4.21 6.79l-.07.04zm0 0" fill="#206FAC"/><path d="M23.232 102.623c-1.768 1.098-3.978 1.797-6.393 1.938l-4.7 4.46v-4.94c-4.45-1.22-7.64-4.45-7.64-8.28 0-4.86 5.14-8.8 11.49-8.8 6.35 0 11.51 3.94 11.51 8.79 0 2.74-1.64 5.18-4.21 6.8l-.07.04zm0 0" fill="#fff"/><path d="M23.232 62.623c-1.768 1.098-3.978 1.797-6.393 1.938l-4.7 4.46v-4.95c-4.45-1.22-7.64-4.45-7.64-8.28C4.5 50.94 9.64 47 15.99 47c6.35 0 11.51 3.932 11.51 8.79 0 2.732-1.636 5.18-4.202 6.792l-.067.04zm0 0" fill="#67737B"/><path d="M23.232 22.623c-1.768 1.098-3.978 1.797-6.393 1.938l-4.7 4.46v-4.95c-4.45-1.22-7.64-4.45-7.64-8.28C4.5 10.94 9.64 7 15.99 7c6.35 0 11.51 3.932 11.51 8.79 0 2.732-1.636 5.18-4.202 6.792l-.067.04zm0 0" fill="#3A434E"/></g></svg>