<svg width="32" height="232" viewBox="0 0 32 232" xmlns="http://www.w3.org/2000/svg"><g fill="none"><path d="M11.24 149.025v-6.322c-4.657-1.484-7.74-5.026-7.74-8.972 0-5.34 5.604-9.7 12.493-9.7 6.895 0 12.507 4.36 12.507 9.71 0 2.91-1.64 5.63-4.506 7.47l-.048.07-.197.09c-1.87 1.16-4.13 1.86-6.54 2.05l-5.98 5.63zm4.753-23.323c-5.954 0-10.8 3.603-10.8 8.03 0 3.355 2.86 6.384 7.117 7.542l.625.168v3.67l3.556-3.35.32-.02c2.23-.128 4.31-.75 6.02-1.79l.14-.086c2.45-1.535 3.85-3.768 3.85-6.135 0-4.42-4.85-8.02-10.81-8.02zm0 0" fill="#206FAC"/><path d="M11.24 109.025v-6.322C6.582 101.22 3.5 97.677 3.5 93.73c0-5.348 5.604-9.705 12.493-9.705 6.895 0 12.507 4.357 12.507 9.706 0 2.91-1.64 5.63-4.506 7.47l-.048.07-.197.09c-1.87 1.16-4.13 1.86-6.54 2.05l-5.98 5.63zm4.753-23.323c-5.954 0-10.8 3.603-10.8 8.03 0 3.355 2.86 6.384 7.117 7.542l.625.168v3.67l3.556-3.35.32-.02c2.23-.128 4.31-.75 6.02-1.79l.14-.086c2.45-1.535 3.85-3.768 3.85-6.135 0-4.42-4.85-8.02-10.81-8.02zm0 0" fill="#fff"/><path d="M11.24 69.025v-6.322C6.582 61.22 3.5 57.677 3.5 53.73c0-5.348 5.604-9.705 12.493-9.705 6.895 0 12.507 4.357 12.507 9.706 0 2.91-1.64 5.63-4.506 7.47l-.048.07-.197.09c-1.87 1.16-4.13 1.86-6.54 2.05l-5.98 5.63zm4.753-23.323c-5.954 0-10.8 3.603-10.8 8.03 0 3.355 2.86 6.384 7.117 7.542l.625.168v3.67l3.556-3.35.32-.02c2.23-.128 4.31-.75 6.02-1.79l.14-.086c2.45-1.535 3.85-3.768 3.85-6.135 0-4.42-4.85-8.02-10.81-8.02zm0 0" fill="#67737B"/><path d="M11.24 29.025v-6.322C6.582 21.22 3.5 17.677 3.5 13.73c0-5.348 5.604-9.705 12.493-9.705 6.895 0 12.507 4.357 12.507 9.706 0 2.91-1.64 5.63-4.506 7.47l-.048.07-.197.09c-1.87 1.16-4.13 1.86-6.54 2.05l-5.98 5.63zm4.753-23.323c-5.954 0-10.8 3.603-10.8 8.03 0 3.355 2.86 6.384 7.117 7.542l.625.168v3.67l3.556-3.35.32-.02c2.23-.128 4.31-.75 6.02-1.79l.14-.086c2.45-1.535 3.85-3.768 3.85-6.135 0-4.42-4.85-8.02-10.81-8.02zm0 0" fill="#3A434E"/></g></svg>