<svg width="32" height="232" viewBox="0 0 32 232" xmlns="http://www.w3.org/2000/svg"><g fill="none"><path d="M21.858 138.115c-.236-.92-1.167-1.475-2.087-1.233l-4.07.68v-2.203c0-.47-.02-.84-.11-1.14h.01v-.01c-.16-.57-.53-.85-1.36-.89l-.14-.01H6.21c-1.613 0-2.21.46-2.21 2.08v3.76c0 1.4.223 2.01 1.61 2.04h7.878l.32-.01c.264.04.535.02.8-.02l6.024-.97c.916-.24 1.467-1.18 1.226-2.1zM12.7 136.54c0 .444-.34.685-.753.536l-1.908-.68-1.73.535c-.43.13-.77-.12-.77-.56v-1.01c0-.44.34-.68.75-.53l1.91.68 1.72-.53c.42-.13.76.12.76.57v1.01zm14.452 5.912H4.88c-.465 0-.848.38-.848.852v5.844c0 .47.383.852.848.852h22.272c.467 0 .848-.38.848-.852v-5.844c0-.47-.38-.852-.848-.852zM10.124 131.75c2.683-.003 4.852-2.184 4.854-4.875-.002-2.69-2.172-4.875-4.854-4.875-2.68 0-4.852 2.184-4.852 4.875s2.173 4.872 4.852 4.874zm0 0" fill="#206FAC"/><path d="M21.858 98.115c-.236-.92-1.167-1.475-2.087-1.233l-4.07.68V95.36c0-.463-.02-.84-.11-1.136h.01v-.01c-.16-.567-.53-.845-1.36-.89l-.14-.007H6.21C4.596 93.317 4 93.78 4 95.4v3.766c0 1.407.223 2.01 1.61 2.042h7.878l.32-.007c.264.05.535.03.8-.01l6.024-.97c.916-.24 1.467-1.18 1.226-2.1zM12.7 96.54c0 .444-.34.685-.753.536l-1.908-.68-1.73.535c-.43.13-.77-.12-.77-.56v-1.01c0-.44.34-.68.75-.53l1.91.68 1.72-.53c.42-.13.76.12.76.57v1.01zm14.452 5.912H4.88c-.465 0-.848.38-.848.852v5.844c0 .47.383.852.848.852h22.272c.467 0 .848-.38.848-.852v-5.844c0-.47-.38-.852-.848-.852zM10.124 91.75c2.683-.003 4.852-2.184 4.854-4.875-.002-2.69-2.172-4.875-4.854-4.875-2.68 0-4.852 2.184-4.852 4.875s2.173 4.872 4.852 4.874zm0 0" fill="#fff"/><path d="M21.858 58.115c-.236-.92-1.167-1.475-2.087-1.233l-4.07.68V55.36c0-.463-.02-.84-.11-1.136h.01v-.01c-.16-.567-.53-.845-1.36-.89l-.14-.007H6.21C4.596 53.317 4 53.78 4 55.4v3.766c0 1.407.223 2.01 1.61 2.042h7.878l.32-.007c.264.05.535.03.8-.01l6.024-.97c.916-.24 1.467-1.18 1.226-2.1zM12.7 56.54c0 .444-.34.685-.753.536l-1.908-.68-1.73.535c-.43.13-.77-.12-.77-.56v-1.01c0-.44.34-.68.75-.53l1.91.68 1.72-.53c.42-.13.76.12.76.57v1.01zm14.452 5.912H4.88c-.465 0-.848.38-.848.852v5.844c0 .47.383.852.848.852h22.272c.467 0 .848-.38.848-.852v-5.844c0-.47-.38-.852-.848-.852zM10.124 51.75c2.683-.003 4.852-2.184 4.854-4.875-.002-2.69-2.172-4.875-4.854-4.875-2.68 0-4.852 2.184-4.852 4.875s2.173 4.872 4.852 4.874zm0 0" fill="#67737B"/><path d="M21.858 18.115c-.236-.92-1.167-1.475-2.087-1.233l-4.07.68V15.36c0-.463-.02-.84-.11-1.136h.01v-.01c-.16-.567-.53-.845-1.36-.89l-.14-.007H6.21C4.596 13.317 4 13.78 4 15.4v3.766c0 1.407.223 2.01 1.61 2.042h7.878l.32-.007c.264.05.535.03.8-.01l6.024-.97c.916-.24 1.467-1.18 1.226-2.1zM12.7 16.54c0 .444-.34.685-.753.536l-1.908-.68-1.73.535c-.43.13-.77-.12-.77-.56v-1.01c0-.44.34-.68.75-.53l1.91.68 1.72-.53c.42-.13.76.12.76.57v1.01zm14.452 5.912H4.88c-.465 0-.848.38-.848.852v5.844c0 .47.383.852.848.852h22.272c.467 0 .848-.38.848-.852v-5.844c0-.47-.38-.852-.848-.852zM10.124 11.75c2.683-.003 4.852-2.184 4.854-4.875C14.976 4.185 12.806 2 10.124 2c-2.68 0-4.852 2.184-4.852 4.875s2.173 4.872 4.852 4.874zm0 0" fill="#3A434E"/></g></svg>