<svg width="32" height="232" viewBox="0 0 32 232" xmlns="http://www.w3.org/2000/svg"><g fill="none"><path d="M14.08 134.58c2.474-2.472 5.338-4.836 6.47-3.704 1.623 1.62 2.62 3.033 6.195.16 3.575-2.873.83-4.787-.74-6.36-1.812-1.81-8.57-.095-15.248 6.583-6.677 6.67-8.395 13.43-6.58 15.24 1.57 1.57 3.483 4.31 6.356.74 2.873-3.57 1.462-4.58-.16-6.2-1.132-1.13 1.232-4 3.706-6.47" fill="#206FAC"/><path d="M14.08 94.58c2.474-2.472 5.338-4.836 6.47-3.704 1.623 1.62 2.62 3.033 6.195.16 3.575-2.873.83-4.787-.74-6.36-1.812-1.81-8.57-.095-15.248 6.583-6.677 6.67-8.395 13.43-6.58 15.24 1.57 1.57 3.483 4.31 6.356.74 2.873-3.57 1.462-4.58-.16-6.2-1.132-1.13 1.232-4 3.706-6.47" fill="#fff"/><path d="M14.08 54.58c2.474-2.472 5.338-4.836 6.47-3.704 1.623 1.62 2.62 3.033 6.195.16 3.575-2.873.83-4.787-.74-6.36-1.812-1.81-8.57-.095-15.248 6.583-6.677 6.67-8.395 13.43-6.58 15.24 1.57 1.57 3.483 4.31 6.356.74 2.873-3.58 1.462-4.58-.16-6.2-1.132-1.13 1.232-4 3.706-6.47" fill="#67737B"/><path d="M14.08 14.58c2.474-2.472 5.338-4.836 6.47-3.704 1.623 1.62 2.62 3.033 6.195.16 3.575-2.873.83-4.787-.74-6.36-1.812-1.81-8.57-.095-15.248 6.583-6.677 6.67-8.395 13.43-6.58 15.24 1.57 1.57 3.483 4.31 6.356.74 2.873-3.58 1.462-4.58-.16-6.2-1.132-1.13 1.232-4 3.706-6.47" fill="#3A434E"/></g></svg>