<svg width="32" height="232" viewBox="0 0 32 232" xmlns="http://www.w3.org/2000/svg"><g fill="none"><path d="M28.233 128c-2.072 0-3.75 1.68-3.75 3.755 0 2.076 3.75 5.26 3.75 5.26s3.75-3.184 3.75-5.26c0-2.074-1.677-3.755-3.75-3.755zm-.003 4.87c-.658 0-1.192-.538-1.192-1.2.002-.66.537-1.195 1.197-1.194.66 0 1.195.537 1.194 1.2-.01.66-.54 1.195-1.2 1.194zm-27.12 5.055c.622 0 1.126.506 1.126 1.13 0 .62-.504 1.127-1.126 1.127-.623 0-1.127-.507-1.127-1.128 0-.623.504-1.13 1.127-1.13zm27.107 1c.622 0 1.128.504 1.128 1.128 0 .623-.506 1.127-1.128 1.127-.62 0-1.127-.504-1.127-1.127 0-.624.506-1.13 1.127-1.13zm-5.875 4.917l-.038.01c-.71.17-1.41.228-2.077.172-.267-.022-.465-.257-.444-.525.022-.27.256-.47.522-.45.568.05 1.165 0 1.776-.15.26-.06.52.1.59.36.06.25-.08.5-.32.57zm2.03-.782c-.22.07-.465-.025-.576-.236-.126-.238-.036-.532.2-.656.673-.358 1.22-.748 1.557-1.012.21-.166.515-.13.68.083.165.21.127.51-.084.68-.37.29-.96.71-1.7 1.1l-.08.03zm-6.037.337c-.12.038-.254.03-.373-.032-.584-.306-1.147-.72-1.67-1.23-.19-.186-.195-.495-.008-.686.187-.2.494-.2.686-.01.455.44.94.8 1.44 1.06.24.12.33.42.208.65-.06.11-.166.2-.282.23zm-2.924-2.84c-.2.065-.43-.01-.55-.2-.15-.24-.31-.494-.46-.756-.17-.31-.36-.6-.55-.88-.15-.22-.1-.52.12-.67.22-.15.53-.1.68.12.21.3.41.62.6.96.14.25.29.49.43.71.15.23.09.53-.14.67l-.11.06zm-2.47-3.274c-.15.048-.33.02-.46-.092-.47-.4-.98-.71-1.51-.92-.25-.09-.37-.38-.27-.63.1-.25.38-.37.63-.27.63.26 1.23.62 1.78 1.09.21.17.23.48.06.69-.06.07-.14.13-.22.15zm-9.34.728c-.18.06-.39.01-.52-.15-.17-.2-.14-.51.07-.68.03-.02.68-.56 1.71-1.11.24-.12.53-.03.66.2.13.24.04.53-.2.66-.94.5-1.54 1-1.55 1l-.16.09zm5.57-2.14l-.15.03c-.57 0-1.17.09-1.79.26-.25.07-.52-.08-.59-.34-.07-.26.08-.52.34-.6.7-.19 1.39-.29 2.05-.28.27 0 .49.22.49.49 0 .22-.14.4-.33.46zm0 0" fill="#206FAC"/><path d="M28.233 88c-2.072 0-3.75 1.68-3.75 3.755 0 2.076 3.75 5.26 3.75 5.26s3.75-3.184 3.75-5.26c0-2.074-1.677-3.755-3.75-3.755zm-.003 4.87c-.658 0-1.192-.538-1.192-1.2.002-.66.537-1.195 1.197-1.194.66 0 1.195.537 1.194 1.2-.01.66-.54 1.195-1.2 1.194zM1.11 97.925c.622 0 1.126.506 1.126 1.13 0 .62-.504 1.127-1.126 1.127-.623 0-1.127-.507-1.127-1.128 0-.623.504-1.13 1.127-1.13zm27.107 1c.622 0 1.128.504 1.128 1.128 0 .623-.506 1.127-1.128 1.127-.62 0-1.127-.504-1.127-1.127 0-.624.506-1.13 1.127-1.13zm-5.875 4.917l-.038.01c-.71.17-1.41.228-2.077.172-.267-.022-.465-.257-.444-.525.022-.27.256-.47.522-.45.568.05 1.165 0 1.776-.15.26-.06.52.1.59.36.06.25-.08.5-.32.57zm2.03-.782c-.22.07-.465-.025-.576-.236-.126-.238-.036-.532.2-.656.673-.358 1.22-.748 1.557-1.012.21-.166.515-.13.68.083.165.21.127.51-.084.68-.37.29-.96.71-1.7 1.1l-.08.03zm-6.037.337c-.12.038-.254.03-.373-.032-.584-.306-1.147-.72-1.67-1.23-.19-.186-.195-.495-.008-.686.187-.2.494-.2.686-.01.455.44.94.8 1.44 1.06.24.12.33.42.208.65-.06.11-.166.2-.282.23zm-2.924-2.84c-.2.065-.43-.01-.55-.2-.15-.24-.31-.494-.46-.756-.17-.31-.36-.6-.55-.88-.15-.22-.1-.52.12-.67.22-.15.53-.1.68.12.21.3.41.62.6.96.14.25.29.49.43.71.15.23.09.53-.14.67l-.11.06zm-2.47-3.274c-.15.048-.33.02-.46-.092-.47-.4-.98-.71-1.51-.92-.25-.09-.37-.38-.27-.63.1-.25.38-.37.63-.27.63.26 1.23.62 1.78 1.09.21.17.23.48.06.69-.06.07-.14.13-.22.15zm-9.34.727c-.18.06-.39.008-.52-.15-.17-.205-.14-.51.07-.682.03-.024.68-.564 1.71-1.11.24-.127.53-.036.66.202.13.235.04.53-.2.655-.94.498-1.54.995-1.55.998l-.16.09zm5.57-2.14l-.15.027c-.57 0-1.17.084-1.79.253-.25.07-.52-.08-.59-.34-.07-.26.08-.526.34-.6.7-.19 1.39-.29 2.05-.285.27 0 .49.216.49.486 0 .22-.14.4-.33.46zm0 0" fill="#fff"/><path d="M28.233 48c-2.072 0-3.75 1.68-3.75 3.755 0 2.076 3.75 5.26 3.75 5.26s3.75-3.184 3.75-5.26c0-2.074-1.677-3.755-3.75-3.755zm-.003 4.87c-.658 0-1.192-.538-1.192-1.2.002-.66.537-1.195 1.197-1.194.66 0 1.195.537 1.194 1.2-.01.66-.54 1.195-1.2 1.194zM1.11 57.925c.622 0 1.126.506 1.126 1.13 0 .62-.504 1.127-1.126 1.127-.623 0-1.127-.507-1.127-1.128 0-.623.504-1.13 1.127-1.13zm27.107 1c.622 0 1.128.504 1.128 1.128 0 .623-.506 1.127-1.128 1.127-.62 0-1.127-.504-1.127-1.127 0-.624.506-1.13 1.127-1.13zm-5.875 4.917l-.038.01c-.71.17-1.41.228-2.077.172-.267-.022-.465-.257-.444-.525.022-.27.256-.47.522-.45.568.05 1.165 0 1.776-.15.26-.06.52.1.59.36.06.25-.08.5-.32.57zm2.03-.782c-.22.07-.465-.025-.576-.236-.126-.238-.036-.532.2-.656.673-.358 1.22-.748 1.557-1.012.21-.166.515-.13.68.083.165.21.127.51-.084.68-.37.29-.96.71-1.7 1.1l-.08.03zm-6.037.337c-.12.038-.254.03-.373-.032-.584-.306-1.147-.72-1.67-1.23-.19-.186-.195-.495-.008-.686.187-.2.494-.2.686-.01.455.44.94.8 1.44 1.06.24.12.33.42.208.65-.06.11-.166.2-.282.23zm-2.924-2.84c-.2.065-.43-.01-.55-.2-.15-.24-.31-.494-.46-.756-.17-.31-.36-.6-.55-.88-.15-.22-.1-.52.12-.67.22-.15.53-.1.68.12.21.3.41.62.6.96.14.25.29.49.43.71.15.23.09.53-.14.67l-.11.06zm-2.47-3.274c-.15.048-.33.02-.46-.092-.47-.4-.98-.71-1.51-.92-.25-.09-.37-.38-.27-.63.1-.25.38-.37.63-.27.63.26 1.23.62 1.78 1.09.21.17.23.48.06.69-.06.07-.14.13-.22.15zm-9.34.727c-.18.06-.39.008-.52-.15-.17-.205-.14-.51.07-.682.03-.024.68-.564 1.71-1.11.24-.127.53-.036.66.202.13.235.04.53-.2.655-.94.498-1.54.995-1.55.998l-.16.09zm5.57-2.14l-.15.027c-.57 0-1.17.084-1.79.253-.25.07-.52-.08-.59-.34-.07-.26.08-.526.34-.6.7-.19 1.39-.29 2.05-.285.27 0 .49.216.49.486 0 .22-.14.4-.33.46zm0 0" fill="#67737B"/><path d="M28.233 8c-2.072 0-3.75 1.68-3.75 3.755 0 2.076 3.75 5.26 3.75 5.26s3.75-3.184 3.75-5.26C31.983 9.68 30.306 8 28.233 8zm-.003 4.87c-.658 0-1.192-.538-1.192-1.2.002-.66.537-1.195 1.197-1.194.66 0 1.195.537 1.194 1.2-.01.66-.54 1.195-1.2 1.194zM1.11 17.925c.622 0 1.126.506 1.126 1.13 0 .62-.504 1.127-1.126 1.127-.623 0-1.127-.507-1.127-1.128 0-.623.504-1.13 1.127-1.13zm27.107 1c.622 0 1.128.504 1.128 1.128 0 .623-.506 1.127-1.128 1.127-.62 0-1.127-.504-1.127-1.127 0-.624.506-1.13 1.127-1.13zm-5.875 4.917l-.038.01c-.71.17-1.41.228-2.077.172-.267-.022-.465-.257-.444-.525.022-.27.256-.47.522-.45.568.05 1.165 0 1.776-.15.26-.06.52.1.59.36.06.25-.08.5-.32.57zm2.03-.782c-.22.07-.465-.025-.576-.236-.126-.238-.036-.532.2-.656.673-.358 1.22-.748 1.557-1.012.21-.166.515-.13.68.083.165.21.127.51-.084.68-.37.29-.96.71-1.7 1.1l-.08.03zm-6.037.337c-.12.038-.254.03-.373-.032-.584-.306-1.147-.72-1.67-1.23-.19-.186-.195-.495-.008-.686.187-.2.494-.2.686-.01.455.44.94.8 1.44 1.06.24.12.33.42.208.65-.06.11-.166.2-.282.23zm-2.924-2.84c-.2.065-.43-.01-.55-.2-.15-.24-.31-.494-.46-.756-.17-.31-.36-.6-.55-.88-.15-.22-.1-.52.12-.67.22-.15.53-.1.68.12.21.3.41.62.6.96.14.25.29.49.43.71.15.23.09.53-.14.67l-.11.06zm-2.47-3.274c-.15.048-.33.02-.46-.092-.47-.4-.98-.71-1.51-.92-.25-.09-.37-.38-.27-.63.1-.25.38-.37.63-.27.63.26 1.23.62 1.78 1.09.21.17.23.48.06.69-.06.07-.14.13-.22.15zm-9.34.727c-.18.06-.39.008-.52-.15-.17-.205-.14-.51.07-.682.03-.024.68-.564 1.71-1.11.24-.127.53-.036.66.202.13.235.04.53-.2.655-.94.498-1.54.995-1.55.998l-.16.09zm5.57-2.14l-.15.027c-.57 0-1.17.084-1.79.253-.25.07-.52-.08-.59-.34-.07-.26.08-.526.34-.6.7-.19 1.39-.29 2.05-.285.27 0 .49.216.49.486 0 .22-.14.4-.33.46zm0 0" fill="#3A434E"/></g></svg>