<svg width="32" height="232" viewBox="0 0 32 232" xmlns="http://www.w3.org/2000/svg"><g fill="none"><path d="M6.248 149C5.56 149 5 148.432 5 147.73v-22.46c0-.702.56-1.27 1.248-1.27.692 0 1.33.568 1.33 1.27v22.46c0 .702-.638 1.27-1.33 1.27zm14.76-8.48c-2.744 0-5.78-1.973-8.222-1.973H8.9v-13.795h3.886c2.443 0 5.478 1.973 8.22 1.973 3.23 0 5.994-1.973 5.994-1.973v13.795s-2.764 1.974-5.993 1.974zm0 0" fill="#206FAC"/><path d="M6.248 109C5.56 109 5 108.432 5 107.73V85.27c0-.702.56-1.27 1.248-1.27.692 0 1.33.568 1.33 1.27v22.46c0 .702-.638 1.27-1.33 1.27zm14.76-8.48c-2.744 0-5.78-1.973-8.222-1.973H8.9V84.752h3.886c2.443 0 5.478 1.973 8.22 1.973 3.23 0 5.994-1.973 5.994-1.973v13.795s-2.764 1.974-5.993 1.974zm0 0" fill="#fff"/><path d="M6.248 69C5.56 69 5 68.432 5 67.73V45.27c0-.702.56-1.27 1.248-1.27.692 0 1.33.568 1.33 1.27v22.46c0 .702-.638 1.27-1.33 1.27zm14.76-8.48c-2.744 0-5.78-1.973-8.222-1.973H8.9V44.752h3.886c2.443 0 5.478 1.973 8.22 1.973 3.23 0 5.994-1.973 5.994-1.973v13.795s-2.764 1.974-5.993 1.974zm0 0" fill="#67737B"/><path d="M6.248 29C5.56 29 5 28.432 5 27.73V5.27C5 4.568 5.56 4 6.248 4c.692 0 1.33.568 1.33 1.27v22.46c0 .702-.638 1.27-1.33 1.27zm14.76-8.48c-2.744 0-5.78-1.973-8.222-1.973H8.9V4.752h3.886c2.443 0 5.478 1.973 8.22 1.973 3.23 0 5.994-1.973 5.994-1.973v13.795s-2.764 1.974-5.993 1.974zm0 0" fill="#3A434E"/></g></svg>