<svg width="32" height="232" viewBox="0 0 32 232" xmlns="http://www.w3.org/2000/svg"><g fill="none"><path d="M9.725 137.813c.276-.29.32-.463.336-.504h.08c.18.12.36.52.73.59.34.08.6 0 .6 0s.31 0 .44-.04c.2-.08.27-.04.29-.02.04.05.03.17-.05.28-.18.28-.68.61-1.61.32-.43-.14-.8-.65-.8-.65zm.685-1.67l-.25-.018c-.105-.013-.297-.05-.37-.18.045-.152.173-.325.287-.414.188-.17.576-.25.853-.25.297 0 .888.1 1.12.26.29.22.5.62.37.81-.033.05-.06.07-.14.03-.314-.24-.56-.28-.56-.28l-.234-.09c-.472-.15-.987-.09-1.077.15zm-1.32.94c-.06-.033-.288-.18-.286-.348.002-.138.168-.28.186-.288l.36-.037c.288-.028 1.152.034 1.54.094.427.067 1.348.318 1.685.428 1.145.344.65.4-.087.345.02.008-.995-.084-1.918-.163-.67-.057-.997-.106-1.478-.032zm17.695-.264c-.083-.6-.322-2.21-.47-2.82.105-.12.154-.28.118-.38-.057-.16-.263-.21-.473-.25l-.044-.17c.122-.83.054-1.75-.097-2.31-.18-.66-.39-1.1-1.03-1.56-1.05-.76-2.58-.85-3.68-.46-.41.14-.88.33-1.29.75-.07.07-.39.41-.36.79-.27-.15-1.33-1.05-2.51-1.38.25-.04.52-.09.61-.36.25-.73-1.33-1.14-2.38-.97-.7.11-1.34.23-2.05.54-1.16.5-2.3 1.06-3.08 2.06-.59.75-1.01 1.81-1.01 1.81s-1.82-.18-1.76-.16c-.35-.018-.64-.018-.81.01l-.06-.208c-.45-.376-.7-.054-.77.14l-.01.05s.47 2.45.61 3.34c.31 1.92.34 2.292.41 2.78-.4.04-.71.21-.89.45-.11.15-.26.453-.3.74 0 0-.31.124-.42.416-.13.32-.12.7.09 1.32.2.61.83 1.52 1.16 1.85.29.3.57.4.96.38.11 1.09.31 3.475.31 3.475s.3 2.18.3 2.133c.082.49.185.88.274.892-.037.18.14.277.25.31l.98-.21c.382-.08 1.2-.21 1.7-.265l-.16 1.15s.11.52.14.5c.147.29.41.27.577.02.17-.184.31-.455.31-.455s.164-1.176.18-1.32c0 0 1.82-.21 2.23-.24.66-.1 1.08-.24 0-.295-.72-.034-1.86-.07-2.932.06-.64.08-2.42.295-3.17.56.15-.873.145-2.795.14-2.794l-.2-2.304-.13-1.32c.4-.05.88.02 1.18-.21.4-.31.437-.77.447-1.19.005-.27-.02-.546-.06-.817l-.02-.12.05.016c.69.17 1.84.43 2.36.56l.42.108.74.144.69.13c.303.05.56.08.62.044.07-.03-.055-.13-.516-.326-.54-.24-1.34-.5-1.34-.5l-.49-.12c-.55-.14-1.68-.4-2.363-.56l-.32-.124c-.047-.187-.226-.5-.328-.63-.22-.294-.59-.414-.93-.444-.25-.02-.5-.07-.6-.03.13-.13-.02-.59-.154-.71h.06c-.18-1.534-.465-3.15-.465-3.15-.12-.79-.55-3.02-.55-3.02.396.18 2.728.76 2.728.76 5.18.95 8.32 1.19 10.13 1.24 1.81.05 3.552-.06 4.97-.25l.72-.1-.258.91c-.14.5-.89 3.05-.99 3.43l-.15.623s-.37 1.994-.373 2.514c-.04.05-.106.194-.1.213.003.03.11.58.344 1.33.26.86 1.24 3.43 1.24 3.43s1.08 2.493 1.25 2.683c-.134-.04-.38-.084-.75-.134-.87-.14-2.11-.26-2.11-.26s-3.09-.098-4.06-.09c-1.37.01-3.25.1-3.28.12-.5.39-.15.7.05.79.02.02.59-.05 1.36-.086.75-.04 2.93-.03 3.04-.03.14.575.257.98.256.98 0 0 .57 1.27.576 1.24.294.5.63.77.587-.154.01-.55-.09-1.3-.09-1.3l-.19-.74 1.62.05s1.91-.05 2.216-.09c.46-.04.84-.11.92-.18.02-.02.05-.345-.066-.95-.166-.875-.52-2.04-.52-2.04s-.58-1.53-.77-2.055c.833-.436 1.342-1.12 1.546-1.46.34-.58.523-1.36.58-1.94.105-1.13.01-2.57-.17-3.86zm-20.007 1.83c.41-.02.566.18.674.32.04.05.12.15.192.13-.047.1.472.28.553.32.22.08.454.17.586.37.16.24.21.55.282.81.08.28.095.56.115.86.026.38.063 1.12-.428 1.13-.11 0-.87.04-1.276.13-.112.02-.35.05-.504-.02-.158-.07-.27-.21-.38-.34-.215-.24-.624-.91-.697-1.04-.164-.3-.306-.68-.342-1.03-.014-.14-.022-.28.046-.4.08-.15.28-.1.4-.19l.04-.33c.05-.36.23-.73.73-.75zm12.712-5.24c-1.737-.04-3.536-.22-5.157-.45-1.622-.23-3.07-.47-4.117-.65l-.034-.01c.313-.71.758-1.55 1.475-2.03.707-.48 1.594-.96 2.45-1.22.736-.22 1.882-.54 2.653-.05-.1 0-.09.1.046.23.42.41 1.107.91 1.93 1.75.555.56 1.568 1.66 1.95 2.39-.396 0-.788.01-1.195 0zm2.385-.03c-.232-.5-.532-.98-.817-1.36 0 0-.376-.52-.812-.93.34 0 .866-.49 1.174-.72l.28-.19c.386-.23.93-.4 1.83.08-.18.04-.97.36-1.254.74-.247.33-.19.74.08 1.1.41.56.968.8 1.35.73.163-.03.46-.26.496-.3l.166.6c-.64.08-1.638.18-2.496.22zm2.613-.24c.033-.44.04-.9.026-1.05l-.015-.3-.38.27c-.08.06-.42.29-.51.29-.19 0-.54-.2-.77-.48-.07-.09-.3-.42-.27-.57.05-.31.72-.92.98-1.03l.07.02-.03-.04.09-.04-.1.02c-.02-.03-.15-.16-.31-.27-.29-.2-.85-.49-1.56-.26-.5.16-1.14.63-1.26.72-.18.11-.33.16-.43-.02-.06-.12.08-.34.33-.57.35-.34.94-.59 1.26-.68 1.42-.39 2.46.14 2.72.26.74.35.97.86 1.07 1.07.3.65.49 1.68.45 2.63-.07-.08-.18-.16-.27-.18-.04 0-.48.08-1.13.17zm1.668 7.37c-.066.6-.194 1.16-.433 1.63-.235.47-.584.84-.96 1.13l-.17.12c-.12-.36-.46-1.34-.57-2 .406-.41.613-1.47.665-1.82.077-.51.105-1.37.08-1.67.09-.34.203-.74.325-1.15l.534-1.78.18-.64c.118-.01.332-.18.394-.25-.02.45 0 2.14.01 2.73.01.58.03 1.2.03 1.82 0 .62-.01 1.25-.07 1.85zm-3.122-3.58c.107-.44-.344-.75-.903-.81-.21-.02-.68-.04-1.04.01l-.05.13-.18.1s.11.5.26.96c.15.46.32.9.32.9s.29.51.29.48c.15.19.31.29.29-.1 0-.24-.06-.54-.06-.54l-.12-.34c.64-.13 1.12-.45 1.21-.82zm-1.297.56c-.033-.1-.215-.65-.258-.85.1-.01.44-.02.68.02.12.02.31.06.32.13.01.06-.34.33-.48.45l-.28.23zm-1.284-.89c-.207-.16-.428-.13-.514-.1-.01 0-.12.49-.21.96-.11.47-.19.94-.19.94-.01 0-.01.59.01.57.03.24.13.4.3.04.11-.21.22-.5.22-.5l.04-.23h.25l.13-.14.08.15s.31.38.32.36c.15.14.32.19.27-.14-.02-.2-.1-.45-.1-.45s-.2-.35-.36-.71c-.15-.32-.25-.64-.27-.72l-.01-.06zm-.23 1.16l.027-.13.06.13h-.087zm-2.884-1.33c-.23-.12-.44-.07-.52-.03l-.02.01-.13 1.95s.06.59.07.56c.05.23.17.39.3.02.09-.22.16-.53.16-.53l.04-.69c.2.4.41.63.66.91l.01-.01.02-.03c.33-.36.54-.69.74-1.09l.06.7.12.42c.07.17.19.3.3 0 .08-.18.12-.44.12-.44l-.07-.77c-.04-.38-.05-.757-.05-.76l-.02-.02c-.24-.08-.437-.034-.51.006l-.01.01.01.34-.13.174c-.05.07-.36.48-.54.66-.05.05-.05-.02-.12-.132-.06-.11-.23-.43-.29-.585l-.21-.545-.03-.024.01-.106-.02-.02zm-1.68 5.91c.02 0 .39.02.92.01.62-.01 1.44-.05 2.21-.14.77-.09 1.5-.22 1.96-.32l.43-.1s1.13-.37 1.39-.53c.28-.14.5-.27.52-.34.03-.09-.22-.03-.7.07-.45.09-2.69.6-3.71.68-.76.06-1.67.15-3.03.11l-.05.01c-.3.22-.14.42-.02.5l.03.02zm-.4 1.54c-.02-.52-.04-.88-.04-.9l-.03-.04c-.25-.27-.44-.09-.51.03l-.01.03c0 .02.02.37.03.88l.08 3.04s.04.37.09.74.13.72.13.69c.07.3.17.53.23.57.06.04.08-.12.07-.6 0-.57.02-1.38.02-1.38-.07-.99-.07-2.34-.09-3.1zm.34-6.13c.08-.87.51-3.15.52-3.17l-.02-.05c-.18-.32-.41-.2-.51-.09l-.02.03c-.01.02-.42 2.15-.51 3.11-.09.89-.18 2.43-.18 2.43s.01 1.5.02 1.44c.02.6.12.99.3.03.12-.56.21-1.37.21-1.37s.08-1.6.16-2.37zm6.6-6.97c-.07.07-.42.14-.42.14s-.56.21-.65.27c-.1.05-.4.17-.4.17s.19.12.62 0c.13-.04.26-.1.36-.15.2-.11.38-.31.48-.44zm-2.38-2.1l.26-.1s.63-.31.96-.34c-.01 0-.64-.08-1.05.09-.34.13-.59.38-.68.53 0-.01.3-.09.51-.18zm-2.85-7.03l-.08.06c-.45.13-.65-.03-.73-.12-.07-.09-.18-.37-.11-.54.01-.01.29-.35.45-.48.58-.45 1.46-.76 2.28-.54.36.1 1.26.45 1.29 1.61.01.41-.11.8-.3 1.04-.21.3-.7.653-1.35.84-.24.083-.87.27-.96.29-.19.044-.26.03-.25-.04.01-.185.71-.64.97-.8.61-.42 1.07-.7.84-1.43-.07-.17-.18-.374-.48-.485-1.04-.21-1.58.552-1.59.562zm-.45 3.23c.03-.26.47-.44.67-.34.2.1.41.65.25.91-.15.23-.65.26-.79.02-.11-.19-.16-.41-.14-.59zm0 0" fill="#fff"/><path d="M9.725 57.813c.276-.29.32-.463.336-.504h.08c.18.12.36.52.73.59.34.08.6 0 .6 0s.31 0 .44-.04c.2-.08.27-.04.29-.02.04.05.03.17-.05.28-.18.28-.68.61-1.61.32-.43-.14-.8-.65-.8-.65zm.685-1.67l-.25-.018c-.105-.013-.297-.05-.37-.18.045-.152.173-.325.287-.414.188-.17.576-.25.853-.25.297 0 .888.1 1.12.26.29.22.5.62.37.81-.033.05-.06.07-.14.03-.314-.24-.56-.28-.56-.28l-.234-.1c-.472-.15-.987-.09-1.077.15zm-1.32.94c-.06-.033-.288-.18-.286-.348.002-.138.168-.28.186-.288l.36-.037c.288-.028 1.152.034 1.54.094.427.067 1.348.318 1.685.428 1.145.344.65.4-.087.345.02.008-.995-.084-1.918-.163-.67-.057-.997-.106-1.478-.032zm17.695-.264c-.083-.6-.322-2.21-.47-2.82.105-.12.154-.28.118-.38-.057-.16-.263-.21-.473-.25l-.044-.17c.122-.83.054-1.75-.097-2.31-.18-.66-.39-1.1-1.03-1.56-1.05-.76-2.58-.85-3.68-.46-.41.14-.88.33-1.29.75-.07.07-.39.41-.36.79-.27-.15-1.33-1.05-2.51-1.38.25-.04.52-.09.61-.36.25-.73-1.33-1.14-2.38-.97-.7.11-1.34.23-2.05.54-1.16.5-2.3 1.06-3.08 2.06-.59.75-1.01 1.81-1.01 1.81s-1.82-.18-1.76-.16c-.35-.018-.64-.018-.81.01l-.06-.208c-.45-.376-.7-.054-.77.14l-.01.05s.47 2.45.61 3.34c.31 1.92.34 2.292.41 2.78-.4.04-.71.21-.89.45-.11.15-.26.453-.3.74 0 0-.31.124-.42.416-.13.32-.12.7.09 1.32.2.61.83 1.52 1.16 1.85.29.3.57.4.96.38.11 1.09.31 3.475.31 3.475s.3 2.18.3 2.133c.082.49.185.88.274.892-.037.18.14.277.25.31l.98-.21c.382-.08 1.2-.21 1.7-.265l-.16 1.15s.11.52.14.5c.147.29.41.27.577.02.17-.184.31-.455.31-.455s.164-1.176.18-1.32c0 0 1.82-.21 2.23-.24.66-.1 1.08-.24 0-.295-.72-.034-1.86-.07-2.932.06-.64.08-2.42.295-3.17.56.15-.873.145-2.795.14-2.794l-.193-2.3-.13-1.323c.39-.05.88.02 1.18-.215.4-.31.43-.77.44-1.19.006-.27-.02-.54-.058-.81l-.018-.11.05.02c.692.166 1.84.43 2.36.56l.42.1.74.142.69.132c.3.05.554.08.62.05.064-.04-.058-.14-.52-.33-.535-.24-1.33-.5-1.33-.5l-.498-.12c-.55-.14-1.68-.4-2.37-.56l-.32-.13c-.04-.19-.22-.5-.32-.63-.23-.296-.6-.416-.94-.446-.25-.02-.51-.07-.6-.04.12-.13-.03-.586-.16-.71h.06c-.18-1.535-.47-3.15-.47-3.15-.115-.79-.55-3.02-.55-3.02.397.18 2.73.757 2.73.757 5.176.944 8.317 1.19 10.126 1.234 1.81.05 3.56-.06 4.976-.242l.72-.1-.25.91c-.145.5-.89 3.05-.99 3.433l-.16.625s-.364 1.99-.37 2.51c-.04.05-.1.2-.1.216.007.03.11.58.35 1.33.26.86 1.24 3.434 1.24 3.434s1.08 2.5 1.26 2.69c-.14-.04-.38-.09-.75-.14-.87-.13-2.116-.26-2.117-.26 0 0-3.09-.09-4.06-.09-1.37.01-3.25.1-3.28.13-.5.392-.14.702.05.794.03.02.59-.05 1.37-.08.755-.04 2.93-.03 3.04-.03.14.575.26.98.26.98s.574 1.27.576 1.24c.29.5.63.77.587-.15.007-.55-.09-1.3-.09-1.3l-.193-.74 1.62.05s1.906-.05 2.21-.094c.467-.04.847-.11.92-.186.02-.02.056-.34-.06-.95-.162-.87-.52-2.04-.515-2.04 0 0-.58-1.53-.77-2.05.836-.434 1.345-1.116 1.55-1.46.336-.576.52-1.36.58-1.94.104-1.13.01-2.57-.17-3.86zM6.778 58.65c.41-.016.566.188.674.32.04.05.12.15.192.135-.047.102.472.287.553.318.22.08.454.17.586.37.16.24.21.556.282.81.08.282.095.566.115.86.026.384.063 1.124-.428 1.13-.11.003-.87.044-1.276.13-.112.026-.35.05-.504-.016-.158-.066-.27-.21-.38-.333-.215-.24-.624-.908-.697-1.04-.164-.3-.306-.68-.342-1.032-.014-.133-.022-.274.046-.396.08-.146.28-.095.4-.183l.04-.334c.05-.36.23-.73.73-.75zm12.712-5.238c-1.737-.038-3.536-.222-5.157-.445-1.622-.225-3.07-.472-4.117-.643l-.034-.004c.313-.71.758-1.542 1.475-2.03.707-.48 1.594-.96 2.45-1.216.736-.22 1.882-.538 2.653-.045-.1 0-.09.1.046.23.42.41 1.107.91 1.93 1.75.555.56 1.568 1.66 1.95 2.39-.396 0-.788.01-1.195 0zm2.385-.032c-.232-.494-.532-.976-.817-1.356 0 0-.376-.522-.812-.93.34-.002.866-.49 1.174-.72l.28-.188c.386-.232.93-.395 1.83.085-.18.05-.97.36-1.254.74-.247.34-.19.74.08 1.11.41.56.968.8 1.35.74.163-.02.46-.26.496-.3l.166.61c-.64.09-1.638.18-2.496.23zm2.613-.24c.033-.434.04-.895.026-1.05l-.014-.29-.38.27c-.08.06-.418.29-.507.294-.186.004-.537-.2-.766-.48-.072-.086-.295-.417-.27-.567.05-.305.718-.914.98-1.03l.07.018-.027-.036.09-.04-.097.02c-.02-.03-.144-.16-.306-.27-.284-.2-.843-.49-1.556-.26-.5.16-1.14.63-1.26.71-.17.11-.33.16-.42-.02-.05-.12.08-.34.34-.57.36-.33.95-.59 1.26-.67 1.42-.39 2.47.14 2.73.26.75.35.97.86 1.07 1.07.3.65.49 1.68.45 2.62-.06-.08-.18-.16-.26-.18-.04 0-.48.08-1.13.17zm1.668 7.374c-.066.6-.194 1.165-.433 1.632-.235.47-.584.84-.96 1.128l-.17.125c-.12-.36-.46-1.34-.57-2 .406-.41.613-1.47.665-1.82.077-.51.105-1.38.08-1.67.09-.34.203-.74.325-1.15l.534-1.79.18-.64c.118-.01.332-.18.394-.25-.02.45 0 2.14.01 2.73.01.58.03 1.2.03 1.82 0 .62-.01 1.25-.07 1.85zm-3.122-3.573c.107-.44-.344-.75-.903-.8-.21-.02-.68-.04-1.04.02l-.05.14-.18.1s.11.51.26.96c.15.46.32.91.32.91s.29.51.29.48c.15.2.31.29.29-.09 0-.23-.06-.54-.06-.54l-.12-.33c.64-.13 1.12-.45 1.21-.82zm-1.297.57c-.033-.09-.215-.65-.258-.85.1 0 .44-.02.68.03.12.02.31.07.32.14.01.07-.34.33-.48.46l-.28.24zm-1.284-.89c-.207-.15-.428-.13-.514-.1-.01.01-.12.5-.21.97-.11.48-.19.95-.19.95-.01 0-.01.59.01.57.03.24.13.4.3.05.11-.2.22-.5.22-.5l.04-.23h.25l.13-.14.08.16s.31.39.32.36c.15.14.32.19.27-.14-.02-.2-.1-.45-.1-.45s-.2-.35-.36-.7c-.15-.31-.25-.64-.27-.71l-.01-.05zm-.23 1.17l.027-.13.06.13h-.087zm-2.884-1.33c-.23-.12-.44-.07-.52-.03l-.02.01-.13 1.95s.06.59.07.57c.05.24.17.39.3.02.09-.22.16-.53.16-.53l.04-.68c.2.41.41.63.66.91l.01-.01.02-.02c.33-.36.54-.69.74-1.09l.06.71.12.43c.07.18.19.3.3 0 .08-.18.12-.44.12-.44l-.07-.76c-.04-.38-.05-.75-.05-.76l-.02-.02c-.24-.08-.437-.03-.51.01l-.01.01.01.34-.13.17c-.05.07-.36.48-.54.66-.05.05-.05-.02-.12-.13-.06-.11-.23-.43-.29-.583l-.21-.544-.03-.03.01-.11-.02-.014zm-1.68 5.91c.02 0 .39.02.92.02.62 0 1.44-.04 2.21-.13.77-.08 1.5-.22 1.96-.32l.43-.09s1.13-.36 1.39-.52c.28-.13.5-.27.52-.34.03-.08-.22-.03-.7.08-.45.1-2.69.6-3.71.69-.76.06-1.67.15-3.03.12l-.05.02c-.3.22-.14.42-.02.5l.03.017zm-.4 1.55c-.02-.52-.04-.87-.04-.89l-.03-.04c-.25-.27-.44-.08-.51.04l-.01.03c0 .02.02.37.03.88l.08 3.05s.04.38.09.74.13.73.13.7c.07.3.17.54.23.58.06.04.08-.11.07-.6 0-.57.02-1.37.02-1.37-.07-.98-.07-2.34-.09-3.1zm.34-6.13c.08-.86.51-3.14.52-3.16l-.02-.04c-.18-.32-.41-.19-.51-.09l-.02.04c-.01.02-.42 2.15-.51 3.11-.09.9-.18 2.44-.18 2.44s.01 1.5.02 1.44c.02.6.12 1 .3.04.12-.56.21-1.37.21-1.37s.08-1.59.16-2.37zm6.6-6.96c-.07.07-.42.14-.42.14s-.56.21-.65.27c-.1.06-.4.18-.4.18s.19.13.62 0c.13-.04.26-.1.36-.14.2-.1.38-.3.48-.43zm-2.38-2.11l.26-.1s.63-.3.96-.34c-.01.01-.64-.08-1.05.09-.34.14-.59.39-.68.53 0-.01.3-.09.51-.18zm-2.85-7.02l-.08.06c-.45.14-.65-.03-.73-.11-.07-.09-.18-.36-.11-.53 0-.01.29-.35.45-.47.58-.45 1.46-.76 2.28-.54.36.11 1.26.46 1.28 1.61.01.41-.11.8-.3 1.04-.21.31-.7.66-1.35.85-.24.09-.87.27-.97.29-.18.05-.26.04-.24-.04.01-.18.71-.64.96-.8.61-.41 1.07-.7.84-1.42-.064-.17-.18-.38-.483-.49-1.038-.21-1.575.56-1.584.57zm-.45 3.24c.03-.26.47-.43.67-.33.2.1.41.65.25.91-.15.24-.65.27-.79.02-.11-.18-.16-.41-.14-.59zm0 0" fill="#67737B"/><path d="M9.725 17.813c.276-.29.32-.463.336-.504h.08c.18.12.36.52.73.59.34.08.6 0 .6 0s.31 0 .44-.04c.2-.08.27-.04.29-.02.04.05.03.17-.05.28-.18.28-.68.61-1.61.32-.43-.14-.8-.65-.8-.65zm.685-1.67l-.25-.018c-.105-.013-.297-.05-.37-.18.045-.152.173-.325.287-.414.188-.17.576-.25.853-.25.297 0 .888.1 1.12.26.29.22.5.62.37.81-.033.05-.06.07-.14.03-.314-.24-.56-.28-.56-.28l-.234-.1c-.472-.15-.987-.09-1.077.15zm-1.32.94c-.06-.033-.288-.18-.286-.348.002-.138.168-.28.186-.288l.36-.037c.288-.028 1.152.034 1.54.094.427.067 1.348.318 1.685.428 1.145.344.65.4-.087.345.02.008-.995-.084-1.918-.163-.67-.057-.997-.106-1.478-.032zm17.695-.264c-.083-.6-.322-2.21-.47-2.82.105-.12.154-.28.118-.38-.057-.16-.263-.21-.473-.25l-.044-.17c.122-.83.054-1.75-.097-2.31-.18-.66-.39-1.1-1.03-1.56-1.05-.76-2.58-.85-3.68-.46-.41.14-.88.33-1.29.75-.07.07-.39.41-.36.79-.27-.15-1.33-1.05-2.51-1.38.25-.04.52-.09.61-.36.25-.73-1.33-1.14-2.38-.97-.7.11-1.34.23-2.05.54-1.16.5-2.3 1.06-3.08 2.06-.59.75-1.01 1.81-1.01 1.81s-1.82-.18-1.76-.16c-.35-.018-.64-.018-.81.01l-.06-.208c-.45-.376-.7-.054-.77.14l-.01.05s.47 2.45.61 3.34c.31 1.92.34 2.292.41 2.78-.4.04-.71.21-.89.45-.11.15-.26.453-.3.74 0 0-.31.124-.42.416-.13.32-.12.7.09 1.32.2.61.83 1.52 1.16 1.85.29.3.57.4.96.38.11 1.09.31 3.475.31 3.475s.3 2.18.3 2.133c.082.49.185.88.274.892-.037.18.14.277.25.31l.98-.21c.382-.08 1.2-.21 1.7-.265l-.16 1.15s.11.52.14.5c.147.29.41.27.577.02.17-.184.31-.455.31-.455s.164-1.176.18-1.32c0 0 1.82-.21 2.23-.24.66-.1 1.08-.24 0-.295-.72-.034-1.86-.07-2.932.06-.64.08-2.42.295-3.17.56.15-.873.145-2.795.14-2.794l-.193-2.3-.13-1.323c.39-.05.88.02 1.18-.215.4-.31.43-.77.44-1.19.006-.27-.02-.54-.058-.81l-.018-.11.05.02c.692.166 1.84.43 2.36.56l.42.1.74.142.69.132c.3.05.554.08.62.05.064-.04-.058-.14-.52-.33-.535-.24-1.33-.5-1.33-.5l-.498-.12c-.55-.14-1.68-.4-2.37-.56l-.32-.13c-.04-.19-.22-.5-.32-.63-.23-.296-.6-.416-.94-.446-.25-.02-.51-.07-.6-.04.12-.13-.03-.586-.16-.71h.06c-.18-1.535-.47-3.15-.47-3.15-.115-.79-.55-3.02-.55-3.02.397.18 2.73.757 2.73.757 5.176.944 8.317 1.19 10.126 1.234 1.81.05 3.56-.06 4.976-.242l.72-.1-.25.91c-.145.5-.89 3.05-.99 3.433l-.16.625s-.364 1.99-.37 2.51c-.04.05-.1.2-.1.216.007.03.11.58.35 1.33.26.86 1.24 3.434 1.24 3.434s1.08 2.5 1.26 2.69c-.14-.04-.38-.09-.75-.14-.87-.13-2.116-.26-2.117-.26 0 0-3.09-.09-4.06-.09-1.37.01-3.25.1-3.28.13-.5.392-.14.702.05.794.03.02.59-.05 1.37-.08.755-.04 2.93-.03 3.04-.03.14.575.26.98.26.98s.574 1.27.576 1.24c.29.5.63.77.587-.15.007-.55-.09-1.3-.09-1.3l-.193-.74 1.62.05s1.906-.05 2.21-.094c.467-.04.847-.11.92-.186.02-.02.056-.34-.06-.95-.162-.87-.52-2.04-.515-2.04 0 0-.58-1.53-.77-2.05.836-.434 1.345-1.116 1.55-1.46.336-.576.52-1.36.58-1.94.104-1.13.01-2.57-.17-3.86zM6.778 18.65c.41-.016.566.188.674.32.04.05.12.15.192.135-.047.102.472.287.553.318.22.08.454.17.586.37.16.24.21.556.282.81.08.282.095.566.115.86.026.384.063 1.124-.428 1.13-.11.003-.87.044-1.276.13-.112.026-.35.05-.504-.016-.158-.066-.27-.21-.38-.333-.215-.24-.624-.908-.697-1.04-.164-.3-.306-.68-.342-1.032-.014-.133-.022-.274.046-.396.08-.146.28-.095.4-.183l.04-.334c.05-.36.23-.73.73-.75zm12.712-5.238c-1.737-.038-3.536-.222-5.157-.445-1.622-.225-3.07-.472-4.117-.643l-.034-.004c.313-.71.758-1.542 1.475-2.03.707-.48 1.594-.96 2.45-1.216.736-.22 1.882-.538 2.653-.045-.1 0-.09.1.046.23.42.41 1.107.91 1.93 1.75.555.56 1.568 1.66 1.95 2.39-.396 0-.788.01-1.195 0zm2.385-.032c-.232-.494-.532-.976-.817-1.356 0 0-.376-.522-.812-.93.34-.002.866-.49 1.174-.72l.28-.188c.386-.232.93-.395 1.83.085-.18.05-.97.36-1.254.74-.247.34-.19.74.08 1.11.41.56.968.8 1.35.74.163-.02.46-.26.496-.3l.166.61c-.64.09-1.638.18-2.496.23zm2.613-.24c.033-.434.04-.895.026-1.05l-.014-.29-.38.27c-.08.06-.418.29-.507.294-.186.004-.537-.2-.766-.48-.072-.086-.295-.417-.27-.567.05-.305.718-.914.98-1.03l.07.018-.027-.036.09-.04-.097.02c-.02-.03-.144-.16-.306-.27-.284-.2-.843-.49-1.556-.26-.5.16-1.14.63-1.26.71-.17.11-.33.16-.42-.02-.05-.12.08-.34.34-.57.36-.33.95-.59 1.26-.67 1.42-.39 2.47.14 2.73.26.75.35.97.86 1.07 1.07.3.65.49 1.68.45 2.62-.06-.08-.18-.16-.26-.18-.04 0-.48.08-1.13.17zm1.668 7.374c-.066.6-.194 1.165-.433 1.632-.235.47-.584.84-.96 1.128l-.17.125c-.12-.36-.46-1.34-.57-2 .406-.41.613-1.47.665-1.82.077-.51.105-1.38.08-1.67.09-.34.203-.74.325-1.15l.534-1.79.18-.64c.118-.01.332-.18.394-.25-.02.45 0 2.14.01 2.73.01.58.03 1.2.03 1.82 0 .62-.01 1.25-.07 1.85zm-3.122-3.573c.107-.44-.344-.75-.903-.8-.21-.02-.68-.04-1.04.02l-.05.14-.18.1s.11.51.26.96c.15.46.32.91.32.91s.29.51.29.48c.15.2.31.29.29-.09 0-.23-.06-.54-.06-.54l-.12-.33c.64-.13 1.12-.45 1.21-.82zm-1.297.57c-.033-.09-.215-.65-.258-.85.1 0 .44-.02.68.03.12.02.31.07.32.14.01.07-.34.33-.48.46l-.28.24zm-1.284-.89c-.207-.15-.428-.13-.514-.1-.01.01-.12.5-.21.97-.11.48-.19.95-.19.95-.01 0-.01.59.01.57.03.24.13.4.3.05.11-.2.22-.5.22-.5l.04-.23h.25l.13-.14.08.16s.31.39.32.36c.15.14.32.19.27-.14-.02-.2-.1-.45-.1-.45s-.2-.35-.36-.7c-.15-.31-.25-.64-.27-.71l-.01-.05zm-.23 1.17l.027-.13.06.13h-.087zm-2.884-1.33c-.23-.12-.44-.07-.52-.03l-.02.01-.13 1.95s.06.59.07.57c.05.24.17.39.3.02.09-.22.16-.53.16-.53l.04-.68c.2.41.41.63.66.91l.01-.01.02-.02c.33-.36.54-.69.74-1.09l.06.71.12.43c.07.18.19.3.3 0 .08-.18.12-.44.12-.44l-.07-.76c-.04-.38-.05-.75-.05-.76l-.02-.02c-.24-.08-.437-.03-.51.01l-.01.01.01.34-.13.17c-.05.07-.36.48-.54.66-.05.05-.05-.02-.12-.13-.06-.11-.23-.43-.29-.583l-.21-.544-.03-.03.01-.11-.02-.014zm-1.68 5.91c.02 0 .39.02.92.02.62 0 1.44-.04 2.21-.13.77-.08 1.5-.22 1.96-.32l.43-.09s1.13-.36 1.39-.52c.28-.13.5-.27.52-.34.03-.08-.22-.03-.7.08-.45.1-2.69.6-3.71.69-.76.06-1.67.15-3.03.12l-.05.02c-.3.22-.14.42-.02.5l.03.017zm-.4 1.55c-.02-.52-.04-.87-.04-.89l-.03-.04c-.25-.27-.44-.08-.51.04l-.01.03c0 .02.02.37.03.88l.08 3.05s.04.38.09.74.13.73.13.7c.07.3.17.54.23.58.06.04.08-.11.07-.6 0-.57.02-1.37.02-1.37-.07-.98-.07-2.34-.09-3.1zm.34-6.13c.08-.86.51-3.14.52-3.16l-.02-.04c-.18-.32-.41-.19-.51-.09l-.02.04c-.01.02-.42 2.15-.51 3.11-.09.9-.18 2.44-.18 2.44s.01 1.5.02 1.44c.02.6.12 1 .3.04.12-.56.21-1.37.21-1.37s.08-1.59.16-2.37zm6.6-6.96c-.07.07-.42.14-.42.14s-.56.21-.65.27c-.1.06-.4.18-.4.18s.19.13.62 0c.13-.04.26-.1.36-.14.2-.1.38-.3.48-.43zm-2.36-2.12l.26-.1s.63-.3.95-.33c-.01 0-.64-.08-1.05.09-.34.14-.59.39-.68.54 0-.01.3-.09.51-.18zm-2.85-7.02l-.08.06c-.45.14-.66-.03-.73-.11-.07-.09-.18-.36-.11-.53.01-.01.29-.35.45-.47.58-.45 1.46-.76 2.28-.54.36.11 1.26.46 1.29 1.61.01.41-.11.8-.3 1.04-.2.31-.69.66-1.34.85-.24.09-.87.27-.96.3-.18.05-.25.04-.24-.04.01-.18.72-.64.97-.8.61-.41 1.07-.7.85-1.42-.07-.17-.18-.37-.48-.48-1.04-.21-1.58.56-1.59.57zm-.45 3.24c.03-.26.46-.43.67-.33.2.1.41.65.25.91-.15.24-.65.27-.79.02-.11-.18-.16-.41-.14-.59zm0 0" fill="#3A434E"/></g></svg>