<svg width="32" height="232" viewBox="0 0 32 232" xmlns="http://www.w3.org/2000/svg"><g fill="none"><path d="M14.418 142.336l.03.298.053.597.17.25-.03.01c-.25.04-.49.07-.69.08.12-.13.19-.26.19-.26l.01-.22v-.47l-.01-.27.3.01zm1.11-.06l.024.27.052.604-.084.15.5-.134c.724-.204 1.443-.47 1.443-.47l.82-.266c.522-.177 1.2-.415 1.942-.72.37-.15.758-.32 1.135-.51.187-.096.373-.197.538-.304l.212-.16.128-.15c.086-.134.165-.315.23-.507.062-.2.116-.41.16-.62.092-.43.15-.87.195-1.3.093-.87.13-1.7.15-2.42.017-.51.02-.95.02-1.26l-.005-.28-.236-.12v-.03c.015-.08.062-.21.147-.37.08-.16.2-.34.36-.52l.03-.03.04.02-.07-.21-.07-.27-.04-.16v-.01l-.17.13c-.1.062-.19.13-.35.17l-.15.01h-.05l-.06-.01-.19-.04c-.24-.07-.43-.19-.58-.32-.15-.124-.26-.26-.35-.374-.21-.29-.24-.546-.24-.546l-.01-.18.05-.216.07-.12.07-.09c.113-.12.25-.22.39-.31.142-.098.292-.177.43-.24.18-.084.315-.126.41-.15l-.05-.023-.037-.013-.234-.11c-.144-.06-.35-.14-.596-.16-.25-.028-.512.02-.76.14-.256.11-.49.29-.74.49-.13.1-.26.21-.42.31l-.27.14-.22.05.13.12.175.19.192.22.12.14.063.08.035.04.11.14c.365.48.72 1.05.98 1.72.105.01.215.047.32.1.11.06.22.13.33.22l.16.135.08.073.04.04.04.05.13.23.07.21c.03.13.05.26.06.36.02.21-.01.37-.01.37-.008 0-.02.1-.1.23l-.04.06-.05.065-.137.092c-.1.05-.21.046-.3.013l-.096-.05-.05-.04-.057-.075.015-.085.108-.026.07-.006.05-.02.03-.02.02-.05v-.116l-.01-.07v-.26l-.05-.27-.043-.14-.03-.06-.025-.03c-.096-.1-.21-.2-.31-.277.07.278.12.56.14.857.02.22.025.444.02.67-.01.23-.03.46-.07.69-.145.92-.516 1.84-1.072 2.68-.554.84-1.3 1.62-2.27 2.187-.24.14-.492.27-.77.377-.262.11-.54.19-.814.26-.268.06-.537.11-.808.143zm2.828-11.826c-.01-.102.004-.203.03-.292.034-.118.092-.22.156-.31l.202-.23.222-.195c.155-.117.32-.22.49-.306.345-.175.71-.295 1.078-.37.736-.153 1.497-.12 2.164.09.336.103.645.246.92.418.137.085.267.176.384.272.128.098.24.215.326.336.18.242.29.496.373.735l.11.35.04.165.02.068.07.45.03.49c.01.28 0 .63-.03.91l-.04.33.22.05c.2.04.3.12.33.22.04.1 0 .22-.08.33l-.04.06c.05.21.13.63.23 1.17.09.5.18 1.06.26 1.65.08.6.15 1.23.19 1.87.04.65.05 1.32-.02 1.99-.03.34-.09.67-.18 1-.1.33-.23.65-.4.94-.17.3-.38.56-.62.78-.23.22-.47.4-.71.55-.24.15-.48.28-.7.38l-.32.14-.15.06-.09.04c-.413.16-.672.23-.672.23 0 .01-.31.09-.73.18-.42.1-.956.2-1.395.29-.5.1-.76.16-.85.19.167 0 .36.04.57.15l.045.04c0 .02-.006.29.04.71.03.43.12.99.23 1.55.23 1.12.55 2.23.55 2.23s.1.75.096 1.3c.04.93-.3.66-.59.16-.005.03-.154-.275-.3-.59l-.29-.648s-.326-1.113-.557-2.27c-.12-.58-.21-1.164-.25-1.625-.045-.46-.04-.783-.04-.8l.026-.036c.08-.06.22-.127.4-.14l.065-.005c.12-.03.45-.15.85-.3-.04.016.48-.18 1-.4.528-.22 1.04-.47 1.04-.47l.165-.08.2-.09.12-.05.14-.074c.34-.17.74-.386 1.12-.676.38-.29.738-.66.976-1.127.24-.47.37-1.04.44-1.637.066-.59.08-1.23.08-1.85 0-.62-.02-1.24-.028-1.82-.01-.59-.015-1.14-.015-1.647 0-.47.01-.85.016-1.082l-.05.04-.26.18-.32.07c-.2.04-.47.06-.75.03-.215-.02-.425-.07-.6-.13l.048.168c.09.31.19.74.27 1.254.12.72.21 1.56.21 2.47.01.456-.02.92-.08 1.4-.03.24-.073.486-.14.73-.07.25-.152.5-.293.756-.075.13-.166.26-.29.383l-.05.043-.04.04-.082.07-.17.13c-.22.15-.433.27-.65.38-.43.22-.85.39-1.25.54-.805.3-1.54.503-2.13.646-.63.143-1.02.21-1.02.21s-.424.06-1.01.11c-.44.033-.96.055-1.45.05H15l-.386-.01c-.3-.01-.537-.035-.718-.057l-.09.077c-.158.15-.305.11-.385.05l-.11-.09-.1-.088-.09-.15-.08-.17c.01 0 .01-.293 0-.61l-.02-.42c-.6-.1-1.19-.26-1.76-.476-.27-.1-.54-.214-.8-.342l-.39-.204-.38-.24c-.5-.33-.94-.74-1.32-1.2-.37-.46-.67-.98-.88-1.526-.21-.544-.34-1.112-.4-1.68-.05-.57-.04-1.14.04-1.7l.06-.37-.11.047c-.05.04-.12.09-.18.17-.06.08-.12.18-.16.28-.09.21-.14.45-.14.62l.02.27.01.158c.01.08.03.16.1.22l.17.08.06.07-.08.09c-.05.03-.13.05-.23.05l-.132-.03c-.083-.03-.186-.11-.253-.2-.14-.18-.18-.37-.18-.37s-.04-.16-.02-.388c.01-.226.06-.517.18-.796.06-.14.14-.274.23-.395.1-.12.21-.227.334-.298.12-.07.244-.11.33-.12l.147-.018.02.01c.05-.225.108-.45.17-.68.146-.52.325-1.025.55-1.52.228-.485.5-.96.845-1.39.17-.215.36-.42.57-.605l.335-.28.33-.22c.44-.28.89-.51 1.34-.72.45-.21.91-.386 1.37-.526.47-.14.94-.24 1.43-.28.3-.025.59-.02.85.014.26.03.492.09.683.16.384.143.585.31.604.32l.054.08c.07.155.1.38-.01.525-.05.08-.13.13-.24.17-.11.04-.24.06-.4.08h-.08c-.015 0-.11-.09-.33-.17-.22-.08-.58-.145-1.046-.11-.77.06-1.616.34-2.444.72-.41.19-.83.41-1.22.66l-.14.093-.063.05-.06.05-.12.09-.12.11c-.16.147-.31.31-.45.49-.56.72-.94 1.635-1.19 2.596-.13.483-.23.98-.3 1.484l-.036.36-.01.37c0 .25.01.49.04.737.12.97.52 1.92 1.17 2.66.33.37.71.69 1.14.95l.33.18.35.17c.24.108.48.2.73.28.99.336 2.04.49 3.04.436.5-.03.997-.11 1.456-.25l.33-.12.32-.14c.21-.105.41-.224.603-.356.77-.53 1.39-1.244 1.83-2.01.44-.76.7-1.58.74-2.35.05-.78-.118-1.51-.4-2.15-.14-.32-.316-.62-.5-.89l-.29-.4-.095-.12c-.336-.41-.575-.64-.574-.64 0 0-.25-.3-.63-.69-.374-.39-.89-.85-1.327-1.23-.38-.31-.63-.51-.76-.65s-.15-.21-.08-.23c.14-.04.64.12 1.21.41-.05-.04.62.32 1.254.77l.316.23zm5.083 2.79v-.014l.02-.26.01-.28v-.173l-.01-.422-.01-.19-.01-.05v-.04h-.01l-.06.04-.38.27-.11.08-.03.02-.02.01-.03.02-.11.07-.11.05-.08.02v.06l.01-.05h-.06l-.11-.03c-.14-.05-.28-.14-.39-.23-.11-.09-.2-.19-.26-.27-.14-.18-.17-.29-.17-.29l-.05-.15-.01-.06.02-.07.12-.21c.103-.14.23-.27.32-.36l.15-.13c.112-.09.23-.17.33-.22l.06-.03.07.02-.03-.034.09-.03-.09.01h-.01l-.07-.075-.03-.03-.215-.165c-.134-.09-.337-.22-.62-.29-.29-.08-.64-.07-.956.04-.32.1-.615.28-.886.46l-.4.253-.19.09-.02.01-.01.01-.028.006h-.05c-.06-.01-.128-.06-.14-.11-.02-.05-.01-.14.052-.245l.05-.08.07-.08.16-.157c.12-.107.24-.2.38-.286.272-.17.58-.303.9-.39.64-.18 1.32-.19 1.92-.05.3.07.59.178.85.307l.37.217.17.12.14.127c.18.18.31.4.4.61.1.21.17.42.22.614l.03.12.02.08.03.14.03.11.04.225.064.5c.035.36.02.72.023.69l-.02.348-.1-.02-.16-.03s-.345.11-.66.07c-.16-.01-.32-.06-.43-.1l-.06-.02zm-3.76-1.826l-.01-.004-.04-.016.03-.01.01-.005.17-.07.35-.16c.25-.11.5-.2.5-.2l.31-.08.11-.06-.09.1-.11.11-.13.12-.16.09c-.1.05-.23.11-.37.15-.15.04-.29.06-.41.05l-.14-.02-.06-.02zm-1.39-2.548l-.02.005-.08.03.04-.06.01-.02.09-.1c.06-.06.14-.13.26-.21l.07-.04.23-.11.25-.06c.15-.03.33-.04.49-.03l.25.02.04.01c-.03 0-.16.02-.3.07l-.34.12-.34.15-.2.08-.07.03-.3.12-.13.05zm-2.49-7.153l-.06.028c-.12.04-.31.08-.49.04-.09-.02-.18-.06-.26-.15-.07-.09-.13-.22-.14-.43l.02-.1.12-.15c.07-.08.18-.2.34-.32.15-.13.36-.26.62-.37.12-.05.26-.1.41-.14l.11-.02.09-.02.24-.04c.12-.01.28-.02.44 0 .15.01.3.04.39.07.21.06.39.14.543.24.15.1.27.21.36.3.17.19.223.32.225.32 0 0 .073.13.13.36.024.12.044.26.046.4.003.15-.005.32-.05.51s-.134.37-.257.54c-.12.17-.277.3-.436.41-.31.22-.64.34-.93.43-.24.09-.44.15-.6.19l-.374.11c-.188.05-.26.03-.246-.04.014-.07.12-.2.3-.34.18-.143.427-.295.68-.454l.32-.21c.206-.14.456-.342.54-.56.05-.104.068-.212.06-.33 0-.11-.03-.242-.06-.322-.062-.17-.14-.23-.14-.232l-.08-.09c-.054-.06-.155-.13-.32-.17l-.19-.03h-.22l-.14.025-.092.02-.07.02-.25.08c-.15.06-.27.14-.36.21-.18.143-.26.27-.27.28zm-.43 3.204c.03-.26.47-.433.68-.336.2.1.42.65.26.91-.16.24-.66.27-.8.02-.11-.18-.16-.4-.14-.59zm-4.89 24.148l.01-.01c.08-.03.28-.075.52 0l.02.01-.01 1.318s-.06.21-.14.36c-.12.253-.24.15-.31-.005-.02.016-.11-.372-.11-.372v-1.3zm4.04-14.965c-.03-.26.4-.52.64-.47.24.05.61.54.5.824-.11.26-.64.394-.86.185-.16-.16-.27-.37-.3-.55zm-2.74.16c-.63.264-.12 1.09.44.91.55-.18.9-.826-.36-.99l-.09.08zm3.09 13.87v-.044l.04.004.05-.006.06-.015.03-.01h-.02l-.03.01-.07.03-.17.05-.11-.01-.07-.04-.02-.03-.01-.04.01-.08.02-.06.05-.07.07-.06.06-.03.05-.02.08-.01h.04l.09.032.09.05.17.135.22.17.11.08.05.03.01.01v.01l-.003.01-.02.05-.015.05-.01.04.04-.17.05.025c.236.094.56.106.79.063.24-.04.38-.116.38-.116l.18-.045c.11-.03.236-.08.35-.14.175-.11.26-.16.31-.11.05.05.05.19-.024.34.01-.01-.087.16-.23.3-.15.14-.337.247-.337.247s-.21.1-.53.15c-.32.055-.75.05-1.14-.11l.047.02-.16-.065-.1-.06-.15-.103-.225-.18-.13-.1-.01-.01.02-.04.04-.08.057-.12zm.22-1.892l-.02.01-.24.04c-.11.01-.25.01-.38-.1l-.03-.03.04-.166c.03-.097.09-.234.2-.358.11-.126.26-.232.43-.31.16-.08.34-.132.52-.164.35-.07.71-.058.97-.02.26.036.43.096.43.096l.24.14c.13.09.29.24.36.402.07.133.06.234.05.287l-.09.07-.25-.135-.25-.105-.3-.06s-.13-.04-.33-.065c-.2-.026-.48-.03-.73.02-.13.026-.25.065-.35.112-.1.047-.17.103-.21.153-.09.095-.08.175-.09.18zm-.68 1.39l-.02-.006-.2-.137c-.09-.067-.19-.162-.18-.34l.01-.04.15-.09c.09-.05.21-.098.36-.14.29-.086.66-.145 1.03-.18.73-.07 1.45-.07 1.45-.07s.47.06.79.16c.55.14.33.28-.02.356.03.02-.81.12-.81.13 0 0-.7 0-1.38.07-.34.04-.67.09-.9.16l-.25.1-.07.05zm-1.79-4.323l.08-.006c.15.01.35.09.46.23.11.14.11.36-.04.67l-.06.07-.45.21c-.27.13-.63.35-1.06.63-.32.2-.74.49-1.17.77l-.63.38-.15.08-.07.04-.02.01-.073-.16v.01l.01.05.05.04.023.02.02.01h-.01l-.03.04-.12.27-.08.25-.05.24s-.11.36-.22.88-.23 1.2-.34 1.763c-.08.512-.15.836-.216 1.007l-.01-.03-.006.01-.035.03-.005.01-.006-.005-.003-.016-.01-.01-.004-.01h.01l.01-.006.06-.015.07.02v.07l-.01.05-.02.03-.02.02-.023.02h-.05l-.05-.02-.04-.02-.013-.013-.013-.01v-.01l-.03-.025-.02-.07c-.074-.21-.134-.61-.16-1.068-.02.062-.046-.663-.024-1.414.01-.373.038-.753.07-1.05.03-.29.07-.494.07-.494l.06-.24.09-.295c.05-.12.1-.254.21-.422l.11-.15.08-.09.05-.05.03-.02.04-.03.04-.03.02-.02.014-.01.034-.02.06-.04.13-.07.58-.353c.41-.26.83-.56 1.17-.777.45-.29.858-.53 1.16-.69.3-.16.5-.24.52-.242zm2.53-4.438l.01.015c.01.084.02.293-.16.475l-.02.018-.32-.106c-.18-.06-.4-.12-.63-.14-.24-.03-.48-.03-.64-.02l-.26.04-.17.01-.34.07c-.19.06-.27.06-.29 0-.02-.05.03-.15.11-.25-.01.01.1-.11.24-.2.14-.1.31-.16.31-.16s.14-.04.35-.06c.21-.02.48-.01.74.01.28.02.55.1.73.16l.31.1zm0 0" fill="#fff"/><path d="M14.418 62.336l.03.298.053.597.17.25-.03.01c-.25.04-.49.07-.69.08.12-.13.19-.26.19-.26l.01-.22v-.47l-.01-.27.3.01zm1.11-.06l.024.27.052.604-.084.15.5-.134c.724-.204 1.443-.47 1.443-.47l.82-.266c.522-.177 1.2-.415 1.942-.72.37-.15.758-.32 1.135-.51.187-.096.373-.197.538-.304l.212-.16.128-.15c.086-.134.165-.315.23-.507.062-.2.116-.41.16-.62.092-.43.15-.87.195-1.3.093-.87.13-1.7.15-2.42.017-.51.02-.95.02-1.26l-.005-.28-.236-.12v-.03c.015-.08.062-.21.147-.37.08-.16.2-.34.36-.52l.03-.03.04.02-.07-.21-.07-.27-.04-.16v-.01l-.17.13c-.1.06-.19.13-.35.17l-.15.01h-.05l-.06-.01-.19-.04c-.24-.07-.43-.19-.58-.32-.15-.125-.26-.26-.35-.375-.21-.29-.24-.546-.24-.546l-.01-.17.05-.22.07-.12.074-.09c.114-.12.25-.22.39-.31.143-.096.293-.175.43-.24.18-.082.316-.124.41-.15l-.05-.02-.036-.015-.235-.11c-.144-.06-.35-.14-.596-.16-.254-.027-.515.02-.764.14-.255.112-.49.29-.74.49-.13.1-.26.21-.42.31l-.27.14-.22.05.13.12.176.19.19.22.12.14.064.08.036.04.106.14c.363.48.72 1.05.98 1.72.103.01.213.048.315.1.115.06.22.13.33.22l.16.136.08.074.04.04.043.05.13.23.07.21c.03.13.05.26.06.36.02.21-.01.37-.01.37-.006 0-.02.1-.1.23l-.04.06-.05.065-.135.095c-.1.05-.21.045-.3.012l-.097-.05-.05-.04-.056-.074.01-.084.11-.027.07-.004.043-.02.03-.02.02-.05v-.117l-.01-.07v-.26l-.05-.27-.04-.14-.03-.06-.025-.03c-.096-.1-.21-.2-.31-.275.07.27.12.56.14.85.02.22.025.44.02.67-.01.23-.03.46-.07.69-.145.92-.516 1.84-1.07 2.68-.558.84-1.3 1.62-2.27 2.18-.24.14-.496.27-.77.378-.266.11-.54.19-.818.26-.266.06-.535.11-.806.144zm2.828-11.826c-.01-.102.004-.203.03-.292.034-.118.092-.22.156-.31l.202-.23.222-.195c.155-.117.32-.22.49-.306.345-.175.71-.295 1.078-.37.736-.153 1.497-.12 2.164.09.336.103.645.246.92.418.137.085.267.176.384.272.128.098.24.215.326.336.18.242.29.496.373.735l.11.35.04.165.02.068.07.45.03.49c.01.28 0 .63-.03.91l-.04.33.22.05c.2.04.3.12.33.22.04.1 0 .22-.08.33l-.04.06c.05.21.13.63.23 1.17.09.5.18 1.06.26 1.65.08.6.15 1.23.19 1.87.04.65.05 1.32-.02 1.99-.03.34-.09.67-.18 1-.1.33-.23.65-.4.94-.17.3-.38.56-.62.78-.23.22-.47.4-.71.55-.24.15-.48.28-.7.38l-.32.14-.15.06-.09.04c-.413.16-.672.23-.672.23 0 .01-.31.09-.73.18-.42.1-.956.2-1.395.29-.5.1-.76.16-.85.19.167 0 .36.04.57.15l.045.04c0 .02-.006.29.04.71.03.43.12.99.23 1.55.23 1.12.55 2.23.55 2.23s.1.75.096 1.3c.04.93-.3.66-.59.16-.005.03-.154-.275-.3-.59l-.29-.648s-.326-1.113-.557-2.27c-.12-.58-.21-1.164-.25-1.625-.045-.46-.04-.783-.04-.8l.026-.036c.08-.06.22-.127.4-.14l.065-.005c.12-.03.45-.15.85-.3-.04.016.48-.18 1-.4.528-.22 1.04-.47 1.04-.47l.165-.08.2-.09.12-.05.14-.074c.34-.17.74-.386 1.12-.676.38-.29.738-.66.976-1.127.24-.47.37-1.04.44-1.637.066-.59.08-1.23.08-1.85 0-.62-.02-1.24-.028-1.82-.01-.59-.015-1.14-.015-1.647 0-.47.01-.85.016-1.082l-.05.04-.26.18-.32.07c-.2.04-.47.06-.75.03-.215-.02-.425-.07-.6-.13l.048.168c.09.31.19.74.27 1.254.12.72.21 1.56.21 2.47.01.456-.02.92-.08 1.4-.03.24-.073.486-.14.73-.07.25-.152.5-.293.756-.075.13-.166.26-.29.383l-.05.043-.04.04-.082.07-.17.13c-.22.15-.433.27-.65.38-.43.22-.85.39-1.25.54-.805.3-1.54.503-2.13.646-.63.143-1.02.21-1.02.21s-.424.06-1.01.11c-.44.033-.96.055-1.45.05H15l-.386-.01c-.3-.01-.537-.035-.718-.057l-.09.077c-.158.15-.305.11-.385.05l-.11-.09-.1-.088-.09-.15-.08-.17c.01 0 .01-.293 0-.61l-.02-.42c-.6-.1-1.19-.26-1.76-.476-.27-.1-.54-.214-.8-.342l-.39-.204-.38-.24c-.5-.33-.94-.74-1.32-1.2-.37-.46-.67-.98-.88-1.526-.21-.544-.34-1.112-.4-1.68-.05-.57-.04-1.14.04-1.7l.06-.37-.11.047c-.05.04-.12.09-.18.17-.06.08-.12.18-.16.28-.09.21-.14.45-.14.62l.02.27.01.158c.01.08.03.16.1.22l.17.08.06.07-.08.09c-.05.03-.13.05-.23.05l-.132-.03c-.083-.03-.186-.11-.253-.2-.14-.18-.18-.37-.18-.37s-.04-.16-.02-.388c.01-.226.06-.517.18-.796.06-.14.14-.274.23-.395.1-.12.21-.227.334-.298.12-.07.244-.11.33-.12l.146-.02.02.01c.05-.225.108-.452.17-.68.146-.52.325-1.025.55-1.52.228-.485.5-.96.845-1.39.17-.215.36-.42.57-.605l.335-.28.33-.22c.44-.28.89-.51 1.34-.72.45-.21.91-.386 1.37-.526.47-.14.94-.24 1.43-.28.3-.023.59-.02.85.016.26.03.49.09.682.16.384.142.585.31.604.32l.053.08c.07.154.1.38-.01.524-.05.078-.13.13-.24.17-.11.04-.24.06-.4.08h-.08c-.017-.003-.11-.09-.33-.17-.22-.083-.58-.146-1.048-.11-.77.06-1.616.34-2.444.72-.41.19-.83.41-1.22.66l-.14.09-.063.05-.06.05-.12.09-.12.11c-.16.15-.31.31-.45.49-.56.72-.94 1.638-1.19 2.6-.13.48-.23.98-.3 1.48l-.036.36-.01.37c0 .25.01.49.04.74.12.97.52 1.916 1.17 2.654.33.37.71.69 1.14.95l.33.18.35.17c.24.108.48.2.73.28.99.336 2.04.49 3.04.436.5-.03.998-.11 1.457-.25l.33-.12.318-.14c.21-.1.41-.22.604-.353.77-.53 1.39-1.245 1.83-2.01.44-.76.7-1.58.74-2.35.052-.78-.117-1.51-.4-2.15-.14-.32-.315-.62-.5-.89l-.29-.4-.094-.12c-.335-.41-.574-.64-.573-.64 0 0-.25-.3-.63-.69-.374-.39-.89-.85-1.327-1.23-.38-.31-.63-.51-.76-.65s-.15-.21-.078-.23c.14-.04.64.12 1.21.41-.05-.04.62.317 1.253.77l.316.23zm5.083 2.79v-.014l.02-.26.01-.28v-.173l-.01-.422-.01-.19-.01-.05v-.05h-.01l-.06.04-.38.27-.11.08-.03.02-.02.01-.03.02-.11.07-.11.05-.08.02v.05l.01-.05h-.06l-.11-.03c-.14-.05-.28-.14-.39-.23-.11-.09-.2-.19-.26-.27-.14-.18-.17-.29-.17-.29l-.05-.15-.01-.06.02-.06.12-.2c.103-.14.23-.27.32-.36l.15-.13c.112-.093.23-.17.33-.22l.06-.03.07.02-.03-.035.09-.03-.09.02-.01.01-.07-.074-.03-.022-.21-.162c-.133-.09-.336-.22-.62-.29-.29-.08-.64-.07-.955.04-.32.1-.615.28-.886.46l-.397.26-.188.09-.02.01-.01.01h-.07c-.06-.014-.123-.06-.14-.12-.02-.05-.01-.14.057-.244l.05-.08.07-.08.16-.16c.117-.102.244-.2.38-.28.275-.17.58-.305.897-.39.64-.18 1.32-.19 1.92-.05.3.066.59.174.85.3l.37.22.17.12.14.125c.18.18.31.4.41.61.093.21.163.42.22.617l.03.12.02.086.03.13.024.11.04.23.06.5c.04.363.02.72.03.69l-.02.345-.1-.02-.16-.03s-.348.11-.666.07c-.16-.02-.32-.06-.43-.11l-.06-.02zm-3.76-1.826l-.01-.004-.04-.016.03-.01.01-.005.17-.07.35-.16c.25-.11.5-.2.5-.2l.31-.08.11-.06-.09.1-.11.11-.13.12-.16.09c-.1.05-.23.11-.37.15-.15.04-.29.06-.41.05l-.14-.02-.06-.02zm-1.39-2.548l-.02.005-.08.03.04-.06.01-.02.09-.1c.06-.06.14-.13.26-.21l.07-.04.23-.11.25-.06c.15-.03.33-.04.49-.03l.25.02.04.01c-.03 0-.16.02-.3.07l-.34.12-.34.15-.2.08-.07.03-.3.12-.13.05zm-2.49-7.153l-.06.028c-.12.04-.31.08-.49.04-.09-.02-.18-.06-.26-.15-.07-.09-.13-.22-.14-.43l.02-.1.12-.15c.07-.08.18-.2.34-.32.15-.13.36-.26.62-.37.12-.05.26-.1.41-.14l.11-.02.09-.02.24-.04c.12-.01.28-.02.44 0 .15.01.3.04.39.07.21.06.39.14.543.24.15.1.27.21.36.3.17.19.223.32.225.32 0 0 .073.13.13.36.024.12.044.26.046.4.003.15-.005.32-.05.51s-.134.37-.257.54c-.12.17-.277.3-.436.41-.31.22-.64.34-.93.43-.24.09-.44.15-.6.19l-.374.11c-.188.05-.26.03-.246-.04.014-.07.12-.2.3-.34.18-.143.427-.295.68-.454l.32-.21c.206-.14.456-.342.54-.56.05-.104.068-.212.06-.33 0-.11-.03-.242-.06-.322-.062-.17-.14-.23-.14-.232l-.08-.09c-.054-.06-.155-.13-.32-.17l-.19-.03h-.22l-.14.025-.092.02-.07.02-.25.08c-.15.06-.27.14-.36.21-.18.143-.26.27-.27.28zm-.43 3.204c.03-.26.47-.433.68-.336.2.1.42.65.26.91-.16.24-.66.27-.8.02-.11-.18-.16-.4-.14-.59zm-4.88 24.148l.01-.01c.08-.03.28-.075.52 0l.02.01v1.318s-.06.21-.15.36c-.12.253-.24.15-.31-.005-.02.016-.11-.372-.11-.372v-1.3zM14.52 54.1c-.027-.26.405-.52.647-.47.24.053.61.543.503.828-.11.26-.64.394-.853.185-.16-.155-.27-.363-.295-.544zm-2.742.165c-.63.263-.114 1.09.44.91.557-.182.903-.827-.354-.99l-.09.08zm3.095 13.87l.002-.045.04.005.05-.007.065-.015.03-.01-.016.007-.03.013-.07.034-.17.057-.105-.003-.06-.04-.02-.02-.02-.04V68l.02-.06.04-.06.07-.052.06-.023.05-.014h.12l.09.04.09.05.17.14.21.17.11.08.04.03.02.01-.01.01-.008.01-.02.05-.02.05-.01.04.035-.16.05.02c.235.1.56.11.79.07.24-.04.38-.11.38-.11l.18-.045c.11-.03.236-.082.35-.14.174-.11.26-.16.31-.11.05.048.05.188-.027.338.02-.01-.08.167-.23.307-.144.14-.33.25-.33.25s-.21.1-.53.153c-.32.05-.75.04-1.14-.11l.05.01-.16-.06-.1-.06-.15-.11-.227-.18-.13-.1-.01-.01.02-.04.05-.08.052-.12zm.225-1.893l-.016.008-.24.043c-.11.01-.245.01-.38-.1l-.024-.03.04-.167c.03-.097.095-.234.206-.358.113-.126.264-.232.428-.31.165-.08.344-.132.52-.164.356-.07.708-.058.97-.02.26.036.433.096.433.096l.243.14c.14.09.29.242.36.404.07.133.07.234.05.287l-.08.07-.25-.13-.245-.1-.3-.06s-.123-.04-.326-.06c-.2-.02-.48-.03-.738.02-.13.03-.25.07-.35.11-.1.05-.17.11-.21.16-.09.1-.08.18-.09.18zm-.682 1.39l-.02-.006-.2-.137c-.085-.07-.184-.17-.18-.34l.012-.04.155-.09c.092-.05.217-.1.363-.14.3-.09.67-.15 1.04-.18.735-.07 1.45-.07 1.45-.07s.47.06.794.16c.55.14.33.28-.014.35.034.01-.81.12-.81.12s-.695 0-1.372.07c-.338.03-.67.09-.894.15l-.244.09-.077.04zM12.63 63.31l.083-.01c.154.01.353.09.46.23.108.143.117.36-.036.673l-.057.07-.445.21c-.264.137-.627.35-1.06.635-.317.206-.737.496-1.166.77-.22.136-.43.267-.63.38l-.15.08-.07.04-.02.01-.01.003-.08-.16-.01.01v.02l.01.05.05.04.02.03.01.01v.01l-.01.01-.03.04-.12.27-.08.26-.05.24s-.11.36-.22.89c-.11.52-.23 1.2-.34 1.77-.08.51-.15.83-.22 1.01l-.01-.03v.01l-.04.03-.01.01h-.01l-.01-.01-.01-.01h.01l.01-.005.06-.01.07.025.005.063-.01.05-.02.03-.02.01-.03.02-.055.008-.053-.01-.033-.013-.01-.01-.01-.01-.01-.01-.02-.03-.015-.06c-.07-.21-.13-.61-.16-1.065-.02.06-.05-.666-.02-1.417.01-.377.03-.757.06-1.05.03-.295.07-.498.07-.498l.06-.248.1-.29c.05-.12.1-.255.21-.423l.11-.15.08-.083.05-.047.03-.02.04-.03.04-.03.02-.02.01-.01.04-.03.06-.032.13-.075.58-.356c.404-.26.83-.555 1.16-.77.45-.3.857-.54 1.16-.696.3-.158.5-.24.518-.247zm2.53-4.44l.01.01c.017.08.027.29-.16.47l-.02.016-.32-.106c-.18-.055-.4-.12-.628-.14-.24-.024-.476-.03-.64-.01l-.26.047-.163.018-.34.073c-.19.06-.27.06-.29.006-.02-.053.03-.15.11-.25-.01.004.09-.107.24-.2.14-.1.31-.166.31-.166s.14-.04.35-.06c.21-.02.48-.01.74.017.28.03.54.107.73.17l.31.1zm0 0" fill="#67737B"/><path d="M14.418 22.336l.03.298.053.597.17.25-.03.01c-.25.04-.49.07-.69.08.12-.13.19-.26.19-.26l.01-.22v-.47l-.01-.27.3.01zm1.11-.06l.024.27.052.604-.084.15.5-.134c.724-.204 1.443-.47 1.443-.47l.82-.266c.522-.177 1.2-.415 1.942-.72.37-.15.758-.32 1.135-.51.187-.096.373-.197.538-.304l.212-.16.128-.15c.086-.134.165-.315.23-.507.062-.2.116-.41.16-.62.092-.43.15-.87.195-1.3.093-.87.13-1.7.15-2.42.017-.51.02-.95.02-1.26l-.005-.28-.236-.12v-.03c.015-.08.062-.21.147-.37.08-.16.2-.34.36-.52l.03-.03.04.02-.07-.21-.07-.27-.04-.16v-.01l-.17.13c-.1.06-.19.13-.35.17l-.15.01h-.05l-.06-.01-.19-.04c-.24-.07-.43-.19-.58-.32-.15-.125-.26-.26-.35-.375-.21-.29-.24-.546-.24-.546l-.01-.17.05-.22.07-.12.074-.09c.114-.12.25-.22.39-.31.143-.096.293-.175.43-.24.18-.082.316-.124.41-.15l-.05-.02-.036-.015-.235-.11c-.144-.06-.35-.14-.596-.16-.254-.027-.515.02-.764.14-.255.112-.49.29-.74.49-.13.1-.26.21-.42.31l-.27.14-.22.05.13.12.176.19.19.22.12.14.064.08.036.04.106.14c.363.48.72 1.05.98 1.72.103.01.213.048.315.1.115.06.22.13.33.22l.16.136.08.074.04.04.043.05.13.23.07.21c.03.13.05.26.06.36.02.21-.01.37-.01.37-.006 0-.02.1-.1.23l-.04.06-.05.065-.135.095c-.1.05-.21.045-.3.012l-.097-.05-.05-.04-.056-.074.01-.084.11-.027.07-.004.043-.02.03-.02.02-.05v-.117l-.01-.07v-.26l-.05-.27-.04-.14-.03-.06-.025-.03c-.096-.1-.21-.2-.31-.275.07.27.12.56.14.85.02.22.025.44.02.67-.01.23-.03.46-.07.69-.145.92-.516 1.84-1.07 2.68-.558.84-1.3 1.62-2.27 2.18-.24.14-.496.27-.77.378-.266.11-.54.19-.818.26-.266.06-.535.11-.806.144zm2.828-11.826c-.01-.102.004-.203.03-.292.034-.118.092-.22.156-.31l.202-.23.222-.195c.155-.117.32-.22.49-.306.345-.175.71-.295 1.078-.37.736-.153 1.497-.12 2.164.09.336.103.645.246.92.418.137.085.267.176.384.272.128.098.24.215.326.336.18.242.29.496.373.735l.11.35.04.165.02.068.07.45.03.49c.01.28 0 .63-.03.91l-.04.33.22.05c.2.04.3.12.33.22.04.1 0 .22-.08.33l-.04.06c.05.21.13.63.23 1.17.09.5.18 1.06.26 1.65.08.6.15 1.23.19 1.87.04.65.05 1.32-.02 1.99-.03.34-.09.67-.18 1-.1.33-.23.65-.4.94-.17.3-.38.56-.62.78-.23.22-.47.4-.71.55-.24.15-.48.28-.7.38l-.32.14-.15.06-.09.04c-.413.16-.672.23-.672.23 0 .01-.31.09-.73.18-.42.1-.956.2-1.395.29-.5.1-.76.16-.85.19.167 0 .36.04.57.15l.045.04c0 .02-.006.29.04.71.03.43.12.99.23 1.55.23 1.12.55 2.23.55 2.23s.1.75.096 1.3c.04.93-.3.66-.59.16-.005.03-.154-.275-.3-.59l-.29-.648s-.326-1.113-.557-2.27c-.12-.58-.21-1.164-.25-1.625-.045-.46-.04-.783-.04-.8l.026-.036c.08-.06.22-.127.4-.14l.065-.005c.12-.03.45-.15.85-.3-.04.016.48-.18 1-.4.528-.22 1.04-.47 1.04-.47l.165-.08.2-.09.12-.05.14-.074c.34-.17.74-.386 1.12-.676.38-.29.738-.66.976-1.127.24-.47.37-1.04.44-1.637.066-.59.08-1.23.08-1.85 0-.62-.02-1.24-.028-1.82-.01-.59-.015-1.14-.015-1.647 0-.47.01-.85.016-1.082l-.05.04-.26.18-.32.07c-.2.04-.47.06-.75.03-.215-.02-.425-.07-.6-.13l.048.168c.09.31.19.74.27 1.254.12.72.21 1.56.21 2.47.01.456-.02.92-.08 1.4-.03.24-.073.486-.14.73-.07.25-.152.5-.293.756-.075.13-.166.26-.29.383l-.05.043-.04.04-.082.07-.17.13c-.22.15-.433.27-.65.38-.43.22-.85.39-1.25.54-.805.3-1.54.503-2.13.646-.63.143-1.02.21-1.02.21s-.424.06-1.01.11c-.44.033-.96.055-1.45.05H15l-.386-.01c-.3-.01-.537-.035-.718-.057l-.09.077c-.158.15-.305.11-.385.05l-.11-.09-.1-.088-.09-.15-.08-.17c.01 0 .01-.293 0-.61l-.02-.42c-.6-.1-1.19-.26-1.76-.476-.27-.1-.54-.214-.8-.342l-.39-.204-.38-.24c-.5-.33-.94-.74-1.32-1.2-.37-.46-.67-.98-.88-1.526-.21-.544-.34-1.112-.4-1.68-.05-.57-.04-1.14.04-1.7l.06-.37-.11.047c-.05.04-.12.09-.18.17-.06.08-.12.18-.16.28-.09.21-.14.45-.14.62l.02.27.01.158c.01.08.03.16.1.22l.17.08.06.07-.08.09c-.05.03-.13.05-.23.05l-.132-.03c-.083-.03-.186-.11-.253-.2-.14-.18-.18-.37-.18-.37s-.04-.16-.02-.388c.01-.226.06-.517.18-.796.06-.14.14-.274.23-.395.1-.12.21-.227.334-.298.12-.07.244-.11.33-.12l.146-.02.02.01c.05-.225.108-.452.17-.68.146-.52.325-1.025.55-1.52.228-.485.5-.96.845-1.39.17-.215.36-.42.57-.605l.334-.28.33-.22c.44-.28.89-.51 1.34-.72.45-.21.91-.39 1.37-.53.47-.14.94-.24 1.43-.28.3-.022.59-.02.85.017.26.03.494.09.685.16.385.146.586.314.605.32l.057.08c.08.16.1.38-.01.53-.05.073-.13.13-.24.17-.11.04-.24.06-.4.08h-.07c-.01-.01-.11-.09-.33-.176-.215-.083-.58-.15-1.042-.11-.77.06-1.614.34-2.442.72-.41.19-.83.41-1.214.66l-.15.093-.063.047-.06.05-.12.09-.12.11c-.16.15-.31.31-.45.49-.55.72-.93 1.636-1.19 2.6-.13.48-.23.98-.29 1.482l-.036.36-.01.37c0 .25.01.49.04.74.12.972.51 1.916 1.17 2.654.324.37.71.69 1.14.95l.33.18.35.17c.237.107.48.2.726.28.99.335 2.035.49 3.04.435.5-.03.993-.11 1.452-.25l.334-.12.316-.14c.21-.11.41-.23.6-.36.77-.53 1.39-1.25 1.83-2.01.44-.76.7-1.58.74-2.35.05-.78-.118-1.51-.4-2.15-.14-.32-.316-.62-.5-.89l-.29-.4-.095-.12c-.338-.41-.577-.64-.576-.64 0 0-.25-.308-.63-.69-.37-.39-.883-.85-1.322-1.23-.38-.31-.63-.518-.76-.657-.13-.14-.15-.21-.076-.23.14-.04.647.12 1.21.41-.05-.045.62.314 1.26.77l.316.23zm5.083 2.79v-.014l.02-.26.01-.28v-.173l-.01-.422-.01-.19-.01-.05v-.05h-.01l-.06.04-.38.27-.11.08-.03.02-.02.01-.03.02-.11.07-.11.05-.08.02v.05l.01-.05h-.06l-.11-.03c-.14-.05-.28-.14-.39-.23-.11-.09-.2-.19-.26-.27-.14-.18-.17-.29-.17-.29l-.05-.15-.01-.06.02-.06.12-.2c.103-.14.23-.27.32-.36l.15-.13c.112-.093.23-.17.33-.22l.06-.03.07.02-.03-.035.09-.03-.09.02-.01.01-.07-.074-.03-.022-.21-.162c-.133-.09-.336-.22-.62-.29-.29-.08-.64-.07-.955.04-.32.1-.615.28-.886.46l-.397.26-.188.09-.02.01-.01.01h-.07c-.06-.014-.123-.06-.14-.12-.02-.05-.01-.14.057-.244l.05-.08.07-.08.16-.16c.117-.102.244-.2.38-.28.275-.17.58-.305.897-.39.64-.18 1.32-.19 1.92-.05.3.066.59.174.85.3l.37.22.17.12.14.125c.18.18.31.4.41.61.093.21.163.42.22.617l.03.12.02.086.03.13.024.11.04.23.06.5c.04.363.02.72.03.69l-.02.345-.1-.02-.16-.03s-.348.11-.666.07c-.16-.02-.32-.06-.43-.11l-.06-.02zm-3.76-1.826l-.01-.004-.04-.016.03-.01.01-.005.17-.07.35-.16c.25-.11.5-.2.5-.2l.31-.08.11-.06-.09.1-.11.11-.13.12-.16.09c-.1.05-.23.11-.37.15-.15.04-.29.06-.41.05l-.14-.02-.06-.02zm-1.39-2.548l-.02.005-.08.03.04-.06.01-.02.09-.1c.06-.06.14-.13.26-.21l.07-.04.23-.11.25-.06c.15-.03.33-.04.49-.03l.25.02.04.01c-.03 0-.16.02-.3.07l-.33.12-.34.15-.2.08-.07.03-.3.12-.13.05zM15.8 1.713l-.053.028c-.12.04-.303.08-.484.04-.09-.02-.18-.06-.253-.15-.072-.09-.132-.22-.133-.43l.02-.1.12-.15c.07-.08.18-.2.34-.32.156-.13.364-.26.62-.37.126-.05.262-.1.41-.14L16.5.08l.095-.02.247-.043c.12-.014.28-.02.435-.007.152.01.3.04.397.066.21.054.396.14.548.238.15.098.27.206.353.3.17.19.225.32.227.32-.002 0 .074.13.13.36.025.113.045.255.047.395 0 .14-.01.32-.05.5-.05.18-.14.37-.26.54-.12.17-.28.3-.44.41-.32.21-.65.33-.94.43-.24.08-.44.14-.6.19l-.38.1c-.19.04-.26.03-.25-.04.01-.08.12-.21.3-.35.18-.15.42-.3.68-.46l.32-.21c.2-.14.45-.35.54-.56.05-.11.06-.22.06-.33 0-.11-.03-.25-.06-.33-.07-.17-.14-.23-.14-.24l-.08-.09c-.06-.06-.16-.13-.32-.17l-.19-.03h-.22l-.14.02-.1.02-.07.01-.25.08c-.15.07-.27.14-.35.217-.18.15-.26.274-.27.28zm-.43 3.204c.035-.26.475-.433.68-.336.202.1.418.65.258.91-.154.24-.653.27-.8.02-.107-.18-.156-.4-.14-.59zm-4.88 24.148l.015-.01c.078-.03.28-.075.52 0l.022.01-.002 1.318s-.057.21-.143.36c-.12.253-.24.15-.305-.005-.014.016-.107-.372-.107-.372v-1.3zM14.526 14.1c-.027-.26.405-.52.647-.47.24.053.61.543.503.828-.11.26-.64.394-.853.185-.16-.155-.27-.363-.297-.544zm-2.742.165c-.63.263-.115 1.09.44.91.556-.182.902-.827-.355-.99l-.09.08zm3.094 13.87l.002-.045.04.005.05-.007.066-.015.03-.01-.016.007-.03.013-.07.034-.168.057-.106-.003-.063-.04-.014-.02-.02-.04V28l.02-.06.04-.064.07-.054.06-.024.05-.014.08-.006.04.004.09.033.09.05.17.135.21.17.11.08.04.03.01.007v.01l-.01.01-.02.05-.02.048-.01.04.03-.167.05.02c.23.098.56.11.79.067.23-.04.38-.114.38-.114l.18-.04c.1-.03.23-.08.34-.14.18-.11.26-.16.31-.11.05.05.05.19-.02.34.017-.01-.08.17-.23.31-.146.14-.33.25-.33.25s-.21.11-.533.16c-.32.05-.75.05-1.136-.11l.047.02-.16-.06-.1-.06-.15-.11-.23-.18-.13-.1h-.01l.02-.04.047-.08.054-.12zm.225-1.893l-.017.008-.24.043c-.11.01-.245.01-.38-.1l-.024-.03.04-.167c.03-.097.094-.234.205-.358.113-.126.264-.232.428-.31.165-.08.344-.132.52-.164.356-.07.708-.058.97-.02.26.036.433.096.433.096l.243.14c.14.09.29.242.36.404.07.133.07.234.05.287l-.08.07-.25-.13-.24-.1-.3-.06s-.12-.04-.32-.06c-.19-.02-.47-.03-.73.02-.13.03-.25.07-.35.11-.09.05-.17.11-.21.16-.08.1-.08.18-.08.18zm-.683 1.39l-.02-.006-.2-.137c-.084-.07-.183-.17-.18-.34l.013-.04.155-.09c.092-.05.217-.1.363-.14.3-.09.67-.15 1.04-.18.74-.07 1.45-.07 1.45-.07s.47.06.8.16c.55.14.33.28-.01.35.04.01-.81.12-.81.12s-.69 0-1.37.07c-.34.03-.67.09-.89.15l-.24.09-.07.04zm-1.784-4.323l.082-.01c.154.01.353.09.46.23.108.14.117.36-.036.67l-.055.07-.445.21c-.264.13-.627.35-1.06.63-.317.2-.737.49-1.166.77l-.628.38-.145.08-.07.04-.016.01H9.55l-.074-.16h-.003v.01l.01.05.05.04.024.02.012.01-.01.01-.03.04-.12.26-.08.26-.05.23s-.11.36-.22.89c-.11.52-.23 1.2-.34 1.77-.08.51-.15.83-.22 1.01l-.01-.03v.01l-.04.03-.01.01h-.01l-.01-.014-.01-.013H8.4l.01-.005.06-.01.07.02.006.06-.01.05-.02.03-.02.01-.035.02-.05.01-.05-.01-.03-.01-.01-.01-.01-.01-.02-.028-.012-.06c-.07-.21-.13-.61-.16-1.068-.014.06-.043-.663-.02-1.414.01-.37.034-.75.067-1.05.03-.29.07-.49.07-.49l.06-.24.096-.29c.045-.12.1-.253.205-.42l.11-.15.08-.084.05-.047.027-.02.03-.03.04-.03.02-.017.01-.01.03-.02.06-.036.13-.08.58-.354c.4-.26.83-.56 1.16-.77.45-.3.85-.54 1.16-.7.3-.16.495-.24.51-.25zm2.53-4.44l.008.01c.015.08.025.29-.162.47l-.023.01-.32-.11c-.18-.06-.4-.12-.63-.14-.24-.03-.48-.03-.64-.01l-.26.04-.17.02-.34.07c-.19.06-.27.06-.29 0-.02-.06.03-.15.11-.25-.01 0 .09-.11.24-.2.14-.1.31-.17.31-.17s.14-.04.35-.06c.21-.02.48-.01.74.01.28.03.54.11.73.17l.31.1zm0 0" fill="#3A434E"/></g></svg>