<svg width="32" height="232" viewBox="0 0 32 232" xmlns="http://www.w3.org/2000/svg"><g fill="none"><path d="M8.823 133.675l-.003-.003-.024-.014-.153.015c-.092.016-.22.055-.346.13-.127.078-.25.188-.352.317-.1.13-.182.274-.246.423-.13.3-.19.61-.2.85-.01.24.02.412.02.412 0-.002.04.204.19.394.07.09.17.17.26.2l.14.03c.1.01.19-.02.24-.05l.08-.1-.06-.08-.19-.09c-.07-.06-.09-.15-.1-.24l-.01-.16s-.03-.11-.02-.29c.01-.19.05-.44.15-.67.04-.12.1-.22.17-.31.06-.08.13-.14.19-.18l.11-.05-.06.4c-.09.6-.1 1.21-.04 1.82.06.61.19 1.21.42 1.8.22.58.53 1.14.93 1.63.39.5.86.93 1.39 1.29l.4.25.41.22c.27.13.56.26.84.36.6.23 1.22.4 1.85.51l.02.44c.012.35.004.66.002.66l.09.184.1.16.1.097.12.1c.086.06.24.11.41-.05.22-.17.34-.425.345-.425l.007-.24v-.51l-.01-.295.313.01.03.32.06.64s.24.375.26.355c.16.146.42.21.64-.063.16-.16.26-.38.26-.38l-.06-.642-.03-.29c.287-.03.57-.08.848-.15.29-.075.58-.17.86-.28.29-.113.552-.252.81-.403 1.01-.61 1.8-1.45 2.38-2.35s.98-1.88 1.13-2.866c.04-.25.06-.5.07-.74.01-.24 0-.483-.02-.72-.03-.314-.08-.62-.15-.914.11.08.22.19.32.3l.02.032.03.06.05.15.05.29v.425l-.01.03.005.02-.02.056-.03.02-.05.014-.07.01-.11.023-.013.095.055.083.06.044.1.044c.09.037.21.04.31-.013l.14-.1.06-.07.04-.06c.08-.15.1-.25.1-.25s.026-.17.007-.4c-.01-.117-.03-.25-.066-.39l-.07-.224c-.03-.08-.065-.156-.14-.25l-.045-.05-.04-.045-.08-.08-.17-.15c-.11-.09-.23-.17-.345-.23-.11-.06-.226-.1-.33-.11-.27-.715-.64-1.326-1.03-1.844l-.11-.15-.035-.045-.067-.09-.13-.15-.21-.24-.18-.2-.4-.36c-.24-.21-.57-.47-.905-.71-.67-.485-1.37-.87-1.32-.82-.594-.31-1.12-.49-1.27-.445-.077.02-.06.095.08.244.14.15.4.37.8.704.46.4 1 .9 1.396 1.313.4.417.66.74.66.74-.004 0 .25.245.6.685l.1.12.3.426c.194.3.373.62.524.96.3.687.474 1.47.42 2.3-.05.826-.32 1.7-.78 2.52-.46.815-1.11 1.583-1.92 2.15-.2.14-.416.27-.64.38l-.333.15-.354.125c-.48.15-1 .24-1.525.27-1.06.06-2.16-.107-3.2-.465-.26-.09-.52-.19-.76-.31l-.37-.18-.35-.194c-.45-.28-.86-.62-1.2-1.02-.69-.792-1.1-1.802-1.23-2.85-.03-.26-.05-.52-.05-.78l.01-.39.034-.39c.07-.54.175-1.07.31-1.59.27-1.03.67-2.01 1.253-2.78.143-.2.3-.37.47-.53l.124-.12.12-.1.067-.044.075-.05.15-.1c.41-.27.842-.51 1.28-.71.87-.41 1.76-.7 2.564-.77.49-.04.87.03 1.1.12.23.09.33.18.35.184l.08.004c.165-.02.31-.042.42-.09.114-.04.2-.1.255-.18.11-.15.09-.393.01-.562l-.06-.08c-.02-.01-.23-.19-.638-.34-.2-.08-.445-.14-.72-.175-.27-.034-.573-.04-.89-.014-.51.045-1.004.155-1.494.3-.488.15-.968.34-1.44.56-.477.225-.94.477-1.407.77l-.35.24c-.13.1-.24.194-.35.294-.22.2-.42.42-.6.65-.36.462-.65.97-.886 1.49-.24.523-.428 1.07-.58 1.625-.066.24-.125.486-.177.73zm3.42 16.202l-.008.003-.014.01v1.392s.1.418.11.4c.07.167.2.276.33.005.09-.16.15-.386.15-.386v-1.41l-.02-.01-.17-.03.01-.01.09-.21-.07-.33-.03-.23-.01-.09h-.02l-.33-.01-.21.03-.01.01.02.14.04.26.08.37.11.13zm8.698-1.037l.02.003.09.008h.13l.16.02c.06.02.12.05.16.12l.02.04-.06.14-.05.09-.01.04.01.09.01.1.01.12.01.39.03 1.07s-.05.35-.13.6c-.12.42-.25.25-.32 0-.01.03-.12-.6-.12-.6l-.04-1.05-.01-.39v-.06l-.01-.09-.01-.24.08-.22.05-.1.02-.04zm-4.11.05l.01-.045.05.004.06-.01.07-.02.03-.01h-.01l-.03.01-.07.03-.17.06-.11-.01-.06-.05-.02-.03-.01-.05.01-.08.02-.07.05-.07.07-.06.07-.03.06-.01.087-.01h.05l.094.03.09.056.185.145.22.185.12.08.05.03.01.01-.002.004-.01.01-.02.057-.013.056-.01.04.04-.18.05.025c.246.104.59.115.83.07.25-.04.4-.125.4-.125l.19-.05c.11-.035.244-.09.36-.15.184-.12.274-.17.33-.12.05.05.046.2-.03.36.02-.01-.086.175-.245.326-.155.15-.35.26-.35.26s-.22.11-.56.165c-.336.06-.79.05-1.193-.11l.05.02-.17-.07-.106-.067-.158-.116-.24-.19-.14-.11-.01-.01.025-.04.043-.084.06-.13zm.24-2.027l-.01.008-.25.05c-.11.01-.25.01-.4-.1l-.02-.03.04-.17c.03-.1.1-.25.22-.38s.28-.25.45-.33c.18-.08.36-.14.55-.17.38-.07.75-.06 1.02-.02.28.04.46.11.46.11l.26.15c.14.1.31.26.38.44.07.14.07.25.05.31l-.09.08-.26-.14-.26-.11c-.14-.05-.31-.07-.31-.07s-.13-.04-.34-.07c-.21-.03-.5-.03-.77.02-.13.03-.26.07-.36.12-.1.05-.18.11-.22.17-.08.106-.08.19-.09.198zm-.71 1.49l-.02-.007-.21-.146c-.08-.07-.19-.172-.18-.364l.01-.043.17-.098c.1-.05.23-.102.39-.148.31-.092.7-.154 1.09-.193.78-.076 1.53-.073 1.53-.076 0 0 .5.066.84.173.58.15.35.3-.01.39.04.01-.85.13-.85.13s-.73.01-1.44.08c-.35.04-.7.1-.94.17l-.26.1-.08.05zm1.51-3.843l-.05-.037c-.09-.095-.21-.244-.25-.43-.02-.093-.02-.197.03-.307.06-.11.16-.23.36-.33l.12-.03c.02.006.27.04.63.15.36.11.84.302 1.36.574.45.233 1.02.57 1.54.932.53.36 1 .738 1.31 1.032l.14.14.2.234.08.287.04.144.06.22.05.19s.08.43.16 1.03c.078.59.148 1.35.14 1.98.01.53-.034.88-.09 1.08-.06.19-.12.24-.173.19-.112-.11-.224-.62-.382-1.23 0 .06-.16-.68-.37-1.42-.2-.75-.45-1.51-.45-1.51l-.11-.43-.1-.1c-.23-.22-.66-.58-1.15-.91-.48-.34-1.01-.65-1.42-.87-.47-.25-.873-.41-1.16-.49-.283-.09-.45-.11-.46-.12zm-3.38-.79l.09-.006c.16.02.37.095.49.254.12.158.13.39-.03.726l-.06.075c-.01 0-.18.07-.46.22-.27.14-.66.37-1.11.68-.33.22-.77.53-1.22.82-.22.14-.45.28-.66.4l-.15.09-.07.04-.01.01h-.007l-.08-.17v.01l.01.05.05.04.024.03.01.01h.007-.007l-.03.04c-.047.07-.095.19-.128.29l-.087.28-.06.25s-.118.39-.23.95c-.12.565-.245 1.29-.357 1.9-.09.55-.16.89-.23 1.08v-.04l-.003.01-.035.03-.01.01v.004-.007l-.01-.01-.01-.014v-.01l.02-.01.065-.02.07.023v.07l-.01.05-.02.03-.02.015-.035.015-.057.01-.06-.01-.033-.02-.02-.01-.01-.02-.01-.01-.022-.03-.02-.08c-.072-.223-.133-.65-.17-1.14-.01.07-.04-.71-.02-1.517.01-.408.04-.818.07-1.13.038-.31.078-.53.078-.53l.07-.26.1-.31c.044-.12.1-.27.21-.45l.12-.16.085-.09.05-.05.03-.03.04-.03.046-.035.02-.01.02-.01.04-.024.067-.034.136-.08c.19-.11.394-.24.61-.377.42-.278.87-.59 1.22-.83.47-.317.9-.574 1.22-.742.32-.17.52-.25.54-.26zm-.34-4.19v-.02l.05-.21c.04-.084.11-.176.24-.242l.03-.008.33.214c.19.118.41.25.65.284.28.054.53.05.68-.002.16-.047.25-.123.25-.123l.17-.088.34-.24c.18-.145.27-.174.3-.124.04.05.02.18-.04.32.01-.01-.06.15-.174.31-.106.17-.27.32-.275.31l-.11.07c-.07.04-.18.09-.31.13-.136.04-.297.06-.46.06-.16 0-.33-.02-.48-.05-.175-.02-.35-.09-.49-.16l-.36-.2-.32-.21zm2.52-5.99c-.02-.268.41-.536.66-.484.25.055.62.56.51.854-.11.268-.65.406-.86.19-.16-.16-.27-.373-.3-.56zm-2.77.17c-.63.272-.11 1.126.45.94.57-.19.91-.854-.36-1.02l-.08.08zm0 0" fill="#fff"/><path d="M8.823 53.675l-.003-.003-.024-.014-.153.015c-.092.016-.22.055-.346.13-.127.078-.25.188-.352.317-.1.13-.182.274-.246.423-.13.3-.19.61-.2.85-.01.24.02.412.02.412 0-.002.04.204.19.394.07.09.17.17.26.2l.14.03c.1.01.19-.02.24-.05l.08-.1-.06-.08-.19-.09c-.07-.06-.09-.15-.1-.24l-.01-.16s-.03-.11-.02-.29c.01-.19.05-.44.15-.67.04-.12.1-.22.17-.31.06-.08.13-.14.19-.18l.11-.05-.06.4c-.09.6-.1 1.21-.04 1.82.06.61.19 1.21.42 1.8.22.58.53 1.14.93 1.63.39.5.86.93 1.39 1.29l.4.25.41.22c.27.13.56.26.84.36.6.23 1.22.4 1.85.51l.02.44c.012.35.004.66.002.66l.09.184.1.16.1.097.12.1c.086.06.24.11.41-.05.22-.17.34-.425.345-.425l.007-.24v-.51l-.01-.295.313.01.03.32.06.64s.24.375.26.355c.16.146.42.21.64-.063.16-.16.26-.38.26-.38l-.06-.642-.03-.29c.287-.03.57-.08.848-.15.29-.075.58-.17.86-.28.29-.113.552-.252.81-.403 1.01-.61 1.8-1.45 2.38-2.35s.98-1.88 1.13-2.866c.04-.25.06-.5.07-.74.01-.24 0-.483-.02-.72-.03-.314-.08-.62-.15-.914.11.08.22.19.32.3l.02.032.03.06.05.15.05.29v.425l-.01.03.005.02-.02.056-.03.02-.05.014-.07.01-.11.023-.013.095.055.083.06.044.1.044c.09.037.21.04.31-.013l.14-.1.06-.07.04-.06c.08-.15.1-.25.1-.25s.026-.17.007-.4c-.01-.117-.03-.25-.066-.39l-.07-.224c-.03-.08-.065-.156-.14-.25l-.045-.05-.04-.045-.08-.08-.17-.15c-.11-.09-.23-.17-.345-.23-.11-.06-.226-.1-.33-.11-.27-.715-.64-1.326-1.03-1.844l-.11-.15-.035-.045-.067-.09-.13-.15-.21-.24-.18-.2-.4-.36c-.24-.21-.57-.47-.905-.71-.67-.485-1.37-.87-1.32-.82-.594-.31-1.12-.49-1.27-.445-.077.02-.06.095.08.244.14.15.4.37.8.704.46.4 1 .9 1.396 1.313.4.417.66.74.66.74-.004 0 .25.245.6.685l.1.12.3.426c.194.3.373.62.524.96.3.687.474 1.47.42 2.3-.05.826-.32 1.7-.78 2.52-.46.815-1.11 1.583-1.92 2.15-.2.14-.416.27-.64.38l-.333.15-.354.125c-.48.15-1 .24-1.525.27-1.06.06-2.16-.107-3.2-.465-.26-.09-.52-.19-.76-.31l-.37-.18-.35-.194c-.45-.28-.86-.62-1.2-1.02-.69-.792-1.1-1.802-1.23-2.85-.03-.26-.05-.52-.05-.78l.01-.39.034-.39c.07-.54.175-1.07.31-1.59.27-1.03.67-2.01 1.253-2.78.143-.2.3-.37.47-.53l.124-.12.12-.1.067-.044.075-.05.15-.1c.41-.27.842-.51 1.28-.71.87-.41 1.76-.7 2.564-.77.49-.04.87.03 1.1.12.23.09.33.18.35.184l.08.004c.165-.02.31-.042.42-.09.114-.04.2-.1.255-.18.11-.15.09-.393.01-.562l-.06-.08c-.02-.01-.23-.19-.638-.34-.2-.08-.445-.14-.72-.175-.27-.034-.573-.04-.89-.014-.51.045-1.004.155-1.494.3-.488.15-.968.34-1.44.56-.477.225-.94.477-1.407.77l-.35.24c-.13.1-.24.194-.35.294-.22.2-.42.42-.6.65-.36.462-.65.97-.886 1.49-.24.523-.428 1.07-.58 1.625-.066.24-.125.486-.177.73zm3.42 16.202l-.008.003-.014.01v1.392s.1.418.11.4c.07.167.2.276.33.005.09-.16.15-.386.15-.386v-1.41l-.02-.01-.17-.03.01-.01.09-.21-.07-.33-.03-.23-.01-.09h-.02l-.33-.01-.21.03-.01.01.02.14.04.26.08.37.11.13zm8.698-1.037l.02.003.09.008h.13l.16.02c.06.02.12.05.16.12l.02.04-.06.14-.05.09-.01.04.01.09.01.1.01.12.01.39.03 1.07s-.05.35-.13.6c-.12.42-.25.25-.32 0-.01.03-.12-.6-.12-.6L20.83 70l-.008-.39v-.03l-.002-.03-.01-.088-.01-.24.077-.22.05-.1.02-.047zm-4.11.05l.01-.045.05.004.06-.01.07-.02.03-.01h-.01l-.03.01-.07.03-.17.06-.11-.01-.06-.05-.02-.03-.01-.05.01-.08.02-.07.05-.07.07-.06.07-.03.06-.01.087-.01h.05l.094.03.09.056.185.145.22.185.12.08.05.03.01.01-.002.004-.01.01-.02.057-.013.056-.01.04.04-.18.05.025c.246.104.59.115.83.07.25-.04.4-.125.4-.125l.19-.05c.11-.035.244-.09.36-.15.184-.12.274-.17.33-.12.05.05.046.2-.03.36.02-.01-.086.175-.245.326-.155.15-.35.26-.35.26s-.22.11-.56.165c-.336.06-.79.05-1.193-.11l.05.02-.17-.07-.106-.067-.158-.116-.24-.19-.14-.11-.01-.01.025-.04.043-.084.06-.13zm.24-2.027l-.01.008-.25.05c-.11.01-.25.01-.4-.1l-.02-.03.04-.17c.03-.1.1-.25.22-.38s.28-.25.45-.33c.18-.08.36-.14.55-.17.38-.07.75-.06 1.02-.02.28.04.46.11.46.11l.26.15c.14.1.31.26.38.44.07.14.07.25.05.31l-.09.08-.26-.14-.26-.11c-.14-.05-.31-.07-.31-.07s-.13-.04-.34-.07c-.21-.03-.5-.03-.77.02-.13.03-.26.07-.36.12-.1.05-.18.11-.22.17-.08.106-.08.19-.09.198zm-.71 1.49l-.02-.007-.21-.146c-.08-.07-.19-.172-.18-.364l.01-.043.17-.098c.1-.05.23-.102.39-.148.31-.092.7-.154 1.09-.193.78-.076 1.53-.073 1.53-.076 0 0 .5.066.84.173.58.15.35.3-.01.39.04.01-.85.13-.85.13s-.73.01-1.44.08c-.35.04-.7.1-.94.17l-.26.1-.08.05zm1.51-3.843l-.05-.037c-.09-.095-.21-.244-.25-.43-.02-.093-.02-.197.03-.307.06-.11.16-.23.36-.33l.12-.03c.02.006.27.04.63.15.36.11.84.302 1.36.574.45.233 1.02.57 1.54.932.53.36 1 .738 1.31 1.032l.14.14.2.234.08.287.04.144.06.22.05.19s.08.43.16 1.03c.078.59.148 1.35.14 1.98.01.53-.034.88-.09 1.08-.06.19-.12.24-.173.19-.112-.11-.224-.62-.382-1.23 0 .06-.16-.68-.37-1.42-.2-.75-.45-1.51-.45-1.51l-.11-.43-.1-.1c-.23-.22-.66-.58-1.15-.91-.48-.34-1.01-.65-1.42-.87-.47-.25-.873-.41-1.16-.49-.283-.09-.45-.11-.46-.12zm-3.38-.79l.09-.006c.16.02.37.095.49.254.12.158.13.39-.03.726l-.06.075c-.01 0-.18.07-.46.22-.27.14-.66.37-1.11.68-.33.22-.77.53-1.22.82-.22.14-.45.28-.66.4l-.15.09-.07.04-.01.01h-.007l-.08-.17v.01l.01.05.05.04.024.03.01.01h.007-.007l-.03.04c-.047.07-.095.19-.128.29l-.087.28-.06.25s-.118.39-.23.95c-.12.565-.245 1.29-.357 1.9-.09.55-.16.89-.23 1.08v-.04l-.003.01-.035.03-.01.01v.004-.007l-.01-.01-.01-.014v-.01l.02-.01.065-.02.07.023v.07l-.01.05-.02.03-.02.015-.035.015-.057.01-.06-.01-.033-.02-.02-.01-.01-.02-.01-.01-.022-.03-.02-.08c-.072-.223-.133-.65-.17-1.14-.01.07-.04-.71-.02-1.517.01-.408.04-.818.07-1.13.038-.31.078-.53.078-.53l.07-.26.1-.31c.044-.12.1-.27.21-.45l.12-.16.085-.09.05-.05.03-.03.04-.03.046-.035.02-.01.02-.01.04-.024.067-.034.136-.08c.19-.11.394-.24.61-.377.42-.278.87-.59 1.22-.83.47-.317.9-.574 1.22-.742.32-.17.52-.25.54-.26zm-.34-4.19v-.02l.05-.21c.04-.084.11-.176.24-.242l.03-.008.33.214c.19.118.41.25.65.284.28.054.53.05.68-.002.16-.047.25-.123.25-.123l.17-.088.34-.24c.18-.145.27-.174.3-.124.04.05.02.18-.04.32.01-.01-.06.15-.174.31-.106.17-.27.32-.275.31l-.11.07c-.07.04-.18.09-.31.13-.136.04-.297.06-.46.06-.16 0-.33-.02-.48-.05-.175-.02-.35-.09-.49-.16l-.36-.2-.32-.21zm2.52-5.99c-.02-.268.41-.536.66-.484.25.055.62.56.51.854-.11.268-.65.406-.86.19-.16-.16-.27-.373-.3-.56zm-2.77.17c-.63.272-.11 1.126.45.94.57-.19.91-.854-.36-1.02l-.08.08zm0 0" fill="#67737B"/><path d="M8.823 13.675l-.003-.003-.024-.014-.153.015c-.092.016-.22.055-.346.13-.127.078-.25.188-.352.317-.1.13-.182.274-.246.423-.13.3-.19.61-.2.85-.01.24.02.412.02.412 0-.002.04.204.19.394.07.09.17.17.26.2l.14.03c.1.01.19-.02.24-.05l.08-.1-.06-.08-.19-.09c-.07-.06-.09-.15-.1-.24l-.01-.16s-.03-.11-.02-.29c.01-.19.05-.44.15-.67.04-.12.1-.22.17-.31.06-.08.13-.14.19-.18l.11-.05-.06.4c-.09.6-.1 1.21-.04 1.82.06.61.19 1.21.42 1.8.22.58.53 1.14.93 1.63.39.5.86.93 1.39 1.29l.4.25.41.22c.27.13.56.26.84.36.6.23 1.22.4 1.85.51l.02.44c.012.35.004.66.002.66l.09.184.1.16.1.097.12.1c.086.06.24.11.41-.05.22-.17.34-.425.345-.425l.007-.24v-.51l-.01-.295.313.01.03.32.06.64s.24.375.26.355c.16.146.42.21.64-.063.16-.16.26-.38.26-.38l-.06-.642-.03-.29c.287-.03.57-.08.848-.15.29-.075.58-.17.86-.28.29-.113.552-.252.81-.403 1.01-.61 1.8-1.45 2.38-2.35s.98-1.88 1.13-2.866c.04-.25.06-.5.07-.74.01-.24 0-.483-.02-.72-.03-.314-.08-.62-.15-.914.11.08.22.19.32.3l.02.032.03.06.05.15.05.29v.425l-.01.03.005.02-.02.056-.03.02-.05.014-.07.01-.11.023-.013.095.055.083.06.044.1.044c.09.037.21.04.31-.013l.14-.1.06-.07.04-.06c.08-.15.1-.25.1-.25s.026-.17.007-.4c-.01-.117-.03-.25-.066-.39l-.07-.224c-.03-.08-.065-.156-.14-.25l-.045-.05-.04-.045-.08-.08-.17-.15c-.11-.09-.23-.17-.345-.23-.11-.06-.226-.1-.33-.11-.27-.715-.64-1.326-1.03-1.844l-.11-.15-.035-.045-.067-.09-.13-.15-.21-.24-.18-.2-.4-.36c-.24-.21-.57-.47-.905-.71-.67-.485-1.37-.87-1.32-.82-.594-.31-1.12-.49-1.27-.445-.077.02-.06.095.08.244.14.15.4.37.8.704.46.4 1 .9 1.396 1.313.4.417.66.74.66.74-.004 0 .25.245.6.685l.1.12.3.426c.194.3.373.62.524.96.3.687.474 1.47.42 2.3-.05.826-.32 1.7-.78 2.52-.46.815-1.11 1.583-1.92 2.15-.2.14-.416.27-.64.38l-.333.15-.354.125c-.48.15-1 .24-1.525.27-1.06.06-2.16-.107-3.2-.465-.26-.09-.52-.19-.76-.31l-.37-.18-.35-.194c-.45-.28-.86-.62-1.2-1.02-.69-.792-1.1-1.802-1.23-2.85-.03-.26-.05-.52-.05-.78l.01-.39.034-.39c.07-.54.175-1.07.31-1.59.27-1.03.67-2.01 1.253-2.78.143-.2.3-.37.47-.53l.124-.12.12-.1.067-.044.075-.05.15-.1c.41-.27.842-.51 1.28-.71.87-.41 1.76-.7 2.564-.77.49-.04.87.03 1.1.12.23.09.33.18.35.184l.08.004c.165-.02.31-.042.42-.09.114-.04.2-.1.255-.18.11-.15.09-.393.01-.562l-.06-.08c-.02-.01-.23-.19-.638-.34-.2-.08-.445-.14-.72-.175-.27-.034-.573-.04-.89-.014-.51.045-1.004.155-1.494.3-.488.15-.968.34-1.44.56-.477.225-.94.477-1.407.77l-.35.24c-.13.1-.24.194-.35.294-.22.2-.42.42-.6.65-.36.462-.65.97-.886 1.49-.24.523-.428 1.07-.58 1.625-.066.24-.125.486-.177.73zm3.42 16.202l-.008.003-.014.01v1.392s.1.418.11.4c.07.167.2.276.33.005.09-.16.15-.386.15-.386v-1.41l-.02-.01-.17-.03.01-.01.09-.21-.07-.33-.03-.23-.01-.09h-.02l-.33-.01-.21.03-.01.01.02.14.04.26.08.37.11.13zm8.698-1.037l.02.003.09.008h.13l.16.02c.06.02.12.05.16.12l.02.04-.06.14-.05.09-.01.04.01.09.01.1.01.12.01.39.03 1.07s-.05.35-.13.6c-.12.42-.25.25-.32 0-.01.03-.12-.6-.12-.6L20.83 30l-.008-.39v-.03l-.002-.03-.01-.088-.01-.24.077-.22.05-.1.02-.047zm-4.11.05l.01-.045.05.004.06-.01.07-.02.03-.01h-.01l-.03.01-.07.03-.17.06-.11-.01-.06-.05-.02-.03-.01-.05.01-.08.02-.07.05-.07.07-.06.07-.03.06-.01.087-.01h.05l.094.03.09.056.185.145.22.185.12.08.05.03.01.01-.002.004-.01.01-.02.057-.013.056-.01.04.04-.18.05.025c.246.104.59.115.83.07.25-.04.4-.125.4-.125l.19-.05c.11-.035.244-.09.36-.15.184-.12.274-.17.33-.12.05.05.046.2-.03.36.02-.01-.086.175-.245.326-.155.15-.35.26-.35.26s-.22.11-.56.165c-.336.06-.79.05-1.193-.11l.05.02-.17-.07-.106-.067-.158-.116-.24-.19-.14-.11-.01-.01.025-.04.043-.084.06-.13zm.24-2.027l-.01.008-.25.05c-.11.01-.25.01-.4-.1l-.02-.03.04-.17c.03-.1.1-.25.22-.38s.28-.25.45-.33c.18-.08.36-.14.55-.17.38-.07.75-.06 1.02-.02.28.04.46.11.46.11l.26.15c.14.1.31.26.38.44.07.14.07.25.05.31l-.09.08-.26-.14-.26-.11c-.14-.05-.31-.07-.31-.07s-.13-.04-.34-.07c-.21-.03-.5-.03-.77.02-.13.03-.26.07-.36.12-.1.05-.18.11-.22.17-.08.106-.08.19-.09.198zm-.71 1.49l-.02-.007-.21-.146c-.08-.07-.19-.172-.18-.364l.01-.043.17-.098c.1-.05.23-.102.39-.148.31-.092.7-.154 1.09-.193.78-.076 1.53-.073 1.53-.076 0 0 .5.066.84.173.58.15.35.3-.01.39.04.01-.85.13-.85.13s-.73.01-1.44.08c-.35.04-.7.1-.94.17l-.26.1-.08.05zm1.51-3.843l-.05-.037c-.09-.095-.21-.244-.25-.43-.02-.093-.02-.197.03-.307.06-.11.16-.23.36-.33l.12-.03c.02.006.27.04.63.15.36.11.84.302 1.36.574.45.233 1.02.57 1.54.932.53.36 1 .738 1.31 1.032l.14.14.2.234.08.287.04.144.06.22.05.19s.08.43.16 1.03c.078.59.148 1.35.14 1.98.01.53-.034.88-.09 1.08-.06.19-.12.24-.173.19-.112-.11-.224-.62-.382-1.23 0 .06-.16-.68-.37-1.42-.2-.75-.45-1.51-.45-1.51l-.11-.43-.1-.1c-.23-.22-.66-.58-1.15-.91-.48-.34-1.01-.65-1.42-.87-.47-.25-.873-.41-1.16-.49-.283-.09-.45-.11-.46-.12zm-3.38-.79l.09-.006c.16.02.37.095.49.254.12.158.13.39-.03.726l-.06.075c-.01 0-.18.07-.46.22-.27.14-.66.37-1.11.68-.33.22-.77.53-1.22.82-.22.14-.45.28-.66.4l-.15.09-.07.04-.01.01h-.007l-.08-.17v.01l.01.05.05.04.024.03.01.01h.007-.007l-.03.04c-.047.07-.095.19-.128.29l-.087.28-.06.25s-.118.39-.23.95c-.12.565-.245 1.29-.357 1.9-.09.55-.16.89-.23 1.08v-.04l-.003.01-.035.03-.01.01v.004-.007l-.01-.01-.01-.014v-.01l.02-.01.065-.02.07.023v.07l-.01.05-.02.03-.02.015-.035.015-.057.01-.06-.01-.033-.02-.02-.01-.01-.02-.01-.01-.022-.03-.02-.08c-.072-.223-.133-.65-.17-1.14-.01.07-.04-.71-.02-1.517.01-.408.04-.818.07-1.13.038-.31.078-.53.078-.53l.07-.26.1-.31c.044-.12.1-.27.21-.45l.12-.16.085-.09.05-.05.03-.03.04-.03.046-.035.02-.01.02-.01.04-.024.067-.034.136-.08c.19-.11.394-.24.61-.377.42-.278.87-.59 1.22-.83.47-.317.9-.574 1.22-.742.32-.17.52-.25.54-.26zm-.34-4.19v-.02l.05-.21c.04-.084.11-.176.24-.242l.03-.008.33.214c.19.118.41.25.65.284.28.054.53.05.68-.002.16-.047.25-.123.25-.123l.17-.088.34-.24c.18-.145.27-.174.3-.124.04.05.02.18-.04.32.01-.01-.06.15-.174.31-.106.17-.27.32-.275.31l-.11.07c-.07.04-.18.09-.31.13-.136.04-.297.06-.46.06-.16 0-.33-.02-.48-.05-.175-.02-.35-.09-.49-.16l-.36-.2-.32-.21zm2.52-5.99c-.02-.268.41-.536.66-.484.25.055.62.56.51.854-.11.268-.65.406-.86.19-.16-.16-.27-.373-.3-.56zm-2.77.17c-.63.272-.11 1.126.45.94.57-.19.91-.854-.36-1.02l-.08.08zm0 0" fill="#3A434E"/></g></svg>