<svg width="32" height="232" viewBox="0 0 32 232" xmlns="http://www.w3.org/2000/svg"><g fill="none"><path d="M25.33 126.806c-2.002-1.785-4.81-2.81-8.067-2.806-4.306-.012-7.744 1.248-10.332 3.84-2.25 2.28-3.43 5.34-3.43 8.78 0 3.27 1.15 6.243 3.27 8.335 2.45 2.457 5.68 3.767 9.26 3.767h.02c2.01 0 4.01-.298 5.93-.892.39-.117.77-.25 1.11-.393l.02-.015.13-.07c.51-.272.83-.8.83-1.38 0-.87-.7-1.587-1.57-1.587-.13 0-.25.027-.37.052l-.05.016-.03.008-.16.06c-.34.12-.66.22-1.03.34l-.28.09c-1.27.39-2.77.61-4.2.61-5.42-.03-9.08-3.68-9.1-9.08.02-5.46 3.95-9.18 9.8-9.22 1.95 0 3.7.43 4.89 1.15.51.32.96.7 1.35 1.14H21.4c-.465.01-.88.11-1.225.28-.255.13-.485.28-.65.53-.694-.99-1.68-1.43-3.06-1.38-3.894.04-6.93 4.09-6.933 8.74 0 1.58.41 2.93 1.23 3.89.81.97 2.026 1.5 3.42 1.5 1.455.02 2.627-.49 3.617-1.55.05.26.11.43.22.59.51.79 1.48 1.16 2.52 1.17 1.92 0 3.84-.86 5.31-2.33 1.74-1.73 2.68-4.17 2.68-6.8 0-2.96-1.17-5.52-3.17-7.314m-8.13 11.04c-.76 1.486-1.69 2.14-2.57 2.13-.3 0-.65-.06-.91-.302s-.54-.72-.54-1.78c-.01-1.2.43-2.85 1.09-4.08.7-1.31 1.61-1.904 2.57-1.91.85.016 1.42.606 1.45 1.75 0 1.21-.43 2.91-1.09 4.2m5.65 1.53c-.56.45-1.22.694-1.65.69-.46-.05-.52-.12-.56-.53v-.24c.05-.3.29-1.25.51-2.07l1.25-4.634c.11-.49.46-1.68.66-2.353l.21-.72c1.11 1.23 1.75 2.9 1.75 4.73 0 2.098-.91 4.14-2.18 5.12" fill="#206FAC"/><path d="M25.33 86.806c-2.002-1.785-4.81-2.81-8.067-2.806-4.306-.012-7.744 1.248-10.332 3.84-2.25 2.28-3.43 5.34-3.43 8.78 0 3.27 1.15 6.243 3.27 8.335 2.45 2.457 5.68 3.767 9.26 3.767h.02c2.01 0 4.01-.298 5.93-.892.39-.117.77-.25 1.11-.393l.02-.015.13-.07c.51-.272.83-.8.83-1.38 0-.87-.7-1.587-1.57-1.587-.13 0-.25.027-.37.052l-.05.016-.03.008-.16.06c-.34.12-.66.22-1.03.34l-.28.09c-1.27.39-2.77.61-4.2.61-5.42-.03-9.08-3.68-9.1-9.08.02-5.46 3.95-9.18 9.8-9.22 1.95 0 3.7.43 4.89 1.15.51.32.96.7 1.35 1.14H21.4c-.465.01-.88.11-1.225.28-.255.13-.485.28-.65.53-.694-.99-1.68-1.43-3.06-1.38-3.894.04-6.93 4.09-6.933 8.74 0 1.58.41 2.93 1.23 3.89.81.97 2.026 1.5 3.42 1.5 1.455.02 2.627-.49 3.617-1.55.05.26.11.43.22.59.51.79 1.48 1.16 2.52 1.17 1.92 0 3.84-.86 5.31-2.33 1.74-1.73 2.68-4.17 2.68-6.8 0-2.96-1.17-5.52-3.17-7.314m-8.16 11c-.76 1.485-1.69 2.14-2.57 2.13-.3 0-.65-.06-.91-.303s-.54-.72-.54-1.776c0-1.2.43-2.86 1.09-4.086.71-1.31 1.62-1.906 2.58-1.91.85.014 1.42.604 1.45 1.75 0 1.21-.43 2.91-1.09 4.2m5.66 1.527c-.55.44-1.21.69-1.65.68-.45-.05-.51-.12-.56-.53v-.24c.06-.3.29-1.25.52-2.07l1.25-4.64c.12-.49.46-1.68.66-2.36l.21-.72c1.12 1.23 1.76 2.9 1.76 4.73 0 2.092-.91 4.14-2.18 5.114" fill="#fff"/><path d="M25.33 46.806c-2.002-1.785-4.81-2.81-8.067-2.806-4.306-.012-7.744 1.248-10.332 3.84-2.25 2.28-3.43 5.34-3.43 8.78 0 3.27 1.15 6.243 3.27 8.335 2.45 2.457 5.68 3.767 9.26 3.767h.02c2.01 0 4.01-.298 5.93-.892.39-.117.77-.25 1.11-.393l.02-.015.13-.07c.51-.272.83-.8.83-1.38 0-.87-.7-1.587-1.57-1.587-.13 0-.25.027-.37.052l-.05.016-.03.008-.16.06c-.34.12-.66.22-1.03.34l-.28.09c-1.27.39-2.77.61-4.2.61-5.42-.03-9.08-3.68-9.1-9.08.02-5.46 3.95-9.18 9.8-9.22 1.95 0 3.7.43 4.89 1.15.51.32.96.7 1.35 1.14H21.4c-.465.01-.88.11-1.225.28-.255.13-.485.28-.65.53-.694-.99-1.68-1.43-3.06-1.38-3.894.04-6.93 4.09-6.933 8.74 0 1.58.41 2.93 1.23 3.89.81.97 2.026 1.5 3.42 1.5 1.455.02 2.627-.49 3.617-1.55.05.26.11.43.22.59.51.79 1.48 1.16 2.52 1.17 1.92 0 3.84-.86 5.31-2.33 1.74-1.73 2.68-4.17 2.68-6.8 0-2.96-1.17-5.52-3.17-7.314m-8.16 11c-.76 1.485-1.69 2.14-2.57 2.13-.3 0-.65-.06-.91-.303s-.54-.72-.54-1.776c0-1.2.43-2.86 1.09-4.086.71-1.31 1.62-1.906 2.58-1.91.85.014 1.42.604 1.45 1.75 0 1.21-.43 2.91-1.09 4.2m5.66 1.527c-.55.44-1.21.69-1.65.68-.45-.05-.51-.12-.56-.53v-.24c.06-.3.29-1.25.52-2.07l1.25-4.64c.12-.49.46-1.68.66-2.36l.21-.72c1.12 1.23 1.76 2.9 1.76 4.73 0 2.092-.91 4.14-2.18 5.114" fill="#67737B"/><path d="M25.33 6.806C23.328 5.02 20.52 3.996 17.263 4 12.957 3.988 9.52 5.248 6.93 7.84c-2.25 2.28-3.434 5.34-3.43 8.78-.002 3.27 1.148 6.243 3.27 8.335 2.45 2.457 5.68 3.767 9.257 3.767h.016c2.01 0 4.007-.298 5.93-.892.392-.117.765-.25 1.105-.393l.02-.015.126-.07c.504-.272.826-.8.826-1.38 0-.87-.7-1.587-1.574-1.587-.13 0-.256.027-.375.052l-.04.016-.03.008-.16.06c-.34.12-.66.22-1.03.34l-.28.09c-1.27.39-2.77.61-4.2.61-5.42-.03-9.08-3.68-9.1-9.08.02-5.46 3.95-9.18 9.8-9.22 1.95 0 3.7.43 4.89 1.15.51.32.96.7 1.35 1.14h-1.91c-.46.01-.87.11-1.22.28-.26.13-.49.28-.65.53-.69-.99-1.68-1.43-3.06-1.38-3.89.04-6.93 4.09-6.93 8.74 0 1.58.41 2.93 1.23 3.89.82.97 2.03 1.5 3.43 1.5 1.46.02 2.63-.49 3.62-1.55.05.26.11.43.22.59.51.79 1.48 1.16 2.53 1.17 1.92 0 3.84-.86 5.31-2.33 1.74-1.73 2.687-4.17 2.687-6.8.004-2.96-1.166-5.52-3.17-7.314m-8.16 11c-.756 1.485-1.692 2.14-2.572 2.13-.293 0-.645-.06-.91-.303-.256-.243-.534-.72-.54-1.776-.002-1.2.436-2.86 1.096-4.086.71-1.31 1.62-1.906 2.58-1.91.85.014 1.42.604 1.45 1.75 0 1.21-.43 2.91-1.09 4.2m5.66 1.527c-.55.44-1.21.69-1.65.68-.45-.05-.51-.12-.56-.53v-.24c.06-.3.29-1.25.52-2.07l1.25-4.64c.12-.49.46-1.68.66-2.36l.21-.72c1.12 1.23 1.76 2.9 1.76 4.73.01 2.092-.9 4.14-2.18 5.114" fill="#3A434E"/></g></svg>