<svg width="32" height="232" viewBox="0 0 32 232" xmlns="http://www.w3.org/2000/svg"><g fill="none"><path d="M28.8 173.993c.34-.332.237-.66-.232-.73l-7.573-1.117c-.466-.06-1.024-.47-1.233-.903l-3.38-6.915c-.21-.435-.556-.435-.766 0l-3.38 6.915c-.21.434-.762.842-1.234.903l-7.566 1.118c-.468.068-.576.396-.234.73l5.476 5.39c.337.335.553.993.474 1.466l-1.296 7.608c-.08.473.193.68.615.448l6.78-3.583c.42-.223 1.11-.223 1.52 0l6.77 3.583c.43.233.7.025.62-.448l-1.29-7.608c-.08-.472.13-1.13.46-1.465l5.49-5.392zm-7.18 2.437l-2.406 2.366c-.15.15-.24.44-.2.643l.565 3.34c.03.2-.09.29-.28.19l-2.97-1.57c-.19-.1-.49-.1-.67 0l-2.97 1.57c-.18.1-.31.01-.27-.2l.57-3.35c.03-.21-.06-.5-.21-.65l-2.41-2.37c-.15-.15-.1-.29.1-.33l3.32-.48c.21-.04.45-.22.55-.41l1.48-3.04c.09-.19.24-.19.34 0l1.48 3.04c.09.19.33.37.54.4l3.32.48c.2.04.25.18.1.32zm0 0" fill="#2789D5"/><path d="M28.8 133.993c.34-.332.237-.66-.232-.73l-7.573-1.117c-.466-.06-1.024-.47-1.233-.903l-3.38-6.915c-.21-.435-.556-.435-.766 0l-3.38 6.915c-.21.434-.762.842-1.234.903l-7.566 1.118c-.468.068-.576.396-.234.73l5.476 5.39c.337.335.553.993.474 1.466l-1.296 7.608c-.08.473.193.68.615.448l6.78-3.583c.42-.223 1.11-.223 1.52 0l6.77 3.583c.43.233.7.025.62-.448l-1.29-7.608c-.08-.472.13-1.13.46-1.465l5.49-5.392zm-7.18 2.437l-2.406 2.366c-.15.15-.24.44-.2.643l.565 3.34c.03.2-.09.29-.28.19l-2.97-1.57c-.19-.1-.49-.1-.67 0l-2.97 1.57c-.18.1-.31.01-.27-.2l.57-3.35c.03-.21-.06-.5-.21-.65l-2.41-2.37c-.15-.15-.1-.29.1-.33l3.32-.48c.21-.04.45-.22.55-.41l1.48-3.04c.09-.19.24-.19.34 0l1.48 3.04c.09.19.33.37.54.4l3.32.48c.2.04.25.18.1.32zm0 0" fill="#206FAC"/><path d="M28.8 93.993c.34-.332.237-.66-.232-.73l-7.573-1.117c-.466-.06-1.024-.47-1.233-.903l-3.38-6.915c-.21-.435-.556-.435-.766 0l-3.38 6.915c-.21.434-.762.842-1.234.903l-7.566 1.118c-.468.068-.576.396-.234.73l5.476 5.39c.337.335.553.993.474 1.466l-1.296 7.608c-.08.473.193.68.615.448l6.78-3.583c.42-.223 1.11-.223 1.52 0l6.77 3.583c.43.233.7.025.62-.448l-1.29-7.608c-.08-.472.13-1.13.46-1.465l5.49-5.392zm-7.18 2.437l-2.406 2.366c-.15.15-.24.44-.2.643l.565 3.34c.03.2-.09.29-.28.19l-2.97-1.57c-.19-.1-.49-.1-.67 0l-2.97 1.57c-.18.1-.31.01-.27-.2l.57-3.35c.03-.21-.06-.5-.21-.65l-2.41-2.37c-.15-.15-.1-.29.1-.33l3.32-.48c.21-.04.45-.22.55-.41l1.48-3.04c.09-.19.24-.19.34 0l1.48 3.04c.09.19.33.37.54.4l3.32.48c.2.04.25.18.1.32zm0 0" fill="#fff"/><path d="M28.8 53.993c.34-.332.237-.66-.232-.73l-7.573-1.117c-.466-.06-1.024-.47-1.233-.903l-3.38-6.915c-.21-.435-.556-.435-.766 0l-3.38 6.915c-.21.434-.762.842-1.234.903l-7.566 1.118c-.468.068-.576.396-.234.73l5.476 5.39c.337.335.553.993.474 1.466l-1.296 7.608c-.08.473.193.68.615.448l6.78-3.583c.42-.223 1.11-.223 1.52 0l6.77 3.583c.43.233.7.025.62-.448l-1.29-7.608c-.08-.472.13-1.13.46-1.465l5.49-5.392zm-7.18 2.437l-2.406 2.366c-.15.15-.24.44-.2.643l.565 3.34c.03.2-.09.29-.28.19l-2.97-1.57c-.19-.1-.49-.1-.67 0l-2.97 1.57c-.18.1-.31.01-.27-.2l.57-3.35c.03-.21-.06-.5-.21-.65l-2.41-2.37c-.15-.15-.1-.29.1-.33l3.32-.48c.21-.04.45-.22.55-.41l1.48-3.04c.09-.19.24-.19.34 0l1.48 3.04c.09.19.33.37.54.4l3.32.48c.2.04.25.18.1.32zm0 0" fill="#67747C"/><path d="M28.8 13.993c.34-.332.237-.66-.232-.73l-7.573-1.117c-.466-.06-1.024-.47-1.233-.903l-3.38-6.915c-.21-.435-.556-.435-.766 0l-3.38 6.915c-.21.434-.762.842-1.234.903l-7.566 1.118c-.468.068-.576.396-.234.73l5.476 5.39c.337.335.553.993.474 1.466l-1.296 7.608c-.08.473.193.68.615.448l6.78-3.583c.42-.223 1.11-.223 1.52 0l6.77 3.583c.43.233.7.025.62-.448l-1.29-7.608c-.08-.472.13-1.13.46-1.465l5.49-5.392zm-7.18 2.437l-2.406 2.366c-.15.15-.24.44-.2.643l.565 3.34c.03.2-.09.29-.28.19l-2.97-1.57c-.19-.1-.49-.1-.67 0l-2.97 1.57c-.18.1-.31.01-.27-.2l.57-3.35c.03-.21-.06-.5-.21-.65l-2.41-2.37c-.15-.15-.1-.29.1-.33l3.32-.48c.21-.04.45-.22.55-.41l1.48-3.04c.09-.19.24-.19.34 0l1.48 3.04c.09.19.33.37.54.4l3.32.48c.2.04.25.18.1.32zm0 0" fill="#3B444F"/></g></svg>