<svg width="22" height="32" viewBox="0 0 22 32" xmlns="http://www.w3.org/2000/svg"><g fill="none"><path d="M15.473 29.984c0 1.105-2.016 2-4.5 2-2.487 0-4.5-.895-4.5-2 0-1.104 2.013-2 4.5-2 2.484 0 4.5.896 4.5 2" fill-opacity=".2" fill="#1D508D"/><path d="M10.972.016c6.076 0 11 4.394 11 11 0 6.454-5.55 9.226-8.505 13.354-2.42 3.37-2.495 5.865-2.495 5.865s-.02-2.507-2.494-5.865c-3.04-4.128-8.505-6.71-8.505-13.355 0-6.607 4.925-11 11-11" fill="#288AD6"/><path d="M14.518 11.917c-.162.16-.264.477-.222.703l.624 3.652c.04.225-.095.326-.3.215l-3.28-1.72c-.2-.108-.534-.108-.735 0l-3.282 1.72c-.204.11-.34.01-.3-.215l.627-3.652c.04-.226-.064-.544-.228-.703l-2.654-2.59c-.166-.158-.114-.316.113-.35l3.67-.537c.23-.03.5-.224.6-.433l1.64-3.317c.11-.21.27-.21.38 0l1.64 3.314c.1.21.37.404.6.433l3.67.537c.23.033.28.19.12.35l-2.66 2.59" fill="#fff"/><path d="M13.695 10.497c.074-.067.05-.137-.047-.154l-1.613-.23c-.1-.016-.217-.103-.262-.195l-.717-1.458c-.046-.088-.122-.088-.163 0l-.72 1.458c-.046.092-.164.18-.267.194l-1.61.23c-.097.018-.118.088-.048.155l1.167 1.136c.072.072.114.212.1.31l-.277 1.604c-.015.1.044.14.133.093l1.44-.754c.09-.045.24-.045.33 0l1.44.754c.09.047.15.006.14-.093l-.27-1.605c-.02-.097.03-.237.1-.31l1.17-1.135" fill="#288AD6"/></g></svg>