<svg width="32" height="232" viewBox="0 0 32 232" xmlns="http://www.w3.org/2000/svg"><g fill="none"><path d="M23.625 127H8.377c-2.688 0-4.877 2.187-4.877 4.875v10.09c0 2.687 2.19 4.874 4.877 4.874h15.248c2.69 0 4.877-2.19 4.877-4.88v-10.09c0-2.69-2.188-4.88-4.877-4.88zm-15.248 2.87h15.248c.97 0 1.777.685 1.967 1.598l-9.49 5.59-9.69-5.596c.192-.91.998-1.593 1.965-1.593zm15.248 14.1H8.377c-1.11 0-2.008-.898-2.008-2.006v-7.656l9.11 5.265.01.004.02.01.13.062c.15.06.3.09.46.09.16 0 .31-.03.46-.09v-.01l.13-.07.02-.01.01-.01 8.89-5.24v7.63c0 1.11-.9 2-2.01 2zm0 0" fill="#206FAC"/><path d="M23.625 87H8.377C5.69 87 3.5 89.187 3.5 91.875v10.09c0 2.687 2.19 4.874 4.877 4.874h15.248c2.69 0 4.877-2.19 4.877-4.88V91.87c0-2.686-2.188-4.873-4.877-4.873zM8.377 89.87h15.248c.97 0 1.777.685 1.967 1.598l-9.49 5.59-9.69-5.596c.192-.91.998-1.593 1.965-1.593zm15.248 14.1H8.377c-1.11 0-2.008-.898-2.008-2.006v-7.656l9.11 5.265.01.004.02.01.13.062c.15.06.3.09.46.09.16 0 .31-.03.46-.09v-.01l.13-.07.02-.01.01-.01 8.89-5.24v7.63c0 1.11-.9 2-2.01 2zm0 0" fill="#fff"/><path d="M23.625 47H8.377C5.69 47 3.5 49.187 3.5 51.875v10.09c0 2.687 2.19 4.874 4.877 4.874h15.248c2.69 0 4.877-2.19 4.877-4.88V51.87c0-2.686-2.188-4.873-4.877-4.873zM8.377 49.87h15.248c.97 0 1.777.685 1.967 1.598l-9.49 5.59-9.69-5.596c.192-.91.998-1.593 1.965-1.593zm15.248 14.1H8.377c-1.11 0-2.008-.898-2.008-2.006v-7.656l9.11 5.265.01.004.02.01.13.062c.15.06.3.09.46.09.16 0 .31-.03.46-.09v-.01l.13-.07.02-.01.01-.01 8.89-5.24v7.63c0 1.11-.9 2-2.01 2zm0 0" fill="#67737B"/><path d="M23.625 7H8.377C5.69 7 3.5 9.187 3.5 11.875v10.09c0 2.687 2.19 4.874 4.877 4.874h15.248c2.69 0 4.877-2.19 4.877-4.88V11.87c0-2.682-2.188-4.87-4.877-4.87zM8.377 9.87h15.248c.97 0 1.777.685 1.967 1.598l-9.49 5.59-9.69-5.596c.192-.91.998-1.593 1.965-1.593zm15.248 14.1H8.377c-1.11 0-2.008-.898-2.008-2.006v-7.656l9.11 5.265.01.004.02.01.13.062c.15.06.3.09.46.09.16 0 .31-.03.46-.09v-.01l.13-.07.02-.01.01-.01 8.89-5.24v7.63c0 1.11-.9 2-2.01 2zm0 0" fill="#3A434E"/></g></svg>