<svg width="22" height="32" viewBox="0 0 22 32" xmlns="http://www.w3.org/2000/svg"><g fill="none"><path d="M15.497 29.984c0 1.105-2.016 2-4.5 2-2.486 0-4.5-.895-4.5-2 0-1.104 2.014-2 4.5-2 2.484 0 4.5.896 4.5 2" fill-opacity=".2" fill="#1D508D"/><path d="M10.997.016c6.075 0 11 4.362 11 10.92 0 6.407-5.55 9.16-8.506 13.256-2.41 3.346-2.49 5.824-2.49 5.824s-.01-2.49-2.49-5.824C5.47 20.095 0 17.532 0 10.935 0 4.375 4.926.015 11 .015" fill="#684E79"/><path d="M6.967 5.716l-.018-.11.09-.066 1.53.01.47-1.45.09-.075.1.052.76 1.335 1.5-.314.1.04v.118l-.77 1.325 1.02 1.14.02.11-.1.07-1.54-.02-.47 1.46-.09.08h-.01l-.1-.05-.75-1.34-1.5.32-.11-.04-.01-.12.77-1.32-1.02-1.15m4.75 2.84l.1-.06 1.43-.01.42-1.37.082-.07.106.05.73 1.23 1.4-.33.106.05.01.12-.708 1.25.97 1.05.02.11-.1.07-1.43.01-.416 1.37-.09.07h-.01l-.094-.06-.73-1.23-1.39.32-.11-.04-.005-.11.71-1.25-.97-1.05-.03-.12M10.61 15l-.01.115-.112.035-2.195-.554-1.193 1.93-.09.05h-.02L6.9 16.5l-.613-2.182-2.265-.072-.1-.067.025-.11 1.583-1.63-1.07-2 .01-.12.11-.04 2.193.55L7.97 8.92l.108-.05.085.08.617 2.177 2.264.076.094.065-.02.114-1.58 1.624L10.608 15m5.896-3.34c.042.113.972 2.815-.162 5.106l-.063.057-.05.012-.09-.047c-.02-.024-1.71-2.353-4.91-2.583l-.09-.063-.4-.822.02-.125.84-.775.11-.02c.03.014 3.17 1.29 4.46 3.984.08-.697.13-2.44-1.09-4.05l-.02-.106.28-.682.11-.064.93.107.08.06" fill="#fff"/></g></svg>