<svg width="32" height="232" viewBox="0 0 32 232" xmlns="http://www.w3.org/2000/svg"><g fill="none"><path d="M10.787 168.756l-1.49 2.674c-.04.074-.03.168.01.236.046.076.13.104.206.084l2.87-.637 1.446 2.71c.03.07.1.113.18.113h.01c.08-.013.15-.07.17-.15l.9-2.97 2.94.04c.08 0 .15-.053.18-.13.02-.076.02-.177-.04-.228l-1.96-2.31 1.48-2.69c.04-.076.04-.168-.01-.237-.05-.06-.13-.1-.21-.08l-2.87.64-1.45-2.71c-.04-.06-.11-.12-.2-.1-.08.01-.14.07-.17.15l-.92 2.95-2.93-.02c-.1 0-.15.05-.18.13-.04.08-.02.17.03.23l1.95 2.32zm7.134 3.445c-.03.08-.01.17.04.23l1.87 2.13-1.35 2.53c-.04.08-.03.17.02.23.05.08.14.1.21.09l2.66-.65 1.4 2.5c.05.07.11.11.18.11h.02c.08-.01.15-.07.18-.15l.8-2.77 2.74-.02c.08 0 .15-.05.19-.13.03-.08.02-.16-.04-.22l-1.86-2.13 1.36-2.53c.04-.08.04-.16-.02-.23-.04-.07-.12-.1-.2-.08l-2.66.65-1.39-2.51c-.04-.07-.12-.11-.2-.1-.07.01-.15.07-.17.15l-.81 2.78-2.73.02c-.08 0-.15.05-.18.13zm-4.16 9.04l3.03-3.29c.06-.06.07-.15.05-.23-.03-.07-.1-.13-.18-.13l-4.33-.15-1.18-4.41c-.02-.08-.08-.15-.16-.16-.08-.01-.15.03-.2.11l-2.29 3.9-4.2-1.12c-.07-.02-.16 0-.21.07-.04.07-.05.15-.01.24l2.05 4.05-3.02 3.3c-.06.06-.08.15-.05.23.04.09.1.14.19.14l4.34.15 1.18 4.43c.03.09.09.137.17.16h.03c.07 0 .14-.04.17-.1l2.3-3.91 4.2 1.13c.07.02.16-.01.21-.08.05-.07.056-.156.02-.23l-2.05-4.05zm13.33-2.73c-.02-.08-.09-.13-.16-.14l-1.77-.21c-.09 0-.18.05-.21.13l-.55 1.39c-.02.07-.01.15.03.22 2.33 3.27 2.24 6.8 2.08 8.21-2.47-5.46-8.48-8.05-8.54-8.08-.07-.03-.16-.02-.22.04l-1.6 1.57c-.06.07-.08.16-.04.26l.76 1.67c.03.07.1.12.17.13 6.12.47 9.37 5.19 9.4 5.24.04.06.11.09.17.09l.09-.02c.06-.01.1-.05.12-.11 2.17-4.65.39-10.13.31-10.36zm0 0" fill="#674D79"/><path d="M10.787 128.756l-1.49 2.674c-.04.074-.03.168.01.236.046.076.13.104.206.084l2.87-.637 1.446 2.71c.03.07.1.113.18.113h.01c.08-.013.15-.07.17-.15l.9-2.97 2.94.04c.08 0 .15-.053.18-.13.02-.076.02-.177-.04-.228l-1.96-2.31 1.48-2.69c.04-.076.04-.168-.01-.237-.05-.06-.13-.1-.21-.08l-2.87.64-1.45-2.71c-.04-.06-.11-.12-.2-.1-.08.01-.14.07-.17.15l-.92 2.95-2.93-.02c-.1 0-.15.05-.18.13-.04.08-.02.17.03.23l1.95 2.32zm7.134 3.445c-.03.08-.01.17.04.23l1.87 2.13-1.35 2.53c-.04.08-.03.17.02.23.05.08.14.1.21.09l2.66-.65 1.4 2.5c.05.07.11.11.18.11h.02c.08-.01.15-.07.18-.15l.8-2.77 2.74-.02c.08 0 .15-.05.19-.13.03-.08.02-.16-.04-.22l-1.86-2.13 1.36-2.53c.04-.08.04-.16-.02-.23-.04-.07-.12-.1-.2-.08l-2.66.65-1.39-2.51c-.04-.07-.12-.11-.2-.1-.07.01-.15.07-.17.15l-.81 2.78-2.73.02c-.08 0-.15.05-.18.13zm-4.16 9.04l3.03-3.29c.06-.06.07-.15.05-.23-.03-.07-.1-.13-.18-.13l-4.33-.15-1.18-4.41c-.02-.08-.08-.15-.16-.16-.08-.01-.15.03-.2.11l-2.29 3.9-4.2-1.12c-.07-.02-.16 0-.21.07-.04.07-.05.15-.01.24l2.05 4.05-3.02 3.3c-.06.06-.08.15-.05.23.04.09.1.14.19.14l4.34.15 1.18 4.43c.03.09.09.137.17.16h.03c.07 0 .14-.04.17-.1l2.3-3.91 4.2 1.13c.07.02.16-.01.21-.08.05-.07.056-.156.02-.23l-2.05-4.05zm13.33-2.73c-.02-.08-.09-.13-.16-.14l-1.77-.21c-.09 0-.18.05-.21.13l-.55 1.39c-.02.07-.01.15.03.22 2.33 3.27 2.24 6.8 2.08 8.21-2.47-5.46-8.48-8.05-8.54-8.08-.07-.03-.16-.02-.22.04l-1.6 1.57c-.06.07-.08.16-.04.26l.76 1.67c.03.07.1.12.17.13 6.12.47 9.37 5.19 9.4 5.24.04.06.11.09.17.09l.09-.02c.06-.01.1-.05.12-.11 2.17-4.65.39-10.13.31-10.36zm0 0" fill="#206FAC"/><path d="M10.787 88.756l-1.49 2.674c-.04.074-.03.168.01.236.046.076.13.104.206.084l2.87-.637 1.446 2.71c.03.07.1.113.18.113h.01c.08-.013.15-.07.17-.15l.9-2.97 2.94.04c.08 0 .15-.053.18-.13.02-.076.02-.177-.04-.228l-1.96-2.31 1.48-2.69c.04-.076.04-.168-.01-.237-.05-.06-.13-.1-.21-.08l-2.87.64-1.45-2.71c-.04-.06-.11-.12-.2-.1-.08.01-.14.07-.17.15l-.92 2.95-2.93-.02c-.1 0-.15.05-.18.13-.04.08-.02.17.03.23l1.95 2.32zM17.92 92.2c-.03.075-.018.17.04.23l1.867 2.128-1.354 2.528c-.04.075-.037.17.014.23.05.077.134.102.207.088l2.66-.653 1.398 2.5c.046.07.11.11.18.11h.02c.078-.02.147-.07.174-.15l.796-2.77 2.74-.02c.08 0 .152-.05.187-.13.02-.08.01-.16-.05-.22l-1.86-2.13 1.35-2.52c.03-.08.03-.16-.02-.23s-.13-.1-.21-.08l-2.67.65L22 89.24c-.04-.07-.12-.11-.2-.1-.078.01-.15.07-.17.15l-.81 2.78-2.74.024c-.08 0-.15.044-.187.128zm-4.163 9.034l3.026-3.295c.058-.06.07-.16.044-.24-.03-.08-.106-.13-.185-.13l-4.33-.16-1.18-4.41c-.02-.09-.087-.15-.166-.16-.083-.01-.155.02-.204.1l-2.292 3.9-4.2-1.12c-.077-.03-.16 0-.21.07-.047.06-.054.15-.017.23l2.047 4.05-3.027 3.3c-.06.06-.078.15-.047.22.033.08.1.13.19.13l4.335.14 1.18 4.43c.03.08.09.13.17.15h.03c.07 0 .14-.04.17-.1l2.3-3.91 4.2 1.13c.08.02.17-.01.21-.08.05-.07.06-.15.02-.23l-2.04-4.05zm13.327-2.728c-.027-.078-.09-.137-.165-.14l-1.78-.216c-.09-.002-.18.05-.21.13l-.55 1.382c-.03.07-.02.152.02.217 2.33 3.26 2.24 6.8 2.08 8.21-2.47-5.47-8.49-8.06-8.54-8.09-.08-.03-.16-.02-.22.04l-1.61 1.57c-.07.07-.09.16-.05.25l.75 1.66c.03.07.1.12.16.13 6.11.47 9.36 5.19 9.39 5.24.04.06.11.09.17.09l.09-.02c.05-.02.1-.05.12-.12 2.17-4.65.39-10.13.31-10.36zm0 0" fill="#fff"/><path d="M10.787 48.756l-1.49 2.674c-.04.074-.03.168.01.236.046.076.13.104.206.084l2.87-.637 1.446 2.71c.03.07.1.113.18.113h.01c.08-.013.15-.07.17-.15l.9-2.97 2.94.04c.08 0 .15-.053.18-.13.02-.076.02-.177-.04-.228l-1.96-2.31 1.48-2.69c.04-.076.04-.168-.01-.237-.05-.06-.13-.1-.21-.08l-2.87.64-1.45-2.71c-.04-.06-.11-.12-.2-.1-.08.01-.14.07-.17.15l-.92 2.95-2.93-.02c-.1 0-.15.05-.18.13-.04.08-.02.17.03.23l1.95 2.32zM17.92 52.2c-.03.075-.018.17.04.23l1.867 2.128-1.354 2.528c-.04.075-.037.17.014.23.05.077.134.102.207.088l2.66-.653 1.398 2.5c.046.07.11.11.18.11h.02c.078-.02.147-.07.174-.15l.796-2.77 2.74-.02c.08 0 .152-.05.187-.13.02-.08.01-.16-.05-.22l-1.86-2.13 1.35-2.52c.03-.08.03-.16-.02-.23s-.13-.1-.21-.08l-2.67.65L22 49.24c-.04-.07-.12-.11-.2-.1-.078.01-.15.07-.17.15l-.81 2.78-2.74.024c-.08 0-.15.044-.187.128zm-4.163 9.034l3.026-3.295c.058-.06.07-.16.044-.24-.03-.08-.106-.13-.185-.13l-4.33-.16-1.18-4.41c-.02-.09-.087-.15-.166-.16-.083-.01-.155.02-.204.1l-2.292 3.9-4.2-1.12c-.077-.03-.16 0-.21.07-.047.06-.054.15-.017.23l2.047 4.05-3.027 3.3c-.06.06-.078.15-.047.22.033.08.1.13.19.13l4.335.14 1.18 4.43c.03.09.09.13.17.16h.03c.07 0 .14-.04.17-.1l2.3-3.91 4.2 1.12c.08.02.17-.01.21-.08.05-.07.06-.15.02-.23l-2.04-4.05zm13.327-2.728c-.027-.078-.09-.137-.165-.14l-1.78-.216c-.09-.002-.18.05-.21.13l-.55 1.382c-.03.07-.02.152.02.217 2.33 3.26 2.24 6.8 2.08 8.21-2.47-5.47-8.48-8.06-8.54-8.09-.08-.03-.17-.02-.22.04l-1.61 1.57c-.07.07-.09.16-.05.25l.75 1.66c.03.07.1.12.16.13 6.12.46 9.37 5.19 9.39 5.24.04.06.11.09.17.09l.09-.02c.05-.02.1-.05.12-.11 2.17-4.65.39-10.13.31-10.36zm0 0" fill="#67747C"/><path d="M10.787 8.756l-1.49 2.674c-.04.074-.03.168.01.236.046.076.13.104.206.084l2.87-.637 1.446 2.71c.03.07.1.113.18.113h.01c.08-.013.15-.07.17-.15l.9-2.97 2.94.04c.08 0 .15-.053.18-.13.02-.076.02-.177-.04-.228l-1.96-2.31 1.48-2.69c.04-.076.04-.168-.01-.237-.05-.06-.13-.1-.21-.08l-2.87.64-1.45-2.71c-.04-.06-.11-.12-.2-.1-.08.01-.14.07-.17.15l-.91 2.95-2.93-.02c-.1 0-.15.05-.18.13-.04.08-.02.17.03.23l1.95 2.32zM17.92 12.2c-.03.075-.018.17.04.23l1.867 2.128-1.354 2.528c-.04.075-.037.17.014.23.05.077.134.102.207.088l2.66-.653 1.398 2.5c.046.07.11.11.18.11h.02c.078-.02.147-.07.174-.15l.796-2.77 2.74-.02c.08 0 .152-.05.187-.13.02-.08.01-.16-.05-.22l-1.86-2.13 1.35-2.52c.03-.08.03-.16-.02-.23s-.13-.1-.21-.08l-2.67.65L22 9.24c-.04-.07-.12-.11-.2-.1-.072.01-.145.07-.166.15l-.81 2.78-2.738.02c-.08 0-.15.044-.187.13zm-4.163 9.034l3.026-3.295c.058-.06.07-.16.044-.24-.03-.08-.106-.13-.185-.13l-4.33-.16-1.18-4.41c-.02-.09-.087-.15-.166-.16-.083-.01-.155.02-.204.1l-2.292 3.9-4.2-1.12c-.077-.03-.16 0-.21.07-.047.06-.054.15-.017.23l2.047 4.05-3.027 3.3c-.06.06-.078.15-.047.22.033.08.1.13.19.13l4.335.14 1.18 4.43c.03.09.09.13.17.16h.03c.07 0 .14-.04.17-.1l2.3-3.91 4.2 1.12c.08.02.17-.01.21-.08.05-.07.06-.15.02-.23l-2.04-4.05zm13.327-2.728c-.027-.078-.09-.137-.165-.14l-1.78-.216c-.09-.002-.18.05-.21.13l-.55 1.382c-.03.07-.02.152.02.217 2.33 3.26 2.24 6.8 2.08 8.21-2.47-5.47-8.48-8.06-8.54-8.09-.08-.03-.17-.02-.22.04l-1.61 1.57c-.07.07-.09.16-.05.25l.75 1.66c.03.07.1.12.16.13 6.12.46 9.37 5.19 9.39 5.24.04.06.11.09.17.09l.09-.02c.05-.02.1-.05.12-.11 2.17-4.65.39-10.13.31-10.36zm0 0" fill="#3B444F"/></g></svg>