<svg width="32" height="232" viewBox="0 0 32 232" xmlns="http://www.w3.org/2000/svg"><g fill="none"><path d="M24.19 146.57l-6.51-6.464 1.853-1.853 6.463 6.413v-3.206H28.5v7.615h-7.715v-2.506h3.406zM6.007 131.69H3.5v-7.615h7.717v2.505H7.86l6.462 6.463-1.853 1.853L6 128.534v3.156zm0 0" fill="#206FAC"/><path d="M24.19 106.57l-6.51-6.464 1.853-1.853 6.463 6.413v-3.206H28.5v7.615h-7.715v-2.506h3.406zM6.007 91.69H3.5v-7.615h7.717v2.505H7.86l6.462 6.463-1.853 1.853L6 88.534v3.156zm0 0" fill="#fff"/><path d="M24.19 66.57l-6.51-6.464 1.853-1.853 6.463 6.413V61.46H28.5v7.615h-7.715V66.57h3.406zM6.007 51.69H3.5v-7.615h7.717v2.505H7.86l6.462 6.463-1.853 1.853L6 48.534v3.156zm0 0" fill="#67737B"/><path d="M24.19 26.57l-6.51-6.464 1.853-1.853 6.463 6.413V21.46H28.5v7.615h-7.715V26.57h3.406zM6.007 11.69H3.5V4.075h7.717V6.58H7.86l6.462 6.463-1.853 1.853L6 8.534v3.156zm0 0" fill="#3A434E"/></g></svg>