<svg width="32" height="232" viewBox="0 0 32 232" xmlns="http://www.w3.org/2000/svg"><g fill="none"><path d="M29.156 123H2.846C1.276 123 0 124.293 0 125.888v20.222c0 1.597 1.275 2.89 2.845 2.89h26.31c1.57 0 2.845-1.293 2.845-2.89v-20.222c0-1.595-1.274-2.888-2.844-2.888zm-26.31 2.888h26.31v20.164H2.846v-20.164zm16.112 12.597l4.325-4.39v2.873h2.096v-6.563h-6.41v2.13h2.68l-4.28 4.346 1.58 1.61zm-5.93 1.656h-2.683l4.278-4.34-1.58-1.6-4.325 4.4v-2.87H6.622v6.56h6.406v-2.13zm0 0" fill="#206FAC"/><path d="M29.156 83H2.846C1.276 83 0 84.293 0 85.888v20.222c0 1.597 1.275 2.89 2.845 2.89h26.31c1.57 0 2.845-1.293 2.845-2.89V85.888C32 84.293 30.726 83 29.156 83zm-26.31 2.888h26.31v20.164H2.846V85.888zm16.112 12.597l4.325-4.39v2.873h2.096v-6.563h-6.41v2.13h2.68l-4.28 4.346 1.58 1.61zm-5.93 1.656h-2.683l4.278-4.34-1.58-1.6-4.325 4.4v-2.88H6.622v6.57h6.406v-2.13zm0 0" fill="#fff"/><path d="M29.156 43H2.846C1.276 43 0 44.293 0 45.888V66.11C0 67.707 1.276 69 2.846 69h26.31C30.726 69 32 67.707 32 66.11V45.888C32 44.293 30.726 43 29.156 43zm-26.31 2.888h26.31v20.164H2.846V45.888zm16.112 12.597l4.325-4.39v2.873h2.096v-6.563h-6.41v2.13h2.68l-4.28 4.346 1.58 1.61zm-5.93 1.656h-2.683l4.278-4.34-1.58-1.6-4.325 4.4v-2.88H6.622v6.57h6.406v-2.13zm0 0" fill="#67737B"/><path d="M29.156 3H2.846C1.276 3 0 4.293 0 5.888V26.11C0 27.707 1.276 29 2.846 29h26.31C30.726 29 32 27.707 32 26.11V5.888C32 4.293 30.726 3 29.156 3zM2.846 5.888h26.31v20.164H2.846V5.888zm16.112 12.597l4.325-4.39v2.873h2.096v-6.563h-6.41v2.13h2.68l-4.28 4.346 1.58 1.61zm-5.93 1.656h-2.683l4.278-4.34-1.58-1.6-4.325 4.4v-2.88H6.622v6.57h6.406v-2.13zm0 0" fill="#3A434E"/></g></svg>