<svg width="32" height="232" viewBox="0 0 32 232" xmlns="http://www.w3.org/2000/svg"><g fill="none"><path d="M12.66 8.36c.045-.453.23-.93.563-1.428.33-.497.87-.943 1.612-1.337C15.58 5.198 16.653 5 18.053 5H22v3.965h-2.89c-.286 0-.55.1-.79.295-.24.195-.363.38-.363.553v2.468H22c-.043.49-.09.96-.14 1.41l-.163 1.2c-.064.41-.13.78-.192 1.13h-3.578V27H12.6V16.01H10v-3.73h2.6V9.245c0-.136.018-.432.06-.886zm0 0" fill="#3A434E"/><path d="M13.16 48.36c.045-.453.23-.93.563-1.428.33-.497.87-.943 1.612-1.337.745-.397 1.818-.595 3.218-.595H22.5v3.965h-2.89c-.286 0-.55.1-.79.295-.24.195-.363.38-.363.553v2.468H22.5c-.043.49-.09.96-.14 1.41l-.163 1.2c-.064.41-.13.78-.192 1.13h-3.578V67H13.1V56.01h-2.6v-3.73h2.6v-3.035c0-.136.018-.432.06-.886zm0 0" fill="#67737B"/><path d="M13.66 88.36c.045-.453.23-.93.563-1.428.33-.497.87-.943 1.612-1.337.745-.397 1.818-.595 3.218-.595H23v3.965h-2.89c-.286 0-.55.1-.79.295-.24.195-.363.38-.363.553v2.468H23c-.043.49-.09.96-.14 1.41l-.163 1.2c-.064.41-.13.78-.192 1.13h-3.578V107H13.6V96.01H11v-3.73h2.6v-3.035c0-.136.018-.432.06-.886zm0 0" fill="#fff"/><path d="M13.66 128.36c.045-.453.23-.93.563-1.428.33-.497.87-.943 1.612-1.337.745-.397 1.818-.595 3.218-.595H23v3.965h-2.89c-.286 0-.55.1-.79.295-.24.195-.363.38-.363.553v2.468H23c-.043.49-.09.96-.14 1.41l-.163 1.2c-.064.41-.13.78-.192 1.13h-3.578V147H13.6v-10.99H11v-3.73h2.6v-3.035c0-.136.018-.432.06-.886zm0 0" fill="#206FAC"/></g></svg>