<svg width="32" height="232" viewBox="0 0 32 232" xmlns="http://www.w3.org/2000/svg"><g fill="none"><path d="M20.982 127.616c1.52 0 2.754-1.26 2.754-2.808 0-1.548-1.235-2.81-2.754-2.81-1.524 0-2.76 1.262-2.76 2.81 0 1.55 1.235 2.808 2.76 2.808m3.667.644h-7.09c-1.6 0-3.33 1.57-3.33 3.418l-.02 7.524c0 .703.58 1.276 1.27 1.276.69 0 1.25-.564 1.27-1.263v-6.82h.7v15.995c0 .887.71 1.61 1.58 1.61.87 0 1.57-.723 1.57-1.61v-8.302h.94v8.3c0 .89.7 1.61 1.58 1.61.87 0 1.58-.72 1.58-1.61v-15.992h.71v6.893c.01.7.58 1.26 1.27 1.26.69 0 1.26-.58 1.27-1.3l-.03-7.56c0-1.87-1.74-3.44-3.33-3.44m-16.4 7.76c.95 0 1.72-.79 1.72-1.76s-.77-1.76-1.72-1.76-1.72.79-1.72 1.75c0 .97.77 1.75 1.72 1.75m2.3.4H6.08c-.992 0-2.077.98-2.075 2.13l-.008 4.7c.006.44.362.8.793.8.433 0 .785-.35.798-.79V139h.44l.002.008c.002.083.002 9.894.002 9.993 0 .56.44 1.01.988 1.01.543 0 .985-.45.985-1v-5.18h.59V149c0 .554.443 1.006.987 1.006.545 0 .99-.45.99-1.005v-10h.445v4.31c.013.44.366.8.798.8.436 0 .79-.36.795-.81l-.017-4.72c0-1.16-1.084-2.14-2.078-2.14" fill="#206FAC"/><path d="M20.982 87.616c1.52 0 2.754-1.26 2.754-2.808 0-1.548-1.235-2.81-2.754-2.81-1.524 0-2.76 1.262-2.76 2.81 0 1.55 1.235 2.808 2.76 2.808m3.667.644h-7.09c-1.6 0-3.33 1.57-3.33 3.418l-.02 7.524c0 .703.58 1.276 1.27 1.276.69 0 1.25-.564 1.27-1.263v-6.82h.7v15.995c0 .887.71 1.61 1.58 1.61.87 0 1.57-.723 1.57-1.61v-8.302h.94v8.3c0 .89.7 1.61 1.58 1.61.87 0 1.58-.72 1.58-1.61v-15.99h.71v6.892c.01.7.58 1.266 1.27 1.266.69 0 1.26-.575 1.27-1.3l-.03-7.56c0-1.863-1.74-3.434-3.33-3.434M8.2 96.008c.95 0 1.724-.786 1.724-1.754 0-.965-.774-1.756-1.725-1.756-.95 0-1.72.792-1.72 1.756 0 .968.77 1.754 1.72 1.754m2.3.404H6.08c-.992 0-2.077.98-2.075 2.137l-.008 4.7c.006.44.362.8.793.8.433 0 .785-.36.798-.8v-4.26h.44l.002.01c.002.08.002 9.89.002 9.99 0 .55.44 1 .988 1 .543 0 .985-.45.985-1.01v-5.18h.59v5.18c0 .55.443 1.01.987 1.01.545 0 .99-.45.99-1V99l.445-.005v4.31c.013.437.366.793.798.793.436 0 .79-.36.795-.814l-.017-4.726c0-1.164-1.084-2.144-2.078-2.144" fill="#fff"/><path d="M20.982 47.616c1.52 0 2.754-1.26 2.754-2.808 0-1.548-1.235-2.81-2.754-2.81-1.524 0-2.76 1.262-2.76 2.81 0 1.55 1.235 2.808 2.76 2.808m3.667.644h-7.09c-1.6 0-3.33 1.57-3.33 3.418l-.02 7.524c0 .703.58 1.276 1.27 1.276.69 0 1.25-.564 1.27-1.263v-6.82h.7V68.39c0 .887.71 1.61 1.58 1.61.87 0 1.57-.723 1.57-1.61v-8.302h.94v8.3c0 .89.7 1.61 1.58 1.61.87 0 1.58-.72 1.58-1.61v-15.99h.71v6.892c.01.7.58 1.266 1.27 1.266.69 0 1.26-.575 1.27-1.3l-.03-7.56c0-1.863-1.74-3.434-3.33-3.434M8.2 56.008c.95 0 1.724-.786 1.724-1.754 0-.965-.774-1.756-1.725-1.756-.95 0-1.72.792-1.72 1.756 0 .968.77 1.754 1.72 1.754m2.3.404H6.08c-.992 0-2.077.98-2.075 2.137l-.008 4.7c.006.44.362.8.793.8.433 0 .785-.36.798-.8v-4.26h.44l.002.01c.002.08.002 9.89.002 9.99 0 .55.44 1 .988 1 .543 0 .985-.45.985-1.01V63.8h.59v5.187c0 .557.443 1.01.987 1.01.545 0 .99-.45.99-1V59l.445-.005v4.31c.013.437.366.793.798.793.436 0 .79-.36.795-.814l-.017-4.726c0-1.164-1.084-2.144-2.078-2.144" fill="#67737B"/><path d="M20.982 7.616c1.52 0 2.754-1.26 2.754-2.808 0-1.548-1.235-2.81-2.754-2.81-1.524 0-2.76 1.262-2.76 2.81 0 1.55 1.235 2.808 2.76 2.808m3.667.644h-7.09c-1.6 0-3.33 1.57-3.33 3.418l-.02 7.524c0 .703.58 1.276 1.27 1.276.69 0 1.25-.564 1.27-1.263v-6.82h.7V28.39c0 .887.71 1.61 1.58 1.61.87 0 1.57-.723 1.57-1.61v-8.302h.94v8.3c0 .89.7 1.61 1.58 1.61.87 0 1.58-.72 1.58-1.61v-15.99h.71v6.892c.01.7.58 1.266 1.27 1.266.69 0 1.26-.575 1.27-1.3l-.03-7.56c0-1.863-1.74-3.434-3.33-3.434M8.2 16.008c.95 0 1.724-.786 1.724-1.754 0-.965-.774-1.756-1.725-1.756-.95 0-1.72.792-1.72 1.756 0 .968.77 1.754 1.72 1.754m2.3.404H6.08c-.992 0-2.077.98-2.075 2.137l-.008 4.7c.006.44.362.8.793.8.433 0 .785-.36.798-.8v-4.26h.44l.002.01c.002.08.002 9.89.002 9.99 0 .55.44 1 .988 1 .543 0 .985-.45.985-1.01V23.8h.59v5.187c0 .557.443 1.01.987 1.01.545 0 .99-.45.99-1V19l.445-.005v4.31c.013.437.366.793.798.793.436 0 .79-.36.795-.814l-.017-4.726c0-1.164-1.084-2.144-2.078-2.144" fill="#3A434E"/></g></svg>