<svg width="32" height="232" viewBox="0 0 32 232" xmlns="http://www.w3.org/2000/svg"><g fill="none"><path d="M22.367 137.19c1.626-1.612 2.635-3.837 2.633-6.292.002-4.913-4.028-8.898-9-8.898-2.484 0-4.735.994-6.365 2.605C8.007 126.217 7 128.44 7 130.898c0 4.462 3.33 8.153 7.666 8.788v3.527h-4.74v2.64h4.74V150h2.67v-4.147h4.74v-2.64h-4.74v-3.527c1.95-.288 3.698-1.18 5.032-2.495zm-11.155-6.29c0-1.263.498-2.453 1.402-3.347.905-.894 2.106-1.386 3.385-1.386 1.28 0 2.48.494 3.38 1.387.9.895 1.4 2.084 1.4 3.348 0 1.264-.5 2.452-1.4 3.346-.91.893-2.11 1.385-3.39 1.385-1.28 0-2.48-.493-3.39-1.386-.91-.894-1.4-2.082-1.4-3.346zm0 0" fill="#206FAC"/><path d="M22.367 97.19c1.626-1.61 2.635-3.836 2.633-6.29.002-4.915-4.028-8.9-9-8.9-2.484 0-4.735.994-6.365 2.605C8.007 86.217 7 88.44 7 90.898c0 4.462 3.33 8.153 7.666 8.788v3.527h-4.74v2.64h4.74V110h2.67v-4.147h4.74v-2.64h-4.74v-3.527c1.95-.288 3.698-1.18 5.032-2.495zM11.212 90.9c0-1.263.498-2.453 1.402-3.347.905-.894 2.106-1.386 3.385-1.386 1.28 0 2.48.494 3.38 1.387.9.895 1.4 2.084 1.4 3.348 0 1.264-.5 2.452-1.4 3.346-.91.893-2.11 1.385-3.39 1.385-1.28 0-2.48-.493-3.39-1.386-.91-.894-1.4-2.082-1.4-3.346zm0 0" fill="#fff"/><path d="M22.367 57.19c1.626-1.61 2.635-3.836 2.633-6.29.002-4.915-4.028-8.9-9-8.9-2.484 0-4.735.994-6.365 2.605C8.007 46.217 7 48.44 7 50.898c0 4.462 3.33 8.153 7.666 8.788v3.527h-4.74v2.64h4.74V70h2.67v-4.147h4.74v-2.64h-4.74v-3.527c1.95-.288 3.698-1.18 5.032-2.495zM11.212 50.9c0-1.263.498-2.453 1.402-3.347.905-.894 2.106-1.386 3.385-1.386 1.28 0 2.48.494 3.38 1.387.9.895 1.4 2.084 1.4 3.348 0 1.264-.5 2.452-1.4 3.346-.91.893-2.11 1.385-3.39 1.385-1.28 0-2.48-.493-3.39-1.386-.91-.894-1.4-2.082-1.4-3.346zm0 0" fill="#67737B"/><path d="M22.367 17.19c1.626-1.61 2.635-3.836 2.633-6.29.002-4.915-4.028-8.9-9-8.9-2.484 0-4.735.994-6.365 2.605C8.007 6.217 7 8.44 7 10.898c0 4.462 3.33 8.153 7.666 8.788v3.527h-4.74v2.64h4.74V30h2.67v-4.147h4.74v-2.64h-4.74v-3.527c1.95-.288 3.698-1.18 5.032-2.495zM11.212 10.9c0-1.263.498-2.453 1.402-3.347C13.52 6.66 14.72 6.167 16 6.167c1.28 0 2.48.494 3.385 1.387.902.895 1.4 2.084 1.4 3.348 0 1.264-.498 2.452-1.4 3.346-.905.893-2.106 1.385-3.387 1.385-1.28 0-2.48-.493-3.386-1.386-.904-.894-1.402-2.082-1.402-3.346zm0 0" fill="#3A434E"/></g></svg>