<svg width="32" height="232" viewBox="0 0 32 232" xmlns="http://www.w3.org/2000/svg"><g fill="none"><path d="M10.073 126.862c0-.478.455-.825 1.076-.825h2.23v-.96c0-.597.48-1.077 1.07-1.077h1.65c.59 0 1.07.48 1.07 1.076v.96h2.23c.62 0 1.07.343 1.07.813v1.92c0 .6-.46 1.08-1.02 1.08-.52 0-1.27-.42-1.27-1.08v-.5l-5.92.04.06.45c0 .66-.74 1.08-1.25 1.08-.57 0-1.02-.48-1.02-1.08v-1.92zm-4.478 5.608c.138-.25.427-.395.802-.395l7.16-1.237c.676-.008 1.092.346 1.173.806h.012v2c.006.007.096.073.245.073h.59c.148 0 .25-.068.26-.098l-.005-.97.016-1.02c.077-.46.542-.81 1.102-.81l7.267 1.24h.022c.33 0 .64.13.77.37.1.17.1.39 0 .58l-.14.25-.38.64-.44.8-4.89 8.58-.36-.29c-.68-.53-1.6-1.24-2.95-1.3l-.14-.01h-.02c-1.28 0-2.28.32-3.11.96-.19.13-.34.26-.47.38l-.33.3-.29-.34c-.71-.86-1.26-1.9-1.69-2.74-.16-.31-.31-.57-.43-.78-.47-.78-.83-1.39-1.17-1.98-.6-1.02-1.12-1.9-1.95-3.26-.32-.52-.66-1.09-.66-1.09-.14-.23-.16-.48-.03-.7zm21.348 14.733c-.19 0-.35-.05-.456-.08-.444-.143-.875-.19-1.093-.205l-.175-.004c-.45 0-.84.11-1.6.708l-.1.076c-.71.553-1.67 1.3-2.99 1.3-.19 0-.4 0-.61-.046-1.1-.17-1.92-.8-2.58-1.312-.59-.464-.99-.76-1.39-.777l-.19-.006c-.5 0-.89.118-1.22.367l-.4.315c-.46.4-1.12.96-2.06 1.19-.38.08-.69.12-.98.12-1.01 0-1.78-.48-2.76-1.31-.55-.47-2.05-.74-2.83-.49-.12.03-.28.07-.48.07-.86 0-1.56-.71-1.56-1.58 0-.67.41-1.26 1.05-1.48l.08-.04c1.86-.56 3.76-.22 5.12.92.64.54 1.21.79 1.63.69.21-.05.49-.29.79-.54l.15-.12.39-.3c.86-.67 1.9-1 3.15-1h.22c1.42.07 2.38.81 3.14 1.41.44.34.86.67 1.23.73h.01c.32 0 .67-.27 1.14-.65 1.02-.81 2.21-1.56 3.99-1.43.348.02 1.02.11 1.79.33.668.22 1.1.82 1.1 1.5 0 .87-.694 1.58-1.556 1.58zm0 0" fill="#206FAC"/><path d="M10.073 86.862c0-.478.455-.825 1.076-.825h2.23v-.96c0-.597.48-1.077 1.07-1.077h1.65c.59 0 1.07.48 1.07 1.076v.96h2.23c.62 0 1.07.343 1.07.813v1.92c0 .6-.46 1.08-1.02 1.08-.52 0-1.27-.42-1.27-1.08v-.5l-5.92.04.06.45c0 .66-.74 1.08-1.25 1.08-.57 0-1.02-.48-1.02-1.08v-1.91zM5.595 92.47c.138-.25.427-.395.802-.395l7.16-1.237c.676-.008 1.092.346 1.173.806h.012v2c.006.007.096.073.245.073h.59c.148 0 .25-.068.26-.098l-.005-.97.016-1.02c.077-.46.542-.81 1.102-.81l7.267 1.24h.022c.33 0 .64.13.77.37.1.17.1.39 0 .58l-.14.25-.38.64-.44.8-4.89 8.58-.36-.29c-.68-.53-1.6-1.24-2.95-1.3l-.14-.01h-.02c-1.28 0-2.28.32-3.11.96-.19.13-.34.26-.47.38l-.33.3-.29-.34c-.71-.86-1.26-1.9-1.69-2.74-.16-.31-.31-.57-.43-.78-.47-.78-.83-1.39-1.17-1.98-.6-1.02-1.12-1.9-1.95-3.26-.32-.52-.66-1.09-.66-1.09-.14-.23-.16-.48-.03-.7zm21.348 14.733c-.19 0-.35-.05-.456-.08-.444-.143-.875-.19-1.093-.205l-.175-.004c-.45 0-.84.11-1.6.708l-.1.076c-.71.553-1.67 1.3-2.99 1.3-.19 0-.4 0-.61-.046-1.1-.17-1.92-.8-2.58-1.312-.59-.464-.99-.76-1.39-.777l-.19-.006c-.5 0-.89.118-1.22.367l-.4.315c-.46.4-1.12.96-2.06 1.19-.38.08-.69.12-.98.12-1.01 0-1.78-.48-2.76-1.31-.55-.47-2.05-.74-2.83-.49-.12.03-.28.07-.48.07-.86 0-1.56-.71-1.56-1.58 0-.67.41-1.26 1.05-1.48l.08-.04c1.86-.56 3.76-.22 5.12.92.64.54 1.21.79 1.63.69.21-.05.49-.29.79-.54l.15-.12.39-.3c.86-.67 1.9-1 3.15-1h.22c1.42.07 2.38.81 3.14 1.41.44.34.86.67 1.23.73h.01c.32 0 .67-.27 1.14-.65 1.02-.81 2.21-1.56 3.99-1.43.348.02 1.02.11 1.79.33.668.22 1.1.82 1.1 1.5 0 .87-.694 1.58-1.556 1.58zm0 0" fill="#fff"/><path d="M10.073 46.862c0-.478.455-.825 1.076-.825h2.23v-.96c0-.597.48-1.077 1.07-1.077h1.65c.59 0 1.07.48 1.07 1.076v.96h2.23c.62 0 1.07.343 1.07.813v1.92c0 .6-.46 1.08-1.02 1.08-.52 0-1.27-.42-1.27-1.08v-.5l-5.92.04.06.45c0 .66-.74 1.08-1.25 1.08-.57 0-1.02-.48-1.02-1.08v-1.91zM5.595 52.47c.138-.25.427-.395.802-.395l7.16-1.237c.676-.008 1.092.346 1.173.806h.012v2c.006.007.096.073.245.073h.59c.148 0 .25-.068.26-.098l-.005-.97.016-1.02c.077-.46.542-.81 1.102-.81l7.267 1.24h.022c.33 0 .64.13.77.37.1.17.1.39 0 .58l-.14.25-.38.64-.44.8-4.88 8.58-.36-.29c-.68-.53-1.6-1.24-2.96-1.3l-.14-.01h-.02c-1.28 0-2.28.32-3.11.96-.19.13-.34.26-.47.38l-.33.3-.29-.34c-.71-.86-1.26-1.91-1.69-2.74-.16-.31-.31-.57-.43-.78-.47-.78-.83-1.4-1.17-1.98-.6-1.02-1.12-1.9-1.95-3.26-.32-.52-.66-1.09-.66-1.09-.14-.23-.16-.48-.03-.7zm21.348 14.733c-.19 0-.35-.05-.456-.08-.444-.143-.875-.19-1.093-.205l-.175-.004c-.45 0-.84.11-1.6.708l-.1.076c-.71.553-1.67 1.3-2.99 1.3-.19 0-.4 0-.61-.046-1.1-.17-1.92-.8-2.58-1.312-.59-.464-.99-.76-1.39-.777l-.19-.006c-.5 0-.89.118-1.22.367l-.4.315c-.46.4-1.12.96-2.06 1.19-.38.08-.69.12-.98.12-1.01 0-1.78-.48-2.76-1.31-.55-.47-2.05-.74-2.83-.49-.12.03-.28.07-.48.07-.86 0-1.56-.71-1.56-1.58 0-.67.41-1.26 1.05-1.48l.08-.04c1.86-.56 3.76-.22 5.12.92.64.54 1.21.79 1.63.69.21-.05.49-.29.79-.54l.15-.12.39-.3c.86-.67 1.9-1 3.15-1h.22c1.42.07 2.38.81 3.14 1.41.44.34.86.67 1.23.73h.01c.32 0 .67-.27 1.14-.65 1.02-.81 2.21-1.56 3.99-1.43.348.02 1.02.11 1.79.33.668.22 1.1.82 1.1 1.5 0 .87-.694 1.58-1.556 1.58zm0 0" fill="#67737B"/><path d="M10.073 6.862c0-.478.455-.825 1.076-.825h2.23v-.96c0-.597.48-1.077 1.08-1.077h1.64c.59 0 1.07.48 1.07 1.076v.96h2.23c.62 0 1.07.343 1.07.813v1.92c0 .59-.45 1.08-1.01 1.08-.52 0-1.28-.42-1.28-1.08v-.49l-5.92.04.06.45c0 .66-.74 1.08-1.25 1.08-.57 0-1.02-.48-1.02-1.08V6.86zM5.595 12.47c.138-.25.427-.395.802-.395l7.16-1.237c.676-.008 1.092.346 1.173.806h.012v2c.006.007.096.073.245.073h.59c.148 0 .25-.068.26-.098l-.005-.97.016-1.02c.077-.46.542-.81 1.102-.81l7.267 1.24h.022c.33 0 .64.13.77.37.1.17.1.39 0 .58l-.14.25-.38.64-.44.8-4.88 8.58-.36-.29c-.68-.53-1.6-1.24-2.96-1.3l-.14-.01h-.02c-1.28 0-2.28.32-3.11.96-.19.13-.34.26-.47.38l-.33.3-.29-.34c-.71-.86-1.26-1.91-1.69-2.74-.16-.31-.31-.57-.43-.78-.47-.78-.83-1.4-1.17-1.98-.6-1.02-1.12-1.9-1.95-3.26-.32-.52-.66-1.09-.66-1.09-.14-.23-.16-.48-.03-.7zm21.348 14.733c-.19 0-.35-.05-.456-.08-.444-.143-.875-.19-1.093-.205l-.175-.004c-.45 0-.84.11-1.6.708l-.1.076c-.71.553-1.67 1.3-2.99 1.3-.19 0-.4 0-.61-.046-1.1-.17-1.92-.8-2.58-1.312-.59-.464-.99-.76-1.39-.777l-.19-.006c-.5 0-.89.118-1.22.367l-.4.315c-.46.4-1.12.96-2.06 1.19-.38.08-.69.12-.98.12-1.01 0-1.78-.48-2.76-1.31-.55-.47-2.05-.74-2.83-.49-.12.03-.28.07-.48.07-.86 0-1.56-.71-1.56-1.58 0-.67.41-1.26 1.05-1.48l.08-.04c1.86-.56 3.76-.22 5.12.92.64.54 1.21.79 1.63.69.21-.05.49-.29.79-.54l.15-.12.39-.3c.86-.67 1.9-1 3.15-1h.22c1.42.07 2.38.81 3.14 1.41.44.34.86.67 1.23.73h.01c.32 0 .67-.27 1.14-.65 1.02-.81 2.21-1.56 3.99-1.43.348.02 1.02.11 1.79.33.668.22 1.1.82 1.1 1.5 0 .87-.694 1.58-1.556 1.58zm0 0" fill="#3A434E"/></g></svg>