<svg width="32" height="232" viewBox="0 0 32 232" xmlns="http://www.w3.org/2000/svg"><g fill="none"><path d="M29.86 5.668h-3.384C25.62 3.522 23.52 2 21.07 2c-2.454 0-4.552 1.522-5.408 3.668H2.144C.96 5.668 0 6.625 0 7.804c0 1.182.96 2.14 2.144 2.14h13.518c.856 2.144 2.954 3.667 5.407 3.667s4.55-1.52 5.4-3.66h3.38c1.18 0 2.14-.95 2.14-2.14 0-1.18-.96-2.13-2.14-2.13zm-8.79 4.27c-1.183 0-2.146-.96-2.146-2.14 0-1.178.963-2.137 2.145-2.137 1.18 0 2.14.96 2.14 2.14 0 1.18-.97 2.14-2.15 2.14zm8.787 11.72H16.34c-.857-2.146-2.955-3.67-5.408-3.67s-4.552 1.524-5.407 3.67H2.142c-1.18 0-2.142.956-2.142 2.14 0 1.177.96 2.133 2.142 2.133h3.383c.856 2.15 2.955 3.67 5.407 3.67 2.453 0 4.55-1.52 5.407-3.67h13.51c1.18 0 2.14-.95 2.14-2.13s-.96-2.14-2.15-2.14zm-18.925 4.28c-1.182 0-2.144-.96-2.144-2.137s.962-2.13 2.144-2.13c1.182 0 2.145.96 2.145 2.14 0 1.18-.963 2.14-2.145 2.14z" fill="#3B444F"/><path d="M29.86 45.668h-3.384C25.62 43.522 23.52 42 21.07 42c-2.454 0-4.552 1.522-5.408 3.668H2.144C.96 45.668 0 46.625 0 47.804c0 1.182.96 2.14 2.144 2.14h13.518c.856 2.144 2.954 3.667 5.407 3.667s4.55-1.52 5.4-3.66h3.38c1.18 0 2.14-.95 2.14-2.14 0-1.18-.96-2.13-2.14-2.13zm-8.79 4.27c-1.183 0-2.146-.96-2.146-2.14 0-1.178.963-2.137 2.145-2.137 1.18 0 2.14.96 2.14 2.14 0 1.18-.97 2.14-2.15 2.14zm8.787 11.72H16.34c-.857-2.146-2.955-3.67-5.408-3.67s-4.552 1.524-5.407 3.67H2.142c-1.18 0-2.142.956-2.142 2.14 0 1.177.96 2.133 2.142 2.133h3.383c.856 2.15 2.955 3.67 5.407 3.67 2.453 0 4.55-1.52 5.407-3.67h13.51c1.18 0 2.14-.95 2.14-2.13s-.96-2.14-2.15-2.14zm-18.925 4.28c-1.182 0-2.144-.96-2.144-2.137s.962-2.13 2.144-2.13c1.182 0 2.145.96 2.145 2.14 0 1.18-.963 2.14-2.145 2.14z" fill="#67737B"/><path d="M29.86 85.668h-3.384C25.62 83.522 23.52 82 21.07 82c-2.454 0-4.552 1.522-5.408 3.668H2.144C.96 85.668 0 86.625 0 87.804c0 1.182.96 2.14 2.144 2.14h13.518c.856 2.144 2.954 3.667 5.407 3.667s4.55-1.52 5.4-3.66h3.38c1.18 0 2.14-.95 2.14-2.14 0-1.18-.96-2.13-2.14-2.13zm-8.79 4.27c-1.183 0-2.146-.96-2.146-2.14 0-1.178.963-2.137 2.145-2.137 1.18 0 2.14.96 2.14 2.14 0 1.18-.97 2.14-2.15 2.14zm8.787 11.72H16.34c-.857-2.146-2.955-3.67-5.408-3.67s-4.552 1.524-5.407 3.67H2.142c-1.18 0-2.142.956-2.142 2.14 0 1.177.96 2.133 2.142 2.133h3.383c.856 2.15 2.955 3.67 5.407 3.67 2.453 0 4.55-1.52 5.407-3.67h13.51c1.18 0 2.14-.95 2.14-2.13s-.96-2.14-2.15-2.14zm-18.925 4.28c-1.182 0-2.144-.96-2.144-2.137s.962-2.13 2.144-2.13c1.182 0 2.145.96 2.145 2.14 0 1.18-.963 2.14-2.145 2.14z" fill="#fff"/><path d="M29.86 125.668h-3.384C25.62 123.522 23.52 122 21.07 122c-2.454 0-4.552 1.522-5.408 3.668H2.144c-1.183 0-2.144.957-2.144 2.136 0 1.182.96 2.14 2.144 2.14h13.518c.856 2.144 2.954 3.667 5.407 3.667s4.55-1.52 5.4-3.66h3.38c1.18 0 2.14-.95 2.14-2.14 0-1.18-.96-2.13-2.14-2.13zm-8.79 4.27c-1.183 0-2.146-.96-2.146-2.14 0-1.178.963-2.137 2.145-2.137 1.18 0 2.14.96 2.14 2.14 0 1.18-.97 2.14-2.15 2.14zm8.787 11.72H16.34c-.857-2.146-2.955-3.67-5.408-3.67s-4.552 1.524-5.407 3.67H2.142c-1.18 0-2.142.956-2.142 2.14 0 1.177.96 2.133 2.142 2.133h3.383c.856 2.15 2.955 3.67 5.407 3.67 2.453 0 4.55-1.52 5.407-3.67h13.51c1.18 0 2.14-.95 2.14-2.13s-.96-2.14-2.15-2.14zm-18.925 4.28c-1.182 0-2.144-.96-2.144-2.137s.962-2.13 2.144-2.13c1.182 0 2.145.96 2.145 2.14 0 1.18-.963 2.14-2.145 2.14z" fill="#206FAC"/><path d="M29.86 165.668h-3.384C25.62 163.522 23.52 162 21.07 162c-2.454 0-4.552 1.522-5.408 3.668H2.144c-1.183 0-2.144.957-2.144 2.136 0 1.182.96 2.14 2.144 2.14h13.518c.856 2.144 2.954 3.667 5.407 3.667s4.55-1.52 5.4-3.66h3.38c1.18 0 2.14-.95 2.14-2.14 0-1.18-.96-2.13-2.14-2.13zm-8.79 4.27c-1.183 0-2.146-.96-2.146-2.14 0-1.178.963-2.137 2.145-2.137 1.18 0 2.14.96 2.14 2.14 0 1.18-.97 2.14-2.15 2.14zm8.787 11.72H16.34c-.857-2.146-2.955-3.67-5.408-3.67s-4.552 1.524-5.407 3.67H2.142c-1.18 0-2.142.956-2.142 2.14 0 1.177.96 2.133 2.142 2.133h3.383c.856 2.15 2.955 3.67 5.407 3.67 2.453 0 4.55-1.52 5.407-3.67h13.51c1.18 0 2.14-.95 2.14-2.13s-.96-2.14-2.15-2.14zm-18.925 4.28c-1.182 0-2.144-.96-2.144-2.137s.962-2.13 2.144-2.13c1.182 0 2.145.96 2.145 2.14 0 1.18-.963 2.14-2.145 2.14z" fill="#98A8B2"/></g></svg>