<svg width="32" height="232" viewBox="0 0 32 232" xmlns="http://www.w3.org/2000/svg"><g fill="none"><path d="M10.05 21.68C7.262 21.68 5 19.4 5 16.58c0-2.817 2.262-5.1 5.05-5.1 2.792 0 5.054 2.283 5.054 5.1 0 2.818-2.262 5.1-5.054 5.1zm11.9.002c-2.79 0-5.055-2.28-5.055-5.1s2.266-5.103 5.054-5.103c2.78 0 5.05 2.28 5.05 5.1s-2.27 5.1-5.05 5.1z" fill="#3A434E"/><path d="M10.05 61.68C7.262 61.68 5 59.4 5 56.58c0-2.817 2.262-5.1 5.05-5.1 2.792 0 5.054 2.283 5.054 5.1 0 2.818-2.262 5.1-5.054 5.1zm11.9.002c-2.79 0-5.055-2.28-5.055-5.1s2.266-5.103 5.054-5.103c2.78 0 5.05 2.28 5.05 5.1s-2.27 5.1-5.05 5.1z" fill="#67737B"/><path d="M10.05 101.68c-2.788 0-5.05-2.28-5.05-5.1 0-2.817 2.262-5.1 5.05-5.1 2.792 0 5.054 2.283 5.054 5.1 0 2.818-2.262 5.1-5.054 5.1zm11.9.002c-2.79 0-5.055-2.28-5.055-5.1s2.266-5.103 5.054-5.103c2.78 0 5.05 2.28 5.05 5.1s-2.27 5.1-5.05 5.1z" fill="#fff"/><path d="M10.05 142.202c-2.788 0-5.05-2.282-5.05-5.1 0-2.818 2.262-5.1 5.05-5.1 2.792 0 5.054 2.282 5.054 5.1 0 2.817-2.262 5.1-5.054 5.1zm11.9 0c-2.79 0-5.055-2.28-5.055-5.1S19.16 132 21.95 132c2.787 0 5.05 2.282 5.05 5.102 0 2.82-2.263 5.1-5.05 5.1z" fill="#206FAC"/><path d="M21.95 182.202c-2.79 0-5.055-2.28-5.055-5.1S19.16 172 21.95 172c2.786 0 5.05 2.28 5.05 5.1s-2.264 5.1-5.05 5.1z" fill="#FF0084"/><path d="M5 177.102c0-2.818 2.262-5.1 5.05-5.1 2.792 0 5.054 2.282 5.054 5.1 0 2.817-2.262 5.1-5.054 5.1-2.788 0-5.05-2.282-5.05-5.1z" fill="#0063DC"/></g></svg>