<svg width="32" height="232" viewBox="0 0 32 232" xmlns="http://www.w3.org/2000/svg"><g fill="none"><path d="M23.202 149h-.004c-1.82-.006-2.59-1.35-3.154-2.806l-2.153-7.16-3.21 3.214c-.22.223-.47.408-.75.553l.17 3.89c.01 1.06-.82 1.9-1.85 1.92-.99-.01-1.75-.68-1.96-1.69l-.86-3.83-3.76-.92c-.96-.07-1.71-.86-1.73-1.84.02-1.06.85-1.89 1.87-1.89l3.91.17c.15-.28.33-.54.56-.77l3.21-3.21-7.08-2.12c-1.52-.58-2.86-1.35-2.87-3.18.01-1.68 1.39-3.06 3.07-3.07l13.91 1.35 2.69-2.68c1.2-1.19 3.26-1.18 4.44 0 1.22 1.23 1.22 3.22 0 4.43l-2.7 2.64 1.35 13.85c-.005 1.79-1.384 3.16-3.065 3.16zm-4.453-13.37l2.99 9.98c.57 1.47.95 1.59 1.45 1.59.69 0 1.26-.575 1.27-1.28l-1.42-14.597 3.27-3.274c.52-.52.52-1.37 0-1.89-.51-.51-1.39-.5-1.9 0l-3.29 3.28-14.67-1.42c-.61.01-1.19.58-1.19 1.27 0 .5.12.88 1.65 1.47l9.9 2.97-5.34 5.34c-.18.17-.29.39-.35.64l-.17.72-5.26-.23-.03.08.08.06.2.02 4.92 1.21 1.11 4.93c.08.37.26.29.26.2l-.23-5.24.726-.17c.24-.06.45-.18.615-.34l5.35-5.35zm0 0" fill="#206FAC"/><path d="M23.202 109h-.004c-1.82-.006-2.59-1.35-3.154-2.806l-2.153-7.16-3.21 3.214c-.22.223-.47.408-.75.553l.17 3.89c.01 1.06-.82 1.9-1.85 1.92-.99-.01-1.75-.68-1.96-1.69l-.86-3.83-3.76-.92c-.96-.07-1.71-.86-1.73-1.84.02-1.06.85-1.89 1.87-1.89l3.91.17c.15-.28.33-.54.56-.77l3.21-3.21-7.08-2.12c-1.52-.58-2.86-1.35-2.87-3.18.01-1.68 1.39-3.06 3.07-3.07l13.9 1.33 2.68-2.68c1.2-1.18 3.26-1.18 4.44 0 1.22 1.23 1.22 3.22 0 4.43L24.94 92l1.342 13.845c-.008 1.785-1.387 3.16-3.068 3.16zM18.75 95.63l2.997 9.98c.572 1.47.95 1.59 1.457 1.59.695 0 1.265-.575 1.27-1.28l-1.42-14.597 3.27-3.274c.522-.52.524-1.37.005-1.89-.51-.51-1.39-.5-1.9 0l-3.29 3.28-14.66-1.42c-.61.01-1.19.58-1.19 1.27 0 .5.12.88 1.65 1.47l9.89 2.97-5.34 5.34c-.18.17-.3.39-.35.64l-.18.72-5.25-.23-.03.08.08.06.2.02 4.93 1.21L12 106.5c.08.37.26.29.26.2l-.23-5.24.723-.17c.24-.06.45-.17.613-.34l5.35-5.35zm0 0" fill="#fff"/><path d="M23.202 69h-.004c-1.82-.006-2.59-1.35-3.154-2.806l-2.153-7.16-3.21 3.214c-.22.223-.47.408-.75.553l.17 3.89c.01 1.06-.82 1.9-1.85 1.92-.99-.01-1.75-.68-1.96-1.69l-.86-3.83-3.76-.92c-.96-.07-1.71-.86-1.73-1.84.02-1.06.85-1.89 1.87-1.89l3.91.17c.15-.28.33-.54.56-.77l3.21-3.21-7.08-2.12c-1.52-.58-2.86-1.35-2.87-3.18.01-1.68 1.39-3.06 3.07-3.07l13.9 1.33 2.68-2.68c1.2-1.18 3.26-1.18 4.44 0 1.22 1.23 1.22 3.22 0 4.43L24.94 52l1.34 13.845c-.01 1.786-1.39 3.16-3.07 3.16zM18.75 55.63l2.997 9.98c.572 1.47.95 1.59 1.457 1.59.695 0 1.265-.575 1.27-1.28l-1.42-14.597 3.27-3.274c.522-.52.524-1.37.005-1.89-.51-.51-1.39-.5-1.9 0l-3.29 3.28-14.66-1.42c-.61.01-1.19.58-1.19 1.27 0 .5.12.88 1.65 1.47l9.89 2.97-5.34 5.34c-.18.17-.3.39-.35.64l-.18.72-5.25-.23-.03.08.08.06.2.02 4.93 1.22L12 66.51c.08.37.26.29.26.2l-.23-5.25.73-.17c.24-.06.45-.18.613-.34l5.35-5.35zm0 0" fill="#67737B"/><path d="M23.202 29h-.004c-1.82-.006-2.59-1.35-3.154-2.806l-2.153-7.16-3.21 3.214c-.22.223-.47.408-.75.553l.17 3.89c.01 1.06-.82 1.9-1.85 1.92-.99-.01-1.75-.68-1.96-1.69l-.86-3.83-3.76-.92c-.96-.07-1.71-.86-1.73-1.84.02-1.06.85-1.89 1.87-1.89l3.91.17c.15-.28.33-.54.56-.77l3.21-3.21-7.08-2.12c-1.53-.6-2.88-1.37-2.89-3.19.01-1.68 1.39-3.06 3.07-3.07l13.9 1.34 2.69-2.69c1.2-1.18 3.26-1.18 4.44 0 1.22 1.23 1.22 3.22-.01 4.43L24.93 12l1.35 13.848C26.26 27.63 24.88 29 23.2 29zM18.75 15.63l2.997 9.98c.572 1.47.95 1.59 1.457 1.59.695 0 1.265-.575 1.27-1.28l-1.42-14.597 3.27-3.274c.522-.52.524-1.37.005-1.89-.51-.51-1.39-.5-1.9 0l-3.28 3.28L6.49 8.02c-.61.01-1.185.582-1.19 1.277.003.505.12.884 1.656 1.48l9.898 2.97-5.338 5.34c-.174.17-.293.39-.35.64l-.173.72-5.254-.234-.03.082.08.06.2.023 4.93 1.22 1.11 4.93c.08.377.26.297.26.207l-.23-5.247.72-.17c.24-.06.45-.173.61-.34l5.35-5.35zm0 0" fill="#3A434E"/></g></svg>