<svg width="32" height="232" viewBox="0 0 32 232" xmlns="http://www.w3.org/2000/svg"><g fill="none"><path d="M5.118 138.095h3.995l8.606 10.317c.81.783 2.11.783 2.91.002.79-.793.65-1.675.06-3.004l-4-7.315h5.72c.41 0 .78-.12 1.11-.313l2.89 3.107c.35.35.93.35 1.29 0 .35-.36.35-.93 0-1.28l-2.21-3.62 2.27-3.55c.33-.5.28-1-.07-1.35-.37-.35-.95-.35-1.3 0l-2.91 3.12c-.32-.19-.69-.3-1.1-.3h-5.72l4-7.34c.6-1.33.74-2.21-.06-3s-2.1-.79-2.91 0l-8.61 10.34H5.11c-1.165 0-2.113.93-2.12 2.08.003 1.15.956 2.09 2.12 2.09zm0 0" fill="#206FAC"/><path d="M5.118 98.095h3.995l8.606 10.317c.81.783 2.11.783 2.91.002.79-.793.65-1.675.06-3.004l-4-7.315h5.72c.41 0 .78-.12 1.11-.313l2.89 3.107c.35.35.93.35 1.29 0 .35-.36.35-.93 0-1.28l-2.21-3.62 2.27-3.55c.33-.5.28-1-.07-1.35-.37-.35-.95-.35-1.3 0l-2.9 3.12c-.32-.19-.69-.3-1.1-.3h-5.72l3.99-7.34c.6-1.33.74-2.21-.06-3s-2.1-.79-2.91 0L9.08 93.91H5.11c-1.166 0-2.114.93-2.12 2.08.002 1.15.955 2.09 2.12 2.09zm0 0" fill="#fff"/><path d="M5.118 58.095h3.995l8.606 10.317c.81.783 2.11.783 2.91.002.79-.793.65-1.675.06-3.004l-4-7.315h5.72c.41 0 .78-.12 1.11-.313l2.89 3.107c.35.35.93.35 1.29 0 .35-.36.35-.93 0-1.28l-2.21-3.62 2.27-3.55c.33-.5.28-1-.07-1.35-.37-.35-.95-.35-1.3 0l-2.9 3.12c-.32-.19-.69-.3-1.1-.3h-5.72l3.99-7.34c.6-1.33.74-2.21-.06-3s-2.1-.79-2.91 0L9.08 53.91H5.11c-1.166 0-2.114.93-2.12 2.08.002 1.15.955 2.09 2.12 2.09zm0 0" fill="#67737B"/><path d="M5.62 18.095h3.995l8.606 10.317c.82.783 2.12.783 2.91.002.8-.793.66-1.675.06-3.004l-3.99-7.315h5.72c.41 0 .79-.12 1.11-.313l2.89 3.107c.35.35.94.35 1.3 0 .35-.36.35-.93 0-1.28l-2.21-3.62 2.28-3.55c.33-.5.29-1-.06-1.35-.36-.35-.94-.35-1.29 0l-2.9 3.12c-.32-.19-.69-.3-1.09-.3H17.2l3.997-7.33c.598-1.33.74-2.22-.058-3-.8-.79-2.1-.79-2.91 0L9.59 13.92H5.62c-1.166 0-2.114.932-2.12 2.083.002 1.153.955 2.09 2.12 2.09zm0 0" fill="#3A434E"/></g></svg>