<svg width="32" height="232" viewBox="0 0 32 232" xmlns="http://www.w3.org/2000/svg"><g fill="none"><path d="M23.383 126.62l-2.827 2.828-13.496-1.31c-1.137.01-2.056.93-2.06 2.058.004 1.133.735 1.666 2.112 2.197l8.074 2.424-4.048 4.05c-.29.288-.47.64-.56 1.008l-4.274-.185c-.5-.006-.914.408-.917.918.01.504.417.912.917.918l4.157 1.027.94 4.156c.13.58.51.91 1.01.92.51-.01.93-.42.92-.92l-.18-4.3c.36-.09.71-.27.99-.56l4.06-4.06 2.43 8.09c.53 1.38 1.07 2.11 2.2 2.11 1.13-.01 2.05-.93 2.06-2.06l-1.31-13.52 2.82-2.82c.83-.83.83-2.17.01-3-.83-.83-2.17-.83-3 0zm0 0" fill="#206FAC"/><path d="M23.383 86.62l-2.827 2.828-13.496-1.31c-1.137.01-2.056.93-2.06 2.058.004 1.133.735 1.666 2.112 2.197l8.074 2.424-4.048 4.05c-.29.288-.47.64-.56 1.008l-4.274-.185c-.5-.006-.914.408-.917.918.01.504.417.912.917.918l4.157 1.027.94 4.156c.13.58.51.91 1.01.92.51-.01.93-.42.92-.92l-.18-4.3c.36-.09.71-.27.99-.56l4.05-4.06 2.43 8.09c.53 1.38 1.07 2.11 2.2 2.11 1.13-.01 2.05-.93 2.06-2.06l-1.31-13.52 2.82-2.82c.83-.83.83-2.17.01-3-.83-.83-2.17-.83-3 0zm0 0" fill="#fff"/><path d="M23.383 46.62l-2.827 2.828-13.496-1.31c-1.137.01-2.056.93-2.06 2.058.004 1.133.735 1.666 2.112 2.197l8.074 2.424-4.048 4.05c-.29.288-.47.64-.56 1.008l-4.274-.185c-.5-.006-.914.408-.917.918.01.504.417.912.917.918l4.157 1.027.94 4.156c.13.58.51.91 1.01.92.51-.01.93-.42.92-.92l-.18-4.3c.36-.09.71-.27.99-.56l4.05-4.06 2.43 8.09c.53 1.38 1.07 2.11 2.2 2.11 1.13-.01 2.05-.93 2.06-2.06l-1.31-13.52 2.82-2.82c.83-.83.83-2.17.01-3-.83-.83-2.17-.83-3 0zm0 0" fill="#67737B"/><path d="M23.383 6.62l-2.827 2.828L7.06 8.138c-1.137.01-2.056.93-2.06 2.058.004 1.133.735 1.666 2.112 2.197l8.074 2.424-4.048 4.05c-.29.288-.47.64-.56 1.008l-4.274-.185c-.5-.006-.914.408-.917.918.01.504.417.912.917.918l4.157 1.027.94 4.156c.13.58.51.91 1.01.92.51-.01.93-.42.92-.92l-.18-4.3c.36-.09.71-.27.99-.56l4.05-4.06 2.43 8.09c.53 1.38 1.07 2.11 2.2 2.11 1.13-.01 2.05-.93 2.06-2.06l-1.31-13.52 2.82-2.81c.83-.83.83-2.17.01-3-.83-.83-2.17-.83-3 0zm0 0" fill="#3A434E"/></g></svg>