<svg width="32" height="232" viewBox="0 0 32 232" xmlns="http://www.w3.org/2000/svg"><g fill="none"><path d="M31.7 131.302c-.402-.403-1.057-.403-1.46 0l-1.374 1.375-6.564-.637c-.553.004-1 .452-1 1 0 .55.356.81 1.026 1.07l3.926 1.178-1.97 1.97c-.138.14-.228.31-.27.49l-2.08-.092c-.243-.002-.443.2-.445.447 0 .246.2.445.44.447l2.02.5.45 2.02c.06.288.24.448.49.45.24 0 .45-.203.44-.447l-.09-2.09c.17-.043.34-.13.48-.27l1.97-1.97 1.18 3.934c.26.67.52 1.025 1.07 1.027.55 0 .99-.45 1-1l-.64-6.575 1.37-1.38c.4-.4.4-1.05 0-1.46zm-8.532 8.366l-.27.292c-.174.19-.423.476-.772.813-.685.683-1.695 1.643-3.09 2.583-.686.484-1.49.928-2.37 1.34-.89.38-1.855.764-2.908.96-.52.136-1.064.17-1.608.257-.55.022-1.108.093-1.668.047l-.845-.035-.843-.1c-.567-.047-1.115-.202-1.675-.3l-.11-.022-.03-.006-.06-.016-.05-.01-.2-.06-.4-.12c-.27-.09-.52-.14-.79-.27-.54-.24-1.1-.46-1.57-.79-1-.57-1.83-1.4-2.46-2.3-.67-.89-1.03-1.91-1.26-2.87l-.14-.72c-.03-.23-.05-.47-.06-.7-.06-.46 0-.91.01-1.33.03-.42.11-.82.16-1.2l.27-1.06.33-.89c.1-.27.24-.51.34-.73.2-.44.44-.75.57-.97l.21-.34-.16.37c-.1.24-.27.58-.41 1.04-.07.23-.17.47-.24.75l-.22.9-.16 1.03c-.01.37-.06.75-.055 1.15.03.4.01.81.1 1.23l.092.64.17.65c.26.86.64 1.73 1.24 2.48l.213.3.25.27c.18.17.33.36.52.52.4.3.77.63 1.23.87.426.29.9.46 1.35.67.22.11.516.166.77.25l.396.12.2.06.05.015h.01l-.02-.01.02.008.1.02c.523.1 1.04.25 1.564.3l.786.11.78.04c.52.045 1.037-.007 1.55-.004.5-.06 1.01-.07 1.493-.186.98-.15 1.904-.45 2.77-.756.85-.34 1.65-.7 2.354-1.11 1.42-.79 2.52-1.61 3.29-2.19.76-.58 1.19-.93 1.19-.93zm0 0" fill="#206FAC"/><path d="M31.7 91.302c-.402-.403-1.057-.403-1.46 0l-1.374 1.375-6.564-.637c-.553.004-1 .452-1 1 0 .55.356.81 1.026 1.07l3.926 1.178-1.97 1.97c-.138.14-.228.31-.27.49l-2.08-.092c-.243-.002-.443.2-.445.447 0 .246.2.445.44.447l2.02.5.45 2.02c.06.288.24.448.49.45.24 0 .45-.203.44-.447l-.09-2.09c.17-.043.34-.13.48-.27l1.97-1.97 1.18 3.934c.26.67.52 1.025 1.07 1.027.55 0 .99-.45 1-1l-.64-6.574 1.37-1.38c.4-.4.4-1.05 0-1.46zm-8.532 8.366l-.27.292c-.174.19-.423.476-.772.813-.685.683-1.695 1.643-3.09 2.583-.686.484-1.49.928-2.37 1.34-.89.38-1.855.764-2.908.96-.52.136-1.064.17-1.608.257-.55.022-1.108.093-1.668.047l-.845-.035-.843-.1c-.567-.047-1.115-.202-1.675-.3l-.11-.022-.03-.006-.06-.016-.05-.01-.2-.06-.4-.12c-.27-.09-.52-.14-.79-.27-.54-.24-1.1-.46-1.57-.79-1-.57-1.83-1.4-2.46-2.3-.66-.89-1.03-1.91-1.26-2.87l-.14-.72c-.03-.23-.05-.47-.06-.7-.06-.46 0-.91.01-1.33.03-.42.11-.82.16-1.2l.27-1.06.33-.89c.1-.27.24-.51.34-.73.2-.44.44-.75.57-.97l.21-.34-.16.37c-.1.24-.27.58-.41 1.04-.07.23-.17.47-.24.75l-.22.9-.15 1.03c-.01.37-.06.75-.05 1.15.03.4 0 .818.09 1.238l.1.64.17.646c.26.856.64 1.73 1.242 2.484l.212.292.254.26c.17.17.33.36.52.52.39.3.77.63 1.22.87.422.29.893.457 1.35.667.22.11.512.17.77.26l.39.12.2.06.05.01.01.006-.02-.01h.024l.092.02c.52.1 1.034.25 1.56.3l.785.11.79.04c.516.043 1.03-.01 1.543-.006.51-.06 1.02-.07 1.5-.18.99-.15 1.91-.446 2.78-.75.85-.35 1.65-.7 2.35-1.11 1.416-.797 2.52-1.61 3.284-2.19.77-.587 1.2-.938 1.2-.938zm0 0" fill="#fff"/><path d="M31.7 51.302c-.402-.403-1.057-.403-1.46 0l-1.374 1.375-6.564-.637c-.553.004-1 .452-1 1 0 .55.356.81 1.026 1.07l3.926 1.178-1.97 1.97c-.138.14-.228.31-.27.49l-2.08-.092c-.243-.002-.443.2-.445.447 0 .246.2.445.44.447l2.02.5.45 2.02c.06.288.24.448.49.45.24 0 .45-.203.44-.447l-.09-2.09c.17-.043.34-.13.48-.27l1.97-1.97 1.18 3.934c.26.67.52 1.025 1.07 1.027.55 0 .99-.45 1-1l-.64-6.574 1.37-1.38c.4-.4.4-1.05 0-1.46zm-8.532 8.366l-.27.292c-.174.19-.423.476-.772.813-.685.683-1.695 1.643-3.09 2.583-.686.484-1.49.928-2.37 1.34-.89.38-1.855.764-2.908.96-.52.136-1.064.17-1.608.257-.55.022-1.108.093-1.668.047l-.845-.035-.843-.1c-.567-.047-1.115-.202-1.675-.3l-.11-.022-.03-.006-.06-.016-.05-.01-.2-.06-.4-.12c-.27-.09-.52-.14-.79-.27-.54-.24-1.1-.46-1.57-.79-1-.57-1.83-1.4-2.46-2.3C.8 61.04.43 60.02.2 59.06l-.14-.72c-.03-.23-.043-.47-.06-.7-.052-.46.005-.91.013-1.33.032-.424.11-.825.162-1.207l.276-1.06.34-.896c.11-.276.25-.512.35-.73.2-.446.44-.753.57-.974l.21-.338-.16.364c-.09.24-.27.57-.41 1.03-.07.23-.17.47-.24.75l-.22.9-.15 1.03c-.01.36-.06.74-.05 1.14.03.4.01.81.1 1.23l.1.64.17.64c.26.85.64 1.73 1.25 2.48l.22.29.26.26c.18.17.33.36.52.52.4.3.77.63 1.23.87.42.29.897.45 1.35.66.22.11.51.17.77.26l.39.12.2.06.05.01h.01l-.02-.007.02.004.098.02c.52.1 1.038.25 1.56.3l.79.105.784.04c.518.045 1.034-.007 1.545-.004.51-.06 1.02-.07 1.5-.18.99-.15 1.91-.446 2.78-.75.85-.35 1.65-.7 2.35-1.11 1.417-.796 2.52-1.61 3.285-2.19.764-.586 1.192-.937 1.192-.937zm0 0" fill="#67737B"/><path d="M31.7 11.302c-.402-.403-1.057-.403-1.46 0l-1.374 1.375-6.564-.637c-.553.004-1 .452-1 1 0 .55.356.81 1.026 1.07l3.926 1.178-1.97 1.97c-.138.14-.228.31-.27.49l-2.08-.092c-.243-.002-.443.2-.445.447 0 .246.2.445.44.447l2.02.5.45 2.02c.06.288.24.448.49.45.24 0 .45-.203.44-.447l-.09-2.09c.17-.043.34-.13.48-.27l1.97-1.97 1.18 3.934c.26.67.52 1.025 1.07 1.027.55 0 .99-.45 1-1l-.64-6.574 1.37-1.38c.4-.4.4-1.05 0-1.46zm-8.532 8.366l-.27.292c-.174.19-.423.476-.772.813-.685.683-1.695 1.643-3.09 2.583-.686.484-1.49.928-2.37 1.34-.89.38-1.855.764-2.908.96-.52.136-1.064.17-1.608.257-.55.022-1.108.093-1.668.047l-.845-.035-.843-.1c-.567-.047-1.115-.202-1.675-.3l-.11-.022-.03-.006-.06-.016-.05-.01-.2-.06-.4-.12c-.27-.09-.52-.14-.79-.27-.54-.24-1.1-.46-1.57-.79-1-.57-1.83-1.4-2.46-2.3C.8 21.04.43 20.02.2 19.06l-.14-.72c-.03-.23-.043-.47-.06-.7-.052-.46.005-.91.013-1.33.032-.424.11-.825.162-1.207l.276-1.06.34-.896c.11-.276.25-.512.35-.73.2-.446.44-.753.57-.974l.21-.338-.16.364c-.09.24-.27.57-.41 1.03-.07.23-.17.47-.24.75l-.22.9-.15 1.03c-.01.36-.06.74-.05 1.14.03.4.01.81.1 1.23l.1.64.17.64c.26.85.64 1.73 1.25 2.48l.22.29.26.26c.18.17.33.36.52.52.4.3.77.63 1.23.87.42.29.897.45 1.35.66.22.11.51.17.77.26l.39.12.2.06.05.01h.01l-.02-.007.02.004.098.02c.52.1 1.038.25 1.56.3l.79.105.784.04c.518.045 1.034-.007 1.545-.004.51-.06 1.02-.07 1.5-.18.99-.15 1.91-.446 2.78-.75.85-.35 1.65-.7 2.35-1.11 1.417-.796 2.52-1.61 3.285-2.19.764-.586 1.192-.937 1.192-.937zm0 0" fill="#3A434E"/></g></svg>