<svg width="32" height="232" viewBox="0 0 32 232" xmlns="http://www.w3.org/2000/svg"><g fill="none" fill-rule="evenodd"><path d="M25.88 133.905h-3.995l-8.606-10.317c-.814-.783-2.113-.783-2.91-.002-.8.793-.66 1.674-.06 3.004l3.99 7.315H8.58c-.408 0-.784.12-1.11.313l-2.887-3.107c-.348-.352-.933-.352-1.295 0-.35.36-.35.927 0 1.28l2.21 3.614-2.274 3.548c-.33.498-.285.993.064 1.35.362.35.947.35 1.297 0l2.903-3.125c.32.188.69.302 1.092.302h5.728l-3.998 7.332c-.598 1.33-.74 2.212.058 3 .8.787 2.1.787 2.91 0L21.9 138.08h3.98c1.167 0 2.115-.93 2.12-2.084 0-1.153-.954-2.09-2.12-2.09z" fill="#206FAC"/><path d="M25.88 173.905h-3.995l-8.606-10.317c-.814-.784-2.113-.784-2.91-.002-.8.792-.66 1.674-.06 3.003l3.99 7.314H8.58c-.408 0-.784.12-1.11.313l-2.887-3.107c-.348-.353-.933-.353-1.295 0-.35.358-.35.926 0 1.28l2.21 3.613-2.274 3.548c-.33.5-.285.994.064 1.35.362.35.947.35 1.297 0l2.903-3.124c.32.188.69.302 1.092.302h5.728l-3.998 7.333c-.598 1.33-.74 2.213.058 3 .8.788 2.1.788 2.91 0L21.9 178.08h3.98c1.167 0 2.115-.93 2.12-2.083 0-1.153-.954-2.09-2.12-2.09z" fill="#C7E6AA"/><path d="M25.88 93.905h-3.995L13.28 83.588c-.813-.783-2.112-.783-2.91-.002-.8.793-.658 1.675-.06 3.004l3.99 7.315H8.58c-.408 0-.784.12-1.11.313L4.584 91.11c-.348-.352-.933-.352-1.295 0-.35.36-.35.927 0 1.28l2.21 3.613-2.275 3.548c-.33.5-.285.994.064 1.35.36.35.946.35 1.296 0l2.903-3.123c.32.187.69.302 1.09.302h5.73l-4 7.33c-.597 1.33-.74 2.212.06 3 .8.79 2.1.79 2.91 0L21.9 98.08h3.98c1.166 0 2.114-.933 2.12-2.084-.002-1.153-.955-2.09-2.12-2.09z" fill="#fff"/><path d="M25.88 53.905h-3.995L13.28 43.588c-.813-.783-2.112-.783-2.91-.002-.8.793-.658 1.675-.06 3.004l3.99 7.315H8.58c-.408 0-.784.12-1.11.313L4.584 51.11c-.348-.352-.933-.352-1.295 0-.35.36-.35.927 0 1.28l2.21 3.613-2.275 3.548c-.33.5-.285.995.064 1.35.36.353.946.353 1.296 0l2.903-3.123c.32.187.69.302 1.09.302h5.73l-4 7.33c-.598 1.33-.74 2.212.058 3 .8.788 2.1.788 2.91 0L21.9 58.078h3.98c1.167 0 2.115-.932 2.12-2.083 0-1.153-.954-2.09-2.12-2.09z" fill="#67737B"/><path d="M26.38 13.905h-3.995L13.78 3.588c-.813-.783-2.112-.783-2.91-.002-.8.793-.658 1.675-.06 3.004l3.99 7.315H9.08c-.408 0-.784.12-1.11.313L5.084 11.11c-.348-.352-.933-.352-1.295 0-.35.36-.35.927 0 1.28L6 16.003 3.724 19.55c-.33.5-.285.995.064 1.35.36.353.946.353 1.296 0l2.903-3.123c.32.187.69.302 1.09.302h5.73l-4 7.33c-.598 1.33-.74 2.212.058 3 .8.788 2.1.788 2.91 0L22.4 18.078h3.98c1.167 0 2.115-.932 2.12-2.083 0-1.153-.954-2.09-2.12-2.09z" fill="#3A434E"/></g></svg>