<svg width="32" height="232" viewBox="0 0 32 232" xmlns="http://www.w3.org/2000/svg"><g fill="none"><path d="M8.58 132.46c-1.06 0-1.92.845-1.92 1.884v10.818c-.907-.15-1.6-.92-1.6-1.854v-10.2c0-1.042.86-1.887 1.92-1.887h7.912c.673-.03 10.566 0 10.566 0 .174 0 .336.04.494.08-.185-.85-.953-1.48-1.874-1.48h-.286c-.65-.03-1.143-.23-1.178-.87v-.06c0-1.04-.86-1.41-1.92-1.41H16.62c-1.057 0-1.915.37-1.92 1.41-.002.71-.516.91-1.19.95H5.42c-1.06 0-1.92.85-1.92 1.89v11.77c0 .49.19.93.497 1.26.1.11.19.19.285.26l2.76 2.26c.152.21.35.38.58.51.31.17.62.26.96.26h17.995c1.06 0 1.923-.84 1.923-1.88V134.4c0-1.04-.862-1.886-1.923-1.886H8.58zm0 0" fill="#206FAC"/><path d="M8.58 92.46c-1.06 0-1.92.845-1.92 1.884v10.818c-.907-.15-1.6-.92-1.6-1.854v-10.2c0-1.042.86-1.887 1.92-1.887h7.912c.673-.03 10.566 0 10.566 0 .174 0 .336.04.494.08-.185-.85-.953-1.48-1.874-1.48h-.286c-.65-.03-1.143-.23-1.178-.87v-.06c0-1.04-.86-1.41-1.92-1.41H16.62c-1.057 0-1.915.37-1.92 1.41-.002.71-.516.91-1.19.95H5.42c-1.06 0-1.92.85-1.92 1.89v11.77c0 .49.19.93.497 1.26.1.11.19.19.285.26l2.76 2.26c.152.21.35.38.58.51.31.17.62.26.96.26h17.995c1.06 0 1.923-.84 1.923-1.88v-11.8c0-1.04-.862-1.88-1.923-1.88H8.58zm0 0" fill="#fff"/><path d="M8.58 52.46c-1.06 0-1.92.845-1.92 1.884v10.818c-.907-.15-1.6-.92-1.6-1.854v-10.2c0-1.042.86-1.887 1.92-1.887h7.912c.673-.03 10.566 0 10.566 0 .174 0 .336.04.494.08-.185-.85-.953-1.48-1.874-1.48h-.286c-.65-.03-1.143-.23-1.178-.87v-.06c0-1.04-.86-1.41-1.92-1.41H16.62c-1.057 0-1.915.37-1.92 1.41-.002.71-.516.91-1.19.95H5.42c-1.06 0-1.92.85-1.92 1.89v11.76c0 .49.19.93.497 1.26.1.11.19.19.285.26l2.76 2.26c.152.21.35.38.58.51.31.17.62.26.96.26h17.995c1.06 0 1.923-.84 1.923-1.88v-11.8c0-1.04-.862-1.88-1.923-1.88H8.58zm0 0" fill="#67737B"/><path d="M8.58 12.46c-1.06 0-1.92.845-1.92 1.884v10.818c-.907-.15-1.6-.92-1.6-1.854v-10.2c0-1.042.86-1.887 1.92-1.887h7.912c.673-.03 10.566 0 10.566 0 .174 0 .336.04.494.08-.185-.85-.953-1.48-1.874-1.48h-.286c-.65-.03-1.143-.23-1.178-.87v-.07c0-1.04-.86-1.41-1.92-1.41H16.62c-1.057 0-1.915.37-1.92 1.41-.002.7-.516.91-1.19.94H5.42c-1.06 0-1.92.85-1.92 1.89v11.76c0 .49.19.93.497 1.26.1.11.19.19.285.26l2.76 2.26c.152.21.35.38.58.51.31.17.62.26.96.26h17.995c1.06 0 1.923-.84 1.923-1.88V14.35c0-1.04-.862-1.885-1.923-1.885H8.58zm0 0" fill="#3A434E"/></g></svg>