<svg width="32" height="232" viewBox="0 0 32 232" xmlns="http://www.w3.org/2000/svg"><g fill="none"><path d="M32 135.89c0 4.45-1.57 8.243-4.71 11.383-3.14 3.153-6.902 4.727-11.282 4.727s-8.136-1.55-11.266-4.645C1.582 144.238 0 140.455 0 136.008c0-4.448 1.58-8.235 4.742-11.363C7.872 121.55 11.627 120 16.008 120c4.38 0 8.13 1.525 11.248 4.576C30.42 127.672 32 131.443 32 135.89zm-2.753-.074c0-3.62-1.316-6.726-3.945-9.314-2.61-2.56-5.697-3.838-9.266-3.838l-1.44 3.004 1.57.322 1.222-1.246 2.158.147.434 1.18-1.297 1.32v.79l.807.17.375-.61 1.425-.9-.044.61.532.94-.634.68.403.4-.95.06.39.79-2.058 1 .31 1.19h-.65l-.29-1.17-1.51-.03-.28.45-.62-.29-1.01 1.03.8.98-.03 1.08.85.65 4.95.57 1.57 1.13-.19 2.8-3.42 3.47c-.22.228-.44.85-.65 1.878-.21.97-.28 1.656-.22 2.066l-.52.6c-.4-.81-.93-2.056-1.57-3.73-.16-.58-.29-1.31-.41-2.2l-.26-2.21-2.16-1.935 1.917-2.3-.79-1.16c-1.22-.25-2.01-.474-2.37-.67-.36-.204-.99-.765-1.88-1.68l.747 1.48-.504.216-1.16-2.222.23-2.08-.36-1.46-1.122-1.116-.82-.2-.72.51-.79.21c-2.18 2.557-3.27 5.497-3.27 8.817 0 3.71 1.31 6.86 3.92 9.44 2.58 2.56 5.7 3.836 9.356 3.836 3.65 0 6.764-1.3 9.34-3.91 2.58-2.61 3.87-5.77 3.87-9.48zm0 0" fill="#206FAC"/><path d="M32 95.89c0 4.45-1.57 8.243-4.71 11.383-3.14 3.153-6.902 4.727-11.282 4.727s-8.136-1.55-11.266-4.645C1.582 104.238 0 100.455 0 96.008c0-4.448 1.58-8.235 4.742-11.363C7.872 81.55 11.627 80 16.008 80c4.38 0 8.13 1.525 11.248 4.576C30.42 87.672 32 91.443 32 95.89zm-2.753-.074c0-3.62-1.316-6.726-3.945-9.314-2.61-2.56-5.697-3.838-9.266-3.838l-1.44 3.004 1.57.322 1.222-1.246 2.158.147.434 1.18-1.297 1.32v.79l.807.17.375-.61 1.425-.9-.044.61.532.94-.634.68.403.4-.95.06.39.79-2.058 1 .31 1.19h-.65l-.29-1.18-1.51-.03-.28.46-.62-.29-1.01 1.02.8.98-.03 1.09.85.646 4.95.57 1.57 1.13-.19 2.8-3.41 3.47c-.22.226-.44.85-.65 1.876-.21.967-.28 1.654-.22 2.064l-.52.6c-.41-.81-.93-2.058-1.57-3.735-.16-.57-.29-1.31-.41-2.192l-.26-2.22-2.16-1.93 1.91-2.3-.79-1.16c-1.22-.25-2.01-.48-2.37-.67-.37-.21-.998-.77-1.89-1.69l.74 1.48-.504.216-1.16-2.225.23-2.08-.36-1.464-1.12-1.113-.82-.21-.72.51-.79.21c-2.18 2.55-3.27 5.49-3.27 8.81 0 3.71 1.31 6.86 3.917 9.444 2.58 2.56 5.7 3.84 9.353 3.84 3.66 0 6.77-1.3 9.34-3.904 2.58-2.607 3.87-5.768 3.87-9.477zm0 0" fill="#fff"/><path d="M32 55.89c0 4.45-1.57 8.243-4.71 11.383C24.15 70.426 20.388 72 16.008 72s-8.136-1.55-11.266-4.645C1.582 64.238 0 60.455 0 56.008c0-4.448 1.58-8.235 4.742-11.363C7.872 41.55 11.627 40 16.008 40c4.38 0 8.13 1.525 11.248 4.576C30.42 47.672 32 51.443 32 55.89zm-2.753-.074c0-3.62-1.316-6.726-3.945-9.314-2.61-2.56-5.697-3.838-9.266-3.838l-1.44 3.004 1.57.322 1.222-1.246 2.158.147.434 1.18-1.297 1.32v.79l.807.17.375-.61 1.425-.9-.044.61.532.94-.634.68.403.4-.95.06.39.79-2.058 1 .31 1.19h-.65l-.29-1.18-1.51-.03-.28.46-.62-.29-1.01 1.02.8.98-.03 1.09.85.646 4.95.57 1.57 1.13-.19 2.8-3.41 3.47c-.22.226-.44.85-.65 1.876-.21.967-.28 1.654-.22 2.064l-.52.6c-.41-.81-.93-2.058-1.57-3.735-.16-.57-.29-1.31-.41-2.192l-.26-2.22-2.16-1.93 1.91-2.3-.79-1.16c-1.22-.25-2.01-.48-2.37-.67-.37-.21-.998-.77-1.89-1.69l.74 1.48-.504.216-1.16-2.225.23-2.08-.36-1.464-1.12-1.113-.82-.21-.72.51-.79.21c-2.18 2.55-3.27 5.49-3.27 8.81 0 3.71 1.31 6.86 3.917 9.444 2.58 2.56 5.7 3.84 9.353 3.84 3.66 0 6.77-1.3 9.34-3.904 2.58-2.607 3.87-5.768 3.87-9.477zm0 0" fill="#67737B"/><path d="M32 15.89c0 4.45-1.57 8.243-4.71 11.383C24.15 30.426 20.388 32 16.008 32s-8.136-1.55-11.266-4.645C1.582 24.238 0 20.455 0 16.008 0 11.56 1.58 7.773 4.742 4.645 7.872 1.55 11.627 0 16.008 0c4.38 0 8.13 1.525 11.248 4.576C30.42 7.672 32 11.443 32 15.89zm-2.753-.074c0-3.62-1.316-6.726-3.945-9.314-2.61-2.56-5.697-3.838-9.266-3.838l-1.44 3.004 1.57.322 1.222-1.246 2.158.147.434 1.18-1.297 1.32v.79l.807.17.375-.61 1.425-.9-.044.61.532.94-.634.68.403.4-.95.06.39.79-2.058 1 .31 1.19h-.65l-.29-1.18-1.51-.03-.28.46-.62-.29-1.01 1.02.8.98-.03 1.09.85.646 4.95.57 1.57 1.13-.19 2.8-3.41 3.47c-.22.226-.44.85-.65 1.876-.21.967-.28 1.654-.22 2.064l-.52.6c-.41-.81-.93-2.058-1.57-3.735-.16-.57-.29-1.31-.41-2.192l-.26-2.22-2.16-1.93 1.91-2.3-.79-1.16c-1.22-.25-2.01-.48-2.37-.67-.37-.21-.998-.77-1.89-1.69l.74 1.48-.504.216-1.16-2.225.23-2.08-.33-1.5L8.35 6.59l-.82-.205-.72.51-.79.21c-2.18 2.55-3.27 5.49-3.27 8.81 0 3.71 1.31 6.86 3.92 9.443 2.58 2.56 5.7 3.833 9.356 3.833 3.655 0 6.77-1.3 9.34-3.9 2.58-2.606 3.87-5.767 3.87-9.476zm0 0" fill="#3A434E"/></g></svg>