<svg width="32" height="232" viewBox="0 0 32 232" xmlns="http://www.w3.org/2000/svg"><g fill="none"><path d="M13.127 135.522h-7.7c-1.065 0-1.927-.86-1.927-1.923v-7.68c0-1.06.862-1.93 1.928-1.93h7.7c1.064 0 1.925.86 1.925 1.92v7.67c0 1.06-.86 1.92-1.926 1.92zm0 13.478h-7.7c-1.065 0-1.927-.86-1.927-1.924v-7.672c0-1.064.862-1.924 1.928-1.924h7.7c1.064 0 1.925.86 1.925 1.924v7.672c0 1.063-.86 1.924-1.926 1.924zm13.463-21.06h-7.76c-1.072 0-1.943-.867-1.943-1.94 0-1.07.87-1.937 1.942-1.937h7.76c1.07 0 1.94.867 1.94 1.938 0 1.08-.87 1.94-1.94 1.94zm-7.76 2.86h7.76c1.07 0 1.94.868 1.94 1.94 0 1.07-.87 1.94-1.94 1.94h-7.76c-1.072 0-1.943-.87-1.943-1.94 0-1.072.87-1.94 1.942-1.94zm7.76 10.618h-7.76c-1.072 0-1.943-.87-1.943-1.94s.87-1.937 1.942-1.937h7.76c1.07 0 1.94.87 1.94 1.94 0 1.07-.87 1.94-1.94 1.94zm0 6.74h-7.76c-1.072 0-1.943-.868-1.943-1.94 0-1.07.87-1.938 1.942-1.938h7.76c1.07 0 1.94.867 1.94 1.937 0 1.073-.87 1.94-1.94 1.94zm0 0" fill="#206FAC"/><path d="M13.127 95.522h-7.7c-1.065 0-1.927-.86-1.927-1.923v-7.68c0-1.06.862-1.93 1.928-1.93h7.7c1.064 0 1.925.86 1.925 1.92v7.68c0 1.06-.86 1.92-1.926 1.92zm0 13.478h-7.7c-1.065 0-1.927-.86-1.927-1.924v-7.672c0-1.064.862-1.924 1.928-1.924h7.7c1.064 0 1.925.86 1.925 1.924v7.672c0 1.063-.86 1.924-1.926 1.924zM26.59 87.94h-7.76c-1.072 0-1.943-.867-1.943-1.94 0-1.07.87-1.937 1.942-1.937h7.76c1.07 0 1.94.867 1.94 1.938 0 1.08-.87 1.94-1.94 1.94zm-7.76 2.86h7.76c1.07 0 1.94.868 1.94 1.94 0 1.07-.87 1.94-1.94 1.94h-7.76c-1.072 0-1.943-.87-1.943-1.94 0-1.072.87-1.94 1.942-1.94zm7.76 10.618h-7.76c-1.072 0-1.943-.87-1.943-1.94s.87-1.937 1.942-1.937h7.76c1.07 0 1.94.87 1.94 1.94 0 1.07-.87 1.94-1.94 1.94zm0 6.74h-7.76c-1.072 0-1.943-.868-1.943-1.94 0-1.07.87-1.938 1.942-1.938h7.76c1.07 0 1.94.867 1.94 1.937 0 1.073-.87 1.94-1.94 1.94zm0 0" fill="#fff"/><path d="M13.127 55.522h-7.7c-1.065 0-1.927-.86-1.927-1.923v-7.68c0-1.06.862-1.93 1.928-1.93h7.7c1.064 0 1.925.86 1.925 1.92v7.68c0 1.06-.86 1.92-1.926 1.92zm0 13.478h-7.7C4.363 69 3.5 68.14 3.5 67.076v-7.672c0-1.064.862-1.924 1.928-1.924h7.7c1.064 0 1.925.86 1.925 1.924v7.672c0 1.063-.86 1.924-1.926 1.924zM26.59 47.94h-7.76c-1.072 0-1.943-.867-1.943-1.94 0-1.07.87-1.937 1.942-1.937h7.76c1.07 0 1.94.867 1.94 1.938 0 1.08-.87 1.94-1.94 1.94zm-7.76 2.86h7.76c1.07 0 1.94.868 1.94 1.94 0 1.07-.87 1.94-1.94 1.94h-7.76c-1.072 0-1.943-.87-1.943-1.94 0-1.072.87-1.94 1.942-1.94zm7.76 10.618h-7.76c-1.072 0-1.943-.87-1.943-1.94s.87-1.937 1.942-1.937h7.76c1.07 0 1.94.87 1.94 1.94 0 1.07-.87 1.94-1.94 1.94zm0 6.74h-7.76c-1.072 0-1.943-.868-1.943-1.94 0-1.07.87-1.938 1.942-1.938h7.76c1.07 0 1.94.867 1.94 1.937 0 1.073-.87 1.94-1.94 1.94zm0 0" fill="#67737B"/><path d="M13.127 15.522h-7.7c-1.065 0-1.927-.86-1.927-1.923V5.92C3.5 4.862 4.362 4 5.428 4h7.7c1.064 0 1.925.864 1.925 1.925V13.6c0 1.06-.86 1.922-1.926 1.922zm0 13.478h-7.7C4.363 29 3.5 28.14 3.5 27.076v-7.672c0-1.064.862-1.924 1.928-1.924h7.7c1.064 0 1.925.86 1.925 1.924v7.672c0 1.063-.86 1.924-1.926 1.924zM26.59 7.94h-7.76c-1.072 0-1.943-.867-1.943-1.94 0-1.07.87-1.937 1.942-1.937h7.76c1.07 0 1.94.867 1.94 1.938 0 1.08-.87 1.94-1.94 1.94zm-7.76 2.86h7.76c1.07 0 1.94.868 1.94 1.94 0 1.07-.87 1.94-1.94 1.94h-7.76c-1.072 0-1.943-.87-1.943-1.94 0-1.072.87-1.94 1.942-1.94zm7.76 10.618h-7.76c-1.072 0-1.943-.87-1.943-1.94s.87-1.937 1.942-1.937h7.76c1.07 0 1.94.87 1.94 1.94 0 1.07-.87 1.94-1.94 1.94zm0 6.74h-7.76c-1.072 0-1.943-.868-1.943-1.94 0-1.07.87-1.938 1.942-1.938h7.76c1.07 0 1.94.867 1.94 1.937 0 1.073-.87 1.94-1.94 1.94zm0 0" fill="#3A434E"/></g></svg>