<svg width="32" height="232" viewBox="0 0 32 232" xmlns="http://www.w3.org/2000/svg"><g fill="none"><path d="M26.603 135.522h-7.7c-1.065 0-1.93-.86-1.93-1.925v-7.672c0-1.06.865-1.925 1.93-1.925h7.7c1.065 0 1.926.864 1.926 1.925v7.672c0 1.064-.87 1.925-1.93 1.925zm-13.478 0H5.427c-1.066 0-1.927-.86-1.927-1.925v-7.672c0-1.06.86-1.925 1.927-1.925h7.698c1.066 0 1.927.864 1.927 1.925v7.672c0 1.064-.86 1.925-1.927 1.925zm0 13.478H5.427c-1.066 0-1.927-.863-1.927-1.924v-7.672c0-1.063.86-1.926 1.927-1.926h7.698c1.066 0 1.927.863 1.927 1.926v7.672c0 1.06-.86 1.924-1.927 1.924zm13.478 0h-7.7c-1.065 0-1.93-.863-1.93-1.924v-7.672c0-1.063.865-1.926 1.93-1.926h7.7c1.065 0 1.926.863 1.926 1.926v7.672c0 1.06-.87 1.924-1.93 1.924zm0 0" fill="#206FAC"/><path d="M26.603 95.522h-7.7c-1.065 0-1.93-.86-1.93-1.925v-7.672c0-1.06.865-1.925 1.93-1.925h7.7c1.065 0 1.926.864 1.926 1.925v7.672c0 1.064-.87 1.925-1.93 1.925zm-13.478 0H5.427c-1.066 0-1.927-.86-1.927-1.925v-7.672c0-1.06.86-1.925 1.927-1.925h7.698c1.066 0 1.927.864 1.927 1.925v7.672c0 1.064-.86 1.925-1.927 1.925zm0 13.478H5.427c-1.066 0-1.927-.863-1.927-1.924v-7.672c0-1.063.86-1.926 1.927-1.926h7.698c1.066 0 1.927.863 1.927 1.926v7.672c0 1.06-.86 1.924-1.927 1.924zm13.478 0h-7.7c-1.065 0-1.93-.863-1.93-1.924v-7.672c0-1.063.865-1.926 1.93-1.926h7.7c1.065 0 1.926.863 1.926 1.926v7.672c0 1.06-.87 1.924-1.93 1.924zm0 0" fill="#fff"/><path d="M26.603 55.522h-7.7c-1.065 0-1.93-.86-1.93-1.925v-7.672c0-1.06.865-1.925 1.93-1.925h7.7c1.065 0 1.926.864 1.926 1.925v7.672c0 1.064-.87 1.925-1.93 1.925zm-13.478 0H5.427c-1.066 0-1.927-.86-1.927-1.925v-7.672c0-1.06.86-1.925 1.927-1.925h7.698c1.066 0 1.927.864 1.927 1.925v7.672c0 1.064-.86 1.925-1.927 1.925zm0 13.478H5.427C4.36 69 3.5 68.137 3.5 67.076v-7.672c0-1.063.86-1.926 1.927-1.926h7.698c1.066 0 1.927.863 1.927 1.926v7.672c0 1.06-.86 1.924-1.927 1.924zm13.478 0h-7.7c-1.065 0-1.93-.863-1.93-1.924v-7.672c0-1.063.865-1.926 1.93-1.926h7.7c1.065 0 1.926.863 1.926 1.926v7.672c0 1.06-.87 1.924-1.93 1.924zm0 0" fill="#67737B"/><path d="M26.603 15.522h-7.7c-1.065 0-1.93-.86-1.93-1.925V5.925c0-1.06.865-1.925 1.93-1.925h7.7c1.065 0 1.926.864 1.926 1.925v7.672c0 1.064-.87 1.925-1.93 1.925zm-13.478 0H5.427c-1.066 0-1.927-.86-1.927-1.925V5.925C3.5 4.865 4.36 4 5.427 4h7.698c1.066 0 1.927.864 1.927 1.925v7.672c0 1.064-.86 1.925-1.927 1.925zm0 13.478H5.427C4.36 29 3.5 28.137 3.5 27.076v-7.672c0-1.063.86-1.926 1.927-1.926h7.698c1.066 0 1.927.863 1.927 1.926v7.672c0 1.06-.86 1.924-1.927 1.924zm13.478 0h-7.7c-1.065 0-1.93-.863-1.93-1.924v-7.672c0-1.063.865-1.926 1.93-1.926h7.7c1.065 0 1.926.863 1.926 1.926v7.672c0 1.06-.87 1.924-1.93 1.924zm0 0" fill="#3A434E"/></g></svg>