<svg width="32" height="232" viewBox="0 0 32 232" xmlns="http://www.w3.org/2000/svg"><g fill="none"><path d="M17.26 131.418c0 .15-.124.274-.275.274h-1.967c-.153 0-.274-.123-.274-.274 0-.15.12-.27.274-.27h1.967c.15 0 .274.12.274.27zM16.016 129h-.03c-.327.002-3.474.035-3.502.726-.03.73 2.835.132 2.85 1.26h1.33c.015-1.128 2.88-.53 2.85-1.26-.026-.69-3.174-.724-3.498-.726zm-.58 16.11H3.606c-.19 0-.343.166-.343.357v.756c0 .147-.386.35-.694.515-.67.352-1.57.832-1.57 1.916 0 .19.15.346.34.346h29.32c.18 0 .34-.155.34-.346 0-1.084-.91-1.564-1.57-1.916-.31-.166-.7-.368-.7-.515v-.768c0-.19-.16-.345-.35-.345H15.43zM16 133.092c-7.013 0-12.717 4.48-12.717 9.984 0 .19.156.344.344.344h24.746c.19 0 .343-.154.343-.344 0-5.505-5.705-9.984-12.716-9.984zm0-.193h.566v-1.07h-1.13v1.07H16zm0 0" fill="#206FAC"/><path d="M17.26 91.418c0 .15-.124.274-.275.274h-1.967c-.153 0-.274-.123-.274-.274 0-.15.12-.27.274-.27h1.967c.15 0 .274.12.274.27zM16.016 89h-.03c-.327.002-3.474.035-3.502.726-.03.73 2.835.132 2.85 1.26h1.33c.015-1.128 2.88-.53 2.85-1.26-.026-.69-3.174-.724-3.498-.726zm-.58 16.11H3.606c-.19 0-.343.166-.343.357v.756c0 .147-.386.35-.694.515-.67.352-1.57.832-1.57 1.916 0 .19.15.346.34.346h29.32c.18 0 .34-.155.34-.346 0-1.084-.91-1.564-1.57-1.916-.31-.166-.7-.368-.7-.515v-.768c0-.19-.16-.345-.35-.345H15.43zM16 93.092c-7.013 0-12.717 4.48-12.717 9.984 0 .19.156.344.344.344h24.746c.19 0 .343-.154.343-.344 0-5.505-5.705-9.984-12.716-9.984zm0-.193h.566v-1.07h-1.13v1.07H16zm0 0" fill="#fff"/><path d="M17.26 51.418c0 .15-.124.274-.275.274h-1.967c-.153 0-.274-.123-.274-.274 0-.15.12-.27.274-.27h1.967c.15 0 .274.12.274.27zM16.016 49h-.03c-.327.002-3.474.035-3.502.726-.03.73 2.835.132 2.85 1.26h1.33c.015-1.128 2.88-.53 2.85-1.26-.026-.69-3.174-.724-3.498-.726zm-.58 16.11H3.606c-.19 0-.343.166-.343.357v.756c0 .147-.386.35-.694.515C1.9 67.09 1 67.57 1 68.654c0 .19.15.346.34.346h29.32c.184 0 .34-.155.34-.346 0-1.084-.907-1.564-1.568-1.916-.31-.166-.696-.368-.696-.515v-.768c0-.19-.158-.345-.348-.345H15.435zM16 53.092c-7.013 0-12.717 4.48-12.717 9.984 0 .19.156.344.344.344h24.746c.19 0 .343-.154.343-.344 0-5.505-5.705-9.984-12.716-9.984zm0-.193h.566v-1.07h-1.13v1.07H16zm0 0" fill="#67737B"/><path d="M17.26 11.418c0 .15-.124.274-.275.274h-1.967c-.153 0-.274-.123-.274-.274 0-.15.12-.27.274-.27h1.967c.15 0 .274.12.274.27zM16.016 9h-.03c-.327.002-3.474.035-3.502.726-.03.73 2.835.132 2.85 1.26h1.33c.015-1.128 2.88-.53 2.85-1.26-.026-.69-3.174-.724-3.498-.726zm-.58 16.11H3.606c-.19 0-.343.166-.343.357v.756c0 .147-.386.35-.694.515C1.9 27.09 1 27.57 1 28.654c0 .19.15.346.34.346h29.32c.184 0 .34-.155.34-.346 0-1.084-.907-1.564-1.568-1.916-.31-.166-.696-.368-.696-.515v-.768c0-.19-.158-.345-.348-.345H15.435zM16 13.092c-7.013 0-12.717 4.48-12.717 9.984 0 .19.156.344.344.344h24.746c.19 0 .343-.154.343-.344 0-5.505-5.705-9.984-12.716-9.984zm0-.193h.566v-1.07h-1.13v1.07H16zm0 0" fill="#3A434E"/></g></svg>