<svg width="32" height="232" viewBox="0 0 32 232" xmlns="http://www.w3.org/2000/svg"><g fill="none"><path d="M18.743 135.052c.14.14.306.252.487.33.146.057.293.078.453.09l.118.023h3.07c.82 0 1.49-.662 1.49-1.486s-.67-1.5-1.49-1.5h-2.45l-3.39-3.43v-.01c-.28-.29-.66-.44-1.05-.44-.38 0-.76.14-1.05.43l-.01.02-3.81 3.84c-.29.29-.43.67-.43 1.06 0 .38.15.76.44 1.05l3.41 3.42v5.72c0 .83.67 1.5 1.48 1.5.83 0 1.5-.68 1.5-1.51v-6.34l-.02-.14c-.02-.15-.03-.3-.09-.44-.08-.18-.19-.35-.33-.49l-2.8-2.78 1.73-1.75 2.78 2.796zM7.12 136.695c-3.38 0-6.12 2.76-6.12 6.153C1 146.236 3.74 149 7.12 149c3.378 0 6.126-2.764 6.126-6.152 0-3.392-2.748-6.153-6.127-6.153zm0 9.923c-2.062 0-3.744-1.695-3.744-3.77 0-2.072 1.682-3.76 3.743-3.76 2.06 0 3.74 1.688 3.74 3.76 0 2.075-1.68 3.77-3.75 3.77zM19.91 125c-1.31 0-2.38 1.066-2.38 2.388 0 1.335 1.07 2.402 2.38 2.402 1.318 0 2.378-1.067 2.378-2.402 0-1.322-1.06-2.388-2.377-2.388zm4.967 11.695c-3.377 0-6.125 2.76-6.125 6.153 0 3.388 2.748 6.152 6.125 6.152 3.374 0 6.123-2.764 6.123-6.152 0-3.392-2.75-6.153-6.123-6.153zm0 9.923c-2.07 0-3.748-1.695-3.748-3.77 0-2.072 1.67-3.76 3.74-3.76 2.06 0 3.74 1.688 3.74 3.76 0 2.075-1.69 3.77-3.75 3.77zm0 0" fill="#206FAC"/><path d="M18.743 95.052c.14.14.306.252.487.33.146.057.293.078.453.09l.118.023h3.07c.82 0 1.49-.662 1.49-1.486s-.67-1.5-1.49-1.5h-2.45l-3.39-3.43v-.01c-.28-.29-.66-.44-1.05-.44-.38 0-.76.14-1.05.43l-.01.02-3.82 3.84c-.29.29-.43.67-.43 1.06 0 .38.15.76.44 1.05l3.41 3.42v5.72c0 .83.67 1.5 1.48 1.5.83 0 1.5-.68 1.5-1.51v-6.34l-.02-.14c-.02-.15-.03-.3-.09-.44-.08-.19-.19-.35-.32-.49l-2.78-2.8 1.72-1.73 2.78 2.79zM7.12 96.695c-3.38 0-6.12 2.76-6.12 6.153C1 106.236 3.74 109 7.12 109c3.378 0 6.126-2.764 6.126-6.152 0-3.392-2.748-6.153-6.127-6.153zm0 9.923c-2.062 0-3.744-1.695-3.744-3.77 0-2.072 1.682-3.76 3.743-3.76 2.06 0 3.74 1.688 3.74 3.76 0 2.075-1.68 3.77-3.75 3.77zM19.91 85c-1.31 0-2.38 1.066-2.38 2.388 0 1.335 1.07 2.402 2.38 2.402 1.318 0 2.378-1.067 2.378-2.402 0-1.322-1.06-2.388-2.377-2.388zm4.967 11.695c-3.377 0-6.125 2.76-6.125 6.153 0 3.388 2.748 6.152 6.125 6.152 3.374 0 6.123-2.764 6.123-6.152 0-3.392-2.75-6.153-6.123-6.153zm0 9.923c-2.07 0-3.748-1.695-3.748-3.77 0-2.072 1.67-3.76 3.74-3.76 2.06 0 3.74 1.688 3.74 3.76 0 2.075-1.69 3.77-3.75 3.77zm0 0" fill="#fff"/><path d="M18.743 55.052c.14.14.306.252.487.33.146.057.293.078.453.09l.118.023h3.07c.82 0 1.49-.662 1.49-1.486s-.67-1.5-1.49-1.5h-2.45l-3.39-3.43v-.01c-.28-.29-.66-.44-1.05-.44-.38 0-.76.14-1.05.43l-.01.02-3.82 3.84c-.29.29-.43.67-.43 1.06 0 .38.15.76.44 1.05l3.41 3.42v5.72c0 .83.67 1.5 1.48 1.5.83 0 1.5-.68 1.5-1.51v-6.34l-.02-.14c-.02-.15-.03-.3-.09-.44-.08-.19-.19-.35-.32-.49l-2.78-2.8 1.72-1.73 2.78 2.79zM7.12 56.695c-3.38 0-6.12 2.76-6.12 6.153C1 66.236 3.74 69 7.12 69c3.378 0 6.126-2.764 6.126-6.152 0-3.392-2.748-6.153-6.127-6.153zm0 9.923c-2.062 0-3.744-1.695-3.744-3.77 0-2.072 1.682-3.76 3.743-3.76 2.06 0 3.74 1.688 3.74 3.76 0 2.075-1.68 3.77-3.75 3.77zM19.91 45c-1.31 0-2.38 1.066-2.38 2.388 0 1.335 1.07 2.402 2.38 2.402 1.318 0 2.378-1.067 2.378-2.402 0-1.322-1.06-2.388-2.377-2.388zm4.967 11.695c-3.377 0-6.125 2.76-6.125 6.153 0 3.388 2.748 6.152 6.125 6.152C28.25 69 31 66.236 31 62.848c0-3.392-2.75-6.153-6.123-6.153zm0 9.923c-2.07 0-3.748-1.695-3.748-3.77 0-2.072 1.67-3.76 3.74-3.76 2.06 0 3.74 1.688 3.74 3.76 0 2.075-1.69 3.77-3.75 3.77zm0 0" fill="#67737B"/><path d="M18.743 15.052c.14.14.306.252.487.33.146.057.293.078.453.09l.118.023h3.07c.82 0 1.49-.662 1.49-1.486s-.67-1.5-1.49-1.5h-2.45l-3.4-3.43v-.01c-.28-.29-.66-.44-1.05-.44-.38 0-.76.14-1.05.43l-.01.02-3.81 3.84c-.29.29-.43.67-.43 1.06 0 .38.15.76.44 1.05l3.4 3.42v5.72c0 .83.66 1.5 1.48 1.5.83 0 1.5-.68 1.5-1.51v-6.34l-.02-.14c-.02-.15-.03-.3-.09-.44-.08-.19-.19-.35-.32-.49l-2.78-2.8L16 12.21 18.78 15zM7.12 16.695c-3.38 0-6.12 2.76-6.12 6.153C1 26.236 3.74 29 7.12 29c3.378 0 6.126-2.764 6.126-6.152 0-3.392-2.748-6.153-6.127-6.153zm0 9.923c-2.062 0-3.744-1.695-3.744-3.77 0-2.072 1.682-3.76 3.743-3.76 2.06 0 3.74 1.688 3.74 3.76 0 2.075-1.68 3.77-3.75 3.77zM19.91 5c-1.31 0-2.38 1.066-2.38 2.388 0 1.335 1.07 2.402 2.38 2.402 1.318 0 2.378-1.067 2.378-2.402C22.288 6.066 21.228 5 19.91 5zm4.967 11.695c-3.377 0-6.125 2.76-6.125 6.153 0 3.388 2.748 6.152 6.125 6.152C28.25 29 31 26.236 31 22.848c0-3.392-2.75-6.153-6.123-6.153zm0 9.923c-2.07 0-3.748-1.695-3.748-3.77 0-2.072 1.67-3.76 3.74-3.76 2.06 0 3.74 1.688 3.74 3.76 0 2.075-1.69 3.77-3.75 3.77zm0 0" fill="#3A434E"/></g></svg>