<svg width="32" height="232" viewBox="0 0 32 232" xmlns="http://www.w3.org/2000/svg"><g fill="none"><path d="M26.827 129.383H5.177c-.926 0-1.676-.757-1.676-1.69 0-.935.75-1.692 1.68-1.692h21.65c.93 0 1.68.76 1.68 1.7 0 .93-.75 1.69-1.67 1.69zm-21.65 2.49h21.65c.922 0 1.673.758 1.673 1.69 0 .936-.75 1.693-1.673 1.693H5.177c-.926 0-1.676-.757-1.676-1.693 0-.932.75-1.69 1.68-1.69zm21.65 9.254H5.177c-.926 0-1.676-.756-1.676-1.688 0-.94.75-1.7 1.68-1.7h21.65c.93 0 1.68.75 1.68 1.69 0 .93-.75 1.68-1.67 1.68zm0 5.873H5.177c-.926 0-1.676-.756-1.676-1.69 0-.934.75-1.69 1.68-1.69h21.65c.93 0 1.68.756 1.68 1.69 0 .934-.75 1.69-1.67 1.69zm0 0" fill="#206FAC"/><path d="M26.827 89.383H5.177c-.926 0-1.676-.757-1.676-1.69 0-.935.75-1.693 1.68-1.693h21.65c.93 0 1.68.76 1.68 1.696 0 .932-.75 1.69-1.67 1.69zm-21.65 2.49h21.65c.922 0 1.673.758 1.673 1.69 0 .936-.75 1.693-1.673 1.693H5.177c-.926 0-1.676-.757-1.676-1.693 0-.932.75-1.69 1.68-1.69zm21.65 9.254H5.177c-.926 0-1.676-.756-1.676-1.688 0-.94.75-1.7 1.68-1.7h21.65c.93 0 1.68.75 1.68 1.69 0 .93-.75 1.68-1.67 1.68zm0 5.873H5.177c-.926 0-1.676-.756-1.676-1.69 0-.934.75-1.69 1.68-1.69h21.65c.93 0 1.68.756 1.68 1.69 0 .934-.75 1.69-1.67 1.69zm0 0" fill="#fff"/><path d="M26.827 49.383H5.177c-.926 0-1.676-.757-1.676-1.69 0-.935.75-1.693 1.68-1.693h21.65c.93 0 1.68.76 1.68 1.696 0 .932-.75 1.69-1.67 1.69zm-21.65 2.49h21.65c.922 0 1.673.758 1.673 1.69 0 .936-.75 1.693-1.673 1.693H5.177c-.926 0-1.676-.757-1.676-1.693 0-.932.75-1.69 1.68-1.69zm21.65 9.254H5.177c-.926 0-1.676-.756-1.676-1.688 0-.94.75-1.7 1.68-1.7h21.65c.93 0 1.68.75 1.68 1.69 0 .93-.75 1.68-1.67 1.68zm0 5.873H5.177C4.25 67 3.5 66.244 3.5 65.31c0-.934.75-1.69 1.676-1.69h21.65c.923 0 1.674.756 1.674 1.69 0 .934-.75 1.69-1.673 1.69zm0 0" fill="#67737B"/><path d="M26.827 9.383H5.177c-.926 0-1.676-.757-1.676-1.69C3.5 6.758 4.25 6 5.18 6h21.65c.923 0 1.674.76 1.674 1.695 0 .932-.75 1.69-1.672 1.69zm-21.65 2.49h21.65c.922 0 1.673.758 1.673 1.69 0 .936-.75 1.693-1.673 1.693H5.177c-.926 0-1.676-.757-1.676-1.693 0-.932.75-1.69 1.68-1.69zm21.65 9.254H5.177c-.926 0-1.676-.756-1.676-1.688 0-.94.75-1.7 1.68-1.7h21.65c.93 0 1.68.75 1.68 1.69 0 .93-.75 1.68-1.67 1.68zm0 5.873H5.177C4.25 27 3.5 26.244 3.5 25.31c0-.934.75-1.69 1.676-1.69h21.65c.923 0 1.674.756 1.674 1.69 0 .934-.75 1.69-1.673 1.69zm0 0" fill="#3A434E"/></g></svg>