<svg width="32" height="232" viewBox="0 0 32 232" xmlns="http://www.w3.org/2000/svg"><g fill="none"><path d="M19.97 137.186c-.285.277-.64.436-.998.424.36.18.69.77.69.77s1.31 2.256-1.114 2.877c.035.114 1.33.735 1.074 1.64-.256.907-1.854 1.453-1.854 1.453s1.04.66.622 1.443c-.385.725-1.744 1.193-1.744 1.193L7.243 147c-.296 0-.88-.94-1.558-.432L5 135.253s.286.018.465.006c1.996-.1 3.907-3.24 3.907-3.24s2.85-.03 3.235-.03c1.89 0 2.488 1.47 1.592 1.47 1.1 0-.47.1-.47.1s1.92-.02 3.68-.02l.11-.02h7.67c.99 0 1.79.81 1.79 1.81s-.81 1.82-1.8 1.82h-5.23z" fill="#206FAC"/><path d="M25.204 97.186H19.97c-.285.277-.64.436-.998.424.36.18.69.77.69.77s1.31 2.256-1.114 2.877c.035.114 1.33.735 1.074 1.64-.256.907-1.854 1.453-1.854 1.453s1.04.66.622 1.443c-.385.725-1.744 1.193-1.744 1.193L7.243 107c-.296 0-.88-.94-1.558-.432L5 95.253s.286.018.465.006c1.996-.1 3.907-3.24 3.907-3.24s2.85-.02 3.235-.02c1.89 0 2.488 1.47 1.592 1.47 1.1 0-.47.1-.47.1s1.92-.02 3.68-.02l.11-.02h7.67c.99 0 1.79.82 1.79 1.82s-.81 1.82-1.8 1.82" fill="#fff"/><path d="M25.204 57.186H19.97c-.285.277-.64.436-.998.424.36.18.69.77.69.77s1.31 2.256-1.114 2.877c.035.114 1.33.735 1.074 1.64-.256.907-1.854 1.453-1.854 1.453s1.04.66.622 1.443c-.385.725-1.744 1.193-1.744 1.193L7.243 67c-.296 0-.88-.94-1.558-.432L5 55.253s.286.018.465.006c1.996-.1 3.907-3.24 3.907-3.24s2.85-.02 3.235-.02c1.89 0 2.488 1.47 1.592 1.47 1.1 0-.47.1-.47.1s1.92-.02 3.68-.02l.11-.02h7.67c.99 0 1.79.82 1.79 1.82s-.81 1.82-1.8 1.82" fill="#67737B"/><path d="M25.204 17.186H19.97c-.285.277-.64.436-.998.424.36.18.69.77.69.77s1.31 2.256-1.114 2.877c.035.114 1.33.735 1.074 1.64-.256.907-1.854 1.453-1.854 1.453s1.04.66.622 1.443c-.385.725-1.744 1.193-1.744 1.193L7.243 27c-.296 0-.88-.94-1.558-.432L5 15.253s.286.018.465.006c1.996-.1 3.907-3.24 3.907-3.24s2.85-.02 3.235-.02c1.89 0 2.488 1.47 1.592 1.47 1.1 0-.47.1-.47.1s1.92-.02 3.68-.02l.11-.02h7.67c.99 0 1.79.82 1.79 1.82s-.81 1.82-1.8 1.82" fill="#3A434E"/></g></svg>