<svg width="32" height="232" viewBox="0 0 32 232" xmlns="http://www.w3.org/2000/svg"><g fill="none"><path d="M12.82 132.506c1.796 0 2.365 1.392 1.513 1.392 1.054 0-.446.098-.446.098s1.83-.018 3.508-.018l.11-.013h7.3c.946 0 1.71.77 1.71 1.713 0 .944-.764 1.71-1.71 1.71h-4.98c-.263.252-.586.4-.918.4h-.034c.345.168.657.725.657.725s1.246 2.123-1.06 2.71c.033.105 1.266.69 1.023 1.543-.242.852-1.764 1.368-1.764 1.368s.98.62.59 1.36c-.37.68-1.66 1.12-1.66 1.12l-8.95.014c-.23 0-.61-.546-1.09-.546-.13 0-.26.04-.4.142l-.65-10.654.31.008.13-.003c1.9-.09 3.72-3.044 3.72-3.044s2.71-.02 3.08-.02m0-1.47c-.37 0-3.1.03-3.1.03l-.82.01-.43.7c-.68 1.08-1.88 2.31-2.54 2.35h-.28L4 134l.1 1.66.82 13.37 1.736-1.284c.248.172.597.36 1.055.36l8.96-.012h.24l.23-.08c.44-.147 1.9-.713 2.49-1.822.28-.512.33-1.038.22-1.525.47-.37.9-.86 1.08-1.496.17-.59.11-1.14-.16-1.68.17-.21.29-.43.38-.63.3-.71.26-1.42.12-1.99h3.57c1.76 0 3.19-1.43 3.19-3.19s-1.43-3.19-3.19-3.19h-7.3l-.21.01-1.42.01c-.51-.82-1.58-1.47-3.05-1.47" fill="#206FAC"/><path d="M12.82 92.506c1.796 0 2.365 1.392 1.513 1.392 1.054 0-.446.098-.446.098s1.83-.018 3.508-.018l.11-.013h7.3c.946 0 1.71.77 1.71 1.713 0 .944-.764 1.71-1.71 1.71h-4.98c-.263.252-.586.4-.918.4h-.034c.345.168.657.725.657.725s1.246 2.123-1.06 2.71c.033.105 1.266.69 1.023 1.543-.242.852-1.764 1.368-1.764 1.368s.98.62.59 1.36c-.37.68-1.66 1.12-1.66 1.12l-8.95.014c-.23 0-.61-.546-1.09-.546-.13 0-.26.04-.4.142L5.57 95.57l.315.008.127-.003c1.9-.09 3.72-3.044 3.72-3.044s2.712-.02 3.08-.02m0-1.47c-.37 0-3.094.03-3.094.03l-.816.01-.428.7c-.674 1.08-1.88 2.31-2.534 2.35h-.28L4 94l.1 1.66.82 13.37 1.736-1.284c.248.172.597.36 1.055.36l8.96-.012h.24l.23-.08c.44-.147 1.9-.713 2.49-1.822.28-.51.33-1.032.22-1.52.47-.37.9-.86 1.08-1.495.17-.586.11-1.145-.16-1.676.17-.21.29-.43.38-.63.3-.71.26-1.42.12-1.99h3.57c1.76 0 3.19-1.43 3.19-3.19s-1.43-3.19-3.19-3.19h-7.3l-.21.01-1.42.01c-.51-.82-1.58-1.47-3.05-1.47" fill="#fff"/><path d="M12.82 52.506c1.796 0 2.365 1.392 1.513 1.392 1.054 0-.446.098-.446.098s1.83-.018 3.508-.018l.11-.013h7.3c.946 0 1.71.77 1.71 1.713 0 .944-.764 1.71-1.71 1.71h-4.98c-.263.252-.586.4-.918.4h-.034c.345.168.657.725.657.725s1.246 2.123-1.06 2.71c.033.105 1.266.69 1.023 1.543-.242.852-1.764 1.368-1.764 1.368s.98.62.59 1.36c-.37.68-1.66 1.12-1.66 1.12l-8.95.014c-.23 0-.61-.546-1.09-.546-.13 0-.26.04-.4.142L5.57 55.57l.315.008.127-.003c1.9-.09 3.72-3.044 3.72-3.044s2.712-.02 3.08-.02m0-1.47c-.37 0-3.094.03-3.094.03l-.816.01-.428.7c-.674 1.08-1.88 2.31-2.534 2.35h-.28L4 54l.1 1.66.82 13.37 1.736-1.284c.248.172.597.36 1.055.36l8.96-.012h.24l.23-.08c.44-.147 1.9-.713 2.49-1.822.28-.51.33-1.032.22-1.52.47-.37.9-.86 1.08-1.495.17-.586.11-1.145-.16-1.676.17-.21.29-.43.38-.63.3-.71.26-1.42.12-1.99h3.57c1.76 0 3.19-1.43 3.19-3.19s-1.43-3.19-3.19-3.19h-7.3l-.21.01-1.42.01c-.51-.82-1.58-1.47-3.05-1.47" fill="#67737B"/><path d="M12.82 12.506c1.796 0 2.365 1.392 1.513 1.392 1.054 0-.446.098-.446.098s1.83-.018 3.508-.018l.11-.013h7.3c.946 0 1.71.77 1.71 1.713 0 .944-.764 1.71-1.71 1.71h-4.98c-.263.252-.586.4-.918.4h-.034c.345.168.657.725.657.725s1.246 2.123-1.06 2.71c.033.105 1.266.69 1.023 1.543-.242.852-1.764 1.368-1.764 1.368s.98.62.59 1.36c-.37.68-1.66 1.12-1.66 1.12l-8.95.014c-.23 0-.61-.546-1.09-.546-.13 0-.26.04-.4.142L5.57 15.57l.315.008.127-.003c1.9-.09 3.72-3.044 3.72-3.044s2.712-.02 3.08-.02m0-1.47c-.37 0-3.094.03-3.094.03l-.816.01-.428.7c-.674 1.08-1.88 2.31-2.534 2.35h-.28L4 14l.1 1.66.82 13.37 1.736-1.284c.248.172.597.36 1.055.36l8.96-.012h.24l.23-.08c.44-.147 1.9-.713 2.49-1.822.28-.51.33-1.032.22-1.52.47-.37.9-.86 1.08-1.495.17-.586.11-1.145-.16-1.676.17-.21.29-.43.38-.63.3-.71.26-1.42.12-1.99h3.57c1.76 0 3.19-1.43 3.19-3.19s-1.43-3.19-3.19-3.19h-7.3l-.21.01-1.42.01c-.51-.82-1.58-1.47-3.05-1.47" fill="#3A434E"/></g></svg>