<svg width="32" height="232" viewBox="0 0 32 232" xmlns="http://www.w3.org/2000/svg"><g fill="none"><path d="M16 127.82c-.623 0-1.283.485-1.503.67l-9.975 7.438v10.038c0 1.714 1.317 3.06 2.996 3.06h6.304v-8.308c0-.35.288-.632.642-.632h3.02c.354 0 .642.283.642.632v8.307h6.356c1.654 0 2.998-1.323 2.998-2.948v-10.15l-9.952-7.417c-.317-.257-.94-.69-1.527-.69zm9.727 18.257c0 .676-.56 1.223-1.245 1.223H19.88v-6.582c0-1.3-1.076-2.358-2.396-2.358h-3.02c-1.32 0-2.396 1.06-2.396 2.358v6.582h-4.55c-.708 0-1.24-.573-1.24-1.334v-9.18l9.31-6.95c.11-.09.29-.208.41-.268.115.058.295.175.444.294l9.286 6.924v9.29zm5.254-10.938c-.01-.1-.04-.2-.1-.29-.06-.12-.14-.22-.25-.31l-3.37-2.5v-4.03c0-1.02-.8-1.84-1.8-1.84h-2.09c-.93 0-1.68.72-1.78 1.65l-4.63-3.44c-.29-.22-.69-.38-.98-.38-.37 0-.76.26-.92.38L1.38 134.54c-.2.153-.33.37-.363.62-.035.248.03.495.185.694.09.12.218.203.35.264.128.082.27.14.42.14.164 0 .33-.05.47-.157l.073-.06.02-.01L16 126.05l13.474 10c.166.122.366.186.573.186.3 0 .58-.14.76-.37.155-.2.22-.45.182-.7l-.01-.03zm0 0" fill="#206FAC"/><path d="M16 87.82c-.623 0-1.283.485-1.503.67l-9.975 7.438v10.038c0 1.714 1.317 3.06 2.996 3.06h6.304v-8.308c0-.35.288-.632.642-.632h3.02c.354 0 .642.283.642.632v8.307h6.356c1.654 0 2.998-1.323 2.998-2.948v-10.15l-9.952-7.417c-.317-.257-.94-.69-1.527-.69zm9.727 18.257c0 .676-.56 1.223-1.245 1.223H19.88v-6.582c0-1.3-1.076-2.358-2.396-2.358h-3.02c-1.32 0-2.396 1.06-2.396 2.358v6.582h-4.55c-.708 0-1.24-.573-1.24-1.334v-9.18l9.31-6.95c.11-.09.29-.208.41-.268.115.058.295.175.444.294l9.286 6.924v9.29zM30.98 95.14c-.013-.1-.047-.198-.1-.286-.063-.116-.146-.22-.257-.303l-3.373-2.5v-4.02c0-1.01-.806-1.84-1.8-1.84h-2.09c-.93 0-1.688.73-1.78 1.66l-4.626-3.43c-.296-.22-.697-.37-.983-.38-.36 0-.76.27-.92.38L1.38 94.55c-.202.152-.33.37-.367.62-.035.247.03.494.185.693.092.12.218.202.352.263.127.082.268.14.418.14.165 0 .33-.052.47-.157l.074-.06.02-.01L16 86.04l13.474 10c.166.123.366.187.573.187.3 0 .58-.135.76-.37.155-.2.22-.446.182-.694l-.01-.03zm0 0" fill="#fff"/><path d="M16 47.82c-.623 0-1.283.485-1.503.67l-9.975 7.438v10.038c0 1.714 1.317 3.06 2.996 3.06h6.304v-8.308c0-.35.288-.632.642-.632h3.02c.354 0 .642.283.642.632v8.307h6.356c1.654 0 2.998-1.323 2.998-2.948v-10.15l-9.952-7.417c-.317-.257-.94-.69-1.527-.69zm9.727 18.257c0 .676-.56 1.223-1.245 1.223H19.88v-6.582c0-1.3-1.076-2.358-2.396-2.358h-3.02c-1.32 0-2.396 1.06-2.396 2.358V67.3h-4.55c-.708 0-1.24-.573-1.24-1.334v-9.18l9.31-6.95c.11-.09.29-.208.41-.268.115.058.295.175.444.294l9.286 6.924v9.29zM30.98 55.14c-.013-.1-.047-.198-.1-.286-.063-.116-.146-.22-.257-.303l-3.373-2.5v-4.02c0-1.01-.806-1.84-1.8-1.84h-2.09c-.93 0-1.688.73-1.78 1.66l-4.626-3.43c-.296-.22-.697-.37-.983-.38-.36 0-.76.27-.92.38L1.38 54.55c-.202.152-.33.37-.367.62-.035.247.03.494.185.693.092.12.218.202.352.263.127.082.268.14.418.14.165 0 .33-.052.47-.157l.074-.06.02-.01L16 46.04l13.474 10c.166.123.366.187.573.187.3 0 .58-.135.76-.37.155-.2.22-.446.182-.694l-.01-.03zm0 0" fill="#67737B"/><path d="M16 7.82c-.623 0-1.283.485-1.503.67l-9.975 7.438v10.038c0 1.714 1.317 3.06 2.996 3.06h6.304v-8.308c0-.35.288-.632.642-.632h3.02c.354 0 .642.283.642.632v8.307h6.356c1.654 0 2.998-1.323 2.998-2.948v-10.15L17.528 8.51c-.317-.257-.94-.69-1.527-.69zm9.727 18.257c0 .676-.56 1.223-1.245 1.223H19.88v-6.582c0-1.3-1.076-2.358-2.396-2.358h-3.02c-1.32 0-2.396 1.06-2.396 2.358V27.3h-4.55c-.708 0-1.24-.573-1.24-1.334v-9.18l9.31-6.95c.11-.09.29-.208.41-.268.115.058.295.175.444.294l9.286 6.924v9.29zM30.98 15.14c-.013-.1-.047-.198-.1-.286-.063-.116-.146-.22-.257-.303l-3.373-2.5V8.03c0-1.014-.806-1.842-1.8-1.842h-2.09c-.93 0-1.688.727-1.78 1.653l-4.626-3.43c-.296-.22-.697-.37-.983-.38-.36 0-.76.27-.92.38L1.38 14.55c-.202.152-.33.37-.367.62-.035.247.03.494.185.693.092.12.218.202.352.263.127.082.268.14.418.14.165 0 .33-.052.47-.157l.074-.06.02-.01L16 6.04l13.474 10c.166.123.366.187.573.187.3 0 .58-.135.76-.37.155-.2.22-.446.182-.694l-.01-.03zm0 0" fill="#3A434E"/></g></svg>