<svg width="32" height="232" viewBox="0 0 32 232" xmlns="http://www.w3.org/2000/svg"><g fill="none"><path d="M28.937 181.515c-.238-.28-.583-.428-.987-.428H6.705v-10.72c0-1.296-.947-2.368-2.106-2.368-1.17 0-2.1 1.07-2.1 2.36v16.27c0 1.3.93 2.35 2.1 2.35 1.15 0 2.1-1.06 2.1-2.36v-1.51h18.41v1.45c0 1.3.95 2.35 2.11 2.35s2.11-1.05 2.11-2.35v-3.53c0-.11.09-1-.4-1.55m-20.12-4.14c0 .97.8 1.73 1.75 1.73H28.8c2.32-4.18-1.836-7.31-2.953-7.31h-7.174c-.21-.75-.883-1.29-1.687-1.29-.95 0-1.756.76-1.766 1.74v3.36h-4.65c-.958 0-1.754.78-1.754 1.76m2.454-2.71c1.56 0 2.824-1.29 2.824-2.87s-1.266-2.88-2.825-2.88c-1.55 0-2.83 1.292-2.83 2.872s1.27 2.867 2.82 2.867" fill="#BF538D"/><path d="M28.937 141.515c-.238-.28-.583-.428-.987-.428H6.705v-10.72c0-1.296-.947-2.368-2.106-2.368-1.17 0-2.1 1.07-2.1 2.36v16.27c0 1.3.93 2.35 2.1 2.35 1.15 0 2.1-1.06 2.1-2.36v-1.51h18.41v1.45c0 1.3.95 2.35 2.11 2.35s2.11-1.05 2.11-2.35v-3.53c0-.11.09-1-.4-1.55m-20.12-4.14c0 .97.8 1.73 1.75 1.73H28.8c2.32-4.18-1.836-7.31-2.953-7.31h-7.174c-.21-.75-.883-1.29-1.687-1.29-.95 0-1.756.76-1.766 1.74v3.36h-4.65c-.958 0-1.754.78-1.754 1.76m2.454-2.71c1.56 0 2.824-1.29 2.824-2.87s-1.266-2.88-2.825-2.88c-1.55 0-2.83 1.292-2.83 2.872s1.27 2.867 2.82 2.867" fill="#206FAC"/><path d="M28.937 101.515c-.238-.28-.583-.428-.987-.428H6.705v-10.72C6.705 89.07 5.758 88 4.6 88c-1.164 0-2.1 1.07-2.1 2.367v16.277c0 1.302.936 2.356 2.1 2.356 1.158 0 2.105-1.053 2.105-2.356v-1.508h18.41v1.456c0 1.298.95 2.352 2.11 2.352 1.158 0 2.108-1.053 2.108-2.352v-3.533c0-.11.092-1-.397-1.55M8.813 97.37c0 .97.804 1.736 1.753 1.736h18.24c2.32-4.176-1.837-7.307-2.954-7.307h-7.174c-.21-.75-.883-1.29-1.687-1.29-.95 0-1.75.76-1.76 1.74v3.36h-4.66c-.95 0-1.75.77-1.75 1.75m2.46-2.71c1.56 0 2.83-1.29 2.83-2.87s-1.27-2.88-2.83-2.88c-1.55 0-2.83 1.29-2.83 2.87 0 1.57 1.28 2.86 2.83 2.86" fill="#fff"/><path d="M28.937 61.515c-.238-.28-.583-.428-.987-.428H6.705v-10.72C6.705 49.07 5.758 48 4.6 48c-1.164 0-2.1 1.07-2.1 2.367v16.277C2.5 67.946 3.436 69 4.6 69c1.158 0 2.105-1.053 2.105-2.356v-1.508h18.41v1.456c0 1.298.95 2.352 2.11 2.352 1.158 0 2.108-1.053 2.108-2.352V63.06c0-.11.092-.995-.397-1.545M8.813 57.37c0 .97.804 1.736 1.753 1.736h18.24c2.32-4.176-1.837-7.307-2.954-7.307h-7.174c-.21-.75-.883-1.29-1.687-1.29-.95 0-1.75.76-1.76 1.74v3.36h-4.66c-.95 0-1.75.77-1.75 1.75m2.46-2.71c1.56 0 2.83-1.29 2.83-2.87s-1.27-2.88-2.83-2.88c-1.55 0-2.83 1.29-2.83 2.87 0 1.57 1.28 2.86 2.83 2.86" fill="#67747C"/><path d="M28.937 21.515c-.238-.28-.583-.428-.987-.428H6.705v-10.72C6.705 9.07 5.758 8 4.6 8c-1.164 0-2.1 1.07-2.1 2.367v16.277C2.5 27.946 3.436 29 4.6 29c1.158 0 2.105-1.053 2.105-2.356v-1.508h18.41v1.456c0 1.298.95 2.352 2.11 2.352 1.158 0 2.108-1.053 2.108-2.352V23.06c0-.11.092-.995-.397-1.545M8.813 17.37c0 .97.804 1.736 1.753 1.736h18.24c2.32-4.176-1.837-7.307-2.954-7.307h-7.174c-.21-.75-.883-1.29-1.687-1.29-.95 0-1.75.76-1.76 1.74v3.36h-4.66c-.95 0-1.75.77-1.75 1.75m2.46-2.71c1.56 0 2.83-1.29 2.83-2.87S12.84 8.9 11.28 8.9c-1.55 0-2.83 1.296-2.83 2.876 0 1.577 1.273 2.864 2.823 2.864" fill="#3B444F"/></g></svg>