<svg width="32" height="232" viewBox="0 0 32 232" xmlns="http://www.w3.org/2000/svg"><g fill="none"><path d="M28.772 135.327c-.946-1.688-2.625-2.82-3.596-2.82H16.42c-.463-.755-1.266-1.228-2.17-1.228-.605 0-1.163.24-1.614.63-.654-.77-1.6-1.27-2.662-1.27-.608 0-1.172.17-1.675.46v-.86c0-1.79-1.31-3.24-2.91-3.24s-2.9 1.45-2.9 3.24v15.53c0 1.78 1.3 3.23 2.89 3.23 1.6 0 2.9-1.45 2.9-3.23v-.46h15.25v.41c0 1.77 1.3 3.22 2.9 3.22s2.9-1.45 2.9-3.23v-3.37c.03-.75-.12-1.37-.41-1.84.79-1.74.74-3.56-.18-5.19zm-18.8-2.724c.93 0 1.69.792 1.69 1.766 0 .96-.76 1.75-1.69 1.75-.928 0-1.684-.79-1.684-1.75 0-.98.756-1.77 1.685-1.77zm17.5 13.116c0 .69-.46 1.26-1.02 1.26-.564 0-1.022-.57-1.022-1.27v-2.37H6.413v2.42c0 .7-.458 1.26-1.018 1.26-.557 0-1.01-.57-1.01-1.27v-15.53c0-.7.46-1.28 1.01-1.28s1.018.58 1.018 1.28v4.02l-.01.1.01.1v4.22l-.01.1.01.1v2.54h20.714c.1 0 .165.02.22.09.034.04.15.22.124.82v3.37zm-.134-6.25H8.978c-.414 0-.69-.27-.69-.68 0-.39.308-.7.715-.7l.86-.03v-.01l.11.01c1.97 0 3.572-1.67 3.572-3.71l-.03-.33h.01c.005-.41.363-.8.724-.8.31 0 .58.2.66.51l.19.71 10.03-.01c.3.05 1.51.77 2.14 2.12.44.93.45 1.9.05 2.89zm0 0" fill="#206FAC"/><path d="M28.772 95.327c-.946-1.688-2.625-2.82-3.596-2.82H16.42c-.463-.755-1.266-1.228-2.17-1.228-.605 0-1.163.24-1.614.63-.654-.77-1.6-1.27-2.662-1.27-.608 0-1.172.17-1.675.46v-.86C8.3 88.45 6.99 87 5.39 87 3.8 87 2.5 88.455 2.5 90.242v15.53C2.5 107.55 3.8 109 5.396 109c1.6 0 2.903-1.45 2.903-3.23v-.46h15.24v.41c0 1.778 1.3 3.228 2.9 3.228s2.9-1.45 2.9-3.23v-3.366c.03-.75-.12-1.366-.41-1.84.79-1.733.74-3.557-.18-5.184zm-18.8-2.724c.93 0 1.69.792 1.69 1.766 0 .96-.76 1.75-1.69 1.75-.928 0-1.684-.79-1.684-1.75 0-.98.756-1.77 1.685-1.77zm17.5 13.116c0 .69-.46 1.26-1.02 1.26-.564 0-1.022-.57-1.022-1.27v-2.37H6.413v2.42c0 .7-.458 1.26-1.018 1.26-.557 0-1.01-.57-1.01-1.27V90.24c0-.694.46-1.28 1.01-1.28s1.018.586 1.018 1.28v4.023l-.01.105.01.1v4.22l-.01.106.01.106v2.54h20.714c.1 0 .165.02.22.084.034.045.15.22.124.817v3.37zm-.134-6.25H8.978c-.414 0-.69-.27-.69-.68 0-.39.308-.7.715-.7l.86-.03v-.01l.11.01c1.97 0 3.572-1.67 3.572-3.71l-.03-.33h.01c.005-.41.363-.8.724-.8.31 0 .58.2.66.51l.19.71 10.03-.01c.3.05 1.51.77 2.14 2.12.44.93.45 1.9.05 2.89zm0 0" fill="#fff"/><path d="M28.772 55.327c-.946-1.688-2.625-2.82-3.596-2.82H16.42c-.463-.755-1.266-1.228-2.17-1.228-.605 0-1.163.24-1.614.63-.654-.77-1.6-1.27-2.662-1.27-.608 0-1.172.17-1.675.46v-.86C8.3 48.45 6.99 47 5.39 47 3.8 47 2.5 48.455 2.5 50.242v15.53C2.5 67.55 3.8 69 5.396 69c1.6 0 2.903-1.45 2.903-3.23v-.46h15.24v.41c0 1.778 1.3 3.228 2.9 3.228s2.9-1.45 2.9-3.23v-3.366c.03-.75-.12-1.366-.41-1.84.79-1.733.74-3.557-.18-5.184zm-18.8-2.724c.93 0 1.69.792 1.69 1.766 0 .96-.76 1.75-1.69 1.75-.928 0-1.684-.79-1.684-1.75 0-.98.756-1.77 1.685-1.77zm17.5 13.116c0 .69-.46 1.26-1.02 1.26-.564 0-1.022-.57-1.022-1.27v-2.37H6.413v2.42c0 .7-.458 1.26-1.018 1.26-.557 0-1.01-.57-1.01-1.27V50.24c0-.694.46-1.28 1.01-1.28s1.018.586 1.018 1.28v4.023l-.01.105.01.1v4.22l-.01.106.01.106v2.54h20.714c.1 0 .165.02.22.084.034.045.15.22.124.817v3.37zm-.134-6.25H8.978c-.414 0-.69-.27-.69-.68 0-.39.308-.7.715-.7l.86-.03v-.01l.11.01c1.97 0 3.572-1.67 3.572-3.71l-.03-.33h.01c.005-.41.363-.8.724-.8.31 0 .58.2.66.51l.19.71 10.03-.01c.3.05 1.51.77 2.14 2.12.44.93.45 1.9.05 2.89zm0 0" fill="#67747C"/><path d="M28.772 15.327c-.946-1.688-2.625-2.82-3.596-2.82H16.42c-.463-.755-1.266-1.228-2.17-1.228-.605 0-1.163.24-1.614.63-.654-.77-1.6-1.27-2.662-1.27-.608 0-1.172.17-1.675.46v-.86C8.3 8.45 6.99 7 5.39 7 3.8 7 2.5 8.455 2.5 10.242v15.53C2.5 27.55 3.8 29 5.396 29c1.6 0 2.903-1.45 2.903-3.23v-.46h15.24v.41c0 1.778 1.3 3.228 2.9 3.228s2.9-1.45 2.9-3.23v-3.366c.03-.75-.12-1.366-.41-1.84.79-1.733.74-3.557-.18-5.184zm-18.8-2.724c.93 0 1.69.792 1.69 1.766 0 .96-.76 1.75-1.69 1.75-.928 0-1.684-.79-1.684-1.75 0-.98.756-1.77 1.685-1.77zm17.5 13.116c0 .69-.46 1.26-1.02 1.26-.564 0-1.022-.57-1.022-1.27v-2.37H6.413v2.42c0 .7-.458 1.26-1.018 1.26-.557 0-1.01-.57-1.01-1.27V10.24c0-.694.46-1.28 1.01-1.28s1.018.586 1.018 1.28v4.023l-.01.105.01.1v4.22l-.01.106.01.106v2.54h20.714c.1 0 .165.02.22.084.034.045.15.22.124.817v3.37zm-.134-6.25H8.978c-.414 0-.69-.27-.69-.68 0-.39.308-.7.715-.7l.86-.03v-.01l.11.01c1.97 0 3.572-1.67 3.572-3.71l-.03-.33h.01c.005-.41.363-.8.724-.8.31 0 .58.2.66.51l.19.71 10.03-.01c.3.05 1.51.77 2.14 2.12.44.93.45 1.9.05 2.89zm0 0" fill="#3B444F"/><path d="M28.772 175.327c-.946-1.688-2.625-2.82-3.596-2.82H16.42c-.463-.755-1.266-1.228-2.17-1.228-.605 0-1.163.24-1.614.63-.654-.77-1.6-1.27-2.662-1.27-.608 0-1.172.17-1.675.46v-.86c0-1.79-1.31-3.24-2.91-3.24s-2.9 1.45-2.9 3.24v15.53c0 1.78 1.3 3.23 2.89 3.23 1.6 0 2.9-1.45 2.9-3.23v-.46h15.25v.41c0 1.77 1.3 3.22 2.9 3.22s2.9-1.45 2.9-3.23v-3.37c.03-.75-.12-1.37-.41-1.84.79-1.74.74-3.56-.18-5.19zm-18.8-2.724c.93 0 1.69.792 1.69 1.766 0 .96-.76 1.75-1.69 1.75-.928 0-1.684-.79-1.684-1.75 0-.98.756-1.77 1.685-1.77zm17.5 13.116c0 .69-.46 1.26-1.02 1.26-.564 0-1.022-.57-1.022-1.27v-2.37H6.413v2.42c0 .7-.458 1.26-1.018 1.26-.557 0-1.01-.57-1.01-1.27v-15.53c0-.7.46-1.28 1.01-1.28s1.018.58 1.018 1.28v4.02l-.01.1.01.1v4.22l-.01.1.01.1v2.54h20.714c.1 0 .165.02.22.09.034.04.15.22.124.82v3.37zm-.134-6.25H8.978c-.414 0-.69-.27-.69-.68 0-.39.308-.7.715-.7l.86-.03v-.01l.11.01c1.97 0 3.572-1.67 3.572-3.71l-.03-.33h.01c.005-.41.363-.8.724-.8.31 0 .58.2.66.51l.19.71 10.03-.01c.3.05 1.51.77 2.14 2.12.44.93.45 1.9.05 2.89zm0 0" fill="#BF538D"/></g></svg>