<svg width="22" height="32" viewBox="0 0 22 32" xmlns="http://www.w3.org/2000/svg"><g fill="none"><path d="M15.484 29.984c0 1.105-2.015 2-4.5 2-2.486 0-4.5-.895-4.5-2 0-1.104 2.014-2 4.5-2 2.485 0 4.5.896 4.5 2" fill-opacity=".2" fill="#1D508D"/><path d="M10.983.016c6.076 0 11 4.362 11 10.92 0 6.407-5.55 9.16-8.505 13.256-2.418 3.346-2.495 5.824-2.495 5.824s-.018-2.49-2.494-5.824c-3.04-4.097-8.51-6.66-8.51-13.257 0-6.56 4.92-10.92 11-10.92" fill="#BF538D"/><path d="M16.985 11.952c-.112-.13-.268-.195-.46-.195H6.673V6.854c0-.594-.437-1.08-.978-1.08-.54 0-.974.486-.974 1.08v7.442c0 .592.44 1.078.98 1.078s.98-.486.98-1.078V13.6h8.54v.665c0 .597.44 1.078.98 1.078s.98-.48.98-1.078v-1.612c.01-.044.04-.45-.18-.7m-9.33-1.9c0 .452.38.798.82.798h8.46c1.08-1.91-.85-3.34-1.37-3.34h-3.33c-.09-.34-.41-.58-.78-.58-.44 0-.81.35-.82.8v1.53H8.47c-.444 0-.816.35-.816.8m1.14-1.24c.723 0 1.31-.59 1.31-1.31 0-.72-.587-1.3-1.31-1.3-.725 0-1.31.58-1.31 1.3 0 .73.585 1.31 1.31 1.31" fill="#fff"/></g></svg>