<svg width="32" height="232" viewBox="0 0 32 232" xmlns="http://www.w3.org/2000/svg"><g fill="none"><path d="M28.947 146.424l-.568-4.744c-.28-2.09-.75-2.893-2.7-2.918v-.004H16.6c-.79 0-1.53.537-1.896 1.44l-1.39 3.4-4.695-4.048c-.31-.31-1.22-.77-1.59-.89v-6.665l3.09-4.42c.1-.258.2-.534 0-.73 0 0-.28-.236-.53-.416l-.52-.29c-.26-.12-.53-.24-.86-.35-.1-.04-.4-.12-.44-.12-.29-.07-.47-.11-.88-.12l-.63.01c-.39 0-.54.04-.85.1l-.4.09c-.28.09-.63.25-.84.36-.03.02-.38.24-.49.33-.35.28-.5.52-.5.52-.21.18-.29.54-.18.79l3.14 4.24-.04 6.88-.45.42c-.994.98-.46 2.14.67 3.28l6.47 5.68c.39.42 1.365.71 1.98.71h11.96c1.87 0 2.4-1.12 2.166-2.57zm-14.298-9.636h2.86c1.01.72 2.23 1.142 3.54 1.142s2.53-.422 3.55-1.142h3.04c.52 0 .81-.432.64-.962l-.8-4.66v-.15c0-2.388-1.11-4.34-2.79-5.764-1.49-1.648-5.27-1.695-7.24.014-1.73 1.242-2.87 3.354-2.87 5.75l.01.213-.62 4.59c-.17.53.12.96.64.96zm2.11-6.563h8.57c.04.26.07.52.08.793-.01 2.582-1.96 4.672-4.37 4.676-2.41-.004-4.37-2.094-4.37-4.676 0-.273.03-.534.07-.793zm0 0" fill="#206FAC"/><path d="M28.947 106.424l-.568-4.744c-.28-2.09-.75-2.893-2.7-2.918v-.004H16.6c-.79 0-1.53.537-1.896 1.44l-1.39 3.4L8.62 99.55c-.304-.31-1.215-.77-1.585-.89v-6.665l3.092-4.42c.103-.258.203-.534.006-.73 0 0-.275-.236-.53-.416l-.52-.29c-.262-.12-.532-.24-.856-.35-.097-.04-.394-.12-.435-.12-.29-.07-.472-.11-.877-.12l-.622.01c-.392 0-.54.04-.852.1l-.39.09c-.27.09-.63.25-.83.36-.03.02-.38.24-.49.33-.35.28-.49.52-.49.52-.21.18-.28.54-.17.79L6.2 92l-.04 6.88-.45.423c-.99.98-.46 2.143.67 3.28l6.47 5.685c.39.42 1.37.72 1.99.72H26.8c1.87 0 2.403-1.12 2.167-2.573zM14.65 96.788h2.86c1.018.72 2.234 1.142 3.547 1.142 1.312 0 2.532-.422 3.55-1.142h3.043c.52 0 .813-.432.648-.962l-.8-4.66.005-.15h.002c0-2.388-1.107-4.34-2.79-5.764-1.487-1.648-5.267-1.695-7.24.014-1.728 1.242-2.866 3.354-2.868 5.75l.012.213-.62 4.59c-.17.52.12.96.64.96zm2.117-6.563h8.575c.045.26.075.52.08.793-.01 2.582-1.958 4.672-4.367 4.676-2.412-.004-4.363-2.094-4.365-4.676 0-.273.035-.534.075-.793zm0 0" fill="#fff"/><path d="M28.947 66.424l-.568-4.744c-.28-2.09-.75-2.893-2.7-2.918v-.004H16.6c-.79 0-1.53.537-1.896 1.44l-1.39 3.4L8.62 59.55c-.304-.31-1.215-.77-1.585-.89v-6.665l3.092-4.42c.103-.258.203-.534.006-.73 0 0-.275-.236-.53-.416l-.52-.29c-.262-.12-.532-.24-.856-.35-.097-.04-.394-.12-.435-.12-.29-.07-.472-.11-.877-.12l-.622.01c-.392 0-.54.04-.852.1l-.39.09c-.27.09-.63.25-.83.36-.03.02-.38.24-.49.33-.35.28-.49.52-.49.52-.21.18-.28.54-.17.79L6.2 52l-.04 6.88-.45.423c-.99.98-.46 2.143.67 3.28l6.47 5.685c.39.42 1.37.72 1.99.72H26.8c1.87 0 2.403-1.12 2.167-2.573zM14.65 56.788h2.86c1.018.72 2.234 1.142 3.547 1.142 1.312 0 2.532-.422 3.55-1.142h3.043c.52 0 .813-.432.648-.962l-.8-4.66.005-.15h.002c0-2.388-1.107-4.34-2.79-5.764-1.487-1.648-5.267-1.695-7.24.014-1.728 1.242-2.866 3.354-2.868 5.75l.012.213-.62 4.59c-.17.52.12.96.64.96zm2.117-6.563h8.575c.045.26.075.52.08.793-.01 2.582-1.958 4.672-4.367 4.676-2.412-.004-4.363-2.094-4.365-4.676 0-.273.035-.534.075-.793zm0 0" fill="#67737B"/><path d="M28.947 26.424l-.568-4.744c-.28-2.09-.75-2.893-2.7-2.918v-.004H16.6c-.79 0-1.53.537-1.896 1.44l-1.39 3.4L8.62 19.55c-.304-.31-1.215-.77-1.585-.89v-6.665l3.092-4.42c.103-.258.203-.534.006-.73 0 0-.275-.236-.53-.416l-.52-.29c-.262-.12-.532-.24-.856-.35-.097-.04-.394-.12-.435-.12-.29-.07-.472-.11-.877-.12l-.622.01c-.392 0-.54.04-.852.1l-.39.09c-.27.09-.63.25-.83.36-.03.02-.38.24-.49.33-.35.28-.49.52-.49.52-.21.18-.28.54-.17.79L6.2 12l-.04 6.88-.45.423c-.99.98-.46 2.143.67 3.28l6.47 5.685c.39.42 1.37.72 1.99.72H26.8c1.87 0 2.403-1.12 2.167-2.573zM14.65 16.788h2.86c1.018.72 2.234 1.142 3.547 1.142 1.312 0 2.532-.422 3.55-1.142h3.043c.52 0 .813-.432.648-.962l-.8-4.66.005-.15h.002c0-2.388-1.107-4.34-2.79-5.764-1.487-1.648-5.267-1.695-7.24.014-1.728 1.242-2.866 3.354-2.868 5.75l.012.213-.62 4.59c-.17.52.12.96.64.96zm2.117-6.563h8.575c.045.26.075.52.08.793-.01 2.582-1.958 4.672-4.367 4.676-2.412-.004-4.363-2.094-4.365-4.676 0-.273.035-.534.075-.793zm0 0" fill="#3A434E"/></g></svg>