<svg width="32" height="232" viewBox="0 0 32 232" xmlns="http://www.w3.org/2000/svg"><g fill="none"><path d="M19.19 142.078c-2.8 0-5.073-2.27-5.073-5.072 0-2.8 2.272-5.072 5.072-5.072 2.79 0 5.07 2.272 5.07 5.072 0 2.8-2.28 5.072-5.07 5.072zm8.728 5.934H4.038c-1.403 0-2.538-1.137-2.538-2.536v-16.94c0-1.4 1.135-2.536 2.537-2.536h23.88c1.403 0 2.536 1.136 2.536 2.536v16.94c0 1.4-1.133 2.536-2.535 2.536zM9.11 128.066H5.1c-.848 0-1.534.685-1.534 1.534 0 .846.686 1.53 1.533 1.53h4.01c.84 0 1.53-.684 1.53-1.53 0-.85-.69-1.534-1.53-1.534zm10.08.374c-4.733 0-8.567 3.835-8.567 8.566 0 4.733 3.834 8.567 8.566 8.567 4.73 0 8.56-3.834 8.56-8.567 0-4.73-3.84-8.566-8.57-8.566zm0 0" fill="#206FAC"/><path d="M19.19 102.078c-2.8 0-5.073-2.27-5.073-5.072 0-2.8 2.272-5.072 5.072-5.072 2.79 0 5.07 2.272 5.07 5.072 0 2.8-2.28 5.072-5.07 5.072zm8.728 5.934H4.038c-1.403 0-2.538-1.137-2.538-2.536v-16.94C1.5 87.136 2.635 86 4.037 86h23.88c1.403 0 2.536 1.136 2.536 2.536v16.94c0 1.4-1.133 2.536-2.535 2.536zM9.11 88.066H5.1c-.848 0-1.534.685-1.534 1.534 0 .846.686 1.53 1.533 1.53h4.01c.84 0 1.53-.684 1.53-1.53 0-.85-.69-1.534-1.53-1.534zm10.08.374c-4.733 0-8.567 3.835-8.567 8.566 0 4.733 3.834 8.567 8.566 8.567 4.73 0 8.56-3.834 8.56-8.567 0-4.73-3.84-8.566-8.57-8.566zm0 0" fill="#fff"/><path d="M19.19 62.078c-2.8 0-5.073-2.27-5.073-5.072 0-2.8 2.272-5.072 5.072-5.072 2.79 0 5.07 2.272 5.07 5.072 0 2.8-2.28 5.072-5.07 5.072zm8.728 5.934H4.038c-1.403 0-2.538-1.137-2.538-2.536v-16.94C1.5 47.136 2.635 46 4.037 46h23.88c1.403 0 2.536 1.136 2.536 2.536v16.94c0 1.4-1.133 2.536-2.535 2.536zM9.11 48.066H5.1c-.848 0-1.534.685-1.534 1.534 0 .846.686 1.53 1.533 1.53h4.01c.84 0 1.53-.684 1.53-1.53 0-.85-.69-1.534-1.53-1.534zm10.08.374c-4.733 0-8.567 3.835-8.567 8.566 0 4.733 3.834 8.567 8.566 8.567 4.73 0 8.56-3.834 8.56-8.567 0-4.73-3.84-8.566-8.57-8.566zm0 0" fill="#67737B"/><path d="M19.19 22.078c-2.8 0-5.073-2.27-5.073-5.072 0-2.8 2.272-5.072 5.072-5.072 2.79 0 5.07 2.272 5.07 5.072 0 2.8-2.28 5.072-5.07 5.072zm8.728 5.934H4.038c-1.403 0-2.538-1.137-2.538-2.536V8.536C1.5 7.136 2.635 6 4.037 6h23.88c1.403 0 2.536 1.136 2.536 2.536v16.94c0 1.4-1.133 2.536-2.535 2.536zM9.11 8.066H5.1c-.848 0-1.534.685-1.534 1.534 0 .846.686 1.53 1.533 1.53h4.01c.84 0 1.53-.684 1.53-1.53 0-.85-.69-1.534-1.53-1.534zm10.08.374c-4.733 0-8.567 3.835-8.567 8.566 0 4.733 3.834 8.567 8.566 8.567 4.73 0 8.56-3.834 8.56-8.567 0-4.73-3.84-8.566-8.57-8.566zm0 0" fill="#3A434E"/></g></svg>