<svg width="32" height="232" viewBox="0 0 32 232" xmlns="http://www.w3.org/2000/svg"><g fill="none"><path d="M28.45 149H3.554C1.594 149 0 147.393 0 145.414v-17.828C0 125.61 1.594 124 3.554 124H28.45c1.958 0 3.55 1.61 3.55 3.586v17.828c0 1.98-1.592 3.586-3.55 3.586zM3.554 125.834c-.96 0-1.737.786-1.737 1.752v17.828c0 .97.778 1.752 1.737 1.752H28.45c.958 0 1.736-.783 1.736-1.752v-17.828c0-.966-.778-1.752-1.735-1.752H3.56zM20 129.564c-3.793 0-6.87 3.106-6.87 6.936 0 3.832 3.077 6.937 6.87 6.937 3.795 0 6.87-3.105 6.87-6.937 0-3.83-3.075-6.936-6.87-6.936zm0 1.835c2.79 0 5.055 2.28 5.055 5.1 0 2.81-2.265 5.1-5.056 5.1-2.79 0-5.05-2.29-5.05-5.1 0-2.82 2.26-5.1 5.05-5.1zm-9.024-2.7h-5.26c-.7 0-1.268.55-1.268 1.23 0 .67.567 1.22 1.267 1.22h5.26c.7 0 1.268-.55 1.268-1.23 0-.68-.568-1.23-1.267-1.23zm0 0" fill="#206FAC"/><path d="M28.45 109H3.554C1.594 109 0 107.393 0 105.414V87.586C0 85.61 1.594 84 3.554 84H28.45c1.96 0 3.55 1.61 3.55 3.586v17.828c0 1.98-1.592 3.586-3.55 3.586zM3.554 85.834c-.96 0-1.737.786-1.737 1.752v17.828c0 .97.778 1.752 1.737 1.752H28.45c.958 0 1.736-.783 1.736-1.752V87.586c0-.966-.778-1.752-1.735-1.752H3.56zM20 89.564c-3.793 0-6.87 3.106-6.87 6.936 0 3.832 3.077 6.937 6.87 6.937 3.795 0 6.87-3.105 6.87-6.937 0-3.83-3.075-6.936-6.87-6.936zm0 1.835c2.79 0 5.055 2.28 5.055 5.1 0 2.81-2.265 5.1-5.056 5.1-2.79 0-5.05-2.29-5.05-5.1 0-2.82 2.26-5.1 5.05-5.1zm-9.024-2.7h-5.26c-.7 0-1.268.55-1.268 1.23 0 .67.567 1.22 1.267 1.22h5.26c.7 0 1.268-.55 1.268-1.23 0-.68-.568-1.23-1.267-1.23zm0 0" fill="#fff"/><path d="M28.45 69H3.554C1.594 69 0 67.393 0 65.414V47.586C0 45.61 1.594 44 3.554 44H28.45c1.96 0 3.55 1.61 3.55 3.586v17.828C32 67.394 30.408 69 28.45 69zM3.554 45.834c-.96 0-1.737.786-1.737 1.752v17.828c0 .97.778 1.752 1.737 1.752H28.45c.958 0 1.736-.783 1.736-1.752V47.586c0-.966-.778-1.752-1.735-1.752H3.56zM20 49.564c-3.793 0-6.87 3.106-6.87 6.936 0 3.832 3.077 6.937 6.87 6.937 3.795 0 6.87-3.105 6.87-6.937 0-3.83-3.075-6.936-6.87-6.936zm0 1.835c2.79 0 5.055 2.28 5.055 5.1 0 2.81-2.265 5.1-5.056 5.1-2.79 0-5.05-2.29-5.05-5.1 0-2.82 2.26-5.1 5.05-5.1zm-9.024-2.7h-5.26c-.7 0-1.268.55-1.268 1.23 0 .67.567 1.22 1.267 1.22h5.26c.7 0 1.268-.55 1.268-1.23 0-.68-.568-1.23-1.267-1.23zm0 0" fill="#67737B"/><path d="M28.45 29H3.554C1.594 29 0 27.393 0 25.414V7.586C0 5.61 1.594 4 3.554 4H28.45C30.41 4 32 5.61 32 7.586v17.828C32 27.394 30.408 29 28.45 29zM3.554 5.834c-.96 0-1.737.786-1.737 1.752v17.828c0 .97.778 1.752 1.737 1.752H28.45c.958 0 1.736-.783 1.736-1.752V7.586c0-.966-.778-1.752-1.735-1.752H3.56zM20 9.564c-3.793 0-6.87 3.106-6.87 6.936 0 3.832 3.077 6.937 6.87 6.937 3.795 0 6.87-3.105 6.87-6.937 0-3.83-3.075-6.936-6.87-6.936zm0 1.835c2.79 0 5.055 2.28 5.055 5.1 0 2.81-2.265 5.1-5.056 5.1-2.79 0-5.05-2.29-5.05-5.1 0-2.82 2.26-5.1 5.05-5.1zm-9.024-2.7h-5.26c-.7 0-1.268.55-1.268 1.23 0 .67.567 1.22 1.267 1.22h5.26c.7 0 1.268-.55 1.268-1.23 0-.68-.568-1.23-1.267-1.23zm0 0" fill="#3A434E"/></g></svg>