<svg width="22" height="32" viewBox="0 0 22 32" xmlns="http://www.w3.org/2000/svg"><g fill="none"><path d="M15.484 29.716c0 1.104-2.015 2-4.5 2-2.486 0-4.5-.896-4.5-2 0-1.105 2.014-2 4.5-2 2.485 0 4.5.895 4.5 2" fill-opacity=".2" fill="#1D508D"/><path d="M10.982.02c6.076 0 11.002 4.362 11.002 10.918 0 6.41-5.55 9.16-8.504 13.258-2.42 3.346-2.498 5.823-2.498 5.823s-.017-2.49-2.493-5.83c-3.05-4.1-8.51-6.66-8.51-13.26C-.02 4.37 4.9.01 10.98.01" fill="#3B444F"/><path d="M10.984 4.556c-.818 0-1.54.722-1.54 1.5 0 .837.722 1.578 1.54 1.578.852 0 1.54-.723 1.54-1.577 0-.797-.72-1.5-1.54-1.5m2.782 12v-.75c-.307-.015-.58-.094-.836-.187-.307-.11-.463-.36-.463-.703V8.854l-.117-.11-4.147.192v.778c.305.015.75.14.955.265.272.17.407.45.444.78v4.25c0 .34-.135.59-.46.68-.24.06-.513.09-.822.11v.75h5.446" fill="#fff"/></g></svg>