<svg width="32" height="232" viewBox="0 0 32 232" xmlns="http://www.w3.org/2000/svg"><g fill="none"><path d="M16 123c-7.168 0-13 5.832-13 12.998C3 143.166 8.832 149 16 149c7.167 0 13-5.834 13-13.002C29 128.832 23.167 123 16 123m0 2.482c1.365 0 2.564 1.168 2.564 2.497 0 1.42-1.14 2.62-2.564 2.62-1.36 0-2.563-1.24-2.563-2.63 0-1.3 1.203-2.5 2.563-2.5m4.634 19.98h-9.066v-1.25c.512-.03.965-.08 1.36-.19.542-.16.77-.58.77-1.14v-7.08c-.062-.55-.286-1.02-.735-1.31-.346-.21-1.084-.42-1.594-.44v-1.3l6.9-.31.19.18v10.09c0 .57.25.98.77 1.17.42.16.88.28 1.39.31v1.25" fill="#206FAC"/><path d="M16 83C8.832 83 3 88.832 3 95.998 3 103.166 8.832 109 16 109c7.167 0 13-5.834 13-13.002C29 88.832 23.167 83 16 83m0 2.482c1.365 0 2.564 1.168 2.564 2.497 0 1.42-1.14 2.62-2.564 2.62-1.36 0-2.563-1.24-2.563-2.63 0-1.3 1.203-2.5 2.563-2.5m4.634 19.98h-9.066v-1.25c.512-.03.965-.08 1.36-.19.542-.16.77-.58.77-1.14V95.8c-.062-.546-.286-1.013-.735-1.302-.346-.21-1.084-.415-1.594-.44v-1.3l6.9-.31.19.18v10.09c0 .574.25.986.77 1.17.42.158.88.286 1.39.314v1.25" fill="#fff"/><path d="M16 43C8.832 43 3 48.832 3 55.998 3 63.166 8.832 69 16 69c7.167 0 13-5.834 13-13.002C29 48.832 23.167 43 16 43m0 2.482c1.365 0 2.564 1.168 2.564 2.497 0 1.42-1.14 2.62-2.564 2.62-1.36 0-2.563-1.24-2.563-2.63 0-1.3 1.203-2.5 2.563-2.5m4.634 19.98h-9.066V64.2c.512-.03.965-.08 1.36-.184.542-.154.77-.574.77-1.14V55.8c-.062-.546-.286-1.013-.735-1.302-.346-.21-1.084-.415-1.594-.44v-1.3l6.9-.31.19.18v10.1c0 .573.25.985.77 1.17.42.157.88.285 1.39.313v1.25" fill="#67747C"/><path d="M16 3C8.832 3 3 8.832 3 15.998 3 23.166 8.832 29 16 29c7.167 0 13-5.834 13-13.002C29 8.832 23.167 3 16 3m0 2.482c1.365 0 2.564 1.168 2.564 2.497 0 1.42-1.14 2.62-2.564 2.62-1.36 0-2.563-1.24-2.563-2.63 0-1.29 1.203-2.49 2.563-2.49m4.634 19.98h-9.066v-1.25c.512-.03.965-.08 1.36-.19.542-.15.77-.57.77-1.14V15.8c-.062-.54-.286-1.01-.735-1.3-.346-.21-1.084-.41-1.594-.44v-1.3l6.9-.31.19.18v10.09c0 .58.25.99.77 1.17.42.16.88.29 1.39.32v1.25" fill="#3B444F"/></g></svg>