<svg width="32" height="232" viewBox="0 0 32 232" xmlns="http://www.w3.org/2000/svg"><g fill="none"><path d="M16 123c-7.17 0-13 5.834-13 13.002C3 143.168 8.83 149 16 149c7.166 0 13-5.832 13-12.998C29 128.834 23.166 123 16 123zm0 24.016c-6.078 0-11.018-4.942-11.018-11.014 0-6.078 4.94-11.018 11.018-11.018 6.072 0 11.014 4.94 11.014 11.018 0 6.072-4.942 11.014-11.014 11.014zm-3.633-3.856c.42-.02.793-.064 1.117-.15.444-.127.627-.47.627-.936v-5.795c-.04-.45-.23-.84-.6-1.07-.28-.17-.88-.34-1.3-.37v-1.07l5.66-.26.16.15v8.26c0 .47.21.81.63.96.35.12.73.23 1.14.25v1.02h-7.43v-1.03zm3.63-11.146c-1.112 0-2.097-1.01-2.097-2.15 0-1.06.985-2.046 2.098-2.046 1.115 0 2.1.957 2.1 2.045 0 1.166-.934 2.15-2.1 2.15zm0 0" fill="#206FAC"/><path d="M16 83C8.83 83 3 88.834 3 96.002 3 103.168 8.83 109 16 109c7.166 0 13-5.832 13-12.998C29 88.834 23.166 83 16 83zm0 24.016c-6.078 0-11.018-4.942-11.018-11.014 0-6.078 4.94-11.018 11.018-11.018 6.072 0 11.014 4.94 11.014 11.018 0 6.072-4.942 11.014-11.014 11.014zm-3.633-3.856c.42-.02.793-.064 1.117-.15.444-.127.627-.47.627-.936V96.28c-.04-.448-.23-.833-.6-1.065-.28-.172-.88-.342-1.3-.363V93.79l5.66-.26.16.15v8.265c0 .47.21.81.63.96.35.128.73.234 1.14.255v1.024h-7.43v-1.024zm3.63-11.146c-1.112 0-2.097-1.01-2.097-2.15 0-1.06.985-2.046 2.098-2.046 1.115 0 2.1.957 2.1 2.045 0 1.166-.934 2.15-2.1 2.15zm0 0" fill="#fff"/><path d="M16 43C8.83 43 3 48.834 3 56.002 3 63.168 8.83 69 16 69c7.166 0 13-5.832 13-12.998C29 48.834 23.166 43 16 43zm0 24.016c-6.078 0-11.018-4.942-11.018-11.014 0-6.078 4.94-11.018 11.018-11.018 6.072 0 11.014 4.94 11.014 11.018 0 6.072-4.942 11.014-11.014 11.014zm-3.633-3.856c.42-.02.793-.064 1.117-.15.444-.127.627-.47.627-.936V56.28c-.04-.448-.23-.833-.6-1.065-.28-.172-.88-.342-1.3-.363V53.79l5.66-.26.16.15v8.265c0 .47.21.81.63.96.35.128.73.234 1.14.255v1.024h-7.43V63.16zm3.63-11.146c-1.112 0-2.097-1.01-2.097-2.15 0-1.06.985-2.046 2.098-2.046 1.115 0 2.1.957 2.1 2.045 0 1.166-.934 2.15-2.1 2.15zm0 0" fill="#67747C"/><path d="M16 3C8.83 3 3 8.834 3 16.002 3 23.168 8.83 29 16 29c7.166 0 13-5.832 13-12.998C29 8.834 23.166 3 16 3zm0 24.016c-6.078 0-11.018-4.942-11.018-11.014C4.982 9.924 9.922 4.984 16 4.984c6.072 0 11.014 4.94 11.014 11.018 0 6.072-4.942 11.014-11.014 11.014zm-3.633-3.856c.42-.02.793-.064 1.117-.15.444-.127.627-.47.627-.936V16.28c-.04-.448-.23-.833-.6-1.065-.28-.172-.88-.342-1.3-.363V13.79l5.66-.26.16.15v8.265c0 .47.21.81.63.96.35.128.73.234 1.14.255v1.024h-7.43V23.16zm3.63-11.146c-1.112 0-2.097-1.01-2.097-2.15 0-1.06.985-2.046 2.098-2.046 1.115 0 2.1.957 2.1 2.045 0 1.166-.934 2.15-2.1 2.15zm0 0" fill="#3B444F"/></g></svg>