<svg width="32" height="232" viewBox="0 0 32 232" xmlns="http://www.w3.org/2000/svg"><g fill="none"><path d="M24.462 14.307h-1.915c.14.542.222 1.11.222 1.693 0 3.738-3.03 6.77-6.77 6.77-3.74 0-6.77-3.032-6.77-6.77 0-.583.08-1.15.22-1.693H7.54v9.31c0 .465.378.844.847.844h15.23c.47 0 .847-.37.847-.84v-9.31zm0-5.922c0-.468-.378-.846-.846-.846h-2.54c-.466 0-.845.37-.845.84v2.54c0 .47.38.85.85.85h2.54c.47 0 .85-.38.85-.85V8.38zM16 11.77c-2.336 0-4.23 1.892-4.23 4.23 0 2.336 1.894 4.23 4.23 4.23 2.336 0 4.23-1.894 4.23-4.23 0-2.338-1.894-4.23-4.23-4.23zM24.462 27H7.538C6.138 27 5 25.864 5 24.46V7.54C5 6.136 6.137 5 7.538 5h16.924C25.865 5 27 6.137 27 7.54v16.92c0 1.404-1.135 2.54-2.538 2.54z" fill="#3A434E"/><path d="M24.462 54.307h-1.915c.14.542.222 1.11.222 1.693 0 3.738-3.03 6.77-6.77 6.77-3.74 0-6.77-3.032-6.77-6.77 0-.583.08-1.15.22-1.693H7.54v9.31c0 .465.378.844.847.844h15.23c.47 0 .847-.37.847-.84v-9.31zm0-5.922c0-.468-.378-.846-.846-.846h-2.54c-.466 0-.845.37-.845.84v2.54c0 .47.38.85.85.85h2.54c.47 0 .85-.38.85-.85v-2.54zM16 51.77c-2.336 0-4.23 1.892-4.23 4.23 0 2.336 1.894 4.23 4.23 4.23 2.336 0 4.23-1.894 4.23-4.23 0-2.338-1.894-4.23-4.23-4.23zM24.462 67H7.538C6.138 67 5 65.864 5 64.46V47.54C5 46.136 6.137 45 7.538 45h16.924C25.865 45 27 46.137 27 47.54v16.92c0 1.404-1.135 2.54-2.538 2.54z" fill="#67737B"/><path d="M24.462 94.307h-1.915c.14.542.222 1.11.222 1.693 0 3.738-3.03 6.77-6.77 6.77-3.74 0-6.77-3.032-6.77-6.77 0-.583.08-1.15.22-1.693H7.54v9.31c0 .465.378.844.847.844h15.23c.47 0 .847-.37.847-.84v-9.31zm0-5.922c0-.468-.378-.846-.846-.846h-2.54c-.466 0-.845.37-.845.84v2.54c0 .47.38.85.85.85h2.54c.47 0 .85-.38.85-.85v-2.54zM16 91.77c-2.336 0-4.23 1.892-4.23 4.23 0 2.336 1.894 4.23 4.23 4.23 2.336 0 4.23-1.894 4.23-4.23 0-2.338-1.894-4.23-4.23-4.23zM24.462 107H7.538C6.138 107 5 105.864 5 104.46V87.54C5 86.136 6.137 85 7.538 85h16.924C25.865 85 27 86.137 27 87.54v16.92c0 1.404-1.135 2.54-2.538 2.54z" fill="#fff"/><path d="M24.462 134.307h-1.915c.14.542.222 1.11.222 1.693 0 3.738-3.03 6.77-6.77 6.77-3.74 0-6.77-3.032-6.77-6.77 0-.583.08-1.15.22-1.693H7.54v9.31c0 .465.378.844.847.844h15.23c.47 0 .847-.37.847-.84v-9.31zm0-5.922c0-.468-.378-.846-.846-.846h-2.54c-.466 0-.845.37-.845.84v2.54c0 .47.38.85.85.85h2.54c.47 0 .85-.38.85-.85v-2.54zM16 131.77c-2.336 0-4.23 1.892-4.23 4.23 0 2.336 1.894 4.23 4.23 4.23 2.336 0 4.23-1.894 4.23-4.23 0-2.338-1.894-4.23-4.23-4.23zM24.462 147H7.538C6.138 147 5 145.864 5 144.46v-16.92c0-1.403 1.137-2.54 2.538-2.54h16.924c1.403 0 2.538 1.137 2.538 2.54v16.92c0 1.404-1.135 2.54-2.538 2.54z" fill="#206FAC"/><path d="M24.462 174.307h-1.915c.14.542.222 1.11.222 1.693 0 3.738-3.03 6.77-6.77 6.77-3.74 0-6.77-3.032-6.77-6.77 0-.583.08-1.15.22-1.693H7.54v9.31c0 .465.378.844.847.844h15.23c.47 0 .847-.37.847-.84v-9.31zm0-5.922c0-.468-.378-.846-.846-.846h-2.54c-.466 0-.845.37-.845.84v2.54c0 .47.38.85.85.85h2.54c.47 0 .85-.38.85-.85v-2.54zM16 171.77c-2.336 0-4.23 1.892-4.23 4.23 0 2.336 1.894 4.23 4.23 4.23 2.336 0 4.23-1.894 4.23-4.23 0-2.338-1.894-4.23-4.23-4.23zM24.462 187H7.538C6.138 187 5 185.864 5 184.46v-16.92c0-1.403 1.137-2.54 2.538-2.54h16.924c1.403 0 2.538 1.137 2.538 2.54v16.92c0 1.404-1.135 2.54-2.538 2.54z" fill="#3F729B"/></g></svg>