<svg width="32" height="232" viewBox="0 0 32 232" xmlns="http://www.w3.org/2000/svg"><g fill="none"><path d="M16.01 124c-.618 0-1.11.737-.82 1.792-5.86.53-9.697 3.546-11.834 7.827-.716 1.43-1.408 3.1-1.352 4.99.46-.46.58-.96 1.072-1.36.617-.51 1.443-.76 2.27-.76.863 0 1.724.27 2.348.82.35.3.682 1.3 1.23 1.3l.065-.01c.32-.05.55-.7.73-.91.58-.7 1.52-1.27 2.7-1.27l.33.01c.9.08 2.23.66 2.42 1.42.18.75 0 1.86 0 2.78v5.56c0 .9.14 1.97-.06 2.72-.26.94-1.12 1.41-1.98 1.41-.81 0-1.62-.42-1.92-1.24-.27-.74-.08-1.42-.73-1.54l-.29-.03c-1.53 0-.12 2.86.17 3.2.56.66 1.6 1.25 2.73 1.25h.03c2.05-.01 3.44-1.57 3.6-3.35.31-3.33-.23-7.15 0-10.84.56-.93 1.55-1.31 2.57-1.31 1.15 0 2.33.49 2.95 1.25.31.37.32.85.76.85h.03c.48-.02.87-1.06 1.24-1.36.63-.52 1.45-.77 2.26-.77.87 0 1.73.28 2.35.83.48.41.56.92 1.07 1.3-.32-3.77-1.98-6.74-4.16-8.85-2.21-2.14-5.22-3.66-9.08-4.03-.026-.47.06-1.04-.05-1.42-.23-.22-.477-.32-.7-.32l7.56 9.83" fill="#206FAC"/><path d="M16.01 84c-.618 0-1.11.737-.82 1.792-5.86.53-9.697 3.546-11.834 7.827-.716 1.43-1.408 3.1-1.352 4.99.46-.46.58-.96 1.072-1.36.617-.51 1.443-.76 2.27-.76.863 0 1.724.27 2.348.82.35.3.682 1.3 1.23 1.3l.065-.01c.32-.05.55-.7.73-.91.58-.7 1.52-1.27 2.7-1.27l.33.01c.9.08 2.23.66 2.42 1.42.18.75 0 1.86 0 2.78v5.56c0 .9.14 1.97-.06 2.72-.26.94-1.12 1.41-1.98 1.41-.81 0-1.62-.42-1.92-1.24-.27-.74-.08-1.42-.73-1.54l-.29-.03c-1.53 0-.12 2.86.17 3.2.56.66 1.6 1.25 2.73 1.25h.03c2.05-.01 3.44-1.57 3.6-3.35.31-3.33-.23-7.15 0-10.84.56-.93 1.55-1.31 2.57-1.31 1.15 0 2.33.49 2.95 1.25.31.37.32.85.76.85h.03c.48-.02.87-1.06 1.24-1.36.63-.52 1.45-.77 2.26-.77.87 0 1.73.28 2.35.83.48.41.56.92 1.07 1.3-.32-3.77-1.98-6.74-4.16-8.85-2.21-2.14-5.22-3.66-9.08-4.03-.026-.47.06-1.04-.05-1.42-.23-.22-.477-.32-.7-.32l7.56 9.83" fill="#fff"/><path d="M16.01 44c-.618 0-1.11.737-.82 1.792-5.86.53-9.697 3.546-11.834 7.827-.716 1.43-1.408 3.1-1.352 4.99.46-.46.58-.96 1.072-1.36.617-.51 1.443-.76 2.27-.76.863 0 1.724.27 2.348.82.35.3.682 1.3 1.23 1.3l.065-.01c.32-.05.55-.7.73-.91.58-.7 1.52-1.27 2.7-1.27l.33.01c.9.08 2.23.66 2.42 1.42.18.75 0 1.86 0 2.78v5.56c0 .9.14 1.97-.06 2.72-.26.94-1.12 1.41-1.98 1.41-.81 0-1.62-.42-1.92-1.24-.27-.74-.08-1.42-.73-1.54l-.29-.03c-1.53 0-.12 2.86.17 3.2.56.66 1.6 1.25 2.73 1.25h.03c2.05-.01 3.44-1.57 3.6-3.35.31-3.33-.23-7.15 0-10.84.56-.93 1.55-1.32 2.57-1.32 1.15 0 2.34.494 2.95 1.253.31.37.33.85.76.85h.03c.48-.02.87-1.06 1.24-1.36.63-.52 1.45-.77 2.26-.77.86 0 1.72.28 2.35.83.47.41.56.92 1.07 1.3-.32-3.77-1.99-6.74-4.17-8.85-2.21-2.14-5.21-3.66-9.07-4.03-.027-.47.06-1.04-.05-1.42-.23-.22-.48-.32-.7-.32l7.55 9.83" fill="#67737B"/><path d="M16.01 4c-.618 0-1.11.737-.82 1.792-5.86.53-9.697 3.546-11.834 7.827-.716 1.43-1.408 3.1-1.352 4.99.46-.46.58-.96 1.072-1.36.617-.51 1.443-.76 2.27-.76.863 0 1.724.27 2.348.82.35.3.682 1.3 1.23 1.3l.065-.01c.32-.05.55-.7.73-.91.58-.7 1.52-1.27 2.7-1.27l.33.01c.9.08 2.23.66 2.42 1.42.18.75 0 1.86 0 2.78v5.56c0 .9.14 1.97-.06 2.72-.26.94-1.12 1.41-1.98 1.41-.81 0-1.62-.42-1.92-1.24-.27-.74-.08-1.42-.73-1.54l-.29-.03c-1.53 0-.12 2.86.17 3.2.56.66 1.6 1.25 2.73 1.25h.03c2.05-.01 3.44-1.57 3.6-3.35.31-3.33-.23-7.15 0-10.84.56-.93 1.55-1.32 2.57-1.32 1.15 0 2.34.494 2.95 1.253.31.37.33.85.76.85h.03c.48-.02.87-1.06 1.24-1.36.63-.52 1.45-.77 2.26-.77.86 0 1.72.28 2.35.83.47.41.56.92 1.07 1.3-.32-3.77-1.99-6.74-4.17-8.85-2.2-2.13-5.21-3.65-9.07-4.02-.02-.47.06-1.04-.05-1.42-.23-.217-.477-.317-.7-.317l7.555 9.83" fill="#3A434E"/></g></svg>