<svg width="32" height="232" viewBox="0 0 32 232" xmlns="http://www.w3.org/2000/svg"><g fill="none"><path d="M16.287 125.57l.277.028c3.195.31 5.873 1.492 7.964 3.516.84.81 1.792 1.968 2.513 3.512l-.47-.018c-1.28 0-2.5.422-3.45 1.197l-.1.09c-.98-.79-2.32-1.26-3.7-1.26-1.31 0-2.47.434-3.33 1.217-.9-.785-2.16-1.18-3.06-1.26-.17-.016-.33-.022-.5-.022-1.3 0-2.55.474-3.52 1.316-.94-.817-2.2-1.268-3.55-1.268l-.41.014.09-.173c2.04-4.08 5.51-6.37 10.34-6.81l.95-.09m-.3-3.57c-.62 0-1.11.73-.82 1.79-5.86.53-9.7 3.54-11.83 7.83-.71 1.43-1.41 3.1-1.35 4.99.46-.46.58-.96 1.07-1.36.62-.51 1.45-.76 2.27-.76.86 0 1.73.27 2.35.82.35.3.68 1.3 1.23 1.3l.07-.01c.33-.04.56-.69.73-.9.59-.7 1.52-1.27 2.71-1.27l.34.01c.905.08 2.23.66 2.426 1.41.184.75 0 1.86 0 2.78v5.56c0 .9.14 1.97-.06 2.72-.25.94-1.115 1.41-1.97 1.41-.81 0-1.62-.42-1.92-1.24-.265-.74-.075-1.42-.73-1.54l-.29-.03c-1.52 0-.12 2.86.174 3.2.56.66 1.593 1.25 2.733 1.25h.026c2.05-.01 3.44-1.56 3.602-3.34.31-3.33-.23-7.15 0-10.84.56-.93 1.55-1.31 2.57-1.31 1.15 0 2.33.495 2.95 1.25.3.378.32.85.76.85h.024c.484-.01.87-1.05 1.24-1.36.63-.52 1.45-.77 2.27-.77.86 0 1.72.28 2.35.83.47.41.56.92 1.07 1.3-.32-3.763-1.986-6.74-4.166-8.843-2.21-2.134-5.21-3.65-9.07-4.027-.02-.47.06-1.04-.05-1.42-.23-.22-.473-.32-.7-.32" fill="#206FAC"/><path d="M16.287 85.57l.277.028c3.195.31 5.873 1.492 7.964 3.516.84.81 1.792 1.968 2.513 3.512l-.47-.018c-1.28 0-2.5.422-3.45 1.197l-.1.09c-.98-.79-2.32-1.26-3.7-1.26-1.31 0-2.47.434-3.33 1.217-.9-.785-2.16-1.18-3.06-1.26-.17-.016-.33-.022-.5-.022-1.3 0-2.55.474-3.52 1.316-.94-.817-2.2-1.268-3.55-1.268l-.41.014.08-.172c2.04-4.08 5.51-6.368 10.34-6.804l.95-.086M16 82c-.62 0-1.11.738-.82 1.792-5.86.53-9.7 3.546-11.834 7.828-.716 1.435-1.41 3.107-1.353 4.99.46-.46.58-.957 1.07-1.36.617-.507 1.442-.76 2.27-.76.86 0 1.722.274 2.35.82.347.303.68 1.305 1.226 1.305l.06-.004c.33-.04.55-.69.73-.9.58-.7 1.52-1.26 2.7-1.26l.34.02c.9.08 2.23.66 2.42 1.42.18.75 0 1.87 0 2.78v5.56c0 .91.14 1.98-.06 2.73-.25.95-1.12 1.42-1.97 1.42-.81 0-1.62-.41-1.92-1.24-.27-.73-.08-1.41-.73-1.53l-.29-.03c-1.52 0-.12 2.86.17 3.2.56.66 1.59 1.25 2.73 1.25h.02c2.05-.01 3.44-1.57 3.6-3.34.31-3.33-.23-7.15 0-10.83.56-.93 1.55-1.31 2.57-1.31 1.15 0 2.33.5 2.95 1.25.3.37.32.85.76.85h.02c.486-.01.874-1.05 1.24-1.36.635-.52 1.454-.77 2.27-.77.865 0 1.724.28 2.35.83.474.41.56.92 1.07 1.3-.316-3.77-1.984-6.74-4.164-8.85-2.206-2.13-5.21-3.65-9.07-4.03-.024-.46.06-1.04-.055-1.41-.23-.22-.475-.32-.7-.32" fill="#fff"/><path d="M16.287 45.57l.277.028c3.195.31 5.873 1.492 7.964 3.516.84.81 1.792 1.968 2.513 3.512l-.47-.018c-1.28 0-2.5.422-3.45 1.197l-.1.09c-.98-.79-2.32-1.26-3.7-1.26-1.31 0-2.47.434-3.33 1.217-.9-.785-2.16-1.18-3.06-1.26-.17-.016-.33-.022-.5-.022-1.3 0-2.55.474-3.52 1.316-.94-.817-2.2-1.268-3.55-1.268l-.41.014.08-.172c2.04-4.08 5.51-6.368 10.34-6.804l.95-.086M16 42c-.62 0-1.11.738-.82 1.792-5.86.53-9.7 3.546-11.834 7.828-.716 1.435-1.41 3.107-1.353 4.99.46-.46.58-.957 1.07-1.36.617-.507 1.442-.76 2.27-.76.86 0 1.722.274 2.35.82.347.303.68 1.305 1.226 1.305l.06-.004c.33-.04.55-.69.73-.9.58-.7 1.52-1.26 2.7-1.26l.34.02c.9.08 2.23.66 2.42 1.42.18.75 0 1.87 0 2.78v5.56c0 .91.14 1.98-.06 2.73-.25.95-1.12 1.42-1.97 1.42-.81 0-1.62-.41-1.92-1.24-.27-.73-.08-1.41-.73-1.53l-.29-.03c-1.52 0-.12 2.86.17 3.2.56.66 1.59 1.25 2.73 1.25h.02c2.05-.01 3.44-1.57 3.6-3.34.31-3.33-.23-7.15 0-10.83.56-.93 1.55-1.31 2.57-1.31 1.15 0 2.33.5 2.95 1.25.3.37.32.85.76.85h.02c.486-.01.874-1.05 1.24-1.36.635-.52 1.454-.77 2.27-.77.865 0 1.724.28 2.35.83.474.41.56.92 1.07 1.3-.316-3.77-1.984-6.74-4.164-8.85-2.206-2.13-5.21-3.65-9.07-4.03-.024-.46.06-1.04-.055-1.41-.23-.22-.475-.32-.7-.32" fill="#67737B"/><path d="M16.287 5.57l.277.028c3.195.31 5.873 1.492 7.964 3.516.84.81 1.792 1.968 2.513 3.512l-.47-.018c-1.28 0-2.5.422-3.45 1.197l-.1.09c-.98-.79-2.32-1.26-3.7-1.26-1.31 0-2.47.434-3.33 1.217-.9-.785-2.16-1.18-3.06-1.26-.17-.016-.33-.022-.5-.022-1.3 0-2.55.474-3.52 1.316-.94-.817-2.2-1.268-3.55-1.268l-.41.014.08-.172c2.04-4.08 5.51-6.368 10.34-6.804l.95-.086M15.99 2c-.618 0-1.11.738-.82 1.792-5.86.53-9.697 3.546-11.833 7.828-.716 1.435-1.41 3.107-1.353 4.99.46-.46.58-.957 1.072-1.36.618-.507 1.443-.76 2.27-.76.862 0 1.723.274 2.35.82.348.303.68 1.305 1.227 1.305l.067-.004c.328-.04.554-.69.733-.9.587-.7 1.52-1.26 2.704-1.26l.336.02c.905.08 2.23.66 2.426 1.42.18.75 0 1.87 0 2.78v5.56c0 .91.14 1.98-.06 2.73-.25.95-1.12 1.42-1.97 1.42-.81 0-1.62-.41-1.92-1.24-.27-.73-.08-1.41-.73-1.53l-.29-.03c-1.52 0-.12 2.86.17 3.2.56.66 1.59 1.25 2.73 1.25h.02c2.05-.01 3.44-1.57 3.6-3.34.31-3.33-.23-7.15 0-10.83.56-.93 1.55-1.31 2.57-1.31 1.15 0 2.33.5 2.95 1.25.3.37.32.85.76.85h.02c.48-.01.87-1.05 1.24-1.36.63-.52 1.45-.77 2.27-.77.86 0 1.72.28 2.35.83.47.41.56.92 1.07 1.3-.32-3.77-1.99-6.74-4.17-8.85-2.21-2.13-5.21-3.65-9.07-4.03-.02-.46.06-1.04-.06-1.41-.23-.22-.48-.32-.7-.32" fill="#3A434E"/></g></svg>