<svg width="32" height="232" viewBox="0 0 32 232" xmlns="http://www.w3.org/2000/svg"><g fill="none"><path d="M24.323 122H7.606c-1.46 0-2.647 1.183-2.647 2.646v22.008c0 1.46 1.18 2.647 2.64 2.647h16.72c1.46 0 2.64-1.18 2.64-2.64v-22.01c0-1.46-1.19-2.64-2.65-2.64zm-8.36 25.994c-1.125 0-2.035-.91-2.035-2.037 0-1.125.91-2.037 2.035-2.037s2.037.912 2.037 2.037c0 1.127-.912 2.037-2.037 2.037zm7.662-5.773c0 .22-.178.4-.394.4H8.7c-.217 0-.395-.17-.395-.39v-16.21c0-.22.178-.39.395-.39h14.53c.217 0 .395.18.395.4v16.21zm0 0" fill="#206FAC"/><path d="M24.323 82H7.606c-1.46 0-2.647 1.183-2.647 2.646v22.008c0 1.46 1.18 2.647 2.64 2.647h16.72c1.46 0 2.64-1.18 2.64-2.64V84.65c0-1.463-1.19-2.646-2.65-2.646zm-8.36 25.994c-1.125 0-2.035-.91-2.035-2.037 0-1.125.91-2.037 2.035-2.037s2.037.912 2.037 2.037c0 1.127-.912 2.037-2.037 2.037zm7.662-5.773c0 .22-.178.4-.394.4H8.7c-.217 0-.395-.17-.395-.39V86.02c0-.218.178-.394.395-.394h14.53c.217 0 .395.177.395.395v16.21zm0 0" fill="#fff"/><path d="M24.323 42H7.606c-1.46 0-2.647 1.183-2.647 2.646v22.008c0 1.46 1.18 2.647 2.64 2.647h16.72c1.46 0 2.64-1.18 2.64-2.64V44.65c0-1.463-1.19-2.646-2.65-2.646zm-8.36 25.994c-1.125 0-2.035-.91-2.035-2.037 0-1.125.91-2.037 2.035-2.037S18 64.832 18 65.957c0 1.127-.912 2.037-2.037 2.037zm7.662-5.773c0 .22-.178.4-.394.4H8.7c-.217 0-.395-.17-.395-.39V46.02c0-.218.178-.394.395-.394h14.53c.217 0 .395.177.395.395v16.2zm0 0" fill="#67737B"/><path d="M24.323 2H7.606C6.146 2 4.96 3.183 4.96 4.646v22.008c0 1.46 1.185 2.647 2.646 2.647h16.717c1.46 0 2.644-1.18 2.644-2.64V4.65c0-1.47-1.184-2.65-2.644-2.65zm-8.36 25.994c-1.125 0-2.035-.91-2.035-2.037 0-1.125.91-2.037 2.035-2.037S18 24.832 18 25.957c0 1.127-.912 2.037-2.037 2.037zm7.662-5.773c0 .22-.178.4-.394.4H8.7c-.217 0-.395-.17-.395-.39V6.02c0-.22.178-.396.395-.396h14.53c.217 0 .395.178.395.396v16.2zm0 0" fill="#3A434E"/></g></svg>