<svg width="32" height="232" viewBox="0 0 32 232" xmlns="http://www.w3.org/2000/svg"><g fill="none"><path d="M25.604 148.414c-1.158.352-2.755.586-4.233.586-3.11 0-5.67-1.486-5.67-4.687 0-.586.12-1.21.24-1.834l1.92-8.17-2.75-.2.16-2.93 3.48-.9.96-3.99h4.51l-.92 4.22H28l-.12 3.79h-5.63l-1.798 7.97c-.078.31-.2.74-.2 1.17 0 1.29.96 1.72 2.32 1.72.876 0 1.635-.2 2.393-.47l.64 3.71zm-21.604 0L8.833 124h4.873l-4.833 24.414H4zm0 0" fill="#206FAC"/><path d="M25.604 108.414c-1.158.352-2.755.586-4.233.586-3.11 0-5.67-1.486-5.67-4.687 0-.586.12-1.21.24-1.834l1.92-8.17-2.75-.2.16-2.93 3.48-.9.96-3.99h4.51l-.92 4.22H28l-.12 3.79h-5.63l-1.798 7.97c-.078.31-.2.74-.2 1.17 0 1.29.96 1.72 2.32 1.72.876 0 1.635-.2 2.393-.47l.64 3.71zm-21.604 0L8.833 84h4.873l-4.833 24.414H4zm0 0" fill="#fff"/><path d="M25.604 68.414c-1.158.352-2.755.586-4.233.586-3.11 0-5.67-1.486-5.67-4.687 0-.586.12-1.21.24-1.834l1.92-8.17-2.75-.2.16-2.93 3.48-.9.96-3.99h4.51l-.92 4.22H28l-.12 3.79h-5.63l-1.8 7.97c-.078.31-.2.74-.2 1.17 0 1.29.96 1.72 2.32 1.72.876 0 1.635-.2 2.393-.47l.64 3.71zM4 68.414L8.833 44h4.873L8.873 68.414H4zm0 0" fill="#67737B"/><path d="M25.604 28.414c-1.158.352-2.755.586-4.233.586-3.11 0-5.67-1.486-5.67-4.687 0-.586.12-1.21.24-1.834l1.92-8.17-2.75-.2.16-2.93 3.48-.9.96-3.99h4.51l-.92 4.22H28l-.12 3.79h-5.63l-1.8 7.97c-.078.31-.2.74-.2 1.17 0 1.29.96 1.72 2.32 1.72.876 0 1.635-.2 2.393-.47l.64 3.71zM4 28.414L8.833 4h4.873L8.873 28.414H4zm0 0" fill="#3A434E"/></g></svg>