<svg width="32" height="232" viewBox="0 0 32 232" xmlns="http://www.w3.org/2000/svg"><g fill="none"><path d="M31.572 142.14l.428-1.434-1.84-.542.545-1.828-1.444-.422-.54 1.828-1.84-.54-.42 1.435 1.84.538-.54 1.83 1.44.422.55-1.828 1.84.54zM2.957 127.796l-.81-.485-.626 1.03-1.02-.62-.49.81 1.03.62-.62 1.03.81.49.63-1.02 1.04.63.49-.8-1.03-.62.63-1.03zm7.09 14.69c-.14-.257-.253-.526-.336-.803-.05-.186-.25-.293-.44-.237-.18.055-.29.253-.24.44.1.323.23.64.39.94l.05.08c.1.167.31.227.48.135h.01c.18-.1.24-.31.14-.48l-.04-.07zm4.013 2.49c-.34-.044-.664-.11-.97-.192-.188-.053-.385.06-.438.247-.05.19.06.39.25.44.334.09.69.16 1.06.21.08.01.155 0 .22-.04.095-.05.165-.14.18-.26.028-.19-.11-.37-.302-.4zm12.174-3.115l-.922.45c-.178.09-.254.3-.168.48.084.18.297.25.473.17.31-.14.627-.3.937-.46h.01c.17-.09.236-.3.148-.47-.087-.17-.302-.24-.478-.16zm-14.488 2.38c-.282-.16-.543-.35-.774-.56-.144-.13-.37-.12-.504.03-.132.15-.123.37.024.5.267.25.568.46.894.65.112.07.244.06.35 0l.14-.13c.094-.17.04-.38-.13-.48zm4.818.77c-.346.04-.686.05-1.01.06-.195.01-.35.17-.35.36.005.2.165.35.362.35.342 0 .697-.02 1.062-.05l.137-.04c.12-.07.197-.2.186-.34-.02-.19-.19-.34-.38-.32zm7.344-2.06c-.317.14-.637.27-.948.39-.183.08-.273.28-.2.46.072.18.28.27.464.2.317-.12.643-.26.965-.4l.02-.01c.16-.09.23-.28.15-.45-.08-.17-.29-.26-.47-.18zm-4.842 1.64c-.338.08-.674.15-.996.21-.193.04-.322.22-.285.42.035.19.22.32.414.29.33-.06.68-.13 1.03-.21l.08-.03c.13-.07.21-.23.17-.39-.05-.19-.24-.31-.43-.26zm2.453-.71c-.33.11-.66.22-.98.31-.19.06-.3.26-.24.45.05.19.25.29.44.24.32-.1.66-.2 1-.32l.05-.02c.15-.08.22-.26.16-.42-.07-.19-.27-.28-.45-.22zM10.2 127l-.672.005-.394.018c-.195.013-.345.18-.332.374.012.196.182.344.38.332l.362-.02h.645l.17-.05c.11-.06.18-.18.18-.31 0-.2-.16-.36-.35-.36zm1.812 7.834c-.222.234-.443.454-.654.664l-.066.07c-.14.138-.138.362.002.5.114.112.288.13.42.06l.084-.064.068-.067.663-.673c.13-.142.13-.365-.01-.5s-.37-.13-.51.01zm-7.02-7.085l-.533.13-.48.11c-.19.04-.31.23-.27.42.04.19.23.31.43.26l.48-.12.52-.13.09-.03c.13-.08.21-.24.17-.4-.05-.19-.24-.31-.43-.26zm9.338 3.86c-.07.18.022.38.206.45.1.03.21.03.297-.02.072-.04.132-.1.162-.19.14-.37.23-.73.274-1.08.02-.2-.12-.37-.31-.4-.2-.03-.38.11-.4.31-.04.29-.12.6-.24.91zm-1.248 2.58c.118.09.274.1.4.03l.102-.09c.244-.3.453-.58.642-.85.11-.16.065-.38-.097-.49-.16-.11-.39-.07-.5.09-.18.26-.38.52-.61.8-.13.15-.11.37.04.5zm-3.332 3.93c.11.06.24.05.342 0 .06-.03.108-.08.14-.14.143-.26.31-.51.495-.76l.043-.06c.12-.16.092-.38-.066-.5-.156-.12-.38-.09-.5.06l-.052.07c-.203.27-.385.55-.54.83-.1.17-.036.38.137.48zm-.066 1.21c.048-.19-.067-.39-.257-.44-.19-.05-.385.06-.433.25-.094.37-.15.73-.17 1.09-.008.2.142.36.34.37l.187-.04c.11-.06.18-.17.19-.29.02-.31.07-.63.15-.95zm3.173-11.98c-.32-.1-.678-.18-1.063-.24-.193-.03-.375.1-.406.3-.03.19.105.37.3.4.35.05.67.12.96.21.095.03.192.02.274-.03.08-.05.14-.12.17-.21.06-.19-.047-.39-.234-.45zm1.472 1.87l.07.14c.08.18.29.26.47.18l.02-.02c.16-.09.23-.28.15-.45l-.1-.2c-.15-.28-.36-.53-.61-.75-.15-.13-.38-.11-.5.04-.13.15-.12.37.03.5.18.16.33.35.45.55zm-6.78-2.02c-.32.05-.67.12-1.03.19-.2.04-.32.23-.28.42.03.19.22.31.42.27.35-.08.69-.14 1-.19l.11-.04c.13-.07.2-.22.18-.37-.03-.19-.22-.33-.41-.29zm0 0" fill="#206FAC"/><path d="M31.572 102.14l.428-1.434-1.84-.542.545-1.828-1.444-.422-.54 1.828-1.84-.54-.42 1.435 1.84.538-.54 1.83 1.44.422.55-1.828 1.84.54zM2.957 87.796l-.81-.485-.626 1.03-1.02-.62-.5.8 1.03.62-.62 1.03.81.49.63-1.02 1.03.63.49-.8-1.03-.62.62-1.02zm7.09 14.69c-.14-.257-.253-.526-.336-.803-.05-.186-.25-.293-.44-.237-.18.055-.29.253-.24.44.1.323.23.64.39.94l.05.08c.1.167.31.227.48.135h.01c.18-.1.24-.31.14-.48l-.04-.07zm4.013 2.49c-.34-.044-.664-.11-.97-.192-.188-.053-.385.06-.438.247-.05.19.06.39.25.44.334.09.69.16 1.06.21.08.01.155 0 .22-.04.095-.05.165-.14.18-.26.028-.19-.11-.37-.302-.4zm12.174-3.115l-.922.45c-.178.09-.254.3-.168.48.084.18.297.25.473.17.31-.14.627-.3.937-.46h.01c.17-.09.236-.3.148-.47-.087-.17-.302-.24-.478-.16zm-14.488 2.38c-.282-.16-.543-.35-.774-.56-.144-.13-.37-.12-.504.03-.132.15-.123.37.024.5.267.25.568.46.894.65.112.07.244.06.35 0l.14-.13c.094-.17.04-.38-.13-.48zm4.818.77c-.346.04-.686.05-1.01.06-.195.01-.35.17-.35.36.005.2.165.35.362.35.342 0 .697-.02 1.062-.05l.137-.04c.12-.07.197-.2.186-.34-.02-.19-.19-.34-.38-.32zm7.344-2.06c-.317.14-.637.27-.948.39-.183.08-.273.28-.2.46.072.18.28.27.464.2.317-.12.643-.26.965-.4l.02-.01c.16-.09.23-.28.15-.45-.08-.17-.29-.26-.47-.18zm-4.842 1.64c-.338.08-.674.15-.996.21-.193.04-.322.22-.285.42.035.19.22.32.414.29.33-.06.68-.13 1.03-.21l.08-.03c.13-.07.21-.23.17-.39-.05-.19-.24-.31-.43-.26zm2.453-.71c-.33.11-.66.22-.98.31-.19.06-.3.26-.24.45.05.19.25.29.44.24.32-.1.66-.2 1-.32l.05-.02c.15-.08.22-.26.16-.42-.07-.19-.27-.28-.45-.22zM10.2 87l-.672.005-.394.018c-.195.013-.345.18-.332.374.012.196.182.344.38.332l.362-.02h.645l.17-.05c.11-.06.18-.18.18-.31 0-.2-.16-.36-.35-.36zm1.812 7.834c-.222.234-.443.454-.654.664l-.066.07c-.14.138-.138.362.002.5.114.112.288.13.42.06l.084-.064.068-.067.663-.673c.13-.142.13-.365-.01-.5s-.37-.13-.51.01zm-7.02-7.085l-.533.13-.48.11c-.19.04-.31.23-.27.42.04.19.23.31.43.26l.48-.12.52-.13.09-.03c.13-.08.21-.24.17-.4-.05-.19-.24-.31-.43-.26zm9.338 3.86c-.07.18.022.38.206.45.1.03.21.03.297-.02.072-.04.132-.1.162-.19.14-.37.23-.73.274-1.08.02-.2-.12-.37-.31-.4-.2-.03-.38.11-.4.31-.04.29-.12.6-.24.91zm-1.244 2.59c.118.09.274.1.4.03l.102-.09c.244-.3.453-.58.642-.85.11-.16.066-.38-.096-.49-.162-.11-.384-.07-.494.09-.178.26-.373.52-.603.8-.126.15-.103.37.047.5zm-3.332 3.92c.11.06.24.05.342 0 .06-.03.108-.08.14-.14.143-.26.31-.51.495-.76l.05-.06c.12-.16.09-.38-.06-.5s-.38-.09-.5.06l-.05.07c-.2.27-.38.55-.54.83-.1.17-.03.38.14.48zm-.066 1.2c.048-.19-.067-.39-.257-.43-.19-.05-.38.06-.43.25-.09.36-.15.73-.17 1.09-.01.19.14.36.34.37l.19-.04c.11-.06.18-.17.19-.3.02-.31.07-.63.15-.95zm3.172-11.97c-.32-.1-.67-.18-1.06-.24-.19-.03-.37.1-.4.3-.03.19.107.37.3.4.35.05.67.12.96.21.098.03.195.02.277-.03.08-.05.14-.12.17-.21.06-.19-.047-.39-.234-.45zm1.48 1.87l.077.14c.078.18.29.26.47.18l.026-.01c.16-.09.23-.29.156-.46l-.1-.2c-.15-.28-.36-.53-.61-.75-.15-.13-.38-.12-.5.03-.13.14-.12.37.03.5.18.16.33.34.44.55zM7.56 87.2c-.32.053-.67.12-1.03.193-.19.04-.32.23-.273.42.037.19.226.313.42.275.353-.07.69-.133 1.005-.186l.114-.04c.128-.07.204-.21.178-.364-.03-.19-.214-.32-.41-.29zm0 0" fill="#fff"/><path d="M31.572 62.14L32 60.705l-1.84-.542.545-1.828-1.444-.422-.54 1.828-1.84-.54-.42 1.44 1.84.54-.54 1.83 1.44.42.55-1.83 1.84.54zM2.957 47.796l-.81-.485-.626 1.03-1.02-.62-.5.8 1.03.62-.62 1.03.81.49.63-1.02 1.03.63.49-.8-1.03-.62.62-1.02zm7.09 14.69c-.14-.257-.253-.526-.336-.803-.05-.186-.25-.293-.44-.237-.18.055-.29.253-.24.44.1.323.23.64.39.94l.05.08c.1.167.31.227.48.135h.01c.18-.1.24-.31.14-.48l-.04-.07zm4.013 2.49c-.34-.044-.664-.11-.97-.192-.188-.053-.385.06-.438.247-.05.19.06.39.25.44.334.09.69.16 1.06.21.08.01.155 0 .22-.04.095-.05.165-.14.18-.26.028-.19-.11-.37-.302-.4zm12.174-3.115l-.922.45c-.178.09-.254.3-.168.48.084.18.297.25.473.17.31-.14.627-.3.937-.46h.01c.17-.09.236-.3.148-.47-.087-.17-.302-.24-.478-.16zm-14.488 2.38c-.282-.16-.543-.35-.774-.56-.144-.13-.37-.12-.504.03-.132.15-.123.37.024.5.267.25.568.46.894.65.112.07.244.06.35 0l.14-.13c.094-.17.04-.38-.13-.48zm4.818.77c-.346.04-.686.05-1.01.06-.195.01-.35.17-.35.36.005.2.165.35.362.35.342 0 .697-.02 1.062-.05l.137-.04c.12-.07.197-.2.186-.34-.02-.19-.19-.34-.38-.32zm7.344-2.05c-.317.14-.637.27-.948.39-.183.08-.273.28-.2.46.072.18.28.27.464.2.317-.13.643-.26.965-.4l.02-.01c.16-.09.23-.28.15-.45-.08-.17-.29-.26-.47-.18zm-4.842 1.64c-.338.08-.674.15-.996.21-.193.04-.322.22-.285.42.035.19.22.32.414.28.33-.06.68-.13 1.03-.21l.08-.03c.13-.07.21-.23.17-.39-.05-.19-.24-.31-.43-.26zm2.453-.71c-.33.12-.66.22-.98.32-.19.06-.3.26-.24.44.05.19.25.29.44.24.32-.1.66-.2 1-.32l.05-.02c.15-.08.22-.26.16-.42-.07-.18-.27-.28-.45-.22zM10.2 47l-.672.005-.394.018c-.195.013-.345.18-.332.374.012.196.182.344.38.332l.362-.02h.645l.17-.05c.11-.06.18-.18.18-.31 0-.2-.16-.36-.35-.36zm1.812 7.834c-.222.234-.443.454-.654.664l-.066.07c-.14.138-.138.362.002.5.114.112.288.13.42.06l.084-.064.068-.067.663-.673c.13-.142.13-.365-.01-.5s-.37-.13-.51.01zm-7.02-7.085l-.533.13-.48.11c-.19.04-.31.23-.27.42.04.19.23.31.43.26l.48-.12.52-.13.09-.03c.13-.08.21-.24.17-.4-.05-.19-.24-.31-.43-.26zm9.338 3.86c-.07.18.022.38.206.45.1.03.21.03.297-.02.072-.04.132-.1.162-.19.14-.37.23-.73.274-1.08.02-.2-.12-.37-.31-.4-.2-.03-.38.11-.4.31-.04.29-.12.6-.24.91zm-1.244 2.59c.118.09.274.1.4.03l.102-.09c.244-.3.453-.58.642-.85.11-.16.066-.38-.096-.49-.162-.11-.384-.07-.494.09-.178.26-.373.52-.603.8-.126.15-.103.37.047.5zm-3.332 3.92c.11.06.24.05.342 0 .06-.03.108-.08.14-.14.143-.26.31-.51.495-.76l.05-.06c.12-.16.09-.38-.06-.5s-.38-.09-.5.06l-.05.07c-.2.27-.38.55-.54.83-.1.17-.03.38.14.48zm-.066 1.2c.048-.19-.067-.39-.257-.43-.19-.05-.38.06-.43.25-.09.36-.15.73-.17 1.09-.01.19.14.36.34.37l.19-.04c.11-.06.18-.17.19-.3.02-.31.07-.63.15-.95zm3.172-11.97c-.32-.1-.67-.18-1.06-.24-.19-.03-.37.1-.4.3-.03.19.107.37.3.4.35.05.67.12.96.21.098.03.195.02.277-.03.08-.05.14-.12.17-.21.06-.19-.047-.39-.234-.45zm1.48 1.87l.077.14c.078.18.29.26.47.18l.026-.01c.16-.09.23-.29.156-.46l-.1-.2c-.15-.28-.36-.53-.61-.75-.15-.13-.38-.12-.5.03-.13.14-.12.37.03.5.18.16.33.34.44.55zM7.56 47.2c-.32.053-.67.12-1.03.193-.19.04-.32.23-.273.42.037.19.226.313.42.275.353-.07.69-.133 1.005-.186l.114-.04c.128-.07.204-.21.178-.364-.03-.19-.214-.32-.41-.29zm0 0" fill="#67737B"/><path d="M31.572 22.14L32 20.705l-1.84-.542.545-1.828-1.444-.422-.54 1.828-1.84-.54-.42 1.44 1.84.54-.54 1.83 1.44.42.55-1.83 1.84.54zM2.957 7.796l-.81-.485-.627 1.03-1.023-.62-.497.8 1.03.62-.626 1.03.808.49.625-1.02 1.032.63.49-.8-1.03-.62.62-1.02zm7.09 14.69c-.14-.257-.253-.526-.336-.803-.05-.186-.25-.293-.44-.237-.18.055-.29.253-.24.44.1.323.23.64.39.94l.05.08c.1.167.31.227.48.135h.01c.18-.1.24-.31.14-.48l-.04-.07zm4.013 2.49c-.34-.044-.664-.11-.97-.192-.188-.053-.385.06-.438.247-.05.19.06.39.25.44.334.09.69.16 1.06.21.08.01.155 0 .22-.04.095-.05.165-.14.18-.26.028-.19-.11-.37-.302-.4zm12.174-3.115l-.922.45c-.178.09-.254.3-.168.48.084.18.297.25.473.17.31-.14.627-.3.937-.46h.01c.17-.09.236-.3.148-.47-.087-.17-.302-.24-.478-.16zm-14.488 2.38c-.282-.16-.543-.35-.774-.56-.144-.13-.37-.12-.504.03-.132.15-.123.37.024.5.267.25.568.46.894.65.112.07.244.06.35 0l.14-.13c.094-.17.04-.38-.13-.48zm4.818.77c-.346.04-.686.05-1.01.06-.195.01-.35.17-.35.36.005.2.165.35.362.35.342 0 .697-.02 1.062-.05l.137-.04c.12-.07.197-.2.186-.34-.02-.19-.19-.34-.38-.32zm7.344-2.05c-.317.14-.637.27-.948.39-.183.08-.273.28-.2.46.072.18.28.27.464.2.317-.13.643-.26.965-.4l.02-.01c.16-.09.23-.28.15-.45-.08-.17-.29-.26-.47-.18zm-4.842 1.64c-.338.08-.674.15-.996.21-.193.04-.322.22-.285.42.035.19.22.32.414.28.33-.06.68-.13 1.03-.21l.08-.03c.13-.07.21-.23.17-.39-.05-.19-.24-.31-.43-.26zm2.453-.71c-.33.12-.66.22-.98.32-.19.06-.3.26-.24.44.05.19.25.29.44.24.32-.1.66-.2 1-.32l.05-.02c.15-.08.22-.26.16-.42-.07-.18-.27-.28-.45-.22zM10.2 7l-.672.005-.394.018c-.195.013-.345.18-.332.374.012.196.182.344.38.332l.362-.02h.645l.17-.05c.11-.06.18-.18.18-.31 0-.2-.16-.36-.35-.36zm1.812 7.834c-.222.234-.443.454-.654.664l-.066.07c-.14.138-.138.362.002.5.114.112.288.13.42.06l.084-.064.068-.067.663-.673c.13-.142.13-.365-.01-.5s-.37-.13-.51.01zM4.994 7.75l-.53.13-.474.113c-.19.045-.31.236-.266.426.045.19.237.3.43.26l.482-.12.528-.13.088-.04c.136-.08.212-.24.173-.4-.045-.19-.238-.31-.427-.26zm9.34 3.866c-.07.183.02.387.207.457.11.037.21.028.3-.02.07-.04.13-.102.16-.186.14-.363.24-.726.28-1.078.03-.2-.11-.37-.31-.4-.19-.03-.37.11-.39.31-.03.29-.11.6-.23.91zm-1.25 2.586c.12.094.277.102.4.037l.105-.09c.24-.3.45-.58.64-.85.11-.16.06-.39-.1-.49-.16-.11-.39-.07-.5.09-.18.26-.38.52-.61.8-.13.15-.11.37.04.5zm-3.33 3.924c.11.06.24.057.34.002.06-.03.11-.08.14-.14.146-.254.31-.51.498-.76l.043-.058c.12-.155.092-.38-.066-.497-.16-.118-.38-.09-.5.064l-.06.073c-.21.274-.39.555-.54.836-.1.17-.04.386.13.48zm-.065 1.208c.04-.19-.07-.384-.26-.433-.19-.04-.39.07-.44.26-.1.36-.15.73-.17 1.09-.01.2.14.36.34.37l.18-.04c.1-.06.18-.16.18-.29.01-.31.06-.63.14-.94zM12.86 7.36c-.32-.098-.678-.176-1.063-.236-.194-.03-.376.104-.407.298-.03.193.104.37.3.403.35.052.67.124.958.21.097.03.194.02.276-.026.08-.05.14-.12.17-.21.06-.19-.047-.39-.234-.45zm1.472 1.868l.073.145c.078.18.29.262.47.183l.026-.014c.17-.088.23-.283.16-.453l-.1-.2c-.15-.28-.35-.53-.6-.75-.15-.13-.37-.12-.5.03-.13.14-.11.37.04.5.19.16.34.34.45.55zM7.558 7.213c-.322.053-.67.12-1.03.193-.194.04-.32.227-.278.42.037.19.226.312.42.274.353-.072.69-.134 1.005-.187l.114-.04c.12-.07.2-.214.17-.368-.03-.192-.22-.324-.41-.29zm0 0" fill="#3A434E"/></g></svg>