<svg width="32" height="232" viewBox="0 0 32 232" xmlns="http://www.w3.org/2000/svg"><g fill="none"><path d="M15.998 149c-6.903 0-12.5-5.596-12.5-12.5s5.597-12.5 12.5-12.5 12.5 5.596 12.5 12.5S22.9 149 15.998 149zm0-21.642c-5.05 0-9.143 4.09-9.143 9.142 0 5.05 4.094 9.143 9.143 9.143s9.142-4.094 9.142-9.143c0-5.05-4.093-9.142-9.142-9.142zm5.022 14.205l-5.022-5.063v-6.92l.14-.008c3.904 0 6.88 3.165 6.88 7.07 0 1.915-.762 3.647-1.998 4.92zm0 0" fill="#206FAC"/><path d="M15.998 109c-6.903 0-12.5-5.596-12.5-12.5S9.095 84 15.998 84s12.5 5.596 12.5 12.5S22.9 109 15.998 109zm0-21.642c-5.05 0-9.143 4.09-9.143 9.142 0 5.05 4.094 9.143 9.143 9.143s9.142-4.094 9.142-9.143c0-5.05-4.093-9.142-9.142-9.142zm5.022 14.205L15.998 96.5v-6.92l.14-.008c3.904 0 6.88 3.165 6.88 7.07 0 1.915-.762 3.647-1.998 4.92zm0 0" fill="#fff"/><path d="M15.998 69c-6.903 0-12.5-5.596-12.5-12.5S9.095 44 15.998 44s12.5 5.596 12.5 12.5S22.9 69 15.998 69zm0-21.642c-5.05 0-9.143 4.09-9.143 9.142 0 5.05 4.094 9.143 9.143 9.143S25.14 61.55 25.14 56.5c0-5.05-4.093-9.142-9.142-9.142zm5.022 14.205L15.998 56.5v-6.92l.14-.008c3.904 0 6.88 3.165 6.88 7.07 0 1.915-.762 3.647-1.998 4.92zm0 0" fill="#67737B"/><path d="M15.998 29c-6.903 0-12.5-5.596-12.5-12.5S9.095 4 15.998 4s12.5 5.596 12.5 12.5S22.9 29 15.998 29zm0-21.642c-5.05 0-9.143 4.09-9.143 9.142 0 5.05 4.094 9.143 9.143 9.143S25.14 21.55 25.14 16.5c0-5.05-4.093-9.142-9.142-9.142zm5.022 14.205L15.998 16.5V9.58l.14-.008c3.904 0 6.88 3.165 6.88 7.07 0 1.915-.762 3.647-1.998 4.92zm0 0" fill="#3A434E"/></g></svg>