<svg width="32" height="232" viewBox="0 0 32 232" xmlns="http://www.w3.org/2000/svg"><g fill="none"><path d="M16 124.03c-4.972 0-9 3.95-9 8.818 0 2.434 1.007 4.637 2.632 6.23 0 0 .99 1.06 1.495 2.6.43 1.317.527 3.093.527 3.093 0 2.35 1.944 4.26 4.345 4.26 2.4 0 4.34-1.91 4.34-4.26 0 0 .09-1.77.52-3.09.5-1.54 1.49-2.6 1.49-2.6 1.62-1.59 2.63-3.8 2.63-6.23 0-4.87-4.03-8.81-9-8.82zm1.56 22.63h-3.12c-.305 0-.554-.24-.554-.54 0-.3.25-.54.554-.54h3.12c.303 0 .552.24.552.54 0 .3-.25.54-.552.54zm.63-2.582h-4.383c-.302 0-.55-.243-.55-.543 0-.296.248-.54.55-.54h4.384c.31 0 .56.244.56.54 0 .3-.25.543-.55.543zm-4.4-6.89c.63.13 1.21.12 1.693-.03.11.077.22.164.355.198.56.136 1.226.18 1.982-.155l-.674 3.61h-2.37l-.986-3.62zm1.003-2.405c-.067-.303.016-.594.24-.806.103-.098.37-.19.62-.182.527.016.793.4.774.77-.022.41-.447 1.002-.868 1.322-.37-.28-.67-.643-.77-1.104zm6.758 3.5c-.07.076-.97 1.06-1.57 2.525h-1.77l1.09-5.823-1.1.866c-.26.21-1.03.59-1.6.59l-.19-.01c.45-.48 1.07-1.15.98-2.15-.09-.86-.82-1.41-1.79-1.41-.82 0-1.73.53-1.78 1.46-.04.87.38 1.37.67 1.71l.26.31h-.09c-.67 0-1.34-.29-1.34-.29l-1.02-.46 1.43 5.24h-1.67c-.6-1.46-1.5-2.45-1.57-2.52-1.48-1.45-2.29-3.38-2.29-5.43 0-4.24 3.52-7.69 7.85-7.69s7.85 3.45 7.85 7.69c0 2.05-.81 3.98-2.29 5.44zm0 0" fill="#206FAC"/><path d="M16 84.03c-4.972 0-9 3.95-9 8.818 0 2.434 1.007 4.637 2.632 6.23 0 0 .99 1.06 1.495 2.6.43 1.317.527 3.093.527 3.093 0 2.35 1.944 4.26 4.345 4.26 2.4 0 4.34-1.91 4.34-4.26 0 0 .09-1.77.52-3.09.5-1.54 1.49-2.6 1.49-2.6 1.63-1.59 2.64-3.8 2.64-6.23 0-4.87-4.03-8.81-9-8.82zm1.56 22.63h-3.12c-.305 0-.554-.24-.554-.54 0-.3.25-.54.554-.54h3.12c.303 0 .552.24.552.54 0 .3-.25.54-.552.54zm.63-2.582h-4.383c-.302 0-.55-.243-.55-.543 0-.296.248-.54.55-.54h4.384c.31 0 .56.244.56.54 0 .3-.25.543-.55.543zm-4.4-6.89c.63.13 1.21.12 1.693-.03.11.077.22.164.355.198.56.136 1.226.18 1.982-.155l-.674 3.61h-2.37l-.986-3.62zm1.003-2.405c-.067-.303.016-.594.24-.806.103-.098.37-.19.62-.182.527.016.793.4.774.77-.022.41-.447 1.002-.868 1.322-.37-.28-.67-.643-.77-1.104zm6.758 3.5c-.07.076-.97 1.06-1.57 2.525h-1.77l1.09-5.823-1.1.866c-.26.21-1.03.59-1.6.59l-.19-.01c.45-.48 1.07-1.15.98-2.15-.09-.86-.82-1.41-1.79-1.41-.82 0-1.73.53-1.78 1.46-.04.87.38 1.37.67 1.71l.26.31h-.09c-.67 0-1.34-.29-1.34-.29l-1.02-.46 1.43 5.24h-1.67c-.6-1.46-1.5-2.45-1.57-2.52-1.48-1.45-2.3-3.38-2.3-5.43 0-4.24 3.52-7.69 7.85-7.69s7.85 3.45 7.85 7.69c0 2.05-.81 3.98-2.29 5.44zm0 0" fill="#fff"/><path d="M16 44.03c-4.972 0-9 3.95-9 8.818 0 2.434 1.007 4.637 2.632 6.23 0 0 .99 1.06 1.495 2.6.43 1.317.527 3.093.527 3.093 0 2.35 1.944 4.26 4.345 4.26 2.4 0 4.34-1.91 4.34-4.26 0 0 .09-1.77.52-3.09.5-1.54 1.49-2.6 1.49-2.6 1.63-1.59 2.64-3.8 2.64-6.23 0-4.87-4.03-8.81-9-8.82zm1.56 22.63h-3.12c-.305 0-.554-.24-.554-.54 0-.3.25-.54.554-.54h3.12c.303 0 .552.24.552.54 0 .3-.25.54-.552.54zm.63-2.582h-4.383c-.302 0-.55-.243-.55-.543 0-.296.248-.54.55-.54h4.384c.31 0 .56.244.56.54 0 .3-.25.543-.55.543zm-4.4-6.89c.63.13 1.21.12 1.693-.03.11.077.22.164.355.198.56.136 1.226.18 1.982-.155l-.674 3.61h-2.37l-.986-3.62zm1.003-2.405c-.067-.303.016-.594.24-.806.103-.098.37-.19.62-.182.527.016.793.4.774.77-.022.41-.447 1.002-.868 1.322-.37-.28-.67-.643-.77-1.104zm6.758 3.5c-.07.076-.97 1.06-1.57 2.525h-1.77l1.09-5.823-1.1.866c-.26.21-1.03.59-1.6.59l-.19-.01c.45-.48 1.07-1.15.98-2.15-.09-.86-.82-1.41-1.79-1.41-.82 0-1.73.53-1.78 1.46-.04.87.38 1.37.67 1.71l.26.31h-.09c-.67 0-1.34-.29-1.34-.29l-1.02-.46 1.43 5.23h-1.67c-.6-1.46-1.5-2.45-1.57-2.52-1.48-1.45-2.3-3.38-2.3-5.43 0-4.23 3.52-7.68 7.85-7.69 4.33.01 7.85 3.46 7.85 7.69 0 2.06-.81 3.98-2.29 5.44zm0 0" fill="#67737B"/><path d="M16 4.03c-4.972 0-9 3.95-9 8.818 0 2.434 1.007 4.637 2.632 6.23 0 0 .99 1.06 1.495 2.6.43 1.317.527 3.093.527 3.093 0 2.35 1.944 4.26 4.345 4.26 2.4 0 4.34-1.91 4.34-4.26 0 0 .09-1.77.52-3.09.5-1.54 1.49-2.6 1.49-2.6 1.63-1.59 2.64-3.8 2.64-6.23 0-4.87-4.03-8.81-9-8.82zm1.56 22.63h-3.12c-.305 0-.554-.24-.554-.54 0-.3.25-.54.554-.54h3.12c.303 0 .552.24.552.54 0 .3-.25.54-.552.54zm.63-2.582h-4.383c-.302 0-.55-.243-.55-.543 0-.296.248-.54.55-.54h4.384c.31 0 .56.244.56.54 0 .3-.25.543-.55.543zm-4.4-6.89c.63.13 1.21.12 1.693-.03.11.077.22.164.355.198.56.136 1.226.18 1.982-.155l-.674 3.61h-2.37l-.986-3.62zm1.003-2.405c-.067-.303.016-.594.24-.806.103-.098.37-.19.62-.182.527.016.793.4.774.77-.022.41-.447 1.002-.868 1.322-.37-.28-.67-.643-.77-1.104zm6.758 3.5c-.07.076-.97 1.06-1.57 2.525h-1.77l1.09-5.823-1.1.866c-.26.21-1.03.59-1.6.59l-.19-.01c.45-.48 1.07-1.15.98-2.15-.09-.86-.82-1.41-1.79-1.41-.82 0-1.73.53-1.78 1.46-.04.87.38 1.37.67 1.71l.26.31h-.09c-.67 0-1.34-.29-1.34-.29l-1.02-.46 1.43 5.23h-1.67c-.6-1.46-1.5-2.45-1.57-2.52-1.48-1.45-2.3-3.38-2.3-5.43 0-4.23 3.52-7.68 7.85-7.69 4.33.01 7.85 3.46 7.85 7.69 0 2.06-.81 3.98-2.29 5.44zm0 0" fill="#3A434E"/></g></svg>