<svg width="32" height="232" viewBox="0 0 32 232" xmlns="http://www.w3.org/2000/svg"><g fill="none"><path d="M21.662 138.846h.007s-.82.942-1.33 2.392c-.43 1.195-.47 2.844-.47 2.844h-.01c0 2.163-1.73 3.918-3.87 3.918s-3.87-1.755-3.87-3.918c0 0-.09-1.632-.47-2.844-.45-1.42-1.33-2.392-1.33-2.392-1.45-1.468-2.34-3.494-2.34-5.733 0-4.48 3.58-8.112 8-8.112s8 3.64 8 8.12c0 2.24-.9 4.27-2.34 5.74zm-7.05 6.975h2.774c.272 0 .494-.22.494-.49s-.222-.49-.494-.49h-2.773c-.27 0-.492.23-.492.5 0 .28.23.5.5.5zm-.56-2.37h3.894c.272 0 .494-.22.494-.5s-.222-.49-.494-.49h-3.893c-.272 0-.492.23-.492.5 0 .28.22.5.5.5zm4.09-7.56c-.237.19-.915.54-1.42.54l-.167-.01c.396-.45.95-1.06.87-1.98-.086-.79-.734-1.29-1.6-1.29-.726 0-1.533.49-1.58 1.34-.04.8.337 1.26.59 1.57l.224.29h-.08c-.6 0-1.2-.27-1.2-.27l-.91-.42 1.27 4.82h.01l-.01.05c0 .27.21.48.47.48s.47-.21.47-.47l-.01-.042h.01l-.88-3.33c.56.12 1.07.11 1.5-.03.1.07.19.146.31.18.5.12 1.09.164 1.76-.144l-.6 3.314-.01.024c0 .26.21.48.47.48s.47-.22.47-.48l-.01-.02.01-.01.97-5.35-.98.8zm-2.343.03c-.33-.25-.6-.59-.69-1.01-.06-.27.01-.54.21-.74.09-.09.33-.17.54-.17.47.02.71.37.68.71-.02.38-.4.92-.77 1.22zm0 0" fill="#206FAC"/><path d="M21.662 98.846h.007s-.82.942-1.33 2.392c-.43 1.195-.47 2.844-.47 2.844h-.01c0 2.163-1.73 3.918-3.87 3.918s-3.87-1.755-3.87-3.918c0 0-.09-1.632-.47-2.844-.45-1.42-1.33-2.392-1.33-2.392C8.89 97.378 8 95.352 8 93.113 8 88.633 11.58 85 16.003 85c4.42 0 8 3.634 8 8.113 0 2.24-.895 4.265-2.34 5.733zm-7.05 6.975h2.774c.272 0 .494-.22.494-.49s-.222-.49-.494-.49h-2.773c-.27 0-.492.23-.492.5 0 .28.23.5.5.5zm-.56-2.37h3.894c.272 0 .494-.22.494-.5 0-.27-.222-.49-.494-.49h-3.893c-.272 0-.492.23-.492.5 0 .28.22.5.5.5zm4.09-7.56c-.237.19-.915.54-1.42.54l-.167-.01c.396-.45.95-1.06.87-1.98-.086-.79-.734-1.29-1.6-1.29-.726 0-1.533.49-1.58 1.34-.04.8.337 1.26.59 1.57l.224.29h-.08c-.6 0-1.2-.27-1.2-.27l-.91-.42 1.27 4.82h.01l-.01.05c0 .27.21.48.47.48s.47-.21.47-.47l-.01-.042h.01l-.88-3.33c.56.12 1.07.11 1.5-.03.1.07.19.146.31.18.5.12 1.09.164 1.76-.144l-.6 3.314-.01.024c0 .26.21.48.47.48s.47-.22.47-.48l-.01-.02.01-.01.97-5.35-.98.8zm-2.343.03c-.33-.25-.6-.59-.69-1.01-.06-.27.01-.54.21-.74.09-.09.33-.17.54-.17.47.02.71.37.68.71-.02.38-.4.92-.77 1.22zm0 0" fill="#fff"/><path d="M21.662 58.846h.007s-.82.942-1.33 2.392c-.43 1.195-.47 2.844-.47 2.844h-.01C19.86 66.245 18.13 68 16 68s-3.865-1.755-3.865-3.918c0 0-.086-1.632-.468-2.844-.446-1.42-1.328-2.392-1.328-2.392C8.89 57.378 8 55.352 8 53.113 8 48.633 11.58 45 16.003 45c4.42 0 8 3.634 8 8.113 0 2.24-.895 4.265-2.34 5.733zm-7.05 6.975h2.774c.272 0 .494-.22.494-.49s-.222-.49-.494-.49h-2.773c-.27 0-.492.23-.492.5 0 .28.23.5.5.5zm-.56-2.37h3.894c.272 0 .494-.22.494-.5s-.222-.49-.494-.49h-3.893c-.272 0-.492.23-.492.5 0 .28.22.5.5.5zm4.09-7.56c-.237.19-.915.54-1.42.54l-.167-.01c.396-.45.95-1.06.87-1.98-.086-.79-.734-1.29-1.6-1.29-.726 0-1.533.49-1.58 1.34-.04.8.337 1.26.59 1.57l.224.29h-.08c-.6 0-1.2-.27-1.2-.27l-.91-.42 1.27 4.82h.01l-.01.05c0 .27.21.48.47.48s.47-.21.47-.47l-.01-.042h.01l-.88-3.33c.56.12 1.07.11 1.5-.03.1.07.19.146.31.18.5.12 1.09.164 1.76-.144l-.6 3.314-.01.024c0 .26.21.48.47.48s.47-.22.47-.48l-.01-.02.01-.01.97-5.35-.98.8zm-2.343.03c-.33-.25-.6-.59-.69-1.01-.06-.27.01-.54.21-.74.09-.09.33-.17.54-.17.47.02.71.37.68.71-.02.38-.4.92-.77 1.22zm0 0" fill="#67737B"/><path d="M21.662 18.846h.007s-.82.942-1.33 2.392c-.43 1.195-.47 2.844-.47 2.844h-.01C19.86 26.245 18.13 28 16 28s-3.865-1.755-3.865-3.918c0 0-.086-1.632-.468-2.844-.446-1.42-1.328-2.392-1.328-2.392C8.89 17.378 8 15.352 8 13.113 8 8.633 11.58 5 16.003 5c4.42 0 8 3.634 8 8.113 0 2.24-.895 4.265-2.34 5.733zm-7.05 6.975h2.774c.272 0 .494-.22.494-.49s-.222-.49-.494-.49h-2.773c-.27 0-.492.23-.492.5 0 .28.23.5.5.5zm-.56-2.37h3.894c.272 0 .494-.22.494-.5s-.222-.49-.494-.49h-3.893c-.272 0-.492.23-.492.5 0 .28.22.5.5.5zm4.09-7.56c-.237.19-.915.54-1.42.54l-.167-.01c.396-.45.95-1.06.87-1.98-.086-.79-.734-1.29-1.6-1.29-.726 0-1.533.49-1.58 1.34-.04.8.337 1.26.59 1.57l.224.29h-.08c-.6 0-1.2-.27-1.2-.27l-.91-.42 1.27 4.82h.01l-.01.05c0 .27.21.48.47.48s.47-.21.47-.47l-.01-.042h.01l-.88-3.33c.56.12 1.07.11 1.5-.03.1.07.19.146.31.18.5.12 1.09.164 1.76-.144l-.6 3.314-.01.024c0 .26.21.48.47.48s.47-.22.47-.48l-.01-.02.01-.01.97-5.35-.98.8zm-2.343.03c-.33-.25-.6-.59-.69-1.01-.06-.27.01-.54.21-.74.09-.09.33-.17.54-.17.47.02.71.37.68.71-.02.38-.4.92-.77 1.22zm0 0" fill="#3A434E"/></g></svg>