<svg width="32" height="232" viewBox="0 0 32 232" xmlns="http://www.w3.org/2000/svg"><g fill="none"><path d="M28.55 127.793l-3.844-3.845c-.612-.613-1.424-.948-2.29-.948-.865 0-1.675.335-2.288.948l-5.707 5.707c-1.26 1.263-1.26 3.316 0 4.578l.73.724-.69.688-.72-.725c-.61-.612-1.42-.947-2.29-.947s-1.67.335-2.29.947l-5.7 5.707c-.61.614-.95 1.424-.95 2.29 0 .864.34 1.68.95 2.288l3.84 3.845c.61.618 1.43.95 2.29.95s1.68-.332 2.29-.95l5.71-5.7c1.26-1.262 1.26-3.314 0-4.58l-.64-.636.69-.685.64.63c.61.61 1.43.95 2.29.95.87 0 1.68-.34 2.29-.95l5.71-5.71c.62-.61.95-1.42.95-2.29 0-.86-.33-1.67-.95-2.29zm-13.1 13.103c.088.09.088.23 0 .316l-5.71 5.708c-.054.055-.114.07-.157.07-.04 0-.103-.015-.157-.07l-3.846-3.842c-.055-.056-.066-.12-.066-.162 0-.04.012-.1.067-.158l5.71-5.708c.06-.055.12-.065.16-.065.04 0 .11.01.16.065l.73.722-3.58 3.58c-.65.644-.65 1.693 0 2.34l.15.146c.65.646 1.7.646 2.35 0l3.58-3.58.64.638zm10.97-10.656l-5.708 5.708c-.053.054-.116.068-.16.068-.04 0-.102-.014-.157-.068l-.637-.635 3.41-3.406c.643-.65.643-1.696 0-2.342l-.148-.145c-.646-.65-1.694-.65-2.34 0l-3.408 3.406-.72-.722c-.09-.088-.09-.23 0-.32l5.706-5.706c.055-.055.118-.066.16-.066.042 0 .103.01.157.066l3.846 3.844c.06.056.07.117.07.158 0 .043-.01.106-.06.16zm0 0" fill="#206FAC"/><path d="M28.55 87.793l-3.844-3.845c-.612-.613-1.424-.948-2.29-.948-.865 0-1.675.335-2.288.948l-5.707 5.707c-1.26 1.263-1.26 3.316 0 4.578l.73.724-.69.688-.72-.725c-.61-.612-1.42-.947-2.29-.947s-1.67.335-2.29.947l-5.7 5.707c-.61.614-.95 1.424-.95 2.29 0 .864.34 1.68.95 2.288l3.84 3.845c.61.618 1.43.95 2.29.95s1.68-.332 2.29-.95l5.71-5.7c1.26-1.262 1.26-3.314 0-4.58l-.64-.636.69-.685.64.63c.61.61 1.43.95 2.29.95.87 0 1.68-.34 2.29-.95l5.71-5.71c.62-.61.95-1.42.95-2.29 0-.86-.33-1.67-.95-2.29zm-13.1 13.103c.088.09.088.23 0 .316l-5.71 5.708c-.054.055-.114.07-.157.07-.04 0-.103-.015-.157-.07l-3.846-3.842c-.055-.056-.066-.12-.066-.162 0-.04.012-.1.067-.158l5.71-5.708c.06-.055.12-.065.16-.065.04 0 .11.01.16.065l.73.722-3.58 3.58c-.65.644-.65 1.693 0 2.34l.15.146c.65.646 1.7.646 2.35 0l3.58-3.58.64.638zM26.42 90.24l-5.708 5.708c-.053.054-.116.068-.16.068-.04 0-.102-.014-.157-.068l-.637-.635 3.41-3.406c.643-.65.643-1.696 0-2.342l-.148-.145c-.646-.65-1.694-.65-2.34 0l-3.408 3.406-.72-.722c-.09-.088-.09-.23 0-.32l5.706-5.706c.055-.055.118-.066.16-.066.042 0 .103.01.157.066l3.846 3.844c.06.056.07.117.07.158 0 .043-.01.106-.06.16zm0 0" fill="#fff"/><path d="M28.55 47.793l-3.844-3.845c-.612-.613-1.424-.948-2.29-.948-.865 0-1.675.335-2.288.948l-5.707 5.707c-1.26 1.263-1.26 3.316 0 4.578l.73.724-.69.688-.72-.725c-.61-.612-1.42-.947-2.29-.947s-1.67.335-2.29.947l-5.71 5.707c-.61.614-.95 1.424-.95 2.29 0 .864.34 1.68.95 2.288L7.3 69.05c.61.62 1.423.95 2.287.95.866 0 1.678-.33 2.29-.95l5.71-5.7c1.26-1.26 1.26-3.312 0-4.58l-.638-.634.68-.685.64.64c.61.61 1.42.95 2.29.95.87 0 1.68-.34 2.29-.95l5.71-5.71c.61-.61.95-1.42.95-2.29 0-.86-.34-1.67-.95-2.28zm-13.1 13.103c.088.09.088.23 0 .316L9.74 66.92c-.054.055-.114.07-.157.07-.04 0-.103-.015-.157-.07L5.58 63.078c-.055-.056-.066-.12-.066-.162 0-.04.012-.1.067-.158l5.71-5.708c.06-.055.12-.065.16-.065.04 0 .11.01.16.065l.73.722-3.58 3.58c-.65.644-.65 1.693 0 2.34l.15.146c.65.646 1.7.646 2.35 0l3.58-3.58.64.638zM26.42 50.24l-5.708 5.708c-.053.054-.116.068-.16.068-.04 0-.102-.014-.157-.068l-.637-.635 3.41-3.406c.643-.65.643-1.696 0-2.342l-.148-.145c-.646-.65-1.694-.65-2.34 0l-3.408 3.406-.72-.722c-.09-.088-.09-.23 0-.32l5.706-5.706c.055-.055.118-.066.16-.066.042 0 .103.01.157.066l3.846 3.844c.06.056.07.117.07.158 0 .043-.01.106-.06.16zm0 0" fill="#67737B"/><path d="M28.55 7.793l-3.844-3.845C24.094 3.335 23.282 3 22.416 3c-.865 0-1.675.335-2.288.948L14.42 9.655c-1.26 1.263-1.26 3.316 0 4.578l.723.724-.69.688-.72-.725c-.613-.612-1.424-.947-2.29-.947-.864 0-1.675.335-2.288.947l-5.707 5.707c-.613.614-.948 1.424-.948 2.29 0 .864.335 1.68.948 2.288l3.846 3.846c.61.62 1.423.95 2.287.95.87 0 1.68-.33 2.29-.95l5.71-5.7c1.26-1.26 1.26-3.31 0-4.58l-.63-.63.69-.68.64.64c.61.61 1.43.95 2.29.95.87 0 1.68-.34 2.29-.95l5.71-5.71c.62-.61.95-1.42.95-2.29 0-.86-.33-1.67-.95-2.28zm-13.1 13.103c.088.09.088.23 0 .316L9.74 26.92c-.054.055-.114.07-.157.07-.04 0-.103-.015-.157-.07L5.58 23.078c-.055-.056-.066-.12-.066-.162 0-.04.012-.1.067-.158l5.71-5.708c.06-.055.12-.065.16-.065.04 0 .11.01.16.065l.73.722-3.58 3.58c-.65.644-.65 1.693 0 2.34l.15.146c.65.646 1.7.646 2.35 0l3.58-3.58.64.638zM26.42 10.24l-5.708 5.708c-.053.054-.116.068-.16.068-.04 0-.102-.014-.157-.068l-.637-.635 3.41-3.406c.643-.65.643-1.696 0-2.342l-.148-.145c-.646-.65-1.694-.65-2.34 0l-3.408 3.406-.72-.722c-.09-.088-.09-.23 0-.32l5.706-5.706c.055-.055.118-.066.16-.066.042 0 .103.01.157.066l3.846 3.844c.06.056.07.117.07.158 0 .043-.01.106-.06.16zm0 0" fill="#3A434E"/></g></svg>