<svg width="32" height="232" viewBox="0 0 32 232" xmlns="http://www.w3.org/2000/svg"><g fill="none"><path d="M17.384 6.936c-.163-.235-.432-.375-.714-.38h-.03c-.277 0-.54.133-.71.358L5.842 20.364c-.287-.315-.805-.392-1.178-.137l-2.277 1.625c-.196.132-.33.33-.372.563-.043.23.006.463.14.66l2.83 4.043c.134.192.34.328.574.367l.16.015c.18 0 .35-.052.51-.16l2.27-1.623c.19-.132.32-.334.37-.564.03-.195 0-.394-.09-.565l2.7-.74.63 2.248c.11.372.46.636.85.636l.24-.035 6.74-1.884c.47-.132.75-.62.61-1.084l-.62-2.21 5.18-1.42c.28-.08.5-.28.6-.55.1-.27.06-.57-.11-.8L17.38 6.94zm-11.44 18.45L4.126 22.79l.825-.61 1.82 2.597-.82.612zm7.664-.625l-.39-1.38L18.25 22l.383 1.372-5.025 1.4zm-6.104-1.64l-.73-1.04 9.85-13.12 6.85 9.8-15.97 4.38zM20.828 8.88c.164 0 .328-.075.438-.213l2.606-3.29c.186-.238.14-.578-.1-.762-.242-.18-.59-.137-.774.1L20.39 8c-.185.24-.14.578.104.762.098.077.218.114.334.114zm9.15 4.86c-.086-.29-.394-.455-.684-.37l-4.074 1.14c-.292.084-.46.388-.376.677.035.12.11.22.203.287.134.096.31.13.482.08l4.07-1.144c.29-.087.46-.387.37-.674zm-7.122-1.91c.073.098.175.17.286.204.156.05.335.03.48-.066l3.513-2.338c.25-.17.313-.507.143-.757-.172-.244-.518-.307-.768-.14L23 11.067c-.252.17-.314.51-.144.76zm0 0" fill="#3A434E"/><path d="M17.386 46.936c-.163-.235-.432-.375-.714-.38h-.03c-.277 0-.54.133-.71.358L5.844 60.364c-.287-.315-.805-.392-1.178-.137L2.39 61.852c-.197.132-.33.33-.373.563-.043.23.006.463.14.66l2.83 4.043c.134.192.34.328.574.367l.17.015c.18 0 .36-.052.51-.16l2.28-1.623c.2-.132.33-.334.37-.564.04-.195.01-.394-.08-.565l2.71-.74.64 2.248c.11.372.46.636.86.636l.25-.035L20 64.813c.47-.132.75-.62.612-1.084l-.62-2.21 5.18-1.42c.28-.08.506-.28.6-.55.1-.27.06-.57-.1-.8L17.4 46.93zm-11.44 18.45L4.128 62.79l.825-.61 1.817 2.597-.824.612zm7.664-.625l-.39-1.38L18.252 62l.383 1.372-5.025 1.4zm-6.104-1.64l-.73-1.04 9.85-13.12 6.85 9.8-15.97 4.38zM20.83 48.88c.164 0 .328-.075.438-.213l2.606-3.29c.186-.238.14-.578-.1-.762-.242-.18-.59-.137-.774.1L20.393 48c-.186.24-.14.578.103.762.098.077.218.114.334.114zm9.15 4.86c-.086-.29-.394-.455-.684-.37l-4.076 1.14c-.29.084-.458.388-.374.677.035.12.11.22.203.287.13.096.31.13.48.08l4.07-1.144c.29-.087.46-.387.37-.674zm-7.122-1.91c.073.098.175.17.286.204.156.05.335.03.48-.066l3.513-2.338c.25-.17.313-.507.143-.757-.172-.244-.518-.307-.768-.14l-3.51 2.338c-.252.17-.314.51-.144.76zm0 0" fill="#67737B"/><path d="M17.386 86.936c-.163-.235-.432-.375-.714-.38h-.03c-.277 0-.54.133-.71.358l-10.088 13.45c-.287-.315-.805-.392-1.178-.137l-2.277 1.625c-.2.132-.33.33-.38.563-.05.23 0 .463.14.66l2.83 4.043c.13.192.34.328.57.367l.16.015c.18 0 .36-.052.51-.16l2.28-1.623c.19-.132.32-.334.37-.564.03-.195 0-.394-.09-.565l2.7-.74.63 2.248c.11.372.46.636.86.636l.25-.035 6.74-1.884c.47-.132.75-.62.61-1.084l-.62-2.21 5.18-1.42c.28-.08.5-.28.6-.55.1-.27.06-.57-.1-.8l-8.27-11.82zm-11.44 18.45l-1.818-2.598.825-.61 1.817 2.597-.824.612zm7.664-.625l-.39-1.38 5.032-1.38.383 1.38-5.025 1.4zm-6.104-1.64l-.73-1.04 9.85-13.13 6.85 9.8-15.97 4.38zM20.83 88.88c.164 0 .328-.076.438-.214l2.606-3.29c.186-.238.14-.578-.1-.762-.242-.18-.59-.137-.774.1L20.393 88c-.186.24-.14.578.103.762.098.077.218.114.334.114zm9.15 4.86c-.086-.29-.394-.456-.684-.37l-4.076 1.14c-.29.084-.458.388-.374.677.035.12.11.22.203.287.13.096.31.13.48.08l4.07-1.144c.29-.087.46-.387.37-.674zm-7.122-1.91c.073.097.175.17.286.203.156.05.335.03.48-.066l3.513-2.338c.25-.17.313-.51.143-.76-.172-.25-.518-.31-.768-.14l-3.51 2.34c-.252.17-.314.51-.144.76zm0 0" fill="#fff"/><path d="M17.386 126.936c-.163-.235-.432-.375-.714-.38h-.03c-.277 0-.54.133-.71.358l-10.088 13.45c-.287-.315-.805-.392-1.178-.137l-2.277 1.625c-.2.132-.33.33-.38.563-.05.23 0 .463.14.66l2.83 4.043c.13.192.34.328.57.367l.16.015c.18 0 .36-.052.51-.16l2.28-1.623c.19-.132.32-.334.37-.564.03-.195 0-.394-.09-.565l2.7-.74.63 2.248c.11.372.46.636.86.636l.25-.035 6.74-1.884c.47-.132.75-.62.61-1.084l-.62-2.21 5.18-1.42c.28-.08.5-.28.6-.55.1-.27.06-.57-.1-.8l-8.27-11.82zm-11.44 18.45l-1.818-2.598.825-.61 1.817 2.597-.824.612zm7.664-.625l-.39-1.38 5.032-1.38.383 1.38-5.025 1.4zm-6.104-1.64l-.73-1.04 9.85-13.13 6.85 9.8-15.97 4.38zm13.324-14.24c.164 0 .328-.07.438-.21l2.606-3.29c.186-.24.14-.58-.1-.76-.242-.18-.59-.13-.774.1L20.393 128c-.186.24-.14.578.103.762.098.077.218.114.334.114zm9.15 4.86c-.086-.29-.394-.45-.684-.37l-4.075 1.15c-.29.09-.45.39-.37.68.04.12.11.22.21.29.14.1.31.13.48.08l4.08-1.14c.29-.08.46-.38.38-.67zm-7.122-1.91c.073.1.175.17.286.21.156.05.335.03.48-.06l3.513-2.34c.25-.17.313-.5.143-.75-.172-.24-.518-.3-.768-.14l-3.51 2.34c-.252.17-.314.51-.144.76zm0 0" fill="#206FAC"/></g></svg>