<svg width="82" height="289" viewBox="0 0 82 289" xmlns="http://www.w3.org/2000/svg"><g fill="none"><path d="M79.61 27.58v-1.535h.45l.545 1.087.11.228.124-.248.55-1.068h.39v1.535h-.3v-1.29l-.67 1.28h-.27l-.65-1.3v1.3h-.29zm-1.366 0v-1.353h-.754v-.182h1.815v.182h-.754v1.353h-.3zM40.792 38.7c-7.804 0-14.422-4.913-16.883-11.89l-1.03.352-1.02.354C24.55 35.414 32 41 40.79 41c8.746 0 16.21-5.645 18.94-13.45l-2.036-.77C55.22 33.71 48.57 38.7 40.79 38.7zM26.878 22.562l-2.456-.45c-1.244.952-2.662.54-3.112-.88h6.137v3.907h2.815v-1.85c.353 2 2.926 2.67 4.315 1.18 0 .44-.05.95-.184 1.37-.445 1.08-1.935 1.08-2.706.35l-1.75 2.28c1.116.89 2.247 1.32 3.69 1.18 1.188-.12 2-.33 2.908-1.16.69-.78 1.116-1.59 1.116-2.63v-9.62h-3.16v5.32c0 1.06-1.4 1.06-1.4 0v-5.32h-2.82V12.7h-2.82v6.315c-1.05-2.07-2.84-3.13-5.1-2.81-1.62.365-2.82 1.272-3.44 2.802-.56-1.816-1.91-2.78-3.76-2.877-1.96 0-3.43.97-4.02 2.877-.99-2.2-2.99-3.26-5.35-2.72-1.41.45-2.23 1.2-2.94 2.53V12.7H0v12.44h2.814v-2.692c1.056 1.706 2.354 2.647 4.24 2.686 2.008-.12 3.15-1.082 4.206-2.878v2.883h2.817v-5.33c0-1.07 1.76-1.07 1.76 0v5.33H19v-2.71c.353 1.47 1.623 2.36 3.18 2.76 3.404.32 4.68-2.04 4.697-2.64zm-20-.05C5.84 22.512 5 21.657 5 20.61c0-1.042.84-1.896 1.88-1.896 1.036 0 1.878.854 1.878 1.897 0 1.05-.84 1.91-1.878 1.91zm18.016-2.343h-3.65c.565-1.78 3.062-1.78 3.65 0zm56.996 1.56l-.133.11c-.528.43-1.31.23-1.584-.36-.283-.86-.136-1.68-.136-2.75h1.954v-2.48h-2.11v-1.78h-2.81v4.54c-.35-1.26-1.24-1.98-2.47-2.55-2.46-.88-4.78.15-5.86 2.55-.43-1.26-1.06-2.03-2.25-2.6-2.37-.84-4.66.15-5.48 2.59-.65-1.53-1.58-2.34-3.2-2.79-2.19-.37-3.94.59-4.99 2.59v-6.1h-3.17v6.12c-.35-.75-.73-1.29-1.37-1.82-3.04-2.23-7.08-.01-7.08 3.74v7.94h3.04c0-.71-.09-3.91-.09-3.91l.25.13c2.22.57 4.55-.56 5.26-2.31v2.53h3.17V22.6c.71 1.83 2.47 2.886 4.5 2.74.94.06 1.71-2.37 1.72-1.674L59 25.49h1.986l2.72-.19v-5.5c0-1.144 1.943-1.327 2.04-.155.023 1.8.1 3.718.1 5.494h2.787v-2.71c.703 1.23 1.32 1.94 2.51 2.53 2.353.77 4.84.39 5.76-2.5l-2.468-.49c-.57.86-2.59 1.03-3.236-.75h5.98c0 1.42.02 2.57 1.3 3.51 1.27.93 3.55.07 3.53-.53l-.11-2.48zm-36.052.83c-1.035 0-1.88-.86-1.88-1.9s.845-1.9 1.88-1.9 1.88.86 1.88 1.9-.845 1.9-1.88 1.9zm10.967 0c-1.036 0-1.878-.86-1.878-1.9s.84-1.9 1.878-1.9c1.035 0 1.88.86 1.88 1.9s-.845 1.9-1.88 1.9zm14.36-2.4c.49-1.78 3.03-1.78 3.598 0h-3.598zM40.805 2.34c7.802 0 14.424 5 16.885 12.108l1.027-.358 1.02-.362C57.05 5.69 49.595 0 40.8 0c-8.745 0-16.212 5.75-18.94 13.7l2.038.783c2.477-7.06 9.128-12.138 16.907-12.138zm0 0" fill="#3A434E"/><path d="M79.61 76.58v-1.535h.45l.545 1.087.11.228.124-.248.55-1.068h.39v1.535h-.3v-1.29l-.67 1.28h-.27l-.65-1.3v1.3h-.29zm-1.366 0v-1.353h-.754v-.182h1.815v.182h-.754v1.353h-.3zM40.792 87.7c-7.804 0-14.422-4.913-16.883-11.89l-1.03.352-1.02.354C24.55 84.414 32 90 40.79 90c8.746 0 16.21-5.645 18.94-13.45l-2.036-.77C55.22 82.71 48.57 87.7 40.79 87.7zM26.878 71.562l-2.456-.45c-1.244.952-2.662.54-3.112-.88h6.137v3.907h2.815v-1.85c.353 2 2.926 2.67 4.315 1.18 0 .44-.05.95-.184 1.37-.445 1.08-1.935 1.08-2.706.35l-1.75 2.28c1.116.89 2.247 1.32 3.69 1.18 1.188-.12 2-.33 2.908-1.16.69-.78 1.116-1.59 1.116-2.63v-9.62h-3.16v5.32c0 1.06-1.4 1.06-1.4 0v-5.32h-2.82V61.7h-2.82v6.315c-1.05-2.07-2.84-3.13-5.1-2.81-1.62.365-2.82 1.272-3.44 2.802-.56-1.816-1.91-2.78-3.76-2.877-1.96 0-3.43.97-4.02 2.877-.99-2.2-2.99-3.26-5.35-2.72-1.41.45-2.23 1.2-2.94 2.53V61.7H0v12.44h2.814v-2.692c1.056 1.706 2.354 2.647 4.24 2.686 2.008-.12 3.15-1.082 4.206-2.878v2.883h2.817v-5.33c0-1.07 1.76-1.07 1.76 0v5.33H19v-2.71c.353 1.47 1.623 2.36 3.18 2.76 3.404.32 4.68-2.04 4.697-2.64zm-20-.05C5.84 71.512 5 70.657 5 69.61c0-1.042.84-1.896 1.88-1.896 1.036 0 1.878.854 1.878 1.897 0 1.05-.84 1.91-1.878 1.91zm18.016-2.343h-3.65c.565-1.78 3.062-1.78 3.65 0zm56.996 1.56l-.133.11c-.528.43-1.31.23-1.584-.36-.283-.86-.136-1.68-.136-2.75h1.954v-2.48h-2.11v-1.78h-2.81v4.54c-.35-1.26-1.24-1.98-2.47-2.55-2.46-.88-4.78.15-5.86 2.55-.43-1.26-1.06-2.03-2.25-2.6-2.37-.84-4.66.15-5.48 2.59-.65-1.53-1.58-2.34-3.2-2.79-2.19-.37-3.94.59-4.99 2.59v-6.1h-3.17v6.12c-.35-.75-.73-1.29-1.37-1.82-3.04-2.23-7.08-.01-7.08 3.74v7.94h3.04c0-.71-.09-3.91-.09-3.91l.25.13c2.22.57 4.55-.56 5.26-2.31v2.53h3.17V71.6c.71 1.83 2.47 2.886 4.5 2.74.94.06 1.71-2.37 1.72-1.674L59 74.49h1.986l2.72-.19v-5.5c0-1.144 1.943-1.327 2.04-.155.023 1.8.1 3.718.1 5.494h2.787v-2.71c.703 1.23 1.32 1.94 2.51 2.53 2.353.77 4.84.39 5.76-2.5l-2.468-.49c-.57.86-2.59 1.03-3.236-.75h5.98c0 1.42.02 2.57 1.3 3.51 1.27.93 3.55.07 3.53-.53l-.11-2.48zm-36.052.83c-1.035 0-1.88-.86-1.88-1.9s.845-1.9 1.88-1.9 1.88.86 1.88 1.9-.845 1.9-1.88 1.9zm10.967 0c-1.036 0-1.878-.86-1.878-1.9s.84-1.9 1.878-1.9c1.035 0 1.88.86 1.88 1.9s-.845 1.9-1.88 1.9zm14.36-2.4c.49-1.78 3.03-1.78 3.598 0h-3.598zm-30.36-17.82c7.802 0 14.424 5 16.885 12.11l1.027-.36 1.02-.36C57.05 54.69 49.595 49 40.8 49c-8.745 0-16.212 5.75-18.94 13.7l2.038.783c2.477-7.06 9.128-12.138 16.907-12.138zm0 0" fill="#67737B"/><path d="M79.61 125.58v-1.535h.45l.545 1.087.11.228.124-.248.55-1.068h.39v1.535h-.3v-1.29l-.67 1.28h-.27l-.66-1.31v1.3h-.29zm-1.366 0v-1.353h-.754v-.182h1.815v.182h-.754v1.353h-.3zM40.792 136.7c-7.804 0-14.422-4.913-16.883-11.89l-1.03.352-1.02.354C24.55 133.414 32 139 40.79 139c8.746 0 16.21-5.645 18.94-13.45l-2.036-.77c-2.478 6.93-9.128 11.92-16.908 11.92zm-13.914-16.137l-2.456-.45c-1.244.952-2.662.54-3.112-.88h6.137v3.907h2.815v-1.848c.353 1.998 2.926 2.676 4.315 1.184 0 .438-.05.954-.184 1.374-.445 1.08-1.935 1.08-2.706.356l-1.75 2.283c1.116.89 2.247 1.32 3.69 1.18 1.188-.12 2-.33 2.908-1.16.69-.78 1.116-1.59 1.116-2.63v-9.63h-3.16v5.32c0 1.06-1.4 1.06-1.4 0v-5.33h-2.82v-3.55h-2.82V117c-1.05-2.06-2.84-3.125-5.1-2.805-1.62.367-2.82 1.274-3.44 2.804-.56-1.82-1.91-2.78-3.76-2.88-1.96 0-3.43.97-4.02 2.87-.99-2.2-2.99-3.27-5.35-2.72-1.41.45-2.23 1.2-2.94 2.53v-6.12H0v12.43h2.814v-2.69c1.056 1.71 2.354 2.65 4.24 2.69 2.008-.12 3.15-1.09 4.206-2.88v2.88h2.817v-5.33c0-1.07 1.76-1.07 1.76 0v5.33H19v-2.71c.353 1.47 1.623 2.36 3.18 2.77 3.404.32 4.68-2.04 4.697-2.64zm-20-.05c-1.037 0-1.877-.855-1.877-1.902 0-1.04.84-1.89 1.88-1.89s1.88.86 1.88 1.9c0 1.05-.84 1.9-1.88 1.9zm18.016-2.343h-3.65c.565-1.778 3.062-1.778 3.65 0zm56.996 1.56l-.133.118c-.528.433-1.31.236-1.584-.36-.283-.854-.136-1.677-.136-2.743h1.954v-2.486h-2.11v-1.78h-2.81v4.54c-.35-1.26-1.24-1.98-2.47-2.55-2.46-.88-4.78.15-5.86 2.54-.43-1.26-1.06-2.03-2.25-2.6-2.37-.84-4.66.15-5.48 2.59-.65-1.53-1.58-2.34-3.2-2.79-2.19-.37-3.94.59-4.99 2.59v-6.12h-3.17v6.12c-.35-.75-.73-1.28-1.37-1.82-3.04-2.23-7.08-.01-7.08 3.74v7.94h3.04c0-.71-.09-3.91-.09-3.91l.25.14c2.22.57 4.55-.56 5.26-2.31v2.53h3.17v-2.52c.71 1.83 2.47 2.89 4.5 2.74.94.06 1.71-2.37 1.72-1.67l-.02 1.82H61l2.72-.19v-5.5c0-1.15 1.942-1.33 2.04-.16.022 1.8.1 3.72.1 5.49h2.786v-2.71c.704 1.23 1.32 1.94 2.51 2.53 2.354.77 4.84.39 5.76-2.5l-2.467-.49c-.57.86-2.59 1.03-3.24-.75h5.98c0 1.42.02 2.57 1.3 3.51 1.27.93 3.55.07 3.53-.53l-.11-2.48zm-36.052.833c-1.035 0-1.88-.856-1.88-1.9 0-1.04.845-1.898 1.88-1.898s1.88.858 1.88 1.9c0 1.042-.845 1.898-1.88 1.898zm10.967 0c-1.036 0-1.878-.856-1.878-1.9 0-1.04.84-1.898 1.878-1.898 1.035 0 1.88.858 1.88 1.9 0 1.042-.845 1.898-1.88 1.898zm14.36-2.393c.49-1.778 3.03-1.778 3.598 0h-3.598zm-30.36-17.825c7.802 0 14.424 5 16.885 12.108l1.027-.358 1.02-.362C57.05 103.69 49.595 98 40.8 98c-8.745 0-16.212 5.75-18.94 13.7l2.038.783c2.477-7.06 9.128-12.138 16.907-12.138zm0 0" fill="#fff"/><path d="M79.61 174.58v-1.535h.45l.545 1.087.11.228.124-.248.55-1.068h.39v1.535h-.3v-1.29l-.67 1.28h-.27l-.66-1.31v1.3h-.29zm-1.366 0v-1.353h-.754v-.182h1.815v.182h-.754v1.353h-.3zM40.792 185.7c-7.804 0-14.422-4.913-16.883-11.89l-1.03.352-1.02.354C24.55 182.414 32 188 40.79 188c8.746 0 16.21-5.645 18.94-13.45l-2.036-.77c-2.478 6.93-9.128 11.92-16.908 11.92zm-13.914-16.137l-2.456-.45c-1.244.952-2.662.54-3.112-.88h6.137v3.907h2.815v-1.848c.353 1.998 2.926 2.676 4.315 1.184 0 .438-.05.954-.184 1.374-.445 1.08-1.935 1.08-2.706.356l-1.75 2.283c1.116.89 2.247 1.32 3.69 1.18 1.188-.12 2-.33 2.908-1.16.69-.78 1.116-1.59 1.116-2.63v-9.63h-3.16v5.32c0 1.06-1.4 1.06-1.4 0v-5.33h-2.82v-3.55h-2.82V166c-1.05-2.06-2.84-3.125-5.1-2.805-1.62.367-2.82 1.274-3.44 2.804-.56-1.82-1.91-2.78-3.76-2.88-1.96 0-3.43.97-4.02 2.87-.99-2.2-2.99-3.27-5.35-2.72-1.41.45-2.23 1.2-2.94 2.53v-6.12H0v12.43h2.814v-2.69c1.056 1.71 2.354 2.65 4.24 2.69 2.008-.12 3.15-1.09 4.206-2.88v2.88h2.817v-5.33c0-1.07 1.76-1.07 1.76 0v5.33H19v-2.71c.353 1.47 1.623 2.36 3.18 2.77 3.404.32 4.68-2.04 4.697-2.64zm-20-.05c-1.037 0-1.877-.855-1.877-1.902 0-1.04.84-1.89 1.88-1.89s1.88.86 1.88 1.9c0 1.05-.84 1.9-1.88 1.9zm18.016-2.343h-3.65c.565-1.778 3.062-1.778 3.65 0zm56.996 1.56l-.133.118c-.528.433-1.31.236-1.584-.36-.283-.854-.136-1.677-.136-2.743h1.954v-2.486h-2.11v-1.78h-2.81v4.54c-.35-1.26-1.24-1.98-2.47-2.55-2.46-.88-4.78.15-5.86 2.54-.43-1.26-1.06-2.03-2.25-2.6-2.37-.84-4.66.15-5.48 2.59-.65-1.53-1.58-2.34-3.2-2.79-2.19-.37-3.94.59-4.99 2.59v-6.12h-3.17v6.12c-.35-.75-.73-1.28-1.37-1.82-3.04-2.23-7.08-.01-7.08 3.74v7.94h3.04c0-.71-.09-3.91-.09-3.91l.25.14c2.22.57 4.55-.56 5.26-2.31v2.53h3.17v-2.52c.71 1.83 2.47 2.89 4.5 2.74.94.06 1.71-2.37 1.72-1.67l-.02 1.82H61l2.72-.19v-5.5c0-1.15 1.942-1.33 2.04-.16.022 1.8.1 3.72.1 5.49h2.786v-2.71c.704 1.23 1.32 1.94 2.51 2.53 2.354.77 4.84.39 5.76-2.5l-2.467-.49c-.57.86-2.59 1.03-3.24-.75h5.98c0 1.42.02 2.57 1.3 3.51 1.27.93 3.55.07 3.53-.53l-.11-2.48zm-36.052.833c-1.035 0-1.88-.856-1.88-1.9 0-1.04.845-1.898 1.88-1.898s1.88.858 1.88 1.9c0 1.042-.845 1.898-1.88 1.898zm10.967 0c-1.036 0-1.878-.856-1.878-1.9 0-1.04.84-1.898 1.878-1.898 1.035 0 1.88.858 1.88 1.9 0 1.042-.845 1.898-1.88 1.898zm14.36-2.393c.49-1.778 3.03-1.778 3.598 0h-3.598zm-30.36-17.825c7.802 0 14.424 5 16.885 12.108l1.027-.358 1.02-.362C57.05 152.69 49.595 147 40.8 147c-8.745 0-16.212 5.75-18.94 13.7l2.038.783c2.477-7.06 9.128-12.138 16.907-12.138zm0 0" fill="#206FAC"/></g></svg>