<svg width="32" height="232" viewBox="0 0 32 232" xmlns="http://www.w3.org/2000/svg"><g fill="none"><path d="M25 145.588h-8.402L10.6 150v-4.412H7c-1.65 0-3-1.323-3-2.94V127.94c0-1.617 1.35-2.94 3-2.94h18c1.648 0 3 1.323 3 2.94v14.707c0 1.618-1.35 2.94-3 2.94zm-13.856-6.154h2.705v-11.28h-2.71v11.28zm11.14-5.737c-.34-.664-.703-1.135-1.29-1.606-2.773-1.97-6.423 0-6.49 3.32v7.03h2.617v-3.46l.3.13c2.43.48 4.13-.48 4.87-2.04.84-1.75 0-3.35 0-3.35zm-3.618 3.308c-.948 0-1.723-.756-1.723-1.69 0-.935.775-1.69 1.723-1.69.953 0 1.73.755 1.73 1.69 0 .934-.777 1.69-1.73 1.69zm0 0" fill="#206FAC"/><path d="M25 105.588h-8.402L10.6 110v-4.412H7c-1.65 0-3-1.323-3-2.94V87.94C4 86.324 5.35 85 7 85h18c1.648 0 3 1.323 3 2.94v14.707c0 1.618-1.35 2.94-3 2.94zm-13.856-6.154h2.705v-11.28h-2.71v11.28zm11.14-5.737c-.34-.664-.703-1.135-1.29-1.606-2.773-1.97-6.423 0-6.49 3.32v7.03h2.617v-3.47l.3.13c2.43.48 4.13-.48 4.87-2.04.84-1.75 0-3.35 0-3.35zm-3.618 3.308c-.948 0-1.723-.756-1.723-1.69 0-.935.775-1.69 1.723-1.69.953 0 1.73.755 1.73 1.69 0 .934-.777 1.69-1.73 1.69zm0 0" fill="#fff"/><path d="M25 65.088h-8.402L10.6 69.5v-4.412H7c-1.65 0-3-1.323-3-2.94V47.44c0-1.617 1.35-2.94 3-2.94h18c1.648 0 3 1.323 3 2.94v14.707c0 1.618-1.35 2.94-3 2.94zm-13.856-6.154h2.705v-11.28h-2.71v11.28zm11.14-5.737c-.34-.664-.703-1.135-1.29-1.606-2.773-1.97-6.423 0-6.49 3.32v7.03h2.617v-3.47l.3.13c2.43.48 4.13-.48 4.87-2.04.84-1.75 0-3.35 0-3.35zm-3.618 3.308c-.948 0-1.723-.756-1.723-1.69 0-.935.775-1.69 1.723-1.69.953 0 1.73.755 1.73 1.69 0 .934-.777 1.69-1.73 1.69zm0 0" fill="#67737B"/><path d="M25 25.588h-8.402L10.6 30v-4.412H7c-1.65 0-3-1.323-3-2.94V7.94C4 6.324 5.35 5 7 5h18c1.648 0 3 1.323 3 2.94v14.707c0 1.618-1.35 2.94-3 2.94zm-13.856-6.154h2.705V8.154h-2.71v11.28zm11.14-5.737c-.34-.664-.703-1.135-1.29-1.606-2.773-1.97-6.423 0-6.49 3.32v7.03h2.617v-3.47l.3.13c2.43.48 4.13-.48 4.87-2.04.84-1.75 0-3.35 0-3.35zm-3.618 3.308c-.948 0-1.723-.756-1.723-1.69 0-.935.775-1.69 1.723-1.69.953 0 1.73.755 1.73 1.69 0 .934-.777 1.69-1.73 1.69zm0 0" fill="#3A434E"/></g></svg>