<svg width="32" height="232" viewBox="0 0 32 232" xmlns="http://www.w3.org/2000/svg"><g fill="none"><path d="M16.123 124c-5.162 0-9.623 3.505-9.623 7.832v12.555c0 2.596 2.212 4.613 4.838 4.613h9.525c2.625 0 4.637-2.017 4.637-4.613v-12.555c0-4.327-4.17-7.832-9.377-7.832zm1.855 20.59c.028.104.004.217-.065.304-.068.09-.17.138-.283.138h-3.062c-.11 0-.213-.05-.28-.138-.072-.087-.093-.2-.064-.305l.864-3.26c-.593-.35-.964-.98-.964-1.68 0-1.08.886-1.96 1.978-1.96 1.086 0 1.974.87 1.974 1.95 0 .69-.37 1.32-.962 1.67l.865 3.25zm4.577-11.197H9.71v-1.56c0-2.597 3.034-4.71 6.422-4.71 3.368 0 6.422 2.113 6.422 4.71v1.56zm0 0" fill="#206FAC"/><path d="M16.123 84C10.96 84 6.5 87.505 6.5 91.832v12.555c0 2.596 2.212 4.613 4.838 4.613h9.525c2.625 0 4.637-2.017 4.637-4.613V91.832c0-4.327-4.17-7.832-9.377-7.832zm1.855 20.59c.028.104.004.217-.065.304-.068.09-.17.138-.283.138h-3.062c-.11 0-.213-.05-.28-.138-.072-.087-.093-.2-.064-.305l.864-3.26c-.593-.35-.964-.98-.964-1.68 0-1.08.886-1.96 1.978-1.96 1.086 0 1.974.87 1.974 1.95 0 .69-.37 1.32-.962 1.67l.865 3.25zm4.577-11.197H9.71v-1.56c0-2.597 3.034-4.71 6.422-4.71 3.368 0 6.422 2.113 6.422 4.71v1.56zm0 0" fill="#fff"/><path d="M16.123 44C10.96 44 6.5 47.505 6.5 51.832v12.555C6.5 66.983 8.712 69 11.338 69h9.525c2.625 0 4.637-2.017 4.637-4.613V51.832c0-4.327-4.17-7.832-9.377-7.832zm1.855 20.59c.028.104.004.217-.065.304-.068.09-.17.138-.283.138h-3.062c-.11 0-.213-.05-.28-.138-.072-.087-.093-.2-.064-.305l.864-3.26c-.593-.35-.964-.98-.964-1.68 0-1.08.886-1.96 1.978-1.96 1.086 0 1.974.87 1.974 1.95 0 .69-.37 1.32-.962 1.67l.865 3.25zm4.577-11.197H9.71v-1.56c0-2.597 3.034-4.71 6.422-4.71 3.368 0 6.422 2.113 6.422 4.71v1.56zm0 0" fill="#67737B"/><path d="M16.123 4C10.96 4 6.5 7.505 6.5 11.832v12.555C6.5 26.983 8.712 29 11.338 29h9.525c2.625 0 4.637-2.017 4.637-4.613V11.832C25.5 7.505 21.33 4 16.123 4zm1.855 20.59c.028.104.004.217-.065.304-.068.09-.17.138-.283.138h-3.062c-.11 0-.213-.05-.28-.138-.072-.087-.093-.2-.064-.305l.864-3.26c-.593-.35-.964-.98-.964-1.68 0-1.08.886-1.96 1.978-1.96 1.086 0 1.974.87 1.974 1.95 0 .69-.37 1.32-.962 1.67l.865 3.25zm4.577-11.197H9.71v-1.56c0-2.597 3.034-4.71 6.422-4.71 3.368 0 6.422 2.113 6.422 4.71v1.56zm0 0" fill="#3A434E"/></g></svg>