<svg width="32" height="232" viewBox="0 0 32 232" xmlns="http://www.w3.org/2000/svg"><g fill="none"><path d="M30.252 127.018c-4.08-1.373-8.506-1.372-12.585 0-.8.27-1.45 1.09-1.667 1.918-.216-.83-.867-1.65-1.665-1.918-4.08-1.373-8.51-1.372-12.59 0-.98.328-1.745 1.49-1.745 2.473v17.29c0 .99.765 1.43 1.746 1.11 4.08-1.37 8.51-1.37 12.59 0 .207.07.402.1.587.1v.01h2.144v-.01c.185 0 .385-.03.6-.1 4.08-1.37 8.506-1.37 12.585 0 .98.33 1.748-.11 1.748-1.1V129.5c0-.99-.77-2.15-1.748-2.48zm-16.19 18.026c-3.914-1.256-8.13-1.256-12.043 0v-7.438c3.91-1.253 8.12-1.253 12.04 0v7.438zm0-9.807c-3.914-1.254-8.13-1.254-12.043 0v-1.91c3.91-1.253 8.12-1.253 12.04 0v1.91zm0-3.754c-3.914-1.256-8.13-1.256-12.043 0v-1.91c3.91-1.252 8.12-1.252 12.04 0v1.91zm3.52-1.99c1.242-.423 2.517-.722 3.805-.89v5.484c-1.288.17-2.564.466-3.804.89v-5.485zm8.99 12.12c-3.008-.402-6.09-.106-8.99.885v-1.685c2.9-.993 5.98-1.287 8.99-.886v1.686zm3.796-2.888c-4.14-1.42-8.646-1.418-12.785.002v-1.633c4.14-1.427 8.646-1.432 12.785-.02v1.65zm0-3.768c-2.2-.748-4.505-1.08-6.8-1.025v-1.654c2.295-.05 4.6.292 6.8 1.044v1.635zm0 0" fill="#206FAC"/><path d="M30.252 87.018c-4.08-1.373-8.506-1.372-12.585 0-.8.27-1.45 1.09-1.667 1.918-.216-.83-.867-1.65-1.665-1.918-4.08-1.373-8.51-1.372-12.59 0C.765 87.348 0 88.51 0 89.492v17.29c0 .987.765 1.43 1.746 1.102 4.08-1.374 8.51-1.374 12.59 0 .207.07.402.1.587.1V108h2.144v-.017c.185 0 .385-.028.6-.1 4.08-1.375 8.506-1.375 12.585 0 .98.328 1.748-.116 1.748-1.104V89.49c0-.983-.77-2.144-1.748-2.472zm-16.19 18.026c-3.914-1.256-8.13-1.256-12.043 0v-7.438c3.91-1.253 8.12-1.253 12.04 0v7.438zm0-9.807c-3.914-1.254-8.13-1.254-12.043 0v-1.91c3.91-1.253 8.12-1.253 12.04 0v1.91zm0-3.754c-3.914-1.256-8.13-1.256-12.043 0v-1.91c3.91-1.252 8.12-1.252 12.04 0v1.91zm3.52-1.99c1.242-.423 2.517-.722 3.805-.89v5.484c-1.288.17-2.564.466-3.804.89v-5.485zm8.99 12.12c-3.008-.402-6.09-.106-8.99.885v-1.685c2.9-.993 5.98-1.287 8.99-.886v1.686zm3.796-2.888c-4.14-1.42-8.646-1.418-12.785.002v-1.633c4.14-1.427 8.646-1.432 12.785-.02v1.65zm0-3.768c-2.2-.748-4.505-1.08-6.8-1.025v-1.654c2.295-.05 4.6.292 6.8 1.044v1.635zm0 0" fill="#fff"/><path d="M30.252 47.018c-4.08-1.373-8.506-1.372-12.585 0-.8.27-1.45 1.09-1.667 1.918-.216-.83-.867-1.65-1.665-1.918-4.08-1.373-8.51-1.372-12.59 0C.765 47.348 0 48.51 0 49.492v17.29c0 .987.765 1.43 1.746 1.102 4.08-1.374 8.51-1.374 12.59 0 .207.07.402.1.587.1V68h2.144v-.017c.185 0 .385-.028.6-.1 4.08-1.375 8.506-1.375 12.585 0 .98.328 1.748-.116 1.748-1.104V49.49c0-.983-.77-2.144-1.748-2.472zm-16.19 18.026c-3.914-1.256-8.13-1.256-12.043 0v-7.438c3.91-1.253 8.12-1.253 12.04 0v7.438zm0-9.807c-3.914-1.254-8.13-1.254-12.043 0v-1.91c3.91-1.253 8.12-1.253 12.04 0v1.91zm0-3.754c-3.914-1.256-8.13-1.256-12.043 0v-1.91c3.91-1.252 8.12-1.252 12.04 0v1.91zm3.52-1.99c1.242-.423 2.517-.722 3.805-.89v5.484c-1.288.17-2.564.466-3.804.89v-5.485zm8.99 12.12c-3.008-.402-6.09-.106-8.99.885v-1.685c2.9-.993 5.98-1.287 8.99-.886v1.686zm3.796-2.888c-4.14-1.42-8.646-1.418-12.785.002v-1.633c4.14-1.427 8.646-1.432 12.785-.02v1.65zm0-3.768c-2.2-.748-4.505-1.08-6.8-1.025v-1.654c2.295-.05 4.6.292 6.8 1.044v1.635zm0 0" fill="#67737B"/><path d="M30.252 7.018c-4.08-1.373-8.506-1.372-12.585 0-.8.27-1.45 1.09-1.667 1.918-.216-.83-.867-1.65-1.665-1.918-4.08-1.373-8.51-1.372-12.59 0C.765 7.348 0 8.51 0 9.492v17.29c0 .987.765 1.43 1.746 1.102 4.08-1.374 8.51-1.374 12.59 0 .207.07.402.1.587.1V28h2.144v-.017c.185 0 .385-.028.6-.1 4.08-1.375 8.506-1.375 12.585 0 .98.328 1.748-.116 1.748-1.104V9.49c0-.983-.77-2.144-1.748-2.472zm-16.19 18.026c-3.914-1.256-8.13-1.256-12.043 0v-7.438c3.91-1.253 8.12-1.253 12.04 0v7.438zm0-9.807c-3.914-1.254-8.13-1.254-12.043 0v-1.91c3.91-1.253 8.12-1.253 12.04 0v1.91zm0-3.754c-3.914-1.256-8.13-1.256-12.043 0v-1.91c3.91-1.252 8.12-1.252 12.04 0v1.91zm3.52-1.99c1.242-.423 2.517-.722 3.805-.89v5.484c-1.288.17-2.564.466-3.804.89V9.493zm8.99 12.12c-3.008-.402-6.09-.106-8.99.885v-1.685c2.9-.993 5.98-1.287 8.99-.886v1.686zm3.796-2.888c-4.14-1.42-8.646-1.418-12.785.002v-1.633c4.14-1.427 8.646-1.432 12.785-.02v1.65zm0-3.768c-2.2-.748-4.505-1.08-6.8-1.025v-1.654c2.295-.05 4.6.292 6.8 1.044v1.635zm0 0" fill="#3A434E"/></g></svg>