<svg width="32" height="232" viewBox="0 0 32 232" xmlns="http://www.w3.org/2000/svg"><g fill="none"><path d="M23.07 126.84c1.888 0 3.775.317 5.586.95.872.303 1.556 1.374 1.556 2.282v15.958c0 .713-.418 1.12-1.013 1.12-.17 0-.35-.034-.55-.1-1.81-.635-3.7-.952-5.59-.952-1.89 0-3.78.318-5.59.95-.19.067-.37.093-.53.095v.015h-1.9v-.017c-.16 0-.34-.02-.52-.09-1.82-.63-3.71-.95-5.59-.95-1.89 0-3.78.32-5.59.95-.19.07-.38.1-.55.1-.6 0-1.01-.4-1.01-1.12v-15.95c0-.9.68-1.98 1.55-2.28 1.82-.63 3.71-.95 5.59-.95 1.89 0 3.78.32 5.59.95.71.25 1.29 1.01 1.48 1.77.19-.76.77-1.52 1.48-1.76 1.81-.63 3.7-.95 5.59-.95zm-5.667 8.3c1.105-.393 2.237-.67 3.38-.823v-5.064c-1.143.156-2.275.43-3.38.823v5.063zm-13.82-3.228c1.737-.58 3.542-.87 5.347-.87 1.805 0 3.61.288 5.348.87v-1.764c-1.74-.578-3.543-.867-5.348-.867-1.806 0-3.61.29-5.347.87v1.77zm19.136 2.26l.42-.007c1.9 0 3.79.31 5.61.954v-1.51c-1.84-.66-3.75-.97-5.66-.97h-.38v1.52zM3.58 135.38c1.737-.58 3.542-.87 5.347-.87 1.804 0 3.61.29 5.347.868v-1.762c-1.74-.58-3.543-.867-5.348-.867-1.807 0-3.61.28-5.348.86v1.76zm13.82 3.218c1.84-.656 3.76-.984 5.683-.982 1.92 0 3.836.326 5.673.98v-1.52c-1.83-.65-3.743-.976-5.654-.976-1.927 0-3.857.33-5.703.99v1.508zm-13.82 5.83c1.737-.578 3.54-.87 5.347-.87 1.804 0 3.607.292 5.347.87v-6.865c-1.737-.577-3.543-.866-5.348-.866-1.806 0-3.61.29-5.348.868v6.864zm13.82-2.347c1.835-.65 3.75-.97 5.665-.97.775 0 1.55.06 2.32.16v-1.55c-.77-.11-1.547-.16-2.324-.16-1.91 0-3.82.33-5.66.98v1.56zM23.07 125c-2.1 0-4.178.353-6.168 1.05-.315.11-.62.27-.902.47-.282-.202-.587-.36-.905-.472-1.987-.695-4.06-1.048-6.164-1.048-2.1 0-4.17.353-6.16 1.05-1.58.542-2.77 2.273-2.77 4.022v15.958c0 1.714 1.18 2.96 2.8 2.96.37 0 .74-.065 1.12-.196 1.62-.567 3.31-.854 5.02-.854 1.47 0 2.92.21 4.33.63v.415l1.79.015h3.7v-.426c1.41-.42 2.87-.634 4.34-.634 1.71 0 3.4.287 5.02.852.38.132.75.198 1.12.198 1.62 0 2.8-1.246 2.8-2.96v-15.958c0-1.745-1.19-3.476-2.77-4.024-1.99-.695-4.06-1.048-6.16-1.048zm-17.7 13.96c1.166-.28 2.36-.42 3.56-.42 1.203 0 2.393.14 3.558.42v3.103c-1.17-.228-2.36-.343-3.558-.343-1.2 0-2.387.114-3.56.343v-3.103zm0 0" fill="#206FAC"/><path d="M23.07 86.84c1.888 0 3.775.317 5.586.95.872.303 1.556 1.374 1.556 2.282v15.958c0 .713-.418 1.12-1.013 1.12-.17 0-.35-.034-.55-.1-1.81-.635-3.7-.952-5.59-.952-1.89 0-3.78.318-5.59.95-.19.067-.37.093-.53.095v.015h-1.9v-.017c-.16 0-.34-.02-.52-.09-1.82-.63-3.71-.95-5.59-.95-1.89 0-3.78.32-5.59.95-.19.07-.38.1-.55.1-.6 0-1.01-.4-1.01-1.12V90.08c0-.908.68-1.98 1.55-2.28 1.82-.636 3.71-.952 5.59-.952 1.89 0 3.78.318 5.59.95.71.25 1.29 1.007 1.48 1.77.19-.763.77-1.52 1.48-1.767 1.81-.63 3.7-.95 5.59-.95zm-5.667 8.3c1.105-.393 2.237-.67 3.38-.823v-5.064c-1.143.156-2.275.43-3.38.823v5.063zm-13.82-3.23c1.737-.58 3.542-.87 5.347-.87 1.805 0 3.61.288 5.348.87v-1.764c-1.74-.578-3.543-.867-5.348-.867-1.806 0-3.61.29-5.347.86v1.76zm19.136 2.26l.42-.007c1.9 0 3.79.31 5.61.954v-1.51c-1.84-.652-3.75-.97-5.66-.97l-.38.004v1.53zM3.58 95.38c1.737-.58 3.542-.87 5.347-.87 1.804 0 3.61.29 5.347.868v-1.762c-1.74-.58-3.543-.867-5.348-.867-1.807 0-3.61.28-5.348.86v1.76zm13.82 3.218c1.84-.656 3.76-.984 5.683-.982 1.92 0 3.836.326 5.673.98v-1.52c-1.83-.65-3.743-.976-5.654-.976-1.927 0-3.857.33-5.703.99v1.51zm-13.82 5.83c1.737-.578 3.54-.87 5.347-.87 1.804 0 3.607.292 5.347.87v-6.865c-1.737-.577-3.543-.866-5.348-.866-1.806 0-3.61.29-5.348.868v6.864zm13.82-2.347c1.835-.65 3.75-.97 5.665-.97.775 0 1.55.06 2.32.16v-1.56c-.77-.11-1.547-.16-2.324-.16-1.91 0-3.82.33-5.66.98v1.56zM23.07 85c-2.1 0-4.178.353-6.168 1.05-.315.11-.62.27-.902.47-.282-.202-.587-.36-.905-.472C13.108 85.353 11.035 85 8.93 85c-2.102 0-4.178.353-6.166 1.05C1.19 86.592 0 88.323 0 90.072v15.958c0 1.714 1.177 2.96 2.8 2.96.365 0 .74-.065 1.116-.196 1.62-.567 3.304-.854 5.016-.854 1.467 0 2.918.21 4.323.63v.415l1.788.015h3.694v-.426c1.41-.42 2.863-.634 4.333-.634 1.71 0 3.395.287 5.012.852.375.132.75.198 1.12.198 1.62 0 2.8-1.246 2.8-2.96V90.072c0-1.745-1.19-3.476-2.77-4.024-1.987-.695-4.06-1.048-6.16-1.048zM5.37 98.96c1.166-.28 2.36-.42 3.56-.42 1.203 0 2.393.14 3.558.42v3.103c-1.17-.228-2.36-.343-3.558-.343-1.2 0-2.387.114-3.56.343V98.96zm0 0" fill="#fff"/><path d="M23.07 46.84c1.888 0 3.775.317 5.586.95.872.303 1.556 1.374 1.556 2.282V66.03c0 .713-.418 1.12-1.013 1.12-.17 0-.35-.034-.55-.1-1.81-.635-3.7-.952-5.59-.952-1.89 0-3.78.318-5.59.95-.19.067-.37.093-.53.095v.015h-1.9v-.017c-.16 0-.34-.02-.52-.09-1.82-.63-3.71-.95-5.59-.95-1.89 0-3.78.32-5.59.95-.19.07-.38.1-.55.1-.6 0-1.01-.4-1.01-1.12V50.08c0-.908.68-1.98 1.55-2.28 1.82-.636 3.71-.952 5.59-.952 1.89 0 3.78.318 5.59.95.71.25 1.29 1.007 1.48 1.77.19-.763.77-1.52 1.48-1.767 1.81-.63 3.7-.95 5.59-.95zm-5.667 8.3c1.105-.393 2.237-.67 3.38-.823v-5.064c-1.143.156-2.275.43-3.38.823v5.063zm-13.82-3.23c1.737-.58 3.542-.87 5.347-.87 1.805 0 3.61.288 5.348.87v-1.764c-1.74-.578-3.543-.867-5.348-.867-1.806 0-3.61.29-5.347.86v1.76zm19.136 2.26l.42-.007c1.9 0 3.79.31 5.61.954v-1.51c-1.84-.652-3.75-.97-5.66-.97l-.38.004v1.53zM3.58 55.38c1.737-.58 3.542-.87 5.347-.87 1.804 0 3.61.29 5.347.868v-1.762c-1.74-.58-3.543-.867-5.348-.867-1.807 0-3.61.28-5.348.86v1.76zm13.82 3.218c1.84-.656 3.76-.984 5.683-.982 1.92 0 3.836.326 5.673.98v-1.52c-1.83-.65-3.743-.976-5.654-.976-1.927 0-3.857.33-5.703.99v1.51zm-13.82 5.83c1.737-.578 3.54-.87 5.347-.87 1.804 0 3.607.292 5.347.87v-6.865c-1.737-.577-3.543-.866-5.348-.866-1.806 0-3.61.29-5.348.868v6.864zM17.4 62.08c1.835-.65 3.75-.974 5.665-.974.775 0 1.55.054 2.32.16V59.71c-.77-.11-1.547-.163-2.324-.163-1.91 0-3.82.324-5.66.977v1.557zM23.07 45c-2.1 0-4.178.353-6.168 1.05-.315.11-.62.27-.902.47-.282-.202-.587-.36-.905-.472C13.108 45.353 11.035 45 8.93 45c-2.102 0-4.178.353-6.166 1.05C1.19 46.592 0 48.323 0 50.072V66.03c0 1.714 1.177 2.96 2.8 2.96.365 0 .74-.065 1.116-.196 1.62-.567 3.304-.854 5.016-.854 1.467 0 2.918.21 4.323.63v.415l1.788.015h3.694v-.426c1.41-.42 2.863-.634 4.333-.634 1.71 0 3.395.287 5.012.852.375.132.75.198 1.12.198 1.62 0 2.8-1.246 2.8-2.96V50.072c0-1.745-1.19-3.476-2.77-4.024-1.987-.695-4.06-1.048-6.16-1.048zM5.37 58.96c1.166-.28 2.36-.42 3.56-.42 1.203 0 2.393.14 3.558.42v3.103c-1.17-.228-2.36-.343-3.558-.343-1.2 0-2.387.114-3.56.343V58.96zm0 0" fill="#67737B"/><path d="M23.07 6.84c1.888 0 3.775.317 5.586.95.872.303 1.556 1.374 1.556 2.282V26.03c0 .713-.418 1.12-1.013 1.12-.17 0-.35-.034-.55-.1-1.81-.635-3.7-.952-5.59-.952-1.89 0-3.78.318-5.59.95-.19.067-.37.093-.53.095v.015h-1.9v-.017c-.16 0-.34-.02-.52-.09-1.82-.63-3.71-.95-5.59-.95-1.89 0-3.78.32-5.59.95-.19.07-.38.1-.55.1-.6 0-1.01-.4-1.01-1.12V10.08c0-.908.68-1.98 1.55-2.28 1.82-.636 3.71-.952 5.59-.952 1.89 0 3.78.318 5.59.95.71.25 1.29 1.007 1.48 1.77.19-.763.77-1.52 1.48-1.767 1.81-.63 3.7-.95 5.59-.95zm-5.667 8.3c1.105-.393 2.237-.67 3.38-.823V9.253c-1.143.156-2.275.43-3.38.823v5.063zm-13.82-3.23c1.737-.58 3.542-.87 5.347-.87 1.805 0 3.61.288 5.348.87v-1.764c-1.74-.578-3.543-.867-5.348-.867-1.806 0-3.61.29-5.347.86v1.76zm19.136 2.26l.42-.007c1.9 0 3.79.31 5.61.954v-1.51c-1.84-.652-3.75-.97-5.66-.97l-.38.004v1.53zM3.58 15.38c1.737-.58 3.542-.87 5.347-.87 1.804 0 3.61.29 5.347.868v-1.762c-1.74-.58-3.543-.867-5.348-.867-1.807 0-3.61.28-5.348.86v1.76zm13.82 3.218c1.84-.656 3.76-.984 5.683-.982 1.92 0 3.836.326 5.673.98v-1.52c-1.83-.65-3.743-.976-5.654-.976-1.927 0-3.857.33-5.703.99v1.51zm-13.82 5.83c1.737-.578 3.54-.87 5.347-.87 1.804 0 3.607.292 5.347.87v-6.865c-1.737-.577-3.543-.866-5.348-.866-1.806 0-3.61.29-5.348.868v6.864zM17.4 22.08c1.835-.65 3.75-.974 5.665-.974.775 0 1.55.054 2.32.16V19.71c-.77-.11-1.547-.163-2.324-.163-1.91 0-3.82.324-5.66.977v1.557zM23.07 5c-2.1 0-4.178.353-6.168 1.05-.315.11-.62.27-.902.47-.282-.202-.587-.36-.905-.472C13.108 5.353 11.035 5 8.93 5c-2.102 0-4.178.353-6.166 1.05C1.19 6.592 0 8.323 0 10.072V26.03c0 1.714 1.177 2.96 2.8 2.96.365 0 .74-.065 1.116-.196 1.62-.567 3.304-.854 5.016-.854 1.467 0 2.918.21 4.323.63v.415l1.788.015h3.694v-.426c1.41-.42 2.863-.634 4.333-.634 1.71 0 3.395.287 5.012.852.375.132.75.198 1.12.198 1.62 0 2.8-1.246 2.8-2.96V10.072c0-1.745-1.19-3.476-2.77-4.024C27.245 5.353 25.172 5 23.072 5zM5.37 18.96c1.166-.28 2.36-.42 3.56-.42 1.203 0 2.393.14 3.558.42v3.103c-1.17-.228-2.36-.343-3.558-.343-1.2 0-2.387.114-3.56.343V18.96zm0 0" fill="#3A434E"/></g></svg>