<svg width="32" height="232" viewBox="0 0 32 232" xmlns="http://www.w3.org/2000/svg"><g fill="none"><path d="M27.5 125h-9.798v2.615h5.264l-3.897 3.898c-1.61-1.192-3.52-1.797-5.43-1.797-2.34 0-4.68.893-6.47 2.68-3.57 3.568-3.57 9.355 0 12.928C8.96 147.11 11.3 148 13.64 148s4.68-.89 6.465-2.676c3.24-3.243 3.527-8.313.877-11.892l3.902-3.9-.003 5.265h2.62V125zm-10.243 17.47c-.965.967-2.25 1.5-3.612 1.5-1.367 0-2.65-.533-3.615-1.5-.965-.964-1.497-2.246-1.497-3.61 0-1.366.532-2.65 1.497-3.616.964-.965 2.248-1.495 3.615-1.495 1.363 0 2.647.53 3.612 1.49.966.96 1.496 2.25 1.496 3.61 0 1.36-.53 2.64-1.496 3.61zm0 0" fill="#206FAC"/><path d="M27.5 85h-9.798v2.615h5.264l-3.897 3.898c-1.61-1.192-3.52-1.797-5.43-1.797-2.34 0-4.68.893-6.47 2.68-3.57 3.568-3.57 9.355 0 12.928C8.96 107.11 11.3 108 13.64 108s4.68-.89 6.465-2.676c3.24-3.243 3.527-8.313.877-11.892l3.902-3.9-.003 5.265h2.62V85zm-10.243 17.47c-.965.967-2.25 1.5-3.612 1.5-1.367 0-2.65-.533-3.615-1.5-.965-.964-1.497-2.246-1.497-3.61 0-1.366.532-2.65 1.497-3.616.964-.965 2.248-1.495 3.615-1.495 1.363 0 2.647.53 3.612 1.49.966.96 1.496 2.25 1.496 3.61 0 1.36-.53 2.64-1.496 3.61zm0 0" fill="#fff"/><path d="M27.5 45h-9.798v2.615h5.264l-3.897 3.898c-1.61-1.192-3.52-1.797-5.43-1.797-2.34 0-4.68.893-6.47 2.68-3.57 3.568-3.57 9.355 0 12.928C8.96 67.11 11.3 68 13.64 68s4.68-.89 6.467-2.676c3.24-3.243 3.52-8.313.87-11.892l3.903-3.9-.003 5.265h2.62V45zM17.257 62.47c-.965.967-2.25 1.5-3.612 1.5-1.367 0-2.65-.533-3.615-1.5-.965-.964-1.497-2.246-1.497-3.61 0-1.366.532-2.65 1.497-3.616.964-.965 2.248-1.495 3.615-1.495 1.363 0 2.647.53 3.612 1.49.966.96 1.496 2.25 1.496 3.61 0 1.36-.53 2.64-1.496 3.61zm0 0" fill="#67737B"/><path d="M27.5 5h-9.798v2.615h5.264l-3.897 3.898c-1.61-1.192-3.52-1.797-5.43-1.797-2.34 0-4.68.893-6.47 2.68-3.57 3.568-3.57 9.355 0 12.928C8.96 27.11 11.3 28 13.64 28s4.68-.89 6.467-2.676c3.24-3.243 3.52-8.313.87-11.892l3.903-3.9-.003 5.265h2.62V5zM17.257 22.47c-.965.967-2.25 1.5-3.612 1.5-1.367 0-2.65-.533-3.615-1.5-.965-.964-1.497-2.246-1.497-3.61 0-1.366.532-2.65 1.497-3.616.964-.965 2.248-1.495 3.615-1.495 1.363 0 2.647.53 3.612 1.49.966.96 1.496 2.25 1.496 3.61 0 1.36-.53 2.64-1.496 3.61zm0 0" fill="#3A434E"/></g></svg>