<svg width="32" height="232" viewBox="0 0 32 232" xmlns="http://www.w3.org/2000/svg"><g fill="none"><path d="M11.603 29.93c-.166 0-.33-.057-.462-.166L2.3 22.42c-.164-.138-.26-.34-.26-.556V2.734c0-.28.163-.536.416-.655.256-.12.554-.08.77.09l8.84 7.34c.165.14.26.34.26.55V29.2c0 .28-.162.536-.415.656-.09.045-.2.067-.3.067zm-8.116-8.405l7.393 6.142v-17.25L3.487 4.275v17.25zm8.116 8.406c-.104 0-.21-.02-.307-.06-.254-.12-.416-.37-.416-.65V10.08c0-.215.096-.42.26-.557l8.84-7.343c.216-.18.514-.22.77-.1.253.12.415.374.415.655v19.13c0 .215-.095.418-.26.556l-8.84 7.35c-.132.11-.296.17-.462.17zm.723-19.51v17.25l7.393-6.14V4.28l-7.4 6.14zm16.99 19.52c-.165 0-.328-.05-.46-.16l-8.84-7.34c-.166-.14-.26-.34-.26-.55V2.74c0-.28.16-.54.414-.66.256-.12.555-.08.77.092l8.84 7.342c.165.14.26.342.26.557V29.2c0 .28-.162.536-.415.656-.1.045-.203.067-.308.067zM21.2 21.53l7.395 6.142V10.42L21.2 4.274v17.25zm3.7-5.79c.414 0 .75.34.75.755 0 .414-.336.75-.75.75-.417 0-.754-.336-.754-.75 0-.416.337-.754.753-.754zM6.787 18.91c.79 0 1.43.642 1.43 1.427 0 .786-.64 1.426-1.43 1.426-.786 0-1.425-.64-1.425-1.426 0-.785.64-1.427 1.426-1.427zm.2-.91l-.086-.005c-.41-.047-.71-.423-.67-.84.05-.413.13-.822.22-1.217.11-.407.52-.654.93-.55.41.102.66.515.55.92-.08.33-.14.672-.18 1.018-.04.388-.37.674-.75.674zm15.162 1.156c-.31 0-.59-.182-.71-.48-.16-.39.04-.83.43-.985.41-.16.69-.32.85-.44.34-.23.82-.15 1.05.2.24.35.15.82-.2 1.06-.33.23-.73.44-1.16.61-.09.04-.19.06-.28.06zm-3.12.366l-.13-.01c-.9-.144-1.73-.483-2.49-1.008-.35-.24-.43-.712-.19-1.055.24-.35.71-.43 1.05-.2.56.39 1.19.65 1.86.75.41.06.69.45.62.87-.06.37-.39.64-.75.64zm-4.22-3.25c-.26 0-.52-.134-.66-.377l-.32-.564c-.29-.5-.55-.98-.85-1.35-.27-.32-.22-.8.11-1.07.32-.26.8-.21 1.07.12.38.47.68 1.01.99 1.57l.3.54c.21.36.08.83-.28 1.04-.12.07-.25.11-.38.11zm-6.14-2.125c-.21 0-.41-.082-.56-.242-.29-.308-.27-.788.04-1.073.7-.653 1.56-1.04 2.55-1.15.42-.044.79.253.84.67.04.415-.26.79-.67.837-.67.07-1.22.32-1.69.75-.15.13-.33.2-.52.2zm16.22-4.07c-1.07 0-1.94.87-1.94 1.94 0 1.073 1.94 2.718 1.94 2.718s1.94-1.645 1.94-2.718c0-1.07-.87-1.94-1.94-1.94zm0 2.516c-.34 0-.62-.277-.62-.618 0-.342.28-.62.62-.618.34 0 .61.277.61.62 0 .342-.28.617-.62.616z" fill="#3A434E"/><path d="M11.603 69.93c-.166 0-.33-.057-.462-.166L2.3 62.42c-.164-.138-.26-.34-.26-.556v-19.13c0-.28.163-.536.416-.655.256-.12.554-.08.77.09l8.84 7.34c.165.14.26.34.26.55V69.2c0 .28-.162.536-.415.656-.09.045-.2.067-.3.067zm-8.116-8.405l7.393 6.142v-17.25l-7.393-6.142v17.25zm8.116 8.406c-.104 0-.21-.02-.307-.06-.254-.12-.416-.37-.416-.65V50.08c0-.215.096-.42.26-.557l8.84-7.343c.216-.18.514-.22.77-.1.253.12.415.374.415.655v19.13c0 .215-.095.418-.26.556l-8.84 7.35c-.132.11-.296.17-.462.17zm.723-19.51v17.25l7.393-6.14V44.28l-7.4 6.14zm16.99 19.52c-.165 0-.328-.05-.46-.16l-8.84-7.34c-.166-.14-.26-.34-.26-.55V42.74c0-.28.16-.537.414-.656.256-.12.555-.08.77.098l8.84 7.345c.165.14.26.343.26.558v19.13c0 .28-.162.535-.415.655-.1.046-.203.068-.308.068zM21.2 61.53l7.395 6.142V50.42L21.2 44.274v17.25zm3.7-5.79c.414 0 .75.34.75.755 0 .414-.336.75-.75.75-.417 0-.754-.336-.754-.75 0-.416.337-.754.753-.754zM6.787 58.91c.79 0 1.43.642 1.43 1.427 0 .786-.64 1.426-1.43 1.426-.786 0-1.425-.64-1.425-1.426 0-.785.64-1.427 1.426-1.427zm.2-.91l-.086-.005c-.41-.047-.71-.423-.67-.84.05-.413.13-.822.22-1.217.11-.407.52-.654.93-.55.41.102.66.515.55.92-.08.33-.14.672-.18 1.018-.04.388-.37.674-.75.674zm15.162 1.156c-.31 0-.59-.182-.71-.48-.16-.39.04-.83.43-.985.41-.16.69-.32.85-.44.34-.23.82-.15 1.05.2.24.35.15.82-.2 1.06-.33.23-.73.44-1.16.61-.09.04-.19.06-.28.06zm-3.12.366l-.13-.01c-.9-.144-1.73-.483-2.49-1.008-.35-.24-.43-.712-.19-1.055.24-.35.71-.43 1.05-.2.56.39 1.19.65 1.86.75.41.06.69.45.62.87-.06.37-.39.64-.75.64zm-4.22-3.25c-.26 0-.52-.134-.66-.377l-.32-.564c-.29-.5-.55-.98-.85-1.35-.27-.32-.22-.8.11-1.07.32-.26.8-.21 1.07.12.38.47.68 1.01.99 1.57l.3.54c.21.36.08.83-.28 1.04-.12.07-.25.11-.38.11zm-6.14-2.125c-.21 0-.41-.082-.56-.242-.29-.308-.27-.788.04-1.073.7-.653 1.56-1.04 2.55-1.15.42-.044.79.253.84.67.04.415-.26.79-.67.837-.67.07-1.22.32-1.69.75-.15.13-.33.2-.52.2zm16.22-4.07c-1.07 0-1.94.87-1.94 1.94 0 1.073 1.94 2.718 1.94 2.718s1.94-1.645 1.94-2.718c0-1.07-.87-1.94-1.94-1.94zm0 2.516c-.34 0-.62-.277-.62-.618 0-.342.28-.62.62-.618.34 0 .61.277.61.62 0 .342-.28.617-.62.616z" fill="#67737B"/><path d="M11.603 109.93c-.166 0-.33-.057-.462-.166L2.3 102.42c-.164-.138-.26-.34-.26-.556v-19.13c0-.28.163-.536.416-.655.256-.12.554-.08.77.09l8.84 7.34c.165.14.26.34.26.55v19.13c0 .28-.162.53-.415.65-.09.04-.2.06-.3.06zm-8.116-8.405l7.393 6.142v-17.25l-7.393-6.142v17.25zm8.116 8.406c-.104 0-.21-.02-.307-.06-.254-.12-.416-.37-.416-.65V90.08c0-.215.096-.42.26-.557l8.84-7.343c.216-.18.514-.22.77-.1.253.12.415.374.415.655v19.13c0 .215-.095.418-.26.556l-8.84 7.35c-.132.11-.296.17-.462.17zm.723-19.51v17.25l7.393-6.14V84.28l-7.4 6.14zm16.99 19.52c-.165 0-.328-.05-.46-.16l-8.84-7.34c-.166-.14-.26-.34-.26-.55V82.74c0-.28.16-.537.414-.656.256-.12.555-.08.77.098l8.84 7.345c.165.14.26.343.26.558v19.13c0 .28-.162.535-.415.655-.1.046-.203.068-.308.068zm-8.116-8.41l7.397 6.14V90.42L21.2 84.274v17.25zm3.7-5.79c.416 0 .75.34.75.76s-.334.75-.75.75c-.415 0-.752-.33-.752-.75s.337-.75.753-.75zM6.79 98.91c.79 0 1.43.642 1.43 1.427 0 .786-.64 1.426-1.43 1.426-.786 0-1.425-.64-1.425-1.426 0-.785.64-1.427 1.426-1.427zm.2-.91l-.086-.005c-.416-.047-.715-.423-.67-.84.05-.413.123-.822.22-1.217.105-.407.516-.654.923-.55.407.102.653.515.55.92-.082.33-.144.672-.184 1.018-.043.388-.372.674-.752.674zm15.162 1.156c-.303 0-.59-.182-.707-.48-.153-.39.038-.83.428-.985.41-.16.69-.32.856-.44.34-.23.81-.15 1.05.2s.15.82-.2 1.06c-.33.23-.73.44-1.16.61-.09.04-.19.06-.28.06zm-3.12.366l-.124-.01c-.893-.144-1.73-.483-2.483-1.008-.345-.24-.43-.712-.19-1.055.238-.35.71-.43 1.055-.2.565.39 1.19.65 1.86.75.412.06.692.45.626.87-.06.37-.383.64-.748.64zm-4.213-3.25c-.26 0-.52-.134-.66-.377l-.32-.564c-.28-.5-.55-.98-.85-1.35-.27-.32-.22-.8.11-1.07.32-.26.8-.21 1.06.12.38.47.68 1.01.99 1.57l.3.54c.21.36.08.83-.28 1.04-.12.07-.25.11-.38.11zm-6.15-2.125c-.21 0-.41-.082-.56-.242-.29-.308-.27-.788.04-1.073.7-.653 1.56-1.04 2.55-1.15.42-.044.79.253.84.67.04.415-.26.79-.67.837-.67.07-1.22.32-1.69.75-.15.13-.33.2-.52.2zm16.22-4.07c-1.07 0-1.94.87-1.94 1.94 0 1.073 1.94 2.718 1.94 2.718s1.94-1.645 1.94-2.718c0-1.07-.87-1.94-1.94-1.94zm0 2.516c-.34 0-.62-.277-.62-.618 0-.342.28-.62.62-.618.34 0 .61.277.61.62 0 .342-.28.617-.62.616z" fill="#fff"/><path d="M11.603 149.93c-.166 0-.33-.057-.462-.166L2.3 142.42c-.164-.138-.26-.34-.26-.556v-19.13c0-.28.163-.536.416-.655.256-.12.554-.08.77.09l8.84 7.34c.165.14.26.34.26.55v19.13c0 .28-.162.53-.415.65-.09.04-.2.06-.3.06zm-8.116-8.405l7.393 6.142v-17.25l-7.393-6.142v17.25zm8.116 8.406c-.104 0-.21-.02-.307-.06-.254-.12-.416-.37-.416-.65v-19.13c0-.21.096-.42.26-.55l8.84-7.34c.216-.18.514-.22.77-.1.253.12.415.38.415.66v19.13c0 .22-.095.42-.26.56l-8.84 7.35c-.132.11-.296.17-.462.17zm.723-19.51v17.25l7.393-6.14v-17.25l-7.4 6.14zm16.99 19.52c-.165 0-.328-.05-.46-.16l-8.84-7.34c-.166-.14-.26-.34-.26-.55v-19.13c0-.28.16-.54.414-.65.256-.12.555-.08.77.1l8.84 7.35c.165.14.26.35.26.56v19.13c0 .28-.162.54-.415.66-.1.05-.203.07-.308.07zm-8.116-8.41l7.397 6.14v-17.25l-7.393-6.14v17.25zm3.7-5.79c.416 0 .75.34.75.76s-.334.75-.75.75c-.415 0-.752-.33-.752-.75s.337-.75.753-.75zm-18.11 3.18c.79 0 1.43.65 1.43 1.43s-.64 1.43-1.43 1.43c-.785 0-1.424-.64-1.424-1.42 0-.78.64-1.43 1.426-1.43zm.2-.91l-.084-.01c-.417-.04-.716-.42-.67-.84.048-.41.122-.82.22-1.21.104-.4.515-.65.922-.55.407.11.653.52.55.92-.082.33-.144.68-.184 1.02-.042.39-.37.68-.75.68zm15.16 1.16c-.3 0-.585-.18-.703-.48-.153-.39.038-.83.428-.98.408-.16.69-.33.854-.44.34-.23.81-.15 1.05.2.24.34.15.81-.2 1.05-.33.23-.73.44-1.16.6-.09.04-.19.06-.28.06zm-3.12.37l-.12-.01c-.893-.14-1.73-.48-2.483-1.01-.345-.24-.43-.71-.19-1.05.238-.34.71-.43 1.055-.19.567.4 1.193.65 1.86.76.414.07.694.46.628.87-.06.38-.383.64-.748.64zm-4.21-3.25c-.26 0-.515-.13-.656-.38l-.318-.56c-.282-.5-.548-.98-.847-1.35-.27-.32-.22-.8.11-1.07.32-.26.8-.21 1.06.12.38.47.68 1.01.99 1.57l.3.54c.21.36.08.83-.28 1.04-.12.07-.25.11-.38.11zm-6.146-2.12c-.203 0-.406-.09-.556-.25-.284-.3-.266-.78.04-1.07.706-.65 1.563-1.04 2.55-1.15.42-.04.79.26.838.67.046.42-.254.79-.67.84-.666.08-1.217.32-1.685.76-.14.14-.33.21-.51.21zm16.228-4.07c-1.07 0-1.94.87-1.94 1.94 0 1.07 1.94 2.71 1.94 2.71s1.94-1.64 1.94-2.71-.866-1.94-1.94-1.94zm0 2.51c-.34 0-.617-.28-.617-.62 0-.34.28-.62.62-.61.342 0 .618.28.617.62 0 .34-.28.62-.62.62z" fill="#206FAC"/></g></svg>