<svg width="32" height="232" viewBox="0 0 32 232" xmlns="http://www.w3.org/2000/svg"><g fill="none"><path d="M22.578 127.4c-2.42 0-2.96 1.335-4.187 4.974l-2.36 6.958-2.42-6.958c-1.22-3.64-1.76-4.974-4.18-4.974-1.22 0-2.75.484-3.2 2.898l-1.91 10.4c-.39 2.1-.8 4.4-.8 5.085 0 1.02.84 2.187 2.28 2.187 2.19 0 2.58-1.476 2.82-3.04l1.44-8.978 3.32 9.944c.48 1.477 1.2 2.074 2.66 2.074 1.47 0 2.19-.597 2.67-2.074l3.26-9.944 1.5 8.98c.24 1.562.63 3.038 2.81 3.038 1.44 0 2.27-1.166 2.27-2.187 0-.684-.42-2.985-.81-5.086l-1.91-10.4c-.44-2.413-1.97-2.897-3.2-2.897zm0 0" fill="#206FAC"/><path d="M22.578 87.4c-2.42 0-2.96 1.335-4.187 4.974l-2.36 6.958-2.42-6.958c-1.22-3.64-1.76-4.974-4.18-4.974-1.22 0-2.75.484-3.2 2.898l-1.91 10.4c-.39 2.1-.8 4.4-.8 5.085 0 1.02.84 2.187 2.28 2.187 2.19 0 2.58-1.476 2.82-3.04l1.44-8.978 3.32 9.944c.48 1.477 1.2 2.074 2.66 2.074 1.47 0 2.19-.597 2.67-2.074l3.26-9.944 1.5 8.98c.24 1.562.63 3.038 2.81 3.038 1.438 0 2.27-1.166 2.27-2.187 0-.684-.42-2.985-.81-5.086l-1.91-10.4c-.45-2.413-1.97-2.897-3.2-2.897zm0 0" fill="#fff"/><path d="M22.578 47.4c-2.42 0-2.96 1.335-4.187 4.974l-2.36 6.958-2.42-6.958c-1.22-3.64-1.76-4.974-4.18-4.974-1.22 0-2.75.484-3.2 2.898l-1.91 10.4c-.39 2.1-.8 4.4-.8 5.085 0 1.02.84 2.187 2.28 2.187 2.19 0 2.58-1.476 2.82-3.04l1.44-8.978 3.32 9.944c.48 1.477 1.2 2.074 2.66 2.074 1.47 0 2.19-.597 2.67-2.074l3.26-9.944 1.5 8.98c.24 1.562.63 3.038 2.81 3.038 1.438 0 2.27-1.166 2.27-2.187 0-.684-.42-2.985-.81-5.086l-1.91-10.4c-.45-2.413-1.97-2.897-3.2-2.897zm0 0" fill="#67737B"/><path d="M22.578 7.4c-2.42 0-2.96 1.335-4.187 4.974l-2.36 6.958-2.42-6.958C12.38 8.734 11.84 7.4 9.42 7.4c-1.226 0-2.752.484-3.2 2.898l-1.915 10.4c-.39 2.1-.807 4.4-.807 5.085 0 1.02.838 2.187 2.272 2.187 2.185 0 2.574-1.476 2.813-3.04l1.433-8.978 3.32 9.944c.48 1.477 1.196 2.074 2.66 2.074 1.468 0 2.186-.597 2.665-2.074l3.26-9.944 1.5 8.98c.24 1.562.63 3.038 2.81 3.038 1.44 0 2.27-1.166 2.27-2.187 0-.684-.42-2.985-.81-5.086l-1.91-10.4c-.45-2.412-1.97-2.897-3.2-2.897zm0 0" fill="#3A434E"/></g></svg>