<svg width="32" height="232" viewBox="0 0 32 232" xmlns="http://www.w3.org/2000/svg"><g fill="none"><path d="M21.164 138.8c-.947 0-1.708.717-1.708 1.614 0 .885.76 1.598 1.708 1.598.94 0 1.702-.713 1.702-1.598 0-.897-.762-1.613-1.702-1.613zm1.575-12.78H9.27c-.758 0-1.376.5-1.376 1.107v9.115c0 .612.618 1.102 1.375 1.102h13.47c.75 0 1.36-.49 1.36-1.102v-9.115c0-.608-.61-1.108-1.37-1.108zm3.76 15.595c0 1.213-1.23 2.215-2.75 2.215h-5.41v3.015H21c.6 0 1.098.487 1.098 1.08 0 .59-.5 1.075-1.098 1.075H10.993c-.597 0-1.09-.486-1.09-1.074 0-.594.493-1.08 1.09-1.08h2.77v-3.016h-5.52c-1.505 0-2.743-1.002-2.743-2.215v-15.603c0-1.215 1.238-2.213 2.742-2.213h15.514c1.515 0 2.744.99 2.744 2.21v15.6zM10.83 138.8c-.936 0-1.7.717-1.7 1.614 0 .885.764 1.598 1.7 1.598s1.713-.713 1.713-1.598c0-.897-.776-1.613-1.71-1.613zm0 0" fill="#206FAC"/><path d="M21.164 98.8c-.947 0-1.708.717-1.708 1.614 0 .885.76 1.598 1.708 1.598.94 0 1.702-.713 1.702-1.598 0-.897-.762-1.613-1.702-1.613zm1.575-12.78H9.27c-.758 0-1.376.5-1.376 1.107v9.115c0 .612.618 1.102 1.375 1.102h13.47c.75 0 1.36-.49 1.36-1.102v-9.115c0-.608-.61-1.108-1.37-1.108zm3.76 15.595c0 1.213-1.23 2.215-2.75 2.215h-5.41v3.015H21c.6 0 1.098.487 1.098 1.08 0 .59-.5 1.075-1.098 1.075H10.993c-.597 0-1.09-.486-1.09-1.074 0-.594.493-1.08 1.09-1.08h2.77v-3.016h-5.52c-1.505 0-2.743-1.002-2.743-2.215V86.012c0-1.215 1.238-2.213 2.742-2.213h15.514c1.515 0 2.744.99 2.744 2.21v15.6zM10.83 98.8c-.936 0-1.7.717-1.7 1.614 0 .885.764 1.598 1.7 1.598s1.713-.713 1.713-1.598c0-.897-.776-1.613-1.71-1.613zm0 0" fill="#fff"/><path d="M21.164 58.8c-.947 0-1.708.717-1.708 1.614 0 .885.76 1.598 1.708 1.598.94 0 1.702-.713 1.702-1.598 0-.897-.762-1.613-1.702-1.613zm1.575-12.78H9.27c-.758 0-1.376.5-1.376 1.107v9.115c0 .612.618 1.102 1.375 1.102h13.47c.75 0 1.36-.49 1.36-1.102v-9.115c0-.608-.61-1.108-1.37-1.108zm3.76 15.595c0 1.213-1.23 2.215-2.75 2.215h-5.41v3.015H21c.6 0 1.098.487 1.098 1.08 0 .59-.5 1.075-1.098 1.075H10.993c-.597 0-1.09-.486-1.09-1.074 0-.594.493-1.08 1.09-1.08h2.77V63.83h-5.52c-1.505 0-2.743-1.002-2.743-2.215V46.012c0-1.215 1.238-2.213 2.742-2.213h15.514c1.515 0 2.744.99 2.744 2.21v15.6zM10.83 58.8c-.936 0-1.7.717-1.7 1.614 0 .885.764 1.598 1.7 1.598s1.713-.713 1.713-1.598c0-.897-.776-1.613-1.71-1.613zm0 0" fill="#67737B"/><path d="M21.164 18.8c-.947 0-1.708.717-1.708 1.614 0 .885.76 1.598 1.708 1.598.94 0 1.702-.713 1.702-1.598 0-.897-.762-1.613-1.702-1.613zM22.74 6.02H9.27c-.758 0-1.376.5-1.376 1.107v9.115c0 .612.618 1.102 1.375 1.102h13.47c.75 0 1.36-.49 1.36-1.102V7.127c0-.608-.61-1.108-1.37-1.108zm3.76 15.595c0 1.213-1.23 2.215-2.744 2.215h-5.408v3.015H21c.6 0 1.098.487 1.098 1.08 0 .59-.5 1.075-1.098 1.075H10.993c-.597 0-1.09-.486-1.09-1.074 0-.594.493-1.08 1.09-1.08h2.77V23.83h-5.52c-1.505 0-2.743-1.002-2.743-2.215V6.012C5.5 4.797 6.738 3.8 8.242 3.8h15.514c1.515 0 2.744.997 2.744 2.212v15.603zM10.838 18.8c-.936 0-1.7.717-1.7 1.614 0 .885.764 1.598 1.7 1.598s1.713-.713 1.713-1.598c0-.897-.77-1.613-1.71-1.613zm0 0" fill="#3A434E"/></g></svg>