<svg width="32" height="232" viewBox="0 0 32 232" xmlns="http://www.w3.org/2000/svg"><g fill="none"><path d="M25.527 139.59l-1.36 1.352L19.4 136.2c-.678-.678-.038-1.3-.038-1.3l-.002-.013c1.275 1.27 2.764-.04 2.764-.04l1.36-1.356c1.277-1.26.043-2.66.043-2.66l1.363-1.35.637.64c2.63 2.62 2.63 6.87 0 9.49zm-5.447-9.568l-1.444 1.437c-1.28 1.27-.055 2.64.018 2.72-.167.13-.76.51-1.337-.06l-4.72-4.7 1.36-1.36c2.63-2.62 6.896-2.62 9.526 0l.64.63-1.34 1.33c-1.19-1.19-2.703-.02-2.703-.02zm-1.424 4.167l-.002-.01.044-.04-.042.04zm-.617 12.85c-2.63 2.61-6.9 2.61-9.53 0L6.46 145c-2.63-2.62-2.63-6.863 0-9.484l5.4-5.373 11.61 11.47-5.444 5.42zm4.76-14.23l-1.36 1.35c-.38.37-.99.37-1.37 0l-.68-.68c-.38-.38-.38-.98 0-1.36l1.36-1.36c.37-.38.96-.36 1.34.02l.68.67c.37.37.39.96.02 1.33zm3.25-7.26c1.55 1.8-1.21 3.83-1.21 3.83l-.68-.68s2.27-1.72 1.21-2.86c-1.51-2.01.13-3.86.13-3.86l.66.65s-.98 1.44-.11 2.9zm0 0" fill="#206FAC"/><path d="M25.527 99.588l-1.36 1.353L19.4 96.2c-.678-.677-.038-1.3-.038-1.3l-.002-.012c1.275 1.27 2.764-.04 2.764-.04l1.36-1.356c1.277-1.268.043-2.667.043-2.667l1.363-1.353.637.635c2.63 2.617 2.63 6.863 0 9.483zM20.08 90.02l-1.444 1.438c-1.28 1.275-.055 2.648.018 2.727-.167.13-.76.515-1.337-.06l-4.72-4.698 1.36-1.356c2.63-2.61 6.896-2.61 9.526.01l.64.64-1.34 1.34c-1.19-1.18-2.703-.02-2.703-.02zm-1.424 4.168l-.002-.003.044-.04-.042.043zm-.617 12.85c-2.63 2.616-6.9 2.616-9.53 0l-2.05-2.033c-2.63-2.62-2.63-6.863 0-9.484l5.4-5.37 11.61 11.47-5.45 5.42zm4.76-14.224l-1.36 1.355c-.38.37-.99.37-1.37 0l-.68-.68c-.38-.38-.38-.98 0-1.36l1.36-1.36c.37-.38.96-.36 1.34.02l.68.67c.37.37.39.96.02 1.33zm3.25-7.26c1.55 1.8-1.21 3.832-1.21 3.832l-.68-.678s2.27-1.715 1.21-2.857c-1.51-2.01.13-3.85.13-3.85l.66.66s-.98 1.44-.11 2.9zm0 0" fill="#fff"/><path d="M25.527 59.59l-1.36 1.352L19.4 56.2c-.678-.678-.038-1.3-.038-1.3l-.002-.013c1.275 1.27 2.764-.04 2.764-.04l1.36-1.356c1.277-1.26.043-2.66.043-2.66l1.363-1.35.637.64c2.63 2.62 2.63 6.87 0 9.49zm-5.447-9.57l-1.444 1.437c-1.28 1.274-.055 2.647.018 2.726-.167.13-.76.515-1.337-.06l-4.72-4.698 1.36-1.356c2.63-2.62 6.896-2.62 9.526 0l.64.63-1.34 1.33c-1.19-1.19-2.703-.02-2.703-.02zm-1.424 4.167l-.002-.004.044-.04-.042.043zm-.617 12.85c-2.63 2.615-6.9 2.615-9.53 0l-2.04-2.032c-2.63-2.62-2.63-6.863 0-9.484l5.4-5.37 11.61 11.47-5.45 5.42zm4.76-14.225l-1.36 1.355c-.38.373-.99.373-1.37 0l-.68-.678c-.38-.38-.38-.99 0-1.36l1.36-1.36c.37-.38.96-.36 1.34.02l.68.67c.37.37.39.96.02 1.33zm3.25-7.26c1.55 1.8-1.21 3.832-1.21 3.832l-.68-.678s2.27-1.716 1.21-2.858c-1.51-2.01.13-3.852.13-3.852l.66.654s-.98 1.44-.11 2.9zm0 0" fill="#67737B"/><path d="M25.527 19.588l-1.36 1.353L19.4 16.2c-.678-.677-.038-1.3-.038-1.3l-.002-.012c1.275 1.27 2.764-.04 2.764-.04l1.36-1.356c1.277-1.268.043-2.667.043-2.667L24.89 9.47l.637.635c2.63 2.617 2.63 6.863 0 9.483zM20.08 10.02l-1.444 1.438c-1.28 1.275-.055 2.648.018 2.727-.167.13-.76.515-1.337-.06l-4.72-4.698 1.36-1.356c2.63-2.61 6.896-2.61 9.526.01l.64.64-1.34 1.34c-1.19-1.18-2.703-.02-2.703-.02zm-1.424 4.168l-.002-.003.044-.04-.042.043zm-.617 12.85c-2.63 2.616-6.9 2.616-9.53 0l-2.04-2.033c-2.63-2.62-2.63-6.863 0-9.484l5.4-5.37 11.61 11.47-5.45 5.42zm4.76-14.224l-1.36 1.355c-.38.37-.99.37-1.37 0l-.68-.68c-.38-.38-.38-.98 0-1.36l1.36-1.36c.37-.38.96-.36 1.34.02l.68.67c.37.37.39.96.02 1.33zm3.25-7.26c1.55 1.8-1.21 3.832-1.21 3.832l-.68-.678s2.27-1.715 1.21-2.857C23.86 3.84 25.5 2 25.5 2l.66.657s-.98 1.44-.11 2.9zm0 0" fill="#3A434E"/></g></svg>