<svg width="32" height="232" viewBox="0 0 32 232" xmlns="http://www.w3.org/2000/svg"><g fill="none"><path d="M15.986 8c2.237 0 4.135.777 5.687 2.33C23.223 11.872 24 13.76 24 16s-.76 4.114-2.284 5.628C20.106 23.21 18.193 24 15.986 24c-2.16 0-4.036-.785-5.627-2.358C8.78 20.07 8 18.19 8 16c0-2.182.785-4.07 2.357-5.67C11.91 8.776 13.785 8 15.987 8zm.03 1.44c-1.822 0-3.358.647-4.614 1.932-1.306 1.32-1.96 2.864-1.96 4.627 0 1.78.65 3.31 1.945 4.59 1.296 1.29 2.836 1.94 4.628 1.94 1.78 0 3.332-.65 4.657-1.96 1.255-1.22 1.886-2.75 1.886-4.59 0-1.83-.64-3.38-1.916-4.63-1.265-1.29-2.81-1.93-4.627-1.93zm-2.8 4.674h5.813v1.372h-5.82v-1.372zm0 2.572h5.813v1.37h-5.82v-1.37zm0 0" fill="#3B444F"/><path d="M15.986 48c2.237 0 4.135.778 5.687 2.33C23.223 51.872 24 53.762 24 56s-.76 4.114-2.284 5.628C20.106 63.21 18.193 64 15.986 64c-2.16 0-4.036-.785-5.627-2.358C8.78 60.07 8 58.19 8 56c0-2.182.785-4.07 2.357-5.67 1.55-1.552 3.426-2.33 5.627-2.33zm.03 1.44c-1.822 0-3.358.647-4.614 1.932-1.306 1.32-1.96 2.864-1.96 4.627 0 1.78.65 3.31 1.945 4.59 1.296 1.29 2.836 1.94 4.628 1.94 1.78 0 3.332-.65 4.657-1.96 1.255-1.22 1.886-2.75 1.886-4.59 0-1.83-.64-3.38-1.916-4.63-1.265-1.29-2.81-1.93-4.627-1.93zm-2.8 4.673h5.813v1.373h-5.82v-1.373zm0 2.573h5.813v1.37h-5.82v-1.37zm0 0" fill="#67737B"/><path d="M15.986 88c2.237 0 4.135.778 5.687 2.33C23.223 91.872 24 93.762 24 96s-.76 4.114-2.284 5.628c-1.61 1.582-3.523 2.372-5.73 2.372-2.16 0-4.036-.785-5.627-2.358C8.78 100.07 8 98.19 8 96c0-2.183.785-4.07 2.357-5.67 1.55-1.552 3.426-2.33 5.627-2.33zm.03 1.442c-1.822 0-3.358.645-4.614 1.93-1.306 1.32-1.96 2.865-1.96 4.628 0 1.78.65 3.314 1.945 4.6 1.296 1.296 2.836 1.94 4.628 1.94 1.78 0 3.332-.65 4.657-1.953 1.255-1.22 1.886-2.748 1.886-4.587 0-1.828-.64-3.372-1.916-4.627-1.265-1.286-2.81-1.93-4.627-1.93zm-2.8 4.672h5.813v1.373h-5.82v-1.373zm0 2.572h5.813v1.37h-5.82v-1.37zm0 0" fill="#fff"/><path d="M15.986 128c2.237 0 4.135.778 5.687 2.33C23.223 131.872 24 133.76 24 136s-.76 4.114-2.284 5.628c-1.61 1.582-3.523 2.372-5.73 2.372-2.16 0-4.036-.785-5.627-2.357C8.78 140.07 8 138.19 8 136c0-2.183.785-4.07 2.357-5.67 1.55-1.553 3.426-2.33 5.627-2.33zm.03 1.44c-1.822 0-3.358.646-4.614 1.932-1.306 1.32-1.96 2.864-1.96 4.627 0 1.78.65 3.31 1.945 4.59 1.296 1.29 2.836 1.94 4.628 1.94 1.78 0 3.332-.65 4.657-1.96 1.255-1.22 1.886-2.75 1.886-4.59 0-1.83-.64-3.38-1.916-4.63-1.265-1.29-2.81-1.93-4.627-1.93zm-2.8 4.674h5.813v1.373h-5.82v-1.373zm0 2.572h5.813v1.37h-5.82v-1.37zm0 0" fill="#206FAC"/></g></svg>