<svg width="32" height="232" viewBox="0 0 32 232" xmlns="http://www.w3.org/2000/svg"><g fill="none"><path d="M11.344 29.262V22.94c-4.6-1.485-7.645-5.027-7.645-8.972 0-5.35 5.53-9.706 12.34-9.706s12.35 4.356 12.35 9.706c0 2.91-1.62 5.623-4.45 7.468l-.05.067-.2.084c-1.85 1.154-4.07 1.855-6.46 2.045l-5.9 5.63zM16.04 5.938c-5.882 0-10.667 3.603-10.667 8.03 0 3.355 2.824 6.384 7.03 7.542l.617.17v3.668l3.51-3.35.308-.02c2.205-.128 4.258-.75 5.94-1.79l.14-.086c2.418-1.535 3.8-3.767 3.8-6.134 0-4.427-4.792-8.03-10.68-8.03zm0 0l9.84 19.754L5.088 4.9c-.488-.49-.488-1.282 0-1.77.488-.49 1.28-.49 1.77 0L27.65 23.922c.49.488.49 1.28 0 1.77-.488.487-1.28.487-1.77 0" fill="#3A434E"/><path d="M11.344 69.262V62.94c-4.6-1.485-7.645-5.027-7.645-8.972 0-5.35 5.53-9.706 12.34-9.706s12.35 4.356 12.35 9.706c0 2.91-1.62 5.623-4.45 7.468l-.05.067-.2.084c-1.85 1.154-4.07 1.855-6.46 2.045l-5.9 5.63zm4.695-23.324c-5.89 0-10.67 3.603-10.67 8.03 0 3.355 2.82 6.384 7.03 7.542l.61.17v3.668l3.51-3.35.3-.02c2.2-.128 4.26-.75 5.94-1.79l.14-.086c2.42-1.535 3.8-3.767 3.8-6.134 0-4.427-4.79-8.03-10.68-8.03zm0 0l9.84 19.754L5.08 44.9c-.488-.49-.488-1.282 0-1.77.488-.49 1.28-.49 1.77 0l20.8 20.792c.49.488.49 1.28 0 1.77-.488.487-1.28.487-1.77 0" fill="#67737B"/><path d="M11.344 109.262v-6.323c-4.6-1.49-7.645-5.03-7.645-8.98 0-5.35 5.53-9.71 12.34-9.71s12.35 4.35 12.35 9.7c0 2.91-1.62 5.62-4.45 7.47l-.05.06-.2.08c-1.85 1.15-4.07 1.85-6.46 2.04l-5.9 5.63zm4.695-23.324c-5.89 0-10.67 3.603-10.67 8.03 0 3.355 2.82 6.384 7.03 7.542l.61.17v3.668l3.51-3.35.3-.02c2.2-.128 4.26-.75 5.94-1.79l.14-.086c2.42-1.535 3.8-3.767 3.8-6.134 0-4.427-4.79-8.03-10.68-8.03zm0 0l9.84 19.754L5.08 84.9c-.488-.49-.488-1.282 0-1.77.488-.49 1.28-.49 1.77 0l20.793 20.793c.49.488.49 1.28 0 1.77-.488.487-1.28.487-1.77 0" fill="#fff"/><path d="M11.344 149.262v-6.323c-4.6-1.49-7.645-5.03-7.645-8.98 0-5.35 5.53-9.71 12.34-9.71s12.35 4.35 12.35 9.7c0 2.91-1.62 5.62-4.45 7.47l-.05.06-.2.08c-1.85 1.15-4.07 1.85-6.46 2.04l-5.9 5.63zm4.695-23.324c-5.89 0-10.67 3.603-10.67 8.03 0 3.355 2.82 6.384 7.03 7.542l.61.17v3.668l3.51-3.35.3-.02c2.2-.128 4.26-.75 5.94-1.79l.14-.086c2.42-1.535 3.8-3.767 3.8-6.134 0-4.427-4.79-8.03-10.68-8.03zm0 0l9.84 19.754L5.08 124.9c-.488-.49-.488-1.282 0-1.77.488-.49 1.28-.49 1.77 0l20.793 20.793c.49.488.49 1.28 0 1.77-.488.487-1.28.487-1.77 0" fill="#206FAC"/></g></svg>