<svg width="32" height="232" viewBox="0 0 32 232" xmlns="http://www.w3.org/2000/svg"><g fill="none"><path d="M24.84 127.662C22.475 125.302 19.34 124 16 124c-3.338 0-6.477 1.3-8.838 3.662C4.8 130.022 3.5 133.16 3.5 136.5c0 3.338 1.3 6.477 3.662 8.838 2.36 2.36 5.5 3.662 8.838 3.662 3.34 0 6.476-1.3 8.84-3.662 2.36-2.36 3.66-5.5 3.66-8.838 0-3.34-1.3-6.477-3.66-8.838zm-1.684 8.64c.008.116.088.247.215.217.19-.05.34-.39.41-.53.27-.54.51-1.24.42-1.84-.04-.33-.19-.67-.44-.89l-.11-.09c-.31-.22-.72-.33-.94-.66-.24-.37-.37-.83-.38-1.27 0-.43-.27-.12-.4.05-.41.55-.87 1.16-.95 1.86-.06.58.21 1.1.65 1.48.3.25.66.44.99.67.36.25.52.55.55.98zm2.555.198c0 2.135-.69 4.114-1.86 5.72l-13.56-13.566c1.61-1.172 3.58-1.867 5.72-1.867 5.36 0 9.71 4.358 9.71 9.713zm-19.42 0c0-2.173.72-4.18 1.93-5.8l13.58 13.585c-1.62 1.21-3.62 1.928-5.8 1.928-5.35 0-9.71-4.357-9.71-9.713zm1.74.64v2.236h8.7l-2.24-2.237H8.03zm14.25 2.236v-2.237h-3.34l2.24 2.23h1.1zm.39-2.27h1.7v2.26h-1.7v-2.26zm0 0" fill="#206FAC"/><path d="M24.84 87.662C22.475 85.302 19.34 84 16 84c-3.338 0-6.477 1.3-8.838 3.662C4.8 90.022 3.5 93.16 3.5 96.5c0 3.338 1.3 6.477 3.662 8.838 2.36 2.36 5.5 3.662 8.838 3.662 3.34 0 6.476-1.3 8.84-3.662 2.36-2.36 3.66-5.5 3.66-8.838 0-3.34-1.3-6.477-3.66-8.838zm-1.684 8.64c.008.116.088.247.215.217.19-.05.34-.39.41-.53.27-.54.51-1.24.42-1.84-.04-.33-.19-.67-.44-.89l-.11-.09c-.31-.22-.72-.33-.94-.66-.24-.37-.37-.83-.38-1.27 0-.43-.27-.12-.4.05-.41.55-.87 1.16-.95 1.86-.06.58.21 1.1.65 1.48.3.25.66.44.99.67.36.25.52.55.55.98zm2.555.198c0 2.135-.69 4.114-1.86 5.72L10.29 88.653c1.603-1.172 3.58-1.867 5.717-1.867 5.355 0 9.71 4.358 9.71 9.713zm-19.42 0c0-2.173.72-4.18 1.93-5.8l13.58 13.585c-1.62 1.21-3.62 1.928-5.8 1.928-5.35 0-9.71-4.357-9.71-9.713zm1.74.64v2.236h8.7l-2.24-2.237H8.03zm14.25 2.236V97.14h-3.34l2.24 2.236h1.1zm.39-2.27h1.7v2.26h-1.7v-2.26zm0 0" fill="#fff"/><path d="M24.84 47.662C22.475 45.302 19.34 44 16 44c-3.338 0-6.477 1.3-8.838 3.662C4.8 50.022 3.5 53.16 3.5 56.5c0 3.338 1.3 6.477 3.662 8.838C9.522 67.698 12.662 69 16 69c3.34 0 6.476-1.3 8.84-3.662 2.36-2.36 3.66-5.5 3.66-8.838 0-3.34-1.3-6.477-3.66-8.838zm-1.684 8.64c.008.116.088.247.215.217.19-.05.34-.39.41-.53.27-.54.51-1.24.42-1.84-.04-.33-.19-.67-.44-.89l-.11-.09c-.31-.22-.72-.33-.94-.66-.24-.37-.37-.83-.38-1.27 0-.43-.27-.12-.4.05-.41.55-.87 1.16-.95 1.86-.06.58.21 1.1.65 1.48.3.25.66.44.99.67.36.25.52.55.55.98zm2.555.198c0 2.135-.69 4.114-1.86 5.72L10.29 48.653c1.603-1.172 3.58-1.867 5.717-1.867 5.355 0 9.71 4.358 9.71 9.713zm-19.42 0c0-2.173.72-4.18 1.93-5.8L21.8 64.285c-1.62 1.21-3.628 1.928-5.8 1.928-5.356 0-9.71-4.357-9.71-9.713zm1.74.64v2.236h8.7l-2.24-2.237H8.03zm14.25 2.236V57.14h-3.34l2.24 2.236h1.1zm.39-2.27h1.7v2.26h-1.7v-2.26zm0 0" fill="#67737B"/><path d="M24.84 7.662C22.475 5.302 19.34 4 16 4c-3.338 0-6.477 1.3-8.838 3.662C4.8 10.022 3.5 13.16 3.5 16.5c0 3.338 1.3 6.477 3.662 8.838C9.522 27.698 12.662 29 16 29c3.34 0 6.476-1.3 8.84-3.662 2.36-2.36 3.66-5.5 3.66-8.838 0-3.34-1.3-6.477-3.66-8.838zm-1.684 8.64c.008.116.088.247.215.217.19-.05.34-.39.41-.53.27-.54.51-1.24.42-1.84-.04-.33-.19-.67-.44-.89l-.11-.09c-.31-.22-.72-.33-.94-.66-.24-.37-.37-.83-.38-1.27 0-.43-.27-.12-.4.05-.41.55-.87 1.16-.95 1.86-.06.58.21 1.1.65 1.48.3.25.66.44.99.67.36.25.52.55.55.98zm2.555.198c0 2.135-.69 4.114-1.86 5.72L10.29 8.653c1.6-1.173 3.58-1.867 5.715-1.867 5.356 0 9.71 4.358 9.71 9.713zm-19.42 0c0-2.173.72-4.18 1.93-5.8L21.8 24.285c-1.62 1.21-3.628 1.928-5.8 1.928-5.356 0-9.71-4.357-9.71-9.713zm1.74.64v2.236h8.7l-2.24-2.237H8.03zm14.25 2.236V17.14h-3.34l2.24 2.236h1.1zm.39-2.27h1.7v2.26h-1.7v-2.26zm0 0" fill="#3A434E"/></g></svg>