<svg width="32" height="232" viewBox="0 0 32 232" xmlns="http://www.w3.org/2000/svg"><g fill="none"><path d="M28.595 135.845h-3.84c-.766.005-1.39.643-1.39 1.423 0 .748.557 1.356 1.3 1.424l.202.006h.06v.91h-3.703l-1.67-6.068h3.02l.097-.01c.92-.056 1.65-.825 1.65-1.764 0-.97-.78-1.766-1.78-1.766H9.28c-.96 0-1.748.795-1.748 1.766 0 .927.714 1.695 1.614 1.76l.112.014h3.254l-1.7 6.068H7.08v-.91h.075l.088.007c.78 0 1.413-.642 1.413-1.437 0-.784-.632-1.423-1.413-1.423H3.41c-.774 0-1.41.64-1.41 1.423 0 .795.635 1.437 1.413 1.437l.088-.007h.09v2.153c0 1.53.64 2.31 1.88 2.31h4.09l-1.29 3.7c-.28.83.15 1.75.96 2.05.81.3 1.75-.15 2.05-.97l.02-.06 1.67-4.71h6.1l1.72 4.78c.23.64.83 1.07 1.5 1.07.19 0 .38-.03.55-.1.81-.29 1.23-1.19.97-2.01l-.02-.07-1.31-3.66h4.1c1.16 0 1.88-.64 1.88-1.69v-2.77h.26c.74-.05 1.32-.67 1.32-1.43 0-.78-.63-1.42-1.4-1.42zm-14.437 3.763l1.677-6.068h.32l1.627 6.068H14.16zm0 0" fill="#206FAC"/><path d="M28.595 95.845h-3.84c-.766.005-1.39.643-1.39 1.423 0 .748.557 1.356 1.3 1.424l.202.006h.06v.91h-3.703l-1.67-6.068h3.02l.097-.01c.92-.056 1.65-.825 1.65-1.764 0-.97-.78-1.766-1.78-1.766H9.28c-.96 0-1.748.795-1.748 1.766 0 .927.714 1.695 1.614 1.76l.112.014h3.254l-1.7 6.068H7.08v-.91h.075l.088.007c.78 0 1.413-.642 1.413-1.437 0-.784-.632-1.423-1.413-1.423H3.41c-.774 0-1.41.64-1.41 1.423 0 .795.635 1.437 1.413 1.437l.088-.007h.09v2.153c0 1.53.64 2.31 1.88 2.31h4.09l-1.29 3.7c-.28.83.15 1.75.96 2.05.81.3 1.75-.15 2.05-.97l.02-.06 1.67-4.71h6.1l1.72 4.78c.23.64.83 1.07 1.5 1.07.19 0 .38-.03.55-.1.81-.29 1.23-1.19.97-2.01l-.02-.07-1.31-3.66h4.1c1.16 0 1.88-.64 1.88-1.69V98.7h.07l.19-.003c.74-.047 1.32-.67 1.32-1.428 0-.78-.63-1.42-1.4-1.43zm-14.437 3.763l1.677-6.068h.32l1.627 6.068H14.16zm0 0" fill="#fff"/><path d="M28.595 55.845h-3.84c-.766.005-1.39.643-1.39 1.423 0 .748.557 1.356 1.3 1.424l.202.006h.06v.91h-3.703l-1.67-6.068h3.02l.097-.01c.92-.056 1.65-.825 1.65-1.764 0-.97-.78-1.766-1.78-1.766H9.28c-.96 0-1.748.795-1.748 1.766 0 .927.714 1.695 1.614 1.76l.112.014h3.254l-1.7 6.068H7.08v-.91h.075l.088.007c.78 0 1.413-.642 1.413-1.437 0-.784-.632-1.423-1.413-1.423H3.41c-.774 0-1.41.64-1.41 1.423 0 .795.635 1.437 1.413 1.437l.088-.007h.09v2.153c0 1.53.64 2.31 1.88 2.31h4.09l-1.29 3.69c-.28.83.15 1.75.96 2.05.81.3 1.75-.15 2.05-.96l.02-.06 1.67-4.71h6.1l1.72 4.78c.23.64.83 1.07 1.5 1.07.19 0 .38-.03.55-.1.81-.29 1.23-1.19.97-2.01l-.02-.07-1.31-3.66h4.1c1.16 0 1.88-.64 1.88-1.68v-2.8h.26c.73-.04 1.32-.67 1.32-1.43 0-.78-.63-1.41-1.41-1.42zm-14.437 3.763l1.677-6.068h.32l1.627 6.068H14.16zm0 0" fill="#67737B"/><path d="M28.595 15.845h-3.84c-.766.005-1.39.643-1.39 1.423 0 .748.557 1.356 1.3 1.424l.202.006h.06v.91h-3.703l-1.67-6.068h3.02l.097-.01c.92-.056 1.65-.825 1.65-1.764 0-.97-.78-1.766-1.78-1.766H9.28c-.96 0-1.748.795-1.748 1.766 0 .927.714 1.695 1.614 1.76l.112.014h3.254l-1.7 6.068H7.08v-.91h.075l.088.007c.78 0 1.413-.642 1.413-1.437 0-.784-.632-1.423-1.413-1.423H3.41c-.774 0-1.41.64-1.41 1.423 0 .795.635 1.437 1.413 1.437l.088-.007h.09v2.153c0 1.53.64 2.31 1.88 2.31h4.09l-1.29 3.69c-.28.83.15 1.75.96 2.05.81.3 1.75-.15 2.05-.96l.02-.06 1.67-4.71h6.1l1.72 4.78c.23.64.83 1.07 1.5 1.07.19 0 .38-.03.55-.1.81-.29 1.23-1.19.97-2.01l-.02-.07-1.31-3.66h4.1c1.16 0 1.88-.64 1.88-1.68v-2.8h.26c.73-.04 1.32-.67 1.32-1.43 0-.78-.63-1.41-1.41-1.42zm-14.437 3.763l1.677-6.068h.32l1.627 6.068H14.16zm0 0" fill="#3A434E"/></g></svg>