<svg width="32" height="232" viewBox="0 0 32 232" xmlns="http://www.w3.org/2000/svg"><g fill="none"><path d="M31.914 123.527c.22-.478.003-.704-.484-.5L.383 136.037c-.486.202-.513.59-.06.86l5.73 3.425c.453.27.824.923.824 1.45v6.946c0 .527.346.7.77.387l5.327-3.948c.423-.313 1.15-.365 1.614-.116l5.098 2.75c.464.25 1.024.07 1.244-.41l10.984-23.84zM8.026 147.33l.432-7.283 22.404-15.952-20.297 17.724-2.54 5.51zm0 0" fill="#206FAC"/><path d="M31.914 83.527c.22-.478.003-.704-.484-.5L.383 96.037c-.486.202-.513.59-.06.86l5.73 3.425c.453.27.824.923.824 1.45v6.946c0 .527.346.7.77.387l5.327-3.948c.423-.313 1.15-.365 1.614-.116l5.098 2.75c.464.25 1.024.07 1.244-.41l10.984-23.84zM8.026 107.33l.432-7.283 22.404-15.952-20.297 17.724-2.54 5.51zm0 0" fill="#fff"/><path d="M31.914 43.527c.22-.478.003-.704-.484-.5L.383 56.037c-.486.202-.513.59-.06.86l5.73 3.425c.453.27.824.923.824 1.45v6.946c0 .527.346.7.77.387l5.327-3.948c.423-.313 1.15-.365 1.614-.116l5.098 2.75c.464.25 1.024.07 1.244-.41l10.984-23.84zM8.026 67.33l.432-7.283 22.404-15.952L10.565 61.82l-2.54 5.51zm0 0" fill="#67737B"/><path d="M31.914 3.527c.22-.478.003-.704-.484-.5L.383 16.037c-.486.202-.513.59-.06.86l5.73 3.425c.453.27.824.923.824 1.45v6.946c0 .527.346.7.77.387l5.327-3.948c.423-.313 1.15-.365 1.614-.116l5.098 2.75c.464.25 1.024.07 1.244-.41L31.914 3.53zM8.026 27.33l.432-7.283L30.862 4.095 10.565 21.82l-2.54 5.51zm0 0" fill="#3A434E"/></g></svg>