<svg width="32" height="232" viewBox="0 0 32 232" xmlns="http://www.w3.org/2000/svg"><g fill="none"><path d="M27.665 17.686c2.493 2.508 2.493 6.572 0 9.078-2.49 2.507-6.532 2.507-9.023 0L3.85 11.886c-1.8-1.81-1.8-4.745 0-6.555 1.8-1.81 4.718-1.81 6.518 0-.155-.15 14.79 14.88 14.79 14.88 1.107 1.12 1.108 2.92 0 4.04-1.106 1.12-2.903 1.12-4.012 0L10.368 13.4c-.416-.417-.416-1.095 0-1.512.415-.42 1.088-.42 1.504 0l10.78 10.84c.276.28.726.28 1 0 .28-.277.28-.73 0-1.007L8.865 6.85c-.97-.975-2.54-.975-3.51 0-.97.975-.97 2.556 0 3.53l14.79 14.875c1.66 1.673 4.354 1.674 6.015 0 1.66-1.67 1.662-4.38 0-6.05L11.87 4.825c-.414-.416-.414-1.093 0-1.51.416-.42 1.09-.42 1.504 0l14.29 14.37" fill="#3A434E"/><path d="M27.667 57.686c2.493 2.508 2.493 6.572 0 9.078-2.49 2.507-6.532 2.507-9.023 0L3.852 51.886c-1.8-1.81-1.8-4.745 0-6.555 1.8-1.81 4.718-1.81 6.518 0-.155-.15 14.79 14.88 14.79 14.88 1.107 1.12 1.108 2.92 0 4.04-1.106 1.12-2.903 1.12-4.012 0L10.37 53.4c-.416-.417-.416-1.095 0-1.512.415-.42 1.088-.42 1.504 0l10.78 10.84c.276.28.726.28 1 0 .28-.277.28-.73 0-1.007L8.867 46.85c-.97-.975-2.54-.975-3.51 0-.97.975-.97 2.556 0 3.53-6.815-6.853 14.79 14.877 14.79 14.877 1.66 1.672 4.355 1.673 6.016 0 1.66-1.672 1.662-4.38 0-6.05L11.873 44.83c-.414-.418-.414-1.095 0-1.513.416-.418 1.09-.418 1.504 0l14.29 14.372" fill="#67737B"/><path d="M27.667 97.686c2.493 2.508 2.493 6.572 0 9.078-2.49 2.507-6.532 2.507-9.023 0L3.852 91.886c-1.8-1.81-1.8-4.745 0-6.555 1.8-1.81 4.718-1.81 6.518 0-.155-.15 14.79 14.88 14.79 14.88 1.107 1.12 1.108 2.92 0 4.04-1.106 1.12-2.903 1.12-4.012 0L10.37 93.4c-.416-.417-.416-1.095 0-1.512.415-.42 1.088-.42 1.504 0l10.78 10.84c.276.28.726.28 1 0 .28-.277.28-.73 0-1.007L8.867 86.85c-.97-.975-2.54-.975-3.51 0-.97.975-.97 2.556 0 3.53-6.815-6.853 14.79 14.877 14.79 14.877 1.66 1.672 4.355 1.673 6.016 0 1.66-1.672 1.662-4.38 0-6.05L11.873 84.83c-.414-.418-.414-1.095 0-1.513.416-.418 1.09-.418 1.504 0l14.29 14.372" fill="#fff"/><path d="M27.667 137.686c2.493 2.508 2.493 6.572 0 9.078-2.49 2.507-6.532 2.507-9.023 0L3.852 131.886c-1.8-1.81-1.8-4.745 0-6.555 1.8-1.81 4.718-1.81 6.518 0-.155-.15 14.79 14.88 14.79 14.88 1.107 1.12 1.108 2.92 0 4.04-1.106 1.12-2.903 1.12-4.012 0L10.37 133.4c-.416-.417-.416-1.095 0-1.512.415-.42 1.088-.42 1.504 0l10.78 10.84c.276.28.726.28 1 0 .28-.277.28-.73 0-1.007L8.867 126.85c-.97-.975-2.54-.975-3.51 0-.97.975-.97 2.556 0 3.53-6.815-6.853 14.79 14.877 14.79 14.877 1.66 1.672 4.355 1.673 6.016 0 1.66-1.672 1.662-4.38 0-6.05l-14.29-14.374c-.414-.417-.414-1.094 0-1.512.416-.41 1.09-.41 1.504 0l14.29 14.38" fill="#206FAC"/></g></svg>