<svg width="32" height="232" viewBox="0 0 32 232" xmlns="http://www.w3.org/2000/svg"><g fill="none"><path d="M16.672 124H9.084C7.484 124 6 125.05 6 126.932v19.955C6 148.947 7.293 150 9.084 150c1.8 0 3.088-1.053 3.088-3.113v-5.394h4.69c5.865 0 9.1-3.697 9.1-8.728 0-5.833-4.528-8.765-9.29-8.765zm-1.19 12.277h-3.31v-7.06h3.31c2.442 0 4.082 1.23 4.082 3.548 0 1.81-1.447 3.512-4.082 3.512zm0 0" fill="#206FAC"/><path d="M16.672 84H9.084C7.484 84 6 85.05 6 86.932v19.955C6 108.947 7.293 110 9.084 110c1.8 0 3.088-1.053 3.088-3.113v-5.394h4.69c5.865 0 9.1-3.697 9.1-8.728 0-5.833-4.528-8.765-9.29-8.765zm-1.19 12.277h-3.31v-7.06h3.31c2.442 0 4.082 1.23 4.082 3.548 0 1.81-1.447 3.512-4.082 3.512zm0 0" fill="#fff"/><path d="M16.672 44H9.084C7.484 44 6 45.05 6 46.932v19.955C6 68.947 7.293 70 9.084 70c1.8 0 3.088-1.053 3.088-3.113v-5.394h4.69c5.865 0 9.1-3.697 9.1-8.728 0-5.833-4.528-8.765-9.29-8.765zm-1.19 12.277h-3.31v-7.06h3.31c2.442 0 4.082 1.23 4.082 3.548 0 1.81-1.447 3.512-4.082 3.512zm0 0" fill="#67737B"/><path d="M16.672 4H9.084C7.484 4 6 5.05 6 6.932v19.955C6 28.947 7.293 30 9.084 30c1.8 0 3.088-1.053 3.088-3.113v-5.394h4.69c5.865 0 9.1-3.697 9.1-8.728 0-5.833-4.528-8.765-9.29-8.765zm-1.19 12.277h-3.31v-7.06h3.31c2.442 0 4.082 1.23 4.082 3.548 0 1.81-1.447 3.512-4.082 3.512zm0 0" fill="#3A434E"/></g></svg>