<svg width="32" height="232" viewBox="0 0 32 232" xmlns="http://www.w3.org/2000/svg"><g fill="none"><path d="M14.78 131.696c1.92 2.098 3.985 4.05 6 6.055 1.606-1.07 3.36-2.45 5.108-3.77.482-.36 1.233-1.14 1.834-1.11.457.02.768.42.777.78.02.67-1.18 1.37-1.73 1.78l-3.95 2.95c-.52.39-1.5 1.35-2.11 1.33-.79-.01-1-.96-1.56-1.22-1.03 1.62-2.05 3.38-3.17 5.17-.27.42-.72 1.36-1.11 1.61-.57.37-2.03.61-2.78.84-2.23.69-4.37 1.32-6.61 2.39-.41.2-.94.58-1.23.56-.27-.01-.74-.32-.78-.72-.04-.37.34-.83.56-1.28 1.24-2.54 1.93-5.26 2.77-8.05.14-.45.27-1.07.44-1.33.29-.45 1.24-.85 1.67-1.11 1.74-1.08 3.36-2.13 5.05-3.11-.13-.7-1.11-.72-1.17-1.55-.04-.55.84-1.52 1.28-2.11.88-1.18 2.06-2.65 2.94-3.83.402-.54 1.07-1.84 1.72-1.89.51-.03.85.41.883.67.105.71-.74 1.407-1.11 1.89-1.31 1.746-2.52 3.415-3.774 5.11zm.444 2.835c-2.157 1.4-4.38 2.73-6.555 4.11-.58 2.02-1.23 3.96-1.89 5.89 1.52-1.34 3.14-3.08 4.66-4.61-.07-2.16 3.07-1.48 2.5.34-.15.46-.67.9-1.33.83-1.36 1.28-2.82 2.82-4.11 4.11-.17.17-.48.31-.45.56 1.88-.69 3.83-1.31 5.83-1.89 1.36-2.2 2.75-4.4 4.11-6.61l-2.78-2.72zm0 0" fill="#206FAC"/><path d="M14.78 91.696c1.92 2.098 3.985 4.05 6 6.055 1.606-1.07 3.36-2.45 5.108-3.77.482-.36 1.233-1.14 1.834-1.11.457.02.768.42.777.78.02.67-1.18 1.37-1.73 1.78l-3.95 2.95c-.52.39-1.5 1.35-2.11 1.33-.79-.01-1-.96-1.56-1.22-1.03 1.62-2.05 3.38-3.17 5.17-.27.42-.72 1.36-1.11 1.61-.57.37-2.03.61-2.78.84-2.23.69-4.37 1.32-6.61 2.39-.41.2-.94.58-1.23.56-.27-.01-.74-.32-.78-.72-.04-.37.34-.83.56-1.28 1.24-2.54 1.93-5.26 2.77-8.05.14-.45.27-1.07.44-1.33.29-.45 1.24-.85 1.67-1.11 1.74-1.08 3.36-2.13 5.05-3.11-.13-.7-1.11-.72-1.17-1.55-.04-.55.84-1.52 1.28-2.11.88-1.18 2.06-2.65 2.94-3.83.402-.54 1.07-1.84 1.72-1.89.51-.03.85.41.883.67.105.71-.74 1.407-1.11 1.89-1.31 1.746-2.52 3.415-3.774 5.11zm.444 2.835c-2.157 1.4-4.38 2.73-6.555 4.11-.58 2.02-1.23 3.96-1.89 5.89 1.52-1.34 3.14-3.08 4.66-4.61-.07-2.16 3.07-1.48 2.5.34-.15.46-.67.9-1.33.83-1.36 1.28-2.82 2.82-4.11 4.11-.17.17-.48.31-.45.56 1.88-.69 3.83-1.31 5.83-1.89 1.36-2.2 2.75-4.4 4.11-6.61l-2.78-2.72zm0 0" fill="#fff"/><path d="M14.78 51.696c1.92 2.098 3.985 4.05 6 6.055 1.606-1.07 3.36-2.45 5.108-3.77.482-.36 1.233-1.14 1.834-1.11.457.02.768.42.777.78.02.67-1.18 1.37-1.73 1.78l-3.95 2.95c-.52.39-1.5 1.35-2.11 1.33-.79-.01-1-.96-1.56-1.22-1.03 1.62-2.05 3.38-3.17 5.17-.27.42-.72 1.36-1.11 1.61-.57.37-2.03.61-2.78.84-2.23.69-4.37 1.32-6.61 2.39-.41.2-.94.58-1.23.56-.27-.01-.74-.32-.78-.72-.04-.37.34-.83.56-1.28 1.25-2.55 1.94-5.27 2.78-8.06.14-.45.27-1.07.45-1.33.29-.45 1.24-.85 1.66-1.11 1.74-1.08 3.36-2.13 5.05-3.11-.13-.7-1.11-.72-1.17-1.55-.04-.55.84-1.52 1.28-2.11.88-1.18 2.06-2.65 2.94-3.83.4-.54 1.07-1.84 1.72-1.89.51-.03.85.41.89.67.1.71-.75 1.41-1.11 1.89-1.31 1.75-2.52 3.42-3.78 5.11zm.444 2.835c-2.157 1.4-4.38 2.73-6.555 4.11-.58 2.02-1.23 3.96-1.89 5.89 1.52-1.34 3.14-3.08 4.66-4.61-.07-2.16 3.07-1.48 2.5.34-.15.46-.67.9-1.33.83-1.36 1.28-2.82 2.81-4.11 4.11-.17.17-.48.31-.45.56 1.88-.69 3.83-1.31 5.83-1.89 1.36-2.2 2.75-4.4 4.11-6.61l-2.78-2.72zm0 0" fill="#67737B"/><path d="M14.78 11.696c1.92 2.098 3.985 4.05 6 6.055 1.606-1.07 3.36-2.45 5.108-3.77.482-.36 1.233-1.14 1.834-1.11.457.02.768.42.777.78.02.67-1.18 1.37-1.73 1.78l-3.95 2.95c-.52.39-1.5 1.35-2.11 1.33-.79-.01-1-.96-1.56-1.22-1.03 1.62-2.05 3.38-3.17 5.17-.27.42-.72 1.36-1.11 1.61-.57.37-2.03.61-2.78.84-2.23.69-4.37 1.32-6.61 2.39-.41.2-.94.58-1.23.56-.27-.01-.74-.32-.78-.72-.04-.37.34-.83.56-1.28 1.25-2.55 1.94-5.27 2.78-8.06.14-.45.27-1.07.45-1.33.29-.45 1.24-.85 1.66-1.11 1.74-1.08 3.36-2.13 5.05-3.11-.13-.7-1.11-.72-1.17-1.55-.04-.55.84-1.52 1.28-2.11.88-1.18 2.06-2.65 2.94-3.83.4-.54 1.07-1.84 1.72-1.89.51-.03.85.41.89.67.1.71-.75 1.41-1.11 1.89-1.31 1.75-2.52 3.42-3.78 5.11zm.444 2.835c-2.157 1.4-4.38 2.73-6.555 4.11-.58 2.02-1.23 3.96-1.89 5.89 1.52-1.34 3.14-3.08 4.66-4.61-.07-2.16 3.07-1.48 2.5.34-.15.46-.67.9-1.33.83-1.36 1.28-2.82 2.81-4.11 4.11-.17.17-.48.31-.45.56 1.88-.69 3.83-1.31 5.83-1.89 1.36-2.2 2.75-4.4 4.11-6.61l-2.78-2.72zm0 0" fill="#3A434E"/></g></svg>