<svg width="32" height="232" viewBox="0 0 32 232" xmlns="http://www.w3.org/2000/svg"><g fill="none"><path d="M18.157 18.557c-.02.03-1.87 3.007-2.88 4.572l-.198.33c-.25.43-.57.96-.89 1.16-.38.23-1.09.4-1.77.56-.31.07-.59.13-.81.2l-.46.13c-1.88.56-3.66 1.09-5.52 1.96l-.35.18c-.31.17-.61.33-.87.33-.34-.02-.88-.36-.93-.84-.03-.31.15-.62.33-.92l.19-.34c.91-1.83 1.49-3.75 2.1-5.77l.4-1.33.09-.34c.1-.37.2-.71.34-.9.23-.35.77-.63 1.21-.86l.37-.2c1.58-.96 4.59-2.76 4.6-2.76.38-.22 1.31-.72 1.64-.72.11 0 .18.04.22.08.4.39 1.15 1.13 1.89 1.87l1.79 1.77c.25.24.07.84-.55 1.77zm-4.94 1.456c-.13.41-.6.794-1.21.738-1.233 1.13-2.555 2.49-3.734 3.64-.155.16-.436.27-.404.5 1.71-.61 3.48-1.16 5.29-1.67 1.24-1.95 2.49-3.89 3.74-5.85l-2.53-2.41c-1.96 1.24-3.98 2.42-5.96 3.64-.53 1.78-1.12 3.5-1.72 5.21 1.38-1.19 2.85-2.72 4.24-4.08-.07-1.91 2.79-1.31 2.27.3zM21.28 4.246c-.352-.346-.906-.323-1.23.047l-.334.418c-1.432 1.86-4.466 5.62-4.466 5.62-.31.39-.275.98.075 1.33l5.256 5.19c.36.34.98.37 1.37.07 0 0 3.86-2.95 5.77-4.35l.47-.35c.39-.3.43-.83.07-1.17l-6.98-6.8zm0 0" fill="#3A434E"/><path d="M18.157 58.557c-.02.03-1.87 3.007-2.88 4.572l-.198.33c-.25.43-.57.96-.89 1.16-.38.23-1.09.4-1.77.56-.31.07-.59.13-.81.2l-.46.13c-1.88.56-3.66 1.09-5.52 1.96l-.35.18c-.31.17-.61.33-.87.33-.34-.02-.88-.36-.93-.84-.03-.31.15-.62.33-.92l.19-.34c.91-1.83 1.49-3.75 2.1-5.77l.4-1.33.09-.34c.1-.37.2-.71.34-.9.23-.35.77-.63 1.21-.86l.37-.2c1.58-.96 4.59-2.76 4.6-2.76.38-.22 1.31-.72 1.64-.72.11 0 .18.04.22.08.4.39 1.15 1.13 1.89 1.87l1.79 1.77c.25.24.07.84-.55 1.77zm-4.94 1.456c-.13.41-.6.794-1.21.738-1.233 1.13-2.555 2.49-3.734 3.64-.155.16-.436.27-.404.5 1.71-.61 3.48-1.16 5.29-1.67 1.24-1.95 2.49-3.89 3.74-5.85l-2.53-2.41c-1.96 1.24-3.98 2.42-5.96 3.64-.53 1.78-1.12 3.5-1.72 5.21 1.38-1.19 2.85-2.72 4.24-4.08-.07-1.91 2.79-1.31 2.27.3zm8.064-15.767c-.35-.346-.9-.323-1.23.047l-.33.418c-1.43 1.86-4.46 5.62-4.46 5.62-.31.39-.27.98.08 1.33l5.26 5.19c.36.34.98.37 1.37.07 0 0 3.86-2.95 5.77-4.35l.47-.35c.4-.3.43-.83.07-1.17l-6.98-6.79zm0 0" fill="#67737B"/><path d="M18.157 98.557c-.02.03-1.87 3.007-2.88 4.572l-.198.33c-.25.43-.57.96-.89 1.16-.38.23-1.09.4-1.77.56-.31.07-.59.13-.81.2l-.46.13c-1.88.56-3.66 1.09-5.52 1.96l-.35.18c-.31.17-.61.33-.87.33-.34-.02-.88-.36-.93-.84-.03-.31.15-.62.33-.92l.19-.34c.91-1.83 1.49-3.75 2.1-5.77l.4-1.33.09-.34c.1-.37.2-.71.33-.9.23-.35.77-.63 1.21-.86l.37-.2c1.58-.96 4.59-2.76 4.6-2.76.38-.22 1.31-.72 1.64-.72.11 0 .18.04.22.08.4.39 1.15 1.13 1.89 1.87l1.79 1.77c.25.24.07.84-.55 1.77zm-4.94 1.456c-.13.41-.6.794-1.21.738-1.233 1.13-2.555 2.49-3.734 3.64-.155.16-.436.27-.404.5 1.71-.61 3.48-1.16 5.29-1.67 1.24-1.95 2.49-3.89 3.74-5.85l-2.53-2.41c-1.96 1.24-3.98 2.42-5.96 3.64-.53 1.78-1.12 3.5-1.72 5.21 1.38-1.19 2.85-2.72 4.24-4.08-.07-1.91 2.79-1.31 2.27.3zm8.064-15.767c-.35-.346-.9-.323-1.23.047l-.33.418c-1.43 1.86-4.46 5.62-4.46 5.62-.31.39-.27.98.08 1.33l5.26 5.19c.36.34.98.37 1.37.07 0 0 3.86-2.95 5.77-4.35l.47-.35c.4-.3.43-.83.07-1.17l-6.98-6.79zm0 0" fill="#fff"/><path d="M18.157 138.557c-.02.03-1.87 3.007-2.88 4.572l-.198.33c-.25.43-.57.96-.89 1.16-.38.23-1.09.4-1.77.56-.31.07-.59.13-.81.2l-.46.13c-1.88.56-3.66 1.09-5.52 1.96l-.35.18c-.31.17-.61.33-.87.33-.34-.02-.88-.36-.93-.84-.03-.31.15-.62.33-.92l.19-.34c.91-1.83 1.49-3.75 2.1-5.77l.4-1.33.09-.34c.1-.37.2-.71.33-.9.23-.35.77-.63 1.21-.86l.37-.2c1.58-.96 4.59-2.76 4.6-2.76.38-.22 1.31-.72 1.64-.72.11 0 .18.04.22.08.4.39 1.15 1.13 1.89 1.87l1.79 1.77c.25.24.07.84-.55 1.77zm-4.94 1.456c-.13.41-.6.794-1.21.738-1.233 1.13-2.555 2.49-3.734 3.64-.155.16-.436.27-.404.5 1.71-.61 3.48-1.16 5.29-1.67 1.24-1.95 2.49-3.89 3.74-5.85l-2.53-2.41c-1.96 1.24-3.98 2.42-5.96 3.64-.53 1.78-1.12 3.5-1.72 5.21 1.38-1.19 2.85-2.72 4.24-4.08-.07-1.91 2.79-1.31 2.27.3zm8.064-15.767c-.35-.346-.9-.323-1.23.047l-.33.418c-1.43 1.86-4.46 5.62-4.46 5.62-.31.39-.27.98.08 1.33l5.26 5.19c.36.34.98.37 1.37.07 0 0 3.86-2.95 5.77-4.35l.47-.35c.4-.3.43-.83.07-1.17l-6.97-6.79zm0 0" fill="#206FAC"/></g></svg>