<svg width="32" height="232" viewBox="0 0 32 232" xmlns="http://www.w3.org/2000/svg"><g fill="none"><path d="M15.757 8.985c1.654 0 2.994-1.34 2.994-2.993C18.75 4.34 17.41 3 15.76 3c-1.653 0-2.993 1.34-2.993 2.992 0 1.653 1.34 2.993 2.993 2.993zm5.75 3.18c0-.178-.005-.357-.02-.535-.067-.727-.454-1.206-1.156-1.39-.323-.087-.674-.122-1.02-.124-1.33-.01-2.67.005-4.003.004-1.02 0-2.038-.01-3.057-.02-.464-.007-.904.075-1.33.256-.53.226-.83.622-.883 1.196-.02.232-.026.467-.027.7-.007 1.998-.01 3.994-.008 5.99 0 .287.032.58.108.856.12.44.38.795.8 1.004.713.354 1.323-.013 1.34-.802v-.165c-.012-1.02-.025-2.038-.033-3.056-.006-.707-.016-1.41.004-2.11.01-.24.05-.506.16-.71.208-.37.68-.32.846.07.067.16.093.35.094.52.005 2.08.003 4.16.003 6.238h-.05v2.975c0 1.005 0 2.01.004 3.016 0 .207.013.414.042.62.14 1.002.973 1.735 1.98 1.744.37.004.744 0 1.115-.013.478-.017.87-.222 1.194-.574.476-.518.64-1.136.636-1.822-.008-2.19-.01-4.38-.012-6.568-.003-1.818-.008-3.635-.004-5.453 0-.217.03-.44.086-.65.046-.185.186-.305.39-.32.2-.013.366.075.436.252.073.187.128.396.128.596-.002 1.72-.02 3.443-.03 5.164 0 .15-.004.304.02.453.073.47.413.753.89.74.465-.012.81-.24 1.058-.623.24-.372.31-.786.31-1.222-.006-2.08-.004-4.16-.007-6.238z" fill="#3A434E"/><path d="M15.757 48.985c1.654 0 2.994-1.34 2.994-2.993 0-1.652-1.34-2.992-2.99-2.992-1.65 0-2.99 1.34-2.99 2.992 0 1.653 1.34 2.993 2.992 2.993zm5.75 3.18c0-.178-.005-.357-.02-.535-.067-.727-.454-1.206-1.156-1.39-.323-.087-.674-.122-1.02-.124-1.33-.01-2.67.005-4.003.004-1.02 0-2.038-.01-3.057-.02-.464-.007-.904.075-1.33.256-.53.226-.83.622-.883 1.196-.02.232-.026.467-.027.7-.007 1.998-.01 3.994-.008 5.99 0 .287.032.58.108.856.12.44.38.795.8 1.004.713.354 1.323-.013 1.34-.802v-.165c-.012-1.02-.025-2.038-.033-3.056-.006-.707-.016-1.41.004-2.11.01-.24.05-.506.16-.71.208-.37.68-.32.846.07.067.16.093.35.094.52.005 2.08.003 4.16.003 6.238h-.05v2.975c0 1.005 0 2.01.004 3.016 0 .207.013.414.042.62.14 1.002.973 1.735 1.98 1.744.37.004.744 0 1.115-.013.478-.017.87-.222 1.194-.574.476-.518.64-1.136.636-1.822-.008-2.19-.01-4.38-.012-6.568-.003-1.818-.008-3.635-.004-5.453 0-.217.03-.44.086-.65.046-.185.186-.305.39-.32.2-.013.366.075.436.252.073.187.128.396.128.596-.002 1.72-.02 3.443-.03 5.164 0 .15-.004.304.02.453.073.47.413.753.89.74.465-.012.81-.24 1.058-.623.24-.372.31-.786.31-1.222-.006-2.08-.004-4.16-.007-6.238z" fill="#67737B"/><path d="M15.757 88.985c1.654 0 2.994-1.34 2.994-2.993 0-1.652-1.34-2.992-2.99-2.992-1.65 0-2.99 1.34-2.99 2.992 0 1.653 1.34 2.993 2.992 2.993zm5.75 3.18c0-.178-.005-.357-.02-.535-.067-.727-.454-1.206-1.156-1.39-.323-.087-.674-.122-1.02-.124-1.33-.01-2.67.005-4.003.004-1.02 0-2.038-.01-3.057-.02-.464-.007-.904.075-1.33.256-.53.226-.83.622-.883 1.196-.02.232-.026.467-.027.7-.007 1.998-.01 3.994-.008 5.99 0 .287.032.58.108.856.12.44.38.795.8 1.004.713.354 1.323-.013 1.34-.802v-.165c-.012-1.02-.025-2.038-.033-3.056-.006-.707-.016-1.41.004-2.11.01-.24.05-.506.16-.71.208-.37.68-.32.846.07.067.16.093.35.094.52.005 2.08.003 4.16.003 6.238h-.05v2.975c0 1.005 0 2.01.004 3.016 0 .207.013.414.042.62.14 1.002.973 1.735 1.98 1.744.37.004.744 0 1.115-.013.478-.017.87-.222 1.194-.574.476-.518.64-1.136.636-1.822-.008-2.19-.01-4.38-.012-6.568-.003-1.818-.008-3.635-.004-5.453 0-.217.03-.44.086-.65.046-.185.186-.305.39-.32.2-.013.366.075.436.252.073.187.128.396.128.596-.002 1.72-.02 3.443-.03 5.164 0 .15-.004.304.02.453.073.47.413.753.89.74.465-.012.81-.24 1.058-.623.24-.372.31-.786.31-1.222-.006-2.08-.004-4.16-.007-6.238z" fill="#fff"/><path d="M15.757 128.985c1.654 0 2.994-1.34 2.994-2.993 0-1.652-1.34-2.992-2.99-2.992-1.652 0-2.992 1.34-2.992 2.992 0 1.653 1.34 2.993 2.993 2.993zm5.75 3.18c0-.178-.005-.357-.02-.535-.067-.727-.454-1.206-1.156-1.39-.323-.087-.674-.122-1.02-.124-1.33-.01-2.67.005-4.003.004-1.02 0-2.038-.01-3.057-.02-.464-.007-.904.075-1.33.256-.53.226-.83.622-.883 1.196-.02.232-.026.467-.027.7-.007 1.998-.01 3.994-.008 5.99 0 .287.032.58.108.856.12.44.38.795.8 1.004.713.354 1.323-.013 1.34-.802v-.165c-.012-1.02-.025-2.038-.033-3.056-.006-.707-.016-1.41.004-2.11.01-.24.05-.506.16-.71.208-.37.68-.32.846.07.067.16.093.35.094.52.005 2.08.003 4.16.003 6.238h-.05v2.975c0 1.005 0 2.01.004 3.016 0 .207.013.414.042.62.14 1.002.973 1.735 1.98 1.744.37.004.744 0 1.115-.013.478-.017.87-.222 1.194-.574.476-.518.64-1.136.636-1.822-.008-2.19-.01-4.38-.012-6.568-.003-1.818-.008-3.635-.004-5.453 0-.217.03-.44.086-.65.046-.185.186-.305.39-.32.2-.013.366.075.436.252.073.187.128.396.128.596-.002 1.72-.02 3.443-.03 5.164 0 .15-.004.304.02.453.073.47.413.753.89.74.465-.012.81-.24 1.058-.623.24-.372.31-.786.31-1.222-.006-2.08-.004-4.16-.007-6.238z" fill="#206FAC"/></g></svg>