<svg width="32" height="232" viewBox="0 0 32 232" xmlns="http://www.w3.org/2000/svg"><g fill="none"><path d="M21.065 138.196c-.405-3.04-4.5-3.393-5.052-3.426-.553.033-4.645.385-5.05 3.426 0 4.374-3.296 1.97-3.557 6.005 0 2.64 3.845 4.77 8.607 4.8 4.76-.03 8.606-2.16 8.606-4.8-.26-4.03-3.56-1.63-3.56-6m6.38-5.89c-1.21-.89-2.98-.56-3.95.73-.97 1.3-1.04 3.54.18 4.43 1.21.89 3.24.09 4.2-1.2.97-1.29.77-3.06-.44-3.95m-18.88.95c-.91-1.34-2.66-1.75-3.91-.92-1.26.83-1.54 2.59-.63 3.93.9 1.34 3.02 2.15 4.27 1.32 1.25-.82 1.17-2.98.26-4.32m9.64-.27c1.56.8 3.75-.5 4.62-2.17.87-1.67.31-3.68-1.26-4.48-1.57-.8-3.55-.09-4.42 1.58-.87 1.67-.52 4.27 1.05 5.07m-5.35.38c1.72-.34 2.61-2.71 2.24-4.55-.38-1.84-2.08-3.06-3.81-2.71-1.73.35-2.83 2.12-2.45 3.96.37 1.85 2.28 3.66 4.01 3.31" fill="#206FAC"/><path d="M21.065 98.196c-.405-3.04-4.5-3.393-5.052-3.426-.553.033-4.645.385-5.05 3.426 0 4.374-3.296 1.97-3.557 6.005 0 2.64 3.845 4.77 8.607 4.8 4.76-.03 8.606-2.16 8.606-4.8-.26-4.03-3.56-1.63-3.56-6m6.38-5.89c-1.21-.89-2.98-.56-3.95.73-.97 1.3-1.04 3.54.18 4.43 1.21.89 3.24.09 4.2-1.2.97-1.29.77-3.06-.44-3.95m-18.88.95c-.91-1.34-2.66-1.75-3.91-.92-1.26.83-1.54 2.59-.63 3.93.9 1.34 3.02 2.15 4.27 1.32 1.25-.82 1.17-2.98.26-4.32m9.64-.27c1.56.8 3.75-.5 4.62-2.17.87-1.67.31-3.68-1.26-4.48-1.57-.8-3.55-.09-4.42 1.58-.87 1.67-.52 4.27 1.05 5.07m-5.35.38c1.72-.34 2.61-2.71 2.24-4.55-.38-1.84-2.08-3.06-3.81-2.71-1.73.35-2.83 2.12-2.45 3.96.37 1.85 2.28 3.66 4.01 3.31" fill="#fff"/><path d="M21.065 58.196c-.405-3.04-4.5-3.393-5.052-3.426-.553.033-4.645.385-5.05 3.426 0 4.374-3.296 1.97-3.557 6.005 0 2.64 3.845 4.77 8.607 4.8 4.76-.03 8.606-2.16 8.606-4.8-.26-4.03-3.56-1.63-3.56-6m6.38-5.89c-1.21-.89-2.98-.56-3.95.73-.97 1.3-1.04 3.54.18 4.43 1.21.89 3.24.09 4.2-1.2.97-1.29.77-3.06-.44-3.95m-18.88.95c-.91-1.34-2.66-1.75-3.91-.92-1.26.83-1.54 2.59-.63 3.93.9 1.34 3.02 2.15 4.27 1.32 1.25-.82 1.17-2.98.26-4.32m9.64-.27c1.56.8 3.75-.5 4.62-2.17.87-1.67.31-3.68-1.26-4.48-1.57-.8-3.55-.09-4.42 1.58-.87 1.67-.52 4.27 1.05 5.07m-5.35.38c1.72-.34 2.61-2.71 2.24-4.55-.38-1.84-2.08-3.06-3.81-2.71-1.73.35-2.83 2.12-2.45 3.96.37 1.85 2.28 3.66 4.01 3.31" fill="#67737B"/><path d="M21.065 18.196c-.405-3.04-4.5-3.393-5.052-3.426-.553.033-4.645.385-5.05 3.426 0 4.374-3.296 1.97-3.557 6.005 0 2.64 3.845 4.77 8.607 4.8 4.76-.03 8.606-2.16 8.606-4.8-.26-4.03-3.56-1.63-3.56-6m6.38-5.89c-1.21-.89-2.98-.56-3.95.73-.97 1.3-1.04 3.54.18 4.43 1.21.89 3.24.09 4.2-1.2.97-1.29.77-3.06-.44-3.95m-18.88.95c-.91-1.34-2.66-1.75-3.91-.92-1.26.83-1.54 2.59-.63 3.93.9 1.34 3.02 2.15 4.27 1.32 1.25-.82 1.17-2.98.26-4.32m9.64-.27c1.56.8 3.75-.5 4.62-2.17.87-1.67.31-3.68-1.26-4.48-1.57-.8-3.55-.09-4.42 1.58-.87 1.67-.52 4.27 1.05 5.07m-5.35.38c1.72-.34 2.61-2.71 2.24-4.55-.38-1.84-2.08-3.06-3.81-2.71-1.73.35-2.83 2.12-2.45 3.96.37 1.85 2.28 3.66 4.01 3.31" fill="#3A434E"/></g></svg>