<svg width="32" height="232" viewBox="0 0 32 232" xmlns="http://www.w3.org/2000/svg"><g fill="none"><path d="M16.566 20.94c-1.413-.083-2.192-.627-3.03-1.56-.786 2.94-1.423 6.025-3.626 7.62-.638-2.893.27-5.522.865-7.95.316-1.294.868-2.758.865-3.685 0-.427-.29-.857-.346-1.31-.226-1.716.435-3.712 1.902-4.016 2.653-.55 2.476 1.88 1.984 3.6-.57 2.02-1.835 4.86 1.04 5.16 1.785.18 3.08-1.37 3.542-2.21.674-1.22 1.057-2.74 1.042-4.51C20.768 9.1 18.6 7.2 15.27 7.16c-3.62-.05-7.8 3.11-6.48 7.372.31 1.02 1.6 1.873.44 3.197-2.25-.33-3.37-2.73-3.2-5.08.33-4.41 4.11-7.2 8.73-7.62 5.156-.48 9.218 3.1 9.253 7.29.036 4.53-2.58 8.88-7.433 8.6z" fill="#3A434E"/><path d="M16.566 60.94c-1.413-.083-2.192-.627-3.03-1.56-.786 2.94-1.423 6.025-3.626 7.62-.638-2.893.27-5.522.865-7.95.316-1.294.868-2.758.865-3.685 0-.427-.29-.857-.346-1.31-.226-1.716.435-3.712 1.902-4.016 2.653-.55 2.476 1.88 1.984 3.6-.57 2.02-1.835 4.86 1.04 5.16 1.785.18 3.08-1.37 3.542-2.21.674-1.22 1.057-2.74 1.042-4.51-.036-2.98-2.204-4.88-5.533-4.92-3.62-.05-7.8 3.11-6.48 7.37.31 1.02 1.6 1.87.44 3.19-2.25-.33-3.37-2.73-3.2-5.08.33-4.41 4.11-7.2 8.73-7.62 5.16-.48 9.22 3.1 9.26 7.29.04 4.53-2.58 8.88-7.43 8.6z" fill="#67737B"/><path d="M16.566 100.94c-1.413-.083-2.192-.627-3.03-1.56-.786 2.94-1.423 6.025-3.626 7.62-.638-2.893.27-5.522.865-7.95.316-1.294.868-2.758.865-3.685 0-.427-.29-.857-.346-1.31-.226-1.716.435-3.712 1.902-4.016 2.653-.55 2.476 1.88 1.984 3.6-.57 2.02-1.835 4.86 1.04 5.16 1.785.18 3.08-1.37 3.542-2.21.674-1.22 1.057-2.74 1.042-4.51-.036-2.98-2.204-4.88-5.533-4.92-3.62-.05-7.8 3.11-6.48 7.37.31 1.02 1.6 1.87.44 3.19-2.25-.33-3.37-2.73-3.2-5.08.33-4.41 4.11-7.2 8.73-7.62 5.16-.48 9.22 3.1 9.26 7.29.04 4.53-2.58 8.88-7.43 8.6z" fill="#fff"/><path d="M16.566 140.94c-1.413-.083-2.192-.627-3.03-1.56-.786 2.94-1.423 6.025-3.626 7.62-.638-2.893.27-5.522.865-7.95.316-1.294.868-2.758.865-3.685 0-.427-.29-.857-.346-1.31-.226-1.716.435-3.712 1.902-4.016 2.653-.55 2.476 1.88 1.984 3.6-.57 2.02-1.835 4.86 1.04 5.16 1.785.18 3.08-1.37 3.542-2.21.674-1.22 1.057-2.74 1.042-4.51-.036-2.98-2.204-4.88-5.533-4.92-3.62-.05-7.8 3.11-6.48 7.37.31 1.02 1.6 1.87.44 3.19-2.25-.33-3.37-2.73-3.2-5.08.33-4.41 4.11-7.2 8.73-7.62 5.16-.48 9.22 3.1 9.26 7.29.04 4.53-2.58 8.88-7.43 8.6z" fill="#206FAC"/><path d="M16.566 180.94c-1.413-.083-2.192-.627-3.03-1.56-.786 2.94-1.423 6.025-3.626 7.62-.638-2.893.27-5.522.865-7.95.316-1.294.868-2.758.865-3.685 0-.427-.29-.857-.346-1.31-.226-1.716.435-3.712 1.902-4.016 2.653-.55 2.476 1.88 1.984 3.6-.57 2.02-1.835 4.86 1.04 5.16 1.785.18 3.08-1.37 3.542-2.21.674-1.22 1.057-2.74 1.042-4.51-.036-2.98-2.204-4.88-5.533-4.92-3.62-.05-7.8 3.11-6.48 7.37.31 1.02 1.6 1.87.44 3.19-2.25-.33-3.37-2.73-3.2-5.08.33-4.41 4.11-7.2 8.73-7.62 5.16-.48 9.22 3.1 9.26 7.29.04 4.53-2.58 8.88-7.43 8.6z" fill="#C9151A"/></g></svg>