<svg width="32" height="232" viewBox="0 0 32 232" xmlns="http://www.w3.org/2000/svg"><g fill="none"><path d="M16.032 3c5.266 0 9.535 3.78 9.535 9.464 0 5.552-4.81 7.94-7.372 11.49C16.1 26.854 16.032 29 16.032 29s-.015-2.16-2.16-5.046C11.24 20.404 6.5 18.18 6.5 12.464 6.5 6.78 10.77 3 16.032 3zm.002 5.28c-2.238 0-4.05 1.81-4.05 4.05 0 2.233 1.812 4.05 4.05 4.05 2.236 0 4.053-1.817 4.053-4.05 0-2.24-1.817-4.05-4.053-4.05z" fill="#3B444F"/><path d="M16.032 43c5.266 0 9.535 3.78 9.535 9.464 0 5.552-4.81 7.94-7.372 11.49C16.1 66.854 16.032 69 16.032 69s-.015-2.16-2.16-5.046C11.24 60.404 6.5 58.18 6.5 52.464 6.5 46.78 10.77 43 16.032 43zm.002 5.28c-2.238 0-4.05 1.81-4.05 4.05 0 2.233 1.812 4.05 4.05 4.05 2.236 0 4.053-1.817 4.053-4.05 0-2.24-1.817-4.05-4.053-4.05z" fill="#67747C"/><path d="M16.032 83c5.266 0 9.535 3.78 9.535 9.464 0 5.552-4.81 7.94-7.372 11.49-2.096 2.9-2.163 5.046-2.163 5.046s-.015-2.16-2.16-5.046C11.24 100.404 6.5 98.18 6.5 92.464 6.5 86.78 10.77 83 16.032 83zm.002 5.28c-2.238 0-4.05 1.81-4.05 4.05 0 2.233 1.812 4.05 4.05 4.05 2.236 0 4.053-1.817 4.053-4.05 0-2.24-1.817-4.05-4.053-4.05z" fill="#fff"/><path d="M16.032 123c5.266 0 9.535 3.78 9.535 9.464 0 5.552-4.81 7.94-7.372 11.49-2.096 2.9-2.163 5.046-2.163 5.046s-.015-2.16-2.16-5.046c-2.634-3.55-7.372-5.773-7.372-11.49 0-5.685 4.27-9.464 9.532-9.464zm.002 5.28c-2.238 0-4.05 1.81-4.05 4.05 0 2.233 1.812 4.05 4.05 4.05 2.236 0 4.053-1.817 4.053-4.05 0-2.24-1.817-4.05-4.053-4.05z" fill="#206FAC"/><path d="M16.032 163c5.266 0 9.535 3.78 9.535 9.464 0 5.552-4.81 7.94-7.372 11.49-2.096 2.9-2.163 5.046-2.163 5.046s-.015-2.16-2.16-5.046c-2.634-3.55-7.372-5.773-7.372-11.49 0-5.685 4.27-9.464 9.532-9.464zm.002 5.28c-2.238 0-4.05 1.81-4.05 4.05 0 2.233 1.812 4.05 4.05 4.05 2.236 0 4.053-1.817 4.053-4.05 0-2.24-1.817-4.05-4.053-4.05z" fill="#0FDDCF"/></g></svg>