<svg width="32" height="232" viewBox="0 0 32 232" xmlns="http://www.w3.org/2000/svg"><g fill="none"><path d="M16 0c6.628 0 12 4.654 12 11.648 0 6.834-6.054 9.77-9.28 14.14C16.083 29.358 16 32 16 32s-.02-2.656-2.72-6.212C9.96 21.418 4 18.684 4 11.648 4 4.652 9.373 0 16 0m0 7.68c-2.3 0-4.16 1.862-4.16 4.16C11.84 14.137 13.7 16 16 16c2.293 0 4.16-1.864 4.16-4.16 0-2.298-1.867-4.16-4.16-4.16zm0 0" fill="#3B444F"/><path d="M16 40c6.628 0 12 4.654 12 11.648 0 6.834-6.054 9.77-9.28 14.14C16.083 69.358 16 72 16 72s-.02-2.656-2.72-6.212C9.96 61.418 4 58.684 4 51.648 4 44.652 9.373 40 16 40m0 7.68c-2.3 0-4.16 1.862-4.16 4.16C11.84 54.137 13.7 56 16 56c2.293 0 4.16-1.864 4.16-4.16 0-2.298-1.867-4.16-4.16-4.16zm0 0" fill="#67747C"/><path d="M16 80c6.628 0 12 4.654 12 11.648 0 6.834-6.054 9.77-9.28 14.14C16.083 109.358 16 112 16 112s-.02-2.656-2.72-6.212C9.96 101.418 4 98.684 4 91.648 4 84.652 9.373 80 16 80m0 7.68c-2.3 0-4.16 1.862-4.16 4.16C11.84 94.137 13.7 96 16 96c2.293 0 4.16-1.864 4.16-4.16 0-2.298-1.867-4.16-4.16-4.16zm0 0" fill="#fff"/><path d="M16 120c6.628 0 12 4.654 12 11.648 0 6.834-6.054 9.77-9.28 14.14C16.083 149.358 16 152 16 152s-.02-2.656-2.72-6.212c-3.32-4.37-9.28-7.104-9.28-14.14C4 124.652 9.373 120 16 120m0 7.68c-2.3 0-4.16 1.862-4.16 4.16 0 2.296 1.86 4.16 4.16 4.16 2.293 0 4.16-1.864 4.16-4.16 0-2.298-1.867-4.16-4.16-4.16zm0 0" fill="#206FAC"/><path d="M28 171.648c0 6.834-6.054 9.77-9.28 14.14C16.083 189.358 16 192 16 192s-.02-2.656-2.72-6.212c-3.32-4.37-9.28-7.104-9.28-14.14C4 164.652 9.373 160 16 160c6.628 0 12 4.654 12 11.648zm-12-3.967c-2.3 0-4.16 1.87-4.16 4.16S13.7 176 16 176c2.293 0 4.16-1.863 4.16-4.16s-1.867-4.16-4.16-4.16zm0 0" fill="#0FDDCF"/></g></svg>