<svg width="32" height="232" viewBox="0 0 32 232" xmlns="http://www.w3.org/2000/svg"><g fill="none"><path d="M16.286 29l-1.42-.022-.214.003c0-.01-.062-1.89-1.91-4.41-.706-.95-1.58-1.81-2.504-2.71-2.22-2.17-4.738-4.64-4.738-8.88C5.5 7.29 9.787 3 15.47 3c5.686 0 9.974 4.287 9.974 9.974 0 4.1-2.5 6.593-4.71 8.792-.936.937-1.826 1.822-2.523 2.796-1.81 2.534-1.92 4.42-1.92 4.438zM15.47 4.635c-4.83 0-8.336 3.507-8.336 8.34 0 3.557 2.062 5.577 4.246 7.715.928.91 1.89 1.846 2.675 2.91.643.876 1.1 1.69 1.43 2.412.323-.715.774-1.528 1.397-2.404.778-1.083 1.757-2.053 2.7-3.002 2.176-2.163 4.23-4.212 4.23-7.632 0-4.832-3.506-8.34-8.343-8.34zm0 13.023c-2.79 0-5.06-2.27-5.06-5.058 0-2.79 2.27-5.06 5.06-5.06 2.792 0 5.063 2.27 5.063 5.06 0 2.79-2.27 5.058-5.063 5.058zm0-8.473c-1.882 0-3.414 1.532-3.414 3.415 0 1.88 1.532 3.412 3.414 3.412 1.884 0 3.417-1.53 3.417-3.412 0-1.883-1.533-3.415-3.417-3.415z" fill="#3B444F"/><path d="M16.286 69l-1.42-.022-.214.003c0-.01-.062-1.89-1.91-4.41-.706-.95-1.58-1.81-2.504-2.71-2.22-2.17-4.738-4.64-4.738-8.88 0-5.69 4.287-9.98 9.97-9.98 5.686 0 9.974 4.29 9.974 9.98 0 4.1-2.5 6.6-4.71 8.79-.936.94-1.826 1.82-2.523 2.8-1.81 2.54-1.92 4.42-1.92 4.44zm-.817-24.365c-4.83 0-8.34 3.507-8.34 8.34 0 3.557 2.06 5.577 4.24 7.715.92.91 1.89 1.846 2.67 2.91.64.876 1.1 1.69 1.43 2.412.32-.715.77-1.528 1.39-2.404.78-1.083 1.75-2.053 2.7-3.002 2.17-2.163 4.23-4.212 4.23-7.632 0-4.832-3.51-8.34-8.35-8.34zm0 13.023c-2.79 0-5.06-2.27-5.06-5.058 0-2.79 2.27-5.06 5.06-5.06 2.79 0 5.06 2.27 5.06 5.06 0 2.79-2.27 5.058-5.07 5.058zm0-8.473c-1.89 0-3.42 1.532-3.42 3.415 0 1.88 1.53 3.412 3.41 3.412 1.88 0 3.41-1.53 3.41-3.412 0-1.883-1.54-3.415-3.42-3.415z" fill="#67747C"/><path d="M16.286 109l-1.42-.022-.214.003c0-.01-.062-1.89-1.91-4.41-.706-.95-1.58-1.81-2.504-2.71-2.22-2.17-4.738-4.64-4.738-8.88 0-5.69 4.287-9.98 9.97-9.98 5.686 0 9.974 4.29 9.974 9.98 0 4.1-2.5 6.6-4.71 8.79-.936.94-1.826 1.82-2.523 2.8-1.81 2.54-1.92 4.42-1.92 4.44zm-.817-24.365c-4.83 0-8.34 3.507-8.34 8.34 0 3.557 2.06 5.577 4.24 7.715.92.91 1.89 1.846 2.67 2.91.64.876 1.1 1.69 1.43 2.412.32-.715.77-1.528 1.39-2.404.78-1.083 1.75-2.053 2.7-3.002 2.17-2.163 4.23-4.212 4.23-7.632 0-4.832-3.51-8.34-8.35-8.34zm0 13.023c-2.79 0-5.06-2.27-5.06-5.058 0-2.79 2.27-5.06 5.06-5.06 2.79 0 5.06 2.27 5.06 5.06 0 2.79-2.27 5.058-5.07 5.058zm0-8.473c-1.89 0-3.42 1.532-3.42 3.415 0 1.88 1.53 3.412 3.41 3.412 1.88 0 3.41-1.53 3.41-3.412 0-1.883-1.54-3.415-3.42-3.415z" fill="#fff"/><path d="M16.286 149l-1.42-.022-.214.003c0-.01-.062-1.89-1.91-4.41-.706-.95-1.58-1.81-2.504-2.71-2.22-2.17-4.738-4.64-4.738-8.88 0-5.68 4.287-9.97 9.97-9.97 5.686 0 9.974 4.29 9.974 9.98 0 4.1-2.5 6.6-4.71 8.79-.936.94-1.826 1.82-2.523 2.8-1.81 2.54-1.92 4.42-1.92 4.44zm-.817-24.365c-4.83 0-8.34 3.507-8.34 8.34 0 3.557 2.06 5.577 4.24 7.715.92.91 1.89 1.846 2.67 2.91.64.876 1.1 1.69 1.43 2.412.32-.715.77-1.528 1.39-2.404.78-1.083 1.75-2.053 2.7-3.002 2.17-2.163 4.23-4.212 4.23-7.632 0-4.832-3.51-8.34-8.35-8.34zm0 13.023c-2.79 0-5.06-2.27-5.06-5.058 0-2.79 2.27-5.06 5.06-5.06 2.79 0 5.06 2.27 5.06 5.06 0 2.79-2.27 5.058-5.07 5.058zm0-8.473c-1.89 0-3.42 1.532-3.42 3.415 0 1.88 1.53 3.412 3.41 3.412 1.88 0 3.41-1.53 3.41-3.412 0-1.883-1.54-3.415-3.42-3.415z" fill="#206FAC"/></g></svg>