<svg width="32" height="232" viewBox="0 0 32 232" xmlns="http://www.w3.org/2000/svg"><g fill="none"><path d="M17.997 136.748v5.43c0 .182-.03.354-.076.518l3.15 2.88c.28.27.42.616.43.99 0 .378-.14.73-.41 1.003-.29.28-.64.43-1.02.43-.31 0-.64-.1-.93-.3l-3.12-1.99-3.15 1.91c-.25.22-.59.35-.94.35-.36 0-.71-.14-.98-.4-.27-.28-.42-.64-.42-1.02.01-.38.15-.72.42-.98l3.14-2.88c-.05-.17-.08-.35-.08-.54v-5.43l-7.03 3.78c-1.28.57-2.13.7-2.89-.05-.75-.77-.75-2 0-2.77l9.91-8.15v-3.79c0-1.11.9-2.01 2.01-2.01 1.11 0 2 .9 2 2v3.772l9.94 8.173c.76.77.76 2 0 2.766-.76.75-1.61.62-2.89.05l-7.05-3.78zm0 0" fill="#206FAC"/><path d="M17.997 96.748v5.43c0 .182-.03.354-.076.518l3.15 2.88c.28.27.42.616.43.99 0 .378-.14.73-.41 1.003-.29.28-.64.43-1.02.43-.31 0-.64-.1-.93-.3l-3.12-1.99-3.15 1.91c-.25.22-.59.35-.94.35-.36 0-.71-.14-.98-.4-.27-.28-.42-.64-.42-1.02.01-.38.15-.72.42-.98l3.14-2.88c-.05-.17-.08-.35-.08-.54v-5.42l-7.03 3.78c-1.28.57-2.13.7-2.89-.06-.75-.77-.75-2 0-2.77L14 89.54v-3.78c0-1.107.9-2.01 2.01-2.01 1.107.006 2 .903 2 2.01v3.775l9.94 8.17c.76.77.76 2 0 2.77-.76.76-1.61.62-2.89.05L18 96.75zm0 0" fill="#fff"/><path d="M17.997 56.748v5.43c0 .182-.03.354-.076.518l3.15 2.88c.28.27.42.616.43.99 0 .378-.14.73-.41 1.003-.29.28-.64.43-1.02.43-.31 0-.64-.1-.93-.3l-3.12-1.99-3.15 1.91c-.25.22-.59.35-.94.35-.36 0-.71-.14-.98-.4-.27-.28-.42-.64-.42-1.02.01-.38.15-.72.42-.98l3.13-2.87c-.05-.17-.08-.35-.08-.54v-5.42l-7.03 3.78c-1.28.57-2.13.7-2.89-.06-.75-.76-.75-1.99 0-2.76L14 49.54v-3.78c0-1.106.9-2.01 2.01-2.01 1.107.007 2 .904 2 2.01v3.776l9.94 8.172c.76.77.76 2 0 2.77-.76.76-1.61.624-2.89.055L18 56.75zm0 0" fill="#67737B"/><path d="M17.997 16.748v5.43c0 .182-.03.354-.076.518l3.15 2.88c.28.27.42.616.43.99 0 .378-.14.73-.41 1.003-.29.28-.64.43-1.02.43-.31 0-.64-.1-.93-.3l-3.12-1.99-3.15 1.91c-.25.22-.59.35-.94.35-.36 0-.71-.14-.98-.4-.27-.28-.42-.64-.42-1.02.01-.38.15-.72.42-.98l3.13-2.87c-.05-.17-.08-.35-.08-.54v-5.42l-7.03 3.78c-1.28.57-2.13.7-2.89-.06-.75-.76-.75-1.99 0-2.76L14 9.54V5.77c0-1.105.9-2.008 2.01-2.008 1.103.006 2 .903 2 2.008v3.777l9.935 8.174c.76.77.76 2 0 2.77-.76.76-1.61.63-2.89.06L18 16.75zm0 0" fill="#3A434E"/></g></svg>