<svg width="32" height="232" viewBox="0 0 32 232" xmlns="http://www.w3.org/2000/svg"><g fill="none"><path d="M15.916 29.964C8.234 29.964 2 23.7 2 15.982 2 8.264 8.234 2 15.916 2s13.916 6.264 13.916 13.982c0 7.718-6.234 13.982-13.916 13.982zm0-24.496c-5.79 0-10.465 4.698-10.465 10.514 0 5.816 4.68 10.514 10.47 10.514s10.46-4.698 10.46-10.514c0-5.816-4.67-10.514-10.46-10.514zm-3.45 5.257l8.683 5.257-8.69 5.257V10.72z" fill="#3A434E"/><path d="M15.916 69.964C8.234 69.964 2 63.7 2 55.982 2 48.264 8.234 42 15.916 42s13.916 6.264 13.916 13.982c0 7.718-6.234 13.982-13.916 13.982zm0-24.496c-5.79 0-10.465 4.698-10.465 10.514 0 5.816 4.68 10.514 10.47 10.514s10.46-4.698 10.46-10.514c0-5.816-4.67-10.514-10.46-10.514zm-3.45 5.257l8.683 5.257-8.69 5.257V50.72z" fill="#67737B"/><path d="M15.916 109.964C8.234 109.964 2 103.7 2 95.982 2 88.264 8.234 82 15.916 82s13.916 6.264 13.916 13.982c0 7.718-6.234 13.982-13.916 13.982zm0-24.496c-5.79 0-10.465 4.698-10.465 10.514 0 5.816 4.68 10.514 10.47 10.514s10.47-4.698 10.47-10.514c0-5.816-4.67-10.514-10.46-10.514zm-3.45 5.257l8.683 5.257-8.69 5.257V90.72z" fill="#fff"/><path d="M15.916 149.964C8.234 149.964 2 143.7 2 135.982 2 128.264 8.234 122 15.916 122s13.916 6.264 13.916 13.982c0 7.718-6.234 13.982-13.916 13.982zm0-24.496c-5.79 0-10.465 4.698-10.465 10.514 0 5.816 4.68 10.514 10.47 10.514s10.47-4.698 10.47-10.514c0-5.816-4.67-10.514-10.46-10.514zm-3.45 5.257l8.683 5.257-8.69 5.257v-10.52z" fill="#206FAC"/><path d="M15.916 189.964C8.234 189.964 2 183.7 2 175.982 2 168.264 8.234 162 15.916 162s13.916 6.264 13.916 13.982c0 7.718-6.234 13.982-13.916 13.982zm0-24.496c-5.79 0-10.465 4.698-10.465 10.514 0 5.816 4.68 10.514 10.47 10.514s10.47-4.698 10.47-10.514c0-5.816-4.67-10.514-10.46-10.514zm-3.45 5.257l8.683 5.257-8.69 5.257v-10.52z" fill="#15C98D"/></g></svg>