<svg width="22" height="32" viewBox="0 0 22 32" xmlns="http://www.w3.org/2000/svg"><g fill="none"><path d="M15.518 29.984c0 1.105-2.016 2-4.5 2-2.487 0-4.5-.895-4.5-2 0-1.104 2.013-2 4.5-2 2.484 0 4.5.896 4.5 2" fill-opacity=".2" fill="#1D508D"/><path d="M11 0c6.074 0 11 4.364 11 10.92 0 6.407-5.55 9.16-8.505 13.258C11.077 27.523 11 30 11 30s-.018-2.49-2.493-5.822C5.467 20.08 0 17.518 0 10.92 0 4.36 4.926 0 11 0zm0 6.09c-2.583 0-4.675 2.092-4.675 4.676 0 2.577 2.092 4.672 4.674 4.672 2.57 0 4.67-2.095 4.67-4.672 0-2.584-2.1-4.675-4.68-4.675z" fill="#FA5E5B"/></g></svg>