<svg width="32" height="232" viewBox="0 0 32 232" xmlns="http://www.w3.org/2000/svg"><g fill="none" fill-rule="evenodd"><path d="M28.59 14.41c-.32-.195-.643-.39-.99-.555.925-.598 1.543-1.633 1.543-2.815 0-1.85-1.505-3.355-3.354-3.355-1.852 0-3.357 1.505-3.357 3.355 0 1.182.618 2.217 1.545 2.815-.35.166-.672.36-.99.554-.58.352-1.057.82-1.456 1.35-.49-.596-1.063-1.12-1.737-1.53-.53-.323-1.07-.65-1.67-.9 1.396-.753 2.346-2.23 2.346-3.923 0-2.458-1.998-4.458-4.456-4.458-2.457 0-4.457 2-4.457 4.457 0 1.694.95 3.17 2.345 3.923-.6.25-1.14.577-1.67.9-.674.41-1.248.937-1.74 1.534-.4-.532-.877-1-1.457-1.355-.318-.195-.643-.39-.99-.555.925-.598 1.542-1.633 1.542-2.815 0-1.85-1.505-3.355-3.354-3.355-1.85 0-3.354 1.505-3.354 3.355 0 1.182.616 2.217 1.543 2.815-.35.166-.673.36-.99.554-3.548 2.156-3.395 8.5-3.388 8.768l.015.47h7.687c-.14 1.415-.115 2.435-.11 2.556l.013.47h16.728l.015-.47c.003-.12.027-1.14-.11-2.557h7.678l.015-.468c.01-.27.162-6.614-3.386-8.77zm-5.19-3.37c0-1.317 1.072-2.387 2.39-2.387 1.315 0 2.386 1.07 2.386 2.387 0 1.316-1.07 2.387-2.387 2.387-1.318 0-2.39-1.07-2.39-2.387zM12.526 9.407c0-1.924 1.565-3.49 3.49-3.49 1.924 0 3.49 1.566 3.49 3.49 0 1.924-1.566 3.49-3.49 3.49-1.925 0-3.49-1.566-3.49-3.49zm-8.68 1.633c0-1.317 1.072-2.387 2.388-2.387 1.316 0 2.387 1.07 2.387 2.387 0 1.316-1.07 2.387-2.387 2.387-1.316 0-2.387-1.07-2.387-2.387zm-2.83 11.64c.035-1.455.356-5.885 2.92-7.445.71-.432 1.383-.84 2.298-.84s1.556.39 2.298.84c.554.337.997.81 1.36 1.357-1.196 1.865-1.763 4.188-2.028 6.088H1.015zm7.59 3.025c.026-1.814.39-8.374 4.13-10.65 1.008-.612 1.96-1.19 3.28-1.19 1.318 0 2.27.578 3.277 1.19 3.74 2.276 4.105 8.836 4.133 10.65H8.605zm15.562-3.025c-.265-1.902-.834-4.23-2.034-6.094.364-.543.806-1.015 1.357-1.35.712-.433 1.384-.842 2.3-.842.913 0 1.555.39 2.297.84 2.56 1.56 2.883 5.99 2.918 7.446h-6.838z" id="Imported-Layers" fill="#373D43"/><path d="M28.59 54.41c-.32-.195-.643-.39-.99-.555.925-.598 1.543-1.633 1.543-2.815 0-1.85-1.505-3.355-3.354-3.355-1.852 0-3.357 1.505-3.357 3.355 0 1.182.618 2.217 1.545 2.815-.35.166-.672.36-.99.554-.58.352-1.057.82-1.456 1.35-.49-.596-1.063-1.12-1.737-1.53-.53-.323-1.07-.65-1.67-.9 1.396-.753 2.346-2.23 2.346-3.923 0-2.458-1.998-4.458-4.456-4.458-2.457 0-4.457 2-4.457 4.457 0 1.694.95 3.17 2.345 3.923-.6.25-1.14.577-1.67.9-.674.41-1.248.937-1.74 1.534-.4-.532-.877-1-1.457-1.355-.318-.195-.643-.39-.99-.555.925-.598 1.542-1.633 1.542-2.815 0-1.85-1.505-3.355-3.354-3.355-1.85 0-3.354 1.505-3.354 3.355 0 1.182.616 2.217 1.543 2.815-.35.166-.673.36-.99.554-3.548 2.156-3.395 8.5-3.388 8.768l.015.47h7.687c-.14 1.415-.115 2.435-.11 2.556l.013.47h16.728l.015-.47c.003-.12.027-1.14-.11-2.557h7.678l.015-.468c.01-.27.162-6.614-3.386-8.77zm-5.19-3.37c0-1.317 1.072-2.387 2.39-2.387 1.315 0 2.386 1.07 2.386 2.387 0 1.316-1.07 2.387-2.387 2.387-1.318 0-2.39-1.07-2.39-2.387zm-10.875-1.633c0-1.924 1.565-3.49 3.49-3.49 1.924 0 3.49 1.566 3.49 3.49 0 1.924-1.566 3.49-3.49 3.49-1.925 0-3.49-1.566-3.49-3.49zm-8.68 1.633c0-1.317 1.072-2.387 2.388-2.387 1.316 0 2.387 1.07 2.387 2.387 0 1.316-1.07 2.387-2.387 2.387-1.316 0-2.387-1.07-2.387-2.387zm-2.83 11.64c.035-1.455.356-5.885 2.92-7.445.71-.432 1.383-.84 2.298-.84s1.556.39 2.298.84c.554.337.997.81 1.36 1.357-1.196 1.865-1.763 4.188-2.028 6.088H1.015zm7.59 3.025c.026-1.814.39-8.374 4.13-10.65 1.008-.612 1.96-1.19 3.28-1.19 1.318 0 2.27.578 3.277 1.19 3.74 2.276 4.105 8.836 4.133 10.65H8.605zm15.562-3.025c-.265-1.902-.834-4.23-2.034-6.094.364-.543.806-1.015 1.357-1.35.712-.433 1.384-.842 2.3-.842.913 0 1.555.39 2.297.84 2.56 1.56 2.883 5.99 2.918 7.446h-6.838z" id="Imported-Layers" fill="#67737B"/><path d="M28.59 94.41c-.32-.195-.643-.39-.99-.555.925-.598 1.543-1.633 1.543-2.815 0-1.85-1.505-3.355-3.354-3.355-1.852 0-3.357 1.505-3.357 3.355 0 1.182.618 2.217 1.545 2.815-.35.166-.672.36-.99.554-.58.352-1.057.82-1.456 1.35-.49-.596-1.063-1.12-1.737-1.53-.53-.323-1.07-.65-1.67-.9 1.396-.753 2.346-2.23 2.346-3.923 0-2.458-1.998-4.458-4.456-4.458-2.457 0-4.457 2-4.457 4.457 0 1.694.95 3.17 2.345 3.923-.6.25-1.14.577-1.67.9-.674.41-1.248.937-1.74 1.534-.4-.532-.877-1-1.457-1.355-.318-.195-.643-.39-.99-.555.925-.598 1.542-1.633 1.542-2.815 0-1.85-1.505-3.355-3.354-3.355-1.85 0-3.354 1.505-3.354 3.355 0 1.182.616 2.217 1.543 2.815-.35.166-.673.36-.99.554-3.548 2.156-3.395 8.5-3.388 8.768l.015.47h7.687c-.14 1.415-.115 2.435-.11 2.556l.013.47h16.728l.015-.47c.003-.12.027-1.14-.11-2.557h7.678l.015-.468c.01-.27.162-6.614-3.386-8.77zm-5.19-3.37c0-1.317 1.072-2.387 2.39-2.387 1.315 0 2.386 1.07 2.386 2.387 0 1.316-1.07 2.387-2.387 2.387-1.318 0-2.39-1.07-2.39-2.387zm-10.875-1.633c0-1.924 1.565-3.49 3.49-3.49 1.924 0 3.49 1.566 3.49 3.49 0 1.924-1.566 3.49-3.49 3.49-1.925 0-3.49-1.566-3.49-3.49zm-8.68 1.633c0-1.317 1.072-2.387 2.388-2.387 1.316 0 2.387 1.07 2.387 2.387 0 1.316-1.07 2.387-2.387 2.387-1.316 0-2.387-1.07-2.387-2.387zm-2.83 11.64c.035-1.455.356-5.885 2.92-7.445.71-.432 1.383-.84 2.298-.84s1.556.39 2.298.84c.554.337.997.81 1.36 1.357-1.196 1.865-1.763 4.188-2.028 6.088H1.015zm7.59 3.025c.026-1.814.39-8.374 4.13-10.65 1.008-.612 1.96-1.19 3.28-1.19 1.318 0 2.27.578 3.277 1.19 3.74 2.276 4.105 8.836 4.133 10.65H8.605zm15.562-3.025c-.265-1.902-.834-4.23-2.034-6.094.364-.543.806-1.015 1.357-1.35.712-.433 1.384-.842 2.3-.842.913 0 1.555.39 2.297.84 2.56 1.56 2.883 5.99 2.918 7.446h-6.838z" id="Imported-Layers" fill="#fff"/><path d="M28.59 134.41c-.32-.195-.643-.39-.99-.555.925-.598 1.543-1.633 1.543-2.815 0-1.85-1.505-3.355-3.354-3.355-1.852 0-3.357 1.505-3.357 3.355 0 1.182.618 2.217 1.545 2.815-.35.166-.672.36-.99.554-.58.352-1.057.82-1.456 1.35-.49-.596-1.063-1.12-1.737-1.53-.53-.323-1.07-.65-1.67-.9 1.396-.753 2.346-2.23 2.346-3.923 0-2.458-1.998-4.458-4.456-4.458-2.457 0-4.457 2-4.457 4.457 0 1.694.95 3.17 2.345 3.923-.6.25-1.14.577-1.67.9-.674.41-1.248.937-1.74 1.534-.4-.532-.877-1-1.457-1.355-.318-.195-.643-.39-.99-.555.925-.598 1.542-1.633 1.542-2.815 0-1.85-1.505-3.355-3.354-3.355-1.85 0-3.354 1.505-3.354 3.355 0 1.182.616 2.217 1.543 2.815-.35.166-.673.36-.99.554-3.548 2.156-3.395 8.5-3.388 8.768l.015.47h7.687c-.14 1.415-.115 2.435-.11 2.556l.013.47h16.728l.015-.47c.003-.12.027-1.14-.11-2.557h7.678l.015-.468c.01-.27.162-6.614-3.386-8.77zm-5.19-3.37c0-1.317 1.072-2.387 2.39-2.387 1.315 0 2.386 1.07 2.386 2.387 0 1.316-1.07 2.387-2.387 2.387-1.318 0-2.39-1.07-2.39-2.387zm-10.875-1.633c0-1.924 1.565-3.49 3.49-3.49 1.924 0 3.49 1.566 3.49 3.49 0 1.924-1.566 3.49-3.49 3.49-1.925 0-3.49-1.566-3.49-3.49zm-8.68 1.633c0-1.317 1.072-2.387 2.388-2.387 1.316 0 2.387 1.07 2.387 2.387 0 1.316-1.07 2.387-2.387 2.387-1.316 0-2.387-1.07-2.387-2.387zm-2.83 11.64c.035-1.455.356-5.885 2.92-7.445.71-.432 1.383-.84 2.298-.84s1.556.39 2.298.84c.554.337.997.81 1.36 1.357-1.196 1.865-1.763 4.188-2.028 6.088H1.015zm7.59 3.025c.026-1.814.39-8.374 4.13-10.65 1.008-.612 1.96-1.19 3.28-1.19 1.318 0 2.27.578 3.277 1.19 3.74 2.276 4.105 8.836 4.133 10.65H8.605zm15.562-3.025c-.265-1.902-.834-4.23-2.034-6.094.364-.543.806-1.015 1.357-1.35.712-.433 1.384-.842 2.3-.842.913 0 1.555.39 2.297.84 2.56 1.56 2.883 5.99 2.918 7.446h-6.838z" fill="#206FAC"/></g></svg>