<svg width="32" height="232" viewBox="0 0 32 232" xmlns="http://www.w3.org/2000/svg"><g fill="none"><path d="M26.124 132.224H23.16v-4.965c0-1.92-1.556-3.47-3.468-3.47h-7.887c-1.912 0-3.467 1.55-3.467 3.47v4.96H5.823c-1.297 0-2.35 1.05-2.35 2.35v8.44c0 1.29 1.053 2.35 2.35 2.35h2.515v.4c0 1.91 1.555 3.46 3.467 3.46h7.887c1.912 0 3.467-1.56 3.467-3.47v-.4h2.96c1.29 0 2.35-1.06 2.35-2.35v-8.45c0-1.3-1.06-2.35-2.35-2.35zm-15.547-4.965c0-.68.552-1.23 1.228-1.23h7.887c.678 0 1.23.55 1.23 1.23v4.96H10.577v-4.97zm10.345 18.51c0 .67-.552 1.23-1.23 1.23h-7.887c-.676 0-1.228-.56-1.228-1.23v-2.99h10.345v2.99zm2.84-7.65H8.116c-1.024 0-1.854-.62-1.854-1.38 0-.77.83-1.39 1.854-1.39h15.646c1.022 0 1.852.62 1.852 1.38 0 .76-.83 1.38-1.852 1.38zm0 0" fill="#206FAC"/><path d="M26.124 92.224H23.16V87.26c0-1.914-1.556-3.47-3.468-3.47h-7.887c-1.912 0-3.467 1.556-3.467 3.47v4.964H5.823c-1.297 0-2.35 1.05-2.35 2.348v8.447c0 1.29 1.053 2.35 2.35 2.35h2.515v.4c0 1.91 1.555 3.46 3.467 3.46h7.887c1.912 0 3.467-1.56 3.467-3.47v-.4h2.96c1.29 0 2.35-1.06 2.35-2.35v-8.44c0-1.3-1.06-2.35-2.35-2.35zM10.577 87.26c0-.68.552-1.23 1.228-1.23h7.887c.678 0 1.23.55 1.23 1.23v4.964H10.577V87.26zm10.345 18.51c0 .677-.552 1.23-1.23 1.23h-7.887c-.676 0-1.228-.553-1.228-1.23v-2.99h10.345v2.99zm2.84-7.645H8.116c-1.024 0-1.854-.62-1.854-1.38 0-.765.83-1.383 1.854-1.383h15.646c1.022 0 1.852.618 1.852 1.382 0 .762-.83 1.38-1.852 1.38zm0 0" fill="#fff"/><path d="M26.124 52.224H23.16V47.26c0-1.914-1.556-3.47-3.468-3.47h-7.887c-1.912 0-3.467 1.556-3.467 3.47v4.964H5.823c-1.297 0-2.35 1.05-2.35 2.348v8.447c0 1.29 1.053 2.35 2.35 2.35h2.515v.4c0 1.91 1.555 3.46 3.467 3.46h7.887c1.912 0 3.467-1.56 3.467-3.47v-.4h2.96c1.29 0 2.35-1.06 2.35-2.35v-8.44c0-1.3-1.06-2.35-2.35-2.35zM10.577 47.26c0-.68.552-1.23 1.228-1.23h7.887c.678 0 1.23.55 1.23 1.23v4.964H10.577V47.26zm10.345 18.51c0 .677-.552 1.23-1.23 1.23h-7.887c-.676 0-1.228-.553-1.228-1.23v-2.99h10.345v2.99zm2.84-7.645H8.116c-1.024 0-1.854-.62-1.854-1.38 0-.765.83-1.383 1.854-1.383h15.646c1.022 0 1.852.618 1.852 1.382 0 .762-.83 1.38-1.852 1.38zm0 0" fill="#67737B"/><path d="M26.124 12.224H23.16V7.26c0-1.914-1.556-3.47-3.468-3.47h-7.887c-1.912 0-3.467 1.556-3.467 3.47v4.964H5.823c-1.297 0-2.35 1.05-2.35 2.348v8.447c0 1.29 1.053 2.35 2.35 2.35h2.515v.4c0 1.91 1.555 3.46 3.467 3.46h7.887c1.912 0 3.467-1.56 3.467-3.47v-.4h2.96c1.29 0 2.35-1.06 2.35-2.35v-8.44c0-1.3-1.06-2.35-2.35-2.35zM10.577 7.26c0-.68.552-1.23 1.228-1.23h7.887c.678 0 1.23.55 1.23 1.23v4.964H10.577V7.26zm10.345 18.51c0 .677-.552 1.23-1.23 1.23h-7.887c-.676 0-1.228-.553-1.228-1.23v-2.99h10.345v2.99zm2.84-7.645H8.116c-1.024 0-1.854-.62-1.854-1.38 0-.765.83-1.383 1.854-1.383h15.646c1.022 0 1.852.618 1.852 1.382 0 .762-.83 1.38-1.852 1.38zm0 0" fill="#3A434E"/></g></svg>