<svg width="32" height="232" viewBox="0 0 32 232" xmlns="http://www.w3.org/2000/svg"><g fill="none"><path d="M27.934 143.016c-2.014-1.008-3.856-2.197-3.856-4.333 0-2.788 4.893-5.995 6.965-6.944L27.876 128c-5.122 1.96-12.2 6.528-12.2 13.06 0 3.735 2.646 6.94 6.388 6.94 3.166 0 5.295-1.96 5.87-4.984zm-14.676 0c-2.014-1.008-3.856-2.197-3.856-4.333 0-2.788 4.895-5.995 6.967-6.944L13.2 128C8.08 129.96 1 134.528 1 141.06c0 3.735 2.705 6.94 6.388 6.94 3.108 0 5.295-1.96 5.87-4.984zm0 0" fill="#206FAC"/><path d="M27.934 103.016c-2.014-1.008-3.856-2.197-3.856-4.333 0-2.788 4.893-5.995 6.965-6.944L27.876 88c-5.122 1.96-12.2 6.528-12.2 13.06 0 3.735 2.646 6.94 6.388 6.94 3.166 0 5.295-1.96 5.87-4.984zm-14.676 0c-2.014-1.008-3.856-2.197-3.856-4.333 0-2.788 4.895-5.995 6.967-6.944L13.2 88C8.08 89.96 1 94.528 1 101.06c0 3.735 2.705 6.94 6.388 6.94 3.108 0 5.295-1.96 5.87-4.984zm0 0" fill="#fff"/><path d="M27.934 63.016c-2.014-1.008-3.856-2.197-3.856-4.333 0-2.788 4.893-5.995 6.965-6.944L27.876 48c-5.122 1.96-12.2 6.528-12.2 13.06 0 3.735 2.646 6.94 6.388 6.94 3.166 0 5.295-1.96 5.87-4.984zm-14.676 0c-2.014-1.008-3.856-2.197-3.856-4.333 0-2.788 4.895-5.995 6.967-6.944L13.2 48C8.08 49.96 1 54.528 1 61.06 1 64.794 3.705 68 7.388 68c3.108 0 5.295-1.96 5.87-4.984zm0 0" fill="#67737B"/><path d="M27.934 23.016c-2.014-1.008-3.856-2.197-3.856-4.333 0-2.788 4.893-5.995 6.965-6.944L27.876 8c-5.122 1.96-12.2 6.528-12.2 13.06 0 3.735 2.646 6.94 6.388 6.94 3.166 0 5.295-1.96 5.87-4.984zm-14.676 0c-2.014-1.008-3.856-2.197-3.856-4.333 0-2.788 4.895-5.995 6.967-6.944L13.2 8C8.08 9.96 1 14.528 1 21.06 1 24.794 3.705 28 7.388 28c3.108 0 5.295-1.96 5.87-4.984zm0 0" fill="#3A434E"/></g></svg>