<svg width="32" height="232" viewBox="0 0 32 232" xmlns="http://www.w3.org/2000/svg"><g fill="none"><path d="M19.445 128.063c1.397 0 2.533-1.135 2.533-2.53 0-1.398-1.136-2.533-2.533-2.533-1.396 0-2.53 1.135-2.53 2.532 0 1.396 1.134 2.53 2.53 2.53m4.09 4.962l-.262-.032-.123-.004-2.234-.007-.772-2.37c-.216-.67-.783-1.17-1.43-1.31l-2.035-.82c-.23-.08-.46-.13-.7-.13l-4.5-.08c-.35 0-.68.09-.99.26l-.05-.03-3.47 3.15c-.84.77-.9 2.08-.13 2.93.39.44.95.69 1.54.69.51 0 1-.19 1.38-.53l2.51-2.29h.65l-1.48 3.58-1.55 3.03-2.92-.54-.26-.03-.81-.15c-1.14-.2-2.2.57-2.4 1.68-.21 1.13.54 2.21 1.65 2.42l5.56 1.01c1.02.19 1.99-.41 2.32-1.37l.86-1.417.65 1.91v4.42c0 1.133.93 2.06 2.08 2.06 1.14 0 2.07-.925 2.07-2.06v-4.59l-.01-.22c-.01-.22-.05-.41-.11-.59l-1.2-3.5.67-1.6c.37.33.846.51 1.346.51l3.73.01c1.266 0 2.05-.76 2.05-1.98 0-1.09-.64-1.82-1.7-1.954zm4.978 13.54c0 1.343-1.087 2.436-2.433 2.436-1.344 0-2.436-1.093-2.436-2.435 0-1.346 1.092-2.437 2.436-2.437 1.346 0 2.433 1.09 2.433 2.437zm0 0" fill="#206FAC"/><path d="M19.445 88.063c1.397 0 2.533-1.135 2.533-2.53 0-1.398-1.136-2.533-2.533-2.533-1.396 0-2.53 1.135-2.53 2.532 0 1.396 1.134 2.53 2.53 2.53m4.09 4.962l-.262-.032-.123-.004-2.234-.007-.772-2.37c-.216-.67-.783-1.17-1.43-1.31l-2.035-.82c-.23-.08-.46-.13-.7-.13l-4.5-.08c-.35 0-.68.09-.99.26l-.05-.03-3.47 3.15c-.84.77-.9 2.08-.13 2.93.39.44.95.69 1.54.69.51 0 1-.19 1.38-.53l2.51-2.29h.65l-1.48 3.58-1.55 3.03-2.91-.55-.26-.03-.81-.14c-1.13-.21-2.2.56-2.4 1.68-.21 1.12.54 2.2 1.65 2.41l5.56 1.01c1.02.19 1.99-.41 2.31-1.378l.86-1.41.65 1.91v4.42c0 1.14.93 2.06 2.08 2.06 1.14 0 2.07-.92 2.07-2.06v-4.58l-.01-.22c-.01-.223-.046-.415-.106-.59l-1.2-3.5.677-1.6c.37.328.845.51 1.345.51l3.736.01c1.26 0 2.05-.76 2.05-1.98 0-1.09-.644-1.823-1.7-1.954zm4.978 13.54c0 1.343-1.087 2.436-2.433 2.436-1.344 0-2.436-1.093-2.436-2.435 0-1.346 1.092-2.437 2.436-2.437 1.346 0 2.433 1.09 2.433 2.437zm0 0" fill="#fff"/><path d="M19.445 48.063c1.397 0 2.533-1.135 2.533-2.53 0-1.398-1.136-2.533-2.533-2.533-1.396 0-2.53 1.135-2.53 2.532 0 1.396 1.134 2.53 2.53 2.53m4.09 4.962l-.262-.032-.123-.004-2.234-.007-.772-2.37c-.216-.67-.783-1.17-1.43-1.31l-2.035-.82c-.23-.08-.46-.13-.7-.13l-4.5-.08c-.35 0-.68.09-.99.26l-.05-.03-3.47 3.15c-.84.77-.9 2.08-.13 2.93.39.44.95.69 1.54.69.51 0 1-.19 1.38-.53l2.51-2.29h.65l-1.48 3.58-1.55 3.03-2.91-.55-.26-.03-.81-.14c-1.13-.21-2.2.56-2.4 1.68-.21 1.12.54 2.2 1.65 2.41l5.56 1.01c1.02.19 1.99-.41 2.31-1.378l.86-1.41.65 1.91v4.42c0 1.14.93 2.06 2.08 2.06 1.14 0 2.07-.92 2.07-2.06V62.4l-.01-.22c-.01-.23-.046-.42-.106-.59l-1.2-3.5.677-1.6c.37.324.845.506 1.345.51l3.736.01c1.26 0 2.05-.76 2.05-1.98 0-1.09-.644-1.82-1.7-1.955zm4.978 13.54c0 1.343-1.087 2.436-2.433 2.436-1.344 0-2.436-1.093-2.436-2.435 0-1.346 1.092-2.437 2.436-2.437 1.346 0 2.433 1.09 2.433 2.437zm0 0" fill="#67737B"/><path d="M19.445 8.063c1.397 0 2.533-1.135 2.533-2.53 0-1.4-1.136-2.533-2.533-2.533-1.396 0-2.53 1.135-2.53 2.532 0 1.396 1.134 2.53 2.53 2.53m4.09 4.962l-.262-.032-.123-.004-2.234-.007-.772-2.37c-.216-.67-.783-1.17-1.43-1.31l-2.034-.83c-.23-.08-.46-.13-.7-.13l-4.5-.08c-.344 0-.68.09-.984.26l-.05-.03-3.466 3.15c-.84.77-.893 2.08-.122 2.93.396.44.955.69 1.54.69.513 0 1.003-.19 1.382-.53l2.513-2.29h.65L11.463 16l-1.55 3.033L7 18.475l-.26-.03-.81-.146c-1.133-.21-2.196.56-2.397 1.68-.203 1.12.54 2.2 1.656 2.41l5.56 1.01c1.02.19 1.99-.42 2.31-1.38l.86-1.41.65 1.91v4.42c0 1.14.93 2.06 2.08 2.06 1.14 0 2.07-.92 2.07-2.06v-4.58l-.01-.22c-.01-.23-.05-.42-.11-.59l-1.2-3.5.67-1.6c.37.33.84.51 1.34.51l3.73.01c1.26 0 2.05-.76 2.05-1.98 0-1.09-.648-1.82-1.7-1.95zm4.978 13.54c0 1.343-1.087 2.436-2.433 2.436-1.344 0-2.436-1.093-2.436-2.435 0-1.346 1.092-2.437 2.436-2.437 1.346 0 2.433 1.09 2.433 2.437zm0 0" fill="#3A434E"/></g></svg>