<svg width="32" height="232" viewBox="0 0 32 232" xmlns="http://www.w3.org/2000/svg"><g fill="none"><path d="M17.73 125c-6.16 0-11.17 4.996-11.324 11.214H3l5.097 5.75 5.102-5.75H9.23c.154-4.63 3.895-8.34 8.492-8.34 4.697 0 8.5 3.863 8.5 8.626 0 4.764-3.803 8.625-8.5 8.625-1.88 0-3.618-.62-5.03-1.674l-1.947 2.12C12.68 147.09 15.1 148 17.73 148c6.264 0 11.336-5.15 11.336-11.5S23.994 125 17.73 125" fill="#206FAC"/><path d="M17.73 85c-6.16 0-11.17 4.996-11.324 11.214H3l5.097 5.75 5.102-5.75H9.23c.154-4.63 3.895-8.34 8.492-8.34 4.697 0 8.5 3.863 8.5 8.626 0 4.764-3.803 8.625-8.5 8.625-1.88 0-3.618-.62-5.03-1.674l-1.947 2.12C12.68 107.09 15.1 108 17.73 108c6.264 0 11.336-5.15 11.336-11.5S23.994 85 17.73 85" fill="#fff"/><path d="M17.73 45c-6.16 0-11.17 4.996-11.324 11.214H3l5.097 5.75 5.102-5.75H9.23c.154-4.63 3.895-8.34 8.492-8.34 4.697 0 8.5 3.863 8.5 8.626 0 4.764-3.803 8.625-8.5 8.625-1.88 0-3.618-.62-5.03-1.674l-1.947 2.12C12.68 67.09 15.1 68 17.73 68c6.264 0 11.336-5.15 11.336-11.5S23.994 45 17.73 45" fill="#67737B"/><path d="M17.73 5C11.57 5 6.56 9.996 6.406 16.214H3l5.097 5.75 5.102-5.75H9.23c.154-4.63 3.895-8.34 8.492-8.34 4.697 0 8.5 3.863 8.5 8.626 0 4.764-3.803 8.625-8.5 8.625-1.88 0-3.618-.62-5.03-1.674l-1.947 2.12C12.68 27.09 15.1 28 17.73 28c6.264 0 11.336-5.15 11.336-11.5S23.994 5 17.73 5" fill="#3A434E"/></g></svg>