<svg width="32" height="232" viewBox="0 0 32 232" xmlns="http://www.w3.org/2000/svg"><g fill="none"><path d="M11.305 179.247c-.05.042-4.853 4.532-6.595 6.268-.68.677-.888 1.56-.553 2.358.294.716.95 1.176 1.668 1.176.517 0 1.016-.24 1.455-.68l6.846-6.61-2.665-2.67-.15.14zm16.526 6.283l-6.12-6.127L8.08 165.57l-.126.04c-.07.024-1.79.57-2.285 2.154-.39 1.23.08 2.707 1.41 4.41l8.7 8.912.06.058 2.52.203.67.72c.04.047 4.2 4.3 5.94 6.037.58.585 1.18.706 1.59.706.79 0 1.52-.47 1.81-1.175.29-.697.09-1.465-.55-2.105zM17.4 172.59l3.096 3.1c.47.468 1.06.735 1.62.735.327 0 .62-.095.853-.27l.01.01 4.86-4.87c.19-.198.3-.46.3-.74 0-.28-.11-.544-.31-.743-.4-.395-1.09-.395-1.49 0l-4.2 4.21-.78-.776 4-4.01c.41-.407.41-1.077 0-1.482-.4-.4-1.09-.4-1.49 0l-4.01 4.007-.82-.82 4.15-4.15c.41-.41.41-1.07 0-1.48-.4-.39-1.09-.39-1.48 0l-4.7 4.69c-.3.3-.43.75-.36 1.25.07.48.33.96.72 1.35zm0 0" fill="#47A899"/><path d="M11.305 139.247c-.05.042-4.853 4.532-6.595 6.268-.68.677-.888 1.56-.553 2.358.294.716.95 1.176 1.668 1.176.517 0 1.016-.24 1.455-.68l6.846-6.61-2.665-2.67-.15.14zm16.526 6.283l-6.12-6.127L8.08 125.57l-.126.04c-.07.024-1.79.57-2.285 2.154-.39 1.23.08 2.707 1.41 4.41l8.7 8.912.06.058 2.52.203.67.72c.04.047 4.2 4.3 5.94 6.037.58.585 1.18.706 1.59.706.79 0 1.52-.47 1.81-1.175.29-.697.09-1.465-.55-2.105zM17.4 132.59l3.096 3.1c.47.468 1.06.735 1.62.735.327 0 .62-.095.853-.27l.01.01 4.86-4.87c.19-.198.3-.46.3-.74 0-.28-.11-.544-.31-.743-.4-.395-1.09-.395-1.49 0l-4.2 4.21-.78-.776 4-4.01c.41-.407.41-1.077 0-1.482-.4-.4-1.09-.4-1.49 0l-4.01 4.007-.82-.82 4.15-4.15c.41-.41.41-1.07 0-1.48-.4-.39-1.09-.39-1.48 0l-4.7 4.69c-.3.3-.43.75-.36 1.25.07.48.33.96.72 1.35zm0 0" fill="#206FAC"/><path d="M11.305 99.247c-.05.042-4.853 4.532-6.595 6.268-.68.677-.888 1.56-.553 2.358.294.716.95 1.176 1.668 1.176.517 0 1.016-.24 1.455-.68l6.846-6.61-2.666-2.66-.155.14zm16.526 6.283l-6.12-6.127L8.08 85.57l-.127.04c-.07.024-1.79.57-2.28 2.154-.386 1.23.083 2.707 1.413 4.41l8.704 8.912.06.058 2.526.203.67.72c.04.047 4.2 4.3 5.94 6.037.583.585 1.186.706 1.59.706.792 0 1.52-.47 1.81-1.175.29-.697.09-1.465-.547-2.105zM17.4 92.59l3.096 3.1c.47.468 1.06.735 1.62.735.327 0 .62-.095.853-.27l.01.01 4.86-4.87c.19-.198.3-.46.3-.74 0-.28-.11-.544-.31-.743-.4-.395-1.09-.395-1.49 0l-4.2 4.21-.78-.776 4-4.01c.41-.407.41-1.077 0-1.482-.4-.4-1.09-.4-1.49 0l-4.01 4.007-.82-.82 4.15-4.15c.41-.41.41-1.07 0-1.48-.4-.39-1.09-.39-1.48 0l-4.7 4.7c-.3.3-.43.75-.36 1.25.07.48.33.96.72 1.35zm0 0" fill="#fff"/><path d="M11.305 59.247c-.05.042-4.853 4.532-6.595 6.268-.68.677-.888 1.56-.553 2.358.294.716.95 1.176 1.668 1.176.517 0 1.016-.24 1.455-.68l6.846-6.61-2.666-2.66-.155.14zM27.83 65.53l-6.126-6.127L8.077 45.57l-.126.04c-.07.024-1.79.57-2.28 2.154-.38 1.23.09 2.707 1.42 4.41l8.71 8.912.06.058 2.53.203.67.72c.04.047 4.2 4.3 5.94 6.037.59.585 1.19.706 1.59.706.79 0 1.52-.47 1.81-1.175.29-.697.09-1.465-.54-2.105zM17.393 52.59l3.096 3.1c.47.468 1.06.735 1.62.735.32 0 .62-.095.85-.27l.01.01 4.86-4.87c.19-.198.3-.46.3-.74 0-.28-.11-.544-.31-.743-.4-.395-1.09-.395-1.49 0l-4.2 4.21-.78-.776 4.01-4.01c.41-.407.41-1.077 0-1.482-.4-.4-1.09-.4-1.49 0l-4.01 4.007-.82-.82 4.15-4.15c.41-.41.41-1.07 0-1.48-.4-.39-1.09-.39-1.49 0l-4.7 4.7c-.3.3-.43.75-.36 1.25.08.48.33.96.72 1.35zm0 0" fill="#67747C"/><path d="M11.305 19.247c-.05.042-4.853 4.532-6.595 6.268-.68.677-.888 1.56-.553 2.358.294.716.95 1.176 1.668 1.176.517 0 1.016-.24 1.455-.68l6.846-6.61-2.666-2.66-.155.14zM27.83 25.53l-6.126-6.127L8.077 5.57l-.126.04c-.07.024-1.79.57-2.28 2.154-.38 1.23.09 2.707 1.42 4.41l8.71 8.912.06.058 2.53.203.67.72c.04.047 4.2 4.3 5.94 6.037.59.585 1.19.706 1.59.706.79 0 1.52-.47 1.81-1.175.29-.697.09-1.465-.54-2.105zM17.393 12.59l3.096 3.1c.47.468 1.06.735 1.62.735.32 0 .62-.095.85-.27l.01.01 4.86-4.87c.19-.198.3-.46.3-.74 0-.28-.11-.544-.31-.743-.4-.395-1.09-.395-1.49 0l-4.2 4.21-.78-.776 4.01-4.01c.41-.407.41-1.077 0-1.482-.4-.4-1.09-.4-1.49 0l-4.01 4.007-.82-.82 4.15-4.15c.41-.41.41-1.07 0-1.48-.4-.39-1.09-.39-1.48 0L17.03 10c-.3.302-.43.747-.36 1.246.075.48.33.96.72 1.347zm0 0" fill="#3B444F"/></g></svg>