<svg width="32" height="232" viewBox="0 0 32 232" xmlns="http://www.w3.org/2000/svg"><g fill="none"><path d="M27.282 129.24c-.364-.372-.828-.614-1.32-.7-.124-.346-.32-.66-.585-.924-.272-.275-.605-.478-.97-.595-.085-.47-.307-.92-.667-1.29-.455-.46-1.088-.72-1.74-.72s-1.283.27-1.734.73l-2.972 3.01c-.6.61-.87 1.49-.74 2.4.108.73.467 1.44 1.008 1.99l2.37 2.41c.673.68 1.547 1.07 2.406 1.07.614 0 1.186-.19 1.653-.55l.09-.06.08-.07.79-.79 2.33-2.36c.47-.48.72-1.11.72-1.76 0-.65-.24-1.27-.7-1.74zm-1.186 2.316l-2.32 2.348-.787.788c-.18.137-.41.21-.66.21-.43 0-.88-.208-1.24-.568l-2.37-2.405c-.3-.31-.49-.68-.55-1.05-.06-.39.04-.73.27-.97l2.97-3.02c.15-.15.36-.23.56-.23.21 0 .41.08.57.23.31.31.31.83 0 1.15l-3.18 3.22.63.64 3.06-3.11c.15-.16.36-.23.57-.23.21 0 .41.07.57.23.31.31.31.83 0 1.15l-3.06 3.1.59.6 3.21-3.26c.15-.16.36-.23.57-.23.21 0 .41.07.56.23.14.15.23.35.23.57 0 .21-.08.42-.23.57zm-.693 17.225c-.52 0-1.3-.15-2.032-.89-1.6-1.63-5.41-5.58-5.43-5.6l-.4-.43-2.29-.18-.21-.23-7.98-8.29c-1.44-1.87-1.92-3.5-1.48-4.92.59-1.89 2.56-2.51 2.64-2.54l.59-.19 12.78 13.17 5.59 5.67c.82.83 1.08 1.9.68 2.87-.39.96-1.36 1.6-2.41 1.6zm-9.41-8.73l2.318.19.83.91c.08.09 3.83 3.97 5.4 5.57.61.61 1.51.44 1.75-.16.18-.41-.08-.79-.31-1.03l-5.59-5.67-12.04-12.41c-.39.2-.99.61-1.21 1.3-.26.86.12 1.98 1.15 3.32l7.72 8zM6.49 149c-.993 0-1.89-.63-2.284-1.606-.43-1.04-.17-2.226.684-3.09 1.58-1.602 5.184-4.962 5.336-5.103l.584-.54 3.587 3.64-6.006 5.85c-.55.56-1.21.86-1.9.86zm4.273-8.022c-1.108 1.04-3.522 3.314-4.705 4.512-.38.384-.498.843-.326 1.262.142.35.44.572.758.572.306 0 .575-.205.748-.38l4.797-4.674-1.272-1.292zm0 0" fill="#206FAC"/><path d="M27.282 89.24c-.364-.372-.828-.614-1.32-.7-.124-.346-.32-.66-.585-.924-.272-.275-.605-.478-.97-.595-.085-.47-.307-.92-.667-1.29-.455-.46-1.088-.73-1.74-.73s-1.283.27-1.734.73l-2.972 3.01c-.6.61-.87 1.49-.74 2.4.108.73.467 1.44 1.008 1.99l2.37 2.41c.673.68 1.547 1.07 2.406 1.07.614 0 1.186-.19 1.653-.56l.09-.06.08-.07.79-.78 2.33-2.35c.47-.49.72-1.11.72-1.76 0-.65-.24-1.27-.7-1.74zm-1.186 2.316l-2.32 2.348-.787.788c-.18.137-.41.21-.66.21-.43 0-.88-.208-1.24-.568l-2.36-2.404c-.3-.305-.49-.675-.55-1.048-.06-.388.04-.732.27-.966l2.97-3.014c.15-.152.36-.23.56-.23.21 0 .41.078.57.23.31.316.31.833 0 1.15l-3.18 3.22.63.64 3.06-3.107c.15-.154.36-.23.57-.23.21 0 .42.076.57.23.32.313.32.833 0 1.152l-3.06 3.104.59.6 3.21-3.26c.16-.15.36-.23.57-.23.21 0 .42.08.57.23.15.16.23.36.23.58 0 .22-.09.42-.23.58zm-.693 17.225c-.52 0-1.3-.15-2.032-.89-1.6-1.63-5.41-5.58-5.43-5.6l-.4-.43-2.29-.18-.21-.23-7.99-8.29c-1.45-1.88-1.93-3.51-1.49-4.92.59-1.89 2.56-2.51 2.64-2.54l.59-.19 12.78 13.17 5.59 5.67c.82.83 1.08 1.9.68 2.87-.39.95-1.36 1.6-2.41 1.6zm-9.41-8.73l2.318.19.83.91c.08.09 3.83 3.97 5.4 5.57.61.61 1.51.44 1.75-.16.18-.41-.08-.79-.31-1.03l-5.59-5.67L8.34 87.43c-.39.197-.993.604-1.21 1.3-.264.86.12 1.973 1.15 3.314l7.717 8zM6.49 109c-.993 0-1.89-.63-2.284-1.606-.43-1.04-.17-2.226.684-3.09 1.58-1.602 5.184-4.962 5.336-5.103l.584-.54 3.587 3.64-6.006 5.85c-.55.56-1.21.86-1.9.86zm4.273-8.022c-1.108 1.04-3.522 3.314-4.705 4.512-.38.384-.498.843-.326 1.262.142.35.44.572.758.572.306 0 .575-.205.748-.38l4.797-4.674-1.272-1.292zm0 0" fill="#fff"/><path d="M27.282 49.24c-.364-.372-.828-.614-1.32-.7-.124-.346-.32-.66-.585-.924-.272-.275-.605-.478-.97-.595-.085-.47-.307-.92-.667-1.29-.455-.46-1.088-.73-1.74-.73s-1.283.27-1.734.73l-2.972 3.01c-.6.61-.87 1.49-.74 2.4.108.73.467 1.44 1.008 1.99l2.37 2.41c.673.68 1.547 1.07 2.406 1.07.614 0 1.186-.19 1.653-.56l.09-.06.08-.07.79-.78 2.33-2.35c.47-.49.72-1.11.72-1.76 0-.65-.24-1.27-.7-1.74zm-1.186 2.316l-2.32 2.348-.787.788c-.18.137-.41.21-.66.21-.43 0-.88-.208-1.24-.568l-2.36-2.404c-.3-.305-.49-.675-.55-1.048-.06-.388.04-.732.27-.966l2.97-3.014c.15-.152.36-.23.56-.23.21 0 .41.078.57.23.31.316.31.833 0 1.15l-3.18 3.22.63.64 3.06-3.107c.15-.154.36-.23.57-.23.21 0 .42.076.57.23.32.313.32.833 0 1.152l-3.06 3.104.59.6 3.21-3.26c.16-.15.36-.23.57-.23.21 0 .42.08.57.23.15.16.23.36.23.58 0 .22-.09.42-.23.58zm-.693 17.225c-.52 0-1.3-.15-2.032-.89-1.6-1.63-5.41-5.58-5.43-5.6l-.4-.43-2.29-.18-.21-.23-7.99-8.29c-1.45-1.88-1.93-3.51-1.49-4.92.59-1.89 2.56-2.51 2.64-2.54l.59-.19 12.78 13.17 5.59 5.67c.82.83 1.08 1.9.68 2.87-.39.95-1.36 1.6-2.41 1.6zm-9.41-8.73l2.318.19.83.91c.08.09 3.83 3.97 5.4 5.57.61.61 1.51.44 1.75-.16.18-.41-.08-.79-.31-1.03l-5.59-5.67L8.34 47.43c-.39.197-.993.604-1.21 1.3-.264.86.12 1.973 1.15 3.314l7.717 8zM6.49 69c-.993 0-1.89-.63-2.284-1.606-.43-1.04-.17-2.226.684-3.09 1.58-1.602 5.184-4.962 5.336-5.103l.584-.54 3.587 3.64-6.007 5.85c-.55.56-1.21.86-1.9.86zm4.273-8.022c-1.108 1.04-3.522 3.314-4.705 4.512-.38.384-.498.843-.326 1.262.142.35.44.572.758.572.306 0 .575-.205.748-.38l4.797-4.674-1.272-1.292zm0 0" fill="#67747C"/><path d="M27.282 9.24c-.364-.372-.828-.614-1.32-.7-.124-.346-.32-.66-.585-.924-.272-.275-.605-.478-.97-.595-.085-.47-.307-.92-.667-1.29C23.285 5.26 22.652 5 22 5s-1.283.263-1.734.724l-2.972 3.008c-.6.61-.87 1.484-.74 2.393.108.732.467 1.434 1.008 1.985l2.37 2.406c.673.68 1.547 1.063 2.406 1.063.614 0 1.186-.2 1.653-.56l.09-.07.08-.08.79-.79 2.33-2.36c.47-.49.72-1.11.72-1.76 0-.65-.24-1.27-.7-1.74zm-1.186 2.316l-2.32 2.348-.787.788c-.18.137-.41.21-.66.21-.43 0-.88-.208-1.24-.568l-2.36-2.404c-.3-.305-.49-.675-.55-1.048-.06-.388.04-.732.27-.966l2.97-3.014c.15-.152.36-.23.56-.23.21 0 .41.078.57.23.31.316.31.833 0 1.15l-3.18 3.22.63.64 3.06-3.107c.15-.154.36-.23.57-.23.21 0 .42.076.57.23.32.313.32.833 0 1.152l-3.06 3.104.59.6 3.21-3.26c.16-.15.36-.23.57-.23.21 0 .42.08.57.23.15.16.23.36.23.58 0 .22-.09.42-.23.58zm-.693 17.225c-.52 0-1.3-.15-2.032-.89-1.6-1.63-5.41-5.58-5.43-5.6l-.4-.43-2.29-.18-.21-.23-7.99-8.29C5.6 11.28 5.12 9.65 5.56 8.23c.59-1.89 2.56-2.514 2.64-2.54l.588-.19 12.78 13.164 5.585 5.663c.82.83 1.08 1.9.68 2.86-.39.95-1.36 1.6-2.41 1.6zm-9.41-8.73l2.318.19.83.91c.08.09 3.83 3.97 5.4 5.57.61.61 1.51.44 1.75-.16.18-.41-.08-.79-.31-1.03l-5.59-5.67L8.34 7.43c-.39.2-.996.602-1.21 1.3-.267.86.12 1.97 1.15 3.312l7.714 8zM6.49 29c-.993 0-1.89-.63-2.284-1.606-.43-1.04-.17-2.226.684-3.09 1.58-1.602 5.184-4.962 5.336-5.103l.584-.54 3.587 3.64-6.007 5.85c-.55.56-1.21.86-1.9.86zm4.273-8.022c-1.108 1.04-3.522 3.314-4.705 4.512-.38.384-.498.843-.326 1.262.142.35.44.572.758.572.306 0 .575-.205.748-.38l4.797-4.674-1.272-1.292zm0 0" fill="#3B444F"/><path d="M27.282 169.24c-.364-.372-.828-.614-1.32-.7-.124-.346-.32-.66-.585-.924-.272-.275-.605-.478-.97-.595-.085-.47-.307-.92-.667-1.29-.455-.46-1.088-.72-1.74-.72s-1.283.27-1.734.73l-2.972 3.01c-.6.61-.87 1.49-.74 2.4.108.73.467 1.44 1.008 1.99l2.37 2.41c.673.68 1.547 1.07 2.406 1.07.614 0 1.186-.19 1.653-.55l.09-.06.08-.07.79-.79 2.33-2.36c.47-.48.72-1.11.72-1.76 0-.65-.24-1.27-.7-1.74zm-1.186 2.316l-2.32 2.348-.787.788c-.18.137-.41.21-.66.21-.43 0-.88-.208-1.24-.568l-2.37-2.405c-.3-.31-.49-.68-.55-1.05-.06-.39.04-.73.27-.97l2.97-3.02c.15-.15.36-.23.56-.23.21 0 .41.08.57.23.31.31.31.83 0 1.15l-3.18 3.22.63.64 3.06-3.11c.15-.16.36-.23.57-.23.21 0 .41.07.57.23.31.31.31.83 0 1.15l-3.06 3.1.59.6 3.21-3.26c.15-.16.36-.23.57-.23.21 0 .41.07.56.23.14.15.23.35.23.57 0 .21-.08.42-.23.57zm-.693 17.225c-.52 0-1.3-.15-2.032-.89-1.6-1.63-5.41-5.58-5.43-5.6l-.4-.43-2.29-.18-.21-.23-7.98-8.29c-1.44-1.87-1.92-3.5-1.48-4.92.59-1.89 2.56-2.51 2.64-2.54l.59-.19 12.78 13.17 5.59 5.67c.82.83 1.08 1.9.68 2.87-.39.96-1.36 1.6-2.41 1.6zm-9.41-8.73l2.318.19.83.91c.08.09 3.83 3.97 5.4 5.57.61.61 1.51.44 1.75-.16.18-.41-.08-.79-.31-1.03l-5.59-5.67-12.04-12.41c-.39.2-.99.61-1.21 1.3-.26.86.12 1.98 1.15 3.32l7.72 8zM6.49 189c-.993 0-1.89-.63-2.284-1.606-.43-1.04-.17-2.226.684-3.09 1.58-1.602 5.184-4.962 5.336-5.103l.584-.54 3.587 3.64-6.006 5.85c-.55.56-1.21.86-1.9.86zm4.273-8.022c-1.108 1.04-3.522 3.314-4.705 4.512-.38.384-.498.843-.326 1.262.142.35.44.572.758.572.306 0 .575-.205.748-.38l4.797-4.674-1.272-1.292zm0 0" fill="#47A899"/></g></svg>