<svg width="22" height="32" viewBox="0 0 22 32" xmlns="http://www.w3.org/2000/svg"><g fill="none"><path d="M15.497 29.984c0 1.105-2.016 2-4.5 2-2.486 0-4.5-.895-4.5-2 0-1.104 2.014-2 4.5-2 2.484 0 4.5.896 4.5 2" fill-opacity=".2" fill="#1D508D"/><path d="M10.997.016c6.075 0 11 4.362 11 10.92 0 6.407-5.55 9.16-8.506 13.256-2.41 3.346-2.49 5.824-2.49 5.824s-.01-2.49-2.49-5.824C5.47 20.095 0 17.532 0 10.935 0 4.375 4.926.015 11 .015" fill="#47A899"/><path d="M8.528 11.69c-.023.024-2.422 2.26-3.29 3.13-.342.338-.444.78-.278 1.177.146.357.475.586.832.586.255 0 .51-.117.73-.337l3.413-3.296-1.33-1.33-.077.07zm8.248 3.14l-3.06-3.06-6.8-6.9-.06.02c-.037.006-.896.285-1.146 1.066-.19.62.045 1.356.71 2.21l4.345 4.442.028.028 1.26.105.335.36c.017.03 2.093 2.15 2.963 3.02.3.29.6.36.8.36.4 0 .76-.23.9-.58.15-.35.05-.73-.27-1.05zm-5.21-6.458l1.548 1.543c.235.234.525.37.805.37.16 0 .31-.05.42-.137l.01.004 2.42-2.425c.09-.107.15-.232.15-.372 0-.142-.06-.272-.16-.372-.2-.197-.55-.197-.75 0l-2.1 2.1-.39-.383 2-2.002c.2-.205.2-.54 0-.742-.2-.195-.54-.195-.74 0l-2.01 2-.41-.412 2.07-2.074c.2-.2.2-.535 0-.74-.2-.196-.54-.196-.74 0l-2.34 2.34c-.15.154-.22.375-.18.622.04.244.16.48.36.678zm0 0" fill="#fff"/></g></svg>