<svg width="32" height="232" viewBox="0 0 32 232" xmlns="http://www.w3.org/2000/svg"><g fill="none"><path d="M15.34 26.82c0-1.314-.214-2.63-.75-3.908-.496-1.243-1.247-2.31-2.207-3.305-.963-.958-2.072-1.707-3.32-2.204-1.245-.533-2.53-.783-3.916-.783v-4.193c3.987 0 7.34 1.386 10.193 4.228 2.815 2.846 4.248 6.222 4.248 10.165H15.34zm7.45.038c0-4.87-1.744-9.03-5.17-12.51-3.42-3.415-7.59-5.155-12.473-5.155V5c6.058 0 11.192 2.13 15.47 6.397C24.86 15.66 27 20.852 27 26.86h-4.21zm-12.76-.747c-.573.61-1.248.89-2.07.89-.815 0-1.497-.28-2.1-.89-.573-.56-.86-1.24-.86-2.06 0-.81.286-1.49.857-2.09.604-.6 1.285-.88 2.1-.88.823 0 1.497.29 2.07.89.603.61.887 1.28.887 2.1 0 .82-.284 1.5-.888 2.07z" fill="#3A434E"/><path d="M15.34 66.82c0-1.314-.214-2.63-.75-3.908-.496-1.243-1.247-2.31-2.207-3.305-.963-.958-2.072-1.707-3.32-2.204-1.245-.533-2.53-.783-3.916-.783v-4.193c3.987 0 7.34 1.386 10.193 4.228 2.815 2.846 4.248 6.222 4.248 10.165H15.34zm7.45.038c0-4.87-1.744-9.03-5.17-12.51-3.42-3.415-7.59-5.155-12.473-5.155V45c6.058 0 11.192 2.13 15.47 6.397C24.86 55.66 27 60.852 27 66.86h-4.21zm-12.76-.747c-.573.61-1.248.89-2.07.89-.815 0-1.497-.28-2.1-.89-.573-.56-.86-1.24-.86-2.06 0-.81.286-1.49.857-2.09.604-.6 1.285-.88 2.1-.88.823 0 1.497.29 2.07.89.603.61.887 1.28.887 2.1 0 .82-.284 1.5-.888 2.07z" fill="#67737B"/><path d="M15.34 106.82c0-1.314-.214-2.63-.75-3.908-.496-1.243-1.247-2.31-2.207-3.305-.963-.958-2.072-1.707-3.32-2.204-1.245-.533-2.53-.783-3.916-.783v-4.193c3.987 0 7.34 1.386 10.193 4.228 2.815 2.846 4.248 6.222 4.248 10.165H15.34zm7.45.038c0-4.87-1.744-9.03-5.17-12.51-3.42-3.415-7.59-5.155-12.473-5.155V85c6.058 0 11.192 2.13 15.47 6.397C24.86 95.66 27 100.852 27 106.86h-4.21zm-12.76-.747c-.573.61-1.248.89-2.07.89-.815 0-1.497-.28-2.1-.89-.572-.56-.858-1.24-.858-2.06 0-.81.286-1.49.857-2.09.6-.6 1.28-.88 2.1-.88.82 0 1.49.29 2.07.89.6.61.88 1.28.88 2.1 0 .82-.29 1.5-.89 2.07z" fill="#fff"/><path d="M15.34 146.82c0-1.314-.214-2.63-.75-3.908-.496-1.243-1.247-2.31-2.207-3.305-.963-.958-2.072-1.707-3.32-2.204-1.245-.533-2.53-.783-3.916-.783v-4.193c3.987 0 7.34 1.386 10.193 4.228 2.815 2.846 4.248 6.222 4.248 10.165H15.34zm7.45.038c0-4.87-1.744-9.03-5.17-12.51-3.42-3.415-7.59-5.155-12.473-5.155V125c6.058 0 11.192 2.13 15.47 6.397C24.86 135.66 27 140.852 27 146.86h-4.21zm-12.76-.747c-.573.61-1.248.89-2.07.89-.815 0-1.497-.28-2.1-.89-.572-.56-.858-1.24-.858-2.06 0-.81.286-1.49.857-2.09.6-.6 1.28-.88 2.1-.88.82 0 1.49.29 2.07.89.6.61.88 1.28.88 2.1 0 .82-.29 1.5-.89 2.07z" fill="#206FAC"/><path d="M15.34 186.82c0-1.314-.214-2.63-.75-3.908-.496-1.243-1.247-2.31-2.207-3.305-.963-.958-2.072-1.707-3.32-2.204-1.245-.533-2.53-.783-3.916-.783v-4.193c3.987 0 7.34 1.386 10.193 4.228 2.815 2.846 4.248 6.222 4.248 10.165H15.34zm7.45.038c0-4.87-1.744-9.03-5.17-12.51-3.42-3.415-7.59-5.155-12.473-5.155V165c6.058 0 11.192 2.13 15.47 6.397C24.86 175.66 27 180.852 27 186.86h-4.21zm-12.76-.747c-.573.61-1.248.89-2.07.89-.815 0-1.497-.28-2.1-.89-.572-.56-.858-1.24-.858-2.06 0-.81.286-1.49.857-2.09.6-.6 1.28-.88 2.1-.88.82 0 1.49.29 2.07.89.6.61.88 1.28.88 2.1 0 .82-.29 1.5-.89 2.07z" fill="#EE802F"/></g></svg>