<svg width="32" height="232" viewBox="0 0 32 232" xmlns="http://www.w3.org/2000/svg"><g fill="none"><path d="M23.348 146.274c-.86.803-1.912 1.46-3.155 1.965-1.247.5-2.652.76-4.224.76-.88 0-1.78-.09-2.69-.27-.93-.19-1.82-.44-2.68-.77-.86-.33-1.67-.7-2.43-1.14-.76-.43-1.41-.9-1.97-1.39v-5c1.88 2.71 4.94 4.67 8.21 5.22 1.55.26 3.26.17 4.59-.75 1.18-.82 1.56-2.31.65-3.49-1.07-1.41-3.34-1.88-4.96-2.29-1.83-.46-3.7-.86-5.35-1.83-3-1.77-4.22-5.4-2.7-8.59 1.36-2.86 4.51-4.41 7.55-4.69 3.64-.34 7.39.9 10.26 3.12v4.16c-2.07-2.22-4.8-3.93-7.83-4.37-1.28-.19-2.78-.27-3.91.45-1.15.72-1.52 2.2-.84 3.39.71 1.25 2.42 1.74 3.72 2.08 1.59.43 3.25.7 4.83 1.19 1.49.46 2.94 1.19 4.04 2.32 1.11 1.165 1.51 2.665 1.51 4.25 0 .95-.23 1.935-.68 2.915-.45.986-1.11 1.884-1.97 2.687zm0 0" fill="#206FAC"/><path d="M23.348 106.274c-.86.803-1.912 1.46-3.155 1.965-1.247.5-2.652.76-4.224.76-.88 0-1.78-.09-2.69-.27-.93-.19-1.82-.44-2.68-.77-.86-.33-1.67-.7-2.43-1.14-.76-.43-1.41-.9-1.97-1.39v-5c1.88 2.71 4.94 4.67 8.21 5.22 1.55.26 3.26.17 4.59-.75 1.18-.82 1.56-2.31.65-3.49-1.07-1.41-3.34-1.88-4.96-2.29-1.83-.46-3.7-.86-5.35-1.83-3-1.77-4.22-5.4-2.7-8.59 1.36-2.86 4.51-4.41 7.55-4.69 3.64-.34 7.39.9 10.26 3.12v4.16c-2.07-2.22-4.8-3.93-7.83-4.37-1.28-.19-2.78-.27-3.91.45-1.15.72-1.52 2.2-.84 3.39.71 1.25 2.42 1.74 3.72 2.08 1.59.43 3.25.7 4.83 1.19 1.49.46 2.94 1.19 4.04 2.32 1.11 1.165 1.51 2.665 1.51 4.25 0 .95-.23 1.935-.68 2.915-.45.986-1.11 1.884-1.97 2.687zm0 0" fill="#fff"/><path d="M23.348 66.274c-.86.803-1.912 1.46-3.155 1.965-1.247.5-2.652.76-4.224.76-.88 0-1.78-.09-2.69-.27-.93-.19-1.82-.44-2.68-.77-.86-.33-1.67-.7-2.43-1.14-.76-.43-1.41-.9-1.97-1.39v-4.99c1.88 2.71 4.94 4.67 8.21 5.22 1.55.26 3.26.17 4.59-.75 1.18-.82 1.56-2.31.65-3.49-1.07-1.41-3.34-1.88-4.96-2.29-1.83-.46-3.7-.86-5.35-1.83-3-1.77-4.22-5.4-2.7-8.59 1.36-2.86 4.51-4.41 7.55-4.69 3.64-.34 7.39.9 10.26 3.12v4.16c-2.07-2.22-4.8-3.93-7.83-4.37-1.28-.19-2.78-.27-3.91.45-1.15.72-1.52 2.21-.84 3.39.71 1.25 2.42 1.74 3.72 2.08 1.59.43 3.25.7 4.83 1.19 1.49.46 2.94 1.19 4.04 2.32 1.11 1.16 1.51 2.66 1.51 4.25 0 .95-.23 1.93-.68 2.91-.45.987-1.11 1.885-1.97 2.69zm0 0" fill="#67737B"/><path d="M23.348 26.274c-.86.803-1.912 1.46-3.155 1.965-1.247.5-2.652.76-4.224.76-.88 0-1.78-.09-2.69-.27-.93-.19-1.82-.44-2.68-.77-.86-.33-1.67-.7-2.43-1.14-.76-.43-1.41-.9-1.97-1.39v-4.99c1.88 2.71 4.94 4.67 8.21 5.22 1.55.26 3.26.17 4.59-.75 1.18-.82 1.56-2.31.65-3.49-1.07-1.41-3.34-1.88-4.96-2.29-1.83-.46-3.7-.86-5.35-1.83-3-1.77-4.22-5.4-2.7-8.59 1.36-2.85 4.51-4.4 7.55-4.68 3.64-.34 7.39.9 10.26 3.12v4.16c-2.07-2.22-4.8-3.93-7.83-4.37-1.28-.19-2.78-.27-3.91.45-1.15.73-1.52 2.21-.84 3.39.71 1.25 2.42 1.74 3.72 2.09 1.59.43 3.25.7 4.83 1.19 1.49.46 2.94 1.19 4.04 2.33 1.11 1.17 1.51 2.67 1.51 4.25 0 .95-.23 1.94-.68 2.92-.45.99-1.11 1.88-1.97 2.69zm0 0" fill="#3A434E"/></g></svg>