<svg width="32" height="232" viewBox="0 0 32 232" xmlns="http://www.w3.org/2000/svg"><g fill="none"><path d="M15.986 8c2.238 0 4.133.777 5.685 2.33C23.23 11.87 24 13.762 24 16s-.762 4.114-2.286 5.628c-1.61 1.58-3.52 2.372-5.728 2.372-2.162 0-4.038-.785-5.628-2.357C8.788 20.07 8 18.19 8 16c0-2.18.787-4.072 2.358-5.67C11.91 8.776 13.786 8 15.986 8zm.028 1.443c-1.82 0-3.357.643-4.614 1.928-1.304 1.33-1.956 2.87-1.956 4.63 0 1.78.647 3.32 1.942 4.6 1.295 1.3 2.838 1.95 4.628 1.95 1.78 0 3.333-.65 4.657-1.95 1.26-1.22 1.89-2.75 1.89-4.58s-.64-3.37-1.91-4.63c-1.26-1.28-2.81-1.92-4.63-1.92zm-3.57 5.428c.15-.98.547-1.74 1.185-2.27.63-.54 1.41-.81 2.32-.81 1.25 0 2.25.41 3 1.22.74.81 1.11 1.85 1.11 3.12 0 1.23-.39 2.25-1.16 3.07-.77.82-1.77 1.22-3 1.22-.91 0-1.69-.27-2.35-.81-.66-.54-1.05-1.31-1.19-2.31h2.02c.04.97.63 1.46 1.75 1.46.56 0 1.01-.24 1.35-.73.34-.48.51-1.13.51-1.94 0-.84-.16-1.49-.47-1.93-.32-.44-.77-.66-1.36-.66-1.07 0-1.67.48-1.8 1.42h.58l-1.58 1.58-1.59-1.59h.62zm0 0" fill="#3B444F"/><path d="M15.986 48c2.238 0 4.133.776 5.685 2.328C23.23 51.87 24 53.762 24 56c0 2.24-.762 4.114-2.286 5.63-1.61 1.58-3.52 2.37-5.728 2.37-2.162 0-4.038-.785-5.628-2.357C8.788 60.07 8 58.19 8 56c0-2.18.787-4.072 2.358-5.672C11.91 48.776 13.786 48 15.986 48zm.028 1.443c-1.82 0-3.357.643-4.614 1.928-1.304 1.33-1.956 2.87-1.956 4.63 0 1.78.647 3.32 1.942 4.6 1.295 1.3 2.838 1.95 4.628 1.95 1.78 0 3.333-.65 4.657-1.95 1.26-1.22 1.89-2.75 1.89-4.58 0-1.82-.64-3.37-1.91-4.63-1.26-1.28-2.81-1.92-4.63-1.92zm-3.57 5.428c.15-.98.547-1.74 1.185-2.27.63-.54 1.41-.81 2.32-.81 1.25 0 2.25.41 3 1.22.74.81 1.11 1.85 1.11 3.12 0 1.23-.39 2.25-1.16 3.07-.77.82-1.77 1.22-3 1.22-.91 0-1.69-.27-2.35-.81-.66-.54-1.05-1.32-1.19-2.31h2.02c.04.97.63 1.46 1.75 1.46.56 0 1.01-.24 1.35-.73.34-.48.51-1.13.51-1.94 0-.85-.16-1.49-.47-1.94-.32-.44-.77-.66-1.36-.66-1.07 0-1.67.47-1.8 1.42h.58l-1.57 1.58-1.59-1.58h.63zm0 0" fill="#67737B"/><path d="M15.986 88c2.238 0 4.133.776 5.685 2.33C23.23 91.87 24 93.76 24 96c0 2.24-.762 4.114-2.286 5.63-1.61 1.58-3.52 2.37-5.728 2.37-2.162 0-4.038-.785-5.628-2.357C8.788 100.07 8 98.19 8 96c0-2.18.787-4.072 2.358-5.67C11.91 88.776 13.786 88 15.986 88zm.028 1.443c-1.82 0-3.357.642-4.614 1.928-1.304 1.33-1.956 2.87-1.956 4.63 0 1.78.647 3.32 1.942 4.6 1.295 1.3 2.838 1.95 4.628 1.95 1.78 0 3.333-.65 4.657-1.95 1.26-1.22 1.89-2.75 1.89-4.58s-.64-3.37-1.91-4.63c-1.26-1.28-2.81-1.92-4.63-1.92zm-3.57 5.428c.15-.98.547-1.74 1.185-2.27.63-.54 1.41-.81 2.32-.81 1.25 0 2.25.41 3 1.22.74.81 1.11 1.85 1.11 3.12 0 1.23-.39 2.25-1.16 3.07-.77.82-1.77 1.22-3 1.22-.91 0-1.69-.27-2.35-.81-.66-.54-1.05-1.31-1.19-2.31h2.02c.04.98.63 1.46 1.75 1.46.56 0 1.01-.24 1.35-.73.34-.48.51-1.13.51-1.94 0-.84-.16-1.49-.47-1.93-.32-.44-.77-.66-1.36-.66-1.07 0-1.67.48-1.8 1.42h.58l-1.58 1.58-1.59-1.59h.63zm0 0" fill="#fff"/><path d="M15.986 128c2.238 0 4.133.776 5.685 2.328C23.23 131.87 24 133.762 24 136c0 2.238-.762 4.114-2.286 5.63-1.61 1.58-3.52 2.37-5.728 2.37-2.162 0-4.038-.786-5.628-2.357C8.788 140.07 8 138.19 8 136c0-2.18.787-4.07 2.358-5.672 1.552-1.552 3.428-2.328 5.628-2.328zm.028 1.443c-1.82 0-3.357.642-4.614 1.928-1.304 1.33-1.956 2.87-1.956 4.63 0 1.78.647 3.32 1.942 4.6 1.295 1.3 2.838 1.95 4.628 1.95 1.78 0 3.333-.65 4.657-1.95 1.26-1.22 1.89-2.75 1.89-4.58 0-1.82-.64-3.37-1.91-4.63-1.26-1.28-2.81-1.92-4.63-1.92zm-3.57 5.428c.15-.98.547-1.74 1.185-2.27.63-.54 1.41-.81 2.32-.81 1.25 0 2.25.41 3 1.22.74.81 1.11 1.85 1.11 3.12 0 1.23-.39 2.25-1.16 3.07-.77.82-1.77 1.22-3 1.22-.91 0-1.69-.27-2.35-.81-.66-.54-1.05-1.31-1.19-2.31h2.02c.04.97.63 1.46 1.75 1.46.56 0 1.01-.24 1.35-.73.34-.49.51-1.13.51-1.94 0-.85-.16-1.49-.47-1.94-.32-.44-.77-.66-1.36-.66-1.07 0-1.67.47-1.8 1.41h.58l-1.59 1.59-1.59-1.58h.63zm0 0" fill="#206FAC"/></g></svg>