<svg width="32" height="232" viewBox="0 0 32 232" xmlns="http://www.w3.org/2000/svg"><g fill="none"><path d="M27.938 24.895l-5.98-5.908c.904-1.466 1.42-3.184 1.42-5.02C23.378 8.624 18.694 4 13.288 4S3.5 8.324 3.5 13.666c0 5.343 4.685 9.97 10.09 9.97 1.8 0 3.483-.48 4.93-1.318l6.01 5.94c.588.58 1.54.58 2.128 0l1.493-1.474c.59-.582.38-1.31-.21-1.892zM6.512 13.668c0-3.7 3.037-6.695 6.775-6.695 3.746 0 7.08 3.295 7.08 6.993 0 3.7-3.032 6.695-6.777 6.695-3.74 0-7.078-3.29-7.078-6.99z" fill="#3A434E"/><path d="M27.41 64.895l-5.98-5.908c.903-1.466 1.42-3.184 1.42-5.02 0-5.343-4.685-9.968-10.092-9.968-5.405 0-9.787 4.32-9.787 9.66s4.69 9.97 10.09 9.97c1.8 0 3.49-.48 4.93-1.32L24 68.26c.59.58 1.542.58 2.13 0l1.492-1.473c.59-.582.376-1.31-.213-1.892zM5.982 53.668c0-3.7 3.037-6.695 6.775-6.695 3.746 0 7.08 3.295 7.08 6.993 0 3.7-3.032 6.695-6.777 6.695-3.74 0-7.077-3.29-7.077-6.99z" fill="#67737B"/><path d="M26.906 104.895l-5.98-5.908c.904-1.466 1.42-3.184 1.42-5.02 0-5.343-4.684-9.968-10.09-9.968s-9.788 4.32-9.788 9.66 4.685 9.97 10.09 9.97c1.8 0 3.483-.48 4.93-1.32l6.01 5.94c.588.58 1.54.58 2.128 0l1.493-1.48c.59-.58.37-1.31-.22-1.89zM5.48 93.668c0-3.7 3.037-6.695 6.775-6.695 3.746 0 7.08 3.295 7.08 6.993 0 3.7-3.032 6.695-6.777 6.695-3.74 0-7.078-3.29-7.078-6.99z" fill="#fff"/><path d="M26.906 144.895l-5.98-5.908c.904-1.466 1.42-3.184 1.42-5.02 0-5.343-4.684-9.968-10.09-9.968s-9.788 4.32-9.788 9.66 4.685 9.97 10.09 9.97c1.8 0 3.483-.48 4.93-1.32l6.01 5.94c.588.58 1.54.58 2.128 0l1.493-1.48c.59-.58.37-1.31-.22-1.89zM5.48 133.668c0-3.7 3.037-6.695 6.775-6.695 3.746 0 7.08 3.295 7.08 6.993 0 3.7-3.032 6.695-6.777 6.695-3.74 0-7.078-3.29-7.078-6.99z" fill="#206FAC"/><path d="M26.438 184.896l-5.98-5.908c.904-1.466 1.42-3.184 1.42-5.02 0-5.343-4.684-9.968-10.09-9.968S2 168.327 2 173.67c0 5.342 4.685 9.97 10.09 9.97 1.8 0 3.483-.48 4.93-1.32l6.01 5.94c.588.582 1.54.582 2.128 0l1.493-1.472c.59-.582.38-1.31-.21-1.892zM5.012 173.67c0-3.7 3.037-6.696 6.775-6.696 3.746 0 7.08 3.295 7.08 6.993 0 3.7-3.032 6.695-6.777 6.695-3.74 0-7.078-3.292-7.078-6.993z" fill="#98A8B2"/></g></svg>