<svg width="32" height="232" viewBox="0 0 32 232" xmlns="http://www.w3.org/2000/svg"><g fill="none" fill-rule="evenodd"><g id="Imported-Layers" fill="#206FAC"><path d="M17.337 124.147c-1.063 0-1.928.865-1.928 1.928v11.085c0 .37-.3.67-.67.67-.368 0-.668-.3-.668-.67v-14.774c0-1.307-1.063-2.37-2.37-2.37-1.307 0-2.37 1.063-2.37 2.37v18.076c0 .32-.26.582-.582.582-.32 0-.582-.26-.582-.582v-9.043c0-.99-.804-1.793-1.793-1.793-.988 0-1.792.804-1.792 1.792v9.22c0 .037.004.072.01.107.058 2.243 1.9 4.05 4.157 4.05h.043c.295 0 .535.24.535.535v.587c0 .02 0 .043.004.065v4.538H4.22c-.3 0-.543.242-.543.54 0 .3.243.543.542.543h9.383c.3 0 .542-.242.542-.542v-9.085c0-.165.133-.3.297-.3h.3c2.492 0 4.52-2.027 4.52-4.52h-1.084c0 1.896-1.542 3.438-3.437 3.438h-.298c-.76 0-1.38.62-1.38 1.38v8.545h-2.647v-4.718c0-.022 0-.044-.004-.066v-.408c0-.892-.725-1.618-1.617-1.618H8.75c-1.695 0-3.074-1.38-3.074-3.074 0-.034-.003-.067-.01-.1v-9.12c0-.392.318-.71.71-.71.39 0 .708.318.708.71v9.042c0 .92.747 1.666 1.666 1.666.918 0 1.665-.747 1.665-1.666v-18.076c0-.71.577-1.287 1.287-1.287s1.287.576 1.287 1.286v14.774c0 .967.785 1.752 1.75 1.752.967 0 1.753-.785 1.753-1.752v-11.085c0-.466.38-.844.844-.844.465 0 .844.38.844.845v11.085h1.084v-11.085c0-1.063-.865-1.928-1.927-1.928" id="Fill-1"/><path d="M26.66 132.525c-.298 0-.54.242-.54.54v1.955c0 .305-.25.553-.554.553-.306 0-.554-.248-.554-.553 0-.023-.004-.044-.007-.066v-4.286c0-.3-.242-.542-.54-.542-.3 0-.543.243-.543.542v5.357c0 .305-.25.554-.555.554-.305 0-.554-.25-.554-.555v-2.66c0-.3-.242-.543-.54-.543-.3 0-.543.243-.543.542v2.66c0 .904.735 1.638 1.637 1.638.198 0 .386-.037.56-.1v3.163H21.62c-.3 0-.542.242-.542.54 0 .3.243.543.542.543h2.85c.3 0 .542-.242.542-.542v-4.706c.173.063.36.097.554.097.903 0 1.637-.735 1.637-1.637v-1.954c0-.3-.242-.54-.542-.54" id="Fill-2"/></g><g id="Imported-Layers" fill="#fff"><path d="M17.337 84.147c-1.063 0-1.928.865-1.928 1.928V97.16c0 .37-.3.67-.67.67-.368 0-.668-.3-.668-.67V82.386c0-1.307-1.063-2.37-2.37-2.37-1.307 0-2.37 1.063-2.37 2.37v18.076c0 .32-.26.582-.582.582-.32 0-.582-.26-.582-.582V91.42c0-.99-.804-1.793-1.793-1.793-.988 0-1.792.804-1.792 1.792v9.22c0 .037.004.072.01.107.058 2.243 1.9 4.05 4.157 4.05h.043c.295 0 .535.24.535.535v.587c0 .02 0 .043.004.065v4.538H4.22c-.3 0-.543.242-.543.54 0 .3.243.543.542.543h9.383c.3 0 .542-.242.542-.542v-9.085c0-.165.133-.3.297-.3h.3c2.492 0 4.52-2.027 4.52-4.52h-1.084c0 1.896-1.542 3.438-3.437 3.438h-.298c-.76 0-1.38.62-1.38 1.38v8.545h-2.647v-4.718c0-.022 0-.044-.004-.066v-.408c0-.892-.725-1.618-1.617-1.618H8.75c-1.695 0-3.074-1.38-3.074-3.074 0-.034-.003-.067-.01-.1v-9.12c0-.392.318-.71.71-.71.39 0 .708.318.708.71v9.042c0 .92.747 1.666 1.666 1.666.918 0 1.665-.747 1.665-1.666V82.386c0-.71.577-1.287 1.287-1.287s1.287.576 1.287 1.286V97.16c0 .967.785 1.752 1.75 1.752.967 0 1.753-.785 1.753-1.752V86.075c0-.466.38-.844.844-.844.465 0 .844.38.844.845V97.16h1.084V86.075c0-1.063-.865-1.928-1.927-1.928" id="Fill-1"/><path d="M26.66 92.525c-.298 0-.54.242-.54.54v1.955c0 .305-.25.553-.554.553-.306 0-.554-.248-.554-.553 0-.023-.004-.044-.007-.066v-4.286c0-.3-.242-.542-.54-.542-.3 0-.543.243-.543.542v5.357c0 .305-.25.554-.555.554-.305 0-.554-.25-.554-.555v-2.66c0-.3-.242-.543-.54-.543-.3 0-.543.243-.543.542v2.66c0 .904.735 1.638 1.637 1.638.198 0 .386-.037.56-.1v3.163H21.62c-.3 0-.542.242-.542.54 0 .3.243.543.542.543h2.85c.3 0 .542-.242.542-.542V96.56c.173.063.36.097.554.097.903 0 1.637-.735 1.637-1.637v-1.954c0-.3-.242-.54-.542-.54" id="Fill-2"/></g><g id="Imported-Layers" fill="#67737B"><path d="M17.337 44.147c-1.063 0-1.928.865-1.928 1.928V57.16c0 .37-.3.67-.67.67-.368 0-.668-.3-.668-.67V42.386c0-1.307-1.063-2.37-2.37-2.37-1.307 0-2.37 1.063-2.37 2.37v18.076c0 .32-.26.582-.582.582-.32 0-.582-.26-.582-.582V51.42c0-.99-.804-1.793-1.793-1.793-.988 0-1.792.804-1.792 1.792v9.22c0 .037.004.072.01.107.058 2.243 1.9 4.05 4.157 4.05h.043c.295 0 .535.24.535.535v.587c0 .02 0 .043.004.065v4.538H4.22c-.3 0-.543.242-.543.54 0 .3.243.543.542.543h9.383c.3 0 .542-.242.542-.542V61.98c0-.165.133-.3.297-.3h.3c2.492 0 4.52-2.027 4.52-4.52h-1.084c0 1.896-1.542 3.438-3.437 3.438h-.298c-.76 0-1.38.62-1.38 1.38v8.545h-2.647v-4.718c0-.022 0-.044-.004-.066v-.408c0-.892-.725-1.618-1.617-1.618H8.75c-1.695 0-3.074-1.38-3.074-3.074 0-.034-.003-.067-.01-.1v-9.12c0-.392.318-.71.71-.71.39 0 .708.318.708.71v9.042c0 .92.747 1.666 1.666 1.666.918 0 1.665-.747 1.665-1.666V42.386c0-.71.577-1.287 1.287-1.287s1.287.576 1.287 1.286V57.16c0 .967.785 1.752 1.75 1.752.967 0 1.753-.785 1.753-1.752V46.075c0-.466.38-.844.844-.844.465 0 .844.38.844.845V57.16h1.084V46.075c0-1.063-.865-1.928-1.927-1.928" id="Fill-1"/><path d="M26.66 52.525c-.298 0-.54.242-.54.54v1.955c0 .305-.25.553-.554.553-.306 0-.554-.248-.554-.553 0-.023-.004-.044-.007-.066v-4.286c0-.3-.242-.542-.54-.542-.3 0-.543.243-.543.542v5.357c0 .305-.25.554-.555.554-.305 0-.554-.25-.554-.555v-2.66c0-.3-.242-.543-.54-.543-.3 0-.543.243-.543.542v2.66c0 .904.735 1.638 1.637 1.638.198 0 .386-.037.56-.1v3.163H21.62c-.3 0-.542.242-.542.54 0 .3.243.543.542.543h2.85c.3 0 .542-.242.542-.542V56.56c.173.063.36.097.554.097.903 0 1.637-.735 1.637-1.637v-1.954c0-.3-.242-.54-.542-.54" id="Fill-2"/></g><g fill="#373D43"><path d="M17.337 4.147c-1.063 0-1.928.865-1.928 1.928V17.16c0 .37-.3.67-.67.67-.368 0-.668-.3-.668-.67V2.386c0-1.307-1.063-2.37-2.37-2.37-1.307 0-2.37 1.063-2.37 2.37v18.076c0 .32-.26.582-.582.582-.32 0-.582-.26-.582-.582V11.42c0-.99-.804-1.793-1.793-1.793-.988 0-1.792.804-1.792 1.792v9.22c0 .037.004.072.01.107.058 2.243 1.9 4.05 4.157 4.05h.043c.295 0 .535.24.535.535v.587c0 .02 0 .043.004.065v4.538H4.22c-.3 0-.543.242-.543.54 0 .3.243.543.542.543h9.383c.3 0 .542-.242.542-.542V21.98c0-.165.133-.3.297-.3h.3c2.492 0 4.52-2.027 4.52-4.52h-1.084c0 1.896-1.542 3.438-3.437 3.438h-.298c-.76 0-1.38.62-1.38 1.38v8.545h-2.647v-4.718c0-.022 0-.044-.004-.066v-.408c0-.892-.725-1.618-1.617-1.618H8.75c-1.695 0-3.074-1.38-3.074-3.074 0-.034-.003-.067-.01-.1v-9.12c0-.392.318-.71.71-.71.39 0 .708.318.708.71v9.042c0 .92.747 1.666 1.666 1.666.918 0 1.665-.747 1.665-1.666V2.386c0-.71.577-1.287 1.287-1.287s1.287.576 1.287 1.286V17.16c0 .967.785 1.752 1.75 1.752.967 0 1.753-.785 1.753-1.752V6.075c0-.466.38-.844.844-.844.465 0 .844.38.844.845V17.16h1.084V6.075c0-1.063-.865-1.928-1.927-1.928"/><path d="M26.66 12.525c-.298 0-.54.242-.54.54v1.955c0 .305-.25.553-.554.553-.306 0-.554-.248-.554-.553 0-.023-.004-.044-.007-.066v-4.286c0-.3-.242-.542-.54-.542-.3 0-.543.243-.543.542v5.357c0 .305-.25.554-.555.554-.305 0-.554-.25-.554-.555v-2.66c0-.3-.242-.543-.54-.543-.3 0-.543.243-.543.542v2.66c0 .904.735 1.638 1.637 1.638.198 0 .386-.037.56-.1v3.163H21.62c-.3 0-.542.242-.542.54 0 .3.243.543.542.543h2.85c.3 0 .542-.242.542-.542V16.56c.173.063.36.097.554.097.903 0 1.637-.735 1.637-1.637v-1.954c0-.3-.242-.54-.542-.54"/></g></g></svg>