<svg width="32" height="232" viewBox="0 0 32 232" xmlns="http://www.w3.org/2000/svg"><g fill="none" fill-rule="evenodd"><g id="Imported-Layers" fill="#3B444F"><path d="M31.315 15.312h-2.447c-.34 0-.615.28-.615.622 0 .344.275.623.615.623h2.447c.34 0 .615-.28.615-.623 0-.343-.275-.622-.615-.622" id="Fill-1"/><path d="M25.624 24.367c-.24-.243-.63-.243-.87 0s-.24.637 0 .88l1.79 1.81c.12.123.278.184.435.184.156 0 .314-.06.434-.182.24-.243.24-.637 0-.88l-1.79-1.81" id="Fill-2"/><path d="M25.22 7.653c.156 0 .314-.06.434-.182l1.705-1.723c.24-.243.24-.637 0-.88-.242-.244-.63-.243-.872 0L24.784 6.59c-.24.244-.24.638 0 .88.12.123.278.183.435.183" id="Fill-3"/><path d="M30.393 21.263l-2.364-1.016c-.313-.134-.675.013-.808.33-.133.316.013.68.326.816l2.364 1.016c.08.033.16.048.24.048.24 0 .468-.142.567-.38.132-.315-.014-.68-.327-.815" id="Fill-4"/><path d="M21.04 4.925c.08.033.16.05.24.05.24 0 .468-.143.568-.38l.942-2.243c.132-.316-.014-.682-.326-.816-.313-.135-.674.013-.807.33l-.942 2.242c-.133.317.013.682.326.817" id="Fill-5"/><path d="M21.644 27.367c-.127-.32-.486-.473-.8-.344-.316.128-.468.49-.34.81l.94 2.36c.097.242.328.39.572.39.076 0 .154-.015.23-.046.315-.13.467-.492.34-.81l-.942-2.36" id="Fill-6"/><path d="M27.312 11.484c.097.242.328.39.57.39.078 0 .156-.015.23-.046l2.333-.952c.315-.13.468-.49.34-.81-.127-.32-.485-.473-.8-.344l-2.332.952c-.316.128-.468.49-.34.81" id="Fill-7"/><path d="M14.29.505c-.34 0-.615.278-.615.622v5.675L10.93 4.024c-.242-.243-.63-.243-.872 0-.24.243-.24.638 0 .88l3.617 3.66v5.99L6.54 7.336c-.24-.243-.63-.243-.87 0s-.24.637 0 .88l7.07 7.152H6.805L3.26 11.78c-.24-.242-.63-.242-.87 0-.24.244-.24.64 0 .882l2.675 2.706H.672c-.34 0-.616.28-.616.623 0 .344.276.623.616.623h4.393L2.39 19.32c-.24.242-.24.637 0 .88.12.12.277.182.435.182.157 0 .315-.06.435-.182l3.546-3.587h5.927L5.48 23.95c-.24.243-.24.637 0 .88.12.122.278.182.436.182.157 0 .315-.06.435-.182l7.325-7.41v5.998l-3.616 3.658c-.242.243-.242.638 0 .88.12.122.276.183.434.183.157 0 .315-.062.435-.183l2.745-2.778v5.674c0 .344.275.622.615.622.34 0 .615-.278.615-.622V1.127c0-.344-.275-.622-.615-.622" id="Fill-8"/><path d="M16.418 5.942c-.34 0-.616.28-.616.622 0 .344.276.623.616.623 4.798 0 8.703 3.95 8.703 8.804 0 4.855-3.904 8.804-8.702 8.804-.34 0-.616.28-.616.623 0 .343.276.622.616.622 5.477 0 9.933-4.51 9.933-10.05 0-5.54-4.455-10.048-9.932-10.048" id="Fill-9"/></g><g id="Imported-Layers" fill="#67737B"><path d="M31.315 55.312h-2.447c-.34 0-.615.28-.615.622 0 .344.275.623.615.623h2.447c.34 0 .615-.28.615-.623 0-.343-.275-.622-.615-.622" id="Fill-1"/><path d="M25.624 64.367c-.24-.243-.63-.243-.87 0s-.24.637 0 .88l1.79 1.81c.12.123.278.184.435.184.156 0 .314-.06.434-.182.24-.243.24-.637 0-.88l-1.79-1.81" id="Fill-2"/><path d="M25.22 47.653c.156 0 .314-.06.434-.182l1.705-1.723c.24-.243.24-.637 0-.88-.242-.244-.63-.243-.872 0l-1.704 1.724c-.24.244-.24.638 0 .88.12.123.278.183.435.183" id="Fill-3"/><path d="M30.393 61.263l-2.364-1.016c-.313-.134-.675.013-.808.33-.133.316.013.68.326.816l2.364 1.016c.08.033.16.048.24.048.24 0 .468-.142.567-.38.132-.315-.014-.68-.327-.815" id="Fill-4"/><path d="M21.04 44.925c.08.033.16.05.24.05.24 0 .468-.143.568-.38l.942-2.243c.132-.316-.014-.682-.326-.816-.313-.135-.674.013-.807.33l-.942 2.242c-.133.317.013.682.326.817" id="Fill-5"/><path d="M21.644 67.367c-.127-.32-.486-.473-.8-.344-.316.128-.468.49-.34.81l.94 2.36c.097.242.328.39.572.39.076 0 .154-.015.23-.046.315-.13.467-.492.34-.81l-.942-2.36" id="Fill-6"/><path d="M27.312 51.484c.097.242.328.39.57.39.078 0 .156-.015.23-.046l2.333-.952c.315-.13.468-.49.34-.81-.127-.32-.485-.473-.8-.344l-2.332.952c-.316.128-.468.49-.34.81" id="Fill-7"/><path d="M14.29 40.505c-.34 0-.615.278-.615.622v5.675l-2.746-2.778c-.242-.243-.63-.243-.872 0-.24.243-.24.638 0 .88l3.617 3.66v5.99L6.54 47.336c-.24-.243-.63-.243-.87 0s-.24.637 0 .88l7.07 7.152H6.805L3.26 51.78c-.24-.242-.63-.242-.87 0-.24.244-.24.64 0 .882l2.675 2.706H.672c-.34 0-.616.28-.616.623 0 .344.276.623.616.623h4.393L2.39 59.32c-.24.242-.24.637 0 .88.12.12.277.182.435.182.157 0 .315-.06.435-.182l3.546-3.587h5.927L5.48 63.95c-.24.243-.24.637 0 .88.12.122.278.182.436.182.157 0 .315-.06.435-.182l7.325-7.41v5.998l-3.616 3.658c-.242.243-.242.638 0 .88.12.122.276.183.434.183.157 0 .315-.062.435-.183l2.745-2.778v5.674c0 .344.275.622.615.622.34 0 .615-.278.615-.622V41.127c0-.344-.275-.622-.615-.622" id="Fill-8"/><path d="M16.418 45.942c-.34 0-.616.28-.616.622 0 .344.276.623.616.623 4.798 0 8.703 3.95 8.703 8.804 0 4.855-3.904 8.804-8.702 8.804-.34 0-.616.28-.616.623 0 .343.276.622.616.622 5.477 0 9.933-4.51 9.933-10.05 0-5.54-4.455-10.048-9.932-10.048" id="Fill-9"/></g><g id="Imported-Layers" fill="#fff"><path d="M31.315 95.312h-2.447c-.34 0-.615.28-.615.622 0 .344.275.623.615.623h2.447c.34 0 .615-.28.615-.623 0-.343-.275-.622-.615-.622" id="Fill-1"/><path d="M25.624 104.367c-.24-.243-.63-.243-.87 0s-.24.637 0 .88l1.79 1.81c.12.123.278.184.435.184.156 0 .314-.06.434-.182.24-.243.24-.637 0-.88l-1.79-1.81" id="Fill-2"/><path d="M25.22 87.653c.156 0 .314-.06.434-.182l1.705-1.723c.24-.243.24-.637 0-.88-.242-.244-.63-.243-.872 0l-1.704 1.724c-.24.244-.24.638 0 .88.12.123.278.183.435.183" id="Fill-3"/><path d="M30.393 101.263l-2.364-1.016c-.313-.134-.675.013-.808.33-.133.316.013.68.326.816l2.364 1.016c.08.033.16.048.24.048.24 0 .468-.142.567-.38.132-.315-.014-.68-.327-.815" id="Fill-4"/><path d="M21.04 84.925c.08.033.16.05.24.05.24 0 .468-.143.568-.38l.942-2.243c.132-.316-.014-.682-.326-.816-.313-.135-.674.013-.807.33l-.942 2.242c-.133.317.013.682.326.817" id="Fill-5"/><path d="M21.644 107.367c-.127-.32-.486-.473-.8-.344-.316.128-.468.49-.34.81l.94 2.36c.097.242.328.39.572.39.076 0 .154-.015.23-.046.315-.13.467-.492.34-.81l-.942-2.36" id="Fill-6"/><path d="M27.312 91.484c.097.242.328.39.57.39.078 0 .156-.015.23-.046l2.333-.952c.315-.13.468-.49.34-.81-.127-.32-.485-.473-.8-.344l-2.332.952c-.316.128-.468.49-.34.81" id="Fill-7"/><path d="M14.29 80.505c-.34 0-.615.278-.615.622v5.675l-2.746-2.778c-.242-.243-.63-.243-.872 0-.24.243-.24.638 0 .88l3.617 3.66v5.99L6.54 87.336c-.24-.243-.63-.243-.87 0s-.24.637 0 .88l7.07 7.152H6.805L3.26 91.78c-.24-.242-.63-.242-.87 0-.24.244-.24.64 0 .882l2.675 2.706H.672c-.34 0-.616.28-.616.623 0 .344.276.623.616.623h4.393L2.39 99.32c-.24.242-.24.637 0 .88.12.12.277.182.435.182.157 0 .315-.06.435-.182l3.546-3.587h5.927L5.48 103.95c-.24.243-.24.637 0 .88.12.122.278.182.436.182.157 0 .315-.06.435-.182l7.325-7.41v5.998l-3.616 3.658c-.242.243-.242.638 0 .88.12.122.276.183.434.183.157 0 .315-.062.435-.183l2.745-2.778v5.674c0 .344.275.622.615.622.34 0 .615-.278.615-.622V81.127c0-.344-.275-.622-.615-.622" id="Fill-8"/><path d="M16.418 85.942c-.34 0-.616.28-.616.622 0 .344.276.623.616.623 4.798 0 8.703 3.95 8.703 8.804 0 4.855-3.904 8.804-8.702 8.804-.34 0-.616.28-.616.623 0 .343.276.622.616.622 5.477 0 9.933-4.51 9.933-10.05 0-5.54-4.455-10.048-9.932-10.048" id="Fill-9"/></g><g fill="#206FAC"><path d="M31.315 135.312h-2.447c-.34 0-.615.28-.615.622 0 .344.275.623.615.623h2.447c.34 0 .615-.28.615-.623 0-.343-.275-.622-.615-.622"/><path d="M25.624 144.367c-.24-.243-.63-.243-.87 0s-.24.637 0 .88l1.79 1.81c.12.123.278.184.435.184.156 0 .314-.06.434-.182.24-.243.24-.637 0-.88l-1.79-1.81"/><path d="M25.22 127.653c.156 0 .314-.06.434-.182l1.705-1.723c.24-.243.24-.637 0-.88-.242-.244-.63-.243-.872 0l-1.704 1.724c-.24.244-.24.638 0 .88.12.123.278.183.435.183"/><path d="M30.393 141.263l-2.364-1.016c-.313-.134-.675.013-.808.33-.133.316.013.68.326.816l2.364 1.016c.08.033.16.048.24.048.24 0 .468-.142.567-.38.132-.315-.014-.68-.327-.815"/><path d="M21.04 124.925c.08.033.16.05.24.05.24 0 .468-.143.568-.38l.942-2.243c.132-.316-.014-.682-.326-.816-.313-.135-.674.013-.807.33l-.942 2.242c-.133.317.013.682.326.817"/><path d="M21.644 147.367c-.127-.32-.486-.473-.8-.344-.316.128-.468.49-.34.81l.94 2.36c.097.242.328.39.572.39.076 0 .154-.015.23-.046.315-.13.467-.492.34-.81l-.942-2.36"/><path d="M27.312 131.484c.097.242.328.39.57.39.078 0 .156-.015.23-.046l2.333-.952c.315-.13.468-.49.34-.81-.127-.32-.485-.473-.8-.344l-2.332.952c-.316.128-.468.49-.34.81"/><path d="M14.29 120.505c-.34 0-.615.278-.615.622v5.675l-2.746-2.778c-.242-.243-.63-.243-.872 0-.24.243-.24.638 0 .88l3.617 3.66v5.99l-7.135-7.218c-.24-.243-.63-.243-.87 0s-.24.637 0 .88l7.07 7.152H6.805L3.26 131.78c-.24-.242-.63-.242-.87 0-.24.244-.24.64 0 .882l2.675 2.706H.672c-.34 0-.616.28-.616.623 0 .344.276.623.616.623h4.393L2.39 139.32c-.24.242-.24.637 0 .88.12.12.277.182.435.182.157 0 .315-.06.435-.182l3.546-3.587h5.927L5.48 143.95c-.24.243-.24.637 0 .88.12.122.278.182.436.182.157 0 .315-.06.435-.182l7.325-7.41v5.998l-3.616 3.658c-.242.243-.242.638 0 .88.12.122.276.183.434.183.157 0 .315-.062.435-.183l2.745-2.778v5.674c0 .344.275.622.615.622.34 0 .615-.278.615-.622v-29.727c0-.344-.275-.622-.615-.622"/><path d="M16.418 125.942c-.34 0-.616.28-.616.622 0 .344.276.623.616.623 4.798 0 8.703 3.95 8.703 8.804 0 4.855-3.904 8.804-8.702 8.804-.34 0-.616.28-.616.623 0 .343.276.622.616.622 5.477 0 9.933-4.51 9.933-10.05 0-5.54-4.455-10.048-9.932-10.048"/></g></g></svg>