<svg width="32" height="232" viewBox="0 0 32 232" xmlns="http://www.w3.org/2000/svg"><g fill="none" fill-rule="evenodd"><g fill="#373D43"><path d="M14.184 13.423c.172-2.09.334-4.065-.132-6.243-.272-1.27-1.433-5.412-4.958-5.412-.33 0-.675.038-1.025.113-1.992.427-3.973 1.674-5.3 3.335C1.262 7.097.69 9.335 1.16 11.517c.36 1.68 1.173 3.892 2.036 6.232 1 2.717 2.036 5.528 2.563 7.984.65 3.037 2.088 4.577 4.275 4.577.36 0 .742-.042 1.14-.127 1.88-.403 3.07-1.39 3.53-2.93.43-1.44.158-3.157-.128-4.493-.84-3.916-.602-6.796-.393-9.337zm-4.15 15.805c-2.168 0-2.874-2.124-3.216-3.72-.542-2.533-1.59-5.38-2.606-8.133-.848-2.304-1.65-4.48-1.994-6.085-.398-1.858.098-3.775 1.397-5.4 1.177-1.47 2.927-2.574 4.68-2.95.276-.06.545-.088.8-.088.684 0 2.992.328 3.898 4.555.433 2.02.284 3.83.11 5.928-.214 2.615-.458 5.58.414 9.652.26 1.21.51 2.752.15 3.957-.348 1.164-1.213 1.857-2.72 2.18-.322.068-.63.104-.912.104z" id="Fill-1"/><path d="M11.22 20.483c.054.254.278.428.528.428.038 0 .076-.003.114-.01.293-.064.48-.352.417-.644-.594-2.765-.367-5.12-.184-7.014.125-1.295.232-2.413.038-3.322-.467-2.178-2.992-2.685-4.06-2.802L7.97 6.25c-.034-.297-.304-.51-.6-.475-.298.035-.51.304-.475.602l.112.952c-.392.232-1.067.676-1.71 1.3-1.336 1.3-1.88 2.752-1.57 4.2.36 1.682 1.05 3.45 1.718 5.163.553 1.417 1.075 2.756 1.298 3.8.055.253.28.427.53.427.037 0 .075-.004.113-.012.293-.063.48-.35.416-.643-.24-1.128-.78-2.507-1.347-3.966-.652-1.672-1.326-3.4-1.668-4.998-.503-2.347 2.306-4.08 2.925-4.43.602.043 3.007.315 3.362 1.975.16.745.06 1.786-.057 2.99-.19 1.968-.425 4.417.202 7.346" id="Fill-2"/><path d="M29.31 5.215C27.98 3.555 26 2.307 24.007 1.88c-.35-.074-.694-.112-1.024-.112-3.525 0-4.687 4.143-4.96 5.412-.465 2.178-.302 4.152-.13 6.243.21 2.54.446 5.42-.393 9.337-.285 1.336-.558 3.053-.127 4.494.46 1.54 1.648 2.526 3.53 2.93.397.084.78.127 1.14.127 2.186 0 3.625-1.54 4.276-4.576.525-2.456 1.56-5.267 2.562-7.985.862-2.34 1.677-4.552 2.037-6.233.466-2.182-.106-4.42-1.61-6.302zm.55 6.075c-.345 1.605-1.146 3.78-1.995 6.085-1.014 2.753-2.063 5.6-2.605 8.132-.343 1.597-1.048 3.72-3.218 3.72-.282 0-.59-.035-.912-.103-1.507-.323-2.37-1.016-2.72-2.18-.36-1.205-.11-2.748.15-3.957.872-4.072.63-7.037.413-9.652-.172-2.097-.32-3.907.112-5.928.905-4.227 3.213-4.555 3.9-4.555.253 0 .52.03.796.088 1.756.376 3.506 1.48 4.683 2.95 1.298 1.625 1.794 3.542 1.396 5.4z" id="Fill-3"/><path d="M25.07 7.33l.112-.953c.036-.298-.177-.567-.474-.602-.297-.035-.566.178-.6.475l-.104.868c-1.068.117-3.594.624-4.06 2.802-.195.91-.087 2.027.038 3.322.182 1.893.41 4.25-.183 7.014-.064.292.123.58.415.643.038.007.077.01.114.01.25 0 .474-.173.528-.427.628-2.93.392-5.378.202-7.345-.116-1.205-.216-2.246-.057-2.99.354-1.654 2.763-1.93 3.364-1.975.62.35 3.428 2.074 2.923 4.43-.342 1.597-1.016 3.325-1.667 4.996-.57 1.458-1.106 2.837-1.348 3.965-.063.292.124.58.416.643.04.008.078.012.115.012.25 0 .475-.174.53-.428.223-1.043.745-2.382 1.297-3.8.667-1.71 1.357-3.48 1.718-5.163.31-1.448-.233-2.9-1.57-4.2-.643-.624-1.318-1.068-1.71-1.3" id="Fill-4"/></g><g fill="#67737B"><path d="M14.184 53.423c.172-2.09.334-4.065-.132-6.243-.272-1.27-1.433-5.412-4.958-5.412-.33 0-.675.038-1.025.113-1.992.427-3.973 1.674-5.3 3.335-1.507 1.882-2.078 4.12-1.61 6.302.36 1.68 1.173 3.892 2.036 6.232 1 2.717 2.036 5.528 2.563 7.984.65 3.037 2.088 4.577 4.275 4.577.36 0 .742-.042 1.14-.127 1.88-.403 3.07-1.39 3.53-2.93.43-1.44.158-3.157-.128-4.493-.84-3.916-.602-6.796-.393-9.337zm-4.15 15.805c-2.168 0-2.874-2.124-3.216-3.72-.542-2.533-1.59-5.38-2.606-8.133-.848-2.304-1.65-4.48-1.994-6.085-.398-1.858.098-3.775 1.397-5.4 1.177-1.47 2.927-2.574 4.68-2.95.276-.06.545-.088.8-.088.684 0 2.992.328 3.898 4.555.433 2.02.284 3.83.11 5.928-.214 2.615-.458 5.58.414 9.652.26 1.21.51 2.752.15 3.957-.348 1.164-1.213 1.857-2.72 2.18-.322.068-.63.104-.912.104z" id="Fill-1"/><path d="M11.22 60.483c.054.254.278.428.528.428.038 0 .076-.003.114-.01.293-.064.48-.352.417-.644-.594-2.765-.367-5.12-.184-7.014.125-1.295.232-2.413.038-3.322-.467-2.178-2.992-2.685-4.06-2.802l-.103-.868c-.034-.297-.304-.51-.6-.475-.298.035-.51.304-.475.602l.112.952c-.392.232-1.067.676-1.71 1.3-1.336 1.3-1.88 2.752-1.57 4.2.36 1.682 1.05 3.45 1.718 5.163.553 1.417 1.075 2.756 1.298 3.8.055.253.28.427.53.427.037 0 .075-.004.113-.012.293-.063.48-.35.416-.643-.24-1.128-.78-2.507-1.347-3.966-.652-1.672-1.326-3.4-1.668-4.998-.503-2.347 2.306-4.08 2.925-4.43.602.043 3.007.315 3.362 1.975.16.745.06 1.786-.057 2.99-.19 1.968-.425 4.417.202 7.346" id="Fill-2"/><path d="M29.31 45.215c-1.33-1.66-3.31-2.908-5.302-3.334-.35-.074-.694-.112-1.024-.112-3.525 0-4.687 4.143-4.96 5.412-.465 2.178-.302 4.152-.13 6.243.21 2.54.446 5.42-.393 9.337-.285 1.336-.558 3.053-.127 4.494.46 1.54 1.648 2.526 3.53 2.93.397.084.78.127 1.14.127 2.186 0 3.625-1.54 4.276-4.576.525-2.456 1.56-5.267 2.562-7.985.862-2.34 1.677-4.552 2.037-6.233.466-2.182-.106-4.42-1.61-6.302zm.55 6.075c-.345 1.605-1.146 3.78-1.995 6.085-1.014 2.753-2.063 5.6-2.605 8.132-.343 1.597-1.048 3.72-3.218 3.72-.282 0-.59-.035-.912-.103-1.507-.323-2.37-1.016-2.72-2.18-.36-1.205-.11-2.748.15-3.957.872-4.072.63-7.037.413-9.652-.172-2.097-.32-3.907.112-5.928.905-4.227 3.213-4.555 3.9-4.555.253 0 .52.03.796.088 1.756.376 3.506 1.48 4.683 2.95 1.298 1.625 1.794 3.542 1.396 5.4z" id="Fill-3"/><path d="M25.07 47.33l.112-.953c.036-.298-.177-.567-.474-.602-.297-.035-.566.178-.6.475l-.104.868c-1.068.117-3.594.624-4.06 2.802-.195.91-.087 2.027.038 3.322.182 1.893.41 4.25-.183 7.014-.064.292.123.58.415.643.038.007.077.01.114.01.25 0 .474-.173.528-.427.628-2.93.392-5.378.202-7.345-.116-1.205-.216-2.246-.057-2.99.354-1.654 2.763-1.93 3.364-1.975.62.35 3.428 2.074 2.923 4.43-.342 1.597-1.016 3.325-1.667 4.996-.57 1.458-1.106 2.837-1.348 3.965-.063.292.124.58.416.643.04.008.078.012.115.012.25 0 .475-.174.53-.428.223-1.043.745-2.382 1.297-3.8.667-1.71 1.357-3.48 1.718-5.163.31-1.448-.233-2.9-1.57-4.2-.643-.624-1.318-1.068-1.71-1.3" id="Fill-4"/></g><g fill="#fff"><path d="M14.184 93.423c.172-2.09.334-4.065-.132-6.243-.272-1.27-1.433-5.412-4.958-5.412-.33 0-.675.038-1.025.113-1.992.427-3.973 1.674-5.3 3.335-1.507 1.882-2.078 4.12-1.61 6.302.36 1.68 1.173 3.892 2.036 6.232 1 2.717 2.036 5.528 2.563 7.984.65 3.037 2.088 4.577 4.275 4.577.36 0 .742-.042 1.14-.127 1.88-.403 3.07-1.39 3.53-2.93.43-1.44.158-3.157-.128-4.493-.84-3.916-.602-6.796-.393-9.337zm-4.15 15.805c-2.168 0-2.874-2.124-3.216-3.72-.542-2.533-1.59-5.38-2.606-8.133-.848-2.304-1.65-4.48-1.994-6.085-.398-1.858.098-3.775 1.397-5.4 1.177-1.47 2.927-2.574 4.68-2.95.276-.06.545-.088.8-.088.684 0 2.992.328 3.898 4.555.433 2.02.284 3.83.11 5.928-.214 2.615-.458 5.58.414 9.652.26 1.21.51 2.752.15 3.957-.348 1.164-1.213 1.857-2.72 2.18-.322.068-.63.104-.912.104z" id="Fill-1"/><path d="M11.22 100.483c.054.254.278.428.528.428.038 0 .076-.003.114-.01.293-.064.48-.352.417-.644-.594-2.765-.367-5.12-.184-7.014.125-1.295.232-2.413.038-3.322-.467-2.178-2.992-2.685-4.06-2.802l-.103-.868c-.034-.297-.304-.51-.6-.475-.298.035-.51.304-.475.602l.112.952c-.392.232-1.067.676-1.71 1.3-1.336 1.3-1.88 2.752-1.57 4.2.36 1.682 1.05 3.45 1.718 5.163.553 1.417 1.075 2.756 1.298 3.8.055.253.28.427.53.427.037 0 .075-.004.113-.012.293-.063.48-.35.416-.643-.24-1.128-.78-2.507-1.347-3.966-.652-1.672-1.326-3.4-1.668-4.998-.503-2.347 2.306-4.08 2.925-4.43.602.043 3.007.315 3.362 1.975.16.745.06 1.786-.057 2.99-.19 1.968-.425 4.417.202 7.346" id="Fill-2"/><path d="M29.31 85.215c-1.33-1.66-3.31-2.908-5.302-3.334-.35-.074-.694-.112-1.024-.112-3.525 0-4.687 4.143-4.96 5.412-.465 2.178-.302 4.152-.13 6.243.21 2.54.446 5.42-.393 9.337-.285 1.336-.558 3.053-.127 4.494.46 1.54 1.648 2.526 3.53 2.93.397.084.78.127 1.14.127 2.186 0 3.625-1.54 4.276-4.576.525-2.456 1.56-5.267 2.562-7.985.862-2.34 1.677-4.552 2.037-6.233.466-2.182-.106-4.42-1.61-6.302zm.55 6.075c-.345 1.605-1.146 3.78-1.995 6.085-1.014 2.753-2.063 5.6-2.605 8.132-.343 1.597-1.048 3.72-3.218 3.72-.282 0-.59-.035-.912-.103-1.507-.323-2.37-1.016-2.72-2.18-.36-1.205-.11-2.748.15-3.957.872-4.072.63-7.037.413-9.652-.172-2.097-.32-3.907.112-5.928.905-4.227 3.213-4.555 3.9-4.555.253 0 .52.03.796.088 1.756.376 3.506 1.48 4.683 2.95 1.298 1.625 1.794 3.542 1.396 5.4z" id="Fill-3"/><path d="M25.07 87.33l.112-.953c.036-.298-.177-.567-.474-.602-.297-.035-.566.178-.6.475l-.104.868c-1.068.117-3.594.624-4.06 2.802-.195.91-.087 2.027.038 3.322.182 1.893.41 4.25-.183 7.014-.064.292.123.58.415.643.038.007.077.01.114.01.25 0 .474-.173.528-.427.628-2.93.392-5.378.202-7.345-.116-1.205-.216-2.246-.057-2.99.354-1.654 2.763-1.93 3.364-1.975.62.35 3.428 2.074 2.923 4.43-.342 1.597-1.016 3.325-1.667 4.996-.57 1.458-1.106 2.837-1.348 3.965-.063.292.124.58.416.643.04.008.078.012.115.012.25 0 .475-.174.53-.428.223-1.043.745-2.382 1.297-3.8.667-1.71 1.357-3.48 1.718-5.163.31-1.448-.233-2.9-1.57-4.2-.643-.624-1.318-1.068-1.71-1.3" id="Fill-4"/></g><g fill="#206FAC"><path d="M14.184 133.423c.172-2.09.334-4.065-.132-6.243-.272-1.27-1.433-5.412-4.958-5.412-.33 0-.675.038-1.025.113-1.992.427-3.973 1.674-5.3 3.335-1.507 1.882-2.078 4.12-1.61 6.302.36 1.68 1.173 3.892 2.036 6.232 1 2.717 2.036 5.528 2.563 7.984.65 3.037 2.088 4.577 4.275 4.577.36 0 .742-.042 1.14-.127 1.88-.403 3.07-1.39 3.53-2.93.43-1.44.158-3.157-.128-4.493-.84-3.916-.602-6.796-.393-9.337zm-4.15 15.805c-2.168 0-2.874-2.124-3.216-3.72-.542-2.533-1.59-5.38-2.606-8.133-.848-2.304-1.65-4.48-1.994-6.085-.398-1.858.098-3.775 1.397-5.4 1.177-1.47 2.927-2.574 4.68-2.95.276-.06.545-.088.8-.088.684 0 2.992.328 3.898 4.555.433 2.02.284 3.83.11 5.928-.214 2.615-.458 5.58.414 9.652.26 1.21.51 2.752.15 3.957-.348 1.164-1.213 1.857-2.72 2.18-.322.068-.63.104-.912.104z"/><path d="M11.22 140.483c.054.254.278.428.528.428.038 0 .076-.003.114-.01.293-.064.48-.352.417-.644-.594-2.765-.367-5.12-.184-7.014.125-1.295.232-2.413.038-3.322-.467-2.178-2.992-2.685-4.06-2.802l-.103-.868c-.034-.297-.304-.51-.6-.475-.298.035-.51.304-.475.602l.112.952c-.392.232-1.067.676-1.71 1.3-1.336 1.3-1.88 2.752-1.57 4.2.36 1.682 1.05 3.45 1.718 5.163.553 1.417 1.075 2.756 1.298 3.8.055.253.28.427.53.427.037 0 .075-.004.113-.012.293-.063.48-.35.416-.643-.24-1.128-.78-2.507-1.347-3.966-.652-1.672-1.326-3.4-1.668-4.998-.503-2.347 2.306-4.08 2.925-4.43.602.043 3.007.315 3.362 1.975.16.745.06 1.786-.057 2.99-.19 1.968-.425 4.417.202 7.346"/><path d="M29.31 125.215c-1.33-1.66-3.31-2.908-5.302-3.334-.35-.074-.694-.112-1.024-.112-3.525 0-4.687 4.143-4.96 5.412-.465 2.178-.302 4.152-.13 6.243.21 2.54.446 5.42-.393 9.337-.285 1.336-.558 3.053-.127 4.494.46 1.54 1.648 2.526 3.53 2.93.397.084.78.127 1.14.127 2.186 0 3.625-1.54 4.276-4.576.525-2.456 1.56-5.267 2.562-7.985.862-2.34 1.677-4.552 2.037-6.233.466-2.182-.106-4.42-1.61-6.302zm.55 6.075c-.345 1.605-1.146 3.78-1.995 6.085-1.014 2.753-2.063 5.6-2.605 8.132-.343 1.597-1.048 3.72-3.218 3.72-.282 0-.59-.035-.912-.103-1.507-.323-2.37-1.016-2.72-2.18-.36-1.205-.11-2.748.15-3.957.872-4.072.63-7.037.413-9.652-.172-2.097-.32-3.907.112-5.928.905-4.227 3.213-4.555 3.9-4.555.253 0 .52.03.796.088 1.756.376 3.506 1.48 4.683 2.95 1.298 1.625 1.794 3.542 1.396 5.4z"/><path d="M25.07 127.33l.112-.953c.036-.298-.177-.567-.474-.602-.297-.035-.566.178-.6.475l-.104.868c-1.068.117-3.594.624-4.06 2.802-.195.91-.087 2.027.038 3.322.182 1.893.41 4.25-.183 7.014-.064.292.123.58.415.643.038.007.077.01.114.01.25 0 .474-.173.528-.427.628-2.93.392-5.378.202-7.345-.116-1.205-.216-2.246-.057-2.99.354-1.654 2.763-1.93 3.364-1.975.62.35 3.428 2.074 2.923 4.43-.342 1.597-1.016 3.325-1.667 4.996-.57 1.458-1.106 2.837-1.348 3.965-.063.292.124.58.416.643.04.008.078.012.115.012.25 0 .475-.174.53-.428.223-1.043.745-2.382 1.297-3.8.667-1.71 1.357-3.48 1.718-5.163.31-1.448-.233-2.9-1.57-4.2-.643-.624-1.318-1.068-1.71-1.3"/></g></g></svg>