<svg width="32" height="232" viewBox="0 0 32 232" xmlns="http://www.w3.org/2000/svg"><g fill="none" fill-rule="evenodd"><g id="Imported-Layers" fill="#206FAC"><path d="M28.417 136.634h.012c.012 0 .024-.003.037-.004.013 0 .025-.002.038-.004.023-.003.044-.01.066-.015.23-.062.4-.268.4-.518 0-7.04-5.584-12.802-12.557-13.087v-.784c0-.298-.243-.54-.542-.54-.298 0-.54.242-.54.54v.785c-6.973.285-12.56 6.046-12.56 13.087 0 .244.164.446.386.514.02.007.043.013.065.017.027.004.054.01.08.01h.023c.17 0 .336-.077.443-.225.624-.87 1.632-1.39 2.696-1.39 1.02 0 1.986.477 2.614 1.282.076.182.25.312.455.33h.015c.01 0 .02.004.03.004H9.6c.027 0 .056-.003.084-.007.005 0 .01-.003.015-.004.025-.005.05-.01.076-.02l.03-.012c.02-.007.038-.016.057-.027.01-.006.022-.012.032-.02l.02-.01.022-.02c.015-.013.03-.026.043-.04.014-.012.026-.027.038-.042l.02-.022c.624-.87 1.632-1.39 2.697-1.39 1.008 0 1.966.467 2.594 1.257v11.84c0 1.393 1.133 2.527 2.527 2.527 1.394 0 2.528-1.134 2.528-2.528 0-.3-.242-.542-.54-.542-.3 0-.543.243-.543.542 0 .796-.648 1.445-1.445 1.445-.796 0-1.444-.65-1.444-1.446v-11.84c.628-.79 1.586-1.256 2.595-1.256 1.064 0 2.072.52 2.696 1.39.012.018.026.035.04.05.002 0 .002.002.003.003.022.025.048.046.075.067.002 0 .004.004.006.005l.005.003c.027.02.055.035.083.048l.018.008c.03.013.058.023.087.03.006 0 .01 0 .015.002.027.006.054.01.08.01h.02l.01.002h.022c.225 0 .418-.138.5-.334.627-.805 1.594-1.282 2.613-1.282 1.065 0 2.073.52 2.696 1.39.106.147.272.226.44.226zm-21.955-2.7c-.915 0-1.797.29-2.53.808.55-4.9 4.057-8.917 8.69-10.22-.62.633-1.188 1.453-1.686 2.447-1.07 2.135-1.72 4.876-1.87 7.825-.747-.55-1.658-.86-2.604-.86zm6.273 0c-.936 0-1.84.305-2.582.844.147-2.772.755-5.336 1.75-7.323.958-1.91 2.158-3.067 3.426-3.324v10.658c-.746-.546-1.653-.853-2.595-.853zm6.273 0c-.942 0-1.85.308-2.595.854V124.13c1.268.258 2.468 1.416 3.425 3.325.997 1.987 1.605 4.55 1.75 7.323-.742-.54-1.644-.843-2.58-.843zm6.272 0c-.946 0-1.857.31-2.605.86-.147-2.948-.798-5.69-1.868-7.825-.5-.995-1.068-1.815-1.688-2.448 4.633 1.303 8.14 5.32 8.69 10.22-.732-.517-1.614-.807-2.53-.807zm0 3.374c-.3 0-.542.243-.542.542v5.85c0 .3.243.542.542.542.3 0 .542-.243.542-.542v-5.85c0-.3-.243-.542-.542-.542zm3.137.65c-.3 0-.542.243-.542.542v2.275c0 .3.242.542.542.542.3 0 .54-.243.54-.542V138.5c0-.3-.24-.542-.54-.542zm0 5.228c-.3 0-.542.242-.542.54v1.112c0 .3.242.542.542.542.3 0 .54-.243.54-.542v-1.11c0-.3-.24-.542-.54-.542zm-22.434-6.823c-.3 0-.542.243-.542.542v5.333c0 .3.244.542.543.542.3 0 .54-.243.54-.542v-5.333c0-.3-.24-.542-.54-.542zm-2.67 3.437c.3 0 .542-.242.542-.54v-1.41c0-.3-.243-.542-.542-.542-.3 0-.542.243-.542.542v1.41c0 .298.244.54.543.54zm.013 1.896c-.3 0-.542.243-.542.542v2.98c0 .298.242.54.542.54.3 0 .54-.242.54-.54v-2.98c0-.3-.24-.542-.54-.542zm5.487-4.23c-.3 0-.54.243-.54.543v1.09c0 .3.24.542.54.542.3 0 .542-.243.542-.542v-1.09c0-.3-.242-.543-.542-.543zm14.078 0c-.298 0-.54.243-.54.543v1.09c0 .3.242.542.54.542.3 0 .543-.243.543-.542v-1.09c0-.3-.243-.543-.542-.543z" id="Fill-1"/></g><g id="Imported-Layers" fill="#fff"><path d="M28.417 96.634h.012c.012 0 .024-.003.037-.004.013 0 .025-.002.038-.004.023-.003.044-.01.066-.015.23-.062.4-.268.4-.518 0-7.04-5.584-12.802-12.557-13.087v-.784c0-.298-.243-.54-.542-.54-.298 0-.54.242-.54.54v.785C8.356 83.29 2.77 89.05 2.77 96.092c0 .244.164.446.386.514.02.007.043.013.065.017.027.004.054.01.08.01h.023c.17 0 .336-.077.443-.225.624-.87 1.632-1.39 2.696-1.39 1.02 0 1.986.477 2.614 1.282.076.182.25.312.455.33h.015c.01 0 .02.004.03.004H9.6c.027 0 .056-.003.084-.007.005 0 .01-.003.015-.004.025-.005.05-.01.076-.02l.03-.012c.02-.007.038-.016.057-.027.01-.006.022-.012.032-.02l.02-.01.022-.02c.015-.013.03-.026.043-.04.014-.012.026-.027.038-.042l.02-.022c.624-.87 1.632-1.39 2.697-1.39 1.008 0 1.966.467 2.594 1.257v11.84c0 1.393 1.133 2.527 2.527 2.527 1.394 0 2.528-1.134 2.528-2.528 0-.3-.242-.542-.54-.542-.3 0-.543.243-.543.542 0 .796-.648 1.445-1.445 1.445-.796 0-1.444-.65-1.444-1.446v-11.84c.628-.79 1.586-1.256 2.595-1.256 1.064 0 2.072.52 2.696 1.39.012.018.026.035.04.05.002 0 .002.002.003.003.022.025.048.046.075.067.002 0 .004.004.006.005l.005.003c.027.02.055.035.083.048l.018.008c.03.013.058.023.087.03.006 0 .01 0 .015.002.027.006.054.01.08.01h.02l.01.002h.022c.225 0 .418-.138.5-.334.627-.805 1.594-1.282 2.613-1.282 1.065 0 2.073.52 2.696 1.39.106.147.272.226.44.226zm-21.955-2.7c-.915 0-1.797.29-2.53.808.55-4.9 4.057-8.917 8.69-10.22-.62.633-1.188 1.453-1.686 2.447-1.07 2.135-1.72 4.876-1.87 7.825-.747-.55-1.658-.86-2.604-.86zm6.273 0c-.936 0-1.84.305-2.582.844.147-2.772.755-5.336 1.75-7.323.958-1.91 2.158-3.067 3.426-3.324V94.79c-.746-.546-1.653-.853-2.595-.853zm6.273 0c-.942 0-1.85.308-2.595.854V84.13c1.268.258 2.468 1.416 3.425 3.325.997 1.987 1.605 4.55 1.75 7.323-.742-.54-1.644-.843-2.58-.843zm6.272 0c-.946 0-1.857.31-2.605.86-.147-2.948-.798-5.69-1.868-7.825-.5-.995-1.068-1.815-1.688-2.448 4.633 1.303 8.14 5.32 8.69 10.22-.732-.517-1.614-.807-2.53-.807zm0 3.374c-.3 0-.542.243-.542.542v5.85c0 .3.243.542.542.542.3 0 .542-.243.542-.542v-5.85c0-.3-.243-.542-.542-.542zm3.137.65c-.3 0-.542.243-.542.542v2.275c0 .3.242.542.542.542.3 0 .54-.243.54-.542V98.5c0-.3-.24-.542-.54-.542zm0 5.228c-.3 0-.542.242-.542.54v1.112c0 .3.242.542.542.542.3 0 .54-.243.54-.542v-1.11c0-.3-.24-.542-.54-.542zM5.983 96.363c-.3 0-.542.243-.542.542v5.333c0 .3.244.542.543.542.3 0 .54-.243.54-.542v-5.333c0-.3-.24-.542-.54-.542zM3.313 99.8c.3 0 .542-.242.542-.54v-1.41c0-.3-.243-.542-.542-.542-.3 0-.542.243-.542.542v1.41c0 .298.244.54.543.54zm.013 1.896c-.3 0-.542.243-.542.542v2.98c0 .298.242.54.542.54.3 0 .54-.242.54-.54v-2.98c0-.3-.24-.542-.54-.542zm5.487-4.23c-.3 0-.54.243-.54.543v1.09c0 .3.24.542.54.542.3 0 .542-.243.542-.542v-1.09c0-.3-.242-.543-.542-.543zm14.078 0c-.298 0-.54.243-.54.543v1.09c0 .3.242.542.54.542.3 0 .543-.243.543-.542v-1.09c0-.3-.243-.543-.542-.543z" id="Fill-1"/></g><g id="Imported-Layers" fill="#67737B"><path d="M28.417 56.634h.012c.012 0 .024-.003.037-.004.013 0 .025-.002.038-.004.023-.003.044-.01.066-.015.23-.062.4-.268.4-.518 0-7.04-5.584-12.802-12.557-13.087v-.784c0-.298-.243-.54-.542-.54-.298 0-.54.242-.54.54v.785C8.356 43.29 2.77 49.05 2.77 56.092c0 .244.164.446.386.514.02.007.043.013.065.017.027.004.054.01.08.01h.023c.17 0 .336-.077.443-.225.624-.87 1.632-1.39 2.696-1.39 1.02 0 1.986.477 2.614 1.282.076.182.25.312.455.33h.015c.01 0 .02.004.03.004H9.6c.027 0 .056-.003.084-.007.005 0 .01-.003.015-.004.025-.005.05-.01.076-.02l.03-.012c.02-.007.038-.016.057-.027.01-.006.022-.012.032-.02l.02-.01.022-.02c.015-.013.03-.026.043-.04.014-.012.026-.027.038-.042l.02-.022c.624-.87 1.632-1.39 2.697-1.39 1.008 0 1.966.467 2.594 1.257v11.84c0 1.393 1.133 2.527 2.527 2.527 1.394 0 2.528-1.134 2.528-2.528 0-.3-.242-.542-.54-.542-.3 0-.543.243-.543.542 0 .796-.648 1.445-1.445 1.445-.796 0-1.444-.65-1.444-1.446v-11.84c.628-.79 1.586-1.256 2.595-1.256 1.064 0 2.072.52 2.696 1.39.012.018.026.035.04.05.002 0 .002.002.003.003.022.025.048.046.075.067.002 0 .004.004.006.005l.005.003c.027.02.055.035.083.048l.018.008c.03.013.058.023.087.03.006 0 .01 0 .015.002.027.006.054.01.08.01h.02l.01.002h.022c.225 0 .418-.138.5-.334.627-.805 1.594-1.282 2.613-1.282 1.065 0 2.073.52 2.696 1.39.106.147.272.226.44.226zm-21.955-2.7c-.915 0-1.797.29-2.53.808.55-4.9 4.057-8.917 8.69-10.22-.62.633-1.188 1.453-1.686 2.447-1.07 2.135-1.72 4.876-1.87 7.825-.747-.55-1.658-.86-2.604-.86zm6.273 0c-.936 0-1.84.305-2.582.844.147-2.772.755-5.336 1.75-7.323.958-1.91 2.158-3.067 3.426-3.324V54.79c-.746-.546-1.653-.853-2.595-.853zm6.273 0c-.942 0-1.85.308-2.595.854V44.13c1.268.258 2.468 1.416 3.425 3.325.997 1.987 1.605 4.55 1.75 7.323-.742-.54-1.644-.843-2.58-.843zm6.272 0c-.946 0-1.857.31-2.605.86-.147-2.948-.798-5.69-1.868-7.825-.5-.995-1.068-1.815-1.688-2.448 4.633 1.303 8.14 5.32 8.69 10.22-.732-.517-1.614-.807-2.53-.807zm0 3.374c-.3 0-.542.243-.542.542v5.85c0 .3.243.542.542.542.3 0 .542-.243.542-.542v-5.85c0-.3-.243-.542-.542-.542zm3.137.65c-.3 0-.542.243-.542.542v2.275c0 .3.242.542.542.542.3 0 .54-.243.54-.542V58.5c0-.3-.24-.542-.54-.542zm0 5.228c-.3 0-.542.242-.542.54v1.112c0 .3.242.542.542.542.3 0 .54-.243.54-.542v-1.11c0-.3-.24-.542-.54-.542zM5.983 56.363c-.3 0-.542.243-.542.542v5.333c0 .3.244.542.543.542.3 0 .54-.243.54-.542v-5.333c0-.3-.24-.542-.54-.542zM3.313 59.8c.3 0 .542-.242.542-.54v-1.41c0-.3-.243-.542-.542-.542-.3 0-.542.243-.542.542v1.41c0 .298.244.54.543.54zm.013 1.896c-.3 0-.542.243-.542.542v2.98c0 .298.242.54.542.54.3 0 .54-.242.54-.54v-2.98c0-.3-.24-.542-.54-.542zm5.487-4.23c-.3 0-.54.243-.54.543v1.09c0 .3.24.542.54.542.3 0 .542-.243.542-.542v-1.09c0-.3-.242-.543-.542-.543zm14.078 0c-.298 0-.54.243-.54.543v1.09c0 .3.242.542.54.542.3 0 .543-.243.543-.542v-1.09c0-.3-.243-.543-.542-.543z" id="Fill-1"/></g><g fill="#373D43"><path d="M28.417 16.634h.012c.012 0 .024-.003.037-.004.013 0 .025-.002.038-.004.023-.003.044-.01.066-.015.23-.062.4-.268.4-.518 0-7.04-5.584-12.802-12.557-13.087V2.22c0-.298-.243-.54-.542-.54-.298 0-.54.242-.54.54v.785C8.356 3.29 2.77 9.05 2.77 16.092c0 .244.164.446.386.514.02.007.043.013.065.017.027.004.054.01.08.01h.023c.17 0 .336-.077.443-.225.624-.87 1.632-1.39 2.696-1.39 1.02 0 1.986.477 2.614 1.282.076.182.25.312.455.33h.015c.01 0 .02.004.03.004H9.6c.027 0 .056-.003.084-.007.005 0 .01-.003.015-.004.025-.005.05-.01.076-.02l.03-.012c.02-.007.038-.016.057-.027.01-.006.022-.012.032-.02l.02-.01.022-.02c.015-.013.03-.026.043-.04.014-.012.026-.027.038-.042l.02-.022c.624-.87 1.632-1.39 2.697-1.39 1.008 0 1.966.467 2.594 1.257v11.84c0 1.393 1.133 2.527 2.527 2.527 1.394 0 2.528-1.134 2.528-2.528 0-.3-.242-.542-.54-.542-.3 0-.543.243-.543.542 0 .796-.648 1.445-1.445 1.445-.796 0-1.444-.65-1.444-1.446v-11.84c.628-.79 1.586-1.256 2.595-1.256 1.064 0 2.072.52 2.696 1.39.012.018.026.035.04.05.002 0 .002.002.003.003.022.025.048.046.075.067.002 0 .004.004.006.005l.005.003c.027.02.055.035.083.048l.018.008c.03.013.058.023.087.03.006 0 .01 0 .015.002.027.006.054.01.08.01h.02l.01.002h.022c.225 0 .418-.138.5-.334.627-.805 1.594-1.282 2.613-1.282 1.065 0 2.073.52 2.696 1.39.106.147.272.226.44.226zm-21.955-2.7c-.915 0-1.797.29-2.53.808.55-4.9 4.057-8.917 8.69-10.22-.62.633-1.188 1.453-1.686 2.447-1.07 2.135-1.72 4.876-1.87 7.825-.747-.55-1.658-.86-2.604-.86zm6.273 0c-.936 0-1.84.305-2.582.844.147-2.772.755-5.336 1.75-7.323.958-1.91 2.158-3.067 3.426-3.324V14.79c-.746-.546-1.653-.853-2.595-.853zm6.273 0c-.942 0-1.85.308-2.595.854V4.13c1.268.258 2.468 1.416 3.425 3.325.997 1.987 1.605 4.55 1.75 7.323-.742-.54-1.644-.843-2.58-.843zm6.272 0c-.946 0-1.857.31-2.605.86-.147-2.948-.798-5.69-1.868-7.825-.5-.995-1.068-1.815-1.688-2.448 4.633 1.303 8.14 5.32 8.69 10.22-.732-.517-1.614-.807-2.53-.807zm0 3.374c-.3 0-.542.243-.542.542v5.85c0 .3.243.542.542.542.3 0 .542-.243.542-.542v-5.85c0-.3-.243-.542-.542-.542zm3.137.65c-.3 0-.542.243-.542.542v2.275c0 .3.242.542.542.542.3 0 .54-.243.54-.542V18.5c0-.3-.24-.542-.54-.542zm0 5.228c-.3 0-.542.242-.542.54v1.112c0 .3.242.542.542.542.3 0 .54-.243.54-.542v-1.11c0-.3-.24-.542-.54-.542zM5.983 16.363c-.3 0-.542.243-.542.542v5.333c0 .3.244.542.543.542.3 0 .54-.243.54-.542v-5.333c0-.3-.24-.542-.54-.542zM3.313 19.8c.3 0 .542-.242.542-.54v-1.41c0-.3-.243-.542-.542-.542-.3 0-.542.243-.542.542v1.41c0 .298.244.54.543.54zm.013 1.896c-.3 0-.542.243-.542.542v2.98c0 .298.242.54.542.54.3 0 .54-.242.54-.54v-2.98c0-.3-.24-.542-.54-.542zm5.487-4.23c-.3 0-.54.243-.54.543v1.09c0 .3.24.542.54.542.3 0 .542-.243.542-.542v-1.09c0-.3-.242-.543-.542-.543zm14.078 0c-.298 0-.54.243-.54.543v1.09c0 .3.242.542.54.542.3 0 .543-.243.543-.542v-1.09c0-.3-.243-.543-.542-.543z"/></g></g></svg>