<svg width="32" height="232" viewBox="0 0 32 232" xmlns="http://www.w3.org/2000/svg"><g fill="none" fill-rule="evenodd"><g id="Imported-Layers" fill="#206FAC"><path d="M28.518 138.72c-1.632 0-3.308 1-5.056 2.252-.422-.507-1.273-1.248-2.658-1.248-1.656 0-2.756.862-3.92 1.774-1.603 1.256-3.42 2.678-7.388 2.678H9.49c-.025 0-.05.005-.073.008l-.033.004c-.018.004-.035.01-.053.016l-.047.016H9.28l-.04.023c-.016.01-.033.017-.048.027-.026.017-.05.037-.07.06-.004 0-.006.003-.01.005-.023.024-.045.05-.064.08l-.014.024c-.012.02-.025.04-.034.063-.006.012-.01.026-.013.04l-.02.058-.004.04c-.003.022-.007.044-.007.066v.012c0 .01 0 .02.002.03 0 .022.003.043.006.063.003.017.008.034.012.05.003.012.005.024.01.035.02.058.505 1.433 1.887 2.804 1.266 1.255 3.56 2.753 7.293 2.753 3.586 0 5.45-1.873 6.385-3.444.996-1.678 1.15-3.34 1.156-3.41.016-.19-.067-.364-.207-.473-.08-.062-.178-.104-.287-.113-.297-.025-.56.195-.586.493 0 .014-.137 1.483-1.008 2.95-1.15 1.932-2.984 2.913-5.454 2.913-2.68 0-4.865-.81-6.493-2.404-.13-.127-.25-.254-.364-.38.7.232 1.6.394 2.738.394 3.164 0 6.084-2.182 8.66-4.106 1.93-1.442 3.76-2.81 5.36-3.036.153-.02.303-.033.45-.033.3 0 .542-.243.542-.542 0-.3-.242-.542-.542-.542zm-10.967 3.63c1.102-.86 1.97-1.542 3.254-1.542.915 0 1.49.47 1.783.804l-.44.328-.088.066c-2.56 1.912-5.208 3.89-8.012 3.89-1.635 0-2.642-.368-3.213-.692 2.63-.224 4.3-1.095 5.6-2.01.4-.283.768-.57 1.116-.843z" id="Fill-1"/><path d="M16.987 138.098c1.07-1.06 1.448-2.13 1.464-2.177l.01-.032c.003-.017.008-.034.01-.05.005-.02.006-.042.007-.062 0-.01.003-.02.003-.032v-.01c0-.024-.004-.045-.007-.067l-.006-.04c-.004-.02-.012-.04-.018-.06-.006-.012-.01-.025-.014-.038-.01-.023-.022-.044-.035-.064-.004-.01-.007-.018-.013-.026-.02-.028-.04-.054-.065-.08-.002 0-.005-.003-.007-.005-.023-.02-.046-.04-.072-.06-.015-.01-.032-.017-.05-.026-.012-.008-.025-.017-.04-.023-.016-.007-.032-.01-.048-.016l-.054-.015c-.01-.003-.02-.003-.03-.004-.025-.003-.05-.006-.075-.007h-.006c-2.965 0-4.324-1.064-5.522-2.003-.902-.706-1.753-1.373-3.054-1.373-1.02 0-1.676.505-2.036.9-1.31-.93-2.57-1.66-3.814-1.66-.3 0-.542.24-.542.54 0 .3.243.542.542.542.15 0 .303.016.46.046 1.148.223 2.474 1.213 3.868 2.255 1.97 1.472 4.202 3.14 6.645 3.14.648 0 1.195-.066 1.655-.172-.918.872-2.418 1.723-4.777 1.723-4.324 0-4.753-4.15-4.77-4.325-.025-.298-.287-.518-.586-.493-.11.01-.207.05-.287.113-.14.11-.223.284-.207.473.005.054.522 5.316 5.85 5.316 2.875 0 4.644-1.156 5.62-2.126zm-8.497-4.515l-.28-.21c.224-.218.6-.463 1.154-.463.927 0 1.54.48 2.386 1.143.193.15.393.308.606.465.958.71 2.165 1.425 4.084 1.675-.452.175-1.085.314-1.953.314-2.023 0-3.96-1.403-5.832-2.8l-.165-.124z" id="Fill-2"/><path d="M18.656 130.627c.657 2.297 2.267 4.212 4.418 5.258l.004.002.012.007c.02.01.04.018.062.025.004 0 .008 0 .012.002.02.007.042.012.064.016l.02.004c.026.004.052.006.078.006.024 0 .047-.002.07-.005.008 0 .015-.003.023-.004l.048-.01c.002-.002.005-.002.007-.003.004 0 .007-.003.01-.004.03-.01.057-.02.083-.033l.012-.006c.028-.014.053-.03.077-.05l.018-.015c.023-.02.044-.04.063-.062l.003-.004c.016-.017.03-.035.04-.055l.004-.005c1.28-2.028 1.637-4.512.978-6.815-.636-2.223-2.166-4.086-4.213-5.153l-.62-2.16c-.08-.287-.38-.453-.67-.37-.287.08-.453.38-.37.67l.617 2.158c-1.174 1.988-1.487 4.38-.85 6.602zm3.403-4.4c-.025.027-.047.058-.066.092l-.465.836-.54-1.884c.388.283.746.603 1.07.954zm1.124 6.713l.81-1.46c-.032.84-.21 1.672-.525 2.457l-.286-.997zm.536-3.762c.05.177.092.355.13.534-.098.047-.182.122-.238.223l-.85 1.532-.195-.683 1.06-1.907c.032.1.064.2.093.3zm-.63-1.52c-.035.037-.068.076-.094.123l-.85 1.53-.195-.68.827-1.49c.112.17.216.342.314.52zm-2.243 1.053l.617 2.156.964 3.37c-1.31-.958-2.28-2.328-2.73-3.907-.452-1.58-.354-3.256.25-4.76l.9 3.14z" id="Fill-3"/><path d="M10.824 125.343c-.27 1.21-.048 2.485.623 3.534.715 1.117 1.878 1.88 3.19 2.09.03.006.058.008.086.008.24 0 .455-.16.52-.396.36-1.28.153-2.656-.562-3.774-.67-1.047-1.732-1.782-2.942-2.044l-.433-.687c-.16-.253-.494-.33-.747-.17s-.33.495-.17.748l.436.69zm3.48 4.436c-.797-.252-1.49-.776-1.944-1.487-.456-.712-.642-1.56-.536-2.39.798.252 1.49.776 1.945 1.488.454.712.64 1.56.534 2.39z" id="Fill-4"/></g><g id="Imported-Layers" fill="#fff"><path d="M28.518 98.72c-1.632 0-3.308 1-5.056 2.252-.422-.507-1.273-1.248-2.658-1.248-1.656 0-2.756.862-3.92 1.774-1.603 1.256-3.42 2.678-7.388 2.678H9.49c-.025 0-.05.005-.073.008l-.033.004c-.018.004-.035.01-.053.016l-.047.016H9.28l-.04.023c-.016.01-.033.017-.048.027-.026.017-.05.037-.07.06-.004 0-.006.003-.01.005-.023.024-.045.05-.064.08l-.014.024c-.012.02-.025.04-.034.063-.006.012-.01.026-.013.04l-.02.058-.004.04c-.003.022-.007.044-.007.066v.012c0 .01 0 .02.002.03 0 .022.003.043.006.063.003.017.008.034.012.05.003.012.005.024.01.035.02.058.505 1.433 1.887 2.804 1.266 1.255 3.56 2.753 7.293 2.753 3.586 0 5.45-1.873 6.385-3.444.996-1.678 1.15-3.34 1.156-3.41.016-.19-.067-.364-.207-.473-.08-.062-.178-.104-.287-.113-.297-.025-.56.195-.586.493 0 .014-.137 1.483-1.008 2.95-1.15 1.932-2.984 2.913-5.454 2.913-2.68 0-4.865-.81-6.493-2.404-.13-.127-.25-.254-.364-.38.7.232 1.6.394 2.738.394 3.164 0 6.084-2.182 8.66-4.106 1.93-1.442 3.76-2.81 5.36-3.036.153-.02.303-.033.45-.033.3 0 .542-.243.542-.542 0-.3-.242-.542-.542-.542zm-10.967 3.63c1.102-.86 1.97-1.542 3.254-1.542.915 0 1.49.47 1.783.804l-.44.328-.088.066c-2.56 1.912-5.208 3.89-8.012 3.89-1.635 0-2.642-.368-3.213-.692 2.63-.224 4.3-1.095 5.6-2.01.4-.283.768-.57 1.116-.843z" id="Fill-1"/><path d="M16.987 98.098c1.07-1.06 1.448-2.13 1.464-2.177l.01-.032c.003-.017.008-.034.01-.05.005-.02.006-.042.007-.062 0-.01.003-.02.003-.032v-.01c0-.024-.004-.045-.007-.067l-.006-.04c-.004-.02-.012-.04-.018-.06-.006-.012-.01-.025-.014-.038-.01-.023-.022-.044-.035-.064-.004-.01-.007-.018-.013-.026-.02-.028-.04-.054-.065-.08-.002 0-.005-.003-.007-.005-.023-.02-.046-.04-.072-.06-.015-.01-.032-.017-.05-.026-.012-.008-.025-.017-.04-.023-.016-.007-.032-.01-.048-.016l-.054-.015c-.01-.003-.02-.003-.03-.004-.025-.003-.05-.006-.075-.007h-.006c-2.965 0-4.324-1.064-5.522-2.003-.902-.706-1.753-1.373-3.054-1.373-1.02 0-1.676.505-2.036.9-1.31-.93-2.57-1.66-3.814-1.66-.3 0-.542.24-.542.54 0 .3.243.542.542.542.15 0 .303.016.46.046 1.148.223 2.474 1.213 3.868 2.255 1.97 1.472 4.202 3.14 6.645 3.14.648 0 1.195-.066 1.655-.172-.918.872-2.418 1.723-4.777 1.723-4.324 0-4.753-4.15-4.77-4.325-.025-.298-.287-.518-.586-.493-.11.01-.207.05-.287.113-.14.11-.223.284-.207.473.005.054.522 5.316 5.85 5.316 2.875 0 4.644-1.156 5.62-2.126zM8.49 93.583l-.28-.21c.224-.218.6-.463 1.154-.463.927 0 1.54.48 2.386 1.143.193.15.393.308.606.465.958.71 2.165 1.425 4.084 1.675-.452.175-1.085.314-1.953.314-2.023 0-3.96-1.403-5.832-2.8l-.165-.124z" id="Fill-2"/><path d="M18.656 90.627c.657 2.297 2.267 4.212 4.418 5.258l.004.002.012.007c.02.01.04.018.062.025.004 0 .008 0 .012.002.02.007.042.012.064.016l.02.004c.026.004.052.006.078.006.024 0 .047-.002.07-.005.008 0 .015-.003.023-.004l.048-.01c.002-.002.005-.002.007-.003.004 0 .007-.003.01-.004.03-.01.057-.02.083-.033l.012-.006c.028-.014.053-.03.077-.05l.018-.015c.023-.02.044-.04.063-.062l.003-.004c.016-.017.03-.035.04-.055l.004-.005c1.28-2.028 1.637-4.512.978-6.815-.636-2.223-2.166-4.086-4.213-5.153l-.62-2.16c-.08-.287-.38-.453-.67-.37-.287.08-.453.38-.37.67l.617 2.158c-1.174 1.988-1.487 4.38-.85 6.602zm3.403-4.4c-.025.027-.047.058-.066.092l-.465.836-.54-1.884c.388.283.746.603 1.07.954zm1.124 6.713l.81-1.46c-.032.84-.21 1.672-.525 2.457l-.286-.997zm.536-3.762c.05.177.092.355.13.534-.098.047-.182.122-.238.223l-.85 1.532-.195-.683 1.06-1.907c.032.1.064.2.093.3zm-.63-1.52c-.035.037-.068.076-.094.123l-.85 1.53-.195-.68.827-1.49c.112.17.216.342.314.52zm-2.243 1.053l.617 2.156.964 3.37c-1.31-.958-2.28-2.328-2.73-3.907-.452-1.58-.354-3.256.25-4.76l.9 3.14z" id="Fill-3"/><path d="M10.824 85.343c-.27 1.21-.048 2.485.623 3.534.715 1.117 1.878 1.88 3.19 2.09.03.006.058.008.086.008.24 0 .455-.16.52-.396.36-1.28.153-2.656-.562-3.774-.67-1.047-1.732-1.782-2.942-2.044l-.433-.687c-.16-.253-.494-.33-.747-.17s-.33.495-.17.748l.436.69zm3.48 4.436c-.797-.252-1.49-.776-1.944-1.487-.456-.712-.642-1.56-.536-2.39.798.252 1.49.776 1.945 1.488.454.712.64 1.56.534 2.39z" id="Fill-4"/></g><g id="Imported-Layers" fill="#67737B"><path d="M28.518 58.72c-1.632 0-3.308 1-5.056 2.252-.422-.507-1.273-1.248-2.658-1.248-1.656 0-2.756.862-3.92 1.774-1.603 1.256-3.42 2.678-7.388 2.678H9.49c-.025 0-.05.005-.073.008l-.033.004c-.018.004-.035.01-.053.016l-.047.016H9.28l-.04.023c-.016.01-.033.017-.048.027-.026.017-.05.037-.07.06-.004 0-.006.003-.01.005-.023.024-.045.05-.064.08l-.014.024c-.012.02-.025.04-.034.063-.006.012-.01.026-.013.04l-.02.058-.004.04c-.003.022-.007.044-.007.066v.012c0 .01 0 .02.002.03 0 .022.003.043.006.063.003.017.008.034.012.05.003.012.005.024.01.035.02.058.505 1.433 1.887 2.804 1.266 1.255 3.56 2.753 7.293 2.753 3.586 0 5.45-1.873 6.385-3.444.996-1.678 1.15-3.34 1.156-3.41.016-.19-.067-.364-.207-.473-.08-.062-.178-.104-.287-.113-.297-.025-.56.195-.586.493 0 .014-.137 1.483-1.008 2.95-1.15 1.932-2.984 2.913-5.454 2.913-2.68 0-4.865-.81-6.493-2.404-.13-.127-.25-.254-.364-.38.7.232 1.6.394 2.738.394 3.164 0 6.084-2.182 8.66-4.106 1.93-1.442 3.76-2.81 5.36-3.036.153-.02.303-.033.45-.033.3 0 .542-.243.542-.542 0-.3-.242-.542-.542-.542zM17.55 62.35c1.102-.86 1.97-1.542 3.254-1.542.915 0 1.49.47 1.783.804l-.44.328-.088.066c-2.56 1.912-5.208 3.89-8.012 3.89-1.635 0-2.642-.368-3.213-.692 2.63-.224 4.3-1.095 5.6-2.01.4-.283.768-.57 1.116-.843z" id="Fill-1"/><path d="M16.987 58.098c1.07-1.06 1.448-2.13 1.464-2.177l.01-.032c.003-.017.008-.034.01-.05.005-.02.006-.042.007-.062 0-.01.003-.02.003-.032v-.01c0-.024-.004-.045-.007-.067l-.006-.04c-.004-.02-.012-.04-.018-.06-.006-.012-.01-.025-.014-.038-.01-.023-.022-.044-.035-.064-.004-.01-.007-.018-.013-.026-.02-.028-.04-.054-.065-.08-.002 0-.005-.003-.007-.005-.023-.02-.046-.04-.072-.06-.015-.01-.032-.017-.05-.026-.012-.008-.025-.017-.04-.023-.016-.007-.032-.01-.048-.016l-.054-.015c-.01-.003-.02-.003-.03-.004-.025-.003-.05-.006-.075-.007h-.006c-2.965 0-4.324-1.064-5.522-2.003-.902-.706-1.753-1.373-3.054-1.373-1.02 0-1.676.505-2.036.9-1.31-.93-2.57-1.66-3.814-1.66-.3 0-.542.24-.542.54 0 .3.243.542.542.542.15 0 .303.016.46.046 1.148.223 2.474 1.213 3.868 2.255 1.97 1.472 4.202 3.14 6.645 3.14.648 0 1.195-.066 1.655-.172-.918.872-2.418 1.723-4.777 1.723-4.324 0-4.753-4.15-4.77-4.325-.025-.298-.287-.518-.586-.493-.11.01-.207.05-.287.113-.14.11-.223.284-.207.473.005.054.522 5.316 5.85 5.316 2.875 0 4.644-1.156 5.62-2.126zM8.49 53.583l-.28-.21c.224-.218.6-.463 1.154-.463.927 0 1.54.48 2.386 1.143.193.15.393.308.606.465.958.71 2.165 1.425 4.084 1.675-.452.175-1.085.314-1.953.314-2.023 0-3.96-1.403-5.832-2.8l-.165-.124z" id="Fill-2"/><path d="M18.656 50.627c.657 2.297 2.267 4.212 4.418 5.258l.004.002.012.007c.02.01.04.018.062.025.004 0 .008 0 .012.002.02.007.042.012.064.016l.02.004c.026.004.052.006.078.006.024 0 .047-.002.07-.005.008 0 .015-.003.023-.004l.048-.01c.002-.002.005-.002.007-.003.004 0 .007-.003.01-.004.03-.01.057-.02.083-.033l.012-.006c.028-.014.053-.03.077-.05l.018-.015c.023-.02.044-.04.063-.062l.003-.004c.016-.017.03-.035.04-.055l.004-.005c1.28-2.028 1.637-4.512.978-6.815-.636-2.223-2.166-4.086-4.213-5.153l-.62-2.16c-.08-.287-.38-.453-.67-.37-.287.08-.453.38-.37.67l.617 2.158c-1.174 1.988-1.487 4.38-.85 6.602zm3.403-4.4c-.025.027-.047.058-.066.092l-.465.836-.54-1.884c.388.283.746.603 1.07.954zm1.124 6.713l.81-1.46c-.032.84-.21 1.672-.525 2.457l-.286-.997zm.536-3.762c.05.177.092.355.13.534-.098.047-.182.122-.238.223l-.85 1.532-.195-.683 1.06-1.907c.032.1.064.2.093.3zm-.63-1.52c-.035.037-.068.076-.094.123l-.85 1.53-.195-.68.827-1.49c.112.17.216.342.314.52zm-2.243 1.053l.617 2.156.964 3.37c-1.31-.958-2.28-2.328-2.73-3.907-.452-1.58-.354-3.256.25-4.76l.9 3.14z" id="Fill-3"/><path d="M10.824 45.343c-.27 1.21-.048 2.485.623 3.534.715 1.117 1.878 1.88 3.19 2.09.03.006.058.008.086.008.24 0 .455-.16.52-.396.36-1.28.153-2.656-.562-3.774-.67-1.047-1.732-1.782-2.942-2.044l-.433-.687c-.16-.253-.494-.33-.747-.17s-.33.495-.17.748l.436.69zm3.48 4.436c-.797-.252-1.49-.776-1.944-1.487-.456-.712-.642-1.56-.536-2.39.798.252 1.49.776 1.945 1.488.454.712.64 1.56.534 2.39z" id="Fill-4"/></g><g fill="#373D43"><path d="M28.518 18.72c-1.632 0-3.308 1-5.056 2.252-.422-.507-1.273-1.248-2.658-1.248-1.656 0-2.756.862-3.92 1.774-1.603 1.256-3.42 2.678-7.388 2.678H9.49c-.025 0-.05.005-.073.008l-.033.004c-.018.004-.035.01-.053.016l-.047.016H9.28l-.04.023c-.016.01-.033.017-.048.027-.026.017-.05.037-.07.06-.004 0-.006.003-.01.005-.023.024-.045.05-.064.08l-.014.024c-.012.02-.025.04-.034.063-.006.012-.01.026-.013.04l-.02.058-.004.04c-.003.022-.007.044-.007.066v.012c0 .01 0 .02.002.03 0 .022.003.043.006.063.003.017.008.034.012.05.003.012.005.024.01.035.02.058.505 1.433 1.887 2.804 1.266 1.255 3.56 2.753 7.293 2.753 3.586 0 5.45-1.873 6.385-3.444.996-1.678 1.15-3.34 1.156-3.41.016-.19-.067-.364-.207-.473-.08-.062-.178-.104-.287-.113-.297-.025-.56.195-.586.493 0 .014-.137 1.483-1.008 2.95-1.15 1.932-2.984 2.913-5.454 2.913-2.68 0-4.865-.81-6.493-2.404-.13-.127-.25-.254-.364-.38.7.232 1.6.394 2.738.394 3.164 0 6.084-2.182 8.66-4.106 1.93-1.442 3.76-2.81 5.36-3.036.153-.02.303-.033.45-.033.3 0 .542-.243.542-.542 0-.3-.242-.542-.542-.542zM17.55 22.35c1.102-.86 1.97-1.542 3.254-1.542.915 0 1.49.47 1.783.804l-.44.328-.088.066c-2.56 1.912-5.208 3.89-8.012 3.89-1.635 0-2.642-.368-3.213-.692 2.63-.224 4.3-1.095 5.6-2.01.4-.283.768-.57 1.116-.843z"/><path d="M16.987 18.098c1.07-1.06 1.448-2.13 1.464-2.177l.01-.032c.003-.017.008-.034.01-.05.005-.02.006-.042.007-.062 0-.01.003-.02.003-.032v-.01c0-.024-.004-.045-.007-.067l-.006-.04c-.004-.02-.012-.04-.018-.06-.006-.012-.01-.025-.014-.038-.01-.023-.022-.044-.035-.064-.004-.01-.007-.018-.013-.026-.02-.028-.04-.054-.065-.08-.002 0-.005-.003-.007-.005-.023-.02-.046-.04-.072-.06-.015-.01-.032-.017-.05-.026-.012-.008-.025-.017-.04-.023-.016-.007-.032-.01-.048-.016l-.054-.015c-.01-.003-.02-.003-.03-.004-.025-.003-.05-.006-.075-.007h-.006c-2.965 0-4.324-1.064-5.522-2.003-.902-.706-1.753-1.373-3.054-1.373-1.02 0-1.676.505-2.036.9-1.31-.93-2.57-1.66-3.814-1.66-.3 0-.542.24-.542.54 0 .3.243.542.542.542.15 0 .303.016.46.046 1.148.223 2.474 1.213 3.868 2.255 1.97 1.472 4.202 3.14 6.645 3.14.648 0 1.195-.066 1.655-.172-.918.872-2.418 1.723-4.777 1.723-4.324 0-4.753-4.15-4.77-4.325-.025-.298-.287-.518-.586-.493-.11.01-.207.05-.287.113-.14.11-.223.284-.207.473.005.054.522 5.316 5.85 5.316 2.875 0 4.644-1.156 5.62-2.126zM8.49 13.583l-.28-.21c.224-.218.6-.463 1.154-.463.927 0 1.54.48 2.386 1.143.193.15.393.308.606.465.958.71 2.165 1.425 4.084 1.675-.452.175-1.085.314-1.953.314-2.023 0-3.96-1.403-5.832-2.8l-.165-.124z"/><path d="M18.656 10.627c.657 2.297 2.267 4.212 4.418 5.258l.004.002.012.007c.02.01.04.018.062.025.004 0 .008 0 .012.002.02.007.042.012.064.016l.02.004c.026.004.052.006.078.006.024 0 .047-.002.07-.005.008 0 .015-.003.023-.004l.048-.01c.002-.002.005-.002.007-.003.004 0 .007-.003.01-.004.03-.01.057-.02.083-.033l.012-.006c.028-.014.053-.03.077-.05l.018-.015c.023-.02.044-.04.063-.062l.003-.004c.016-.017.03-.035.04-.055l.004-.005c1.28-2.028 1.637-4.512.978-6.815-.636-2.223-2.166-4.086-4.213-5.153l-.62-2.16c-.08-.287-.38-.453-.67-.37-.287.08-.453.38-.37.67l.617 2.158c-1.174 1.988-1.487 4.38-.85 6.602zm3.403-4.4c-.025.027-.047.058-.066.092l-.465.836-.54-1.884c.388.283.746.603 1.07.954zm1.124 6.713l.81-1.46c-.032.84-.21 1.672-.525 2.457l-.286-.997zm.536-3.762c.05.177.092.355.13.534-.098.047-.182.122-.238.223l-.85 1.532-.195-.683 1.06-1.907c.032.1.064.2.093.3zm-.63-1.52c-.035.037-.068.076-.094.123l-.85 1.53-.195-.68.827-1.49c.112.17.216.342.314.52zm-2.243 1.053l.617 2.156.964 3.37c-1.31-.958-2.28-2.328-2.73-3.907-.452-1.58-.354-3.256.25-4.76l.9 3.14z"/><path d="M10.824 5.343c-.27 1.21-.048 2.485.623 3.534.715 1.117 1.878 1.88 3.19 2.09.03.006.058.008.086.008.24 0 .455-.16.52-.396.36-1.28.153-2.656-.562-3.774-.67-1.047-1.732-1.782-2.942-2.044l-.433-.687c-.16-.253-.494-.33-.747-.17s-.33.495-.17.748l.436.69zm3.48 4.436c-.797-.252-1.49-.776-1.944-1.487-.456-.712-.642-1.56-.536-2.39.798.252 1.49.776 1.945 1.488.454.712.64 1.56.534 2.39z"/></g></g></svg>