<svg width="32" height="232" viewBox="0 0 32 232" xmlns="http://www.w3.org/2000/svg"><g fill="none" fill-rule="evenodd"><path d="M26.512 142.697v-5.5c0-4.556-2.934-8.44-7.012-9.858.032-.052.084-.12.123-.17.162-.21.385-.497.385-.883s-.222-.674-.385-.885c-.054-.07-.136-.176-.15-.218-.017-.05-.013-.186-.01-.285.006-.263.015-.62-.205-.924-.222-.305-.568-.407-.82-.48-.094-.03-.222-.067-.262-.096-.04-.028-.116-.14-.167-.216-.15-.22-.355-.518-.717-.636-.097-.03-.2-.047-.31-.047-.232 0-.44.074-.623.14-.1.034-.226.08-.282.08-.057 0-.182-.046-.282-.08-.184-.066-.392-.14-.625-.14-.106 0-.21.017-.307.048-.362.117-.567.417-.716.636-.05.075-.13.188-.167.216-.04.03-.17.067-.262.095-.253.074-.598.176-.82.48-.22.304-.21.662-.204.924.002.098.006.234-.01.284-.015.042-.097.148-.15.218-.164.21-.387.5-.387.885 0 .386.223.674.386.884.038.05.09.118.123.17-4.078 1.42-7.012 5.3-7.012 9.856v5.5c-.683.39-1.144 1.124-1.144 1.964v2.663c0 1.245 1.013 2.258 2.258 2.258H21.59c.1.13.252.213.426.213h1.98c.175 0 .328-.084.427-.212h.975c1.245 0 2.258-1.012 2.258-2.257v-2.663c0-.84-.462-1.574-1.144-1.963zm.06 4.626c0 .648-.526 1.175-1.174 1.175h-.86v-2.604c0-.3-.242-.54-.54-.54h-1.982c-.3 0-.54.24-.54.54v2.604H6.757c-.648 0-1.175-.527-1.175-1.175v-2.663c0-.375.176-.708.45-.923.2-.158.45-.253.725-.253h18.64c.273 0 .525.095.725.253.273.215.45.548.45.923v2.663zm-3.117 1.175v.21h-.897v-2.272h.897v2.062zm-10.065-21.99c-.053-.068-.13-.167-.155-.22.025-.055.102-.154.155-.223.118-.153.252-.326.324-.546.073-.228.068-.45.063-.648-.002-.08-.005-.196.004-.255.054-.027.166-.06.244-.083.188-.056.402-.118.594-.258.19-.138.314-.32.424-.482.046-.067.112-.164.155-.207.06.01.164.047.238.073.188.067.4.142.643.142.242 0 .455-.075.643-.142.074-.026.18-.063.24-.073.04.043.108.14.154.208.11.16.234.343.424.48.192.14.405.203.593.26.08.022.19.055.245.082.01.06.006.175.004.255-.006.197-.012.42.062.646.072.22.206.394.324.547.053.07.13.168.154.222-.024.054-.1.153-.154.222-.114.146-.242.314-.315.524l-.008.02c-.074.228-.068.45-.063.648v.028c.002.078.003.174-.005.226-.054.028-.166.06-.244.084l-.065.02c-.172.05-.358.115-.527.238-.028.02-.052.043-.077.065-.145.128-.252.28-.346.416-.046.067-.113.164-.155.207-.06-.01-.166-.048-.24-.074-.187-.066-.4-.14-.642-.14s-.455.074-.643.14c-.073.026-.18.063-.238.074-.043-.043-.11-.14-.155-.208-.094-.138-.2-.29-.347-.417-.026-.022-.05-.045-.077-.065-.17-.123-.356-.187-.527-.238l-.066-.02c-.077-.023-.19-.056-.243-.084-.007-.052-.006-.148-.004-.226v-.028c.006-.197.01-.42-.062-.647l-.01-.02c-.072-.21-.2-.38-.314-.526zm3.594 2.482v.54-.54zm-10.257 8.206c0-4.005 2.532-7.43 6.08-8.76.024.056.053.11.09.16.017.023.034.04.05.06-1.37 1.873-2.25 4.97-2.25 8.54 0 .3.243.54.542.54.298 0 .54-.24.54-.54 0-3.377.875-6.404 2.146-8.05.023.01.043.02.054.028.038.027.116.14.167.216.15.22.354.518.716.636.097.03.2.047.308.047.234 0 .442-.073.626-.138.1-.036.225-.08.282-.08.056 0 .182.044.282.08.183.065.39.138.624.138.108 0 .212-.016.308-.047.363-.118.568-.417.717-.636.05-.075.127-.19.166-.216.01-.01.03-.018.053-.027 1.27 1.645 2.145 4.672 2.145 8.05 0 .298.242.54.54.54.3 0 .543-.242.543-.54 0-3.57-.88-6.668-2.25-8.54.017-.02.034-.038.05-.06.037-.052.066-.105.092-.16 3.547 1.33 6.08 4.754 6.08 8.76v5.205H6.727v-5.206z" fill="#206FAC"/><path d="M26.512 102.697v-5.5c0-4.556-2.934-8.44-7.012-9.858.032-.052.084-.12.123-.17.162-.21.385-.497.385-.883s-.222-.674-.385-.885c-.054-.07-.136-.176-.15-.218-.017-.05-.013-.186-.01-.285.006-.263.015-.62-.205-.924-.222-.305-.568-.407-.82-.48-.094-.03-.222-.067-.262-.096-.04-.028-.116-.14-.167-.216-.15-.22-.355-.518-.717-.636-.097-.03-.2-.047-.31-.047-.232 0-.44.074-.623.14-.1.034-.226.08-.282.08-.057 0-.182-.046-.282-.08-.184-.066-.392-.14-.625-.14-.106 0-.21.017-.307.048-.362.117-.567.417-.716.636-.05.075-.13.188-.167.216-.04.03-.17.067-.262.095-.253.074-.598.176-.82.48-.22.304-.21.662-.204.924.002.098.006.234-.01.284-.015.042-.097.148-.15.218-.164.21-.387.5-.387.885 0 .386.223.674.386.884.038.05.09.118.123.17-4.078 1.42-7.012 5.3-7.012 9.856v5.5c-.683.39-1.144 1.124-1.144 1.964v2.663c0 1.245 1.013 2.258 2.258 2.258H21.59c.1.13.252.213.426.213h1.98c.175 0 .328-.084.427-.212h.975c1.245 0 2.258-1.012 2.258-2.257v-2.663c0-.84-.462-1.574-1.144-1.963zm.06 4.626c0 .648-.526 1.175-1.174 1.175h-.86v-2.604c0-.3-.242-.54-.54-.54h-1.982c-.3 0-.54.24-.54.54v2.604H6.757c-.648 0-1.175-.527-1.175-1.175v-2.663c0-.375.176-.708.45-.923.2-.158.45-.253.725-.253h18.64c.273 0 .525.095.725.253.273.215.45.548.45.923v2.663zm-3.117 1.175v.21h-.897v-2.272h.897v2.062zM13.39 86.508c-.053-.068-.13-.167-.155-.22.025-.055.102-.154.155-.223.118-.153.252-.326.324-.546.073-.228.068-.45.063-.648-.002-.08-.005-.196.004-.255.054-.027.166-.06.244-.083.188-.056.402-.118.594-.258.19-.138.314-.32.424-.482.046-.067.112-.164.155-.207.06.01.164.047.238.073.188.067.4.142.643.142.242 0 .455-.075.643-.142.074-.026.18-.063.24-.073.04.043.108.14.154.208.11.16.234.343.424.48.192.14.405.203.593.26.08.022.19.055.245.082.01.06.006.175.004.255-.006.197-.012.42.062.646.072.22.206.394.324.547.053.07.13.168.154.222-.024.054-.1.153-.154.222-.114.146-.242.314-.315.524l-.008.02c-.074.228-.068.45-.063.648v.028c.002.078.003.174-.005.226-.054.028-.166.06-.244.084l-.065.02c-.172.05-.358.115-.527.238-.028.02-.052.043-.077.065-.145.128-.252.28-.346.416-.046.067-.113.164-.155.207-.06-.01-.166-.048-.24-.074-.187-.066-.4-.14-.642-.14s-.455.074-.643.14c-.073.026-.18.063-.238.074-.043-.043-.11-.14-.155-.208-.094-.138-.2-.29-.347-.417-.026-.022-.05-.045-.077-.065-.17-.123-.356-.187-.527-.238l-.066-.02c-.077-.023-.19-.056-.243-.084-.007-.052-.006-.148-.004-.226v-.028c.006-.197.01-.42-.062-.647l-.01-.02c-.072-.21-.2-.38-.314-.526zm3.594 2.482v.54-.54zM6.727 97.196c0-4.005 2.532-7.43 6.08-8.76.024.056.053.11.09.16.017.023.034.04.05.06-1.37 1.873-2.25 4.97-2.25 8.54 0 .3.243.54.542.54.298 0 .54-.24.54-.54 0-3.377.875-6.404 2.146-8.05.023.01.043.02.054.028.038.027.116.14.167.216.15.22.354.518.716.636.097.03.2.047.308.047.234 0 .442-.073.626-.138.1-.036.225-.08.282-.08.056 0 .182.044.282.08.183.065.39.138.624.138.108 0 .212-.016.308-.047.363-.118.568-.417.717-.636.05-.075.127-.19.166-.216.01-.01.03-.018.053-.027 1.27 1.645 2.145 4.672 2.145 8.05 0 .298.242.54.54.54.3 0 .543-.242.543-.54 0-3.57-.88-6.668-2.25-8.54.017-.02.034-.038.05-.06.037-.052.066-.105.092-.16 3.547 1.33 6.08 4.754 6.08 8.76v5.205H6.727v-5.206z" fill="#fff"/><path d="M26.512 62.697v-5.5c0-4.556-2.934-8.44-7.012-9.858.032-.052.084-.12.123-.17.162-.21.385-.497.385-.883s-.222-.674-.385-.885c-.054-.07-.136-.176-.15-.218-.017-.05-.013-.186-.01-.285.006-.263.015-.62-.205-.924-.222-.305-.568-.407-.82-.48-.094-.03-.222-.067-.262-.096-.04-.028-.116-.14-.167-.216-.15-.22-.355-.518-.717-.636-.097-.03-.2-.047-.31-.047-.232 0-.44.074-.623.14-.1.034-.226.08-.282.08-.057 0-.182-.046-.282-.08-.184-.066-.392-.14-.625-.14-.106 0-.21.017-.307.048-.362.117-.567.417-.716.636-.05.075-.13.188-.167.216-.04.03-.17.067-.262.095-.253.074-.598.176-.82.48-.22.304-.21.662-.204.924.002.098.006.234-.01.284-.015.042-.097.148-.15.218-.164.21-.387.5-.387.885 0 .386.223.674.386.884.038.05.09.118.123.17-4.078 1.42-7.012 5.3-7.012 9.856v5.5C4.96 63.087 4.5 63.82 4.5 64.66v2.663c0 1.245 1.013 2.258 2.258 2.258H21.59c.1.13.252.213.426.213h1.98c.175 0 .328-.084.427-.212h.975c1.245 0 2.258-1.012 2.258-2.257V64.66c0-.84-.462-1.574-1.144-1.963zm.06 4.626c0 .648-.526 1.175-1.174 1.175h-.86v-2.604c0-.3-.242-.54-.54-.54h-1.982c-.3 0-.54.24-.54.54v2.604H6.757c-.648 0-1.175-.527-1.175-1.175V64.66c0-.375.176-.708.45-.923.2-.158.45-.253.725-.253h18.64c.273 0 .525.095.725.253.273.215.45.548.45.923v2.663zm-3.117 1.175v.21h-.897v-2.272h.897v2.062zM13.39 46.508c-.053-.068-.13-.167-.155-.22.025-.055.102-.154.155-.223.118-.153.252-.326.324-.546.073-.228.068-.45.063-.648-.002-.08-.005-.196.004-.255.054-.027.166-.06.244-.083.188-.056.402-.118.594-.258.19-.138.314-.32.424-.482.046-.067.112-.164.155-.207.06.01.164.047.238.073.188.067.4.142.643.142.242 0 .455-.075.643-.142.074-.026.18-.063.24-.073.04.043.108.14.154.208.11.16.234.343.424.48.192.14.405.203.593.26.08.022.19.055.245.082.01.06.006.175.004.255-.006.197-.012.42.062.646.072.22.206.394.324.547.053.07.13.168.154.222-.024.054-.1.153-.154.222-.114.146-.242.314-.315.524l-.008.02c-.074.228-.068.45-.063.648v.028c.002.078.003.174-.005.226-.054.028-.166.06-.244.084l-.065.02c-.172.05-.358.115-.527.238-.028.02-.052.043-.077.065-.145.128-.252.28-.346.416-.046.067-.113.164-.155.207-.06-.01-.166-.048-.24-.074-.187-.066-.4-.14-.642-.14s-.455.074-.643.14c-.073.026-.18.063-.238.074-.043-.043-.11-.14-.155-.208-.094-.138-.2-.29-.347-.417-.026-.022-.05-.045-.077-.065-.17-.123-.356-.187-.527-.238l-.066-.02c-.077-.023-.19-.056-.243-.084-.007-.052-.006-.148-.004-.226v-.028c.006-.197.01-.42-.062-.647l-.01-.02c-.072-.21-.2-.38-.314-.526zm3.594 2.482v.54-.54zM6.727 57.196c0-4.005 2.532-7.43 6.08-8.76.024.056.053.11.09.16.017.023.034.04.05.06-1.37 1.873-2.25 4.97-2.25 8.54 0 .3.243.54.542.54.298 0 .54-.24.54-.54 0-3.377.875-6.404 2.146-8.05.023.01.043.02.054.028.038.027.116.14.167.216.15.22.354.518.716.636.097.03.2.047.308.047.234 0 .442-.073.626-.138.1-.036.225-.08.282-.08.056 0 .182.044.282.08.183.065.39.138.624.138.108 0 .212-.016.308-.047.363-.118.568-.417.717-.636.05-.075.127-.19.166-.216.01-.01.03-.018.053-.027 1.27 1.645 2.145 4.672 2.145 8.05 0 .298.242.54.54.54.3 0 .543-.242.543-.54 0-3.57-.88-6.668-2.25-8.54.017-.02.034-.038.05-.06.037-.052.066-.105.092-.16 3.547 1.33 6.08 4.754 6.08 8.76V62.4H6.727v-5.206z" id="Imported-Layers" fill="#67737B"/><path d="M26.512 22.697v-5.5c0-4.556-2.934-8.44-7.012-9.858.032-.052.084-.12.123-.17.162-.21.385-.497.385-.883s-.222-.674-.385-.885c-.054-.07-.136-.176-.15-.218-.017-.05-.013-.186-.01-.285.006-.263.015-.62-.205-.924-.222-.305-.568-.407-.82-.48-.094-.03-.222-.067-.262-.096-.04-.028-.116-.14-.167-.216-.15-.22-.355-.518-.717-.636-.097-.03-.2-.047-.31-.047-.232 0-.44.074-.623.14-.1.034-.226.08-.282.08-.057 0-.182-.046-.282-.08-.184-.066-.392-.14-.625-.14-.106 0-.21.017-.307.048-.362.117-.567.417-.716.636-.05.075-.13.188-.167.216-.04.03-.17.067-.262.095-.253.074-.598.176-.82.48-.22.304-.21.662-.204.924.002.098.006.234-.01.284-.015.042-.097.148-.15.218-.164.21-.387.5-.387.885 0 .386.223.674.386.884.038.05.09.118.123.17-4.078 1.42-7.012 5.3-7.012 9.856v5.5C4.96 23.087 4.5 23.82 4.5 24.66v2.663c0 1.245 1.013 2.258 2.258 2.258H21.59c.1.13.252.213.426.213h1.98c.175 0 .328-.084.427-.212h.975c1.245 0 2.258-1.012 2.258-2.257V24.66c0-.84-.462-1.574-1.144-1.963zm.06 4.626c0 .648-.526 1.175-1.174 1.175h-.86v-2.604c0-.3-.242-.54-.54-.54h-1.982c-.3 0-.54.24-.54.54v2.604H6.757c-.648 0-1.175-.527-1.175-1.175V24.66c0-.375.176-.708.45-.923.2-.158.45-.253.725-.253h18.64c.273 0 .525.095.725.253.273.215.45.548.45.923v2.663zm-3.117 1.175v.21h-.897v-2.272h.897v2.062zM13.39 6.508c-.053-.068-.13-.167-.155-.22.025-.055.102-.154.155-.223.118-.153.252-.326.324-.546.073-.228.068-.45.063-.648-.002-.08-.005-.196.004-.255.054-.027.166-.06.244-.083.188-.056.402-.118.594-.258.19-.138.314-.32.424-.482.046-.067.112-.164.155-.207.06.01.164.047.238.073.188.067.4.142.643.142.242 0 .455-.075.643-.142.074-.026.18-.063.24-.073.04.043.108.14.154.208.11.16.234.343.424.48.192.14.405.203.593.26.08.022.19.055.245.082.01.06.006.175.004.255-.006.197-.012.42.062.646.072.22.206.394.324.547.053.07.13.168.154.222-.024.054-.1.153-.154.222-.114.146-.242.314-.315.524l-.008.02c-.074.228-.068.45-.063.648v.028c.002.078.003.174-.005.226-.054.028-.166.06-.244.084l-.065.02c-.172.05-.358.115-.527.238-.028.02-.052.043-.077.065-.145.128-.252.28-.346.416-.046.067-.113.164-.155.207-.06-.01-.166-.048-.24-.074-.187-.066-.4-.14-.642-.14s-.455.074-.643.14c-.073.026-.18.063-.238.074-.043-.043-.11-.14-.155-.208-.094-.138-.2-.29-.347-.417-.026-.022-.05-.045-.077-.065-.17-.123-.356-.187-.527-.238l-.066-.02c-.077-.023-.19-.056-.243-.084-.007-.052-.006-.148-.004-.226v-.028c.006-.197.01-.42-.062-.647l-.01-.02c-.072-.21-.2-.38-.314-.526zm3.594 2.482v.54-.54zM6.727 17.196c0-4.005 2.532-7.43 6.08-8.76.024.056.053.11.09.16.017.023.034.04.05.06-1.37 1.873-2.25 4.97-2.25 8.54 0 .3.243.54.542.54.298 0 .54-.24.54-.54 0-3.377.875-6.404 2.146-8.05.023.01.043.02.054.028.038.027.116.14.167.216.15.22.354.518.716.636.097.03.2.047.308.047.234 0 .442-.073.626-.138.1-.036.225-.08.282-.08.056 0 .182.044.282.08.183.065.39.138.624.138.108 0 .212-.016.308-.047.363-.118.568-.417.717-.636.05-.075.127-.19.166-.216.01-.01.03-.018.053-.027 1.27 1.645 2.145 4.672 2.145 8.05 0 .298.242.54.54.54.3 0 .543-.242.543-.54 0-3.57-.88-6.668-2.25-8.54.017-.02.034-.038.05-.06.037-.052.066-.105.092-.16 3.547 1.33 6.08 4.754 6.08 8.76V22.4H6.727v-5.206z" fill="#373D43"/></g></svg>