<svg width="32" height="232" viewBox="0 0 32 232" xmlns="http://www.w3.org/2000/svg"><g fill="none" fill-rule="evenodd"><path d="M27.904 150.656H20.07v-7.878c1.63-.048 3.156-.703 4.312-1.86 1.28-1.28 1.956-3.053 1.854-4.862 0-.013-.004-.026-.005-.04-.002-.015-.003-.032-.007-.048-.004-.02-.01-.037-.016-.056l-.015-.043-.03-.06-.02-.032c-.02-.03-.04-.056-.067-.082-.025-.025-.053-.047-.08-.066-.01-.007-.024-.013-.035-.02l-.057-.03c-.014-.006-.03-.01-.044-.015-.02-.006-.037-.013-.056-.017l-.05-.007c-.012 0-.024-.004-.037-.005-.12-.006-.24-.01-.36-.01-1.702 0-3.3.662-4.503 1.864-.295.294-.555.615-.783.955v-4.104c2.26-.215 4.044-2.056 4.146-4.368.002-.026 0-.053-.002-.08 0-.04.003-.084.003-.127v-7.903c0-.166-.075-.324-.204-.43-.13-.103-.298-.145-.46-.11-.458.096-.904.22-1.338.37-.48-.943-1.462-1.592-2.592-1.592-1.13 0-2.11.65-2.592 1.593-.433-.15-.88-.275-1.337-.37-.162-.036-.332.006-.46.11-.13.105-.205.263-.205.43v7.902c0 .043.002.086.004.128-.003.026-.004.053-.003.08.1 2.24 1.778 4.036 3.937 4.342v9.74c-.212-.362-.47-.7-.77-1-.934-.934-2.175-1.448-3.495-1.448-.093 0-.187.003-.28.008-.28.016-.504.24-.52.52-.08 1.405.445 2.78 1.44 3.774.932.933 2.173 1.446 3.494 1.446.044 0 .086-.003.13-.004v3.404H9.712v-2.716l.016-.013 1.666-1.665c.215-.217.215-.566 0-.78-.216-.217-.565-.217-.78 0l-.9.9v-4.24c1.512-.253 2.68-1.528 2.75-3.112.002-.023.002-.047 0-.07l.002-.08v-5.38c0-.166-.076-.324-.205-.43-.13-.103-.3-.145-.462-.11-.27.056-.535.127-.794.212-.377-.627-1.062-1.048-1.846-1.048-.783 0-1.467.42-1.846 1.047-.26-.083-.522-.154-.793-.21-.164-.035-.333.007-.462.11-.13.106-.204.264-.204.43v5.38c0 .028 0 .053.002.08-.002.023-.003.047-.002.07.07 1.584 1.238 2.86 2.752 3.112v8.514H3.552c-.305 0-.552.248-.552.553 0 .304.247.55.552.55h24.352c.305 0 .55-.246.55-.55 0-.306-.245-.554-.55-.554zm-3.66-13.908l-4.028 4.028c.212-.978.7-1.887 1.42-2.606.724-.726 1.626-1.212 2.608-1.422zm-3.25 4.812l4.026-4.028c-.212.977-.7 1.885-1.418 2.605-.726.726-1.628 1.213-2.608 1.423zm-4.86-19.093c.2.057.397.12.593.19.183.063.365.134.543.21.19.08.38.165.564.257.294.147.58.307.857.48.165.103.326.21.483.322.154.11.304.222.45.34.155.124.304.252.45.385.156.14.306.285.45.434.135.138.267.28.393.426 1.063 1.226 1.83 2.717 2.19 4.365 0 .005.002.01.004.017-.108 1.686-1.396 3.03-3.04 3.237-.145.017-.293.028-.444.028h-.003c-.035 0-.07-.002-.104-.003-.19-.006-.373-.026-.553-.06-1.545-.297-2.73-1.613-2.827-3.22-.004-.07-.007-.14-.007-.21v-7.198zm3.49-1.363c.665 0 1.248.365 1.56.905-.547.252-1.068.548-1.56.885-.494-.337-1.015-.633-1.562-.886.312-.54.894-.906 1.56-.906zm3.49 1.363v4.288c-.373-.686-.816-1.33-1.32-1.918-.12-.14-.244-.277-.37-.412-.13-.134-.26-.266-.394-.393-.155-.148-.313-.29-.475-.428.276-.173.562-.333.856-.48.187-.092.374-.177.566-.258.178-.075.36-.146.542-.21.196-.07.394-.132.595-.19zm-6.992 22.56c-.647-.645-1.038-1.5-1.11-2.403.908.07 1.752.46 2.403 1.11.647.648 1.038 1.503 1.11 2.405-.908-.072-1.752-.46-2.403-1.112zm-9.164-10.81c.016.004.03.01.047.016.19.062.376.133.558.212.228.1.45.212.664.335-.14.125-.273.256-.402.39-.13.137-.254.277-.373.422-.176.214-.34.438-.494.67v-2.046zm2.2-.99c.32 0 .607.144.8.37-.277.138-.543.293-.8.46-.256-.167-.523-.322-.8-.46.194-.226.48-.37.8-.37zm2.2.99v4.664c0 .052-.003.1-.006.15-.078 1.146-1.03 2.053-2.194 2.054-1.16 0-2.112-.89-2.197-2.036l.006-.017c.23-1.035.705-1.976 1.36-2.762.128-.154.262-.303.405-.444.138-.137.28-.267.428-.392.045-.038.09-.074.135-.11.102-.08.206-.158.31-.232.155-.107.313-.208.476-.303l.01-.007c.214-.123.435-.236.663-.335.183-.08.37-.15.56-.212l.046-.017z" id="Imported-Layers" fill="#206FAC"/><path d="M27.904 110.656H20.07v-7.878c1.63-.048 3.156-.704 4.312-1.86 1.28-1.28 1.956-3.053 1.854-4.862 0-.013-.004-.026-.005-.04-.002-.015-.003-.032-.007-.048-.004-.02-.01-.037-.016-.056l-.015-.043-.03-.06-.02-.032c-.02-.03-.04-.056-.067-.082-.025-.025-.053-.047-.08-.066-.01-.007-.024-.013-.035-.02l-.057-.03c-.014-.006-.03-.01-.044-.015-.02-.006-.037-.013-.056-.017l-.05-.007c-.012 0-.024-.004-.037-.005-.12-.006-.24-.01-.36-.01-1.702 0-3.3.662-4.503 1.864-.295.294-.555.615-.783.955V94.24c2.26-.215 4.044-2.056 4.146-4.368.002-.026 0-.053-.002-.08 0-.04.003-.084.003-.127v-7.903c0-.166-.075-.324-.204-.43-.13-.103-.298-.145-.46-.11-.458.096-.904.22-1.338.37-.48-.943-1.462-1.592-2.592-1.592-1.13 0-2.11.65-2.592 1.593-.433-.15-.88-.275-1.337-.37-.162-.036-.332.006-.46.11-.13.105-.205.263-.205.43v7.902c0 .043.002.086.004.128-.003.026-.004.053-.003.08.1 2.24 1.778 4.036 3.937 4.342v9.74c-.212-.362-.47-.7-.77-1-.934-.933-2.175-1.448-3.495-1.448-.093 0-.187.003-.28.008-.28.016-.504.24-.52.52-.08 1.405.445 2.78 1.44 3.774.932.933 2.173 1.446 3.494 1.446.044 0 .086-.003.13-.004v3.404H9.712v-2.716l.016-.013 1.666-1.666c.215-.215.215-.564 0-.78-.216-.215-.565-.215-.78 0l-.9.9v-4.238c1.512-.253 2.68-1.528 2.75-3.112.002-.023.002-.047 0-.07l.002-.08V93.5c0-.166-.076-.324-.205-.43-.13-.103-.3-.145-.462-.11-.27.056-.535.127-.794.212-.377-.627-1.062-1.048-1.846-1.048-.783 0-1.467.42-1.846 1.047-.26-.083-.522-.154-.793-.21-.164-.035-.333.007-.462.11-.13.106-.204.264-.204.43v5.38c0 .028 0 .053.002.08-.002.023-.003.047-.002.07.07 1.584 1.238 2.86 2.752 3.112v8.514H3.552c-.305 0-.552.248-.552.553 0 .304.247.55.552.55h24.352c.305 0 .55-.246.55-.55 0-.306-.245-.554-.55-.554zm-3.66-13.908l-4.028 4.028c.212-.978.7-1.887 1.42-2.606.724-.726 1.626-1.212 2.608-1.422zm-3.25 4.812l4.026-4.028c-.212.977-.7 1.885-1.418 2.605-.726.726-1.628 1.213-2.608 1.423zm-4.86-19.093c.2.057.397.12.593.19.183.063.365.134.543.21.19.08.38.165.564.257.294.147.58.307.857.48.165.103.326.21.483.322.154.11.304.222.45.34.155.124.304.252.45.385.156.14.306.285.45.434.135.138.267.28.393.426 1.063 1.226 1.83 2.717 2.19 4.365 0 .005.002.01.004.017-.108 1.686-1.396 3.03-3.04 3.237-.145.017-.293.028-.444.028h-.003c-.035 0-.07-.002-.104-.003-.19-.006-.373-.026-.553-.06-1.545-.297-2.73-1.613-2.827-3.22-.004-.07-.007-.14-.007-.21v-7.198zm3.49-1.363c.665 0 1.248.365 1.56.905-.547.252-1.068.548-1.56.885-.494-.337-1.015-.633-1.562-.886.312-.54.894-.906 1.56-.906zm3.49 1.363v4.288c-.373-.686-.816-1.33-1.32-1.918-.12-.14-.244-.277-.37-.412-.13-.134-.26-.266-.394-.393-.155-.148-.313-.29-.475-.428.276-.173.562-.333.856-.48.187-.092.374-.177.566-.258.178-.075.36-.146.542-.21.196-.07.394-.132.595-.19zm-6.992 22.56c-.647-.645-1.038-1.5-1.11-2.403.908.07 1.752.46 2.403 1.11.647.648 1.038 1.503 1.11 2.405-.908-.072-1.752-.46-2.403-1.112zm-9.164-10.81c.016.004.03.01.047.016.19.062.376.133.558.212.228.1.45.212.664.335-.14.125-.273.256-.402.39-.13.137-.254.277-.373.422-.176.214-.34.438-.494.67v-2.046zm2.2-.99c.32 0 .607.144.8.37-.277.138-.543.293-.8.46-.256-.167-.523-.322-.8-.46.194-.226.48-.37.8-.37zm2.2.99v4.664c0 .052-.003.1-.006.15-.078 1.146-1.03 2.053-2.194 2.054-1.16 0-2.112-.89-2.197-2.036l.006-.017c.23-1.035.705-1.976 1.36-2.762.128-.154.262-.303.405-.444.138-.137.28-.267.428-.392.045-.038.09-.074.135-.11.102-.08.206-.158.31-.232.155-.107.313-.208.476-.303l.01-.007c.214-.123.435-.236.663-.335.183-.08.37-.15.56-.212l.046-.017z" id="Imported-Layers" fill="#fff"/><path d="M27.904 70.656H20.07v-7.878c1.63-.048 3.156-.703 4.312-1.86 1.28-1.28 1.956-3.053 1.854-4.862 0-.013-.004-.026-.005-.04-.002-.015-.003-.032-.007-.048-.004-.02-.01-.037-.016-.056l-.015-.043-.03-.06-.02-.032c-.02-.03-.04-.056-.067-.082-.025-.025-.053-.047-.08-.066-.01-.007-.024-.013-.035-.02l-.057-.03c-.014-.006-.03-.01-.044-.015-.02-.006-.037-.013-.056-.017l-.05-.007c-.012 0-.024-.004-.037-.005-.12-.006-.24-.01-.36-.01-1.702 0-3.3.662-4.503 1.864-.295.294-.555.615-.783.955V54.24c2.26-.215 4.044-2.056 4.146-4.368.002-.026 0-.053-.002-.08 0-.04.003-.084.003-.127v-7.903c0-.166-.075-.324-.204-.43-.13-.103-.298-.145-.46-.11-.458.096-.904.22-1.338.37-.48-.943-1.462-1.592-2.592-1.592-1.13 0-2.11.65-2.592 1.593-.433-.15-.88-.275-1.337-.37-.162-.036-.332.006-.46.11-.13.105-.205.263-.205.43v7.902c0 .043.002.086.004.128-.003.026-.004.053-.003.08.1 2.24 1.778 4.036 3.937 4.342v9.74c-.212-.362-.47-.7-.77-1-.934-.933-2.175-1.448-3.495-1.448-.093 0-.187.003-.28.008-.28.016-.504.24-.52.52-.08 1.405.445 2.78 1.44 3.774.932.933 2.173 1.446 3.494 1.446.044 0 .086-.003.13-.004v3.404H9.712V67.94l.016-.013 1.666-1.666c.215-.215.215-.564 0-.78-.216-.215-.565-.215-.78 0l-.9.9v-4.238c1.512-.253 2.68-1.528 2.75-3.112.002-.023.002-.047 0-.07l.002-.08V53.5c0-.166-.076-.324-.205-.43-.13-.103-.3-.145-.462-.11-.27.056-.535.127-.794.212-.377-.627-1.062-1.048-1.846-1.048-.783 0-1.467.42-1.846 1.046-.26-.083-.522-.154-.793-.21-.164-.035-.333.007-.462.11-.13.106-.204.264-.204.43v5.38c0 .028 0 .053.002.08-.002.023-.003.047-.002.07.07 1.584 1.238 2.86 2.752 3.112v8.514H3.552c-.305 0-.552.248-.552.553 0 .304.247.55.552.55h24.352c.305 0 .55-.246.55-.55 0-.306-.245-.554-.55-.554zm-3.66-13.908l-4.028 4.028c.212-.978.7-1.887 1.42-2.606.724-.726 1.626-1.212 2.608-1.422zm-3.25 4.812l4.026-4.028c-.212.977-.7 1.885-1.418 2.605-.726.726-1.628 1.213-2.608 1.423zm-4.86-19.093c.2.057.397.12.593.19.183.063.365.134.543.21.19.08.38.165.564.257.294.147.58.307.857.48.165.103.326.21.483.322.154.11.304.222.45.34.155.124.304.252.45.385.156.14.306.285.45.434.135.138.267.28.393.426 1.063 1.226 1.83 2.717 2.19 4.365 0 .005.002.01.004.017-.108 1.686-1.396 3.03-3.04 3.237-.145.017-.293.028-.444.028h-.003c-.035 0-.07-.002-.104-.003-.19-.006-.373-.026-.553-.06-1.545-.297-2.73-1.613-2.827-3.22-.004-.07-.007-.14-.007-.21v-7.198zm3.49-1.363c.665 0 1.248.365 1.56.905-.547.252-1.068.548-1.56.885-.494-.337-1.015-.633-1.562-.886.312-.54.894-.906 1.56-.906zm3.49 1.363v4.288c-.373-.687-.816-1.33-1.32-1.918-.12-.14-.244-.277-.37-.412-.13-.134-.26-.266-.394-.393-.155-.148-.313-.29-.475-.428.276-.173.562-.333.856-.48.187-.092.374-.177.566-.258.178-.075.36-.146.542-.21.196-.07.394-.132.595-.19zm-6.992 22.56c-.647-.645-1.038-1.5-1.11-2.403.908.07 1.752.46 2.403 1.11.647.648 1.038 1.503 1.11 2.405-.908-.072-1.752-.46-2.403-1.112zm-9.164-10.81c.016.004.03.01.047.016.19.062.376.133.558.212.228.1.45.212.664.335-.14.125-.273.256-.402.39-.13.137-.254.277-.373.422-.176.214-.34.438-.494.67v-2.046zm2.2-.99c.32 0 .607.144.8.37-.277.138-.543.293-.8.46-.256-.167-.523-.322-.8-.46.194-.226.48-.37.8-.37zm2.2.99v4.664c0 .052-.003.1-.006.15-.078 1.146-1.03 2.053-2.194 2.054-1.16 0-2.112-.89-2.197-2.036l.006-.017c.23-1.035.705-1.976 1.36-2.762.128-.154.262-.303.405-.444.138-.137.28-.267.428-.392.045-.038.09-.074.135-.11.102-.08.206-.158.31-.232.155-.107.313-.208.476-.303l.01-.007c.214-.123.435-.236.663-.335.183-.08.37-.15.56-.212l.046-.017z" id="Imported-Layers" fill="#67737B"/><path d="M27.904 30.656H20.07v-7.878c1.63-.048 3.156-.703 4.312-1.86 1.28-1.28 1.956-3.053 1.854-4.862 0-.013-.004-.026-.005-.04-.002-.015-.003-.032-.007-.048-.004-.02-.01-.037-.016-.056l-.015-.043-.03-.06-.02-.032c-.02-.03-.04-.056-.067-.082-.025-.025-.053-.047-.08-.066-.01-.007-.024-.013-.035-.02l-.057-.03c-.014-.006-.03-.01-.044-.015-.02-.006-.037-.013-.056-.017l-.05-.007c-.012 0-.024-.004-.037-.005-.12-.006-.24-.01-.36-.01-1.702 0-3.3.662-4.503 1.864-.295.294-.555.615-.783.955V14.24c2.26-.215 4.044-2.056 4.146-4.368.002-.026 0-.053-.002-.08 0-.04.003-.084.003-.127V1.762c0-.166-.075-.324-.204-.43-.13-.103-.298-.145-.46-.11-.458.096-.904.22-1.338.37C21.735.65 20.753 0 19.623 0c-1.13 0-2.11.65-2.592 1.593-.433-.15-.88-.275-1.337-.37-.162-.036-.332.006-.46.11-.13.105-.205.263-.205.43v7.902c0 .043.002.086.004.128-.003.026-.004.053-.003.08.1 2.24 1.778 4.036 3.937 4.342v9.74c-.212-.362-.47-.7-.77-1-.934-.933-2.175-1.448-3.495-1.448-.093 0-.187.003-.28.008-.28.016-.504.24-.52.52-.08 1.405.445 2.78 1.44 3.774.932.933 2.173 1.446 3.494 1.446.044 0 .086-.003.13-.004v3.404H9.712V27.94l.016-.013 1.666-1.665c.215-.217.215-.566 0-.78-.216-.217-.565-.217-.78 0l-.9.9v-4.24c1.512-.253 2.68-1.528 2.75-3.112.002-.023.002-.047 0-.07l.002-.08V13.5c0-.166-.076-.324-.205-.43-.13-.103-.3-.145-.462-.11-.27.056-.535.127-.794.212-.377-.627-1.062-1.048-1.846-1.048-.783 0-1.467.42-1.846 1.046-.26-.083-.522-.154-.793-.21-.164-.035-.333.007-.462.11-.13.106-.204.264-.204.43v5.38c0 .028 0 .053.002.08-.002.023-.003.047-.002.07.07 1.584 1.238 2.86 2.752 3.112v8.514H3.552c-.305 0-.552.248-.552.553 0 .304.247.55.552.55h24.352c.305 0 .55-.246.55-.55 0-.306-.245-.554-.55-.554zm-3.66-13.908l-4.028 4.028c.212-.978.7-1.887 1.42-2.606.724-.726 1.626-1.212 2.608-1.422zm-3.25 4.812l4.026-4.028c-.212.977-.7 1.885-1.418 2.605-.726.726-1.628 1.213-2.608 1.423zm-4.86-19.093c.2.057.397.12.593.19.183.063.365.134.543.21.19.08.38.165.564.257.294.147.58.307.857.48.165.103.326.21.483.322.154.11.304.222.45.34.155.124.304.252.45.385.156.14.306.285.45.434.135.138.267.28.393.426 1.063 1.226 1.83 2.717 2.19 4.365 0 .005.002.01.004.017-.108 1.686-1.396 3.03-3.04 3.237-.145.017-.293.028-.444.028h-.003c-.035 0-.07-.002-.104-.003-.19-.006-.373-.026-.553-.06-1.545-.297-2.73-1.613-2.827-3.22-.004-.07-.007-.14-.007-.21V2.467zm3.49-1.363c.665 0 1.248.365 1.56.905-.547.252-1.068.548-1.56.885-.494-.337-1.015-.633-1.562-.886.312-.54.894-.906 1.56-.906zm3.49 1.363v4.288c-.373-.686-.816-1.33-1.32-1.918-.12-.14-.244-.277-.37-.41-.13-.136-.26-.268-.394-.395-.155-.148-.313-.29-.475-.428.276-.173.562-.333.856-.48.187-.092.374-.177.566-.258.178-.075.36-.146.542-.21.196-.07.394-.132.595-.19zm-6.992 22.56c-.647-.645-1.038-1.5-1.11-2.403.908.07 1.752.46 2.403 1.11.647.648 1.038 1.503 1.11 2.405-.908-.072-1.752-.46-2.403-1.112zm-9.164-10.81c.016.004.03.01.047.016.19.062.376.133.558.212.228.1.45.212.664.335-.14.125-.273.256-.402.39-.13.137-.254.277-.373.422-.176.214-.34.438-.494.67v-2.046zm2.2-.99c.32 0 .607.144.8.37-.277.138-.543.293-.8.46-.256-.167-.523-.322-.8-.46.194-.226.48-.37.8-.37zm2.2.99v4.664c0 .052-.003.1-.006.15-.078 1.146-1.03 2.053-2.194 2.054-1.16 0-2.112-.89-2.197-2.036l.006-.017c.23-1.035.705-1.976 1.36-2.762.128-.154.262-.303.405-.444.138-.137.28-.267.428-.392.045-.038.09-.074.135-.11.102-.08.206-.158.31-.232.155-.107.313-.208.476-.303l.01-.007c.214-.123.435-.236.663-.335.183-.08.37-.15.56-.212l.046-.017z" fill="#373D43"/></g></svg>