<svg width="32" height="232" viewBox="0 0 32 232" xmlns="http://www.w3.org/2000/svg"><g fill="none"><path d="M25.83 136.55c.006-.895 1.485-2.1 2.67-3.26-.144-.563-.324-1.116-.553-1.668-.218-.553-.488-1.075-.773-1.58-1.656 0-3.56.18-4.188-.454-.654-.66-.47-2.572-.46-4.22-.985-.575-2.047-1.022-3.143-1.325-1.172 1.166-2.412 2.63-3.336 2.627-.895-.004-2.1-1.484-3.258-2.668-.57.143-1.12.324-1.67.553-.56.22-1.08.486-1.58.774 0 1.65.18 3.56-.46 4.18-.66.66-2.57.47-4.22.46-.58.98-1.02 2.04-1.33 3.14 1.16 1.17 2.63 2.41 2.62 3.33 0 .89-1.49 2.1-2.67 3.25.14.57.32 1.12.55 1.67.22.55.49 1.07.77 1.58 1.65 0 3.56-.18 4.18.46.65.66.47 2.57.46 4.22.98.57 2.05 1.02 3.14 1.32 1.17-1.17 2.41-2.63 3.34-2.63.89 0 2.1 1.48 3.26 2.67.56-.15 1.12-.32 1.67-.55.55-.22 1.07-.49 1.58-.77 0-1.66-.18-3.56.45-4.19.66-.66 2.57-.47 4.22-.46.57-.99 1.02-2.05 1.32-3.14-1.17-1.17-2.63-2.42-2.63-3.34zM16 140.97c-2.465 0-4.463-2-4.463-4.468 0-2.465 1.998-4.463 4.463-4.463s4.463 1.99 4.463 4.46-1.998 4.46-4.463 4.46zm0 0" fill="#206FAC"/><path d="M25.83 96.55c.006-.895 1.485-2.1 2.67-3.26-.144-.563-.324-1.116-.553-1.668-.218-.553-.488-1.075-.773-1.58-1.656 0-3.56.18-4.188-.454-.654-.66-.47-2.572-.46-4.22-.985-.575-2.047-1.022-3.143-1.325-1.172 1.166-2.412 2.63-3.336 2.627-.895-.004-2.1-1.484-3.258-2.668-.57.143-1.12.324-1.67.553-.56.22-1.08.486-1.58.774 0 1.65.18 3.56-.46 4.18-.66.66-2.57.47-4.22.46-.58.98-1.02 2.04-1.33 3.14 1.16 1.17 2.63 2.41 2.62 3.33 0 .89-1.49 2.1-2.67 3.25.14.57.32 1.12.55 1.67.22.55.49 1.07.77 1.58 1.65 0 3.56-.18 4.18.46.65.66.47 2.57.46 4.22.98.57 2.05 1.02 3.14 1.32 1.17-1.17 2.41-2.63 3.34-2.63.89 0 2.1 1.48 3.26 2.67.56-.15 1.12-.32 1.67-.55.55-.22 1.07-.49 1.58-.77 0-1.66-.18-3.56.45-4.19.66-.66 2.57-.47 4.22-.46.57-.99 1.02-2.05 1.32-3.14-1.17-1.17-2.63-2.42-2.63-3.34zM16 100.97c-2.465 0-4.463-2-4.463-4.468 0-2.465 1.998-4.463 4.463-4.463s4.463 1.99 4.463 4.46-1.998 4.46-4.463 4.46zm0 0" fill="#fff"/><path d="M25.83 56.55c.006-.895 1.485-2.1 2.67-3.26-.144-.563-.324-1.116-.553-1.668-.218-.553-.488-1.075-.773-1.58-1.656 0-3.56.18-4.188-.454-.654-.66-.47-2.572-.46-4.22-.985-.575-2.047-1.022-3.143-1.325-1.172 1.166-2.412 2.63-3.336 2.627-.895-.004-2.1-1.484-3.258-2.668-.57.143-1.12.324-1.67.553-.56.22-1.08.486-1.58.774 0 1.65.18 3.56-.46 4.18-.66.66-2.57.47-4.22.46-.58.98-1.02 2.04-1.33 3.14 1.16 1.17 2.63 2.41 2.62 3.33 0 .89-1.49 2.1-2.67 3.25.14.57.32 1.12.55 1.67.22.55.49 1.07.77 1.58 1.65 0 3.56-.18 4.18.46.65.66.47 2.57.46 4.22.98.57 2.05 1.02 3.14 1.32 1.17-1.17 2.41-2.63 3.34-2.63.89 0 2.1 1.48 3.26 2.67.56-.15 1.12-.32 1.67-.55.55-.22 1.07-.49 1.58-.77 0-1.66-.18-3.56.45-4.19.66-.66 2.57-.47 4.22-.46.57-.99 1.02-2.05 1.32-3.14-1.17-1.17-2.63-2.42-2.63-3.34zM16 60.97c-2.465 0-4.463-2-4.463-4.468 0-2.465 1.998-4.463 4.463-4.463s4.463 1.99 4.463 4.46-1.998 4.46-4.463 4.46zm0 0" fill="#67737B"/><path d="M25.83 16.55c.006-.895 1.485-2.1 2.67-3.26-.144-.563-.324-1.116-.553-1.668-.218-.553-.488-1.075-.773-1.58-1.656 0-3.56.18-4.188-.454-.654-.66-.47-2.572-.46-4.22-.985-.575-2.047-1.022-3.143-1.325-1.172 1.166-2.412 2.63-3.336 2.627-.895-.004-2.1-1.484-3.258-2.668-.57.143-1.12.324-1.67.553-.56.22-1.08.486-1.58.774 0 1.65.18 3.56-.46 4.18-.66.66-2.57.47-4.22.46-.58.98-1.02 2.04-1.33 3.14 1.16 1.17 2.63 2.41 2.62 3.33 0 .89-1.49 2.1-2.67 3.25.14.57.32 1.12.55 1.67.22.55.49 1.07.77 1.58 1.65 0 3.56-.18 4.18.46.65.66.47 2.57.46 4.22.98.57 2.05 1.02 3.14 1.32 1.17-1.17 2.41-2.63 3.34-2.63.89 0 2.1 1.48 3.26 2.67.56-.15 1.12-.32 1.67-.55.55-.22 1.07-.49 1.58-.77 0-1.66-.18-3.56.45-4.19.66-.66 2.57-.47 4.22-.46.57-.99 1.02-2.05 1.32-3.14-1.17-1.17-2.63-2.42-2.63-3.34zM16 20.97c-2.465 0-4.463-2-4.463-4.468 0-2.465 1.998-4.463 4.463-4.463s4.463 1.99 4.463 4.46-1.998 4.46-4.463 4.46zm0 0" fill="#3A434E"/></g></svg>