<svg width="32" height="232" viewBox="0 0 32 232" xmlns="http://www.w3.org/2000/svg"><g fill="none"><path d="M18.89 125.708c.42 0 .833.183 1.108.53l5.925 7.48h2.933c.767 0 1.393.606 1.393 1.356 0 .75-.63 1.36-1.4 1.36h-.45l-2.06 9.97c-.1.488-.6.888-1.12.888H6.85c-.51 0-1.01-.4-1.11-.887l-2.055-9.97h-.543c-.767 0-1.394-.61-1.394-1.36 0-.75.63-1.357 1.397-1.357H6.28l5.927-7.48c.274-.348.687-.53 1.104-.53.3 0 .6.092.85.283.61.46.72 1.32.25 1.91l-4.61 5.82h12.6l-4.61-5.82c-.47-.59-.35-1.45.25-1.9.26-.19.56-.28.85-.28zm3.56 13.984h.744c.513 0 .93-.408.93-.907v-.813c0-.5-.417-.903-.93-.903h-.745c-.52 0-.93.4-.93.9v.81c0 .5.41.9.92.9zm-4.454 0h.745c.52 0 .93-.408.93-.907v-.813c0-.5-.41-.903-.92-.903H18c-.513 0-.926.4-.926.9v.81c0 .5.414.9.926.9zm-4.548 0h.743c.52 0 .93-.408.93-.907v-.813c0-.5-.41-.903-.93-.903h-.74c-.51 0-.92.4-.92.9v.81c0 .5.41.9.93.9zm-4.453 0h.744c.51 0 .92-.408.92-.907v-.813c0-.5-.42-.903-.93-.903h-.74c-.52 0-.93.4-.93.9v.81c0 .5.41.9.92.9zm13.455 4.612h.745c.513 0 .93-.403.93-.904v-.813c0-.5-.417-.906-.93-.906h-.745c-.51 0-.925.41-.925.91v.82c0 .5.414.91.925.91zm-4.453 0h.745c.513 0 .927-.403.927-.904v-.813c0-.5-.42-.906-.93-.906h-.75c-.51 0-.93.41-.93.91v.82c0 .5.41.91.92.91zm-4.548 0h.74c.51 0 .93-.403.93-.904v-.813c0-.5-.42-.906-.93-.906h-.75c-.52 0-.93.41-.93.91v.82c0 .5.41.91.92.91zm-4.46 0h.74c.51 0 .92-.403.92-.904v-.813c0-.5-.42-.906-.93-.906h-.74c-.52 0-.93.41-.93.91v.82c0 .5.41.91.92.91zM18.89 124c-.69 0-1.37.227-1.92.638-.374.283-.665.633-.87 1.02-.203-.386-.495-.735-.87-1.018-.55-.413-1.23-.64-1.92-.64-.982 0-1.89.435-2.49 1.192l-5.402 6.82H3.15c-1.734 0-3.145 1.372-3.145 3.062 0 1.38.938 2.55 2.226 2.934l1.8 8.733c.27 1.29 1.49 2.26 2.83 2.26h18.38c1.35 0 2.57-.97 2.83-2.26l1.81-8.76c1.24-.41 2.13-1.56 2.13-2.9 0-1.69-1.41-3.06-3.14-3.06h-2.08l-5.4-6.82c-.6-.75-1.51-1.19-2.49-1.19zm-5.525 8.01l2.433-3.07c.12-.148.22-.304.306-.464.085.16.186.314.303.462l2.43 3.073h-5.47zm0 0" fill="#206FAC"/><path d="M18.89 85.708c.42 0 .833.183 1.108.53l5.925 7.48h2.933c.767 0 1.393.606 1.393 1.356 0 .75-.63 1.36-1.4 1.36h-.45l-2.06 9.97c-.1.488-.6.888-1.12.888H6.85c-.51 0-1.01-.4-1.11-.887l-2.055-9.97h-.543c-.767 0-1.394-.61-1.394-1.36 0-.75.63-1.357 1.397-1.357H6.28l5.927-7.48c.274-.348.687-.53 1.104-.53.3 0 .6.092.85.283.61.46.72 1.32.25 1.91L9.8 93.72h12.6l-4.61-5.82c-.47-.592-.357-1.45.25-1.903.253-.19.552-.282.85-.282zm3.56 13.984h.744c.513 0 .93-.408.93-.907v-.813c0-.5-.417-.903-.93-.903h-.745c-.52 0-.93.4-.93.9v.81c0 .5.41.9.92.9zm-4.454 0h.745c.52 0 .93-.408.93-.907v-.813c0-.5-.41-.903-.92-.903H18c-.513 0-.926.4-.926.9v.81c0 .5.414.9.926.9zm-4.548 0h.743c.52 0 .93-.408.93-.907v-.813c0-.5-.41-.903-.93-.903h-.74c-.51 0-.92.4-.92.9v.81c0 .5.41.9.93.9zm-4.453 0h.744c.51 0 .92-.408.92-.907v-.813c0-.5-.42-.903-.93-.903h-.74c-.52 0-.93.4-.93.9v.81c0 .5.41.9.92.9zm13.455 4.612h.745c.513 0 .93-.403.93-.904v-.813c0-.5-.417-.906-.93-.906h-.745c-.51 0-.925.41-.925.91v.82c0 .5.414.91.925.91zm-4.453 0h.745c.513 0 .927-.403.927-.904v-.813c0-.5-.42-.906-.93-.906h-.75c-.51 0-.93.41-.93.91v.82c0 .5.41.91.92.91zm-4.548 0h.74c.51 0 .93-.403.93-.904v-.813c0-.5-.42-.906-.93-.906h-.75c-.52 0-.93.41-.93.91v.82c0 .5.41.91.92.91zm-4.46 0h.74c.51 0 .92-.403.92-.904v-.813c0-.5-.42-.906-.93-.906h-.74c-.52 0-.93.41-.93.91v.82c0 .5.41.91.92.91zM18.89 84c-.69 0-1.37.227-1.92.638-.373.283-.664.633-.87 1.02-.202-.386-.494-.735-.87-1.018-.55-.413-1.23-.64-1.92-.64-.98 0-1.89.435-2.49 1.192l-5.4 6.82H3.15c-1.734 0-3.145 1.372-3.145 3.062 0 1.38.938 2.55 2.226 2.934l1.8 8.733c.27 1.29 1.49 2.26 2.83 2.26h18.38c1.35 0 2.57-.97 2.83-2.26l1.81-8.76c1.24-.41 2.13-1.56 2.13-2.9 0-1.69-1.41-3.06-3.14-3.06h-2.08l-5.4-6.82c-.6-.75-1.51-1.19-2.49-1.19zm-5.524 8.01l2.432-3.07c.12-.148.22-.304.31-.464.085.16.186.314.303.462l2.44 3.073h-5.47zm0 0" fill="#fff"/><path d="M18.89 45.708c.42 0 .833.183 1.108.53l5.925 7.48h2.933c.767 0 1.393.606 1.393 1.356 0 .75-.63 1.36-1.4 1.36h-.45l-2.06 9.97c-.1.488-.6.888-1.12.888H6.85c-.51 0-1.01-.4-1.11-.887l-2.055-9.97h-.543c-.767 0-1.394-.61-1.394-1.36 0-.75.63-1.357 1.397-1.357H6.28l5.927-7.48c.274-.348.687-.53 1.104-.53.3 0 .6.092.85.283.61.46.72 1.32.25 1.91L9.8 53.72h12.6l-4.61-5.82c-.47-.592-.357-1.45.25-1.903.253-.19.552-.282.85-.282zm3.56 13.984h.744c.513 0 .93-.408.93-.907v-.813c0-.5-.417-.903-.93-.903h-.745c-.52 0-.93.4-.93.9v.81c0 .5.41.9.92.9zm-4.454 0h.745c.52 0 .93-.408.93-.907v-.813c0-.5-.41-.903-.92-.903H18c-.513 0-.926.4-.926.9v.81c0 .5.414.9.926.9zm-4.548 0h.743c.52 0 .93-.408.93-.907v-.813c0-.5-.41-.903-.93-.903h-.74c-.51 0-.92.4-.92.9v.81c0 .5.41.9.93.9zm-4.453 0h.744c.51 0 .92-.408.92-.907v-.813c0-.5-.42-.903-.93-.903h-.74c-.52 0-.93.4-.93.9v.81c0 .5.41.9.92.9zm13.455 4.612h.745c.513 0 .93-.403.93-.904v-.813c0-.5-.417-.906-.93-.906h-.745c-.51 0-.925.41-.925.91v.82c0 .5.414.91.925.91zm-4.453 0h.745c.513 0 .927-.403.927-.904v-.813c0-.5-.42-.906-.93-.906h-.75c-.51 0-.93.41-.93.91v.82c0 .5.41.91.92.91zm-4.548 0h.74c.51 0 .93-.403.93-.904v-.813c0-.5-.42-.906-.93-.906h-.75c-.52 0-.93.41-.93.91v.82c0 .5.41.91.92.91zm-4.46 0h.74c.51 0 .92-.403.92-.904v-.813c0-.5-.42-.906-.93-.906h-.74c-.52 0-.93.41-.93.91v.82c0 .5.41.91.92.91zM18.89 44c-.69 0-1.37.227-1.92.638-.373.283-.664.633-.87 1.02-.202-.386-.494-.735-.87-1.018-.55-.413-1.23-.64-1.92-.64-.98 0-1.89.435-2.49 1.192l-5.4 6.82H3.15c-1.734 0-3.145 1.372-3.145 3.062 0 1.38.938 2.55 2.226 2.934l1.8 8.733C4.3 68.03 5.52 69 6.86 69h18.38c1.35 0 2.565-.97 2.83-2.26l1.808-8.763c1.235-.414 2.124-1.558 2.124-2.902 0-1.69-1.41-3.063-3.144-3.063h-2.073l-5.4-6.818c-.602-.757-1.51-1.192-2.492-1.192zm-5.524 8.01l2.432-3.07c.12-.148.22-.304.31-.464.085.16.186.314.303.462l2.44 3.073h-5.47zm0 0" fill="#67737B"/><path d="M18.89 5.708c.42 0 .833.183 1.108.53l5.925 7.48h2.933c.767 0 1.393.606 1.393 1.356 0 .75-.63 1.36-1.4 1.36h-.45l-2.06 9.97c-.1.488-.6.888-1.12.888H6.85c-.51 0-1.01-.4-1.11-.887l-2.055-9.97h-.543c-.767 0-1.394-.61-1.394-1.36 0-.75.63-1.357 1.397-1.357H6.28l5.927-7.48c.274-.348.687-.53 1.104-.53.3 0 .6.092.85.283.61.46.72 1.32.25 1.91L9.8 13.72h12.6L17.79 7.9c-.47-.597-.357-1.45.25-1.908.253-.19.552-.282.85-.282zm3.56 13.984h.744c.513 0 .93-.408.93-.907v-.813c0-.5-.417-.903-.93-.903h-.745c-.52 0-.93.4-.93.9v.81c0 .5.41.9.92.9zm-4.454 0h.745c.52 0 .93-.408.93-.907v-.813c0-.5-.41-.903-.92-.903H18c-.513 0-.926.4-.926.9v.81c0 .5.414.9.926.9zm-4.548 0h.743c.52 0 .93-.408.93-.907v-.813c0-.5-.41-.903-.93-.903h-.74c-.51 0-.92.4-.92.9v.81c0 .5.41.9.93.9zm-4.453 0h.744c.51 0 .92-.408.92-.907v-.813c0-.5-.42-.903-.93-.903h-.74c-.52 0-.93.4-.93.9v.81c0 .5.41.9.92.9zm13.455 4.612h.745c.513 0 .93-.403.93-.904v-.813c0-.5-.417-.906-.93-.906h-.745c-.51 0-.925.41-.925.91v.82c0 .5.414.91.925.91zm-4.453 0h.745c.513 0 .927-.403.927-.904v-.813c0-.5-.42-.906-.93-.906h-.75c-.51 0-.93.41-.93.91v.82c0 .5.41.91.92.91zm-4.548 0h.74c.51 0 .93-.403.93-.904v-.813c0-.5-.42-.906-.93-.906h-.75c-.52 0-.93.41-.93.91v.82c0 .5.41.91.92.91zm-4.46 0h.74c.51 0 .92-.403.92-.904v-.813c0-.5-.42-.906-.93-.906h-.74c-.52 0-.93.41-.93.91v.82c0 .5.41.91.92.91zM18.89 4c-.69 0-1.37.227-1.92.638-.373.283-.664.633-.87 1.02-.202-.386-.494-.735-.87-1.018C14.68 4.227 14 4 13.31 4c-.98 0-1.89.435-2.49 1.192l-5.4 6.82H3.15c-1.734 0-3.145 1.372-3.145 3.062 0 1.38.938 2.55 2.226 2.934l1.8 8.733C4.3 28.03 5.52 29 6.86 29h18.38c1.35 0 2.565-.97 2.83-2.26l1.808-8.763c1.235-.414 2.124-1.558 2.124-2.902 0-1.69-1.41-3.063-3.144-3.063h-2.073l-5.4-6.818c-.6-.76-1.51-1.194-2.49-1.194zm-5.524 8.01l2.43-3.07c.118-.148.22-.304.305-.464.09.16.19.314.31.462l2.44 3.073h-5.47zm0 0" fill="#3A434E"/></g></svg>