<svg width="22" height="32" viewBox="0 0 22 32" xmlns="http://www.w3.org/2000/svg"><g fill="none"><path d="M15.484 29.984c0 1.105-2.015 2-4.5 2-2.486 0-4.5-.895-4.5-2 0-1.104 2.014-2 4.5-2 2.485 0 4.5.896 4.5 2" fill-opacity=".2" fill="#1D508D"/><path d="M10.983.016c6.077 0 11 4.362 11 10.92 0 6.407-5.55 9.16-8.504 13.256-2.42 3.346-2.5 5.824-2.5 5.824s-.02-2.49-2.5-5.824c-3.04-4.097-8.5-6.66-8.5-13.257 0-6.56 4.92-10.92 11-10.92" fill="#FF708E"/><path d="M15.783 7.913l-.06-.678-1.288.003h-.21l.01-.06-.01-.08c-.055-1.745-1.48-3.142-3.24-3.144C9.19 3.956 7.74 5.404 7.74 7.2h.004l.008.072-.354.002-1.18.007-.555 9.19c0 .18.07.36.2.49.127.13.298.2.48.2h9.282c.182 0 .35-.07.482-.2.126-.12.2-.3.196-.48l-.523-8.56zM9.095 7.2v-.03c.02-1.03.856-1.858 1.89-1.86 1.04.002 1.887.845 1.888 1.89h.004l.008.045-3.8.02.01-.065zm4.66 7.596c-.072.07-.167.107-.268.107h-5.18c-.1 0-.196-.037-.266-.107-.07-.076-.11-.175-.11-.273l.31-5.13.66-.002h.68l2.58-.01h1.39l.04.38.3 4.78c0 .1-.04.2-.11.28zm0 0" fill="#fff"/></g></svg>