<svg width="32" height="232" viewBox="0 0 32 232" xmlns="http://www.w3.org/2000/svg"><g fill="none"><path d="M25.915 170.4l-.12-1.444-2.668.012-.433.006.015-.14-.02-.162c-.11-3.704-3.07-6.67-6.7-6.67-3.71 0-6.71 3.083-6.71 6.887h.02l.02.15h-.74l-2.45.01-1.14 19.5c0 .38.14.75.41 1.02.27.27.62.42.99.42h19.19c.37 0 .73-.15.99-.42s.41-.64.41-1.03l-1.07-18.15zm-13.828-1.512l.002-.023v-.042c.04-2.182 1.77-3.94 3.9-3.946 2.15.005 3.9 1.796 3.9 4.01h.01l.01.097-7.85.04.01-.136zm9.633 16.106c-.143.154-.34.237-.553.237H10.46c-.212 0-.403-.08-.554-.23-.148-.15-.23-.35-.23-.57l.633-10.88h1.37l1.39-.01 5.33-.03h1.39l1.48-.01.07.82.6 10.13c0 .22-.09.42-.24.57zm0 0" fill="#FF708E"/><path d="M25.915 130.4l-.12-1.444-2.668.012-.433.006.015-.14-.02-.162c-.11-3.704-3.07-6.67-6.7-6.67-3.71 0-6.71 3.083-6.71 6.887h.02l.02.15h-.74l-2.45.01-1.14 19.5c0 .38.14.75.41 1.02.27.27.62.42.99.42h19.19c.37 0 .73-.15.99-.42s.41-.64.41-1.03l-1.07-18.15zm-13.828-1.512l.002-.023v-.042c.04-2.182 1.77-3.94 3.9-3.946 2.15.005 3.9 1.796 3.9 4.01h.01l.01.097-7.85.04.01-.136zm9.633 16.106c-.143.154-.34.237-.553.237H10.46c-.212 0-.403-.08-.554-.23-.148-.15-.23-.35-.23-.57l.633-10.88h1.37l1.39-.01 5.33-.03h1.39l1.48-.01.07.82.6 10.13c0 .22-.09.42-.24.57zm0 0" fill="#206FAC"/><path d="M25.915 90.4l-.12-1.444-2.668.012-.433.006.015-.14-.02-.162c-.11-3.704-3.07-6.67-6.7-6.67-3.71 0-6.71 3.083-6.71 6.887h.02l.02.15h-.74l-2.45.01-1.14 19.5c0 .38.14.75.41 1.02.27.27.62.42.99.42h19.19c.37 0 .73-.15.99-.42s.41-.64.41-1.03L25.92 90.4zm-13.828-1.512l.002-.023v-.042c.04-2.182 1.77-3.94 3.9-3.946 2.15.005 3.9 1.796 3.9 4.01h.01l.01.097-7.85.04.01-.136zm9.633 16.106c-.143.154-.34.237-.553.237H10.46c-.212 0-.403-.08-.554-.23-.148-.15-.23-.35-.23-.57l.633-10.88h1.37l1.39-.01 5.33-.03h1.39l1.48-.01.07.82.6 10.13c0 .22-.09.42-.24.57zm0 0" fill="#fff"/><path d="M25.915 50.4l-.12-1.444-2.668.012-.433.006.015-.14-.02-.162c-.11-3.704-3.07-6.67-6.7-6.67-3.71 0-6.71 3.083-6.71 6.887h.02l.02.15h-.74l-2.45.01L5 68.55c0 .387.14.754.413 1.025.27.27.617.424.99.424h19.19c.373 0 .73-.15.993-.42.266-.27.415-.64.415-1.02L25.92 50.4zm-13.828-1.512l.002-.023v-.042c.04-2.182 1.77-3.94 3.9-3.946 2.15.005 3.9 1.796 3.9 4.01h.01l.01.097-7.85.04.01-.136zm9.633 16.106c-.143.154-.34.237-.553.237H10.46c-.212 0-.403-.08-.554-.23-.148-.15-.23-.35-.23-.57l.633-10.88h1.37l1.39-.01 5.33-.03h1.39l1.48-.01.07.82.6 10.13c0 .22-.09.42-.24.57zm0 0" fill="#67747C"/><path d="M25.915 10.4l-.12-1.444-2.668.012-.433.006.015-.14-.02-.162c-.11-3.704-3.07-6.67-6.7-6.67-3.71 0-6.71 3.083-6.71 6.887h.02l.02.15h-.74l-2.45.01L5 28.55c0 .387.14.754.413 1.025.27.27.617.424.99.424h19.19c.373 0 .73-.15.993-.42.266-.27.415-.64.415-1.02L25.92 10.4zM12.087 8.887l.002-.023v-.04c.04-2.183 1.77-3.94 3.9-3.947 2.15.005 3.9 1.796 3.9 4.01h.01l.01.097-7.85.04.01-.136zm9.633 16.106c-.143.154-.34.237-.553.237H10.46c-.212 0-.403-.083-.554-.236-.148-.152-.23-.355-.23-.57l.633-10.88 1.37-.005 1.39-.01 5.33-.03 1.39-.01 1.48-.02.07.81.6 10.13c0 .21-.09.42-.24.57zm0 0" fill="#3B444F"/></g></svg>