<svg width="32" height="232" viewBox="0 0 32 232" xmlns="http://www.w3.org/2000/svg"><g fill="none"><path d="M28.632 134.17h-2.884l-5.82-7.632c-.465-.605-1.323-.716-1.922-.25-.598.47-.708 1.336-.245 1.942l4.54 5.94H9.91l4.532-5.94c.46-.606.35-1.473-.248-1.94-.598-.468-1.458-.357-1.92.248l-5.822 7.63H3.37c-.757 0-1.37.618-1.37 1.384 0 .764.613 1.385 1.37 1.385h.533l2.02 10.168c.1.498.59.906 1.09.906H25.08c.502 0 .993-.4 1.09-.9l2.02-10.17h.444c.753 0 1.367-.62 1.367-1.38 0-.76-.61-1.38-1.36-1.38zm-17.877 9.872c0 .51-.41.922-.91.922h-.732c-.502 0-.91-.412-.91-.922v-.83c0-.51.408-.924.91-.924h.73c.503 0 .912.414.912.924v.83zm0-4.707c0 .51-.41.924-.91.924h-.732c-.502 0-.91-.42-.91-.93v-.83c0-.51.408-.92.91-.92h.73c.503 0 .912.41.912.92v.83zm4.378 4.707c0 .51-.41.922-.91.922h-.732c-.5 0-.91-.412-.91-.922v-.83c0-.51.41-.924.91-.924h.74c.5 0 .91.414.91.924v.83zm0-4.707c0 .51-.41.924-.91.924h-.732c-.5 0-.91-.42-.91-.93v-.83c0-.51.41-.92.91-.92h.74c.5 0 .91.41.91.92v.83zm4.468 4.707c0 .51-.4.922-.91.922h-.73c-.5 0-.91-.412-.91-.922v-.83c0-.51.41-.924.92-.924h.73c.51 0 .91.414.91.924v.83zm0-4.707c0 .51-.4.924-.91.924h-.73c-.5 0-.91-.42-.91-.93v-.83c0-.51.41-.92.92-.92h.73c.51 0 .91.41.91.92v.83zm4.38 4.707c0 .51-.4.922-.91.922h-.73c-.5 0-.91-.412-.91-.922v-.83c0-.51.41-.924.91-.924h.73c.51 0 .91.414.91.924v.83zm0-4.707c0 .51-.4.924-.91.924h-.73c-.5 0-.91-.42-.91-.93v-.83c0-.51.41-.92.91-.92h.73c.51 0 .91.41.91.92v.83zm0 0" fill="#206FAC"/><path d="M28.632 174.17h-2.884l-5.82-7.632c-.465-.605-1.323-.716-1.922-.25-.598.47-.708 1.336-.245 1.942l4.54 5.94H9.91l4.532-5.94c.46-.606.35-1.473-.248-1.94-.598-.468-1.458-.357-1.92.248l-5.822 7.63H3.37c-.757 0-1.37.618-1.37 1.384 0 .764.613 1.385 1.37 1.385h.533l2.02 10.168c.1.498.59.906 1.09.906H25.08c.502 0 .993-.4 1.09-.9l2.02-10.17h.444c.753 0 1.367-.62 1.367-1.38 0-.76-.61-1.38-1.36-1.38zm-17.877 9.872c0 .51-.41.922-.91.922h-.732c-.502 0-.91-.412-.91-.922v-.83c0-.51.408-.924.91-.924h.73c.503 0 .912.414.912.924v.83zm0-4.707c0 .51-.41.924-.91.924h-.732c-.502 0-.91-.42-.91-.93v-.83c0-.51.408-.92.91-.92h.73c.503 0 .912.41.912.92v.83zm4.378 4.707c0 .51-.41.922-.91.922h-.732c-.5 0-.91-.412-.91-.922v-.83c0-.51.41-.924.91-.924h.74c.5 0 .91.414.91.924v.83zm0-4.707c0 .51-.41.924-.91.924h-.732c-.5 0-.91-.42-.91-.93v-.83c0-.51.41-.92.91-.92h.74c.5 0 .91.41.91.92v.83zm4.468 4.707c0 .51-.4.922-.91.922h-.73c-.5 0-.91-.412-.91-.922v-.83c0-.51.41-.924.92-.924h.73c.51 0 .91.414.91.924v.83zm0-4.707c0 .51-.4.924-.91.924h-.73c-.5 0-.91-.42-.91-.93v-.83c0-.51.41-.92.92-.92h.73c.51 0 .91.41.91.92v.83zm4.38 4.707c0 .51-.4.922-.91.922h-.73c-.5 0-.91-.412-.91-.922v-.83c0-.51.41-.924.91-.924h.73c.51 0 .91.414.91.924v.83zm0-4.707c0 .51-.4.924-.91.924h-.73c-.5 0-.91-.42-.91-.93v-.83c0-.51.41-.92.91-.92h.73c.51 0 .91.41.91.92v.83zm0 0" fill="#093367"/><path d="M28.632 94.17h-2.884l-5.82-7.632c-.465-.605-1.323-.716-1.922-.25-.598.47-.708 1.336-.245 1.942l4.54 5.94H9.91l4.532-5.94c.46-.606.35-1.473-.248-1.94-.598-.468-1.458-.357-1.92.248l-5.822 7.63H3.37c-.757 0-1.37.618-1.37 1.384 0 .764.613 1.385 1.37 1.385h.533l2.02 10.168c.1.498.59.906 1.09.906H25.08c.502 0 .993-.4 1.09-.9l2.02-10.17h.444c.753 0 1.367-.62 1.367-1.38 0-.76-.61-1.38-1.36-1.38zm-17.877 9.872c0 .51-.41.922-.91.922h-.732c-.502 0-.91-.412-.91-.922v-.83c0-.51.408-.924.91-.924h.73c.503 0 .912.414.912.924v.83zm0-4.707c0 .51-.41.924-.91.924h-.732c-.502 0-.91-.42-.91-.93v-.83c0-.51.408-.92.91-.92h.73c.503 0 .912.41.912.92v.83zm4.378 4.707c0 .51-.41.922-.91.922h-.732c-.5 0-.91-.412-.91-.922v-.83c0-.51.41-.924.91-.924h.74c.5 0 .91.414.91.924v.83zm0-4.707c0 .51-.41.924-.91.924h-.732c-.5 0-.91-.42-.91-.93v-.83c0-.51.41-.92.91-.92h.74c.5 0 .91.41.91.92v.83zm4.468 4.707c0 .51-.4.922-.91.922h-.73c-.5 0-.91-.412-.91-.922v-.83c0-.51.41-.924.92-.924h.73c.51 0 .91.414.91.924v.83zm0-4.707c0 .51-.4.924-.91.924h-.73c-.5 0-.91-.42-.91-.93v-.83c0-.51.41-.92.92-.92h.73c.51 0 .91.41.91.92v.83zm4.38 4.707c0 .51-.4.922-.91.922h-.73c-.5 0-.91-.412-.91-.922v-.83c0-.51.41-.924.91-.924h.73c.51 0 .91.414.91.924v.83zm0-4.707c0 .51-.4.924-.91.924h-.73c-.5 0-.91-.42-.91-.93v-.83c0-.51.41-.92.91-.92h.73c.51 0 .91.41.91.92v.83zm0 0" fill="#fff"/><path d="M28.632 54.17h-2.884l-5.82-7.632c-.465-.605-1.323-.716-1.922-.25-.598.47-.708 1.336-.245 1.942l4.54 5.94H9.91l4.532-5.94c.46-.606.35-1.473-.248-1.94-.598-.468-1.458-.357-1.92.248l-5.822 7.63H3.37c-.757 0-1.37.618-1.37 1.384 0 .764.613 1.385 1.37 1.385h.533l2.02 10.168c.1.498.59.906 1.09.906H25.08c.502 0 .993-.4 1.09-.9l2.02-10.17h.444c.753 0 1.367-.62 1.367-1.38 0-.76-.61-1.38-1.36-1.38zm-17.877 9.87c0 .51-.41.922-.91.922h-.732c-.502 0-.91-.412-.91-.922v-.83c0-.51.408-.924.91-.924h.73c.503 0 .912.414.912.924v.83zm0-4.707c0 .51-.41.924-.91.924h-.732c-.502 0-.91-.415-.91-.925v-.83c0-.51.408-.922.91-.922h.73c.503 0 .912.413.912.922v.83zm4.378 4.707c0 .51-.41.922-.91.922h-.732c-.5 0-.91-.412-.91-.922v-.83c0-.51.41-.924.91-.924h.74c.5 0 .91.414.91.924v.83zm0-4.707c0 .51-.41.924-.91.924h-.732c-.5 0-.91-.415-.91-.925v-.83c0-.51.41-.922.91-.922h.74c.5 0 .91.413.91.922v.83zM19.6 64.04c0 .51-.405.922-.91.922h-.73c-.5 0-.91-.412-.91-.922v-.83c0-.51.41-.924.912-.924h.73c.504 0 .91.414.91.924v.83zm0-4.707c0 .51-.405.924-.91.924h-.73c-.5 0-.91-.415-.91-.925v-.83c0-.51.41-.922.912-.922h.73c.504 0 .91.413.91.922v.83zm4.38 4.707c0 .51-.407.922-.91.922h-.73c-.506 0-.913-.412-.913-.922v-.83c0-.51.407-.924.91-.924h.732c.5 0 .91.414.91.924v.83zm0-4.707c0 .51-.407.924-.91.924h-.73c-.506 0-.913-.415-.913-.925v-.83c0-.51.407-.922.91-.922h.732c.5 0 .91.413.91.922v.83zm0 0" fill="#67737B"/><path d="M28.632 14.17h-2.884l-5.82-7.632c-.465-.605-1.323-.716-1.922-.25-.598.47-.708 1.336-.245 1.942l4.54 5.94H9.91l4.532-5.94c.46-.606.35-1.473-.248-1.94-.598-.468-1.458-.357-1.92.248l-5.822 7.63H3.37c-.757 0-1.37.618-1.37 1.384 0 .764.613 1.385 1.37 1.385h.533l2.02 10.168c.1.498.59.906 1.09.906H25.08c.502 0 .993-.4 1.09-.9l2.02-10.17h.444c.753 0 1.367-.62 1.367-1.38 0-.76-.61-1.38-1.36-1.38zm-17.877 9.87c0 .51-.41.922-.91.922h-.732c-.502 0-.91-.412-.91-.922v-.83c0-.51.408-.924.91-.924h.73c.503 0 .912.414.912.924v.83zm0-4.707c0 .51-.41.924-.91.924h-.732c-.502 0-.91-.415-.91-.925v-.83c0-.51.408-.922.91-.922h.73c.503 0 .912.413.912.922v.83zm4.378 4.707c0 .51-.41.922-.91.922h-.732c-.5 0-.91-.412-.91-.922v-.83c0-.51.41-.924.91-.924h.74c.5 0 .91.414.91.924v.83zm0-4.707c0 .51-.41.924-.91.924h-.732c-.5 0-.91-.415-.91-.925v-.83c0-.51.41-.922.91-.922h.74c.5 0 .91.413.91.922v.83zM19.6 24.04c0 .51-.405.922-.91.922h-.73c-.5 0-.91-.412-.91-.922v-.83c0-.51.41-.924.912-.924h.73c.504 0 .91.414.91.924v.83zm0-4.707c0 .51-.405.924-.91.924h-.73c-.5 0-.91-.415-.91-.925v-.83c0-.51.41-.922.912-.922h.73c.504 0 .91.413.91.922v.83zm4.38 4.707c0 .51-.407.922-.91.922h-.73c-.506 0-.913-.412-.913-.922v-.83c0-.51.407-.924.91-.924h.732c.5 0 .91.414.91.924v.83zm0-4.707c0 .51-.407.924-.91.924h-.73c-.506 0-.913-.415-.913-.925v-.83c0-.51.407-.922.91-.922h.732c.5 0 .91.413.91.922v.83zm0 0" fill="#3A434E"/></g></svg>