<svg width="32" height="232" viewBox="0 0 32 232" xmlns="http://www.w3.org/2000/svg"><g fill="none"><path d="M16.007 147c-7.552 0-13.47-8.706-13.724-9.073L2 137.504l.283-.424c.246-.37 6.17-9.08 13.724-9.08 7.537 0 13.46 8.71 13.71 9.08l.283.424-.283.423c-.248.367-6.172 9.073-13.71 9.073zm-12.165-9.496c1.266 1.703 6.312 7.975 12.165 7.975 5.842 0 10.885-6.27 12.15-7.98-1.265-1.71-6.308-7.99-12.15-7.99-5.87 0-10.9 6.27-12.165 7.98zm12.165 4.965c-2.74 0-4.965-2.24-4.965-4.97 0-2.74 2.226-4.98 4.965-4.98 2.725 0 4.952 2.23 4.952 4.97 0 2.73-2.23 4.96-4.96 4.96zm-.003-3.56c-.78 0-1.408-.64-1.408-1.41 0-.78.63-1.41 1.408-1.41.772 0 1.403.63 1.403 1.41 0 .77-.63 1.41-1.403 1.41zm.003-4.87c-1.91 0-3.452 1.55-3.452 3.46 0 1.89 1.54 3.44 3.452 3.44 1.895 0 3.435-1.55 3.435-3.45 0-1.91-1.54-3.46-3.435-3.46zm0 0" fill="#206FAC"/><path d="M16.007 107c-7.552 0-13.47-8.706-13.724-9.073L2 97.504l.283-.424C2.53 96.71 8.453 88 16.007 88c7.537 0 13.46 8.71 13.71 9.08l.283.424-.283.423c-.248.367-6.172 9.073-13.71 9.073zM3.842 97.504c1.266 1.703 6.312 7.975 12.165 7.975 5.842 0 10.885-6.27 12.15-7.98-1.265-1.71-6.308-7.99-12.15-7.99-5.87 0-10.9 6.27-12.165 7.98zm12.165 4.965c-2.74 0-4.965-2.24-4.965-4.97 0-2.74 2.226-4.98 4.965-4.98 2.725 0 4.952 2.23 4.952 4.97 0 2.73-2.23 4.96-4.96 4.96zm-.003-3.56c-.78 0-1.408-.64-1.408-1.41 0-.78.63-1.41 1.408-1.41.772 0 1.403.63 1.403 1.41 0 .77-.63 1.41-1.403 1.41zm.003-4.87c-1.91 0-3.452 1.55-3.452 3.46 0 1.89 1.54 3.44 3.452 3.44 1.895 0 3.435-1.55 3.435-3.45 0-1.91-1.54-3.46-3.435-3.46zm0 0" fill="#fff"/><path d="M16.007 67c-7.552 0-13.47-8.706-13.724-9.073L2 57.504l.283-.424C2.53 56.71 8.453 48 16.007 48c7.537 0 13.46 8.71 13.71 9.08l.283.424-.283.423C29.47 58.294 23.545 67 16.007 67zM3.842 57.504c1.266 1.703 6.312 7.975 12.165 7.975 5.842 0 10.885-6.27 12.15-7.98-1.265-1.71-6.308-7.99-12.15-7.99-5.87 0-10.9 6.27-12.165 7.98zm12.165 4.965c-2.74 0-4.965-2.24-4.965-4.97 0-2.74 2.226-4.98 4.965-4.98 2.725 0 4.952 2.23 4.952 4.97 0 2.73-2.23 4.96-4.96 4.96zm-.003-3.56c-.78 0-1.408-.64-1.408-1.41 0-.78.63-1.41 1.408-1.41.772 0 1.403.63 1.403 1.41 0 .77-.63 1.41-1.403 1.41zm.003-4.87c-1.91 0-3.452 1.55-3.452 3.46 0 1.89 1.54 3.44 3.452 3.44 1.895 0 3.435-1.55 3.435-3.45 0-1.91-1.54-3.46-3.435-3.46zm0 0" fill="#67747C"/><path d="M16.007 27c-7.552 0-13.47-8.706-13.724-9.073L2 17.504l.283-.424C2.53 16.71 8.453 8 16.007 8c7.537 0 13.46 8.71 13.71 9.08l.283.424-.283.423C29.47 18.294 23.545 27 16.007 27zM3.842 17.504c1.266 1.703 6.312 7.975 12.165 7.975 5.842 0 10.885-6.27 12.15-7.98-1.265-1.71-6.308-7.99-12.15-7.99-5.87 0-10.9 6.27-12.165 7.98zm12.165 4.965c-2.74 0-4.965-2.24-4.965-4.97 0-2.74 2.226-4.98 4.965-4.98 2.725 0 4.952 2.23 4.952 4.97 0 2.73-2.23 4.96-4.96 4.96zm-.003-3.56c-.78 0-1.408-.64-1.408-1.41 0-.78.63-1.41 1.408-1.41.772 0 1.403.63 1.403 1.41 0 .77-.63 1.41-1.403 1.41zm.003-4.87c-1.91 0-3.452 1.55-3.452 3.46 0 1.89 1.54 3.44 3.452 3.44 1.895 0 3.435-1.55 3.435-3.45 0-1.91-1.54-3.46-3.435-3.46zm0 0" fill="#3B444F"/><path d="M16.007 187c-7.552 0-13.47-8.706-13.724-9.073L2 177.504l.283-.424c.246-.37 6.17-9.08 13.724-9.08 7.537 0 13.46 8.71 13.71 9.08l.283.424-.283.423c-.248.367-6.172 9.073-13.71 9.073zm-12.165-9.496c1.266 1.703 6.312 7.975 12.165 7.975 5.842 0 10.885-6.27 12.15-7.98-1.265-1.71-6.308-7.99-12.15-7.99-5.87 0-10.9 6.27-12.165 7.98zm12.165 4.965c-2.74 0-4.965-2.24-4.965-4.97 0-2.74 2.226-4.98 4.965-4.98 2.725 0 4.952 2.23 4.952 4.97 0 2.73-2.23 4.96-4.96 4.96zm-.003-3.56c-.78 0-1.408-.64-1.408-1.41 0-.78.63-1.41 1.408-1.41.772 0 1.403.63 1.403 1.41 0 .77-.63 1.41-1.403 1.41zm.003-4.87c-1.91 0-3.452 1.55-3.452 3.46 0 1.89 1.54 3.44 3.452 3.44 1.895 0 3.435-1.55 3.435-3.45 0-1.91-1.54-3.46-3.435-3.46zm0 0" fill="#FA5E5B"/></g></svg>