<svg width="32" height="232" viewBox="0 0 32 232" xmlns="http://www.w3.org/2000/svg"><g fill="none"><path d="M16 174.748c-1.29 0-2.33 1.01-2.33 2.252 0 1.243 1.04 2.25 2.33 2.25s2.335-1.007 2.335-2.25c0-1.242-1.046-2.252-2.335-2.252M16 168c-7.73 0-14 9-14 9s6.27 9 14 9 14-9 14-9-6.27-9-14-9m0 14.628c-3.22 0-5.833-2.522-5.833-5.628 0-3.106 2.613-5.627 5.833-5.627 3.222 0 5.833 2.52 5.833 5.627s-2.61 5.628-5.833 5.628" fill="#FA5E5B"/><path d="M16 134.748c-1.29 0-2.33 1.01-2.33 2.252 0 1.243 1.04 2.25 2.33 2.25s2.335-1.007 2.335-2.25c0-1.242-1.046-2.252-2.335-2.252M16 128c-7.73 0-14 9-14 9s6.27 9 14 9 14-9 14-9-6.27-9-14-9m0 14.628c-3.22 0-5.833-2.522-5.833-5.628 0-3.106 2.613-5.627 5.833-5.627 3.222 0 5.833 2.52 5.833 5.627s-2.61 5.628-5.833 5.628" fill="#206FAC"/><path d="M16 94.748c-1.29 0-2.33 1.01-2.33 2.252 0 1.243 1.04 2.25 2.33 2.25s2.335-1.007 2.335-2.25c0-1.242-1.046-2.252-2.335-2.252M16 88c-7.73 0-14 9-14 9s6.27 9 14 9 14-9 14-9-6.27-9-14-9m0 14.628c-3.22 0-5.833-2.522-5.833-5.628 0-3.106 2.613-5.627 5.833-5.627 3.222 0 5.833 2.52 5.833 5.627s-2.61 5.628-5.833 5.628" fill="#fff"/><path d="M16 54.748c-1.29 0-2.33 1.01-2.33 2.252 0 1.243 1.04 2.25 2.33 2.25s2.335-1.007 2.335-2.25c0-1.242-1.046-2.252-2.335-2.252M16 48c-7.73 0-14 9-14 9s6.27 9 14 9 14-9 14-9-6.27-9-14-9m0 14.628c-3.22 0-5.833-2.522-5.833-5.628 0-3.106 2.613-5.627 5.833-5.627 3.222 0 5.833 2.52 5.833 5.627s-2.61 5.628-5.833 5.628" fill="#67747C"/><path d="M16 14.748c-1.29 0-2.33 1.01-2.33 2.252 0 1.243 1.04 2.25 2.33 2.25s2.335-1.007 2.335-2.25c0-1.242-1.046-2.252-2.335-2.252M16 8C8.27 8 2 17 2 17s6.27 9 14 9 14-9 14-9-6.27-9-14-9m0 14.628c-3.22 0-5.833-2.522-5.833-5.628 0-3.106 2.613-5.627 5.833-5.627 3.222 0 5.833 2.52 5.833 5.627s-2.61 5.628-5.833 5.628" fill="#3B444F"/></g></svg>