<svg width="22" height="32" viewBox="0 0 22 32" xmlns="http://www.w3.org/2000/svg"><g fill="none"><path d="M15.5 29.984c0 1.105-2.016 2-4.5 2-2.486 0-4.5-.895-4.5-2 0-1.104 2.014-2 4.5-2 2.484 0 4.5.896 4.5 2" fill-opacity=".2" fill="#1D508D"/><path d="M11 .016c6.077 0 11 4.362 11 10.92 0 6.407-5.55 9.16-8.505 13.256C11.075 27.538 11 30.016 11 30.016s-.02-2.49-2.493-5.824C5.467 20.095 0 17.532 0 10.935 0 4.375 4.925.015 11 .015" fill="#FA5E5B"/><path d="M11.063 9.332c-.666 0-1.2.538-1.2 1.2 0 .662.534 1.2 1.2 1.2.66 0 1.198-.538 1.198-1.2 0-.662-.53-1.2-1.19-1.2m0-3.6c-3.98 0-7.2 4.8-7.2 4.8s3.23 4.8 7.21 4.8 7.2-4.8 7.2-4.8-3.22-4.8-7.2-4.8m0 7.8c-1.66 0-3-1.34-3-3 0-1.655 1.35-3 3.01-3 1.66 0 3 1.345 3 3 0 1.66-1.34 3-3 3" fill="#fff"/></g></svg>