<svg width="32" height="232" viewBox="0 0 32 232" xmlns="http://www.w3.org/2000/svg"><g fill="none"><path d="M16.626 125.192v.84l2.918 2.89v-1.036l7.54-1.19v19.495l-7.54-2.36v-1.14l-2.918 2.89v.44L30 150v-27l-13.374 2.19zm5.736 10.66c0-.52-.196-1.044-.6-1.444l-7.36-7.293c-.8-.79-2.096-.79-2.892 0-.8.79-.8 2.076 0 2.863l3.826 3.794H4.046c-1.127 0-2.045.904-2.045 2.026 0 1.122.92 2.027 2.05 2.027h11.4l-3.93 3.902c-.8.786-.8 2.072 0 2.863.8.79 2.1.79 2.9 0l7.36-7.292c.41-.398.6-.922.6-1.445zm0 0" fill="#206FAC"/><path d="M16.626 85.192v.84l2.918 2.89v-1.036l7.54-1.19v19.495l-7.54-2.36v-1.14l-2.918 2.89v.44L30 110V83l-13.374 2.19zm5.736 10.66c0-.52-.196-1.044-.6-1.444l-7.36-7.293c-.8-.79-2.096-.79-2.892 0-.8.79-.8 2.076 0 2.863l3.826 3.794H4.046C2.92 93.772 2 94.676 2 95.798c0 1.122.92 2.027 2.048 2.027h11.4l-3.937 3.902c-.8.786-.8 2.072 0 2.863.8.79 2.1.79 2.9 0l7.36-7.292c.41-.398.6-.922.6-1.445zm0 0" fill="#fff"/><path d="M16.626 45.192v.84l2.918 2.89v-1.036l7.54-1.19V66.19l-7.54-2.367v-1.14l-2.918 2.89v.442L30 70V43l-13.374 2.19zm5.736 10.66c0-.52-.196-1.044-.6-1.444l-7.36-7.293c-.8-.79-2.096-.79-2.892 0-.8.79-.8 2.076 0 2.863l3.826 3.794H4.046C2.92 53.772 2 54.676 2 55.798c0 1.122.92 2.027 2.048 2.027h11.4l-3.937 3.902c-.8.786-.8 2.072 0 2.863.8.79 2.1.79 2.9 0l7.36-7.292c.41-.398.6-.922.6-1.445zm0 0" fill="#67737B"/><path d="M16.626 5.192v.84l2.918 2.89V7.886l7.54-1.19V26.19l-7.54-2.367v-1.14l-2.918 2.89v.442L30 30V3L16.626 5.19zm5.736 10.66c0-.52-.196-1.044-.6-1.444L14.4 7.115c-.8-.79-2.096-.79-2.892 0-.8.79-.8 2.076 0 2.863l3.826 3.794H4.046C2.92 13.772 2 14.676 2 15.798c0 1.122.92 2.027 2.048 2.027h11.4l-3.937 3.902c-.8.786-.8 2.072 0 2.863.8.79 2.1.79 2.9 0l7.36-7.292c.41-.398.6-.922.6-1.445zm0 0" fill="#3A434E"/></g></svg>