<svg width="32" height="232" viewBox="0 0 32 232" xmlns="http://www.w3.org/2000/svg"><g fill="none"><path d="M16.625 125.192v6.52h2.918v-3.826l7.54-1.19v19.495l-7.54-2.36v-3.93h-2.918v6.12L30 150v-27l-13.375 2.19zm-7.708 12.632h11.398c1.128 0 2.046-.904 2.046-2.027 0-1.12-.91-2.026-2.04-2.026H9.03l3.825-3.79c.802-.78.802-2.07 0-2.86-.797-.79-2.094-.79-2.892 0l-7.353 7.3c-.403.4-.6.93-.6 1.45 0 .53.197 1.05.6 1.45l7.36 7.29c.798.79 2.095.79 2.89 0 .803-.79.803-2.07 0-2.86l-3.935-3.9zm0 0" fill="#206FAC"/><path d="M16.625 85.192v6.52h2.918v-3.826l7.54-1.19v19.495l-7.54-2.36V99.9h-2.918v6.12L30 110V83l-13.375 2.19zM8.917 97.824h11.398c1.128 0 2.046-.904 2.046-2.027 0-1.12-.91-2.026-2.04-2.026H9.03l3.825-3.79c.802-.78.802-2.07 0-2.86-.797-.79-2.094-.79-2.892 0L2.61 94.41c-.403.4-.6.923-.6 1.444 0 .524.197 1.048.6 1.446l7.36 7.29c.798.79 2.095.79 2.89 0 .803-.79.803-2.078 0-2.865l-3.935-3.9zm0 0" fill="#fff"/><path d="M16.625 45.192v6.52h2.918v-3.826l7.54-1.19V66.19l-7.54-2.367v-3.928h-2.918v6.12L30 70V43l-13.375 2.19zM8.917 57.824h11.398c1.128 0 2.046-.904 2.046-2.027 0-1.12-.91-2.026-2.04-2.026H9.03l3.825-3.79c.802-.78.802-2.07 0-2.86-.797-.79-2.094-.79-2.892 0L2.61 54.41c-.403.4-.6.923-.6 1.444 0 .524.197 1.048.6 1.446l7.36 7.29c.798.79 2.095.79 2.89 0 .803-.79.803-2.078 0-2.865l-3.935-3.9zm0 0" fill="#67737B"/><path d="M16.625 5.192v6.52h2.918V7.885l7.54-1.19V26.19l-7.54-2.368v-3.928h-2.918v6.12L30 30V3L16.625 5.19zM8.917 17.824h11.398c1.128 0 2.046-.904 2.046-2.027 0-1.12-.91-2.026-2.04-2.026H9.03l3.825-3.79c.802-.78.802-2.07 0-2.86-.797-.79-2.094-.79-2.892 0L2.61 14.41c-.403.4-.6.923-.6 1.444 0 .524.197 1.048.6 1.446l7.36 7.29c.798.79 2.095.79 2.89 0 .803-.79.803-2.078 0-2.865l-3.935-3.9zm0 0" fill="#3A434E"/></g></svg>