<svg width="32" height="232" viewBox="0 0 32 232" xmlns="http://www.w3.org/2000/svg"><g fill="none"><path d="M22.928 141.215h-7.55l-3.144.483-.234.036-2.195.335-.205.03-2.987.46-.203.03-3.582.55h-.072l-.225.02c-.59.14-1.03.66-1.03 1.29 0 .73.6 1.33 1.33 1.33h10.33c-.18-.29-.29-.63-.29-1 0-1.06.86-1.91 1.91-1.91h4.14l3.35-.71.19.89-3.44.72h-4.23c-.55 0-.99.44-.99 1 0 .54.44.99.98.99h8.19c1.27-.01 2.28-1.03 2.28-2.29 0-1.27-1.02-2.3-2.3-2.3zM2.04 146.702c-.296 0-.54.244-.54.543v.724S1.447 149 2.504 149h26.918c1.062 0 1.008-1.006 1.008-1.006V145.8s-.09-.7-.907-.7h-2.627c-.898 0-1.64 1.602-3.355 1.602H2.04zm23.597-4.867c0-1.34 1.088-2.427 2.428-2.427 1.337 0 2.43 1.086 2.43 2.427 0 1.34-1.093 2.43-2.43 2.43-1.34 0-2.428-1.09-2.428-2.43zm1.12-5.772l-1.343-3.83c-.26-.72-.76-1.285-2.172-1.285h-6.205c-1.412 0-1.912.566-2.174 1.286l-1.344 3.83c-.1.248-.16.802.39 1.174l3.16 2.083c.46.31 1.08.18 1.38-.28.3-.46.18-1.08-.29-1.39l-1.52-1-.99-.65.7-1.95h.98l-.58 1.58 1.9 1.26c.42.28.72.72.82 1.22.1.5 0 1.02-.28 1.44-.12.18-.25.32-.41.44h2.63c-.15-.12-.29-.27-.41-.44-.28-.43-.38-.94-.28-1.44.1-.5.4-.93.82-1.21l1.9-1.25-.57-1.58h.97l.71 1.94-.99.65-1.513 1c-.463.31-.59.93-.286 1.39.3.46.92.59 1.38.28l3.16-2.08c.545-.37.49-.92.39-1.17zm-6.85-11.037c-1.458 0-2.64 1.184-2.64 2.643 0 1.46 1.182 2.64 2.64 2.64 1.46 0 2.646-1.19 2.646-2.65s-1.186-2.65-2.645-2.65zm-8.147-1.467c-1.504.33-2.9 1.19-3.877 2.54-.37.51-.654 1.05-.858 1.61.276.85.39 1.75.334 2.66 1.23-.42 2.36-1.21 3.18-2.35.97-1.35 1.36-2.94 1.21-4.48zm-5.762 2.12c.25.34.467.71.652 1.09.186-.38.4-.75.65-1.09.286-.4.612-.75.964-1.08-.153-1.38-.73-2.63-1.602-3.61-.877.99-1.45 2.24-1.602 3.63.342.31.657.67.938 1.05zm.633 4.9c.16-1.54-.23-3.13-1.21-4.48-.98-1.35-2.37-2.22-3.88-2.55-.15 1.53.24 3.13 1.22 4.47.98 1.35 2.38 2.21 3.88 2.54zm0 0" fill="#206FAC"/><path d="M22.928 101.215h-7.55l-3.144.483-.234.036-2.195.335-.205.03-2.987.46-.203.03-3.582.55h-.072l-.225.02c-.59.14-1.03.66-1.03 1.29 0 .73.6 1.33 1.33 1.33h10.33c-.18-.29-.29-.63-.29-1 0-1.06.86-1.91 1.91-1.91h4.14l3.35-.71.19.89-3.44.72h-4.23c-.55 0-.99.44-.99 1 0 .54.44.99.98.99h8.19c1.27-.01 2.28-1.03 2.28-2.29 0-1.27-1.02-2.3-2.3-2.3zM2.04 106.702c-.296 0-.54.244-.54.543v.724S1.447 109 2.504 109h26.918c1.062 0 1.008-1.006 1.008-1.006V105.8s-.09-.7-.907-.7h-2.627c-.898 0-1.64 1.602-3.355 1.602H2.04zm23.597-4.867c0-1.34 1.088-2.427 2.428-2.427 1.337 0 2.43 1.086 2.43 2.427 0 1.34-1.093 2.43-2.43 2.43-1.34 0-2.428-1.09-2.428-2.43zm1.12-5.772l-1.343-3.83c-.26-.72-.76-1.285-2.172-1.285h-6.205c-1.412 0-1.912.566-2.174 1.286l-1.344 3.83c-.1.248-.16.802.39 1.174l3.16 2.083c.46.31 1.08.18 1.38-.28.3-.46.18-1.08-.29-1.39l-1.52-1-.99-.65.7-1.95h.98l-.58 1.58 1.9 1.26c.42.28.72.72.82 1.22.1.5 0 1.02-.28 1.44-.12.18-.25.32-.41.44h2.63c-.15-.12-.29-.27-.41-.44-.28-.43-.38-.94-.28-1.44.1-.5.4-.93.82-1.21l1.91-1.26-.578-1.58h.976l.71 1.95-.99.66-1.52 1c-.46.31-.59.93-.29 1.39.306.46.93.59 1.386.28l3.16-2.08c.544-.37.49-.92.39-1.17zm-6.85-11.037c-1.458 0-2.64 1.184-2.64 2.643 0 1.46 1.182 2.64 2.64 2.64 1.46 0 2.646-1.19 2.646-2.65s-1.186-2.65-2.645-2.65zM11.76 83.56c-1.504.333-2.9 1.197-3.877 2.546-.37.508-.654 1.054-.858 1.617.276.853.39 1.755.334 2.662 1.23-.42 2.36-1.21 3.18-2.348.97-1.347 1.36-2.942 1.21-4.478zm-5.762 2.124c.25.346.467.715.652 1.092.186-.38.4-.748.65-1.092.286-.393.612-.752.964-1.076-.153-1.378-.73-2.625-1.602-3.608-.877.99-1.45 2.242-1.602 3.63.342.318.657.67.938 1.054zm.633 4.898c.16-1.536-.23-3.13-1.21-4.476-.98-1.35-2.37-2.213-3.88-2.547-.15 1.53.24 3.13 1.22 4.47.98 1.35 2.38 2.21 3.88 2.54zm0 0" fill="#fff"/><path d="M22.928 61.215h-7.55l-3.144.483-.234.036-2.195.335-.205.03-2.987.46-.203.03-3.582.55h-.072l-.225.02c-.59.14-1.03.66-1.03 1.29 0 .73.6 1.33 1.33 1.33h10.33c-.18-.29-.29-.63-.29-1 0-1.06.86-1.91 1.91-1.91h4.14l3.35-.71.19.89-3.44.72h-4.23c-.55 0-.99.44-.99 1 0 .54.44.99.98.99h8.19c1.27-.01 2.28-1.03 2.28-2.29 0-1.27-1.02-2.3-2.3-2.3zM2.04 66.702c-.296 0-.54.244-.54.543v.724S1.447 69 2.504 69h26.918c1.062 0 1.008-1.006 1.008-1.006V65.8s-.09-.7-.907-.7h-2.627c-.898 0-1.64 1.602-3.355 1.602H2.04zm23.597-4.867c0-1.34 1.088-2.427 2.428-2.427 1.337 0 2.43 1.086 2.43 2.427 0 1.34-1.093 2.43-2.43 2.43-1.34 0-2.428-1.09-2.428-2.43zm1.12-5.772l-1.343-3.83c-.26-.72-.76-1.285-2.172-1.285h-6.205c-1.412 0-1.912.566-2.174 1.286l-1.344 3.83c-.1.248-.16.802.39 1.174l3.16 2.083c.46.31 1.08.18 1.38-.28.3-.46.18-1.08-.29-1.39l-1.52-1-.99-.65.7-1.95h.98l-.58 1.58 1.9 1.26c.42.28.72.72.82 1.22.1.5 0 1.02-.28 1.44-.12.18-.25.32-.41.44h2.63c-.15-.12-.29-.27-.41-.44-.28-.43-.38-.94-.28-1.44.1-.5.4-.93.82-1.21l1.91-1.26-.578-1.58h.976l.71 1.95-.99.66-1.52 1c-.46.31-.59.93-.29 1.39.306.46.93.59 1.386.28l3.16-2.08c.544-.37.49-.92.39-1.17zm-6.85-11.037c-1.458 0-2.64 1.184-2.64 2.643 0 1.46 1.182 2.64 2.64 2.64 1.46 0 2.646-1.19 2.646-2.65s-1.186-2.65-2.645-2.65zM11.76 43.56c-1.504.333-2.9 1.197-3.877 2.546-.37.508-.654 1.054-.858 1.617.276.853.39 1.755.334 2.662 1.23-.42 2.36-1.21 3.18-2.348.97-1.347 1.36-2.942 1.21-4.478zm-5.762 2.124c.25.346.467.715.652 1.092.186-.38.4-.748.65-1.092.286-.393.612-.752.964-1.076-.153-1.378-.73-2.625-1.602-3.608-.877.99-1.45 2.242-1.602 3.63.342.318.657.67.938 1.054zm.633 4.898c.16-1.536-.23-3.13-1.21-4.476-.98-1.35-2.37-2.213-3.88-2.547-.15 1.53.24 3.13 1.22 4.47.98 1.35 2.38 2.21 3.88 2.54zm0 0" fill="#67737B"/><path d="M22.928 21.215h-7.55l-3.144.483-.234.036-2.195.335-.205.03-2.987.46-.203.03-3.582.55h-.072l-.225.02c-.59.14-1.03.66-1.03 1.29 0 .73.6 1.33 1.33 1.33h10.33c-.18-.29-.29-.63-.29-1 0-1.06.86-1.91 1.91-1.91h4.14l3.35-.71.19.89-3.44.72h-4.23c-.55 0-.99.44-.99 1 0 .54.44.99.98.99h8.19c1.27-.01 2.28-1.03 2.28-2.29 0-1.27-1.02-2.3-2.3-2.3zM2.04 26.702c-.296 0-.54.244-.54.543v.724S1.447 29 2.504 29h26.918c1.062 0 1.008-1.006 1.008-1.006V25.8s-.09-.7-.907-.7h-2.627c-.898 0-1.64 1.602-3.355 1.602H2.04zm23.597-4.867c0-1.34 1.088-2.427 2.428-2.427 1.337 0 2.43 1.086 2.43 2.427 0 1.34-1.093 2.43-2.43 2.43-1.34 0-2.428-1.09-2.428-2.43zm1.12-5.772l-1.343-3.83c-.26-.72-.76-1.285-2.172-1.285h-6.205c-1.412 0-1.912.566-2.174 1.286l-1.344 3.83c-.1.248-.16.802.39 1.174l3.16 2.083c.46.31 1.08.18 1.38-.28.3-.46.18-1.08-.29-1.39l-1.52-1-.99-.65.7-1.95h.98l-.58 1.58 1.9 1.26c.42.28.72.72.82 1.22.1.5 0 1.02-.28 1.44-.12.18-.25.32-.41.44h2.63c-.15-.12-.29-.27-.41-.44-.28-.43-.38-.94-.28-1.44.1-.5.4-.93.82-1.21l1.91-1.26-.578-1.58h.976l.71 1.95-.99.66-1.52 1c-.46.31-.59.93-.29 1.39.306.46.93.59 1.386.28l3.16-2.08c.544-.37.49-.92.39-1.17zm-6.85-11.037c-1.458 0-2.64 1.184-2.64 2.643 0 1.46 1.182 2.64 2.64 2.64 1.46 0 2.646-1.19 2.646-2.65s-1.186-2.64-2.645-2.64zM11.76 3.56c-1.504.333-2.9 1.197-3.877 2.546-.37.508-.654 1.054-.858 1.617.276.853.39 1.755.334 2.662 1.23-.42 2.36-1.21 3.18-2.348.97-1.347 1.36-2.942 1.21-4.478zM5.998 5.683c.25.346.467.715.652 1.092.186-.38.4-.748.65-1.092.286-.393.612-.752.964-1.076C8.11 3.23 7.534 1.983 6.662 1c-.877.99-1.45 2.242-1.602 3.63.342.318.657.67.938 1.054zm.633 4.898c.16-1.53-.23-3.13-1.21-4.47-.98-1.35-2.37-2.21-3.88-2.54-.15 1.54.24 3.13 1.22 4.48.98 1.35 2.38 2.22 3.88 2.55zm0 0" fill="#3A434E"/></g></svg>