<svg width="32" height="232" viewBox="0 0 32 232" xmlns="http://www.w3.org/2000/svg"><g fill="none"><path d="M20.135 132.43c.913 0 1.786-.19 2.317-.516l-.313-1.588c-.5.3-1.04.477-1.68.477-.98 0-1.63-.625-1.63-1.75 0-1.02.56-1.725 1.57-1.725.55 0 1.17.204 1.67.488l.41-1.573c-.57-.326-1.42-.53-2.31-.53-2.13 0-3.49 1.316-3.49 3.406 0 2.14 1.34 3.31 3.43 3.31zm-7.426-.014c1.71 0 3.17-1.33 3.17-3.418 0-2.01-1.13-3.286-2.7-3.286-.81 0-1.39.45-1.79.857V123l-2.1.258v9.172l1.97-.27c.41.15 1.01.256 1.43.256zm-1.31-4.6c.28-.258.6-.433 1.06-.433.85 0 1.32.637 1.32 1.723 0 1.045-.52 1.75-1.42 1.75-.4 0-.72-.096-.97-.258v-2.782zM2 130.68c0 .977.845 1.75 1.933 1.75.873 0 1.377-.434 1.826-.963h.04c.28.692.96 1.057 2.34.88l.2-1.49c-.44-.042-.52-.082-.52-.517l.01-1.873c.02-1.763-.7-2.755-2.89-2.755-1.2 0-2.25.396-2.92.747l.43 1.53c.73-.37 1.5-.64 2.15-.64.77 0 1.11.29 1.11.96v.12c-2.85.09-3.74 1.05-3.74 2.24zm3.745-.055c-.217.245-.558.42-.98.42-.463 0-.79-.27-.79-.676 0-.56.476-.81 1.77-.96v1.21zM27.182 130l-14.45 14.387-7.753-7.72-2.82 2.807L12.73 150 30 132.805 27.18 130zm0 0" fill="#206FAC"/><path d="M20.135 92.43c.913 0 1.786-.19 2.317-.516l-.313-1.588c-.5.3-1.04.477-1.68.477-.98 0-1.63-.625-1.63-1.75 0-1.02.56-1.725 1.57-1.725.55 0 1.17.204 1.67.488l.41-1.573c-.57-.326-1.42-.53-2.31-.53-2.13 0-3.49 1.316-3.49 3.406 0 2.14 1.34 3.31 3.43 3.31zm-7.426-.014c1.71 0 3.17-1.33 3.17-3.418 0-2.01-1.13-3.286-2.7-3.286-.81 0-1.39.45-1.79.857V83l-2.1.258v9.172l1.97-.27c.41.15 1.01.256 1.43.256zm-1.31-4.6c.28-.258.6-.433 1.06-.433.85 0 1.32.637 1.32 1.723 0 1.045-.52 1.75-1.42 1.75-.4 0-.72-.096-.97-.258v-2.782zM2 90.68c0 .977.845 1.75 1.933 1.75.873 0 1.377-.434 1.826-.963h.04c.28.692.96 1.057 2.34.88l.2-1.49c-.44-.042-.52-.082-.52-.517l.01-1.873c.02-1.763-.7-2.755-2.89-2.755-1.2 0-2.25.396-2.92.747l.43 1.53c.73-.37 1.5-.64 2.15-.64.77 0 1.11.29 1.11.96v.12C2.89 88.52 2 89.48 2 90.68zm3.745-.055c-.217.245-.558.42-.98.42-.463 0-.79-.27-.79-.676 0-.56.476-.81 1.77-.96v1.21zM27.182 90l-14.45 14.387-7.753-7.72-2.82 2.807L12.73 110 30 92.805 27.18 90zm0 0" fill="#fff"/><path d="M20.135 52.43c.913 0 1.786-.19 2.317-.516l-.313-1.588c-.5.3-1.04.477-1.68.477-.98 0-1.63-.625-1.63-1.75 0-1.02.56-1.725 1.57-1.725.55 0 1.17.204 1.67.488l.41-1.573c-.57-.326-1.42-.53-2.31-.53-2.13 0-3.49 1.316-3.49 3.406 0 2.14 1.34 3.31 3.43 3.31zm-7.426-.014c1.71 0 3.17-1.33 3.17-3.418 0-2.01-1.13-3.286-2.7-3.286-.81 0-1.39.45-1.79.857V43l-2.1.258v9.172l1.97-.27c.41.15 1.01.256 1.43.256zm-1.31-4.6c.28-.258.6-.433 1.06-.433.85 0 1.32.637 1.32 1.723 0 1.045-.52 1.75-1.42 1.75-.4 0-.72-.096-.97-.258v-2.782zM2 50.68c0 .977.845 1.75 1.933 1.75.873 0 1.377-.434 1.826-.963h.04c.28.692.96 1.057 2.34.88l.2-1.49c-.44-.042-.52-.082-.52-.517l.01-1.873c.02-1.763-.7-2.755-2.89-2.755-1.2 0-2.25.396-2.92.747l.43 1.53c.73-.37 1.5-.64 2.15-.64.77 0 1.11.29 1.11.96v.12C2.89 48.52 2 49.48 2 50.68zm3.745-.055c-.217.245-.558.42-.98.42-.463 0-.79-.27-.79-.676 0-.56.476-.81 1.77-.96v1.21zM27.182 50l-14.45 14.387-7.753-7.72-2.82 2.807L12.73 70 30 52.805 27.18 50zm0 0" fill="#67737B"/><path d="M20.135 12.43c.913 0 1.786-.19 2.317-.516l-.313-1.588c-.5.3-1.04.477-1.68.477-.98 0-1.63-.625-1.63-1.75 0-1.02.56-1.725 1.57-1.725.55 0 1.17.204 1.67.488l.41-1.573c-.57-.326-1.42-.53-2.31-.53-2.13 0-3.49 1.316-3.49 3.406 0 2.14 1.34 3.31 3.43 3.31zm-7.426-.014c1.71 0 3.17-1.33 3.17-3.418 0-2.01-1.13-3.286-2.7-3.286-.81 0-1.39.45-1.79.857V3l-2.1.258v9.172l1.97-.27c.41.15 1.01.256 1.43.256zm-1.31-4.6c.28-.258.6-.433 1.06-.433.85 0 1.32.637 1.32 1.723 0 1.045-.52 1.75-1.42 1.75-.4 0-.72-.096-.97-.258V7.816zM2 10.68c0 .977.845 1.75 1.933 1.75.873 0 1.377-.434 1.826-.963h.04c.28.692.96 1.057 2.34.88l.2-1.49c-.44-.042-.52-.082-.52-.517l.01-1.873c.02-1.763-.7-2.755-2.89-2.755-1.2 0-2.25.396-2.92.747l.43 1.53c.73-.37 1.5-.64 2.15-.64.77 0 1.11.29 1.11.96v.12C2.89 8.52 2 9.48 2 10.68zm3.745-.055c-.217.245-.558.42-.98.42-.463 0-.79-.27-.79-.676 0-.56.476-.81 1.77-.96v1.21zM27.182 10l-14.45 14.387-7.753-7.72-2.82 2.807L12.73 30 30 12.805 27.18 10zm0 0" fill="#3A434E"/></g></svg>