<svg width="32" height="232" viewBox="0 0 32 232" xmlns="http://www.w3.org/2000/svg"><g fill="none"><path d="M17.164 13.792l1.503.7 2.24-.668v-1.556C20.827 9.623 18.667 7.5 16 7.5c-2.656 0-4.814 2.107-4.908 4.74v7.103c0 .643-.52 1.164-1.164 1.164-.643 0-1.165-.52-1.165-1.164v-3.01H5v3.05C5 22.1 7.2 24.3 9.917 24.3c2.693 0 4.875-2.163 4.913-4.846l.006-7.016c0-.643.52-1.164 1.164-1.164.643 0 1.164.52 1.164 1.164v1.354zm6.072 2.54v3.15c0 .644-.52 1.165-1.164 1.165-.643 0-1.164-.52-1.164-1.164v-3.09l-2.24.668-1.504-.7v3.07c.023 2.7 2.216 4.88 4.918 4.88 2.716 0 4.918-2.2 4.918-4.91v-3.05h-3.764z" fill="#3B444F"/><path d="M17.164 53.792l1.503.7 2.24-.668v-1.556c-.08-2.645-2.24-4.768-4.907-4.768-2.656 0-4.814 2.107-4.908 4.74v7.103c0 .643-.52 1.164-1.164 1.164-.643 0-1.165-.52-1.165-1.164v-3.01H5v3.05C5 62.1 7.2 64.3 9.917 64.3c2.693 0 4.875-2.163 4.913-4.846l.006-7.016c0-.643.52-1.164 1.164-1.164.643 0 1.164.52 1.164 1.164v1.354zm6.072 2.54v3.15c0 .644-.52 1.165-1.164 1.165-.643 0-1.164-.52-1.164-1.164v-3.09l-2.24.668-1.504-.7v3.07c.023 2.7 2.216 4.88 4.918 4.88 2.716 0 4.918-2.2 4.918-4.91v-3.05h-3.764z" fill="#67737B"/><path d="M17.164 93.792l1.503.7 2.24-.668v-1.556c-.08-2.645-2.24-4.768-4.907-4.768-2.656 0-4.814 2.107-4.908 4.74v7.103c0 .643-.52 1.164-1.164 1.164-.643 0-1.165-.52-1.165-1.164v-3.01H5v3.05c0 2.716 2.2 4.918 4.917 4.918 2.693 0 4.875-2.16 4.913-4.84l.006-7.01c0-.64.52-1.16 1.164-1.16.643 0 1.164.52 1.164 1.17v1.35zm6.072 2.54v3.15c0 .644-.52 1.165-1.164 1.165-.643 0-1.164-.52-1.164-1.164v-3.09l-2.24.668-1.504-.7v3.07c.023 2.7 2.216 4.88 4.918 4.88 2.716 0 4.918-2.2 4.918-4.91v-3.05h-3.764z" fill="#fff"/><path d="M17.164 133.792l1.503.7 2.24-.668v-1.556c-.08-2.645-2.242-4.768-4.907-4.768-2.656 0-4.814 2.107-4.908 4.74v7.103c0 .643-.52 1.164-1.164 1.164-.643 0-1.165-.52-1.165-1.164v-3.01H5v3.05c0 2.716 2.2 4.918 4.917 4.918 2.693 0 4.875-2.16 4.913-4.84l.006-7.01c0-.64.52-1.16 1.164-1.16.643 0 1.164.52 1.164 1.17v1.35zm6.072 2.54v3.15c0 .644-.52 1.165-1.164 1.165-.643 0-1.164-.52-1.164-1.164v-3.09l-2.24.668-1.504-.7v3.07c.023 2.7 2.216 4.88 4.918 4.88 2.716 0 4.918-2.2 4.918-4.91v-3.05h-3.764z" fill="#206FAC"/><path d="M17.164 173.792l1.503.7 2.24-.668v-1.556c-.08-2.645-2.242-4.768-4.907-4.768-2.656 0-4.814 2.107-4.908 4.74v7.103c0 .643-.52 1.164-1.164 1.164-.643 0-1.165-.52-1.165-1.164v-3.01H5v3.05c0 2.716 2.2 4.918 4.917 4.918 2.693 0 4.875-2.16 4.913-4.84l.006-7.01c0-.64.52-1.16 1.164-1.16.643 0 1.164.52 1.164 1.17v1.35zm6.072 2.54v3.15c0 .644-.52 1.165-1.164 1.165-.643 0-1.164-.52-1.164-1.164v-3.09l-2.24.668-1.504-.7v3.07c.023 2.7 2.216 4.88 4.918 4.88 2.716 0 4.918-2.2 4.918-4.91v-3.05h-3.764z" fill="#E64011"/></g></svg>