<svg width="32" height="232" viewBox="0 0 32 232" xmlns="http://www.w3.org/2000/svg"><g fill="none"><path d="M13.552 131.188c0-1.176 1.058-1.945 2.604-1.945 2.433 0 3.035.908 4.865.908 1.52 0 2.54-1.07 2.54-2.54 0-2.09-2.54-3.6-7.12-3.6-4.75 0-9.01 2.46-9.01 7.67 0 4.34 3.06 5.55 6.03 6.45 3.25 1.01 5.43 1.38 5.43 3.19 0 1.19-.8 2.26-3.02 2.26-2.92 0-4.76-1.37-6.16-1.37-1.72 0-2.67 1.41-2.67 2.89-.01 2.68 5.07 3.92 8.41 3.92 5.33 0 9.59-2.48 9.59-8 0-4.53-2.99-6.04-6.09-7.02-3.94-1.24-5.35-1.4-5.35-2.79zm0 0" fill="#206FAC"/><path d="M13.552 91.188c0-1.176 1.058-1.945 2.604-1.945 2.433 0 3.035.908 4.865.908 1.52 0 2.54-1.07 2.54-2.54 0-2.09-2.54-3.6-7.12-3.6-4.75 0-9.01 2.46-9.01 7.67 0 4.34 3.06 5.55 6.03 6.45 3.25 1.01 5.43 1.38 5.43 3.19 0 1.19-.8 2.26-3.02 2.26-2.92 0-4.76-1.37-6.16-1.37-1.72 0-2.67 1.41-2.67 2.89-.01 2.68 5.07 3.92 8.41 3.92 5.33 0 9.59-2.48 9.59-8 0-4.53-2.99-6.04-6.09-7.02-3.94-1.24-5.35-1.4-5.35-2.79zm0 0" fill="#fff"/><path d="M13.552 51.188c0-1.176 1.058-1.945 2.604-1.945 2.433 0 3.035.908 4.865.908 1.52 0 2.54-1.07 2.54-2.54 0-2.09-2.54-3.6-7.12-3.6-4.75 0-9.01 2.46-9.01 7.67 0 4.34 3.06 5.55 6.03 6.45 3.25 1.01 5.43 1.38 5.43 3.19 0 1.19-.8 2.26-3.02 2.26-2.92 0-4.76-1.37-6.16-1.37-1.73 0-2.68 1.41-2.68 2.89C7 67.76 12.08 69 15.42 69c5.32 0 9.58-2.484 9.58-7.998 0-4.533-2.993-6.047-6.092-7.02-3.947-1.245-5.356-1.408-5.356-2.794zm0 0" fill="#67737B"/><path d="M13.552 11.188c0-1.176 1.058-1.945 2.604-1.945 2.433 0 3.035.908 4.865.908 1.52 0 2.54-1.07 2.54-2.54 0-2.09-2.54-3.61-7.12-3.61-4.75 0-9.01 2.46-9.01 7.67 0 4.34 3.06 5.55 6.03 6.45 3.25 1.01 5.43 1.38 5.43 3.19 0 1.19-.8 2.26-3.02 2.26-2.92 0-4.76-1.37-6.16-1.37-1.73 0-2.68 1.41-2.68 2.9C7 27.76 12.08 29 15.42 29c5.32 0 9.58-2.484 9.58-7.998 0-4.533-2.993-6.047-6.092-7.02-3.947-1.245-5.356-1.408-5.356-2.794zm0 0" fill="#3A434E"/></g></svg>