<svg width="32" height="232" viewBox="0 0 32 232" xmlns="http://www.w3.org/2000/svg"><g fill="none"><path d="M6.14 136.755c.15-.09.38-.247.79-.52l4.092-2.77c.18-.12.525-.09.68.053l.983.918c.038.026.073.078.07.135l-.083.14-4.482 3.37c-.36.28-.568.67-.564 1.08.004.42.22.81.59 1.07l2.292 1.65c.223.16.533.16.756.01 1.095-.77 2.408-1.16 3.908-1.16 2.61 0 4.91 1.19 4.93 1.2.266.15.588.22.92.22.526 0 1.033-.17 1.384-.49L24 140.2c.323-.286.508-.692.5-1.107 0-.42-.194-.815-.528-1.102l-10.58-9.03c-.603-.51-1.656-.57-2.317-.14l-6.936 4.61c-.17.08-.33.18-.49.32-.79.73-.86 1.96-.16 2.76.64.73 1.84.84 2.63.26zM23.416 127c-2.107 0-3.822 1.717-3.822 3.853s1.715 3.86 3.822 3.86c2.12 0 3.836-1.724 3.836-3.86S25.537 127 23.417 127zM4.17 146.836l.06-.014c.913-.275 2.592.028 3.208.55 1.403 1.208 2.337 1.763 4.168 1.32 1.06-.25 1.794-.875 2.34-1.337l.42-.344c.383-.28.83-.41 1.398-.41l.21.01c.44.01.93.39 1.532.85.74.58 1.658 1.29 3.004 1.52l.158.02.43.03c1.46 0 2.532-.82 3.394-1.49l.053-.05c.844-.66 1.278-.79 1.788-.79l.245.01c.14.01.64.04 1.22.23.114.03.28.07.48.07.954 0 1.722-.76 1.722-1.71 0-.71-.45-1.35-1.115-1.59l-.067-.02c-.773-.26-1.523-.36-2.02-.39-1.97-.15-3.335.69-4.382 1.51l-.1.08c-.515.41-.928.73-1.3.73h-.008c-.415-.07-.868-.42-1.393-.83-.868-.67-1.955-1.51-3.514-1.57h-.28c-1.37 0-2.53.36-3.52 1.11l-.41.33-.16.13c-.32.28-.65.568-.89.63-.47.12-1.12-.16-1.85-.78-1.52-1.287-3.63-1.67-5.73-1.04l-.09.033c-.69.244-1.14.88-1.14 1.61 0 1.1.98 2.01 2.17 1.645zm0 0" fill="#206FAC"/><path d="M6.14 96.755c.15-.09.38-.247.79-.52l4.092-2.77c.18-.12.525-.09.68.053l.983.918c.038.026.073.078.07.135l-.083.14-4.482 3.37c-.36.28-.568.67-.564 1.08.004.42.22.81.59 1.07l2.292 1.65c.223.16.533.16.756.01 1.095-.77 2.408-1.16 3.908-1.16 2.61 0 4.91 1.19 4.93 1.2.266.15.588.22.92.22.526 0 1.033-.17 1.384-.49L24 100.2c.323-.286.508-.692.5-1.107 0-.42-.194-.815-.528-1.102l-10.58-9.03c-.603-.51-1.656-.57-2.317-.14L4.14 93.43c-.17.072-.33.175-.49.32-.79.727-.86 1.96-.16 2.754.647.73 1.84.84 2.638.254zM23.416 87c-2.107 0-3.822 1.717-3.822 3.853s1.715 3.86 3.822 3.86c2.12 0 3.836-1.724 3.836-3.86S25.537 87 23.417 87zM4.17 106.836l.06-.014c.913-.275 2.592.028 3.208.55 1.403 1.208 2.337 1.763 4.168 1.32 1.06-.25 1.794-.875 2.34-1.337l.42-.344c.383-.28.83-.41 1.398-.41l.21.01c.44.01.93.39 1.532.85.74.58 1.658 1.29 3.004 1.52l.158.02.43.03c1.46 0 2.532-.82 3.394-1.49l.053-.05c.844-.66 1.278-.79 1.788-.79l.245.01c.14.01.64.04 1.22.23.114.03.28.07.48.07.954 0 1.722-.76 1.722-1.71 0-.71-.45-1.35-1.115-1.59l-.067-.02c-.773-.26-1.523-.36-2.02-.39-1.97-.15-3.335.69-4.382 1.51l-.1.08c-.515.41-.928.73-1.3.73h-.008c-.415-.07-.868-.42-1.393-.83-.868-.67-1.955-1.51-3.514-1.57h-.28c-1.37 0-2.53.36-3.52 1.11l-.41.33-.16.13c-.32.28-.65.568-.89.63-.47.12-1.12-.16-1.85-.78-1.52-1.287-3.63-1.67-5.73-1.04l-.09.033c-.69.244-1.14.88-1.14 1.61 0 1.1.98 2.01 2.17 1.645zm0 0" fill="#fff"/><path d="M6.14 56.755c.15-.09.38-.247.79-.52l4.092-2.77c.18-.12.525-.09.68.053l.983.918c.038.026.073.078.07.135l-.083.14-4.482 3.37c-.36.28-.568.67-.564 1.08.004.42.22.81.59 1.07l2.292 1.65c.223.16.533.16.756.01 1.095-.77 2.408-1.16 3.908-1.16 2.61 0 4.91 1.19 4.93 1.2.266.15.588.22.92.22.526 0 1.033-.17 1.384-.49L24 60.2c.323-.286.508-.692.5-1.107 0-.42-.194-.815-.528-1.102l-10.58-9.03c-.603-.51-1.656-.57-2.317-.14L4.14 53.43c-.17.072-.33.175-.49.32-.79.727-.86 1.96-.16 2.754.647.73 1.84.84 2.638.254zM23.416 47c-2.107 0-3.822 1.717-3.822 3.853s1.715 3.86 3.822 3.86c2.12 0 3.836-1.724 3.836-3.86S25.537 47 23.417 47zM4.17 66.836l.06-.014c.913-.275 2.592.028 3.208.55 1.403 1.208 2.337 1.763 4.168 1.32 1.06-.25 1.794-.875 2.34-1.337l.42-.344c.383-.28.83-.41 1.398-.41l.21.01c.44.01.93.39 1.532.85.74.58 1.658 1.29 3.004 1.52l.158.02.43.03c1.46 0 2.532-.82 3.394-1.49l.053-.05c.844-.66 1.278-.79 1.788-.79l.245.01c.14.01.64.04 1.22.23.114.03.28.07.48.07.954 0 1.722-.76 1.722-1.71 0-.71-.45-1.35-1.115-1.59l-.067-.02c-.773-.26-1.523-.36-2.02-.39-1.97-.15-3.335.69-4.382 1.51l-.1.08c-.515.41-.928.73-1.3.73h-.008c-.415-.07-.868-.42-1.393-.83-.868-.67-1.955-1.51-3.514-1.57h-.28c-1.37 0-2.53.36-3.52 1.11l-.41.33-.16.13c-.32.28-.65.568-.89.63-.47.12-1.12-.16-1.85-.78-1.52-1.287-3.63-1.67-5.73-1.04l-.09.033c-.69.243-1.15.88-1.15 1.606 0 1.1.98 2.01 2.17 1.65zm0 0" fill="#67737B"/><path d="M6.14 16.755c.15-.09.38-.247.79-.52l4.092-2.77c.18-.12.525-.09.68.053l.983.918c.038.026.073.078.07.135l-.083.14-4.482 3.37c-.36.28-.568.67-.564 1.08.004.42.22.81.59 1.07l2.292 1.65c.223.16.533.16.756.01 1.095-.77 2.408-1.16 3.908-1.16 2.61 0 4.91 1.19 4.93 1.2.266.15.588.22.92.22.526 0 1.033-.17 1.384-.49L24 20.2c.323-.286.508-.692.5-1.107 0-.42-.194-.815-.528-1.102l-10.58-9.03c-.603-.51-1.656-.57-2.317-.14L4.14 13.43c-.17.072-.33.175-.49.32-.79.727-.86 1.96-.157 2.754.646.73 1.84.84 2.637.253zM23.416 7c-2.107 0-3.822 1.717-3.822 3.853s1.715 3.86 3.822 3.86c2.12 0 3.836-1.724 3.836-3.86S25.537 7 23.417 7zM4.17 26.836l.06-.014c.913-.275 2.592.028 3.208.55 1.403 1.208 2.337 1.763 4.168 1.32 1.06-.25 1.794-.875 2.34-1.337l.42-.344c.383-.28.83-.41 1.398-.41l.21.01c.44.01.93.39 1.532.85.74.58 1.658 1.29 3.004 1.52l.158.02.43.03c1.46 0 2.532-.82 3.394-1.49l.053-.05c.844-.66 1.278-.79 1.788-.79l.245.01c.14.01.64.04 1.22.23.114.03.28.07.48.07.954 0 1.722-.76 1.722-1.71 0-.71-.45-1.35-1.115-1.59l-.067-.02c-.773-.26-1.523-.36-2.02-.39-1.97-.15-3.335.69-4.382 1.51l-.1.08c-.515.41-.928.73-1.3.73h-.008c-.415-.07-.868-.42-1.393-.83-.868-.67-1.955-1.51-3.514-1.57h-.28c-1.37 0-2.53.36-3.52 1.11l-.41.33-.16.13c-.32.28-.65.568-.89.63-.47.12-1.12-.16-1.85-.78-1.52-1.287-3.63-1.67-5.73-1.04l-.09.033c-.69.243-1.15.88-1.15 1.606 0 1.1.98 2.01 2.17 1.65zm0 0" fill="#3A434E"/></g></svg>