<svg width="32" height="232" viewBox="0 0 32 232" xmlns="http://www.w3.org/2000/svg"><g fill="none"><path d="M16 172s3.822 11 12.5 11h-25c7.986 0 12.5-11 12.5-11z" fill="#15C98D"/><path d="M16.5 212s3.822 11 12.5 11H4c7.986 0 12.5-11 12.5-11z" fill="#288AD6"/><path d="M16 132s3.822 11 12.5 11h-25c7.986 0 12.5-11 12.5-11z" fill="#206FAC"/><path d="M16 92s3.822 11 12.5 11h-25C11.486 103 16 92 16 92z" fill="#fff"/><path d="M16 52s3.822 11 12.5 11h-25C11.486 63 16 52 16 52z" fill="#67737B"/><path d="M16 12s3.822 11 12.5 11h-25C11.486 23 16 12 16 12z" fill="#3A434E"/></g></svg>