<svg width="32" height="232" viewBox="0 0 32 232" xmlns="http://www.w3.org/2000/svg"><g fill="none"><path d="M21.5 176s-11 3.822-11 12.5v-25c0 7.986 11 12.5 11 12.5zm0 0" fill="#15C98D"/><path d="M21.5 136s-11 3.822-11 12.5v-25c0 7.986 11 12.5 11 12.5zm0 0" fill="#206FAC"/><path d="M21.5 96s-11 3.822-11 12.5v-25c0 7.986 11 12.5 11 12.5zm0 0" fill="#fff"/><path d="M21.5 56s-11 3.822-11 12.5v-25c0 7.986 11 12.5 11 12.5zm0 0" fill="#67737B"/><path d="M21.5 16s-11 3.822-11 12.5v-25c0 7.986 11 12.5 11 12.5zm0 0" fill="#3A434E"/></g></svg>