<svg width="32" height="232" viewBox="0 0 32 232" xmlns="http://www.w3.org/2000/svg"><g fill="none"><path d="M28.5 145.074v-6.9c0-.614-.207-1.125-.615-1.542-.412-.41-.91-.617-1.496-.617h-.5l-2.01-5.626c-.19-.5-.43-.92-.72-1.28s-.69-.53-1.18-.53h-2.67v-1.98c0-.17-.06-.31-.16-.43-.11-.12-.24-.18-.41-.18h-5.52c-.16 0-.3.06-.4.17-.11.12-.16.26-.16.42v1.98h-2.8c-.5 0-.89.18-1.18.55-.29.36-.54.78-.72 1.25l-2 5.62h-.32c-.62 0-1.13.21-1.54.62-.41.41-.62.92-.62 1.54v6.9h1.83c-.03.28-.03.55 0 .79.02.25.03.43.03.55v.14c0 .68.24 1.26.74 1.73.49.47 1.07.71 1.75.71.68 0 1.26-.24 1.76-.71.49-.47.73-1.05.73-1.74v-.14l.01-.41c.01-.15.02-.33.02-.545v-.39H21.4c.023.33.035.625.035.884v.6c0 .68.24 1.26.72 1.73s1.06.71 1.74.71c.704 0 1.3-.24 1.776-.71.48-.47.72-1.05.72-1.733v-.14c0-.12.02-.3.04-.553.03-.24.04-.507.04-.79h2.01zM7.894 138.74c.54 0 1.008.19 1.41.585.397.387.594.865.594 1.432 0 .54-.197 1.013-.595 1.414-.4.41-.868.6-1.41.6-.56 0-1.034-.19-1.422-.6-.38-.4-.58-.87-.58-1.41 0-.57.2-1.04.58-1.43.39-.39.87-.58 1.43-.58zm15.19-3.01H9.092l1.51-4.67h10.97l1.512 4.67zm.738 3.01c.54 0 1.01.19 1.408.585.397.387.596.865.596 1.432 0 .54-.2 1.013-.596 1.414-.398.41-.87.6-1.408.6-.562 0-1.037-.19-1.424-.6-.386-.4-.58-.87-.58-1.41 0-.57.194-1.04.58-1.43.387-.39.862-.58 1.424-.58zm0 0" fill="#206FAC"/><path d="M28.5 105.074v-6.9c0-.614-.207-1.125-.615-1.542-.412-.41-.91-.617-1.496-.617h-.5l-2-5.625c-.19-.5-.43-.92-.72-1.277-.3-.354-.69-.532-1.18-.532h-2.67V86.6c0-.162-.06-.306-.16-.426-.11-.114-.24-.175-.41-.175h-5.52c-.16 0-.3.06-.4.17-.11.12-.16.26-.16.42v1.98H9.86c-.493 0-.886.18-1.18.55-.29.36-.532.78-.72 1.25l-2 5.63h-.316c-.612 0-1.122.2-1.532.61-.41.41-.615.92-.615 1.54v6.9h1.83c-.025.28-.025.55 0 .79.02.25.03.43.03.55v.14c0 .68.247 1.26.74 1.73.494.47 1.078.7 1.757.7.68 0 1.26-.24 1.76-.71.49-.47.73-1.05.73-1.73v-.14l.016-.41c.016-.16.02-.34.02-.55v-.39h11.04c.026.33.038.62.038.88v.6c0 .68.24 1.26.72 1.73s1.06.7 1.74.7c.705 0 1.3-.24 1.777-.71.48-.47.72-1.05.72-1.74v-.14c0-.12.016-.3.04-.554.024-.24.034-.505.034-.79h2.01zM7.894 98.74c.54 0 1.008.19 1.41.585.397.387.594.865.594 1.432 0 .54-.197 1.013-.595 1.414-.4.41-.868.6-1.41.6-.56 0-1.034-.19-1.422-.6-.38-.4-.58-.87-.58-1.41 0-.57.2-1.04.58-1.43.39-.39.87-.58 1.43-.58zm15.19-3.01H9.092l1.51-4.67h10.97l1.512 4.67zm.738 3.01c.54 0 1.01.19 1.408.585.397.387.596.865.596 1.432 0 .54-.2 1.013-.596 1.414-.398.41-.87.6-1.408.6-.562 0-1.037-.19-1.424-.6-.386-.4-.58-.87-.58-1.41 0-.57.194-1.04.58-1.43.387-.39.862-.58 1.424-.58zm0 0" fill="#fff"/><path d="M28.5 65.074v-6.9c0-.614-.207-1.125-.615-1.542-.412-.41-.91-.617-1.496-.617h-.5l-2-5.625c-.19-.5-.43-.92-.72-1.277-.3-.354-.69-.532-1.18-.532h-2.67V46.6c0-.162-.06-.306-.16-.426-.11-.114-.24-.175-.41-.175h-5.52c-.16 0-.3.06-.4.17-.11.12-.16.26-.16.42v1.98H9.86c-.493 0-.886.18-1.18.55-.29.36-.532.78-.72 1.25l-2 5.63h-.316c-.612 0-1.122.2-1.532.61-.41.41-.615.92-.615 1.54v6.9h1.83c-.025.28-.025.55 0 .79.02.25.03.43.03.55v.14c0 .68.247 1.26.74 1.73.494.47 1.078.7 1.757.7.68 0 1.26-.24 1.76-.71.49-.47.73-1.05.73-1.73v-.14l.016-.41c.016-.16.02-.34.02-.55v-.39h11.04c.026.33.038.62.038.88v.6c0 .68.24 1.26.72 1.73s1.06.7 1.74.7c.705 0 1.3-.24 1.777-.71.48-.47.72-1.05.72-1.74v-.14c0-.12.016-.3.04-.554.024-.24.034-.505.034-.79h2.01zM7.894 58.74c.54 0 1.008.19 1.41.585.397.387.594.865.594 1.432 0 .54-.197 1.013-.595 1.414-.4.41-.868.6-1.41.6-.56 0-1.034-.19-1.422-.6-.38-.4-.58-.87-.58-1.41 0-.57.2-1.04.58-1.43.39-.39.87-.58 1.43-.58zm15.19-3.01H9.092l1.51-4.67h10.97l1.512 4.67zm.738 3.01c.54 0 1.01.19 1.408.585.397.387.596.865.596 1.432 0 .54-.2 1.013-.596 1.414-.398.41-.87.6-1.408.6-.562 0-1.037-.19-1.424-.6-.386-.4-.58-.87-.58-1.41 0-.57.194-1.04.58-1.43.387-.39.862-.58 1.424-.58zm0 0" fill="#67737B"/><path d="M28.5 25.074v-6.9c0-.614-.207-1.125-.615-1.542-.412-.41-.91-.617-1.496-.617h-.5l-2-5.625c-.19-.5-.43-.92-.72-1.277-.3-.354-.69-.532-1.18-.532h-2.67V6.6c0-.162-.06-.306-.16-.426-.11-.114-.24-.174-.4-.174h-5.53c-.17 0-.3.06-.41.175-.11.12-.16.264-.16.427v1.98h-2.8c-.5 0-.89.186-1.18.553-.29.364-.54.782-.72 1.254l-2 5.62h-.31c-.62 0-1.13.2-1.54.61-.41.41-.62.93-.62 1.54v6.9h1.83c-.03.28-.03.55 0 .79.02.25.03.43.03.55v.14c0 .68.24 1.26.74 1.73.49.47 1.07.71 1.75.71.68 0 1.27-.24 1.76-.71s.74-1.05.74-1.74v-.14l.02-.41c.02-.16.02-.34.02-.55v-.39h11.04c.03.33.04.62.04.88v.6c0 .68.24 1.26.72 1.73s1.06.71 1.74.71c.71 0 1.3-.24 1.78-.71s.72-1.05.72-1.73v-.14c0-.12.01-.31.04-.56.02-.24.03-.51.03-.79h2zM7.894 18.74c.54 0 1.008.19 1.41.585.397.387.594.865.594 1.432 0 .54-.197 1.013-.595 1.414-.4.41-.868.6-1.41.6-.56 0-1.034-.19-1.422-.6-.38-.4-.58-.87-.58-1.41 0-.57.2-1.04.58-1.43.39-.39.87-.58 1.43-.58zm15.19-3.01H9.092l1.51-4.67h10.97l1.512 4.67zm.738 3.01c.54 0 1.01.19 1.408.585.397.387.596.865.596 1.432 0 .54-.2 1.013-.596 1.414-.398.41-.87.6-1.408.6-.562 0-1.037-.19-1.424-.6-.386-.4-.58-.87-.58-1.41 0-.57.194-1.04.58-1.43.387-.39.862-.58 1.424-.58zm0 0" fill="#3A434E"/></g></svg>