<svg width="32" height="232" viewBox="0 0 32 232" xmlns="http://www.w3.org/2000/svg"><g fill="none"><path d="M19 138.2c0-1 1.6-2.5 1.6-2.5s1.4-1.5 2.4-1.5l2.2 0.5c0.2 0 0.3 0 0.5-0.1c0.2-0.1 0.3-0.1 0.4-0.2 l0.1-0.1l0.1-0.1c0.5-0.6 0.4-1.3-0.1-1.9l-6.1-6.1c-0.5-0.5-1.3-0.5-1.9-0.1l-0.1 0l-0.1 0.1c-0.1 0.1-0.2 0.2-0.2 0.3 c-0.1 0.2-0.1 0.4-0.1 0.5c0 0.7 0.5 1.5 0.5 2.2c0 1-1.5 2.4-1.5 2.4s-1.5 1.6-2.5 1.6c-2-0.1-2.1-0.6-3.7-0.5 c-1.1 0.1-2.1 1.2-2.1 1.2l3.7 4.9l-3.4 3.4l-3.2 4.3l0.1 0.1l4.3-3.2l3.4-3.4l4.9 3.7c0 0 1.2-1 1.3-2.1 C19.5 140.3 19 140.1 19 138.2L19 138.2z" fill="#206FAC"/><path d="M19 98.2c0-1 1.6-2.5 1.6-2.5s1.4-1.5 2.4-1.5l2.2 0.5c0.2 0 0.3 0 0.5-0.1c0.2-0.1 0.3-0.1 0.4-0.2 l0.1-0.1l0.1-0.1c0.5-0.6 0.4-1.3-0.1-1.8L20 86.4c-0.5-0.5-1.3-0.5-1.8-0.1l-0.1 0L18 86.5c-0.1 0.1-0.2 0.2-0.2 0.3 c-0.1 0.2-0.1 0.4-0.1 0.5c0 0.7 0.5 1.5 0.5 2.2c0 1-1.5 2.4-1.5 2.4s-1.5 1.6-2.5 1.6c-2-0.1-2.1-0.6-3.7-0.5 c-1.1 0.1-2.1 1.2-2.1 1.2l3.7 4.9l-3.4 3.4l-3.2 4.3l0.1 0.1l4.3-3.2l3.4-3.4l4.9 3.7c0 0 1.2-1 1.2-2.1 C19.5 100.3 19 100.1 19 98.2L19 98.2z" fill="#FFFFFF"/><path d="M19 58.2c0-1 1.6-2.5 1.6-2.5s1.4-1.5 2.4-1.5l2.2 0.5c0.2 0 0.3 0 0.5-0.1c0.2-0.1 0.3-0.1 0.4-0.2 l0.1-0.1l0.1-0.1c0.5-0.5 0.4-1.3-0.1-1.8L20 46.4c-0.5-0.5-1.3-0.5-1.8-0.1l-0.1 0L18 46.5c-0.1 0.1-0.2 0.2-0.2 0.3 c-0.1 0.2-0.1 0.4-0.1 0.5c0 0.7 0.5 1.5 0.5 2.2c0 1-1.5 2.4-1.5 2.4s-1.5 1.6-2.5 1.6c-2-0.1-2.1-0.6-3.7-0.5 c-1.1 0.1-2.1 1.2-2.1 1.2l3.7 4.9l-3.4 3.4l-3.2 4.3l0.1 0.1l4.3-3.2l3.4-3.4l4.9 3.7c0 0 1.2-1 1.2-2.1 C19.5 60.3 19 60.1 19 58.2L19 58.2z" fill="#67737B"/><path d="M19 18.2c0-1 1.6-2.5 1.6-2.5s1.4-1.5 2.4-1.5l2.2 0.5c0.2 0 0.3 0 0.5-0.1c0.2-0.1 0.3-0.1 0.4-0.2 l0.1-0.1l0.1-0.1c0.5-0.6 0.4-1.3-0.1-1.9L20 6.4c-0.5-0.5-1.3-0.5-1.8-0.1l-0.1 0L18 6.5c-0.1 0.1-0.2 0.2-0.2 0.3 c-0.1 0.2-0.1 0.4-0.1 0.5c0 0.7 0.5 1.5 0.5 2.2c0 1-1.5 2.4-1.5 2.4s-1.5 1.6-2.5 1.6c-2-0.1-2.1-0.6-3.7-0.5 c-1.1 0.1-2.1 1.2-2.1 1.2l3.7 4.9l-3.4 3.4l-3.2 4.3l0.1 0.1l4.3-3.2l3.4-3.4l4.9 3.7c0 0 1.2-1 1.2-2.1 C19.5 20.3 19 20.1 19 18.2L19 18.2z" fill="#3A434E"/></g></svg>