<svg width="32" height="232" viewBox="0 0 32 232" xmlns="http://www.w3.org/2000/svg"><g fill="none"><path d="M14.342 125.514c.246 0 .552.076.933.264 1.683.828 2.047 3.428 2.222 4.504.176 1.076-.547 3.22-.547 3.22s1.922-.02 3.637-.02c.858 0 1.664.004 2.152.02 1.58 2.02.46 3.914-.74 3.914h-.03c.35.174.66.75.66.75s1.25 2.19-1.07 2.795c.03.12 1.27.72 1.03 1.6-.25.88-1.78 1.42-1.78 1.42s.99.64.59 1.41c-.37.71-1.68 1.16-1.68 1.16l-9.02.02c-.22 0-.62-.56-1.09-.56-.13 0-.26.04-.41.15l-.65-11 .31.01H9c1.91-.09 4.086-3.72 4.24-4.71.14-.92.11-3.34.11-3.72 0-.29.13-1.18.97-1.18m0-1.51c-1.59 0-2.45 1.39-2.45 2.7v.19c.01 2.15-.045 2.98-.094 3.3-.2.83-2.01 3.4-2.85 3.44h-.07l-.23-.01-1.65-.09.924 15.47 1.74-1.32c.25.18.603.38 1.065.38l9.015-.01h.25l.23-.08c.43-.15 1.9-.73 2.5-1.87.28-.53.325-1.07.215-1.58.472-.38.902-.88 1.084-1.54.17-.6.11-1.18-.17-1.73.17-.23.29-.45.38-.66.42-1.04.16-2.08-.08-2.68.2-.23.37-.49.5-.78.66-1.41.37-3.12-.76-4.566l-.43-.54-.68-.02c-.45-.01-1.19-.02-2.2-.02l-1.72.008c.11-.66.18-1.36.08-1.94l-.02-.113c-.21-1.31-.7-4.37-3.02-5.51-.57-.28-1.08-.41-1.58-.41" fill="#206FAC"/><path d="M14.342 85.514c.246 0 .552.076.933.264 1.683.828 2.047 3.428 2.222 4.504.176 1.076-.547 3.22-.547 3.22s1.922-.02 3.637-.02c.858 0 1.664.004 2.152.02 1.58 2.02.46 3.914-.74 3.914h-.03c.35.174.66.75.66.75s1.25 2.19-1.07 2.795c.03.12 1.27.72 1.03 1.6-.25.88-1.78 1.42-1.78 1.42s.99.64.59 1.41c-.37.71-1.68 1.16-1.68 1.16l-9.02.02c-.22 0-.62-.56-1.09-.56-.13 0-.26.04-.41.15l-.65-11.01.3.01H9c1.91-.09 4.087-3.72 4.24-4.71.14-.92.11-3.34.11-3.72 0-.29.13-1.18.97-1.18m0-1.51c-1.59 0-2.45 1.39-2.45 2.7l.004.19c.01 2.15-.044 2.98-.093 3.3-.2.83-2.01 3.4-2.85 3.44h-.3l-1.66-.09.93 15.47 1.74-1.32c.25.18.61.38 1.07.38l9.02-.01h.25l.23-.08c.44-.15 1.9-.73 2.5-1.87.28-.533.33-1.08.22-1.58.48-.38.91-.89 1.09-1.54.17-.61.117-1.18-.163-1.73.173-.23.294-.46.38-.66.42-1.04.16-2.08-.084-2.69.2-.23.37-.49.5-.772.66-1.416.37-3.12-.76-4.57l-.43-.54-.68-.02c-.45-.014-1.19-.02-2.2-.02h-1.72c.12-.66.18-1.36.09-1.94l-.02-.11c-.21-1.305-.7-4.365-3.02-5.507-.566-.28-1.08-.414-1.575-.414" fill="#fff"/><path d="M14.342 45.514c.246 0 .552.076.933.264 1.683.828 2.047 3.428 2.222 4.504.176 1.076-.547 3.22-.547 3.22s1.922-.02 3.637-.02c.858 0 1.664.004 2.152.02 1.58 2.02.46 3.914-.74 3.914h-.03c.35.174.66.75.66.75s1.25 2.19-1.07 2.795c.03.12 1.27.72 1.03 1.6-.25.88-1.78 1.42-1.78 1.42s.99.64.59 1.41c-.37.71-1.68 1.16-1.68 1.16l-9.02.02c-.22 0-.62-.56-1.09-.56-.13 0-.26.04-.41.15l-.65-11.01.3.01H9c1.91-.09 4.087-3.72 4.24-4.71.14-.92.11-3.34.11-3.72 0-.29.13-1.18.97-1.18m0-1.51c-1.59 0-2.45 1.39-2.45 2.7l.004.19c.01 2.15-.044 2.98-.093 3.3-.2.83-2.01 3.4-2.85 3.44h-.3l-1.66-.09L7.92 69l1.74-1.318c.25.18.604.374 1.066.374l9.018-.013h.244l.23-.08c.43-.152 1.9-.736 2.49-1.875.28-.538.327-1.08.217-1.58.473-.38.903-.89 1.085-1.54.17-.61.112-1.187-.168-1.73.173-.23.294-.46.38-.667.422-1.04.16-2.07-.084-2.68.198-.23.37-.49.504-.78.66-1.41.374-3.12-.76-4.56l-.427-.55-.68-.02c-.448-.01-1.188-.02-2.198-.02l-1.72.01c.116-.66.18-1.36.085-1.94l-.02-.11c-.21-1.3-.7-4.36-3.02-5.51-.565-.27-1.08-.41-1.574-.41" fill="#67737B"/><path d="M14.342 5.514c.246 0 .552.076.933.264 1.683.828 2.047 3.428 2.222 4.504.176 1.076-.547 3.22-.547 3.22s1.922-.02 3.637-.02c.858 0 1.664.004 2.152.02 1.58 2.02.46 3.914-.74 3.914h-.03c.35.174.66.75.66.75s1.25 2.19-1.07 2.795c.03.12 1.27.72 1.03 1.6-.25.88-1.78 1.42-1.78 1.42s.99.64.59 1.41c-.37.71-1.68 1.16-1.68 1.16l-9.02.02c-.22 0-.62-.56-1.09-.56-.13 0-.26.04-.41.15l-.65-11.01.3.01H9c1.91-.09 4.087-3.72 4.24-4.71.14-.92.11-3.34.11-3.72 0-.29.13-1.18.97-1.18m0-1.51c-1.59 0-2.45 1.39-2.45 2.7l.004.19c.01 2.15-.044 2.98-.093 3.3-.2.83-2.01 3.4-2.85 3.44h-.3l-1.66-.09L7.92 29l1.74-1.318c.25.18.604.374 1.066.374l9.018-.013h.244l.23-.08c.43-.152 1.9-.736 2.49-1.875.28-.538.327-1.08.217-1.58.473-.38.903-.89 1.085-1.54.17-.61.112-1.187-.168-1.73.173-.23.294-.46.38-.667.422-1.04.16-2.07-.084-2.68.198-.23.37-.49.504-.78.66-1.41.374-3.12-.76-4.56l-.427-.55-.68-.02c-.448-.01-1.188-.02-2.198-.02l-1.72.01c.116-.66.18-1.36.085-1.94l-.02-.11c-.21-1.3-.7-4.36-3.02-5.51-.56-.27-1.075-.41-1.57-.41" fill="#3A434E"/></g></svg>