<svg width="32" height="232" viewBox="0 0 32 232" xmlns="http://www.w3.org/2000/svg"><g fill="none"><path d="M8 135.05s.3.016.48.005c2.05-.098 4.385-3.902 4.545-4.936.15-.96.12-3.5.12-3.9 0-.4.234-1.83 2.04-.96 1.807.86 2.198 3.59 2.385 4.71.188 1.12-.586 3.37-.586 3.37s4.637-.05 6.21 0c1.714 2.13.472 4.13-.823 4.09.38.18.72.78.72.78s1.35 2.29-1.14 2.93c.04.11 1.37.74 1.11 1.67-.26.92-1.9 1.48-1.9 1.48s1.07.67.64 1.47c-.39.73-1.79 1.21-1.79 1.21l-9.67.01c-.3 0-.9-.96-1.6-.44L8 135.05" fill="#206FAC"/><path d="M8 95.05s.3.016.48.005c2.05-.098 4.385-3.902 4.545-4.936.15-.96.12-3.5.12-3.9 0-.4.234-1.83 2.04-.96 1.807.86 2.198 3.59 2.385 4.71.188 1.12-.586 3.37-.586 3.37s4.637-.05 6.21 0c1.714 2.13.472 4.13-.823 4.09.38.18.72.78.72.78s1.35 2.29-1.14 2.93c.04.11 1.37.74 1.11 1.67-.26.92-1.9 1.48-1.9 1.48s1.07.67.64 1.47c-.39.73-1.79 1.21-1.79 1.21l-9.67.01c-.3 0-.9-.96-1.6-.44L8 95.05" fill="#fff"/><path d="M8 55.05s.3.016.48.005c2.05-.098 4.385-3.902 4.545-4.936.15-.96.12-3.5.12-3.9 0-.4.234-1.83 2.04-.96 1.807.86 2.198 3.59 2.385 4.71.188 1.12-.586 3.37-.586 3.37s4.637-.05 6.21 0c1.714 2.13.472 4.13-.823 4.09.38.18.72.78.72.78s1.35 2.29-1.14 2.93c.04.11 1.37.74 1.11 1.67-.26.92-1.9 1.48-1.9 1.48s1.07.67.64 1.47c-.4.73-1.8 1.21-1.8 1.21l-9.67.02c-.3 0-.9-.96-1.6-.44L8 55.05" fill="#67737B"/><path d="M8 15.05s.3.016.48.005c2.05-.098 4.385-3.902 4.545-4.936.15-.96.12-3.5.12-3.9 0-.4.234-1.83 2.04-.96 1.807.86 2.198 3.59 2.385 4.71.188 1.12-.586 3.37-.586 3.37s4.637-.05 6.21 0c1.714 2.13.472 4.13-.823 4.09.38.18.72.78.72.78s1.35 2.29-1.14 2.93c.04.11 1.37.74 1.11 1.67-.26.92-1.9 1.48-1.9 1.48s1.07.67.64 1.47c-.4.73-1.8 1.21-1.8 1.21l-9.67.02c-.3 0-.9-.96-1.6-.44L8 15.05" fill="#3A434E"/></g></svg>