<svg width="32" height="232" viewBox="0 0 32 232" xmlns="http://www.w3.org/2000/svg"><g fill="none"><path d="M0 176.37L12.15 189 32 168.37 28.76 165l-16.61 17.264-8.91-9.26L0 176.37" fill="#15C98D"/><path d="M0 136.37L12.15 149 32 128.37 28.76 125l-16.61 17.264-8.91-9.26L0 136.37" fill="#206FAC"/><path d="M0 96.37L12.15 109 32 88.37 28.76 85l-16.61 17.264-8.91-9.26L0 96.37" fill="#fff"/><path d="M0 56.37L12.15 69 32 48.37 28.76 45 12.15 62.264l-8.91-9.26L0 56.37" fill="#67737B"/><path d="M0 16.37L12.15 29 32 8.37 28.76 5 12.15 22.264l-8.91-9.26L0 16.37" fill="#3A434E"/></g></svg>