<svg width="32" height="232" viewBox="0 0 32 232" xmlns="http://www.w3.org/2000/svg"><g fill="none"><path d="M16 149c-6.902 0-12.5-5.596-12.5-12.5S9.098 124 16 124c6.904 0 12.5 5.596 12.5 12.5S22.904 149 16 149zm0-21.642c-5.05 0-9.142 4.09-9.142 9.142 0 5.05 4.093 9.143 9.142 9.143 5.05 0 9.143-4.094 9.143-9.143 0-5.05-4.094-9.142-9.143-9.142zm3.436 13.834l-4.325-4.323v-6.98h1.78v6.23l3.81 3.8-1.25 1.25zm0 0" fill="#206FAC"/><path d="M16 109c-6.902 0-12.5-5.596-12.5-12.5S9.098 84 16 84c6.904 0 12.5 5.596 12.5 12.5S22.904 109 16 109zm0-21.642c-5.05 0-9.142 4.09-9.142 9.142 0 5.05 4.093 9.143 9.142 9.143 5.05 0 9.143-4.094 9.143-9.143 0-5.05-4.094-9.142-9.143-9.142zm3.436 13.834L15.11 96.87v-6.973h1.78v6.234l3.802 3.81-1.256 1.26zm0 0" fill="#fff"/><path d="M16 69C9.098 69 3.5 63.404 3.5 56.5S9.098 44 16 44c6.904 0 12.5 5.596 12.5 12.5S22.904 69 16 69zm0-21.642c-5.05 0-9.142 4.09-9.142 9.142 0 5.05 4.093 9.143 9.142 9.143 5.05 0 9.143-4.094 9.143-9.143 0-5.05-4.094-9.142-9.143-9.142zm3.436 13.834L15.11 56.87v-6.973h1.78v6.234l3.802 3.81-1.256 1.26zm0 0" fill="#67737B"/><path d="M16 29C9.098 29 3.5 23.404 3.5 16.5S9.098 4 16 4c6.904 0 12.5 5.596 12.5 12.5S22.904 29 16 29zm0-21.642c-5.05 0-9.142 4.09-9.142 9.142 0 5.05 4.093 9.143 9.142 9.143 5.05 0 9.143-4.094 9.143-9.143 0-5.05-4.094-9.142-9.143-9.142zm3.436 13.834L15.11 16.87V9.896h1.78v6.234l3.802 3.806-1.256 1.256zm0 0" fill="#3A434E"/></g></svg>