<svg width="32" height="232" viewBox="0 0 32 232" xmlns="http://www.w3.org/2000/svg"><g fill="none"><path d="M7.256 9.465h1.42c.84 0 1.31-.446 1.31-1.114 0-.69-.47-1.11-1.31-1.11H3.31C2.47 7.24 2 7.66 2 8.35c0 .67.468 1.115 1.31 1.115h1.42v7.164c0 .84.53 1.27 1.263 1.27.733 0 1.263-.43 1.263-1.28V9.46zM15.396 7c-3.288 0-5.458 2.167-5.458 5.527 0 3.358 2.17 5.528 5.458 5.528 3.293 0 5.46-2.17 5.46-5.528 0-3.36-2.167-5.527-5.46-5.527zm0 8.826c-1.948 0-2.742-1.62-2.742-3.3s.794-3.294 2.742-3.294c1.95 0 2.745 1.615 2.745 3.295s-.79 3.3-2.74 3.3zm14.57-4.992c0-2.393-1.857-3.598-3.805-3.598h-3.1c-.65 0-1.26.432-1.26 1.205v8.19c0 .85.53 1.28 1.27 1.28s1.27-.43 1.27-1.28v-2.21h1.92c2.4 0 3.73-1.51 3.73-3.58zm-4.29 1.44h-1.358V9.378h1.357c.998 0 1.67.505 1.67 1.456 0 .74-.594 1.44-1.67 1.44zM6.26 24.326c-.357 0-.49.282-1.348.282-.94 0-1.43-.833-1.43-1.803 0-.945.44-1.856 1.55-1.856.53 0 .87.29 1.193.29.355 0 .592-.33.592-.67 0-.73-.99-.97-1.82-.97-1.813 0-2.99 1.34-2.99 3.19.003 1.75 1.07 3.2 2.967 3.2.756 0 1.897-.27 1.897-1.04 0-.18-.06-.65-.6-.65zm5.535-4.63c-.398 0-.685.25-.685.738v1.65H8.554v-1.65c0-.49-.287-.737-.686-.737-.398 0-.683.248-.683.737v4.743c0 .488.285.735.683.735.4 0 .686-.248.686-.735v-1.805h2.558v1.805c0 .488.287.735.685.735.397 0 .686-.248.686-.735v-4.743c0-.49-.29-.737-.686-.737zm4.157-.085c-1.785 0-2.963 1.26-2.963 3.2S14.17 26 15.95 26c1.787 0 2.963-1.256 2.963-3.196s-1.176-3.193-2.963-3.193zm0 5.1c-1.058 0-1.49-.93-1.49-1.9 0-.97.432-1.9 1.49-1.9 1.06 0 1.492.94 1.492 1.91s-.433 1.91-1.492 1.91zm4.158-5.01c-.398 0-.685.25-.685.74v4.75c0 .49.287.74.684.74.4 0 .68-.24.68-.73v-4.75c0-.49-.29-.73-.69-.73zm5.445 4.63c-.357 0-.493.28-1.346.28-.94 0-1.43-.83-1.43-1.8 0-.94.44-1.85 1.55-1.85.53 0 .87.3 1.19.3.35 0 .59-.32.59-.66 0-.73-.99-.97-1.82-.97-1.82 0-2.99 1.34-2.99 3.2 0 1.75 1.06 3.2 2.96 3.2.75 0 1.9-.26 1.9-1.03 0-.18-.07-.64-.61-.64zm3.76.25H27.85v-1.15h1.297c.433 0 .685-.24.685-.64 0-.39-.253-.64-.685-.64H27.85v-1.11h1.415c.43 0 .683-.24.683-.64 0-.39-.253-.65-.683-.65h-2.1c-.355 0-.687.26-.687.7v4.72c0 .45.332.7.687.7h2.153c.43 0 .683-.25.683-.64 0-.4-.25-.64-.68-.64zm0 0" fill="#3A434E"/><path d="M7.256 49.465h1.42c.84 0 1.31-.446 1.31-1.114 0-.69-.47-1.11-1.31-1.11H3.31c-.84 0-1.31.42-1.31 1.12 0 .67.468 1.12 1.31 1.12h1.42v7.17c0 .85.53 1.28 1.263 1.28.733 0 1.263-.43 1.263-1.27v-7.17zM15.396 47c-3.288 0-5.458 2.167-5.458 5.527 0 3.358 2.17 5.528 5.458 5.528 3.293 0 5.46-2.17 5.46-5.528 0-3.36-2.167-5.527-5.46-5.527zm0 8.826c-1.948 0-2.742-1.62-2.742-3.3s.794-3.294 2.742-3.294c1.95 0 2.745 1.615 2.745 3.295s-.79 3.3-2.74 3.3zm14.57-4.992c0-2.393-1.857-3.598-3.805-3.598h-3.1c-.65 0-1.26.432-1.26 1.205v8.19c0 .85.53 1.28 1.27 1.28s1.27-.43 1.27-1.28v-2.21h1.92c2.4 0 3.73-1.51 3.73-3.58zm-4.29 1.44h-1.358v-2.896h1.357c.998 0 1.67.505 1.67 1.456 0 .74-.594 1.44-1.67 1.44zM6.26 64.326c-.357 0-.49.282-1.348.282-.94 0-1.43-.833-1.43-1.803 0-.945.44-1.856 1.55-1.856.53 0 .87.29 1.193.29.355 0 .592-.33.592-.67 0-.73-.99-.97-1.82-.97-1.813 0-2.99 1.34-2.99 3.19.003 1.75 1.07 3.2 2.967 3.2.756 0 1.897-.27 1.897-1.04 0-.18-.06-.65-.6-.65zm5.535-4.63c-.398 0-.685.25-.685.738v1.65H8.554v-1.65c0-.49-.287-.737-.686-.737-.398 0-.683.248-.683.737v4.743c0 .488.285.735.683.735.4 0 .686-.248.686-.735v-1.805h2.558v1.805c0 .488.287.735.685.735.397 0 .686-.248.686-.735v-4.743c0-.49-.29-.737-.686-.737zm4.157-.085c-1.785 0-2.963 1.26-2.963 3.2S14.17 66 15.95 66c1.787 0 2.963-1.256 2.963-3.196s-1.176-3.193-2.963-3.193zm0 5.1c-1.058 0-1.49-.93-1.49-1.9 0-.97.432-1.9 1.49-1.9 1.06 0 1.492.94 1.492 1.91s-.433 1.91-1.492 1.91zm4.158-5.01c-.398 0-.685.25-.685.74v4.75c0 .49.287.74.684.74.4 0 .68-.24.68-.73v-4.75c0-.49-.29-.73-.69-.73zm5.445 4.63c-.357 0-.493.28-1.346.28-.94 0-1.43-.83-1.43-1.8 0-.94.44-1.85 1.55-1.85.53 0 .87.3 1.19.3.35 0 .59-.32.59-.66 0-.73-.99-.97-1.82-.97-1.82 0-2.99 1.34-2.99 3.2 0 1.75 1.06 3.2 2.96 3.2.75 0 1.9-.26 1.9-1.03 0-.18-.07-.64-.61-.64zm3.76.25H27.85v-1.15h1.297c.433 0 .685-.24.685-.64 0-.39-.253-.64-.685-.64H27.85v-1.11h1.415c.43 0 .683-.24.683-.64 0-.39-.253-.65-.683-.65h-2.1c-.355 0-.687.26-.687.7v4.72c0 .45.332.7.687.7h2.153c.43 0 .683-.25.683-.64 0-.4-.25-.64-.68-.64zm0 0" fill="#67737B"/><path d="M7.256 89.465h1.42c.84 0 1.31-.446 1.31-1.114 0-.69-.47-1.11-1.31-1.11H3.31c-.84 0-1.31.42-1.31 1.12 0 .67.468 1.12 1.31 1.12h1.42v7.17c0 .85.53 1.28 1.263 1.28.733 0 1.263-.43 1.263-1.27v-7.17zM15.396 87c-3.288 0-5.458 2.167-5.458 5.527 0 3.358 2.17 5.528 5.458 5.528 3.293 0 5.46-2.17 5.46-5.528 0-3.36-2.167-5.527-5.46-5.527zm0 8.826c-1.948 0-2.742-1.62-2.742-3.3s.794-3.294 2.742-3.294c1.95 0 2.745 1.615 2.745 3.295s-.79 3.3-2.74 3.3zm14.57-4.992c0-2.393-1.857-3.598-3.805-3.598h-3.1c-.65 0-1.26.432-1.26 1.205v8.19c0 .85.53 1.28 1.27 1.28s1.27-.43 1.27-1.28v-2.21h1.92c2.4 0 3.73-1.51 3.73-3.58zm-4.29 1.44h-1.358v-2.896h1.357c.998 0 1.67.505 1.67 1.456 0 .74-.594 1.44-1.67 1.44zM6.26 104.326c-.357 0-.49.282-1.348.282-.94 0-1.43-.833-1.43-1.803 0-.945.44-1.856 1.55-1.856.53 0 .87.29 1.193.29.355 0 .592-.33.592-.67 0-.73-.99-.97-1.82-.97-1.813 0-2.99 1.34-2.99 3.19 0 1.75 1.067 3.19 2.963 3.19.756 0 1.897-.27 1.897-1.04 0-.18-.066-.65-.608-.65zm5.535-4.63c-.398 0-.685.25-.685.738v1.65H8.554v-1.65c0-.49-.287-.737-.686-.737-.398 0-.683.248-.683.737v4.743c0 .488.285.735.683.735.4 0 .686-.248.686-.735v-1.805h2.558v1.805c0 .488.287.735.685.735.397 0 .686-.248.686-.735v-4.743c0-.49-.29-.737-.686-.737zm4.157-.085c-1.785 0-2.963 1.26-2.963 3.2s1.18 3.19 2.96 3.19 2.96-1.25 2.96-3.19-1.18-3.19-2.97-3.19zm0 5.1c-1.058 0-1.49-.93-1.49-1.9 0-.97.432-1.9 1.49-1.9 1.06 0 1.492.94 1.492 1.91s-.433 1.91-1.492 1.91zm4.158-5.01c-.398 0-.685.25-.685.74v4.75c0 .49.287.74.684.74.4 0 .68-.24.68-.73v-4.74c0-.49-.29-.73-.69-.73zm5.445 4.63c-.357 0-.493.28-1.346.28-.94 0-1.43-.83-1.43-1.8 0-.94.44-1.85 1.55-1.85.53 0 .87.3 1.19.3.35 0 .59-.32.59-.66 0-.73-.99-.97-1.82-.97-1.82 0-2.99 1.34-2.99 3.2 0 1.75 1.06 3.2 2.96 3.2.75 0 1.9-.26 1.9-1.03 0-.18-.07-.64-.61-.64zm3.76.25H27.85v-1.14h1.297c.433 0 .685-.25.685-.64s-.253-.64-.685-.64H27.85v-1.11h1.415c.43 0 .683-.24.683-.64 0-.38-.253-.64-.683-.64h-2.1c-.355 0-.687.25-.687.7v4.73c0 .45.332.7.687.7h2.153c.43 0 .683-.25.683-.64 0-.4-.25-.64-.68-.64zm0 0" fill="#fff"/><path d="M7.256 129.465h1.42c.84 0 1.31-.446 1.31-1.114 0-.69-.47-1.11-1.31-1.11H3.31c-.84 0-1.31.42-1.31 1.12 0 .67.468 1.12 1.31 1.12h1.42v7.17c0 .85.53 1.28 1.263 1.28.733 0 1.263-.43 1.263-1.27v-7.16zm8.14-2.465c-3.288 0-5.458 2.167-5.458 5.527 0 3.358 2.17 5.528 5.458 5.528 3.293 0 5.46-2.17 5.46-5.528 0-3.36-2.167-5.527-5.46-5.527zm0 8.826c-1.948 0-2.742-1.62-2.742-3.3s.794-3.294 2.742-3.294c1.95 0 2.745 1.615 2.745 3.295s-.79 3.3-2.74 3.3zm14.57-4.992c0-2.393-1.857-3.598-3.805-3.598h-3.1c-.65 0-1.26.432-1.26 1.205v8.19c0 .85.53 1.28 1.27 1.28s1.27-.43 1.27-1.28v-2.21h1.92c2.4 0 3.73-1.51 3.73-3.58zm-4.29 1.44h-1.358v-2.896h1.357c.998 0 1.67.505 1.67 1.456 0 .74-.594 1.44-1.67 1.44zM6.26 144.326c-.357 0-.49.282-1.348.282-.94 0-1.43-.833-1.43-1.803 0-.945.44-1.856 1.55-1.856.53 0 .87.29 1.193.29.355 0 .592-.33.592-.67 0-.73-.99-.97-1.82-.97-1.813 0-2.99 1.34-2.99 3.19 0 1.75 1.067 3.19 2.963 3.19.756 0 1.897-.27 1.897-1.04 0-.18-.066-.65-.608-.65zm5.535-4.63c-.398 0-.685.25-.685.738v1.65H8.554v-1.65c0-.49-.287-.737-.686-.737-.398 0-.683.248-.683.737v4.743c0 .488.285.735.683.735.4 0 .686-.248.686-.735v-1.805h2.558v1.805c0 .488.287.735.685.735.397 0 .686-.248.686-.735v-4.743c0-.49-.29-.737-.686-.737zm4.157-.085c-1.785 0-2.963 1.26-2.963 3.2s1.18 3.19 2.96 3.19 2.96-1.25 2.96-3.19-1.18-3.19-2.97-3.19zm0 5.1c-1.058 0-1.49-.93-1.49-1.9 0-.97.432-1.9 1.49-1.9 1.06 0 1.492.94 1.492 1.91s-.433 1.91-1.492 1.91zm4.157-5.01c-.4 0-.69.25-.69.74v4.75c0 .49.28.74.68.74s.68-.24.68-.73v-4.74c0-.49-.29-.73-.69-.73zm5.44 4.63c-.36 0-.5.28-1.35.28-.94 0-1.43-.83-1.43-1.8 0-.94.44-1.85 1.55-1.85.53 0 .87.3 1.19.3.35 0 .59-.32.59-.66 0-.73-.99-.97-1.82-.97-1.82 0-2.99 1.34-2.99 3.2 0 1.75 1.06 3.2 2.96 3.2.75 0 1.9-.26 1.9-1.03 0-.18-.07-.64-.61-.64zm3.76.25h-1.46v-1.14h1.29c.43 0 .68-.25.68-.64s-.26-.64-.69-.64h-1.29v-1.11h1.41c.43 0 .68-.24.68-.64 0-.38-.26-.64-.69-.64h-2.1c-.36 0-.69.25-.69.7v4.73c0 .45.33.7.68.7h2.16c.43 0 .68-.25.68-.64 0-.4-.25-.64-.68-.64zm0 0" fill="#206FAC"/></g></svg>