<svg width="59" height="19" viewBox="0 0 59 19" xmlns="http://www.w3.org/2000/svg"><g fill="none"><path d="M0 0l5.588 9.305L0 19h59.034V0H0z" fill="#288AD6"/><path d="M15.16 7.302V6.125H9.23v1.177h2.3V13h1.33V7.302h2.3zm7.755 2.233c0-2.255-1.496-3.575-3.52-3.575-2.035 0-3.542 1.496-3.542 3.62 0 2.254 1.496 3.585 3.53 3.585s3.532-1.507 3.532-3.63zm-1.342.044c0 1.46-.858 2.46-2.167 2.46-1.342 0-2.2-1-2.2-2.51 0-1.47.847-2.46 2.156-2.46 1.342 0 2.21.99 2.21 2.49zm7.657-1.16c0-1.35-.938-2.3-2.84-2.3h-2.22V13h1.34v-2.134l.78-.01c1.85-.012 2.937-.848 2.937-2.432zm-1.345.04c0 .8-.517 1.24-1.54 1.26l-.858.02v-2.5h.813c1.057 0 1.585.41 1.585 1.22zm10.075-.04c0-1.35-.933-2.3-2.836-2.3H32.9V13h1.343v-2.134l.78-.01c1.85-.012 2.938-.848 2.938-2.432zm-1.34.04c0 .8-.516 1.24-1.54 1.26l-.857.02v-2.5h.814c1.056 0 1.584.41 1.584 1.22zM40.483 13V6.125h-1.33V13h1.33zm7.084-6.5c-.594-.33-1.42-.54-2.222-.54-2.145 0-3.586 1.42-3.586 3.62 0 2.254 1.44 3.585 3.55 3.585.78 0 1.64-.21 2.19-.54l-.26-1.23c-.51.35-1.18.615-1.88.615-1.39 0-2.26-.957-2.26-2.475 0-1.496.89-2.42 2.23-2.42.66 0 1.25.187 1.8.55l.42-1.166zm2.54 2.782V6.125h-1.34V13h1.34V9.854h.012L52.71 13h1.64l-2.99-3.498 2.95-3.377h-1.596l-2.596 3.157h-.01z" fill="#fff"/></g></svg>