<svg width="32" height="232" viewBox="0 0 32 232" xmlns="http://www.w3.org/2000/svg"><g fill="none"><path d="M16 189c-7.178 0-13-5.817-13-13 0-7.175 5.822-13 13-13s13 5.825 13 13c0 7.183-5.822 13-13 13zm0-21.742c-4.83 0-8.744 3.913-8.744 8.743s3.914 8.75 8.744 8.75c4.832 0 8.742-3.91 8.742-8.74s-3.91-8.74-8.742-8.74zm1.705 10.452l-7.475 4.06 4.055-7.478 7.22-3.807-3.8 7.225zm-2.682-2.313l-1.86 3.434 3.437-1.86-1.577-1.57zm0 0" fill="#16C98D"/><path d="M16 149c-7.178 0-13-5.817-13-13 0-7.175 5.822-13 13-13s13 5.825 13 13c0 7.183-5.822 13-13 13zm0-21.742c-4.83 0-8.744 3.913-8.744 8.743s3.914 8.75 8.744 8.75c4.832 0 8.742-3.91 8.742-8.74s-3.91-8.74-8.742-8.74zm1.705 10.452l-7.475 4.06 4.055-7.478 7.22-3.807-3.8 7.225zm-2.682-2.313l-1.86 3.434 3.437-1.86-1.577-1.57zm0 0" fill="#206FAC"/><path d="M16 109c-7.178 0-13-5.817-13-13 0-7.175 5.822-13 13-13s13 5.825 13 13c0 7.183-5.822 13-13 13zm0-21.742c-4.83 0-8.744 3.913-8.744 8.743s3.914 8.75 8.744 8.75c4.832 0 8.742-3.91 8.742-8.74s-3.91-8.75-8.742-8.75zm1.705 10.452l-7.475 4.06 4.055-7.478 7.22-3.807-3.8 7.225zm-2.682-2.313l-1.86 3.434 3.437-1.86-1.577-1.57zm0 0" fill="#fff"/><path d="M16 69C8.822 69 3 63.183 3 56c0-7.175 5.822-13 13-13s13 5.825 13 13c0 7.183-5.822 13-13 13zm0-21.742c-4.83 0-8.744 3.913-8.744 8.743S11.17 64.75 16 64.75c4.832 0 8.742-3.914 8.742-8.744S20.832 47.26 16 47.26zm1.705 10.452l-7.475 4.06 4.055-7.478 7.22-3.807-3.8 7.225zm-2.682-2.313l-1.86 3.434 3.437-1.86-1.577-1.57zm0 0" fill="#67747C"/><path d="M16 29C8.822 29 3 23.183 3 16 3 8.826 8.822 3 16 3s13 5.825 13 13c0 7.183-5.822 13-13 13zm0-21.742c-4.83 0-8.744 3.913-8.744 8.743S11.17 24.75 16 24.75c4.832 0 8.742-3.914 8.742-8.744S20.832 7.26 16 7.26zm1.705 10.452l-7.475 4.06 4.055-7.478 7.22-3.807-3.8 7.225zm-2.682-2.313l-1.86 3.434 3.437-1.86-1.577-1.57zm0 0" fill="#3B444F"/></g></svg>