<svg width="22" height="32" viewBox="0 0 22 32" xmlns="http://www.w3.org/2000/svg"><g fill="none"><path d="M15.504 29.984c0 1.105-2.016 2-4.5 2-2.486 0-4.5-.895-4.5-2 0-1.104 2.014-2 4.5-2 2.484 0 4.5.896 4.5 2" fill-opacity=".2" fill="#1D508D"/><path d="M11.004.016c6.075 0 11 4.362 11 10.92 0 6.407-5.55 9.16-8.506 13.256-2.42 3.346-2.494 5.824-2.494 5.824s-.018-2.49-2.495-5.824C5.47 20.095 0 17.532 0 10.935 0 4.375 4.925.015 11 .015" fill="#16C98D"/><path d="M11.004 17.2c3.646 0 6.6-2.953 6.6-6.597C17.604 6.96 14.65 4 11.004 4c-3.646 0-6.6 2.96-6.6 6.603s2.954 6.597 6.6 6.597zm0-11.036c2.453 0 4.437 1.987 4.437 4.44 0 2.45-1.98 4.434-4.43 4.434-2.45 0-4.44-1.985-4.44-4.435 0-2.452 1.99-4.44 4.44-4.44zm.866 5.307l1.93-3.66-3.665 1.93-2.06 3.8 3.795-2.05zm-1.358-1.17l.797.8-1.75.95.95-1.74zm0 0" fill="#fff"/></g></svg>