<svg width="32" height="232" viewBox="0 0 32 232" xmlns="http://www.w3.org/2000/svg"><g fill="none"><path d="M25.655 150.867l-8.033-3.524c-.74-.324-1.955-.336-2.7-.025l-8.567 3.574c-.745.312-1.355-.073-1.355-.854V125.42c0-.78.666-1.42 1.48-1.42h19.04c.815 0 1.48.64 1.48 1.42v24.618c0 .78-.605 1.155-1.345.83zm0 0" fill="#206FAC"/><path d="M25.655 110.867l-8.033-3.524c-.74-.324-1.955-.336-2.7-.025l-8.567 3.574c-.745.312-1.355-.073-1.355-.854V85.42c0-.78.666-1.42 1.48-1.42h19.04c.815 0 1.48.64 1.48 1.42v24.618c0 .78-.605 1.155-1.345.83zm0 0" fill="#fff"/><path d="M25.655 70.867l-8.033-3.524c-.74-.324-1.955-.336-2.7-.025l-8.567 3.574C5.61 71.204 5 70.82 5 70.038V45.42c0-.78.666-1.42 1.48-1.42h19.04c.815 0 1.48.64 1.48 1.42v24.62c0 .78-.605 1.155-1.345.83zm0 0" fill="#67737B"/><path d="M25.655 30.867l-8.033-3.524c-.74-.324-1.955-.336-2.7-.025l-8.567 3.574C5.61 31.204 5 30.82 5 30.038V5.42C5 4.64 5.666 4 6.48 4h19.04c.815 0 1.48.64 1.48 1.42v24.62c0 .78-.605 1.155-1.345.83zm0 0" fill="#3A434E"/></g></svg>