<svg width="32" height="232" viewBox="0 0 32 232" xmlns="http://www.w3.org/2000/svg"><g fill="none"><path d="M11.928 143.73h8.144l3.74 4.52c.266.412.733.672 1.23.672.798 0 1.458-.666 1.458-1.46 0-.304-.097-.607-.273-.847l-2.704-2.884h.245c1.51 0 2.732-1.05 2.732-2.33v-5.96l-1.973-11.11c0-1.28-1.228-2.32-2.734-2.32H9.918c-1.508 0-2.737 1.05-2.737 2.33l-1.59 11.04v6.03c0 1.28 1.23 2.33 2.74 2.33h.16l-2.7 2.88c-.17.24-.27.55-.27.85 0 .8.66 1.46 1.46 1.46.5 0 .96-.26 1.23-.67l3.74-4.52zm-2.363-18.36c0-.645.61-1.155 1.364-1.155h9.84c.75 0 1.36.51 1.36 1.156l1.97 10.29c0 .64-.61 1.17-1.36 1.17H9.32c-.75 0-1.36-.53-1.36-1.17l1.6-10.29zm.447 16.913c-1.157 0-2.1-.955-2.1-2.1 0-1.156.943-2.1 2.1-2.1 1.154 0 2.095.944 2.095 2.1 0 1.145-.94 2.1-2.095 2.1zm12.278 0c-1.15 0-2.092-.955-2.092-2.1 0-1.156.94-2.1 2.092-2.1 1.157 0 2.096.944 2.096 2.1 0 1.145-.94 2.1-2.096 2.1zm0 0" fill="#206FAC"/><path d="M11.928 103.73h8.144l3.74 4.52c.266.412.733.672 1.23.672.798 0 1.458-.666 1.458-1.46 0-.304-.097-.607-.273-.847l-2.704-2.884h.245c1.51 0 2.732-1.05 2.732-2.33v-5.96l-1.973-11.11c0-1.28-1.228-2.32-2.734-2.32H9.918C8.41 82 7.18 83.05 7.18 84.33L5.59 95.37v6.032c0 1.274 1.227 2.33 2.733 2.33h.157l-2.703 2.885c-.177.24-.274.543-.274.846 0 .797.66 1.463 1.46 1.463.495 0 .962-.26 1.227-.672l3.74-4.52zM9.565 85.37c0-.645.61-1.155 1.364-1.155h9.84c.75 0 1.36.51 1.36 1.156l1.97 10.29c0 .64-.61 1.17-1.36 1.17H9.32c-.75 0-1.36-.53-1.36-1.17l1.6-10.29zm.447 16.913c-1.157 0-2.1-.955-2.1-2.1 0-1.156.943-2.1 2.1-2.1 1.154 0 2.095.944 2.095 2.1 0 1.145-.94 2.1-2.095 2.1zm12.278 0c-1.15 0-2.092-.955-2.092-2.1 0-1.156.94-2.1 2.092-2.1 1.157 0 2.096.944 2.096 2.1 0 1.145-.94 2.1-2.096 2.1zm0 0" fill="#fff"/><path d="M11.928 63.73h8.144l3.74 4.52c.266.412.733.672 1.23.672.798 0 1.458-.666 1.458-1.46 0-.304-.097-.607-.273-.847l-2.704-2.884h.245c1.51 0 2.732-1.05 2.732-2.33v-5.96l-1.973-11.11c0-1.28-1.228-2.32-2.734-2.32H9.918C8.41 42 7.18 43.05 7.18 44.33L5.59 55.37v6.03c0 1.274 1.227 2.33 2.733 2.33h.157l-2.703 2.885c-.177.24-.274.543-.274.846 0 .8.66 1.47 1.46 1.47.495 0 .962-.26 1.227-.67l3.74-4.52zM9.565 45.37c0-.645.61-1.155 1.364-1.155h9.84c.75 0 1.36.51 1.36 1.156l1.97 10.29c0 .64-.61 1.17-1.36 1.17H9.32c-.75 0-1.36-.53-1.36-1.17l1.6-10.29zm.447 16.913c-1.157 0-2.1-.955-2.1-2.1 0-1.156.943-2.1 2.1-2.1 1.154 0 2.095.944 2.095 2.1 0 1.145-.94 2.1-2.095 2.1zm12.278 0c-1.15 0-2.092-.955-2.092-2.1 0-1.156.94-2.1 2.092-2.1 1.157 0 2.096.944 2.096 2.1 0 1.145-.94 2.1-2.096 2.1zm0 0" fill="#67737B"/><path d="M11.928 23.73h8.144l3.74 4.52c.266.412.733.672 1.23.672.798 0 1.458-.666 1.458-1.46 0-.304-.097-.607-.273-.847l-2.704-2.884h.245c1.51 0 2.732-1.05 2.732-2.33v-5.96L24.527 4.33C24.527 3.048 23.3 2 21.793 2H9.918C8.41 2 7.18 3.047 7.18 4.328l-1.59 11.04V21.4c0 1.274 1.227 2.33 2.733 2.33h.157l-2.703 2.885c-.177.24-.274.543-.274.846 0 .8.66 1.47 1.46 1.47.495 0 .962-.26 1.227-.67l3.74-4.52zM9.565 5.37c0-.645.61-1.155 1.364-1.155h9.84c.75 0 1.36.51 1.36 1.156l1.97 10.29c0 .64-.61 1.17-1.36 1.17H9.32c-.75 0-1.36-.53-1.36-1.17l1.6-10.29zm.447 16.913c-1.157 0-2.1-.955-2.1-2.1 0-1.156.943-2.1 2.1-2.1 1.154 0 2.095.944 2.095 2.1 0 1.145-.94 2.1-2.095 2.1zm12.278 0c-1.15 0-2.092-.955-2.092-2.1 0-1.156.94-2.1 2.092-2.1 1.157 0 2.096.944 2.096 2.1 0 1.145-.94 2.1-2.096 2.1zm0 0" fill="#3A434E"/></g></svg>