<svg width="32" height="232" viewBox="0 0 32 232" xmlns="http://www.w3.org/2000/svg"><g fill="none"><path d="M23.756 126.68H17.73l.817-2.488h2.764c.61 0 1.1-.494 1.1-1.095 0-.603-.49-1.097-1.09-1.097H10.69c-.603 0-1.094.494-1.094 1.097 0 .6.49 1.095 1.094 1.095h3.263l-.816 2.487H8.244c-1.51 0-2.745 1-2.745 2.23v13.93c0 1.19 1.17 2.17 2.63 2.22l-.99 1.59c-.18.25-.28.55-.28.86 0 .81.65 1.48 1.46 1.48.5 0 .96-.26 1.23-.69l2.01-3.24h8.84l2.01 3.24c.27.43.73.69 1.23.69.81 0 1.46-.67 1.46-1.48 0-.32-.09-.61-.28-.87l-.99-1.6c1.45-.05 2.63-1.03 2.63-2.23V128.9c0-1.227-1.23-2.233-2.74-2.233m-7.76 17.01c-1.16 0-2.1-.9-2.1-2.007 0-1.11.94-2.01 2.1-2.01 1.16 0 2.11.9 2.11 2.01 0 1.106-.95 2.008-2.11 2.008m8.11-6.34c0 .61-.62 1.116-1.37 1.116H9.26c-.75 0-1.37-.507-1.37-1.118v-7.356c0-.61.62-1.116 1.37-1.116h13.47c.76 0 1.37.503 1.37 1.114v7.352" fill="#206FAC"/><path d="M23.756 86.68H17.73l.817-2.488h2.764c.61 0 1.1-.494 1.1-1.095 0-.603-.49-1.097-1.09-1.097H10.69c-.603 0-1.094.494-1.094 1.097 0 .6.49 1.095 1.094 1.095h3.263l-.816 2.487H8.244c-1.51 0-2.745 1-2.745 2.23v13.93c0 1.19 1.17 2.17 2.63 2.22l-.99 1.59c-.18.25-.28.55-.28.86 0 .81.65 1.48 1.46 1.48.5 0 .96-.26 1.23-.69l2.01-3.24h8.84l2.01 3.24c.27.43.73.69 1.23.69.81 0 1.46-.67 1.46-1.48 0-.32-.09-.61-.28-.87l-.99-1.6c1.45-.05 2.63-1.03 2.63-2.23v-13.9c0-1.23-1.23-2.24-2.74-2.24m-7.76 17.01c-1.16 0-2.1-.9-2.1-2.01 0-1.11.94-2.01 2.1-2.01 1.16 0 2.11.9 2.11 2.01 0 1.11-.95 2.01-2.11 2.01m8.11-6.34c0 .61-.62 1.12-1.37 1.12H9.26c-.75 0-1.37-.5-1.37-1.11V90c0-.61.62-1.116 1.37-1.116h13.47c.76 0 1.37.505 1.37 1.116v7.353" fill="#fff"/><path d="M23.756 46.68H17.73l.817-2.488h2.764c.61 0 1.1-.494 1.1-1.095 0-.603-.49-1.097-1.09-1.097H10.69c-.603 0-1.094.494-1.094 1.097 0 .6.49 1.095 1.094 1.095h3.263l-.816 2.487H8.244c-1.51 0-2.745 1-2.745 2.23v13.93c0 1.19 1.17 2.17 2.63 2.22l-.99 1.59c-.18.25-.28.55-.28.86 0 .81.66 1.48 1.47 1.48.5 0 .96-.26 1.23-.69l2.01-3.24h8.84l2.01 3.24c.27.43.73.69 1.23.69.81 0 1.46-.67 1.46-1.48 0-.32-.1-.61-.28-.87l-.99-1.6c1.45-.06 2.63-1.03 2.63-2.23v-13.9c0-1.23-1.23-2.24-2.74-2.24m-7.76 17.01c-1.16 0-2.1-.9-2.1-2.01 0-1.11.94-2.01 2.1-2.01 1.16 0 2.1.9 2.1 2.01 0 1.11-.95 2.01-2.11 2.01m8.11-6.34c0 .61-.62 1.12-1.37 1.12H9.26c-.754 0-1.37-.5-1.37-1.11V50c0-.61.616-1.116 1.37-1.116h13.47c.756 0 1.37.505 1.37 1.116v7.353" fill="#67737B"/><path d="M23.756 6.68H17.73l.817-2.488h2.764c.61 0 1.1-.494 1.1-1.095 0-.603-.49-1.097-1.09-1.097H10.69c-.603 0-1.094.494-1.094 1.097 0 .6.49 1.095 1.094 1.095h3.263L13.14 6.68H8.244C6.734 6.68 5.5 7.684 5.5 8.91v13.93c0 1.195 1.176 2.173 2.63 2.22l-.99 1.598c-.18.254-.274.55-.274.86 0 .814.656 1.482 1.464 1.482.5 0 .964-.255 1.237-.69l2.01-3.238h8.847l2.01 3.238c.275.435.736.69 1.236.69.81 0 1.465-.668 1.465-1.48 0-.312-.095-.608-.276-.862l-.99-1.594c1.45-.052 2.63-1.03 2.63-2.224V8.91c0-1.226-1.24-2.232-2.75-2.232m-7.76 17.01c-1.16 0-2.1-.902-2.1-2.007 0-1.11.94-2.01 2.1-2.01 1.16 0 2.1.9 2.1 2.01 0 1.11-.95 2.01-2.11 2.01m8.11-6.34c0 .61-.62 1.12-1.37 1.12H9.26c-.753 0-1.37-.5-1.37-1.11V10c0-.61.617-1.115 1.37-1.115h13.47c.757 0 1.37.504 1.37 1.115v7.352" fill="#3A434E"/></g></svg>