<svg width="32" height="232" viewBox="0 0 32 232" xmlns="http://www.w3.org/2000/svg"><g fill="none"><path d="M23.754 124H8.248c-1.516 0-2.748 1.108-2.748 2.476v16.907c0 .826.45 1.553 1.138 1.992-.02.564.053 1.096.053 1.36v.1c0 1.198 1 2.165 2.21 2.165 1.22 0 2.22-.967 2.22-2.164v-.1c0-.188.04-.513.06-.87h9.78l.06.87v.1c0 1.197 1 2.164 2.22 2.164 1.22 0 2.22-.967 2.22-2.164v-.1c0-.278.09-.848.06-1.443.61-.45 1.01-1.145 1.01-1.91v-16.907c0-1.368-1.23-2.476-2.74-2.476zM7.89 127.734c0-.685.613-1.232 1.37-1.232h13.48c.754 0 1.367.547 1.367 1.232v9.53c0 .68-.613 1.244-1.367 1.244H9.26c-.757 0-1.37-.564-1.37-1.243v-9.53zm1.895 16.368c-1.164 0-2.102-.948-2.102-2.11 0-1.16.938-2.11 2.102-2.11s2.1.95 2.1 2.11c0 1.162-.936 2.11-2.1 2.11zm12.338 0c-1.168 0-2.11-.948-2.11-2.11 0-1.16.942-2.11 2.11-2.11 1.15 0 2.103.95 2.103 2.11 0 1.162-.953 2.11-2.103 2.11zm0 0" fill="#206FAC"/><path d="M23.754 84H8.248C6.732 84 5.5 85.108 5.5 86.476v16.907c0 .826.45 1.553 1.138 1.992-.02.564.053 1.096.053 1.36v.1c0 1.198 1 2.165 2.21 2.165 1.22 0 2.22-.967 2.22-2.164v-.1c0-.188.04-.513.06-.87h9.78l.06.87v.1c0 1.197 1 2.164 2.22 2.164 1.22 0 2.22-.967 2.22-2.164v-.1c0-.278.09-.848.06-1.443.61-.45 1.01-1.145 1.01-1.91V86.476c0-1.368-1.23-2.476-2.74-2.476zM7.89 87.734c0-.685.613-1.232 1.37-1.232h13.48c.754 0 1.367.547 1.367 1.232v9.53c0 .68-.613 1.244-1.367 1.244H9.26c-.757 0-1.37-.564-1.37-1.243v-9.53zm1.895 16.368c-1.164 0-2.102-.948-2.102-2.11 0-1.16.938-2.11 2.102-2.11s2.1.95 2.1 2.11c0 1.162-.936 2.11-2.1 2.11zm12.338 0c-1.168 0-2.11-.948-2.11-2.11 0-1.16.942-2.11 2.11-2.11 1.15 0 2.103.95 2.103 2.11 0 1.162-.953 2.11-2.103 2.11zm0 0" fill="#fff"/><path d="M23.754 44H8.248C6.732 44 5.5 45.108 5.5 46.476v16.907c0 .826.45 1.553 1.138 1.992-.02.564.053 1.096.053 1.36v.1c0 1.2 1 2.165 2.21 2.165 1.22 0 2.22-.967 2.22-2.164v-.1c0-.188.04-.513.06-.87h9.78l.06.87v.1c0 1.197 1 2.164 2.22 2.164 1.22 0 2.22-.967 2.22-2.164v-.1c0-.278.09-.848.06-1.443.61-.45 1.01-1.145 1.01-1.91V46.476c0-1.368-1.23-2.476-2.74-2.476zM7.89 47.734c0-.685.613-1.232 1.37-1.232h13.48c.754 0 1.367.547 1.367 1.232v9.53c0 .68-.613 1.244-1.367 1.244H9.26c-.757 0-1.37-.564-1.37-1.243v-9.53zm1.895 16.368c-1.164 0-2.102-.948-2.102-2.11 0-1.16.938-2.11 2.102-2.11s2.1.95 2.1 2.11c0 1.162-.936 2.11-2.1 2.11zm12.338 0c-1.168 0-2.11-.948-2.11-2.11 0-1.16.942-2.11 2.11-2.11 1.15 0 2.103.95 2.103 2.11 0 1.162-.953 2.11-2.103 2.11zm0 0" fill="#67737B"/><path d="M23.754 4H8.248C6.732 4 5.5 5.108 5.5 6.476v16.907c0 .826.45 1.553 1.138 1.992-.02.564.053 1.096.053 1.36v.1c0 1.2 1 2.165 2.21 2.165 1.22 0 2.22-.967 2.22-2.164v-.1c0-.188.04-.513.06-.87h9.78l.06.87v.1c0 1.197 1 2.164 2.22 2.164 1.22 0 2.22-.967 2.22-2.164v-.1c0-.278.09-.848.06-1.443.61-.45 1.01-1.145 1.01-1.91V6.476C26.5 5.108 25.27 4 23.76 4zM7.89 7.734c0-.685.613-1.232 1.37-1.232h13.48c.754 0 1.367.547 1.367 1.232v9.53c0 .68-.613 1.244-1.367 1.244H9.26c-.757 0-1.37-.564-1.37-1.243v-9.53zm1.895 16.368c-1.164 0-2.102-.948-2.102-2.11 0-1.16.938-2.11 2.102-2.11s2.1.95 2.1 2.11c0 1.162-.936 2.11-2.1 2.11zm12.338 0c-1.168 0-2.11-.948-2.11-2.11 0-1.16.942-2.11 2.11-2.11 1.15 0 2.103.95 2.103 2.11 0 1.162-.953 2.11-2.103 2.11zm0 0" fill="#3A434E"/></g></svg>