<svg width="32" height="232" viewBox="0 0 32 232" xmlns="http://www.w3.org/2000/svg"><g fill="none"><path d="M25.817 127.646c0-1.335-.96-2.646-2.605-2.646l-14.607.006c-1.645 0-2.605 1.305-2.605 2.64 0 1.298.765 2.636 2.605 2.636l4.624-.004v14.74c0 1.92 1.22 2.982 2.86 2.982s2.87-1.066 2.87-2.982v-14.74l4.24.008c1.83 0 2.6-1.342 2.6-2.64" fill="#206FAC"/><path d="M25.817 87.646c0-1.335-.96-2.646-2.605-2.646l-14.607.006C6.96 85.006 6 86.31 6 87.646c0 1.298.765 2.636 2.605 2.636l4.624-.004v14.74c0 1.92 1.22 2.982 2.86 2.982s2.87-1.066 2.87-2.982v-14.74l4.24.008c1.83 0 2.6-1.342 2.6-2.64" fill="#fff"/><path d="M25.817 47.646c0-1.335-.96-2.646-2.605-2.646l-14.607.006C6.96 45.006 6 46.31 6 47.646c0 1.298.765 2.636 2.605 2.636l4.624-.004v14.74c0 1.92 1.22 2.982 2.86 2.982s2.87-1.066 2.87-2.982v-14.74l4.24.008c1.83 0 2.6-1.342 2.6-2.64" fill="#67747C"/><path d="M25.817 7.646c0-1.335-.96-2.646-2.605-2.646l-14.607.006C6.96 5.006 6 6.31 6 7.646c0 1.298.765 2.636 2.605 2.636l4.624-.004v14.74c0 1.92 1.22 2.982 2.86 2.982s2.87-1.066 2.87-2.982v-14.74l4.24.008c1.83 0 2.6-1.342 2.6-2.64" fill="#3B444F"/></g></svg>