<svg width="32" height="232" viewBox="0 0 32 232" xmlns="http://www.w3.org/2000/svg"><g fill="none"><path d="M25.455 126.093h-4.633v-1.81c0-1.258-1.014-2.283-2.266-2.283h-4.34c-1.254 0-2.27 1.025-2.27 2.284v1.81H6.54c-.85 0-1.54.688-1.54 1.55v.497c0 .86.688 1.56 1.54 1.56h18.914c.85 0 1.545-.69 1.545-1.55v-.49c0-.86-.7-1.55-1.55-1.55zm-6.51 0h-5.122v-1.81c0-.214.178-.395.395-.395h4.34c.213 0 .386.18.386.396v1.81zm5.07 5.564H7.878c-.852 0-1.545.695-1.545 1.552v14.23c0 .85.692 1.55 1.545 1.55h16.137c.847 0 1.542-.7 1.542-1.56V133.2c0-.854-.694-1.55-1.542-1.55zm-12.27 12.676c0 .66-.533 1.194-1.19 1.194H10.4c-.653 0-1.182-.535-1.182-1.194v-8.38c0-.657.53-1.19 1.182-1.19h.154c.66 0 1.19.533 1.19 1.19v8.38zm5.395 0c0 .66-.53 1.194-1.178 1.194h-.16c-.654 0-1.182-.535-1.182-1.194v-8.38c0-.657.53-1.19 1.182-1.19h.16c.65 0 1.178.533 1.178 1.19v8.38zm5.41 0c0 .66-.53 1.194-1.183 1.194h-.16c-.653 0-1.182-.535-1.182-1.194v-8.38c0-.657.53-1.19 1.182-1.19h.16c.652 0 1.184.533 1.184 1.19v8.38zm0 0" fill="#206FAC"/><path d="M25.455 86.093h-4.633v-1.81c0-1.258-1.014-2.283-2.266-2.283h-4.34c-1.254 0-2.27 1.025-2.27 2.284v1.81H6.54c-.85 0-1.54.688-1.54 1.55v.497c0 .86.688 1.56 1.54 1.56h18.914c.85 0 1.545-.69 1.545-1.55v-.49c0-.86-.7-1.55-1.55-1.55zm-6.51 0h-5.122v-1.81c0-.214.178-.395.395-.395h4.34c.213 0 .386.18.386.396v1.81zm5.07 5.564H7.878c-.852 0-1.545.695-1.545 1.552v14.23c0 .85.692 1.55 1.545 1.55h16.137c.847 0 1.542-.7 1.542-1.56V93.2c0-.854-.694-1.55-1.542-1.55zm-12.27 12.676c0 .66-.533 1.194-1.19 1.194H10.4c-.653 0-1.182-.535-1.182-1.194v-8.38c0-.657.53-1.19 1.182-1.19h.154c.66 0 1.19.533 1.19 1.19v8.38zm5.395 0c0 .66-.53 1.194-1.178 1.194h-.16c-.654 0-1.182-.535-1.182-1.194v-8.38c0-.657.53-1.19 1.182-1.19h.16c.65 0 1.178.533 1.178 1.19v8.38zm5.41 0c0 .66-.53 1.194-1.183 1.194h-.16c-.653 0-1.182-.535-1.182-1.194v-8.38c0-.657.53-1.19 1.182-1.19h.16c.652 0 1.184.533 1.184 1.19v8.38zm0 0" fill="#fff"/><path d="M25.455 46.093h-4.633v-1.81c0-1.258-1.014-2.283-2.266-2.283h-4.34c-1.254 0-2.27 1.025-2.27 2.284v1.81H6.54c-.85 0-1.54.688-1.54 1.55v.497c0 .86.688 1.56 1.54 1.56h18.914c.85 0 1.545-.69 1.545-1.55v-.49c0-.86-.7-1.55-1.55-1.55zm-6.51 0h-5.122v-1.81c0-.214.178-.395.395-.395h4.34c.213 0 .386.18.386.396v1.81zm5.07 5.564H7.878c-.852 0-1.545.695-1.545 1.552v14.23c0 .85.692 1.55 1.545 1.55h16.137c.847 0 1.542-.7 1.542-1.56V53.2c0-.854-.694-1.55-1.542-1.55zm-12.27 12.676c0 .66-.533 1.194-1.19 1.194H10.4c-.653 0-1.182-.535-1.182-1.194v-8.38c0-.657.53-1.19 1.182-1.19h.154c.66 0 1.19.533 1.19 1.19v8.38zm5.395 0c0 .66-.53 1.194-1.178 1.194h-.16c-.654 0-1.182-.535-1.182-1.194v-8.38c0-.657.53-1.19 1.182-1.19h.16c.65 0 1.178.533 1.178 1.19v8.38zm5.41 0c0 .66-.53 1.194-1.183 1.194h-.16c-.653 0-1.182-.535-1.182-1.194v-8.38c0-.657.53-1.19 1.182-1.19h.16c.652 0 1.184.533 1.184 1.19v8.38zm0 0" fill="#67737B"/><path d="M25.455 6.093h-4.633v-1.81C20.822 3.026 19.808 2 18.556 2h-4.34c-1.254 0-2.27 1.025-2.27 2.284v1.81H6.54c-.85 0-1.54.688-1.54 1.55v.497C5 9 5.687 9.7 6.54 9.7h18.914C26.304 9.698 27 9 27 8.142v-.496c0-.86-.696-1.55-1.547-1.55zm-6.51 0h-5.122v-1.81c0-.214.178-.395.395-.395h4.34c.213 0 .386.18.386.396v1.81zm5.07 5.564H7.878c-.852 0-1.545.695-1.545 1.552v14.23c0 .85.692 1.55 1.545 1.55h16.137c.847 0 1.542-.7 1.542-1.56V13.2c0-.854-.694-1.55-1.542-1.55zm-12.27 12.676c0 .66-.533 1.194-1.19 1.194H10.4c-.653 0-1.182-.535-1.182-1.194v-8.38c0-.657.53-1.19 1.182-1.19h.154c.66 0 1.19.533 1.19 1.19v8.38zm5.395 0c0 .66-.53 1.194-1.178 1.194h-.16c-.654 0-1.182-.535-1.182-1.194v-8.38c0-.657.53-1.19 1.182-1.19h.16c.65 0 1.178.533 1.178 1.19v8.38zm5.41 0c0 .66-.53 1.194-1.183 1.194h-.16c-.653 0-1.182-.535-1.182-1.194v-8.38c0-.657.53-1.19 1.182-1.19h.16c.652 0 1.184.533 1.184 1.19v8.38zm0 0" fill="#3A434E"/></g></svg>