<svg width="32" height="232" viewBox="0 0 32 232" xmlns="http://www.w3.org/2000/svg"><g fill="none"><path d="M27.734 135.227H26.1c-.97-4.7-5.12-8.227-10.1-8.227-4.984.005-9.137 3.532-10.1 8.227H4.266c-.424 0-.766.268-.766.596v3.008c0 .33.342.6.766.6h1.63c.963 4.69 5.12 8.22 10.104 8.22 4.984 0 9.135-3.52 10.102-8.21h1.632c.426 0 .766-.27.766-.59v-3c0-.33-.34-.59-.766-.59zM16 143.952c-2.932-.006-5.408-1.9-6.285-4.527h12.568c-.88 2.628-3.36 4.52-6.283 4.527zm-6.283-8.725c.877-2.634 3.353-4.537 6.283-4.545 2.924.008 5.404 1.91 6.283 4.545H9.717zm0 0" fill="#206FAC"/><path d="M27.734 95.227H26.1C25.13 90.527 20.98 87 16 87c-4.984.005-9.137 3.532-10.1 8.227H4.266c-.424 0-.766.268-.766.596v3.008c0 .33.342.6.766.6h1.63c.963 4.69 5.12 8.22 10.104 8.22 4.984 0 9.135-3.52 10.102-8.21h1.632c.426 0 .766-.27.766-.59v-3.01c0-.33-.34-.59-.766-.59zM16 103.952c-2.932-.006-5.408-1.9-6.285-4.527h12.568c-.88 2.628-3.36 4.52-6.283 4.527zm-6.283-8.725c.877-2.634 3.353-4.537 6.283-4.545 2.924.008 5.404 1.91 6.283 4.545H9.717zm0 0" fill="#fff"/><path d="M27.734 55.227H26.1C25.13 50.527 20.98 47 16 47c-4.984.005-9.137 3.532-10.1 8.227H4.266c-.424 0-.766.268-.766.596v3.008c0 .33.342.6.766.6h1.63c.964 4.69 5.12 8.22 10.104 8.22 4.984 0 9.135-3.52 10.102-8.21h1.632c.426 0 .766-.27.766-.59v-3.01c0-.33-.34-.59-.766-.59zM16 63.952c-2.932-.006-5.408-1.9-6.285-4.527h12.568c-.88 2.628-3.36 4.52-6.283 4.527zm-6.283-8.725c.877-2.634 3.353-4.537 6.283-4.545 2.924.008 5.404 1.91 6.283 4.545H9.717zm0 0" fill="#67737B"/><path d="M27.734 15.227H26.1C25.13 10.527 20.98 7 16 7c-4.984.005-9.137 3.532-10.1 8.227H4.266c-.424 0-.766.268-.766.596v3.008c0 .33.342.6.766.6h1.63c.964 4.69 5.12 8.22 10.104 8.22 4.984 0 9.135-3.52 10.102-8.21h1.632c.426 0 .766-.27.766-.59v-3.01c0-.33-.34-.59-.766-.59zM16 23.952c-2.932-.006-5.408-1.9-6.285-4.527h12.568c-.88 2.628-3.36 4.52-6.283 4.527zm-6.283-8.725c.877-2.634 3.353-4.537 6.283-4.545 2.924.008 5.404 1.91 6.283 4.545H9.717zm0 0" fill="#3A434E"/></g></svg>