<svg width="32" height="232" viewBox="0 0 32 232" xmlns="http://www.w3.org/2000/svg"><path fill="#3A434E" d="M13.9 6.1c-.1 1.1-.3 1.9-.7 2.6-.3.7-.8 1.3-1.3 1.7-.5.5-1.3.9-2 1.1v2.9H12v7c0 .9.1 1.6.3 2.1.2.5.5.9 1.1 1.4.5.4 1.1.7 1.8 1 .7.2 1.5.3 2.5.3.8 0 1.6-.1 2.3-.3.7-.1 1.5-.5 2.3-.9v-3c-1 .7-2 1-3.1 1-.6 0-1.1-.1-1.5-.4-.3-.2-.6-.5-.7-.8-.1-.3-.2-1.1-.2-2.3v-5.2h4.8v-3.1h-4.8V6.1h-2.9z"/><path fill="#67737B" d="M13.9 46.1c-.1 1.1-.3 1.9-.7 2.6-.3.7-.8 1.3-1.3 1.7-.5.5-1.3.9-2 1.1v2.9H12v7c0 .9.1 1.6.3 2.1.2.5.5.9 1.1 1.4.5.4 1.1.7 1.8 1 .7.2 1.5.3 2.5.3.8 0 1.6-.1 2.3-.3.7-.1 1.5-.5 2.3-.9v-3c-1 .7-2 1-3.1 1-.6 0-1.1-.1-1.5-.4-.3-.2-.6-.5-.7-.8-.1-.3-.2-1.1-.2-2.3v-5.2h4.8v-3.1h-4.8v-5.1h-2.9z"/><path fill="#206FAC" d="M13.9 126.2c-.1 1.1-.3 1.9-.7 2.6-.3.7-.8 1.3-1.3 1.7-.5.5-1.3.9-2 1.1v2.9H12v7c0 .9.1 1.6.3 2.1.2.5.5.9 1.1 1.4.5.4 1.1.7 1.8 1 .7.2 1.5.3 2.5.3.8 0 1.6-.1 2.3-.3.7-.1 1.5-.5 2.3-.9V142c-1 .7-2 1-3.1 1-.6 0-1.1-.1-1.5-.4-.3-.2-.6-.5-.7-.8-.1-.3-.2-1.1-.2-2.3v-5.2h4.8v-3.1h-4.8v-5.1h-2.9z"/><path fill="#fff" d="M13.9 86.1c-.1 1.1-.3 1.9-.7 2.6-.3.7-.8 1.3-1.3 1.7-.5.5-1.3.9-2 1.1v2.9H12v7c0 .9.1 1.6.3 2.1.2.5.5.9 1.1 1.4.5.4 1.1.7 1.8 1 .7.2 1.5.3 2.5.3.8 0 1.6-.1 2.3-.3.7-.1 1.5-.5 2.3-.9v-3c-1 .7-2 1-3.1 1-.6 0-1.1-.1-1.5-.4-.3-.2-.6-.5-.7-.8-.1-.3-.2-1.1-.2-2.3v-5.2h4.8v-3.1h-4.8v-5.1h-2.9z"/><path fill="#2C4762" d="M13.9 166.1c-.1 1.1-.3 1.9-.7 2.6-.3.7-.8 1.3-1.3 1.7-.5.5-1.3.9-2 1.1v2.9H12v7c0 .9.1 1.6.3 2.1.2.5.5.9 1.1 1.4.5.4 1.1.7 1.8 1 .7.2 1.5.3 2.5.3.8 0 1.6-.1 2.3-.3.7-.1 1.5-.5 2.3-.9v-3c-1 .7-2 1-3.1 1-.6 0-1.1-.1-1.5-.4-.3-.2-.6-.5-.7-.8-.1-.3-.2-1.1-.2-2.3v-5.2h4.8v-3.1h-4.8v-5.1h-2.9z"/></svg>