<svg width="32" height="232" viewBox="0 0 32 232" xmlns="http://www.w3.org/2000/svg"><g fill="none"><path d="M24.406 9.504c.933-.594 1.648-1.533 1.984-2.654-.872.55-1.838.948-2.866 1.164C22.7 7.08 21.528 6.5 20.23 6.5c-2.49 0-4.513 2.146-4.513 4.796 0 .377.04.742.117 1.093-3.75-.2-7.076-2.12-9.302-5.02-.388.71-.61 1.53-.61 2.41 0 1.66.795 3.13 2.008 3.99-.742-.03-1.437-.24-2.045-.6v.06c0 2.32 1.555 4.26 3.62 4.7-.38.11-.778.16-1.19.16-.29 0-.574-.03-.85-.09.576 1.9 2.242 3.29 4.217 3.33-1.545 1.28-3.49 2.05-5.605 2.05-.366 0-.725-.02-1.078-.07 1.99 1.36 4.37 2.15 6.92 2.15 8.3 0 12.84-7.31 12.84-13.65l-.02-.62c.88-.68 1.64-1.52 2.25-2.48-.81.38-1.68.64-2.6.75z" fill="#3A434E"/><path d="M24.406 49.504c.933-.594 1.648-1.533 1.984-2.654-.872.55-1.838.948-2.866 1.164-.824-.933-1.996-1.514-3.294-1.514-2.49 0-4.513 2.146-4.513 4.796 0 .377.04.742.117 1.093-3.75-.2-7.076-2.12-9.302-5.02-.388.71-.61 1.53-.61 2.41 0 1.66.795 3.13 2.008 3.99-.742-.03-1.437-.24-2.045-.6v.06c0 2.32 1.555 4.26 3.62 4.7-.38.11-.778.16-1.19.16-.29 0-.574-.03-.85-.09.576 1.9 2.242 3.29 4.217 3.33-1.545 1.28-3.49 2.05-5.605 2.05-.366 0-.725-.02-1.078-.07 1.99 1.36 4.37 2.15 6.92 2.15 8.3 0 12.84-7.31 12.84-13.65l-.02-.62c.88-.68 1.64-1.52 2.25-2.48-.81.38-1.68.64-2.6.75z" fill="#67737B"/><path d="M24.406 89.504c.933-.594 1.648-1.533 1.984-2.654-.872.55-1.838.948-2.866 1.164-.824-.933-1.996-1.514-3.294-1.514-2.49 0-4.513 2.146-4.513 4.796 0 .377.04.742.117 1.093-3.75-.2-7.076-2.12-9.302-5.02-.388.71-.61 1.53-.61 2.41 0 1.66.795 3.13 2.008 3.99-.742-.03-1.437-.24-2.045-.6v.06c0 2.32 1.555 4.26 3.62 4.7-.38.11-.778.16-1.19.16-.29 0-.574-.03-.85-.09.576 1.9 2.242 3.29 4.217 3.33-1.545 1.28-3.49 2.05-5.605 2.05-.366 0-.725-.02-1.078-.07 1.99 1.36 4.37 2.15 6.92 2.15 8.3 0 12.84-7.31 12.84-13.65l-.02-.62c.88-.68 1.64-1.52 2.25-2.48-.81.38-1.68.64-2.6.75z" fill="#fff"/><path d="M24.406 129.504c.933-.594 1.648-1.533 1.984-2.654-.872.55-1.838.948-2.866 1.164-.824-.933-1.996-1.514-3.294-1.514-2.49 0-4.513 2.146-4.513 4.796 0 .377.04.742.117 1.093-3.75-.2-7.076-2.12-9.302-5.02-.388.71-.61 1.53-.61 2.41 0 1.66.795 3.13 2.008 3.99-.742-.03-1.437-.24-2.045-.6v.06c0 2.32 1.555 4.26 3.62 4.7-.38.11-.778.16-1.19.16-.29 0-.574-.03-.85-.09.576 1.9 2.242 3.29 4.217 3.33-1.545 1.28-3.49 2.05-5.605 2.05-.366 0-.725-.02-1.078-.07 1.99 1.36 4.37 2.15 6.92 2.15 8.3 0 12.84-7.31 12.84-13.65l-.02-.62c.88-.68 1.64-1.52 2.25-2.48-.81.38-1.68.64-2.6.75z" fill="#206FAC"/><path d="M24.406 169.504c.933-.594 1.648-1.533 1.984-2.654-.872.55-1.838.948-2.866 1.164-.824-.933-1.996-1.514-3.294-1.514-2.49 0-4.513 2.146-4.513 4.796 0 .377.04.742.117 1.093-3.75-.2-7.076-2.12-9.302-5.02-.388.71-.61 1.53-.61 2.41 0 1.66.795 3.13 2.008 3.99-.742-.03-1.437-.24-2.045-.6v.06c0 2.32 1.555 4.26 3.62 4.7-.38.11-.778.16-1.19.16-.29 0-.574-.03-.85-.09.576 1.9 2.242 3.29 4.217 3.33-1.545 1.28-3.49 2.05-5.605 2.05-.366 0-.725-.02-1.078-.07 1.99 1.36 4.37 2.15 6.92 2.15 8.3 0 12.84-7.31 12.84-13.65l-.02-.62c.88-.68 1.64-1.52 2.25-2.48-.81.38-1.68.64-2.6.75z" fill="#00ACED"/></g></svg>