<svg width="32" height="232" viewBox="0 0 32 232" xmlns="http://www.w3.org/2000/svg"><g fill="none"><path d="M22.836 146.406c-1.957 1.8-4.728 2.594-7.37 2.594-2.63 0-5.4-.783-7.34-2.594C6.288 144.692 5.5 142.36 5.5 139.9V124h5.852v15.33c0 1.262.236 2.703 1.093 3.707.745.858 1.93 1.08 3.02 1.08 1.146 0 2.4-.25 3.112-1.208.762-1.01.978-2.36.978-3.58V124H25.5v15.9c0 2.466-.817 4.794-2.663 6.506zm0 0" fill="#206FAC"/><path d="M22.836 106.406c-1.957 1.8-4.728 2.594-7.37 2.594-2.63 0-5.4-.783-7.34-2.594C6.288 104.692 5.5 102.36 5.5 99.9V84h5.852v15.33c0 1.262.236 2.703 1.093 3.707.745.858 1.93 1.08 3.02 1.08 1.146 0 2.4-.25 3.112-1.208.762-1.01.978-2.36.978-3.58V84H25.5v15.9c0 2.466-.817 4.794-2.663 6.506zm0 0" fill="#fff"/><path d="M22.836 66.406C20.88 68.206 18.108 69 15.466 69c-2.63 0-5.4-.783-7.34-2.594C6.288 64.692 5.5 62.36 5.5 59.9V44h5.852v15.33c0 1.262.236 2.703 1.093 3.707.745.858 1.93 1.08 3.02 1.08 1.146 0 2.4-.25 3.112-1.208.762-1.01.978-2.36.978-3.58V44H25.5v15.9c0 2.466-.817 4.794-2.663 6.506zm0 0" fill="#67737B"/><path d="M22.836 26.406C20.88 28.206 18.108 29 15.466 29c-2.63 0-5.4-.783-7.34-2.594C6.288 24.692 5.5 22.36 5.5 19.9V4h5.852v15.33c0 1.262.236 2.703 1.093 3.707.745.858 1.93 1.08 3.02 1.08 1.146 0 2.4-.25 3.112-1.208.762-1.01.978-2.36.978-3.58V4H25.5v15.9c0 2.466-.817 4.794-2.663 6.506zm0 0" fill="#3A434E"/></g></svg>