<svg width="32" height="232" viewBox="0 0 32 232" xmlns="http://www.w3.org/2000/svg"><g fill="none"><path d="M19.724 131.217v3.21s.006 2.44-1.627 3.352c0 0-.118.71-.023.67.09-.05-.282 3.23 2.556 3.64 2.836.41 4.942 2.16 5.475 2.67.535.5.895 4.23.895 4.23H5s-.028-3.04.9-4.24c.535-.51 3.16-2.25 5.998-2.67 2.834-.42 1.886-3.55 1.98-3.5.09.05-.026-.67-.026-.67s-1.573-1.98-1.55-3.76c.024-1.79 0-2.95 0-2.95s-.057-4.23 2.845-4.23l1.786.78c2.606 0 2.79 3.45 2.79 3.45zm0 0" fill="#206FAC"/><path d="M19.724 91.217v3.21s.006 2.44-1.627 3.352c0 0-.118.71-.023.67.09-.05-.282 3.23 2.556 3.64 2.836.41 4.942 2.16 5.475 2.67.535.5.895 4.23.895 4.23H5s-.028-3.04.9-4.24c.535-.51 3.16-2.25 5.998-2.67 2.834-.42 1.886-3.55 1.98-3.5.09.05-.026-.67-.026-.67s-1.573-1.98-1.55-3.76c.024-1.79 0-2.95 0-2.95s-.057-4.23 2.845-4.23l1.786.78c2.606 0 2.79 3.45 2.79 3.45zm0 0" fill="#fff"/><path d="M19.724 51.217v3.21s.006 2.44-1.627 3.352c0 0-.118.71-.023.67.09-.05-.282 3.23 2.556 3.64 2.836.41 4.942 2.16 5.475 2.67C26.64 65.27 27 69 27 69H5s-.028-3.04.9-4.234c.535-.508 3.16-2.252 5.998-2.67 2.834-.416 1.886-3.547 1.98-3.5.09.048-.026-.67-.026-.67s-1.573-1.976-1.55-3.758c.024-1.782 0-2.95 0-2.95s-.057-4.23 2.845-4.23l1.786.78c2.606 0 2.79 3.45 2.79 3.45zm0 0" fill="#67737B"/><path d="M19.724 11.217v3.21s.006 2.44-1.627 3.352c0 0-.118.71-.023.67.09-.05-.282 3.23 2.556 3.64 2.836.41 4.942 2.16 5.475 2.67C26.64 25.27 27 29 27 29H5s-.028-3.04.9-4.234c.535-.508 3.16-2.252 5.998-2.67 2.834-.416 1.886-3.547 1.98-3.5.09.048-.026-.67-.026-.67s-1.573-1.976-1.55-3.758c.024-1.782 0-2.95 0-2.95s-.057-4.23 2.845-4.23l1.786.78c2.606 0 2.79 3.45 2.79 3.45zm0 0" fill="#3A434E"/></g></svg>