<svg width="32" height="232" viewBox="0 0 32 232" xmlns="http://www.w3.org/2000/svg"><g fill="none"><path d="M28.452 149h-24.9c-1.96 0-3.55-1.607-3.55-3.586v-17.828C0 125.608 1.59 124 3.55 124h24.9c1.956 0 3.548 1.608 3.548 3.586v17.828c0 1.98-1.592 3.586-3.548 3.586zm-24.9-23.166c-.96 0-1.736.785-1.736 1.752v17.828c0 .97.778 1.752 1.737 1.752h24.9c.955 0 1.733-.783 1.733-1.752v-17.828c0-.967-.778-1.752-1.734-1.752h-24.9zm8.158 4.266v12.8l10.564-6.402L11.71 130.1zm2 3.564l4.677 2.834-4.676 2.832v-5.666zm0 0" fill="#206FAC"/><path d="M28.452 109h-24.9c-1.96 0-3.55-1.607-3.55-3.586V87.586C0 85.608 1.59 84 3.55 84h24.9c1.958 0 3.55 1.608 3.55 3.586v17.828c0 1.98-1.592 3.586-3.548 3.586zm-24.9-23.166c-.96 0-1.736.785-1.736 1.752v17.828c0 .97.778 1.752 1.737 1.752h24.9c.955 0 1.733-.783 1.733-1.752V87.586c0-.967-.778-1.752-1.734-1.752h-24.9zM11.71 90.1v12.8l10.564-6.4-10.564-6.4zm2 3.564l4.677 2.834-4.676 2.832v-5.666zm0 0" fill="#fff"/><path d="M28.452 69h-24.9c-1.96 0-3.55-1.607-3.55-3.586V47.586C0 45.608 1.59 44 3.55 44h24.9c1.958 0 3.55 1.608 3.55 3.586v17.828C32 67.394 30.408 69 28.452 69zm-24.9-23.166c-.96 0-1.736.785-1.736 1.752v17.828c0 .97.778 1.752 1.737 1.752h24.9c.955 0 1.733-.783 1.733-1.752V47.586c0-.967-.778-1.752-1.734-1.752h-24.9zM11.71 50.1v12.8l10.564-6.4-10.564-6.4zm2 3.564l4.677 2.834-4.676 2.832v-5.666zm0 0" fill="#67737B"/><path d="M28.452 29h-24.9c-1.96 0-3.55-1.607-3.55-3.586V7.586C0 5.608 1.59 4 3.55 4h24.9C30.408 4 32 5.608 32 7.586v17.828C32 27.394 30.408 29 28.452 29zM3.552 5.834c-.96 0-1.736.785-1.736 1.752v17.828c0 .97.778 1.752 1.737 1.752h24.9c.955 0 1.733-.783 1.733-1.752V7.586c0-.967-.778-1.752-1.734-1.752h-24.9zM11.71 10.1v12.8l10.564-6.4-10.564-6.4zm2 3.564l4.677 2.834-4.676 2.832v-5.666zm0 0" fill="#3A434E"/></g></svg>