<svg width="32" height="232" viewBox="0 0 32 232" xmlns="http://www.w3.org/2000/svg"><g fill="none"><path d="M23.68 16.126c-2.776 0-4.913-1.94-4.913-5.31 0-1.652.638-2.512 1.542-2.512.85 0 1.43.77 1.43 2.336 0 .89-.24 1.862-.42 2.44 0 0 .85 1.493 3.19 1.034.5-1.102.76-2.53.76-3.782C25.28 6.96 23.57 5 20.41 5c-3.232 0-5.13 2.49-5.13 5.772 0 3.252 1.52 6.043 4.03 7.315-1.053 2.108-2.395 3.966-3.794 5.366-2.54-3.068-4.835-7.162-5.776-15.15H6c1.73 13.305 6.886 17.54 8.25 18.353.77.463 1.435.44 2.14.044 1.105-.628 4.43-3.952 6.27-7.844.774-.002 1.703-.092 2.628-.3v-2.62c-.566.132-1.115.19-1.61.19z" fill="#3A434E"/><path d="M23.68 56.126c-2.776 0-4.913-1.94-4.913-5.31 0-1.652.638-2.512 1.542-2.512.85 0 1.43.77 1.43 2.336 0 .89-.24 1.862-.42 2.44 0 0 .85 1.493 3.19 1.034.5-1.102.76-2.53.76-3.782C25.28 46.96 23.56 45 20.41 45c-3.238 0-5.134 2.49-5.134 5.772 0 3.252 1.522 6.043 4.03 7.315-1.054 2.108-2.396 3.966-3.795 5.366-2.53-3.068-4.83-7.162-5.77-15.15H6c1.73 13.305 6.886 17.54 8.25 18.353.77.463 1.435.44 2.14.044 1.105-.628 4.43-3.952 6.27-7.844.774-.002 1.703-.092 2.628-.3v-2.62c-.566.132-1.115.19-1.61.19z" fill="#67737B"/><path d="M23.68 96.126c-2.776 0-4.913-1.94-4.913-5.31 0-1.652.638-2.512 1.542-2.512.85 0 1.43.77 1.43 2.336 0 .89-.24 1.862-.42 2.44 0 0 .85 1.493 3.19 1.034.5-1.102.76-2.53.76-3.782C25.28 86.96 23.56 85 20.41 85c-3.238 0-5.134 2.49-5.134 5.772 0 3.252 1.522 6.043 4.03 7.315-1.054 2.108-2.396 3.966-3.795 5.366-2.53-3.068-4.83-7.162-5.77-15.15H6c1.73 13.305 6.886 17.54 8.25 18.353.77.463 1.435.44 2.14.044 1.105-.628 4.43-3.952 6.27-7.844.774-.002 1.703-.092 2.628-.3v-2.62c-.566.132-1.115.19-1.61.19z" fill="#fff"/><path d="M23.68 136.126c-2.776 0-4.913-1.94-4.913-5.31 0-1.652.638-2.512 1.542-2.512.85 0 1.43.77 1.43 2.336 0 .89-.24 1.862-.42 2.44 0 0 .85 1.493 3.19 1.034.5-1.102.76-2.53.76-3.782 0-3.373-1.72-5.332-4.87-5.332-3.24 0-5.14 2.49-5.14 5.772 0 3.252 1.52 6.043 4.03 7.315-1.06 2.108-2.4 3.966-3.8 5.366-2.54-3.068-4.83-7.162-5.78-15.15H6c1.73 13.305 6.886 17.54 8.25 18.353.77.463 1.435.44 2.14.044 1.105-.628 4.43-3.952 6.27-7.844.774-.002 1.703-.092 2.628-.3v-2.62c-.566.132-1.115.19-1.61.19z" fill="#206FAC"/><path d="M23.68 176.126c-2.776 0-4.913-1.94-4.913-5.31 0-1.652.638-2.512 1.542-2.512.85 0 1.43.77 1.43 2.336 0 .89-.24 1.862-.42 2.44 0 0 .85 1.493 3.19 1.034.5-1.102.76-2.53.76-3.782 0-3.373-1.72-5.332-4.87-5.332-3.24 0-5.14 2.49-5.14 5.772 0 3.252 1.52 6.043 4.03 7.315-1.06 2.108-2.4 3.966-3.8 5.366-2.54-3.068-4.83-7.162-5.78-15.15H6c1.73 13.305 6.886 17.54 8.25 18.353.77.463 1.435.44 2.14.044 1.105-.628 4.43-3.952 6.27-7.844.774-.002 1.703-.092 2.628-.3v-2.62c-.566.132-1.115.19-1.61.19z" fill="#00B389"/></g></svg>