<svg width="32" height="232" viewBox="0 0 32 232" xmlns="http://www.w3.org/2000/svg"><g fill="none"><path d="M16 7.786c-4.53 0-8.212 3.685-8.212 8.213 0 4.52 3.683 8.21 8.212 8.21 4.528 0 8.213-3.69 8.213-8.21 0-4.53-3.685-8.22-8.213-8.22zm0 15.444c-3.987 0-7.23-3.243-7.23-7.23 0-3.988 3.243-7.232 7.23-7.232 3.986 0 7.23 3.244 7.23 7.23 0 3.99-3.244 7.232-7.23 7.232zm0-16.37c.27 0 .49-.22.49-.49V.49c0-.27-.22-.49-.49-.49s-.49.22-.49.49v5.88c0 .27.22.49.49.49zm0 18.28c-.27 0-.49.218-.49.488v5.88c0 .272.22.492.49.492s.49-.22.49-.492v-5.88c0-.27-.22-.49-.49-.49zm15.51-9.63h-5.88c-.27 0-.49.218-.49.49 0 .27.22.49.49.49h5.88c.27 0 .49-.22.49-.49 0-.272-.22-.49-.49-.49zM6.86 16c0-.272-.22-.49-.49-.49H.49c-.27 0-.49.218-.49.49 0 .27.22.49.49.49h5.88c.27 0 .49-.22.49-.49zm15.95-6.32c.125 0 .25-.047.346-.144l4.158-4.157c.19-.2.19-.51 0-.7-.097-.1-.222-.15-.348-.15-.125 0-.25.05-.346.144l-4.157 4.16c-.192.19-.192.502 0 .693.096.097.22.144.346.144zM9.19 22.318c-.126 0-.25.048-.346.143l-4.157 4.16c-.193.19-.193.5 0 .7.095.1.22.148.346.148.125 0 .25-.05.347-.145l4.158-4.157c.19-.19.19-.5 0-.693-.096-.096-.22-.144-.348-.144zm13.966.143c-.096-.09-.22-.14-.346-.14-.126 0-.25.05-.347.15-.192.196-.192.506 0 .697l4.157 4.157c.096.097.222.145.347.145.125 0 .25-.05.347-.145.19-.19.19-.5 0-.692l-4.158-4.16zM8.844 9.54c.096.097.22.144.346.144.127 0 .252-.046.348-.143.19-.19.19-.5 0-.69L5.38 4.69c-.097-.094-.222-.142-.347-.142-.126 0-.25.05-.346.144-.193.19-.193.5 0 .693l4.157 4.15z" fill="#3B444F"/><path d="M16 47.786c-4.53 0-8.212 3.685-8.212 8.213 0 4.52 3.683 8.21 8.212 8.21 4.528 0 8.213-3.69 8.213-8.21 0-4.53-3.685-8.22-8.213-8.22zm0 15.444c-3.987 0-7.23-3.243-7.23-7.23 0-3.988 3.243-7.232 7.23-7.232 3.986 0 7.23 3.244 7.23 7.23 0 3.99-3.244 7.232-7.23 7.232zm0-16.37c.27 0 .49-.22.49-.49v-5.88c0-.27-.22-.49-.49-.49s-.49.22-.49.49v5.88c0 .27.22.49.49.49zm0 18.28c-.27 0-.49.218-.49.488v5.88c0 .272.22.492.49.492s.49-.22.49-.492v-5.88c0-.27-.22-.49-.49-.49zm15.51-9.63h-5.88c-.27 0-.49.218-.49.49 0 .27.22.49.49.49h5.88c.27 0 .49-.22.49-.49 0-.272-.22-.49-.49-.49zM6.86 56c0-.272-.22-.49-.49-.49H.49c-.27 0-.49.218-.49.49 0 .27.22.49.49.49h5.88c.27 0 .49-.22.49-.49zm15.95-6.32c.125 0 .25-.047.346-.144l4.158-4.157c.19-.2.19-.51 0-.7-.097-.1-.222-.15-.348-.15-.125 0-.25.05-.346.144l-4.157 4.16c-.192.19-.192.5 0 .692.096.096.22.143.346.143zM9.19 62.318c-.126 0-.25.048-.346.143l-4.157 4.16c-.193.19-.193.5 0 .7.095.1.22.148.346.148.125 0 .25-.05.347-.145l4.158-4.157c.19-.19.19-.5 0-.693-.096-.096-.22-.144-.348-.144zm13.966.143c-.096-.09-.22-.14-.346-.14-.126 0-.25.05-.347.15-.192.196-.192.506 0 .697l4.157 4.157c.096.097.222.145.347.145.125 0 .25-.05.347-.145.19-.19.19-.5 0-.692l-4.158-4.16zM8.844 49.54c.096.097.22.144.346.144.127 0 .252-.046.348-.143.19-.19.19-.5 0-.69L5.38 44.69c-.097-.095-.222-.143-.347-.143-.126 0-.25.048-.346.143-.193.19-.193.5 0 .693l4.157 4.156z" fill="#67737B"/><path d="M16 87.786c-4.53 0-8.212 3.685-8.212 8.213 0 4.52 3.683 8.21 8.212 8.21 4.528 0 8.213-3.69 8.213-8.21 0-4.53-3.685-8.22-8.213-8.22zm0 15.444c-3.987 0-7.23-3.243-7.23-7.23 0-3.988 3.243-7.232 7.23-7.232 3.986 0 7.23 3.244 7.23 7.23 0 3.99-3.244 7.232-7.23 7.232zm0-16.37c.27 0 .49-.22.49-.49v-5.88c0-.27-.22-.49-.49-.49s-.49.22-.49.49v5.88c0 .27.22.49.49.49zm0 18.28c-.27 0-.49.218-.49.488v5.88c0 .272.22.492.49.492s.49-.22.49-.492v-5.88c0-.27-.22-.49-.49-.49zm15.51-9.63h-5.88c-.27 0-.49.218-.49.49 0 .27.22.49.49.49h5.88c.27 0 .49-.22.49-.49 0-.272-.22-.49-.49-.49zM6.86 96c0-.272-.22-.49-.49-.49H.49c-.27 0-.49.218-.49.49 0 .27.22.49.49.49h5.88c.27 0 .49-.22.49-.49zm15.95-6.32c.125 0 .25-.047.346-.144l4.158-4.157c.19-.2.19-.51 0-.7-.097-.1-.222-.15-.348-.15-.125 0-.25.05-.346.144l-4.157 4.16c-.192.19-.192.5 0 .692.096.096.22.143.346.143zM9.19 102.318c-.126 0-.25.048-.346.143l-4.157 4.16c-.193.19-.193.5 0 .7.095.1.22.148.346.148.125 0 .25-.05.347-.145l4.158-4.157c.19-.19.19-.5 0-.693-.096-.096-.22-.144-.348-.144zm13.966.143c-.096-.09-.22-.14-.346-.14-.126 0-.25.05-.347.15-.192.196-.192.506 0 .697l4.157 4.157c.096.097.222.145.347.145.125 0 .25-.05.347-.145.19-.19.19-.5 0-.692l-4.158-4.16zM8.844 89.54c.096.097.22.144.346.144.127 0 .252-.046.348-.143.19-.19.19-.5 0-.69L5.38 84.69c-.097-.095-.222-.143-.347-.143-.126 0-.25.048-.346.143-.193.19-.193.5 0 .693l4.157 4.156z" fill="#fff"/><path d="M16 127.786c-4.53 0-8.212 3.685-8.212 8.213 0 4.52 3.683 8.21 8.212 8.21 4.528 0 8.213-3.69 8.213-8.21 0-4.53-3.685-8.22-8.213-8.22zm0 15.444c-3.987 0-7.23-3.243-7.23-7.23 0-3.988 3.243-7.232 7.23-7.232 3.986 0 7.23 3.244 7.23 7.23 0 3.99-3.244 7.232-7.23 7.232zm0-16.37c.27 0 .49-.22.49-.49v-5.88c0-.27-.22-.49-.49-.49s-.49.22-.49.49v5.88c0 .27.22.49.49.49zm0 18.28c-.27 0-.49.218-.49.488v5.88c0 .272.22.492.49.492s.49-.22.49-.492v-5.88c0-.27-.22-.49-.49-.49zm15.51-9.63h-5.88c-.27 0-.49.218-.49.49 0 .27.22.49.49.49h5.88c.27 0 .49-.22.49-.49 0-.272-.22-.49-.49-.49zM6.86 136c0-.272-.22-.49-.49-.49H.49c-.27 0-.49.218-.49.49 0 .27.22.49.49.49h5.88c.27 0 .49-.22.49-.49zm15.95-6.32c.125 0 .25-.047.346-.144l4.158-4.157c.19-.2.19-.51 0-.7-.097-.1-.222-.15-.348-.15-.125 0-.25.05-.346.144l-4.157 4.16c-.192.19-.192.5 0 .692.096.096.22.143.346.143zM9.19 142.318c-.126 0-.25.048-.346.143l-4.157 4.16c-.193.19-.193.5 0 .7.095.1.22.148.346.148.125 0 .25-.05.347-.145l4.158-4.157c.19-.19.19-.5 0-.693-.096-.096-.22-.144-.348-.144zm13.966.143c-.096-.09-.22-.14-.346-.14-.126 0-.25.05-.347.15-.192.196-.192.506 0 .697l4.157 4.157c.096.097.222.145.347.145.125 0 .25-.05.347-.145.19-.19.19-.5 0-.692l-4.158-4.16zM8.844 129.54c.096.097.22.144.346.144.127 0 .252-.046.348-.143.19-.19.19-.5 0-.69l-4.158-4.16c-.097-.09-.222-.14-.347-.14-.126 0-.25.05-.346.145-.193.19-.193.5 0 .69l4.157 4.158z" fill="#206FAC"/></g></svg>