<svg width="32" height="232" viewBox="0 0 32 232" xmlns="http://www.w3.org/2000/svg"><g fill="none"><path d="M15.928 140.653c-2.368 0-4.294 1.87-4.294 4.17 0 2.303 1.926 4.177 4.294 4.177 2.37 0 4.295-1.874 4.295-4.176 0-2.3-1.926-4.17-4.295-4.17zm7.966-2.917l-.032-.028c-2.014-2.266-4.91-3.565-7.955-3.565-2.933 0-5.753 1.215-7.753 3.34l-.06.052c-.37.36-.573.842-.573 1.352 0 .51.21.988.58 1.348.74.72 1.58.79 2.55.173.1-.045.2-.107.27-.193 1.27-1.435 3.09-2.26 5.01-2.26 1.99 0 3.85.864 5.13 2.39l.08.093c.38.36.87.556 1.39.556.53 0 1.02-.196 1.39-.558.77-.748.77-1.957 0-2.7zm3.968-5.296c-3.025-3.456-7.4-5.44-12.002-5.44-4.422 0-8.692 1.86-11.72 5.106l-.147.135c-.316.36-.49.82-.49 1.29 0 .53.21 1.02.59 1.38.375.37.88.58 1.416.58.52 0 1.01-.19 1.38-.53l.18-.17c2.25-2.45 5.45-3.86 8.78-3.86 3.56 0 6.91 1.57 9.18 4.3l.08.09c.37.33.85.51 1.35.51.54 0 1.05-.2 1.42-.57.74-.72.81-1.86.15-2.61l-.19-.17zm0 0" fill="#206FAC"/><path d="M15.928 100.653c-2.368 0-4.294 1.87-4.294 4.17 0 2.303 1.926 4.177 4.294 4.177 2.37 0 4.295-1.874 4.295-4.176 0-2.3-1.926-4.17-4.295-4.17zm7.966-2.917l-.032-.028c-2.014-2.266-4.91-3.565-7.955-3.565-2.933 0-5.753 1.215-7.753 3.34l-.06.052c-.37.36-.573.842-.573 1.352 0 .51.21.988.58 1.348.74.72 1.58.79 2.55.173.1-.045.2-.107.27-.193 1.27-1.435 3.09-2.26 5.01-2.26 1.99 0 3.85.864 5.13 2.39l.08.093c.38.36.87.556 1.39.556.53 0 1.02-.196 1.39-.558.77-.748.77-1.957 0-2.7zm3.968-5.296C24.837 88.984 20.462 87 15.86 87c-4.422 0-8.692 1.86-11.72 5.106l-.147.135c-.316.36-.49.82-.49 1.29 0 .53.21 1.02.59 1.38.375.37.88.58 1.416.58.52 0 1.01-.19 1.38-.53l.18-.17c2.25-2.45 5.45-3.86 8.78-3.86 3.56 0 6.91 1.57 9.18 4.3l.08.09c.37.33.85.51 1.35.51.54 0 1.05-.2 1.42-.57.74-.72.81-1.86.15-2.61l-.19-.17zm0 0" fill="#fff"/><path d="M15.928 60.653c-2.368 0-4.294 1.87-4.294 4.17 0 2.303 1.926 4.177 4.294 4.177 2.37 0 4.295-1.874 4.295-4.176 0-2.3-1.926-4.17-4.295-4.17zm7.966-2.917l-.032-.028c-2.014-2.266-4.91-3.565-7.955-3.565-2.933 0-5.753 1.215-7.753 3.34l-.06.052c-.37.36-.573.842-.573 1.352 0 .51.21.988.58 1.348.74.72 1.58.79 2.55.173.1-.045.2-.107.27-.193 1.27-1.435 3.09-2.26 5.01-2.26 1.99 0 3.85.864 5.13 2.39l.08.093c.38.36.87.556 1.39.556.53 0 1.02-.196 1.39-.558.77-.748.77-1.957 0-2.7zm3.968-5.296C24.837 48.984 20.462 47 15.86 47c-4.422 0-8.692 1.86-11.72 5.106l-.147.135c-.316.36-.49.82-.49 1.29 0 .53.21 1.02.59 1.38.375.37.88.58 1.416.58.52 0 1.01-.19 1.38-.53l.18-.17c2.25-2.45 5.45-3.86 8.78-3.86 3.56 0 6.91 1.57 9.18 4.3l.08.09c.37.33.85.51 1.35.51.54 0 1.05-.2 1.42-.57.74-.72.81-1.86.15-2.61l-.19-.17zm0 0" fill="#67737B"/><path d="M15.928 20.653c-2.368 0-4.294 1.87-4.294 4.17 0 2.303 1.926 4.177 4.294 4.177 2.37 0 4.295-1.874 4.295-4.176 0-2.3-1.926-4.17-4.295-4.17zm7.966-2.917l-.032-.028c-2.014-2.266-4.91-3.565-7.955-3.565-2.933 0-5.753 1.215-7.753 3.34l-.06.052c-.37.36-.573.842-.573 1.352 0 .51.21.988.58 1.348.74.72 1.58.79 2.55.173.1-.045.2-.107.27-.193 1.27-1.435 3.09-2.26 5.01-2.26 1.99 0 3.85.864 5.13 2.39l.08.093c.38.36.87.556 1.39.556.53 0 1.02-.196 1.39-.558.77-.748.77-1.957 0-2.7zm3.968-5.296C24.837 8.984 20.462 7 15.86 7c-4.422 0-8.692 1.86-11.72 5.106l-.147.135c-.316.36-.49.82-.49 1.29 0 .53.21 1.02.59 1.38.375.37.88.58 1.416.58.52 0 1.01-.19 1.38-.53l.18-.17c2.25-2.45 5.45-3.86 8.78-3.86 3.56 0 6.91 1.57 9.18 4.3l.08.09c.37.33.85.51 1.35.51.54 0 1.05-.2 1.42-.57.74-.72.81-1.86.15-2.61l-.19-.17zm0 0" fill="#3A434E"/></g></svg>