<svg width="32" height="232" viewBox="0 0 32 232" xmlns="http://www.w3.org/2000/svg"><g fill="none"><path d="M29.89 15.355h-1.72l1.192-1.2c.21-.212.21-.553 0-.765-.21-.21-.55-.21-.757 0l-1.95 1.965H25.05l1.697-1.71c.21-.212.21-.553 0-.764-.21-.21-.55-.21-.758 0l-2.46 2.48h-3.04l4.15-3.9c.18-.17.22-.45.09-.67-.13-.21-.39-.31-.63-.24l-5.16 1.68 1.57-2.43 3.39-.73c.29-.06.47-.35.41-.64-.06-.29-.35-.47-.64-.41l-2.35.51.87-1.35 2.7-.58c.29-.06.47-.35.41-.64-.07-.29-.35-.48-.64-.41l-1.65.36.93-1.45c.16-.25.09-.58-.16-.74-.25-.16-.58-.09-.74.16l-.9 1.42-.36-1.66c-.064-.29-.348-.48-.64-.41-.29.06-.474.35-.41.64l.575 2.72-.87 1.36-.504-2.36c-.06-.29-.35-.47-.64-.41-.29.06-.48.35-.41.64l.73 3.42-1.72 2.67-1.43-5.78c-.06-.24-.28-.41-.52-.41-.25 0-.46.17-.52.41L14 11.9l-1.7-2.69.725-3.42c.062-.29-.123-.58-.412-.64-.29-.063-.575.123-.636.414l-.503 2.366-.873-1.36.58-2.715c.06-.292-.12-.58-.41-.64-.29-.063-.57.123-.63.414l-.36 1.66-.93-1.46c-.16-.25-.49-.32-.74-.16s-.32.49-.16.74l.94 1.46-1.65-.36c-.29-.06-.57.12-.63.41-.06.29.13.58.42.64l2.69.58.88 1.35-2.36-.5c-.29-.07-.57.12-.63.41-.06.29.12.58.41.64l3.4.73 1.57 2.43-5.16-1.68c-.23-.08-.5.02-.62.24-.12.213-.08.49.1.67l4.15 3.9H8.39l-2.455-2.48c-.21-.21-.55-.21-.76 0-.208.21-.208.55 0 .76l1.7 1.71h-1.6l-1.95-1.968c-.21-.21-.55-.21-.76 0-.21.21-.21.552 0 .762l1.193 1.2h-1.72c-.297 0-.537.24-.537.54 0 .3.24.54.54.54h1.72l-1.19 1.2c-.21.21-.21.55 0 .763.11.106.24.16.38.16s.28-.054.38-.16l1.95-1.96h1.6l-1.7 1.71c-.21.21-.21.55 0 .76.11.1.25.16.38.16s.28-.05.38-.16L8.4 16.4h3.04l-4.15 3.9c-.18.17-.22.45-.09.67.13.22.39.32.63.24l5.16-1.68L11.41 22l-3.4.73c-.29.062-.475.35-.413.64.06.29.345.477.635.415l2.35-.505-.875 1.35-2.697.58c-.29.06-.474.35-.413.64.062.29.347.48.637.42l1.65-.35-.94 1.46c-.16.25-.09.58.16.742.09.06.19.088.29.088.18 0 .35-.084.45-.243l.94-1.455.35 1.66c.058.254.28.427.527.427l.12-.02c.29-.06.48-.35.41-.64l-.58-2.72.87-1.36.51 2.36c.06.25.28.42.53.42l.11-.01c.29-.06.47-.35.41-.64l-.73-3.42 1.72-2.67 1.43 5.78c.06.24.28.41.52.41.25 0 .46-.17.52-.41l1.43-5.78 1.72 2.67L18.9 26c-.06.29.124.58.414.64l.112.013c.248 0 .47-.174.524-.427l.503-2.366.873 1.356-.577 2.715c-.07.29.12.58.41.64l.11.02c.24 0 .47-.17.52-.42l.35-1.66.93 1.46c.1.16.27.25.45.25.1 0 .2-.02.29-.08.25-.16.32-.49.16-.74l-.94-1.45 1.65.36c.29.06.57-.12.64-.41.06-.29-.13-.57-.42-.64l-2.7-.58-.87-1.35 2.35.51c.29.07.57-.12.63-.41.06-.29-.12-.58-.41-.64l-3.4-.73-1.57-2.43 5.16 1.68c.24.08.5-.02.63-.24.12-.216.09-.493-.1-.666l-4.15-3.9h3.03l2.45 2.47c.1.106.24.16.38.16.13 0 .27-.05.37-.157.21-.21.21-.554 0-.764L25 16.5h1.606l1.95 1.964c.107.106.244.16.38.16s.276-.054.38-.16c.21-.21.21-.55 0-.763l-1.193-1.2h1.72c.3 0 .54-.24.54-.54 0-.3-.24-.54-.536-.54zm-7.738-3.03l-3.227 3.03h-1.227c-.072-.235-.19-.45-.342-.632l.68-1.055 4.116-1.344zm-6.19 4.317l-.17-.02c-.13-.032-.248-.097-.343-.188-.11-.106-.19-.244-.22-.4l-.02-.14.01-.14c.03-.156.11-.295.21-.4.09-.09.21-.157.34-.188l.17-.02.17.02c.13.03.25.097.34.19.11.103.18.242.21.396l.01.142-.02.14c-.03.156-.11.294-.22.4-.1.09-.21.156-.35.187l-.17.03zm0-8.178l1.15 4.653-.657 1.02c-.156-.045-.32-.07-.492-.07-.17 0-.335.025-.492.07l-.65-1.02 1.15-4.653zm-6.186 3.86l4.116 1.344.68 1.055c-.154.183-.27.397-.344.632h-1.226l-3.226-3.03zm0 7.14l3.226-3.03h1.226c.073.234.19.447.343.63l-.67 1.056-4.11 1.344zm6.187 3.86l-1.148-4.653.656-1.02c.16.05.33.07.5.07.17 0 .34-.02.49-.07l.66 1.02-1.15 4.66zm6.188-3.86l-4.11-1.344-.68-1.055c.16-.184.27-.397.35-.63h1.23l3.23 3.03z" fill="#3A434E"/><path d="M29.89 55.355h-1.72l1.192-1.2c.21-.212.21-.553 0-.765-.21-.21-.55-.21-.757 0l-1.95 1.965H25.05l1.697-1.71c.21-.212.21-.553 0-.764-.21-.21-.55-.21-.758 0l-2.46 2.48h-3.04l4.15-3.9c.18-.17.22-.45.09-.67-.13-.21-.39-.31-.63-.24l-5.16 1.68 1.57-2.43 3.39-.73c.29-.06.47-.35.41-.64-.06-.29-.35-.47-.64-.41l-2.35.51.87-1.35 2.7-.58c.29-.06.47-.35.41-.64-.07-.29-.35-.48-.64-.41l-1.65.36.93-1.45c.16-.25.09-.58-.16-.74-.25-.16-.58-.09-.74.16l-.94 1.45-.35-1.66c-.07-.29-.35-.48-.64-.41-.29.06-.48.35-.41.64l.57 2.72-.87 1.358-.507-2.362c-.06-.29-.34-.48-.63-.412-.29.06-.476.35-.41.64l.73 3.42-1.72 2.67-1.43-5.78c-.06-.24-.27-.41-.52-.41-.245 0-.46.17-.52.41l-1.4 5.75-1.718-2.67.72-3.42c.06-.29-.125-.58-.414-.64-.29-.06-.576.123-.637.414l-.5 2.36-.87-1.353.58-2.713c.06-.29-.126-.58-.415-.64-.29-.06-.58.12-.64.41l-.35 1.66-.94-1.45c-.16-.25-.49-.32-.74-.16s-.32.49-.16.74l.94 1.45-1.65-.36c-.29-.06-.58.126-.64.42-.06.29.12.573.41.64l2.69.58.87 1.35-2.35-.506c-.29-.06-.57.13-.64.42-.06.29.12.58.41.64l3.4.73 1.57 2.436-5.16-1.68c-.24-.078-.5.02-.63.24-.13.216-.09.494.097.67l4.15 3.9h-3L5.93 52.9c-.21-.21-.55-.21-.76 0-.21.21-.21.55 0 .762l1.7 1.71h-1.6l-1.95-1.96c-.21-.21-.55-.21-.76 0-.21.21-.21.553 0 .763l1.197 1.2H2.04c-.298 0-.538.24-.538.54 0 .3.24.54.54.54h1.72l-1.19 1.2c-.21.21-.21.55 0 .764.11.1.24.16.38.16s.278-.06.38-.16l1.95-1.97h1.6l-1.7 1.71c-.21.21-.21.55 0 .76.11.1.248.16.38.16s.28-.06.38-.16l2.46-2.47h3.038l-4.15 3.9c-.18.17-.22.45-.092.67.128.22.39.32.628.24l5.158-1.68L11.4 62l-3.398.73c-.29.062-.475.35-.413.64.06.29.34.478.63.416l2.35-.505-.88 1.35-2.69.58c-.29.07-.48.35-.42.64.06.3.34.48.63.42l1.65-.35-.94 1.46c-.16.25-.09.58.16.74.09.06.19.09.29.09.18 0 .35-.09.45-.25l.94-1.45.35 1.66c.05.26.27.43.52.43l.11-.01c.29-.06.47-.35.41-.64l-.58-2.71.87-1.36.5 2.37c.05.25.27.43.52.43l.11-.01c.29-.06.47-.35.41-.64l-.73-3.42 1.75-2.7 1.42 5.78c.06.24.273.41.52.41.25 0 .46-.17.52-.41l1.43-5.78 1.72 2.67L18.9 66c-.06.29.124.58.414.64l.112.013c.248 0 .47-.174.524-.427l.503-2.366.873 1.356-.577 2.715c-.07.29.12.58.41.64l.11.02c.24 0 .47-.17.52-.42l.35-1.66.93 1.46c.1.16.27.25.45.25.1 0 .2-.02.29-.08.25-.16.32-.49.16-.74l-.94-1.45 1.65.36c.29.06.57-.12.64-.41.06-.29-.13-.57-.42-.64l-2.7-.58-.87-1.35 2.35.51c.29.07.57-.12.63-.41.06-.29-.12-.58-.41-.64l-3.4-.73-1.57-2.43 5.16 1.68c.24.08.5-.02.63-.24.12-.216.09-.493-.1-.666l-4.15-3.9h3.03l2.45 2.47c.1.106.24.16.38.16.13 0 .27-.05.37-.157.21-.21.21-.554 0-.764L25 56.5h1.606l1.95 1.964c.107.106.244.16.38.16s.276-.054.38-.16c.21-.21.21-.55 0-.763l-1.193-1.2h1.72c.3 0 .54-.24.54-.54 0-.3-.24-.54-.536-.54zm-7.738-3.03l-3.227 3.03h-1.227c-.072-.235-.19-.45-.342-.632l.68-1.055 4.116-1.344zm-6.19 4.317l-.17-.02c-.13-.032-.248-.097-.343-.188-.11-.106-.19-.244-.22-.4l-.02-.14.01-.14c.03-.156.11-.295.21-.4.09-.09.21-.157.34-.188l.17-.02.17.02c.13.03.25.097.34.19.11.103.18.242.21.396l.01.142-.02.14c-.03.156-.11.294-.22.4-.1.09-.21.156-.35.187l-.17.03zm0-8.178l1.15 4.653-.657 1.02c-.156-.045-.32-.07-.492-.07-.17 0-.335.025-.492.07l-.65-1.02 1.15-4.653zm-6.186 3.86l4.116 1.344.68 1.055c-.154.183-.27.397-.344.632h-1.226l-3.226-3.03zm0 7.14l3.226-3.03h1.226c.073.234.19.447.343.63l-.67 1.056-4.11 1.344zm6.187 3.86l-1.148-4.653.656-1.02c.16.05.33.07.5.07.17 0 .34-.02.49-.07l.66 1.02-1.15 4.66zm6.188-3.86l-4.11-1.344-.68-1.055c.16-.184.27-.397.35-.63h1.23l3.23 3.03z" fill="#67737B"/><path d="M29.89 95.355h-1.72l1.192-1.2c.21-.212.21-.553 0-.765-.21-.21-.55-.21-.757 0l-1.95 1.965H25.05l1.697-1.71c.21-.212.21-.553 0-.764-.21-.21-.55-.21-.758 0l-2.46 2.48h-3.04l4.15-3.9c.18-.17.22-.45.09-.67-.13-.21-.39-.31-.63-.24l-5.16 1.68 1.57-2.43 3.39-.73c.29-.06.47-.35.41-.64-.06-.29-.35-.47-.64-.41l-2.35.51.87-1.35 2.7-.58c.29-.06.47-.35.41-.64-.07-.29-.35-.48-.64-.41l-1.65.36.93-1.45c.16-.25.09-.58-.16-.74-.25-.16-.58-.09-.74.16l-.94 1.45-.35-1.66c-.07-.29-.35-.48-.64-.41-.29.06-.48.35-.41.64l.57 2.72-.87 1.358-.507-2.362c-.06-.29-.34-.48-.63-.412-.29.06-.476.35-.41.64l.73 3.42-1.72 2.67-1.43-5.78c-.06-.24-.27-.41-.52-.41-.245 0-.46.17-.52.41l-1.4 5.75-1.718-2.67.72-3.42c.06-.29-.125-.58-.414-.64-.29-.06-.576.123-.637.414l-.5 2.36-.87-1.353.58-2.713c.06-.29-.126-.58-.415-.64-.29-.06-.58.12-.64.41l-.35 1.66-.94-1.45c-.16-.25-.49-.32-.74-.16s-.32.49-.16.74l.94 1.45-1.65-.36c-.29-.06-.58.126-.64.42-.06.29.12.573.41.64l2.69.58.87 1.35-2.35-.506c-.29-.06-.57.13-.64.42-.06.29.12.58.41.64l3.4.73 1.57 2.436-5.16-1.68c-.24-.078-.5.02-.63.24-.13.216-.09.494.097.67l4.15 3.9h-3L5.93 92.9c-.21-.21-.55-.21-.76 0-.21.21-.21.55 0 .762l1.7 1.71h-1.6l-1.95-1.96c-.21-.21-.55-.21-.76 0-.21.21-.21.553 0 .763l1.197 1.2H2.04c-.298 0-.538.24-.538.54 0 .3.24.54.54.54h1.72l-1.19 1.2c-.21.21-.21.55 0 .764.11.1.24.16.38.16s.278-.06.38-.16l1.95-1.97h1.6l-1.7 1.71c-.21.21-.21.55 0 .76.11.1.248.16.38.16s.28-.06.38-.16l2.46-2.47h3.038l-4.15 3.9c-.18.17-.22.45-.092.67.128.22.39.32.628.24l5.158-1.68L11.4 102l-3.398.73c-.29.062-.475.35-.413.64.06.29.34.478.63.416l2.35-.505-.87 1.36-2.7.58c-.29.06-.48.35-.42.64.06.29.35.48.64.42l1.65-.35-.94 1.46c-.16.25-.09.59.16.75.09.06.19.09.29.09.17 0 .35-.08.45-.24l.93-1.45.35 1.66c.05.26.27.43.52.43l.11-.01c.29-.06.47-.35.41-.64l-.58-2.71.87-1.35.5 2.37c.05.25.27.43.52.43l.11-.017c.29-.06.47-.35.41-.64l-.73-3.42 1.72-2.67 1.423 5.78c.06.24.27.41.52.41.244 0 .46-.17.52-.41l1.424-5.78 1.72 2.67-.73 3.42c-.063.29.12.58.41.64l.11.01c.25 0 .47-.175.525-.43l.506-2.36.87 1.356-.58 2.717c-.07.29.12.58.41.64l.11.01c.25 0 .47-.17.525-.422l.35-1.66.936 1.455c.103.16.275.246.45.246.1 0 .2-.03.29-.09.25-.16.32-.494.16-.743l-.93-1.46 1.65.353c.29.062.57-.12.634-.416.06-.29-.124-.58-.413-.64l-2.7-.58-.87-1.35 2.35.51c.29.064.573-.12.634-.41.06-.29-.12-.58-.41-.64l-3.4-.73-1.57-2.43 5.16 1.683c.24.08.5-.02.63-.24s.09-.5-.095-.67l-4.153-3.9h3.04l2.452 2.47c.105.1.24.154.38.154s.275-.05.38-.16c.21-.21.21-.556 0-.766l-1.7-1.71h1.61l1.95 1.96c.105.11.242.16.38.16s.274-.05.38-.16c.21-.21.21-.55 0-.76l-1.195-1.2h1.72c.297 0 .537-.24.537-.54 0-.3-.24-.54-.534-.54zm-7.738-3.03l-3.227 3.03h-1.227c-.072-.235-.19-.45-.342-.632l.68-1.055 4.116-1.344zm-6.19 4.317l-.17-.02c-.13-.032-.248-.097-.343-.188-.11-.106-.19-.244-.22-.4l-.02-.14.01-.14c.03-.156.11-.295.21-.4.09-.09.21-.157.34-.188l.17-.02.17.02c.13.03.25.097.34.19.11.103.18.242.21.396l.01.142-.02.14c-.03.156-.11.294-.22.4-.1.09-.21.156-.35.187l-.17.03zm0-8.178l1.15 4.653-.657 1.02c-.156-.045-.32-.07-.492-.07-.17 0-.335.025-.492.07l-.65-1.02 1.15-4.653zm-6.186 3.86l4.116 1.344.68 1.055c-.154.183-.27.397-.344.632h-1.226l-3.226-3.03zm0 7.14l3.226-3.03h1.226c.073.234.19.447.343.63l-.67 1.056-4.11 1.344zm6.187 3.86l-1.148-4.653.656-1.02c.16.05.33.07.5.07.17 0 .34-.02.49-.07l.66 1.02-1.15 4.66zm6.188-3.86l-4.11-1.344-.68-1.055c.16-.184.27-.397.35-.63h1.23l3.23 3.03z" fill="#fff"/><path d="M29.89 135.355h-1.72l1.192-1.2c.21-.212.21-.553 0-.765-.21-.21-.55-.21-.757 0l-1.95 1.965H25.05l1.697-1.71c.21-.212.21-.553 0-.764-.21-.21-.55-.21-.758 0l-2.46 2.48h-3.04l4.15-3.9c.18-.17.22-.45.09-.67-.13-.21-.39-.31-.63-.24l-5.16 1.69 1.57-2.43 3.39-.73c.29-.06.47-.34.41-.64-.06-.29-.35-.47-.64-.41l-2.35.51.87-1.35 2.7-.58c.29-.06.47-.35.41-.64-.07-.29-.35-.48-.64-.41l-1.65.36.93-1.45c.16-.25.09-.58-.16-.74-.25-.16-.58-.09-.74.16l-.94 1.46-.36-1.66c-.06-.29-.35-.48-.64-.41-.29.06-.47.35-.41.64l.58 2.72-.88 1.356-.5-2.363c-.06-.29-.35-.475-.64-.413-.29.06-.47.35-.41.64l.727 3.42-1.72 2.67-1.426-5.78c-.06-.24-.27-.41-.52-.41-.245 0-.46.17-.52.41L14 131.89l-1.72-2.67.728-3.42c.063-.29-.122-.576-.41-.64-.29-.06-.574.126-.635.417l-.503 2.365-.87-1.355.58-2.713c.06-.292-.124-.58-.41-.64-.29-.063-.576.123-.638.414l-.353 1.66-.94-1.453c-.16-.25-.49-.322-.74-.16s-.32.496-.16.746l.94 1.46-1.65-.35c-.29-.06-.58.13-.64.42-.06.29.12.58.41.64l2.7.58.87 1.36-2.35-.5c-.29-.06-.58.12-.64.41-.07.29.12.58.41.64l3.4.73 1.57 2.44-5.16-1.68c-.24-.07-.5.02-.63.24s-.09.5.09.67l4.15 3.9H8.39l-2.454-2.48c-.21-.21-.55-.21-.76 0-.208.21-.208.56 0 .77l1.7 1.71h-1.6l-1.95-1.96c-.21-.21-.55-.21-.76 0-.21.21-.21.55 0 .76l1.192 1.2h-1.72c-.297 0-.537.24-.537.54 0 .3.24.54.54.54h1.72l-1.19 1.2c-.21.21-.21.55 0 .77.11.11.24.16.38.16s.28-.05.38-.16l1.95-1.96h1.6l-1.7 1.71c-.21.21-.21.558 0 .77.11.1.25.15.38.15s.28-.05.38-.16l2.46-2.475h3.04l-4.15 3.9c-.18.17-.22.45-.09.67.13.22.39.32.63.24l5.16-1.68-1.59 2.4-3.39.73c-.29.063-.47.35-.41.64.06.29.34.48.63.417l2.35-.504-.87 1.355-2.7.58c-.29.06-.48.35-.42.64.06.29.35.48.64.41l1.65-.36-.94 1.45c-.16.25-.09.58.16.74.09.06.19.09.29.09.17 0 .35-.09.45-.25l.93-1.46.35 1.66c.05.25.27.43.52.43l.11-.02c.29-.06.48-.35.418-.64l-.576-2.714.87-1.35.5 2.37c.05.25.274.423.52.423l.11-.01c.29-.06.477-.35.415-.64l-.73-3.42 1.72-2.67 1.427 5.78c.06.24.274.41.52.41.247 0 .46-.17.52-.41l1.427-5.78 1.72 2.67-.73 3.42c-.063.29.12.58.41.64l.11.01c.25 0 .47-.17.525-.43l.508-2.366.87 1.35-.58 2.718c-.07.29.12.58.41.64l.11.01c.247 0 .47-.17.524-.423l.35-1.66.936 1.45c.103.16.275.243.45.243.1 0 .2-.03.29-.09.25-.16.32-.496.16-.745l-.95-1.47 1.65.356c.29.062.57-.12.633-.416.06-.29-.127-.58-.416-.64l-2.7-.58-.87-1.358 2.35.506c.29.06.57-.125.632-.416.06-.294-.127-.58-.41-.64l-3.4-.734-1.57-2.433 5.152 1.684c.24.08.5-.02.63-.24s.09-.49-.093-.67l-4.16-3.9h3.04l2.45 2.47c.1.11.24.16.38.16s.27-.05.38-.15c.21-.21.21-.558 0-.768l-1.7-1.71h1.6l1.95 1.97c.11.102.247.155.38.155s.28-.057.38-.16c.21-.21.21-.556 0-.767l-1.19-1.2h1.72c.296 0 .536-.24.536-.54 0-.3-.24-.54-.535-.54zm-7.738-3.03l-3.227 3.03h-1.227c-.072-.235-.19-.45-.342-.632l.68-1.055 4.116-1.344zm-6.19 4.317l-.17-.02c-.13-.032-.248-.097-.343-.188-.11-.106-.19-.244-.22-.4l-.02-.14.01-.14c.03-.156.11-.295.21-.4.09-.09.21-.157.34-.188l.17-.02.17.02c.13.03.25.097.34.19.11.103.18.242.21.396l.01.142-.02.14c-.03.156-.11.294-.22.4-.1.09-.21.156-.35.187l-.17.03zm0-8.178l1.15 4.653-.657 1.02c-.156-.045-.32-.07-.492-.07-.17 0-.335.025-.492.07l-.65-1.02 1.15-4.653zm-6.186 3.86l4.116 1.344.68 1.055c-.154.183-.27.397-.344.632h-1.226l-3.226-3.03zm0 7.14l3.226-3.03h1.226c.073.234.19.447.343.63l-.67 1.056-4.11 1.344zm6.187 3.86l-1.148-4.653.656-1.02c.16.05.33.07.5.07.17 0 .34-.02.49-.07l.66 1.02-1.15 4.66zm6.188-3.86l-4.11-1.344-.68-1.055c.16-.184.27-.397.35-.63h1.23l3.23 3.03z" fill="#206FAC"/></g></svg>