<svg width="32" height="232" viewBox="0 0 32 232" xmlns="http://www.w3.org/2000/svg"><g fill="none"><path d="M26 17.68v6.485c0 .404-.085.776-.26 1.114-.175.34-.41.64-.712.89-.3.25-.647.45-1.04.6-.395.14-.822.22-1.278.22H9.277c-.448 0-.87-.08-1.264-.22-.393-.15-.74-.35-1.04-.61-.298-.26-.537-.56-.714-.9-.18-.34-.26-.71-.26-1.12v-6.48c0-.39.08-.75.26-1.11.17-.35.41-.65.71-.9s.64-.46 1.04-.61c.39-.15.81-.23 1.26-.23h13.44c.44 0 .87.08 1.27.23.4.15.74.35 1.04.61.3.25.53.55.71.9.17.35.26.71.26 1.1zm-15.824 7.207v-6.84h1.647v-1.034H7.377v1.006H8.8v6.86h1.376zm.672-15.913L9.008 5h1.602l.915 2.97L12.44 5h1.6l-1.725 3.974V13.6h-1.467V8.975zm4.33 10.077h-1.376v3.66l.012.61c.008.15-.01.24-.06.28-.042.16-.158.28-.355.35-.19.08-.34-.03-.44-.32-.03-.03-.03-.13-.02-.28l.01-.59-.03-3.68h-1.37l.03 3.62c0 .29-.01.52-.02.72-.01.19-.01.34.02.44l.05.51c.02.18.11.33.28.44.15.1.34.15.56.15.21 0 .42-.03.63-.1.2-.07.39-.16.57-.28.17-.13.3-.26.38-.39l-.03.72 1.14.03V19.1zm-1.26-9.47c0-.54.052-.99.15-1.34.122-.36.315-.62.586-.78.27-.2.614-.3 1.033-.3.37 0 .677.06.93.18.247.1.453.27.61.52.123.18.212.38.272.61.05.25.08.58.08.99V11c0 .564-.03.966-.09 1.214-.03.227-.12.477-.3.754-.18.245-.38.408-.58.488-.26.118-.54.176-.86.176-.33 0-.63-.05-.9-.147-.25-.08-.44-.222-.56-.43-.12-.16-.22-.38-.3-.665-.06-.266-.09-.668-.09-1.21v-1.6zm1.23 2.41c0 .16.058.3.18.42.118.13.263.19.432.19.158 0 .303-.05.43-.18.123-.11.183-.26.183-.43V8.78c0-.177-.06-.324-.184-.447-.13-.124-.28-.187-.43-.187-.16 0-.31.062-.43.187-.13.123-.19.27-.19.448v3.21zm4.475 11.23v-3.03c0-.58-.21-.99-.628-1.24-.138-.08-.3-.12-.48-.12-.33 0-.708.16-1.136.46v-2.27H16v7.82l1.137-.03.09-.49c.37.31.703.5.995.57.296.07.542.04.748-.08.206-.12.364-.32.478-.6.116-.27.174-.6.174-.96zm-1.66-3.63c.16 0 .298.05.424.15.124.1.187.2.187.32v3.43c0 .12-.063.22-.187.31-.127.09-.265.14-.424.14-.162 0-.303-.04-.43-.13-.124-.09-.183-.19-.183-.31v-3.43c0-.12.06-.22.183-.31.128-.09.27-.14.43-.14zm.64-6.58l-.07-.24-.048-.24c-.02-.1-.03-.23-.03-.4V7.4h1.29v4.697c0 .12.042.222.132.312.094.08.21.13.36.13.14 0 .26-.05.36-.14.1-.09.15-.19.15-.31v-4.7h1.197v6.02H20.42l.027-.49c-.14.19-.272.35-.403.45-.16.1-.333.14-.526.14-.226 0-.42-.05-.568-.15-.13-.09-.245-.22-.344-.4zm5.36 9.84h-1.03v.67c0 .16-.06.28-.174.37-.12.1-.25.14-.41.14h-.22c-.16 0-.29-.04-.4-.13-.11-.08-.16-.21-.16-.36V22.1h2.38v-.813c0-.304-.01-.596-.02-.877-.01-.28-.04-.5-.08-.655-.04-.268-.16-.483-.37-.645-.2-.16-.44-.273-.72-.33-.28-.063-.56-.07-.84-.03-.29.04-.53.13-.75.28-.27.176-.46.42-.58.726-.12.302-.18.727-.18 1.27v1.818c0 .765.2 1.313.61 1.638.38.305.78.458 1.19.458h.12c.47-.03.88-.227 1.24-.59.27-.267.4-.618.4-1.05l-.07-.457zM22.9 21.11h-1.317l.03-.723c0-.16.06-.288.18-.394.12-.103.262-.154.435-.154h.06c.178 0 .33.05.457.14.12.1.187.23.187.4l-.032.72z" fill="#3A434E"/><path d="M26 57.68v6.485c0 .404-.085.776-.26 1.114-.175.34-.41.64-.712.89-.3.25-.647.45-1.04.6-.395.14-.822.22-1.278.22H9.277c-.448 0-.87-.08-1.264-.22-.393-.15-.74-.35-1.04-.61-.298-.26-.537-.56-.714-.9-.18-.34-.26-.71-.26-1.12v-6.48c0-.39.08-.75.26-1.11.17-.35.41-.65.71-.9s.64-.46 1.04-.61c.39-.15.81-.23 1.26-.23h13.44c.44 0 .87.08 1.27.23.4.15.74.35 1.04.61.3.25.53.55.71.9.17.35.26.71.26 1.1zm-15.824 7.207v-6.84h1.647v-1.034H7.377v1.006H8.8v6.86h1.376zm.672-15.913L9.008 45h1.602l.915 2.97.914-2.97h1.6l-1.73 3.974V53.6h-1.47v-4.626zm4.33 10.077h-1.376v3.66l.012.61c.008.15-.01.24-.06.28-.042.16-.158.28-.355.35-.19.08-.34-.03-.44-.32-.03-.03-.03-.13-.02-.28l.01-.59-.03-3.68h-1.37l.03 3.62c0 .29-.01.52-.02.72-.01.19-.01.34.02.44l.05.51c.02.18.11.33.28.44.15.1.34.15.56.15.21 0 .42-.03.63-.1.2-.07.39-.16.57-.28.17-.13.3-.26.38-.39l-.03.72 1.14.03V59.1zm-1.26-9.47c0-.54.052-.99.15-1.34.122-.36.315-.62.586-.78.27-.2.614-.3 1.033-.3.37 0 .677.06.93.18.247.1.453.27.61.52.123.18.212.38.272.61.05.25.08.58.08.99V51c0 .564-.03.966-.09 1.214-.03.227-.12.477-.3.754-.18.245-.38.408-.58.488-.26.118-.54.176-.86.176-.33 0-.63-.05-.9-.147-.25-.08-.44-.222-.56-.43-.12-.16-.22-.38-.3-.665-.06-.266-.09-.668-.09-1.21v-1.6zm1.23 2.41c0 .16.058.3.18.42.118.13.263.19.432.19.158 0 .303-.05.43-.18.123-.11.183-.26.183-.43v-3.21c0-.17-.06-.32-.184-.44-.13-.12-.28-.18-.43-.18-.16 0-.31.06-.43.19-.13.13-.19.27-.19.45V52zm4.475 11.23v-3.03c0-.58-.21-.99-.628-1.24-.138-.08-.3-.12-.48-.12-.33 0-.708.16-1.136.46v-2.27H16v7.82l1.137-.03.09-.49c.37.31.703.5.995.57.296.07.542.04.748-.08.206-.12.364-.32.478-.6.116-.27.174-.6.174-.96zm-1.66-3.63c.16 0 .298.05.424.15.124.1.187.2.187.32v3.43c0 .12-.063.22-.187.31-.127.09-.265.14-.424.14-.162 0-.303-.04-.43-.13-.124-.09-.183-.19-.183-.31v-3.43c0-.12.06-.22.183-.31.128-.09.27-.14.43-.14zm.64-6.58l-.07-.24-.048-.24c-.02-.1-.03-.23-.03-.4V47.4h1.29v4.697c0 .12.042.222.132.312.094.08.21.13.36.13.14 0 .26-.05.36-.14.1-.09.15-.19.15-.31V47.4h1.197v6.027H20.42l.027-.488c-.14.19-.272.35-.403.45-.16.09-.333.14-.526.14-.226 0-.42-.05-.568-.15-.13-.09-.245-.22-.344-.4zm5.36 9.84h-1.03v.67c0 .16-.06.28-.174.37-.12.1-.25.14-.41.14h-.22c-.16 0-.29-.04-.4-.13-.11-.08-.16-.21-.16-.36V62.1h2.38v-.813c0-.304-.01-.596-.02-.877-.01-.28-.04-.5-.08-.655-.04-.268-.16-.483-.37-.645-.2-.16-.44-.273-.72-.33-.28-.063-.56-.07-.84-.03-.29.04-.53.13-.75.28-.27.176-.46.42-.58.726-.12.302-.18.727-.18 1.27v1.818c0 .765.2 1.313.61 1.638.38.305.78.458 1.19.458h.12c.47-.03.88-.227 1.24-.59.27-.267.4-.618.4-1.05l-.07-.457zM22.9 61.11h-1.317l.03-.723c0-.16.06-.288.18-.394.12-.103.262-.154.435-.154h.06c.178 0 .33.05.457.14.12.1.187.23.187.4l-.032.72z" fill="#67737B"/><path d="M26 97.68v6.485c0 .404-.085.776-.26 1.114-.175.34-.41.64-.712.89-.3.25-.647.45-1.04.6-.395.14-.822.22-1.278.22H9.277c-.448 0-.87-.08-1.264-.22-.393-.15-.74-.35-1.04-.61-.298-.26-.537-.56-.714-.9-.18-.34-.26-.71-.26-1.12v-6.48c0-.39.08-.75.26-1.11.17-.35.41-.65.71-.9s.64-.46 1.04-.61c.39-.15.81-.23 1.26-.23h13.44c.44 0 .87.08 1.27.23.4.15.74.35 1.04.61.3.25.53.55.71.9.17.35.26.71.26 1.1zm-15.824 7.207v-6.84h1.647v-1.034H7.377v1.006H8.8v6.86h1.376zm.672-15.913L9.008 85h1.602l.915 2.97.914-2.97h1.6l-1.73 3.974V93.6h-1.47v-4.626zm4.33 10.077h-1.376v3.66l.012.61c.008.15-.01.24-.06.28-.042.16-.158.28-.355.35-.19.08-.34-.03-.44-.32-.03-.03-.03-.13-.02-.28l.01-.59-.03-3.68h-1.37l.03 3.62c0 .29-.01.52-.02.72-.01.19-.01.34.02.44l.05.51c.02.18.11.33.28.44.15.1.34.15.56.15.21 0 .42-.03.63-.1.2-.07.39-.16.57-.28.17-.13.3-.26.38-.39l-.03.72 1.14.03V99.1zm-1.26-9.47c0-.54.052-.99.15-1.34.122-.36.315-.62.586-.78.27-.2.614-.3 1.033-.3.37 0 .677.06.93.18.247.1.453.27.61.52.123.18.212.38.272.61.05.25.08.58.08.99V91c0 .564-.03.966-.09 1.214-.03.227-.12.477-.3.754-.18.245-.38.408-.58.488-.26.118-.54.176-.86.176-.33 0-.63-.05-.9-.147-.25-.08-.44-.222-.56-.43-.12-.16-.22-.38-.3-.665-.06-.266-.09-.668-.09-1.21v-1.6zm1.23 2.41c0 .16.058.3.18.42.118.13.263.19.432.19.158 0 .303-.05.43-.18.123-.11.183-.26.183-.43v-3.21c0-.17-.06-.32-.184-.44-.13-.12-.28-.18-.43-.18-.16 0-.31.06-.43.19-.13.13-.19.27-.19.45V92zm4.475 11.23v-3.03c0-.58-.21-.99-.628-1.24-.138-.08-.3-.12-.48-.12-.33 0-.708.16-1.136.46v-2.27H16v7.82l1.137-.03.09-.49c.37.31.703.5.995.57.296.07.542.04.748-.08.206-.12.364-.32.478-.6.116-.27.174-.6.174-.96zm-1.66-3.63c.16 0 .298.05.424.15.124.1.187.2.187.32v3.43c0 .12-.063.22-.187.31-.127.09-.265.14-.424.14-.162 0-.303-.04-.43-.13-.124-.08-.183-.19-.183-.31v-3.42c0-.11.06-.22.183-.31.128-.09.27-.14.43-.14zm.64-6.58l-.07-.24-.048-.24c-.02-.1-.03-.23-.03-.4V87.4h1.29v4.697c0 .12.042.222.132.312.094.08.21.13.36.13.14 0 .26-.05.36-.14.1-.09.15-.19.15-.31V87.4h1.197v6.027H20.42l.027-.488c-.14.19-.272.35-.403.45-.16.09-.333.14-.526.14-.226 0-.42-.05-.568-.15-.13-.09-.245-.22-.344-.4zm5.36 9.84h-1.03v.67c0 .16-.06.28-.174.37-.12.1-.25.14-.41.14h-.22c-.16 0-.29-.04-.4-.13-.11-.08-.16-.21-.16-.36v-1.41h2.38v-.81c0-.3-.01-.59-.02-.88-.01-.28-.04-.5-.08-.65-.04-.26-.16-.48-.37-.64-.2-.16-.44-.27-.72-.33-.28-.06-.56-.07-.84-.03-.29.04-.53.13-.75.28-.27.18-.46.42-.58.73-.12.31-.18.73-.18 1.27v1.82c0 .77.2 1.31.61 1.64.38.31.78.46 1.19.46h.12c.47-.03.88-.22 1.24-.59.27-.26.4-.61.4-1.05l-.07-.45zm-1.063-1.73h-1.317l.03-.72c0-.16.06-.28.18-.39.12-.1.262-.15.435-.15h.06c.178 0 .33.05.457.15.12.1.187.24.187.4l-.032.73z" fill="#fff"/><path d="M26 137.68v6.485c0 .404-.085.776-.26 1.114-.175.34-.41.64-.712.89-.3.25-.647.45-1.04.6-.395.14-.822.22-1.278.22H9.277c-.448 0-.87-.08-1.264-.22-.393-.15-.74-.35-1.04-.61-.298-.26-.537-.56-.714-.9-.18-.34-.26-.71-.26-1.12v-6.49c0-.39.08-.75.26-1.11.17-.35.41-.65.71-.9s.64-.46 1.04-.61c.39-.15.81-.23 1.26-.23h13.44c.44 0 .87.08 1.27.23.4.15.74.36 1.04.61.3.25.53.55.71.9.17.35.26.72.26 1.1zm-15.824 7.207v-6.84h1.647v-1.034H7.377v1.006H8.8v6.86h1.376zm.672-15.913L9.008 125h1.602l.915 2.97.914-2.97h1.6l-1.73 3.974v4.627h-1.47v-4.62zm4.33 10.077h-1.376v3.66l.012.61c.008.15-.01.24-.06.28-.042.16-.158.28-.355.35-.19.08-.34-.03-.44-.32-.03-.03-.03-.13-.02-.28l.01-.59-.03-3.68h-1.37l.03 3.62c0 .29-.01.52-.02.72-.01.19-.01.34.02.44l.05.51c.02.18.11.33.28.44.15.1.34.15.56.15.21 0 .42-.03.63-.1.2-.07.39-.16.57-.28.17-.13.3-.26.38-.39l-.03.72 1.14.03v-5.84zm-1.26-9.47c0-.54.052-.99.15-1.34.122-.36.315-.62.586-.78.27-.2.614-.3 1.033-.3.37 0 .677.06.93.18.247.1.453.27.61.52.123.18.212.38.272.61.05.25.08.58.08.99V131c0 .564-.03.966-.09 1.214-.03.227-.12.477-.3.754-.18.245-.38.408-.58.488-.26.118-.54.176-.86.176-.33 0-.63-.05-.9-.147-.25-.08-.44-.222-.56-.43-.12-.16-.22-.38-.3-.665-.06-.266-.09-.668-.09-1.21v-1.598zm1.23 2.41c0 .16.058.3.18.42.118.13.263.19.432.19.158 0 .303-.05.43-.18.123-.11.183-.26.183-.43v-3.21c0-.17-.06-.32-.184-.44-.13-.12-.28-.18-.43-.18-.16 0-.31.06-.43.19-.13.13-.19.27-.19.45v3.2zm4.475 11.23v-3.03c0-.58-.21-.99-.628-1.24-.138-.08-.3-.12-.48-.12-.33 0-.708.16-1.136.46v-2.27H16v7.82l1.137-.03.09-.49c.37.31.703.5.995.57.296.07.542.04.748-.08.206-.12.364-.32.478-.6.116-.27.174-.6.174-.96zm-1.66-3.63c.16 0 .298.05.424.15.124.1.187.2.187.32v3.43c0 .12-.063.22-.187.31-.127.09-.265.14-.424.14-.162 0-.303-.04-.43-.13-.124-.09-.183-.19-.183-.31v-3.43c0-.12.06-.22.183-.31.128-.09.27-.14.43-.14zm.64-6.58l-.07-.24-.048-.24c-.02-.1-.03-.23-.03-.4v-4.72h1.29v4.7c0 .12.042.23.132.32.094.08.21.13.36.13.14 0 .26-.05.36-.14.1-.09.15-.19.15-.31v-4.69h1.197v6.03H20.42l.027-.49c-.14.19-.272.35-.403.45-.16.1-.333.15-.526.15-.226 0-.42-.05-.568-.14-.13-.08-.245-.22-.344-.39zm5.36 9.84h-1.03v.67c0 .16-.06.28-.174.37-.12.1-.25.14-.41.14h-.22c-.16 0-.29-.04-.4-.13-.11-.08-.16-.21-.16-.36v-1.41h2.38v-.81c0-.3-.01-.59-.02-.88-.01-.28-.04-.5-.08-.65-.04-.26-.16-.48-.37-.64-.2-.16-.44-.27-.72-.33-.28-.06-.56-.07-.84-.03-.29.04-.53.13-.75.28-.27.18-.46.42-.58.73-.12.31-.18.73-.18 1.27v1.82c0 .77.2 1.31.61 1.64.38.31.78.46 1.19.46h.12c.47-.03.88-.22 1.24-.59.27-.26.4-.61.4-1.05l-.07-.45zm-1.063-1.73h-1.317l.03-.72c0-.16.06-.28.18-.39.12-.1.262-.15.435-.15h.06c.178 0 .33.05.457.15.12.1.187.24.187.4l-.032.73z" fill="#206FAC"/><path d="M26 184.165c0 .404-.085.776-.26 1.114-.175.34-.41.64-.712.89-.3.25-.647.45-1.04.6-.395.14-.822.22-1.278.22H9.277c-.448 0-.87-.08-1.264-.22-.393-.15-.74-.35-1.04-.61-.298-.26-.537-.56-.714-.9-.18-.34-.26-.71-.26-1.12v-6.49c0-.39.08-.75.26-1.11.17-.35.41-.65.71-.9s.64-.46 1.04-.61c.39-.15.81-.23 1.26-.23h13.44c.44 0 .87.08 1.27.23.4.15.74.36 1.04.61.3.25.53.55.71.9.17.35.26.72.26 1.1v6.48z" fill="#CD201F"/><path d="M10.848 168.973L9.008 165h1.602l.915 2.97.914-2.97h1.6l-1.73 3.973v4.627h-1.47v-4.627zm3.07.606c0-.54.052-1 .15-1.35.122-.37.315-.63.586-.79.27-.2.614-.3 1.033-.3.37 0 .677.06.93.18.247.09.453.27.61.51.123.17.212.38.272.6.05.24.08.57.08.99v1.55c0 .56-.03.96-.09 1.21-.03.23-.12.48-.3.75-.18.24-.38.4-.58.48-.26.12-.54.17-.86.17-.33 0-.63-.05-.9-.15-.25-.08-.44-.22-.56-.43-.12-.16-.22-.38-.3-.66-.06-.27-.09-.67-.09-1.21v-1.6zm1.23 2.41c0 .15.058.29.18.42.118.12.263.18.432.18.158 0 .303-.06.43-.18.123-.12.183-.26.183-.43v-3.21c0-.18-.06-.33-.184-.45-.13-.13-.28-.19-.43-.19-.16 0-.31.06-.43.18-.13.12-.19.27-.19.45v3.2zm3.456 1l-.072-.25-.047-.25c-.02-.1-.03-.24-.03-.4v-4.72h1.29v4.69c0 .12.042.22.132.31.094.08.21.13.36.13.14 0 .26-.05.36-.14.1-.09.15-.19.15-.31v-4.7h1.197v6.03H20.42l.027-.49c-.14.2-.272.35-.403.46-.16.1-.333.14-.526.14-.226 0-.42-.05-.568-.15-.13-.09-.245-.22-.344-.4z" fill="#000"/><path d="M10.176 184.886v-6.84h1.647v-1.034H7.377v1.006H8.8v6.87h1.376zm5.003-5.836H13.8v3.654l.012.61c.008.146-.01.235-.06.273-.042.158-.158.273-.355.348-.19.073-.34-.03-.44-.32-.02-.037-.023-.135-.014-.287l.013-.597-.03-3.68H11.55l.032 3.63c0 .29-.008.52-.018.72-.01.19-.008.34.017.44l.06.51c.02.18.12.33.29.44.16.1.35.15.56.15.22 0 .43-.04.63-.1.21-.07.4-.16.57-.29.18-.12.3-.25.38-.39l-.03.72 1.14.03v-5.84zm4.44 4.168v-3.028c0-.583-.21-.996-.63-1.242-.14-.08-.3-.12-.48-.12-.33 0-.71.153-1.14.458v-2.275H16v7.82l1.138-.03.09-.49c.37.31.705.5.997.57.296.07.542.04.748-.08.206-.12.364-.32.478-.6.12-.28.18-.6.18-.96zm-1.66-3.636c.16 0 .3.048.42.143.12.093.18.2.18.316v3.43c0 .12-.07.22-.19.31-.13.09-.27.14-.43.14-.16 0-.31-.04-.43-.13-.13-.09-.19-.19-.19-.31v-3.43c0-.11.06-.22.18-.31.13-.09.27-.14.43-.14zm6 3.254h-1.03v.663c0 .15-.06.28-.18.36-.12.09-.25.13-.41.13h-.22c-.16 0-.29-.05-.4-.14-.11-.09-.16-.21-.16-.37v-1.41h2.38v-.82c0-.31-.01-.6-.02-.88s-.04-.5-.08-.66c-.04-.27-.16-.49-.37-.65-.2-.16-.44-.28-.72-.33-.28-.07-.56-.07-.84-.03-.29.04-.53.13-.74.28-.27.17-.47.42-.59.72s-.18.72-.18 1.27v1.82c0 .76.21 1.31.61 1.63.38.3.78.46 1.19.46h.12c.47-.03.88-.23 1.25-.59.27-.27.4-.62.4-1.05l-.06-.46zm-1.07-1.732h-1.31l.03-.72c0-.16.06-.29.18-.395.12-.11.26-.16.43-.16h.06c.17 0 .33.05.45.14.12.1.19.23.19.4l-.03.72z" fill="#fff"/></g></svg>