<svg width="32" height="232" viewBox="0 0 32 232" xmlns="http://www.w3.org/2000/svg"><g fill="none"><path d="M18.108 22.45c.14 0 .282-.054.39-.162l2.858-2.858c.216-.216.216-.565 0-.78-.215-.216-.564-.216-.78 0l-2.858 2.858c-.215.215-.215.565 0 .78.108.108.25.162.39.162zm-.302 4.67c.14 0 .282-.054.39-.16l4.842-4.843c.215-.216.215-.565 0-.78-.216-.216-.565-.216-.78 0l-4.842 4.842c-.216.21-.216.56 0 .78.108.1.25.16.39.16zm-.167 3.203l-.71.702c-.22.215-.22.564 0 .78.11.108.25.16.39.16s.28-.052.39-.16l.7-.702c.21-.215.21-.564 0-.78-.22-.215-.57-.215-.78 0zm7.24-6.465c-.22-.216-.57-.216-.78 0l-5.11 5.107c-.22.215-.22.565 0 .78.1.108.25.162.39.162s.28-.054.39-.162l5.1-5.107c.21-.216.21-.565 0-.78zM12.47 10.543L9.61 13.4c-.214.217-.214.566 0 .78.11.11.25.163.39.163.143 0 .284-.054.392-.162l2.858-2.85c.215-.21.215-.56 0-.78-.216-.21-.565-.21-.78 0zm-1.907-1.68c-.216-.217-.565-.217-.78 0l-4.842 4.84c-.21.216-.21.565 0 .78.11.108.25.162.39.162.15 0 .29-.054.39-.16l4.85-4.843c.22-.216.22-.565 0-.78zM.848 13.427l-.754.753c-.215.217-.215.566 0 .78.108.11.25.163.39.163.142 0 .283-.054.39-.162l.754-.75c.215-.21.215-.56 0-.78-.215-.21-.565-.21-.78 0zm7.194-6.414c-.216-.215-.565-.215-.78 0l-5.16 5.16c-.215.215-.215.564 0 .78.108.107.25.16.39.16s.283-.053.39-.16l5.16-5.16c.215-.215.215-.564 0-.78zm22.114-1.456c.026-.036.642-.892 1.14-1.89.767-1.546.84-2.597.225-3.213-.27-.277-.65-.417-1.13-.417-1.52 0-3.79 1.51-4.04 1.683l-.08.067-4.81 4.81-2.68-1.125.31-.303c.23-.23.35-.53.35-.84 0-.32-.12-.62-.34-.84l-.95-.95c-.22-.23-.52-.35-.84-.35-.31 0-.61.12-.84.35l-1.38 1.38-5.66-2.37c-.2-.09-.44-.04-.6.12L6.94 3.53c-.118.118-.176.284-.158.45.02.167.112.316.253.406l10.17 6.446-7.28 7.28-3.388-.69c-.18-.04-.37.02-.5.15l-.8.79c-.12.12-.18.285-.16.45.017.168.11.317.252.407l4 2.53-1.68 1.67c-.22.21-.22.56 0 .78.11.1.25.16.39.16s.28-.06.39-.16l1.67-1.67 2.53 3.99c.09.14.24.23.4.25h.06c.14 0 .28-.06.39-.17l.79-.8c.13-.13.19-.32.15-.5l-.68-3.39 7.28-7.28 6.46 10.19c.09.14.24.23.4.25h.06c.15 0 .29-.06.39-.16l1.87-1.87c.15-.16.2-.4.12-.61l-2.37-5.65 1.38-1.38c.22-.226.34-.52.34-.84 0-.32-.13-.616-.35-.84l-.95-.95c-.23-.22-.53-.346-.84-.346-.32 0-.62.12-.84.344l-.31.31-1.14-2.71 4.81-4.8.05-.066zM27.3 3.06c-.304 0-.55.248-.55.553 0 .305.246.552.55.552.117 0 .226.045.307.127.082.082.128.19.128.307 0 .3.247.55.55.55.306 0 .553-.25.553-.55 0-.42-.16-.8-.45-1.09-.29-.29-.677-.45-1.087-.45zm-10.08.263l.06-.025.058.025.948.947.024.06-.024.06-.624.622-1.502-.63 1.06-1.06zm-9.01.508l1.115-1.11 11.28 4.73-2.6 2.6L8.21 3.83zm19.3 9.79l.06-.02.06.03.947.95.024.06-.02.06-1.06 1.06-.63-1.5.63-.62zm1.673 8.96l-1.115 1.12-6.208-9.8 2.6-2.6 4.723 11.28zm-16.406-1.19c-.13.13-.188.32-.15.5l.68 3.39-.096.1-2.29-3.61 1.49-1.49c.22-.21.22-.56 0-.78-.21-.21-.56-.21-.78 0l-1.49 1.49-3.62-2.29.1-.09 3.39.68c.19.04.37-.02.5-.15l16.5-16.51c.65-.43 2.4-1.46 3.39-1.46.12 0 .27.02.35.1.32.32-.23 1.94-1.45 3.64L12.79 21.4z" fill="#3A434E"/><path d="M18.108 62.45c.14 0 .282-.054.39-.162l2.858-2.858c.216-.216.216-.565 0-.78-.215-.216-.564-.216-.78 0l-2.858 2.858c-.215.215-.215.565 0 .78.108.108.25.162.39.162zm-.302 4.67c.14 0 .282-.054.39-.16l4.842-4.843c.215-.216.215-.565 0-.78-.216-.216-.565-.216-.78 0l-4.842 4.842c-.216.21-.216.56 0 .78.108.1.25.16.39.16zm-.167 3.203l-.71.702c-.22.215-.22.564 0 .78.11.108.25.16.39.16s.28-.052.39-.16l.7-.702c.21-.215.21-.564 0-.78-.22-.215-.57-.215-.78 0zm7.24-6.465c-.22-.216-.57-.216-.78 0l-5.11 5.107c-.22.215-.22.565 0 .78.1.108.25.162.39.162s.28-.054.39-.162l5.1-5.107c.21-.216.21-.565 0-.78zM12.47 50.543L9.61 53.4c-.214.217-.214.566 0 .78.11.11.25.163.39.163.143 0 .284-.054.392-.162l2.858-2.85c.215-.21.215-.56 0-.78-.216-.21-.565-.21-.78 0zm-1.907-1.68c-.216-.217-.565-.217-.78 0l-4.842 4.84c-.21.216-.21.565 0 .78.11.108.25.162.39.162.15 0 .29-.054.39-.16l4.85-4.843c.22-.216.22-.565 0-.78zM.848 53.427l-.754.753c-.215.217-.215.566 0 .78.108.11.25.163.39.163.142 0 .283-.054.39-.162l.754-.75c.215-.21.215-.56 0-.78-.215-.21-.565-.21-.78 0zm7.194-6.414c-.216-.215-.565-.215-.78 0l-5.16 5.16c-.215.215-.215.564 0 .78.108.107.25.16.39.16s.283-.053.39-.16l5.16-5.16c.215-.215.215-.564 0-.78zm22.114-1.456c.026-.036.642-.892 1.14-1.89.767-1.546.84-2.597.225-3.213-.27-.277-.65-.417-1.13-.417-1.52 0-3.79 1.51-4.04 1.683l-.08.067-4.81 4.81-2.68-1.125.31-.303c.23-.23.35-.53.35-.84 0-.32-.12-.62-.34-.84l-.95-.95c-.22-.23-.52-.35-.84-.35-.31 0-.61.12-.84.35l-1.38 1.38-5.65-2.37c-.2-.09-.44-.04-.6.12l-1.87 1.86c-.12.11-.17.28-.16.45.02.16.11.31.26.4l10.17 6.44-7.28 7.28-3.39-.68c-.18-.04-.37.02-.5.15l-.79.79c-.12.12-.17.28-.16.45.02.16.11.31.25.4l3.99 2.54-1.67 1.67c-.22.21-.22.56 0 .78.11.11.25.16.39.16s.28-.05.39-.16l1.67-1.67 2.53 3.99c.09.14.24.23.41.25h.06c.15 0 .29-.06.39-.17l.79-.79c.13-.13.19-.32.15-.5l-.68-3.39 7.28-7.28 6.46 10.19c.09.14.24.24.41.26H28c.15 0 .29-.06.39-.16l1.87-1.87c.16-.16.205-.4.12-.606L28 56.824l1.38-1.38c.225-.225.35-.52.35-.84 0-.32-.125-.615-.35-.84l-.95-.95c-.225-.225-.52-.35-.84-.35-.317 0-.615.125-.84.35l-.3.307-1.13-2.71 4.8-4.8.05-.06zM27.3 43.06c-.304 0-.55.248-.55.553 0 .305.246.552.55.552.117 0 .226.045.307.127.082.082.128.19.128.307 0 .3.247.55.55.55.306 0 .553-.25.553-.55 0-.42-.16-.8-.45-1.09-.29-.29-.677-.45-1.087-.45zm-10.08.263l.06-.025.058.025.948.947.024.06-.024.06-.624.622-1.502-.63 1.06-1.06zm-9.01.508l1.115-1.11 11.28 4.73-2.6 2.6-9.794-6.21zm19.3 9.79l.06-.02.06.03.947.95.024.06-.02.06-1.06 1.06-.63-1.5.63-.62zm1.673 8.96l-1.115 1.12-6.208-9.8 2.6-2.6 4.723 11.28zm-16.406-1.19c-.13.13-.188.32-.15.5l.68 3.39-.096.1-2.29-3.61 1.49-1.49c.22-.21.22-.56 0-.78-.21-.21-.56-.21-.78 0l-1.49 1.49-3.62-2.29.1-.09 3.39.68c.19.04.37-.02.5-.15l16.5-16.5c.65-.43 2.4-1.46 3.39-1.46.12 0 .27.02.35.1.32.32-.23 1.94-1.45 3.64L12.78 61.4z" fill="#67737B"/><path d="M18.108 102.45c.14 0 .282-.054.39-.162l2.858-2.858c.216-.216.216-.565 0-.78-.215-.216-.564-.216-.78 0l-2.858 2.858c-.215.215-.215.565 0 .78.108.108.25.162.39.162zm-.302 4.67c.14 0 .282-.054.39-.16l4.842-4.843c.215-.216.215-.565 0-.78-.216-.216-.565-.216-.78 0l-4.842 4.842c-.216.21-.216.56 0 .78.108.1.25.16.39.16zm-.167 3.203l-.71.702c-.22.215-.22.564 0 .78.11.108.25.16.39.16s.28-.052.39-.16l.7-.702c.21-.215.21-.564 0-.78-.22-.215-.57-.215-.78 0zm7.24-6.465c-.22-.216-.57-.216-.78 0l-5.11 5.107c-.22.215-.22.565 0 .78.1.108.25.162.39.162s.28-.054.39-.162l5.1-5.107c.21-.216.21-.565 0-.78zM12.47 90.543L9.61 93.4c-.214.217-.214.566 0 .78.11.11.25.163.39.163.143 0 .284-.054.392-.162l2.858-2.85c.215-.21.215-.56 0-.78-.216-.21-.565-.21-.78 0zm-1.907-1.68c-.216-.217-.565-.217-.78 0l-4.842 4.84c-.21.216-.21.565 0 .78.11.108.25.162.39.162.15 0 .29-.054.39-.16l4.85-4.843c.22-.216.22-.565 0-.78zM.848 93.427l-.754.753c-.215.217-.215.566 0 .78.108.11.25.163.39.163.142 0 .283-.054.39-.162l.754-.75c.215-.21.215-.56 0-.78-.215-.21-.565-.21-.78 0zm7.194-6.414c-.216-.215-.565-.215-.78 0l-5.16 5.16c-.215.215-.215.564 0 .78.108.107.25.16.39.16s.283-.053.39-.16l5.16-5.16c.215-.215.215-.564 0-.78zm22.114-1.456c.026-.036.642-.892 1.14-1.89.767-1.546.84-2.597.225-3.213-.27-.277-.65-.417-1.13-.417-1.52 0-3.79 1.51-4.04 1.683l-.08.067-4.81 4.81-2.68-1.125.31-.303c.23-.23.35-.53.35-.84 0-.32-.12-.62-.34-.84l-.95-.95c-.22-.23-.52-.35-.84-.35-.31 0-.61.12-.84.35l-1.38 1.38-5.65-2.37c-.2-.09-.44-.04-.6.12l-1.87 1.86c-.12.11-.17.28-.16.45.02.16.11.31.26.4l10.17 6.44-7.28 7.28-3.39-.68c-.18-.04-.37.02-.5.15l-.79.79c-.12.12-.17.28-.16.45.02.16.11.31.25.4l4 2.53-1.67 1.67c-.21.22-.21.57 0 .78.11.11.25.16.39.16.15 0 .29-.06.39-.17l1.67-1.67 2.53 3.99c.09.14.24.23.41.25l.06.003c.15 0 .29-.06.39-.16l.8-.797c.13-.13.19-.32.15-.5l-.68-3.39 7.28-7.286 6.46 10.187c.09.14.24.238.41.256H28c.15 0 .29-.05.39-.16l1.867-1.86c.16-.16.208-.4.12-.6L28 96.816l1.38-1.38c.23-.22.35-.52.35-.84 0-.31-.12-.61-.344-.84l-.944-.94c-.23-.227-.526-.35-.84-.35-.32 0-.62.12-.84.345l-.306.3-1.13-2.71 4.81-4.81.054-.07zM27.3 83.06c-.304 0-.55.248-.55.553 0 .305.246.552.55.552.117 0 .226.045.307.127.082.082.128.19.128.307 0 .3.247.55.55.55.306 0 .553-.25.553-.55 0-.42-.16-.8-.45-1.09-.29-.29-.677-.45-1.087-.45zm-10.08.263l.06-.025.058.025.948.947.024.06-.024.06-.624.622-1.502-.63 1.06-1.06zm-9.01.508l1.115-1.11 11.28 4.73-2.6 2.6-9.794-6.21zm19.3 9.79l.06-.02.06.03.947.95.024.06-.02.06-1.06 1.06-.63-1.5.63-.62zm1.673 8.96l-1.115 1.12-6.208-9.8 2.6-2.6 4.723 11.28zm-16.406-1.18c-.13.13-.188.32-.15.5l.68 3.39-.096.1-2.29-3.61 1.49-1.49c.22-.21.22-.56 0-.78-.21-.21-.56-.21-.78 0L10.14 101l-3.62-2.3.1-.097 3.39.68c.19.04.37-.02.5-.15l16.5-16.51c.65-.433 2.4-1.463 3.39-1.463.118 0 .27.02.35.096.32.32-.232 1.94-1.45 3.64l-16.51 16.51z" fill="#fff"/><path d="M18.108 142.45c.14 0 .282-.054.39-.162l2.858-2.858c.216-.216.216-.565 0-.78-.215-.216-.564-.216-.78 0l-2.858 2.858c-.215.215-.215.565 0 .78.108.108.25.162.39.162zm-.302 4.67c.14 0 .282-.054.39-.16l4.842-4.843c.215-.216.215-.565 0-.78-.216-.216-.565-.216-.78 0l-4.842 4.842c-.216.21-.216.56 0 .78.108.1.25.16.39.16zm-.167 3.203l-.71.702c-.22.215-.22.564 0 .78.11.108.25.16.39.16s.28-.052.39-.16l.7-.702c.21-.215.21-.564 0-.78-.22-.215-.57-.215-.78 0zm7.24-6.465c-.22-.216-.57-.216-.78 0l-5.11 5.107c-.22.215-.22.565 0 .78.1.108.25.162.39.162s.28-.054.39-.162l5.1-5.107c.21-.216.21-.565 0-.78zm-12.41-13.315L9.61 133.4c-.214.217-.214.566 0 .78.11.11.25.163.39.163.143 0 .284-.054.392-.162l2.858-2.85c.215-.21.215-.56 0-.78-.216-.21-.565-.21-.78 0zm-1.91-1.68c-.22-.217-.57-.217-.78 0l-4.84 4.84c-.21.216-.21.565 0 .78.11.108.25.162.39.162s.28-.054.39-.16l4.84-4.843c.21-.216.21-.565 0-.78zm-9.72 4.565l-.76.753c-.22.22-.22.57 0 .78.11.11.25.17.39.17s.28-.05.39-.16l.75-.75c.21-.21.21-.56 0-.78-.22-.21-.57-.21-.78 0zm7.19-6.414c-.22-.215-.57-.215-.78 0l-5.16 5.16c-.22.215-.22.564 0 .78.11.107.25.16.39.16s.28-.053.39-.16l5.16-5.16c.21-.215.21-.564 0-.78zm22.11-1.456c.02-.036.64-.892 1.14-1.89.77-1.546.84-2.597.22-3.213-.28-.277-.66-.417-1.13-.417-1.52 0-3.79 1.51-4.05 1.683l-.08.07-4.81 4.81-2.69-1.12.3-.3c.22-.22.35-.52.35-.84 0-.31-.13-.61-.35-.84l-.95-.94c-.22-.22-.52-.35-.84-.35-.32 0-.61.13-.84.35l-1.38 1.38-5.65-2.37c-.2-.08-.44-.04-.6.12l-1.87 1.86c-.12.12-.18.29-.16.45.02.17.11.32.25.41l10.17 6.45-7.28 7.28-3.39-.68c-.18-.04-.37.02-.5.15l-.79.8c-.12.12-.18.29-.16.45.02.17.11.32.25.41l4 2.54-1.68 1.68c-.22.21-.22.56 0 .78.11.11.25.16.39.16s.28-.05.39-.16l1.67-1.67 2.53 3.99c.09.14.24.238.402.25h.06c.15 0 .29-.05.39-.16l.797-.79c.13-.13.19-.32.15-.5l-.68-3.39 7.28-7.28 6.46 10.19c.09.15.24.24.407.26h.06c.15 0 .29-.054.39-.16l1.87-1.862c.16-.154.204-.393.12-.6l-2.37-5.65 1.38-1.38c.225-.222.35-.52.35-.84 0-.314-.125-.612-.35-.84l-.946-.944c-.23-.226-.53-.35-.84-.35-.32 0-.62.12-.84.346l-.31.304-1.133-2.71 4.81-4.805.05-.07zm-2.85-2.498c-.31 0-.55.248-.55.553 0 .305.24.552.55.552.11 0 .22.045.3.127.08.082.13.19.13.307 0 .3.24.55.55.55.3 0 .55-.25.55-.55 0-.42-.16-.8-.45-1.09-.29-.29-.68-.45-1.09-.45zm-10.08.263l.06-.025.06.025.95.947.02.06-.03.06-.63.622-1.51-.63 1.06-1.06zm-9.01.508l1.11-1.11 11.28 4.73-2.6 2.6-9.8-6.21zm19.3 9.79l.06-.02.06.03.94.95.02.06-.02.06-1.06 1.06-.63-1.5.63-.62zm1.67 8.96l-1.12 1.12-6.21-9.79 2.6-2.6 4.72 11.28zm-16.4-1.18c-.13.13-.19.32-.15.5l.68 3.39-.1.1-2.29-3.61 1.49-1.49c.22-.21.22-.56 0-.78-.21-.21-.56-.21-.78 0L10.13 141l-3.62-2.297.1-.1 3.39.684c.18.04.37-.02.5-.15l16.5-16.51c.65-.43 2.4-1.46 3.382-1.46.115 0 .272.017.35.095.32.32-.235 1.94-1.454 3.64l-16.51 16.51z" fill="#206FAC"/></g></svg>