<svg width="32" height="232" viewBox="0 0 32 232" xmlns="http://www.w3.org/2000/svg"><g fill="none"><path d="M30.177 14.358c-1.175-1.175-2.738-1.822-4.4-1.822-.558 0-1.104.074-1.628.215L22.9 9.18h2.55c.34 0 .62.277.62.618 0 .34-.28.62-.62.62-.273 0-.495.22-.495.494s.222.494.495.494c.887 0 1.608-.72 1.608-1.608 0-.886-.72-1.608-1.607-1.608h-3.17c-.27 0-.49.222-.49.495l.01.104c-.01.08-.01.17.02.26l.23.64H11.7l-.166-.6h1.903c.26 0 .476-.2.493-.46.018-.26-.168-.49-.425-.53l-4.398-.6c-.18-.03-.358.05-.465.19-.108.14-.127.34-.05.5l.283.61c.08.17.256.28.448.28h1.19l.29 1.03-1.9 3.01c-.826-.39-1.735-.6-2.677-.6-1.662 0-3.224.64-4.4 1.82-2.426 2.43-2.426 6.37 0 8.8 1.174 1.17 2.738 1.82 4.4 1.82 1.663 0 3.226-.65 4.4-1.83.78-.78 1.325-1.73 1.606-2.77l1.376.25-.325 1.825h-.515c-.273 0-.495.22-.495.497 0 .27.22.492.49.492h1.628c.28 0 .5-.22.5-.497s-.22-.49-.49-.49h-.1l.37-2.108 7.88-9.24.69 1.954c-.67.304-1.3.73-1.84 1.27-2.42 2.424-2.42 6.37 0 8.8 1.18 1.174 2.74 1.82 4.4 1.82 1.67 0 3.23-.646 4.4-1.82 1.19-1.17 1.83-2.74 1.83-4.4s-.65-3.22-1.82-4.4zM9.922 22.46c-.99.99-2.303 1.533-3.7 1.533-1.4 0-2.714-.544-3.702-1.533-2.04-2.04-2.04-5.36 0-7.402.988-.99 2.303-1.533 3.7-1.533.752 0 1.48.16 2.145.458l-2.848 4.512c-.087.14-.1.313-.034.463.066.15.203.26.365.288l5.4.974c-.242.838-.692 1.606-1.326 2.24zm1.51-3.212l-4.686-.845 2.48-3.93c.245.174.48.368.696.585.988.99 1.533 2.303 1.533 3.7l-.023.49zm.976.176c.023-.22.036-.44.036-.665 0-1.67-.647-3.23-1.823-4.41-.27-.27-.56-.51-.86-.72l1.4-2.22 2.28 8.18-1.02-.19zm3.533-2.898c.28 0 .5-.22.5-.494s-.22-.495-.49-.495h-1.63c-.27 0-.49.22-.49.495 0 .273.22.494.5.494h.02l-.29 1.61-2.07-7.453h9.64L15 18.44l.34-1.914h.6zm13.54 5.934c-.99.99-2.3 1.533-3.7 1.533-1.4 0-2.71-.544-3.7-1.533-2.04-2.04-2.04-5.36 0-7.402.44-.434.93-.782 1.47-1.036l1.74 4.976c.07.204.27.332.47.332l.17-.028c.26-.09.4-.372.31-.63l-1.74-4.984c.42-.107.86-.163 1.31-.163 1.4 0 2.71.544 3.7 1.533.99.99 1.53 2.303 1.53 3.7 0 1.4-.54 2.714-1.53 3.702z" fill="#3A434E"/><path d="M30.177 54.358c-1.175-1.175-2.738-1.822-4.4-1.822-.558 0-1.104.074-1.628.215l-1.25-3.57h2.55c.34 0 .62.28.62.62 0 .34-.28.62-.62.62-.28 0-.5.22-.5.5s.22.5.49.5c.88 0 1.6-.72 1.6-1.61 0-.88-.72-1.6-1.61-1.6h-3.17c-.28 0-.5.22-.5.5l.01.11c-.02.09-.02.18.02.26l.22.65H11.7l-.166-.6h1.903c.26 0 .476-.2.493-.46.018-.26-.168-.49-.425-.52l-4.398-.6c-.18-.02-.358.05-.465.2-.108.15-.127.34-.05.51l.283.6c.08.17.256.29.448.29h1.19l.29 1.035-1.9 3c-.827-.392-1.736-.6-2.678-.6-1.662 0-3.224.647-4.4 1.82-2.425 2.426-2.425 6.376 0 8.8C3 64.35 4.563 65 6.225 65c1.663 0 3.226-.65 4.4-1.826.78-.78 1.325-1.73 1.606-2.763l1.38.25-.32 1.83h-.51c-.27 0-.49.22-.49.5 0 .27.22.49.49.49h1.62c.28 0 .5-.22.5-.49s-.22-.49-.49-.49h-.11l.38-2.11 7.88-9.24.69 1.96c-.68.31-1.3.74-1.84 1.28-2.42 2.43-2.42 6.37 0 8.8 1.18 1.18 2.74 1.82 4.4 1.82 1.67 0 3.23-.64 4.4-1.82 1.18-1.17 1.83-2.74 1.83-4.4s-.64-3.22-1.82-4.4zM9.922 62.46c-.99.99-2.303 1.533-3.7 1.533-1.4 0-2.714-.544-3.702-1.533-2.04-2.04-2.04-5.36 0-7.402.988-.99 2.303-1.533 3.7-1.533.752 0 1.48.16 2.145.458l-2.848 4.512c-.087.14-.1.313-.034.463.066.15.203.26.365.288l5.4.974c-.242.838-.692 1.606-1.326 2.24zm1.51-3.212l-4.686-.845 2.48-3.93c.245.174.48.368.696.585.988.99 1.533 2.303 1.533 3.7l-.023.49zm.976.176c.023-.22.036-.44.036-.665 0-1.67-.647-3.23-1.823-4.41-.27-.27-.56-.51-.86-.72l1.4-2.22 2.28 8.18-1.02-.19zm3.533-2.898c.28 0 .5-.22.5-.494s-.22-.495-.49-.495h-1.63c-.27 0-.49.22-.49.495 0 .273.22.494.5.494h.02l-.29 1.61-2.07-7.453h9.64L15 58.44l.34-1.914h.6zm13.54 5.934c-.99.99-2.3 1.533-3.7 1.533-1.4 0-2.71-.544-3.7-1.533-2.04-2.04-2.04-5.36 0-7.402.44-.434.93-.782 1.47-1.036l1.74 4.976c.07.204.27.332.47.332l.17-.028c.26-.09.4-.372.31-.63l-1.74-4.984c.42-.107.86-.163 1.31-.163 1.4 0 2.71.544 3.7 1.533.99.99 1.53 2.303 1.53 3.7 0 1.4-.54 2.714-1.53 3.702z" fill="#67737B"/><path d="M30.177 94.358c-1.175-1.175-2.738-1.822-4.4-1.822-.558 0-1.104.074-1.628.215l-1.25-3.57h2.55c.34 0 .62.28.62.62 0 .34-.28.62-.62.62-.28 0-.5.22-.5.5s.22.5.49.5c.88 0 1.6-.72 1.6-1.61 0-.88-.72-1.6-1.61-1.6h-3.17c-.28 0-.5.22-.5.5l.01.11c-.02.09-.02.18.02.26l.22.65H11.7l-.166-.6h1.903c.26 0 .476-.2.493-.46.018-.26-.168-.49-.425-.52l-4.398-.6c-.18-.02-.358.05-.465.2-.108.15-.127.34-.05.51l.283.6c.08.17.256.29.448.29h1.19l.29 1.035-1.9 3c-.827-.392-1.736-.6-2.678-.6-1.662 0-3.224.647-4.4 1.82-2.426 2.43-2.426 6.377 0 8.8 1.175 1.15 2.738 1.8 4.4 1.8 1.663 0 3.226-.65 4.4-1.823.78-.78 1.325-1.73 1.606-2.765l1.38.25-.32 1.83h-.51c-.27 0-.49.22-.49.5 0 .27.22.5.49.5h1.62c.28 0 .5-.22.5-.49s-.22-.49-.49-.49h-.11l.38-2.11 7.88-9.24.69 1.96c-.68.31-1.3.74-1.84 1.28-2.42 2.42-2.42 6.37 0 8.8 1.18 1.17 2.74 1.82 4.4 1.82 1.67 0 3.23-.65 4.4-1.82 1.18-1.175 1.83-2.74 1.83-4.4s-.64-3.225-1.82-4.4zM9.922 102.46c-.99.99-2.303 1.533-3.7 1.533-1.4 0-2.714-.544-3.702-1.533-2.04-2.04-2.04-5.36 0-7.402.988-.99 2.303-1.533 3.7-1.533.752 0 1.48.16 2.145.458l-2.848 4.512c-.087.14-.1.313-.034.463.066.15.203.26.365.288l5.4.974c-.242.838-.692 1.606-1.326 2.24zm1.51-3.212l-4.686-.845 2.48-3.93c.245.174.48.368.696.585.988.99 1.533 2.303 1.533 3.7l-.023.49zm.976.176c.023-.22.036-.44.036-.665 0-1.67-.647-3.23-1.823-4.41-.27-.27-.56-.51-.86-.72l1.4-2.22 2.28 8.18-1.02-.19zm3.533-2.898c.28 0 .5-.22.5-.494s-.22-.495-.49-.495h-1.63c-.27 0-.49.22-.49.495 0 .273.22.494.5.494h.02l-.29 1.61-2.07-7.453h9.64L15 98.44l.34-1.914h.6zm13.54 5.934c-.99.99-2.3 1.533-3.7 1.533-1.4 0-2.71-.544-3.7-1.533-2.04-2.04-2.04-5.36 0-7.402.44-.434.93-.782 1.47-1.036l1.74 4.976c.07.204.27.332.47.332l.17-.028c.26-.09.39-.372.3-.63l-1.74-4.984c.42-.107.86-.163 1.3-.163 1.4 0 2.71.544 3.7 1.533.99.99 1.54 2.303 1.54 3.7 0 1.4-.54 2.714-1.53 3.702z" fill="#fff"/><path d="M30.177 134.358c-1.175-1.175-2.738-1.822-4.4-1.822-.558 0-1.104.074-1.628.215l-1.25-3.57h2.55c.34 0 .62.28.62.62 0 .34-.28.62-.62.62-.28 0-.5.22-.5.5s.22.5.49.5c.88 0 1.61-.72 1.61-1.61 0-.88-.72-1.61-1.61-1.61h-3.17c-.28 0-.5.22-.5.5l.01.11c-.02.09-.01.17.02.26l.22.65H11.7l-.166-.6h1.903c.26 0 .476-.2.493-.46.018-.26-.168-.49-.425-.52l-4.398-.6c-.18-.02-.358.05-.465.2-.108.15-.127.34-.05.51l.283.61c.08.18.256.29.448.29h1.19l.29 1.04-1.9 3.007c-.824-.39-1.733-.6-2.675-.6-1.662 0-3.224.648-4.4 1.82-2.426 2.43-2.426 6.378 0 8.805 1.175 1.176 2.738 1.824 4.4 1.824 1.663 0 3.226-.643 4.4-1.82.78-.78 1.325-1.73 1.606-2.762l1.377.25-.32 1.82h-.51c-.27 0-.49.22-.49.498 0 .27.22.49.49.49h1.63c.27 0 .5-.22.5-.49s-.22-.496-.49-.496h-.11l.37-2.107 7.88-9.24.68 1.96c-.67.303-1.3.73-1.84 1.27-2.42 2.42-2.42 6.37 0 8.8 1.18 1.17 2.74 1.82 4.4 1.82 1.67 0 3.23-.65 4.4-1.82 1.18-1.18 1.83-2.74 1.83-4.4s-.65-3.23-1.82-4.4zM9.922 142.46c-.99.99-2.303 1.533-3.7 1.533-1.4 0-2.714-.544-3.702-1.533-2.04-2.04-2.04-5.36 0-7.402.988-.99 2.303-1.533 3.7-1.533.752 0 1.48.16 2.145.458l-2.848 4.512c-.087.14-.1.313-.034.463.066.15.203.26.365.288l5.4.974c-.242.838-.692 1.606-1.326 2.24zm1.51-3.212l-4.686-.845 2.48-3.93c.245.174.48.368.696.585.988.99 1.533 2.303 1.533 3.7l-.023.49zm.976.176c.023-.22.036-.44.036-.665 0-1.67-.647-3.23-1.823-4.41-.27-.27-.56-.51-.86-.72l1.4-2.22 2.28 8.18-1.02-.19zm3.533-2.898c.28 0 .5-.22.5-.494s-.22-.495-.49-.495h-1.63c-.27 0-.49.22-.49.495 0 .273.22.494.5.494h.02l-.29 1.61-2.07-7.453h9.64L15 138.44l.34-1.914h.6zm13.54 5.934c-.99.99-2.3 1.533-3.7 1.533-1.4 0-2.71-.544-3.7-1.533-2.04-2.04-2.04-5.36 0-7.402.44-.434.93-.782 1.47-1.036l1.74 4.976c.07.204.27.332.47.332l.17-.028c.26-.09.39-.372.3-.63l-1.74-4.984c.42-.107.86-.163 1.3-.163 1.4 0 2.71.544 3.7 1.533.99.99 1.54 2.303 1.54 3.7 0 1.4-.54 2.714-1.53 3.702z" fill="#206FAC"/></g></svg>