<svg width="32" height="232" viewBox="0 0 32 232" xmlns="http://www.w3.org/2000/svg"><g fill="none"><path d="M28.51 4.43h-.1V2.275c0-.685-.548-1.245-1.23-1.26L16.26.002h-.106l-11.04 1.01c-.682.017-1.23.576-1.23 1.262V4.43H3.75c-1.24 0-2.25 1.01-2.25 2.25v4.388c0 1.24 1.01 2.25 2.25 2.25h.133v3.025c-.044.125-.044.26 0 .385v8.086h-.01c-.322 0-.585.263-.585.586 0 .324.263.587.586.587h.01v1.515c0 .696.565 1.262 1.26 1.262h.125v1.817c0 .79.63 1.42 1.42 1.42h2.56c.78 0 1.42-.63 1.42-1.42v-1.81h10.95v1.82c0 .79.63 1.42 1.42 1.42h2.56c.78 0 1.42-.63 1.42-1.42v-1.82h.12c.69 0 1.26-.56 1.26-1.26v-1.52h.01c.32 0 .58-.26.58-.58 0-.32-.27-.58-.59-.58h-.01v-8.09c.04-.12.04-.26 0-.38v-3.03h.1c1.24 0 2.25-1.01 2.25-2.25v-4.4c0-1.24-1.01-2.24-2.25-2.24zM3.847 12.145H3.75c-.595 0-1.078-.483-1.078-1.077v-4.39c0-.593.483-1.076 1.078-1.076h.098v6.543zm1.207-6.43h4.24v.86c0 .323.26.585.585.585h5.68v11.952c-3.92 0-7.62-.072-10.51-2.793V5.71zm5.41-1.224h11.362v1.5h-11.36v-1.5zM9.5 30.58c0 .137-.11.248-.247.248H6.69c-.138 0-.25-.11-.25-.247v-1.81H9.5v1.82zm16.354 0c0 .137-.11.248-.247.248h-2.562c-.137 0-.248-.11-.248-.247v-1.81h3.057v1.82zm1.386-3.078c0 .05-.04.09-.09.09H5.145c-.05 0-.09-.04-.09-.09v-1.515H27.24v1.515zm-22.09-2.85V23.45h4.64c.783 0 1.45.505 1.693 1.205H5.148zm15.664 0c.243-.7.91-1.204 1.692-1.204h4.642v1.205h-6.334zm6.426-2.376h-4.734c-1.49 0-2.725 1.105-2.932 2.538h-6.85c-.208-1.433-1.444-2.538-2.933-2.538H5.06v-4.42c3.096 2.372 6.87 2.43 10.555 2.43h.804c3.76 0 7.65 0 10.82-2.43v4.42zm0-9.545v3.59c-2.888 2.72-6.584 2.8-10.505 2.8V7.16h5.68c.324 0 .586-.262.586-.586v-.858h4.24v7.015zm0-8.18H23v-.64c0-.32-.26-.58-.585-.58H9.88c-.324 0-.586.27-.586.59v.64h-4.24V2.28c0-.05.04-.09.09-.09l.054-.002 11.01-1.008 10.887 1.007.054.003c.04 0 .08.04.08.09v2.268zm2.35 6.53c0 .6-.485 1.08-1.08 1.08h-.098V5.6h.1c.593 0 1.077.483 1.077 1.077v4.384z" fill="#3A434E"/><path d="M28.51 44.43h-.1v-2.155c0-.685-.548-1.245-1.23-1.26l-10.92-1.012h-.106l-11.04 1.01c-.682.017-1.23.576-1.23 1.262v2.155H3.75c-1.24 0-2.25 1.01-2.25 2.25v4.388c0 1.24 1.01 2.25 2.25 2.25h.133v3.025c-.044.125-.044.26 0 .385v8.086h-.01c-.322 0-.585.263-.585.586 0 .324.263.587.586.587h.01v1.515c0 .696.565 1.262 1.26 1.262h.125v1.817c0 .79.63 1.42 1.42 1.42h2.56c.78 0 1.42-.63 1.42-1.42v-1.81h10.95v1.82c0 .79.63 1.42 1.42 1.42h2.56c.78 0 1.42-.63 1.42-1.42v-1.82h.12c.69 0 1.26-.56 1.26-1.26v-1.52h.01c.32 0 .58-.26.58-.58 0-.32-.27-.58-.59-.58h-.01v-8.09c.04-.12.04-.26 0-.38v-3.03h.1c1.24 0 2.25-1.01 2.25-2.25v-4.39c0-1.24-1.01-2.24-2.25-2.24zM3.847 52.145H3.75c-.595 0-1.078-.483-1.078-1.077v-4.39c0-.593.483-1.076 1.078-1.076h.098v6.543zm1.207-6.43h4.24v.86c0 .323.26.585.585.585h5.68v11.952c-3.92 0-7.62-.072-10.51-2.793V45.71zm5.41-1.224h11.362v1.5h-11.36v-1.5zM9.5 70.58c0 .137-.11.248-.247.248H6.69c-.138 0-.25-.11-.25-.247v-1.81H9.5v1.82zm16.354 0c0 .137-.11.248-.247.248h-2.562c-.137 0-.248-.11-.248-.247v-1.81h3.057v1.82zm1.386-3.078c0 .05-.04.09-.09.09H5.145c-.05 0-.09-.04-.09-.09v-1.515H27.24v1.515zm-22.09-2.85V63.45h4.64c.783 0 1.45.505 1.693 1.205H5.148zm15.664 0c.243-.7.91-1.204 1.692-1.204h4.642v1.205h-6.334zm6.426-2.376h-4.734c-1.49 0-2.725 1.105-2.932 2.538h-6.85c-.208-1.433-1.444-2.538-2.933-2.538H5.06v-4.42c3.096 2.372 6.87 2.43 10.555 2.43h.804c3.76 0 7.65 0 10.82-2.43v4.42zm0-9.545v3.59c-2.888 2.72-6.584 2.8-10.505 2.8V47.16h5.68c.324 0 .586-.262.586-.586v-.858h4.24v7.015zm0-8.18H23v-.64c0-.32-.26-.58-.585-.58H9.88c-.324 0-.586.27-.586.59v.64h-4.24v-2.27c0-.05.04-.09.09-.09h.054l11.01-1.01 10.887 1.01.054.01c.04 0 .08.04.08.09v2.27zm2.35 6.53c0 .6-.485 1.08-1.08 1.08h-.098v-6.55h.1c.593 0 1.077.49 1.077 1.08v4.39z" fill="#67737B"/><path d="M28.51 84.43h-.1v-2.155c0-.685-.548-1.245-1.23-1.26l-10.92-1.012h-.106l-11.04 1.01c-.682.017-1.23.576-1.23 1.262v2.155H3.75c-1.24 0-2.25 1.01-2.25 2.25v4.388c0 1.24 1.01 2.25 2.25 2.25h.133v3.025c-.044.125-.044.26 0 .385v8.086h-.01c-.322 0-.585.263-.585.586 0 .324.263.587.586.587h.01v1.515c0 .696.565 1.262 1.26 1.262h.125v1.817c0 .79.63 1.42 1.42 1.42h2.56c.78 0 1.42-.63 1.42-1.42v-1.81h10.95v1.82c0 .79.63 1.42 1.42 1.42h2.56c.78 0 1.42-.63 1.42-1.42v-1.81h.12c.69 0 1.26-.56 1.26-1.26V106h.01c.32 0 .58-.264.58-.588 0-.323-.27-.586-.59-.586h-.01v-8.09c.04-.126.04-.26 0-.386v-3.03h.1c1.24 0 2.25-1.01 2.25-2.25v-4.39c0-1.24-1.01-2.248-2.25-2.248zM3.847 92.145H3.75c-.595 0-1.078-.483-1.078-1.077v-4.39c0-.593.483-1.076 1.078-1.076h.098v6.543zm1.207-6.43h4.24v.86c0 .323.26.585.585.585h5.68v11.952c-3.92 0-7.62-.072-10.51-2.793V85.71zm5.41-1.224h11.362v1.5h-11.36v-1.5zM9.5 110.58c0 .137-.11.248-.247.248H6.69c-.138 0-.25-.11-.25-.247v-1.81H9.5v1.82zm16.354 0c0 .137-.11.248-.247.248h-2.562c-.137 0-.248-.11-.248-.247v-1.81h3.057v1.82zm1.386-3.078c0 .05-.04.09-.09.09H5.145c-.05 0-.09-.04-.09-.09v-1.515H27.24v1.515zm-22.09-2.85v-1.204h4.64c.783 0 1.45.505 1.693 1.205H5.148zm15.664 0c.243-.7.91-1.204 1.692-1.204h4.642v1.205h-6.334zm6.426-2.376h-4.734c-1.49 0-2.725 1.105-2.932 2.538h-6.85c-.208-1.433-1.444-2.538-2.933-2.538H5.06v-4.42c3.096 2.372 6.87 2.43 10.555 2.43h.804c3.76 0 7.65 0 10.82-2.43v4.42zm0-9.545v3.59c-2.888 2.72-6.584 2.8-10.505 2.8V87.16h5.68c.324 0 .586-.262.586-.586v-.858h4.24v7.015zm0-8.18H23v-.64c0-.32-.26-.58-.585-.58H9.88c-.324 0-.586.27-.586.59v.64h-4.24v-2.27c0-.05.04-.09.09-.09h.054l11.01-1.01 10.887 1.01.054.01c.04 0 .08.04.08.09v2.27zm2.35 6.53c0 .6-.485 1.08-1.08 1.08h-.098v-6.55h.1c.593 0 1.077.49 1.077 1.08v4.39z" fill="#fff"/><path d="M28.51 124.43h-.1v-2.155c0-.685-.548-1.245-1.23-1.26l-10.92-1.012h-.106l-11.04 1.01c-.682.017-1.23.576-1.23 1.262v2.155H3.75c-1.24 0-2.25 1.01-2.25 2.25v4.388c0 1.24 1.01 2.25 2.25 2.25h.133v3.025c-.044.125-.044.26 0 .385v8.086h-.01c-.322 0-.585.263-.585.586 0 .324.263.587.586.587h.01v1.515c0 .696.565 1.262 1.26 1.262h.125v1.817c0 .79.63 1.42 1.42 1.42h2.56c.78 0 1.42-.63 1.42-1.42v-1.81h10.95v1.82c0 .79.63 1.42 1.42 1.42h2.56c.78 0 1.42-.63 1.42-1.42v-1.81h.12c.69 0 1.26-.56 1.26-1.26V146h.01c.32 0 .58-.264.58-.588 0-.323-.27-.586-.59-.586h-.01v-8.088c.04-.124.04-.26 0-.384v-3.025h.1c1.24 0 2.25-1.01 2.25-2.25v-4.39c0-1.24-1.01-2.25-2.25-2.25zm-24.662 7.715H3.75c-.595 0-1.078-.483-1.078-1.077v-4.39c0-.593.483-1.076 1.078-1.076h.098v6.543zm1.207-6.43h4.24v.86c0 .323.26.585.585.585h5.68v11.952c-3.92 0-7.617-.072-10.505-2.793v-10.61zm5.41-1.224h11.362v1.5h-11.36v-1.49zM9.5 150.58c0 .137-.11.248-.247.248H6.69c-.138 0-.25-.11-.25-.247v-1.81H9.5v1.82zm16.354 0c0 .137-.11.248-.247.248h-2.562c-.137 0-.248-.11-.248-.247v-1.81h3.057v1.82zm1.386-3.078c0 .05-.04.09-.09.09H5.145c-.05 0-.09-.04-.09-.09v-1.515H27.24v1.515zm-22.09-2.85v-1.204h4.64c.783 0 1.45.505 1.693 1.205H5.148zm15.664 0c.243-.7.91-1.204 1.692-1.204h4.642v1.205h-6.334zm6.426-2.376h-4.734c-1.49 0-2.725 1.105-2.932 2.538h-6.85c-.208-1.433-1.444-2.538-2.933-2.538H5.06v-4.42c3.096 2.372 6.87 2.43 10.555 2.43h.804c3.76 0 7.65 0 10.82-2.43v4.42zm0-9.545v3.59c-2.888 2.72-6.584 2.8-10.505 2.8v-11.96h5.68c.324 0 .586-.26.586-.58v-.86h4.24v7.02zm0-8.18H23v-.64c0-.32-.26-.58-.585-.58H9.88c-.324 0-.586.27-.586.59v.64h-4.24v-2.27c0-.05.04-.09.09-.09h.054l11.01-1.01 10.887 1.01.054.01c.04 0 .08.04.08.09v2.27zm2.35 6.53c0 .6-.485 1.08-1.08 1.08h-.098v-6.54h.1c.593 0 1.077.49 1.077 1.08v4.39z" fill="#206FAC"/></g></svg>