<svg width="32" height="232" viewBox="0 0 32 232" xmlns="http://www.w3.org/2000/svg"><g fill="none"><path d="M28.477 21.26c0-3.292-.594-6.337-1.63-8.356h-.002c-1.013-1.973-2.15-2.387-2.926-2.387l-.06.002-.05-.01h-5.8v-.5h.82c1.43 0 2.67-.81 3.14-2.06.47-1.24.08-2.57-1.04-3.56l-3.39-3.18h1.76c.34 0 .61-.28.61-.61 0-.34-.27-.61-.61-.61h-6.08c-.34 0-.61.27-.61.61 0 .33.27.61.61.61h2.53l4.35 4.07.01.01c.74.65 1 1.46.71 2.22-.29.77-1.08 1.26-2.01 1.26h-.85c-.07-.26-.3-.46-.59-.46-.28 0-.52.2-.59.46h-1.66c-.07-.26-.31-.46-.59-.46-.29 0-.52.19-.59.46h-.52c-.33 0-.61.27-.61.61 0 .33.28.61.61.61h.5v.5h-5.9c-.777 0-1.91.41-2.928 2.38-1.03 2.02-1.625 5.07-1.625 8.36 0 2.34.3 4.55.86 6.41.85 2.8 2.16 4.34 3.693 4.34H23.9c1.53 0 2.844-1.54 3.694-4.33.567-1.86.865-4.08.865-6.42zm-1.905 5.624h-.936c.423-1.68.646-3.607.646-5.625 0-2.84-.444-5.5-1.23-7.47h.87c.84 1.83 1.336 4.59 1.336 7.46 0 2.04-.237 3.97-.686 5.62zm-18.97 0c-.45-1.65-.687-3.584-.687-5.625 0-2.88.496-5.64 1.337-7.47h7.127v4.33l-6.57 4.37c-.29.18-.36.56-.18.84.11.17.31.27.51.27.11 0 .23-.04.33-.1l5.89-3.92v2.3l-.77.5c-.28.19-.36.57-.17.85.11.18.31.27.5.27.11 0 .23-.03.33-.1l.09-.06v3.52H7.6zm8.997-4.336l6.57-4.362c.28-.186.35-.564.17-.845-.19-.28-.57-.35-.85-.17l-5.89 3.92v-2.3l.76-.5c.28-.19.35-.56.17-.84-.19-.28-.57-.35-.85-.17l-.09.06V13.8h7.12c.84 1.835 1.33 4.587 1.33 7.466 0 2.04-.24 3.973-.69 5.623H16.6v-4.34zm-1.42-12.53h1.61v.5h-1.61v-.5zm-7.13 1.72h15.67l.13.004.06-.005c.42 0 .86.29 1.29.836H6.77c.42-.545.863-.836 1.288-.836zm-2 2.052h.87c-.79 1.973-1.23 4.628-1.23 7.467 0 2.017.22 3.943.64 5.624H5.4c-.45-1.65-.685-3.58-.685-5.62 0-2.88.498-5.63 1.338-7.47zm17.87 16.99l-.07-.007-.13.006H8.05c-.79 0-1.623-1.01-2.26-2.68h20.38c-.63 1.66-1.46 2.67-2.25 2.67z" fill="#3A434E"/><path d="M28.477 61.26c0-3.292-.594-6.337-1.63-8.356h-.002c-1.013-1.973-2.15-2.387-2.926-2.387l-.06.002-.05-.01h-5.8v-.5h.82c1.43 0 2.67-.81 3.14-2.06.47-1.24.08-2.57-1.04-3.56l-3.39-3.18h1.76c.34 0 .61-.28.61-.61 0-.34-.27-.61-.61-.61h-6.08c-.34 0-.61.27-.61.61 0 .33.27.61.61.61h2.53l4.35 4.07.01.01c.74.65 1 1.46.71 2.22-.29.77-1.08 1.26-2.01 1.26h-.85c-.07-.26-.3-.46-.59-.46-.28 0-.52.2-.59.46h-1.66c-.07-.26-.31-.46-.59-.46-.29 0-.52.19-.59.46h-.52c-.33 0-.61.27-.61.61 0 .33.28.61.61.61h.5v.5h-5.9c-.777 0-1.91.41-2.928 2.38-1.03 2.02-1.625 5.07-1.625 8.36 0 2.34.3 4.55.86 6.41.85 2.8 2.16 4.34 3.693 4.34H23.9c1.53 0 2.844-1.54 3.694-4.33.567-1.86.865-4.08.865-6.42zm-1.905 5.624h-.936c.423-1.68.646-3.607.646-5.625 0-2.84-.444-5.5-1.23-7.47h.87c.84 1.83 1.336 4.59 1.336 7.46 0 2.04-.237 3.97-.686 5.62zm-18.97 0c-.45-1.65-.687-3.584-.687-5.625 0-2.88.496-5.64 1.337-7.47h7.127v4.33l-6.57 4.37c-.29.18-.36.56-.18.84.11.17.31.27.51.27.11 0 .23-.04.33-.1l5.89-3.92v2.3l-.77.5c-.28.19-.36.57-.17.85.11.18.31.27.5.27.11 0 .23-.03.33-.1l.09-.06v3.52H7.6zm8.997-4.336l6.57-4.362c.28-.186.35-.564.17-.845-.19-.28-.57-.35-.85-.17l-5.89 3.92v-2.3l.76-.5c.28-.19.35-.56.17-.84-.19-.28-.57-.35-.85-.17l-.09.06V53.8h7.12c.84 1.835 1.33 4.587 1.33 7.466 0 2.04-.24 3.973-.69 5.623H16.6v-4.34zm-1.42-12.53h1.61v.5h-1.61v-.5zm-7.13 1.72h15.67l.13.004.06-.005c.42 0 .86.29 1.29.836H6.77c.42-.545.863-.836 1.288-.836zm-2 2.052h.87c-.79 1.973-1.23 4.628-1.23 7.467 0 2.017.22 3.943.64 5.624H5.4c-.45-1.65-.685-3.58-.685-5.62 0-2.88.498-5.63 1.338-7.47zm17.87 16.99l-.07-.007-.13.006H8.05c-.79 0-1.623-1.01-2.26-2.68h20.38c-.63 1.66-1.46 2.67-2.25 2.67z" fill="#67737B"/><path d="M28.477 101.26c0-3.292-.594-6.337-1.63-8.356h-.002c-1.013-1.973-2.15-2.387-2.926-2.387l-.06.002-.05-.01h-5.8v-.5h.82c1.43 0 2.67-.81 3.14-2.06.47-1.24.08-2.57-1.04-3.56l-3.39-3.18h1.76c.34 0 .61-.28.61-.61 0-.34-.27-.61-.61-.61h-6.08c-.34 0-.61.27-.61.61 0 .33.27.61.61.61h2.53l4.35 4.07.01.01c.74.65 1 1.46.71 2.22-.29.77-1.08 1.26-2.01 1.26h-.85c-.07-.26-.3-.46-.59-.46-.28 0-.52.2-.59.46h-1.66c-.07-.26-.31-.46-.59-.46-.29 0-.52.19-.59.46h-.52c-.33 0-.61.27-.61.61 0 .33.28.61.61.61h.5v.5h-5.9c-.777 0-1.91.41-2.928 2.38-1.037 2.01-1.63 5.06-1.63 8.35 0 2.34.3 4.55.862 6.41.85 2.79 2.16 4.33 3.69 4.33H23.9c1.53 0 2.843-1.54 3.693-4.33.563-1.86.86-4.07.86-6.42zm-1.905 5.624h-.936c.423-1.68.646-3.607.646-5.625 0-2.84-.444-5.5-1.23-7.47h.87c.84 1.83 1.336 4.59 1.336 7.46 0 2.04-.237 3.97-.686 5.62zm-18.97 0c-.45-1.65-.687-3.584-.687-5.625 0-2.88.496-5.64 1.337-7.47h7.127v4.33l-6.57 4.36c-.29.18-.36.56-.18.84.11.17.31.27.51.27.11 0 .23-.04.33-.11l5.89-3.91v2.3l-.77.5c-.28.18-.36.56-.17.84.11.18.31.27.5.27.11 0 .23-.04.33-.11l.09-.06v3.53H7.6zm8.997-4.336l6.57-4.362c.28-.186.35-.564.17-.845-.19-.28-.57-.35-.85-.17l-5.9 3.92v-2.3l.76-.51c.28-.18.35-.56.17-.84-.19-.28-.57-.35-.85-.17l-.09.06V93.8h7.12c.84 1.835 1.33 4.587 1.33 7.466 0 2.04-.24 3.974-.69 5.624H16.6v-4.337zm-1.42-12.53h1.61v.5h-1.61v-.5zm-7.13 1.72h15.67l.13.004.06-.005c.42 0 .86.29 1.29.836H6.77c.42-.545.863-.836 1.288-.836zm-2 2.052h.87c-.79 1.973-1.23 4.628-1.23 7.467 0 2.017.22 3.943.64 5.624H5.4c-.45-1.65-.685-3.58-.685-5.62 0-2.88.498-5.63 1.338-7.47zm17.86 16.99l-.07-.007-.13.006H8.05c-.79 0-1.623-1.01-2.26-2.68h20.38c-.63 1.66-1.46 2.67-2.25 2.67z" fill="#fff"/><path d="M28.477 141.26c0-3.292-.594-6.337-1.63-8.356h-.002c-1.013-1.973-2.15-2.387-2.926-2.387l-.06.002-.05-.01h-5.8v-.5h.82c1.43 0 2.67-.81 3.14-2.06.47-1.24.08-2.57-1.04-3.56l-3.4-3.19h1.76c.33 0 .61-.28.61-.61 0-.34-.28-.61-.61-.61h-6.08c-.34 0-.61.27-.61.61 0 .33.27.61.61.61h2.53l4.35 4.07.01.01c.74.65 1 1.46.71 2.22-.29.77-1.08 1.26-2.01 1.26h-.85c-.07-.27-.31-.46-.59-.46-.28 0-.52.19-.59.45h-1.65c-.07-.26-.3-.46-.59-.46s-.52.2-.59.46h-.52c-.33 0-.61.27-.61.61 0 .34.28.61.61.61h.494v.5h-5.9c-.775 0-1.91.41-2.926 2.38-1.04 2.02-1.63 5.06-1.63 8.35 0 2.34.3 4.56.863 6.415.85 2.79 2.164 4.324 3.695 4.324H23.9c1.53 0 2.845-1.54 3.695-4.33.57-1.86.868-4.08.868-6.42zm-1.905 5.624h-.936c.423-1.68.646-3.607.646-5.625 0-2.84-.444-5.5-1.23-7.47h.87c.84 1.83 1.336 4.59 1.336 7.46 0 2.04-.237 3.97-.686 5.62zm-18.97 0c-.45-1.65-.687-3.584-.687-5.625 0-2.88.496-5.64 1.337-7.47h7.127v4.33l-6.57 4.36c-.29.18-.36.56-.18.84.11.17.31.27.51.27.11 0 .23-.04.33-.11l5.89-3.91v2.3l-.77.5c-.28.18-.36.56-.17.84.11.18.31.27.5.27.11 0 .23-.04.33-.11l.09-.06v3.53H7.6zm8.997-4.336l6.57-4.362c.28-.186.35-.564.17-.845-.19-.28-.57-.35-.85-.17l-5.9 3.92v-2.3l.76-.51c.28-.18.35-.56.17-.84-.19-.28-.57-.35-.85-.17l-.09.06v-3.53h7.12c.84 1.84 1.33 4.59 1.33 7.47 0 2.04-.24 3.98-.69 5.63H16.6v-4.33zm-1.42-12.53h1.61v.5h-1.61v-.5zm-7.13 1.72h15.67l.13.004.06-.005c.42 0 .86.29 1.29.836H6.77c.42-.545.863-.836 1.288-.836zm-2 2.054h.87c-.79 1.973-1.23 4.628-1.23 7.467 0 2.01.22 3.94.64 5.62H5.4c-.45-1.65-.685-3.59-.685-5.63 0-2.88.495-5.63 1.335-7.47zm17.87 16.99l-.07-.007-.13.006H8.05c-.79 0-1.622-1-2.26-2.67h20.38c-.63 1.67-1.46 2.68-2.25 2.68z" fill="#206FAC"/></g></svg>