<svg width="32" height="232" viewBox="0 0 32 232" xmlns="http://www.w3.org/2000/svg"><g fill="none"><path d="M30.015 8.988H26.8V6.082c0-.105-.028-.208-.084-.298l-.87-1.425-.04-.17-.828-2.04c-.09-.22-.3-.36-.534-.36H7.717c-.234 0-.445.14-.533.35l-.812 1.99-1 1.63c-.054.09-.084.19-.084.3v2.91H2.074c-.318 0-.576.25-.576.57v.67c0 1.21.992 2.2 2.21 2.2h1.47C3.4 13.74 2.245 15.84 2.245 18.2v8.08c0 .29.21.52.483.57v1.79c0 .767.624 1.39 1.393 1.39h2.52c.77 0 1.4-.623 1.4-1.39v-1.78h16.02v1.78c0 .767.63 1.39 1.4 1.39h2.52c.77 0 1.4-.623 1.4-1.39v-1.79c.27-.043.48-.28.48-.564v-8.084c0-2.364-1.15-4.462-2.93-5.768h1.47c1.22 0 2.21-.99 2.21-2.204v-.67c0-.31-.25-.57-.57-.57zm-21.91-6.04h15.952l.362.885H7.74l.36-.885zM6.442 9.563v-3.32l.772-1.26H24.88l.77 1.26v5.45c-.91-.418-1.924-.652-2.993-.652H18.88l3.395-3.38c.225-.22.225-.59 0-.81-.225-.22-.59-.22-.815 0l-3.884 3.87c-.092.09-.144.21-.16.33h-6.3l3.394-3.39c.228-.22.228-.59 0-.81-.222-.22-.586-.22-.81 0l-3.886 3.87c-.092.09-.145.21-.16.33h-.22c-1.068 0-2.082.24-2.994.66V9.56zM3.71 11.29c-.584 0-1.06-.474-1.06-1.056v-.097h2.64v1.152H3.71zm3.174 17.35c0 .134-.11.243-.243.243H4.13c-.134 0-.242-.11-.242-.242v-1.78H6.89v1.78zM3.4 24.49h25.29v1.222H3.4V24.49zm9.948-6.932h1.035l-.005.042v5.74H13.35V17.6l-.003-.042zm2.18 0h1.034l-.005.042v5.74H15.53V17.6l-.004-.042zm2.178 0h1.035v5.782h-1.03v-5.782zm10.26 11.325H25.45c-.137 0-.246-.11-.246-.242v-1.78h3.003v1.78c0 .14-.108.25-.243.25zm.724-10.677v5.136h-8.802v-5.74l-.004-.043h1.85c.26 1.1 1.255 1.92 2.44 1.92 1.383 0 2.508-1.12 2.508-2.5s-1.125-2.5-2.508-2.5c-1.185 0-2.18.82-2.44 1.92h-11.38c-.262-1.11-1.256-1.93-2.44-1.93-1.384 0-2.51 1.12-2.51 2.5s1.126 2.5 2.51 2.5c1.184 0 2.178-.83 2.44-1.93h1.85l-.006.04v5.74h-8.8V18.2c0-3.317 2.706-6.016 6.034-6.016h13.222c3.328 0 6.035 2.7 6.035 6.016zm-5.872-1.222c0-.745.608-1.352 1.356-1.352.748 0 1.356.607 1.356 1.352 0 .746-.608 1.353-1.356 1.353-.748 0-1.356-.607-1.356-1.353zm-13.548 0c0 .746-.61 1.353-1.356 1.353-.748 0-1.356-.607-1.356-1.353 0-.745.608-1.352 1.356-1.352.747 0 1.356.607 1.356 1.352zm20.168-6.75c0 .582-.475 1.055-1.06 1.055H26.8v-1.16h2.64v.09z" fill="#3A434E"/><path d="M30.015 48.988H26.8v-2.906c0-.105-.028-.208-.084-.298l-.87-1.425-.04-.17-.828-2.04c-.09-.22-.3-.36-.534-.36H7.717c-.234 0-.445.14-.533.35l-.812 1.99-1 1.63c-.054.09-.084.19-.084.3v2.9H2.074c-.318 0-.576.25-.576.57v.67c0 1.22.992 2.21 2.21 2.21h1.47C3.4 53.74 2.245 55.84 2.245 58.2v8.08c0 .29.21.52.483.57v1.79c0 .767.624 1.39 1.393 1.39h2.52c.77 0 1.4-.623 1.4-1.39v-1.78h16.02v1.78c0 .767.63 1.39 1.4 1.39h2.52c.77 0 1.4-.623 1.4-1.39v-1.79c.27-.043.48-.28.48-.564v-8.084c0-2.364-1.15-4.462-2.93-5.768h1.47c1.22 0 2.21-.99 2.21-2.204v-.67c0-.313-.25-.57-.57-.57zm-21.91-6.04h15.952l.362.885H7.74l.36-.885zM6.44 49.563v-3.32l.773-1.26H24.88l.77 1.26v5.45c-.91-.418-1.925-.652-2.994-.652H18.88l3.395-3.38c.225-.22.225-.59 0-.81-.225-.22-.59-.22-.815 0l-3.884 3.87c-.092.09-.144.21-.16.33h-6.3l3.395-3.38c.23-.22.23-.59 0-.81-.22-.22-.58-.22-.81 0l-3.88 3.86c-.09.09-.14.21-.16.33h-.22c-1.06 0-2.08.24-2.99.66v-2.14zM3.71 51.29c-.584 0-1.06-.474-1.06-1.056v-.097h2.64v1.152H3.71zm3.174 17.35c0 .134-.11.243-.243.243H4.13c-.134 0-.242-.11-.242-.242v-1.78H6.89v1.78zM3.4 64.49h25.29v1.222H3.4V64.49zm9.948-6.932h1.035l-.005.042v5.74H13.35V57.6l-.003-.042zm2.18 0h1.034l-.005.042v5.74H15.53V57.6l-.004-.042zm2.178 0h1.035v5.782h-1.03v-5.782zm10.26 11.324H25.45c-.137 0-.246-.11-.246-.242v-1.78h3.003v1.78c0 .133-.108.242-.243.242zm.724-10.677v5.136h-8.802V57.6l-.004-.042h1.85c.26 1.103 1.255 1.926 2.44 1.926 1.383 0 2.508-1.12 2.508-2.5 0-1.378-1.125-2.5-2.508-2.5-1.185 0-2.18.824-2.44 1.927h-11.38c-.262-1.1-1.256-1.92-2.44-1.92-1.384 0-2.51 1.12-2.51 2.5s1.126 2.5 2.51 2.5c1.184 0 2.178-.82 2.44-1.92h1.85l-.006.04v5.74h-8.8v-5.14c0-3.31 2.706-6.01 6.034-6.01h13.222c3.328 0 6.035 2.7 6.035 6.02zm-5.872-1.222c0-.745.608-1.352 1.356-1.352.748 0 1.356.61 1.356 1.36 0 .75-.608 1.36-1.356 1.36-.748 0-1.356-.6-1.356-1.35zm-13.548 0c0 .746-.61 1.353-1.356 1.353-.748 0-1.356-.607-1.356-1.353 0-.745.608-1.352 1.356-1.352.747 0 1.356.61 1.356 1.36zm20.168-6.75c0 .582-.475 1.055-1.06 1.055H26.8v-1.152h2.64v.097z" fill="#67737B"/><path d="M30.015 88.988H26.8v-2.906c0-.105-.028-.208-.084-.298l-.87-1.425-.04-.17-.828-2.04c-.09-.22-.3-.36-.534-.36H7.717c-.234 0-.445.14-.533.35l-.812 1.99-1 1.63c-.054.09-.084.19-.084.3v2.9H2.074c-.318 0-.576.25-.576.57v.67c0 1.22.992 2.21 2.21 2.21h1.47C3.4 93.74 2.245 95.84 2.245 98.2v8.08c0 .29.21.52.483.57v1.79c0 .767.624 1.39 1.393 1.39h2.52c.77 0 1.4-.623 1.4-1.39v-1.78h16.02v1.78c0 .767.63 1.39 1.4 1.39h2.52c.77 0 1.4-.623 1.4-1.39v-1.79c.27-.043.48-.28.48-.564v-8.084c0-2.364-1.15-4.462-2.93-5.768h1.47c1.22 0 2.21-.99 2.21-2.204v-.67c0-.313-.25-.57-.57-.57zm-21.91-6.04h15.952l.362.885H7.74l.36-.885zM6.44 89.563v-3.32l.773-1.26H24.88l.77 1.26v5.45c-.91-.418-1.925-.652-2.994-.652H18.88l3.395-3.38c.225-.22.225-.59 0-.81-.225-.22-.59-.22-.815 0l-3.884 3.87c-.092.1-.144.21-.16.33h-6.3l3.395-3.38c.23-.22.23-.59 0-.81-.22-.22-.58-.22-.81 0l-3.88 3.87c-.09.1-.14.21-.16.33h-.22c-1.07 0-2.08.24-2.99.65v-2.14zm-2.73 1.725c-.583 0-1.06-.473-1.06-1.055v-.097h2.64v1.152H3.71zm3.175 17.352c0 .133-.11.242-.243.242H4.125c-.134 0-.242-.11-.242-.242v-1.78h3.002v1.78zM3.4 104.488h25.29v1.223H3.4v-1.22zm9.948-6.93h1.035l-.005.04v5.742H13.35V97.6l-.003-.043zm2.18 0h1.034l-.005.04v5.742H15.53V97.6l-.004-.043zm2.178 0h1.035v5.782h-1.03v-5.783zm10.26 11.324H25.45c-.137 0-.246-.11-.246-.242v-1.78h3.003v1.78c0 .133-.108.242-.243.242zm.724-10.677v5.136h-8.802V97.6l-.004-.042h1.85c.26 1.103 1.255 1.926 2.44 1.926 1.383 0 2.508-1.12 2.508-2.5 0-1.378-1.125-2.5-2.508-2.5-1.185 0-2.18.824-2.44 1.927h-11.38c-.262-1.1-1.256-1.92-2.44-1.92-1.384 0-2.51 1.12-2.51 2.5s1.126 2.5 2.51 2.5c1.184 0 2.178-.82 2.44-1.92h1.85l-.006.04v5.74h-8.8v-5.14c0-3.31 2.706-6.01 6.034-6.01h13.222c3.328 0 6.035 2.7 6.035 6.02zm-5.872-1.222c0-.745.608-1.352 1.356-1.352.748 0 1.356.61 1.356 1.36 0 .75-.608 1.36-1.356 1.36-.748 0-1.356-.6-1.356-1.35zm-13.548 0c0 .746-.61 1.353-1.356 1.353-.748 0-1.356-.607-1.356-1.353 0-.745.608-1.352 1.356-1.352.747 0 1.356.61 1.356 1.36zm20.168-6.75c0 .582-.475 1.055-1.06 1.055H26.8v-1.152h2.64v.097z" fill="#fff"/><path d="M30.015 128.988H26.8v-2.906c0-.105-.028-.208-.084-.298l-.87-1.425-.04-.17-.828-2.04c-.09-.22-.3-.36-.534-.36H7.717c-.234 0-.445.14-.533.35l-.812 1.99-1 1.63c-.054.09-.084.19-.084.3v2.9H2.074c-.318 0-.576.25-.576.57v.67c0 1.22.992 2.21 2.21 2.21h1.47c-1.777 1.3-2.932 3.4-2.932 5.77v8.08c0 .28.21.52.483.56v1.79c0 .77.62 1.39 1.39 1.39h2.52c.77 0 1.39-.63 1.39-1.39v-1.78h16.02v1.78c0 .77.62 1.39 1.39 1.39h2.51c.77 0 1.39-.63 1.39-1.39v-1.79c.27-.04.48-.28.48-.57v-8.08c0-2.37-1.16-4.46-2.93-5.77h1.46c1.22 0 2.21-.99 2.21-2.2v-.67c0-.32-.26-.58-.58-.58zm-21.91-6.04h15.952l.362.885H7.74l.36-.885zm-1.664 6.615v-3.32l.78-1.26h17.66l.77 1.26v5.45c-.91-.418-1.92-.652-2.99-.652h-3.78l3.4-3.38c.23-.22.23-.59 0-.81-.22-.22-.59-.22-.81 0l-3.88 3.87c-.09.1-.14.21-.16.33h-6.3l3.4-3.38c.23-.22.23-.59 0-.81-.22-.22-.58-.22-.81 0l-3.88 3.87c-.09.1-.14.21-.16.33h-.22c-1.07 0-2.08.24-2.99.65v-2.13zm-2.73 1.725c-.58 0-1.06-.473-1.06-1.055v-.097h2.64v1.152H3.71zm3.18 17.352c0 .133-.11.242-.24.242H4.13c-.134 0-.24-.11-.24-.242v-1.78h3v1.78zm-3.49-4.152h25.29v1.223H3.4v-1.22zm9.95-6.93h1.04v5.782h-1.03v-5.783zm2.18 0h1.04v5.782h-1.03v-5.783zm2.18 0h1.04v5.782h-1.03v-5.783zm10.26 11.324h-2.52c-.13 0-.24-.11-.24-.242v-1.78h3.01v1.78c0 .133-.11.242-.24.242zm.73-10.677v5.136h-8.8v-5.78h1.85c.26 1.11 1.26 1.93 2.44 1.93 1.39 0 2.51-1.12 2.51-2.5s-1.12-2.5-2.5-2.5c-1.18 0-2.18.83-2.44 1.93h-11.4c-.26-1.1-1.25-1.92-2.44-1.92-1.38 0-2.51 1.12-2.51 2.5s1.13 2.5 2.51 2.5c1.19 0 2.18-.82 2.44-1.92h1.85v5.79H3.4v-5.13c0-3.31 2.705-6.01 6.033-6.01h13.222c3.328 0 6.035 2.7 6.035 6.02zm-5.87-1.222c0-.745.61-1.352 1.36-1.352s1.36.61 1.36 1.36c0 .75-.6 1.36-1.35 1.36s-1.35-.6-1.35-1.35zm-13.55 0c0 .746-.61 1.353-1.35 1.353-.75 0-1.35-.607-1.35-1.353 0-.745.61-1.352 1.36-1.352.75 0 1.36.61 1.36 1.36zm20.17-6.75c0 .582-.47 1.055-1.06 1.055H26.8v-1.152h2.64v.097z" fill="#206FAC"/></g></svg>