<svg width="32" height="232" viewBox="0 0 32 232" xmlns="http://www.w3.org/2000/svg"><g fill="none" fill-rule="evenodd"><path d="M28.948 5.637L28.14 8.04l.178-.006-.048 11.725-.655-.004-.018 4.207.655.003-.002.665.2.002-.007 1.647h.848l.007-1.645h.2l.07-16.65.182-.006-.802-2.343zM23.772 0H3.568c-.344 0-.624.28-.624.624v30.67c0 .346.28.624.624.624h15.68v-.024c.052.015.106.024.16.024.162 0 .32-.063.44-.182l4.365-4.355c.16-.16.218-.388.16-.6h.023V.623c0-.344-.28-.624-.624-.624zm-3.74 29.792v-2.23h2.233l-2.233 2.23zm3.116-3.474h-3.74c-.345 0-.625.277-.625.622v3.732H4.193V1.246h18.955v25.072zM7.575 10.788c.16 0 .32-.062.442-.184l1.652-1.65-.884-.88-1.21 1.21-.517-.517-.883.88.957.957c.122.122.282.183.44.183zm4.047-.605h9.26V8.937h-9.26v1.246zM7.575 6.447c.16 0 .32-.06.442-.183L9.67 4.616l-.884-.88-1.21 1.207-.517-.516-.883.88.957.957c.122.122.282.183.44.183zm4.047-.605h9.26V4.596h-9.26v1.246zm-4.047 9.284c.166 0 .325-.066.442-.183l1.652-1.65-.884-.88-1.21 1.208-.517-.513-.883.88.957.956c.117.117.276.183.44.183zm4.047-.604h9.26v-1.247h-9.26v1.247zm-4.047 4.943c.16 0 .32-.06.442-.18l1.652-1.65-.884-.882-1.21 1.208-.517-.513-.883.88.957.957c.122.12.282.18.44.18zm4.047-.603h9.26v-1.246h-9.26v1.246zm0 4.385h9.26V22h-9.26v1.247zm-4.047.558c.166 0 .325-.066.442-.183l1.652-1.648-.884-.88-1.21 1.207-.517-.514-.883.882.957.954c.117.117.276.183.44.183zm4.047 3.735h5.254v-1.245h-5.254v1.245z" fill="#3B444F"/><path d="M28.948 45.637l-.808 2.404.178-.006-.048 11.725-.655-.004-.018 4.207.655.003-.002.665.2.002-.007 1.647h.848l.007-1.645h.2l.07-16.65.182-.006-.802-2.343zM23.772 40H3.568c-.344 0-.624.28-.624.624v30.67c0 .346.28.624.624.624h15.68v-.024c.052.015.106.024.16.024.162 0 .32-.063.44-.182l4.365-4.355c.16-.16.218-.388.16-.6h.023V40.623c0-.344-.28-.624-.624-.624zm-3.74 29.792v-2.23h2.233l-2.233 2.23zm3.116-3.474h-3.74c-.345 0-.625.277-.625.622v3.732H4.193V41.246h18.955v25.072zM7.575 50.788c.16 0 .32-.062.442-.184l1.652-1.65-.884-.88-1.21 1.21-.517-.517-.883.88.957.957c.122.122.282.183.44.183zm4.047-.605h9.26v-1.246h-9.26v1.246zm-4.047-3.736c.16 0 .32-.06.442-.183l1.652-1.648-.884-.88-1.21 1.207-.517-.516-.883.88.957.957c.122.122.282.183.44.183zm4.047-.605h9.26v-1.246h-9.26v1.246zm-4.047 9.284c.166 0 .325-.066.442-.183l1.652-1.65-.884-.88-1.21 1.208-.517-.513-.883.88.957.956c.117.117.276.183.44.183zm4.047-.604h9.26v-1.247h-9.26v1.247zm-4.047 4.943c.16 0 .32-.06.442-.18l1.652-1.65-.884-.882-1.21 1.208-.517-.513-.883.88.957.957c.122.12.282.18.44.18zm4.047-.603h9.26v-1.246h-9.26v1.246zm0 4.385h9.26V62h-9.26v1.247zm-4.047.558c.166 0 .325-.066.442-.183l1.652-1.648-.884-.88-1.21 1.207-.517-.514-.883.882.957.954c.117.117.276.183.44.183zm4.047 3.735h5.254v-1.245h-5.254v1.245z" fill="#67737B"/><path d="M28.948 85.637l-.808 2.404.178-.006-.048 11.725-.655-.004-.018 4.207.655.003-.002.665.2.002-.007 1.647h.848l.007-1.645h.2l.07-16.65.182-.006-.802-2.343zM23.772 80H3.568c-.344 0-.624.28-.624.624v30.67c0 .346.28.624.624.624h15.68v-.024c.052.015.106.024.16.024.162 0 .32-.063.44-.182l4.365-4.355c.16-.16.218-.388.16-.6h.023V80.623c0-.344-.28-.624-.624-.624zm-3.74 29.792v-2.23h2.233l-2.233 2.23zm3.116-3.474h-3.74c-.345 0-.625.277-.625.622v3.732H4.193V81.246h18.955v25.072zM7.575 90.788c.16 0 .32-.062.442-.184l1.652-1.65-.884-.88-1.21 1.21-.517-.517-.883.88.957.957c.122.122.282.183.44.183zm4.047-.605h9.26v-1.246h-9.26v1.246zm-4.047-3.736c.16 0 .32-.06.442-.183l1.652-1.648-.884-.88-1.21 1.207-.517-.516-.883.88.957.957c.122.122.282.183.44.183zm4.047-.605h9.26v-1.246h-9.26v1.246zm-4.047 9.284c.166 0 .325-.066.442-.183l1.652-1.65-.884-.88-1.21 1.208-.517-.513-.883.88.957.956c.117.117.276.183.44.183zm4.047-.604h9.26v-1.247h-9.26v1.247zm-4.047 4.943c.16 0 .32-.06.442-.18l1.652-1.65-.884-.882-1.21 1.208-.517-.513-.883.88.957.957c.122.12.282.18.44.18zm4.047-.603h9.26v-1.246h-9.26v1.246zm0 4.385h9.26V102h-9.26v1.247zm-4.047.558c.166 0 .325-.066.442-.183l1.652-1.648-.884-.88-1.21 1.207-.517-.514-.883.882.957.954c.117.117.276.183.44.183zm4.047 3.735h5.254v-1.245h-5.254v1.245z" fill="#fff"/><path d="M28.948 125.637l-.808 2.404.178-.006-.048 11.725-.655-.004-.018 4.207.655.003-.002.665.2.002-.007 1.647h.848l.007-1.645h.2l.07-16.65.182-.006-.802-2.343zM23.772 120H3.568c-.344 0-.624.28-.624.624v30.67c0 .346.28.624.624.624h15.68v-.024c.052.015.106.024.16.024.162 0 .32-.063.44-.182l4.365-4.355c.16-.16.218-.388.16-.6h.023v-26.156c0-.344-.28-.624-.624-.624zm-3.74 29.792v-2.23h2.233l-2.233 2.23zm3.116-3.474h-3.74c-.345 0-.625.277-.625.622v3.732H4.193v-29.426h18.955v25.072zm-15.573-15.53c.16 0 .32-.062.442-.184l1.652-1.65-.884-.88-1.21 1.21-.517-.517-.883.88.957.957c.122.122.282.183.44.183zm4.047-.605h9.26v-1.246h-9.26v1.246zm-4.047-3.736c.16 0 .32-.06.442-.183l1.652-1.648-.884-.88-1.21 1.207-.517-.516-.883.88.957.957c.122.122.282.183.44.183zm4.047-.605h9.26v-1.246h-9.26v1.246zm-4.047 9.284c.166 0 .325-.066.442-.183l1.652-1.65-.884-.88-1.21 1.208-.517-.513-.883.88.957.956c.117.117.276.183.44.183zm4.047-.604h9.26v-1.247h-9.26v1.247zm-4.047 4.943c.16 0 .32-.06.442-.18l1.652-1.65-.884-.882-1.21 1.208-.517-.513-.883.88.957.957c.122.12.282.18.44.18zm4.047-.603h9.26v-1.246h-9.26v1.246zm0 4.385h9.26V142h-9.26v1.247zm-4.047.558c.166 0 .325-.066.442-.183l1.652-1.648-.884-.88-1.21 1.207-.517-.514-.883.882.957.954c.117.117.276.183.44.183zm4.047 3.735h5.254v-1.245h-5.254v1.245z" fill="#206FAC"/></g></svg>