<svg width="32" height="232" viewBox="0 0 32 232" xmlns="http://www.w3.org/2000/svg"><g fill="none"><path d="M30.832 24.184c0-.337-.156-.613-.412-.84.256-.224.412-.5.412-.837 0-1.18-1.9-1.605-3.34-1.76V8.802c0-.342-.278-.62-.62-.62h-1.025l-.205-3.75c-.008-.164-.083-.318-.206-.428-.122-.11-.284-.167-.45-.16l-.998.055-.412-2.39c-.03-.17-.124-.32-.264-.41-.14-.1-.312-.13-.477-.1L4.11 4.99l-.016.004-.056.018-.057.022-.05.027-.05.03-.04.03-.05.05-.03.04-.04.05-.02.05-.02.06-.02.05-.01.07v.16l.01.19h-.01c-.99 0-1.8.81-1.8 1.8v3.43l-.19-.03c-.34 0-.62.28-.62.62v9.87c0 .35.28.63.62.63h.2v2.01c0 1.38 1.12 2.5 2.5 2.5h17.1l.07.07c-.26.23-.412.51-.412.84 0 .34.16.62.41.84-.26.23-.42.51-.42.84 0 1.79 4.38 1.85 4.88 1.85s4.88-.05 4.88-1.84c0-.34-.15-.62-.41-.84.26-.23.41-.5.41-.84 0-.34-.15-.616-.41-.84.26-.23.41-.5.41-.84 0-.34-.15-.61-.41-.84.26-.225.41-.5.41-.84zm-1.357-1.677c-.42.25-1.64.6-3.52.6-1.883 0-3.103-.35-3.523-.6.42-.252 1.64-.6 3.522-.6 1.88 0 3.1.35 3.52.6zm-3.52 2.277c-1.883 0-3.103-.35-3.523-.6.1-.06.25-.126.44-.19 1.27.34 2.798.356 3.082.356.283 0 1.81-.017 3.08-.357.192.065.34.13.44.19-.42.253-1.64.6-3.52.6zm3.52 1.077c-.42.26-1.64.6-3.52.6-1.883 0-3.103-.34-3.523-.6.1-.06.25-.12.44-.19 1.27.34 2.798.36 3.082.36.283 0 1.81-.01 3.08-.35.192.07.34.13.44.19zM22.462 2.37l.277 1.603-10.53.573L22.46 2.37zm1.973 2.755l.167 3.06h-19.6l-.11-1.995 19.543-1.07zM3.618 7.06l.078-.007.06 1.126H3.62c-.308 0-.56-.26-.56-.56 0-.31.252-.56.56-.56zM2.243 20.89v-7.356c.253.11.532.172.825.172h11.02c1.98 0 3.592 1.61 3.592 3.59 0 1.982-1.61 3.593-3.592 3.593H2.243zm18.948 4.5H4.32c-.69 0-1.253-.56-1.253-1.252v-2.005h11.03c2.666 0 4.835-2.17 4.835-4.836 0-2.666-2.17-4.835-4.837-4.835H3.06V9.335c.176.057.364.088.56.088h22.63v11.245l-.295-.004c-.5 0-4.88.052-4.88 1.843 0 .337.157.613.413.838-.256.225-.412.502-.412.84 0 .337.156.612.412.838-.125.11-.225.233-.297.368zm8.29 3.827c-.42.252-1.64.6-3.52.6-1.88 0-3.1-.35-3.52-.6.1-.06.25-.126.44-.192 1.27.34 2.8.357 3.08.357.29 0 1.81-.017 3.08-.357.19.066.34.132.44.192zm0-1.678c-.42.25-1.64.59-3.52.59-1.88 0-3.1-.35-3.52-.6.1-.06.25-.13.44-.19 1.27.34 2.8.35 3.08.35.29 0 1.81-.02 3.08-.36.19.06.34.13.44.19zM14.6 19.98c.344 0 .622-.278.622-.622v-4.31c0-.343-.28-.622-.623-.622-.35 0-.63.28-.63.622v4.31c0 .345.28.623.62.623" fill="#3A434E"/><path d="M31.832 64.184c0-.337-.156-.613-.412-.84.256-.224.412-.5.412-.837 0-1.18-1.9-1.605-3.34-1.76V48.802c0-.342-.278-.62-.62-.62h-1.025l-.205-3.75c-.008-.164-.083-.318-.206-.428-.122-.11-.284-.167-.45-.16l-.998.055-.412-2.39c-.03-.17-.124-.32-.264-.41-.14-.1-.313-.13-.477-.1L5.11 44.99l-.016.004-.056.018-.057.022-.05.027-.05.03-.04.03-.05.05-.03.04-.04.05-.02.05-.02.06-.02.05-.01.07v.16l.01.19h-.01c-.99 0-1.8.81-1.8 1.8v3.43l-.19-.03c-.34 0-.62.28-.62.62v9.87c0 .35.28.63.62.63h.2v2.01c0 1.38 1.12 2.5 2.5 2.5h17.1l.07.07c-.26.23-.412.51-.412.84 0 .34.16.62.41.84-.26.23-.42.51-.42.84 0 1.79 4.38 1.85 4.88 1.85s4.88-.05 4.88-1.84c0-.34-.15-.62-.41-.84.26-.23.41-.5.41-.84 0-.34-.15-.616-.41-.84.26-.23.41-.5.41-.84 0-.34-.15-.61-.41-.84.26-.225.41-.5.41-.84zm-1.357-1.677c-.42.25-1.64.6-3.52.6-1.883 0-3.103-.35-3.523-.6.42-.252 1.64-.6 3.522-.6 1.88 0 3.1.35 3.52.6zm-3.52 2.277c-1.883 0-3.103-.35-3.523-.6.1-.06.25-.126.44-.19 1.27.34 2.798.356 3.082.356.283 0 1.81-.017 3.08-.357.192.065.34.13.44.19-.42.253-1.64.6-3.52.6zm3.52 1.077c-.42.26-1.64.6-3.52.6-1.883 0-3.103-.34-3.523-.6.1-.06.25-.12.44-.19 1.27.34 2.798.36 3.082.36.283 0 1.81-.01 3.08-.35.192.07.34.13.44.19zm-7.013-23.49l.277 1.61-10.53.58 10.25-2.17zm1.973 2.76l.167 3.06h-19.6l-.11-1.99 19.542-1.06zM4.618 47.06l.078-.007.06 1.126H4.62c-.308 0-.56-.26-.56-.56 0-.31.252-.56.56-.56zM3.243 60.89v-7.356c.253.11.532.172.825.172h11.02c1.98 0 3.592 1.61 3.592 3.59 0 1.982-1.61 3.593-3.592 3.593H3.243zm18.948 4.5H5.32c-.69 0-1.253-.56-1.253-1.252v-2.005h11.03c2.666 0 4.835-2.17 4.835-4.836 0-2.666-2.17-4.835-4.837-4.835H4.06v-3.127c.176.057.364.088.56.088h22.63v11.245l-.295-.004c-.5 0-4.88.052-4.88 1.843 0 .337.157.613.413.838-.256.225-.412.502-.412.84 0 .337.156.612.412.838-.125.11-.225.233-.297.368zm8.29 3.827c-.42.252-1.64.6-3.52.6-1.88 0-3.1-.35-3.52-.6.1-.06.25-.126.44-.192 1.27.34 2.8.357 3.08.357.29 0 1.81-.017 3.08-.357.19.066.34.132.44.192zm0-1.678c-.42.25-1.64.59-3.52.59-1.88 0-3.1-.35-3.52-.6.1-.06.25-.13.44-.19 1.27.34 2.8.35 3.08.35.29 0 1.81-.02 3.08-.36.19.06.34.13.44.19zM15.6 59.98c.344 0 .622-.278.622-.622v-4.31c0-.343-.28-.622-.623-.622-.35 0-.63.28-.63.622v4.31c0 .345.28.623.62.623" fill="#67737B"/><path d="M31.832 144.184c0-.337-.156-.613-.412-.84.256-.224.412-.5.412-.837 0-1.18-1.9-1.605-3.34-1.76V128.8c0-.34-.278-.62-.62-.62h-1.025l-.205-3.75c-.008-.163-.083-.317-.206-.427-.122-.11-.284-.167-.45-.16l-.998.055-.412-2.382c-.03-.166-.124-.314-.264-.41-.14-.094-.313-.128-.477-.093L5.11 124.988l-.016.004-.056.018-.057.022-.05.027-.05.03-.04.03-.05.04-.03.04-.04.05-.02.05-.02.05-.02.05-.01.06v.15l.01.19h-.01c-.99 0-1.8.8-1.8 1.8v3.43l-.2-.03c-.34 0-.62.28-.62.62v9.87c0 .34.28.62.62.62h.2v2c0 1.37 1.12 2.49 2.5 2.49h17.1l.07.06c-.25.22-.41.5-.41.84 0 .332.16.61.41.84-.26.22-.42.5-.42.84 0 1.79 4.38 1.84 4.88 1.84s4.88-.05 4.88-1.85c0-.33-.15-.61-.41-.84.26-.22.41-.5.41-.83 0-.34-.15-.62-.41-.84.26-.23.41-.5.41-.84 0-.34-.15-.62-.41-.84.26-.23.41-.5.41-.84zm-1.357-1.677c-.42.25-1.64.6-3.52.6-1.883 0-3.103-.35-3.523-.6.42-.252 1.64-.6 3.522-.6 1.88 0 3.1.35 3.52.6zm-3.52 2.277c-1.883 0-3.103-.35-3.523-.6.1-.06.25-.126.44-.19 1.27.34 2.798.356 3.082.356.283 0 1.81-.017 3.08-.357.192.065.34.13.44.19-.42.253-1.64.6-3.52.6zm3.52 1.077c-.42.26-1.64.6-3.52.6-1.883 0-3.103-.34-3.523-.6.1-.06.25-.12.44-.19 1.27.34 2.798.36 3.082.36.283 0 1.81-.01 3.08-.35.192.07.34.13.44.19zm-7.013-23.49l.277 1.61-10.53.58 10.25-2.17zm1.973 2.76l.167 3.06h-19.6l-.11-1.99 19.542-1.06zm-20.817 1.94h.078l.06 1.13H4.62c-.308 0-.56-.25-.56-.56 0-.31.252-.56.56-.56zM3.243 140.9v-7.356c.253.11.532.17.825.17h11.02c1.98 0 3.592 1.61 3.592 3.59 0 1.98-1.61 3.594-3.592 3.594H3.243zm18.948 4.5H5.32c-.69 0-1.253-.56-1.253-1.25v-2.007h11.03c2.666 0 4.835-2.17 4.835-4.836 0-2.665-2.17-4.834-4.837-4.834H4.06v-3.13c.176.058.364.09.56.09h22.63v11.244l-.295-.004c-.5 0-4.88.05-4.88 1.843 0 .337.157.613.413.838-.256.228-.412.505-.412.84 0 .34.156.615.412.84-.125.11-.225.234-.297.37zm8.29 3.827c-.42.253-1.64.6-3.52.6-1.88 0-3.1-.35-3.52-.6.1-.06.25-.125.44-.19 1.27.34 2.8.356 3.08.356.29 0 1.81-.017 3.08-.357.19.066.34.13.44.19zm0-1.677c-.42.25-1.64.595-3.52.595-1.88 0-3.1-.35-3.52-.6.1-.06.25-.125.44-.19 1.27.34 2.8.356 3.08.356.29 0 1.81-.01 3.08-.35.19.07.34.13.44.19zm-14.88-7.56c.35 0 .63-.28.63-.623v-4.31c0-.344-.28-.623-.62-.623-.34 0-.62.28-.62.624v4.31c0 .345.28.623.63.623" fill="#206FAC"/><path d="M31.832 104.184c0-.337-.156-.613-.412-.84.256-.224.412-.5.412-.837 0-1.18-1.9-1.605-3.34-1.76V88.802c0-.342-.278-.62-.62-.62h-1.025l-.205-3.75c-.008-.164-.083-.318-.206-.428-.122-.11-.284-.167-.45-.16l-.998.055-.412-2.39c-.03-.17-.124-.32-.264-.41-.14-.1-.313-.13-.477-.1L5.11 84.99l-.016.004-.056.018-.057.022-.05.027-.05.03-.04.03-.05.05-.03.04-.04.05-.02.05-.02.06-.02.05-.01.07v.16l.01.19h-.01c-.99 0-1.8.81-1.8 1.8v3.43l-.19-.03c-.34 0-.62.28-.62.62v9.87c0 .35.28.63.62.63h.2v2.01c0 1.38 1.12 2.5 2.5 2.5h17.1l.07.07c-.26.23-.412.51-.412.84 0 .34.16.62.41.84-.26.23-.42.51-.42.84 0 1.79 4.38 1.85 4.88 1.85s4.88-.05 4.88-1.84c0-.34-.15-.62-.41-.84.26-.23.41-.5.41-.84 0-.34-.15-.616-.41-.84.26-.23.41-.5.41-.84 0-.34-.15-.61-.41-.84.26-.225.41-.5.41-.84zm-1.357-1.677c-.42.25-1.64.6-3.52.6-1.883 0-3.103-.35-3.523-.6.42-.252 1.64-.6 3.522-.6 1.88 0 3.1.35 3.52.6zm-3.52 2.277c-1.883 0-3.103-.35-3.523-.6.1-.06.25-.126.44-.19 1.27.34 2.798.356 3.082.356.283 0 1.81-.017 3.08-.357.192.065.34.13.44.19-.42.253-1.64.6-3.52.6zm3.52 1.077c-.42.26-1.64.6-3.52.6-1.883 0-3.103-.34-3.523-.6.1-.06.25-.12.44-.19 1.27.34 2.798.36 3.082.36.283 0 1.81-.01 3.08-.35.192.07.34.13.44.19zm-7.013-23.49l.277 1.61-10.53.58 10.25-2.17zm1.973 2.76l.167 3.06h-19.6l-.11-1.99 19.542-1.06zM4.618 87.06l.078-.007.06 1.126H4.62c-.308 0-.56-.26-.56-.56 0-.31.252-.56.56-.56zm-1.375 13.83v-7.356c.253.11.532.172.825.172h11.02c1.98 0 3.592 1.61 3.592 3.59 0 1.982-1.61 3.593-3.592 3.593H3.243zm18.948 4.5H5.32c-.69 0-1.253-.56-1.253-1.252v-2.005h11.03c2.666 0 4.835-2.17 4.835-4.836 0-2.666-2.17-4.835-4.837-4.835H4.06v-3.127c.176.057.364.088.56.088h22.63v11.245l-.295-.004c-.5 0-4.88.052-4.88 1.843 0 .337.157.613.413.838-.256.225-.412.502-.412.84 0 .337.156.612.412.838-.125.11-.225.233-.297.368zm8.29 3.827c-.42.252-1.64.6-3.52.6-1.88 0-3.1-.35-3.52-.6.1-.06.25-.126.44-.192 1.27.34 2.8.357 3.08.357.29 0 1.81-.017 3.08-.357.19.066.34.132.44.192zm0-1.678c-.42.25-1.64.59-3.52.59-1.88 0-3.1-.35-3.52-.6.1-.06.25-.13.44-.19 1.27.34 2.8.35 3.08.35.29 0 1.81-.02 3.08-.36.19.06.34.13.44.19zM15.6 99.98c.344 0 .622-.278.622-.622v-4.31c0-.343-.28-.622-.623-.622-.35 0-.63.28-.63.622v4.31c0 .345.28.623.62.623" fill="#fff"/></g></svg>