<svg width="32" height="232" viewBox="0 0 32 232" xmlns="http://www.w3.org/2000/svg"><g fill="none"><path d="M31.78 28.145L17.1 2.725C16.837 2.265 16.435 2 16 2c-.435 0-.836.264-1.102.724L.22 28.144c-.264.46-.292.94-.074 1.317.217.38.646.6 1.178.6h29.353c.53 0 .96-.21 1.178-.59.217-.37.19-.85-.076-1.31zm-1.103.805H1.324c-.13 0-.2-.027-.22-.042-.003-.026.008-.1.073-.212l14.676-25.42c.066-.113.123-.16.147-.17.024.01.082.057.147.17l14.677 25.42c.065.113.075.186.074.212-.022.015-.09.042-.22.042zm-12.8-18.018h-3.752c-.152 0-.296.062-.4.172-.105.11-.16.258-.15.41l.317 5.837.015.11.794 3.23c.07.25.29.42.54.42h1.53c.26 0 .48-.17.54-.42l.8-3.22.02-.1.32-5.83c.01-.15-.04-.3-.15-.41-.1-.11-.25-.17-.4-.17zm-.867 6.308l-.678 2.757h-.663l-.68-2.757-.29-5.205h2.58L17 17.24zM16 21.896c-1.19 0-2.16.97-2.16 2.16 0 1.193.97 2.162 2.16 2.162 1.192 0 2.16-.97 2.16-2.16 0-1.193-.968-2.162-2.16-2.162zm0 3.22c-.583 0-1.057-.475-1.057-1.06 0-.582.474-1.056 1.057-1.056s1.058.474 1.058 1.057c0 .584-.475 1.058-1.058 1.058z" fill="#3A434E"/><path d="M31.78 68.145L17.1 42.725c-.263-.46-.665-.725-1.1-.725-.435 0-.836.264-1.102.724L.22 68.144c-.264.46-.292.94-.074 1.317.217.38.646.6 1.178.6h29.353c.53 0 .96-.21 1.178-.59.217-.37.19-.85-.076-1.31zm-1.103.805H1.324c-.13 0-.2-.027-.22-.042-.003-.026.008-.1.073-.212l14.676-25.42c.066-.113.123-.16.147-.17.024.01.082.057.147.17l14.677 25.42c.065.113.075.186.074.212-.022.015-.09.042-.22.042zm-12.8-18.018h-3.752c-.152 0-.296.062-.4.172-.105.11-.16.258-.15.41l.317 5.837.015.11.794 3.23c.07.25.29.42.54.42h1.53c.26 0 .48-.17.54-.42l.8-3.22.02-.1.32-5.83c.01-.15-.04-.3-.15-.41-.1-.11-.25-.17-.4-.17zm-.867 6.308l-.678 2.757h-.663l-.68-2.757-.29-5.205h2.58L17 57.24zM16 61.896c-1.19 0-2.16.97-2.16 2.16 0 1.193.97 2.162 2.16 2.162 1.192 0 2.16-.97 2.16-2.16 0-1.193-.968-2.162-2.16-2.162zm0 3.22c-.583 0-1.057-.475-1.057-1.06 0-.582.474-1.056 1.057-1.056s1.058.474 1.058 1.057c0 .584-.475 1.058-1.058 1.058z" fill="#67737B"/><path d="M31.78 108.145L17.1 82.725c-.263-.46-.665-.725-1.1-.725-.435 0-.836.264-1.102.724L.22 108.144c-.264.46-.292.94-.074 1.317.217.38.646.6 1.178.6h29.353c.53 0 .96-.21 1.178-.59.217-.37.19-.85-.076-1.31zm-1.103.805H1.324c-.13 0-.2-.027-.22-.042-.003-.026.008-.1.073-.212l14.676-25.42c.066-.113.123-.16.147-.17.024.01.082.057.147.17l14.677 25.42c.065.113.075.186.074.212-.022.015-.09.042-.22.042zm-12.8-18.018h-3.752c-.152 0-.296.062-.4.172-.105.11-.16.258-.15.41l.317 5.837.015.11.794 3.23c.07.25.29.42.54.42h1.53c.26 0 .48-.17.54-.42l.8-3.22.02-.1.32-5.83c.01-.15-.04-.3-.15-.41-.1-.11-.25-.17-.4-.17zm-.867 6.308l-.678 2.757h-.663l-.68-2.757-.29-5.205h2.58L17 97.24zM16 101.896c-1.19 0-2.16.97-2.16 2.16 0 1.193.97 2.162 2.16 2.162 1.192 0 2.16-.97 2.16-2.16 0-1.193-.968-2.162-2.16-2.162zm0 3.22c-.583 0-1.057-.475-1.057-1.06 0-.582.474-1.056 1.057-1.056s1.058.474 1.058 1.057c0 .584-.475 1.058-1.058 1.058z" fill="#fff"/><path d="M31.78 148.145l-14.68-25.42c-.265-.46-.667-.725-1.102-.725-.435 0-.836.264-1.102.724L.22 148.144c-.264.46-.292.94-.074 1.317.217.38.646.6 1.178.6h29.353c.53 0 .96-.21 1.178-.59.217-.37.19-.85-.076-1.31zm-1.103.805H1.324c-.13 0-.2-.027-.22-.042-.003-.026.008-.1.073-.212l14.676-25.42c.066-.113.123-.16.147-.17.024.01.082.057.147.17l14.677 25.42c.065.113.075.186.074.212-.022.015-.09.042-.22.042zm-12.8-18.018h-3.752c-.152 0-.296.062-.4.172-.105.11-.16.258-.15.41l.317 5.837.015.11.794 3.23c.07.25.29.42.54.42h1.53c.26 0 .48-.17.54-.42l.8-3.22.02-.1.32-5.83c.01-.15-.04-.3-.15-.41-.1-.11-.25-.17-.4-.17zm-.867 6.308l-.678 2.757h-.663l-.68-2.757-.29-5.205h2.58L17 137.24zM16 141.896c-1.19 0-2.16.97-2.16 2.16 0 1.193.97 2.162 2.16 2.162 1.192 0 2.16-.97 2.16-2.16 0-1.193-.968-2.162-2.16-2.162zm0 3.22c-.583 0-1.057-.475-1.057-1.06 0-.582.474-1.056 1.057-1.056s1.058.474 1.058 1.057c0 .584-.475 1.058-1.058 1.058z" fill="#206FAC"/></g></svg>