<svg width="32" height="232" viewBox="0 0 32 232" xmlns="http://www.w3.org/2000/svg"><g fill="none"><path d="M29.214 13.672c-.89-.888-1.923-1.58-3.05-2.05V5.3c0-1.183.963-2.144 2.144-2.144h2.762c.32 0 .58-.26.58-.58 0-.32-.26-.578-.58-.578h-2.762c-1.777 0-3.23 1.412-3.298 3.172l-.003.033v2.883H11.523c-1.698 0-3.087 1.34-3.167 3.02l-.004.037.003.023-.003.09v9.42h-2.56c-.236 0-.447.142-.536.36l-1.74 4.218H.578c-.32 0-.58.26-.58.58 0 .32.26.578.58.578H3.9c.235 0 .447-.14.536-.358l1.74-4.22H8.35v1.527c-1.544.28-2.72 1.63-2.72 3.25 0 1.82 1.48 3.3 3.3 3.3 1.82 0 3.3-1.48 3.3-3.3 0-1.62-1.177-2.97-2.72-3.25v-1.52h3.57c.3 2 1.224 3.84 2.677 5.29 1.796 1.8 4.185 2.79 6.726 2.79 2.542 0 4.93-.99 6.728-2.78 1.8-1.8 2.79-4.19 2.79-6.73s-.99-4.93-2.78-6.72zm-18.14 12.94c0 1.182-.96 2.143-2.143 2.143-1.18 0-2.14-.96-2.14-2.143 0-.98.67-1.808 1.57-2.06v2.06c0 .32.26.58.58.58.32 0 .58-.26.58-.58v-2.06c.9.252 1.56 1.08 1.56 2.06zm.45-17.366h13.483v1.32H9.637c.282-.77 1.02-1.32 1.886-1.32zM9.51 20.68v-8.956h9.065c-1.035.468-1.988 1.12-2.816 1.948-1.8 1.797-2.79 4.186-2.79 6.728v.28H9.51zm18.885 5.628c-1.58 1.578-3.677 2.447-5.91 2.447-2.23 0-4.33-.87-5.907-2.447C15 24.728 14.13 22.63 14.13 20.4c0-2.232.87-4.33 2.448-5.908 1.578-1.58 3.677-2.448 5.908-2.448 2.232 0 4.33.87 5.91 2.448 1.577 1.577 2.446 3.676 2.446 5.908 0 2.23-.87 4.33-2.447 5.908zm-.646-11.17c-1.41-1.406-3.28-2.18-5.27-2.18-1.99 0-3.86.774-5.26 2.18-1.01 1.005-1.7 2.27-2.01 3.652-.07.312.12.62.44.69.31.07.62-.128.69-.44.25-1.168.84-2.234 1.69-3.084 1.18-1.187 2.76-1.84 4.44-1.84 1.68 0 3.26.653 4.44 1.84s1.84 2.765 1.84 4.444c0 1.678-.66 3.256-1.84 4.443-.23.226-.23.592 0 .82.11.112.26.168.41.168.14 0 .29-.05.41-.16 1.4-1.4 2.17-3.27 2.17-5.26s-.78-3.85-2.18-5.26zm-5.27 3.457c-1 0-1.81.81-1.81 1.805 0 .995.81 1.805 1.8 1.805s1.8-.81 1.8-1.805c0-.996-.81-1.805-1.81-1.805zm0 2.452c-.36 0-.65-.29-.65-.647 0-.357.29-.647.64-.647.35 0 .64.29.64.647 0 .356-.29.647-.65.647z" fill="#3A434E"/><path d="M29.214 53.672c-.89-.888-1.923-1.58-3.05-2.05V45.3c0-1.183.963-2.144 2.144-2.144h2.762c.32 0 .58-.26.58-.58 0-.32-.26-.578-.58-.578h-2.762c-1.777 0-3.23 1.412-3.298 3.172l-.003.033v2.883H11.523c-1.698 0-3.087 1.34-3.167 3.02l-.004.037.003.023-.003.09v9.42h-2.56c-.236 0-.447.142-.536.36l-1.74 4.218H.578c-.32 0-.58.26-.58.58 0 .32.26.578.58.578H3.9c.235 0 .447-.14.536-.358l1.74-4.22H8.35v1.527c-1.544.28-2.72 1.63-2.72 3.25 0 1.82 1.48 3.3 3.3 3.3 1.82 0 3.3-1.48 3.3-3.3 0-1.62-1.177-2.97-2.72-3.25v-1.52h3.57c.3 2 1.224 3.84 2.677 5.29 1.796 1.8 4.185 2.79 6.726 2.79 2.542 0 4.93-.99 6.728-2.78 1.8-1.8 2.79-4.19 2.79-6.73s-.99-4.93-2.78-6.72zm-18.14 12.94c0 1.182-.96 2.143-2.143 2.143-1.18 0-2.14-.96-2.14-2.143 0-.98.67-1.808 1.57-2.06v2.06c0 .32.26.58.58.58.32 0 .58-.26.58-.58v-2.06c.9.252 1.56 1.08 1.56 2.06zm.45-17.366h13.483v1.32H9.637c.282-.77 1.02-1.32 1.886-1.32zM9.51 60.68v-8.956h9.065c-1.035.468-1.988 1.12-2.816 1.948-1.8 1.797-2.79 4.186-2.79 6.728v.28H9.51zm18.885 5.628c-1.58 1.578-3.677 2.447-5.91 2.447-2.23 0-4.33-.87-5.907-2.447C15 64.728 14.13 62.63 14.13 60.4c0-2.232.87-4.33 2.448-5.908 1.578-1.58 3.677-2.448 5.908-2.448 2.232 0 4.33.87 5.91 2.448 1.577 1.577 2.446 3.676 2.446 5.908 0 2.23-.87 4.33-2.447 5.908zm-.646-11.17c-1.41-1.406-3.28-2.18-5.27-2.18-1.99 0-3.86.774-5.26 2.18-1.01 1.005-1.7 2.27-2.01 3.652-.07.312.12.62.44.69.31.07.62-.128.69-.44.25-1.168.84-2.234 1.69-3.084 1.18-1.187 2.76-1.84 4.44-1.84 1.68 0 3.26.653 4.44 1.84s1.84 2.765 1.84 4.444c0 1.678-.66 3.256-1.84 4.443-.23.226-.23.592 0 .82.11.112.26.168.41.168.14 0 .29-.05.41-.16 1.4-1.4 2.17-3.27 2.17-5.26s-.78-3.85-2.18-5.26zm-5.27 3.457c-1 0-1.81.81-1.81 1.805 0 .995.81 1.805 1.8 1.805s1.8-.81 1.8-1.805c0-.996-.81-1.805-1.81-1.805zm0 2.452c-.36 0-.65-.29-.65-.647 0-.357.29-.647.64-.647.35 0 .64.29.64.647 0 .356-.29.647-.65.647z" fill="#67737B"/><path d="M29.214 93.672c-.89-.888-1.923-1.58-3.05-2.05V85.3c0-1.183.963-2.144 2.144-2.144h2.762c.32 0 .58-.26.58-.58 0-.32-.26-.578-.58-.578h-2.762c-1.777 0-3.23 1.412-3.298 3.172l-.003.033v2.883H11.523c-1.698 0-3.087 1.34-3.167 3.02l-.004.037.003.023-.003.09v9.42h-2.56c-.236 0-.447.142-.536.36l-1.74 4.218H.578c-.32 0-.58.26-.58.58 0 .32.26.578.58.578H3.9c.235 0 .447-.14.536-.358l1.74-4.22H8.35v1.527c-1.544.28-2.72 1.63-2.72 3.25 0 1.82 1.48 3.3 3.3 3.3 1.82 0 3.3-1.48 3.3-3.3 0-1.62-1.177-2.97-2.72-3.25v-1.52h3.57c.3 2 1.224 3.84 2.677 5.29 1.796 1.8 4.185 2.79 6.726 2.79 2.542 0 4.93-.99 6.728-2.78 1.8-1.79 2.79-4.18 2.79-6.72s-.99-4.93-2.78-6.73zm-18.14 12.94c0 1.182-.96 2.143-2.143 2.143-1.18 0-2.14-.96-2.14-2.143 0-.98.67-1.808 1.57-2.06v2.06c0 .32.26.58.58.58.32 0 .58-.26.58-.58v-2.06c.9.252 1.56 1.08 1.56 2.06zm.45-17.366h13.483v1.32H9.637c.282-.77 1.02-1.32 1.886-1.32zM9.51 100.68v-8.956h9.065c-1.035.468-1.988 1.12-2.816 1.948-1.8 1.797-2.79 4.186-2.79 6.728v.28H9.51zm18.885 5.628c-1.58 1.578-3.677 2.447-5.91 2.447-2.23 0-4.33-.87-5.907-2.447-1.578-1.58-2.447-3.677-2.447-5.908 0-2.232.87-4.33 2.45-5.908 1.58-1.58 3.68-2.448 5.91-2.448s4.33.87 5.91 2.448c1.58 1.577 2.45 3.676 2.45 5.908 0 2.23-.87 4.33-2.44 5.908zm-.646-11.17c-1.41-1.406-3.28-2.18-5.27-2.18-1.99 0-3.86.774-5.26 2.18-1.01 1.005-1.7 2.27-2.01 3.652-.07.312.12.62.44.69.31.07.62-.128.69-.44.25-1.168.84-2.234 1.69-3.084 1.18-1.187 2.76-1.84 4.44-1.84 1.68 0 3.26.653 4.44 1.84s1.84 2.765 1.84 4.444c0 1.678-.66 3.256-1.84 4.443-.23.226-.23.592 0 .82.11.112.26.168.41.168.14 0 .29-.05.41-.16 1.4-1.4 2.17-3.27 2.17-5.26s-.78-3.85-2.18-5.26zm-5.27 3.457c-1 0-1.81.81-1.81 1.805 0 .995.81 1.805 1.8 1.805s1.8-.81 1.8-1.805c0-.996-.81-1.805-1.81-1.805zm0 2.452c-.36 0-.65-.29-.65-.647 0-.357.29-.647.64-.647.35 0 .64.29.64.647 0 .356-.29.647-.65.647z" fill="#fff"/><path d="M29.214 133.672c-.89-.888-1.923-1.58-3.05-2.05v-6.32c0-1.183.963-2.144 2.144-2.144h2.762c.32 0 .58-.26.58-.58 0-.32-.26-.578-.58-.578h-2.762c-1.777 0-3.23 1.412-3.298 3.172l-.003.033v2.883H11.523c-1.698 0-3.087 1.34-3.167 3.02l-.004.037.003.023-.003.09v9.42h-2.56c-.236 0-.447.142-.536.36l-1.74 4.218H.578c-.32 0-.58.26-.58.58 0 .32.26.578.58.578H3.9c.235 0 .447-.14.536-.358l1.74-4.22H8.35v1.527c-1.544.275-2.72 1.627-2.72 3.25 0 1.82 1.48 3.3 3.3 3.3 1.82 0 3.3-1.48 3.3-3.3 0-1.623-1.177-2.975-2.72-3.25v-1.526h3.57c.3 1.996 1.224 3.836 2.677 5.29 1.796 1.796 4.185 2.786 6.726 2.786 2.542 0 4.93-.99 6.728-2.786 1.8-1.797 2.79-4.187 2.79-6.727 0-2.542-.99-4.93-2.78-6.728zm-18.14 12.94c0 1.182-.96 2.143-2.143 2.143-1.18 0-2.14-.96-2.14-2.143 0-.98.67-1.808 1.57-2.06v2.06c0 .32.26.58.58.58.32 0 .58-.26.58-.58v-2.06c.9.252 1.56 1.08 1.56 2.06zm.45-17.366h13.483v1.32H9.637c.282-.77 1.02-1.32 1.886-1.32zM9.51 140.68v-8.956h9.065c-1.035.468-1.988 1.12-2.816 1.948-1.8 1.797-2.79 4.186-2.79 6.728v.28H9.51zm18.885 5.628c-1.58 1.578-3.677 2.447-5.91 2.447-2.23 0-4.33-.87-5.907-2.447-1.578-1.58-2.447-3.677-2.447-5.908 0-2.232.87-4.33 2.45-5.908 1.58-1.58 3.68-2.448 5.91-2.448s4.33.87 5.91 2.448c1.58 1.577 2.45 3.676 2.45 5.908 0 2.23-.87 4.33-2.44 5.908zm-.646-11.17c-1.41-1.406-3.28-2.18-5.27-2.18-1.99 0-3.86.774-5.26 2.18-1.01 1.005-1.7 2.27-2.01 3.652-.07.312.12.62.44.69.31.07.62-.128.69-.44.25-1.168.84-2.234 1.69-3.084 1.18-1.187 2.76-1.84 4.44-1.84 1.68 0 3.26.653 4.44 1.84s1.84 2.765 1.84 4.444c0 1.678-.66 3.256-1.84 4.443-.23.226-.23.592 0 .82.11.112.26.168.41.168.14 0 .29-.05.41-.16 1.4-1.4 2.17-3.27 2.17-5.26s-.78-3.85-2.18-5.26zm-5.27 3.457c-1 0-1.81.81-1.81 1.805 0 .995.81 1.805 1.8 1.805s1.8-.81 1.8-1.805c0-.996-.81-1.805-1.81-1.805zm0 2.452c-.36 0-.65-.29-.65-.647 0-.357.29-.647.64-.647.35 0 .64.29.64.647 0 .356-.29.647-.65.647z" fill="#206FAC"/></g></svg>