<svg width="32" height="232" viewBox="0 0 32 232" xmlns="http://www.w3.org/2000/svg"><g fill="none"><path d="M28.266 17.677c-.11-.13-.27-.206-.44-.207l-4.228-.03.88-3.377 3.164-1.012c.302-.09.47-.41.375-.72-.768-2.47-2.338-4.68-4.42-6.24-2.152-1.61-4.715-2.46-7.41-2.46h-.025c-2.695 0-5.258.85-7.41 2.46C6.668 7.65 5.1 9.86 4.33 12.33c-.094.303.072.624.375.72l3.138 1.005.882 3.385-4.207.03c-.17 0-.33.077-.44.207-.108.13-.154.302-.125.47.9 5.197 5.005 9.256 10.213 10.1.18.028.365-.03.496-.16.13-.127.194-.31.17-.49l-.71-5.134-.192-1.5h4.484l-.19 1.498-.71 5.14c-.024.18.038.37.17.49.108.11.253.17.402.17h.092c5.207-.84 9.312-4.9 10.213-10.1.03-.16-.01-.34-.12-.47zM11.45 19.81c-.564 0-.982-.277-1.016-.4L8.92 13.6c.063-.054.25-.146.574-.146h13.338c.323 0 .512.092.575.145l-1.514 5.81c-.034.12-.453.4-1.016.4H11.45zM9.443 7.012c1.952-1.46 4.276-2.23 6.72-2.23h.024c2.445 0 4.77.77 6.72 2.23 1.735 1.296 3.077 3.098 3.824 5.118l-2.4.77c-.3-.38-.84-.6-1.49-.6H9.5c-.648 0-1.188.217-1.49.594l-2.39-.764c.75-2.02 2.09-3.82 3.826-5.115zm3.536 15.602l.55 4.326c-4.11-.982-7.33-4.203-8.3-8.32l3.79-.026.29 1.11c.18.72 1.1 1.26 2.13 1.26h1.3l.22 1.65zm3.18-21.098c-8 0-14.5 6.504-14.5 14.5 0 7.995 6.5 14.5 14.5 14.5 7.99 0 14.5-6.505 14.5-14.5 0-7.996-6.51-14.5-14.5-14.5zm2.66 25.424l.55-4.326.22-1.65h1.28c1.03 0 1.94-.542 2.13-1.26l.28-1.11 3.82.027c-.98 4.12-4.2 7.34-8.3 8.33zm-2.66 2.423c-7.36 0-13.35-5.988-13.35-13.345 0-7.36 5.98-13.345 13.34-13.345 7.36 0 13.34 5.987 13.34 13.345 0 7.358-5.99 13.345-13.35 13.345zm-.06-15.007c-.44 0-.87.06-1.27.176-.31.09-.48.41-.39.716.09.305.41.482.71.392.29-.086.61-.13.94-.13 1.16 0 2.03.555 2.03 1.05 0 .497-.87 1.05-2.04 1.05s-2.04-.554-2.04-1.05c0-.318-.26-.576-.58-.576-.32 0-.58.258-.58.576 0 1.237 1.4 2.205 3.19 2.205s3.19-.968 3.19-2.205c0-1.236-1.4-2.204-3.19-2.204z" fill="#3A434E"/><path d="M28.266 57.677c-.11-.13-.27-.206-.44-.207l-4.228-.03.88-3.377 3.164-1.012c.302-.09.47-.41.375-.72-.768-2.47-2.338-4.68-4.42-6.24-2.152-1.61-4.715-2.46-7.41-2.46h-.025c-2.695 0-5.258.85-7.41 2.46-2.083 1.56-3.65 3.78-4.42 6.24-.094.31.072.63.375.72l3.138 1.01.882 3.39-4.207.03c-.17 0-.33.08-.44.21-.108.13-.154.31-.125.47.9 5.2 5.005 9.26 10.213 10.1.18.03.365-.03.496-.16.13-.12.194-.31.17-.49l-.71-5.13-.192-1.5h4.484l-.19 1.5-.71 5.14c-.024.18.038.37.17.49.108.11.253.17.402.17h.092c5.207-.84 9.312-4.9 10.213-10.1.03-.16-.017-.34-.126-.47zM11.45 59.81c-.564 0-.982-.277-1.016-.4L8.92 53.6c.063-.054.25-.146.574-.146h13.338c.323 0 .512.092.575.145l-1.514 5.81c-.034.12-.453.4-1.016.4H11.45zM9.443 47.012c1.952-1.46 4.276-2.23 6.72-2.23h.024c2.445 0 4.77.77 6.72 2.23 1.735 1.296 3.077 3.098 3.824 5.118l-2.4.77c-.3-.38-.84-.6-1.49-.6H9.5c-.648 0-1.188.217-1.49.594l-2.39-.764c.75-2.02 2.09-3.82 3.826-5.115zm3.536 15.602l.55 4.326c-4.11-.982-7.33-4.203-8.3-8.32l3.79-.026.29 1.11c.18.72 1.1 1.26 2.13 1.26h1.3l.22 1.652zm3.18-21.098c-8 0-14.5 6.504-14.5 14.5 0 7.995 6.5 14.5 14.5 14.5 7.99 0 14.5-6.505 14.5-14.5 0-7.996-6.51-14.5-14.5-14.5zm2.66 25.424l.55-4.326.22-1.65h1.28c1.03 0 1.94-.542 2.13-1.26l.28-1.11 3.82.026c-.98 4.117-4.2 7.338-8.3 8.32zm-2.66 2.422c-7.36 0-13.35-5.988-13.35-13.345 0-7.36 5.98-13.345 13.34-13.345 7.36 0 13.34 5.987 13.34 13.345 0 7.358-5.99 13.345-13.35 13.345zm-.06-15.007c-.44 0-.87.06-1.27.176-.31.09-.48.41-.39.72.09.31.41.48.71.39.29-.08.61-.13.94-.13 1.16 0 2.03.56 2.03 1.05s-.87 1.05-2.04 1.05-2.04-.55-2.04-1.05c0-.32-.26-.57-.58-.57-.32 0-.58.26-.58.58 0 1.24 1.4 2.21 3.19 2.21s3.19-.97 3.19-2.2-1.4-2.2-3.19-2.2z" fill="#67737B"/><path d="M28.266 97.677c-.11-.13-.27-.206-.44-.207l-4.228-.03.88-3.377 3.164-1.012c.302-.09.47-.41.375-.72-.768-2.47-2.338-4.68-4.42-6.24-2.152-1.61-4.715-2.46-7.41-2.46h-.025c-2.695 0-5.258.85-7.41 2.46-2.083 1.56-3.65 3.78-4.42 6.24-.094.31.072.63.375.72l3.138 1.01.882 3.39-4.207.03c-.17 0-.33.08-.44.21-.108.13-.154.31-.125.47.9 5.2 5.005 9.26 10.213 10.1.18.03.365-.03.496-.16.13-.12.194-.31.17-.49l-.71-5.13-.192-1.5h4.484l-.19 1.5-.71 5.14c-.024.18.038.37.17.49.108.11.253.17.402.17h.092c5.207-.84 9.312-4.9 10.213-10.1.03-.16-.017-.34-.126-.47zM11.45 99.81c-.564 0-.982-.277-1.016-.4L8.92 93.6c.063-.054.25-.146.574-.146h13.338c.323 0 .512.092.575.145l-1.514 5.81c-.034.12-.453.4-1.016.4H11.45zM9.443 87.012c1.952-1.46 4.276-2.23 6.72-2.23h.024c2.445 0 4.77.77 6.72 2.23 1.735 1.296 3.077 3.098 3.824 5.118l-2.4.77c-.3-.38-.84-.6-1.49-.6H9.5c-.648 0-1.188.217-1.49.594l-2.39-.764c.75-2.02 2.09-3.82 3.826-5.115zm3.536 15.602l.55 4.326c-4.11-.982-7.33-4.203-8.3-8.32l3.79-.026.29 1.11c.18.72 1.1 1.26 2.13 1.26h1.3l.22 1.652zm3.18-21.098c-8 0-14.5 6.504-14.5 14.5 0 7.995 6.5 14.5 14.5 14.5 7.99 0 14.5-6.505 14.5-14.5 0-7.996-6.51-14.5-14.5-14.5zm2.65 25.424l.55-4.326.23-1.65h1.28c1.03 0 1.94-.542 2.13-1.26l.29-1.11 3.82.026c-.98 4.117-4.19 7.338-8.3 8.32zm-2.66 2.422c-7.36 0-13.35-5.988-13.35-13.345 0-7.36 5.98-13.345 13.34-13.345 7.36 0 13.35 5.987 13.35 13.345 0 7.358-5.99 13.345-13.35 13.345zm-.06-15.007c-.44 0-.87.06-1.27.176-.31.09-.48.41-.39.72.09.31.41.48.71.39.29-.08.61-.13.94-.13 1.16 0 2.03.56 2.03 1.05s-.87 1.05-2.04 1.05-2.04-.55-2.04-1.05c0-.32-.26-.57-.58-.57-.32 0-.58.26-.58.58 0 1.24 1.4 2.21 3.19 2.21s3.19-.97 3.19-2.2-1.41-2.2-3.2-2.2z" fill="#fff"/><path d="M28.266 137.677c-.11-.13-.27-.206-.44-.207l-4.228-.03.88-3.377 3.164-1.012c.302-.09.47-.41.375-.72-.768-2.47-2.338-4.68-4.42-6.24-2.152-1.61-4.715-2.46-7.41-2.46h-.025c-2.695 0-5.258.85-7.41 2.46-2.083 1.56-3.65 3.78-4.42 6.24-.094.31.072.63.375.72l3.138 1.01.882 3.39-4.207.03c-.17 0-.33.08-.44.21-.108.13-.154.31-.125.47.9 5.2 5.005 9.26 10.213 10.1.18.03.365-.03.496-.16.13-.12.194-.31.17-.49l-.71-5.13-.192-1.5h4.484l-.19 1.5-.71 5.14c-.024.18.038.37.17.49.108.11.253.17.402.17h.092c5.207-.84 9.312-4.9 10.213-10.1.03-.16-.017-.34-.126-.47zM11.45 139.81c-.564 0-.982-.277-1.016-.4L8.92 133.6c.063-.054.25-.146.574-.146h13.338c.323 0 .512.092.575.145l-1.514 5.81c-.034.12-.453.4-1.016.4H11.45zm-2.007-12.797c1.952-1.46 4.276-2.23 6.72-2.23h.024c2.445 0 4.77.77 6.72 2.23 1.735 1.296 3.077 3.098 3.824 5.118l-2.4.77c-.3-.38-.84-.6-1.49-.6H9.5c-.648 0-1.188.22-1.49.6l-2.387-.76c.75-2.02 2.09-3.82 3.83-5.11zm3.536 15.602l.55 4.326c-4.11-.98-7.33-4.2-8.3-8.32l3.79-.02.29 1.11c.18.72 1.1 1.26 2.13 1.26h1.3l.22 1.65zm3.18-21.098c-8 0-14.5 6.504-14.5 14.5 0 7.995 6.5 14.5 14.5 14.5 7.99 0 14.5-6.505 14.5-14.5 0-7.996-6.51-14.5-14.5-14.5zm2.65 25.424l.55-4.32.23-1.65h1.28c1.03 0 1.94-.54 2.13-1.26l.29-1.11 3.82.03c-.98 4.12-4.19 7.34-8.3 8.32zm-2.66 2.43c-7.36 0-13.35-5.99-13.35-13.34 0-7.36 5.98-13.34 13.34-13.34 7.36 0 13.35 5.99 13.35 13.35 0 7.36-5.99 13.35-13.35 13.35zm-.07-15c-.44 0-.87.06-1.27.18-.31.09-.48.41-.39.72.09.31.41.48.71.39.29-.08.61-.13.94-.13 1.16 0 2.03.56 2.03 1.05s-.87 1.05-2.04 1.05c-1.16 0-2.03-.55-2.03-1.05 0-.32-.26-.57-.58-.57-.32 0-.58.26-.58.58 0 1.24 1.4 2.2 3.19 2.2s3.19-.97 3.19-2.2-1.4-2.2-3.19-2.2z" fill="#206FAC"/></g></svg>