<svg width="32" height="232" viewBox="0 0 32 232" xmlns="http://www.w3.org/2000/svg"><g fill="none"><path d="M27.805 18.94l-4.51-4.51 1.135-1.134c.16-.16.206-.4.12-.606l-1.29-3.075v-.002l-.003-.005-.016-.03-.03-.064-.04-.057-.02-.027v-.005l-2.82-2.812c-.1-.104-.24-.163-.39-.163-.15 0-.29.06-.39.163l-.86.86-1.96-1.967c-.22-.216-.57-.216-.79 0-.21.217-.21.568 0 .785l1.96 1.97-1.44 1.44-1.97-1.96c-.22-.22-.57-.22-.78 0-.22.22-.22.57 0 .79l1.97 1.97-.86.86c-.22.22-.22.57 0 .79l2.81 2.82.01.01.03.03.06.04.07.04.03.02.01.004h.004l3.07 1.29.215.04c.14 0 .283-.056.39-.16l1.02-1.02 4.51 4.51c.774.777 1.2 1.81 1.2 2.91s-.43 2.13-1.21 2.91c-1.604 1.6-4.214 1.6-5.82 0L19.64 24l-.09-.12-9.38-9.39c-.763-.77-1.777-1.19-2.857-1.19s-2.093.42-2.856 1.183c-1.58 1.573-1.58 4.136 0 5.712l1.98 1.985.04.05 4.67 4.665c.44.443.69 1.033.69 1.66 0 .628-.25 1.217-.69 1.66-.92.916-2.41.917-3.32 0L3.58 25.97c-.216-.216-.568-.216-.785 0-.22.218-.22.57 0 .786L7.04 31c.675.673 1.56 1.01 2.446 1.01.88 0 1.77-.338 2.44-1.01.65-.655 1.01-1.523 1.01-2.447 0-.923-.36-1.792-1.02-2.445l-.65-.65-.04-.048-6-6.002c-1.14-1.143-1.14-3.002 0-4.144.55-.554 1.29-.858 2.07-.858.782 0 1.52.304 2.07.858l.388.387.09.12 10.56 10.56c1.02 1.02 2.356 1.53 3.693 1.53 1.34 0 2.677-.51 3.695-1.52.986-.98 1.53-2.3 1.53-3.69s-.544-2.7-1.53-3.69zM19.928 7.79l2.033 2.033-3.94 3.942-2.03-2.033 3.94-3.942zm1.043 7.396l-1.97-.83 3.56-3.557.83 1.97-2.41 2.41zM10.58 3.768l-.322.103c-.192.07-.335.22-.376.42-.04.2.028.4.18.53l1.854 1.61c.105.09.234.14.363.14.15 0 .31-.06.42-.19.2-.23.17-.58-.06-.78l-1.11-.95.32-.1c.19-.06.33-.22.37-.41.04-.19-.03-.4-.18-.53L10.21 2c-.23-.2-.58-.176-.78.056-.2.23-.17.58.06.78l1.084.934zm2.078-1.847l-.322.11c-.192.06-.335.22-.376.42-.04.2.03.4.18.53l1.856 1.6c.104.09.234.14.362.14.156 0 .31-.06.42-.19.2-.23.175-.58-.057-.78l-1.1-.95.32-.1c.19-.06.34-.22.38-.41.04-.19-.03-.4-.18-.53L12.3.15c-.23-.2-.58-.177-.78.055-.2.232-.177.582.055.782l1.087.937z" fill="#3A434E"/><path d="M27.805 58.94l-4.51-4.51 1.135-1.134c.16-.16.206-.4.12-.606l-1.29-3.075v-.002l-.003-.005-.016-.03-.03-.064-.04-.057-.02-.027v-.005l-2.81-2.812c-.1-.104-.24-.163-.39-.163-.15 0-.29.06-.39.163l-.86.86-1.96-1.967c-.21-.216-.57-.216-.78 0-.21.217-.21.568 0 .785l1.97 1.97-1.43 1.44-1.96-1.96c-.22-.21-.57-.21-.78 0-.213.22-.213.57 0 .79l1.96 1.97-.86.86c-.22.22-.22.57 0 .79l2.81 2.82.01.01.03.02.054.05.06.04.03.02h.004l3.078 1.29.22.048c.143 0 .285-.054.39-.16l1.02-1.02 4.51 4.51c.777.778 1.204 1.81 1.204 2.91s-.427 2.13-1.204 2.91c-1.604 1.6-4.214 1.6-5.82 0L19.653 64l-.09-.12-9.383-9.383c-.76-.77-1.78-1.19-2.86-1.19s-2.09.42-2.85 1.183c-1.57 1.574-1.57 4.137 0 5.713l1.98 1.983.04.05 4.67 4.666c.44.44.69 1.03.69 1.66 0 .626-.24 1.215-.69 1.66-.91.914-2.4.915-3.32 0l-4.24-4.25c-.218-.217-.57-.217-.787 0-.22.217-.22.57 0 .785L7.04 71c.675.673 1.56 1.01 2.446 1.01.886 0 1.77-.338 2.446-1.01.653-.655 1.013-1.523 1.013-2.447 0-.923-.36-1.792-1.015-2.445l-.65-.65-.04-.048-6.002-6.002c-1.142-1.143-1.142-3.002 0-4.144.554-.554 1.29-.858 2.072-.858.783 0 1.52.304 2.072.858l.387.387.09.12 10.56 10.56c1.01 1.02 2.35 1.53 3.69 1.53 1.34 0 2.67-.51 3.69-1.52.98-.98 1.53-2.3 1.53-3.69s-.55-2.7-1.53-3.69zm-7.877-11.15l2.033 2.033-3.94 3.942-2.03-2.033 3.94-3.942zm1.043 7.396l-1.97-.83 3.56-3.557.83 1.97-2.41 2.41zM10.58 43.768l-.322.103c-.192.07-.335.22-.376.42-.04.2.028.4.18.53l1.854 1.61c.105.09.234.14.363.14.15 0 .31-.06.42-.19.2-.23.17-.58-.06-.78l-1.11-.95.32-.1c.19-.06.33-.22.37-.41.04-.19-.03-.4-.18-.53L10.21 42c-.23-.2-.58-.176-.78.056-.2.23-.174.58.058.78l1.087.935zm2.078-1.847l-.322.11c-.192.06-.335.22-.376.42-.04.2.03.4.18.53l1.856 1.6c.104.09.234.14.362.14.156 0 .31-.06.42-.19.2-.23.175-.58-.057-.78l-1.1-.95.32-.1c.19-.06.34-.22.38-.41.04-.19-.03-.4-.18-.53l-1.84-1.59c-.23-.2-.58-.17-.78.06-.2.24-.17.59.06.79l1.09.93z" fill="#67737B"/><path d="M27.805 98.94l-4.51-4.51 1.135-1.134c.16-.16.206-.4.12-.606l-1.29-3.075v-.002l-.003-.005-.016-.03-.03-.064-.04-.057-.02-.027v-.005l-2.81-2.812c-.1-.104-.24-.163-.39-.163-.15 0-.29.06-.39.163l-.86.86-1.96-1.967c-.21-.216-.57-.216-.78 0-.21.217-.21.568 0 .785l1.97 1.97-1.43 1.44-1.96-1.96c-.22-.21-.57-.21-.78 0-.213.22-.213.57 0 .79l1.96 1.97-.86.86c-.22.22-.22.57 0 .79l2.81 2.82.01.01.03.02.054.05.06.04.03.02h.004l3.078 1.29.22.048c.143 0 .285-.054.39-.16l1.02-1.02 4.51 4.51c.777.778 1.204 1.81 1.204 2.91s-.427 2.13-1.204 2.91c-1.604 1.6-4.214 1.6-5.82 0l-1.58-1.58-.09-.12-9.39-9.39c-.76-.77-1.78-1.19-2.86-1.19s-2.09.42-2.85 1.184c-1.57 1.575-1.57 4.138 0 5.714l1.98 1.984.04.05 4.67 4.667c.44.44.69 1.03.69 1.66 0 .627-.24 1.216-.69 1.66-.91.915-2.4.916-3.32 0l-4.24-4.243c-.213-.214-.57-.214-.782 0-.213.22-.213.57 0 .788l4.22 4.23c.676.673 1.56 1.01 2.447 1.01.89 0 1.77-.338 2.45-1.01.66-.655 1.02-1.523 1.02-2.447 0-.923-.36-1.792-1.01-2.445l-.65-.65-.04-.047-6.01-6.007c-1.14-1.143-1.14-3.002 0-4.144.56-.555 1.29-.86 2.08-.86s1.52.305 2.07.86l.39.386.09.12 10.56 10.56c1.02 1.02 2.36 1.53 3.7 1.53 1.335 0 2.67-.51 3.69-1.52.99-.98 1.53-2.3 1.53-3.69s-.54-2.7-1.53-3.69zm-7.877-11.15l2.033 2.033-3.94 3.942-2.03-2.033 3.94-3.942zm1.043 7.396l-1.97-.83 3.56-3.557.83 1.97-2.41 2.41zM10.58 83.768l-.322.103c-.192.07-.335.22-.376.42-.04.2.028.4.18.53l1.854 1.61c.105.09.234.14.363.14.15 0 .31-.06.42-.19.2-.23.17-.58-.06-.78l-1.11-.95.32-.1c.19-.06.33-.22.37-.41.04-.19-.03-.4-.18-.53L10.21 82c-.23-.2-.58-.176-.78.056-.2.23-.174.58.058.78l1.087.935zm2.078-1.847l-.322.11c-.192.06-.335.22-.376.42-.04.2.03.4.18.53l1.856 1.6c.104.09.234.14.362.14.156 0 .31-.06.42-.19.2-.23.175-.58-.057-.78l-1.1-.95.32-.1c.19-.06.34-.22.38-.41.04-.19-.03-.4-.18-.53l-1.84-1.59c-.23-.2-.58-.17-.78.06-.2.24-.17.59.06.79l1.09.93z" fill="#fff"/><path d="M27.805 138.94l-4.51-4.51 1.135-1.134c.16-.16.206-.4.12-.606l-1.29-3.075v-.002l-.003-.005-.016-.03-.03-.064-.04-.057-.02-.027v-.005l-2.81-2.812c-.1-.104-.24-.163-.39-.163-.15 0-.29.06-.39.163l-.86.86-1.96-1.967c-.21-.216-.57-.216-.78 0-.21.217-.21.568 0 .785l1.97 1.97-1.43 1.44-1.96-1.96c-.22-.21-.57-.21-.78 0-.214.22-.214.57 0 .79l1.97 1.97-.86.86c-.22.22-.22.57 0 .79l2.81 2.82v.01l.03.02.056.05.06.04.03.02.005.01h.008l3.076 1.29.22.048c.14 0 .284-.056.39-.162l1.02-1.02 4.51 4.515c.776.778 1.203 1.81 1.203 2.91s-.425 2.13-1.202 2.91c-1.6 1.6-4.21 1.6-5.812 0L19.66 144l-.09-.12-9.384-9.384c-.767-.77-1.78-1.19-2.86-1.19s-2.094.42-2.857 1.184c-1.58 1.574-1.58 4.137 0 5.713l1.98 1.983.04.05 4.66 4.666c.44.44.68 1.03.68 1.66 0 .625-.25 1.214-.69 1.66-.92.913-2.41.914-3.32 0l-4.25-4.245c-.22-.215-.57-.215-.79 0-.22.22-.22.57 0 .787L7.04 151c.678.673 1.56 1.01 2.45 1.01.89 0 1.77-.338 2.45-1.01.66-.655 1.02-1.523 1.02-2.447 0-.923-.36-1.792-1.01-2.445l-.65-.65-.04-.048-6.004-6.002c-1.14-1.143-1.14-3.002 0-4.144.555-.554 1.29-.858 2.073-.858s1.52.304 2.07.858l.39.387.09.12 10.56 10.56c1.02 1.02 2.36 1.53 3.69 1.53s2.67-.51 3.69-1.52c.99-.98 1.53-2.3 1.53-3.69s-.54-2.7-1.53-3.69zm-7.877-11.15l2.033 2.033-3.94 3.942-2.03-2.033 3.94-3.942zm1.043 7.396l-1.97-.83 3.56-3.557.83 1.97-2.41 2.41zm-10.39-11.418l-.32.103c-.19.07-.33.22-.37.42-.04.2.03.4.18.53l1.86 1.61c.11.09.24.14.37.14.16 0 .31-.06.42-.19.2-.23.18-.58-.05-.78l-1.1-.95.32-.1c.19-.06.34-.22.38-.41.04-.19-.03-.4-.18-.53L10.22 122c-.23-.2-.58-.176-.78.056-.2.23-.175.58.057.78l1.08.935zm2.08-1.847l-.32.11c-.19.06-.33.22-.37.42-.04.2.03.4.18.53l1.86 1.6c.11.09.24.14.36.14.16 0 .31-.06.42-.19.2-.23.18-.58-.05-.78l-1.1-.95.32-.1c.19-.06.34-.22.38-.41.04-.19-.03-.4-.18-.53l-1.83-1.59c-.23-.2-.58-.17-.78.06-.2.24-.17.59.06.79l1.08.93z" fill="#206FAC"/></g></svg>