<svg width="32" height="232" viewBox="0 0 32 232" xmlns="http://www.w3.org/2000/svg"><g fill="none"><path d="M31.95 29.927l-7.29-15.865c-.09-.2-.29-.327-.51-.327-.218 0-.417.128-.51.327l-1.62 3.532-4.005-8.717c-.09-.2-.29-.327-.51-.327-.22 0-.418.128-.51.327l-5.22 11.367-.902-1.962c-.092-.2-.29-.327-.51-.327-.22 0-.42.128-.51.327L4.653 29.6h-3.53v-1.724h2.355c.31 0 .56-.25.56-.56 0-.31-.25-.562-.56-.562H1.122V25.59h2.356c.31 0 .56-.252.56-.562 0-.31-.25-.56-.56-.56H1.122V23.3h2.356c.31 0 .56-.25.56-.56 0-.31-.25-.562-.56-.562H1.122v-1.165h2.356c.31 0 .56-.25.56-.56 0-.31-.25-.562-.56-.562H1.122v-1.16h2.356c.31 0 .56-.25.56-.56 0-.31-.25-.56-.56-.56H1.122v-1.17h2.356c.31 0 .56-.25.56-.56 0-.31-.25-.56-.56-.56H1.122v-1.16h2.356c.31 0 .56-.25.56-.56 0-.31-.25-.56-.56-.56H1.122v-1.17h2.356c.31 0 .56-.25.56-.56 0-.31-.25-.56-.56-.56H1.122V9.58h13.346c.31 0 .56-.25.56-.56 0-.31-.25-.562-.56-.562H1.122V7.294h2.356c.31 0 .56-.252.56-.562 0-.31-.25-.56-.56-.56H1.122V5.006h2.356c.31 0 .56-.252.56-.562 0-.31-.25-.56-.56-.56H1.122V2.06c0-.31-.25-.562-.56-.562-.31 0-.562.252-.562.562v28.1c0 .31.25.56.56.56h30.88c.19 0 .368-.096.47-.257.104-.16.12-.364.04-.538zm-14.445-19.47l1.73 3.768-.444.586-.84-1.09c-.1-.14-.28-.22-.45-.22-.17.01-.34.09-.44.24l-.78 1.09-.49-.6 1.73-3.75zM15.712 29.6H5.89l4.473-9.74.793 1.73-1.545 3.363c-.13.282 0 .615.28.745s.62.006.75-.276l4.63-10.074.61.743c.11.14.27.21.44.21h.02c.18 0 .34-.09.44-.23l.75-1.07.83 1.08c.11.14.27.22.45.22s.34-.08.45-.22l.52-.69L26.3 29.6H15.71zm13.633 0h-1.81l-4.898-10.662 1.514-3.297 6.42 13.96h-1.22z" fill="#3A434E"/><path d="M31.95 69.927l-7.29-15.865c-.09-.2-.29-.327-.51-.327-.218 0-.417.128-.51.327l-1.62 3.532-4.005-8.717c-.09-.2-.29-.327-.51-.327-.22 0-.418.128-.51.327l-5.22 11.367-.902-1.962c-.092-.2-.29-.327-.51-.327-.22 0-.42.128-.51.327L4.653 69.6h-3.53v-1.724h2.355c.31 0 .56-.25.56-.56 0-.31-.25-.562-.56-.562H1.122V65.59h2.356c.31 0 .56-.252.56-.562 0-.31-.25-.56-.56-.56H1.122V63.3h2.356c.31 0 .56-.25.56-.56 0-.31-.25-.562-.56-.562H1.122v-1.165h2.356c.31 0 .56-.25.56-.56 0-.31-.25-.562-.56-.562H1.122v-1.16h2.356c.31 0 .56-.25.56-.56 0-.31-.25-.56-.56-.56H1.122v-1.17h2.356c.31 0 .56-.25.56-.56 0-.31-.25-.56-.56-.56H1.122v-1.16h2.356c.31 0 .56-.25.56-.56 0-.31-.25-.56-.56-.56H1.122v-1.17h2.356c.31 0 .56-.25.56-.56 0-.31-.25-.56-.56-.56H1.122v-1.17h13.346c.31 0 .56-.25.56-.56 0-.31-.25-.56-.56-.56H1.122V47.3h2.356c.31 0 .56-.252.56-.562 0-.31-.25-.56-.56-.56H1.122V45.01h2.356c.31 0 .56-.253.56-.563 0-.31-.25-.56-.56-.56H1.122V42.06c0-.31-.25-.562-.56-.562-.31 0-.562.252-.562.562v28.1c0 .31.25.56.56.56h30.88c.19 0 .368-.096.47-.257.104-.16.12-.364.04-.538zm-14.445-19.47l1.73 3.768-.444.586-.84-1.09c-.1-.14-.28-.22-.45-.22-.17.01-.34.09-.44.24l-.78 1.09-.49-.6 1.73-3.75zM15.712 69.6H5.89l4.473-9.74.793 1.73-1.545 3.363c-.13.282 0 .615.28.745s.62.006.75-.276l4.63-10.074.61.743c.11.14.27.21.44.21h.02c.18 0 .34-.09.44-.23l.75-1.07.83 1.08c.11.14.27.22.45.22s.34-.08.45-.22l.52-.69L26.3 69.6H15.71zm13.633 0h-1.81l-4.898-10.662 1.514-3.297 6.42 13.96h-1.22z" fill="#67737B"/><path d="M31.95 109.927l-7.29-15.865c-.09-.2-.29-.327-.51-.327-.218 0-.417.128-.51.327l-1.62 3.532-4.005-8.717c-.09-.2-.29-.327-.51-.327-.22 0-.418.128-.51.327l-5.22 11.367-.902-1.962c-.092-.2-.29-.327-.51-.327-.22 0-.42.128-.51.327l-5.2 11.318h-3.53v-1.724h2.355c.31 0 .56-.25.56-.56 0-.31-.25-.562-.56-.562H1.122v-1.165h2.356c.31 0 .56-.26.56-.57 0-.31-.25-.56-.56-.56H1.122v-1.16h2.356c.31 0 .56-.25.56-.56 0-.31-.25-.57-.56-.57H1.122V101h2.356c.31 0 .56-.25.56-.56 0-.31-.25-.56-.56-.56H1.122v-1.16h2.356c.31 0 .56-.25.56-.56 0-.31-.25-.56-.56-.56H1.122v-1.17h2.356c.31 0 .56-.25.56-.56 0-.31-.25-.56-.56-.56H1.122v-1.16h2.356c.31 0 .56-.25.56-.56 0-.31-.25-.56-.56-.56H1.122v-1.16h2.356c.31 0 .56-.25.56-.56 0-.31-.25-.564-.56-.564H1.122V89.58h13.346c.31 0 .56-.25.56-.56 0-.31-.25-.562-.56-.562H1.122v-1.164h2.356c.31 0 .56-.252.56-.562 0-.31-.25-.56-.56-.56H1.122v-1.165h2.356c.31 0 .56-.252.56-.562 0-.31-.25-.56-.56-.56H1.122V82.06c0-.31-.25-.562-.56-.562-.31 0-.562.252-.562.562v28.1c0 .31.25.56.56.56h30.88c.19 0 .368-.096.47-.257.104-.16.12-.364.04-.538zm-14.445-19.47l1.73 3.768-.444.586-.84-1.09c-.1-.14-.28-.22-.45-.22-.17.01-.34.09-.44.24l-.78 1.09-.49-.6 1.73-3.75zM15.712 109.6H5.89l4.473-9.74.793 1.73-1.545 3.363c-.13.282 0 .615.28.745s.62.006.75-.276l4.63-10.074.61.743c.11.14.27.21.44.21h.02c.18 0 .34-.09.44-.23l.75-1.07.83 1.08c.11.14.27.22.45.22s.34-.08.45-.22l.52-.69 6.54 14.22h-10.6zm13.633 0h-1.81l-4.898-10.662 1.514-3.297 6.42 13.96h-1.22z" fill="#fff"/><path d="M31.95 149.927l-7.29-15.865c-.09-.2-.29-.327-.51-.327-.218 0-.417.128-.51.327l-1.62 3.532-4.005-8.717c-.09-.2-.29-.327-.51-.327-.22 0-.418.128-.51.327l-5.22 11.367-.902-1.962c-.092-.2-.29-.327-.51-.327-.22 0-.42.128-.51.327l-5.2 11.318h-3.53v-1.724h2.355c.31 0 .56-.25.56-.56 0-.31-.25-.562-.56-.562H1.122v-1.165h2.356c.31 0 .56-.26.56-.57 0-.31-.25-.56-.56-.56H1.122v-1.16h2.356c.31 0 .56-.25.56-.56 0-.31-.25-.57-.56-.57H1.122V141h2.356c.31 0 .56-.25.56-.56 0-.31-.25-.56-.56-.56H1.122v-1.16h2.356c.31 0 .56-.25.56-.56 0-.31-.25-.56-.56-.56H1.122v-1.167h2.356c.31 0 .56-.25.56-.56 0-.31-.25-.56-.56-.56H1.122v-1.166h2.356c.31 0 .56-.25.56-.56 0-.31-.25-.564-.56-.564H1.122v-1.16h2.356c.31 0 .56-.25.56-.56 0-.31-.25-.56-.56-.56H1.122v-1.163h13.346c.31 0 .56-.25.56-.56 0-.31-.25-.56-.56-.56H1.122v-1.17h2.356c.31 0 .56-.253.56-.563 0-.31-.25-.56-.56-.56H1.122v-1.163h2.356c.31 0 .56-.25.56-.56 0-.31-.25-.56-.56-.56H1.122v-1.827c0-.31-.25-.563-.56-.563-.31 0-.562.255-.562.565v28.1c0 .31.25.56.56.56h30.88c.19 0 .368-.1.47-.26.104-.16.12-.37.04-.54zm-14.445-19.47l1.73 3.768-.444.586-.84-1.09c-.1-.14-.28-.22-.45-.22-.17.01-.34.09-.44.24l-.78 1.09-.49-.6 1.73-3.75zM15.712 149.6H5.89l4.473-9.74.793 1.73-1.545 3.363c-.13.282 0 .615.28.745s.62.006.75-.276l4.63-10.074.61.743c.11.14.27.21.44.21h.02c.18 0 .34-.09.44-.23l.76-1.06.83 1.08c.11.14.27.22.45.22s.34-.08.45-.22l.53-.69 6.53 14.21h-10.6zm13.633 0h-1.81l-4.898-10.662 1.514-3.297 6.42 13.96h-1.22z" fill="#206FAC"/></g></svg>