<svg width="32" height="232" viewBox="0 0 32 232" xmlns="http://www.w3.org/2000/svg"><g fill="none"><path d="M31.667 11.122c-.276-.102-.566-.15-.888-.15-.37 0-.73.064-1.07.127-.31.05-.6.11-.88.11-.2 0-.38-.03-.54-.09-.16-.06-.33-.04-.47.06-.14.09-.22.25-.22.42v4.77h-4.16v-.81h.03c.28 0 .51-.23.51-.51l-.04-.19-.5-1.67c-.07-.22-.27-.37-.49-.37h-7.28V7.87c.22.035.45.053.69.053.59 0 1.17-.107 1.73-.21.53-.1 1.04-.194 1.54-.194.38 0 .71.05 1.02.17.15.05.33.03.47-.06.13-.1.21-.26.21-.42v-3.5c0-.22-.13-.41-.34-.48-.42-.16-.87-.23-1.37-.23-.59 0-1.17.1-1.73.21-.54.1-1.05.19-1.55.19-.38 0-.71-.06-1.02-.17-.16-.06-.33-.04-.47.06-.14.09-.22.25-.22.42v9.12h-7.3c-.23 0-.43.15-.49.36l-.51 1.71c-.05.15-.02.32.08.45.092.13.25.2.41.2v.8H2.77v-2.07l.198.01c.37 0 .722-.07 1.063-.13.31-.06.61-.11.88-.11.2 0 .38.03.54.09.16.05.33.03.47-.06.14-.1.22-.26.22-.42V11.6c0-.216-.13-.407-.33-.48-.27-.103-.56-.152-.88-.152-.37 0-.72.07-1.06.13-.31.06-.6.11-.87.11-.2 0-.37-.03-.53-.08-.15-.06-.33-.034-.47.06-.13.096-.22.25-.22.42v4.77H.52c-.287 0-.516.23-.516.512v11.95c0 .284.23.513.517.513h29.32c.28 0 .51-.23.51-.512V16.89c0-.284-.23-.513-.51-.513h-1.2V14.3l.19.008c.37 0 .73-.065 1.07-.128.31-.057.61-.11.88-.11.2 0 .38.027.54.087.16.058.34.035.47-.06.14-.096.22-.253.22-.42v-2.07c0-.216-.13-.407-.33-.48zm-.69 1.927l-.198-.01c-.37 0-.73.06-1.07.13-.31.05-.6.11-.88.11l-.2-.01v-1.05h.2c.37 0 .72-.07 1.06-.13.31-.06.6-.11.87-.11l.2.01v1.04zm-3.36 15.27H23.98l-.49-1.28v-6.83h5.83v8.1h-1.703zm-5.15 0h-2.552v-7.91h.21c.283 0 .512-.23.512-.52v-1.77c0-.28-.23-.51-.51-.51h-9.94c-.282 0-.512.23-.512.51v1.78c0 .28.23.51.512.51h.21v7.9h-2.97l.416-1.08.034-.18V15.57h14.56v11.49l.03.17.003.012.414 1.08h-.418zm-11.77-9.68h8.917v.75h-8.916v-.75zm.723 1.77h1.1v7.9h-1.1v-7.9zm2.124 0h1.102v7.9h-1.102v-7.9zm2.156 7.91h-.033v-7.91h1.1v7.9H15.7zm2.09-7.91h1.1v7.9h-1.1v-7.9zM2.77 28.32H1.022v-8.104h5.83v6.743l-.52 1.37H2.77zM1.023 17.39h5.83v1.803h-5.83V17.39zm6.723-3.532h14.85l.16.53.045.15H7.54l.046-.15.16-.53zM23.49 17.39h5.83v1.802h-5.83V17.39zM18.11 4.216c.538-.1 1.046-.193 1.545-.193.246 0 .474.023.69.072V6.55c-.22-.036-.45-.053-.69-.053-.592 0-1.17.107-1.73.21-.537.1-1.045.193-1.545.193-.246 0-.473-.023-.688-.07V4.372c.22.036.446.053.686.053.594 0 1.173-.106 1.73-.21zM4.03 12.104c.31-.057.602-.11.88-.11l.198.01v1.045l-.2-.01c-.37 0-.722.06-1.063.13-.31.05-.6.11-.877.11l-.2-.01v-1.05h.2c.37 0 .723-.07 1.063-.13z" fill="#3A434E"/><path d="M31.667 51.122c-.276-.102-.566-.15-.888-.15-.37 0-.73.064-1.07.127-.31.05-.6.11-.88.11-.2 0-.38-.03-.54-.09-.16-.06-.33-.04-.47.06-.14.09-.22.25-.22.42v4.77h-4.16v-.81h.03c.28 0 .51-.23.51-.51l-.04-.19-.5-1.67c-.07-.22-.27-.37-.49-.37h-7.28v-4.96c.22.03.45.05.69.05.59 0 1.17-.11 1.73-.21.53-.1 1.04-.2 1.54-.2.38 0 .71.05 1.02.17.15.05.33.03.47-.06.13-.1.21-.26.21-.42v-3.5c0-.22-.13-.41-.34-.48-.43-.16-.88-.24-1.38-.24-.59 0-1.17.1-1.73.21-.53.1-1.04.19-1.54.19-.38 0-.71-.06-1.02-.17-.16-.06-.34-.04-.47.06-.14.09-.22.25-.22.42v9.12h-7.3c-.23 0-.43.15-.49.36l-.51 1.7c-.05.15-.02.32.08.45.092.13.25.2.41.2v.81H2.77v-2.07l.198.01c.37 0 .722-.07 1.063-.13.31-.06.61-.11.88-.11.2 0 .38.03.54.09.16.05.33.03.47-.06.14-.1.22-.26.22-.42V51.6c0-.217-.13-.408-.33-.48-.27-.104-.56-.153-.88-.153-.37 0-.72.066-1.06.13-.31.056-.6.11-.87.11-.2 0-.37-.03-.53-.088-.15-.06-.33-.04-.47.06-.13.09-.22.25-.22.42v4.76H.52c-.287 0-.516.23-.516.51v11.95c0 .28.23.51.517.51h29.32c.28 0 .51-.23.51-.51V56.88c0-.285-.23-.514-.51-.514h-1.2v-2.074l.19.008c.37 0 .73-.065 1.07-.128.31-.057.61-.11.88-.11.2 0 .38.027.54.087.16.05.34.03.47-.06.14-.1.22-.26.22-.42V51.6c0-.217-.13-.408-.33-.48zm-.69 1.927l-.198-.01c-.37 0-.73.06-1.07.13-.31.05-.6.11-.88.11l-.2-.01v-1.05h.2c.37 0 .72-.07 1.06-.13.31-.06.6-.11.87-.11l.2.01v1.04zm-3.36 15.27H23.98l-.49-1.28v-6.83h5.83v8.1h-1.703zm-5.15 0h-2.552v-7.91h.21c.283 0 .512-.23.512-.52v-1.77c0-.28-.23-.51-.51-.51h-9.94c-.282 0-.512.23-.512.51v1.78c0 .28.23.51.512.51h.21v7.9h-2.97l.416-1.08.034-.18V55.57h14.56v11.49l.03.17.003.012.414 1.08h-.418zm-11.77-9.68h8.917v.75h-8.916v-.75zm.723 1.77h1.1v7.9h-1.1v-7.9zm2.124 0h1.102v7.9h-1.102v-7.9zm2.156 7.91h-.033v-7.91h1.1v7.9H15.7zm2.09-7.91h1.1v7.9h-1.1v-7.9zM2.77 68.32H1.022v-8.104h5.83v6.743l-.52 1.37H2.77zM1.023 57.39h5.83v1.803h-5.83V57.39zm6.723-3.532h14.85l.16.53.045.15H7.54l.046-.15.16-.53zM23.49 57.39h5.83v1.802h-5.83V57.39zm-5.38-13.177c.533-.1 1.04-.193 1.54-.193.246 0 .474.023.69.072v2.455c-.22-.037-.45-.054-.69-.054-.59 0-1.17.107-1.73.21-.537.1-1.045.193-1.545.193-.247 0-.474-.024-.69-.07V44.37c.22.036.447.053.687.053.594 0 1.173-.106 1.73-.21zm-14.08 7.89c.31-.058.602-.11.88-.11l.198.01v1.044l-.2-.01c-.37 0-.722.06-1.063.13-.31.05-.6.11-.877.11l-.2-.01v-1.05h.2c.37 0 .723-.065 1.063-.13z" fill="#67737B"/><path d="M31.667 91.122c-.276-.102-.566-.15-.888-.15-.37 0-.73.064-1.07.127-.31.05-.6.11-.88.11-.2 0-.38-.03-.54-.09-.16-.06-.33-.04-.47.06-.14.09-.22.25-.22.42v4.77h-4.16v-.81h.03c.28 0 .51-.23.51-.51l-.04-.19-.5-1.67c-.07-.22-.27-.37-.49-.37h-7.28v-4.96c.22.03.45.05.69.05.59 0 1.17-.11 1.73-.21.53-.1 1.04-.2 1.54-.2.38 0 .71.05 1.02.17.15.05.33.03.47-.06.13-.1.21-.26.21-.42v-3.5c0-.22-.13-.41-.34-.48-.43-.16-.88-.24-1.38-.24-.59 0-1.17.1-1.73.21-.53.1-1.04.19-1.54.19-.38 0-.71-.06-1.02-.17-.16-.06-.34-.04-.47.06-.14.09-.22.25-.22.42v9.12h-7.3c-.23 0-.43.15-.49.36l-.51 1.7c-.05.15-.02.32.08.45.092.13.25.2.41.2v.81H2.77v-2.07l.198.01c.37 0 .722-.07 1.063-.13.31-.06.61-.11.88-.11.2 0 .38.03.54.09.16.05.33.03.47-.06.14-.1.22-.26.22-.42V91.6c0-.217-.13-.408-.33-.48-.27-.104-.56-.153-.88-.153-.37 0-.72.066-1.06.13-.31.056-.6.11-.87.11-.2 0-.37-.03-.53-.088-.15-.06-.33-.04-.47.06-.13.09-.22.25-.22.42v4.76H.52c-.287 0-.516.23-.516.51v11.95c0 .28.23.51.517.51h29.32c.28 0 .51-.23.51-.51V96.88c0-.285-.23-.514-.51-.514h-1.2v-2.074l.19.008c.37 0 .73-.065 1.07-.128.31-.057.61-.11.88-.11.2 0 .38.027.54.087.16.05.34.03.47-.06.14-.1.22-.26.22-.42V91.6c0-.217-.13-.408-.33-.48zm-.69 1.927l-.198-.01c-.37 0-.73.06-1.07.13-.31.05-.6.11-.88.11l-.2-.01v-1.05h.2c.37 0 .72-.07 1.06-.13.31-.06.6-.11.87-.11l.2.01v1.04zm-3.36 15.27H23.98l-.49-1.28v-6.83h5.83v8.1h-1.703zm-5.15 0h-2.552v-7.91h.21c.283 0 .512-.23.512-.51v-1.77c0-.28-.23-.51-.51-.51h-9.94c-.282 0-.512.23-.512.51v1.77c0 .28.23.51.512.51h.21v7.9h-2.97l.416-1.08.034-.18V95.57h14.56v11.49l.03.17.003.012.414 1.08h-.418zm-11.77-9.68h8.917v.75h-8.916v-.75zm.723 1.77h1.1v7.9h-1.1v-7.91zm2.124 0h1.102v7.9h-1.102v-7.91zm2.155 7.9h-.04v-7.91h1.1v7.9H15.7zm2.09-7.91h1.1v7.9h-1.1v-7.9zm-15.02 7.91H1.02v-8.11h5.83v6.74l-.52 1.36H2.77zM1.02 97.39h5.83v1.803H1.02V97.39zm6.72-3.53h14.85l.16.53.045.157H7.54l.046-.15.16-.532zm15.743 3.54h5.83v1.8h-5.83v-1.804zM18.11 84.22c.538-.1 1.046-.195 1.545-.195.246 0 .474.023.688.072v2.455c-.22-.035-.447-.052-.687-.052-.6 0-1.17.11-1.73.21-.54.1-1.05.2-1.55.2-.25 0-.48-.02-.69-.07v-2.46c.22.04.44.056.68.056.593 0 1.172-.105 1.73-.21zM4.03 92.102c.31-.057.602-.11.88-.11l.198.01v1.045l-.2-.01c-.37 0-.722.06-1.063.13-.31.052-.6.11-.877.11l-.2-.01v-1.05l.2.005c.37 0 .723-.064 1.063-.128z" fill="#fff"/><path d="M31.667 131.122c-.276-.102-.566-.15-.888-.15-.37 0-.73.064-1.07.127-.31.05-.6.11-.88.11-.2 0-.38-.03-.54-.09-.16-.06-.33-.04-.47.06-.14.09-.22.25-.22.42v4.77h-4.16v-.81h.03c.28 0 .51-.23.51-.51l-.04-.19-.5-1.67c-.07-.22-.27-.37-.49-.37h-7.28v-4.97c.22.03.45.05.69.05.59 0 1.17-.11 1.73-.21.53-.1 1.04-.2 1.54-.2.38 0 .71.05 1.02.17.15.06.33.03.47-.06.13-.1.21-.25.21-.42v-3.49c0-.22-.13-.41-.34-.48-.43-.16-.88-.24-1.38-.24-.59 0-1.17.11-1.73.21-.53.1-1.04.19-1.54.19-.38 0-.71-.06-1.02-.17-.16-.06-.34-.04-.47.06-.14.09-.22.25-.22.42v9.12h-7.3c-.23 0-.43.15-.49.36l-.51 1.7c-.05.16-.02.322.08.452.092.13.25.2.41.2v.8H2.77v-2.076l.198.01c.37 0 .722-.06 1.063-.13.31-.05.61-.11.88-.11.2 0 .38.03.54.09.16.06.33.04.47-.06.14-.09.22-.25.22-.42v-2.07c0-.21-.13-.4-.33-.48-.27-.1-.56-.15-.88-.15-.37 0-.72.07-1.06.13-.31.06-.6.11-.87.11-.2 0-.37-.03-.53-.09-.15-.053-.33-.03-.47.06-.13.1-.22.257-.22.42v4.77H.52c-.287 0-.516.23-.516.51v11.95c0 .29.23.52.517.52h29.32c.28 0 .51-.23.51-.517v-11.95c0-.285-.23-.51-.51-.51h-1.2v-2.07l.19.01c.37 0 .73-.07 1.07-.13.31-.06.61-.11.88-.11.2 0 .38.022.54.082.16.06.34.032.47-.06.14-.1.22-.25.22-.42v-2.07c0-.22-.13-.41-.33-.48zm-.69 1.927l-.198-.01c-.37 0-.73.06-1.07.13-.31.05-.6.11-.88.11l-.2-.01v-1.05h.2c.37 0 .72-.07 1.06-.13.31-.06.6-.11.87-.11l.2.01v1.04zm-3.36 15.27H23.98l-.49-1.28v-6.83h5.83v8.1h-1.703zm-5.15 0h-2.552v-7.91h.21c.283 0 .512-.23.512-.51v-1.78c0-.28-.23-.51-.51-.51h-9.94c-.282 0-.512.23-.512.51v1.77c0 .28.23.51.512.51h.21v7.9h-2.97l.416-1.08.034-.19v-11.49h14.56v11.49l.03.17.003.01.414 1.08h-.418zm-11.77-9.68h8.917v.75h-8.916v-.75zm.723 1.77h1.1v7.9h-1.1v-7.91zm2.124 0h1.102v7.9h-1.102v-7.91zm2.155 7.9h-.04v-7.91h1.1v7.9H15.7zm2.09-7.91h1.1v7.9h-1.1v-7.9zm-15.02 7.91H1.02v-8.11h5.83v6.74l-.52 1.36H2.77zm-1.75-10.93h5.83v1.8H1.02v-1.8zm6.72-3.53h14.85l.16.53.04.15H7.54l.046-.15.16-.53zm15.74 3.53h5.83v1.8h-5.83v-1.8zm-5.37-13.18c.54-.1 1.04-.2 1.54-.2.24 0 .47.02.68.07v2.45c-.22-.04-.45-.06-.69-.06-.6 0-1.17.11-1.73.21-.54.1-1.05.19-1.55.19-.25 0-.47-.03-.69-.07v-2.46c.22.03.44.05.68.05.59 0 1.17-.11 1.73-.21zm-14.09 7.9c.31-.06.6-.11.88-.11l.19.01v1.04l-.2-.01c-.37 0-.72.06-1.07.13-.31.05-.6.11-.88.11l-.2-.01v-1.05h.2c.37 0 .72-.07 1.06-.13z" fill="#206FAC"/></g></svg>