<svg width="32" height="232" viewBox="0 0 32 232" xmlns="http://www.w3.org/2000/svg"><g fill="none"><path d="M16.056 5.534c1.526 0 2.767-1.24 2.767-2.767S17.583 0 16.056 0C14.53 0 13.29 1.24 13.29 2.767c0 1.526 1.24 2.767 2.766 2.767zm0-4.32c.807 0 1.463.657 1.463 1.464s-.66 1.462-1.47 1.462-1.47-.654-1.47-1.46.65-1.464 1.46-1.464zM24.192 30.7h-6.245v-3.48h3.988c.203 0 .394-.096.517-.256.124-.16.165-.37.112-.564l-3.337-12.373.343-3.5 2.21 6.536c.093.27.347.443.62.443l.208-.035c.34-.11.524-.48.41-.82l-3.07-9.07-.08-.15c-.01-.28-.21-.54-.496-.61l-3.238-.79c-.105-.02-.214-.02-.318 0l-3.083.79c-.284.08-.48.33-.488.61l-.08.16-3.07 9.07c-.115.34.068.71.41.83l.208.04c.272 0 .526-.17.618-.44l2.22-6.53.35 3.5L9.55 26.4c-.053.195-.01.405.112.564.124.16.315.255.518.255h3.988v3.48H7.92c-.36 0-.652.29-.652.65 0 .36.29.65.652.65h16.272c.36 0 .652-.29.652-.65 0-.36-.29-.65-.652-.65zm-13.164-4.89l3.147-11.705.02-.232-.597-6.107 2.385-.613 2.53.62-.595 6.1.02.232 3.146 11.706H11.028zm4.44 1.305h1.175v3.492H15.47v-3.492z" fill="#3A434E"/><path d="M16.056 45.534c1.526 0 2.767-1.24 2.767-2.767 0-1.526-1.24-2.767-2.767-2.767-1.526 0-2.767 1.24-2.767 2.767 0 1.526 1.24 2.767 2.76 2.767zm0-4.32c.807 0 1.463.657 1.463 1.464s-.66 1.463-1.47 1.463-1.47-.65-1.47-1.46.65-1.46 1.46-1.46zM24.192 70.7h-6.245v-3.48h3.988c.203 0 .394-.096.517-.256.124-.16.165-.37.112-.564l-3.337-12.373.343-3.5 2.21 6.536c.093.27.347.443.62.443l.208-.035c.34-.11.524-.48.41-.82l-3.07-9.07-.08-.15c-.01-.28-.21-.54-.496-.61l-3.238-.79c-.105-.02-.214-.02-.318 0l-3.083.79c-.284.08-.48.33-.488.61l-.08.16-3.07 9.07c-.115.34.068.71.41.83l.208.04c.272 0 .526-.17.618-.44l2.22-6.53.35 3.5L9.55 66.4c-.053.195-.01.405.112.564.124.16.315.255.518.255h3.988v3.48H7.92c-.36 0-.652.29-.652.65 0 .36.29.65.652.65h16.272c.36 0 .652-.29.652-.65 0-.36-.29-.65-.652-.65zm-13.164-4.89l3.147-11.705.02-.232-.597-6.107 2.385-.613 2.53.62-.595 6.1.02.232 3.146 11.706H11.028zm4.44 1.305h1.175v3.492H15.47v-3.492z" fill="#67737B"/><path d="M16.056 85.534c1.526 0 2.767-1.24 2.767-2.767 0-1.526-1.24-2.767-2.767-2.767-1.526 0-2.767 1.24-2.767 2.767 0 1.526 1.24 2.767 2.76 2.767zm0-4.32c.807 0 1.463.657 1.463 1.464s-.66 1.463-1.47 1.463-1.47-.65-1.47-1.46.65-1.46 1.46-1.46zm8.136 29.486h-6.245v-3.48h3.988c.203 0 .394-.096.517-.256.124-.16.165-.37.112-.564l-3.337-12.373.343-3.5 2.21 6.536c.093.27.347.443.62.443l.208-.035c.34-.11.524-.48.41-.82l-3.07-9.07-.08-.15c-.01-.28-.21-.54-.496-.61l-3.238-.79c-.105-.02-.214-.02-.318 0l-3.083.79c-.284.08-.48.33-.488.61l-.08.16-3.07 9.07c-.115.34.068.71.41.83l.208.04c.272 0 .526-.17.618-.44l2.22-6.53.35 3.5-3.34 12.37c-.05.2-.01.41.12.57.13.16.32.26.52.26h3.99v3.48H7.92c-.36 0-.652.29-.652.65 0 .36.29.65.652.65h16.272c.36 0 .652-.29.652-.65 0-.36-.29-.65-.652-.65zm-13.164-4.89l3.147-11.705.02-.232-.597-6.107 2.385-.613 2.53.62-.595 6.1.02.232 3.146 11.706H11.028zm4.44 1.305h1.175v3.492H15.47v-3.492z" fill="#fff"/><path d="M16.056 125.534c1.526 0 2.767-1.24 2.767-2.767 0-1.526-1.24-2.767-2.767-2.767-1.526 0-2.767 1.24-2.767 2.767 0 1.526 1.24 2.767 2.76 2.767zm0-4.32c.807 0 1.463.657 1.463 1.464s-.66 1.463-1.47 1.463-1.47-.65-1.47-1.46.65-1.46 1.46-1.46zm8.136 29.486h-6.245v-3.48h3.988c.203 0 .394-.096.517-.256.124-.16.165-.37.112-.564l-3.337-12.373.343-3.5 2.21 6.536c.093.27.347.443.62.443l.208-.035c.34-.11.524-.48.41-.82l-3.07-9.07-.08-.15c-.01-.28-.21-.54-.496-.61l-3.238-.79c-.105-.02-.214-.02-.318 0l-3.083.79c-.284.08-.48.33-.488.61l-.08.16-3.07 9.07c-.115.34.068.71.41.83l.208.04c.272 0 .526-.17.618-.44l2.22-6.53.35 3.5-3.34 12.37c-.05.2-.01.41.12.57.13.16.32.26.52.26h3.99v3.48H7.92c-.36 0-.652.29-.652.65 0 .36.29.65.652.65h16.272c.36 0 .652-.29.652-.65 0-.36-.29-.65-.652-.65zm-13.164-4.89l3.147-11.705.02-.232-.597-6.107 2.385-.613 2.53.62-.595 6.1.02.232 3.146 11.706H11.028zm4.44 1.305h1.175v3.492H15.47v-3.492z" fill="#206FAC"/></g></svg>