<svg width="32" height="232" viewBox="0 0 32 232" xmlns="http://www.w3.org/2000/svg"><g fill="none"><path d="M14 19.102c-.96.396-1.975.596-3.02.596-4.492 0-8.147-3.774-8.147-8.41 0-4.64 3.655-8.413 8.148-8.413s8.15 3.774 8.15 8.412c0 1.996-.69 3.932-1.94 5.45-.24.29-.2.723.08.97.28.245.7.21.94-.08 1.46-1.765 2.26-4.018 2.26-6.34 0-5.398-4.25-9.788-9.48-9.788s-9.48 4.39-9.48 9.78c0 5.16 3.9 9.4 8.82 9.76v5.51H8.16c-.368 0-.666.3-.666.68 0 .38.298.69.666.69h2.153v2.21c0 .38.298.68.666.68.37 0 .67-.31.67-.69v-2.21h2.15c.37 0 .67-.31.67-.69 0-.38-.3-.69-.67-.69h-2.15v-5.51c.98-.07 1.93-.29 2.84-.67.34-.14.51-.55.37-.9s-.53-.53-.87-.39zm16.5-7.815c0-5.397-4.253-9.787-9.48-9.787-1.183 0-2.336.222-3.428.66-.343.138-.514.536-.38.89.132.355.517.53.86.393.94-.376 1.93-.567 2.948-.567 4.492 0 8.148 3.774 8.148 8.412 0 4.637-3.656 8.41-8.148 8.41-4.493 0-8.15-3.773-8.15-8.41 0-2.086.746-4.087 2.1-5.634.246-.282.224-.717-.05-.97-.273-.255-.694-.233-.94.05-1.575 1.8-2.442 4.127-2.442 6.555 0 5.24 4.02 9.54 9.047 9.77v5.49h-2.152c-.37 0-.667.31-.667.69 0 .38.298.69.667.69h2.152v2.21c0 .38.298.69.667.69.368 0 .666-.31.666-.69v-2.21h2.153c.37 0 .67-.31.67-.69 0-.38-.3-.69-.66-.69h-2.16v-5.52c4.81-.47 8.58-4.66 8.58-9.74z" fill="#3A434E"/><path d="M14 59.102c-.96.396-1.975.596-3.02.596-4.492 0-8.147-3.774-8.147-8.41 0-4.64 3.655-8.413 8.148-8.413s8.15 3.774 8.15 8.412c0 1.996-.69 3.932-1.94 5.45-.24.29-.2.723.08.97.28.245.7.21.94-.08 1.46-1.765 2.26-4.018 2.26-6.34 0-5.398-4.25-9.788-9.48-9.788s-9.48 4.39-9.48 9.78c0 5.16 3.9 9.4 8.82 9.76v5.51H8.16c-.368 0-.666.3-.666.68 0 .38.298.69.666.69h2.153v2.21c0 .38.298.68.666.68.37 0 .67-.31.67-.69v-2.21h2.15c.37 0 .67-.31.67-.69 0-.38-.3-.69-.67-.69h-2.15v-5.51c.98-.07 1.93-.29 2.84-.67.34-.14.51-.55.37-.9s-.53-.53-.87-.39zm16.5-7.815c0-5.397-4.253-9.787-9.48-9.787-1.183 0-2.336.222-3.428.66-.343.138-.514.536-.38.89.132.355.517.53.86.393.94-.376 1.93-.567 2.948-.567 4.492 0 8.148 3.774 8.148 8.412 0 4.637-3.656 8.41-8.148 8.41-4.493 0-8.15-3.773-8.15-8.41 0-2.086.746-4.087 2.1-5.634.246-.282.224-.717-.05-.97-.273-.255-.694-.233-.94.05-1.575 1.8-2.442 4.127-2.442 6.555 0 5.24 4.02 9.54 9.047 9.77v5.49h-2.152c-.37 0-.667.31-.667.69 0 .38.298.69.667.69h2.152v2.21c0 .38.298.69.667.69.368 0 .666-.31.666-.69v-2.21h2.153c.37 0 .67-.31.67-.69 0-.38-.3-.69-.66-.69h-2.16v-5.52c4.81-.47 8.58-4.66 8.58-9.74z" fill="#67737B"/><path d="M14 99.102c-.96.396-1.975.596-3.02.596-4.492 0-8.147-3.774-8.147-8.41 0-4.64 3.655-8.413 8.148-8.413s8.15 3.774 8.15 8.412c0 1.996-.69 3.932-1.94 5.45-.24.29-.2.723.08.97.28.245.7.21.94-.08 1.46-1.765 2.26-4.018 2.26-6.34 0-5.398-4.25-9.788-9.48-9.788s-9.48 4.39-9.48 9.78c0 5.16 3.9 9.4 8.82 9.76v5.51H8.16c-.368 0-.666.3-.666.68 0 .38.298.69.666.69h2.153v2.21c0 .38.298.68.666.68.37 0 .67-.31.67-.69v-2.22h2.15c.37 0 .67-.31.67-.69 0-.38-.3-.69-.67-.69h-2.15v-5.51c.98-.07 1.93-.29 2.84-.67.34-.14.51-.54.37-.9s-.53-.527-.87-.38zm16.5-7.815c0-5.397-4.253-9.787-9.48-9.787-1.183 0-2.336.222-3.428.66-.343.138-.514.536-.38.89.132.355.517.53.86.393.94-.376 1.93-.567 2.948-.567 4.492 0 8.148 3.774 8.148 8.412 0 4.637-3.656 8.41-8.148 8.41-4.493 0-8.15-3.773-8.15-8.41 0-2.086.746-4.087 2.1-5.634.246-.282.224-.717-.05-.97-.273-.255-.694-.233-.94.05-1.575 1.8-2.442 4.127-2.442 6.555 0 5.24 4.02 9.54 9.047 9.77v5.49h-2.152c-.37 0-.667.31-.667.69 0 .38.298.69.667.69h2.152v2.21c0 .38.298.69.667.69.368 0 .666-.31.666-.69v-2.22h2.153c.37 0 .67-.31.67-.69 0-.38-.3-.69-.66-.69h-2.16v-5.53c4.81-.47 8.58-4.66 8.58-9.74z" fill="#fff"/><path d="M14 139.102c-.96.396-1.975.596-3.02.596-4.492 0-8.147-3.774-8.147-8.41 0-4.64 3.655-8.413 8.148-8.413s8.15 3.774 8.15 8.412c0 1.996-.69 3.932-1.94 5.45-.24.29-.2.723.08.97.28.245.7.21.94-.08 1.46-1.765 2.26-4.018 2.26-6.34 0-5.398-4.25-9.788-9.48-9.788s-9.48 4.39-9.48 9.78c0 5.16 3.9 9.4 8.82 9.76v5.51H8.16c-.368 0-.666.3-.666.68 0 .38.298.69.666.69h2.153v2.21c0 .38.298.68.666.68.37 0 .67-.31.67-.69v-2.22h2.15c.37 0 .67-.31.67-.69 0-.38-.3-.69-.67-.69h-2.15v-5.51c.98-.07 1.93-.29 2.84-.67.34-.14.51-.54.37-.9s-.53-.527-.87-.38zm16.5-7.815c0-5.397-4.253-9.787-9.48-9.787-1.183 0-2.336.222-3.428.66-.343.138-.514.536-.38.89.132.355.517.53.86.393.94-.376 1.93-.567 2.948-.567 4.492 0 8.148 3.774 8.148 8.412 0 4.637-3.656 8.41-8.148 8.41-4.493 0-8.15-3.773-8.15-8.41 0-2.086.746-4.087 2.1-5.634.246-.282.224-.717-.05-.97-.273-.255-.694-.233-.94.05-1.575 1.8-2.442 4.127-2.442 6.555 0 5.24 4.02 9.54 9.047 9.77v5.49h-2.152c-.37 0-.667.31-.667.69 0 .38.298.69.667.69h2.152v2.21c0 .38.298.69.667.69.368 0 .666-.31.666-.69v-2.22h2.153c.37 0 .67-.31.67-.69 0-.38-.3-.69-.66-.69h-2.16v-5.53c4.81-.47 8.58-4.66 8.58-9.74z" fill="#206FAC"/></g></svg>