<svg width="32" height="232" viewBox="0 0 32 232" xmlns="http://www.w3.org/2000/svg"><g fill="none"><path d="M28.942 18.62c-.288-.562-.76-.983-1.324-1.208.3-.29.527-.65.66-1.06.208-.65.152-1.346-.16-1.955-.33-.64-.9-1.1-1.568-1.293.154-.214.277-.453.36-.712.21-.652.153-1.346-.16-1.955-.43-.84-1.277-1.368-2.218-1.39.2-.624.16-1.322-.16-1.95-.44-.858-1.316-1.392-2.282-1.392-.404 0-.808.098-1.17.283l-3.87 1.988-1.91-6.12-.01-.026c-.26-.7-.774-1.26-1.452-1.57C13-.055 12.24-.085 11.54.174L9.93.77c-.145.052-.262.163-.323.305-.062.142-.063.303-.003.446.012.03 1.272 3.07 1.773 6.42.597 4-.08 6.69-2.013 8l-.466-.91c-.07-.13-.188-.23-.33-.28-.145-.04-.3-.03-.435.04L2.91 17.47c-.14.07-.24.19-.286.332-.047.143-.034.3.035.433l1.65 3.22c.14.28.48.39.76.247.28-.145.39-.488.24-.767l-1.39-2.713 4.22-2.162 6.39 12.45-4.22 2.16-3.45-6.72c-.15-.28-.49-.39-.77-.246-.28.142-.39.485-.25.764l3.71 7.222c.07.135.19.236.33.28l.17.03c.09 0 .18-.022.26-.063l5.22-2.68c.28-.14.39-.486.25-.765l-.59-1.16.42.01c.97 0 2.31-.184 3.74-.92l6.754-3.467.094-.06 1.61-.827c.61-.312 1.06-.843 1.27-1.494.21-.653.15-1.347-.16-1.956zm-1.835-3.704c.174.34.205.726.088 1.088-.116.363-.367.66-.706.833L21.9 19.19c-.203.106-.422.16-.65.16-.538 0-1.025-.298-1.27-.777-.36-.7-.083-1.562.617-1.922l4.588-2.35c.204-.1.423-.16.65-.16.54 0 1.026.3 1.272.78zm-1.367-3.96c.174.34.206.725.09 1.088-.118.363-.37.66-.708.833l-5.115 2.625c-.204.104-.423.157-.65.157-.538 0-1.026-.3-1.27-.78-.175-.34-.207-.73-.09-1.09.117-.37.368-.66.707-.84l5.115-2.63c.2-.11.42-.16.65-.16.53 0 1.02.29 1.27.77zM21.44 7c.204-.106.423-.16.65-.16.538 0 1.026.298 1.27.777.36.7.083 1.562-.617 1.922l-4.587 2.35c-.205.1-.423.15-.65.15-.54 0-1.027-.3-1.272-.78-.174-.34-.206-.73-.09-1.09.118-.36.37-.66.708-.83L21.44 7zm-2.586 18.413c-1.93.99-3.664.813-4.266.706l-4.702-9.17c2.384-1.54 3.287-4.71 2.61-9.21-.4-2.67-1.23-5.07-1.628-6.12l1.065-.39c.416-.16.867-.14 1.27.05.398.18.702.51.857.92l1.97 6.31c-.454.32-.793.77-.966 1.31-.21.65-.153 1.34.16 1.95.368.72 1.04 1.21 1.814 1.35l-.122.3c-.21.65-.153 1.34.16 1.95.38.74 1.082 1.24 1.888 1.36-.357.7-.384 1.57.005 2.32.37.74 1.07 1.24 1.87 1.36-.06.12-.11.24-.15.36-.21.65-.16 1.34.16 1.95.24.462.6.832 1.05 1.074l-3.05 1.57zm9.167-5.186c-.11.363-.36.658-.7.832l-3.52 1.81c-.2.1-.42.15-.65.15-.54 0-1.02-.3-1.27-.78-.17-.34-.2-.73-.09-1.09.12-.36.37-.66.71-.83l3.53-1.81c.21-.11.43-.16.65-.16.54 0 1.03.3 1.28.77.17.34.21.72.09 1.09z" fill="#3A434E"/><path d="M28.942 58.62c-.288-.562-.76-.983-1.324-1.208.3-.29.527-.65.66-1.06.208-.65.152-1.346-.16-1.955-.33-.64-.9-1.1-1.568-1.293.154-.214.277-.453.36-.712.21-.652.153-1.346-.16-1.955-.43-.84-1.277-1.368-2.218-1.39.2-.624.16-1.322-.16-1.95-.44-.858-1.316-1.392-2.282-1.392-.404 0-.808.098-1.17.283l-3.87 1.988-1.91-6.12-.01-.026c-.26-.7-.774-1.26-1.452-1.57-.678-.314-1.438-.344-2.138-.085l-1.61.594c-.145.05-.262.16-.323.3-.062.14-.063.3-.003.44.012.03 1.272 3.06 1.773 6.42.597 3.99-.08 6.68-2.013 8l-.466-.91c-.07-.14-.188-.24-.33-.28-.145-.05-.3-.04-.435.03L2.91 57.46c-.14.07-.24.19-.286.334-.047.143-.034.3.035.433l1.65 3.22c.14.28.48.39.76.248.28-.143.39-.486.24-.765l-1.39-2.712 4.21-2.164 6.39 12.45-4.22 2.163-3.44-6.717c-.15-.28-.49-.39-.77-.25s-.39.484-.25.763l3.7 7.223c.07.134.19.235.33.28l.17.03c.09 0 .18-.023.26-.064l5.22-2.68c.28-.145.39-.488.25-.767l-.6-1.16.413.01c.976 0 2.31-.183 3.747-.92l6.76-3.465.095-.06 1.61-.83c.61-.32 1.06-.85 1.27-1.5.21-.65.15-1.35-.16-1.96zm-1.835-3.704c.174.34.205.726.088 1.088-.116.363-.367.66-.706.833L21.9 59.19c-.203.106-.422.16-.65.16-.538 0-1.025-.298-1.27-.777-.36-.7-.083-1.562.617-1.922l4.588-2.35c.204-.1.423-.16.65-.16.54 0 1.026.3 1.272.78zm-1.367-3.96c.174.34.206.725.09 1.088-.118.363-.37.66-.708.833l-5.115 2.625c-.204.104-.423.157-.65.157-.538 0-1.026-.3-1.27-.78-.175-.34-.207-.73-.09-1.09.117-.37.368-.66.707-.84l5.115-2.63c.2-.11.42-.16.65-.16.53 0 1.02.29 1.27.77zM21.44 47c.204-.106.423-.16.65-.16.538 0 1.026.298 1.27.777.36.7.083 1.562-.617 1.922l-4.587 2.35c-.205.1-.423.15-.65.15-.54 0-1.027-.3-1.272-.78-.174-.34-.206-.73-.09-1.09.118-.36.37-.66.708-.83L21.44 47zm-2.586 18.413c-1.93.99-3.664.813-4.266.706l-4.702-9.17c2.384-1.54 3.287-4.71 2.61-9.21-.4-2.67-1.23-5.07-1.628-6.12l1.065-.39c.416-.16.867-.14 1.27.05.398.18.702.51.857.92l1.97 6.31c-.454.32-.793.77-.966 1.31-.21.65-.153 1.34.16 1.95.368.72 1.04 1.21 1.814 1.35l-.122.3c-.21.65-.153 1.34.16 1.95.38.74 1.082 1.24 1.888 1.36-.357.7-.384 1.57.005 2.32.37.74 1.07 1.24 1.87 1.36-.06.12-.11.24-.15.36-.21.65-.16 1.34.16 1.95.24.462.6.832 1.05 1.074l-3.05 1.57zm9.167-5.186c-.11.363-.36.658-.7.832l-3.52 1.81c-.2.1-.42.15-.65.15-.54 0-1.02-.3-1.27-.78-.17-.34-.2-.73-.09-1.09.12-.36.37-.66.71-.83l3.53-1.81c.21-.11.43-.16.65-.16.54 0 1.03.3 1.28.77.17.34.21.72.09 1.09z" fill="#67737B"/><path d="M28.942 98.62c-.288-.562-.76-.983-1.324-1.208.3-.29.527-.65.66-1.06.208-.65.152-1.346-.16-1.955-.33-.64-.9-1.1-1.568-1.293.154-.214.277-.453.36-.712.21-.652.153-1.346-.16-1.955-.43-.84-1.277-1.368-2.218-1.39.2-.624.16-1.322-.16-1.95-.44-.858-1.316-1.392-2.282-1.392-.404 0-.808.098-1.17.283l-3.87 1.988-1.91-6.12-.01-.026c-.26-.7-.774-1.26-1.452-1.57-.678-.314-1.438-.344-2.138-.085l-1.61.594c-.145.05-.262.16-.323.3-.062.14-.063.3-.003.44.012.03 1.272 3.06 1.773 6.42.597 3.99-.08 6.68-2.013 8l-.466-.91c-.07-.14-.188-.24-.33-.28-.145-.05-.3-.04-.435.03L2.91 97.46c-.14.07-.24.19-.286.334-.047.143-.034.3.035.433l1.65 3.22c.14.28.48.39.76.248.28-.143.39-.486.24-.765l-1.39-2.712 4.21-2.164 6.39 12.45-4.22 2.163-3.45-6.718c-.14-.28-.49-.39-.77-.25s-.39.48-.25.76l3.7 7.22c.07.13.19.23.33.28l.17.03c.09 0 .18-.03.26-.07l5.222-2.68c.28-.15.39-.49.25-.77l-.596-1.16.414.01c.98 0 2.31-.19 3.75-.92l6.76-3.47.094-.06 1.61-.83c.61-.32 1.06-.85 1.27-1.5.21-.65.15-1.35-.16-1.95zm-1.835-3.704c.174.34.205.726.088 1.088-.116.363-.367.66-.706.833L21.9 99.19c-.203.106-.422.16-.65.16-.538 0-1.025-.298-1.27-.777-.36-.7-.083-1.562.617-1.922l4.588-2.35c.204-.1.423-.16.65-.16.54 0 1.026.3 1.272.78zm-1.367-3.96c.174.34.206.725.09 1.088-.118.363-.37.66-.708.833l-5.115 2.625c-.204.104-.423.157-.65.157-.538 0-1.026-.3-1.27-.78-.175-.34-.207-.73-.09-1.09.117-.37.368-.66.707-.84l5.115-2.63c.2-.11.42-.16.65-.16.53 0 1.02.29 1.27.77zM21.44 87c.204-.106.423-.16.65-.16.538 0 1.026.298 1.27.777.36.7.083 1.562-.617 1.922l-4.587 2.35c-.205.1-.423.15-.65.15-.54 0-1.027-.3-1.272-.78-.174-.34-.206-.73-.09-1.09.118-.36.37-.66.708-.83L21.44 87zm-2.586 18.413c-1.93.99-3.664.813-4.266.706l-4.702-9.17c2.384-1.54 3.287-4.71 2.61-9.21-.4-2.67-1.23-5.07-1.628-6.12l1.065-.39c.416-.16.867-.14 1.27.05.398.18.702.51.857.92l1.97 6.31c-.454.32-.793.77-.966 1.31-.21.65-.153 1.34.16 1.95.368.72 1.04 1.21 1.814 1.35l-.122.3c-.21.65-.153 1.34.16 1.95.38.74 1.082 1.24 1.888 1.36-.357.7-.384 1.57.005 2.32.37.74 1.07 1.24 1.87 1.36-.06.12-.11.24-.15.36-.21.65-.16 1.34.16 1.95.24.462.6.832 1.05 1.074l-3.05 1.564zm9.167-5.186c-.11.363-.36.658-.7.832l-3.52 1.81c-.2.1-.42.15-.65.15-.54 0-1.02-.3-1.27-.78-.17-.34-.2-.73-.09-1.09.12-.36.37-.66.71-.83l3.53-1.81c.21-.11.43-.16.65-.16.54 0 1.03.3 1.28.77.17.34.21.72.09 1.09z" fill="#fff"/><path d="M28.942 138.62c-.288-.562-.76-.983-1.324-1.208.3-.29.527-.65.66-1.06.208-.65.152-1.346-.16-1.955-.33-.64-.9-1.1-1.568-1.293.154-.214.277-.453.36-.712.21-.652.153-1.346-.16-1.955-.43-.84-1.277-1.368-2.218-1.39.2-.624.16-1.322-.16-1.95-.44-.858-1.316-1.392-2.282-1.392-.404 0-.808.098-1.17.283l-3.87 1.988-1.91-6.12-.01-.026c-.26-.7-.774-1.26-1.452-1.57-.678-.314-1.438-.344-2.138-.085l-1.61.594c-.145.05-.262.16-.323.3-.062.14-.063.3-.003.44.012.03 1.272 3.06 1.773 6.42.597 3.99-.08 6.68-2.013 8l-.466-.91c-.07-.14-.188-.24-.33-.28-.145-.05-.3-.04-.435.03l-5.224 2.68c-.14.07-.24.19-.29.33-.05.14-.04.3.03.43l1.65 3.22c.14.28.48.39.76.25.28-.15.39-.49.24-.77l-1.4-2.71 4.21-2.17 6.39 12.45-4.22 2.16-3.45-6.72c-.14-.28-.49-.39-.77-.24-.28.14-.39.48-.25.76l3.702 7.22c.07.13.19.23.33.28l.174.03c.09 0 .18-.03.26-.07l5.225-2.68c.28-.148.39-.49.25-.77l-.6-1.16.42.012c.976 0 2.31-.187 3.747-.92l6.756-3.47.09-.06 1.61-.83c.61-.31 1.06-.843 1.27-1.494.21-.65.15-1.345-.16-1.954zm-1.835-3.704c.174.34.205.726.088 1.088-.116.363-.367.66-.706.833l-4.59 2.354c-.21.11-.43.16-.65.16-.54 0-1.03-.29-1.27-.77-.36-.7-.09-1.56.61-1.92l4.59-2.35c.2-.1.42-.16.65-.16.54 0 1.02.3 1.27.78zm-1.367-3.96c.174.34.206.725.09 1.088-.118.363-.37.66-.708.833l-5.115 2.625c-.204.104-.423.157-.65.157-.538 0-1.026-.3-1.27-.78-.175-.34-.207-.73-.09-1.09.117-.37.368-.66.707-.84l5.115-2.63c.2-.11.42-.16.65-.16.53 0 1.02.29 1.27.77zM21.44 127c.204-.106.423-.16.65-.16.538 0 1.026.298 1.27.777.36.7.083 1.562-.617 1.922l-4.587 2.35c-.205.1-.423.15-.65.15-.54 0-1.027-.3-1.272-.78-.174-.34-.206-.73-.09-1.09.118-.36.37-.66.708-.83L21.44 127zm-2.586 18.413c-1.93.99-3.664.813-4.266.706l-4.702-9.17c2.384-1.54 3.287-4.71 2.61-9.21-.4-2.67-1.23-5.07-1.628-6.12l1.065-.39c.416-.16.867-.14 1.27.05.398.18.702.51.857.92l1.97 6.31c-.454.32-.793.77-.966 1.31-.21.65-.153 1.34.16 1.95.368.72 1.04 1.21 1.814 1.35l-.122.3c-.21.65-.153 1.34.16 1.95.38.74 1.082 1.24 1.888 1.36-.357.7-.384 1.57.005 2.32.37.74 1.07 1.23 1.87 1.36-.06.11-.11.23-.15.36-.21.65-.16 1.34.16 1.95.24.46.6.83 1.05 1.07l-3.05 1.56zm9.167-5.186c-.11.363-.36.658-.7.832l-3.52 1.81c-.2.1-.42.15-.65.15-.54 0-1.02-.3-1.27-.78-.17-.34-.2-.73-.09-1.09.12-.36.37-.66.71-.83l3.53-1.81c.21-.11.43-.16.65-.16.54 0 1.03.3 1.28.77.17.34.21.72.09 1.09z" fill="#206FAC"/></g></svg>