<svg width="32" height="232" viewBox="0 0 32 232" xmlns="http://www.w3.org/2000/svg"><g fill="none"><path d="M30.447 15.924c0-7.78-6.17-14.145-13.875-14.46V.598c0-.33-.268-.598-.598-.598-.33 0-.6.268-.6.598v.866C7.672 1.78 1.5 8.144 1.5 15.924c0 .296.216.54.5.587l.087.01.01.01h.012c.18 0 .37-.08.48-.25.69-.96 1.8-1.53 2.98-1.53 1.12 0 2.19.53 2.89 1.42.08.2.27.35.5.37h.18l.05-.01.02-.01.07-.03h.01l.07-.05h.01l.09-.07.05-.06c.69-.963 1.8-1.537 2.97-1.537 1.11 0 2.17.52 2.86 1.39V29.2c0 1.54 1.25 2.794 2.79 2.794s2.79-1.254 2.79-2.794c0-.33-.27-.6-.6-.6-.33 0-.6.27-.6.6 0 .88-.718 1.59-1.598 1.59s-1.6-.717-1.6-1.597V16.12c.697-.872 1.755-1.39 2.87-1.39 1.173 0 2.286.576 2.976 1.538l.044.055.007.003.084.074.01.006v.004l.07.046.076.03.03.01.06.012.03.005.073.005h.03l.033-.003.016-.004c.23-.02.42-.16.505-.36.695-.89 1.76-1.41 2.89-1.41 1.175 0 2.29.58 2.98 1.54.115.16.3.25.49.25h.02l.09-.01c.28-.05.5-.29.5-.59zM5.577 13.54c-1.01 0-1.986.32-2.796.892.61-5.412 4.49-9.852 9.61-11.29-.68.698-1.31 1.604-1.86 2.703-1.18 2.36-1.9 5.388-2.06 8.646-.83-.6-1.83-.95-2.88-.95zm6.93 0c-1.033 0-2.03.336-2.85.932.16-3.063.833-5.895 1.933-8.09 1.058-2.11 2.384-3.39 3.785-3.674v11.775c-.824-.603-1.826-.943-2.867-.943zm6.932 0c-1.04 0-2.05.34-2.87.943V2.708c1.4.284 2.72 1.564 3.78 3.673 1.1 2.2 1.77 5.03 1.93 8.1-.82-.59-1.82-.93-2.86-.93zm6.93 0c-1.05 0-2.06.343-2.88.95-.17-3.257-.88-6.286-2.07-8.645-.55-1.1-1.18-2.005-1.87-2.704 5.12 1.44 8.99 5.88 9.6 11.3-.81-.57-1.79-.89-2.8-.89z" fill="#3A434E"/><path d="M30.447 55.924c0-7.78-6.17-14.145-13.875-14.46v-.866c0-.33-.268-.598-.598-.598-.33 0-.6.268-.6.598v.866C7.672 41.78 1.5 48.144 1.5 55.924c0 .296.216.54.5.587l.087.01.01.01h.012c.18 0 .37-.08.48-.25.69-.96 1.8-1.53 2.98-1.53 1.12 0 2.19.53 2.89 1.42.08.2.27.35.5.37h.18l.05-.01.02-.01.07-.03h.01l.07-.05h.01l.09-.07.05-.06c.69-.963 1.8-1.537 2.97-1.537 1.11 0 2.17.52 2.86 1.39V69.2c0 1.54 1.25 2.794 2.79 2.794s2.79-1.254 2.79-2.794c0-.33-.27-.6-.6-.6-.33 0-.6.27-.6.6 0 .88-.718 1.59-1.598 1.59s-1.6-.717-1.6-1.597V56.12c.697-.872 1.755-1.39 2.87-1.39 1.173 0 2.286.576 2.976 1.538l.044.055.007.003.084.074.01.006v.004l.07.046.076.03.03.01.06.012.03.005.073.005h.03l.033-.003.016-.004c.23-.02.42-.16.505-.36.695-.89 1.76-1.41 2.89-1.41 1.175 0 2.29.58 2.98 1.54.115.16.3.25.49.25h.02l.09-.01c.28-.05.5-.29.5-.59zM5.577 53.54c-1.01 0-1.986.32-2.796.892.61-5.413 4.49-9.852 9.61-11.29-.68.698-1.31 1.604-1.86 2.703-1.18 2.36-1.9 5.388-2.06 8.646-.82-.6-1.83-.95-2.88-.95zm6.93 0c-1.033 0-2.03.336-2.85.932.16-3.063.833-5.895 1.933-8.09 1.058-2.11 2.384-3.39 3.785-3.674v11.775c-.824-.603-1.826-.943-2.867-.943zm6.932 0c-1.04 0-2.05.34-2.87.943V42.708c1.4.284 2.72 1.564 3.78 3.673 1.1 2.2 1.77 5.03 1.93 8.1-.82-.59-1.82-.93-2.86-.93zm6.93 0c-1.05 0-2.06.343-2.88.95-.17-3.257-.88-6.286-2.07-8.645-.55-1.1-1.18-2.005-1.87-2.704 5.12 1.44 8.99 5.88 9.6 11.3-.81-.57-1.79-.89-2.8-.89z" fill="#67737B"/><path d="M30.447 95.924c0-7.78-6.17-14.145-13.875-14.46v-.866c0-.33-.268-.598-.598-.598-.33 0-.6.268-.6.598v.866C7.672 81.78 1.5 88.144 1.5 95.924c0 .296.216.54.5.587l.087.01.01.01h.012c.18 0 .37-.08.48-.25.69-.96 1.8-1.53 2.98-1.53 1.12 0 2.19.53 2.89 1.42.08.2.27.35.5.37h.18l.05-.01.02-.01.07-.03h.01l.07-.05h.01l.09-.07.05-.06c.69-.963 1.8-1.537 2.97-1.537 1.11 0 2.17.52 2.86 1.39v13.08c0 1.54 1.25 2.797 2.79 2.797s2.79-1.257 2.79-2.797c0-.33-.27-.6-.6-.6-.33 0-.6.27-.6.6 0 .88-.718 1.6-1.598 1.6s-1.6-.713-1.6-1.593V96.12c.696-.872 1.754-1.39 2.87-1.39 1.18 0 2.29.576 2.98 1.538l.044.055.01.003.083.074.01.006.003.004.078.046.08.03.03.01.053.012.03.005.08.005h.03l.032-.003.02-.004c.224-.02.42-.16.5-.36.69-.89 1.76-1.41 2.882-1.41 1.175 0 2.29.58 2.98 1.54.115.16.3.25.49.25h.02l.09-.01c.28-.05.5-.29.5-.59zM5.577 93.54c-1.01 0-1.986.32-2.796.892.61-5.413 4.49-9.852 9.61-11.29-.68.698-1.31 1.604-1.86 2.703-1.18 2.36-1.9 5.388-2.06 8.646-.82-.6-1.83-.95-2.88-.95zm6.93 0c-1.033 0-2.03.336-2.85.932.16-3.063.833-5.895 1.933-8.09 1.058-2.11 2.384-3.39 3.785-3.674v11.775c-.824-.603-1.826-.943-2.867-.943zm6.932 0c-1.04 0-2.05.34-2.87.943V82.708c1.4.284 2.72 1.564 3.78 3.673 1.1 2.2 1.77 5.03 1.93 8.1-.82-.59-1.82-.93-2.86-.93zm6.93 0c-1.05 0-2.06.343-2.88.95-.17-3.257-.88-6.286-2.07-8.645-.55-1.1-1.18-2.005-1.87-2.704 5.12 1.44 8.99 5.88 9.6 11.3-.81-.57-1.79-.89-2.8-.89z" fill="#fff"/><path d="M30.447 135.924c0-7.78-6.17-14.145-13.875-14.46v-.866c0-.33-.268-.598-.598-.598-.33 0-.6.268-.6.598v.866c-7.703.315-13.874 6.68-13.874 14.46 0 .296.216.54.5.587l.087.01.01.01h.012c.18 0 .37-.08.48-.25.69-.96 1.8-1.53 2.98-1.53 1.12 0 2.19.53 2.89 1.42.08.2.27.35.5.37h.18l.05-.01.02-.01.07-.03h.01l.07-.05h.01l.09-.07.05-.06c.69-.963 1.8-1.537 2.97-1.537 1.11 0 2.17.52 2.86 1.39v13.08c0 1.54 1.25 2.797 2.79 2.797s2.79-1.257 2.79-2.797c0-.33-.27-.6-.6-.6-.33 0-.6.27-.6.6 0 .88-.718 1.6-1.598 1.6s-1.6-.713-1.6-1.593v-13.08c.696-.87 1.754-1.39 2.87-1.39 1.18 0 2.29.58 2.98 1.54l.044.057h.01l.083.075.01.004h.003l.078.046.08.03.03.01.053.01h.03l.08.006h.062l.02-.01c.224-.02.42-.16.5-.36.69-.89 1.76-1.413 2.882-1.413 1.175 0 2.29.58 2.98 1.54.115.16.3.25.49.247h.02l.09-.01c.28-.05.5-.29.5-.59zm-24.87-2.384c-1.01 0-1.986.32-2.796.892.61-5.413 4.49-9.852 9.61-11.29-.68.698-1.31 1.604-1.86 2.703-1.18 2.36-1.9 5.388-2.06 8.646-.82-.6-1.83-.95-2.88-.95zm6.93 0c-1.033 0-2.03.336-2.85.932.16-3.063.833-5.895 1.933-8.09 1.058-2.11 2.384-3.39 3.785-3.674v11.775c-.824-.603-1.826-.943-2.867-.943zm6.932 0c-1.04 0-2.05.34-2.87.943v-11.775c1.4.284 2.72 1.564 3.78 3.673 1.1 2.2 1.77 5.03 1.93 8.1-.82-.59-1.82-.93-2.86-.93zm6.93 0c-1.05 0-2.06.343-2.88.95-.17-3.257-.88-6.286-2.07-8.645-.55-1.1-1.18-2.005-1.87-2.704 5.12 1.44 8.99 5.88 9.6 11.3-.81-.57-1.79-.89-2.8-.89z" fill="#206FAC"/></g></svg>