<svg width="32" height="232" viewBox="0 0 32 232" xmlns="http://www.w3.org/2000/svg"><g fill="none"><path d="M7.45 26.964c-.666 0-1.207.54-1.207 1.207s.54 1.21 1.206 1.21c.66 0 1.2-.54 1.2-1.2s-.54-1.2-1.21-1.2zm-.033 1.207l.032-.03.03.03h-.07zm10.95 1.21c.666 0 1.207-.54 1.207-1.2s-.54-1.2-1.207-1.2c-.665 0-1.206.54-1.206 1.21 0 .67.55 1.21 1.21 1.21zM31.35 1.58C30.86.973 30.163.596 29.388.515c-.774-.08-1.534.145-2.138.636l-.083.09-8.89 7.22c-.228-.32-.5-.61-.816-.86-1.36-1.07-2.48-1.2-3.84-.44-.1.02-.36.05-.53.06-.67.06-1.06.1-1.31.34-.31.29-.21.7-.16.9-.58.83-.84 1.83-.72 2.84.11.87.48 1.67 1.07 2.3l-8.6 6.98-2.78.04c-.32.01-.58.27-.58.6.01.32.27.58.59.58h.01l2.98-.04c.13 0 .26-.05.36-.13l1.79-1.45c.92 1 2.01 1.77 3.19 2.29l-.82 2.38c-.21-.04-.44-.07-.66-.07-1.82 0-3.3 1.48-3.3 3.3s1.48 3.3 3.3 3.3 3.3-1.48 3.3-3.3c0-1.17-.61-2.21-1.54-2.79l.83-2.4c.93.28 1.89.43 2.85.43.98 0 1.96-.15 2.9-.448l.83 2.426c-.92.586-1.54 1.62-1.54 2.793 0 1.82 1.48 3.3 3.3 3.3 1.82 0 3.3-1.48 3.3-3.3s-1.48-3.3-3.3-3.3c-.22 0-.45.02-.66.067l-.82-2.41c.74-.333 1.44-.77 2.1-1.3 2.01-1.63 3.26-3.94 3.53-6.51.25-2.373-.37-4.71-1.75-6.63l7.19-5.835.08-.08c.36-.29.81-.43 1.27-.38.46.047.88.27 1.17.63.61.74.49 1.84-.25 2.44-.252.21-.29.58-.09.83.12.15.288.22.46.22.13 0 .26-.04.37-.13 1.25-1.01 1.44-2.85.427-4.1zM18.367 28.14l.032.03h-.07l.03-.03zM12.654 9.003c.152-.193.167-.406.145-.588l.38-.036c.48-.05.77-.07.98-.19.95-.54 1.58-.46 2.57.32.24.19.45.42.62.67l-4.49 3.65c-.45-.46-.74-1.05-.82-1.69-.09-.77.12-1.53.6-2.14zM9.56 28.053c0 1.17-.955 2.125-2.128 2.125-1.172 0-2.126-.954-2.126-2.126 0-1.173.954-2.127 2.126-2.127 1.173 0 2.127.954 2.127 2.127zm8.79-2.128c1.173 0 2.127.954 2.127 2.127 0 1.172-.954 2.126-2.127 2.126-1.172 0-2.126-.954-2.126-2.126 0-1.173.954-2.127 2.126-2.127zm2.964-11.438c-.235 2.26-1.336 4.29-3.1 5.722-3.49 2.83-8.56 2.43-11.576-.81L19.81 8.71c1.185 1.68 1.72 3.707 1.504 5.772z" fill="#1A1918"/><path d="M7.45 66.964c-.666 0-1.207.54-1.207 1.207s.54 1.21 1.206 1.21c.66 0 1.2-.54 1.2-1.2s-.54-1.2-1.21-1.2zm-.033 1.207l.032-.03.03.03h-.07zm10.95 1.21c.666 0 1.207-.54 1.207-1.2s-.54-1.2-1.207-1.2c-.665 0-1.206.54-1.206 1.21 0 .67.55 1.21 1.21 1.21zm12.983-27.8c-.49-.6-1.187-.98-1.962-1.06-.774-.08-1.534.15-2.138.64l-.083.08-8.89 7.22c-.228-.32-.5-.61-.816-.86-1.36-1.07-2.48-1.2-3.84-.44-.1.03-.36.05-.53.06-.67.06-1.06.1-1.31.35-.31.29-.21.7-.16.89-.58.83-.84 1.83-.72 2.84.11.87.48 1.67 1.07 2.3l-8.6 6.98-2.77.05c-.32.01-.58.27-.58.6.01.32.27.58.59.58h.01l2.98-.04c.13 0 .26-.05.36-.13l1.79-1.45c.92 1.01 2.01 1.77 3.19 2.3l-.84 2.35c-.21-.042-.44-.07-.66-.07-1.82 0-3.3 1.486-3.3 3.306s1.48 3.3 3.3 3.3 3.3-1.48 3.3-3.3c0-1.175-.61-2.207-1.54-2.792l.83-2.402c.93.285 1.89.428 2.85.428.98 0 1.96-.15 2.9-.444l.83 2.426c-.92.584-1.54 1.616-1.54 2.79 0 1.82 1.48 3.3 3.3 3.3 1.82 0 3.3-1.48 3.3-3.3s-1.48-3.3-3.3-3.3c-.225 0-.45.024-.664.07l-.824-2.41c.74-.34 1.44-.77 2.1-1.3 2.01-1.63 3.26-3.94 3.53-6.52.25-2.38-.37-4.71-1.75-6.64l7.19-5.84.08-.08c.36-.29.81-.426 1.27-.38.46.046.88.27 1.17.63.61.746.49 1.84-.25 2.45-.25.206-.29.576-.08.83.12.142.29.22.46.22.13 0 .26-.046.37-.13 1.25-1.017 1.44-2.856.43-4.1zM18.367 68.14l.032.03h-.07l.03-.03zm-5.713-19.136c.152-.193.167-.406.145-.588l.38-.036c.48-.042.77-.07.98-.19.95-.538 1.58-.46 2.57.324.24.193.45.42.62.677l-4.5 3.65c-.45-.45-.74-1.04-.82-1.69-.09-.77.12-1.53.6-2.14zM9.56 68.052c0 1.172-.955 2.126-2.128 2.126-1.172 0-2.126-.954-2.126-2.126 0-1.173.954-2.127 2.126-2.127 1.173 0 2.127.954 2.127 2.127zm8.79-2.127c1.173 0 2.127.954 2.127 2.127 0 1.172-.954 2.126-2.127 2.126-1.172 0-2.126-.954-2.126-2.126 0-1.173.954-2.127 2.126-2.127zm2.964-11.438c-.235 2.26-1.336 4.29-3.1 5.722-3.49 2.83-8.56 2.43-11.576-.81L19.81 48.71c1.185 1.68 1.72 3.707 1.504 5.772z" fill="#67737B"/><path d="M7.45 106.964c-.666 0-1.207.54-1.207 1.207s.54 1.21 1.206 1.21c.66 0 1.2-.54 1.2-1.2s-.54-1.2-1.21-1.2zm-.033 1.207l.032-.03.03.03h-.07zm10.95 1.21c.666 0 1.207-.54 1.207-1.2s-.54-1.2-1.207-1.2c-.665 0-1.206.54-1.206 1.21 0 .67.55 1.21 1.21 1.21zm12.983-27.8c-.49-.6-1.187-.98-1.962-1.06-.774-.08-1.534.15-2.138.64l-.083.08-8.89 7.22c-.228-.32-.5-.61-.816-.86-1.36-1.07-2.48-1.2-3.84-.44-.1.03-.36.05-.53.06-.67.06-1.06.1-1.31.35-.31.29-.21.7-.16.89-.58.83-.84 1.83-.72 2.84.11.87.48 1.67 1.07 2.3l-8.6 6.98-2.77.05c-.32.01-.58.27-.58.6.01.32.27.58.59.58h.01l2.98-.04c.13 0 .26-.05.36-.13l1.79-1.45c.92 1.01 2.01 1.77 3.19 2.3l-.81 2.38c-.21-.042-.44-.07-.66-.07-1.82 0-3.3 1.48-3.3 3.3s1.48 3.3 3.3 3.3 3.3-1.48 3.3-3.3c0-1.17-.62-2.2-1.54-2.79l.83-2.402c.92.288 1.89.43 2.85.43.97 0 1.95-.15 2.9-.445l.83 2.426c-.93.583-1.55 1.615-1.55 2.79 0 1.82 1.48 3.3 3.3 3.3 1.82 0 3.3-1.48 3.3-3.3s-1.48-3.3-3.3-3.3c-.22 0-.45.02-.66.067l-.82-2.41c.738-.33 1.44-.765 2.097-1.296 2.01-1.63 3.26-3.94 3.53-6.512.25-2.37-.37-4.71-1.752-6.63l7.19-5.83.08-.08c.36-.29.81-.422 1.275-.374.46.05.877.28 1.17.64.604.74.49 1.84-.255 2.44-.25.21-.29.58-.083.83.114.148.28.22.454.22.13 0 .26-.042.37-.13 1.25-1.013 1.44-2.852.43-4.1zm-12.983 26.56l.032.03h-.07l.03-.03zm-5.713-19.13c.152-.19.167-.4.145-.58l.38-.03c.48-.04.77-.07.98-.19.95-.53 1.58-.46 2.57.33.24.2.45.42.62.68l-4.5 3.65c-.45-.45-.74-1.04-.82-1.69-.09-.77.12-1.53.6-2.14zM9.56 108.06c0 1.172-.955 2.126-2.128 2.126-1.172 0-2.126-.954-2.126-2.126 0-1.173.954-2.127 2.126-2.127 1.173 0 2.127.954 2.127 2.127zm8.79-2.127c1.173 0 2.127.954 2.127 2.127 0 1.172-.954 2.126-2.127 2.126-1.172 0-2.126-.954-2.126-2.126 0-1.173.954-2.127 2.126-2.127zm2.964-11.44c-.235 2.26-1.336 4.29-3.1 5.72-3.49 2.83-8.56 2.43-11.576-.81L19.81 88.71c1.185 1.68 1.72 3.707 1.504 5.772z" fill="#fff"/><path d="M7.45 146.964c-.666 0-1.207.54-1.207 1.207s.54 1.21 1.206 1.21c.66 0 1.2-.54 1.2-1.2s-.54-1.2-1.21-1.2zm-.033 1.207l.032-.03.03.03h-.07zm10.95 1.21c.666 0 1.207-.54 1.207-1.2s-.54-1.2-1.207-1.2c-.665 0-1.206.54-1.206 1.21 0 .67.55 1.21 1.21 1.21zm12.983-27.8c-.49-.6-1.187-.98-1.962-1.06-.774-.08-1.534.15-2.138.64l-.083.08-8.89 7.22c-.228-.32-.5-.61-.816-.86-1.36-1.07-2.48-1.2-3.84-.44-.1.03-.36.05-.53.06-.67.06-1.06.1-1.31.35-.31.29-.21.7-.16.89-.58.83-.84 1.83-.72 2.84.11.87.48 1.67 1.07 2.3l-8.6 6.98-2.77.05c-.32.01-.58.27-.58.6.01.32.27.58.59.58h.01l2.98-.04c.13 0 .26-.05.36-.13l1.79-1.45c.92 1.01 2.01 1.77 3.19 2.3l-.81 2.38c-.21-.042-.44-.07-.66-.07-1.82 0-3.3 1.48-3.3 3.3s1.48 3.3 3.3 3.3 3.3-1.48 3.3-3.3c0-1.17-.62-2.2-1.54-2.79l.83-2.402c.92.288 1.89.43 2.85.43.97 0 1.95-.15 2.9-.445l.83 2.426c-.93.583-1.55 1.615-1.55 2.79 0 1.82 1.48 3.3 3.3 3.3 1.82 0 3.3-1.48 3.3-3.3s-1.48-3.3-3.3-3.3c-.22 0-.45.02-.66.067l-.82-2.41c.738-.33 1.44-.765 2.097-1.296 2.01-1.63 3.26-3.94 3.53-6.512.25-2.37-.37-4.71-1.752-6.63l7.19-5.83.08-.08c.36-.29.81-.422 1.275-.374.46.05.877.28 1.17.64.604.74.49 1.84-.255 2.44-.25.21-.29.58-.083.83.114.148.28.22.454.22.13 0 .26-.042.37-.13 1.25-1.013 1.44-2.852.43-4.1zm-12.983 26.56l.032.03h-.07l.03-.03zm-5.713-19.13c.152-.19.167-.4.145-.59l.38-.03c.48-.04.77-.07.98-.19.95-.53 1.58-.46 2.57.33.24.2.45.42.62.68l-4.5 3.65c-.45-.45-.74-1.04-.82-1.69-.09-.77.12-1.53.6-2.14zM9.56 148.05c0 1.172-.955 2.126-2.128 2.126-1.172 0-2.126-.954-2.126-2.126 0-1.173.954-2.127 2.126-2.127 1.173 0 2.127.954 2.127 2.127zm8.79-2.127c1.173 0 2.127.954 2.127 2.127 0 1.172-.954 2.126-2.127 2.126-1.172 0-2.126-.954-2.126-2.126 0-1.173.954-2.127 2.126-2.127zm2.964-11.438c-.235 2.26-1.336 4.29-3.1 5.722-3.49 2.83-8.56 2.43-11.576-.81l13.172-10.69c1.185 1.68 1.72 3.704 1.504 5.77z" fill="#206FAC"/></g></svg>