<svg width="32" height="232" viewBox="0 0 32 232" xmlns="http://www.w3.org/2000/svg"><g fill="none"><path d="M32 22.116c0-2.572-2.07-4.665-4.614-4.665-.34 0-.615.28-.615.63s.28.62.62.62c1.87 0 3.39 1.54 3.39 3.42 0 1.52-1.01 2.88-2.46 3.29-.32.1-.51.44-.42.77l.27.98-1.84-1.48c-.11-.08-.24-.13-.38-.13h-7.32c-1.86 0-3.38-1.53-3.38-3.42 0-.37.06-.74.18-1.09.11-.32-.06-.68-.38-.79-.32-.11-.67.07-.78.39-.16.48-.24.98-.24 1.49 0 2.57 2.07 4.67 4.62 4.67h7.11l3.17 2.54c.12.09.25.14.39.14.115 0 .235-.03.34-.1.22-.15.323-.42.25-.68l-.63-2.26c1.66-.73 2.773-2.41 2.773-4.27zm-4.605-6.26c1.008-1.454 1.54-3.16 1.54-4.933 0-4.774-3.882-8.658-8.656-8.658H8.65C3.882 2.265 0 6.15 0 10.923c0 3.644 2.316 6.906 5.704 8.137l-1.418 5.05c-.073.258.03.533.252.682.105.07.224.103.343.103.14 0 .28-.045.39-.134l6.54-5.18h8.48c2.84 0 5.5-1.39 7.12-3.72zM11.66 18.343c-.14 0-.275.047-.384.134l-5.208 4.13L7.13 18.82c.093-.328-.098-.668-.426-.76-3.174-.903-5.392-3.838-5.392-7.14 0-4.09 3.33-7.42 7.422-7.42h11.62c4.093 0 7.422 3.33 7.422 7.42 0 1.52-.457 2.983-1.32 4.228-1.39 2-3.67 3.194-6.1 3.194H11.66zm-3.184-9.4c.156-.22.248-.49.248-.778 0-.747-.607-1.354-1.354-1.354-.746 0-1.353.61-1.353 1.36 0 .43.198.81.506 1.06l1.358 1.31c.12.12.28.18.43.18.11 0 .22-.02.32-.08l.25-.14c.16-.09.27-.25.3-.44.03-.18-.03-.37-.15-.51l-.53-.58zm3.908 0c.155-.22.248-.49.248-.778 0-.747-.608-1.354-1.354-1.354-.746 0-1.354.61-1.354 1.36 0 .43.2.81.507 1.06l1.36 1.31c.12.12.28.18.43.18.11 0 .22-.02.31-.08l.25-.14c.16-.09.27-.25.3-.44.03-.18-.03-.37-.15-.51l-.53-.58zm8.194 6.018l.245.15c.097.06.205.09.31.09.158 0 .313-.06.43-.17l1.358-1.31c.31-.25.51-.63.51-1.05 0-.74-.6-1.35-1.35-1.35-.74 0-1.35.61-1.35 1.36 0 .29.1.56.25.78l-.53.58c-.12.14-.18.33-.15.51.03.19.14.35.3.45zm-2.41-3.66c-.748 0-1.355.61-1.355 1.36 0 .29.092.56.248.78l-.53.58c-.12.14-.18.33-.15.51s.14.35.3.45l.25.15c.1.06.21.09.31.09.16 0 .31-.06.43-.17l1.36-1.31c.31-.25.51-.63.51-1.05 0-.74-.6-1.35-1.35-1.35z" fill="#3A434E"/><path d="M32 62.116c0-2.572-2.07-4.665-4.614-4.665-.34 0-.615.28-.615.63s.28.62.62.62c1.87 0 3.39 1.54 3.39 3.42 0 1.52-1.01 2.88-2.46 3.29-.32.1-.51.44-.42.77l.27.98-1.84-1.48c-.11-.08-.24-.13-.38-.13h-7.32c-1.86 0-3.38-1.53-3.38-3.42 0-.37.06-.74.18-1.09.11-.32-.06-.68-.38-.79-.32-.11-.67.07-.78.39-.16.48-.24.98-.24 1.49 0 2.57 2.07 4.67 4.62 4.67h7.11l3.17 2.54c.12.09.25.14.39.14.115 0 .235-.03.34-.1.22-.15.323-.42.25-.68l-.63-2.26c1.66-.73 2.773-2.41 2.773-4.27zm-4.605-6.26c1.008-1.454 1.54-3.16 1.54-4.933 0-4.774-3.882-8.658-8.656-8.658H8.65C3.882 42.265 0 46.15 0 50.923c0 3.644 2.316 6.906 5.704 8.137l-1.418 5.05c-.073.258.03.533.252.682.105.07.224.103.343.103.14 0 .28-.045.39-.134l6.54-5.18h8.48c2.84 0 5.5-1.39 7.12-3.72zM11.66 58.343c-.14 0-.275.047-.384.134l-5.208 4.13L7.13 58.82c.093-.328-.098-.668-.426-.76-3.174-.903-5.392-3.838-5.392-7.14 0-4.09 3.33-7.42 7.422-7.42h11.62c4.093 0 7.422 3.33 7.422 7.42 0 1.52-.457 2.983-1.32 4.228-1.39 2-3.67 3.194-6.1 3.194H11.66zm-3.184-9.4c.156-.22.248-.49.248-.778 0-.747-.607-1.354-1.354-1.354-.746 0-1.353.61-1.353 1.36 0 .43.198.81.506 1.06l1.358 1.31c.12.12.28.18.43.18.11 0 .22-.02.32-.08l.25-.14c.16-.09.27-.25.3-.44.03-.18-.03-.37-.15-.51l-.53-.58zm3.908 0c.155-.22.248-.49.248-.778 0-.747-.608-1.354-1.354-1.354-.746 0-1.354.61-1.354 1.36 0 .43.2.81.507 1.06l1.36 1.31c.12.12.28.18.43.18.11 0 .22-.02.31-.08l.25-.14c.16-.09.27-.25.3-.44.03-.18-.03-.37-.15-.51l-.53-.58zm8.194 6.018l.245.15c.097.06.205.09.31.09.158 0 .313-.06.43-.17l1.358-1.31c.31-.25.51-.63.51-1.05 0-.74-.6-1.35-1.35-1.35-.74 0-1.35.61-1.35 1.36 0 .29.1.56.25.78l-.53.58c-.12.14-.18.33-.15.51.03.19.14.35.3.45zm-2.41-3.66c-.748 0-1.355.61-1.355 1.36 0 .29.092.56.248.78l-.53.58c-.12.14-.18.33-.15.51s.14.35.3.45l.25.15c.1.06.21.09.31.09.16 0 .31-.06.43-.17l1.36-1.31c.31-.25.51-.63.51-1.05 0-.74-.6-1.35-1.35-1.35z" fill="#67737B"/><path d="M32 102.116c0-2.572-2.07-4.665-4.614-4.665-.34 0-.615.28-.615.63s.28.62.62.62c1.87 0 3.39 1.54 3.39 3.42 0 1.52-1.01 2.88-2.46 3.29-.32.1-.51.44-.42.77l.27.98-1.84-1.48c-.11-.08-.24-.13-.38-.13h-7.32c-1.86 0-3.38-1.53-3.38-3.42 0-.37.06-.74.18-1.09.11-.32-.06-.68-.38-.79-.32-.11-.67.07-.78.39-.16.48-.24.98-.24 1.49 0 2.57 2.07 4.67 4.62 4.67h7.11l3.17 2.54c.12.09.25.14.39.14.115 0 .235-.03.34-.1.22-.15.323-.42.25-.68l-.63-2.26c1.66-.73 2.773-2.41 2.773-4.27zm-4.605-6.26c1.008-1.454 1.54-3.16 1.54-4.933 0-4.774-3.882-8.658-8.656-8.658H8.65C3.882 82.265 0 86.15 0 90.923c0 3.644 2.316 6.906 5.704 8.137l-1.418 5.05c-.073.258.03.533.252.682.105.07.224.103.343.103.14 0 .28-.045.39-.134l6.54-5.18h8.48c2.84 0 5.5-1.39 7.12-3.72zM11.66 98.343c-.14 0-.275.047-.384.134l-5.208 4.13L7.13 98.82c.093-.328-.098-.668-.426-.76-3.174-.903-5.392-3.838-5.392-7.14 0-4.09 3.33-7.42 7.422-7.42h11.62c4.093 0 7.422 3.33 7.422 7.42 0 1.52-.457 2.983-1.32 4.228-1.39 2-3.67 3.194-6.1 3.194H11.66zm-3.184-9.4c.156-.22.248-.49.248-.778 0-.747-.607-1.354-1.354-1.354-.746 0-1.353.61-1.353 1.36 0 .43.198.81.506 1.06l1.358 1.31c.12.12.28.18.43.18.11 0 .22-.02.32-.08l.25-.14c.16-.09.27-.25.3-.44.03-.18-.03-.37-.15-.51l-.53-.58zm3.908 0c.155-.22.248-.49.248-.778 0-.747-.608-1.354-1.354-1.354-.746 0-1.354.61-1.354 1.36 0 .43.2.81.507 1.06l1.36 1.31c.12.12.28.18.43.18.11 0 .22-.02.31-.08l.25-.14c.16-.09.27-.25.3-.44.03-.18-.03-.37-.15-.51l-.53-.58zm8.194 6.018l.245.15c.097.06.205.09.31.09.158 0 .313-.06.43-.17l1.358-1.31c.31-.25.51-.63.51-1.05 0-.74-.6-1.35-1.35-1.35-.74 0-1.35.61-1.35 1.36 0 .29.1.56.25.78l-.53.58c-.12.14-.18.33-.15.51.03.19.14.35.3.45zm-2.41-3.66c-.748 0-1.355.61-1.355 1.36 0 .29.092.56.248.78l-.53.58c-.12.14-.18.33-.15.51s.14.35.3.45l.25.15c.1.06.21.09.31.09.16 0 .31-.06.43-.17l1.36-1.31c.31-.25.51-.63.51-1.05 0-.74-.6-1.35-1.35-1.35z" fill="#fff"/><path d="M32 142.116c0-2.572-2.07-4.665-4.614-4.665-.34 0-.615.28-.615.63s.28.62.62.62c1.87 0 3.39 1.54 3.39 3.42 0 1.52-1.01 2.88-2.46 3.29-.32.1-.51.44-.42.77l.27.98-1.84-1.48c-.11-.08-.24-.13-.38-.13h-7.32c-1.86 0-3.38-1.53-3.38-3.42 0-.37.06-.74.18-1.09.11-.32-.06-.68-.38-.79-.32-.11-.67.07-.78.39-.16.48-.24.98-.24 1.49 0 2.57 2.07 4.67 4.62 4.67h7.11l3.17 2.54c.12.09.25.14.39.14.115 0 .235-.03.34-.1.22-.15.323-.42.25-.68l-.63-2.26c1.66-.73 2.773-2.41 2.773-4.27zm-4.605-6.26c1.008-1.454 1.54-3.16 1.54-4.933 0-4.774-3.882-8.658-8.656-8.658H8.65c-4.774 0-8.658 3.884-8.658 8.658 0 3.644 2.315 6.906 5.703 8.137l-1.418 5.05c-.074.258.03.533.25.682.106.07.225.103.344.103.14 0 .28-.045.39-.134l6.54-5.18h8.48c2.84 0 5.5-1.39 7.12-3.72zm-15.735 2.488c-.14 0-.275.047-.384.134l-5.208 4.13 1.063-3.786c.1-.328-.09-.668-.42-.76-3.17-.903-5.39-3.838-5.39-7.14 0-4.09 3.33-7.42 7.42-7.42h11.62c4.1 0 7.42 3.33 7.42 7.42 0 1.52-.45 2.983-1.32 4.228-1.39 2-3.67 3.194-6.1 3.194h-8.7zm-3.184-9.4c.156-.22.248-.49.248-.778 0-.747-.607-1.354-1.354-1.354-.746 0-1.353.607-1.353 1.354 0 .425.198.806.506 1.054l1.358 1.31c.12.115.28.174.43.174.11 0 .22-.027.32-.084l.25-.143c.16-.094.27-.257.3-.442.03-.185-.03-.373-.15-.51l-.53-.58zm3.908 0c.155-.22.248-.49.248-.778 0-.747-.608-1.354-1.354-1.354-.746 0-1.354.607-1.354 1.354 0 .425.2.805.507 1.054l1.36 1.31c.12.115.28.174.43.174.11 0 .22-.027.31-.084l.25-.143c.16-.094.27-.257.3-.442.03-.185-.03-.373-.15-.51l-.53-.58zm8.194 6.018l.245.143c.097.057.205.084.31.084.158 0 .313-.06.43-.18l1.358-1.31c.31-.25.51-.63.51-1.06 0-.75-.6-1.36-1.35-1.36-.74 0-1.35.6-1.35 1.35 0 .29.1.56.25.78l-.53.58c-.12.14-.18.32-.15.51s.14.35.3.44zm-2.41-3.665c-.748 0-1.355.607-1.355 1.354 0 .29.092.56.248.78l-.53.58c-.12.14-.18.33-.15.51.03.19.14.35.3.45l.25.15c.1.06.21.09.31.09.16 0 .31-.06.43-.17l1.36-1.31c.31-.25.51-.63.51-1.05 0-.74-.6-1.35-1.35-1.35z" fill="#206FAC"/></g></svg>