<svg width="32" height="232" viewBox="0 0 32 232" xmlns="http://www.w3.org/2000/svg"><g fill="none"><path d="M25.095 26.498c-.116-.123-.278-.193-.448-.193h-8.023V8.63c1.49.48 3.152.182 4.77-.11 1.89-.338 3.677-.66 5.144.17 2.452 1.39 2.5 2.924 2.5 3.008-.006.335.258.615.594.625h.02c.33 0 .604-.262.614-.594.002-.07.01-.66-.393-1.47-.512-1.02-1.43-1.91-2.73-2.65-1.853-1.05-3.944-.68-5.967-.31-1.69.3-3.288.59-4.552-.01V4.04c.84-.263 1.453-1.05 1.453-1.974C18.077.93 17.15 0 16.01 0c-1.14 0-2.068.93-2.068 2.07 0 .925.613 1.71 1.453 1.973v3.06c-1.204-.277-2.318-1.2-3.486-2.17-1.59-1.312-3.22-2.67-5.35-2.67-3.63 0-4.7 1.95-4.74 2.034-.16.3-.05.68.25.836.3.158.67.046.82-.254.03-.06.82-1.39 3.66-1.39 1.68 0 3.08 1.16 4.56 2.38 1.31 1.09 2.66 2.21 4.27 2.47V26.3H7.37c-.17 0-.33.07-.445.194l-4.21 4.473c-.168.18-.214.44-.117.668.097.225.32.37.563.37h25.7c.25 0 .47-.145.57-.37.1-.225.06-.487-.11-.665L25.1 26.5zM15.17 2.074c0-.463.378-.84.84-.84.462 0 .838.377.838.84 0 .462-.376.838-.838.838-.462 0-.84-.376-.84-.838zM4.585 30.777l3.053-3.243h16.745l3.053 3.243H4.586zm26.21-15.807h-.522l-4.237-5.302c-.117-.146-.294-.23-.48-.23-.187 0-.364.084-.48.23l-4.238 5.302h-.522c-.34 0-.615.276-.615.615 0 3.228 2.63 5.855 5.86 5.855 3.23 0 5.86-2.627 5.86-5.855 0-.34-.27-.615-.61-.615zm-5.24-3.934L28.7 14.97h-6.29l3.144-3.934zm0 9.175c-2.342 0-4.283-1.75-4.585-4.01h9.17c-.302 2.26-2.243 4.01-4.586 4.01zm-13.368-9.22c0-.34-.276-.61-.615-.61h-.522L6.81 5.07c-.116-.146-.293-.23-.48-.23s-.363.084-.48.23l-4.237 5.3H1.09c-.34 0-.614.275-.614.614 0 3.228 2.626 5.855 5.855 5.855 3.23 0 5.86-2.63 5.86-5.86zM6.33 6.44l3.145 3.93h-6.29L6.33 6.43zM1.746 11.6h9.17c-.3 2.26-2.242 4.012-4.584 4.012-2.342 0-4.283-1.75-4.585-4.012z" fill="#3A434E"/><path d="M25.095 66.498c-.116-.123-.278-.193-.448-.193h-8.023V48.63c1.49.48 3.152.182 4.77-.11 1.89-.338 3.677-.66 5.144.17 2.452 1.39 2.5 2.924 2.5 3.008-.006.335.258.615.594.625h.02c.33 0 .604-.262.614-.594.002-.07.01-.66-.393-1.47-.512-1.02-1.43-1.91-2.73-2.65-1.853-1.05-3.944-.68-5.967-.31-1.69.3-3.288.59-4.552-.01v-3.26c.84-.27 1.453-1.05 1.453-1.98 0-1.14-.927-2.07-2.067-2.07-1.14 0-2.068.92-2.068 2.06 0 .92.613 1.71 1.453 1.97v3.06c-1.204-.28-2.318-1.2-3.486-2.17-1.59-1.31-3.22-2.67-5.35-2.67-3.63 0-4.7 1.95-4.74 2.03-.16.3-.05.67.25.83.3.16.67.04.82-.26.03-.06.82-1.388 3.66-1.388 1.68 0 3.08 1.16 4.56 2.39 1.31 1.09 2.66 2.21 4.27 2.476V66.3H7.37c-.17 0-.33.07-.445.194l-4.21 4.473c-.168.18-.214.44-.117.665.097.225.32.37.563.37h25.7c.25 0 .47-.145.57-.37.1-.225.06-.487-.11-.665l-4.21-4.47zM15.17 42.074c0-.463.378-.84.84-.84.462 0 .838.377.838.84 0 .462-.376.838-.838.838-.462 0-.84-.376-.84-.838zM4.585 70.777l3.053-3.243h16.745l3.053 3.243H4.586zm26.21-15.807h-.522l-4.237-5.302c-.117-.146-.294-.23-.48-.23-.187 0-.364.084-.48.23l-4.238 5.302h-.522c-.34 0-.615.276-.615.615 0 3.228 2.63 5.855 5.86 5.855 3.23 0 5.86-2.627 5.86-5.855 0-.34-.27-.615-.61-.615zm-5.24-3.934L28.7 54.97h-6.29l3.144-3.934zm0 9.175c-2.342 0-4.283-1.75-4.585-4.01h9.17c-.302 2.26-2.243 4.01-4.586 4.01zm-13.368-9.22c0-.34-.276-.61-.615-.61h-.522l-4.24-5.31c-.116-.14-.293-.23-.48-.23s-.363.09-.48.23l-4.237 5.3H1.09c-.34 0-.614.28-.614.62 0 3.23 2.626 5.86 5.855 5.86 3.23 0 5.86-2.63 5.86-5.86zm-5.855-4.55l3.145 3.94h-6.29l3.146-3.93zM1.746 51.6h9.17c-.3 2.26-2.242 4.012-4.584 4.012-2.342 0-4.283-1.75-4.585-4.012z" fill="#67737B"/><path d="M25.095 106.498c-.116-.123-.278-.193-.448-.193h-8.023V88.63c1.49.48 3.152.182 4.77-.11 1.89-.338 3.677-.66 5.144.17 2.452 1.39 2.5 2.924 2.5 3.008-.006.335.258.615.594.625h.02c.33 0 .604-.262.614-.594.002-.07.01-.66-.393-1.47-.512-1.02-1.43-1.91-2.73-2.65-1.853-1.05-3.944-.68-5.967-.31-1.69.3-3.288.59-4.552-.01v-3.26c.84-.27 1.453-1.05 1.453-1.98 0-1.14-.927-2.07-2.067-2.07-1.14 0-2.068.92-2.068 2.06 0 .92.613 1.71 1.453 1.97v3.06c-1.204-.28-2.318-1.2-3.486-2.17-1.59-1.31-3.22-2.67-5.35-2.67-3.63 0-4.7 1.95-4.74 2.03-.16.3-.05.67.25.83.3.16.67.04.82-.26.03-.06.82-1.388 3.66-1.388 1.68 0 3.08 1.16 4.56 2.39 1.31 1.09 2.66 2.21 4.27 2.476v17.95H7.37c-.17 0-.33.07-.445.196l-4.21 4.472c-.168.18-.214.44-.117.66.097.224.32.37.563.37h25.7c.25 0 .47-.146.57-.37.1-.226.06-.488-.11-.666l-4.21-4.47zM15.17 82.074c0-.463.378-.84.84-.84.462 0 .838.377.838.84 0 .462-.376.838-.838.838-.462 0-.84-.376-.84-.838zM4.585 110.777l3.053-3.243h16.745l3.053 3.243H4.586zm26.21-15.807h-.522l-4.237-5.302c-.117-.146-.294-.23-.48-.23-.187 0-.364.084-.48.23l-4.238 5.302h-.522c-.34 0-.615.276-.615.615 0 3.228 2.63 5.855 5.86 5.855 3.23 0 5.86-2.627 5.86-5.855 0-.34-.27-.615-.61-.615zm-5.24-3.934L28.7 94.97h-6.29l3.144-3.934zm0 9.175c-2.342 0-4.283-1.75-4.585-4.01h9.17c-.302 2.26-2.243 4.01-4.586 4.01zm-13.368-9.22c0-.34-.276-.61-.615-.61h-.522l-4.24-5.31c-.116-.14-.293-.23-.48-.23s-.363.09-.48.23l-4.237 5.3H1.09c-.34 0-.614.28-.614.62 0 3.23 2.626 5.86 5.855 5.86 3.23 0 5.86-2.63 5.86-5.86zm-5.855-4.55l3.145 3.94h-6.29l3.146-3.93zM1.746 91.6h9.17c-.3 2.26-2.242 4.012-4.584 4.012-2.342 0-4.283-1.75-4.585-4.012z" fill="#fff"/><path d="M25.095 146.498c-.116-.123-.278-.193-.448-.193h-8.023V128.63c1.49.48 3.152.182 4.77-.11 1.89-.338 3.677-.66 5.144.17 2.452 1.39 2.5 2.924 2.5 3.008-.006.335.258.615.594.625h.02c.33 0 .604-.262.614-.594.002-.07.01-.66-.393-1.47-.512-1.02-1.43-1.91-2.73-2.65-1.853-1.05-3.944-.68-5.967-.31-1.69.3-3.288.59-4.552-.01v-3.26c.84-.27 1.453-1.05 1.453-1.98 0-1.14-.927-2.07-2.067-2.07-1.14 0-2.068.92-2.068 2.06 0 .92.613 1.71 1.453 1.97v3.06c-1.204-.28-2.318-1.2-3.486-2.17-1.59-1.31-3.22-2.67-5.35-2.67-3.63 0-4.7 1.95-4.74 2.03-.16.3-.05.67.25.83.3.15.67.04.82-.26.03-.06.82-1.39 3.66-1.39 1.68 0 3.08 1.16 4.56 2.38 1.31 1.09 2.66 2.212 4.27 2.48v17.95H7.37c-.17 0-.33.07-.445.19l-4.21 4.474c-.168.18-.214.44-.117.664.097.23.32.37.563.37h25.7c.25 0 .47-.14.57-.37.1-.22.06-.484-.11-.66l-4.21-4.47zm-9.924-24.424c0-.463.38-.84.84-.84.47 0 .84.377.84.84 0 .462-.37.838-.84.838-.46 0-.84-.376-.84-.838zM4.59 150.777l3.053-3.243h16.745l3.053 3.243H4.59zM30.8 134.97h-.522l-4.237-5.302c-.11-.146-.29-.23-.48-.23-.18 0-.36.084-.48.23l-4.24 5.302h-.52c-.34 0-.61.276-.61.615 0 3.228 2.63 5.855 5.86 5.855 3.23 0 5.86-2.627 5.86-5.855 0-.34-.27-.615-.61-.615zm-5.24-3.934l3.145 3.934h-6.29l3.145-3.934zm0 9.175c-2.342 0-4.283-1.75-4.585-4.01h9.17c-.3 2.26-2.242 4.01-4.585 4.01zm-13.37-9.22c0-.34-.277-.61-.616-.61h-.522l-4.237-5.3c-.116-.14-.293-.23-.48-.23s-.363.09-.48.23l-4.237 5.31H1.09c-.34 0-.614.28-.614.62 0 3.23 2.626 5.86 5.855 5.86 3.23 0 5.86-2.62 5.86-5.85zm-5.856-4.55l3.145 3.94H3.19l3.145-3.93zm-4.588 5.16h9.17c-.3 2.26-2.242 4.02-4.584 4.02-2.342 0-4.283-1.75-4.585-4.01z" fill="#206FAC"/></g></svg>