<svg width="32" height="232" viewBox="0 0 32 232" xmlns="http://www.w3.org/2000/svg"><g fill="none"><path d="M15.907 5.415c1.493 0 2.708-1.215 2.708-2.708S17.4 0 15.907 0 13.2 1.214 13.2 2.707c0 1.493 1.214 2.708 2.707 2.708zm0-4.206c.827 0 1.5.67 1.5 1.49s-.673 1.5-1.5 1.5c-.826 0-1.498-.67-1.498-1.5s.67-1.5 1.49-1.5zm7.546 29.58h-4.57l.125-16.85.44-3.09 1.122 7.35c.05.3.31.51.6.51l.09-.01c.33-.05.56-.36.51-.69L20.11 7.18c-.016-.098-.055-.184-.11-.26 0-.128-.04-.255-.12-.36-.1-.128-.246-.212-.407-.23l-3.57-.442h-.15l-3.414.44c-.17.022-.31.106-.41.234-.08.104-.12.23-.12.36-.06.074-.09.16-.11.257l-1.66 10.84c-.05.33.17.63.5.69h.09c.29 0 .55-.22.59-.52l1.12-7.35.44 3.08.12 16.84H8.36c-.333 0-.604.27-.604.6 0 .33.27.6.604.6h15.093c.334 0 .605-.27.605-.61 0-.33-.27-.61-.605-.61zm-5.78 0h-1.16V19.94c0-.334-.272-.605-.606-.605-.334 0-.604.27-.604.605v10.85H14.14l-.105-14.39h3.745l-.106 14.39zm.132-16.98l-.006.08-.01 1.29h-3.77l-.01-1.3-.01-.08-.91-6.37 2.73-.36 2.88.35-.91 6.36z" fill="#3A434E"/><path d="M15.907 45.415c1.493 0 2.708-1.215 2.708-2.708S17.4 40 15.907 40 13.2 41.214 13.2 42.707c0 1.493 1.214 2.708 2.707 2.708zm0-4.206c.827 0 1.5.67 1.5 1.49s-.673 1.5-1.5 1.5c-.826 0-1.498-.67-1.498-1.5s.67-1.5 1.49-1.5zm7.546 29.58h-4.57l.125-16.85.44-3.09 1.122 7.35c.05.3.31.51.6.51l.09-.01c.33-.05.56-.36.51-.69l-1.66-10.84c-.014-.1-.053-.19-.11-.26 0-.13-.04-.26-.12-.36-.1-.13-.244-.22-.405-.23l-3.57-.45h-.15l-3.414.44c-.16.02-.31.1-.41.23-.08.1-.12.23-.12.36-.05.07-.09.16-.1.25L10.06 58c-.05.33.18.637.51.69l.09.005c.294 0 .55-.214.598-.514l1.124-7.34.44 3.09.125 16.85H8.36c-.333 0-.604.27-.604.6 0 .34.27.61.604.61h15.093c.334 0 .605-.27.605-.61 0-.33-.27-.6-.605-.6zm-5.78 0h-1.16V59.94c0-.334-.272-.605-.606-.605-.334 0-.604.27-.604.605v10.85H14.14l-.105-14.39h3.745l-.106 14.39zm.132-16.98l-.006.08-.01 1.29h-3.77l-.01-1.3-.01-.08-.91-6.37 2.73-.36 2.88.35-.91 6.36z" fill="#67737B"/><path d="M15.907 85.415c1.493 0 2.708-1.215 2.708-2.708S17.4 80 15.907 80 13.2 81.214 13.2 82.707c0 1.493 1.214 2.708 2.707 2.708zm0-4.206c.827 0 1.5.67 1.5 1.49s-.673 1.5-1.5 1.5c-.826 0-1.498-.67-1.498-1.5s.67-1.5 1.49-1.5zm7.546 29.58h-4.57l.125-16.85.44-3.09 1.122 7.35c.05.3.31.51.6.51l.09-.01c.33-.05.56-.36.51-.69l-1.66-10.84c-.014-.1-.053-.19-.11-.26 0-.13-.04-.26-.12-.36-.1-.13-.244-.22-.405-.23l-3.57-.45h-.15l-3.414.44c-.16.02-.31.1-.41.23-.08.1-.12.23-.12.36-.05.07-.09.16-.1.25L10.06 98c-.05.33.18.637.51.69l.09.005c.294 0 .55-.214.598-.514l1.124-7.34.44 3.09.125 16.85H8.36c-.333 0-.604.27-.604.6 0 .34.27.61.604.61h15.093c.334 0 .605-.27.605-.61 0-.33-.27-.6-.605-.6zm-5.78 0h-1.16V99.94c0-.334-.272-.605-.606-.605-.334 0-.604.27-.604.605v10.842H14.14l-.105-14.39h3.745l-.106 14.39zm.132-16.98l-.006.08-.01 1.29h-3.77l-.01-1.3-.01-.08-.91-6.37 2.73-.36 2.88.35-.91 6.36z" fill="#fff"/><path d="M15.907 125.415c1.493 0 2.708-1.215 2.708-2.708S17.4 120 15.907 120s-2.707 1.214-2.707 2.707c0 1.493 1.214 2.708 2.707 2.708zm0-4.206c.827 0 1.5.67 1.5 1.49s-.673 1.5-1.5 1.5c-.826 0-1.498-.67-1.498-1.5s.67-1.5 1.49-1.5zm7.546 29.58h-4.57l.125-16.85.44-3.09 1.123 7.34c.05.3.31.51.6.51l.09-.01c.33-.05.56-.36.51-.69l-1.66-10.85c-.01-.1-.05-.19-.11-.26 0-.13-.04-.26-.12-.36-.1-.13-.24-.22-.4-.23l-3.57-.45h-.15l-3.41.44c-.16.02-.31.1-.4.23-.08.1-.12.23-.12.36-.05.07-.09.16-.1.26L10.07 138c-.05.33.175.64.506.69l.094.008c.29 0 .55-.214.595-.514l1.124-7.344.44 3.084.12 16.844H8.36c-.333 0-.604.27-.604.605 0 .333.27.604.604.604h15.093c.334 0 .605-.27.605-.61 0-.337-.27-.608-.605-.608zm-5.78 0h-1.16v-10.85c0-.34-.272-.61-.606-.61-.334 0-.604.27-.604.6v10.84H14.14l-.105-14.39h3.745l-.106 14.39zm.132-16.98l-.006.08-.01 1.29h-3.77l-.01-1.3-.01-.08-.91-6.37 2.73-.36 2.88.35-.91 6.36z" fill="#206FAC"/></g></svg>