<svg width="32" height="232" viewBox="0 0 32 232" xmlns="http://www.w3.org/2000/svg"><g fill="none"><path d="M27.183 14.88c1.533 0 2.974.677 3.95 1.86.173.21.482.24.69.067.21-.172.238-.48.066-.69-1.17-1.41-2.88-2.217-4.71-2.217-.57 0-1.13.08-1.65.23l-.39-1.14c.23.073.49.114.76.114s.49-.22.49-.49v-2.95c0-.27-.22-.49-.49-.49-.74 0-1.39.306-1.8.777l-.6-1.75c-.05-.14-.16-.25-.3-.3-.14-.05-.29-.03-.42.04L20.85 9.1h-2.47c-.27 0-.49.218-.49.488s.22.49.49.49h2.604c.09 0 .177-.024.253-.07l1.54-.92.752 2.2H18.7c-1.528 0-2.798 1.122-3.033 2.584h-1.43l-.766-1.446c-.09-.16-.25-.26-.43-.26H7.62c-.68 0-2.278 0-2.858 1.17-.37-.482-1.114-.796-2.01-.796-.27 0-.49.22-.49.49v2.065c0 .27.22.49.49.49.16 0 .32-.01.47-.03-1.08 1.007-1.79 2.4-1.915 3.956H.49c-.27 0-.49.22-.49.49s.22.49.49.49h2.547c.26 2.16 2.105 3.84 4.335 3.84 2.408 0 4.368-1.96 4.368-4.36 0-2.41-1.96-4.37-4.368-4.37-2.256 0-4.118 1.72-4.345 3.92h-.74c.247-2.59 2.433-4.62 5.085-4.62 2.817 0 5.11 2.29 5.11 5.11 0 .32-.03.64-.088.95l-.005.13-.01.04c0 .27.22.49.49.49h4.25l.27.02.27-.01h.69c.14 0 .27-.06.36-.16l1.74-1.93.1-.17 1.45-4.4.01-.08h1.87c-1.71 1.09-2.84 2.99-2.84 5.15 0 .27.22.49.49.49s.49-.22.49-.49c0-2.01 1.17-3.76 2.87-4.6l.22.66c-1.43.72-2.41 2.2-2.41 3.91 0 2.41 1.96 4.37 4.36 4.37 2.41 0 4.37-1.96 4.37-4.363 0-2.41-1.96-4.37-4.37-4.37-.36 0-.71.04-1.04.123l-.23-.665c.422-.116.87-.18 1.33-.18zm-1.77-4.652v1.823c-.466-.14-.796-.5-.796-.91 0-.41.33-.76.797-.91zm-18.04 6.346c1.868 0 3.388 1.52 3.388 3.39 0 1.868-1.52 3.388-3.38 3.388-1.87 0-3.39-1.52-3.39-3.39 0-1.868 1.52-3.388 3.39-3.388zm19.744 0c1.87 0 3.39 1.52 3.39 3.39 0 1.868-1.52 3.388-3.39 3.388-1.868 0-3.39-1.52-3.39-3.39 0-1.274.71-2.386 1.752-2.965l.7 2.05c-.23.238-.38.56-.38.916 0 .722.59 1.31 1.31 1.31.72 0 1.31-.588 1.31-1.31 0-.723-.59-1.31-1.31-1.31h-.04l-.69-2c.23-.052.47-.08.72-.08zm0 3.057c.183 0 .332.15.332.34 0 .18-.15.33-.34.33-.18 0-.33-.15-.33-.33 0-.18.15-.33.33-.33zm-8.42-7.36h5.07l.56 1.61H16.66c.22-.92 1.05-1.6 2.036-1.6zm-11.08.88h5.123l.385.73H5.593c.15-.41.62-.73 2.025-.73zm-4.376.42c.51.11.8.35.8.5 0 .15-.29.4-.8.5v-.99zm12.85 5.77c0-.72.59-1.31 1.32-1.31s1.32.59 1.32 1.31c0 .66-.48 1.2-1.11 1.3h-.41c-.62-.1-1.11-.64-1.11-1.29zm3.6-.39l-.02.02c-.18-1.08-1.12-1.91-2.26-1.91-1.26 0-2.29 1.03-2.29 2.3 0 .48.15.93.41 1.3h-2.09l.03-.37h.81c.27 0 .49-.22.49-.49s-.22-.49-.49-.49h-.85l-.07-.47h1.11c.27 0 .49-.22.49-.49s-.22-.49-.49-.49h-1.34l-.05.01c-.47-1.23-1.34-2.28-2.44-2.97h10.42l-1.36 4.07zM7.38 21.28c.723 0 1.31-.59 1.31-1.31 0-.724-.587-1.31-1.31-1.31-.72 0-1.31.586-1.31 1.31 0 .72.59 1.31 1.31 1.31zm0-1.64c.184 0 .33.146.33.33 0 .18-.146.33-.33.33-.182 0-.33-.15-.33-.33 0-.185.148-.334.33-.334z" fill="#3A434E"/><path d="M27.183 54.88c1.533 0 2.974.677 3.95 1.86.173.21.482.24.69.067.21-.172.238-.48.066-.69-1.17-1.41-2.88-2.217-4.71-2.217-.57 0-1.13.08-1.65.23l-.39-1.14c.23.073.49.114.76.114s.49-.22.49-.49v-2.95c0-.27-.22-.49-.49-.49-.74 0-1.39.306-1.8.777l-.6-1.75c-.05-.14-.16-.25-.3-.3-.14-.05-.29-.03-.42.04l-1.94 1.16h-2.47c-.27 0-.49.22-.49.49s.22.49.49.49h2.6c.09 0 .17-.02.25-.07l1.54-.92.75 2.2h-4.83c-1.53 0-2.8 1.12-3.03 2.59h-1.43l-.77-1.44c-.09-.16-.25-.26-.43-.26h-5.4c-.69 0-2.28 0-2.86 1.17-.37-.48-1.12-.79-2.01-.79-.27 0-.49.22-.49.49v2.06c0 .27.22.49.49.49.16 0 .32-.01.47-.03-1.08 1.01-1.79 2.4-1.92 3.96H.49c-.27 0-.49.22-.49.49s.22.49.49.49h2.547c.26 2.16 2.105 3.84 4.335 3.84 2.408 0 4.368-1.96 4.368-4.36 0-2.41-1.96-4.37-4.368-4.37-2.256 0-4.118 1.72-4.345 3.91h-.74c.247-2.58 2.433-4.61 5.085-4.61 2.817 0 5.11 2.29 5.11 5.11 0 .32-.03.63-.088.94l-.005.13-.01.04c0 .27.22.49.49.49h4.25l.27.02.27-.02h.69c.14 0 .27-.06.36-.16l1.74-1.93.1-.17L22 54.96l.015-.08h1.87c-1.703 1.084-2.836 2.987-2.836 5.15 0 .27.22.49.49.49s.49-.22.49-.49c0-2.017 1.17-3.765 2.87-4.6l.22.66c-1.43.72-2.41 2.198-2.41 3.903 0 2.41 1.96 4.37 4.36 4.37 2.41 0 4.37-1.96 4.37-4.366 0-2.41-1.96-4.37-4.37-4.37-.36 0-.71.04-1.04.123l-.23-.66c.42-.11.87-.175 1.33-.175zm-1.77-4.652v1.823c-.466-.14-.796-.5-.796-.91 0-.41.33-.76.797-.91zm-18.04 6.346c1.868 0 3.388 1.52 3.388 3.39 0 1.868-1.52 3.388-3.38 3.388-1.87 0-3.39-1.52-3.39-3.39 0-1.868 1.52-3.388 3.39-3.388zm19.744 0c1.87 0 3.39 1.52 3.39 3.39 0 1.868-1.52 3.388-3.39 3.388-1.868 0-3.39-1.52-3.39-3.39 0-1.274.71-2.386 1.752-2.965l.7 2.05c-.23.238-.38.56-.38.916 0 .722.59 1.31 1.31 1.31.72 0 1.31-.588 1.31-1.31 0-.723-.59-1.31-1.31-1.31h-.04l-.69-2c.23-.052.47-.08.72-.08zm0 3.057c.183 0 .332.15.332.34 0 .18-.15.33-.34.33-.18 0-.33-.15-.33-.33 0-.18.15-.33.33-.33zm-8.42-7.36h5.07l.56 1.61H16.66c.22-.92 1.05-1.6 2.036-1.6zm-11.08.88h5.123l.385.73H5.593c.15-.41.62-.73 2.025-.73zm-4.376.42c.51.11.8.35.8.5 0 .15-.29.4-.8.5v-.99zm12.85 5.77c0-.72.59-1.31 1.32-1.31s1.32.59 1.32 1.31c0 .66-.48 1.2-1.11 1.3h-.41c-.62-.1-1.11-.64-1.11-1.29zm3.6-.39l-.02.02c-.18-1.08-1.12-1.91-2.26-1.91-1.26 0-2.29 1.03-2.29 2.3 0 .48.15.93.41 1.3h-2.09l.03-.37h.81c.27 0 .49-.22.49-.49s-.22-.49-.49-.49h-.85l-.07-.47h1.11c.27 0 .49-.22.49-.49s-.22-.49-.49-.49h-1.34l-.05.01c-.47-1.23-1.34-2.28-2.44-2.97h10.42l-1.36 4.07zM7.38 61.28c.723 0 1.31-.59 1.31-1.31 0-.724-.587-1.31-1.31-1.31-.72 0-1.31.586-1.31 1.31 0 .72.59 1.31 1.31 1.31zm0-1.64c.184 0 .33.146.33.33 0 .18-.146.33-.33.33-.182 0-.33-.15-.33-.33 0-.185.148-.334.33-.334z" fill="#67737B"/><path d="M27.183 94.88c1.533 0 2.974.677 3.95 1.86.173.21.482.24.69.067.21-.172.238-.48.066-.69-1.17-1.41-2.88-2.217-4.71-2.217-.57 0-1.13.08-1.65.23l-.39-1.14c.23.073.49.114.76.114s.49-.22.49-.49v-2.95c0-.27-.22-.49-.49-.49-.74 0-1.39.306-1.8.777l-.6-1.75c-.05-.14-.16-.25-.3-.3-.14-.05-.29-.03-.42.04l-1.94 1.16h-2.47c-.27 0-.49.22-.49.49s.22.49.49.49h2.6c.09 0 .17-.02.25-.07l1.54-.92.75 2.2h-4.83c-1.53 0-2.8 1.12-3.03 2.59h-1.43l-.77-1.44c-.09-.16-.25-.26-.43-.26h-5.4c-.69 0-2.28 0-2.86 1.17-.37-.48-1.12-.79-2.01-.79-.27 0-.49.22-.49.49v2.06c0 .27.22.49.49.49.16 0 .32-.01.47-.03-1.08 1.01-1.79 2.4-1.92 3.96H.49c-.27 0-.49.22-.49.49s.22.49.49.49h2.547c.26 2.16 2.105 3.84 4.335 3.84 2.408 0 4.368-1.96 4.368-4.36 0-2.41-1.96-4.37-4.368-4.37-2.256 0-4.118 1.72-4.345 3.91h-.74c.247-2.58 2.433-4.61 5.085-4.61 2.817 0 5.11 2.29 5.11 5.11 0 .32-.03.63-.088.94l-.005.13-.01.04c0 .27.22.49.49.49h4.25l.27.02.27-.02h.69c.14 0 .27-.06.36-.16l1.74-1.93.1-.17L22 94.96l.015-.08h1.87c-1.703 1.084-2.836 2.987-2.836 5.15 0 .27.22.49.49.49s.49-.22.49-.49c0-2.017 1.17-3.765 2.87-4.6l.22.66c-1.43.72-2.41 2.198-2.41 3.903 0 2.41 1.96 4.37 4.36 4.37 2.41 0 4.37-1.96 4.37-4.366 0-2.41-1.96-4.37-4.37-4.37-.36 0-.71.04-1.04.123l-.23-.66c.42-.11.87-.175 1.33-.175zm-1.77-4.652v1.823c-.466-.14-.796-.5-.796-.91 0-.41.33-.76.797-.91zm-18.04 6.346c1.868 0 3.388 1.52 3.388 3.39 0 1.868-1.52 3.388-3.38 3.388-1.87 0-3.39-1.52-3.39-3.39 0-1.868 1.52-3.388 3.39-3.388zm19.744 0c1.87 0 3.39 1.52 3.39 3.39 0 1.868-1.52 3.388-3.39 3.388-1.868 0-3.39-1.52-3.39-3.39 0-1.274.71-2.386 1.752-2.965l.7 2.05c-.23.238-.38.56-.38.916 0 .722.59 1.31 1.31 1.31.72 0 1.31-.588 1.31-1.31 0-.723-.59-1.31-1.31-1.31h-.04l-.69-2c.23-.052.47-.08.72-.08zm0 3.057c.183 0 .332.15.332.34 0 .18-.15.33-.34.33-.18 0-.33-.15-.33-.33 0-.18.15-.33.33-.33zm-8.42-7.36h5.07l.56 1.61H16.66c.22-.92 1.05-1.6 2.036-1.6zm-11.08.88h5.123l.385.73H5.593c.15-.41.62-.73 2.025-.73zm-4.376.42c.51.11.8.35.8.5 0 .15-.29.4-.8.5v-.99zm12.85 5.77c0-.72.59-1.31 1.32-1.31s1.32.59 1.32 1.31c0 .66-.48 1.2-1.11 1.3h-.41c-.62-.1-1.11-.64-1.11-1.29zm3.6-.39l-.02.02c-.18-1.08-1.12-1.91-2.26-1.91-1.26 0-2.29 1.03-2.29 2.3 0 .48.15.93.41 1.3h-2.09l.03-.37h.81c.27 0 .49-.22.49-.49s-.22-.49-.49-.49h-.85l-.07-.47h1.11c.27 0 .49-.22.49-.49s-.22-.49-.49-.49h-1.34l-.05.01c-.47-1.23-1.34-2.28-2.44-2.97h10.42l-1.36 4.07zm-12.31 2.34c.72 0 1.31-.58 1.31-1.31 0-.72-.59-1.31-1.31-1.31-.72 0-1.31.59-1.31 1.31 0 .73.59 1.31 1.31 1.31zm0-1.64c.19 0 .33.15.33.33 0 .19-.14.33-.33.33-.18 0-.33-.15-.33-.33 0-.18.15-.33.33-.33z" fill="#fff"/><path d="M27.183 134.88c1.533 0 2.974.677 3.95 1.86.173.21.482.24.69.067.21-.172.238-.48.066-.69-1.17-1.41-2.88-2.217-4.71-2.217-.57 0-1.13.08-1.65.23l-.39-1.14c.23.073.49.114.76.114s.49-.22.49-.49v-2.95c0-.27-.22-.49-.49-.49-.74 0-1.39.306-1.8.777l-.6-1.75c-.05-.14-.16-.25-.3-.3-.14-.05-.29-.03-.42.04l-1.94 1.16h-2.47c-.27 0-.49.22-.49.49s.22.49.49.49h2.6c.09 0 .17-.02.25-.07l1.54-.92.75 2.2h-4.83c-1.53 0-2.8 1.12-3.03 2.59h-1.43l-.77-1.44c-.09-.16-.25-.26-.43-.26h-5.4c-.69 0-2.28 0-2.86 1.17-.37-.48-1.12-.79-2.01-.79-.27 0-.49.22-.49.49v2.07c0 .27.22.49.49.49.16 0 .32-.01.47-.03-1.08 1.01-1.79 2.4-1.92 3.96H.49c-.27 0-.49.22-.49.49s.22.49.49.49h2.547c.26 2.16 2.105 3.84 4.335 3.84 2.408 0 4.368-1.96 4.368-4.37s-1.96-4.37-4.368-4.37c-2.256 0-4.118 1.72-4.345 3.92h-.74c.247-2.58 2.433-4.62 5.085-4.62 2.817 0 5.11 2.29 5.11 5.11 0 .32-.03.63-.088.94l-.005.13-.01.04c0 .27.22.49.49.49h4.25l.27.02.27-.02h.69c.14 0 .27-.06.36-.16l1.74-1.93.1-.17 1.45-4.41.01-.08h1.87c-1.71 1.09-2.84 2.99-2.84 5.15 0 .27.22.49.49.49s.49-.22.49-.49c0-2.01 1.17-3.76 2.87-4.6l.22.66c-1.43.72-2.41 2.2-2.41 3.91 0 2.41 1.96 4.37 4.36 4.37 2.41 0 4.37-1.96 4.37-4.36 0-2.41-1.96-4.37-4.37-4.37-.36 0-.71.04-1.04.12l-.23-.66c.425-.113.87-.18 1.333-.18zm-1.77-4.652v1.823c-.466-.14-.796-.5-.796-.91 0-.41.33-.76.797-.91zm-18.04 6.346c1.868 0 3.388 1.52 3.388 3.39 0 1.868-1.52 3.388-3.38 3.388-1.87 0-3.39-1.52-3.39-3.39 0-1.868 1.52-3.388 3.39-3.388zm19.744 0c1.87 0 3.39 1.52 3.39 3.39 0 1.868-1.52 3.388-3.39 3.388-1.868 0-3.39-1.52-3.39-3.39 0-1.274.71-2.386 1.752-2.965l.7 2.05c-.23.238-.38.56-.38.916 0 .722.59 1.31 1.31 1.31.72 0 1.31-.588 1.31-1.31 0-.723-.59-1.31-1.31-1.31h-.04l-.69-2c.23-.052.47-.08.72-.08zm0 3.057c.183 0 .332.15.332.34 0 .18-.15.33-.34.33-.18 0-.33-.15-.33-.33 0-.18.15-.33.33-.33zm-8.42-7.36h5.07l.56 1.61H16.66c.22-.92 1.05-1.6 2.036-1.6zm-11.08.88h5.123l.385.73H5.593c.15-.41.62-.73 2.025-.73zm-4.376.42c.51.11.8.35.8.5 0 .15-.29.4-.8.5v-.99zm12.85 5.77c0-.72.59-1.31 1.32-1.31s1.32.59 1.32 1.31c0 .66-.48 1.2-1.11 1.3h-.41c-.62-.1-1.11-.64-1.11-1.29zm3.6-.39l-.02.02c-.18-1.08-1.12-1.91-2.26-1.91-1.26 0-2.29 1.03-2.29 2.3 0 .48.15.93.41 1.3h-2.09l.03-.37h.81c.27 0 .49-.22.49-.49s-.22-.49-.49-.49h-.85l-.07-.47h1.11c.27 0 .49-.22.49-.49s-.22-.49-.49-.49h-1.34l-.05.01c-.47-1.23-1.34-2.28-2.44-2.97h10.42l-1.35 4.09zm-12.31 2.34c.72 0 1.31-.58 1.31-1.31 0-.72-.59-1.31-1.31-1.31-.72 0-1.31.59-1.31 1.31 0 .73.59 1.31 1.31 1.31zm0-1.64c.19 0 .33.15.33.33 0 .19-.14.33-.33.33-.18 0-.33-.15-.33-.33 0-.18.15-.33.33-.33z" fill="#206FAC"/></g></svg>