<svg width="32" height="232" viewBox="0 0 32 232" xmlns="http://www.w3.org/2000/svg"><g fill="none"><path d="M27.363 21.32h-.69L21.718 9.35c-.088-.212-.295-.35-.525-.35h-2.585c-.314 0-.57.254-.57.568v.962h-4.145v-.962c0-.314-.255-.568-.57-.568H10.74c-.23 0-.438.138-.526.35L5.26 21.32h-.69c-.315 0-.57.254-.57.568v4.618c0 .315.255.57.57.57h.527l.31 1.212c.063.252.29.428.55.428h3.956c.26 0 .487-.176.55-.428l.31-1.213H21.16l.308 1.213c.064.252.29.428.55.428h3.957c.26 0 .487-.176.55-.428l.31-1.213h.528c.314 0 .57-.254.57-.57V21.89c0-.314-.256-.57-.57-.57zM10.33 25.937H5.14v-3.48h.37l.125.013H26.3l.125-.013h.37v3.48H10.33zm.79-15.8h1.635v.96c0 .314.255.57.57.57h5.283c.314 0 .57-.256.57-.57v-.96h1.635l4.63 11.18H6.49l4.63-11.18zm-1.65 17.44H6.4l-.13-.503H9.6l-.13.504zm16.063 0H22.46l-.127-.503h3.328l-.12.504zm-5.495-8.584c.845-.648 1.353-1.504 1.353-2.456 0-2.065-2.38-3.682-5.42-3.682s-5.42 1.617-5.42 3.682c0 2.064 2.39 3.68 5.43 3.68 1.15 0 2.2-.228 3.06-.624l.58.576c.11.11.26.16.4.16.15 0 .3-.06.41-.17.22-.23.22-.59 0-.81l-.37-.37zm-4.072.087c-2.324 0-4.287-1.164-4.287-2.542 0-1.38 1.96-2.544 4.28-2.544s4.28 1.165 4.28 2.544c0 .617-.4 1.192-1.04 1.638l-.69-.683c-.23-.22-.59-.22-.81.003-.22.223-.22.583 0 .805l.42.42c-.65.23-1.39.37-2.18.37zM26.65 5.68c-3.378-1.484-7.272-2.334-10.684-2.334-3.412 0-7.306.85-10.685 2.333-1.24.54-5.31 2.49-5.31 4.6 0 2.62 1.98 4.33 2.07 4.4.14.12.33.16.51.12.18-.05 4.33-1.1 6.19-3.85.13-.2.13-.45 0-.64l-.72-1.04c1.1-.58 3.93-1.84 7.97-1.84s6.87 1.25 7.96 1.83l-.72 1.04c-.13.19-.13.44 0 .64 1.86 2.74 6.01 3.8 6.19 3.85l.14.01c.14 0 .27-.05.37-.14.09-.07 2.07-1.78 2.07-4.41 0-2.1-4.07-4.05-5.31-4.6zm2.725 7.937c-.893-.27-3.57-1.2-4.996-2.99l.83-1.22c.08-.127.12-.28.09-.43-.03-.15-.12-.28-.24-.365-.04-.024-.9-.6-2.46-1.17-1.42-.52-3.73-1.142-6.64-1.142-2.91 0-5.22.62-6.64 1.142-1.56.57-2.42 1.146-2.46 1.17-.13.084-.22.216-.24.365-.03.15 0 .303.09.43l.83 1.22c-1.43 1.79-4.11 2.72-5 2.99-.45-.467-1.45-1.702-1.45-3.337 0-.753 1.59-2.22 4.63-3.56C8.97 5.3 12.7 4.49 15.96 4.49s6.99.815 10.23 2.237c3.044 1.337 4.636 2.803 4.636 3.56 0 1.635-1.007 2.87-1.453 3.337z" fill="#3A434E"/><path d="M27.363 61.32h-.69l-4.955-11.97c-.088-.212-.295-.35-.525-.35h-2.585c-.314 0-.57.254-.57.568v.962h-4.145v-.962c0-.314-.255-.568-.57-.568H10.74c-.23 0-.438.138-.526.35L5.26 61.32h-.69c-.315 0-.57.254-.57.568v4.618c0 .315.255.57.57.57h.527l.31 1.212c.063.252.29.428.55.428h3.956c.26 0 .487-.176.55-.428l.31-1.213H21.16l.308 1.213c.064.252.29.428.55.428h3.957c.26 0 .487-.176.55-.428l.31-1.213h.528c.314 0 .57-.254.57-.57V61.89c0-.314-.256-.57-.57-.57zM10.33 65.937H5.14v-3.48h.37l.125.013H26.3l.125-.013h.37v3.48H10.33zm.79-15.8h1.635v.96c0 .314.255.57.57.57h5.283c.314 0 .57-.256.57-.57v-.96h1.635l4.63 11.18H6.49l4.63-11.18zm-1.65 17.44H6.4l-.13-.503H9.6l-.13.504zm16.063 0H22.46l-.127-.503h3.328l-.12.504zm-5.495-8.584c.845-.648 1.353-1.504 1.353-2.456 0-2.065-2.38-3.682-5.42-3.682s-5.42 1.617-5.42 3.682c0 2.064 2.39 3.68 5.43 3.68 1.15 0 2.2-.228 3.06-.624l.58.576c.11.11.26.16.4.16.15 0 .3-.06.41-.17.22-.23.22-.59 0-.81l-.37-.37zm-4.072.087c-2.324 0-4.287-1.164-4.287-2.542 0-1.38 1.96-2.544 4.28-2.544s4.28 1.165 4.28 2.544c0 .617-.4 1.192-1.04 1.638l-.69-.683c-.23-.22-.59-.22-.81.003-.22.223-.22.583 0 .805l.42.42c-.65.23-1.39.37-2.18.37zm10.685-13.4c-3.37-1.484-7.27-2.334-10.68-2.334s-7.3.85-10.68 2.333c-1.24.54-5.31 2.49-5.31 4.6 0 2.62 1.98 4.33 2.07 4.4.14.12.33.16.51.12.18-.05 4.33-1.1 6.19-3.85.13-.2.13-.45 0-.64l-.71-1.05c1.1-.58 3.93-1.84 7.97-1.84s6.87 1.25 7.96 1.83l-.72 1.04c-.13.19-.13.44 0 .64 1.86 2.74 6.02 3.8 6.19 3.85l.14.01c.13 0 .26-.05.37-.14.09-.07 2.06-1.78 2.06-4.41 0-2.1-4.07-4.05-5.31-4.6zm2.73 7.937c-.89-.27-3.57-1.2-4.99-2.99l.84-1.22c.09-.127.12-.28.09-.43-.03-.15-.11-.28-.24-.365-.03-.024-.9-.6-2.45-1.17-1.42-.52-3.73-1.142-6.64-1.142-2.91 0-5.22.62-6.64 1.142-1.55.57-2.42 1.146-2.46 1.17-.13.084-.21.216-.24.365-.03.15 0 .303.09.43l.84 1.22c-1.42 1.79-4.1 2.72-4.99 2.99-.44-.467-1.45-1.702-1.45-3.336 0-.75 1.59-2.22 4.63-3.56 3.24-1.42 6.96-2.23 10.22-2.23s6.99.82 10.23 2.24c3.04 1.34 4.64 2.81 4.64 3.56 0 1.64-1.01 2.87-1.453 3.34z" fill="#67737B"/><path d="M27.363 101.32h-.69l-4.955-11.97c-.088-.212-.295-.35-.525-.35h-2.585c-.314 0-.57.254-.57.568v.962h-4.145v-.962c0-.314-.255-.568-.57-.568H10.74c-.23 0-.438.138-.526.35L5.26 101.32h-.69c-.315 0-.57.254-.57.568v4.618c0 .315.255.57.57.57h.527l.31 1.212c.063.252.29.428.55.428h3.956c.26 0 .487-.176.55-.428l.31-1.213H21.16l.308 1.213c.064.252.29.428.55.428h3.957c.26 0 .487-.176.55-.428l.31-1.213h.528c.314 0 .57-.254.57-.57v-4.617c0-.314-.256-.57-.57-.57zm-17.032 4.618H5.14v-3.48h.37l.125.013H26.3l.125-.01h.37v3.48H10.33zm.79-15.8h1.64v.96c0 .314.26.57.57.57h5.29c.32 0 .57-.256.57-.57v-.96h1.64l4.63 11.18H6.49l4.63-11.18zm-1.65 17.44H6.4l-.13-.503H9.6l-.13.504zm16.07 0h-3.08l-.12-.503h3.33l-.12.504zm-5.49-8.584c.85-.648 1.36-1.504 1.36-2.456 0-2.065-2.38-3.682-5.42-3.682s-5.42 1.617-5.42 3.682c0 2.064 2.39 3.68 5.43 3.68 1.15 0 2.2-.228 3.06-.624l.58.576c.11.11.26.165.4.165.15 0 .3-.056.41-.168.22-.223.22-.583 0-.804l-.37-.37zm-4.07.087c-2.32 0-4.28-1.16-4.28-2.54 0-1.38 1.97-2.54 4.29-2.54s4.29 1.17 4.29 2.55c0 .62-.39 1.19-1.04 1.64l-.68-.68c-.22-.22-.58-.22-.8.01-.22.23-.21.59.01.81l.42.42c-.64.23-1.39.37-2.17.37zm10.69-13.4c-3.38-1.48-7.27-2.33-10.68-2.33s-7.3.85-10.68 2.34c-1.24.55-5.31 2.5-5.31 4.6 0 2.63 1.98 4.34 2.06 4.41.14.12.33.17.51.12.18-.04 4.33-1.1 6.19-3.85.13-.19.13-.45 0-.64l-.72-1.05c1.1-.58 3.93-1.83 7.97-1.83s6.87 1.25 7.97 1.83l-.72 1.05c-.13.2-.13.45 0 .64 1.86 2.75 6.02 3.81 6.19 3.85l.14.02c.13 0 .26-.04.37-.13.08-.07 2.06-1.78 2.06-4.41 0-2.1-4.07-4.05-5.312-4.6zm2.73 7.94c-.89-.27-3.57-1.2-4.99-2.99l.84-1.22c.09-.12.12-.28.09-.43-.03-.15-.12-.28-.24-.36-.03-.02-.9-.6-2.46-1.17-1.42-.52-3.73-1.14-6.64-1.14-2.91 0-5.21.62-6.64 1.15-1.55.57-2.42 1.15-2.46 1.17-.12.09-.21.22-.24.37s.01.31.09.43l.84 1.22c-1.43 1.79-4.11 2.72-5 2.99-.44-.46-1.45-1.7-1.45-3.33 0-.75 1.59-2.22 4.64-3.56 3.24-1.42 6.97-2.23 10.23-2.23s6.99.81 10.23 2.23c3.04 1.34 4.63 2.81 4.63 3.56 0 1.64-1 2.87-1.45 3.34z" fill="#fff"/><path d="M27.363 141.32h-.69l-4.955-11.97c-.088-.212-.295-.35-.525-.35h-2.585c-.314 0-.57.254-.57.568v.962h-4.145v-.962c0-.314-.255-.568-.57-.568H10.74c-.23 0-.438.138-.526.35L5.26 141.32h-.69c-.315 0-.57.254-.57.568v4.618c0 .315.255.57.57.57h.527l.31 1.212c.063.252.29.428.55.428h3.956c.26 0 .487-.176.55-.428l.31-1.213H21.16l.308 1.213c.064.252.29.428.55.428h3.957c.26 0 .487-.176.55-.428l.31-1.213h.528c.314 0 .57-.254.57-.57v-4.617c0-.314-.256-.57-.57-.57zm-17.032 4.618H5.14v-3.48h.37l.125.013H26.3l.125-.01h.37v3.48H10.33zm.79-15.8h1.64v.96c0 .314.26.57.57.57h5.29c.32 0 .57-.256.57-.57v-.96h1.64l4.63 11.18H6.49l4.63-11.18zm-1.65 17.44H6.4l-.13-.503H9.6l-.13.504zm16.07 0h-3.08l-.12-.503h3.33l-.12.504zm-5.49-8.584c.85-.648 1.36-1.504 1.36-2.456 0-2.065-2.38-3.682-5.42-3.682s-5.42 1.617-5.42 3.682c0 2.064 2.39 3.68 5.43 3.68 1.15 0 2.2-.228 3.06-.624l.58.576c.11.11.26.165.4.165.15 0 .3-.056.41-.168.22-.223.22-.583 0-.804l-.37-.37zm-4.07.087c-2.32 0-4.28-1.16-4.28-2.54 0-1.38 1.97-2.54 4.29-2.54s4.29 1.17 4.29 2.55c0 .62-.39 1.19-1.04 1.64l-.68-.68c-.22-.22-.58-.22-.8.01-.22.23-.21.59.01.81l.42.42c-.64.23-1.39.37-2.17.37zm10.69-13.4c-3.38-1.48-7.27-2.33-10.68-2.33s-7.3.85-10.68 2.34c-1.24.55-5.31 2.5-5.31 4.6 0 2.63 1.98 4.34 2.06 4.41.14.12.33.17.51.12.18-.04 4.33-1.1 6.19-3.85.13-.19.13-.45 0-.64l-.71-1.04c1.1-.58 3.93-1.83 7.96-1.83s6.87 1.25 7.96 1.83l-.71 1.05c-.13.2-.13.45 0 .64 1.86 2.75 6.02 3.81 6.19 3.85l.14.02c.13 0 .26-.04.37-.13.08-.07 2.06-1.78 2.06-4.4 0-2.1-4.07-4.05-5.314-4.6zm2.73 7.94c-.89-.27-3.57-1.2-4.99-2.99l.84-1.22c.09-.12.12-.28.09-.43-.03-.15-.12-.28-.24-.36-.03-.02-.9-.6-2.46-1.17-1.42-.52-3.73-1.14-6.64-1.14-2.91 0-5.21.62-6.64 1.15-1.55.57-2.42 1.15-2.46 1.17-.12.09-.21.22-.24.37s.01.31.09.43l.84 1.22c-1.42 1.79-4.1 2.72-4.99 2.99-.45-.46-1.45-1.7-1.45-3.33 0-.76 1.6-2.22 4.64-3.56 3.24-1.42 6.968-2.24 10.228-2.24s6.99.82 10.23 2.24c3.04 1.34 4.634 2.8 4.634 3.56 0 1.64-1.01 2.87-1.456 3.34z" fill="#206FAC"/></g></svg>