<svg width="32" height="232" viewBox="0 0 32 232" xmlns="http://www.w3.org/2000/svg"><g fill="none"><path d="M27.647 19.275h-.432V9.137h.432c.296 0 .535-.24.535-.535 0-.296-.24-.535-.535-.535h-2.654V5.572c.09-.068.158-.164.19-.28.077-.286-.09-.58-.376-.658-.157-.043-3.75-1.01-8.134-1.084V1.072h1.642c.295 0 .535-.24.535-.535 0-.296-.24-.535-.535-.535h-2.177c-.296 0-.535.24-.535.535V3.55c-4.383.075-7.973 1.04-8.13 1.084-.285.078-.453.372-.375.657.032.12.1.22.19.29v2.49H4.634c-.296 0-.536.24-.536.54 0 .3.24.54.536.54h.43v10.13h-.43c-.296 0-.536.24-.536.54 0 .3.24.54.536.54h.43v7c0 .3.24.54.537.54h2.49l-3.18 3.2c-.21.21-.21.55 0 .76.11.11.24.16.38.16s.28-.05.38-.15l1.29-1.29h18.37l1.29 1.3c.11.11.24.16.38.16s.27-.05.38-.15c.21-.21.21-.55 0-.754L24.2 27.9h2.49c.3 0 .54-.24.54-.535v-7.01h.43c.3 0 .54-.24.54-.534 0-.3-.24-.54-.536-.54zm-2.852 6.06h-2.46c-.297 0-.537.238-.537.534 0 .29.24.53.536.53h2.46c.297 0 .536-.24.536-.54 0-.3-.24-.54-.535-.54zm-14.848 0h-2.46c-.297 0-.537.238-.537.534 0 .29.24.53.536.53h2.46c.297 0 .536-.24.536-.54 0-.3-.24-.54-.535-.54zM11.857 4.9c1.266-.163 2.737-.287 4.28-.287 1.546 0 3.02.124 4.288.288v3.17h-8.57V4.91zm9.64.154c1.055.166 1.9.343 2.425.464v2.547h-2.426v-3.01zm-13.14.466c.526-.12 1.37-.3 2.426-.465v3.012H8.36V5.52zm-2.22 3.617h20.01v10.138h-1.22v-7.243c0-.26-.185-.48-.44-.526l-2.24-.404h-.196l-2.1.405c-.25.048-.43.27-.43.525v7.243h-.66v-7.243c0-.26-.18-.48-.44-.526l-2.24-.404h-.19l-2.11.405c-.25.048-.43.27-.43.525v7.243h-.65v-7.243c0-.26-.18-.48-.44-.526l-2.24-.404h-.2l-2.11.405c-.25.048-.43.27-.43.525v7.243H6.14V9.137zm14.44 10.076v-6.738l1.577-.302 1.702.307v6.733h-3.278zm-6.076 0v-6.738l1.58-.302 1.7.307v6.733H14.5zm-6.07 0v-6.738l1.57-.302 1.71.307v6.733H8.43zm15.83 10.263H8.02l1.58-1.59h13.08l1.58 1.59zm-18.12-4.54h20.01v1.88H6.14v-1.88zm0-4.59h20.01v3.52H6.14v-3.52zm10.01 3.112c.79 0 1.43-.64 1.43-1.428 0-.787-.64-1.427-1.43-1.427-.78 0-1.42.64-1.42 1.427s.64 1.428 1.43 1.428zm0-1.785c.2 0 .36.16.36.357 0 .197-.16.357-.35.357-.19 0-.35-.16-.35-.357 0-.196.16-.357.36-.357z" fill="#3A434E"/><path d="M27.647 59.275h-.432V49.137h.432c.296 0 .535-.24.535-.535 0-.296-.24-.535-.535-.535h-2.654v-2.495c.09-.068.158-.164.19-.28.077-.286-.09-.58-.376-.658-.157-.043-3.75-1.01-8.134-1.084v-2.478h1.642c.295 0 .535-.24.535-.535 0-.296-.24-.535-.535-.535h-2.177c-.296 0-.535.24-.535.535v3.013c-4.383.075-7.973 1.04-8.13 1.084-.285.078-.453.372-.375.657.032.12.1.22.19.29v2.5H4.634c-.296 0-.536.24-.536.54 0 .3.24.54.536.54h.43v10.13h-.43c-.296 0-.536.24-.536.54 0 .3.24.54.536.54h.43v7.01c0 .3.24.54.537.54h2.49l-3.18 3.2c-.21.21-.21.55 0 .76.11.11.24.16.38.16s.28-.05.38-.15l1.29-1.29h18.37l1.29 1.3c.11.11.24.16.38.16s.27-.05.38-.15c.21-.21.21-.54 0-.75L24.2 67.9h2.49c.297 0 .536-.24.536-.537v-7.01h.43c.297 0 .536-.24.536-.533 0-.3-.24-.54-.536-.54zm-2.852 6.06h-2.46c-.297 0-.537.238-.537.534 0 .29.24.53.536.53h2.46c.297 0 .536-.24.536-.54 0-.3-.24-.54-.535-.54zm-14.848 0h-2.46c-.297 0-.537.238-.537.534 0 .29.24.53.536.53h2.46c.297 0 .536-.24.536-.54 0-.3-.24-.54-.535-.54zm1.91-20.433c1.266-.163 2.737-.287 4.28-.287 1.546 0 3.02.124 4.288.288v3.164h-8.57v-3.165zm9.64.154c1.055.166 1.9.343 2.425.464v2.547h-2.426v-3.01zM8.36 45.52c.524-.12 1.37-.3 2.424-.465v3.012H8.36V45.52zm-2.225 3.617h20.01v10.138h-1.22v-7.243c0-.26-.184-.48-.44-.526l-2.24-.404h-.195l-2.108.405c-.252.048-.434.27-.434.525v7.243h-.658v-7.243c0-.26-.186-.48-.44-.526l-2.24-.404h-.197l-2.108.405c-.252.048-.434.27-.434.525v7.243h-.65v-7.243c0-.26-.18-.48-.44-.526l-2.24-.404h-.2l-2.11.405c-.25.048-.43.27-.43.525v7.243H6.14V49.137zm14.442 10.076v-6.738l1.576-.302 1.702.307v6.733h-3.278zm-6.077 0v-6.738l1.577-.302 1.702.307v6.733H14.5zm-6.076 0v-6.738L10 52.173l1.702.307v6.733H8.424zM24.26 69.476H8.02l1.58-1.59h13.08l1.58 1.59zm-18.124-4.54h20.01v1.88H6.136v-1.88zm0-4.59h20.01v3.52H6.136v-3.52zm10.004 3.112c.787 0 1.428-.64 1.428-1.428 0-.787-.64-1.427-1.428-1.427-.787 0-1.427.64-1.427 1.427s.64 1.428 1.427 1.428zm0-1.785c.197 0 .357.16.357.357 0 .197-.16.357-.357.357-.196 0-.357-.16-.357-.357 0-.196.16-.357.357-.357z" fill="#67737B"/><path d="M27.647 99.275h-.432V89.137h.432c.296 0 .535-.24.535-.535 0-.296-.24-.535-.535-.535h-2.654v-2.495c.09-.068.158-.164.19-.28.077-.286-.09-.58-.376-.658-.157-.043-3.75-1.01-8.134-1.084v-2.478h1.642c.295 0 .535-.24.535-.535 0-.296-.24-.535-.535-.535h-2.177c-.296 0-.535.24-.535.535v3.013c-4.383.075-7.973 1.04-8.13 1.084-.285.078-.453.372-.375.657.032.12.1.22.19.29v2.5H4.634c-.296 0-.536.24-.536.54 0 .3.24.54.536.54h.43v10.13h-.43c-.296 0-.536.24-.536.54 0 .3.24.54.536.54h.43v7.01c0 .3.24.54.537.54h2.49l-3.18 3.2c-.21.21-.21.55 0 .76.11.11.24.16.38.16s.28-.05.38-.16l1.29-1.29h18.37l1.29 1.3c.11.11.24.16.38.16s.27-.05.38-.15c.21-.21.21-.55 0-.756l-3.18-3.21h2.49c.3 0 .54-.24.54-.54v-7.007h.43c.3 0 .54-.24.54-.537 0-.297-.24-.536-.53-.536zm-2.852 6.06h-2.46c-.297 0-.537.238-.537.534 0 .29.24.53.536.53h2.46c.297 0 .536-.24.536-.54 0-.3-.24-.54-.535-.54zm-14.848 0h-2.46c-.297 0-.537.238-.537.534 0 .29.24.53.536.53h2.46c.297 0 .536-.24.536-.54 0-.3-.24-.54-.535-.54zm1.91-20.433c1.266-.163 2.737-.287 4.28-.287 1.546 0 3.02.124 4.288.288v3.164h-8.57v-3.165zm9.64.154c1.055.166 1.9.343 2.425.464v2.547h-2.426v-3.01zM8.36 85.52c.524-.12 1.37-.3 2.424-.465v3.012H8.36V85.52zm-2.225 3.617h20.01v10.138h-1.22v-7.243c0-.26-.184-.48-.44-.526l-2.24-.404h-.195l-2.108.405c-.252.048-.434.27-.434.525v7.243h-.658v-7.243c0-.26-.186-.48-.44-.526l-2.24-.404h-.197l-2.108.405c-.252.048-.434.27-.434.525v7.243h-.65v-7.243c0-.26-.18-.48-.44-.526l-2.24-.404h-.2l-2.11.405c-.25.048-.43.27-.43.525v7.243H6.14V89.137zm14.442 10.076v-6.738l1.576-.302 1.702.307v6.733h-3.278zm-6.077 0v-6.738l1.577-.302 1.702.307v6.733H14.5zm-6.076 0v-6.738L10 92.173l1.702.307v6.733H8.424zm15.837 10.263H8.02l1.58-1.59h13.08l1.58 1.59zm-18.12-4.54h20.01v1.88H6.14v-1.88zm0-4.59h20.01v3.52H6.14v-3.52zm10.01 3.112c.79 0 1.43-.64 1.43-1.428 0-.787-.64-1.427-1.43-1.427-.78 0-1.42.64-1.42 1.427s.64 1.428 1.43 1.428zm0-1.785c.2 0 .36.16.36.357 0 .197-.16.357-.35.357-.19 0-.35-.16-.35-.357 0-.196.16-.357.36-.357z" fill="#fff"/><path d="M27.647 139.275h-.432v-10.138h.432c.296 0 .535-.24.535-.535 0-.296-.24-.535-.535-.535h-2.654v-2.495c.09-.068.158-.164.19-.28.077-.286-.09-.58-.376-.658-.157-.043-3.75-1.01-8.134-1.084v-2.478h1.642c.295 0 .535-.24.535-.535 0-.296-.24-.535-.535-.535h-2.177c-.296 0-.535.24-.535.535v3.013c-4.383.075-7.973 1.04-8.13 1.084-.285.078-.453.372-.375.657.032.12.1.22.19.29v2.5H4.634c-.296 0-.536.24-.536.54 0 .3.24.54.536.54h.43v10.14h-.43c-.296 0-.536.24-.536.54 0 .3.24.54.536.54h.43v7.01c0 .3.24.54.537.54h2.49l-3.18 3.2c-.21.21-.21.55 0 .76.11.11.24.16.38.16s.28-.05.38-.16l1.29-1.29h18.37l1.29 1.3c.11.106.24.16.38.16s.27-.053.38-.157c.21-.21.21-.55 0-.76l-3.18-3.21h2.49c.3 0 .54-.24.54-.54v-7.006h.43c.3 0 .54-.24.54-.534 0-.3-.24-.54-.53-.54zm-2.852 6.06h-2.46c-.297 0-.537.238-.537.534 0 .29.24.53.536.53h2.46c.297 0 .536-.24.536-.54 0-.3-.24-.54-.535-.54zm-14.848 0h-2.46c-.297 0-.537.238-.537.534 0 .29.24.53.536.53h2.46c.297 0 .536-.24.536-.54 0-.3-.24-.54-.535-.54zm1.91-20.433c1.266-.163 2.737-.287 4.28-.287 1.546 0 3.02.124 4.288.288v3.164h-8.57v-3.165zm9.64.154c1.055.166 1.9.343 2.425.464v2.547h-2.426v-3.01zm-13.138.464c.52-.12 1.37-.3 2.42-.465v3.012H8.36v-2.547zm-2.23 3.617h20.01v10.138h-1.22v-7.243c0-.26-.19-.48-.44-.526l-2.24-.404h-.2l-2.11.405c-.25.048-.44.27-.44.525v7.243h-.66v-7.243c0-.26-.19-.48-.44-.526l-2.24-.404h-.2l-2.11.405c-.25.048-.43.27-.43.525v7.243h-.66v-7.243c0-.26-.19-.48-.44-.526l-2.24-.404h-.19l-2.11.405c-.26.048-.44.27-.44.525v7.243h-1.2v-10.138zm14.44 10.076v-6.738l1.57-.302 1.7.307v6.733h-3.28zm-6.08 0v-6.738l1.57-.302 1.7.307v6.733H14.5zm-6.08 0v-6.738l1.57-.302 1.7.307v6.733H8.42zm15.83 10.263H8.02l1.58-1.59h13.08l1.58 1.59zm-18.13-4.54h20.01v1.88h-20v-1.88zm0-4.59h20.01v3.52h-20v-3.52zm10 3.112c.79 0 1.43-.64 1.43-1.428 0-.787-.64-1.427-1.43-1.427-.79 0-1.43.64-1.43 1.427s.64 1.428 1.42 1.428zm0-1.785c.2 0 .36.16.36.357 0 .197-.16.357-.36.357-.2 0-.36-.16-.36-.357 0-.196.16-.357.35-.357z" fill="#206FAC"/></g></svg>