<svg width="32" height="232" viewBox="0 0 32 232" xmlns="http://www.w3.org/2000/svg"><g fill="none"><path d="M24.967 18.623l-1.21-.625c.152-.642.242-1.31.242-1.998 0-.69-.09-1.36-.24-2.002l1.2-.622c.12-.064.21-.174.26-.306.04-.132.03-.276-.04-.4l-1.27-2.452c-.13-.257-.45-.358-.71-.225l-1.14.59c-.37-.454-.78-.873-1.22-1.244l-.96-2.05V.52c0-.29-.24-.523-.53-.523H11.3c-.29 0-.522.234-.522.523v6.77l-.95 2.05C7.922 10.926 6.7 13.323 6.7 16s1.224 5.073 3.14 6.66l.96 2.048v6.768c0 .29.235.524.524.524h8.053c.29 0 .523-.235.523-.524v-6.768l.96-2.048c.45-.37.857-.79 1.22-1.242l1.14.588c.078.04.16.06.24.06.19 0 .374-.105.467-.285l1.266-2.45c.132-.25.032-.57-.225-.7zm-1.732-7.46l.786 1.523-.57.296c-.2-.54-.45-1.058-.75-1.54l.54-.278zM11.85 1.048h7.004v1.64H11.85v-1.64zm0 2.685h7.004v1.61H11.85V3.73zm0 3.792l.53-1.136h5.942l.532 1.13v.58c-1.072-.48-2.255-.75-3.502-.75-1.248 0-2.43.27-3.503.75v-.58zm3.502.875c4.19 0 7.6 3.41 7.6 7.6s-3.41 7.6-7.6 7.6-7.6-3.41-7.6-7.6 3.41-7.6 7.6-7.6zM11.85 29.313h7.004v1.64H11.85v-1.64zm0-2.656h7.004v1.61H11.85v-1.61zm7.004-2.183l-.532 1.136h-5.94l-.533-1.135V23.9c1.07.476 2.25.747 3.5.747 1.24 0 2.43-.27 3.5-.748v.57zm4.38-3.64l-.545-.28c.3-.485.55-1 .75-1.54l.57.298-.79 1.523zM15.354 9.07c-3.82 0-6.93 3.11-6.93 6.93s3.11 6.93 6.93 6.93 6.93-3.11 6.93-6.93-3.11-6.93-6.93-6.93zm0 12.812c-3.245 0-5.884-2.64-5.884-5.882 0-3.244 2.638-5.883 5.882-5.883 3.243 0 5.882 2.64 5.882 5.883s-2.64 5.882-5.882 5.882zm.522-7.156v-3.703c0-.29-.234-.523-.523-.523-.29 0-.524.234-.524.523v3.703c-.51.208-.87.707-.87 1.29 0 .227.05.44.15.63l-1.69 1.684c-.21.205-.21.536 0 .74.1.103.23.154.37.154s.27-.05.37-.153l1.73-1.73c.14.05.29.08.45.08.76 0 1.39-.62 1.39-1.39 0-.58-.36-1.08-.87-1.29zm-.523 1.637c-.192 0-.347-.155-.347-.346 0-.19.155-.347.347-.347.19 0 .346.156.346.347 0 .19-.16.346-.35.346zm0 3.218c-.29 0-.524.24-.524.53v.91c0 .29.23.53.52.53.29 0 .52-.23.52-.52v-.9c0-.29-.24-.52-.53-.52m4.99-4.09h-.91c-.29 0-.53.24-.53.52 0 .29.23.53.52.53h.9c.29 0 .52-.23.52-.52 0-.29-.24-.52-.53-.52m-9.08 0h-.91c-.29 0-.52.24-.52.53 0 .29.23.53.52.53h.9c.29 0 .52-.23.52-.52 0-.29-.24-.53-.53-.53" fill="#3A434E"/><path d="M24.967 58.623l-1.21-.625c.152-.642.242-1.31.242-1.998 0-.69-.09-1.36-.24-2.002l1.2-.622c.12-.064.21-.174.26-.306.04-.132.03-.276-.04-.4l-1.27-2.452c-.13-.257-.45-.358-.71-.225l-1.14.59c-.37-.454-.78-.873-1.22-1.244l-.96-2.05v-6.77c0-.29-.24-.53-.53-.53H11.3c-.29 0-.522.23-.522.52v6.76l-.957 2.05c-1.91 1.58-3.14 3.98-3.14 6.66s1.23 5.07 3.14 6.66l.96 2.05v6.77c0 .29.24.52.53.52h8.06c.29 0 .53-.24.53-.53V64.7l.96-2.048c.45-.37.86-.79 1.22-1.242l1.14.588c.08.04.16.06.24.06.19 0 .38-.103.47-.283l1.27-2.45c.13-.258.03-.573-.23-.706zm-1.732-7.46l.786 1.523-.57.296c-.2-.54-.45-1.058-.75-1.54l.54-.278zM11.85 41.048h7.004v1.64H11.85v-1.64zm0 2.685h7.004v1.61H11.85v-1.61zm0 3.792l.53-1.136h5.942l.532 1.13v.57c-1.072-.48-2.255-.75-3.502-.75-1.248 0-2.43.27-3.503.74v-.58zm3.502.875c4.19 0 7.6 3.41 7.6 7.6s-3.41 7.6-7.6 7.6-7.6-3.41-7.6-7.6 3.41-7.6 7.6-7.6zM11.85 69.313h7.004v1.64H11.85v-1.64zm0-2.656h7.004v1.61H11.85v-1.61zm7.004-2.183l-.532 1.136h-5.94l-.533-1.135V63.9c1.07.476 2.25.747 3.5.747 1.24 0 2.43-.27 3.5-.748v.57zm4.38-3.64l-.545-.28c.3-.485.55-1 .75-1.54l.57.298-.79 1.523zm-7.88-11.764c-3.82 0-6.93 3.11-6.93 6.93s3.11 6.93 6.93 6.93 6.93-3.11 6.93-6.93-3.11-6.93-6.93-6.93zm0 12.812c-3.245 0-5.884-2.64-5.884-5.882 0-3.244 2.638-5.883 5.882-5.883 3.243 0 5.882 2.64 5.882 5.883s-2.64 5.882-5.882 5.882zm.522-7.156v-3.703c0-.29-.234-.523-.523-.523-.29 0-.524.234-.524.523v3.703c-.51.208-.87.707-.87 1.29 0 .227.05.44.15.63l-1.69 1.684c-.21.205-.21.536 0 .74.1.103.23.154.37.154s.27-.05.37-.153l1.73-1.73c.14.05.29.08.45.08.76 0 1.39-.62 1.39-1.39 0-.58-.36-1.08-.87-1.29zm-.523 1.637c-.192 0-.347-.155-.347-.346 0-.19.155-.347.347-.347.19 0 .346.156.346.347 0 .19-.16.346-.35.346zm0 3.218c-.29 0-.524.24-.524.53v.91c0 .29.23.53.52.53.29 0 .52-.23.52-.52v-.9c0-.29-.24-.52-.53-.52m4.99-4.09h-.91c-.29 0-.53.24-.53.52 0 .29.23.53.52.53h.9c.29 0 .52-.23.52-.52 0-.29-.24-.52-.53-.52m-9.08 0h-.91c-.29 0-.52.24-.52.53 0 .29.23.53.52.53h.9c.29 0 .52-.23.52-.52 0-.29-.24-.53-.53-.53" fill="#67737B"/><path d="M24.967 98.623l-1.21-.625c.152-.642.242-1.31.242-1.998 0-.69-.09-1.36-.24-2.002l1.2-.622c.12-.064.21-.174.26-.306.04-.132.03-.276-.04-.4l-1.27-2.452c-.13-.257-.45-.358-.71-.225l-1.14.59c-.37-.454-.78-.873-1.22-1.244l-.96-2.05v-6.77c0-.29-.24-.53-.53-.53H11.3c-.29 0-.522.23-.522.52v6.76l-.957 2.05c-1.91 1.58-3.14 3.98-3.14 6.66s1.23 5.07 3.14 6.66l.96 2.05v6.77c0 .29.24.52.53.52h8.06c.29 0 .53-.24.53-.53v-6.76l.96-2.05c.45-.37.86-.79 1.22-1.24l1.14.58c.08.04.16.06.24.06.19 0 .38-.11.47-.29l1.27-2.45c.13-.26.03-.58-.23-.71zm-1.732-7.46l.786 1.523-.57.296c-.2-.54-.45-1.058-.75-1.54l.54-.278zM11.85 81.048h7.004v1.64H11.85v-1.64zm0 2.685h7.004v1.61H11.85v-1.61zm0 3.792l.53-1.136h5.942l.532 1.13v.57c-1.072-.48-2.255-.75-3.502-.75-1.248 0-2.43.27-3.503.74v-.58zm3.502.875c4.19 0 7.6 3.41 7.6 7.6s-3.41 7.6-7.6 7.6-7.6-3.41-7.6-7.6 3.41-7.6 7.6-7.6zm-3.503 20.914h7v1.64h-7v-1.64zm0-2.656h7v1.61h-7v-1.61zm7-2.183l-.53 1.136h-5.94l-.54-1.13v-.57c1.07.48 2.25.75 3.5.75 1.24 0 2.43-.27 3.5-.74v.58zm4.38-3.64l-.55-.28c.3-.485.55-1 .75-1.54l.57.298-.79 1.523zM15.35 89.07c-3.82 0-6.93 3.11-6.93 6.93s3.11 6.93 6.93 6.93 6.93-3.11 6.93-6.93-3.11-6.93-6.93-6.93zm0 12.812c-3.243 0-5.882-2.64-5.882-5.882 0-3.244 2.637-5.883 5.88-5.883 3.244 0 5.883 2.64 5.883 5.883s-2.64 5.882-5.88 5.882zm.524-7.156v-3.703c0-.29-.234-.523-.523-.523-.29 0-.52.234-.52.523v3.703c-.51.208-.87.707-.87 1.29 0 .227.06.44.15.63l-1.68 1.684c-.2.205-.2.536 0 .74.11.103.24.154.37.154s.27-.05.37-.153l1.74-1.73c.14.05.29.08.45.08.77 0 1.4-.62 1.4-1.39 0-.58-.36-1.08-.87-1.29zm-.523 1.637c-.19 0-.34-.155-.34-.346 0-.19.16-.347.35-.347.19 0 .35.156.35.347 0 .19-.15.346-.34.346zm0 3.218c-.29 0-.52.24-.52.53v.91c0 .29.24.53.53.53.29 0 .53-.23.53-.52v-.9c0-.29-.23-.52-.52-.52m5-4.09h-.9c-.29 0-.52.24-.52.52 0 .29.23.53.52.53h.9c.29 0 .53-.23.53-.52 0-.29-.23-.52-.52-.52m-9.08 0h-.9c-.29 0-.522.24-.522.53 0 .29.23.53.52.53h.903c.29 0 .524-.23.524-.52 0-.29-.237-.53-.526-.53" fill="#fff"/><path d="M24.967 138.623l-1.21-.625c.152-.642.242-1.31.242-1.998 0-.69-.09-1.36-.24-2.002l1.2-.622c.12-.064.21-.174.26-.306.04-.132.03-.276-.04-.4l-1.27-2.452c-.13-.257-.45-.358-.71-.225l-1.14.59c-.37-.454-.78-.873-1.22-1.244l-.96-2.05v-6.77c0-.29-.24-.53-.53-.53H11.3c-.29 0-.522.23-.522.52v6.76l-.957 2.05c-1.91 1.58-3.14 3.98-3.14 6.66s1.23 5.07 3.14 6.66l.96 2.05v6.77c0 .29.24.52.53.52h8.06c.29 0 .52-.24.52-.53v-6.76l.96-2.05c.45-.37.86-.79 1.22-1.24l1.14.58c.08.04.16.06.24.06.19 0 .38-.11.47-.29l1.27-2.45c.14-.26.04-.58-.22-.71zm-1.732-7.46l.786 1.523-.57.296c-.2-.54-.45-1.058-.75-1.54l.54-.278zM11.85 121.048h7.004v1.64H11.85v-1.64zm0 2.685h7.004v1.61H11.85v-1.61zm0 3.792l.53-1.136h5.942l.532 1.13v.57c-1.072-.48-2.255-.75-3.502-.75-1.248 0-2.43.27-3.503.74v-.58zm3.502.875c4.19 0 7.6 3.41 7.6 7.6s-3.41 7.6-7.6 7.6-7.6-3.41-7.6-7.6 3.41-7.6 7.6-7.6zm-3.503 20.914h7v1.64h-7v-1.64zm0-2.656h7v1.61h-7v-1.61zm7-2.183l-.53 1.136h-5.94l-.54-1.13v-.57c1.07.48 2.25.75 3.5.75 1.24 0 2.43-.27 3.5-.74v.58zm4.38-3.64l-.55-.28c.3-.485.55-1 .75-1.54l.57.298-.79 1.523zm-7.88-11.765c-3.82 0-6.93 3.11-6.93 6.93s3.11 6.93 6.93 6.93 6.93-3.11 6.93-6.93-3.11-6.93-6.93-6.93zm0 12.812c-3.25 0-5.89-2.64-5.89-5.882 0-3.244 2.64-5.883 5.88-5.883 3.24 0 5.88 2.64 5.88 5.883s-2.64 5.882-5.88 5.882zm.52-7.156v-3.703c0-.29-.24-.523-.53-.523-.29 0-.52.234-.52.523v3.703c-.51.208-.87.707-.87 1.29 0 .227.05.44.15.63l-1.69 1.684c-.21.205-.21.536 0 .74.1.103.23.154.37.154s.27-.05.37-.153l1.73-1.73c.14.05.29.08.45.08.76 0 1.39-.62 1.39-1.39 0-.58-.36-1.08-.87-1.29zm-.53 1.637c-.19 0-.35-.155-.35-.346 0-.19.15-.347.34-.347.19 0 .34.156.34.347 0 .19-.16.346-.35.346zm0 3.218c-.29 0-.52.24-.52.53v.91c0 .29.23.53.52.53.29 0 .52-.23.52-.52v-.9c0-.29-.24-.52-.53-.52m4.99-4.08h-.91c-.29 0-.53.23-.53.52 0 .29.23.53.52.53h.9c.29 0 .52-.23.52-.52 0-.29-.24-.52-.53-.52m-9.08 0h-.91c-.29 0-.53.24-.53.53 0 .29.23.53.52.53h.902c.29 0 .52-.23.52-.52 0-.29-.237-.52-.526-.52" fill="#206FAC"/></g></svg>