<svg width="32" height="232" viewBox="0 0 32 232" xmlns="http://www.w3.org/2000/svg"><g fill="none"><path d="M7.07 6C3.17 6 0 9.17 0 13.07s3.17 7.07 7.07 7.07c3.898 0 7.07-3.173 7.07-7.07S10.967 6 7.07 6zm0 12.98c-3.26 0-5.91-2.652-5.91-5.91 0-3.26 2.65-5.91 5.91-5.91 3.258 0 5.91 2.65 5.91 5.91 0 3.258-2.652 5.91-5.91 5.91zm3.96 3.595H3.11c-.32 0-.58.26-.58.58v2.07c0 .32.26.58.58.58h7.92c.32 0 .58-.26.58-.58v-2.07c0-.32-.26-.58-.58-.58zm-7.34 1.16h6.758v.91H3.69v-.91zm25.2-1.16h-7.92c-.32 0-.58.26-.58.58v2.07c0 .32.26.58.58.58h7.92c.32 0 .58-.26.58-.58v-2.07c0-.32-.26-.58-.58-.58zm-7.34 1.16h6.76v.91h-6.76v-.91zM24.93 6c-3.898 0-7.07 3.17-7.07 7.07s3.172 7.07 7.07 7.07c3.9 0 7.07-3.173 7.07-7.07S28.83 6 24.93 6zm0 12.98c-3.258 0-5.91-2.652-5.91-5.91 0-3.26 2.652-5.91 5.91-5.91 3.26 0 5.91 2.65 5.91 5.91 0 3.258-2.65 5.91-5.91 5.91zM7.07 9.294c-.32 0-.58.26-.58.58V12.7l-3.302 1.56c-.29.138-.413.484-.277.773.1.21.31.332.53.332.09 0 .17-.018.25-.055l3.64-1.717c.21-.095.33-.3.33-.524v-3.2c0-.32-.26-.58-.58-.58zm18.404 3.572c-.03-.078-.074-.148-.133-.207l-2.79-2.81c-.22-.23-.59-.23-.82 0-.22.22-.23.59 0 .82l2.71 2.71 1.12 3.01c.09.23.31.38.55.38l.2-.04c.3-.11.45-.45.34-.75l-1.16-3.12z" fill="#3A434E"/><path d="M7.07 46C3.17 46 0 49.17 0 53.07s3.17 7.07 7.07 7.07c3.898 0 7.07-3.173 7.07-7.07S10.967 46 7.07 46zm0 12.98c-3.26 0-5.91-2.652-5.91-5.91 0-3.26 2.65-5.91 5.91-5.91 3.258 0 5.91 2.65 5.91 5.91 0 3.258-2.652 5.91-5.91 5.91zm3.96 3.595H3.11c-.32 0-.58.26-.58.58v2.07c0 .32.26.58.58.58h7.92c.32 0 .58-.26.58-.58v-2.07c0-.32-.26-.58-.58-.58zm-7.34 1.16h6.758v.91H3.69v-.91zm25.2-1.16h-7.92c-.32 0-.58.26-.58.58v2.07c0 .32.26.58.58.58h7.92c.32 0 .58-.26.58-.58v-2.07c0-.32-.26-.58-.58-.58zm-7.34 1.16h6.76v.91h-6.76v-.91zM24.93 46c-3.898 0-7.07 3.17-7.07 7.07s3.172 7.07 7.07 7.07c3.9 0 7.07-3.173 7.07-7.07S28.83 46 24.93 46zm0 12.98c-3.258 0-5.91-2.652-5.91-5.91 0-3.26 2.652-5.91 5.91-5.91 3.26 0 5.91 2.65 5.91 5.91 0 3.258-2.65 5.91-5.91 5.91zM7.07 49.294c-.32 0-.58.26-.58.58V52.7l-3.302 1.56c-.29.138-.413.484-.277.773.1.21.31.332.53.332.09 0 .17-.018.25-.055l3.64-1.717c.21-.095.33-.3.33-.524v-3.2c0-.32-.26-.58-.58-.58zm18.404 3.572c-.03-.078-.074-.148-.133-.207l-2.79-2.81c-.22-.23-.59-.23-.82 0-.22.22-.23.59 0 .82l2.71 2.71 1.12 3.01c.09.23.31.38.55.38l.2-.04c.3-.11.46-.45.34-.75l-1.16-3.13z" fill="#67737B"/><path d="M7.07 86C3.17 86 0 89.17 0 93.07s3.17 7.07 7.07 7.07c3.898 0 7.07-3.173 7.07-7.07S10.967 86 7.07 86zm0 12.98c-3.26 0-5.91-2.652-5.91-5.91 0-3.26 2.65-5.91 5.91-5.91 3.258 0 5.91 2.65 5.91 5.91 0 3.258-2.652 5.91-5.91 5.91zm3.96 3.595H3.11c-.32 0-.58.26-.58.58v2.07c0 .32.26.58.58.58h7.92c.32 0 .58-.26.58-.58v-2.07c0-.32-.26-.58-.58-.58zm-7.34 1.16h6.758v.91H3.69v-.91zm25.2-1.16h-7.92c-.32 0-.58.26-.58.58v2.07c0 .32.26.58.58.58h7.92c.32 0 .58-.26.58-.58v-2.07c0-.32-.26-.58-.58-.58zm-7.34 1.16h6.76v.91h-6.76v-.91zM24.93 86c-3.898 0-7.07 3.17-7.07 7.07s3.172 7.07 7.07 7.07c3.9 0 7.07-3.173 7.07-7.07S28.83 86 24.93 86zm0 12.98c-3.258 0-5.91-2.652-5.91-5.91 0-3.26 2.652-5.91 5.91-5.91 3.26 0 5.91 2.65 5.91 5.91 0 3.258-2.65 5.91-5.91 5.91zM7.07 89.294c-.32 0-.58.26-.58.58V92.7l-3.302 1.56c-.29.138-.413.484-.277.773.1.21.31.332.53.332.09 0 .17-.018.25-.055l3.64-1.717c.21-.095.33-.3.33-.524v-3.2c0-.32-.26-.58-.58-.58zm18.404 3.572c-.03-.078-.074-.148-.133-.207l-2.79-2.81c-.22-.23-.59-.23-.82 0-.22.22-.23.59 0 .82l2.71 2.71 1.12 3.01c.09.23.31.38.55.38l.2-.04c.3-.11.46-.45.34-.75l-1.16-3.13z" fill="#fff"/><path d="M7.07 126c-3.9 0-7.07 3.17-7.07 7.07s3.17 7.07 7.07 7.07c3.898 0 7.07-3.173 7.07-7.07S10.967 126 7.07 126zm0 12.98c-3.26 0-5.91-2.652-5.91-5.91 0-3.26 2.65-5.91 5.91-5.91 3.258 0 5.91 2.65 5.91 5.91 0 3.258-2.652 5.91-5.91 5.91zm3.96 3.595H3.11c-.32 0-.58.26-.58.58v2.07c0 .32.26.58.58.58h7.92c.32 0 .58-.26.58-.58v-2.07c0-.32-.26-.58-.58-.58zm-7.34 1.16h6.758v.91H3.69v-.91zm25.2-1.16h-7.92c-.32 0-.58.26-.58.58v2.07c0 .32.26.58.58.58h7.92c.32 0 .58-.26.58-.58v-2.07c0-.32-.26-.58-.58-.58zm-7.34 1.16h6.76v.91h-6.76v-.91zM24.93 126c-3.898 0-7.07 3.17-7.07 7.07s3.172 7.07 7.07 7.07c3.9 0 7.07-3.173 7.07-7.07S28.83 126 24.93 126zm0 12.98c-3.258 0-5.91-2.652-5.91-5.91 0-3.26 2.652-5.91 5.91-5.91 3.26 0 5.91 2.65 5.91 5.91 0 3.258-2.65 5.91-5.91 5.91zm-17.86-9.685c-.32 0-.58.26-.58.58v2.827l-3.302 1.56c-.29.137-.413.483-.277.772.1.21.31.332.53.332.09 0 .17-.018.25-.055l3.63-1.71c.21-.09.33-.3.33-.52v-3.19c0-.32-.26-.58-.58-.58zm18.404 3.572c-.03-.078-.074-.148-.133-.207l-2.79-2.805c-.22-.227-.59-.227-.82 0-.22.225-.23.592 0 .82l2.71 2.714 1.12 3c.09.23.31.38.55.38l.2-.04c.3-.12.46-.45.34-.75l-1.16-3.13z" fill="#206FAC"/></g></svg>