<svg width="32" height="232" viewBox="0 0 32 232" xmlns="http://www.w3.org/2000/svg"><g fill="none"><path d="M31.984 15.822l-.35-1.782c-.053-.267-.288-.46-.56-.46h-1.72V3.287h.153c.315 0 .57-.256.57-.57V.61c0-.315-.255-.57-.57-.57h-17.86c-.316 0-.572.255-.572.57v2.107c0 .315.256.57.57.57h.154v3.25h-.58c-.32 0-.58.255-.58.57 0 .316.25.572.57.572h.58v5.9h-1.72c-.28 0-.51.19-.56.46l-.35 1.78c-.04.16.01.34.12.47.11.13.27.21.44.21h.66c.16 2.93 1.57 5.54 3.7 7.3l-.58 7.54c-.01.16.04.31.15.43.11.11.26.18.42.18h12.97c.15 0 .31-.07.41-.19.11-.12.16-.27.15-.43l-.57-7.55c2.13-1.76 3.54-4.37 3.7-7.31h.66c.17 0 .33-.08.44-.21.11-.14.15-.31.12-.48zM21.07 23.564c2.532 0 4.84-1.39 6.024-3.63.148-.28.04-.626-.238-.773-.28-.14-.624-.04-.772.24-.986 1.87-2.907 3.03-5.014 3.03-.315 0-.57.26-.57.57 0 .32.255.57.57.57zM12.218 1.182h16.718v.964H12.218v-.964zm1.89 6.497c.183.27.497.45.853.45.57 0 1.03-.46 1.03-1.03s-.46-1.03-1.03-1.03c-.35 0-.67.18-.85.46h-1.17V3.29h15.28v10.205H12.95V7.68h1.165zm-3.558 7.04h20.054l.125.64H10.42l.126-.64zm15.895 16.1H14.708l.474-6.24c1.566.98 3.415 1.54 5.395 1.54 1.98 0 3.828-.57 5.394-1.55l.48 6.23zm-5.868-5.84c-4.804 0-8.747-3.76-9.043-8.49H29.62c-.296 4.73-4.24 8.49-9.043 8.49zM6.187 4.27h-3.59c-1.435 0-2.6 1.167-2.6 2.6s1.165 2.6 2.6 2.6h1.46v2.372c0 .315.253.57.57.57h3.59c.317 0 .57-.255.57-.57v-4.97c0-1.435-1.164-2.602-2.6-2.602zm0 1.143c.805 0 1.46.654 1.46 1.458v4.4h-2.45v-4.4c0-.54-.166-1.04-.45-1.45h1.44zm-4.163.117c.176-.075.37-.117.57-.117.204 0 .397.042.573.117.52.222.887.74.887 1.34s-.367 1.12-.887 1.342c-.176.075-.37.117-.572.117-.202 0-.395-.04-.57-.12-.522-.23-.888-.74-.888-1.34s.366-1.12.887-1.34zm.57 2.006c.244 0 .456-.13.573-.326.06-.1.094-.215.094-.34 0-.123-.03-.24-.09-.34-.11-.193-.33-.325-.57-.325-.24 0-.45.132-.57.326-.06.1-.09.22-.09.34 0 .13.04.24.1.34.12.2.33.33.57.33zm0-1.142c.264 0 .478.214.478.477s-.214.48-.477.48-.477-.21-.477-.47.214-.47.477-.47z" fill="#3A434E"/><path d="M31.984 55.822l-.35-1.782c-.053-.267-.288-.46-.56-.46h-1.72V43.287h.153c.315 0 .57-.256.57-.57V40.61c0-.315-.255-.57-.57-.57h-17.86c-.316 0-.572.255-.572.57v2.107c0 .315.256.57.57.57h.154v3.25h-.58c-.32 0-.58.255-.58.57 0 .316.25.572.57.572h.58v5.9h-1.72c-.28 0-.51.19-.56.46l-.35 1.78c-.04.16.01.34.12.47.11.13.27.21.44.21h.66c.16 2.93 1.57 5.54 3.7 7.3l-.58 7.54c-.01.16.04.31.15.43.11.11.26.18.42.18h12.97c.15 0 .31-.07.41-.19.11-.12.16-.27.15-.43l-.57-7.55c2.13-1.76 3.54-4.37 3.7-7.31h.66c.17 0 .33-.08.44-.21.11-.14.15-.31.12-.48zM21.07 63.564c2.532 0 4.84-1.39 6.024-3.63.148-.28.04-.626-.238-.773-.28-.14-.624-.04-.772.24-.986 1.87-2.907 3.03-5.014 3.03-.315 0-.57.26-.57.57 0 .32.255.57.57.57zm-8.852-22.382h16.718v.964H12.218v-.964zm1.89 6.497c.183.27.497.45.853.45.57 0 1.03-.46 1.03-1.03s-.46-1.03-1.03-1.03c-.35 0-.67.18-.85.46h-1.17v-3.25h15.28v10.21H12.95v-5.81h1.165zm-3.558 7.04h20.054l.125.64H10.42l.126-.64zm15.895 16.1H14.708l.474-6.24c1.566.98 3.415 1.54 5.395 1.54 1.98 0 3.828-.57 5.394-1.55l.48 6.23zm-5.868-5.84c-4.804 0-8.747-3.76-9.043-8.49H29.62c-.296 4.73-4.24 8.49-9.043 8.49zM6.187 44.27h-3.59c-1.435 0-2.6 1.167-2.6 2.6s1.165 2.6 2.6 2.6h1.46v2.372c0 .315.253.57.57.57h3.59c.317 0 .57-.255.57-.57v-4.97c0-1.435-1.164-2.602-2.6-2.602zm0 1.143c.805 0 1.46.654 1.46 1.458v4.4h-2.45v-4.4c0-.54-.166-1.04-.45-1.45h1.44zm-4.163.117c.176-.075.37-.117.57-.117.204 0 .397.042.573.117.52.222.887.74.887 1.34s-.367 1.12-.887 1.342c-.176.075-.37.117-.572.117-.202 0-.395-.04-.57-.12-.522-.23-.888-.74-.888-1.34s.366-1.12.887-1.34zm.57 2.006c.244 0 .456-.13.573-.326.06-.1.094-.215.094-.34 0-.123-.03-.24-.09-.34-.11-.193-.33-.325-.57-.325-.24 0-.45.132-.57.326-.06.1-.09.22-.09.34 0 .13.04.24.1.34.12.2.33.33.57.33zm0-1.142c.264 0 .478.214.478.477s-.214.48-.477.48-.477-.21-.477-.47.214-.47.477-.47z" fill="#67737B"/><path d="M31.984 95.822l-.35-1.782c-.053-.267-.288-.46-.56-.46h-1.72V83.287h.153c.315 0 .57-.256.57-.57V80.61c0-.315-.255-.57-.57-.57h-17.86c-.316 0-.572.255-.572.57v2.107c0 .315.256.57.57.57h.154v3.25h-.58c-.32 0-.58.255-.58.57 0 .316.25.572.57.572h.58v5.9h-1.72c-.28 0-.51.19-.56.46l-.35 1.78c-.04.16.01.34.12.47.11.13.27.21.44.21h.66c.16 2.93 1.57 5.54 3.7 7.3l-.58 7.54c-.01.16.04.31.15.43.11.11.26.18.42.18h12.97c.15 0 .31-.07.41-.19.11-.12.16-.27.15-.43l-.57-7.55c2.13-1.76 3.54-4.37 3.7-7.31h.66c.17 0 .33-.08.44-.21.11-.14.15-.31.12-.48zm-10.914 7.742c2.532 0 4.84-1.39 6.024-3.63.148-.28.04-.626-.238-.773-.28-.14-.624-.04-.772.24-.986 1.87-2.907 3.03-5.014 3.03-.315 0-.57.26-.57.57 0 .32.255.57.57.57zm-8.852-22.382h16.718v.964H12.218v-.964zm1.89 6.497c.183.27.497.45.853.45.57 0 1.03-.46 1.03-1.03s-.46-1.03-1.03-1.03c-.35 0-.67.18-.85.46h-1.17v-3.25h15.28v10.21H12.95v-5.81h1.165zm-3.558 7.04h20.054l.125.64H10.42l.126-.64zm15.895 16.1H14.708l.474-6.24c1.566.98 3.415 1.54 5.395 1.54 1.98 0 3.828-.57 5.394-1.55l.48 6.23zm-5.868-5.84c-4.804 0-8.747-3.76-9.043-8.49H29.62c-.296 4.73-4.24 8.49-9.043 8.49zM6.187 84.27h-3.59c-1.435 0-2.6 1.167-2.6 2.6s1.165 2.6 2.6 2.6h1.46v2.372c0 .315.253.57.57.57h3.59c.317 0 .57-.255.57-.57v-4.97c0-1.435-1.164-2.602-2.6-2.602zm0 1.143c.805 0 1.46.654 1.46 1.458v4.4h-2.45v-4.4c0-.54-.166-1.04-.45-1.45h1.44zm-4.163.117c.176-.075.37-.117.57-.117.204 0 .397.042.573.117.52.222.887.74.887 1.34s-.367 1.12-.887 1.342c-.176.075-.37.117-.572.117-.202 0-.395-.04-.57-.12-.522-.23-.888-.74-.888-1.34s.366-1.12.887-1.34zm.57 2.006c.244 0 .456-.13.573-.326.06-.1.094-.215.094-.34 0-.123-.03-.24-.09-.34-.11-.193-.33-.325-.57-.325-.24 0-.45.132-.57.326-.06.1-.09.22-.09.34 0 .13.04.24.1.34.12.2.33.33.57.33zm0-1.142c.264 0 .478.214.478.477s-.214.48-.477.48-.477-.21-.477-.47.214-.47.477-.47z" fill="#fff"/><path d="M31.984 135.822l-.35-1.782c-.053-.267-.288-.46-.56-.46h-1.72v-10.292h.153c.315 0 .57-.256.57-.57v-2.107c0-.31-.255-.57-.57-.57h-17.86c-.316 0-.572.26-.572.57v2.11c0 .32.256.57.57.57h.154v3.25h-.58c-.32 0-.58.26-.58.57 0 .32.25.57.57.57h.58v5.9h-1.72c-.28 0-.51.2-.56.46l-.35 1.79c-.04.17.01.34.12.48.11.13.27.21.44.21h.66c.16 2.94 1.57 5.55 3.7 7.31l-.58 7.55c-.01.16.04.32.15.44.11.12.26.18.42.18h12.97c.15 0 .31-.06.41-.18.11-.12.16-.27.15-.43l-.57-7.54c2.13-1.76 3.54-4.37 3.7-7.3h.66c.17 0 .33-.074.44-.21.11-.13.15-.302.12-.47zm-10.914 7.742c2.532 0 4.84-1.39 6.024-3.63.148-.28.04-.626-.238-.773-.28-.14-.624-.04-.772.24-.986 1.87-2.907 3.03-5.014 3.03-.315 0-.57.26-.57.57 0 .32.255.57.57.57zm-8.852-22.382h16.718v.964H12.218v-.964zm1.89 6.497c.183.27.497.45.853.45.57 0 1.03-.46 1.03-1.03s-.46-1.03-1.03-1.03c-.35 0-.67.18-.85.46h-1.17v-3.25h15.28v10.2H12.95v-5.82h1.165zm-3.558 7.04h20.054l.125.64H10.42l.126-.64zm15.895 16.1H14.708l.474-6.24c1.566.98 3.415 1.54 5.395 1.54 1.98 0 3.828-.57 5.394-1.55l.48 6.23zm-5.868-5.84c-4.804 0-8.747-3.76-9.043-8.49H29.62c-.296 4.73-4.24 8.49-9.043 8.49zm-14.39-20.72h-3.59c-1.435 0-2.6 1.16-2.6 2.6s1.165 2.6 2.6 2.6h1.46v2.37c0 .31.253.57.57.57h3.59c.317 0 .57-.26.57-.57v-4.97c0-1.44-1.164-2.61-2.6-2.61zm0 1.14c.805 0 1.46.65 1.46 1.46v4.4h-2.45v-4.4c0-.54-.166-1.04-.45-1.46h1.44zm-4.163.11c.176-.08.37-.12.57-.12.204 0 .397.04.573.11.52.22.887.74.887 1.34s-.367 1.12-.887 1.34c-.176.07-.37.11-.572.11-.202 0-.395-.04-.57-.12-.522-.23-.888-.74-.888-1.34s.366-1.12.887-1.35zm.57 2.01c.244 0 .456-.13.573-.33.06-.1.094-.22.094-.34 0-.13-.03-.24-.09-.34-.11-.2-.33-.33-.57-.33-.24 0-.45.13-.57.32-.06.1-.09.22-.09.34 0 .12.04.24.1.34.12.19.33.33.57.33zm0-1.14c.264 0 .478.21.478.47s-.214.48-.477.48-.477-.22-.477-.48.214-.48.477-.48z" fill="#206FAC"/></g></svg>