<svg width="32" height="232" viewBox="0 0 32 232" xmlns="http://www.w3.org/2000/svg"><g fill="none"><path d="M23.84 27.47h1.66c.622 0 1.128-.506 1.128-1.128v-8.245c.205-.07.354-.264.354-.494 0-.23-.15-.423-.354-.493V3.796c0-.612-.49-1.112-1.1-1.127l-7.934-.74c-.06-1.05-.928-1.88-1.99-1.88-1.067 0-1.94.84-1.99 1.9l-7.807.71c-.61.01-1.1.51-1.1 1.12V17.1c-.207.07-.356.264-.356.493 0 .23.15.422.36.493v8.245c0 .62.51 1.13 1.13 1.13H7.5L4.47 31.2c-.18.226-.146.556.078.738.097.08.214.117.33.117.152 0 .304-.066.407-.193l1.28-1.58h18.207l1.28 1.58c.105.127.256.193.41.193.115 0 .23-.038.328-.117.225-.182.26-.512.077-.736L23.84 27.47zm1.742-1.128c0 .044-.036.08-.08.08h-9.33V24.31l9.41-.765v2.797zm0-11.538h-4.23c-1.334 0-2.44.99-2.622 2.275h-2.537v-2.21l9.39-1.94v1.87zm-.082 1.048v1.076h-5.66c.216-.626.812-1.076 1.51-1.076h4.15zm.082-3.99l-9.39 1.938V6.872h9.39v4.99zm-9.976-10.76c.523 0 .948.426.948.95 0 .52-.425.946-.948.946-.522 0-.947-.425-.947-.947s.42-.94.94-.94zm-9.85 2.694l.08-.08h.048l7.96-.73c.337.63 1 1.06 1.762 1.06.77 0 1.438-.44 1.77-1.08l8.078.748.048.003c.044 0 .08.035.08.08v2.028H5.757v-2.03zm0 3.076h9.39V13.8l-9.39-1.937v-4.99zm0 6.06l9.39 1.938v2.21H12.61c-.184-1.285-1.29-2.276-2.624-2.276h-4.23v-1.87zM11.5 16.93H5.84v-1.076h4.147c.7 0 1.295.45 1.513 1.076zm11.247 4.904c.837 0 1.52-.68 1.52-1.52 0-.837-.683-1.518-1.52-1.518-.838 0-1.52.68-1.52 1.52 0 .837.682 1.518 1.52 1.518zm0-1.99c.26 0 .47.21.47.47s-.21.472-.47.472-.472-.21-.472-.47.212-.473.472-.473zm-14.155-1.05c-.838 0-1.52.68-1.52 1.52 0 .836.682 1.517 1.52 1.517s1.52-.68 1.52-1.52c0-.83-.682-1.51-1.52-1.51zm0 1.99c-.26 0-.472-.21-.472-.47s.212-.474.472-.474.47.213.47.473-.21.47-.47.47zm-2.835-2.658h19.825v4.367l-9.913.806-9.92-.81v-4.37zm.08 8.295c-.044 0-.08-.03-.08-.08v-2.79l9.367.77v2.12H5.836zm1.58 2.82l1.43-1.76H22.49l1.432 1.77H7.416z" fill="#3A434E"/><path d="M23.84 67.47h1.66c.622 0 1.128-.506 1.128-1.128v-8.245c.205-.07.354-.264.354-.494 0-.23-.15-.423-.354-.493V43.796c0-.612-.49-1.112-1.1-1.127l-7.934-.74c-.06-1.05-.928-1.88-1.99-1.88-1.067 0-1.94.84-1.99 1.9l-7.807.71c-.61.01-1.1.51-1.1 1.12V57.1c-.207.07-.356.264-.356.493 0 .23.15.422.36.493v8.245c0 .63.51 1.13 1.13 1.13H7.5L4.47 71.2c-.18.226-.146.556.078.738.097.08.214.117.33.117.152 0 .304-.066.407-.193l1.28-1.58h18.207l1.28 1.58c.105.127.256.193.41.193.115 0 .23-.038.328-.117.225-.182.26-.512.077-.736L23.84 67.47zm1.742-1.128c0 .044-.036.08-.08.08h-9.33V64.31l9.41-.765v2.797zm0-11.538h-4.23c-1.334 0-2.44.99-2.622 2.275h-2.537v-2.21l9.39-1.94v1.87zm-.082 1.048v1.076h-5.66c.216-.626.812-1.076 1.51-1.076h4.15zm.082-3.99l-9.39 1.938v-6.928h9.39v4.99zm-9.976-10.76c.523 0 .948.426.948.95 0 .52-.425.946-.948.946-.522 0-.947-.425-.947-.947s.42-.94.94-.94zm-9.85 2.694l.08-.08h.048l7.96-.73c.337.63 1 1.06 1.762 1.06.77 0 1.438-.44 1.77-1.08l8.078.748.048.003c.044 0 .08.035.08.08v2.028H5.757v-2.03zm0 3.076h9.39V53.8l-9.39-1.937v-4.99zm0 6.06l9.39 1.938v2.21H12.61c-.184-1.285-1.29-2.276-2.624-2.276h-4.23v-1.87zM11.5 56.93H5.84v-1.076h4.147c.7 0 1.295.45 1.513 1.076zm11.247 4.904c.837 0 1.52-.68 1.52-1.52 0-.837-.683-1.518-1.52-1.518-.838 0-1.52.68-1.52 1.52 0 .837.682 1.518 1.52 1.518zm0-1.99c.26 0 .47.21.47.47s-.21.472-.47.472-.472-.21-.472-.47.212-.473.472-.473zm-14.155-1.05c-.838 0-1.52.68-1.52 1.52 0 .836.682 1.517 1.52 1.517s1.52-.68 1.52-1.52c0-.83-.682-1.51-1.52-1.51zm0 1.99c-.26 0-.472-.21-.472-.47s.212-.474.472-.474.47.213.47.473-.21.47-.47.47zm-2.835-2.658h19.825v4.367l-9.913.806-9.92-.81v-4.37zm.08 8.295c-.044 0-.08-.03-.08-.08v-2.79l9.367.77v2.12H5.836zm1.58 2.82l1.43-1.76H22.49l1.432 1.77H7.416z" fill="#67737B"/><path d="M23.84 107.47h1.66c.622 0 1.128-.506 1.128-1.128v-8.245c.205-.07.354-.264.354-.494 0-.23-.15-.423-.354-.493V83.796c0-.612-.49-1.112-1.1-1.127l-7.934-.74c-.06-1.05-.928-1.88-1.99-1.88-1.067 0-1.94.84-1.99 1.9l-7.807.71c-.61.01-1.1.51-1.1 1.12V97.1c-.207.07-.356.264-.356.493 0 .23.15.422.36.493v8.245c0 .63.51 1.13 1.13 1.13H7.5l-3.03 3.73c-.18.22-.146.55.078.73.097.08.214.12.33.12.152 0 .304-.06.407-.19l1.28-1.58h18.207l1.28 1.58c.105.13.256.2.41.2.115 0 .23-.03.328-.11.225-.18.26-.51.077-.73l-3.028-3.73zm1.742-1.128c0 .044-.036.08-.08.08h-9.33v-2.112l9.41-.765v2.797zm0-11.538h-4.23c-1.334 0-2.44.99-2.622 2.275h-2.537v-2.21l9.39-1.94v1.87zm-.082 1.048v1.076h-5.66c.216-.626.812-1.076 1.51-1.076h4.15zm.082-3.99l-9.39 1.938v-6.928h9.39v4.99zm-9.976-10.76c.523 0 .948.426.948.95 0 .52-.425.946-.948.946-.522 0-.947-.425-.947-.947s.42-.94.94-.94zm-9.85 2.694l.08-.08h.048l7.96-.73c.337.63 1 1.06 1.762 1.06.77 0 1.438-.44 1.77-1.08l8.078.748.048.003c.044 0 .08.035.08.08v2.028H5.757v-2.03zm0 3.076h9.39V93.8l-9.39-1.937v-4.99zm0 6.06l9.39 1.938v2.21H12.61c-.184-1.285-1.29-2.276-2.624-2.276h-4.23v-1.87zM11.5 96.93H5.84v-1.076h4.147c.7 0 1.295.45 1.513 1.076zm11.247 4.904c.837 0 1.52-.68 1.52-1.52 0-.837-.683-1.518-1.52-1.518-.838 0-1.52.68-1.52 1.52 0 .837.682 1.518 1.52 1.518zm0-1.99c.26 0 .47.21.47.47s-.21.472-.47.472-.472-.21-.472-.47.212-.473.472-.473zm-14.155-1.05c-.838 0-1.52.68-1.52 1.52 0 .836.682 1.517 1.52 1.517s1.52-.68 1.52-1.52c0-.83-.682-1.51-1.52-1.51zm0 1.99c-.26 0-.472-.21-.472-.47s.212-.474.472-.474.47.213.47.473-.21.47-.47.47zm-2.835-2.658h19.825v4.367l-9.913.806-9.92-.81v-4.37zm.08 8.295c-.044 0-.08-.03-.08-.08v-2.79l9.367.76v2.12H5.836zm1.58 2.82l1.43-1.76H22.49l1.432 1.77H7.416z" fill="#fff"/><path d="M23.84 147.47h1.66c.622 0 1.128-.506 1.128-1.128v-8.245c.205-.07.354-.264.354-.494 0-.23-.15-.423-.354-.493v-13.314c0-.612-.49-1.112-1.1-1.127l-7.934-.74c-.06-1.05-.928-1.88-1.99-1.88-1.067 0-1.94.84-1.99 1.9l-7.807.71c-.61.01-1.1.51-1.1 1.12v13.32c-.207.07-.356.26-.356.49 0 .23.15.42.36.49v8.24c0 .62.51 1.12 1.13 1.12H7.5l-3.03 3.73c-.18.22-.146.55.078.74.097.08.214.12.33.12.152 0 .304-.07.407-.2l1.28-1.58h18.207l1.28 1.58c.105.12.256.19.41.19.115 0 .23-.04.328-.12.225-.18.26-.51.077-.74l-3.028-3.74zm1.742-1.128c0 .044-.036.08-.08.08h-9.33v-2.112l9.41-.765v2.797zm0-11.538h-4.23c-1.334 0-2.44.99-2.622 2.275h-2.537v-2.21l9.39-1.94v1.87zm-.082 1.048v1.076h-5.66c.216-.626.812-1.076 1.51-1.076h4.15zm.082-3.99l-9.39 1.938v-6.928h9.39v4.99zm-9.976-10.76c.523 0 .948.426.948.95 0 .52-.425.946-.948.946-.522 0-.947-.425-.947-.947s.42-.94.94-.94zm-9.85 2.694l.08-.08h.048l7.96-.73c.337.63 1 1.06 1.762 1.06.77 0 1.438-.44 1.77-1.08l8.078.748.048.003c.044 0 .08.035.08.08v2.028H5.757v-2.03zm0 3.076h9.39v6.928l-9.39-1.937v-4.99zm0 6.06l9.39 1.938v2.21H12.61c-.184-1.285-1.29-2.276-2.624-2.276h-4.23v-1.87zm5.744 3.996H5.84v-1.076h4.147c.7 0 1.295.45 1.513 1.076zm11.247 4.904c.837 0 1.52-.68 1.52-1.52 0-.837-.683-1.518-1.52-1.518-.838 0-1.52.68-1.52 1.52 0 .837.682 1.518 1.52 1.518zm0-1.99c.26 0 .47.21.47.47s-.21.472-.47.472-.472-.21-.472-.47.212-.473.472-.473zm-14.155-1.048c-.838 0-1.52.68-1.52 1.52 0 .837.682 1.518 1.52 1.518s1.52-.68 1.52-1.52c0-.837-.682-1.518-1.52-1.518zm0 1.99c-.26 0-.472-.21-.472-.47s.212-.473.472-.473.47.22.47.48-.21.47-.47.47zm-2.835-2.657h19.825v4.367l-9.913.806-9.92-.806v-4.367zm.08 8.295c-.044 0-.08-.036-.08-.08v-2.797l9.367.762v2.115H5.836zm1.58 2.813l1.43-1.766H22.49l1.432 1.76H7.416z" fill="#206FAC"/></g></svg>