<svg width="32" height="232" viewBox="0 0 32 232" xmlns="http://www.w3.org/2000/svg"><g fill="none"><path d="M27.987 29.22l-3.725-3.665 3.047-.392.02-.005.04-.01.07-.022.03-.012.07-.042.02-.012.07-.065v-.004c.1-.1.16-.24.16-.39v-3.25c0-.16-.07-.3-.17-.4L26.8 3.34c-.01-.224-.155-.42-.37-.503-.06-.02-1.47-.56-3.675-1.054v-.01c0-.314-.26-.57-.58-.57H9.42c-.32 0-.58.257-.58.57v.015c-2.206.493-3.614 1.027-3.677 1.05-.214.08-.358.28-.37.504l-.83 17.612c-.106.107-.174.25-.174.41v3.25c0 .15.06.283.16.39v.005l.07.06.01.01.08.04.02.01.08.02h.03l2.96.5-3.6 3.56c-.23.22-.23.58 0 .8.11.11.26.162.41.162.14 0 .29-.06.41-.17l1.4-1.38h19.93L27.15 30c.11.11.26.17.41.17.15 0 .29-.06.41-.17.22-.22.23-.58 0-.803zM5.765 7.433h1.42L7.03 14.74c-.003.2.1.386.275.492.17.104 4.052 2.442 7.934 2.665l-.01 2.877H5.13L5.76 7.43zm17.493 0l.148 6.998c-.986.56-4.418 2.35-7.586 2.35-3.17 0-6.627-1.79-7.62-2.35l.15-6.99h14.908zM4.982 24.03l.1-2.118h10.153l-.003 2.12H4.982zm11.414-2.118h10.128l.1 2.12h-10.23l.002-2.12zm10.074-1.136H16.397L16.4 17.9c3.882-.223 7.732-2.563 7.903-2.667.172-.107.276-.294.27-.493l-.154-7.306h1.42l.63 13.343zm-6.517 4.392l-4.148.817-4.762-.817h8.91zm-9.95-22.842h11.6v2.05h-11.6v-2.05zm-1.16.614v2.006c0 .314.26.568.58.568h12.76c.32 0 .582-.255.582-.568V2.934c1.368.318 2.396.648 2.903.822l.12 2.542H5.818l.12-2.54c.506-.173 1.536-.5 2.903-.818zm-1.85 24.57l1.63-1.603 7.088 1.216.1.01.12-.013 6.91-1.36 1.78 1.75H7zm18.195-5.134h-2.67c-.32 0-.58.254-.58.568 0 .314.258.568.58.568h2.67c.32 0 .58-.255.58-.568 0-.314-.26-.568-.58-.568zm-16.104 0h-2.67c-.32 0-.58.254-.58.568 0 .314.26.568.58.568h2.67c.32 0 .58-.255.58-.568 0-.314-.26-.568-.58-.568zm12.795-4.02c0 .87.72 1.577 1.61 1.577.88 0 1.61-.707 1.61-1.576 0-.87-.73-1.576-1.61-1.576-.89 0-1.61.71-1.61 1.58zm2.06 0c0 .243-.21.44-.45.44-.25 0-.45-.197-.45-.44s.2-.44.45-.44c.24 0 .45.2.45.44zM8.11 16.782c-.888 0-1.61.708-1.61 1.577 0 .87.722 1.57 1.61 1.57.887 0 1.61-.71 1.61-1.58 0-.87-.723-1.58-1.61-1.58zm0 2.016c-.248 0-.45-.198-.45-.44s.202-.44.45-.44c.247 0 .448.198.448.44s-.2.44-.446.44z" fill="#3A434E"/><path d="M27.987 69.22l-3.725-3.665 3.047-.392.02-.005.04-.01.07-.022.03-.012.07-.042.02-.012.07-.065v-.004c.1-.1.16-.24.16-.39v-3.25c0-.16-.07-.3-.17-.4l-.82-17.61c-.01-.22-.16-.42-.37-.5-.06-.02-1.47-.56-3.68-1.05v-.01c0-.31-.26-.57-.58-.57H9.42c-.32 0-.58.26-.58.57v.02c-2.206.49-3.614 1.03-3.677 1.05-.214.08-.358.28-.37.51l-.83 17.62c-.106.1-.174.25-.174.41v3.25c0 .15.06.29.16.39v.01l.07.06.01.01.08.05.02.01.08.03.02.01h.01l2.96.5-3.6 3.54c-.23.225-.23.585 0 .806.11.11.26.17.41.17.14 0 .29-.057.41-.17l1.4-1.377h19.93l1.4 1.38c.11.11.26.17.41.17.15 0 .29-.06.41-.17.22-.22.23-.58 0-.8zM5.765 47.433h1.42L7.03 54.74c-.003.2.1.386.275.492.17.104 4.052 2.442 7.934 2.665l-.01 2.877H5.13l.63-13.343zm17.493 0l.148 6.998c-.986.56-4.418 2.35-7.586 2.35-3.17 0-6.627-1.79-7.62-2.35l.15-6.99h14.908zM4.982 64.03l.1-2.118h10.153l-.003 2.12H4.982zm11.414-2.118h10.128l.1 2.12h-10.23l.002-2.12zm10.074-1.136H16.397L16.4 57.9c3.882-.223 7.732-2.563 7.903-2.667.172-.107.276-.294.27-.493l-.154-7.306h1.42l.63 13.343zm-6.517 4.392l-4.148.817-4.762-.817h8.91zm-9.95-22.842h11.6v2.05h-11.6v-2.05zm-1.16.614v2.006c0 .314.26.568.58.568h12.76c.32 0 .582-.255.582-.568v-2.012c1.368.318 2.396.648 2.903.822l.12 2.542H5.818l.12-2.54c.506-.173 1.536-.5 2.903-.818zm-1.85 24.57l1.63-1.603 7.088 1.216.1.01.12-.013 6.91-1.36 1.78 1.75H7zm18.195-5.134h-2.67c-.32 0-.58.254-.58.568 0 .314.258.568.58.568h2.67c.32 0 .58-.255.58-.568 0-.314-.26-.568-.58-.568zm-16.104 0h-2.67c-.32 0-.58.254-.58.568 0 .314.26.568.58.568h2.67c.32 0 .58-.255.58-.568 0-.314-.26-.568-.58-.568zm12.795-4.02c0 .87.72 1.577 1.61 1.577.88 0 1.61-.707 1.61-1.576 0-.87-.73-1.576-1.61-1.576-.89 0-1.61.71-1.61 1.58zm2.06 0c0 .243-.21.44-.45.44-.25 0-.45-.197-.45-.44s.2-.44.45-.44c.24 0 .45.2.45.44zM8.11 56.782c-.888 0-1.61.708-1.61 1.577 0 .87.722 1.57 1.61 1.57.887 0 1.61-.71 1.61-1.58 0-.87-.723-1.58-1.61-1.58zm0 2.017c-.248 0-.45-.2-.45-.44s.202-.44.45-.44c.247 0 .448.19.448.44s-.2.44-.446.44z" fill="#67737B"/><path d="M27.987 109.22l-3.725-3.665 3.047-.392.02-.005.04-.01.07-.022.03-.012.07-.042.02-.012.07-.065v-.004c.1-.1.16-.24.16-.39v-3.25c0-.16-.07-.3-.17-.4l-.83-17.61c-.01-.22-.16-.42-.37-.5-.06-.02-1.47-.56-3.68-1.05v-.01c0-.31-.26-.57-.58-.57H9.42c-.32 0-.58.26-.58.57v.02c-2.206.49-3.614 1.03-3.677 1.05-.214.08-.358.28-.37.51l-.83 17.62c-.106.1-.174.25-.174.41v3.26c0 .15.06.287.16.39v.01l.07.06.01.01.08.047.02.01.08.02.02.005h.01l2.96.51-3.62 3.553c-.23.22-.23.58 0 .8.11.11.26.164.41.164.14 0 .29-.06.41-.17l1.4-1.38h19.93l1.4 1.38c.11.11.26.17.41.17.15 0 .29-.06.41-.17.22-.22.23-.58 0-.804zM5.765 87.433h1.42L7.03 94.74c-.003.2.1.386.275.492.17.104 4.052 2.442 7.934 2.665l-.01 2.877H5.13l.63-13.343zm17.493 0l.148 6.998c-.986.56-4.418 2.35-7.586 2.35-3.17 0-6.627-1.79-7.62-2.35l.15-6.99h14.908zM4.982 104.03l.1-2.118h10.153l-.003 2.12H4.982zm11.414-2.118h10.128l.1 2.12h-10.23l.002-2.12zm10.074-1.136H16.397L16.4 97.9c3.882-.223 7.732-2.563 7.903-2.667.172-.107.276-.294.27-.493l-.154-7.306h1.42l.63 13.343zm-6.517 4.392l-4.148.817-4.762-.817h8.91zm-9.95-22.842h11.6v2.05h-11.6v-2.05zm-1.16.614v2.006c0 .314.26.568.58.568h12.76c.32 0 .582-.255.582-.568v-2.012c1.368.318 2.396.648 2.903.822l.12 2.542H5.818l.12-2.54c.506-.173 1.536-.5 2.903-.818zm-1.848 24.57l1.63-1.603 7.087 1.216.1.01.115-.013 6.906-1.36 1.78 1.75H6.995zm18.194-5.134h-2.67c-.32 0-.58.254-.58.568 0 .314.25.568.58.568h2.67c.32 0 .58-.255.58-.568 0-.314-.26-.568-.58-.568zm-16.11 0H6.41c-.32 0-.58.254-.58.568 0 .314.26.568.58.568h2.67c.32 0 .58-.255.58-.568 0-.314-.26-.568-.58-.568zm12.79-4.02c0 .87.72 1.577 1.61 1.577.88 0 1.61-.707 1.61-1.576 0-.87-.73-1.576-1.61-1.576-.89 0-1.61.71-1.61 1.58zm2.06 0c0 .243-.21.44-.45.44-.25 0-.45-.197-.45-.44s.2-.44.45-.44c.24 0 .45.2.45.44zM8.11 96.782c-.89 0-1.61.708-1.61 1.577 0 .87.72 1.57 1.61 1.57.887 0 1.61-.71 1.61-1.58 0-.87-.723-1.58-1.61-1.58zm0 2.016c-.25 0-.45-.198-.45-.44s.2-.44.45-.44c.247 0 .448.198.448.44s-.2.44-.446.44z" fill="#fff"/><path d="M27.987 149.22l-3.725-3.665 3.047-.392.02-.005.04-.01.07-.022.03-.012.07-.042.02-.012.07-.065v-.004c.1-.1.16-.24.16-.39v-3.25c0-.16-.07-.3-.17-.4l-.83-17.61c-.01-.22-.16-.42-.37-.5-.06-.02-1.47-.56-3.68-1.05v-.01c0-.31-.26-.57-.58-.57H9.42c-.32 0-.58.26-.58.57v.02c-2.206.49-3.614 1.03-3.677 1.05-.214.08-.358.28-.37.51l-.83 17.62c-.106.1-.174.25-.174.41v3.26c0 .15.06.287.16.39v.01l.07.06.01.01.08.047.02.01.08.02.02.005h.01l2.96.51-3.62 3.553c-.23.22-.23.58 0 .8.11.11.26.164.41.164.14 0 .29-.06.41-.17l1.4-1.38h19.93l1.4 1.38c.11.11.26.17.41.17.15 0 .29-.06.41-.17.22-.22.23-.58 0-.804zM5.765 127.433h1.42l-.154 7.306c0 .2.1.38.28.49.17.1 4.05 2.44 7.94 2.66v2.87H5.14l.63-13.35zm17.493 0l.148 6.998c-.986.56-4.418 2.35-7.586 2.35-3.17 0-6.627-1.79-7.62-2.35l.15-6.99h14.908zM4.982 144.03l.1-2.118h10.153l-.003 2.12H4.982zm11.414-2.118h10.128l.1 2.12h-10.23l.002-2.12zm10.074-1.136H16.397l.004-2.877c3.89-.23 7.74-2.57 7.91-2.67.17-.11.28-.3.27-.5l-.15-7.31h1.42l.63 13.34zm-6.517 4.392l-4.148.817-4.762-.817h8.91zm-9.95-22.842h11.6v2.05h-11.6v-2.05zm-1.16.614v2.006c0 .314.26.568.58.568h12.76c.32 0 .582-.255.582-.568v-2.012c1.368.318 2.396.648 2.903.822l.12 2.542H5.818l.12-2.54c.506-.173 1.536-.5 2.903-.818zm-1.848 24.57l1.63-1.603 7.087 1.216.1.01.115-.013 6.906-1.36 1.78 1.75H6.995zm18.194-5.134h-2.67c-.32 0-.58.254-.58.568 0 .314.25.568.58.568h2.67c.32 0 .58-.255.58-.568 0-.314-.26-.568-.58-.568zm-16.11 0H6.41c-.32 0-.58.254-.58.568 0 .314.26.568.58.568h2.67c.32 0 .58-.255.58-.568 0-.314-.26-.568-.58-.568zm12.79-4.02c0 .87.72 1.577 1.61 1.577.88 0 1.61-.707 1.61-1.576 0-.87-.73-1.576-1.61-1.576-.89 0-1.61.71-1.61 1.58zm2.06 0c0 .243-.21.44-.45.44-.25 0-.45-.197-.45-.44s.2-.44.45-.44c.24 0 .45.2.45.44zM8.11 136.78c-.89 0-1.61.71-1.61 1.578 0 .87.72 1.576 1.61 1.576.887 0 1.61-.707 1.61-1.576 0-.87-.723-1.576-1.61-1.576zm0 2.018c-.25 0-.45-.198-.45-.44s.2-.44.45-.44c.247 0 .448.198.448.44s-.2.44-.446.44z" fill="#206FAC"/></g></svg>