<svg width="32" height="232" viewBox="0 0 32 232" xmlns="http://www.w3.org/2000/svg"><g fill="none"><path d="M31.445 8.678h-1.522v-3.92c0-.168-.075-.326-.205-.43-.13-.107-.3-.148-.463-.114L15.318 7.096C13.293 5.1 10.615 4 7.768 4 4.895 4 2.194 5.12.163 7.15.06 7.256 0 7.397 0 7.544v19.41l.01.1.007.03.02.066.012.028.04.083v.01l.05.07.02.02.05.05.02.02.07.04.01.01.09.03.03.01.07.01h30.91c.3 0 .55-.24.55-.55V9.24c0-.31-.25-.56-.56-.56zm-15.908-.493L28.813 5.44v18.077l-13.276 2.745V8.185zM1.11 7.777C2.913 6.057 5.268 5.11 7.768 5.11c2.483 0 4.82.933 6.618 2.63v17.946c-1.882-1.476-4.188-2.277-6.618-2.277-2.446 0-4.768.81-6.658 2.3V7.77zm12.372 18.62H2.048c1.647-1.22 3.633-1.877 5.72-1.877 2.085 0 4.067.66 5.714 1.877zm17.408 0H20.366l9.114-1.885c.258-.053.443-.28.443-.543V9.78h.967v16.61zM12.828 23.77c.078.037.16.056.244.056.102 0 .204-.028.294-.084.162-.102.26-.28.26-.47V8.38c0-.164-.072-.32-.198-.426-1.58-1.32-3.59-2.046-5.66-2.046-2.07 0-4.08.727-5.66 2.046-.125.106-.198.262-.198.426v14.89c0 .19.098.368.26.47.163.1.366.112.538.028 1.578-.77 3.28-1.16 5.06-1.16 1.78 0 3.483.39 5.06 1.16zM3.02 8.647c1.362-1.065 3-1.627 4.748-1.627 1.75 0 3.386.562 4.75 1.627v13.77c-1.503-.61-3.096-.917-4.75-.917-1.653 0-3.247.308-4.748.916V8.646zm19.77 9.222c-.13-.11-.302-.15-.466-.12l-5.28 1.11c-.257.05-.44.28-.44.54v4.31c0 .16.075.32.205.43.1.08.22.12.35.12l.11-.02 5.28-1.12c.25-.06.44-.28.44-.55v-4.3c0-.17-.08-.33-.21-.43zm-.906 4.29l-4.17.88v-3.18l4.17-.88v3.18zm2.85-14.68c-.306 0-.555.25-.555.55v14.03c0 .3.24.55.55.55.3 0 .55-.25.55-.56V8.03c0-.303-.25-.55-.56-.55zm2.13-.5c-.307 0-.555.25-.555.55v14.03c0 .3.24.55.55.55.3 0 .55-.25.55-.56V7.54c0-.306-.25-.554-.56-.554zm-8.432 10.04c.306 0 .555-.25.555-.56V9.67c0-.306-.25-.555-.555-.555-.307 0-.556.25-.556.556v6.8c0 .31.25.55.556.55zm2.105-.32c.306 0 .555-.25.555-.56V9.36c0-.308-.25-.556-.555-.556-.307 0-.555.248-.555.555v6.79c0 .3.248.55.555.55z" fill="#3A434E"/><path d="M31.445 48.678h-1.522v-3.92c0-.168-.075-.326-.205-.43-.13-.107-.3-.148-.463-.114l-13.937 2.882C13.293 45.1 10.615 44 7.768 44c-2.873 0-5.574 1.12-7.605 3.15-.104.105-.163.246-.163.393v19.41l.01.1.007.03.02.066.012.02.04.08v.01l.05.06.02.02.05.04.02.01.07.04h.01l.09.03h.03l.07.01h30.91c.3 0 .55-.25.55-.56v-17.7c0-.31-.25-.56-.56-.56zm-15.908-.493l13.276-2.746v18.07l-13.276 2.75V48.18zM1.11 47.777c1.803-1.72 4.158-2.666 6.658-2.666 2.483 0 4.82.94 6.618 2.63v17.95c-1.882-1.47-4.188-2.27-6.618-2.27-2.446 0-4.768.81-6.658 2.31V47.78zm12.372 18.62H2.048c1.647-1.22 3.633-1.877 5.72-1.877 2.085 0 4.067.66 5.714 1.877zm17.408 0H20.366l9.114-1.885c.258-.053.443-.28.443-.543V49.78h.967v16.61zM12.828 63.77c.078.037.16.056.244.056.102 0 .204-.028.294-.084.162-.102.26-.28.26-.47V48.38c0-.164-.072-.32-.198-.426-1.58-1.32-3.59-2.046-5.66-2.046-2.07 0-4.08.727-5.66 2.046-.125.106-.198.262-.198.426v14.89c0 .19.098.368.26.47.163.1.366.112.538.028 1.578-.77 3.28-1.16 5.06-1.16 1.78 0 3.483.39 5.06 1.16zM3.02 48.647c1.362-1.065 3-1.627 4.748-1.627 1.75 0 3.386.562 4.75 1.627v13.77c-1.503-.61-3.096-.917-4.75-.917-1.653 0-3.247.308-4.748.916v-13.77zm19.77 9.222c-.13-.11-.302-.15-.466-.12l-5.28 1.11c-.257.05-.44.28-.44.54v4.31c0 .16.075.32.205.43.1.08.22.12.35.12l.11-.02 5.28-1.12c.25-.06.44-.28.44-.55v-4.3c0-.17-.08-.33-.21-.43zm-.906 4.29l-4.17.88v-3.18l4.17-.88v3.18zm2.85-14.68c-.306 0-.555.25-.555.55v14.03c0 .3.24.55.55.55.3 0 .55-.25.55-.56V48.03c0-.307-.25-.555-.56-.555zm2.13-.5c-.307 0-.555.25-.555.55v14.03c0 .3.24.55.55.55.3 0 .55-.25.55-.56V47.54c0-.306-.25-.554-.56-.554zm-8.432 10.04c.306 0 .555-.25.555-.56v-6.79c0-.31-.25-.56-.555-.56-.307 0-.556.25-.556.55v6.79c0 .3.25.55.556.55zm2.105-.32c.306 0 .555-.25.555-.56v-6.79c0-.31-.25-.56-.555-.56-.307 0-.555.24-.555.55v6.79c0 .3.248.55.555.55z" fill="#67737B"/><path d="M31.445 88.678h-1.522v-3.92c0-.168-.075-.326-.205-.43-.13-.107-.3-.148-.463-.114l-13.937 2.882C13.293 85.1 10.615 84 7.768 84c-2.873 0-5.574 1.12-7.605 3.15-.104.105-.163.246-.163.393v19.41l.01.1.007.03.02.066.012.02.04.08v.01l.05.06.02.02.05.04.02.01.07.04h.01l.09.03h.03l.07.01h30.91c.3 0 .55-.25.55-.56v-17.7c0-.31-.25-.56-.56-.56zm-15.908-.493l13.276-2.746v18.07l-13.276 2.74V88.18zM1.11 87.777c1.803-1.72 4.158-2.666 6.658-2.666 2.483 0 4.82.94 6.618 2.63v17.95c-1.882-1.47-4.188-2.27-6.618-2.27-2.446 0-4.768.81-6.658 2.31V87.78zm12.372 18.62H2.048c1.647-1.22 3.633-1.877 5.72-1.877 2.085 0 4.067.66 5.714 1.877zm17.408 0H20.366l9.114-1.885c.258-.053.443-.28.443-.543V89.78h.967v16.61zm-18.062-2.627c.078.037.16.056.244.056.102 0 .204-.028.294-.084.162-.102.26-.28.26-.47V88.38c0-.164-.072-.32-.198-.426-1.58-1.32-3.59-2.046-5.66-2.046-2.07 0-4.08.727-5.66 2.046-.125.106-.198.262-.198.426v14.89c0 .19.098.368.26.47.163.1.366.112.538.028 1.578-.77 3.28-1.16 5.06-1.16 1.78 0 3.483.39 5.06 1.16zM3.02 88.647c1.362-1.065 3-1.627 4.748-1.627 1.75 0 3.386.562 4.75 1.627v13.77c-1.503-.61-3.096-.917-4.75-.917-1.653 0-3.247.308-4.748.916v-13.77zm19.77 9.222c-.13-.11-.302-.15-.466-.12l-5.28 1.11c-.257.05-.44.28-.44.54v4.31c0 .16.075.32.205.43.1.08.22.12.35.12l.11-.02 5.28-1.12c.25-.06.44-.28.44-.55v-4.3c0-.17-.08-.33-.21-.43zm-.906 4.29l-4.17.88v-3.18l4.17-.88v3.18zm2.85-14.68c-.306 0-.555.25-.555.55v14.02c0 .3.24.55.55.55.3 0 .55-.25.55-.56V88.03c0-.306-.25-.554-.56-.554zm2.13-.5c-.307 0-.555.25-.555.55v14.02c0 .3.24.55.55.55.3 0 .55-.25.55-.56v-14c0-.31-.25-.56-.56-.56zm-8.432 10.04c.306 0 .555-.25.555-.56v-6.79c0-.31-.25-.56-.555-.56-.307 0-.556.25-.556.55v6.79c0 .3.25.55.556.55zm2.105-.32c.306 0 .555-.25.555-.56v-6.79c0-.31-.25-.56-.555-.56-.307 0-.555.24-.555.55v6.79c0 .3.248.55.555.55z" fill="#fff"/><path d="M31.445 128.678h-1.522v-3.92c0-.168-.075-.326-.205-.43-.13-.107-.3-.148-.463-.114l-13.937 2.882C13.293 125.1 10.615 124 7.768 124c-2.873 0-5.574 1.12-7.605 3.15-.104.105-.163.246-.163.393v19.41l.01.1.007.03.02.066.012.02.04.08v.01l.05.06.02.02.05.04.02.01.07.04h.01l.09.03h.03l.07.01h30.91c.3 0 .55-.25.55-.56V129.2c0-.305-.25-.553-.56-.553zm-15.908-.493l13.276-2.746v18.07l-13.276 2.74v-18.07zm-14.427-.408c1.803-1.72 4.158-2.666 6.658-2.666 2.483 0 4.82.94 6.618 2.63v17.95c-1.882-1.47-4.188-2.27-6.618-2.27-2.446 0-4.768.81-6.658 2.31v-17.94zm12.372 18.62H2.048c1.647-1.22 3.633-1.877 5.72-1.877 2.085 0 4.067.66 5.714 1.877zm17.408 0H20.366l9.114-1.885c.258-.053.443-.28.443-.543v-14.19h.967v16.61zm-18.062-2.627c.078.037.16.056.244.056.102 0 .204-.028.294-.084.162-.102.26-.28.26-.47v-14.89c0-.164-.072-.32-.198-.426-1.58-1.32-3.59-2.046-5.66-2.046-2.07 0-4.08.727-5.66 2.046-.125.106-.198.262-.198.426v14.89c0 .19.098.368.26.47.163.1.366.112.538.028 1.578-.77 3.28-1.16 5.06-1.16 1.78 0 3.483.39 5.06 1.16zM3.02 128.647c1.362-1.065 3-1.627 4.748-1.627 1.75 0 3.386.562 4.75 1.627v13.77c-1.503-.61-3.096-.917-4.75-.917-1.653 0-3.247.308-4.748.916v-13.77zm19.77 9.222c-.13-.11-.302-.15-.466-.12l-5.28 1.11c-.257.05-.44.28-.44.54v4.31c0 .16.075.32.205.43.1.08.22.12.35.12l.11-.02 5.28-1.12c.25-.06.44-.28.44-.55v-4.31c0-.17-.08-.33-.21-.43zm-.906 4.29l-4.17.88v-3.18l4.17-.88v3.18zm2.85-14.68c-.306 0-.555.25-.555.55v14.02c0 .3.24.55.55.55.3 0 .55-.25.55-.56v-14.02c0-.31-.25-.56-.56-.56zm2.13-.5c-.307 0-.555.25-.555.55v14.02c0 .3.24.55.55.55.3 0 .55-.25.55-.56v-14.02c0-.31-.25-.56-.56-.56zm-8.432 10.04c.306 0 .555-.25.555-.56v-6.8c0-.31-.25-.56-.555-.56-.307 0-.556.25-.556.55v6.79c0 .3.25.55.556.55zm2.105-.32c.306 0 .555-.25.555-.56v-6.79c0-.31-.25-.56-.555-.56-.307 0-.555.24-.555.55v6.79c0 .3.248.55.555.55z" fill="#206FAC"/></g></svg>