<svg width="32" height="232" viewBox="0 0 32 232" xmlns="http://www.w3.org/2000/svg"><g fill="none"><path d="M17.567 15.476l5.49-5.49 3.1 3.1c.116.116.27.174.42.174.154 0 .306-.058.422-.174.16-.16.2-.39.14-.593l2.68-2.673c2.06-2.06 2.3-4.264 2.14-5.75-.18-1.597-.84-2.71-.87-2.756L31 1.19l-.113-.086C30.827 1.067 29.364.2 27.37.2c-1.862 0-3.54.734-4.988 2.18l-2.674 2.675c-.203-.06-.432-.014-.593.147-.232.232-.232.61 0 .842l3.1 3.1-5.497 5.497-4.037-3.97-.05-.04-4.69-3.67.07-.06.06-.06 3.56-4.8c.18-.23.15-.56-.05-.77L10.71.4c-.21-.206-.54-.232-.78-.056l-4.8 3.553-.07.057-1.44 1.442-.065.08L2.09 7.568l-1.713.685c-.186.075-.322.238-.362.434-.04.195.02.398.162.54l2.548 2.547c.113.113.265.174.42.174l.12-.01c.197-.04.36-.177.434-.362l.68-1.713L6.48 8.4l.08-.067.222-.224 3.792 4.59.037.04 3.99 4.02-8.18 8.18-3.47-.14c-.17-.01-.32.05-.44.17L.7 26.78c-.23.23-.23.61 0 .84l3.87 3.88c.113.112.264.175.42.175.16 0 .31-.064.423-.176l1.803-1.8c.118-.12.18-.28.174-.45l-.147-3.45 8.194-8.2 12.8 12.9c.112.11.263.17.422.17.15 0 .31-.07.42-.18l1.44-1.44c.11-.12.17-.27.17-.43 0-.16-.07-.31-.18-.43L17.56 15.47zm3.035-9.63l2.622-2.622c1.216-1.216 2.61-1.833 4.147-1.833 1.35 0 2.42.49 2.78.67.35.68 1.79 3.97-1.17 6.92l-2.62 2.62-2.46-2.45 3.34-3.35c.24-.23.24-.61 0-.84-.23-.23-.6-.23-.84 0L23.06 8.3 20.6 5.846zM3.554 8.99c-.095.067-.168.16-.21.267l-.418 1.04-1.272-1.272 1.04-.417c.107-.043.2-.116.266-.21l1.538-2.2 1.374-1.375L10.225 1.6l.126.126L7.13 6.08 5.754 7.453l-2.2 1.537zm1.44 21.25L1.96 27.21l1.196-1.197 2.886.113.016.02.008.006.123 2.895-1.2 1.196zm23.668-.995L11.475 11.92 9.87 9.977l2 1.564 17.385 17.11-.593.6z" fill="#3A434E"/><path d="M17.567 55.476l5.49-5.49 3.1 3.1c.116.116.27.174.42.174.154 0 .306-.058.422-.174.16-.16.2-.39.14-.593l2.67-2.674c2.06-2.06 2.3-4.27 2.14-5.75-.18-1.6-.84-2.71-.87-2.76l-.09-.12-.12-.09c-.06-.04-1.53-.91-3.52-.91-1.86 0-3.54.73-4.98 2.18l-2.67 2.68c-.21-.06-.43-.02-.6.14-.23.23-.23.61 0 .84l3.1 3.1-5.5 5.49-4.04-3.97-.05-.05-4.69-3.67.07-.07.05-.07L11.6 42c.175-.24.15-.57-.06-.777l-.85-.85c-.21-.21-.535-.236-.773-.06l-4.8 3.553-.07.055-1.44 1.46-.068.08-1.46 2.1-1.71.69c-.19.07-.33.23-.37.43-.04.19.02.4.16.54l2.55 2.55c.11.11.26.17.42.17l.12-.01c.19-.04.36-.18.43-.37l.68-1.71 2.1-1.47.08-.07.22-.23 3.79 4.59.03.04 3.99 4.02-8.18 8.18-3.47-.14c-.17 0-.33.06-.45.18l-1.8 1.82c-.24.23-.24.61 0 .84l3.87 3.87c.11.118.26.18.42.18.16 0 .31-.063.42-.175l1.8-1.8c.11-.12.18-.28.17-.45l-.15-3.45 8.19-8.2 12.8 12.9c.11.115.26.178.42.178.15 0 .31-.062.42-.173l1.44-1.44c.11-.116.17-.27.17-.427 0-.16-.07-.31-.18-.42l-12.9-12.73zm3.035-9.63l2.622-2.622c1.216-1.216 2.61-1.833 4.147-1.833 1.35 0 2.42.49 2.78.67.35.68 1.79 3.97-1.17 6.92l-2.62 2.62-2.45-2.45 3.34-3.34c.24-.23.24-.61 0-.84-.23-.23-.6-.23-.84 0l-3.35 3.33-2.45-2.45zM3.554 48.99c-.095.067-.168.16-.21.267l-.418 1.04-1.272-1.272 1.04-.417c.107-.043.2-.116.266-.21l1.538-2.2 1.374-1.375 4.353-3.223.126.126-3.22 4.354-1.37 1.374-2.2 1.537zm1.44 21.25L1.96 67.21l1.196-1.197 2.886.113.016.02.008.006.123 2.895-1.2 1.196zm23.668-.995L11.475 51.92 9.87 49.977l2 1.564 17.385 17.11-.593.6z" fill="#67737B"/><path d="M17.567 95.476l5.49-5.49 3.1 3.1c.116.116.27.174.42.174.154 0 .306-.058.422-.174.16-.16.2-.39.14-.593l2.67-2.674c2.06-2.06 2.3-4.27 2.14-5.75-.18-1.6-.84-2.71-.87-2.76l-.09-.12-.12-.09c-.06-.04-1.53-.91-3.52-.91-1.86 0-3.54.73-4.98 2.18l-2.67 2.68c-.21-.06-.43-.02-.6.14-.23.23-.23.61 0 .84l3.1 3.1-5.5 5.49-4.04-3.97-.05-.05-4.69-3.67.07-.07.05-.07L11.6 82c.175-.24.15-.57-.06-.777l-.85-.85c-.21-.21-.535-.236-.773-.06l-4.8 3.553-.07.055-1.44 1.46-.068.08-1.46 2.1-1.71.69c-.19.07-.33.23-.37.43-.04.19.02.4.16.54l2.55 2.55c.11.11.26.17.42.17l.12-.01c.19-.04.36-.18.43-.37l.68-1.71 2.1-1.47.08-.07.22-.23 3.79 4.59.03.04 3.99 4.02-8.18 8.18-3.47-.14c-.17 0-.33.06-.45.18l-1.81 1.81c-.23.23-.23.61 0 .84l3.87 3.88c.11.11.262.17.42.17.16 0 .31-.062.42-.174l1.804-1.8c.12-.12.18-.28.17-.447l-.145-3.46 8.19-8.197 12.8 12.9c.11.11.26.18.42.18.16 0 .31-.07.42-.18l1.44-1.44c.11-.11.174-.27.173-.42 0-.16-.067-.31-.18-.42L17.57 95.47zm3.035-9.63l2.622-2.622c1.216-1.216 2.61-1.833 4.147-1.833 1.35 0 2.42.49 2.78.67.35.68 1.79 3.97-1.17 6.92l-2.62 2.62-2.45-2.45 3.34-3.34c.24-.23.24-.61 0-.84-.23-.23-.6-.23-.84 0l-3.35 3.33-2.45-2.45zM3.554 88.99c-.095.067-.168.16-.21.267l-.418 1.04-1.272-1.272 1.04-.417c.107-.043.2-.116.266-.21l1.538-2.2 1.374-1.375 4.353-3.223.126.126-3.22 4.354-1.37 1.374-2.2 1.537zm1.44 21.25l-3.034-3.03 1.196-1.197 2.886.113.016.02.008.006.123 2.895-1.2 1.196zm23.668-.995L11.475 91.92 9.87 89.977l2 1.564 17.385 17.11-.593.6z" fill="#fff"/><path d="M17.567 135.476l5.49-5.49 3.1 3.1c.116.116.27.174.42.174.154 0 .306-.058.422-.174.16-.16.2-.39.14-.593l2.67-2.674c2.06-2.06 2.3-4.27 2.14-5.75-.18-1.6-.84-2.71-.87-2.76l-.1-.12-.12-.09c-.06-.04-1.53-.91-3.52-.91-1.86 0-3.54.73-4.99 2.18l-2.68 2.67c-.21-.06-.43-.02-.6.14-.23.23-.23.61 0 .84l3.1 3.1-5.5 5.49-4.04-3.97-.05-.05-4.69-3.67.06-.07.056-.07 3.55-4.8c.18-.24.15-.57-.055-.78l-.85-.85c-.21-.21-.54-.23-.78-.06l-4.8 3.55-.07.05-1.45 1.45-.066.08-1.467 2.1-1.714.684c-.184.08-.32.24-.36.436-.04.2.02.4.16.54l2.55 2.55c.115.116.267.177.42.177l.12-.01c.2-.04.36-.18.436-.364l.686-1.71 2.1-1.46.08-.066.22-.222 3.793 4.59.04.04 3.99 4.02-8.187 8.19-3.47-.134c-.164-.006-.323.057-.44.175l-1.8 1.8c-.23.23-.23.61 0 .84l3.88 3.873c.11.12.26.18.42.18.16 0 .31-.065.42-.177l1.8-1.8c.12-.12.18-.28.17-.45l-.14-3.45 8.2-8.195 12.8 12.9c.11.11.262.17.42.17.16 0 .31-.06.42-.173l1.443-1.44c.11-.11.17-.262.17-.42 0-.16-.062-.31-.18-.42l-12.94-12.74zm3.035-9.63l2.622-2.622c1.216-1.216 2.61-1.833 4.147-1.833 1.35 0 2.42.49 2.78.67.35.68 1.79 3.97-1.17 6.92l-2.62 2.63-2.45-2.45 3.34-3.34c.24-.23.24-.61 0-.84-.23-.23-.6-.23-.84 0l-3.34 3.34-2.45-2.45zM3.554 128.99c-.095.067-.168.16-.21.267l-.418 1.04-1.272-1.272 1.04-.417c.107-.043.2-.116.266-.21l1.538-2.2 1.374-1.375 4.353-3.223.126.126-3.22 4.353-1.37 1.37-2.2 1.53zm1.44 21.25l-3.034-3.03 1.196-1.197 2.886.113.016.02.008.006.123 2.895-1.2 1.196zm23.668-.995L11.475 131.92l-1.606-1.944 2 1.564 17.38 17.11-.6.595z" fill="#206FAC"/></g></svg>