<?xml version="1.0" encoding="utf-8"?>
<!-- Generator: Adobe Illustrator 18.0.0, SVG Export Plug-In . SVG Version: 6.00 Build 0)  -->
<!DOCTYPE svg PUBLIC "-//W3C//DTD SVG 1.1//EN" "http://www.w3.org/Graphics/SVG/1.1/DTD/svg11.dtd">
<svg version="1.1" id="Icons" xmlns="http://www.w3.org/2000/svg" xmlns:xlink="http://www.w3.org/1999/xlink" x="0px" y="0px"
	 viewBox="0 0 612 797" enable-background="new 0 0 612 797" xml:space="preserve">
<path id="Facebook" fill="#cccdce" d="M230.3,158.1c0,20.2,0,109.1,0,109.1h-80.1V401h80.1v396H394V401h110c0,0,10.6-64.2,15-133.8
	c-14.1,0-125,0-125,0s0-77.4,0-91.5c0-13.2,17.6-31.7,35.2-31.7s54.6,0,89.8,0c0-18.5,0-81,0-139c-45.8,0-98.6,0-121.4,0
	C225.9,5,230.3,138.8,230.3,158.1z"/>
</svg>
