<?xml version="1.0" encoding="utf-8"?>
<!-- Generator: Adobe Illustrator 18.1.1, SVG Export Plug-In . SVG Version: 6.00 Build 0)  -->
<svg version="1.1" id="Layer_1" xmlns="http://www.w3.org/2000/svg" xmlns:xlink="http://www.w3.org/1999/xlink" x="0px" y="0px"
	 viewBox="0 0 233.3 115.4" enable-background="new 0 0 233.3 115.4" xml:space="preserve">
<path fill-rule="evenodd" clip-rule="evenodd" fill="#297cbb" d="M116.3,6.6c22.2,0,41,14.1,48,34.1l2.9-1l2.9-1
	C162.4,16,141.3,0,116.3,0C91.4,0,70.2,16.2,62.4,38.6l5.8,2.2C75.3,20.9,94.2,6.6,116.3,6.6z M220.6,73.7h2.1v3.8h0.9v-3.8h2.1
	v-0.5h-5.2V73.7z M230.1,76.2c-0.2,0.3-0.3,0.5-0.4,0.7c-0.1-0.1-0.2-0.4-0.3-0.6l-1.5-3.1h-1.3v4.3h0.8v-3.7l1.9,3.7h0.8l1.9-3.6
	v3.6h0.8v-4.3h-1.1L230.1,76.2z M76.7,63.5l-7-1.1c-3.5,2.7-7.6,1.3-8.8-2.3h17v11h8.4v-5.7c1.4,5.6,8.3,7.5,12.3,3.3
	c0,1.2-0.1,2.7-0.5,3.9c-1.3,3-5.5,3-7.7,1l-5,6.4c3.2,2.5,6.4,3.7,10.5,3.3c3.4-0.3,5.5-0.9,8.1-3.3c2-2.2,2.9-4.5,3-7.4V45.4h-8.3
	v15.7c0,2.8-4.2,2.9-4.2,0V45.4h-8.3V35.4h-8.4v18.2c-2.7-5.8-7.8-8.8-14.3-7.9c-4.6,1-7.9,3.6-9.7,7.9c-1.6-5.1-5.4-7.8-10.6-8.1
	c-5.6,0-9.7,2.7-11.4,8.1c-2.8-6.2-8.4-9.2-15.1-7.7c-4,1.3-6.5,3.4-8.3,7.1V35.4H0v35.9h8.4v-8c2.4,4.8,6.4,7.5,11.8,7.6
	c5.7-0.3,9.4-3,11.7-8.1v8.6H40V55.8c0.3-3.4,5.4-3.5,5.8,0v15.5h8.1v-8.1c1.9,4.2,4.8,6.7,9.2,7.8C72.8,71.8,76.6,65.2,76.7,63.5z
	 M19.9,63.4c-2.9,0-5.3-2.4-5.3-5.3c0-2.9,2.4-5.3,5.3-5.3c2.9,0,5.3,2.4,5.3,5.3C25.2,61,22.8,63.4,19.9,63.4z M71.1,56.9H60.7
	C62.3,51.7,69.4,51.6,71.1,56.9z M223.3,69.9c3.6,2.6,10.1,0.1,10-1.6l-0.3-7.1l-0.4,0.3c-1.5,1.2-3.7,0.8-4.5-0.8
	c-0.8-2.4-0.4-5-0.4-7.5h5.2v-7.5h-5.2v-5.1h-8.2v13.1c-1.5-3.5-3.7-5.6-7.2-7.2c-7-2.5-13.7,0.4-16.7,7.2c-1.2-3.5-3-5.7-6.4-7.3
	c-6.8-2.4-13.3,0.4-15.6,7.3c-1.9-4.3-4.5-6.6-9.2-7.8c-6.2-1-11.5,1.7-14.2,7.3V35.4h-8.4V53c-1.1-2.1-2.2-3.6-4-5.1
	c-8.6-6.3-20,0-20.2,10.5v22.3h8.4c0-2.2-0.3-11-0.3-11l0.9,0.4c6.3,1.6,12.7-1.6,15.2-6.5v7.6h8.4v-7.6c2.4,5.2,7.1,8.1,12.8,7.7
	c2.7,0.2,4.9-6.9,4.9-4.9l0,4.9h5.6l8.2-0.1V55.7c0-3.2,5.3-3.5,5.6-0.2c0.1,5.1,0.1,10.7,0.1,15.7h8.3v-8.1
	c1.5,3.5,3.6,5.5,6.9,7.1c6.7,2.2,13.7,1.1,16.3-7l-7.1-1.1c-1.6,2.4-7.4,2.9-9.2-1.9h17C219.6,64.2,219.7,67.2,223.3,69.9z
	 M130.6,63.5c-2.9,0-5.3-2.4-5.3-5.3c0-2.9,2.4-5.3,5.3-5.3c2.9,0,5.3,2.4,5.3,5.3C135.9,61.1,133.5,63.5,130.6,63.5z M161.7,63.5
	c-2.9,0-5.3-2.4-5.3-5.3c0-2.9,2.4-5.3,5.3-5.3c2.9,0,5.3,2.4,5.3,5.3C167.1,61.1,164.7,63.5,161.7,63.5z M202.6,56.5
	c1.4-5,8.6-5.2,10.2,0H202.6z M116.2,108.9c-22.2,0-41-13.8-48-33.5l-2.9,1l-2.9,1c7.6,22.2,28.8,38,53.8,38
	c24.9,0,46.1-15.9,53.8-37.9l-5.8-2.2C157.2,94.9,138.3,108.9,116.2,108.9z"/>
</svg>
