<svg xmlns="http://www.w3.org/2000/svg" xmlns:xlink="http://www.w3.org/1999/xlink" preserveAspectRatio="xMidYMid" width="102" height="102" viewBox="0 0 102 102">

  <path fill="#FFFFFF" d="M101.933,93.789 C101.933,93.789 93.792,101.933 93.792,101.933 C93.792,101.933 64.428,72.571 64.428,72.571 C57.701,77.609 49.347,80.593 40.297,80.593 C18.041,80.593 0.000,62.554 0.000,40.295 C0.000,18.040 18.041,0.002 40.297,0.002 C62.551,0.002 80.592,18.040 80.592,40.295 C80.592,49.348 77.608,57.702 72.570,64.429 C72.570,64.429 101.933,93.789 101.933,93.789 ZM40.296,11.514 C24.400,11.514 11.513,24.399 11.513,40.295 C11.513,56.195 24.400,69.079 40.296,69.079 C56.193,69.079 69.079,56.195 69.079,40.295 C69.079,24.399 56.193,11.514 40.296,11.514 Z" id="path-1" class="cls-2" fill-rule="evenodd"/>
</svg>
