<?xml version="1.0" encoding="utf-8"?>
<!-- Generator: Adobe Illustrator 18.0.0, SVG Export Plug-In . SVG Version: 6.00 Build 0)  -->
<!DOCTYPE svg PUBLIC "-//W3C//DTD SVG 1.1//EN" "http://www.w3.org/Graphics/SVG/1.1/DTD/svg11.dtd">
<svg version="1.1" id="pinterest" xmlns="http://www.w3.org/2000/svg" xmlns:xlink="http://www.w3.org/1999/xlink" x="0px" y="0px"
	 viewBox="0 71.6 612 606" enable-background="new 0 71.6 612 606" xml:space="preserve">
<path fill="#cccdce" d="M305.9,71.8C137,71.8,0.1,207.4,0.1,374.5c0,124,75.3,230.5,183.2,277.4c-0.8-21.2-0.2-46.5,5.3-69.6
	c5.9-24.7,39.4-165,39.4-165s-9.8-19.4-9.8-47.9c0-44.9,26.3-78.3,59-78.3c27.7,0,41.2,20.6,41.2,45.5c0,27.7-17.7,69.2-26.9,107.5
	c-7.8,32,16.3,58.3,48.3,58.3c57.9,0,96.9-73.6,96.9-161c0-66.3-45.1-116.1-127.3-116.1c-92.8,0-150.6,68.5-150.6,145
	c0,26.3,7.8,45.1,20.2,59.4c5.7,6.5,6.5,9.4,4.5,16.9c-1.4,5.5-4.9,19-6.3,24.3c-2,7.8-8.4,10.4-15.3,7.5
	c-42.6-17.3-62.6-63.6-62.6-115.7c0-86.1,73.2-189.1,218.7-189.1c116.7,0,193.6,83.6,193.6,173.4c0,118.7-66.7,207.5-165,207.5
	c-33,0-64.1-17.7-74.7-37.7c0,0-17.7,69.8-21.6,83.2c-6.5,23.3-19.2,46.7-30.8,64.9c27.5,8,56.5,12.4,86.7,12.4
	c168.9,0,305.8-135.7,305.8-302.7S474.8,71.8,305.9,71.8z"/>
</svg>
