<?xml version="1.0" encoding="utf-8"?>
<!-- Generator: Adobe Illustrator 18.0.0, SVG Export Plug-In . SVG Version: 6.00 Build 0)  -->
<!DOCTYPE svg PUBLIC "-//W3C//DTD SVG 1.1//EN" "http://www.w3.org/Graphics/SVG/1.1/DTD/svg11.dtd">
<svg version="1.1" id="twitter" xmlns="http://www.w3.org/2000/svg" xmlns:xlink="http://www.w3.org/1999/xlink" x="0px" y="0px"
	 viewBox="0 0 612 792" enable-background="new 0 0 612 792" xml:space="preserve">
<path fill="#cccdce" d="M611.7,200.1c-22.4,10-46.7,16.7-72,19.8c25.9-15.7,45.9-40.4,55.3-69.8c-24.3,14.5-51.2,24.9-79.8,30.6
	c-22.8-24.5-55.5-39.8-91.6-39.8c-69.4,0-125.5,56.5-125.5,126.3c0,10,1,19.6,3.3,28.8c-104.2-5.3-196.9-55.5-258.7-132
	c-10.8,18.6-16.9,40.4-16.9,63.4c0,43.9,22.2,82.4,55.9,105.1c-20.6-0.6-40-6.3-56.9-15.7c0,0.6,0,1,0,1.6
	c0,61.2,43.2,112.2,100.8,123.8c-10.6,2.9-21.6,4.5-33,4.5c-8.2,0-15.9-0.8-23.7-2.2c15.9,50.2,62.4,86.7,117.3,87.7
	c-43,33.9-97.1,54.1-155.9,54.1c-10.2,0-20.2-0.6-30-1.8c55.5,35.9,121.6,56.7,192.4,56.7c230.9,0,357.2-192.4,357.2-359.2
	c0-5.5-0.2-10.8-0.4-16.3C573.8,247.8,595,225.6,611.7,200.1z"/>
</svg>
