<svg width="32" height="232" viewBox="0 0 32 232" xmlns="http://www.w3.org/2000/svg"><g fill="none" fill-rule="evenodd"><path d="M29.6 23.33l-4.13-2.385 3.825-1.025c.262-.07.417-.34.347-.6-.07-.263-.338-.418-.6-.348l-4.775 1.28-5.16-2.98c.158-.393.248-.822.248-1.272 0-.45-.09-.88-.247-1.272l5.16-2.98 4.773 1.28c.045.01.087.016.13.016.216 0 .414-.145.473-.364.07-.262-.086-.53-.347-.6l-3.826-1.025L29.6 8.67c.234-.135.314-.435.18-.67-.137-.235-.438-.315-.672-.18l-4.13 2.385 1.026-3.826c.07-.264-.085-.533-.347-.603-.26-.07-.53.085-.6.347l-1.28 4.774-5.16 2.98c-.534-.677-1.314-1.146-2.205-1.274v-5.96l3.495-3.493c.19-.19.19-.5 0-.693-.192-.193-.502-.193-.694 0l-2.8 2.8V.49c0-.27-.22-.49-.49-.49-.272 0-.492.22-.492.49v4.77l-2.8-2.8c-.19-.193-.5-.193-.692 0-.192.19-.192.5 0 .693l3.494 3.493v5.96c-.89.128-1.67.597-2.202 1.272l-5.16-2.98-1.28-4.773c-.07-.262-.34-.418-.6-.347-.262.07-.417.34-.347.6l1.026 3.827L2.74 7.82c-.235-.134-.536-.054-.67.18-.137.236-.056.536.18.67l4.13 2.386-3.83 1.024c-.262.07-.417.338-.347.6.058.22.257.364.473.364.042 0 .085-.006.128-.017l4.773-1.278 5.158 2.976c-.158.394-.247.823-.247 1.273 0 .45.09.88.248 1.272l-5.16 2.978-4.773-1.278c-.26-.07-.53.085-.6.347-.07.26.085.53.346.6l3.825 1.024-4.13 2.385c-.235.134-.316.434-.18.67.09.156.256.244.425.244.085 0 .17-.02.246-.066l4.13-2.385L5.84 25.62c-.07.263.086.532.347.602.043.012.086.017.128.017.216 0 .415-.147.473-.366l1.28-4.773 5.16-2.98c.533.677 1.313 1.145 2.203 1.273v5.96l-3.492 3.494c-.192.19-.192.502 0 .693.095.097.22.145.347.145.125 0 .25-.048.346-.144l2.8-2.8v4.77c0 .27.22.49.493.49.27 0 .49-.22.49-.49v-4.77l2.8 2.8c.097.098.223.146.348.146.127 0 .25-.048.348-.144.19-.19.19-.5 0-.692l-3.495-3.495v-5.96c.89-.127 1.67-.596 2.204-1.27l5.16 2.98 1.28 4.772c.06.22.257.364.474.364.043 0 .085-.005.128-.017.262-.07.417-.34.347-.6l-1.025-3.827 4.128 2.384c.078.044.162.065.245.065.17 0 .335-.088.426-.245.133-.235.053-.535-.18-.67zm-13.68-4.877c-1.353 0-2.453-1.1-2.453-2.453 0-1.352 1.1-2.453 2.452-2.453 1.35 0 2.45 1.1 2.45 2.453 0 1.352-1.1 2.453-2.45 2.453z" fill="#3B444F"/><path d="M29.6 63.33l-4.13-2.385 3.825-1.025c.262-.07.417-.34.347-.6-.07-.263-.338-.418-.6-.348l-4.775 1.28-5.16-2.98c.158-.393.248-.822.248-1.272 0-.45-.09-.88-.247-1.272l5.16-2.98 4.773 1.28c.045.01.087.016.13.016.216 0 .414-.145.473-.364.07-.262-.086-.53-.347-.6l-3.826-1.025 4.13-2.385c.234-.135.314-.435.18-.67-.137-.235-.438-.315-.672-.18l-4.13 2.385 1.026-3.826c.07-.264-.085-.533-.347-.603-.26-.07-.53.085-.6.347l-1.28 4.774-5.16 2.98c-.534-.677-1.314-1.146-2.205-1.274v-5.96l3.495-3.493c.19-.19.19-.5 0-.693-.192-.193-.502-.193-.694 0l-2.8 2.8v-4.77c0-.27-.22-.49-.49-.49-.272 0-.492.22-.492.49v4.77l-2.8-2.8c-.19-.193-.5-.193-.692 0-.192.19-.192.5 0 .693l3.494 3.493v5.96c-.89.128-1.67.597-2.202 1.272l-5.16-2.98-1.28-4.773c-.07-.262-.34-.418-.6-.347-.262.07-.417.34-.347.6l1.026 3.827-4.13-2.384c-.235-.135-.536-.055-.67.18-.137.235-.056.535.18.67l4.13 2.385-3.83 1.027c-.262.07-.417.338-.347.6.058.22.257.364.473.364.042 0 .085-.006.128-.017l4.773-1.278 5.158 2.976c-.158.394-.247.823-.247 1.273 0 .45.09.88.248 1.272l-5.16 2.978-4.773-1.278c-.26-.07-.53.085-.6.347-.07.26.085.53.346.6l3.825 1.024-4.13 2.385c-.235.134-.316.434-.18.67.09.156.256.244.425.244.085 0 .17-.02.246-.066l4.13-2.385L5.84 65.62c-.07.263.086.532.347.602.043.012.086.017.128.017.216 0 .415-.147.473-.366l1.28-4.773 5.16-2.98c.533.677 1.313 1.145 2.203 1.273v5.96l-3.492 3.494c-.192.19-.192.502 0 .693.095.097.22.145.347.145.125 0 .25-.048.346-.144l2.8-2.8v4.77c0 .27.22.49.493.49.27 0 .49-.22.49-.49v-4.77l2.8 2.8c.097.098.223.146.348.146.127 0 .25-.048.348-.144.19-.19.19-.5 0-.692l-3.495-3.495v-5.96c.89-.127 1.67-.596 2.204-1.27l5.16 2.98 1.28 4.772c.06.22.257.364.474.364.043 0 .085-.005.128-.017.262-.07.417-.34.347-.6l-1.025-3.827 4.128 2.384c.078.044.162.065.245.065.17 0 .335-.088.426-.245.133-.235.053-.535-.18-.67zm-13.68-4.877c-1.353 0-2.453-1.1-2.453-2.453 0-1.352 1.1-2.453 2.452-2.453 1.35 0 2.45 1.1 2.45 2.453 0 1.352-1.1 2.453-2.45 2.453z" fill="#67737B"/><path d="M29.6 103.33l-4.13-2.385 3.825-1.025c.262-.07.417-.34.347-.6-.07-.263-.338-.418-.6-.348l-4.775 1.28-5.16-2.98c.158-.393.248-.822.248-1.272 0-.45-.09-.88-.247-1.272l5.16-2.98 4.773 1.28c.045.01.087.016.13.016.216 0 .414-.145.473-.364.07-.262-.086-.53-.347-.6l-3.826-1.025 4.13-2.385c.234-.135.314-.435.18-.67-.137-.235-.438-.315-.672-.18l-4.13 2.385 1.026-3.826c.07-.264-.085-.533-.347-.603-.26-.07-.53.085-.6.347l-1.28 4.774-5.16 2.98c-.534-.677-1.314-1.146-2.205-1.274v-5.96l3.495-3.493c.19-.19.19-.5 0-.693-.192-.193-.502-.193-.694 0l-2.8 2.8v-4.77c0-.27-.22-.49-.49-.49-.272 0-.492.22-.492.49v4.77l-2.8-2.8c-.19-.193-.5-.193-.692 0-.192.19-.192.5 0 .693l3.494 3.493v5.96c-.89.128-1.67.597-2.202 1.272l-5.16-2.98-1.28-4.773c-.07-.262-.34-.418-.6-.347-.262.07-.417.34-.347.6l1.026 3.827-4.13-2.384c-.235-.135-.536-.055-.67.18-.137.235-.056.535.18.67l4.13 2.385-3.83 1.027c-.262.07-.417.338-.347.6.058.22.257.364.473.364.042 0 .085-.006.128-.017l4.773-1.278 5.158 2.976c-.158.394-.247.823-.247 1.273 0 .45.09.88.248 1.272l-5.16 2.978-4.773-1.278c-.26-.07-.53.085-.6.347-.07.26.085.53.346.6l3.825 1.024-4.13 2.385c-.235.134-.316.434-.18.67.09.156.256.244.425.244.085 0 .17-.02.246-.066l4.13-2.385-1.025 3.826c-.07.262.087.53.348.6.043.013.086.018.128.018.216 0 .415-.146.473-.365l1.28-4.773 5.16-2.98c.532.676 1.312 1.144 2.202 1.272v5.96l-3.493 3.494c-.193.19-.193.502 0 .693.094.096.22.144.346.144.125 0 .25-.048.346-.144l2.8-2.8v4.77c0 .27.22.49.492.49.27 0 .49-.22.49-.49v-4.77l2.8 2.8c.097.097.223.145.348.145.126 0 .25-.048.347-.144.19-.19.19-.5 0-.69l-3.496-3.496v-5.96c.89-.127 1.67-.596 2.204-1.27l5.16 2.98 1.28 4.772c.06.22.257.364.474.364.042 0 .084-.006.127-.018.26-.07.416-.34.346-.6l-1.025-3.827 4.13 2.384c.077.043.16.064.244.064.17 0 .335-.088.426-.245.134-.236.054-.536-.18-.67zm-13.68-4.877c-1.353 0-2.453-1.1-2.453-2.453 0-1.352 1.1-2.453 2.452-2.453 1.35 0 2.45 1.1 2.45 2.453 0 1.352-1.1 2.453-2.45 2.453z" fill="#fff"/><path d="M29.6 143.33l-4.13-2.385 3.825-1.025c.262-.07.417-.34.347-.6-.07-.263-.338-.418-.6-.348l-4.775 1.28-5.16-2.98c.158-.393.248-.822.248-1.272 0-.45-.09-.88-.247-1.272l5.16-2.98 4.773 1.28c.045.01.087.016.13.016.216 0 .414-.145.473-.364.07-.262-.086-.53-.347-.6l-3.826-1.025 4.13-2.385c.234-.135.314-.435.18-.67-.137-.235-.438-.315-.672-.18l-4.13 2.385 1.026-3.826c.07-.264-.085-.533-.347-.603-.26-.07-.53.085-.6.347l-1.28 4.774-5.16 2.98c-.534-.677-1.314-1.146-2.205-1.274v-5.96l3.495-3.493c.19-.19.19-.5 0-.693-.192-.193-.502-.193-.694 0l-2.8 2.8v-4.77c0-.27-.22-.49-.49-.49-.272 0-.492.22-.492.49v4.77l-2.8-2.8c-.19-.193-.5-.193-.692 0-.192.19-.192.5 0 .693l3.494 3.493v5.96c-.89.128-1.67.597-2.202 1.272l-5.16-2.98-1.28-4.773c-.07-.262-.34-.418-.6-.347-.262.07-.417.34-.347.6l1.026 3.827-4.13-2.384c-.235-.135-.536-.055-.67.18-.137.235-.056.535.18.67l4.13 2.385-3.827 1.024c-.262.07-.417.338-.347.6.058.22.257.364.473.364.04 0 .084-.005.127-.016l4.773-1.278 5.158 2.977c-.158.394-.247.823-.247 1.273 0 .45.09.88.25 1.273l-5.16 2.977-4.774-1.278c-.26-.07-.53.084-.6.346-.07.26.085.53.346.6l3.826 1.025-4.13 2.386c-.235.135-.316.435-.18.67.09.157.256.245.425.245.085 0 .17-.02.246-.065l4.13-2.385-1.026 3.826c-.07.263.086.532.347.602.044.012.087.017.13.017.215 0 .414-.146.472-.365l1.28-4.773 5.16-2.98c.533.676 1.313 1.144 2.203 1.272v5.96l-3.493 3.493c-.192.19-.192.502 0 .693.095.097.22.145.347.145.124 0 .25-.047.345-.143l2.8-2.8v4.77c0 .27.22.49.492.49.27 0 .49-.22.49-.49v-4.77l2.8 2.8c.097.097.223.145.348.145.126 0 .25-.048.347-.144.19-.19.19-.5 0-.692l-3.495-3.495v-5.96c.89-.126 1.67-.595 2.204-1.27l5.16 2.98 1.28 4.773c.06.22.258.364.475.364.042 0 .084-.006.127-.018.262-.07.417-.34.347-.6l-1.026-3.828 4.128 2.384c.078.044.162.065.245.065.17 0 .335-.087.426-.244.134-.235.054-.535-.18-.67zm-13.678-4.877c-1.353 0-2.453-1.1-2.453-2.453 0-1.352 1.1-2.453 2.45-2.453 1.353 0 2.453 1.1 2.453 2.453 0 1.352-1.1 2.453-2.452 2.453z" fill="#206FAC"/></g></svg>