<svg width="32" height="232" viewBox="0 0 32 232" xmlns="http://www.w3.org/2000/svg"><g fill="none" fill-rule="evenodd"><g fill="#3B444F"><path d="M12.52 28.174c-.234-.13-.533-.045-.664.19l-.12.216c-.13.236-.044.535.193.666.073.042.154.06.234.06.172 0 .34-.09.43-.25l.118-.215c.13-.236.045-.534-.192-.665" id="Fill-1"/><path d="M15.21 24.335l.227-.41c.132-.237.046-.535-.19-.666-.237-.134-.534-.048-.665.19l-.228.41c-.132.235-.046.533.19.664.076.042.158.062.238.062.172 0 .34-.09.428-.252" id="Fill-2"/><path d="M15.907 22.067c.075.042.158.062.238.062.172 0 .34-.093.43-.255l.226-.41c.133-.236.047-.534-.19-.666-.236-.13-.534-.047-.666.19l-.227.41c-.13.237-.045.535.19.666" id="Fill-3"/><path d="M17.27 19.61c.075.04.156.06.236.06.174 0 .34-.09.43-.25l.227-.41c.13-.238.046-.536-.19-.667-.238-.132-.536-.046-.667.19l-.227.41c-.133.236-.048.535.19.666" id="Fill-4"/><path d="M13.848 26.792l.227-.41c.13-.236.046-.533-.19-.664-.238-.134-.534-.046-.666.19l-.23.41c-.13.236-.045.534.19.665.077.042.158.06.238.06.172 0 .34-.09.428-.25" id="Fill-5"/><path d="M14.51 30.87c-.236-.132-.534-.047-.665.19l-.12.214c-.13.237-.044.535.193.666.075.04.156.06.236.06.172 0 .34-.09.43-.252l.12-.214c.13-.236.044-.534-.193-.665" id="Fill-6"/><path d="M17.3 25.84c-.238-.133-.535-.047-.666.19l-.232.418c-.132.237-.046.535.19.666.075.042.157.06.237.06.17 0 .337-.09.426-.25l.233-.42c.13-.236.045-.534-.19-.665" id="Fill-7"/><path d="M15.905 28.354c-.237-.132-.534-.046-.665.19l-.232.42c-.132.236-.046.534.19.665.075.04.157.06.237.06.172 0 .34-.09.428-.25l.234-.42c.13-.24.046-.536-.192-.667" id="Fill-8"/><path d="M21.44 19.378l.232-.42c.132-.236.046-.534-.19-.665-.238-.132-.534-.046-.665.19l-.234.42c-.13.236-.046.534.19.665.077.043.158.062.24.062.17 0 .337-.09.427-.252" id="Fill-9"/><path d="M18.693 23.323c-.238-.13-.535-.045-.665.19l-.232.42c-.13.238-.045.536.19.667.076.04.157.06.238.06.172 0 .34-.09.428-.252l.232-.42c.13-.236.045-.534-.19-.665" id="Fill-10"/><path d="M20.046 21.893l.233-.42c.13-.236.043-.534-.194-.666-.236-.13-.534-.046-.665.192l-.23.42c-.133.234-.048.532.19.663.075.042.156.06.237.06.172 0 .34-.09.428-.25" id="Fill-11"/><path d="M20.708 25.97c-.235-.13-.534-.045-.665.192l-.12.214c-.13.237-.044.534.193.665.075.044.156.064.236.064.172 0 .34-.09.43-.253l.12-.213c.13-.237.044-.534-.194-.665" id="Fill-12"/><path d="M23.507 20.922c-.237-.132-.535-.045-.666.192l-.23.42c-.13.237-.046.535.19.666.076.04.157.06.237.06.173 0 .34-.09.43-.25l.232-.422c.13-.237.044-.535-.19-.666" id="Fill-13"/><path d="M24.906 18.398c-.236-.13-.534-.046-.665.19l-.23.422c-.133.237-.047.535.19.666.075.042.156.06.237.06.172 0 .34-.09.43-.25l.23-.423c.132-.236.047-.534-.19-.665" id="Fill-14"/><path d="M22.108 23.446c-.236-.13-.535-.046-.666.19l-.233.423c-.13.234-.047.532.19.663.075.042.156.06.236.06.173 0 .34-.09.43-.25l.232-.422c.13-.236.044-.534-.192-.665" id="Fill-15"/><path d="M7.545 30.87c-.235-.132-.534-.047-.665.19l-.12.214c-.13.237-.044.535.192.666.075.04.157.06.237.06.17 0 .337-.09.427-.252l.118-.214c.13-.236.046-.534-.19-.665" id="Fill-16"/><path d="M10.34 25.827c-.236-.132-.534-.046-.665.19l-.233.42c-.132.237-.046.535.19.666.076.042.158.06.238.06.172 0 .34-.09.428-.25l.233-.42c.134-.237.048-.535-.19-.666" id="Fill-17"/><path d="M8.944 28.348c-.238-.133-.535-.046-.666.19l-.233.42c-.132.237-.046.535.19.666.076.042.157.062.238.062.172 0 .34-.09.428-.252l.235-.42c.13-.237.046-.535-.19-.666" id="Fill-18"/><path d="M11.93 23.97c.13-.236.044-.534-.192-.665-.236-.13-.535-.045-.667.192l-.23.42c-.13.237-.045.535.19.666.076.04.16.06.24.06.17 0 .34-.09.43-.25l.23-.422" id="Fill-19"/><path d="M14.062 19.602c.172 0 .34-.09.43-.252l.232-.422c.13-.236.046-.534-.19-.665-.238-.13-.536-.046-.667.19l-.233.42c-.13.237-.046.537.19.668.076.043.157.063.238.063" id="Fill-20"/><path d="M12.664 22.122c.173 0 .34-.09.43-.252l.232-.42c.132-.236.046-.534-.19-.666-.237-.132-.535-.046-.666.19l-.233.42c-.132.238-.046.536.19.667.076.044.157.063.237.063" id="Fill-21"/><path d="M6.85 26.85l.12-.214c.13-.237.045-.534-.192-.665-.236-.13-.535-.044-.666.193l-.12.214c-.13.237-.044.534.192.665.075.043.157.063.238.063.172 0 .34-.09.43-.253" id="Fill-22"/><path d="M9.14 22.2c.17 0 .338-.092.428-.253l.237-.427c.13-.236.045-.534-.19-.665-.238-.132-.537-.047-.668.19l-.236.428c-.13.236-.043.534.193.665.076.04.157.06.237.06" id="Fill-23"/><path d="M7.484 24.696c.076.042.157.06.237.06.174 0 .343-.09.43-.25l.238-.427c.13-.24.046-.537-.19-.67-.24-.13-.537-.044-.668.19l-.237.43c-.13.236-.045.534.19.665" id="Fill-24"/><path d="M10.32 19.58c.076.042.157.062.237.062.173 0 .34-.09.43-.252l.236-.427c.13-.237.046-.535-.19-.666-.24-.13-.536-.046-.667.19l-.236.426c-.13.237-.046.536.19.668" id="Fill-25"/><path d="M5.46 21.785c-.237-.13-.535-.046-.666.19l-.12.215c-.13.238-.045.536.192.666.075.042.157.062.237.062.172 0 .34-.09.43-.253l.117-.214c.13-.236.046-.533-.19-.664" id="Fill-26"/><path d="M7.12 18.79c-.236-.13-.534-.045-.666.19l-.278.5c-.13.237-.045.535.19.666.077.042.16.062.24.062.17 0 .338-.09.427-.252l.277-.5c.13-.236.046-.534-.19-.665" id="Fill-27"/><path d="M23.48 2.897c-2.05 0-4.04.753-5.586 2.09-.75-2.902-3.38-4.993-6.46-4.993-2.973 0-5.557 1.946-6.394 4.77C2.147 5.31.005 7.86.005 10.834c0 2.42 1.428 4.63 3.638 5.63.064.026.133.04.202.04H7.83c-.117.235-.033.52.2.648.074.043.155.063.235.063.172 0 .34-.09.43-.253l.118-.214c.042-.077.054-.16.053-.242H11.5c-.037.202.05.413.24.518.074.042.155.062.235.062.172 0 .34-.09.43-.253l.118-.213c.02-.036.026-.075.036-.113h2.423c-.037.2.05.41.24.515.074.04.155.06.235.06.172 0 .34-.09.428-.252l.12-.214c.02-.035.025-.073.035-.11h2.394c-.118.234-.034.52.197.647.076.043.157.063.237.063.17 0 .34-.09.43-.253l.118-.214c.042-.078.054-.16.053-.243h2.47c-.054.21.03.44.228.55.075.04.157.06.238.06.172 0 .34-.09.43-.25l.117-.216c.027-.044.037-.094.047-.143h2.4c-.117.234-.033.52.198.647.076.043.157.063.237.063.172 0 .34-.09.43-.253l.117-.214c.042-.077.054-.16.053-.242h3.672c.16 0 .312-.08.404-.21.99-1.435 1.512-3.112 1.512-4.852 0-4.71-3.833-8.545-8.545-8.545zm6.366 12.627H3.953c-1.806-.86-2.97-2.69-2.97-4.692 0-2.593 1.94-4.807 4.51-5.148.2-.026.364-.173.413-.37C6.53 2.76 8.804.974 11.433.974c2.9 0 5.334 2.173 5.658 5.054.024.19.154.35.336.412.182.058.383.007.513-.135 1.45-1.566 3.42-2.428 5.54-2.428 4.173 0 7.566 3.394 7.566 7.565 0 1.455-.413 2.86-1.2 4.082z" id="Fill-28"/></g><g fill="#67737B"><path d="M12.52 68.174c-.234-.13-.533-.045-.664.19l-.12.216c-.13.236-.044.535.193.666.073.042.154.06.234.06.172 0 .34-.09.43-.25l.118-.215c.13-.236.045-.534-.192-.665" id="Fill-1"/><path d="M15.21 64.335l.227-.41c.132-.237.046-.535-.19-.666-.237-.134-.534-.048-.665.19l-.228.41c-.132.235-.046.533.19.664.076.042.158.062.238.062.172 0 .34-.09.428-.252" id="Fill-2"/><path d="M15.907 62.067c.075.042.158.062.238.062.172 0 .34-.093.43-.255l.226-.41c.133-.236.047-.534-.19-.666-.236-.13-.534-.047-.666.19l-.227.41c-.13.237-.045.535.19.666" id="Fill-3"/><path d="M17.27 59.61c.075.04.156.06.236.06.174 0 .34-.09.43-.25l.227-.41c.13-.238.046-.536-.19-.667-.238-.132-.536-.046-.667.19l-.227.41c-.133.236-.048.535.19.666" id="Fill-4"/><path d="M13.848 66.792l.227-.41c.13-.236.046-.533-.19-.664-.238-.134-.534-.046-.666.19l-.23.41c-.13.236-.045.534.19.665.077.042.158.06.238.06.172 0 .34-.09.428-.25" id="Fill-5"/><path d="M14.51 70.87c-.236-.132-.534-.047-.665.19l-.12.214c-.13.237-.044.535.193.666.075.04.156.06.236.06.172 0 .34-.09.43-.252l.12-.214c.13-.236.044-.534-.193-.665" id="Fill-6"/><path d="M17.3 65.84c-.238-.133-.535-.047-.666.19l-.232.418c-.132.237-.046.535.19.666.075.042.157.06.237.06.17 0 .337-.09.426-.25l.233-.42c.13-.236.045-.534-.19-.665" id="Fill-7"/><path d="M15.905 68.354c-.237-.132-.534-.046-.665.19l-.232.42c-.132.236-.046.534.19.665.075.04.157.06.237.06.172 0 .34-.09.428-.25l.234-.42c.13-.24.046-.536-.192-.667" id="Fill-8"/><path d="M21.44 59.378l.232-.42c.132-.236.046-.534-.19-.665-.238-.132-.534-.046-.665.19l-.234.42c-.13.236-.046.534.19.665.077.043.158.062.24.062.17 0 .337-.09.427-.252" id="Fill-9"/><path d="M18.693 63.323c-.238-.13-.535-.045-.665.19l-.232.42c-.13.238-.045.536.19.667.076.04.157.06.238.06.172 0 .34-.09.428-.252l.232-.42c.13-.236.045-.534-.19-.665" id="Fill-10"/><path d="M20.046 61.893l.233-.42c.13-.236.043-.534-.194-.666-.236-.13-.534-.046-.665.192l-.23.42c-.133.234-.048.532.19.663.075.042.156.06.237.06.172 0 .34-.09.428-.25" id="Fill-11"/><path d="M20.708 65.97c-.235-.13-.534-.045-.665.192l-.12.214c-.13.237-.044.534.193.665.075.044.156.064.236.064.172 0 .34-.09.43-.253l.12-.213c.13-.237.044-.534-.194-.665" id="Fill-12"/><path d="M23.507 60.922c-.237-.132-.535-.045-.666.192l-.23.42c-.13.237-.046.535.19.666.076.04.157.06.237.06.173 0 .34-.09.43-.25l.232-.422c.13-.237.044-.535-.19-.666" id="Fill-13"/><path d="M24.906 58.398c-.236-.13-.534-.046-.665.19l-.23.422c-.133.237-.047.535.19.666.075.042.156.06.237.06.172 0 .34-.09.43-.25l.23-.423c.132-.236.047-.534-.19-.665" id="Fill-14"/><path d="M22.108 63.446c-.236-.13-.535-.046-.666.19l-.233.423c-.13.234-.047.532.19.663.075.042.156.06.236.06.173 0 .34-.09.43-.25l.232-.422c.13-.236.044-.534-.192-.665" id="Fill-15"/><path d="M7.545 70.87c-.235-.132-.534-.047-.665.19l-.12.214c-.13.237-.044.535.192.666.075.04.157.06.237.06.17 0 .337-.09.427-.252l.118-.214c.13-.236.046-.534-.19-.665" id="Fill-16"/><path d="M10.34 65.827c-.236-.132-.534-.046-.665.19l-.233.42c-.132.237-.046.535.19.666.076.042.158.06.238.06.172 0 .34-.09.428-.25l.233-.42c.134-.237.048-.535-.19-.666" id="Fill-17"/><path d="M8.944 68.348c-.238-.133-.535-.046-.666.19l-.233.42c-.132.237-.046.535.19.666.076.042.157.062.238.062.172 0 .34-.09.428-.252l.235-.42c.13-.237.046-.535-.19-.666" id="Fill-18"/><path d="M11.93 63.97c.13-.236.044-.534-.192-.665-.236-.13-.535-.045-.667.192l-.23.42c-.13.237-.045.535.19.666.076.04.16.06.24.06.17 0 .34-.09.43-.25l.23-.422" id="Fill-19"/><path d="M14.062 59.602c.172 0 .34-.09.43-.252l.232-.422c.13-.236.046-.534-.19-.665-.238-.13-.536-.046-.667.19l-.233.42c-.13.237-.046.537.19.668.076.043.157.063.238.063" id="Fill-20"/><path d="M12.664 62.122c.173 0 .34-.09.43-.252l.232-.42c.132-.236.046-.534-.19-.666-.237-.132-.535-.046-.666.19l-.233.42c-.132.238-.046.536.19.667.076.044.157.063.237.063" id="Fill-21"/><path d="M6.85 66.85l.12-.214c.13-.237.045-.534-.192-.665-.236-.13-.535-.044-.666.193l-.12.214c-.13.237-.044.534.192.665.075.043.157.063.238.063.172 0 .34-.09.43-.253" id="Fill-22"/><path d="M9.14 62.2c.17 0 .338-.092.428-.253l.237-.427c.13-.236.045-.534-.19-.665-.238-.132-.537-.047-.668.19l-.236.428c-.13.236-.043.534.193.665.076.04.157.06.237.06" id="Fill-23"/><path d="M7.484 64.696c.076.042.157.06.237.06.174 0 .343-.09.43-.25l.238-.427c.13-.24.046-.537-.19-.67-.24-.13-.537-.044-.668.19l-.237.43c-.13.236-.045.534.19.665" id="Fill-24"/><path d="M10.32 59.58c.076.042.157.062.237.062.173 0 .34-.09.43-.252l.236-.427c.13-.237.046-.535-.19-.666-.24-.13-.536-.046-.667.19l-.236.426c-.13.237-.046.536.19.668" id="Fill-25"/><path d="M5.46 61.785c-.237-.13-.535-.046-.666.19l-.12.215c-.13.238-.045.536.192.666.075.042.157.062.237.062.172 0 .34-.09.43-.253l.117-.214c.13-.236.046-.533-.19-.664" id="Fill-26"/><path d="M7.12 58.79c-.236-.13-.534-.045-.666.19l-.278.5c-.13.237-.045.535.19.666.077.042.16.062.24.062.17 0 .338-.09.427-.252l.277-.5c.13-.236.046-.534-.19-.665" id="Fill-27"/><path d="M23.48 42.897c-2.05 0-4.04.753-5.586 2.09-.75-2.902-3.38-4.993-6.46-4.993-2.973 0-5.557 1.946-6.394 4.77-2.893.546-5.035 3.096-5.035 6.07 0 2.42 1.428 4.63 3.638 5.63.064.026.133.04.202.04H7.83c-.117.235-.033.52.2.648.074.043.155.063.235.063.172 0 .34-.09.43-.253l.118-.214c.042-.077.054-.16.053-.242H11.5c-.037.202.05.413.24.518.074.042.155.062.235.062.172 0 .34-.09.43-.253l.118-.213c.02-.036.026-.075.036-.113h2.423c-.037.2.05.41.24.515.074.04.155.06.235.06.172 0 .34-.09.428-.252l.12-.214c.02-.035.025-.073.035-.11h2.394c-.118.234-.034.52.197.647.076.043.157.063.237.063.17 0 .34-.09.43-.253l.118-.214c.042-.078.054-.16.053-.243h2.47c-.054.21.03.44.228.55.075.04.157.06.238.06.172 0 .34-.09.43-.25l.117-.216c.027-.044.037-.094.047-.143h2.4c-.117.234-.033.52.198.647.076.043.157.063.237.063.172 0 .34-.09.43-.253l.117-.214c.042-.077.054-.16.053-.242h3.672c.16 0 .312-.08.404-.21.99-1.435 1.512-3.112 1.512-4.852 0-4.71-3.833-8.545-8.545-8.545zm6.366 12.627H3.953c-1.806-.86-2.97-2.69-2.97-4.692 0-2.593 1.94-4.807 4.51-5.148.2-.026.364-.173.413-.37.625-2.555 2.898-4.34 5.527-4.34 2.9 0 5.334 2.172 5.658 5.053.024.19.154.35.336.412.182.057.383.006.513-.136 1.45-1.566 3.42-2.428 5.54-2.428 4.173 0 7.566 3.394 7.566 7.565 0 1.456-.413 2.86-1.2 4.083z" id="Fill-28"/></g><g fill="#fff"><path d="M12.52 108.174c-.234-.13-.533-.045-.664.19l-.12.216c-.13.236-.044.535.193.666.073.042.154.06.234.06.172 0 .34-.09.43-.25l.118-.215c.13-.236.045-.534-.192-.665"/><path d="M15.21 104.335l.227-.41c.132-.237.046-.535-.19-.666-.237-.134-.534-.048-.665.19l-.228.41c-.132.235-.046.533.19.664.076.042.158.062.238.062.172 0 .34-.09.428-.252"/><path d="M15.907 102.067c.075.042.158.062.238.062.172 0 .34-.093.43-.255l.226-.41c.133-.236.047-.534-.19-.666-.236-.13-.534-.047-.666.19l-.227.41c-.13.237-.045.535.19.666"/><path d="M17.27 99.61c.075.04.156.06.236.06.174 0 .34-.09.43-.25l.227-.41c.13-.238.046-.536-.19-.667-.238-.132-.536-.046-.667.19l-.227.41c-.133.236-.048.535.19.666"/><path d="M13.848 106.792l.227-.41c.13-.236.046-.533-.19-.664-.238-.134-.534-.046-.666.19l-.23.41c-.13.236-.045.534.19.665.077.042.158.06.238.06.172 0 .34-.09.428-.25"/><path d="M14.51 110.87c-.236-.132-.534-.047-.665.19l-.12.214c-.13.237-.044.535.193.666.075.04.156.06.236.06.172 0 .34-.09.43-.252l.12-.214c.13-.236.044-.534-.193-.665"/><path d="M17.3 105.84c-.238-.133-.535-.047-.666.19l-.232.418c-.132.237-.046.535.19.666.075.042.157.06.237.06.17 0 .337-.09.426-.25l.233-.42c.13-.236.045-.534-.19-.665"/><path d="M15.905 108.354c-.237-.132-.534-.046-.665.19l-.232.42c-.132.236-.046.534.19.665.075.04.157.06.237.06.172 0 .34-.09.428-.25l.234-.42c.13-.24.046-.536-.192-.667"/><path d="M21.44 99.378l.232-.42c.132-.236.046-.534-.19-.665-.238-.132-.534-.046-.665.19l-.234.42c-.13.236-.046.534.19.665.077.043.158.062.24.062.17 0 .337-.09.427-.252"/><path d="M18.693 103.323c-.238-.13-.535-.045-.665.19l-.232.42c-.13.238-.045.536.19.667.076.04.157.06.238.06.172 0 .34-.09.428-.252l.232-.42c.13-.236.045-.534-.19-.665"/><path d="M20.046 101.893l.233-.42c.13-.236.043-.534-.194-.666-.236-.13-.534-.046-.665.192l-.23.42c-.133.234-.048.532.19.663.075.042.156.06.237.06.172 0 .34-.09.428-.25"/><path d="M20.708 105.97c-.235-.13-.534-.045-.665.192l-.12.214c-.13.237-.044.534.193.665.075.044.156.064.236.064.172 0 .34-.09.43-.253l.12-.213c.13-.237.044-.534-.194-.665"/><path d="M23.507 100.922c-.237-.132-.535-.045-.666.192l-.23.42c-.13.237-.046.535.19.666.076.04.157.06.237.06.173 0 .34-.09.43-.25l.232-.422c.13-.237.044-.535-.19-.666"/><path d="M24.906 98.398c-.236-.13-.534-.046-.665.19l-.23.422c-.133.237-.047.535.19.666.075.042.156.06.237.06.172 0 .34-.09.43-.25l.23-.423c.132-.236.047-.534-.19-.665"/><path d="M22.108 103.446c-.236-.13-.535-.046-.666.19l-.233.423c-.13.234-.047.532.19.663.075.042.156.06.236.06.173 0 .34-.09.43-.25l.232-.422c.13-.236.044-.534-.192-.665"/><path d="M7.545 110.87c-.235-.132-.534-.047-.665.19l-.12.214c-.13.237-.044.535.192.666.075.04.157.06.237.06.17 0 .337-.09.427-.252l.118-.214c.13-.236.046-.534-.19-.665"/><path d="M10.34 105.827c-.236-.132-.534-.046-.665.19l-.233.42c-.132.237-.046.535.19.666.076.042.158.06.238.06.172 0 .34-.09.428-.25l.233-.42c.134-.237.048-.535-.19-.666"/><path d="M8.944 108.348c-.238-.133-.535-.046-.666.19l-.233.42c-.132.237-.046.535.19.666.076.042.157.062.238.062.172 0 .34-.09.428-.252l.235-.42c.13-.237.046-.535-.19-.666"/><path d="M11.93 103.97c.13-.236.044-.534-.192-.665-.236-.13-.535-.045-.667.192l-.23.42c-.13.237-.045.535.19.666.076.04.16.06.24.06.17 0 .34-.09.43-.25l.23-.422"/><path d="M14.062 99.602c.172 0 .34-.09.43-.252l.232-.422c.13-.236.046-.534-.19-.665-.238-.13-.536-.046-.667.19l-.233.42c-.13.237-.046.537.19.668.076.043.157.063.238.063"/><path d="M12.664 102.122c.173 0 .34-.09.43-.252l.232-.42c.132-.236.046-.534-.19-.666-.237-.132-.535-.046-.666.19l-.233.42c-.132.238-.046.536.19.667.076.044.157.063.237.063"/><path d="M6.85 106.85l.12-.214c.13-.237.045-.534-.192-.665-.236-.13-.535-.044-.666.193l-.12.214c-.13.237-.044.534.192.665.075.043.157.063.238.063.172 0 .34-.09.43-.253"/><path d="M9.14 102.2c.17 0 .338-.092.428-.253l.237-.427c.13-.236.045-.534-.19-.665-.238-.132-.537-.047-.668.19l-.236.428c-.13.236-.043.534.193.665.076.04.157.06.237.06"/><path d="M7.484 104.696c.076.042.157.06.237.06.174 0 .343-.09.43-.25l.238-.427c.13-.24.046-.537-.19-.67-.24-.13-.537-.044-.668.19l-.237.43c-.13.236-.045.534.19.665"/><path d="M10.32 99.58c.076.042.157.062.237.062.173 0 .34-.09.43-.252l.236-.427c.13-.237.046-.535-.19-.666-.24-.13-.536-.046-.667.19l-.236.426c-.13.237-.046.536.19.668"/><path d="M5.46 101.785c-.237-.13-.535-.046-.666.19l-.12.215c-.13.238-.045.536.192.666.075.042.157.062.237.062.172 0 .34-.09.43-.253l.117-.214c.13-.236.046-.533-.19-.664"/><path d="M7.12 98.79c-.236-.13-.534-.045-.666.19l-.278.5c-.13.237-.045.535.19.666.077.042.16.062.24.062.17 0 .338-.09.427-.252l.277-.5c.13-.236.046-.534-.19-.665"/><path d="M23.48 82.897c-2.05 0-4.04.753-5.586 2.09-.75-2.902-3.38-4.993-6.46-4.993-2.973 0-5.557 1.946-6.394 4.77-2.893.546-5.035 3.096-5.035 6.07 0 2.42 1.428 4.63 3.638 5.63.064.026.133.04.202.04H7.83c-.117.235-.033.52.2.648.074.043.155.063.235.063.172 0 .34-.09.43-.253l.118-.214c.042-.077.054-.16.053-.242H11.5c-.037.202.05.413.24.518.074.042.155.062.235.062.172 0 .34-.09.43-.253l.118-.213c.02-.036.026-.075.036-.113h2.423c-.037.2.05.41.24.515.074.04.155.06.235.06.172 0 .34-.09.428-.252l.12-.214c.02-.035.025-.073.035-.11h2.394c-.118.234-.034.52.197.647.076.043.157.063.237.063.17 0 .34-.09.43-.253l.118-.214c.042-.078.054-.16.053-.243h2.47c-.054.21.03.44.228.55.075.04.157.06.238.06.172 0 .34-.09.43-.25l.117-.216c.027-.044.037-.094.047-.143h2.4c-.117.234-.033.52.198.647.076.043.157.063.237.063.172 0 .34-.09.43-.253l.117-.214c.042-.077.054-.16.053-.242h3.672c.16 0 .312-.08.404-.21.99-1.435 1.512-3.112 1.512-4.852 0-4.71-3.833-8.545-8.545-8.545zm6.366 12.627H3.953c-1.806-.86-2.97-2.69-2.97-4.692 0-2.593 1.94-4.807 4.51-5.148.2-.026.364-.173.413-.37.625-2.555 2.898-4.34 5.527-4.34 2.9 0 5.334 2.172 5.658 5.053.024.19.154.35.336.412.182.057.383.006.513-.136 1.45-1.566 3.42-2.428 5.54-2.428 4.173 0 7.566 3.394 7.566 7.565 0 1.456-.413 2.86-1.2 4.083z"/></g><g fill="#206FAC"><path d="M12.52 148.174c-.234-.13-.533-.045-.664.19l-.12.216c-.13.236-.044.535.193.666.073.042.154.06.234.06.172 0 .34-.09.43-.25l.118-.215c.13-.236.045-.534-.192-.665M15.21 144.335l.227-.41c.132-.237.046-.535-.19-.666-.237-.134-.534-.048-.665.19l-.228.41c-.132.235-.046.533.19.664.076.042.158.062.238.062.172 0 .34-.09.428-.252M15.907 142.067c.075.042.158.062.238.062.172 0 .34-.093.43-.255l.226-.41c.133-.236.047-.534-.19-.666-.236-.13-.534-.047-.666.19l-.227.41c-.13.237-.045.535.19.666M17.27 139.61c.075.04.156.06.236.06.174 0 .34-.09.43-.25l.227-.41c.13-.238.046-.536-.19-.667-.238-.132-.536-.046-.667.19l-.227.41c-.133.236-.048.535.19.666M13.848 146.792l.227-.41c.13-.236.046-.533-.19-.664-.238-.134-.534-.046-.666.19l-.23.41c-.13.236-.045.534.19.665.077.042.158.06.238.06.172 0 .34-.09.428-.25M14.51 150.87c-.236-.132-.534-.047-.665.19l-.12.214c-.13.237-.044.535.193.666.075.04.156.06.236.06.172 0 .34-.09.43-.252l.12-.214c.13-.236.044-.534-.193-.665M17.3 145.84c-.238-.133-.535-.047-.666.19l-.232.418c-.132.237-.046.535.19.666.075.042.157.06.237.06.17 0 .337-.09.426-.25l.233-.42c.13-.236.045-.534-.19-.665M15.905 148.354c-.237-.132-.534-.046-.665.19l-.232.42c-.132.236-.046.534.19.665.075.04.157.06.237.06.172 0 .34-.09.428-.25l.234-.42c.13-.24.046-.536-.192-.667M21.44 139.378l.232-.42c.132-.236.046-.534-.19-.665-.238-.132-.534-.046-.665.19l-.234.42c-.13.236-.046.534.19.665.077.043.158.062.24.062.17 0 .337-.09.427-.252M18.693 143.323c-.238-.13-.535-.045-.665.19l-.232.42c-.13.238-.045.536.19.667.076.04.157.06.238.06.172 0 .34-.09.428-.252l.232-.42c.13-.236.045-.534-.19-.665M20.046 141.893l.233-.42c.13-.236.043-.534-.194-.666-.236-.13-.534-.046-.665.192l-.23.42c-.133.234-.048.532.19.663.075.042.156.06.237.06.172 0 .34-.09.428-.25M20.708 145.97c-.235-.13-.534-.045-.665.192l-.12.214c-.13.237-.044.534.193.665.075.044.156.064.236.064.172 0 .34-.09.43-.253l.12-.213c.13-.237.044-.534-.194-.665M23.507 140.922c-.237-.132-.535-.045-.666.192l-.23.42c-.13.237-.046.535.19.666.076.04.157.06.237.06.173 0 .34-.09.43-.25l.232-.422c.13-.237.044-.535-.19-.666M24.906 138.398c-.236-.13-.534-.046-.665.19l-.23.422c-.133.237-.047.535.19.666.075.042.156.06.237.06.172 0 .34-.09.43-.25l.23-.423c.132-.236.047-.534-.19-.665M22.108 143.446c-.236-.13-.535-.046-.666.19l-.233.423c-.13.234-.047.532.19.663.075.042.156.06.236.06.173 0 .34-.09.43-.25l.232-.422c.13-.236.044-.534-.192-.665M7.545 150.87c-.235-.132-.534-.047-.665.19l-.12.214c-.13.237-.044.535.192.666.075.04.157.06.237.06.17 0 .337-.09.427-.252l.118-.214c.13-.236.046-.534-.19-.665M10.34 145.827c-.236-.132-.534-.046-.665.19l-.233.42c-.132.237-.046.535.19.666.076.042.158.06.238.06.172 0 .34-.09.428-.25l.233-.42c.134-.237.048-.535-.19-.666M8.944 148.348c-.238-.133-.535-.046-.666.19l-.233.42c-.132.237-.046.535.19.666.076.042.157.062.238.062.172 0 .34-.09.428-.252l.235-.42c.13-.237.046-.535-.19-.666M11.93 143.97c.13-.236.044-.534-.192-.665-.236-.13-.535-.045-.667.192l-.23.42c-.13.237-.045.535.19.666.076.04.16.06.24.06.17 0 .34-.09.43-.25l.23-.422M14.062 139.602c.172 0 .34-.09.43-.252l.232-.422c.13-.236.046-.534-.19-.665-.238-.13-.536-.046-.667.19l-.233.42c-.13.237-.046.537.19.668.076.043.157.063.238.063M12.664 142.122c.173 0 .34-.09.43-.252l.232-.42c.132-.236.046-.534-.19-.666-.237-.132-.535-.046-.666.19l-.233.42c-.132.238-.046.536.19.667.076.044.157.063.237.063M6.85 146.85l.12-.214c.13-.237.045-.534-.192-.665-.236-.13-.535-.044-.666.193l-.12.214c-.13.237-.044.534.192.665.075.043.157.063.238.063.172 0 .34-.09.43-.253M9.14 142.2c.17 0 .338-.092.428-.253l.237-.427c.13-.236.045-.534-.19-.665-.238-.132-.537-.047-.668.19l-.236.428c-.13.236-.043.534.193.665.076.04.157.06.237.06M7.484 144.696c.076.042.157.06.237.06.174 0 .343-.09.43-.25l.238-.427c.13-.24.046-.537-.19-.67-.24-.13-.537-.044-.668.19l-.237.43c-.13.236-.045.534.19.665M10.32 139.58c.076.042.157.062.237.062.173 0 .34-.09.43-.252l.236-.427c.13-.237.046-.535-.19-.666-.24-.13-.536-.046-.667.19l-.236.426c-.13.237-.046.536.19.668M5.46 141.785c-.237-.13-.535-.046-.666.19l-.12.215c-.13.238-.045.536.192.666.075.042.157.062.237.062.172 0 .34-.09.43-.253l.117-.214c.13-.236.046-.533-.19-.664M7.12 138.79c-.236-.13-.534-.045-.666.19l-.278.5c-.13.237-.045.535.19.666.077.042.16.062.24.062.17 0 .338-.09.427-.252l.277-.5c.13-.236.046-.534-.19-.665"/><path d="M23.48 122.897c-2.05 0-4.04.753-5.586 2.09-.75-2.902-3.38-4.993-6.46-4.993-2.973 0-5.557 1.946-6.394 4.77-2.893.544-5.035 3.095-5.035 6.068 0 2.42 1.428 4.63 3.638 5.63.064.027.133.042.202.042H7.83c-.117.234-.033.52.2.647.074.044.155.064.235.064.172 0 .34-.09.43-.253l.118-.213c.042-.077.054-.16.053-.242H11.5c-.037.202.05.413.24.518.074.042.155.062.235.062.172 0 .34-.09.43-.253l.118-.213c.02-.037.026-.076.036-.114h2.423c-.037.2.05.41.24.515.074.04.155.06.235.06.172 0 .34-.09.428-.25l.12-.215c.02-.035.025-.073.035-.11h2.394c-.118.234-.034.52.197.647.076.043.157.063.237.063.17 0 .34-.09.43-.253l.118-.214c.042-.077.054-.16.053-.242h2.47c-.054.21.03.44.228.55.075.04.157.06.238.06.172 0 .34-.09.43-.25l.117-.216c.027-.045.037-.095.047-.144h2.4c-.117.234-.033.52.198.647.076.043.157.063.237.063.172 0 .34-.09.43-.253l.117-.214c.042-.078.054-.16.053-.243h3.672c.16 0 .312-.08.404-.21.99-1.435 1.512-3.112 1.512-4.852 0-4.71-3.833-8.545-8.545-8.545zm6.366 12.627H3.953c-1.806-.86-2.97-2.69-2.97-4.692 0-2.593 1.94-4.807 4.51-5.148.2-.026.364-.173.413-.37.625-2.555 2.898-4.34 5.527-4.34 2.9 0 5.334 2.172 5.658 5.053.024.19.154.35.336.412.182.057.383.006.513-.136 1.45-1.566 3.42-2.428 5.54-2.428 4.173 0 7.566 3.394 7.566 7.565 0 1.456-.413 2.86-1.2 4.083z"/></g></g></svg>