<svg width="32" height="232" viewBox="0 0 32 232" xmlns="http://www.w3.org/2000/svg"><g fill="none" fill-rule="evenodd"><path d="M23.46 9.3c-2.048 0-4.037.753-5.582 2.09-.75-2.902-3.378-4.99-6.457-4.99-2.97 0-5.55 1.944-6.387 4.767C2.143 11.71 0 14.26 0 17.23c0 2.42 1.428 4.627 3.636 5.625.064.03.133.044.202.044h2.16c.717 1.433 1.996 2.554 3.618 3.05.046.015.094.022.143.022h15.643c.103 0 .203-.033.287-.093.97-.7 1.568-1.8 1.644-2.98h2.75c.162 0 .312-.08.404-.213.99-1.433 1.512-3.11 1.512-4.848 0-4.71-3.83-8.54-8.54-8.54zm1.78 15.694H9.833c-2.09-.672-3.49-2.59-3.49-4.793 0-2.774 2.257-5.032 5.033-5.032 1.768 0 3.427.95 4.33 2.476.08.135.22.224.376.238.158.015.31-.044.413-.162.595-.673 1.447-1.06 2.338-1.06 1.55 0 2.878 1.16 3.087 2.696.02.14.1.266.218.343.12.077.267.1.402.06.274-.08.55-.12.823-.12 1.658 0 3.007 1.35 3.007 3.01 0 .91-.42 1.775-1.13 2.345zm4.583-3.074H27.28c-.344-1.85-1.968-3.257-3.917-3.257-.19 0-.384.014-.576.043-.478-1.757-2.093-3.026-3.953-3.026-.963 0-1.89.342-2.623.954-1.124-1.522-2.925-2.446-4.832-2.446-3.315 0-6.013 2.697-6.013 6.013 0 .597.09 1.174.25 1.72H3.947C2.14 21.06.98 19.23.98 17.23c0-2.592 1.937-4.803 4.506-5.144.2-.027.363-.173.412-.37.624-2.553 2.896-4.337 5.523-4.337 2.9 0 5.333 2.17 5.657 5.05.022.19.152.35.334.41.18.057.383.007.513-.134 1.45-1.565 3.42-2.427 5.54-2.427 4.168 0 7.56 3.39 7.56 7.56 0 1.453-.414 2.86-1.2 4.08z" fill="#3B444F"/><path d="M23.46 49.3c-2.048 0-4.037.753-5.582 2.09-.75-2.902-3.378-4.99-6.457-4.99-2.97 0-5.55 1.944-6.387 4.767C2.143 51.71 0 54.26 0 57.23c0 2.42 1.428 4.627 3.636 5.625.064.03.133.044.202.044h2.16c.717 1.433 1.996 2.554 3.618 3.05.046.015.094.022.143.022h15.643c.103 0 .203-.033.287-.093.97-.7 1.568-1.8 1.644-2.98h2.75c.162 0 .312-.08.404-.213.99-1.433 1.512-3.11 1.512-4.848 0-4.71-3.83-8.54-8.54-8.54zm1.78 15.694H9.833c-2.09-.672-3.49-2.59-3.49-4.793 0-2.774 2.257-5.032 5.033-5.032 1.768 0 3.427.95 4.33 2.476.08.135.22.224.376.238.158.015.31-.044.413-.162.595-.673 1.447-1.06 2.338-1.06 1.55 0 2.878 1.16 3.087 2.696.02.14.1.266.218.343.12.077.267.1.402.06.274-.08.55-.12.823-.12 1.658 0 3.007 1.35 3.007 3.01 0 .91-.42 1.775-1.13 2.345zm4.583-3.074H27.28c-.344-1.85-1.968-3.257-3.917-3.257-.19 0-.384.014-.576.043-.478-1.757-2.093-3.026-3.953-3.026-.963 0-1.89.342-2.623.954-1.124-1.522-2.925-2.446-4.832-2.446-3.315 0-6.013 2.697-6.013 6.013 0 .597.09 1.174.25 1.72H3.947C2.14 61.06.98 59.23.98 57.23c0-2.592 1.937-4.803 4.506-5.144.2-.027.363-.173.412-.37.624-2.553 2.896-4.337 5.523-4.337 2.9 0 5.333 2.17 5.657 5.05.022.19.152.35.334.41.18.057.383.007.513-.134 1.45-1.565 3.42-2.427 5.54-2.427 4.168 0 7.56 3.39 7.56 7.56 0 1.453-.414 2.86-1.2 4.08z" fill="#67737B"/><path d="M23.46 89.3c-2.048 0-4.037.753-5.582 2.09-.75-2.902-3.378-4.99-6.457-4.99-2.97 0-5.55 1.944-6.387 4.767C2.143 91.71 0 94.26 0 97.23c0 2.42 1.428 4.627 3.636 5.625.064.03.133.044.202.044h2.16c.717 1.433 1.996 2.554 3.618 3.05.046.015.094.022.143.022h15.643c.103 0 .203-.033.287-.093.97-.7 1.568-1.8 1.644-2.98h2.75c.162 0 .312-.08.404-.213.99-1.433 1.512-3.11 1.512-4.848 0-4.71-3.83-8.54-8.54-8.54zm1.78 15.694H9.833c-2.09-.672-3.49-2.59-3.49-4.793 0-2.774 2.257-5.032 5.033-5.032 1.768 0 3.427.95 4.33 2.476.08.135.22.224.376.238.158.015.31-.044.413-.162.595-.673 1.447-1.06 2.338-1.06 1.55 0 2.878 1.16 3.087 2.696.02.14.1.266.218.343.12.077.267.1.402.06.274-.08.55-.12.823-.12 1.658 0 3.007 1.35 3.007 3.01 0 .91-.42 1.775-1.13 2.345zm4.583-3.074H27.28c-.344-1.85-1.968-3.257-3.917-3.257-.19 0-.384.014-.576.043-.478-1.757-2.093-3.026-3.953-3.026-.963 0-1.89.342-2.623.954-1.124-1.522-2.925-2.446-4.832-2.446-3.315 0-6.013 2.697-6.013 6.013 0 .597.09 1.174.25 1.72H3.947C2.14 101.06.98 99.23.98 97.23c0-2.592 1.937-4.803 4.506-5.144.2-.027.363-.173.412-.37.624-2.553 2.896-4.337 5.523-4.337 2.9 0 5.333 2.17 5.657 5.05.022.19.152.35.334.41.18.057.383.007.513-.134 1.45-1.565 3.42-2.427 5.54-2.427 4.168 0 7.56 3.39 7.56 7.56 0 1.453-.414 2.86-1.2 4.08z" fill="#fff"/><path d="M23.46 129.3c-2.048 0-4.037.753-5.582 2.09-.75-2.902-3.378-4.99-6.457-4.99-2.97 0-5.55 1.944-6.387 4.767C2.143 131.71 0 134.26 0 137.23c0 2.42 1.428 4.627 3.636 5.625.064.03.133.044.202.044h2.16c.717 1.433 1.996 2.554 3.618 3.05.046.015.094.022.143.022h15.643c.103 0 .203-.033.287-.093.97-.7 1.568-1.8 1.644-2.98h2.75c.162 0 .312-.08.404-.213.99-1.433 1.512-3.11 1.512-4.848 0-4.71-3.83-8.54-8.54-8.54zm1.78 15.694H9.833c-2.09-.672-3.49-2.59-3.49-4.793 0-2.774 2.257-5.032 5.033-5.032 1.768 0 3.427.95 4.33 2.476.08.135.22.224.376.238.158.015.31-.044.413-.162.595-.673 1.447-1.06 2.338-1.06 1.55 0 2.878 1.16 3.087 2.696.02.14.1.266.218.343.12.077.267.1.402.06.274-.08.55-.12.823-.12 1.658 0 3.007 1.35 3.007 3.01 0 .91-.42 1.775-1.13 2.345zm4.583-3.074H27.28c-.344-1.85-1.968-3.257-3.917-3.257-.19 0-.384.014-.576.043-.478-1.757-2.093-3.026-3.953-3.026-.963 0-1.89.342-2.623.954-1.124-1.522-2.925-2.446-4.832-2.446-3.315 0-6.013 2.697-6.013 6.013 0 .597.09 1.174.25 1.72H3.947C2.14 141.06.98 139.23.98 137.23c0-2.592 1.937-4.803 4.506-5.144.2-.027.363-.173.412-.37.624-2.553 2.896-4.337 5.523-4.337 2.9 0 5.333 2.17 5.657 5.05.022.19.152.35.334.41.18.057.383.007.513-.134 1.45-1.565 3.42-2.427 5.54-2.427 4.168 0 7.56 3.39 7.56 7.56 0 1.453-.414 2.86-1.2 4.08z" fill="#206FAC"/></g></svg>