<svg width="32" height="232" viewBox="0 0 32 232" xmlns="http://www.w3.org/2000/svg"><g fill="none" fill-rule="evenodd"><g id="Imported-Layers" fill="#206FAC"><path d="M15.556 128.02c.812 0 1.543.15 2.005.412.616.35 1.536.55 2.525.55v.175l.003-.176c.99 0 1.91-.2 2.525-.547.462-.262 1.194-.413 2.007-.413.812 0 1.542.15 2.003.412.615.35 1.535.55 2.526.55.99 0 1.91-.2 2.524-.55.122-.07.21-.183.248-.32.038-.135.02-.277-.05-.4-.138-.244-.473-.337-.72-.198-.46.262-1.19.413-2.004.413-.814 0-1.545-.15-2.006-.413-.614-.35-1.535-.55-2.526-.55-.99 0-1.912.2-2.526.55-.462.262-1.193.413-2.005.413-.813 0-1.544-.15-2.005-.413-.615-.35-1.535-.55-2.526-.55-.99 0-1.912.2-2.526.55-.462.262-1.192.413-2.005.413s-1.544-.15-2.005-.413c-.615-.35-1.536-.55-2.526-.55-.99 0-1.912.2-2.527.55-.122.07-.21.182-.248.318-.038.136-.02.28.05.402.137.243.472.337.718.198.462-.262 1.193-.412 2.006-.412.814 0 1.545.15 2.006.412.613.35 1.534.55 2.525.55.99 0 1.91-.2 2.527-.55.462-.262 1.193-.412 2.006-.412" id="Fill-1"/><path d="M11.877 136.207c.812 0 1.543.15 2.004.412.617.35 1.537.55 2.528.55.99 0 1.91-.2 2.526-.55.46-.264 1.192-.414 2.005-.414s1.543.15 2.004.413c.615.35 1.535.55 2.526.55.99 0 1.91-.2 2.525-.55.253-.145.342-.468.198-.72-.137-.245-.473-.34-.72-.2-.46.263-1.192.413-2.004.413-.815 0-1.546-.15-2.007-.412-.615-.35-1.535-.55-2.526-.55-.99 0-1.91.2-2.526.55-.46.263-1.19.413-2.004.413s-1.544-.15-2.005-.412c-.614-.35-1.534-.55-2.525-.55-.99 0-1.912.2-2.526.55-.463.263-1.194.413-2.006.413-.813 0-1.544-.15-2.006-.412-.615-.35-1.536-.55-2.526-.55-.99 0-1.912.2-2.526.55-.123.07-.21.183-.248.32-.038.135-.02.277.05.4.138.243.473.34.718.2.462-.264 1.193-.414 2.006-.414.813 0 1.543.15 2.005.413.613.35 1.534.55 2.525.55.99 0 1.91-.2 2.526-.55.462-.263 1.194-.414 2.007-.414" id="Fill-2"/><path d="M15.576 144.394c.812 0 1.543.15 2.005.413.616.35 1.537.55 2.528.55.99 0 1.91-.2 2.525-.55.462-.262 1.193-.413 2.006-.413.812 0 1.543.15 2.004.413.614.35 1.535.55 2.526.55.99 0 1.91-.2 2.525-.55.122-.07.21-.183.248-.32.037-.135.02-.277-.05-.4-.138-.243-.473-.337-.72-.198-.46.26-1.19.41-2.004.41-.815 0-1.546-.15-2.007-.412-.615-.35-1.535-.55-2.526-.55-.99 0-1.912.2-2.526.55-.46.26-1.192.412-2.004.412-.813 0-1.544-.15-2.005-.413-.614-.35-1.534-.55-2.525-.55-.99 0-1.912.2-2.526.55-.46.26-1.193.412-2.006.412s-1.544-.15-2.006-.414c-.615-.35-1.536-.55-2.527-.55-.99 0-1.91.2-2.525.55-.252.143-.34.465-.198.718.137.244.472.338.718.2.46-.263 1.193-.414 2.006-.414.814 0 1.544.15 2.006.413.613.35 1.534.55 2.525.55.99 0 1.91-.2 2.526-.55.462-.262 1.193-.413 2.006-.413" id="Fill-3"/></g><g id="Imported-Layers" fill="#fff"><path d="M15.556 88.02c.812 0 1.543.15 2.005.412.616.35 1.536.55 2.525.55v.175l.003-.176c.99 0 1.91-.2 2.525-.547.462-.262 1.194-.413 2.007-.413.812 0 1.542.15 2.003.412.615.35 1.535.55 2.526.55.99 0 1.91-.2 2.524-.55.122-.07.21-.183.248-.32.038-.135.02-.277-.05-.4-.138-.244-.473-.337-.72-.198-.46.262-1.19.413-2.004.413-.814 0-1.545-.15-2.006-.413-.614-.35-1.535-.55-2.526-.55-.99 0-1.912.2-2.526.55-.462.262-1.193.413-2.005.413-.813 0-1.544-.15-2.005-.413-.615-.35-1.535-.55-2.526-.55-.99 0-1.912.2-2.526.55-.462.262-1.192.413-2.005.413s-1.544-.15-2.005-.413c-.615-.35-1.536-.55-2.526-.55-.99 0-1.912.2-2.527.55-.122.07-.21.182-.248.318-.038.136-.02.28.05.402.137.243.472.337.718.198.462-.262 1.193-.412 2.006-.412.814 0 1.545.15 2.006.412.613.35 1.534.55 2.525.55.99 0 1.91-.2 2.527-.55.462-.262 1.193-.412 2.006-.412" id="Fill-1"/><path d="M11.877 96.207c.812 0 1.543.15 2.004.412.617.35 1.537.55 2.528.55.99 0 1.91-.2 2.526-.55.46-.263 1.192-.414 2.005-.414s1.543.15 2.004.413c.615.35 1.535.55 2.526.55.99 0 1.91-.2 2.525-.55.253-.145.342-.468.198-.72-.137-.245-.473-.34-.72-.2-.46.263-1.192.413-2.004.413-.815 0-1.546-.15-2.007-.412-.615-.35-1.535-.55-2.526-.55-.99 0-1.91.2-2.526.55-.46.263-1.19.413-2.004.413s-1.544-.15-2.005-.412c-.614-.35-1.534-.55-2.525-.55-.99 0-1.912.2-2.526.55-.463.263-1.194.413-2.006.413-.813 0-1.544-.15-2.006-.412-.615-.35-1.536-.55-2.526-.55-.99 0-1.912.2-2.526.55-.123.07-.21.183-.248.32-.038.135-.02.277.05.4.138.243.473.34.718.2.462-.264 1.193-.414 2.006-.414.813 0 1.543.15 2.005.413.613.35 1.534.55 2.525.55.99 0 1.91-.2 2.526-.55.462-.264 1.194-.414 2.007-.414" id="Fill-2"/><path d="M15.576 104.394c.812 0 1.543.15 2.005.413.616.35 1.537.55 2.528.55.99 0 1.91-.2 2.525-.55.462-.262 1.193-.413 2.006-.413.812 0 1.543.15 2.004.413.614.35 1.535.55 2.526.55.99 0 1.91-.2 2.525-.55.122-.07.21-.183.248-.32.037-.135.02-.277-.05-.4-.138-.243-.473-.337-.72-.198-.46.26-1.19.41-2.004.41-.815 0-1.546-.15-2.007-.412-.615-.35-1.535-.55-2.526-.55-.99 0-1.912.2-2.526.55-.46.26-1.192.412-2.004.412-.813 0-1.544-.15-2.005-.413-.614-.35-1.534-.55-2.525-.55-.99 0-1.912.2-2.526.55-.46.26-1.193.412-2.006.412s-1.544-.15-2.006-.414c-.615-.35-1.536-.55-2.527-.55-.99 0-1.91.2-2.525.55-.252.143-.34.465-.198.718.137.244.472.338.718.2.46-.263 1.193-.413 2.006-.413.814 0 1.544.15 2.006.413.613.35 1.534.55 2.525.55.99 0 1.91-.2 2.526-.55.462-.262 1.193-.412 2.006-.412" id="Fill-3"/></g><g fill="#67737B"><path d="M15.556 48.02c.812 0 1.543.15 2.005.412.616.35 1.536.55 2.525.55v.175l.003-.176c.99 0 1.91-.2 2.525-.547.462-.262 1.194-.413 2.007-.413.812 0 1.542.15 2.003.412.615.35 1.535.55 2.526.55.99 0 1.91-.2 2.524-.55.122-.07.21-.183.248-.32.038-.135.02-.277-.05-.4-.138-.244-.473-.337-.72-.198-.46.262-1.19.413-2.004.413-.814 0-1.545-.15-2.006-.413-.614-.35-1.535-.55-2.526-.55-.99 0-1.912.2-2.526.55-.462.262-1.193.413-2.005.413-.813 0-1.544-.15-2.005-.413-.615-.35-1.535-.55-2.526-.55-.99 0-1.912.2-2.526.55-.462.262-1.192.413-2.005.413s-1.544-.15-2.005-.413c-.615-.35-1.536-.55-2.526-.55-.99 0-1.912.2-2.527.55-.122.07-.21.182-.248.318-.038.136-.02.28.05.402.137.243.472.337.718.198.462-.262 1.193-.412 2.006-.412.814 0 1.545.15 2.006.412.613.35 1.534.55 2.525.55.99 0 1.91-.2 2.527-.55.462-.262 1.193-.412 2.006-.412"/><path d="M11.877 56.207c.812 0 1.543.15 2.004.412.617.35 1.537.55 2.528.55.99 0 1.91-.2 2.526-.55.46-.263 1.192-.414 2.005-.414s1.543.15 2.004.413c.615.35 1.535.55 2.526.55.99 0 1.91-.2 2.525-.55.253-.145.342-.468.198-.72-.137-.245-.473-.34-.72-.2-.46.263-1.192.413-2.004.413-.815 0-1.546-.15-2.007-.412-.615-.35-1.535-.55-2.526-.55-.99 0-1.91.2-2.526.55-.46.263-1.19.413-2.004.413s-1.544-.15-2.005-.412c-.614-.35-1.534-.55-2.525-.55-.99 0-1.912.2-2.526.55-.463.263-1.194.413-2.006.413-.813 0-1.544-.15-2.006-.412-.615-.35-1.536-.55-2.526-.55-.99 0-1.912.2-2.526.55-.123.07-.21.183-.248.32-.038.135-.02.277.05.4.138.243.473.34.718.2.462-.263 1.193-.414 2.006-.414.813 0 1.543.15 2.005.413.613.35 1.534.55 2.525.55.99 0 1.91-.2 2.526-.55.462-.263 1.194-.414 2.007-.414"/><path d="M15.576 64.394c.812 0 1.543.15 2.005.413.616.35 1.537.55 2.528.55.99 0 1.91-.2 2.525-.55.462-.262 1.193-.413 2.006-.413.812 0 1.543.15 2.004.413.614.35 1.535.55 2.526.55.99 0 1.91-.2 2.525-.55.122-.07.21-.183.248-.32.037-.135.02-.277-.05-.4-.138-.243-.473-.337-.72-.198-.46.26-1.19.41-2.004.41-.815 0-1.546-.15-2.007-.412-.615-.35-1.535-.55-2.526-.55-.99 0-1.912.2-2.526.55-.46.26-1.192.412-2.004.412-.813 0-1.544-.15-2.005-.413-.614-.35-1.534-.55-2.525-.55-.99 0-1.912.2-2.526.55-.46.26-1.193.412-2.006.412s-1.544-.15-2.006-.414c-.615-.35-1.536-.55-2.527-.55-.99 0-1.91.2-2.525.55-.252.143-.34.465-.198.718.137.244.472.338.718.2.46-.263 1.193-.413 2.006-.413.814 0 1.544.15 2.006.413.613.35 1.534.55 2.525.55.99 0 1.91-.2 2.526-.55.462-.262 1.193-.412 2.006-.412"/></g><g fill="#3A434E"><path d="M15.556 8.02c.812 0 1.543.15 2.005.412.616.35 1.536.55 2.525.55v.175l.003-.176c.99 0 1.91-.2 2.525-.547.462-.262 1.194-.413 2.007-.413.812 0 1.542.15 2.003.412.615.35 1.535.55 2.526.55.99 0 1.91-.2 2.524-.55.122-.07.21-.183.248-.32.038-.135.02-.277-.05-.4-.138-.244-.473-.337-.72-.198-.46.262-1.19.413-2.004.413-.814 0-1.545-.15-2.006-.413-.614-.35-1.535-.55-2.526-.55-.99 0-1.912.2-2.526.55-.462.262-1.193.413-2.005.413-.813 0-1.544-.15-2.005-.413-.615-.35-1.535-.55-2.526-.55-.99 0-1.912.2-2.526.55-.462.262-1.192.413-2.005.413s-1.544-.15-2.005-.413c-.615-.35-1.536-.55-2.526-.55-.99 0-1.912.2-2.527.55-.122.07-.21.182-.248.318-.038.136-.02.28.05.402.137.243.472.337.718.198.462-.262 1.193-.412 2.006-.412.814 0 1.545.15 2.006.412.613.35 1.534.55 2.525.55.99 0 1.91-.2 2.527-.55.462-.262 1.193-.412 2.006-.412M11.877 16.207c.812 0 1.543.15 2.004.412.617.35 1.537.55 2.528.55.99 0 1.91-.2 2.526-.55.46-.264 1.192-.414 2.005-.414s1.543.15 2.004.413c.615.35 1.535.55 2.526.55.99 0 1.91-.2 2.525-.55.253-.145.342-.468.198-.72-.137-.245-.473-.34-.72-.2-.46.263-1.192.413-2.004.413-.815 0-1.546-.15-2.007-.412-.615-.35-1.535-.55-2.526-.55-.99 0-1.91.2-2.526.55-.46.263-1.19.413-2.004.413s-1.544-.15-2.005-.412c-.614-.35-1.534-.55-2.525-.55-.99 0-1.912.2-2.526.55-.463.263-1.194.413-2.006.413-.813 0-1.544-.15-2.006-.412-.615-.35-1.536-.55-2.526-.55-.99 0-1.912.2-2.526.55-.123.07-.21.183-.248.32-.038.135-.02.277.05.4.138.243.473.34.718.2.462-.264 1.193-.414 2.006-.414.813 0 1.543.15 2.005.413.613.35 1.534.55 2.525.55.99 0 1.91-.2 2.526-.55.462-.264 1.194-.414 2.007-.414M15.576 24.395c.812 0 1.543.15 2.005.412.616.35 1.537.55 2.528.55.99 0 1.91-.2 2.525-.55.462-.262 1.193-.412 2.006-.412.812 0 1.543.15 2.004.412.614.35 1.535.55 2.526.55.99 0 1.91-.2 2.525-.55.122-.07.21-.183.248-.32.037-.135.02-.277-.05-.4-.138-.243-.473-.337-.72-.198-.46.26-1.19.41-2.004.41-.815 0-1.546-.15-2.007-.412-.615-.35-1.535-.55-2.526-.55-.99 0-1.912.2-2.526.55-.46.26-1.192.412-2.004.412-.813 0-1.544-.15-2.005-.413-.614-.35-1.534-.55-2.525-.55-.99 0-1.912.2-2.526.55-.46.26-1.193.412-2.006.412s-1.544-.15-2.006-.414c-.615-.35-1.536-.55-2.527-.55-.99 0-1.91.2-2.525.55-.252.143-.34.465-.198.718.137.244.472.338.718.2.46-.263 1.193-.413 2.006-.413.814 0 1.544.15 2.006.413.613.35 1.534.55 2.525.55.99 0 1.91-.2 2.526-.55.462-.262 1.193-.412 2.006-.412"/></g></g></svg>