<svg width="32" height="232" viewBox="0 0 32 232" xmlns="http://www.w3.org/2000/svg"><g fill="none" fill-rule="evenodd"><g id="Imported-Layers" fill="#206FAC"><path d="M2.903 131.8c.805 0 1.53.15 1.987.41.61.345 1.523.544 2.503.544v.174l.003-.174c.983 0 1.896-.2 2.505-.545.46-.26 1.184-.41 1.99-.41s1.53.15 1.99.41c.608.344 1.52.543 2.504.543s1.896-.2 2.506-.545c.12-.07.208-.182.245-.316.037-.135.02-.277-.05-.397-.137-.242-.47-.336-.712-.197-.46.26-1.183.408-1.99.408-.805 0-1.53-.148-1.988-.408-.61-.346-1.523-.545-2.505-.545-.984 0-1.896.2-2.505.545-.46.26-1.183.408-1.99.408-.804 0-1.53-.148-1.988-.408-.61-.346-1.522-.545-2.504-.545-.983 0-1.896.2-2.505.545-.122.07-.21.18-.247.315-.035.135-.017.276.05.398.14.24.47.335.715.197.457-.26 1.183-.41 1.99-.41" id="Fill-1"/><path d="M2.787 140.868c.805 0 1.53.15 1.988.41.61.345 1.52.543 2.502.543v.177l.003-.175c.983 0 1.895-.197 2.505-.543.458-.26 1.182-.41 1.988-.41s1.532.15 1.99.41c.608.345 1.522.543 2.504.543.983 0 1.896-.197 2.506-.543.12-.07.21-.182.246-.316.035-.133.017-.274-.05-.396-.14-.242-.47-.336-.715-.197-.457.26-1.183.41-1.99.41-.805 0-1.53-.15-1.988-.41-.608-.345-1.522-.543-2.505-.543-.983 0-1.895.198-2.505.544-.458.26-1.182.41-1.988.41s-1.53-.15-1.99-.41c-.61-.345-1.52-.544-2.504-.544s-1.896.2-2.506.545c-.12.07-.208.183-.245.317-.037.135-.02.276.05.397.136.24.47.335.713.197.457-.26 1.182-.41 1.99-.41" id="Fill-2"/><path d="M24.736 136.934c.805 0 1.53.15 1.99.41.607.345 1.52.543 2.503.543.98 0 1.894-.198 2.503-.544.25-.143.34-.462.197-.713-.136-.24-.47-.334-.712-.197-.457.26-1.183.41-1.99.41-.805 0-1.53-.15-1.988-.41-.608-.346-1.522-.544-2.504-.544-.983 0-1.896.196-2.506.542-.458.26-1.182.41-1.988.41s-1.53-.15-1.99-.41c-.608-.346-1.52-.545-2.504-.545-.983 0-1.895.2-2.505.545-.122.07-.21.18-.246.316-.037.134-.02.275.05.397.136.24.47.334.713.196.457-.26 1.182-.41 1.99-.41.804 0 1.53.15 1.987.41.608.347 1.522.545 2.504.545.986 0 1.898-.198 2.508-.544.458-.26 1.182-.41 1.99-.41" id="Fill-3"/><path d="M6.172 134.486c-.268 0-.492.2-.52.468-.04.366-.06.736-.06 1.1 0 .977.14 1.94.413 2.868.08.27.38.434.65.354.133-.04.244-.13.31-.25.067-.124.082-.265.043-.4-.246-.832-.37-1.696-.37-2.57 0-.328.02-.66.054-.99.015-.14-.025-.276-.112-.384-.088-.11-.213-.178-.352-.193-.02-.004-.038-.005-.056-.005" id="Fill-4"/><path d="M9.56 142.895c-.155 0-.302.068-.4.187-.187.222-.157.552.065.738 1.812 1.515 4.114 2.35 6.48 2.35 4.152 0 7.945-2.602 9.44-6.473.05-.13.047-.273-.01-.4-.057-.13-.16-.227-.29-.276-.264-.1-.577.04-.677.3-1.34 3.473-4.74 5.804-8.462 5.804-2.122 0-4.186-.748-5.81-2.107-.094-.078-.214-.12-.336-.12" id="Fill-5"/><path d="M15.706 126.988c4.134 0 7.744 2.79 8.778 6.787.07.273.35.448.64.375.277-.072.445-.358.373-.638-1.154-4.457-5.18-7.57-9.79-7.57-2.638 0-5.134 1.01-7.03 2.84-.206.2-.21.533-.012.74.194.202.54.208.74.013 1.7-1.643 3.937-2.547 6.3-2.547" id="Fill-6"/></g><g id="Imported-Layers" fill="#fff"><path d="M2.903 91.8c.805 0 1.53.15 1.987.41.61.345 1.523.544 2.503.544v.174l.003-.174c.983 0 1.896-.2 2.505-.545.46-.26 1.184-.41 1.99-.41s1.53.15 1.99.41c.608.344 1.52.543 2.504.543s1.896-.2 2.506-.545c.12-.07.208-.182.245-.316.037-.135.02-.277-.05-.397-.137-.242-.47-.336-.712-.197-.46.26-1.183.408-1.99.408-.805 0-1.53-.148-1.988-.408-.61-.346-1.523-.545-2.505-.545-.984 0-1.896.2-2.505.545-.46.26-1.183.408-1.99.408-.804 0-1.53-.148-1.988-.408-.61-.346-1.522-.545-2.504-.545-.983 0-1.896.2-2.505.545-.122.07-.21.18-.247.315-.035.135-.017.276.05.398.14.24.47.335.715.197.457-.26 1.183-.41 1.99-.41" id="Fill-1"/><path d="M2.787 100.868c.805 0 1.53.15 1.988.41.61.345 1.52.543 2.502.543v.177l.003-.175c.983 0 1.895-.197 2.505-.543.458-.26 1.182-.41 1.988-.41s1.532.15 1.99.41c.608.345 1.522.543 2.504.543.983 0 1.896-.197 2.506-.543.12-.07.21-.182.246-.316.035-.133.017-.274-.05-.396-.14-.242-.47-.336-.715-.197-.457.26-1.183.41-1.99.41-.805 0-1.53-.15-1.988-.41-.608-.345-1.522-.543-2.505-.543-.983 0-1.895.198-2.505.544-.458.26-1.182.41-1.988.41s-1.53-.15-1.99-.41c-.61-.345-1.52-.544-2.504-.544s-1.896.2-2.506.545c-.12.07-.208.183-.245.317-.037.135-.02.276.05.397.136.24.47.335.713.197.457-.26 1.182-.41 1.99-.41" id="Fill-2"/><path d="M24.736 96.934c.805 0 1.53.15 1.99.41.607.345 1.52.543 2.503.543.98 0 1.894-.198 2.503-.544.25-.143.34-.462.197-.713-.136-.24-.47-.334-.712-.197-.457.26-1.183.41-1.99.41-.805 0-1.53-.15-1.988-.41-.608-.346-1.522-.544-2.504-.544-.983 0-1.896.196-2.506.542-.458.26-1.182.41-1.988.41s-1.53-.15-1.99-.41c-.608-.346-1.52-.545-2.504-.545-.983 0-1.895.2-2.505.545-.122.07-.21.18-.246.316-.037.134-.02.275.05.397.136.24.47.334.713.196.457-.26 1.182-.41 1.99-.41.804 0 1.53.15 1.987.41.608.347 1.522.545 2.504.545.986 0 1.898-.198 2.508-.544.458-.26 1.182-.41 1.99-.41" id="Fill-3"/><path d="M6.172 94.486c-.268 0-.492.2-.52.468-.04.366-.06.736-.06 1.1 0 .977.14 1.94.413 2.868.08.27.38.434.65.354.133-.04.244-.13.31-.25.067-.124.082-.265.043-.4-.246-.832-.37-1.696-.37-2.57 0-.328.02-.66.054-.99.015-.14-.025-.276-.112-.384-.088-.11-.213-.178-.352-.193-.02-.004-.038-.005-.056-.005" id="Fill-4"/><path d="M9.56 102.895c-.155 0-.302.068-.4.187-.187.222-.157.552.065.738 1.812 1.515 4.114 2.35 6.48 2.35 4.152 0 7.945-2.602 9.44-6.473.05-.13.047-.273-.01-.4-.057-.13-.16-.227-.29-.276-.264-.1-.577.04-.677.3-1.34 3.473-4.74 5.804-8.462 5.804-2.122 0-4.186-.748-5.81-2.107-.094-.078-.214-.12-.336-.12" id="Fill-5"/><path d="M15.706 86.988c4.134 0 7.744 2.79 8.778 6.787.07.273.35.448.64.375.277-.072.445-.358.373-.638-1.154-4.457-5.18-7.57-9.79-7.57-2.638 0-5.134 1.01-7.03 2.84-.206.2-.21.533-.012.74.194.202.54.208.74.013 1.7-1.643 3.937-2.547 6.3-2.547" id="Fill-6"/></g><g fill="#67737B"><path d="M2.903 51.8c.805 0 1.53.15 1.987.41.61.345 1.523.544 2.503.544v.174l.003-.174c.983 0 1.896-.2 2.505-.545.46-.26 1.184-.41 1.99-.41s1.53.15 1.99.41c.608.344 1.52.543 2.504.543s1.896-.2 2.506-.545c.12-.07.208-.182.245-.316.037-.135.02-.277-.05-.397-.137-.242-.47-.336-.712-.197-.46.26-1.183.408-1.99.408-.805 0-1.53-.148-1.988-.408-.61-.346-1.523-.545-2.505-.545-.984 0-1.896.2-2.505.545-.46.26-1.183.408-1.99.408-.804 0-1.53-.148-1.988-.408-.61-.346-1.522-.545-2.504-.545-.983 0-1.896.2-2.505.545-.122.07-.21.18-.247.315-.035.135-.017.276.05.398.14.24.47.335.715.197.457-.26 1.183-.41 1.99-.41"/><path d="M2.787 60.868c.805 0 1.53.15 1.988.41.61.345 1.52.543 2.502.543v.177l.003-.175c.983 0 1.895-.197 2.505-.543.458-.26 1.182-.41 1.988-.41s1.532.15 1.99.41c.608.345 1.522.543 2.504.543.983 0 1.896-.197 2.506-.543.12-.07.21-.182.246-.316.035-.133.017-.274-.05-.396-.14-.242-.47-.336-.715-.197-.457.26-1.183.41-1.99.41-.805 0-1.53-.15-1.988-.41-.608-.345-1.522-.543-2.505-.543-.983 0-1.895.198-2.505.544-.458.26-1.182.41-1.988.41s-1.53-.15-1.99-.41c-.61-.345-1.52-.544-2.504-.544s-1.896.2-2.506.545c-.12.07-.208.183-.245.317-.037.135-.02.276.05.397.136.24.47.335.713.197.457-.26 1.182-.41 1.99-.41"/><path d="M24.736 56.934c.805 0 1.53.15 1.99.41.607.345 1.52.543 2.503.543.98 0 1.894-.198 2.503-.544.25-.143.34-.462.197-.713-.136-.24-.47-.334-.712-.197-.457.26-1.183.41-1.99.41-.805 0-1.53-.15-1.988-.41-.608-.346-1.522-.544-2.504-.544-.983 0-1.896.196-2.506.542-.458.26-1.182.41-1.988.41s-1.53-.15-1.99-.41c-.608-.346-1.52-.545-2.504-.545-.983 0-1.895.2-2.505.545-.122.07-.21.18-.246.316-.037.134-.02.275.05.397.136.24.47.334.713.196.457-.26 1.182-.41 1.99-.41.804 0 1.53.15 1.987.41.608.347 1.522.545 2.504.545.986 0 1.898-.198 2.508-.544.458-.26 1.182-.41 1.99-.41"/><path d="M6.172 54.486c-.268 0-.492.2-.52.468-.04.366-.06.736-.06 1.1 0 .977.14 1.94.413 2.868.08.27.38.434.65.354.133-.04.244-.13.31-.25.067-.124.082-.265.043-.4-.246-.832-.37-1.696-.37-2.57 0-.328.02-.66.054-.99.015-.14-.025-.276-.112-.384-.088-.11-.213-.178-.352-.193-.02-.004-.038-.005-.056-.005"/><path d="M9.56 62.895c-.155 0-.302.068-.4.187-.187.222-.157.552.065.738 1.812 1.515 4.114 2.35 6.48 2.35 4.152 0 7.945-2.602 9.44-6.473.05-.13.047-.273-.01-.4-.057-.13-.16-.227-.29-.276-.264-.1-.577.04-.677.3-1.34 3.473-4.74 5.804-8.462 5.804-2.122 0-4.186-.748-5.81-2.107-.094-.078-.214-.12-.336-.12"/><path d="M15.706 46.988c4.134 0 7.744 2.79 8.778 6.787.07.273.35.448.64.375.277-.072.445-.358.373-.638-1.154-4.457-5.18-7.57-9.79-7.57-2.638 0-5.134 1.01-7.03 2.84-.206.2-.21.533-.012.74.194.202.54.208.74.013 1.7-1.643 3.937-2.547 6.3-2.547"/></g><g fill="#3A434E"><path d="M2.903 11.8c.805 0 1.53.15 1.987.41.61.345 1.523.544 2.503.544v.174l.003-.174c.983 0 1.896-.2 2.505-.545.46-.26 1.184-.41 1.99-.41s1.53.15 1.99.41c.608.344 1.52.543 2.504.543s1.896-.2 2.506-.545c.12-.07.208-.182.245-.316.037-.135.02-.277-.05-.397-.137-.242-.47-.336-.712-.197-.46.26-1.183.408-1.99.408-.805 0-1.53-.148-1.988-.408-.61-.346-1.523-.545-2.505-.545-.984 0-1.896.2-2.505.545-.46.26-1.183.408-1.99.408-.804 0-1.53-.148-1.988-.408-.61-.346-1.522-.545-2.504-.545-.983 0-1.896.2-2.505.545-.122.07-.21.18-.247.315-.035.135-.017.276.05.398.14.24.47.335.715.197.457-.26 1.183-.41 1.99-.41M2.787 20.868c.805 0 1.53.15 1.988.41.61.345 1.52.543 2.502.543v.177l.003-.175c.983 0 1.895-.197 2.505-.543.458-.26 1.182-.41 1.988-.41s1.532.15 1.99.41c.608.345 1.522.543 2.504.543.983 0 1.896-.197 2.506-.543.12-.07.21-.182.246-.316.035-.133.017-.274-.05-.396-.14-.242-.47-.336-.715-.197-.457.26-1.183.41-1.99.41-.805 0-1.53-.15-1.988-.41-.608-.345-1.522-.543-2.505-.543-.983 0-1.895.198-2.505.544-.458.26-1.182.41-1.988.41s-1.53-.15-1.99-.41c-.61-.345-1.52-.544-2.504-.544s-1.896.2-2.506.545c-.12.07-.208.183-.245.317-.037.135-.02.276.05.397.136.24.47.335.713.197.457-.26 1.182-.41 1.99-.41M24.736 16.934c.805 0 1.53.15 1.99.41.607.345 1.52.543 2.503.543.98 0 1.894-.198 2.503-.544.25-.143.34-.462.197-.713-.136-.24-.47-.334-.712-.197-.457.26-1.183.41-1.99.41-.805 0-1.53-.15-1.988-.41-.608-.346-1.522-.544-2.504-.544-.983 0-1.896.196-2.506.542-.458.26-1.182.41-1.988.41s-1.53-.15-1.99-.41c-.608-.346-1.52-.545-2.504-.545-.983 0-1.895.2-2.505.545-.122.07-.21.18-.246.316-.037.134-.02.275.05.397.136.24.47.334.713.196.457-.26 1.182-.41 1.99-.41.804 0 1.53.15 1.987.41.608.347 1.522.545 2.504.545.986 0 1.898-.198 2.508-.544.458-.26 1.182-.41 1.99-.41M6.172 14.486c-.268 0-.492.2-.52.468-.04.366-.06.736-.06 1.1 0 .977.14 1.94.413 2.868.08.27.38.434.65.354.133-.04.244-.13.31-.25.067-.124.082-.265.043-.4-.246-.832-.37-1.696-.37-2.57 0-.328.02-.66.054-.99.015-.14-.025-.276-.112-.384-.088-.11-.213-.178-.352-.193-.02-.004-.038-.005-.056-.005M9.56 22.895c-.155 0-.302.068-.4.187-.187.222-.157.552.065.738 1.812 1.515 4.114 2.35 6.48 2.35 4.152 0 7.945-2.602 9.44-6.473.05-.13.047-.273-.01-.4-.057-.13-.16-.227-.29-.276-.264-.1-.577.04-.677.3-1.34 3.473-4.74 5.804-8.462 5.804-2.122 0-4.186-.748-5.81-2.107-.094-.078-.214-.12-.336-.12M15.706 6.988c4.134 0 7.744 2.79 8.778 6.787.07.273.35.448.64.375.277-.072.445-.358.373-.638-1.154-4.457-5.18-7.57-9.79-7.57-2.638 0-5.134 1.01-7.03 2.84-.206.2-.21.533-.012.74.194.202.54.208.74.013 1.7-1.643 3.937-2.547 6.3-2.547"/></g></g></svg>