<svg width="32" height="232" viewBox="0 0 32 232" xmlns="http://www.w3.org/2000/svg"><g fill="none" fill-rule="evenodd"><g fill="#3B444F"><path d="M30.703 22.46c-.16-.162-.407-.205-.615-.107-1.937.913-4.008 1.377-6.158 1.377-7.97 0-14.453-6.485-14.453-14.453 0-2.15.464-4.222 1.377-6.158.098-.208.055-.454-.107-.616-.16-.162-.407-.205-.615-.107-5.416 2.555-8.915 8.072-8.915 14.056 0 8.568 6.97 15.537 15.536 15.537 5.984 0 11.502-3.5 14.057-8.915.097-.207.055-.453-.107-.615zm-13.95 8.445c-7.968 0-14.45-6.483-14.45-14.452 0-5.067 2.696-9.774 6.98-12.37-.59 1.66-.89 3.402-.89 5.194 0 8.568 6.97 15.537 15.537 15.537 1.79 0 3.533-.3 5.195-.89-2.597 4.283-7.305 6.98-12.372 6.98z" id="Fill-1"/><path d="M16.404 4.798l2.303 1.26 1.26 2.304c.096.174.28.282.477.282.198 0 .38-.108.475-.282l1.26-2.303 2.304-1.262c.174-.094.28-.277.28-.476 0-.198-.106-.38-.28-.475l-2.304-1.26L20.92.283c-.19-.348-.762-.348-.952 0l-1.26 2.304-2.304 1.26c-.174.095-.282.277-.282.475 0 .2.108.382.282.476zm2.964-1.336c.09-.05.166-.124.216-.216l.86-1.572.86 1.572c.05.092.125.166.216.216l1.572.86-1.572.86c-.09.05-.166.125-.216.216l-.86 1.573-.86-1.572c-.05-.09-.125-.166-.216-.216l-1.573-.86 1.573-.86z" id="Fill-2"/><path d="M23.987 10.802c0 .198.108.38.282.475l1.082.593.59 1.082c.096.173.28.28.478.28.198 0 .38-.107.475-.28l.592-1.082 1.082-.592c.173-.096.28-.278.28-.476 0-.198-.107-.38-.28-.477l-1.083-.59-.592-1.083c-.095-.173-.277-.282-.475-.282-.2 0-.382.108-.477.282l-.59 1.082-1.084.592c-.175.095-.283.278-.283.476zm2.024-.192c.092-.05.167-.125.217-.216l.192-.35.19.35c.05.09.125.166.216.216l.352.192-.352.192c-.09.05-.165.124-.215.215l-.19.35-.193-.35c-.05-.092-.125-.166-.216-.215l-.35-.193.35-.192z" id="Fill-3"/></g><g fill="#67737B"><path d="M30.703 62.46c-.16-.162-.407-.205-.615-.107-1.937.913-4.008 1.377-6.158 1.377-7.97 0-14.453-6.485-14.453-14.453 0-2.15.464-4.222 1.377-6.158.098-.208.055-.454-.107-.616-.16-.162-.407-.205-.615-.107-5.416 2.555-8.915 8.072-8.915 14.056 0 8.568 6.97 15.537 15.536 15.537 5.984 0 11.502-3.5 14.057-8.915.097-.207.055-.453-.107-.615zm-13.95 8.445c-7.968 0-14.45-6.483-14.45-14.452 0-5.067 2.696-9.774 6.98-12.37-.59 1.66-.89 3.402-.89 5.194 0 8.568 6.97 15.537 15.537 15.537 1.79 0 3.533-.3 5.195-.89-2.597 4.283-7.305 6.98-12.372 6.98z" id="Fill-1"/><path d="M16.404 44.798l2.303 1.26 1.26 2.304c.096.174.28.282.477.282.198 0 .38-.108.475-.282l1.26-2.303 2.304-1.262c.174-.094.28-.277.28-.476 0-.198-.106-.38-.28-.475l-2.304-1.26-1.26-2.304c-.19-.348-.762-.348-.952 0l-1.26 2.304-2.304 1.26c-.174.095-.282.277-.282.475 0 .2.108.382.282.476zm2.964-1.336c.09-.05.166-.124.216-.216l.86-1.572.86 1.572c.05.092.125.166.216.216l1.572.86-1.572.86c-.09.05-.166.125-.216.216l-.86 1.573-.86-1.572c-.05-.09-.125-.166-.216-.216l-1.573-.86 1.573-.86z" id="Fill-2"/><path d="M23.987 50.802c0 .198.108.38.282.475l1.082.593.59 1.082c.096.173.28.28.478.28.198 0 .38-.107.475-.28l.592-1.082 1.082-.592c.173-.096.28-.278.28-.476 0-.198-.107-.38-.28-.477l-1.083-.59-.592-1.083c-.095-.173-.277-.282-.475-.282-.2 0-.382.108-.477.282l-.59 1.082-1.084.592c-.175.095-.283.278-.283.476zm2.024-.192c.092-.05.167-.125.217-.216l.192-.35.19.35c.05.09.125.166.216.216l.352.192-.352.192c-.09.05-.165.124-.215.215l-.19.35-.193-.35c-.05-.092-.125-.166-.216-.215l-.35-.193.35-.192z" id="Fill-3"/></g><g fill="#fff"><path d="M30.703 102.46c-.16-.162-.407-.205-.615-.107-1.937.913-4.008 1.377-6.158 1.377-7.97 0-14.453-6.485-14.453-14.453 0-2.15.464-4.222 1.377-6.158.098-.208.055-.454-.107-.616-.16-.162-.407-.205-.615-.107-5.416 2.555-8.915 8.072-8.915 14.056 0 8.568 6.97 15.537 15.536 15.537 5.984 0 11.502-3.5 14.057-8.915.097-.207.055-.453-.107-.615zm-13.95 8.445c-7.968 0-14.45-6.483-14.45-14.452 0-5.067 2.696-9.774 6.98-12.37-.59 1.66-.89 3.402-.89 5.194 0 8.568 6.97 15.537 15.537 15.537 1.79 0 3.533-.3 5.195-.89-2.597 4.283-7.305 6.98-12.372 6.98z" id="Fill-1"/><path d="M16.404 84.798l2.303 1.26 1.26 2.304c.096.174.28.282.477.282.198 0 .38-.108.475-.282l1.26-2.303 2.304-1.262c.174-.094.28-.277.28-.476 0-.198-.106-.38-.28-.475l-2.304-1.26-1.26-2.304c-.19-.348-.762-.348-.952 0l-1.26 2.304-2.304 1.26c-.174.095-.282.277-.282.475 0 .2.108.382.282.476zm2.964-1.336c.09-.05.166-.124.216-.216l.86-1.572.86 1.572c.05.092.125.166.216.216l1.572.86-1.572.86c-.09.05-.166.125-.216.216l-.86 1.573-.86-1.572c-.05-.09-.125-.166-.216-.216l-1.573-.86 1.573-.86z" id="Fill-2"/><path d="M23.987 90.802c0 .198.108.38.282.475l1.082.593.59 1.082c.096.173.28.28.478.28.198 0 .38-.107.475-.28l.592-1.082 1.082-.592c.173-.096.28-.278.28-.476 0-.198-.107-.38-.28-.477l-1.083-.59-.592-1.083c-.095-.173-.277-.282-.475-.282-.2 0-.382.108-.477.282l-.59 1.082-1.084.592c-.175.095-.283.278-.283.476zm2.024-.192c.092-.05.167-.125.217-.216l.192-.35.19.35c.05.09.125.166.216.216l.352.192-.352.192c-.09.05-.165.124-.215.215l-.19.35-.193-.35c-.05-.092-.125-.166-.216-.215l-.35-.193.35-.192z" id="Fill-3"/></g><g fill="#206FAC"><path d="M30.703 142.46c-.16-.162-.407-.205-.615-.107-1.937.913-4.008 1.377-6.158 1.377-7.97 0-14.453-6.485-14.453-14.453 0-2.15.464-4.222 1.377-6.158.098-.208.055-.454-.107-.616-.16-.162-.407-.205-.615-.107-5.416 2.555-8.915 8.072-8.915 14.056 0 8.568 6.97 15.537 15.536 15.537 5.984 0 11.502-3.5 14.057-8.915.097-.207.055-.453-.107-.615zm-13.95 8.445c-7.968 0-14.45-6.483-14.45-14.452 0-5.067 2.696-9.774 6.98-12.37-.59 1.66-.89 3.402-.89 5.194 0 8.568 6.97 15.537 15.537 15.537 1.79 0 3.533-.3 5.195-.89-2.597 4.283-7.305 6.98-12.372 6.98z"/><path d="M16.404 124.798l2.303 1.26 1.26 2.304c.096.174.28.282.477.282.198 0 .38-.108.475-.282l1.26-2.303 2.304-1.262c.174-.094.28-.277.28-.476 0-.198-.106-.38-.28-.475l-2.304-1.26-1.26-2.304c-.19-.348-.762-.348-.952 0l-1.26 2.304-2.304 1.26c-.174.095-.282.277-.282.475 0 .2.108.382.282.476zm2.964-1.336c.09-.05.166-.124.216-.216l.86-1.572.86 1.572c.05.092.125.166.216.216l1.572.86-1.572.86c-.09.05-.166.125-.216.216l-.86 1.573-.86-1.572c-.05-.09-.125-.166-.216-.216l-1.573-.86 1.573-.86z"/><path d="M23.987 130.802c0 .198.108.38.282.475l1.082.593.59 1.082c.096.173.28.28.478.28.198 0 .38-.107.475-.28l.592-1.082 1.082-.592c.173-.096.28-.278.28-.476 0-.198-.107-.38-.28-.477l-1.083-.59-.592-1.083c-.095-.173-.277-.282-.475-.282-.2 0-.382.108-.477.282l-.59 1.082-1.084.592c-.175.095-.283.278-.283.476zm2.024-.192c.092-.05.167-.125.217-.216l.192-.35.19.35c.05.09.125.166.216.216l.352.192-.352.192c-.09.05-.165.124-.215.215l-.19.35-.193-.35c-.05-.092-.125-.166-.216-.215l-.35-.193.35-.192z"/></g></g></svg>