<svg width="32" height="232" viewBox="0 0 32 232" xmlns="http://www.w3.org/2000/svg"><g fill="none" fill-rule="evenodd"><path d="M27.165 18.25c.46-.525.855-1.105 1.152-1.734.086-.182.048-.4-.095-.54-.142-.143-.358-.18-.54-.095-.876.414-1.814.623-2.786.623-3.605 0-6.537-2.932-6.537-6.536 0-.972.21-1.91.622-2.786.086-.18.05-.397-.094-.54-.142-.142-.36-.18-.54-.094-2.612 1.23-4.3 3.892-4.3 6.777 0 .255.017.51.043.76-1.488-1.12-3.33-1.782-5.283-1.782C3.95 12.3 0 16.253 0 21.11c0 1.364.312 2.682.93 3.917.08.162.245.265.426.265h29.897c.204 0 .385-.13.45-.322.2-.58.297-1.12.297-1.65 0-2.72-2.148-4.94-4.835-5.07zm-9.52-10.175c-.16.613-.24 1.246-.24 1.892 0 4.13 3.36 7.49 7.49 7.49.647 0 1.28-.08 1.893-.24-.33.444-.72.842-1.15 1.19-1.02.266-1.94.84-2.624 1.66-1.618-1.21-3.65-1.726-5.727-1.322-.38-1.37-1.09-2.595-2.025-3.602-.17-.588-.26-1.2-.26-1.82 0-2.08 1.007-4.028 2.643-5.248zM30.9 24.335H1.658C1.19 23.31.955 22.227.955 21.108c0-4.33 3.522-7.852 7.852-7.852 3.657 0 6.88 2.59 7.664 6.16.03.127.107.237.218.305.11.07.243.088.37.056.538-.14 1.074-.21 1.593-.21 1.514 0 2.983.547 4.137 1.543.103.088.24.128.375.11.135-.018.256-.092.332-.205.772-1.142 2.052-1.824 3.425-1.824 2.274 0 4.126 1.852 4.126 4.127 0 .327-.048.663-.145 1.018z" fill="#3B444F"/><path d="M27.165 58.25c.46-.525.855-1.105 1.152-1.734.086-.182.048-.4-.095-.54-.142-.143-.358-.18-.54-.095-.876.414-1.814.623-2.786.623-3.605 0-6.537-2.932-6.537-6.536 0-.972.21-1.91.622-2.786.086-.18.05-.397-.094-.54-.142-.142-.36-.18-.54-.094-2.612 1.23-4.3 3.892-4.3 6.777 0 .255.017.51.043.76-1.488-1.12-3.33-1.782-5.283-1.782C3.95 52.3 0 56.253 0 61.11c0 1.364.312 2.682.93 3.917.08.162.245.265.426.265h29.897c.204 0 .385-.13.45-.322.2-.58.297-1.12.297-1.65 0-2.72-2.148-4.94-4.835-5.07zm-9.52-10.175c-.16.613-.24 1.246-.24 1.892 0 4.13 3.36 7.49 7.49 7.49.647 0 1.28-.08 1.893-.24-.33.444-.72.842-1.15 1.19-1.02.266-1.94.84-2.624 1.66-1.618-1.21-3.65-1.726-5.727-1.322-.38-1.37-1.09-2.595-2.025-3.602-.17-.588-.26-1.2-.26-1.82 0-2.08 1.007-4.028 2.643-5.248zM30.9 64.335H1.658C1.19 63.31.955 62.227.955 61.108c0-4.33 3.522-7.852 7.852-7.852 3.657 0 6.88 2.59 7.664 6.16.03.127.107.237.218.305.11.07.243.088.37.056.538-.14 1.074-.21 1.593-.21 1.514 0 2.983.547 4.137 1.543.103.088.24.128.375.11.135-.018.256-.092.332-.205.772-1.142 2.052-1.824 3.425-1.824 2.274 0 4.126 1.852 4.126 4.127 0 .327-.048.663-.145 1.018z" fill="#67737B"/><path d="M27.165 98.25c.46-.525.855-1.105 1.152-1.734.086-.182.048-.4-.095-.54-.142-.143-.358-.18-.54-.095-.876.414-1.814.623-2.786.623-3.605 0-6.537-2.932-6.537-6.536 0-.972.21-1.91.622-2.786.086-.18.05-.397-.094-.54-.142-.142-.36-.18-.54-.094-2.612 1.23-4.3 3.892-4.3 6.777 0 .255.017.51.043.76-1.488-1.12-3.33-1.782-5.283-1.782C3.95 92.3 0 96.253 0 101.11c0 1.364.312 2.682.93 3.917.08.162.245.265.426.265h29.897c.204 0 .385-.13.45-.322.2-.58.297-1.12.297-1.65 0-2.72-2.148-4.94-4.835-5.07zm-9.52-10.175c-.16.613-.24 1.246-.24 1.892 0 4.13 3.36 7.49 7.49 7.49.647 0 1.28-.08 1.893-.24-.33.444-.72.842-1.15 1.19-1.02.266-1.94.84-2.624 1.66-1.618-1.21-3.65-1.726-5.727-1.322-.38-1.37-1.09-2.595-2.025-3.602-.17-.588-.26-1.2-.26-1.82 0-2.08 1.007-4.028 2.643-5.248zm13.256 16.26H1.658c-.466-1.025-.702-2.108-.702-3.227 0-4.33 3.522-7.852 7.852-7.852 3.657 0 6.88 2.59 7.664 6.16.03.127.107.237.218.305.11.07.243.088.37.056.538-.14 1.074-.21 1.593-.21 1.514 0 2.983.547 4.137 1.543.103.088.24.128.375.11.135-.018.256-.092.332-.205.772-1.142 2.052-1.824 3.425-1.824 2.274 0 4.126 1.852 4.126 4.127 0 .327-.048.663-.145 1.018z" fill="#fff"/><path d="M27.165 138.25c.46-.525.855-1.105 1.152-1.734.086-.182.048-.4-.095-.54-.142-.143-.358-.18-.54-.095-.876.414-1.814.623-2.786.623-3.605 0-6.537-2.932-6.537-6.536 0-.972.21-1.91.622-2.786.086-.18.05-.397-.094-.54-.142-.142-.36-.18-.54-.094-2.612 1.23-4.3 3.892-4.3 6.777 0 .255.017.51.043.76-1.488-1.12-3.33-1.782-5.283-1.782C3.95 132.3 0 136.253 0 141.11c0 1.364.312 2.682.93 3.917.08.162.245.265.426.265h29.897c.204 0 .385-.13.45-.322.2-.58.297-1.12.297-1.65 0-2.72-2.148-4.94-4.835-5.07zm-9.52-10.175c-.16.613-.24 1.246-.24 1.892 0 4.13 3.36 7.49 7.49 7.49.647 0 1.28-.08 1.893-.24-.33.444-.72.842-1.15 1.19-1.02.266-1.94.84-2.624 1.66-1.618-1.21-3.65-1.726-5.727-1.322-.38-1.37-1.09-2.595-2.025-3.602-.17-.588-.26-1.2-.26-1.82 0-2.08 1.007-4.028 2.643-5.248zm13.256 16.26H1.658c-.466-1.025-.702-2.108-.702-3.227 0-4.33 3.522-7.852 7.852-7.852 3.657 0 6.88 2.59 7.664 6.16.03.127.107.237.218.305.11.07.243.088.37.056.538-.14 1.074-.21 1.593-.21 1.514 0 2.983.547 4.137 1.543.103.088.24.128.375.11.135-.018.256-.092.332-.205.772-1.142 2.052-1.824 3.425-1.824 2.274 0 4.126 1.852 4.126 4.127 0 .327-.048.663-.145 1.018z" fill="#206FAC"/></g></svg>