<svg width="32" height="232" viewBox="0 0 32 232" xmlns="http://www.w3.org/2000/svg"><g fill="none" fill-rule="evenodd"><path d="M30.085 24H3.838c-.07 0-.138-.016-.202-.044C1.428 22.956 0 20.75 0 18.33c0-2.97 2.14-5.52 5.032-6.062.837-2.824 3.42-4.768 6.39-4.768 3.078 0 5.706 2.09 6.456 4.99 1.545-1.336 3.534-2.088 5.583-2.088 4.71 0 8.54 3.83 8.54 8.538 0 1.74-.522 3.415-1.51 4.848-.093.132-.243.21-.404.21zm-26.14-.98h25.878c.785-1.22 1.198-2.626 1.198-4.08 0-4.168-3.39-7.56-7.56-7.56-2.12 0-4.086.862-5.537 2.428-.13.14-.33.19-.512.132-.18-.06-.31-.22-.333-.41-.324-2.88-2.755-5.05-5.655-5.05-2.626 0-4.898 1.783-5.522 4.337-.05.196-.212.343-.412.37C2.918 13.527.98 15.74.98 18.33c0 2 1.16 3.83 2.967 4.69z" fill="#3B444F"/><path d="M30.085 64H3.838c-.07 0-.138-.016-.202-.044C1.428 62.956 0 60.75 0 58.33c0-2.97 2.14-5.52 5.032-6.062.837-2.824 3.42-4.768 6.39-4.768 3.078 0 5.706 2.09 6.456 4.99 1.545-1.336 3.534-2.088 5.583-2.088 4.71 0 8.54 3.83 8.54 8.538 0 1.74-.522 3.415-1.51 4.848-.093.132-.243.21-.404.21zm-26.14-.98h25.878c.785-1.22 1.198-2.626 1.198-4.08 0-4.168-3.39-7.56-7.56-7.56-2.12 0-4.086.862-5.537 2.428-.13.14-.33.19-.512.132-.18-.06-.31-.22-.333-.41-.324-2.88-2.755-5.05-5.655-5.05-2.626 0-4.898 1.783-5.522 4.337-.05.196-.212.343-.412.37C2.918 53.527.98 55.74.98 58.33c0 2 1.16 3.83 2.967 4.69z" fill="#67737B"/><path d="M30.085 104H3.838c-.07 0-.138-.016-.202-.044C1.428 102.956 0 100.75 0 98.33c0-2.97 2.14-5.52 5.032-6.062.837-2.824 3.42-4.768 6.39-4.768 3.078 0 5.706 2.09 6.456 4.99 1.545-1.336 3.534-2.088 5.583-2.088 4.71 0 8.54 3.83 8.54 8.538 0 1.74-.522 3.415-1.51 4.848-.093.132-.243.21-.404.21zm-26.14-.98h25.878c.785-1.22 1.198-2.626 1.198-4.08 0-4.168-3.39-7.56-7.56-7.56-2.12 0-4.086.862-5.537 2.428-.13.14-.33.19-.512.132-.18-.06-.31-.22-.333-.41-.324-2.88-2.755-5.05-5.655-5.05-2.626 0-4.898 1.783-5.522 4.337-.05.196-.212.343-.412.37C2.918 93.527.98 95.74.98 98.33c0 2 1.16 3.83 2.967 4.69z" fill="#fff"/><path d="M30.085 144H3.838c-.07 0-.138-.016-.202-.044-2.208-1-3.636-3.207-3.636-5.625 0-2.97 2.14-5.52 5.032-6.06.837-2.825 3.42-4.77 6.39-4.77 3.078 0 5.706 2.09 6.456 4.99 1.545-1.335 3.534-2.087 5.583-2.087 4.71 0 8.54 3.83 8.54 8.538 0 1.74-.522 3.416-1.51 4.85-.093.13-.243.21-.404.21zm-26.14-.98h25.878c.785-1.22 1.198-2.626 1.198-4.08 0-4.168-3.39-7.56-7.56-7.56-2.12 0-4.086.862-5.537 2.428-.13.14-.33.19-.512.132-.18-.06-.31-.22-.333-.41-.324-2.88-2.755-5.05-5.655-5.05-2.626 0-4.898 1.783-5.522 4.337-.05.196-.212.343-.412.37-2.57.34-4.507 2.552-4.507 5.144 0 2 1.16 3.83 2.967 4.69z" fill="#206FAC"/></g></svg>