<svg width="32" height="232" viewBox="0 0 32 232" xmlns="http://www.w3.org/2000/svg"><g fill="none" fill-rule="evenodd"><g fill="#3B444F"><path d="M26.92 19.252c-.837 0-1.644.212-2.362.59.61-.965.954-2.092.954-3.26 0-3.37-2.742-6.112-6.112-6.112-2.676 0-5.03 1.76-5.824 4.262-1.387-.896-3.028-1.413-4.756-1.413-4.853 0-8.802 3.947-8.802 8.8 0 1.362.312 2.68.927 3.916.08.162.247.264.428.264h29.88c.204 0 .384-.128.45-.32.2-.58.296-1.12.296-1.65 0-2.8-2.28-5.078-5.08-5.078zm-7.52-7.828c2.844 0 5.158 2.314 5.158 5.158 0 1.626-.778 3.16-2.08 4.135-1.517-.942-3.326-1.316-5.183-.958-.493-1.77-1.53-3.296-2.9-4.42.566-2.28 2.635-3.917 5.005-3.917zm11.5 13.923H1.675c-.466-1.025-.702-2.11-.702-3.226 0-4.326 3.52-7.846 7.848-7.846 3.656 0 6.878 2.59 7.66 6.158.028.127.106.237.216.305s.246.088.37.055c.54-.14 1.075-.21 1.593-.21 1.51 0 2.98.548 4.133 1.542.103.09.24.13.374.112.135-.018.256-.093.332-.206.77-1.14 2.05-1.822 3.422-1.822 2.275 0 4.126 1.85 4.126 4.123 0 .326-.048.66-.145 1.018z" id="Fill-1"/><path d="M19.4 10.032c.263 0 .476-.214.476-.478v-4.29c0-.264-.213-.477-.476-.477-.264 0-.478.213-.478.477v4.29c0 .264.214.478.478.478" id="Fill-2"/><path d="M25.95 16.582c0 .264.214.477.478.477h4.29c.264 0 .478-.215.478-.48s-.214-.476-.478-.476h-4.29c-.264 0-.478.213-.478.477" id="Fill-3"/><path d="M24.37 12.09c.12 0 .244-.046.336-.14l3.035-3.033c.188-.187.188-.49 0-.675-.185-.187-.487-.187-.674 0l-3.033 3.033c-.187.187-.187.49 0 .675.093.094.215.14.337.14" id="Fill-4"/><path d="M14.093 11.95c.093.094.215.14.337.14.122 0 .244-.046.337-.14.187-.186.187-.488 0-.675l-3.034-3.033c-.186-.187-.488-.187-.675 0-.185.186-.185.488 0 .675l3.035 3.033" id="Fill-5"/></g><g fill="#67737B"><path d="M26.92 59.252c-.837 0-1.644.212-2.362.59.61-.965.954-2.092.954-3.26 0-3.37-2.742-6.112-6.112-6.112-2.676 0-5.03 1.76-5.824 4.262-1.387-.896-3.028-1.413-4.756-1.413-4.853 0-8.802 3.947-8.802 8.8 0 1.362.312 2.68.927 3.916.08.162.247.264.428.264h29.88c.204 0 .384-.128.45-.32.2-.58.296-1.12.296-1.65 0-2.8-2.28-5.078-5.08-5.078zm-7.52-7.828c2.844 0 5.158 2.314 5.158 5.158 0 1.626-.778 3.16-2.08 4.135-1.517-.942-3.326-1.316-5.183-.958-.493-1.77-1.53-3.296-2.9-4.42.566-2.28 2.635-3.917 5.005-3.917zm11.5 13.923H1.675c-.466-1.025-.702-2.11-.702-3.226 0-4.326 3.52-7.846 7.848-7.846 3.656 0 6.878 2.59 7.66 6.158.028.127.106.237.216.305s.246.088.37.055c.54-.14 1.075-.21 1.593-.21 1.51 0 2.98.548 4.133 1.542.103.09.24.13.374.112.135-.018.256-.093.332-.206.77-1.14 2.05-1.822 3.422-1.822 2.275 0 4.126 1.85 4.126 4.123 0 .326-.048.66-.145 1.018z" id="Fill-1"/><path d="M19.4 50.032c.263 0 .476-.214.476-.478v-4.29c0-.264-.213-.477-.476-.477-.264 0-.478.213-.478.477v4.29c0 .264.214.478.478.478" id="Fill-2"/><path d="M25.95 56.582c0 .264.214.477.478.477h4.29c.264 0 .478-.215.478-.48s-.214-.476-.478-.476h-4.29c-.264 0-.478.213-.478.477" id="Fill-3"/><path d="M24.37 52.09c.12 0 .244-.046.336-.14l3.035-3.033c.188-.187.188-.49 0-.675-.185-.187-.487-.187-.674 0l-3.033 3.033c-.187.187-.187.49 0 .675.093.094.215.14.337.14" id="Fill-4"/><path d="M14.093 51.95c.093.094.215.14.337.14.122 0 .244-.046.337-.14.187-.186.187-.488 0-.675l-3.034-3.033c-.186-.187-.488-.187-.675 0-.185.186-.185.488 0 .675l3.035 3.033" id="Fill-5"/></g><g fill="#fff"><path d="M26.92 99.252c-.837 0-1.644.212-2.362.59.61-.965.954-2.092.954-3.26 0-3.37-2.742-6.112-6.112-6.112-2.676 0-5.03 1.76-5.824 4.262-1.387-.896-3.028-1.413-4.756-1.413-4.853 0-8.802 3.947-8.802 8.8 0 1.362.312 2.68.927 3.916.08.162.247.264.428.264h29.88c.204 0 .384-.128.45-.32.2-.58.296-1.12.296-1.65 0-2.8-2.28-5.078-5.08-5.078zm-7.52-7.828c2.844 0 5.158 2.314 5.158 5.158 0 1.626-.778 3.16-2.08 4.135-1.517-.942-3.326-1.316-5.183-.958-.493-1.77-1.53-3.296-2.9-4.42.566-2.28 2.635-3.917 5.005-3.917zm11.5 13.923H1.675c-.466-1.025-.702-2.11-.702-3.226 0-4.326 3.52-7.846 7.848-7.846 3.656 0 6.878 2.59 7.66 6.158.028.127.106.237.216.305s.246.088.37.055c.54-.14 1.075-.21 1.593-.21 1.51 0 2.98.548 4.133 1.542.103.09.24.13.374.112.135-.018.256-.093.332-.206.77-1.14 2.05-1.822 3.422-1.822 2.275 0 4.126 1.85 4.126 4.123 0 .326-.048.66-.145 1.018z"/><path d="M19.4 90.032c.263 0 .476-.214.476-.478v-4.29c0-.264-.213-.477-.476-.477-.264 0-.478.213-.478.477v4.29c0 .264.214.478.478.478"/><path d="M25.95 96.582c0 .264.214.477.478.477h4.29c.264 0 .478-.215.478-.48s-.214-.476-.478-.476h-4.29c-.264 0-.478.213-.478.477"/><path d="M24.37 92.09c.12 0 .244-.046.336-.14l3.035-3.033c.188-.187.188-.49 0-.675-.185-.187-.487-.187-.674 0l-3.033 3.033c-.187.187-.187.49 0 .675.093.094.215.14.337.14"/><path d="M14.093 91.95c.093.094.215.14.337.14.122 0 .244-.046.337-.14.187-.186.187-.488 0-.675l-3.034-3.033c-.186-.187-.488-.187-.675 0-.185.186-.185.488 0 .675l3.035 3.033"/></g><g fill="#206FAC"><path d="M26.92 139.252c-.837 0-1.644.212-2.362.59.61-.965.954-2.092.954-3.26 0-3.37-2.742-6.112-6.112-6.112-2.676 0-5.03 1.76-5.824 4.262-1.387-.896-3.028-1.413-4.756-1.413-4.853 0-8.802 3.947-8.802 8.8 0 1.362.312 2.68.927 3.916.08.162.247.264.428.264h29.88c.204 0 .384-.128.45-.32.2-.58.296-1.12.296-1.65 0-2.8-2.28-5.078-5.08-5.078zm-7.52-7.828c2.844 0 5.158 2.314 5.158 5.158 0 1.626-.778 3.16-2.08 4.135-1.517-.942-3.326-1.316-5.183-.958-.493-1.77-1.53-3.296-2.9-4.42.566-2.28 2.635-3.917 5.005-3.917zm11.5 13.923H1.675c-.466-1.025-.702-2.11-.702-3.226 0-4.326 3.52-7.846 7.848-7.846 3.656 0 6.878 2.59 7.66 6.158.028.127.106.237.216.305s.246.088.37.055c.54-.14 1.075-.21 1.593-.21 1.51 0 2.98.548 4.133 1.542.103.09.24.13.374.112.135-.018.256-.093.332-.206.77-1.14 2.05-1.822 3.422-1.822 2.275 0 4.126 1.85 4.126 4.123 0 .326-.048.66-.145 1.018zM19.4 130.032c.263 0 .476-.214.476-.478v-4.29c0-.264-.213-.477-.476-.477-.264 0-.478.213-.478.477v4.29c0 .264.214.478.478.478M25.95 136.582c0 .264.214.477.478.477h4.29c.264 0 .478-.215.478-.48s-.214-.476-.478-.476h-4.29c-.264 0-.478.213-.478.477M24.37 132.09c.12 0 .244-.046.336-.14l3.035-3.033c.188-.187.188-.49 0-.675-.185-.187-.487-.187-.674 0l-3.033 3.033c-.187.187-.187.49 0 .675.093.094.215.14.337.14M14.093 131.95c.093.094.215.14.337.14.122 0 .244-.046.337-.14.187-.186.187-.488 0-.675l-3.034-3.033c-.186-.187-.488-.187-.675 0-.185.186-.185.488 0 .675l3.035 3.033"/></g></g></svg>