<svg width="32" height="232" viewBox="0 0 32 232" xmlns="http://www.w3.org/2000/svg"><g fill="none" fill-rule="evenodd"><path d="M4.212 28.947c-.108 0-.218-.027-.318-.084-.306-.177-.412-.57-.236-.878l14.366-25.16c.175-.31.567-.417.873-.24.307.177.413.57.237.878L4.767 28.623c-.117.21-.333.324-.555.324zm11.93 0c-.108 0-.218-.027-.317-.084-.308-.177-.414-.57-.237-.878L29.92 2.88c.176-.307.568-.414.874-.237.307.177.413.57.236.878L16.698 28.626c-.12.208-.334.323-.556.323zm-3.407-4.48c-.108 0-.218-.027-.318-.084-.307-.177-.413-.57-.237-.878L23.865 3.042c.176-.308.568-.415.873-.238.307.177.413.57.237.877L13.29 24.147c-.118.207-.334.323-.555.323zm-9.838-3.665c-.108 0-.217-.028-.318-.085-.308-.177-.415-.57-.24-.878l9.72-17.015c.174-.308.565-.414.872-.238.307.177.413.57.237.878L3.45 20.48c-.12.206-.334.322-.556.322zM.64 13.844c-.11 0-.218-.027-.318-.085-.307-.18-.413-.57-.237-.88l5.617-9.84c.176-.307.568-.414.873-.237.308.177.414.57.238.877l-5.618 9.84c-.118.208-.334.324-.556.324z" id="Precipitation" fill="#3A434E"/><path d="M4.212 68.947c-.108 0-.218-.027-.318-.084-.306-.177-.412-.57-.236-.878l14.366-25.16c.175-.31.567-.417.873-.24.307.177.413.57.237.878L4.767 68.623c-.117.21-.333.324-.555.324zm11.93 0c-.108 0-.218-.027-.317-.084-.308-.177-.414-.57-.237-.878L29.92 42.88c.176-.307.568-.414.874-.237.307.177.413.57.236.877L16.698 68.624c-.12.208-.334.323-.556.323zm-3.407-4.48c-.108 0-.218-.027-.318-.085-.307-.176-.413-.57-.237-.877l11.685-20.463c.176-.308.568-.415.873-.238.307.176.413.57.237.877L13.29 64.147c-.118.207-.334.323-.555.323zm-9.838-3.665c-.108 0-.217-.028-.318-.085-.308-.177-.415-.57-.24-.878l9.718-17.015c.174-.308.565-.414.872-.238.307.176.413.57.237.878L3.452 60.48c-.12.206-.334.322-.556.322zM.64 53.844c-.11 0-.218-.028-.318-.085-.307-.178-.413-.57-.237-.88l5.617-9.84c.176-.307.568-.414.873-.237.308.176.414.57.238.877l-5.618 9.84c-.118.208-.334.324-.556.324z" id="Precipitation" fill="#67737B"/><path d="M4.212 108.947c-.108 0-.218-.027-.318-.084-.306-.177-.412-.57-.236-.878l14.366-25.16c.175-.31.567-.417.873-.24.307.177.413.57.237.878l-14.367 25.16c-.117.21-.333.324-.555.324zm11.93 0c-.108 0-.218-.027-.317-.084-.308-.177-.414-.57-.237-.878L29.92 82.88c.176-.307.568-.414.874-.237.307.177.413.57.236.877l-14.332 25.104c-.12.208-.334.323-.556.323zm-3.407-4.48c-.108 0-.218-.027-.318-.085-.307-.176-.413-.57-.237-.877l11.685-20.463c.176-.308.568-.415.873-.238.307.177.413.57.237.877L13.29 104.147c-.118.207-.334.323-.555.323zm-9.838-3.665c-.108 0-.217-.028-.318-.085-.308-.177-.415-.57-.24-.878l9.718-17.015c.174-.308.565-.414.872-.238.307.177.413.57.237.878L3.452 100.48c-.12.206-.334.322-.556.322zM.64 93.844c-.11 0-.218-.027-.318-.085-.307-.18-.413-.57-.237-.88l5.617-9.84c.176-.307.568-.414.873-.237.308.177.414.57.238.877l-5.618 9.84c-.118.208-.334.324-.556.324z" fill="#fff"/><path d="M4.212 148.947c-.108 0-.218-.027-.318-.084-.306-.177-.412-.57-.236-.878l14.366-25.16c.175-.31.567-.417.873-.24.307.177.413.57.237.878l-14.367 25.16c-.117.21-.333.324-.555.324zm11.93 0c-.108 0-.218-.027-.317-.084-.308-.177-.414-.57-.237-.878L29.92 122.88c.176-.307.568-.414.874-.237.307.177.413.57.236.877l-14.332 25.104c-.12.208-.334.323-.556.323zm-3.407-4.48c-.108 0-.218-.027-.318-.085-.307-.176-.413-.57-.237-.877l11.685-20.463c.176-.308.568-.415.873-.238.307.177.413.57.237.877L13.29 144.147c-.118.207-.334.323-.555.323zm-9.838-3.665c-.108 0-.217-.028-.318-.085-.308-.177-.415-.57-.24-.878l9.718-17.015c.174-.308.565-.414.872-.238.307.177.413.57.237.878L3.452 140.48c-.12.206-.334.322-.556.322zM.64 133.844c-.11 0-.218-.028-.318-.085-.307-.178-.413-.57-.237-.88l5.617-9.84c.176-.307.568-.414.873-.237.308.177.414.57.238.877l-5.618 9.84c-.118.208-.334.324-.556.324z" fill="#206FAC"/></g></svg>