<svg width="32" height="232" viewBox="0 0 32 232" xmlns="http://www.w3.org/2000/svg"><g fill="none" fill-rule="evenodd"><path d="M23.46 2.9c-2.048 0-4.037.753-5.582 2.09C17.128 2.09 14.5 0 11.42 0 8.45 0 5.87 1.944 5.033 4.767 2.143 5.31 0 7.86 0 10.83c0 2.42 1.428 4.627 3.636 5.625.064.03.133.044.202.044h4.86v9.607c0 .27.22.49.49.49s.49-.22.49-.49v-9.61h2.5v14.505c0 .27.22.49.49.49s.49-.22.49-.49V16.5h2.5v11.81c0 .27.22.49.49.49s.49-.22.49-.49V16.5h2.502v14.503c0 .27.22.49.49.49s.49-.22.49-.49V16.5h2.5v9.608c0 .27.22.49.49.49s.49-.22.49-.49v-9.61h6.485c.16 0 .31-.078.403-.21.99-1.433 1.512-3.11 1.512-4.848 0-4.708-3.83-8.54-8.54-8.54zm6.363 12.62H3.946C2.14 14.66.98 12.83.98 10.83c0-2.59 1.937-4.803 4.506-5.144.2-.027.363-.173.412-.37C6.522 2.764 8.794.98 11.42.98c2.9 0 5.332 2.17 5.656 5.05.022.19.152.35.334.41.18.058.382.008.512-.133 1.45-1.565 3.42-2.427 5.54-2.427 4.168 0 7.56 3.39 7.56 7.56 0 1.454-.414 2.86-1.2 4.08z" fill="#3B444F"/><path d="M23.46 42.9c-2.048 0-4.037.753-5.582 2.09-.75-2.9-3.378-4.99-6.457-4.99-2.97 0-5.55 1.944-6.387 4.767C2.143 45.31 0 47.86 0 50.83c0 2.42 1.428 4.627 3.636 5.625.064.03.133.044.202.044h4.86v9.607c0 .27.22.49.49.49s.49-.22.49-.49v-9.61h2.5v14.505c0 .27.22.49.49.49s.49-.22.49-.49V56.5h2.5v11.81c0 .27.22.49.49.49s.49-.22.49-.49V56.5h2.502v14.503c0 .27.22.49.49.49s.49-.22.49-.49V56.5h2.5v9.608c0 .27.22.49.49.49s.49-.22.49-.49v-9.61h6.485c.16 0 .31-.078.403-.21.99-1.433 1.512-3.11 1.512-4.848 0-4.708-3.83-8.54-8.54-8.54zm6.363 12.62H3.946C2.14 54.66.98 52.83.98 50.83c0-2.59 1.937-4.803 4.506-5.144.2-.027.363-.173.412-.37.624-2.553 2.896-4.337 5.523-4.337 2.9 0 5.333 2.17 5.657 5.05.022.19.152.35.334.41.18.057.383.007.513-.134 1.45-1.565 3.42-2.427 5.54-2.427 4.168 0 7.56 3.39 7.56 7.56 0 1.453-.414 2.86-1.2 4.08z" fill="#67737B"/><path d="M23.46 82.9c-2.048 0-4.037.753-5.582 2.09-.75-2.9-3.378-4.99-6.457-4.99-2.97 0-5.55 1.944-6.387 4.767C2.143 85.31 0 87.86 0 90.83c0 2.42 1.428 4.627 3.636 5.625.064.03.133.044.202.044h4.86v9.607c0 .27.22.49.49.49s.49-.22.49-.49v-9.61h2.5v14.505c0 .27.22.49.49.49s.49-.22.49-.49V96.5h2.5v11.81c0 .27.22.49.49.49s.49-.22.49-.49V96.5h2.502v14.503c0 .27.22.49.49.49s.49-.22.49-.49V96.5h2.5v9.608c0 .27.22.49.49.49s.49-.22.49-.49v-9.61h6.485c.16 0 .31-.078.403-.21.99-1.433 1.512-3.11 1.512-4.848 0-4.708-3.83-8.54-8.54-8.54zm6.363 12.62H3.946C2.14 94.66.98 92.83.98 90.83c0-2.59 1.937-4.803 4.506-5.144.2-.027.363-.173.412-.37.624-2.553 2.896-4.337 5.523-4.337 2.9 0 5.333 2.17 5.657 5.05.022.19.152.35.334.41.18.057.383.007.513-.134 1.45-1.565 3.42-2.427 5.54-2.427 4.168 0 7.56 3.39 7.56 7.56 0 1.453-.414 2.86-1.2 4.08z" fill="#fff"/><path d="M23.46 122.9c-2.048 0-4.037.753-5.582 2.09-.75-2.9-3.378-4.99-6.457-4.99-2.97 0-5.55 1.944-6.387 4.767C2.143 125.31 0 127.86 0 130.83c0 2.42 1.428 4.627 3.636 5.625.064.03.133.044.202.044h4.86v9.607c0 .27.22.49.49.49s.49-.22.49-.49v-9.61h2.5v14.505c0 .27.22.49.49.49s.49-.22.49-.49V136.5h2.5v11.81c0 .27.22.49.49.49s.49-.22.49-.49V136.5h2.502v14.503c0 .27.22.49.49.49s.49-.22.49-.49V136.5h2.5v9.608c0 .27.22.49.49.49s.49-.22.49-.49v-9.61h6.485c.16 0 .31-.078.403-.21.99-1.433 1.512-3.11 1.512-4.848 0-4.708-3.83-8.54-8.54-8.54zm6.363 12.62H3.946C2.14 134.66.98 132.83.98 130.83c0-2.59 1.937-4.803 4.506-5.144.2-.027.363-.173.412-.37.624-2.553 2.896-4.337 5.523-4.337 2.9 0 5.333 2.17 5.657 5.05.022.19.152.35.334.41.18.057.383.007.513-.134 1.45-1.565 3.42-2.427 5.54-2.427 4.168 0 7.56 3.39 7.56 7.56 0 1.453-.414 2.86-1.2 4.08z" fill="#206FAC"/></g></svg>