<svg width="32" height="232" viewBox="0 0 32 232" xmlns="http://www.w3.org/2000/svg"><g fill="none" fill-rule="evenodd"><g fill="#3B444F"><path d="M15.99 24.212c-4.528 0-8.21-3.683-8.21-8.21 0-4.527 3.682-8.21 8.21-8.21 4.527 0 8.21 3.683 8.21 8.21 0 4.527-3.683 8.21-8.21 8.21zm0-15.44c-3.987 0-7.23 3.243-7.23 7.23 0 3.986 3.243 7.228 7.23 7.228 3.986 0 7.23-3.242 7.23-7.228 0-3.987-3.244-7.23-7.23-7.23z" id="Fill-1"/><path d="M15.99 6.865c-.27 0-.49-.22-.49-.49V.497c0-.27.22-.49.49-.49s.49.22.49.49v5.878c0 .27-.22.49-.49.49" id="Fill-2"/><path d="M15.99 31.996c-.27 0-.49-.218-.49-.49V25.63c0-.272.22-.492.49-.492s.49.22.49.49v5.88c0 .27-.22.488-.49.488" id="Fill-3"/><path d="M31.496 16.492h-5.878c-.27 0-.49-.22-.49-.49s.22-.49.49-.49h5.878c.272 0 .49.22.49.49s-.218.49-.49.49" id="Fill-4"/><path d="M6.36 16.492H.484c-.272 0-.49-.22-.49-.49s.218-.49.49-.49H6.36c.272 0 .492.22.492.49s-.22.49-.49.49" id="Fill-5"/><path d="M22.797 9.685c-.125 0-.25-.048-.345-.144-.192-.19-.192-.5 0-.692l4.156-4.156c.192-.19.502-.19.694 0 .19.193.19.503 0 .695L23.144 9.54c-.096.097-.22.145-.347.145" id="Fill-6"/><path d="M5.024 27.456c-.125 0-.25-.048-.346-.144-.19-.19-.19-.502 0-.693l4.157-4.16c.19-.19.502-.19.693 0 .192.193.192.503 0 .695L5.37 27.312c-.095.096-.22.144-.346.144" id="Fill-7"/><path d="M26.955 27.456c-.126 0-.25-.048-.347-.144l-4.156-4.156c-.192-.192-.192-.502 0-.694.19-.19.5-.19.692 0l4.158 4.157c.19.19.19.5 0 .69-.096.097-.222.145-.347.145" id="Fill-8"/><path d="M9.182 9.685c-.126 0-.25-.048-.347-.144L4.678 5.387c-.19-.192-.19-.502 0-.694.19-.19.5-.19.693 0l4.16 4.156c.192.192.192.503 0 .694-.095.097-.22.145-.346.145" id="Fill-9"/></g><g fill="#67737B"><path d="M15.99 64.212c-4.528 0-8.21-3.683-8.21-8.21 0-4.527 3.682-8.21 8.21-8.21 4.527 0 8.21 3.683 8.21 8.21 0 4.527-3.683 8.21-8.21 8.21zm0-15.44c-3.987 0-7.23 3.243-7.23 7.23 0 3.986 3.243 7.228 7.23 7.228 3.986 0 7.23-3.242 7.23-7.228 0-3.987-3.244-7.23-7.23-7.23z" id="Fill-1"/><path d="M15.99 46.865c-.27 0-.49-.22-.49-.49v-5.878c0-.27.22-.49.49-.49s.49.22.49.49v5.878c0 .27-.22.49-.49.49" id="Fill-2"/><path d="M15.99 71.996c-.27 0-.49-.218-.49-.49V65.63c0-.272.22-.492.49-.492s.49.22.49.49v5.88c0 .27-.22.488-.49.488" id="Fill-3"/><path d="M31.496 56.492h-5.878c-.27 0-.49-.22-.49-.49s.22-.49.49-.49h5.878c.272 0 .49.22.49.49s-.218.49-.49.49" id="Fill-4"/><path d="M6.36 56.492H.484c-.272 0-.49-.22-.49-.49s.218-.49.49-.49H6.36c.272 0 .492.22.492.49s-.22.49-.49.49" id="Fill-5"/><path d="M22.797 49.685c-.125 0-.25-.048-.345-.144-.192-.19-.192-.5 0-.692l4.156-4.156c.192-.19.502-.19.694 0 .19.193.19.503 0 .695l-4.158 4.156c-.096.097-.22.145-.347.145" id="Fill-6"/><path d="M5.024 67.456c-.125 0-.25-.048-.346-.144-.19-.19-.19-.502 0-.693l4.157-4.16c.19-.19.502-.19.693 0 .192.193.192.503 0 .695L5.37 67.312c-.095.096-.22.144-.346.144" id="Fill-7"/><path d="M26.955 67.456c-.126 0-.25-.048-.347-.144l-4.156-4.156c-.192-.192-.192-.502 0-.694.19-.19.5-.19.692 0l4.158 4.157c.19.19.19.5 0 .69-.096.097-.222.145-.347.145" id="Fill-8"/><path d="M9.182 49.685c-.126 0-.25-.048-.347-.144l-4.157-4.154c-.19-.192-.19-.502 0-.694.19-.19.5-.19.693 0l4.16 4.157c.19.19.19.502 0 .693-.096.097-.22.145-.347.145" id="Fill-9"/></g><g fill="#fff"><path d="M15.99 104.212c-4.528 0-8.21-3.683-8.21-8.21 0-4.527 3.682-8.21 8.21-8.21 4.527 0 8.21 3.683 8.21 8.21 0 4.527-3.683 8.21-8.21 8.21zm0-15.44c-3.987 0-7.23 3.243-7.23 7.23 0 3.986 3.243 7.228 7.23 7.228 3.986 0 7.23-3.242 7.23-7.228 0-3.987-3.244-7.23-7.23-7.23z"/><path d="M15.99 86.865c-.27 0-.49-.22-.49-.49v-5.878c0-.27.22-.49.49-.49s.49.22.49.49v5.878c0 .27-.22.49-.49.49"/><path d="M15.99 111.996c-.27 0-.49-.218-.49-.49v-5.877c0-.273.22-.493.49-.493s.49.22.49.49v5.88c0 .27-.22.488-.49.488"/><path d="M31.496 96.492h-5.878c-.27 0-.49-.22-.49-.49s.22-.49.49-.49h5.878c.272 0 .49.22.49.49s-.218.49-.49.49"/><path d="M6.36 96.492H.484c-.272 0-.49-.22-.49-.49s.218-.49.49-.49H6.36c.272 0 .492.22.492.49s-.22.49-.49.49"/><path d="M22.797 89.685c-.125 0-.25-.048-.345-.144-.192-.19-.192-.5 0-.692l4.156-4.156c.192-.19.502-.19.694 0 .19.193.19.503 0 .695l-4.158 4.156c-.096.097-.22.145-.347.145"/><path d="M5.024 107.456c-.125 0-.25-.048-.346-.144-.19-.19-.19-.502 0-.693l4.157-4.16c.19-.19.502-.19.693 0 .192.193.192.503 0 .695L5.37 107.31c-.094.097-.22.145-.345.145"/><path d="M26.955 107.456c-.126 0-.25-.048-.347-.144l-4.156-4.156c-.192-.192-.192-.502 0-.694.19-.19.5-.19.692 0l4.158 4.157c.19.19.19.5 0 .69-.096.097-.222.145-.347.145"/><path d="M9.182 89.685c-.126 0-.25-.048-.347-.144l-4.157-4.154c-.19-.192-.19-.502 0-.694.19-.19.5-.19.693 0l4.16 4.157c.19.19.19.502 0 .693-.096.097-.22.145-.347.145"/></g><g fill="#206FAC"><path d="M15.99 144.212c-4.528 0-8.21-3.683-8.21-8.21 0-4.527 3.682-8.21 8.21-8.21 4.527 0 8.21 3.683 8.21 8.21 0 4.527-3.683 8.21-8.21 8.21zm0-15.44c-3.987 0-7.23 3.243-7.23 7.23 0 3.986 3.243 7.228 7.23 7.228 3.986 0 7.23-3.242 7.23-7.228 0-3.987-3.244-7.23-7.23-7.23zM15.99 126.865c-.27 0-.49-.22-.49-.49v-5.878c0-.27.22-.49.49-.49s.49.22.49.49v5.878c0 .27-.22.49-.49.49M15.99 151.996c-.27 0-.49-.218-.49-.49v-5.877c0-.273.22-.493.49-.493s.49.22.49.49v5.88c0 .27-.22.488-.49.488M31.496 136.492h-5.878c-.27 0-.49-.22-.49-.49s.22-.49.49-.49h5.878c.272 0 .49.22.49.49s-.218.49-.49.49M6.36 136.492H.484c-.272 0-.49-.22-.49-.49s.218-.49.49-.49H6.36c.272 0 .492.22.492.49s-.22.49-.49.49M22.797 129.685c-.125 0-.25-.048-.345-.144-.192-.19-.192-.5 0-.692l4.156-4.156c.192-.19.502-.19.694 0 .19.193.19.503 0 .695l-4.158 4.156c-.096.097-.22.145-.347.145M5.024 147.456c-.125 0-.25-.048-.346-.144-.19-.19-.19-.502 0-.693l4.157-4.16c.19-.19.502-.19.693 0 .192.193.192.503 0 .695L5.37 147.31c-.094.097-.22.145-.345.145M26.955 147.456c-.126 0-.25-.048-.347-.144l-4.156-4.156c-.192-.192-.192-.502 0-.694.19-.19.5-.19.692 0l4.158 4.157c.19.19.19.5 0 .69-.096.097-.222.145-.347.145M9.182 129.685c-.126 0-.25-.048-.347-.144l-4.157-4.154c-.19-.192-.19-.502 0-.694.19-.19.5-.19.693 0l4.16 4.157c.19.19.19.502 0 .693-.096.097-.22.145-.347.145"/></g></g></svg>