<svg width="32" height="232" viewBox="0 0 32 232" xmlns="http://www.w3.org/2000/svg"><g fill="none" fill-rule="evenodd"><path d="M23.46 4.9c-2.048 0-4.037.754-5.582 2.09C17.128 4.09 14.5 2 11.42 2 8.45 2 5.87 3.944 5.033 6.768 2.143 7.31 0 9.86 0 12.83c0 2.42 1.428 4.627 3.636 5.626.064.028.133.043.202.043h1.447l-.778 1.596c-.074.152-.064.33.025.475.09.143.246.23.415.23h2.257l-.502 5.326c-.02.21.098.41.293.495.063.028.13.04.194.04.136 0 .27-.057.365-.164L14.6 18.5h.29v7.044c0 .27.218.49.49.49.27 0 .488-.22.488-.49V18.5h1.618v10.695c0 .27.22.49.49.49s.49-.22.49-.49V18.5h1.616v8.687c0 .27.22.49.49.49s.49-.22.49-.49V18.5h1.617v10.695c0 .27.217.49.49.49.27 0 .487-.22.487-.49V18.5h1.618v7.044c0 .27.22.49.49.49s.49-.22.49-.49V18.5h3.83c.16 0 .31-.08.402-.212.99-1.433 1.512-3.11 1.512-4.848 0-4.708-3.83-8.54-8.54-8.54zM7.82 24.72l.41-4.362c.014-.137-.032-.274-.125-.375-.093-.102-.224-.16-.362-.16H5.73l.712-1.462c.075-.07.12-.17.136-.277l2.24-4.6h5.194l-2.667 4.17c-.07.066-.114.152-.137.248 0 .004 0 .006-.002.01-.007.033-.02.064-.02.1l.002.007c-.005.093.013.183.058.264.086.158.25.256.43.256h1.59l-5.45 6.184zm22.005-7.2h-17.23l2.725-4.264c.096-.15.103-.342.017-.5-.086-.156-.25-.253-.43-.253H8.513c-.187 0-.358.106-.44.275l-2.31 4.742H3.946C2.14 16.66.98 14.83.98 12.83c0-2.59 1.937-4.803 4.506-5.144.2-.026.363-.173.412-.37.624-2.553 2.896-4.337 5.523-4.337 2.9 0 5.333 2.17 5.657 5.05.022.19.152.35.334.41.18.06.383.007.513-.134 1.45-1.565 3.42-2.427 5.54-2.427 4.168 0 7.56 3.39 7.56 7.56 0 1.453-.414 2.86-1.2 4.08z" fill="#3B444F"/><path d="M23.46 44.9c-2.048 0-4.037.754-5.582 2.09-.75-2.9-3.378-4.99-6.457-4.99-2.97 0-5.55 1.944-6.387 4.768C2.143 47.31 0 49.86 0 52.83c0 2.42 1.428 4.627 3.636 5.626.064.028.133.043.202.043h1.447l-.778 1.596c-.074.152-.064.33.025.475.09.143.246.23.415.23h2.257l-.502 5.326c-.02.21.098.41.293.495.063.028.13.04.194.04.136 0 .27-.057.365-.164L14.6 58.5h.29v7.044c0 .27.218.49.49.49.27 0 .488-.22.488-.49V58.5h1.618v10.695c0 .27.22.49.49.49s.49-.22.49-.49V58.5h1.616v8.687c0 .27.22.49.49.49s.49-.22.49-.49V58.5h1.617v10.695c0 .27.217.49.49.49.27 0 .487-.22.487-.49V58.5h1.618v7.044c0 .27.22.49.49.49s.49-.22.49-.49V58.5h3.83c.16 0 .31-.08.402-.212.99-1.433 1.512-3.11 1.512-4.848 0-4.708-3.83-8.54-8.54-8.54zM7.82 64.72l.41-4.362c.014-.137-.032-.274-.125-.375-.093-.102-.224-.16-.362-.16H5.73l.712-1.462c.075-.07.12-.17.136-.277l2.24-4.6h5.194l-2.667 4.17c-.07.066-.114.152-.137.248 0 .004 0 .006-.002.01-.007.033-.02.064-.02.1l.002.007c-.005.093.013.183.058.264.086.158.25.256.43.256h1.59l-5.45 6.184zm22.005-7.2h-17.23l2.725-4.264c.096-.15.103-.342.017-.5-.086-.156-.25-.253-.43-.253H8.513c-.187 0-.358.106-.44.275l-2.31 4.742H3.946C2.14 56.66.98 54.83.98 52.83c0-2.59 1.937-4.803 4.506-5.144.2-.026.363-.173.412-.37.624-2.553 2.896-4.337 5.523-4.337 2.9 0 5.333 2.17 5.657 5.05.022.19.152.35.334.41.18.06.383.007.513-.134 1.45-1.565 3.42-2.427 5.54-2.427 4.168 0 7.56 3.39 7.56 7.56 0 1.453-.414 2.86-1.2 4.08z" fill="#67737B"/><path d="M23.46 84.9c-2.048 0-4.037.754-5.582 2.09-.75-2.9-3.378-4.99-6.457-4.99-2.97 0-5.55 1.944-6.387 4.768C2.143 87.31 0 89.86 0 92.83c0 2.42 1.428 4.627 3.636 5.626.064.028.133.043.202.043h1.447l-.778 1.596c-.074.152-.064.33.025.475.09.143.246.23.415.23h2.257l-.502 5.326c-.02.21.098.41.293.495.063.028.13.04.194.04.136 0 .27-.057.365-.164L14.6 98.5h.29v7.044c0 .27.218.49.49.49.27 0 .488-.22.488-.49V98.5h1.618v10.695c0 .27.22.49.49.49s.49-.22.49-.49V98.5h1.616v8.687c0 .27.22.49.49.49s.49-.22.49-.49V98.5h1.617v10.695c0 .27.217.49.49.49.27 0 .487-.22.487-.49V98.5h1.618v7.044c0 .27.22.49.49.49s.49-.22.49-.49V98.5h3.83c.16 0 .31-.08.402-.212.99-1.433 1.512-3.11 1.512-4.848 0-4.708-3.83-8.54-8.54-8.54zM7.82 104.72l.41-4.362c.014-.137-.032-.274-.125-.375-.093-.102-.224-.16-.362-.16H5.73l.712-1.462c.075-.07.12-.17.136-.277l2.24-4.6h5.194l-2.667 4.17c-.07.066-.114.152-.137.248 0 .004 0 .006-.002.01-.007.033-.02.064-.02.1l.002.007c-.005.093.013.183.058.264.086.158.25.256.43.256h1.59l-5.448 6.184zm22.005-7.2h-17.23l2.725-4.264c.096-.15.103-.342.017-.5-.086-.156-.25-.253-.43-.253H8.513c-.187 0-.358.106-.44.275l-2.31 4.742H3.946C2.14 96.66.98 94.83.98 92.83c0-2.59 1.937-4.803 4.506-5.144.2-.026.363-.173.412-.37.624-2.553 2.896-4.337 5.523-4.337 2.9 0 5.333 2.17 5.657 5.05.022.19.152.35.334.41.18.06.383.007.513-.134 1.45-1.565 3.42-2.427 5.54-2.427 4.168 0 7.56 3.39 7.56 7.56 0 1.453-.414 2.86-1.2 4.08z" fill="#fff"/><path d="M23.46 124.9c-2.048 0-4.037.754-5.582 2.09-.75-2.9-3.378-4.99-6.457-4.99-2.97 0-5.55 1.944-6.387 4.768C2.143 127.31 0 129.86 0 132.83c0 2.42 1.428 4.627 3.636 5.626.064.028.133.043.202.043h1.447l-.778 1.596c-.074.152-.064.33.025.475.09.143.246.23.415.23h2.257l-.502 5.326c-.02.21.098.41.293.495.063.028.13.04.194.04.136 0 .27-.057.365-.164L14.6 138.5h.29v7.044c0 .27.218.49.49.49.27 0 .488-.22.488-.49V138.5h1.618v10.695c0 .27.22.49.49.49s.49-.22.49-.49V138.5h1.616v8.687c0 .27.22.49.49.49s.49-.22.49-.49V138.5h1.617v10.695c0 .27.217.49.49.49.27 0 .487-.22.487-.49V138.5h1.618v7.044c0 .27.22.49.49.49s.49-.22.49-.49V138.5h3.83c.16 0 .31-.08.402-.212.99-1.433 1.512-3.11 1.512-4.848 0-4.708-3.83-8.54-8.54-8.54zM7.82 144.72l.41-4.362c.014-.137-.032-.274-.125-.375-.093-.102-.224-.16-.362-.16H5.73l.712-1.462c.075-.07.12-.17.136-.277l2.24-4.6h5.194l-2.667 4.17c-.07.066-.114.152-.137.248 0 .004 0 .006-.002.01-.007.033-.02.064-.02.1l.002.007c-.005.093.013.183.058.264.086.158.25.256.43.256h1.59l-5.448 6.184zm22.005-7.2h-17.23l2.725-4.264c.096-.15.103-.342.017-.5-.086-.156-.25-.253-.43-.253H8.513c-.187 0-.358.106-.44.275l-2.31 4.742H3.946C2.14 136.66.98 134.83.98 132.83c0-2.59 1.937-4.803 4.506-5.144.2-.026.363-.173.412-.37.624-2.553 2.896-4.337 5.523-4.337 2.9 0 5.333 2.17 5.657 5.05.022.19.152.35.334.41.18.06.383.007.513-.134 1.45-1.565 3.42-2.427 5.54-2.427 4.168 0 7.56 3.39 7.56 7.56 0 1.453-.414 2.86-1.2 4.08z" fill="#206FAC"/></g></svg>