<svg class="svg-mask" version="1.1" xmlns="http://www.w3.org/2000/svg" xmlns:xlink="http://www.w3.org/1999/xlink" x="0px" y="0px" width="62px" height="36px" viewBox="0 0 124 72" style="fill: white;" xml:space="preserve"> <path d="M0,0v72h124V0H0z M14.018,47.746c-6.629,0-12-5.375-12-12c0-6.627,5.371-12,12-12 c6.627,0,12,5.373,12,12C26.018,42.371,20.645,47.746,14.018,47.746z M46.018,47.746c-6.629,0-12-5.375-12-12 c0-6.627,5.371-12,12-12c6.627,0,12,5.373,12,12C58.018,42.371,52.645,47.746,46.018,47.746z M78.018,47.746  c-6.629,0-12-5.375-12-12c0-6.627,5.371-12,12-12c6.627,0,12,5.373,12,12C90.018,42.371,84.645,47.746,78.018,47.746z  M110.018,47.746c-6.629,0-12-5.375-12-12c0-6.627,5.371-12,12-12c6.627,0,12,5.373,12,12C122.018,42.371,116.645,47.746,110.018,47.746z" /></svg>